<svg width="60" height="60" viewBox="0 0 60 60" fill="none" xmlns="http://www.w3.org/2000/svg">
<g filter="url(#filter0_b_392_5650)">
<rect width="60" height="60" rx="10" fill="#2D2F4A"/>
</g>
<path d="M50 51.7576C49.9037 49.5706 49.7178 47.4028 49.2246 45.2567C49.2313 44.4627 48.7306 43.6894 48.9893 42.9238C49.5922 42.0088 49.4407 40.6776 49.2422 39.6666C49.2573 39.5132 49.0898 39.5407 49.0563 39.4406C49.0346 39.1528 48.5765 39.3797 48.4099 39.308C48.3965 39.1111 48.4535 38.8943 48.2475 38.7525C48.2207 38.609 48.1076 38.5223 47.9871 38.5223C47.3415 38.604 47.3591 37.2011 46.9814 36.7523C46.7981 36.3762 46.7445 35.9174 46.3953 35.6413C46.1525 34.9924 45.7238 34.4069 45.2306 33.9131C45.1452 33.7354 45.167 33.3984 44.9811 33.3192C44.9459 33.1441 44.8354 32.9981 44.7123 32.8388C44.6537 32.737 44.6662 32.5719 44.4812 32.5844C44.8605 31.958 45.4458 31.4817 45.805 30.8378C46.5653 29.766 47.1958 28.6383 47.5458 27.4255C47.8539 27.0243 47.303 26.679 47.2477 26.2611C47.488 25.8975 46.9438 25.92 46.9731 25.6673C47.169 25.7031 47.6496 25.7782 47.2511 25.4262C47.3214 25.1793 47.0995 24.9533 46.9957 24.7306C46.8709 24.467 46.9999 24.1492 46.8006 23.929C46.5871 22.6387 46.181 21.5777 45.6325 20.4092C45.3738 19.9546 44.9484 19.4883 45.0749 18.9303C45.0548 18.8069 45.249 18.6768 45.0631 18.5592C46.021 15.7917 45.8561 12.0508 44.2266 9.40587C42.1208 5.31382 41.7339 11.3168 40.7115 12.728C40.3264 13.2152 39.8097 14.5906 39.1123 13.9692C38.877 13.9592 38.3034 13.5488 38.1745 13.8149C37.7843 13.7623 37.4167 13.6055 37.0357 13.5688C36.2252 13.3469 35.3594 13.4687 34.5212 13.4012C34.574 13.3561 34.6275 13.3111 34.6803 13.2669C33.961 13.1968 33.2434 13.422 32.5083 13.5146C32.3291 13.5605 32.1315 13.5446 31.9782 13.6747C31.9615 13.6664 31.9456 13.6681 31.9314 13.6797C30.7156 13.9216 31.1669 14.2127 29.9101 12.9291C29.8104 12.6563 29.5441 12.4978 29.3926 12.2534C29.4093 12.2551 29.4252 12.2526 29.442 12.2476C28.7931 11.5445 28.3543 10.4485 27.8971 9.59187C27.7255 9.29326 27.1377 7.34566 26.7424 8.24648C26.7056 8.28151 26.6688 8.31738 26.6328 8.35241C26.3003 8.42414 26.1178 8.80282 25.8892 9.06973C25.4823 9.4801 25.1817 10.0715 25.0645 10.607C24.8828 10.7529 24.7387 10.9398 24.6533 11.1725C24.1074 11.9957 23.8336 12.9307 23.569 13.7023C23.2776 14.3345 23.3864 13.995 23.3923 14.7032C23.2558 15.6157 22.9695 16.6191 23.2048 17.5266C23.0976 17.6258 23.1378 17.8469 23.296 17.8485C23.2022 17.9486 23.2014 18.1021 23.3153 18.1822C24.0563 20.2465 24.5152 21.0189 23.6368 23.2526C23.0565 24.2827 23.08 25.5038 22.5475 26.5773C22.3582 26.6924 22.5039 26.8525 22.3951 27.0068C22.3624 27.0619 22.3297 27.1178 22.2971 27.1728C22.3666 27.2329 22.4905 27.2295 22.5106 27.1211C22.5382 27.1378 22.5701 27.1495 22.6027 27.1403C22.5918 27.1678 22.5843 27.1962 22.5801 27.2262C22.5056 27.2287 22.5089 27.3321 22.4436 27.3513C22.4537 27.4305 22.5759 27.4189 22.6211 27.3697C22.8095 27.4222 22.4177 28.4715 22.3105 28.5916C22.0986 29.2305 21.7754 28.9544 22.2912 29.5958C23.1595 30.4408 23.8646 31.6002 24.9665 32.2224V32.2216C24.7396 33.0139 24.8543 33.7663 24.4256 34.4311C24.0211 34.9724 24.022 35.7139 23.6251 36.3361C22.6454 38.1603 22.2418 40.3447 21.8073 42.3282C21.8324 42.5292 21.7587 42.6402 21.5962 42.7461C21.587 42.5809 21.6289 42.415 21.6189 42.2481C21.6256 42.1447 21.6331 42.0421 21.6398 41.9387C21.9111 40.2955 21.6808 38.5156 21.5343 36.8382C21.5778 36.533 21.5041 36.0634 21.2504 35.829C21.3392 35.5929 21.4363 35.261 21.2002 35.07C21.1801 34.2484 21.4522 33.0323 20.9942 32.3233C20.6995 30.2498 20.6861 28.1045 20.1092 26.2753C19.9049 25.8124 19.7558 22.8472 19.1119 23.3377C18.7477 22.6387 18.0535 20.3441 17.449 20.1681C17.356 19.9871 17.2656 19.8053 17.1174 19.661C16.9139 19.3882 16.7816 18.9954 16.5204 18.8194C15.4553 17.7142 15.6035 16.207 14.7804 14.9167C14.2027 15.7641 11.1648 10.4526 11.5006 12.7089C11.3641 12.5846 11.2285 12.4595 11.092 12.3352C9.70874 10.4051 10.6382 13.1126 10.8492 13.8332C10.8869 14.4538 11.9151 16.564 11.5207 16.8301C10.6608 16.036 10.6131 17.0019 10.8509 17.6667C10.8592 17.6475 10.8676 17.6292 10.876 17.61C10.8885 18.1538 11.1004 18.7151 11.1975 19.334C10.1023 17.7468 10.7881 20.4993 10.8308 21.0464C10.7872 21.5819 10.9781 22.0865 10.8944 22.6203C10.0613 21.8922 11.0217 24.0767 10.8617 24.472C9.64092 22.2792 10.3644 25.1076 10.4305 25.9033C10.351 25.6981 10.1743 25.553 10.1542 25.3395C9.93733 25.136 9.9859 25.6965 10.078 25.7949C9.97668 26.468 10.5109 27.242 10.2555 27.8342C9.84941 27.4898 10.2781 29.3982 10.4916 29.2981C10.4447 29.5675 10.4129 29.7802 10.6097 29.997C10.5804 30.1388 10.6281 30.6334 10.8249 30.4925C10.8215 30.7811 10.8902 31.0522 11.0032 31.3116C10.7336 31.0196 10.6725 30.9796 10.5042 31.2523C10.5235 31.46 10.5829 31.6552 10.6809 31.832C10.7395 31.963 10.7219 32.139 10.9178 32.1698C10.8391 32.375 10.8584 32.5051 11.0878 32.5902C11.0091 32.858 11.0702 33.0473 11.3365 33.1699C11.2343 33.2909 11.2988 33.5319 11.504 33.5069C11.4244 34.0165 10.5519 32.5844 10.598 33.2275C10.6457 33.627 10.8098 33.969 10.9329 34.3276C10.9664 34.4502 10.9781 34.582 11.0803 34.6754C11.195 35.1125 11.3834 35.4887 11.5885 35.9091C11.7259 36.0242 11.6614 36.4929 11.9369 36.6664C11.869 36.8799 12.0147 37.0793 12.2073 37.1669C12.2726 37.3554 12.235 37.5931 12.451 37.7491C12.451 37.7491 12.4585 37.7499 12.4661 37.7507L12.451 37.7491C12.451 37.9909 12.1596 37.7165 12.1855 37.8758C12.1328 38.2136 12.4619 38.2595 12.6101 38.5114C12.492 38.7058 12.8512 38.9151 12.9735 39.0844C12.9274 39.1178 12.9056 39.1645 12.8906 39.2129C12.6863 38.8784 11.3265 38.2328 12.0323 39.0836C12.24 39.298 12.2936 39.7642 12.6762 39.9436C12.9182 40.4357 13.285 40.9737 13.6936 41.4132C13.964 41.8253 14.3057 42.103 14.5217 42.5709C12.6009 42.0204 15.0802 43.6236 15.1514 44.1932C15.1622 44.1824 15.1731 44.1707 15.184 44.1599C12.9408 43.4367 14.7118 44.7596 15.3565 45.4936C15.5064 45.7338 16.2265 46.4728 15.5148 46.0457C14.4982 45.9231 16.5983 47.1751 16.78 47.3436C16.7448 47.5663 17.1325 47.5755 17.0278 47.8324C15.8832 47.1426 15.5097 47.7898 16.6075 48.1693C16.8545 48.3945 17.1902 48.5263 17.4414 48.7682C15.3615 49.0793 18.2428 49.9476 18.8632 50.504C28.0152 53.8286 40.1623 50.9911 50 51.7576ZM47.0752 28.2429C47.0668 28.2438 47.0568 28.2463 47.0476 28.2488C47.0509 28.2396 47.0551 28.2304 47.0585 28.2221C47.0652 28.2288 47.0702 28.2363 47.0752 28.2429ZM48.9935 44.9206C48.9919 44.9214 48.991 44.9222 48.9893 44.9231C48.9893 44.9206 48.9902 44.9181 48.9902 44.9164C48.9919 44.9181 48.9927 44.9197 48.9935 44.9206ZM34.0682 13.4345C34.0766 13.4362 34.0841 13.4387 34.0925 13.4395C34.0799 13.4587 34.0682 13.4771 34.0557 13.4962C34.0531 13.4887 34.0464 13.4429 34.0682 13.4345ZM30.8336 50.4197C30.837 50.4189 30.8403 50.4197 30.8428 50.4189C30.8412 50.4214 30.8403 50.4239 30.8386 50.4264C30.8378 50.4239 30.8353 50.4222 30.8336 50.4197ZM30.4585 50.1603C30.4401 50.1403 30.425 50.1169 30.4158 50.0861C30.4736 50.0786 30.4593 50.1211 30.4585 50.1603ZM14.6021 21.7554L14.6012 21.7546C14.6021 21.7546 14.6029 21.7546 14.6037 21.7546C14.6029 21.7546 14.6029 21.7546 14.6021 21.7554ZM13.0153 33.4293C13.0145 33.426 13.0145 33.4235 13.0137 33.4201C13.0162 33.4226 13.0179 33.4251 13.0204 33.4276C13.0187 33.4276 13.017 33.4293 13.0153 33.4293ZM15.2719 26.076C15.2719 26.0793 15.2719 26.0835 15.2719 26.0868C15.2719 26.0835 15.2661 26.0768 15.2719 26.076ZM17.2807 35.4195V35.4203C17.2798 35.4194 17.2798 35.4195 17.2807 35.4195ZM17.8584 39.5966C17.8568 39.5899 17.8576 39.5857 17.866 39.5857C17.8635 39.5899 17.8609 39.5924 17.8584 39.5966ZM14.6037 32.2532C14.6063 32.2549 14.6071 32.2574 14.6096 32.2599C14.6071 32.2599 14.6046 32.2583 14.6029 32.2599C14.6037 32.2574 14.6037 32.2557 14.6037 32.2532ZM13.9339 30.1705C13.933 30.1772 13.933 30.1839 13.9247 30.1797C13.928 30.1764 13.9305 30.173 13.9339 30.1705ZM14.1508 32.8755C14.1508 32.8771 14.1508 32.8796 14.1508 32.8813C14.1499 32.8796 14.1482 32.878 14.1474 32.8771C14.1482 32.8763 14.1491 32.8755 14.1508 32.8755ZM14.8541 33.3367C14.8566 33.3384 14.8575 33.3401 14.86 33.3417C14.8566 33.3409 14.8549 33.3417 14.8541 33.3442C14.8541 33.3417 14.8541 33.3392 14.8541 33.3367ZM14.1817 32.2407C14.1826 32.2457 14.1834 32.2499 14.1834 32.2541C14.1759 32.2491 14.1692 32.2457 14.1616 32.2416C14.1683 32.2407 14.175 32.2407 14.1817 32.2407ZM15.7015 32.6836C15.6981 32.6786 15.6939 32.6753 15.6914 32.6703C15.7057 32.6703 15.7207 32.6703 15.735 32.6703C15.7224 32.672 15.7115 32.677 15.7015 32.6836ZM15.4478 30.3398C15.4453 30.3415 15.4436 30.344 15.4411 30.3457C15.4394 30.3407 15.4436 30.3373 15.4478 30.3398ZM17.3125 34.914C17.3117 34.9123 17.3117 34.9107 17.3108 34.909C17.3125 34.9115 17.3142 34.914 17.315 34.9165C17.315 34.9157 17.3142 34.9148 17.3125 34.914ZM16.6945 32.5035C16.6912 32.4993 16.6887 32.496 16.6853 32.4918C16.6878 32.491 16.6895 32.4893 16.692 32.4885C16.6929 32.4935 16.6937 32.4985 16.6945 32.5035ZM15.8338 32.687C15.8145 32.682 15.7953 32.677 15.7743 32.6703C15.7986 32.6711 15.8221 32.6703 15.8455 32.6678C15.8421 32.6745 15.838 32.6803 15.8338 32.687ZM16.5279 39.4197C16.5288 39.4206 16.5296 39.4222 16.5304 39.4231C16.5296 39.4231 16.5288 39.4231 16.5279 39.4239C16.5279 39.4231 16.5279 39.4214 16.5279 39.4197ZM16.0255 38.8367C16.0289 38.8392 16.0314 38.8417 16.0339 38.8442C16.0305 38.8451 16.028 38.8459 16.0247 38.8467C16.0255 38.8434 16.0255 38.8401 16.0255 38.8367ZM16.5237 41.404C16.5246 41.409 16.5262 41.4149 16.5271 41.4199C16.5246 41.4149 16.5212 41.4099 16.5187 41.4049C16.5204 41.4049 16.5221 41.4049 16.5237 41.404ZM17.1132 27.2345C17.1132 27.2128 17.1132 27.1912 17.1132 27.1703C17.1325 27.197 17.1534 27.2178 17.1132 27.2345ZM16.7774 28.2521C16.7766 28.2521 16.7766 28.2521 16.7774 28.2521C16.7766 28.253 16.7774 28.2521 16.7774 28.2521C16.7774 28.2546 16.7766 28.2563 16.7758 28.2588C16.7749 28.2571 16.7741 28.2555 16.7724 28.2538C16.7741 28.253 16.7758 28.253 16.7774 28.2521C16.7766 28.2521 16.7766 28.2521 16.7774 28.2521ZM14.6029 26.0042C14.5996 25.9992 14.597 25.9934 14.5945 25.9876C14.5979 25.9867 14.6021 25.9859 14.6054 25.9842C14.6037 25.9917 14.6037 25.9984 14.6029 26.0042ZM13.8485 25.7515C13.846 25.7499 13.8443 25.7482 13.8418 25.7465C13.8443 25.7457 13.846 25.7457 13.8485 25.7448C13.8485 25.7473 13.8485 25.749 13.8485 25.7515ZM14.0134 26.8233C14.0134 26.8283 14.0134 26.8325 14.0126 26.8375C14.0092 26.8333 14.0067 26.8283 14.0034 26.8242C14.0076 26.8242 14.0109 26.8233 14.0134 26.8233ZM12.7625 28.8368C12.7633 28.8376 12.7633 28.8376 12.7625 28.8368C12.7625 28.8376 12.7625 28.8376 12.7625 28.8368C12.7625 28.8376 12.7625 28.8368 12.7625 28.8368ZM13.8527 24.8374C13.8527 24.834 13.8527 24.8307 13.8527 24.8273C13.8543 24.8273 13.856 24.8282 13.8585 24.8282C13.8569 24.8315 13.8543 24.834 13.8527 24.8374ZM12.6796 25.8374C12.6787 25.8358 12.6787 25.8349 12.6787 25.8333C12.6796 25.8333 12.6812 25.8333 12.6829 25.8333C12.6812 25.8349 12.6804 25.8358 12.6796 25.8374ZM19.1211 41.9203L19.1203 41.9195H19.1211C19.1211 41.9195 19.1211 41.9195 19.1211 41.9203ZM18.1172 31.0029C18.1247 31.0038 18.1314 31.0038 18.1389 31.0038C18.1314 31.013 18.1255 31.0105 18.1172 31.0029ZM13.5152 22.7538C13.5119 22.7521 13.5094 22.7505 13.506 22.7488C13.5085 22.7471 13.511 22.7446 13.5135 22.7421C13.5144 22.7463 13.5152 22.7505 13.5152 22.7538ZM13.599 24.1701C13.5981 24.1693 13.5973 24.1693 13.5964 24.1684C13.5973 24.1684 13.5981 24.1676 13.5981 24.1676C13.599 24.1693 13.599 24.1701 13.599 24.1701ZM18.9511 33.6053C18.952 33.5986 18.9528 33.5928 18.9536 33.5861C18.9553 33.5936 18.957 33.6003 18.9511 33.6053ZM12.4284 23.0874C12.4284 23.0866 12.4284 23.0858 12.4284 23.0849C12.4292 23.0858 12.43 23.0858 12.4309 23.0866C12.43 23.0866 12.4292 23.0866 12.4284 23.0874ZM19.3723 47.5588C19.3723 47.568 19.3723 47.5771 19.3723 47.5863C19.3639 47.578 19.3564 47.5688 19.3489 47.5596C19.3556 47.5596 19.3639 47.5596 19.3723 47.5588ZM14.6037 21.7537C14.6037 21.7496 14.6037 21.7446 14.6037 21.7404C14.6071 21.7412 14.6096 21.7429 14.613 21.7437C14.6096 21.7471 14.6071 21.7504 14.6037 21.7537ZM19.5155 47.8124C19.523 47.8199 19.5314 47.8282 19.5389 47.8357C19.5423 47.839 19.5456 47.8432 19.549 47.8465C19.5364 47.8474 19.5281 47.8249 19.5155 47.8124ZM12.6034 20.395C12.6009 20.4033 12.5992 20.4117 12.5958 20.4209C12.595 20.4117 12.5925 20.4025 12.5917 20.3933C12.595 20.3942 12.5992 20.3942 12.6034 20.395ZM13.5152 17.5875C13.5127 17.5858 13.5102 17.5841 13.5077 17.5824C13.5102 17.5816 13.5127 17.5808 13.5152 17.5799C13.5152 17.5824 13.5152 17.5849 13.5152 17.5875ZM19.7064 49.9993C19.7064 50.001 19.7064 50.0018 19.7064 50.0035C19.7056 50.0027 19.7047 50.001 19.7039 50.0002C19.7056 50.0002 19.7056 49.9993 19.7064 49.9993ZM20.3763 49.5031C20.3813 49.5072 20.3846 49.5114 20.3897 49.5156C20.3846 49.5189 20.3796 49.5214 20.3746 49.5247C20.3746 49.5181 20.3746 49.5106 20.3763 49.5031ZM18.9528 26.7541C18.952 26.7533 18.952 26.7524 18.9511 26.7516C18.952 26.7516 18.952 26.7516 18.9528 26.7508C18.9528 26.7516 18.9528 26.7533 18.9528 26.7541ZM16.1093 22.6704C16.1084 22.6696 16.1076 22.6687 16.1076 22.6687C16.1084 22.6679 16.1093 22.6679 16.1093 22.6671C16.1093 22.6687 16.1093 22.6696 16.1093 22.6704ZM13.264 37.2428C13.264 37.2461 13.2649 37.2503 13.2649 37.2536C13.2623 37.2511 13.2607 37.2478 13.2582 37.2453C13.2598 37.2444 13.2615 37.2436 13.264 37.2428ZM20.1251 35.5062C20.1242 35.5062 20.1234 35.5062 20.1226 35.5062C20.1234 35.5054 20.1242 35.5045 20.1251 35.5037C20.1251 35.5045 20.1251 35.5054 20.1251 35.5062ZM43.3274 47.613C43.3516 47.6047 43.3776 47.5963 43.4061 47.5897C43.3876 47.6113 43.3717 47.6322 43.3558 47.6539C43.3483 47.6389 43.3391 47.6255 43.3274 47.613ZM35.3409 16.1278C35.3811 16.1111 35.3753 16.1378 35.3393 16.132C35.3401 16.1311 35.3401 16.1295 35.3409 16.1278ZM24.3938 22.6587C24.3954 22.6587 24.3971 22.6579 24.3979 22.6579C24.3954 22.6612 24.3929 22.6654 24.3904 22.6687C24.3912 22.6654 24.3921 22.6621 24.3938 22.6587ZM42.6299 34.2576C42.6332 34.2592 42.6366 34.2617 42.6399 34.2634C42.6357 34.2634 42.6324 34.2651 42.6282 34.2659C42.629 34.2634 42.629 34.2601 42.6299 34.2576ZM23.3873 38.8367C23.3873 38.8392 23.3873 38.8417 23.3873 38.8442C23.3839 38.8426 23.3864 38.8392 23.3873 38.8367ZM45.2247 37.6698C45.2256 37.6698 45.2256 37.6707 45.2256 37.6707C45.2247 37.6707 45.2247 37.6715 45.2239 37.6715C45.2247 37.6715 45.2247 37.6707 45.2247 37.6698ZM46.0579 43.0063C46.0579 43.0055 46.057 43.0047 46.057 43.0038C46.0587 43.0038 46.0595 43.003 46.0612 43.003C46.0595 43.0047 46.0587 43.0055 46.0579 43.0063ZM42.2966 34.5879C42.3008 34.5929 42.3058 34.5979 42.31 34.602C42.3075 34.6037 42.305 34.607 42.3016 34.607C42.3025 34.6079 42.2958 34.5912 42.2966 34.5879ZM42.5486 19.6652C42.521 19.6693 42.5018 19.6593 42.5026 19.631C42.5177 19.6426 42.5336 19.6543 42.5486 19.6652ZM26.7768 18.9137C26.7743 18.9228 26.7734 18.9312 26.7709 18.9395C26.7667 18.9337 26.7625 18.9278 26.7584 18.9228C26.7651 18.9195 26.7709 18.917 26.7768 18.9137ZM36.6857 46.5095C36.6857 46.5254 36.6823 46.5329 36.6656 46.5345C36.6288 46.4878 36.6882 46.472 36.6857 46.5095ZM41.3596 35.7514C41.3739 35.7789 41.3504 35.7773 41.3287 35.7856C41.3387 35.7731 41.3488 35.7623 41.3596 35.7514ZM38.6969 36.6739C38.6961 36.6731 38.6953 36.6723 38.6944 36.6706C38.6961 36.6706 38.6986 36.6706 38.7003 36.6706C38.7011 36.6731 38.6986 36.6773 38.6986 36.6798C38.6969 36.6781 38.6969 36.6756 38.6969 36.6739ZM39.3216 37.6248C39.3216 37.6206 39.3216 37.6164 39.3216 37.6123C39.3241 37.6173 39.3266 37.6223 39.3291 37.6281C39.3291 37.6281 39.3249 37.6265 39.3216 37.6248ZM37.8613 39.0035C37.8605 39.0077 37.8579 39.011 37.8571 39.0152C37.8546 39.0119 37.8512 39.0094 37.8487 39.006C37.8529 39.0052 37.8571 39.0035 37.8613 39.0035ZM36.0334 37.9359C36.0343 37.9342 36.0351 37.9334 36.0359 37.9317C36.0368 37.9326 36.0376 37.9334 36.0376 37.9342C36.0359 37.9342 36.0343 37.9351 36.0334 37.9359ZM33.6696 37.7749C33.6696 37.7758 33.6696 37.7758 33.6705 37.7766C33.6696 37.7766 33.6688 37.7766 33.668 37.7766C33.668 37.7766 33.6688 37.7758 33.6696 37.7749ZM35.006 36.9283C35.0052 36.9317 35.0052 36.935 35.0043 36.9375C35.0027 36.9358 35.0018 36.9342 35.0002 36.9325C35.0027 36.9317 35.0043 36.93 35.006 36.9283ZM40.1991 41.5025C40.1983 41.505 40.1966 41.5066 40.1949 41.5091C40.1941 41.5066 40.1932 41.5041 40.1924 41.5016C40.1949 41.5016 40.1974 41.5016 40.1991 41.5025ZM40.637 42.5025C40.637 42.5017 40.637 42.5017 40.637 42.5025C40.637 42.5017 40.637 42.5025 40.637 42.5025ZM38.177 37.1819C38.177 37.1785 38.1761 37.1744 38.1753 37.171C38.182 37.1719 38.1887 37.1735 38.1962 37.1727C38.1904 37.176 38.1837 37.1785 38.177 37.1819ZM37.8161 36.9859C37.8312 36.9767 37.8462 36.97 37.8596 36.965C37.8462 36.9709 37.832 36.9775 37.8161 36.9859ZM34.157 36.4387C34.1553 36.437 34.1553 36.4345 34.1536 36.4329C34.1553 36.4329 34.1561 36.4329 34.1578 36.432C34.1578 36.4345 34.1578 36.4362 34.157 36.4387ZM38.4575 38.2504C38.4575 38.2504 38.4575 38.2512 38.4575 38.2504C38.4566 38.2512 38.4566 38.2504 38.4566 38.2504H38.4575ZM38.6392 38.011C38.6392 38.0051 38.64 38.0001 38.64 37.9943C38.6425 37.9993 38.645 38.0035 38.6475 38.0085C38.645 38.0093 38.6425 38.0101 38.6392 38.011ZM37.6143 36.9133C37.6076 36.9175 37.5992 36.9158 37.5908 36.9158C37.5992 36.9116 37.6067 36.9016 37.6143 36.9133ZM39.5368 43.9138C39.5351 43.9188 39.5334 43.9238 39.5318 43.9288C39.52 43.9197 39.5075 43.9138 39.4932 43.9105C39.5083 43.9113 39.5225 43.913 39.5368 43.9138ZM38.707 36.7607C38.707 36.764 38.7062 36.7673 38.7062 36.7698C38.6919 36.7615 38.6819 36.7465 38.707 36.7607ZM31.0865 42.8387C31.0857 42.8378 31.0857 42.8378 31.0848 42.837C31.0857 42.837 31.0865 42.837 31.0873 42.837C31.0865 42.837 31.0865 42.8378 31.0865 42.8387ZM41.9148 44.1857C41.9131 44.1857 41.9114 44.1841 41.9106 44.1849C41.9123 44.1824 41.9139 44.1799 41.9156 44.1782C41.9156 44.1807 41.9148 44.1832 41.9148 44.1857ZM34.9307 31.7903C34.929 31.7912 34.9281 31.792 34.9265 31.7937C34.9248 31.7845 34.9231 31.7761 34.9198 31.7686C34.9307 31.7753 34.9432 31.7736 34.9307 31.7903ZM35.6014 31.9229C35.6014 31.9221 35.6014 31.9221 35.6014 31.9213C35.6039 31.9213 35.6039 31.9213 35.6014 31.9229ZM35.4356 47.1701C35.4331 47.1718 35.4305 47.1734 35.428 47.1751C35.4272 47.1734 35.4272 47.1718 35.4264 47.1701C35.4289 47.1701 35.4322 47.1701 35.4356 47.1701ZM41.3412 36.2143C41.337 36.2177 41.3312 36.216 41.327 36.2168C41.3303 36.2118 41.3362 36.2135 41.3412 36.2143ZM38.6886 32.4785C38.6877 32.4785 38.6877 32.4776 38.6869 32.4776L38.6877 32.4768C38.6886 32.4776 38.6886 32.4785 38.6886 32.4785ZM31.753 26.9943C31.7463 26.9926 31.7396 26.9901 31.7329 26.9876C31.7421 26.9801 31.7471 26.986 31.753 26.9943ZM33.0936 44.9197C33.0885 44.9189 33.0768 44.9197 33.0777 44.9147C33.0827 44.9164 33.0877 44.9181 33.0936 44.9197ZM27.3864 19.1088C27.3922 19.1022 27.3972 19.0955 27.4039 19.088C27.4006 19.1022 27.4048 19.1172 27.3864 19.1088ZM25.0435 26.1844C25.0393 26.1769 25.036 26.1702 25.0318 26.1627C25.0368 26.1611 25.0402 26.1586 25.0452 26.1569C25.0444 26.1661 25.0435 26.1744 25.0435 26.1844ZM36.9369 27.8334C36.9369 27.8384 36.9402 27.8459 36.9369 27.8493C36.9361 27.8434 36.9352 27.8384 36.9352 27.8326C36.9344 27.8326 36.9361 27.8334 36.9369 27.8334ZM36.8456 45.8372C36.8465 45.8406 36.8465 45.8439 36.8473 45.8472C36.8439 45.8464 36.8406 45.8456 36.8372 45.8447C36.8398 45.8422 36.8423 45.8397 36.8456 45.8372ZM37.1847 43.5743C37.1856 43.5835 37.1856 43.5919 37.1864 43.601C37.1831 43.6002 37.1789 43.5994 37.1755 43.5994C37.178 43.591 37.1814 43.5827 37.1847 43.5743ZM42.2171 45.5011C42.2162 45.5003 42.2154 45.4994 42.2146 45.4986C42.2154 45.4978 42.2162 45.4978 42.2179 45.4978C42.2179 45.4986 42.2171 45.5003 42.2171 45.5011ZM42.4498 20.0138C42.4515 20.0138 42.4524 20.0138 42.454 20.0138C42.454 20.0147 42.454 20.0147 42.454 20.0155C42.4532 20.0147 42.4515 20.0138 42.4498 20.0138ZM25.1448 40.4198C25.1432 40.419 25.1423 40.4173 25.1406 40.4165C25.1423 40.4148 25.1448 40.4131 25.1465 40.4106C25.1465 40.414 25.1457 40.4165 25.1448 40.4198ZM23.8897 42.0029C23.8914 42.0038 23.893 42.0054 23.8955 42.0063C23.8939 42.0063 23.8914 42.0071 23.8897 42.0079C23.8897 42.0063 23.8897 42.0046 23.8897 42.0029ZM43.89 37.5781C43.89 37.5772 43.89 37.5781 43.89 37.5781C43.89 37.5772 43.89 37.5772 43.89 37.5781ZM27.9892 15.1703C27.9876 15.1686 27.9867 15.1669 27.985 15.1653C27.9867 15.1644 27.9884 15.1636 27.9901 15.1628C27.9892 15.1653 27.9892 15.1678 27.9892 15.1703ZM24.727 39.5032C24.7228 39.5015 24.7253 39.4998 24.727 39.4973C24.727 39.4998 24.727 39.5015 24.727 39.5032ZM43.7142 34.7505C43.7142 34.7405 43.7142 34.7305 43.7142 34.7196C43.7201 34.7238 43.7251 34.728 43.7309 34.7322C43.7259 34.738 43.7209 34.7447 43.7142 34.7505ZM41.543 34.4202C41.5447 34.4169 41.5472 34.4144 41.5489 34.4119C41.5489 34.416 41.548 34.4202 41.543 34.4202ZM23.224 40.3431C23.2215 40.3414 23.2198 40.3397 23.2207 40.3372C23.2215 40.3389 23.2223 40.3406 23.224 40.3431ZM42.2891 45.813C42.2891 45.813 42.2899 45.8155 42.2907 45.818C42.2891 45.8172 42.2874 45.8172 42.2857 45.8164C42.2874 45.8155 42.2882 45.8139 42.2891 45.813ZM45.7732 23.8006C45.7623 23.8031 45.7523 23.8064 45.743 23.8106C45.7523 23.7872 45.764 23.7639 45.7782 23.7414C45.7765 23.7605 45.7757 23.7806 45.7732 23.8006ZM42.964 18.6176C42.9564 18.6159 42.9489 18.6134 42.9405 18.6117C42.948 18.5967 42.9556 18.5817 42.964 18.5658C42.9631 18.5842 42.964 18.6009 42.964 18.6176ZM26.0659 17.6742C26.0659 17.6717 26.0659 17.6684 26.0659 17.6659C26.0684 17.6667 26.0701 17.6675 26.0726 17.6684C26.0701 17.67 26.0684 17.6725 26.0659 17.6742ZM24.1426 39.358C24.13 39.353 24.1342 39.3463 24.14 39.3372C24.1417 39.3438 24.1417 39.3505 24.1426 39.358ZM41.1193 47.5121C41.1135 47.5079 41.1068 47.5037 41.1009 47.5004C41.1059 47.4979 41.1118 47.4946 41.1177 47.4929C41.1168 47.4929 41.1193 47.5121 41.1193 47.5121ZM42.9715 14.2603C42.9648 14.2628 42.9648 14.2586 42.9656 14.2536C42.9673 14.2561 42.969 14.2586 42.9715 14.2603ZM42.9648 14.5872C42.9665 14.5881 42.9681 14.5897 42.9698 14.5906C42.9681 14.5922 42.9665 14.5939 42.964 14.5956C42.9648 14.5931 42.9648 14.5897 42.9648 14.5872C42.9656 14.5872 42.9648 14.5872 42.9648 14.5872ZM42.4766 11.2767C42.4741 11.2667 42.4724 11.2559 42.4708 11.245C42.4909 11.2492 42.4817 11.2617 42.4766 11.2767ZM42.3628 11.6454C42.3644 11.6504 42.3653 11.6554 42.3661 11.6596C42.3619 11.6596 42.3577 11.6596 42.3544 11.6587C42.3569 11.6546 42.3602 11.6496 42.3628 11.6454ZM37.0667 49.1227C37.0583 49.1536 37.0633 49.1803 37.0248 49.1694C37.0399 49.1527 37.0524 49.1386 37.0667 49.1227ZM44.6277 33.8305C44.6344 33.8305 44.6394 33.8313 44.6369 33.8397C44.6336 33.8372 44.6311 33.833 44.6277 33.8305ZM42.2874 11.8372C42.2882 11.8497 42.2882 11.8631 42.2891 11.8756C42.2832 11.8739 42.2765 11.8731 42.2715 11.8706C42.2773 11.8598 42.2824 11.8481 42.2874 11.8372ZM36.5006 18.1738C36.5048 18.168 36.5073 18.163 36.5115 18.1571C36.5132 18.1605 36.5157 18.163 36.5182 18.1663C36.5124 18.1688 36.5065 18.1705 36.5006 18.1738ZM34.5966 14.3303C34.5949 14.3287 34.5924 14.327 34.5907 14.3253C34.5941 14.3245 34.5974 14.3237 34.6007 14.3228C34.5991 14.3253 34.5974 14.3278 34.5966 14.3303ZM23.1369 27.4205C23.1369 27.4172 23.1378 27.4139 23.1378 27.4105C23.1428 27.4139 23.1394 27.4172 23.1369 27.4205ZM23.1369 27.4205L23.1386 27.4214C23.1378 27.4222 23.1378 27.4222 23.1369 27.423C23.1369 27.4222 23.1369 27.4214 23.1369 27.4205ZM44.3037 47.2535C44.3037 47.2552 44.3037 47.256 44.3037 47.2577C44.3003 47.2568 44.3028 47.2552 44.3037 47.2535ZM46.2237 45.1608C46.2245 45.1666 46.2253 45.1733 46.2253 45.18C46.2212 45.1775 46.217 45.175 46.2128 45.1725C46.2161 45.1691 46.2195 45.165 46.2237 45.1608ZM46.3953 45.3368C46.3953 45.3384 46.3945 45.3393 46.3945 45.3409C46.3936 45.3401 46.3928 45.3393 46.392 45.3384C46.3928 45.3376 46.3936 45.3368 46.3953 45.3368ZM28.2388 12.0699C28.2396 12.0758 28.2404 12.0816 28.2404 12.0875C28.2354 12.0808 28.2304 12.075 28.2388 12.0699ZM23.6402 17.5708C23.6402 17.5766 23.6402 17.5816 23.6393 17.5875C23.6318 17.5783 23.6259 17.5674 23.6192 17.5574C23.6259 17.5616 23.6326 17.5666 23.6402 17.5708ZM25.2713 32.4976C25.2696 32.4985 25.2679 32.4993 25.2662 32.5001C25.2671 32.4951 25.2688 32.4893 25.2696 32.4843C25.2704 32.4893 25.2713 32.4926 25.2713 32.4976ZM20.0413 32.8371C20.0413 32.8346 20.0413 32.8329 20.0413 32.8304C20.0438 32.8313 20.0455 32.8321 20.048 32.8329C20.0455 32.8338 20.0438 32.8354 20.0413 32.8371ZM11.0878 28.4873C11.0887 28.4932 11.0887 28.4982 11.0895 28.504C11.0861 28.4998 11.0845 28.4948 11.0811 28.4907C11.0836 28.489 11.0853 28.489 11.0878 28.4873ZM27.8611 48.9125C27.862 48.9125 27.862 48.9125 27.8628 48.9125L27.862 48.9133C27.862 48.9133 27.8611 48.9133 27.8611 48.9125ZM46.0612 47.6697C46.0637 47.6614 46.0579 47.6447 46.0704 47.6472C46.0671 47.6547 46.0637 47.6622 46.0612 47.6697ZM42.8082 8.45667C42.8082 8.45083 42.8074 8.44499 42.8065 8.43999C42.8107 8.44249 42.8158 8.44333 42.8208 8.44499C42.8166 8.44916 42.8132 8.4525 42.8082 8.45667ZM23.466 17.0628C23.4434 17.0161 23.4518 16.9802 23.4936 16.9435C23.4827 16.9861 23.4735 17.0253 23.466 17.0628ZM23.3747 17.4373C23.3747 17.4398 23.3747 17.4423 23.3747 17.4448C23.3722 17.4432 23.3697 17.4406 23.3672 17.4381C23.3697 17.4381 23.3722 17.4381 23.3747 17.4373ZM17.7186 49.0068C17.7069 49.0051 17.6952 49.0051 17.7018 48.9901C17.7069 48.9951 17.7127 49.0009 17.7186 49.0068ZM45.7883 45.6362C45.7958 45.6204 45.8033 45.6045 45.8109 45.5895C45.8251 45.5995 45.8343 45.6112 45.8418 45.6237C45.8226 45.627 45.805 45.6312 45.7883 45.6362ZM32.9738 13.4562C32.9588 13.4529 32.9437 13.4479 32.9311 13.4379C32.9454 13.4437 32.9596 13.4504 32.9738 13.4562ZM25.5886 9.66777C25.5836 9.67361 25.5794 9.67861 25.5744 9.68445C25.571 9.67111 25.5744 9.66527 25.5886 9.66777ZM10.9379 17.4715C10.9404 17.4774 10.943 17.4832 10.9455 17.489C10.9388 17.4899 10.9329 17.4915 10.9279 17.494C10.9312 17.4865 10.9346 17.479 10.9379 17.4715ZM10.9028 24.658C10.8559 24.6297 10.855 24.613 10.8718 24.5663C10.8776 24.5971 10.8877 24.628 10.9028 24.658ZM10.7604 31.7394C10.7621 31.7378 10.7629 31.7361 10.7646 31.7344C10.7654 31.7353 10.7654 31.7361 10.7663 31.7369C10.7646 31.7378 10.7629 31.7386 10.7604 31.7394ZM10.8751 34.0065C10.8751 34.0082 10.876 34.009 10.876 34.0107C10.8676 34.009 10.8601 34.0073 10.8517 34.0032C10.8601 34.0048 10.8676 34.0057 10.8751 34.0065Z" fill="#20213E"/>
<defs>
<filter id="filter0_b_392_5650" x="-52" y="-52" width="164" height="164" filterUnits="userSpaceOnUse" color-interpolation-filters="sRGB">
<feFlood flood-opacity="0" result="BackgroundImageFix"/>
<feGaussianBlur in="BackgroundImageFix" stdDeviation="26"/>
<feComposite in2="SourceAlpha" operator="in" result="effect1_backgroundBlur_392_5650"/>
<feBlend mode="normal" in="SourceGraphic" in2="effect1_backgroundBlur_392_5650" result="shape"/>
</filter>
</defs>
</svg>
