<svg width="16" height="16" viewBox="0 0 16 16" fill="none" xmlns="http://www.w3.org/2000/svg">
<g id="base-logo-in-blue 1" clip-path="url(#clip0_1186_10378)">
<g id="Layer_x0020_1">
<g id="Group">
<g id="Group_2">
<g id="Clip path group">
<mask id="mask0_1186_10378" style="mask-type:luminance" maskUnits="userSpaceOnUse" x="0" y="0" width="16" height="16">
<g id="SVGID_00000137130877621503601290000017679510272143242652_">
<path id="Vector" d="M8 16C3.58144 16 0 12.4186 0 8C0 3.58144 3.58144 0 8 0C12.4186 0 16 3.58144 16 8C16 12.4186 12.4186 16 8 16Z" fill="white"/>
</g>
</mask>
<g mask="url(#mask0_1186_10378)">
<g id="Group_3">
<path id="Vector_2" fill-rule="evenodd" clip-rule="evenodd" d="M8.0027 7.99992L-3.3125 7.93016L-3.30226 7.51416L8.0027 7.99992Z" fill="#FEFEFF"/>
<path id="_1" fill-rule="evenodd" clip-rule="evenodd" d="M8.00219 7.99985L-3.30469 7.58321L-3.28741 7.23633L8.00219 7.99985Z" fill="#FDFEFF"/>
<path id="_2" fill-rule="evenodd" clip-rule="evenodd" d="M8.00438 7.99996L-3.28906 7.3062L-3.26346 6.95996L8.00438 7.99996Z" fill="#FCFDFF"/>
<path id="_3" fill-rule="evenodd" clip-rule="evenodd" d="M7.99952 7.99959L-3.27344 7.02871L-3.23952 6.68311L7.99952 7.99959Z" fill="#FBFCFF"/>
<path id="_4" fill-rule="evenodd" clip-rule="evenodd" d="M8.00325 7.99988L-3.24219 6.75252L-3.19995 6.4082L8.00325 7.99988Z" fill="#FAFCFF"/>
<path id="_5" fill-rule="evenodd" clip-rule="evenodd" d="M8.00058 7.99954L-3.21094 6.47698L-3.16038 6.1333L8.00058 7.99954Z" fill="#F9FBFF"/>
<path id="_6" fill-rule="evenodd" clip-rule="evenodd" d="M8.0065 7.99987L-3.16406 6.20211L-3.10518 5.86035L8.0065 7.99987Z" fill="#F8FAFF"/>
<path id="_7" fill-rule="evenodd" clip-rule="evenodd" d="M8.00601 7.9999L-3.11719 5.92886L-3.04999 5.58838L8.00601 7.9999Z" fill="#F7FAFF"/>
<path id="_8" fill-rule="evenodd" clip-rule="evenodd" d="M7.99913 7.99962L-3.07031 5.65658L-2.99415 5.31738L7.99913 7.99962Z" fill="#F6F9FF"/>
<path id="_9" fill-rule="evenodd" clip-rule="evenodd" d="M8.00083 7.99987L-3.00781 5.38547L-2.92333 5.04883L8.00083 7.99987Z" fill="#F5F8FF"/>
<path id="_10" fill-rule="evenodd" clip-rule="evenodd" d="M8.0033 7.99981L-2.9375 5.11597L-2.84534 4.78125L8.0033 7.99981Z" fill="#F4F8FF"/>
<path id="_11" fill-rule="evenodd" clip-rule="evenodd" d="M8.00001 7.99963L-2.86719 4.84827L-2.76607 4.51611L8.00001 7.99963Z" fill="#F3F7FF"/>
<path id="_12" fill-rule="evenodd" clip-rule="evenodd" d="M8.00531 7.99998L-2.78125 4.58302L-2.67181 4.25342L8.00531 7.99998Z" fill="#F2F6FF"/>
<path id="_13" fill-rule="evenodd" clip-rule="evenodd" d="M8.00421 7.99987L-2.69531 4.31923L-2.57819 3.99219L8.00421 7.99987Z" fill="#F1F6FF"/>
<path id="_14" fill-rule="evenodd" clip-rule="evenodd" d="M8.00388 7.99964L-2.60156 4.05724L-2.47676 3.7334L8.00388 7.99964Z" fill="#F0F5FF"/>
<path id="_15" fill-rule="evenodd" clip-rule="evenodd" d="M8.0056 7.99978L-2.5 3.79818L-2.36752 3.47754L8.0056 7.99978Z" fill="#EFF4FF"/>
<path id="_16" fill-rule="evenodd" clip-rule="evenodd" d="M8.00092 7.99965L-2.39844 3.54141L-2.25764 3.22461L8.00092 7.99965Z" fill="#EEF3FF"/>
<path id="_17" fill-rule="evenodd" clip-rule="evenodd" d="M8.00547 7.99989L-2.28125 3.28821L-2.13277 2.97461L8.00547 7.99989Z" fill="#EDF3FF"/>
<path id="_18" fill-rule="evenodd" clip-rule="evenodd" d="M8.00426 8.00001L-2.16406 3.03745L-2.0079 2.72705L8.00426 8.00001Z" fill="#ECF2FF"/>
<path id="_19" fill-rule="evenodd" clip-rule="evenodd" d="M8.00446 7.99971L-2.03906 2.78883L-1.87522 2.48291L8.00446 7.99971Z" fill="#EBF1FF"/>
<path id="_20" fill-rule="evenodd" clip-rule="evenodd" d="M8.00607 7.99978L-1.90625 2.54442L-1.73537 2.2417L8.00607 7.99978Z" fill="#EAF1FF"/>
<path id="_21" fill-rule="evenodd" clip-rule="evenodd" d="M8.00192 7.99976L-1.77344 2.30248L-1.59488 2.00488L8.00192 7.99976Z" fill="#E9F0FF"/>
<path id="_22" fill-rule="evenodd" clip-rule="evenodd" d="M7.99983 7.99963L-1.63281 2.06427L-1.44721 1.77051L7.99983 7.99963Z" fill="#E8EFFF"/>
<path id="_23" fill-rule="evenodd" clip-rule="evenodd" d="M7.99979 7.9999L-1.48438 1.82966L-1.2911 1.54102L7.99979 7.9999Z" fill="#E7EFFF"/>
<path id="_24" fill-rule="evenodd" clip-rule="evenodd" d="M8.0018 7.99974L-1.32812 1.59846L-1.12845 1.31494L8.0018 7.99974Z" fill="#E6EEFF"/>
<path id="_25" fill-rule="evenodd" clip-rule="evenodd" d="M8.00586 7.99965L-1.16406 1.37181L-0.957342 1.09277L8.00586 7.99965Z" fill="#E5EDFF"/>
<path id="_26" fill-rule="evenodd" clip-rule="evenodd" d="M8.0048 7.99963L-1 1.14843L-0.78624 0.874512L8.0048 7.99963Z" fill="#E4EDFF"/>
<path id="_27" fill-rule="evenodd" clip-rule="evenodd" d="M8.0058 7.99986L-0.828125 0.929781L-0.607965 0.661621L8.0058 7.99986Z" fill="#E3ECFF"/>
<path id="_28" fill-rule="evenodd" clip-rule="evenodd" d="M8.00103 7.99967L-0.65625 0.715188L-0.42969 0.452148L8.00103 7.99967Z" fill="#E2EBFF"/>
<path id="_29" fill-rule="evenodd" clip-rule="evenodd" d="M7.9996 7.99988L-0.476562 0.504839L-0.243602 0.247559L7.9996 7.99988Z" fill="#E1EBFF"/>
<path id="_30" fill-rule="evenodd" clip-rule="evenodd" d="M8.00086 7.99985L-0.289062 0.299372L-0.0497025 0.0478516L8.00086 7.99985Z" fill="#E0EAFF"/>
<path id="_31" fill-rule="evenodd" clip-rule="evenodd" d="M8.00481 7.99974L-0.09375 0.0982991L0.15201 -0.147461L8.00481 7.99974Z" fill="#DFE9FF"/>
<path id="_32" fill-rule="evenodd" clip-rule="evenodd" d="M8.003 7.99988L0.101562 -0.0986823L0.352442 -0.337402L8.003 7.99988Z" fill="#DEE9FF"/>
<path id="_33" fill-rule="evenodd" clip-rule="evenodd" d="M8.00517 7.99993L0.304688 -0.289989L0.561967 -0.522949L8.00517 7.99993Z" fill="#DDE8FF"/>
<path id="_34" fill-rule="evenodd" clip-rule="evenodd" d="M8.00285 7.9996L0.507812 -0.476565L0.770853 -0.703125L8.00285 7.9996Z" fill="#DCE7FF"/>
<path id="_35" fill-rule="evenodd" clip-rule="evenodd" d="M8.00323 8L0.71875 -0.657281L0.98691 -0.877441L8.00323 8Z" fill="#DBE7FF"/>
<path id="_36" fill-rule="evenodd" clip-rule="evenodd" d="M7.99977 7.99968L0.929688 -0.834243L1.20361 -1.04736L7.99977 7.99968Z" fill="#DAE6FF"/>
<path id="_37" fill-rule="evenodd" clip-rule="evenodd" d="M7.99964 7.99961L1.14844 -1.00519L1.42748 -1.21191L7.99964 7.99961Z" fill="#D9E5FF"/>
<path id="_38" fill-rule="evenodd" clip-rule="evenodd" d="M8.00284 7.99997L1.375 -1.16995L1.65852 -1.36963L8.00284 7.99997Z" fill="#D8E5FF"/>
<path id="_39" fill-rule="evenodd" clip-rule="evenodd" d="M8.00284 7.99961L1.60156 -1.33031L1.8902 -1.52295L8.00284 7.99961Z" fill="#D7E4FF"/>
<path id="_40" fill-rule="evenodd" clip-rule="evenodd" d="M8.00618 7.99984L1.83594 -1.48432L2.1297 -1.66992L8.00618 7.99984Z" fill="#D6E3FF"/>
<path id="_41" fill-rule="evenodd" clip-rule="evenodd" d="M8.00567 7.99968L2.07031 -1.63296L2.36791 -1.81152L8.00567 7.99968Z" fill="#D5E3FF"/>
<path id="_42" fill-rule="evenodd" clip-rule="evenodd" d="M8.00197 7.99995L2.30469 -1.77541L2.60677 -1.94629L8.00197 7.99995Z" fill="#D4E2FF"/>
<path id="_43" fill-rule="evenodd" clip-rule="evenodd" d="M8.00223 7.99999L2.54688 -1.91233L2.85279 -2.07617L8.00223 7.99999Z" fill="#D3E1FF"/>
<path id="_44" fill-rule="evenodd" clip-rule="evenodd" d="M7.99994 7.99982L2.78906 -2.0437L3.09946 -2.19922L7.99994 7.99982Z" fill="#D2E0FF"/>
<path id="_45" fill-rule="evenodd" clip-rule="evenodd" d="M8.00162 7.99975L3.03906 -2.16857L3.35266 -2.31641L8.00162 7.99975Z" fill="#D1E0FF"/>
<path id="_46" fill-rule="evenodd" clip-rule="evenodd" d="M8.00074 7.99979L3.28906 -2.28693L3.6065 -2.42773L8.00074 7.99979Z" fill="#D0DFFF"/>
<path id="_47" fill-rule="evenodd" clip-rule="evenodd" d="M8.00512 7.99976L3.54688 -2.39959L3.86815 -2.53271L8.00512 7.99976Z" fill="#CFDEFF"/>
<path id="_48" fill-rule="evenodd" clip-rule="evenodd" d="M8.00629 7.99954L3.80469 -2.50606L4.12917 -2.63086L8.00629 7.99954Z" fill="#CEDEFF"/>
<path id="_49" fill-rule="evenodd" clip-rule="evenodd" d="M8.0049 7.9999L4.0625 -2.60554L4.38954 -2.72266L8.0049 7.9999Z" fill="#CDDDFF"/>
<path id="_50" fill-rule="evenodd" clip-rule="evenodd" d="M8.00095 7.99957L4.32031 -2.69995L4.64991 -2.80811L8.00095 7.99957Z" fill="#CCDCFF"/>
<path id="_51" fill-rule="evenodd" clip-rule="evenodd" d="M8.0029 7.99983L4.58594 -2.78673L4.9181 -2.88721L8.0029 7.99983Z" fill="#CBDCFF"/>
<path id="_52" fill-rule="evenodd" clip-rule="evenodd" d="M8.00292 7.99989L4.85156 -2.86731L5.18628 -2.95947L8.00292 7.99989Z" fill="#CADBFF"/>
<path id="_53" fill-rule="evenodd" clip-rule="evenodd" d="M8.00103 7.99989L5.11719 -2.94091L5.45383 -3.02539L8.00103 7.99989Z" fill="#C9DAFF"/>
<path id="_54" fill-rule="evenodd" clip-rule="evenodd" d="M8.00502 7.99969L5.39062 -3.00895L5.72919 -3.08447L8.00502 7.99969Z" fill="#C8DAFF"/>
<path id="_55" fill-rule="evenodd" clip-rule="evenodd" d="M7.99929 7.99992L5.65625 -3.06952L5.99609 -3.13672L7.99929 7.99992Z" fill="#C7D9FF"/>
<path id="_56" fill-rule="evenodd" clip-rule="evenodd" d="M8.00073 7.99961L5.92969 -3.12359L6.27145 -3.18311L8.00073 7.99961Z" fill="#C6D8FF"/>
<path id="_57" fill-rule="evenodd" clip-rule="evenodd" d="M8.00089 7.99959L6.20312 -3.17097L6.54681 -3.22217L8.00089 7.99959Z" fill="#C5D8FF"/>
<path id="_58" fill-rule="evenodd" clip-rule="evenodd" d="M7.99912 7.99985L6.47656 -3.21167L6.82088 -3.25391L7.99912 7.99985Z" fill="#C4D7FF"/>
<path id="_59" fill-rule="evenodd" clip-rule="evenodd" d="M8.00517 7.99957L6.75781 -3.24587L7.10341 -3.27979L8.00517 7.99957Z" fill="#C3D6FF"/>
<path id="_60" fill-rule="evenodd" clip-rule="evenodd" d="M8.00213 7.99973L7.03125 -3.27323L7.37749 -3.29883L8.00213 7.99973Z" fill="#C2D6FF"/>
<path id="_61" fill-rule="evenodd" clip-rule="evenodd" d="M8.00626 7.99953L7.3125 -3.29391L7.65938 -3.31055L8.00626 7.99953Z" fill="#C1D5FF"/>
<path id="_62" fill-rule="evenodd" clip-rule="evenodd" d="M8.00258 7.99977L7.58594 -3.30711L7.93282 -3.31543L8.00258 7.99977Z" fill="#C0D4FF"/>
<path id="_63" fill-rule="evenodd" clip-rule="evenodd" d="M8.00607 7.99996L7.86719 -3.31396H8.21407L8.00607 7.99996Z" fill="#BFD4FF"/>
<path id="_64" fill-rule="evenodd" clip-rule="evenodd" d="M8 7.99996L8.13888 -3.31396L8.48576 -3.30501L8 7.99996Z" fill="#BED3FF"/>
<path id="_65" fill-rule="evenodd" clip-rule="evenodd" d="M8 7.99975L8.41664 -3.30713L8.76288 -3.28985L8 7.99975Z" fill="#BDD2FF"/>
<path id="_66" fill-rule="evenodd" clip-rule="evenodd" d="M8 7.99998L8.69376 -3.29346L9.04 -3.26786L8 7.99998Z" fill="#BCD2FF"/>
<path id="_67" fill-rule="evenodd" clip-rule="evenodd" d="M8 8.00001L8.97088 -3.27295L9.31648 -3.23903L8 8.00001Z" fill="#BBD1FF"/>
<path id="_68" fill-rule="evenodd" clip-rule="evenodd" d="M8 7.99983L9.24672 -3.24561L9.59168 -3.20337L8 7.99983Z" fill="#BAD0FF"/>
<path id="_69" fill-rule="evenodd" clip-rule="evenodd" d="M8 7.99961L9.52256 -3.21191L9.86624 -3.16135L8 7.99961Z" fill="#B9D0FF"/>
<path id="_70" fill-rule="evenodd" clip-rule="evenodd" d="M8 7.99966L9.79712 -3.1709L10.1395 -3.11202L8 7.99966Z" fill="#B8CFFF"/>
<path id="_71" fill-rule="evenodd" clip-rule="evenodd" d="M8 7.99967L10.071 -3.12354L10.4115 -3.05634L8 7.99967Z" fill="#B7CEFF"/>
<path id="_72" fill-rule="evenodd" clip-rule="evenodd" d="M8 7.99962L10.343 -3.06982L10.6822 -2.99366L8 7.99962Z" fill="#B6CDFF"/>
<path id="_73" fill-rule="evenodd" clip-rule="evenodd" d="M8 7.99985L10.6144 -3.00879L10.951 -2.92431L8 7.99985Z" fill="#B5CDFF"/>
<path id="_74" fill-rule="evenodd" clip-rule="evenodd" d="M8 7.99988L10.8838 -2.94092L11.2179 -2.84876L8 7.99988Z" fill="#B4CCFF"/>
<path id="_75" fill-rule="evenodd" clip-rule="evenodd" d="M8 8.00001L11.1514 -2.86719L11.4835 -2.76607L8 8.00001Z" fill="#B3CBFF"/>
<path id="_76" fill-rule="evenodd" clip-rule="evenodd" d="M8 7.99994L11.417 -2.78662L11.7466 -2.67718L8 7.99994Z" fill="#B2CBFF"/>
<path id="_77" fill-rule="evenodd" clip-rule="evenodd" d="M8 7.99981L11.6806 -2.69971L12.0077 -2.58259L8 7.99981Z" fill="#B1CAFF"/>
<path id="_78" fill-rule="evenodd" clip-rule="evenodd" d="M8 7.99997L11.9424 -2.60547L12.2662 -2.48067L8 7.99997Z" fill="#B0C9FF"/>
<path id="_79" fill-rule="evenodd" clip-rule="evenodd" d="M8 7.99974L12.201 -2.50586L12.5222 -2.37338L8 7.99974Z" fill="#AFC9FF"/>
<path id="_80" fill-rule="evenodd" clip-rule="evenodd" d="M8 7.99995L12.4576 -2.39941L12.775 -2.25861L8 7.99995Z" fill="#AEC8FF"/>
<path id="_81" fill-rule="evenodd" clip-rule="evenodd" d="M8 7.99961L12.7117 -2.28711L13.0253 -2.13863L8 7.99961Z" fill="#ADC7FF"/>
<path id="_82" fill-rule="evenodd" clip-rule="evenodd" d="M8 7.99986L12.9626 -2.16846L13.273 -2.0123L8 7.99986Z" fill="#ACC7FF"/>
<path id="_83" fill-rule="evenodd" clip-rule="evenodd" d="M8 7.99957L13.2109 -2.04395L13.5168 -1.88011L8 7.99957Z" fill="#ABC6FF"/>
<path id="_84" fill-rule="evenodd" clip-rule="evenodd" d="M8 7.99972L13.4554 -1.9126L13.7581 -1.74172L8 7.99972Z" fill="#AAC5FF"/>
<path id="_85" fill-rule="evenodd" clip-rule="evenodd" d="M8 7.99997L13.6973 -1.77539L13.9949 -1.59683L8 7.99997Z" fill="#A9C5FF"/>
<path id="_86" fill-rule="evenodd" clip-rule="evenodd" d="M8 7.99983L13.9354 -1.63281L14.2285 -1.44721L8 7.99983Z" fill="#A8C4FF"/>
<path id="_87" fill-rule="evenodd" clip-rule="evenodd" d="M8 7.99979L14.1702 -1.48438L14.4589 -1.2911L8 7.99979Z" fill="#A7C3FF"/>
<path id="_88" fill-rule="evenodd" clip-rule="evenodd" d="M8 7.99984L14.4013 -1.33008L14.6848 -1.1304L8 7.99984Z" fill="#A6C3FF"/>
<path id="_89" fill-rule="evenodd" clip-rule="evenodd" d="M8 8L14.6278 -1.16992L14.9069 -0.963202L8 8Z" fill="#A5C2FF"/>
<path id="_90" fill-rule="evenodd" clip-rule="evenodd" d="M8 7.99992L14.8512 -1.00488L15.1245 -0.791123L8 7.99992Z" fill="#A4C1FF"/>
<path id="_91" fill-rule="evenodd" clip-rule="evenodd" d="M8 7.99994L15.0701 -0.833984L15.3382 -0.613824L8 7.99994Z" fill="#A3C1FF"/>
<path id="_92" fill-rule="evenodd" clip-rule="evenodd" d="M8 7.99957L15.2845 -0.657715L15.5475 -0.431155L8 7.99957Z" fill="#A2C0FF"/>
<path id="_93" fill-rule="evenodd" clip-rule="evenodd" d="M8 7.9996L15.495 -0.476562L15.7523 -0.243602L8 7.9996Z" fill="#A1BFFF"/>
<path id="_94" fill-rule="evenodd" clip-rule="evenodd" d="M8 7.99988L15.7005 -0.290039L15.952 -0.0506791L8 7.99988Z" fill="#A0BFFF"/>
<path id="_95" fill-rule="evenodd" clip-rule="evenodd" d="M8 7.99993L15.9014 -0.0986328L16.1472 0.147127L8 7.99993Z" fill="#9FBEFF"/>
<path id="_96" fill-rule="evenodd" clip-rule="evenodd" d="M8 7.99958L16.0979 0.0981445L16.3373 0.349025L8 7.99958Z" fill="#9EBDFF"/>
<path id="_97" fill-rule="evenodd" clip-rule="evenodd" d="M8 7.9998L16.2899 0.299316L16.5229 0.556596L8 7.9998Z" fill="#9DBDFF"/>
<path id="_98" fill-rule="evenodd" clip-rule="evenodd" d="M8 7.99992L16.4762 0.504883L16.7027 0.767923L8 7.99992Z" fill="#9CBCFF"/>
<path id="_99" fill-rule="evenodd" clip-rule="evenodd" d="M8 7.99981L16.6573 0.715332L16.8774 0.983492L8 7.99981Z" fill="#9BBBFF"/>
<path id="_100" fill-rule="evenodd" clip-rule="evenodd" d="M8 7.99977L16.8339 0.929688L17.047 1.20361L8 7.99977Z" fill="#9ABAFF"/>
<path id="_101" fill-rule="evenodd" clip-rule="evenodd" d="M8 7.99964L17.0048 1.14844L17.2115 1.42748L8 7.99964Z" fill="#99BAFF"/>
<path id="_102" fill-rule="evenodd" clip-rule="evenodd" d="M8 7.99991L17.1699 1.37207L17.3696 1.65559L8 7.99991Z" fill="#98B9FF"/>
<path id="_103" fill-rule="evenodd" clip-rule="evenodd" d="M8 7.99991L17.3299 1.59863L17.5226 1.88727L8 7.99991Z" fill="#97B8FF"/>
<path id="_104" fill-rule="evenodd" clip-rule="evenodd" d="M8 7.99983L17.4842 1.82959L17.6698 2.12335L8 7.99983Z" fill="#96B8FF"/>
<path id="_105" fill-rule="evenodd" clip-rule="evenodd" d="M8 7.99981L17.6326 2.06445L17.8112 2.36205L8 7.99981Z" fill="#95B7FF"/>
<path id="_106" fill-rule="evenodd" clip-rule="evenodd" d="M8 8.00001L17.7754 2.30273L17.9462 2.60481L8 8.00001Z" fill="#94B6FF"/>
<path id="_107" fill-rule="evenodd" clip-rule="evenodd" d="M8 7.99979L17.9123 2.54443L18.0755 2.85035L8 7.99979Z" fill="#93B6FF"/>
<path id="_108" fill-rule="evenodd" clip-rule="evenodd" d="M8 7.99994L18.0429 2.78906L18.199 3.09946L8 7.99994Z" fill="#92B5FF"/>
<path id="_109" fill-rule="evenodd" clip-rule="evenodd" d="M8 7.99967L18.1683 3.03711L18.3162 3.35071L8 7.99967Z" fill="#91B4FF"/>
<path id="_110" fill-rule="evenodd" clip-rule="evenodd" d="M8 7.99977L18.2867 3.28809L18.4275 3.60553L8 7.99977Z" fill="#90B4FF"/>
<path id="_111" fill-rule="evenodd" clip-rule="evenodd" d="M8 7.99974L18.3994 3.5415L18.5318 3.86278L8 7.99974Z" fill="#8FB3FF"/>
<path id="_112" fill-rule="evenodd" clip-rule="evenodd" d="M8 7.99994L18.5056 3.79834L18.6304 4.12282L8 7.99994Z" fill="#8EB2FF"/>
<path id="_113" fill-rule="evenodd" clip-rule="evenodd" d="M8 7.99953L18.6054 4.05713L18.7226 4.38417L8 7.99953Z" fill="#8DB2FF"/>
<path id="_114" fill-rule="evenodd" clip-rule="evenodd" d="M8 7.99998L18.6989 4.31934L18.8077 4.64894L8 7.99998Z" fill="#8CB1FF"/>
<path id="_115" fill-rule="evenodd" clip-rule="evenodd" d="M8 7.99997L18.7859 4.58301L18.887 4.91517L8 7.99997Z" fill="#8BB0FF"/>
<path id="_116" fill-rule="evenodd" clip-rule="evenodd" d="M8 7.99999L18.8666 4.84863L18.9594 5.18335L8 7.99999Z" fill="#8AB0FF"/>
<path id="_117" fill-rule="evenodd" clip-rule="evenodd" d="M8 7.99956L18.9408 5.11572L19.0253 5.45236L8 7.99956Z" fill="#89AFFF"/>
<path id="_118" fill-rule="evenodd" clip-rule="evenodd" d="M8 7.99965L19.0086 5.38525L19.0842 5.72381L8 7.99965Z" fill="#88AEFF"/>
<path id="_119" fill-rule="evenodd" clip-rule="evenodd" d="M8 7.99978L19.0688 5.65674L19.1366 5.99658L8 7.99978Z" fill="#87AEFF"/>
<path id="_120" fill-rule="evenodd" clip-rule="evenodd" d="M8 7.99975L19.1232 5.92871L19.1827 6.27047L8 7.99975Z" fill="#86ADFF"/>
<path id="_121" fill-rule="evenodd" clip-rule="evenodd" d="M8 7.99991L19.1706 6.20215L19.2218 6.54583L8 7.99991Z" fill="#85ACFF"/>
<path id="_122" fill-rule="evenodd" clip-rule="evenodd" d="M8 7.99961L19.2115 6.47705L19.2538 6.82137L8 7.99961Z" fill="#84ACFF"/>
<path id="_123" fill-rule="evenodd" clip-rule="evenodd" d="M8 7.9998L19.2454 6.75244L19.2794 7.09804L8 7.9998Z" fill="#83ABFF"/>
<path id="_124" fill-rule="evenodd" clip-rule="evenodd" d="M8 7.99969L19.273 7.02881L19.2986 7.37505L8 7.99969Z" fill="#82AAFF"/>
<path id="_125" fill-rule="evenodd" clip-rule="evenodd" d="M8 7.99991L19.2934 7.30615L19.3101 7.65303L8 7.99991Z" fill="#81AAFF"/>
<path id="_126" fill-rule="evenodd" clip-rule="evenodd" d="M8 7.99965L19.3069 7.58301L19.3152 7.92989L8 7.99965Z" fill="#80A9FF"/>
<path id="_127" fill-rule="evenodd" clip-rule="evenodd" d="M8 7.99972L19.3133 7.86084V8.20772L8 7.99972Z" fill="#7FA8FF"/>
<path id="_128" fill-rule="evenodd" clip-rule="evenodd" d="M8 8L19.3133 8.13888L19.305 8.48576L8 8Z" fill="#7EA7FF"/>
<path id="_129" fill-rule="evenodd" clip-rule="evenodd" d="M8 8L19.3069 8.41664L19.2896 8.76288L8 8Z" fill="#7DA7FF"/>
<path id="_130" fill-rule="evenodd" clip-rule="evenodd" d="M8 8L19.2934 8.69376L19.2678 9.04L8 8Z" fill="#7CA6FF"/>
<path id="_131" fill-rule="evenodd" clip-rule="evenodd" d="M8 8L19.273 8.97088L19.239 9.31648L8 8Z" fill="#7BA5FF"/>
<path id="_132" fill-rule="evenodd" clip-rule="evenodd" d="M8 8L19.2454 9.24672L19.2032 9.59168L8 8Z" fill="#7AA5FF"/>
<path id="_133" fill-rule="evenodd" clip-rule="evenodd" d="M8 8L19.2115 9.52256L19.1603 9.86624L8 8Z" fill="#79A4FF"/>
<path id="_134" fill-rule="evenodd" clip-rule="evenodd" d="M8 8L19.1706 9.79712L19.1117 10.1395L8 8Z" fill="#78A3FF"/>
<path id="_135" fill-rule="evenodd" clip-rule="evenodd" d="M8 8L19.1232 10.071L19.0554 10.4115L8 8Z" fill="#77A3FF"/>
<path id="_136" fill-rule="evenodd" clip-rule="evenodd" d="M8 8L19.0688 10.343L18.9933 10.6822L8 8Z" fill="#76A2FF"/>
<path id="_137" fill-rule="evenodd" clip-rule="evenodd" d="M8 8L19.0086 10.6144L18.9242 10.951L8 8Z" fill="#75A1FF"/>
<path id="_138" fill-rule="evenodd" clip-rule="evenodd" d="M8 8L18.9408 10.8838L18.8486 11.2179L8 8Z" fill="#74A1FF"/>
<path id="_139" fill-rule="evenodd" clip-rule="evenodd" d="M8 8L18.8666 11.1514L18.7661 11.4835L8 8Z" fill="#73A0FF"/>
<path id="_140" fill-rule="evenodd" clip-rule="evenodd" d="M8 8L18.7859 11.417L18.6771 11.7466L8 8Z" fill="#729FFF"/>
<path id="_141" fill-rule="evenodd" clip-rule="evenodd" d="M8 8L18.6989 11.6806L18.5824 12.0077L8 8Z" fill="#719FFF"/>
<path id="_142" fill-rule="evenodd" clip-rule="evenodd" d="M8 8L18.6054 11.9424L18.4806 12.2662L8 8Z" fill="#709EFF"/>
<path id="_143" fill-rule="evenodd" clip-rule="evenodd" d="M8 8L18.5056 12.201L18.3725 12.5222L8 8Z" fill="#6F9DFF"/>
<path id="_144" fill-rule="evenodd" clip-rule="evenodd" d="M8 8L18.3994 12.4576L18.2586 12.775L8 8Z" fill="#6E9DFF"/>
<path id="_145" fill-rule="evenodd" clip-rule="evenodd" d="M8 8L18.2867 12.7117L18.1382 13.0253L8 8Z" fill="#6D9CFF"/>
<path id="_146" fill-rule="evenodd" clip-rule="evenodd" d="M8 8L18.1683 12.9626L18.0122 13.273L8 8Z" fill="#6C9BFF"/>
<path id="_147" fill-rule="evenodd" clip-rule="evenodd" d="M8 8L18.0429 13.2109L17.8797 13.5168L8 8Z" fill="#6B9BFF"/>
<path id="_148" fill-rule="evenodd" clip-rule="evenodd" d="M8 8L17.9123 13.4554L17.7414 13.7581L8 8Z" fill="#6A9AFF"/>
<path id="_149" fill-rule="evenodd" clip-rule="evenodd" d="M8 8L17.7754 13.6973L17.5968 13.9949L8 8Z" fill="#6999FF"/>
<path id="_150" fill-rule="evenodd" clip-rule="evenodd" d="M8 8L17.6326 13.9354L17.447 14.2285L8 8Z" fill="#6899FF"/>
<path id="_151" fill-rule="evenodd" clip-rule="evenodd" d="M8 8L17.4842 14.1702L17.2909 14.4589L8 8Z" fill="#6798FF"/>
<path id="_152" fill-rule="evenodd" clip-rule="evenodd" d="M8 8L17.3299 14.4013L17.1302 14.6848L8 8Z" fill="#6697FF"/>
<path id="_153" fill-rule="evenodd" clip-rule="evenodd" d="M8 8L17.1699 14.6278L16.9632 14.9069L8 8Z" fill="#6597FF"/>
<path id="_154" fill-rule="evenodd" clip-rule="evenodd" d="M8 8L17.0048 14.8512L16.791 15.1245L8 8Z" fill="#6496FF"/>
<path id="_155" fill-rule="evenodd" clip-rule="evenodd" d="M8 8L16.8339 15.0701L16.6138 15.3382L8 8Z" fill="#6395FF"/>
<path id="_156" fill-rule="evenodd" clip-rule="evenodd" d="M8 8L16.6573 15.2845L16.4307 15.5475L8 8Z" fill="#6294FF"/>
<path id="_157" fill-rule="evenodd" clip-rule="evenodd" d="M8 8L16.4762 15.495L16.2432 15.7523L8 8Z" fill="#6194FF"/>
<path id="_158" fill-rule="evenodd" clip-rule="evenodd" d="M8 8L16.2899 15.7005L16.0506 15.952L8 8Z" fill="#6093FF"/>
<path id="_159" fill-rule="evenodd" clip-rule="evenodd" d="M8 8L16.0979 15.9014L15.8528 16.1472L8 8Z" fill="#5F92FF"/>
<path id="_160" fill-rule="evenodd" clip-rule="evenodd" d="M8 8L15.9014 16.0979L15.6506 16.3373L8 8Z" fill="#5E92FF"/>
<path id="_161" fill-rule="evenodd" clip-rule="evenodd" d="M8 8L15.7005 16.2899L15.4432 16.5229L8 8Z" fill="#5D91FF"/>
<path id="_162" fill-rule="evenodd" clip-rule="evenodd" d="M8 8L15.495 16.4762L15.232 16.7027L8 8Z" fill="#5C90FF"/>
<path id="_163" fill-rule="evenodd" clip-rule="evenodd" d="M8 8L15.2845 16.6573L15.0163 16.8774L8 8Z" fill="#5B90FF"/>
<path id="_164" fill-rule="evenodd" clip-rule="evenodd" d="M8 8L15.0701 16.8339L14.7962 17.047L8 8Z" fill="#5A8FFF"/>
<path id="_165" fill-rule="evenodd" clip-rule="evenodd" d="M8 8L14.8512 17.0048L14.5722 17.2115L8 8Z" fill="#598EFF"/>
<path id="_166" fill-rule="evenodd" clip-rule="evenodd" d="M8 8L14.6278 17.1699L14.3443 17.3696L8 8Z" fill="#588EFF"/>
<path id="_167" fill-rule="evenodd" clip-rule="evenodd" d="M8 8L14.4013 17.3299L14.112 17.5226L8 8Z" fill="#578DFF"/>
<path id="_168" fill-rule="evenodd" clip-rule="evenodd" d="M8 8L14.1702 17.4842L13.8765 17.6698L8 8Z" fill="#568CFF"/>
<path id="_169" fill-rule="evenodd" clip-rule="evenodd" d="M8 8L13.9354 17.6326L13.6378 17.8112L8 8Z" fill="#558CFF"/>
<path id="_170" fill-rule="evenodd" clip-rule="evenodd" d="M8 8L13.6973 17.7754L13.3952 17.9462L8 8Z" fill="#548BFF"/>
<path id="_171" fill-rule="evenodd" clip-rule="evenodd" d="M8 8L13.4554 17.9123L13.1494 18.0755L8 8Z" fill="#538AFF"/>
<path id="_172" fill-rule="evenodd" clip-rule="evenodd" d="M8 8L13.2109 18.0429L12.9005 18.199L8 8Z" fill="#528AFF"/>
<path id="_173" fill-rule="evenodd" clip-rule="evenodd" d="M8 8L12.9626 18.1683L12.649 18.3162L8 8Z" fill="#5189FF"/>
<path id="_174" fill-rule="evenodd" clip-rule="evenodd" d="M8 8L12.7117 18.2867L12.3942 18.4275L8 8Z" fill="#5088FF"/>
<path id="_175" fill-rule="evenodd" clip-rule="evenodd" d="M8 8L12.4576 18.3994L12.137 18.5318L8 8Z" fill="#4F88FF"/>
<path id="_176" fill-rule="evenodd" clip-rule="evenodd" d="M8 8L12.201 18.5056L11.8771 18.6304L8 8Z" fill="#4E87FF"/>
<path id="_177" fill-rule="evenodd" clip-rule="evenodd" d="M8 8L11.9424 18.6054L11.6154 18.7226L8 8Z" fill="#4D86FF"/>
<path id="_178" fill-rule="evenodd" clip-rule="evenodd" d="M8 8L11.6806 18.6989L11.351 18.8077L8 8Z" fill="#4C86FF"/>
<path id="_179" fill-rule="evenodd" clip-rule="evenodd" d="M8 8L11.417 18.7859L11.0848 18.887L8 8Z" fill="#4B85FF"/>
<path id="_180" fill-rule="evenodd" clip-rule="evenodd" d="M8 8L11.1514 18.8666L10.8166 18.9594L8 8Z" fill="#4A84FF"/>
<path id="_181" fill-rule="evenodd" clip-rule="evenodd" d="M8 8L10.8838 18.9408L10.5466 19.0253L8 8Z" fill="#4984FF"/>
<path id="_182" fill-rule="evenodd" clip-rule="evenodd" d="M8 8L10.6144 19.0086L10.2758 19.0842L8 8Z" fill="#4883FF"/>
<path id="_183" fill-rule="evenodd" clip-rule="evenodd" d="M8 8L10.343 19.0688L10.0026 19.1366L8 8Z" fill="#4782FF"/>
<path id="_184" fill-rule="evenodd" clip-rule="evenodd" d="M8 8L10.071 19.1232L9.72928 19.1827L8 8Z" fill="#4681FF"/>
<path id="_185" fill-rule="evenodd" clip-rule="evenodd" d="M8 8L9.79712 19.1706L9.45408 19.2218L8 8Z" fill="#4581FF"/>
<path id="_186" fill-rule="evenodd" clip-rule="evenodd" d="M8 8L9.52256 19.2115L9.17824 19.2538L8 8Z" fill="#4480FF"/>
<path id="_187" fill-rule="evenodd" clip-rule="evenodd" d="M8 8L9.24672 19.2454L8.90176 19.2794L8 8Z" fill="#437FFF"/>
<path id="_188" fill-rule="evenodd" clip-rule="evenodd" d="M8 8L8.97088 19.273L8.62464 19.2986L8 8Z" fill="#427FFF"/>
<path id="_189" fill-rule="evenodd" clip-rule="evenodd" d="M8 8L8.69376 19.2934L8.34688 19.3101L8 8Z" fill="#417EFF"/>
<path id="_190" fill-rule="evenodd" clip-rule="evenodd" d="M8 8L8.41664 19.3069L8.06912 19.3152L8 8Z" fill="#407DFF"/>
<path id="_191" fill-rule="evenodd" clip-rule="evenodd" d="M8.00551 8L8.14439 19.3133H7.79688L8.00551 8Z" fill="#3F7DFF"/>
<path id="_192" fill-rule="evenodd" clip-rule="evenodd" d="M8.00139 8L7.86251 19.3133L7.51562 19.305L8.00139 8Z" fill="#3E7CFF"/>
<path id="_193" fill-rule="evenodd" clip-rule="evenodd" d="M8.00571 8L7.58907 19.3069L7.24219 19.2896L8.00571 8Z" fill="#3D7BFF"/>
<path id="_194" fill-rule="evenodd" clip-rule="evenodd" d="M8.00094 8L7.30718 19.2934L6.96094 19.2678L8.00094 8Z" fill="#3C7BFF"/>
<path id="_195" fill-rule="evenodd" clip-rule="evenodd" d="M8.00398 8L7.0331 19.273L6.6875 19.239L8.00398 8Z" fill="#3B7AFF"/>
<path id="_196" fill-rule="evenodd" clip-rule="evenodd" d="M8.00574 8L6.75838 19.2454L6.41406 19.2032L8.00574 8Z" fill="#3A79FF"/>
<path id="_197" fill-rule="evenodd" clip-rule="evenodd" d="M7.99905 8L6.47649 19.2115L6.13281 19.1603L7.99905 8Z" fill="#3979FF"/>
<path id="_198" fill-rule="evenodd" clip-rule="evenodd" d="M7.99889 8L6.20113 19.1706L5.85938 19.1117L7.99889 8Z" fill="#3878FF"/>
<path id="_199" fill-rule="evenodd" clip-rule="evenodd" d="M8.00527 8L5.93423 19.1232L5.59375 19.0554L8.00527 8Z" fill="#3777FF"/>
<path id="_200" fill-rule="evenodd" clip-rule="evenodd" d="M8.00255 8L5.65951 19.0688L5.32031 18.9933L8.00255 8Z" fill="#3677FF"/>
<path id="_201" fill-rule="evenodd" clip-rule="evenodd" d="M8.00573 8L5.39133 19.0086L5.05469 18.9242L8.00573 8Z" fill="#3576FF"/>
<path id="_202" fill-rule="evenodd" clip-rule="evenodd" d="M7.99981 8L5.11597 18.9408L4.78125 18.8486L7.99981 8Z" fill="#3475FF"/>
<path id="_203" fill-rule="evenodd" clip-rule="evenodd" d="M7.99915 8L4.84778 18.8666L4.51562 18.7661L7.99915 8Z" fill="#3375FF"/>
<path id="_204" fill-rule="evenodd" clip-rule="evenodd" d="M8.00437 8L4.58741 18.7859L4.25781 18.6771L8.00437 8Z" fill="#3274FF"/>
<path id="_205" fill-rule="evenodd" clip-rule="evenodd" d="M7.99987 8L4.31923 18.6989L3.99219 18.5824L7.99987 8Z" fill="#3173FF"/>
<path id="_206" fill-rule="evenodd" clip-rule="evenodd" d="M8.00061 8L4.05821 18.6054L3.73438 18.4806L8.00061 8Z" fill="#3073FF"/>
<path id="_207" fill-rule="evenodd" clip-rule="evenodd" d="M7.9988 8L3.7972 18.5056L3.47656 18.3725L7.9988 8Z" fill="#2F72FF"/>
<path id="_208" fill-rule="evenodd" clip-rule="evenodd" d="M8.0016 8L3.54336 18.3994L3.22656 18.2586L8.0016 8Z" fill="#2E71FF"/>
<path id="_209" fill-rule="evenodd" clip-rule="evenodd" d="M8.00184 8L3.29016 18.2867L2.97656 18.1382L8.00184 8Z" fill="#2D71FF"/>
<path id="_210" fill-rule="evenodd" clip-rule="evenodd" d="M7.99952 8L3.03696 18.1683L2.72656 18.0122L7.99952 8Z" fill="#2C70FF"/>
<path id="_211" fill-rule="evenodd" clip-rule="evenodd" d="M8.00117 8L2.79029 18.0429L2.48438 17.8797L8.00117 8Z" fill="#2B6FFF"/>
<path id="_212" fill-rule="evenodd" clip-rule="evenodd" d="M8.00027 8L2.54491 17.9123L2.24219 17.7414L8.00027 8Z" fill="#2A6EFF"/>
<path id="_213" fill-rule="evenodd" clip-rule="evenodd" d="M8.00269 8L2.30541 17.7754L2.00781 17.5968L8.00269 8Z" fill="#296EFF"/>
<path id="_214" fill-rule="evenodd" clip-rule="evenodd" d="M8.00256 8L2.0672 17.6326L1.77344 17.447L8.00256 8Z" fill="#286DFF"/>
<path id="_215" fill-rule="evenodd" clip-rule="evenodd" d="M8.00575 8L1.83551 17.4842L1.54688 17.2909L8.00575 8Z" fill="#276CFF"/>
<path id="_216" fill-rule="evenodd" clip-rule="evenodd" d="M8.00511 8L1.60383 17.3299L1.32031 17.1302L8.00511 8Z" fill="#266CFF"/>
<path id="_217" fill-rule="evenodd" clip-rule="evenodd" d="M8.00063 8L1.37279 17.1699L1.09375 16.9632L8.00063 8Z" fill="#256BFF"/>
<path id="_218" fill-rule="evenodd" clip-rule="evenodd" d="M8.00012 8L1.14892 17.0048L0.875 16.791L8.00012 8Z" fill="#246AFF"/>
<path id="_219" fill-rule="evenodd" clip-rule="evenodd" d="M8.0023 8L0.932223 16.8339L0.664062 16.6138L8.0023 8Z" fill="#236AFF"/>
<path id="_220" fill-rule="evenodd" clip-rule="evenodd" d="M8.00065 8L0.716165 16.6573L0.453125 16.4307L8.00065 8Z" fill="#2269FF"/>
<path id="_221" fill-rule="evenodd" clip-rule="evenodd" d="M8.00232 8L0.50728 16.4762L0.25 16.2432L8.00232 8Z" fill="#2168FF"/>
<path id="_222" fill-rule="evenodd" clip-rule="evenodd" d="M7.99888 8L0.298395 16.2899L0.046875 16.0506L7.99888 8Z" fill="#2068FF"/>
<path id="_223" fill-rule="evenodd" clip-rule="evenodd" d="M8.00657 8L0.105135 16.0979L-0.140625 15.8528L8.00657 8Z" fill="#1F67FF"/>
<path id="_224" fill-rule="evenodd" clip-rule="evenodd" d="M8.00134 8L-0.0972175 15.9014L-0.335938 15.6506L8.00134 8Z" fill="#1E66FF"/>
<path id="_225" fill-rule="evenodd" clip-rule="evenodd" d="M7.99944 8L-0.290478 15.7005L-0.523438 15.4432L7.99944 8Z" fill="#1D66FF"/>
<path id="_226" fill-rule="evenodd" clip-rule="evenodd" d="M7.9996 8L-0.476565 15.495L-0.703125 15.232L7.9996 8Z" fill="#1C65FF"/>
<path id="_227" fill-rule="evenodd" clip-rule="evenodd" d="M8.00244 8L-0.65484 15.2845L-0.875 15.0163L8.00244 8Z" fill="#1B64FF"/>
<path id="_228" fill-rule="evenodd" clip-rule="evenodd" d="M8.00016 8L-0.833755 15.0701L-1.04688 14.7962L8.00016 8Z" fill="#1A64FF"/>
<path id="_229" fill-rule="evenodd" clip-rule="evenodd" d="M8.00058 8L-1.00422 14.8512L-1.21094 14.5722L8.00058 8Z" fill="#1963FF"/>
<path id="_230" fill-rule="evenodd" clip-rule="evenodd" d="M8.00241 8L-1.16751 14.6278L-1.36719 14.3443L8.00241 8Z" fill="#1862FF"/>
<path id="_231" fill-rule="evenodd" clip-rule="evenodd" d="M7.99912 8L-1.3308 14.4013L-1.52344 14.112L7.99912 8Z" fill="#1762FF"/>
<path id="_232" fill-rule="evenodd" clip-rule="evenodd" d="M8.0057 8L-1.47846 14.1702L-1.66406 13.8765L8.0057 8Z" fill="#1661FF"/>
<path id="_233" fill-rule="evenodd" clip-rule="evenodd" d="M8.00651 8L-1.62613 13.9354L-1.80469 13.6378L8.00651 8Z" fill="#1560FF"/>
<path id="_234" fill-rule="evenodd" clip-rule="evenodd" d="M8.00093 8L-1.77443 13.6973L-1.94531 13.3952L8.00093 8Z" fill="#1460FF"/>
<path id="_235" fill-rule="evenodd" clip-rule="evenodd" d="M8.00585 8L-1.90647 13.4554L-2.07031 13.1494L8.00585 8Z" fill="#135FFF"/>
<path id="_236" fill-rule="evenodd" clip-rule="evenodd" d="M8.00373 8L-2.03979 13.2109L-2.19531 12.9005L8.00373 8Z" fill="#125EFF"/>
<path id="_237" fill-rule="evenodd" clip-rule="evenodd" d="M8.00366 8L-2.16466 12.9626L-2.3125 12.649L8.00366 8Z" fill="#115EFF"/>
<path id="_238" fill-rule="evenodd" clip-rule="evenodd" d="M8.00565 8L-2.28108 12.7117L-2.42188 12.3942L8.00565 8Z" fill="#105DFF"/>
<path id="_239" fill-rule="evenodd" clip-rule="evenodd" d="M8.00123 8L-2.39813 12.4576L-2.53125 12.137L8.00123 8Z" fill="#0F5CFF"/>
<path id="_240" fill-rule="evenodd" clip-rule="evenodd" d="M8.0054 8L-2.5002 12.201L-2.625 11.8771L8.0054 8Z" fill="#0E5BFF"/>
<path id="_241" fill-rule="evenodd" clip-rule="evenodd" d="M8.00381 8L-2.60163 11.9424L-2.71875 11.6154L8.00381 8Z" fill="#0D5BFF"/>
<path id="_242" fill-rule="evenodd" clip-rule="evenodd" d="M8.00299 8L-2.69653 11.6806L-2.80469 11.351L8.00299 8Z" fill="#0C5AFF"/>
<path id="_243" fill-rule="evenodd" clip-rule="evenodd" d="M8.00423 8L-2.78233 11.417L-2.88281 11.0848L8.00423 8Z" fill="#0B59FF"/>
<path id="_244" fill-rule="evenodd" clip-rule="evenodd" d="M8.00624 8L-2.86097 11.1514L-2.95312 10.8166L8.00624 8Z" fill="#0A59FF"/>
<path id="_245" fill-rule="evenodd" clip-rule="evenodd" d="M8.00184 8L-2.93896 10.8838L-3.02344 10.5466L8.00184 8Z" fill="#0958FF"/>
<path id="_246" fill-rule="evenodd" clip-rule="evenodd" d="M8.00603 8L-3.00261 10.6144L-3.07812 10.2758L8.00603 8Z" fill="#0857FF"/>
<path id="_247" fill-rule="evenodd" clip-rule="evenodd" d="M8.00383 8L-3.06561 10.343L-3.13281 10.0026L8.00383 8Z" fill="#0757FF"/>
<path id="_248" fill-rule="evenodd" clip-rule="evenodd" d="M8.00303 8L-3.12017 10.071L-3.17969 9.72928L8.00303 8Z" fill="#0656FF"/>
<path id="_249" fill-rule="evenodd" clip-rule="evenodd" d="M8.00301 8L-3.16755 9.79712L-3.21875 9.45408L8.00301 8Z" fill="#0555FF"/>
<path id="_250" fill-rule="evenodd" clip-rule="evenodd" d="M8.00376 8L-3.20776 9.52256L-3.25 9.17824L8.00376 8Z" fill="#0455FF"/>
<path id="_251" fill-rule="evenodd" clip-rule="evenodd" d="M8.00592 8L-3.23952 9.24672L-3.27344 8.90176L8.00592 8Z" fill="#0354FF"/>
<path id="_252" fill-rule="evenodd" clip-rule="evenodd" d="M8.00169 8L-3.27127 8.97088L-3.29688 8.62464L8.00169 8Z" fill="#0253FF"/>
<path id="_253" fill-rule="evenodd" clip-rule="evenodd" d="M8.00539 8L-3.28805 8.69376L-3.30469 8.34688L8.00539 8Z" fill="#0153FF"/>
<path id="_254" fill-rule="evenodd" clip-rule="evenodd" d="M8.0027 8L-3.30418 8.41664L-3.3125 8.06912L8.0027 8Z" fill="#0052FF"/>
<path id="_255" fill-rule="evenodd" clip-rule="evenodd" d="M8.00142 7.99972L-3.3125 8.1386V7.86084L8.00142 7.99972Z" fill="white"/>
</g>
</g>
</g>
</g>
</g>
</g>
</g>
<defs>
<clipPath id="clip0_1186_10378">
<rect width="16" height="16" fill="white"/>
</clipPath>
</defs>
</svg>
