<svg width="20" height="20" viewBox="0 0 20 20" fill="none" xmlns="http://www.w3.org/2000/svg">
<rect width="20" height="20" rx="10" fill="url(#paint0_linear_630_764)"/>
<path d="M5.19668 10.1645L5.20453 13.0406L7.64836 14.4786V16.1625L3.77431 13.8903V9.32341L5.19668 10.1645ZM5.19668 7.28833V8.96433L3.77344 8.12241V6.44641L5.19668 5.60449L6.6269 6.44641L5.19668 7.28833ZM8.66895 6.44641L10.0922 5.60449L11.5224 6.44641L10.0922 7.28833L8.66895 6.44641Z" fill="white"/>
<path d="M6.22656 12.4444V10.7606L7.64981 11.6025V13.2785L6.22656 12.4444ZM8.6704 15.0818L10.0936 15.9237L11.5239 15.0818V16.7578L10.0936 17.5997L8.6704 16.7578V15.0818ZM13.565 6.44641L14.9883 5.60449L16.4185 6.44641V8.12241L14.9883 8.96433V7.28833L13.565 6.44641ZM14.9883 13.0406L14.9961 10.1645L16.4194 9.32254V13.8895L12.5453 16.1616V14.4778L14.9883 13.0406Z" fill="white"/>
<path d="M13.9662 12.4446L12.543 13.2787V11.6027L13.9662 10.7607V12.4446Z" fill="white"/>
<path d="M13.9677 7.88326L13.9755 9.5671L11.5247 11.0052V13.8883L10.1015 14.7223L8.67824 13.8883V11.0052L6.22743 9.5671V7.88326L7.65678 7.04134L10.0928 8.48638L12.5436 7.04134L13.9738 7.88326H13.9677ZM6.22656 5.00801L10.0936 2.72803L13.9677 5.00801L12.5444 5.84993L10.0936 4.4049L7.64981 5.84993L6.22656 5.00801Z" fill="white"/>
<defs>
<linearGradient id="paint0_linear_630_764" x1="20" y1="20" x2="0" y2="0" gradientUnits="userSpaceOnUse">
<stop stop-color="#D1A000"/>
<stop offset="1" stop-color="#FFD632"/>
</linearGradient>
</defs>
</svg>
