<svg width="16" height="16" viewBox="0 0 16 16" fill="none" xmlns="http://www.w3.org/2000/svg">
<g id="Group 1261153184">
<g id="Group 1000002295">
<rect id="Rectangle 1366" width="16" height="16" rx="8" fill="url(#paint0_linear_1186_9502)"/>
</g>
<g id="Group 1000002388">
<path id="Vector" d="M4.15422 8.13186L4.1605 10.4328L6.11556 11.5832V12.9303L3.01632 11.1126V7.45902L4.15422 8.13186ZM4.15422 5.83096V7.17176L3.01562 6.49822V5.15742L4.15422 4.48389L5.2984 5.15742L4.15422 5.83096ZM6.93204 5.15742L8.07063 4.48389L9.21481 5.15742L8.07063 5.83096L6.93204 5.15742Z" fill="white"/>
<path id="Vector_2" d="M4.97656 9.95584V8.60877L6.11516 9.28231V10.6231L4.97656 9.95584ZM6.93163 12.0657L8.07023 12.7392L9.2144 12.0657V13.4065L8.07023 14.08L6.93163 13.4065V12.0657ZM10.8473 5.15742L11.9859 4.48389L13.1301 5.15742V6.49822L11.9859 7.17176V5.83096L10.8473 5.15742ZM11.9859 10.4328L11.9922 8.13186L13.1308 7.45832V11.1119L10.0316 12.9296V11.5825L11.9859 10.4328Z" fill="white"/>
<path id="Vector_3" d="M11.1698 9.95596L10.0312 10.6232V9.28242L11.1698 8.60889V9.95596Z" fill="white"/>
<path id="Vector_4" d="M11.1695 6.30681L11.1757 7.65388L9.2151 8.80433V11.1108L8.0765 11.7781L6.9379 11.1108V8.80433L4.97726 7.65388V6.30681L6.12074 5.63327L8.06953 6.7893L10.0302 5.63327L11.1743 6.30681H11.1695ZM4.97656 4.0066L8.07023 2.18262L11.1695 4.0066L10.0309 4.68014L8.07023 3.52411L6.11516 4.68014L4.97656 4.0066Z" fill="white"/>
</g>
</g>
<defs>
<linearGradient id="paint0_linear_1186_9502" x1="16" y1="16" x2="0" y2="0" gradientUnits="userSpaceOnUse">
<stop stop-color="#D1A000"/>
<stop offset="1" stop-color="#FFD632"/>
</linearGradient>
</defs>
</svg>
