<svg width="148" height="222" viewBox="0 0 148 222" fill="none" xmlns="http://www.w3.org/2000/svg">
<g id="Group 1261156715">
<path id="Subtract" fill-rule="evenodd" clip-rule="evenodd" d="M0 200.999V21.0012V10.4999C9.581 7.02975 37.6609 0.118887 73.8298 0.00151437C110.163 0.0764221 138.389 7.01977 148 10.5008V21.0012V201V211.5C138.404 214.976 110.251 221.903 74 221.999C37.7491 221.903 9.59602 214.976 0 211.5V200.999ZM8 30.7304V191.27V200.635C16.5587 203.735 41.6681 209.913 74 209.999C106.332 209.913 131.441 203.735 140 200.635V191.27V30.7304V21.3648C131.441 18.265 106.332 12.087 74 12.0009C41.6681 12.087 16.5587 18.265 8 21.3648V30.7304Z" fill="url(#paint0_linear_2273_10632)"/>
<g id="Group 1261156624">
<path id="Vector" d="M8 191.27V30.7304V21.3648C16.5587 18.265 41.6681 12.087 74 12.0009C106.332 12.087 131.441 18.265 140 21.3648V30.7304V191.27V200.635C131.441 203.735 106.332 209.913 74 209.999C41.6681 209.913 16.5587 203.735 8 200.635V191.27Z" fill="url(#paint1_radial_2273_10632)"/>
</g>
</g>
<defs>
<linearGradient id="paint0_linear_2273_10632" x1="74" y1="0" x2="74" y2="222" gradientUnits="userSpaceOnUse">
<stop stop-color="#5B607E"/>
<stop offset="0.515625" stop-color="#95A7BD"/>
<stop offset="1" stop-color="#5B607E"/>
</linearGradient>
<radialGradient id="paint1_radial_2273_10632" cx="0" cy="0" r="1" gradientUnits="userSpaceOnUse" gradientTransform="translate(74 111) rotate(90) scale(99 66)">
<stop offset="0.197917" stop-color="#4E5871"/>
<stop offset="1" stop-color="#242F41"/>
</radialGradient>
</defs>
</svg>
