<svg width="52" height="52" viewBox="0 0 52 52" fill="none" xmlns="http://www.w3.org/2000/svg">
<circle cx="26" cy="26" r="24" fill="#0A0606" stroke="#00BBCB" stroke-width="4"/>
<path d="M16.1998 34.5979C17.3699 32.3525 19.2485 29.7954 21.5027 27.305C19.4122 25.3098 17.258 23.4584 15.2596 21.9134C14.9638 21.6854 14.9133 21.2647 15.1468 20.9759C15.2478 20.8504 15.392 20.7648 15.5526 20.735C17.1538 20.4259 18.4201 20.5728 19.55 21.0561C20.6526 21.5282 21.5867 22.3086 22.5651 23.294C22.9869 23.7192 23.4597 24.2153 23.9621 24.7608C24.3374 24.3969 24.718 24.0384 25.1038 23.6851C28.6327 20.4549 32.5821 17.6987 36.0737 16.418C36.4276 16.2881 36.8229 16.4623 36.956 16.8078C37.0574 17.0713 36.9776 17.3578 36.7776 17.537C35.3259 19.0494 33.6563 20.6419 31.914 22.3036C30.1146 24.02 28.2369 25.8115 26.4876 27.615C26.8987 28.0965 27.3057 28.5813 27.7086 29.0693C29.3197 31.0226 30.7907 32.9464 31.5772 34.2229C31.7711 34.5393 31.6654 34.9503 31.3413 35.1396C31.2026 35.2208 31.0389 35.2512 30.8794 35.2253L28.7257 34.9586C28.6351 34.9474 28.5477 34.9187 28.4687 34.874C28.3897 34.8292 28.3206 34.7695 28.2657 34.6983C27.0707 33.1513 25.6968 31.5763 24.2343 30.0386C22.659 31.8209 21.3012 33.5871 20.3619 35.2764C20.2346 35.5053 19.9892 35.6321 19.7392 35.6247L16.7995 35.5685C16.4221 35.563 16.1211 35.2589 16.1267 34.8904C16.1284 34.7888 16.1533 34.6888 16.1998 34.5979Z" fill="#00BBCB"/>
</svg>
