<svg width="16" height="16" viewBox="0 0 16 16" fill="none" xmlns="http://www.w3.org/2000/svg">
<circle cx="8" cy="8" r="8" fill="#2B6AFF"/>
<path d="M9.80167 7.35447C9.71358 7.491 9.6255 7.62973 9.53962 7.76625C9.21151 8.28374 8.89662 8.80783 8.57732 9.32971C8.47603 9.49487 8.35492 9.64461 8.19637 9.76132C7.71192 10.118 7.21205 9.75691 7.1548 9.33412C7.11516 9.06106 7.09094 8.78581 7.08653 8.51055C7.08433 8.19125 7.08653 7.87195 7.08653 7.55486C7.08653 7.50861 7.08213 7.46237 7.07993 7.41613C7.05791 7.41613 7.0557 7.43374 7.0491 7.44255C6.44574 8.44008 5.81154 9.42 5.19497 10.4087C5.15753 10.4682 5.1223 10.5298 5.08266 10.5893C5.06505 10.6157 5.06505 10.6333 5.08927 10.6598C5.71245 11.305 6.45234 11.741 7.34638 11.8775C8.43199 12.0448 9.41851 11.8004 10.3015 11.1442C10.4094 11.0649 10.5063 10.9724 10.612 10.8888C10.7419 10.7875 10.8851 10.7258 11.0568 10.7655C11.0811 10.7699 11.1009 10.7809 11.1185 10.7963C11.1581 10.8359 11.1978 10.8712 11.2418 10.9064C11.3739 11.0033 11.3805 11.1332 11.3453 11.2763C11.3013 11.4459 11.1846 11.5626 11.0546 11.6683C10.4557 12.166 9.78185 12.5205 9.01553 12.6812C7.54896 12.9917 6.21232 12.6967 5.03422 11.7696C4.13578 11.0627 3.56545 10.1379 3.31441 9.01922C3.18449 8.44008 3.17128 7.85434 3.25936 7.26639C3.52801 5.43868 4.83163 4.05359 6.29159 3.49867C6.76283 3.3181 7.25829 3.21901 7.76256 3.2036C8.31308 3.18598 8.85258 3.23443 9.38107 3.40398C10.0857 3.62639 10.7287 4.00955 11.2594 4.52263C11.9927 5.23169 12.4551 6.08829 12.6489 7.09022C12.7436 7.57908 12.7656 8.07234 12.6864 8.5634C12.5917 9.15575 12.1116 9.7437 11.462 9.86701C10.819 9.99033 10.2201 9.65782 9.96021 9.03023C9.84791 8.75938 9.81708 8.47532 9.81708 8.18685C9.81708 7.9204 9.81708 7.65615 9.81708 7.3897C9.81708 7.3809 9.81708 7.37209 9.81488 7.36328L9.80167 7.35447Z" fill="#FEFEFE"/>
<path d="M7.95179 8.6383V8.23973C7.95179 7.69142 7.95399 7.1409 7.94739 6.59259C7.94519 6.37019 7.89454 6.15879 7.73159 5.99143C7.58405 5.84389 7.36164 5.80205 7.17006 5.88353C7.03794 5.94078 6.92563 6.03547 6.84416 6.15659C6.65038 6.43184 6.48743 6.72692 6.30465 7.00878C5.7145 7.90942 5.16399 8.83428 4.58265 9.73933C4.53641 9.812 4.49677 9.8142 4.45713 9.73272C4.40869 9.63583 4.36685 9.53674 4.32721 9.43544C4.15765 9.00825 4.06957 8.55462 4.06296 8.09439C4.04975 7.1343 4.3184 6.26449 4.92397 5.51579C5.51852 4.7803 6.28263 4.30246 7.21631 4.1307C8.56616 3.88407 9.73766 4.26062 10.7132 5.21411C11.3209 5.80646 11.6733 6.54195 11.8142 7.38093C11.867 7.68922 11.8781 8.00411 11.8472 8.3146C11.823 8.54361 11.7305 8.744 11.5477 8.89154C11.3958 9.01265 11.224 9.08091 11.0325 9.00384C10.8299 8.92457 10.7264 8.75941 10.6911 8.54802C10.6405 8.23973 10.6471 7.92924 10.6537 7.61875C10.6581 7.3545 10.6757 7.08585 10.6185 6.82381C10.5502 6.51992 10.3741 6.30412 10.0592 6.22485C9.90722 6.18741 9.76628 6.23806 9.63416 6.30853C9.43377 6.41643 9.28183 6.57938 9.15411 6.76215C8.9251 7.08585 8.72691 7.43158 8.51552 7.76849C8.33935 8.05035 8.16319 8.33222 7.98702 8.61408C7.98042 8.62289 7.97381 8.6339 7.96721 8.64271L7.95179 8.6383Z" fill="#2B6AFF"/>
</svg>
