<svg width="17" height="16" viewBox="0 0 17 16" fill="none" xmlns="http://www.w3.org/2000/svg">
<g id="Mask group">
<mask id="mask0_1226_7046" style="mask-type:alpha" maskUnits="userSpaceOnUse" x="0" y="0" width="17" height="16">
<circle id="Ellipse 2120" cx="8.16406" cy="8" r="8" fill="#D9D9D9"/>
</mask>
<g mask="url(#mask0_1226_7046)">
<g id="Group 1261155765">
<path id="Vector" d="M13.2427 0H3.08538C1.47198 0 0.164062 1.30792 0.164062 2.92132V13.0787C0.164062 14.6921 1.47198 16 3.08538 16H13.2427C14.8561 16 16.1641 14.6921 16.1641 13.0787V2.92132C16.1641 1.30792 14.8561 0 13.2427 0Z" fill="url(#paint0_linear_1226_7046)"/>
<path id="Vector_2" d="M5.37413 3.72754C4.84716 3.72798 4.33213 3.88461 3.89415 4.17766C3.45616 4.4707 3.11487 4.887 2.91341 5.37394C2.71194 5.86089 2.65935 6.39663 2.76226 6.91346C2.86517 7.43029 3.11898 7.90501 3.49161 8.27764C3.86424 8.65027 4.33897 8.90408 4.8558 9.007C5.37263 9.10991 5.90837 9.05731 6.39531 8.85585C6.88226 8.65438 7.29856 8.31309 7.5916 7.87511C7.88464 7.43712 8.04128 6.9221 8.04171 6.39512C8.04133 5.68776 7.76015 5.00947 7.25997 4.50929C6.75979 4.0091 6.0815 3.72793 5.37413 3.72754ZM5.37413 7.96644C5.06306 7.96644 4.75897 7.87419 4.50032 7.70136C4.24167 7.52853 4.04009 7.28288 3.92105 6.99548C3.80202 6.70808 3.77089 6.39183 3.8316 6.08674C3.8923 5.78164 4.04212 5.5014 4.2621 5.28145C4.48208 5.06151 4.76234 4.91173 5.06745 4.85108C5.37255 4.79042 5.68879 4.8216 5.97618 4.94068C6.26356 5.05975 6.50918 5.26138 6.68197 5.52005C6.85476 5.77872 6.94696 6.08283 6.94691 6.39391C6.9455 6.81057 6.77933 7.20977 6.48468 7.50438C6.19002 7.79899 5.7908 7.96509 5.37413 7.96644ZM13.2317 6.00778C13.2325 6.38923 13.1361 6.76461 12.9515 7.09844C12.6668 6.86667 12.3426 6.68802 11.9946 6.57101C12.0874 6.39774 12.1363 6.20434 12.1369 6.00778C12.1369 5.69306 12.0119 5.39123 11.7893 5.16869C11.5668 4.94615 11.2649 4.82113 10.9502 4.82113C10.6355 4.82113 10.3337 4.94615 10.1111 5.16869C9.8886 5.39123 9.76358 5.69306 9.76358 6.00778C9.76208 6.2046 9.81106 6.39852 9.90585 6.57101C9.55778 6.68807 9.23358 6.86672 8.94869 7.09844C8.75871 6.75128 8.66247 6.36061 8.66945 5.96493C8.67643 5.56925 8.78639 5.18221 8.98849 4.84197C9.19059 4.50172 9.47786 4.22001 9.82198 4.02459C10.1661 3.82917 10.5552 3.72679 10.951 3.72754C11.5556 3.72819 12.1352 3.96862 12.5628 4.39609C12.9904 4.82356 13.2309 5.40317 13.2317 6.00778ZM10.951 6.93059C10.4238 6.93016 9.90838 7.08604 9.46983 7.37854C9.03128 7.67103 8.68931 8.087 8.48716 8.57384C8.28501 9.06068 8.23175 9.59653 8.33413 10.1136C8.43651 10.6307 8.68993 11.1059 9.06233 11.479C9.43474 11.8521 9.90941 12.1063 10.4263 12.2097C10.9432 12.313 11.4792 12.2607 11.9664 12.0594C12.4536 11.8582 12.8702 11.517 13.1635 11.079C13.4568 10.6409 13.6136 10.1258 13.6142 9.59866C13.6134 8.8921 13.3328 8.21461 12.8336 7.71455C12.3345 7.21448 11.6575 6.93259 10.951 6.93059ZM10.951 11.1666C10.6403 11.1662 10.3367 11.0737 10.0786 10.9007C9.82056 10.7278 9.61956 10.4822 9.50107 10.195C9.38257 9.90787 9.3519 9.592 9.41294 9.28739C9.47398 8.98278 9.62398 8.70312 9.84398 8.48377C10.064 8.26442 10.3441 8.11524 10.6489 8.0551C10.9537 7.99496 11.2694 8.02656 11.5563 8.14591C11.8431 8.26525 12.0881 8.46697 12.2602 8.72556C12.4324 8.98415 12.524 9.28799 12.5235 9.59866C12.5223 10.0149 12.356 10.4137 12.0613 10.7076C11.7665 11.0015 11.3672 11.1666 10.951 11.1666ZM7.65485 9.98064C7.65485 10.5857 7.41449 11.166 6.98663 11.5939C6.55878 12.0217 5.97848 12.2621 5.3734 12.2621C4.76832 12.2621 4.18803 12.0217 3.76017 11.5939C3.33232 11.166 3.09195 10.5857 3.09195 9.98064H4.18676C4.18676 10.2954 4.31178 10.5972 4.53432 10.8197C4.75686 11.0423 5.05868 11.1673 5.3734 11.1673C5.68812 11.1673 5.98995 11.0423 6.21249 10.8197C6.43503 10.5972 6.56005 10.2954 6.56005 9.98064H7.65485Z" fill="#252525"/>
</g>
</g>
</g>
<defs>
<linearGradient id="paint0_linear_1226_7046" x1="15.3483" y1="0.815804" x2="1.20095" y2="14.9631" gradientUnits="userSpaceOnUse">
<stop stop-color="#F1D961"/>
<stop offset="1" stop-color="#CDA146"/>
</linearGradient>
</defs>
</svg>
