<svg width="13" height="12" viewBox="0 0 13 12" fill="none" xmlns="http://www.w3.org/2000/svg">
<g id="pickaxe-svgrepo-com 1" clip-path="url(#clip0_1229_7107)">
<path id="Vector" d="M12.1614 9.19226C12.1614 9.19226 9.87402 6.17688 7.92905 4.23229C5.98411 2.28735 2.96875 0 2.96875 0C2.96875 0 6.15843 0.0076925 9.15623 3.00511C12.1537 6.00256 12.1614 9.19226 12.1614 9.19226Z" fill="#18FFFF"/>
<path id="Vector_2" d="M9.09814 2.00537L0.383789 10.7197C0.0908203 11.0127 0.0908203 11.4873 0.383789 11.7803C0.676758 12.0733 1.15137 12.0733 1.44434 11.7803L10.1587 3.06594L9.09814 2.00537Z" fill="#18FFFF"/>
<path id="Vector_3" d="M6.79886 4.30325L7.85938 5.36377L10.1573 3.06584L9.09679 2.00532L6.79886 4.30325Z" fill="#18FFFF"/>
<path id="Vector_4" d="M8.74704 3.773C8.64962 3.87077 8.49106 3.87042 8.39366 3.773C8.29586 3.67522 8.29586 3.51701 8.39366 3.41924C8.49106 3.32184 8.64962 3.32184 8.74704 3.41924C8.84484 3.51701 8.84484 3.67522 8.74704 3.773Z" fill="#18FFFF"/>
<path id="Vector_5" d="M11.3775 11.5001H5.45065L6.12742 10.0564L8.39167 8.59364L10.7017 10.0584L11.3775 11.5001Z" fill="#18FFFF" stroke="#18FFFF"/>
</g>
<defs>
<clipPath id="clip0_1229_7107">
<rect width="12" height="12" fill="white" transform="translate(0.164062)"/>
</clipPath>
</defs>
</svg>
