<svg width="16" height="16" viewBox="0 0 16 16" fill="none" xmlns="http://www.w3.org/2000/svg">
<mask id="mask0_3660_6121" style="mask-type:alpha" maskUnits="userSpaceOnUse" x="0" y="0" width="16" height="16">
<circle cx="8" cy="8" r="8" fill="#D9D9D9"/>
</mask>
<g mask="url(#mask0_3660_6121)">
<path d="M16.8157 0H-0.832031V16H16.8157V0Z" fill="url(#paint0_radial_3660_6121)"/>
<path d="M5.8368 4.16791L5.46417 4.36978L5.54157 3.95408L5.23438 3.66284L5.65407 3.60699L5.8368 3.22559L6.01872 3.60699L6.43842 3.66284L6.13122 3.95408L6.20862 4.36978L5.8368 4.16791Z" fill="url(#paint1_linear_3660_6121)"/>
<path style="mix-blend-mode:overlay" d="M5.23438 3.66284L5.8368 3.79769V3.22559L5.65407 3.60699L5.23438 3.66284Z" fill="url(#paint2_radial_3660_6121)"/>
<path style="mix-blend-mode:multiply" d="M5.83984 3.79793L6.44147 3.66309L6.13427 3.95432L6.21167 4.37003L5.83984 3.79793Z" fill="url(#paint3_linear_3660_6121)"/>
<path style="mix-blend-mode:multiply" d="M5.83747 3.79834L5.46484 4.37044L5.83747 4.16857V3.79834Z" fill="url(#paint4_linear_3660_6121)"/>
<path d="M10.1485 4.16791L9.77667 4.36978L9.85407 3.95408L9.54688 3.66284L9.96657 3.60699L10.1485 3.22559L10.3312 3.60699L10.7509 3.66284L10.4437 3.95408L10.5211 4.36978L10.1485 4.16791Z" fill="url(#paint5_linear_3660_6121)"/>
<path style="mix-blend-mode:overlay" d="M9.54688 3.66284L10.1485 3.79769V3.22559L9.96657 3.60699L9.54688 3.66284Z" fill="url(#paint6_radial_3660_6121)"/>
<path style="mix-blend-mode:multiply" d="M10.1445 3.79793L10.747 3.66309L10.4398 3.95432L10.5172 4.37003L10.1445 3.79793Z" fill="url(#paint7_linear_3660_6121)"/>
<path style="mix-blend-mode:multiply" d="M10.1453 3.79834L9.77344 4.37044L10.1453 4.16857V3.79834Z" fill="url(#paint8_linear_3660_6121)"/>
<path d="M7.99305 2.83131L7.62042 3.03318L7.69782 2.61667L7.39062 2.32544L7.81032 2.27038L7.99305 1.88818L8.17497 2.27038L8.59467 2.32544L8.28747 2.61667L8.36487 3.03318L7.99305 2.83131Z" fill="url(#paint9_linear_3660_6121)"/>
<path style="mix-blend-mode:overlay" d="M7.39062 2.32544L7.99305 2.46028V1.88818L7.81032 2.27038L7.39062 2.32544Z" fill="url(#paint10_radial_3660_6121)"/>
<path style="mix-blend-mode:multiply" d="M7.99219 2.46004L8.59381 2.3252L8.28661 2.61643L8.36401 3.03294L7.99219 2.46004Z" fill="url(#paint11_linear_3660_6121)"/>
<path style="mix-blend-mode:multiply" d="M7.99372 2.45996L7.62109 3.03286L7.99372 2.83099V2.45996Z" fill="url(#paint12_linear_3660_6121)"/>
<path d="M8.42212 4.33496V4.37007L8.41016 4.35251L8.42212 4.33496Z" fill="url(#paint13_linear_3660_6121)"/>
<path d="M7.96088 14.1C7.94757 14.097 7.9345 14.093 7.92179 14.088C7.57808 13.9649 7.24526 13.8133 6.9268 13.6348C4.79638 12.4436 3.47266 10.1552 3.47266 7.66329V4.79083L3.66974 4.8387C4.13624 4.95519 4.6148 5.01652 5.0956 5.02142C6.88451 5.02142 7.69997 4.07111 7.85077 3.87164C7.85664 3.86275 7.86303 3.85422 7.86992 3.8461L8.00716 3.68652L8.13164 3.87483C8.28244 4.07351 9.0979 5.02461 10.8876 5.02461C11.3685 5.01919 11.847 4.95733 12.3135 4.8403L12.5106 4.79242V7.66489C12.5106 10.1568 11.1868 12.4452 9.05641 13.6364C8.73621 13.8162 8.40152 13.9689 8.05584 14.0928C8.04517 14.0968 8.03424 14.1 8.02312 14.1024L7.992 14.1088L7.96088 14.1Z" fill="url(#paint14_linear_3660_6121)"/>
<path d="M12.3539 5.00001V7.66263C12.3539 10.0699 11.0829 12.32 8.98198 13.4953C8.66861 13.6697 8.34111 13.8173 8.00295 13.9366L7.99258 13.9406L7.98061 13.9366C7.64335 13.8163 7.3169 13.6676 7.00477 13.4921C4.90388 12.3176 3.63281 10.0675 3.63281 7.66024V5.00001C6.54677 5.69579 7.80587 4.20211 7.983 3.96274L7.99497 3.94678C7.99497 3.95156 8.00135 3.95635 8.00534 3.96274C8.18328 4.20211 9.43918 5.69579 12.3539 5.00001Z" fill="url(#paint15_linear_3660_6121)"/>
<path style="mix-blend-mode:multiply" d="M4.48047 10.9509C5.0683 12.0176 5.94241 12.8989 7.00425 13.4955C7.31649 13.6698 7.64293 13.8175 7.98009 13.9367L7.99206 13.9407L8.00004 13.9367C8.33748 13.8162 8.66418 13.6676 8.97668 13.4923C10.0385 12.8957 10.9126 12.0144 11.5005 10.9478L4.48047 10.9509Z" fill="url(#paint16_linear_3660_6121)"/>
<path style="mix-blend-mode:screen" d="M12.3539 5.00001V7.66263C12.3539 10.0699 11.0829 12.32 8.98198 13.4953C8.66861 13.6697 8.34111 13.8173 8.00295 13.9366L7.99258 13.9406L7.98061 13.9366C7.64335 13.8163 7.3169 13.6676 7.00477 13.4921C4.90388 12.3176 3.63281 10.0675 3.63281 7.66024V5.00001C6.54677 5.69579 7.80587 4.20211 7.983 3.96274L7.99497 3.94678C7.99497 3.95156 8.00135 3.95635 8.00534 3.96274C8.18328 4.20211 9.43918 5.69579 12.3539 5.00001Z" stroke="url(#paint17_linear_3660_6121)" stroke-width="0.81" stroke-miterlimit="10"/>
<g style="mix-blend-mode:multiply" opacity="0.7">
<path d="M7.99581 5.05954C8.56392 5.49679 9.50466 5.97873 10.8922 5.97873C11.1145 5.9784 11.3366 5.96642 11.5577 5.94282V7.66231C11.5577 9.80788 10.4215 11.7763 8.59345 12.7984C8.40004 12.9068 8.20049 13.0037 7.99581 13.0889C7.79113 13.0037 7.59159 12.9068 7.39818 12.7984C5.57097 11.7763 4.43475 9.80868 4.43475 7.66311V5.94282C4.65579 5.96642 4.87792 5.9784 5.10021 5.97873C6.48697 5.97873 7.4277 5.49998 7.99581 5.05954ZM7.99581 4.64941L7.89448 4.7292C7.38063 5.1521 6.47819 5.65637 5.1018 5.65637C4.83282 5.65562 4.56416 5.6375 4.29751 5.60212L4.11719 5.57818V7.66311C4.11719 9.92438 5.31405 11.9989 7.24419 13.0769C7.46821 13.2026 7.70008 13.3137 7.93836 13.4096L7.99741 13.4336L8.05725 13.4096C8.29554 13.3137 8.52741 13.2026 8.75143 13.0769C10.68 11.9981 11.8784 9.92358 11.8784 7.66231V5.58137L11.6981 5.60531C11.4315 5.64069 11.1628 5.65881 10.8938 5.65956C9.51503 5.65956 8.6126 5.15529 8.10114 4.7324L7.9998 4.65261L7.99581 4.64941Z" fill="url(#paint18_linear_3660_6121)"/>
</g>
<path d="M7.99408 13.2611C7.76236 13.1695 7.53687 13.0629 7.31905 12.9419C5.44078 11.8879 4.27344 9.86681 4.27344 7.66299V5.76318C4.54696 5.79954 4.82255 5.81819 5.09847 5.81903C6.53072 5.81903 7.46826 5.28842 7.99408 4.85596C8.5199 5.28842 9.45744 5.81903 10.8905 5.81903C11.1664 5.81819 11.442 5.79954 11.7155 5.76318V7.6622C11.7155 9.86602 10.5482 11.8871 8.66991 12.9372C8.45177 13.0594 8.22603 13.1676 7.99408 13.2611Z" fill="url(#paint19_radial_3660_6121)"/>
<g style="mix-blend-mode:lighten" opacity="0.5">
<path d="M5.09514 5.97922C4.87285 5.9789 4.65073 5.96691 4.42969 5.94332V7.66361C4.42969 9.80918 5.56591 11.7768 7.39312 12.7989C7.58008 12.9034 7.77267 12.9974 7.97 13.0806V5.0752C7.4003 5.50846 6.46515 5.97922 5.09514 5.97922Z" fill="url(#paint20_radial_3660_6121)" style="mix-blend-mode:screen"/>
</g>
<g style="mix-blend-mode:lighten">
<path d="M10.8898 5.97876C9.50304 5.97876 8.56151 5.50002 7.9934 5.05957L7.97266 5.07473V13.0801L7.9934 13.0889C8.19808 13.0038 8.39763 12.9068 8.59103 12.7985C10.419 11.7764 11.5553 9.80792 11.5553 7.66234V5.94285C11.3342 5.96645 11.1121 5.97843 10.8898 5.97876Z" fill="url(#paint21_radial_3660_6121)" style="mix-blend-mode:color-dodge"/>
</g>
<path style="mix-blend-mode:multiply" d="M7.99408 13.2611C7.76236 13.1695 7.53687 13.0629 7.31905 12.9419C5.44078 11.8879 4.27344 9.86681 4.27344 7.66299V5.76318C4.54696 5.79954 4.82255 5.81819 5.09847 5.81903C6.53072 5.81903 7.46826 5.28842 7.99408 4.85596C8.5199 5.28842 9.45744 5.81903 10.8905 5.81903C11.1664 5.81819 11.442 5.79954 11.7155 5.76318V7.6622C11.7155 9.86602 10.5482 11.8871 8.66991 12.9372C8.45177 13.0594 8.22603 13.1676 7.99408 13.2611Z" stroke="url(#paint22_linear_3660_6121)" stroke-width="0.5" stroke-miterlimit="10"/>
<path style="mix-blend-mode:screen" d="M11.872 5.58154V7.66249C11.872 9.92375 10.6751 11.9983 8.74496 13.0771C8.52094 13.2028 8.28907 13.3139 8.05078 13.4098" stroke="url(#paint23_linear_3660_6121)" stroke-width="0.81" stroke-miterlimit="10"/>
<path d="M8.4112 4.35251L8.39844 4.37007V4.33496C8.39844 4.33496 8.40083 4.34134 8.4112 4.35251Z" fill="url(#paint24_linear_3660_6121)"/>
<path style="mix-blend-mode:multiply" d="M4.72878 8.56485C4.70366 8.63818 4.65639 8.7019 4.5935 8.74721C4.53061 8.79252 4.45521 8.81718 4.3777 8.81779L3.54309 8.65821C3.52553 8.53453 3.51037 8.41006 3.5 8.28479V8.2808C3.6149 8.16431 4.24365 8.23771 4.24365 8.23771L4.53489 7.79248L4.60191 7.84434L4.72878 8.56485Z" fill="url(#paint25_linear_3660_6121)"/>
<path style="mix-blend-mode:multiply" d="M4.9277 9.68416C4.9277 9.68416 4.90775 9.83497 4.6995 9.92354L3.83536 9.88284C3.77579 9.70464 3.72259 9.52432 3.67578 9.34186C3.77955 9.31235 3.88707 9.2981 3.99494 9.29957C4.08112 9.30835 4.72902 8.96924 4.72902 8.96924L4.78487 9.01631L4.9277 9.68416Z" fill="url(#paint26_linear_3660_6121)"/>
<path style="mix-blend-mode:multiply" d="M5.05018 10.4799C5.03336 10.5208 5.00768 10.5575 4.97498 10.5873C4.94228 10.6171 4.90338 10.6392 4.86107 10.6522C4.63936 10.6768 4.41948 10.7157 4.2028 10.7687C4.14216 10.6463 4.08498 10.5224 4.03125 10.3969C4.07288 10.3352 4.12991 10.2856 4.19668 10.2528C4.26345 10.2201 4.33763 10.2054 4.41185 10.2102C4.51797 10.2229 4.89857 9.99951 4.89857 9.99951L4.94645 10.0466L5.05018 10.4799Z" fill="url(#paint27_linear_3660_6121)"/>
<path d="M4.66012 8.56484L4.53565 7.78847L1.21875 6.36182L1.52195 7.78847L4.66012 8.56484Z" fill="url(#paint28_linear_3660_6121)"/>
<path d="M4.72975 8.96961L2.14453 8.36719L2.36396 9.38213L4.86061 9.66698L4.72975 8.96961Z" fill="url(#paint29_linear_3660_6121)"/>
<path d="M4.90001 9.99931L3.14062 9.88281L3.28505 10.5387L5.00134 10.4517L4.90001 9.99931Z" fill="url(#paint30_linear_3660_6121)"/>
<path d="M4.66161 8.56485C4.63068 8.61249 4.58494 8.64861 4.53143 8.66765C4.47793 8.68668 4.41964 8.68757 4.36558 8.67018L1.52344 7.79248L4.66161 8.56485Z" fill="url(#paint31_linear_3660_6121)"/>
<path d="M4.85993 9.66718C4.8264 9.71908 4.77803 9.75969 4.72111 9.78374C4.66419 9.80778 4.60136 9.81416 4.54077 9.80202L2.36328 9.38232L4.85993 9.66718Z" fill="url(#paint32_linear_3660_6121)"/>
<path d="M4.99755 10.4517C4.96594 10.4887 4.9265 10.5183 4.88207 10.5384C4.83765 10.5584 4.78934 10.5683 4.74062 10.5674L3.28125 10.5386L4.99755 10.4517Z" fill="url(#paint33_linear_3660_6121)"/>
<path style="mix-blend-mode:overlay" d="M1.21875 6.36182L1.35998 7.02647L4.60268 8.20339L4.53565 7.78847L1.21875 6.36182Z" fill="url(#paint34_radial_3660_6121)"/>
<path style="mix-blend-mode:overlay" d="M2.14453 8.36719L4.72975 8.96961L4.7856 9.26962L2.24985 8.85551L2.14453 8.36719Z" fill="url(#paint35_radial_3660_6121)"/>
<path style="mix-blend-mode:overlay" d="M3.14062 9.88281L4.90001 9.99931L4.94789 10.2108H3.21323L3.14062 9.88281Z" fill="url(#paint36_radial_3660_6121)"/>
<path style="mix-blend-mode:multiply" d="M11.2539 8.56485C11.279 8.63818 11.3263 8.7019 11.3892 8.74721C11.4521 8.79252 11.5275 8.81718 11.605 8.81779L12.4396 8.65821C12.4572 8.53453 12.4723 8.41006 12.4827 8.28479V8.2808C12.3678 8.16431 11.739 8.23771 11.739 8.23771L11.4494 7.79248L11.3824 7.84434L11.2539 8.56485Z" fill="url(#paint37_linear_3660_6121)"/>
<path style="mix-blend-mode:multiply" d="M11.0586 9.68416C11.0586 9.68416 11.0785 9.83497 11.2868 9.92354L12.1517 9.88284C12.2118 9.70464 12.265 9.52432 12.3113 9.34186C12.2075 9.31235 12.1 9.2981 11.9921 9.29957C11.9068 9.30436 11.2565 8.96924 11.2565 8.96924L11.2006 9.01631L11.0586 9.68416Z" fill="url(#paint38_linear_3660_6121)"/>
<path style="mix-blend-mode:multiply" d="M10.9336 10.4799C10.9504 10.5208 10.9761 10.5575 11.0088 10.5873C11.0415 10.6171 11.0804 10.6392 11.1227 10.6522C11.3444 10.6768 11.5643 10.7157 11.781 10.7687C11.8416 10.6463 11.8988 10.5224 11.9525 10.3969C11.911 10.3355 11.8543 10.286 11.7878 10.2532C11.7213 10.2205 11.6475 10.2056 11.5735 10.2102C11.4674 10.2229 11.0868 9.99951 11.0868 9.99951L11.0389 10.0466L10.9336 10.4799Z" fill="url(#paint39_linear_3660_6121)"/>
<path d="M11.3242 8.56484L11.4487 7.78847L14.7656 6.36182L14.4624 7.78847L11.3242 8.56484Z" fill="url(#paint40_linear_3660_6121)"/>
<path d="M11.252 8.96961L13.8372 8.36719L13.6177 9.38213L11.1211 9.66698L11.252 8.96961Z" fill="url(#paint41_linear_3660_6121)"/>
<path d="M11.0857 9.99931L12.8451 9.88281L12.7007 10.5387L10.9844 10.4517L11.0857 9.99931Z" fill="url(#paint42_linear_3660_6121)"/>
<path d="M11.3242 8.56485C11.3551 8.61249 11.4009 8.64861 11.4544 8.66765C11.5079 8.68668 11.5662 8.68757 11.6202 8.67018L14.4632 7.79248L11.3242 8.56485Z" fill="url(#paint43_linear_3660_6121)"/>
<path d="M11.1211 9.66718C11.1547 9.719 11.2031 9.75954 11.26 9.78358C11.3169 9.80762 11.3797 9.81404 11.4403 9.80202L13.6193 9.38232L11.1211 9.66718Z" fill="url(#paint44_linear_3660_6121)"/>
<path d="M10.9844 10.4517C11.016 10.4887 11.0554 10.5183 11.0998 10.5384C11.1443 10.5584 11.1926 10.5683 11.2413 10.5674L12.7007 10.5386L10.9844 10.4517Z" fill="url(#paint45_linear_3660_6121)"/>
<path style="mix-blend-mode:overlay" d="M14.7659 6.36182L14.6247 7.02647L11.3828 8.20339L11.449 7.78847L14.7659 6.36182Z" fill="url(#paint46_radial_3660_6121)"/>
<path style="mix-blend-mode:overlay" d="M13.8403 8.36719L11.2551 8.96961L11.1992 9.26962L13.735 8.85551L13.8403 8.36719Z" fill="url(#paint47_radial_3660_6121)"/>
<path style="mix-blend-mode:overlay" d="M12.8463 9.88281L11.0869 9.99931L11.0391 10.2108H12.7737L12.8463 9.88281Z" fill="url(#paint48_radial_3660_6121)"/>
<g filter="url(#filter0_d_3660_6121)">
<path d="M5.47089 8.98552L7.17057 10.2542C7.17327 10.2542 7.17327 10.2569 7.17596 10.2569L7.80627 10.7256C7.86014 10.766 7.93556 10.7283 7.93556 10.661L7.93826 7.16732C7.93287 7.10536 7.92479 7.04072 7.91132 6.97876C7.89785 6.9195 7.879 6.86294 7.85206 6.81445C7.89785 7.15654 7.70391 7.5552 7.37529 7.81648C7.30256 7.87574 7.2029 7.94039 7.09246 7.98618C6.97394 8.03736 6.61568 8.16127 6.61568 8.16127L5.53554 8.55184C5.34968 8.61918 5.31197 8.867 5.47089 8.98552Z" fill="white"/>
<path d="M7.15861 7.95709C7.1613 7.9544 7.16669 7.9544 7.16938 7.95171C7.17477 7.94901 7.18016 7.94632 7.18824 7.94093C7.19632 7.93824 7.2017 7.93285 7.20979 7.93016C7.21248 7.92746 7.21787 7.92477 7.22056 7.92477C7.22864 7.91938 7.23942 7.91399 7.2475 7.90861C7.25019 7.90591 7.25288 7.90591 7.25558 7.90322C7.26366 7.89783 7.27174 7.89245 7.28251 7.88706C7.2879 7.88436 7.29059 7.88167 7.29598 7.87898C7.30137 7.87359 7.30945 7.8709 7.31484 7.86551C7.32292 7.86012 7.331 7.85204 7.34177 7.84665C7.34447 7.84665 7.34447 7.84396 7.34716 7.84396C7.35793 7.83588 7.36871 7.8278 7.37948 7.81972C7.70811 7.55844 7.90205 7.15978 7.85626 6.81769C7.8374 6.78537 7.81316 6.75574 7.78622 6.73419L7.22595 6.31937C7.17207 6.27896 7.09396 6.31667 7.09396 6.38402V7.3618C7.09396 7.97595 6.61719 8.16181 6.61719 8.16181C6.61719 8.16181 6.97813 8.0406 7.09396 7.98942C7.11551 7.97864 7.13706 7.96787 7.15861 7.95709Z" fill="#EBEBEB"/>
<path d="M10.6639 8.85877L8.96421 7.59007C8.96151 7.59007 8.96151 7.58738 8.95882 7.58738L8.32851 7.11868C8.27464 7.07828 8.19922 7.11599 8.19922 7.18333V10.677C8.20461 10.7389 8.21269 10.8036 8.22616 10.8655C8.23962 10.9248 8.25848 10.9813 8.28541 11.0298C8.23962 10.6877 8.43356 10.2891 8.76219 10.0278C8.83491 9.96854 8.93458 9.90389 9.04502 9.8581C9.16084 9.80692 9.52179 9.68571 9.52179 9.68571L10.6019 9.29513C10.7878 9.2251 10.8228 8.97729 10.6639 8.85877Z" fill="white"/>
<path d="M8.98165 9.88782C8.97895 9.89051 8.97357 9.89051 8.97087 9.89321C8.96549 9.8959 8.9601 9.8986 8.95202 9.90398C8.94394 9.90668 8.93855 9.91206 8.93047 9.91476C8.92777 9.91745 8.92239 9.92014 8.91969 9.92014C8.91161 9.92553 8.90084 9.93092 8.89276 9.93631C8.89006 9.939 8.88737 9.939 8.88468 9.94169C8.8766 9.94708 8.86851 9.95247 8.85774 9.95786C8.85235 9.96055 8.84966 9.96324 8.84427 9.96594C8.83888 9.97132 8.8308 9.97402 8.82542 9.9794C8.81734 9.98479 8.80926 9.99287 8.79848 9.99826C8.79579 9.99826 8.79579 10.001 8.79309 10.001C8.78232 10.009 8.77154 10.0171 8.76077 10.0252C8.43215 10.2865 8.23821 10.6851 8.284 11.0272C8.30285 11.0595 8.3271 11.0892 8.35403 11.1107L8.91161 11.5255C8.96549 11.5659 9.0436 11.5282 9.0436 11.4609V10.4831C9.0436 9.87166 9.52037 9.68311 9.52037 9.68311C9.52037 9.68311 9.15943 9.80432 9.0436 9.8555C9.02475 9.86627 9.0032 9.87705 8.98165 9.88782Z" fill="#EBEBEB"/>
</g>
</g>
<defs>
<filter id="filter0_d_3660_6121" x="1.37109" y="6.30273" width="13.3945" height="13.2393" filterUnits="userSpaceOnUse" color-interpolation-filters="sRGB">
<feFlood flood-opacity="0" result="BackgroundImageFix"/>
<feColorMatrix in="SourceAlpha" type="matrix" values="0 0 0 0 0 0 0 0 0 0 0 0 0 0 0 0 0 0 127 0" result="hardAlpha"/>
<feOffset dy="4"/>
<feGaussianBlur stdDeviation="2"/>
<feComposite in2="hardAlpha" operator="out"/>
<feColorMatrix type="matrix" values="0 0 0 0 0.556863 0 0 0 0 0.337255 0 0 0 0 0.976471 0 0 0 0.25 0"/>
<feBlend mode="normal" in2="BackgroundImageFix" result="effect1_dropShadow_3660_6121"/>
<feBlend mode="normal" in="SourceGraphic" in2="effect1_dropShadow_3660_6121" result="shape"/>
</filter>
<radialGradient id="paint0_radial_3660_6121" cx="0" cy="0" r="1" gradientUnits="userSpaceOnUse" gradientTransform="translate(7.48298 -1.616) scale(14.1564 19.252)">
<stop stop-color="#8969D7"/>
<stop offset="1" stop-color="#482193"/>
</radialGradient>
<linearGradient id="paint1_linear_3660_6121" x1="5.58944" y1="3.42586" x2="6.09771" y2="4.25568" gradientUnits="userSpaceOnUse">
<stop offset="0.17" stop-color="#FFF1A3"/>
<stop offset="0.19" stop-color="#FCE594"/>
<stop offset="0.22" stop-color="#F6D17B"/>
<stop offset="0.26" stop-color="#F2C168"/>
<stop offset="0.3" stop-color="#EFB65A"/>
<stop offset="0.36" stop-color="#EEB052"/>
<stop offset="0.46" stop-color="#EDAE50"/>
<stop offset="0.54" stop-color="#EEB153"/>
<stop offset="0.61" stop-color="#F0B95D"/>
<stop offset="0.68" stop-color="#F5C76E"/>
<stop offset="0.73" stop-color="#FBDA85"/>
<stop offset="0.76" stop-color="#FFE794"/>
<stop offset="1" stop-color="#B77946"/>
</linearGradient>
<radialGradient id="paint2_radial_3660_6121" cx="0" cy="0" r="1" gradientUnits="userSpaceOnUse" gradientTransform="translate(5.65487 3.31814) scale(0.99898)">
<stop stop-color="#F3E8DE"/>
<stop offset="0.54" stop-color="#F6EEE7" stop-opacity="0.36"/>
<stop offset="0.57" stop-color="#F6EEE7" stop-opacity="0.33"/>
<stop offset="0.75" stop-color="#F7F0E9" stop-opacity="0.15"/>
<stop offset="0.88" stop-color="#F8F1EB" stop-opacity="0.04"/>
<stop offset="0.96" stop-color="#F8F1EB" stop-opacity="0"/>
</radialGradient>
<linearGradient id="paint3_linear_3660_6121" x1="6.62259" y1="4.46578" x2="5.96671" y2="3.47079" gradientUnits="userSpaceOnUse">
<stop stop-color="#B77946" stop-opacity="0"/>
<stop offset="0.18" stop-color="#FFF1A3"/>
<stop offset="0.34" stop-color="#E7C883"/>
<stop offset="0.51" stop-color="#D2A669"/>
<stop offset="0.67" stop-color="#C38D56"/>
<stop offset="0.81" stop-color="#BA7E4A"/>
<stop offset="0.93" stop-color="#B77946"/>
</linearGradient>
<linearGradient id="paint4_linear_3660_6121" x1="5.57496" y1="4.58029" x2="5.93322" y2="3.11693" gradientUnits="userSpaceOnUse">
<stop stop-color="#B77946" stop-opacity="0"/>
<stop offset="0.18" stop-color="#FFF1A3"/>
<stop offset="0.34" stop-color="#E7C883"/>
<stop offset="0.51" stop-color="#D2A669"/>
<stop offset="0.67" stop-color="#C38D56"/>
<stop offset="0.81" stop-color="#BA7E4A"/>
<stop offset="0.93" stop-color="#B77946"/>
</linearGradient>
<linearGradient id="paint5_linear_3660_6121" x1="9.90194" y1="3.42586" x2="10.4102" y2="4.25568" gradientUnits="userSpaceOnUse">
<stop offset="0.17" stop-color="#FFF1A3"/>
<stop offset="0.19" stop-color="#FCE594"/>
<stop offset="0.22" stop-color="#F6D17B"/>
<stop offset="0.26" stop-color="#F2C168"/>
<stop offset="0.3" stop-color="#EFB65A"/>
<stop offset="0.36" stop-color="#EEB052"/>
<stop offset="0.46" stop-color="#EDAE50"/>
<stop offset="0.54" stop-color="#EEB153"/>
<stop offset="0.61" stop-color="#F0B95D"/>
<stop offset="0.68" stop-color="#F5C76E"/>
<stop offset="0.73" stop-color="#FBDA85"/>
<stop offset="0.76" stop-color="#FFE794"/>
<stop offset="1" stop-color="#B77946"/>
</linearGradient>
<radialGradient id="paint6_radial_3660_6121" cx="0" cy="0" r="1" gradientUnits="userSpaceOnUse" gradientTransform="translate(9.96657 3.31814) scale(0.99898)">
<stop stop-color="#F3E8DE"/>
<stop offset="0.54" stop-color="#F6EEE7" stop-opacity="0.36"/>
<stop offset="0.57" stop-color="#F6EEE7" stop-opacity="0.33"/>
<stop offset="0.75" stop-color="#F7F0E9" stop-opacity="0.15"/>
<stop offset="0.88" stop-color="#F8F1EB" stop-opacity="0.04"/>
<stop offset="0.96" stop-color="#F8F1EB" stop-opacity="0"/>
</radialGradient>
<linearGradient id="paint7_linear_3660_6121" x1="10.9273" y1="4.46578" x2="10.2722" y2="3.47079" gradientUnits="userSpaceOnUse">
<stop stop-color="#B77946" stop-opacity="0"/>
<stop offset="0.18" stop-color="#FFF1A3"/>
<stop offset="0.34" stop-color="#E7C883"/>
<stop offset="0.51" stop-color="#D2A669"/>
<stop offset="0.67" stop-color="#C38D56"/>
<stop offset="0.81" stop-color="#BA7E4A"/>
<stop offset="0.93" stop-color="#B77946"/>
</linearGradient>
<linearGradient id="paint8_linear_3660_6121" x1="9.88355" y1="4.58029" x2="10.2418" y2="3.11693" gradientUnits="userSpaceOnUse">
<stop stop-color="#B77946" stop-opacity="0"/>
<stop offset="0.18" stop-color="#FFF1A3"/>
<stop offset="0.34" stop-color="#E7C883"/>
<stop offset="0.51" stop-color="#D2A669"/>
<stop offset="0.67" stop-color="#C38D56"/>
<stop offset="0.81" stop-color="#BA7E4A"/>
<stop offset="0.93" stop-color="#B77946"/>
</linearGradient>
<linearGradient id="paint9_linear_3660_6121" x1="7.74569" y1="2.08846" x2="8.25396" y2="2.91828" gradientUnits="userSpaceOnUse">
<stop offset="0.17" stop-color="#FFF1A3"/>
<stop offset="0.19" stop-color="#FCE594"/>
<stop offset="0.22" stop-color="#F6D17B"/>
<stop offset="0.26" stop-color="#F2C168"/>
<stop offset="0.3" stop-color="#EFB65A"/>
<stop offset="0.36" stop-color="#EEB052"/>
<stop offset="0.46" stop-color="#EDAE50"/>
<stop offset="0.54" stop-color="#EEB153"/>
<stop offset="0.61" stop-color="#F0B95D"/>
<stop offset="0.68" stop-color="#F5C76E"/>
<stop offset="0.73" stop-color="#FBDA85"/>
<stop offset="0.76" stop-color="#FFE794"/>
<stop offset="1" stop-color="#B77946"/>
</linearGradient>
<radialGradient id="paint10_radial_3660_6121" cx="0" cy="0" r="1" gradientUnits="userSpaceOnUse" gradientTransform="translate(7.81112 1.98074) scale(0.99898)">
<stop stop-color="#F3E8DE"/>
<stop offset="0.54" stop-color="#F6EEE7" stop-opacity="0.36"/>
<stop offset="0.57" stop-color="#F6EEE7" stop-opacity="0.33"/>
<stop offset="0.75" stop-color="#F7F0E9" stop-opacity="0.15"/>
<stop offset="0.88" stop-color="#F8F1EB" stop-opacity="0.04"/>
<stop offset="0.96" stop-color="#F8F1EB" stop-opacity="0"/>
</radialGradient>
<linearGradient id="paint11_linear_3660_6121" x1="8.77414" y1="3.12789" x2="8.11905" y2="2.1329" gradientUnits="userSpaceOnUse">
<stop stop-color="#B77946" stop-opacity="0"/>
<stop offset="0.18" stop-color="#FFF1A3"/>
<stop offset="0.34" stop-color="#E7C883"/>
<stop offset="0.51" stop-color="#D2A669"/>
<stop offset="0.67" stop-color="#C38D56"/>
<stop offset="0.81" stop-color="#BA7E4A"/>
<stop offset="0.93" stop-color="#B77946"/>
</linearGradient>
<linearGradient id="paint12_linear_3660_6121" x1="7.7312" y1="3.24191" x2="8.08947" y2="1.77855" gradientUnits="userSpaceOnUse">
<stop stop-color="#B77946" stop-opacity="0"/>
<stop offset="0.18" stop-color="#FFF1A3"/>
<stop offset="0.34" stop-color="#E7C883"/>
<stop offset="0.51" stop-color="#D2A669"/>
<stop offset="0.67" stop-color="#C38D56"/>
<stop offset="0.81" stop-color="#BA7E4A"/>
<stop offset="0.93" stop-color="#B77946"/>
</linearGradient>
<linearGradient id="paint13_linear_3660_6121" x1="8.41016" y1="4.35251" x2="8.42212" y2="4.35251" gradientUnits="userSpaceOnUse">
<stop stop-color="#B77946"/>
<stop offset="0.24" stop-color="#FFE794"/>
<stop offset="0.27" stop-color="#FBDA85"/>
<stop offset="0.32" stop-color="#F5C76E"/>
<stop offset="0.39" stop-color="#F0B95D"/>
<stop offset="0.46" stop-color="#EEB153"/>
<stop offset="0.54" stop-color="#EDAE50"/>
<stop offset="0.64" stop-color="#EEB052"/>
<stop offset="0.7" stop-color="#EFB65A"/>
<stop offset="0.74" stop-color="#F2C168"/>
<stop offset="0.78" stop-color="#F6D17B"/>
<stop offset="0.81" stop-color="#FCE594"/>
<stop offset="0.83" stop-color="#FFF1A3"/>
<stop offset="0.86" stop-color="#F7E398"/>
<stop offset="0.91" stop-color="#E1BF7C"/>
<stop offset="0.98" stop-color="#BE844F"/>
<stop offset="1" stop-color="#B77946"/>
</linearGradient>
<linearGradient id="paint14_linear_3660_6121" x1="3.47266" y1="8.89446" x2="12.5106" y2="8.89446" gradientUnits="userSpaceOnUse">
<stop stop-color="#B77946"/>
<stop offset="0.18" stop-color="#FFF1A3"/>
<stop offset="0.19" stop-color="#F2DC93"/>
<stop offset="0.2" stop-color="#E0BE7B"/>
<stop offset="0.22" stop-color="#D1A468"/>
<stop offset="0.23" stop-color="#C59159"/>
<stop offset="0.25" stop-color="#BD834E"/>
<stop offset="0.27" stop-color="#B87B48"/>
<stop offset="0.31" stop-color="#B77946"/>
<stop offset="0.33" stop-color="#BF8148"/>
<stop offset="0.41" stop-color="#E0A24E"/>
<stop offset="0.46" stop-color="#EDAE50"/>
<stop offset="1" stop-color="#613F1B"/>
</linearGradient>
<linearGradient id="paint15_linear_3660_6121" x1="3.63521" y1="8.94646" x2="12.3539" y2="8.94646" gradientUnits="userSpaceOnUse">
<stop stop-color="#B77946"/>
<stop offset="0.24" stop-color="#FFE794"/>
<stop offset="0.27" stop-color="#FBDA85"/>
<stop offset="0.32" stop-color="#F5C76E"/>
<stop offset="0.39" stop-color="#F0B95D"/>
<stop offset="0.46" stop-color="#EEB153"/>
<stop offset="0.54" stop-color="#EDAE50"/>
<stop offset="0.64" stop-color="#EEB052"/>
<stop offset="0.7" stop-color="#EFB65A"/>
<stop offset="0.74" stop-color="#F2C168"/>
<stop offset="0.78" stop-color="#F6D17B"/>
<stop offset="0.81" stop-color="#FCE594"/>
<stop offset="0.83" stop-color="#FFF1A3"/>
<stop offset="0.86" stop-color="#F7E398"/>
<stop offset="0.91" stop-color="#E1BF7C"/>
<stop offset="0.98" stop-color="#BE844F"/>
<stop offset="1" stop-color="#B77946"/>
</linearGradient>
<linearGradient id="paint16_linear_3660_6121" x1="7.99126" y1="13.6439" x2="7.99126" y2="10.8935" gradientUnits="userSpaceOnUse">
<stop stop-color="#B77946" stop-opacity="0"/>
<stop offset="0.93" stop-color="#B77946"/>
</linearGradient>
<linearGradient id="paint17_linear_3660_6121" x1="3.60329" y1="8.93609" x2="12.3859" y2="8.93609" gradientUnits="userSpaceOnUse">
<stop stop-color="#B77946"/>
<stop offset="0.24" stop-color="#FFE794"/>
<stop offset="0.27" stop-color="#FBDA85"/>
<stop offset="0.32" stop-color="#F5C76E"/>
<stop offset="0.39" stop-color="#F0B95D"/>
<stop offset="0.46" stop-color="#EEB153"/>
<stop offset="0.54" stop-color="#EDAE50"/>
<stop offset="0.64" stop-color="#EEB052"/>
<stop offset="0.7" stop-color="#EFB65A"/>
<stop offset="0.74" stop-color="#F2C168"/>
<stop offset="0.78" stop-color="#F6D17B"/>
<stop offset="0.81" stop-color="#FCE594"/>
<stop offset="0.83" stop-color="#FFF1A3"/>
<stop offset="0.86" stop-color="#F7E398"/>
<stop offset="0.91" stop-color="#E1BF7C"/>
<stop offset="0.98" stop-color="#BE844F"/>
<stop offset="1" stop-color="#B77946"/>
</linearGradient>
<linearGradient id="paint18_linear_3660_6121" x1="4.11559" y1="9.0411" x2="11.8768" y2="9.0411" gradientUnits="userSpaceOnUse">
<stop stop-color="#B77946"/>
<stop offset="0.45" stop-color="#EDAE50"/>
<stop offset="0.51" stop-color="#EBAC4F"/>
<stop offset="0.54" stop-color="#E3A54D"/>
<stop offset="0.57" stop-color="#D59A49"/>
<stop offset="0.59" stop-color="#C28A44"/>
<stop offset="0.61" stop-color="#A9753D"/>
<stop offset="0.63" stop-color="#875934"/>
<stop offset="1" stop-color="#FFF1A3"/>
</linearGradient>
<radialGradient id="paint19_radial_3660_6121" cx="0" cy="0" r="1" gradientUnits="userSpaceOnUse" gradientTransform="translate(7.99488 9.05853) scale(3.96879)">
<stop stop-color="#312F69"/>
<stop offset="0.39" stop-color="#312F69"/>
<stop offset="0.79" stop-color="#312F69"/>
<stop offset="1" stop-color="#312F69"/>
</radialGradient>
<radialGradient id="paint20_radial_3660_6121" cx="0" cy="0" r="1" gradientUnits="userSpaceOnUse" gradientTransform="translate(5.88427 5.51325) scale(6.49816)">
<stop stop-color="#FAF7F4"/>
<stop offset="0.09" stop-color="#FAF7F3" stop-opacity="0.94"/>
<stop offset="0.27" stop-color="#F9F6F2" stop-opacity="0.8"/>
<stop offset="0.51" stop-color="#F8F4EF" stop-opacity="0.56"/>
<stop offset="0.8" stop-color="#F6F2EB" stop-opacity="0.24"/>
<stop offset="1" stop-color="#F5F0E8" stop-opacity="0"/>
</radialGradient>
<radialGradient id="paint21_radial_3660_6121" cx="0" cy="0" r="1" gradientUnits="userSpaceOnUse" gradientTransform="translate(12.196 8.41078) scale(4.05816)">
<stop stop-color="#EDAE50"/>
<stop offset="0.1" stop-color="#E1A54C" stop-opacity="0.94"/>
<stop offset="0.28" stop-color="#C28E42" stop-opacity="0.79"/>
<stop offset="0.53" stop-color="#906931" stop-opacity="0.54"/>
<stop offset="0.83" stop-color="#4B361A" stop-opacity="0.2"/>
<stop offset="1" stop-color="#23180D" stop-opacity="0"/>
</radialGradient>
<linearGradient id="paint22_linear_3660_6121" x1="4.25349" y1="9.05614" x2="11.7355" y2="9.05614" gradientUnits="userSpaceOnUse">
<stop stop-color="#B77946"/>
<stop offset="0.1" stop-color="#EDAE50"/>
<stop offset="0.2" stop-color="#E2A54D"/>
<stop offset="0.35" stop-color="#C68E45"/>
<stop offset="0.56" stop-color="#996839"/>
<stop offset="0.63" stop-color="#875934"/>
<stop offset="0.64" stop-color="#8A5D37"/>
<stop offset="0.67" stop-color="#A98454"/>
<stop offset="0.71" stop-color="#C4A66C"/>
<stop offset="0.76" stop-color="#D9C180"/>
<stop offset="0.8" stop-color="#EAD790"/>
<stop offset="0.85" stop-color="#F6E69B"/>
<stop offset="0.91" stop-color="#FDEEA1"/>
<stop offset="1" stop-color="#FFF1A3"/>
</linearGradient>
<linearGradient id="paint23_linear_3660_6121" x1="8.03801" y1="9.51044" x2="11.9039" y2="9.51044" gradientUnits="userSpaceOnUse">
<stop stop-color="#B77946"/>
<stop offset="0.24" stop-color="#FFE794"/>
<stop offset="0.27" stop-color="#FBDA85"/>
<stop offset="0.32" stop-color="#F5C76E"/>
<stop offset="0.39" stop-color="#F0B95D"/>
<stop offset="0.46" stop-color="#EEB153"/>
<stop offset="0.54" stop-color="#EDAE50"/>
<stop offset="0.64" stop-color="#EEB052"/>
<stop offset="0.7" stop-color="#EFB65A"/>
<stop offset="0.74" stop-color="#F2C168"/>
<stop offset="0.78" stop-color="#F6D17B"/>
<stop offset="0.81" stop-color="#FCE594"/>
<stop offset="0.83" stop-color="#FFF1A3"/>
<stop offset="0.86" stop-color="#F7E398"/>
<stop offset="0.91" stop-color="#E1BF7C"/>
<stop offset="0.98" stop-color="#BE844F"/>
<stop offset="1" stop-color="#B77946"/>
</linearGradient>
<linearGradient id="paint24_linear_3660_6121" x1="8.39844" y1="4.35251" x2="8.4112" y2="4.35251" gradientUnits="userSpaceOnUse">
<stop stop-color="#B77946"/>
<stop offset="0.24" stop-color="#FFE794"/>
<stop offset="0.27" stop-color="#FBDA85"/>
<stop offset="0.32" stop-color="#F5C76E"/>
<stop offset="0.39" stop-color="#F0B95D"/>
<stop offset="0.46" stop-color="#EEB153"/>
<stop offset="0.54" stop-color="#EDAE50"/>
<stop offset="0.64" stop-color="#EEB052"/>
<stop offset="0.7" stop-color="#EFB65A"/>
<stop offset="0.74" stop-color="#F2C168"/>
<stop offset="0.78" stop-color="#F6D17B"/>
<stop offset="0.81" stop-color="#FCE594"/>
<stop offset="0.83" stop-color="#FFF1A3"/>
<stop offset="0.86" stop-color="#F7E398"/>
<stop offset="0.91" stop-color="#E1BF7C"/>
<stop offset="0.98" stop-color="#BE844F"/>
<stop offset="1" stop-color="#B77946"/>
</linearGradient>
<linearGradient id="paint25_linear_3660_6121" x1="3.5008" y1="8.30314" x2="4.73037" y2="8.30314" gradientUnits="userSpaceOnUse">
<stop stop-color="#B77946" stop-opacity="0"/>
<stop offset="0.13" stop-color="#B77946" stop-opacity="0.26"/>
<stop offset="0.25" stop-color="#B77946" stop-opacity="0.49"/>
<stop offset="0.38" stop-color="#B77946" stop-opacity="0.67"/>
<stop offset="0.51" stop-color="#B77946" stop-opacity="0.82"/>
<stop offset="0.64" stop-color="#B77946" stop-opacity="0.92"/>
<stop offset="0.78" stop-color="#B77946" stop-opacity="0.98"/>
<stop offset="0.93" stop-color="#B77946"/>
</linearGradient>
<linearGradient id="paint26_linear_3660_6121" x1="3.67738" y1="9.44718" x2="4.9277" y2="9.44718" gradientUnits="userSpaceOnUse">
<stop stop-color="#B77946" stop-opacity="0"/>
<stop offset="0.13" stop-color="#B77946" stop-opacity="0.26"/>
<stop offset="0.25" stop-color="#B77946" stop-opacity="0.49"/>
<stop offset="0.38" stop-color="#B77946" stop-opacity="0.67"/>
<stop offset="0.51" stop-color="#B77946" stop-opacity="0.82"/>
<stop offset="0.64" stop-color="#B77946" stop-opacity="0.92"/>
<stop offset="0.78" stop-color="#B77946" stop-opacity="0.98"/>
<stop offset="0.93" stop-color="#B77946"/>
</linearGradient>
<linearGradient id="paint27_linear_3660_6121" x1="4.03364" y1="10.3841" x2="5.05337" y2="10.3841" gradientUnits="userSpaceOnUse">
<stop stop-color="#B77946" stop-opacity="0"/>
<stop offset="0.13" stop-color="#B77946" stop-opacity="0.26"/>
<stop offset="0.25" stop-color="#B77946" stop-opacity="0.49"/>
<stop offset="0.38" stop-color="#B77946" stop-opacity="0.67"/>
<stop offset="0.51" stop-color="#B77946" stop-opacity="0.82"/>
<stop offset="0.64" stop-color="#B77946" stop-opacity="0.92"/>
<stop offset="0.78" stop-color="#B77946" stop-opacity="0.98"/>
<stop offset="0.93" stop-color="#B77946"/>
</linearGradient>
<linearGradient id="paint28_linear_3660_6121" x1="2.16826" y1="6.74561" x2="5.4716" y2="10.7495" gradientUnits="userSpaceOnUse">
<stop offset="0.24" stop-color="#FFE794"/>
<stop offset="0.27" stop-color="#FBDA85"/>
<stop offset="0.32" stop-color="#F5C76E"/>
<stop offset="0.39" stop-color="#F0B95D"/>
<stop offset="0.46" stop-color="#EEB153"/>
<stop offset="0.54" stop-color="#EDAE50"/>
<stop offset="0.64" stop-color="#EEB052"/>
<stop offset="0.7" stop-color="#EFB65A"/>
<stop offset="0.74" stop-color="#F2C168"/>
<stop offset="0.78" stop-color="#F6D17B"/>
<stop offset="0.81" stop-color="#FCE594"/>
<stop offset="0.83" stop-color="#FFF1A3"/>
<stop offset="0.86" stop-color="#F7E398"/>
<stop offset="0.91" stop-color="#E1BF7C"/>
<stop offset="0.98" stop-color="#BE844F"/>
<stop offset="1" stop-color="#B77946"/>
</linearGradient>
<linearGradient id="paint29_linear_3660_6121" x1="2.01766" y1="7.48071" x2="5.25876" y2="11.0737" gradientUnits="userSpaceOnUse">
<stop offset="0.24" stop-color="#FFE794"/>
<stop offset="0.27" stop-color="#FBDA85"/>
<stop offset="0.32" stop-color="#F5C76E"/>
<stop offset="0.39" stop-color="#F0B95D"/>
<stop offset="0.46" stop-color="#EEB153"/>
<stop offset="0.54" stop-color="#EDAE50"/>
<stop offset="0.64" stop-color="#EEB052"/>
<stop offset="0.7" stop-color="#EFB65A"/>
<stop offset="0.74" stop-color="#F2C168"/>
<stop offset="0.78" stop-color="#F6D17B"/>
<stop offset="0.81" stop-color="#FCE594"/>
<stop offset="0.83" stop-color="#FFF1A3"/>
<stop offset="0.86" stop-color="#F7E398"/>
<stop offset="0.91" stop-color="#E1BF7C"/>
<stop offset="0.98" stop-color="#BE844F"/>
<stop offset="1" stop-color="#B77946"/>
</linearGradient>
<linearGradient id="paint30_linear_3660_6121" x1="3.226" y1="9.11842" x2="5.22476" y2="11.7707" gradientUnits="userSpaceOnUse">
<stop offset="0.24" stop-color="#FFE794"/>
<stop offset="0.27" stop-color="#FBDA85"/>
<stop offset="0.32" stop-color="#F5C76E"/>
<stop offset="0.39" stop-color="#F0B95D"/>
<stop offset="0.46" stop-color="#EEB153"/>
<stop offset="0.54" stop-color="#EDAE50"/>
<stop offset="0.64" stop-color="#EEB052"/>
<stop offset="0.7" stop-color="#EFB65A"/>
<stop offset="0.74" stop-color="#F2C168"/>
<stop offset="0.78" stop-color="#F6D17B"/>
<stop offset="0.81" stop-color="#FCE594"/>
<stop offset="0.83" stop-color="#FFF1A3"/>
<stop offset="0.86" stop-color="#F7E398"/>
<stop offset="0.91" stop-color="#E1BF7C"/>
<stop offset="0.98" stop-color="#BE844F"/>
<stop offset="1" stop-color="#B77946"/>
</linearGradient>
<linearGradient id="paint31_linear_3660_6121" x1="1.52344" y1="8.23691" x2="4.66161" y2="8.23691" gradientUnits="userSpaceOnUse">
<stop stop-color="#B77946"/>
<stop offset="0.18" stop-color="#FFF1A3"/>
<stop offset="0.19" stop-color="#F2DC93"/>
<stop offset="0.2" stop-color="#E0BE7B"/>
<stop offset="0.22" stop-color="#D1A468"/>
<stop offset="0.23" stop-color="#C59159"/>
<stop offset="0.25" stop-color="#BD834E"/>
<stop offset="0.27" stop-color="#B87B48"/>
<stop offset="0.31" stop-color="#B77946"/>
<stop offset="0.33" stop-color="#BF8148"/>
<stop offset="0.41" stop-color="#E0A24E"/>
<stop offset="0.46" stop-color="#EDAE50"/>
<stop offset="1" stop-color="#613F1B"/>
</linearGradient>
<linearGradient id="paint32_linear_3660_6121" x1="2.36328" y1="9.59457" x2="4.85993" y2="9.59457" gradientUnits="userSpaceOnUse">
<stop stop-color="#B77946"/>
<stop offset="0.18" stop-color="#FFF1A3"/>
<stop offset="0.19" stop-color="#F2DC93"/>
<stop offset="0.2" stop-color="#E0BE7B"/>
<stop offset="0.22" stop-color="#D1A468"/>
<stop offset="0.23" stop-color="#C59159"/>
<stop offset="0.25" stop-color="#BD834E"/>
<stop offset="0.27" stop-color="#B87B48"/>
<stop offset="0.31" stop-color="#B77946"/>
<stop offset="0.33" stop-color="#BF8148"/>
<stop offset="0.41" stop-color="#E0A24E"/>
<stop offset="0.46" stop-color="#EDAE50"/>
<stop offset="1" stop-color="#613F1B"/>
</linearGradient>
<linearGradient id="paint33_linear_3660_6121" x1="3.28125" y1="10.5091" x2="4.99755" y2="10.5091" gradientUnits="userSpaceOnUse">
<stop stop-color="#B77946"/>
<stop offset="0.18" stop-color="#FFF1A3"/>
<stop offset="0.19" stop-color="#F2DC93"/>
<stop offset="0.2" stop-color="#E0BE7B"/>
<stop offset="0.22" stop-color="#D1A468"/>
<stop offset="0.23" stop-color="#C59159"/>
<stop offset="0.25" stop-color="#BD834E"/>
<stop offset="0.27" stop-color="#B87B48"/>
<stop offset="0.31" stop-color="#B77946"/>
<stop offset="0.33" stop-color="#BF8148"/>
<stop offset="0.41" stop-color="#E0A24E"/>
<stop offset="0.46" stop-color="#EDAE50"/>
<stop offset="1" stop-color="#613F1B"/>
</linearGradient>
<radialGradient id="paint34_radial_3660_6121" cx="0" cy="0" r="1" gradientUnits="userSpaceOnUse" gradientTransform="translate(2.91031 7.26551) scale(1.29181 1.71811)">
<stop stop-color="#F3E8DE"/>
<stop offset="0.54" stop-color="#F6EEE7" stop-opacity="0.36"/>
<stop offset="0.57" stop-color="#F6EEE7" stop-opacity="0.33"/>
<stop offset="0.75" stop-color="#F7F0E9" stop-opacity="0.15"/>
<stop offset="0.88" stop-color="#F8F1EB" stop-opacity="0.04"/>
<stop offset="0.96" stop-color="#F8F1EB" stop-opacity="0"/>
</radialGradient>
<radialGradient id="paint35_radial_3660_6121" cx="0" cy="0" r="1" gradientUnits="userSpaceOnUse" gradientTransform="translate(3.46507 8.79814) scale(0.963872 1.28195)">
<stop stop-color="#F3E8DE"/>
<stop offset="0.54" stop-color="#F6EEE7" stop-opacity="0.36"/>
<stop offset="0.57" stop-color="#F6EEE7" stop-opacity="0.33"/>
<stop offset="0.75" stop-color="#F7F0E9" stop-opacity="0.15"/>
<stop offset="0.88" stop-color="#F8F1EB" stop-opacity="0.04"/>
<stop offset="0.96" stop-color="#F8F1EB" stop-opacity="0"/>
</radialGradient>
<radialGradient id="paint36_radial_3660_6121" cx="0" cy="0" r="1" gradientUnits="userSpaceOnUse" gradientTransform="translate(4.04386 10.0234) scale(0.644709 0.857463)">
<stop stop-color="#F3E8DE"/>
<stop offset="0.54" stop-color="#F6EEE7" stop-opacity="0.36"/>
<stop offset="0.57" stop-color="#F6EEE7" stop-opacity="0.33"/>
<stop offset="0.75" stop-color="#F7F0E9" stop-opacity="0.15"/>
<stop offset="0.88" stop-color="#F8F1EB" stop-opacity="0.04"/>
<stop offset="0.96" stop-color="#F8F1EB" stop-opacity="0"/>
</radialGradient>
<linearGradient id="paint37_linear_3660_6121" x1="12.4835" y1="8.30314" x2="11.2539" y2="8.30314" gradientUnits="userSpaceOnUse">
<stop stop-color="#B77946" stop-opacity="0"/>
<stop offset="0.13" stop-color="#B77946" stop-opacity="0.26"/>
<stop offset="0.25" stop-color="#B77946" stop-opacity="0.49"/>
<stop offset="0.38" stop-color="#B77946" stop-opacity="0.67"/>
<stop offset="0.51" stop-color="#B77946" stop-opacity="0.82"/>
<stop offset="0.64" stop-color="#B77946" stop-opacity="0.92"/>
<stop offset="0.78" stop-color="#B77946" stop-opacity="0.98"/>
<stop offset="0.93" stop-color="#B77946"/>
</linearGradient>
<linearGradient id="paint38_linear_3660_6121" x1="12.3089" y1="9.44718" x2="11.0586" y2="9.44718" gradientUnits="userSpaceOnUse">
<stop stop-color="#B77946" stop-opacity="0"/>
<stop offset="0.13" stop-color="#B77946" stop-opacity="0.26"/>
<stop offset="0.25" stop-color="#B77946" stop-opacity="0.49"/>
<stop offset="0.38" stop-color="#B77946" stop-opacity="0.67"/>
<stop offset="0.51" stop-color="#B77946" stop-opacity="0.82"/>
<stop offset="0.64" stop-color="#B77946" stop-opacity="0.92"/>
<stop offset="0.78" stop-color="#B77946" stop-opacity="0.98"/>
<stop offset="0.93" stop-color="#B77946"/>
</linearGradient>
<linearGradient id="paint39_linear_3660_6121" x1="11.9533" y1="10.3841" x2="10.9336" y2="10.3841" gradientUnits="userSpaceOnUse">
<stop stop-color="#B77946" stop-opacity="0"/>
<stop offset="0.13" stop-color="#B77946" stop-opacity="0.26"/>
<stop offset="0.25" stop-color="#B77946" stop-opacity="0.49"/>
<stop offset="0.38" stop-color="#B77946" stop-opacity="0.67"/>
<stop offset="0.51" stop-color="#B77946" stop-opacity="0.82"/>
<stop offset="0.64" stop-color="#B77946" stop-opacity="0.92"/>
<stop offset="0.78" stop-color="#B77946" stop-opacity="0.98"/>
<stop offset="0.93" stop-color="#B77946"/>
</linearGradient>
<linearGradient id="paint40_linear_3660_6121" x1="13.8161" y1="6.74561" x2="10.5127" y2="10.7495" gradientUnits="userSpaceOnUse">
<stop offset="0.24" stop-color="#FFE794"/>
<stop offset="0.27" stop-color="#FBDA85"/>
<stop offset="0.32" stop-color="#F5C76E"/>
<stop offset="0.39" stop-color="#F0B95D"/>
<stop offset="0.46" stop-color="#EEB153"/>
<stop offset="0.54" stop-color="#EDAE50"/>
<stop offset="0.64" stop-color="#EEB052"/>
<stop offset="0.7" stop-color="#EFB65A"/>
<stop offset="0.74" stop-color="#F2C168"/>
<stop offset="0.78" stop-color="#F6D17B"/>
<stop offset="0.81" stop-color="#FCE594"/>
<stop offset="0.83" stop-color="#FFF1A3"/>
<stop offset="0.86" stop-color="#F7E398"/>
<stop offset="0.91" stop-color="#E1BF7C"/>
<stop offset="0.98" stop-color="#BE844F"/>
<stop offset="1" stop-color="#B77946"/>
</linearGradient>
<linearGradient id="paint41_linear_3660_6121" x1="13.964" y1="7.48071" x2="10.7229" y2="11.0737" gradientUnits="userSpaceOnUse">
<stop offset="0.24" stop-color="#FFE794"/>
<stop offset="0.27" stop-color="#FBDA85"/>
<stop offset="0.32" stop-color="#F5C76E"/>
<stop offset="0.39" stop-color="#F0B95D"/>
<stop offset="0.46" stop-color="#EEB153"/>
<stop offset="0.54" stop-color="#EDAE50"/>
<stop offset="0.64" stop-color="#EEB052"/>
<stop offset="0.7" stop-color="#EFB65A"/>
<stop offset="0.74" stop-color="#F2C168"/>
<stop offset="0.78" stop-color="#F6D17B"/>
<stop offset="0.81" stop-color="#FCE594"/>
<stop offset="0.83" stop-color="#FFF1A3"/>
<stop offset="0.86" stop-color="#F7E398"/>
<stop offset="0.91" stop-color="#E1BF7C"/>
<stop offset="0.98" stop-color="#BE844F"/>
<stop offset="1" stop-color="#B77946"/>
</linearGradient>
<linearGradient id="paint42_linear_3660_6121" x1="12.7597" y1="9.11842" x2="10.761" y2="11.7707" gradientUnits="userSpaceOnUse">
<stop offset="0.24" stop-color="#FFE794"/>
<stop offset="0.27" stop-color="#FBDA85"/>
<stop offset="0.32" stop-color="#F5C76E"/>
<stop offset="0.39" stop-color="#F0B95D"/>
<stop offset="0.46" stop-color="#EEB153"/>
<stop offset="0.54" stop-color="#EDAE50"/>
<stop offset="0.64" stop-color="#EEB052"/>
<stop offset="0.7" stop-color="#EFB65A"/>
<stop offset="0.74" stop-color="#F2C168"/>
<stop offset="0.78" stop-color="#F6D17B"/>
<stop offset="0.81" stop-color="#FCE594"/>
<stop offset="0.83" stop-color="#FFF1A3"/>
<stop offset="0.86" stop-color="#F7E398"/>
<stop offset="0.91" stop-color="#E1BF7C"/>
<stop offset="0.98" stop-color="#BE844F"/>
<stop offset="1" stop-color="#B77946"/>
</linearGradient>
<linearGradient id="paint43_linear_3660_6121" x1="14.4624" y1="8.23691" x2="11.3242" y2="8.23691" gradientUnits="userSpaceOnUse">
<stop stop-color="#B77946"/>
<stop offset="0.18" stop-color="#FFF1A3"/>
<stop offset="0.19" stop-color="#F2DC93"/>
<stop offset="0.2" stop-color="#E0BE7B"/>
<stop offset="0.22" stop-color="#D1A468"/>
<stop offset="0.23" stop-color="#C59159"/>
<stop offset="0.25" stop-color="#BD834E"/>
<stop offset="0.27" stop-color="#B87B48"/>
<stop offset="0.31" stop-color="#B77946"/>
<stop offset="0.33" stop-color="#BF8148"/>
<stop offset="0.41" stop-color="#E0A24E"/>
<stop offset="0.46" stop-color="#EDAE50"/>
<stop offset="1" stop-color="#613F1B"/>
</linearGradient>
<linearGradient id="paint44_linear_3660_6121" x1="13.6177" y1="9.59457" x2="11.1211" y2="9.59457" gradientUnits="userSpaceOnUse">
<stop stop-color="#B77946"/>
<stop offset="0.18" stop-color="#FFF1A3"/>
<stop offset="0.19" stop-color="#F2DC93"/>
<stop offset="0.2" stop-color="#E0BE7B"/>
<stop offset="0.22" stop-color="#D1A468"/>
<stop offset="0.23" stop-color="#C59159"/>
<stop offset="0.25" stop-color="#BD834E"/>
<stop offset="0.27" stop-color="#B87B48"/>
<stop offset="0.31" stop-color="#B77946"/>
<stop offset="0.33" stop-color="#BF8148"/>
<stop offset="0.41" stop-color="#E0A24E"/>
<stop offset="0.46" stop-color="#EDAE50"/>
<stop offset="1" stop-color="#613F1B"/>
</linearGradient>
<linearGradient id="paint45_linear_3660_6121" x1="12.7007" y1="10.5091" x2="10.9844" y2="10.5091" gradientUnits="userSpaceOnUse">
<stop stop-color="#B77946"/>
<stop offset="0.18" stop-color="#FFF1A3"/>
<stop offset="0.19" stop-color="#F2DC93"/>
<stop offset="0.2" stop-color="#E0BE7B"/>
<stop offset="0.22" stop-color="#D1A468"/>
<stop offset="0.23" stop-color="#C59159"/>
<stop offset="0.25" stop-color="#BD834E"/>
<stop offset="0.27" stop-color="#B87B48"/>
<stop offset="0.31" stop-color="#B77946"/>
<stop offset="0.33" stop-color="#BF8148"/>
<stop offset="0.41" stop-color="#E0A24E"/>
<stop offset="0.46" stop-color="#EDAE50"/>
<stop offset="1" stop-color="#613F1B"/>
</linearGradient>
<radialGradient id="paint46_radial_3660_6121" cx="0" cy="0" r="1" gradientUnits="userSpaceOnUse" gradientTransform="translate(13.0744 7.26551) rotate(180) scale(1.29181 1.71811)">
<stop stop-color="#F3E8DE"/>
<stop offset="0.54" stop-color="#F6EEE7" stop-opacity="0.36"/>
<stop offset="0.57" stop-color="#F6EEE7" stop-opacity="0.33"/>
<stop offset="0.75" stop-color="#F7F0E9" stop-opacity="0.15"/>
<stop offset="0.88" stop-color="#F8F1EB" stop-opacity="0.04"/>
<stop offset="0.96" stop-color="#F8F1EB" stop-opacity="0"/>
</radialGradient>
<radialGradient id="paint47_radial_3660_6121" cx="0" cy="0" r="1" gradientUnits="userSpaceOnUse" gradientTransform="translate(12.5198 8.79814) rotate(180) scale(0.963872 1.28195)">
<stop stop-color="#F3E8DE"/>
<stop offset="0.54" stop-color="#F6EEE7" stop-opacity="0.36"/>
<stop offset="0.57" stop-color="#F6EEE7" stop-opacity="0.33"/>
<stop offset="0.75" stop-color="#F7F0E9" stop-opacity="0.15"/>
<stop offset="0.88" stop-color="#F8F1EB" stop-opacity="0.04"/>
<stop offset="0.96" stop-color="#F8F1EB" stop-opacity="0"/>
</radialGradient>
<radialGradient id="paint48_radial_3660_6121" cx="0" cy="0" r="1" gradientUnits="userSpaceOnUse" gradientTransform="translate(11.9431 10.0234) rotate(180) scale(0.644709 0.857463)">
<stop stop-color="#F3E8DE"/>
<stop offset="0.54" stop-color="#F6EEE7" stop-opacity="0.36"/>
<stop offset="0.57" stop-color="#F6EEE7" stop-opacity="0.33"/>
<stop offset="0.75" stop-color="#F7F0E9" stop-opacity="0.15"/>
<stop offset="0.88" stop-color="#F8F1EB" stop-opacity="0.04"/>
<stop offset="0.96" stop-color="#F8F1EB" stop-opacity="0"/>
</radialGradient>
</defs>
</svg>
