<svg width="60" height="60" viewBox="0 0 60 60" fill="none" xmlns="http://www.w3.org/2000/svg">
<circle cx="30" cy="30" r="30" fill="#006666"/>
<g clip-path="url(#clip0_2163_844)">
<path d="M20.0436 21.986C19.5295 21.9847 19.0239 21.8542 18.5733 21.6067C18.1225 21.3592 17.7414 21.0023 17.4645 20.569L12.2598 12.3545V22.023C12.2598 23.6441 12.9037 25.1988 14.05 26.345C15.1963 27.4913 16.751 28.1353 18.372 28.1353H20.1872L24.5399 38.1928L29.9761 21.986H20.0436Z" fill="white"/>
<path d="M42.4416 20.569C42.1654 21.0029 41.7843 21.3602 41.3336 21.6079C40.8827 21.8555 40.3768 21.9855 39.8625 21.986H29.9531L35.3894 38.1928L39.7421 28.1353H41.5572C43.1783 28.1353 44.733 27.4913 45.8793 26.345C47.0256 25.1988 47.6696 23.6441 47.6696 22.023V12.3545L42.4416 20.569Z" fill="white"/>
<path d="M26.484 42.7115L24.516 38.1689L22.6638 43.7256C22.5087 44.1868 22.4656 44.6783 22.5381 45.1595C22.6106 45.6407 22.7967 46.0977 23.0809 46.4927C23.3651 46.8877 23.7391 47.2094 24.1723 47.4312C24.6055 47.6529 25.0851 47.7684 25.5718 47.768H34.3698C34.856 47.7677 35.3351 47.6517 35.7676 47.4296C36.2002 47.2075 36.5738 46.8857 36.8573 46.4908C37.141 46.0958 37.3266 45.6392 37.3989 45.1584C37.4712 44.6776 37.4281 44.1864 37.2731 43.7256L35.4209 38.1689L33.4529 42.7115H26.484Z" fill="white"/>
</g>
<defs>
<clipPath id="clip0_2163_844">
<rect width="36" height="36" fill="white" transform="translate(12 12)"/>
</clipPath>
</defs>
</svg>
