<svg width="36" height="36" viewBox="0 0 36 36" fill="none" xmlns="http://www.w3.org/2000/svg">
<circle cx="18" cy="18" r="18" fill="white"/>
<path d="M18 24.8062C16.1949 24.8062 14.4637 24.0892 13.1873 22.8127C11.9108 21.5363 11.1938 19.8051 11.1938 18C11.1938 16.1949 11.9108 14.4637 13.1873 13.1873C14.4637 11.9108 16.1949 11.1937 18 11.1937V5.625C15.5525 5.625 13.1599 6.35078 11.1248 7.71056C9.08976 9.07034 7.50363 11.0031 6.567 13.2643C5.63036 15.5255 5.3853 18.0137 5.86279 20.4142C6.34028 22.8148 7.51888 25.0198 9.24955 26.7504C10.9802 28.4811 13.1852 29.6597 15.5858 30.1372C17.9863 30.6147 20.4745 30.3696 22.7357 29.433C24.9969 28.4964 26.9297 26.9102 28.2894 24.8752C29.6492 22.8401 30.375 20.4475 30.375 18H24.8063C24.8063 19.8051 24.0892 21.5363 22.8127 22.8127C21.5363 24.0892 19.8051 24.8062 18 24.8062Z" fill="#2354E6"/>
<path d="M24.8062 11.1938H18V18.0001H24.8062V11.1938Z" fill="#17E6A1"/>
</svg>
