<svg width="71" height="70" viewBox="0 0 71 70" fill="none" xmlns="http://www.w3.org/2000/svg">
<path d="M28.7422 4.04145C33.0738 1.54059 38.4106 1.54059 42.7422 4.04145L59.0531 13.4585C63.3847 15.9594 66.0531 20.5812 66.0531 25.5829V44.4171C66.0531 49.4188 63.3847 54.0406 59.0531 56.5415L42.7422 65.9585C38.4106 68.4594 33.0738 68.4594 28.7422 65.9585L12.4313 56.5415C8.09969 54.0406 5.4313 49.4188 5.4313 44.4171V25.5829C5.4313 20.5812 8.09968 15.9594 12.4313 13.4585L28.7422 4.04145Z" fill="#6B9AAA"/>
<mask id="mask0_258_4347" style="mask-type:alpha" maskUnits="userSpaceOnUse" x="5" y="2" width="62" height="66">
<path d="M28.7422 4.04145C33.0738 1.54059 38.4106 1.54059 42.7422 4.04145L59.0531 13.4585C63.3847 15.9594 66.0531 20.5812 66.0531 25.5829V44.4171C66.0531 49.4188 63.3847 54.0406 59.0531 56.5415L42.7422 65.9585C38.4106 68.4594 33.0738 68.4594 28.7422 65.9585L12.4313 56.5415C8.09969 54.0406 5.4313 49.4188 5.4313 44.4171V25.5829C5.4313 20.5812 8.09968 15.9594 12.4313 13.4585L28.7422 4.04145Z" fill="#C4C4C4"/>
</mask>
<g mask="url(#mask0_258_4347)">
<rect x="0.337891" y="52.1814" width="75.4946" height="25.6484" transform="rotate(-30.5 0.337891 52.1814)" fill="white" fill-opacity="0.5"/>
<rect x="-3.30469" y="32.897" width="66.4111" height="12.0547" transform="rotate(-30.5 -3.30469 32.897)" fill="white" fill-opacity="0.5"/>
</g>
<path d="M29.3672 5.12398C33.312 2.84642 38.1723 2.84642 42.1172 5.12398L58.4281 14.5411C62.3729 16.8186 64.8031 21.0278 64.8031 25.5829V44.4171C64.8031 48.9722 62.3729 53.1814 58.4281 55.4589L42.1172 64.876C38.1723 67.1536 33.312 67.1536 29.3672 64.876L13.0563 55.4589C9.11144 53.1814 6.6813 48.9722 6.6813 44.4171V25.5829C6.6813 21.0278 9.11144 16.8186 13.0563 14.5411L29.3672 5.12398Z" stroke="#6B9AAA" stroke-width="2.5"/>
<path d="M33.9451 7.22404C35.1827 6.5095 36.7075 6.50951 37.9451 7.22404L58.8246 19.2788C60.0622 19.9933 60.8246 21.3138 60.8246 22.7429V46.8524C60.8246 48.2815 60.0622 49.602 58.8246 50.3165L37.9451 62.3713C36.7075 63.0858 35.1827 63.0858 33.9451 62.3713L13.0657 50.3165C11.8281 49.602 11.0657 48.2815 11.0657 46.8524V22.7429C11.0657 21.3138 11.8281 19.9933 13.0657 19.2788L33.9451 7.22404Z" fill="url(#paint0_linear_258_4347)"/>
<path d="M34.5701 8.30657C35.421 7.81533 36.4693 7.81533 37.3201 8.30657L58.1996 20.3613C59.0504 20.8526 59.5746 21.7604 59.5746 22.7429V46.8524C59.5746 47.8349 59.0504 48.7427 58.1996 49.234L37.3201 61.2887C36.4693 61.78 35.421 61.78 34.5701 61.2887L13.6907 49.234C12.8398 48.7427 12.3157 47.8349 12.3157 46.8524V22.7429C12.3157 21.7604 12.8398 20.8526 13.6907 20.3613L34.5701 8.30657Z" stroke="white" stroke-opacity="0.5" stroke-width="2.5"/>
<defs>
<linearGradient id="paint0_linear_258_4347" x1="29.7422" y1="38" x2="47.2422" y2="73" gradientUnits="userSpaceOnUse">
<stop stop-color="#96AFB8"/>
<stop offset="1" stop-color="#334A52"/>
</linearGradient>
</defs>
</svg>
