<svg width="13" height="12" viewBox="0 0 13 12" fill="none" xmlns="http://www.w3.org/2000/svg">
<g id="dollar-circle-list">
<path id="Icon" d="M3.16406 4H2.16406M3.16406 8H2.16406M3.16406 6H1.66406M3.66406 2.25777C4.37911 1.77914 5.23899 1.5 6.16406 1.5C8.64934 1.5 10.6641 3.51472 10.6641 6C10.6641 8.48528 8.64934 10.5 6.16406 10.5C5.23899 10.5 4.37911 10.2209 3.66406 9.74223M7.16406 4.74995C6.91406 4.68795 6.50661 4.68566 6.16406 4.68795M6.16406 4.68795C6.04952 4.68871 6.11877 4.68384 5.96406 4.68795C5.56035 4.70054 5.16489 4.86833 5.16406 5.3437C5.16319 5.85012 5.66406 5.99995 6.16406 5.99995C6.66406 5.99995 7.16406 6.11555 7.16406 6.6562C7.16406 7.0625 6.76031 7.24053 6.25711 7.29948C6.22484 7.29948 6.19391 7.29956 6.16406 7.29969M6.16406 4.68795L6.16406 4M6.16406 7.29969C5.82396 7.30108 5.62372 7.30741 5.16406 7.24995M6.16406 7.29969L6.16406 8" stroke="#B8B8E0" stroke-width="0.6" stroke-linecap="round" stroke-linejoin="round"/>
</g>
</svg>
