<svg xmlns="http://www.w3.org/2000/svg" width="12" height="12" viewBox="0 0 12 12" fill="none">
  <path d="M1 5.5C1 3.61438 1 2.67157 1.58579 2.08579C2.17157 1.5 3.11438 1.5 5 1.5H7C8.88562 1.5 9.82843 1.5 10.4142 2.08579C11 2.67157 11 3.61438 11 5.5V7C11 8.88562 11 9.82843 10.4142 10.4142C9.82843 11 8.88562 11 7 11H5C3.11438 11 2.17157 11 1.58579 10.4142C1 9.82843 1 8.88562 1 7V5.5Z" stroke="#7DD9AF"/>
  <path d="M3.5 0.5V1.5" stroke="#7DD9AF" stroke-linecap="round" stroke-linejoin="round"/>
  <path d="M8.5 0.5V1.5" stroke="#7DD9AF" stroke-linecap="round" stroke-linejoin="round"/>
  <path d="M1 4H11" stroke="#7DD9AF" stroke-linecap="round" stroke-linejoin="round"/>
  <path d="M3.25 6.5H3.75" stroke="#7DD9AF" stroke-linecap="round" stroke-linejoin="round"/>
  <path d="M5.75 6.5H6.25" stroke="#7DD9AF" stroke-linecap="round" stroke-linejoin="round"/>
  <path d="M8.25 6.5H8.75" stroke="#7DD9AF" stroke-linecap="round" stroke-linejoin="round"/>
  <path d="M3.25 8.5H3.75" stroke="#7DD9AF" stroke-linecap="round" stroke-linejoin="round"/>
  <path d="M5.75 8.5H6.25" stroke="#7DD9AF" stroke-linecap="round" stroke-linejoin="round"/>
  <path d="M8.25 8.5H8.75" stroke="#7DD9AF" stroke-linecap="round" stroke-linejoin="round"/>
</svg>