<svg width="24" height="24" viewBox="0 0 24 24" fill="none" xmlns="http://www.w3.org/2000/svg">
<g id="calendar-days">
<path id="Icon" d="M3 8C2.44772 8 2 8.44772 2 9C2 9.55228 2.44772 10 3 10V8ZM21 10C21.5523 10 22 9.55228 22 9C22 8.44772 21.5523 8 21 8V10ZM4.09202 20.782L4.54601 19.891L4.09202 20.782ZM3.21799 19.908L4.10899 19.454L3.21799 19.908ZM20.782 19.908L19.891 19.454L20.782 19.908ZM19.908 20.782L19.454 19.891L19.908 20.782ZM19.908 5.21799L19.454 6.10899L19.908 5.21799ZM20.782 6.09202L19.891 6.54601L20.782 6.09202ZM4.09202 5.21799L4.54601 6.10899L4.09202 5.21799ZM3.21799 6.09202L4.10899 6.54601L3.21799 6.09202ZM8 3C8 2.44772 7.55228 2 7 2C6.44772 2 6 2.44772 6 3H8ZM6 5C6 5.55228 6.44772 6 7 6C7.55228 6 8 5.55228 8 5H6ZM18 3C18 2.44772 17.5523 2 17 2C16.4477 2 16 2.44772 16 3H18ZM16 5C16 5.55228 16.4477 6 17 6C17.5523 6 18 5.55228 18 5H16ZM6 11C5.44772 11 5 11.4477 5 12C5 12.5523 5.44772 13 6 13V11ZM8 13C8.55228 13 9 12.5523 9 12C9 11.4477 8.55228 11 8 11V13ZM11 11C10.4477 11 10 11.4477 10 12C10 12.5523 10.4477 13 11 13V11ZM13 13C13.5523 13 14 12.5523 14 12C14 11.4477 13.5523 11 13 11V13ZM16 11C15.4477 11 15 11.4477 15 12C15 12.5523 15.4477 13 16 13V11ZM18 13C18.5523 13 19 12.5523 19 12C19 11.4477 18.5523 11 18 11V13ZM6 14C5.44772 14 5 14.4477 5 15C5 15.5523 5.44772 16 6 16V14ZM8 16C8.55228 16 9 15.5523 9 15C9 14.4477 8.55228 14 8 14V16ZM11 14C10.4477 14 10 14.4477 10 15C10 15.5523 10.4477 16 11 16V14ZM13 16C13.5523 16 14 15.5523 14 15C14 14.4477 13.5523 14 13 14V16ZM16 14C15.4477 14 15 14.4477 15 15C15 15.5523 15.4477 16 16 16V14ZM18 16C18.5523 16 19 15.5523 19 15C19 14.4477 18.5523 14 18 14V16ZM6 17C5.44772 17 5 17.4477 5 18C5 18.5523 5.44772 19 6 19V17ZM8 19C8.55228 19 9 18.5523 9 18C9 17.4477 8.55228 17 8 17V19ZM11 17C10.4477 17 10 17.4477 10 18C10 18.5523 10.4477 19 11 19V17ZM13 19C13.5523 19 14 18.5523 14 18C14 17.4477 13.5523 17 13 17V19ZM16 17C15.4477 17 15 17.4477 15 18C15 18.5523 15.4477 19 16 19V17ZM18 19C18.5523 19 19 18.5523 19 18C19 17.4477 18.5523 17 18 17V19ZM3 10H21V8H3V10ZM6.2 6H17.8V4H6.2V6ZM20 8.2V17.8H22V8.2H20ZM17.8 20H6.2V22H17.8V20ZM4 17.8V8.2H2V17.8H4ZM6.2 20C5.62345 20 5.25117 19.9992 4.96784 19.9761C4.69617 19.9539 4.59545 19.9162 4.54601 19.891L3.63803 21.673C4.01641 21.8658 4.40963 21.9371 4.80497 21.9694C5.18864 22.0008 5.65645 22 6.2 22V20ZM2 17.8C2 18.3436 1.99922 18.8114 2.03057 19.195C2.06287 19.5904 2.13419 19.9836 2.32698 20.362L4.10899 19.454C4.0838 19.4045 4.04612 19.3038 4.02393 19.0322C4.00078 18.7488 4 18.3766 4 17.8H2ZM4.54601 19.891C4.35785 19.7951 4.20487 19.6422 4.10899 19.454L2.32698 20.362C2.6146 20.9265 3.07354 21.3854 3.63803 21.673L4.54601 19.891ZM20 17.8C20 18.3766 19.9992 18.7488 19.9761 19.0322C19.9539 19.3038 19.9162 19.4045 19.891 19.454L21.673 20.362C21.8658 19.9836 21.9371 19.5904 21.9694 19.195C22.0008 18.8114 22 18.3436 22 17.8H20ZM17.8 22C18.3436 22 18.8114 22.0008 19.195 21.9694C19.5904 21.9371 19.9836 21.8658 20.362 21.673L19.454 19.891C19.4045 19.9162 19.3038 19.9539 19.0322 19.9761C18.7488 19.9992 18.3766 20 17.8 20V22ZM19.891 19.454C19.7951 19.6422 19.6422 19.7951 19.454 19.891L20.362 21.673C20.9265 21.3854 21.3854 20.9265 21.673 20.362L19.891 19.454ZM17.8 6C18.3766 6 18.7488 6.00078 19.0322 6.02393C19.3038 6.04612 19.4045 6.0838 19.454 6.10899L20.362 4.32698C19.9836 4.13419 19.5904 4.06287 19.195 4.03057C18.8114 3.99922 18.3436 4 17.8 4V6ZM22 8.2C22 7.65645 22.0008 7.18864 21.9694 6.80497C21.9371 6.40963 21.8658 6.01641 21.673 5.63803L19.891 6.54601C19.9162 6.59545 19.9539 6.69617 19.9761 6.96784C19.9992 7.25117 20 7.62345 20 8.2H22ZM19.454 6.10899C19.6422 6.20487 19.7951 6.35785 19.891 6.54601L21.673 5.63803C21.3854 5.07354 20.9265 4.6146 20.362 4.32698L19.454 6.10899ZM6.2 4C5.65645 4 5.18864 3.99922 4.80497 4.03057C4.40963 4.06287 4.01641 4.13419 3.63803 4.32698L4.54601 6.10899C4.59545 6.0838 4.69617 6.04612 4.96784 6.02393C5.25117 6.00078 5.62345 6 6.2 6V4ZM4 8.2C4 7.62345 4.00078 7.25117 4.02393 6.96784C4.04612 6.69617 4.0838 6.59545 4.10899 6.54601L2.32698 5.63803C2.13419 6.01641 2.06287 6.40963 2.03057 6.80497C1.99922 7.18864 2 7.65645 2 8.2H4ZM3.63803 4.32698C3.07354 4.6146 2.6146 5.07354 2.32698 5.63803L4.10899 6.54601C4.20487 6.35785 4.35785 6.20487 4.54601 6.10899L3.63803 4.32698ZM6 3V5H8V3H6ZM16 3V5H18V3H16ZM6 13H8V11H6V13ZM11 13H13V11H11V13ZM16 13H18V11H16V13ZM6 16H8V14H6V16ZM11 16H13V14H11V16ZM16 16H18V14H16V16ZM6 19H8V17H6V19ZM11 19H13V17H11V19ZM16 19H18V17H16V19Z" fill="#7DD9AF"/>
</g>
</svg>
