<svg width="10" height="10" viewBox="0 0 10 10" fill="none" xmlns="http://www.w3.org/2000/svg">
<g clip-path="url(#clip0_1871_13694)">
<path d="M1.25 3.45C1.08431 3.45 0.95 3.58431 0.95 3.75C0.95 3.91569 1.08431 4.05 1.25 4.05V3.45ZM8.75 4.05C8.91569 4.05 9.05 3.91569 9.05 3.75C9.05 3.58431 8.91569 3.45 8.75 3.45V4.05ZM1.70501 8.65917L1.84121 8.39187L1.70501 8.65917ZM1.34083 8.29499L1.60813 8.15879L1.34083 8.29499ZM8.65917 8.29499L8.39187 8.15879L8.65917 8.29499ZM8.29499 8.65917L8.15879 8.39187L8.29499 8.65917ZM8.29499 2.17416L8.15879 2.44146L8.29499 2.17416ZM8.65917 2.53834L8.39187 2.67454L8.65917 2.53834ZM1.70501 2.17416L1.84121 2.44146L1.70501 2.17416ZM1.34083 2.53834L1.60813 2.67454L1.34083 2.53834ZM3.21667 1.25C3.21667 1.08431 3.08235 0.95 2.91667 0.95C2.75098 0.95 2.61667 1.08431 2.61667 1.25H3.21667ZM2.61667 2.08333C2.61667 2.24902 2.75098 2.38333 2.91667 2.38333C3.08235 2.38333 3.21667 2.24902 3.21667 2.08333H2.61667ZM7.38333 1.25C7.38333 1.08431 7.24902 0.95 7.08333 0.95C6.91765 0.95 6.78333 1.08431 6.78333 1.25H7.38333ZM6.78333 2.08333C6.78333 2.24902 6.91765 2.38333 7.08333 2.38333C7.24902 2.38333 7.38333 2.24902 7.38333 2.08333H6.78333ZM2.5 4.7C2.33431 4.7 2.2 4.83431 2.2 5C2.2 5.16569 2.33431 5.3 2.5 5.3V4.7ZM3.33333 5.3C3.49902 5.3 3.63333 5.16569 3.63333 5C3.63333 4.83431 3.49902 4.7 3.33333 4.7V5.3ZM4.58333 4.7C4.41765 4.7 4.28333 4.83431 4.28333 5C4.28333 5.16569 4.41765 5.3 4.58333 5.3V4.7ZM5.41667 5.3C5.58235 5.3 5.71667 5.16569 5.71667 5C5.71667 4.83431 5.58235 4.7 5.41667 4.7V5.3ZM6.66667 4.7C6.50098 4.7 6.36667 4.83431 6.36667 5C6.36667 5.16569 6.50098 5.3 6.66667 5.3V4.7ZM7.5 5.3C7.66569 5.3 7.8 5.16569 7.8 5C7.8 4.83431 7.66569 4.7 7.5 4.7V5.3ZM2.5 5.95C2.33431 5.95 2.2 6.08431 2.2 6.25C2.2 6.41569 2.33431 6.55 2.5 6.55V5.95ZM3.33333 6.55C3.49902 6.55 3.63333 6.41569 3.63333 6.25C3.63333 6.08431 3.49902 5.95 3.33333 5.95V6.55ZM4.58333 5.95C4.41765 5.95 4.28333 6.08431 4.28333 6.25C4.28333 6.41569 4.41765 6.55 4.58333 6.55V5.95ZM5.41667 6.55C5.58235 6.55 5.71667 6.41569 5.71667 6.25C5.71667 6.08431 5.58235 5.95 5.41667 5.95V6.55ZM6.66667 5.95C6.50098 5.95 6.36667 6.08431 6.36667 6.25C6.36667 6.41569 6.50098 6.55 6.66667 6.55V5.95ZM7.5 6.55C7.66569 6.55 7.8 6.41569 7.8 6.25C7.8 6.08431 7.66569 5.95 7.5 5.95V6.55ZM2.5 7.2C2.33431 7.2 2.2 7.33431 2.2 7.5C2.2 7.66569 2.33431 7.8 2.5 7.8V7.2ZM3.33333 7.8C3.49902 7.8 3.63333 7.66569 3.63333 7.5C3.63333 7.33431 3.49902 7.2 3.33333 7.2V7.8ZM4.58333 7.2C4.41765 7.2 4.28333 7.33431 4.28333 7.5C4.28333 7.66569 4.41765 7.8 4.58333 7.8V7.2ZM5.41667 7.8C5.58235 7.8 5.71667 7.66569 5.71667 7.5C5.71667 7.33431 5.58235 7.2 5.41667 7.2V7.8ZM6.66667 7.2C6.50098 7.2 6.36667 7.33431 6.36667 7.5C6.36667 7.66569 6.50098 7.8 6.66667 7.8V7.2ZM7.5 7.8C7.66569 7.8 7.8 7.66569 7.8 7.5C7.8 7.33431 7.66569 7.2 7.5 7.2V7.8ZM1.25 4.05H8.75V3.45H1.25V4.05ZM2.58333 2.38333H7.41667V1.78333H2.58333V2.38333ZM8.45 3.41667V7.41667H9.05V3.41667H8.45ZM7.41667 8.45H2.58333V9.05H7.41667V8.45ZM1.55 7.41667V3.41667H0.95V7.41667H1.55ZM2.58333 8.45C2.34503 8.45 2.18434 8.44977 2.06043 8.43964C1.94002 8.4298 1.88099 8.41214 1.84121 8.39187L1.56881 8.92647C1.70728 8.99703 1.85406 9.02478 2.01157 9.03765C2.16558 9.05023 2.35493 9.05 2.58333 9.05V8.45ZM0.95 7.41667C0.95 7.64507 0.949767 7.83442 0.96235 7.98843C0.975219 8.14594 1.00297 8.29272 1.07353 8.43119L1.60813 8.15879C1.58786 8.11901 1.57019 8.05998 1.56036 7.93957C1.55023 7.81566 1.55 7.65497 1.55 7.41667H0.95ZM1.84121 8.39187C1.74085 8.34074 1.65926 8.25915 1.60813 8.15879L1.07353 8.43119C1.18218 8.64444 1.35556 8.81782 1.56881 8.92647L1.84121 8.39187ZM8.45 7.41667C8.45 7.65497 8.44977 7.81566 8.43964 7.93957C8.4298 8.05998 8.41214 8.11901 8.39187 8.15879L8.92647 8.43119C8.99703 8.29272 9.02478 8.14594 9.03765 7.98843C9.05023 7.83442 9.05 7.64507 9.05 7.41667H8.45ZM7.41667 9.05C7.64507 9.05 7.83442 9.05023 7.98843 9.03765C8.14594 9.02478 8.29272 8.99703 8.43119 8.92647L8.15879 8.39187C8.11901 8.41214 8.05998 8.4298 7.93957 8.43964C7.81566 8.44977 7.65497 8.45 7.41667 8.45V9.05ZM8.39187 8.15879C8.34074 8.25915 8.25915 8.34074 8.15879 8.39187L8.43119 8.92647C8.64444 8.81782 8.81782 8.64444 8.92647 8.43119L8.39187 8.15879ZM7.41667 2.38333C7.65497 2.38333 7.81566 2.38357 7.93957 2.39369C8.05998 2.40353 8.11901 2.42119 8.15879 2.44146L8.43119 1.90686C8.29272 1.83631 8.14594 1.80855 7.98843 1.79568C7.83442 1.7831 7.64507 1.78333 7.41667 1.78333V2.38333ZM9.05 3.41667C9.05 3.18826 9.05023 2.99892 9.03765 2.84491C9.02478 2.68739 8.99703 2.54061 8.92647 2.40214L8.39187 2.67454C8.41214 2.71433 8.4298 2.77336 8.43964 2.89376C8.44977 3.01767 8.45 3.17836 8.45 3.41667H9.05ZM8.15879 2.44146C8.25915 2.4926 8.34074 2.57419 8.39187 2.67454L8.92647 2.40214C8.81782 2.18889 8.64444 2.01552 8.43119 1.90686L8.15879 2.44146ZM2.58333 1.78333C2.35493 1.78333 2.16558 1.7831 2.01157 1.79568C1.85406 1.80855 1.70728 1.83631 1.56881 1.90686L1.84121 2.44146C1.88099 2.42119 1.94002 2.40353 2.06043 2.39369C2.18434 2.38357 2.34503 2.38333 2.58333 2.38333V1.78333ZM1.55 3.41667C1.55 3.17836 1.55023 3.01767 1.56036 2.89376C1.57019 2.77336 1.58786 2.71433 1.60813 2.67454L1.07353 2.40214C1.00297 2.54061 0.975219 2.68739 0.96235 2.84491C0.949767 2.99892 0.95 3.18826 0.95 3.41667H1.55ZM1.56881 1.90686C1.35556 2.01552 1.18218 2.18889 1.07353 2.40214L1.60813 2.67454C1.65926 2.57419 1.74085 2.4926 1.84121 2.44146L1.56881 1.90686ZM2.61667 1.25V2.08333H3.21667V1.25H2.61667ZM6.78333 1.25V2.08333H7.38333V1.25H6.78333ZM2.5 5.3H3.33333V4.7H2.5V5.3ZM4.58333 5.3H5.41667V4.7H4.58333V5.3ZM6.66667 5.3H7.5V4.7H6.66667V5.3ZM2.5 6.55H3.33333V5.95H2.5V6.55ZM4.58333 6.55H5.41667V5.95H4.58333V6.55ZM6.66667 6.55H7.5V5.95H6.66667V6.55ZM2.5 7.8H3.33333V7.2H2.5V7.8ZM4.58333 7.8H5.41667V7.2H4.58333V7.8ZM6.66667 7.8H7.5V7.2H6.66667V7.8Z" fill="#EC8123"/>
</g>
<defs>
<clipPath id="clip0_1871_13694">
<rect width="10" height="10" fill="white"/>
</clipPath>
</defs>
</svg>
