<svg width="12" height="12" viewBox="0 0 12 12" fill="none" xmlns="http://www.w3.org/2000/svg">
<g clip-path="url(#clip0_1871_13698)">
<path d="M11.9973 9.19226C11.9973 9.19226 9.70996 6.17688 7.76499 4.23229C5.82005 2.28735 2.80469 0 2.80469 0C2.80469 0 5.99437 0.0076925 8.99217 3.00511C11.9896 6.00256 11.9973 9.19226 11.9973 9.19226Z" fill="#EC8123"/>
<path d="M8.93407 2.00537L0.219727 10.7197C-0.0732422 11.0127 -0.0732422 11.4873 0.219727 11.7803C0.512696 12.0733 0.987304 12.0733 1.28027 11.7803L9.99462 3.06594L8.93407 2.00537Z" fill="#EC8123"/>
<path d="M6.63479 4.30325L7.69531 5.36377L9.99324 3.06584L8.93272 2.00532L6.63479 4.30325Z" fill="#EC8123"/>
<path d="M8.58298 3.773C8.48556 3.87077 8.327 3.87042 8.2296 3.773C8.1318 3.67522 8.1318 3.51701 8.2296 3.41924C8.327 3.32184 8.48556 3.32184 8.58298 3.41924C8.68078 3.51701 8.68078 3.67522 8.58298 3.773Z" fill="#EC8123"/>
<path d="M11.2134 11.5001H5.28658L5.96335 10.0564L8.22761 8.59364L10.5376 10.0584L11.2134 11.5001Z" fill="#EC8123" stroke="#EC8123"/>
</g>
<defs>
<clipPath id="clip0_1871_13698">
<rect width="12" height="12" fill="white"/>
</clipPath>
</defs>
</svg>
