<svg width="11" height="10" viewBox="0 0 11 10" fill="none" xmlns="http://www.w3.org/2000/svg">
<g id="calendar-days">
<path id="Icon" d="M1.41406 3.45C1.24838 3.45 1.11406 3.58431 1.11406 3.75C1.11406 3.91569 1.24838 4.05 1.41406 4.05V3.45ZM8.91406 4.05C9.07975 4.05 9.21406 3.91569 9.21406 3.75C9.21406 3.58431 9.07975 3.45 8.91406 3.45V4.05ZM1.86907 8.65917L2.00527 8.39187L1.86907 8.65917ZM1.50489 8.29499L1.77219 8.15879L1.50489 8.29499ZM8.82323 8.29499L8.55593 8.15879L8.82323 8.29499ZM8.45905 8.65917L8.32286 8.39187L8.45905 8.65917ZM8.45905 2.17416L8.32286 2.44146L8.45905 2.17416ZM8.82323 2.53834L8.55593 2.67454L8.82323 2.53834ZM1.86907 2.17416L2.00527 2.44146L1.86907 2.17416ZM1.50489 2.53834L1.77219 2.67454L1.50489 2.53834ZM3.38073 1.25C3.38073 1.08431 3.24641 0.95 3.08073 0.95C2.91504 0.95 2.78073 1.08431 2.78073 1.25H3.38073ZM2.78073 2.08333C2.78073 2.24902 2.91504 2.38333 3.08073 2.38333C3.24641 2.38333 3.38073 2.24902 3.38073 2.08333H2.78073ZM7.5474 1.25C7.5474 1.08431 7.41308 0.95 7.2474 0.95C7.08171 0.95 6.9474 1.08431 6.9474 1.25H7.5474ZM6.9474 2.08333C6.9474 2.24902 7.08171 2.38333 7.2474 2.38333C7.41308 2.38333 7.5474 2.24902 7.5474 2.08333H6.9474ZM2.66406 4.7C2.49838 4.7 2.36406 4.83431 2.36406 5C2.36406 5.16569 2.49838 5.3 2.66406 5.3V4.7ZM3.4974 5.3C3.66308 5.3 3.7974 5.16569 3.7974 5C3.7974 4.83431 3.66308 4.7 3.4974 4.7V5.3ZM4.7474 4.7C4.58171 4.7 4.4474 4.83431 4.4474 5C4.4474 5.16569 4.58171 5.3 4.7474 5.3V4.7ZM5.58073 5.3C5.74641 5.3 5.88073 5.16569 5.88073 5C5.88073 4.83431 5.74641 4.7 5.58073 4.7V5.3ZM6.83073 4.7C6.66504 4.7 6.53073 4.83431 6.53073 5C6.53073 5.16569 6.66504 5.3 6.83073 5.3V4.7ZM7.66406 5.3C7.82975 5.3 7.96406 5.16569 7.96406 5C7.96406 4.83431 7.82975 4.7 7.66406 4.7V5.3ZM2.66406 5.95C2.49838 5.95 2.36406 6.08431 2.36406 6.25C2.36406 6.41569 2.49838 6.55 2.66406 6.55V5.95ZM3.4974 6.55C3.66308 6.55 3.7974 6.41569 3.7974 6.25C3.7974 6.08431 3.66308 5.95 3.4974 5.95V6.55ZM4.7474 5.95C4.58171 5.95 4.4474 6.08431 4.4474 6.25C4.4474 6.41569 4.58171 6.55 4.7474 6.55V5.95ZM5.58073 6.55C5.74641 6.55 5.88073 6.41569 5.88073 6.25C5.88073 6.08431 5.74641 5.95 5.58073 5.95V6.55ZM6.83073 5.95C6.66504 5.95 6.53073 6.08431 6.53073 6.25C6.53073 6.41569 6.66504 6.55 6.83073 6.55V5.95ZM7.66406 6.55C7.82975 6.55 7.96406 6.41569 7.96406 6.25C7.96406 6.08431 7.82975 5.95 7.66406 5.95V6.55ZM2.66406 7.2C2.49838 7.2 2.36406 7.33431 2.36406 7.5C2.36406 7.66569 2.49838 7.8 2.66406 7.8V7.2ZM3.4974 7.8C3.66308 7.8 3.7974 7.66569 3.7974 7.5C3.7974 7.33431 3.66308 7.2 3.4974 7.2V7.8ZM4.7474 7.2C4.58171 7.2 4.4474 7.33431 4.4474 7.5C4.4474 7.66569 4.58171 7.8 4.7474 7.8V7.2ZM5.58073 7.8C5.74641 7.8 5.88073 7.66569 5.88073 7.5C5.88073 7.33431 5.74641 7.2 5.58073 7.2V7.8ZM6.83073 7.2C6.66504 7.2 6.53073 7.33431 6.53073 7.5C6.53073 7.66569 6.66504 7.8 6.83073 7.8V7.2ZM7.66406 7.8C7.82975 7.8 7.96406 7.66569 7.96406 7.5C7.96406 7.33431 7.82975 7.2 7.66406 7.2V7.8ZM1.41406 4.05H8.91406V3.45H1.41406V4.05ZM2.7474 2.38333H7.58073V1.78333H2.7474V2.38333ZM8.61406 3.41667V7.41667H9.21406V3.41667H8.61406ZM7.58073 8.45H2.7474V9.05H7.58073V8.45ZM1.71406 7.41667V3.41667H1.11406V7.41667H1.71406ZM2.7474 8.45C2.50909 8.45 2.3484 8.44977 2.22449 8.43964C2.10409 8.4298 2.04506 8.41214 2.00527 8.39187L1.73287 8.92647C1.87134 8.99703 2.01812 9.02478 2.17563 9.03765C2.32964 9.05023 2.51899 9.05 2.7474 9.05V8.45ZM1.11406 7.41667C1.11406 7.64507 1.11383 7.83442 1.12641 7.98843C1.13928 8.14594 1.16703 8.29272 1.23759 8.43119L1.77219 8.15879C1.75192 8.11901 1.73426 8.05998 1.72442 7.93957C1.7143 7.81566 1.71406 7.65497 1.71406 7.41667H1.11406ZM2.00527 8.39187C1.90491 8.34074 1.82332 8.25915 1.77219 8.15879L1.23759 8.43119C1.34625 8.64444 1.51962 8.81782 1.73287 8.92647L2.00527 8.39187ZM8.61406 7.41667C8.61406 7.65497 8.61383 7.81566 8.6037 7.93957C8.59387 8.05998 8.57621 8.11901 8.55593 8.15879L9.09054 8.43119C9.16109 8.29272 9.18884 8.14594 9.20171 7.98843C9.2143 7.83442 9.21406 7.64507 9.21406 7.41667H8.61406ZM7.58073 9.05C7.80913 9.05 7.99848 9.05023 8.15249 9.03765C8.31 9.02478 8.45678 8.99703 8.59525 8.92647L8.32286 8.39187C8.28307 8.41214 8.22404 8.4298 8.10363 8.43964C7.97972 8.44977 7.81903 8.45 7.58073 8.45V9.05ZM8.55593 8.15879C8.5048 8.25915 8.42321 8.34074 8.32286 8.39187L8.59525 8.92647C8.8085 8.81782 8.98188 8.64444 9.09054 8.43119L8.55593 8.15879ZM7.58073 2.38333C7.81903 2.38333 7.97972 2.38357 8.10363 2.39369C8.22404 2.40353 8.28307 2.42119 8.32286 2.44146L8.59525 1.90686C8.45678 1.83631 8.31 1.80855 8.15249 1.79568C7.99848 1.7831 7.80913 1.78333 7.58073 1.78333V2.38333ZM9.21406 3.41667C9.21406 3.18826 9.2143 2.99892 9.20171 2.84491C9.18884 2.68739 9.16109 2.54061 9.09054 2.40214L8.55593 2.67454C8.57621 2.71433 8.59387 2.77336 8.6037 2.89376C8.61383 3.01767 8.61406 3.17836 8.61406 3.41667H9.21406ZM8.32286 2.44146C8.42321 2.4926 8.5048 2.57419 8.55593 2.67454L9.09054 2.40214C8.98188 2.18889 8.8085 2.01552 8.59525 1.90686L8.32286 2.44146ZM2.7474 1.78333C2.51899 1.78333 2.32964 1.7831 2.17563 1.79568C2.01812 1.80855 1.87134 1.83631 1.73287 1.90686L2.00527 2.44146C2.04506 2.42119 2.10409 2.40353 2.22449 2.39369C2.3484 2.38357 2.50909 2.38333 2.7474 2.38333V1.78333ZM1.71406 3.41667C1.71406 3.17836 1.7143 3.01767 1.72442 2.89376C1.73426 2.77336 1.75192 2.71433 1.77219 2.67454L1.23759 2.40214C1.16703 2.54061 1.13928 2.68739 1.12641 2.84491C1.11383 2.99892 1.11406 3.18826 1.11406 3.41667H1.71406ZM1.73287 1.90686C1.51962 2.01552 1.34624 2.18889 1.23759 2.40214L1.77219 2.67454C1.82332 2.57419 1.90491 2.4926 2.00527 2.44146L1.73287 1.90686ZM2.78073 1.25V2.08333H3.38073V1.25H2.78073ZM6.9474 1.25V2.08333H7.5474V1.25H6.9474ZM2.66406 5.3H3.4974V4.7H2.66406V5.3ZM4.7474 5.3H5.58073V4.7H4.7474V5.3ZM6.83073 5.3H7.66406V4.7H6.83073V5.3ZM2.66406 6.55H3.4974V5.95H2.66406V6.55ZM4.7474 6.55H5.58073V5.95H4.7474V6.55ZM6.83073 6.55H7.66406V5.95H6.83073V6.55ZM2.66406 7.8H3.4974V7.2H2.66406V7.8ZM4.7474 7.8H5.58073V7.2H4.7474V7.8ZM6.83073 7.8H7.66406V7.2H6.83073V7.8Z" fill="#8C56FF"/>
</g>
</svg>
