<svg width="934" height="1263" viewBox="0 0 934 1263" fill="none" xmlns="http://www.w3.org/2000/svg">
<path d="M12 41.5L29.5 41.5H75.5L139.5 41.5H156.995L289 41.5L354.933 6L587 6L645 41.5L687.487 41.5H713L780.5 41.5H797.809L922 41.5" stroke="#50FBDF" stroke-width="12"/>
<path d="M927.532 130.312L928 129.198V127.99V47.5V41.5H922H904.5H858.5H794.5H777.005H645H643.487L642.156 42.2171L577.554 77H348.69L292.132 42.3825L290.69 41.5H289H246.513H221H153.5H136.191H12H6V47.5V210.656V211.903L6.49738 213.047L14.8258 232.207V442.902L6.49738 462.061L6 463.205V464.453V606.58V607.827L6.49739 608.971L14.8258 628.131V1118L6.49739 1137.16L6 1138.31V1139.55V1250.5V1256.5H12H40.3686H44.2473L45.8397 1252.96L53.3883 1236.2H259.6L266.858 1252.89L268.426 1256.5H272.36H382.998H386.932L388.5 1252.89L395.758 1236.2H480.615L488.164 1252.96L489.756 1256.5H493.635H580.947H584.826L586.418 1252.96L593.967 1236.2H840.265L847.814 1252.96L849.406 1256.5H853.285H922H928V1250.5V1149.71V1148.46L927.503 1147.31L919.174 1128.15V1011L927.503 991.843L928 990.699V989.451V711.724V710.477L927.503 709.332L919.174 690.173V150.227L927.532 130.312Z" fill="#1A1C39" stroke="#51F8DF" stroke-width="12"/>
<path d="M350 71.5L301.5 41.5L356 11.5H585L633 40.5L576.237 71.5H350Z" fill="url(#paint0_diamond_0_1)"/>
<defs>
<radialGradient id="paint0_diamond_0_1" cx="0" cy="0" r="1" gradientUnits="userSpaceOnUse" gradientTransform="translate(467 41.5) rotate(90) scale(30 165.75)">
<stop stop-color="#017676"/>
<stop offset="1" stop-color="#10938D"/>
</radialGradient>
</defs>
</svg>
