<svg width="28" height="28" viewBox="0 0 28 28" fill="none" xmlns="http://www.w3.org/2000/svg">
<rect opacity="0.2" width="28" height="28" rx="6" fill="#00FECF"/>
<path d="M21.5 14.0002V13.3335C21.5 12.4001 21.5 11.9334 21.3183 11.5768C21.1586 11.2632 20.9036 11.0083 20.59 10.8485C20.2335 10.6668 19.7668 10.6668 18.8333 10.6668H6.5M21.5 14.0002V17.3335M21.5 14.0002H19.8333C18.9129 14.0002 18.1667 14.7464 18.1667 15.6668C18.1667 16.5873 18.9129 17.3335 19.8333 17.3335H21.5M21.5 17.3335V18.0002C21.5 18.9336 21.5 19.4003 21.3183 19.7568C21.1586 20.0704 20.9036 20.3254 20.59 20.4852C20.2335 20.6668 19.7668 20.6668 18.8333 20.6668H9.16667C8.23325 20.6668 7.76654 20.6668 7.41002 20.4852C7.09641 20.3254 6.84144 20.0704 6.68166 19.7568C6.5 19.4003 6.5 18.9336 6.5 18.0002V10.6668M19 10.6668V10.0002C19 9.06674 19 8.60003 18.8183 8.24351C18.6586 7.92991 18.4036 7.67494 18.09 7.51515C17.7335 7.3335 17.2668 7.3335 16.3333 7.3335H9.16667C8.23325 7.3335 7.76654 7.3335 7.41002 7.51515C7.09641 7.67494 6.84144 7.92991 6.68166 8.24351C6.5 8.60003 6.5 9.06674 6.5 10.0002V10.6668" stroke="#00FECF" stroke-linecap="round" stroke-linejoin="round"/>
</svg>
