<svg width="28" height="28" viewBox="0 0 28 28" fill="none" xmlns="http://www.w3.org/2000/svg">
<rect opacity="0.2" width="28" height="28" rx="6" fill="#B8B8E0" fill-opacity="0.5"/>
<path d="M21.5 13.9999V13.3333C21.5 12.3998 21.5 11.9331 21.3183 11.5766C21.1586 11.263 20.9036 11.008 20.59 10.8482C20.2335 10.6666 19.7668 10.6666 18.8333 10.6666H6.5M21.5 13.9999V17.3333M21.5 13.9999H19.8333C18.9129 13.9999 18.1667 14.7461 18.1667 15.6666C18.1667 16.5871 18.9129 17.3333 19.8333 17.3333H21.5M21.5 17.3333V17.9999C21.5 18.9333 21.5 19.4 21.3183 19.7566C21.1586 20.0702 20.9036 20.3251 20.59 20.4849C20.2335 20.6666 19.7668 20.6666 18.8333 20.6666H9.16667C8.23325 20.6666 7.76654 20.6666 7.41002 20.4849C7.09641 20.3251 6.84144 20.0702 6.68166 19.7566C6.5 19.4 6.5 18.9333 6.5 17.9999V10.6666M19 10.6666V9.99992C19 9.0665 19 8.59979 18.8183 8.24327C18.6586 7.92966 18.4036 7.6747 18.09 7.51491C17.7335 7.33325 17.2668 7.33325 16.3333 7.33325H9.16667C8.23325 7.33325 7.76654 7.33325 7.41002 7.51491C7.09641 7.6747 6.84144 7.92966 6.68166 8.24327C6.5 8.59979 6.5 9.0665 6.5 9.99992V10.6666" stroke="white" stroke-linecap="round" stroke-linejoin="round"/>
</svg>
