<svg width="16" height="16" viewBox="0 0 16 16" fill="none" xmlns="http://www.w3.org/2000/svg">
<g id="binance-svgrepo-com 1" clip-path="url(#clip0_3056_9574)">
<g id="Icon">
<path id="Vector" d="M8 16C12.4183 16 16 12.4183 16 8C16 3.58172 12.4183 0 8 0C3.58172 0 0 3.58172 0 8C0 12.4183 3.58172 16 8 16Z" fill="#F3BA2F"/>
<path id="Vector_2" d="M6.325 7.3127L7.99844 5.63926L9.67187 7.31426L10.6453 6.34082L7.99844 3.69238L5.35156 6.33926L6.325 7.3127Z" fill="white"/>
<path id="Vector_3" d="M3.69141 7.99902L4.66477 7.02563L5.63816 7.99899L4.6648 8.97238L3.69141 7.99902Z" fill="white"/>
<path id="Vector_4" d="M6.32656 8.68711L8 10.3605L9.67344 8.68555L10.6484 9.65898H10.6469L8 12.3074L5.35313 9.66055L5.35156 9.65898L6.32656 8.68711Z" fill="white"/>
<path id="Vector_5" d="M10.3594 8.00098L11.3327 7.02758L12.3061 8.00094L11.3328 8.97434L10.3594 8.00098Z" fill="white"/>
<path id="Vector_6" d="M8.98828 7.9998L8.00078 7.01074L7.27109 7.74199L7.18672 7.8248L7.01328 7.99824L7.01172 7.9998L7.01328 8.00137L8.00078 8.98887L8.98828 7.9998Z" fill="white"/>
</g>
</g>
<defs>
<clipPath id="clip0_3056_9574">
<rect width="16" height="16" fill="white"/>
</clipPath>
</defs>
</svg>
