<svg width="15" height="15" viewBox="0 0 15 15" fill="none" xmlns="http://www.w3.org/2000/svg">
    <path
        d="M0.0625 6.78992C0.135234 6.66064 0.118449 6.50887 0.140829 6.36835C0.230348 5.71071 0.420576 5.07555 0.689133 4.4685C1.23184 3.24878 2.07108 2.27637 3.1621 1.51755C3.81111 1.06788 4.52167 0.736253 5.28817 0.522661C5.48959 0.466452 5.6966 0.539523 5.8085 0.702528C5.926 0.871154 5.926 1.0735 5.79172 1.24775C5.45043 1.68056 5.17068 2.14709 4.98605 2.66983C4.66713 3.55792 4.56643 4.47412 4.72868 5.40718C4.98605 6.88547 5.73017 8.06023 6.95546 8.90898C7.64364 9.39237 8.41574 9.67904 9.25498 9.78021C10.6873 9.95446 11.9741 9.59472 13.1211 8.71787C13.205 8.65604 13.2833 8.58859 13.3729 8.53238C13.5519 8.42558 13.7365 8.43683 13.8988 8.56049C14.0554 8.68414 14.089 8.84715 14.0443 9.04388C13.4959 11.1686 12.2651 12.7424 10.3124 13.7429C9.22701 14.2994 8.06886 14.5692 6.86035 14.4905C4.02372 14.3106 1.97597 12.9054 0.717108 10.3535C0.347842 9.60596 0.157614 8.80218 0.0904747 7.9703C0.0904747 7.94781 0.0904747 7.92533 0.0625 7.91409C0.0625 7.88598 0.0625 7.85788 0.0625 7.82977C0.0848798 7.7286 0.0848798 7.62742 0.0625 7.52625C0.0625 7.28455 0.0625 7.03723 0.0625 6.78992Z"
        fill="#F6F6F6"></path>
</svg>