<svg width="15" height="15" viewBox="0 0 15 15" fill="none" xmlns="http://www.w3.org/2000/svg">
    <path
        d="M6.97742 14.5007C6.817 14.4278 6.72585 14.2965 6.65657 14.1361C6.39041 13.5418 6.1133 12.9474 5.84349 12.3531C5.82526 12.3167 5.81068 12.2802 5.78516 12.2109C6.66022 12.4406 7.51705 12.4443 8.37023 12.2146C8.38846 12.2766 8.352 12.313 8.33377 12.3495C8.06396 12.9402 7.7905 13.5272 7.52434 14.1215C7.45142 14.2819 7.36391 14.4205 7.19619 14.497C7.12327 14.5007 7.05035 14.5007 6.97742 14.5007Z"
        fill="#F84531"></path>
    <path
        d="M0.0859375 7.39149C0.158859 7.23106 0.290118 7.14355 0.450546 7.07063C1.06309 6.79718 1.67198 6.51278 2.28452 6.23568C2.3064 6.22474 2.32463 6.21745 2.37568 6.19922C2.14597 7.07063 2.14233 7.92746 2.37932 8.80981C2.13504 8.70043 1.91992 8.60199 1.7048 8.50354C1.26727 8.30301 0.833384 8.09883 0.392208 7.90559C0.253657 7.8436 0.158859 7.74516 0.0895836 7.6139C0.0859375 7.53733 0.0859375 7.46441 0.0859375 7.39149Z"
        fill="#F84531"></path>
    <path
        d="M11.1568 7.49481C11.1605 9.73715 9.33377 11.5711 7.08778 11.5748C4.84544 11.5784 3.01146 9.75174 3.00782 7.50575C3.00417 5.26341 4.83086 3.42943 7.07685 3.42579C9.31919 3.42214 11.1532 5.24883 11.1568 7.49481Z"
        fill="#F84531"></path>
    <path
        d="M2.82857 5.10077C2.63168 4.56844 2.43844 4.05434 2.24884 3.54025C2.17957 3.3543 2.10665 3.16835 2.04466 2.97875C1.99362 2.82561 2.01914 2.68342 2.13217 2.55945C2.24884 2.43913 2.39469 2.39902 2.54418 2.45371C3.25152 2.70894 3.95886 2.9751 4.68443 3.24491C4.29429 3.47462 3.94792 3.73349 3.638 4.04341C3.32808 4.34968 3.06192 4.69605 2.82857 5.10077Z"
        fill="#F84531"></path>
    <path
        d="M2.83293 9.90625C3.28869 10.6938 3.89759 11.2991 4.68879 11.7585C4.44085 11.8496 4.20751 11.9335 3.9778 12.021C3.53298 12.1887 3.08451 12.3528 2.63969 12.5205C2.46103 12.5898 2.28967 12.5934 2.14382 12.4512C1.99433 12.3054 2.00163 12.1304 2.0709 11.9481C2.31154 11.31 2.54489 10.6719 2.78189 10.0339C2.79647 9.9974 2.81106 9.9573 2.83293 9.90625Z"
        fill="#F84531"></path>
    <path
        d="M11.3444 9.90234C11.5814 10.5368 11.8074 11.1493 12.0335 11.7582C12.0663 11.8494 12.1028 11.9369 12.132 12.028C12.1793 12.1848 12.1538 12.327 12.0408 12.4437C11.9278 12.5603 11.7819 12.6004 11.6397 12.5494C10.9287 12.2942 10.2178 12.0244 9.49219 11.7582C10.2724 11.3024 10.885 10.6935 11.3444 9.90234Z"
        fill="#F84531"></path>
    <path
        d="M11.3408 5.0907C10.8886 4.31408 10.2797 3.70154 9.49219 3.24578C9.87503 3.10358 10.2433 2.96503 10.6079 2.83013C10.9215 2.71345 11.2387 2.59678 11.5522 2.4801C11.7272 2.41447 11.8913 2.41447 12.0335 2.55302C12.1721 2.69158 12.1793 2.8593 12.1137 3.03431C11.8694 3.69425 11.6251 4.35419 11.3809 5.01048C11.3699 5.03601 11.3553 5.05788 11.3408 5.0907Z"
        fill="#F84531"></path>
    <path
        d="M11.8042 8.78742C12.0302 7.93059 12.0302 7.07376 11.7969 6.19141C12.1141 6.33725 12.4058 6.46851 12.6975 6.60341C13.0548 6.76749 13.4121 6.93521 13.7731 7.09563C13.9517 7.17585 14.083 7.29252 14.083 7.50035C14.083 7.70818 13.9554 7.82485 13.7767 7.90871C13.1642 8.18581 12.5553 8.46656 11.9464 8.74366C11.9063 8.76189 11.8698 8.79106 11.8042 8.78742Z"
        fill="#F84531"></path>
    <path
        d="M8.40131 2.78922C7.51532 2.55587 6.66213 2.55587 5.81624 2.78192C5.79437 2.74911 5.80895 2.73088 5.81624 2.709C6.11522 2.06 6.41055 1.411 6.70953 0.765641C6.81527 0.539584 7.02674 0.448432 7.23457 0.528646C7.32572 0.565107 7.40229 0.623444 7.44604 0.714596C7.7596 1.39277 8.07317 2.07458 8.40131 2.78922Z"
        fill="#F84531"></path>
</svg>