<svg width="25" height="24" viewBox="0 0 25 24" fill="none" xmlns="http://www.w3.org/2000/svg">
<g clip-path="url(#clip0_514_1025)">
<path d="M20.4338 4.1556C18.8953 3.45372 17.2455 2.93661 15.5206 2.64043C15.4892 2.63472 15.4578 2.649 15.4416 2.67757C15.2294 3.05279 14.9944 3.54229 14.8298 3.92703C12.9745 3.65086 11.1288 3.65086 9.31153 3.92703C9.14692 3.53373 8.90336 3.05279 8.69023 2.67757C8.67405 2.64996 8.64267 2.63567 8.61126 2.64043C6.88727 2.93566 5.23749 3.45278 3.69807 4.1556C3.68474 4.16132 3.67332 4.17085 3.66574 4.18322C0.536457 8.83158 -0.320783 13.3657 0.0997501 17.8436C0.101653 17.8655 0.114021 17.8864 0.131147 17.8998C2.19576 19.4073 4.19568 20.3225 6.15847 20.9291C6.18988 20.9387 6.22317 20.9272 6.24316 20.9015C6.70746 20.2711 7.12134 19.6064 7.4762 18.9073C7.49714 18.8664 7.47715 18.8178 7.43435 18.8016C6.77786 18.554 6.15276 18.2521 5.55145 17.9093C5.50389 17.8817 5.50008 17.814 5.54384 17.7817C5.67037 17.6874 5.79695 17.5893 5.91777 17.4902C5.93963 17.4722 5.97009 17.4683 5.99579 17.4798C9.94612 19.273 14.2228 19.273 18.1265 17.4798C18.1522 17.4674 18.1827 17.4712 18.2055 17.4893C18.3264 17.5883 18.4529 17.6874 18.5804 17.7817C18.6241 17.814 18.6213 17.8817 18.5737 17.9093C17.9724 18.2588 17.3473 18.554 16.6899 18.8007C16.6471 18.8169 16.628 18.8664 16.649 18.9073C17.0115 19.6054 17.4253 20.2701 17.8811 20.9006C17.9001 20.9272 17.9343 20.9387 17.9658 20.9291C19.9381 20.3225 21.938 19.4073 24.0026 17.8998C24.0207 17.8864 24.0321 17.8664 24.034 17.8445C24.5373 12.6676 23.191 8.17067 20.4652 4.18417C20.4585 4.17085 20.4471 4.16132 20.4338 4.1556ZM8.06611 15.117C6.87679 15.117 5.89683 14.0314 5.89683 12.6981C5.89683 11.3648 6.85779 10.2792 8.06611 10.2792C9.28392 10.2792 10.2544 11.3743 10.2354 12.6981C10.2354 14.0314 9.27441 15.117 8.06611 15.117ZM16.0867 15.117C14.8974 15.117 13.9174 14.0314 13.9174 12.6981C13.9174 11.3648 14.8783 10.2792 16.0867 10.2792C17.3045 10.2792 18.275 11.3743 18.256 12.6981C18.256 14.0314 17.3045 15.117 16.0867 15.117Z" fill="#AA82FF"/>
</g>
<defs>
<clipPath id="clip0_514_1025">
<rect width="24.1379" height="24" fill="white"/>
</clipPath>
</defs>
</svg>
