<svg width="108" height="125" viewBox="0 0 108 125" fill="none" xmlns="http://www.w3.org/2000/svg">
<g id="Group 1261157638">
<path id="Vector" fill-rule="evenodd" clip-rule="evenodd" d="M97.9422 0H9.78756C2.64109 0 0 2.64109 0 9.78756V96.0557C0 96.8547 0.022194 97.6093 0.11097 98.3195C0.266328 99.8731 0.310718 101.382 1.75333 103.113C1.88649 103.291 3.37349 104.378 3.37349 104.378C4.17247 104.778 4.70513 105.066 5.61509 105.422L49.0266 123.598C51.2904 124.642 52.2225 125.041 53.8649 124.997C55.5072 125.019 56.4394 124.619 58.7032 123.598L102.115 105.422C103.025 105.066 103.557 104.778 104.356 104.378C104.356 104.378 105.843 103.269 105.976 103.113C107.419 101.382 107.463 99.8731 107.619 98.3195C107.685 97.6315 107.73 96.8769 107.73 96.0557V9.78756C107.73 2.64109 105.089 0 97.9422 0Z" fill="white"/>
<g id="Group">
<path id="Vector_2" d="M23.2315 43.4466H31.7984V36.7884H23.2315V23.25H32.1535V16.5918H15.9297V64.5309H32.2867V57.8949H23.2315V43.4466Z" fill="#3D3935"/>
<path id="Vector_3" d="M84.7171 44.87V55.6785C84.7171 57.5872 83.8294 58.4749 81.9873 58.4749H80.6334C78.7247 58.4749 77.837 57.5872 77.837 55.6785V25.428C77.837 23.5193 78.7247 22.6316 80.6334 22.6316H81.8541C83.6962 22.6316 84.584 23.5193 84.584 25.428V34.8161H91.7304V25.0285C91.7304 19.0805 88.8674 16.1953 82.9416 16.1953H79.3906C73.4648 16.1953 70.5352 19.1471 70.5352 25.0951V56.0336C70.5352 61.9816 73.4648 64.9334 79.3906 64.9334H83.0082C88.934 64.9334 91.8636 61.9816 91.8636 56.0336V44.87H84.7171Z" fill="#3D3935"/>
<path id="Vector_4" d="M66.7081 16.5918H59.4062V64.5309H66.7081V16.5918Z" fill="#3D3935"/>
<path id="Vector_5" d="M47.2392 16.5918H35.7871V64.5309H43.0667V47.1308H47.217C53.1428 47.1308 56.0724 44.179 56.0724 38.231V25.4916C56.0946 19.5436 53.165 16.5918 47.2392 16.5918ZM48.815 37.8981C48.815 39.8067 47.9272 40.7167 46.0851 40.7167H43.0889V23.0503H46.0851C47.9272 23.0503 48.815 23.938 48.815 25.8467V37.8981Z" fill="#3D3935"/>
</g>
<path id="Vector_6" fill-rule="evenodd" clip-rule="evenodd" d="M33.1426 107.859H74.8895L53.5833 114.895L33.1426 107.859Z" fill="#3D3935"/>
<g id="Group_2">
<path id="Vector_7" d="M100.871 121.216C100.871 119.196 102.402 117.665 104.311 117.665C106.242 117.665 107.751 119.196 107.751 121.216C107.751 123.236 106.22 124.767 104.311 124.767C102.402 124.767 100.871 123.236 100.871 121.216ZM107.13 121.216C107.13 119.552 105.887 118.264 104.311 118.264C102.735 118.264 101.493 119.552 101.493 121.216C101.493 122.881 102.735 124.168 104.311 124.168C105.887 124.168 107.13 122.881 107.13 121.216ZM102.913 119.374H104.555C105.354 119.374 105.843 119.796 105.843 120.484C105.843 121.105 105.487 121.505 104.977 121.616L105.843 122.77V123.014H105.266L104.289 121.682H103.557V123.014H102.935V119.374H102.913ZM104.555 121.15C104.955 121.15 105.243 120.95 105.243 120.55C105.243 120.151 104.955 119.973 104.555 119.973H103.534V121.15H104.555Z" fill="white"/>
</g>
<g id="Group_3">
<path id="Vector_8" d="M23.4629 90.9884C22.331 90.9884 21.2878 90.8109 20.3335 90.4336C19.3792 90.0563 18.5358 89.5458 17.8478 88.88C17.1598 88.2142 16.5827 87.4152 16.1832 86.5052C15.7837 85.5953 15.584 84.5743 15.584 83.4868V83.4424C15.584 82.3771 15.7837 81.3784 16.1832 80.4685C16.5827 79.5585 17.1154 78.7595 17.8034 78.0715C18.4914 77.3835 19.3126 76.8508 20.2669 76.4735C21.2213 76.0962 22.2644 75.8965 23.3741 75.8965C24.6613 75.8965 25.771 76.074 26.7032 76.4513C27.6353 76.8286 28.4787 77.3391 29.2555 78.0049L26.9029 80.8458C26.3703 80.4019 25.8376 80.069 25.305 79.8248C24.7501 79.5807 24.1287 79.4697 23.4185 79.4697C22.8858 79.4697 22.3976 79.5807 21.9537 79.7804C21.5098 79.9802 21.1103 80.2687 20.7774 80.6238C20.4445 80.9789 20.1781 81.4006 20.0006 81.8889C19.8008 82.3771 19.7121 82.8876 19.7121 83.4424V83.4868C19.7121 84.0639 19.8008 84.5965 20.0006 85.107C20.2003 85.5953 20.4667 86.0392 20.8218 86.3943C21.1769 86.7494 21.5764 87.0157 22.0646 87.2154C22.5307 87.4152 23.0634 87.5261 23.6404 87.5261C24.5726 87.5261 25.3494 87.3264 25.9486 86.9269V85.1736H23.0856V82.2218H29.7438V88.769C28.967 89.4126 28.057 89.9453 27.0139 90.367C25.9708 90.7887 24.7945 90.9884 23.4629 90.9884Z" fill="#3D3935"/>
<path id="Vector_9" d="M37.198 76.0488H41.0598L47.2297 90.6747H42.924L41.8587 88.078H36.2658L35.2227 90.6747H31.0059L37.198 76.0488ZM40.7046 84.9708L39.0845 80.8427L37.4421 84.9708H40.7046Z" fill="#3D3935"/>
<path id="Vector_10" d="M48.625 76.1611H52.8641L56.3263 81.7762L59.7886 76.1611H64.0277V90.6982H60.0327V82.3533L56.3263 88.0349H56.2376L52.5533 82.3977V90.6982H48.625V76.1611Z" fill="#3D3935"/>
<path id="Vector_11" d="M66.6914 76.1611H78.3433V79.579H70.6641V81.7762H77.6109V84.95H70.6641V87.2581H78.432V90.676H66.6914V76.1611Z" fill="#3D3935"/>
<path id="Vector_12" d="M86.2985 90.9709C85.0112 90.9709 83.7684 90.7712 82.6143 90.3717C81.4602 89.9722 80.4171 89.373 79.5293 88.574L81.7709 85.8885C83.2135 87.0426 84.7893 87.6418 86.476 87.6418C87.0087 87.6418 87.4304 87.553 87.6967 87.3755C87.9852 87.1979 88.1184 86.9538 88.1184 86.6431V86.5765C88.1184 86.4212 88.074 86.288 88.0074 86.177C87.9408 86.0661 87.8077 85.9551 87.6301 85.8441C87.4526 85.7331 87.1862 85.6222 86.8755 85.5334C86.5648 85.4224 86.1653 85.3336 85.6548 85.2227C84.878 85.0451 84.1679 84.8454 83.502 84.6234C82.8362 84.4015 82.2592 84.1352 81.7709 83.8023C81.2826 83.4693 80.9053 83.0477 80.6168 82.5372C80.3283 82.0267 80.1951 81.4053 80.1951 80.6507V80.5841C80.1951 79.8961 80.3283 79.2747 80.5724 78.7198C80.8166 78.1428 81.1939 77.6545 81.6821 77.255C82.1704 76.8333 82.7696 76.5226 83.4576 76.3007C84.1457 76.0787 84.9224 75.9678 85.788 75.9678C87.0309 75.9678 88.1406 76.1231 89.1171 76.456C90.0937 76.7889 90.9592 77.255 91.7582 77.8986L89.7607 80.7395C89.0949 80.2734 88.4291 79.9183 87.7189 79.6742C87.0309 79.43 86.3429 79.3191 85.6992 79.3191C85.211 79.3191 84.8559 79.4078 84.6117 79.5854C84.3676 79.7629 84.2566 79.9849 84.2566 80.2512V80.2956C84.2566 80.451 84.301 80.6063 84.3676 80.7395C84.4342 80.8727 84.5673 80.9836 84.7671 81.0724C84.9446 81.1834 85.211 81.2721 85.5217 81.3831C85.8546 81.4941 86.2541 81.6051 86.7424 81.6938C87.5635 81.8714 88.3181 82.0933 88.9839 82.3375C89.6498 82.5816 90.2268 82.8701 90.6929 83.2252C91.159 83.5803 91.5141 83.9798 91.7582 84.4903C92.0023 84.9785 92.1355 85.5556 92.1355 86.2436V86.288C92.1355 87.0426 92.0023 87.7084 91.7138 88.2855C91.4253 88.8625 91.0258 89.3508 90.5153 89.7725C90.0049 90.1719 89.3834 90.4827 88.6732 90.7046C87.9852 90.86 87.1862 90.9709 86.2985 90.9709Z" fill="#3D3935"/>
</g>
</g>
</svg>
