<svg width="22" height="24" viewBox="0 0 22 24" fill="none" xmlns="http://www.w3.org/2000/svg">
<path d="M11.0606 0.916016C5.13886 0.916016 0.342773 5.97253 0.342773 12.2158C0.342773 17.5261 3.79891 21.9335 8.46183 23.176C8.40802 23.0346 8.38156 22.8365 8.38156 22.6394V20.718H7.04161C6.31828 20.718 5.64785 20.3794 5.35322 19.7572C5.00478 19.0793 4.95096 18.0339 4.06709 17.3838C3.79891 17.1578 4.01327 16.9318 4.3079 16.9597C4.87069 17.129 5.32586 17.5252 5.75457 18.1176C6.18328 18.7109 6.37118 18.8523 7.17479 18.8523C7.54968 18.8523 8.13893 18.8244 8.67528 18.7388C8.9699 17.9474 9.47888 17.2415 10.0955 16.903C6.50527 16.451 4.79042 14.5863 4.79042 12.0436C4.79042 10.9415 5.24559 9.89618 5.99629 8.9922C5.75548 8.11611 5.43349 6.30815 6.10392 5.60228C7.71204 5.60228 8.67619 6.70437 8.917 6.98614C9.7206 6.7034 10.6054 6.53415 11.5157 6.53415C12.4534 6.53415 13.3108 6.7034 14.1144 6.98614C14.3552 6.7034 15.3203 5.60228 16.9275 5.60228C17.5706 6.28026 17.2759 8.11611 17.0078 8.9922C17.7585 9.86829 18.1872 10.9415 18.1872 12.0436C18.1872 14.5863 16.4988 16.451 12.9359 16.8462C13.9274 17.3829 14.6243 18.9081 14.6243 20.0381V22.6115C14.6243 22.6961 14.5979 22.7808 14.5979 22.8654C18.7774 21.3402 21.7783 17.1597 21.7783 12.2158C21.7783 5.97253 16.9822 0.916016 11.0606 0.916016Z" fill="#AE88FE"/>
</svg>
