<svg width="24" height="24" viewBox="0 0 24 24" fill="none" xmlns="http://www.w3.org/2000/svg">
<g clip-path="url(#clip0_514_1026)">
<path d="M12.0059 8.01431C9.79758 8.01431 8.01807 9.80615 8.01807 12.0164C8.01807 14.216 9.81902 16.0293 12.0166 16.0185C14.2035 16.0185 16.0259 14.1945 16.0152 12.0057C16.0044 9.81688 14.2035 8.01431 12.0059 8.01431Z" fill="#AA82FF"/>
<path d="M23.8607 6.29772C23.6999 4.15199 22.7995 2.37103 20.9343 1.16942C19.7874 0.439875 18.5118 0.16093 17.172 0.0858292C16.7861 0.0643719 16.4002 0.032186 16.0143 0C13.3452 0 10.6762 0 7.99643 0C7.364 0.0536433 6.72086 0.0858292 6.08843 0.150201C2.76552 0.504247 0.503796 2.76799 0.150067 6.1046C0.0857526 6.7376 0.0428763 7.38131 0 8.0143C0 10.6857 0 13.3572 0 16.0393C0.0750335 16.8225 0.0964716 17.6165 0.2251 18.3782C0.782492 21.5861 3.02278 23.6996 6.28138 23.8713C9.13265 24.0215 11.9839 24 14.8459 23.9893C16.0572 23.9893 17.2899 23.9678 18.469 23.764C21.6096 23.2275 23.657 20.9423 23.8499 17.7345C23.9893 15.46 23.9786 13.1748 23.9893 10.8896C24 9.36612 23.9786 7.82119 23.8607 6.29772ZM12.0161 18.1958C8.61813 18.2065 5.84189 15.4385 5.84189 12.0268C5.84189 8.60438 8.57526 5.84712 11.9946 5.84712C15.4033 5.84712 18.1688 8.59365 18.1795 12.0054C18.1795 15.4063 15.414 18.1851 12.0161 18.1958ZM18.4261 7.04873C17.6222 7.05945 16.9683 6.41574 16.9683 5.61109C16.9683 4.81717 17.5793 4.18418 18.3725 4.16272C19.1871 4.14126 19.841 4.77425 19.8517 5.5789C19.8732 6.37282 19.23 7.038 18.4261 7.04873Z" fill="#AA82FF"/>
</g>
<defs>
<clipPath id="clip0_514_1026">
<rect width="24" height="24" fill="white"/>
</clipPath>
</defs>
</svg>
