<svg width="16" height="16" viewBox="0 0 16 16" fill="none" xmlns="http://www.w3.org/2000/svg">
<path d="M9.02496 7.88505C9.02496 10.3989 7.00463 12.4367 4.51256 12.4367C2.02049 12.4367 0 10.3984 0 7.88505C0 5.3717 2.02033 3.33325 4.51256 3.33325C7.00478 3.33325 9.02496 5.37124 9.02496 7.88505Z" fill="#AE88FE"/>
<path d="M13.9735 7.88502C13.9735 10.2512 12.9633 12.1702 11.7172 12.1702C10.4711 12.1702 9.46094 10.2512 9.46094 7.88502C9.46094 5.51881 10.471 3.59985 11.7171 3.59985C12.9632 3.59985 13.9733 5.5182 13.9733 7.88502" fill="#AE88FE"/>
<path d="M16.001 7.88522C16.001 10.0048 15.6458 11.7241 15.2074 11.7241C14.7691 11.7241 14.4141 10.0052 14.4141 7.88522C14.4141 5.76522 14.7693 4.04639 15.2074 4.04639C15.6456 4.04639 16.001 5.76506 16.001 7.88522Z" fill="#AE88FE"/>
</svg>
