<svg width="25" height="25" viewBox="0 0 25 25" fill="none" xmlns="http://www.w3.org/2000/svg">
<g clip-path="url(#clip0_303_674)">
<path d="M7.59355 21.875C16.7 21.875 21.6822 14.3286 21.6822 7.78637C21.6822 7.57422 21.6775 7.35735 21.668 7.1452C22.6372 6.4443 23.4736 5.57613 24.1379 4.58149C23.2353 4.98309 22.2769 5.24537 21.2956 5.35937C22.3289 4.74001 23.1025 3.76701 23.4732 2.62076C22.5011 3.19684 21.4381 3.60321 20.3296 3.82247C19.5827 3.02888 18.5952 2.50343 17.5198 2.32736C16.4444 2.15129 15.3409 2.3344 14.3799 2.84839C13.419 3.36237 12.6541 4.1786 12.2036 5.17087C11.7531 6.16315 11.642 7.27621 11.8875 8.33796C9.91917 8.23918 7.99361 7.72788 6.23561 6.83718C4.47761 5.94649 2.92642 4.69629 1.68258 3.16763C1.0504 4.25759 0.856953 5.54736 1.14155 6.77482C1.42615 8.00228 2.16745 9.07532 3.21478 9.77586C2.42851 9.7509 1.65946 9.5392 0.971175 9.15827V9.21956C0.97047 10.3634 1.3659 11.4722 2.09025 12.3574C2.8146 13.2426 3.82317 13.8497 4.9445 14.0754C4.21615 14.2747 3.45171 14.3037 2.71033 14.1603C3.02675 15.144 3.64239 16.0044 4.47132 16.6213C5.30026 17.2383 6.30113 17.5811 7.33425 17.6018C5.58031 18.9796 3.41368 19.7269 1.18332 19.7233C0.787789 19.7227 0.392643 19.6985 0 19.6507C2.2658 21.1044 4.90154 21.8764 7.59355 21.875Z" fill="#AE88FE"/>
</g>
<defs>
<clipPath id="clip0_303_674">
<rect width="24.1379" height="24.1379" fill="white"/>
</clipPath>
</defs>
</svg>
