<svg width="25" height="24" viewBox="0 0 25 24" fill="none" xmlns="http://www.w3.org/2000/svg">
<g clip-path="url(#clip0_514_1031)">
<path d="M24.6095 7.20005C24.6095 7.20005 24.3668 5.54536 23.6191 4.8188C22.6724 3.86255 21.6141 3.85786 21.1286 3.80161C17.6525 3.55786 12.4334 3.55786 12.4334 3.55786H12.4237C12.4237 3.55786 7.20469 3.55786 3.72857 3.80161C3.24308 3.85786 2.18471 3.86255 1.238 4.8188C0.490346 5.54536 0.252455 7.20005 0.252455 7.20005C0.252455 7.20005 0 9.14536 0 11.086V12.9047C0 14.8454 0.2476 16.7907 0.2476 16.7907C0.2476 16.7907 0.490346 18.4454 1.23315 19.1719C2.17986 20.1282 3.42271 20.0954 3.97617 20.1985C5.96669 20.3813 12.4286 20.4375 12.4286 20.4375C12.4286 20.4375 17.6525 20.4282 21.1286 20.1891C21.6141 20.1329 22.6724 20.1282 23.6191 19.1719C24.3668 18.4454 24.6095 16.7907 24.6095 16.7907C24.6095 16.7907 24.8571 14.85 24.8571 12.9047V11.086C24.8571 9.14536 24.6095 7.20005 24.6095 7.20005ZM9.86033 15.1125V8.36724L16.5747 11.7516L9.86033 15.1125Z" fill="#AA82FF"/>
</g>
<defs>
<clipPath id="clip0_514_1031">
<rect width="24.8571" height="24" fill="white"/>
</clipPath>
</defs>
</svg>
