<svg width="204" height="27" viewBox="0 0 84 27" fill="none" xmlns="http://www.w3.org/2000/svg">
<path d="M0 11.9988L9 0H74.282C80 0 84 4 84 10.0155V26.6499C84 24.27 79.9373 24 72.5 24H9L0 11.9988Z" fill="url(#paint0_linear_0_1)"/>
<path d="M29.88 16V8.95H30.53L35.05 14.95H34.82V8.95H35.59V16H34.95L30.43 10H30.65V16H29.88ZM39.4907 16.09C38.704 16.09 38.084 15.8633 37.6307 15.41C37.1774 14.95 36.9507 14.3133 36.9507 13.5C36.9507 12.9733 37.0507 12.5167 37.2507 12.13C37.4507 11.7367 37.7307 11.4333 38.0907 11.22C38.4507 11 38.864 10.89 39.3307 10.89C39.7907 10.89 40.1774 10.9867 40.4907 11.18C40.804 11.3733 41.044 11.65 41.2107 12.01C41.3774 12.3633 41.4607 12.7833 41.4607 13.27V13.57H37.5707V13.06H40.9307L40.7607 13.19C40.7607 12.6567 40.6407 12.24 40.4007 11.94C40.1607 11.64 39.804 11.49 39.3307 11.49C38.8307 11.49 38.4407 11.6667 38.1607 12.02C37.8807 12.3667 37.7407 12.8367 37.7407 13.43V13.52C37.7407 14.1467 37.894 14.6233 38.2007 14.95C38.514 15.27 38.9507 15.43 39.5107 15.43C39.8107 15.43 40.0907 15.3867 40.3507 15.3C40.6174 15.2067 40.8707 15.0567 41.1107 14.85L41.3907 15.42C41.1707 15.6333 40.8907 15.8 40.5507 15.92C40.2174 16.0333 39.864 16.09 39.4907 16.09ZM43.9816 16L42.1216 10.98H42.9816L44.5316 15.4H44.2716L45.8716 10.98H46.5716L48.1416 15.4H47.8916L49.4516 10.98H50.2716L48.4016 16H47.6216L46.0016 11.51H46.4016L44.7716 16H43.9816ZM53.9404 18.16V12.14C53.9404 11.9533 53.9304 11.7633 53.9104 11.57C53.8971 11.37 53.8804 11.1733 53.8604 10.98H54.6404L54.7504 12.17H54.6304C54.7371 11.7767 54.9537 11.4667 55.2804 11.24C55.6071 11.0067 55.9971 10.89 56.4504 10.89C56.9037 10.89 57.2937 10.9933 57.6204 11.2C57.9537 11.4067 58.2137 11.7033 58.4004 12.09C58.5871 12.4767 58.6804 12.9433 58.6804 13.49C58.6804 14.03 58.5871 14.4933 58.4004 14.88C58.2204 15.2667 57.9637 15.5667 57.6304 15.78C57.2971 15.9867 56.9037 16.09 56.4504 16.09C56.0037 16.09 55.6171 15.9767 55.2904 15.75C54.9637 15.5233 54.7471 15.2133 54.6404 14.82H54.7504V18.16H53.9404ZM56.2904 15.43C56.7704 15.43 57.1504 15.2667 57.4304 14.94C57.7171 14.6067 57.8604 14.1233 57.8604 13.49C57.8604 12.85 57.7171 12.3667 57.4304 12.04C57.1504 11.7067 56.7704 11.54 56.2904 11.54C55.8171 11.54 55.4371 11.7067 55.1504 12.04C54.8704 12.3667 54.7304 12.85 54.7304 13.49C54.7304 14.1233 54.8704 14.6067 55.1504 14.94C55.4371 15.2667 55.8171 15.43 56.2904 15.43ZM61.9965 16.09C61.5165 16.09 61.0965 15.9867 60.7365 15.78C60.3832 15.5667 60.1098 15.2667 59.9165 14.88C59.7232 14.4867 59.6265 14.0233 59.6265 13.49C59.6265 12.95 59.7232 12.4867 59.9165 12.1C60.1098 11.7133 60.3832 11.4167 60.7365 11.21C61.0965 10.9967 61.5165 10.89 61.9965 10.89C62.4832 10.89 62.9032 10.9967 63.2565 11.21C63.6165 11.4167 63.8932 11.7133 64.0865 12.1C64.2865 12.4867 64.3865 12.95 64.3865 13.49C64.3865 14.0233 64.2865 14.4867 64.0865 14.88C63.8932 15.2667 63.6165 15.5667 63.2565 15.78C62.9032 15.9867 62.4832 16.09 61.9965 16.09ZM61.9965 15.43C62.4765 15.43 62.8565 15.2667 63.1365 14.94C63.4165 14.6067 63.5565 14.1233 63.5565 13.49C63.5565 12.85 63.4132 12.3667 63.1265 12.04C62.8465 11.7067 62.4698 11.54 61.9965 11.54C61.5232 11.54 61.1465 11.7067 60.8665 12.04C60.5865 12.3667 60.4465 12.85 60.4465 13.49C60.4465 14.1233 60.5865 14.6067 60.8665 14.94C61.1465 15.2667 61.5232 15.43 61.9965 15.43ZM67.7094 16.09C67.2294 16.09 66.8094 15.9867 66.4494 15.78C66.096 15.5667 65.8227 15.2667 65.6294 14.88C65.436 14.4867 65.3394 14.0233 65.3394 13.49C65.3394 12.95 65.436 12.4867 65.6294 12.1C65.8227 11.7133 66.096 11.4167 66.4494 11.21C66.8094 10.9967 67.2294 10.89 67.7094 10.89C68.196 10.89 68.616 10.9967 68.9694 11.21C69.3294 11.4167 69.606 11.7133 69.7994 12.1C69.9994 12.4867 70.0994 12.95 70.0994 13.49C70.0994 14.0233 69.9994 14.4867 69.7994 14.88C69.606 15.2667 69.3294 15.5667 68.9694 15.78C68.616 15.9867 68.196 16.09 67.7094 16.09ZM67.7094 15.43C68.1894 15.43 68.5694 15.2667 68.8494 14.94C69.1294 14.6067 69.2694 14.1233 69.2694 13.49C69.2694 12.85 69.126 12.3667 68.8394 12.04C68.5594 11.7067 68.1827 11.54 67.7094 11.54C67.236 11.54 66.8594 11.7067 66.5794 12.04C66.2994 12.3667 66.1594 12.85 66.1594 13.49C66.1594 14.1233 66.2994 14.6067 66.5794 14.94C66.8594 15.2667 67.236 15.43 67.7094 15.43ZM71.3623 16V8.64H72.1723V16H71.3623Z" fill="white"/>
<path d="M11 11.625C11 11.8758 11 12.1242 11 12.375C11.0258 12.5766 11.0469 12.7781 11.0797 12.9773C11.293 14.2266 11.8391 15.3047 12.7273 16.207C13.625 17.1141 14.7055 17.6859 15.9664 17.9086C16.1844 17.9461 16.4047 17.9695 16.625 18C16.8758 18 17.1242 18 17.375 18C17.5789 17.9742 17.7852 17.9531 17.9867 17.918C19.1141 17.7258 20.1102 17.2547 20.9656 16.4953C22.0086 15.5672 22.6625 14.4117 22.9086 13.0336C22.9484 12.8156 22.9695 12.5953 23 12.375C23 12.1242 23 11.8758 23 11.625C22.993 11.5945 22.9836 11.5641 22.9813 11.5336C22.9109 10.6172 22.6508 9.75469 22.175 8.96953C21.2234 7.39922 19.8453 6.43125 18.0359 6.09141C17.818 6.05156 17.5977 6.03047 17.3773 6C17.1266 6 16.8781 6 16.6273 6C16.482 6.01875 16.3344 6.03281 16.1891 6.05391C14.9961 6.225 13.9391 6.70313 13.0391 7.50469C11.9938 8.43047 11.3422 9.58125 11.0938 10.9547C11.0539 11.1773 11.0305 11.4023 11 11.625ZM16.5031 11.5031C16.5031 11.4352 16.5031 11.3883 16.5031 11.3414C16.5031 10.6969 16.5055 10.0523 16.5031 9.40781C16.5031 9.17578 16.5992 9.00703 16.8102 8.91562C17.1383 8.775 17.4945 9.01406 17.4969 9.37969C17.5016 10.0406 17.4992 10.6992 17.4992 11.3602C17.4992 11.4047 17.4992 11.4492 17.4992 11.5031C17.5648 11.5031 17.6117 11.5031 17.6586 11.5031C18.3078 11.5031 18.9547 11.5031 19.6039 11.5031C19.8383 11.5031 20.0141 11.6203 20.0914 11.8172C20.2227 12.15 19.9836 12.4945 19.6133 12.4969C18.957 12.5016 18.3008 12.4992 17.6445 12.4992C17.6 12.4992 17.5531 12.4992 17.4992 12.4992C17.4992 12.5625 17.4992 12.6094 17.4992 12.6562C17.4992 13.3055 17.4992 13.9523 17.4992 14.6016C17.4992 14.8266 17.4031 14.9953 17.1969 15.0867C16.8664 15.2344 16.5078 14.993 16.5055 14.618C16.5008 13.9617 16.5031 13.3055 16.5031 12.6492C16.5031 12.6047 16.5031 12.5578 16.5031 12.4992C16.4422 12.4992 16.3953 12.4992 16.3508 12.4992C15.7016 12.4992 15.0547 12.4992 14.4055 12.4992C14.1734 12.4992 14.0047 12.4008 13.9133 12.1898C13.7727 11.8617 14.0141 11.5078 14.382 11.5055C15.0383 11.5008 15.6945 11.5031 16.3508 11.5031C16.3953 11.5008 16.4398 11.5031 16.5031 11.5031Z" fill="white"/>
<defs>
<linearGradient id="paint0_linear_0_1" x1="78.4468" y1="18.6177" x2="12.9988" y2="3.64394" gradientUnits="userSpaceOnUse">
<stop stop-color="#3250C4"/>
<stop offset="1" stop-color="#607CE8"/>
</linearGradient>
</defs>
</svg>
