<svg width="196" height="26" viewBox="0 0 196 26" fill="none" xmlns="http://www.w3.org/2000/svg">
<path d="M2.41369 9.10204H4.99102L0.695471 0.979592H4.99102L14.114 18.2449L23.196 0.979592H24.5869L28.187 24.9796H24.1369L22.0096 11.2653L14.7685 24.9796H13.3776L6.17742 11.3878L4.05009 24.9796H0L2.41369 9.10204ZM33.0553 0.979592H48.642V4.81633H37.1872V11.0612H46.1465V14.898H37.1872V21.1429H48.642V24.9796H33.0553V8.16327L37.1872 4.85714H33.0553V0.979592ZM51.7921 4.81633V0.979592H71.5926V4.81633H51.7921ZM63.7378 24.9796H59.6059V8.16327L63.7378 4.85714V24.9796ZM78.22 8.16327H81.5337L78.22 0.979592H82.5565L93.5613 24.9796H89.3066L87.752 21.6327H76.3381L74.7836 24.9796H70.488L78.22 8.16327ZM85.952 17.7959L82.0246 9.30612L78.1382 17.7959H85.952ZM90.493 0.979592H94.7886L101.989 16.6122L109.271 0.979592H113.525L102.357 25.3469H101.539L99.8205 21.3061L101.498 17.7143H98.1841L90.493 0.979592ZM117.412 0.979592H132.958V4.81633H121.503V11.0612H130.503V14.898H121.544V21.1429H132.999V24.9796H117.412V8.16327L121.544 4.85714H117.412V0.979592ZM145.108 0.979592C154.599 0.979592 155.785 12.0408 148.667 14.8163L155.663 25.0204H150.753L144.249 15.4694H141.631V25.0204H137.499V8.16327L141.549 4.85714H137.499V0.979592H145.108ZM141.631 4.85714V11.551H145.108C150.344 11.551 150.303 4.85714 145.108 4.85714H141.631ZM175.872 19.1429C175.872 23.7959 171.249 26 167.158 26C163.599 26 159.958 24.7347 157.79 21.8367L160.981 19.3469C162.495 21.3878 164.949 22 167.322 22C169.163 22 171.863 21.3061 171.863 19.0612C171.863 14.6531 159.795 14.898 158.608 8.2449H162.822C164.745 11.2653 175.872 11.4694 175.872 19.1429ZM158.772 4.77551C159.836 1.59184 163.149 0 166.708 0C169.818 0 172.968 1.34694 175.177 3.55102L172.477 6.57143C170.881 4.97959 168.836 4.08163 166.586 4.08163C164.54 4.08163 162.536 4.81633 162.536 7.18367C162.536 7.42857 162.577 7.63265 162.658 7.83673L158.772 4.77551ZM180.413 0.979592H195.959V4.81633H184.504V11.0612H193.504V14.898H184.545V21.1429H196V24.9796H180.413V8.16327L184.545 4.85714H180.413V0.979592Z" fill="url(#paint0_linear_26_429)"/>
<defs>
<linearGradient id="paint0_linear_26_429" x1="98" y1="0" x2="98" y2="26" gradientUnits="userSpaceOnUse">
<stop stop-color="#D54EC7"/>
<stop offset="1" stop-color="#714ED5"/>
</linearGradient>
</defs>
</svg>
