<svg width="122" height="94" viewBox="0 0 122 94" fill="none" xmlns="http://www.w3.org/2000/svg">
<rect width="122" height="94" rx="8" fill="url(#paint0_linear_2160_1259)"/>
<mask id="mask0_2160_1259" style="mask-type:alpha" maskUnits="userSpaceOnUse" x="0" y="0" width="122" height="94">
<rect width="122" height="94" rx="8" fill="#006776"/>
</mask>
<g mask="url(#mask0_2160_1259)">
<path d="M85.7971 25.4966C97.4269 5.00158 115.482 19.7867 122.482 36.4865C126.901 45.8947 139.199 42.678 144.668 54.3387C150.137 65.9993 130.118 65.4834 138.219 83.5935C146.319 101.704 117.529 117.698 105.816 106.502C94.1041 95.3058 93.4849 102.22 73.4142 99.3818C53.3434 96.5441 46.0168 65.277 63.4562 57.4344C80.8956 49.5919 73.2077 47.6828 85.7971 25.4966Z" stroke="#FFEFCA" stroke-opacity="0.3" stroke-width="0.3"/>
<path d="M97.9497 62.6488C98.9681 60.6075 103.832 60.535 104.705 63.5145C105.504 66.2429 107.951 67.3886 108.707 69.0053C110.7 73.2615 108.951 72.7115 109.003 75.4525C109.067 78.788 105.594 83.8829 101.687 79.976C98.4734 76.7627 97.8742 79.2848 94.7765 77.5702C91.6789 75.8556 90.1273 71.9498 93.2263 68.8508C94.39 67.687 96.2535 66.0486 97.9497 62.6488Z" stroke="#FFEFCA" stroke-opacity="0.3" stroke-width="0.3"/>
<path d="M86.9789 28.7953C97.644 9.97788 114.5 23.4123 120.943 38.8648C125.033 47.6657 136.435 44.8457 141.476 55.5932C146.629 66.5807 128.271 66.0617 135.64 82.7747C143.009 99.5416 116.521 114.545 105.518 104.012C94.5783 93.5412 93.961 100.056 75.4332 97.3202C56.9054 94.5845 50.1038 65.8048 66.2396 58.3935C82.1993 51.1581 75.3798 49.2736 86.9789 28.7953Z" stroke="#FFEFCA" stroke-opacity="0.3" stroke-width="0.3"/>
<path d="M88.1529 32.094C97.8533 14.9542 113.51 27.038 119.396 41.2432C123.157 49.4368 133.664 47.0133 138.276 56.8478C143.113 67.1622 126.416 66.6401 133.053 81.9558C139.692 97.3797 115.505 111.393 105.212 101.522C95.0447 91.7768 94.4291 97.8921 77.4444 95.2585C60.4596 92.625 54.1831 66.3327 69.0151 59.3526C83.4953 52.7244 77.544 50.8645 88.1529 32.094Z" stroke="#FFEFCA" stroke-opacity="0.3" stroke-width="0.3"/>
<path d="M89.3502 35.3962C98.086 19.9341 112.543 30.6671 117.872 43.625C121.304 51.2114 130.915 49.1845 135.099 58.1059C139.62 67.7472 124.584 67.222 130.489 81.1405C136.398 95.2212 114.512 108.243 104.929 99.0349C95.5344 90.0158 94.9207 95.7319 79.479 93.2004C64.0372 90.669 58.2856 66.8641 71.814 60.3152C84.8146 54.2941 79.7317 52.4589 89.3502 35.3962Z" stroke="#FFEFCA" stroke-opacity="0.3" stroke-width="0.3"/>
<path d="M90.5318 38.6947C98.3029 24.9101 111.561 34.2924 116.333 46.0031C119.436 52.9822 128.151 51.3519 131.907 59.3602C136.112 68.3283 122.737 67.8 127.91 80.3214C133.088 93.0589 113.504 105.09 104.63 96.5444C96.0085 88.251 95.3966 93.5679 81.4979 91.1385C67.5992 88.7092 62.3726 67.3916 74.5973 61.274C86.1182 55.8601 81.9036 54.0495 90.5318 38.6947Z" stroke="#FFEFCA" stroke-opacity="0.3" stroke-width="0.3"/>
<path d="M91.6521 42.0467C98.4585 29.9398 110.517 37.9714 114.732 48.4348C117.506 54.8067 125.326 53.5729 128.653 60.6681C132.542 68.9631 120.828 68.4317 125.27 79.5559C129.717 90.9503 112.435 101.99 104.27 94.1075C96.4212 86.5399 95.8111 91.4575 83.4554 89.1302C71.0997 86.803 66.3981 67.9729 77.3191 62.2865C87.3605 57.4797 84.0141 55.6937 91.6521 42.0467Z" stroke="#FFEFCA" stroke-opacity="0.3" stroke-width="0.3"/>
<path d="M92.7167 45.4632C98.5585 35.0339 109.418 41.7148 113.076 50.9309C115.521 56.6955 122.445 55.8584 125.344 62.0405C128.917 69.6623 118.863 69.1278 122.574 78.8548C126.291 88.906 111.31 98.9554 103.855 91.7351C96.7783 84.8932 96.17 89.4115 85.3573 87.1864C74.5446 84.9612 70.368 68.6185 79.9854 63.3633C88.5471 59.1637 86.0691 57.4023 92.7167 45.4632Z" stroke="#FFEFCA" stroke-opacity="0.3" stroke-width="0.3"/>
<path d="M93.7779 48.8824C98.655 40.1306 108.315 45.4609 111.416 53.4296C113.532 58.587 119.561 58.1464 122.031 63.4155C125.288 70.3642 116.896 69.8266 119.874 78.1564C122.86 86.8645 110.181 95.9229 103.436 89.3653C97.1319 83.2491 96.5254 87.3682 87.2557 85.2452C77.986 83.1221 74.3344 69.2668 82.6481 64.4428C89.7303 60.8504 88.1205 59.1136 93.7779 48.8824Z" stroke="#FFEFCA" stroke-opacity="0.3" stroke-width="0.3"/>
<path d="M94.8341 52.3072C98.7465 45.233 107.208 49.2126 109.752 55.934C111.538 60.4842 116.672 60.4402 118.714 64.7961C121.654 71.0717 114.923 70.531 117.17 77.4636C119.425 84.8285 109.047 92.8961 103.012 87.0012C97.4805 81.6107 96.8759 85.3306 89.1492 83.3096C81.4225 81.2887 78.2959 69.9207 85.3059 65.528C90.9085 62.5427 90.167 60.8305 94.8341 52.3072Z" stroke="#FFEFCA" stroke-opacity="0.3" stroke-width="0.3"/>
<path d="M95.8908 55.7425C98.8385 50.346 106.101 52.9749 108.087 58.449C109.545 62.3919 113.783 62.7445 115.396 66.1873C118.021 71.7898 112.95 71.246 114.466 76.7814C115.99 82.8032 107.914 89.8799 102.588 84.6476C97.8296 79.9829 97.2268 83.3035 91.0431 81.3846C84.8594 79.4658 82.2578 70.5852 87.9642 66.6237C92.0871 64.2456 92.214 62.5581 95.8908 55.7425Z" stroke="#FFEFCA" stroke-opacity="0.3" stroke-width="0.3"/>
<path d="M96.9286 59.1871C98.9117 55.4682 104.974 56.7464 106.404 60.9732C107.533 64.3089 110.875 65.058 112.06 67.5878C114.368 72.5171 110.959 71.9702 111.743 76.1084C112.537 80.7871 106.762 86.8729 102.146 82.3033C98.1599 78.3643 97.5589 81.2856 92.9182 79.4689C88.2775 77.6522 86.2009 71.259 90.6036 67.7287C93.247 65.9578 94.2421 64.2948 96.9286 59.1871Z" stroke="#FFEFCA" stroke-opacity="0.3" stroke-width="0.3"/>
</g>
<defs>
<linearGradient id="paint0_linear_2160_1259" x1="0" y1="0" x2="125.053" y2="4.25448" gradientUnits="userSpaceOnUse">
<stop stop-color="#006776"/>
<stop offset="0.5" stop-color="#1399AC"/>
<stop offset="1" stop-color="#006776"/>
</linearGradient>
</defs>
</svg>
