<svg width="41" height="41" viewBox="0 0 41 41" fill="none" xmlns="http://www.w3.org/2000/svg">
<g clip-path="url(#clip0_2159_1232)">
<g filter="url(#filter0_d_2159_1232)">
<path d="M20.2218 30.5097L9.97176 34.4335C9.4993 34.6097 9.00281 34.2494 9.02684 33.7449L9.58738 22.7822C9.59539 22.614 9.53934 22.4459 9.43523 22.3097L2.5325 13.7734C2.21219 13.381 2.40437 12.7964 2.89285 12.6603L13.4952 9.80952C13.6634 9.76147 13.8075 9.65737 13.8956 9.51323L19.8854 0.320264C20.1577 -0.10415 20.7823 -0.10415 21.0546 0.320264L27.0444 9.52124C27.1405 9.66538 27.2847 9.76948 27.4448 9.81753L38.0472 12.6683C38.5356 12.7964 38.7278 13.389 38.4075 13.7814L31.5128 22.3177C31.4087 22.4539 31.3526 22.622 31.3606 22.7902L31.9212 33.7529C31.9452 34.2574 31.4487 34.6177 30.9763 34.4416L20.7262 30.5177C20.5581 30.4537 20.3819 30.4537 20.2218 30.5097Z" fill="#F3C009"/>
</g>
<path d="M36.5234 4.14015L33.2402 0.856948C33.1441 0.760854 33.0159 0.720815 32.8878 0.73683C32.7597 0.752846 32.6396 0.832924 32.5755 0.945034L29.1882 7.61554C29.0921 7.78371 29.1241 7.9839 29.2603 8.12003C29.3404 8.20011 29.4525 8.24015 29.5566 8.24015C29.6286 8.24015 29.7007 8.22413 29.7648 8.1841L36.4273 4.8048C36.5394 4.74074 36.6195 4.62863 36.6355 4.49249C36.6595 4.36437 36.6114 4.23624 36.5234 4.14015Z" fill="#F3C009"/>
<path d="M11.9431 7.62335L8.55578 0.952846C8.49171 0.840737 8.3796 0.760658 8.24347 0.744643C8.11535 0.728627 7.97921 0.768666 7.89113 0.86476L4.60792 4.14796C4.51183 4.24406 4.47179 4.37218 4.48781 4.50031C4.50382 4.62843 4.5839 4.74855 4.69601 4.81261L11.3665 8.19992C11.4306 8.23996 11.5027 8.25597 11.5747 8.25597C11.6868 8.25597 11.7909 8.21593 11.871 8.13585C12.0071 7.99171 12.0312 7.78351 11.9431 7.62335Z" fill="#F3C009"/>
<path d="M23.2092 40.4553L20.887 33.3443C20.871 33.2723 20.8309 33.2082 20.7829 33.1602C20.7028 33.0801 20.5987 33.04 20.4866 33.04C20.2944 33.04 20.1342 33.1682 20.0782 33.3523L17.7559 40.4633C17.7239 40.5914 17.7479 40.7275 17.828 40.8316C17.9081 40.9357 18.0282 40.9998 18.1643 40.9998H22.8008C22.929 40.9998 23.0571 40.9357 23.1372 40.8316C23.2253 40.7195 23.2493 40.5834 23.2092 40.4553Z" fill="#F3C009"/>
</g>
<defs>
<filter id="filter0_d_2159_1232" x="-0.625" y="-2.99805" width="42.1875" height="40.4849" filterUnits="userSpaceOnUse" color-interpolation-filters="sRGB">
<feFlood flood-opacity="0" result="BackgroundImageFix"/>
<feColorMatrix in="SourceAlpha" type="matrix" values="0 0 0 0 0 0 0 0 0 0 0 0 0 0 0 0 0 0 127 0" result="hardAlpha"/>
<feOffset/>
<feGaussianBlur stdDeviation="1.5"/>
<feComposite in2="hardAlpha" operator="out"/>
<feColorMatrix type="matrix" values="0 0 0 0 0.952941 0 0 0 0 0.694118 0 0 0 0 0.0352941 0 0 0 1 0"/>
<feBlend mode="normal" in2="BackgroundImageFix" result="effect1_dropShadow_2159_1232"/>
<feBlend mode="normal" in="SourceGraphic" in2="effect1_dropShadow_2159_1232" result="shape"/>
</filter>
<clipPath id="clip0_2159_1232">
<rect width="41" height="41" fill="white"/>
</clipPath>
</defs>
</svg>
