<svg width="122" height="94" viewBox="0 0 122 94" fill="none" xmlns="http://www.w3.org/2000/svg">
<rect width="122" height="94" rx="8" fill="url(#paint0_linear_2159_921)"/>
<mask id="mask0_2159_921" style="mask-type:alpha" maskUnits="userSpaceOnUse" x="0" y="0" width="122" height="94">
<rect width="122" height="94" rx="8" fill="#0C3C88"/>
</mask>
<g mask="url(#mask0_2159_921)">
<path d="M67.3992 92.784C67.6728 92.4189 67.6696 91.712 67.392 91.205C67.1144 90.698 66.6676 90.5829 66.3939 90.9479C66.1203 91.313 66.1235 92.0199 66.4011 92.5269C66.6787 93.0339 67.1255 93.149 67.3992 92.784Z" fill="#F3BF09"/>
<path d="M70.9695 88.0213C71.2432 87.6563 71.24 86.9493 70.9624 86.4423C70.6848 85.9353 70.2379 85.8202 69.9642 86.1853C69.6906 86.5503 69.6938 87.2572 69.9714 87.7642C70.249 88.2712 70.6959 88.3863 70.9695 88.0213Z" fill="#F3BF09"/>
<path d="M75.0382 95.457C74.7904 95.7875 74.3912 95.6846 74.1399 95.2256C73.8886 94.7666 73.8857 94.135 74.1334 93.8046C74.3812 93.4741 74.7804 93.5769 75.0317 94.0359C75.2831 94.4949 75.2859 95.1265 75.0382 95.457Z" fill="#F3BF09"/>
<path d="M74.5398 83.2615C74.8135 82.8965 74.8103 82.1896 74.5327 81.6826C74.2551 81.1756 73.8082 81.0605 73.5345 81.4255C73.2609 81.7905 73.2641 82.4974 73.5417 83.0044C73.8193 83.5114 74.2662 83.6265 74.5398 83.2615Z" fill="#F3BF09"/>
<path d="M78.6085 90.6977C78.3607 91.0282 77.9615 90.9254 77.7102 90.4663C77.4589 90.0073 77.456 89.3758 77.7037 89.0453C77.9515 88.7148 78.3507 88.8176 78.6021 89.2767C78.9029 89.6696 78.9058 90.3012 78.6085 90.6977Z" fill="#F3BF09"/>
<path d="M78.1492 78.4412C78.4228 78.0762 78.4196 77.3693 78.142 76.8622C77.8644 76.3552 77.4176 76.2401 77.1439 76.6052C76.8703 76.9702 76.8735 77.6771 77.1511 78.1841C77.4287 78.6911 77.8755 78.8062 78.1492 78.4412Z" fill="#F3BF09"/>
<path d="M82.2179 85.8774C81.9701 86.2079 81.5709 86.105 81.3196 85.646C81.0682 85.187 81.0654 84.5554 81.3131 84.225C81.5609 83.8945 81.9601 83.9973 82.2114 84.4563C82.4627 84.9154 82.4656 85.5469 82.2179 85.8774Z" fill="#F3BF09"/>
<path d="M86.3429 93.4052C86.0951 93.7357 85.6959 93.6329 85.4446 93.1739C85.1932 92.7149 85.1904 92.0833 85.4381 91.7528C85.6859 91.4223 86.0851 91.5252 86.3364 91.9842C86.5877 92.4432 86.5906 93.0748 86.3429 93.4052Z" fill="#F3BF09"/>
<path d="M85.796 81.1113C85.5482 81.4418 85.149 81.3389 84.8977 80.8799C84.6464 80.4209 84.6435 79.7893 84.8912 79.4589C85.139 79.1284 85.5382 79.2312 85.7896 79.6902C86.0904 80.0831 86.0437 80.7808 85.796 81.1113Z" fill="#F3BF09"/>
<path d="M89.921 88.6391C89.6732 88.9696 89.274 88.8668 89.0227 88.4078C88.7714 87.9487 88.7685 87.3172 89.0162 86.9867C89.264 86.6562 89.6632 86.7591 89.9146 87.2181C90.1659 87.6771 90.1687 88.3086 89.921 88.6391Z" fill="#F3BF09"/>
<path d="M85.3445 68.8528C85.6182 68.4878 85.615 67.7809 85.3374 67.2739C85.0598 66.7669 84.6129 66.6518 84.3392 67.0168C84.0656 67.3818 84.0688 68.0887 84.3464 68.5957C84.624 69.1028 85.0709 69.2178 85.3445 68.8528Z" fill="#F3BF09"/>
<path d="M97.6069 91.2526C97.8258 90.9605 97.8232 90.395 97.6011 89.9894C97.3791 89.5838 97.0216 89.4917 96.8026 89.7837C96.5837 90.0758 96.5863 90.6413 96.8084 91.0469C97.0304 91.4525 97.3879 91.5446 97.6069 91.2526Z" fill="#F3BF09"/>
<path d="M88.907 64.095C89.1807 63.73 89.1775 63.0231 88.8999 62.5161C88.6223 62.009 88.1754 61.894 87.9017 62.259C87.6281 62.624 87.6313 63.3309 87.9089 63.8379C88.1865 64.3449 88.6334 64.46 88.907 64.095Z" fill="#F3BF09"/>
<path d="M101.169 86.4948C101.388 86.2027 101.386 85.6372 101.164 85.2316C100.942 84.826 100.584 84.7339 100.365 85.0259C100.146 85.318 100.149 85.8835 100.371 86.2891C100.593 86.6947 100.95 86.7868 101.169 86.4948Z" fill="#F3BF09"/>
<path d="M105.238 93.9314C105.04 94.1958 104.74 94.1187 104.539 93.7515C104.338 93.3843 104.336 92.9106 104.534 92.6462C104.733 92.3819 105.032 92.459 105.233 92.8262C105.434 93.1934 105.436 93.6671 105.238 93.9314Z" fill="#F3BF09"/>
<path d="M92.4773 59.3396C92.751 58.9746 92.7478 58.2677 92.4702 57.7607C92.1926 57.2537 91.7457 57.1386 91.472 57.5036C91.1984 57.8686 91.2016 58.5756 91.4792 59.0826C91.7568 59.5896 92.2037 59.7047 92.4773 59.3396Z" fill="#F3BF09"/>
<path d="M108.808 89.1771C108.61 89.4414 108.311 89.3643 108.11 88.9971C107.909 88.6299 107.906 88.1562 108.105 87.8918C108.303 87.6275 108.602 87.7046 108.803 88.0718C109.054 88.3729 109.007 88.9127 108.808 89.1771Z" fill="#F3BF09"/>
<path d="M96.0945 54.5081C96.3682 54.1431 96.365 53.4361 96.0874 52.9291C95.8098 52.4221 95.3629 52.307 95.0892 52.6721C94.8156 53.0371 94.8188 53.744 95.0964 54.251C95.374 54.758 95.8209 54.8731 96.0945 54.5081Z" fill="#F3BF09"/>
<path d="M112.426 84.345C112.227 84.6094 111.928 84.5323 111.727 84.1651C111.526 83.7979 111.524 83.3242 111.722 83.0598C111.92 82.7954 112.219 82.8725 112.421 83.2398C112.622 83.607 112.624 84.0806 112.426 84.345Z" fill="#F3BF09"/>
<path d="M116.551 91.8714C116.352 92.1358 116.053 92.0586 115.852 91.6914C115.651 91.3242 115.649 90.8505 115.847 90.5862C116.045 90.3218 116.344 90.3989 116.546 90.7661C116.697 91.1994 116.699 91.6731 116.551 91.8714Z" fill="#F3BF09"/>
<path d="M99.657 49.7527C99.9307 49.3877 99.9275 48.6808 99.6499 48.1738C99.3723 47.6668 98.9254 47.5517 98.6517 47.9167C98.3781 48.2817 98.3813 48.9886 98.6589 49.4957C98.9365 50.0027 99.3834 50.1178 99.657 49.7527Z" fill="#F3BF09"/>
<path d="M115.988 79.5892C115.79 79.8535 115.49 79.7764 115.289 79.4092C115.088 79.042 115.086 78.5683 115.284 78.3039C115.483 78.0396 115.782 78.1167 115.983 78.4839C116.184 78.8511 116.186 79.3248 115.988 79.5892Z" fill="#F3BF09"/>
<path d="M120.113 87.116C119.915 87.3804 119.615 87.3033 119.414 86.9361C119.213 86.5689 119.211 86.0952 119.409 85.8308C119.608 85.5664 119.907 85.6435 120.108 86.0107C120.309 86.378 120.311 86.8516 120.113 87.116Z" fill="#F3BF09"/>
<path d="M103.227 44.9939C103.501 44.6289 103.498 43.922 103.22 43.415C102.943 42.908 102.496 42.7929 102.222 43.1579C101.948 43.5229 101.952 44.2299 102.229 44.7369C102.507 45.2439 102.954 45.359 103.227 44.9939Z" fill="#F3BF09"/>
<path d="M107.296 52.4296C107.048 52.7601 106.649 52.6573 106.398 52.1983C106.146 51.7393 106.144 51.1077 106.391 50.7772C106.639 50.4468 107.038 50.5496 107.29 51.0086C107.59 51.4015 107.593 52.0331 107.296 52.4296Z" fill="#F3BF09"/>
<path d="M115.49 67.3942C115.291 67.6585 114.892 67.5557 114.691 67.1885C114.49 66.8213 114.487 66.1897 114.685 65.9253C114.884 65.661 115.283 65.7638 115.484 66.131C115.685 66.4982 115.737 67.0637 115.49 67.3942Z" fill="#F3BF09"/>
<path d="M119.558 74.8309C119.36 75.0952 119.061 75.0181 118.86 74.6509C118.659 74.2837 118.656 73.81 118.855 73.5456C119.053 73.2813 119.352 73.3584 119.553 73.7256C119.804 74.0267 119.806 74.5004 119.558 74.8309Z" fill="#F3BF09"/>
<path d="M106.845 40.1717C107.118 39.8066 107.115 39.0997 106.837 38.5927C106.56 38.0857 106.113 37.9706 105.839 38.3356C105.566 38.7007 105.569 39.4076 105.846 39.9146C106.124 40.4216 106.571 40.5367 106.845 40.1717Z" fill="#F3BF09"/>
<path d="M110.913 47.6079C110.665 47.9383 110.266 47.8355 110.015 47.3765C109.764 46.9175 109.761 46.2859 110.008 45.9554C110.256 45.625 110.655 45.7278 110.907 46.1868C111.158 46.6458 111.161 47.2774 110.913 47.6079Z" fill="#F3BF09"/>
<path d="M115.038 55.1352C115.284 54.8067 115.282 54.1705 115.032 53.7142C114.782 53.2578 114.38 53.1543 114.133 53.4828C113.887 53.8113 113.89 54.4475 114.14 54.9038C114.39 55.3602 114.792 55.4637 115.038 55.1352Z" fill="#F3BF09"/>
<path d="M119.107 62.5714C119.326 62.2794 119.323 61.7139 119.101 61.3083C118.879 60.9027 118.522 60.8106 118.303 61.1026C118.084 61.3946 118.086 61.9602 118.308 62.3658C118.53 62.7714 118.888 62.8634 119.107 62.5714Z" fill="#F3BF09"/>
<path d="M110.415 35.4065C110.688 35.0415 110.685 34.3346 110.408 33.8276C110.13 33.3206 109.683 33.2055 109.41 33.5705C109.136 33.9355 109.139 34.6425 109.417 35.1495C109.694 35.6565 110.141 35.7716 110.415 35.4065Z" fill="#F3BF09"/>
<path d="M114.483 42.8427C114.236 43.1732 113.836 43.0704 113.585 42.6114C113.334 42.1524 113.331 41.5208 113.579 41.1903C113.826 40.8598 114.226 40.9627 114.477 41.4217C114.778 41.8146 114.731 42.5123 114.483 42.8427Z" fill="#F3BF09"/>
<path d="M118.608 50.3706C118.855 50.042 118.852 49.4058 118.602 48.9495C118.352 48.4932 117.95 48.3896 117.704 48.7181C117.457 49.0467 117.46 49.6829 117.71 50.1392C117.96 50.5955 118.362 50.6991 118.608 50.3706Z" fill="#F3BF09"/>
<path d="M122.677 57.8068C122.896 57.5147 122.894 56.9492 122.671 56.5436C122.449 56.138 122.092 56.0459 121.873 56.3379C121.654 56.63 121.657 57.1955 121.879 57.6011C122.101 58.0067 122.458 58.0988 122.677 57.8068Z" fill="#F3BF09"/>
<path d="M114.032 30.5852C114.306 30.2202 114.302 29.5133 114.025 29.0063C113.747 28.4993 113.3 28.3842 113.027 28.7492C112.753 29.1142 112.756 29.8212 113.034 30.3282C113.311 30.8352 113.758 30.9503 114.032 30.5852Z" fill="#F3BF09"/>
<path d="M118.101 38.021C117.853 38.3514 117.454 38.2486 117.202 37.7896C116.951 37.3306 116.948 36.699 117.196 36.3685C117.444 36.0381 117.843 36.1409 118.094 36.5999C118.346 37.0589 118.348 37.6905 118.101 38.021Z" fill="#F3BF09"/>
<path d="M122.226 45.5488C121.978 45.8793 121.579 45.7764 121.327 45.3174C121.076 44.8584 121.073 44.2268 121.321 43.8964C121.569 43.5659 121.968 43.6687 122.219 44.1277C122.471 44.5867 122.424 45.2844 122.226 45.5488Z" fill="#F3BF09"/>
<path d="M117.595 25.8274C117.868 25.4624 117.865 24.7555 117.587 24.2485C117.31 23.7415 116.863 23.6264 116.589 23.9914C116.316 24.3564 116.319 25.0634 116.596 25.5704C116.874 26.0774 117.321 26.1925 117.595 25.8274Z" fill="#F3BF09"/>
<path d="M121.663 33.2631C121.415 33.5936 121.016 33.4908 120.765 33.0318C120.514 32.5728 120.511 31.9412 120.758 31.6107C121.006 31.2802 121.405 31.3831 121.657 31.8421C121.908 32.3011 121.911 32.9327 121.663 33.2631Z" fill="#F3BF09"/>
<path d="M121.165 21.0706C121.438 20.7056 121.435 19.9986 121.158 19.4916C120.88 18.9846 120.433 18.8695 120.16 19.2346C119.886 19.5996 119.889 20.3065 120.167 20.8135C120.444 21.3205 120.891 21.4356 121.165 21.0706Z" fill="#F3BF09"/>
</g>
<defs>
<linearGradient id="paint0_linear_2159_921" x1="0" y1="0" x2="125.053" y2="4.25448" gradientUnits="userSpaceOnUse">
<stop stop-color="#0C3C88"/>
<stop offset="0.5" stop-color="#1A56B6"/>
<stop offset="1" stop-color="#0C3C88"/>
</linearGradient>
</defs>
</svg>
