<svg width="122" height="94" viewBox="0 0 122 94" fill="none" xmlns="http://www.w3.org/2000/svg">
<rect width="122" height="94" rx="8" fill="url(#paint0_linear_2159_854)"/>
<mask id="mask0_2159_854" style="mask-type:alpha" maskUnits="userSpaceOnUse" x="0" y="0" width="122" height="94">
<rect width="122" height="94" rx="8" fill="#482193"/>
</mask>
<g mask="url(#mask0_2159_854)">
<path d="M176.007 22.1348C149.141 6.47332 106.964 28.426 87.1248 54.2505C64.2657 84.0128 76.5979 111.728 52.5161 129.112C30.5472 144.981 9.04011 129.997 -6.05356 142.496C-19.9243 153.983 -24.7343 185.659 8.37761 270.183" stroke="#8170E0" stroke-width="0.4" stroke-miterlimit="10"/>
<path d="M12.4584 270.611C-20.1095 187.226 -15.7698 155.159 -2.29558 143.041C7.70496 134.071 20.8428 137.926 35.0526 135.937C42.267 135.04 49.1453 132.366 55.0699 128.154C74.4907 114.37 71.2181 94.4592 81.305 71.3283C83.8612 65.4208 87.1032 59.8344 90.964 54.6841C110.497 28.4495 150.329 5.26543 176.728 19.7072" stroke="#8170E0" stroke-width="0.4" stroke-miterlimit="10"/>
<path d="M16.5358 271.027C-15.4838 188.784 -11.62 156.342 1.43876 143.627C11.0389 134.281 23.8882 137.523 37.7145 135.205C44.861 134.097 51.6598 131.372 57.5927 127.238C76.8973 113.781 74.782 94.7889 85.1553 71.7754C87.7811 65.9188 91.0065 60.35 94.7797 55.158C114.089 28.5716 151.49 4.0945 177.422 17.3166" stroke="#8170E0" stroke-width="0.4" stroke-miterlimit="10"/>
<path d="M20.6014 271.442C-10.864 190.358 -7.4621 157.533 5.18189 144.193C14.3965 134.469 26.9358 137.109 40.3926 134.452C47.4619 133.141 54.18 130.37 60.1185 126.318C79.3201 113.173 78.3283 95.1327 89.0087 72.2189C91.6948 66.4024 94.9037 60.8419 98.5958 55.606C117.632 28.6357 152.647 2.90183 178.113 14.9042" stroke="#8170E0" stroke-width="0.4" stroke-miterlimit="10"/>
<path d="M24.6801 271.873C-6.24961 191.921 -3.31437 158.735 8.92469 144.758C17.7481 134.672 29.9938 136.688 43.0654 133.688C50.0618 132.171 56.7092 129.349 62.6595 125.369C81.7581 112.535 81.904 95.4379 92.8937 72.6123C95.644 66.8549 98.8334 61.3179 102.434 56.0503C121.201 28.692 153.835 1.70466 178.837 12.4832" stroke="#8170E0" stroke-width="0.4" stroke-miterlimit="10"/>
<path d="M28.7441 272.314C-1.63167 193.488 0.445041 159.605 12.6701 145.32C21.3847 135.115 33.0293 136.245 45.7425 132.935C52.658 131.21 59.2344 128.335 65.1974 124.432C84.1931 111.909 85.4699 95.7639 96.7502 73.0589C99.5565 67.3482 102.728 61.8243 106.244 56.5214C124.725 28.7619 154.99 0.530953 179.53 10.0931" stroke="#8170E0" stroke-width="0.4" stroke-miterlimit="10"/>
<path d="M32.8367 272.717C2.99282 195.055 5.02299 161.162 16.3905 145.87C24.4717 135.112 36.0956 135.813 48.4262 132.182C55.2556 130.252 61.763 127.326 67.7387 123.499C86.6313 111.287 89.0449 96.0777 100.619 73.4891C103.487 67.8288 106.643 62.3193 110.075 56.9826C128.287 28.8351 156.153 -0.662535 180.239 7.68974" stroke="#8170E0" stroke-width="0.4" stroke-miterlimit="10"/>
<path d="M36.9112 273.142C7.60153 196.63 9.16323 162.362 20.1583 146.452C27.8251 135.327 39.1291 135.343 51.0998 131.422C57.8372 129.289 64.2759 126.309 70.2615 122.552C89.052 110.659 92.6107 96.3922 104.469 73.9061C107.234 68.6782 110.275 63.1677 113.883 57.4273C131.816 28.8777 157.327 -1.84623 180.938 5.27978" stroke="#8170E0" stroke-width="0.4" stroke-miterlimit="10"/>
<path d="M40.9893 273.566C12.2344 198.188 13.3529 163.598 23.8929 147.012C31.1862 135.544 42.1737 134.872 53.7794 130.65C60.4231 128.312 66.8008 125.279 72.806 121.6C91.4936 110.017 96.1782 96.6915 108.346 74.3201C111.177 69.1108 114.217 63.6194 117.721 57.8648C135.35 28.9541 158.5 -3.03349 181.64 2.86953" stroke="#8170E0" stroke-width="0.4" stroke-miterlimit="10"/>
<path d="M45.0636 273.983C16.8537 199.751 17.5315 164.827 27.649 147.584C34.5695 135.782 45.2402 134.387 56.4522 129.909C62.9956 127.371 69.3131 124.286 75.3372 120.686C93.9251 109.411 99.7473 97.0285 112.191 74.7529C115.072 69.583 118.115 64.0875 121.52 58.322C138.873 28.9711 159.646 -4.24018 182.323 0.446433" stroke="#8170E0" stroke-width="0.4" stroke-miterlimit="10"/>
<path d="M49.14 274.407C21.4709 201.318 21.7196 166.063 31.3838 148.158C37.9358 136.026 48.2682 133.918 59.1295 129.163C65.5659 126.422 71.8243 123.281 77.8679 119.758C96.3495 108.798 103.305 97.3552 116.07 75.2042C119.026 70.0595 122.055 64.5732 125.361 58.8043C142.416 29.0423 160.829 -5.39856 183.046 -1.93999" stroke="#8170E0" stroke-width="0.4" stroke-miterlimit="10"/>
<path d="M53.2215 274.831C26.1007 202.884 25.9193 167.29 35.1402 148.712C41.3311 136.248 51.3201 133.416 61.8176 128.402C67.8502 125.518 73.9924 122.538 80.4168 118.813C98.7912 108.16 106.889 97.6644 119.947 75.6224C122.967 70.508 125.985 65.0267 129.202 59.2419C145.958 29.0689 162.015 -6.60576 183.766 -4.35942" stroke="#8170E0" stroke-width="0.4" stroke-miterlimit="10"/>
<path d="M57.2976 275.255C30.7375 204.46 30.0989 168.553 38.8854 149.281C44.711 136.482 54.3582 132.908 64.497 127.645C70.4805 124.539 76.5658 121.494 82.9537 117.875C101.238 107.544 110.453 97.9826 123.811 76.0487C126.9 70.9677 129.911 65.4874 133.018 59.7042C149.464 29.1178 163.175 -7.78821 184.464 -6.75828" stroke="#8170E0" stroke-width="0.4" stroke-miterlimit="10"/>
<path d="M61.3639 275.688C35.3387 206.018 34.3158 169.775 42.6275 149.851C48.1004 136.727 57.3891 132.397 67.1774 126.892C73.1069 123.554 79.1361 120.451 85.4785 116.959C103.65 106.925 114.009 98.3251 127.681 76.4826C130.833 71.4244 133.829 65.9533 136.845 60.1658C152.976 29.1552 164.34 -8.97799 185.166 -9.16447" stroke="#8170E0" stroke-width="0.4" stroke-miterlimit="10"/>
<path d="M65.4516 276.096C39.9648 207.58 38.527 171.03 46.3778 150.412C51.4971 136.956 60.4197 131.871 69.8552 126.135C75.7264 122.563 81.7146 119.4 88.0303 116.002C106.092 106.287 117.591 98.6189 131.547 76.9054C134.861 71.6302 137.903 66.1887 140.66 60.6023C156.49 29.1922 165.531 -10.175 185.872 -11.5752" stroke="#8170E0" stroke-width="0.4" stroke-miterlimit="10"/>
<path d="M69.5227 276.521C44.5842 209.147 42.7412 172.244 50.104 150.992C54.8739 137.205 63.4255 131.355 72.5329 125.374C78.3417 121.563 84.2822 118.35 90.5623 115.066C108.525 105.658 121.158 98.937 135.4 77.3409C138.774 72.1197 141.808 66.6866 144.484 61.0753C159.968 29.2107 166.683 -11.3524 186.559 -13.9989" stroke="#8170E0" stroke-width="0.4" stroke-miterlimit="10"/>
<path d="M73.599 276.945C49.2012 210.713 46.9897 173.48 53.8584 151.541C58.2806 137.44 66.4477 130.807 75.205 124.618C80.9472 120.565 86.8524 117.31 93.096 114.133C110.952 105.04 124.722 99.2552 139.271 77.7589C142.699 72.5876 145.722 67.1588 148.313 61.521C163.477 29.2554 167.855 -12.5399 187.28 -16.3929" stroke="#8170E0" stroke-width="0.4" stroke-miterlimit="10"/>
<path d="M77.6762 277.365C53.8401 212.293 51.1971 174.74 57.6015 152.11C61.6842 137.668 69.4495 130.265 77.879 123.865C83.5594 119.548 89.4196 116.264 95.6308 113.196C113.376 104.408 128.288 99.5773 143.138 78.1891C146.617 73.0663 149.629 67.6411 152.137 61.9789C166.967 29.2876 169.02 -13.73 187.983 -18.7995" stroke="#8170E0" stroke-width="0.4" stroke-miterlimit="10"/>
<path d="M81.7557 277.789C58.4305 213.864 55.4381 175.982 61.366 152.686C65.1108 137.917 72.4659 129.737 80.5868 123.128C86.1949 118.585 92.028 115.232 98.1961 112.279C115.846 103.809 131.888 99.915 147.022 78.6293C150.553 73.5551 153.554 68.1327 155.98 62.4468C170.471 29.3265 170.237 -14.918 188.708 -21.1928" stroke="#8170E0" stroke-width="0.4" stroke-miterlimit="10"/>
<path d="M85.8324 278.213C63.0686 215.413 59.6796 177.218 65.0951 153.242C68.5046 138.134 75.4379 129.176 83.2417 122.351C88.7498 117.539 94.5737 114.173 100.717 111.329C118.261 103.174 135.436 100.22 150.879 79.049C154.463 74.0252 157.454 68.6044 159.794 62.8942C173.931 29.3393 171.363 -16.1077 189.397 -23.6132" stroke="#8170E0" stroke-width="0.4" stroke-miterlimit="10"/>
<path d="M89.9119 278.63C67.693 216.975 63.9456 178.471 68.8306 153.82C71.9097 138.384 78.4096 128.646 85.9089 121.615C91.3212 116.538 97.1341 113.143 103.229 110.403C120.678 102.558 138.99 100.547 154.726 79.4854C158.359 74.5079 161.342 69.087 163.603 63.3541C177.335 29.359 172.526 -17.2785 190.095 -26.0154" stroke="#8170E0" stroke-width="0.4" stroke-miterlimit="10"/>
<path d="M93.9803 279.059C58.7982 180.853 69.8181 139.703 88.5971 120.842C109.096 100.251 136.956 108.174 158.604 79.8989C183.993 46.7262 170.803 -16.7982 190.802 -28.4303" stroke="#8170E0" stroke-width="0.4" stroke-miterlimit="10"/>
</g>
<defs>
<linearGradient id="paint0_linear_2159_854" x1="0" y1="0" x2="125.053" y2="4.25448" gradientUnits="userSpaceOnUse">
<stop stop-color="#482193"/>
<stop offset="0.5" stop-color="#7755C4"/>
<stop offset="1" stop-color="#482193"/>
</linearGradient>
</defs>
</svg>
