<svg width="64" height="64" viewBox="0 0 64 64" fill="none" xmlns="http://www.w3.org/2000/svg">
<path d="M32 64C49.6731 64 64 49.6731 64 32C64 14.3269 49.6731 0 32 0C14.3269 0 0 14.3269 0 32C0 49.6731 14.3269 64 32 64Z" fill="url(#paint0_linear_1001_10695)"/>
<path d="M50.193 21.2612H42.0432C40.605 21.2612 39.6701 22.7713 40.3173 24.0418L43.817 31.1129C44.0806 31.6642 44.0806 32.2874 43.817 32.8388L40.3173 39.9099C39.6701 41.2043 40.6289 42.6904 42.0432 42.6904H50.193C50.8881 42.6904 51.5113 42.3309 51.8709 41.7316L56.9525 32.9346C57.2881 32.3354 57.2881 31.5923 56.9525 30.9931L51.8709 22.1961C51.5353 21.6448 50.8881 21.2612 50.193 21.2612Z" fill="url(#paint1_linear_1001_10695)"/>
<path d="M16.7304 42.7378H24.0173C25.7431 42.7378 26.8697 40.9161 26.1027 39.382L22.9626 33.0539C22.651 32.4067 22.651 31.6397 22.9626 30.9925L26.1027 24.6644C26.8697 23.1063 25.7431 21.3086 24.0173 21.3086H16.7304C15.8914 21.3086 15.1244 21.764 14.7169 22.4831L9.87495 30.8726C9.46746 31.5917 9.46746 32.4786 9.87495 33.1977L14.7169 41.5872C15.1244 42.2824 15.8914 42.7378 16.7304 42.7378Z" fill="url(#paint2_linear_1001_10695)"/>
<path d="M38.3759 51.7031H19.6553C18.4088 51.7031 17.2583 51.032 16.6351 49.9533L7.28675 33.7496C6.66353 32.6709 6.66353 31.3286 7.28675 30.2499L16.6351 14.0462C17.2583 12.9675 18.4088 12.2964 19.6553 12.2964H38.3759C39.6223 12.2964 40.7729 12.9675 41.3961 14.0462L50.7444 30.2499C51.3676 31.3286 51.3676 32.6709 50.7444 33.7496L41.3961 49.9533C40.7729 51.032 39.6223 51.7031 38.3759 51.7031ZM21.0456 49.2822H36.9617C38.2081 49.2822 39.3587 48.611 39.9819 47.5323L47.9399 33.7496C48.5632 32.6709 48.5632 31.3286 47.9399 30.2499L39.9819 16.4672C39.3587 15.3885 38.2081 14.7174 36.9617 14.7174H21.0456C19.7991 14.7174 18.6485 15.3885 18.0253 16.4672L10.0673 30.2499C9.44406 31.3286 9.44406 32.6709 10.0673 33.7496L18.0253 47.5323C18.6485 48.611 19.7991 49.2822 21.0456 49.2822Z" fill="url(#paint3_linear_1001_10695)"/>
<defs>
<linearGradient id="paint0_linear_1001_10695" x1="32" y1="0" x2="32" y2="64" gradientUnits="userSpaceOnUse">
<stop stop-color="#CCFA82"/>
<stop offset="1" stop-color="#0DB4C8"/>
</linearGradient>
<linearGradient id="paint1_linear_1001_10695" x1="40.1015" y1="31.9996" x2="57.2084" y2="31.9996" gradientUnits="userSpaceOnUse">
<stop stop-color="white" stop-opacity="0.1"/>
<stop offset="1" stop-color="white"/>
</linearGradient>
<linearGradient id="paint2_linear_1001_10695" x1="9.54949" y1="31.9991" x2="26.3557" y2="31.9991" gradientUnits="userSpaceOnUse">
<stop stop-color="white" stop-opacity="0.1"/>
<stop offset="1" stop-color="white"/>
</linearGradient>
<linearGradient id="paint3_linear_1001_10695" x1="13.5731" y1="54.6117" x2="39.1411" y2="17.1549" gradientUnits="userSpaceOnUse">
<stop stop-color="white" stop-opacity="0.1"/>
<stop offset="1" stop-color="white"/>
</linearGradient>
</defs>
</svg>
