<svg width="87" height="105" viewBox="0 0 87 105" fill="none" xmlns="http://www.w3.org/2000/svg">
<g id="Group 1261159945">
<path id="Vector" d="M79.071 0H43.1055H7.14005C1.31555 0 0 20.3906 0 20.3906H9.64384H43.1161H76.5884H86.2322C86.2322 20.3906 84.9167 0 79.071 0Z" fill="#01330E"/>
<path id="Vector_2" d="M42.9897 0H6.98438C7.95089 0 8.78995 10.2166 9.4697 22.9533C10.0326 33.5576 10.4893 62.8734 10.7973 78.9624C10.9035 84.3672 13.5482 89.3615 17.8285 92.2121L31.8695 101.596C38.6775 106.135 47.2912 106.135 54.0993 101.596L68.1403 92.2235C72.4206 89.3729 75.0652 84.3786 75.1714 78.9738C75.4794 62.8848 75.9255 33.5576 76.4991 22.9647C77.1788 10.2166 78.0285 0 78.9844 0H42.9897Z" fill="#004612"/>
<g id="Mask group">
<mask id="mask0_1294_1236" style="mask-type:alpha" maskUnits="userSpaceOnUse" x="7" y="0" width="73" height="105">
<path id="Vector_3" d="M43.1672 0H7C7.97086 0 8.8137 10.2166 9.4965 22.9533C10.0619 33.5576 10.5207 62.8734 10.8301 78.9624C10.9368 84.3672 13.5933 89.3615 17.8928 92.2121L31.997 101.596C38.8357 106.135 47.4881 106.135 54.3268 101.596L68.4309 92.2235C72.7305 89.3729 75.387 84.3786 75.4937 78.9738C75.8031 62.8848 76.2512 33.5576 76.8273 22.9647C77.5101 10.2166 78.3636 0 79.3238 0H43.1672Z" fill="black"/>
</mask>
<g mask="url(#mask0_1294_1236)">
<g id="Group 1000003252" filter="url(#filter0_f_1294_1236)">
<ellipse id="Ellipse 4" cx="32.5384" cy="34.0602" rx="32.5384" ry="34.0602" transform="matrix(4.82933e-08 1 1 -3.95642e-08 -6.20312 -49.1136)" fill="#01BB3C"/>
</g>
<g id="Group 1000010428" filter="url(#filter1_f_1294_1236)">
<ellipse id="Ellipse 4_2" cx="47.4219" cy="49.6398" rx="47.4219" ry="49.6398" transform="matrix(4.82933e-08 1 1 -3.95642e-08 -21.5938 95.2565)" fill="#01BB3C"/>
</g>
</g>
</g>
</g>
<defs>
<filter id="filter0_f_1294_1236" x="-36.2031" y="-79.1136" width="128.117" height="125.077" filterUnits="userSpaceOnUse" color-interpolation-filters="sRGB">
<feFlood flood-opacity="0" result="BackgroundImageFix"/>
<feBlend mode="normal" in="SourceGraphic" in2="BackgroundImageFix" result="shape"/>
<feGaussianBlur stdDeviation="15" result="effect1_foregroundBlur_1294_1236"/>
</filter>
<filter id="filter1_f_1294_1236" x="-41.5938" y="75.2565" width="139.281" height="134.844" filterUnits="userSpaceOnUse" color-interpolation-filters="sRGB">
<feFlood flood-opacity="0" result="BackgroundImageFix"/>
<feBlend mode="normal" in="SourceGraphic" in2="BackgroundImageFix" result="shape"/>
<feGaussianBlur stdDeviation="10" result="effect1_foregroundBlur_1294_1236"/>
</filter>
</defs>
</svg>
