<svg width="43" height="40" viewBox="0 0 43 40" fill="none" xmlns="http://www.w3.org/2000/svg">
<g id="Group 1261158717">
<g id="Group 1261158714">
<path id="Vector" d="M16.3184 33.6768C15.9184 33.3928 15.5005 33.135 15.0672 32.905C15.1082 33.6986 15.3365 34.4712 15.7334 35.1596C16.4177 36.0299 17.1895 36.8276 18.0368 37.5401C17.0618 37.2273 16.1437 36.9755 15.0997 36.6667C15.0892 36.24 15.0223 35.8165 14.9007 35.4074C14.8044 35.0141 14.6683 34.6316 14.4944 34.2659C14.1833 33.737 13.7865 33.2634 13.3204 32.8644C12.9142 32.5069 12.5445 32.251 12.317 32.0844C12.2236 33.4656 12.5039 34.7859 14.8438 36.5895C13.8648 36.3011 12.9182 36.0046 11.9636 35.6349C11.9597 34.2682 11.5341 32.9361 10.7449 31.8203C10.4605 31.4466 10.2005 31.1622 10.034 30.9794C9.44494 32.7709 10.3508 34.3715 11.7117 35.5293C10.7749 35.1658 9.87228 34.7199 9.01433 34.1968C9.24715 32.5691 8.97193 30.9093 8.22624 29.4439C7.06847 31.1297 7.94187 33.1 8.77871 34.0465C7.94268 33.5152 7.17816 32.879 6.50381 32.1535L6.4713 32.121C6.77598 31.4547 7.46252 29.2083 6.83286 27.3233C5.65478 28.477 5.55728 30.167 6.13007 31.5807C6.17882 31.7025 6.23163 31.8122 6.28444 31.9138C5.62114 31.1575 5.05981 30.3176 4.61481 29.4154C5.12428 28.7657 5.49527 28.0186 5.70487 27.22C5.91447 26.4214 5.95825 25.5883 5.83351 24.7722C4.37107 25.7268 4.12327 27.7946 4.49295 29.1839C4.05231 28.2699 3.69474 27.3182 3.42455 26.3402C4.01538 25.7899 4.49094 25.1276 4.82359 24.3919C5.15625 23.6561 5.33937 22.8616 5.36229 22.0545C4.2289 22.5216 3.61142 23.6794 3.41236 24.8453C3.3335 25.2672 3.31708 25.6983 3.36362 26.1249C3.10059 25.1331 2.93327 24.1183 2.86394 23.0944C3.18017 22.8256 3.48253 22.5409 3.76985 22.2413C4.65838 21.4623 5.24739 20.3978 5.43541 19.2312C4.26952 19.4871 3.50986 20.4986 3.11175 21.5995C2.95416 22.0435 2.86778 22.5097 2.85582 22.9807C2.82739 22.5257 2.81521 22.0789 2.82333 21.6482C2.87908 19.3951 3.33863 17.1703 4.18015 15.0794C4.21671 14.9819 4.24921 14.9048 4.27764 14.8438C4.40358 14.7098 4.60263 14.4376 4.82199 14.1451C5.11448 13.7389 5.43541 13.3326 5.61009 13.028C6.15127 12.1438 6.56175 11.186 6.82879 10.1843C5.96231 10.7547 5.26834 11.5512 4.82199 12.4877C4.62772 12.9267 4.47275 13.3821 4.35889 13.8486C4.26778 14.1565 4.20389 14.4719 4.16796 14.791C4.14359 14.852 4.10703 14.9373 4.06641 15.0429C3.86329 15.5426 3.62361 16.2088 3.43268 16.8547C3.45706 16.6638 3.52611 16.091 3.61548 15.4491C3.66423 15.0957 3.71704 14.722 3.75766 14.3726C3.79978 14.0752 3.8215 13.7752 3.82266 13.4748C3.77486 12.7141 3.63853 11.9616 3.41643 11.2324C2.82574 12.2087 2.55185 13.344 2.6324 14.4823C2.70552 15.1444 2.95738 16.4322 3.41236 16.9197C3.1093 17.9368 2.89322 18.9778 2.76645 20.0314C2.5349 16.8222 2.76645 16.7044 1.71431 14.5188C0.723097 17.5412 2.18553 19.7999 2.7502 20.1858C2.63629 21.215 2.6159 22.2525 2.68927 23.2854C1.8118 20.3239 2.09616 20.1289 0.540286 18.0653C0.134052 21.1242 1.7143 23.0904 2.70957 23.525C2.79811 24.5347 2.97897 25.5342 3.24987 26.5109C1.74681 23.8257 2.00273 23.5616 0 21.8392C0.207179 25.3044 2.60396 26.6612 3.33518 26.8115C3.6179 27.7664 3.98355 28.6948 4.42795 29.5861C4.22483 29.3545 3.94047 29.0255 3.63985 28.668C3.57486 28.5908 3.50986 28.5136 3.44892 28.4324C2.43334 27.2137 2.20178 26.7424 0.199051 25.7106C1.1212 28.7858 3.40424 29.9314 4.58638 29.911C5.0476 30.7798 5.61529 31.5876 6.27632 32.3159L6.20319 32.2713L5.77258 31.995C5.61821 31.8894 5.4476 31.7797 5.28104 31.6578C3.68048 30.5488 3.6236 30.0898 1.17401 29.4764C2.29115 31.5075 3.97703 32.9212 6.26007 32.6856C6.31613 32.6818 6.37181 32.6736 6.42662 32.6612C6.47513 32.6539 6.52276 32.6416 6.5688 32.6247C7.25137 33.3135 8.01213 33.9202 8.83559 34.4324C8.66903 34.3877 8.16936 34.2496 7.70219 34.0993C5.71165 33.4493 5.60603 33.1284 2.99801 33.1162C5.54916 35.8989 8.36842 35.2571 9.2337 34.6762C10.0567 35.1481 10.9151 35.5556 11.8011 35.8949C8.49841 35.7039 8.3806 35.3871 5.86195 36.232C9.22151 38.186 11.8823 36.4677 12.2723 36.0777C13.1498 36.4067 14.0313 36.683 14.925 36.9551C14.2588 36.9836 12.0814 37.0892 11.4477 37.2801C10.6704 37.5481 9.9398 37.936 9.28245 38.4298C9.83415 38.5996 10.4018 38.7126 10.9764 38.7669C13.0076 38.9294 15.0631 37.5482 15.445 37.1095C16.2575 37.3492 17.1999 37.6295 18.0571 37.922C14.6244 38.0398 13.8363 38.7344 12.7273 39.8963C13.257 39.9753 13.7924 40.0093 14.3279 39.9978C16.0422 39.9328 18.2074 38.5395 18.6015 38.1088C18.8411 38.1942 19.0605 38.2795 19.2717 38.3648C19.3042 38.251 19.3367 38.1413 19.3733 38.0317C18.9914 37.8854 18.6177 37.7554 18.2602 37.6254C18.3125 36.8546 18.1605 36.0837 17.8196 35.3904C17.4786 34.6971 16.9608 34.106 16.3184 33.6768Z" fill="url(#paint0_linear_490_1533)"/>
<path id="Vector_2" d="M42.038 25.6943C40.0434 26.7262 39.8118 27.1893 38.7881 28.4161C38.7272 28.4974 38.6622 28.5746 38.5972 28.6517C38.2966 29.0092 38.0122 29.3383 37.8132 29.5698C38.2545 28.6777 38.6188 27.7495 38.9019 26.7952C39.6331 26.6449 42.0339 25.2881 42.237 21.8229C40.2343 23.5454 40.4902 23.8094 38.9872 26.4946C39.2581 25.5179 39.4389 24.5185 39.5275 23.5088C40.5227 23.0741 42.1152 21.108 41.7008 18.049C40.1409 20.1127 40.4252 20.3077 39.5478 23.2691C39.6211 22.2362 39.6007 21.1988 39.4868 20.1696C40.0515 19.7633 41.518 17.525 40.5227 14.5026C39.4625 16.6881 39.7103 16.806 39.4706 20.0152C39.3412 18.9613 39.1224 17.9203 38.8166 16.9034C39.2715 16.4282 39.5275 15.1404 39.5965 14.466C39.6771 13.3278 39.4032 12.1925 38.8125 11.2162C38.5904 11.9453 38.4541 12.6979 38.4062 13.4586C38.4074 13.759 38.4291 14.0589 38.4712 14.3564C38.5119 14.7057 38.5647 15.0795 38.6134 15.4329C38.7028 16.0747 38.7719 16.6516 38.7962 16.8385C38.6053 16.1925 38.3656 15.5263 38.1666 15.0266L38.0853 14.791C38.0557 14.4669 37.9972 14.1461 37.9106 13.8323C37.7968 13.3659 37.6418 12.9105 37.4475 12.4714C37.0012 11.535 36.3072 10.7385 35.4407 10.1681C35.7096 11.1691 36.12 12.1267 36.6594 13.0117C36.8341 13.2961 37.1551 13.7389 37.4475 14.1289C37.6203 14.3769 37.8061 14.6155 38.0041 14.8438C38.0285 14.9048 38.061 14.982 38.0975 15.0795C38.9409 17.1697 39.4005 19.3949 39.4543 21.6483C39.4543 22.0789 39.4543 22.5257 39.4218 22.9807C39.4099 22.5097 39.3235 22.0435 39.1659 21.5995C38.7597 20.4986 38.0082 19.4871 36.8423 19.2312C37.0303 20.3978 37.6193 21.4623 38.5078 22.2414C38.7951 22.5409 39.0975 22.8256 39.4137 23.0945C39.3444 24.1183 39.1771 25.1331 38.914 26.125C38.9606 25.6983 38.9442 25.2672 38.8653 24.8453C38.6662 23.6591 38.0528 22.5217 36.9154 22.0545C36.9336 22.859 37.111 23.652 37.4373 24.3875C37.7636 25.1231 38.2324 25.7868 38.8166 26.3403C38.5464 27.3182 38.1888 28.27 37.7482 29.1839C38.1178 27.7946 37.87 25.7268 36.4076 24.7722C36.2838 25.5884 36.3281 26.4212 36.5376 27.2196C36.7472 28.0181 37.1177 28.7653 37.6263 29.4155C37.1813 30.3176 36.62 31.1575 35.9567 31.9138C36.0095 31.8122 36.0623 31.7026 36.111 31.5807C36.6838 30.1467 36.5904 28.4771 35.4082 27.3233C34.7786 29.2083 35.4651 31.4548 35.7698 32.121L35.7373 32.1535C35.0635 32.878 34.3004 33.5141 33.4664 34.0465C34.2992 33.0959 35.1726 31.1298 34.0149 29.4439C33.2692 30.9093 32.9939 32.5692 33.2268 34.1968C32.3688 34.7199 31.4662 35.1658 30.5294 35.5293C31.8903 34.3715 32.7962 32.7709 32.2071 30.9795C32.0406 31.1623 31.7806 31.4466 31.4962 31.8204C30.7091 32.9372 30.2837 34.2686 30.2775 35.6349C29.3229 36.0046 28.3763 36.3011 27.3973 36.5895C29.7372 34.7859 30.0175 33.4656 29.9241 32.0844C29.5777 32.3269 29.2441 32.5872 28.9248 32.8644C28.4573 33.2632 28.0592 33.7368 27.7467 34.2659C27.5746 34.6323 27.4386 35.0146 27.3404 35.4074C27.2208 35.817 27.1539 36.2402 27.1414 36.6667C26.0974 36.9755 25.1793 37.2273 24.2043 37.5401C25.0516 36.8276 25.8234 36.0299 26.5077 35.1596C26.9046 34.4712 27.1329 33.6986 27.1739 32.905C26.7406 33.135 26.3227 33.3929 25.9227 33.6768C25.2779 34.1037 24.7573 34.6933 24.4135 35.3859C24.0696 36.0786 23.9148 36.8497 23.9646 37.6214C23.6072 37.7392 23.2334 37.8692 22.8516 38.0276C22.8881 38.1373 22.9206 38.247 22.9531 38.3607C23.1644 38.2754 23.3837 38.1901 23.6234 38.1048C24.0296 38.5354 26.1827 39.9288 27.897 39.9938C28.4324 40.0053 28.9679 39.9713 29.4975 39.8922C28.3885 38.7223 27.6004 38.0357 24.1678 37.9179C25.0249 37.6336 25.9836 37.3533 26.7798 37.1055C27.1617 37.5523 29.2172 38.9254 31.2484 38.7629C31.8232 38.7089 32.3908 38.596 32.9424 38.4257C32.2851 37.9319 31.5545 37.544 30.7772 37.2761C30.1313 37.0852 27.966 36.9795 27.2998 36.9511C28.1935 36.6789 29.0751 36.4027 29.9525 36.0736C30.3588 36.4799 33.0033 38.182 36.3629 36.228C33.8442 35.383 33.7264 35.6999 30.4238 35.8908C31.3098 35.5515 32.1681 35.1441 32.9912 34.6721C33.8564 35.253 36.6757 35.8908 39.2269 33.1122C36.6188 33.1122 36.5132 33.4453 34.5227 34.0953C34.0555 34.2456 33.5558 34.3837 33.3893 34.4284C34.2127 33.9162 34.9735 33.3095 35.6561 32.6206C35.7021 32.6376 35.7497 32.6498 35.7982 32.6572C35.853 32.6696 35.9087 32.6777 35.9648 32.6816C38.2478 32.9172 39.9337 31.5076 41.0508 29.4723C38.6134 30.0857 38.5444 30.5448 36.9438 31.6538C36.7773 31.7757 36.6066 31.8854 36.4523 31.991L36.0217 32.2672L35.9485 32.3119C36.6096 31.5836 37.1773 30.7757 37.6385 29.907C38.8166 29.9151 41.1158 28.7695 42.038 25.6943Z" fill="url(#paint1_linear_490_1533)"/>
<path id="Vector_3" d="M21.2083 4.66763L19.3031 5.86196L19.8515 3.68048L18.125 2.23835L20.3674 2.08804L21.2083 0L22.0452 2.08804L24.2916 2.23835L22.5651 3.68048L23.1136 5.86196L21.2083 4.66763Z" fill="url(#paint2_linear_490_1533)"/>
<path id="Vector_4" d="M11.7962 7.78751L10.7806 8.8356L10.7887 7.37316L9.47656 6.73131L10.8699 6.28851L11.0731 4.83826L11.9262 6.02852L13.3683 5.77666L12.4989 6.95474L13.1855 8.24656L11.7962 7.78751Z" fill="url(#paint3_linear_490_1533)"/>
<path id="Vector_5" d="M30.4627 7.78751L31.4783 8.8356L31.4702 7.37316L32.7824 6.73131L31.389 6.28851L31.1858 4.83826L30.3328 6.02852L28.8906 5.77666L29.76 6.95474L29.0734 8.24656L30.4627 7.78751Z" fill="url(#paint4_linear_490_1533)"/>
</g>
<path id="Vector_6" d="M21.2037 12H16V28H24.2951V25.3712H27V18.7994L21.2037 12ZM24.2951 25.346H18.7049V14.654H19.9415L24.2951 19.7599V25.346Z" fill="url(#paint5_linear_490_1533)"/>
</g>
<defs>
<linearGradient id="paint0_linear_490_1533" x1="0.00812468" y1="25.0809" x2="19.3895" y2="25.0809" gradientUnits="userSpaceOnUse">
<stop stop-color="#FFF5A8"/>
<stop offset="0.31" stop-color="#BD8100"/>
<stop offset="0.76" stop-color="#E0BE58"/>
<stop offset="1" stop-color="#F1DC83"/>
</linearGradient>
<linearGradient id="paint1_linear_490_1533" x1="22.8637" y1="25.0809" x2="42.2452" y2="25.0809" gradientUnits="userSpaceOnUse">
<stop stop-color="#FFF5A8"/>
<stop offset="0.31" stop-color="#BD8100"/>
<stop offset="0.76" stop-color="#E0BE58"/>
<stop offset="1" stop-color="#F1DC83"/>
</linearGradient>
<linearGradient id="paint2_linear_490_1533" x1="29.8083" y1="-0.199055" x2="12.718" y2="6.79225" gradientUnits="userSpaceOnUse">
<stop offset="0.01" stop-color="#FBC01B"/>
<stop offset="0.25" stop-color="#FFF5A8"/>
<stop offset="0.32" stop-color="#F8E997"/>
<stop offset="0.44" stop-color="#E7CA6A"/>
<stop offset="0.61" stop-color="#CA9922"/>
<stop offset="0.69" stop-color="#BD8100"/>
<stop offset="1" stop-color="#FFF5A8"/>
</linearGradient>
<linearGradient id="paint3_linear_490_1533" x1="23.6718" y1="-1.86148" x2="9.53445" y2="8.42358" gradientUnits="userSpaceOnUse">
<stop offset="0.01" stop-color="#FBC01B"/>
<stop offset="0.25" stop-color="#FFF5A8"/>
<stop offset="0.32" stop-color="#F8E997"/>
<stop offset="0.44" stop-color="#E7CA6A"/>
<stop offset="0.61" stop-color="#CA9922"/>
<stop offset="0.69" stop-color="#BD8100"/>
<stop offset="1" stop-color="#FFF5A8"/>
</linearGradient>
<linearGradient id="paint4_linear_490_1533" x1="25.5124" y1="-15.4813" x2="39.6181" y2="-5.17501" gradientUnits="userSpaceOnUse">
<stop offset="0.01" stop-color="#FBC01B"/>
<stop offset="0.25" stop-color="#FFF5A8"/>
<stop offset="0.32" stop-color="#F8E997"/>
<stop offset="0.44" stop-color="#E7CA6A"/>
<stop offset="0.61" stop-color="#CA9922"/>
<stop offset="0.69" stop-color="#BD8100"/>
<stop offset="1" stop-color="#FFF5A8"/>
</linearGradient>
<linearGradient id="paint5_linear_490_1533" x1="17.0476" y1="13.8065" x2="22.9186" y2="29.091" gradientUnits="userSpaceOnUse">
<stop stop-color="#FBC01B"/>
<stop offset="0.185" stop-color="#FFF5A8"/>
<stop offset="0.295" stop-color="#FFF5A8"/>
<stop offset="0.435" stop-color="#E7CA6A"/>
<stop offset="0.52" stop-color="#CA9922"/>
<stop offset="0.6" stop-color="#BD8100"/>
<stop offset="1" stop-color="#FFF5A8"/>
</linearGradient>
</defs>
</svg>
