<svg width="18" height="18" viewBox="0 0 18 18" fill="none" xmlns="http://www.w3.org/2000/svg">
<g id="Icon" filter="url(#filter0_d_792_11143)">
<path d="M8.40792 3.60743C8.56227 3.26118 8.63944 3.08806 8.74689 3.03474C8.84024 2.98842 8.94987 2.98842 9.04321 3.03474C9.15067 3.08806 9.22784 3.26118 9.38218 3.60743L10.6115 6.36539C10.6572 6.46775 10.68 6.51893 10.7153 6.55812C10.7465 6.5928 10.7847 6.62054 10.8273 6.63953C10.8755 6.66099 10.9312 6.66687 11.0427 6.67864L14.0456 6.99557C14.4226 7.03536 14.6111 7.05526 14.695 7.14098C14.7679 7.21544 14.8017 7.31971 14.7865 7.42279C14.769 7.54147 14.6282 7.66836 14.3466 7.92215L12.1035 9.94359C12.0203 10.0186 11.9787 10.0561 11.9523 10.1018C11.929 10.1422 11.9144 10.1871 11.9095 10.2335C11.904 10.286 11.9156 10.3408 11.9389 10.4504L12.5654 13.4043C12.644 13.7751 12.6834 13.9605 12.6278 14.0668C12.5795 14.1592 12.4908 14.2236 12.388 14.241C12.2698 14.261 12.1056 14.1663 11.7772 13.9769L9.16152 12.4683C9.06444 12.4123 9.0159 12.3843 8.9643 12.3733C8.91865 12.3636 8.87146 12.3636 8.82581 12.3733C8.77421 12.3843 8.72567 12.4123 8.62859 12.4683L6.01293 13.9769C5.68455 14.1663 5.52035 14.261 5.40208 14.241C5.29934 14.2236 5.21064 14.1592 5.16235 14.0668C5.10675 13.9605 5.14608 13.7751 5.22474 13.4043L5.85125 10.4504C5.8745 10.3408 5.88613 10.286 5.88061 10.2335C5.87572 10.1871 5.86114 10.1422 5.83781 10.1018C5.81144 10.0561 5.76982 10.0186 5.68657 9.94359L3.44349 7.92215C3.16188 7.66836 3.02107 7.54147 3.00357 7.42279C2.98837 7.31971 3.02224 7.21544 3.09514 7.14098C3.17905 7.05526 3.36755 7.03536 3.74455 6.99557L6.74742 6.67864C6.85887 6.66687 6.91459 6.66099 6.96278 6.63953C7.00541 6.62054 7.04358 6.5928 7.07482 6.55812C7.11013 6.51893 7.13294 6.46775 7.17857 6.36539L8.40792 3.60743Z" fill="#F3C009"/>
</g>
<defs>
<filter id="filter0_d_792_11143" x="0" y="0" width="17.7891" height="17.2437" filterUnits="userSpaceOnUse" color-interpolation-filters="sRGB">
<feFlood flood-opacity="0" result="BackgroundImageFix"/>
<feColorMatrix in="SourceAlpha" type="matrix" values="0 0 0 0 0 0 0 0 0 0 0 0 0 0 0 0 0 0 127 0" result="hardAlpha"/>
<feOffset/>
<feGaussianBlur stdDeviation="1.5"/>
<feComposite in2="hardAlpha" operator="out"/>
<feColorMatrix type="matrix" values="0 0 0 0 0.952941 0 0 0 0 0.752941 0 0 0 0 0.0352941 0 0 0 1 0"/>
<feBlend mode="normal" in2="BackgroundImageFix" result="effect1_dropShadow_792_11143"/>
<feBlend mode="normal" in="SourceGraphic" in2="effect1_dropShadow_792_11143" result="shape"/>
</filter>
</defs>
</svg>
