<svg width="138" height="60" viewBox="0 0 138 60" fill="none" xmlns="http://www.w3.org/2000/svg">
<g id="Group 1261157122">
<path id="Rectangle 9898" d="M0 10C0 4.47715 4.47715 0 10 0H138V60H10C4.47715 60 0 55.5228 0 50V10Z" fill="url(#paint0_linear_2497_15470)"/>
<g id="Mask group">
<mask id="mask0_2497_15470" style="mask-type:alpha" maskUnits="userSpaceOnUse" x="0" y="0" width="113" height="60">
<path id="Rectangle 9898_2" d="M0 10C0 4.47715 4.47715 0 10 0H113V60H10C4.47715 60 0 55.5228 0 50V10Z" fill="url(#paint1_linear_2497_15470)"/>
</mask>
<g mask="url(#mask0_2497_15470)">
<g id="Looper-1">
<path id="Vector 83 copy_18" opacity="0.0526316" d="M-11.6602 72.3938C-9.82084 76.1101 -3.41742 82.6561 7.4813 79.1096C21.1047 74.6765 27.6474 60.0161 40.0776 53.3037C49.2521 48.3495 73.2272 41.9169 85.574 52.8465" stroke="#80B6CE" stroke-width="0.2"/>
<path id="Vector 83 copy_17" opacity="0.105263" d="M-13.0933 64.843C-11.5948 68.7842 -5.82115 76.1235 5.28514 73.9517C19.168 71.2369 26.927 57.4225 39.8263 52.2824C49.347 48.4886 73.6596 45.0777 84.9394 57.5399" stroke="#80B6CE" stroke-width="0.2"/>
<path id="Vector 83 copy_16" opacity="0.157895" d="M-13.9852 57.2439C-12.844 61.3668 -7.76339 69.4191 3.4288 68.6457C17.419 67.679 26.3093 54.8619 39.5364 51.3504C49.299 48.7586 73.6826 48.4069 83.7719 62.2651" stroke="#80B6CE" stroke-width="0.2"/>
<path id="Vector 83 copy_15" opacity="0.210526" d="M-14.3551 49.663C-13.5836 53.9224 -9.25181 62.5994 1.90366 63.233C15.848 64.025 25.7721 52.3456 39.1821 50.5011C49.0797 49.1398 73.2671 51.851 82.0553 66.9534" stroke="#80B6CE" stroke-width="0.2"/>
<path id="Vector 83 copy_14" opacity="0.263158" d="M-14.1754 42.1722C-13.7821 46.5214 -10.2464 55.7281 0.750081 57.7617C14.4957 60.3036 25.3449 49.89 38.7909 49.7328C48.715 49.6167 72.4413 55.3612 79.8321 71.5424" stroke="#80B6CE" stroke-width="0.2"/>
<path id="Vector 83 copy_13" opacity="0.315789" d="M-13.4883 34.836C-13.4776 39.2274 -10.7769 48.8629 -0.0597874 52.2742C13.3366 56.5383 24.992 47.5045 38.3266 49.0362C48.1686 50.1667 71.1737 58.8816 77.0862 75.9642" stroke="#80B6CE" stroke-width="0.2"/>
<path id="Vector 83 copy_12" opacity="0.368421" d="M-12.3129 27.7127C-12.6848 32.0982 -10.8485 42.057 -0.528309 46.8086C12.372 52.7481 24.706 45.1931 37.7832 48.397C47.4351 50.7617 69.4671 62.3514 73.8364 80.1483" stroke="#80B6CE" stroke-width="0.2"/>
<path id="Vector 83 copy_11" opacity="0.421053" d="M-10.6517 20.8749C-11.4021 25.2064 -10.4505 35.3794 -0.640228 41.4192C11.6227 48.9691 24.5001 42.9757 37.1765 47.8167C46.5327 51.3897 67.3501 65.7272 70.1285 84.0434" stroke="#80B6CE" stroke-width="0.2"/>
<path id="Vector 83 copy_10" opacity="0.473684" d="M-8.56167 14.3734C-9.68252 18.6034 -9.62597 28.879 -0.433058 36.141C11.0581 45.2185 24.3379 40.8523 36.4747 47.2773C45.4325 52.0195 64.8074 68.9478 65.9643 87.5827" stroke="#80B6CE" stroke-width="0.2"/>
<path id="Vector 83 copy_9" opacity="0.526316" d="M-6.03676 8.27113C-7.51567 12.3534 -8.3548 22.6191 0.119991 31.0237C10.7135 41.5293 24.2501 38.8382 35.7143 46.7769C44.1757 52.6362 61.8957 71.9699 61.4185 90.7191" stroke="#80B6CE" stroke-width="0.2"/>
<path id="Vector 83 copy_8" opacity="0.578947" d="M-3.14815 2.61263C-4.96894 6.50242 -6.69454 16.6458 0.969275 26.1007C10.549 37.9195 24.1942 36.9329 34.8602 46.2983C42.7325 53.2106 58.6034 74.7377 56.4974 93.3961" stroke="#80B6CE" stroke-width="0.2"/>
<path id="Vector 83 copy_7" opacity="0.631579" d="M0.0883926 -2.55102C-2.05431 1.10365 -4.64749 11.0135 2.12139 21.4153C10.5825 34.4176 24.1867 35.1464 33.9376 45.8358C41.1345 53.7255 54.9825 77.2102 51.2707 95.5732" stroke="#80B6CE" stroke-width="0.2"/>
<path id="Vector 83 copy_6" opacity="0.684211" d="M3.5799 -7.1863C1.13876 -3.80678 -2.29359 5.76096 3.50619 16.9957C10.7559 31.0392 24.1701 33.4753 32.8991 45.3717C39.3418 54.1521 51.0151 79.3372 45.7382 97.2036" stroke="#80B6CE" stroke-width="0.2"/>
<path id="Vector 83 copy_5" opacity="0.736842" d="M7.3203 -11.2508C4.60746 -8.18344 0.373558 0.937387 5.14069 12.882C11.0996 27.8127 24.1768 31.9295 31.7883 44.9025C37.4062 54.4775 46.777 81.087 39.9926 98.2611" stroke="#80B6CE" stroke-width="0.2"/>
<path id="Vector 83 copy_4" opacity="0.789474" d="M11.2499 -14.7194C8.29505 -11.9978 3.30599 -3.42383 6.98824 9.09968C11.5911 24.7541 24.188 30.5065 30.5986 44.414C35.3301 54.6787 42.2957 82.4211 34.0783 98.7146" stroke="#80B6CE" stroke-width="0.2"/>
<path id="Vector 83 copy_3" opacity="0.842105" d="M15.3178 -17.5656C12.1534 -15.2197 6.46381 -7.28649 9.02085 5.67876C12.2171 21.8853 24.1958 29.2103 29.3352 43.8999C33.1285 54.7419 37.6126 83.3131 28.0523 98.5477" stroke="#80B6CE" stroke-width="0.2"/>
<path id="Vector 83 copy_2" opacity="0.894737" d="M19.4354 -19.7822C16.096 -17.8376 9.76827 -10.6321 11.1721 2.63287C12.9268 19.214 24.1559 28.0313 27.9679 43.342C30.7814 54.6425 32.7348 83.7296 21.9363 97.7383" stroke="#80B6CE" stroke-width="0.2"/>
<path id="Vector 83 copy_1" opacity="0.947368" d="M23.6009 -21.3503C20.1232 -19.8283 13.2266 -13.4294 13.4618 -0.0101034C13.7558 16.764 24.1124 26.977 26.5551 42.7411C28.358 54.3763 27.7594 83.6606 15.841 96.2898" stroke="#80B6CE" stroke-width="0.2"/>
<path id="Vector 83 copy" d="M27.7046 -22.2796C24.1267 -21.1968 16.7368 -15.6747 15.8008 -2.24811C14.6308 14.5352 24.0014 26.0319 25.0481 42.0768C25.8207 53.9191 22.6766 83.0797 9.76883 94.1912" stroke="#80B6CE" stroke-width="0.2"/>
</g>
</g>
</g>
</g>
<defs>
<linearGradient id="paint0_linear_2497_15470" x1="-30.8684" y1="-8" x2="42.0691" y2="81.8594" gradientUnits="userSpaceOnUse">
<stop stop-color="#252743"/>
<stop offset="1" stop-color="#153C71"/>
</linearGradient>
<linearGradient id="paint1_linear_2497_15470" x1="-25.2763" y1="-8" x2="49.2517" y2="67.185" gradientUnits="userSpaceOnUse">
<stop stop-color="#252743"/>
<stop offset="1" stop-color="#79725E"/>
</linearGradient>
</defs>
</svg>
