<svg width="76" height="60" viewBox="0 0 76 60" fill="none" xmlns="http://www.w3.org/2000/svg">
<g id="Group 1261157123">
<g id="Group 1261157114">
<path id="Rectangle 9898" d="M0 10C0 4.47715 4.47715 0 10 0H76V60H10C4.47715 60 0 55.5228 0 50V10Z" fill="url(#paint0_linear_2497_15497)"/>
<g id="Mask group">
<mask id="mask0_2497_15497" style="mask-type:alpha" maskUnits="userSpaceOnUse" x="0" y="0" width="76" height="60">
<path id="Rectangle 9898_2" d="M0 10C0 4.47715 4.47715 0 10 0H76V60H10C4.47715 60 0 55.5228 0 50V10Z" fill="url(#paint1_linear_2497_15497)"/>
</mask>
<g mask="url(#mask0_2497_15497)">
<g id="Looper-1">
<path id="Vector 83 copy_18" opacity="0.0526316" d="M-0.231047 58.256C1.87911 61.0634 8.62339 65.7613 18.7193 62.0934C31.3392 57.5087 36.22 45.3557 47.4834 39.0542C55.7966 34.4032 78.1347 27.4219 90.9794 35.1364" stroke="#80B6CE" stroke-width="0.2"/>
<path id="Vector 83 copy_17" opacity="0.105263" d="M-2.30754 52.3722C-0.502396 55.3847 5.71389 60.7618 16.1379 58.1694C29.1678 54.9289 35.2923 43.3526 47.1527 38.263C55.9065 34.5065 78.8519 29.8983 90.8199 38.9132" stroke="#80B6CE" stroke-width="0.2"/>
<path id="Vector 83 copy_16" opacity="0.157895" d="M-3.88578 46.4077C-2.40543 49.5924 3.21475 55.5898 13.8526 54.1012C27.1499 52.2404 34.4508 41.3678 46.7783 37.5458C55.8769 34.7249 79.1783 32.5404 90.1384 42.7569" stroke="#80B6CE" stroke-width="0.2"/>
<path id="Vector 83 copy_15" opacity="0.210526" d="M-4.94531 40.4161C-3.80597 43.7381 1.15653 50.2901 11.8917 49.9216C25.3107 49.461 33.7081 39.4111 46.3675 36.8986C55.7111 35.0442 79.1132 35.3073 88.9454 46.6135" stroke="#80B6CE" stroke-width="0.2"/>
<path id="Vector 83 copy_14" opacity="0.263158" d="M-5.4814 34.4536C-4.69555 37.8765 -0.445109 44.9113 10.2698 45.667C23.6634 46.6116 33.0653 37.4945 45.918 36.319C55.4043 35.4514 78.6506 38.1593 87.2471 50.4313" stroke="#80B6CE" stroke-width="0.2"/>
<path id="Vector 83 copy_13" opacity="0.315789" d="M-5.51277 28.5743C-5.08902 32.0606 -1.5972 39.5012 8.98001 41.3727C22.2015 43.7122 32.5049 35.6278 45.4101 35.8022C54.935 35.931 77.771 41.054 85.0376 54.1573" stroke="#80B6CE" stroke-width="0.2"/>
<path id="Vector 83 copy_12" opacity="0.368421" d="M-5.05802 22.8264C-5.001 26.3379 -2.30607 34.1027 8.01757 37.0696C20.9221 40.7782 32.0141 33.8151 44.8304 35.3376C54.2897 36.4613 76.4651 43.9432 82.3222 57.7343" stroke="#80B6CE" stroke-width="0.2"/>
<path id="Vector 83 copy_11" opacity="0.421053" d="M-4.11205 17.2665C-4.42241 20.7648 -2.55388 28.7687 7.40308 32.7985C19.8493 37.8357 31.6084 32.0701 44.1952 34.9239C53.4853 37.0302 74.7571 46.7891 79.1406 61.1169" stroke="#80B6CE" stroke-width="0.2"/>
<path id="Vector 83 copy_10" opacity="0.473684" d="M-2.72414 11.9396C-3.39847 15.3863 -2.37682 23.5417 7.10437 28.5902C18.9559 34.9007 31.2532 30.396 43.4728 34.5498C52.4918 37.6156 72.627 49.5446 75.4888 64.2521" stroke="#80B6CE" stroke-width="0.2"/>
<path id="Vector 83 copy_9" opacity="0.526316" d="M-0.880575 6.89642C-1.91148 10.2537 -1.7479 18.4713 7.15364 24.4831C18.2806 31.998 30.9814 28.8033 42.6999 34.2116C51.349 38.2034 70.127 52.1717 71.4358 67.0978" stroke="#80B6CE" stroke-width="0.2"/>
<path id="Vector 83 copy_8" opacity="0.578947" d="M1.347 2.17785C-0.0291944 5.40899 -0.725481 13.5986 7.49889 20.508C17.7794 29.1448 30.7446 27.2952 41.8335 33.8988C50.018 38.7728 67.233 54.6275 66.9745 69.6086" stroke="#80B6CE" stroke-width="0.2"/>
<path id="Vector 83 copy_7" opacity="0.631579" d="M3.95789 -2.17512C2.2515 0.89447 0.702976 8.96646 8.16006 16.6977C17.4814 26.3617 30.5689 25.8775 40.9069 33.6041C48.537 39.3069 64.0005 56.8741 62.1774 71.7461" stroke="#80B6CE" stroke-width="0.2"/>
<path id="Vector 83 copy_6" opacity="0.684211" d="M6.86628 -6.12919C4.84837 -3.25478 2.46458 4.61112 9.07268 13.0795C17.3328 23.6649 30.3992 24.5514 39.8729 33.3162C46.8652 39.7854 60.4077 58.8728 57.04 73.4727" stroke="#80B6CE" stroke-width="0.2"/>
<path id="Vector 83 copy_5" opacity="0.736842" d="M10.0575 -9.6489C7.75015 -7.00117 4.55721 0.572467 10.2439 9.68516C17.3523 21.076 30.2545 23.3234 38.7601 33.0306C45.0379 40.1952 56.511 60.5936 51.6357 74.7615" stroke="#80B6CE" stroke-width="0.2"/>
<path id="Vector 83 copy_4" opacity="0.789474" d="M13.4942 -12.7102C10.9228 -10.3182 6.9557 -3.11977 11.6587 6.53743C17.5375 18.6089 30.1341 22.1927 37.5784 32.7357C43.0729 40.5173 52.351 62.0032 46.0214 75.5839" stroke="#80B6CE" stroke-width="0.2"/>
<path id="Vector 83 copy_3" opacity="0.842105" d="M17.117 -15.2887C14.3096 -13.1785 9.61179 -6.43422 13.2796 3.66167C17.8644 16.2815 30.0174 21.1624 36.3189 32.4258C40.9698 40.739 47.9512 63.0771 40.2367 75.9218" stroke="#80B6CE" stroke-width="0.2"/>
<path id="Vector 83 copy_2" opacity="0.894737" d="M20.8515 -17.37C17.8389 -15.5649 12.4618 -9.34861 15.0543 1.07537C18.2948 14.1053 29.871 20.2298 34.9606 32.0902C38.7171 40.844 43.3253 63.7894 34.3104 75.7574" stroke="#80B6CE" stroke-width="0.2"/>
<path id="Vector 83 copy_1" opacity="0.947368" d="M24.6871 -18.9414C21.5023 -17.4611 15.5049 -11.8409 16.9935 -1.20306C18.8543 12.0943 29.7269 19.3952 33.5489 31.7226C36.3698 40.8212 38.5543 64.1226 28.3378 75.0827" stroke="#80B6CE" stroke-width="0.2"/>
<path id="Vector 83 copy" d="M28.5361 -20C25.214 -18.8607 18.662 -13.8982 19.0305 -3.16298C19.4912 10.256 29.5411 18.6534 32.0536 31.3128C33.908 40.6564 33.6448 64.0585 22.3386 73.8907" stroke="#80B6CE" stroke-width="0.2"/>
</g>
</g>
</g>
</g>
</g>
<defs>
<linearGradient id="paint0_linear_2497_15497" x1="-17" y1="-8" x2="52.2555" y2="38.9896" gradientUnits="userSpaceOnUse">
<stop stop-color="#252743"/>
<stop offset="1" stop-color="#234C84"/>
<stop offset="1" stop-color="#153C71"/>
</linearGradient>
<linearGradient id="paint1_linear_2497_15497" x1="-17" y1="-8" x2="52.2555" y2="38.9896" gradientUnits="userSpaceOnUse">
<stop stop-color="#252743"/>
<stop offset="1" stop-color="#153C71"/>
</linearGradient>
</defs>
</svg>
