<svg width="16" height="16" viewBox="0 0 16 16" fill="none" xmlns="http://www.w3.org/2000/svg">
<g id="Mask group">
<mask id="mask0_3782_2065" style="mask-type:alpha" maskUnits="userSpaceOnUse" x="0" y="0" width="16" height="16">
<rect id="Rectangle 1650" width="16" height="16" fill="#D9D9D9"/>
</mask>
<g mask="url(#mask0_3782_2065)">
<g id="Group 1000002156">
<path id="Vector 654" d="M13.5984 8.46542L11.8573 5.75342H9.28079M13.5984 8.46542H10.4926M13.5984 8.46542L7.97491 14.1534M2.39844 8.46542L4.02197 5.75342H6.6102M2.39844 8.46542H5.48079M2.39844 8.46542L7.97491 14.1534M6.6102 5.75342L5.48079 8.46542M6.6102 5.75342H9.28079M5.48079 8.46542H10.4926M5.48079 8.46542L7.97491 14.1534M9.28079 5.75342L10.4926 8.46542M10.4926 8.46542L7.97491 14.1534" stroke="white" stroke-linejoin="round"/>
<path id="Vector 655" d="M8 3.23343V1.6001" stroke="white" stroke-linecap="round" stroke-linejoin="round"/>
<path id="Vector 656" d="M9.86302 3.80806L10.6797 2.39355" stroke="white" stroke-linecap="round" stroke-linejoin="round"/>
<path id="Vector 658" d="M12.1966 4.57486L13.3516 3.41992" stroke="white" stroke-linecap="round" stroke-linejoin="round"/>
<path id="Vector 659" d="M3.55338 4.57486L2.39844 3.41992" stroke="white" stroke-linecap="round" stroke-linejoin="round"/>
<path id="Vector 657" d="M6.01589 3.80806L5.19922 2.39355" stroke="white" stroke-linecap="round" stroke-linejoin="round"/>
</g>
</g>
</g>
</svg>
