<svg width="16" height="16" viewBox="0 0 16 16" fill="none" xmlns="http://www.w3.org/2000/svg">
<g id="circle-dollar-to-slot">
<path id="Icon" d="M9.33333 4.76409C9 4.66922 8.45672 4.66572 8 4.66922C7.84727 4.67039 7.93961 4.66293 7.73334 4.66922C7.19505 4.68848 6.66777 4.94521 6.66667 5.67255C6.6655 6.44739 7.33333 6.67664 8 6.67664C8.66667 6.67664 9.33333 6.85351 9.33333 7.68072C9.33333 8.30237 8.795 8.57476 8.12407 8.66496C7.59073 8.66496 7.33333 8.68481 6.66667 8.58918M8 8.66667V9.33333M8 4V4.66667M14 11.3333V11.8667C14 12.6134 14 12.9868 13.8547 13.272C13.7268 13.5229 13.5229 13.7268 13.272 13.8547C12.9868 14 12.6134 14 11.8667 14H4.13333C3.3866 14 3.01323 14 2.72801 13.8547C2.47713 13.7268 2.27316 13.5229 2.14532 13.272C2 12.9868 2 12.6134 2 11.8667V11.3333M12.6667 6.66667C12.6667 9.244 10.5773 11.3333 8 11.3333C5.42267 11.3333 3.33333 9.244 3.33333 6.66667C3.33333 4.08934 5.42267 2 8 2C10.5773 2 12.6667 4.08934 12.6667 6.66667Z" stroke="white" stroke-linecap="round" stroke-linejoin="round"/>
</g>
</svg>
