<svg width="411" height="27" viewBox="0 0 411 27" fill="none" xmlns="http://www.w3.org/2000/svg">
<line x1="3" y1="0.5" x2="273" y2="0.500024" stroke="#42CDFF"/>
<line x1="273" y1="0.5" x2="408" y2="0.500012" stroke="#BD3BF0"/>
<path d="M3.5 27L6.38675 22L0.613248 22L3.5 27ZM3 1L3 22.5L4 22.5L4 1L3 1Z" fill="#42CDFF"/>
<path d="M138 27L140.887 22L135.113 22L138 27ZM137.5 1L137.5 22.5L138.5 22.5L138.5 1L137.5 1Z" fill="#42CDFF"/>
<path d="M273 27L275.887 22L270.113 22L273 27ZM272.5 1L272.5 22.5L273.5 22.5L273.5 1L272.5 1Z" fill="#42CDFF"/>
<path d="M408 27L410.887 22L405.113 22L408 27ZM407.5 -2.10457e-08L407.5 22.5L408.5 22.5L408.5 2.10457e-08L407.5 -2.10457e-08Z" fill="#BD3BF0"/>
</svg>
