<svg width="1400" height="210" viewBox="0 0 1400 210" fill="none" xmlns="http://www.w3.org/2000/svg">
<rect width="1400" height="210" fill="url(#paint0_linear_308_45919)"/>
<mask id="mask0_308_45919" style="mask-type:alpha" maskUnits="userSpaceOnUse" x="0" y="0" width="1400" height="210">
<rect width="1400" height="210" fill="url(#paint1_linear_308_45919)"/>
<rect x="0.5" y="0.5" width="1399" height="209" stroke="#C5AAFA" stroke-opacity="0.5"/>
</mask>
<g mask="url(#mask0_308_45919)">
<path opacity="0.0344828" d="M1237.26 -125.33C1245.76 -122.123 1252.7 -115.258 1258.1 -105.046C1263.5 -94.8311 1267.35 -81.2944 1269.67 -64.8081C1274.32 -31.8361 1272.88 12.8281 1265.76 66.048C1251.5 172.48 1214.51 313.017 1158.16 462.424C1101.81 611.832 1036.78 741.792 977.194 831.127C947.401 875.798 918.986 910.288 893.718 931.975C881.083 942.819 869.256 950.444 858.454 954.548C847.656 958.651 837.914 959.225 829.41 956.018C820.907 952.811 813.97 945.946 808.571 935.734C803.17 925.519 799.324 911.982 796.998 895.496C792.345 862.524 793.785 817.86 800.913 764.64C815.168 658.208 852.157 517.671 908.508 368.263C964.86 218.856 1029.89 88.8961 1089.48 -0.439581C1119.27 -45.1108 1147.68 -79.6008 1172.95 -101.288C1185.59 -112.131 1197.41 -119.756 1208.22 -123.861C1219.01 -127.963 1228.76 -128.538 1237.26 -125.33Z" stroke="#C5AAFA" stroke-opacity="0.5"/>
<path opacity="0.0689655" d="M1287.96 -107.018C1296.15 -103.082 1302.46 -95.6382 1306.95 -84.9949C1311.44 -74.3477 1314.09 -60.5273 1314.97 -43.901C1316.74 -10.649 1311.41 33.7199 1299.67 86.116C1276.19 190.9 1227.1 327.679 1157.94 471.606C1088.78 615.534 1012.67 739.331 945.524 823.134C911.95 865.039 880.638 896.921 853.576 916.323C840.044 926.024 827.597 932.589 816.479 935.737C805.364 938.883 795.609 938.606 787.417 934.669C779.226 930.733 772.914 923.29 768.426 912.646C763.936 901.999 761.284 888.179 760.403 871.553C758.642 838.301 763.969 793.932 775.708 741.536C799.185 636.751 848.282 499.973 917.441 356.045C986.6 212.117 1062.71 88.3203 1129.85 4.51748C1163.43 -37.3871 1194.74 -69.2694 1221.8 -88.6713C1235.33 -98.3725 1247.78 -104.938 1258.9 -108.085C1270.01 -111.231 1279.77 -110.954 1287.96 -107.018Z" stroke="#C5AAFA" stroke-opacity="0.5"/>
<path opacity="0.103448" d="M1336.76 -84.7614C1344.58 -80.1262 1350.22 -72.161 1353.76 -61.167C1357.31 -50.1691 1358.75 -36.1701 1358.17 -19.5303C1357.03 13.7487 1347.86 57.4844 1331.6 108.658C1299.08 210.997 1238.24 342.976 1156.8 480.329C1075.36 617.681 988.752 734.373 914.562 812.006C877.464 850.825 843.492 879.856 814.842 896.826C800.516 905.311 787.544 910.766 776.194 912.932C764.848 915.098 755.154 913.972 747.336 909.336C739.519 904.701 733.88 896.736 730.336 885.742C726.791 874.744 725.354 860.745 725.926 844.105C727.069 810.826 736.243 767.091 752.504 715.917C785.024 613.578 845.855 481.599 927.295 344.246C1008.73 206.894 1095.35 90.2017 1169.54 12.5696C1206.64 -26.2495 1240.61 -55.2813 1269.26 -72.2508C1283.58 -80.7358 1296.56 -86.1912 1307.91 -88.3574C1319.25 -90.5229 1328.95 -89.3966 1336.76 -84.7614Z" stroke="#C5AAFA" stroke-opacity="0.5"/>
<path opacity="0.137931" d="M1383.32 -58.7043C1390.71 -53.4054 1395.63 -44.9791 1398.2 -33.7181C1400.77 -22.453 1400.98 -8.38212 1398.96 8.14455C1394.93 41.1973 1381.97 83.967 1361.32 133.529C1320 232.644 1247.9 358.819 1154.8 488.551C1061.7 618.283 965.242 726.982 884.568 797.853C844.228 833.291 807.855 859.252 777.835 873.659C762.824 880.863 749.426 885.168 737.93 886.336C726.439 887.505 716.88 885.538 709.496 880.239C702.112 874.94 697.189 866.514 694.617 855.253C692.044 843.988 691.832 829.917 693.852 813.39C697.892 780.337 710.842 737.568 731.502 688.006C772.817 588.89 844.92 462.715 938.021 332.984C1031.12 203.252 1127.58 94.5522 1208.25 23.6816C1248.59 -11.7564 1284.96 -37.7169 1314.98 -52.1248C1329.99 -59.329 1343.39 -63.633 1354.89 -64.8017C1366.38 -65.9701 1375.94 -64.0033 1383.32 -58.7043Z" stroke="#C5AAFA" stroke-opacity="0.5"/>
<path opacity="0.172414" d="M1427.31 -29.0826C1434.2 -23.1603 1438.37 -14.337 1439.95 -2.89464C1441.54 8.55178 1440.52 22.5876 1437.07 38.8753C1430.16 71.4502 1413.53 112.928 1388.63 160.501C1338.84 255.638 1256.01 375.049 1151.96 496.173C1047.9 617.297 942.344 717.176 855.8 780.746C812.525 812.533 774.028 835.225 742.866 846.961C727.285 852.83 713.563 855.95 702.009 856.112C690.459 856.274 681.108 853.482 674.214 847.56C667.32 841.637 663.15 832.814 661.569 821.372C659.988 809.925 661.003 795.89 664.456 779.602C671.361 747.027 687.99 705.549 712.89 657.976C762.687 562.839 845.512 443.428 949.565 322.304C1053.62 201.18 1159.18 101.301 1245.72 37.7312C1289 5.94392 1327.5 -16.7477 1358.66 -28.4843C1374.24 -34.3528 1387.96 -37.4727 1399.51 -37.635C1411.06 -37.7974 1420.42 -35.0049 1427.31 -29.0826Z" stroke="#C5AAFA" stroke-opacity="0.5"/>
<path opacity="0.206897" d="M1468.43 3.87497C1474.78 10.3756 1478.17 19.5288 1478.75 31.0654C1479.32 42.606 1477.09 56.4999 1472.23 72.4247C1462.51 104.274 1442.33 144.145 1413.38 189.366C1355.48 279.802 1262.56 391.539 1148.35 503.133C1034.14 614.727 920.272 705.026 828.517 760.812C782.637 788.706 742.308 807.956 710.242 816.932C694.209 821.42 680.267 823.332 668.742 822.487C657.222 821.642 648.15 818.045 641.799 811.545C635.447 805.044 632.062 795.891 631.484 784.354C630.907 772.814 633.142 758.92 638.001 742.995C647.719 711.146 667.899 671.275 696.851 626.054C754.75 535.618 847.667 423.881 961.882 312.287C1076.1 200.693 1189.96 110.393 1281.71 54.6083C1327.6 26.7136 1367.92 7.46364 1399.99 -1.51241C1416.02 -6.00056 1429.97 -7.91266 1441.49 -7.06739C1453.01 -6.22249 1462.08 -2.62565 1468.43 3.87497Z" stroke="#C5AAFA" stroke-opacity="0.5"/>
<path opacity="0.241379" d="M1506.42 39.9033C1512.18 46.9328 1514.75 56.3462 1514.32 67.8892C1513.89 79.4363 1510.45 93.0825 1504.23 108.523C1491.77 139.404 1468.19 177.365 1435.41 219.891C1369.85 304.936 1267.55 408.15 1144.04 509.365C1020.53 610.58 899.233 690.611 802.966 738.187C754.828 761.977 712.975 777.639 680.249 783.786C663.886 786.86 649.83 787.549 638.423 785.703C627.021 783.857 618.297 779.483 612.536 772.454C606.775 765.424 604.2 756.011 604.631 744.468C605.061 732.921 608.499 719.275 614.727 703.834C627.184 672.953 650.762 634.992 683.545 592.467C749.106 507.422 851.408 404.207 974.914 302.992C1098.42 201.778 1219.72 121.746 1315.99 74.1699C1364.13 50.3802 1405.98 34.7184 1438.7 28.5712C1455.07 25.4975 1469.12 24.8078 1480.53 26.6543C1491.93 28.5 1500.66 32.8739 1506.42 39.9033Z" stroke="#C5AAFA" stroke-opacity="0.5"/>
<path opacity="0.275862" d="M1541 78.7255C1546.13 86.2303 1547.87 95.8323 1546.44 107.294C1545 118.759 1540.39 132.054 1532.84 146.893C1517.74 176.571 1490.94 212.332 1454.58 251.839C1381.85 330.846 1270.94 424.752 1139.09 514.817C1007.23 604.883 879.414 674.038 779.367 713.042C729.339 732.546 686.28 744.501 653.143 747.772C636.574 749.408 622.512 748.87 611.309 746.036C600.111 743.204 591.801 738.086 586.675 730.582C581.549 723.077 579.804 713.475 581.239 702.013C582.674 690.548 587.288 677.253 594.838 662.414C609.939 632.736 636.737 596.975 673.101 557.468C745.825 478.461 856.733 384.555 988.59 294.49C1120.45 204.424 1248.26 135.269 1348.31 96.2646C1398.34 76.7609 1441.4 64.8064 1474.53 61.5349C1491.1 59.8991 1505.16 60.437 1516.37 63.2706C1527.57 66.1031 1535.88 71.2207 1541 78.7255Z" stroke="#C5AAFA" stroke-opacity="0.5"/>
<path opacity="0.310345" d="M1571.95 120.016C1576.4 127.939 1577.3 137.656 1574.87 148.949C1572.44 160.246 1566.69 173.088 1557.87 187.213C1540.24 215.462 1510.43 248.751 1470.76 284.938C1391.43 357.307 1272.76 441.188 1133.55 519.419C994.346 597.65 860.991 655.402 757.924 685.538C706.387 700.608 662.451 708.764 629.154 709.135C612.505 709.32 598.544 707.559 587.631 703.76C576.722 699.962 568.89 694.139 564.437 686.216C559.985 678.293 559.084 668.576 561.512 657.283C563.941 645.986 569.696 633.144 578.511 619.02C596.141 590.771 625.953 557.481 665.622 521.294C744.955 448.926 863.626 365.044 1002.83 286.813C1142.04 208.583 1275.39 150.83 1378.46 120.694C1430 105.625 1473.93 97.4685 1507.23 97.0976C1523.88 96.9121 1537.84 98.6736 1548.75 102.473C1559.66 106.271 1567.49 112.093 1571.95 120.016Z" stroke="#C5AAFA" stroke-opacity="0.5"/>
<path opacity="0.344828" d="M1599.06 163.482C1602.81 171.763 1602.86 181.522 1599.45 192.561C1596.05 203.603 1589.2 215.894 1579.19 229.197C1559.16 255.802 1526.56 286.366 1483.89 318.958C1398.55 384.137 1273.02 457.356 1127.53 523.157C982.032 588.957 844.152 634.867 738.851 655.906C686.196 666.426 641.716 670.722 608.514 668.19C591.912 666.923 578.157 663.952 567.617 659.216C557.081 654.482 549.786 647.999 546.041 639.718C542.296 631.437 542.245 621.678 545.648 610.64C549.052 599.598 555.905 587.306 565.917 574.004C585.942 547.399 618.542 516.834 661.215 484.243C746.553 419.064 872.083 345.844 1017.58 280.044C1163.07 214.243 1300.95 168.333 1406.25 147.295C1458.91 136.774 1503.39 132.478 1536.59 135.011C1553.19 136.277 1566.95 139.249 1577.49 143.985C1588.02 148.719 1595.32 155.201 1599.06 163.482Z" stroke="#C5AAFA" stroke-opacity="0.5"/>
<path opacity="0.37931" d="M1622.17 208.739C1625.17 217.315 1624.37 227.041 1620.02 237.741C1615.67 248.444 1607.77 260.092 1596.64 272.471C1574.37 297.229 1539.23 324.836 1493.88 353.585C1403.19 411.078 1271.75 473.078 1121.08 525.948C970.401 578.817 829.044 612.535 722.31 624.317C668.939 630.208 624.253 630.61 591.398 625.194C574.97 622.485 561.527 618.326 551.439 612.69C541.356 607.056 534.654 599.962 531.644 591.386C528.635 582.81 529.436 573.084 533.788 562.384C538.142 551.681 546.039 540.033 557.173 527.654C579.44 502.895 614.58 475.289 659.931 446.54C750.625 389.047 882.059 327.047 1032.73 274.177C1183.41 221.308 1324.77 187.59 1431.5 175.808C1484.87 169.917 1529.56 169.514 1562.41 174.931C1578.84 177.639 1592.28 181.799 1602.37 187.435C1612.45 193.069 1619.16 200.163 1622.17 208.739Z" stroke="#C5AAFA" stroke-opacity="0.5"/>
<path opacity="0.413793" d="M1641.12 255.453C1643.37 264.259 1641.73 273.878 1636.46 284.158C1631.19 294.441 1622.31 305.356 1610.14 316.718C1585.8 339.441 1548.38 363.88 1500.7 388.567C1405.34 437.937 1269 488.246 1114.29 527.782C959.584 567.318 815.826 588.588 708.471 591.022C654.79 592.239 610.239 588.745 577.981 580.486C561.852 576.356 548.822 571.041 539.264 564.547C529.71 558.055 523.652 550.404 521.401 541.599C519.151 532.793 520.796 523.174 526.064 512.894C531.334 502.611 540.217 491.696 552.387 480.334C576.728 457.611 614.14 433.171 661.824 408.485C757.184 359.115 893.521 308.806 1048.23 269.27C1202.94 229.734 1346.7 208.464 1454.05 206.03C1507.73 204.813 1552.28 208.306 1584.54 216.566C1600.67 220.696 1613.7 226.011 1623.26 232.505C1632.81 238.997 1638.87 246.648 1641.12 255.453Z" stroke="#C5AAFA" stroke-opacity="0.5"/>
<path opacity="0.448276" d="M1655.82 303.262C1657.29 312.23 1654.81 321.67 1648.67 331.451C1642.52 341.236 1632.72 351.335 1619.61 361.593C1593.38 382.108 1553.98 403.194 1504.33 423.631C1405.03 464.501 1264.82 502.736 1107.26 528.638C949.692 554.54 804.626 563.199 697.468 556.268C643.885 552.801 599.809 545.438 568.393 534.399C552.685 528.879 540.168 522.448 531.213 515.146C522.261 507.846 516.892 499.696 515.418 490.728C513.944 481.76 516.421 472.321 522.565 462.539C528.711 452.754 538.511 442.655 551.626 432.397C577.854 411.882 617.254 390.796 666.908 370.36C766.208 329.489 906.411 291.254 1063.98 265.352C1221.54 239.45 1366.61 230.791 1473.77 237.723C1527.35 241.189 1571.43 248.552 1602.84 259.591C1618.55 265.111 1631.07 271.542 1640.02 278.844C1648.97 286.144 1654.34 294.294 1655.82 303.262Z" stroke="#C5AAFA" stroke-opacity="0.5"/>
<path opacity="0.551724" d="M1673.72 449.457C1672.82 458.501 1667.98 466.978 1659.52 474.836C1651.05 482.696 1638.97 489.915 1623.64 496.429C1593 509.457 1549.49 519.626 1496.23 526.516C1389.74 540.293 1244.42 540.938 1085.52 525.176C926.615 509.414 784.252 480.233 682.539 445.803C631.679 428.586 591.01 410.066 563.522 391.272C549.778 381.875 539.351 372.423 532.591 363.052C525.834 353.684 522.757 344.422 523.654 335.378C524.552 326.334 529.387 317.857 537.854 310C546.323 302.139 558.403 294.92 573.725 288.406C604.37 275.378 647.885 265.209 701.136 258.32C807.63 244.542 952.952 243.897 1111.85 259.659C1270.76 275.421 1413.12 304.602 1514.83 339.033C1565.69 356.249 1606.36 374.769 1633.85 393.563C1647.59 402.961 1658.02 412.412 1664.78 421.783C1671.54 431.151 1674.61 440.413 1673.72 449.457Z" stroke="#C5AAFA" stroke-opacity="0.5"/>
<path opacity="0.586207" d="M1670.91 497.823C1669.23 506.755 1663.68 514.778 1654.56 521.868C1645.44 528.96 1632.77 535.099 1616.94 540.253C1585.28 550.56 1541.04 556.898 1487.39 559.12C1380.1 563.564 1235.28 551.54 1078.35 521.989C921.431 492.438 782.153 450.96 683.828 407.796C634.662 386.212 595.762 364.218 570.017 343.1C557.144 332.54 547.581 322.217 541.663 312.292C535.748 302.37 533.49 292.876 535.172 283.944C536.854 275.013 542.411 266.99 551.529 259.9C560.652 252.807 573.315 246.669 589.147 241.515C620.81 231.207 665.046 224.869 718.695 222.647C825.985 218.204 970.81 230.227 1127.73 259.778C1284.66 289.329 1423.93 330.807 1522.26 373.971C1571.43 395.555 1610.33 417.549 1636.07 438.668C1648.94 449.227 1658.51 459.551 1664.42 469.476C1670.34 479.397 1672.6 488.892 1670.91 497.823Z" stroke="#C5AAFA" stroke-opacity="0.5"/>
<path opacity="0.62069" d="M1663.79 545.388C1661.34 554.139 1655.1 561.648 1645.4 567.916C1635.7 574.187 1622.55 579.198 1606.32 582.952C1573.88 590.461 1529.26 592.92 1475.63 590.457C1368.36 585.533 1225.13 560.933 1071.38 517.818C917.63 474.702 782.496 421.243 688.308 369.674C641.21 343.887 604.374 318.586 580.568 295.304C568.664 283.663 560.038 272.545 555.007 262.142C549.979 251.743 548.558 242.088 551.012 233.337C553.466 224.586 559.7 217.078 569.402 210.809C579.108 204.539 592.258 199.528 608.479 195.773C640.92 188.264 685.54 185.806 739.178 188.268C846.447 193.193 989.673 217.792 1143.42 260.908C1297.17 304.023 1432.31 357.483 1526.5 409.052C1573.59 434.839 1610.43 460.139 1634.24 483.421C1646.14 495.062 1654.77 506.18 1659.8 516.583C1664.82 526.982 1666.25 536.638 1663.79 545.388Z" stroke="#C5AAFA" stroke-opacity="0.5"/>
<path opacity="0.655172" d="M1652.44 591.759C1649.23 600.263 1642.37 607.199 1632.16 612.598C1621.94 617.999 1608.41 621.845 1591.92 624.171C1558.95 628.824 1514.28 627.384 1461.06 620.256C1354.63 606.002 1214.09 569.012 1064.69 512.661C915.28 456.309 785.32 391.276 695.984 331.694C651.313 301.9 616.823 273.485 595.136 248.217C584.293 235.583 576.668 223.755 572.563 212.954C568.461 202.156 567.886 192.413 571.094 183.91C574.301 175.406 581.166 168.47 591.378 163.071C601.593 157.67 615.13 153.824 631.616 151.497C664.588 146.845 709.252 148.284 762.472 155.412C868.904 169.667 1009.44 206.656 1158.85 263.008C1308.26 319.359 1438.22 384.393 1527.55 443.975C1572.22 473.768 1606.71 502.183 1628.4 527.451C1639.24 540.086 1646.87 551.913 1650.97 562.715C1655.08 573.513 1655.65 583.255 1652.44 591.759Z" stroke="#C5AAFA" stroke-opacity="0.5"/>
<path opacity="0.689655" d="M1636.96 636.578C1633.02 644.77 1625.58 651.082 1614.94 655.57C1604.29 660.06 1590.47 662.712 1573.84 663.592C1540.59 665.354 1496.22 660.027 1443.83 648.288C1339.04 624.811 1202.26 575.714 1058.34 506.555C914.409 437.396 790.612 361.283 706.809 294.142C664.904 260.568 633.022 229.256 613.62 202.194C603.919 188.662 597.354 176.215 594.207 165.097C591.061 153.982 591.338 144.227 595.274 136.035C599.21 127.844 606.653 121.532 617.297 117.044C627.944 112.554 641.764 109.902 658.391 109.021C691.643 107.26 736.011 112.587 788.408 124.326C893.192 147.803 1029.97 196.9 1173.9 266.059C1317.83 335.218 1441.62 411.33 1525.43 478.472C1567.33 512.045 1599.21 543.358 1618.61 570.42C1628.32 583.951 1634.88 596.399 1638.03 607.517C1641.17 618.631 1640.9 628.386 1636.96 636.578Z" stroke="#C5AAFA" stroke-opacity="0.5"/>
<path opacity="0.724138" d="M1617.53 679.497C1612.89 687.315 1604.93 692.954 1593.93 696.498C1582.94 700.042 1568.94 701.479 1552.3 700.908C1519.02 699.764 1475.28 690.591 1424.11 674.33C1321.77 641.81 1189.79 580.978 1052.44 499.539C915.086 418.099 798.394 331.486 720.762 257.296C681.943 220.198 652.911 186.226 635.941 157.576C627.457 143.25 622.001 130.278 619.835 118.928C617.669 107.582 618.796 97.8879 623.431 90.0703C628.066 82.2528 636.031 76.6138 647.025 73.0702C658.023 69.5253 672.022 68.0883 688.662 68.66C721.941 69.8034 765.677 78.977 816.85 95.2382C919.19 127.758 1051.17 188.589 1188.52 270.029C1325.87 351.469 1442.57 438.082 1520.2 512.272C1559.02 549.369 1588.05 583.342 1605.02 611.992C1613.5 626.317 1618.96 639.289 1621.12 650.64C1623.29 661.986 1622.16 671.68 1617.53 679.497Z" stroke="#C5AAFA" stroke-opacity="0.5"/>
<path opacity="0.758621" d="M1594.31 720.157C1589.01 727.541 1580.58 732.464 1569.32 735.036C1558.06 737.609 1543.99 737.82 1527.46 735.8C1494.41 731.761 1451.64 718.81 1402.08 698.151C1302.96 656.835 1176.79 584.733 1047.05 491.632C917.322 398.531 808.623 302.077 737.752 221.404C702.314 181.064 676.354 144.69 661.946 114.67C654.742 99.6599 650.437 86.2618 649.269 74.7659C648.1 63.2742 650.067 53.7152 655.366 46.3314C660.665 38.9476 669.091 34.0242 680.352 31.4523C691.617 28.8794 705.688 28.668 722.215 30.6878C755.268 34.7274 798.037 47.6778 847.599 68.3372C946.715 109.653 1072.89 181.755 1202.62 274.856C1332.35 367.957 1441.05 464.411 1511.92 545.085C1547.36 585.425 1573.32 621.798 1587.73 651.818C1594.93 666.828 1599.24 680.227 1600.41 691.722C1601.58 703.214 1599.61 712.773 1594.31 720.157Z" stroke="#C5AAFA" stroke-opacity="0.5"/>
<path opacity="0.793103" d="M1567.52 758.267C1561.59 765.161 1552.77 769.331 1541.33 770.912C1529.88 772.493 1515.85 771.477 1499.56 768.025C1466.98 761.12 1425.51 744.491 1377.93 719.591C1282.8 669.794 1163.39 586.969 1042.26 482.915C921.138 378.862 821.259 273.301 757.689 186.758C725.901 143.483 703.21 104.985 691.473 73.8235C685.605 58.2424 682.485 44.5201 682.323 32.9661C682.16 21.4163 684.953 12.0651 690.875 5.17122C696.797 -1.72267 705.621 -5.89287 717.063 -7.47355C728.509 -9.05481 742.545 -8.0391 758.833 -4.58658C791.408 2.31833 832.886 18.9471 880.458 43.8475C975.596 93.6444 1095.01 176.469 1216.13 280.523C1337.25 384.577 1437.13 490.137 1500.7 576.68C1532.49 619.955 1555.18 658.453 1566.92 689.615C1572.79 705.196 1575.91 718.918 1576.07 730.472C1576.23 742.022 1573.44 751.373 1567.52 758.267Z" stroke="#C5AAFA" stroke-opacity="0.5"/>
<path opacity="0.827586" d="M1537.38 793.513C1530.88 799.864 1521.73 803.25 1510.19 803.827C1498.65 804.405 1484.76 802.17 1468.84 797.311C1436.99 787.593 1397.11 767.412 1351.89 738.461C1261.46 680.561 1149.72 587.644 1038.13 473.43C926.532 359.216 836.233 245.352 780.448 153.597C752.554 107.717 733.304 67.3878 724.328 35.3218C719.839 19.2885 717.927 5.34649 718.773 -6.17769C719.617 -17.6977 723.214 -26.7699 729.715 -33.1214C736.216 -39.4729 745.369 -42.8582 756.905 -43.4356C768.446 -44.0132 782.34 -41.7781 798.265 -36.9191C830.114 -27.2014 869.985 -7.02082 915.206 21.931C1005.64 79.8302 1117.38 172.747 1228.97 286.962C1340.57 401.176 1430.87 515.039 1486.65 606.794C1514.55 652.675 1533.8 693.004 1542.77 725.07C1547.26 741.103 1549.17 755.045 1548.33 766.569C1547.48 778.089 1543.89 787.161 1537.38 793.513Z" stroke="#C5AAFA" stroke-opacity="0.5"/>
<path opacity="0.862069" d="M1504.18 825.595C1497.15 831.356 1487.74 833.93 1476.19 833.5C1464.65 833.07 1451 829.632 1435.56 823.404C1404.68 810.947 1366.72 787.368 1324.19 754.585C1239.15 689.025 1135.93 586.722 1034.72 463.217C933.503 339.711 853.471 218.411 805.895 122.143C782.106 74.0056 766.444 32.1526 760.297 -0.573706C757.223 -16.9371 756.533 -30.9927 758.38 -42.3994C760.226 -53.8019 764.599 -62.5261 771.629 -68.2869C778.658 -74.0476 788.072 -76.6223 799.615 -76.1921C811.162 -75.7616 824.808 -72.3241 840.249 -66.0957C871.13 -53.6391 909.09 -30.0603 951.616 2.72265C1036.66 68.2835 1139.88 170.586 1241.09 294.091C1342.31 417.597 1422.34 538.898 1469.91 635.165C1493.7 683.302 1509.36 725.155 1515.51 757.882C1518.59 774.245 1519.27 788.301 1517.43 799.707C1515.58 811.11 1511.21 819.834 1504.18 825.595Z" stroke="#C5AAFA" stroke-opacity="0.5"/>
<path opacity="0.896552" d="M1468.19 854.292C1460.69 859.419 1451.09 861.163 1439.62 859.728C1428.16 858.293 1414.86 853.679 1400.02 846.129C1370.35 831.028 1334.59 804.231 1295.08 767.866C1216.07 695.143 1122.17 584.234 1032.1 452.377C942.035 320.52 872.88 192.706 833.876 92.6579C814.372 42.6302 802.417 -0.428559 799.146 -33.5661C797.51 -50.1351 798.048 -64.1974 800.882 -75.3997C803.714 -86.598 808.832 -94.9078 816.336 -100.034C823.841 -105.16 833.443 -106.905 844.905 -105.47C856.37 -104.035 869.665 -99.4209 884.504 -91.8705C914.182 -76.7698 949.943 -49.9723 989.45 -13.6077C1068.46 59.1158 1162.36 170.024 1252.43 301.882C1342.49 433.739 1411.65 561.553 1450.65 661.6C1470.16 711.628 1482.11 754.687 1485.38 787.824C1487.02 804.394 1486.48 818.456 1483.65 829.658C1480.81 840.856 1475.7 849.166 1468.19 854.292Z" stroke="#C5AAFA" stroke-opacity="0.5"/>
<path opacity="0.931035" d="M1429.72 879.351C1421.8 883.804 1412.08 884.704 1400.79 882.276C1389.49 879.847 1376.65 874.092 1362.53 865.277C1334.28 847.648 1300.99 817.835 1264.8 778.166C1192.43 698.833 1108.55 580.162 1030.32 440.957C952.089 301.752 894.337 168.397 864.2 65.3302C849.131 13.7931 840.975 -30.1437 840.604 -63.4403C840.418 -80.0889 842.18 -94.0507 845.979 -104.963C849.777 -115.872 855.599 -123.704 863.522 -128.157C871.445 -132.61 881.163 -133.511 892.455 -131.082C903.752 -128.653 916.594 -122.898 930.719 -114.083C958.968 -96.4536 992.257 -66.6412 1028.44 -26.9718C1100.81 52.361 1184.69 171.032 1262.92 310.237C1341.16 449.442 1398.91 582.797 1429.04 685.864C1444.11 737.401 1452.27 781.338 1452.64 814.634C1452.83 831.283 1451.06 845.245 1447.27 856.157C1443.47 867.066 1437.65 874.898 1429.72 879.351Z" stroke="#C5AAFA" stroke-opacity="0.5"/>
<path opacity="0.965517" d="M1389.1 900.587C1380.81 904.332 1371.06 904.383 1360.02 900.98C1348.98 897.575 1336.68 890.723 1323.38 880.71C1296.78 860.686 1266.21 828.085 1233.62 785.413C1168.44 700.075 1095.22 574.545 1029.42 429.051C963.621 283.557 917.711 145.676 896.672 40.3757C886.152 -12.2787 881.856 -56.7592 884.388 -89.9614C885.655 -106.563 888.626 -120.318 893.362 -130.858C898.096 -141.394 904.579 -148.689 912.86 -152.434C921.141 -156.179 930.9 -156.23 941.938 -152.827C952.98 -149.423 965.272 -142.57 978.574 -132.558C1005.18 -112.533 1035.74 -79.9327 1068.34 -37.2603C1133.51 48.0779 1206.73 173.608 1272.53 319.102C1338.33 464.595 1384.24 602.476 1405.28 707.777C1415.8 760.432 1420.1 804.912 1417.57 838.114C1416.3 854.716 1413.33 868.471 1408.59 879.011C1403.86 889.547 1397.38 896.842 1389.1 900.587Z" stroke="#C5AAFA" stroke-opacity="0.5"/>
<path d="M1346.66 917.796C1338.08 920.805 1328.35 920.005 1317.65 915.653C1306.95 911.299 1295.3 903.401 1282.92 892.267C1258.17 870 1230.56 834.86 1201.81 789.509C1144.32 698.815 1082.32 567.381 1029.45 416.706C976.578 266.031 942.86 124.674 931.079 17.9401C925.188 -35.4309 924.785 -80.1165 930.202 -112.972C932.91 -129.399 937.069 -142.843 942.705 -152.931C948.34 -163.014 955.434 -169.716 964.01 -172.725C972.585 -175.735 982.312 -174.934 993.011 -170.582C1003.71 -166.228 1015.36 -158.331 1027.74 -147.197C1052.5 -124.93 1080.11 -89.7896 1108.86 -44.439C1166.35 46.2552 1228.35 177.689 1281.22 328.364C1334.09 479.039 1367.81 620.397 1379.59 727.13C1385.48 780.501 1385.88 825.187 1380.46 858.042C1377.76 874.47 1373.6 887.914 1367.96 898.001C1362.33 908.085 1355.23 914.787 1346.66 917.796Z" stroke="#C5AAFA" stroke-opacity="0.5"/>
</g>
<defs>
<linearGradient id="paint0_linear_308_45919" x1="1400" y1="-2.49102e-05" x2="473.759" y2="775.701" gradientUnits="userSpaceOnUse">
<stop stop-color="#7E39FD"/>
<stop offset="1" stop-color="#2F1369"/>
</linearGradient>
<linearGradient id="paint1_linear_308_45919" x1="1400" y1="-2.49102e-05" x2="473.759" y2="775.701" gradientUnits="userSpaceOnUse">
<stop stop-color="#7E39FD"/>
<stop offset="1" stop-color="#2F1369"/>
</linearGradient>
</defs>
</svg>
