<svg width="400" height="770" viewBox="0 0 400 770" fill="none" xmlns="http://www.w3.org/2000/svg">
<rect width="400" height="770" fill="url(#paint0_linear_308_45884)"/>
<mask id="mask0_308_45884" style="mask-type:alpha" maskUnits="userSpaceOnUse" x="0" y="0" width="400" height="770">
<rect width="400" height="770" fill="url(#paint1_linear_308_45884)"/>
<rect x="0.5" y="0.5" width="399" height="769" stroke="#C5AAFA" stroke-opacity="0.5"/>
</mask>
<g mask="url(#mask0_308_45884)">
<path opacity="0.0344828" d="M728.087 882.402C728.815 890.712 725.893 899.183 719.585 907.717C713.275 916.254 703.594 924.827 690.862 933.317C665.399 950.297 627.822 966.886 580.889 982.169C487.029 1012.73 355.859 1038.04 209.629 1050.83C63.3983 1063.62 -70.1735 1061.48 -167.914 1047.68C-216.788 1040.78 -256.675 1030.97 -284.7 1018.67C-298.712 1012.52 -309.735 1005.76 -317.432 998.444C-325.125 991.135 -329.474 983.3 -330.201 974.99C-330.928 966.68 -328.006 958.208 -321.699 949.675C-315.388 941.138 -305.707 932.564 -292.976 924.074C-267.513 907.094 -229.935 890.506 -183.002 875.223C-89.1427 844.661 42.0277 819.356 188.258 806.562C334.488 793.769 468.06 795.912 565.801 809.712C614.675 816.612 654.562 826.423 682.587 838.724C696.599 844.874 707.622 851.636 715.319 858.948C723.012 866.256 727.36 874.091 728.087 882.402Z" stroke="#C5AAFA" stroke-opacity="0.5"/>
<path opacity="0.103448" d="M734.091 980.993C733.364 989.304 729.015 997.139 721.322 1004.45C713.625 1011.76 702.602 1018.52 688.59 1024.67C660.565 1036.97 620.678 1046.78 571.804 1053.68C474.063 1067.48 340.492 1069.63 194.261 1056.83C48.0308 1044.04 -83.1396 1018.73 -176.999 988.172C-223.932 972.889 -261.509 956.301 -286.973 939.321C-299.704 930.831 -309.385 922.257 -315.695 913.72C-322.003 905.187 -324.925 896.715 -324.198 888.405C-323.471 880.095 -319.122 872.26 -311.429 864.951C-303.732 857.639 -292.709 850.877 -278.697 844.727C-250.672 832.427 -210.785 822.615 -161.911 815.715C-64.1703 801.915 69.4014 799.772 215.632 812.566C361.862 825.359 493.033 850.664 586.892 881.227C633.825 896.509 671.402 913.098 696.866 930.078C709.597 938.568 719.278 947.141 725.588 955.678C731.896 964.212 734.818 972.683 734.091 980.993Z" stroke="#C5AAFA" stroke-opacity="0.5"/>
<path opacity="0.137931" d="M731.037 1029.94C729.588 1038.16 724.573 1045.59 716.272 1052.2C707.967 1058.81 696.397 1064.58 681.902 1069.49C652.912 1079.3 612.322 1085.6 563.032 1088.21C464.461 1093.44 331.21 1083.93 186.651 1058.45C42.0924 1032.96 -86.3734 996.315 -177.212 957.688C-222.635 938.373 -258.623 918.573 -282.509 899.438C-294.453 889.871 -303.35 880.486 -308.892 871.432C-314.432 862.381 -316.604 853.687 -315.155 845.472C-313.707 837.256 -308.692 829.83 -300.391 823.22C-292.086 816.607 -280.516 810.831 -266.021 805.926C-237.03 796.115 -196.44 789.817 -147.15 787.202C-48.5793 781.974 84.671 791.48 229.23 816.97C373.789 842.46 502.255 879.101 593.093 917.727C638.516 937.042 674.504 956.843 698.391 975.977C710.334 985.545 719.231 994.929 724.773 1003.98C730.313 1013.03 732.485 1021.73 731.037 1029.94Z" stroke="#C5AAFA" stroke-opacity="0.5"/>
<path opacity="0.172414" d="M724.007 1078.18C721.848 1086.24 716.205 1093.2 707.359 1099.06C698.51 1104.93 686.48 1109.67 671.613 1113.29C641.878 1120.54 600.893 1123.28 551.563 1121.59C452.911 1118.2 320.997 1097.12 179.209 1059.13C37.422 1021.14 -87.3614 973.438 -174.488 927.041C-218.054 903.841 -252.18 880.979 -274.308 859.835C-285.372 849.263 -293.417 839.139 -298.149 829.636C-302.879 820.137 -304.285 811.287 -302.126 803.229C-299.967 795.171 -294.324 788.21 -285.478 782.348C-276.629 776.484 -264.599 771.739 -249.731 768.116C-219.997 760.869 -179.012 758.133 -129.682 759.824C-31.0301 763.206 100.885 784.29 242.672 822.282C384.459 860.274 509.243 907.972 596.369 954.369C639.935 977.569 674.061 1000.43 696.189 1021.57C707.253 1032.15 715.298 1042.27 720.03 1051.77C724.76 1061.27 726.166 1070.12 724.007 1078.18Z" stroke="#C5AAFA" stroke-opacity="0.5"/>
<path opacity="0.206897" d="M713.073 1125.37C710.22 1133.21 703.992 1139.65 694.669 1144.72C685.342 1149.79 672.945 1153.47 657.818 1155.79C627.564 1160.41 586.497 1159.57 537.502 1153.58C439.521 1141.62 309.946 1109.11 172.009 1058.91C34.0725 1008.71 -86.079 950.313 -168.83 896.499C-210.209 869.59 -242.212 843.841 -262.413 820.85C-272.513 809.354 -279.645 798.567 -283.531 788.687C-287.415 778.812 -288.045 769.873 -285.191 762.034C-282.338 754.195 -276.11 747.752 -266.787 742.684C-257.46 737.614 -245.063 733.935 -229.936 731.621C-199.683 726.993 -158.616 727.84 -109.621 733.824C-11.6391 745.791 117.936 778.292 255.872 828.497C393.809 878.702 513.96 937.094 596.711 990.908C638.09 1017.82 670.093 1043.57 690.294 1066.56C700.395 1078.05 707.527 1088.84 711.413 1098.72C715.297 1108.6 715.926 1117.53 713.073 1125.37Z" stroke="#C5AAFA" stroke-opacity="0.5"/>
<path opacity="0.241379" d="M698.345 1171.18C694.819 1178.75 688.053 1184.62 678.324 1188.86C668.591 1193.1 655.92 1195.68 640.649 1196.67C610.107 1198.64 569.27 1194.22 520.983 1183.99C424.418 1163.52 298.168 1119.85 165.132 1057.82C32.0962 995.783 -82.5088 927.141 -160.255 866.32C-199.131 835.906 -228.768 807.466 -246.888 782.801C-255.948 770.469 -262.113 759.101 -265.123 748.921C-268.131 738.745 -267.98 729.785 -264.454 722.225C-260.928 714.664 -254.163 708.789 -244.433 704.552C-234.7 700.314 -222.029 697.73 -206.758 696.743C-176.217 694.769 -135.38 699.192 -87.0927 709.423C9.47301 729.885 135.722 773.556 268.758 835.591C401.794 897.627 516.399 966.269 594.145 1027.09C633.021 1057.5 662.659 1085.94 680.779 1110.61C689.839 1122.94 696.004 1134.31 699.014 1144.49C702.022 1154.66 701.87 1163.62 698.345 1171.18Z" stroke="#C5AAFA" stroke-opacity="0.5"/>
<path opacity="0.275862" d="M679.947 1215.3C675.776 1222.52 668.524 1227.78 658.462 1231.16C648.396 1234.53 635.549 1236 620.25 1235.65C589.652 1234.96 549.356 1226.99 502.145 1212.59C407.73 1183.79 285.767 1129.28 158.644 1055.89C31.5211 982.494 -76.6653 904.125 -148.814 836.76C-184.892 803.074 -211.938 772.159 -227.839 746.009C-235.79 732.933 -240.941 721.072 -243.052 710.668C-245.162 700.268 -244.23 691.356 -240.058 684.131C-235.887 676.907 -228.635 671.643 -218.574 668.271C-208.508 664.897 -195.66 663.427 -180.361 663.775C-149.764 664.471 -109.468 672.436 -62.2564 686.837C32.1585 715.637 154.121 770.145 281.244 843.539C408.367 916.934 516.554 995.303 588.703 1062.67C624.78 1096.35 651.826 1127.27 667.727 1153.42C675.678 1166.49 680.829 1178.36 682.94 1188.76C685.05 1199.16 684.118 1208.07 679.947 1215.3Z" stroke="#C5AAFA" stroke-opacity="0.5"/>
<path opacity="0.310345" d="M658.058 1257.37C653.273 1264.21 645.59 1268.82 635.272 1271.3C624.951 1273.79 612.024 1274.13 596.814 1272.45C566.393 1269.09 526.945 1257.64 481.168 1239.18C389.622 1202.26 272.874 1137.33 152.632 1053.14C32.3893 968.944 -68.5551 881.444 -134.558 808.046C-167.563 771.345 -191.811 738.19 -205.373 710.753C-212.154 697.035 -216.251 684.77 -217.447 674.221C-218.643 663.677 -216.938 654.88 -212.153 648.046C-207.368 641.213 -199.685 636.602 -189.368 634.119C-179.046 631.635 -166.119 631.29 -150.909 632.971C-120.489 636.331 -81.0397 647.777 -35.2632 666.238C56.2824 703.158 173.03 768.088 293.273 852.282C413.516 936.477 514.46 1023.98 580.463 1097.37C613.467 1134.08 637.716 1167.23 651.278 1194.67C658.059 1208.39 662.156 1220.65 663.352 1231.2C664.548 1241.74 662.843 1250.54 658.058 1257.37Z" stroke="#C5AAFA" stroke-opacity="0.5"/>
<path opacity="0.344828" d="M632.841 1297.15C627.479 1303.54 619.423 1307.46 608.929 1309.04C598.43 1310.61 585.522 1309.83 570.516 1306.83C540.505 1300.83 502.204 1285.99 458.21 1263.61C370.231 1218.85 259.586 1143.99 147.139 1049.64C34.6922 955.285 -58.242 859.32 -117.597 780.449C-147.277 741.01 -168.543 705.868 -179.662 677.354C-185.222 663.097 -188.235 650.521 -188.507 639.909C-188.779 629.3 -186.314 620.685 -180.951 614.295C-175.589 607.904 -167.533 603.98 -157.039 602.406C-146.54 600.832 -133.632 601.615 -118.626 604.614C-88.6147 610.613 -50.3136 625.454 -6.32025 647.835C81.6592 692.592 192.304 767.45 304.751 861.804C417.198 956.158 510.132 1052.12 569.487 1130.99C599.167 1170.43 620.433 1205.57 631.552 1234.09C637.112 1248.35 640.125 1260.92 640.397 1271.53C640.669 1282.14 638.203 1290.76 632.841 1297.15Z" stroke="#C5AAFA" stroke-opacity="0.5"/>
<path opacity="0.37931" d="M604.543 1334.3C598.644 1340.2 590.277 1343.41 579.685 1344.06C569.089 1344.72 556.299 1342.81 541.611 1338.52C512.236 1329.92 475.375 1311.8 433.499 1285.67C349.755 1233.42 246.056 1149.2 142.261 1045.41C38.465 941.61 -45.7516 837.91 -98.0066 754.166C-124.136 712.291 -142.259 675.429 -150.851 646.054C-155.146 631.367 -157.052 618.576 -156.398 607.981C-155.745 597.389 -152.537 589.022 -146.639 583.123C-140.74 577.224 -132.373 574.017 -121.781 573.364C-111.185 572.71 -98.3948 574.615 -83.7072 578.911C-54.3325 587.502 -17.4707 605.625 24.4047 631.755C108.148 684.01 211.848 768.227 315.643 872.022C419.439 975.818 503.655 1079.52 555.911 1163.26C582.04 1205.14 600.163 1242 608.754 1271.37C613.05 1286.06 614.955 1298.85 614.302 1309.45C613.648 1320.04 610.441 1328.41 604.543 1334.3Z" stroke="#C5AAFA" stroke-opacity="0.5"/>
<path opacity="0.413793" d="M573.388 1368.61C566.997 1373.97 558.383 1376.43 547.774 1376.16C537.162 1375.89 524.586 1372.88 510.329 1367.32C481.815 1356.2 446.673 1334.93 407.234 1305.25C328.363 1245.9 232.398 1152.96 138.044 1040.52C43.6901 928.069 -31.1681 817.424 -75.9255 729.445C-98.3061 685.451 -113.147 647.15 -119.146 617.138C-122.145 602.132 -122.928 589.225 -121.354 578.726C-119.78 568.232 -115.856 560.176 -109.465 554.814C-103.075 549.451 -94.4598 546.986 -83.8515 547.258C-73.239 547.53 -60.6633 550.543 -46.406 556.103C-17.8919 567.221 17.2501 588.488 56.6888 618.168C135.56 677.523 231.524 770.457 325.879 882.904C420.233 995.351 495.091 1106 539.848 1193.98C562.229 1237.97 577.07 1276.27 583.069 1306.28C586.068 1321.29 586.851 1334.2 585.277 1344.69C583.703 1355.19 579.778 1363.24 573.388 1368.61Z" stroke="#C5AAFA" stroke-opacity="0.5"/>
<path opacity="0.448276" d="M539.628 1399.82C532.795 1404.6 523.998 1406.31 513.454 1405.11C502.905 1403.92 490.64 1399.82 476.922 1393.04C449.485 1379.48 416.33 1355.23 379.629 1322.22C306.231 1256.22 218.731 1155.28 134.536 1035.03C50.3416 914.791 -14.5884 798.043 -51.5076 706.497C-69.9687 660.721 -81.4152 621.272 -84.7753 590.852C-86.4554 575.641 -86.1106 562.714 -83.6269 552.393C-81.1442 542.076 -76.5329 534.392 -69.6994 529.608C-62.8659 524.823 -54.0689 523.117 -43.5247 524.313C-32.9763 525.509 -20.7111 529.606 -6.99262 536.388C20.4439 549.949 53.5987 574.198 90.3005 607.202C163.698 673.205 251.198 774.15 335.393 894.392C419.587 1014.63 484.517 1131.38 521.437 1222.93C539.898 1268.7 551.344 1308.15 554.704 1338.57C556.384 1353.78 556.04 1366.71 553.556 1377.03C551.073 1387.35 546.462 1395.03 539.628 1399.82Z" stroke="#C5AAFA" stroke-opacity="0.5"/>
<path opacity="0.482759" d="M503.538 1427.73C496.313 1431.9 487.401 1432.83 477.001 1430.72C466.597 1428.61 454.736 1423.46 441.661 1415.51C415.511 1399.61 384.595 1372.56 350.91 1336.48C283.544 1264.33 205.175 1156.15 131.78 1029.02C58.3859 901.9 3.87826 779.938 -24.9217 685.523C-39.3229 638.311 -47.2877 598.015 -47.9837 567.418C-48.3317 552.119 -46.8616 539.271 -43.4878 529.205C-40.1153 519.144 -34.8519 511.892 -27.6274 507.721C-20.4029 503.549 -11.4908 502.617 -1.09086 504.727C9.31313 506.838 21.1746 511.989 34.2498 519.94C60.4 535.841 91.3152 562.887 125.001 598.965C192.367 671.114 270.736 779.3 344.13 906.423C417.525 1033.55 472.032 1155.51 500.832 1249.92C515.233 1297.14 523.198 1337.43 523.894 1368.03C524.242 1383.33 522.772 1396.18 519.398 1406.24C516.026 1416.3 510.763 1423.56 503.538 1427.73Z" stroke="#C5AAFA" stroke-opacity="0.5"/>
<path opacity="0.517241" d="M465.441 1452.12C457.88 1455.65 448.921 1455.8 438.744 1452.79C428.564 1449.78 417.197 1443.62 404.864 1434.56C380.199 1416.44 351.759 1386.8 321.346 1347.92C260.525 1270.18 191.883 1155.57 129.847 1022.54C67.8116 889.501 24.1411 763.252 3.6795 666.686C-6.55215 618.4 -10.9746 577.562 -9.00116 547.021C-8.01443 531.75 -5.43017 519.079 -1.19192 509.346C3.04465 499.616 8.92004 492.851 16.4806 489.325C24.0412 485.8 33.0006 485.648 43.177 488.656C53.3575 491.666 64.7248 497.831 77.0574 506.891C101.722 525.011 130.163 554.648 160.576 593.525C221.397 671.27 290.039 785.875 352.074 918.911C414.11 1051.95 457.78 1178.2 478.242 1274.76C488.474 1323.05 492.896 1363.89 490.923 1394.43C489.936 1409.7 487.352 1422.37 483.113 1432.1C478.877 1441.83 473.001 1448.6 465.441 1452.12Z" stroke="#C5AAFA" stroke-opacity="0.5"/>
<path opacity="0.551724" d="M425.628 1472.85C417.789 1475.7 408.85 1475.07 398.975 1471.19C389.096 1467.3 378.309 1460.17 366.813 1450.07C343.821 1429.87 318.072 1397.87 291.163 1356.49C237.349 1273.74 178.957 1153.58 128.752 1015.65C78.5476 877.711 46.0466 748.136 34.0792 650.154C28.0949 601.16 27.2485 560.092 31.8763 529.839C34.1902 514.712 37.869 502.315 42.9394 492.988C48.0078 483.665 54.4505 477.437 62.2896 474.584C70.1287 471.731 79.0673 472.36 88.9427 476.244C98.8221 480.13 109.609 487.262 121.105 497.362C144.097 517.563 169.846 549.566 196.755 590.945C250.568 673.696 308.961 793.848 359.165 931.784C409.37 1069.72 441.871 1199.3 453.839 1297.28C459.823 1346.27 460.669 1387.34 456.041 1417.59C453.727 1432.72 450.049 1445.12 444.978 1454.44C439.91 1463.77 433.467 1469.99 425.628 1472.85Z" stroke="#C5AAFA" stroke-opacity="0.5"/>
<path opacity="0.586207" d="M384.441 1489.78C376.383 1491.94 367.533 1490.54 358.034 1485.81C348.531 1481.08 338.407 1473.03 327.835 1461.97C306.691 1439.84 283.829 1405.71 260.629 1362.15C214.232 1275.02 166.534 1150.24 128.542 1008.45C90.5506 866.662 69.4666 734.747 66.0843 636.095C64.393 586.765 67.1291 545.781 74.376 516.046C77.9995 501.178 82.7448 489.149 88.6088 480.299C94.4705 471.453 101.431 465.81 109.489 463.651C117.547 461.492 126.397 462.898 135.896 467.628C145.4 472.36 155.524 480.405 166.096 491.469C187.239 513.597 210.101 547.723 233.301 591.29C279.698 678.416 327.396 803.199 365.388 944.986C403.38 1086.77 424.464 1218.69 427.846 1317.34C429.537 1366.67 426.801 1407.65 419.554 1437.39C415.931 1452.26 411.185 1464.29 405.321 1473.14C399.46 1481.98 392.499 1487.63 384.441 1489.78Z" stroke="#C5AAFA" stroke-opacity="0.5"/>
<path opacity="0.62069" d="M342.196 1502.82C333.98 1504.27 325.287 1502.1 316.236 1496.56C307.181 1491.02 297.797 1482.12 288.229 1470.18C269.095 1446.29 249.294 1410.3 229.979 1364.88C191.353 1274.04 154.712 1145.57 129.222 1001.01C103.733 856.456 94.226 723.206 99.4546 624.634C102.069 575.345 108.367 534.754 118.178 505.764C123.083 491.269 128.859 479.699 135.472 471.394C142.082 463.093 149.509 458.078 157.724 456.63C165.939 455.181 174.633 457.353 183.684 462.893C192.738 468.435 202.123 477.332 211.69 489.275C230.825 513.162 250.625 549.15 269.94 594.573C308.567 685.411 345.208 813.877 370.697 958.436C396.187 1103 405.694 1236.25 400.465 1334.82C397.851 1384.11 391.553 1424.7 381.742 1453.69C376.836 1468.18 371.061 1479.75 364.448 1488.06C357.837 1496.36 350.411 1501.37 342.196 1502.82Z" stroke="#C5AAFA" stroke-opacity="0.5"/>
<path opacity="0.655172" d="M299.26 1511.87C290.949 1512.6 282.478 1509.68 273.945 1503.37C265.407 1497.06 256.834 1487.38 248.344 1474.65C231.364 1449.19 214.776 1411.61 199.493 1364.67C168.93 1270.82 143.626 1139.65 130.832 993.415C118.039 847.184 120.182 713.613 133.981 615.872C140.882 566.998 150.693 527.111 162.994 499.086C169.144 485.074 175.906 474.051 183.217 466.354C190.526 458.661 198.361 454.312 206.672 453.585C214.982 452.858 223.453 455.78 231.987 462.088C240.524 468.398 249.097 478.079 257.587 490.81C274.567 516.273 291.156 553.851 306.438 600.784C337.001 694.643 362.306 825.814 375.099 972.044C387.893 1118.27 385.75 1251.85 371.95 1349.59C365.05 1398.46 355.238 1438.35 342.938 1466.37C336.788 1480.39 330.026 1491.41 322.714 1499.1C315.405 1506.8 307.57 1511.15 299.26 1511.87Z" stroke="#C5AAFA" stroke-opacity="0.5"/>
<path opacity="0.689655" d="M255.964 1516.89C247.622 1516.89 239.438 1513.24 231.486 1506.22C223.532 1499.19 215.835 1488.8 208.487 1475.37C193.791 1448.53 180.54 1409.65 169.406 1361.56C147.14 1265.39 133.364 1132.52 133.364 985.728C133.364 838.939 147.14 706.062 169.406 609.896C180.54 561.809 193.791 522.929 208.487 496.083C215.835 482.66 223.532 472.268 231.486 465.238C239.438 458.211 247.622 454.562 255.964 454.562C264.306 454.562 272.491 458.211 280.442 465.238C288.397 472.268 296.094 482.66 303.442 496.083C318.138 522.929 331.388 561.809 342.522 609.896C364.788 706.062 378.564 838.939 378.564 985.728C378.564 1132.52 364.788 1265.39 342.522 1361.56C331.388 1409.65 318.138 1448.53 303.442 1475.37C296.094 1488.8 288.397 1499.19 280.442 1506.22C272.491 1513.24 264.306 1516.89 255.964 1516.89Z" stroke="#C5AAFA" stroke-opacity="0.5"/>
<path opacity="0.724138" d="M212.67 1517.88C204.36 1517.15 196.525 1512.8 189.216 1505.11C181.904 1497.41 175.142 1486.39 168.992 1472.38C156.692 1444.35 146.88 1404.47 139.98 1355.59C126.18 1257.85 124.037 1124.28 136.831 978.05C149.624 831.819 174.929 700.649 205.492 606.79C220.774 559.856 237.363 522.279 254.343 496.816C262.833 484.084 271.406 474.403 279.943 468.093C288.477 461.786 296.948 458.864 305.258 459.591C313.569 460.318 321.404 464.666 328.713 472.36C336.024 480.057 342.786 491.079 348.936 505.092C361.237 533.117 371.048 573.004 377.949 621.878C391.748 719.618 393.891 853.19 381.098 999.42C368.304 1145.65 342.999 1276.82 312.437 1370.68C297.154 1417.61 280.566 1455.19 263.586 1480.65C255.096 1493.39 246.522 1503.07 237.985 1509.38C229.452 1515.68 220.98 1518.61 212.67 1517.88Z" stroke="#C5AAFA" stroke-opacity="0.5"/>
<path opacity="0.758621" d="M169.735 1514.83C161.519 1513.38 154.093 1508.37 147.483 1500.06C140.87 1491.76 135.094 1480.19 130.189 1465.69C120.378 1436.7 114.08 1396.11 111.465 1346.82C106.237 1248.25 115.743 1115 141.233 970.444C166.723 825.885 203.364 697.419 241.99 606.581C261.305 561.158 281.106 525.169 300.24 501.283C309.808 489.34 319.192 480.443 328.247 474.901C337.298 469.361 345.991 467.189 354.207 468.637C362.422 470.086 369.848 475.1 376.459 483.402C383.072 491.706 388.847 503.276 393.753 517.772C403.564 546.762 409.861 587.352 412.476 636.642C417.705 735.213 408.198 868.463 382.708 1013.02C357.219 1157.58 320.578 1286.05 281.951 1376.89C262.636 1422.31 242.836 1458.3 223.701 1482.18C214.134 1494.13 204.749 1503.02 195.695 1508.57C186.644 1514.11 177.95 1516.28 169.735 1514.83Z" stroke="#C5AAFA" stroke-opacity="0.5"/>
<path opacity="0.793103" d="M127.496 1507.8C119.438 1505.64 112.477 1500 106.615 1491.15C100.751 1482.31 96.0061 1470.28 92.3826 1455.41C85.1357 1425.67 82.3996 1384.69 84.0909 1335.36C87.4732 1236.71 108.557 1104.79 146.549 963.005C184.541 821.218 232.239 696.434 278.636 609.308C301.836 565.742 324.698 531.616 345.841 509.488C356.413 498.424 366.537 490.379 376.04 485.647C385.54 480.917 394.389 479.511 402.447 481.67C410.505 483.829 417.466 489.472 423.328 498.318C429.192 507.167 433.937 519.197 437.561 534.064C444.808 563.799 447.544 604.784 445.852 654.114C442.47 752.766 421.386 884.68 383.394 1026.47C345.403 1168.25 297.705 1293.04 251.308 1380.16C228.107 1423.73 205.246 1457.86 184.102 1479.98C173.53 1491.05 163.406 1499.09 153.903 1503.83C144.404 1508.56 135.554 1509.96 127.496 1507.8Z" stroke="#C5AAFA" stroke-opacity="0.5"/>
<path opacity="0.827586" d="M86.2984 1496.87C78.4594 1494.02 72.0167 1487.79 66.9482 1478.47C61.8778 1469.14 58.199 1456.74 55.8851 1441.62C51.2574 1411.36 52.1038 1370.3 58.088 1321.3C70.0555 1223.32 102.556 1093.74 152.761 955.808C202.966 817.871 261.358 697.72 315.172 614.969C342.081 573.59 367.83 541.587 390.822 521.386C402.318 511.286 413.105 504.154 422.984 500.268C432.859 496.384 441.798 495.754 449.637 498.608C457.476 501.461 463.919 507.689 468.987 517.012C474.058 526.339 477.736 538.736 480.05 553.863C484.678 584.116 483.832 625.183 477.847 674.178C465.88 772.16 433.379 901.735 383.174 1039.67C332.969 1177.61 274.577 1297.76 220.764 1380.51C193.854 1421.89 168.105 1453.89 145.114 1474.09C133.618 1484.19 122.831 1491.33 112.952 1495.21C103.076 1499.1 94.1375 1499.73 86.2984 1496.87Z" stroke="#C5AAFA" stroke-opacity="0.5"/>
<path opacity="0.862069" d="M46.4979 1482.13C38.9374 1478.61 33.062 1471.84 28.8254 1462.11C24.5872 1452.38 22.0029 1439.71 21.0162 1424.44C19.0428 1393.9 23.4652 1353.06 33.6969 1304.77C54.1585 1208.21 97.8289 1081.96 159.865 948.92C221.9 815.884 290.542 701.279 351.363 623.533C381.776 584.657 410.217 555.02 434.882 536.9C447.214 527.84 458.582 521.675 468.762 518.665C478.938 515.657 487.898 515.808 495.458 519.334C503.019 522.86 508.894 529.625 513.131 539.355C517.369 549.088 519.953 561.759 520.94 577.03C522.914 607.571 518.491 648.408 508.259 696.695C487.798 793.261 444.127 919.51 382.092 1052.55C320.056 1185.58 251.414 1300.19 190.593 1377.93C160.18 1416.81 131.739 1446.45 107.075 1464.57C94.7421 1473.63 83.3748 1479.79 73.1943 1482.8C63.018 1485.81 54.0585 1485.66 46.4979 1482.13Z" stroke="#C5AAFA" stroke-opacity="0.5"/>
<path opacity="0.896552" d="M8.39468 1463.74C1.17015 1459.57 -4.0932 1452.32 -7.4657 1442.26C-10.8395 1432.19 -12.3096 1419.34 -11.9616 1404.04C-11.2656 1373.45 -3.30085 1333.15 11.1004 1285.94C39.9004 1191.52 94.408 1069.56 167.803 942.439C241.197 815.316 319.566 707.13 386.932 634.981C420.617 598.903 451.533 571.857 477.683 555.956C490.758 548.005 502.62 542.855 513.024 540.743C523.423 538.633 532.336 539.565 539.56 543.737C546.785 547.908 552.048 555.16 555.42 565.221C558.794 575.287 560.264 588.135 559.916 603.434C559.22 634.031 551.256 674.327 536.854 721.539C508.054 815.954 453.547 937.916 380.152 1065.04C306.758 1192.16 228.389 1300.35 161.023 1372.5C127.337 1408.58 96.4221 1435.62 70.2719 1451.52C57.1966 1459.47 45.3352 1464.62 34.9312 1466.74C24.5314 1468.85 15.6192 1467.91 8.39468 1463.74Z" stroke="#C5AAFA" stroke-opacity="0.5"/>
<path opacity="0.931035" d="M-27.6811 1441.84C-34.5146 1437.06 -39.1259 1429.38 -41.6086 1419.06C-44.0923 1408.74 -44.4371 1395.81 -42.757 1380.6C-39.3969 1350.18 -27.9504 1310.73 -9.48925 1264.95C27.43 1173.41 92.36 1056.66 176.555 936.418C260.749 816.175 348.249 715.231 421.647 649.228C458.349 616.223 491.504 591.975 518.94 578.413C532.659 571.632 544.924 567.535 555.472 566.339C566.016 565.143 574.813 566.848 581.647 571.633C588.48 576.418 593.092 584.101 595.574 594.418C598.058 604.74 598.403 617.667 596.723 632.877C593.363 663.297 581.916 702.746 563.455 748.523C526.536 840.068 461.606 956.816 377.411 1077.06C293.216 1197.3 205.716 1298.25 132.319 1364.25C95.617 1397.25 62.4622 1421.5 35.0257 1435.06C21.3071 1441.84 9.04199 1445.94 -1.50645 1447.14C-12.0506 1448.33 -20.8476 1446.63 -27.6811 1441.84Z" stroke="#C5AAFA" stroke-opacity="0.5"/>
<path opacity="0.965517" d="M-61.4493 1416.64C-67.8398 1411.28 -71.7639 1403.22 -73.3379 1392.73C-74.9126 1382.23 -74.1294 1369.32 -71.13 1354.31C-65.1314 1324.3 -50.2903 1286 -27.9097 1242.01C16.8477 1154.03 91.7059 1043.38 186.06 930.936C280.414 818.489 376.379 725.555 455.25 666.2C494.689 636.52 529.831 615.254 558.345 604.135C572.602 598.575 585.178 595.562 595.79 595.29C606.398 595.018 615.013 597.483 621.404 602.846C627.794 608.208 631.718 616.264 633.292 626.758C634.867 637.257 634.084 650.165 631.085 665.171C625.086 695.182 610.245 733.483 587.864 777.477C543.107 865.456 468.249 976.101 373.894 1088.55C279.54 1200.99 183.575 1293.93 104.705 1353.28C65.2659 1382.96 30.1239 1404.23 1.6098 1415.35C-12.6475 1420.91 -25.2231 1423.92 -35.8357 1424.19C-46.4439 1424.47 -55.0588 1422 -61.4493 1416.64Z" stroke="#C5AAFA" stroke-opacity="0.5"/>
<path d="M-92.6052 1388.33C-98.504 1382.43 -101.711 1374.06 -102.364 1363.47C-103.018 1352.88 -101.113 1340.08 -96.8171 1325.4C-88.2257 1296.02 -70.1029 1259.16 -43.9732 1217.29C8.28189 1133.54 92.4985 1029.84 196.294 926.047C300.09 822.251 403.789 738.035 487.533 685.78C529.408 659.65 566.27 641.527 595.645 632.936C610.332 628.64 623.123 626.735 633.718 627.388C644.31 628.042 652.677 631.249 658.576 637.148C664.475 643.046 667.682 651.414 668.335 662.005C668.989 672.601 667.084 685.392 662.788 700.079C654.197 729.454 636.074 766.316 609.944 808.191C557.689 891.935 473.472 995.634 369.677 1099.43C265.881 1203.23 162.182 1287.44 78.4381 1339.7C36.5627 1365.83 -0.299016 1383.95 -29.6737 1392.54C-44.3613 1396.84 -57.1516 1398.74 -67.7476 1398.09C-78.3392 1397.43 -86.7064 1394.23 -92.6052 1388.33Z" stroke="#C5AAFA" stroke-opacity="0.5"/>
</g>
<defs>
<linearGradient id="paint0_linear_308_45884" x1="400" y1="-9.13375e-05" x2="-48.3391" y2="29.2574" gradientUnits="userSpaceOnUse">
<stop stop-color="#7E39FD"/>
<stop offset="1" stop-color="#2F1369"/>
</linearGradient>
<linearGradient id="paint1_linear_308_45884" x1="400" y1="-9.13375e-05" x2="-48.3391" y2="29.2574" gradientUnits="userSpaceOnUse">
<stop stop-color="#7E39FD"/>
<stop offset="1" stop-color="#2F1369"/>
</linearGradient>
</defs>
</svg>
