<svg width="209" height="200" viewBox="0 0 209 200" fill="none" xmlns="http://www.w3.org/2000/svg">
<g id="Group 1261159481">
<g id="Group 1261159099">
<path id="Vector" d="M130.857 199.998C126.329 199.763 121.85 198.95 117.528 197.578C113.245 196.225 108.808 195.418 104.323 195.176C99.8377 195.418 95.401 196.225 91.118 197.578C86.796 198.95 82.3166 199.763 77.7884 199.998C75.8636 200.024 73.9471 199.741 72.1113 199.162C65.8648 197.133 61.4334 191.652 57.2335 186.366C54.686 182.873 51.6948 179.727 48.3352 177.005C44.662 174.64 40.7033 172.75 36.554 171.382C30.254 168.979 23.7405 166.505 19.9498 161.273C16.1592 156.041 15.8211 149.172 15.4829 142.48C15.4446 138.068 14.8466 133.679 13.7033 129.418C12.1606 125.473 10.1213 121.741 7.63469 118.313C3.87963 112.6 0 106.709 0 100C0 93.2908 3.91522 87.4002 7.72367 81.6163C10.2173 78.192 12.2571 74.4593 13.7923 70.5113C14.927 66.2542 15.5249 61.872 15.5719 57.4665C15.91 50.7572 16.266 43.8166 20.0388 38.6556C23.8117 33.4947 30.343 30.9498 36.6429 28.5472C40.7858 27.2081 44.7394 25.3419 48.4064 22.9947C51.762 20.276 54.7528 17.1357 57.3046 13.6516C61.558 8.31265 65.9359 2.86693 72.1825 0.838129C74.0203 0.267567 75.9354 -0.0145979 77.8596 0.00169236C82.3638 0.243259 86.8189 1.05656 91.118 2.42201C95.3991 3.78281 99.8368 4.59021 104.323 4.82453C108.809 4.59177 113.247 3.78434 117.528 2.42201C121.85 1.05061 126.329 0.237248 130.857 0.00169236C132.782 -0.0246975 134.699 0.2577 136.535 0.838129C142.781 2.86693 147.212 8.34824 151.412 13.6516C153.969 17.1316 156.959 20.2713 160.311 22.9947C163.981 25.3648 167.941 27.2548 172.092 28.6184C178.392 31.0209 184.905 33.5125 188.714 38.7268C192.522 43.9412 192.825 50.8284 193.163 57.5377C193.201 61.9438 193.799 66.3272 194.943 70.5825C196.447 74.5048 198.458 78.2141 200.922 81.6163C204.677 87.329 208.557 93.2374 208.557 99.9289C208.557 106.62 204.677 112.529 200.922 118.241C198.434 121.667 196.401 125.399 194.871 129.346C193.728 133.608 193.13 137.997 193.092 142.409C192.754 149.101 192.398 156.041 188.643 161.202C184.888 166.363 178.321 168.908 172.021 171.311C167.873 172.682 163.914 174.571 160.239 176.934C156.884 179.66 153.893 182.806 151.341 186.295C147.106 191.634 142.71 196.973 136.481 199.091C134.666 199.687 132.768 199.993 130.857 199.998Z" fill="url(#paint0_linear_2577_1463)"/>
<path id="Vector_2" d="M207.278 99.9999C207.278 110.678 196.76 119.469 193.646 129.044C190.425 138.992 193.646 152.304 187.613 160.561C181.58 168.819 167.841 169.958 159.495 176.026C151.148 182.095 146.04 194.784 136.11 198.023C126.518 201.119 114.879 193.965 104.254 193.965C93.6298 193.965 81.9909 201.084 72.4164 198.023C62.4681 194.784 57.2894 182.006 49.0318 176.026C40.7742 170.047 26.982 168.908 20.8956 160.561C14.8092 152.215 18.0837 138.992 14.8626 129.044C11.7482 119.469 1.23047 110.624 1.23047 99.9999C1.23047 89.3754 11.7482 80.5484 14.8626 70.9383C18.0837 61.0256 14.8804 47.8029 20.8956 39.4385C26.9108 31.0742 40.6675 30.0064 49.0318 23.9734C57.3961 17.9404 62.4681 5.21588 72.4164 1.99472C81.9909 -1.11967 93.6298 6.03452 104.254 6.03452C114.879 6.03452 126.518 -1.08407 136.11 1.99472C146.04 5.21588 151.219 18.0115 159.495 23.9734C167.77 29.9352 181.527 31.092 187.613 39.4385C193.699 47.7851 190.425 61.0256 193.646 70.9561C196.76 80.5484 207.278 89.3754 207.278 99.9999Z" fill="url(#paint1_linear_2577_1463)"/>
<path id="Vector_3" d="M130.872 193.982C126.874 193.73 122.922 192.983 119.108 191.758C114.32 190.244 109.354 189.364 104.337 189.142C99.3207 189.367 94.3551 190.247 89.5662 191.758C85.7521 192.983 81.8007 193.73 77.8027 193.982C76.506 194.003 75.2144 193.817 73.9764 193.431C69.4561 191.953 65.8079 187.415 61.946 182.593C59.0972 178.683 55.7464 175.164 51.98 172.128C47.89 169.434 43.4619 167.291 38.8106 165.757C33.0801 163.568 27.67 161.504 24.9116 157.731C22.1531 153.958 21.9218 148.263 21.6014 142.159C21.5611 137.227 20.8791 132.322 19.5726 127.566C17.8845 123.097 15.6104 118.872 12.81 115.001C9.39304 109.805 6.17188 104.893 6.17188 99.9991C6.17188 95.105 9.35745 90.1932 12.8278 84.9966C15.6279 81.1326 17.902 76.9134 19.5904 72.4501C20.8959 67.6881 21.5778 62.7768 21.6192 57.8392C21.9396 51.7528 22.2243 45.9868 24.9294 42.2673C27.6344 38.5478 33.0979 36.4301 38.8284 34.2589C43.4742 32.7169 47.8962 30.5687 51.98 27.87C55.759 24.8363 59.1218 21.3179 61.9816 17.4056C65.8435 12.6006 69.4917 8.04467 74.012 6.58536C75.25 6.19912 76.5416 6.01288 77.8383 6.03367C81.8357 6.27925 85.7871 7.02052 89.6017 8.24044C94.3907 9.75136 99.3563 10.6308 104.373 10.8565C109.39 10.6324 114.355 9.75294 119.144 8.24044C122.959 7.02052 126.91 6.27925 130.907 6.03367C132.203 6.01473 133.493 6.1948 134.734 6.56757C139.254 8.04468 142.902 12.6006 146.764 17.4056C149.624 21.3179 152.987 24.8363 156.766 27.87C160.857 30.5667 165.285 32.7147 169.935 34.2589C175.665 36.4301 181.093 38.4944 183.834 42.2673C186.575 46.0401 186.842 51.7528 187.144 57.8392C187.186 62.7768 187.868 67.6881 189.173 72.4501C190.868 76.9102 193.142 81.1285 195.936 84.9966C199.353 90.1932 202.592 95.105 202.592 99.9991C202.592 104.893 199.353 109.805 195.936 115.001C193.142 118.876 190.868 123.1 189.173 127.566C187.867 132.322 187.185 137.227 187.144 142.159C186.842 148.263 186.539 154.011 183.834 157.731C181.129 161.45 175.665 163.568 169.935 165.757C165.285 167.295 160.858 169.437 156.766 172.128C152.987 175.162 149.624 178.68 146.764 182.593C142.902 187.415 139.254 191.953 134.734 193.431C133.485 193.822 132.18 194.008 130.872 193.982Z" fill="url(#paint2_linear_2577_1463)"/>
<path id="Vector_4" d="M130.872 193.982C126.874 193.73 122.922 192.983 119.108 191.758C114.32 190.244 109.354 189.364 104.337 189.142C99.3207 189.367 94.3551 190.247 89.5662 191.758C85.7521 192.983 81.8007 193.73 77.8027 193.982C76.506 194.003 75.2144 193.817 73.9764 193.431C69.4561 191.953 65.8079 187.415 61.946 182.593C59.0972 178.683 55.7464 175.164 51.98 172.128C47.89 169.434 43.4619 167.291 38.8106 165.757C33.0801 163.568 27.67 161.504 24.9116 157.731C22.1531 153.958 21.9218 148.263 21.6014 142.159C21.5611 137.227 20.8791 132.322 19.5726 127.566C17.8845 123.097 15.6104 118.872 12.81 115.001C9.39304 109.805 6.17188 104.893 6.17188 99.9991C6.17188 95.105 9.35745 90.1932 12.8278 84.9966C15.6279 81.1326 17.902 76.9134 19.5904 72.4501C20.8959 67.6881 21.5778 62.7768 21.6192 57.8392C21.9396 51.7528 22.2243 45.9868 24.9294 42.2673C27.6344 38.5478 33.0979 36.4301 38.8284 34.2589C43.4742 32.7169 47.8962 30.5687 51.98 27.87C55.759 24.8363 59.1218 21.3179 61.9816 17.4056C65.8435 12.6006 69.4917 8.04467 74.012 6.58536C75.25 6.19912 76.5416 6.01288 77.8383 6.03367C81.8357 6.27925 85.7871 7.02052 89.6017 8.24044C94.3907 9.75136 99.3563 10.6308 104.373 10.8565C109.39 10.6324 114.355 9.75294 119.144 8.24044C122.959 7.02052 126.91 6.27925 130.907 6.03367C132.203 6.01473 133.493 6.1948 134.734 6.56757C139.254 8.04468 142.902 12.6006 146.764 17.4056C149.624 21.3179 152.987 24.8363 156.766 27.87C160.857 30.5667 165.285 32.7147 169.935 34.2589C175.665 36.4301 181.093 38.4944 183.834 42.2673C186.575 46.0401 186.842 51.7528 187.144 57.8392C187.186 62.7768 187.868 67.6881 189.173 72.4501C190.868 76.9102 193.142 81.1285 195.936 84.9966C199.353 90.1932 202.592 95.105 202.592 99.9991C202.592 104.893 199.353 109.805 195.936 115.001C193.142 118.876 190.868 123.1 189.173 127.566C187.867 132.322 187.185 137.227 187.144 142.159C186.842 148.263 186.539 154.011 183.834 157.731C181.129 161.45 175.665 163.568 169.935 165.757C165.285 167.295 160.858 169.437 156.766 172.128C152.987 175.162 149.624 178.68 146.764 182.593C142.902 187.415 139.254 191.953 134.734 193.431C133.485 193.822 132.18 194.008 130.872 193.982Z" fill="url(#paint3_linear_2577_1463)"/>
<path id="Vector_5" d="M130.839 189.161C127.271 188.893 123.747 188.206 120.339 187.114C115.149 185.474 109.762 184.534 104.323 184.32C98.8827 184.531 93.4957 185.471 88.3057 187.114C84.8917 188.204 81.3618 188.891 77.788 189.161C76.9988 189.178 76.2119 189.07 75.4567 188.84C72.3067 187.826 69.0855 183.822 65.7042 179.586C62.583 175.332 58.9083 171.514 54.7772 168.232C50.3609 165.283 45.5736 162.931 40.54 161.238C35.5036 159.334 30.7341 157.519 28.8299 154.902C26.9257 152.286 26.7121 147.268 26.4452 141.911C26.3941 136.555 25.6341 131.229 24.185 126.072C22.3694 121.189 19.9031 116.574 16.8529 112.351C13.8453 107.777 11.0156 103.453 11.0156 100C11.0156 96.5479 13.8453 92.2233 16.8529 87.6496C19.9031 83.4266 22.3694 78.8113 24.185 73.9285C25.6362 68.7722 26.3962 63.4461 26.4452 58.0897C26.7121 52.7507 26.9791 47.6787 28.8299 45.116C30.6807 42.5534 35.5036 40.6847 40.54 38.7627C45.5736 37.0699 50.3609 34.7181 54.7772 31.7687C58.9067 28.4976 62.5762 24.6844 65.6864 20.4323C69.0855 16.1968 72.3067 12.1926 75.4567 11.1604C76.213 10.9375 76.9998 10.8354 77.788 10.8578C81.3618 11.1272 84.8917 11.8141 88.3057 12.9044C93.4969 14.5404 98.8836 15.4741 104.323 15.6807C109.762 15.4758 115.149 14.5421 120.339 12.9044C123.753 11.8141 127.283 11.1272 130.857 10.8578C131.645 10.8342 132.432 10.9363 133.188 11.1604C136.356 12.1926 139.56 16.1968 142.959 20.4323C146.064 24.6941 149.734 28.5138 153.868 31.7865C158.282 34.7405 163.07 37.0925 168.105 38.7805C173.142 40.7025 177.911 42.5178 179.815 45.1338C181.719 47.7499 181.933 52.7507 182.218 58.1075C182.259 63.4645 183.019 68.7917 184.478 73.9463C186.28 78.8316 188.741 83.448 191.792 87.6674C194.8 92.2411 197.647 96.5656 197.647 100.018C197.647 103.471 194.8 107.795 191.792 112.369C188.765 116.601 186.323 121.222 184.531 126.108C183.073 131.263 182.313 136.59 182.271 141.947C181.986 147.286 181.737 152.375 179.869 154.938C178 157.501 173.195 159.369 168.159 161.274C163.123 162.962 158.335 165.314 153.921 168.268C149.781 171.54 146.106 175.36 142.994 179.622C139.595 183.857 136.392 187.862 133.224 188.876C132.45 189.101 131.644 189.197 130.839 189.161Z" fill="#1E1A42"/>
<path id="Vector_6" d="M166.457 60.5287C166.457 60.5287 162.737 55.2966 159.214 54.9406C157.098 54.7801 154.971 55.0278 152.949 55.6703C152.949 55.6703 159.57 60.4042 162.737 61.3296C163.37 61.5617 164.055 61.6096 164.713 61.4678C165.371 61.3261 165.976 61.0004 166.457 60.5287Z" fill="url(#paint4_radial_2577_1463)"/>
<path id="Vector_7" d="M176.895 120.522C177.513 120.84 178.222 120.937 178.902 120.794C179.583 120.651 180.194 120.279 180.632 119.738C183.337 117.283 186.825 107.495 186.825 107.495C184.862 108.676 183.021 110.047 181.326 111.588C178.514 114.222 176.895 120.522 176.895 120.522Z" fill="url(#paint5_radial_2577_1463)"/>
<path id="Vector_8" d="M173.008 131.037C176.742 122.935 178.852 114.181 179.219 105.268C179.504 105.268 181.141 105.73 182.778 103.613C184.985 100.587 186.658 90.212 186.658 90.212C184.936 91.8385 183.375 93.6263 181.995 95.5509C180.483 98.2949 179.567 101.327 179.308 104.449C179.308 103.506 179.308 102.563 179.308 101.62C179.306 97.5187 178.979 93.4245 178.329 89.3755C178.962 89.2177 179.542 88.8936 180.008 88.4369C180.474 87.9801 180.81 87.4072 180.981 86.7773C182.404 83.218 181.515 72.718 181.515 72.718C180.273 74.794 179.213 76.9733 178.347 79.2316C177.738 81.1812 177.497 83.2268 177.635 85.2646C176.828 81.4907 175.733 77.7842 174.36 74.1773C175.008 73.9121 175.569 73.472 175.98 72.9063C176.392 72.3406 176.638 71.6716 176.692 70.974C177.475 67.1477 174.716 57.0749 174.716 57.0749C173.849 59.3876 173.176 61.7687 172.705 64.1935C172.442 66.7934 172.703 69.4195 173.471 71.9172C171.746 67.7905 169.649 63.8293 167.206 60.0825C167.824 59.6985 168.32 59.1464 168.635 58.4907C168.95 57.8351 169.072 57.1032 168.986 56.3809C168.986 52.4834 164.341 43.2115 164.341 43.2115C163.936 45.6463 163.74 48.1111 163.754 50.5792C164.08 53.6175 165.044 56.5527 166.583 59.1927C165.02 56.8582 163.32 54.6179 161.494 52.4834C160.466 49.4754 158.429 46.916 155.727 45.2403C151.847 42.9371 147.781 40.9608 143.573 39.3319C143.573 39.3319 151.688 47.0911 155.888 50.2589C157.48 51.5157 159.29 52.4689 161.227 53.0707C166.133 58.8165 170.097 65.3038 172.972 72.2909C171.96 70.1897 170.301 68.4682 168.238 67.3791C166.241 66.7648 164.144 66.5472 162.063 66.7384C162.063 66.7384 167.544 72.807 170.445 74.4087C170.969 74.7514 171.574 74.9499 172.199 74.9843C172.823 75.0186 173.446 74.8876 174.004 74.6045C175.692 79.1269 176.949 83.7984 177.76 88.5569C177.172 86.6705 175.749 82.7197 173.453 81.4383C171.637 80.3975 169.637 79.7205 167.562 79.4451C167.562 79.4451 171.816 86.5637 174.378 88.8061C174.826 89.2769 175.397 89.6119 176.027 89.7725C176.657 89.933 177.319 89.9127 177.937 89.7137C178.556 93.6881 178.872 97.704 178.881 101.726C178.881 102.936 178.881 104.129 178.881 105.286C178.881 104.449 178.258 98.5763 175.766 96.2806C174.164 94.8737 172.318 93.7702 170.321 93.0238C170.321 93.0238 173.275 100.997 175.428 103.702C175.784 104.281 176.298 104.747 176.91 105.043C177.522 105.34 178.206 105.455 178.881 105.375C178.637 110.385 177.855 115.355 176.549 120.199C176.656 118.864 176.905 113.508 174.965 110.891C173.637 109.153 172.01 107.665 170.16 106.496C170.868 110.464 171.953 114.355 173.399 118.117C173.65 118.755 174.069 119.313 174.611 119.732C175.153 120.152 175.798 120.418 176.478 120.502C175.264 124.964 173.576 129.283 171.442 133.386C171.869 131.357 172.456 127.371 171.246 124.879C170.225 122.89 168.877 121.085 167.26 119.541C167.286 123.61 167.697 127.668 168.488 131.66C168.633 132.29 168.918 132.879 169.322 133.384C169.725 133.889 170.237 134.297 170.819 134.579C168.282 139.235 165.2 143.572 161.636 147.499C162.383 145.719 163.914 141.662 163.113 138.761C162.46 136.567 161.457 134.494 160.141 132.621C159.448 136.634 159.132 140.704 159.198 144.776C159.228 145.438 159.403 146.086 159.711 146.673C160.018 147.26 160.451 147.773 160.977 148.175C160.515 148.691 160.052 149.207 159.554 149.706C157.064 152.199 154.406 154.518 151.599 156.646C153.244 154.666 154.271 152.247 154.553 149.688C154.489 147.359 154.044 145.057 153.236 142.872C151.535 146.535 150.177 150.348 149.178 154.261C149.047 154.887 149.044 155.533 149.17 156.16C149.295 156.787 149.546 157.382 149.908 157.91C146.724 160.161 143.395 162.201 139.942 164.014C141.312 163 144.996 160.063 145.619 156.895C146.006 154.598 146.006 152.252 145.619 149.955C143.155 153.141 140.993 156.548 139.159 160.134C138.851 160.781 138.705 161.494 138.733 162.21C138.761 162.926 138.962 163.624 139.319 164.245C135.737 166.098 132.033 167.704 128.232 169.05C130.012 168.125 133.927 165.918 134.995 163.16C135.788 160.963 136.192 158.644 136.187 156.308C133.116 159.075 130.293 162.106 127.751 165.366C127.319 165.939 127.043 166.614 126.949 167.325C126.855 168.036 126.948 168.759 127.218 169.424C122.674 170.993 118.023 172.23 113.301 173.126C110.242 173.673 107.257 174.569 104.402 175.795C101.547 174.571 98.562 173.675 95.5042 173.126C90.7813 172.232 86.13 170.995 81.5874 169.424C81.8527 168.757 81.9414 168.034 81.8447 167.323C81.7481 166.612 81.4694 165.938 81.0357 165.366C78.4968 162.12 75.6738 159.107 72.6002 156.361C72.5956 158.697 72.9991 161.016 73.7925 163.213C74.8603 165.972 78.7221 168.178 80.5552 169.104C76.754 167.757 73.0496 166.152 69.468 164.299C69.8294 163.679 70.0331 162.98 70.061 162.263C70.089 161.546 69.9403 160.834 69.6281 160.188C67.7945 156.602 65.6318 153.194 63.168 150.008C62.786 152.306 62.786 154.651 63.168 156.949C63.7909 160.063 67.457 163 68.8273 164.067C65.3781 162.258 62.0545 160.219 58.8791 157.963C59.2362 157.434 59.4846 156.838 59.6099 156.212C59.7351 155.586 59.7347 154.941 59.6087 154.315C58.5986 150.403 57.2345 146.59 55.5333 142.925C54.7357 145.113 54.2912 147.414 54.2164 149.741C54.5649 152.28 55.6474 154.661 57.3308 156.593C54.5212 154.46 51.8577 152.141 49.358 149.652C48.8774 149.154 48.4147 148.638 47.9342 148.122C48.4611 147.719 48.8935 147.207 49.201 146.619C49.5084 146.032 49.6835 145.385 49.7139 144.723C49.7798 140.65 49.464 136.581 48.7707 132.568C47.455 134.44 46.4513 136.514 45.7987 138.707C44.9978 141.608 46.5283 145.701 47.2758 147.445C43.7121 143.519 40.6294 139.182 38.0928 134.525C38.6748 134.244 39.1864 133.836 39.5898 133.331C39.9933 132.825 40.2784 132.236 40.4241 131.607C41.2149 127.615 41.6261 123.557 41.6521 119.487C40.0344 121.032 38.6869 122.836 37.6657 124.826C36.4555 127.318 37.0428 131.304 37.4699 133.333C35.3395 129.239 33.6455 124.932 32.4157 120.484C33.0922 120.395 33.7327 120.128 34.2709 119.708C34.8091 119.289 35.2254 118.733 35.4767 118.099C36.9226 114.357 38.0014 110.482 38.6979 106.531C36.8521 107.705 35.226 109.193 33.8928 110.927C31.9708 113.543 32.22 118.9 32.3089 120.235C31.009 115.39 30.2333 110.42 29.9954 105.41C30.6677 105.487 31.3479 105.37 31.9562 105.074C32.5646 104.777 33.0758 104.314 33.4301 103.737C35.5835 101.014 38.5377 93.0594 38.5377 93.0594C36.54 93.8058 34.6947 94.9093 33.092 96.3162C30.6183 98.6119 30.0488 104.485 29.9776 105.321C29.9776 104.129 29.9776 102.936 29.9776 101.762C29.9867 97.7395 30.302 93.7237 30.9208 89.7493C31.5406 89.9359 32.1994 89.95 32.8266 89.7901C33.4537 89.6301 34.0254 89.3022 34.4801 88.8416C37.0428 86.6349 41.2962 79.4807 41.2962 79.4807C39.2158 79.7548 37.2089 80.4318 35.3877 81.4739C33.1098 82.8442 31.6683 86.8128 31.081 88.5925C31.8914 83.834 33.1486 79.1625 34.836 74.6401C35.3942 74.9232 36.0171 75.0542 36.642 75.0199C37.2669 74.9855 37.8716 74.787 38.3953 74.4443C41.2784 72.8426 46.7597 66.774 46.7597 66.774C44.6791 66.5828 42.5813 66.8004 40.5843 67.4147C38.5233 68.4843 36.8538 70.1788 35.8148 72.2553C38.7033 65.275 42.6665 58.7898 47.5605 53.0351C49.4976 52.4333 51.3074 51.4802 52.8995 50.2233C57.0994 47.0555 65.2146 39.2963 65.2146 39.2963C61.0061 40.9252 56.9404 42.9015 53.0596 45.2047C50.3644 46.887 48.3288 49.4441 47.2936 52.4479C45.4666 54.5823 43.7671 56.8226 42.2038 59.1571C43.7411 56.515 44.7109 53.5815 45.0512 50.5436C45.0538 48.0752 44.8515 45.6108 44.4461 43.1759C44.4461 43.1759 39.7479 52.4479 39.8013 56.3453C39.7197 57.0672 39.8434 57.7975 40.1582 58.4523C40.473 59.1071 40.9661 59.6598 41.5809 60.0469C39.1439 63.7941 37.053 67.7553 35.3343 71.8816C36.0629 69.3698 36.2807 66.7375 35.975 64.1401C35.5153 61.7147 34.8485 59.3331 33.9818 57.0215C33.9818 57.0215 31.2589 67.1477 32.0242 70.9384C32.0776 71.636 32.3239 72.305 32.7356 72.8707C33.1472 73.4364 33.7081 73.8765 34.3555 74.1418C32.9887 77.749 31.9 81.4556 31.0988 85.229C31.2223 83.1904 30.9751 81.1463 30.3691 79.196C29.4691 76.9418 28.3672 74.7737 27.0768 72.718C27.0768 72.718 26.187 83.2002 27.6107 86.7773C27.7847 87.4055 28.1216 87.9766 28.5872 88.4329C29.0529 88.8891 29.6307 89.2143 30.2623 89.3755C29.6126 93.4245 29.2853 97.5187 29.2835 101.62C29.2835 102.563 29.2835 103.506 29.2835 104.449C29.0309 101.328 28.1212 98.2957 26.6141 95.5509C25.2249 93.6284 23.6578 91.8408 21.9336 90.212C21.9336 90.212 23.6065 100.587 25.831 103.613C27.3793 105.73 29.0166 105.392 29.3903 105.268C29.7723 114.181 31.888 122.934 35.6191 131.037C34.6054 129.391 33.2745 127.964 31.7039 126.837C29.7683 125.717 27.7228 124.799 25.5997 124.096C25.5997 124.096 30.7606 132.906 33.8394 134.685C34.3607 135.051 34.9821 135.248 35.6191 135.248C36.256 135.248 36.8775 135.051 37.3987 134.685C39.5298 138.545 42.0333 142.187 44.8732 145.559C43.4719 144.201 41.7975 143.158 39.9614 142.498C37.8244 141.95 35.6347 141.634 33.4301 141.555C33.4301 141.555 40.5487 148.673 43.8944 149.492C44.5207 149.718 45.2025 149.74 45.8419 149.555C46.4814 149.369 47.0457 148.986 47.4537 148.46C47.952 148.994 48.4325 149.528 48.9308 150.044C50.8192 151.924 52.8032 153.706 54.8749 155.383C53.3634 154.447 51.6715 153.84 49.9097 153.603C47.7037 153.483 45.4912 153.591 43.3072 153.923C43.3072 153.923 51.3868 159.583 54.9283 159.761C55.5919 159.85 56.2673 159.739 56.867 159.441C57.4666 159.143 57.963 158.671 58.2918 158.088C61.3192 160.285 64.4945 162.271 67.7951 164.032C65.394 162.769 62.7305 162.086 60.018 162.039C57.7629 162.287 55.5388 162.764 53.38 163.462C53.38 163.462 62.4384 167.68 66.1044 167.253C66.828 167.242 67.53 167.005 68.1112 166.574C68.6924 166.143 69.1234 165.54 69.3434 164.85C72.6432 166.544 76.0426 168.035 79.523 169.317C76.871 168.493 74.0715 168.256 71.3188 168.623C69.0272 169.213 66.7982 170.024 64.6629 171.044C64.6629 171.044 74.7713 173.82 78.562 172.823C79.2848 172.723 79.9594 172.403 80.4942 171.906C81.0289 171.409 81.3982 170.76 81.5518 170.047C86.0798 171.602 90.7126 172.833 95.4152 173.731C98.2509 174.245 101.025 175.057 103.691 176.151C100.923 177.395 98.3883 179.105 96.1983 181.205L96.7856 181.401C99.0091 179.328 101.574 177.654 104.367 176.454C107.162 177.65 109.728 179.324 111.948 181.401L112.535 181.205C110.349 179.1 107.814 177.39 105.043 176.151C107.71 175.059 110.483 174.248 113.318 173.731C118.022 172.835 122.655 171.604 127.182 170.047C127.337 170.763 127.708 171.414 128.247 171.911C128.785 172.407 129.463 172.726 130.19 172.823C133.98 173.82 144.071 171.044 144.071 171.044C141.936 170.024 139.707 169.213 137.415 168.623C134.668 168.257 131.874 168.494 129.229 169.317C132.709 168.035 136.108 166.544 139.408 164.85C139.626 165.541 140.056 166.146 140.638 166.577C141.22 167.009 141.923 167.245 142.647 167.253C146.313 167.68 155.372 163.462 155.372 163.462C153.206 162.765 150.977 162.288 148.716 162.039C146.009 162.086 143.351 162.769 140.956 164.032C144.249 162.267 147.418 160.281 150.442 158.088C150.771 158.671 151.267 159.143 151.867 159.441C152.466 159.739 153.142 159.85 153.805 159.761C157.365 159.583 165.444 153.923 165.444 153.923C163.254 153.591 161.036 153.484 158.824 153.603C157.063 153.843 155.372 154.45 153.859 155.383C155.938 153.715 157.923 151.933 159.803 150.044C160.301 149.528 160.799 148.994 161.28 148.46C161.688 148.986 162.252 149.369 162.892 149.555C163.531 149.74 164.213 149.718 164.839 149.492C168.256 148.638 175.321 141.555 175.321 141.555C173.117 141.633 170.927 141.949 168.79 142.498C166.954 143.158 165.28 144.201 163.878 145.559C166.673 142.193 169.135 138.563 171.228 134.721C171.749 135.087 172.371 135.283 173.008 135.283C173.645 135.283 174.266 135.087 174.788 134.721C177.884 132.941 183.027 124.132 183.027 124.132C180.909 124.833 178.869 125.751 176.941 126.873C175.359 127.977 174.02 129.395 173.008 131.037Z" fill="url(#paint6_radial_2577_1463)"/>
<path id="Vector_9" d="M49.3721 54.9208C45.8128 55.2767 42.1289 60.5089 42.1289 60.5089C42.6096 60.9806 43.2143 61.3062 43.8727 61.448C44.531 61.5898 45.2161 61.5418 45.8484 61.3097C49.0161 60.3843 55.6364 55.6505 55.6364 55.6505C53.6144 55.008 51.4877 54.7603 49.3721 54.9208Z" fill="url(#paint7_radial_2577_1463)"/>
<path id="Vector_10" d="M31.7761 120.52C31.7761 120.52 30.1567 114.22 27.3626 111.622C25.6635 110.078 23.8155 108.707 21.8457 107.529C21.8457 107.529 25.405 117.317 28.0389 119.773C28.4816 120.307 29.0946 120.673 29.775 120.809C30.4554 120.945 31.1619 120.843 31.7761 120.52Z" fill="url(#paint8_radial_2577_1463)"/>
<path id="Vector_11" d="M98.3609 32.6219L103.184 29.5965L108.007 32.6219L106.618 27.0872L110.996 23.4389L105.302 23.0474L103.184 17.7618L101.066 23.0474L95.3711 23.4389L99.749 27.0872L98.3609 32.6219Z" fill="url(#paint9_radial_2577_1463)"/>
<path id="Vector_12" d="M70.5278 35.4714L71.1151 38.4079L72.7167 35.8808L75.6888 36.2367L73.7845 33.9231L75.0303 31.2181L72.254 32.3215L70.0473 30.2927L70.243 33.2647L67.627 34.724L70.5278 35.4714Z" fill="url(#paint10_radial_2577_1463)"/>
<path id="Vector_13" d="M82.9645 33.7604L85.7407 30.6639L89.7449 31.8206L87.6628 28.2079L89.9941 24.7732L85.9187 25.6453L83.3738 22.3529L82.9289 26.4995L79.0137 27.9054L82.8221 29.5961L82.9645 33.7604Z" fill="url(#paint11_radial_2577_1463)"/>
<path id="Vector_14" d="M133.48 35.8808L135.082 38.4079L135.669 35.4714L138.57 34.724L135.954 33.2647L136.149 30.2927L133.943 32.3215L131.166 31.2181L132.412 33.9231L130.508 36.2367L133.48 35.8808Z" fill="url(#paint12_radial_2577_1463)"/>
<path id="Vector_15" d="M116.499 31.8206L120.503 30.6639L123.28 33.7604L123.422 29.5961L127.23 27.9054L123.315 26.4995L122.87 22.3529L120.325 25.6453L116.25 24.7732L118.581 28.2079L116.499 31.8206Z" fill="url(#paint13_radial_2577_1463)"/>
</g>
<path id="Vector_16" d="M102.538 56.7014H74.7559V142.124H119.043V128.09H133.484V93.0028L102.538 56.7014ZM119.043 127.955H89.1973V70.8711H95.799L119.043 98.1309V127.955Z" fill="#FFF5A8"/>
</g>
<defs>
<linearGradient id="paint0_linear_2577_1463" x1="133.865" y1="3.63218" x2="59.2979" y2="246.981" gradientUnits="userSpaceOnUse">
<stop stop-color="#FFF5A8"/>
<stop offset="0.31" stop-color="#BD8100"/>
<stop offset="0.76" stop-color="#E0BE58"/>
<stop offset="1" stop-color="#F1DC83"/>
</linearGradient>
<linearGradient id="paint1_linear_2577_1463" x1="23.2981" y1="13.8116" x2="184.819" y2="185.779" gradientUnits="userSpaceOnUse">
<stop stop-color="#FFF5A8"/>
<stop offset="0.31" stop-color="#BD8100"/>
<stop offset="0.76" stop-color="#E0BE58"/>
<stop offset="1" stop-color="#F1DC83"/>
</linearGradient>
<linearGradient id="paint2_linear_2577_1463" x1="27.2429" y1="17.9039" x2="181.076" y2="181.703" gradientUnits="userSpaceOnUse">
<stop stop-color="#05224C"/>
<stop offset="1" stop-color="#0B2D62"/>
</linearGradient>
<linearGradient id="paint3_linear_2577_1463" x1="142.831" y1="-12.617" x2="15.9421" y2="358.617" gradientUnits="userSpaceOnUse">
<stop stop-color="#FFF5A8"/>
<stop offset="0.31" stop-color="#BD8100"/>
<stop offset="0.76" stop-color="#E0BE58"/>
<stop offset="1" stop-color="#F1DC83"/>
</linearGradient>
<radialGradient id="paint4_radial_2577_1463" cx="0" cy="0" r="1" gradientUnits="userSpaceOnUse" gradientTransform="translate(88.7216 189.589) scale(174.085 174.085)">
<stop stop-color="#FFF5A8"/>
<stop offset="0.72" stop-color="#FFF5A8"/>
</radialGradient>
<radialGradient id="paint5_radial_2577_1463" cx="0" cy="0" r="1" gradientUnits="userSpaceOnUse" gradientTransform="translate(88.7842 189.59) scale(174.085 174.085)">
<stop stop-color="#FFF5A8"/>
<stop offset="0.72" stop-color="#FFF5A8"/>
</radialGradient>
<radialGradient id="paint6_radial_2577_1463" cx="0" cy="0" r="1" gradientUnits="userSpaceOnUse" gradientTransform="translate(88.7771 189.587) scale(174.085 174.085)">
<stop stop-color="#FFF5A8"/>
<stop offset="0.72" stop-color="#FFF5A8"/>
</radialGradient>
<radialGradient id="paint7_radial_2577_1463" cx="0" cy="0" r="1" gradientUnits="userSpaceOnUse" gradientTransform="translate(88.7201 189.587) scale(174.085 174.085)">
<stop stop-color="#FFF5A8"/>
<stop offset="0.72" stop-color="#FFF5A8"/>
</radialGradient>
<radialGradient id="paint8_radial_2577_1463" cx="0" cy="0" r="1" gradientUnits="userSpaceOnUse" gradientTransform="translate(88.7427 189.588) scale(174.085 174.085)">
<stop stop-color="#FFF5A8"/>
<stop offset="0.72" stop-color="#FFF5A8"/>
</radialGradient>
<radialGradient id="paint9_radial_2577_1463" cx="0" cy="0" r="1" gradientUnits="userSpaceOnUse" gradientTransform="translate(88.733 189.587) scale(174.085 174.085)">
<stop stop-color="#FFF5A8"/>
<stop offset="0.72" stop-color="#FFF5A8"/>
</radialGradient>
<radialGradient id="paint10_radial_2577_1463" cx="0" cy="0" r="1" gradientUnits="userSpaceOnUse" gradientTransform="translate(88.8048 189.589) scale(174.085 174.085)">
<stop stop-color="#FFF5A8"/>
<stop offset="0.72" stop-color="#FFF5A8"/>
</radialGradient>
<radialGradient id="paint11_radial_2577_1463" cx="0" cy="0" r="1" gradientUnits="userSpaceOnUse" gradientTransform="translate(88.7128 189.586) scale(174.085 174.085)">
<stop stop-color="#FFF5A8"/>
<stop offset="0.72" stop-color="#FFF5A8"/>
</radialGradient>
<radialGradient id="paint12_radial_2577_1463" cx="0" cy="0" r="1" gradientUnits="userSpaceOnUse" gradientTransform="translate(88.6861 189.589) scale(174.085 174.085)">
<stop stop-color="#FFF5A8"/>
<stop offset="0.72" stop-color="#FFF5A8"/>
</radialGradient>
<radialGradient id="paint13_radial_2577_1463" cx="0" cy="0" r="1" gradientUnits="userSpaceOnUse" gradientTransform="translate(88.8256 189.586) scale(174.085 174.085)">
<stop stop-color="#FFF5A8"/>
<stop offset="0.72" stop-color="#FFF5A8"/>
</radialGradient>
</defs>
</svg>
