<svg width="25" height="25" viewBox="0 0 25 25" fill="none" xmlns="http://www.w3.org/2000/svg">
<g clip-path="url(#clip0_406_942)">
<path d="M25 12.5C25 19.4032 19.4032 25 12.5 25C5.59683 25 0 19.4032 0 12.5C0 5.59683 5.59683 0 12.5 0C19.4046 0 25 5.59683 25 12.5Z" fill="white"/>
<path d="M6.16679 12.92L6.22071 12.8352L9.47246 7.74828C9.51999 7.67378 9.63171 7.6815 9.66768 7.76239C10.2109 8.97989 10.6797 10.494 10.4601 11.4367C10.3663 11.8245 10.1095 12.3498 9.82048 12.8352C9.78326 12.9059 9.74215 12.9752 9.69848 13.042C9.67796 13.0728 9.64326 13.0908 9.60601 13.0908H6.26182C6.1719 13.0908 6.11926 12.9932 6.16679 12.92Z" fill="#2081E2"/>
<path d="M20.6611 13.8653V14.6705C20.6611 14.7167 20.6329 14.7578 20.5918 14.7758C20.3401 14.8837 19.4783 15.2792 19.12 15.7775C18.2056 17.0502 17.507 18.87 15.9453 18.87H9.43025C7.12117 18.87 5.25 16.9924 5.25 14.6756V14.6011C5.25 14.5395 5.30008 14.4894 5.36172 14.4894H8.99361C9.06553 14.4894 9.11819 14.5562 9.11178 14.6268C9.08608 14.8631 9.12975 15.1046 9.24147 15.3242C9.45722 15.7621 9.90417 16.0356 10.387 16.0356H12.185V14.6319H10.4076C10.3164 14.6319 10.2625 14.5266 10.3151 14.4521C10.3344 14.4226 10.3562 14.3918 10.3793 14.3571C10.5476 14.1183 10.7877 13.7471 11.0266 13.3246C11.1897 13.0395 11.3477 12.7351 11.4748 12.4294C11.5005 12.3742 11.521 12.3177 11.5416 12.2625C11.5763 12.1649 11.6122 12.0737 11.6379 11.9825C11.6636 11.9055 11.6841 11.8246 11.7047 11.7488C11.7651 11.4894 11.7907 11.2145 11.7907 10.9294C11.7907 10.8177 11.7856 10.7008 11.7753 10.5891C11.7702 10.4671 11.7548 10.3451 11.7394 10.2231C11.7291 10.1152 11.7098 10.0086 11.6893 9.89689C11.6636 9.73378 11.6276 9.57197 11.5865 9.40886L11.5724 9.34722C11.5416 9.2355 11.5159 9.12889 11.4799 9.01717C11.3785 8.66656 11.2616 8.32494 11.1383 8.00517C11.0934 7.87803 11.042 7.75603 10.9906 7.63403C10.9149 7.45036 10.8378 7.28342 10.7672 7.12544C10.7312 7.05353 10.7004 6.98803 10.6696 6.92125C10.6349 6.84547 10.5989 6.76972 10.563 6.69778C10.5373 6.64256 10.5078 6.59119 10.4872 6.53983L10.2676 6.134C10.2368 6.07878 10.2881 6.01328 10.3485 6.02997L11.7227 6.40242H11.7265C11.7291 6.40242 11.7304 6.40369 11.7317 6.40369L11.9127 6.45378L12.1118 6.51028L12.185 6.53083V5.71406C12.185 5.31978 12.5009 5 12.8913 5C13.0866 5 13.2638 5.07961 13.3909 5.20933C13.5181 5.33906 13.5977 5.51628 13.5977 5.71406V6.92639L13.7441 6.96747C13.7556 6.97133 13.7672 6.97647 13.7775 6.98417C13.8134 7.01114 13.8648 7.05097 13.9303 7.09975C13.9817 7.14086 14.0369 7.19094 14.1037 7.24231C14.236 7.34892 14.3939 7.48633 14.5673 7.64428C14.6135 7.68411 14.6585 7.72519 14.6996 7.76631C14.923 7.97433 15.1735 8.21836 15.4123 8.48806C15.4791 8.56381 15.5446 8.64086 15.6114 8.72178C15.6782 8.80397 15.7488 8.88489 15.8105 8.96581C15.8914 9.07367 15.9787 9.18539 16.0545 9.30228C16.0904 9.3575 16.1315 9.414 16.1662 9.46922C16.2638 9.61692 16.3499 9.76975 16.4321 9.92256C16.4667 9.99319 16.5027 10.0703 16.5335 10.146C16.6247 10.3502 16.6966 10.5583 16.7428 10.7663C16.757 10.8113 16.7672 10.8601 16.7724 10.9038V10.914C16.7878 10.9757 16.7929 11.0412 16.7981 11.1079C16.8186 11.3211 16.8083 11.5343 16.7621 11.7488C16.7428 11.84 16.7171 11.926 16.6863 12.0172C16.6555 12.1045 16.6247 12.1957 16.5849 12.2817C16.5078 12.4602 16.4166 12.6388 16.3088 12.8057C16.2741 12.8674 16.233 12.9329 16.1919 12.9945C16.1469 13.06 16.1007 13.1217 16.0596 13.182C16.0031 13.2591 15.9428 13.34 15.8811 13.4119C15.8259 13.4877 15.7694 13.5634 15.7077 13.6302C15.6217 13.7317 15.5395 13.828 15.4534 13.9205C15.4021 13.9808 15.3468 14.0425 15.2903 14.0977C15.2351 14.1593 15.1786 14.2146 15.1272 14.2659C15.0412 14.352 14.9693 14.4188 14.9089 14.474L14.7676 14.6037C14.7471 14.6217 14.7201 14.6319 14.6919 14.6319H13.5977V16.0356H14.9744C15.2826 16.0356 15.5754 15.9265 15.8118 15.7261C15.8926 15.6555 16.2458 15.3498 16.6632 14.8888C16.6773 14.8734 16.6953 14.8618 16.7159 14.8567L20.5186 13.7574C20.5892 13.7368 20.6611 13.7908 20.6611 13.8653Z" fill="#2081E2"/>
</g>
<defs>
<clipPath id="clip0_406_942">
<rect width="25" height="25" fill="white"/>
</clipPath>
</defs>
</svg>
