<svg width="617" height="330" viewBox="0 0 617 330" fill="none" xmlns="http://www.w3.org/2000/svg">
<rect width="617" height="330" rx="8" fill="url(#paint0_linear_77_774)"/>
<mask id="mask0_77_774" style="mask-type:alpha" maskUnits="userSpaceOnUse" x="0" y="0" width="617" height="330">
<rect width="617" height="330" rx="8" fill="url(#paint1_linear_77_774)"/>
</mask>
<g mask="url(#mask0_77_774)">
<g style="mix-blend-mode:overlay" opacity="0.6">
<path d="M66 -75.9915C73.2223 -81.2546 83.8896 -80.951 92.0825 -77.088C100.275 -73.2251 106.37 -66.4016 111.389 -59.2746C124.277 -40.9719 131.473 -19.8185 141.677 -0.115758C151.881 19.587 166.316 38.8427 187.896 47.7072C221.577 61.5396 259.918 46.2565 294.429 34.2797C303.461 31.1421 313.044 28.1901 322.566 29.607C334.755 31.4204 344.618 40.2681 350.301 50.4147C355.985 60.5612 358.179 72.0152 360.566 83.2245C368.261 119.324 379.383 156.3 405.404 184.117C431.425 211.933 488.723 237.253 551.678 214.809" stroke="white" stroke-width="0.7121" stroke-miterlimit="10"/>
<path opacity="0.9756" d="M550.672 216.901C515.33 228.718 481.92 224.577 454.885 213.477C435.588 205.557 419.604 194.128 408.797 182.261C398.776 171.305 390.846 159.041 384.341 146.095C381.822 141.068 379.514 135.94 377.381 130.778C372.336 118.548 368.322 106.116 364.956 93.7086C363.968 90.0649 363.032 86.4297 362.132 82.8114C360.243 75.1782 358.459 67.4439 355.495 60.1482C354.289 57.1624 352.881 54.2525 351.176 51.4354C348.36 46.8134 344.6 42.4359 340.132 38.7923C335.236 34.8028 329.631 31.7833 323.467 30.6531C321.089 30.2229 318.71 30.0711 316.341 30.147C309.547 30.3495 302.806 32.3231 296.37 34.3895C289.952 36.4475 283.395 38.6236 276.758 40.69C259.883 45.9446 242.483 50.4739 225.223 50.533C214.171 50.592 203.18 48.8461 192.548 44.3674C185.605 41.4407 179.345 37.5103 173.696 32.9051C161.752 23.1718 152.598 10.419 145.34 -2.51093C138.031 -15.5674 132.094 -29.2648 124.793 -42.4309C121.435 -48.4784 117.806 -54.4077 113.627 -60.0925C108.459 -67.1268 102.243 -73.8996 93.9973 -77.8047C85.752 -81.7099 75.0934 -82.1569 67.8011 -77.1722" stroke="white" stroke-width="0.7063" stroke-miterlimit="10"/>
<path opacity="0.9512" d="M550.454 218.689C516.476 229.232 484.43 224.104 458.138 212.321C439.426 203.937 423.731 192.231 412.976 180.11C403.026 168.985 395.026 156.637 388.293 143.708C385.687 138.689 383.274 133.595 381.018 128.5C375.667 116.439 371.286 104.454 367.597 92.5529C366.512 89.0611 365.481 85.5693 364.493 82.1027C362.412 74.7985 360.435 67.41 357.34 60.4685C356.081 57.6261 354.621 54.8512 352.855 52.1606C349.943 47.741 346.07 43.5407 341.558 39.8886C336.6 35.8823 331.135 32.7025 325.181 31.4036C322.881 30.8975 320.59 30.6867 318.308 30.6951C311.777 30.6867 305.298 32.3988 299.116 34.2038C292.952 36.0003 286.656 37.9065 280.273 39.7115C264.054 44.3082 247.344 48.1459 230.408 47.6398C219.566 47.3446 208.645 45.3203 197.995 40.732C191.044 37.7294 184.722 33.7821 178.969 29.2275C166.824 19.6039 157.389 7.27281 149.8 -5.20166C142.166 -17.8111 135.88 -31.0109 128.255 -43.8649C124.749 -49.7605 120.972 -55.5887 116.679 -61.1891C111.354 -68.1306 105.032 -74.8529 96.7255 -78.7917C88.419 -82.739 77.7691 -83.3294 70.4156 -78.6315" stroke="white" stroke-width="0.7005" stroke-miterlimit="10"/>
<path opacity="0.9268" d="M550.987 220.199C518.364 229.477 487.691 223.362 462.142 210.888C444.025 202.04 428.654 190.038 417.908 177.681C408.062 166.371 399.948 153.956 392.997 141.042C390.313 136.041 387.794 130.963 385.407 125.936C379.75 114.052 375.002 102.514 370.989 91.1024C369.809 87.754 368.69 84.4224 367.605 81.1077C365.332 74.124 363.155 67.0981 359.937 60.494C358.617 57.795 357.113 55.155 355.285 52.5994C352.278 48.3907 348.291 44.359 343.726 40.6985C338.707 36.6753 333.382 33.3437 327.638 31.8677C325.417 31.2942 323.213 31.0158 321.028 30.9483C314.767 30.7459 308.55 32.1798 302.613 33.7233C296.703 35.2583 290.661 36.903 284.549 38.4465C268.994 42.3769 252.967 45.4977 236.345 44.4518C225.721 43.7855 214.862 41.5082 204.194 36.7934C197.226 33.7148 190.843 29.7507 185.002 25.2551C172.647 15.7496 162.933 3.83178 155.011 -8.19566C147.063 -20.3581 140.409 -33.0687 132.461 -45.6022C128.797 -51.3544 124.88 -57.073 120.465 -62.5975C114.991 -69.4378 108.547 -76.1094 100.188 -80.0988C91.8203 -84.0883 81.1879 -84.8221 73.7557 -80.4025" stroke="white" stroke-width="0.6947" stroke-miterlimit="10"/>
<path opacity="0.9024" d="M552.211 221.481C520.952 229.485 491.661 222.401 466.837 209.226C449.306 199.923 434.241 187.626 423.53 175.016C413.772 163.529 405.57 151.029 398.392 138.141C395.62 133.148 393.006 128.096 390.488 123.145C384.524 111.429 379.4 100.338 375.072 89.4324C373.805 86.2358 372.58 83.0476 371.409 79.8847C368.934 73.2299 366.573 66.5499 363.225 60.3C361.852 57.7444 360.295 55.2394 358.398 52.8103C355.285 48.8124 351.193 44.9494 346.577 41.272C341.496 37.232 336.32 33.7486 330.785 32.0954C328.652 31.4544 326.536 31.1086 324.438 30.9652C318.439 30.5519 312.485 31.7243 306.81 33.0148C301.153 34.2884 295.373 35.6632 289.515 36.9452C274.625 40.2093 259.271 42.6384 242.981 41.0359C232.568 40.0153 221.778 37.4681 211.093 32.6352C204.115 29.4808 197.671 25.4997 191.726 21.0632C179.17 11.6758 169.149 0.196557 160.922 -11.4007C152.633 -23.0908 145.646 -35.3375 137.375 -47.5505C133.554 -53.1594 129.497 -58.7683 124.959 -64.2169C119.328 -70.9644 112.77 -77.5854 104.359 -81.6086C95.9297 -85.6318 85.3061 -86.5258 77.8127 -82.3761" stroke="white" stroke-width="0.6889" stroke-miterlimit="10"/>
<path opacity="0.878" d="M554.091 222.578C524.188 229.317 496.286 221.253 472.189 207.37C455.252 197.612 440.484 185.028 429.808 172.165C420.129 160.509 411.84 147.925 404.443 135.045C401.592 130.061 398.864 125.034 396.215 120.159C389.954 108.612 384.454 97.9763 379.803 87.5683C378.439 84.5151 377.127 81.4787 375.868 78.476C373.201 72.1418 370.648 65.816 367.168 59.9119C365.743 57.4913 364.125 55.1296 362.176 52.8355C358.958 49.0484 354.77 45.3542 350.092 41.6683C344.95 37.6114 339.914 33.9846 334.589 32.1459C332.534 31.4374 330.506 31.0241 328.495 30.8049C322.75 30.1807 317.067 31.1001 311.646 32.1206C306.251 33.1327 300.725 34.2461 295.129 35.2667C280.894 37.8644 266.231 39.6019 250.265 37.4427C240.07 36.0595 229.35 33.2508 218.639 28.2914C211.653 25.061 205.139 21.0631 199.097 16.6773C186.331 7.40786 176.031 -3.64962 167.471 -14.8083C158.858 -26.0429 151.522 -37.8089 142.919 -49.7014C138.94 -55.1669 134.743 -60.6661 130.083 -66.0388C124.303 -72.6935 117.632 -79.2639 109.159 -83.3293C100.678 -87.3947 90.0628 -88.4321 82.4995 -84.5607" stroke="white" stroke-width="0.6831" stroke-miterlimit="10"/>
<path opacity="0.8537" d="M556.565 223.522C528.026 228.996 501.506 219.971 478.134 205.371C461.792 195.166 447.321 182.286 436.68 169.171C427.08 157.346 418.712 144.677 411.087 131.815C408.15 126.839 405.325 121.846 402.545 117.038C395.978 105.668 390.103 95.4796 385.127 85.5608C383.667 82.6509 382.268 79.7663 380.913 76.9155C378.054 70.9102 375.317 64.9303 371.697 59.3804C370.219 57.1031 368.549 54.8765 366.538 52.7172C363.224 49.1411 358.923 45.6155 354.192 41.9212C348.99 37.8559 344.093 34.0688 338.978 32.053C337.002 31.277 335.061 30.7963 333.146 30.5095C327.664 29.6829 322.243 30.3324 317.075 31.0999C311.934 31.8506 306.67 32.7024 301.328 33.4531C287.758 35.3846 273.776 36.4304 258.134 33.7061C248.149 31.9687 237.499 28.8901 226.761 23.8126C219.758 20.5063 213.183 16.4915 207.053 12.1647C194.086 3.01339 183.498 -7.62238 174.614 -18.3341C165.678 -29.1301 158.001 -40.4069 149.065 -51.9873C144.929 -57.3009 140.592 -62.6989 135.818 -67.9957C129.89 -74.5577 123.096 -81.0775 114.562 -85.1766C106.02 -89.2841 95.4136 -90.465 87.7804 -86.8719" stroke="white" stroke-width="0.6774" stroke-miterlimit="10"/>
<path opacity="0.8293" d="M559.608 224.358C532.424 228.558 507.303 218.58 484.648 203.263C468.91 192.619 454.727 179.436 444.121 166.059C434.608 154.066 426.144 141.313 418.301 128.467C415.284 123.499 412.347 118.531 409.444 113.8C402.571 102.599 396.328 92.8572 391.029 83.4444C389.473 80.6779 387.978 77.9452 386.535 75.2546C383.484 69.5783 380.554 63.9525 376.795 58.7401C375.256 56.6062 373.533 54.5144 371.47 52.4817C368.051 49.1164 363.644 45.7595 358.861 42.0484C353.598 37.9662 348.85 34.0273 343.936 31.8344C342.047 30.9909 340.185 30.4427 338.366 30.08C333.146 29.0426 327.987 29.4306 323.073 29.9366C318.186 30.4174 313.176 31.0078 308.104 31.5054C295.198 32.779 281.899 33.1248 266.58 29.8438C256.814 27.7521 246.225 24.4037 235.47 19.1996C228.458 15.8175 221.821 11.7943 215.587 7.51802C202.41 -1.52365 191.542 -11.7293 182.335 -22.0024C173.075 -32.3345 165.057 -43.1389 155.78 -54.3904C151.504 -59.5691 147.01 -64.8491 142.114 -70.0699C136.028 -76.5391 129.129 -83.0083 120.534 -87.1496C111.931 -91.2993 101.333 -92.6235 93.6387 -89.3172" stroke="white" stroke-width="0.6716" stroke-miterlimit="10"/>
<path opacity="0.8049" d="M563.167 225.125C537.347 228.06 513.616 217.138 491.678 201.087C476.534 190.013 462.649 176.518 452.078 162.888C442.644 150.725 434.101 137.88 426.031 125.06C422.927 120.109 419.893 115.158 416.858 110.502C409.68 99.4781 403.07 90.1834 397.447 81.2682C395.795 78.6536 394.212 76.0727 392.673 73.5255C389.43 68.1696 386.308 62.8981 382.417 58.0399C380.826 56.0494 379.051 54.0926 376.926 52.1949C373.402 49.0404 368.891 45.8522 364.055 42.1327C358.73 38.0336 354.122 33.9429 349.418 31.5728C347.608 30.6619 345.842 30.0462 344.102 29.6076C339.144 28.3677 334.248 28.5027 329.596 28.7304C324.962 28.9666 320.214 29.2787 315.405 29.5064C303.164 30.1137 290.556 29.7678 275.543 25.9218C265.995 23.4758 255.467 19.849 244.695 14.5353C237.665 11.0688 230.967 7.03715 224.637 2.81152C211.259 -6.11206 200.102 -15.896 190.563 -25.722C180.98 -35.5987 172.621 -45.9224 163.003 -56.8534C158.57 -61.8887 153.935 -67.059 148.917 -72.2039C142.682 -78.5719 135.661 -84.9989 127.014 -89.1824C118.357 -93.3743 107.769 -94.8418 100.004 -91.8139" stroke="white" stroke-width="0.6658" stroke-miterlimit="10"/>
<path opacity="0.7805" d="M567.189 225.868C542.724 227.529 520.401 215.671 499.172 198.878C484.631 187.373 471.034 173.566 460.498 159.683C451.142 147.352 442.512 134.422 434.223 121.619C431.041 116.676 427.902 111.75 424.736 107.171C417.261 96.3155 410.266 87.4762 404.329 79.0503C402.589 76.579 400.901 74.1499 399.275 71.763C395.838 66.7361 392.533 61.8104 388.503 57.298C386.859 55.4509 385.023 53.629 382.845 51.8578C379.208 48.9058 374.6 45.9031 369.712 42.1667C364.326 38.0507 359.858 33.8166 355.364 31.261C353.641 30.2826 351.954 29.591 350.31 29.085C345.606 27.6342 340.981 27.5077 336.582 27.4824C332.202 27.4571 327.716 27.4993 323.161 27.474C311.575 27.4149 299.658 26.3859 284.968 21.9748C275.63 19.1745 265.173 15.2779 254.383 9.84611C247.344 6.30367 240.577 2.25515 234.159 -1.91144C220.571 -10.7169 209.134 -20.0791 199.271 -29.4666C189.365 -38.8878 180.656 -48.7307 170.714 -59.3412C166.133 -64.2331 161.35 -69.2938 156.209 -74.3629C149.826 -80.638 142.682 -87.0144 133.982 -91.2316C125.265 -95.4657 114.685 -97.0767 106.859 -94.3271" stroke="white" stroke-width="0.66" stroke-miterlimit="10"/>
<path opacity="0.7561" d="M571.631 226.609C548.521 227.006 527.597 214.219 507.085 196.676C493.139 184.75 479.831 170.63 469.338 156.486C460.061 143.986 451.352 130.972 442.836 118.185C439.566 113.251 436.322 108.359 433.034 103.847C425.252 93.1606 417.89 84.7683 411.63 76.8484C409.794 74.5205 408.019 72.2433 406.296 70.0081C402.659 65.3018 399.17 60.7388 395.008 56.5637C393.312 54.86 391.423 53.1731 389.176 51.5368C385.434 48.7957 380.721 45.9617 375.781 42.2084C370.333 38.0756 366.014 33.6897 361.729 30.9569C360.086 29.9111 358.486 29.152 356.938 28.5784C352.496 26.9168 348.133 26.5289 343.988 26.2421C339.861 25.9553 335.638 25.736 331.345 25.4493C320.424 24.7239 309.189 23.0033 294.823 18.0354C285.703 14.881 275.316 10.7144 264.5 5.15611C257.452 1.53776 250.623 -2.52761 244.1 -6.63516C230.312 -15.3226 218.586 -24.263 208.391 -33.2035C198.17 -42.1692 189.103 -51.5398 178.829 -61.8214C174.09 -66.5699 169.176 -71.5209 163.903 -76.5056C157.363 -82.688 150.114 -89.0054 141.353 -93.2732C132.575 -97.541 122.012 -99.3038 114.108 -96.8325" stroke="white" stroke-width="0.6542" stroke-miterlimit="10"/>
<path opacity="0.7317" d="M576.457 227.428C554.712 226.551 535.187 212.853 515.383 194.551C502.04 182.211 489.02 167.763 478.563 153.357C469.364 140.689 460.568 127.59 451.833 114.82C448.484 109.895 445.136 105.028 441.717 100.583C433.629 90.0738 425.891 82.1286 419.316 74.7063C417.383 72.5302 415.512 70.3963 413.702 68.313C409.872 63.9356 406.2 59.7268 401.898 55.8976C400.149 54.3373 398.199 52.7853 395.9 51.2756C392.053 48.7453 387.235 46.08 382.242 42.3183C376.734 38.177 372.554 33.6393 368.48 30.721C366.923 29.6076 365.402 28.7811 363.942 28.1316C359.754 26.2592 355.661 25.6182 351.779 25.0699C347.906 24.5217 343.945 24.0409 339.905 23.4843C329.649 22.0926 319.104 19.6888 305.053 14.1474C296.152 10.6387 285.825 6.2022 274.992 0.525857C267.927 -3.16841 261.037 -7.25066 254.418 -11.3076C240.428 -19.8769 228.423 -28.3957 217.896 -36.8975C207.351 -45.4078 197.925 -54.2977 187.336 -64.2587C182.44 -68.8639 177.386 -73.7052 172 -78.614C165.311 -84.7037 157.94 -90.9704 149.126 -95.272C140.295 -99.5819 129.733 -101.488 121.767 -99.3036" stroke="white" stroke-width="0.6484" stroke-miterlimit="10"/>
<path opacity="0.7073" d="M581.616 228.423C561.226 226.281 543.1 211.672 524.012 192.602C511.264 179.858 498.533 165.072 488.119 150.413C479 137.576 470.125 124.385 461.163 111.632C457.726 106.715 454.281 101.873 450.731 97.5044C442.337 87.1638 434.232 79.6657 427.325 72.741C425.296 70.7083 423.337 68.7263 421.431 66.8032C417.409 62.7547 413.544 58.8918 409.111 55.4083C407.31 53.9914 405.299 52.5744 402.947 51.1996C398.986 48.8801 394.081 46.3836 389.027 42.6134C383.457 38.4552 379.426 33.7741 375.553 30.6703C374.075 29.4895 372.641 28.5954 371.277 27.8701C367.351 25.7868 363.522 24.8843 359.893 24.0746C356.273 23.2649 352.566 22.5142 348.797 21.7045C339.197 19.655 329.343 16.5511 315.615 10.453C306.933 6.5901 296.667 1.88371 285.808 -3.91915C278.734 -7.68933 271.783 -11.7884 265.068 -15.7863C250.868 -24.246 238.583 -32.3346 227.723 -40.3895C216.864 -48.4443 207.079 -56.8534 196.159 -66.5023C191.105 -70.9641 185.911 -75.6958 180.402 -80.5287C173.556 -86.5171 166.071 -92.7417 157.205 -97.0854C148.313 -101.438 137.768 -103.487 129.733 -101.581" stroke="white" stroke-width="0.6426" stroke-miterlimit="10"/>
<path opacity="0.6829" d="M587.063 229.646C568.037 226.23 551.302 210.728 532.931 190.873C520.769 177.732 508.344 162.609 497.965 147.689C488.924 134.692 479.962 121.407 470.772 108.672C467.257 103.771 463.699 98.9551 460.026 94.6536C451.335 84.4901 442.854 77.439 435.623 71.012C433.498 69.1227 431.443 67.2924 429.45 65.5212C425.235 61.7932 421.187 58.2929 416.614 55.1553C414.76 53.8817 412.688 52.5997 410.283 51.3514C406.209 49.2344 401.207 46.9149 396.101 43.1363C390.47 38.9613 386.588 34.1284 382.916 30.8474C381.525 29.5991 380.17 28.6292 378.902 27.8363C375.23 25.5422 371.671 24.3782 368.296 23.3071C364.93 22.2443 361.485 21.2238 357.979 20.1442C349.042 17.4283 339.87 13.6413 326.466 6.96965C318.002 2.76089 307.798 -2.23226 296.921 -8.14477C289.839 -11.9909 282.818 -16.1068 276.006 -20.0457C261.605 -28.3873 249.041 -36.0542 237.849 -43.6704C226.674 -51.2782 216.532 -59.1981 205.279 -68.5266C200.076 -72.845 194.734 -77.467 189.103 -82.224C182.108 -88.1197 174.509 -94.2936 165.582 -98.6711C156.629 -103.065 146.092 -105.258 137.987 -103.631" stroke="white" stroke-width="0.6368" stroke-miterlimit="10"/>
<path opacity="0.6585" d="M592.747 231.13C575.076 226.449 559.731 210.053 542.086 189.414C530.518 175.877 518.382 160.408 508.047 145.226C499.076 132.06 490.043 118.691 480.626 105.972C477.024 101.08 473.369 96.2897 469.557 92.064C460.56 82.0693 451.702 75.4736 444.156 69.5442C441.944 67.8067 439.793 66.1283 437.704 64.5089C433.297 61.1098 429.065 57.9554 424.343 55.1636C422.437 54.0334 420.304 52.8947 417.847 51.773C413.658 49.8668 408.561 47.716 403.402 43.9205C397.71 39.7287 393.968 34.7524 390.505 31.2858C389.194 29.9701 387.926 28.9326 386.745 28.0639C383.327 25.5589 380.039 24.1419 376.917 22.8093C373.805 21.4851 370.622 20.1946 367.369 18.862C359.098 15.4798 350.616 11.0096 337.518 3.77284C329.273 -0.790161 319.139 -6.05322 308.236 -12.0838C301.136 -16.0058 294.053 -20.1386 287.146 -24.0269C272.535 -32.2504 259.699 -39.504 248.175 -46.6732C236.677 -53.8256 226.185 -61.2647 214.608 -70.2727C209.248 -74.4477 203.766 -78.9601 198.013 -83.6412C190.869 -89.444 183.148 -95.5674 174.16 -99.987C165.145 -104.424 154.618 -106.76 146.451 -105.41" stroke="white" stroke-width="0.631" stroke-miterlimit="10"/>
<path opacity="0.6341" d="M598.631 232.927C582.324 226.98 568.361 209.698 551.442 188.267C540.459 174.341 528.62 158.527 518.329 143.083C509.437 129.749 500.317 116.296 490.682 103.594C487 98.7102 483.232 93.9447 479.297 89.795C469.994 79.9689 460.769 73.8203 452.9 68.3885C450.592 66.7944 448.345 65.2678 446.167 63.8002C441.568 60.7216 437.161 57.9299 432.291 55.4839C430.333 54.4971 428.138 53.4934 425.628 52.4981C421.327 50.8028 416.133 48.8207 410.93 45.0168C405.177 40.8081 401.583 35.6884 398.322 32.0363C397.098 30.6615 395.909 29.5482 394.824 28.6119C391.668 25.8961 388.643 24.2176 385.783 22.6235C382.924 21.0378 380.004 19.4859 377.013 17.8834C369.406 13.8349 361.607 8.6899 348.833 0.879651C340.797 -4.02916 330.733 -9.57056 319.812 -15.7277C312.704 -19.7256 305.56 -23.8669 298.548 -27.7045C283.736 -35.8099 270.611 -42.6418 258.755 -49.364C246.942 -56.0609 236.091 -63.0193 224.182 -71.7067C218.665 -75.7384 213.043 -80.1411 207.167 -84.7463C199.866 -90.4564 192.032 -96.5291 182.991 -100.991C173.924 -105.47 163.405 -107.958 155.168 -106.878" stroke="white" stroke-width="0.6252" stroke-miterlimit="10"/>
<path opacity="0.6098" d="M604.673 235.078C589.722 227.858 577.131 209.715 560.955 187.474C550.55 173.169 539.026 157 528.769 141.296C519.956 127.801 510.757 114.246 500.894 101.57C497.126 96.6945 493.261 91.9544 489.195 87.8806C479.586 78.2316 469.985 72.53 461.801 67.5959C459.397 66.1451 457.062 64.7703 454.789 63.463C449.997 60.7134 445.407 58.2674 440.397 56.1673C438.386 55.3238 436.13 54.4551 433.568 53.5948C429.152 52.1103 423.862 50.3054 418.607 46.4846C412.793 42.2674 409.339 36.9959 406.296 33.1583C405.151 31.716 404.049 30.5267 403.061 29.523C400.158 26.5879 397.404 24.6564 394.798 22.8093C392.193 20.9537 389.526 19.1487 386.798 17.2847C379.846 12.5699 372.747 6.74172 360.287 -1.64206C352.47 -6.90512 342.467 -12.7164 331.529 -18.9916C324.403 -23.0738 317.198 -27.2236 310.098 -31.0022C295.076 -38.9895 281.681 -45.3997 269.492 -51.6833C257.365 -57.9332 246.155 -64.3939 233.923 -72.7693C228.248 -76.6491 222.486 -80.9506 216.497 -85.4799C209.047 -91.0972 201.099 -97.1109 191.997 -101.615C182.868 -106.127 172.359 -108.767 164.052 -107.974" stroke="white" stroke-width="0.6195" stroke-miterlimit="10"/>
<path opacity="0.5854" d="M610.811 237.624C597.224 229.139 585.997 210.12 570.564 187.077C560.736 172.393 549.518 155.861 539.305 139.904C530.562 126.24 521.285 112.601 511.203 99.9414C507.356 95.0747 503.386 90.3683 499.189 86.362C489.283 76.8817 479.306 71.6271 470.799 67.1991C468.298 65.9002 465.867 64.6687 463.506 63.5132C458.514 61.0926 453.748 58.9924 448.598 57.2465C446.535 56.5464 444.218 55.8126 441.595 55.0788C437.065 53.8137 431.679 52.169 426.372 48.3313C420.487 44.0973 417.182 38.6908 414.349 34.6592C413.282 33.1494 412.277 31.8927 411.368 30.8131C408.718 27.6586 406.235 25.4741 403.883 23.3655C401.531 21.2485 399.126 19.1736 396.661 17.0482C390.374 11.6755 383.956 5.16412 371.82 -3.7932C364.222 -9.40207 354.28 -15.4917 343.315 -21.8934C336.18 -26.0516 328.906 -30.2181 321.71 -33.9461C306.487 -41.8239 292.812 -47.8039 280.282 -53.6405C267.84 -59.4349 256.263 -65.4149 243.707 -73.4697C237.875 -77.2061 231.973 -81.398 225.861 -85.8514C218.263 -91.3759 210.201 -97.3475 201.047 -101.885C191.857 -106.44 181.365 -109.223 172.988 -108.709" stroke="white" stroke-width="0.6137" stroke-miterlimit="10"/>
<path opacity="0.561" d="M617.01 240.61C604.778 230.852 594.915 210.98 580.234 187.111C570.975 172.056 560.071 155.162 549.902 138.934C541.237 125.11 531.882 111.379 521.573 98.7355C517.638 93.8857 513.564 89.1962 509.244 85.2658C499.032 75.9626 488.688 71.155 479.857 67.2161C477.26 66.0606 474.742 64.981 472.285 63.9858C467.1 61.8856 462.159 60.1397 456.861 58.7396C454.753 58.1829 452.366 57.5925 449.691 56.9852C445.048 55.9309 439.566 54.4549 434.206 50.6088C428.26 46.3579 425.095 40.8081 422.472 36.5909C421.492 35.0136 420.566 33.681 419.752 32.5339C417.365 29.1602 415.136 26.7226 413.046 24.3526C410.947 21.9741 408.805 19.6378 406.593 17.2508C400.971 11.2118 395.235 4.01726 383.422 -5.5136C376.034 -11.4683 366.171 -17.8447 355.18 -24.356C348.037 -28.5901 340.701 -32.7735 333.4 -36.4425C317.967 -44.2021 304.021 -49.7688 291.159 -55.1584C278.402 -60.5058 266.467 -65.9966 253.587 -73.7309C247.598 -77.324 241.556 -81.4062 235.322 -85.7753C227.566 -91.1986 219.382 -97.1195 210.175 -101.699C200.933 -106.296 190.44 -109.223 182.002 -108.987" stroke="white" stroke-width="0.6079" stroke-miterlimit="10"/>
<path opacity="0.5366" d="M623.227 244.078C612.359 233.054 603.843 212.322 589.923 187.635C581.223 172.209 570.643 154.952 560.517 138.463C551.922 124.47 542.497 110.654 531.961 98.0196C527.947 93.1783 523.768 88.5141 519.317 84.6511C508.798 75.5167 498.079 71.1645 488.924 67.7233C486.24 66.7112 483.617 65.7918 481.072 64.9399C475.695 63.1687 470.58 61.7686 465.132 60.7228C462.973 60.3095 460.525 59.854 457.797 59.3817C453.04 58.5467 447.47 57.2309 442.049 53.3764C436.042 49.1086 433.026 43.4154 430.604 39.0126C429.703 37.3764 428.864 35.9594 428.147 34.7533C426.022 31.1602 424.055 28.4696 422.227 25.8465C420.382 23.2066 418.502 20.6004 416.552 17.952C411.595 11.2466 406.541 3.37733 395.052 -6.72707C387.882 -13.0276 378.08 -19.6823 367.072 -26.3202C359.911 -30.6301 352.514 -34.8305 345.125 -38.4404C329.491 -46.0819 315.265 -51.2269 302.071 -56.1695C288.999 -61.0614 276.706 -66.0714 263.494 -73.4937C257.356 -76.9434 251.165 -80.916 244.809 -85.2091C236.904 -90.5396 228.607 -96.41 219.338 -101.032C210.035 -105.671 199.56 -108.741 191.044 -108.783" stroke="white" stroke-width="0.6021" stroke-miterlimit="10"/>
<path opacity="0.5122" d="M629.409 248.059C619.896 235.761 612.726 214.186 599.584 188.672C591.444 172.874 581.187 155.247 571.106 138.504C562.59 124.351 553.077 110.435 542.322 97.8253C538.23 92.9923 533.937 88.3534 529.364 84.5664C518.539 75.6006 507.452 71.6955 497.974 68.7603C495.193 67.9 492.483 67.1241 489.842 66.4325C484.272 64.9817 478.974 63.9359 473.378 63.2358C471.165 62.9575 468.647 62.6538 465.876 62.2996C461.005 61.6754 455.339 60.5284 449.866 56.657C443.798 52.3723 440.921 46.5442 438.709 41.9474C437.887 40.2437 437.135 38.7592 436.505 37.4772C434.634 33.6648 432.938 30.7212 431.364 27.8367C429.773 24.9268 428.147 22.0676 426.468 19.1577C422.166 11.786 417.803 3.242 406.628 -7.43594C399.677 -14.0822 389.937 -21.0153 378.911 -27.7713C371.741 -32.1571 364.282 -36.3743 356.789 -39.9336C340.946 -47.4571 326.449 -52.1888 312.913 -56.6843C299.527 -61.1293 286.866 -65.6501 273.331 -72.7519C267.035 -76.0581 260.705 -79.9211 254.234 -84.1383C246.173 -89.376 237.761 -95.1958 228.44 -99.8516C219.076 -104.533 208.61 -107.746 200.032 -108.067" stroke="white" stroke-width="0.5963" stroke-miterlimit="10"/>
<path opacity="0.4878" d="M635.521 252.596C627.372 239.034 621.531 216.607 609.167 190.266C601.578 174.106 591.654 156.107 581.616 139.095C573.169 124.782 563.586 110.772 552.604 98.1795C548.425 93.355 544.035 88.7498 539.331 85.0303C528.209 76.2416 516.746 72.7835 506.945 70.3375C504.068 69.6206 501.261 68.9965 498.533 68.4567C492.771 67.3349 487.298 66.6349 481.553 66.289C479.288 66.1541 476.709 65.9938 473.885 65.7661C468.901 65.3613 463.139 64.3744 457.613 60.4946C451.483 56.2015 448.747 50.2215 446.744 45.4392C446.01 43.668 445.345 42.1076 444.803 40.7581C443.194 36.7265 441.769 33.5299 440.44 30.3923C439.102 27.221 437.738 24.0918 436.313 20.9205C432.676 12.8909 428.995 3.66369 418.144 -7.59622C411.402 -14.5883 401.732 -21.7997 390.688 -28.6738C383.51 -33.1355 375.982 -37.3696 368.392 -40.8699C352.347 -48.2753 337.57 -52.5937 323.703 -56.6338C310.002 -60.6317 296.982 -64.6633 283.123 -71.4445C276.671 -74.6074 270.2 -78.3607 263.607 -82.502C255.397 -87.6386 246.872 -93.4161 237.481 -98.1141C228.064 -102.837 217.607 -106.194 208.959 -106.802" stroke="white" stroke-width="0.5905" stroke-miterlimit="10"/>
<path opacity="0.4634" d="M641.51 257.715C634.716 242.888 630.196 219.609 618.628 192.433C611.589 175.902 601.989 157.54 592.003 140.266C583.627 125.785 573.965 111.691 562.764 99.115C558.506 94.299 554.012 89.7191 549.168 86.0754C537.74 77.4555 525.901 74.4444 515.785 72.5045C512.812 71.931 509.918 71.4586 507.093 71.0791C501.139 70.2862 495.482 69.9236 489.597 69.932C487.289 69.932 484.64 69.9151 481.763 69.8139C476.665 69.6284 470.807 68.8018 465.228 64.9135C459.038 60.6036 456.432 54.4802 454.657 49.5208C454.002 47.6905 453.424 46.0458 452.979 44.6288C451.641 40.3779 450.469 36.9282 449.394 33.5292C448.309 30.0964 447.208 26.7058 446.045 23.273C443.072 14.5771 440.073 4.67513 429.545 -7.15832C423.014 -14.4962 413.422 -21.986 402.353 -28.9865C395.156 -33.5242 387.567 -37.7752 379.89 -41.2248C363.635 -48.5206 348.588 -52.4088 334.379 -56.0103C320.363 -59.5612 306.985 -63.0952 292.794 -69.5644C286.184 -72.5755 279.574 -76.2275 272.858 -80.2929C264.499 -85.3367 255.852 -91.0636 246.409 -95.8038C236.93 -100.561 226.482 -104.069 217.764 -104.955" stroke="white" stroke-width="0.5847" stroke-miterlimit="10"/>
<path opacity="0.439" d="M647.334 263.476C641.904 247.375 638.695 223.261 627.923 195.25C621.426 178.356 612.167 159.623 602.225 142.088C593.918 127.446 584.187 113.26 572.759 100.701C568.413 95.8931 563.814 91.3386 558.847 87.7708C547.113 79.328 534.907 76.764 524.467 75.3217C521.398 74.9 518.408 74.571 515.496 74.3433C509.349 73.871 503.517 73.8541 497.484 74.2252C495.123 74.3686 492.413 74.4951 489.475 74.5204C484.264 74.5541 478.309 73.8878 472.678 69.9911C466.427 65.6643 463.961 59.406 462.396 54.2526C461.819 52.3548 461.329 50.6427 460.971 49.1582C459.895 44.688 458.986 40.9853 458.173 37.3247C457.351 33.6305 456.502 29.9784 455.593 26.2757C453.276 16.9135 450.959 6.3368 440.764 -6.07862C434.451 -13.7624 424.92 -21.5304 413.824 -28.6491C406.62 -33.2627 398.969 -37.5305 391.187 -40.9211C374.731 -48.0988 359.404 -51.5737 344.863 -54.7198C330.532 -57.8236 316.787 -60.8684 302.281 -67.0171C295.514 -69.8848 288.763 -73.4272 281.926 -77.4167C273.409 -82.3677 264.648 -88.0356 255.153 -92.8179C245.613 -97.6171 235.173 -101.269 226.395 -102.433" stroke="white" stroke-width="0.5789" stroke-miterlimit="10"/>
<path opacity="0.4146" d="M652.938 269.912C648.864 252.546 646.958 227.58 636.999 198.743C631.035 181.478 622.126 162.382 612.228 144.577C603.991 129.775 594.181 115.487 582.534 102.954C578.11 98.1628 573.406 93.6251 568.308 90.1333C556.268 81.8591 543.686 79.7505 532.931 78.7974C529.775 78.5191 526.688 78.342 523.68 78.2745C517.332 78.1311 511.326 78.4601 505.152 79.177C502.739 79.4553 499.967 79.7337 496.977 79.877C491.652 80.1385 485.601 79.6324 479.918 75.7105C473.605 71.3667 471.279 64.965 469.924 59.6261C469.426 57.6693 469.032 55.8728 468.761 54.3208C467.948 49.6313 467.301 45.6756 466.741 41.762C466.173 37.7979 465.587 33.8843 464.94 29.9286C463.288 19.9001 461.653 8.64862 451.781 -4.34034C445.678 -12.3699 436.217 -20.4247 425.104 -27.6614C417.882 -32.3594 410.17 -36.6272 402.292 -39.9672C385.626 -47.0268 370.019 -50.0885 355.145 -52.7875C340.5 -55.4443 326.396 -57.9999 311.558 -63.8281C304.633 -66.5524 297.743 -69.9852 290.783 -73.8988C282.118 -78.757 273.243 -84.3743 263.686 -89.1987C254.086 -94.0401 243.663 -97.8356 234.815 -99.2778" stroke="white" stroke-width="0.5731" stroke-miterlimit="10"/>
<path opacity="0.3902" d="M658.29 277.064C655.579 258.424 654.967 232.615 645.821 202.951C640.391 185.323 631.822 165.857 621.977 147.79C613.81 132.819 603.93 118.447 592.056 105.922C587.544 101.14 582.735 96.6356 577.515 93.2113C565.178 85.1058 552.22 83.4442 541.133 82.9972C537.88 82.8623 534.697 82.8454 531.602 82.9213C525.062 83.0984 518.871 83.7732 512.558 84.8528C510.093 85.2745 507.26 85.6962 504.217 85.9661C498.778 86.4469 492.64 86.1011 486.896 82.1706C480.521 77.8101 478.327 71.265 477.19 65.7404C476.77 63.7162 476.464 61.8522 476.289 60.2244C475.747 55.3155 475.363 51.1068 475.048 46.9317C474.733 42.7061 474.401 38.5311 474.025 34.3139C473.037 23.6191 472.075 11.6929 462.536 -1.86962C456.642 -10.245 447.252 -18.5781 436.121 -25.9329C428.89 -30.7068 421.108 -34.9915 413.134 -38.2809C396.267 -45.2224 380.38 -47.8708 365.174 -50.1143C350.214 -52.3241 335.743 -54.3821 320.582 -59.9067C313.499 -62.4876 306.478 -65.8107 299.396 -69.6484C290.573 -74.4138 281.585 -79.9805 271.975 -84.8387C262.322 -89.7222 251.9 -93.6611 242.99 -95.3901" stroke="white" stroke-width="0.5674" stroke-miterlimit="10"/>
<path opacity="0.3659" d="M663.343 284.975C661.988 265.07 662.661 238.409 654.346 207.91C649.441 189.911 641.231 170.082 631.429 151.754C623.341 136.623 613.373 122.158 601.281 109.649C596.69 104.876 591.776 100.397 586.425 97.0484C573.782 89.1201 560.456 87.9056 549.046 87.9562C545.697 87.973 542.427 88.0996 539.235 88.3357C532.503 88.8418 526.129 89.8539 519.676 91.2878C517.157 91.8444 514.263 92.418 511.168 92.8059C505.616 93.506 499.381 93.3204 493.584 89.3816C487.149 85.0126 485.094 78.3157 484.168 72.6056C483.827 70.5138 483.617 68.5739 483.52 66.8786C483.249 61.7589 483.118 57.2887 483.066 52.8607C483.013 48.3736 482.935 43.9286 482.812 39.45C482.489 28.0973 482.2 15.4879 472.984 1.34341C467.301 -7.37775 457.989 -15.9893 446.832 -23.4621C439.592 -28.3119 431.749 -32.6135 423.679 -35.8438C406.602 -42.6672 390.444 -44.9024 374.906 -46.6989C359.631 -48.4617 344.802 -50.0305 329.317 -55.2345C322.077 -57.6636 314.916 -60.8855 307.711 -64.6388C298.731 -69.3115 289.62 -74.836 279.958 -79.7364C270.244 -84.6621 259.839 -88.7528 250.851 -90.7517" stroke="white" stroke-width="0.5616" stroke-miterlimit="10"/>
<path opacity="0.3415" d="M667.925 293.688C667.925 272.509 669.875 245.004 662.399 213.679C658.01 195.317 650.158 175.117 640.409 156.527C632.382 141.236 622.353 126.678 610.033 114.187C605.355 109.421 600.345 104.968 594.863 101.687C581.913 93.9274 568.212 93.1683 556.487 93.7081C553.042 93.8684 549.684 94.1467 546.405 94.5347C539.48 95.3697 532.931 96.7192 526.321 98.5073C523.759 99.2074 520.795 99.9243 517.647 100.439C511.981 101.367 505.651 101.333 499.801 97.3771C493.305 92.9912 491.381 86.1594 490.673 80.2553C490.41 78.0961 490.288 76.0887 490.288 74.3259C490.279 68.9869 490.411 64.2637 490.612 59.5742C490.813 54.8256 490.996 50.1192 491.136 45.3791C491.468 33.3601 491.862 20.0759 482.978 5.3579C477.505 -3.70907 468.263 -12.5989 457.088 -20.1983C449.831 -25.124 441.927 -29.4424 433.76 -32.6137C416.482 -39.3275 400.044 -41.1409 384.166 -42.482C368.576 -43.7977 353.388 -44.8689 337.571 -49.7608C330.182 -52.0466 322.872 -55.1588 315.545 -58.8362C306.426 -63.4077 297.201 -68.8816 287.478 -73.8157C277.702 -78.7836 267.306 -83.0176 258.256 -85.2949" stroke="white" stroke-width="0.5558" stroke-miterlimit="10"/>
<path opacity="0.3171" d="M671.352 303.236C672.716 280.792 675.934 252.427 669.298 220.284C665.433 201.551 657.931 180.988 648.234 162.129C640.277 146.677 630.17 132.018 617.631 119.552C612.875 114.795 607.751 110.375 602.146 107.162C588.891 99.5792 574.822 99.2587 562.773 100.305C559.232 100.608 555.778 101.038 552.412 101.587C545.294 102.742 538.562 104.437 531.812 106.588C529.197 107.423 526.172 108.292 522.972 108.924C517.192 110.072 510.766 110.198 504.864 106.234C498.306 101.831 496.522 94.8559 496.032 88.7663C495.858 86.548 495.823 84.4563 495.91 82.626C496.172 77.0678 496.557 72.0915 497.012 67.1405C497.466 62.1305 497.912 57.1626 498.306 52.1526C499.303 39.4673 500.369 25.5084 491.818 10.2168C486.554 0.804024 477.382 -8.36415 466.181 -16.0816C458.915 -21.0832 450.95 -25.4185 442.678 -28.5392C425.191 -35.1349 408.482 -36.535 392.271 -37.4291C376.366 -38.2978 360.811 -38.8798 344.679 -43.4512C337.133 -45.5936 329.684 -48.5962 322.234 -52.1977C312.957 -56.6763 303.619 -62.0997 293.843 -67.0759C284.015 -72.0775 273.628 -76.4634 264.508 -79.019" stroke="white" stroke-width="0.55" stroke-miterlimit="10"/>
<path opacity="0.2927" d="M674.098 313.678C676.817 289.961 681.303 260.744 675.515 227.782C672.157 208.67 665.031 187.753 655.369 168.632C647.482 153.012 637.305 138.268 624.539 125.819C619.695 121.079 614.475 116.676 608.739 113.539C595.186 106.125 580.733 106.26 568.369 107.803C564.741 108.259 561.191 108.832 557.728 109.532C550.418 111.017 543.493 113.049 536.612 115.554C533.945 116.524 530.859 117.545 527.606 118.304C521.722 119.679 515.19 119.957 509.244 115.985C502.625 111.565 500.973 104.446 500.702 98.1712C500.606 95.8854 500.658 93.7262 500.833 91.8201C501.366 86.0509 502.013 80.8132 502.713 75.6092C503.43 70.3377 504.121 65.0999 504.785 59.8369C506.446 46.4852 508.186 31.8515 499.967 15.978C494.913 6.21943 485.811 -3.23551 474.593 -11.0711C467.318 -16.1486 459.283 -20.5007 450.924 -23.5624C433.235 -30.04 416.246 -31.0353 399.694 -31.4654C383.475 -31.8956 367.561 -31.9715 351.097 -36.2308C343.394 -38.2214 335.804 -41.1228 328.232 -44.6484C318.807 -49.0343 309.346 -54.3985 299.509 -59.417C289.62 -64.4608 279.241 -68.99 270.052 -71.824" stroke="white" stroke-width="0.5442" stroke-miterlimit="10"/>
<path opacity="0.2683" d="M676.205 325.048C680.289 300.065 686.025 269.988 681.093 236.208C678.251 216.725 671.484 195.445 661.883 176.063C654.066 160.282 643.81 145.446 630.817 133.014C625.894 128.282 620.56 123.905 614.693 120.843C600.835 113.598 586.014 114.18 573.327 116.221C569.602 116.82 565.956 117.545 562.406 118.405C554.895 120.21 547.795 122.589 540.774 125.456C538.055 126.57 534.907 127.734 531.593 128.611C525.595 130.205 518.967 130.644 512.969 126.654C506.289 122.218 504.768 114.956 504.715 108.495C504.698 106.142 504.846 103.907 505.109 101.933C505.913 95.9445 506.822 90.4622 507.775 84.9883C508.755 79.4553 509.699 73.9561 510.617 68.4231C512.943 54.4052 515.356 39.0967 507.469 22.6497C502.625 12.5453 493.602 2.81199 482.357 -5.14164C475.065 -10.2951 466.969 -14.6641 458.513 -17.6667C440.615 -24.0262 423.346 -24.6082 406.471 -24.5913C389.937 -24.5745 373.665 -24.1612 356.877 -28.1001C349.016 -29.9472 341.287 -32.739 333.601 -36.1886C324.027 -40.4733 314.452 -45.7954 304.554 -50.856C294.604 -55.942 284.243 -60.6146 274.983 -63.7354" stroke="white" stroke-width="0.5384" stroke-miterlimit="10"/>
<path opacity="0.2439" d="M677.665 337.378C683.104 311.13 690.09 280.185 686.024 245.587C683.69 225.724 677.289 204.09 667.733 184.437C659.986 168.496 649.659 153.568 636.439 141.152C631.429 136.429 625.999 132.077 620.001 129.091C605.836 122.023 590.648 123.052 577.629 125.591C573.808 126.333 570.074 127.219 566.428 128.222C558.725 130.356 551.441 133.072 544.28 136.294C541.509 137.542 538.308 138.858 534.933 139.862C528.83 141.684 522.098 142.282 516.047 138.276C509.305 133.831 507.924 126.417 508.081 119.771C508.143 117.35 508.379 115.048 508.737 113.007C509.804 106.807 510.975 101.064 512.182 95.3366C513.415 89.5422 514.622 83.773 515.802 77.987C518.784 63.3112 521.879 47.3196 514.324 30.2906C509.69 19.8403 500.737 9.82873 489.475 1.74858C482.174 -3.48074 474.016 -7.86662 465.456 -10.8187C447.356 -17.0601 429.808 -17.2288 412.591 -16.7565C395.742 -16.2926 379.094 -15.3479 361.992 -19.0085C353.974 -20.6953 346.104 -23.3943 338.296 -26.7681C328.564 -30.96 318.876 -36.2315 308.926 -41.3343C298.923 -46.4624 288.562 -51.2784 279.241 -54.6775" stroke="white" stroke-width="0.5326" stroke-miterlimit="10"/>
<path opacity="0.2195" d="M678.461 350.73C685.264 323.208 693.492 291.402 690.291 255.995C688.464 235.752 682.431 213.764 672.926 193.85C665.249 177.749 654.844 162.719 641.405 150.32C636.316 145.605 630.782 141.287 624.652 138.369C610.182 131.469 594.618 132.954 581.284 135.99C577.366 136.884 573.537 137.913 569.803 139.069C561.908 141.532 554.44 144.585 547.139 148.169C544.315 149.561 541.054 151.02 537.626 152.15C531.409 154.192 524.589 154.951 518.478 150.936C511.675 146.474 510.425 138.917 510.801 132.085C510.941 129.605 511.273 127.218 511.71 125.11C513.048 118.7 514.482 112.694 515.933 106.706C517.428 100.65 518.889 94.6195 520.331 88.5636C523.977 73.2215 527.746 56.5551 520.515 38.9526C516.091 28.1565 507.207 17.8666 495.928 9.66835C488.609 4.36312 480.39 -0.0312037 471.742 -2.93263C453.433 -9.06444 435.614 -8.81984 418.065 -7.89205C400.892 -6.98957 383.895 -5.54729 366.46 -8.89575C358.284 -10.4392 350.275 -13.0286 342.344 -16.3264C332.464 -20.4256 322.662 -25.6464 312.651 -30.783C302.587 -35.9533 292.234 -40.9127 282.844 -44.5901" stroke="white" stroke-width="0.5268" stroke-miterlimit="10"/>
<path opacity="0.1951" d="M678.557 365.128C686.715 336.341 696.185 303.658 693.859 267.449C692.53 246.819 686.873 224.493 677.421 204.309C669.805 188.048 659.339 172.925 645.672 160.543C640.496 155.837 634.856 151.544 628.605 148.701C613.837 141.979 597.897 143.902 584.239 147.436C580.226 148.474 576.309 149.655 572.479 150.97C564.391 153.754 556.731 157.153 549.291 161.092C546.405 162.618 543.091 164.229 539.611 165.477C533.29 167.746 526.365 168.657 520.2 164.626C513.336 160.147 512.217 152.446 512.812 145.429C513.031 142.882 513.459 140.427 513.984 138.243C515.592 131.613 517.28 125.355 518.985 119.105C520.734 112.788 522.447 106.496 524.152 100.178C528.463 84.17 532.896 66.8288 526.006 48.6527C521.783 37.5109 512.978 26.9426 501.672 18.6263C494.345 13.2367 486.056 8.83398 477.312 5.99159C458.802 -0.022134 440.694 0.635743 422.822 2.01898C405.334 3.36849 387.978 5.29996 370.22 2.27202C361.887 0.880343 353.738 -1.6078 345.685 -4.82974C335.647 -8.83607 325.732 -14.0064 315.668 -19.1851C305.542 -24.3975 295.207 -29.5003 285.747 -33.4561" stroke="white" stroke-width="0.521" stroke-miterlimit="10"/>
<path opacity="0.1707" d="M677.928 380.614C687.45 350.553 698.152 317.001 696.701 279.991C695.879 258.973 690.589 236.301 681.189 215.856C673.644 199.426 663.107 184.219 649.214 171.854C643.959 167.164 638.214 162.888 631.831 160.122C616.757 153.568 600.441 155.947 586.469 159.978C582.368 161.159 578.346 162.492 574.429 163.959C566.149 167.072 558.305 170.808 550.725 175.11C547.787 176.771 544.412 178.534 540.879 179.909C534.453 182.397 527.423 183.468 521.206 179.428C514.281 174.933 513.302 167.089 514.115 159.886C514.412 157.271 514.928 154.749 515.549 152.489C517.42 145.648 519.37 139.129 521.337 132.626C523.339 126.047 525.315 119.485 527.283 112.906C532.249 96.2312 537.364 78.2154 530.807 59.4573C526.793 47.9697 518.067 37.123 506.735 28.6802C499.399 23.2147 491.049 18.7951 482.2 16.0033C463.489 10.1077 445.101 11.1789 426.888 13.0091C409.085 14.7972 391.371 17.2347 373.28 14.5189C364.79 13.2706 356.501 10.8921 348.334 7.75449C338.148 3.84093 328.11 -1.27875 317.994 -6.4912C307.816 -11.7374 297.481 -16.992 287.959 -21.2261" stroke="white" stroke-width="0.5153" stroke-miterlimit="10"/>
<path opacity="0.1463" d="M676.529 397.246C687.406 365.92 699.35 331.483 698.773 293.671C698.449 272.265 693.536 249.248 684.189 228.533C676.704 211.942 666.098 196.642 651.985 184.294C646.643 179.613 640.794 175.362 634.288 172.663C618.908 166.278 602.225 169.104 587.929 173.642C583.732 174.974 579.623 176.45 575.609 178.078C567.137 181.511 559.101 185.593 551.389 190.249C548.399 192.054 544.971 193.96 541.378 195.453C534.837 198.169 527.711 199.392 521.442 195.343C514.456 190.831 513.608 182.844 514.639 175.455C515.015 172.773 515.627 170.175 516.327 167.847C518.469 160.796 520.673 154.023 522.893 147.25C525.149 140.41 527.388 133.587 529.609 126.746C535.24 109.405 541.019 90.7147 534.802 71.3831C530.999 59.5496 522.343 48.4163 510.993 39.8638C503.64 34.3224 495.228 29.8859 486.292 27.1532C467.371 21.3756 448.703 22.8179 430.167 25.1373C412.041 27.3387 393.976 30.2992 375.562 27.9038C366.923 26.7989 358.486 24.5301 350.197 21.4684C339.862 17.656 329.71 12.5785 319.533 7.3239C309.294 2.03554 298.976 -3.36247 289.375 -7.8833" stroke="white" stroke-width="0.5095" stroke-miterlimit="10"/>
<path opacity="0.122" d="M674.317 415.05C686.558 382.451 699.726 347.137 700.032 308.532C700.207 286.738 695.669 263.375 686.374 242.398C678.96 225.648 668.284 210.255 653.944 197.924C648.523 193.251 642.568 189.034 635.932 186.403C620.246 180.195 603.196 183.467 588.576 188.494C584.283 189.97 580.077 191.598 575.976 193.378C567.311 197.139 559.092 201.559 551.24 206.578C548.198 208.517 544.709 210.575 541.054 212.195C534.409 215.13 527.178 216.513 520.856 212.456C513.809 207.935 513.092 199.788 514.342 192.222C514.797 189.473 515.496 186.807 516.292 184.412C518.705 177.15 521.162 170.116 523.637 163.09C526.146 155.988 528.647 148.895 531.13 141.793C537.425 123.794 543.878 104.42 537.994 84.5066C534.391 72.3274 525.814 60.9156 514.447 52.2367C507.085 46.6193 498.612 42.166 489.571 39.4923C470.449 33.8328 451.501 35.6968 432.623 38.4633C414.183 41.1117 395.751 44.5614 377.013 42.4865C368.217 41.525 359.64 39.3658 351.228 36.38C340.736 32.6604 330.471 27.642 320.241 22.3452C309.941 17.0146 299.632 11.4732 289.97 6.67407" stroke="white" stroke-width="0.5037" stroke-miterlimit="10"/>
<path opacity="0.0732" d="M667.339 454.363C682.3 419.234 697.916 382.131 699.997 341.958C701.169 319.371 697.339 295.35 688.193 273.825C680.883 256.763 670.093 241.167 655.308 228.878C649.721 224.223 643.556 220.056 636.666 217.576C620.377 211.714 602.575 215.881 587.308 221.912C582.823 223.683 578.433 225.614 574.149 227.698C565.09 232.109 556.495 237.203 548.381 242.947C545.225 245.165 541.631 247.518 537.862 249.382C531.007 252.765 523.567 254.46 517.14 250.378C509.97 245.823 509.507 237.389 511.203 229.452C511.806 226.576 512.707 223.759 513.669 221.22C516.624 213.536 519.588 205.979 522.578 198.43C525.604 190.806 528.612 183.189 531.619 175.556C539.235 156.225 547 135.501 541.815 114.441C538.606 101.57 530.194 89.6013 518.792 80.6862C511.404 74.9171 502.8 70.43 493.567 67.8659C474.034 62.4342 454.526 65.1332 434.984 68.8021C415.905 72.3446 396.765 76.7811 377.372 75.3303C368.261 74.664 359.404 72.7157 350.747 69.8817C339.949 66.3477 329.456 61.4305 319.104 56.0493C308.69 50.6344 298.399 44.7978 288.606 39.4504" stroke="white" stroke-width="0.4921" stroke-miterlimit="10"/>
<path opacity="0.0488" d="M662.487 475.955C678.802 439.552 695.652 401.564 698.616 360.598C700.277 337.614 696.841 313.256 687.738 291.47C680.499 274.247 669.63 258.559 654.626 246.278C648.951 241.64 642.691 237.498 635.661 235.086C619.065 229.393 600.896 234.015 585.306 240.535C580.733 242.449 576.247 244.533 571.867 246.776C562.616 251.516 553.837 256.956 545.583 263.046C542.374 265.399 538.728 267.913 534.898 269.886C527.939 273.505 520.401 275.352 513.914 271.253C506.683 266.681 506.359 258.095 508.265 249.981C508.947 247.038 509.935 244.153 510.993 241.538C514.22 233.635 517.437 225.825 520.681 218.023C523.96 210.137 527.23 202.251 530.5 194.365C538.781 174.367 547.227 152.96 542.366 131.326C539.375 118.109 531.034 105.863 519.597 96.821C512.2 90.976 503.535 86.472 494.205 83.967C474.462 78.6534 454.675 81.7656 434.809 85.8816C415.416 89.8795 395.917 94.7968 376.192 93.6666C366.923 93.1436 357.926 91.3049 349.156 88.5469C338.209 85.1141 327.594 80.239 317.189 74.8241C306.714 69.3671 296.432 63.3871 286.569 57.7529" stroke="white" stroke-width="0.4863" stroke-miterlimit="10"/>
<path opacity="0.0244" d="M656.663 498.897C674.343 461.229 692.407 422.338 696.263 380.596C698.423 357.208 695.372 332.512 686.313 310.473C679.152 293.081 668.205 277.309 652.973 265.045C647.22 260.415 640.846 256.299 633.694 253.962C616.792 248.438 598.247 253.507 582.342 260.533C577.673 262.591 573.091 264.826 568.623 267.221C559.18 272.282 550.209 278.068 541.815 284.52C538.553 287.017 534.846 289.673 530.964 291.774C523.899 295.611 516.257 297.619 509.717 293.503C502.424 288.914 502.241 280.185 504.366 271.885C505.135 268.874 506.202 265.922 507.356 263.24C510.845 255.126 514.333 247.063 517.822 238.991C521.355 230.844 524.887 222.696 528.411 214.54C537.355 193.876 546.475 171.786 541.946 149.587C539.165 136.016 530.894 123.491 519.44 114.339C512.025 108.418 503.299 103.906 493.873 101.443C473.929 96.2476 453.862 99.7817 433.664 104.345C413.947 108.79 394.099 114.196 374.049 113.386C364.632 113.007 355.495 111.278 346.594 108.596C335.498 105.256 324.761 100.431 314.304 94.9741C303.768 89.4833 293.502 83.3515 283.57 77.439" stroke="white" stroke-width="0.4805" stroke-miterlimit="10"/>
</g>
<g style="mix-blend-mode:overlay" opacity="0.6">
<path opacity="0.6" d="M-126.887 47.4136C-120.243 46.0631 -113.1 49.5529 -108.814 54.698C-104.528 59.843 -102.646 66.3522 -101.594 72.7366C-98.8942 89.1318 -101.002 105.711 -100.587 122.23C-100.173 138.75 -96.7368 156.269 -85.0147 168.931C-66.7181 188.691 -35.6307 190.116 -8.23687 192.607C-1.06642 193.257 6.41673 194.202 12.4138 198.096C20.0907 203.079 23.8625 212.123 24.367 220.762C24.8656 229.399 22.5748 237.854 20.4896 246.2C13.7791 273.081 9.10599 301.613 17.5782 328.511C26.0504 355.409 56.5852 390.239 106.753 394.379" stroke="white" stroke-width="0.7121" stroke-miterlimit="10"/>
<path opacity="0.9829" d="M105.376 395.495C77.4713 392.64 56.1546 379.543 41.4667 363.684C30.9819 352.366 23.9073 339.686 20.4925 328.301C17.3109 317.777 15.9805 307.008 15.8438 296.215C15.7959 292.026 15.9239 287.833 16.1819 283.672C16.7996 273.814 18.1848 264.137 20.0011 254.676C20.5348 251.898 21.1014 249.142 21.6862 246.407C22.9275 240.643 24.2734 234.842 24.6729 228.976C24.8407 226.577 24.8469 224.168 24.6205 221.73C24.2369 217.725 23.1312 213.595 21.302 209.746C19.2962 205.529 16.4888 201.754 12.6768 199.089C11.2041 198.065 9.63936 197.229 8.00529 196.551C3.32519 194.598 -1.9049 193.863 -6.95785 193.285C-11.9961 192.707 -17.1685 192.165 -22.358 191.526C-35.554 189.899 -48.8664 187.618 -60.6059 182.345C-68.13 178.983 -75.0158 174.414 -80.7546 168.1C-84.5011 163.976 -87.4526 159.38 -89.7655 154.514C-94.6576 144.228 -96.6574 132.751 -97.3104 121.737C-97.9571 110.622 -97.4597 99.4931 -98.0643 88.3056C-98.3447 83.1657 -98.8483 78.0226 -99.8067 72.8759C-100.99 66.5088 -102.972 59.9962 -107.28 54.8064C-111.587 49.6166 -118.677 46.032 -125.276 47.172" stroke="white" stroke-width="0.7063" stroke-miterlimit="10"/>
<path opacity="0.9659" d="M104.645 396.639C78.0879 393.338 58.0236 379.992 44.0663 363.897C34.1326 352.445 27.346 339.664 24.0505 328.123C20.9721 317.506 19.6221 306.659 19.3254 295.807C19.2154 291.597 19.261 287.395 19.4136 283.241C19.7677 273.404 20.7558 263.918 22.185 254.701C22.6033 251.996 23.0572 249.307 23.5324 246.649C24.5343 241.049 25.6353 235.424 25.8285 229.758C25.9134 227.44 25.8393 225.106 25.5296 222.736C25.0137 218.838 23.7723 214.794 21.9161 210.925C19.8744 206.679 17.2149 202.837 13.6012 200.122C12.207 199.071 10.7212 198.223 9.1688 197.526C4.73653 195.509 -0.229004 194.678 -5.02334 194C-9.80301 193.323 -14.708 192.679 -19.6389 191.94C-32.1721 190.068 -44.7868 187.531 -56.1198 181.973C-63.3843 178.435 -70.1305 173.699 -75.845 167.305C-79.5723 163.127 -82.5598 158.5 -84.9606 153.637C-90.0255 143.363 -92.3548 132.086 -93.3839 121.28C-94.3981 110.368 -94.3028 99.4695 -95.2302 88.3943C-95.6617 83.3118 -96.2997 78.1916 -97.3632 73.0672C-98.6839 66.7146 -100.754 60.2041 -105.092 54.9725C-109.427 49.7353 -116.464 46.0561 -123.01 46.9825" stroke="white" stroke-width="0.7005" stroke-miterlimit="10"/>
<path opacity="0.9488" d="M104.508 397.828C79.2894 394.086 60.4836 380.492 47.2595 364.157C37.883 352.572 31.4136 339.691 28.2021 327.992C25.2564 317.282 23.8515 306.353 23.4008 295.445C23.2317 291.223 23.2006 287 23.2417 282.852C23.3295 273.041 23.9204 263.745 24.9683 254.76C25.2738 252.123 25.6154 249.517 25.9751 246.932C26.7404 241.49 27.5849 236.049 27.5835 230.575C27.5793 228.335 27.431 226.08 27.0351 223.782C26.3842 219.998 25.0098 216.033 23.1208 212.143C21.0431 207.866 18.5288 203.965 15.122 201.197C13.8036 200.124 12.3995 199.256 10.9375 198.538C6.75343 196.473 2.05805 195.533 -2.48359 194.753C-7.00464 193.976 -11.651 193.233 -16.3114 192.4C-28.1731 190.28 -40.0877 187.466 -51.0284 181.639C-58.0218 177.916 -64.6428 173.027 -70.3274 166.542C-74.0414 162.306 -77.0649 157.65 -79.5446 152.799C-84.7911 142.542 -87.447 131.459 -88.8495 120.854C-90.228 110.154 -90.541 99.4693 -91.794 88.5121C-92.3799 83.4785 -93.1491 78.3897 -94.3208 73.2792C-95.7759 66.9495 -97.9458 60.4357 -102.303 55.1536C-106.666 49.8689 -113.643 46.0977 -120.15 46.8109" stroke="white" stroke-width="0.6947" stroke-miterlimit="10"/>
<path opacity="0.9317" d="M104.916 399.076C81.0441 394.888 63.497 381.061 50.9972 364.474C42.169 352.76 36.005 339.773 32.9009 327.913C30.0731 317.109 28.6368 306.097 28.0233 295.136C27.7921 290.892 27.6873 286.657 27.6143 282.52C27.4385 272.729 27.6263 263.621 28.2931 254.884C28.4891 252.323 28.7179 249.784 28.968 247.275C29.488 241.995 30.0936 236.732 29.886 231.458C29.7988 229.3 29.5702 227.12 29.0849 224.886C28.2931 221.213 26.7917 217.331 24.8727 213.413C22.7589 209.105 20.3958 205.147 17.1842 202.32C15.9474 201.228 14.625 200.342 13.2474 199.599C9.3112 197.472 4.88039 196.435 0.600518 195.564C-3.6619 194.688 -8.04093 193.842 -12.4427 192.909C-23.6329 190.542 -34.8616 187.465 -45.3927 181.363C-52.1265 177.464 -58.6108 172.413 -64.2681 165.842C-67.9631 161.553 -71.0225 156.866 -73.593 152.023C-79.0151 141.784 -82.0238 130.904 -83.7763 120.497C-85.5397 110.007 -86.2345 99.5411 -87.8132 88.702C-88.5533 83.7172 -89.4537 78.6598 -90.7337 73.5632C-92.3263 67.2481 -94.5902 60.7336 -98.9715 55.4125C-103.365 50.086 -110.283 46.2087 -116.743 46.7198" stroke="white" stroke-width="0.6889" stroke-miterlimit="10"/>
<path opacity="0.9146" d="M105.824 400.396C83.2904 395.767 67.0109 381.703 55.2381 364.858C46.9642 353.019 41.0969 339.928 38.1003 327.907C35.3817 317.013 33.9138 305.917 33.1492 294.894C32.8617 290.632 32.6713 286.379 32.4901 282.256C32.0567 272.488 31.8386 263.573 32.1212 255.074C32.2045 252.581 32.3178 250.115 32.4556 247.689C32.739 242.567 33.0968 237.486 32.6858 232.405C32.5156 230.329 32.2008 228.221 31.6353 226.063C30.7025 222.501 29.08 218.704 27.1223 214.761C24.9725 210.424 22.7518 206.411 19.744 203.523C18.583 202.409 17.3422 201.504 16.0492 200.736C12.3548 198.544 8.19171 197.419 4.17325 196.443C0.175386 195.47 -3.94501 194.525 -8.08221 193.495C-18.6068 190.877 -29.1379 187.543 -39.2652 181.162C-45.7306 177.085 -52.081 171.878 -57.7143 165.213C-61.396 160.866 -64.4915 156.149 -67.144 151.311C-72.7476 141.087 -76.0857 130.408 -78.2089 120.196C-80.3426 109.917 -81.4338 99.6691 -83.344 88.9453C-84.2384 84.0095 -85.2701 78.9834 -86.6583 73.9007C-88.3825 67.6028 -90.7403 61.0877 -95.1493 55.7191C-99.5642 50.3479 -106.429 46.3759 -112.845 46.6764" stroke="white" stroke-width="0.6831" stroke-miterlimit="10"/>
<path opacity="0.8976" d="M107.197 401.802C86.0088 396.734 70.9852 382.442 59.9422 365.334C52.2199 353.374 46.652 340.174 43.7628 327.992C41.1534 317.008 39.66 305.83 38.7354 294.749C38.3858 290.465 38.1189 286.206 37.8204 282.085C37.1206 272.344 36.4995 263.617 36.4006 255.35C36.3712 252.925 36.3749 250.535 36.3972 248.182C36.4412 243.225 36.56 238.321 35.9369 233.439C35.6865 231.438 35.2887 229.412 34.637 227.326C33.5692 223.878 31.8137 220.16 29.8231 216.195C27.6346 211.833 25.5619 207.754 22.7551 204.811C21.6699 203.676 20.5108 202.752 19.3054 201.968C15.856 199.719 11.9603 198.491 8.19765 197.422C4.45841 196.349 0.602577 195.307 -3.27321 194.172C-13.1263 191.306 -22.9656 187.713 -32.6864 181.047C-38.8922 176.794 -45.1059 171.425 -50.718 164.672C-54.3805 160.271 -57.5179 155.521 -60.2493 150.696C-66.0285 140.491 -69.7019 130.009 -72.1926 120.001C-74.6937 109.926 -76.1869 99.9082 -78.4232 89.2884C-79.4747 84.4072 -80.6348 79.4068 -82.1312 74.3379C-83.987 68.0573 -86.4446 61.5389 -90.884 56.1285C-95.3266 50.7098 -102.138 46.6431 -108.509 46.7332" stroke="white" stroke-width="0.6774" stroke-miterlimit="10"/>
<path opacity="0.8805" d="M108.985 403.312C89.1374 397.796 75.3789 383.288 65.0598 365.914C57.8921 353.841 52.6206 340.524 49.8415 328.176C47.3473 317.104 45.8165 305.839 44.7379 294.702C44.332 290.4 43.9796 286.122 43.5729 282.016C42.6095 272.295 41.5912 263.758 41.1054 255.736C40.9604 253.384 40.8515 251.062 40.7614 248.791C40.5661 243.997 40.4371 239.276 39.6075 234.579C39.2681 232.656 38.79 230.706 38.0609 228.69C36.8521 225.353 34.9696 221.717 32.949 217.725C30.7245 213.332 28.8029 209.196 26.1912 206.194C25.1877 205.04 24.1103 204.098 22.9893 203.289C19.7878 200.977 16.1566 199.653 12.6526 198.484C9.17199 197.311 5.57757 196.164 1.96948 194.941C-7.21485 191.833 -16.3596 187.974 -25.6767 181.031C-31.617 176.604 -37.6998 171.071 -43.282 164.227C-46.9253 159.771 -50.1015 154.997 -52.9209 150.174C-58.8788 139.978 -62.8845 129.703 -65.7398 119.893C-68.6112 110.027 -70.4834 100.222 -73.0627 89.7265C-74.2538 84.8938 -75.5599 79.9252 -77.1585 74.8728C-79.1519 68.6068 -81.6975 62.0904 -86.1645 56.6326C-90.6347 51.1664 -97.3927 47.005 -103.711 46.8815" stroke="white" stroke-width="0.6716" stroke-miterlimit="10"/>
<path opacity="0.8634" d="M111.142 404.925C92.6387 398.97 80.1365 384.249 70.5468 366.597C63.9251 354.415 58.9586 340.978 56.287 328.469C53.9019 317.306 52.3484 305.954 51.107 294.764C50.6362 290.447 50.213 286.151 49.6921 282.056C48.4624 272.361 47.0469 264.015 46.1769 256.23C45.9192 253.946 45.6979 251.707 45.4951 249.503C45.0632 244.868 44.6865 240.328 43.6507 235.831C43.2282 233.99 42.6699 232.115 41.8546 230.172C40.5049 226.945 38.4954 223.392 36.4419 219.377C34.1814 214.955 32.405 210.759 29.9944 207.701C29.0666 206.526 28.0709 205.564 27.0344 204.73C24.0779 202.362 20.7085 200.947 17.4746 199.67C14.2499 198.403 10.9228 197.154 7.58208 195.828C-0.930727 192.472 -9.37778 188.356 -18.3003 181.123C-23.975 176.523 -29.9242 170.82 -35.482 163.896C-39.1094 159.378 -42.3243 154.579 -45.2257 149.761C-51.3592 139.583 -55.7003 129.505 -58.929 119.897C-62.1707 110.24 -64.4334 100.657 -67.3502 90.2742C-68.6956 85.4905 -70.1329 80.5532 -71.8397 75.5147C-73.9676 69.2717 -76.6102 62.7463 -81.0989 57.2437C-85.5908 51.7326 -92.2954 47.4767 -98.5687 47.1426" stroke="white" stroke-width="0.6658" stroke-miterlimit="10"/>
<path opacity="0.8463" d="M113.636 406.664C96.4744 400.262 85.2376 385.338 76.3743 367.4C70.3044 355.112 65.637 341.552 63.0728 328.881C60.7969 317.628 59.2119 306.192 57.8165 294.947C57.2895 290.611 56.7866 286.3 56.1516 282.216C54.6642 272.544 52.837 264.388 51.5914 256.839C51.227 254.626 50.8842 252.457 50.5691 250.335C49.8978 245.864 49.2821 241.502 48.037 237.197C47.5315 235.437 46.887 233.635 45.9943 231.762C44.5004 228.638 42.3643 225.18 40.2807 221.139C37.9843 216.686 36.3503 212.436 34.1435 209.317C33.2974 208.122 32.3802 207.133 31.4313 206.283C28.7227 203.853 25.6178 202.341 22.6398 200.97C19.6736 199.604 16.6139 198.252 13.529 196.832C5.68179 193.226 -2.07034 188.859 -10.5863 181.341C-16.0014 176.565 -21.8139 170.7 -27.3445 163.691C-30.9527 159.119 -34.2096 154.286 -37.1899 149.482C-43.5049 139.32 -48.1754 129.442 -51.7688 120.032C-55.3808 110.585 -58.0399 101.221 -61.2824 90.9556C-62.7761 86.2235 -64.3505 81.315 -66.1656 76.2903C-68.4251 70.0645 -71.1675 63.5358 -75.6807 57.9941C-80.2002 52.4356 -86.8515 48.085 -93.0744 47.5431" stroke="white" stroke-width="0.66" stroke-miterlimit="10"/>
<path opacity="0.8293" d="M116.404 408.541C100.581 401.697 90.6008 386.573 82.4725 368.347C76.9458 355.955 72.5776 342.272 70.1295 329.437C67.9628 318.094 66.3522 306.576 64.7969 295.272C64.2078 290.915 63.6225 286.595 62.882 282.519C61.1311 272.867 58.9066 264.902 57.2741 257.597C56.797 255.452 56.3446 253.359 55.914 251.311C55.0002 246.995 54.1399 242.823 52.6914 238.713C52.1028 237.034 51.3781 235.307 50.3933 233.504C48.7584 230.491 46.4953 227.116 44.3817 223.046C42.0493 218.563 40.5664 214.256 38.5607 211.081C37.7903 209.865 36.9548 208.857 36.0935 207.991C33.6268 205.496 30.7924 203.889 28.073 202.419C25.3655 200.953 22.5703 199.504 19.75 197.988C12.5743 194.134 5.51395 189.507 -2.59833 181.711C-7.74785 176.762 -13.4236 170.735 -18.9302 163.632C-22.5193 159.005 -25.8121 154.143 -28.8832 149.346C-35.3738 139.202 -40.3796 129.522 -44.3465 120.313C-48.3175 111.053 -51.379 101.905 -54.9531 91.7552C-56.601 87.072 -58.3008 82.1975 -60.2329 77.1897C-62.6298 70.9785 -65.4631 64.4575 -70.0011 58.8627C-74.551 53.2624 -81.1402 48.8141 -87.3245 48.059" stroke="white" stroke-width="0.6542" stroke-miterlimit="10"/>
<path opacity="0.8122" d="M119.411 410.583C104.935 403.293 96.206 387.982 88.8096 369.458C83.8292 356.972 79.7657 343.154 77.4277 330.153C75.3703 318.719 73.7282 307.117 72.0189 295.757C71.3735 291.382 70.7086 287.046 69.8568 282.976C67.8395 273.35 65.212 265.573 63.2012 258.509C62.6085 256.437 62.0435 254.412 61.5033 252.44C60.3501 248.289 59.248 244.3 57.5929 240.376C56.9214 238.778 56.1105 237.124 55.0482 235.391C53.2724 232.489 50.8822 229.196 48.7358 225.105C46.3646 220.597 45.0269 216.229 43.2251 212.993C42.5363 211.758 41.7766 210.729 40.9998 209.838C38.7749 207.278 36.2083 205.583 33.7534 204.015C31.3045 202.451 28.768 200.902 26.215 199.284C19.7108 195.181 13.3454 190.303 5.63646 182.215C0.752483 177.093 -4.7925 170.901 -10.2719 163.712C-13.8477 159.029 -17.1765 154.136 -20.3297 149.344C-26.9959 139.219 -32.3311 129.739 -36.6686 120.725C-41.0151 111.7 -44.4762 102.762 -48.3728 92.7392C-50.175 88.105 -52.006 83.2619 -54.0404 78.2707C-56.5689 72.0766 -59.502 65.5524 -64.0645 59.9185C-68.6361 54.2734 -75.1779 49.7277 -81.3089 48.759" stroke="white" stroke-width="0.6484" stroke-miterlimit="10"/>
<path opacity="0.7951" d="M122.587 412.841C109.45 405.11 101.972 389.611 95.3165 370.786C90.8737 358.208 87.1176 344.249 84.893 331.09C82.9448 319.566 81.2799 307.877 79.4107 296.459C78.7031 292.062 77.9586 287.711 76.9986 283.655C74.7177 274.049 71.693 266.463 69.2921 259.635C68.5867 257.63 67.9121 255.681 67.2536 253.789C65.8611 249.801 64.514 245.989 62.6556 242.259C61.901 240.742 61.0039 239.161 59.8614 237.503C57.9415 234.703 55.4334 231.504 53.2482 227.388C50.841 222.85 49.6517 218.431 48.0477 215.131C47.4347 213.874 46.7566 212.826 46.0702 211.913C44.0932 209.29 41.7911 207.498 39.5949 205.832C37.4046 204.168 35.1355 202.517 32.8443 200.807C27.0029 196.46 21.3379 191.319 14.0327 182.952C9.41429 177.657 4.00008 171.301 -1.45532 164.018C-5.01198 159.28 -8.37676 154.357 -11.6147 149.575C-18.4597 139.46 -24.1271 130.186 -28.838 121.374C-33.5488 112.561 -37.4123 103.84 -41.6377 93.926C-43.5942 89.3406 -45.5564 84.5289 -47.699 79.5516C-50.3679 73.3778 -53.3921 66.8473 -57.9763 61.1685C-62.5754 55.476 -69.058 50.8383 -75.1445 49.6591" stroke="white" stroke-width="0.6426" stroke-miterlimit="10"/>
<path opacity="0.778" d="M125.882 415.348C114.092 407.172 107.854 391.494 101.944 372.357C98.0302 359.69 94.5934 345.597 92.4791 332.271C90.6373 320.662 88.9437 308.883 86.9145 297.406C86.148 292.997 85.3238 288.631 84.2524 284.58C81.7111 275.003 78.2834 267.605 75.4982 261.015C74.6801 259.078 73.89 257.203 73.122 255.386C71.4928 251.557 69.9012 247.934 67.8334 244.396C66.9958 242.961 66.0125 241.452 64.7925 239.865C62.7258 237.173 60.0966 234.058 57.8786 229.921C55.4354 225.352 54.3971 220.876 52.9883 217.517C52.457 216.242 51.8574 215.166 51.2587 214.237C49.5235 211.549 47.492 209.663 45.5544 207.897C43.6199 206.139 41.6181 204.386 39.5942 202.573C34.4244 197.978 29.4484 192.584 22.5525 183.927C18.1968 178.464 12.919 171.932 7.48799 164.569C3.95049 159.778 0.543782 154.822 -2.77899 150.05C-9.79958 139.953 -15.7965 130.879 -20.8779 122.263C-25.9503 113.657 -30.2189 105.157 -34.7759 95.3587C-36.8807 90.825 -38.9802 86.042 -41.2309 81.0785C-44.0314 74.922 -47.1496 68.3908 -51.7641 62.6703C-56.3909 56.9303 -62.8202 52.198 -68.8621 50.8082" stroke="white" stroke-width="0.6368" stroke-miterlimit="10"/>
<path opacity="0.761" d="M129.25 418.106C118.799 409.488 113.8 393.63 108.643 374.185C105.264 361.432 102.137 347.192 100.139 333.702C98.4003 322 96.6872 310.142 94.498 298.607C93.6693 294.176 92.7715 289.798 91.58 285.756C88.7751 276.199 84.9415 268.994 81.7781 262.645C80.8504 260.784 79.9448 258.983 79.0612 257.24C77.1927 253.575 75.362 250.13 73.079 246.781C72.1584 245.427 71.0862 243.997 69.7887 242.479C67.575 239.896 64.8248 236.866 62.5767 232.701C60.0975 228.102 59.2017 223.571 57.9967 220.151C57.5412 218.854 57.0233 217.76 56.509 216.806C55.0158 214.053 53.2519 212.079 51.5729 210.213C49.8971 208.356 48.1626 206.5 46.3946 204.594C41.8963 199.751 37.6152 194.105 31.1139 185.159C27.0238 179.522 21.8827 172.829 16.4729 165.378C12.9486 160.529 9.50596 155.543 6.10114 150.776C-1.10097 140.695 -7.41854 131.818 -12.8734 123.402C-18.3161 115.006 -22.9811 106.725 -27.8637 97.0451C-30.1228 92.5602 -32.3535 87.8086 -34.7125 82.859C-37.6446 76.7197 -40.8626 70.1852 -45.5048 64.4173C-50.1592 58.6298 -56.5351 53.8028 -62.5266 52.2052" stroke="white" stroke-width="0.631" stroke-miterlimit="10"/>
<path opacity="0.7439" d="M132.652 421.137C123.545 412.08 119.777 396.046 115.375 376.285C112.522 363.449 109.711 349.067 107.829 335.412C106.2 323.62 104.455 311.678 102.112 300.087C101.227 295.638 100.244 291.242 98.9442 287.213C95.8757 277.677 91.6449 270.663 88.0973 264.552C87.057 262.759 86.0358 261.031 85.0427 259.364C82.9376 255.858 80.8683 252.605 78.37 249.445C77.3663 248.172 76.2079 246.815 74.833 245.367C72.4725 242.892 69.6011 239.947 67.3262 235.763C64.811 231.134 64.0635 226.551 63.0564 223.067C62.6798 221.757 62.2404 220.635 61.8137 219.665C60.5683 216.85 59.069 214.779 57.6546 212.816C56.2374 210.859 54.7675 208.906 53.2668 206.898C49.44 201.807 45.8451 195.913 39.7531 186.677C35.9199 180.87 30.9183 174.01 25.5384 166.467C22.0333 161.564 18.5519 156.553 15.0591 151.789C7.68135 141.725 1.02844 133.046 -4.79984 124.832C-10.6068 116.648 -15.677 108.589 -20.8884 99.0185C-23.3018 94.5826 -25.6637 89.8624 -28.1309 84.9266C-31.2006 78.8019 -34.5125 72.2667 -39.1764 66.454C-43.8524 60.6218 -50.1722 55.6943 -56.122 53.892" stroke="white" stroke-width="0.6252" stroke-miterlimit="10"/>
<path opacity="0.7268" d="M136.038 424.455C128.272 414.95 125.721 398.755 122.091 378.673C119.755 365.757 117.275 351.23 115.503 337.409C113.981 325.533 112.216 313.498 109.71 301.854C108.763 297.383 107.706 292.975 106.292 288.957C102.957 279.447 98.3234 272.621 94.3975 266.751C93.2444 265.026 92.1137 263.373 91.0023 261.786C88.6578 258.444 86.3495 255.37 83.6419 252.402C82.5552 251.21 81.3106 249.926 79.8555 248.553C77.348 246.186 74.3528 243.332 72.0478 239.12C69.4939 234.466 68.8916 229.823 68.0942 226.281C67.7933 224.949 67.4384 223.802 67.0994 222.817C66.0987 219.93 64.8671 217.771 63.7085 215.714C62.5527 213.652 61.3386 211.606 60.1025 209.5C56.9413 204.159 54.0472 198.016 48.3587 188.488C44.7909 182.508 39.9202 175.483 34.5675 167.855C31.0784 162.889 27.5581 157.854 23.9864 153.102C16.4272 143.055 9.45081 134.578 3.25191 126.56C-2.91659 118.583 -8.39197 110.745 -13.929 101.293C-16.4994 96.9113 -18.9898 92.2168 -21.5593 87.2976C-24.7606 81.1901 -28.1692 74.66 -32.8607 68.7998C-37.5672 62.9258 -43.8308 57.898 -49.7332 55.8794" stroke="white" stroke-width="0.6195" stroke-miterlimit="10"/>
<path opacity="0.7098" d="M139.369 428.077C132.948 418.132 131.613 401.762 128.752 381.365C126.934 368.368 124.782 353.69 123.124 339.711C121.704 327.741 119.92 315.627 117.254 303.925C116.251 299.436 115.111 295.018 113.586 291.006C109.994 281.519 104.957 274.88 100.644 269.254C99.3751 267.603 98.1317 266.018 96.9107 264.507C94.321 261.326 91.7855 258.436 88.8598 255.662C87.6901 254.552 86.3594 253.34 84.8208 252.035C82.1637 249.781 79.0501 247.007 76.7151 242.767C74.1193 238.08 73.6625 233.392 73.0718 229.782C72.8466 228.429 72.5794 227.266 72.3188 226.253C71.5628 223.295 70.5989 221.048 69.699 218.892C68.8018 216.73 67.8551 214.581 66.8835 212.379C64.391 206.796 62.186 200.399 56.9067 190.581C53.6017 184.433 48.8645 177.238 43.5359 169.516C40.0659 164.496 36.5038 159.427 32.85 154.681C25.118 144.646 17.8094 136.376 11.2311 128.555C4.6983 120.791 -1.18538 113.167 -7.04803 103.832C-9.77277 99.4998 -12.3944 94.8366 -15.0721 89.9313C-18.4078 83.8467 -21.9134 77.3076 -26.6266 71.4027C-31.3607 65.4812 -37.5651 60.3614 -43.423 58.1322" stroke="white" stroke-width="0.6137" stroke-miterlimit="10"/>
<path opacity="0.6927" d="M142.591 432.012C137.512 421.62 137.385 405.091 135.308 384.364C133.998 371.291 132.18 356.463 130.64 342.314C129.327 330.26 127.514 318.056 124.694 306.297C123.626 301.793 122.41 297.355 120.776 293.356C116.917 283.895 111.483 277.447 106.789 272.054C105.408 270.47 104.055 268.962 102.715 267.529C99.8891 264.507 97.1118 261.801 93.9768 259.219C92.73 258.193 91.3044 257.057 89.6884 255.821C86.8843 253.676 83.6497 250.986 81.2818 246.724C78.65 242.008 78.3357 237.265 77.9488 233.594C77.8053 232.221 77.6165 231.031 77.4436 230.002C76.9382 226.976 76.2302 224.635 75.5948 222.382C74.9562 220.121 74.2741 217.875 73.5612 215.574C71.7402 209.742 70.2241 203.092 65.3541 192.984C62.306 186.666 57.717 179.3 52.4068 171.495C48.956 166.421 45.3579 161.323 41.6134 156.584C33.6998 146.564 26.0705 138.491 19.1189 130.872C12.2245 123.314 5.93565 115.912 -0.252647 106.696C-3.13166 102.412 -5.88456 97.7804 -8.67326 92.8946C-12.1465 86.8247 -15.746 80.2849 -20.4837 74.3409C-25.2395 68.3746 -31.3964 63.1574 -37.2039 60.7205" stroke="white" stroke-width="0.6079" stroke-miterlimit="10"/>
<path opacity="0.6756" d="M145.667 436.28C141.931 425.449 143.003 408.75 141.719 387.704C140.912 374.551 139.434 359.577 138.01 345.263C136.8 333.116 134.968 320.834 131.991 309.011C130.866 304.488 129.57 300.035 127.825 296.042C123.703 286.601 117.863 280.346 112.785 275.191C111.296 273.678 109.819 272.246 108.373 270.884C105.307 268.026 102.297 265.501 98.9441 263.114C97.6142 262.169 96.1024 261.106 94.4062 259.945C91.4524 257.914 88.1055 255.306 85.6988 251.02C83.031 246.273 82.865 241.479 82.6761 237.744C82.6055 236.355 82.504 235.135 82.416 234.095C82.1612 231.001 81.7149 228.569 81.3413 226.225C80.9614 223.864 80.5465 221.516 80.0982 219.118C78.9487 213.038 78.1188 206.139 73.6581 195.741C70.8727 189.256 66.4174 181.72 61.1371 173.824C57.6995 168.693 54.0654 163.564 50.242 158.839C42.1529 148.837 34.1941 140.965 26.8691 133.547C19.6104 126.201 12.9192 119.015 6.40211 109.908C3.37476 105.676 0.484668 101.073 -2.41225 96.2015C-6.01705 90.1488 -9.71055 83.6084 -14.4758 77.6169C-19.2592 71.6032 -25.3569 66.294 -31.1257 63.6438" stroke="white" stroke-width="0.6021" stroke-miterlimit="10"/>
<path opacity="0.6585" d="M148.548 440.886C146.154 429.608 148.419 412.75 147.931 391.381C147.626 378.148 146.49 363.021 145.18 348.549C144.077 336.317 142.218 323.939 139.084 312.067C137.904 307.525 136.522 303.054 134.669 299.075C130.283 289.655 124.046 283.59 118.581 278.679C116.977 277.239 115.393 275.878 113.829 274.595C110.526 271.896 107.274 269.555 103.706 267.357C102.296 266.487 100.686 265.505 98.9212 264.412C95.8206 262.489 92.3526 259.966 89.9159 255.652C87.2121 250.875 87.1857 246.032 87.2034 242.229C87.2086 240.82 87.1888 239.58 87.1852 238.516C87.1751 235.351 86.9965 232.83 86.8815 230.387C86.763 227.921 86.604 225.479 86.4261 222.987C85.9423 216.657 85.8045 209.512 81.7472 198.822C79.2245 192.169 74.9027 184.463 69.6496 176.481C66.2312 171.296 62.5612 166.137 58.6498 161.413C50.3791 151.428 42.0997 143.752 34.3953 136.533C26.775 129.394 19.6727 122.427 12.83 113.438C9.64837 109.255 6.62705 104.683 3.62784 99.8281C-0.1145 93.7899 -3.90192 87.2489 -8.69163 81.2183C-13.5027 75.1571 -19.547 69.7533 -25.2654 66.8953" stroke="white" stroke-width="0.5963" stroke-miterlimit="10"/>
<path opacity="0.6415" d="M151.198 445.849C150.148 434.131 153.597 417.105 153.911 395.413C154.1 382.103 153.313 366.827 152.121 352.185C151.118 339.866 149.243 327.404 145.949 315.472C144.706 310.91 143.249 306.432 141.284 302.458C136.638 293.067 129.997 287.19 124.151 282.512C122.434 281.14 120.735 279.852 119.061 278.645C115.519 276.11 112.034 273.95 108.248 271.947C106.76 271.161 105.056 270.255 103.214 269.231C99.9632 267.422 96.3769 264.978 93.9074 260.643C91.1648 255.841 91.2836 250.938 91.5052 247.074C91.592 245.645 91.6567 244.381 91.7348 243.298C91.9753 240.065 92.0644 237.456 92.1993 234.916C92.3394 232.351 92.4478 229.806 92.5286 227.214C92.7134 220.642 93.2646 213.244 89.6194 202.258C87.3536 195.435 83.1713 187.561 77.9454 179.494C74.5461 174.255 70.8341 169.062 66.8379 164.349C58.3916 154.382 49.7856 146.901 41.705 139.889C33.7233 132.956 26.2158 126.211 19.0474 117.34C15.7115 113.206 12.5589 108.666 9.4515 103.825C5.57475 97.8093 1.69621 91.262 -3.12706 85.1812C-7.95977 79.0752 -13.9508 73.5767 -19.6218 70.5024" stroke="white" stroke-width="0.5905" stroke-miterlimit="10"/>
<path opacity="0.6244" d="M153.569 451.174C153.858 439.014 158.486 421.816 159.616 399.802C160.302 386.41 159.854 370.987 158.784 356.184C157.885 343.772 155.984 331.228 152.536 319.241C151.237 314.66 149.699 310.167 147.615 306.201C142.705 296.83 135.662 291.141 129.434 286.71C127.605 285.406 125.796 284.194 124.003 283.067C120.222 280.696 116.501 278.708 112.502 276.902C110.935 276.192 109.142 275.365 107.222 274.41C103.822 272.715 100.117 270.351 97.6147 265.993C94.8362 261.161 95.0914 256.201 95.5259 252.287C95.6857 250.842 95.8377 249.548 96.0033 248.448C96.5004 245.15 96.8454 242.447 97.2389 239.808C97.6377 237.143 98.0106 234.502 98.3559 231.813C99.2123 224.993 100.45 217.346 97.2137 206.071C95.2107 199.08 91.168 191.039 85.966 182.878C82.58 177.582 78.832 172.359 74.7597 167.653C66.1347 157.696 57.2024 150.423 48.7452 143.604C40.4019 136.878 32.4865 130.361 24.9894 121.6C21.4964 117.52 18.2154 113.006 14.9997 108.178C10.9914 102.18 7.01297 95.6293 2.16524 89.5095C-2.69787 83.3618 -8.63273 77.7629 -14.2593 74.478" stroke="white" stroke-width="0.5847" stroke-miterlimit="10"/>
<path opacity="0.6073" d="M155.616 456.87C157.252 444.265 163.046 426.904 164.992 404.568C166.166 391.096 166.073 375.526 165.119 360.559C164.32 348.06 162.403 335.431 158.795 323.386C157.434 318.783 155.816 314.275 153.624 310.324C148.447 300.979 141.007 295.48 134.395 291.287C132.45 290.056 130.529 288.912 128.627 287.861C124.609 285.648 120.655 283.842 116.435 282.237C114.785 281.607 112.902 280.859 110.899 279.972C107.349 278.39 103.527 276.105 100.991 271.726C98.1769 266.863 98.5717 261.855 99.2128 257.873C99.4484 256.407 99.682 255.094 99.9293 253.976C100.677 250.609 101.284 247.815 101.942 245.079C102.605 242.318 103.237 239.577 103.843 236.783C105.365 229.712 107.289 221.817 104.471 210.248C102.725 203.088 98.8217 194.879 93.641 186.63C90.2741 181.279 86.4873 176.032 82.3271 171.328C73.5264 161.389 64.2616 154.309 55.4341 147.699C46.7293 141.18 38.4028 134.881 30.5859 126.241C26.9387 122.211 23.5264 117.727 20.2025 112.914C16.0567 106.93 11.9815 100.385 7.11493 94.2142C2.22419 88.019 -3.65731 82.3254 -9.2334 78.8328" stroke="white" stroke-width="0.5789" stroke-miterlimit="10"/>
<path opacity="0.5902" d="M157.3 462.968C160.275 449.921 167.235 432.382 170.006 409.736C171.666 396.176 171.929 380.468 171.095 365.331C170.396 352.744 168.458 340.022 164.694 327.927C163.274 323.312 161.58 318.783 159.273 314.842C153.833 305.518 145.987 300.213 138.999 296.255C136.948 295.094 134.91 294.024 132.89 293.052C128.627 291.001 124.44 289.375 120.011 287.962C118.28 287.408 116.306 286.744 114.228 285.92C110.526 284.459 106.585 282.253 104.023 277.84C101.172 272.947 101.709 267.884 102.554 263.842C102.863 262.36 103.19 261.019 103.519 259.882C104.517 256.447 105.385 253.562 106.299 250.732C107.224 247.865 108.114 245.025 108.989 242.143C111.182 234.824 113.792 226.681 111.383 214.822C109.894 207.491 106.133 199.11 100.98 190.775C97.6287 185.362 93.8031 180.09 89.558 175.397C80.5759 165.473 70.9903 158.59 61.7835 152.179C52.7172 145.866 43.9855 139.79 35.837 131.264C32.0355 127.283 28.492 122.831 25.0599 118.031C20.7824 112.065 16.6134 105.519 11.7192 99.301C6.80081 93.0583 0.97858 87.2728 -4.55298 83.5696" stroke="white" stroke-width="0.5731" stroke-miterlimit="10"/>
<path opacity="0.5732" d="M158.568 469.471C162.891 455.98 171.008 438.266 174.605 415.309C176.747 401.668 177.364 385.812 176.652 370.513C176.063 357.836 174.1 345.033 170.178 332.873C168.695 328.237 166.919 323.699 164.507 319.767C158.809 310.465 150.56 305.348 143.179 301.631C141.015 300.539 138.86 299.547 136.733 298.646C132.233 296.753 127.807 295.306 123.163 294.095C121.349 293.623 119.286 293.037 117.131 292.284C113.279 290.936 109.226 288.812 106.624 284.374C103.738 279.451 104.412 274.332 105.466 270.23C105.851 268.727 106.259 267.367 106.679 266.208C107.933 262.708 109.064 259.731 110.23 256.799C111.414 253.833 112.568 250.896 113.707 247.917C116.572 240.351 119.862 231.956 117.869 219.811C116.636 212.309 113.015 203.76 107.889 195.34C104.557 189.872 100.69 184.568 96.3624 179.879C87.2046 169.974 77.2924 163.285 67.7095 157.081C58.2816 150.975 49.136 145.123 40.6647 136.711C36.7089 132.778 33.0401 128.36 29.4998 123.574C25.0848 117.623 20.8218 111.076 15.9031 104.819C10.9631 98.5314 5.18827 92.6484 -0.290039 88.7317" stroke="white" stroke-width="0.5674" stroke-miterlimit="10"/>
<path opacity="0.5561" d="M159.378 476.396C165.039 462.463 174.311 444.567 178.749 421.298C181.369 407.566 182.35 391.575 181.754 376.112C181.265 363.348 179.279 350.458 175.203 338.242C173.664 333.587 171.808 329.033 169.282 325.113C163.318 315.837 154.671 310.91 146.907 307.432C144.627 306.413 142.365 305.492 140.12 304.67C135.381 302.941 130.718 301.666 125.862 300.654C123.968 300.256 121.814 299.755 119.583 299.066C115.582 297.832 111.41 295.787 108.776 291.328C105.851 286.38 106.67 281.2 107.928 277.038C108.388 275.512 108.887 274.13 109.382 272.95C110.891 269.39 112.28 266.314 113.708 263.291C115.156 260.228 116.572 257.186 117.97 254.107C121.504 246.299 125.477 237.648 123.895 225.207C122.92 217.535 119.444 208.821 114.339 200.313C111.026 194.791 107.123 189.456 102.711 184.778C93.3714 174.888 83.1385 168.396 73.1821 162.394C63.3927 156.495 53.842 150.864 45.0478 142.564C40.935 138.686 37.1377 134.294 33.4864 129.527C28.937 123.599 24.577 117.043 19.6366 110.741C14.6689 104.406 8.95618 98.4258 3.51367 94.3015" stroke="white" stroke-width="0.5616" stroke-miterlimit="10"/>
<path opacity="0.539" d="M159.615 483.726C166.617 469.345 177.035 451.269 182.315 427.697C185.406 413.878 186.753 397.744 186.279 382.121C185.884 369.267 183.887 356.294 179.652 344.02C178.051 339.344 176.121 334.778 173.484 330.863C167.256 321.607 158.204 316.874 150.063 313.631C147.671 312.68 145.299 311.835 142.945 311.089C137.966 309.525 133.073 308.425 127.993 307.604C126.022 307.291 123.773 306.865 121.465 306.246C117.311 305.132 113.024 303.16 110.36 298.673C107.398 293.695 108.351 288.464 109.822 284.237C110.358 282.69 110.938 281.29 111.521 280.093C113.281 276.465 114.931 273.298 116.618 270.176C118.325 267.013 120.005 263.874 121.668 260.698C125.867 252.639 130.526 243.74 129.36 231.012C128.641 223.17 125.305 214.289 120.23 205.689C116.93 200.11 112.991 194.745 108.494 190.078C98.982 180.2 88.4197 173.909 78.0812 168.11C67.9303 162.418 57.9715 157.015 48.8486 148.825C44.5874 144.998 40.6529 140.635 36.8934 135.882C32.2124 129.971 27.7585 123.414 22.7877 117.071C17.7924 110.688 12.133 104.613 6.74097 100.281" stroke="white" stroke-width="0.5558" stroke-miterlimit="10"/>
<path opacity="0.522" d="M158.783 491.27C167.13 476.45 178.692 458.18 184.813 434.311C188.383 420.401 190.087 404.129 189.738 388.338C189.444 375.397 187.427 362.332 183.035 350.007C181.378 345.313 179.36 340.735 176.617 336.827C170.123 327.598 160.676 323.05 152.149 320.051C149.644 319.167 147.156 318.396 144.689 317.732C139.475 316.326 134.342 315.404 129.048 314.787C126.997 314.549 124.655 314.208 122.273 313.652C117.969 312.652 113.564 310.76 110.867 306.251C107.869 301.243 108.964 295.957 110.645 291.672C111.26 290.112 111.928 288.681 112.592 287.465C114.608 283.771 116.515 280.511 118.46 277.289C120.425 274.027 122.371 270.791 124.294 267.51C129.165 259.203 134.505 250.053 133.754 237.038C133.292 229.026 130.095 219.977 125.041 211.289C121.761 205.656 117.785 200.26 113.2 195.595C103.507 185.733 92.6238 179.639 81.9119 174.042C71.3995 168.556 61.0297 163.372 51.587 155.302C47.1716 151.525 43.1058 147.193 39.2381 142.454C34.4195 136.557 29.8717 130 24.8792 123.612C19.8595 117.19 14.2562 111.015 8.90869 106.472" stroke="white" stroke-width="0.55" stroke-miterlimit="10"/>
<path opacity="0.5049" d="M157.198 499.199C166.885 483.932 179.591 465.474 186.558 441.31C190.597 427.299 192.674 410.902 192.442 394.947C192.251 381.913 190.214 368.769 185.662 356.386C183.94 351.676 181.851 347.08 178.994 343.184C172.242 333.978 162.384 329.62 153.478 326.862C150.864 326.055 148.263 325.351 145.681 324.761C140.227 323.518 134.852 322.767 129.352 322.35C127.22 322.187 124.787 321.93 122.327 321.444C117.877 320.567 113.35 318.745 110.626 314.217C107.593 309.179 108.824 303.836 110.715 299.492C111.405 297.91 112.155 296.46 112.904 295.22C115.173 291.467 117.344 288.109 119.54 284.791C121.77 281.432 123.971 278.088 126.162 274.719C131.704 266.164 137.724 256.763 137.391 243.455C137.186 235.273 134.131 226.051 129.105 217.277C125.844 211.59 121.826 206.161 117.163 201.509C107.293 191.666 96.0864 185.76 84.9896 180.373C74.1184 175.088 63.3379 170.138 53.5664 162.178C48.9939 158.455 44.7997 154.148 40.8238 149.423C35.8736 143.544 31.2231 136.989 26.203 130.553C21.1557 124.085 15.6057 117.814 10.3027 113.061" stroke="white" stroke-width="0.5442" stroke-miterlimit="10"/>
<path opacity="0.4878" d="M154.869 507.568C165.902 491.861 179.741 473.204 187.561 448.749C192.073 434.644 194.513 418.112 194.396 401.993C194.306 388.871 192.247 375.64 187.535 363.198C185.756 358.47 183.582 353.856 180.61 349.971C173.595 340.785 163.339 336.618 154.05 334.099C151.323 333.359 148.607 332.729 145.912 332.22C140.215 331.134 134.608 330.563 128.892 330.349C126.678 330.268 124.155 330.089 121.615 329.665C117.015 328.901 112.37 327.159 109.616 322.603C106.547 317.534 107.915 312.135 110.015 307.732C110.781 306.129 111.621 304.657 112.452 303.397C114.978 299.579 117.408 296.136 119.865 292.712C122.359 289.257 124.819 285.813 127.271 282.339C133.485 273.537 140.185 263.885 140.268 250.289C140.319 241.937 137.41 232.55 132.405 223.688C129.157 217.944 125.104 212.485 120.355 207.843C110.304 198.015 98.7708 192.304 87.3065 187.121C76.0738 182.043 64.8881 177.315 54.791 169.472C50.0642 165.798 45.7388 161.523 41.6605 156.815C36.5759 150.958 31.8343 144.397 26.7866 137.914C21.7117 131.398 16.221 125.035 10.9653 120.066" stroke="white" stroke-width="0.5384" stroke-miterlimit="10"/>
<path opacity="0.4707" d="M151.784 516.391C164.155 500.242 179.13 481.38 187.808 456.636C192.79 442.43 195.597 425.769 195.605 409.483C195.615 396.274 193.539 382.958 188.667 370.458C186.827 365.709 184.579 361.082 181.493 357.209C174.211 348.049 163.558 344.072 153.879 341.788C151.039 341.116 148.211 340.568 145.403 340.127C139.467 339.205 133.623 338.807 127.696 338.791C125.401 338.785 122.793 338.693 120.169 338.336C115.423 337.694 110.653 336.028 107.869 331.446C104.761 326.352 106.274 320.893 108.579 316.428C109.42 314.803 110.342 313.312 111.26 312.037C114.034 308.156 116.729 304.616 119.442 301.099C122.195 297.544 124.921 293.998 127.636 290.433C134.513 281.385 141.901 271.479 142.402 257.591C142.71 249.068 139.941 239.514 134.965 230.561C131.736 224.762 127.647 219.273 122.811 214.634C112.584 204.824 100.724 199.308 88.8778 194.329C77.2835 189.457 65.6668 184.974 55.264 177.223C50.3773 173.61 45.9263 169.355 41.7398 164.66C36.5177 158.818 31.6822 152.257 26.6128 145.729C21.5161 139.167 16.0729 132.708 10.8677 127.531" stroke="white" stroke-width="0.5326" stroke-miterlimit="10"/>
<path opacity="0.4537" d="M147.91 525.702C161.628 509.108 177.731 490.044 187.264 465.016C192.716 450.708 195.889 433.921 196.019 417.473C196.13 404.177 194.034 390.768 189.008 378.212C187.111 373.444 184.781 368.808 181.584 364.94C174.039 355.801 162.98 352.018 152.922 349.975C149.966 349.376 147.026 348.896 144.109 348.531C137.936 347.767 131.853 347.548 125.711 347.734C123.333 347.81 120.636 347.797 117.935 347.509C113.039 346.981 108.157 345.397 105.334 340.79C102.19 335.666 103.839 330.15 106.354 325.627C107.268 323.986 108.283 322.467 109.277 321.17C112.305 317.229 115.264 313.593 118.23 309.974C121.247 306.322 124.232 302.676 127.214 299.008C134.762 289.713 142.832 279.556 143.741 265.378C144.307 256.685 141.677 246.963 136.728 237.925C133.513 232.069 129.385 226.555 124.472 221.923C114.067 212.124 101.886 206.804 89.6636 202.032C77.7046 197.359 65.6859 193.106 54.9543 185.465C49.9133 181.901 45.331 177.677 41.0363 172.996C35.6826 167.172 30.7532 160.609 25.6534 154.04C20.5291 147.431 15.1392 140.877 9.97852 135.489" stroke="white" stroke-width="0.5268" stroke-miterlimit="10"/>
<path opacity="0.4366" d="M143.215 535.507C158.272 518.472 175.508 499.194 185.9 473.892C191.818 459.474 195.358 442.573 195.613 425.958C195.819 412.572 193.712 399.081 188.526 386.467C186.567 381.678 184.157 377.027 180.851 373.172C173.046 364.062 161.587 360.461 151.145 358.656C148.076 358.125 145.026 357.721 141.991 357.436C135.579 356.836 129.254 356.786 122.899 357.17C120.435 357.319 117.652 357.393 114.877 357.169C109.834 356.764 104.83 355.25 101.978 350.615C98.7978 345.461 100.584 339.888 103.308 335.306C104.298 333.644 105.401 332.109 106.479 330.787C109.763 326.781 112.978 323.051 116.202 319.332C119.479 315.58 122.723 311.836 125.969 308.071C134.189 298.528 142.932 288.117 144.263 273.654C145.079 264.789 142.595 254.902 137.667 245.775C134.474 239.86 130.301 234.319 125.304 229.697C114.723 219.916 102.21 214.788 89.6169 210.226C77.2964 205.759 64.8725 201.728 53.8152 194.205C48.6172 190.695 43.9064 186.497 39.5036 181.831C34.0123 176.02 28.9889 169.457 23.8675 162.843C18.7156 156.187 13.385 149.54 8.2688 143.942" stroke="white" stroke-width="0.521" stroke-miterlimit="10"/>
<path opacity="0.4195" d="M137.659 545.832C154.063 528.351 172.423 508.863 183.674 483.286C190.065 468.761 193.969 451.738 194.346 434.962C194.655 421.482 192.528 407.913 187.182 395.24C185.164 390.438 182.677 385.766 179.258 381.923C171.189 372.833 159.324 369.425 148.503 367.862C145.328 367.401 142.157 367.068 139.012 366.859C132.36 366.423 125.799 366.546 119.229 367.133C116.685 367.357 113.811 367.515 110.957 367.361C105.771 367.072 100.643 365.636 97.7578 360.979C94.5419 355.795 96.4703 350.167 99.4039 345.526C100.47 343.842 101.654 342.289 102.823 340.945C106.355 336.876 109.835 333.049 113.321 329.239C116.855 325.389 120.367 321.541 123.878 317.68C132.763 307.886 142.193 297.227 143.942 282.471C145.015 273.436 142.676 263.384 137.772 254.163C134.598 248.194 130.389 242.622 125.304 238.003C114.548 228.24 101.708 223.307 88.7354 218.943C76.0562 214.677 63.2216 210.879 51.8355 203.466C46.4832 200.005 41.6412 195.838 37.1332 191.194C31.5104 185.401 26.3872 178.835 21.2412 172.181C16.0649 165.486 10.7844 158.737 5.71875 152.93" stroke="white" stroke-width="0.5153" stroke-miterlimit="10"/>
<path opacity="0.4024" d="M131.213 556.689C148.955 538.767 168.451 519.06 180.561 493.208C187.419 478.572 191.692 461.43 192.194 444.487C192.597 430.918 190.454 417.264 184.954 404.536C182.874 399.712 180.307 395.025 176.782 391.19C168.45 382.12 156.187 378.903 144.98 377.584C141.69 377.197 138.411 376.934 135.148 376.804C128.26 376.527 121.454 376.825 114.678 377.613C112.051 377.918 109.093 378.157 106.159 378.064C100.82 377.895 95.5772 376.532 92.6587 371.853C89.4068 366.639 91.4717 360.954 94.6151 356.255C95.7572 354.549 97.0317 352.974 98.2763 351.608C102.062 347.48 105.798 343.559 109.545 339.644C113.338 335.694 117.114 331.749 120.884 327.788C130.441 317.747 140.545 306.834 142.715 291.794C144.044 282.588 141.848 272.364 136.969 263.063C133.808 257.036 129.563 251.435 124.399 246.828C113.461 237.081 100.308 232.314 86.9546 228.183C73.919 224.098 60.674 220.547 48.9623 213.252C43.4617 209.843 38.4825 205.705 33.8663 201.074C28.109 195.304 22.8947 188.732 17.7212 182.031C12.5172 175.288 7.29604 168.446 2.27173 162.421" stroke="white" stroke-width="0.5095" stroke-miterlimit="10"/>
<path opacity="0.3854" d="M123.83 568.101C142.92 549.734 163.537 529.808 176.508 503.689C183.833 488.944 188.476 471.683 189.1 454.578C189.603 440.922 187.443 427.183 181.783 414.396C179.647 409.554 176.998 404.858 173.362 401.028C164.763 391.984 152.104 388.958 140.515 387.871C137.112 387.552 133.715 387.368 130.345 387.308C123.217 387.195 116.175 387.666 109.184 388.657C106.477 389.038 103.427 389.361 100.41 389.336C94.9276 389.283 89.5602 387.996 86.6089 383.296C83.3183 378.057 85.5252 372.303 88.8756 367.551C90.0934 365.824 91.4496 364.23 92.7818 362.848C96.8215 358.66 100.815 354.64 104.819 350.631C108.871 346.581 112.914 342.534 116.948 338.476C127.174 328.193 137.961 317.024 140.549 301.691C142.129 292.312 140.078 281.922 135.229 272.53C132.087 266.45 127.807 260.818 122.552 256.219C111.438 246.49 97.956 241.923 84.223 237.99C70.8259 234.112 57.1698 230.781 45.1325 223.604C39.4776 220.243 34.3671 216.137 29.6427 211.52C23.7479 205.764 18.4369 199.197 13.2417 192.451C8.01007 185.661 2.84226 178.725 -2.13159 172.492" stroke="white" stroke-width="0.5037" stroke-miterlimit="10"/>
<path opacity="0.3683" d="M115.473 580.085C135.901 561.276 157.648 541.128 171.481 514.742C179.275 499.882 184.244 482.502 185.031 465.241C185.6 451.495 183.455 437.666 177.638 424.829C175.44 419.966 172.717 415.257 168.967 411.438C160.11 402.418 147.039 399.582 135.066 398.734C131.55 398.482 128.044 398.375 124.555 398.394C117.185 398.437 109.904 399.086 102.707 400.277C99.9168 400.739 96.7844 401.143 93.6867 401.179C88.0575 401.249 82.5687 400.033 79.5874 395.305C76.2607 390.035 78.6101 384.228 82.1643 379.414C83.4551 377.671 84.9044 376.049 86.3183 374.649C90.6086 370.392 94.8644 366.281 99.1321 362.175C103.449 358.029 107.75 353.883 112.049 349.728C122.946 339.196 134.384 327.763 137.417 312.156C139.234 302.605 137.343 292.05 132.521 282.573C129.398 276.438 125.076 270.773 119.738 266.179C108.446 256.459 94.6348 252.093 80.5343 248.364C66.7697 244.69 52.7144 241.583 40.3514 234.524C34.5395 231.218 29.3006 227.137 24.468 222.535C18.4415 216.796 13.0307 210.225 7.80779 203.432C2.54859 196.595 -2.55714 189.561 -7.48926 183.123" stroke="white" stroke-width="0.4979" stroke-miterlimit="10"/>
<path opacity="0.3512" d="M106.092 592.653C127.865 573.405 150.735 553.018 165.43 526.381C173.694 511.404 179.035 493.914 179.942 476.483C180.619 462.647 178.449 448.736 172.472 435.841C170.218 430.959 167.41 426.232 163.551 422.428C154.428 413.433 140.963 410.782 128.602 410.178C124.971 410 121.352 409.96 117.754 410.056C110.145 410.263 102.624 411.076 95.2154 412.478C92.3387 413.013 89.1205 413.505 85.9453 413.61C80.1724 413.797 74.5653 412.66 71.5452 407.907C68.1826 402.607 70.6565 396.738 74.4324 391.87C75.793 390.103 77.3359 388.468 78.8283 387.04C83.3755 382.732 87.8868 378.513 92.4131 374.308C96.9882 370.062 101.549 365.816 106.115 361.559C117.678 350.777 129.801 339.095 133.244 323.198C135.32 313.471 133.566 302.755 128.771 293.192C125.662 287 121.303 281.304 115.881 276.721C104.413 267.02 90.2751 262.848 75.7925 259.323C61.6664 255.856 47.2032 252.977 34.5142 246.022C28.5479 242.765 23.1778 238.715 18.237 234.126C12.073 228.402 6.57413 221.834 1.32365 214.993C-3.95723 208.11 -9.01556 200.979 -13.8972 194.334" stroke="white" stroke-width="0.4921" stroke-miterlimit="10"/>
<path opacity="0.3341" d="M95.6577 605.821C118.772 586.125 142.773 565.516 158.33 538.612C167.057 523.517 172.777 505.919 173.799 488.324C174.578 474.401 172.384 460.403 166.257 447.445C163.937 442.549 161.055 437.81 157.079 434.008C147.693 425.033 133.827 422.579 121.086 422.207C117.348 422.099 113.613 422.133 109.897 422.308C102.048 422.679 94.2885 423.67 86.6645 425.262C83.7075 425.872 80.4007 426.456 77.1477 426.618C71.2254 426.932 65.4969 425.866 62.4468 421.086C59.0482 415.756 61.6673 409.826 65.6442 404.903C67.0805 403.114 68.7051 401.46 70.288 400.01C75.0917 395.637 79.8588 391.324 84.641 387.025C89.4747 382.679 94.3026 378.331 99.1304 373.983C111.365 362.953 124.177 351.017 128.029 334.831C130.368 324.936 128.753 314.052 123.977 304.392C120.887 298.146 116.492 292.421 110.985 287.848C99.3359 278.162 84.8711 274.185 70.021 270.864C55.5306 267.609 40.665 264.946 27.6444 258.106C21.5239 254.898 16.0284 250.883 10.9794 246.307C4.68102 240.607 -0.914889 234.029 -6.18983 227.149C-11.4983 220.219 -16.4974 212.996 -21.3376 206.132" stroke="white" stroke-width="0.4863" stroke-miterlimit="10"/>
<path opacity="0.3171" d="M84.1153 619.597C108.574 599.462 133.699 578.615 150.118 551.459C159.317 536.242 165.41 518.534 166.546 500.78C167.433 486.767 165.214 472.687 158.926 459.671C156.551 454.756 153.583 449.999 149.499 446.211C139.849 437.257 125.581 434.99 112.458 434.865C108.607 434.825 104.757 434.932 100.931 435.183C92.8459 435.713 84.8414 436.88 77.0085 438.677C73.9685 439.369 70.5727 440.031 67.2422 440.262C61.1762 440.694 55.3235 439.704 52.2433 434.896C48.8087 429.536 51.5702 423.552 55.7569 418.57C57.2749 416.762 58.9753 415.086 60.6457 413.62C65.6973 409.185 70.7321 404.784 75.7697 400.377C80.8621 395.932 85.9545 391.487 91.041 387.039C103.947 375.761 117.443 363.569 121.707 347.101C124.306 337.03 122.83 325.979 118.078 316.239C115.001 309.936 110.567 304.186 104.981 299.612C93.1566 289.945 78.3624 286.167 63.1389 283.048C48.281 279.997 33.0162 277.558 19.6699 270.837C13.4011 267.68 7.76845 263.693 2.61119 259.132C-3.81879 253.449 -9.51454 246.868 -14.8112 239.943C-20.1501 232.971 -25.093 225.648 -29.8828 218.575" stroke="white" stroke-width="0.4805" stroke-miterlimit="10"/>
<path opacity="0.3" d="M71.4362 634.013C97.2364 613.43 123.49 592.347 140.769 564.944C158.047 537.541 165.1 502.202 150.46 472.535C148.022 467.599 144.981 462.829 140.783 459.053C130.872 450.127 116.2 448.048 102.694 448.161C90.3455 448.261 78.0662 449.798 66.2157 452.731C57.4153 454.908 45.7239 456.83 40.9003 449.351C36.1682 442.011 43.2775 433.454 49.8549 427.864C60.5053 418.821 71.1585 409.773 81.8089 400.731C95.3775 389.208 109.568 376.764 114.244 360.001C118.95 343.132 112.28 323.622 97.8379 312.006C74.1185 292.934 38.2322 297.569 10.5525 284.189C-11.9607 273.312 -26.3452 251.962 -39.5737 231.647" stroke="white" stroke-width="0.4747" stroke-miterlimit="10"/>
</g>
</g>
<defs>
<linearGradient id="paint0_linear_77_774" x1="543.598" y1="35.7743" x2="193.852" y2="434.549" gradientUnits="userSpaceOnUse">
<stop stop-color="#FF7360"/>
<stop offset="1" stop-color="#FF4229"/>
</linearGradient>
<linearGradient id="paint1_linear_77_774" x1="543.598" y1="35.7743" x2="193.852" y2="434.549" gradientUnits="userSpaceOnUse">
<stop stop-color="#FF7360"/>
<stop offset="1" stop-color="#FF4229"/>
</linearGradient>
</defs>
</svg>
