<svg width="573" height="503" viewBox="0 0 573 503" fill="none" xmlns="http://www.w3.org/2000/svg">
<path style="mix-blend-mode:color-dodge" d="M281.221 281.54C332.887 229.874 332.887 146.106 281.221 94.4395C229.555 42.7732 145.787 42.7732 94.1205 94.4395C42.4542 146.106 42.4542 229.874 94.1205 281.54C145.787 333.206 229.555 333.206 281.221 281.54Z" fill="url(#paint0_radial_142_897)"/>
<path style="mix-blend-mode:color-dodge" d="M478.932 409.197C530.598 357.531 530.598 273.763 478.932 222.097C427.266 170.43 343.498 170.43 291.831 222.097C240.165 273.763 240.165 357.531 291.831 409.197C343.498 460.864 427.266 460.864 478.932 409.197Z" fill="url(#paint1_radial_142_897)"/>
<path style="mix-blend-mode:color-dodge" d="M479 407.8C486 403.8 470.77 388.43 445 373.55C419.23 358.67 392.67 349.89 385.68 353.92C378.69 357.95 393.91 373.29 419.68 388.17C445.45 403.05 472 411.83 479 407.8Z" fill="url(#paint2_radial_142_897)"/>
<path style="mix-blend-mode:color-dodge" d="M513.532 380.425C516.795 374.316 497.962 357.89 471.466 343.737C444.971 329.584 420.846 323.063 417.583 329.171C414.32 335.28 433.154 351.706 459.649 365.859C486.145 380.012 510.269 386.534 513.532 380.425Z" fill="url(#paint3_radial_142_897)"/>
<path style="mix-blend-mode:color-dodge" d="M554.419 361.828C557.682 355.72 538.848 339.294 512.353 325.141C485.857 310.988 461.733 304.466 458.47 310.575C455.207 316.684 474.04 333.109 500.536 347.262C527.031 361.416 551.156 367.937 554.419 361.828Z" fill="url(#paint4_radial_142_897)"/>
<path style="mix-blend-mode:color-dodge" d="M88.0431 347.712C114.244 333.021 132.738 316.214 129.351 310.173C125.964 304.133 101.978 311.145 75.7771 325.837C49.5761 340.528 31.0818 357.335 34.469 363.375C37.8562 369.416 61.8421 362.404 88.0431 347.712Z" fill="url(#paint5_radial_142_897)"/>
<path style="mix-blend-mode:color-dodge" d="M131.299 367.612C157.5 352.921 175.994 336.114 172.607 330.073C169.22 324.033 145.234 331.045 119.033 345.736C92.8319 360.428 74.3377 377.234 77.7248 383.275C81.112 389.316 105.098 382.304 131.299 367.612Z" fill="url(#paint6_radial_142_897)"/>
<path style="mix-blend-mode:color-dodge" d="M163.32 391.359C189.521 376.668 208.015 359.861 204.628 353.82C201.24 347.779 177.254 354.792 151.053 369.483C124.852 384.175 106.358 400.981 109.745 407.022C113.133 413.063 137.119 406.05 163.32 391.359Z" fill="url(#paint7_radial_142_897)"/>
<path d="M402.45 276.98L402.29 336.15L442.94 247.16L443.11 187.99L402.45 276.98Z" fill="url(#paint8_linear_142_897)"/>
<path d="M248.96 300.82L248.79 359.99L402.29 336.15L402.45 276.98L248.96 300.82Z" fill="url(#paint9_linear_142_897)"/>
<path d="M136.13 235.67L135.96 294.85L248.79 359.99L248.96 300.82L136.13 235.67Z" fill="url(#paint10_linear_142_897)"/>
<path d="M402.45 276.98L443.11 187.99L330.28 122.85L176.79 146.69L136.13 235.67L248.96 300.82L402.45 276.98Z" fill="url(#paint11_linear_142_897)"/>
<path d="M141.17 234.06L179.47 150.23L329.52 126.93L438.07 189.6L399.77 273.43L249.72 296.74L141.17 234.06Z" fill="url(#paint12_linear_142_897)"/>
<path d="M179.47 165.03L329.52 141.73L432.72 201.31L438.07 189.6L329.52 126.93L179.47 150.23L141.17 234.06L146.52 237.15L179.47 165.03Z" fill="url(#paint13_linear_142_897)"/>
<path style="mix-blend-mode:color-dodge" d="M515.103 226.03C520.5 216.115 468.489 177.386 398.933 139.526C329.377 101.665 268.616 79.0115 263.219 88.9266C257.822 98.8417 309.833 137.571 379.389 175.431C448.945 213.291 509.706 235.945 515.103 226.03Z" fill="url(#paint14_radial_142_897)"/>
<path style="mix-blend-mode:color-dodge" d="M326.293 339.786C331.69 329.871 279.679 291.141 210.123 253.281C140.568 215.421 79.8065 192.767 74.4096 202.682C69.0127 212.598 121.024 251.327 190.58 289.187C260.135 327.047 320.896 349.701 326.293 339.786Z" fill="url(#paint15_radial_142_897)"/>
<g filter="url(#filter0_d_142_897)">
<path d="M409.449 201.67L383.939 257.5L383.719 257.98L356.109 262.28L333.139 265.84L258.989 277.37L252.059 278.44L241.429 272.3L203.299 250.28L166.319 228.94L192.059 172.61L203.299 170.86L241.429 164.94L258.989 162.21L323.709 152.16L333.139 157.6L356.109 170.86L383.939 186.93L409.449 201.67Z" fill="url(#paint16_linear_142_897)"/>
</g>
<path d="M239.504 180.369L231.128 194.994L222.24 210.513L318.562 265.678L346.082 217.626L330.256 208.563L339.23 192.894L299.666 170.235L239.504 180.369ZM330.104 208.475L311.558 240.858L247.192 203.995L251.294 196.832L296.475 189.216L330.104 208.475Z" fill="#502DBC"/>
<path d="M239.608 181.364L231.233 195.988L222.345 211.508L318.667 266.672L346.186 218.621L330.361 209.557L339.334 193.888L299.771 171.23L239.608 181.364ZM330.209 209.47L311.663 241.853L247.296 204.989L251.398 197.827L296.58 190.211L330.209 209.47Z" fill="#502DBC"/>
<path d="M239.399 179.375L231.024 193.999L222.136 209.519L318.458 264.683L345.977 216.632L330.152 207.568L339.125 191.899L299.562 169.241L239.399 179.375ZM330 207.481L311.454 239.864L247.087 203L251.189 195.838L296.371 188.222L330 207.481Z" fill="#42249D"/>
<path d="M239.19 177.386L230.815 192.01L221.927 207.53L318.249 262.694L345.768 214.643L329.943 205.579L338.916 189.91L299.353 167.252L239.19 177.386ZM329.791 205.492L311.245 237.875L246.878 201.011L250.98 193.848L296.162 186.233L329.791 205.492Z" fill="#42249D"/>
<path d="M239.295 178.38L230.92 193.005L222.031 208.524L318.353 263.689L345.873 215.637L330.047 206.574L339.021 190.905L299.457 168.246L239.295 178.38ZM329.895 206.486L311.349 238.869L246.983 202.006L251.085 194.843L296.266 187.227L329.895 206.486Z" fill="#42249D"/>
<path d="M239.086 176.391L230.711 191.016L221.822 206.535L318.144 261.7L345.664 213.648L329.838 204.585L338.812 188.916L299.248 166.257L239.086 176.391ZM329.686 204.497L311.14 236.88L246.774 200.017L250.876 192.854L296.057 185.238L329.686 204.497Z" fill="#F7F7FC"/>
<defs>
<filter id="filter0_d_142_897" x="162.319" y="152.16" width="251.13" height="134.28" filterUnits="userSpaceOnUse" color-interpolation-filters="sRGB">
<feFlood flood-opacity="0" result="BackgroundImageFix"/>
<feColorMatrix in="SourceAlpha" type="matrix" values="0 0 0 0 0 0 0 0 0 0 0 0 0 0 0 0 0 0 127 0" result="hardAlpha"/>
<feOffset dy="4"/>
<feGaussianBlur stdDeviation="2"/>
<feComposite in2="hardAlpha" operator="out"/>
<feColorMatrix type="matrix" values="0 0 0 0 0.533333 0 0 0 0 0.317647 0 0 0 0 0.854902 0 0 0 0.4 0"/>
<feBlend mode="normal" in2="BackgroundImageFix" result="effect1_dropShadow_142_897"/>
<feBlend mode="normal" in="SourceGraphic" in2="effect1_dropShadow_142_897" result="shape"/>
</filter>
<radialGradient id="paint0_radial_142_897" cx="0" cy="0" r="1" gradientUnits="userSpaceOnUse" gradientTransform="translate(187.671 187.99) scale(132.3)">
<stop stop-color="white"/>
<stop offset="0.29" stop-color="#A6A6A6" stop-opacity="0.65"/>
<stop offset="0.54" stop-color="#5F5F5F" stop-opacity="0.37"/>
<stop offset="0.75" stop-color="#2B2B2B" stop-opacity="0.17"/>
<stop offset="0.91" stop-color="#0C0C0C" stop-opacity="0.05"/>
<stop offset="1" stop-opacity="0"/>
</radialGradient>
<radialGradient id="paint1_radial_142_897" cx="0" cy="0" r="1" gradientUnits="userSpaceOnUse" gradientTransform="translate(385.378 315.654) scale(132.3)">
<stop stop-color="white"/>
<stop offset="0.29" stop-color="#A6A6A6" stop-opacity="0.65"/>
<stop offset="0.54" stop-color="#5F5F5F" stop-opacity="0.37"/>
<stop offset="0.75" stop-color="#2B2B2B" stop-opacity="0.17"/>
<stop offset="0.91" stop-color="#0C0C0C" stop-opacity="0.05"/>
<stop offset="1" stop-opacity="0"/>
</radialGradient>
<radialGradient id="paint2_radial_142_897" cx="0" cy="0" r="1" gradientUnits="userSpaceOnUse" gradientTransform="translate(431.325 383.691) rotate(29.8865) scale(54.0555 12.9811)">
<stop stop-color="white"/>
<stop offset="0.29" stop-color="#A6A6A6" stop-opacity="0.65"/>
<stop offset="0.54" stop-color="#5F5F5F" stop-opacity="0.37"/>
<stop offset="0.75" stop-color="#2B2B2B" stop-opacity="0.17"/>
<stop offset="0.91" stop-color="#0C0C0C" stop-opacity="0.05"/>
<stop offset="1" stop-opacity="0"/>
</radialGradient>
<radialGradient id="paint3_radial_142_897" cx="0" cy="0" r="1" gradientUnits="userSpaceOnUse" gradientTransform="translate(468.219 353.997) rotate(29.8284) scale(53.8942 12.6107)">
<stop stop-color="white"/>
<stop offset="0.29" stop-color="#A6A6A6" stop-opacity="0.65"/>
<stop offset="0.54" stop-color="#5F5F5F" stop-opacity="0.37"/>
<stop offset="0.75" stop-color="#2B2B2B" stop-opacity="0.17"/>
<stop offset="0.91" stop-color="#0C0C0C" stop-opacity="0.05"/>
<stop offset="1" stop-opacity="0"/>
</radialGradient>
<radialGradient id="paint4_radial_142_897" cx="0" cy="0" r="1" gradientUnits="userSpaceOnUse" gradientTransform="translate(508.628 335.206) rotate(29.8284) scale(53.8942 12.6107)">
<stop stop-color="white"/>
<stop offset="0.29" stop-color="#A6A6A6" stop-opacity="0.65"/>
<stop offset="0.54" stop-color="#5F5F5F" stop-opacity="0.37"/>
<stop offset="0.75" stop-color="#2B2B2B" stop-opacity="0.17"/>
<stop offset="0.91" stop-color="#0C0C0C" stop-opacity="0.05"/>
<stop offset="1" stop-opacity="0"/>
</radialGradient>
<radialGradient id="paint5_radial_142_897" cx="0" cy="0" r="1" gradientUnits="userSpaceOnUse" gradientTransform="translate(78.9337 340.425) rotate(152.438) scale(53.8942 12.6107)">
<stop stop-color="white"/>
<stop offset="0.29" stop-color="#A6A6A6" stop-opacity="0.65"/>
<stop offset="0.54" stop-color="#5F5F5F" stop-opacity="0.37"/>
<stop offset="0.75" stop-color="#2B2B2B" stop-opacity="0.17"/>
<stop offset="0.91" stop-color="#0C0C0C" stop-opacity="0.05"/>
<stop offset="1" stop-opacity="0"/>
</radialGradient>
<radialGradient id="paint6_radial_142_897" cx="0" cy="0" r="1" gradientUnits="userSpaceOnUse" gradientTransform="translate(122.59 359.858) rotate(152.438) scale(53.8942 12.6107)">
<stop stop-color="white"/>
<stop offset="0.29" stop-color="#A6A6A6" stop-opacity="0.65"/>
<stop offset="0.54" stop-color="#5F5F5F" stop-opacity="0.37"/>
<stop offset="0.75" stop-color="#2B2B2B" stop-opacity="0.17"/>
<stop offset="0.91" stop-color="#0C0C0C" stop-opacity="0.05"/>
<stop offset="1" stop-opacity="0"/>
</radialGradient>
<radialGradient id="paint7_radial_142_897" cx="0" cy="0" r="1" gradientUnits="userSpaceOnUse" gradientTransform="translate(154.993 383.186) rotate(152.438) scale(53.8942 12.6107)">
<stop stop-color="white"/>
<stop offset="0.29" stop-color="#A6A6A6" stop-opacity="0.65"/>
<stop offset="0.54" stop-color="#5F5F5F" stop-opacity="0.37"/>
<stop offset="0.75" stop-color="#2B2B2B" stop-opacity="0.17"/>
<stop offset="0.91" stop-color="#0C0C0C" stop-opacity="0.05"/>
<stop offset="1" stop-opacity="0"/>
</radialGradient>
<linearGradient id="paint8_linear_142_897" x1="461.9" y1="170.45" x2="406.41" y2="300.13" gradientUnits="userSpaceOnUse">
<stop stop-color="#4F33A3"/>
<stop offset="1" stop-color="#220970"/>
</linearGradient>
<linearGradient id="paint9_linear_142_897" x1="505.55" y1="349.97" x2="312.43" y2="316.17" gradientUnits="userSpaceOnUse">
<stop stop-color="#4F33A3"/>
<stop offset="1" stop-color="#220970"/>
</linearGradient>
<linearGradient id="paint10_linear_142_897" x1="305.06" y1="450.3" x2="203.26" y2="312.45" gradientUnits="userSpaceOnUse">
<stop stop-color="#4F33A3"/>
<stop offset="1" stop-color="#220970"/>
</linearGradient>
<linearGradient id="paint11_linear_142_897" x1="184.85" y1="148.06" x2="396.91" y2="277.14" gradientUnits="userSpaceOnUse">
<stop stop-color="#7760BD"/>
<stop offset="1" stop-color="#C17FFF"/>
</linearGradient>
<linearGradient id="paint12_linear_142_897" x1="188.18" y1="150.09" x2="393.5" y2="275.07" gradientUnits="userSpaceOnUse">
<stop stop-color="#6244BD"/>
<stop offset="1" stop-color="#2F118A"/>
</linearGradient>
<linearGradient id="paint13_linear_142_897" x1="187.95" y1="149.94" x2="385.66" y2="270.29" gradientUnits="userSpaceOnUse">
<stop stop-color="#4F33A3"/>
<stop offset="1" stop-color="#220970"/>
</linearGradient>
<radialGradient id="paint14_radial_142_897" cx="0" cy="0" r="1" gradientUnits="userSpaceOnUse" gradientTransform="translate(388.046 157.089) rotate(28.56) scale(143.226 20.4608)">
<stop stop-color="white"/>
<stop offset="0.29" stop-color="#A6A6A6" stop-opacity="0.65"/>
<stop offset="0.54" stop-color="#5F5F5F" stop-opacity="0.37"/>
<stop offset="0.75" stop-color="#2B2B2B" stop-opacity="0.17"/>
<stop offset="0.91" stop-color="#0C0C0C" stop-opacity="0.05"/>
<stop offset="1" stop-opacity="0"/>
</radialGradient>
<radialGradient id="paint15_radial_142_897" cx="0" cy="0" r="1" gradientUnits="userSpaceOnUse" gradientTransform="translate(199.242 271.135) rotate(28.56) scale(143.226 20.4608)">
<stop stop-color="white"/>
<stop offset="0.29" stop-color="#A6A6A6" stop-opacity="0.65"/>
<stop offset="0.54" stop-color="#5F5F5F" stop-opacity="0.37"/>
<stop offset="0.75" stop-color="#2B2B2B" stop-opacity="0.17"/>
<stop offset="0.91" stop-color="#0C0C0C" stop-opacity="0.05"/>
<stop offset="1" stop-opacity="0"/>
</radialGradient>
<linearGradient id="paint16_linear_142_897" x1="204.189" y1="164.36" x2="373.589" y2="267.47" gradientUnits="userSpaceOnUse">
<stop stop-color="#7F70D1"/>
<stop offset="1" stop-color="#402F9E"/>
</linearGradient>
</defs>
</svg>
