<svg width="562" height="352" viewBox="0 0 562 352" fill="none" xmlns="http://www.w3.org/2000/svg">
<path d="M134.435 122.096C127.728 140.336 124.484 159.668 124.871 179.098L187.511 177.852C187.28 166.217 189.222 154.642 193.238 143.721L134.435 122.096Z" fill="#34609E"/>
<path d="M126.979 150.231C128.241 142.687 130.055 135.246 132.408 127.968L192.024 147.237C190.616 151.594 189.529 156.05 188.774 160.567L126.979 150.231Z" fill="#F3A8E2"/>
<path d="M132.185 128.662C141.38 99.7531 158.796 74.1481 182.306 54.9761L221.902 103.531C207.825 115.011 197.397 130.342 191.891 147.652L132.185 128.662Z" fill="#D83EE0"/>
<path d="M182.02 55.2104C196.83 43.0746 213.745 33.7661 231.923 27.7493L251.611 87.2287C240.727 90.8314 230.598 96.405 221.73 103.672L182.02 55.2104Z" fill="#5A8BFF"/>
<path d="M231.728 27.814C250.954 21.4217 271.241 18.8324 291.457 20.1904L287.258 82.7027C275.154 81.8896 263.006 83.44 251.494 87.2675L231.728 27.814Z" fill="#8303AE"/>
<path d="M124.853 178.055C125.124 198.559 129.431 218.809 137.528 237.649C145.625 256.489 157.354 273.55 172.044 287.857C186.735 302.164 204.099 313.438 223.146 321.034C242.194 328.63 262.551 332.401 283.055 332.13L282.227 269.482C269.95 269.644 257.761 267.387 246.356 262.838C234.951 258.29 224.554 251.539 215.757 242.973C206.961 234.406 199.939 224.191 195.09 212.91C190.242 201.629 187.663 189.504 187.501 177.227L124.853 178.055Z" fill="#6A07C7"/>
<path d="M259.693 330.684C281.75 333.721 304.202 332.006 325.542 325.653L307.667 265.604C294.889 269.408 281.446 270.435 268.239 268.616L259.693 330.684Z" fill="#5690FF"/>
<path d="M419.18 248.705C431.354 225.571 437.524 199.75 437.125 173.61C436.727 147.471 429.772 121.85 416.899 99.0974C404.026 76.3444 385.646 57.1876 363.445 43.3835C341.245 29.5795 315.934 21.5701 289.834 20.0898L286.286 82.6425C301.914 83.5288 317.069 88.3246 330.362 96.59C343.655 104.855 354.66 116.326 362.369 129.95C370.077 143.573 374.241 158.914 374.48 174.566C374.718 190.217 371.024 205.678 363.735 219.53L419.18 248.705Z" fill="#349DC5"/>
<path d="M322.764 326.452C344.224 320.494 364.161 310.015 381.238 295.717C398.314 281.419 412.134 263.633 421.771 243.554L365.286 216.446C359.516 228.468 351.241 239.118 341.016 247.679C330.791 256.24 318.853 262.515 306.003 266.083L322.764 326.452Z" fill="#B711AE"/>
<path d="M496.739 41.168C495.955 41.168 495.204 41.0653 494.485 40.86C493.767 40.6453 493.188 40.37 492.749 40.034L493.519 38.326C493.939 38.6247 494.434 38.872 495.003 39.068C495.582 39.2547 496.165 39.348 496.753 39.348C497.201 39.348 497.561 39.306 497.831 39.222C498.111 39.1287 498.317 39.0027 498.447 38.844C498.578 38.6853 498.643 38.5033 498.643 38.298C498.643 38.0367 498.541 37.8313 498.335 37.682C498.13 37.5233 497.859 37.3973 497.523 37.304C497.187 37.2013 496.814 37.108 496.403 37.024C496.002 36.9307 495.596 36.8187 495.185 36.688C494.784 36.5573 494.415 36.3893 494.079 36.184C493.743 35.9787 493.468 35.708 493.253 35.372C493.048 35.036 492.945 34.6067 492.945 34.084C492.945 33.524 493.095 33.0153 493.393 32.558C493.701 32.0913 494.159 31.7227 494.765 31.452C495.381 31.172 496.151 31.032 497.075 31.032C497.691 31.032 498.298 31.1067 498.895 31.256C499.493 31.396 500.02 31.6107 500.477 31.9L499.777 33.622C499.32 33.3607 498.863 33.1693 498.405 33.048C497.948 32.9173 497.5 32.852 497.061 32.852C496.623 32.852 496.263 32.9033 495.983 33.006C495.703 33.1087 495.503 33.244 495.381 33.412C495.26 33.5707 495.199 33.7573 495.199 33.972C495.199 34.224 495.302 34.4293 495.507 34.588C495.713 34.7373 495.983 34.8587 496.319 34.952C496.655 35.0453 497.024 35.1387 497.425 35.232C497.836 35.3253 498.242 35.4327 498.643 35.554C499.054 35.6753 499.427 35.8387 499.763 36.044C500.099 36.2493 500.37 36.52 500.575 36.856C500.79 37.192 500.897 37.6167 500.897 38.13C500.897 38.6807 500.743 39.1847 500.435 39.642C500.127 40.0993 499.665 40.468 499.049 40.748C498.443 41.028 497.673 41.168 496.739 41.168ZM506.031 41.112C505.172 41.112 504.416 40.944 503.763 40.608C503.119 40.272 502.62 39.8147 502.265 39.236C501.91 38.648 501.733 37.9807 501.733 37.234C501.733 36.478 501.906 35.8107 502.251 35.232C502.606 34.644 503.086 34.1867 503.693 33.86C504.3 33.524 504.986 33.356 505.751 33.356C506.488 33.356 507.151 33.5147 507.739 33.832C508.336 34.14 508.808 34.588 509.153 35.176C509.498 35.7547 509.671 36.45 509.671 37.262C509.671 37.346 509.666 37.444 509.657 37.556C509.648 37.6587 509.638 37.7567 509.629 37.85H503.511V36.576H508.481L507.641 36.954C507.641 36.562 507.562 36.2213 507.403 35.932C507.244 35.6427 507.025 35.4187 506.745 35.26C506.465 35.092 506.138 35.008 505.765 35.008C505.392 35.008 505.06 35.092 504.771 35.26C504.491 35.4187 504.272 35.6473 504.113 35.946C503.954 36.2353 503.875 36.5807 503.875 36.982V37.318C503.875 37.7287 503.964 38.0927 504.141 38.41C504.328 38.718 504.584 38.956 504.911 39.124C505.247 39.2827 505.639 39.362 506.087 39.362C506.488 39.362 506.838 39.3013 507.137 39.18C507.445 39.0587 507.725 38.8767 507.977 38.634L509.139 39.894C508.794 40.286 508.36 40.5893 507.837 40.804C507.314 41.0093 506.712 41.112 506.031 41.112ZM514.863 41.112C514.005 41.112 513.249 40.944 512.595 40.608C511.951 40.272 511.452 39.8147 511.097 39.236C510.743 38.648 510.565 37.9807 510.565 37.234C510.565 36.478 510.738 35.8107 511.083 35.232C511.438 34.644 511.919 34.1867 512.525 33.86C513.132 33.524 513.818 33.356 514.583 33.356C515.321 33.356 515.983 33.5147 516.571 33.832C517.169 34.14 517.64 34.588 517.985 35.176C518.331 35.7547 518.503 36.45 518.503 37.262C518.503 37.346 518.499 37.444 518.489 37.556C518.48 37.6587 518.471 37.7567 518.461 37.85H512.343V36.576H517.313L516.473 36.954C516.473 36.562 516.394 36.2213 516.235 35.932C516.077 35.6427 515.857 35.4187 515.577 35.26C515.297 35.092 514.971 35.008 514.597 35.008C514.224 35.008 513.893 35.092 513.603 35.26C513.323 35.4187 513.104 35.6473 512.945 35.946C512.787 36.2353 512.707 36.5807 512.707 36.982V37.318C512.707 37.7287 512.796 38.0927 512.973 38.41C513.16 38.718 513.417 38.956 513.743 39.124C514.079 39.2827 514.471 39.362 514.919 39.362C515.321 39.362 515.671 39.3013 515.969 39.18C516.277 39.0587 516.557 38.8767 516.809 38.634L517.971 39.894C517.626 40.286 517.192 40.5893 516.669 40.804C516.147 41.0093 515.545 41.112 514.863 41.112ZM523.191 41.112C522.482 41.112 521.843 40.9533 521.273 40.636C520.704 40.3093 520.251 39.8567 519.915 39.278C519.589 38.6993 519.425 38.018 519.425 37.234C519.425 36.4407 519.589 35.7547 519.915 35.176C520.251 34.5973 520.704 34.1493 521.273 33.832C521.843 33.5147 522.482 33.356 523.191 33.356C523.826 33.356 524.381 33.496 524.857 33.776C525.333 34.056 525.702 34.4807 525.963 35.05C526.225 35.6193 526.355 36.3473 526.355 37.234C526.355 38.1113 526.229 38.8393 525.977 39.418C525.725 39.9873 525.361 40.412 524.885 40.692C524.419 40.972 523.854 41.112 523.191 41.112ZM523.569 39.32C523.924 39.32 524.246 39.236 524.535 39.068C524.825 38.9 525.053 38.662 525.221 38.354C525.399 38.0367 525.487 37.6633 525.487 37.234C525.487 36.7953 525.399 36.422 525.221 36.114C525.053 35.806 524.825 35.568 524.535 35.4C524.246 35.232 523.924 35.148 523.569 35.148C523.205 35.148 522.879 35.232 522.589 35.4C522.3 35.568 522.067 35.806 521.889 36.114C521.721 36.422 521.637 36.7953 521.637 37.234C521.637 37.6633 521.721 38.0367 521.889 38.354C522.067 38.662 522.3 38.9 522.589 39.068C522.879 39.236 523.205 39.32 523.569 39.32ZM525.543 41V39.46L525.585 37.22L525.445 34.994V30.612H527.629V41H525.543Z" fill="#EEEDFF"/>
<path d="M540.852 40.096C540.172 40.096 539.584 39.996 539.088 39.796C538.592 39.596 538.208 39.312 537.936 38.944C537.664 38.568 537.528 38.128 537.528 37.624C537.528 37.128 537.656 36.708 537.912 36.364C538.176 36.012 538.556 35.748 539.052 35.572C539.548 35.388 540.148 35.296 540.852 35.296C541.556 35.296 542.156 35.388 542.652 35.572C543.156 35.748 543.54 36.012 543.804 36.364C544.068 36.716 544.2 37.136 544.2 37.624C544.2 38.128 544.064 38.568 543.792 38.944C543.52 39.312 543.132 39.596 542.628 39.796C542.124 39.996 541.532 40.096 540.852 40.096ZM540.852 39.124C541.524 39.124 542.048 38.988 542.424 38.716C542.808 38.436 543 38.06 543 37.588C543 37.124 542.808 36.76 542.424 36.496C542.048 36.224 541.524 36.088 540.852 36.088C540.188 36.088 539.668 36.224 539.292 36.496C538.916 36.76 538.728 37.124 538.728 37.588C538.728 38.06 538.916 38.436 539.292 38.716C539.668 38.988 540.188 39.124 540.852 39.124ZM540.852 35.944C540.212 35.944 539.668 35.86 539.22 35.692C538.772 35.516 538.428 35.268 538.188 34.948C537.948 34.62 537.828 34.232 537.828 33.784C537.828 33.312 537.952 32.908 538.2 32.572C538.456 32.228 538.812 31.964 539.268 31.78C539.724 31.596 540.252 31.504 540.852 31.504C541.46 31.504 541.992 31.596 542.448 31.78C542.904 31.964 543.26 32.228 543.516 32.572C543.772 32.908 543.9 33.312 543.9 33.784C543.9 34.232 543.78 34.62 543.54 34.948C543.3 35.268 542.952 35.516 542.496 35.692C542.04 35.86 541.492 35.944 540.852 35.944ZM540.852 35.176C541.436 35.176 541.892 35.056 542.22 34.816C542.556 34.576 542.724 34.248 542.724 33.832C542.724 33.408 542.552 33.076 542.208 32.836C541.864 32.596 541.412 32.476 540.852 32.476C540.292 32.476 539.844 32.596 539.508 32.836C539.18 33.076 539.016 33.408 539.016 33.832C539.016 34.248 539.176 34.576 539.496 34.816C539.824 35.056 540.276 35.176 540.852 35.176ZM546.333 40L552.069 31.6H552.993L547.257 40H546.333ZM547.005 36.112C546.621 36.112 546.281 36.016 545.985 35.824C545.689 35.632 545.457 35.364 545.289 35.02C545.129 34.676 545.049 34.276 545.049 33.82C545.049 33.364 545.129 32.964 545.289 32.62C545.457 32.276 545.689 32.008 545.985 31.816C546.281 31.624 546.621 31.528 547.005 31.528C547.397 31.528 547.737 31.624 548.025 31.816C548.321 32.008 548.549 32.276 548.709 32.62C548.869 32.964 548.949 33.364 548.949 33.82C548.949 34.276 548.869 34.676 548.709 35.02C548.549 35.364 548.321 35.632 548.025 35.824C547.737 36.016 547.397 36.112 547.005 36.112ZM547.005 35.428C547.373 35.428 547.661 35.288 547.869 35.008C548.077 34.72 548.181 34.324 548.181 33.82C548.181 33.316 548.077 32.924 547.869 32.644C547.661 32.356 547.373 32.212 547.005 32.212C546.645 32.212 546.357 32.356 546.141 32.644C545.933 32.924 545.829 33.316 545.829 33.82C545.829 34.316 545.933 34.708 546.141 34.996C546.357 35.284 546.645 35.428 547.005 35.428ZM552.321 40.072C551.937 40.072 551.597 39.976 551.301 39.784C551.005 39.592 550.777 39.324 550.617 38.98C550.457 38.636 550.377 38.236 550.377 37.78C550.377 37.324 550.457 36.924 550.617 36.58C550.777 36.236 551.005 35.968 551.301 35.776C551.597 35.584 551.937 35.488 552.321 35.488C552.713 35.488 553.053 35.584 553.341 35.776C553.637 35.968 553.865 36.236 554.025 36.58C554.193 36.924 554.277 37.324 554.277 37.78C554.277 38.236 554.193 38.636 554.025 38.98C553.865 39.324 553.637 39.592 553.341 39.784C553.053 39.976 552.713 40.072 552.321 40.072ZM552.321 39.388C552.681 39.388 552.965 39.248 553.173 38.968C553.389 38.68 553.497 38.284 553.497 37.78C553.497 37.284 553.389 36.892 553.173 36.604C552.965 36.316 552.681 36.172 552.321 36.172C551.961 36.172 551.673 36.316 551.457 36.604C551.249 36.884 551.145 37.276 551.145 37.78C551.145 38.284 551.249 38.68 551.457 38.968C551.673 39.248 551.961 39.388 552.321 39.388Z" fill="#AA82FF"/>
<circle cx="484" cy="36" r="3.65" stroke="#EEEDFF" stroke-width="0.7"/>
<circle cx="484" cy="36" r="2" fill="#EEEDFF"/>
<path d="M448.169 110.168C447.413 110.168 446.709 110.047 446.055 109.804C445.411 109.552 444.851 109.197 444.375 108.74C443.899 108.283 443.526 107.746 443.255 107.13C442.994 106.514 442.863 105.837 442.863 105.1C442.863 104.363 442.994 103.686 443.255 103.07C443.526 102.454 443.899 101.917 444.375 101.46C444.861 101.003 445.425 100.653 446.069 100.41C446.713 100.158 447.418 100.032 448.183 100.032C449.033 100.032 449.798 100.181 450.479 100.48C451.17 100.769 451.749 101.199 452.215 101.768L450.759 103.112C450.423 102.729 450.05 102.445 449.639 102.258C449.229 102.062 448.781 101.964 448.295 101.964C447.838 101.964 447.418 102.039 447.035 102.188C446.653 102.337 446.321 102.552 446.041 102.832C445.761 103.112 445.542 103.443 445.383 103.826C445.234 104.209 445.159 104.633 445.159 105.1C445.159 105.567 445.234 105.991 445.383 106.374C445.542 106.757 445.761 107.088 446.041 107.368C446.321 107.648 446.653 107.863 447.035 108.012C447.418 108.161 447.838 108.236 448.295 108.236C448.781 108.236 449.229 108.143 449.639 107.956C450.05 107.76 450.423 107.466 450.759 107.074L452.215 108.418C451.749 108.987 451.17 109.421 450.479 109.72C449.798 110.019 449.028 110.168 448.169 110.168ZM456.917 110.112C456.115 110.112 455.401 109.944 454.775 109.608C454.159 109.272 453.669 108.815 453.305 108.236C452.951 107.648 452.773 106.981 452.773 106.234C452.773 105.478 452.951 104.811 453.305 104.232C453.669 103.644 454.159 103.187 454.775 102.86C455.401 102.524 456.115 102.356 456.917 102.356C457.711 102.356 458.42 102.524 459.045 102.86C459.671 103.187 460.161 103.639 460.515 104.218C460.87 104.797 461.047 105.469 461.047 106.234C461.047 106.981 460.87 107.648 460.515 108.236C460.161 108.815 459.671 109.272 459.045 109.608C458.42 109.944 457.711 110.112 456.917 110.112ZM456.917 108.32C457.281 108.32 457.608 108.236 457.897 108.068C458.187 107.9 458.415 107.662 458.583 107.354C458.751 107.037 458.835 106.663 458.835 106.234C458.835 105.795 458.751 105.422 458.583 105.114C458.415 104.806 458.187 104.568 457.897 104.4C457.608 104.232 457.281 104.148 456.917 104.148C456.553 104.148 456.227 104.232 455.937 104.4C455.648 104.568 455.415 104.806 455.237 105.114C455.069 105.422 454.985 105.795 454.985 106.234C454.985 106.663 455.069 107.037 455.237 107.354C455.415 107.662 455.648 107.9 455.937 108.068C456.227 108.236 456.553 108.32 456.917 108.32ZM472.153 102.356C472.75 102.356 473.278 102.477 473.735 102.72C474.202 102.953 474.566 103.317 474.827 103.812C475.098 104.297 475.233 104.923 475.233 105.688V110H473.049V106.024C473.049 105.417 472.923 104.969 472.671 104.68C472.419 104.391 472.064 104.246 471.607 104.246C471.29 104.246 471.005 104.321 470.753 104.47C470.501 104.61 470.305 104.825 470.165 105.114C470.025 105.403 469.955 105.772 469.955 106.22V110H467.771V106.024C467.771 105.417 467.645 104.969 467.393 104.68C467.15 104.391 466.8 104.246 466.343 104.246C466.026 104.246 465.741 104.321 465.489 104.47C465.237 104.61 465.041 104.825 464.901 105.114C464.761 105.403 464.691 105.772 464.691 106.22V110H462.507V102.468H464.593V104.526L464.201 103.924C464.462 103.411 464.831 103.023 465.307 102.762C465.792 102.491 466.343 102.356 466.959 102.356C467.65 102.356 468.252 102.533 468.765 102.888C469.288 103.233 469.633 103.765 469.801 104.484L469.031 104.274C469.283 103.686 469.684 103.219 470.235 102.874C470.795 102.529 471.434 102.356 472.153 102.356ZM486.837 102.356C487.434 102.356 487.961 102.477 488.419 102.72C488.885 102.953 489.249 103.317 489.511 103.812C489.781 104.297 489.917 104.923 489.917 105.688V110H487.733V106.024C487.733 105.417 487.607 104.969 487.355 104.68C487.103 104.391 486.748 104.246 486.291 104.246C485.973 104.246 485.689 104.321 485.437 104.47C485.185 104.61 484.989 104.825 484.849 105.114C484.709 105.403 484.639 105.772 484.639 106.22V110H482.455V106.024C482.455 105.417 482.329 104.969 482.077 104.68C481.834 104.391 481.484 104.246 481.027 104.246C480.709 104.246 480.425 104.321 480.173 104.47C479.921 104.61 479.725 104.825 479.585 105.114C479.445 105.403 479.375 105.772 479.375 106.22V110H477.191V102.468H479.277V104.526L478.885 103.924C479.146 103.411 479.515 103.023 479.991 102.762C480.476 102.491 481.027 102.356 481.643 102.356C482.333 102.356 482.935 102.533 483.449 102.888C483.971 103.233 484.317 103.765 484.485 104.484L483.715 104.274C483.967 103.686 484.368 103.219 484.919 102.874C485.479 102.529 486.118 102.356 486.837 102.356ZM495.052 110.112C494.427 110.112 493.867 109.991 493.372 109.748C492.887 109.505 492.509 109.137 492.238 108.642C491.968 108.138 491.832 107.499 491.832 106.724V102.468H494.016V106.402C494.016 107.027 494.147 107.489 494.408 107.788C494.679 108.077 495.057 108.222 495.542 108.222C495.878 108.222 496.177 108.152 496.438 108.012C496.7 107.863 496.905 107.639 497.054 107.34C497.204 107.032 497.278 106.649 497.278 106.192V102.468H499.462V110H497.39V107.928L497.768 108.53C497.516 109.053 497.143 109.449 496.648 109.72C496.163 109.981 495.631 110.112 495.052 110.112ZM506.064 102.356C506.661 102.356 507.193 102.477 507.66 102.72C508.136 102.953 508.509 103.317 508.78 103.812C509.05 104.297 509.186 104.923 509.186 105.688V110H507.002V106.024C507.002 105.417 506.866 104.969 506.596 104.68C506.334 104.391 505.961 104.246 505.476 104.246C505.13 104.246 504.818 104.321 504.538 104.47C504.267 104.61 504.052 104.829 503.894 105.128C503.744 105.427 503.67 105.809 503.67 106.276V110H501.486V102.468H503.572V104.554L503.18 103.924C503.45 103.42 503.838 103.033 504.342 102.762C504.846 102.491 505.42 102.356 506.064 102.356ZM511.165 110V102.468H513.349V110H511.165ZM512.257 101.418C511.856 101.418 511.529 101.301 511.277 101.068C511.025 100.835 510.899 100.545 510.899 100.2C510.899 99.8547 511.025 99.5653 511.277 99.332C511.529 99.0987 511.856 98.982 512.257 98.982C512.659 98.982 512.985 99.094 513.237 99.318C513.489 99.5327 513.615 99.8127 513.615 100.158C513.615 100.522 513.489 100.825 513.237 101.068C512.995 101.301 512.668 101.418 512.257 101.418ZM518.456 110.112C517.569 110.112 516.879 109.888 516.384 109.44C515.889 108.983 515.642 108.306 515.642 107.41V100.802H517.826V107.382C517.826 107.699 517.91 107.947 518.078 108.124C518.246 108.292 518.475 108.376 518.764 108.376C519.109 108.376 519.403 108.283 519.646 108.096L520.234 109.636C520.01 109.795 519.739 109.916 519.422 110C519.114 110.075 518.792 110.112 518.456 110.112ZM514.48 104.316V102.636H519.702V104.316H514.48ZM522.275 112.828C521.883 112.828 521.496 112.767 521.113 112.646C520.731 112.525 520.418 112.357 520.175 112.142L520.973 110.588C521.141 110.737 521.333 110.854 521.547 110.938C521.771 111.022 521.991 111.064 522.205 111.064C522.513 111.064 522.756 110.989 522.933 110.84C523.12 110.7 523.288 110.462 523.437 110.126L523.829 109.202L523.997 108.964L526.699 102.468H528.799L525.397 110.462C525.155 111.069 524.875 111.545 524.557 111.89C524.249 112.235 523.904 112.478 523.521 112.618C523.148 112.758 522.733 112.828 522.275 112.828ZM523.563 110.294L520.203 102.468H522.457L525.061 108.768L523.563 110.294Z" fill="#EEEDFF"/>
<path d="M540.144 109.096C539.552 109.096 538.976 109.004 538.416 108.82C537.864 108.636 537.412 108.388 537.06 108.076L537.612 107.128C537.892 107.392 538.256 107.608 538.704 107.776C539.152 107.944 539.632 108.028 540.144 108.028C540.768 108.028 541.252 107.896 541.596 107.632C541.948 107.36 542.124 106.996 542.124 106.54C542.124 106.1 541.956 105.748 541.62 105.484C541.292 105.212 540.768 105.076 540.048 105.076H539.376V104.236L541.872 101.164L542.04 101.644H537.444V100.6H542.988V101.416L540.504 104.476L539.88 104.104H540.276C541.292 104.104 542.052 104.332 542.556 104.788C543.068 105.244 543.324 105.824 543.324 106.528C543.324 107 543.208 107.432 542.976 107.824C542.744 108.216 542.392 108.528 541.92 108.76C541.456 108.984 540.864 109.096 540.144 109.096ZM547.875 109.096C547.219 109.096 546.631 108.928 546.111 108.592C545.599 108.256 545.191 107.768 544.887 107.128C544.591 106.488 544.443 105.712 544.443 104.8C544.443 103.888 544.591 103.112 544.887 102.472C545.191 101.832 545.599 101.344 546.111 101.008C546.631 100.672 547.219 100.504 547.875 100.504C548.523 100.504 549.107 100.672 549.627 101.008C550.147 101.344 550.555 101.832 550.851 102.472C551.147 103.112 551.295 103.888 551.295 104.8C551.295 105.712 551.147 106.488 550.851 107.128C550.555 107.768 550.147 108.256 549.627 108.592C549.107 108.928 548.523 109.096 547.875 109.096ZM547.875 108.028C548.315 108.028 548.699 107.908 549.027 107.668C549.363 107.428 549.623 107.068 549.807 106.588C549.999 106.108 550.095 105.512 550.095 104.8C550.095 104.088 549.999 103.492 549.807 103.012C549.623 102.532 549.363 102.172 549.027 101.932C548.699 101.692 548.315 101.572 547.875 101.572C547.435 101.572 547.047 101.692 546.711 101.932C546.375 102.172 546.111 102.532 545.919 103.012C545.735 103.492 545.643 104.088 545.643 104.8C545.643 105.512 545.735 106.108 545.919 106.588C546.111 107.068 546.375 107.428 546.711 107.668C547.047 107.908 547.435 108.028 547.875 108.028ZM553.599 109L559.335 100.6H560.259L554.523 109H553.599ZM554.271 105.112C553.887 105.112 553.547 105.016 553.251 104.824C552.955 104.632 552.723 104.364 552.555 104.02C552.395 103.676 552.315 103.276 552.315 102.82C552.315 102.364 552.395 101.964 552.555 101.62C552.723 101.276 552.955 101.008 553.251 100.816C553.547 100.624 553.887 100.528 554.271 100.528C554.663 100.528 555.003 100.624 555.291 100.816C555.587 101.008 555.815 101.276 555.975 101.62C556.135 101.964 556.215 102.364 556.215 102.82C556.215 103.276 556.135 103.676 555.975 104.02C555.815 104.364 555.587 104.632 555.291 104.824C555.003 105.016 554.663 105.112 554.271 105.112ZM554.271 104.428C554.639 104.428 554.927 104.288 555.135 104.008C555.343 103.72 555.447 103.324 555.447 102.82C555.447 102.316 555.343 101.924 555.135 101.644C554.927 101.356 554.639 101.212 554.271 101.212C553.911 101.212 553.623 101.356 553.407 101.644C553.199 101.924 553.095 102.316 553.095 102.82C553.095 103.316 553.199 103.708 553.407 103.996C553.623 104.284 553.911 104.428 554.271 104.428ZM559.587 109.072C559.203 109.072 558.863 108.976 558.567 108.784C558.271 108.592 558.043 108.324 557.883 107.98C557.723 107.636 557.643 107.236 557.643 106.78C557.643 106.324 557.723 105.924 557.883 105.58C558.043 105.236 558.271 104.968 558.567 104.776C558.863 104.584 559.203 104.488 559.587 104.488C559.979 104.488 560.319 104.584 560.607 104.776C560.903 104.968 561.131 105.236 561.291 105.58C561.459 105.924 561.543 106.324 561.543 106.78C561.543 107.236 561.459 107.636 561.291 107.98C561.131 108.324 560.903 108.592 560.607 108.784C560.319 108.976 559.979 109.072 559.587 109.072ZM559.587 108.388C559.947 108.388 560.231 108.248 560.439 107.968C560.655 107.68 560.763 107.284 560.763 106.78C560.763 106.284 560.655 105.892 560.439 105.604C560.231 105.316 559.947 105.172 559.587 105.172C559.227 105.172 558.939 105.316 558.723 105.604C558.515 105.884 558.411 106.276 558.411 106.78C558.411 107.284 558.515 107.68 558.723 107.968C558.939 108.248 559.227 108.388 559.587 108.388Z" fill="#AA82FF"/>
<circle cx="434" cy="106" r="3.65" stroke="#EEEDFF" stroke-width="0.7"/>
<circle cx="434" cy="106" r="2" fill="#EEEDFF"/>
<path d="M492.272 254V246.048H489.136V244.2H497.676V246.048H494.54V254H492.272ZM501.715 254.112C500.856 254.112 500.1 253.944 499.447 253.608C498.803 253.272 498.303 252.815 497.949 252.236C497.594 251.648 497.417 250.981 497.417 250.234C497.417 249.478 497.589 248.811 497.935 248.232C498.289 247.644 498.77 247.187 499.377 246.86C499.983 246.524 500.669 246.356 501.435 246.356C502.172 246.356 502.835 246.515 503.423 246.832C504.02 247.14 504.491 247.588 504.837 248.176C505.182 248.755 505.355 249.45 505.355 250.262C505.355 250.346 505.35 250.444 505.341 250.556C505.331 250.659 505.322 250.757 505.313 250.85H499.195V249.576H504.165L503.325 249.954C503.325 249.562 503.245 249.221 503.087 248.932C502.928 248.643 502.709 248.419 502.429 248.26C502.149 248.092 501.822 248.008 501.449 248.008C501.075 248.008 500.744 248.092 500.455 248.26C500.175 248.419 499.955 248.647 499.797 248.946C499.638 249.235 499.559 249.581 499.559 249.982V250.318C499.559 250.729 499.647 251.093 499.825 251.41C500.011 251.718 500.268 251.956 500.595 252.124C500.931 252.283 501.323 252.362 501.771 252.362C502.172 252.362 502.522 252.301 502.821 252.18C503.129 252.059 503.409 251.877 503.661 251.634L504.823 252.894C504.477 253.286 504.043 253.589 503.521 253.804C502.998 254.009 502.396 254.112 501.715 254.112ZM511.224 254V252.53L511.084 252.208V249.576C511.084 249.109 510.939 248.745 510.65 248.484C510.37 248.223 509.936 248.092 509.348 248.092C508.946 248.092 508.55 248.157 508.158 248.288C507.775 248.409 507.448 248.577 507.178 248.792L506.394 247.266C506.804 246.977 507.299 246.753 507.878 246.594C508.456 246.435 509.044 246.356 509.642 246.356C510.79 246.356 511.681 246.627 512.316 247.168C512.95 247.709 513.268 248.554 513.268 249.702V254H511.224ZM508.928 254.112C508.34 254.112 507.836 254.014 507.416 253.818C506.996 253.613 506.674 253.337 506.45 252.992C506.226 252.647 506.114 252.259 506.114 251.83C506.114 251.382 506.221 250.99 506.436 250.654C506.66 250.318 507.01 250.057 507.486 249.87C507.962 249.674 508.582 249.576 509.348 249.576H511.35V250.85H509.586C509.072 250.85 508.718 250.934 508.522 251.102C508.335 251.27 508.242 251.48 508.242 251.732C508.242 252.012 508.349 252.236 508.564 252.404C508.788 252.563 509.091 252.642 509.474 252.642C509.838 252.642 510.164 252.558 510.454 252.39C510.743 252.213 510.953 251.956 511.084 251.62L511.42 252.628C511.261 253.113 510.972 253.482 510.552 253.734C510.132 253.986 509.59 254.112 508.928 254.112ZM524.89 246.356C525.488 246.356 526.015 246.477 526.472 246.72C526.939 246.953 527.303 247.317 527.564 247.812C527.835 248.297 527.97 248.923 527.97 249.688V254H525.786V250.024C525.786 249.417 525.66 248.969 525.408 248.68C525.156 248.391 524.802 248.246 524.344 248.246C524.027 248.246 523.742 248.321 523.49 248.47C523.238 248.61 523.042 248.825 522.902 249.114C522.762 249.403 522.692 249.772 522.692 250.22V254H520.508V250.024C520.508 249.417 520.382 248.969 520.13 248.68C519.888 248.391 519.538 248.246 519.08 248.246C518.763 248.246 518.478 248.321 518.226 248.47C517.974 248.61 517.778 248.825 517.638 249.114C517.498 249.403 517.428 249.772 517.428 250.22V254H515.244V246.468H517.33V248.526L516.938 247.924C517.2 247.411 517.568 247.023 518.044 246.762C518.53 246.491 519.08 246.356 519.696 246.356C520.387 246.356 520.989 246.533 521.502 246.888C522.025 247.233 522.37 247.765 522.538 248.484L521.768 248.274C522.02 247.686 522.422 247.219 522.972 246.874C523.532 246.529 524.172 246.356 524.89 246.356Z" fill="#EEEDFF"/>
<path d="M538.992 253V245.08L539.508 245.644H537.096V244.6H540.18V253H538.992ZM541.885 253V252.184L545.305 248.884C545.609 248.596 545.833 248.344 545.977 248.128C546.129 247.904 546.229 247.7 546.277 247.516C546.333 247.324 546.361 247.14 546.361 246.964C546.361 246.532 546.209 246.192 545.905 245.944C545.601 245.696 545.157 245.572 544.573 245.572C544.125 245.572 543.721 245.648 543.361 245.8C543.001 245.944 542.689 246.172 542.425 246.484L541.609 245.776C541.929 245.368 542.357 245.056 542.893 244.84C543.437 244.616 544.033 244.504 544.681 244.504C545.265 244.504 545.773 244.6 546.205 244.792C546.637 244.976 546.969 245.244 547.201 245.596C547.441 245.948 547.561 246.364 547.561 246.844C547.561 247.116 547.525 247.384 547.453 247.648C547.381 247.912 547.245 248.192 547.045 248.488C546.845 248.784 546.557 249.116 546.181 249.484L543.133 252.424L542.845 251.956H547.921V253H541.885ZM550.177 253L555.913 244.6H556.837L551.101 253H550.177ZM550.849 249.112C550.465 249.112 550.125 249.016 549.829 248.824C549.533 248.632 549.301 248.364 549.133 248.02C548.973 247.676 548.893 247.276 548.893 246.82C548.893 246.364 548.973 245.964 549.133 245.62C549.301 245.276 549.533 245.008 549.829 244.816C550.125 244.624 550.465 244.528 550.849 244.528C551.241 244.528 551.581 244.624 551.869 244.816C552.165 245.008 552.393 245.276 552.553 245.62C552.713 245.964 552.793 246.364 552.793 246.82C552.793 247.276 552.713 247.676 552.553 248.02C552.393 248.364 552.165 248.632 551.869 248.824C551.581 249.016 551.241 249.112 550.849 249.112ZM550.849 248.428C551.217 248.428 551.505 248.288 551.713 248.008C551.921 247.72 552.025 247.324 552.025 246.82C552.025 246.316 551.921 245.924 551.713 245.644C551.505 245.356 551.217 245.212 550.849 245.212C550.489 245.212 550.201 245.356 549.985 245.644C549.777 245.924 549.673 246.316 549.673 246.82C549.673 247.316 549.777 247.708 549.985 247.996C550.201 248.284 550.489 248.428 550.849 248.428ZM556.165 253.072C555.781 253.072 555.441 252.976 555.145 252.784C554.849 252.592 554.621 252.324 554.461 251.98C554.301 251.636 554.221 251.236 554.221 250.78C554.221 250.324 554.301 249.924 554.461 249.58C554.621 249.236 554.849 248.968 555.145 248.776C555.441 248.584 555.781 248.488 556.165 248.488C556.557 248.488 556.897 248.584 557.185 248.776C557.481 248.968 557.709 249.236 557.869 249.58C558.037 249.924 558.121 250.324 558.121 250.78C558.121 251.236 558.037 251.636 557.869 251.98C557.709 252.324 557.481 252.592 557.185 252.784C556.897 252.976 556.557 253.072 556.165 253.072ZM556.165 252.388C556.525 252.388 556.809 252.248 557.017 251.968C557.233 251.68 557.341 251.284 557.341 250.78C557.341 250.284 557.233 249.892 557.017 249.604C556.809 249.316 556.525 249.172 556.165 249.172C555.805 249.172 555.517 249.316 555.301 249.604C555.093 249.884 554.989 250.276 554.989 250.78C554.989 251.284 555.093 251.68 555.301 251.968C555.517 252.248 555.805 252.388 556.165 252.388Z" fill="#AA82FF"/>
<circle cx="481" cy="249" r="3.65" stroke="#EEEDFF" stroke-width="0.7"/>
<circle cx="481" cy="249" r="2" fill="#EEEDFF"/>
<path d="M3.71577 314.148H8.43377V315.912H3.71577V314.148ZM3.88377 318.18H9.21777V320H1.62977V310.2H9.03577V312.02H3.88377V318.18ZM14.4673 320.112C13.6553 320.112 12.932 319.949 12.2973 319.622C11.6627 319.286 11.1633 318.824 10.7993 318.236C10.4447 317.648 10.2673 316.981 10.2673 316.234C10.2673 315.478 10.4447 314.811 10.7993 314.232C11.1633 313.644 11.6627 313.187 12.2973 312.86C12.932 312.524 13.6553 312.356 14.4673 312.356C15.2607 312.356 15.9513 312.524 16.5393 312.86C17.1273 313.187 17.5613 313.658 17.8413 314.274L16.1473 315.184C15.9513 314.829 15.704 314.568 15.4053 314.4C15.116 314.232 14.7987 314.148 14.4533 314.148C14.08 314.148 13.744 314.232 13.4453 314.4C13.1467 314.568 12.9087 314.806 12.7313 315.114C12.5633 315.422 12.4793 315.795 12.4793 316.234C12.4793 316.673 12.5633 317.046 12.7313 317.354C12.9087 317.662 13.1467 317.9 13.4453 318.068C13.744 318.236 14.08 318.32 14.4533 318.32C14.7987 318.32 15.116 318.241 15.4053 318.082C15.704 317.914 15.9513 317.648 16.1473 317.284L17.8413 318.208C17.5613 318.815 17.1273 319.286 16.5393 319.622C15.9513 319.949 15.2607 320.112 14.4673 320.112ZM22.5871 320.112C21.7845 320.112 21.0705 319.944 20.4451 319.608C19.8291 319.272 19.3391 318.815 18.9751 318.236C18.6205 317.648 18.4431 316.981 18.4431 316.234C18.4431 315.478 18.6205 314.811 18.9751 314.232C19.3391 313.644 19.8291 313.187 20.4451 312.86C21.0705 312.524 21.7845 312.356 22.5871 312.356C23.3805 312.356 24.0898 312.524 24.7151 312.86C25.3405 313.187 25.8305 313.639 26.1851 314.218C26.5398 314.797 26.7171 315.469 26.7171 316.234C26.7171 316.981 26.5398 317.648 26.1851 318.236C25.8305 318.815 25.3405 319.272 24.7151 319.608C24.0898 319.944 23.3805 320.112 22.5871 320.112ZM22.5871 318.32C22.9511 318.32 23.2778 318.236 23.5671 318.068C23.8565 317.9 24.0851 317.662 24.2531 317.354C24.4211 317.037 24.5051 316.663 24.5051 316.234C24.5051 315.795 24.4211 315.422 24.2531 315.114C24.0851 314.806 23.8565 314.568 23.5671 314.4C23.2778 314.232 22.9511 314.148 22.5871 314.148C22.2231 314.148 21.8965 314.232 21.6071 314.4C21.3178 314.568 21.0845 314.806 20.9071 315.114C20.7391 315.422 20.6551 315.795 20.6551 316.234C20.6551 316.663 20.7391 317.037 20.9071 317.354C21.0845 317.662 21.3178 317.9 21.6071 318.068C21.8965 318.236 22.2231 318.32 22.5871 318.32ZM30.7109 320.112C30.0669 320.112 29.4463 320.037 28.8489 319.888C28.2609 319.729 27.7943 319.533 27.4489 319.3L28.1769 317.732C28.5223 317.947 28.9283 318.124 29.3949 318.264C29.8709 318.395 30.3376 318.46 30.7949 318.46C31.2989 318.46 31.6536 318.399 31.8589 318.278C32.0736 318.157 32.1809 317.989 32.1809 317.774C32.1809 317.597 32.0969 317.466 31.9289 317.382C31.7703 317.289 31.5556 317.219 31.2849 317.172C31.0143 317.125 30.7156 317.079 30.3889 317.032C30.0716 316.985 29.7496 316.925 29.4229 316.85C29.0963 316.766 28.7976 316.645 28.5269 316.486C28.2563 316.327 28.0369 316.113 27.8689 315.842C27.7103 315.571 27.6309 315.221 27.6309 314.792C27.6309 314.316 27.7663 313.896 28.0369 313.532C28.3169 313.168 28.7183 312.883 29.2409 312.678C29.7636 312.463 30.3889 312.356 31.1169 312.356C31.6303 312.356 32.1529 312.412 32.6849 312.524C33.2169 312.636 33.6603 312.799 34.0149 313.014L33.2869 314.568C32.9229 314.353 32.5543 314.209 32.1809 314.134C31.8169 314.05 31.4623 314.008 31.1169 314.008C30.6316 314.008 30.2769 314.073 30.0529 314.204C29.8289 314.335 29.7169 314.503 29.7169 314.708C29.7169 314.895 29.7963 315.035 29.9549 315.128C30.1229 315.221 30.3423 315.296 30.6129 315.352C30.8836 315.408 31.1776 315.459 31.4949 315.506C31.8216 315.543 32.1483 315.604 32.4749 315.688C32.8016 315.772 33.0956 315.893 33.3569 316.052C33.6276 316.201 33.8469 316.411 34.0149 316.682C34.1829 316.943 34.2669 317.289 34.2669 317.718C34.2669 318.185 34.1269 318.6 33.8469 318.964C33.5669 319.319 33.1609 319.599 32.6289 319.804C32.1063 320.009 31.4669 320.112 30.7109 320.112ZM36.4297 322.828C36.0377 322.828 35.6504 322.767 35.2677 322.646C34.8851 322.525 34.5724 322.357 34.3297 322.142L35.1277 320.588C35.2957 320.737 35.4871 320.854 35.7017 320.938C35.9257 321.022 36.1451 321.064 36.3597 321.064C36.6677 321.064 36.9104 320.989 37.0877 320.84C37.2744 320.7 37.4424 320.462 37.5917 320.126L37.9837 319.202L38.1517 318.964L40.8537 312.468H42.9537L39.5517 320.462C39.3091 321.069 39.0291 321.545 38.7117 321.89C38.4037 322.235 38.0584 322.478 37.6757 322.618C37.3024 322.758 36.8871 322.828 36.4297 322.828ZM37.7177 320.294L34.3577 312.468H36.6117L39.2157 318.768L37.7177 320.294ZM46.2695 320.112C45.6255 320.112 45.0049 320.037 44.4075 319.888C43.8195 319.729 43.3529 319.533 43.0075 319.3L43.7355 317.732C44.0809 317.947 44.4869 318.124 44.9535 318.264C45.4295 318.395 45.8962 318.46 46.3535 318.46C46.8575 318.46 47.2122 318.399 47.4175 318.278C47.6322 318.157 47.7395 317.989 47.7395 317.774C47.7395 317.597 47.6555 317.466 47.4875 317.382C47.3289 317.289 47.1142 317.219 46.8435 317.172C46.5729 317.125 46.2742 317.079 45.9475 317.032C45.6302 316.985 45.3082 316.925 44.9815 316.85C44.6549 316.766 44.3562 316.645 44.0855 316.486C43.8149 316.327 43.5955 316.113 43.4275 315.842C43.2689 315.571 43.1895 315.221 43.1895 314.792C43.1895 314.316 43.3249 313.896 43.5955 313.532C43.8755 313.168 44.2769 312.883 44.7995 312.678C45.3222 312.463 45.9475 312.356 46.6755 312.356C47.1889 312.356 47.7115 312.412 48.2435 312.524C48.7755 312.636 49.2189 312.799 49.5735 313.014L48.8455 314.568C48.4815 314.353 48.1129 314.209 47.7395 314.134C47.3755 314.05 47.0209 314.008 46.6755 314.008C46.1902 314.008 45.8355 314.073 45.6115 314.204C45.3875 314.335 45.2755 314.503 45.2755 314.708C45.2755 314.895 45.3549 315.035 45.5135 315.128C45.6815 315.221 45.9009 315.296 46.1715 315.352C46.4422 315.408 46.7362 315.459 47.0535 315.506C47.3802 315.543 47.7069 315.604 48.0335 315.688C48.3602 315.772 48.6542 315.893 48.9155 316.052C49.1862 316.201 49.4055 316.411 49.5735 316.682C49.7415 316.943 49.8255 317.289 49.8255 317.718C49.8255 318.185 49.6855 318.6 49.4055 318.964C49.1255 319.319 48.7195 319.599 48.1875 319.804C47.6649 320.009 47.0255 320.112 46.2695 320.112ZM54.253 320.112C53.3664 320.112 52.6757 319.888 52.181 319.44C51.6864 318.983 51.439 318.306 51.439 317.41V310.802H53.623V317.382C53.623 317.699 53.707 317.947 53.875 318.124C54.043 318.292 54.2717 318.376 54.561 318.376C54.9064 318.376 55.2004 318.283 55.443 318.096L56.031 319.636C55.807 319.795 55.5364 319.916 55.219 320C54.911 320.075 54.589 320.112 54.253 320.112ZM50.277 314.316V312.636H55.499V314.316H50.277ZM60.7626 320.112C59.9039 320.112 59.1479 319.944 58.4946 319.608C57.8506 319.272 57.3513 318.815 56.9966 318.236C56.6419 317.648 56.4646 316.981 56.4646 316.234C56.4646 315.478 56.6373 314.811 56.9826 314.232C57.3373 313.644 57.8179 313.187 58.4246 312.86C59.0313 312.524 59.7173 312.356 60.4826 312.356C61.2199 312.356 61.8826 312.515 62.4706 312.832C63.0679 313.14 63.5393 313.588 63.8846 314.176C64.2299 314.755 64.4026 315.45 64.4026 316.262C64.4026 316.346 64.3979 316.444 64.3886 316.556C64.3793 316.659 64.3699 316.757 64.3606 316.85H58.2426V315.576H63.2126L62.3726 315.954C62.3726 315.562 62.2933 315.221 62.1346 314.932C61.9759 314.643 61.7566 314.419 61.4766 314.26C61.1966 314.092 60.8699 314.008 60.4966 314.008C60.1233 314.008 59.7919 314.092 59.5026 314.26C59.2226 314.419 59.0033 314.647 58.8446 314.946C58.6859 315.235 58.6066 315.581 58.6066 315.982V316.318C58.6066 316.729 58.6953 317.093 58.8726 317.41C59.0593 317.718 59.3159 317.956 59.6426 318.124C59.9786 318.283 60.3706 318.362 60.8186 318.362C61.2199 318.362 61.5699 318.301 61.8686 318.18C62.1766 318.059 62.4566 317.877 62.7086 317.634L63.8706 318.894C63.5253 319.286 63.0913 319.589 62.5686 319.804C62.0459 320.009 61.4439 320.112 60.7626 320.112ZM75.5026 312.356C76.1 312.356 76.6273 312.477 77.0846 312.72C77.5513 312.953 77.9153 313.317 78.1766 313.812C78.4473 314.297 78.5826 314.923 78.5826 315.688V320H76.3986V316.024C76.3986 315.417 76.2726 314.969 76.0206 314.68C75.7686 314.391 75.414 314.246 74.9566 314.246C74.6393 314.246 74.3546 314.321 74.1026 314.47C73.8506 314.61 73.6546 314.825 73.5146 315.114C73.3746 315.403 73.3046 315.772 73.3046 316.22V320H71.1206V316.024C71.1206 315.417 70.9946 314.969 70.7426 314.68C70.5 314.391 70.15 314.246 69.6926 314.246C69.3753 314.246 69.0906 314.321 68.8386 314.47C68.5866 314.61 68.3906 314.825 68.2506 315.114C68.1106 315.403 68.0406 315.772 68.0406 316.22V320H65.8566V312.468H67.9426V314.526L67.5506 313.924C67.812 313.411 68.1806 313.023 68.6566 312.762C69.142 312.491 69.6926 312.356 70.3086 312.356C70.9993 312.356 71.6013 312.533 72.1146 312.888C72.6373 313.233 72.9826 313.765 73.1506 314.484L72.3806 314.274C72.6326 313.686 73.034 313.219 73.5846 312.874C74.1446 312.529 74.784 312.356 75.5026 312.356Z" fill="#EEEDFF"/>
<path d="M88.444 319V318.184L91.864 314.884C92.168 314.596 92.392 314.344 92.536 314.128C92.688 313.904 92.788 313.7 92.836 313.516C92.892 313.324 92.92 313.14 92.92 312.964C92.92 312.532 92.768 312.192 92.464 311.944C92.16 311.696 91.716 311.572 91.132 311.572C90.684 311.572 90.28 311.648 89.92 311.8C89.56 311.944 89.248 312.172 88.984 312.484L88.168 311.776C88.488 311.368 88.916 311.056 89.452 310.84C89.996 310.616 90.592 310.504 91.24 310.504C91.824 310.504 92.332 310.6 92.764 310.792C93.196 310.976 93.528 311.244 93.76 311.596C94 311.948 94.12 312.364 94.12 312.844C94.12 313.116 94.084 313.384 94.012 313.648C93.94 313.912 93.804 314.192 93.604 314.488C93.404 314.784 93.116 315.116 92.74 315.484L89.692 318.424L89.404 317.956H94.48V319H88.444ZM98.1786 319.096C97.5866 319.096 97.0106 319.004 96.4506 318.82C95.8986 318.636 95.4466 318.388 95.0946 318.076L95.6466 317.128C95.9266 317.392 96.2906 317.608 96.7386 317.776C97.1866 317.944 97.6626 318.028 98.1666 318.028C98.8066 318.028 99.2986 317.892 99.6426 317.62C99.9866 317.348 100.159 316.984 100.159 316.528C100.159 316.216 100.083 315.944 99.9306 315.712C99.7786 315.48 99.5146 315.304 99.1386 315.184C98.7706 315.056 98.2626 314.992 97.6146 314.992H95.7066L96.1506 310.6H100.891V311.644H96.5946L97.2186 311.056L96.8706 314.524L96.2466 313.948H97.8666C98.7066 313.948 99.3826 314.056 99.8946 314.272C100.407 314.488 100.779 314.788 101.011 315.172C101.243 315.548 101.359 315.984 101.359 316.48C101.359 316.96 101.243 317.4 101.011 317.8C100.779 318.192 100.427 318.508 99.9546 318.748C99.4906 318.98 98.8986 319.096 98.1786 319.096ZM103.392 319L109.128 310.6H110.052L104.316 319H103.392ZM104.064 315.112C103.68 315.112 103.34 315.016 103.044 314.824C102.748 314.632 102.516 314.364 102.348 314.02C102.188 313.676 102.108 313.276 102.108 312.82C102.108 312.364 102.188 311.964 102.348 311.62C102.516 311.276 102.748 311.008 103.044 310.816C103.34 310.624 103.68 310.528 104.064 310.528C104.456 310.528 104.796 310.624 105.084 310.816C105.38 311.008 105.608 311.276 105.768 311.62C105.928 311.964 106.008 312.364 106.008 312.82C106.008 313.276 105.928 313.676 105.768 314.02C105.608 314.364 105.38 314.632 105.084 314.824C104.796 315.016 104.456 315.112 104.064 315.112ZM104.064 314.428C104.432 314.428 104.72 314.288 104.928 314.008C105.136 313.72 105.24 313.324 105.24 312.82C105.24 312.316 105.136 311.924 104.928 311.644C104.72 311.356 104.432 311.212 104.064 311.212C103.704 311.212 103.416 311.356 103.2 311.644C102.992 311.924 102.888 312.316 102.888 312.82C102.888 313.316 102.992 313.708 103.2 313.996C103.416 314.284 103.704 314.428 104.064 314.428ZM109.38 319.072C108.996 319.072 108.656 318.976 108.36 318.784C108.064 318.592 107.836 318.324 107.676 317.98C107.516 317.636 107.436 317.236 107.436 316.78C107.436 316.324 107.516 315.924 107.676 315.58C107.836 315.236 108.064 314.968 108.36 314.776C108.656 314.584 108.996 314.488 109.38 314.488C109.772 314.488 110.112 314.584 110.4 314.776C110.696 314.968 110.924 315.236 111.084 315.58C111.252 315.924 111.336 316.324 111.336 316.78C111.336 317.236 111.252 317.636 111.084 317.98C110.924 318.324 110.696 318.592 110.4 318.784C110.112 318.976 109.772 319.072 109.38 319.072ZM109.38 318.388C109.74 318.388 110.024 318.248 110.232 317.968C110.448 317.68 110.556 317.284 110.556 316.78C110.556 316.284 110.448 315.892 110.232 315.604C110.024 315.316 109.74 315.172 109.38 315.172C109.02 315.172 108.732 315.316 108.516 315.604C108.308 315.884 108.204 316.276 108.204 316.78C108.204 317.284 108.308 317.68 108.516 317.968C108.732 318.248 109.02 318.388 109.38 318.388Z" fill="#AA82FF"/>
<circle cx="120" cy="315" r="3.65" stroke="#EEEDFF" stroke-width="0.7"/>
<circle cx="120" cy="315" r="2" fill="#EEEDFF"/>
<path d="M1.5497 176V166.2H5.7917C6.66903 166.2 7.42503 166.345 8.0597 166.634C8.69436 166.914 9.18436 167.32 9.5297 167.852C9.87503 168.384 10.0477 169.019 10.0477 169.756C10.0477 170.484 9.87503 171.114 9.5297 171.646C9.18436 172.178 8.69436 172.589 8.0597 172.878C7.42503 173.158 6.66903 173.298 5.7917 173.298H2.8097L3.8177 172.276V176H1.5497ZM3.8177 172.528L2.8097 171.45H5.6657C6.3657 171.45 6.88836 171.301 7.2337 171.002C7.57903 170.703 7.7517 170.288 7.7517 169.756C7.7517 169.215 7.57903 168.795 7.2337 168.496C6.88836 168.197 6.3657 168.048 5.6657 168.048H2.8097L3.8177 166.97V172.528ZM14.8276 176.112C14.2023 176.112 13.6423 175.991 13.1476 175.748C12.6623 175.505 12.2843 175.137 12.0136 174.642C11.7429 174.138 11.6076 173.499 11.6076 172.724V168.468H13.7916V172.402C13.7916 173.027 13.9223 173.489 14.1836 173.788C14.4543 174.077 14.8323 174.222 15.3176 174.222C15.6536 174.222 15.9523 174.152 16.2136 174.012C16.4749 173.863 16.6803 173.639 16.8296 173.34C16.9789 173.032 17.0536 172.649 17.0536 172.192V168.468H19.2376V176H17.1656V173.928L17.5436 174.53C17.2916 175.053 16.9183 175.449 16.4236 175.72C15.9383 175.981 15.4063 176.112 14.8276 176.112ZM25.7129 176.112C25.0503 176.112 24.4809 175.972 24.0049 175.692C23.5289 175.412 23.1649 174.987 22.9129 174.418C22.6609 173.839 22.5349 173.111 22.5349 172.234C22.5349 171.347 22.6656 170.619 22.9269 170.05C23.1976 169.481 23.5709 169.056 24.0469 168.776C24.5229 168.496 25.0783 168.356 25.7129 168.356C26.4223 168.356 27.0569 168.515 27.6169 168.832C28.1863 169.149 28.6343 169.597 28.9609 170.176C29.2969 170.755 29.4649 171.441 29.4649 172.234C29.4649 173.018 29.2969 173.699 28.9609 174.278C28.6343 174.857 28.1863 175.309 27.6169 175.636C27.0569 175.953 26.4223 176.112 25.7129 176.112ZM21.2609 176V165.612H23.4449V169.994L23.3049 172.22L23.3469 174.46V176H21.2609ZM25.3349 174.32C25.6989 174.32 26.0209 174.236 26.3009 174.068C26.5903 173.9 26.8189 173.662 26.9869 173.354C27.1643 173.037 27.2529 172.663 27.2529 172.234C27.2529 171.795 27.1643 171.422 26.9869 171.114C26.8189 170.806 26.5903 170.568 26.3009 170.4C26.0209 170.232 25.6989 170.148 25.3349 170.148C24.9709 170.148 24.6443 170.232 24.3549 170.4C24.0656 170.568 23.8369 170.806 23.6689 171.114C23.5009 171.422 23.4169 171.795 23.4169 172.234C23.4169 172.663 23.5009 173.037 23.6689 173.354C23.8369 173.662 24.0656 173.9 24.3549 174.068C24.6443 174.236 24.9709 174.32 25.3349 174.32ZM30.9269 176V165.612H33.1109V176H30.9269ZM35.1379 176V168.468H37.3219V176H35.1379ZM36.2299 167.418C35.8285 167.418 35.5019 167.301 35.2499 167.068C34.9979 166.835 34.8719 166.545 34.8719 166.2C34.8719 165.855 34.9979 165.565 35.2499 165.332C35.5019 165.099 35.8285 164.982 36.2299 164.982C36.6312 164.982 36.9579 165.094 37.2099 165.318C37.4619 165.533 37.5879 165.813 37.5879 166.158C37.5879 166.522 37.4619 166.825 37.2099 167.068C36.9672 167.301 36.6405 167.418 36.2299 167.418ZM42.9888 176.112C42.1768 176.112 41.4535 175.949 40.8188 175.622C40.1842 175.286 39.6848 174.824 39.3208 174.236C38.9662 173.648 38.7888 172.981 38.7888 172.234C38.7888 171.478 38.9662 170.811 39.3208 170.232C39.6848 169.644 40.1842 169.187 40.8188 168.86C41.4535 168.524 42.1768 168.356 42.9888 168.356C43.7822 168.356 44.4728 168.524 45.0608 168.86C45.6488 169.187 46.0828 169.658 46.3628 170.274L44.6688 171.184C44.4728 170.829 44.2255 170.568 43.9268 170.4C43.6375 170.232 43.3202 170.148 42.9748 170.148C42.6015 170.148 42.2655 170.232 41.9668 170.4C41.6682 170.568 41.4302 170.806 41.2528 171.114C41.0848 171.422 41.0008 171.795 41.0008 172.234C41.0008 172.673 41.0848 173.046 41.2528 173.354C41.4302 173.662 41.6682 173.9 41.9668 174.068C42.2655 174.236 42.6015 174.32 42.9748 174.32C43.3202 174.32 43.6375 174.241 43.9268 174.082C44.2255 173.914 44.4728 173.648 44.6688 173.284L46.3628 174.208C46.0828 174.815 45.6488 175.286 45.0608 175.622C44.4728 175.949 43.7822 176.112 42.9888 176.112Z" fill="#EEEDFF"/>
<path d="M55.444 175V174.184L58.864 170.884C59.168 170.596 59.392 170.344 59.536 170.128C59.688 169.904 59.788 169.7 59.836 169.516C59.892 169.324 59.92 169.14 59.92 168.964C59.92 168.532 59.768 168.192 59.464 167.944C59.16 167.696 58.716 167.572 58.132 167.572C57.684 167.572 57.28 167.648 56.92 167.8C56.56 167.944 56.248 168.172 55.984 168.484L55.168 167.776C55.488 167.368 55.916 167.056 56.452 166.84C56.996 166.616 57.592 166.504 58.24 166.504C58.824 166.504 59.332 166.6 59.764 166.792C60.196 166.976 60.528 167.244 60.76 167.596C61 167.948 61.12 168.364 61.12 168.844C61.12 169.116 61.084 169.384 61.012 169.648C60.94 169.912 60.804 170.192 60.604 170.488C60.404 170.784 60.116 171.116 59.74 171.484L56.692 174.424L56.404 173.956H61.48V175H55.444ZM63.7358 175L69.4718 166.6H70.3958L64.6598 175H63.7358ZM64.4078 171.112C64.0238 171.112 63.6838 171.016 63.3878 170.824C63.0918 170.632 62.8598 170.364 62.6918 170.02C62.5318 169.676 62.4518 169.276 62.4518 168.82C62.4518 168.364 62.5318 167.964 62.6918 167.62C62.8598 167.276 63.0918 167.008 63.3878 166.816C63.6838 166.624 64.0238 166.528 64.4078 166.528C64.7998 166.528 65.1398 166.624 65.4278 166.816C65.7238 167.008 65.9518 167.276 66.1118 167.62C66.2718 167.964 66.3518 168.364 66.3518 168.82C66.3518 169.276 66.2718 169.676 66.1118 170.02C65.9518 170.364 65.7238 170.632 65.4278 170.824C65.1398 171.016 64.7998 171.112 64.4078 171.112ZM64.4078 170.428C64.7758 170.428 65.0638 170.288 65.2718 170.008C65.4798 169.72 65.5838 169.324 65.5838 168.82C65.5838 168.316 65.4798 167.924 65.2718 167.644C65.0638 167.356 64.7758 167.212 64.4078 167.212C64.0478 167.212 63.7598 167.356 63.5438 167.644C63.3358 167.924 63.2318 168.316 63.2318 168.82C63.2318 169.316 63.3358 169.708 63.5438 169.996C63.7598 170.284 64.0478 170.428 64.4078 170.428ZM69.7238 175.072C69.3398 175.072 68.9998 174.976 68.7038 174.784C68.4078 174.592 68.1798 174.324 68.0198 173.98C67.8598 173.636 67.7798 173.236 67.7798 172.78C67.7798 172.324 67.8598 171.924 68.0198 171.58C68.1798 171.236 68.4078 170.968 68.7038 170.776C68.9998 170.584 69.3398 170.488 69.7238 170.488C70.1158 170.488 70.4558 170.584 70.7438 170.776C71.0398 170.968 71.2678 171.236 71.4278 171.58C71.5958 171.924 71.6798 172.324 71.6798 172.78C71.6798 173.236 71.5958 173.636 71.4278 173.98C71.2678 174.324 71.0398 174.592 70.7438 174.784C70.4558 174.976 70.1158 175.072 69.7238 175.072ZM69.7238 174.388C70.0838 174.388 70.3678 174.248 70.5758 173.968C70.7918 173.68 70.8998 173.284 70.8998 172.78C70.8998 172.284 70.7918 171.892 70.5758 171.604C70.3678 171.316 70.0838 171.172 69.7238 171.172C69.3638 171.172 69.0758 171.316 68.8598 171.604C68.6518 171.884 68.5478 172.276 68.5478 172.78C68.5478 173.284 68.6518 173.68 68.8598 173.968C69.0758 174.248 69.3638 174.388 69.7238 174.388Z" fill="#AA82FF"/>
<circle cx="81" cy="171" r="3.65" stroke="#EEEDFF" stroke-width="0.7"/>
<circle cx="81" cy="171" r="2" fill="#EEEDFF"/>
<path d="M3.55723 146.76L3.43123 144.142L8.12123 139.2H10.6412L6.41323 143.75L5.15323 145.094L3.55723 146.76ZM1.52723 149V139.2H3.78123V149H1.52723ZM8.23323 149L4.74723 144.73L6.23123 143.12L10.8792 149H8.23323ZM16.295 149.168C15.5204 149.168 14.8017 149.042 14.139 148.79C13.4857 148.538 12.9164 148.183 12.431 147.726C11.955 147.269 11.5817 146.732 11.311 146.116C11.0497 145.5 10.919 144.828 10.919 144.1C10.919 143.372 11.0497 142.7 11.311 142.084C11.5817 141.468 11.9597 140.931 12.445 140.474C12.9304 140.017 13.4997 139.662 14.153 139.41C14.8064 139.158 15.5157 139.032 16.281 139.032C17.0557 139.032 17.765 139.158 18.409 139.41C19.0624 139.662 19.627 140.017 20.103 140.474C20.5884 140.931 20.9664 141.468 21.237 142.084C21.5077 142.691 21.643 143.363 21.643 144.1C21.643 144.828 21.5077 145.505 21.237 146.13C20.9664 146.746 20.5884 147.283 20.103 147.74C19.627 148.188 19.0624 148.538 18.409 148.79C17.765 149.042 17.0604 149.168 16.295 149.168ZM16.281 147.236C16.7197 147.236 17.121 147.161 17.485 147.012C17.8584 146.863 18.185 146.648 18.465 146.368C18.745 146.088 18.9597 145.757 19.109 145.374C19.2677 144.991 19.347 144.567 19.347 144.1C19.347 143.633 19.2677 143.209 19.109 142.826C18.9597 142.443 18.745 142.112 18.465 141.832C18.1944 141.552 17.8724 141.337 17.499 141.188C17.1257 141.039 16.7197 140.964 16.281 140.964C15.8424 140.964 15.4364 141.039 15.063 141.188C14.699 141.337 14.377 141.552 14.097 141.832C13.817 142.112 13.5977 142.443 13.439 142.826C13.2897 143.209 13.215 143.633 13.215 144.1C13.215 144.557 13.2897 144.982 13.439 145.374C13.5977 145.757 13.8124 146.088 14.083 146.368C14.363 146.648 14.6897 146.863 15.063 147.012C15.4364 147.161 15.8424 147.236 16.281 147.236ZM23.3475 149V139.2H25.6155V147.152H30.5295V149H23.3475Z" fill="#EEEDFF"/>
<path d="M40.992 148V140.08L41.508 140.644H39.096V139.6H42.18V148H40.992ZM44.8094 148.072C44.5854 148.072 44.3934 147.996 44.2334 147.844C44.0734 147.684 43.9934 147.484 43.9934 147.244C43.9934 147.004 44.0734 146.808 44.2334 146.656C44.3934 146.504 44.5854 146.428 44.8094 146.428C45.0254 146.428 45.2094 146.504 45.3614 146.656C45.5214 146.808 45.6014 147.004 45.6014 147.244C45.6014 147.484 45.5214 147.684 45.3614 147.844C45.2094 147.996 45.0254 148.072 44.8094 148.072ZM49.4482 148.096C48.8562 148.096 48.2802 148.004 47.7202 147.82C47.1682 147.636 46.7162 147.388 46.3642 147.076L46.9162 146.128C47.1962 146.392 47.5602 146.608 48.0082 146.776C48.4562 146.944 48.9322 147.028 49.4362 147.028C50.0762 147.028 50.5682 146.892 50.9122 146.62C51.2562 146.348 51.4282 145.984 51.4282 145.528C51.4282 145.216 51.3522 144.944 51.2002 144.712C51.0482 144.48 50.7842 144.304 50.4082 144.184C50.0402 144.056 49.5322 143.992 48.8842 143.992H46.9762L47.4202 139.6H52.1602V140.644H47.8642L48.4882 140.056L48.1402 143.524L47.5162 142.948H49.1362C49.9762 142.948 50.6522 143.056 51.1642 143.272C51.6762 143.488 52.0482 143.788 52.2802 144.172C52.5122 144.548 52.6282 144.984 52.6282 145.48C52.6282 145.96 52.5122 146.4 52.2802 146.8C52.0482 147.192 51.6962 147.508 51.2242 147.748C50.7602 147.98 50.1682 148.096 49.4482 148.096ZM54.6616 148L60.3976 139.6H61.3216L55.5856 148H54.6616ZM55.3336 144.112C54.9496 144.112 54.6096 144.016 54.3136 143.824C54.0176 143.632 53.7856 143.364 53.6176 143.02C53.4576 142.676 53.3776 142.276 53.3776 141.82C53.3776 141.364 53.4576 140.964 53.6176 140.62C53.7856 140.276 54.0176 140.008 54.3136 139.816C54.6096 139.624 54.9496 139.528 55.3336 139.528C55.7256 139.528 56.0656 139.624 56.3536 139.816C56.6496 140.008 56.8776 140.276 57.0376 140.62C57.1976 140.964 57.2776 141.364 57.2776 141.82C57.2776 142.276 57.1976 142.676 57.0376 143.02C56.8776 143.364 56.6496 143.632 56.3536 143.824C56.0656 144.016 55.7256 144.112 55.3336 144.112ZM55.3336 143.428C55.7016 143.428 55.9896 143.288 56.1976 143.008C56.4056 142.72 56.5096 142.324 56.5096 141.82C56.5096 141.316 56.4056 140.924 56.1976 140.644C55.9896 140.356 55.7016 140.212 55.3336 140.212C54.9736 140.212 54.6856 140.356 54.4696 140.644C54.2616 140.924 54.1576 141.316 54.1576 141.82C54.1576 142.316 54.2616 142.708 54.4696 142.996C54.6856 143.284 54.9736 143.428 55.3336 143.428ZM60.6496 148.072C60.2656 148.072 59.9256 147.976 59.6296 147.784C59.3336 147.592 59.1056 147.324 58.9456 146.98C58.7856 146.636 58.7056 146.236 58.7056 145.78C58.7056 145.324 58.7856 144.924 58.9456 144.58C59.1056 144.236 59.3336 143.968 59.6296 143.776C59.9256 143.584 60.2656 143.488 60.6496 143.488C61.0416 143.488 61.3816 143.584 61.6696 143.776C61.9656 143.968 62.1936 144.236 62.3536 144.58C62.5216 144.924 62.6056 145.324 62.6056 145.78C62.6056 146.236 62.5216 146.636 62.3536 146.98C62.1936 147.324 61.9656 147.592 61.6696 147.784C61.3816 147.976 61.0416 148.072 60.6496 148.072ZM60.6496 147.388C61.0096 147.388 61.2936 147.248 61.5016 146.968C61.7176 146.68 61.8256 146.284 61.8256 145.78C61.8256 145.284 61.7176 144.892 61.5016 144.604C61.2936 144.316 61.0096 144.172 60.6496 144.172C60.2896 144.172 60.0016 144.316 59.7856 144.604C59.5776 144.884 59.4736 145.276 59.4736 145.78C59.4736 146.284 59.5776 146.68 59.7856 146.968C60.0016 147.248 60.2896 147.388 60.6496 147.388Z" fill="#AA82FF"/>
<circle cx="72" cy="144" r="3.65" stroke="#EEEDFF" stroke-width="0.7"/>
<circle cx="72" cy="144" r="2" fill="#EEEDFF"/>
<path d="M1.28798 101V91.2H5.52998C6.40731 91.2 7.16331 91.3447 7.79798 91.634C8.43264 91.914 8.92264 92.32 9.26798 92.852C9.61331 93.384 9.78598 94.0187 9.78598 94.756C9.78598 95.484 9.61331 96.114 9.26798 96.646C8.92264 97.178 8.43264 97.5887 7.79798 97.878C7.16331 98.158 6.40731 98.298 5.52998 98.298H2.54798L3.55598 97.276V101H1.28798ZM3.55598 97.528L2.54798 96.45H5.40398C6.10398 96.45 6.62664 96.3007 6.97198 96.002C7.31731 95.7033 7.48998 95.288 7.48998 94.756C7.48998 94.2147 7.31731 93.7947 6.97198 93.496C6.62664 93.1973 6.10398 93.048 5.40398 93.048H2.54798L3.55598 91.97V97.528ZM11.2375 101V93.468H13.3235V95.596L13.0295 94.98C13.2535 94.448 13.6128 94.0467 14.1075 93.776C14.6022 93.496 15.2042 93.356 15.9135 93.356V95.372C15.8202 95.3627 15.7362 95.358 15.6615 95.358C15.5868 95.3487 15.5075 95.344 15.4235 95.344C14.8262 95.344 14.3408 95.5167 13.9675 95.862C13.6035 96.198 13.4215 96.7253 13.4215 97.444V101H11.2375ZM17.2258 101V93.468H19.4098V101H17.2258ZM18.3178 92.418C17.9164 92.418 17.5898 92.3013 17.3378 92.068C17.0858 91.8347 16.9598 91.5453 16.9598 91.2C16.9598 90.8547 17.0858 90.5653 17.3378 90.332C17.5898 90.0987 17.9164 89.982 18.3178 89.982C18.7191 89.982 19.0458 90.094 19.2978 90.318C19.5498 90.5327 19.6758 90.8127 19.6758 91.158C19.6758 91.522 19.5498 91.8253 19.2978 92.068C19.0551 92.3013 18.7284 92.418 18.3178 92.418ZM23.4807 101L20.3167 93.468H22.5707L25.2027 99.95H24.0827L26.8127 93.468H28.9127L25.7347 101H23.4807ZM34.1778 101V99.53L34.0378 99.208V96.576C34.0378 96.1093 33.8931 95.7453 33.6038 95.484C33.3238 95.2227 32.8898 95.092 32.3018 95.092C31.9005 95.092 31.5038 95.1573 31.1118 95.288C30.7291 95.4093 30.4025 95.5773 30.1318 95.792L29.3478 94.266C29.7585 93.9767 30.2531 93.7527 30.8318 93.594C31.4105 93.4353 31.9985 93.356 32.5958 93.356C33.7438 93.356 34.6351 93.6267 35.2698 94.168C35.9045 94.7093 36.2218 95.554 36.2218 96.702V101H34.1778ZM31.8818 101.112C31.2938 101.112 30.7898 101.014 30.3698 100.818C29.9498 100.613 29.6278 100.337 29.4038 99.992C29.1798 99.6467 29.0678 99.2593 29.0678 98.83C29.0678 98.382 29.1751 97.99 29.3898 97.654C29.6138 97.318 29.9638 97.0567 30.4398 96.87C30.9158 96.674 31.5365 96.576 32.3018 96.576H34.3038V97.85H32.5398C32.0265 97.85 31.6718 97.934 31.4758 98.102C31.2891 98.27 31.1958 98.48 31.1958 98.732C31.1958 99.012 31.3031 99.236 31.5178 99.404C31.7418 99.5627 32.0451 99.642 32.4278 99.642C32.7918 99.642 33.1185 99.558 33.4078 99.39C33.6971 99.2127 33.9071 98.956 34.0378 98.62L34.3738 99.628C34.2151 100.113 33.9258 100.482 33.5058 100.734C33.0858 100.986 32.5445 101.112 31.8818 101.112ZM41.2784 101.112C40.3918 101.112 39.7011 100.888 39.2064 100.44C38.7118 99.9827 38.4644 99.306 38.4644 98.41V91.802H40.6484V98.382C40.6484 98.6993 40.7324 98.9467 40.9004 99.124C41.0684 99.292 41.2971 99.376 41.5864 99.376C41.9318 99.376 42.2258 99.2827 42.4684 99.096L43.0564 100.636C42.8324 100.795 42.5618 100.916 42.2444 101C41.9364 101.075 41.6144 101.112 41.2784 101.112ZM37.3024 95.316V93.636H42.5244V95.316H37.3024ZM47.788 101.112C46.9293 101.112 46.1733 100.944 45.52 100.608C44.876 100.272 44.3767 99.8147 44.022 99.236C43.6673 98.648 43.49 97.9807 43.49 97.234C43.49 96.478 43.6627 95.8107 44.008 95.232C44.3627 94.644 44.8433 94.1867 45.45 93.86C46.0567 93.524 46.7427 93.356 47.508 93.356C48.2453 93.356 48.908 93.5147 49.496 93.832C50.0933 94.14 50.5647 94.588 50.91 95.176C51.2553 95.7547 51.428 96.45 51.428 97.262C51.428 97.346 51.4233 97.444 51.414 97.556C51.4047 97.6587 51.3953 97.7567 51.386 97.85H45.268V96.576H50.238L49.398 96.954C49.398 96.562 49.3187 96.2213 49.16 95.932C49.0013 95.6427 48.782 95.4187 48.502 95.26C48.222 95.092 47.8953 95.008 47.522 95.008C47.1487 95.008 46.8173 95.092 46.528 95.26C46.248 95.4187 46.0287 95.6473 45.87 95.946C45.7113 96.2353 45.632 96.5807 45.632 96.982V97.318C45.632 97.7287 45.7207 98.0927 45.898 98.41C46.0847 98.718 46.3413 98.956 46.668 99.124C47.004 99.2827 47.396 99.362 47.844 99.362C48.2453 99.362 48.5953 99.3013 48.894 99.18C49.202 99.0587 49.482 98.8767 49.734 98.634L50.896 99.894C50.5507 100.286 50.1167 100.589 49.594 100.804C49.0713 101.009 48.4693 101.112 47.788 101.112Z" fill="#EEEDFF"/>
<path d="M63.852 100.096C63.172 100.096 62.584 99.996 62.088 99.796C61.592 99.596 61.208 99.312 60.936 98.944C60.664 98.568 60.528 98.128 60.528 97.624C60.528 97.128 60.656 96.708 60.912 96.364C61.176 96.012 61.556 95.748 62.052 95.572C62.548 95.388 63.148 95.296 63.852 95.296C64.556 95.296 65.156 95.388 65.652 95.572C66.156 95.748 66.54 96.012 66.804 96.364C67.068 96.716 67.2 97.136 67.2 97.624C67.2 98.128 67.064 98.568 66.792 98.944C66.52 99.312 66.132 99.596 65.628 99.796C65.124 99.996 64.532 100.096 63.852 100.096ZM63.852 99.124C64.524 99.124 65.048 98.988 65.424 98.716C65.808 98.436 66 98.06 66 97.588C66 97.124 65.808 96.76 65.424 96.496C65.048 96.224 64.524 96.088 63.852 96.088C63.188 96.088 62.668 96.224 62.292 96.496C61.916 96.76 61.728 97.124 61.728 97.588C61.728 98.06 61.916 98.436 62.292 98.716C62.668 98.988 63.188 99.124 63.852 99.124ZM63.852 95.944C63.212 95.944 62.668 95.86 62.22 95.692C61.772 95.516 61.428 95.268 61.188 94.948C60.948 94.62 60.828 94.232 60.828 93.784C60.828 93.312 60.952 92.908 61.2 92.572C61.456 92.228 61.812 91.964 62.268 91.78C62.724 91.596 63.252 91.504 63.852 91.504C64.46 91.504 64.992 91.596 65.448 91.78C65.904 91.964 66.26 92.228 66.516 92.572C66.772 92.908 66.9 93.312 66.9 93.784C66.9 94.232 66.78 94.62 66.54 94.948C66.3 95.268 65.952 95.516 65.496 95.692C65.04 95.86 64.492 95.944 63.852 95.944ZM63.852 95.176C64.436 95.176 64.892 95.056 65.22 94.816C65.556 94.576 65.724 94.248 65.724 93.832C65.724 93.408 65.552 93.076 65.208 92.836C64.864 92.596 64.412 92.476 63.852 92.476C63.292 92.476 62.844 92.596 62.508 92.836C62.18 93.076 62.016 93.408 62.016 93.832C62.016 94.248 62.176 94.576 62.496 94.816C62.824 95.056 63.276 95.176 63.852 95.176ZM69.2078 100.072C68.9838 100.072 68.7918 99.996 68.6318 99.844C68.4718 99.684 68.3918 99.484 68.3918 99.244C68.3918 99.004 68.4718 98.808 68.6318 98.656C68.7918 98.504 68.9838 98.428 69.2078 98.428C69.4238 98.428 69.6078 98.504 69.7598 98.656C69.9198 98.808 69.9998 99.004 69.9998 99.244C69.9998 99.484 69.9198 99.684 69.7598 99.844C69.6078 99.996 69.4238 100.072 69.2078 100.072ZM73.8466 100.096C73.2546 100.096 72.6786 100.004 72.1186 99.82C71.5666 99.636 71.1146 99.388 70.7626 99.076L71.3146 98.128C71.5946 98.392 71.9586 98.608 72.4066 98.776C72.8546 98.944 73.3306 99.028 73.8346 99.028C74.4746 99.028 74.9666 98.892 75.3106 98.62C75.6546 98.348 75.8266 97.984 75.8266 97.528C75.8266 97.216 75.7506 96.944 75.5986 96.712C75.4466 96.48 75.1826 96.304 74.8066 96.184C74.4386 96.056 73.9306 95.992 73.2826 95.992H71.3746L71.8186 91.6H76.5586V92.644H72.2626L72.8866 92.056L72.5386 95.524L71.9146 94.948H73.5346C74.3746 94.948 75.0506 95.056 75.5626 95.272C76.0746 95.488 76.4466 95.788 76.6786 96.172C76.9106 96.548 77.0266 96.984 77.0266 97.48C77.0266 97.96 76.9106 98.4 76.6786 98.8C76.4466 99.192 76.0946 99.508 75.6226 99.748C75.1586 99.98 74.5666 100.096 73.8466 100.096ZM79.06 100L84.796 91.6H85.72L79.984 100H79.06ZM79.732 96.112C79.348 96.112 79.008 96.016 78.712 95.824C78.416 95.632 78.184 95.364 78.016 95.02C77.856 94.676 77.776 94.276 77.776 93.82C77.776 93.364 77.856 92.964 78.016 92.62C78.184 92.276 78.416 92.008 78.712 91.816C79.008 91.624 79.348 91.528 79.732 91.528C80.124 91.528 80.464 91.624 80.752 91.816C81.048 92.008 81.276 92.276 81.436 92.62C81.596 92.964 81.676 93.364 81.676 93.82C81.676 94.276 81.596 94.676 81.436 95.02C81.276 95.364 81.048 95.632 80.752 95.824C80.464 96.016 80.124 96.112 79.732 96.112ZM79.732 95.428C80.1 95.428 80.388 95.288 80.596 95.008C80.804 94.72 80.908 94.324 80.908 93.82C80.908 93.316 80.804 92.924 80.596 92.644C80.388 92.356 80.1 92.212 79.732 92.212C79.372 92.212 79.084 92.356 78.868 92.644C78.66 92.924 78.556 93.316 78.556 93.82C78.556 94.316 78.66 94.708 78.868 94.996C79.084 95.284 79.372 95.428 79.732 95.428ZM85.048 100.072C84.664 100.072 84.324 99.976 84.028 99.784C83.732 99.592 83.504 99.324 83.344 98.98C83.184 98.636 83.104 98.236 83.104 97.78C83.104 97.324 83.184 96.924 83.344 96.58C83.504 96.236 83.732 95.968 84.028 95.776C84.324 95.584 84.664 95.488 85.048 95.488C85.44 95.488 85.78 95.584 86.068 95.776C86.364 95.968 86.592 96.236 86.752 96.58C86.92 96.924 87.004 97.324 87.004 97.78C87.004 98.236 86.92 98.636 86.752 98.98C86.592 99.324 86.364 99.592 86.068 99.784C85.78 99.976 85.44 100.072 85.048 100.072ZM85.048 99.388C85.408 99.388 85.692 99.248 85.9 98.968C86.116 98.68 86.224 98.284 86.224 97.78C86.224 97.284 86.116 96.892 85.9 96.604C85.692 96.316 85.408 96.172 85.048 96.172C84.688 96.172 84.4 96.316 84.184 96.604C83.976 96.884 83.872 97.276 83.872 97.78C83.872 98.284 83.976 98.68 84.184 98.968C84.4 99.248 84.688 99.388 85.048 99.388Z" fill="#AA82FF"/>
<circle cx="96" cy="96" r="3.65" stroke="#EEEDFF" stroke-width="0.7"/>
<circle cx="96" cy="96" r="2" fill="#EEEDFF"/>
<path d="M1.47841 53V43.2H3.74641V51.152H8.66041V53H1.47841ZM9.77363 53V45.468H11.9576V53H9.77363ZM10.8656 44.418C10.4643 44.418 10.1376 44.3013 9.88563 44.068C9.63363 43.8347 9.50763 43.5453 9.50763 43.2C9.50763 42.8547 9.63363 42.5653 9.88563 42.332C10.1376 42.0987 10.4643 41.982 10.8656 41.982C11.267 41.982 11.5936 42.094 11.8456 42.318C12.0976 42.5327 12.2236 42.8127 12.2236 43.158C12.2236 43.522 12.0976 43.8253 11.8456 44.068C11.603 44.3013 11.2763 44.418 10.8656 44.418ZM17.1906 53.112C16.4812 53.112 15.8419 52.9533 15.2726 52.636C14.7032 52.3187 14.2506 51.8707 13.9146 51.292C13.5879 50.7133 13.4246 50.0273 13.4246 49.234C13.4246 48.45 13.5879 47.7687 13.9146 47.19C14.2506 46.6113 14.7032 46.1633 15.2726 45.846C15.8419 45.5193 16.4812 45.356 17.1906 45.356C17.8532 45.356 18.4179 45.496 18.8846 45.776C19.3606 46.056 19.7246 46.4807 19.9766 47.05C20.2286 47.6193 20.3546 48.3473 20.3546 49.234C20.3546 50.1113 20.2239 50.8393 19.9626 51.418C19.7012 51.9873 19.3326 52.412 18.8566 52.692C18.3806 52.972 17.8252 53.112 17.1906 53.112ZM17.5686 51.32C17.9232 51.32 18.2452 51.236 18.5346 51.068C18.8239 50.9 19.0526 50.662 19.2206 50.354C19.3979 50.0367 19.4866 49.6633 19.4866 49.234C19.4866 48.7953 19.3979 48.422 19.2206 48.114C19.0526 47.806 18.8239 47.568 18.5346 47.4C18.2452 47.232 17.9232 47.148 17.5686 47.148C17.2046 47.148 16.8779 47.232 16.5886 47.4C16.2992 47.568 16.0659 47.806 15.8886 48.114C15.7206 48.422 15.6366 48.7953 15.6366 49.234C15.6366 49.6633 15.7206 50.0367 15.8886 50.354C16.0659 50.662 16.2992 50.9 16.5886 51.068C16.8779 51.236 17.2046 51.32 17.5686 51.32ZM19.4446 55.716V51.474L19.5846 49.248L19.5426 47.008V45.468H21.6286V55.716H19.4446ZM26.8286 53.112C26.2032 53.112 25.6432 52.9907 25.1486 52.748C24.6632 52.5053 24.2852 52.1367 24.0146 51.642C23.7439 51.138 23.6086 50.4987 23.6086 49.724V45.468H25.7926V49.402C25.7926 50.0273 25.9232 50.4893 26.1846 50.788C26.4552 51.0773 26.8332 51.222 27.3186 51.222C27.6546 51.222 27.9532 51.152 28.2146 51.012C28.4759 50.8627 28.6812 50.6387 28.8306 50.34C28.9799 50.032 29.0546 49.6493 29.0546 49.192V45.468H31.2386V53H29.1666V50.928L29.5446 51.53C29.2926 52.0527 28.9192 52.4493 28.4246 52.72C27.9392 52.9813 27.4072 53.112 26.8286 53.112ZM33.2619 53V45.468H35.4459V53H33.2619ZM34.3539 44.418C33.9526 44.418 33.6259 44.3013 33.3739 44.068C33.1219 43.8347 32.9959 43.5453 32.9959 43.2C32.9959 42.8547 33.1219 42.5653 33.3739 42.332C33.6259 42.0987 33.9526 41.982 34.3539 41.982C34.7552 41.982 35.0819 42.094 35.3339 42.318C35.5859 42.5327 35.7119 42.8127 35.7119 43.158C35.7119 43.522 35.5859 43.8253 35.3339 44.068C35.0912 44.3013 34.7646 44.418 34.3539 44.418ZM40.7068 53.112C39.9975 53.112 39.3582 52.9533 38.7888 52.636C38.2195 52.3093 37.7668 51.8567 37.4308 51.278C37.1042 50.6993 36.9408 50.018 36.9408 49.234C36.9408 48.4407 37.1042 47.7547 37.4308 47.176C37.7668 46.5973 38.2195 46.1493 38.7888 45.832C39.3582 45.5147 39.9975 45.356 40.7068 45.356C41.3415 45.356 41.8968 45.496 42.3728 45.776C42.8488 46.056 43.2175 46.4807 43.4788 47.05C43.7402 47.6193 43.8708 48.3473 43.8708 49.234C43.8708 50.1113 43.7448 50.8393 43.4928 51.418C43.2408 51.9873 42.8768 52.412 42.4008 52.692C41.9342 52.972 41.3695 53.112 40.7068 53.112ZM41.0848 51.32C41.4395 51.32 41.7615 51.236 42.0508 51.068C42.3402 50.9 42.5688 50.662 42.7368 50.354C42.9142 50.0367 43.0028 49.6633 43.0028 49.234C43.0028 48.7953 42.9142 48.422 42.7368 48.114C42.5688 47.806 42.3402 47.568 42.0508 47.4C41.7615 47.232 41.4395 47.148 41.0848 47.148C40.7208 47.148 40.3942 47.232 40.1048 47.4C39.8155 47.568 39.5822 47.806 39.4048 48.114C39.2368 48.422 39.1528 48.7953 39.1528 49.234C39.1528 49.6633 39.2368 50.0367 39.4048 50.354C39.5822 50.662 39.8155 50.9 40.1048 51.068C40.3942 51.236 40.7208 51.32 41.0848 51.32ZM43.0588 53V51.46L43.1008 49.22L42.9608 46.994V42.612H45.1448V53H43.0588ZM47.1662 53V45.468H49.3502V53H47.1662ZM48.2582 44.418C47.8569 44.418 47.5302 44.3013 47.2782 44.068C47.0262 43.8347 46.9002 43.5453 46.9002 43.2C46.9002 42.8547 47.0262 42.5653 47.2782 42.332C47.5302 42.0987 47.8569 41.982 48.2582 41.982C48.6595 41.982 48.9862 42.094 49.2382 42.318C49.4902 42.5327 49.6162 42.8127 49.6162 43.158C49.6162 43.522 49.4902 43.8253 49.2382 44.068C48.9955 44.3013 48.6689 44.418 48.2582 44.418ZM54.4571 53.112C53.5705 53.112 52.8798 52.888 52.3851 52.44C51.8905 51.9827 51.6431 51.306 51.6431 50.41V43.802H53.8271V50.382C53.8271 50.6993 53.9111 50.9467 54.0791 51.124C54.2471 51.292 54.4758 51.376 54.7651 51.376C55.1105 51.376 55.4045 51.2827 55.6471 51.096L56.2351 52.636C56.0111 52.7947 55.7405 52.916 55.4231 53C55.1151 53.0747 54.7931 53.112 54.4571 53.112ZM50.4811 47.316V45.636H55.7031V47.316H50.4811ZM58.2764 55.828C57.8844 55.828 57.4971 55.7673 57.1144 55.646C56.7317 55.5247 56.4191 55.3567 56.1764 55.142L56.9744 53.588C57.1424 53.7373 57.3337 53.854 57.5484 53.938C57.7724 54.022 57.9917 54.064 58.2064 54.064C58.5144 54.064 58.7571 53.9893 58.9344 53.84C59.1211 53.7 59.2891 53.462 59.4384 53.126L59.8304 52.202L59.9984 51.964L62.7004 45.468H64.8004L61.3984 53.462C61.1557 54.0687 60.8757 54.5447 60.5584 54.89C60.2504 55.2353 59.9051 55.478 59.5224 55.618C59.1491 55.758 58.7337 55.828 58.2764 55.828ZM59.5644 53.294L56.2044 45.468H58.4584L61.0624 51.768L59.5644 53.294Z" fill="#EEEDFF"/>
<path d="M76.852 52.096C76.172 52.096 75.584 51.996 75.088 51.796C74.592 51.596 74.208 51.312 73.936 50.944C73.664 50.568 73.528 50.128 73.528 49.624C73.528 49.128 73.656 48.708 73.912 48.364C74.176 48.012 74.556 47.748 75.052 47.572C75.548 47.388 76.148 47.296 76.852 47.296C77.556 47.296 78.156 47.388 78.652 47.572C79.156 47.748 79.54 48.012 79.804 48.364C80.068 48.716 80.2 49.136 80.2 49.624C80.2 50.128 80.064 50.568 79.792 50.944C79.52 51.312 79.132 51.596 78.628 51.796C78.124 51.996 77.532 52.096 76.852 52.096ZM76.852 51.124C77.524 51.124 78.048 50.988 78.424 50.716C78.808 50.436 79 50.06 79 49.588C79 49.124 78.808 48.76 78.424 48.496C78.048 48.224 77.524 48.088 76.852 48.088C76.188 48.088 75.668 48.224 75.292 48.496C74.916 48.76 74.728 49.124 74.728 49.588C74.728 50.06 74.916 50.436 75.292 50.716C75.668 50.988 76.188 51.124 76.852 51.124ZM76.852 47.944C76.212 47.944 75.668 47.86 75.22 47.692C74.772 47.516 74.428 47.268 74.188 46.948C73.948 46.62 73.828 46.232 73.828 45.784C73.828 45.312 73.952 44.908 74.2 44.572C74.456 44.228 74.812 43.964 75.268 43.78C75.724 43.596 76.252 43.504 76.852 43.504C77.46 43.504 77.992 43.596 78.448 43.78C78.904 43.964 79.26 44.228 79.516 44.572C79.772 44.908 79.9 45.312 79.9 45.784C79.9 46.232 79.78 46.62 79.54 46.948C79.3 47.268 78.952 47.516 78.496 47.692C78.04 47.86 77.492 47.944 76.852 47.944ZM76.852 47.176C77.436 47.176 77.892 47.056 78.22 46.816C78.556 46.576 78.724 46.248 78.724 45.832C78.724 45.408 78.552 45.076 78.208 44.836C77.864 44.596 77.412 44.476 76.852 44.476C76.292 44.476 75.844 44.596 75.508 44.836C75.18 45.076 75.016 45.408 75.016 45.832C75.016 46.248 75.176 46.576 75.496 46.816C75.824 47.056 76.276 47.176 76.852 47.176ZM82.3335 52L88.0695 43.6H88.9935L83.2575 52H82.3335ZM83.0055 48.112C82.6215 48.112 82.2815 48.016 81.9855 47.824C81.6895 47.632 81.4575 47.364 81.2895 47.02C81.1295 46.676 81.0495 46.276 81.0495 45.82C81.0495 45.364 81.1295 44.964 81.2895 44.62C81.4575 44.276 81.6895 44.008 81.9855 43.816C82.2815 43.624 82.6215 43.528 83.0055 43.528C83.3975 43.528 83.7375 43.624 84.0255 43.816C84.3215 44.008 84.5495 44.276 84.7095 44.62C84.8695 44.964 84.9495 45.364 84.9495 45.82C84.9495 46.276 84.8695 46.676 84.7095 47.02C84.5495 47.364 84.3215 47.632 84.0255 47.824C83.7375 48.016 83.3975 48.112 83.0055 48.112ZM83.0055 47.428C83.3735 47.428 83.6615 47.288 83.8695 47.008C84.0775 46.72 84.1815 46.324 84.1815 45.82C84.1815 45.316 84.0775 44.924 83.8695 44.644C83.6615 44.356 83.3735 44.212 83.0055 44.212C82.6455 44.212 82.3575 44.356 82.1415 44.644C81.9335 44.924 81.8295 45.316 81.8295 45.82C81.8295 46.316 81.9335 46.708 82.1415 46.996C82.3575 47.284 82.6455 47.428 83.0055 47.428ZM88.3215 52.072C87.9375 52.072 87.5975 51.976 87.3015 51.784C87.0055 51.592 86.7775 51.324 86.6175 50.98C86.4575 50.636 86.3775 50.236 86.3775 49.78C86.3775 49.324 86.4575 48.924 86.6175 48.58C86.7775 48.236 87.0055 47.968 87.3015 47.776C87.5975 47.584 87.9375 47.488 88.3215 47.488C88.7135 47.488 89.0535 47.584 89.3415 47.776C89.6375 47.968 89.8655 48.236 90.0255 48.58C90.1935 48.924 90.2775 49.324 90.2775 49.78C90.2775 50.236 90.1935 50.636 90.0255 50.98C89.8655 51.324 89.6375 51.592 89.3415 51.784C89.0535 51.976 88.7135 52.072 88.3215 52.072ZM88.3215 51.388C88.6815 51.388 88.9655 51.248 89.1735 50.968C89.3895 50.68 89.4975 50.284 89.4975 49.78C89.4975 49.284 89.3895 48.892 89.1735 48.604C88.9655 48.316 88.6815 48.172 88.3215 48.172C87.9615 48.172 87.6735 48.316 87.4575 48.604C87.2495 48.884 87.1455 49.276 87.1455 49.78C87.1455 50.284 87.2495 50.68 87.4575 50.968C87.6735 51.248 87.9615 51.388 88.3215 51.388Z" fill="#AA82FF"/>
<circle cx="99" cy="48" r="3.65" stroke="#EEEDFF" stroke-width="0.7"/>
<circle cx="99" cy="48" r="2" fill="#EEEDFF"/>
<path d="M465.874 320L470.242 310.2H472.482L476.864 320H474.484L470.9 311.348H471.796L468.198 320H465.874ZM468.058 317.9L468.66 316.178H473.7L474.316 317.9H468.058ZM480.892 320.112C480.183 320.112 479.544 319.953 478.974 319.636C478.405 319.309 477.952 318.857 477.616 318.278C477.29 317.699 477.126 317.018 477.126 316.234C477.126 315.441 477.29 314.755 477.616 314.176C477.952 313.597 478.405 313.149 478.974 312.832C479.544 312.515 480.183 312.356 480.892 312.356C481.527 312.356 482.082 312.496 482.558 312.776C483.034 313.056 483.403 313.481 483.664 314.05C483.926 314.619 484.056 315.347 484.056 316.234C484.056 317.111 483.93 317.839 483.678 318.418C483.426 318.987 483.062 319.412 482.586 319.692C482.12 319.972 481.555 320.112 480.892 320.112ZM481.27 318.32C481.625 318.32 481.947 318.236 482.236 318.068C482.526 317.9 482.754 317.662 482.922 317.354C483.1 317.037 483.188 316.663 483.188 316.234C483.188 315.795 483.1 315.422 482.922 315.114C482.754 314.806 482.526 314.568 482.236 314.4C481.947 314.232 481.625 314.148 481.27 314.148C480.906 314.148 480.58 314.232 480.29 314.4C480.001 314.568 479.768 314.806 479.59 315.114C479.422 315.422 479.338 315.795 479.338 316.234C479.338 316.663 479.422 317.037 479.59 317.354C479.768 317.662 480.001 317.9 480.29 318.068C480.58 318.236 480.906 318.32 481.27 318.32ZM483.244 320V318.46L483.286 316.22L483.146 313.994V309.612H485.33V320H483.244ZM489.396 320L486.232 312.468H488.486L491.118 318.95H489.998L492.728 312.468H494.828L491.65 320H489.396ZM495.719 320V312.468H497.903V320H495.719ZM496.811 311.418C496.41 311.418 496.083 311.301 495.831 311.068C495.579 310.835 495.453 310.545 495.453 310.2C495.453 309.855 495.579 309.565 495.831 309.332C496.083 309.099 496.41 308.982 496.811 308.982C497.212 308.982 497.539 309.094 497.791 309.318C498.043 309.533 498.169 309.813 498.169 310.158C498.169 310.522 498.043 310.825 497.791 311.068C497.548 311.301 497.222 311.418 496.811 311.418ZM502.464 320.112C501.82 320.112 501.199 320.037 500.602 319.888C500.014 319.729 499.547 319.533 499.202 319.3L499.93 317.732C500.275 317.947 500.681 318.124 501.148 318.264C501.624 318.395 502.091 318.46 502.548 318.46C503.052 318.46 503.407 318.399 503.612 318.278C503.827 318.157 503.934 317.989 503.934 317.774C503.934 317.597 503.85 317.466 503.682 317.382C503.523 317.289 503.309 317.219 503.038 317.172C502.767 317.125 502.469 317.079 502.142 317.032C501.825 316.985 501.503 316.925 501.176 316.85C500.849 316.766 500.551 316.645 500.28 316.486C500.009 316.327 499.79 316.113 499.622 315.842C499.463 315.571 499.384 315.221 499.384 314.792C499.384 314.316 499.519 313.896 499.79 313.532C500.07 313.168 500.471 312.883 500.994 312.678C501.517 312.463 502.142 312.356 502.87 312.356C503.383 312.356 503.906 312.412 504.438 312.524C504.97 312.636 505.413 312.799 505.768 313.014L505.04 314.568C504.676 314.353 504.307 314.209 503.934 314.134C503.57 314.05 503.215 314.008 502.87 314.008C502.385 314.008 502.03 314.073 501.806 314.204C501.582 314.335 501.47 314.503 501.47 314.708C501.47 314.895 501.549 315.035 501.708 315.128C501.876 315.221 502.095 315.296 502.366 315.352C502.637 315.408 502.931 315.459 503.248 315.506C503.575 315.543 503.901 315.604 504.228 315.688C504.555 315.772 504.849 315.893 505.11 316.052C505.381 316.201 505.6 316.411 505.768 316.682C505.936 316.943 506.02 317.289 506.02 317.718C506.02 318.185 505.88 318.6 505.6 318.964C505.32 319.319 504.914 319.599 504.382 319.804C503.859 320.009 503.22 320.112 502.464 320.112ZM510.951 320.112C510.149 320.112 509.435 319.944 508.809 319.608C508.193 319.272 507.703 318.815 507.339 318.236C506.985 317.648 506.807 316.981 506.807 316.234C506.807 315.478 506.985 314.811 507.339 314.232C507.703 313.644 508.193 313.187 508.809 312.86C509.435 312.524 510.149 312.356 510.951 312.356C511.745 312.356 512.454 312.524 513.079 312.86C513.705 313.187 514.195 313.639 514.549 314.218C514.904 314.797 515.081 315.469 515.081 316.234C515.081 316.981 514.904 317.648 514.549 318.236C514.195 318.815 513.705 319.272 513.079 319.608C512.454 319.944 511.745 320.112 510.951 320.112ZM510.951 318.32C511.315 318.32 511.642 318.236 511.931 318.068C512.221 317.9 512.449 317.662 512.617 317.354C512.785 317.037 512.869 316.663 512.869 316.234C512.869 315.795 512.785 315.422 512.617 315.114C512.449 314.806 512.221 314.568 511.931 314.4C511.642 314.232 511.315 314.148 510.951 314.148C510.587 314.148 510.261 314.232 509.971 314.4C509.682 314.568 509.449 314.806 509.271 315.114C509.103 315.422 509.019 315.795 509.019 316.234C509.019 316.663 509.103 317.037 509.271 317.354C509.449 317.662 509.682 317.9 509.971 318.068C510.261 318.236 510.587 318.32 510.951 318.32ZM516.541 320V312.468H518.627V314.596L518.333 313.98C518.557 313.448 518.917 313.047 519.411 312.776C519.906 312.496 520.508 312.356 521.217 312.356V314.372C521.124 314.363 521.04 314.358 520.965 314.358C520.891 314.349 520.811 314.344 520.727 314.344C520.13 314.344 519.645 314.517 519.271 314.862C518.907 315.198 518.725 315.725 518.725 316.444V320H516.541ZM525.105 320.112C524.461 320.112 523.84 320.037 523.243 319.888C522.655 319.729 522.188 319.533 521.843 319.3L522.571 317.732C522.916 317.947 523.322 318.124 523.789 318.264C524.265 318.395 524.731 318.46 525.189 318.46C525.693 318.46 526.047 318.399 526.253 318.278C526.467 318.157 526.575 317.989 526.575 317.774C526.575 317.597 526.491 317.466 526.323 317.382C526.164 317.289 525.949 317.219 525.678 317.172C525.408 317.125 525.109 317.079 524.783 317.032C524.465 316.985 524.143 316.925 523.817 316.85C523.49 316.766 523.191 316.645 522.921 316.486C522.65 316.327 522.431 316.113 522.263 315.842C522.104 315.571 522.024 315.221 522.024 314.792C522.024 314.316 522.16 313.896 522.431 313.532C522.711 313.168 523.112 312.883 523.635 312.678C524.157 312.463 524.783 312.356 525.511 312.356C526.024 312.356 526.547 312.412 527.079 312.524C527.611 312.636 528.054 312.799 528.409 313.014L527.681 314.568C527.317 314.353 526.948 314.209 526.575 314.134C526.211 314.05 525.856 314.008 525.511 314.008C525.025 314.008 524.671 314.073 524.447 314.204C524.223 314.335 524.111 314.503 524.111 314.708C524.111 314.895 524.19 315.035 524.349 315.128C524.517 315.221 524.736 315.296 525.007 315.352C525.277 315.408 525.571 315.459 525.889 315.506C526.215 315.543 526.542 315.604 526.869 315.688C527.195 315.772 527.489 315.893 527.751 316.052C528.021 316.201 528.241 316.411 528.409 316.682C528.577 316.943 528.661 317.289 528.661 317.718C528.661 318.185 528.521 318.6 528.241 318.964C527.961 319.319 527.555 319.599 527.023 319.804C526.5 320.009 525.861 320.112 525.105 320.112Z" fill="#EEEDFF"/>
<path d="M540.288 319.096C539.696 319.096 539.12 319.004 538.56 318.82C538.008 318.636 537.556 318.388 537.204 318.076L537.756 317.128C538.036 317.392 538.4 317.608 538.848 317.776C539.296 317.944 539.772 318.028 540.276 318.028C540.916 318.028 541.408 317.892 541.752 317.62C542.096 317.348 542.268 316.984 542.268 316.528C542.268 316.216 542.192 315.944 542.04 315.712C541.888 315.48 541.624 315.304 541.248 315.184C540.88 315.056 540.372 314.992 539.724 314.992H537.816L538.26 310.6H543V311.644H538.704L539.328 311.056L538.98 314.524L538.356 313.948H539.976C540.816 313.948 541.492 314.056 542.004 314.272C542.516 314.488 542.888 314.788 543.12 315.172C543.352 315.548 543.468 315.984 543.468 316.48C543.468 316.96 543.352 317.4 543.12 317.8C542.888 318.192 542.536 318.508 542.064 318.748C541.6 318.98 541.008 319.096 540.288 319.096ZM545.501 319L551.237 310.6H552.161L546.425 319H545.501ZM546.173 315.112C545.789 315.112 545.449 315.016 545.153 314.824C544.857 314.632 544.625 314.364 544.457 314.02C544.297 313.676 544.217 313.276 544.217 312.82C544.217 312.364 544.297 311.964 544.457 311.62C544.625 311.276 544.857 311.008 545.153 310.816C545.449 310.624 545.789 310.528 546.173 310.528C546.565 310.528 546.905 310.624 547.193 310.816C547.489 311.008 547.717 311.276 547.877 311.62C548.037 311.964 548.117 312.364 548.117 312.82C548.117 313.276 548.037 313.676 547.877 314.02C547.717 314.364 547.489 314.632 547.193 314.824C546.905 315.016 546.565 315.112 546.173 315.112ZM546.173 314.428C546.541 314.428 546.829 314.288 547.037 314.008C547.245 313.72 547.349 313.324 547.349 312.82C547.349 312.316 547.245 311.924 547.037 311.644C546.829 311.356 546.541 311.212 546.173 311.212C545.813 311.212 545.525 311.356 545.309 311.644C545.101 311.924 544.997 312.316 544.997 312.82C544.997 313.316 545.101 313.708 545.309 313.996C545.525 314.284 545.813 314.428 546.173 314.428ZM551.489 319.072C551.105 319.072 550.765 318.976 550.469 318.784C550.173 318.592 549.945 318.324 549.785 317.98C549.625 317.636 549.545 317.236 549.545 316.78C549.545 316.324 549.625 315.924 549.785 315.58C549.945 315.236 550.173 314.968 550.469 314.776C550.765 314.584 551.105 314.488 551.489 314.488C551.881 314.488 552.221 314.584 552.509 314.776C552.805 314.968 553.033 315.236 553.193 315.58C553.361 315.924 553.445 316.324 553.445 316.78C553.445 317.236 553.361 317.636 553.193 317.98C553.033 318.324 552.805 318.592 552.509 318.784C552.221 318.976 551.881 319.072 551.489 319.072ZM551.489 318.388C551.849 318.388 552.133 318.248 552.341 317.968C552.557 317.68 552.665 317.284 552.665 316.78C552.665 316.284 552.557 315.892 552.341 315.604C552.133 315.316 551.849 315.172 551.489 315.172C551.129 315.172 550.841 315.316 550.625 315.604C550.417 315.884 550.313 316.276 550.313 316.78C550.313 317.284 550.417 317.68 550.625 317.968C550.841 318.248 551.129 318.388 551.489 318.388Z" fill="#AA82FF"/>
<circle cx="458" cy="315" r="3.65" stroke="#EEEDFF" stroke-width="0.7"/>
<circle cx="458" cy="315" r="2" fill="#EEEDFF"/>
<path d="M171.887 96L169 93.1132L166.113 96L169 98.8868L171.887 96ZM100 95.5C99.7239 95.5 99.5 95.7239 99.5 96C99.5 96.2761 99.7239 96.5 100 96.5V95.5ZM169 95.5L100 95.5V96.5L169 96.5V95.5Z" fill="#EEEDFF"/>
<path d="M215.887 48L213 45.1132L210.113 48L213 50.8868L215.887 48ZM103 47.5C102.724 47.5 102.5 47.7239 102.5 48C102.5 48.2761 102.724 48.5 103 48.5V47.5ZM213 47.5L103 47.5V48.5L213 48.5V47.5Z" fill="#EEEDFF"/>
<path d="M153.887 144L151 141.113L148.113 144L151 146.887L153.887 144ZM76 143.5C75.7239 143.5 75.5 143.724 75.5 144C75.5 144.276 75.7239 144.5 76 144.5V143.5ZM151 143.5H76V144.5H151V143.5Z" fill="#EEEDFF"/>
<path d="M153.887 171L151 168.113L148.113 171L151 173.887L153.887 171ZM85 170.5C84.7239 170.5 84.5 170.724 84.5 171C84.5 171.276 84.7239 171.5 85 171.5V170.5ZM151 170.5H85V171.5H151V170.5Z" fill="#EEEDFF"/>
<path d="M230.887 315L228 312.113L225.113 315L228 317.887L230.887 315ZM124 314.5C123.724 314.5 123.5 314.724 123.5 315C123.5 315.276 123.724 315.5 124 315.5V314.5ZM228 314.5H124V315.5H228V314.5Z" fill="#EEEDFF"/>
<path d="M401.113 249L404 251.887L406.887 249L404 246.113L401.113 249ZM477 249.5C477.276 249.5 477.5 249.276 477.5 249C477.5 248.724 477.276 248.5 477 248.5V249.5ZM404 249.5H477V248.5H404V249.5Z" fill="#EEEDFF"/>
<path d="M271.113 36L274 38.8868L276.887 36L274 33.1132L271.113 36ZM480 36.5C480.276 36.5 480.5 36.2762 480.5 36C480.5 35.7239 480.276 35.5 480 35.5L480 36.5ZM274 36.5L480 36.5L480 35.5L274 35.5L274 36.5Z" fill="#EEEDFF"/>
<path d="M382.113 106L385 108.887L387.887 106L385 103.113L382.113 106ZM430 106.5C430.276 106.5 430.5 106.276 430.5 106C430.5 105.724 430.276 105.5 430 105.5L430 106.5ZM385 106.5L430 106.5L430 105.5L385 105.5L385 106.5Z" fill="#EEEDFF"/>
<path d="M278.113 315L281 317.887L283.887 315L281 312.113L278.113 315ZM454 315.5C454.276 315.5 454.5 315.276 454.5 315C454.5 314.724 454.276 314.5 454 314.5V315.5ZM281 315.5H454V314.5H281V315.5Z" fill="#EEEDFF"/>
<path d="M264.267 177V154.356L267.327 157.308H259.587V151.8H271.395V177H264.267ZM276.481 177V151.8H289.369C292.681 151.8 295.153 152.412 296.785 153.636C298.417 154.836 299.233 156.42 299.233 158.388C299.233 159.684 298.885 160.824 298.189 161.808C297.517 162.768 296.557 163.536 295.309 164.112C294.085 164.664 292.621 164.94 290.917 164.94L291.637 163.212C293.413 163.212 294.961 163.488 296.281 164.04C297.601 164.568 298.621 165.348 299.341 166.38C300.085 167.388 300.457 168.624 300.457 170.088C300.457 172.272 299.569 173.976 297.793 175.2C296.041 176.4 293.473 177 290.089 177H276.481ZM283.537 171.852H289.513C290.737 171.852 291.661 171.648 292.285 171.24C292.933 170.808 293.257 170.16 293.257 169.296C293.257 168.432 292.933 167.796 292.285 167.388C291.661 166.956 290.737 166.74 289.513 166.74H283.033V161.808H288.433C289.633 161.808 290.533 161.604 291.133 161.196C291.733 160.788 292.033 160.176 292.033 159.36C292.033 158.544 291.733 157.944 291.133 157.56C290.533 157.152 289.633 156.948 288.433 156.948H283.537V171.852Z" fill="white"/>
<path d="M234.465 204.68V191.52H235.361V204.68H234.465ZM234.815 203.112C234.069 203.112 233.355 203 232.673 202.776C231.992 202.543 231.455 202.244 231.063 201.88L231.581 200.788C231.955 201.115 232.431 201.385 233.009 201.6C233.588 201.815 234.19 201.922 234.815 201.922C235.385 201.922 235.847 201.857 236.201 201.726C236.556 201.595 236.817 201.418 236.985 201.194C237.153 200.961 237.237 200.699 237.237 200.41C237.237 200.074 237.125 199.803 236.901 199.598C236.687 199.393 236.402 199.229 236.047 199.108C235.702 198.977 235.319 198.865 234.899 198.772C234.479 198.679 234.055 198.571 233.625 198.45C233.205 198.319 232.818 198.156 232.463 197.96C232.118 197.764 231.838 197.503 231.623 197.176C231.409 196.84 231.301 196.411 231.301 195.888C231.301 195.384 231.432 194.922 231.693 194.502C231.964 194.073 232.375 193.732 232.925 193.48C233.485 193.219 234.195 193.088 235.053 193.088C235.623 193.088 236.187 193.163 236.747 193.312C237.307 193.461 237.793 193.676 238.203 193.956L237.741 195.076C237.321 194.796 236.878 194.595 236.411 194.474C235.945 194.343 235.492 194.278 235.053 194.278C234.503 194.278 234.05 194.348 233.695 194.488C233.341 194.628 233.079 194.815 232.911 195.048C232.753 195.281 232.673 195.543 232.673 195.832C232.673 196.177 232.781 196.453 232.995 196.658C233.219 196.863 233.504 197.027 233.849 197.148C234.204 197.269 234.591 197.381 235.011 197.484C235.431 197.577 235.851 197.685 236.271 197.806C236.701 197.927 237.088 198.086 237.433 198.282C237.788 198.478 238.073 198.739 238.287 199.066C238.502 199.393 238.609 199.813 238.609 200.326C238.609 200.821 238.474 201.283 238.203 201.712C237.933 202.132 237.513 202.473 236.943 202.734C236.383 202.986 235.674 203.112 234.815 203.112ZM242.909 203L239.633 193.2H241.075L244.085 202.244H243.357L246.479 193.2H247.767L250.819 202.244H250.119L253.171 193.2H254.501L251.225 203H249.755L246.899 194.614H247.277L244.407 203H242.909ZM260.541 203.112C259.795 203.112 259.099 202.986 258.455 202.734C257.821 202.482 257.27 202.132 256.803 201.684C256.337 201.227 255.973 200.695 255.711 200.088C255.45 199.481 255.319 198.819 255.319 198.1C255.319 197.381 255.45 196.719 255.711 196.112C255.973 195.505 256.337 194.978 256.803 194.53C257.27 194.073 257.821 193.718 258.455 193.466C259.09 193.214 259.785 193.088 260.541 193.088C261.288 193.088 261.974 193.214 262.599 193.466C263.234 193.709 263.785 194.059 264.251 194.516C264.727 194.964 265.091 195.491 265.343 196.098C265.605 196.705 265.735 197.372 265.735 198.1C265.735 198.828 265.605 199.495 265.343 200.102C265.091 200.709 264.727 201.241 264.251 201.698C263.785 202.146 263.234 202.496 262.599 202.748C261.974 202.991 261.288 203.112 260.541 203.112ZM260.541 201.866C261.083 201.866 261.582 201.773 262.039 201.586C262.506 201.399 262.907 201.138 263.243 200.802C263.589 200.457 263.855 200.055 264.041 199.598C264.237 199.141 264.335 198.641 264.335 198.1C264.335 197.559 264.237 197.059 264.041 196.602C263.855 196.145 263.589 195.748 263.243 195.412C262.907 195.067 262.506 194.801 262.039 194.614C261.582 194.427 261.083 194.334 260.541 194.334C259.991 194.334 259.482 194.427 259.015 194.614C258.558 194.801 258.157 195.067 257.811 195.412C257.466 195.748 257.195 196.145 256.999 196.602C256.813 197.059 256.719 197.559 256.719 198.1C256.719 198.641 256.813 199.141 256.999 199.598C257.195 200.055 257.466 200.457 257.811 200.802C258.157 201.138 258.558 201.399 259.015 201.586C259.482 201.773 259.991 201.866 260.541 201.866ZM267.875 203V193.2H272.005C273.051 193.2 273.97 193.405 274.763 193.816C275.566 194.227 276.187 194.801 276.625 195.538C277.073 196.275 277.297 197.129 277.297 198.1C277.297 199.071 277.073 199.925 276.625 200.662C276.187 201.399 275.566 201.973 274.763 202.384C273.97 202.795 273.051 203 272.005 203H267.875ZM269.275 201.782H271.921C272.733 201.782 273.433 201.628 274.021 201.32C274.619 201.012 275.081 200.583 275.407 200.032C275.734 199.472 275.897 198.828 275.897 198.1C275.897 197.363 275.734 196.719 275.407 196.168C275.081 195.617 274.619 195.188 274.021 194.88C273.433 194.572 272.733 194.418 271.921 194.418H269.275V201.782ZM285.147 203V194.418H281.787V193.2H289.893V194.418H286.533V203H285.147ZM293.635 203.084C292.888 203.084 292.225 202.921 291.647 202.594C291.068 202.267 290.611 201.819 290.275 201.25C289.939 200.671 289.771 200.018 289.771 199.29C289.771 198.553 289.939 197.899 290.275 197.33C290.611 196.761 291.068 196.317 291.647 196C292.225 195.673 292.888 195.51 293.635 195.51C294.372 195.51 295.03 195.673 295.609 196C296.197 196.317 296.654 196.761 296.981 197.33C297.317 197.89 297.485 198.543 297.485 199.29C297.485 200.027 297.317 200.681 296.981 201.25C296.654 201.819 296.197 202.267 295.609 202.594C295.03 202.921 294.372 203.084 293.635 203.084ZM293.635 201.908C294.111 201.908 294.535 201.801 294.909 201.586C295.291 201.371 295.59 201.068 295.805 200.676C296.019 200.275 296.127 199.813 296.127 199.29C296.127 198.758 296.019 198.301 295.805 197.918C295.59 197.526 295.291 197.223 294.909 197.008C294.535 196.793 294.111 196.686 293.635 196.686C293.159 196.686 292.734 196.793 292.361 197.008C291.987 197.223 291.689 197.526 291.465 197.918C291.241 198.301 291.129 198.758 291.129 199.29C291.129 199.813 291.241 200.275 291.465 200.676C291.689 201.068 291.987 201.371 292.361 201.586C292.734 201.801 293.159 201.908 293.635 201.908ZM300.435 201.208L300.463 199.486L304.733 195.58H306.357L303.081 198.8L302.353 199.416L300.435 201.208ZM299.343 203V192.612H300.687V203H299.343ZM305.013 203L302.101 199.388L302.969 198.31L306.665 203H305.013ZM310.974 203.084C310.18 203.084 309.48 202.921 308.874 202.594C308.276 202.267 307.81 201.819 307.474 201.25C307.147 200.681 306.984 200.027 306.984 199.29C306.984 198.553 307.142 197.899 307.46 197.33C307.786 196.761 308.23 196.317 308.79 196C309.359 195.673 309.998 195.51 310.708 195.51C311.426 195.51 312.061 195.669 312.612 195.986C313.162 196.303 313.592 196.751 313.9 197.33C314.217 197.899 314.376 198.567 314.376 199.332C314.376 199.388 314.371 199.453 314.362 199.528C314.362 199.603 314.357 199.673 314.348 199.738H308.034V198.772H313.648L313.102 199.108C313.111 198.632 313.013 198.207 312.808 197.834C312.602 197.461 312.318 197.171 311.954 196.966C311.599 196.751 311.184 196.644 310.708 196.644C310.241 196.644 309.826 196.751 309.462 196.966C309.098 197.171 308.813 197.465 308.608 197.848C308.402 198.221 308.3 198.651 308.3 199.136V199.36C308.3 199.855 308.412 200.298 308.636 200.69C308.869 201.073 309.191 201.371 309.602 201.586C310.012 201.801 310.484 201.908 311.016 201.908C311.454 201.908 311.851 201.833 312.206 201.684C312.57 201.535 312.887 201.311 313.158 201.012L313.9 201.88C313.564 202.272 313.144 202.571 312.64 202.776C312.145 202.981 311.59 203.084 310.974 203.084ZM320.204 195.51C320.81 195.51 321.342 195.627 321.8 195.86C322.266 196.093 322.63 196.448 322.892 196.924C323.153 197.4 323.284 198.002 323.284 198.73V203H321.94V198.884C321.94 198.165 321.762 197.624 321.408 197.26C321.062 196.896 320.572 196.714 319.938 196.714C319.462 196.714 319.046 196.807 318.692 196.994C318.337 197.181 318.062 197.456 317.866 197.82C317.679 198.184 317.586 198.637 317.586 199.178V203H316.242V195.58H317.53V197.582L317.32 197.05C317.562 196.565 317.936 196.187 318.44 195.916C318.944 195.645 319.532 195.51 320.204 195.51ZM327.899 203.084C327.283 203.084 326.695 203 326.135 202.832C325.584 202.664 325.15 202.459 324.833 202.216L325.393 201.152C325.71 201.367 326.102 201.549 326.569 201.698C327.036 201.847 327.512 201.922 327.997 201.922C328.622 201.922 329.07 201.833 329.341 201.656C329.621 201.479 329.761 201.231 329.761 200.914C329.761 200.681 329.677 200.499 329.509 200.368C329.341 200.237 329.117 200.139 328.837 200.074C328.566 200.009 328.263 199.953 327.927 199.906C327.591 199.85 327.255 199.785 326.919 199.71C326.583 199.626 326.275 199.514 325.995 199.374C325.715 199.225 325.491 199.024 325.323 198.772C325.155 198.511 325.071 198.165 325.071 197.736C325.071 197.288 325.197 196.896 325.449 196.56C325.701 196.224 326.056 195.967 326.513 195.79C326.98 195.603 327.53 195.51 328.165 195.51C328.65 195.51 329.14 195.571 329.635 195.692C330.139 195.804 330.55 195.967 330.867 196.182L330.293 197.246C329.957 197.022 329.607 196.868 329.243 196.784C328.879 196.7 328.515 196.658 328.151 196.658C327.563 196.658 327.124 196.756 326.835 196.952C326.546 197.139 326.401 197.381 326.401 197.68C326.401 197.932 326.485 198.128 326.653 198.268C326.83 198.399 327.054 198.501 327.325 198.576C327.605 198.651 327.913 198.716 328.249 198.772C328.585 198.819 328.921 198.884 329.257 198.968C329.593 199.043 329.896 199.15 330.167 199.29C330.447 199.43 330.671 199.626 330.839 199.878C331.016 200.13 331.105 200.466 331.105 200.886C331.105 201.334 330.974 201.721 330.713 202.048C330.452 202.375 330.083 202.631 329.607 202.818C329.131 202.995 328.562 203.084 327.899 203.084Z" fill="#A2ADC8"/>
</svg>
