<svg width="32" height="32" viewBox="0 0 32 32" fill="none" xmlns="http://www.w3.org/2000/svg">
<rect width="32" height="32" rx="6" fill="#262551"/>
<g clip-path="url(#clip0_667_11089)">
<path d="M16.5 27C22.299 27 27 22.299 27 16.5C27 10.701 22.299 6 16.5 6C10.701 6 6 10.701 6 16.5C6 22.299 10.701 27 16.5 27Z" fill="#8E97CD"/>
<path d="M23.5032 16.4989C23.5053 16.6428 23.4874 16.7864 23.4496 16.9252C23.4118 17.0641 23.3546 17.1972 23.2795 17.32C23.2047 17.4429 23.1128 17.5547 23.0068 17.6521C22.9007 17.7495 22.7816 17.8314 22.6527 17.8954C22.6556 17.9338 22.6579 17.9724 22.6592 18.0109C22.6624 18.0879 22.6624 18.165 22.6592 18.2419C22.6579 18.2805 22.6556 18.3191 22.6527 18.3574C22.6527 20.7094 19.9122 22.6204 16.5312 22.6204C13.1502 22.6204 10.4097 20.7094 10.4097 18.3574C10.4068 18.3191 10.4044 18.2805 10.4031 18.2419C10.3999 18.165 10.3999 18.0879 10.4031 18.0109C10.4044 17.9724 10.4068 17.9338 10.4097 17.8954C10.2077 17.8026 10.0284 17.667 9.88404 17.4981C9.73968 17.3291 9.63376 17.1308 9.57361 16.9168C9.51355 16.7028 9.50076 16.4783 9.53612 16.2588C9.57147 16.0393 9.65413 15.8302 9.77836 15.6458C9.90248 15.4615 10.0652 15.3064 10.2553 15.1913C10.4453 15.0761 10.6582 15.0037 10.879 14.9791C11.0999 14.9543 11.3235 14.9779 11.5344 15.0481C11.7452 15.1184 11.9383 15.2337 12.1002 15.3859C12.4007 15.1823 12.7155 15.0006 13.0423 14.8423C13.3691 14.6843 13.7069 14.5499 14.0532 14.4407C14.3994 14.3315 14.7533 14.2477 15.1116 14.1897C15.4699 14.1317 15.8321 14.1 16.1952 14.0944L16.9722 10.4509C16.9808 10.4087 16.9979 10.3688 17.0223 10.3331C17.0465 10.2976 17.0777 10.2672 17.1137 10.2438C17.1499 10.2205 17.1903 10.2045 17.2328 10.1966C17.2751 10.189 17.3187 10.1898 17.3607 10.1989L19.9332 10.7134C20.1928 10.2675 20.7377 10.0764 21.2189 10.2622C21.7001 10.4481 21.9752 10.956 21.8675 11.4605C21.7602 11.965 21.3018 12.3168 20.7868 12.2903C20.2715 12.2638 19.8518 11.8669 19.7967 11.3539L17.5497 10.8814L16.8672 14.1574C17.2257 14.1651 17.5835 14.1987 17.9374 14.2577C18.646 14.3758 19.3338 14.5956 19.9796 14.9103C20.3022 15.0673 20.613 15.2473 20.9097 15.4489C21.123 15.2441 21.391 15.1055 21.6814 15.0497C21.9718 14.9937 22.2722 15.023 22.5464 15.1339C22.8205 15.2449 23.0567 15.4328 23.2265 15.675C23.3963 15.9172 23.4924 16.2033 23.5032 16.4989ZM13.083 17.9508C13.136 18.0781 13.2132 18.1939 13.3108 18.2913C13.4082 18.3889 13.524 18.4661 13.6513 18.5191C13.7787 18.5718 13.9153 18.599 14.0532 18.5989C14.4779 18.5989 14.8606 18.343 15.0234 17.9508C15.1859 17.5584 15.0958 17.1069 14.7955 16.8066C14.4952 16.5063 14.0437 16.4163 13.6513 16.5787C13.2591 16.7415 13.0032 17.1242 13.0032 17.5489C13.0032 17.6868 13.0302 17.8233 13.083 17.9508ZM19.0968 20.4714C19.1507 20.4189 19.1814 20.3472 19.1824 20.2721C19.1835 20.1968 19.1543 20.1243 19.1018 20.0705C19.0493 20.0167 18.9777 19.986 18.9026 19.9849C18.8273 19.9839 18.7548 20.013 18.6942 20.0584C18.5363 20.1717 18.3691 20.2714 18.1944 20.3564C18.0196 20.4414 17.838 20.5116 17.6515 20.5661C17.4651 20.6205 17.2743 20.659 17.0814 20.6814C16.8882 20.7037 16.6937 20.7094 16.4997 20.6989C16.3059 20.7076 16.1117 20.6997 15.9193 20.6756C15.7268 20.6517 15.5368 20.6113 15.3512 20.5548C15.1654 20.4987 14.985 20.4267 14.8115 20.3401C14.638 20.2535 14.4721 20.1522 14.3157 20.0374C14.2613 19.9928 14.1923 19.97 14.1219 19.9734C14.0516 19.9768 13.9852 20.0065 13.9353 20.0561C13.8857 20.106 13.856 20.1724 13.8526 20.2427C13.8492 20.3131 13.872 20.3821 13.9167 20.4364C14.1012 20.5756 14.2973 20.6984 14.5028 20.8039C14.7084 20.9095 14.9228 20.9969 15.1433 21.0657C15.3638 21.1344 15.5898 21.184 15.819 21.2142C16.0482 21.2442 16.2794 21.2544 16.5102 21.2449C16.7409 21.2544 16.9722 21.2442 17.2013 21.2142C17.6603 21.1539 18.1055 21.0151 18.5175 20.8039C18.723 20.6984 18.9191 20.5756 19.1037 20.4364L19.0968 20.4714ZM18.9042 18.6829C19.0464 18.6845 19.1877 18.657 19.3192 18.6024C19.4507 18.5475 19.5696 18.4666 19.6688 18.3645C19.7681 18.2624 19.8452 18.1411 19.8962 18.0081C19.9471 17.8751 19.9704 17.7332 19.9647 17.5909C19.9647 17.1662 19.7087 16.7835 19.3166 16.6207C18.9241 16.4583 18.4726 16.5483 18.1723 16.8486C17.872 17.1489 17.782 17.6004 17.9445 17.9928C18.1072 18.385 18.4899 18.6409 18.9147 18.6409L18.9042 18.6829Z" fill="#262551"/>
</g>
<defs>
<clipPath id="clip0_667_11089">
<rect width="21" height="21" fill="white" transform="translate(6 6)"/>
</clipPath>
</defs>
</svg>
