<svg width="24" height="24" viewBox="0 0 24 24" fill="none" xmlns="http://www.w3.org/2000/svg">
<g id="Group 1261159153">
<g id="Group 1261159152">
<circle id="Ellipse 1434" cx="12" cy="12" r="11.75" fill="#FF9211" stroke="#FF9211" stroke-width="0.5"/>
</g>
<g id="Group 1261159151">
<path id="Vector" fill-rule="evenodd" clip-rule="evenodd" d="M11.9826 5.6595L6.49739 8.82977V15.1703L11.9826 18.3405L17.4679 15.1703V8.82977L11.9826 5.6595ZM12.213 4.06179C12.0705 3.9794 11.8948 3.9794 11.7523 4.06179L5.23037 7.83117C5.08781 7.91359 5 8.06581 5 8.2306V15.7694C5 15.9342 5.08781 16.0864 5.23037 16.1688L11.7523 19.9382C11.8948 20.0206 12.0705 20.0206 12.213 19.9382L18.735 16.1688C18.8775 16.0864 18.9653 15.9342 18.9653 15.7694V8.2306C18.9653 8.06581 18.8775 7.91359 18.735 7.83117L12.213 4.06179Z" fill="white"/>
<path id="Vector_2" d="M11.9826 7.95629L8.48407 9.97826V14.0222L11.9595 16.0309C11.9738 16.0391 11.9826 16.0543 11.9826 16.0708V16.7632C11.9826 16.7987 11.9442 16.8209 11.9134 16.8031L7.96575 14.5215C7.85882 14.4597 7.79297 14.3455 7.79297 14.2219V9.77852C7.79297 9.65494 7.85882 9.54075 7.96575 9.47899L11.8098 7.25728C11.9167 7.19549 12.0484 7.19549 12.1553 7.25728L16.1188 9.53971C16.1493 9.55727 16.1496 9.60117 16.1193 9.61913C15.8854 9.75801 15.7656 9.81978 15.504 9.96548C15.4898 9.97339 15.4724 9.9733 15.4584 9.96518L11.9826 7.95629Z" fill="white"/>
<path id="Vector_3" d="M12.5586 12.0852C12.5586 12.0681 12.568 12.0525 12.583 12.0445L16.0616 10.191C16.0923 10.1747 16.1293 10.1969 16.1293 10.2317V14.7406C16.1293 14.757 16.1205 14.7722 16.1064 14.7805L12.6278 16.8024C12.5971 16.8203 12.5586 16.798 12.5586 16.7625V12.0852Z" fill="white"/>
</g>
</g>
</svg>
