<svg width="17" height="13" viewBox="0 0 17 13" fill="none" xmlns="http://www.w3.org/2000/svg">
<g id="Group">
<path id="Vector" d="M13.6225 1.77046C12.5969 1.30254 11.497 0.957799 10.3471 0.76035C10.3261 0.756539 10.3052 0.766062 10.2944 0.785109C10.153 1.03525 9.99628 1.36158 9.88656 1.61808C8.6497 1.43397 7.41918 1.43397 6.20769 1.61808C6.09794 1.35588 5.93557 1.03525 5.79349 0.785109C5.7827 0.766698 5.76178 0.757175 5.74084 0.76035C4.59151 0.957168 3.49166 1.30191 2.46538 1.77046C2.45649 1.77427 2.44888 1.78063 2.44382 1.78887C0.357638 4.88778 -0.213856 7.91052 0.0665001 10.8958C0.0677686 10.9104 0.0760143 10.9244 0.0874316 10.9332C1.46384 11.9383 2.79712 12.5484 4.10565 12.9528C4.12659 12.9592 4.14878 12.9516 4.1621 12.9344C4.47164 12.5141 4.74756 12.071 4.98413 11.6049C4.99809 11.5777 4.98477 11.5453 4.95623 11.5345C4.51858 11.3694 4.10184 11.1681 3.70097 10.9396C3.66926 10.9212 3.66672 10.8761 3.69589 10.8545C3.78025 10.7916 3.86463 10.7263 3.94518 10.6602C3.95975 10.6482 3.98006 10.6456 3.9972 10.6532C6.63075 11.8488 9.48188 11.8488 12.0844 10.6532C12.1015 10.645 12.1218 10.6475 12.137 10.6596C12.2176 10.7256 12.3019 10.7916 12.3869 10.8545C12.4161 10.8761 12.4142 10.9212 12.3825 10.9396C11.9816 11.1726 11.5649 11.3694 11.1266 11.5338C11.0981 11.5446 11.0854 11.5777 11.0993 11.6049C11.341 12.0703 11.6169 12.5135 11.9207 12.9338C11.9334 12.9516 11.9562 12.9592 11.9772 12.9528C13.292 12.5484 14.6253 11.9383 16.0017 10.9332C16.0138 10.9244 16.0214 10.911 16.0227 10.8964C16.3582 7.44512 15.4607 4.44717 13.6434 1.78951C13.639 1.78063 13.6314 1.77427 13.6225 1.77046ZM5.37741 9.07807C4.58453 9.07807 3.93122 8.35431 3.93122 7.46545C3.93122 6.57659 4.57186 5.85283 5.37741 5.85283C6.18928 5.85283 6.83627 6.58295 6.82358 7.46545C6.82358 8.35431 6.18294 9.07807 5.37741 9.07807ZM10.7244 9.07807C9.93159 9.07807 9.27828 8.35431 9.27828 7.46545C9.27828 6.57659 9.9189 5.85283 10.7244 5.85283C11.5363 5.85283 12.1833 6.58295 12.1706 7.46545C12.1706 8.35431 11.5363 9.07807 10.7244 9.07807Z" fill="#5690FF"/>
</g>
</svg>
