<svg width="10" height="6" viewBox="0 0 10 6" fill="none" xmlns="http://www.w3.org/2000/svg">
<path id="Icon" d="M7.46415 1H1.84536C1.42704 1 1.21788 1 1.12103 1.08272C1.03699 1.15449 0.992395 1.26216 1.00107 1.37234C1.01106 1.49932 1.15896 1.64721 1.45475 1.94301L4.26414 4.7524C4.40087 4.88913 4.46923 4.95749 4.54806 4.9831C4.6174 5.00563 4.6921 5.00563 4.76144 4.9831C4.84027 4.95749 4.90863 4.88913 5.04536 4.7524L7.85475 1.94301C8.15054 1.64722 8.29844 1.49932 8.30844 1.37234C8.31711 1.26216 8.27251 1.15449 8.18847 1.08272C8.09162 1 7.88246 1 7.46415 1Z" fill="#5690FF" stroke="#5690FF" stroke-width="2" stroke-linecap="round" stroke-linejoin="round"/>
</svg>
