<svg width="16" height="16" viewBox="0 0 16 16" fill="none" xmlns="http://www.w3.org/2000/svg">
<g id="Frame" clip-path="url(#clip0_482_181)">
<g id="Group">
<path id="Vector" d="M8.00376 5.34277C6.53156 5.34277 5.34521 6.53733 5.34521 8.01085C5.34521 9.47722 6.54585 10.6861 8.01091 10.6789C9.46882 10.6789 10.6838 9.46292 10.6766 8.0037C10.6695 6.54448 9.46882 5.34277 8.00376 5.34277Z" fill="#5690FF"/>
<path id="Vector_2" d="M15.9071 4.19848C15.7999 2.76799 15.1996 1.58069 13.9562 0.779615C13.1916 0.29325 12.3412 0.107287 11.448 0.0572195C11.1907 0.0429146 10.9335 0.0214573 10.6762 0C8.89683 0 7.11746 0 5.33095 0C4.90933 0.0357622 4.48057 0.0572195 4.05895 0.100134C1.84368 0.336164 0.335864 1.84533 0.100045 4.06974C0.0571684 4.49173 0.0285842 4.92088 0 5.34287C0 7.12383 0 8.90478 0 10.6929C0.0500223 11.215 0.0643144 11.7443 0.150067 12.2521C0.521661 14.3907 2.01519 15.7997 4.18758 15.9142C6.08843 16.0143 7.98928 16 9.89727 15.9928C10.7048 15.9928 11.5266 15.9785 12.3126 15.8426C14.4064 15.485 15.7713 13.9616 15.9 11.823C15.9929 10.3067 15.9857 8.78319 15.9929 7.25972C16 6.24408 15.9857 5.21413 15.9071 4.19848ZM8.01072 12.1305C5.74542 12.1377 3.8946 10.2924 3.8946 8.01788C3.8946 5.73625 5.71684 3.89808 7.99643 3.89808C10.2689 3.89808 12.1125 5.7291 12.1197 8.00358C12.1197 10.2709 10.276 12.1234 8.01072 12.1305ZM12.2841 4.69915C11.7481 4.7063 11.3122 4.27716 11.3122 3.74072C11.3122 3.21144 11.7195 2.78945 12.2483 2.77515C12.7914 2.76084 13.2273 3.18283 13.2345 3.71927C13.2488 4.24855 12.82 4.692 12.2841 4.69915Z" fill="#5690FF"/>
</g>
</g>
<defs>
<clipPath id="clip0_482_181">
<rect width="16" height="16" fill="white"/>
</clipPath>
</defs>
</svg>
