<svg width="16" height="16" viewBox="0 0 16 16" fill="none" xmlns="http://www.w3.org/2000/svg">
<g clip-path="url(#clip0_2124_619)">
<path d="M8 16C12.4183 16 16 12.4183 16 8C16 3.58172 12.4183 0 8 0C3.58172 0 0 3.58172 0 8C0 12.4183 3.58172 16 8 16Z" fill="url(#paint0_linear_2124_619)"/>
<mask id="mask0_2124_619" style="mask-type:luminance" maskUnits="userSpaceOnUse" x="4" y="2" width="8" height="12">
<path d="M11.6803 2.56006H4.32031V13.4029H11.6803V2.56006Z" fill="white"/>
</mask>
<g mask="url(#mask0_2124_619)">
<path fill-rule="evenodd" clip-rule="evenodd" d="M6.70852 7.29303C6.86049 7.6187 6.6289 8.0095 6.25258 8.0095C6.03548 8.0095 5.75322 7.83582 5.75322 7.50291C5.75322 6.79369 5.54337 6.45355 5.30454 6.35947C5.30454 7.79239 4.32031 8.3207 4.32031 9.94903C4.32031 11.5773 5.29007 12.8366 6.65785 13.3793C6.22364 13.003 5.94863 12.4458 5.94863 11.8234C5.94863 9.92729 8.38748 9.44967 7.4901 7.45948C7.84473 7.92988 8.48158 10.1951 7.73617 11.6859C8.19209 11.4471 8.94474 10.622 9.22698 10.1951C8.86513 12.178 9.2921 12.026 9.67567 11.8813C9.82041 11.8234 9.96514 11.7655 10.052 11.8306C10.2184 11.9392 9.77698 13.0103 9.34278 13.3866C10.7106 12.8511 11.6803 11.5194 11.6803 9.95627C11.6803 6.48249 7.34537 6.30881 8.53946 2.56006C7.38156 3.08836 5.59402 4.86142 6.70852 7.29303Z" fill="white"/>
</g>
</g>
<defs>
<linearGradient id="paint0_linear_2124_619" x1="8" y1="0" x2="8" y2="16" gradientUnits="userSpaceOnUse">
<stop stop-color="#FEA623"/>
<stop offset="1" stop-color="#DF2C56"/>
</linearGradient>
<clipPath id="clip0_2124_619">
<rect width="16" height="16" fill="white"/>
</clipPath>
</defs>
</svg>
