<svg width="20" height="11" viewBox="0 0 20 11" fill="none" xmlns="http://www.w3.org/2000/svg">
<g id="Group">
<path id="Vector" d="M5.4626 0C8.47953 0 10.925 2.46257 10.925 5.50009C10.925 8.53761 8.47934 11 5.4626 11C2.44587 11 0 8.53761 0 5.50009C0 2.46257 2.44568 0 5.4626 0ZM14.186 0.322181C15.6945 0.322181 16.9173 2.64018 16.9173 5.50009H16.9175C16.9175 8.35927 15.6946 10.678 14.1862 10.678C12.6777 10.678 11.4549 8.35927 11.4549 5.50009C11.4549 2.64092 12.6775 0.322181 14.186 0.322181ZM18.4079 0.861501C18.9384 0.861501 19.3685 2.93823 19.3685 5.50009C19.3685 8.06121 18.9385 10.1387 18.4079 10.1387C17.8773 10.1387 17.4475 8.06177 17.4475 5.50009C17.4475 2.93842 17.8775 0.861501 18.4079 0.861501Z" fill="#5690FF"/>
</g>
</svg>
