<svg width="24" height="24" viewBox="0 0 24 24" fill="none" xmlns="http://www.w3.org/2000/svg">
<path d="M6.54128 5.06341L11.999 2L17.4567 5.06341L15.4502 6.19513L11.999 4.26342L8.54778 6.19513L6.54128 5.06341ZM17.4567 8.92683L15.4502 7.79513L11.999 9.72683L8.54778 7.79513L6.54128 8.92683V11.1903L9.99246 13.122V16.9854L11.999 18.1171L14.0055 16.9854V13.122L17.4567 11.1903V8.92683ZM17.4567 15.0537V12.7903L15.4502 13.922V16.1854L17.4567 15.0537ZM18.8814 15.8537L15.4302 17.7854V20.0488L20.8879 16.9854V10.8585L18.8814 11.9903V15.8537ZM16.8749 6.99513L18.8814 8.12683V10.3903L20.8879 9.25854V6.99513L18.8814 5.86342L16.8749 6.99513ZM9.99246 18.6049V20.8683L11.999 22L14.0055 20.8683V18.6049L11.999 19.7366L9.99246 18.6049ZM6.54128 15.0537L8.54778 16.1854V13.922L6.54128 12.7903V15.0537ZM9.99246 6.99513L11.999 8.12683L14.0055 6.99513L11.999 5.86342L9.99246 6.99513ZM5.11663 8.12683L7.12314 6.99513L5.11663 5.86342L3.11011 6.99513V9.25854L5.11663 10.3903V8.12683ZM5.11663 11.9903L3.11011 10.8585V16.9854L8.56782 20.0488V17.7854L5.11663 15.8537V11.9903Z" fill="#F0B90B"/>
</svg>
