<svg width="17" height="12" viewBox="0 0 17 12" fill="none" xmlns="http://www.w3.org/2000/svg">
<path id="Vector" d="M16.4064 2.42812C16.4064 2.42812 16.2445 1.325 15.7461 0.840625C15.115 0.203125 14.4094 0.2 14.0857 0.1625C11.7683 -8.9407e-08 8.28895 0 8.28895 0H8.28248C8.28248 0 4.80313 -8.9407e-08 2.48571 0.1625C2.16205 0.2 1.45647 0.203125 0.825335 0.840625C0.326897 1.325 0.168304 2.42812 0.168304 2.42812C0.168304 2.42812 0 3.725 0 5.01875V6.23125C0 7.525 0.165067 8.82187 0.165067 8.82187C0.165067 8.82187 0.326897 9.925 0.822098 10.4094C1.45324 11.0469 2.28181 11.025 2.65078 11.0937C3.97779 11.2156 8.28572 11.2531 8.28572 11.2531C8.28572 11.2531 11.7683 11.2469 14.0857 11.0875C14.4094 11.05 15.115 11.0469 15.7461 10.4094C16.2445 9.925 16.4064 8.82187 16.4064 8.82187C16.4064 8.82187 16.5714 7.52812 16.5714 6.23125V5.01875C16.5714 3.725 16.4064 2.42812 16.4064 2.42812ZM6.57355 7.70312V3.20625L11.0498 5.4625L6.57355 7.70312Z" fill="#5690FF"/>
</svg>
