<svg width="196" height="121" viewBox="0 0 196 121" fill="none" xmlns="http://www.w3.org/2000/svg">
<path d="M185.962 70.8533L122.819 107.717C109.314 115.382 87.4149 115.382 73.9103 107.717L10.2197 70.8533C3.4674 66.8384 0 61.7286 0 56.6187V63.9185C0 69.0284 3.4674 74.3207 10.2197 78.1531L73.9103 115.017C87.4149 122.864 109.314 122.864 122.819 115.017L185.962 78.1531C192.714 74.3207 195.999 69.2109 195.999 64.101V56.8012C195.999 61.9111 192.532 67.0209 185.962 70.8533Z" fill="#7E2CF6"/>
<path d="M185.78 42.5668C199.284 50.4141 199.467 63.0062 185.962 70.8535L122.819 107.717C109.315 115.382 87.4153 115.382 73.9107 107.717L10.2202 70.8535C-3.28444 63.0062 -3.46693 50.4141 10.0377 42.5668L73.1807 5.88545C86.6853 -1.96182 108.585 -1.96182 122.089 5.88545L185.78 42.5668Z" fill="#F5FBFF"/>
<g filter="url(#filter0_d_181_2619)">
<path d="M42.852 40.558H49.026C50.706 40.558 52.232 40.74 53.604 41.104C55.004 41.468 56.18 42.028 57.132 42.784C58.112 43.54 58.868 44.506 59.4 45.682C59.932 46.83 60.198 48.202 60.198 49.798C60.198 51.674 59.736 53.228 58.812 54.46C57.916 55.664 56.586 56.714 54.822 57.61L44.742 62.44L42.264 63.448H60.408V70H31.848V62.692L49.992 53.452C51 52.808 51.7 52.234 52.092 51.73C52.512 51.226 52.722 50.624 52.722 49.924C52.722 49.168 52.428 48.58 51.84 48.16C51.28 47.712 50.342 47.488 49.026 47.488H42.852C41.76 47.488 40.808 47.726 39.996 48.202C39.184 48.65 38.61 49.28 38.274 50.092L31.176 47.026C32.044 44.814 33.5 43.19 35.544 42.154C37.588 41.09 40.024 40.558 42.852 40.558ZM63.6673 55.468V55.426C63.6673 53.186 63.9893 51.156 64.6333 49.336C65.3053 47.516 66.2573 45.962 67.4893 44.674C68.7493 43.358 70.2753 42.35 72.0673 41.65C73.8593 40.922 75.9033 40.558 78.1993 40.558H83.7013C85.9973 40.558 88.0413 40.922 89.8333 41.65C91.6253 42.35 93.1373 43.358 94.3693 44.674C95.6293 45.962 96.5813 47.516 97.2253 49.336C97.8973 51.156 98.2333 53.186 98.2333 55.426V55.468C98.2333 57.708 97.8973 59.752 97.2253 61.6C96.5813 63.42 95.6293 64.988 94.3693 66.304C93.1373 67.592 91.6253 68.6 89.8333 69.328C88.0413 70.028 85.9973 70.378 83.7013 70.378H78.1993C75.9033 70.378 73.8593 70.028 72.0673 69.328C70.2753 68.6 68.7493 67.592 67.4893 66.304C66.2573 64.988 65.3053 63.42 64.6333 61.6C63.9893 59.752 63.6673 57.708 63.6673 55.468ZM71.4373 55.468C71.4373 57.792 72.0253 59.626 73.2013 60.97C74.4053 62.314 76.0713 62.986 78.1993 62.986H83.7013C85.8293 62.986 87.4813 62.314 88.6573 60.97C89.8613 59.626 90.4633 57.792 90.4633 55.468V55.426C90.4633 53.13 89.8613 51.31 88.6573 49.966C87.4813 48.622 85.8293 47.95 83.7013 47.95H78.1993C76.0713 47.95 74.4053 48.622 73.2013 49.966C72.0253 51.31 71.4373 53.13 71.4373 55.426V55.468ZM112.538 40.558H118.712C120.392 40.558 121.918 40.74 123.29 41.104C124.69 41.468 125.866 42.028 126.818 42.784C127.798 43.54 128.554 44.506 129.086 45.682C129.618 46.83 129.884 48.202 129.884 49.798C129.884 51.674 129.422 53.228 128.498 54.46C127.602 55.664 126.272 56.714 124.508 57.61L114.428 62.44L111.95 63.448H130.094V70H101.534V62.692L119.678 53.452C120.686 52.808 121.386 52.234 121.778 51.73C122.198 51.226 122.408 50.624 122.408 49.924C122.408 49.168 122.114 48.58 121.526 48.16C120.966 47.712 120.028 47.488 118.712 47.488H112.538C111.446 47.488 110.494 47.726 109.682 48.202C108.87 48.65 108.296 49.28 107.96 50.092L100.862 47.026C101.73 44.814 103.186 43.19 105.23 42.154C107.274 41.09 109.71 40.558 112.538 40.558ZM133.017 63.658V56.686L145.281 40.936H154.983L141.837 56.686H152.295V51.1H160.191V56.686H164.097V63.658H160.191V70H152.295V63.658H133.017Z" fill="#7E2CF6"/>
</g>
<defs>
<filter id="filter0_d_181_2619" x="21.1758" y="34.558" width="152.921" height="49.82" filterUnits="userSpaceOnUse" color-interpolation-filters="sRGB">
<feFlood flood-opacity="0" result="BackgroundImageFix"/>
<feColorMatrix in="SourceAlpha" type="matrix" values="0 0 0 0 0 0 0 0 0 0 0 0 0 0 0 0 0 0 127 0" result="hardAlpha"/>
<feOffset dy="4"/>
<feGaussianBlur stdDeviation="5"/>
<feComposite in2="hardAlpha" operator="out"/>
<feColorMatrix type="matrix" values="0 0 0 0 0.494118 0 0 0 0 0.172549 0 0 0 0 0.964706 0 0 0 0.42 0"/>
<feBlend mode="normal" in2="BackgroundImageFix" result="effect1_dropShadow_181_2619"/>
<feBlend mode="normal" in="SourceGraphic" in2="effect1_dropShadow_181_2619" result="shape"/>
</filter>
</defs>
</svg>
