<svg width="196" height="121" viewBox="0 0 196 121" fill="none" xmlns="http://www.w3.org/2000/svg">
<path d="M185.962 70.8533L122.819 107.717C109.314 115.382 87.4149 115.382 73.9103 107.717L10.2197 70.8533C3.4674 66.8384 0 61.7286 0 56.6187V63.9185C0 69.0284 3.4674 74.3207 10.2197 78.1531L73.9103 115.017C87.4149 122.864 109.314 122.864 122.819 115.017L185.962 78.1531C192.714 74.3207 195.999 69.2109 195.999 64.101V56.8012C195.999 61.9111 192.532 67.0209 185.962 70.8533Z" fill="#7E2CF6"/>
<path d="M185.78 42.5668C199.284 50.4141 199.467 63.0062 185.962 70.8535L122.819 107.717C109.315 115.382 87.4153 115.382 73.9107 107.717L10.2202 70.8535C-3.28444 63.0062 -3.46693 50.4141 10.0377 42.5668L73.1807 5.88545C86.6853 -1.96182 108.585 -1.96182 122.089 5.88545L185.78 42.5668Z" fill="#F5FBFF"/>
<g filter="url(#filter0_d_181_2608)">
<path d="M100.27 55.468C100.27 58.1 99.794 60.438 98.842 62.482C97.89 64.526 96.518 66.206 94.726 67.522L99.514 72.646L93.382 77.77L86.452 70.294C86.172 70.322 85.892 70.336 85.612 70.336C85.332 70.364 85.038 70.378 84.73 70.378H77.926C75.462 70.378 73.264 70.028 71.332 69.328C69.4 68.6 67.762 67.592 66.418 66.304C65.102 64.988 64.094 63.42 63.394 61.6C62.694 59.752 62.344 57.708 62.344 55.468V55.426C62.344 53.186 62.694 51.156 63.394 49.336C64.094 47.516 65.102 45.962 66.418 44.674C67.762 43.358 69.4 42.35 71.332 41.65C73.264 40.922 75.462 40.558 77.926 40.558H84.73C87.166 40.558 89.35 40.922 91.282 41.65C93.214 42.35 94.838 43.358 96.154 44.674C97.498 45.962 98.52 47.516 99.22 49.336C99.92 51.156 100.27 53.186 100.27 55.426V55.468ZM84.73 63.196C87.278 63.196 89.21 62.482 90.526 61.054C91.842 59.626 92.5 57.764 92.5 55.468V55.426C92.5 53.158 91.828 51.31 90.484 49.882C89.168 48.454 87.25 47.74 84.73 47.74H77.926C75.378 47.74 73.432 48.454 72.088 49.882C70.772 51.31 70.114 53.158 70.114 55.426V55.468C70.114 57.764 70.772 59.626 72.088 61.054C73.432 62.482 75.378 63.196 77.926 63.196H84.73ZM102.739 63.658V56.686L115.003 40.936H124.705L111.559 56.686H122.017V51.1H129.913V56.686H133.819V63.658H129.913V70H122.017V63.658H102.739Z" fill="#7E2CF6"/>
</g>
<defs>
<filter id="filter0_d_181_2608" x="52.3438" y="34.558" width="91.4756" height="57.212" filterUnits="userSpaceOnUse" color-interpolation-filters="sRGB">
<feFlood flood-opacity="0" result="BackgroundImageFix"/>
<feColorMatrix in="SourceAlpha" type="matrix" values="0 0 0 0 0 0 0 0 0 0 0 0 0 0 0 0 0 0 127 0" result="hardAlpha"/>
<feOffset dy="4"/>
<feGaussianBlur stdDeviation="5"/>
<feComposite in2="hardAlpha" operator="out"/>
<feColorMatrix type="matrix" values="0 0 0 0 0.494118 0 0 0 0 0.172549 0 0 0 0 0.964706 0 0 0 0.42 0"/>
<feBlend mode="normal" in2="BackgroundImageFix" result="effect1_dropShadow_181_2608"/>
<feBlend mode="normal" in="SourceGraphic" in2="effect1_dropShadow_181_2608" result="shape"/>
</filter>
</defs>
</svg>
