<svg width="248" height="120" viewBox="0 0 248 120" fill="none" xmlns="http://www.w3.org/2000/svg">
<path d="M235.3 70.1718L155.404 106.873C138.317 114.504 110.607 114.504 93.5196 106.873L12.9311 70.1718C4.38734 66.1746 0 61.0873 0 56V63.2676C0 68.3549 4.38734 73.6238 12.9311 77.4393L93.5196 114.141C110.607 121.953 138.317 121.953 155.404 114.141L235.3 77.4393C243.844 73.6238 248 68.5365 248 63.4493V56.1817C248 61.269 243.613 66.3563 235.3 70.1718Z" fill="#B936F5"/>
<path d="M235.068 42.5668C252.156 50.4141 252.387 63.0062 235.299 70.8535L155.404 107.717C138.317 115.382 110.607 115.382 93.5197 107.717L12.9316 70.8535C-4.15582 63.0062 -4.38673 50.4141 12.7007 42.5668L92.596 5.88545C109.683 -1.96182 137.393 -1.96182 154.48 5.88545L235.068 42.5668Z" fill="#F5FBFF"/>
<path d="M111.14 66.588C108.788 66.588 106.618 66.21 104.63 65.454C102.642 64.698 100.906 63.634 99.422 62.262C97.966 60.862 96.832 59.238 96.02 57.39C95.208 55.542 94.802 53.512 94.802 51.3C94.802 49.088 95.208 47.058 96.02 45.21C96.832 43.362 97.966 41.752 99.422 40.38C100.906 38.98 102.642 37.902 104.63 37.146C106.618 36.39 108.788 36.012 111.14 36.012C113.52 36.012 115.69 36.39 117.65 37.146C119.638 37.902 121.36 38.966 122.816 40.338C124.272 41.71 125.406 43.334 126.218 45.21C127.058 47.058 127.478 49.088 127.478 51.3C127.478 53.512 127.058 55.556 126.218 57.432C125.406 59.28 124.272 60.89 122.816 62.262C121.36 63.634 119.638 64.698 117.65 65.454C115.69 66.21 113.52 66.588 111.14 66.588ZM120.758 73.098C119.498 73.098 118.322 72.958 117.23 72.678C116.138 72.426 115.06 72.006 113.996 71.418C112.96 70.83 111.868 70.032 110.72 69.024C109.6 68.016 108.34 66.77 106.94 65.286L115.634 63.102C116.334 64.138 116.964 64.95 117.524 65.538C118.084 66.126 118.63 66.546 119.162 66.798C119.722 67.05 120.31 67.176 120.926 67.176C122.55 67.176 124.034 66.49 125.378 65.118L128.99 69.402C126.946 71.866 124.202 73.098 120.758 73.098ZM111.14 59.7C112.26 59.7 113.296 59.504 114.248 59.112C115.228 58.72 116.068 58.16 116.768 57.432C117.496 56.676 118.056 55.78 118.448 54.744C118.868 53.708 119.078 52.56 119.078 51.3C119.078 50.012 118.868 48.864 118.448 47.856C118.056 46.82 117.496 45.938 116.768 45.21C116.068 44.454 115.228 43.88 114.248 43.488C113.296 43.096 112.26 42.9 111.14 42.9C110.02 42.9 108.97 43.096 107.99 43.488C107.038 43.88 106.198 44.454 105.47 45.21C104.77 45.938 104.21 46.82 103.79 47.856C103.398 48.864 103.202 50.012 103.202 51.3C103.202 52.56 103.398 53.708 103.79 54.744C104.21 55.78 104.77 56.676 105.47 57.432C106.198 58.16 107.038 58.72 107.99 59.112C108.97 59.504 110.02 59.7 111.14 59.7ZM129.743 66V60.792L140.747 50.502C141.531 49.774 142.105 49.13 142.469 48.57C142.861 48.01 143.113 47.506 143.225 47.058C143.365 46.582 143.435 46.148 143.435 45.756C143.435 44.804 143.113 44.062 142.469 43.53C141.853 42.998 140.915 42.732 139.655 42.732C138.591 42.732 137.597 42.97 136.673 43.446C135.749 43.922 134.993 44.636 134.405 45.588L128.231 42.144C129.323 40.296 130.905 38.812 132.977 37.692C135.049 36.572 137.527 36.012 140.411 36.012C142.679 36.012 144.667 36.376 146.375 37.104C148.083 37.832 149.413 38.868 150.365 40.212C151.345 41.556 151.835 43.138 151.835 44.958C151.835 45.91 151.709 46.862 151.457 47.814C151.205 48.738 150.715 49.732 149.987 50.796C149.287 51.832 148.237 52.994 146.837 54.282L138.101 62.346L136.715 59.406H152.633V66H129.743Z" fill="#B936F5"/>
</svg>
