<svg width="196" height="121" viewBox="0 0 196 121" fill="none" xmlns="http://www.w3.org/2000/svg">
<path d="M185.962 70.8533L122.819 107.717C109.314 115.382 87.4149 115.382 73.9103 107.717L10.2197 70.8533C3.4674 66.8384 0 61.7286 0 56.6187V63.9185C0 69.0284 3.4674 74.3207 10.2197 78.1531L73.9103 115.017C87.4149 122.864 109.314 122.864 122.819 115.017L185.962 78.1531C192.714 74.3207 195.999 69.2109 195.999 64.101V56.8012C195.999 61.9111 192.532 67.0209 185.962 70.8533Z" fill="#7E2CF6"/>
<path d="M185.78 42.5668C199.284 50.4141 199.467 63.0062 185.962 70.8535L122.819 107.717C109.315 115.382 87.4153 115.382 73.9107 107.717L10.2202 70.8535C-3.28444 63.0062 -3.46693 50.4141 10.0377 42.5668L73.1807 5.88545C86.6853 -1.96182 108.585 -1.96182 122.089 5.88545L185.78 42.5668Z" fill="#F5FBFF"/>
<g filter="url(#filter0_d_181_2597)">
<path d="M100.27 55.468C100.27 58.1 99.794 60.438 98.842 62.482C97.89 64.526 96.518 66.206 94.726 67.522L99.514 72.646L93.382 77.77L86.452 70.294C86.172 70.322 85.892 70.336 85.612 70.336C85.332 70.364 85.038 70.378 84.73 70.378H77.926C75.462 70.378 73.264 70.028 71.332 69.328C69.4 68.6 67.762 67.592 66.418 66.304C65.102 64.988 64.094 63.42 63.394 61.6C62.694 59.752 62.344 57.708 62.344 55.468V55.426C62.344 53.186 62.694 51.156 63.394 49.336C64.094 47.516 65.102 45.962 66.418 44.674C67.762 43.358 69.4 42.35 71.332 41.65C73.264 40.922 75.462 40.558 77.926 40.558H84.73C87.166 40.558 89.35 40.922 91.282 41.65C93.214 42.35 94.838 43.358 96.154 44.674C97.498 45.962 98.52 47.516 99.22 49.336C99.92 51.156 100.27 53.186 100.27 55.426V55.468ZM84.73 63.196C87.278 63.196 89.21 62.482 90.526 61.054C91.842 59.626 92.5 57.764 92.5 55.468V55.426C92.5 53.158 91.828 51.31 90.484 49.882C89.168 48.454 87.25 47.74 84.73 47.74H77.926C75.378 47.74 73.432 48.454 72.088 49.882C70.772 51.31 70.114 53.158 70.114 55.426V55.468C70.114 57.764 70.772 59.626 72.088 61.054C73.432 62.482 75.378 63.196 77.926 63.196H84.73ZM102.403 63.994L109.375 60.97C109.683 61.81 110.285 62.468 111.181 62.944C112.077 63.392 113.211 63.616 114.583 63.616H120.925C123.613 63.616 124.957 62.762 124.957 61.054C124.957 60.326 124.677 59.738 124.117 59.29C123.557 58.842 122.647 58.618 121.387 58.618H112.021V52.444H121.345C122.465 52.444 123.249 52.22 123.697 51.772C124.145 51.296 124.369 50.722 124.369 50.05C124.369 49.154 124.033 48.482 123.361 48.034C122.717 47.558 121.807 47.32 120.631 47.32H114.289C113.113 47.32 112.105 47.558 111.265 48.034C110.453 48.482 109.893 49.126 109.585 49.966L102.655 46.942C103.019 45.934 103.551 45.038 104.251 44.254C104.979 43.442 105.847 42.77 106.855 42.238C107.863 41.678 108.997 41.258 110.257 40.978C111.517 40.698 112.861 40.558 114.289 40.558H120.505C124.173 40.558 126.973 41.272 128.905 42.7C130.865 44.128 131.845 46.144 131.845 48.748C131.845 52.052 130.389 54.264 127.477 55.384C129.213 56 130.473 56.896 131.257 58.072C132.041 59.22 132.433 60.648 132.433 62.356C132.433 64.96 131.411 66.948 129.367 68.32C127.351 69.692 124.509 70.378 120.841 70.378H114.583C111.503 70.378 108.885 69.818 106.729 68.698C104.601 67.578 103.159 66.01 102.403 63.994Z" fill="#7E2CF6"/>
</g>
<defs>
<filter id="filter0_d_181_2597" x="52.3438" y="34.558" width="90.0898" height="57.212" filterUnits="userSpaceOnUse" color-interpolation-filters="sRGB">
<feFlood flood-opacity="0" result="BackgroundImageFix"/>
<feColorMatrix in="SourceAlpha" type="matrix" values="0 0 0 0 0 0 0 0 0 0 0 0 0 0 0 0 0 0 127 0" result="hardAlpha"/>
<feOffset dy="4"/>
<feGaussianBlur stdDeviation="5"/>
<feComposite in2="hardAlpha" operator="out"/>
<feColorMatrix type="matrix" values="0 0 0 0 0.494118 0 0 0 0 0.172549 0 0 0 0 0.964706 0 0 0 0.42 0"/>
<feBlend mode="normal" in2="BackgroundImageFix" result="effect1_dropShadow_181_2597"/>
<feBlend mode="normal" in="SourceGraphic" in2="effect1_dropShadow_181_2597" result="shape"/>
</filter>
</defs>
</svg>
