<svg width="248" height="120" viewBox="0 0 248 120" fill="none" xmlns="http://www.w3.org/2000/svg">
<path d="M235.3 70.1718L155.404 106.873C138.317 114.504 110.607 114.504 93.5196 106.873L12.9311 70.1718C4.38734 66.1746 0 61.0873 0 56V63.2676C0 68.3549 4.38734 73.6238 12.9311 77.4393L93.5196 114.141C110.607 121.953 138.317 121.953 155.404 114.141L235.3 77.4393C243.844 73.6238 248 68.5365 248 63.4493V56.1817C248 61.269 243.613 66.3563 235.3 70.1718Z" fill="#B936F5"/>
<path d="M235.068 42.5668C252.156 50.4141 252.387 63.0062 235.299 70.8535L155.404 107.717C138.317 115.382 110.607 115.382 93.5197 107.717L12.9316 70.8535C-4.15582 63.0062 -4.38673 50.4141 12.7007 42.5668L92.596 5.88545C109.683 -1.96182 137.393 -1.96182 154.48 5.88545L235.068 42.5668Z" fill="#F5FBFF"/>
<path d="M115.201 66.588C112.849 66.588 110.679 66.21 108.691 65.454C106.703 64.698 104.967 63.634 103.483 62.262C102.027 60.862 100.893 59.238 100.081 57.39C99.2686 55.542 98.8626 53.512 98.8626 51.3C98.8626 49.088 99.2686 47.058 100.081 45.21C100.893 43.362 102.027 41.752 103.483 40.38C104.967 38.98 106.703 37.902 108.691 37.146C110.679 36.39 112.849 36.012 115.201 36.012C117.581 36.012 119.751 36.39 121.711 37.146C123.699 37.902 125.421 38.966 126.877 40.338C128.333 41.71 129.467 43.334 130.279 45.21C131.119 47.058 131.539 49.088 131.539 51.3C131.539 53.512 131.119 55.556 130.279 57.432C129.467 59.28 128.333 60.89 126.877 62.262C125.421 63.634 123.699 64.698 121.711 65.454C119.751 66.21 117.581 66.588 115.201 66.588ZM124.819 73.098C123.559 73.098 122.383 72.958 121.291 72.678C120.199 72.426 119.121 72.006 118.057 71.418C117.021 70.83 115.929 70.032 114.781 69.024C113.661 68.016 112.401 66.77 111.001 65.286L119.695 63.102C120.395 64.138 121.025 64.95 121.585 65.538C122.145 66.126 122.691 66.546 123.223 66.798C123.783 67.05 124.371 67.176 124.987 67.176C126.611 67.176 128.095 66.49 129.439 65.118L133.051 69.402C131.007 71.866 128.263 73.098 124.819 73.098ZM115.201 59.7C116.321 59.7 117.357 59.504 118.309 59.112C119.289 58.72 120.129 58.16 120.829 57.432C121.557 56.676 122.117 55.78 122.509 54.744C122.929 53.708 123.139 52.56 123.139 51.3C123.139 50.012 122.929 48.864 122.509 47.856C122.117 46.82 121.557 45.938 120.829 45.21C120.129 44.454 119.289 43.88 118.309 43.488C117.357 43.096 116.321 42.9 115.201 42.9C114.081 42.9 113.031 43.096 112.051 43.488C111.099 43.88 110.259 44.454 109.531 45.21C108.831 45.938 108.271 46.82 107.851 47.856C107.459 48.864 107.263 50.012 107.263 51.3C107.263 52.56 107.459 53.708 107.851 54.744C108.271 55.78 108.831 56.676 109.531 57.432C110.259 58.16 111.099 58.72 112.051 59.112C113.031 59.504 114.081 59.7 115.201 59.7ZM138.256 66V39.582L141.826 43.026H132.796V36.6H146.572V66H138.256Z" fill="#B936F5"/>
</svg>
