<svg width="196" height="121" viewBox="0 0 196 121" fill="none" xmlns="http://www.w3.org/2000/svg">
<path d="M185.962 70.8533L122.819 107.717C109.314 115.382 87.4149 115.382 73.9103 107.717L10.2197 70.8533C3.4674 66.8384 0 61.7286 0 56.6187V63.9185C0 69.0284 3.4674 74.3207 10.2197 78.1531L73.9103 115.017C87.4149 122.864 109.314 122.864 122.819 115.017L185.962 78.1531C192.714 74.3207 195.999 69.2109 195.999 64.101V56.8012C195.999 61.9111 192.532 67.0209 185.962 70.8533Z" fill="#7E2CF6"/>
<path d="M185.78 42.5668C199.284 50.4141 199.467 63.0062 185.962 70.8535L122.819 107.717C109.315 115.382 87.4153 115.382 73.9107 107.717L10.2202 70.8535C-3.28444 63.0062 -3.46693 50.4141 10.0377 42.5668L73.1807 5.88545C86.6853 -1.96182 108.585 -1.96182 122.089 5.88545L185.78 42.5668Z" fill="#F5FBFF"/>
<g filter="url(#filter0_d_181_2575)">
<path d="M107.27 55.468C107.27 58.1 106.794 60.438 105.842 62.482C104.89 64.526 103.518 66.206 101.726 67.522L106.514 72.646L100.382 77.77L93.452 70.294C93.172 70.322 92.892 70.336 92.612 70.336C92.332 70.364 92.038 70.378 91.73 70.378H84.926C82.462 70.378 80.264 70.028 78.332 69.328C76.4 68.6 74.762 67.592 73.418 66.304C72.102 64.988 71.094 63.42 70.394 61.6C69.694 59.752 69.344 57.708 69.344 55.468V55.426C69.344 53.186 69.694 51.156 70.394 49.336C71.094 47.516 72.102 45.962 73.418 44.674C74.762 43.358 76.4 42.35 78.332 41.65C80.264 40.922 82.462 40.558 84.926 40.558H91.73C94.166 40.558 96.35 40.922 98.282 41.65C100.214 42.35 101.838 43.358 103.154 44.674C104.498 45.962 105.52 47.516 106.22 49.336C106.92 51.156 107.27 53.186 107.27 55.426V55.468ZM91.73 63.196C94.278 63.196 96.21 62.482 97.526 61.054C98.842 59.626 99.5 57.764 99.5 55.468V55.426C99.5 53.158 98.828 51.31 97.484 49.882C96.168 48.454 94.25 47.74 91.73 47.74H84.926C82.378 47.74 80.432 48.454 79.088 49.882C77.772 51.31 77.114 53.158 77.114 55.426V55.468C77.114 57.764 77.772 59.626 79.088 61.054C80.432 62.482 82.378 63.196 84.926 63.196H91.73ZM109.193 44.506L117.551 40.936H125.405V70H117.551V49.168L112.217 51.436L109.193 44.506Z" fill="#7E2CF6"/>
</g>
<defs>
<filter id="filter0_d_181_2575" x="59.3438" y="34.558" width="76.0615" height="57.212" filterUnits="userSpaceOnUse" color-interpolation-filters="sRGB">
<feFlood flood-opacity="0" result="BackgroundImageFix"/>
<feColorMatrix in="SourceAlpha" type="matrix" values="0 0 0 0 0 0 0 0 0 0 0 0 0 0 0 0 0 0 127 0" result="hardAlpha"/>
<feOffset dy="4"/>
<feGaussianBlur stdDeviation="5"/>
<feComposite in2="hardAlpha" operator="out"/>
<feColorMatrix type="matrix" values="0 0 0 0 0.494118 0 0 0 0 0.172549 0 0 0 0 0.964706 0 0 0 0.42 0"/>
<feBlend mode="normal" in2="BackgroundImageFix" result="effect1_dropShadow_181_2575"/>
<feBlend mode="normal" in="SourceGraphic" in2="effect1_dropShadow_181_2575" result="shape"/>
</filter>
</defs>
</svg>
