<svg width="248" height="120" viewBox="0 0 248 120" fill="none" xmlns="http://www.w3.org/2000/svg">
<path d="M235.3 70.1718L155.404 106.873C138.317 114.504 110.607 114.504 93.5196 106.873L12.9311 70.1718C4.38734 66.1746 0 61.0873 0 56V63.2676C0 68.3549 4.38734 73.6238 12.9311 77.4393L93.5196 114.141C110.607 121.953 138.317 121.953 155.404 114.141L235.3 77.4393C243.844 73.6238 248 68.5365 248 63.4493V56.1817C248 61.269 243.613 66.3563 235.3 70.1718Z" fill="#B936F5"/>
<path d="M235.068 42.5668C252.156 50.4141 252.387 63.0062 235.299 70.8535L155.404 107.717C138.317 115.382 110.607 115.382 93.5197 107.717L12.9316 70.8535C-4.15582 63.0062 -4.38673 50.4141 12.7007 42.5668L92.596 5.88545C109.683 -1.96182 137.393 -1.96182 154.48 5.88545L235.068 42.5668Z" fill="#F5FBFF"/>
<path d="M108.802 66.588C106.45 66.588 104.28 66.21 102.292 65.454C100.304 64.698 98.5681 63.634 97.0841 62.262C95.6281 60.862 94.4941 59.238 93.6821 57.39C92.8701 55.542 92.4641 53.512 92.4641 51.3C92.4641 49.088 92.8701 47.058 93.6821 45.21C94.4941 43.362 95.6281 41.752 97.0841 40.38C98.5681 38.98 100.304 37.902 102.292 37.146C104.28 36.39 106.45 36.012 108.802 36.012C111.182 36.012 113.352 36.39 115.312 37.146C117.3 37.902 119.022 38.966 120.478 40.338C121.934 41.71 123.068 43.334 123.88 45.21C124.72 47.058 125.14 49.088 125.14 51.3C125.14 53.512 124.72 55.556 123.88 57.432C123.068 59.28 121.934 60.89 120.478 62.262C119.022 63.634 117.3 64.698 115.312 65.454C113.352 66.21 111.182 66.588 108.802 66.588ZM118.42 73.098C117.16 73.098 115.984 72.958 114.892 72.678C113.8 72.426 112.722 72.006 111.658 71.418C110.622 70.83 109.53 70.032 108.382 69.024C107.262 68.016 106.002 66.77 104.602 65.286L113.296 63.102C113.996 64.138 114.626 64.95 115.186 65.538C115.746 66.126 116.292 66.546 116.824 66.798C117.384 67.05 117.972 67.176 118.588 67.176C120.212 67.176 121.696 66.49 123.04 65.118L126.652 69.402C124.608 71.866 121.864 73.098 118.42 73.098ZM108.802 59.7C109.922 59.7 110.958 59.504 111.91 59.112C112.89 58.72 113.73 58.16 114.43 57.432C115.158 56.676 115.718 55.78 116.11 54.744C116.53 53.708 116.74 52.56 116.74 51.3C116.74 50.012 116.53 48.864 116.11 47.856C115.718 46.82 115.158 45.938 114.43 45.21C113.73 44.454 112.89 43.88 111.91 43.488C110.958 43.096 109.922 42.9 108.802 42.9C107.682 42.9 106.632 43.096 105.652 43.488C104.7 43.88 103.86 44.454 103.132 45.21C102.432 45.938 101.872 46.82 101.452 47.856C101.06 48.864 100.864 50.012 100.864 51.3C100.864 52.56 101.06 53.708 101.452 54.744C101.872 55.78 102.432 56.676 103.132 57.432C103.86 58.16 104.7 58.72 105.652 59.112C106.632 59.504 107.682 59.7 108.802 59.7ZM127.69 60.372V54.954L140.878 36.6H149.488L136.678 54.954L132.73 53.778H155.704V60.372H127.69ZM143.23 66V60.372L143.482 53.778V48.78H151.336V66H143.23Z" fill="#B936F5"/>
</svg>
