<svg width="196" height="121" viewBox="0 0 196 121" fill="none" xmlns="http://www.w3.org/2000/svg">
<path d="M185.962 70.8533L122.819 107.717C109.314 115.382 87.4149 115.382 73.9103 107.717L10.2197 70.8533C3.4674 66.8384 0 61.7286 0 56.6187V63.9185C0 69.0284 3.4674 74.3207 10.2197 78.1531L73.9103 115.017C87.4149 122.864 109.314 122.864 122.819 115.017L185.962 78.1531C192.714 74.3207 195.999 69.2109 195.999 64.101V56.8012C195.999 61.9111 192.532 67.0209 185.962 70.8533Z" fill="#7E2CF6"/>
<path d="M185.78 42.5668C199.284 50.4141 199.467 63.0062 185.962 70.8535L122.819 107.717C109.315 115.382 87.4153 115.382 73.9107 107.717L10.2202 70.8535C-3.28444 63.0062 -3.46693 50.4141 10.0377 42.5668L73.1807 5.88545C86.6853 -1.96182 108.585 -1.96182 122.089 5.88545L185.78 42.5668Z" fill="#F5FBFF"/>
<g filter="url(#filter0_d_181_2586)">
<path d="M101.369 55.468C101.369 58.1 100.893 60.438 99.9406 62.482C98.9886 64.526 97.6166 66.206 95.8246 67.522L100.613 72.646L94.4806 77.77L87.5506 70.294C87.2706 70.322 86.9906 70.336 86.7106 70.336C86.4306 70.364 86.1366 70.378 85.8286 70.378H79.0246C76.5606 70.378 74.3626 70.028 72.4306 69.328C70.4986 68.6 68.8606 67.592 67.5166 66.304C66.2006 64.988 65.1926 63.42 64.4926 61.6C63.7926 59.752 63.4426 57.708 63.4426 55.468V55.426C63.4426 53.186 63.7926 51.156 64.4926 49.336C65.1926 47.516 66.2006 45.962 67.5166 44.674C68.8606 43.358 70.4986 42.35 72.4306 41.65C74.3626 40.922 76.5606 40.558 79.0246 40.558H85.8286C88.2646 40.558 90.4486 40.922 92.3806 41.65C94.3126 42.35 95.9366 43.358 97.2526 44.674C98.5966 45.962 99.6186 47.516 100.319 49.336C101.019 51.156 101.369 53.186 101.369 55.426V55.468ZM85.8286 63.196C88.3766 63.196 90.3086 62.482 91.6246 61.054C92.9406 59.626 93.5986 57.764 93.5986 55.468V55.426C93.5986 53.158 92.9266 51.31 91.5826 49.882C90.2666 48.454 88.3486 47.74 85.8286 47.74H79.0246C76.4766 47.74 74.5306 48.454 73.1866 49.882C71.8706 51.31 71.2126 53.158 71.2126 55.426V55.468C71.2126 57.764 71.8706 59.626 73.1866 61.054C74.5306 62.482 76.4766 63.196 79.0246 63.196H85.8286ZM115.556 40.558H121.73C123.41 40.558 124.936 40.74 126.308 41.104C127.708 41.468 128.884 42.028 129.836 42.784C130.816 43.54 131.572 44.506 132.104 45.682C132.636 46.83 132.902 48.202 132.902 49.798C132.902 51.674 132.44 53.228 131.516 54.46C130.62 55.664 129.29 56.714 127.526 57.61L117.446 62.44L114.968 63.448H133.112V70H104.552V62.692L122.696 53.452C123.704 52.808 124.404 52.234 124.796 51.73C125.216 51.226 125.426 50.624 125.426 49.924C125.426 49.168 125.132 48.58 124.544 48.16C123.984 47.712 123.046 47.488 121.73 47.488H115.556C114.464 47.488 113.512 47.726 112.7 48.202C111.888 48.65 111.314 49.28 110.978 50.092L103.88 47.026C104.748 44.814 106.204 43.19 108.248 42.154C110.292 41.09 112.728 40.558 115.556 40.558Z" fill="#7E2CF6"/>
</g>
<defs>
<filter id="filter0_d_181_2586" x="53.4424" y="34.558" width="89.6699" height="57.212" filterUnits="userSpaceOnUse" color-interpolation-filters="sRGB">
<feFlood flood-opacity="0" result="BackgroundImageFix"/>
<feColorMatrix in="SourceAlpha" type="matrix" values="0 0 0 0 0 0 0 0 0 0 0 0 0 0 0 0 0 0 127 0" result="hardAlpha"/>
<feOffset dy="4"/>
<feGaussianBlur stdDeviation="5"/>
<feComposite in2="hardAlpha" operator="out"/>
<feColorMatrix type="matrix" values="0 0 0 0 0.494118 0 0 0 0 0.172549 0 0 0 0 0.964706 0 0 0 0.42 0"/>
<feBlend mode="normal" in2="BackgroundImageFix" result="effect1_dropShadow_181_2586"/>
<feBlend mode="normal" in="SourceGraphic" in2="effect1_dropShadow_181_2586" result="shape"/>
</filter>
</defs>
</svg>
