<svg width="32" height="32" viewBox="0 0 32 32" fill="none" xmlns="http://www.w3.org/2000/svg">
<path opacity="0.2" d="M0 8C0 3.58172 3.58172 0 8 0H32V24C32 28.4183 28.4183 32 24 32H0V8Z" fill="white"/>
<path d="M16 20L16.7071 20.7071C16.3166 21.0976 15.6834 21.0976 15.2929 20.7071L16 20ZM21.2929 13.2929C21.6834 12.9024 22.3166 12.9024 22.7071 13.2929C23.0976 13.6834 23.0976 14.3166 22.7071 14.7071L21.2929 13.2929ZM9.29289 14.7071C8.90237 14.3166 8.90237 13.6834 9.29289 13.2929C9.68342 12.9024 10.3166 12.9024 10.7071 13.2929L9.29289 14.7071ZM15.2929 19.2929L21.2929 13.2929L22.7071 14.7071L16.7071 20.7071L15.2929 19.2929ZM15.2929 20.7071L9.29289 14.7071L10.7071 13.2929L16.7071 19.2929L15.2929 20.7071Z" fill="#FCFCFC"/>
</svg>
