<svg width="16" height="16" viewBox="0 0 16 16" fill="none" xmlns="http://www.w3.org/2000/svg">
<g id="Group 1261159959">
<path id="Vector" fill-rule="evenodd" clip-rule="evenodd" d="M8 0C12.4186 0 16 3.58141 16 8C16 12.4186 12.4186 16 8 16C3.58141 16 0 12.4186 0 8C0 3.58141 3.58141 0 8 0Z" fill="#F0B90B"/>
<path id="Vector_2" d="M4.38664 8.00009L4.39241 10.1155L6.18984 11.1732V12.4116L3.34049 10.7405V7.3815L4.38664 8.00009ZM4.38664 5.8847V7.11739L3.33984 6.49816V5.26547L4.38664 4.64624L5.43856 5.26547L4.38664 5.8847ZM6.94049 5.26547L7.98728 4.64624L9.0392 5.26547L7.98728 5.8847L6.94049 5.26547Z" fill="white"/>
<path id="Vector_3" d="M5.17188 9.67701V8.43855L6.21867 9.05778V10.2905L5.17188 9.67701ZM6.96931 11.6168L8.01611 12.236L9.06803 11.6168V12.8494L8.01611 13.4687L6.96931 12.8494V11.6168ZM10.5693 5.26547L11.6161 4.64624L12.668 5.26547V6.49816L11.6161 7.11739V5.8847L10.5693 5.26547ZM11.6161 10.1155L11.6219 8.00009L12.6687 7.38086V10.7398L9.81931 12.411V11.1725L11.6161 10.1155Z" fill="white"/>
<path id="Vector_4" d="M10.8632 9.67718L9.81641 10.2906V9.05795L10.8632 8.43872V9.67718Z" fill="white"/>
<path id="Vector_5" d="M10.8655 6.32316L10.8712 7.56162L9.06867 8.61931V10.7398L8.02188 11.3533L6.97508 10.7398V8.61931L5.17252 7.56162V6.32316L6.2238 5.70393L8.01546 6.76675L9.81803 5.70393L10.87 6.32316H10.8655ZM5.17188 4.20842L8.01611 2.53149L10.8655 4.20842L9.81867 4.82765L8.01611 3.76483L6.21867 4.82765L5.17188 4.20842Z" fill="white"/>
</g>
</svg>
