<svg width="87" height="105" viewBox="0 0 87 105" fill="none" xmlns="http://www.w3.org/2000/svg">
<g id="Group 1261159942">
<path id="Vector" d="M79.071 0H43.1055H7.14005C1.31555 0 0 20.3906 0 20.3906H9.64384H43.1161H76.5884H86.2322C86.2322 20.3906 84.9167 0 79.071 0Z" fill="#022E30"/>
<g id="Group 1261159483">
<path id="Vector_2" d="M43.0053 0H7C7.96651 0 8.80558 10.2166 9.48532 22.9533C10.0482 33.5576 10.5049 62.8734 10.813 78.9624C10.9192 84.3672 13.5638 89.3615 17.8441 92.2121L31.8851 101.596C38.6932 106.135 47.3068 106.135 54.1149 101.596L68.1559 92.2235C72.4362 89.3729 75.0808 84.3786 75.187 78.9738C75.4951 62.8848 75.9411 33.5576 76.5147 22.9647C77.1944 10.2166 78.0441 0 79 0H43.0053Z" fill="#003E41"/>
<g id="Mask group">
<mask id="mask0_1294_1214" style="mask-type:alpha" maskUnits="userSpaceOnUse" x="7" y="0" width="73" height="105">
<path id="Vector_3" d="M43.1672 0H7C7.97086 0 8.8137 10.2166 9.4965 22.9533C10.0619 33.5576 10.5207 62.8734 10.8301 78.9624C10.9368 84.3672 13.5933 89.3615 17.8928 92.2121L31.997 101.596C38.8357 106.135 47.4881 106.135 54.3268 101.596L68.4309 92.2235C72.7305 89.3729 75.387 84.3786 75.4937 78.9738C75.8031 62.8848 76.2512 33.5576 76.8273 22.9647C77.5101 10.2166 78.3636 0 79.3238 0H43.1672Z" fill="black"/>
</mask>
<g mask="url(#mask0_1294_1214)">
<g id="Group 1000003252" filter="url(#filter0_f_1294_1214)">
<ellipse id="Ellipse 4" cx="32.5384" cy="34.0602" rx="32.5384" ry="34.0602" transform="matrix(4.82933e-08 1 1 -3.95642e-08 -6.20312 -49.1136)" fill="#1BF5FF"/>
</g>
<g id="Group 1000010428" filter="url(#filter1_f_1294_1214)">
<ellipse id="Ellipse 4_2" cx="47.4219" cy="49.6398" rx="47.4219" ry="49.6398" transform="matrix(4.82933e-08 1 1 -3.95642e-08 -21.5938 95.2565)" fill="#1BF5FF"/>
</g>
</g>
</g>
</g>
</g>
<defs>
<filter id="filter0_f_1294_1214" x="-36.2031" y="-79.1136" width="128.117" height="125.077" filterUnits="userSpaceOnUse" color-interpolation-filters="sRGB">
<feFlood flood-opacity="0" result="BackgroundImageFix"/>
<feBlend mode="normal" in="SourceGraphic" in2="BackgroundImageFix" result="shape"/>
<feGaussianBlur stdDeviation="15" result="effect1_foregroundBlur_1294_1214"/>
</filter>
<filter id="filter1_f_1294_1214" x="-41.5938" y="75.2565" width="139.281" height="134.844" filterUnits="userSpaceOnUse" color-interpolation-filters="sRGB">
<feFlood flood-opacity="0" result="BackgroundImageFix"/>
<feBlend mode="normal" in="SourceGraphic" in2="BackgroundImageFix" result="shape"/>
<feGaussianBlur stdDeviation="10" result="effect1_foregroundBlur_1294_1214"/>
</filter>
</defs>
</svg>
