<svg width="24" height="24" viewBox="0 0 24 24" fill="none" xmlns="http://www.w3.org/2000/svg">
<g id="Group 1261160070">
<g id="Group 1261160170">
<rect id="Rectangle 10143" width="24" height="24" rx="4" fill="black" fill-opacity="0.2"/>
<path id="Icon" d="M13.4286 8H10.5714M14.1429 15.3333C13.9403 14.5726 13.0579 14 12 14C10.9421 14 10.0597 14.5726 9.85714 15.3333M12 11.3333H12.0071M9.28571 18H14.7143C15.5144 18 15.9144 18 16.22 17.8547C16.4888 17.7268 16.7073 17.5229 16.8443 17.272C17 16.9868 17 16.6134 17 15.8667V8.13333C17 7.3866 17 7.01323 16.8443 6.72801C16.7073 6.47713 16.4888 6.27316 16.22 6.14532C15.9144 6 15.5144 6 14.7143 6H9.28571C8.48564 6 8.0856 6 7.78001 6.14532C7.51121 6.27316 7.29267 6.47713 7.1557 6.72801C7 7.01323 7 7.3866 7 8.13333V15.8667C7 16.6134 7 16.9868 7.1557 17.272C7.29267 17.5229 7.51121 17.7268 7.78001 17.8547C8.0856 18 8.48564 18 9.28571 18ZM12.7143 11.3333C12.7143 11.7015 12.3945 12 12 12C11.6055 12 11.2857 11.7015 11.2857 11.3333C11.2857 10.9651 11.6055 10.6667 12 10.6667C12.3945 10.6667 12.7143 10.9651 12.7143 11.3333Z" stroke="#EEEDFF" stroke-width="1.2" stroke-linecap="round" stroke-linejoin="round"/>
</g>
</g>
</svg>
