<svg width="36" height="16" viewBox="0 0 36 16" fill="none" xmlns="http://www.w3.org/2000/svg">
<g filter="url(#filter0_i_683_4258)">
<path d="M10 0H26L36 8L26 16H10L0 8L10 0Z" fill="#432B2B"/>
</g>
<path d="M1.60078 8L10.3508 1H25.6492L34.3992 8L25.6492 15H10.3508L1.60078 8Z" stroke="url(#paint0_linear_683_4258)" stroke-width="2"/>
<path d="M9.27172 11V6.76C9.27172 6.52 9.23705 6.328 9.16772 6.184C9.10372 6.03467 8.95172 5.96 8.71172 5.96H8.63172V5.72H10.8077C11.9064 5.72 12.7304 5.952 13.2797 6.416C13.8344 6.88 14.1117 7.51733 14.1117 8.328C14.1117 8.856 13.9917 9.32 13.7517 9.72C13.5171 10.12 13.1704 10.4347 12.7117 10.664C12.2531 10.888 11.6877 11 11.0157 11H9.27172ZM10.9917 10.68C11.3651 10.68 11.6957 10.5867 11.9837 10.4C12.2717 10.2133 12.4984 9.94667 12.6637 9.6C12.8291 9.25333 12.9117 8.84 12.9117 8.36C12.9117 7.89067 12.8291 7.48267 12.6637 7.136C12.5037 6.78933 12.2771 6.52 11.9837 6.328C11.6957 6.136 11.3597 6.04 10.9757 6.04C10.8584 6.04 10.7571 6.04267 10.6717 6.048C10.5864 6.05333 10.4664 6.06933 10.3117 6.096V10.624C10.4291 10.6453 10.5197 10.6613 10.5837 10.672C10.6531 10.6773 10.7171 10.68 10.7757 10.68C10.8344 10.68 10.9064 10.68 10.9917 10.68ZM16.6103 11.08C16.2157 11.08 15.8743 10.9947 15.5863 10.824C15.2983 10.648 15.077 10.4107 14.9223 10.112C14.7677 9.81333 14.6903 9.48267 14.6903 9.12C14.6903 8.752 14.7677 8.42133 14.9223 8.128C15.077 7.82933 15.2983 7.59467 15.5863 7.424C15.8743 7.248 16.2157 7.16 16.6103 7.16C17.0103 7.16 17.3517 7.248 17.6343 7.424C17.9223 7.59467 18.1437 7.82933 18.2983 8.128C18.453 8.42133 18.5303 8.752 18.5303 9.12C18.5303 9.48267 18.453 9.81333 18.2983 10.112C18.1437 10.4107 17.9223 10.648 17.6343 10.824C17.3517 10.9947 17.0103 11.08 16.6103 11.08ZM16.6103 10.72C16.797 10.72 16.9517 10.6507 17.0743 10.512C17.2023 10.3733 17.2957 10.184 17.3543 9.944C17.4183 9.69867 17.4503 9.424 17.4503 9.12C17.4503 8.81067 17.4183 8.536 17.3543 8.296C17.2957 8.056 17.2023 7.86667 17.0743 7.728C16.9517 7.58933 16.797 7.52 16.6103 7.52C16.4237 7.52 16.2663 7.58933 16.1383 7.728C16.0157 7.86667 15.9223 8.056 15.8583 8.296C15.7997 8.536 15.7703 8.81067 15.7703 9.12C15.7703 9.424 15.7997 9.69867 15.8583 9.944C15.9223 10.184 16.0157 10.3733 16.1383 10.512C16.2663 10.6507 16.4237 10.72 16.6103 10.72ZM19.4564 11V8.28C19.4564 8.04 19.4244 7.848 19.3604 7.704C19.2964 7.55467 19.1444 7.48 18.9044 7.48H18.8244V7.24H19.6164C19.7977 7.24 19.9391 7.264 20.0404 7.312C20.1471 7.35467 20.2297 7.42933 20.2884 7.536C20.3844 7.44533 20.5204 7.36 20.6964 7.28C20.8777 7.2 21.1311 7.16 21.4564 7.16C21.7924 7.16 22.0724 7.21067 22.2964 7.312C22.5204 7.41333 22.6884 7.57333 22.8004 7.792C22.9177 8.00533 22.9764 8.28533 22.9764 8.632V11H21.9364V8.624C21.9364 8.36267 21.9017 8.15467 21.8324 8C21.7684 7.84533 21.6804 7.73333 21.5684 7.664C21.4564 7.59467 21.3257 7.56 21.1764 7.56C21.0271 7.56 20.8937 7.57867 20.7764 7.616C20.6644 7.65333 20.5711 7.70133 20.4964 7.76V11H19.4564ZM25.554 11.08C25.1806 11.08 24.8553 10.9947 24.578 10.824C24.3006 10.6533 24.0873 10.4213 23.938 10.128C23.7886 9.82933 23.714 9.49333 23.714 9.12C23.714 8.69333 23.7913 8.336 23.946 8.048C24.1006 7.75467 24.3113 7.53333 24.578 7.384C24.8446 7.23467 25.1433 7.16 25.474 7.16C25.8046 7.16 26.1033 7.22667 26.37 7.36C26.6366 7.49333 26.8473 7.68 27.002 7.92C27.1566 8.16 27.234 8.44 27.234 8.76L27.202 9.264H24.794C24.794 9.792 24.874 10.168 25.034 10.392C25.1993 10.6107 25.4126 10.72 25.674 10.72C25.9513 10.72 26.1753 10.656 26.346 10.528C26.522 10.4 26.6793 10.2427 26.818 10.056L27.066 10.24C26.9913 10.3573 26.89 10.4827 26.762 10.616C26.6393 10.744 26.4793 10.8533 26.282 10.944C26.09 11.0347 25.8473 11.08 25.554 11.08ZM24.794 8.904H26.154C26.154 8.376 26.09 8.01333 25.962 7.816C25.8393 7.61867 25.6766 7.52 25.474 7.52C25.3566 7.52 25.2446 7.56267 25.138 7.648C25.0366 7.73333 24.954 7.87733 24.89 8.08C24.826 8.27733 24.794 8.552 24.794 8.904Z" fill="#FFD37E"/>
<defs>
<filter id="filter0_i_683_4258" x="0" y="0" width="36" height="20" filterUnits="userSpaceOnUse" color-interpolation-filters="sRGB">
<feFlood flood-opacity="0" result="BackgroundImageFix"/>
<feBlend mode="normal" in="SourceGraphic" in2="BackgroundImageFix" result="shape"/>
<feColorMatrix in="SourceAlpha" type="matrix" values="0 0 0 0 0 0 0 0 0 0 0 0 0 0 0 0 0 0 127 0" result="hardAlpha"/>
<feOffset dy="4"/>
<feGaussianBlur stdDeviation="15"/>
<feComposite in2="hardAlpha" operator="arithmetic" k2="-1" k3="1"/>
<feColorMatrix type="matrix" values="0 0 0 0 0 0 0 0 0 0 0 0 0 0 0 0 0 0 0.5 0"/>
<feBlend mode="normal" in2="shape" result="effect1_innerShadow_683_4258"/>
</filter>
<linearGradient id="paint0_linear_683_4258" x1="18" y1="0" x2="18" y2="16" gradientUnits="userSpaceOnUse">
<stop stop-color="#7A7369"/>
<stop offset="0.510417" stop-color="#EAC48B"/>
<stop offset="1" stop-color="#7A6969"/>
</linearGradient>
</defs>
</svg>
