<svg width="20" height="20" viewBox="0 0 9 10" fill="none" xmlns="http://www.w3.org/2000/svg">
<path d="M2.55556 7C2.55556 8.10457 3.42611 9 4.5 9C5.57389 9 6.44444 8.10457 6.44444 7V6.2C6.44444 5.33457 5.91004 4.59753 5.16213 4.31895M6.44444 3V3.2M4.5 5.8C4.2675 5.8 4.04453 5.75803 3.83787 5.68105M8 1.4L5.16213 4.31895M1 8.6L3.83787 5.68105M3.83787 5.68105L5.16213 4.31895M2.70957 4.58143C2.61041 4.34137 2.55556 4.07727 2.55556 3.8L2.55556 3C2.55556 1.89543 3.42611 1 4.5 1C4.97254 1 5.40572 1.17338 5.74267 1.46167" stroke="#FF8168" stroke-linecap="round"/>
</svg>
