<svg width="68" height="42" viewBox="0 0 68 42" fill="none" xmlns="http://www.w3.org/2000/svg">
<g id="Group 1261160119">
<path id="Vector" d="M33.6807 40.5861L54.4786 25.4748L46.5354 1.02319H20.826L12.8828 25.4748L33.6807 40.5861Z" fill="#104556"/>
<path id="Vector_2" d="M47.2778 0H20.084L11.6797 25.865L33.6809 41.8495L55.6821 25.865L47.2778 0ZM16.0264 24.4516L22.769 3.71371H44.5983L51.3381 24.4516L33.6891 37.2763L16.0264 24.4516Z" fill="url(#paint0_radial_606_3690)"/>
<g id="Vector_3" style="mix-blend-mode:multiply" opacity="0.3">
<path d="M22.7734 3.70264L33.6826 37.2761L44.5918 3.70264H22.7734Z" fill="#0C363D"/>
</g>
<path id="Vector_4" d="M47.28 0H20.0862L18.1406 5.98396C19.3984 6.04154 20.6504 6.18927 21.8871 6.42601L22.7739 3.69734H44.6032L51.343 24.4352L48.7726 26.3098C49.3526 27.433 49.862 28.5913 50.2979 29.7779L55.6843 25.865L47.28 0Z" fill="url(#paint1_radial_606_3690)"/>
<path id="Vector_5" style="mix-blend-mode:screen" d="M47.28 0H20.0862L18.1406 5.98396C19.3984 6.04154 20.6504 6.18927 21.8871 6.42601L22.7739 3.69734H44.6032L51.343 24.4352L48.7726 26.3098C49.3526 27.433 49.862 28.5913 50.2979 29.7779L55.6843 25.865L47.28 0Z" fill="url(#paint2_linear_606_3690)"/>
<path id="Vector_6" style="mix-blend-mode:screen" d="M45.79 33.0552C45.667 31.6715 45.4555 30.2971 45.1569 28.9404L33.6965 37.2765L16.0448 24.4517L20.8882 9.55322C19.5303 9.58547 18.178 9.73796 16.847 10.0089L11.6953 25.8652L33.6965 41.8497L45.79 33.0552Z" fill="url(#paint3_linear_606_3690)"/>
<path id="Vector_7" d="M16.0312 24.4514L17.7749 24.0585L23.8516 5.36167H43.5144L49.5884 24.0585L51.332 24.4514L44.5922 3.70264H22.7738L16.0312 24.4514Z" fill="#9E2C19"/>
<g id="Vector_8" style="mix-blend-mode:multiply" opacity="0.2">
<path d="M17.7812 24.0586L21.1784 15.3269C23.1922 10.1615 28.1665 7.9213 33.7112 7.9213C39.2777 7.9213 44.2711 10.1915 46.263 15.3869L49.5948 24.0586L43.518 5.36182H23.8553L17.7812 24.0586Z" fill="#892334"/>
</g>
<path id="Vector_9" d="M16.0312 24.4515L17.7749 24.0586L33.683 35.6172L49.5884 24.0586L51.332 24.4515L33.683 37.2762L16.0312 24.4515Z" fill="url(#paint4_linear_606_3690)"/>
<g id="Vector_10" style="mix-blend-mode:multiply" opacity="0.6">
<path d="M17.7812 24.0586L24.019 8.06319C24.1663 7.68593 24.424 7.36192 24.7585 7.13357C25.093 6.90523 25.4886 6.7832 25.8936 6.78345H41.5698C41.9765 6.7835 42.3736 6.90688 42.7088 7.13731C43.044 7.36773 43.3014 7.69437 43.4471 8.07411L49.5948 24.0586L43.518 5.36182H23.8553L17.7812 24.0586Z" fill="#892334"/>
</g>
<path id="Vector_11" d="M22.7734 3.70264L23.8513 5.36167H43.514L44.5918 3.70264H22.7734Z" fill="#681D15"/>
<g id="Vector_12" style="mix-blend-mode:multiply" opacity="0.35">
<path d="M14.6925 16.5903L12.586 24.4789C12.5159 24.8459 12.5449 25.225 12.6701 25.577C12.7953 25.9291 13.0121 26.2414 13.2982 26.4817L33.6731 41.8496L11.6719 25.8651L14.6925 16.5903Z" fill="#9E2C19"/>
</g>
<g id="Vector_13" style="mix-blend-mode:multiply" opacity="0.6">
<path d="M17.7812 24.0586L32.9499 34.2802C33.1703 34.4141 33.4233 34.485 33.6812 34.485C33.9391 34.485 34.1921 34.4141 34.4125 34.2802L49.5948 24.0586L33.6866 35.6227L17.7812 24.0586Z" fill="#892334"/>
</g>
<g id="Vector_14" style="mix-blend-mode:multiply" opacity="0.35">
<path d="M33.6797 41.8494L53.2715 26.7162C54.6358 25.7011 54.936 25.4801 54.322 23.5346L50.229 9.09448L55.6864 25.8649L33.6797 41.8494Z" fill="#9E2C19"/>
</g>
<path id="Vector_15" d="M23.9609 30.2117L33.6832 37.2762L46.8135 27.7368L33.6832 37.8738L23.9609 30.2117Z" fill="#FFF5CC"/>
<path id="Vector_16" d="M32.9453 0H47.279L50.2341 9.09464L46.7333 0.504805L32.9453 0Z" fill="#FFF5CC"/>
<g id="Vector_17" style="mix-blend-mode:screen">
<path d="M38.6493 0C38.532 1.17878 39.045 2.49673 40.0382 3.7028H44.5923L45.7165 7.1682C46.9949 7.51254 48.3392 7.5313 49.6267 7.22278L47.2801 0H38.6493Z" fill="#FFF2BB"/>
</g>
<g id="Vector_18" style="mix-blend-mode:screen">
<path d="M22.7749 29.3467C22.4284 30.2335 23.0478 31.5542 24.3057 32.4628C25.5636 33.3715 27.0071 33.5543 27.7411 32.9567L22.7749 29.3467Z" fill="#FFF2BB"/>
</g>
<g id="Vector_19" style="mix-blend-mode:screen">
<path d="M27.7726 35.3799C27.5625 35.7019 26.9841 35.6937 26.4765 35.3635C25.969 35.0334 25.7289 34.5067 25.9308 34.1848C26.1327 33.8628 26.7221 33.8682 27.2269 34.1848C27.7317 34.5013 27.9827 35.0579 27.7726 35.3799Z" fill="#FFF2BB"/>
</g>
<path id="Vector_20" d="M17.9351 0.182645L17.1165 7.06434C15.1464 7.06434 13.5011 7.04796 10.5405 7.05069C0.0651246 7.06434 0.0078125 0.149902 0.0078125 0.149902L17.9351 0.182645Z" fill="#681D15"/>
<path id="Vector_21" d="M17.9382 0.182917L16.1701 5.55839C14.1972 5.55839 13.8753 5.54202 10.9147 5.55839C0.439315 5.55839 0 0.163818 0 0.163818L17.9382 0.182917Z" fill="url(#paint5_radial_606_3690)"/>
<path id="Vector_22" d="M15.2877 8.35526L14.4691 15.2424C12.499 15.2424 14.8948 15.2424 11.9342 15.2424C1.45612 15.256 1.39062 8.32251 1.39062 8.32251L15.2877 8.35526Z" fill="#681D15"/>
<path id="Vector_23" d="M15.2877 8.35528L13.5386 13.7444C11.5658 13.7444 15.2877 13.728 12.3271 13.7444C1.84086 13.7444 1.39062 8.33618 1.39062 8.33618L15.2877 8.35528Z" fill="url(#paint6_radial_606_3690)"/>
<path id="Vector_24" d="M12.633 16.522L5.26562 16.4919C5.26562 16.4919 6.42531 21.6764 11.8144 23.4091L12.633 16.522Z" fill="#681D15"/>
<path id="Vector_25" d="M12.633 16.522L5.26562 16.4919C5.26562 16.4919 5.49483 20.1784 10.8921 21.9138L12.633 16.522Z" fill="url(#paint7_radial_606_3690)"/>
<path id="Vector_26" d="M17.94 0.182617L18.8241 1.89076L17.1078 7.06431L16.1719 5.55809L17.94 0.182617Z" fill="#9E2C19"/>
<path id="Vector_27" d="M15.2881 8.35522L16.175 10.047L14.4695 15.2424L13.5391 13.7443L15.2881 8.35522Z" fill="#9E2C19"/>
<path id="Vector_28" d="M12.6241 16.5303L13.5082 18.222L11.8055 23.4147L10.875 21.9194L12.6241 16.5303Z" fill="#9E2C19"/>
<path id="Vector_29" d="M49.4297 0.182645L50.2619 7.06434C52.2348 7.06434 53.8801 7.04796 56.838 7.05069C67.3161 7.06434 67.3707 0.149902 67.3707 0.149902L49.4297 0.182645Z" fill="#681D15"/>
<path id="Vector_30" d="M49.4297 0.182917L51.2006 5.55839C53.1707 5.55839 53.4954 5.54202 56.4533 5.55839C66.9313 5.55839 67.3679 0.163818 67.3679 0.163818L49.4297 0.182917Z" fill="url(#paint8_radial_606_3690)"/>
<path id="Vector_31" d="M52.0859 8.35526L52.9045 15.2424C54.8746 15.2424 52.4789 15.2424 55.4367 15.2424C65.9148 15.256 65.983 8.32251 65.983 8.32251L52.0859 8.35526Z" fill="#681D15"/>
<path id="Vector_32" d="M52.0859 8.35528L53.8377 13.7444C55.8078 13.7444 52.0887 13.728 55.0465 13.7444C65.5246 13.7444 65.9858 8.33618 65.9858 8.33618L52.0859 8.35528Z" fill="url(#paint9_radial_606_3690)"/>
<path id="Vector_33" d="M54.7344 16.522L62.1181 16.4919C62.1181 16.4919 60.9585 21.6764 55.5693 23.4091L54.7344 16.522Z" fill="#681D15"/>
<path id="Vector_34" d="M54.7344 16.522L62.1181 16.4919C62.1181 16.4919 61.8889 20.1784 56.4889 21.9138L54.7344 16.522Z" fill="url(#paint10_radial_606_3690)"/>
<path id="Vector_35" style="mix-blend-mode:screen" d="M49.4297 0.182917L51.2006 5.55839C53.1707 5.55839 53.4954 5.54202 56.4533 5.55839C66.9313 5.55839 67.3679 0.163818 67.3679 0.163818L49.4297 0.182917Z" fill="url(#paint11_linear_606_3690)"/>
<path id="Vector_36" style="mix-blend-mode:screen" d="M52.0859 8.35528L53.8377 13.7444C55.8078 13.7444 52.0887 13.728 55.0465 13.7444C65.5246 13.7444 65.9858 8.33618 65.9858 8.33618L52.0859 8.35528Z" fill="url(#paint12_linear_606_3690)"/>
<path id="Vector_37" style="mix-blend-mode:screen" d="M54.7344 16.522L62.1181 16.4919C62.1181 16.4919 61.8889 20.1784 56.4889 21.9138L54.7344 16.522Z" fill="url(#paint13_linear_606_3690)"/>
<path id="Vector_38" d="M49.4232 0.182617L48.5391 1.89076L50.2554 7.06431L51.1941 5.55809L49.4232 0.182617Z" fill="#9E2C19"/>
<path id="Vector_39" d="M52.0794 8.35522L51.1953 10.047L52.9007 15.2424L53.8312 13.7443L52.0794 8.35522Z" fill="#9E2C19"/>
<path id="Vector_40" d="M54.7384 16.5303L53.8516 18.222L55.557 23.4147L56.4874 21.9194L54.7384 16.5303Z" fill="#9E2C19"/>
<path id="Vector_41" style="mix-blend-mode:screen" d="M17.9382 0.182645L0 0.149902C0 0.149902 0.442043 5.55539 10.9147 5.54447C13.8753 5.54447 14.1891 5.54447 16.1701 5.54447L17.9382 0.182645Z" fill="url(#paint14_linear_606_3690)"/>
<path id="Vector_42" style="mix-blend-mode:screen" d="M12.633 16.522L5.26562 16.4919C5.26562 16.4919 5.49483 20.1784 10.8921 21.9138L12.633 16.522Z" fill="url(#paint15_linear_606_3690)"/>
<path id="Vector_43" style="mix-blend-mode:screen" d="M13.5418 13.7443L14.5732 10.5681C13.1859 11.0163 11.8553 11.6244 10.6084 12.38C10.1036 12.691 9.51698 13.073 8.85938 13.5014C10.0092 13.6624 11.1692 13.7391 12.3302 13.7306C15.2908 13.7279 11.5689 13.7361 13.5418 13.7443Z" fill="url(#paint16_linear_606_3690)"/>
<g id="Vector_44" style="mix-blend-mode:multiply" opacity="0.35">
<path d="M15.1953 15.065L19.7904 1.89097C20.2652 0.551192 20.609 0.199193 22.0279 0.150077L33.6875 0H20.0905L15.1953 15.065Z" fill="#9E2C19"/>
</g>
<g id="Vector_45" style="mix-blend-mode:screen">
<path d="M37.79 2.06004C36.8404 1.36969 35.6943 1.32603 35.2305 1.96181C34.9003 2.42023 35.0122 3.09967 35.4515 3.70543H38.8596C38.8028 3.37278 38.6786 3.05525 38.4946 2.77232C38.3107 2.48938 38.0709 2.247 37.79 2.06004Z" fill="#FFF2BB"/>
</g>
<g id="Vector_46" style="mix-blend-mode:multiply" opacity="0.6">
<path d="M39.2639 21.4882L42.0772 16.6175V15.125L36.4534 16.6175L33.6402 11.7441L30.8269 16.6175L25.2031 15.125V16.6175L28.0136 21.4882L25.2031 24.869V26.3589H30.8269L33.6402 31.2323L36.4534 26.3589H42.0772V24.869L39.2639 21.4882Z" fill="#892334"/>
</g>
<path id="Vector_47" d="M39.2639 19.9982L42.0772 15.1248V13.3048L36.4534 15.1248L33.6402 10.2542L30.8269 15.1248L25.2031 13.3048V15.1248L28.0136 19.9982L25.2031 23.0461V24.8689H30.8269L33.6402 29.7395L36.4534 24.8689H42.0772V23.0461L39.2639 19.9982Z" fill="#9E2C19"/>
<path id="Vector_48" d="M39.2639 18.1755L42.0772 13.3048H36.4534L33.6402 8.4314L30.8269 13.3048H25.2031L28.0136 18.1755L25.2031 23.0461H30.8269L33.6402 27.9195L36.4534 23.0461H42.0772L39.2639 18.1755Z" fill="url(#paint17_radial_606_3690)"/>
<path id="Vector_49" d="M42.0796 23.0461H36.4531V24.8689H42.0796V23.0461Z" fill="#681D15"/>
<path id="Vector_50" d="M30.8269 24.8689L33.6402 29.7396V27.9195L30.8269 23.0461H25.2031V24.8689H30.8269Z" fill="#681D15"/>
<path id="Vector_51" style="mix-blend-mode:screen" d="M31.7192 11.7576L30.8269 13.3047H25.2031L28.0136 18.1754L25.2031 23.0461H30.8269L33.6402 27.9194L36.4534 23.0461H42.0772L39.2639 18.1754L39.5805 17.6297C37.4024 15.1409 34.7236 13.1399 31.7192 11.7576Z" fill="url(#paint18_linear_606_3690)"/>
<path id="Vector_52" d="M25.2031 13.3049L28.0136 18.1756L27.487 19.087L25.2031 15.125V13.3049Z" fill="#681D15"/>
<g id="Vector_53" style="mix-blend-mode:multiply" opacity="0.35">
<path d="M25.2031 13.3049L28.5048 17.4907C28.8814 17.9955 28.996 18.1756 28.5048 18.855L25.2031 23.0408L28.0136 18.1701L25.2031 13.3049Z" fill="#9E2C19"/>
</g>
<g id="Vector_54" style="mix-blend-mode:screen" opacity="0.8">
<path d="M33.6406 8.4314L36.3529 13.7823L42.0777 13.3048H36.4539L33.6406 8.4314Z" fill="#FFE67B"/>
</g>
<g id="Vector_55" style="mix-blend-mode:screen" opacity="0.5">
<path d="M25.2031 23.0465L31.3563 22.5171L33.6402 27.9198L30.8269 23.0465H25.2031Z" fill="#FFE67B"/>
</g>
<g id="Vector_56" style="mix-blend-mode:multiply" opacity="0.35">
<path d="M33.6406 27.9194L35.8236 22.544C36.0637 22.031 36.3693 21.9764 36.7431 22.0446L42.0667 23.0461H36.4539L33.6406 27.9194Z" fill="#9E2C19"/>
</g>
<path id="Vector_57" style="mix-blend-mode:screen" d="M40.6502 15.7826L42.08 13.3049H37.5859C38.6483 14.0781 39.6697 14.9039 40.6502 15.7826Z" fill="url(#paint19_linear_606_3690)"/>
<path id="Vector_58" style="mix-blend-mode:screen" d="M35.6971 11.9923L33.6424 8.4314L32.6328 10.1805C33.6733 10.7371 34.6948 11.3411 35.6971 11.9923Z" fill="url(#paint20_linear_606_3690)"/>
<path id="Vector_59" d="M35.6876 17.9792C35.251 18.7378 33.9576 18.7978 32.8007 18.1402C31.6437 17.4826 31.0598 16.3175 31.4964 15.5616C31.933 14.8058 33.2263 14.743 34.3833 15.4006C35.5403 16.0582 36.1242 17.2234 35.6876 17.9792Z" fill="#FCE265"/>
<path id="Vector_60" d="M31.5043 18.4319C31.3652 18.6748 30.904 18.6693 30.4756 18.4319C30.0472 18.1945 29.8153 17.7879 29.9544 17.5451C30.0936 17.3022 30.5547 17.3077 30.9831 17.5451C31.4115 17.7825 31.6435 18.2 31.5043 18.4319Z" fill="#FCE265"/>
<g id="Vector_61" style="mix-blend-mode:multiply" opacity="0.35">
<path fill-rule="evenodd" clip-rule="evenodd" d="M53.4927 5.14879C52.2975 5.03146 51.4625 4.60306 50.9195 3.52796L49.4297 0.182617L51.2006 5.55809C53.1707 5.55809 53.4954 5.54172 56.4533 5.55809C57.8886 5.57323 59.3222 5.45171 60.7345 5.19518C58.3258 5.43729 55.8981 5.42174 53.4927 5.14879Z" fill="#9E2C19"/>
</g>
<g id="Vector_62" style="mix-blend-mode:multiply" opacity="0.35">
<path fill-rule="evenodd" clip-rule="evenodd" d="M55.0465 13.7307C57.5815 13.7307 59.5297 13.4169 61.025 12.9394C59.2866 13.4043 57.4808 13.564 55.6878 13.4114C54.7409 13.3541 53.9714 12.6583 53.5703 11.7988L52.0859 8.35522L53.8377 13.7443C55.8024 13.7362 52.0805 13.728 55.0465 13.7307Z" fill="#9E2C19"/>
</g>
<g id="Vector_63" style="mix-blend-mode:multiply" opacity="0.35">
<path fill-rule="evenodd" clip-rule="evenodd" d="M56.494 21.9193C57.4979 21.6095 58.4519 21.1564 59.3263 20.574C58.509 20.8314 57.6722 21.0221 56.8242 21.1443L54.7422 16.522L56.494 21.9193Z" fill="#9E2C19"/>
</g>
<g id="Vector_64" style="mix-blend-mode:multiply" opacity="0.35">
<path d="M10.9174 5.54473C13.878 5.54473 14.1918 5.54473 16.1728 5.54473L17.5753 1.28529L16.533 3.61011C16.0309 4.83528 15.7335 5.2473 14.511 5.2473C13.1931 5.2473 10.7073 5.23093 9.4439 5.18182C3.94292 4.96625 0.712181 2.58959 0 0.133789C0 0.150161 0.442046 5.55565 10.9174 5.54473Z" fill="#9E2C19"/>
</g>
<g id="Vector_65" style="mix-blend-mode:multiply" opacity="0.35">
<path d="M13.7676 12.1562C13.4347 12.8547 13.0773 13.4386 12.305 13.4114C11.5328 13.3841 9.25986 13.3677 7.98012 13.0785C5.00314 12.4072 3.22678 11.2994 2.02344 9.9405C3.03577 11.5368 5.64165 13.7388 12.3241 13.7306C15.2847 13.7306 11.5628 13.7306 13.5357 13.7306L14.9819 9.27197L13.7676 12.1562Z" fill="#9E2C19"/>
</g>
<g id="Vector_66" style="mix-blend-mode:multiply" opacity="0.35">
<path d="M10.8737 21.9194L12.4045 17.2179C12.118 17.8182 11.5477 19.2044 10.9692 20.4923C10.5763 21.3655 10.2025 21.2563 9.6049 21.0025C6.60337 19.7474 5.89665 18.2548 5.25814 16.5002C5.24723 16.4975 5.47644 20.1839 10.8737 21.9194Z" fill="#9E2C19"/>
</g>
<path id="Vector_67" d="M49.4297 0.182903L65.8371 0.455769C66.4975 0.469413 66.8031 0.963301 66.5193 1.54724C66.152 2.3218 65.6169 3.005 64.953 3.54735C67.2178 2.00838 67.3707 0.133789 67.3707 0.133789L49.4297 0.166532V0.182903Z" fill="#FFF5CC"/>
<path id="Vector_68" d="M52.0859 8.35526L64.1903 8.64176C65.6065 8.67178 65.3745 9.27208 65.0089 10.0061C64.7639 10.5067 64.4437 10.9668 64.0593 11.3704C65.8493 9.91332 65.9858 8.32251 65.9858 8.32251L52.0859 8.35526Z" fill="#FFF5CC"/>
<path id="Vector_69" d="M60.8486 19.2069C62.0355 17.7907 62.1174 16.4973 62.1174 16.4973L54.75 16.5273L60.8458 16.7838C61.7463 16.8384 61.5826 17.1768 61.4762 17.6024C61.3462 18.165 61.1348 18.7055 60.8486 19.2069Z" fill="#FFF5CC"/>
<g id="Vector_70" style="mix-blend-mode:screen" opacity="0.5">
<path d="M4.76562 0.149902L17.9369 0.182645L17.4949 1.52788C17.4949 0.837527 17.1674 0.488259 16.3734 0.480073L4.76562 0.149902Z" fill="#FFE67B"/>
</g>
<g id="Vector_71" style="mix-blend-mode:screen" opacity="0.5">
<path d="M4.76562 8.35522H15.2819L14.7989 9.8478L14.8508 9.35119C14.8753 8.88458 14.7089 8.63901 13.8575 8.59808L4.76562 8.35522Z" fill="#FFE67B"/>
</g>
<g id="Vector_72" style="mix-blend-mode:screen" opacity="0.5">
<path d="M6.67188 16.5029L12.634 16.5275L12.181 17.9164L12.1538 17.2724C12.1374 16.9122 12.0392 16.7894 11.548 16.7567L6.67188 16.5029Z" fill="#FFE67B"/>
</g>
<g id="Vector_73" style="mix-blend-mode:screen">
<path d="M51.203 5.55817H54.1063C55.9645 4.39303 57.2033 2.66306 57.3807 0.646577C57.3807 0.491043 57.3997 0.33278 57.3997 0.177246L49.4375 0.193617L51.203 5.55817Z" fill="#FFF2BB"/>
</g>
<path id="Vector_74" style="mix-blend-mode:screen" d="M1.39062 8.33618C1.50397 9.03987 1.79514 9.70297 2.23652 10.2626C3.37983 9.61592 4.65411 8.95286 6.01571 8.35255L1.39062 8.33618Z" fill="url(#paint21_linear_606_3690)"/>
</g>
<defs>
<radialGradient id="paint0_radial_606_3690" cx="0" cy="0" r="1" gradientUnits="userSpaceOnUse" gradientTransform="translate(45.436 1.39708) scale(34.9024 34.9023)">
<stop offset="0.01" stop-color="#E8B321"/>
<stop offset="1" stop-color="#E36C0B"/>
</radialGradient>
<radialGradient id="paint1_radial_606_3690" cx="0" cy="0" r="1" gradientUnits="userSpaceOnUse" gradientTransform="translate(51.7905 -3.35353) scale(48.2865 48.2864)">
<stop offset="0.01" stop-color="#E8B321"/>
<stop offset="1" stop-color="#E36C0B"/>
</radialGradient>
<linearGradient id="paint2_linear_606_3690" x1="53.8725" y1="-6.78892" x2="31.9859" y2="20.2085" gradientUnits="userSpaceOnUse">
<stop stop-color="#FFE969"/>
<stop offset="0.11" stop-color="#FEE467"/>
<stop offset="0.24" stop-color="#FBD560"/>
<stop offset="0.38" stop-color="#F7BC55"/>
<stop offset="0.53" stop-color="#F09A45"/>
<stop offset="0.69" stop-color="#E86D31"/>
<stop offset="0.85" stop-color="#DE3819"/>
<stop offset="1" stop-color="#D40000"/>
</linearGradient>
<linearGradient id="paint3_linear_606_3690" x1="19.019" y1="36.9381" x2="38.1552" y2="12.9559" gradientUnits="userSpaceOnUse">
<stop stop-color="#D40000"/>
<stop offset="1" stop-color="#FFE447"/>
</linearGradient>
<linearGradient id="paint4_linear_606_3690" x1="33.683" y1="21.0025" x2="33.683" y2="28.2935" gradientUnits="userSpaceOnUse">
<stop offset="0.63" stop-color="#F7D24A"/>
<stop offset="1" stop-color="#F7E399"/>
</linearGradient>
<radialGradient id="paint5_radial_606_3690" cx="0" cy="0" r="1" gradientUnits="userSpaceOnUse" gradientTransform="translate(23.9468 -5.45996) scale(38.7388 38.7389)">
<stop offset="0.01" stop-color="#E8B321"/>
<stop offset="1" stop-color="#E36C0B"/>
</radialGradient>
<radialGradient id="paint6_radial_606_3690" cx="0" cy="0" r="1" gradientUnits="userSpaceOnUse" gradientTransform="translate(23.9485 -5.45995) scale(38.7389 38.7389)">
<stop offset="0.01" stop-color="#E8B321"/>
<stop offset="1" stop-color="#E36C0B"/>
</radialGradient>
<radialGradient id="paint7_radial_606_3690" cx="0" cy="0" r="1" gradientUnits="userSpaceOnUse" gradientTransform="translate(23.9488 -5.46016) scale(38.7389 38.7388)">
<stop offset="0.01" stop-color="#E8B321"/>
<stop offset="1" stop-color="#E36C0B"/>
</radialGradient>
<radialGradient id="paint8_radial_606_3690" cx="0" cy="0" r="1" gradientUnits="userSpaceOnUse" gradientTransform="translate(47.4541 0.829612) scale(40.0322 40.0322)">
<stop offset="0.01" stop-color="#E8B321"/>
<stop offset="1" stop-color="#E36C0B"/>
</radialGradient>
<radialGradient id="paint9_radial_606_3690" cx="0" cy="0" r="1" gradientUnits="userSpaceOnUse" gradientTransform="translate(47.4554 0.829624) scale(40.0322 40.0323)">
<stop offset="0.01" stop-color="#E8B321"/>
<stop offset="1" stop-color="#E36C0B"/>
</radialGradient>
<radialGradient id="paint10_radial_606_3690" cx="0" cy="0" r="1" gradientUnits="userSpaceOnUse" gradientTransform="translate(47.4488 0.829412) scale(40.035 40.035)">
<stop offset="0.01" stop-color="#E8B321"/>
<stop offset="1" stop-color="#E36C0B"/>
</radialGradient>
<linearGradient id="paint11_linear_606_3690" x1="60.6663" y1="-2.52392" x2="39.5028" y2="26.2417" gradientUnits="userSpaceOnUse">
<stop stop-color="#FFE969"/>
<stop offset="0.11" stop-color="#FEE467"/>
<stop offset="0.24" stop-color="#FBD560"/>
<stop offset="0.38" stop-color="#F7BC55"/>
<stop offset="0.53" stop-color="#F09A45"/>
<stop offset="0.69" stop-color="#E86D31"/>
<stop offset="0.85" stop-color="#DE3819"/>
<stop offset="1" stop-color="#D40000"/>
</linearGradient>
<linearGradient id="paint12_linear_606_3690" x1="64.9816" y1="0.646802" x2="43.8153" y2="29.4151" gradientUnits="userSpaceOnUse">
<stop stop-color="#FFE969"/>
<stop offset="0.11" stop-color="#FEE467"/>
<stop offset="0.24" stop-color="#FBD560"/>
<stop offset="0.38" stop-color="#F7BC55"/>
<stop offset="0.53" stop-color="#F09A45"/>
<stop offset="0.69" stop-color="#E86D31"/>
<stop offset="0.85" stop-color="#DE3819"/>
<stop offset="1" stop-color="#D40000"/>
</linearGradient>
<linearGradient id="paint13_linear_606_3690" x1="68.5387" y1="3.27157" x2="47.3752" y2="32.0371" gradientUnits="userSpaceOnUse">
<stop stop-color="#FFE969"/>
<stop offset="0.11" stop-color="#FEE467"/>
<stop offset="0.24" stop-color="#FBD560"/>
<stop offset="0.38" stop-color="#F7BC55"/>
<stop offset="0.53" stop-color="#F09A45"/>
<stop offset="0.69" stop-color="#E86D31"/>
<stop offset="0.85" stop-color="#DE3819"/>
<stop offset="1" stop-color="#D40000"/>
</linearGradient>
<linearGradient id="paint14_linear_606_3690" x1="29.1203" y1="-25.7342" x2="7.95405" y2="3.03137" gradientUnits="userSpaceOnUse">
<stop stop-color="#FFE969"/>
<stop offset="0.11" stop-color="#FEE467"/>
<stop offset="0.24" stop-color="#FBD560"/>
<stop offset="0.38" stop-color="#F7BC55"/>
<stop offset="0.53" stop-color="#F09A45"/>
<stop offset="0.69" stop-color="#E86D31"/>
<stop offset="0.85" stop-color="#DE3819"/>
<stop offset="1" stop-color="#D40000"/>
</linearGradient>
<linearGradient id="paint15_linear_606_3690" x1="2.66521" y1="27.3357" x2="19.0918" y2="2.61123" gradientUnits="userSpaceOnUse">
<stop stop-color="#D40000"/>
<stop offset="1" stop-color="#FFE447"/>
</linearGradient>
<linearGradient id="paint16_linear_606_3690" x1="2.26692" y1="27.0711" x2="18.6935" y2="2.34393" gradientUnits="userSpaceOnUse">
<stop stop-color="#D40000"/>
<stop offset="1" stop-color="#FFE447"/>
</linearGradient>
<radialGradient id="paint17_radial_606_3690" cx="0" cy="0" r="1" gradientUnits="userSpaceOnUse" gradientTransform="translate(48.4759 0.742024) scale(39.8439 39.844)">
<stop offset="0.01" stop-color="#E8B321"/>
<stop offset="1" stop-color="#E36C0B"/>
</radialGradient>
<linearGradient id="paint18_linear_606_3690" x1="24.8511" y1="31.4312" x2="40.9694" y2="7.12157" gradientUnits="userSpaceOnUse">
<stop stop-color="#D40000"/>
<stop offset="1" stop-color="#FFE447"/>
</linearGradient>
<linearGradient id="paint19_linear_606_3690" x1="51.3111" y1="-3.70008" x2="32.0468" y2="25.1337" gradientUnits="userSpaceOnUse">
<stop stop-color="#FFE969"/>
<stop offset="0.11" stop-color="#FEE467"/>
<stop offset="0.24" stop-color="#FBD560"/>
<stop offset="0.38" stop-color="#F7BC55"/>
<stop offset="0.53" stop-color="#F09A45"/>
<stop offset="0.69" stop-color="#E86D31"/>
<stop offset="0.85" stop-color="#DE3819"/>
<stop offset="1" stop-color="#D40000"/>
</linearGradient>
<linearGradient id="paint20_linear_606_3690" x1="46.2325" y1="-7.09469" x2="26.9682" y2="21.7392" gradientUnits="userSpaceOnUse">
<stop stop-color="#FFE969"/>
<stop offset="0.11" stop-color="#FEE467"/>
<stop offset="0.24" stop-color="#FBD560"/>
<stop offset="0.38" stop-color="#F7BC55"/>
<stop offset="0.53" stop-color="#F09A45"/>
<stop offset="0.69" stop-color="#E86D31"/>
<stop offset="0.85" stop-color="#DE3819"/>
<stop offset="1" stop-color="#D40000"/>
</linearGradient>
<linearGradient id="paint21_linear_606_3690" x1="28.8901" y1="-25.9031" x2="7.72389" y2="2.8625" gradientUnits="userSpaceOnUse">
<stop stop-color="#FFE969"/>
<stop offset="0.11" stop-color="#FEE467"/>
<stop offset="0.24" stop-color="#FBD560"/>
<stop offset="0.38" stop-color="#F7BC55"/>
<stop offset="0.53" stop-color="#F09A45"/>
<stop offset="0.69" stop-color="#E86D31"/>
<stop offset="0.85" stop-color="#DE3819"/>
<stop offset="1" stop-color="#D40000"/>
</linearGradient>
</defs>
</svg>
