<svg width="43" height="42" viewBox="0 0 43 42" fill="none" xmlns="http://www.w3.org/2000/svg">
<g id="Group 1261159495">
<path id="Vector" d="M21.2037 13H16V29H24.2951V26.3712H27V19.7994L21.2037 13ZM24.2951 26.346H18.7049V15.654H19.9415L24.2951 20.7599V26.346Z" fill="url(#paint0_linear_1274_7312)"/>
<g id="Group 1261159491">
<path id="Vector_2" d="M31.1094 32.2427L32.0129 34.5725L34.5079 34.7101L32.5679 36.2879L33.21 38.7049L31.1094 37.3473L29.0089 38.7049L29.6464 36.2879L27.7109 34.7101L30.2059 34.5725L31.1094 32.2427Z" fill="url(#paint1_linear_1274_7312)"/>
<path id="Vector_3" d="M11.1283 32.2427L12.0318 34.5725L14.5268 34.7101L12.5913 36.2879L13.2288 38.7049L11.1283 37.3473L9.03232 38.7049L9.66982 36.2879L7.73438 34.7101L10.2294 34.5725L11.1283 32.2427Z" fill="url(#paint2_linear_1274_7312)"/>
<path id="Vector_4" d="M38.8438 29L39.7427 31.3299L42.2377 31.4675L40.3023 33.0498L40.9444 35.4622L38.8438 34.1092L36.7433 35.4622L37.3808 33.0498L35.4453 31.4675L37.9403 31.3299L38.8438 29Z" fill="url(#paint3_linear_1274_7312)"/>
<path id="Vector_5" d="M3.3985 29L4.29742 31.3299L6.79241 31.4675L4.85696 33.0498L5.49446 35.4622L3.3985 34.1092L1.29794 35.4622L1.93544 33.0498L0 31.4675L2.49498 31.3299L3.3985 29Z" fill="url(#paint4_linear_1274_7312)"/>
<path id="Vector_6" d="M21.1181 32.761L22.3289 35.8889L25.6816 36.0769L23.0811 38.1958L23.9387 41.443L21.1181 39.6222L18.2975 41.443L19.1552 38.1958L16.5547 36.0769L19.9073 35.8889L21.1181 32.761Z" fill="url(#paint5_linear_1274_7312)"/>
</g>
<g id="Group 1261159492">
<path id="Vector_7" d="M31.1094 9.2002L32.0129 6.87033L34.5079 6.73273L32.5679 5.15502L33.21 2.73801L31.1094 4.09557L29.0089 2.73801L29.6464 5.15502L27.7109 6.73273L30.2059 6.87033L31.1094 9.2002Z" fill="url(#paint6_linear_1274_7312)"/>
<path id="Vector_8" d="M11.1283 9.2002L12.0318 6.87033L14.5268 6.73273L12.5913 5.15502L13.2288 2.73801L11.1283 4.09557L9.03232 2.73801L9.66982 5.15502L7.73438 6.73273L10.2294 6.87033L11.1283 9.2002Z" fill="url(#paint7_linear_1274_7312)"/>
<path id="Vector_9" d="M38.8438 12.4429L39.7427 10.113L42.2377 9.9754L40.3023 8.39312L40.9444 5.98068L38.8438 7.33365L36.7433 5.98068L37.3808 8.39312L35.4453 9.9754L37.9403 10.113L38.8438 12.4429Z" fill="url(#paint8_linear_1274_7312)"/>
<path id="Vector_10" d="M3.3985 12.4429L4.29742 10.113L6.79241 9.9754L4.85696 8.39312L5.49446 5.98068L3.3985 7.33365L1.29794 5.98068L1.93544 8.39312L0 9.9754L2.49498 10.113L3.3985 12.4429Z" fill="url(#paint9_linear_1274_7312)"/>
<path id="Vector_11" d="M21.1181 8.68188L22.3289 5.55399L25.6816 5.36595L23.0811 3.24705L23.9387 -0.000102043L21.1181 1.82069L18.2975 -0.000102043L19.1552 3.24705L16.5547 5.36595L19.9073 5.55399L21.1181 8.68188Z" fill="url(#paint10_linear_1274_7312)"/>
</g>
</g>
<defs>
<linearGradient id="paint0_linear_1274_7312" x1="17.0476" y1="14.8065" x2="22.9186" y2="30.091" gradientUnits="userSpaceOnUse">
<stop stop-color="#FBC01B"/>
<stop offset="0.185" stop-color="#FFF5A8"/>
<stop offset="0.295" stop-color="#FFF5A8"/>
<stop offset="0.435" stop-color="#E7CA6A"/>
<stop offset="0.52" stop-color="#CA9922"/>
<stop offset="0.6" stop-color="#BD8100"/>
<stop offset="1" stop-color="#FFF5A8"/>
</linearGradient>
<linearGradient id="paint1_linear_1274_7312" x1="31.1094" y1="38.7049" x2="31.1094" y2="32.2427" gradientUnits="userSpaceOnUse">
<stop stop-color="#F8DA5B"/>
<stop offset="0.09" stop-color="#DCB749"/>
<stop offset="0.19" stop-color="#C39938"/>
<stop offset="0.27" stop-color="#B3872F"/>
<stop offset="0.33" stop-color="#AE802B"/>
<stop offset="0.34" stop-color="#B58930"/>
<stop offset="0.42" stop-color="#E5C34F"/>
<stop offset="0.46" stop-color="#F8DA5B"/>
<stop offset="0.51" stop-color="#FAE783"/>
<stop offset="0.58" stop-color="#FDF9BD"/>
<stop offset="0.61" stop-color="#F7F0AF"/>
<stop offset="0.74" stop-color="#E5D384"/>
<stop offset="0.8" stop-color="#DEC874"/>
<stop offset="0.93" stop-color="#F3EAA6"/>
<stop offset="1" stop-color="#FDF9BD"/>
</linearGradient>
<linearGradient id="paint2_linear_1274_7312" x1="11.1329" y1="38.7049" x2="11.1329" y2="32.2427" gradientUnits="userSpaceOnUse">
<stop stop-color="#F8DA5B"/>
<stop offset="0.09" stop-color="#DCB749"/>
<stop offset="0.19" stop-color="#C39938"/>
<stop offset="0.27" stop-color="#B3872F"/>
<stop offset="0.33" stop-color="#AE802B"/>
<stop offset="0.34" stop-color="#B58930"/>
<stop offset="0.42" stop-color="#E5C34F"/>
<stop offset="0.46" stop-color="#F8DA5B"/>
<stop offset="0.51" stop-color="#FAE783"/>
<stop offset="0.58" stop-color="#FDF9BD"/>
<stop offset="0.61" stop-color="#F7F0AF"/>
<stop offset="0.74" stop-color="#E5D384"/>
<stop offset="0.8" stop-color="#DEC874"/>
<stop offset="0.93" stop-color="#F3EAA6"/>
<stop offset="1" stop-color="#FDF9BD"/>
</linearGradient>
<linearGradient id="paint3_linear_1274_7312" x1="38.8438" y1="35.4622" x2="38.8438" y2="29" gradientUnits="userSpaceOnUse">
<stop stop-color="#F8DA5B"/>
<stop offset="0.09" stop-color="#DCB749"/>
<stop offset="0.19" stop-color="#C39938"/>
<stop offset="0.27" stop-color="#B3872F"/>
<stop offset="0.33" stop-color="#AE802B"/>
<stop offset="0.34" stop-color="#B58930"/>
<stop offset="0.42" stop-color="#E5C34F"/>
<stop offset="0.46" stop-color="#F8DA5B"/>
<stop offset="0.51" stop-color="#FAE783"/>
<stop offset="0.58" stop-color="#FDF9BD"/>
<stop offset="0.61" stop-color="#F7F0AF"/>
<stop offset="0.74" stop-color="#E5D384"/>
<stop offset="0.8" stop-color="#DEC874"/>
<stop offset="0.93" stop-color="#F3EAA6"/>
<stop offset="1" stop-color="#FDF9BD"/>
</linearGradient>
<linearGradient id="paint4_linear_1274_7312" x1="3.3985" y1="35.4622" x2="3.3985" y2="29" gradientUnits="userSpaceOnUse">
<stop stop-color="#F8DA5B"/>
<stop offset="0.09" stop-color="#DCB749"/>
<stop offset="0.19" stop-color="#C39938"/>
<stop offset="0.27" stop-color="#B3872F"/>
<stop offset="0.33" stop-color="#AE802B"/>
<stop offset="0.34" stop-color="#B58930"/>
<stop offset="0.42" stop-color="#E5C34F"/>
<stop offset="0.46" stop-color="#F8DA5B"/>
<stop offset="0.51" stop-color="#FAE783"/>
<stop offset="0.58" stop-color="#FDF9BD"/>
<stop offset="0.61" stop-color="#F7F0AF"/>
<stop offset="0.74" stop-color="#E5D384"/>
<stop offset="0.8" stop-color="#DEC874"/>
<stop offset="0.93" stop-color="#F3EAA6"/>
<stop offset="1" stop-color="#FDF9BD"/>
</linearGradient>
<linearGradient id="paint5_linear_1274_7312" x1="21.1181" y1="41.443" x2="21.1181" y2="32.761" gradientUnits="userSpaceOnUse">
<stop stop-color="#F8DA5B"/>
<stop offset="0.09" stop-color="#DCB749"/>
<stop offset="0.19" stop-color="#C39938"/>
<stop offset="0.27" stop-color="#B3872F"/>
<stop offset="0.33" stop-color="#AE802B"/>
<stop offset="0.34" stop-color="#B58930"/>
<stop offset="0.42" stop-color="#E5C34F"/>
<stop offset="0.46" stop-color="#F8DA5B"/>
<stop offset="0.51" stop-color="#FAE783"/>
<stop offset="0.58" stop-color="#FDF9BD"/>
<stop offset="0.61" stop-color="#F7F0AF"/>
<stop offset="0.74" stop-color="#E5D384"/>
<stop offset="0.8" stop-color="#DEC874"/>
<stop offset="0.93" stop-color="#F3EAA6"/>
<stop offset="1" stop-color="#FDF9BD"/>
</linearGradient>
<linearGradient id="paint6_linear_1274_7312" x1="31.1094" y1="2.73801" x2="31.1094" y2="9.2002" gradientUnits="userSpaceOnUse">
<stop stop-color="#F8DA5B"/>
<stop offset="0.09" stop-color="#DCB749"/>
<stop offset="0.19" stop-color="#C39938"/>
<stop offset="0.27" stop-color="#B3872F"/>
<stop offset="0.33" stop-color="#AE802B"/>
<stop offset="0.34" stop-color="#B58930"/>
<stop offset="0.42" stop-color="#E5C34F"/>
<stop offset="0.46" stop-color="#F8DA5B"/>
<stop offset="0.51" stop-color="#FAE783"/>
<stop offset="0.58" stop-color="#FDF9BD"/>
<stop offset="0.61" stop-color="#F7F0AF"/>
<stop offset="0.74" stop-color="#E5D384"/>
<stop offset="0.8" stop-color="#DEC874"/>
<stop offset="0.93" stop-color="#F3EAA6"/>
<stop offset="1" stop-color="#FDF9BD"/>
</linearGradient>
<linearGradient id="paint7_linear_1274_7312" x1="11.1329" y1="2.73801" x2="11.1329" y2="9.2002" gradientUnits="userSpaceOnUse">
<stop stop-color="#F8DA5B"/>
<stop offset="0.09" stop-color="#DCB749"/>
<stop offset="0.19" stop-color="#C39938"/>
<stop offset="0.27" stop-color="#B3872F"/>
<stop offset="0.33" stop-color="#AE802B"/>
<stop offset="0.34" stop-color="#B58930"/>
<stop offset="0.42" stop-color="#E5C34F"/>
<stop offset="0.46" stop-color="#F8DA5B"/>
<stop offset="0.51" stop-color="#FAE783"/>
<stop offset="0.58" stop-color="#FDF9BD"/>
<stop offset="0.61" stop-color="#F7F0AF"/>
<stop offset="0.74" stop-color="#E5D384"/>
<stop offset="0.8" stop-color="#DEC874"/>
<stop offset="0.93" stop-color="#F3EAA6"/>
<stop offset="1" stop-color="#FDF9BD"/>
</linearGradient>
<linearGradient id="paint8_linear_1274_7312" x1="38.8438" y1="5.98068" x2="38.8438" y2="12.4429" gradientUnits="userSpaceOnUse">
<stop stop-color="#F8DA5B"/>
<stop offset="0.09" stop-color="#DCB749"/>
<stop offset="0.19" stop-color="#C39938"/>
<stop offset="0.27" stop-color="#B3872F"/>
<stop offset="0.33" stop-color="#AE802B"/>
<stop offset="0.34" stop-color="#B58930"/>
<stop offset="0.42" stop-color="#E5C34F"/>
<stop offset="0.46" stop-color="#F8DA5B"/>
<stop offset="0.51" stop-color="#FAE783"/>
<stop offset="0.58" stop-color="#FDF9BD"/>
<stop offset="0.61" stop-color="#F7F0AF"/>
<stop offset="0.74" stop-color="#E5D384"/>
<stop offset="0.8" stop-color="#DEC874"/>
<stop offset="0.93" stop-color="#F3EAA6"/>
<stop offset="1" stop-color="#FDF9BD"/>
</linearGradient>
<linearGradient id="paint9_linear_1274_7312" x1="3.3985" y1="5.98068" x2="3.3985" y2="12.4429" gradientUnits="userSpaceOnUse">
<stop stop-color="#F8DA5B"/>
<stop offset="0.09" stop-color="#DCB749"/>
<stop offset="0.19" stop-color="#C39938"/>
<stop offset="0.27" stop-color="#B3872F"/>
<stop offset="0.33" stop-color="#AE802B"/>
<stop offset="0.34" stop-color="#B58930"/>
<stop offset="0.42" stop-color="#E5C34F"/>
<stop offset="0.46" stop-color="#F8DA5B"/>
<stop offset="0.51" stop-color="#FAE783"/>
<stop offset="0.58" stop-color="#FDF9BD"/>
<stop offset="0.61" stop-color="#F7F0AF"/>
<stop offset="0.74" stop-color="#E5D384"/>
<stop offset="0.8" stop-color="#DEC874"/>
<stop offset="0.93" stop-color="#F3EAA6"/>
<stop offset="1" stop-color="#FDF9BD"/>
</linearGradient>
<linearGradient id="paint10_linear_1274_7312" x1="21.1181" y1="-0.000102043" x2="21.1181" y2="8.68188" gradientUnits="userSpaceOnUse">
<stop stop-color="#F8DA5B"/>
<stop offset="0.09" stop-color="#DCB749"/>
<stop offset="0.19" stop-color="#C39938"/>
<stop offset="0.27" stop-color="#B3872F"/>
<stop offset="0.33" stop-color="#AE802B"/>
<stop offset="0.34" stop-color="#B58930"/>
<stop offset="0.42" stop-color="#E5C34F"/>
<stop offset="0.46" stop-color="#F8DA5B"/>
<stop offset="0.51" stop-color="#FAE783"/>
<stop offset="0.58" stop-color="#FDF9BD"/>
<stop offset="0.61" stop-color="#F7F0AF"/>
<stop offset="0.74" stop-color="#E5D384"/>
<stop offset="0.8" stop-color="#DEC874"/>
<stop offset="0.93" stop-color="#F3EAA6"/>
<stop offset="1" stop-color="#FDF9BD"/>
</linearGradient>
</defs>
</svg>
