<svg width="87" height="105" viewBox="0 0 87 105" fill="none" xmlns="http://www.w3.org/2000/svg">
<path d="M79.5358 0H43.5703H7.60489C1.78039 0 0.464844 20.3906 0.464844 20.3906H10.1087H43.581H77.0532H86.6971C86.6971 20.3906 85.3815 0 79.5358 0Z" fill="#07006A"/>
<path d="M43.4545 0H7.44922C8.41573 0 9.25479 10.2166 9.93454 22.9533C10.4975 33.5576 10.9542 62.8734 11.2622 78.9624C11.3684 84.3672 14.013 89.3615 18.2933 92.2121L32.3343 101.596C39.1424 106.135 47.7561 106.135 54.5641 101.596L68.6051 92.2235C72.8854 89.3729 75.5301 84.3786 75.6363 78.9738C75.9443 62.8848 76.3904 33.5576 76.9639 22.9647C77.6436 10.2166 78.4933 0 79.4492 0H43.4545Z" fill="#0A0464"/>
<mask id="mask0_640_451" style="mask-type:alpha" maskUnits="userSpaceOnUse" x="7" y="0" width="73" height="105">
<path d="M43.1672 0H7C7.97086 0 8.8137 10.2166 9.4965 22.9533C10.0619 33.5576 10.5207 62.8734 10.8301 78.9624C10.9368 84.3672 13.5933 89.3615 17.8928 92.2121L31.997 101.596C38.8357 106.135 47.4881 106.135 54.3268 101.596L68.4309 92.2235C72.7305 89.3729 75.387 84.3786 75.4937 78.9738C75.8031 62.8848 76.2512 33.5576 76.8273 22.9647C77.5101 10.2166 78.3636 0 79.3238 0H43.1672Z" fill="black"/>
</mask>
<g mask="url(#mask0_640_451)">
<g filter="url(#filter0_f_640_451)">
<ellipse cx="32.5384" cy="34.0602" rx="32.5384" ry="34.0602" transform="matrix(4.82933e-08 1 1 -3.95642e-08 -11.7383 -49.1138)" fill="#0C66CC"/>
</g>
<g filter="url(#filter1_f_640_451)">
<ellipse cx="47.4219" cy="49.6398" rx="47.4219" ry="49.6398" transform="matrix(4.82933e-08 1 1 -3.95642e-08 -27.1289 95.2566)" fill="#0C66CC"/>
</g>
</g>
<defs>
<filter id="filter0_f_640_451" x="-41.7383" y="-79.1138" width="128.121" height="125.077" filterUnits="userSpaceOnUse" color-interpolation-filters="sRGB">
<feFlood flood-opacity="0" result="BackgroundImageFix"/>
<feBlend mode="normal" in="SourceGraphic" in2="BackgroundImageFix" result="shape"/>
<feGaussianBlur stdDeviation="15" result="effect1_foregroundBlur_640_451"/>
</filter>
<filter id="filter1_f_640_451" x="-47.1289" y="75.2566" width="139.281" height="134.844" filterUnits="userSpaceOnUse" color-interpolation-filters="sRGB">
<feFlood flood-opacity="0" result="BackgroundImageFix"/>
<feBlend mode="normal" in="SourceGraphic" in2="BackgroundImageFix" result="shape"/>
<feGaussianBlur stdDeviation="10" result="effect1_foregroundBlur_640_451"/>
</filter>
</defs>
</svg>
