<svg width="47" height="45" viewBox="0 0 47 45" fill="none" xmlns="http://www.w3.org/2000/svg">
<g id="Group 1261160137">
<path id="Vector" d="M23.202 42.8011L45.1334 26.8682L36.7555 1.0874H9.65127L1.27344 26.8682L23.202 42.8011Z" fill="#31414C"/>
<path id="Vector_2" d="M37.5363 0H8.86117L0 27.2711L23.1973 44.1275L46.3974 27.2711L37.5363 0ZM4.58882 25.7895L11.6979 3.92423H34.6995L41.8086 25.7895L23.2002 39.3114L4.58882 25.7895Z" fill="url(#paint0_radial_606_3774)"/>
<g id="Vector_3" style="mix-blend-mode:multiply" opacity="0.2">
<path d="M11.7031 3.9126L23.2025 39.3112L34.7048 3.9126H11.7031Z" fill="#0C363D"/>
</g>
<path id="Vector_4" d="M37.5373 0H8.86217L6.82812 6.32941C8.15349 6.39534 9.47253 6.55493 10.7754 6.80699L11.7133 3.92999H34.7149L41.824 25.7952L39.1254 27.7573C39.7358 28.9418 40.2719 30.163 40.7307 31.414L46.4128 27.2855L37.5373 0Z" fill="url(#paint1_radial_606_3774)"/>
<path id="Vector_5" style="mix-blend-mode:screen" d="M37.5373 0H8.86217L6.82812 6.32941C8.15349 6.39534 9.47253 6.55493 10.7754 6.80699L11.7133 3.92999H34.7149L41.824 25.7952L39.1254 27.7573C39.7358 28.9418 40.2719 30.163 40.7307 31.414L46.4128 27.2855L37.5373 0Z" fill="url(#paint2_linear_606_3774)"/>
<path id="Vector_6" style="mix-blend-mode:screen" d="M35.9667 34.8607C35.8429 33.402 35.6247 31.9527 35.3136 30.5222L23.2302 39.3114L4.61883 25.7895L9.70825 10.0696C8.27657 10.1036 6.85071 10.2644 5.44741 10.55L0.015625 27.2683L23.2129 44.1247L35.9667 34.8607Z" fill="url(#paint3_linear_606_3774)"/>
<path id="Vector_7" d="M4.59375 25.7893L6.43215 25.3779L12.8392 5.66181H33.568L39.9751 25.3779L41.8135 25.7893L34.7045 3.9126H11.7028L4.59375 25.7893Z" fill="#455A82"/>
<g id="Vector_8" style="mix-blend-mode:multiply" opacity="0.2">
<path d="M6.42188 25.3781L10.0066 16.1716C12.1299 10.7255 17.3746 8.36346 23.2178 8.36346C29.0898 8.36346 34.3518 10.7571 36.452 16.2378L39.9591 25.3694L33.552 5.65332H12.8376L6.42188 25.3781Z" fill="#2753A0"/>
</g>
<path id="Vector_9" d="M4.59375 25.7896L6.43215 25.3782L23.2022 37.5623L39.9751 25.3782L41.8135 25.7896L23.2022 39.3115L4.59375 25.7896Z" fill="url(#paint4_linear_606_3774)"/>
<g id="Vector_10" style="mix-blend-mode:multiply" opacity="0.6">
<path d="M6.42188 25.378L12.9987 8.49859C13.1543 8.10104 13.4262 7.75964 13.7787 7.51894C14.1313 7.27824 14.5483 7.14941 14.9752 7.14928H31.5065C31.9353 7.14933 32.3541 7.27942 32.7074 7.52237C33.0608 7.76532 33.3322 8.10972 33.4858 8.5101L39.9649 25.378L33.5578 5.66187H12.8433L6.42188 25.378Z" fill="#2753A0"/>
</g>
<path id="Vector_11" d="M11.7031 3.9126L12.8395 5.66181H33.5683L34.7048 3.9126H11.7031Z" fill="#2E3E54"/>
<g id="Vector_12" style="mix-blend-mode:multiply" opacity="0.35">
<path d="M3.17909 17.5007L0.958047 25.821C0.885037 26.2081 0.916675 26.6076 1.04969 26.9783C1.18271 27.349 1.41228 27.6775 1.7147 27.9299L23.1973 44.136L0 27.2797L3.17909 17.5007Z" fill="#455A82"/>
</g>
<g id="Vector_13" style="mix-blend-mode:multiply" opacity="0.6">
<path d="M6.42188 25.3782L22.4238 36.1554C22.6561 36.2952 22.9222 36.369 23.1934 36.369C23.4645 36.369 23.7306 36.2952 23.963 36.1554L39.9649 25.3782L23.1948 37.5623L6.42188 25.3782Z" fill="#2753A0"/>
</g>
<g id="Vector_14" style="mix-blend-mode:multiply" opacity="0.35">
<path d="M23.2031 44.1362L43.8629 28.1947C45.3014 27.1216 45.6179 26.8914 44.9677 24.8372L40.6521 9.61499L46.4062 27.2942L23.2031 44.1362Z" fill="#455A82"/>
</g>
<g id="Vector_15" style="mix-blend-mode:multiply" opacity="0.35">
<path d="M3.70312 15.8926L8.55663 2.0139C9.05723 0.601294 9.41973 0.233036 10.9186 0.178373L23.2006 0H8.86447L3.70312 15.8926Z" fill="#455A82"/>
</g>
<path id="Vector_16" d="M12.9531 31.8629L23.2039 39.3114L37.048 29.2534L23.2039 39.9444L12.9531 31.8629Z" fill="#F3FEFF"/>
<path id="Vector_17" d="M22.4219 0.00854492H37.5376L40.6534 9.60047L36.9594 0.540792L22.4219 0.00854492Z" fill="#F3FEFF"/>
<g id="Vector_18" style="mix-blend-mode:screen">
<path d="M28.4393 0C28.3156 1.24574 28.8564 2.63534 29.9037 3.9041H34.7025L35.8878 7.56652C37.2357 7.92958 38.6531 7.94936 40.0106 7.62406L37.5392 0H28.4393Z" fill="white"/>
</g>
<g id="Vector_19" style="mix-blend-mode:screen">
<path d="M27.2832 2.1808C26.2821 1.45292 25.0737 1.40401 24.5846 2.07723C24.2365 2.55769 24.3545 3.27694 24.8177 3.91276H28.4053C28.346 3.5629 28.2159 3.22883 28.023 2.93101C27.83 2.6332 27.5783 2.37792 27.2832 2.1808Z" fill="white"/>
</g>
<g id="Vector_20" style="mix-blend-mode:screen">
<path d="M11.7087 30.9563C11.3462 31.8913 11.9964 33.2838 13.3227 34.2447C14.649 35.2056 16.1709 35.3955 16.9477 34.7626L11.7087 30.9563Z" fill="white"/>
</g>
<g id="Vector_21" style="mix-blend-mode:multiply" opacity="0.6">
<path d="M23.2947 32.4209L9.20312 25.1938V26.4166L23.2947 36.6558L37.3891 26.4166V25.1938L23.2947 32.4209Z" fill="#2753A0"/>
</g>
<g id="Vector_22" style="mix-blend-mode:multiply" opacity="0.6">
<path d="M23.2878 24.7193L11.2188 18.9624V20.0125L23.2878 28.7787L35.3568 20.0125V18.9624L23.2878 24.7193Z" fill="#2753A0"/>
</g>
<g id="Vector_23" style="mix-blend-mode:multiply" opacity="0.6">
<path d="M13.2969 12.5669V13.7896L23.2858 21.0483L33.2748 13.7896V12.5669H13.2969Z" fill="#2753A0"/>
</g>
<g id="Vector_24" style="mix-blend-mode:screen">
<path d="M16.97 37.312C16.7485 37.6515 16.1357 37.6458 15.6034 37.2976C15.0712 36.9495 14.8151 36.3914 15.028 36.0519C15.2409 35.7124 15.8595 35.721 16.3946 36.0663C16.9297 36.4115 17.18 36.9725 16.97 37.312Z" fill="white"/>
</g>
<path id="Vector_25" d="M23.2947 31.0257L9.20312 23.2722V25.1941L23.2947 35.4333L37.3891 25.1941V23.2722L23.2947 31.0257Z" fill="#455A82"/>
<path id="Vector_26" d="M23.2878 23.324L11.2188 17.0435V18.9624L23.2878 27.7315L35.3568 18.9624V17.0435L23.2878 23.324Z" fill="#455A82"/>
<path id="Vector_27" d="M13.2969 10.6448V12.5666L23.2858 19.8253L33.2748 12.5666V10.6448H13.2969Z" fill="#455A82"/>
<path id="Vector_28" d="M23.2947 29.1039L10.3539 19.7249L9.20312 23.2722L23.2947 33.5115L37.3891 23.2722L36.2354 19.7249L23.2947 29.1039Z" fill="url(#paint5_radial_606_3774)"/>
<path id="Vector_29" d="M23.2878 21.4022L12.3724 13.4905L11.2188 17.0436L23.2878 25.8098L35.3568 17.0436L34.2031 13.4934L23.2878 21.4022Z" fill="url(#paint6_radial_606_3774)"/>
<path id="Vector_30" d="M14.58 6.69751L13.2969 10.6448L23.2858 17.9034L33.2748 10.6448L31.9945 6.69751H14.58Z" fill="url(#paint7_radial_606_3774)"/>
<path id="Vector_31" style="mix-blend-mode:screen" d="M14.2812 7.61815C19.1711 9.13323 23.7568 11.4957 27.8291 14.5978L33.2781 10.6448L31.9949 6.69751H14.5948L14.2812 7.61815Z" fill="url(#paint8_linear_606_3774)"/>
<path id="Vector_32" style="mix-blend-mode:screen" d="M30.1328 16.4509C31.0391 17.2392 31.9194 18.0678 32.7624 18.9366L35.369 17.0436L34.2182 13.4905L30.1328 16.4509Z" fill="url(#paint9_linear_606_3774)"/>
<path id="Vector_33" style="mix-blend-mode:screen" d="M34.5625 20.9332C35.3297 21.8366 36.0518 22.7754 36.7289 23.7498L37.3848 23.2722L36.234 19.7249L34.5625 20.9332Z" fill="url(#paint10_linear_606_3774)"/>
<path id="Vector_34" style="mix-blend-mode:screen" d="M26.3971 15.6481C22.673 12.6654 18.1883 10.7849 13.4506 10.2192L13.3125 10.645L23.3015 17.9037L26.3971 15.6481Z" fill="url(#paint11_linear_606_3774)"/>
<path id="Vector_35" style="mix-blend-mode:screen" d="M30.8342 20.3291C30.1353 19.3635 29.366 18.4509 28.5326 17.5988L23.2849 21.4022L12.3696 13.4905L11.2188 17.0436L23.2878 25.8098L30.8342 20.3291Z" fill="url(#paint12_linear_606_3774)"/>
<path id="Vector_36" style="mix-blend-mode:screen" d="M33.8763 25.8299C33.4261 24.7127 32.9003 23.6274 32.3026 22.5817L23.3004 29.1039L10.3539 19.7249L9.20312 23.2722L23.3004 33.5115L33.8763 25.8299Z" fill="url(#paint13_linear_606_3774)"/>
<path id="Vector_37" d="M23.2858 17.9035V19.8253L13.2969 12.5666V10.6448L23.2858 17.9035Z" fill="#2E3E54"/>
<path id="Vector_38" d="M11.2188 17.0435L23.2878 25.8097V27.7315L11.2188 18.9624V17.0435Z" fill="#2E3E54"/>
<path id="Vector_39" d="M9.20312 23.2722L23.2947 33.5115V35.4333L9.20312 25.1941V23.2722Z" fill="#2E3E54"/>
<path id="Vector_40" d="M14.7422 22.9126L23.1948 29.9497L31.003 23.511L23.284 29.1039L14.7422 22.9126Z" fill="#F3FEFF"/>
<path id="Vector_41" d="M14.7422 15.2107L23.1948 22.0723L29.694 16.7585L23.284 21.402L14.7422 15.2107Z" fill="#F3FEFF"/>
<path id="Vector_42" d="M23.5156 6.69741L30.852 6.98511C31.4274 7.00812 31.6633 7.24116 31.974 7.84821L33.2917 10.6389L32.0085 6.69165L23.5156 6.69741Z" fill="#F3FEFF"/>
<g id="Vector_43" style="mix-blend-mode:multiply" opacity="0.35">
<path d="M12.3724 13.4905L11.8718 16.3128C11.8442 16.4602 11.8534 16.6122 11.8986 16.7552C11.9438 16.8982 12.0235 17.0279 12.1308 17.1328L21.7112 24.6648L11.2188 17.0436L12.3724 13.4905Z" fill="#455A82"/>
</g>
<g id="Vector_44" style="mix-blend-mode:multiply" opacity="0.35">
<path d="M10.3539 19.7249L9.86771 22.34C9.81475 22.5153 9.81173 22.7019 9.85899 22.8787C9.90626 23.0556 10.0019 23.2158 10.1353 23.3412L18.9849 30.3813L9.20312 23.2722L10.3539 19.7249Z" fill="#455A82"/>
</g>
<g id="Vector_45" style="mix-blend-mode:multiply" opacity="0.35">
<path d="M31.2812 20.0038L34.2906 17.262C34.4357 17.0795 34.5397 16.8678 34.5953 16.6413C34.6509 16.4149 34.6569 16.1791 34.6128 15.9501L34.2014 13.4932L35.3522 17.0463L31.2812 20.0038Z" fill="#455A82"/>
</g>
<g id="Vector_46" style="mix-blend-mode:multiply" opacity="0.35">
<path d="M30.6641 28.1545L36.2052 23.4765C36.5475 23.1686 36.7115 22.8435 36.6195 22.1502L36.2282 19.7249L37.379 23.2722L30.6641 28.1545Z" fill="#455A82"/>
</g>
<g id="Vector_47" style="mix-blend-mode:multiply" opacity="0.35">
<path d="M14.5944 6.69751L14.1744 8.99911C13.9845 9.97442 14.4275 10.6217 15.072 11.1943L22.1149 17.0375L13.2969 10.6448L14.5944 6.69751Z" fill="#455A82"/>
</g>
</g>
<defs>
<radialGradient id="paint0_radial_606_3774" cx="0" cy="0" r="1" gradientUnits="userSpaceOnUse" gradientTransform="translate(35.5943 1.48453) scale(36.7997)">
<stop offset="0.01" stop-color="#5C6CBA"/>
<stop offset="1" stop-color="#81B3D4"/>
</radialGradient>
<radialGradient id="paint1_radial_606_3774" cx="0" cy="0" r="1" gradientUnits="userSpaceOnUse" gradientTransform="translate(42.2901 -3.52721) scale(50.9115 50.9114)">
<stop offset="0.01" stop-color="#5C6CBA"/>
<stop offset="1" stop-color="#81B3D4"/>
</radialGradient>
<linearGradient id="paint2_linear_606_3774" x1="44.4881" y1="-7.14935" x2="21.4117" y2="21.3157" gradientUnits="userSpaceOnUse">
<stop stop-color="#9CD3DE"/>
<stop offset="0.19" stop-color="#98CEDB"/>
<stop offset="0.41" stop-color="#8DBFD1"/>
<stop offset="0.66" stop-color="#7AA6C1"/>
<stop offset="0.93" stop-color="#6084AA"/>
<stop offset="1" stop-color="#5779A3"/>
</linearGradient>
<linearGradient id="paint3_linear_606_3774" x1="7.74326" y1="38.9547" x2="27.9168" y2="13.6687" gradientUnits="userSpaceOnUse">
<stop stop-color="#42495E"/>
<stop offset="1" stop-color="#4A5780"/>
</linearGradient>
<linearGradient id="paint4_linear_606_3774" x1="23.2022" y1="22.1531" x2="23.2022" y2="29.8404" gradientUnits="userSpaceOnUse">
<stop stop-color="#B4E6F7"/>
<stop offset="0.23" stop-color="#CCEFFA"/>
<stop offset="0.51" stop-color="#E4F7FD"/>
<stop offset="0.77" stop-color="#F2FCFE"/>
<stop offset="1" stop-color="#F7FEFF"/>
</linearGradient>
<radialGradient id="paint5_radial_606_3774" cx="0" cy="0" r="1" gradientUnits="userSpaceOnUse" gradientTransform="translate(38.5716 -1.72896) scale(48.981 48.981)">
<stop offset="0.01" stop-color="#5C6CBA"/>
<stop offset="1" stop-color="#81B3D4"/>
</radialGradient>
<radialGradient id="paint6_radial_606_3774" cx="0" cy="0" r="1" gradientUnits="userSpaceOnUse" gradientTransform="translate(38.5647 -1.72887) scale(48.981 48.981)">
<stop offset="0.01" stop-color="#5C6CBA"/>
<stop offset="1" stop-color="#81B3D4"/>
</radialGradient>
<radialGradient id="paint7_radial_606_3774" cx="0" cy="0" r="1" gradientUnits="userSpaceOnUse" gradientTransform="translate(38.5627 -1.72923) scale(48.981 48.981)">
<stop offset="0.01" stop-color="#5C6CBA"/>
<stop offset="1" stop-color="#81B3D4"/>
</radialGradient>
<linearGradient id="paint8_linear_606_3774" x1="37.0585" y1="-10.3401" x2="16.6979" y2="19.1405" gradientUnits="userSpaceOnUse">
<stop stop-color="#9CD3DE"/>
<stop offset="0.19" stop-color="#98CEDB"/>
<stop offset="0.41" stop-color="#8DBFD1"/>
<stop offset="0.66" stop-color="#7AA6C1"/>
<stop offset="0.93" stop-color="#6084AA"/>
<stop offset="1" stop-color="#5779A3"/>
</linearGradient>
<linearGradient id="paint9_linear_606_3774" x1="46.7993" y1="-3.61331" x2="26.4416" y2="25.8645" gradientUnits="userSpaceOnUse">
<stop stop-color="#9CD3DE"/>
<stop offset="0.19" stop-color="#98CEDB"/>
<stop offset="0.41" stop-color="#8DBFD1"/>
<stop offset="0.66" stop-color="#7AA6C1"/>
<stop offset="0.93" stop-color="#6084AA"/>
<stop offset="1" stop-color="#5779A3"/>
</linearGradient>
<linearGradient id="paint10_linear_606_3774" x1="51.4965" y1="-0.371018" x2="31.136" y2="29.1068" gradientUnits="userSpaceOnUse">
<stop stop-color="#9CD3DE"/>
<stop offset="0.19" stop-color="#98CEDB"/>
<stop offset="0.41" stop-color="#8DBFD1"/>
<stop offset="0.66" stop-color="#7AA6C1"/>
<stop offset="0.93" stop-color="#6084AA"/>
<stop offset="1" stop-color="#5779A3"/>
</linearGradient>
<linearGradient id="paint11_linear_606_3774" x1="5.21086" y1="38.3736" x2="20.8704" y2="11.2895" gradientUnits="userSpaceOnUse">
<stop stop-color="#42495E"/>
<stop offset="1" stop-color="#4A5780"/>
</linearGradient>
<linearGradient id="paint12_linear_606_3774" x1="8.19214" y1="40.1028" x2="23.8546" y2="13.0187" gradientUnits="userSpaceOnUse">
<stop stop-color="#42495E"/>
<stop offset="1" stop-color="#4A5780"/>
</linearGradient>
<linearGradient id="paint13_linear_606_3774" x1="11.1163" y1="41.7886" x2="26.7759" y2="14.7074" gradientUnits="userSpaceOnUse">
<stop stop-color="#42495E"/>
<stop offset="1" stop-color="#4A5780"/>
</linearGradient>
</defs>
</svg>
