<svg width="222" height="106" viewBox="0 0 222 106" fill="none" xmlns="http://www.w3.org/2000/svg">
<g id="Mask group">
<mask id="mask0_667_310" style="mask-type:alpha" maskUnits="userSpaceOnUse" x="0" y="0" width="222" height="106">
<rect id="Rectangle 10193" width="222" height="106" rx="10" fill="url(#paint0_radial_667_310)"/>
</mask>
<g mask="url(#mask0_667_310)">
<g id="Group 1000000978">
<g id="Group">
<g id="Group_2">
<path id="Vector" d="M69.1024 9.85621C68.6548 9.53789 68.5255 8.77198 68.8438 8.32439C69.1621 7.87679 69.9281 7.74752 70.3757 8.06584C70.8232 8.38417 70.9525 9.15008 70.6342 9.59768C70.3159 10.0453 69.55 10.1745 69.1024 9.85621Z" fill="#00CBD6" fill-opacity="0.2"/>
<path id="Vector_2" d="M60.3998 22.0896C59.9522 21.7713 59.866 21.2607 60.1843 20.8131C60.5026 20.3655 61.0132 20.2794 61.4608 20.5977C61.9084 20.916 61.9946 21.4266 61.6763 21.8742C61.4641 22.1726 60.8473 22.408 60.3998 22.0896Z" fill="#00CBD6" fill-opacity="0.2"/>
<path id="Vector_3" d="M51.8099 34.1749C51.3623 33.8565 51.2761 33.3459 51.5945 32.8983C51.9128 32.4507 52.4234 32.3646 52.871 32.6829C53.3186 33.0012 53.4048 33.5118 53.0864 33.9594C52.7681 34.407 52.2575 34.4932 51.8099 34.1749Z" fill="#00CBD6" fill-opacity="0.2"/>
<path id="Vector_4" d="M43.2128 46.2589C42.9144 46.0467 42.8282 45.5361 43.0404 45.2377C43.2526 44.9393 43.7632 44.8531 44.0616 45.0653C44.36 45.2775 44.4462 45.7881 44.234 46.0865C44.0218 46.3849 43.5112 46.4711 43.2128 46.2589Z" fill="#00CBD6" fill-opacity="0.2"/>
<path id="Vector_5" d="M34.5219 58.4974C34.2235 58.2852 34.1804 58.0299 34.3926 57.7315C34.6048 57.4331 34.8601 57.39 35.1585 57.6023C35.4569 57.8145 35.5 58.0698 35.2878 58.3682C35.1817 58.5174 34.8203 58.7097 34.5219 58.4974Z" fill="#00CBD6" fill-opacity="0.2"/>
<path id="Vector_6" d="M25.9327 70.5829C25.7835 70.4768 25.5912 70.1153 25.8034 69.8169C25.9095 69.6677 26.314 69.7308 26.4632 69.8369C26.6124 69.943 26.8047 70.3044 26.5925 70.6028C26.4864 70.752 26.0819 70.689 25.9327 70.5829Z" fill="#00CBD6" fill-opacity="0.2"/>
<path id="Vector_7" d="M17.331 82.6667C17.1818 82.5606 17.1387 82.3053 17.2448 82.1561C17.3509 82.0069 17.6062 81.9638 17.7554 82.0699C17.9046 82.176 17.9477 82.4313 17.8416 82.5805C17.7355 82.7297 17.4802 82.7728 17.331 82.6667Z" fill="#00CBD6" fill-opacity="0.2"/>
<path id="Vector_8" d="M8.63229 94.9016C8.48309 94.7955 8.58921 94.6463 8.58921 94.6463L8.84451 94.6032C8.99371 94.7093 8.8876 94.8585 8.8876 94.8585C8.8876 94.8585 8.78149 95.0077 8.63229 94.9016Z" fill="#00CBD6" fill-opacity="0.2"/>
</g>
</g>
<g id="Group_3">
<g id="Group_4">
<path id="Vector_9" d="M88.43 5.40988C87.8332 4.98545 87.7039 4.21954 88.1283 3.62275C88.5528 3.02596 89.3187 2.89669 89.9155 3.32112C90.5123 3.74555 90.6415 4.51147 90.2171 5.10826C89.7927 5.70504 89.0268 5.83431 88.43 5.40988Z" fill="#00CBD6" fill-opacity="0.2"/>
<path id="Vector_10" d="M79.8289 17.4946C80.3233 17.8462 81.0091 17.7305 81.3607 17.2361C81.7124 16.7417 81.5966 16.0559 81.1022 15.7043C80.6078 15.3527 79.922 15.4684 79.5704 15.9628C79.2188 16.4572 79.3345 17.143 79.8289 17.4946Z" fill="#00CBD6" fill-opacity="0.2"/>
<path id="Vector_11" d="M71.1263 29.7288C70.6787 29.4105 70.5925 28.8999 70.9109 28.4523C71.2292 28.0047 71.7398 27.9185 72.1874 28.2368C72.635 28.5552 72.7212 29.0658 72.4028 29.5134C72.3398 29.9179 71.5739 30.0471 71.1263 29.7288Z" fill="#00CBD6" fill-opacity="0.2"/>
<path id="Vector_12" d="M62.5365 41.814C62.0889 41.4957 62.0027 40.9851 62.321 40.5375C62.6393 40.0899 63.15 40.0037 63.5975 40.322C64.0451 40.6404 64.1313 41.151 63.813 41.5986C63.4947 42.0462 62.9841 42.1323 62.5365 41.814Z" fill="#00CBD6" fill-opacity="0.2"/>
<path id="Vector_13" d="M53.9393 53.898C53.6409 53.6858 53.5548 53.1752 53.767 52.8768C53.9792 52.5784 54.4898 52.4922 54.7882 52.7045C55.0866 52.9167 55.1728 53.4273 54.9606 53.7257C54.7483 54.0241 54.3869 54.2164 53.9393 53.898Z" fill="#00CBD6" fill-opacity="0.2"/>
<path id="Vector_14" d="M45.2484 66.1366C44.9501 65.9244 44.907 65.6691 45.1192 65.3707C45.3314 65.0723 45.5867 65.0292 45.8851 65.2414C46.1835 65.4536 46.2266 65.7089 46.0144 66.0073C46.0575 66.2626 45.5468 66.3488 45.2484 66.1366Z" fill="#00CBD6" fill-opacity="0.2"/>
<path id="Vector_15" d="M36.6592 78.2213C36.51 78.1152 36.3178 77.7538 36.53 77.4554C36.7853 77.4123 37.0406 77.3692 37.1898 77.4753C37.339 77.5814 37.5313 77.9428 37.319 78.2412C37.2129 78.3904 36.9576 78.4335 36.6592 78.2213Z" fill="#00CBD6" fill-opacity="0.2"/>
<path id="Vector_16" d="M28.0576 90.3058C28.2224 90.423 28.451 90.3845 28.5682 90.2197C28.6854 90.0549 28.6468 89.8262 28.482 89.709C28.3172 89.5918 28.0886 89.6304 27.9714 89.7952C27.8542 89.96 27.8928 90.1886 28.0576 90.3058Z" fill="#00CBD6" fill-opacity="0.2"/>
<path id="Vector_17" d="M19.3589 102.54C19.2097 102.434 19.3158 102.285 19.3158 102.285L19.5711 102.242C19.7203 102.348 19.6142 102.497 19.6142 102.497C19.6142 102.497 19.508 102.647 19.3589 102.54Z" fill="#00CBD6" fill-opacity="0.2"/>
</g>
</g>
<g id="Group_5">
<g id="Group_6">
<path id="Vector_18" d="M108.035 0.927706C107.439 0.503276 107.309 -0.262639 107.734 -0.859427C108.158 -1.45622 108.924 -1.58549 109.521 -1.16106C110.118 -0.736626 110.247 0.0292901 109.823 0.626079C109.398 1.22287 108.632 1.35214 108.035 0.927706Z" fill="#00CBD6" fill-opacity="0.2"/>
<path id="Vector_19" d="M99.3401 13.1616C98.7433 12.7372 98.6141 11.9712 99.0385 11.3745C99.4629 10.7777 100.229 10.6484 100.826 11.0728C101.422 11.4973 101.552 12.2632 101.127 12.86C100.554 13.3506 99.7877 13.4799 99.3401 13.1616Z" fill="#00CBD6" fill-opacity="0.2"/>
<path id="Vector_20" d="M90.7391 25.2463C91.2335 25.598 91.9193 25.4822 92.2709 24.9878C92.6225 24.4934 92.5068 23.8076 92.0124 23.456C91.518 23.1044 90.8321 23.2201 90.4805 23.7145C90.1289 24.2089 90.2447 24.8947 90.7391 25.2463Z" fill="#00CBD6" fill-opacity="0.2"/>
<path id="Vector_21" d="M82.0365 37.4805C81.5889 37.1622 81.5027 36.6516 81.821 36.204C82.1393 35.7564 82.65 35.6702 83.0975 35.9885C83.5451 36.3069 83.6313 36.8175 83.313 37.2651C83.1008 37.5635 82.4841 37.7988 82.0365 37.4805Z" fill="#00CBD6" fill-opacity="0.2"/>
<path id="Vector_22" d="M73.4466 49.5657C72.999 49.2474 72.9129 48.7368 73.2312 48.2892C73.5495 47.8416 74.0601 47.7554 74.5077 48.0738C74.9553 48.3921 75.0415 48.9027 74.7232 49.3503C74.2556 49.6918 73.745 49.7779 73.4466 49.5657Z" fill="#00CBD6" fill-opacity="0.2"/>
<path id="Vector_23" d="M64.8495 61.6497C64.5511 61.4375 64.4649 60.9269 64.6771 60.6285C64.8893 60.3301 65.4 60.244 65.6984 60.4562C65.9967 60.6684 66.0829 61.179 65.8707 61.4774C65.6585 61.7758 65.1479 61.862 64.8495 61.6497Z" fill="#00CBD6" fill-opacity="0.2"/>
<path id="Vector_24" d="M56.1586 73.8883C55.8602 73.6761 55.8171 73.4208 56.0293 73.1224C56.2416 72.824 56.4969 72.7809 56.7952 72.9931C57.0936 73.2053 57.1367 73.4606 56.9245 73.759C56.8184 73.9082 56.457 74.1005 56.1586 73.8883Z" fill="#00CBD6" fill-opacity="0.2"/>
<path id="Vector_25" d="M47.5531 85.9735C47.4039 85.8674 47.2117 85.506 47.4239 85.2076C47.53 85.0584 47.8914 84.8661 48.1898 85.0783C48.339 85.1844 48.5313 85.5458 48.3191 85.8442C47.9576 86.0365 47.7023 86.0796 47.5531 85.9735Z" fill="#00CBD6" fill-opacity="0.2"/>
<path id="Vector_26" d="M38.9677 98.0583C39.1325 98.1755 39.3611 98.1369 39.4783 97.9721C39.5955 97.8073 39.5569 97.5787 39.3921 97.4615C39.2273 97.3443 38.9987 97.3829 38.8815 97.5477C38.7643 97.7125 38.8029 97.9411 38.9677 98.0583Z" fill="#00CBD6" fill-opacity="0.2"/>
</g>
</g>
<g id="Group_7">
<g id="Group_8">
<path id="Vector_27" d="M118.782 8.56687C118.185 8.14244 118.055 7.37652 118.48 6.77973C118.904 6.18294 119.67 6.05367 120.267 6.47811C120.864 6.90254 120.993 7.66845 120.569 8.26524C120.144 8.86203 119.378 8.9913 118.782 8.56687Z" fill="#00CBD6" fill-opacity="0.2"/>
<path id="Vector_28" d="M110.086 20.8008C109.489 20.3763 109.36 19.6104 109.785 19.0136C110.209 18.4168 110.975 18.2876 111.572 18.712C112.169 19.1364 112.298 19.9023 111.873 20.4991C111.449 21.0959 110.683 21.2252 110.086 20.8008Z" fill="#00CBD6" fill-opacity="0.2"/>
<path id="Vector_29" d="M101.485 32.8855C101.98 33.2371 102.665 33.1214 103.017 32.627C103.369 32.1326 103.253 31.4468 102.758 31.0951C102.264 30.7435 101.578 30.8593 101.227 31.3537C100.875 31.8481 100.991 32.5339 101.485 32.8855Z" fill="#00CBD6" fill-opacity="0.2"/>
<path id="Vector_30" d="M92.7826 45.1197C92.335 44.8014 92.2488 44.2907 92.5671 43.8432C92.8854 43.3956 93.3961 43.3094 93.8436 43.6277C94.2912 43.946 94.3774 44.4566 94.0591 44.9042C93.8469 45.2026 93.2302 45.438 92.7826 45.1197Z" fill="#00CBD6" fill-opacity="0.2"/>
<path id="Vector_31" d="M84.1927 57.2049C83.7451 56.8866 83.659 56.376 83.9773 55.9284C84.2956 55.4808 84.8062 55.3946 85.2538 55.7129C85.7014 56.0312 85.7876 56.5418 85.4692 56.9894C85.1509 57.437 84.6403 57.5232 84.1927 57.2049Z" fill="#00CBD6" fill-opacity="0.2"/>
<path id="Vector_32" d="M75.5956 69.2889C75.2972 69.0767 75.211 68.5661 75.4232 68.2677C75.6354 67.9693 76.1461 67.8831 76.4444 68.0953C76.7428 68.3075 76.829 68.8182 76.6168 69.1166C76.4046 69.4149 75.894 69.5011 75.5956 69.2889Z" fill="#00CBD6" fill-opacity="0.2"/>
<path id="Vector_33" d="M66.9047 81.5275C66.6063 81.3153 66.5632 81.0599 66.7754 80.7615C66.9876 80.4632 67.2429 80.4201 67.5413 80.6323C67.8397 80.8445 67.8828 81.0998 67.6706 81.3982C67.5645 81.5474 67.2031 81.7397 66.9047 81.5275Z" fill="#00CBD6" fill-opacity="0.2"/>
<path id="Vector_34" d="M58.2992 93.6127C58.5464 93.7885 58.8893 93.7306 59.0651 93.4834C59.241 93.2362 59.1831 92.8933 58.9359 92.7175C58.6887 92.5417 58.3458 92.5996 58.17 92.8468C57.9942 93.094 58.052 93.4369 58.2992 93.6127Z" fill="#00CBD6" fill-opacity="0.2"/>
<path id="Vector_35" d="M49.7138 105.697C49.8786 105.815 50.1072 105.776 50.2244 105.611C50.3416 105.446 50.303 105.218 50.1382 105.101C49.9734 104.983 49.7448 105.022 49.6276 105.187C49.5104 105.352 49.549 105.58 49.7138 105.697Z" fill="#00CBD6" fill-opacity="0.2"/>
</g>
</g>
<g id="Group_9">
<g id="Group_10">
<path id="Vector_36" d="M138.121 4.12151C137.524 3.69708 137.352 2.67587 137.776 2.07908C138.201 1.48229 139.222 1.30993 139.819 1.73436C140.415 2.15879 140.588 3.18001 140.163 3.7768C139.888 4.47969 138.867 4.65205 138.121 4.12151Z" fill="#00CBD6" fill-opacity="0.2"/>
<path id="Vector_37" d="M129.512 16.2058C128.915 15.7814 128.786 15.0154 129.21 14.4186C129.635 13.8219 130.401 13.6926 130.998 14.117C131.594 14.5414 131.724 15.3074 131.299 15.9042C131.024 16.6071 130.258 16.7363 129.512 16.2058Z" fill="#00CBD6" fill-opacity="0.2"/>
<path id="Vector_38" d="M120.817 28.4397C120.22 28.0152 120.091 27.2493 120.515 26.6525C120.939 26.0557 121.705 25.9265 122.302 26.3509C122.899 26.7753 123.028 27.5413 122.604 28.138C122.179 28.7348 121.413 28.8641 120.817 28.4397Z" fill="#00CBD6" fill-opacity="0.2"/>
<path id="Vector_39" d="M112.216 40.5244C112.71 40.876 113.396 40.7603 113.747 40.2659C114.099 39.7715 113.983 39.0857 113.489 38.7341C112.995 38.3824 112.309 38.4982 111.957 38.9926C111.605 39.487 111.721 40.1728 112.216 40.5244Z" fill="#00CBD6" fill-opacity="0.2"/>
<path id="Vector_40" d="M103.513 52.7586C103.065 52.4403 102.979 51.9297 103.298 51.4821C103.616 51.0345 104.127 50.9483 104.574 51.2666C105.022 51.5849 105.108 52.0956 104.79 52.5431C104.727 52.9476 103.961 53.0769 103.513 52.7586Z" fill="#00CBD6" fill-opacity="0.2"/>
<path id="Vector_41" d="M94.9232 64.8438C94.4756 64.5255 94.3894 64.0149 94.7077 63.5673C95.0261 63.1197 95.5367 63.0335 95.9843 63.3518C96.4319 63.6701 96.518 64.1808 96.1997 64.6284C95.8814 65.0759 95.3708 65.1621 94.9232 64.8438Z" fill="#00CBD6" fill-opacity="0.2"/>
<path id="Vector_42" d="M86.3261 76.9278C86.0277 76.7156 85.9415 76.205 86.1537 75.9066C86.3659 75.6082 86.8765 75.522 87.1749 75.7342C87.4733 75.9465 87.5595 76.4571 87.3473 76.7555C87.1351 77.0539 86.7736 77.2461 86.3261 76.9278Z" fill="#00CBD6" fill-opacity="0.2"/>
<path id="Vector_43" d="M77.6352 89.1664C77.3368 88.9542 77.2937 88.6989 77.5059 88.4005C77.7181 88.1021 77.9734 88.059 78.2718 88.2712C78.5702 88.4834 78.6133 88.7387 78.4011 89.0371C78.4442 89.2924 77.9336 89.3786 77.6352 89.1664Z" fill="#00CBD6" fill-opacity="0.2"/>
<path id="Vector_44" d="M69.0297 101.252C68.8805 101.145 68.6882 100.784 68.9004 100.486C69.0065 100.336 69.3679 100.144 69.6663 100.356C69.8155 100.463 70.0078 100.824 69.7956 101.122C69.5834 101.421 69.3281 101.464 69.0297 101.252Z" fill="#00CBD6" fill-opacity="0.2"/>
</g>
</g>
<g id="Group_11">
<g id="Group_12">
<path id="Vector_45" d="M157.593 -0.225694C156.847 -0.756231 156.675 -1.77745 157.205 -2.52344C157.736 -3.26942 158.757 -3.44178 159.503 -2.91124C160.249 -2.3807 160.421 -1.35949 159.891 -0.613502C159.36 0.132484 158.339 0.304844 157.593 -0.225694Z" fill="#00CBD6" fill-opacity="0.2"/>
<path id="Vector_46" d="M149.004 11.8595C148.407 11.4351 148.235 10.4139 148.659 9.81711C149.083 9.22033 150.105 9.04796 150.701 9.47239C151.298 9.89682 151.471 10.918 151.046 11.5148C150.622 12.1116 149.6 12.284 149.004 11.8595Z" fill="#00CBD6" fill-opacity="0.2"/>
<path id="Vector_47" d="M140.395 23.9438C139.798 23.5194 139.669 22.7535 140.093 22.1567C140.518 21.5599 141.284 21.4306 141.88 21.8551C142.477 22.2795 142.606 23.0454 142.182 23.6422C141.758 24.239 140.992 24.3683 140.395 23.9438Z" fill="#00CBD6" fill-opacity="0.2"/>
<path id="Vector_48" d="M131.699 36.1777C131.103 35.7533 130.973 34.9874 131.398 34.3906C131.822 33.7938 132.588 33.6645 133.185 34.0889C133.782 34.5134 133.911 35.2793 133.487 35.8761C133.062 36.4729 132.296 36.6021 131.699 36.1777Z" fill="#00CBD6" fill-opacity="0.2"/>
<path id="Vector_49" d="M123.098 48.2625C122.651 47.9441 122.522 47.1782 122.84 46.7306C123.158 46.283 123.924 46.1538 124.372 46.4721C124.819 46.7904 124.949 47.5563 124.63 48.0039C124.312 48.4515 123.546 48.5808 123.098 48.2625Z" fill="#00CBD6" fill-opacity="0.2"/>
<path id="Vector_50" d="M114.396 60.4966C113.948 60.1783 113.862 59.6677 114.18 59.2201C114.499 58.7725 115.009 58.6863 115.457 59.0047C115.905 59.323 115.991 59.8336 115.672 60.2812C115.46 60.5796 114.843 60.815 114.396 60.4966Z" fill="#00CBD6" fill-opacity="0.2"/>
<path id="Vector_51" d="M105.806 72.5818C105.358 72.2635 105.272 71.7529 105.591 71.3053C105.909 70.8577 106.419 70.7715 106.867 71.0899C107.315 71.4082 107.401 71.9188 107.083 72.3664C106.764 72.814 106.104 72.7941 105.806 72.5818Z" fill="#00CBD6" fill-opacity="0.2"/>
<path id="Vector_52" d="M97.2089 84.6659C96.9105 84.4536 96.8243 83.943 97.0365 83.6446C97.2487 83.3462 97.7593 83.2601 98.0577 83.4723C98.3561 83.6845 98.4423 84.1951 98.2301 84.4935C98.0179 84.7919 97.5073 84.8781 97.2089 84.6659Z" fill="#00CBD6" fill-opacity="0.2"/>
<path id="Vector_53" d="M88.518 96.9044C88.2196 96.6922 88.1765 96.4369 88.3887 96.1385C88.6009 95.8401 88.8562 95.797 89.1546 96.0092C89.453 96.2215 89.4961 96.4768 89.2839 96.7751C89.1778 96.9243 88.8164 97.1166 88.518 96.9044Z" fill="#00CBD6" fill-opacity="0.2"/>
</g>
</g>
<g id="Group_13">
<g id="Group_14">
<path id="Vector_54" d="M168.339 7.41322C167.593 6.88268 167.421 5.86146 167.951 5.11548C168.482 4.36949 169.503 4.19714 170.249 4.72767C170.995 5.25821 171.167 6.27943 170.637 7.02541C170.106 7.7714 169.085 7.94376 168.339 7.41322Z" fill="#00CBD6" fill-opacity="0.2"/>
<path id="Vector_55" d="M159.75 19.4985C159.153 19.074 158.981 18.0528 159.405 17.456C159.829 16.8592 160.851 16.6869 161.447 17.1113C162.044 17.5357 162.217 18.557 161.792 19.1538C161.368 19.7505 160.496 20.029 159.75 19.4985Z" fill="#00CBD6" fill-opacity="0.2"/>
<path id="Vector_56" d="M151.141 31.5827C150.544 31.1583 150.415 30.3924 150.839 29.7956C151.264 29.1988 152.03 29.0695 152.626 29.494C153.223 29.9184 153.352 30.6843 152.928 31.2811C152.653 31.984 151.738 32.0072 151.141 31.5827Z" fill="#00CBD6" fill-opacity="0.2"/>
<path id="Vector_57" d="M142.446 43.8166C141.849 43.3922 141.72 42.6263 142.144 42.0295C142.568 41.4327 143.334 41.3034 143.931 41.7279C144.528 42.1523 144.657 42.9182 144.233 43.515C143.808 44.1118 143.042 44.2411 142.446 43.8166Z" fill="#00CBD6" fill-opacity="0.2"/>
<path id="Vector_58" d="M133.845 55.9014C134.339 56.253 135.025 56.1372 135.376 55.6428C135.728 55.1484 135.612 54.4626 135.118 54.111C134.623 53.7594 133.938 53.8752 133.586 54.3696C133.234 54.8639 133.35 55.5498 133.845 55.9014Z" fill="#00CBD6" fill-opacity="0.2"/>
<path id="Vector_59" d="M125.142 68.1355C124.694 67.8172 124.608 67.3066 124.926 66.859C125.245 66.4114 125.755 66.3253 126.203 66.6436C126.651 66.9619 126.737 67.4725 126.418 67.9201C126.355 68.3246 125.59 68.4539 125.142 68.1355Z" fill="#00CBD6" fill-opacity="0.2"/>
<path id="Vector_60" d="M116.552 80.2208C116.105 79.9024 116.018 79.3918 116.337 78.9442C116.655 78.4966 117.166 78.4105 117.613 78.7288C118.061 79.0471 118.147 79.5577 117.829 80.0053C117.51 80.4529 117 80.5391 116.552 80.2208Z" fill="#00CBD6" fill-opacity="0.2"/>
<path id="Vector_61" d="M107.955 92.3048C107.657 92.0926 107.57 91.582 107.783 91.2836C107.995 90.9852 108.505 90.899 108.804 91.1112C109.102 91.3234 109.188 91.834 108.976 92.1324C108.764 92.4308 108.253 92.517 107.955 92.3048Z" fill="#00CBD6" fill-opacity="0.2"/>
<path id="Vector_62" d="M99.2641 104.543C98.9657 104.331 98.9226 104.076 99.1348 103.777C99.347 103.479 99.6023 103.436 99.9007 103.648C100.199 103.86 100.242 104.116 100.03 104.414C100.073 104.669 99.5625 104.756 99.2641 104.543Z" fill="#00CBD6" fill-opacity="0.2"/>
</g>
</g>
<g id="Group_15">
<g id="Group_16">
<path id="Vector_63" d="M187.937 2.92983C187.191 2.39929 187.018 1.37807 187.549 0.632081C188.079 -0.113905 189.101 -0.286262 189.847 0.244276C190.593 0.774814 190.765 1.79603 190.234 2.54202C189.704 3.288 188.683 3.46036 187.937 2.92983Z" fill="#00CBD6" fill-opacity="0.2"/>
<path id="Vector_64" d="M179.241 15.1637C178.495 14.6332 178.323 13.612 178.854 12.866C179.384 12.12 180.405 11.9476 181.151 12.4782C181.897 13.0087 182.07 14.0299 181.539 14.7759C181.009 15.5219 179.838 15.5881 179.241 15.1637Z" fill="#00CBD6" fill-opacity="0.2"/>
<path id="Vector_65" d="M170.652 27.249C171.311 27.7178 172.226 27.5634 172.695 26.9042C173.163 26.245 173.009 25.3306 172.35 24.8618C171.691 24.393 170.776 24.5473 170.307 25.2065C169.839 25.8657 169.993 26.7801 170.652 27.249Z" fill="#00CBD6" fill-opacity="0.2"/>
<path id="Vector_66" d="M162.043 39.3332C161.446 38.9088 161.317 38.1429 161.742 37.5461C162.166 36.9493 162.932 36.82 163.529 37.2445C164.126 37.6689 164.255 38.4348 163.83 39.0316C163.406 39.6284 162.64 39.7577 162.043 39.3332Z" fill="#00CBD6" fill-opacity="0.2"/>
<path id="Vector_67" d="M153.348 51.5671C152.751 51.1427 152.622 50.3768 153.046 49.78C153.471 49.1832 154.237 49.0539 154.833 49.4783C155.43 49.9028 155.56 50.6687 155.135 51.2655C154.561 51.7562 153.796 51.8854 153.348 51.5671Z" fill="#00CBD6" fill-opacity="0.2"/>
<path id="Vector_68" d="M144.747 63.6519C145.241 64.0035 145.927 63.8877 146.279 63.3933C146.63 62.8989 146.515 62.2131 146.02 61.8615C145.526 61.5099 144.84 61.6256 144.488 62.12C144.137 62.6144 144.252 63.3003 144.747 63.6519Z" fill="#00CBD6" fill-opacity="0.2"/>
<path id="Vector_69" d="M136.044 75.886C135.597 75.5677 135.511 75.0571 135.829 74.6095C136.147 74.1619 136.658 74.0757 137.105 74.3941C137.553 74.7124 137.639 75.223 137.321 75.6706C137.109 75.969 136.492 76.2044 136.044 75.886Z" fill="#00CBD6" fill-opacity="0.2"/>
<path id="Vector_70" d="M127.454 87.9712C127.007 87.6529 126.921 87.1423 127.239 86.6947C127.557 86.2471 128.068 86.1609 128.516 86.4793C128.963 86.7976 129.049 87.3082 128.731 87.7558C128.263 88.0973 127.753 88.1835 127.454 87.9712Z" fill="#00CBD6" fill-opacity="0.2"/>
<path id="Vector_71" d="M118.857 100.055C118.559 99.843 118.473 99.3324 118.685 99.034C118.897 98.7357 119.408 98.6495 119.706 98.8617C120.005 99.0739 120.091 99.5845 119.879 99.8829C119.666 100.181 119.156 100.267 118.857 100.055Z" fill="#00CBD6" fill-opacity="0.2"/>
</g>
</g>
<g id="Group_17">
<g id="Group_18">
<path id="Vector_72" d="M198.663 10.57C197.917 10.0394 197.745 9.0182 198.276 8.27222C198.806 7.52623 199.827 7.35388 200.573 7.88441C201.319 8.41495 201.492 9.43617 200.961 10.1822C200.431 10.9281 199.409 11.1005 198.663 10.57Z" fill="#00CBD6" fill-opacity="0.2"/>
<path id="Vector_73" d="M189.968 22.8038C190.71 23.3313 191.738 23.1576 192.266 22.416C192.793 21.6744 192.62 20.6457 191.878 20.1183C191.136 19.5909 190.108 19.7645 189.58 20.5061C189.053 21.2477 189.226 22.2764 189.968 22.8038Z" fill="#00CBD6" fill-opacity="0.2"/>
<path id="Vector_74" d="M181.379 34.8891C182.038 35.3579 182.952 35.2036 183.421 34.5444C183.89 33.8852 183.736 32.9708 183.076 32.5019C182.417 32.0331 181.503 32.1875 181.034 32.8467C180.565 33.5058 180.719 34.4203 181.379 34.8891Z" fill="#00CBD6" fill-opacity="0.2"/>
<path id="Vector_75" d="M172.77 46.9734C172.173 46.5489 172.044 45.783 172.468 45.1862C172.893 44.5894 173.659 44.4602 174.255 44.8846C174.852 45.309 174.981 46.0749 174.557 46.6717C174.133 47.2685 173.367 47.3978 172.77 46.9734Z" fill="#00CBD6" fill-opacity="0.2"/>
<path id="Vector_76" d="M164.074 59.2072C163.478 58.7828 163.348 58.0169 163.773 57.4201C164.197 56.8233 164.963 56.6941 165.56 57.1185C166.157 57.5429 166.286 58.3088 165.862 58.9056C165.437 59.5024 164.671 59.6317 164.074 59.2072Z" fill="#00CBD6" fill-opacity="0.2"/>
<path id="Vector_77" d="M155.473 71.292C155.968 71.6436 156.654 71.5279 157.005 71.0335C157.357 70.5391 157.241 69.8532 156.747 69.5016C156.252 69.15 155.567 69.2658 155.215 69.7602C154.863 70.2546 154.979 70.9404 155.473 71.292Z" fill="#00CBD6" fill-opacity="0.2"/>
<path id="Vector_78" d="M146.771 83.5262C146.323 83.2078 146.237 82.6972 146.555 82.2496C146.874 81.8021 147.384 81.7159 147.832 82.0342C148.28 82.3525 148.366 82.8631 148.047 83.3107C147.835 83.6091 147.218 83.8445 146.771 83.5262Z" fill="#00CBD6" fill-opacity="0.2"/>
<path id="Vector_79" d="M138.181 95.6114C137.733 95.2931 137.647 94.7824 137.966 94.3349C138.284 93.8873 138.794 93.8011 139.242 94.1194C139.69 94.4377 139.776 94.9483 139.458 95.3959C139.139 95.8435 138.629 95.9297 138.181 95.6114Z" fill="#00CBD6" fill-opacity="0.2"/>
</g>
</g>
<g id="Group_19">
<g id="Group_20">
<path id="Vector_80" d="M217.991 6.12314C218.815 6.70916 219.958 6.51624 220.544 5.69225C221.13 4.86825 220.937 3.72522 220.113 3.1392C219.289 2.55318 218.146 2.7461 217.56 3.5701C216.974 4.39409 217.167 5.53713 217.991 6.12314Z" fill="#00CBD6" fill-opacity="0.2"/>
<path id="Vector_81" d="M209.394 18.2084C208.648 17.6779 208.475 16.6566 209.006 15.9106C209.537 15.1647 210.558 14.9923 211.304 15.5228C212.05 16.0534 212.222 17.0746 211.692 17.8206C211.31 18.6727 210.289 18.845 209.394 18.2084Z" fill="#00CBD6" fill-opacity="0.2"/>
<path id="Vector_82" d="M200.698 30.4425C199.952 29.912 199.78 28.8908 200.311 28.1448C200.841 27.3988 201.862 27.2264 202.608 27.757C203.354 28.2875 203.527 29.3087 202.996 30.0547C202.466 30.8007 201.444 30.9731 200.698 30.4425Z" fill="#00CBD6" fill-opacity="0.2"/>
<path id="Vector_83" d="M192.109 42.5273C192.768 42.9961 193.683 42.8418 194.152 42.1826C194.62 41.5234 194.466 40.6089 193.807 40.1401C193.148 39.6713 192.233 39.8256 191.764 40.4848C191.296 41.144 191.45 42.0585 192.109 42.5273Z" fill="#00CBD6" fill-opacity="0.2"/>
<path id="Vector_84" d="M183.5 54.6113C182.903 54.1869 182.774 53.421 183.199 52.8242C183.623 52.2274 184.389 52.0981 184.986 52.5225C185.583 52.947 185.712 53.7129 185.287 54.3097C185.012 55.0126 184.097 55.0357 183.5 54.6113Z" fill="#00CBD6" fill-opacity="0.2"/>
<path id="Vector_85" d="M174.805 66.8459C174.208 66.4215 174.079 65.6556 174.503 65.0588C174.928 64.462 175.694 64.3327 176.29 64.7572C176.887 65.1816 177.017 65.9475 176.592 66.5443C176.168 67.1411 175.402 67.2703 174.805 66.8459Z" fill="#00CBD6" fill-opacity="0.2"/>
<path id="Vector_86" d="M166.204 78.9304C166.698 79.282 167.384 79.1663 167.736 78.6719C168.087 78.1775 167.972 77.4917 167.477 77.1401C166.983 76.7885 166.297 76.9042 165.945 77.3986C165.594 77.893 165.71 78.5788 166.204 78.9304Z" fill="#00CBD6" fill-opacity="0.2"/>
<path id="Vector_87" d="M157.501 91.1641C157.054 90.8458 156.968 90.3352 157.286 89.8876C157.604 89.44 158.115 89.3538 158.562 89.6721C159.01 89.9905 159.096 90.5011 158.778 90.9487C158.715 91.3532 157.949 91.4824 157.501 91.1641Z" fill="#00CBD6" fill-opacity="0.2"/>
<path id="Vector_88" d="M148.911 103.249C148.464 102.931 148.378 102.42 148.696 101.973C149.014 101.525 149.525 101.439 149.973 101.757C150.42 102.076 150.506 102.586 150.188 103.034C149.87 103.481 149.359 103.568 148.911 103.249Z" fill="#00CBD6" fill-opacity="0.2"/>
</g>
</g>
<g id="Group_21">
<g id="Group_22">
<path id="Vector_89" d="M220.32 25.9599C219.574 25.4293 219.401 24.4081 219.932 23.6621C220.462 22.9161 221.484 22.7438 222.229 23.2743C222.975 23.8048 223.148 24.8261 222.617 25.572C222.087 26.318 221.066 26.4904 220.32 25.9599Z" fill="#00CBD6" fill-opacity="0.2"/>
<path id="Vector_90" d="M211.624 38.1937C210.878 37.6632 210.706 36.642 211.236 35.896C211.767 35.15 212.788 34.9777 213.534 35.5082C214.28 36.0387 214.453 37.0599 213.922 37.8059C213.391 38.5519 212.37 38.7243 211.624 38.1937Z" fill="#00CBD6" fill-opacity="0.2"/>
<path id="Vector_91" d="M203.035 50.279C203.694 50.7478 204.609 50.5935 205.077 49.9343C205.546 49.2751 205.392 48.3606 204.733 47.8918C204.073 47.423 203.159 47.5774 202.69 48.2365C202.221 48.8957 202.376 49.8102 203.035 50.279Z" fill="#00CBD6" fill-opacity="0.2"/>
<path id="Vector_92" d="M194.426 62.3633C193.829 61.9388 193.7 61.1729 194.124 60.5761C194.549 59.9793 195.315 59.8501 195.912 60.2745C196.508 60.6989 196.638 61.4648 196.213 62.0616C195.789 62.6584 195.023 62.7877 194.426 62.3633Z" fill="#00CBD6" fill-opacity="0.2"/>
<path id="Vector_93" d="M185.731 74.5971C185.134 74.1727 185.005 73.4068 185.429 72.81C185.854 72.2132 186.619 72.084 187.216 72.5084C187.813 72.9328 187.942 73.6987 187.518 74.2955C186.944 74.7862 186.178 74.9155 185.731 74.5971Z" fill="#00CBD6" fill-opacity="0.2"/>
<path id="Vector_94" d="M177.13 86.6819C176.682 86.3636 176.553 85.5977 176.871 85.1501C177.189 84.7025 177.955 84.5732 178.403 84.8915C178.851 85.2098 178.98 85.9758 178.662 86.4234C178.343 86.8709 177.577 87.0002 177.13 86.6819Z" fill="#00CBD6" fill-opacity="0.2"/>
<path id="Vector_95" d="M168.427 98.9161C167.98 98.5977 167.893 98.0871 168.212 97.6395C168.53 97.1919 169.041 97.1058 169.488 97.4241C169.936 97.7424 170.022 98.253 169.704 98.7006C169.491 98.999 168.875 99.2344 168.427 98.9161Z" fill="#00CBD6" fill-opacity="0.2"/>
</g>
</g>
<g id="Group_23">
<g id="Group_24">
<path id="Vector_96" d="M222.351 45.8327C221.605 45.3021 221.432 44.2809 221.963 43.5349C222.494 42.7889 223.515 42.6166 224.261 43.1471C225.007 43.6776 225.179 44.6989 224.649 45.4449C224.118 46.1908 223.097 46.3632 222.351 45.8327Z" fill="#00CBD6" fill-opacity="0.2"/>
<path id="Vector_97" d="M213.761 57.9179C213.165 57.4935 212.992 56.4723 213.417 55.8755C213.841 55.2787 214.862 55.1063 215.459 55.5307C216.056 55.9552 216.228 56.9764 215.804 57.5732C215.379 58.17 214.507 58.4484 213.761 57.9179Z" fill="#00CBD6" fill-opacity="0.2"/>
<path id="Vector_98" d="M205.153 70.0022C204.556 69.5777 204.427 68.8118 204.851 68.215C205.275 67.6182 206.041 67.489 206.638 67.9134C207.235 68.3378 207.364 69.1038 206.94 69.7005C206.515 70.2973 205.749 70.4266 205.153 70.0022Z" fill="#00CBD6" fill-opacity="0.2"/>
<path id="Vector_99" d="M196.457 82.2361C195.861 81.8116 195.731 81.0457 196.156 80.4489C196.58 79.8521 197.346 79.7229 197.943 80.1473C198.54 80.5717 198.669 81.3376 198.244 81.9344C197.82 82.5312 197.054 82.6605 196.457 82.2361Z" fill="#00CBD6" fill-opacity="0.2"/>
<path id="Vector_100" d="M187.856 94.3208C187.409 94.0025 187.279 93.2366 187.598 92.789C187.916 92.3414 188.682 92.2121 189.13 92.5304C189.577 92.8488 189.706 93.6147 189.388 94.0623C189.07 94.5099 188.304 94.6391 187.856 94.3208Z" fill="#00CBD6" fill-opacity="0.2"/>
<path id="Vector_101" d="M179.154 106.555C178.706 106.237 178.62 105.726 178.938 105.278C179.257 104.831 179.767 104.745 180.215 105.063C180.662 105.381 180.749 105.892 180.43 106.34C180.218 106.638 179.601 106.873 179.154 106.555Z" fill="#00CBD6" fill-opacity="0.2"/>
</g>
</g>
<g id="Group_25">
<g id="Group_26">
<path id="Vector_102" d="M215.883 77.6401C215.286 77.2157 215.157 76.4498 215.581 75.853C216.006 75.2562 216.772 75.1269 217.369 75.5514C217.965 75.9758 218.095 76.7417 217.67 77.3385C217.395 78.0414 216.629 78.1707 215.883 77.6401Z" fill="#00CBD6" fill-opacity="0.2"/>
<path id="Vector_103" d="M207.188 89.874C206.591 89.4496 206.462 88.6837 206.886 88.0869C207.311 87.4901 208.077 87.3608 208.673 87.7852C209.27 88.2097 209.399 88.9756 208.975 89.5724C208.55 90.1692 207.785 90.2984 207.188 89.874Z" fill="#00CBD6" fill-opacity="0.2"/>
<path id="Vector_104" d="M198.587 101.959C199.081 102.31 199.767 102.195 200.119 101.7C200.47 101.206 200.354 100.52 199.86 100.168C199.366 99.8168 198.68 99.9325 198.328 100.427C197.977 100.921 198.092 101.607 198.587 101.959Z" fill="#00CBD6" fill-opacity="0.2"/>
</g>
</g>
<g id="Group_27">
<g id="Group_28">
<path id="Vector_105" d="M218.09 97.6128C217.493 97.1883 217.364 96.4224 217.788 95.8256C218.213 95.2288 218.979 95.0996 219.576 95.524C220.172 95.9484 220.302 96.7143 219.877 97.3111C219.453 97.9079 218.687 98.0372 218.09 97.6128Z" fill="#00CBD6" fill-opacity="0.2"/>
</g>
</g>
<g id="Group_29">
<g id="Group_30">
</g>
</g>
<g id="Group_31">
<g id="Group_32">
</g>
</g>
<g id="Group_33">
<g id="Group_34">
</g>
</g>
<g id="Group_35">
<g id="Group_36">
</g>
</g>
</g>
</g>
</g>
<defs>
<radialGradient id="paint0_radial_667_310" cx="0" cy="0" r="1" gradientUnits="userSpaceOnUse" gradientTransform="translate(222 106) rotate(-153.906) scale(339.894 585.246)">
<stop offset="0.254991" stop-color="#005D63"/>
<stop offset="1" stop-color="#106A85"/>
</radialGradient>
</defs>
</svg>
