<svg width="18" height="18" viewBox="0 0 18 18" fill="none" xmlns="http://www.w3.org/2000/svg">
<g id="Group 1261160150">
<path id="Vector" d="M16.8453 7.53249C16.8453 6.69553 16.5129 5.89284 15.921 5.30102C15.3292 4.70919 14.5265 4.37671 13.6896 4.37671H4.22219C3.38522 4.37671 2.58259 4.70919 1.99076 5.30102C1.39894 5.89284 1.06641 6.69553 1.06641 7.53249" stroke="#EEEDFF" stroke-width="1.5" stroke-linecap="round" stroke-linejoin="round"/>
<path id="Vector_2" d="M16.8453 7.53271C12.0407 12.2664 5.87109 12.2664 1.06641 7.53271" stroke="#EEEDFF" stroke-width="1.5" stroke-linecap="round" stroke-linejoin="round"/>
<path id="Vector_3" d="M16.842 7.53271L16.0531 13.8443C15.9354 14.7033 15.5161 15.4923 14.8699 16.0705C14.2238 16.6486 13.3932 16.9781 12.5265 17.0001H5.31552C4.4488 16.9781 3.61816 16.6486 2.97208 16.0705C2.326 15.4923 1.90664 14.7033 1.78895 13.8443L1 7.53271" stroke="#EEEDFF" stroke-width="1.5" stroke-linecap="round" stroke-linejoin="round"/>
<path id="Vector_4" d="M5.80859 4.15579C5.80859 3.31882 6.14107 2.51613 6.7329 1.92431C7.32472 1.33248 8.12741 1 8.9644 1C9.80132 1 10.6041 1.33248 11.1959 1.92431C11.7877 2.51613 12.1202 3.31882 12.1202 4.15579" stroke="#EEEDFF" stroke-width="1.5" stroke-linecap="round" stroke-linejoin="round"/>
</g>
</svg>
