<svg width="16" height="16" viewBox="0 0 16 16" fill="none" xmlns="http://www.w3.org/2000/svg">
<g id="Group 1261160172">
<g id="Group 1261160174">
<g id="Group 1261160173">
<rect id="Rectangle 10143" width="16" height="16" rx="4" fill="#FFC808"/>
</g>
<path id="Icon" d="M8 4L8.63564 6.36081C8.71321 6.64889 8.75199 6.79293 8.82855 6.91069C8.89628 7.01488 8.98512 7.10372 9.08931 7.17145C9.20707 7.24801 9.35111 7.28679 9.63919 7.36436L12 8L9.63919 8.63564C9.35111 8.71321 9.20707 8.75199 9.08931 8.82855C8.98512 8.89628 8.89628 8.98512 8.82855 9.08931C8.75199 9.20707 8.71321 9.35111 8.63564 9.63919L8 12L7.36436 9.63919C7.28679 9.35111 7.24801 9.20707 7.17145 9.08931C7.10372 8.98512 7.01488 8.89628 6.91069 8.82855C6.79293 8.75199 6.64889 8.71321 6.36081 8.63564L4 8L6.36081 7.36436C6.64889 7.28679 6.79293 7.24801 6.91069 7.17145C7.01488 7.10372 7.10372 7.01488 7.17145 6.91069C7.24801 6.79293 7.28679 6.64889 7.36436 6.36081L8 4Z" stroke="white" stroke-linecap="round" stroke-linejoin="round"/>
</g>
</g>
</svg>
