<svg width="36" height="36" viewBox="0 0 36 36" fill="none" xmlns="http://www.w3.org/2000/svg">
<g id="bnb-bnb-logo 1" clip-path="url(#clip0_670_1300)">
<g id="Group">
<path id="Vector" fill-rule="evenodd" clip-rule="evenodd" d="M18 0C27.9418 0 36 8.05817 36 18C36 27.9418 27.9418 36 18 36C8.05817 36 0 27.9418 0 18C0 8.05817 8.05817 0 18 0Z" fill="#F0B90B"/>
<path id="Vector_2" d="M9.89435 18L9.90733 22.7596L13.9516 25.1394V27.926L7.54051 24.1659V16.6082L9.89435 18ZM9.89435 13.2404V16.014L7.53906 14.6207V11.8471L9.89435 10.4539L12.2612 11.8471L9.89435 13.2404ZM15.6405 11.8471L17.9958 10.4539L20.3626 11.8471L17.9958 13.2404L15.6405 11.8471Z" fill="white"/>
<path id="Vector_3" d="M11.5938 21.7731V18.9866L13.949 20.3798V23.1534L11.5938 21.7731ZM15.638 26.1375L17.9933 27.5308L20.3601 26.1375V28.9111L17.9933 30.3043L15.638 28.9111V26.1375ZM23.738 11.8471L26.0933 10.4539L28.4601 11.8471V14.6207L26.0933 16.014V13.2404L23.738 11.8471ZM26.0933 22.7596L26.1062 18L28.4615 16.6067V24.1644L22.0505 27.9245V25.138L26.0933 22.7596Z" fill="white"/>
<path id="Vector_4" d="M24.4061 21.7731L22.0508 23.1534V20.3798L24.4061 18.9866V21.7731Z" fill="white"/>
<path id="Vector_5" d="M24.4043 14.2269L24.4173 17.0135L20.3615 19.3933V24.1644L18.0062 25.5447L15.651 24.1644V19.3933L11.5952 17.0135V14.2269L13.9606 12.8337L17.9918 15.225L22.0476 12.8337L24.4144 14.2269H24.4043ZM11.5938 9.46876L17.9933 5.69568L24.4043 9.46876L22.049 10.862L17.9933 8.47068L13.949 10.862L11.5938 9.46876Z" fill="white"/>
</g>
</g>
<defs>
<clipPath id="clip0_670_1300">
<rect width="36" height="36" fill="white"/>
</clipPath>
</defs>
</svg>
