<svg width="36" height="36" viewBox="0 0 36 36" fill="none" xmlns="http://www.w3.org/2000/svg">
<g id="Group 1261159153">
<g id="Group 1261159152">
<circle id="Ellipse 1434" cx="18" cy="18" r="17.75" fill="#FF9211" stroke="#FF9211" stroke-width="0.5"/>
</g>
<g id="Group 1261159151">
<path id="Vector" fill-rule="evenodd" clip-rule="evenodd" d="M17.974 8.48926L9.74609 13.2447V22.7554L17.974 27.5107L26.2018 22.7554V13.2447L17.974 8.48926ZM18.3195 6.09269C18.1057 5.9691 17.8423 5.9691 17.6284 6.09269L7.84555 11.7468C7.63172 11.8704 7.5 12.0987 7.5 12.3459V23.6541C7.5 23.9012 7.63172 24.1296 7.84555 24.2532L17.6284 29.9073C17.8423 30.0309 18.1057 30.0309 18.3195 29.9073L28.1024 24.2532C28.3162 24.1296 28.4479 23.9012 28.4479 23.6541V12.3459C28.4479 12.0987 28.3162 11.8704 28.1024 11.7468L18.3195 6.09269Z" fill="white"/>
<path id="Vector_2" d="M17.9719 11.9341L12.7242 14.967V21.0329L17.9373 24.0459C17.9587 24.0583 17.9719 24.0811 17.9719 24.1058V25.1444C17.9719 25.1976 17.9143 25.231 17.8682 25.2043L11.9467 21.7819C11.7863 21.6892 11.6875 21.5179 11.6875 21.3325V14.6674C11.6875 14.482 11.7863 14.3108 11.9467 14.2181L17.7127 10.8856C17.8731 10.7929 18.0707 10.7929 18.2311 10.8856L24.1763 14.3092C24.222 14.3355 24.2224 14.4014 24.1771 14.4283C23.8262 14.6366 23.6465 14.7293 23.254 14.9479C23.2327 14.9597 23.2067 14.9596 23.1857 14.9474L17.9719 11.9341Z" fill="white"/>
<path id="Vector_3" d="M18.8359 18.1281C18.8359 18.1026 18.85 18.079 18.8726 18.067L24.0905 15.2869C24.1365 15.2624 24.192 15.2958 24.192 15.348V22.1112C24.192 22.1359 24.1789 22.1587 24.1576 22.1711L18.9397 25.204C18.8937 25.2308 18.8359 25.1974 18.8359 25.1442V18.1281Z" fill="white"/>
</g>
</g>
</svg>
