<svg width="32" height="32" viewBox="0 0 32 32" fill="none" xmlns="http://www.w3.org/2000/svg">
<g id="Group 1261154181">
<g id="dypius_icon_purple_text_purple">
<g id="Group 1000010408">
<circle id="Ellipse 260" cx="16" cy="16" r="16" fill="url(#paint0_linear_738_756)"/>
<g id="Group 1000010406">
<g id="Group 1000010398">
<path id="Vector" d="M6.1101 16.0595L12.509 20.8157C12.5192 20.8157 12.5192 20.8258 12.5293 20.8258L14.9023 22.5828C15.1051 22.7343 15.3891 22.5929 15.3891 22.3405L15.3992 9.2434C15.3789 9.01114 15.3485 8.76879 15.2978 8.53654C15.2471 8.31438 15.1761 8.10233 15.0747 7.92056C15.2471 9.203 14.517 10.6975 13.2798 11.677C13.006 11.8992 12.6307 12.1415 12.215 12.3132C11.7688 12.505 10.42 12.9695 10.42 12.9695L6.35348 14.4337C5.65376 14.6862 5.51178 15.6152 6.1101 16.0595Z" fill="white"/>
<path id="Vector_2" d="M12.4602 12.2019C12.4703 12.1918 12.4906 12.1918 12.5008 12.1817C12.5211 12.1716 12.5413 12.1615 12.5718 12.1413C12.6022 12.1312 12.6225 12.111 12.6529 12.1009C12.663 12.0908 12.6833 12.0807 12.6934 12.0807C12.7239 12.0605 12.7644 12.0404 12.7949 12.0202C12.805 12.0101 12.8151 12.0101 12.8253 12C12.8557 11.9798 12.8861 11.9596 12.9267 11.9394C12.947 11.9293 12.9571 11.9192 12.9774 11.9091C12.9977 11.8889 13.0281 11.8788 13.0484 11.8586C13.0788 11.8384 13.1092 11.8081 13.1498 11.7879C13.1599 11.7879 13.1599 11.7778 13.1701 11.7778C13.2106 11.7475 13.2512 11.7172 13.2918 11.6869C14.529 10.7074 15.2591 9.21292 15.0867 7.93048C15.0157 7.8093 14.9245 7.69823 14.8231 7.61744L12.7137 6.06236C12.5109 5.91089 12.2168 6.05226 12.2168 6.30471V9.97027C12.2168 12.2726 10.4219 12.9694 10.4219 12.9694C10.4219 12.9694 11.7808 12.515 12.2168 12.3231C12.298 12.2827 12.3791 12.2423 12.4602 12.2019Z" fill="#F2EEFF"/>
</g>
<g id="Group 1000010399">
<path id="Vector_3" d="M25.7614 15.8072L19.3584 11.0511C19.3483 11.0511 19.3483 11.041 19.3381 11.041L16.9636 9.28398C16.7607 9.13251 16.4766 9.27388 16.4766 9.52633V22.6234C16.4969 22.8556 16.5273 23.098 16.578 23.3302C16.6288 23.5524 16.6998 23.7644 16.8013 23.9462C16.6288 22.6637 17.3594 21.1693 18.5974 20.1898C18.8714 19.9676 19.2468 19.7252 19.6629 19.5536C20.0992 19.3617 21.4589 18.9073 21.4589 18.9073L25.5281 17.4431C26.2282 17.1806 26.3601 16.2516 25.7614 15.8072Z" fill="white"/>
<path id="Vector_4" d="M19.4189 19.6649C19.4087 19.675 19.3884 19.675 19.3783 19.6851C19.358 19.6952 19.3377 19.7053 19.3073 19.7255C19.2768 19.7356 19.2565 19.7558 19.2261 19.7659C19.2159 19.776 19.1956 19.786 19.1855 19.786C19.155 19.8062 19.1145 19.8264 19.084 19.8466C19.0739 19.8567 19.0637 19.8567 19.0536 19.8668C19.0231 19.887 18.9927 19.9072 18.9521 19.9274C18.9318 19.9375 18.9217 19.9476 18.9014 19.9577C18.8811 19.9779 18.8506 19.988 18.8303 20.0082C18.7999 20.0284 18.7694 20.0587 18.7288 20.0789C18.7187 20.0789 18.7187 20.089 18.7086 20.089C18.668 20.1193 18.6274 20.1496 18.5868 20.1799C17.3488 21.1594 16.6182 22.6539 16.7907 23.9363C16.8617 24.0575 16.9531 24.1686 17.0545 24.2493L19.155 25.8044C19.358 25.9559 19.6523 25.8145 19.6523 25.5621V21.8965C19.6523 19.6043 21.4484 18.8974 21.4484 18.8974C21.4484 18.8974 20.0886 19.3518 19.6523 19.5437C19.5812 19.5841 19.5001 19.6245 19.4189 19.6649Z" fill="#F2EEFF"/>
</g>
</g>
</g>
</g>
</g>
<defs>
<linearGradient id="paint0_linear_738_756" x1="16" y1="0" x2="16" y2="32" gradientUnits="userSpaceOnUse">
<stop stop-color="#7770E0"/>
<stop offset="1" stop-color="#554FD8"/>
</linearGradient>
</defs>
</svg>
