<svg width="32" height="32" viewBox="0 0 32 32" fill="none" xmlns="http://www.w3.org/2000/svg">
<g id="Group">
<path id="Vector" d="M16 32C24.8366 32 32 24.8366 32 16C32 7.16344 24.8366 0 16 0C7.16344 0 0 7.16344 0 16C0 24.8366 7.16344 32 16 32Z" fill="url(#paint0_linear_738_946)"/>
<g id="Group_2">
<g id="Group_3">
<g id="Group_4">
<g id="Group_5">
<path id="Vector_2" d="M25.097 10.6306H21.0221C20.303 10.6306 19.8356 11.3857 20.1592 12.0209L21.909 15.5565C22.0408 15.8321 22.0408 16.1438 21.909 16.4194L20.1592 19.955C19.8356 20.6022 20.315 21.3453 21.0221 21.3453H25.097C25.4445 21.3453 25.7562 21.1655 25.9359 20.8659L28.4768 16.4673C28.6445 16.1677 28.6445 15.7962 28.4768 15.4966L25.9359 11.0981C25.7681 10.8224 25.4445 10.6306 25.097 10.6306Z" fill="url(#paint1_linear_738_946)"/>
</g>
</g>
</g>
<g id="Group_6">
<g id="Group_7">
<g id="Group_8">
<path id="Vector_3" d="M8.35787 21.3693H12.0013C12.8642 21.3693 13.4275 20.4585 13.044 19.6914L11.474 16.5274C11.3182 16.2038 11.3182 15.8203 11.474 15.4967L13.044 12.3326C13.4275 11.5536 12.8642 10.6547 12.0013 10.6547H8.35787C7.93839 10.6547 7.55487 10.8824 7.35113 11.242L4.93015 15.4367C4.72641 15.7963 4.72641 16.2397 4.93015 16.5993L7.35113 20.7941C7.55487 21.1416 7.93839 21.3693 8.35787 21.3693Z" fill="url(#paint2_linear_738_946)"/>
</g>
</g>
</g>
<g id="Group_9">
<g id="Group_10">
<g id="Group_11">
<path id="Vector_4" d="M19.2002 25.8517H9.83985C9.21663 25.8517 8.64135 25.5161 8.32974 24.9767L3.65558 16.8749C3.34397 16.3356 3.34397 15.6644 3.65558 15.1251L8.32974 7.02319C8.64135 6.48387 9.21663 6.14828 9.83985 6.14828H19.2002C19.8234 6.14828 20.3987 6.48387 20.7103 7.02319L25.3844 15.1251C25.696 15.6644 25.696 16.3356 25.3844 16.8749L20.7103 24.9767C20.3987 25.5161 19.8234 25.8517 19.2002 25.8517ZM10.535 24.6412H18.493C19.1163 24.6412 19.6915 24.3056 20.0031 23.7663L23.9822 16.8749C24.2938 16.3356 24.2938 15.6644 23.9822 15.1251L20.0031 8.23368C19.6915 7.69435 19.1163 7.35877 18.493 7.35877H10.535C9.91176 7.35877 9.33648 7.69435 9.02487 8.23368L5.04585 15.1251C4.73423 15.6644 4.73423 16.3356 5.04585 16.8749L9.02487 23.7663C9.33648 24.3056 9.91176 24.6412 10.535 24.6412Z" fill="url(#paint3_linear_738_946)"/>
</g>
</g>
</g>
</g>
</g>
<defs>
<linearGradient id="paint0_linear_738_946" x1="16" y1="0" x2="16" y2="32" gradientUnits="userSpaceOnUse">
<stop stop-color="#CCFA82"/>
<stop offset="1" stop-color="#0DB4C8"/>
</linearGradient>
<linearGradient id="paint1_linear_738_946" x1="20.0513" y1="15.9999" x2="28.6047" y2="15.9999" gradientUnits="userSpaceOnUse">
<stop stop-color="white" stop-opacity="0.1"/>
<stop offset="1" stop-color="white"/>
</linearGradient>
<linearGradient id="paint2_linear_738_946" x1="4.76742" y1="16" x2="13.1705" y2="16" gradientUnits="userSpaceOnUse">
<stop stop-color="white" stop-opacity="0.1"/>
<stop offset="1" stop-color="white"/>
</linearGradient>
<linearGradient id="paint3_linear_738_946" x1="6.79877" y1="27.306" x2="19.5827" y2="8.57756" gradientUnits="userSpaceOnUse">
<stop stop-color="white" stop-opacity="0.1"/>
<stop offset="1" stop-color="white"/>
</linearGradient>
</defs>
</svg>
