<svg width="16" height="16" viewBox="0 0 16 16" fill="none" xmlns="http://www.w3.org/2000/svg">
<g id="pickaxe-svgrepo-com 1" clip-path="url(#clip0_670_996)">
<path id="Vector" d="M15.999 12.2564C15.999 12.2564 12.9492 8.23584 10.3559 5.64305C7.76267 3.0498 3.74219 0 3.74219 0C3.74219 0 7.9951 0.0102567 11.9922 4.00682C15.9888 8.00341 15.999 12.2564 15.999 12.2564Z" fill="white"/>
<path id="Vector_2" d="M11.9121 2.67383L0.292969 14.293C-0.0976563 14.6836 -0.0976563 15.3164 0.292969 15.7071C0.683594 16.0977 1.31641 16.0977 1.70703 15.7071L13.3262 4.08792L11.9121 2.67383Z" fill="white"/>
<path id="Vector_3" d="M8.8477 5.73759L10.2617 7.15161L13.3256 4.08771L11.9116 2.67368L8.8477 5.73759Z" fill="white"/>
<path id="Vector_4" d="M11.4401 5.03075C11.3102 5.16111 11.0988 5.16064 10.9689 5.03075C10.8385 4.90038 10.8385 4.68943 10.9689 4.55907C11.0988 4.4292 11.3102 4.4292 11.4401 4.55907C11.5705 4.68943 11.5705 4.90038 11.4401 5.03075Z" fill="white"/>
<path id="Vector_5" d="M15.2134 15.5H6.78658L7.82053 13.2943L10.9693 11.2601L14.1804 13.2964L15.2134 15.5Z" fill="white" stroke="white"/>
</g>
<defs>
<clipPath id="clip0_670_996">
<rect width="16" height="16" fill="white"/>
</clipPath>
</defs>
</svg>
