<svg width="36" height="36" viewBox="0 0 36 36" fill="none" xmlns="http://www.w3.org/2000/svg">
<g id="skale logo 1" clip-path="url(#clip0_670_1448)">
<g id="Clip path group">
<mask id="mask0_670_1448" style="mask-type:luminance" maskUnits="userSpaceOnUse" x="0" y="0" width="36" height="36">
<g id="clip0_185_39">
<path id="Vector" d="M36 0H0V36H36V0Z" fill="white"/>
</g>
</mask>
<g mask="url(#mask0_670_1448)">
<g id="Group">
<path id="Vector_2" d="M18 36C27.941 36 36 27.941 36 18C36 8.05887 27.941 0 18 0C8.05887 0 0 8.05887 0 18C0 27.941 8.05887 36 18 36Z" fill="black"/>
<path id="Vector_3" d="M23.6514 20.4889C23.7324 21.0746 23.892 21.5122 24.1298 21.8021C24.5649 22.3301 25.3099 22.594 26.3654 22.594C26.9978 22.594 27.5109 22.5245 27.9053 22.3853C28.6534 22.1184 29.0274 21.6225 29.0274 20.8976C29.0274 20.4741 28.8418 20.1465 28.4709 19.9145C28.0995 19.6884 27.5169 19.4884 26.722 19.3144L25.365 19.01C24.031 18.7081 23.109 18.3805 22.5985 18.0266C21.7345 17.4353 21.3024 16.5102 21.3024 15.2516C21.3024 14.1033 21.72 13.1493 22.555 12.3896C23.3904 11.63 24.6169 11.25 26.2349 11.25C27.5863 11.25 28.7389 11.608 29.6929 12.3244C30.6471 13.0407 31.1473 14.0802 31.1936 15.4432H28.6185C28.572 14.6717 28.2358 14.1238 27.6094 13.799C27.192 13.5844 26.6728 13.4769 26.0524 13.4769C25.3623 13.4769 24.8113 13.6162 24.3994 13.8946C23.9878 14.173 23.7819 14.5614 23.7819 15.0604C23.7819 15.5185 23.9846 15.8608 24.3908 16.0869C24.6518 16.2377 25.2084 16.4146 26.061 16.6177L28.2705 17.1481C29.2393 17.3801 29.9699 17.6903 30.4629 18.079C31.2285 18.6824 31.6113 19.555 31.6113 20.6975C31.6113 21.8691 31.1633 22.842 30.2673 23.6164C29.371 24.3905 28.1055 24.7775 26.4698 24.7775C24.7998 24.7775 23.4859 24.3961 22.5291 23.6335C21.572 22.871 21.0938 21.8227 21.0938 20.4889H23.6514Z" fill="white"/>
<path id="Vector_4" fill-rule="evenodd" clip-rule="evenodd" d="M7.875 7.3125V28.6875H26.4375V26.7188H10.125V9.28125H26.4375V7.3125H7.875Z" fill="white"/>
</g>
</g>
</g>
</g>
<defs>
<clipPath id="clip0_670_1448">
<rect width="36" height="36" fill="white"/>
</clipPath>
</defs>
</svg>
