<svg width="20" height="20" viewBox="0 0 20 20" fill="none" xmlns="http://www.w3.org/2000/svg">
<g filter="url(#filter0_b_738_895)">
<rect width="20" height="20" rx="6" fill="url(#paint0_linear_738_895)"/>
<rect width="20" height="20" rx="6" fill="url(#paint1_linear_738_895)"/>
</g>
<rect opacity="0.2" width="20" height="20" rx="6" fill="white"/>
<path d="M9.99219 14.9997C7.23076 14.9997 4.99219 12.7611 4.99219 9.99968C4.99219 8.71909 5.47361 7.55094 6.26534 6.66635L7.76997 4.99968M9.99219 4.99968C12.7536 4.99968 14.9922 7.23826 14.9922 9.99968C14.9922 11.2803 14.5108 12.4484 13.719 13.333L12.2144 14.9997M4.99219 4.99968H7.76997M7.76997 4.99968V7.77746M14.9922 14.9997H12.2144M12.2144 14.9997V12.2219" stroke="white" stroke-linecap="round" stroke-linejoin="round"/>
<defs>
<filter id="filter0_b_738_895" x="-8" y="-8" width="36" height="36" filterUnits="userSpaceOnUse" color-interpolation-filters="sRGB">
<feFlood flood-opacity="0" result="BackgroundImageFix"/>
<feGaussianBlur in="BackgroundImageFix" stdDeviation="4"/>
<feComposite in2="SourceAlpha" operator="in" result="effect1_backgroundBlur_738_895"/>
<feBlend mode="normal" in="SourceGraphic" in2="effect1_backgroundBlur_738_895" result="shape"/>
</filter>
<linearGradient id="paint0_linear_738_895" x1="0" y1="0" x2="26.7581" y2="11.2647" gradientUnits="userSpaceOnUse">
<stop stop-color="white" stop-opacity="0.47"/>
<stop offset="1" stop-color="white" stop-opacity="0"/>
</linearGradient>
<linearGradient id="paint1_linear_738_895" x1="20" y1="19.4506" x2="2.21581" y2="-1.85001" gradientUnits="userSpaceOnUse">
<stop stop-color="#276E76"/>
<stop offset="1" stop-color="#60A9A4"/>
</linearGradient>
</defs>
</svg>
