<svg width="65" height="45" viewBox="0 0 65 45" fill="none" xmlns="http://www.w3.org/2000/svg">
<g id="Group 1261160118">
<path id="Vector" d="M17.3181 0.38437L16.5021 7.02573C14.6015 7.02573 13.0142 7.00731 10.1608 7.01257C0.0526397 7.01257 0 0.352783 0 0.352783L17.3181 0.38437Z" fill="#200968"/>
<path id="Vector_2" d="M17.3205 0.38437L15.6122 5.57269C13.7116 5.57269 13.3984 5.55426 10.5449 5.55689C0.436797 5.57006 0.015625 0.352783 0.015625 0.352783L17.3205 0.38437Z" fill="url(#paint0_radial_606_3573)"/>
<path id="Vector_3" d="M14.758 8.27079L13.9683 14.9122C12.0678 14.9122 14.3789 14.9122 11.5255 14.9122C1.41734 14.9122 1.35156 8.23657 1.35156 8.23657L14.758 8.27079Z" fill="#200968"/>
<path id="Vector_4" d="M14.7527 8.27087L13.0785 13.4697C11.178 13.4697 14.7658 13.4513 11.9124 13.4697C1.80423 13.4697 1.35938 8.25244 1.35938 8.25244L14.7527 8.27087Z" fill="url(#paint1_radial_606_3573)"/>
<path id="Vector_5" d="M12.1934 16.1544L5.07031 16.1255C5.07031 16.1255 6.18905 21.1269 11.3879 22.7984L12.1934 16.1544Z" fill="#200968"/>
<path id="Vector_6" d="M12.1934 16.1544L5.07031 16.1255C5.07031 16.1255 5.29143 19.6818 10.5008 21.3533L12.1934 16.1544Z" fill="url(#paint2_radial_606_3573)"/>
<path id="Vector_7" d="M14.7498 8.27051L15.6053 9.90255L13.9601 14.9119L13.0625 13.4694L14.7498 8.27051Z" fill="#4B0EA7"/>
<path id="Vector_8" d="M12.1928 16.1545L13.0483 17.7866L10.5739 25.3203L9.02344 25.7968L12.1928 16.1545Z" fill="#4B0EA7"/>
<path id="Vector_9" style="mix-blend-mode:soft-light" d="M17.3154 0.38437L0.0078125 0.352783C0.0078125 0.352783 0.431617 5.57006 10.5371 5.55689C13.3906 5.55689 13.6959 5.55689 15.6044 5.57269L17.3154 0.38437Z" fill="url(#paint3_radial_606_3573)"/>
<path id="Vector_10" style="mix-blend-mode:screen" d="M13.0796 13.4697L14.0746 10.4031C12.737 10.8364 11.4543 11.4238 10.2525 12.1536C9.76285 12.4537 9.19952 12.8222 8.5625 13.2355C9.67274 13.3894 10.7926 13.4633 11.9134 13.4566C14.7537 13.4513 11.1659 13.4592 13.0796 13.4697Z" fill="url(#paint4_radial_606_3573)"/>
<g id="Group" style="mix-blend-mode:multiply" opacity="0.6">
<path id="Vector_11" d="M10.5398 5.55684C13.3932 5.55684 13.6986 5.55684 15.607 5.57264L16.96 1.46094L15.9545 3.70632C15.4728 4.88823 15.1858 5.28571 14.0065 5.28571C12.7325 5.28571 10.3213 5.26992 9.11566 5.22254C3.80889 5.01459 0.692218 2.72183 0.0078125 0.350098C0.0078125 0.35273 0.442149 5.57 10.5398 5.55684Z" fill="#612CB7"/>
</g>
<g id="Group_2" style="mix-blend-mode:multiply" opacity="0.6">
<path id="Vector_12" d="M13.2905 11.9376C12.972 12.6089 12.6245 13.1748 11.8795 13.1485C11.1346 13.1222 8.94449 13.1064 7.7073 12.8274C4.83806 12.1772 3.12179 11.1085 1.96094 9.79756C2.93753 11.3375 5.45141 13.4618 11.9006 13.4565C14.7541 13.4565 11.1662 13.4565 13.0667 13.4565L14.4645 9.15527L13.2905 11.9376Z" fill="#612CB7"/>
</g>
<path id="Vector_13" d="M10.5037 21.3534L11.9779 16.8205C11.7146 17.397 11.1539 18.7342 10.5959 19.9793C10.2168 20.8217 9.85358 20.7164 9.27973 20.4742C6.38417 19.2633 5.70238 17.8208 5.08642 16.1309C5.07325 16.1256 5.29436 19.6819 10.5037 21.3534Z" fill="#4B0EA7"/>
<g id="Vector_14" style="mix-blend-mode:screen" opacity="0.5">
<path d="M4.60938 0.352783L17.3183 0.38437L16.8892 1.68211C16.8892 1.01876 16.5733 0.681821 15.8073 0.673924L4.60938 0.352783Z" fill="#E6ADFF"/>
</g>
<g id="Vector_15" style="mix-blend-mode:screen" opacity="0.5">
<path d="M4.60938 8.27051H14.7544L14.2885 9.70776L14.3385 9.23131C14.3648 8.77855 14.2042 8.54427 13.3803 8.50478L4.60938 8.27051Z" fill="#E6ADFF"/>
</g>
<path id="Vector_16" d="M32.5011 39.361L52.5673 24.7832L44.902 1.19751H20.1002L12.4375 24.7832L32.5011 39.361Z" fill="#391054"/>
<g id="Vector_17" style="mix-blend-mode:multiply" opacity="0.3">
<path d="M21.9844 3.77979L32.5085 36.1679L43.0325 3.77979H21.9844Z" fill="#0C363D"/>
</g>
<path id="Vector_18" d="M45.6175 0.210449H19.3942L11.2734 25.1728L32.4979 40.593L53.7223 25.1728L45.6175 0.210449ZM15.472 23.7961L21.9739 3.79042H43.0325L49.537 23.7961L32.5084 36.168L15.472 23.7961Z" fill="url(#paint5_radial_606_3573)"/>
<path id="Vector_19" d="M45.6209 0.210449H19.3977L17.5234 5.98051C18.736 6.04214 19.9427 6.18815 21.135 6.41748L21.9905 3.78515H43.0492L49.5536 23.7908L47.0845 25.5861C47.643 26.6698 48.1335 27.7872 48.5533 28.9318L53.7258 25.1728L45.6209 0.210449Z" fill="url(#paint6_radial_606_3573)"/>
<path id="Vector_20" style="mix-blend-mode:soft-light" d="M45.6209 0.210449H19.3977L17.5234 5.98051C18.736 6.04214 19.9427 6.18815 21.135 6.41748L21.9905 3.78515H43.0492L49.5536 23.7908L47.0845 25.5861C47.643 26.6698 48.1335 27.7872 48.5533 28.9318L53.7258 25.1728L45.6209 0.210449Z" fill="url(#paint7_radial_606_3573)"/>
<path id="Vector_21" style="mix-blend-mode:screen" d="M44.1775 32.0958C44.0599 30.7608 43.856 29.4349 43.5669 28.1263L32.5111 36.168L15.4852 23.7961L20.1549 9.42358C18.8451 9.45599 17.5406 9.60308 16.2564 9.86318L11.2734 25.1728L32.4979 40.593L44.1775 32.0958Z" fill="url(#paint8_radial_606_3573)"/>
<path id="Vector_22" d="M15.4766 23.7986L17.1586 23.4196L23.0208 5.38024H41.9868L47.849 23.4196L49.531 23.7986L43.0265 3.77979H21.9811L15.4766 23.7986Z" fill="#4B0EA7"/>
<g id="Vector_23" style="mix-blend-mode:multiply" opacity="0.5">
<path d="M17.1562 23.4198L20.4361 14.9964C22.3761 10.0134 27.1776 7.85221 32.5238 7.85221C37.8964 7.85221 42.7109 10.0423 44.6325 15.0569L47.8413 23.4119L41.9791 5.37256H23.0105L17.1562 23.4198Z" fill="#912774"/>
</g>
<path id="Vector_24" d="M15.4766 23.7987L17.1586 23.4197L32.5025 34.5676L47.849 23.4197L49.531 23.7987L32.5025 36.168L15.4766 23.7987Z" fill="url(#paint9_linear_606_3573)"/>
<g id="Vector_25" style="mix-blend-mode:multiply" opacity="0.5">
<path d="M17.1562 23.4197L23.1737 7.97848C23.3154 7.61404 23.5639 7.30091 23.8866 7.08014C24.2093 6.85936 24.5912 6.74125 24.9822 6.74128H40.1075C40.4998 6.7417 40.8828 6.86087 41.2061 7.08311C41.5293 7.30535 41.7777 7.62025 41.9186 7.98638L47.8466 23.4197L41.9844 5.38037H23.0158L17.1562 23.4197Z" fill="#912774"/>
</g>
<path id="Vector_26" d="M21.9766 3.77979L23.0163 5.38024H41.9823L43.022 3.77979H21.9766Z" fill="#200968"/>
<g id="Group_3" style="mix-blend-mode:multiply" opacity="0.6">
<path id="Vector_27" d="M14.19 16.2227L12.1552 23.8353C12.0893 24.1901 12.1189 24.556 12.2411 24.8955C12.3632 25.235 12.5734 25.536 12.8501 25.7675L32.5057 40.5927L11.2812 25.1726L14.19 16.2227Z" fill="#612CB7"/>
</g>
<g id="Vector_28" style="mix-blend-mode:multiply" opacity="0.5">
<path d="M17.1562 23.4197L31.7947 33.2804C32.0078 33.4082 32.2516 33.4757 32.5001 33.4757C32.7486 33.4757 32.9924 33.4082 33.2055 33.2804L47.8466 23.4197L32.5001 34.5676L17.1562 23.4197Z" fill="#912774"/>
</g>
<g id="Group_4" style="mix-blend-mode:multiply" opacity="0.6">
<path id="Vector_29" d="M32.5 40.5826L51.4001 25.9837C52.7163 25.0045 53.0084 24.7913 52.4135 22.9144L48.465 8.98413L53.7297 25.1624L32.5 40.5826Z" fill="#612CB7"/>
</g>
<g id="Vector_30" style="mix-blend-mode:screen" opacity="0.5">
<path d="M23.125 29.3529L32.504 36.1679L45.1707 26.9653L32.504 36.7471L23.125 29.3529Z" fill="#E6ADFF"/>
</g>
<g id="Vector_31" style="mix-blend-mode:screen" opacity="0.5">
<path d="M31.7891 0.210449H45.6193L48.4701 8.984L45.0902 0.697432L31.7891 0.210449Z" fill="#E6ADFF"/>
</g>
<g id="Vector_32" style="mix-blend-mode:screen" opacity="0.85">
<path d="M37.2978 0.210449C37.182 1.34762 37.6795 2.61903 38.635 3.77989H43.0284L44.1155 7.12294C45.3477 7.45647 46.644 7.47458 47.885 7.17559L45.6238 0.210449H37.2978Z" fill="#FFF2BB"/>
</g>
<g id="Vector_33" style="mix-blend-mode:screen" opacity="0.85">
<path d="M21.9815 28.5266C21.6498 29.3795 22.2448 30.6535 23.4583 31.5327C24.6718 32.4119 26.0643 32.5857 26.775 32.0065L21.9815 28.5266Z" fill="#FFF2BB"/>
</g>
<g id="Vector_34" style="mix-blend-mode:screen" opacity="0.85">
<path d="M26.8082 34.3386C26.6055 34.6492 26.0448 34.6439 25.5552 34.3254C25.0656 34.0069 24.8366 33.4962 25.0287 33.1856C25.2209 32.875 25.7921 32.8829 26.2817 33.2014C26.7713 33.5199 27.0082 34.028 26.8082 34.3386Z" fill="#FFF2BB"/>
</g>
<path id="Vector_35" d="M17.3178 0.384277L18.1706 2.03211L16.5149 7.02564L15.6094 5.57259L17.3178 0.384277Z" fill="#4B0EA7"/>
<path id="Vector_36" d="M47.6953 0.38437L48.4982 7.02573C50.3987 7.02573 51.986 7.00731 54.8421 7.01257C64.9476 7.01257 65.0029 0.352783 65.0029 0.352783L47.6953 0.38437Z" fill="#200968"/>
<path id="Vector_37" d="M47.6953 0.38437L49.4011 5.57269C51.3016 5.57269 51.6148 5.55426 54.4683 5.55689C64.5764 5.57006 64.9976 0.352783 64.9976 0.352783L47.6953 0.38437Z" fill="url(#paint10_radial_606_3573)"/>
<path id="Vector_38" d="M50.25 8.27079L51.0397 14.9122C52.9402 14.9122 50.6291 14.9122 53.4851 14.9122C63.5906 14.9122 63.6564 8.23657 63.6564 8.23657L50.25 8.27079Z" fill="#200968"/>
<path id="Vector_39" d="M50.25 8.27087L51.9373 13.4697C53.8405 13.4697 50.25 13.4513 53.1035 13.4697C63.2116 13.4697 63.6564 8.25244 63.6564 8.25244L50.25 8.27087Z" fill="url(#paint11_radial_606_3573)"/>
<path id="Vector_40" d="M52.8281 16.1544L59.9486 16.1255C59.9486 16.1255 58.8298 21.1269 53.631 22.7984L52.8281 16.1544Z" fill="#200968"/>
<path id="Vector_41" d="M52.8281 16.1544L59.9486 16.1255C59.9486 16.1255 59.7274 19.6818 54.5181 21.3533L52.8281 16.1544Z" fill="url(#paint12_radial_606_3573)"/>
<path id="Vector_42" style="mix-blend-mode:soft-light" d="M47.6953 0.38437L49.4011 5.57269C51.3016 5.57269 51.6148 5.55426 54.4683 5.55689C64.5764 5.57006 64.9976 0.352783 64.9976 0.352783L47.6953 0.38437Z" fill="url(#paint13_radial_606_3573)"/>
<path id="Vector_43" style="mix-blend-mode:soft-light" d="M50.25 8.27087L51.9373 13.4697C53.8405 13.4697 50.25 13.4513 53.1035 13.4697C63.2116 13.4697 63.6564 8.25244 63.6564 8.25244L50.25 8.27087Z" fill="url(#paint14_radial_606_3573)"/>
<path id="Vector_44" d="M47.6966 0.384277L46.8438 2.03211L48.4995 7.02564L49.4024 5.57259L47.6966 0.384277Z" fill="#4B0EA7"/>
<path id="Vector_45" d="M50.2539 8.27051L49.3984 9.90255L51.0436 14.9119L51.9412 13.4694L50.2539 8.27051Z" fill="#4B0EA7"/>
<path id="Vector_46" d="M52.8164 16.1545L51.9609 17.7866L54.4458 25.3519L55.9805 25.7968L52.8164 16.1545Z" fill="#4B0EA7"/>
<g id="Group_5" style="mix-blend-mode:multiply" opacity="0.6">
<path id="Vector_47" d="M14.6562 14.7438L19.0891 2.03226C19.5471 0.742423 19.8788 0.402856 21.2502 0.352841L32.4955 0.210693H19.3944L14.6562 14.7438Z" fill="#612CB7"/>
</g>
<g id="Vector_48" style="mix-blend-mode:screen" opacity="0.85">
<path d="M36.4657 2.19524C35.5497 1.52927 34.4441 1.48715 33.9992 2.10048C33.678 2.54008 33.786 3.19816 34.2098 3.7799H37.4976C37.4436 3.45907 37.3241 3.15279 37.1466 2.88016C36.9691 2.60752 36.7373 2.37437 36.4657 2.19524Z" fill="#FFF2BB"/>
</g>
<g id="Group_6" style="mix-blend-mode:multiply" opacity="0.6">
<path id="Vector_49" fill-rule="evenodd" clip-rule="evenodd" d="M51.6123 5.16725C50.4593 5.05143 49.6564 4.64079 49.1326 3.60102L47.6953 0.373779L49.4011 5.5621C51.3016 5.5621 51.6148 5.54367 54.4683 5.54631C55.8539 5.56078 57.2376 5.44355 58.601 5.19621C56.277 5.43493 53.9342 5.42522 51.6123 5.16725Z" fill="#612CB7"/>
</g>
<g id="Group_7" style="mix-blend-mode:multiply" opacity="0.6">
<path id="Vector_50" fill-rule="evenodd" clip-rule="evenodd" d="M53.1035 13.4562C55.5489 13.4562 57.4284 13.1535 58.8735 12.6902C57.1957 13.1391 55.4527 13.2941 53.722 13.1482C52.8112 13.0903 52.0663 12.4191 51.6793 11.5925L50.25 8.27051L51.9373 13.4694C53.8378 13.4588 50.25 13.4509 53.1035 13.4562Z" fill="#612CB7"/>
</g>
<path id="Vector_51" fill-rule="evenodd" clip-rule="evenodd" d="M54.5049 21.3534C55.4734 21.0558 56.3937 20.6195 57.2373 20.0583C56.4489 20.3061 55.6416 20.4892 54.8235 20.6058L52.8281 16.1545L54.5049 21.3534Z" fill="#4B0EA7"/>
<g id="Vector_52" style="mix-blend-mode:screen" opacity="0.5">
<path d="M47.6953 0.384298L63.5209 0.647531C64.1579 0.647531 64.4527 1.13451 64.179 1.70046C63.8253 2.44811 63.3091 3.10732 62.668 3.62996C64.8529 2.14533 65.0029 0.336914 65.0029 0.336914L47.6953 0.368505V0.384298Z" fill="#E6ADFF"/>
</g>
<g id="Vector_53" style="mix-blend-mode:screen" opacity="0.5">
<path d="M50.25 8.27087L61.927 8.53411C63.2906 8.56569 63.0695 9.14217 62.7167 9.85027C62.4831 10.3348 62.1739 10.7791 61.8007 11.1664C63.5275 9.7634 63.6591 8.22876 63.6591 8.22876L50.2526 8.26035L50.25 8.27087Z" fill="#E6ADFF"/>
</g>
<g id="Vector_54" style="mix-blend-mode:screen" opacity="0.85">
<path d="M49.4114 5.57271C50.7881 5.57271 51.333 5.57271 52.6097 5.55692C54.4023 4.43291 55.5947 2.76665 55.7685 0.818728C55.7816 0.666053 55.7869 0.51601 55.7869 0.365967L47.7109 0.379129L49.4114 5.57271Z" fill="#FFF2BB"/>
</g>
<path id="Vector_55" d="M57.9617 19.4949C59.8227 17.8734 59.9333 16.1255 59.9333 16.1255L52.8128 16.1544L55.9716 25.7967L33.3047 42.2829V44.9153L62.1208 28.8581L57.9617 19.4949Z" fill="url(#paint15_radial_606_3573)"/>
<path id="Vector_56" d="M9.02139 25.7967L12.196 16.1544L5.0729 16.1255C5.0729 16.1255 5.18348 17.8707 7.0419 19.4922L2.88281 28.8581L31.6963 44.9153V42.2829L9.02139 25.7967Z" fill="url(#paint16_radial_606_3573)"/>
<path id="Vector_57" style="mix-blend-mode:screen" d="M9.02139 25.7967L12.196 16.1544L5.0729 16.1255C5.0729 16.1255 5.18348 17.8707 7.0419 19.4922L2.88281 28.8581L31.6963 44.9153V42.2829L9.02139 25.7967Z" fill="url(#paint17_radial_606_3573)"/>
<path id="Vector_58" d="M10.5739 25.3203L31.6983 41.388V42.2699L9.02344 25.7968L10.5739 25.3203Z" fill="url(#paint18_linear_606_3573)"/>
<path id="Vector_59" d="M54.4449 25.3518L33.3047 41.388V42.2698L55.9795 25.7967L54.4449 25.3518Z" fill="url(#paint19_linear_606_3573)"/>
<path id="Vector_60" style="mix-blend-mode:soft-light" d="M57.9658 19.4949C59.8268 17.8734 59.9374 16.1255 59.9374 16.1255L52.8169 16.1544L55.9757 25.7967L49.2344 30.7007C49.3054 30.9639 49.3713 31.2429 49.4344 31.5141C49.8003 32.9592 50.1135 34.2464 50.3768 35.3889L62.1249 28.8581L57.9658 19.4949Z" fill="url(#paint20_radial_606_3573)"/>
<path id="Vector_61" style="mix-blend-mode:screen" d="M44.2841 36.6237C44.3447 35.8129 44.3684 35.0179 44.3605 34.2388L33.3047 42.27V44.9023L43.7945 39.0612C44.06 38.2726 44.2246 37.4536 44.2841 36.6237Z" fill="url(#paint21_radial_606_3573)"/>
<g id="Group_8" style="mix-blend-mode:multiply" opacity="0.6">
<path id="Vector_62" d="M7.0419 19.4924L2.88281 28.8582L17.8529 37.1948C17.8529 37.1948 7.62891 31.0878 4.3385 29.0056C3.75675 28.6345 3.54879 28.3186 3.83044 27.6895C4.80967 25.4388 7.01821 20.1084 7.43412 19.3055C6.3555 18.5039 5.53256 17.4067 5.06502 16.1467C5.06502 16.1467 5.18348 17.8709 7.0419 19.4924Z" fill="#612CB7"/>
</g>
<g id="Vector_63" style="mix-blend-mode:screen" opacity="0.5">
<path d="M58.7114 18.7394C59.8565 17.3732 59.9354 16.1255 59.9354 16.1255L52.8281 16.1544L58.7061 16.4019C59.5748 16.4545 59.4168 16.7836 59.3168 17.1916C59.1909 17.7341 58.987 18.2554 58.7114 18.7394Z" fill="#E6ADFF"/>
</g>
<g id="Group_9" style="mix-blend-mode:multiply" opacity="0.6">
<path id="Vector_64" d="M48.2031 36.5972L59.1721 29.9638C61.1305 28.7871 61.3042 28.5792 60.4645 26.4312L58.6219 20.9744L62.1203 28.8582L48.2031 36.5972Z" fill="#612CB7"/>
</g>
<g id="Group_10" style="mix-blend-mode:multiply" opacity="0.6">
<path id="Vector_65" d="M33.3047 42.283C33.3047 42.283 33.3757 42.6516 33.4231 42.9359C33.639 44.1915 33.9759 44.1283 34.7077 43.7782L38.8326 41.8276L33.3047 44.9048V42.283Z" fill="#612CB7"/>
</g>
<g id="Group_11" style="mix-blend-mode:multiply" opacity="0.6">
<path id="Vector_66" d="M21.3906 39.156L30.3932 43.7126C31.3145 44.2153 31.4277 43.9547 31.6093 42.8886C31.6304 42.7676 31.6936 42.3411 31.6936 42.3411V44.8919L21.3906 39.156Z" fill="#612CB7"/>
</g>
<g id="Vector_67" style="mix-blend-mode:multiply" opacity="0.5">
<path d="M41.5849 15.3542V14.3013L35.5306 15.3542L32.5034 10.1106L29.4762 15.3542L23.4219 14.3013V15.3542L26.4491 20.5978L23.4219 24.7885V25.8414H29.4762L32.5034 31.0824L35.5306 25.8414H41.5849V24.7885L38.5578 20.5978L41.5849 15.3542ZM37.4206 23.4354H34.1407L32.5008 26.2757L30.8635 23.4354H27.5862L29.2262 20.5978V19.5449L27.5862 17.7575H30.8661L32.5034 14.9199L34.1433 17.7575H37.4206L35.7833 19.5449V20.5978L37.4206 23.4354Z" fill="#912774"/>
</g>
<path id="Vector_68" d="M41.5849 14.3015V12.7221L35.5306 14.3015L32.5034 9.05786L29.4762 14.3015L23.4219 12.7221V14.3015L26.4491 19.5451L23.4219 23.2093V24.7887H29.4762L32.5034 30.0296L35.5306 24.7887H41.5849V23.2093L38.5578 19.5451L41.5849 14.3015ZM37.4206 22.3827H34.1407L32.5008 25.223L30.8635 22.3827H27.5862L29.2262 19.5451V17.9657L27.5862 16.7048H30.8661L32.5034 13.8671L34.1433 16.7048H37.4206L35.7833 17.9657V19.5451L37.4206 22.3827Z" fill="#4B0EA7"/>
<path id="Vector_69" d="M41.5849 12.7219H35.5306L32.5034 7.47827L29.4762 12.7219H23.4219L26.4491 17.9655L23.4219 23.2091H29.4762L32.5034 28.45L35.5306 23.2091H41.5849L38.5578 17.9655L41.5849 12.7219ZM37.4206 20.8031H34.1407L32.5008 23.6434L30.8635 20.8031H27.5862L29.2262 17.9655L27.5862 15.1252H30.8661L32.5034 12.2875L34.1433 15.1252H37.4206L35.7833 17.9655L37.4206 20.8031Z" fill="url(#paint22_radial_606_3573)"/>
<path id="Vector_70" style="mix-blend-mode:soft-light" d="M40.4005 14.7699L41.5824 12.7219H38.0156C38.8369 13.3695 39.6345 14.0512 40.4005 14.7699Z" fill="url(#paint23_radial_606_3573)"/>
<path id="Vector_71" style="mix-blend-mode:soft-light" d="M31.7812 8.7181C32.492 9.08312 33.1939 9.4727 33.8871 9.88685L32.4972 7.47827L31.7812 8.7181Z" fill="url(#paint24_radial_606_3573)"/>
<path id="Vector_72" style="mix-blend-mode:screen" d="M37.1547 15.5912L35.7833 17.9603L37.4206 20.798H34.1407L32.5008 23.6382L30.8635 20.798H27.5862L29.2262 17.9603L27.5862 15.12H30.8661L32.5034 12.2824L34.1433 15.12H36.6493C34.7979 13.4573 32.7173 12.069 30.4713 10.9978L29.4762 12.7167H23.4219L26.4491 17.9603L23.4219 23.2039H29.4762L32.5034 28.4449L35.5306 23.2039H41.5849L38.5578 17.9603L38.8842 17.397C38.3331 16.767 37.7566 16.1651 37.1547 15.5912Z" fill="url(#paint25_radial_606_3573)"/>
<path id="Vector_73" d="M32.5031 13.867V12.2876L30.8658 15.1252H27.5859L28.4993 16.7046H30.8658L32.5031 13.867Z" fill="#200968"/>
<path id="Vector_74" d="M34.1406 16.7046V15.1252H37.4179L36.4939 16.6888L34.1406 16.7046Z" fill="#200968"/>
<path id="Vector_75" d="M23.4219 12.7219L26.4464 17.9655L25.991 18.7552L23.4219 14.3013V12.7219Z" fill="#200968"/>
<path id="Vector_76" d="M23.4219 23.2092H29.4736L32.5008 28.4502V30.0296L29.4736 24.7886H23.4219V23.2092Z" fill="#200968"/>
<path id="Vector_77" d="M41.5856 23.2092H35.5312V24.7886H41.5856V23.2092Z" fill="#200968"/>
<g id="Vector_78" style="mix-blend-mode:screen" opacity="0.5">
<path d="M38.0883 19.8923C37.701 19.7595 37.2805 19.7595 36.8932 19.8923L37.4197 20.8005H36.4062C36.5083 21.0284 36.6604 21.2303 36.8514 21.3912C37.0424 21.5521 37.2672 21.6678 37.5092 21.7297C38.2857 21.9745 39.0438 21.7613 39.2044 21.2532C39.365 20.7452 38.878 20.1371 38.0883 19.8923Z" fill="#FCE265"/>
</g>
<g id="Vector_79" style="mix-blend-mode:screen" opacity="0.5">
<path d="M36.3187 21.7822C36.2397 22.0455 35.858 22.1429 35.4711 22.0218C35.0841 21.9007 34.834 21.5927 34.913 21.34C34.992 21.0873 35.3737 20.9794 35.7606 21.1031C36.1476 21.2268 36.3977 21.5295 36.3187 21.7822Z" fill="#FCE265"/>
</g>
<g id="Vector_80" style="mix-blend-mode:screen" opacity="0.5">
<path d="M32.5 7.47827L35.2297 13.1325L41.5815 12.7219H35.5272L32.5 7.47827Z" fill="#E6ADFF"/>
</g>
<g id="Vector_81" style="mix-blend-mode:screen" opacity="0.5">
<path d="M23.4219 23.2092L29.6578 22.7986L32.5008 28.4502L29.4736 23.2092H23.4219Z" fill="#E6ADFF"/>
</g>
<g id="Group_12" style="mix-blend-mode:multiply" opacity="0.6">
<path id="Vector_82" d="M32.5 28.4499L35.2824 22.5562L41.5815 23.209H35.5272L32.5 28.4499Z" fill="#612CB7"/>
</g>
<g id="Group_13" style="mix-blend-mode:multiply" opacity="0.6">
<path id="Vector_83" d="M23.4219 12.7219L27.1071 17.9655L23.4219 23.2091L26.4464 17.9655L23.4219 12.7219Z" fill="#612CB7"/>
</g>
<g id="Vector_84" style="mix-blend-mode:screen" opacity="0.5">
<path d="M27.5859 20.8062L30.5473 21.2194L32.5031 23.6438L30.8658 20.8062H27.5859Z" fill="#E6ADFF"/>
</g>
<g id="Group_14" style="mix-blend-mode:multiply" opacity="0.6">
<path id="Vector_85" d="M32.5 12.2876L34.3611 14.7436L37.4172 15.1252H34.1399L32.5 12.2876Z" fill="#612CB7"/>
</g>
<path id="Vector_86" style="mix-blend-mode:soft-light" d="M1.35156 8.23901C1.46278 8.91651 1.74348 9.55489 2.16758 10.0948C3.27052 9.47094 4.50245 8.83392 5.81335 8.25218L1.35156 8.23901Z" fill="url(#paint26_radial_606_3573)"/>
<g id="Vector_87" style="mix-blend-mode:screen" opacity="0.5">
<path d="M6.44531 16.1309L12.1969 16.1546L9.96737 22.9775L11.731 16.8705C11.7152 16.5231 11.6205 16.4046 11.1466 16.373L6.44531 16.1309Z" fill="#E6ADFF"/>
</g>
<path id="Vector_88" d="M39.3047 31.4907C39.3047 31.4907 40.2313 29.7665 41.6738 28.7741C42.5346 28.1792 44.1955 27.7212 44.1955 27.7212C44.1955 27.7212 42.6477 29.6665 41.5053 30.5773C40.8833 31.1011 40.1148 31.4201 39.3047 31.4907Z" fill="url(#paint27_linear_606_3573)"/>
<path id="Vector_89" d="M43.1922 28.3711C41.9234 28.4448 40.9022 29.4636 40.352 30.1769C39.8018 30.8903 40.1124 31.1298 40.81 30.8166C41.5076 30.5033 43.7292 28.3317 43.1922 28.3711Z" fill="#4E217D"/>
<path id="Vector_90" style="mix-blend-mode:multiply" opacity="0.5" d="M43.1919 28.3711C42.3338 28.3711 41.2519 29.1766 40.9123 29.5398C40.5728 29.9031 41.2493 30.4612 41.702 30.1663C42.1548 29.8715 43.5841 28.3764 43.1919 28.3711Z" fill="url(#paint28_linear_606_3573)"/>
</g>
<defs>
<radialGradient id="paint0_radial_606_3573" cx="0" cy="0" r="1" gradientUnits="userSpaceOnUse" gradientTransform="translate(46.2024 -1.2424) scale(57.3453 57.3452)">
<stop stop-color="#5DAFD2"/>
<stop offset="0.51" stop-color="#682BC7"/>
<stop offset="0.92" stop-color="#F768CA"/>
</radialGradient>
<radialGradient id="paint1_radial_606_3573" cx="0" cy="0" r="1" gradientUnits="userSpaceOnUse" gradientTransform="translate(46.1985 -1.24236) scale(57.3453 57.3452)">
<stop stop-color="#5DAFD2"/>
<stop offset="0.51" stop-color="#682BC7"/>
<stop offset="0.92" stop-color="#F768CA"/>
</radialGradient>
<radialGradient id="paint2_radial_606_3573" cx="0" cy="0" r="1" gradientUnits="userSpaceOnUse" gradientTransform="translate(46.1979 -1.24262) scale(57.3454 57.3453)">
<stop stop-color="#5DAFD2"/>
<stop offset="0.51" stop-color="#682BC7"/>
<stop offset="0.92" stop-color="#F768CA"/>
</radialGradient>
<radialGradient id="paint3_radial_606_3573" cx="0" cy="0" r="1" gradientUnits="userSpaceOnUse" gradientTransform="translate(46.0578 -1.2424) scale(43.0175 43.0175)">
<stop stop-color="#5DAFD2"/>
<stop offset="0.17" stop-color="#5CAAD1"/>
<stop offset="0.37" stop-color="#5A9BCD"/>
<stop offset="0.59" stop-color="#5682C8"/>
<stop offset="0.82" stop-color="#5060C0"/>
<stop offset="1" stop-color="#4B40B8"/>
</radialGradient>
<radialGradient id="paint4_radial_606_3573" cx="0" cy="0" r="1" gradientUnits="userSpaceOnUse" gradientTransform="translate(13.9877 43.0492) scale(41.2513 41.2512)">
<stop offset="0.32" stop-color="#D332E0"/>
<stop offset="0.76" stop-color="#45094A"/>
</radialGradient>
<radialGradient id="paint5_radial_606_3573" cx="0" cy="0" r="1" gradientUnits="userSpaceOnUse" gradientTransform="translate(46.1965 -1.2426) scale(57.3452 57.3453)">
<stop stop-color="#5DAFD2"/>
<stop offset="0.51" stop-color="#682BC7"/>
<stop offset="0.92" stop-color="#F768CA"/>
</radialGradient>
<radialGradient id="paint6_radial_606_3573" cx="0" cy="0" r="1" gradientUnits="userSpaceOnUse" gradientTransform="translate(46.2 -1.2426) scale(57.3452 57.3453)">
<stop stop-color="#5DAFD2"/>
<stop offset="0.51" stop-color="#682BC7"/>
<stop offset="0.92" stop-color="#F768CA"/>
</radialGradient>
<radialGradient id="paint7_radial_606_3573" cx="0" cy="0" r="1" gradientUnits="userSpaceOnUse" gradientTransform="translate(46.0605 -1.24259) scale(43.0175 43.0175)">
<stop stop-color="#5DAFD2"/>
<stop offset="0.17" stop-color="#5CAAD1"/>
<stop offset="0.37" stop-color="#5A9BCD"/>
<stop offset="0.59" stop-color="#5682C8"/>
<stop offset="0.82" stop-color="#5060C0"/>
<stop offset="1" stop-color="#4B40B8"/>
</radialGradient>
<radialGradient id="paint8_radial_606_3573" cx="0" cy="0" r="1" gradientUnits="userSpaceOnUse" gradientTransform="translate(13.9847 43.0489) scale(41.2512 41.2512)">
<stop offset="0.32" stop-color="#D332E0"/>
<stop offset="0.76" stop-color="#45094A"/>
</radialGradient>
<linearGradient id="paint9_linear_606_3573" x1="32.5025" y1="20.4688" x2="32.5025" y2="27.5024" gradientUnits="userSpaceOnUse">
<stop offset="0.63" stop-color="#BD45E8"/>
<stop offset="1" stop-color="#F59CDE"/>
</linearGradient>
<radialGradient id="paint10_radial_606_3573" cx="0" cy="0" r="1" gradientUnits="userSpaceOnUse" gradientTransform="translate(46.2028 -1.2424) scale(57.3453 57.3452)">
<stop stop-color="#5DAFD2"/>
<stop offset="0.51" stop-color="#682BC7"/>
<stop offset="0.92" stop-color="#F768CA"/>
</radialGradient>
<radialGradient id="paint11_radial_606_3573" cx="0" cy="0" r="1" gradientUnits="userSpaceOnUse" gradientTransform="translate(46.1962 -1.24236) scale(57.3452 57.3452)">
<stop stop-color="#5DAFD2"/>
<stop offset="0.51" stop-color="#682BC7"/>
<stop offset="0.92" stop-color="#F768CA"/>
</radialGradient>
<radialGradient id="paint12_radial_606_3573" cx="0" cy="0" r="1" gradientUnits="userSpaceOnUse" gradientTransform="translate(46.1999 -1.24262) scale(57.3454 57.3453)">
<stop stop-color="#5DAFD2"/>
<stop offset="0.51" stop-color="#682BC7"/>
<stop offset="0.92" stop-color="#F768CA"/>
</radialGradient>
<radialGradient id="paint13_radial_606_3573" cx="0" cy="0" r="1" gradientUnits="userSpaceOnUse" gradientTransform="translate(46.0633 -1.2424) scale(43.0175 43.0175)">
<stop stop-color="#5DAFD2"/>
<stop offset="0.17" stop-color="#5CAAD1"/>
<stop offset="0.37" stop-color="#5A9BCD"/>
<stop offset="0.59" stop-color="#5682C8"/>
<stop offset="0.82" stop-color="#5060C0"/>
<stop offset="1" stop-color="#4B40B8"/>
</radialGradient>
<radialGradient id="paint14_radial_606_3573" cx="0" cy="0" r="1" gradientUnits="userSpaceOnUse" gradientTransform="translate(46.0567 -1.24236) scale(43.0174 43.0175)">
<stop stop-color="#5DAFD2"/>
<stop offset="0.17" stop-color="#5CAAD1"/>
<stop offset="0.37" stop-color="#5A9BCD"/>
<stop offset="0.59" stop-color="#5682C8"/>
<stop offset="0.82" stop-color="#5060C0"/>
<stop offset="1" stop-color="#4B40B8"/>
</radialGradient>
<radialGradient id="paint15_radial_606_3573" cx="0" cy="0" r="1" gradientUnits="userSpaceOnUse" gradientTransform="translate(46.1978 -1.24261) scale(57.3453 57.3453)">
<stop stop-color="#5DAFD2"/>
<stop offset="0.51" stop-color="#682BC7"/>
<stop offset="0.92" stop-color="#F768CA"/>
</radialGradient>
<radialGradient id="paint16_radial_606_3573" cx="0" cy="0" r="1" gradientUnits="userSpaceOnUse" gradientTransform="translate(46.2004 -1.24261) scale(57.3452 57.3453)">
<stop stop-color="#5DAFD2"/>
<stop offset="0.51" stop-color="#682BC7"/>
<stop offset="0.92" stop-color="#F768CA"/>
</radialGradient>
<radialGradient id="paint17_radial_606_3573" cx="0" cy="0" r="1" gradientUnits="userSpaceOnUse" gradientTransform="translate(13.9886 43.0489) scale(41.2512 41.2512)">
<stop offset="0.32" stop-color="#D332E0"/>
<stop offset="0.76" stop-color="#45094A"/>
</radialGradient>
<linearGradient id="paint18_linear_606_3573" x1="9.02344" y1="33.7938" x2="31.6983" y2="33.7938" gradientUnits="userSpaceOnUse">
<stop offset="0.63" stop-color="#BD45E8"/>
<stop offset="1" stop-color="#F59CDE"/>
</linearGradient>
<linearGradient id="paint19_linear_606_3573" x1="55.9795" y1="33.8095" x2="33.3047" y2="33.8095" gradientUnits="userSpaceOnUse">
<stop offset="0.63" stop-color="#BD45E8"/>
<stop offset="1" stop-color="#F59CDE"/>
</linearGradient>
<radialGradient id="paint20_radial_606_3573" cx="0" cy="0" r="1" gradientUnits="userSpaceOnUse" gradientTransform="translate(46.0624 -1.24261) scale(43.0175 43.0175)">
<stop stop-color="#5DAFD2"/>
<stop offset="0.17" stop-color="#5CAAD1"/>
<stop offset="0.37" stop-color="#5A9BCD"/>
<stop offset="0.59" stop-color="#5682C8"/>
<stop offset="0.82" stop-color="#5060C0"/>
<stop offset="1" stop-color="#4B40B8"/>
</radialGradient>
<radialGradient id="paint21_radial_606_3573" cx="0" cy="0" r="1" gradientUnits="userSpaceOnUse" gradientTransform="translate(13.986 43.0492) scale(41.2512 41.2512)">
<stop offset="0.32" stop-color="#D332E0"/>
<stop offset="0.76" stop-color="#45094A"/>
</radialGradient>
<radialGradient id="paint22_radial_606_3573" cx="0" cy="0" r="1" gradientUnits="userSpaceOnUse" gradientTransform="translate(46.202 -1.24263) scale(57.3453 57.3453)">
<stop stop-color="#5DAFD2"/>
<stop offset="0.51" stop-color="#682BC7"/>
<stop offset="0.92" stop-color="#F768CA"/>
</radialGradient>
<radialGradient id="paint23_radial_606_3573" cx="0" cy="0" r="1" gradientUnits="userSpaceOnUse" gradientTransform="translate(46.0601 -1.24258) scale(43.0177 43.0175)">
<stop stop-color="#5DAFD2"/>
<stop offset="0.17" stop-color="#5CAAD1"/>
<stop offset="0.37" stop-color="#5A9BCD"/>
<stop offset="0.59" stop-color="#5682C8"/>
<stop offset="0.82" stop-color="#5060C0"/>
<stop offset="1" stop-color="#4B40B8"/>
</radialGradient>
<radialGradient id="paint24_radial_606_3573" cx="0" cy="0" r="1" gradientUnits="userSpaceOnUse" gradientTransform="translate(46.0564 -1.24262) scale(43.0175 43.0175)">
<stop stop-color="#5DAFD2"/>
<stop offset="0.17" stop-color="#5CAAD1"/>
<stop offset="0.37" stop-color="#5A9BCD"/>
<stop offset="0.59" stop-color="#5682C8"/>
<stop offset="0.82" stop-color="#5060C0"/>
<stop offset="1" stop-color="#4B40B8"/>
</radialGradient>
<radialGradient id="paint25_radial_606_3573" cx="0" cy="0" r="1" gradientUnits="userSpaceOnUse" gradientTransform="translate(13.9902 43.049) scale(41.2512 41.2512)">
<stop offset="0.32" stop-color="#D332E0"/>
<stop offset="0.76" stop-color="#45094A"/>
</radialGradient>
<radialGradient id="paint26_radial_606_3573" cx="0" cy="0" r="1" gradientUnits="userSpaceOnUse" gradientTransform="translate(46.0642 -1.24264) scale(43.0174 43.0175)">
<stop stop-color="#5DAFD2"/>
<stop offset="0.17" stop-color="#5CAAD1"/>
<stop offset="0.37" stop-color="#5A9BCD"/>
<stop offset="0.59" stop-color="#5682C8"/>
<stop offset="0.82" stop-color="#5060C0"/>
<stop offset="1" stop-color="#4B40B8"/>
</radialGradient>
<linearGradient id="paint27_linear_606_3573" x1="39.9786" y1="30.6325" x2="43.3479" y2="28.6952" gradientUnits="userSpaceOnUse">
<stop stop-color="#EFC4FF"/>
<stop offset="0.99" stop-color="#A34AC4"/>
</linearGradient>
<linearGradient id="paint28_linear_606_3573" x1="42.1852" y1="30.0669" x2="41.9342" y2="28.4797" gradientUnits="userSpaceOnUse">
<stop stop-color="white"/>
<stop offset="0.44" stop-color="#881DED"/>
<stop offset="1" stop-color="#262262"/>
</linearGradient>
</defs>
</svg>
