<svg width="36" height="36" viewBox="0 0 36 36" fill="none" xmlns="http://www.w3.org/2000/svg">
<g id="Group 1261159144">
<g id="Group 1261159142">
<circle id="Ellipse 1434" cx="18" cy="18" r="17.75" fill="#F8F6D7" stroke="#F8F6D7" stroke-width="0.5"/>
</g>
<g id="Group">
<path id="Vector" d="M26.8216 9V16.788C23.9737 17.5219 20.9868 17.9108 17.9108 17.9108C14.8348 17.9108 11.848 17.5205 9 16.788V9C11.848 9.73246 14.8348 10.1228 17.9108 10.1228C20.9868 10.1228 23.9737 9.73392 26.8216 9Z" fill="#1E1E1E"/>
<path id="Vector_2" d="M9 27.0004V19.2124C11.848 18.4785 14.8348 18.0896 17.9108 18.0896C20.9868 18.0896 23.9737 18.48 26.8216 19.2124V27.0004C23.9737 26.268 20.9868 25.8776 17.9108 25.8776C14.8348 25.8776 11.848 26.2665 9 27.0004Z" fill="#1E1E1E"/>
</g>
</g>
</svg>
