<svg width="48" height="48" viewBox="0 0 48 48" fill="none" xmlns="http://www.w3.org/2000/svg">
<path d="M0 8C0 3.58172 3.58172 0 8 0H40C44.4183 0 48 3.58172 48 8V40C48 44.4183 44.4183 48 40 48H8C3.58172 48 0 44.4183 0 40V8Z" fill="url(#paint0_linear_435_468)"/>
<path d="M16 17.3333H17.3333M16 21.3333H17.3333M22.6667 21.3333H24M22.6667 25.3333H24M16 25.3333H17.3333M22.6667 17.3333H24M17.3333 36V32C17.3333 30.5272 18.5272 29.3333 20 29.3333C21.4728 29.3333 22.6667 30.5272 22.6667 32V36H17.3333ZM17.3333 36H12V14.1333C12 13.3866 12 13.0132 12.1453 12.728C12.2732 12.4771 12.4771 12.2732 12.728 12.1453C13.0132 12 13.3866 12 14.1333 12H25.8667C26.6134 12 26.9868 12 27.272 12.1453C27.5229 12.2732 27.7268 12.4771 27.8547 12.728C28 13.0132 28 13.3866 28 14.1333V20M34.2667 26C34.2667 27.1046 33.3712 28 32.2667 28C31.1621 28 30.2667 27.1046 30.2667 26C30.2667 24.8954 31.1621 24 32.2667 24C33.3712 24 34.2667 24.8954 34.2667 26ZM36.6667 36V35.3333C36.6667 33.4924 35.1743 32 33.3333 32H31.3333C29.4924 32 28 33.4924 28 35.3333V36H36.6667Z" stroke="#131A29" stroke-width="2" stroke-linecap="round" stroke-linejoin="round"/>
<defs>
<linearGradient id="paint0_linear_435_468" x1="1.28342e-06" y1="44.5714" x2="48" y2="-1.34526e-06" gradientUnits="userSpaceOnUse">
<stop stop-color="#FBFFFD"/>
<stop offset="1" stop-color="#8FF9CE"/>
</linearGradient>
</defs>
</svg>
