<svg width="48" height="48" viewBox="0 0 48 48" fill="none" xmlns="http://www.w3.org/2000/svg">
<path d="M0 8C0 3.58172 3.58172 0 8 0H40C44.4183 0 48 3.58172 48 8V40C48 44.4183 44.4183 48 40 48H8C3.58172 48 0 44.4183 0 40V8Z" fill="url(#paint0_linear_424_54608)"/>
<path d="M15.9987 13.3333H16.012M12.2266 21.3333C12.7757 19.7797 14.2573 18.6667 15.999 18.6667C17.7406 18.6667 19.2222 19.7797 19.7713 21.3333M15.9987 28H16.012M12.2266 36C12.7757 34.4464 14.2573 33.3333 15.999 33.3333C17.7406 33.3333 19.2222 34.4464 19.7713 36M26.132 19.3333H33.8654C34.6121 19.3333 34.9855 19.3333 35.2707 19.188C35.5216 19.0602 35.7255 18.8562 35.8534 18.6053C35.9987 18.3201 35.9987 17.9467 35.9987 17.2V16.1333C35.9987 15.3866 35.9987 15.0132 35.8534 14.728C35.7255 14.4771 35.5216 14.2732 35.2707 14.1453C34.9855 14 34.6121 14 33.8654 14H26.132C25.3853 14 25.0119 14 24.7267 14.1453C24.4758 14.2732 24.2719 14.4771 24.144 14.728C23.9987 15.0132 23.9987 15.3866 23.9987 16.1333V17.2C23.9987 17.9467 23.9987 18.3201 24.144 18.6053C24.2719 18.8562 24.4758 19.0602 24.7267 19.188C25.0119 19.3333 25.3853 19.3333 26.132 19.3333ZM26.132 34H33.8654C34.6121 34 34.9855 34 35.2707 33.8547C35.5216 33.7268 35.7255 33.5229 35.8534 33.272C35.9987 32.9868 35.9987 32.6134 35.9987 31.8667V30.8C35.9987 30.0533 35.9987 29.6799 35.8534 29.3947C35.7255 29.1438 35.5216 28.9398 35.2707 28.812C34.9855 28.6667 34.6121 28.6667 33.8654 28.6667H26.132C25.3853 28.6667 25.0119 28.6667 24.7267 28.812C24.4758 28.9398 24.2719 29.1438 24.144 29.3947C23.9987 29.6799 23.9987 30.0533 23.9987 30.8V31.8667C23.9987 32.6134 23.9987 32.9868 24.144 33.272C24.2719 33.5229 24.4758 33.7268 24.7267 33.8547C25.0119 34 25.3853 34 26.132 34ZM17.332 13.3333C17.332 14.0697 16.7351 14.6667 15.9987 14.6667C15.2623 14.6667 14.6654 14.0697 14.6654 13.3333C14.6654 12.597 15.2623 12 15.9987 12C16.7351 12 17.332 12.597 17.332 13.3333ZM17.332 28C17.332 28.7364 16.7351 29.3333 15.9987 29.3333C15.2623 29.3333 14.6654 28.7364 14.6654 28C14.6654 27.2636 15.2623 26.6667 15.9987 26.6667C16.7351 26.6667 17.332 27.2636 17.332 28Z" stroke="#131A29" stroke-width="2" stroke-linecap="round" stroke-linejoin="round"/>
<defs>
<linearGradient id="paint0_linear_424_54608" x1="1.28342e-06" y1="44.5714" x2="48" y2="-1.34526e-06" gradientUnits="userSpaceOnUse">
<stop stop-color="#FBFFFD"/>
<stop offset="1" stop-color="#8FF9CE"/>
</linearGradient>
</defs>
</svg>
