<svg width="48" height="48" viewBox="0 0 48 48" fill="none" xmlns="http://www.w3.org/2000/svg">
<path d="M0 8C0 3.58172 3.58172 0 8 0H40C44.4183 0 48 3.58172 48 8V40C48 44.4183 44.4183 48 40 48H8C3.58172 48 0 44.4183 0 40V8Z" fill="url(#paint0_linear_424_54614)"/>
<path d="M12 36H36M12 22.6667H36M12 32H36M16 32V26.6667M21.3333 32V26.6667M26.6667 32V26.6667M32 32V26.6667M24 17.3333H30.4533C30.528 17.3333 30.5653 17.3333 30.5939 17.3188C30.619 17.306 30.6394 17.2856 30.6521 17.2605C30.6667 17.232 30.6667 17.1947 30.6667 17.12V13.5467C30.6667 13.472 30.6667 13.4347 30.6521 13.4061C30.6394 13.381 30.619 13.3606 30.5939 13.3479C30.5653 13.3333 30.528 13.3333 30.4533 13.3333H24M24 22.6667V12" stroke="#131A29" stroke-width="2" stroke-linecap="round" stroke-linejoin="round"/>
<defs>
<linearGradient id="paint0_linear_424_54614" x1="1.28342e-06" y1="44.5714" x2="48" y2="-1.34526e-06" gradientUnits="userSpaceOnUse">
<stop stop-color="#FBFFFD"/>
<stop offset="1" stop-color="#8FF9CE"/>
</linearGradient>
</defs>
</svg>
