<svg width="48" height="48" viewBox="0 0 48 48" fill="none" xmlns="http://www.w3.org/2000/svg">
<path d="M0 8C0 3.58172 3.58172 0 8 0H40C44.4183 0 48 3.58172 48 8V40C48 44.4183 44.4183 48 40 48H8C3.58172 48 0 44.4183 0 40V8Z" fill="url(#paint0_linear_424_54602)"/>
<path d="M26.6667 36V37C27.219 37 27.6667 36.5523 27.6667 36H26.6667ZM12 36H11C11 36.5523 11.4477 37 12 37V36ZM25.9387 12.1453L25.4847 13.0363L25.9387 12.1453ZM26.5213 12.728L25.6303 13.182L26.5213 12.728ZM12.728 12.1453L13.182 13.0363L12.728 12.1453ZM12.1453 12.728L13.0363 13.182L12.1453 12.728ZM16 16.3333C15.4477 16.3333 15 16.781 15 17.3333C15 17.8856 15.4477 18.3333 16 18.3333V16.3333ZM17.3333 18.3333C17.8856 18.3333 18.3333 17.8856 18.3333 17.3333C18.3333 16.781 17.8856 16.3333 17.3333 16.3333V18.3333ZM16 20.3333C15.4477 20.3333 15 20.781 15 21.3333C15 21.8856 15.4477 22.3333 16 22.3333V20.3333ZM17.3333 22.3333C17.8856 22.3333 18.3333 21.8856 18.3333 21.3333C18.3333 20.781 17.8856 20.3333 17.3333 20.3333V22.3333ZM21.3333 20.3333C20.781 20.3333 20.3333 20.781 20.3333 21.3333C20.3333 21.8856 20.781 22.3333 21.3333 22.3333V20.3333ZM22.6667 22.3333C23.219 22.3333 23.6667 21.8856 23.6667 21.3333C23.6667 20.781 23.219 20.3333 22.6667 20.3333V22.3333ZM21.3333 24.3333C20.781 24.3333 20.3333 24.781 20.3333 25.3333C20.3333 25.8856 20.781 26.3333 21.3333 26.3333V24.3333ZM22.6667 26.3333C23.219 26.3333 23.6667 25.8856 23.6667 25.3333C23.6667 24.781 23.219 24.3333 22.6667 24.3333V26.3333ZM16 24.3333C15.4477 24.3333 15 24.781 15 25.3333C15 25.8856 15.4477 26.3333 16 26.3333V24.3333ZM17.3333 26.3333C17.8856 26.3333 18.3333 25.8856 18.3333 25.3333C18.3333 24.781 17.8856 24.3333 17.3333 24.3333V26.3333ZM21.3333 16.3333C20.781 16.3333 20.3333 16.781 20.3333 17.3333C20.3333 17.8856 20.781 18.3333 21.3333 18.3333V16.3333ZM22.6667 18.3333C23.219 18.3333 23.6667 17.8856 23.6667 17.3333C23.6667 16.781 23.219 16.3333 22.6667 16.3333V18.3333ZM31.6667 12C31.6667 11.4477 31.219 11 30.6667 11C30.1144 11 29.6667 11.4477 29.6667 12H31.6667ZM29.6667 36C29.6667 36.5523 30.1144 37 30.6667 37C31.219 37 31.6667 36.5523 31.6667 36H29.6667ZM36 14.6667H37C37 14.1144 36.5523 13.6667 36 13.6667V14.6667ZM36 21.3333V22.3333C36.5523 22.3333 37 21.8856 37 21.3333H36ZM14.1333 13H24.5333V11H14.1333V13ZM25.6667 14.1333V36H27.6667V14.1333H25.6667ZM26.6667 35H12V37H26.6667V35ZM13 36V14.1333H11V36H13ZM24.5333 13C24.9232 13 25.1555 13.0008 25.3276 13.0148C25.4881 13.028 25.5065 13.0475 25.4847 13.0363L26.3926 11.2543C26.0856 11.0979 25.7747 11.0447 25.4905 11.0215C25.218 10.9992 24.8902 11 24.5333 11V13ZM27.6667 14.1333C27.6667 13.7765 27.6674 13.4487 27.6452 13.1762C27.622 12.892 27.5688 12.5811 27.4123 12.274L25.6303 13.182C25.6192 13.1601 25.6387 13.1785 25.6518 13.339C25.6659 13.5112 25.6667 13.7435 25.6667 14.1333H27.6667ZM25.4847 13.0363C25.5474 13.0683 25.5984 13.1193 25.6303 13.182L27.4123 12.274C27.1886 11.835 26.8317 11.478 26.3926 11.2543L25.4847 13.0363ZM14.1333 11C13.7765 11 13.4487 10.9992 13.1762 11.0215C12.892 11.0447 12.5811 11.0979 12.274 11.2543L13.182 13.0363C13.1601 13.0475 13.1785 13.028 13.339 13.0148C13.5112 13.0008 13.7435 13 14.1333 13V11ZM13 14.1333C13 13.7435 13.0008 13.5112 13.0148 13.339C13.028 13.1785 13.0475 13.1601 13.0363 13.182L11.2543 12.274C11.0979 12.5811 11.0447 12.892 11.0215 13.1762C10.9992 13.4487 11 13.7765 11 14.1333H13ZM12.274 11.2543C11.835 11.478 11.478 11.835 11.2543 12.274L13.0363 13.182C13.0683 13.1193 13.1193 13.0683 13.182 13.0363L12.274 11.2543ZM16 18.3333H17.3333V16.3333H16V18.3333ZM16 22.3333H17.3333V20.3333H16V22.3333ZM21.3333 22.3333H22.6667V20.3333H21.3333V22.3333ZM21.3333 26.3333H22.6667V24.3333H21.3333V26.3333ZM16 26.3333H17.3333V24.3333H16V26.3333ZM21.3333 18.3333H22.6667V16.3333H21.3333V18.3333ZM21 32V36H23V32H21ZM17.6667 36V32H15.6667V36H17.6667ZM19.3333 30.3333C20.2538 30.3333 21 31.0795 21 32H23C23 29.975 21.3584 28.3333 19.3333 28.3333V30.3333ZM19.3333 28.3333C17.3083 28.3333 15.6667 29.975 15.6667 32H17.6667C17.6667 31.0795 18.4129 30.3333 19.3333 30.3333V28.3333ZM29.6667 12V14.6667H31.6667V12H29.6667ZM29.6667 14.6667V21.3333H31.6667V14.6667H29.6667ZM29.6667 21.3333V36H31.6667V21.3333H29.6667ZM30.6667 15.6667H36V13.6667H30.6667V15.6667ZM35 14.6667V21.3333H37V14.6667H35ZM36 20.3333H30.6667V22.3333H36V20.3333Z" fill="#131A29"/>
<defs>
<linearGradient id="paint0_linear_424_54602" x1="1.28342e-06" y1="44.5714" x2="48" y2="-1.34526e-06" gradientUnits="userSpaceOnUse">
<stop stop-color="#FBFFFD"/>
<stop offset="1" stop-color="#8FF9CE"/>
</linearGradient>
</defs>
</svg>
