<svg width="48" height="48" viewBox="0 0 48 48" fill="none" xmlns="http://www.w3.org/2000/svg">
<path d="M0 8C0 3.58172 3.58172 0 8 0H40C44.4183 0 48 3.58172 48 8V40C48 44.4183 44.4183 48 40 48H8C3.58172 48 0 44.4183 0 40V8Z" fill="url(#paint0_linear_424_54595)"/>
<path d="M26.6693 22C26.6693 23.8409 23.6845 25.3333 20.0026 25.3333C16.3207 25.3333 13.3359 23.8409 13.3359 22M26.6693 22C26.6693 20.1591 23.6845 18.6667 20.0026 18.6667C16.3207 18.6667 13.3359 20.1591 13.3359 22M26.6693 22V27.3333M13.3359 22V27.3333M34.6693 15.3333C34.6693 13.4924 31.6845 12 28.0026 12C25.3638 12 23.0831 12.7666 22.0026 13.8786M34.6693 15.3333C34.6693 16.5671 33.3286 17.6444 31.3359 18.2207M34.6693 15.3333V26.6667C34.6693 27.6537 33.3286 28.5155 31.3359 28.9766M34.6693 21.3333C34.6693 22.3422 33.2685 23.2203 31.2025 23.6733M26.6693 27.3333C26.6693 29.1743 23.6845 30.6667 20.0026 30.6667C16.3207 30.6667 13.3359 29.1743 13.3359 27.3333M26.6693 27.3333V32.6667C26.6693 34.5076 23.6845 36 20.0026 36C16.3207 36 13.3359 34.5076 13.3359 32.6667V27.3333" stroke="#131A29" stroke-width="2" stroke-linecap="round" stroke-linejoin="round"/>
<defs>
<linearGradient id="paint0_linear_424_54595" x1="1.28342e-06" y1="44.5714" x2="48" y2="-1.34526e-06" gradientUnits="userSpaceOnUse">
<stop stop-color="#FBFFFD"/>
<stop offset="1" stop-color="#8FF9CE"/>
</linearGradient>
</defs>
</svg>
