<svg width="48" height="48" viewBox="0 0 48 48" fill="none" xmlns="http://www.w3.org/2000/svg">
<path d="M0 8C0 3.58172 3.58172 0 8 0H40C44.4183 0 48 3.58172 48 8V40C48 44.4183 44.4183 48 40 48H8C3.58172 48 0 44.4183 0 40V8Z" fill="url(#paint0_linear_407_8427)"/>
<path d="M12 36H11C11 36.5523 11.4477 37 12 37V36ZM36 36V37C36.5523 37 37 36.5523 37 36H36ZM16 16.3333C15.4477 16.3333 15 16.781 15 17.3333C15 17.8856 15.4477 18.3333 16 18.3333V16.3333ZM17.3333 18.3333C17.8856 18.3333 18.3333 17.8856 18.3333 17.3333C18.3333 16.781 17.8856 16.3333 17.3333 16.3333V18.3333ZM22.6667 16.3333C22.1144 16.3333 21.6667 16.781 21.6667 17.3333C21.6667 17.8856 22.1144 18.3333 22.6667 18.3333V16.3333ZM24 18.3333C24.5523 18.3333 25 17.8856 25 17.3333C25 16.781 24.5523 16.3333 24 16.3333V18.3333ZM16 20.3333C15.4477 20.3333 15 20.781 15 21.3333C15 21.8856 15.4477 22.3333 16 22.3333V20.3333ZM17.3333 22.3333C17.8856 22.3333 18.3333 21.8856 18.3333 21.3333C18.3333 20.781 17.8856 20.3333 17.3333 20.3333V22.3333ZM22.6667 20.3333C22.1144 20.3333 21.6667 20.781 21.6667 21.3333C21.6667 21.8856 22.1144 22.3333 22.6667 22.3333V20.3333ZM24 22.3333C24.5523 22.3333 25 21.8856 25 21.3333C25 20.781 24.5523 20.3333 24 20.3333V22.3333ZM16 24.3333C15.4477 24.3333 15 24.781 15 25.3333C15 25.8856 15.4477 26.3333 16 26.3333V24.3333ZM17.3333 26.3333C17.8856 26.3333 18.3333 25.8856 18.3333 25.3333C18.3333 24.781 17.8856 24.3333 17.3333 24.3333V26.3333ZM22.6667 24.3333C22.1144 24.3333 21.6667 24.781 21.6667 25.3333C21.6667 25.8856 22.1144 26.3333 22.6667 26.3333V24.3333ZM24 26.3333C24.5523 26.3333 25 25.8856 25 25.3333C25 24.781 24.5523 24.3333 24 24.3333V26.3333ZM22.6667 36V37H23.6667V36H22.6667ZM17.3333 36H16.3333V37H17.3333V36ZM32 21.6667C31.4477 21.6667 31 22.1144 31 22.6667C31 23.219 31.4477 23.6667 32 23.6667V21.6667ZM32.0133 23.6667C32.5656 23.6667 33.0133 23.219 33.0133 22.6667C33.0133 22.1144 32.5656 21.6667 32.0133 21.6667V23.6667ZM32 25.6667C31.4477 25.6667 31 26.1144 31 26.6667C31 27.219 31.4477 27.6667 32 27.6667V25.6667ZM32.0133 27.6667C32.5656 27.6667 33.0133 27.219 33.0133 26.6667C33.0133 26.1144 32.5656 25.6667 32.0133 25.6667V27.6667ZM32 29.6667C31.4477 29.6667 31 30.1144 31 30.6667C31 31.219 31.4477 31.6667 32 31.6667V29.6667ZM32.0133 31.6667C32.5656 31.6667 33.0133 31.219 33.0133 30.6667C33.0133 30.1144 32.5656 29.6667 32.0133 29.6667V31.6667ZM35.8547 18.0613L34.9637 18.5153L35.8547 18.0613ZM35.272 17.4787L34.818 18.3697L35.272 17.4787ZM27.272 12.1453L26.818 13.0363L27.272 12.1453ZM27.8547 12.728L26.9637 13.182L27.8547 12.728ZM12.1453 12.728L13.0363 13.182L12.1453 12.728ZM12.728 12.1453L13.182 13.0363L12.728 12.1453ZM11 14.1333V36H13V14.1333H11ZM14.1333 13H25.8667V11H14.1333V13ZM27 14.1333V17.3333H29V14.1333H27ZM27 17.3333V36H29V17.3333H27ZM12 37H28V35H12V37ZM28 37H36V35H28V37ZM35 19.4667V36H37V19.4667H35ZM28 18.3333H33.8667V16.3333H28V18.3333ZM16 18.3333H17.3333V16.3333H16V18.3333ZM22.6667 18.3333H24V16.3333H22.6667V18.3333ZM16 22.3333H17.3333V20.3333H16V22.3333ZM22.6667 22.3333H24V20.3333H22.6667V22.3333ZM16 26.3333H17.3333V24.3333H16V26.3333ZM22.6667 26.3333H24V24.3333H22.6667V26.3333ZM21.6667 32V36H23.6667V32H21.6667ZM22.6667 35H17.3333V37H22.6667V35ZM18.3333 36V32H16.3333V36H18.3333ZM20 30.3333C20.9205 30.3333 21.6667 31.0795 21.6667 32H23.6667C23.6667 29.975 22.025 28.3333 20 28.3333V30.3333ZM20 28.3333C17.975 28.3333 16.3333 29.975 16.3333 32H18.3333C18.3333 31.0795 19.0795 30.3333 20 30.3333V28.3333ZM32 23.6667H32.0133V21.6667H32V23.6667ZM32 27.6667H32.0133V25.6667H32V27.6667ZM32 31.6667H32.0133V29.6667H32V31.6667ZM37 19.4667C37 19.1098 37.0008 18.782 36.9785 18.5095C36.9553 18.2253 36.9021 17.9144 36.7457 17.6074L34.9637 18.5153C34.9525 18.4935 34.972 18.5119 34.9852 18.6724C34.9992 18.8445 35 19.0768 35 19.4667H37ZM33.8667 18.3333C34.2565 18.3333 34.4888 18.3341 34.661 18.3482C34.8215 18.3613 34.8399 18.3808 34.818 18.3697L35.726 16.5877C35.4189 16.4312 35.108 16.378 34.8238 16.3548C34.5513 16.3326 34.2235 16.3333 33.8667 16.3333V18.3333ZM36.7457 17.6074C36.522 17.1683 36.165 16.8114 35.726 16.5877L34.818 18.3697C34.8807 18.4016 34.9317 18.4526 34.9637 18.5153L36.7457 17.6074ZM25.8667 13C26.2565 13 26.4888 13.0008 26.661 13.0148C26.8215 13.028 26.8399 13.0475 26.818 13.0363L27.726 11.2543C27.4189 11.0979 27.108 11.0447 26.8238 11.0215C26.5513 10.9992 26.2235 11 25.8667 11V13ZM29 14.1333C29 13.7765 29.0008 13.4487 28.9785 13.1762C28.9553 12.892 28.9021 12.5811 28.7457 12.274L26.9637 13.182C26.9525 13.1601 26.972 13.1785 26.9852 13.339C26.9992 13.5112 27 13.7435 27 14.1333H29ZM26.818 13.0363C26.8807 13.0683 26.9317 13.1193 26.9637 13.182L28.7457 12.274C28.522 11.835 28.165 11.478 27.726 11.2543L26.818 13.0363ZM13 14.1333C13 13.7435 13.0008 13.5112 13.0148 13.339C13.028 13.1785 13.0475 13.1601 13.0363 13.182L11.2543 12.274C11.0979 12.5811 11.0447 12.892 11.0215 13.1762C10.9992 13.4487 11 13.7765 11 14.1333H13ZM14.1333 11C13.7765 11 13.4487 10.9992 13.1762 11.0215C12.892 11.0447 12.5811 11.0979 12.274 11.2543L13.182 13.0363C13.1601 13.0475 13.1785 13.028 13.339 13.0148C13.5112 13.0008 13.7435 13 14.1333 13V11ZM13.0363 13.182C13.0683 13.1193 13.1193 13.0683 13.182 13.0363L12.274 11.2543C11.835 11.478 11.478 11.835 11.2543 12.274L13.0363 13.182Z" fill="white"/>
<defs>
<linearGradient id="paint0_linear_407_8427" x1="1.28342e-06" y1="44.5714" x2="48" y2="-1.34526e-06" gradientUnits="userSpaceOnUse">
<stop stop-color="#9610FF"/>
<stop offset="1" stop-color="#B14DFF" stop-opacity="0"/>
</linearGradient>
</defs>
</svg>
