<svg width="20" height="20" viewBox="0 0 20 20" fill="none" xmlns="http://www.w3.org/2000/svg">
<path d="M9.99992 17.5L8.33325 16.6667M9.99992 17.5L11.6666 16.6667M9.99992 17.5V15.4167M4.99992 15L3.33325 14.1667V12.0833M3.33325 7.91667V5.83333M3.33325 5.83333L4.99992 5M3.33325 5.83333L4.99992 6.66667M8.33325 3.33333L9.99992 2.5L11.6666 3.33333M14.9999 5L16.6666 5.83333M16.6666 5.83333L14.9999 6.66667M16.6666 5.83333V7.91667M9.99992 9.16667L8.33325 8.33333M9.99992 9.16667L11.6666 8.33333M9.99992 9.16667V11.25M14.9999 15L16.6666 14.1667V12.0833" stroke="white" stroke-linecap="round" stroke-linejoin="round"/>
</svg>
