<svg width="48" height="48" viewBox="0 0 48 48" fill="none" xmlns="http://www.w3.org/2000/svg">
<path d="M0 8C0 3.58172 3.58172 0 8 0H40C44.4183 0 48 3.58172 48 8V40C48 44.4183 44.4183 48 40 48H8C3.58172 48 0 44.4183 0 40V8Z" fill="url(#paint0_linear_407_8463)"/>
<path d="M27.3354 19.3335H27.3487M29.6288 34.6134L22.0704 27.0274C21.0131 25.9663 20.4845 25.4357 19.8745 25.2369C19.3379 25.0621 18.7597 25.062 18.2231 25.2367C17.613 25.4352 17.0841 25.9656 16.0265 27.0263L13.7399 29.3196M24.3206 29.2858L24.8118 28.7935C25.8801 27.7328 26.4142 27.2024 27.0279 27.0073C27.5676 26.8356 28.148 26.8402 28.6849 27.0205C29.2953 27.2255 29.821 27.7643 30.8722 28.8419L33.1877 31.1841M33.1877 31.1841L36.7196 25.0668C36.9439 24.6782 37.0561 24.4839 37.1 24.2773C37.1388 24.0946 37.1388 23.9057 37.1 23.7229C37.0561 23.5164 36.9439 23.3221 36.7196 22.9335L31.2846 13.5198C31.0602 13.1312 30.948 12.9369 30.7911 12.7956C30.6522 12.6706 30.4887 12.5761 30.311 12.5184C30.1101 12.4531 29.8858 12.4531 29.4371 12.4531H18.5671C18.1184 12.4531 17.894 12.4531 17.6932 12.5184C17.5155 12.5761 17.3519 12.6706 17.213 12.7956C17.0561 12.9369 16.9439 13.1312 16.7196 13.5198L11.2846 22.9335C11.0602 23.3221 10.948 23.5164 10.9041 23.7229C10.8653 23.9057 10.8653 24.0946 10.9041 24.2773C10.948 24.4839 11.0602 24.6782 11.2846 25.0668L13.7399 29.3196M33.1877 31.1841L31.2846 34.4805C31.0602 34.8691 30.948 35.0634 30.7911 35.2047C30.6522 35.3297 30.4887 35.4241 30.311 35.4819C30.1101 35.5471 29.8858 35.5471 29.4371 35.5471H18.5671C18.1184 35.5471 17.894 35.5471 17.6932 35.4819C17.5155 35.4241 17.3519 35.3297 17.213 35.2047C17.0561 35.0634 16.9439 34.8691 16.7196 34.4805L13.7399 29.3196M28.0021 19.3335C28.0021 19.7017 27.7036 20.0001 27.3354 20.0001C26.9672 20.0001 26.6687 19.7017 26.6687 19.3335C26.6687 18.9653 26.9672 18.6668 27.3354 18.6668C27.7036 18.6668 28.0021 18.9653 28.0021 19.3335Z" stroke="white" stroke-width="2" stroke-linecap="round" stroke-linejoin="round"/>
<defs>
<linearGradient id="paint0_linear_407_8463" x1="1.28342e-06" y1="44.5714" x2="48" y2="-1.34526e-06" gradientUnits="userSpaceOnUse">
<stop stop-color="#9610FF"/>
<stop offset="1" stop-color="#B14DFF" stop-opacity="0"/>
</linearGradient>
</defs>
</svg>
