<svg width="95" height="104" viewBox="0 0 95 104" fill="none" xmlns="http://www.w3.org/2000/svg">
<path d="M94.1653 51.9866C93.5852 50.8265 92.425 49.2796 91.4582 48.5062C91.4582 48.5062 91.4583 48.5062 91.2649 48.3128C91.4583 47.5394 91.6516 46.9593 91.845 46.1859C92.0383 45.0258 92.425 44.059 92.6184 42.8988L93.9719 38.0649C94.9387 36.7114 92.8117 35.9379 91.6516 35.3579C89.718 34.1977 87.7844 33.0376 86.0442 31.6841L84.1106 30.1372L89.718 23.3697L89.9114 23.1763L90.2981 21.4361L88.1712 16.6022H86.6243L89.5247 12.3483L89.718 11.5749L89.138 9.44792L87.011 10.2214L86.4309 10.8014L84.304 16.6022H82.3704L81.597 17.3756L87.5911 6.16085V4.61398L84.1106 0.553467L79.0833 2.10032L78.3099 3.45383L78.1166 7.90105C77.5365 6.93427 76.7631 6.16084 75.9896 5.38741C75.0228 4.42062 73.8627 4.22726 72.7025 3.64719C72.7025 3.64719 72.8959 3.64719 72.8959 3.84054C71.7358 3.26047 70.1889 2.68039 69.8022 1.13353H69.6088C69.6088 1.13353 69.6088 0.940176 69.4155 0.940176C68.2553 1.52025 67.0952 2.10033 65.7417 2.29369C63.8081 2.68041 62.0679 2.87376 60.1343 2.48704C59.3609 2.29369 58.7808 2.10033 58.0073 1.71361C57.4273 1.32689 56.6538 1.32689 56.0738 0.940176C55.8804 1.52025 55.4937 2.29368 55.107 2.87375C54.7203 3.64719 54.3335 4.42061 53.9468 5.00069C53.5601 5.77412 52.98 10.028 52.5933 13.7018C52.4 14.6686 52.0133 15.6354 51.8199 16.6022C51.6265 16.4088 51.4332 16.4088 51.2398 16.4088C51.0465 16.4088 50.6598 16.4088 50.4664 16.4088C50.273 16.4088 50.0797 16.4088 50.0797 16.4088C50.0797 16.4088 49.8863 16.7955 49.8863 17.3756C49.8863 17.9557 50.0797 18.5357 50.4664 18.9225C50.6598 19.1158 50.8531 19.1158 51.0465 19.3092V19.5025C50.8531 19.5025 50.6598 19.5025 50.4664 19.5025C50.273 19.5025 49.8863 19.6959 49.693 19.6959C49.4996 19.6959 49.4996 19.6959 49.4996 19.6959C49.1129 18.9225 48.7262 18.3424 48.1461 17.5689C48.1461 17.5689 48.1461 17.3756 47.9527 17.3756C47.9527 17.1822 47.7594 17.1822 47.7594 16.9889C47.566 16.7955 47.3727 16.4088 47.1793 16.2154C47.3727 16.2154 47.3727 16.2154 47.566 16.4088C47.9527 16.6022 48.1461 16.6022 48.3395 16.6022H48.5328L49.4996 17.3756C49.4996 17.1822 49.4996 16.7955 49.3062 16.6022C49.4996 16.6022 49.693 16.4088 49.693 16.4088C49.693 16.4088 49.693 16.4088 49.693 16.2154C50.0797 16.0221 50.273 15.8287 50.4664 15.442C50.8531 14.8619 50.8531 14.4752 50.8531 14.4752C50.8531 14.4752 50.6598 14.4752 50.4664 14.2819C50.273 14.0885 50.0797 14.0885 49.693 13.8952C49.4996 13.8952 49.3062 13.7018 48.9195 13.7018C48.7262 13.7018 48.7262 13.7018 48.5328 13.5084C48.9195 13.5084 49.1129 13.3151 49.4996 13.1217C50.0797 12.735 50.4664 11.9616 50.6598 11.3815C50.8531 10.8014 50.6598 10.2214 50.6598 10.2214C50.6598 10.2214 50.4664 10.2214 50.273 10.2214C50.0797 10.2214 49.693 10.2214 49.3062 10.2214C48.9195 10.2214 48.5328 10.4147 48.3395 10.4147C47.9527 10.6081 47.7594 10.8014 47.566 11.1881C47.566 11.1881 47.566 11.1881 47.566 10.9948C47.566 10.8014 47.566 10.8014 47.566 10.6081C47.566 10.4147 47.566 10.2213 47.566 9.83463C47.3727 9.44792 47.3727 9.25457 47.3727 9.25457C47.3727 9.25457 47.1793 9.44792 46.986 9.64128C46.7926 9.44792 46.5992 9.25457 46.5992 9.06121L46.986 7.32099C46.4059 7.32099 45.8258 7.90106 45.6325 8.67449C45.6325 8.48113 45.4391 8.48114 45.2457 8.28778C45.0524 8.09442 44.6657 7.90105 44.6657 7.90105C44.6657 7.90105 44.4723 8.09442 44.2789 8.48113C43.8922 8.28778 43.1188 7.90106 42.9254 8.28778L44.0856 10.2214C43.8922 10.4147 43.8922 10.8014 43.6989 10.9948C43.6989 11.1881 43.6989 11.5749 43.6989 11.7682C43.6989 11.7682 43.6989 11.5749 43.5055 11.5749C43.5055 11.3815 43.3122 11.1881 43.1188 11.1881C42.9254 10.9948 42.7321 10.9948 42.7321 10.9948C42.5387 10.9948 42.3454 10.9948 42.152 10.9948H41.9587C41.7653 10.9948 41.3786 10.9948 41.1852 10.9948L41.5719 11.1881C41.5719 11.3815 41.5719 11.3815 41.7653 11.5749C41.9587 11.9616 42.152 12.1549 42.3454 12.3483C42.5387 12.3483 42.5387 12.3483 42.7321 12.5416V12.735C41.9587 12.735 41.1852 13.1217 40.6051 13.5084C40.9919 13.7018 41.1852 14.0885 41.5719 14.2819C41.7653 14.6686 42.152 15.0553 42.5387 15.2487C41.7653 15.442 41.3786 16.0221 40.9919 16.7955C41.9587 16.9889 42.7321 16.9889 43.6989 16.6022C43.3122 17.1822 43.3121 17.5689 43.3121 18.149C43.3121 18.3424 43.3121 18.5357 43.3121 18.9225C43.3121 18.9225 44.2789 18.5357 44.4723 18.5357C44.6657 18.3424 44.859 18.149 44.859 17.9557C45.0524 17.9557 45.0524 17.7623 45.2457 17.7623C45.2457 18.149 45.2457 18.5357 45.6325 18.9225C45.6325 18.3424 46.2125 17.9557 46.4059 17.5689C46.4059 17.3756 46.5992 17.1822 46.5992 16.9889C46.986 18.149 47.1793 19.5025 47.1793 20.856H33.6443H33.0642L36.3513 15.2487H36.5446C36.5446 15.2487 36.738 15.2487 36.738 15.0553L36.1579 12.5416V13.3151L35.9646 12.5416L34.031 13.1217L33.6443 13.7018L30.5505 20.4693L29.197 18.9225L27.2635 20.0826L28.8103 13.1217V12.9284V11.3815L27.6502 8.28778L25.3299 10.8014L25.1365 11.5749L22.6229 5.58077L22.0428 5.00069L20.3026 4.42062L19.7225 6.3542L19.9159 6.93427L24.5564 15.442L24.1697 18.149C23.3963 16.0221 22.8162 14.4752 22.8162 14.2819C22.4295 13.7018 22.0428 13.3151 21.4627 12.9284C21.2694 12.735 21.2694 12.735 21.076 12.5416C20.8826 12.3483 20.6893 12.1549 20.4959 11.9616C19.9159 11.3815 19.3358 10.8014 18.7557 10.4147C18.1756 10.028 17.5956 9.44793 17.0155 9.25457C16.8221 9.25457 16.8221 9.25457 16.6288 9.06121C15.2753 8.86786 13.535 9.06121 12.3749 10.028C11.9882 10.4147 11.7948 10.6081 11.6015 11.1881C11.6015 11.3815 11.6015 11.5749 11.4081 11.7682V11.9616C11.0214 13.5084 11.0214 15.6354 11.2148 17.1822C11.2148 17.7623 11.4081 18.5357 11.4081 19.1158C11.4081 18.9225 11.4081 18.7291 11.4081 18.3424C11.4081 18.5357 11.4081 18.7291 11.4081 18.9225C11.4081 18.9225 11.7948 19.8892 12.1815 21.2427L10.6347 18.9225L9.86126 18.149L8.50775 17.9557L8.31439 19.5025L8.50775 19.8892L12.5683 24.9165L7.54096 21.4361V21.2427L7.3476 21.0494L6.57417 21.2427H6.38081L5.80073 21.4361L4.06053 21.6295H4.83395L4.06053 21.8228L4.64059 24.3365L5.41402 24.9165L11.0214 28.2036L10.6347 28.9771L9.86126 30.1372L10.0546 31.6841L10.248 32.0708L8.7011 33.2309C8.89446 33.0376 9.08782 32.8442 9.28118 32.6509C8.31439 33.2309 7.34761 33.6177 6.18746 34.1977C5.41403 34.5844 2.32031 36.518 2.12695 37.0981C2.12695 37.4848 5.0273 42.5121 6.76752 45.7992L1.16016 46.3793C1.16016 46.3793 1.16015 46.5726 0.966789 46.5726C0.580073 47.1527 0.386716 47.7328 0 48.1195C0 48.3128 0 48.5062 0 48.5062C0.386716 51.9866 0.966801 55.2737 1.16016 58.7542C2.70702 62.2346 4.44724 65.715 4.44724 65.715L15.8553 77.8966L17.4022 79.4434L18.369 80.4102L28.2303 86.9844L32.8708 88.5312C32.8708 88.5312 34.031 88.918 35.7712 90.4648C36.3513 91.0449 36.9313 91.4316 37.5114 92.0117L37.7048 92.2051C38.8649 92.9785 40.0251 93.7519 41.1852 94.7187C41.1852 94.7187 41.1852 94.7187 41.3786 94.9121C41.9586 95.2988 42.5387 95.6855 42.9254 95.8788C42.9254 95.8788 43.1188 95.8789 43.1188 96.0722C43.3122 96.2656 43.5055 96.2656 43.6989 96.4589C43.8922 96.4589 44.0856 96.6523 44.0856 96.6523C44.2789 96.8457 44.4723 96.8456 44.6657 97.039C44.859 97.039 44.859 97.2323 45.0524 97.2323C45.2457 97.4257 45.4391 97.4257 45.6325 97.6191L45.8258 97.8124C46.0192 98.0058 46.2125 98.0058 46.4059 98.1991C46.4059 98.1991 46.5992 98.1992 46.5992 98.3925C46.7926 98.5859 46.986 98.5859 47.1793 98.7792C47.1793 98.7792 47.1793 98.7792 47.3727 98.7792C47.566 98.7792 47.7594 98.9726 47.7594 98.9726C47.9527 99.1659 48.1461 99.1659 48.1461 99.1659L47.7594 102.066L52.7867 103.613L53.3668 103.807C53.3668 103.807 53.3668 104 53.5601 104H53.7535C54.1402 104 54.7203 103.807 54.9136 103.42C56.0738 102.646 57.0406 101.68 58.0073 100.713C60.1343 98.7792 62.2612 97.039 64.3882 95.1054C65.3549 94.332 66.3217 93.3652 67.2885 92.5918C68.062 91.8183 68.8354 91.2383 69.2221 90.2715C69.8022 88.918 70.1889 88.1445 71.5424 87.3711C72.7025 86.791 74.056 86.4043 75.4095 86.4043C75.6029 86.4043 75.7963 86.211 75.9896 86.0176C76.7631 83.8907 76.9564 81.5704 78.6966 79.8302C79.4701 79.0567 80.6302 78.67 81.7904 78.2833C82.7571 77.8966 83.9173 77.5099 84.8841 77.1231C86.6243 76.1564 87.2044 74.9962 87.5911 73.256C88.1712 71.3224 89.718 69.7756 90.6848 67.6486C91.4582 66.2951 92.2317 64.7483 92.425 63.3947C92.425 63.008 92.6184 62.6213 92.6184 62.0412C92.8117 61.2678 92.8118 60.4944 93.0051 59.7209C93.1985 58.1741 93.5852 56.4339 93.7785 54.887C94.552 53.7269 94.7453 52.7601 94.1653 51.9866Z" fill="#8E97CD"/>
</svg>
