<svg width="752" height="795" viewBox="0 0 752 795" fill="none" xmlns="http://www.w3.org/2000/svg">
<g opacity="0.7" filter="url(#filter0_d_99_656)">
<path opacity="0.7" d="M629.321 386.38C626.177 380.092 619.889 371.708 614.649 367.517C614.649 367.517 614.649 367.517 613.601 366.469C614.649 362.277 615.697 359.133 616.745 354.941C617.793 348.653 619.889 343.413 620.937 337.125L628.273 310.925C632.465 304.637 624.081 300.445 617.793 297.302V296.254C617.793 296.254 617.793 296.254 616.745 297.302C616.745 297.302 615.697 297.302 615.697 296.254C614.649 296.254 614.649 295.206 613.601 295.206C615.697 294.158 617.793 293.11 618.841 292.062C621.985 289.966 621.985 286.822 621.985 284.726L623.033 285.774V284.726C623.033 284.726 623.033 284.726 621.985 284.726C623.033 284.726 623.033 283.678 623.033 282.63C623.033 282.63 623.033 281.582 621.985 281.582C620.937 281.582 620.937 281.582 619.889 281.582C619.889 281.582 619.889 281.582 619.889 282.63C619.889 282.63 619.889 282.63 619.889 283.678H618.841C618.841 283.678 618.841 283.678 619.889 283.678C619.889 283.678 619.889 284.726 618.841 284.726L619.889 283.678C618.841 285.774 619.889 288.918 617.793 291.014C617.793 291.014 617.793 291.014 616.745 291.014C614.649 289.966 614.649 288.918 613.601 287.87C614.649 287.87 615.697 287.87 615.697 288.918C615.697 288.918 614.649 287.87 613.601 287.87C614.649 287.87 614.649 286.822 614.649 286.822C614.649 286.822 613.601 285.774 612.553 285.774H611.505C610.457 286.822 610.457 286.822 611.505 287.87C611.505 287.87 610.457 287.87 610.457 288.918H611.505C611.505 288.918 611.505 288.918 611.505 289.966C611.505 289.966 611.505 289.966 612.553 288.918C612.553 289.966 612.553 292.062 614.649 293.11C613.601 294.158 612.553 295.206 610.457 295.206C609.409 295.206 609.409 294.158 608.361 294.158C608.361 292.062 608.361 289.966 607.313 287.87C609.409 285.774 610.457 283.678 610.457 281.582C609.409 282.63 608.361 284.726 607.313 285.774C607.313 284.726 607.313 284.726 607.313 283.678C607.313 282.63 607.313 281.582 607.313 280.534C612.553 279.486 613.601 276.342 613.601 274.246V273.198C615.697 273.198 615.697 272.15 616.745 271.102C617.793 270.054 617.793 269.006 617.793 269.006C617.793 269.006 617.793 269.006 617.793 270.054C617.793 270.054 617.793 271.102 618.841 271.102V270.054C618.841 270.054 618.841 270.054 618.841 269.006H619.889C619.889 269.006 620.937 269.006 620.937 270.054L619.889 269.006C619.889 269.006 619.889 269.006 618.841 269.006C619.889 269.006 619.889 267.958 619.889 267.958C619.889 267.958 619.889 266.91 617.793 266.91C615.697 266.91 614.649 267.958 615.697 269.006V270.054C614.649 270.054 614.649 270.054 613.601 271.102C614.649 271.102 614.649 271.102 615.697 271.102C614.649 272.15 613.601 274.246 612.553 274.246C612.553 272.15 613.601 269.006 612.553 266.91H613.601C613.601 266.91 614.649 266.91 614.649 267.958C614.649 267.958 614.649 266.91 613.601 266.91C613.601 266.91 613.601 266.91 612.553 266.91C613.601 266.91 613.601 265.862 613.601 265.862C613.601 265.862 612.553 264.814 611.505 264.814C610.457 264.814 610.457 264.814 610.457 264.814C609.409 264.814 609.409 265.862 610.457 265.862C610.457 265.862 610.457 266.91 611.505 266.91C611.505 267.958 611.505 269.006 611.505 270.054C611.505 272.15 611.505 273.198 610.457 275.294C610.457 277.39 609.409 280.534 604.169 282.63C604.169 279.486 603.121 276.342 602.073 273.198C601.025 270.054 599.977 265.862 597.881 262.718C597.881 262.718 597.881 262.718 598.929 262.718C598.929 262.718 599.977 262.718 599.977 263.766L598.929 262.718C598.929 262.718 598.929 262.718 597.881 262.718C598.929 262.718 598.929 262.718 599.977 262.718C598.929 262.718 598.929 262.718 597.881 261.67C597.881 261.67 597.881 261.67 596.833 261.67V260.622L595.785 259.574C594.737 259.574 593.69 259.574 593.69 259.574C592.642 259.574 592.642 260.622 593.69 260.622C593.69 260.622 593.69 261.67 594.737 261.67C593.69 261.67 592.641 262.718 592.641 262.718C592.641 262.718 593.69 262.718 593.69 261.67C594.738 261.67 594.737 261.67 595.785 261.67C595.785 261.67 595.785 262.718 594.737 262.718L595.785 261.67C597.881 264.814 598.929 269.006 599.977 273.198C601.025 275.294 601.025 276.342 601.025 278.438C601.025 278.438 601.025 278.438 599.977 277.39C597.881 276.342 596.833 275.294 596.833 273.198C595.785 274.246 596.833 275.294 597.881 276.342C597.881 277.39 598.929 277.39 598.929 278.438C598.929 278.438 599.977 279.486 601.025 279.486C602.073 280.534 602.073 282.63 602.073 284.726V285.774C598.929 284.726 594.737 284.726 592.641 283.678C589.497 282.63 588.45 280.534 587.402 278.438C586.354 275.294 585.306 273.198 584.258 270.054C585.306 270.054 586.354 271.102 587.402 271.102C587.402 270.054 586.354 270.054 585.306 270.054C586.354 270.054 586.354 270.054 587.402 270.054C586.354 270.054 585.306 269.006 584.258 269.006C585.306 269.006 584.258 266.91 584.258 266.91C583.21 265.862 580.066 265.862 580.066 266.91C580.066 267.958 580.066 267.958 581.114 269.006C581.114 269.006 581.114 269.006 582.162 269.006C582.162 270.054 582.162 270.054 582.162 271.102C582.162 271.102 582.162 270.054 583.21 270.054C584.258 273.198 584.258 276.342 586.354 279.486C587.402 281.582 588.45 282.63 591.594 283.678C592.641 284.726 594.737 284.726 595.785 284.726C597.881 284.726 599.977 284.726 601.025 285.774C601.025 287.87 602.073 291.014 602.073 293.11C602.073 292.062 599.977 291.014 599.977 289.966C599.977 291.014 599.977 292.062 599.977 293.11C597.881 292.062 595.785 291.014 593.69 289.966V288.918H592.641C586.354 284.726 580.066 280.534 573.778 276.342C572.73 277.39 570.634 277.39 569.586 277.39C567.49 278.438 565.394 278.438 564.346 279.486C563.298 275.294 562.25 270.054 562.25 267.958C562.25 267.958 562.25 267.958 561.202 267.958L549.674 259.574L547.578 258.526C547.578 258.526 547.578 258.526 546.53 258.526C546.53 258.526 546.53 257.478 547.578 257.478C547.578 256.43 548.626 255.382 548.626 254.334C548.626 253.286 549.674 253.286 549.674 252.238C549.674 252.238 549.674 252.238 548.626 253.286C548.626 252.238 549.674 252.238 549.674 251.19C548.626 252.238 547.578 252.238 547.578 253.286C547.578 254.334 547.578 255.382 547.578 255.382C547.578 255.382 547.578 256.43 546.53 256.43C546.53 256.43 546.53 257.478 545.482 257.478L541.29 254.334C542.338 254.334 543.386 254.334 543.386 253.286C543.386 252.238 542.338 252.238 541.29 252.238C542.338 252.238 543.386 252.238 544.434 251.19C543.386 251.19 543.386 251.19 542.338 251.19L543.386 250.142C544.434 249.094 544.434 248.046 545.482 246.998C545.482 246.998 545.482 248.046 544.434 248.046C544.434 246.998 544.434 245.95 544.434 244.902C544.434 245.95 544.434 246.998 544.434 249.094C544.434 248.046 544.434 246.998 544.434 245.95C544.434 246.998 543.386 246.998 543.386 248.046C543.386 249.094 544.434 249.094 544.434 250.142C543.386 250.142 543.386 251.19 543.386 251.19L542.338 252.238L540.242 251.19C541.29 251.19 541.29 250.142 541.29 249.094L540.242 248.046C539.194 248.046 539.194 249.094 539.194 249.094V248.046H538.146C539.194 248.046 540.242 246.998 540.242 245.95C541.29 244.902 538.146 242.806 538.146 244.902C538.146 244.902 538.146 244.902 538.146 245.95V246.998L537.098 248.046L535.002 246.998V245.95C535.002 245.95 535.002 246.998 533.954 246.998C533.954 246.998 533.954 245.95 535.002 245.95C535.002 245.95 535.002 245.95 535.002 244.902L536.05 243.854C536.05 242.806 537.098 242.806 537.098 241.758C536.05 241.758 536.05 242.806 535.002 242.806C536.05 241.758 536.05 241.758 537.098 240.71C537.098 240.71 536.05 239.662 536.05 240.71C535.002 241.758 535.002 241.758 535.002 242.806C535.002 242.806 535.002 242.806 535.002 241.758C533.954 240.71 535.002 239.662 535.002 239.662C535.002 240.71 535.002 241.758 533.954 241.758C533.954 242.806 533.954 243.854 535.002 243.854V244.902C535.002 244.902 533.954 245.95 533.954 246.998L531.858 245.95C531.858 245.95 531.858 245.95 531.858 244.902C531.858 243.854 531.858 243.854 531.858 242.806C532.906 241.758 532.906 239.662 532.906 238.614C532.906 239.662 532.906 239.662 531.858 240.71V241.758C531.858 240.71 531.858 239.662 531.858 239.662C531.858 240.71 531.858 240.71 531.858 241.758C531.858 241.758 530.81 240.71 530.81 239.662V240.71C530.81 240.71 530.81 241.758 530.81 242.806C530.81 241.758 529.762 241.758 529.762 240.71C529.762 241.758 529.762 242.806 530.81 242.806C530.81 242.806 531.858 243.854 532.906 243.854C532.906 243.854 532.906 243.854 533.954 243.854C533.954 244.902 533.954 244.902 533.954 245.95L527.666 240.71C527.666 240.71 527.666 239.662 526.618 239.662L525.57 238.614C527.666 237.566 528.714 237.566 530.81 236.518C533.954 234.422 537.098 232.326 539.194 229.182C541.29 228.134 543.386 226.038 544.434 223.943C544.434 223.943 544.434 222.895 543.386 223.943C542.338 224.991 541.29 224.99 540.242 226.038C541.29 224.99 541.29 223.943 542.338 222.895C542.338 221.847 543.386 219.751 543.386 218.703V217.655C544.434 216.607 544.434 215.559 544.434 214.511L543.386 215.559C543.386 214.511 544.434 213.463 544.434 212.415C543.386 213.463 542.338 214.511 541.29 215.559C540.242 214.511 540.242 213.463 540.242 213.463C540.242 214.511 540.242 215.559 540.242 216.607C540.242 217.655 540.242 219.751 541.29 220.799C541.29 220.799 541.29 220.799 542.338 220.799C542.338 221.847 542.338 221.847 541.29 222.895C540.242 223.943 540.242 226.038 539.194 227.086C539.194 226.038 538.146 226.038 538.146 224.99C537.098 224.99 538.146 222.895 537.098 222.895C537.098 222.895 537.098 223.943 536.05 223.943L535.002 224.99C535.002 226.038 535.002 228.134 537.098 228.134H536.05C533.954 227.086 531.858 224.991 529.762 223.943C530.81 222.895 530.81 220.799 531.858 219.751C533.954 219.751 537.098 218.703 537.098 217.655C536.05 216.607 535.002 216.607 533.954 217.655C535.002 216.607 537.098 216.607 538.146 215.559V214.511C537.098 214.511 536.05 214.511 536.05 215.559C537.098 214.511 537.098 213.463 538.146 212.415C539.194 211.367 539.194 209.271 540.242 207.175L539.194 208.223C539.194 206.127 539.194 205.079 539.194 202.983C538.146 205.079 538.146 206.127 538.146 208.223C538.146 208.223 538.146 208.223 538.146 209.271C538.146 207.175 537.098 206.127 536.05 204.031C536.05 206.127 537.098 208.223 537.098 210.319C537.098 209.271 536.05 207.175 536.05 206.127C536.05 207.175 535.002 208.223 536.05 210.319C536.05 211.367 537.098 212.415 538.146 213.463C537.098 214.511 537.098 215.559 536.05 216.607C536.05 217.655 535.002 218.703 535.002 218.703L533.954 219.751C532.906 220.799 532.906 221.847 531.858 222.895C530.81 221.847 530.81 220.799 529.762 219.751C529.762 219.751 528.714 218.703 528.714 217.655H529.762C530.81 216.607 531.858 215.559 531.858 213.463C531.858 212.415 530.81 212.415 529.762 212.415C528.714 213.463 528.714 214.511 527.666 215.559C527.666 214.511 527.666 214.511 527.666 213.463V212.415C526.618 212.415 526.618 212.415 525.57 212.415C527.666 211.367 528.714 211.367 528.714 209.271C529.762 207.175 525.57 205.079 524.522 207.175C524.522 207.175 524.522 208.223 523.474 208.223V209.271C523.474 210.319 521.379 210.319 521.379 211.367C519.283 212.415 518.235 213.463 517.187 214.511C518.235 212.415 520.331 210.319 520.331 207.175C520.331 209.271 519.283 210.319 517.187 212.415C517.187 212.415 517.187 212.415 517.187 211.367C517.187 209.271 518.234 208.223 518.234 206.127V205.079C519.283 204.031 519.282 202.983 519.282 201.935C519.282 200.887 520.331 199.839 521.379 197.743C521.379 197.743 521.379 196.695 520.331 197.743C519.283 198.791 519.283 199.839 518.234 200.887C519.283 199.839 520.331 197.743 520.331 196.695C520.331 195.647 519.282 195.647 519.282 196.695C518.234 197.743 518.234 199.839 518.234 200.887L517.187 199.839C516.139 198.791 516.139 197.743 516.139 196.695C516.139 197.743 516.139 199.839 516.139 200.887C516.139 201.935 516.139 204.031 517.187 204.031C517.187 205.079 517.187 205.079 517.187 206.127C516.139 208.223 516.139 209.271 515.091 211.367C514.043 210.319 512.995 210.319 511.947 210.319C511.947 209.271 511.947 208.223 511.947 207.175C511.947 206.127 511.947 205.079 511.947 204.031C512.995 201.935 511.947 198.791 511.947 196.695C511.947 197.743 511.947 198.791 511.947 200.887C511.947 201.935 511.947 201.935 511.947 202.983C510.899 201.935 510.899 200.887 510.899 198.791C510.899 199.839 510.899 200.887 510.899 201.935C509.851 200.887 509.851 199.839 508.803 199.839H507.755C507.755 200.887 507.755 200.887 507.755 201.935C507.755 202.983 507.755 204.031 508.803 204.031C508.803 204.031 508.803 204.031 507.755 204.031C506.707 202.983 505.659 202.983 505.659 201.935C506.707 202.983 506.707 204.031 507.755 205.079C508.803 206.127 509.851 206.127 510.899 206.127H511.947C512.995 208.223 511.947 210.319 510.899 212.415C510.899 213.463 510.899 213.463 511.947 213.463C512.995 213.463 514.043 214.511 516.139 214.511C516.139 216.607 516.139 218.703 516.139 220.799C516.139 222.895 516.139 226.038 514.043 227.086L511.947 226.038L510.899 224.99H509.851C509.851 224.99 509.851 223.943 508.803 223.943C508.803 223.943 508.803 223.943 508.803 222.895C510.899 220.799 511.947 218.703 511.947 215.559C510.899 216.607 510.899 217.655 509.851 219.751V218.703V217.655C509.851 215.559 509.851 214.511 509.851 212.415C509.851 214.511 509.851 215.559 508.803 216.607L507.755 219.751C507.755 219.751 507.755 219.751 507.755 218.703C506.707 216.607 506.707 213.463 506.707 211.367C506.707 212.415 506.707 214.511 505.659 216.607C504.611 215.559 503.563 213.463 502.515 212.415H501.467C501.467 212.415 501.467 211.367 500.419 211.367C500.419 210.319 500.419 210.319 500.419 209.271V208.223H499.371C499.371 208.223 498.323 208.223 498.323 207.175C498.323 207.175 498.323 206.127 499.371 206.127C499.371 205.079 500.419 205.079 500.419 204.031C500.419 202.983 498.323 201.935 498.323 202.983C498.323 204.031 498.323 205.079 498.323 205.079C498.323 204.031 498.323 202.983 498.323 201.935C498.323 200.887 497.275 200.887 496.227 201.935C495.179 202.983 496.227 205.079 496.227 206.127V207.175C495.179 206.127 495.179 206.127 494.131 205.079C494.131 206.127 495.179 207.175 495.179 208.223C495.179 208.223 495.179 209.271 496.227 209.271H495.179C494.131 209.271 494.131 208.223 493.083 208.223C493.083 209.271 494.131 209.271 495.179 210.319C495.179 210.319 496.227 210.319 496.227 211.367H497.275C497.275 212.415 498.323 212.415 498.323 213.463L499.371 214.511C493.083 215.559 485.747 214.511 479.459 214.511C478.411 216.607 478.411 217.655 477.363 219.751C476.315 220.799 476.315 221.847 475.267 222.895C473.171 222.895 472.123 222.895 470.027 223.943C472.123 221.847 474.219 218.703 475.267 216.607C474.219 216.607 473.171 217.655 472.123 218.703C472.123 218.703 472.123 218.703 472.123 217.655C474.219 210.319 480.507 202.983 485.747 198.791C487.843 196.695 490.987 193.551 493.083 191.455C493.083 191.455 493.083 191.455 494.131 190.407C495.179 189.359 496.227 188.311 497.275 186.215C497.275 186.215 497.275 186.215 498.323 185.167C499.371 183.071 500.419 182.023 501.467 179.927C501.467 178.879 502.515 178.879 502.515 177.831C503.563 175.735 503.563 174.687 503.563 174.687C503.563 173.639 503.563 172.591 504.611 171.543C505.659 174.687 506.707 176.783 508.803 179.927C508.803 177.831 509.851 176.783 510.899 175.735C509.851 177.831 509.851 179.927 509.851 182.023C510.899 184.119 511.947 185.167 511.947 187.263C511.947 186.215 511.947 186.215 512.995 185.167C514.043 184.119 514.043 183.071 515.091 183.071C516.139 180.975 517.187 179.927 518.234 177.831C518.234 176.783 519.282 175.735 519.282 174.687C519.282 174.687 519.282 174.687 519.282 175.735C519.282 176.783 520.33 178.879 519.282 179.927C520.33 178.879 520.331 176.783 521.379 175.735C521.379 177.831 520.33 179.927 519.282 183.071C519.282 184.119 519.282 185.167 519.282 186.215C520.33 184.119 521.378 183.071 522.426 180.975C522.426 183.071 522.426 184.119 522.426 186.215C522.426 188.311 521.379 189.359 521.379 191.455C523.474 189.359 524.522 186.215 525.57 183.071C526.618 180.975 526.618 179.927 526.618 177.831C526.618 176.783 526.618 176.783 526.618 175.735C526.618 175.735 526.618 175.735 527.666 175.735V174.687C527.666 174.687 527.666 175.735 527.666 176.783C528.714 176.783 528.714 177.831 529.762 177.831C529.762 177.831 529.762 177.831 529.762 176.783C529.762 176.783 529.762 176.783 529.762 175.735C529.762 175.735 529.762 175.735 529.762 174.687C529.762 173.639 529.762 171.543 529.762 170.495C529.762 169.447 529.762 168.399 529.762 167.351C530.81 168.399 531.858 169.447 532.906 170.495V168.399C532.906 167.351 532.906 164.207 530.81 160.015C531.858 161.063 532.906 163.159 533.954 164.207C533.954 165.255 535.002 166.303 536.05 167.351C536.05 166.303 536.05 166.303 537.098 165.255C537.098 166.303 537.098 167.351 537.098 169.447C538.146 170.495 539.194 172.591 539.194 173.639C540.242 170.495 539.194 166.303 538.146 163.159C537.098 161.063 536.05 158.967 535.002 156.871C533.954 154.775 532.906 154.775 531.858 152.679C532.906 153.727 535.002 154.775 536.05 155.823C537.098 155.823 537.098 156.871 538.146 156.871C538.146 154.775 538.146 153.727 537.098 151.632C537.098 152.679 538.146 153.727 539.194 157.919C539.194 157.919 540.242 157.919 540.242 158.967L541.29 160.015C541.29 158.967 541.29 157.919 541.29 156.871C542.338 157.919 542.338 158.967 542.338 160.015C543.386 161.063 545.482 163.159 546.53 164.207C545.482 161.063 544.434 157.919 543.386 155.823C541.29 152.679 539.194 150.584 536.05 148.488L537.098 149.536C537.098 149.536 538.146 149.536 538.146 150.584C538.146 149.536 537.098 147.44 537.098 146.392C538.146 147.44 539.194 148.488 540.242 150.584V151.632C541.29 152.679 542.338 152.679 543.386 153.727C543.386 152.679 542.338 150.584 542.338 149.536C543.386 150.584 544.434 152.679 545.482 153.727C545.482 153.727 545.482 153.727 545.482 154.775C546.53 154.775 546.53 155.823 547.578 155.823C547.578 154.775 547.578 154.775 547.578 153.727C547.578 154.775 548.626 154.775 548.626 155.823C549.674 155.823 550.722 156.871 551.77 156.871V155.823C551.77 154.775 551.77 154.775 551.77 153.727C551.77 151.632 551.77 150.584 550.722 148.488C549.674 146.392 548.626 144.296 546.53 143.248C545.482 142.2 543.386 141.152 542.338 141.152C543.386 141.152 545.482 141.152 546.53 141.152C545.482 140.104 545.482 139.056 544.434 138.008H543.386C542.338 138.008 541.29 136.96 540.242 136.96C541.29 136.96 542.338 136.96 543.386 136.96C542.338 135.912 542.338 135.912 541.29 134.864H542.338C542.338 133.816 541.29 132.768 541.29 132.768C542.338 132.768 543.386 134.864 543.386 135.912C544.434 135.912 545.482 136.96 546.53 138.008C545.482 135.912 544.434 134.864 543.386 133.816L542.338 132.768C541.29 130.672 538.146 130.672 536.05 129.624C533.954 128.576 531.858 128.576 529.762 129.624C528.714 128.576 526.618 128.576 525.57 128.576C523.474 128.576 520.33 128.576 518.234 129.624H517.187C516.139 129.624 516.139 129.624 515.091 130.672C514.043 130.672 512.995 131.72 511.947 132.768C511.947 132.768 511.947 132.768 510.899 132.768C511.947 130.672 512.995 128.576 514.043 127.528C512.995 126.48 512.995 126.48 511.947 126.48C511.947 127.528 511.947 127.528 510.899 128.576C510.899 127.528 510.899 127.528 510.899 126.48C509.851 126.48 508.803 126.48 507.755 125.432C507.755 125.432 506.707 125.432 505.659 125.432C503.563 125.432 502.515 124.384 500.419 124.384H499.371H498.323C497.275 124.384 495.179 124.384 494.131 124.384C493.083 124.384 490.987 125.432 489.939 125.432C482.603 119.144 480.507 118.096 479.459 117.048C480.507 118.096 480.507 119.144 481.555 119.144C479.459 119.144 478.411 118.096 477.363 116C477.363 116 477.363 116 476.315 116C474.219 116 473.171 116 472.123 116C473.171 117.048 474.219 117.048 475.267 118.096C472.123 118.096 470.027 118.096 467.931 117.048C466.883 117.048 466.883 117.048 465.835 117.048C464.787 117.048 462.691 117.048 461.643 117.048C461.643 117.048 460.595 117.048 459.547 118.096H458.499C457.451 118.096 456.403 119.144 455.355 119.144C456.403 119.144 456.403 120.192 457.451 120.192H458.499C459.547 120.192 460.595 120.192 461.643 119.144C460.595 119.144 459.547 120.192 458.499 120.192H459.547C456.403 120.192 454.307 121.24 451.163 122.288C448.019 123.336 445.924 125.432 443.828 127.528C443.828 127.528 443.828 127.528 444.876 127.528C444.876 127.528 444.876 127.528 443.828 127.528C444.876 127.528 444.876 128.576 445.923 128.576H446.972C448.02 128.576 449.067 128.576 450.115 127.528C449.067 127.528 448.02 128.576 446.972 128.576C448.02 128.576 448.02 129.624 449.067 129.624C451.163 128.576 452.211 127.528 454.307 126.48C453.259 127.528 452.211 128.576 450.115 129.624C448.019 130.672 445.924 132.768 443.828 134.864C443.828 135.912 442.78 135.912 442.78 136.96C443.828 135.912 444.876 134.864 446.972 134.864C448.02 133.816 448.02 132.768 449.067 131.72C449.067 132.768 449.068 132.768 448.02 133.816C449.068 133.816 450.115 132.768 451.163 132.768C452.211 131.72 454.307 130.672 456.403 130.672C452.211 132.768 450.115 134.864 450.115 135.912C450.115 135.912 449.067 136.96 449.067 138.008C450.115 136.96 452.211 136.96 454.307 136.96C455.355 135.912 456.403 134.864 456.403 133.816C455.355 134.864 455.355 135.912 455.355 136.96C456.403 136.96 456.403 136.96 457.451 135.912C458.499 134.864 458.499 134.864 459.547 133.816C460.595 132.768 460.595 131.72 461.643 130.672C461.643 131.72 460.595 133.816 459.547 134.864C460.595 134.864 461.643 133.816 461.643 132.768C461.643 132.768 462.691 132.768 462.691 131.72C463.739 130.672 464.787 130.672 465.835 129.624C464.787 130.672 462.691 131.72 461.643 132.768C460.595 136.96 460.595 136.96 459.547 138.008L457.451 140.104C458.499 140.104 460.595 140.104 461.643 139.056C462.691 139.056 462.691 139.056 463.739 138.008C463.739 138.008 463.739 138.008 464.787 136.96C465.835 135.912 466.883 134.864 467.931 133.816C466.883 134.864 466.883 135.912 465.835 136.96C466.883 136.96 466.883 136.96 467.931 135.912C468.979 134.864 468.979 133.816 470.027 133.816C470.027 134.864 468.979 134.864 468.979 135.912C470.027 134.864 472.123 134.864 473.171 133.816H474.219C473.171 134.864 473.171 134.864 472.123 135.912C472.123 135.912 471.075 135.912 471.075 136.96C471.075 136.96 471.075 136.96 470.027 136.96C470.027 136.96 470.027 138.008 468.979 138.008C467.931 138.008 466.883 139.056 465.835 139.056L464.787 140.104C465.835 140.104 466.883 140.104 467.931 140.104C465.835 141.152 463.739 141.152 461.643 143.248C460.595 144.296 460.595 145.344 459.547 146.392C458.499 146.392 458.499 146.392 457.451 145.344C455.355 145.344 454.307 144.296 452.211 144.296C453.259 144.296 454.307 143.248 455.355 143.248C454.307 143.248 453.259 142.2 452.211 142.2C452.211 142.2 452.211 142.2 451.163 142.2C450.115 143.248 449.068 143.248 446.972 143.248C448.02 143.248 448.02 142.2 449.067 142.2C448.02 142.2 446.971 142.2 444.876 142.2C443.828 141.152 442.78 141.152 441.732 140.104C440.684 139.056 439.636 139.056 438.588 139.056H437.54H436.492C435.444 139.056 434.396 139.056 432.3 139.056C431.252 139.056 430.204 139.056 430.204 139.056C429.156 139.056 428.108 139.056 428.108 139.056C428.108 139.056 428.108 140.104 427.06 140.104V139.056C426.012 139.056 426.012 139.056 424.964 139.056C428.108 140.104 428.108 142.2 428.108 144.296C428.108 144.296 428.108 144.296 427.06 144.296C426.012 143.248 426.012 143.248 424.964 142.2L423.916 141.152C423.916 141.152 423.916 141.152 422.868 140.104C421.82 139.056 419.724 139.056 417.628 138.008C417.628 138.008 416.58 138.008 415.532 138.008C414.484 136.96 412.388 136.96 410.292 136.96C408.196 136.96 406.1 136.96 405.052 138.008H404.004C402.956 139.056 400.86 139.056 400.86 140.104C401.908 140.104 401.908 139.056 402.956 139.056C404.004 139.056 404.004 138.008 405.052 138.008C404.004 138.008 404.004 139.056 404.004 139.056H405.052C404.004 139.056 402.956 139.056 401.908 140.104C402.956 140.104 404.004 141.152 404.004 141.152C402.956 141.152 401.908 141.152 400.86 141.152H399.812C398.764 141.152 398.764 142.2 397.716 143.248C398.764 143.248 399.812 144.296 400.86 144.296C399.812 144.296 397.716 144.296 396.668 144.296C395.62 145.344 393.524 146.392 392.476 147.44C391.428 148.488 391.428 149.536 390.38 150.584C390.38 151.632 390.38 151.632 390.38 152.679C390.38 152.679 390.38 152.679 390.38 153.727C391.428 153.727 391.428 153.727 392.476 153.727C392.476 152.679 393.524 152.679 393.524 152.679C393.524 152.679 393.524 153.727 392.476 153.727H393.524C394.572 152.679 395.62 151.632 396.668 150.584C395.62 151.632 395.62 152.679 394.572 153.727C395.62 153.727 396.668 153.727 397.716 152.679C397.716 152.679 397.716 152.679 397.716 151.632C398.764 150.584 399.812 149.536 400.86 149.536C399.812 150.584 399.812 151.632 398.764 151.632C398.764 151.632 398.764 151.632 399.812 151.632H400.86C398.764 152.679 395.62 153.727 393.524 155.823C391.428 156.871 390.38 158.967 389.332 161.063C390.38 160.015 392.476 158.967 393.524 158.967C393.524 157.919 394.572 156.871 395.62 156.871C395.62 157.919 394.572 157.919 394.572 158.967C394.572 158.967 395.62 158.967 395.62 157.919H396.668C397.716 154.775 398.764 154.775 399.812 153.727C398.764 154.775 398.764 155.823 397.716 156.871C397.716 156.871 398.764 156.871 398.764 155.823C399.812 155.823 400.86 154.775 401.908 154.775C400.86 155.823 399.812 155.823 398.764 156.871C397.716 157.919 396.668 158.967 394.572 161.063C393.524 163.159 391.428 166.303 391.428 168.399C392.476 167.351 392.476 166.303 393.524 165.255C393.524 164.207 394.572 163.159 394.572 163.159V164.207C395.62 163.159 395.62 163.159 396.668 162.111C397.716 161.063 398.764 160.015 399.812 160.015C396.668 162.111 396.668 164.207 395.62 165.255C395.62 165.255 395.62 166.303 394.572 167.351C395.62 166.303 396.668 166.303 397.716 165.255C397.716 166.303 396.668 167.351 396.668 167.351C396.668 168.399 396.668 168.399 395.62 169.447C395.62 170.495 395.62 170.495 395.62 171.543C395.62 171.543 396.668 171.543 397.716 171.543C397.716 171.543 397.716 170.495 398.764 170.495V171.543C398.764 171.543 398.764 171.543 399.812 171.543C399.812 172.591 399.812 172.591 399.812 173.639C399.812 174.687 399.812 175.735 399.812 177.831C399.812 179.927 400.86 183.071 400.86 185.167C400.86 184.119 400.86 182.023 400.86 180.975C400.86 179.927 401.908 178.879 401.908 176.783C401.908 177.831 401.908 179.927 402.956 180.975C402.956 179.927 404.004 178.879 404.004 177.831C404.004 175.735 404.004 173.639 404.004 172.591C404.004 173.639 404.004 174.687 404.004 175.735C404.004 175.735 405.052 173.639 405.052 172.591L406.1 171.543C406.1 172.591 406.1 173.639 406.1 173.639C406.1 174.687 406.1 176.783 407.148 177.831C407.148 178.879 407.148 178.879 408.196 179.927C408.196 180.975 408.196 180.975 408.196 182.023C409.244 180.975 410.292 179.927 411.34 178.879C411.34 176.783 412.388 175.735 412.388 173.639C412.388 174.687 412.388 175.735 412.388 177.831C414.484 175.735 415.532 174.687 417.628 172.591C417.628 173.639 417.628 173.639 417.628 174.687C417.628 174.687 417.628 175.735 417.628 176.783C417.628 177.831 417.628 177.831 417.628 178.879C417.628 180.975 418.676 182.023 418.676 183.071C418.676 183.071 418.676 183.071 418.676 184.119C418.676 185.167 419.724 186.215 420.772 188.311C421.82 190.407 422.868 193.551 424.964 195.647C427.06 199.839 430.204 208.223 430.204 213.463L429.156 212.415C429.156 211.367 428.108 211.367 428.108 210.319C427.06 209.271 427.06 209.271 426.012 208.223L332.741 123.336V122.288C332.741 122.288 332.741 122.288 332.741 123.336L331.693 124.384L287.678 165.255C280.342 172.591 271.958 178.879 264.622 186.215C254.142 195.647 242.614 206.127 232.134 215.559L212.223 234.422C211.175 235.47 210.127 236.518 209.079 236.518L204.887 239.662C204.887 238.614 204.887 237.566 205.935 236.518C206.983 232.326 208.031 229.182 210.127 224.99L211.175 226.038C211.175 226.038 211.175 224.99 210.127 224.99C211.175 224.99 211.175 224.99 212.223 224.99C212.223 224.99 213.271 224.99 213.271 226.038C213.271 224.99 212.223 224.99 211.175 224.99H212.223H213.271C213.271 224.99 213.271 224.99 212.223 224.99H211.175C212.223 224.99 212.223 223.943 212.223 223.943V222.895C211.175 222.895 210.127 222.895 210.127 222.895C209.079 222.895 209.079 223.943 209.079 223.943V224.99C209.079 224.99 209.079 224.99 208.031 224.99C206.983 224.99 206.983 224.99 205.935 226.038C206.983 226.038 206.983 226.038 208.031 226.038C208.031 226.038 208.031 226.038 206.983 226.038C206.983 226.038 205.935 226.038 205.935 227.086C205.935 227.086 206.983 227.086 206.983 226.038C206.983 226.038 206.983 226.038 208.031 226.038C205.935 229.182 204.887 233.374 203.839 236.518C208.031 238.614 208.031 240.71 206.983 242.806L203.839 245.95C201.743 243.854 200.695 242.806 200.695 240.71C200.695 238.614 199.647 237.566 199.647 235.47C199.647 234.422 199.647 233.374 199.647 232.326C200.695 232.326 200.695 233.374 200.695 233.374L199.647 232.326L200.695 231.278V230.23H199.647C198.599 230.23 197.551 231.278 197.551 231.278C197.551 231.278 197.551 232.326 198.599 232.326C198.599 232.326 198.599 232.326 197.551 232.326C197.551 232.326 196.503 232.326 196.503 233.374C196.503 233.374 197.551 233.374 197.551 232.326H198.599C197.551 234.422 197.551 237.566 198.599 239.662C197.551 239.662 195.455 237.566 195.455 236.518C196.503 236.518 196.503 236.518 197.551 236.518C196.503 236.518 196.503 235.47 195.455 235.47V234.422C196.503 233.374 195.455 232.326 193.359 232.326C192.311 232.326 191.263 233.374 191.263 233.374C191.263 233.374 191.263 234.422 192.311 234.422C192.311 234.422 192.311 234.422 191.263 234.422L190.215 235.47C190.215 235.47 191.263 235.47 191.263 234.422C191.263 234.422 191.263 234.422 192.311 234.422C192.311 234.422 192.311 234.422 192.311 235.47V236.518C192.311 236.518 192.311 235.47 193.359 235.47C193.359 235.47 193.359 235.47 193.359 234.422C193.359 235.47 194.407 236.518 194.407 236.518C194.407 237.566 195.455 238.614 197.551 238.614C197.551 239.662 197.551 239.662 197.551 239.662C197.551 240.71 198.599 243.854 200.695 244.902L197.551 251.19L200.695 253.286C200.695 253.286 200.695 253.286 199.647 253.286C198.599 253.286 197.551 253.286 197.551 254.334C197.551 254.334 197.551 255.382 198.599 255.382C198.599 255.382 197.551 255.382 197.551 256.43C196.503 256.43 195.455 256.43 194.407 256.43C194.407 255.382 194.407 253.286 193.359 252.238C193.359 252.238 193.359 252.238 194.407 252.238H193.359C193.359 252.238 193.359 252.238 193.359 251.19V250.142C193.359 250.142 192.311 249.094 191.263 250.142C190.215 250.142 190.215 250.142 190.215 251.19C190.215 251.19 190.215 252.238 191.263 253.286C191.263 253.286 191.263 253.286 190.215 253.286H189.167C189.167 253.286 189.167 253.286 190.215 253.286V254.334C190.215 254.334 190.215 253.286 191.263 253.286C191.263 254.334 191.263 256.43 192.311 257.478C190.215 257.478 188.119 258.526 186.023 258.526C184.975 258.526 183.927 259.574 182.879 259.574L181.831 258.526C181.831 258.526 181.831 259.574 182.879 259.574H181.831C181.831 259.574 180.783 259.574 180.783 258.526C180.783 258.526 180.783 258.526 181.831 259.574C181.831 259.574 180.783 259.574 180.783 260.622L179.735 261.67C179.735 261.67 179.735 261.67 178.687 262.718C177.639 263.766 176.591 263.766 175.543 264.814C175.543 264.814 175.543 264.814 175.543 263.766C175.543 262.718 175.543 261.67 174.495 261.67H173.447C173.447 262.718 173.447 262.718 174.495 263.766C174.495 263.766 174.495 263.766 173.447 263.766C172.399 263.766 172.399 262.718 172.399 262.718C172.399 263.766 173.447 263.766 173.447 264.814L174.495 265.862C174.495 265.862 174.495 265.862 173.447 265.862C173.447 265.862 173.447 265.862 172.399 266.91L171.351 265.862C171.351 264.814 169.255 263.766 169.255 262.718L170.303 263.766C170.303 263.766 170.303 263.766 170.303 264.814C169.255 264.814 169.255 263.766 168.207 263.766L169.255 264.814H168.207C168.207 264.814 168.207 264.814 169.255 265.862L170.303 266.91C169.255 266.91 169.255 266.91 168.207 266.91C169.255 266.91 169.255 267.958 170.303 267.958C170.303 267.958 171.351 267.958 171.351 266.91C171.351 266.91 171.351 266.91 172.399 267.958C172.399 269.006 171.351 269.006 171.351 270.054C170.303 271.102 169.255 272.15 169.255 273.198C169.255 273.198 169.255 273.198 169.255 272.15V271.102C169.255 270.054 168.207 271.102 168.207 271.102C168.207 271.102 168.207 272.15 169.255 272.15C169.255 272.15 169.255 272.15 169.255 273.198L168.207 272.15H167.159C167.159 273.198 168.207 273.198 168.207 273.198H167.159C167.159 273.198 168.207 273.198 168.207 274.246C168.207 274.246 168.207 274.246 169.255 274.246C169.255 274.246 169.255 274.246 170.303 274.246H171.351C171.351 275.294 170.303 276.342 170.303 276.342C170.303 277.39 169.255 278.438 169.255 279.486C169.255 279.486 169.255 279.486 169.255 280.534V281.582C164.015 284.726 158.776 286.822 153.536 289.966C149.344 292.062 132.576 302.541 131.528 305.685C131.528 307.781 147.248 335.029 156.679 352.845L126.288 355.989C126.288 355.989 126.288 357.037 125.24 357.037C123.144 360.181 122.096 363.325 120 365.421C120 366.469 120 367.517 120 368.565C122.096 387.428 125.24 405.244 126.288 424.108C134.672 442.971 144.104 461.835 144.104 461.835L219.559 542.53L273.006 578.162L298.158 586.546C298.158 586.546 304.445 588.641 313.877 597.025C317.021 599.121 320.165 602.265 323.309 605.409L324.357 606.457C330.645 610.649 336.933 614.841 343.221 620.081C343.221 620.081 343.221 620.081 344.269 621.129C347.413 623.225 350.557 625.321 352.653 626.369C352.653 626.369 353.701 626.369 353.701 627.417C354.749 628.465 355.797 628.465 356.845 629.513C357.893 629.513 358.941 630.561 358.941 630.561C359.989 631.609 361.037 631.609 362.085 632.657C363.133 632.657 363.133 633.705 364.181 633.705C365.229 634.753 366.277 634.753 367.325 635.801L368.373 636.849C369.421 637.897 370.469 637.897 371.517 638.945C371.517 638.945 372.564 638.945 372.564 639.993C373.612 641.041 374.661 641.041 375.708 642.089C375.708 642.089 375.708 642.089 376.756 642.089C377.804 642.089 378.852 643.137 378.852 643.137C379.9 644.185 380.948 644.185 380.948 644.185L378.852 659.904L406.1 668.288L409.244 669.336C409.244 669.336 409.244 670.384 410.292 670.384H411.34C413.436 670.384 416.58 669.336 417.628 667.24C423.916 663.048 429.156 657.808 434.396 652.569C445.923 642.089 457.451 632.657 468.979 622.177C474.219 617.985 479.459 612.745 484.699 608.553C488.891 604.361 493.083 601.217 495.179 595.977C498.323 588.641 500.419 584.45 507.755 580.258C514.043 577.114 521.378 575.018 528.714 575.018C529.762 575.018 530.81 573.97 531.858 572.922C536.05 561.394 537.098 548.818 546.53 539.386C550.722 535.194 557.01 533.098 563.298 531.002C568.538 528.906 574.826 526.81 580.066 524.714C589.498 519.474 592.642 513.187 594.737 503.755C597.881 493.275 607.313 483.843 611.505 473.363C615.697 466.027 619.889 457.643 620.937 450.307C620.937 448.211 621.985 446.115 621.985 442.971C623.033 438.78 623.033 434.588 624.081 430.396C625.129 422.012 627.225 412.58 628.273 404.196C631.417 395.812 632.465 391.62 629.321 386.38ZM432.3 193.551C431.252 193.551 431.252 193.551 432.3 193.551C431.252 192.503 431.252 192.503 431.252 191.455C429.156 187.263 427.06 184.119 426.012 178.879C426.012 177.831 426.012 177.831 426.012 176.783C426.012 175.735 426.012 174.687 426.012 174.687C426.012 173.639 426.012 173.639 426.012 172.591V173.639C426.012 173.639 426.012 173.639 427.06 173.639V174.687C427.06 174.687 427.06 173.639 428.108 173.639L429.156 172.591C429.156 172.591 430.204 172.591 430.204 171.543L431.252 170.495C431.252 170.495 430.204 171.543 430.204 172.591C429.156 173.639 429.156 173.639 428.108 173.639C427.06 174.687 427.06 176.783 427.06 178.879C428.108 177.831 429.156 176.783 429.156 176.783C428.108 177.831 428.108 178.879 427.06 179.927V180.975C427.06 182.023 428.108 183.071 428.108 184.119C428.108 182.023 429.156 180.975 430.204 178.879C431.252 176.783 431.252 174.687 433.348 173.639C431.252 175.735 430.204 178.879 430.204 182.023C431.252 180.975 431.252 180.975 432.3 180.975C431.252 182.023 431.252 183.071 430.204 184.119C430.204 185.167 430.204 185.167 430.204 186.215C431.252 185.167 431.252 185.167 432.3 184.119C431.252 185.167 431.252 186.215 430.204 186.215C430.204 186.215 430.204 186.215 430.204 187.263V188.311V189.359C430.204 188.311 431.252 187.263 432.3 187.263C431.252 188.311 431.252 189.359 430.204 190.407C433.348 192.503 433.348 192.503 432.3 193.551C433.348 193.551 433.348 194.599 433.348 194.599C432.3 194.599 432.3 193.551 432.3 193.551ZM404.004 161.063C404.004 162.111 404.004 162.111 404.004 161.063C404.004 162.111 402.956 162.111 404.004 161.063ZM457.451 160.015C456.403 158.967 455.355 157.919 455.355 156.871C456.403 157.919 456.403 157.919 457.451 158.967C457.451 158.967 458.499 158.967 457.451 160.015C458.499 158.967 458.499 158.967 457.451 160.015ZM439.636 162.111C440.684 162.111 440.684 162.111 439.636 162.111V162.111ZM426.012 170.495C426.012 171.543 426.012 171.543 426.012 170.495V170.495ZM442.78 165.255C442.78 164.207 442.78 164.207 442.78 165.255V165.255ZM445.923 172.591C445.923 173.639 445.923 173.639 445.923 174.687C445.923 174.687 445.923 173.639 445.923 172.591C444.876 173.639 444.876 172.591 445.923 172.591ZM479.459 147.44C479.459 148.488 479.459 148.488 479.459 148.488C478.411 147.44 479.459 147.44 479.459 147.44ZM525.57 153.727V152.679C526.618 153.727 526.618 153.727 525.57 153.727C526.618 154.775 526.618 154.775 525.57 153.727ZM467.931 160.015C466.883 160.015 466.883 160.015 467.931 160.015C467.931 158.967 466.883 158.967 467.931 160.015ZM460.595 149.536C460.595 148.488 460.595 148.488 460.595 149.536V149.536ZM468.979 161.063L470.027 160.015C470.027 161.063 470.027 161.063 468.979 162.111C468.979 162.111 468.979 162.111 468.979 161.063ZM468.979 154.775C468.979 153.727 468.979 153.727 468.979 154.775C468.979 153.727 468.979 152.679 470.027 152.679C470.027 152.679 470.027 153.727 468.979 154.775ZM462.691 150.584C463.739 149.536 463.739 150.584 462.691 150.584C462.691 149.536 462.691 149.536 461.643 148.488C462.691 148.488 463.739 148.488 462.691 150.584C463.739 149.536 463.739 150.584 464.787 150.584C464.787 149.536 463.739 150.584 462.691 150.584ZM465.835 149.536C465.835 148.488 465.835 148.488 465.835 149.536C465.835 148.488 466.883 148.488 467.931 148.488C466.883 148.488 466.883 148.488 465.835 149.536ZM470.027 163.159C470.027 162.111 471.075 161.063 471.075 161.063C471.075 162.111 470.027 163.159 470.027 163.159ZM533.954 130.672C532.906 129.624 532.906 130.672 533.954 130.672V130.672ZM465.835 148.488C464.787 148.488 464.787 148.488 465.835 148.488C464.787 148.488 464.787 148.488 463.739 148.488C463.739 148.488 462.691 148.488 462.691 147.44C462.691 147.44 463.739 147.44 463.739 146.392C464.787 145.344 466.883 144.296 467.931 143.248C468.979 145.344 466.883 146.392 465.835 148.488ZM406.1 140.104C406.1 139.056 406.1 139.056 406.1 140.104C407.148 139.056 406.1 139.056 406.1 140.104C407.148 139.056 407.148 139.056 406.1 140.104C406.1 139.056 407.148 139.056 406.1 140.104ZM407.148 156.871V157.919C407.148 157.919 407.148 157.919 406.1 157.919C406.1 157.919 406.1 157.919 407.148 156.871ZM546.53 248.046H545.482C545.482 246.998 546.53 248.046 546.53 248.046ZM532.906 231.278C530.81 232.326 529.762 233.374 527.666 233.374L524.522 231.278C525.57 230.23 526.618 230.23 526.618 229.182C527.666 228.134 528.714 227.086 528.714 226.038C531.858 227.086 535.002 226.038 538.146 226.038C536.05 229.182 533.954 230.23 532.906 231.278ZM530.81 223.943C531.858 222.895 531.858 222.895 530.81 223.943C531.858 223.943 532.906 224.99 533.954 224.99C535.002 224.99 535.002 226.038 536.05 226.038C535.002 226.038 532.906 226.038 531.858 226.038C530.81 226.038 529.762 226.038 528.714 226.038C529.762 226.038 530.81 224.991 530.81 223.943ZM516.139 223.943C519.283 224.991 521.378 221.847 522.426 219.751C522.426 219.751 523.474 219.751 524.522 218.703H525.57H526.618V217.655C526.618 217.655 525.57 217.655 524.522 217.655C525.57 216.607 525.57 216.607 525.57 215.559H524.522C523.474 215.559 523.474 215.559 523.474 216.607C523.474 215.559 523.474 215.559 523.474 214.511C523.474 215.559 522.426 215.559 522.426 216.607C522.426 216.607 522.426 216.607 522.426 217.655H521.379C520.331 217.655 520.331 219.751 521.379 219.751C520.331 220.799 519.283 220.799 517.187 221.847V220.799C517.187 218.703 517.187 216.607 517.187 214.511C519.283 213.463 521.378 212.415 523.474 211.367H524.522C525.57 211.367 526.618 211.367 527.666 211.367C527.666 212.415 527.666 212.415 526.618 213.463C526.618 213.463 526.618 213.463 526.618 214.511V215.559C527.666 217.655 529.762 219.751 530.81 220.799C530.81 220.799 530.81 221.847 529.762 221.847C528.714 223.943 526.618 226.038 524.522 228.134C524.522 229.182 523.474 229.182 522.426 230.23L520.331 228.134C520.331 227.086 520.331 226.038 520.331 224.99C520.331 226.038 519.282 226.038 519.282 227.086L515.091 223.943C515.091 224.991 515.091 224.991 516.139 223.943ZM464.787 205.079C464.787 206.127 463.739 206.127 464.787 205.079C464.787 206.127 464.787 206.127 464.787 206.127C463.739 206.127 463.739 205.079 464.787 205.079C463.739 206.127 462.691 207.175 461.643 209.271C461.643 207.175 461.643 205.079 460.595 204.031C460.595 208.223 458.499 212.415 457.451 216.607V217.655H443.828C443.828 214.511 443.828 211.367 443.828 209.271C442.78 210.319 442.78 211.367 441.732 213.463C441.732 212.415 441.732 210.319 440.684 209.271C440.684 209.271 440.684 210.319 439.636 210.319C439.636 210.319 439.636 210.319 439.636 209.271C439.636 208.223 438.588 205.079 437.54 201.935C436.492 198.791 434.396 195.647 433.348 193.551C434.396 193.551 435.444 192.503 435.444 191.455C435.444 191.455 435.444 191.455 436.492 191.455C437.54 190.407 438.588 189.359 438.588 188.311C438.588 187.263 438.588 187.263 438.588 186.215V185.167C438.588 186.215 438.588 186.215 438.588 187.263C439.636 186.215 439.636 185.167 440.684 184.119C441.732 182.023 440.684 179.927 441.732 177.831C441.732 178.879 442.78 179.927 442.78 180.975C442.78 180.975 442.78 180.975 442.78 179.927C442.78 178.879 443.828 177.831 443.828 175.735C443.828 175.735 443.828 175.735 443.828 174.687C443.828 175.735 444.876 177.831 444.876 178.879C444.876 179.927 444.876 182.023 444.876 183.071C445.923 183.071 445.923 182.023 445.923 180.975C445.923 179.927 446.972 178.879 446.972 177.831C446.972 176.783 445.923 175.735 445.923 173.639C445.923 174.687 446.972 174.687 446.972 175.735C446.972 174.687 446.972 174.687 446.972 173.639C448.02 174.687 448.02 175.735 449.067 176.783C449.067 174.687 449.067 172.591 449.067 169.447V167.351C450.115 169.447 451.163 171.543 452.211 172.591C452.211 171.543 452.211 170.495 452.211 170.495C452.211 171.543 452.211 173.639 453.259 174.687C454.307 175.735 455.355 176.783 456.403 177.831C456.403 176.783 456.403 174.687 456.403 173.639C455.355 171.543 455.355 170.495 453.259 168.399C454.307 168.399 454.307 169.447 455.355 170.495V169.447V168.399C454.307 167.351 453.259 166.303 452.211 165.255C453.259 165.255 453.259 166.303 454.307 166.303V165.255C453.259 164.207 452.211 163.159 453.259 161.063C454.307 162.111 455.355 163.159 456.403 164.207C457.451 165.255 459.547 166.303 459.547 168.399V167.351C458.499 165.255 457.451 164.207 456.403 162.111C457.451 163.159 458.499 164.207 459.547 165.255C459.547 164.207 458.499 163.159 458.499 162.111C457.451 161.063 455.355 160.015 454.307 158.967C455.355 158.967 456.403 158.967 456.403 160.015C456.403 160.015 456.403 158.967 455.355 158.967C454.307 158.967 454.307 157.919 453.259 157.919V156.871C453.259 156.871 453.259 156.871 452.211 155.823C452.211 154.775 451.163 154.775 451.163 153.727C451.163 153.727 451.163 153.727 452.211 153.727C453.259 154.775 454.307 155.823 455.355 156.871C455.355 155.823 455.355 155.823 455.355 154.775C455.355 155.823 456.403 155.823 456.403 156.871L457.451 157.919C457.451 156.871 456.403 155.823 456.403 155.823C457.451 156.871 457.451 157.919 457.451 158.967C457.451 158.967 457.451 158.967 457.451 160.015L458.499 161.063V160.015C458.499 161.063 459.547 161.063 459.547 162.111C460.595 163.159 461.643 163.159 462.691 163.159L461.643 161.063L462.691 160.015V161.063L463.739 162.111C463.739 161.063 463.739 160.015 463.739 160.015C464.787 161.063 464.787 162.111 464.787 163.159C465.835 164.207 466.883 164.207 467.931 165.255C467.931 165.255 467.931 164.207 466.883 163.159C466.883 162.111 465.835 161.063 463.739 158.967C464.787 160.015 465.835 160.015 465.835 161.063L466.883 162.111C466.883 162.111 466.883 162.111 466.883 163.159C466.883 163.159 466.883 163.159 467.931 163.159C467.931 164.207 468.979 164.207 468.979 165.255C468.979 165.255 468.979 166.303 470.027 166.303C470.027 166.303 470.027 166.303 470.027 167.351C470.027 168.399 470.027 170.495 470.027 171.543C470.027 172.591 470.027 173.639 471.075 174.687C471.075 172.591 472.123 170.495 472.123 169.447C472.123 167.351 474.219 166.303 475.267 164.207C475.267 164.207 475.267 164.207 475.267 165.255C475.267 167.351 475.267 168.399 474.219 170.495V171.543C475.267 170.495 475.267 169.447 476.315 168.399C475.267 171.543 474.219 173.639 474.219 176.783C474.219 178.879 474.219 179.927 475.267 182.023C475.267 180.975 476.315 180.975 476.315 179.927C476.315 180.975 476.315 180.975 476.315 182.023C476.315 183.071 476.315 184.119 476.315 184.119C476.315 185.167 477.363 187.263 478.411 188.311V189.359C479.459 190.407 479.459 191.455 480.507 192.503C478.411 194.599 474.219 197.743 472.123 200.887C466.883 200.887 464.787 202.983 464.787 205.079ZM484.699 184.119L483.651 185.167C482.603 185.167 481.555 187.263 479.459 188.311C479.459 188.311 479.459 187.263 480.507 185.167C480.507 185.167 480.507 185.167 480.507 184.119C480.507 183.071 480.507 180.975 479.459 179.927C480.507 180.975 480.507 182.023 480.507 183.071C480.507 182.023 481.555 180.975 481.555 180.975C481.555 179.927 482.603 179.927 482.603 178.879V177.831C482.603 176.783 481.555 175.735 481.555 173.639C482.603 174.687 483.651 175.735 483.651 176.783C483.651 175.735 484.699 175.735 484.699 174.687C483.651 173.639 483.651 171.543 483.651 169.447C484.699 169.447 485.747 170.495 485.747 171.543C486.795 167.351 486.795 163.159 485.747 158.967C487.843 161.063 487.843 164.207 487.843 166.303C487.843 168.399 489.939 170.495 488.891 172.591C489.939 171.543 490.987 170.495 492.035 169.447V168.399C492.035 166.303 492.035 165.255 490.987 164.207C492.035 165.255 493.083 166.303 493.083 168.399C494.131 166.303 494.131 163.159 493.083 162.111C493.083 161.063 492.035 161.063 490.987 160.015V157.919L492.035 158.967L493.083 160.015L494.131 161.063C494.131 162.111 494.131 162.111 494.131 163.159V162.111C494.131 162.111 494.131 163.159 495.179 163.159C495.179 163.159 495.179 163.159 495.179 162.111C495.179 163.159 495.179 164.207 495.179 164.207C495.179 165.255 495.179 166.303 494.131 167.351C494.131 168.399 493.083 169.447 493.083 169.447C492.035 177.831 488.891 180.975 484.699 184.119ZM464.787 143.248C463.739 144.296 462.691 145.344 461.643 145.344H460.595C461.643 145.344 462.691 144.296 464.787 143.248ZM205.935 255.382C205.935 256.43 205.935 256.43 205.935 255.382C204.887 256.43 203.839 256.43 202.791 255.382C203.839 255.382 203.839 255.382 203.839 255.382C203.839 255.382 202.791 255.382 202.791 254.334C203.839 254.334 203.839 253.286 203.839 253.286L205.935 255.382ZM200.695 255.382C200.695 256.43 200.695 256.43 200.695 255.382H199.647C200.695 256.43 200.695 256.43 200.695 255.382ZM169.255 282.63L167.159 283.678C168.207 283.678 168.207 282.63 169.255 282.63Z" fill="#1B0D3A"/>
</g>
<defs>
<filter id="filter0_d_99_656" x="0" y="0" width="751.219" height="794.384" filterUnits="userSpaceOnUse" color-interpolation-filters="sRGB">
<feFlood flood-opacity="0" result="BackgroundImageFix"/>
<feColorMatrix in="SourceAlpha" type="matrix" values="0 0 0 0 0 0 0 0 0 0 0 0 0 0 0 0 0 0 127 0" result="hardAlpha"/>
<feOffset dy="4"/>
<feGaussianBlur stdDeviation="60"/>
<feComposite in2="hardAlpha" operator="out"/>
<feColorMatrix type="matrix" values="0 0 0 0 0.403922 0 0 0 0 0.0784314 0 0 0 0 0.866667 0 0 0 0.7 0"/>
<feBlend mode="normal" in2="BackgroundImageFix" result="effect1_dropShadow_99_656"/>
<feBlend mode="normal" in="SourceGraphic" in2="effect1_dropShadow_99_656" result="shape"/>
</filter>
</defs>
</svg>
