<svg width="20" height="20" viewBox="0 0 20 20" fill="none" xmlns="http://www.w3.org/2000/svg">
<path d="M16.6667 2.5V13.5C16.6667 14.9001 16.6667 15.6002 16.3942 16.135C16.1545 16.6054 15.772 16.9878 15.3016 17.2275C14.7669 17.5 14.0668 17.5 12.6667 17.5H7.33333C5.9332 17.5 5.23314 17.5 4.69836 17.2275C4.22795 16.9878 3.8455 16.6054 3.60582 16.135C3.33333 15.6002 3.33333 14.9001 3.33333 13.5V2.5M17.5 2.5H2.5M11.6667 8.33333V9.16667H8.33333V5.83333H11.6667M11.6667 17.5V14.1667C11.6667 13.2462 10.9205 12.5 10 12.5C9.07953 12.5 8.33333 13.2462 8.33333 14.1667V17.5H11.6667Z" stroke="white" stroke-linecap="round" stroke-linejoin="round"/>
</svg>
