<svg width="122" height="106" viewBox="0 0 122 106" fill="none" xmlns="http://www.w3.org/2000/svg">
<circle cx="60.8625" cy="52.0335" r="40.3361" fill="#F11CDC"/>
<g clip-path="url(#clip0_46_78455)" filter="url(#filter0_ddif_46_78455)">
<path d="M38 56.097C38.1144 55.0858 38.2289 53.9622 38.4577 52.951C39.1443 49.0184 40.5174 45.3105 42.806 42.0521C44.2935 39.9173 46.2388 38.4566 48.9851 38.0072C51.0448 37.6701 52.99 38.1195 54.9353 38.906C55.7363 39.2431 56.5373 39.6925 57.3383 40.2543C58.1393 40.8161 59.0547 41.1532 60.0846 41.0409C60.6567 41.0409 61.3433 41.0409 61.9154 41.0409C62.9453 41.0409 63.9751 40.7038 64.7761 40.142C66.3781 39.1307 68.0945 38.3442 69.9254 38.1195C73.2438 37.5577 75.8756 38.569 78.1642 40.9285C80.3383 43.2881 81.597 46.097 82.6269 49.1307C83.7711 52.6139 84.1144 56.3218 84 59.9173C83.8856 61.3779 83.7711 62.951 83.4279 64.4116C83.199 65.0858 82.9701 65.76 82.5124 66.4341C81.4826 67.8948 79.5373 68.3442 77.9353 67.4454C76.791 66.8836 75.8756 66.097 74.9602 65.1982C73.4726 63.8498 72.0995 62.3892 70.8408 60.9285C70.1542 60.142 69.3532 59.8049 68.3234 59.8049C63.5174 59.8049 58.8259 59.8049 54.0199 59.8049C52.99 59.8049 52.0746 60.2543 51.3881 61.0409C49.6716 63.0633 47.8408 64.9734 45.7811 66.5465C45.3234 66.8836 44.8657 67.2206 44.408 67.4454C42.5771 68.3442 40.403 67.7824 39.3731 65.9847C38.801 64.9734 38.5721 63.7375 38.4577 62.6139C38.3433 61.9397 38.3433 61.2656 38.2289 60.5914C38 59.0184 38 57.5577 38 56.097ZM47.7264 48.1195C47.2687 48.1195 46.9254 48.1195 46.4677 48.1195C46.1244 48.1195 46.0099 48.2319 45.8955 48.4566C45.6667 49.2431 45.6667 49.9173 45.8955 50.7038C46.0099 51.0409 46.2388 51.1532 46.5821 51.1532C47.2687 51.1532 47.9552 51.1532 48.6418 51.1532C49.0995 51.1532 49.2139 51.2656 49.2139 51.715C49.2139 52.3892 49.2139 53.0633 49.2139 53.7375C49.2139 54.0746 49.3284 54.1869 49.5572 54.4116C50.3582 54.7487 51.1592 54.7487 51.8458 54.4116C52.0746 54.2993 52.1891 54.1869 52.1891 53.8498C52.1891 53.1757 52.1891 52.3892 52.1891 51.715C52.1891 51.2656 52.3035 51.1532 52.7612 51.1532C53.5622 51.1532 54.2488 51.1532 55.0497 51.1532C55.2786 51.1532 55.5075 51.1532 55.6219 50.9285C55.9652 50.142 56.0796 49.3555 55.7363 48.569C55.6219 48.2319 55.393 48.1195 55.0497 48.1195C54.3632 48.1195 53.6766 48.1195 52.99 48.1195C52.5323 48.1195 52.4179 48.0072 52.4179 47.5577C52.4179 46.8836 52.4179 46.097 52.4179 45.4229C52.4179 45.0858 52.3035 44.9734 51.9602 44.8611C51.2736 44.6364 50.4726 44.6364 49.7861 44.8611C49.4428 44.8611 49.3284 45.0858 49.3284 45.4229C49.3284 46.2094 49.3284 46.8836 49.3284 47.6701C49.3284 48.0072 49.2139 48.2319 48.8706 48.1195C48.4129 48.1195 48.0697 48.1195 47.7264 48.1195ZM69.8109 54.524C71.1841 54.524 72.3284 53.5128 72.3284 52.1645C72.3284 50.9285 71.1841 49.8049 69.9254 49.8049C68.5522 49.8049 67.408 50.9285 67.408 52.1645C67.408 53.4004 68.5522 54.524 69.8109 54.524ZM69.9254 43.0633C68.5522 43.0633 67.5224 44.0746 67.5224 45.4229C67.5224 46.7712 68.6667 47.7824 69.9254 47.7824C71.2985 47.7824 72.3284 46.6588 72.3284 45.3105C72.3284 44.0746 71.1841 43.0633 69.9254 43.0633ZM76.1045 46.6588C74.7313 46.6588 73.7015 47.6701 73.7015 49.0184C73.7015 50.3667 74.8458 51.4903 76.1045 51.4903C77.4776 51.4903 78.5075 50.3667 78.5075 49.1307C78.5075 47.6701 77.4776 46.6588 76.1045 46.6588Z" fill="white"/>
</g>
<defs>
<filter id="filter0_ddif_46_78455" x="0.613255" y="0.508152" width="120.773" height="104.773" filterUnits="userSpaceOnUse" color-interpolation-filters="sRGB">
<feFlood flood-opacity="0" result="BackgroundImageFix"/>
<feColorMatrix in="SourceAlpha" type="matrix" values="0 0 0 0 0 0 0 0 0 0 0 0 0 0 0 0 0 0 127 0" result="hardAlpha"/>
<feOffset/>
<feGaussianBlur stdDeviation="7.87089"/>
<feColorMatrix type="matrix" values="0 0 0 0 0.945098 0 0 0 0 0.109804 0 0 0 0 0.858824 0 0 0 0.48 0"/>
<feBlend mode="normal" in2="BackgroundImageFix" result="effect1_dropShadow_46_78455"/>
<feColorMatrix in="SourceAlpha" type="matrix" values="0 0 0 0 0 0 0 0 0 0 0 0 0 0 0 0 0 0 127 0" result="hardAlpha"/>
<feOffset/>
<feGaussianBlur stdDeviation="18.6934"/>
<feColorMatrix type="matrix" values="0 0 0 0 0.945098 0 0 0 0 0.109804 0 0 0 0 0.862745 0 0 0 0.52 0"/>
<feBlend mode="normal" in2="effect1_dropShadow_46_78455" result="effect2_dropShadow_46_78455"/>
<feBlend mode="normal" in="SourceGraphic" in2="effect2_dropShadow_46_78455" result="shape"/>
<feColorMatrix in="SourceAlpha" type="matrix" values="0 0 0 0 0 0 0 0 0 0 0 0 0 0 0 0 0 0 127 0" result="hardAlpha"/>
<feOffset/>
<feGaussianBlur stdDeviation="7.87089"/>
<feComposite in2="hardAlpha" operator="arithmetic" k2="-1" k3="1"/>
<feColorMatrix type="matrix" values="0 0 0 0 0.945098 0 0 0 0 0.109804 0 0 0 0 0.862745 0 0 0 0.48 0"/>
<feBlend mode="normal" in2="shape" result="effect3_innerShadow_46_78455"/>
<feGaussianBlur stdDeviation="0.491931" result="effect4_foregroundBlur_46_78455"/>
</filter>
<clipPath id="clip0_46_78455">
<rect width="46" height="30" fill="white" transform="translate(38 37.8949)"/>
</clipPath>
</defs>
</svg>
