<svg width="48" height="48" viewBox="0 0 48 48" fill="none" xmlns="http://www.w3.org/2000/svg">
<path d="M0 8C0 3.58172 3.58172 0 8 0H40C44.4183 0 48 3.58172 48 8V40C48 44.4183 44.4183 48 40 48H8C3.58172 48 0 44.4183 0 40V8Z" fill="url(#paint0_linear_424_8195)"/>
<path d="M20.6641 12C23.9778 12 26.6641 17.3726 26.6641 24M20.6641 12C17.3504 12 14.6641 17.3726 14.6641 24C14.6641 30.6274 17.3504 36 20.6641 36M20.6641 12L27.9974 12C30.9429 12 33.3307 17.3726 33.3307 24M26.6641 24C26.6641 30.6274 23.9778 36 20.6641 36M26.6641 24L33.3307 24M20.6641 36L27.9974 36C30.9429 36 33.3307 30.6274 33.3307 24M32.4326 30.6667L25.6537 30.6667M32.4326 17.3333L25.6537 17.3333" stroke="white" stroke-width="2" stroke-linecap="round" stroke-linejoin="round"/>
<defs>
<linearGradient id="paint0_linear_424_8195" x1="1.28342e-06" y1="44.5714" x2="48" y2="-1.34526e-06" gradientUnits="userSpaceOnUse">
<stop stop-color="#9610FF"/>
<stop offset="1" stop-color="#B14DFF" stop-opacity="0"/>
</linearGradient>
</defs>
</svg>
