<svg width="48" height="48" viewBox="0 0 48 48" fill="none" xmlns="http://www.w3.org/2000/svg">
<path d="M0 8C0 3.58172 3.58172 0 8 0H40C44.4183 0 48 3.58172 48 8V40C48 44.4183 44.4183 48 40 48H8C3.58172 48 0 44.4183 0 40V8Z" fill="url(#paint0_linear_407_8464)"/>
<path d="M16.1201 35.7094L16.5741 34.8183L16.1201 35.7094ZM14.9547 34.544L15.8457 34.09L14.9547 34.544ZM33.0401 34.544L32.1491 34.09L33.0401 34.544ZM31.8747 35.7094L31.4207 34.8183L31.8747 35.7094ZM31.8747 12.2906L31.4207 13.1817L31.8747 12.2906ZM33.0401 13.456L32.1491 13.91L33.0401 13.456ZM16.1201 12.2906L16.5741 13.1817L16.1201 12.2906ZM14.9547 13.456L15.8457 13.91L14.9547 13.456ZM25.6641 22.6667C25.6641 23.5871 24.9179 24.3333 23.9974 24.3333V26.3333C26.0224 26.3333 27.6641 24.6917 27.6641 22.6667H25.6641ZM23.9974 24.3333C23.0769 24.3333 22.3307 23.5871 22.3307 22.6667H20.3307C20.3307 24.6917 21.9724 26.3333 23.9974 26.3333V24.3333ZM22.3307 22.6667C22.3307 21.7462 23.0769 21 23.9974 21V19C21.9724 19 20.3307 20.6416 20.3307 22.6667H22.3307ZM23.9974 21C24.9179 21 25.6641 21.7462 25.6641 22.6667H27.6641C27.6641 20.6416 26.0224 19 23.9974 19V21ZM18.9307 13H29.0641V11H18.9307V13ZM32.3307 16.2667V31.7333H34.3307V16.2667H32.3307ZM29.0641 35H18.9307V37H29.0641V35ZM15.6641 31.7333V16.2667H13.6641V31.7333H15.6641ZM18.9307 35C18.1675 35 17.6552 34.9992 17.2607 34.967C16.8779 34.9357 16.6948 34.8799 16.5741 34.8183L15.6661 36.6004C16.1158 36.8295 16.5913 36.919 17.0978 36.9603C17.5927 37.0008 18.2005 37 18.9307 37V35ZM13.6641 31.7333C13.6641 32.4636 13.6633 33.0714 13.7037 33.5662C13.7451 34.0727 13.8346 34.5483 14.0637 34.998L15.8457 34.09C15.7842 33.9692 15.7284 33.7862 15.6971 33.4034C15.6648 33.0089 15.6641 32.4966 15.6641 31.7333H13.6641ZM16.5741 34.8183C16.2605 34.6586 16.0055 34.4036 15.8457 34.09L14.0637 34.998C14.4152 35.6879 14.9762 36.2488 15.6661 36.6004L16.5741 34.8183ZM32.3307 31.7333C32.3307 32.4966 32.33 33.0089 32.2977 33.4034C32.2664 33.7862 32.2106 33.9692 32.1491 34.09L33.9311 34.998C34.1602 34.5483 34.2497 34.0727 34.2911 33.5662C34.3315 33.0714 34.3307 32.4636 34.3307 31.7333H32.3307ZM29.0641 37C29.7943 37 30.4021 37.0008 30.897 36.9603C31.4035 36.919 31.879 36.8295 32.3287 36.6004L31.4207 34.8183C31.3 34.8799 31.1169 34.9357 30.7341 34.967C30.3396 34.9992 29.8273 35 29.0641 35V37ZM32.1491 34.09C31.9893 34.4036 31.7343 34.6586 31.4207 34.8183L32.3287 36.6004C33.0186 36.2488 33.5795 35.6879 33.9311 34.998L32.1491 34.09ZM29.0641 13C29.8273 13 30.3396 13.0008 30.7341 13.033C31.1169 13.0643 31.3 13.1201 31.4207 13.1817L32.3287 11.3996C31.879 11.1705 31.4035 11.081 30.897 11.0397C30.4021 10.9992 29.7943 11 29.0641 11V13ZM34.3307 16.2667C34.3307 15.5364 34.3315 14.9286 34.2911 14.4338C34.2497 13.9273 34.1602 13.4517 33.9311 13.002L32.1491 13.91C32.2106 14.0308 32.2664 14.2138 32.2977 14.5966C32.33 14.9911 32.3307 15.5034 32.3307 16.2667H34.3307ZM31.4207 13.1817C31.7343 13.3414 31.9893 13.5964 32.1491 13.91L33.9311 13.002C33.5795 12.3121 33.0186 11.7512 32.3287 11.3996L31.4207 13.1817ZM18.9307 11C18.2005 11 17.5927 10.9992 17.0978 11.0397C16.5913 11.081 16.1158 11.1705 15.6661 11.3996L16.5741 13.1817C16.6948 13.1201 16.8779 13.0643 17.2607 13.033C17.6552 13.0008 18.1675 13 18.9307 13V11ZM15.6641 16.2667C15.6641 15.5034 15.6648 14.9911 15.6971 14.5966C15.7284 14.2138 15.7842 14.0308 15.8457 13.91L14.0637 13.002C13.8346 13.4517 13.7451 13.9273 13.7037 14.4338C13.6633 14.9286 13.6641 15.5364 13.6641 16.2667H15.6641ZM15.6661 11.3996C14.9762 11.7512 14.4152 12.3121 14.0637 13.002L15.8457 13.91C16.0055 13.5964 16.2605 13.3414 16.5741 13.1817L15.6661 11.3996ZM18.3307 36C18.3307 32.8704 20.8678 30.3333 23.9974 30.3333V28.3333C19.7632 28.3333 16.3307 31.7658 16.3307 36H18.3307ZM23.9974 30.3333C27.127 30.3333 29.6641 32.8704 29.6641 36H31.6641C31.6641 31.7658 28.2316 28.3333 23.9974 28.3333V30.3333Z" fill="white"/>
<defs>
<linearGradient id="paint0_linear_407_8464" x1="1.28342e-06" y1="44.5714" x2="48" y2="-1.34526e-06" gradientUnits="userSpaceOnUse">
<stop stop-color="#9610FF"/>
<stop offset="1" stop-color="#B14DFF" stop-opacity="0"/>
</linearGradient>
</defs>
</svg>
