<svg width="32" height="32" viewBox="0 0 32 32" fill="none" xmlns="http://www.w3.org/2000/svg">
<path d="M30.5513 16.1021C30.5513 24.082 24.0823 30.551 16.1023 30.551C8.12235 30.551 1.65332 24.082 1.65332 16.1021C1.65332 8.1221 8.12235 1.65308 16.1023 1.65308C24.0823 1.65308 30.5513 8.1221 30.5513 16.1021Z" stroke="white" stroke-width="2" stroke-linecap="round" stroke-linejoin="round"/>
<path d="M20.9211 15.0334C21.4571 15.3907 21.725 15.5694 21.8184 15.7946C21.9001 15.9914 21.9001 16.2127 21.8184 16.4096C21.725 16.6347 21.4571 16.8134 20.9211 17.1707L14.8882 21.1926C14.2396 21.6251 13.9152 21.8413 13.6463 21.8252C13.412 21.8112 13.1956 21.6954 13.054 21.5082C12.8914 21.2933 12.8914 20.9036 12.8914 20.124V12.0801C12.8914 11.3006 12.8914 10.9108 13.054 10.6959C13.1956 10.5087 13.412 10.3929 13.6463 10.3789C13.9152 10.3628 14.2396 10.579 14.8882 11.0115L20.9211 15.0334Z" stroke="white" stroke-width="2" stroke-linecap="round" stroke-linejoin="round"/>
</svg>
