<svg width="42" height="42" viewBox="0 0 42 42" fill="none" xmlns="http://www.w3.org/2000/svg">
<circle cx="21" cy="21" r="21" fill="#3B2972"/>
<path d="M22.1667 23.3341L15.1667 23.3332M22.1667 23.3341L19.25 20.4165M22.1667 23.3341L19.25 26.2498M31.5 20.9998V20.0665C31.5 18.7597 31.5 18.1063 31.2457 17.6072C31.022 17.1681 30.665 16.8112 30.226 16.5875C29.7269 16.3332 29.0735 16.3332 27.7667 16.3332H10.5M31.5 20.9998V25.6665M31.5 20.9998H29.1667C27.878 20.9998 26.8333 22.0445 26.8333 23.3332C26.8333 24.6218 27.878 25.6665 29.1667 25.6665H31.5M31.5 25.6665V26.5998C31.5 27.9066 31.5 28.56 31.2457 29.0592C31.022 29.4982 30.665 29.8552 30.226 30.0789C29.7269 30.3332 29.0735 30.3332 27.7667 30.3332H14.2333C12.9265 30.3332 12.2731 30.3332 11.774 30.0789C11.335 29.8552 10.978 29.4982 10.7543 29.0592C10.5 28.56 10.5 27.9066 10.5 26.5998V16.3332M28 16.3332V15.3998C28 14.093 28 13.4397 27.7457 12.9405C27.522 12.5015 27.165 12.1445 26.726 11.9208C26.2269 11.6665 25.5735 11.6665 24.2667 11.6665H14.2333C12.9265 11.6665 12.2731 11.6665 11.774 11.9208C11.335 12.1445 10.978 12.5015 10.7543 12.9405C10.5 13.4397 10.5 14.093 10.5 15.3998V16.3332" stroke="#8C56FF" stroke-width="2" stroke-linecap="round" stroke-linejoin="round"/>
</svg>
