<svg width="48" height="48" viewBox="0 0 48 48" fill="none" xmlns="http://www.w3.org/2000/svg">
<path d="M0 8C0 3.58172 3.58172 0 8 0H40C44.4183 0 48 3.58172 48 8V40C48 44.4183 44.4183 48 40 48H8C3.58172 48 0 44.4183 0 40V8Z" fill="url(#paint0_linear_407_8465)"/>
<path d="M24 17.3333V34.6667M24 17.3333H19.2857C18.5911 17.3333 17.9249 17.0524 17.4338 16.5523C16.9426 16.0522 16.6667 15.3739 16.6667 14.6667C16.6667 13.9594 16.9426 13.2811 17.4338 12.781C17.9249 12.281 18.5911 12 19.2857 12C22.9524 12 24 17.3333 24 17.3333ZM24 17.3333H28.7143C29.4089 17.3333 30.0751 17.0524 30.5662 16.5523C31.0574 16.0522 31.3333 15.3739 31.3333 14.6667C31.3333 13.9594 31.0574 13.2811 30.5662 12.781C30.0751 12.281 29.4089 12 28.7143 12C25.0476 12 24 17.3333 24 17.3333ZM14.6667 24H33.3333V31.7333C33.3333 33.2268 33.3333 33.9735 33.0427 34.544C32.787 35.0457 32.3791 35.4537 31.8773 35.7094C31.3069 36 30.5601 36 29.0667 36H18.9333C17.4399 36 16.6931 36 16.1227 35.7094C15.6209 35.4537 15.213 35.0457 14.9573 34.544C14.6667 33.9735 14.6667 33.2268 14.6667 31.7333V24ZM14.1333 24H33.8667C34.6134 24 34.9868 24 35.272 23.8547C35.5229 23.7268 35.7268 23.5229 35.8547 23.272C36 22.9868 36 22.6134 36 21.8667V19.4667C36 18.7199 36 18.3466 35.8547 18.0613C35.7268 17.8105 35.5229 17.6065 35.272 17.4787C34.9868 17.3333 34.6134 17.3333 33.8667 17.3333H14.1333C13.3866 17.3333 13.0132 17.3333 12.728 17.4787C12.4771 17.6065 12.2732 17.8105 12.1453 18.0613C12 18.3466 12 18.7199 12 19.4667V21.8667C12 22.6134 12 22.9868 12.1453 23.272C12.2732 23.5229 12.4771 23.7268 12.728 23.8547C13.0132 24 13.3866 24 14.1333 24Z" stroke="white" stroke-width="2" stroke-linecap="round" stroke-linejoin="round"/>
<defs>
<linearGradient id="paint0_linear_407_8465" x1="1.28342e-06" y1="44.5714" x2="48" y2="-1.34526e-06" gradientUnits="userSpaceOnUse">
<stop stop-color="#9610FF"/>
<stop offset="1" stop-color="#B14DFF" stop-opacity="0"/>
</linearGradient>
</defs>
</svg>
