<svg width="214" height="229" viewBox="0 0 214 229" fill="none" xmlns="http://www.w3.org/2000/svg">
<g filter="url(#filter0_d_424_8209)">
<path opacity="0.7" d="M188.605 108.248C187.589 106.216 185.557 103.507 183.864 102.152C183.864 102.152 183.864 102.152 183.525 101.813C183.864 100.458 184.202 99.4423 184.541 98.0875C184.88 96.0553 185.557 94.3619 185.896 92.3297L188.267 83.8623C189.621 81.8302 186.912 80.4754 184.88 79.4593V79.1206C184.88 79.1206 184.88 79.1206 184.541 79.4593C184.541 79.4593 184.202 79.4593 184.202 79.1206C183.864 79.1206 183.864 78.7819 183.525 78.7819C184.202 78.4432 184.88 78.1045 185.218 77.7659C186.234 77.0885 186.234 76.0724 186.234 75.395L186.573 75.7337V75.395C186.573 75.395 186.573 75.395 186.234 75.395C186.573 75.395 186.573 75.0563 186.573 74.7176C186.573 74.7176 186.573 74.3789 186.234 74.3789C185.896 74.3789 185.896 74.3789 185.557 74.3789C185.557 74.3789 185.557 74.3789 185.557 74.7176C185.557 74.7176 185.557 74.7176 185.557 75.0563H185.218C185.218 75.0563 185.218 75.0563 185.557 75.0563C185.557 75.0563 185.557 75.395 185.218 75.395L185.557 75.0563C185.218 75.7337 185.557 76.7498 184.88 77.4272C184.88 77.4272 184.88 77.4272 184.541 77.4272C183.864 77.0885 183.864 76.7498 183.525 76.4111C183.864 76.4111 184.202 76.4111 184.202 76.7498C184.202 76.7498 183.864 76.4111 183.525 76.4111C183.864 76.4111 183.864 76.0724 183.864 76.0724C183.864 76.0724 183.525 75.7337 183.186 75.7337H182.848C182.509 76.0724 182.509 76.0724 182.848 76.4111C182.848 76.4111 182.509 76.4111 182.509 76.7498H182.848C182.848 76.7498 182.848 76.7498 182.848 77.0885C182.848 77.0885 182.848 77.0885 183.186 76.7498C183.186 77.0885 183.186 77.7659 183.864 78.1045C183.525 78.4432 183.186 78.7819 182.509 78.7819C182.17 78.7819 182.17 78.4432 181.831 78.4432C181.831 77.7659 181.831 77.0885 181.493 76.4111C182.17 75.7337 182.509 75.0563 182.509 74.3789C182.17 74.7176 181.831 75.395 181.493 75.7337C181.493 75.395 181.493 75.395 181.493 75.0563C181.493 74.7176 181.493 74.3789 181.493 74.0402C183.186 73.7015 183.525 72.6854 183.525 72.0081V71.6694C184.202 71.6694 184.202 71.3307 184.541 70.992C184.88 70.6533 184.88 70.3146 184.88 70.3146C184.88 70.3146 184.88 70.3146 184.88 70.6533C184.88 70.6533 184.88 70.992 185.218 70.992V70.6533C185.218 70.6533 185.218 70.6533 185.218 70.3146H185.557C185.557 70.3146 185.896 70.3146 185.896 70.6533L185.557 70.3146C185.557 70.3146 185.557 70.3146 185.218 70.3146C185.557 70.3146 185.557 69.9759 185.557 69.9759C185.557 69.9759 185.557 69.6372 184.88 69.6372C184.202 69.6372 183.864 69.9759 184.202 70.3146V70.6533C183.864 70.6533 183.864 70.6533 183.525 70.992C183.864 70.992 183.864 70.992 184.202 70.992C183.864 71.3307 183.525 72.0081 183.186 72.0081C183.186 71.3307 183.525 70.3146 183.186 69.6372H183.525C183.525 69.6372 183.864 69.6372 183.864 69.9759C183.864 69.9759 183.864 69.6372 183.525 69.6372C183.525 69.6372 183.525 69.6372 183.186 69.6372C183.525 69.6372 183.525 69.2985 183.525 69.2985C183.525 69.2985 183.186 68.9598 182.848 68.9598C182.509 68.9598 182.509 68.9598 182.509 68.9598C182.17 68.9598 182.17 69.2985 182.509 69.2985C182.509 69.2985 182.509 69.6372 182.848 69.6372C182.848 69.9759 182.848 70.3146 182.848 70.6533C182.848 71.3307 182.848 71.6694 182.509 72.3467C182.509 73.0241 182.17 74.0402 180.477 74.7176C180.477 73.7015 180.138 72.6854 179.799 71.6694C179.461 70.6533 179.122 69.2985 178.445 68.2824C178.445 68.2824 178.445 68.2824 178.783 68.2824C178.783 68.2824 179.122 68.2824 179.122 68.6211L178.783 68.2824C178.783 68.2824 178.783 68.2824 178.445 68.2824C178.783 68.2824 178.783 68.2824 179.122 68.2824C178.783 68.2824 178.783 68.2824 178.445 67.9437C178.445 67.9437 178.445 67.9437 178.106 67.9437V67.605L177.767 67.2663C177.428 67.2663 177.09 67.2663 177.09 67.2663C176.751 67.2663 176.751 67.605 177.09 67.605C177.09 67.605 177.09 67.9437 177.428 67.9437C177.09 67.9437 176.751 68.2824 176.751 68.2824C176.751 68.2824 177.09 68.2824 177.09 67.9437C177.428 67.9437 177.428 67.9437 177.767 67.9437C177.767 67.9437 177.767 68.2824 177.428 68.2824L177.767 67.9437C178.445 68.9598 178.783 70.3146 179.122 71.6694C179.461 72.3467 179.461 72.6854 179.461 73.3628C179.461 73.3628 179.461 73.3628 179.122 73.0241C178.445 72.6854 178.106 72.3467 178.106 71.6694C177.767 72.008 178.106 72.3467 178.445 72.6854C178.445 73.0241 178.783 73.0241 178.783 73.3628C178.783 73.3628 179.122 73.7015 179.461 73.7015C179.799 74.0402 179.799 74.7176 179.799 75.395V75.7337C178.783 75.395 177.428 75.395 176.751 75.0563C175.735 74.7176 175.396 74.0402 175.058 73.3628C174.719 72.3467 174.38 71.6694 174.042 70.6533C174.38 70.6533 174.719 70.992 175.058 70.992C175.058 70.6533 174.719 70.6533 174.38 70.6533C174.719 70.6533 174.719 70.6533 175.058 70.6533C174.719 70.6533 174.38 70.3146 174.042 70.3146C174.38 70.3146 174.042 69.6372 174.042 69.6372C173.703 69.2985 172.687 69.2985 172.687 69.6372C172.687 69.9759 172.687 69.9759 173.025 70.3146C173.025 70.3146 173.025 70.3146 173.364 70.3146C173.364 70.6533 173.364 70.6533 173.364 70.992C173.364 70.992 173.364 70.6533 173.703 70.6533C174.042 71.6694 174.042 72.6854 174.719 73.7015C175.058 74.3789 175.396 74.7176 176.412 75.0563C176.751 75.395 177.428 75.395 177.767 75.395C178.445 75.395 179.122 75.395 179.461 75.7337C179.461 76.4111 179.799 77.4272 179.799 78.1045C179.799 77.7659 179.122 77.4272 179.122 77.0885C179.122 77.4272 179.122 77.7659 179.122 78.1045C178.445 77.7659 177.767 77.4272 177.09 77.0885V76.7498H176.751C174.719 75.395 172.687 74.0402 170.655 72.6854C170.316 73.0241 169.638 73.0241 169.3 73.0241C168.622 73.3628 167.945 73.3628 167.606 73.7015C167.268 72.3467 166.929 70.6533 166.929 69.9759C166.929 69.9759 166.929 69.9759 166.59 69.9759L162.865 67.2663L162.187 66.9276C162.187 66.9276 162.187 66.9276 161.849 66.9276C161.849 66.9276 161.849 66.5889 162.187 66.5889C162.187 66.2502 162.526 65.9116 162.526 65.5729C162.526 65.2342 162.865 65.2342 162.865 64.8955C162.865 64.8955 162.865 64.8955 162.526 65.2342C162.526 64.8955 162.865 64.8955 162.865 64.5568C162.526 64.8955 162.187 64.8955 162.187 65.2342C162.187 65.5729 162.187 65.9116 162.187 65.9116C162.187 65.9116 162.187 66.2502 161.849 66.2502C161.849 66.2502 161.849 66.5889 161.51 66.5889L160.155 65.5729C160.494 65.5729 160.832 65.5729 160.832 65.2342C160.832 64.8955 160.494 64.8955 160.155 64.8955C160.494 64.8955 160.832 64.8955 161.171 64.5568C160.832 64.5568 160.832 64.5568 160.494 64.5568L160.832 64.2181C161.171 63.8794 161.171 63.5407 161.51 63.202C161.51 63.202 161.51 63.5407 161.171 63.5407C161.171 63.202 161.171 62.8633 161.171 62.5246C161.171 62.8633 161.171 63.202 161.171 63.8794C161.171 63.5407 161.171 63.202 161.171 62.8633C161.171 63.202 160.832 63.202 160.832 63.5407C160.832 63.8794 161.171 63.8794 161.171 64.2181C160.832 64.2181 160.832 64.5568 160.832 64.5568L160.494 64.8955L159.816 64.5568C160.155 64.5568 160.155 64.2181 160.155 63.8794L159.816 63.5407C159.478 63.5407 159.478 63.8794 159.478 63.8794V63.5407H159.139C159.478 63.5407 159.816 63.202 159.816 62.8633C160.155 62.5246 159.139 61.8472 159.139 62.5246C159.139 62.5246 159.139 62.5246 159.139 62.8633V63.202L158.8 63.5407L158.123 63.202V62.8633C158.123 62.8633 158.123 63.202 157.784 63.202C157.784 63.202 157.784 62.8633 158.123 62.8633C158.123 62.8633 158.123 62.8633 158.123 62.5246L158.462 62.1859C158.462 61.8472 158.8 61.8472 158.8 61.5085C158.462 61.5085 158.462 61.8472 158.123 61.8472C158.462 61.5085 158.462 61.5085 158.8 61.1698C158.8 61.1698 158.462 60.8311 158.462 61.1698C158.123 61.5085 158.123 61.5085 158.123 61.8472C158.123 61.8472 158.123 61.8472 158.123 61.5085C157.784 61.1698 158.123 60.8311 158.123 60.8311C158.123 61.1698 158.123 61.5085 157.784 61.5085C157.784 61.8472 157.784 62.1859 158.123 62.1859V62.5246C158.123 62.5246 157.784 62.8633 157.784 63.202L157.107 62.8633C157.107 62.8633 157.107 62.8633 157.107 62.5246C157.107 62.1859 157.107 62.1859 157.107 61.8472C157.445 61.5085 157.445 60.8311 157.445 60.4925C157.445 60.8311 157.445 60.8311 157.107 61.1698V61.5085C157.107 61.1698 157.107 60.8311 157.107 60.8311C157.107 61.1698 157.107 61.1698 157.107 61.5085C157.107 61.5085 156.768 61.1698 156.768 60.8311V61.1698C156.768 61.1698 156.768 61.5085 156.768 61.8472C156.768 61.5085 156.429 61.5085 156.429 61.1698C156.429 61.5085 156.429 61.8472 156.768 61.8472C156.768 61.8472 157.107 62.1859 157.445 62.1859C157.445 62.1859 157.445 62.1859 157.784 62.1859C157.784 62.5246 157.784 62.5246 157.784 62.8633L155.752 61.1698C155.752 61.1698 155.752 60.8311 155.413 60.8311L155.075 60.4925C155.752 60.1538 156.091 60.1538 156.768 59.8151C157.784 59.1377 158.8 58.4603 159.478 57.4442C160.155 57.1055 160.832 56.4281 161.171 55.7507C161.171 55.7507 161.171 55.412 160.832 55.7507C160.494 56.0894 160.155 56.0894 159.816 56.4281C160.155 56.0894 160.155 55.7507 160.494 55.412C160.494 55.0733 160.832 54.396 160.832 54.0573V53.7186C161.171 53.3799 161.171 53.0412 161.171 52.7025L160.832 53.0412C160.832 52.7025 161.171 52.3638 161.171 52.0251C160.832 52.3638 160.494 52.7025 160.155 53.0412C159.816 52.7025 159.816 52.3638 159.816 52.3638C159.816 52.7025 159.816 53.0412 159.816 53.3799C159.816 53.7186 159.816 54.396 160.155 54.7346C160.155 54.7346 160.155 54.7346 160.494 54.7346C160.494 55.0733 160.494 55.0733 160.155 55.412C159.816 55.7507 159.816 56.4281 159.478 56.7668C159.478 56.4281 159.139 56.4281 159.139 56.0894C158.8 56.0894 159.139 55.412 158.8 55.412C158.8 55.412 158.8 55.7507 158.462 55.7507L158.123 56.0894C158.123 56.4281 158.123 57.1055 158.8 57.1055H158.462C157.784 56.7668 157.107 56.0894 156.429 55.7507C156.768 55.412 156.768 54.7346 157.107 54.396C157.784 54.396 158.8 54.0573 158.8 53.7186C158.462 53.3799 158.123 53.3799 157.784 53.7186C158.123 53.3799 158.8 53.3799 159.139 53.0412V52.7025C158.8 52.7025 158.462 52.7025 158.462 53.0412C158.8 52.7025 158.8 52.3638 159.139 52.0251C159.478 51.6864 159.478 51.009 159.816 50.3316L159.478 50.6703C159.478 49.9929 159.478 49.6542 159.478 48.9768C159.139 49.6542 159.139 49.9929 159.139 50.6703C159.139 50.6703 159.139 50.6703 159.139 51.009C159.139 50.3316 158.8 49.9929 158.462 49.3155C158.462 49.9929 158.8 50.6703 158.8 51.3477C158.8 51.009 158.462 50.3316 158.462 49.9929C158.462 50.3316 158.123 50.6703 158.462 51.3477C158.462 51.6864 158.8 52.0251 159.139 52.3638C158.8 52.7025 158.8 53.0412 158.462 53.3799C158.462 53.7186 158.123 54.0573 158.123 54.0573L157.784 54.396C157.445 54.7346 157.445 55.0733 157.107 55.412C156.768 55.0733 156.768 54.7346 156.429 54.396C156.429 54.396 156.091 54.0573 156.091 53.7186H156.429C156.768 53.3799 157.107 53.0412 157.107 52.3638C157.107 52.0251 156.768 52.0251 156.429 52.0251C156.091 52.3638 156.091 52.7025 155.752 53.0412C155.752 52.7025 155.752 52.7025 155.752 52.3638V52.0251C155.413 52.0251 155.413 52.0251 155.075 52.0251C155.752 51.6864 156.091 51.6864 156.091 51.009C156.429 50.3316 155.075 49.6542 154.736 50.3316C154.736 50.3316 154.736 50.6703 154.397 50.6703V51.009C154.397 51.3477 153.72 51.3477 153.72 51.6864C153.042 52.0251 152.704 52.3638 152.365 52.7025C152.704 52.0251 153.381 51.3477 153.381 50.3316C153.381 51.009 153.042 51.3477 152.365 52.0251C152.365 52.0251 152.365 52.0251 152.365 51.6864C152.365 51.009 152.704 50.6703 152.704 49.9929V49.6542C153.042 49.3155 153.042 48.9769 153.042 48.6382C153.042 48.2995 153.381 47.9608 153.72 47.2834C153.72 47.2834 153.72 46.9447 153.381 47.2834C153.042 47.6221 153.042 47.9608 152.704 48.2995C153.042 47.9608 153.381 47.2834 153.381 46.9447C153.381 46.606 153.042 46.606 153.042 46.9447C152.704 47.2834 152.704 47.9608 152.704 48.2995L152.365 47.9608C152.026 47.6221 152.026 47.2834 152.026 46.9447C152.026 47.2834 152.026 47.9608 152.026 48.2995C152.026 48.6382 152.026 49.3155 152.365 49.3155C152.365 49.6542 152.365 49.6542 152.365 49.9929C152.026 50.6703 152.026 51.009 151.688 51.6864C151.349 51.3477 151.01 51.3477 150.672 51.3477C150.672 51.009 150.672 50.6703 150.672 50.3316C150.672 49.9929 150.672 49.6542 150.672 49.3155C151.01 48.6382 150.672 47.6221 150.672 46.9447C150.672 47.2834 150.672 47.6221 150.672 48.2995C150.672 48.6382 150.672 48.6382 150.672 48.9768C150.333 48.6382 150.333 48.2995 150.333 47.6221C150.333 47.9608 150.333 48.2995 150.333 48.6382C149.994 48.2995 149.994 47.9608 149.656 47.9608H149.317C149.317 48.2995 149.317 48.2995 149.317 48.6382C149.317 48.9769 149.317 49.3155 149.656 49.3155C149.656 49.3155 149.656 49.3155 149.317 49.3155C148.978 48.9768 148.639 48.9769 148.639 48.6382C148.978 48.9769 148.978 49.3155 149.317 49.6542C149.656 49.9929 149.994 49.9929 150.333 49.9929H150.672C151.01 50.6703 150.672 51.3477 150.333 52.0251C150.333 52.3638 150.333 52.3638 150.672 52.3638C151.01 52.3638 151.349 52.7025 152.026 52.7025C152.026 53.3799 152.026 54.0573 152.026 54.7346C152.026 55.412 152.026 56.4281 151.349 56.7668L150.672 56.4281L150.333 56.0894H149.994C149.994 56.0894 149.994 55.7507 149.656 55.7507C149.656 55.7507 149.656 55.7507 149.656 55.412C150.333 54.7346 150.672 54.0573 150.672 53.0412C150.333 53.3799 150.333 53.7186 149.994 54.396V54.0573V53.7186C149.994 53.0412 149.994 52.7025 149.994 52.0251C149.994 52.7025 149.994 53.0412 149.656 53.3799L149.317 54.396C149.317 54.396 149.317 54.396 149.317 54.0573C148.978 53.3799 148.978 52.3638 148.978 51.6864C148.978 52.0251 148.978 52.7025 148.639 53.3799C148.301 53.0412 147.962 52.3638 147.623 52.0251H147.285C147.285 52.0251 147.285 51.6864 146.946 51.6864C146.946 51.3477 146.946 51.3477 146.946 51.009V50.6703H146.607C146.607 50.6703 146.269 50.6703 146.269 50.3316C146.269 50.3316 146.269 49.9929 146.607 49.9929C146.607 49.6542 146.946 49.6542 146.946 49.3155C146.946 48.9768 146.269 48.6382 146.269 48.9768C146.269 49.3155 146.269 49.6542 146.269 49.6542C146.269 49.3155 146.269 48.9769 146.269 48.6382C146.269 48.2995 145.93 48.2995 145.591 48.6382C145.253 48.9769 145.591 49.6542 145.591 49.9929V50.3316C145.253 49.9929 145.253 49.9929 144.914 49.6542C144.914 49.9929 145.253 50.3316 145.253 50.6703C145.253 50.6703 145.253 51.009 145.591 51.009H145.253C144.914 51.009 144.914 50.6703 144.575 50.6703C144.575 51.009 144.914 51.009 145.253 51.3477C145.253 51.3477 145.591 51.3477 145.591 51.6864H145.93C145.93 52.0251 146.269 52.0251 146.269 52.3638L146.607 52.7025C144.575 53.0412 142.204 52.7025 140.172 52.7025C139.833 53.3799 139.833 53.7186 139.495 54.396C139.156 54.7346 139.156 55.0733 138.817 55.412C138.14 55.412 137.801 55.412 137.124 55.7507C137.801 55.0733 138.479 54.0573 138.817 53.3799C138.479 53.3799 138.14 53.7186 137.801 54.0573C137.801 54.0573 137.801 54.0573 137.801 53.7186C138.479 51.3477 140.511 48.9768 142.204 47.6221C142.882 46.9447 143.898 45.9286 144.575 45.2512C144.575 45.2512 144.575 45.2512 144.914 44.9125C145.253 44.5738 145.591 44.2351 145.93 43.5577C145.93 43.5577 145.93 43.5577 146.269 43.219C146.607 42.5417 146.946 42.203 147.285 41.5256C147.285 41.1869 147.623 41.1869 147.623 40.8482C147.962 40.1708 147.962 39.8321 147.962 39.8321C147.962 39.4934 147.962 39.1547 148.301 38.816C148.639 39.8321 148.978 40.5095 149.656 41.5256C149.656 40.8482 149.994 40.5095 150.333 40.1708C149.994 40.8482 149.994 41.5256 149.994 42.203C150.333 42.8804 150.672 43.219 150.672 43.8964C150.672 43.5577 150.672 43.5577 151.01 43.219C151.349 42.8804 151.349 42.5417 151.688 42.5417C152.026 41.8643 152.365 41.5256 152.704 40.8482C152.704 40.5095 153.042 40.1708 153.042 39.8321C153.042 39.8321 153.042 39.8321 153.042 40.1708C153.042 40.5095 153.381 41.1869 153.042 41.5256C153.381 41.1869 153.381 40.5095 153.72 40.1708C153.72 40.8482 153.381 41.5256 153.042 42.5417C153.042 42.8804 153.042 43.219 153.042 43.5577C153.381 42.8804 153.72 42.5417 154.059 41.8643C154.059 42.5417 154.059 42.8804 154.059 43.5577C154.059 44.2351 153.72 44.5738 153.72 45.2512C154.397 44.5738 154.736 43.5577 155.075 42.5417C155.413 41.8643 155.413 41.5256 155.413 40.8482C155.413 40.5095 155.413 40.5095 155.413 40.1708C155.413 40.1708 155.413 40.1708 155.752 40.1708V39.8321C155.752 39.8321 155.752 40.1708 155.752 40.5095C156.091 40.5095 156.091 40.8482 156.429 40.8482C156.429 40.8482 156.429 40.8482 156.429 40.5095C156.429 40.5095 156.429 40.5095 156.429 40.1708C156.429 40.1708 156.429 40.1708 156.429 39.8321C156.429 39.4934 156.429 38.816 156.429 38.4773C156.429 38.1386 156.429 37.7999 156.429 37.4612C156.768 37.7999 157.107 38.1386 157.445 38.4773V37.7999C157.445 37.4612 157.446 36.4452 156.768 35.0904C157.107 35.4291 157.445 36.1065 157.784 36.4452C157.784 36.7839 158.123 37.1226 158.462 37.4612C158.462 37.1226 158.462 37.1226 158.8 36.7839C158.8 37.1226 158.8 37.4612 158.8 38.1386C159.139 38.4773 159.478 39.1547 159.478 39.4934C159.816 38.4773 159.478 37.1226 159.139 36.1065C158.8 35.4291 158.462 34.7517 158.123 34.0743C157.784 33.3969 157.445 33.3969 157.107 32.7195C157.445 33.0582 158.123 33.3969 158.462 33.7356C158.8 33.7356 158.8 34.0743 159.139 34.0743C159.139 33.3969 159.139 33.0582 158.8 32.3808C158.8 32.7195 159.139 33.0582 159.478 34.413C159.478 34.413 159.816 34.413 159.816 34.7517L160.155 35.0904C160.155 34.7517 160.155 34.413 160.155 34.0743C160.494 34.413 160.494 34.7517 160.494 35.0904C160.832 35.4291 161.51 36.1065 161.849 36.4452C161.51 35.4291 161.171 34.413 160.832 33.7356C160.155 32.7195 159.478 32.0421 158.462 31.3648L158.8 31.7034C158.8 31.7034 159.139 31.7034 159.139 32.0421C159.139 31.7034 158.8 31.0261 158.8 30.6874C159.139 31.0261 159.478 31.3648 159.816 32.0421V32.3808C160.155 32.7195 160.494 32.7195 160.832 33.0582C160.832 32.7195 160.494 32.0421 160.494 31.7034C160.832 32.0421 161.171 32.7195 161.51 33.0582C161.51 33.0582 161.51 33.0582 161.51 33.3969C161.849 33.3969 161.849 33.7356 162.187 33.7356C162.187 33.3969 162.187 33.3969 162.187 33.0582C162.187 33.3969 162.526 33.3969 162.526 33.7356C162.865 33.7356 163.203 34.0743 163.542 34.0743V33.7356C163.542 33.3969 163.542 33.3969 163.542 33.0582C163.542 32.3808 163.542 32.0421 163.203 31.3648C162.865 30.6874 162.526 30.01 161.849 29.6713C161.51 29.3326 160.832 28.9939 160.494 28.9939C160.832 28.9939 161.51 28.9939 161.849 28.9939C161.51 28.6552 161.51 28.3165 161.171 27.9778H160.832C160.494 27.9778 160.155 27.6391 159.816 27.6391C160.155 27.6391 160.494 27.6391 160.832 27.6391C160.494 27.3004 160.494 27.3004 160.155 26.9617H160.494C160.494 26.623 160.155 26.2843 160.155 26.2843C160.494 26.2843 160.832 26.9617 160.832 27.3004C161.171 27.3004 161.51 27.6391 161.849 27.9778C161.51 27.3004 161.171 26.9617 160.832 26.623L160.494 26.2843C160.155 25.607 159.139 25.607 158.462 25.2683C157.784 24.9296 157.107 24.9296 156.429 25.2683C156.091 24.9296 155.413 24.9296 155.075 24.9296C154.397 24.9296 153.381 24.9296 152.704 25.2683H152.365C152.026 25.2683 152.026 25.2683 151.688 25.607C151.349 25.607 151.01 25.9456 150.672 26.2843C150.672 26.2843 150.672 26.2843 150.333 26.2843C150.672 25.607 151.01 24.9296 151.349 24.5909C151.01 24.2522 151.01 24.2522 150.672 24.2522C150.672 24.5909 150.672 24.5909 150.333 24.9296C150.333 24.5909 150.333 24.5909 150.333 24.2522C149.994 24.2522 149.656 24.2522 149.317 23.9135C149.317 23.9135 148.978 23.9135 148.639 23.9135C147.962 23.9135 147.623 23.5748 146.946 23.5748H146.607H146.269C145.93 23.5748 145.253 23.5748 144.914 23.5748C144.575 23.5748 143.898 23.9135 143.559 23.9135C141.188 21.8813 140.511 21.5426 140.172 21.2039C140.511 21.5426 140.511 21.8813 140.849 21.8813C140.172 21.8813 139.833 21.5426 139.495 20.8652C139.495 20.8652 139.495 20.8652 139.156 20.8652C138.479 20.8652 138.14 20.8652 137.801 20.8652C138.14 21.2039 138.479 21.2039 138.817 21.5426C137.801 21.5426 137.124 21.5426 136.446 21.2039C136.108 21.2039 136.108 21.2039 135.769 21.2039C135.43 21.2039 134.753 21.2039 134.414 21.2039C134.414 21.2039 134.076 21.2039 133.737 21.5426H133.398C133.06 21.5426 132.721 21.8813 132.382 21.8813C132.721 21.8813 132.721 22.22 133.06 22.22H133.398C133.737 22.22 134.076 22.22 134.414 21.8813C134.076 21.8813 133.737 22.22 133.398 22.22H133.737C132.721 22.22 132.043 22.5587 131.027 22.8974C130.011 23.2361 129.334 23.9135 128.656 24.5909C128.656 24.5909 128.656 24.5909 128.995 24.5909C128.995 24.5909 128.995 24.5909 128.656 24.5909C128.995 24.5909 128.995 24.9296 129.334 24.9296H129.673C130.011 24.9296 130.35 24.9296 130.689 24.5909C130.35 24.5909 130.011 24.9296 129.673 24.9296C130.011 24.9296 130.011 25.2683 130.35 25.2683C131.027 24.9296 131.366 24.5909 132.043 24.2522C131.705 24.5909 131.366 24.9296 130.689 25.2683C130.011 25.607 129.334 26.2843 128.656 26.9617C128.656 27.3004 128.318 27.3004 128.318 27.6391C128.657 27.3004 128.995 26.9617 129.673 26.9617C130.011 26.623 130.011 26.2843 130.35 25.9456C130.35 26.2843 130.35 26.2843 130.011 26.623C130.35 26.623 130.689 26.2843 131.027 26.2843C131.366 25.9456 132.043 25.607 132.721 25.607C131.366 26.2843 130.689 26.9617 130.689 27.3004C130.689 27.3004 130.35 27.6391 130.35 27.9778C130.689 27.6391 131.366 27.6391 132.043 27.6391C132.382 27.3004 132.721 26.9617 132.721 26.623C132.382 26.9617 132.382 27.3004 132.382 27.6391C132.721 27.6391 132.721 27.6391 133.06 27.3004C133.398 26.9617 133.398 26.9617 133.737 26.623C134.076 26.2843 134.076 25.9456 134.414 25.607C134.414 25.9456 134.076 26.623 133.737 26.9617C134.076 26.9617 134.414 26.623 134.414 26.2843C134.414 26.2843 134.753 26.2843 134.753 25.9456C135.092 25.607 135.43 25.607 135.769 25.2683C135.43 25.607 134.753 25.9456 134.414 26.2843C134.076 27.6391 134.076 27.6391 133.737 27.9778L133.06 28.6552C133.398 28.6552 134.076 28.6552 134.414 28.3165C134.753 28.3165 134.753 28.3165 135.092 27.9778C135.092 27.9778 135.092 27.9778 135.43 27.6391C135.769 27.3004 136.108 26.9617 136.446 26.623C136.108 26.9617 136.108 27.3004 135.769 27.6391C136.108 27.6391 136.108 27.6391 136.446 27.3004C136.785 26.9617 136.785 26.623 137.124 26.623C137.124 26.9617 136.785 26.9617 136.785 27.3004C137.124 26.9617 137.801 26.9617 138.14 26.623H138.479C138.14 26.9617 138.14 26.9617 137.801 27.3004C137.801 27.3004 137.463 27.3004 137.463 27.6391C137.463 27.6391 137.463 27.6391 137.124 27.6391C137.124 27.6391 137.124 27.9778 136.785 27.9778C136.446 27.9778 136.108 28.3165 135.769 28.3165L135.43 28.6552C135.769 28.6552 136.108 28.6552 136.446 28.6552C135.769 28.9939 135.092 28.9939 134.414 29.6713C134.076 30.01 134.076 30.3487 133.737 30.6874C133.398 30.6874 133.398 30.6874 133.06 30.3487C132.382 30.3487 132.043 30.01 131.366 30.01C131.705 30.01 132.043 29.6713 132.382 29.6713C132.043 29.6713 131.705 29.3326 131.366 29.3326C131.366 29.3326 131.366 29.3326 131.027 29.3326C130.689 29.6713 130.35 29.6713 129.673 29.6713C130.011 29.6713 130.011 29.3326 130.35 29.3326C130.011 29.3326 129.673 29.3326 128.995 29.3326C128.656 28.9939 128.318 28.9939 127.979 28.6552C127.64 28.3165 127.302 28.3165 126.963 28.3165H126.624H126.286C125.947 28.3165 125.608 28.3165 124.931 28.3165C124.592 28.3165 124.253 28.3165 124.253 28.3165C123.915 28.3165 123.576 28.3165 123.576 28.3165C123.576 28.3165 123.576 28.6552 123.237 28.6552V28.3165C122.899 28.3165 122.899 28.3165 122.56 28.3165C123.576 28.6552 123.576 29.3326 123.576 30.01C123.576 30.01 123.576 30.01 123.237 30.01C122.899 29.6713 122.899 29.6713 122.56 29.3326L122.221 28.9939C122.221 28.9939 122.221 28.9939 121.883 28.6552C121.544 28.3165 120.867 28.3165 120.189 27.9778C120.189 27.9778 119.85 27.9778 119.512 27.9778C119.173 27.6391 118.496 27.6391 117.818 27.6391C117.141 27.6391 116.464 27.6391 116.125 27.9778H115.786C115.447 28.3165 114.77 28.3165 114.77 28.6552C115.109 28.6552 115.109 28.3165 115.447 28.3165C115.786 28.3165 115.786 27.9778 116.125 27.9778C115.786 27.9778 115.786 28.3165 115.786 28.3165H116.125C115.786 28.3165 115.447 28.3165 115.109 28.6552C115.447 28.6552 115.786 28.9939 115.786 28.9939C115.447 28.9939 115.109 28.9939 114.77 28.9939H114.431C114.093 28.9939 114.093 29.3326 113.754 29.6713C114.093 29.6713 114.431 30.01 114.77 30.01C114.431 30.01 113.754 30.01 113.415 30.01C113.077 30.3487 112.399 30.6874 112.06 31.0261C111.722 31.3648 111.722 31.7034 111.383 32.0421C111.383 32.3808 111.383 32.3808 111.383 32.7195C111.383 32.7195 111.383 32.7195 111.383 33.0582C111.722 33.0582 111.722 33.0582 112.06 33.0582C112.06 32.7195 112.399 32.7195 112.399 32.7195C112.399 32.7195 112.399 33.0582 112.06 33.0582H112.399C112.738 32.7195 113.077 32.3808 113.415 32.0421C113.077 32.3808 113.077 32.7195 112.738 33.0582C113.077 33.0582 113.415 33.0582 113.754 32.7195C113.754 32.7195 113.754 32.7195 113.754 32.3808C114.093 32.0421 114.431 31.7034 114.77 31.7034C114.431 32.0421 114.431 32.3808 114.093 32.3808C114.093 32.3808 114.093 32.3808 114.431 32.3808H114.77C114.093 32.7195 113.077 33.0582 112.399 33.7356C111.722 34.0743 111.383 34.7517 111.044 35.4291C111.383 35.0904 112.06 34.7517 112.399 34.7517C112.399 34.413 112.738 34.0743 113.077 34.0743C113.077 34.413 112.738 34.413 112.738 34.7517C112.738 34.7517 113.077 34.7517 113.077 34.413H113.415C113.754 33.3969 114.093 33.3969 114.431 33.0582C114.093 33.3969 114.093 33.7356 113.754 34.0743C113.754 34.0743 114.093 34.0743 114.093 33.7356C114.431 33.7356 114.77 33.3969 115.109 33.3969C114.77 33.7356 114.431 33.7356 114.093 34.0743C113.754 34.413 113.415 34.7517 112.738 35.4291C112.399 36.1065 111.722 37.1226 111.722 37.7999C112.06 37.4612 112.06 37.1226 112.399 36.7839C112.399 36.4452 112.738 36.1065 112.738 36.1065V36.4452C113.077 36.1065 113.077 36.1065 113.415 35.7678C113.754 35.4291 114.093 35.0904 114.431 35.0904C113.415 35.7678 113.415 36.4452 113.077 36.7839C113.077 36.7839 113.077 37.1226 112.738 37.4612C113.077 37.1226 113.415 37.1226 113.754 36.7839C113.754 37.1226 113.415 37.4612 113.415 37.4612C113.415 37.7999 113.415 37.7999 113.077 38.1386C113.077 38.4773 113.077 38.4773 113.077 38.816C113.077 38.816 113.415 38.816 113.754 38.816C113.754 38.816 113.754 38.4773 114.093 38.4773V38.816C114.093 38.816 114.093 38.816 114.431 38.816C114.431 39.1547 114.431 39.1547 114.431 39.4934C114.431 39.8321 114.431 40.1708 114.431 40.8482C114.431 41.5256 114.77 42.5417 114.77 43.219C114.77 42.8804 114.77 42.203 114.77 41.8643C114.77 41.5256 115.109 41.1869 115.109 40.5095C115.109 40.8482 115.109 41.5256 115.447 41.8643C115.447 41.5256 115.786 41.1869 115.786 40.8482C115.786 40.1708 115.786 39.4934 115.786 39.1547C115.786 39.4934 115.786 39.8321 115.786 40.1708C115.786 40.1708 116.125 39.4934 116.125 39.1547L116.464 38.816C116.464 39.1547 116.464 39.4934 116.464 39.4934C116.464 39.8321 116.464 40.5095 116.802 40.8482C116.802 41.1869 116.802 41.1869 117.141 41.5256C117.141 41.8643 117.141 41.8643 117.141 42.203C117.48 41.8643 117.818 41.5256 118.157 41.1869C118.157 40.5095 118.496 40.1708 118.496 39.4934C118.496 39.8321 118.496 40.1708 118.496 40.8482C119.173 40.1708 119.512 39.8321 120.189 39.1547C120.189 39.4934 120.189 39.4934 120.189 39.8321C120.189 39.8321 120.189 40.1708 120.189 40.5095C120.189 40.8482 120.189 40.8482 120.189 41.1869C120.189 41.8643 120.528 42.203 120.528 42.5417C120.528 42.5417 120.528 42.5417 120.528 42.8804C120.528 43.219 120.867 43.5577 121.205 44.2351C121.544 44.9125 121.883 45.9286 122.56 46.606C123.237 47.9608 124.253 50.6703 124.253 52.3638L123.915 52.0251C123.915 51.6864 123.576 51.6864 123.576 51.3477C123.237 51.009 123.237 51.009 122.899 50.6703L92.7549 23.2361V22.8974C92.7549 22.8974 92.7549 22.8974 92.7549 23.2361L92.4162 23.5748L78.1911 36.7839C75.8202 39.1547 73.1107 41.1869 70.7398 43.5577C67.3529 46.606 63.6272 49.9929 60.2403 53.0412L53.8051 59.1377C53.4664 59.4764 53.1277 59.8151 52.789 59.8151L51.4342 60.8311C51.4342 60.4925 51.4342 60.1538 51.7729 59.8151C52.1116 58.4603 52.4503 57.4442 53.1277 56.0894L53.4664 56.4281C53.4664 56.4281 53.4664 56.0894 53.1277 56.0894C53.4664 56.0894 53.4664 56.0894 53.8051 56.0894C53.8051 56.0894 54.1438 56.0894 54.1438 56.4281C54.1438 56.0894 53.8051 56.0894 53.4664 56.0894H53.8051H54.1438C54.1438 56.0894 54.1438 56.0894 53.8051 56.0894H53.4664C53.8051 56.0894 53.8051 55.7507 53.8051 55.7507V55.412C53.4664 55.412 53.1277 55.412 53.1277 55.412C52.789 55.412 52.789 55.7507 52.789 55.7507V56.0894C52.789 56.0894 52.789 56.0894 52.4503 56.0894C52.1116 56.0894 52.1116 56.0894 51.7729 56.4281C52.1116 56.4281 52.1116 56.4281 52.4503 56.4281C52.4503 56.4281 52.4503 56.4281 52.1116 56.4281C52.1116 56.4281 51.7729 56.4281 51.7729 56.7668C51.7729 56.7668 52.1116 56.7668 52.1116 56.4281C52.1116 56.4281 52.1116 56.4281 52.4503 56.4281C51.7729 57.4442 51.4342 58.799 51.0955 59.8151C52.4503 60.4925 52.4503 61.1698 52.1116 61.8472L51.0955 62.8633C50.4181 62.1859 50.0795 61.8472 50.0795 61.1698C50.0795 60.4924 49.7407 60.1538 49.7407 59.4764C49.7407 59.1377 49.7407 58.799 49.7407 58.4603C50.0794 58.4603 50.0795 58.799 50.0795 58.799L49.7407 58.4603L50.0795 58.1216V57.7829H49.7407C49.4021 57.7829 49.0634 58.1216 49.0634 58.1216C49.0634 58.1216 49.0634 58.4603 49.4021 58.4603C49.4021 58.4603 49.4021 58.4603 49.0634 58.4603C49.0634 58.4603 48.7247 58.4603 48.7247 58.799C48.7247 58.799 49.0634 58.799 49.0634 58.4603H49.4021C49.0634 59.1377 49.0634 60.1538 49.4021 60.8311C49.0634 60.8311 48.386 60.1538 48.386 59.8151C48.7247 59.8151 48.7247 59.8151 49.0634 59.8151C48.7247 59.8151 48.7247 59.4764 48.386 59.4764V59.1377C48.7247 58.799 48.386 58.4603 47.7086 58.4603C47.3699 58.4603 47.0312 58.799 47.0312 58.799C47.0312 58.799 47.0312 59.1377 47.3699 59.1377C47.3699 59.1377 47.3699 59.1377 47.0312 59.1377L46.6925 59.4764C46.6925 59.4764 47.0312 59.4764 47.0312 59.1377C47.0312 59.1377 47.0312 59.1377 47.3699 59.1377C47.3699 59.1377 47.3699 59.1377 47.3699 59.4764V59.8151C47.3699 59.8151 47.3699 59.4764 47.7086 59.4764C47.7086 59.4764 47.7086 59.4764 47.7086 59.1377C47.7086 59.4764 48.0473 59.8151 48.0473 59.8151C48.0473 60.1538 48.386 60.4925 49.0634 60.4925C49.0634 60.8311 49.0634 60.8311 49.0634 60.8311C49.0634 61.1698 49.4021 62.1859 50.0795 62.5246L49.0634 64.5568L50.0795 65.2342C50.0795 65.2342 50.0794 65.2342 49.7407 65.2342C49.4021 65.2342 49.0634 65.2342 49.0634 65.5729C49.0634 65.5729 49.0634 65.9116 49.4021 65.9116C49.4021 65.9116 49.0634 65.9116 49.0634 66.2502C48.7247 66.2502 48.386 66.2502 48.0473 66.2502C48.0473 65.9116 48.0473 65.2342 47.7086 64.8955C47.7086 64.8955 47.7086 64.8955 48.0473 64.8955H47.7086C47.7086 64.8955 47.7086 64.8955 47.7086 64.5568V64.2181C47.7086 64.2181 47.3699 63.8794 47.0312 64.2181C46.6925 64.2181 46.6925 64.2181 46.6925 64.5568C46.6925 64.5568 46.6925 64.8955 47.0312 65.2342C47.0312 65.2342 47.0312 65.2342 46.6925 65.2342H46.3538C46.3538 65.2342 46.3538 65.2342 46.6925 65.2342V65.5729C46.6925 65.5729 46.6925 65.2342 47.0312 65.2342C47.0312 65.5729 47.0312 66.2502 47.3699 66.5889C46.6925 66.5889 46.0151 66.9276 45.3377 66.9276C44.999 66.9276 44.6603 67.2663 44.3216 67.2663L43.983 66.9276C43.983 66.9276 43.983 67.2663 44.3216 67.2663H43.983C43.983 67.2663 43.6443 67.2663 43.6443 66.9276C43.6443 66.9276 43.6443 66.9276 43.983 67.2663C43.983 67.2663 43.6443 67.2663 43.6443 67.605L43.3056 67.9437C43.3056 67.9437 43.3056 67.9437 42.9669 68.2824C42.6282 68.6211 42.2895 68.6211 41.9508 68.9598C41.9508 68.9598 41.9508 68.9598 41.9508 68.6211C41.9508 68.2824 41.9508 67.9437 41.6121 67.9437H41.2734C41.2734 68.2824 41.2734 68.2824 41.6121 68.6211C41.6121 68.6211 41.6121 68.6211 41.2734 68.6211C40.9347 68.6211 40.9347 68.2824 40.9347 68.2824C40.9347 68.6211 41.2734 68.6211 41.2734 68.9598L41.6121 69.2985C41.6121 69.2985 41.6121 69.2985 41.2734 69.2985C41.2734 69.2985 41.2734 69.2985 40.9347 69.6372L40.596 69.2985C40.596 68.9598 39.9186 68.6211 39.9186 68.2824L40.2573 68.6211C40.2573 68.6211 40.2573 68.6211 40.2573 68.9598C39.9186 68.9598 39.9186 68.6211 39.5799 68.6211L39.9186 68.9598H39.5799C39.5799 68.9598 39.5799 68.9598 39.9186 69.2985L40.2573 69.6372C39.9186 69.6372 39.9186 69.6372 39.5799 69.6372C39.9186 69.6372 39.9186 69.9759 40.2573 69.9759C40.2573 69.9759 40.596 69.9759 40.596 69.6372C40.596 69.6372 40.596 69.6372 40.9347 69.9759C40.9347 70.3146 40.596 70.3146 40.596 70.6533C40.2573 70.992 39.9186 71.3307 39.9186 71.6694C39.9186 71.6694 39.9186 71.6694 39.9186 71.3307V70.992C39.9186 70.6533 39.5799 70.992 39.5799 70.992C39.5799 70.992 39.5799 71.3307 39.9186 71.3307C39.9186 71.3307 39.9186 71.3307 39.9186 71.6694L39.5799 71.3307H39.2412C39.2412 71.6694 39.5799 71.6694 39.5799 71.6694H39.2412C39.2412 71.6694 39.5799 71.6694 39.5799 72.0081C39.5799 72.0081 39.5799 72.0081 39.9186 72.0081C39.9186 72.0081 39.9186 72.0081 40.2573 72.0081H40.596C40.596 72.3467 40.2573 72.6854 40.2573 72.6854C40.2573 73.0241 39.9186 73.3628 39.9186 73.7015C39.9186 73.7015 39.9186 73.7015 39.9186 74.0402V74.3789C38.2252 75.395 36.5317 76.0724 34.8382 77.0885C33.4835 77.7659 28.0643 81.1528 27.7256 82.1689C27.7256 82.8463 32.806 91.6523 35.8543 97.4101L26.0322 98.4262C26.0322 98.4262 26.0322 98.7649 25.6935 98.7649C25.0161 99.781 24.6774 100.797 24 101.474C24 101.813 24 102.152 24 102.491C24.6774 108.587 25.6935 114.345 26.0322 120.441C28.7417 126.538 31.79 132.634 31.79 132.634L56.1759 158.714L73.4493 170.229L81.578 172.939C81.578 172.939 83.6102 173.616 86.6584 176.326C87.6745 177.003 88.6906 178.019 89.7067 179.035L90.0454 179.374C92.0775 180.729 94.1097 182.084 96.1419 183.777C96.1419 183.777 96.1419 183.777 96.4806 184.116C97.4966 184.793 98.5127 185.471 99.1901 185.809C99.1901 185.809 99.5288 185.809 99.5288 186.148C99.8675 186.487 100.206 186.487 100.545 186.825C100.884 186.825 101.222 187.164 101.222 187.164C101.561 187.503 101.9 187.503 102.238 187.841C102.577 187.841 102.577 188.18 102.916 188.18C103.254 188.519 103.593 188.519 103.932 188.858L104.271 189.196C104.609 189.535 104.948 189.535 105.287 189.874C105.287 189.874 105.625 189.874 105.625 190.212C105.964 190.551 106.303 190.551 106.641 190.89C106.641 190.89 106.641 190.89 106.98 190.89C107.319 190.89 107.657 191.228 107.657 191.228C107.996 191.567 108.335 191.567 108.335 191.567L107.657 196.647L116.464 199.357L117.48 199.696C117.48 199.696 117.48 200.034 117.818 200.034H118.157C118.834 200.034 119.85 199.696 120.189 199.018C122.221 197.664 123.915 195.97 125.608 194.277C129.334 190.89 133.06 187.841 136.785 184.454C138.479 183.1 140.172 181.406 141.866 180.051C143.22 178.697 144.575 177.681 145.253 175.987C146.269 173.616 146.946 172.262 149.317 170.907C151.349 169.891 153.72 169.213 156.091 169.213C156.429 169.213 156.768 168.875 157.107 168.536C158.462 164.81 158.8 160.746 161.849 157.698C163.203 156.343 165.235 155.665 167.268 154.988C168.961 154.311 170.993 153.633 172.687 152.956C175.735 151.262 176.751 149.23 177.428 146.182C178.445 142.795 181.493 139.747 182.848 136.36C184.202 133.989 185.557 131.28 185.896 128.909C185.896 128.231 186.234 127.554 186.234 126.538C186.573 125.183 186.573 123.828 186.912 122.473C187.251 119.764 187.928 116.716 188.267 114.006C189.283 111.297 189.621 109.942 188.605 108.248ZM124.931 45.9286C124.592 45.9286 124.592 45.9286 124.931 45.9286C124.592 45.5899 124.592 45.5899 124.592 45.2512C123.915 43.8964 123.237 42.8804 122.899 41.1869C122.899 40.8482 122.899 40.8482 122.899 40.5095C122.899 40.1708 122.899 39.8321 122.899 39.8321C122.899 39.4934 122.899 39.4934 122.899 39.1547V39.4934C122.899 39.4934 122.899 39.4934 123.237 39.4934V39.8321C123.237 39.8321 123.237 39.4934 123.576 39.4934L123.915 39.1547C123.915 39.1547 124.253 39.1547 124.253 38.816L124.592 38.4773C124.592 38.4773 124.253 38.816 124.253 39.1547C123.915 39.4934 123.915 39.4934 123.576 39.4934C123.237 39.8321 123.237 40.5095 123.237 41.1869C123.576 40.8482 123.915 40.5095 123.915 40.5095C123.576 40.8482 123.576 41.1869 123.237 41.5256V41.8643C123.237 42.203 123.576 42.5417 123.576 42.8804C123.576 42.203 123.915 41.8643 124.253 41.1869C124.592 40.5095 124.592 39.8321 125.27 39.4934C124.592 40.1708 124.253 41.1869 124.253 42.203C124.592 41.8643 124.592 41.8643 124.931 41.8643C124.592 42.203 124.592 42.5417 124.253 42.8804C124.253 43.219 124.253 43.219 124.253 43.5577C124.592 43.219 124.592 43.219 124.931 42.8804C124.592 43.219 124.592 43.5577 124.253 43.5577C124.253 43.5577 124.253 43.5577 124.253 43.8964V44.2351V44.5738C124.253 44.2351 124.592 43.8964 124.931 43.8964C124.592 44.2351 124.592 44.5738 124.253 44.9125C125.27 45.5899 125.27 45.5899 124.931 45.9286C125.27 45.9286 125.27 46.2673 125.27 46.2673C124.931 46.2673 124.931 45.9286 124.931 45.9286ZM115.786 35.4291C115.786 35.7678 115.786 35.7678 115.786 35.4291C115.786 35.7678 115.447 35.7678 115.786 35.4291ZM133.06 35.0904C132.721 34.7517 132.382 34.413 132.382 34.0743C132.721 34.413 132.721 34.413 133.06 34.7517C133.06 34.7517 133.398 34.7517 133.06 35.0904C133.398 34.7517 133.398 34.7517 133.06 35.0904ZM127.302 35.7678C127.64 35.7678 127.64 35.7678 127.302 35.7678V35.7678ZM122.899 38.4773C122.899 38.816 122.899 38.816 122.899 38.4773V38.4773ZM128.318 36.7839C128.318 36.4452 128.318 36.4452 128.318 36.7839V36.7839ZM129.334 39.1547C129.334 39.4934 129.334 39.4934 129.334 39.8321C129.334 39.8321 129.334 39.4934 129.334 39.1547C128.995 39.4934 128.995 39.1547 129.334 39.1547ZM140.172 31.0261C140.172 31.3648 140.172 31.3648 140.172 31.3648C139.833 31.0261 140.172 31.0261 140.172 31.0261ZM155.075 33.0582V32.7195C155.413 33.0582 155.413 33.0582 155.075 33.0582C155.413 33.3969 155.413 33.3969 155.075 33.0582ZM136.446 35.0904C136.108 35.0904 136.108 35.0904 136.446 35.0904C136.446 34.7517 136.108 34.7517 136.446 35.0904ZM134.076 31.7034C134.076 31.3648 134.076 31.3648 134.076 31.7034V31.7034ZM136.785 35.4291L137.124 35.0904C137.124 35.4291 137.124 35.4291 136.785 35.7678C136.785 35.7678 136.785 35.7678 136.785 35.4291ZM136.785 33.3969C136.785 33.0582 136.785 33.0582 136.785 33.3969C136.785 33.0582 136.785 32.7195 137.124 32.7195C137.124 32.7195 137.124 33.0582 136.785 33.3969ZM134.753 32.0421C135.092 31.7034 135.092 32.0421 134.753 32.0421C134.753 31.7034 134.753 31.7034 134.414 31.3648C134.753 31.3648 135.092 31.3648 134.753 32.0421C135.092 31.7034 135.092 32.0421 135.43 32.0421C135.43 31.7034 135.092 32.0421 134.753 32.0421ZM135.769 31.7034C135.769 31.3648 135.769 31.3648 135.769 31.7034C135.769 31.3648 136.108 31.3648 136.446 31.3648C136.108 31.3648 136.108 31.3648 135.769 31.7034ZM137.124 36.1065C137.124 35.7678 137.463 35.4291 137.463 35.4291C137.463 35.7678 137.124 36.1065 137.124 36.1065ZM157.784 25.607C157.445 25.2683 157.445 25.607 157.784 25.607V25.607ZM135.769 31.3648C135.43 31.3648 135.43 31.3648 135.769 31.3648C135.43 31.3648 135.43 31.3648 135.092 31.3648C135.092 31.3648 134.753 31.3648 134.753 31.0261C134.753 31.0261 135.092 31.0261 135.092 30.6874C135.43 30.3487 136.108 30.01 136.446 29.6713C136.785 30.3487 136.108 30.6874 135.769 31.3648ZM116.464 28.6552C116.464 28.3165 116.464 28.3165 116.464 28.6552C116.802 28.3165 116.464 28.3165 116.464 28.6552C116.802 28.3165 116.802 28.3165 116.464 28.6552C116.464 28.3165 116.802 28.3165 116.464 28.6552ZM116.802 34.0743V34.413C116.802 34.413 116.802 34.413 116.464 34.413C116.464 34.413 116.464 34.413 116.802 34.0743ZM161.849 63.5407H161.51C161.51 63.202 161.849 63.5407 161.849 63.5407ZM157.445 58.1216C156.768 58.4603 156.429 58.799 155.752 58.799L154.736 58.1216C155.075 57.7829 155.413 57.7829 155.413 57.4442C155.752 57.1055 156.091 56.7668 156.091 56.4281C157.107 56.7668 158.123 56.4281 159.139 56.4281C158.462 57.4442 157.784 57.7829 157.445 58.1216ZM156.768 55.7507C157.107 55.412 157.107 55.412 156.768 55.7507C157.107 55.7507 157.445 56.0894 157.784 56.0894C158.123 56.0894 158.123 56.4281 158.462 56.4281C158.123 56.4281 157.445 56.4281 157.107 56.4281C156.768 56.4281 156.429 56.4281 156.091 56.4281C156.429 56.4281 156.768 56.0894 156.768 55.7507ZM152.026 55.7507C153.042 56.0894 153.72 55.0733 154.059 54.396C154.059 54.396 154.397 54.396 154.736 54.0573H155.075H155.413V53.7186C155.413 53.7186 155.075 53.7186 154.736 53.7186C155.075 53.3799 155.075 53.3799 155.075 53.0412H154.736C154.397 53.0412 154.397 53.0412 154.397 53.3799C154.397 53.0412 154.397 53.0412 154.397 52.7025C154.397 53.0412 154.059 53.0412 154.059 53.3799C154.059 53.3799 154.059 53.3799 154.059 53.7186H153.72C153.381 53.7186 153.381 54.396 153.72 54.396C153.381 54.7346 153.042 54.7346 152.365 55.0733V54.7346C152.365 54.0573 152.365 53.3799 152.365 52.7025C153.042 52.3638 153.72 52.0251 154.397 51.6864H154.736C155.075 51.6864 155.413 51.6864 155.752 51.6864C155.752 52.0251 155.752 52.0251 155.413 52.3638C155.413 52.3638 155.413 52.3638 155.413 52.7025V53.0412C155.752 53.7186 156.429 54.396 156.768 54.7346C156.768 54.7346 156.768 55.0733 156.429 55.0733C156.091 55.7507 155.413 56.4281 154.736 57.1055C154.736 57.4442 154.397 57.4442 154.059 57.7829L153.381 57.1055C153.381 56.7668 153.381 56.4281 153.381 56.0894C153.381 56.4281 153.042 56.4281 153.042 56.7668L151.688 55.7507C151.688 56.0894 151.688 56.0894 152.026 55.7507ZM135.43 49.6542C135.43 49.9929 135.092 49.9929 135.43 49.6542C135.43 49.9929 135.43 49.9929 135.43 49.9929C135.092 49.9929 135.092 49.6542 135.43 49.6542C135.092 49.9929 134.753 50.3316 134.414 51.009C134.414 50.3316 134.414 49.6542 134.076 49.3155C134.076 50.6703 133.398 52.0251 133.06 53.3799V53.7186H128.656C128.656 52.7025 128.656 51.6864 128.656 51.009C128.318 51.3477 128.318 51.6864 127.979 52.3638C127.979 52.0251 127.979 51.3477 127.64 51.009C127.64 51.009 127.64 51.3477 127.302 51.3477C127.302 51.3477 127.302 51.3477 127.302 51.009C127.302 50.6703 126.963 49.6542 126.624 48.6382C126.286 47.6221 125.608 46.606 125.27 45.9286C125.608 45.9286 125.947 45.5899 125.947 45.2512C125.947 45.2512 125.947 45.2512 126.286 45.2512C126.624 44.9125 126.963 44.5738 126.963 44.2351C126.963 43.8964 126.963 43.8964 126.963 43.5577V43.219C126.963 43.5577 126.963 43.5577 126.963 43.8964C127.302 43.5577 127.302 43.219 127.64 42.8804C127.979 42.203 127.64 41.5256 127.979 40.8482C127.979 41.1869 128.318 41.5256 128.318 41.8643C128.318 41.8643 128.318 41.8643 128.318 41.5256C128.318 41.1869 128.656 40.8482 128.656 40.1708C128.656 40.1708 128.656 40.1708 128.656 39.8321C128.656 40.1708 128.995 40.8482 128.995 41.1869C128.995 41.5256 128.995 42.203 128.995 42.5417C129.334 42.5417 129.334 42.203 129.334 41.8643C129.334 41.5256 129.673 41.1869 129.673 40.8482C129.673 40.5095 129.334 40.1708 129.334 39.4934C129.334 39.8321 129.673 39.8321 129.673 40.1708C129.673 39.8321 129.673 39.8321 129.673 39.4934C130.011 39.8321 130.011 40.1708 130.35 40.5095C130.35 39.8321 130.35 39.1547 130.35 38.1386V37.4612C130.689 38.1386 131.027 38.816 131.366 39.1547C131.366 38.816 131.366 38.4773 131.366 38.4773C131.366 38.816 131.366 39.4934 131.705 39.8321C132.043 40.1708 132.382 40.5095 132.721 40.8482C132.721 40.5095 132.721 39.8321 132.721 39.4934C132.382 38.816 132.382 38.4773 131.705 37.7999C132.043 37.7999 132.043 38.1386 132.382 38.4773V38.1386V37.7999C132.043 37.4612 131.705 37.1226 131.366 36.7839C131.705 36.7839 131.705 37.1226 132.043 37.1226V36.7839C131.705 36.4452 131.366 36.1065 131.705 35.4291C132.043 35.7678 132.382 36.1065 132.721 36.4452C133.06 36.7839 133.737 37.1226 133.737 37.7999V37.4612C133.398 36.7839 133.06 36.4452 132.721 35.7678C133.06 36.1065 133.398 36.4452 133.737 36.7839C133.737 36.4452 133.398 36.1065 133.398 35.7678C133.06 35.4291 132.382 35.0904 132.043 34.7517C132.382 34.7517 132.721 34.7517 132.721 35.0904C132.721 35.0904 132.721 34.7517 132.382 34.7517C132.043 34.7517 132.043 34.413 131.705 34.413V34.0743C131.705 34.0743 131.705 34.0743 131.366 33.7356C131.366 33.3969 131.027 33.3969 131.027 33.0582C131.027 33.0582 131.027 33.0582 131.366 33.0582C131.705 33.3969 132.043 33.7356 132.382 34.0743C132.382 33.7356 132.382 33.7356 132.382 33.3969C132.382 33.7356 132.721 33.7356 132.721 34.0743L133.06 34.413C133.06 34.0743 132.721 33.7356 132.721 33.7356C133.06 34.0743 133.06 34.413 133.06 34.7517C133.06 34.7517 133.06 34.7517 133.06 35.0904L133.398 35.4291V35.0904C133.398 35.4291 133.737 35.4291 133.737 35.7678C134.076 36.1065 134.414 36.1065 134.753 36.1065L134.414 35.4291L134.753 35.0904V35.4291L135.092 35.7678C135.092 35.4291 135.092 35.0904 135.092 35.0904C135.43 35.4291 135.43 35.7678 135.43 36.1065C135.769 36.4452 136.108 36.4452 136.446 36.7839C136.446 36.7839 136.446 36.4452 136.108 36.1065C136.108 35.7678 135.769 35.4291 135.092 34.7517C135.43 35.0904 135.769 35.0904 135.769 35.4291L136.108 35.7678C136.108 35.7678 136.108 35.7678 136.108 36.1065C136.108 36.1065 136.108 36.1065 136.446 36.1065C136.446 36.4452 136.785 36.4452 136.785 36.7839C136.785 36.7839 136.785 37.1226 137.124 37.1226C137.124 37.1226 137.124 37.1226 137.124 37.4612C137.124 37.7999 137.124 38.4773 137.124 38.816C137.124 39.1547 137.124 39.4934 137.463 39.8321C137.463 39.1547 137.801 38.4773 137.801 38.1386C137.801 37.4612 138.479 37.1226 138.817 36.4452C138.817 36.4452 138.817 36.4452 138.817 36.7839C138.817 37.4612 138.817 37.7999 138.479 38.4773V38.816C138.817 38.4773 138.817 38.1386 139.156 37.7999C138.817 38.816 138.479 39.4934 138.479 40.5095C138.479 41.1869 138.479 41.5256 138.817 42.203C138.817 41.8643 139.156 41.8643 139.156 41.5256C139.156 41.8643 139.156 41.8643 139.156 42.203C139.156 42.5417 139.156 42.8804 139.156 42.8804C139.156 43.219 139.495 43.8964 139.833 44.2351V44.5738C140.172 44.9125 140.172 45.2512 140.511 45.5899C139.833 46.2673 138.479 47.2834 137.801 48.2995C136.108 48.2995 135.43 48.9768 135.43 49.6542ZM141.866 42.8804L141.527 43.219C141.188 43.219 140.849 43.8964 140.172 44.2351C140.172 44.2351 140.172 43.8964 140.511 43.219C140.511 43.219 140.511 43.219 140.511 42.8804C140.511 42.5417 140.511 41.8643 140.172 41.5256C140.511 41.8643 140.511 42.203 140.511 42.5417C140.511 42.203 140.849 41.8643 140.849 41.8643C140.849 41.5256 141.188 41.5256 141.188 41.1869V40.8482C141.188 40.5095 140.849 40.1708 140.849 39.4934C141.188 39.8321 141.527 40.1708 141.527 40.5095C141.527 40.1708 141.866 40.1708 141.866 39.8321C141.527 39.4934 141.527 38.816 141.527 38.1386C141.866 38.1386 142.204 38.4773 142.204 38.816C142.543 37.4612 142.543 36.1065 142.204 34.7517C142.882 35.4291 142.882 36.4452 142.882 37.1226C142.882 37.7999 143.559 38.4773 143.22 39.1547C143.559 38.816 143.898 38.4773 144.236 38.1386V37.7999C144.236 37.1226 144.236 36.7839 143.898 36.4452C144.236 36.7839 144.575 37.1226 144.575 37.7999C144.914 37.1226 144.914 36.1065 144.575 35.7678C144.575 35.4291 144.236 35.4291 143.898 35.0904V34.413L144.236 34.7517L144.575 35.0904L144.914 35.4291C144.914 35.7678 144.914 35.7678 144.914 36.1065V35.7678C144.914 35.7678 144.914 36.1065 145.253 36.1065C145.253 36.1065 145.253 36.1065 145.253 35.7678C145.253 36.1065 145.253 36.4452 145.253 36.4452C145.253 36.7839 145.253 37.1226 144.914 37.4612C144.914 37.7999 144.575 38.1386 144.575 38.1386C144.236 40.8482 143.22 41.8643 141.866 42.8804ZM135.43 29.6713C135.092 30.01 134.753 30.3487 134.414 30.3487H134.076C134.414 30.3487 134.753 30.01 135.43 29.6713ZM51.7729 65.9116C51.7729 66.2503 51.7729 66.2503 51.7729 65.9116C51.4342 66.2503 51.0955 66.2503 50.7568 65.9116C51.0955 65.9116 51.0955 65.9116 51.0955 65.9116C51.0955 65.9116 50.7568 65.9116 50.7568 65.5729C51.0955 65.5729 51.0955 65.2342 51.0955 65.2342L51.7729 65.9116ZM50.0795 65.9116C50.0795 66.2503 50.0795 66.2503 50.0795 65.9116H49.7407C50.0794 66.2503 50.0795 66.2503 50.0795 65.9116ZM39.9186 74.7176L39.2412 75.0563C39.5799 75.0563 39.5799 74.7176 39.9186 74.7176Z" fill="#1B0D3A"/>
</g>
<defs>
<filter id="filter0_d_424_8209" x="0" y="0.865234" width="213.219" height="227.169" filterUnits="userSpaceOnUse" color-interpolation-filters="sRGB">
<feFlood flood-opacity="0" result="BackgroundImageFix"/>
<feColorMatrix in="SourceAlpha" type="matrix" values="0 0 0 0 0 0 0 0 0 0 0 0 0 0 0 0 0 0 127 0" result="hardAlpha"/>
<feOffset dy="4"/>
<feGaussianBlur stdDeviation="12"/>
<feComposite in2="hardAlpha" operator="out"/>
<feColorMatrix type="matrix" values="0 0 0 0 0.403922 0 0 0 0 0.0784314 0 0 0 0 0.866667 0 0 0 1 0"/>
<feBlend mode="normal" in2="BackgroundImageFix" result="effect1_dropShadow_424_8209"/>
<feBlend mode="normal" in="SourceGraphic" in2="effect1_dropShadow_424_8209" result="shape"/>
</filter>
</defs>
</svg>
