<svg width="213" height="246" viewBox="0 0 213 246" fill="none" xmlns="http://www.w3.org/2000/svg">
<g filter="url(#filter0_d_424_8217)">
<path opacity="0.7" d="M185.31 140.957C185.31 140.65 185.31 140.343 185.617 140.036C185.924 138.501 186.231 137.273 185.31 135.738C186.231 135.124 187.152 134.51 187.766 133.589C188.687 132.054 187.459 130.212 186.538 128.677C185.31 126.221 185.003 123.458 185.924 120.695C186.845 117.625 188.073 114.248 185.617 112.099C185.31 111.792 185.003 111.178 184.389 110.871C186.538 109.336 187.766 106.573 188.073 103.81C188.073 103.196 188.38 102.889 188.38 102.275C188.687 99.8194 187.766 99.5124 185.924 98.2844C185.003 97.6704 183.468 96.4424 182.24 95.5214C183.161 94.6004 184.082 93.3725 184.696 91.8375C184.696 91.5305 184.696 91.5305 184.389 91.5305C184.082 91.5305 184.082 91.8375 183.775 91.8375C181.012 91.8375 177.942 91.8375 174.872 92.4515C177.328 90.6095 181.626 88.7675 184.696 88.7675C185.003 87.5395 184.696 85.6975 183.468 85.3905C183.161 85.3905 182.854 85.3905 182.854 85.3905C182.547 85.3905 182.24 85.3905 181.933 85.3905C181.319 85.3905 181.012 85.6975 180.398 85.6975C180.398 85.6975 180.398 85.6975 180.091 85.6975C178.863 86.0045 177.942 86.6185 177.021 86.9255C176.1 87.5395 175.793 86.9255 176.407 86.3115C177.021 85.3905 177.942 84.7765 178.863 83.8555V83.5485C177.942 83.8555 177.021 84.1625 176.407 84.4695C176.1 84.4695 175.486 84.7765 175.179 85.0835C173.951 85.6975 173.03 86.3115 172.109 87.5395C172.109 87.5395 172.109 87.5395 172.109 87.8465C171.802 88.1535 171.495 88.4605 171.188 88.7675C171.188 88.7675 171.188 89.0745 170.881 89.0745C170.574 89.6885 170.267 89.9955 169.96 90.6095C169.653 91.2235 168.118 92.4515 168.118 93.0655C168.118 91.8375 169.039 90.6095 169.96 89.6885C170.881 88.4605 171.188 87.2325 171.802 86.3115C170.267 87.2325 169.039 87.8465 167.811 88.7675C167.811 87.5395 168.118 86.3115 168.425 86.0045C169.039 85.6975 169.653 85.6975 170.267 85.6975C171.188 85.3905 171.802 85.0835 172.723 84.7765C173.03 84.4695 173.644 84.4695 173.951 84.1625C174.872 83.8555 176.1 82.9345 176.714 81.7065C177.021 81.0925 177.942 79.8646 177.021 79.2506C176.407 80.7855 174.258 82.0135 172.723 82.3205C175.179 81.0925 177.635 78.0226 178.249 75.2596C177.328 75.8736 175.793 77.1016 174.565 77.1016C173.951 77.1016 173.337 77.1016 172.723 76.7946C173.337 76.4876 174.258 75.8736 174.872 75.8736C175.793 75.5666 176.714 75.2596 177.635 74.6456C178.863 73.4176 178.863 70.6546 178.863 69.1196C178.556 69.4266 175.793 71.8826 176.1 70.3476C176.407 69.7336 177.328 69.1196 177.635 68.1986C178.863 66.3567 178.249 63.5937 177.021 62.0587C177.328 63.9007 176.407 65.7427 174.872 66.9707C175.486 65.7427 175.793 65.1287 176.1 63.5937C176.407 62.3657 176.407 60.8307 176.407 59.6027C176.407 59.2957 176.407 58.9887 176.407 58.6817C176.407 58.3747 176.407 58.0677 176.407 58.0677V57.7607C176.407 57.4537 176.407 57.4537 176.1 57.1467V56.8397V56.5327C176.1 56.5327 176.1 56.2257 175.793 56.2257C174.872 57.4537 173.951 58.0677 172.723 58.9887C171.802 59.6027 169.653 60.8307 169.653 62.3657C169.653 63.2867 170.574 65.7427 169.96 66.6637L169.653 66.3567L169.346 66.0497V65.7427C169.039 64.8217 168.732 63.2867 168.732 62.6727C168.118 63.2867 167.504 63.9007 166.89 64.2077C166.583 64.5147 166.276 64.8217 166.276 65.1287C166.276 65.1287 166.276 65.4357 165.969 65.4357L165.662 65.7427C165.355 66.3567 165.355 67.2776 165.355 68.1986C165.662 69.7336 166.276 71.2686 166.89 72.8036C166.89 72.8036 166.89 73.1106 167.197 73.1106C165.969 72.4966 163.513 69.7336 163.82 68.1986C163.513 69.7336 162.592 70.9616 162.285 72.4966C162.285 73.4176 162.899 74.3386 163.513 75.2596C164.127 76.1806 164.741 77.1016 165.048 78.0226C163.206 77.7156 161.671 74.3386 161.364 72.8036C160.75 74.6456 160.443 77.1016 160.75 78.9436C161.364 80.7855 162.592 82.0135 164.127 82.9345C165.355 83.5485 166.583 84.4695 167.197 85.3905C167.197 85.6975 167.197 85.6975 167.197 86.0045C167.197 87.5395 166.89 88.7675 166.583 89.9955C166.276 90.3025 165.969 90.3025 165.662 90.6095C164.434 91.5305 163.513 93.0655 162.592 94.9074C162.285 95.5214 161.978 96.4424 161.671 97.3634L157.68 94.6004C157.987 93.3725 158.294 92.1445 158.294 91.5305C158.908 88.7675 159.829 86.3115 160.136 83.5485C160.136 81.7065 160.136 80.1716 159.522 78.6366C158.908 76.7946 157.987 75.2596 156.759 73.1106C156.759 74.3386 156.452 75.5666 156.452 76.7946C156.452 78.0226 156.759 79.2506 156.452 80.1716C156.759 79.8646 156.145 78.0226 156.145 77.4086C156.145 76.7946 156.145 76.1806 156.145 75.8736C156.145 75.2596 156.145 74.6456 155.838 74.0316C155.531 72.8036 155.224 71.8826 154.61 70.6546L154.303 70.3476C153.689 69.4266 152.768 68.8126 152.154 67.8916H151.847C152.154 68.8126 152.768 70.0406 152.768 70.9616C152.768 71.8826 152.461 72.1896 151.847 71.2686C150.926 69.7336 149.392 67.5846 147.55 67.2777C146.936 66.9707 146.322 67.2777 146.015 67.8916C145.708 68.1986 145.708 68.5056 145.401 68.5056C145.094 68.8126 145.094 69.1196 145.094 69.4266C147.55 70.6546 150.006 74.3386 151.233 76.7946C149.392 74.9526 146.936 73.7246 144.787 71.8826L144.48 71.5756H144.173C144.173 74.6456 144.173 76.7946 146.015 79.2506C147.55 81.0925 149.392 82.6275 151.233 84.1625C150.619 83.8555 150.006 83.5485 149.392 83.5485C147.55 82.9345 146.322 81.7065 144.787 80.4785H144.48C145.708 83.2415 146.629 86.0045 149.085 87.8465V88.1535L147.857 87.8465C147.243 87.2325 146.629 86.6185 146.015 86.3115C146.015 86.6185 146.015 86.9255 146.015 87.5395C146.015 86.0045 143.252 84.4695 139.875 82.9345C134.963 80.7855 128.823 79.2506 127.595 78.6366C125.446 78.0226 123.604 77.4086 121.762 76.4876C121.762 74.6456 121.762 72.8036 121.455 71.2686C121.762 72.4966 122.683 75.2596 123.604 76.1806C123.604 76.1806 124.218 75.2596 124.525 74.3386C124.218 72.4966 124.218 70.6546 123.911 68.8126C124.525 70.0406 124.832 71.2686 125.139 72.8036C125.446 72.1896 125.446 71.8826 125.753 71.8826C126.06 71.2686 126.06 70.9616 126.06 70.3476C125.446 67.8916 124.218 65.7427 122.376 63.9007C123.911 65.1287 125.139 66.6637 126.367 68.1986C126.367 67.5846 126.367 67.2776 126.06 66.6637C126.367 67.2776 126.674 67.8916 127.288 68.5056V68.1986C127.288 66.9707 127.595 66.0497 127.595 64.8217C127.902 66.0497 127.902 67.5846 127.595 69.1196C127.902 69.4266 128.209 69.7336 128.516 70.0406C128.516 68.8126 129.13 67.5846 129.437 66.6637C129.744 65.1287 130.051 63.2867 130.051 61.7517C130.051 60.8307 129.744 59.9097 130.051 59.2957L130.358 59.6027C130.358 59.6027 130.665 59.9097 130.665 60.2167C131.279 61.1377 132.2 62.6727 132.2 63.2867C132.2 62.0587 132.507 60.5237 132.507 59.2957C133.121 61.1377 133.428 63.2867 133.428 65.4357C134.042 66.3567 134.349 67.2776 134.656 68.1986C134.963 66.3567 134.656 64.8217 134.963 62.9797C135.577 64.2077 136.498 65.4357 136.805 66.9707C137.112 68.5056 137.419 70.0406 137.726 71.2686C138.647 68.8126 138.647 65.7427 138.647 63.2867C138.647 62.6727 138.647 61.7517 138.34 61.1377C138.34 60.8307 138.34 60.8307 138.34 60.5237C138.34 59.9097 138.033 59.6027 138.033 58.9887C138.033 58.3747 137.726 58.0677 137.726 57.4537C138.033 57.4537 138.34 57.4537 138.647 57.7607C138.647 57.4537 138.34 57.1467 138.34 56.8397C138.647 57.1467 138.954 57.4537 139.261 58.0677C140.182 58.0677 140.796 58.3747 141.103 58.3747V58.0677C141.103 57.7607 141.103 57.7607 141.103 57.4537C141.103 57.1467 141.103 57.1467 141.103 56.8397C141.103 56.5327 141.103 56.2257 140.796 56.2257C140.796 55.9187 140.796 55.9187 140.489 55.6117C140.489 55.3047 140.182 54.9977 140.182 54.9977C139.875 54.3837 139.568 53.7698 139.568 53.1558C139.261 52.2348 138.954 51.3138 138.34 50.3928C139.568 50.6998 140.489 51.3138 141.41 51.9278C141.103 51.6208 140.796 50.6998 140.489 50.0858C140.182 49.4718 138.954 47.0158 135.884 44.5598C137.419 45.1738 138.647 46.0948 139.568 47.0158C140.182 47.6298 141.103 48.2438 141.717 48.5508C141.717 47.9368 141.717 47.3228 141.41 46.7088C142.024 47.3228 142.638 48.5508 142.945 49.4718C144.173 50.3928 145.094 51.3138 146.015 52.2348C145.401 49.4718 142.945 46.4018 141.103 44.2528C141.103 42.1038 139.568 40.8758 138.033 39.6479C136.805 38.7269 135.577 38.1129 134.042 37.4989C135.27 38.1129 136.805 38.1129 138.033 38.7269C138.647 39.0339 139.261 39.0339 139.875 39.3409C139.261 38.1129 138.647 36.5779 137.726 35.3499C138.34 35.9639 139.568 36.5779 141.103 39.6479C141.41 39.6479 141.717 39.9549 142.024 39.9549C142.638 39.9549 142.945 40.2619 143.559 40.2619C143.252 39.6479 142.638 38.7269 142.024 38.1129C142.945 38.7269 143.559 39.6479 144.173 40.5688C145.708 41.1828 147.55 41.7968 149.085 42.7178C147.55 40.8758 145.708 38.4199 143.559 37.1919C141.103 35.6569 138.34 34.4289 135.884 33.8149C136.191 33.8149 136.805 33.8149 137.112 34.1219C137.419 34.1219 137.726 34.1219 138.033 34.4289C137.419 33.5079 136.498 32.5869 135.577 31.9729C137.112 32.2799 138.34 33.2009 139.261 34.1219C139.568 34.4289 139.568 34.4289 139.875 34.7359C140.796 35.0429 142.024 35.0429 142.945 35.3499C142.331 34.4289 141.41 33.5079 140.182 32.5869C141.717 32.8939 142.945 33.5079 144.173 34.7359C144.173 35.0429 144.48 35.0429 144.48 35.3499C145.094 35.3499 145.708 35.6569 146.322 35.6569C146.015 35.3499 145.708 34.7359 145.401 34.4289C146.015 34.7359 146.629 35.3499 146.936 35.9639C147.857 35.9639 148.778 36.2709 149.699 36.2709C149.699 35.9639 149.392 35.6569 149.392 35.6569H149.699C149.699 35.0429 149.392 34.4289 149.085 33.8149C148.471 32.2799 147.55 31.0519 146.322 30.1309C145.094 28.9029 143.252 27.9819 141.717 27.3679C140.182 27.0609 138.954 26.7539 137.419 27.3679C138.34 26.7539 139.568 26.14 140.796 25.526C139.875 24.912 138.954 24.298 138.033 23.991C137.726 23.991 137.112 23.991 136.805 23.991C135.884 23.991 134.656 24.298 133.735 24.298C134.349 23.991 135.27 23.684 136.191 23.07C136.191 23.07 135.884 23.07 135.884 22.763C135.577 22.763 134.963 22.456 134.349 22.456H134.042C134.349 22.456 134.656 22.456 134.963 22.456C134.349 21.842 133.735 21.228 133.121 21.228C134.042 21.228 135.27 21.842 135.884 22.763C136.805 22.763 137.726 23.07 138.647 23.377C137.726 22.456 135.884 21.535 134.349 20.921C134.042 20.614 133.735 20.614 133.121 20.614C133.121 20.614 133.121 20.614 133.428 20.614C131.586 19.693 129.13 20 127.288 20.307C125.446 20.614 123.604 21.228 122.069 21.842C120.841 21.842 119.613 22.149 118.692 22.763C116.85 23.684 114.701 24.605 112.859 25.833C112.859 25.833 112.859 26.14 112.552 26.14C112.552 26.14 112.245 26.14 112.245 26.447C111.938 26.7539 111.631 26.7539 111.631 27.0609C111.017 27.3679 110.71 27.9819 110.403 28.2889C109.482 29.5169 108.561 30.4379 107.947 31.6659C107.947 31.3589 107.947 30.7449 108.254 30.4379C108.561 28.5959 108.254 26.447 108.868 24.605C108.254 24.298 107.64 24.298 106.719 24.298C106.719 24.912 106.719 25.219 106.719 25.833C106.719 25.833 106.412 26.14 106.412 25.833C106.105 25.219 105.798 24.912 105.491 24.298C104.57 24.298 103.649 24.605 102.728 24.912C100.579 25.219 98.4299 25.833 96.5879 26.14C96.2809 26.14 95.9739 26.447 95.6669 26.447C95.3599 26.447 94.7459 26.754 94.7459 26.754H95.0529C93.8249 27.0609 92.2899 27.6749 91.3689 28.2889C90.1409 28.9029 88.913 29.8239 88.299 30.7449C86.764 30.7449 85.536 30.7449 84.001 30.7449C84.922 31.0519 85.843 31.3589 86.457 31.6659C84.922 31.9729 83.694 31.3589 82.159 31.0519C81.852 31.0519 81.852 31.0519 81.545 30.7449C81.238 30.7449 81.238 30.7449 80.931 30.7449C79.703 31.0519 78.782 31.6659 77.247 32.2799C78.475 32.2799 79.703 32.5869 80.624 32.8939C78.782 33.2009 76.94 33.5079 74.7911 34.1219C73.5631 34.7359 72.0281 35.3499 70.4931 36.2709C70.4931 36.2709 70.4931 36.2709 70.1861 36.2709L69.8791 36.5779C69.5721 36.8849 69.5721 36.8849 69.2651 37.1919L68.9581 37.4989C68.6511 37.8059 68.3441 38.1129 68.0371 38.1129C68.0371 38.1129 68.0371 38.1129 67.7301 38.4199C67.4231 38.7269 67.1161 39.0339 66.8091 39.3409C66.5021 39.6479 66.1951 39.9549 65.8881 40.2619C65.8881 40.2619 66.1951 40.2619 66.1951 39.9549C66.8091 39.9549 67.4231 39.9549 68.0371 39.9549C68.3441 39.6479 68.6511 39.3409 68.9581 39.3409C69.5721 38.7269 70.1861 38.4199 70.8001 37.8059C70.1861 38.4199 69.5721 39.3409 68.9581 39.9549C69.2651 39.9549 69.5721 39.9549 69.8791 39.9549C67.7301 41.1828 65.5811 42.4108 63.7391 44.2528C61.8972 46.0948 60.6692 48.5508 59.4412 50.6998C59.7482 50.3928 59.7482 50.3928 60.0552 50.3928C59.7482 50.6998 59.7482 50.6998 59.4412 50.6998C60.0552 50.6998 60.6692 50.6998 61.2832 50.6998C61.5902 50.3928 61.8972 50.0858 62.2042 50.0858C62.8182 49.4718 63.4321 49.1648 64.0461 48.5508C63.4321 49.1648 62.8182 50.0858 62.2042 50.6998C62.8182 50.6998 63.4321 50.6998 64.0461 50.6998C64.9671 49.4718 65.8881 47.9368 67.1161 46.7088C66.5021 47.9368 65.8881 49.1648 65.2741 50.3928H65.5811C64.6601 52.2348 63.4321 54.3837 62.8182 56.5327C62.5112 57.1467 62.5112 58.0677 62.5112 58.6817C63.1252 57.4537 64.0461 56.5327 64.9671 55.3047C65.2741 54.3837 65.2741 53.1558 65.8881 52.2348C65.8881 52.8488 65.8881 53.4628 66.1951 54.0767C66.8091 53.4628 67.4231 52.8488 68.0371 51.9278C68.9581 50.6998 69.8791 49.4718 71.4141 48.5508C68.6511 51.6208 68.3441 54.0767 68.0371 54.9977C67.7301 55.6117 67.7301 56.5327 67.4231 56.8397C68.3441 55.9187 69.8791 54.9977 71.1071 54.0767C71.4141 52.8488 71.7211 51.6208 72.0281 50.6998C71.7211 51.6208 71.7211 52.5418 71.7211 53.4628C72.3351 53.1558 72.6421 52.5418 73.2561 52.2348C73.2561 51.3138 73.5631 50.6998 73.8701 49.7788C74.1771 48.8578 74.4841 47.9368 74.4841 46.7088C74.7911 47.9368 74.7911 49.4718 74.4841 50.6998C75.0981 50.0858 75.4051 49.4718 75.7121 48.5508C76.3261 49.4718 76.633 49.1648 76.633 48.8578C77.247 47.9368 77.554 47.3228 78.475 46.4018C77.861 47.9368 77.247 49.1648 76.326 50.6998C76.0191 51.3138 75.4051 52.2348 75.0981 52.8488C73.8701 54.3837 72.9491 55.9187 72.6421 57.4537C72.6421 57.4537 73.8701 56.5327 73.8701 56.2257C74.4841 55.6117 75.0981 55.3047 75.7121 54.6907C76.94 53.7698 78.475 52.8488 80.317 52.5418C79.396 54.0767 78.168 55.3047 77.247 56.5327C78.168 55.9187 79.089 55.3047 80.01 54.9977C78.475 56.8397 76.633 58.0677 75.0981 59.9097L74.7911 60.2167L74.4841 60.5237C74.1771 60.8307 74.1771 61.1377 73.8701 61.7517C74.7911 61.1377 75.7121 60.5237 76.94 60.2167C75.0981 61.7517 73.5631 63.2867 72.3351 64.8217C72.0281 65.7427 71.7211 66.9707 71.4141 67.8916C72.3351 66.3567 73.5631 65.1287 74.7911 64.2077C74.7911 64.2077 75.0981 64.2077 75.0981 64.5147C73.5631 66.3567 72.6421 68.1986 71.7211 70.3476C71.7211 70.6546 72.0281 70.9616 72.0281 71.2686C72.6421 69.4266 74.4841 67.8916 75.7121 66.6637C76.633 65.4357 77.554 64.2077 78.475 62.9797C78.782 64.5147 77.861 66.0497 77.247 67.5846C76.94 68.1986 76.633 68.5056 76.633 68.8126C77.247 68.1986 77.861 67.5846 78.475 66.9707H78.782C77.861 68.1986 76.94 69.4266 76.0191 70.6546C76.0191 70.9616 75.7121 71.2686 75.7121 71.5756C75.7121 72.1896 75.4051 72.8036 75.4051 73.1106C76.0191 72.1896 76.94 71.2686 77.861 70.9616C76.326 72.4966 75.7121 74.6456 75.0981 76.4876C75.0981 78.0226 75.7121 79.5576 76.0191 81.0925C77.247 80.1716 78.168 78.9436 78.782 77.4086V77.1016C78.782 75.5666 79.089 74.0316 79.089 72.4966C79.089 72.4966 79.089 72.4966 79.396 72.4966C79.703 73.4176 79.703 74.3386 79.703 75.2596C80.624 73.1106 81.238 70.9616 82.159 68.8126C81.852 69.1196 82.159 70.6546 82.159 71.2686C82.159 74.0316 82.466 76.4876 82.466 79.2506C83.387 78.0226 84.001 76.7946 84.615 75.5666C84.615 74.0316 84.922 72.4966 84.615 70.9616C84.922 72.1896 85.229 73.1106 85.229 74.3386C85.536 73.7246 85.843 73.4176 86.15 72.8036C86.15 72.8036 86.15 72.8036 86.15 72.4966C86.457 69.1196 87.071 65.7427 86.764 62.3657C87.378 64.8217 87.992 67.2776 87.685 69.7336C87.685 69.4266 87.992 69.4266 87.992 69.1196C88.299 68.1986 88.606 67.2777 88.606 66.3567C89.22 63.5937 88.606 61.4447 88.913 58.6817C88.913 60.2167 89.5269 61.7517 89.8339 63.2867C89.8339 63.5937 89.8339 63.9007 89.8339 64.2077C90.4479 62.0587 90.4479 59.6027 91.3689 57.4537C91.3689 57.7607 91.3689 57.7607 91.3689 58.0677C91.3689 58.3747 91.0619 58.6817 91.0619 58.6817C91.0619 58.9887 91.0619 58.9887 91.0619 59.2957C91.3689 58.9887 91.3689 58.9887 91.6759 58.9887C91.6759 59.2957 91.6759 59.6027 91.6759 59.9097C91.3689 60.5237 91.0619 60.8307 90.7549 61.4447C90.7549 62.3657 90.4479 63.5937 90.4479 64.5147C90.7549 64.2077 91.0619 63.5937 91.3689 63.2867C91.3689 63.5937 91.3689 63.5937 91.3689 63.9007C91.3689 63.9007 91.6759 63.5937 91.9829 63.2867C91.3689 64.2077 91.0619 65.1287 90.7549 66.0497V66.3567C90.7549 67.5846 90.7549 68.8126 91.0619 69.7336C91.3689 68.8126 91.6759 68.1986 92.2899 67.5846C91.9829 68.8126 91.6759 70.3476 91.6759 71.8826C91.9829 72.8036 92.2899 74.0316 92.9039 74.9526C93.5179 75.5666 94.1319 76.7946 94.7459 77.1016V76.7946C94.1319 75.2596 94.1319 73.4176 93.8249 71.8826C93.5179 70.3476 94.1319 68.8126 94.1319 66.9707C94.1319 67.2776 94.1319 67.2776 94.1319 67.5846C94.4389 69.1196 94.7459 70.3476 95.3599 71.5756C95.3599 71.8826 95.3599 72.1896 95.6669 72.1896C95.6669 70.9616 95.9739 70.0406 96.2809 69.1196C96.8949 71.5756 96.5879 74.0316 97.8159 76.1806C98.4299 77.7156 99.3509 78.6366 100.272 79.8646C100.272 79.2506 100.272 78.3296 100.579 77.7156C100.579 78.3296 100.886 78.6366 100.886 79.2506C101.193 79.8646 101.193 80.7855 101.5 81.3995C101.807 82.3205 103.035 83.2415 103.956 83.8555H103.649C103.342 83.8555 103.035 83.8555 102.728 83.8555C102.421 83.8555 102.421 83.8555 102.114 83.8555C101.807 83.8555 101.807 83.5485 101.5 83.5485C101.193 83.2415 100.579 83.2415 100.272 82.9345C100.272 82.9345 99.9649 82.9345 99.9649 82.6275C99.6579 82.3205 99.3509 82.3205 99.0439 82.0135C99.0439 82.0135 99.0439 82.0135 98.7369 82.0135C98.1229 81.7065 97.8159 81.0925 97.5089 80.7855C96.8949 80.1716 96.5879 79.5576 96.2809 78.6366C96.2809 78.3296 95.9739 78.3296 95.9739 78.0226C95.6669 78.0226 95.3599 78.0226 95.0529 78.0226C94.4389 78.0226 93.8249 78.0226 93.2109 78.0226C92.5969 78.0226 91.9829 78.0226 91.3689 78.0226C90.4479 78.3296 89.5269 78.6366 88.299 78.6366C87.992 78.6366 87.992 78.6366 87.685 78.6366C87.378 78.6366 87.378 78.6366 87.071 78.6366C86.15 78.6366 85.229 78.6366 84.308 78.6366C84.308 79.2506 84.308 79.8646 84.308 80.4785C84.308 81.7065 84.001 82.9345 84.001 84.1625C84.001 84.7765 83.694 85.6975 83.694 86.3115H83.08C82.773 86.0045 82.466 85.3905 82.159 85.0835L81.852 84.7765C81.852 84.4695 81.852 84.4695 81.545 84.1625C81.545 83.8555 81.238 83.8555 81.238 83.5485C81.238 83.8555 81.238 83.8555 81.238 84.1625V84.4695V84.7765C81.238 85.0835 80.931 85.3905 80.931 86.0045V86.3115C80.931 86.3115 80.931 86.3115 80.931 86.6185H78.168L76.326 87.2325C75.4051 86.9255 74.7911 86.6185 73.8701 86.6185C73.2561 86.6185 72.6421 86.6185 72.0281 86.6185C70.8001 86.6185 69.5721 87.2325 68.3441 87.2325C68.0371 87.2325 67.7301 87.2325 67.7301 87.2325C67.4231 87.2325 67.1161 87.2325 67.1161 87.2325C66.8091 87.2325 66.5021 87.2325 66.1951 86.9255C66.5021 86.9255 66.5021 87.2325 66.8091 87.2325L67.1161 87.5395L67.4231 87.8465C67.7301 88.1535 68.0371 88.4605 68.3441 88.7675L68.6511 89.0745C68.9581 89.3815 69.2651 89.6885 69.5721 89.6885C69.8791 89.9955 70.1861 89.9955 70.4931 90.3025C70.1861 90.3025 69.8791 90.3025 69.5721 90.3025C68.3441 90.3025 66.5021 89.9955 65.2741 90.3025C65.2741 90.3025 65.2741 90.3025 64.9671 90.3025H64.6601C63.7391 90.6095 63.4322 91.2235 62.2042 91.5305C59.7482 92.1445 56.0642 91.5305 54.5292 89.3815C52.6872 86.6185 55.4502 85.3905 56.9852 83.2415C59.1342 80.4785 61.5902 80.4785 62.8182 84.1625C63.7391 86.6185 61.2832 90.3025 58.2132 88.4605C55.1432 86.6185 59.1342 82.9345 61.2832 86.3115C61.8972 82.3205 56.3712 83.2415 56.0642 86.6185C55.4502 92.4515 65.5811 90.3025 66.1951 85.6975C66.5021 83.2415 64.9671 81.0925 63.1252 79.5576C62.2042 78.6366 60.3622 77.4086 59.1342 77.7156C56.3712 78.3296 56.0642 82.0135 54.5292 83.8555C53.3012 85.6975 49.6173 86.9255 50.8452 89.6885C51.7662 91.5305 55.1432 91.8375 56.9852 92.4515C58.5202 92.7585 58.5202 93.3725 58.5202 93.9865C58.2132 94.9074 56.6782 96.1354 56.3712 97.3634C56.3712 97.6704 56.3712 97.6704 56.3712 97.9774C56.6782 98.8984 56.0642 98.5914 55.1432 98.8984C54.5292 98.8984 53.9152 99.2054 53.3012 99.2054C52.3802 101.047 52.0732 102.275 52.0732 103.81C52.0732 104.117 51.4592 104.424 50.8452 104.731C51.1522 104.117 51.7662 103.196 51.7662 102.582C51.1522 103.196 50.2312 103.81 49.3103 103.81C49.0033 103.81 48.3893 103.81 48.0823 103.503C48.6963 103.196 49.0033 102.889 49.6173 102.889C50.2312 102.275 50.8452 102.275 51.4592 101.661C52.0732 100.74 52.0732 98.8984 52.0732 97.9774C51.7662 98.2844 49.9242 100.126 50.2312 98.8984C50.2312 98.2844 50.8452 97.9774 51.1522 97.3634C51.7662 96.1354 51.4592 94.2934 50.5382 93.0655C50.8452 94.2934 50.2312 95.5214 49.3103 96.4424C49.6173 95.8284 49.9242 95.2144 50.2312 94.2934C50.2312 93.3725 50.5382 92.4515 50.2312 91.5305C50.2312 91.2235 50.2312 90.9165 50.2312 90.6095V90.3025C50.2312 89.9955 49.9243 89.6885 49.9243 89.3815C49.9243 89.3815 49.9242 89.0745 49.6173 89.0745C49.0033 89.9955 48.3893 90.6095 47.4683 91.2235C46.8543 91.8375 45.3193 92.7585 45.3193 93.6795C45.3193 94.2934 45.9333 96.1354 45.6263 96.4424L45.3193 96.1354L45.0123 95.8284V95.5214C45.0123 95.5214 45.0123 95.2144 44.7053 95.2144C44.7053 94.6004 44.3983 93.9865 44.3983 93.6795C44.0913 93.9865 43.4773 94.2934 43.1703 94.9074C43.1703 94.9074 42.8633 95.2144 42.8633 95.5214C42.5563 96.1354 42.5563 96.4424 42.8633 97.3634C43.1703 98.5914 43.4773 99.5124 44.0913 100.433V100.74C43.1703 100.433 41.3283 98.2844 41.6353 97.3634C41.3283 98.2844 40.7143 99.2054 40.7143 100.126C40.7143 100.74 41.3283 101.354 41.6353 101.968C41.9423 102.582 42.5563 103.196 42.8633 103.81C41.6353 103.81 40.7143 101.354 40.4073 100.433C39.7933 101.047 39.7933 101.354 39.7933 101.968C39.7933 101.968 39.7933 101.968 39.4863 101.968C39.4863 102.275 39.4863 102.275 39.7933 102.275C39.7933 103.196 39.7933 104.117 40.1003 104.731C40.1003 105.345 40.4073 105.652 40.7143 105.959C40.7143 106.266 40.7143 106.573 40.7143 106.573C39.7933 105.345 39.4863 103.81 38.5653 102.275C37.3373 100.433 36.1094 100.126 33.9604 99.5124C33.9604 99.5124 33.6534 99.5124 33.9604 99.8194C33.9604 99.8194 33.9604 100.126 34.2674 100.126C34.8814 101.661 35.1884 103.503 36.1094 105.345C34.8814 104.117 33.0394 101.968 32.7324 99.8194C32.1184 99.8194 30.8904 100.126 30.8904 101.047V101.354C30.8904 101.661 30.8904 101.661 30.8904 101.968C30.5834 102.275 30.8904 102.275 30.8904 102.582V102.889C31.1974 103.503 31.8114 104.117 32.1184 104.424C32.4254 105.038 32.4254 105.038 31.8114 104.731C31.1974 104.424 30.5834 103.81 29.9694 103.503C30.2764 104.117 30.8904 105.038 31.1974 105.652C31.8114 106.266 32.1184 106.88 33.0394 107.187C33.0394 107.187 33.0394 107.187 33.3464 107.187C33.6534 107.801 34.5744 108.108 35.1884 108.415C35.4954 108.415 36.4164 109.029 36.7233 109.029C36.1094 109.029 35.1884 108.722 34.5744 108.415C33.9604 108.108 33.0394 108.108 32.1184 107.801C33.0394 109.029 33.9604 109.95 34.8814 110.564C33.9604 110.257 33.3464 110.257 32.4254 110.564C31.1974 110.871 30.2764 111.178 28.7414 111.792C29.3554 112.099 30.2764 112.099 30.8904 112.406C31.5044 112.406 32.4254 112.406 33.0394 112.713C32.7324 112.406 31.8114 112.713 31.5044 112.406C30.8904 112.406 30.2764 112.099 29.6624 112.099C29.0484 112.099 28.1274 112.406 27.5134 112.713H27.2064C26.5924 113.02 25.9784 113.327 25.3644 113.634C25.9784 113.634 26.5924 113.327 27.2064 113.327C27.8204 113.327 27.8204 113.634 27.2064 113.941C26.2854 114.248 24.7504 115.169 24.1364 116.09C23.8294 116.397 24.1364 116.704 24.1364 117.011C24.4434 117.318 24.7504 117.625 25.0574 117.932C26.2854 116.397 28.4344 115.476 30.2764 115.169C29.0484 116.09 27.8204 117.625 26.5924 118.546H26.2854V118.853C28.1274 119.16 29.3554 119.467 31.1974 118.546C32.4254 117.932 33.6534 117.011 34.8814 116.09C34.5744 116.397 34.2674 116.704 34.2674 117.011C33.6534 118.239 32.7324 118.853 31.8114 119.467C33.6534 119.16 35.4954 118.853 37.0303 117.318C37.3373 117.011 37.6443 116.704 37.6443 116.397C39.1793 118.546 39.7933 120.388 39.7933 122.23C39.7933 121.923 42.2493 122.537 42.2493 122.844C43.1703 123.458 43.7843 124.993 43.7843 126.221L39.7933 126.835C39.4863 125.3 38.8723 124.072 37.0303 124.379C37.9513 124.686 38.5653 125.607 38.5653 127.142C38.5653 127.142 38.5653 127.142 38.5653 127.449C37.9513 128.37 37.6443 129.291 37.0303 129.905C37.6443 135.431 38.5653 140.957 38.8723 146.79C41.3283 152.316 44.0913 157.842 44.0913 157.842L45.6263 159.377L62.5112 177.49L65.8881 181.174L81.545 191.305L88.913 193.761C88.913 193.761 90.7549 194.375 93.5179 196.831C94.4389 197.752 95.3599 198.366 96.2809 199.287C96.2809 199.287 96.5879 199.287 96.5879 199.594C98.4299 200.822 100.272 202.05 102.114 203.278C102.114 203.278 102.114 203.278 102.421 203.278C103.342 203.892 104.263 204.506 104.877 204.813C105.184 205.12 105.798 205.427 106.105 205.427L106.412 205.734C106.719 206.041 107.333 206.348 107.64 206.655C107.64 206.655 107.64 206.655 107.947 206.655C108.561 206.962 108.868 207.269 109.175 207.576C111.631 208.804 113.166 209.725 113.166 209.725L112.552 214.33L120.534 216.786L121.455 217.093C121.455 217.093 121.455 217.4 121.762 217.4H122.069C122.683 217.4 123.604 217.093 123.911 216.479C125.753 215.251 127.288 213.716 128.823 212.181C132.2 209.111 135.577 206.348 138.954 203.278C140.489 202.05 142.024 200.515 143.559 199.287C144.787 198.059 146.015 197.138 146.629 195.603C147.55 193.454 148.164 192.226 150.312 190.998C152.154 190.077 154.303 189.463 156.452 189.463C156.759 189.463 157.066 189.156 157.373 188.849C158.294 185.472 158.908 181.788 161.671 179.025C162.899 177.797 164.741 177.183 166.276 176.569C167.811 175.955 169.653 175.341 171.188 174.727C173.951 173.499 174.872 171.35 175.486 168.587C176.407 165.517 178.863 163.061 180.091 159.991C181.319 157.842 182.547 155.386 182.854 153.544C182.854 152.93 183.161 152.316 183.161 151.395C183.775 152.009 184.389 152.316 185.003 152.93C185.31 150.167 185.31 146.176 188.38 144.948C187.152 144.027 185.924 142.492 185.31 140.957ZM175.179 72.4966C175.486 72.1896 176.1 72.1896 176.407 71.8826C176.714 71.5756 177.021 71.2686 177.328 70.9616H177.635C177.635 71.8826 176.714 73.7246 175.486 73.1106C174.872 73.1106 174.872 72.8036 175.179 72.4966ZM174.872 64.5147C174.565 65.4357 173.644 67.2776 172.416 66.9707C172.416 66.3567 172.723 66.0497 173.03 65.7427C173.337 65.1287 173.644 64.5147 173.644 63.9007C173.951 62.6727 173.644 61.7517 174.258 60.5237C175.179 61.4447 175.179 63.2867 174.872 64.5147ZM166.276 75.5666C166.276 75.8736 165.969 75.8736 165.969 76.1806H165.662C165.355 75.8736 165.355 75.5666 165.662 75.2596C165.662 74.9526 166.276 75.2596 166.276 75.5666ZM163.513 71.5756C164.434 72.1896 165.355 72.8036 165.969 74.0316C166.276 74.6456 165.355 75.2596 165.048 74.6456C164.434 73.4176 163.82 72.4966 163.513 71.5756ZM162.592 77.1016C163.206 77.4086 163.513 78.0226 163.82 78.6366C164.127 79.2506 164.741 79.5576 165.048 80.1716V80.4785C163.513 81.0925 162.592 78.9436 161.978 78.0226C161.364 77.4086 161.978 76.7946 162.592 77.1016ZM41.0213 118.546C40.7143 117.011 40.4073 115.169 41.3283 114.555C41.6353 114.862 41.6353 115.476 41.9423 115.783C40.7143 117.318 42.2493 118.853 43.4773 118.546C43.7843 118.853 44.0913 119.467 44.0913 119.774C43.1703 120.388 41.9423 120.081 41.0213 118.546ZM131.279 22.149C131.279 21.842 131.279 21.842 131.279 22.149C131.586 22.149 131.893 22.456 132.2 22.456C131.893 22.456 131.893 22.456 131.893 22.456C131.586 22.456 131.279 22.149 131.279 22.149ZM126.674 64.8217C126.367 64.5147 126.367 64.2077 126.06 63.9007C126.367 62.6727 126.367 61.4447 126.367 60.2167C126.367 60.2167 126.367 60.2167 126.674 60.2167C126.674 61.7517 126.674 63.2867 126.674 64.8217ZM172.723 100.126C172.109 99.8194 171.495 99.8194 170.574 99.8194C172.416 99.5124 173.951 99.2054 175.486 98.8984C175.179 99.5124 175.179 99.8194 175.179 100.433C174.565 100.433 173.644 100.433 172.723 100.126ZM171.802 103.196L169.346 101.354C169.96 101.354 170.574 101.968 171.188 101.968C171.495 101.968 172.416 101.968 172.723 102.275C173.337 102.582 173.03 103.196 172.416 103.196C172.109 103.196 171.802 103.196 171.802 103.196ZM184.696 133.282C184.389 133.589 184.389 133.589 184.082 133.589C183.161 132.054 181.933 130.826 180.705 129.598C180.705 129.598 180.705 129.291 180.398 129.291C180.705 128.063 181.012 127.142 181.319 125.914C181.626 124.072 182.24 122.537 182.547 120.695L183.161 118.546C183.161 119.16 183.161 119.467 183.161 120.081C183.161 121.002 183.161 121.923 183.161 122.537C183.161 124.072 183.161 125.607 183.775 127.142C184.082 128.063 184.389 128.677 184.696 129.598C185.617 131.747 185.924 132.054 184.696 133.282ZM41.6353 105.345C41.9423 105.038 41.6353 105.038 41.6353 105.345C41.9423 105.345 42.2493 105.345 42.2493 105.652C42.2493 105.959 42.5563 105.959 42.5563 106.266C42.2493 106.266 41.9423 106.266 41.6353 105.959C41.6353 105.652 41.6353 105.345 41.6353 105.345ZM85.229 44.8668C85.536 44.5598 85.843 44.2528 85.843 44.2528C85.843 44.5598 85.843 44.8668 85.536 44.8668C85.536 44.8668 85.536 44.8668 85.229 44.8668ZM106.105 72.1896C106.105 71.8826 105.798 72.1896 106.105 72.1896C106.105 71.8826 106.105 71.8826 106.105 72.1896ZM107.947 69.4266V69.7336C107.947 69.7336 107.947 69.7336 107.947 69.4266ZM116.236 47.6298C116.543 47.6298 116.543 47.6298 116.543 47.9368C116.543 47.9368 116.543 47.9368 116.236 47.6298ZM129.437 41.7968C129.744 41.7968 129.744 42.1038 130.051 42.1038C130.051 42.1038 129.744 42.1038 129.437 41.7968ZM104.57 63.9007C105.491 64.2077 105.798 64.8217 106.412 65.4357C106.412 65.7427 106.412 65.7427 106.412 66.0497C105.798 65.1287 105.184 64.5147 104.57 63.9007ZM107.026 72.1896C107.333 72.1896 107.333 72.1896 107.64 72.4966C107.64 73.1106 107.64 73.4176 107.64 74.0316C107.333 73.7246 107.333 73.4176 107.026 73.1106C106.719 72.4966 107.026 72.4966 107.026 72.1896ZM105.798 80.4785C106.719 81.0925 107.64 81.7065 108.254 82.6275C108.254 81.7065 108.254 81.0925 108.254 80.7855C108.254 80.1716 108.254 79.8646 108.561 79.2506C108.561 78.9436 108.254 78.6366 108.254 78.6366C107.64 77.7156 107.026 76.7946 106.105 75.8736C106.412 75.8736 107.026 76.1806 107.333 76.4876C107.947 77.7156 108.561 78.9436 109.175 80.1716C109.482 79.2506 109.789 78.3296 110.096 77.4086C109.789 76.4876 109.482 75.8736 109.482 74.9526C109.482 74.9526 109.482 74.9526 109.789 74.9526C110.096 75.2596 110.403 75.8736 110.71 76.1806C111.017 75.2596 111.324 74.3386 111.938 73.7246C112.552 76.1806 113.78 78.6366 115.315 81.0925C115.622 79.5576 116.236 78.3296 116.85 77.1016C116.236 78.9436 116.236 80.7855 115.929 82.6275C116.236 83.2415 116.543 83.8555 116.85 84.4695C115.929 83.8555 114.701 83.2415 114.087 83.2415C111.631 83.2415 111.324 85.3905 109.482 86.0045C109.175 86.0045 108.868 86.0045 108.561 86.0045C108.561 85.3905 108.254 84.7765 108.254 83.8555C108.254 83.5485 108.254 83.5485 107.947 83.2415C107.333 82.6275 106.719 81.7065 105.798 80.4785ZM41.6353 106.88C41.9423 106.88 42.2493 107.187 42.2493 107.187C42.2493 107.187 42.2493 107.187 41.9423 107.494C41.6353 107.494 41.6353 107.494 41.3283 107.187C41.6353 107.187 41.6353 107.187 41.6353 106.88ZM153.996 89.9955C154.917 90.6095 154.917 91.2235 155.224 91.5305L152.461 89.3815C152.154 89.0745 152.154 88.7675 151.847 88.4605C151.847 88.4605 152.154 88.4605 152.154 88.7675C152.768 89.0745 153.382 89.3815 153.996 89.9955ZM43.4773 118.239C43.1703 118.239 43.1703 117.932 43.1703 117.625C43.1703 117.932 43.1703 117.932 43.4773 118.239ZM152.154 85.6975C152.461 86.0045 152.461 86.3115 152.154 86.6185C151.847 86.9255 151.54 87.2325 150.926 86.9255C150.619 86.9255 150.619 86.6185 150.312 86.6185C150.006 86.0045 149.699 85.3905 149.392 84.7765C149.699 84.7765 150.006 85.0835 150.006 85.0835C150.926 85.3905 151.847 85.0835 152.154 85.6975ZM129.437 83.2415C130.972 83.8555 132.814 84.7765 134.656 85.6975C134.349 85.6975 134.349 85.6975 134.042 86.0045C133.428 86.3115 133.121 86.6185 133.121 86.9255H131.893C131.893 86.9255 131.586 86.9255 131.279 86.6185C130.051 86.0045 129.437 84.1625 127.902 83.8555C125.753 83.5485 124.218 85.0835 121.762 84.1625C121.148 86.9255 119.92 86.6185 118.385 86.0045C118.692 85.0835 119.306 84.4695 119.92 83.5485C119.92 82.6275 119.613 81.7065 119.613 80.4785C119.92 81.0925 120.227 82.0135 120.534 82.6275C120.534 82.3205 120.841 82.3205 120.841 82.0135C121.148 81.3995 121.455 80.7855 121.455 80.1716C124.218 81.3995 126.981 82.3205 129.437 83.2415ZM137.112 46.4018C137.419 47.0158 137.726 47.3228 138.033 47.6298C137.726 47.3228 137.419 46.7088 137.112 46.4018ZM133.428 43.3318C133.428 43.0248 133.428 42.4108 133.428 42.1038C133.735 42.7178 133.735 43.0248 134.042 43.6388C133.735 43.6388 133.735 43.6388 133.428 43.3318ZM73.2561 38.1129C73.2561 38.4199 73.2561 38.4199 73.2561 38.7269C72.9491 38.7269 72.9491 39.0339 72.6421 39.0339C72.6421 38.7269 72.9491 38.4199 73.2561 38.1129ZM82.773 45.1738C82.773 45.4808 82.773 45.4808 82.773 45.7878C82.773 45.7878 82.773 45.7878 82.466 45.7878C82.773 45.7878 82.773 45.4808 82.773 45.1738ZM39.7933 112.713C39.4863 112.713 39.1793 112.406 38.8723 112.406C39.1793 112.406 39.4863 112.406 39.7933 112.713C39.7933 112.406 39.7933 112.406 39.7933 112.713ZM180.091 109.029L172.723 103.81C173.644 103.503 174.258 103.196 175.179 102.582C175.793 105.038 179.784 106.266 181.626 104.424C183.468 102.889 182.854 97.6704 179.784 98.8984C181.933 99.2054 181.933 102.582 180.091 103.196C178.556 103.81 177.328 102.582 177.021 101.354C177.635 100.74 178.556 100.433 179.17 99.8194V99.5124C178.556 99.8194 177.635 99.8194 177.021 99.8194V99.5124C177.021 98.8984 177.328 98.2844 177.942 97.6704C178.249 97.6704 178.556 97.3634 178.863 97.3634C179.477 97.0564 179.784 96.7494 180.398 96.4424C181.933 96.1354 183.468 96.7494 184.389 97.6704C187.152 101.968 184.696 108.722 180.091 109.029ZM180.705 93.9865C181.319 94.2934 181.012 94.6004 180.705 94.9074C180.091 94.6004 179.17 94.6004 178.556 94.9074C177.942 95.2144 177.021 96.1354 176.714 97.0564C176.1 97.3634 175.179 97.3634 174.872 97.0564C172.723 95.8284 177.942 94.9074 178.249 94.9074C178.556 94.6004 180.091 93.6795 180.705 93.9865ZM167.504 91.2235C167.504 91.5305 167.197 91.8375 167.197 91.8375C167.197 91.5305 167.504 90.9165 167.504 90.6095C167.504 90.6095 167.504 90.9165 167.504 91.2235ZM164.434 93.3725C164.741 92.1445 165.662 91.2235 166.583 90.6095C166.276 92.1445 165.662 93.6795 165.355 95.2144C164.741 95.5214 164.434 95.2144 164.434 94.9074C164.127 94.2934 164.127 93.6795 164.434 93.3725ZM157.987 78.3296C157.987 77.7156 158.908 77.1016 159.215 78.0226C159.522 78.9436 159.829 80.1716 159.522 81.0925C159.522 81.3995 159.215 82.0135 158.908 82.3205C158.601 82.6275 157.987 82.6275 157.987 82.0135C157.987 81.7065 158.294 80.7855 158.294 80.4785C158.294 79.8646 157.987 78.9436 157.987 78.3296ZM149.699 79.5576C148.778 79.5576 148.164 78.3296 147.55 77.7156C147.243 77.4086 144.787 74.0316 146.322 74.3386C146.936 74.3386 147.857 75.8736 148.164 76.4876C148.471 76.4876 152.154 79.5576 149.699 79.5576ZM148.778 85.3905C148.164 84.7765 148.471 84.4695 149.085 84.4695H149.392C149.392 84.7765 149.392 85.3905 149.392 85.6975C149.085 85.6975 149.085 85.6975 148.778 85.3905ZM121.148 75.2596V74.9526C121.455 75.2596 121.455 75.2596 121.148 75.2596C121.455 75.5666 121.455 75.5666 121.148 75.2596ZM121.762 60.2167C121.762 59.6027 121.762 59.2957 121.762 58.6817C122.069 58.6817 122.683 58.6817 122.99 58.9887C122.99 59.6027 123.297 59.9097 123.604 60.5237C123.604 60.8307 123.911 60.8307 123.911 61.1377C123.911 60.5237 123.911 59.9097 124.218 59.2957C124.525 59.2957 124.832 59.6027 125.139 59.6027C125.139 60.5237 125.139 61.4447 124.832 62.0587C123.911 61.7517 122.683 60.8307 121.762 60.2167ZM49.6173 100.74C49.9242 100.433 50.2312 100.433 50.5382 100.433C50.8452 100.433 51.1522 100.126 51.1522 99.8194C51.1522 100.433 50.5382 101.661 49.6173 101.354C49.3103 101.047 49.6173 100.74 49.6173 100.74ZM49.0033 95.2144C48.6963 95.8284 48.3893 97.0564 47.4683 97.0564C47.4683 96.7494 47.7753 96.4424 48.0823 96.1354C48.3893 95.8284 48.3893 95.2144 48.3893 94.9074C48.3893 93.9865 48.3893 93.3725 48.6963 92.4515C49.3103 93.0655 49.3103 94.2934 49.0033 95.2144ZM43.7843 102.889C43.7843 103.196 43.7843 103.196 43.4773 103.196H43.1703V102.889C43.1703 102.582 43.7843 102.582 43.7843 102.889ZM41.6353 100.126C42.2493 100.74 42.8633 101.047 43.1703 101.661C43.4773 102.275 42.8633 102.582 42.5563 102.275C42.2493 101.354 41.9423 100.74 41.6353 100.126ZM37.6443 102.889C37.9513 103.196 38.5653 104.117 38.2583 104.731C37.9513 106.266 36.7233 103.196 36.7233 102.889C36.4164 102.582 35.8024 101.661 35.8024 101.354C35.8024 100.433 37.3373 102.582 37.6443 102.889ZM35.8024 109.643C36.1094 109.643 36.7233 109.95 37.0303 110.257C37.3373 110.257 37.9513 110.257 37.9513 110.564C38.5653 110.871 38.2583 111.178 37.9513 111.178C37.6443 111.178 37.3373 111.485 37.0303 111.485C36.4164 111.485 35.4954 110.871 35.1884 110.564C34.8814 109.95 35.4954 109.643 35.8024 109.643ZM32.7324 111.792C32.4254 111.485 32.1184 111.178 32.7324 111.178C33.3464 111.178 33.9604 111.178 34.5744 111.178C34.8814 111.178 34.8814 111.485 35.1884 111.792C35.4954 112.099 35.4954 112.406 34.8814 112.406C34.5744 112.406 34.2674 112.099 33.9604 112.099C33.6534 111.792 33.0394 112.099 32.7324 111.792ZM32.7324 117.011C32.7324 117.625 31.8114 117.932 31.5044 118.239C31.1974 118.239 29.0484 119.467 29.3554 118.546C29.0484 117.932 30.2764 117.625 30.5834 117.625C30.5834 117.625 32.7324 115.476 32.7324 117.011ZM37.0303 117.011C36.7233 117.625 36.4164 117.932 36.1094 118.239C35.8024 118.546 35.4954 118.239 35.4954 117.932C35.4954 117.625 35.8024 117.318 36.1094 117.318C36.4164 117.011 36.4164 116.397 36.4164 116.397C36.7233 116.397 36.7233 116.397 37.0303 116.397C37.3373 116.397 37.3373 116.704 37.0303 117.011ZM45.6263 122.844C45.0123 122.537 44.7053 122.537 44.0913 122.23C44.3983 122.23 45.0123 122.23 45.3193 121.923C46.2403 123.458 46.8543 124.686 47.4683 125.914L45.6263 126.221C45.6263 124.993 45.6263 124.072 45.6263 122.844ZM184.389 148.939C184.082 148.939 184.082 148.939 183.775 148.939C183.775 148.632 183.775 148.018 183.775 147.711C183.775 146.79 184.082 145.562 184.082 144.641C184.389 144.948 184.696 145.562 184.696 146.176C185.31 147.097 184.389 148.018 184.389 148.939Z" fill="#210F4B"/>
</g>
<defs>
<filter id="filter0_d_424_8217" x="0" y="0" width="212.438" height="245.399" filterUnits="userSpaceOnUse" color-interpolation-filters="sRGB">
<feFlood flood-opacity="0" result="BackgroundImageFix"/>
<feColorMatrix in="SourceAlpha" type="matrix" values="0 0 0 0 0 0 0 0 0 0 0 0 0 0 0 0 0 0 127 0" result="hardAlpha"/>
<feOffset dy="4"/>
<feGaussianBlur stdDeviation="12"/>
<feComposite in2="hardAlpha" operator="out"/>
<feColorMatrix type="matrix" values="0 0 0 0 0.403922 0 0 0 0 0.0784314 0 0 0 0 0.866667 0 0 0 1 0"/>
<feBlend mode="normal" in2="BackgroundImageFix" result="effect1_dropShadow_424_8217"/>
<feBlend mode="normal" in="SourceGraphic" in2="effect1_dropShadow_424_8217" result="shape"/>
</filter>
</defs>
</svg>
