<svg width="201" height="235" viewBox="0 0 201 235" fill="none" xmlns="http://www.w3.org/2000/svg">
<g filter="url(#filter0_d_424_8224)">
<path opacity="0.7" d="M176.431 123.206C175.491 121.326 173.611 118.82 172.045 117.567C172.045 117.567 172.045 117.253 171.731 117.253C172.045 116 172.358 115.06 172.671 113.807C172.985 111.927 173.611 110.361 173.925 108.481L176.118 100.648C177.684 98.4548 174.238 97.2016 172.358 96.2617C168.285 93.7552 164.525 91.562 160.766 88.7423L158.886 87.489C158.886 86.5491 156.693 85.9225 156.066 85.6092C155.126 84.6693 154.499 84.0426 153.56 83.1027H153.873C153.873 83.1027 153.873 83.1027 154.186 83.1027C154.186 83.1027 154.813 83.1027 155.126 83.1027C155.439 83.1027 155.439 83.1027 155.753 83.1027C155.753 82.7894 155.753 82.4761 155.753 82.4761C155.753 82.1628 155.753 81.8495 155.753 81.5362C156.066 82.1628 156.693 83.1027 157.319 83.416C157.633 83.7293 157.946 83.416 158.572 83.416C158.886 83.416 159.199 83.7293 159.826 83.7293C159.826 83.416 159.512 83.416 159.512 83.1027C159.512 83.416 160.452 84.0426 160.766 84.3559C161.079 84.6692 161.392 84.6692 162.019 84.6692C160.452 82.1628 159.199 79.6563 158.259 77.1499V76.8365C157.946 75.8966 157.946 74.9567 157.633 74.0168C157.633 73.7035 157.319 73.3902 157.319 73.3902C157.946 73.7035 158.572 73.7035 158.886 73.7035C159.826 73.7035 159.512 73.3902 159.512 72.7635C159.512 73.0769 159.826 73.3901 159.826 73.7035C160.139 73.7035 161.392 73.7035 161.706 73.3902C162.019 73.0768 161.706 72.7635 161.392 72.1369C162.019 72.4502 161.706 73.0768 162.645 73.0768C163.272 73.0768 164.525 72.7635 164.839 71.8236C164.212 72.1369 162.645 71.8236 162.332 71.5103L162.019 71.197C162.019 71.197 162.332 71.197 162.332 71.5103C162.645 71.5103 162.959 71.5103 163.272 71.8236C162.019 69.9438 161.079 67.7506 160.139 65.5574V65.2441C159.826 64.6175 159.826 63.6776 159.512 63.051C159.512 62.7377 159.199 62.7377 159.199 62.4244C159.512 62.7377 160.139 62.7377 160.452 62.7377C161.079 62.7377 160.766 62.4244 161.079 62.1111C161.079 62.4244 161.392 62.7377 161.392 62.7377C161.706 62.7377 162.645 62.7377 162.959 62.4244C163.272 62.1111 162.959 61.7978 162.645 61.4845C163.272 61.7978 162.959 62.1111 163.585 62.1111C164.212 62.1111 165.152 61.7977 165.465 61.1711C164.839 61.4844 163.899 61.1711 163.272 60.8578C162.645 60.5445 162.332 59.6046 162.019 59.2913C161.392 58.3514 160.766 57.0981 160.452 55.8449C160.139 55.2183 159.826 54.5917 159.512 53.9651C159.512 53.9651 159.512 53.6518 159.199 53.6518C158.886 53.0251 158.572 52.3985 158.572 51.7719C158.572 51.1453 158.572 50.832 158.259 50.2053C157.946 50.832 157.633 51.1453 157.633 51.7719L157.319 52.0852C155.126 55.8449 151.053 58.3514 146.98 59.2913C146.98 59.2913 147.293 59.2913 147.293 59.6046C147.607 59.6046 147.92 59.9179 148.233 59.9179C148.547 59.9179 148.547 59.9179 148.547 59.9179C148.86 59.9179 148.86 59.9179 149.173 59.6046C149.487 59.6046 149.487 59.2913 149.8 59.2913C149.487 59.6046 149.173 60.2312 148.86 60.5445C149.173 60.5445 149.173 60.5445 149.487 60.8578C149.8 60.8578 150.113 60.8578 150.113 60.8578C150.426 60.8578 150.74 60.2312 151.053 59.9179C151.053 60.2312 150.74 60.5445 150.74 60.8578C150.74 60.8578 150.74 60.8578 151.053 60.8578C151.053 60.8578 151.68 60.8578 151.993 60.8578C151.68 61.7977 151.053 62.7377 150.113 63.3643C149.173 64.3042 148.233 65.5575 146.98 66.1841C146.98 66.1841 146.98 66.1841 146.667 66.1841C146.353 64.9308 146.04 63.6776 145.414 62.1111C145.414 61.7978 145.1 61.4845 144.474 61.4845C142.28 61.4845 140.087 61.1711 138.207 59.9179C136.014 58.6647 135.388 57.4114 134.448 55.2183C133.821 53.6518 132.568 52.7118 131.315 51.4586C130.375 50.5187 129.121 49.5787 128.182 48.6388V48.3255V48.0122C128.495 47.6989 128.182 46.759 127.868 45.819V45.5057C127.868 45.1924 127.555 44.8791 127.555 44.8791C127.242 44.5658 126.928 44.5658 126.615 44.5658C126.302 44.5658 126.302 44.5658 125.988 44.5658C125.362 44.5658 125.048 44.5658 124.422 43.9392C123.795 43.6259 123.795 42.9993 123.169 42.686C122.542 42.3727 122.229 42.686 121.915 42.0593C120.662 40.4928 120.036 38.9263 118.469 37.3597C118.156 37.9863 118.469 38.613 117.529 37.9863C117.216 37.673 116.589 36.7331 116.276 36.4198C114.396 34.2266 113.143 32.6601 110.01 32.6601C109.696 32.6601 109.07 32.6601 107.817 32.9734C105.937 33.6 104.37 35.1666 103.117 37.0464C102.804 37.3597 102.177 37.9863 101.864 38.2996C99.9838 39.8662 97.7907 41.1194 95.5975 42.3726H95.2842C94.3443 42.3726 93.4044 41.746 92.7777 41.1194C90.5846 39.8662 88.0781 37.9863 86.8249 35.7932C86.5116 35.1666 85.885 34.5399 85.5717 33.9133C85.5717 33.6 87.7648 33.6 87.7648 32.9734C87.7648 32.6601 87.1382 32.0335 87.1382 31.7202C88.3914 32.6601 89.3314 32.3468 89.6447 30.7802C89.3314 31.7202 85.2584 29.2137 84.945 28.9004C83.6918 27.9605 82.4386 27.3339 81.4986 26.0806C81.4986 26.0806 82.7519 25.1407 83.0652 25.1407C82.7519 24.8274 82.4386 24.5141 81.812 24.5141C81.1853 24.2008 80.872 23.8875 80.2454 23.5741C79.9321 23.2608 79.6188 23.2609 79.6188 22.9475L79.3055 22.6342C79.3055 22.3209 78.9922 22.3209 78.9922 22.0076C78.9922 22.0076 78.9922 21.6943 78.6789 21.6943V21.381C78.6789 21.0677 78.6789 21.0677 78.6789 20.7544C78.6789 20.7544 78.6789 20.7544 78.6789 21.0677V21.381C78.6789 21.6943 78.6789 22.0076 78.6789 22.3209V22.6342C78.6789 22.6342 78.6789 22.6342 78.6789 22.9475C78.6789 23.2609 78.9922 23.5742 78.9922 24.2008C79.3055 25.454 78.6789 26.0806 78.3656 27.3339C78.9922 27.3339 79.9321 26.3939 79.9321 25.7673C80.2454 26.3939 79.9321 27.3339 79.9321 27.9605C79.6188 30.1536 78.9922 31.7202 78.0523 33.6C77.4256 34.5399 77.1123 35.1666 76.4857 36.1065C76.1724 36.4198 75.8591 36.7331 75.5458 37.0464C76.1724 36.7331 76.4857 37.0464 77.1123 36.7331C77.739 36.4198 78.0523 35.4799 78.3656 34.8533C78.6789 35.4799 78.6789 36.1065 78.9922 36.7331C78.9922 36.4198 80.872 35.7932 80.872 36.1065C80.872 37.3597 80.5587 38.613 80.5587 39.8662C79.9321 42.686 78.9922 45.5057 77.4256 48.0122C76.4857 49.2654 75.5458 49.892 74.6059 50.832C74.6059 50.5187 74.2926 50.5187 73.9793 50.5187C73.9793 50.5187 73.6659 50.5187 73.6659 50.2053C73.0393 49.5787 72.726 48.6388 72.0994 48.0122C71.7861 47.6989 71.7861 47.6989 71.4728 47.3856C72.0994 47.3856 72.4127 47.3856 73.0393 47.0723C73.6659 46.759 73.3526 46.759 73.3526 46.1324C73.6659 46.4457 73.6659 46.4457 73.9793 46.759C74.2926 46.4457 75.2325 46.1324 75.2325 45.819C75.5458 45.5057 74.9192 45.1924 74.6059 44.8791C75.2325 44.8791 75.2325 45.5057 75.8591 45.1924C76.4857 44.8791 77.1123 44.2525 77.4256 43.6259C77.1123 44.2525 75.5458 44.2525 75.2325 44.2525C74.6059 43.9392 73.6659 43.6259 73.0393 42.9993C72.0994 42.3727 70.5329 41.1194 69.5929 39.8662C68.9663 39.5529 68.3397 38.9263 67.7131 38.2996L67.3998 37.9863C66.7732 37.3597 66.1466 36.7331 65.8332 36.1065C65.5199 35.7932 65.2066 35.1666 64.8933 34.5399C64.8933 34.5399 64.8933 34.54 64.8933 34.8533C64.8933 35.4799 64.8933 36.1065 64.8933 36.7331C64.8933 37.0464 64.8933 37.0464 64.8933 37.3597C64.58 39.2396 63.9534 41.1194 63.0135 42.9993C63.0135 43.3126 62.7002 43.6259 62.3869 43.9392C62.0735 44.2525 62.0735 44.5658 61.7602 44.8791C61.4469 45.1924 61.4469 45.5057 61.1336 45.819C60.8203 46.1324 60.507 46.4457 60.507 46.759C60.1937 47.0723 59.8804 47.3856 59.5671 47.6989C59.2538 48.0122 59.2538 48.3255 58.9405 48.3255C58.3138 48.9521 57.6872 49.2654 57.0606 49.892C57.3739 49.892 57.3739 49.892 57.6872 49.892C58.0005 49.892 58.3138 49.892 58.9405 49.892C59.5671 49.892 59.5671 49.892 59.8804 49.2654C60.1937 48.9521 60.1937 48.6388 60.507 48.3255C60.507 48.9521 60.507 49.5787 60.1937 50.2053C60.507 50.2053 61.4469 50.2053 61.7602 49.892C62.0735 49.5787 62.0735 48.6388 62.3869 48.0122C62.7002 48.6388 62.7002 48.9521 62.7002 49.5787L63.6401 48.9521C63.6401 50.2054 63.3268 51.4586 63.0135 52.3985C62.7002 52.7118 62.7002 53.3384 62.3869 53.6518C62.3869 53.9651 62.3869 53.965 62.0735 54.2784C61.7602 54.5917 61.7602 54.905 61.4469 55.2183C61.4469 55.2183 61.4469 55.5316 61.1336 55.5316C60.8203 55.8449 60.507 56.1582 60.1937 56.4715C59.8804 57.0981 57.6872 58.978 57.0606 58.6647C58.0005 59.2913 59.2538 59.2913 60.1937 58.978C60.507 58.978 60.8203 58.6647 60.8203 58.3514C60.8203 58.6647 60.507 58.6647 60.507 58.978C60.1937 59.2913 59.8804 59.6046 59.2538 60.2312C58.9405 60.5445 58.6272 60.8578 58.3138 61.1711C57.6872 61.7977 56.7473 62.4244 56.1207 63.051C56.434 63.051 56.434 63.051 56.7473 63.051C57.3739 63.051 57.6872 63.051 58.0005 63.051C58.6272 63.051 58.6272 63.051 59.2538 62.4244C59.5671 62.1111 59.8804 61.4844 60.1937 61.1711C60.1937 62.1111 60.1937 62.7377 59.8804 63.6776C60.1937 63.6776 61.4469 63.3643 61.7602 63.3643C62.3869 63.051 62.0735 61.7977 62.3869 61.1711C62.7002 61.7977 62.7002 62.4244 62.7002 63.3643L63.9534 62.7377C64.2667 64.3042 63.6401 65.8708 63.0135 67.124C62.7002 67.7506 62.7002 68.3772 62.3869 68.6905C62.3869 69.0038 62.3869 69.0039 62.0735 69.3172C61.7602 69.9438 61.7602 70.2571 61.4469 70.5704C61.4469 70.5704 61.4469 70.8837 61.1336 70.8837C60.8203 70.2571 60.507 69.9438 60.1937 69.0038C60.1937 68.6905 59.8804 68.6905 59.8804 68.3772C59.5671 68.3772 59.2538 68.3772 58.9405 68.3772C58.3138 68.3772 57.6872 68.3772 57.0606 68.3772C56.434 68.3772 55.8074 68.3772 55.1808 68.3772C54.2408 68.6905 53.3009 69.0038 52.0477 69.0038C51.7344 69.0038 51.7344 69.0038 51.4211 69.0038C51.1078 69.0038 51.1078 69.0038 50.7945 69.0038C49.8545 69.0038 48.9146 69.0038 47.9747 69.0038C47.9747 69.6305 47.9747 70.2571 47.9747 70.8837C47.9747 72.1369 47.6614 73.3902 47.6614 74.6434C47.3481 75.5833 47.3481 76.8365 47.3481 77.7765C47.0347 79.6563 47.3481 81.8495 47.3481 84.0426C46.7214 84.3559 46.4081 84.9826 45.7815 85.2959C45.1549 85.9225 44.8416 86.5491 44.5283 87.1757L44.215 87.489C42.9617 87.8023 41.7085 88.7423 41.3952 89.6822L40.4553 90.3088C40.4553 90.3088 40.4553 89.9955 40.142 89.9955V90.3088L38.8887 92.1886L39.202 91.8753C39.202 91.8753 38.8887 91.8753 38.8887 92.1886C37.3222 93.1286 35.7557 93.7552 34.5024 94.6951C33.2492 95.3217 28.2363 98.4548 27.923 99.3947C27.923 100.021 32.6226 108.167 35.4423 113.494L26.3564 114.434C26.3564 114.434 26.3564 114.747 26.0431 114.747C25.4165 115.687 25.1032 116.627 24.4766 117.253C25.1032 122.893 26.0431 128.846 26.3564 134.485C28.8629 140.125 31.6827 145.764 31.6827 145.764L48.288 163.31C48.288 163.623 48.6013 163.936 48.6013 163.936C48.6013 163.623 48.288 163.623 48.288 163.31L54.2408 169.576L66.1465 177.408C66.1465 177.722 66.4599 178.035 66.4599 178.348C68.0264 180.228 69.9062 180.542 72.0994 180.855L75.2325 181.795C77.1123 182.735 78.6789 184.615 80.872 185.241C80.872 184.928 80.872 184.928 80.872 184.615C81.1853 184.928 81.4986 185.241 82.1253 185.554C83.0652 186.494 84.0051 187.121 84.945 188.061L85.2583 188.374C87.1382 189.628 89.018 190.881 90.8979 192.447C90.8979 192.447 90.8979 192.447 91.2112 192.447C92.1511 193.074 93.091 193.701 93.7177 194.014C93.7177 194.014 93.7177 194.014 94.031 194.014C94.3443 194.327 94.6576 194.327 94.9709 194.64C95.2842 194.64 95.2842 194.954 95.5975 194.954C95.9108 195.267 96.2241 195.267 96.5374 195.58C96.8507 195.58 96.8508 195.894 97.1641 195.894C97.4774 196.207 97.7907 196.207 98.104 196.52C98.4173 196.52 98.4173 196.834 98.7306 196.834C99.0439 197.147 99.3572 197.147 99.6705 197.147C99.9838 197.147 99.9838 197.46 99.9838 197.46C100.297 197.46 100.61 197.774 100.61 197.774C100.61 197.774 100.924 197.773 100.924 198.087C101.237 198.087 101.237 198.4 101.55 198.4C101.55 198.4 101.55 198.4 101.864 198.4C102.177 198.4 102.177 198.713 102.177 198.713L101.55 203.413L109.696 205.919L110.636 206.233C110.636 206.233 110.636 206.546 110.95 206.546H111.263C111.89 206.546 112.829 206.233 113.143 205.606C115.023 204.353 116.589 202.786 118.156 201.22C121.602 198.087 125.048 195.267 128.495 192.134C130.061 190.881 131.628 189.314 133.194 188.061C134.448 186.808 135.701 185.868 136.328 184.301C137.267 182.108 137.894 180.855 140.087 179.602C141.967 178.662 144.16 178.035 146.353 178.035C146.667 178.035 146.98 177.722 147.293 177.408C148.547 173.962 148.86 170.202 151.68 167.383C152.933 166.129 154.813 165.503 156.693 164.876C158.259 164.25 160.139 163.623 161.706 162.996C164.525 161.43 165.465 159.55 166.092 156.73C167.032 153.597 169.538 151.091 171.105 147.644C172.358 145.451 173.611 142.945 173.925 140.751C173.925 140.125 174.238 139.498 174.238 138.558C174.551 137.305 174.551 136.052 174.864 134.799C175.178 132.292 175.804 129.472 176.118 126.966C177.058 126.026 177.371 124.459 176.431 123.206ZM72.4127 73.0768H71.1595C71.1595 72.7635 71.1595 72.7635 71.1595 72.4502C71.4728 72.7635 71.7861 73.0768 72.4127 73.0768C72.4127 72.7635 72.4127 72.7635 72.726 72.7635C72.4127 73.0769 72.4127 73.0768 72.4127 73.0768ZM147.607 69.9438L147.92 69.6305C147.92 69.9438 147.92 70.2571 147.607 70.5704C147.607 70.5704 147.607 70.2571 147.607 69.9438ZM147.607 71.5103C147.92 71.5103 148.547 71.5103 148.547 71.5103C148.233 72.1369 147.92 72.7635 147.607 73.0768C147.92 72.4502 147.92 72.1369 147.607 71.5103ZM77.1123 63.9909C76.799 63.6776 76.799 63.3643 76.4857 63.3643C76.799 63.3643 77.1123 63.6776 77.4256 63.6776C77.4256 63.6776 77.1123 63.6776 77.1123 63.9909ZM111.263 33.2867C111.576 33.6 111.576 33.6 111.263 33.2867V33.2867ZM79.3055 59.2913C78.9922 59.9179 78.6789 60.8578 78.0523 61.4845C77.4256 62.1111 76.799 62.7377 76.1724 62.7377C75.8591 62.1111 75.5458 61.4844 75.2325 61.1711C74.9192 60.8578 74.6059 60.8578 74.6059 60.5445C75.2325 60.5445 75.8591 60.2312 76.4857 60.2312C77.4256 59.9179 76.799 59.9179 76.799 58.978C77.1123 59.2913 77.4256 59.6046 77.4256 59.9179C77.7389 59.6046 78.9922 59.2913 79.3055 58.978C79.6188 58.6647 78.9922 58.3514 78.6789 57.7247C79.3055 57.7247 79.6188 58.3514 80.2454 58.038C79.6188 58.3514 79.6188 58.978 79.3055 59.2913ZM75.5458 51.7719C75.8591 51.7719 76.4857 51.4586 76.799 51.4586C77.4256 51.1453 77.4256 51.4586 77.739 50.5187C78.0523 50.2054 78.0523 49.5787 78.3656 49.2654C78.3656 50.2054 78.3656 50.832 78.3656 51.7719C78.6789 51.7719 79.9321 51.4586 80.2454 51.1453C80.872 50.832 80.5587 49.5787 80.872 48.9521C81.1853 49.5787 81.1853 50.2054 81.1853 50.832L82.4386 50.2053C82.4386 50.832 82.4386 51.4586 82.4386 52.3985C81.812 53.6517 81.4986 54.905 80.872 56.1582C80.872 56.4715 80.5587 56.4715 80.5587 56.7848C79.9321 56.7848 79.3055 56.7848 78.9922 56.7848C78.6789 56.7848 78.3656 56.4715 78.3656 56.4715C78.6789 56.4715 78.6789 56.4715 78.9922 56.4715C79.3055 56.4715 79.6188 56.4715 79.9321 56.1582C78.0523 54.905 76.4857 53.3384 74.9192 51.7719C74.9192 51.7719 75.2325 51.7719 75.5458 51.7719ZM38.5754 92.1886L37.9488 92.5019C38.2621 92.1886 38.5754 92.1886 38.5754 92.1886Z" fill="#1C1040"/>
</g>
<defs>
<filter id="filter0_d_424_8224" x="0.476562" y="0.754395" width="200.523" height="233.792" filterUnits="userSpaceOnUse" color-interpolation-filters="sRGB">
<feFlood flood-opacity="0" result="BackgroundImageFix"/>
<feColorMatrix in="SourceAlpha" type="matrix" values="0 0 0 0 0 0 0 0 0 0 0 0 0 0 0 0 0 0 127 0" result="hardAlpha"/>
<feOffset dy="4"/>
<feGaussianBlur stdDeviation="12"/>
<feComposite in2="hardAlpha" operator="out"/>
<feColorMatrix type="matrix" values="0 0 0 0 0.403922 0 0 0 0 0.0784314 0 0 0 0 0.866667 0 0 0 1 0"/>
<feBlend mode="normal" in2="BackgroundImageFix" result="effect1_dropShadow_424_8224"/>
<feBlend mode="normal" in="SourceGraphic" in2="effect1_dropShadow_424_8224" result="shape"/>
</filter>
</defs>
</svg>
