<svg width="212" height="228" viewBox="0 0 212 228" fill="none" xmlns="http://www.w3.org/2000/svg">
<g filter="url(#filter0_d_424_8231)">
<path opacity="0.7" d="M187.416 109.248C186.411 107.238 184.401 104.558 182.727 103.218C182.727 103.218 182.727 103.218 182.392 102.883C182.727 101.543 183.062 100.538 183.396 99.1982C183.731 97.1883 184.401 95.5134 184.736 93.5036L187.081 85.1291C188.756 82.7842 185.071 81.4443 183.062 80.4394C179.712 78.4295 176.362 76.4196 173.347 74.0748L169.997 71.3949L179.712 59.6706L180.047 59.3357L180.717 56.3208L177.032 47.9463H174.352L179.377 40.5768L179.712 39.2369L178.707 35.5521L175.022 36.892L174.017 37.897L170.332 47.9463H166.983L165.643 49.2863L176.027 29.8575V27.1776L169.997 20.1431L161.288 22.8229L159.948 25.1678L159.613 32.8723C158.608 31.1974 157.268 29.8575 155.928 28.5176C154.253 26.8427 152.243 26.5077 150.234 25.5027C150.234 25.5027 150.569 25.5027 150.569 25.8377C148.559 24.8328 145.879 23.8278 145.209 21.148H144.874C144.874 21.148 144.874 20.813 144.539 20.813C142.529 21.818 140.519 22.8229 138.174 23.1579C134.824 23.8278 131.81 24.1628 128.46 23.4929C127.12 23.1579 126.115 22.8229 124.775 22.1529C123.77 21.483 122.43 21.483 121.425 20.813C121.09 21.818 120.42 23.1579 119.75 24.1628C119.08 25.5027 118.41 26.8426 117.741 27.8476C117.071 29.1875 116.066 36.557 115.396 42.9217C115.061 44.5965 114.391 46.2714 114.056 47.9463C113.721 47.6114 113.386 47.6114 113.051 47.6114C112.716 47.6114 112.046 47.6114 111.711 47.6114C111.376 47.6114 111.041 47.6114 111.041 47.6114C111.041 47.6114 110.706 48.2813 110.706 49.2863C110.706 50.2912 111.041 51.2962 111.711 51.9661C112.046 52.3011 112.381 52.3011 112.716 52.6361V52.971C112.381 52.971 112.046 52.971 111.711 52.971C111.376 52.971 110.706 53.306 110.371 53.306C110.036 53.306 110.036 53.306 110.036 53.306C109.366 51.9661 108.696 50.9612 107.691 49.6212C107.691 49.6212 107.691 49.2863 107.356 49.2863C107.356 48.9513 107.021 48.9513 107.021 48.6163C106.686 48.2813 106.351 47.6114 106.016 47.2764C106.351 47.2764 106.351 47.2764 106.686 47.6114C107.356 47.9464 107.691 47.9463 108.026 47.9463H108.361L110.036 49.2863C110.036 48.9513 110.036 48.2813 109.701 47.9463C110.036 47.9463 110.371 47.6114 110.371 47.6114C110.371 47.6114 110.371 47.6114 110.371 47.2764C111.041 46.9414 111.376 46.6064 111.711 45.9365C112.381 44.9315 112.381 44.2616 112.381 44.2616C112.381 44.2616 112.046 44.2616 111.711 43.9266C111.376 43.5916 111.041 43.5916 110.371 43.2567C110.036 43.2567 109.701 42.9217 109.031 42.9217C108.696 42.9217 108.696 42.9217 108.361 42.5867C109.031 42.5867 109.366 42.2517 110.036 41.9167C111.041 41.2468 111.711 39.9068 112.046 38.9019C112.381 37.897 112.046 36.892 112.046 36.892C112.046 36.892 111.711 36.892 111.376 36.892C111.041 36.892 110.371 36.892 109.701 36.892C109.031 36.892 108.361 37.227 108.026 37.227C107.356 37.562 107.021 37.897 106.686 38.5669C106.686 38.5669 106.686 38.5669 106.686 38.232C106.686 37.897 106.686 37.897 106.686 37.562C106.686 37.227 106.686 36.892 106.686 36.2221C106.351 35.5521 106.351 35.2171 106.351 35.2171C106.351 35.2171 106.016 35.5521 105.681 35.8871C105.346 35.5521 105.011 35.2171 105.011 34.8822L105.681 31.8673C104.676 31.8673 103.671 32.8723 103.336 34.2122C103.336 33.8772 103.001 33.8772 102.666 33.5422C102.331 33.2073 101.662 32.8723 101.662 32.8723C101.662 32.8723 101.327 33.2073 100.992 33.8772C100.322 33.5422 98.9817 32.8723 98.6467 33.5422L100.657 36.892C100.322 37.227 100.322 37.897 99.9866 38.232C99.9866 38.5669 99.9866 39.2369 99.9866 39.5719C99.9866 39.5719 99.9866 39.2369 99.6516 39.2369C99.6516 38.9019 99.3167 38.5669 98.9817 38.5669C98.6467 38.232 98.3117 38.232 98.3117 38.232C97.9767 38.232 97.6418 38.232 97.3068 38.232H96.9718C96.6368 38.232 95.9669 38.232 95.6319 38.232L96.3018 38.5669C96.3018 38.9019 96.3018 38.9019 96.6368 39.2369C96.9718 39.9068 97.3068 40.2418 97.6418 40.5768C97.9767 40.5768 97.9767 40.5768 98.3117 40.9118V41.2468C96.9718 41.2468 95.6319 41.9167 94.6269 42.5867C95.2969 42.9217 95.6319 43.5916 96.3018 43.9266C96.6368 44.5966 97.3068 45.2665 97.9767 45.6015C96.6368 45.9365 95.9669 46.9414 95.2969 48.2813C96.9718 48.6163 98.3117 48.6163 99.9866 47.9463C99.3167 48.9513 99.3167 49.6213 99.3167 50.6262C99.3167 50.9612 99.3167 51.2962 99.3167 51.9661C99.3167 51.9661 100.992 51.2961 101.327 51.2961C101.661 50.9612 101.996 50.6262 101.996 50.2912C102.331 50.2912 102.331 49.9562 102.666 49.9562C102.666 50.6262 102.666 51.2962 103.336 51.9661C103.336 50.9612 104.341 50.2912 104.676 49.6212C104.676 49.2863 105.011 48.9513 105.011 48.6163C105.681 50.6262 106.016 52.9711 106.016 55.3159H82.5677H81.5628L87.2574 45.6015H87.5924C87.5924 45.6015 87.9273 45.6015 87.9273 45.2665L86.9224 40.9118V42.2517L86.5874 40.9118L83.2377 41.9167L82.5677 42.9217L77.208 54.6459L74.8632 51.9661L71.5134 53.976L74.1932 41.9167V41.5818V38.9019L72.1833 33.5422L68.1636 37.897L67.8286 39.2369L63.4739 28.8525L62.4689 27.8476L59.4541 26.8427L58.4492 30.1924L58.7841 31.1974L66.8237 45.9365L66.1537 50.6262C64.8138 46.9414 63.8088 44.2616 63.8088 43.9266C63.1389 42.9217 62.4689 42.2517 61.464 41.5818C61.129 41.2468 61.129 41.2468 60.794 40.9118C60.459 40.5768 60.1241 40.2418 59.7891 39.9069C58.7842 38.9019 57.7792 37.897 56.7743 37.227C55.7693 36.5571 54.7644 35.5521 53.7595 35.2171C53.4245 35.2171 53.4245 35.2171 53.0895 34.8822C50.7446 34.5472 47.7298 34.8822 45.7199 36.5571C45.05 37.227 44.715 37.562 44.38 38.5669C44.38 38.9019 44.38 39.2369 44.045 39.5719V39.9069C43.3751 42.5867 43.3751 46.2715 43.7101 48.9513C43.7101 49.9562 44.045 51.2961 44.045 52.3011C44.045 51.9661 44.045 51.6311 44.045 50.9612C44.045 51.2961 44.045 51.6311 44.045 51.9661C44.045 51.9661 44.715 53.641 45.385 55.9859L42.7051 51.9661L41.3652 50.6262L39.0204 50.2912L38.6854 52.971L39.0204 53.641L46.0549 62.3505L37.3455 56.3208V55.9859L37.0105 55.6509L35.6706 55.9859H35.3356L34.3306 56.3208L31.3158 56.6558H32.6557L31.3158 56.9908L32.3208 61.3455L33.6607 62.3505L43.3751 68.0451L42.7051 69.385L41.3652 71.3949L41.7002 74.0748L42.0352 74.7447L39.3553 76.7546C39.6903 76.4196 40.0253 76.0846 40.3603 75.7496C38.6854 76.7546 37.0105 77.4246 35.0006 78.4295C33.6607 79.0995 28.301 82.4492 27.966 83.4542C27.966 84.1241 32.9907 92.8336 36.0055 98.5283L26.2911 99.5332C26.2911 99.5332 26.2911 99.8682 25.9561 99.8682C25.2862 100.873 24.9512 101.878 24.2812 102.548C24.2812 102.883 24.2812 103.218 24.2812 103.218C24.9512 109.248 25.9562 114.942 26.2911 120.972C28.971 127.002 31.9858 133.031 31.9858 133.031L51.7496 154.135L54.4294 156.815L56.1043 158.49L73.1883 169.879L81.2278 172.559C81.2278 172.559 83.2376 173.229 86.2524 175.908C87.2574 176.913 88.2623 177.583 89.2673 178.588L89.6022 178.923C91.6121 180.263 93.622 181.603 95.6319 183.278C95.6319 183.278 95.6319 183.278 95.9669 183.613C96.9718 184.283 97.9767 184.953 98.6467 185.288C98.6467 185.288 98.9817 185.288 98.9817 185.623C99.3167 185.958 99.6516 185.958 99.9866 186.293C100.322 186.293 100.657 186.628 100.657 186.628C100.992 186.963 101.327 186.963 101.662 187.298C101.996 187.298 101.996 187.633 102.331 187.633C102.666 187.968 103.001 187.968 103.336 188.303L103.671 188.638C104.006 188.973 104.341 188.973 104.676 189.308C104.676 189.308 105.011 189.308 105.011 189.643C105.346 189.978 105.681 189.978 106.016 190.313C106.016 190.313 106.016 190.313 106.351 190.313C106.686 190.313 107.021 190.648 107.021 190.648C107.356 190.983 107.691 190.983 107.691 190.983L107.021 196.007L115.731 198.687L116.736 199.022C116.736 199.022 116.736 199.357 117.071 199.357H117.406C118.076 199.357 119.08 199.022 119.415 198.352C121.425 197.012 123.1 195.337 124.775 193.662C128.46 190.313 132.145 187.298 135.829 183.948C137.504 182.608 139.179 180.933 140.854 179.593C142.194 178.253 143.534 177.248 144.204 175.574C145.209 173.229 145.879 171.889 148.224 170.549C150.234 169.544 152.578 168.874 154.923 168.874C155.258 168.874 155.593 168.539 155.928 168.204C157.268 164.519 157.603 160.499 160.618 157.485C161.958 156.145 163.968 155.475 165.978 154.805C167.652 154.135 169.662 153.465 171.337 152.795C174.352 151.12 175.357 149.11 176.027 146.095C177.032 142.746 179.712 140.066 181.387 136.381C182.727 134.036 184.066 131.356 184.401 129.011C184.401 128.341 184.736 127.671 184.736 126.667C185.071 125.327 185.071 123.987 185.406 122.647C185.741 119.967 186.411 116.952 186.746 114.272C188.086 112.262 188.421 110.588 187.416 109.248Z" fill="#1D1042"/>
</g>
<defs>
<filter id="filter0_d_424_8231" x="0.28125" y="0.143066" width="211.719" height="227.214" filterUnits="userSpaceOnUse" color-interpolation-filters="sRGB">
<feFlood flood-opacity="0" result="BackgroundImageFix"/>
<feColorMatrix in="SourceAlpha" type="matrix" values="0 0 0 0 0 0 0 0 0 0 0 0 0 0 0 0 0 0 127 0" result="hardAlpha"/>
<feOffset dy="4"/>
<feGaussianBlur stdDeviation="12"/>
<feComposite in2="hardAlpha" operator="out"/>
<feColorMatrix type="matrix" values="0 0 0 0 0.403922 0 0 0 0 0.0784314 0 0 0 0 0.866667 0 0 0 1 0"/>
<feBlend mode="normal" in2="BackgroundImageFix" result="effect1_dropShadow_424_8231"/>
<feBlend mode="normal" in="SourceGraphic" in2="effect1_dropShadow_424_8231" result="shape"/>
</filter>
</defs>
</svg>
