<svg width="68" height="24" viewBox="0 0 68 24" fill="none" xmlns="http://www.w3.org/2000/svg">
<rect width="68" height="24" rx="6" fill="url(#paint0_linear_24_9027)"/>
<path d="M34.4164 15.056C34.043 15.056 33.707 14.992 33.4084 14.864C33.1097 14.7307 32.875 14.544 32.7044 14.304C32.5337 14.064 32.4484 13.784 32.4484 13.464H33.4244C33.4457 13.704 33.539 13.9013 33.7044 14.056C33.875 14.2107 34.1124 14.288 34.4164 14.288C34.731 14.288 34.9764 14.2133 35.1524 14.064C35.3284 13.9093 35.4164 13.712 35.4164 13.472C35.4164 13.2853 35.3604 13.1333 35.2484 13.016C35.1417 12.8987 35.0057 12.808 34.8404 12.744C34.6804 12.68 34.4564 12.6107 34.1684 12.536C33.8057 12.44 33.5097 12.344 33.2804 12.248C33.0564 12.1467 32.8644 11.992 32.7044 11.784C32.5444 11.576 32.4644 11.2987 32.4644 10.952C32.4644 10.632 32.5444 10.352 32.7044 10.112C32.8644 9.872 33.0884 9.688 33.3764 9.56C33.6644 9.432 33.9977 9.368 34.3764 9.368C34.915 9.368 35.355 9.504 35.6964 9.776C36.043 10.0427 36.235 10.4107 36.2724 10.88H35.2644C35.2484 10.6773 35.1524 10.504 34.9764 10.36C34.8004 10.216 34.5684 10.144 34.2804 10.144C34.019 10.144 33.8057 10.2107 33.6404 10.344C33.475 10.4773 33.3924 10.6693 33.3924 10.92C33.3924 11.0907 33.443 11.232 33.5444 11.344C33.651 11.4507 33.7844 11.536 33.9444 11.6C34.1044 11.664 34.323 11.7333 34.6004 11.808C34.9684 11.9093 35.267 12.0107 35.4964 12.112C35.731 12.2133 35.9284 12.3707 36.0884 12.584C36.2537 12.792 36.3364 13.072 36.3364 13.424C36.3364 13.7067 36.259 13.9733 36.1044 14.224C35.955 14.4747 35.7337 14.6773 35.4404 14.832C35.1524 14.9813 34.811 15.056 34.4164 15.056ZM38.4765 11.336V13.776C38.4765 13.9413 38.5138 14.0613 38.5885 14.136C38.6685 14.2053 38.8018 14.24 38.9885 14.24H39.5485V15H38.8285C38.4178 15 38.1032 14.904 37.8845 14.712C37.6658 14.52 37.5565 14.208 37.5565 13.776V11.336H37.0365V10.592H37.5565V9.496H38.4765V10.592H39.5485V11.336H38.4765ZM40.0851 12.776C40.0851 12.3333 40.1757 11.9413 40.3571 11.6C40.5437 11.2587 40.7944 10.9947 41.1091 10.808C41.4291 10.616 41.7811 10.52 42.1651 10.52C42.5117 10.52 42.8131 10.5893 43.0691 10.728C43.3304 10.8613 43.5384 11.0293 43.6931 11.232V10.592H44.6131V15H43.6931V14.344C43.5384 14.552 43.3277 14.7253 43.0611 14.864C42.7944 15.0027 42.4904 15.072 42.1491 15.072C41.7704 15.072 41.4237 14.976 41.1091 14.784C40.7944 14.5867 40.5437 14.3147 40.3571 13.968C40.1757 13.616 40.0851 13.2187 40.0851 12.776ZM43.6931 12.792C43.6931 12.488 43.6291 12.224 43.5011 12C43.3784 11.776 43.2157 11.6053 43.0131 11.488C42.8104 11.3707 42.5917 11.312 42.3571 11.312C42.1224 11.312 41.9037 11.3707 41.7011 11.488C41.4984 11.6 41.3331 11.768 41.2051 11.992C41.0824 12.2107 41.0211 12.472 41.0211 12.776C41.0211 13.08 41.0824 13.3467 41.2051 13.576C41.3331 13.8053 41.4984 13.9813 41.7011 14.104C41.9091 14.2213 42.1277 14.28 42.3571 14.28C42.5917 14.28 42.8104 14.2213 43.0131 14.104C43.2157 13.9867 43.3784 13.816 43.5011 13.592C43.6291 13.3627 43.6931 13.096 43.6931 12.792ZM47.5549 12.8L49.5869 15H48.3549L46.7229 13.104V15H45.8109V9.08H46.7229V12.52L48.3229 10.592H49.5869L47.5549 12.8ZM54.2806 12.688C54.2806 12.8533 54.27 13.0027 54.2486 13.136H50.8806C50.9073 13.488 51.038 13.7707 51.2726 13.984C51.5073 14.1973 51.7953 14.304 52.1366 14.304C52.6273 14.304 52.974 14.0987 53.1766 13.688H54.1606C54.0273 14.0933 53.7846 14.4267 53.4326 14.688C53.086 14.944 52.654 15.072 52.1366 15.072C51.7153 15.072 51.3366 14.9787 51.0006 14.792C50.67 14.6 50.4086 14.3333 50.2166 13.992C50.03 13.6453 49.9366 13.2453 49.9366 12.792C49.9366 12.3387 50.0273 11.9413 50.2086 11.6C50.3953 11.2533 50.654 10.9867 50.9846 10.8C51.3206 10.6133 51.7046 10.52 52.1366 10.52C52.5526 10.52 52.9233 10.6107 53.2486 10.792C53.574 10.9733 53.8273 11.2293 54.0086 11.56C54.19 11.8853 54.2806 12.2613 54.2806 12.688ZM53.3286 12.4C53.3233 12.064 53.2033 11.7947 52.9686 11.592C52.734 11.3893 52.4433 11.288 52.0966 11.288C51.782 11.288 51.5126 11.3893 51.2886 11.592C51.0646 11.7893 50.9313 12.0587 50.8886 12.4H53.3286ZM54.8741 12.776C54.8741 12.3333 54.9648 11.9413 55.1461 11.6C55.3328 11.2587 55.5835 10.9947 55.8981 10.808C56.2181 10.616 56.5728 10.52 56.9621 10.52C57.2501 10.52 57.5328 10.584 57.8101 10.712C58.0928 10.8347 58.3168 11 58.4821 11.208V9.08H59.4021V15H58.4821V14.336C58.3328 14.5493 58.1248 14.7253 57.8581 14.864C57.5968 15.0027 57.2955 15.072 56.9541 15.072C56.5701 15.072 56.2181 14.976 55.8981 14.784C55.5835 14.5867 55.3328 14.3147 55.1461 13.968C54.9648 13.616 54.8741 13.2187 54.8741 12.776ZM58.4821 12.792C58.4821 12.488 58.4181 12.224 58.2901 12C58.1675 11.776 58.0048 11.6053 57.8021 11.488C57.5995 11.3707 57.3808 11.312 57.1461 11.312C56.9115 11.312 56.6928 11.3707 56.4901 11.488C56.2875 11.6 56.1221 11.768 55.9941 11.992C55.8715 12.2107 55.8101 12.472 55.8101 12.776C55.8101 13.08 55.8715 13.3467 55.9941 13.576C56.1221 13.8053 56.2875 13.9813 56.4901 14.104C56.6981 14.2213 56.9168 14.28 57.1461 14.28C57.3808 14.28 57.5995 14.2213 57.8021 14.104C58.0048 13.9867 58.1675 13.816 58.2901 13.592C58.4181 13.3627 58.4821 13.096 58.4821 12.792Z" fill="white"/>
<path d="M15.7333 8.66922L15.7181 8.16944L15.7155 8.16954L15.7333 8.66922ZM14.6667 9.67255L14.1667 9.6718L14.6667 9.67255ZM17.1965 9.24499C17.4621 9.32058 17.7386 9.16656 17.8142 8.90096C17.8898 8.63537 17.7358 8.35878 17.4702 8.28319L17.1965 9.24499ZM16 8.66922L16.0038 9.1692L16 8.66922ZM16.1241 12.665V13.165C16.1463 13.165 16.1686 13.1635 16.1907 13.1605L16.1241 12.665ZM14.7377 12.0942C14.4643 12.055 14.2109 12.2448 14.1717 12.5182C14.1325 12.7915 14.3223 13.0449 14.5957 13.0841L14.7377 12.0942ZM16.5 12.6667C16.5 12.3905 16.2761 12.1667 16 12.1667C15.7239 12.1667 15.5 12.3905 15.5 12.6667H16.5ZM15.5 13.3333C15.5 13.6095 15.7239 13.8333 16 13.8333C16.2761 13.8333 16.5 13.6095 16.5 13.3333H15.5ZM16.5 8C16.5 7.72386 16.2761 7.5 16 7.5C15.7239 7.5 15.5 7.72386 15.5 8H16.5ZM15.5 8.66667C15.5 8.94281 15.7239 9.16667 16 9.16667C16.2761 9.16667 16.5 8.94281 16.5 8.66667H15.5ZM22.5 15.3333C22.5 15.0572 22.2761 14.8333 22 14.8333C21.7239 14.8333 21.5 15.0572 21.5 15.3333H22.5ZM10.5 15.3333C10.5 15.0572 10.2761 14.8333 10 14.8333C9.72386 14.8333 9.5 15.0572 9.5 15.3333H10.5ZM10.728 17.8547L10.955 17.4092H10.955L10.728 17.8547ZM10.1453 17.272L10.5908 17.045L10.5908 17.045L10.1453 17.272ZM21.8547 17.272L21.4092 17.045V17.045L21.8547 17.272ZM21.272 17.8547L21.499 18.3002L21.272 17.8547ZM20.1667 10.6667C20.1667 12.9679 18.3012 14.8333 16 14.8333V15.8333C18.8535 15.8333 21.1667 13.5201 21.1667 10.6667H20.1667ZM16 14.8333C13.6988 14.8333 11.8333 12.9679 11.8333 10.6667H10.8333C10.8333 13.5201 13.1465 15.8333 16 15.8333V14.8333ZM11.8333 10.6667C11.8333 8.36548 13.6988 6.5 16 6.5V5.5C13.1465 5.5 10.8333 7.8132 10.8333 10.6667H11.8333ZM16 6.5C18.3012 6.5 20.1667 8.36548 20.1667 10.6667H21.1667C21.1667 7.8132 18.8535 5.5 16 5.5V6.5ZM15.7155 8.16954C15.383 8.18144 14.9996 8.26716 14.6885 8.51311C14.3569 8.77527 14.1674 9.17233 14.1667 9.6718L15.1667 9.6733C15.167 9.44542 15.2418 9.35046 15.3086 9.2976C15.396 9.22854 15.5454 9.17626 15.7512 9.1689L15.7155 8.16954ZM14.1667 9.6718C14.1658 10.2337 14.4231 10.6458 14.8206 10.8908C15.1833 11.1143 15.6237 11.1766 16 11.1766V10.1766C15.7096 10.1766 15.4828 10.1243 15.3452 10.0395C15.2424 9.97616 15.1663 9.88627 15.1667 9.6733L14.1667 9.6718ZM16 11.1766C16.3073 11.1766 16.5301 11.2208 16.6624 11.299C16.7491 11.3502 16.8333 11.4308 16.8333 11.6807H17.8333C17.8333 11.1034 17.5842 10.682 17.1709 10.4379C16.8033 10.2209 16.3594 10.1766 16 10.1766V11.1766ZM17.4702 8.28319C17.0531 8.16448 16.4291 8.16592 15.9962 8.16923L16.0038 9.1692C16.4844 9.16553 16.9469 9.17396 17.1965 9.24499L17.4702 8.28319ZM15.9962 8.16923C15.9613 8.1695 15.9447 8.16923 15.9365 8.16901C15.9247 8.16869 15.9314 8.16875 15.9081 8.16776C15.8661 8.16596 15.8213 8.16631 15.7181 8.16945L15.7486 9.16899C15.8516 9.16585 15.8638 9.16677 15.8654 9.16684C15.8699 9.16703 15.8687 9.16701 15.8792 9.16751C15.8873 9.1679 15.8971 9.16831 15.9093 9.16864C15.9332 9.16929 15.9623 9.16952 16.0038 9.1692L15.9962 8.16923ZM16.8333 11.6807C16.8333 11.8189 16.7861 11.896 16.6884 11.9662C16.5655 12.0545 16.3564 12.1292 16.0574 12.1694L16.1907 13.1605C16.5627 13.1105 16.9582 13.0039 17.2722 12.7781C17.6114 12.5342 17.8333 12.1642 17.8333 11.6807H16.8333ZM16.1241 12.165C15.5817 12.165 15.3622 12.1838 14.7377 12.0942L14.5957 13.0841C15.3045 13.1858 15.5998 13.165 16.1241 13.165V12.165ZM15.5 12.6667V13.3333H16.5V12.6667H15.5ZM15.5 8V8.66667H16.5V8H15.5ZM21.5 15.3333V15.8667H22.5V15.3333H21.5ZM19.8667 17.5H12.1333V18.5H19.8667V17.5ZM10.5 15.8667V15.3333H9.5V15.8667H10.5ZM12.1333 17.5C11.7517 17.5 11.4956 17.4996 11.2983 17.4835C11.1069 17.4679 11.0154 17.4399 10.955 17.4092L10.501 18.3002C10.7259 18.4147 10.9636 18.4595 11.2169 18.4802C11.4643 18.5004 11.7682 18.5 12.1333 18.5V17.5ZM9.5 15.8667C9.5 16.2318 9.49961 16.5357 9.51983 16.7831C9.54052 17.0364 9.58526 17.2741 9.69982 17.499L10.5908 17.045C10.5601 16.9846 10.5321 16.8931 10.5165 16.7017C10.5004 16.5044 10.5 16.2483 10.5 15.8667H9.5ZM10.955 17.4092C10.7982 17.3293 10.6707 17.2018 10.5908 17.045L9.69982 17.499C9.87559 17.8439 10.1561 18.1244 10.501 18.3002L10.955 17.4092ZM21.5 15.8667C21.5 16.2483 21.4996 16.5044 21.4835 16.7017C21.4679 16.8931 21.4399 16.9846 21.4092 17.045L22.3002 17.499C22.4147 17.2741 22.4595 17.0364 22.4802 16.7831C22.5004 16.5357 22.5 16.2318 22.5 15.8667H21.5ZM19.8667 18.5C20.2318 18.5 20.5357 18.5004 20.7831 18.4802C21.0364 18.4595 21.2741 18.4147 21.499 18.3002L21.045 17.4092C20.9846 17.4399 20.8931 17.4679 20.7017 17.4835C20.5044 17.4996 20.2483 17.5 19.8667 17.5V18.5ZM21.4092 17.045C21.3293 17.2018 21.2018 17.3293 21.045 17.4092L21.499 18.3002C21.8439 18.1244 22.1244 17.8439 22.3002 17.499L21.4092 17.045Z" fill="white"/>
<defs>
<linearGradient id="paint0_linear_24_9027" x1="0" y1="0" x2="68.7877" y2="2.5228" gradientUnits="userSpaceOnUse">
<stop stop-color="#6EB5DF"/>
<stop offset="1" stop-color="#8B4FD8"/>
</linearGradient>
</defs>
</svg>
