<svg width="18" height="18" viewBox="0 0 18 18" fill="none" xmlns="http://www.w3.org/2000/svg">
<path d="M9 18C13.9875 18 18 13.9875 18 9C18 4.01247 13.9875 0 9 0C4.01247 0 0 4.01247 0 9C0 13.9875 4.01247 18 9 18Z" fill="#2775CA"/>
<path d="M11.4742 10.4242C11.4742 9.11175 10.6867 8.66175 9.11169 8.47428C7.98669 8.32425 7.76169 8.02428 7.76169 7.49922C7.76169 6.97416 8.13672 6.63675 8.88669 6.63675C9.56169 6.63675 9.93672 6.86175 10.1242 7.42425C10.1617 7.53675 10.2742 7.61172 10.3867 7.61172H10.9867C11.1367 7.61172 11.2492 7.49922 11.2492 7.34928V7.31175C11.0992 6.48672 10.4242 5.84925 9.56169 5.77428V4.87428C9.56169 4.72425 9.44919 4.61175 9.26172 4.57422H8.69922C8.54919 4.57422 8.43669 4.68672 8.39916 4.87428V5.73675C7.27416 5.88678 6.56172 6.63675 6.56172 7.57428C6.56172 8.81178 7.31169 9.29922 8.88669 9.48678C9.93672 9.67425 10.2742 9.89925 10.2742 10.4993C10.2742 11.0993 9.74916 11.5118 9.03672 11.5118C8.06166 11.5118 7.72416 11.0992 7.61166 10.5367C7.57422 10.3868 7.46172 10.3117 7.34922 10.3117H6.71166C6.56172 10.3117 6.44922 10.4242 6.44922 10.5742V10.6118C6.59916 11.5492 7.19919 12.2242 8.43669 12.4118V13.3118C8.43669 13.4617 8.54919 13.5742 8.73666 13.6117H9.29916C9.44919 13.6117 9.56169 13.4993 9.59922 13.3118V12.4118C10.7242 12.2242 11.4742 11.4367 11.4742 10.4242Z" fill="white"/>
<path d="M7.08628 14.3624C4.16128 13.3125 2.66125 10.05 3.74881 7.16244C4.31131 5.58744 5.54881 4.38747 7.08628 3.82497C7.23631 3.75 7.31128 3.6375 7.31128 3.44994V2.92497C7.31128 2.77494 7.23631 2.66244 7.08628 2.625C7.04875 2.625 6.97378 2.625 6.93625 2.66244C3.37378 3.78744 1.42375 7.575 2.54875 11.1375C3.22375 13.2374 4.83628 14.85 6.93625 15.525C7.08628 15.5999 7.23631 15.525 7.27375 15.3749C7.31128 15.3375 7.31128 15.3 7.31128 15.225V14.6999C7.31128 14.5874 7.19878 14.4375 7.08628 14.3624ZM11.0613 2.66244C10.9113 2.58747 10.7612 2.66244 10.7238 2.81247C10.6863 2.85 10.6863 2.88744 10.6863 2.9625V3.48747C10.6863 3.6375 10.7988 3.78744 10.9113 3.8625C13.8363 4.91244 15.3363 8.17494 14.2487 11.0625C13.6862 12.6375 12.4487 13.8375 10.9113 14.4C10.7612 14.4749 10.6863 14.5874 10.6863 14.775V15.3C10.6863 15.45 10.7612 15.5625 10.9113 15.5999C10.9488 15.5999 11.0238 15.5999 11.0613 15.5625C14.6238 14.4375 16.5738 10.6499 15.4488 7.08747C14.7738 4.94997 13.1237 3.33744 11.0613 2.66244Z" fill="white"/>
</svg>
