<svg width="24" height="24" viewBox="0 0 24 24" fill="none" xmlns="http://www.w3.org/2000/svg">
<g id="Group 1261159153">
<g id="Group 1261159152">
<circle id="Ellipse 1434" cx="12" cy="12" r="11.75" fill="#FF9211" stroke="#FF9211" stroke-width="0.5"/>
</g>
<g id="Group 1261159151">
<path id="Vector" fill-rule="evenodd" clip-rule="evenodd" d="M11.9826 5.6595L6.49739 8.82977V15.1703L11.9826 18.3405L17.4679 15.1703V8.82977L11.9826 5.6595ZM12.213 4.06179C12.0705 3.9794 11.8948 3.9794 11.7523 4.06179L5.23037 7.83117C5.08781 7.91359 5 8.06581 5 8.2306V15.7694C5 15.9342 5.08781 16.0864 5.23037 16.1688L11.7523 19.9382C11.8948 20.0206 12.0705 20.0206 12.213 19.9382L18.735 16.1688C18.8775 16.0864 18.9653 15.9342 18.9653 15.7694V8.2306C18.9653 8.06581 18.8775 7.91359 18.735 7.83117L12.213 4.06179Z" fill="white"/>
<path id="Vector_2" d="M11.9826 7.95593L8.48407 9.97789V14.0218L11.9595 16.0305C11.9738 16.0387 11.9826 16.054 11.9826 16.0704V16.7628C11.9826 16.7983 11.9442 16.8205 11.9134 16.8027L7.96575 14.5211C7.85882 14.4593 7.79297 14.3451 7.79297 14.2216V9.77816C7.79297 9.65458 7.85882 9.54039 7.96575 9.47862L11.8098 7.25692C11.9167 7.19512 12.0484 7.19512 12.1553 7.25692L16.1188 9.53934C16.1493 9.5569 16.1496 9.60081 16.1193 9.61876C15.8854 9.75764 15.7656 9.81941 15.504 9.96511C15.4898 9.97303 15.4724 9.97294 15.4584 9.96481L11.9826 7.95593Z" fill="white"/>
<path id="Vector_3" d="M12.5586 12.0855C12.5586 12.0685 12.568 12.0528 12.583 12.0448L16.0616 10.1914C16.0923 10.175 16.1293 10.1973 16.1293 10.2321V14.7409C16.1293 14.7574 16.1205 14.7726 16.1064 14.7808L12.6278 16.8028C12.5971 16.8206 12.5586 16.7984 12.5586 16.7629V12.0855Z" fill="white"/>
</g>
</g>
</svg>
