<svg xmlns="http://www.w3.org/2000/svg" width="24px" height="24px" viewBox="0 0 169.883 151.379" class="mobile-only" fill="#ffffff"><path id="Union_54" data-name="Union 54" d="M-932.1-6343.891l-34.968-60.656A15.111,15.111,0,0,0-980.089-6412h-69.935a15.035,15.035,0,0,0-13.015,7.516l-34.968,60.656a15.187,15.187,0,0,0,0,15.035l34.968,60.652a14.952,14.952,0,0,0,13.015,7.52h69.935a15.032,15.032,0,0,0,13.016-7.52l34.968-60.652A15.308,15.308,0,0,0-932.1-6343.891Zm-82.951,59.617v-10.434a41.705,41.705,0,0,0,41.637-41.668,41.7,41.7,0,0,0-41.637-41.668,41.7,41.7,0,0,0-41.637,41.668,41.154,41.154,0,0,0,8.483,25.141l7.511-7.32a30.914,30.914,0,0,1-5.568-17.82,31.351,31.351,0,0,1,31.276-31.3,31.351,31.351,0,0,1,31.276,31.3,31.348,31.348,0,0,1-31.276,31.3v-10.434a20.842,20.842,0,0,0,20.85-20.863,20.845,20.845,0,0,0-20.85-20.867,20.9,20.9,0,0,0-20.916,20.867,20.546,20.546,0,0,0,2.784,10.367l7.771-7.582a9.96,9.96,0,0,1-.389-2.785,10.7,10.7,0,0,1,10.684-10.691,10.7,10.7,0,0,1,10.685,10.691,10.7,10.7,0,0,1-10.685,10.691,9.784,9.784,0,0,1-3.043-.516l-26.873,26.3a3.99,3.99,0,0,1-.842.648c-.065.066-.195.066-.259.133a2.913,2.913,0,0,1-.648.32c-.129.066-.258.066-.388.133-.195.066-.389.129-.583.2a.848.848,0,0,0-.389.063c-.194,0-.389.063-.519.063h0c-.194,0-.388-.062-.583-.062a1.3,1.3,0,0,1-.453-.062c-.194-.066-.389-.129-.583-.2-.13-.066-.259-.066-.389-.133a2.539,2.539,0,0,1-.583-.32,1.563,1.563,0,0,1-.324-.2,3.663,3.663,0,0,1-.518-.453c-.064-.066-.194-.133-.259-.258h0a51.952,51.952,0,0,1-14.829-36.422,52.168,52.168,0,0,1,52.063-52.1,52.168,52.168,0,0,1,52.063,52.1A52.183,52.183,0,0,1-1015.056-6284.273Z" transform="translate(1099.998 6412)"></path></svg>