<svg width="305" height="158" viewBox="0 0 305 158" fill="none" xmlns="http://www.w3.org/2000/svg">
<mask id="mask0_525_4970" style="mask-type:alpha" maskUnits="userSpaceOnUse" x="0" y="0" width="305" height="158">
<rect width="305" height="158" rx="8" fill="#242240"/>
</mask>
<g mask="url(#mask0_525_4970)">
<g filter="url(#filter0_d_525_4970)">
<path d="M246.893 182.688C288.321 165.179 301.287 139.04 301.287 139.04C269.552 165.304 235.718 146.544 274.614 141.604C313.511 136.664 330.305 114.215 329.935 87.0755C329.502 56.3719 357.471 57.4975 357.471 57.4975C342.839 49.6183 328.144 59.1859 318.636 71.1296C305.917 87.138 292.828 74.819 307.09 67.6278C315.364 63.4381 326.477 52.3073 335.183 32.4844C345.926 8.0966 374.82 23.4171 374.82 23.4171C346.234 -2.47143 310.116 -7.03632 287.333 37.3619C271.96 67.2526 254.055 76.9452 244.114 71.9425C233.433 66.5647 238.125 57.1848 248.621 50.4938C287.395 25.7934 255.475 8.4718 255.475 8.4718C273.133 40.2384 218.924 37.2369 218.862 37.2369C206.699 36.7991 194.289 39.3004 182.62 45.1785C145.514 63.9383 130.387 109.587 148.909 147.232C166.938 183.939 210.28 199.384 246.893 182.688Z" fill="url(#paint0_linear_525_4970)"/>
<path opacity="0.51" d="M287.333 37.3619C281.097 49.5558 274.429 58.3729 268.008 64.1885C294.001 52.87 306.411 40.7387 321.352 20.7282C337.405 -0.783045 374.697 23.4171 374.697 23.4171C346.234 -2.47143 310.115 -7.03632 287.333 37.3619Z" fill="url(#paint1_linear_525_4970)"/>
<g opacity="0.51">
<path d="M313.517 103.334C290.92 115.09 305.553 131.411 274.559 141.604C313.456 136.664 330.249 114.215 329.879 87.0753C329.879 86.3249 329.879 85.6371 329.879 84.9492C327.841 90.9524 323.272 98.2687 313.517 103.334Z" fill="url(#paint2_linear_525_4970)"/>
</g>
<path d="M277.267 31.859C277.267 31.859 270.784 7.53372 285.231 0.0297928C299.679 -7.47414 301.593 -18.4174 300.852 -23.2949C300.852 -23.2949 307.026 -5.41056 297.086 5.90787C287.145 17.1638 277.452 23.7922 277.267 31.859Z" fill="url(#paint3_linear_525_4970)"/>
</g>
</g>
<defs>
<filter id="filter0_d_525_4970" x="77" y="-83.2949" width="361.82" height="340.692" filterUnits="userSpaceOnUse" color-interpolation-filters="sRGB">
<feFlood flood-opacity="0" result="BackgroundImageFix"/>
<feColorMatrix in="SourceAlpha" type="matrix" values="0 0 0 0 0 0 0 0 0 0 0 0 0 0 0 0 0 0 127 0" result="hardAlpha"/>
<feOffset dy="4"/>
<feGaussianBlur stdDeviation="32"/>
<feComposite in2="hardAlpha" operator="out"/>
<feColorMatrix type="matrix" values="0 0 0 0 0.87451 0 0 0 0 0.396078 0 0 0 0 0.231373 0 0 0 1 0"/>
<feBlend mode="normal" in2="BackgroundImageFix" result="effect1_dropShadow_525_4970"/>
<feBlend mode="normal" in="SourceGraphic" in2="effect1_dropShadow_525_4970" result="shape"/>
</filter>
<linearGradient id="paint0_linear_525_4970" x1="148.947" y1="147.336" x2="355.405" y2="45.9258" gradientUnits="userSpaceOnUse">
<stop stop-color="#FFEE58"/>
<stop offset="0.1511" stop-color="#FAD753"/>
<stop offset="0.4678" stop-color="#EC9D47"/>
<stop offset="0.9202" stop-color="#D74033"/>
<stop offset="1" stop-color="#D32F2F"/>
</linearGradient>
<linearGradient id="paint1_linear_525_4970" x1="321.382" y1="64.2105" x2="321.382" y2="3.9308" gradientUnits="userSpaceOnUse">
<stop stop-color="#FFEE58"/>
<stop offset="0.1511" stop-color="#FAD753"/>
<stop offset="0.4678" stop-color="#EC9D47"/>
<stop offset="0.9202" stop-color="#D74033"/>
<stop offset="1" stop-color="#D32F2F"/>
</linearGradient>
<linearGradient id="paint2_linear_525_4970" x1="167.13" y1="184.337" x2="373.587" y2="82.9282" gradientUnits="userSpaceOnUse">
<stop stop-color="#FFEE58"/>
<stop offset="0.1511" stop-color="#FAD753"/>
<stop offset="0.4678" stop-color="#EC9D47"/>
<stop offset="0.9202" stop-color="#D74033"/>
<stop offset="1" stop-color="#D32F2F"/>
</linearGradient>
<linearGradient id="paint3_linear_525_4970" x1="274.459" y1="5.5072" x2="304.037" y2="3.06601" gradientUnits="userSpaceOnUse">
<stop stop-color="#FFEE58"/>
<stop offset="0.1511" stop-color="#FAD753"/>
<stop offset="0.4678" stop-color="#EC9D47"/>
<stop offset="0.9202" stop-color="#D74033"/>
<stop offset="1" stop-color="#D32F2F"/>
</linearGradient>
</defs>
</svg>
