<?xml version="1.0" standalone="no"?>
<!DOCTYPE svg PUBLIC "-//W3C//DTD SVG 20010904//EN"
 "http://www.w3.org/TR/2001/REC-SVG-20010904/DTD/svg10.dtd">
<svg version="1.0" xmlns="http://www.w3.org/2000/svg"
 width="200.000000pt" height="200.000000pt" viewBox="0 0 200.000000 200.000000"
 preserveAspectRatio="xMidYMid meet">

<g transform="translate(0.000000,200.000000) scale(0.100000,-0.100000)"
fill="#000000" stroke="none">
<path d="M832 1986 c-219 -42 -385 -129 -537 -281 -130 -129 -215 -277 -263
-454 -22 -84 -25 -116 -25 -251 0 -135 3 -167 25 -251 48 -177 133 -325 263
-454 202 -203 467 -306 750 -292 258 13 480 111 660 292 130 129 215 277 263
454 22 84 25 116 25 251 0 135 -3 167 -25 251 -48 177 -133 325 -263 454 -130
131 -279 216 -454 262 -120 31 -310 39 -419 19z m648 -446 l0 -60 -455 0 -455
0 0 -480 0 -480 455 0 455 0 0 -60 0 -60 -525 0 -525 0 0 600 0 600 525 0 525
0 0 -60z m86 -185 c62 -18 121 -67 145 -119 32 -71 29 -76 -49 -76 -63 0 -70
2 -80 24 -15 34 -49 53 -102 60 -56 7 -107 -11 -133 -46 -17 -23 -18 -31 -8
-57 15 -36 41 -47 151 -66 46 -8 105 -22 130 -30 174 -58 186 -290 20 -380
-47 -25 -69 -30 -146 -33 -177 -8 -286 56 -325 190 l-8 28 72 0 c69 0 73 -1
89 -29 23 -42 58 -61 121 -68 66 -7 120 9 147 44 28 35 25 69 -8 102 -23 24
-46 31 -147 50 -74 14 -135 31 -160 46 -110 64 -116 240 -10 320 69 53 200 70
301 40z"/>
</g>
</svg>
