<?xml version="1.0" standalone="no"?><!DOCTYPE svg PUBLIC "-//W3C//DTD SVG 1.1//EN" "http://www.w3.org/Graphics/SVG/1.1/DTD/svg11.dtd"><svg t="1632902182169" class="icon" viewBox="0 0 2474 1024" version="1.1" xmlns="http://www.w3.org/2000/svg" p-id="3960" xmlns:xlink="http://www.w3.org/1999/xlink" width="483.203125" height="200"><defs><style type="text/css"></style></defs><path d="M1888.226681 274.982273l-218.073973 412.349438h50.631088a66.37034 66.37034 0 0 0 58.500714-35.081465l59.259231-110.459208h151.703634a56.888863 56.888863 0 0 0 50.536273-31.288874l19.626657-39.253316h-184.319914l65.042933-121.268092h277.522834l-171.70955 337.066511h45.605905a70.637004 70.637004 0 0 0 62.482934-37.925908l158.435482-299.425047h83.626628a64.853303 64.853303 0 0 0 58.02664-35.839983l19.531843-38.874056h-586.429359zM723.332406 763.562787a106.666617 106.666617 0 0 1 27.780728 3.034073 52.148124 52.148124 0 0 1 18.962954 8.533329c4.636442 3.441776 8.267848 8.059256 10.524439 13.368883a46.174793 46.174793 0 0 1 3.128888 17.445918 32.900726 32.900726 0 0 1-1.517036 10.14518c-1.005037 3.413332-2.607406 6.637034-4.740739 9.481477a36.693316 36.693316 0 0 1-8.3437 7.774812c-3.792591 2.578962-7.907552 4.645924-12.231105 6.16296a44.468128 44.468128 0 0 1 23.039989 12.231105 31.857763 31.857763 0 0 1 7.490367 21.902212 45.890349 45.890349 0 0 1-3.887406 18.962954 43.140721 43.140721 0 0 1-11.472587 15.075549 53.66516 53.66516 0 0 1-18.962954 10.050366 78.980704 78.980704 0 0 1-25.220729 3.602961h-62.577749v-157.771779h58.02664z m-21.712583 27.401469v38.968871h18.962955a63.620711 63.620711 0 0 0 10.903698-0.853333 24.936285 24.936285 0 0 0 8.248885-3.034073 14.411845 14.411845 0 0 0 5.214813-5.97333 21.807397 21.807397 0 0 0 1.80148-9.481477 27.211839 27.211839 0 0 0-1.422221-9.481477 13.274068 13.274068 0 0 0-4.36148-5.973331 17.730362 17.730362 0 0 0-7.395552-3.223702 49.588125 49.588125 0 0 0-10.619254-0.948148h-21.333324z m25.694803 102.684397a32.99554 32.99554 0 0 0 12.231106-1.801481 18.962954 18.962954 0 0 0 7.111108-4.740738 15.739252 15.739252 0 0 0 3.602961-6.637034 28.444431 28.444431 0 0 0 0.948148-7.490367 24.84147 24.84147 0 0 0-1.137778-7.774811 12.799994 12.799994 0 0 0-3.887405-5.878516 21.048879 21.048879 0 0 0-7.300738-3.697776 43.235536 43.235536 0 0 0-11.472587-1.232592h-25.789618v39.253315h25.694803zM946.621191 892.036802v29.202949h-94.814771v-157.676964h36.598502v128.474015zM1157.584057 842.353862a84.290331 84.290331 0 0 1-5.973331 31.857763 75.851817 75.851817 0 0 1-16.592585 25.599988 77.558483 77.558483 0 0 1-25.694803 17.066659 94.245882 94.245882 0 0 1-67.034043 0 75.377743 75.377743 0 0 1-42.666647-42.666647 89.220699 89.220699 0 0 1 0-63.715526 75.093299 75.093299 0 0 1 42.666647-42.477018 92.918476 92.918476 0 0 1 67.034043 0 77.558483 77.558483 0 0 1 25.789618 17.066659 74.619225 74.619225 0 0 1 16.592585 25.505174 83.816257 83.816257 0 0 1 5.878516 31.762948z m-37.925909 0a69.214783 69.214783 0 0 0-3.034072-21.048879 44.752572 44.752572 0 0 0-8.248885-15.359993 36.882946 36.882946 0 0 0-13.937772-9.481477 47.407385 47.407385 0 0 0-18.962954-3.508147 47.407385 47.407385 0 0 0-18.962954 3.508147 36.882946 36.882946 0 0 0-13.558512 9.481477 43.33035 43.33035 0 0 0-8.722959 15.834067 74.903669 74.903669 0 0 0 0 42.192573c1.763555 5.831108 4.740739 11.226069 8.722959 15.834066 3.792591 4.361479 8.571255 7.774811 13.937771 9.955551a49.208866 49.208866 0 0 0 18.962954 3.413332 48.734792 48.734792 0 0 0 18.962954-3.413332 36.882946 36.882946 0 0 0 13.937772-9.955551 44.752572 44.752572 0 0 0 8.722959-15.834066 69.404412 69.404412 0 0 0 2.654813-21.617768h-0.474074zM1326.733608 880.4694a8.248885 8.248885 0 0 1 2.654814 0 5.783701 5.783701 0 0 1 2.465184 1.706666l14.50666 15.739252a61.060712 61.060712 0 0 1-23.893323 18.962954 84.385146 84.385146 0 0 1-33.943688 6.352589 80.592555 80.592555 0 0 1-32.142207-6.16296 69.878486 69.878486 0 0 1-23.798508-17.066658 74.145151 74.145151 0 0 1-15.170363-25.505174 92.918476 92.918476 0 0 1-5.309627-32.142207 89.599959 89.599959 0 0 1 5.688886-32.426652 75.851817 75.851817 0 0 1 16.118511-25.505173 73.386633 73.386633 0 0 1 24.557026-16.402956 83.057739 83.057739 0 0 1 31.952578-5.97333 85.333294 85.333294 0 0 1 16.687399 1.611851 77.937742 77.937742 0 0 1 14.69629 4.361479 65.422192 65.422192 0 0 1 12.51555 6.637034c3.697776 2.455703 7.120589 5.281183 10.239995 8.438515l-12.420735 16.592585a18.962954 18.962954 0 0 1-2.749628 2.749628 7.395552 7.395552 0 0 1-4.551109 1.232592 8.15407 8.15407 0 0 1-3.697776-0.853333l-3.697777-2.085925-4.266664-2.749628a37.072575 37.072575 0 0 0-5.499257-2.749628 55.751085 55.751085 0 0 0-7.490367-2.085925 51.579235 51.579235 0 0 0-10.050366-0.853333 41.434055 41.434055 0 0 0-16.592584 3.318517 36.408872 36.408872 0 0 0-12.989624 9.481477 46.269608 46.269608 0 0 0-8.438515 15.739252 70.54219 70.54219 0 0 0-2.939258 21.428138 62.957008 62.957008 0 0 0 3.318517 21.522953c1.896295 5.812145 4.930368 11.188143 8.912589 15.834067a37.925908 37.925908 0 0 0 13.274068 9.481477 40.675537 40.675537 0 0 0 16.213326 3.318517 67.792561 67.792561 0 0 0 9.481477 0 37.925908 37.925908 0 0 0 7.679996-1.611851 31.00443 31.00443 0 0 0 6.731849-3.034073 39.34813 39.34813 0 0 0 6.447404-4.835553 17.161474 17.161474 0 0 1 2.749629-1.801481 7.395552 7.395552 0 0 1 2.749628-0.663703zM1440.321704 827.373128h5.878515a13.179253 13.179253 0 0 0 11.662217-5.025183l35.555539-51.579235a16.971844 16.971844 0 0 1 6.731849-5.688886 22.945175 22.945175 0 0 1 9.007403-1.517037h31.857763l-46.743682 63.715526a32.237022 32.237022 0 0 1-10.714069 9.481477 23.703693 23.703693 0 0 1 7.395552 4.17185c2.446221 2.019555 4.579553 4.380442 6.35259 7.016293l47.407385 73.197004h-32.711096a28.444431 28.444431 0 0 1-5.309627 0 14.411845 14.411845 0 0 1-3.887405-1.327407 10.050366 10.050366 0 0 1-2.749629-2.085925 16.6874 16.6874 0 0 1-2.275554-2.844443l-35.745169-54.897753a10.14518 10.14518 0 0 0-4.930368-4.266664 20.66962 20.66962 0 0 0-8.059256-1.327407h-8.912588v67.128858h-36.598502v-157.961409h36.598502l0.18963 63.810341zM1697.174918 880.4694a8.15407 8.15407 0 0 1 2.559999 0 6.068145 6.068145 0 0 1 2.559999 1.706666l14.50666 15.265178a61.060712 61.060712 0 0 1-23.893323 18.962954 84.385146 84.385146 0 0 1-33.943688 6.35259 81.066629 81.066629 0 0 1-32.237022-6.16296 68.645894 68.645894 0 0 1-24.082952-16.87703 74.33478 74.33478 0 0 1-15.265178-25.505173 94.814771 94.814771 0 0 1-5.309627-32.142207 87.608848 87.608848 0 0 1 5.783701-32.426652 74.52441 74.52441 0 0 1 16.118511-25.505173 73.386633 73.386633 0 0 1 25.220729-16.118512 82.86811 82.86811 0 0 1 31.857763-5.97333 85.333294 85.333294 0 0 1 16.782215 1.611851 77.937742 77.937742 0 0 1 14.696289 4.361479 68.36145 68.36145 0 0 1 12.51555 6.637034 63.905156 63.905156 0 0 1 10.14518 8.438515l-12.32592 16.592585a15.739252 15.739252 0 0 1-2.844443 2.749628 7.016293 7.016293 0 0 1-4.551109 1.232592 8.059256 8.059256 0 0 1-3.602961-0.853333c-1.232592-0.568889-2.370369-1.327407-3.697776-2.085925l-4.266665-2.749628a42.382203 42.382203 0 0 0-5.499257-2.749628 55.751085 55.751085 0 0 0-7.490367-2.085925 52.337754 52.337754 0 0 0-10.050365-0.853333 41.149611 41.149611 0 0 0-16.592585 3.318517 35.650354 35.650354 0 0 0-12.989624 9.481477 44.657757 44.657757 0 0 0-8.438514 15.739252 70.447375 70.447375 0 0 0-3.034073 21.428138 65.327377 65.327377 0 0 0 3.318517 21.522953 46.743682 46.743682 0 0 0 9.007403 15.834067 37.925908 37.925908 0 0 0 13.274068 9.481477 40.296278 40.296278 0 0 0 16.213326 3.318517 67.792561 67.792561 0 0 0 9.481477 0 37.925908 37.925908 0 0 0 7.111108-1.137777 33.18517 33.18517 0 0 0 6.731849-3.034073 38.874056 38.874056 0 0 0 6.352589-4.835553 14.50666 14.50666 0 0 1 2.844443-1.801481 7.395552 7.395552 0 0 1 3.034073-1.137777zM1912.120004 763.562787v157.676964h-36.788131v-66.370339h-64.37923v66.370339h-36.788131v-157.676964h36.788131v66.37034h64.094785v-66.37034zM2125.548053 921.239751h-28.444431a11.946661 11.946661 0 0 1-7.679997-2.180739 13.748142 13.748142 0 0 1-4.456294-5.688887l-9.481477-27.496283h-59.733306l-9.481477 27.496283a14.50666 14.50666 0 0 1-4.266665 5.499257 12.136291 12.136291 0 0 1-7.679996 2.370369h-28.444431l61.060712-157.676964h37.925909l60.681453 157.676964z m-58.121455-60.302194l-14.696289-43.140721a244.584183 244.584183 0 0 1-3.413332-9.481477c-1.232592-3.792591-2.465184-7.774811-3.697776-12.136291-1.042962 4.456294-2.275555 8.533329-3.413332 12.231106s-2.465184 7.016293-3.508146 9.481477l-14.50666 42.951091 43.235535 0.094815zM2216.096159 921.239751h-36.788131v-157.676964h36.788131zM2425.731618 763.562787v157.676964h-18.962954a15.928882 15.928882 0 0 1-7.111108-1.327407 16.782214 16.782214 0 0 1-5.688887-4.740738l-74.33478-94.056253c0 2.844443 0.474074 5.594071 0.568889 8.15407 0.094815 2.559999 0 5.119998 0 7.490367v84.479961h-32.237022v-157.676964h18.962954c1.327407-0.104296 2.654814-0.104296 3.98222 0a10.050366 10.050366 0 0 1 5.404442 2.465184c0.986074 0.919703 1.896295 1.896295 2.749628 2.939258l74.998484 94.814771c0-3.034073-0.568889-5.973331-0.758518-8.817774-0.18963-2.844443 0-5.499257 0-8.059255v-83.436999l32.426652 0.094815zM484.968072 61.364594s-55.561456-55.561456-121.078463-60.586639c-65.517007-5.025183-90.832551 15.170363-85.807367 35.36591 5.025183 20.195546 27.780728 22.66073 58.026639 2.465184s95.857733-15.075549 148.859191 22.755545z" fill="#2882FF" p-id="3961"></path><path d="M457.661418 69.613479s-44.183683-27.591098-87.229589-21.048879c-43.045906 6.542219-56.888863 23.324434-50.157014 35.555539s21.333323 10.52444 37.925908-7.016293 59.543676-23.988137 99.460695-7.490367z" fill="#2882FF" p-id="3962"></path><path d="M450.834754 76.629772a95.668104 95.668104 0 0 0-58.02664-0.758518c-26.263692 10.14518-32.237022 22.66073-26.548135 29.487394 5.688886 6.826664 14.885919 3.697776 22.850359-9.481478 7.964441-13.179253 34.228132-24.082952 61.724416-19.247398zM588.316172 240.469696c49.967384-21.428138 85.333294-30.340727 184.130285-7.585182 0 0-141.179194-237.036927-312.888744-156.444372-62.957008 32.805911-67.982191 103.727359-73.007373 128.663645-5.025183 24.936285 1.801481 110.174764-65.611822 151.703633-90.737736 55.182197-398.506482 145.730303-302.648749 665.599692 0 0 10.050366-136.248826 191.715467-171.519921 181.665101-35.271095 252.207291-25.220729 343.039841-126.103645 90.832551-100.882916 50.441458-292.598383 30.245912-348.159839-20.195546-55.561456-30.245912-120.604389 5.025183-136.154011z m-127.431052 422.494619c-38.874056 74.33478-120.130315 62.957008-155.685854 63.431082-19.531843 0-67.887376-10.903699-112.734763 2.465184-54.708123 16.308141-64.758489 38.589612-81.635517 54.897752 0 0 7.395552-104.296248 68.551079-189.629541s154.453262-114.441428 215.893233-93.39255c61.439972 21.048879 104.485878 87.798478 65.611822 162.228073z m251.069513-460.325713s-98.417732-12.989624-136.248825 24.936285c0 0 30.340727-85.333294 136.248825-24.936285zM1656.689011 312.908181l-130.180681 246.518404-32.99554-284.444312h-56.03553a68.077006 68.077006 0 0 0-60.112564 36.314057l-132.74068 252.58655-26.453321-266.619136a22.376286 22.376286 0 0 0-22.565915-22.281471h-288.995422a191.468948 191.468948 0 0 0-45.226646 7.774811 146.394006 146.394006 0 0 0-47.976274 24.082952 120.414759 120.414759 0 0 0-33.279984 39.917018 118.708093 118.708093 0 0 0-12.136291 55.371826 92.349587 92.349587 0 0 0 13.274068 53.001457 105.33921 105.33921 0 0 0 34.133317 31.762949 199.774722 199.774722 0 0 0 44.278498 18.962954c15.928882 4.740739 30.719986 9.547847 44.373313 14.411845a127.620682 127.620682 0 0 1 34.607392 17.919992 33.18517 33.18517 0 0 1 13.558512 28.444431 31.952578 31.952578 0 0 1-5.309627 18.299251 41.813314 41.813314 0 0 1-14.317031 12.420735 69.688857 69.688857 0 0 1-18.962954 7.490367c-3.906369 0.881777-7.869626 1.554962-11.851846 1.99111h-21.428138l-132.74068-1.137777a70.637004 70.637004 0 0 0-63.051822 37.925908l-23.134805 43.994054h239.881371a210.868051 210.868051 0 0 0 43.51998-7.300738 142.222156 142.222156 0 0 0 48.260718-23.893322 114.820688 114.820688 0 0 0 32.900726-40.485907 125.534757 125.534757 0 0 0 12.231105-56.888863 100.124398 100.124398 0 0 0-13.274068-54.897752 104.296248 104.296248 0 0 0-33.564429-32.711096 178.441399 178.441399 0 0 0-43.51998-18.962954c-15.549622-4.42785-30.056282-8.884144-43.519979-13.368883a123.259202 123.259202 0 0 1-33.469615-16.023696 31.19406 31.19406 0 0 1-13.368882-27.117025 31.573319 31.573319 0 0 1 5.594071-18.962954 39.632574 39.632574 0 0 1 14.317031-12.420735 74.145151 74.145151 0 0 1 18.962954-7.016293c3.413332-0.749037 6.864589-1.317925 10.33481-1.706666h234.571743l39.34813 329.670959h88.177737l151.703633-284.444313 33.090355 284.444313h92.634032l216.272492-410.547958h-43.235535a70.731819 70.731819 0 0 0-62.577749 37.925908z" fill="#2882FF" p-id="3963"></path></svg>