<svg width="60" height="60" viewBox="0 0 60 60" fill="none" xmlns="http://www.w3.org/2000/svg">
<g filter="url(#filter0_b_392_5640)">
<rect width="60" height="60" rx="10" fill="#2D2F4A"/>
</g>
<path opacity="0.7" d="M50.4908 32.9742C50.2342 32.4609 49.7209 31.7765 49.2931 31.4343C49.2931 31.4343 49.2931 31.3488 49.2076 31.3488C49.2931 31.0066 49.3787 30.75 49.4642 30.4078C49.5498 29.8945 49.7209 29.4667 49.8064 28.9535L50.4053 26.8148C50.833 26.2159 49.892 25.8737 49.3787 25.6171C48.2666 24.9327 47.24 24.3339 46.2134 23.5639L45.7001 23.2217C45.7001 22.9651 45.1013 22.794 44.9302 22.7084C44.6735 22.4518 44.5024 22.2807 44.2458 22.0241H44.3314C44.3314 22.0241 44.3314 22.0241 44.4169 22.0241C44.4169 22.0241 44.588 22.0241 44.6735 22.0241C44.7591 22.0241 44.7591 22.0241 44.8446 22.0241C44.8446 21.9385 44.8446 21.853 44.8446 21.853C44.8446 21.7674 44.8446 21.6819 44.8446 21.5963C44.9302 21.7674 45.1013 22.0241 45.2724 22.1096C45.3579 22.1952 45.4435 22.1096 45.6146 22.1096C45.7001 22.1096 45.7857 22.1952 45.9568 22.1952C45.9568 22.1096 45.8712 22.1096 45.8712 22.0241C45.8712 22.1096 46.1279 22.2807 46.2134 22.3663C46.299 22.4518 46.3845 22.4518 46.5556 22.4518C46.1279 21.7674 45.7857 21.083 45.529 20.3987V20.3131C45.4435 20.0565 45.4435 19.7998 45.3579 19.5432C45.3579 19.4576 45.2724 19.3721 45.2724 19.3721C45.4435 19.4576 45.6146 19.4576 45.7001 19.4576C45.9568 19.4576 45.8712 19.3721 45.8712 19.201C45.8712 19.2865 45.9568 19.3721 45.9568 19.4576C46.0423 19.4576 46.3845 19.4576 46.4701 19.3721C46.5556 19.2865 46.4701 19.201 46.3845 19.0299C46.5556 19.1154 46.4701 19.2865 46.7267 19.2865C46.8978 19.2865 47.24 19.201 47.3255 18.9443C47.1544 19.0299 46.7267 18.9443 46.6412 18.8588L46.5556 18.7732C46.5556 18.7732 46.6412 18.7732 46.6412 18.8588C46.7267 18.8588 46.8122 18.8588 46.8978 18.9443C46.5556 18.431 46.299 17.8322 46.0423 17.2334V17.1478C45.9568 16.9767 45.9568 16.7201 45.8712 16.549C45.8712 16.4634 45.7857 16.4634 45.7857 16.3779C45.8712 16.4634 46.0423 16.4634 46.1279 16.4634C46.299 16.4634 46.2134 16.3779 46.299 16.2923C46.299 16.3779 46.3845 16.4634 46.3845 16.4634C46.4701 16.4634 46.7267 16.4634 46.8122 16.3779C46.8978 16.2923 46.8122 16.2068 46.7267 16.1212C46.8978 16.2068 46.8122 16.2923 46.9833 16.2923C47.1544 16.2923 47.4111 16.2068 47.4966 16.0357C47.3255 16.1212 47.0689 16.0357 46.8978 15.9501C46.7267 15.8646 46.6412 15.608 46.5556 15.5224C46.3845 15.2658 46.2134 14.9236 46.1279 14.5814C46.0423 14.4103 45.9568 14.2392 45.8712 14.0681C45.8712 14.0681 45.8712 13.9825 45.7857 13.9825C45.7001 13.8115 45.6146 13.6403 45.6146 13.4693C45.6146 13.2982 45.6146 13.2126 45.529 13.0415C45.4435 13.2126 45.3579 13.2982 45.3579 13.4693L45.2724 13.5548C44.6735 14.5814 43.5614 15.2658 42.4493 15.5224C42.4493 15.5224 42.5348 15.5224 42.5348 15.608C42.6204 15.608 42.7059 15.6935 42.7915 15.6935C42.877 15.6935 42.877 15.6935 42.877 15.6935C42.9626 15.6935 42.9626 15.6935 43.0481 15.608C43.1337 15.608 43.1337 15.5224 43.2192 15.5224C43.1337 15.608 43.0481 15.7791 42.9626 15.8646C43.0481 15.8646 43.0481 15.8646 43.1337 15.9501C43.2192 15.9501 43.3048 15.9501 43.3048 15.9501C43.3903 15.9501 43.4759 15.7791 43.5614 15.6935C43.5614 15.7791 43.4759 15.8646 43.4759 15.9501C43.4759 15.9501 43.4759 15.9501 43.5614 15.9501C43.5614 15.9501 43.7325 15.9501 43.8181 15.9501C43.7325 16.2068 43.5614 16.4634 43.3048 16.6345C43.0481 16.8912 42.7915 17.2334 42.4493 17.4045C42.4493 17.4045 42.4493 17.4045 42.3637 17.4045C42.2782 17.0623 42.1926 16.7201 42.0216 16.2923C42.0216 16.2068 41.936 16.1212 41.7649 16.1212C41.1661 16.1212 40.5672 16.0357 40.0539 15.6935C39.4551 15.3513 39.284 15.0091 39.0274 14.4103C38.8563 13.9825 38.5141 13.7259 38.1719 13.3837C37.9152 13.1271 37.5731 12.8704 37.3164 12.6138V12.5282V12.4427C37.402 12.3571 37.3164 12.1005 37.2309 11.8438V11.7583C37.2309 11.6727 37.1453 11.5872 37.1453 11.5872C37.0598 11.5016 36.9742 11.5017 36.8887 11.5017C36.8031 11.5017 36.8031 11.5017 36.7176 11.5017C36.5465 11.5017 36.4609 11.5016 36.2898 11.3306C36.1187 11.245 36.1187 11.0739 35.9476 10.9884C35.7765 10.9028 35.691 10.9884 35.6055 10.8173C35.2633 10.3895 35.0922 9.96178 34.6644 9.53404C34.5789 9.70514 34.6644 9.87624 34.4078 9.70514C34.3222 9.6196 34.1511 9.36295 34.0656 9.2774C33.5523 8.67857 33.2101 8.25082 32.3546 8.25082C32.2691 8.25082 32.098 8.25082 31.7558 8.33637C31.2425 8.50747 30.8148 8.93521 30.4726 9.4485C30.387 9.53404 30.2159 9.70514 30.1304 9.79069C29.6171 10.2184 29.0182 10.5606 28.4194 10.9028H28.3339C28.0772 10.9028 27.8206 10.7317 27.6495 10.5606C27.0506 10.2184 26.3663 9.70514 26.0241 9.1063C25.9385 8.93521 25.7674 8.76411 25.6819 8.59302C25.6819 8.50747 26.2807 8.50747 26.2807 8.33637C26.2807 8.25082 26.1096 8.07973 26.1096 7.99418C26.4518 8.25083 26.7085 8.16528 26.794 7.73754C26.7085 7.99418 25.5963 7.3098 25.5108 7.22425C25.1686 6.9676 24.8264 6.79651 24.5697 6.45431C24.5697 6.45431 24.9119 6.19767 24.9975 6.19767C24.9119 6.11212 24.8264 6.02657 24.6553 6.02657C24.4842 5.94103 24.3987 5.85548 24.2276 5.76993C24.142 5.68438 24.0565 5.68438 24.0565 5.59883L23.9709 5.51329C23.9709 5.42774 23.8854 5.42774 23.8854 5.34219C23.8854 5.34219 23.8854 5.25664 23.7998 5.25664V5.17109C23.7998 5.08555 23.7998 5.08555 23.7998 5C23.7998 5 23.7998 5 23.7998 5.08555V5.17109C23.7998 5.25664 23.7998 5.34219 23.7998 5.42774V5.51329C23.7998 5.51329 23.7998 5.51329 23.7998 5.59883C23.7998 5.68438 23.8854 5.76993 23.8854 5.94103C23.9709 6.28322 23.7998 6.45432 23.7143 6.79651C23.8854 6.79651 24.142 6.53986 24.142 6.36877C24.2276 6.53986 24.142 6.79651 24.142 6.9676C24.0565 7.56644 23.8854 7.99418 23.6287 8.50747C23.4576 8.76411 23.3721 8.93521 23.201 9.19185C23.1154 9.2774 23.0299 9.36295 22.9443 9.4485C23.1154 9.36295 23.201 9.4485 23.3721 9.36295C23.5432 9.2774 23.6287 9.02076 23.7143 8.84966C23.7998 9.02076 23.7998 9.19185 23.8854 9.36295C23.8854 9.2774 24.3987 9.1063 24.3987 9.19185C24.3987 9.53404 24.3131 9.87624 24.3131 10.2184C24.142 10.9884 23.8854 11.7583 23.4576 12.4427C23.201 12.7849 22.9443 12.956 22.6877 13.2126C22.6877 13.1271 22.6021 13.1271 22.5166 13.1271C22.5166 13.1271 22.431 13.1271 22.431 13.0415C22.26 12.8704 22.1744 12.6138 22.0033 12.4427C21.9178 12.3571 21.9178 12.3571 21.8322 12.2716C22.0033 12.2716 22.0889 12.2716 22.26 12.186C22.431 12.1005 22.3455 12.1005 22.3455 11.9294C22.431 12.0149 22.431 12.0149 22.5166 12.1005C22.6021 12.0149 22.8588 11.9294 22.8588 11.8438C22.9443 11.7583 22.7732 11.6727 22.6877 11.5872C22.8588 11.5872 22.8588 11.7583 23.0299 11.6727C23.201 11.5872 23.3721 11.4161 23.4576 11.245C23.3721 11.4161 22.9443 11.4161 22.8588 11.4161C22.6877 11.3306 22.431 11.245 22.26 11.0739C22.0033 10.9028 21.5756 10.5606 21.3189 10.2184C21.1478 10.1329 20.9767 9.96179 20.8056 9.79069L20.7201 9.70514C20.549 9.53405 20.3779 9.36295 20.2923 9.19185C20.2068 9.1063 20.1213 8.93521 20.0357 8.76411C20.0357 8.76411 20.0357 8.76411 20.0357 8.84966C20.0357 9.02076 20.0357 9.19185 20.0357 9.36295C20.0357 9.4485 20.0357 9.44849 20.0357 9.53404C19.9502 10.0473 19.7791 10.5606 19.5224 11.0739C19.5224 11.1595 19.4369 11.245 19.3513 11.3306C19.2658 11.4161 19.2658 11.5016 19.1802 11.5872C19.0947 11.6727 19.0947 11.7583 19.0091 11.8438C18.9236 11.9294 18.838 12.0149 18.838 12.1005C18.7525 12.186 18.6669 12.2716 18.5814 12.3571C18.4958 12.4427 18.4958 12.5282 18.4103 12.5282C18.2392 12.6993 18.0681 12.7849 17.897 12.956C17.9825 12.956 17.9825 12.956 18.0681 12.956C18.1536 12.956 18.2392 12.956 18.4103 12.956C18.5814 12.956 18.5814 12.956 18.6669 12.7849C18.7525 12.6993 18.7525 12.6138 18.838 12.5282C18.838 12.6993 18.838 12.8704 18.7525 13.0415C18.838 13.0415 19.0947 13.0415 19.1802 12.956C19.2658 12.8704 19.2658 12.6138 19.3513 12.4427C19.4369 12.6138 19.4369 12.6993 19.4369 12.8704L19.6935 12.6993C19.6935 13.0415 19.608 13.3837 19.5224 13.6404C19.4369 13.7259 19.4369 13.897 19.3513 13.9825C19.3513 14.0681 19.3513 14.0681 19.2658 14.1536C19.1802 14.2392 19.1802 14.3247 19.0947 14.4103C19.0947 14.4103 19.0947 14.4958 19.0091 14.4958C18.9236 14.5814 18.838 14.6669 18.7525 14.7525C18.6669 14.9236 18.0681 15.4369 17.897 15.3513C18.1536 15.5224 18.4958 15.5224 18.7525 15.4369C18.838 15.4369 18.9236 15.3513 18.9236 15.2658C18.9236 15.3513 18.838 15.3513 18.838 15.4369C18.7525 15.5224 18.6669 15.608 18.4958 15.7791C18.4103 15.8646 18.3247 15.9501 18.2392 16.0357C18.0681 16.2068 17.8115 16.3779 17.6404 16.549C17.7259 16.549 17.7259 16.549 17.8115 16.549C17.9825 16.549 18.0681 16.549 18.1536 16.549C18.3247 16.549 18.3247 16.549 18.4958 16.3779C18.5814 16.2923 18.6669 16.1212 18.7525 16.0357C18.7525 16.2923 18.7525 16.4634 18.6669 16.7201C18.7525 16.7201 19.0947 16.6345 19.1802 16.6345C19.3513 16.549 19.2658 16.2068 19.3513 16.0357C19.4369 16.2068 19.4369 16.3779 19.4369 16.6345L19.7791 16.4634C19.8646 16.8912 19.6935 17.3189 19.5224 17.6611C19.4369 17.8322 19.4369 18.0033 19.3513 18.0888C19.3513 18.1744 19.3513 18.1744 19.2658 18.2599C19.1802 18.431 19.1802 18.5166 19.0947 18.6021C19.0947 18.6021 19.0947 18.6877 19.0091 18.6877C18.9236 18.5166 18.838 18.431 18.7525 18.1744C18.7525 18.0888 18.6669 18.0889 18.6669 18.0033C18.5814 18.0033 18.4958 18.0033 18.4103 18.0033C18.2392 18.0033 18.0681 18.0033 17.897 18.0033C17.7259 18.0033 17.5548 18.0033 17.3837 18.0033C17.1271 18.0889 16.8704 18.1744 16.5282 18.1744C16.4427 18.1744 16.4427 18.1744 16.3571 18.1744C16.2716 18.1744 16.2716 18.1744 16.186 18.1744C15.9294 18.1744 15.6727 18.1744 15.4161 18.1744C15.4161 18.3455 15.4161 18.5166 15.4161 18.6877C15.4161 19.0299 15.3306 19.3721 15.3306 19.7143C15.245 19.9709 15.245 20.3131 15.245 20.5697C15.1595 21.083 15.245 21.6819 15.245 22.2807C15.0739 22.3663 14.9884 22.5373 14.8173 22.6229C14.6462 22.794 14.5606 22.9651 14.4751 23.1362L14.3895 23.2217C14.0473 23.3073 13.7051 23.5639 13.6196 23.8206L13.363 23.9917C13.363 23.9917 13.363 23.9061 13.2774 23.9061V23.9917L12.9352 24.505L13.0208 24.4194C13.0208 24.4194 12.9352 24.4194 12.9352 24.505C12.5075 24.7616 12.0797 24.9327 11.7375 25.1893C11.3953 25.3604 10.0266 26.2159 9.94103 26.4726C9.94103 26.6437 11.2242 28.8679 11.9942 30.3222L9.51329 30.5789C9.51329 30.5789 9.51329 30.6644 9.42774 30.6644C9.25664 30.9211 9.1711 31.1777 9 31.3488C9.1711 32.8887 9.42774 34.5141 9.51329 36.0539C10.1977 37.5938 10.9676 39.1337 10.9676 39.1337L15.5017 43.9244C15.5017 44.0099 15.5872 44.0955 15.5872 44.0955C15.5872 44.0099 15.5017 44.0099 15.5017 43.9244L17.1271 45.6353L20.3779 47.774C20.3779 47.8596 20.4634 47.9451 20.4634 48.0307C20.8912 48.544 21.4045 48.6295 22.0033 48.715L22.8588 48.9717C23.3721 49.2283 23.7998 49.7416 24.3987 49.9127C24.3987 49.8272 24.3987 49.8272 24.3987 49.7416C24.4842 49.8272 24.5697 49.9127 24.7408 49.9983C24.9975 50.2549 25.2541 50.426 25.5108 50.6827L25.5963 50.7682C26.1096 51.1104 26.6229 51.4526 27.1362 51.8803C27.1362 51.8803 27.1362 51.8803 27.2217 51.8803C27.4784 52.0514 27.735 52.2225 27.9061 52.3081C27.9061 52.3081 27.9061 52.3081 27.9917 52.3081C28.0772 52.3936 28.1628 52.3936 28.2483 52.4792C28.3339 52.4792 28.3339 52.5647 28.4194 52.5647C28.505 52.6503 28.5905 52.6503 28.6761 52.7358C28.7616 52.7358 28.7616 52.8214 28.8472 52.8214C28.9327 52.9069 29.0182 52.9069 29.1038 52.9925C29.1893 52.9925 29.1893 53.078 29.2749 53.078C29.3604 53.1636 29.446 53.1636 29.5315 53.1636C29.6171 53.1636 29.6171 53.2491 29.6171 53.2491C29.7026 53.2491 29.7882 53.3347 29.7882 53.3347C29.7882 53.3347 29.8737 53.3346 29.8737 53.4202C29.9593 53.4202 29.9593 53.5057 30.0448 53.5057C30.0448 53.5057 30.0448 53.5057 30.1304 53.5057C30.2159 53.5057 30.2159 53.5913 30.2159 53.5913L30.0448 54.8745L32.2691 55.5589L32.5257 55.6444C32.5257 55.6444 32.5257 55.73 32.6113 55.73H32.6968C32.8679 55.73 33.1246 55.6444 33.2101 55.4734C33.7234 55.1312 34.1511 54.7034 34.5789 54.2757C35.5199 53.4202 36.4609 52.6503 37.402 51.7948C37.8297 51.4526 38.2574 51.0248 38.6852 50.6827C39.0274 50.3405 39.3696 50.0838 39.5407 49.6561C39.7973 49.0572 39.9684 48.7151 40.5672 48.3729C41.0805 48.1162 41.6794 47.9451 42.2782 47.9451C42.3637 47.9451 42.4493 47.8596 42.5348 47.774C42.877 46.833 42.9626 45.8064 43.7325 45.0365C44.0747 44.6943 44.588 44.5232 45.1013 44.3521C45.529 44.181 46.0423 44.0099 46.4701 43.8388C47.24 43.4111 47.4966 42.8978 47.6677 42.1278C47.9244 41.2724 48.6088 40.588 49.0365 39.647C49.3787 39.0481 49.7209 38.3637 49.8064 37.7649C49.8064 37.5938 49.892 37.4227 49.892 37.1661C49.9775 36.8239 49.9775 36.4817 50.0631 36.1395C50.1486 35.4551 50.3197 34.6852 50.4053 34.0008C50.6619 33.7441 50.7475 33.3164 50.4908 32.9742ZM22.0889 19.2865H21.7467C21.7467 19.201 21.7467 19.201 21.7467 19.1154C21.8322 19.201 21.9178 19.2865 22.0889 19.2865C22.0889 19.201 22.0889 19.201 22.1744 19.201C22.0889 19.2865 22.0889 19.2865 22.0889 19.2865ZM42.6204 18.431L42.7059 18.3455C42.7059 18.431 42.7059 18.5166 42.6204 18.6021C42.6204 18.6021 42.6204 18.5166 42.6204 18.431ZM42.6204 18.8588C42.7059 18.8588 42.877 18.8588 42.877 18.8588C42.7915 19.0299 42.7059 19.201 42.6204 19.2865C42.7059 19.1154 42.7059 19.0299 42.6204 18.8588ZM23.3721 16.8056C23.2865 16.7201 23.2865 16.6345 23.201 16.6345C23.2865 16.6345 23.3721 16.7201 23.4576 16.7201C23.4576 16.7201 23.3721 16.7201 23.3721 16.8056ZM32.6968 8.42192C32.7824 8.50747 32.7824 8.50747 32.6968 8.42192V8.42192ZM23.9709 15.5224C23.8854 15.6935 23.7998 15.9502 23.6287 16.1212C23.4576 16.2923 23.2865 16.4634 23.1154 16.4634C23.0299 16.2923 22.9443 16.1212 22.8588 16.0357C22.7732 15.9501 22.6877 15.9501 22.6877 15.8646C22.8588 15.8646 23.0299 15.7791 23.201 15.7791C23.4576 15.6935 23.2865 15.6935 23.2865 15.4369C23.3721 15.5224 23.4576 15.608 23.4576 15.6935C23.5432 15.608 23.8854 15.5224 23.9709 15.4369C24.0565 15.3513 23.8854 15.2658 23.7998 15.0947C23.9709 15.0947 24.0565 15.2658 24.2276 15.1802C24.0565 15.2658 24.0565 15.4369 23.9709 15.5224ZM22.9443 13.4693C23.0299 13.4693 23.201 13.3837 23.2865 13.3837C23.4576 13.2982 23.4576 13.3837 23.5432 13.1271C23.6287 13.0415 23.6287 12.8704 23.7143 12.7849C23.7143 13.0415 23.7143 13.2126 23.7143 13.4693C23.7998 13.4693 24.142 13.3837 24.2276 13.2982C24.3987 13.2126 24.3131 12.8704 24.3987 12.6993C24.4842 12.8704 24.4842 13.0415 24.4842 13.2126L24.8264 13.0415C24.8264 13.2126 24.8264 13.3837 24.8264 13.6404C24.6553 13.9825 24.5697 14.3247 24.3987 14.6669C24.3987 14.7525 24.3131 14.7525 24.3131 14.838C24.142 14.838 23.9709 14.838 23.8854 14.838C23.7998 14.838 23.7143 14.7525 23.7143 14.7525C23.7998 14.7525 23.7998 14.7525 23.8854 14.7525C23.9709 14.7525 24.0565 14.7525 24.142 14.6669C23.6287 14.3247 23.201 13.897 22.7732 13.4693C22.7732 13.4693 22.8588 13.4693 22.9443 13.4693ZM12.8497 24.505L12.6786 24.5905C12.7641 24.505 12.8497 24.505 12.8497 24.505Z" fill="#141633"/>
<defs>
<filter id="filter0_b_392_5640" x="-52" y="-52" width="164" height="164" filterUnits="userSpaceOnUse" color-interpolation-filters="sRGB">
<feFlood flood-opacity="0" result="BackgroundImageFix"/>
<feGaussianBlur in="BackgroundImageFix" stdDeviation="26"/>
<feComposite in2="SourceAlpha" operator="in" result="effect1_backgroundBlur_392_5640"/>
<feBlend mode="normal" in="SourceGraphic" in2="effect1_backgroundBlur_392_5640" result="shape"/>
</filter>
</defs>
</svg>
