<svg width="24" height="24" viewBox="0 0 24 24" fill="none" xmlns="http://www.w3.org/2000/svg">
<g id="bear-face-svgrepo-com" clip-path="url(#clip0_590_6051)">
<path id="Vector" d="M22.7242 3.9C22.7242 5.625 21.2617 7.05 19.4617 7.05C17.6617 7.05 16.1992 5.625 16.1992 3.9C16.1992 2.175 17.6617 0.75 19.4617 0.75C21.2617 0.75 22.7242 2.175 22.7242 3.9Z" fill="#947151"/>
<path id="Vector_2" d="M21.4117 3.8998C21.4117 4.9498 20.5492 5.8123 19.4617 5.8123C18.3742 5.8123 17.5117 4.9498 17.5117 3.8998C17.5117 2.8498 18.3742 1.9873 19.4617 1.9873C20.5492 1.9873 21.4117 2.8498 21.4117 3.8998Z" fill="#E0AC7E"/>
<path id="Vector_3" d="M4.53789 7.05C6.33972 7.05 7.80039 5.6397 7.80039 3.9C7.80039 2.1603 6.33972 0.75 4.53789 0.75C2.73606 0.75 1.27539 2.1603 1.27539 3.9C1.27539 5.6397 2.73606 7.05 4.53789 7.05Z" fill="#947151"/>
<path id="Vector_4" d="M4.53789 5.8123C5.61485 5.8123 6.48789 4.95605 6.48789 3.8998C6.48789 2.84356 5.61485 1.9873 4.53789 1.9873C3.46094 1.9873 2.58789 2.84356 2.58789 3.8998C2.58789 4.95605 3.46094 5.8123 4.53789 5.8123Z" fill="#E0AC7E"/>
<path id="Vector_5" d="M23.25 13.9123C23.25 20.6998 15.675 23.2498 12 23.2498C8.325 23.2498 0.75 20.6998 0.75 13.9123C0.75 5.2873 4.875 3.2998 12 3.2998C19.125 3.2998 23.25 5.2873 23.25 13.9123Z" fill="#947151"/>
<path id="Vector_6" d="M7.08789 17.0998C7.08789 13.6123 10.4254 12.2998 12.0379 12.2998C13.6504 12.2998 16.9879 13.6123 16.9879 17.0998C16.9879 21.5248 15.1879 22.5748 12.0379 22.5748C8.88789 22.5748 7.08789 21.5248 7.08789 17.0998Z" fill="#E0AC7E"/>
<path id="Vector_7" d="M12.2621 0.75C12.3746 1.35 12.0371 1.8 12.0371 1.8C11.5121 1.0875 10.4621 0.8625 10.4621 0.8625C10.8746 1.35 10.7621 2.1 10.7621 2.1C10.0496 1.8375 9.41211 1.875 9.41211 1.875C10.9121 3 10.5746 6.4125 10.5746 6.4125C12.3371 4.5375 14.5496 3.6375 14.5496 3.6375C14.0621 1.875 12.2621 0.75 12.2621 0.75Z" fill="#947151"/>
<g id="Group">
<path id="Vector_8" d="M13.65 21.3753C13.6875 21.3753 13.6875 21.3003 13.6875 21.2628C13.6875 21.0003 12.9375 20.7378 12 20.7378C11.0625 20.7378 10.3125 20.9628 10.3125 21.2628C10.3125 21.3003 10.3125 21.3753 10.35 21.3753H13.65Z" fill="#3E4347"/>
<path id="Vector_9" d="M8.55078 17.2128C8.55078 15.7878 10.0883 15.4878 12.0008 15.4878C13.9133 15.4878 15.4508 15.7503 15.4508 17.2128C15.4508 18.3753 12.6758 19.3878 12.0008 19.3878C11.3258 19.3878 8.55078 18.3378 8.55078 17.2128Z" fill="#3E4347"/>
<path id="Vector_10" d="M22.1633 11.5127L21.5258 11.6252L20.8883 11.7377C20.4758 11.8127 20.0258 11.8502 19.6133 11.9252C18.7508 12.0377 17.9258 12.1127 17.0633 12.1877C15.4133 12.3002 13.6883 12.3752 12.0008 12.3752C10.3133 12.3752 8.58828 12.3002 6.90078 12.1502C5.21328 12.0002 3.48828 11.7752 1.83828 11.4002C1.80078 11.4002 1.80078 11.3627 1.80078 11.3627L1.83828 11.3252C2.70078 11.3627 3.52578 11.4377 4.38828 11.4752C5.25078 11.5127 6.07578 11.5502 6.93828 11.5877C8.62578 11.6252 10.3133 11.6627 12.0383 11.6627C13.7258 11.6627 15.4133 11.6627 17.1383 11.6252C18.8258 11.5877 20.5133 11.5127 22.2383 11.4752C22.2758 11.4752 22.2758 11.4752 22.2758 11.5127C22.2008 11.4752 22.2008 11.5127 22.1633 11.5127Z" fill="#3E4347"/>
<path id="Vector_11" d="M7.35039 12.1879C7.35039 12.7879 6.75039 13.2754 6.00039 13.2754C5.25039 13.2754 4.65039 12.7879 4.65039 12.1879C4.65039 11.5879 5.25039 11.7379 6.00039 11.7379C6.75039 11.7379 7.35039 11.5879 7.35039 12.1879Z" fill="#3E4347"/>
<path id="Vector_12" d="M19.3875 12.1879C19.3875 12.7879 18.7875 13.2754 18.0375 13.2754C17.2875 13.2754 16.6875 12.7879 16.6875 12.1879C16.6875 11.5879 17.2875 11.7379 18.0375 11.7379C18.7875 11.7379 19.3875 11.5879 19.3875 12.1879Z" fill="#3E4347"/>
</g>
</g>
<defs>
<clipPath id="clip0_590_6051">
<rect width="24" height="24" fill="white"/>
</clipPath>
</defs>
</svg>
