<svg width="18" height="20" viewBox="0 0 18 20" fill="none" xmlns="http://www.w3.org/2000/svg">
<g id="blockchain-icon 1" clip-path="url(#clip0_1290_6423)">
<g id="Vector">
<mask id="path-1-outside-1_1290_6423" maskUnits="userSpaceOnUse" x="-1" y="-1" width="19" height="22" fill="black">
<rect fill="white" x="-1" y="-1" width="19" height="22"/>
<path fill-rule="evenodd" clip-rule="evenodd" d="M5.57114 7.78971L8.5436 6.11979V2.98014C8.19821 2.91836 7.88544 2.73628 7.66012 2.46582L2.89803 5.23763C2.95467 5.39714 2.98541 5.56803 2.98541 5.74707C2.98541 5.89681 2.96437 6.04004 2.92392 6.17676L5.57114 7.78971ZM7.40769 2.03125C7.34451 1.86213 7.31217 1.68294 7.31222 1.50228C7.31222 1.08724 7.47889 0.711263 7.74911 0.439453C8.01934 0.167643 8.39312 0 8.80573 0C9.21835 0 9.59213 0.167643 9.86236 0.439453C10.0012 0.57893 10.1113 0.744625 10.1862 0.927019C10.2612 1.10941 10.2996 1.30491 10.2992 1.50228C10.2992 1.68457 10.2669 1.85872 10.2086 2.01986L14.9934 4.80306C15.0274 4.76237 15.0613 4.72168 15.0985 4.68425C15.2372 4.5446 15.4019 4.43389 15.5833 4.35847C15.7646 4.28306 15.959 4.24442 16.1552 4.24479C16.5678 4.24479 16.9416 4.41244 17.2118 4.68425C17.3506 4.82372 17.4607 4.98942 17.5357 5.17181C17.6106 5.3542 17.649 5.5497 17.6487 5.74707C17.6487 6.16211 17.482 6.53646 17.2118 6.80827C16.9795 7.04215 16.6769 7.1921 16.351 7.2347V12.7539C16.6859 12.7979 16.9853 12.9525 17.2118 13.1803C17.482 13.4522 17.6487 13.8281 17.6487 14.2415C17.6489 14.4389 17.6103 14.6343 17.5353 14.8166C17.4603 14.999 17.3503 15.1647 17.2116 15.3042C17.0729 15.4437 16.9082 15.5544 16.7269 15.6298C16.5456 15.7052 16.3513 15.744 16.1552 15.7438C15.9337 15.7442 15.7149 15.6948 15.5147 15.5994C15.3146 15.5039 15.1381 15.3648 14.9982 15.1921L10.207 17.9785C10.2653 18.1396 10.2976 18.3138 10.2976 18.4961C10.2976 18.9111 10.131 19.2871 9.86074 19.5589C9.72208 19.6986 9.55735 19.8093 9.37602 19.8847C9.19469 19.9601 9.00033 19.9987 8.80412 19.9984C8.3915 19.9984 8.01772 19.8307 7.74749 19.5589C7.47727 19.2871 7.31061 18.9111 7.31061 18.4961C7.31061 18.3105 7.34459 18.1315 7.40607 17.9671L2.64561 15.1986C2.50555 15.37 2.32941 15.5079 2.12989 15.6025C1.93037 15.6971 1.71246 15.7459 1.4919 15.7454C1.07928 15.7454 0.705499 15.5778 0.435276 15.306C0.16667 15.0342 5.15134e-06 14.6582 5.15134e-06 14.2432C5.15134e-06 13.8281 0.16667 13.4538 0.436894 13.182C0.666496 12.9508 0.964699 12.8011 1.2864 12.7555V7.23307C0.964478 7.18823 0.666061 7.03843 0.436894 6.80664C0.29796 6.66758 0.187814 6.50219 0.112824 6.32004C0.0378339 6.13789 -0.000511461 5.94259 5.15134e-06 5.74544C5.15134e-06 5.3304 0.16667 4.95443 0.436894 4.68262C0.575557 4.54297 0.740285 4.43226 0.921614 4.35685C1.10294 4.28143 1.2973 4.2428 1.49352 4.24316C1.71542 4.24277 1.9346 4.29226 2.13505 4.388C2.33549 4.48374 2.51214 4.62333 2.65208 4.79655L7.40769 2.03125ZM9.95783 2.45605C9.73104 2.73419 9.41222 2.92083 9.05978 2.98177V6.11979L12.0258 7.84831L14.7523 6.26302C14.6924 6.10189 14.6617 5.92611 14.6617 5.74544C14.6617 5.56966 14.6924 5.39876 14.7474 5.24251L9.95783 2.45605ZM15.8947 7.22494C15.5929 7.17214 15.3147 7.02658 15.0985 6.80827C15.0678 6.77734 15.0387 6.74642 15.0112 6.71224L12.2895 8.29427V11.6764L15.0225 13.2633C15.0468 13.2357 15.071 13.208 15.0969 13.182C15.3133 12.964 15.5914 12.8184 15.893 12.7653L15.8947 7.22494ZM14.7507 14.7559C14.6924 14.5964 14.6617 14.4238 14.6617 14.2448C14.6617 14.056 14.6956 13.8753 14.7604 13.7077L12.1164 12.1729L9.05978 13.96V17.0182C9.41222 17.0792 9.73104 17.2658 9.95783 17.5439L14.7507 14.7559ZM7.66012 17.5326C7.88544 17.2621 8.19821 17.08 8.5436 17.0182V13.9453L5.47567 12.1549L2.87214 13.667C2.94496 13.8444 2.98703 14.0397 2.98703 14.2448C2.98703 14.4271 2.95467 14.6012 2.89641 14.7624L7.66012 17.5326ZM1.74109 12.762C2.05338 12.8141 2.33331 12.9655 2.54852 13.182C2.5647 13.1982 2.57927 13.2145 2.59383 13.2308L5.2459 11.6911V8.19661L2.69253 6.64063C2.64884 6.70085 2.6003 6.75619 2.54852 6.80827C2.32913 7.02901 2.04698 7.17574 1.74109 7.22819V12.762ZM1.49513 6.72852C1.50161 6.72852 1.50808 6.72689 1.51455 6.72689H1.5275C1.77477 6.71908 2.00975 6.61662 2.18445 6.44043C2.27533 6.34926 2.34742 6.24094 2.39657 6.12167C2.44572 6.00241 2.47096 5.87455 2.47085 5.74544C2.47085 5.47363 2.36082 5.22786 2.18445 5.05046C2.00807 4.87305 1.76374 4.76237 1.49352 4.76237C1.22329 4.76237 0.978959 4.87305 0.802585 5.05046C0.7117 5.14162 0.639613 5.24995 0.590464 5.36921C0.541314 5.48848 0.51607 5.61634 0.516181 5.74544C0.516181 6.01725 0.626212 6.26302 0.802585 6.44043C0.893448 6.53199 1.00141 6.60458 1.12027 6.65402C1.23912 6.70346 1.36652 6.72878 1.49513 6.72852ZM9.49505 17.8044C9.40441 17.7129 9.29672 17.6404 9.17815 17.591C9.05958 17.5416 8.93247 17.5162 8.80412 17.5163C8.53389 17.5163 8.28956 17.627 8.11319 17.8044C7.93681 17.9818 7.82678 18.2275 7.82678 18.4993C7.82678 18.7712 7.93681 19.0169 8.11319 19.1943C8.28956 19.3717 8.53389 19.4824 8.80412 19.4824C9.07434 19.4824 9.31867 19.3717 9.49505 19.1943C9.67142 19.0169 9.78145 18.7712 9.78145 18.4993C9.78145 18.2275 9.67304 17.9818 9.49505 17.8044ZM9.49505 0.807292C9.40441 0.715873 9.29672 0.643363 9.17815 0.593925C9.05958 0.544487 8.93247 0.519094 8.80412 0.519206C8.53389 0.519206 8.28956 0.629883 8.11319 0.807292C7.93681 0.984701 7.82678 1.23047 7.82678 1.50228C7.82678 1.77409 7.93681 2.01986 8.11319 2.19727C8.20382 2.28868 8.31151 2.36119 8.43008 2.41063C8.54865 2.46007 8.67576 2.48546 8.80412 2.48535C9.07434 2.48535 9.31867 2.37467 9.49505 2.19727C9.58593 2.1061 9.65802 1.99777 9.70717 1.87851C9.75632 1.75924 9.78156 1.63139 9.78145 1.50228C9.78145 1.23047 9.67304 0.984701 9.49505 0.807292ZM16.8445 13.5498C16.7538 13.4584 16.6462 13.3859 16.5276 13.3364C16.409 13.287 16.2819 13.2616 16.1536 13.2617C15.8833 13.2617 15.639 13.3724 15.4626 13.5498C15.3717 13.641 15.2996 13.7493 15.2505 13.8686C15.2013 13.9878 15.1761 14.1157 15.1762 14.2448C15.1762 14.5166 15.2862 14.7624 15.4626 14.9398C15.5533 15.0312 15.6609 15.1037 15.7795 15.1531C15.8981 15.2026 16.0252 15.228 16.1536 15.2279C16.4238 15.2279 16.6681 15.1172 16.8445 14.9398C16.9354 14.8486 17.0075 14.7403 17.0566 14.621C17.1058 14.5018 17.131 14.3739 17.1309 14.2448C17.1309 13.973 17.0225 13.7272 16.8445 13.5498ZM2.18445 13.5498C2.00807 13.3724 1.76374 13.2617 1.49352 13.2617C1.22329 13.2617 0.978959 13.3724 0.802585 13.5498C0.7117 13.641 0.639613 13.7493 0.590464 13.8686C0.541314 13.9878 0.51607 14.1157 0.516181 14.2448C0.516181 14.5166 0.626212 14.7624 0.802585 14.9398C0.978959 15.1172 1.22329 15.2279 1.49352 15.2279C1.76374 15.2279 2.00807 15.1172 2.18445 14.9398C2.27533 14.8486 2.34742 14.7403 2.39657 14.621C2.44572 14.5018 2.47096 14.3739 2.47085 14.2448C2.47033 13.9842 2.36738 13.7344 2.18445 13.5498ZM15.283 6.18978C15.296 6.2028 15.3057 6.21908 15.3154 6.23535C15.3251 6.25163 15.3316 6.2679 15.338 6.28581C15.3752 6.34115 15.4173 6.39323 15.4626 6.44043C15.5533 6.53185 15.6609 6.60436 15.7795 6.6538C15.8981 6.70323 16.0252 6.72863 16.1536 6.72852C16.4238 6.72852 16.6681 6.61784 16.8445 6.44043C16.9354 6.34926 17.0075 6.24094 17.0566 6.12167C17.1058 6.00241 17.131 5.87455 17.1309 5.74544C17.1309 5.47363 17.0209 5.22786 16.8445 5.05046C16.7538 4.95904 16.6462 4.88653 16.5276 4.83709C16.409 4.78765 16.2819 4.76226 16.1536 4.76237C15.8833 4.76237 15.639 4.87305 15.4626 5.05046C15.3717 5.14162 15.2996 5.24995 15.2505 5.36921C15.2013 5.48848 15.1761 5.61634 15.1762 5.74544C15.1778 5.90658 15.2167 6.05632 15.283 6.18978ZM5.72972 11.6357C5.76648 11.6755 5.79069 11.7254 5.79929 11.779L8.57111 13.418V10.1823L5.72972 8.48145V11.6357ZM11.8073 8.52539L9.05492 10.1839V13.4212L11.8073 11.7855V8.52539ZM8.80088 6.50879L6.11483 8.125L8.81544 9.76074L11.4384 8.15918L8.80088 6.50879Z"/>
</mask>
<path fill-rule="evenodd" clip-rule="evenodd" d="M5.57114 7.78971L8.5436 6.11979V2.98014C8.19821 2.91836 7.88544 2.73628 7.66012 2.46582L2.89803 5.23763C2.95467 5.39714 2.98541 5.56803 2.98541 5.74707C2.98541 5.89681 2.96437 6.04004 2.92392 6.17676L5.57114 7.78971ZM7.40769 2.03125C7.34451 1.86213 7.31217 1.68294 7.31222 1.50228C7.31222 1.08724 7.47889 0.711263 7.74911 0.439453C8.01934 0.167643 8.39312 0 8.80573 0C9.21835 0 9.59213 0.167643 9.86236 0.439453C10.0012 0.57893 10.1113 0.744625 10.1862 0.927019C10.2612 1.10941 10.2996 1.30491 10.2992 1.50228C10.2992 1.68457 10.2669 1.85872 10.2086 2.01986L14.9934 4.80306C15.0274 4.76237 15.0613 4.72168 15.0985 4.68425C15.2372 4.5446 15.4019 4.43389 15.5833 4.35847C15.7646 4.28306 15.959 4.24442 16.1552 4.24479C16.5678 4.24479 16.9416 4.41244 17.2118 4.68425C17.3506 4.82372 17.4607 4.98942 17.5357 5.17181C17.6106 5.3542 17.649 5.5497 17.6487 5.74707C17.6487 6.16211 17.482 6.53646 17.2118 6.80827C16.9795 7.04215 16.6769 7.1921 16.351 7.2347V12.7539C16.6859 12.7979 16.9853 12.9525 17.2118 13.1803C17.482 13.4522 17.6487 13.8281 17.6487 14.2415C17.6489 14.4389 17.6103 14.6343 17.5353 14.8166C17.4603 14.999 17.3503 15.1647 17.2116 15.3042C17.0729 15.4437 16.9082 15.5544 16.7269 15.6298C16.5456 15.7052 16.3513 15.744 16.1552 15.7438C15.9337 15.7442 15.7149 15.6948 15.5147 15.5994C15.3146 15.5039 15.1381 15.3648 14.9982 15.1921L10.207 17.9785C10.2653 18.1396 10.2976 18.3138 10.2976 18.4961C10.2976 18.9111 10.131 19.2871 9.86074 19.5589C9.72208 19.6986 9.55735 19.8093 9.37602 19.8847C9.19469 19.9601 9.00033 19.9987 8.80412 19.9984C8.3915 19.9984 8.01772 19.8307 7.74749 19.5589C7.47727 19.2871 7.31061 18.9111 7.31061 18.4961C7.31061 18.3105 7.34459 18.1315 7.40607 17.9671L2.64561 15.1986C2.50555 15.37 2.32941 15.5079 2.12989 15.6025C1.93037 15.6971 1.71246 15.7459 1.4919 15.7454C1.07928 15.7454 0.705499 15.5778 0.435276 15.306C0.16667 15.0342 5.15134e-06 14.6582 5.15134e-06 14.2432C5.15134e-06 13.8281 0.16667 13.4538 0.436894 13.182C0.666496 12.9508 0.964699 12.8011 1.2864 12.7555V7.23307C0.964478 7.18823 0.666061 7.03843 0.436894 6.80664C0.29796 6.66758 0.187814 6.50219 0.112824 6.32004C0.0378339 6.13789 -0.000511461 5.94259 5.15134e-06 5.74544C5.15134e-06 5.3304 0.16667 4.95443 0.436894 4.68262C0.575557 4.54297 0.740285 4.43226 0.921614 4.35685C1.10294 4.28143 1.2973 4.2428 1.49352 4.24316C1.71542 4.24277 1.9346 4.29226 2.13505 4.388C2.33549 4.48374 2.51214 4.62333 2.65208 4.79655L7.40769 2.03125ZM9.95783 2.45605C9.73104 2.73419 9.41222 2.92083 9.05978 2.98177V6.11979L12.0258 7.84831L14.7523 6.26302C14.6924 6.10189 14.6617 5.92611 14.6617 5.74544C14.6617 5.56966 14.6924 5.39876 14.7474 5.24251L9.95783 2.45605ZM15.8947 7.22494C15.5929 7.17214 15.3147 7.02658 15.0985 6.80827C15.0678 6.77734 15.0387 6.74642 15.0112 6.71224L12.2895 8.29427V11.6764L15.0225 13.2633C15.0468 13.2357 15.071 13.208 15.0969 13.182C15.3133 12.964 15.5914 12.8184 15.893 12.7653L15.8947 7.22494ZM14.7507 14.7559C14.6924 14.5964 14.6617 14.4238 14.6617 14.2448C14.6617 14.056 14.6956 13.8753 14.7604 13.7077L12.1164 12.1729L9.05978 13.96V17.0182C9.41222 17.0792 9.73104 17.2658 9.95783 17.5439L14.7507 14.7559ZM7.66012 17.5326C7.88544 17.2621 8.19821 17.08 8.5436 17.0182V13.9453L5.47567 12.1549L2.87214 13.667C2.94496 13.8444 2.98703 14.0397 2.98703 14.2448C2.98703 14.4271 2.95467 14.6012 2.89641 14.7624L7.66012 17.5326ZM1.74109 12.762C2.05338 12.8141 2.33331 12.9655 2.54852 13.182C2.5647 13.1982 2.57927 13.2145 2.59383 13.2308L5.2459 11.6911V8.19661L2.69253 6.64063C2.64884 6.70085 2.6003 6.75619 2.54852 6.80827C2.32913 7.02901 2.04698 7.17574 1.74109 7.22819V12.762ZM1.49513 6.72852C1.50161 6.72852 1.50808 6.72689 1.51455 6.72689H1.5275C1.77477 6.71908 2.00975 6.61662 2.18445 6.44043C2.27533 6.34926 2.34742 6.24094 2.39657 6.12167C2.44572 6.00241 2.47096 5.87455 2.47085 5.74544C2.47085 5.47363 2.36082 5.22786 2.18445 5.05046C2.00807 4.87305 1.76374 4.76237 1.49352 4.76237C1.22329 4.76237 0.978959 4.87305 0.802585 5.05046C0.7117 5.14162 0.639613 5.24995 0.590464 5.36921C0.541314 5.48848 0.51607 5.61634 0.516181 5.74544C0.516181 6.01725 0.626212 6.26302 0.802585 6.44043C0.893448 6.53199 1.00141 6.60458 1.12027 6.65402C1.23912 6.70346 1.36652 6.72878 1.49513 6.72852ZM9.49505 17.8044C9.40441 17.7129 9.29672 17.6404 9.17815 17.591C9.05958 17.5416 8.93247 17.5162 8.80412 17.5163C8.53389 17.5163 8.28956 17.627 8.11319 17.8044C7.93681 17.9818 7.82678 18.2275 7.82678 18.4993C7.82678 18.7712 7.93681 19.0169 8.11319 19.1943C8.28956 19.3717 8.53389 19.4824 8.80412 19.4824C9.07434 19.4824 9.31867 19.3717 9.49505 19.1943C9.67142 19.0169 9.78145 18.7712 9.78145 18.4993C9.78145 18.2275 9.67304 17.9818 9.49505 17.8044ZM9.49505 0.807292C9.40441 0.715873 9.29672 0.643363 9.17815 0.593925C9.05958 0.544487 8.93247 0.519094 8.80412 0.519206C8.53389 0.519206 8.28956 0.629883 8.11319 0.807292C7.93681 0.984701 7.82678 1.23047 7.82678 1.50228C7.82678 1.77409 7.93681 2.01986 8.11319 2.19727C8.20382 2.28868 8.31151 2.36119 8.43008 2.41063C8.54865 2.46007 8.67576 2.48546 8.80412 2.48535C9.07434 2.48535 9.31867 2.37467 9.49505 2.19727C9.58593 2.1061 9.65802 1.99777 9.70717 1.87851C9.75632 1.75924 9.78156 1.63139 9.78145 1.50228C9.78145 1.23047 9.67304 0.984701 9.49505 0.807292ZM16.8445 13.5498C16.7538 13.4584 16.6462 13.3859 16.5276 13.3364C16.409 13.287 16.2819 13.2616 16.1536 13.2617C15.8833 13.2617 15.639 13.3724 15.4626 13.5498C15.3717 13.641 15.2996 13.7493 15.2505 13.8686C15.2013 13.9878 15.1761 14.1157 15.1762 14.2448C15.1762 14.5166 15.2862 14.7624 15.4626 14.9398C15.5533 15.0312 15.6609 15.1037 15.7795 15.1531C15.8981 15.2026 16.0252 15.228 16.1536 15.2279C16.4238 15.2279 16.6681 15.1172 16.8445 14.9398C16.9354 14.8486 17.0075 14.7403 17.0566 14.621C17.1058 14.5018 17.131 14.3739 17.1309 14.2448C17.1309 13.973 17.0225 13.7272 16.8445 13.5498ZM2.18445 13.5498C2.00807 13.3724 1.76374 13.2617 1.49352 13.2617C1.22329 13.2617 0.978959 13.3724 0.802585 13.5498C0.7117 13.641 0.639613 13.7493 0.590464 13.8686C0.541314 13.9878 0.51607 14.1157 0.516181 14.2448C0.516181 14.5166 0.626212 14.7624 0.802585 14.9398C0.978959 15.1172 1.22329 15.2279 1.49352 15.2279C1.76374 15.2279 2.00807 15.1172 2.18445 14.9398C2.27533 14.8486 2.34742 14.7403 2.39657 14.621C2.44572 14.5018 2.47096 14.3739 2.47085 14.2448C2.47033 13.9842 2.36738 13.7344 2.18445 13.5498ZM15.283 6.18978C15.296 6.2028 15.3057 6.21908 15.3154 6.23535C15.3251 6.25163 15.3316 6.2679 15.338 6.28581C15.3752 6.34115 15.4173 6.39323 15.4626 6.44043C15.5533 6.53185 15.6609 6.60436 15.7795 6.6538C15.8981 6.70323 16.0252 6.72863 16.1536 6.72852C16.4238 6.72852 16.6681 6.61784 16.8445 6.44043C16.9354 6.34926 17.0075 6.24094 17.0566 6.12167C17.1058 6.00241 17.131 5.87455 17.1309 5.74544C17.1309 5.47363 17.0209 5.22786 16.8445 5.05046C16.7538 4.95904 16.6462 4.88653 16.5276 4.83709C16.409 4.78765 16.2819 4.76226 16.1536 4.76237C15.8833 4.76237 15.639 4.87305 15.4626 5.05046C15.3717 5.14162 15.2996 5.24995 15.2505 5.36921C15.2013 5.48848 15.1761 5.61634 15.1762 5.74544C15.1778 5.90658 15.2167 6.05632 15.283 6.18978ZM5.72972 11.6357C5.76648 11.6755 5.79069 11.7254 5.79929 11.779L8.57111 13.418V10.1823L5.72972 8.48145V11.6357ZM11.8073 8.52539L9.05492 10.1839V13.4212L11.8073 11.7855V8.52539ZM8.80088 6.50879L6.11483 8.125L8.81544 9.76074L11.4384 8.15918L8.80088 6.50879Z" fill="#09FBD3"/>
<path fill-rule="evenodd" clip-rule="evenodd" d="M5.57114 7.78971L8.5436 6.11979V2.98014C8.19821 2.91836 7.88544 2.73628 7.66012 2.46582L2.89803 5.23763C2.95467 5.39714 2.98541 5.56803 2.98541 5.74707C2.98541 5.89681 2.96437 6.04004 2.92392 6.17676L5.57114 7.78971ZM7.40769 2.03125C7.34451 1.86213 7.31217 1.68294 7.31222 1.50228C7.31222 1.08724 7.47889 0.711263 7.74911 0.439453C8.01934 0.167643 8.39312 0 8.80573 0C9.21835 0 9.59213 0.167643 9.86236 0.439453C10.0012 0.57893 10.1113 0.744625 10.1862 0.927019C10.2612 1.10941 10.2996 1.30491 10.2992 1.50228C10.2992 1.68457 10.2669 1.85872 10.2086 2.01986L14.9934 4.80306C15.0274 4.76237 15.0613 4.72168 15.0985 4.68425C15.2372 4.5446 15.4019 4.43389 15.5833 4.35847C15.7646 4.28306 15.959 4.24442 16.1552 4.24479C16.5678 4.24479 16.9416 4.41244 17.2118 4.68425C17.3506 4.82372 17.4607 4.98942 17.5357 5.17181C17.6106 5.3542 17.649 5.5497 17.6487 5.74707C17.6487 6.16211 17.482 6.53646 17.2118 6.80827C16.9795 7.04215 16.6769 7.1921 16.351 7.2347V12.7539C16.6859 12.7979 16.9853 12.9525 17.2118 13.1803C17.482 13.4522 17.6487 13.8281 17.6487 14.2415C17.6489 14.4389 17.6103 14.6343 17.5353 14.8166C17.4603 14.999 17.3503 15.1647 17.2116 15.3042C17.0729 15.4437 16.9082 15.5544 16.7269 15.6298C16.5456 15.7052 16.3513 15.744 16.1552 15.7438C15.9337 15.7442 15.7149 15.6948 15.5147 15.5994C15.3146 15.5039 15.1381 15.3648 14.9982 15.1921L10.207 17.9785C10.2653 18.1396 10.2976 18.3138 10.2976 18.4961C10.2976 18.9111 10.131 19.2871 9.86074 19.5589C9.72208 19.6986 9.55735 19.8093 9.37602 19.8847C9.19469 19.9601 9.00033 19.9987 8.80412 19.9984C8.3915 19.9984 8.01772 19.8307 7.74749 19.5589C7.47727 19.2871 7.31061 18.9111 7.31061 18.4961C7.31061 18.3105 7.34459 18.1315 7.40607 17.9671L2.64561 15.1986C2.50555 15.37 2.32941 15.5079 2.12989 15.6025C1.93037 15.6971 1.71246 15.7459 1.4919 15.7454C1.07928 15.7454 0.705499 15.5778 0.435276 15.306C0.16667 15.0342 5.15134e-06 14.6582 5.15134e-06 14.2432C5.15134e-06 13.8281 0.16667 13.4538 0.436894 13.182C0.666496 12.9508 0.964699 12.8011 1.2864 12.7555V7.23307C0.964478 7.18823 0.666061 7.03843 0.436894 6.80664C0.29796 6.66758 0.187814 6.50219 0.112824 6.32004C0.0378339 6.13789 -0.000511461 5.94259 5.15134e-06 5.74544C5.15134e-06 5.3304 0.16667 4.95443 0.436894 4.68262C0.575557 4.54297 0.740285 4.43226 0.921614 4.35685C1.10294 4.28143 1.2973 4.2428 1.49352 4.24316C1.71542 4.24277 1.9346 4.29226 2.13505 4.388C2.33549 4.48374 2.51214 4.62333 2.65208 4.79655L7.40769 2.03125ZM9.95783 2.45605C9.73104 2.73419 9.41222 2.92083 9.05978 2.98177V6.11979L12.0258 7.84831L14.7523 6.26302C14.6924 6.10189 14.6617 5.92611 14.6617 5.74544C14.6617 5.56966 14.6924 5.39876 14.7474 5.24251L9.95783 2.45605ZM15.8947 7.22494C15.5929 7.17214 15.3147 7.02658 15.0985 6.80827C15.0678 6.77734 15.0387 6.74642 15.0112 6.71224L12.2895 8.29427V11.6764L15.0225 13.2633C15.0468 13.2357 15.071 13.208 15.0969 13.182C15.3133 12.964 15.5914 12.8184 15.893 12.7653L15.8947 7.22494ZM14.7507 14.7559C14.6924 14.5964 14.6617 14.4238 14.6617 14.2448C14.6617 14.056 14.6956 13.8753 14.7604 13.7077L12.1164 12.1729L9.05978 13.96V17.0182C9.41222 17.0792 9.73104 17.2658 9.95783 17.5439L14.7507 14.7559ZM7.66012 17.5326C7.88544 17.2621 8.19821 17.08 8.5436 17.0182V13.9453L5.47567 12.1549L2.87214 13.667C2.94496 13.8444 2.98703 14.0397 2.98703 14.2448C2.98703 14.4271 2.95467 14.6012 2.89641 14.7624L7.66012 17.5326ZM1.74109 12.762C2.05338 12.8141 2.33331 12.9655 2.54852 13.182C2.5647 13.1982 2.57927 13.2145 2.59383 13.2308L5.2459 11.6911V8.19661L2.69253 6.64063C2.64884 6.70085 2.6003 6.75619 2.54852 6.80827C2.32913 7.02901 2.04698 7.17574 1.74109 7.22819V12.762ZM1.49513 6.72852C1.50161 6.72852 1.50808 6.72689 1.51455 6.72689H1.5275C1.77477 6.71908 2.00975 6.61662 2.18445 6.44043C2.27533 6.34926 2.34742 6.24094 2.39657 6.12167C2.44572 6.00241 2.47096 5.87455 2.47085 5.74544C2.47085 5.47363 2.36082 5.22786 2.18445 5.05046C2.00807 4.87305 1.76374 4.76237 1.49352 4.76237C1.22329 4.76237 0.978959 4.87305 0.802585 5.05046C0.7117 5.14162 0.639613 5.24995 0.590464 5.36921C0.541314 5.48848 0.51607 5.61634 0.516181 5.74544C0.516181 6.01725 0.626212 6.26302 0.802585 6.44043C0.893448 6.53199 1.00141 6.60458 1.12027 6.65402C1.23912 6.70346 1.36652 6.72878 1.49513 6.72852ZM9.49505 17.8044C9.40441 17.7129 9.29672 17.6404 9.17815 17.591C9.05958 17.5416 8.93247 17.5162 8.80412 17.5163C8.53389 17.5163 8.28956 17.627 8.11319 17.8044C7.93681 17.9818 7.82678 18.2275 7.82678 18.4993C7.82678 18.7712 7.93681 19.0169 8.11319 19.1943C8.28956 19.3717 8.53389 19.4824 8.80412 19.4824C9.07434 19.4824 9.31867 19.3717 9.49505 19.1943C9.67142 19.0169 9.78145 18.7712 9.78145 18.4993C9.78145 18.2275 9.67304 17.9818 9.49505 17.8044ZM9.49505 0.807292C9.40441 0.715873 9.29672 0.643363 9.17815 0.593925C9.05958 0.544487 8.93247 0.519094 8.80412 0.519206C8.53389 0.519206 8.28956 0.629883 8.11319 0.807292C7.93681 0.984701 7.82678 1.23047 7.82678 1.50228C7.82678 1.77409 7.93681 2.01986 8.11319 2.19727C8.20382 2.28868 8.31151 2.36119 8.43008 2.41063C8.54865 2.46007 8.67576 2.48546 8.80412 2.48535C9.07434 2.48535 9.31867 2.37467 9.49505 2.19727C9.58593 2.1061 9.65802 1.99777 9.70717 1.87851C9.75632 1.75924 9.78156 1.63139 9.78145 1.50228C9.78145 1.23047 9.67304 0.984701 9.49505 0.807292ZM16.8445 13.5498C16.7538 13.4584 16.6462 13.3859 16.5276 13.3364C16.409 13.287 16.2819 13.2616 16.1536 13.2617C15.8833 13.2617 15.639 13.3724 15.4626 13.5498C15.3717 13.641 15.2996 13.7493 15.2505 13.8686C15.2013 13.9878 15.1761 14.1157 15.1762 14.2448C15.1762 14.5166 15.2862 14.7624 15.4626 14.9398C15.5533 15.0312 15.6609 15.1037 15.7795 15.1531C15.8981 15.2026 16.0252 15.228 16.1536 15.2279C16.4238 15.2279 16.6681 15.1172 16.8445 14.9398C16.9354 14.8486 17.0075 14.7403 17.0566 14.621C17.1058 14.5018 17.131 14.3739 17.1309 14.2448C17.1309 13.973 17.0225 13.7272 16.8445 13.5498ZM2.18445 13.5498C2.00807 13.3724 1.76374 13.2617 1.49352 13.2617C1.22329 13.2617 0.978959 13.3724 0.802585 13.5498C0.7117 13.641 0.639613 13.7493 0.590464 13.8686C0.541314 13.9878 0.51607 14.1157 0.516181 14.2448C0.516181 14.5166 0.626212 14.7624 0.802585 14.9398C0.978959 15.1172 1.22329 15.2279 1.49352 15.2279C1.76374 15.2279 2.00807 15.1172 2.18445 14.9398C2.27533 14.8486 2.34742 14.7403 2.39657 14.621C2.44572 14.5018 2.47096 14.3739 2.47085 14.2448C2.47033 13.9842 2.36738 13.7344 2.18445 13.5498ZM15.283 6.18978C15.296 6.2028 15.3057 6.21908 15.3154 6.23535C15.3251 6.25163 15.3316 6.2679 15.338 6.28581C15.3752 6.34115 15.4173 6.39323 15.4626 6.44043C15.5533 6.53185 15.6609 6.60436 15.7795 6.6538C15.8981 6.70323 16.0252 6.72863 16.1536 6.72852C16.4238 6.72852 16.6681 6.61784 16.8445 6.44043C16.9354 6.34926 17.0075 6.24094 17.0566 6.12167C17.1058 6.00241 17.131 5.87455 17.1309 5.74544C17.1309 5.47363 17.0209 5.22786 16.8445 5.05046C16.7538 4.95904 16.6462 4.88653 16.5276 4.83709C16.409 4.78765 16.2819 4.76226 16.1536 4.76237C15.8833 4.76237 15.639 4.87305 15.4626 5.05046C15.3717 5.14162 15.2996 5.24995 15.2505 5.36921C15.2013 5.48848 15.1761 5.61634 15.1762 5.74544C15.1778 5.90658 15.2167 6.05632 15.283 6.18978ZM5.72972 11.6357C5.76648 11.6755 5.79069 11.7254 5.79929 11.779L8.57111 13.418V10.1823L5.72972 8.48145V11.6357ZM11.8073 8.52539L9.05492 10.1839V13.4212L11.8073 11.7855V8.52539ZM8.80088 6.50879L6.11483 8.125L8.81544 9.76074L11.4384 8.15918L8.80088 6.50879Z" stroke="#09FBD3" stroke-width="0.2" mask="url(#path-1-outside-1_1290_6423)"/>
</g>
</g>
<defs>
<clipPath id="clip0_1290_6423">
<rect width="17.6471" height="20" fill="white"/>
</clipPath>
</defs>
</svg>
