<svg width="24" height="24" viewBox="0 0 24 24" fill="none" xmlns="http://www.w3.org/2000/svg">
<g id="boar-svgrepo-com (2)">
<path id="Vector" d="M7.72472 5.5498C6.82472 3.8623 0.899718 4.3873 0.899718 4.3873C0.899718 4.3873 0.187218 10.3873 1.91222 11.3248C3.22472 12.0373 8.43722 6.8998 7.72472 5.5498Z" fill="#89664C"/>
<path id="Vector_2" d="M6.60056 6.45021C6.03806 5.40021 2.36306 5.73771 2.36306 5.73771C2.36306 5.73771 1.95056 9.48771 3.00056 10.0502C3.82556 10.5002 7.05056 7.31271 6.60056 6.45021Z" fill="#2B2118"/>
<path id="Vector_3" d="M22.0127 11.2873C23.7002 10.3873 23.1752 4.49982 23.1752 4.49982C23.1752 4.49982 17.1377 3.78732 16.2002 5.51232C15.4877 6.82482 20.6252 11.9998 22.0127 11.2873Z" fill="#89664C"/>
<path id="Vector_4" d="M21.0742 10.1627C22.1242 9.60017 21.7867 5.96267 21.7867 5.96267C21.7867 5.96267 18.0367 5.55017 17.4367 6.60017C17.0242 7.42517 20.2492 10.6127 21.0742 10.1627Z" fill="#2B2118"/>
<path id="Vector_5" d="M22.0492 14.775C22.0492 21.3 17.5492 22.5 11.9992 22.5C6.44922 22.5 1.94922 21.3 1.94922 14.775C1.94922 8.25 8.13672 3.5625 11.9992 3.5625C15.8617 3.5625 22.0492 8.25 22.0492 14.775Z" fill="#89664C"/>
<g id="Group">
<path id="Vector_6" d="M7.38752 17.7373C2.92502 19.9123 4.12502 10.6123 4.12502 10.6123C0.675019 19.5373 4.80002 20.9623 7.72502 20.5123L7.38752 17.7373Z" fill="white"/>
<path id="Vector_7" d="M16.6129 17.7373C21.0754 19.9123 19.8754 10.6123 19.8754 10.6123C23.3254 19.5373 19.2004 20.9623 16.2754 20.5123L16.6129 17.7373Z" fill="white"/>
</g>
<path id="Vector_8" d="M12.0008 8.475C12.0008 8.475 10.8758 4.725 8.36328 4.0125C8.36328 4.0125 9.48828 3.375 10.3133 3.675C10.3133 3.675 10.3508 3 9.63828 2.5125C9.63828 2.5125 11.2508 2.175 12.0758 3.3C12.0758 3.3 12.1883 2.1 11.8883 1.5C11.8883 1.5 14.5508 2.1375 15.2633 4.425C15.2633 4.425 12.5258 5.2125 12.0008 8.475Z" fill="#5C4533"/>
<g id="Group_2">
<path id="Vector_9" d="M6.975 15.075C7.61703 15.075 8.1375 14.1348 8.1375 12.975C8.1375 11.8152 7.61703 10.875 6.975 10.875C6.33297 10.875 5.8125 11.8152 5.8125 12.975C5.8125 14.1348 6.33297 15.075 6.975 15.075Z" fill="#2B2118"/>
<path id="Vector_10" d="M17.0258 10.7998C17.6633 10.7998 18.1883 11.7373 18.1883 12.8998C18.1883 14.0623 17.6633 14.9998 17.0258 14.9998C16.3883 14.9998 15.8633 14.0623 15.8633 12.8998C15.8633 11.7373 16.3883 10.7998 17.0258 10.7998Z" fill="#2B2118"/>
</g>
<path id="Vector_11" d="M17.25 18.6749C17.25 21.7124 14.8875 21.3749 12 21.3749C9.075 21.3749 6.75 21.7124 6.75 18.6749C6.75 15.6374 9.1125 14.1374 12 14.1374C14.925 14.0999 17.25 15.6374 17.25 18.6749Z" fill="#FC97B2"/>
<g id="Group_3">
<path id="Vector_12" d="M9.63828 20.3627C10.3424 20.3627 10.9133 19.305 10.9133 18.0002C10.9133 16.6954 10.3424 15.6377 9.63828 15.6377C8.93412 15.6377 8.36328 16.6954 8.36328 18.0002C8.36328 19.305 8.93412 20.3627 9.63828 20.3627Z" fill="#7A495A"/>
<path id="Vector_13" d="M14.3629 20.3627C15.0671 20.3627 15.6379 19.305 15.6379 18.0002C15.6379 16.6954 15.0671 15.6377 14.3629 15.6377C13.6587 15.6377 13.0879 16.6954 13.0879 18.0002C13.0879 19.305 13.6587 20.3627 14.3629 20.3627Z" fill="#7A495A"/>
</g>
</g>
</svg>
