<svg width="71" height="73" viewBox="0 0 71 73" fill="none" xmlns="http://www.w3.org/2000/svg">
<path d="M44.1299 36.2547V29.9757C44.1299 28.5906 43.539 28.0366 42.0708 28.0366H38.3404C36.8722 28.0366 36.2812 28.5906 36.2812 29.9757V36.2547C36.2812 37.6397 36.8722 38.1937 38.3404 38.1937H42.0708C43.539 38.1937 44.1299 37.6397 44.1299 36.2547Z" fill="#8B8C91"/>
<path d="M34.4346 38.2863V44.5652C34.4346 45.9503 33.8437 46.5043 32.3755 46.5043H28.6451C27.1769 46.5043 26.5859 45.9503 26.5859 44.5652V38.2863C26.5859 36.9012 27.1769 36.3472 28.6451 36.3472H32.3755C33.8437 36.3472 34.4346 36.9012 34.4346 38.2863Z" fill="#8B8C91"/>
<path d="M44.1299 44.5651V41.9796C44.1299 40.5946 43.539 40.0405 42.0708 40.0405H38.3404C36.8722 40.0405 36.2812 40.5946 36.2812 41.9796V44.5651C36.2812 45.9501 36.8722 46.5042 38.3404 46.5042H42.0708C43.539 46.5042 44.1299 45.9501 44.1299 44.5651Z" fill="#8B8C91"/>
<path d="M34.4346 32.5612V29.9757C34.4346 28.5906 33.8437 28.0366 32.3755 28.0366H28.6451C27.1769 28.0366 26.5859 28.5906 26.5859 29.9757V32.5612C26.5859 33.9462 27.1769 34.5002 28.6451 34.5002H32.3755C33.8437 34.5002 34.4346 33.9462 34.4346 32.5612Z" fill="#8B8C91"/>
<g opacity="0.2" filter="url(#filter0_f_162_1674)">
<path d="M43.5324 35.4833V29.6855C43.5324 28.4066 42.9868 27.895 41.6311 27.895H38.1865C36.8308 27.895 36.2852 28.4066 36.2852 29.6855V35.4833C36.2852 36.7623 36.8308 37.2739 38.1865 37.2739H41.6311C42.9868 37.2739 43.5324 36.7623 43.5324 35.4833Z" fill="#8B8C91"/>
<path d="M34.5803 37.3594V43.1572C34.5803 44.4361 34.0346 44.9477 32.6789 44.9477H29.2344C27.8787 44.9477 27.333 44.4361 27.333 43.1572V37.3594C27.333 36.0804 27.8787 35.5688 29.2344 35.5688H32.6789C34.0346 35.5688 34.5803 36.0804 34.5803 37.3594Z" fill="#8B8C91"/>
<path d="M43.5324 43.1571V40.7698C43.5324 39.4908 42.9868 38.9792 41.6311 38.9792H38.1865C36.8308 38.9792 36.2852 39.4908 36.2852 40.7698V43.1571C36.2852 44.436 36.8308 44.9476 38.1865 44.9476H41.6311C42.9868 44.9476 43.5324 44.436 43.5324 43.1571Z" fill="#8B8C91"/>
<path d="M34.5803 32.0729V29.6855C34.5803 28.4066 34.0346 27.895 32.6789 27.895H29.2344C27.8787 27.895 27.333 28.4066 27.333 29.6855V32.0729C27.333 33.3518 27.8787 33.8634 29.2344 33.8634H32.6789C34.0346 33.8634 34.5803 33.3518 34.5803 32.0729Z" fill="#8B8C91"/>
</g>
<defs>
<filter id="filter0_f_162_1674" x="-2.02655" y="-1.03778" width="74.9183" height="74.9183" filterUnits="userSpaceOnUse" color-interpolation-filters="sRGB">
<feFlood flood-opacity="0" result="BackgroundImageFix"/>
<feBlend mode="normal" in="SourceGraphic" in2="BackgroundImageFix" result="shape"/>
<feGaussianBlur stdDeviation="13.6139" result="effect1_foregroundBlur_162_1674"/>
</filter>
</defs>
</svg>
