<svg width="68" height="24" viewBox="0 0 68 24" fill="none" xmlns="http://www.w3.org/2000/svg">
<rect width="68" height="24" rx="6" fill="url(#paint0_linear_2997_8325)"/>
<path d="M3.38684 11.832C3.38684 11.208 3.52184 10.653 3.79184 10.167C4.06184 9.675 4.43684 9.294 4.91684 9.024C5.40284 8.748 5.95184 8.61 6.56384 8.61C7.31384 8.61 7.95584 8.808 8.48984 9.204C9.02384 9.6 9.38084 10.14 9.56084 10.824H7.86884C7.74284 10.56 7.56284 10.359 7.32884 10.221C7.10084 10.083 6.83984 10.014 6.54584 10.014C6.07184 10.014 5.68784 10.179 5.39384 10.509C5.09984 10.839 4.95284 11.28 4.95284 11.832C4.95284 12.384 5.09984 12.825 5.39384 13.155C5.68784 13.485 6.07184 13.65 6.54584 13.65C6.83984 13.65 7.10084 13.581 7.32884 13.443C7.56284 13.305 7.74284 13.104 7.86884 12.84H9.56084C9.38084 13.524 9.02384 14.064 8.48984 14.46C7.95584 14.85 7.31384 15.045 6.56384 15.045C5.95184 15.045 5.40284 14.91 4.91684 14.64C4.43684 14.364 4.06184 13.983 3.79184 13.497C3.52184 13.011 3.38684 12.456 3.38684 11.832ZM12.7893 15.072C12.2973 15.072 11.8533 14.967 11.4573 14.757C11.0673 14.547 10.7583 14.247 10.5303 13.857C10.3083 13.467 10.1973 13.011 10.1973 12.489C10.1973 11.973 10.3113 11.52 10.5393 11.13C10.7673 10.734 11.0793 10.431 11.4753 10.221C11.8713 10.011 12.3153 9.906 12.8073 9.906C13.2993 9.906 13.7433 10.011 14.1393 10.221C14.5353 10.431 14.8473 10.734 15.0753 11.13C15.3033 11.52 15.4173 11.973 15.4173 12.489C15.4173 13.005 15.3003 13.461 15.0663 13.857C14.8383 14.247 14.5233 14.547 14.1213 14.757C13.7253 14.967 13.2813 15.072 12.7893 15.072ZM12.7893 13.74C13.0833 13.74 13.3323 13.632 13.5363 13.416C13.7463 13.2 13.8513 12.891 13.8513 12.489C13.8513 12.087 13.7493 11.778 13.5453 11.562C13.3473 11.346 13.1013 11.238 12.8073 11.238C12.5073 11.238 12.2583 11.346 12.0603 11.562C11.8623 11.772 11.7633 12.081 11.7633 12.489C11.7633 12.891 11.8593 13.2 12.0513 13.416C12.2493 13.632 12.4953 13.74 12.7893 13.74ZM22.6418 9.924C23.2658 9.924 23.7608 10.113 24.1268 10.491C24.4988 10.869 24.6848 11.394 24.6848 12.066V15H23.1548V12.273C23.1548 11.949 23.0678 11.7 22.8938 11.526C22.7258 11.346 22.4918 11.256 22.1918 11.256C21.8918 11.256 21.6548 11.346 21.4808 11.526C21.3128 11.7 21.2288 11.949 21.2288 12.273V15H19.6988V12.273C19.6988 11.949 19.6118 11.7 19.4378 11.526C19.2698 11.346 19.0358 11.256 18.7358 11.256C18.4358 11.256 18.1988 11.346 18.0248 11.526C17.8568 11.7 17.7728 11.949 17.7728 12.273V15H16.2338V9.978H17.7728V10.608C17.9288 10.398 18.1328 10.233 18.3848 10.113C18.6368 9.987 18.9218 9.924 19.2398 9.924C19.6178 9.924 19.9538 10.005 20.2478 10.167C20.5478 10.329 20.7818 10.56 20.9498 10.86C21.1238 10.584 21.3608 10.359 21.6608 10.185C21.9608 10.011 22.2878 9.924 22.6418 9.924ZM26.5351 9.456C26.2651 9.456 26.0431 9.378 25.8691 9.222C25.7011 9.06 25.6171 8.862 25.6171 8.628C25.6171 8.388 25.7011 8.19 25.8691 8.034C26.0431 7.872 26.2651 7.791 26.5351 7.791C26.7991 7.791 27.0151 7.872 27.1831 8.034C27.3571 8.19 27.4441 8.388 27.4441 8.628C27.4441 8.862 27.3571 9.06 27.1831 9.222C27.0151 9.378 26.7991 9.456 26.5351 9.456ZM27.3001 9.978V15H25.7611V9.978H27.3001ZM31.4754 9.924C32.0634 9.924 32.5314 10.116 32.8794 10.5C33.2334 10.878 33.4104 11.4 33.4104 12.066V15H31.8804V12.273C31.8804 11.937 31.7934 11.676 31.6194 11.49C31.4454 11.304 31.2114 11.211 30.9174 11.211C30.6234 11.211 30.3894 11.304 30.2154 11.49C30.0414 11.676 29.9544 11.937 29.9544 12.273V15H28.4154V9.978H29.9544V10.644C30.1104 10.422 30.3204 10.248 30.5844 10.122C30.8484 9.99 31.1454 9.924 31.4754 9.924ZM36.3879 9.906C36.7419 9.906 37.0509 9.978 37.3149 10.122C37.5849 10.266 37.7919 10.455 37.9359 10.689V9.978H39.4749V14.991C39.4749 15.453 39.3819 15.87 39.1959 16.242C39.0159 16.62 38.7369 16.92 38.3589 17.142C37.9869 17.364 37.5219 17.475 36.9639 17.475C36.2199 17.475 35.6169 17.298 35.1549 16.944C34.6929 16.596 34.4289 16.122 34.3629 15.522H35.8839C35.9319 15.714 36.0459 15.864 36.2259 15.972C36.4059 16.086 36.6279 16.143 36.8919 16.143C37.2099 16.143 37.4619 16.05 37.6479 15.864C37.8399 15.684 37.9359 15.393 37.9359 14.991V14.28C37.7859 14.514 37.5789 14.706 37.3149 14.856C37.0509 15 36.7419 15.072 36.3879 15.072C35.9739 15.072 35.5989 14.967 35.2629 14.757C34.9269 14.541 34.6599 14.238 34.4619 13.848C34.2699 13.452 34.1739 12.996 34.1739 12.48C34.1739 11.964 34.2699 11.511 34.4619 11.121C34.6599 10.731 34.9269 10.431 35.2629 10.221C35.5989 10.011 35.9739 9.906 36.3879 9.906ZM37.9359 12.489C37.9359 12.105 37.8279 11.802 37.6119 11.58C37.4019 11.358 37.1439 11.247 36.8379 11.247C36.5319 11.247 36.2709 11.358 36.0549 11.58C35.8449 11.796 35.7399 12.096 35.7399 12.48C35.7399 12.864 35.8449 13.17 36.0549 13.398C36.2709 13.62 36.5319 13.731 36.8379 13.731C37.1439 13.731 37.4019 13.62 37.6119 13.398C37.8279 13.176 37.9359 12.873 37.9359 12.489ZM44.7815 15.063C44.3195 15.063 43.9055 14.988 43.5395 14.838C43.1735 14.688 42.8795 14.466 42.6575 14.172C42.4415 13.878 42.3275 13.524 42.3155 13.11H43.9535C43.9775 13.344 44.0585 13.524 44.1965 13.65C44.3345 13.77 44.5145 13.83 44.7365 13.83C44.9645 13.83 45.1445 13.779 45.2765 13.677C45.4085 13.569 45.4745 13.422 45.4745 13.236C45.4745 13.08 45.4205 12.951 45.3125 12.849C45.2105 12.747 45.0815 12.663 44.9255 12.597C44.7755 12.531 44.5595 12.456 44.2775 12.372C43.8695 12.246 43.5365 12.12 43.2785 11.994C43.0205 11.868 42.7985 11.682 42.6125 11.436C42.4265 11.19 42.3335 10.869 42.3335 10.473C42.3335 9.885 42.5465 9.426 42.9725 9.096C43.3985 8.76 43.9535 8.592 44.6375 8.592C45.3335 8.592 45.8945 8.76 46.3205 9.096C46.7465 9.426 46.9745 9.888 47.0045 10.482H45.3395C45.3275 10.278 45.2525 10.119 45.1145 10.005C44.9765 9.885 44.7995 9.825 44.5835 9.825C44.3975 9.825 44.2475 9.876 44.1335 9.978C44.0195 10.074 43.9625 10.215 43.9625 10.401C43.9625 10.605 44.0585 10.764 44.2505 10.878C44.4425 10.992 44.7425 11.115 45.1505 11.247C45.5585 11.385 45.8885 11.517 46.1405 11.643C46.3985 11.769 46.6205 11.952 46.8065 12.192C46.9925 12.432 47.0855 12.741 47.0855 13.119C47.0855 13.479 46.9925 13.806 46.8065 14.1C46.6265 14.394 46.3625 14.628 46.0145 14.802C45.6665 14.976 45.2555 15.063 44.7815 15.063ZM50.3186 15.072C49.8266 15.072 49.3826 14.967 48.9866 14.757C48.5966 14.547 48.2876 14.247 48.0596 13.857C47.8376 13.467 47.7266 13.011 47.7266 12.489C47.7266 11.973 47.8406 11.52 48.0686 11.13C48.2966 10.734 48.6086 10.431 49.0046 10.221C49.4006 10.011 49.8446 9.906 50.3366 9.906C50.8286 9.906 51.2726 10.011 51.6686 10.221C52.0646 10.431 52.3766 10.734 52.6046 11.13C52.8326 11.52 52.9466 11.973 52.9466 12.489C52.9466 13.005 52.8296 13.461 52.5956 13.857C52.3676 14.247 52.0526 14.547 51.6506 14.757C51.2546 14.967 50.8106 15.072 50.3186 15.072ZM50.3186 13.74C50.6126 13.74 50.8616 13.632 51.0656 13.416C51.2756 13.2 51.3806 12.891 51.3806 12.489C51.3806 12.087 51.2786 11.778 51.0746 11.562C50.8766 11.346 50.6306 11.238 50.3366 11.238C50.0366 11.238 49.7876 11.346 49.5896 11.562C49.3916 11.772 49.2926 12.081 49.2926 12.489C49.2926 12.891 49.3886 13.2 49.5806 13.416C49.7786 13.632 50.0246 13.74 50.3186 13.74ZM56.0491 15.072C55.5571 15.072 55.1131 14.967 54.7171 14.757C54.3271 14.547 54.0181 14.247 53.7901 13.857C53.5681 13.467 53.4571 13.011 53.4571 12.489C53.4571 11.973 53.5711 11.52 53.7991 11.13C54.0271 10.734 54.3391 10.431 54.7351 10.221C55.1311 10.011 55.5751 9.906 56.0671 9.906C56.5591 9.906 57.0031 10.011 57.3991 10.221C57.7951 10.431 58.1071 10.734 58.3351 11.13C58.5631 11.52 58.6771 11.973 58.6771 12.489C58.6771 13.005 58.5601 13.461 58.3261 13.857C58.0981 14.247 57.7831 14.547 57.3811 14.757C56.9851 14.967 56.5411 15.072 56.0491 15.072ZM56.0491 13.74C56.3431 13.74 56.5921 13.632 56.7961 13.416C57.0061 13.2 57.1111 12.891 57.1111 12.489C57.1111 12.087 57.0091 11.778 56.8051 11.562C56.6071 11.346 56.3611 11.238 56.0671 11.238C55.7671 11.238 55.5181 11.346 55.3201 11.562C55.1221 11.772 55.0231 12.081 55.0231 12.489C55.0231 12.891 55.1191 13.2 55.3111 13.416C55.5091 13.632 55.7551 13.74 56.0491 13.74ZM62.5535 9.924C63.1415 9.924 63.6095 10.116 63.9575 10.5C64.3115 10.878 64.4885 11.4 64.4885 12.066V15H62.9585V12.273C62.9585 11.937 62.8715 11.676 62.6975 11.49C62.5235 11.304 62.2895 11.211 61.9955 11.211C61.7015 11.211 61.4675 11.304 61.2935 11.49C61.1195 11.676 61.0325 11.937 61.0325 12.273V15H59.4935V9.978H61.0325V10.644C61.1885 10.422 61.3985 10.248 61.6625 10.122C61.9265 9.99 62.2235 9.924 62.5535 9.924Z" fill="white"/>
<defs>
<linearGradient id="paint0_linear_2997_8325" x1="0" y1="0" x2="68.7877" y2="2.5228" gradientUnits="userSpaceOnUse">
<stop stop-color="#0090a199"/>
<stop offset="1" stop-color="#29ff9499"/>
</linearGradient>
</defs>
</svg>
