<svg width="24" height="24" viewBox="0 0 24 24" fill="none" xmlns="http://www.w3.org/2000/svg">
<g id="deer-svgrepo-com (1)" clip-path="url(#clip0_590_6079)">
<g id="Group">
<path id="Vector" d="M8.2125 8.21249C7.9875 7.61249 7.8 7.08749 7.6875 6.63749C11.475 4.61249 10.275 2.73749 9.375 4.12499C8.775 5.09999 7.875 5.54999 7.5 5.69999C7.35 4.46249 7.6125 3.63749 7.725 2.73749C7.95 1.27499 6.5625 0.562494 6.375 1.12499C6.075 1.98749 7.3125 1.46249 6.9375 3.52499C6.6375 5.09999 6.9 6.44999 7.1625 7.27499C6.6 6.82499 6 6.37499 5.325 5.92499C4.875 5.06249 4.3125 3.29999 5.5875 1.34999C5.9625 0.749994 5.475 0.712494 5.2875 0.749994C4.65 0.937494 3.7125 3.22499 4.2375 5.21249C1.6125 3.33749 2.55 0.749994 1.9125 0.749994C1.125 0.749994 1.5375 3.63749 2.6625 5.06249C3.0375 5.51249 3.75 6.03749 4.575 6.56249C3.9 6.86249 2.6625 7.08749 1.425 5.99999C1.275 5.92499 0.75 5.66249 0.75 6.33749C0.75 7.01249 2.9625 8.81249 5.4375 7.19999C6.4875 7.91249 7.5375 8.69999 7.9875 9.52499L10.1625 11.475C9.9375 10.275 9.225 9.22499 8.2125 8.21249Z" fill="#594640"/>
<path id="Vector_2" d="M15.7884 8.21249C16.0509 7.61249 16.2009 7.08749 16.3134 6.6375C12.5259 4.61249 13.7259 2.73749 14.6259 4.12499C15.2259 5.09999 16.1259 5.54999 16.5009 5.69999C16.6509 4.46249 16.3884 3.63749 16.2759 2.73749C16.0509 1.27499 17.4384 0.562494 17.6259 1.12499C17.9259 1.98749 16.6884 1.46249 17.0634 3.52499C17.3634 5.09999 17.1009 6.44999 16.8384 7.27499C17.4009 6.82499 18.0009 6.37499 18.6759 5.92499C19.1259 5.06249 19.6884 3.29999 18.4134 1.34999C18.0384 0.749994 18.5259 0.712494 18.7134 0.749994C19.3509 0.937494 20.2884 3.22499 19.7634 5.21249C22.3884 3.33749 21.4509 0.749994 22.0884 0.749994C22.8759 0.749994 22.4634 3.63749 21.3384 5.06249C20.9634 5.51249 20.2509 6.03749 19.4259 6.56249C20.1009 6.86249 21.3384 7.08749 22.5759 5.99999C22.7259 5.88749 23.2509 5.58749 23.2509 6.2625C23.2509 6.9375 21.0384 8.73749 18.5634 7.12499C17.5134 7.83749 16.4634 8.625 16.0134 9.45L13.8384 11.4C14.0634 10.275 14.7759 9.22499 15.7884 8.21249Z" fill="#594640"/>
</g>
<path id="Vector_3" d="M16.0122 14.775C15.0747 13.0875 16.1997 12.0375 15.4872 11.55C14.2872 10.725 13.0872 10.6875 11.9997 10.6875C10.9122 10.6875 9.71216 10.725 8.51216 11.55C7.79966 12 8.92466 13.0875 7.98716 14.775C7.04966 16.4625 7.91216 17.925 9.03716 18.9375C10.1622 19.9125 9.11216 22.0875 10.6872 22.9125C11.0622 23.1 11.5122 23.2875 11.9997 23.2875C12.4872 23.2875 12.9372 23.1 13.3122 22.9125C14.8872 22.0875 13.8372 19.95 14.9622 18.9375C16.1247 17.925 16.9872 16.4625 16.0122 14.775Z" fill="#D3976E"/>
<path id="Vector_4" opacity="0.5" d="M15.6383 13.4624C15.6758 13.8374 15.7508 14.2874 16.0508 14.7749C16.9883 16.4624 16.1258 17.9249 15.0008 18.9374C14.5133 19.3499 14.4383 19.9499 14.3633 20.5874C14.3633 19.6874 14.4383 18.0749 15.0758 16.4249C15.6008 14.9624 15.6383 14.2499 15.6383 13.4624Z" fill="#89664C"/>
<path id="Vector_5" opacity="0.5" d="M8.36255 13.4624C8.32505 13.8374 8.25005 14.2874 7.95005 14.7749C7.01255 16.4624 7.87505 17.9249 9.00005 18.9374C9.48755 19.3499 9.56255 19.9499 9.63755 20.5874C9.63755 19.6874 9.56255 18.0749 8.92505 16.4249C8.40005 14.9624 8.36255 14.2499 8.36255 13.4624Z" fill="#89664C"/>
<path id="Vector_6" d="M10.3116 13.3874C10.3116 13.3874 10.3116 7.6499 4.87409 7.6499C4.83659 7.6499 4.87409 13.3874 10.3116 13.3874Z" fill="#D3976E"/>
<path id="Vector_7" d="M5.77539 8.4751C5.77539 8.4751 7.83789 8.4751 9.37539 11.3251C9.37539 11.3251 8.13789 10.6501 8.32539 10.9501C8.51289 11.2501 9.41289 11.9251 8.47539 11.5876C7.57539 11.2501 8.17539 11.8501 8.47539 12.1501C8.77539 12.4126 5.77539 11.5876 5.77539 8.4751Z" fill="#89664C"/>
<path id="Vector_8" d="M13.6875 13.3874C13.6875 13.3874 13.6875 7.6499 19.125 7.6499C19.1625 7.6499 19.125 13.3874 13.6875 13.3874Z" fill="#D3976E"/>
<g id="Group_2">
<path id="Vector_9" d="M18.225 8.4751C18.225 8.4751 16.1625 8.4751 14.625 11.3251C14.625 11.3251 15.8625 10.6501 15.675 10.9501C15.4875 11.2501 14.5875 11.9251 15.525 11.5876C16.425 11.2501 15.825 11.8501 15.525 12.1501C15.225 12.4126 18.225 11.5876 18.225 8.4751Z" fill="#89664C"/>
<path id="Vector_10" d="M13.3868 22.2002C13.4243 22.3127 12.8243 22.8752 11.9993 22.8752C11.1368 22.8752 10.5368 22.2752 10.6118 22.2002C10.6493 22.0877 11.2493 22.4252 11.9993 22.4252C12.7493 22.4627 13.3493 22.0877 13.3868 22.2002Z" fill="#89664C"/>
<path id="Vector_11" d="M11.8125 21.8252H12.15V22.5377H11.8125V21.8252Z" fill="#89664C"/>
</g>
<path id="Vector_12" d="M12 20.2124C11.25 20.2124 10.3125 20.3249 10.3125 20.7374C10.3125 21.1499 10.9875 22.0874 12 22.0874C13.0125 22.0874 13.6875 21.1499 13.6875 20.7374C13.6875 20.3249 12.75 20.2124 12 20.2124Z" fill="#594640"/>
<path id="Vector_13" d="M11.9992 21.1125C12.6827 21.1125 13.2367 20.9614 13.2367 20.775C13.2367 20.5886 12.6827 20.4375 11.9992 20.4375C11.3158 20.4375 10.7617 20.5886 10.7617 20.775C10.7617 20.9614 11.3158 21.1125 11.9992 21.1125Z" fill="white"/>
<g id="Group_3">
<path id="Vector_14" d="M9.00492 16.7469C9.35165 16.6857 9.56274 16.2393 9.4764 15.7498C9.39006 15.2603 9.03899 14.9131 8.69226 14.9742C8.34553 15.0354 8.13444 15.4818 8.22078 15.9713C8.30712 16.4608 8.65819 16.808 9.00492 16.7469Z" fill="#3E4347"/>
<path id="Vector_15" d="M15.785 15.9904C15.8713 15.5009 15.6602 15.0545 15.3135 14.9934C14.9668 14.9322 14.6157 15.2795 14.5294 15.769C14.443 16.2585 14.6541 16.7049 15.0009 16.766C15.3476 16.8272 15.6987 16.4799 15.785 15.9904Z" fill="#3E4347"/>
</g>
<g id="Group_4">
<path id="Vector_16" d="M8.84908 13.8752C8.81158 13.9502 9.52408 14.4377 9.78658 15.3752C10.0866 16.2752 9.74908 17.1002 9.82408 17.1377C9.89908 17.2127 10.3866 16.3502 10.0866 15.3002C9.78658 14.2502 8.88658 13.8002 8.84908 13.8752Z" fill="#89664C"/>
<path id="Vector_17" d="M15.1486 13.8752C15.1861 13.9502 14.4736 14.4377 14.2111 15.3752C13.9111 16.2752 14.2486 17.1002 14.1736 17.1377C14.0986 17.2127 13.6111 16.3502 13.9111 15.3002C14.2111 14.2502 15.1111 13.8002 15.1486 13.8752Z" fill="#89664C"/>
<path id="Vector_18" opacity="0.5" d="M10.6113 10.7625C9.93625 11.4375 9.52376 12.15 10.3863 13.875C11.3613 15.825 11.0238 19.3875 11.9988 19.3875C13.0113 19.3875 12.6738 15.825 13.6113 13.875C14.4738 12.15 14.0613 11.4375 13.3863 10.7625C12.8988 10.6875 12.4488 10.6875 11.9988 10.6875C11.5488 10.6875 11.0988 10.725 10.6113 10.7625Z" fill="#89664C"/>
</g>
</g>
<defs>
<clipPath id="clip0_590_6079">
<rect width="24" height="24" fill="white"/>
</clipPath>
</defs>
</svg>
