<svg width="24" height="24" viewBox="0 0 24 24" fill="none" xmlns="http://www.w3.org/2000/svg">
<g id="dragon-face-svgrepo-com">
<path id="Vector" d="M3.13833 5.61953C4.52771 3.77265 6.64833 4.86953 7.23896 5.28578C7.83708 5.70765 9.19271 6.25328 9.91458 6.04328C10.6365 5.8314 10.9721 4.73828 10.5146 4.40453C9.93708 3.98265 9.49083 4.41203 9.50958 4.79453C9.51708 4.95203 9.63333 5.28765 9.36896 5.35703C9.23208 5.39265 9.06896 5.2164 9.01646 4.98765C8.96396 4.7589 8.96771 4.46265 9.19271 4.08953C9.66333 3.30953 11.1652 3.50078 11.3996 4.58828C11.6246 5.64203 10.9327 6.3714 10.2483 6.62265C9.23958 6.9939 7.82958 6.56265 7.16958 6.06015C6.33521 5.42453 4.74146 5.03453 3.87896 6.04328C2.63021 7.5039 5.14646 10.3014 5.14646 10.3014L4.16021 11.0758C4.16021 11.0758 3.87896 10.5302 3.29771 9.29828C2.75021 8.13953 2.32083 6.70515 3.13833 5.61953Z" fill="#78DE89"/>
<path id="Vector_2" d="M7.13322 12.2192L4.84572 12.5361C4.84572 12.5361 4.98634 12.9936 5.03884 13.3274C5.09134 13.6611 5.14759 14.3755 4.91509 14.5236C4.47447 14.8049 3.98322 14.1542 2.69697 14.3117C1.98822 14.3999 0.955091 14.7861 0.866966 15.7367C0.773216 16.7586 1.86822 15.6167 2.69697 15.5436C3.29509 15.4911 3.48822 16.1774 3.48822 16.1774C3.48822 16.1774 4.96572 17.4261 5.05384 17.2517C5.14197 17.0755 9.27634 13.9255 9.27634 13.9255L7.13322 12.2192Z" fill="#D43330"/>
<path id="Vector_3" d="M4.26566 12.6411C4.26566 12.6411 4.16066 13.6967 4.49441 13.7848C4.82816 13.8729 5.02316 13.2561 5.02316 13.2561C5.02316 13.2561 5.32316 13.2036 5.88566 13.2036C6.22129 13.2036 6.69566 13.3273 6.69566 13.3273C6.69566 13.3273 6.58316 13.7829 6.88879 13.9423C7.25816 14.1354 7.99691 12.7461 7.99691 12.7461L5.35691 12.2886L4.26566 12.6411Z" fill="#FFFAFE"/>
<path id="Vector_4" d="M3.63281 16.5298C3.63281 16.5298 3.80906 15.7385 3.86156 15.5623C3.91406 15.386 4.01906 14.9998 4.19531 14.9642C4.37156 14.9285 4.61719 15.2642 4.61719 15.2642C4.61719 15.2642 5.26781 14.7898 5.42719 14.7017C5.58656 14.6135 6.06094 14.4204 6.06094 14.4204C6.06094 14.4204 6.04406 13.9685 6.30656 13.9273C6.76406 13.856 6.88781 14.771 6.88781 14.771L4.88156 16.8654L3.63281 16.5298Z" fill="#FFFAFE"/>
<path id="Vector_5" d="M4.31836 18.0696C4.31836 18.0696 4.50398 18.9939 6.00773 19.8902C7.51148 20.7864 8.43586 20.9458 8.99086 20.9983C9.54586 21.0508 10.099 21.0508 10.099 20.7864C10.099 20.5952 9.70336 20.3646 9.20086 20.2577C8.70023 20.1527 8.48836 20.0196 8.61961 19.8096C8.85773 19.4308 10.0709 20.2052 11.074 20.3646C12.0771 20.5221 14.0834 21.0246 14.2671 20.2333C14.4509 19.4421 12.9471 19.9952 12.8684 19.4421C12.7896 18.8871 14.3459 18.9414 15.3227 19.2564C16.2996 19.5733 17.1434 20.4452 17.5127 20.4977C17.8821 20.5502 18.1502 20.2614 18.0415 19.8377C17.9177 19.3633 17.6196 18.9396 17.0909 18.5964C16.5621 18.2533 14.1077 17.2502 14.1077 17.2502L8.72648 16.8564L6.74648 16.9089L4.31836 18.0696Z" fill="#BCCE46"/>
<path id="Vector_6" d="M6.03352 9.67509C6.03352 9.67509 5.79539 8.06447 6.58852 7.40447C7.38164 6.74447 8.19914 6.93009 8.69977 6.95634C9.20039 6.98259 10.4679 7.40447 12.236 7.24697C14.1148 7.07822 15.746 6.27009 17.3829 6.05822C19.0198 5.84634 20.3398 6.24384 20.2873 6.82322C20.2348 7.40447 17.8329 7.14009 18.0166 7.74759C18.2023 8.35509 21.4741 7.27322 21.7123 8.24822C21.9616 9.27384 20.0135 8.61947 20.0491 9.19884C20.1016 10.0707 22.8204 8.88197 23.1635 9.91134C23.5591 11.1001 20.2591 11.2313 20.6829 11.9438C21.1048 12.6563 23.006 11.732 23.1373 12.4988C23.2516 13.1626 22.706 13.5901 21.9223 13.7926C21.3804 13.9332 19.5841 14.0007 19.5991 14.4788C19.6254 15.2963 21.0766 14.5576 21.4198 14.9795C21.7629 15.4013 20.8648 16.2732 19.3085 16.352C18.251 16.4063 17.381 16.0088 17.3548 16.4045C17.3285 16.8001 18.3748 16.8432 18.7798 17.0382C19.4398 17.3551 19.6779 17.672 19.3873 18.1988C19.0966 18.7276 18.4648 18.0732 18.0148 18.0413C17.3023 17.9888 16.4566 18.2532 15.7704 18.2532C15.0841 18.2532 13.7904 17.8576 13.7904 17.8576C13.7904 17.8576 14.0285 18.122 13.7904 18.332C13.5523 18.542 12.9185 18.5176 12.1273 18.0938C11.336 17.672 10.7548 17.5388 10.5166 17.5388C10.2785 17.5388 9.09539 17.5632 8.88914 17.4245C7.25227 16.3163 9.61852 10.5695 9.61852 10.5695L6.03352 9.67509Z" fill="url(#paint0_linear_590_6035)"/>
<path id="Vector_7" d="M10.3021 8.73382C10.3021 8.73382 12.0084 8.0832 12.8709 7.00882C13.4221 6.32257 13.7859 4.87882 14.7177 5.30257C15.8802 5.82945 13.7577 7.50945 13.9959 7.5732C14.3296 7.66132 15.3159 6.79882 15.9309 6.12945C16.5459 5.46007 17.2996 5.16757 17.7084 5.67195C18.1659 6.23445 17.4084 7.18507 16.3002 7.89007C15.1921 8.5932 14.1646 8.97007 13.484 9.08632C12.7621 9.21007 11.3896 9.22695 11.3896 9.22695L10.0527 9.19132L10.3021 8.73382Z" fill="#FEB30B"/>
<path id="Vector_8" d="M12.6587 11.9457C12.6587 11.9457 13.358 12.302 14.2693 11.5501C14.8355 11.0832 15.5237 10.6914 16.4874 10.442C17.5037 10.1776 17.8993 10.3239 18.4018 10.1645C18.9024 10.007 19.508 9.82135 19.8399 9.72948C20.3143 9.59823 20.768 10.2676 19.9712 10.7064C19.4424 10.997 18.7693 11.1676 18.308 11.222C18.0437 11.252 17.3162 11.4376 17.0593 11.5351C16.5305 11.7339 16.013 12.212 16.013 12.212C16.013 12.212 17.3349 11.7151 18.098 11.657C19.0224 11.5857 20.0387 11.6307 20.3293 11.4714C20.6199 11.3139 21.4505 10.9032 21.7412 11.4189C22.028 11.927 21.2405 12.5664 20.4212 12.752C19.6018 12.9376 18.6662 12.8307 17.7943 13.0032C17.2599 13.1082 16.2774 13.5039 15.2199 14.1639C14.1643 14.8239 13.1087 15.062 12.6062 15.0076C12.1055 14.9551 11.1812 16.2751 11.1812 16.2751L8.11929 16.6707L5.98179 17.4095C5.98179 17.4095 5.26928 18.782 3.87053 18.3076C2.47178 17.8332 2.76241 16.0895 3.21053 15.9845C3.65866 15.8795 3.87053 16.4326 4.29241 16.3014C4.71428 16.1701 5.53179 15.0151 6.27241 14.7432C6.95866 14.492 7.81741 14.5576 7.81741 13.5826C7.81741 12.6076 5.71929 12.7651 5.24303 12.8176C4.76866 12.8701 2.97241 13.4776 1.96928 12.6864C0.96616 11.8951 0.698035 9.02635 2.02178 8.6476C3.12991 8.33073 4.13303 9.78198 5.21491 9.78198C6.08679 9.78198 6.30991 9.04323 7.20803 8.27823C7.86991 7.71385 8.61991 7.47385 9.14866 7.72323C9.58741 7.93135 8.17179 8.35698 8.43616 8.46198C8.43616 8.46198 9.38679 8.0926 10.1255 8.06635C10.8643 8.0401 11.0105 8.1376 11.1024 8.30448C11.2337 8.5426 10.3899 8.5426 10.6018 8.7526C10.8137 8.96448 11.7099 8.62135 12.2912 8.72635C12.8724 8.83135 12.8724 9.12198 12.7393 9.22698C12.608 9.33198 11.6968 9.5176 11.6837 9.78198C11.6743 9.96573 12.2537 10.0089 12.5424 10.337C12.833 10.667 12.7805 11.1282 12.7543 11.3664C12.7243 11.6026 12.6587 11.9457 12.6587 11.9457Z" fill="#01AB46"/>
<path id="Vector_9" d="M8.6741 9.7558C8.10785 9.81955 7.0766 8.92518 6.52347 10.2564C6.07535 11.3364 7.61097 12.1314 8.55597 11.4039C8.98722 11.0739 9.2291 10.6521 9.5591 10.3221C9.7766 10.1046 10.0597 9.94893 10.1272 9.7408C10.2435 9.3733 9.2666 9.69018 8.6741 9.7558Z" fill="#78DE8A"/>
<path id="Vector_10" d="M5.99414 17.5294C5.99414 17.5294 6.19289 16.4082 7.20914 16.0519C8.22539 15.6957 10.0723 15.9994 10.4829 15.8663C10.8916 15.735 11.4635 15.5157 11.5779 14.4413C11.6698 13.5694 11.3923 13.4907 11.3398 12.3694C11.2779 11.0625 12.131 10.7438 12.4216 10.7588C12.6598 10.7719 12.8435 10.9313 12.8566 11.115C12.8754 11.3813 12.8304 11.5369 12.8304 11.5369C12.8304 11.5369 13.2991 11.6307 13.3985 12.3807C13.5429 13.4888 12.7123 13.9782 12.6466 14.5707C12.581 15.165 12.6466 16.2075 11.7091 16.7344C10.7716 17.2613 10.6891 16.9669 10.0066 17.1957C9.73852 17.2857 9.28102 17.5519 8.75227 17.4732C8.22352 17.3944 8.07914 17.1825 7.39289 17.1825C6.86227 17.1863 5.99414 17.5294 5.99414 17.5294Z" fill="#78DE8A"/>
<path id="Vector_11" d="M7.98699 10.9201C7.75824 11.1976 7.30449 11.2613 7.02699 11.0832C6.74012 10.8994 6.77387 10.4026 7.04387 10.0801C7.31574 9.75757 7.75824 9.70132 8.02074 9.92257C8.28324 10.1419 8.25512 10.5957 7.98699 10.9201Z" fill="#2A2C33"/>
<path id="Vector_12" d="M2.24916 9.60559C2.04854 9.82872 2.23979 10.0987 2.31104 10.1606C2.38229 10.2225 2.56604 10.3462 2.53041 10.4943C2.49479 10.6443 2.26604 10.9425 2.43291 11.0831C2.59979 11.2237 3.03104 10.9593 3.08354 10.4587C3.13604 9.95809 2.91666 9.73684 2.80229 9.63184C2.68979 9.52684 2.41604 9.41997 2.24916 9.60559Z" fill="#44484A"/>
</g>
<defs>
<linearGradient id="paint0_linear_590_6035" x1="24.6403" y1="9.81909" x2="11.8293" y2="13.057" gradientUnits="userSpaceOnUse">
<stop offset="0.171" stop-color="#01AB46"/>
<stop offset="0.499" stop-color="#128A3C"/>
<stop offset="1" stop-color="#2F502A"/>
</linearGradient>
</defs>
</svg>
