<svg width="56" height="56" viewBox="0 0 56 56" fill="none" xmlns="http://www.w3.org/2000/svg">
<path d="M0 8C0 3.58172 3.58172 0 8 0H48C52.4183 0 56 3.58172 56 8V48C56 52.4183 52.4183 56 48 56H8C3.58172 56 0 52.4183 0 48V8Z" fill="url(#paint0_linear_43_141)"/>
<path d="M37.9987 21.3333V33.5C37.9987 35.3668 37.9987 36.3003 37.6354 37.0133C37.3158 37.6405 36.8059 38.1504 36.1787 38.47C35.4656 38.8333 34.5322 38.8333 32.6654 38.8333H27.9987M37.9987 21.3333C40.2999 21.3333 42.1654 19.4679 42.1654 17.1667C42.1654 14.8655 40.2999 13 37.9987 13C35.6975 13 33.832 14.8655 33.832 17.1667C33.832 19.4679 35.6975 21.3333 37.9987 21.3333ZM27.9987 38.8333L31.332 34.6667M27.9987 38.8333L31.332 43M17.9987 34.6667V22.5C17.9987 20.6332 17.9987 19.6997 18.362 18.9867C18.6816 18.3595 19.1915 17.8496 19.8187 17.53C20.5318 17.1667 21.4652 17.1667 23.332 17.1667H27.9987M17.9987 34.6667C15.6975 34.6667 13.832 36.5321 13.832 38.8333C13.832 41.1345 15.6975 43 17.9987 43C20.2999 43 22.1654 41.1345 22.1654 38.8333C22.1654 36.5321 20.2999 34.6667 17.9987 34.6667ZM27.9987 17.1667L24.6654 21.3333M27.9987 17.1667L24.6654 13" stroke="white" stroke-width="2" stroke-linecap="round" stroke-linejoin="round"/>
<defs>
<linearGradient id="paint0_linear_43_141" x1="1.49732e-06" y1="52" x2="56" y2="-1.56947e-06" gradientUnits="userSpaceOnUse">
<stop stop-color="#9610FF"/>
<stop offset="1" stop-color="#B14DFF" stop-opacity="0"/>
</linearGradient>
</defs>
</svg>
