<svg width="78" height="24" viewBox="0 0 78 24" fill="none" xmlns="http://www.w3.org/2000/svg">
<g filter="url(#filter0_b_294_6599)">
<rect width="78" height="24" rx="12" fill="url(#paint0_linear_294_6599)"/>
</g>
<path d="M18.94 16V9H20.24V16H18.94ZM25.0434 10.6C25.47 10.6 25.85 10.6833 26.1834 10.85C26.5234 11.0167 26.79 11.2733 26.9834 11.62C27.1767 11.96 27.2734 12.4 27.2734 12.94V16H26.0234V13.1C26.0234 12.6267 25.91 12.2733 25.6834 12.04C25.4634 11.8067 25.1534 11.69 24.7534 11.69C24.46 11.69 24.2 11.75 23.9734 11.87C23.7467 11.99 23.57 12.17 23.4434 12.41C23.3234 12.6433 23.2634 12.94 23.2634 13.3V16H22.0134V10.66H23.2034V12.1L22.9934 11.66C23.18 11.32 23.45 11.06 23.8034 10.88C24.1634 10.6933 24.5767 10.6 25.0434 10.6ZM33.9127 16.1C33.3661 16.1 32.8427 16.0233 32.3427 15.87C31.8427 15.71 31.4461 15.5067 31.1527 15.26L31.6027 14.25C31.8827 14.47 32.2294 14.6533 32.6427 14.8C33.0561 14.9467 33.4794 15.02 33.9127 15.02C34.2794 15.02 34.5761 14.98 34.8027 14.9C35.0294 14.82 35.1961 14.7133 35.3027 14.58C35.4094 14.44 35.4627 14.2833 35.4627 14.11C35.4627 13.8967 35.3861 13.7267 35.2327 13.6C35.0794 13.4667 34.8794 13.3633 34.6327 13.29C34.3927 13.21 34.1227 13.1367 33.8227 13.07C33.5294 13.0033 33.2327 12.9267 32.9327 12.84C32.6394 12.7467 32.3694 12.63 32.1227 12.49C31.8827 12.3433 31.6861 12.15 31.5327 11.91C31.3794 11.67 31.3027 11.3633 31.3027 10.99C31.3027 10.61 31.4027 10.2633 31.6027 9.95C31.8094 9.63 32.1194 9.37667 32.5327 9.19C32.9527 8.99667 33.4827 8.9 34.1227 8.9C34.5427 8.9 34.9594 8.95333 35.3727 9.06C35.7861 9.16667 36.1461 9.32 36.4527 9.52L36.0427 10.53C35.7294 10.3433 35.4061 10.2067 35.0727 10.12C34.7394 10.0267 34.4194 9.98 34.1127 9.98C33.7527 9.98 33.4594 10.0233 33.2327 10.11C33.0127 10.1967 32.8494 10.31 32.7427 10.45C32.6427 10.59 32.5927 10.75 32.5927 10.93C32.5927 11.1433 32.6661 11.3167 32.8127 11.45C32.9661 11.5767 33.1627 11.6767 33.4027 11.75C33.6494 11.8233 33.9227 11.8967 34.2227 11.97C34.5227 12.0367 34.8194 12.1133 35.1127 12.2C35.4127 12.2867 35.6827 12.4 35.9227 12.54C36.1694 12.68 36.3661 12.87 36.5127 13.11C36.6661 13.35 36.7427 13.6533 36.7427 14.02C36.7427 14.3933 36.6394 14.74 36.4327 15.06C36.2327 15.3733 35.9227 15.6267 35.5027 15.82C35.0827 16.0067 34.5527 16.1 33.9127 16.1ZM39.9218 16.07C39.3351 16.07 38.8818 15.92 38.5618 15.62C38.2418 15.3133 38.0818 14.8633 38.0818 14.27V9.48H39.3318V14.24C39.3318 14.4933 39.3951 14.69 39.5218 14.83C39.6551 14.97 39.8385 15.04 40.0718 15.04C40.3518 15.04 40.5851 14.9667 40.7718 14.82L41.1218 15.71C40.9751 15.83 40.7951 15.92 40.5818 15.98C40.3685 16.04 40.1485 16.07 39.9218 16.07ZM37.2018 11.7V10.7H40.7618V11.7H37.2018ZM45.4401 16V14.92L45.3701 14.69V12.8C45.3701 12.4333 45.2601 12.15 45.0401 11.95C44.8201 11.7433 44.4867 11.64 44.0401 11.64C43.7401 11.64 43.4434 11.6867 43.1501 11.78C42.8634 11.8733 42.6201 12.0033 42.4201 12.17L41.9301 11.26C42.2167 11.04 42.5567 10.8767 42.9501 10.77C43.3501 10.6567 43.7634 10.6 44.1901 10.6C44.9634 10.6 45.5601 10.7867 45.9801 11.16C46.4067 11.5267 46.6201 12.0967 46.6201 12.87V16H45.4401ZM43.7601 16.07C43.3601 16.07 43.0101 16.0033 42.7101 15.87C42.4101 15.73 42.1767 15.54 42.0101 15.3C41.8501 15.0533 41.7701 14.7767 41.7701 14.47C41.7701 14.17 41.8401 13.9 41.9801 13.66C42.1267 13.42 42.3634 13.23 42.6901 13.09C43.0167 12.95 43.4501 12.88 43.9901 12.88H45.5401V13.71H44.0801C43.6534 13.71 43.3667 13.78 43.2201 13.92C43.0734 14.0533 43.0001 14.22 43.0001 14.42C43.0001 14.6467 43.0901 14.8267 43.2701 14.96C43.4501 15.0933 43.7001 15.16 44.0201 15.16C44.3267 15.16 44.6001 15.09 44.8401 14.95C45.0867 14.81 45.2634 14.6033 45.3701 14.33L45.5801 15.08C45.4601 15.3933 45.2434 15.6367 44.9301 15.81C44.6234 15.9833 44.2334 16.07 43.7601 16.07ZM49.2443 14.81L49.2743 13.24L52.0643 10.66H53.5643L51.1943 13.04L50.5343 13.59L49.2443 14.81ZM48.2243 16V8.58H49.4743V16H48.2243ZM52.2543 16L50.3043 13.59L51.0943 12.59L53.7743 16H52.2543ZM56.8769 16.07C56.2835 16.07 55.7635 15.9533 55.3169 15.72C54.8769 15.48 54.5335 15.1533 54.2869 14.74C54.0469 14.3267 53.9269 13.8567 53.9269 13.33C53.9269 12.7967 54.0435 12.3267 54.2769 11.92C54.5169 11.5067 54.8435 11.1833 55.2569 10.95C55.6769 10.7167 56.1535 10.6 56.6869 10.6C57.2069 10.6 57.6702 10.7133 58.0769 10.94C58.4835 11.1667 58.8035 11.4867 59.0369 11.9C59.2702 12.3133 59.3869 12.8 59.3869 13.36C59.3869 13.4133 59.3835 13.4733 59.3769 13.54C59.3769 13.6067 59.3735 13.67 59.3669 13.73H54.9169V12.9H58.7069L58.2169 13.16C58.2235 12.8533 58.1602 12.5833 58.0269 12.35C57.8935 12.1167 57.7102 11.9333 57.4769 11.8C57.2502 11.6667 56.9869 11.6 56.6869 11.6C56.3802 11.6 56.1102 11.6667 55.8769 11.8C55.6502 11.9333 55.4702 12.12 55.3369 12.36C55.2102 12.5933 55.1469 12.87 55.1469 13.19V13.39C55.1469 13.71 55.2202 13.9933 55.3669 14.24C55.5135 14.4867 55.7202 14.6767 55.9869 14.81C56.2535 14.9433 56.5602 15.01 56.9069 15.01C57.2069 15.01 57.4769 14.9633 57.7169 14.87C57.9569 14.7767 58.1702 14.63 58.3569 14.43L59.0269 15.2C58.7869 15.48 58.4835 15.6967 58.1169 15.85C57.7569 15.9967 57.3435 16.07 56.8769 16.07Z" fill="white"/>
<defs>
<filter id="filter0_b_294_6599" x="-26" y="-26" width="130" height="76" filterUnits="userSpaceOnUse" color-interpolation-filters="sRGB">
<feFlood flood-opacity="0" result="BackgroundImageFix"/>
<feGaussianBlur in="BackgroundImageFix" stdDeviation="13"/>
<feComposite in2="SourceAlpha" operator="in" result="effect1_backgroundBlur_294_6599"/>
<feBlend mode="normal" in="SourceGraphic" in2="effect1_backgroundBlur_294_6599" result="shape"/>
</filter>
<linearGradient id="paint0_linear_294_6599" x1="-7.92187" y1="12" x2="100.852" y2="12" gradientUnits="userSpaceOnUse">
<stop stop-color="#830E47"/>
<stop offset="1" stop-color="#5065C3"/>
</linearGradient>
</defs>
</svg>
