<svg width="97" height="97" viewBox="0 0 97 97" fill="none" xmlns="http://www.w3.org/2000/svg">
<path d="M48.5014 4.13406C23.9988 4.13406 4.13553 23.9973 4.13552 48.4999C4.13552 73.0025 23.9988 92.8657 48.5014 92.8657C73.0039 92.8657 92.8672 73.0025 92.8672 48.4999C92.8672 23.9973 73.0039 4.13406 48.5014 4.13406Z" fill="url(#paint0_linear_4012_5963)"/>
<path d="M48.503 80.1203C65.9664 80.1203 80.1233 65.9635 80.1233 48.5001C80.1233 31.0367 65.9664 16.8799 48.503 16.8799C31.0397 16.8799 16.8828 31.0367 16.8828 48.5001C16.8828 65.9635 31.0397 80.1203 48.503 80.1203Z" fill="url(#paint1_linear_4012_5963)"/>
<path d="M48.5 96C74.7335 96 96 74.7335 96 48.5C96 22.2665 74.7335 1 48.5 1C22.2665 1 1 22.2665 1 48.5C1 74.7335 22.2665 96 48.5 96Z" stroke="url(#paint2_linear_4012_5963)" stroke-width="1.0529" stroke-miterlimit="10"/>
<path d="M7.83844 50.72C10.7984 48.6667 13.1984 46.9467 15.0384 45.56C16.9051 44.1467 18.5184 42.7067 19.8784 41.24C21.2384 39.7733 22.0251 38.4133 22.2384 37.16C22.2918 36.7333 22.3184 36.44 22.3184 36.28C22.3184 35.08 21.7184 34.48 20.5184 34.48C19.7451 34.48 19.1184 34.7733 18.6384 35.36C18.1584 35.9467 17.7851 36.9333 17.5184 38.32H9.91844C10.6651 34.8 12.1718 32.1867 14.4384 30.48C16.7051 28.7467 19.3051 27.88 22.2384 27.88C25.0918 27.88 27.1851 28.5067 28.5184 29.76C29.8518 31.0133 30.5184 32.6533 30.5184 34.68C30.5184 35.32 30.4651 35.9067 30.3584 36.44C29.8784 39.0533 28.5184 41.5333 26.2784 43.88C24.0651 46.2 21.4118 48.32 18.3184 50.24H28.3184L27.1984 56.6H6.79844L7.83844 50.72ZM54.9719 34.68H42.9319L42.1319 39.12C42.7719 38.5867 43.5585 38.16 44.4919 37.84C45.4252 37.52 46.4119 37.36 47.4519 37.36C49.8519 37.36 51.6385 38.04 52.8119 39.4C53.9852 40.7333 54.5719 42.4667 54.5719 44.6C54.5719 45.2667 54.5052 46.0267 54.3719 46.88C53.8119 50.0267 52.4785 52.5067 50.3719 54.32C48.2652 56.1067 45.6252 57 42.4519 57C39.4919 57 37.1985 56.3333 35.5719 55C33.9719 53.6667 33.1719 51.8667 33.1719 49.6C33.1719 49.0933 33.2119 48.56 33.2919 48H40.9719C40.9185 48.6133 41.0785 49.1467 41.4519 49.6C41.8519 50.0533 42.4785 50.28 43.3319 50.28C44.2919 50.28 45.0652 49.96 45.6519 49.32C46.2385 48.68 46.6252 47.8267 46.8119 46.76C46.8652 46.3333 46.8919 46.04 46.8919 45.88C46.8919 45.1333 46.6785 44.56 46.2519 44.16C45.8252 43.76 45.2119 43.56 44.4119 43.56C43.6919 43.56 43.0785 43.7467 42.5719 44.12C42.0652 44.4667 41.7185 44.9067 41.5319 45.44H33.9319L37.0519 27.76H56.1719L54.9719 34.68ZM59.1828 35.28C59.5828 33.04 60.5295 31.32 62.0228 30.12C63.5428 28.92 65.3295 28.32 67.3828 28.32C69.1695 28.32 70.5828 28.7733 71.6228 29.68C72.6895 30.5867 73.2228 31.8933 73.2228 33.6C73.2228 34.1867 73.1695 34.7467 73.0628 35.28C72.6628 37.52 71.7161 39.24 70.2228 40.44C68.7561 41.64 66.9961 42.24 64.9428 42.24C63.1561 42.24 61.7161 41.7867 60.6228 40.88C59.5561 39.9467 59.0228 38.6133 59.0228 36.88C59.0228 36.56 59.0761 36.0267 59.1828 35.28ZM87.8228 28.72L67.6628 57H60.1428L80.3028 28.72H87.8228ZM66.5428 32.88C65.4761 32.88 64.7828 33.68 64.4628 35.28C64.4095 35.7067 64.3828 35.9867 64.3828 36.12C64.3828 37.1333 64.8095 37.64 65.6628 37.64C66.2228 37.64 66.6895 37.44 67.0628 37.04C67.4361 36.64 67.6895 36.0533 67.8228 35.28C67.8761 35.0667 67.9028 34.7733 67.9028 34.4C67.9028 33.3867 67.4495 32.88 66.5428 32.88ZM74.9028 50.4C75.3028 48.16 76.2495 46.44 77.7428 45.24C79.2361 44.04 81.0095 43.44 83.0628 43.44C84.8495 43.44 86.2628 43.8933 87.3028 44.8C88.3695 45.7067 88.9028 47.0267 88.9028 48.76C88.9028 49.1067 88.8495 49.6533 88.7428 50.4C88.3428 52.64 87.3961 54.3733 85.9028 55.6C84.4361 56.8 82.6761 57.4 80.6228 57.4C78.8361 57.4 77.4095 56.9467 76.3428 56.04C75.2761 55.1067 74.7428 53.76 74.7428 52C74.7428 51.68 74.7961 51.1467 74.9028 50.4ZM82.2228 48.04C81.1028 48.04 80.4095 48.8267 80.1428 50.4C80.0895 50.6133 80.0628 50.9067 80.0628 51.28C80.0628 52.2933 80.5028 52.8 81.3828 52.8C82.4761 52.8 83.1828 52 83.5028 50.4C83.5561 50.0267 83.5828 49.76 83.5828 49.6C83.5828 49.0933 83.4628 48.7067 83.2228 48.44C82.9828 48.1733 82.6495 48.04 82.2228 48.04ZM41.6657 76.39H38.1657L37.6337 78H34.7497L38.3477 68.13H41.5117L45.0957 78H42.1977L41.6657 76.39ZM40.9797 74.29L39.9157 71.098L38.8657 74.29H40.9797ZM53.7881 71.42C53.7881 72.0173 53.6481 72.5633 53.3681 73.058C53.0974 73.5433 52.6821 73.9353 52.1221 74.234C51.5714 74.5233 50.8947 74.668 50.0921 74.668H48.7341V78H45.9901V68.13H50.0921C50.8854 68.13 51.5574 68.27 52.1081 68.55C52.6681 68.83 53.0881 69.2173 53.3681 69.712C53.6481 70.2067 53.7881 70.776 53.7881 71.42ZM49.8261 72.484C50.6007 72.484 50.9881 72.1293 50.9881 71.42C50.9881 70.7013 50.6007 70.342 49.8261 70.342H48.7341V72.484H49.8261ZM59.8884 78L57.9284 74.36H57.6344V78H54.8904V68.13H59.2164C60.0098 68.13 60.6818 68.27 61.2324 68.55C61.7831 68.8207 62.1984 69.1987 62.4784 69.684C62.7584 70.16 62.8984 70.6967 62.8984 71.294C62.8984 71.966 62.7118 72.5587 62.3384 73.072C61.9744 73.576 61.4378 73.9353 60.7284 74.15L62.9544 78H59.8884ZM57.6344 72.484H58.9924C59.3658 72.484 59.6458 72.3953 59.8324 72.218C60.0191 72.0407 60.1124 71.784 60.1124 71.448C60.1124 71.1307 60.0144 70.8833 59.8184 70.706C59.6318 70.5193 59.3564 70.426 58.9924 70.426H57.6344V72.484Z" fill="white"/>
<defs>
<linearGradient id="paint0_linear_4012_5963" x1="48.4872" y1="4.11595" x2="48.4871" y2="92.8795" gradientUnits="userSpaceOnUse">
<stop stop-color="#FE53BB"/>
<stop offset="0.4722" stop-color="#FE53BB" stop-opacity="0.5"/>
<stop offset="1" stop-color="#FE53BB" stop-opacity="0"/>
</linearGradient>
<linearGradient id="paint1_linear_4012_5963" x1="48.5173" y1="80.1081" x2="48.5173" y2="16.8965" gradientUnits="userSpaceOnUse">
<stop stop-color="#FE53BB" stop-opacity="0"/>
<stop offset="0.4722" stop-color="#FE53BB" stop-opacity="0.5"/>
<stop offset="1" stop-color="#FE53BB"/>
</linearGradient>
<linearGradient id="paint2_linear_4012_5963" x1="48.5142" y1="96.1863" x2="48.5142" y2="0.817974" gradientUnits="userSpaceOnUse">
<stop stop-color="#FE53BB" stop-opacity="0"/>
<stop offset="0.4722" stop-color="#FE53BB" stop-opacity="0.5"/>
<stop offset="1" stop-color="#FE53BB"/>
</linearGradient>
</defs>
</svg>
