<svg width="44" height="44" viewBox="0 0 44 44" fill="none" xmlns="http://www.w3.org/2000/svg">
<path d="M22.034 1.30007L22.034 1.3H22.0436C33.4494 1.3 42.743 10.5727 42.743 21.9993C42.743 33.4056 33.4499 42.6987 22.0436 42.6987C10.6169 42.6987 1.34427 33.4051 1.34427 21.9993C1.34427 10.7666 10.3057 1.61498 21.4649 1.30795L21.4649 1.30789L21.4745 1.30775L22.034 1.30007ZM19.7101 14.496L19.71 14.4961L19.7004 14.4861C19.4001 14.1755 18.9101 14.1632 18.5787 14.4946C18.2735 14.7998 18.2735 15.31 18.5903 15.6162L18.5903 15.6162L18.5979 15.6237L24.4977 21.5035L24.9952 21.9993L24.4977 22.4952L18.5979 28.375L18.5979 28.375L18.5903 28.3824C18.2794 28.6829 18.2663 29.1764 18.5829 29.5083C18.7407 29.664 18.9364 29.7391 19.1637 29.7391C19.3728 29.7391 19.5593 29.6635 19.6919 29.5215L19.7009 29.5119L19.7101 29.5027L26.6885 22.5643C26.6887 22.5641 26.6889 22.5639 26.6891 22.5637C26.8389 22.4136 26.9234 22.2113 26.9234 21.9993C26.9234 21.7874 26.8389 21.5851 26.6891 21.435C26.6889 21.4348 26.6887 21.4346 26.6885 21.4344L19.7101 14.496Z" fill="#110F2D" stroke="#B8B8E0" stroke-width="1.4"/>
</svg>
