<svg width="135" height="116" viewBox="0 0 135 116" fill="none" xmlns="http://www.w3.org/2000/svg">
<path d="M54.9667 13.8004L52.7113 15.0224L53.1797 12.5061L51.3203 10.7432L53.8607 10.4052L54.9667 8.09656L56.0679 10.4052L58.6083 10.7432L56.7489 12.5061L57.2174 15.0224L54.9667 13.8004Z" fill="url(#paint0_linear_3604_5581)"/>
<path style="mix-blend-mode:overlay" d="M51.3203 10.7432L54.9667 11.5595V8.09656L53.8607 10.4052L51.3203 10.7432Z" fill="url(#paint1_radial_3604_5581)"/>
<path style="mix-blend-mode:multiply" d="M54.9609 11.5594L58.6025 10.7432L56.7431 12.506L57.2116 15.0223L54.9609 11.5594Z" fill="url(#paint2_linear_3604_5581)"/>
<path style="mix-blend-mode:multiply" d="M54.9742 11.5627L52.7188 15.0256L54.9742 13.8037V11.5627Z" fill="url(#paint3_linear_3604_5581)"/>
<path d="M81.0478 13.8009L78.7972 15.0228L79.2657 12.5066L77.4062 10.7437L79.9467 10.4056L81.0478 8.09705L82.1539 10.4056L84.6943 10.7437L82.8348 12.5066L83.3033 15.0228L81.0478 13.8009Z" fill="url(#paint4_linear_3604_5581)"/>
<path style="mix-blend-mode:overlay" d="M77.4062 10.7437L81.0478 11.5599V8.09705L79.9467 10.4056L77.4062 10.7437Z" fill="url(#paint5_radial_3604_5581)"/>
<path style="mix-blend-mode:multiply" d="M81.0469 11.5573L84.6933 10.7411L82.8339 12.5039L83.3023 15.0202L81.0469 11.5573Z" fill="url(#paint6_linear_3604_5581)"/>
<path style="mix-blend-mode:multiply" d="M81.0397 11.5637L78.7891 15.0266L81.0397 13.8047V11.5637Z" fill="url(#paint7_linear_3604_5581)"/>
<path d="M68.0058 5.70871L65.7503 6.93063L66.2188 4.40952L64.3594 2.64668L66.8998 2.31343L68.0058 0L69.107 2.31343L71.6474 2.64668L69.788 4.40952L70.2564 6.93063L68.0058 5.70871Z" fill="url(#paint8_linear_3604_5581)"/>
<path style="mix-blend-mode:overlay" d="M64.3594 2.64668L68.0058 3.4629V0L66.8998 2.31343L64.3594 2.64668Z" fill="url(#paint9_radial_3604_5581)"/>
<path style="mix-blend-mode:multiply" d="M68 3.46429L71.6416 2.64807L69.7822 4.41091L70.2506 6.93202L68 3.46429Z" fill="url(#paint10_linear_3604_5581)"/>
<path style="mix-blend-mode:multiply" d="M68.0055 3.45959L65.75 6.92732L68.0055 5.70541V3.45959Z" fill="url(#paint11_linear_3604_5581)"/>
<path d="M70.5961 14.8123V15.0254L70.5234 14.9188L70.5961 14.8123Z" fill="url(#paint12_linear_3604_5581)"/>
<path d="M67.8155 73.9203C67.7349 73.9021 67.6558 73.8779 67.5789 73.8478C65.4984 73.1027 63.4839 72.1851 61.5562 71.1046C48.6609 63.8938 40.6484 50.0422 40.6484 34.9591V17.5721L41.8414 17.8619C44.6651 18.567 47.5618 18.9382 50.4721 18.9679C61.3003 18.9679 66.2362 13.2157 67.149 12.0083C67.1845 11.9545 67.2232 11.9029 67.2649 11.8538L68.0956 10.8878L68.8491 12.0276C69.7619 13.2302 74.6979 18.9872 85.5309 18.9872C88.4415 18.9544 91.3382 18.5799 94.1616 17.8716L95.3545 17.5818V34.9687C95.3545 50.0519 87.342 63.9035 74.4467 71.1142C72.5085 72.2025 70.4826 73.1266 68.3903 73.8768C68.3257 73.9007 68.2595 73.9201 68.1922 73.9348L68.0039 73.9734L67.8155 73.9203Z" fill="url(#paint13_linear_3604_5581)"/>
<path d="M94.3902 18.8368V34.9535C94.3902 49.5247 86.6965 63.1445 73.9799 70.2586C72.0831 71.3138 70.1007 72.2072 68.0539 72.9294L67.9911 72.9536L67.9186 72.9294C65.8772 72.2013 63.9012 71.3014 62.0119 70.2393C49.2953 63.13 41.6016 49.5102 41.6016 34.939V18.8368C59.2396 23.0483 66.8609 14.0071 67.9331 12.5581L68.0056 12.4615C68.0056 12.4905 68.0442 12.5195 68.0683 12.5581C69.1454 14.0071 76.7473 23.0483 94.3902 18.8368Z" fill="url(#paint14_linear_3604_5581)"/>
<path style="mix-blend-mode:multiply" d="M46.7344 54.8577C50.2925 61.3143 55.5834 66.6487 62.0107 70.2596C63.9007 71.3151 65.8767 72.2086 67.9175 72.9304L67.9899 72.9546L68.0382 72.9304C70.0807 72.2012 72.0582 71.3013 73.9498 70.2403C80.3771 66.6294 85.668 61.295 89.2261 54.8384L46.7344 54.8577Z" fill="url(#paint15_linear_3604_5581)"/>
<path style="mix-blend-mode:screen" d="M94.3902 18.8368V34.9535C94.3902 49.5247 86.6965 63.1445 73.9799 70.2586C72.0831 71.3138 70.1007 72.2072 68.0539 72.9294L67.9911 72.9536L67.9186 72.9294C65.8772 72.2013 63.9012 71.3014 62.0119 70.2393C49.2953 63.13 41.6016 49.5102 41.6016 34.939V18.8368C59.2396 23.0483 66.8609 14.0071 67.9331 12.5581L68.0056 12.4615C68.0056 12.4905 68.0442 12.5195 68.0683 12.5581C69.1454 14.0071 76.7473 23.0483 94.3902 18.8368Z" stroke="url(#paint16_linear_3604_5581)" stroke-width="0.81" stroke-miterlimit="10"/>
<g style="mix-blend-mode:multiply" opacity="0.7">
<path d="M67.985 19.1945C71.4238 21.8412 77.118 24.7583 85.5168 24.7583C86.8624 24.7564 88.2069 24.6838 89.5448 24.541V34.949C89.5448 47.9361 82.6673 59.851 71.6025 66.0378C70.4318 66.6935 69.2239 67.2805 67.985 67.7958C66.7461 67.2805 65.5382 66.6935 64.3676 66.0378C53.3075 59.851 46.43 47.9409 46.43 34.9538V24.541C47.768 24.6838 49.1125 24.7564 50.458 24.7583C58.852 24.7583 64.5463 21.8605 67.985 19.1945ZM67.985 16.712L67.3716 17.195C64.2613 19.7547 58.7989 22.8071 50.4677 22.8071C48.8395 22.8026 47.2133 22.6929 45.5993 22.4787L44.5078 22.3338V34.9538C44.5078 48.6412 51.7524 61.1984 63.4354 67.7234C64.7914 68.4841 66.1949 69.1568 67.6373 69.7374L67.9947 69.8822L68.3569 69.7374C69.7992 69.1568 71.2028 68.4841 72.5587 67.7234C84.2321 61.1936 91.4863 48.6364 91.4863 34.949V22.3531L90.3948 22.498C88.7808 22.7122 87.1546 22.8219 85.5265 22.8264C77.1808 22.8264 71.7184 19.7741 68.6225 17.2143L68.0092 16.7314L67.985 16.712Z" fill="url(#paint17_linear_3604_5581)"/>
</g>
<path d="M68.0053 68.8398C66.6027 68.2856 65.2378 67.6402 63.9194 66.908C52.5502 60.5279 45.4844 48.2943 45.4844 34.9546V23.4551C47.14 23.6752 48.8081 23.7881 50.4783 23.7932C59.1476 23.7932 64.8225 20.5814 68.0053 17.9637C71.1881 20.5814 76.863 23.7932 85.5371 23.7932C87.2073 23.7881 88.8754 23.6752 90.531 23.4551V34.9498C90.531 48.2895 83.4652 60.5231 72.096 66.879C70.7756 67.6191 69.4093 68.2741 68.0053 68.8398Z" fill="url(#paint18_radial_3604_5581)"/>
<g style="mix-blend-mode:lighten" opacity="0.5">
<path d="M50.4655 24.762C49.1199 24.76 47.7754 24.6875 46.4375 24.5446V34.9575C46.4375 47.9446 53.315 59.8546 64.375 66.0415C65.5067 66.6736 66.6724 67.2427 67.8669 67.7463V19.2899C64.4185 21.9124 58.7581 24.762 50.4655 24.762Z" fill="url(#paint19_radial_3604_5581)" style="mix-blend-mode:screen"/>
</g>
<g style="mix-blend-mode:lighten">
<path d="M85.5402 24.7623C77.1462 24.7623 71.4471 21.8645 68.0084 19.1985L67.8828 19.2903V67.7467L68.0084 67.7998C69.2473 67.2845 70.4551 66.6975 71.6258 66.0418C82.6907 59.8549 89.5682 47.9401 89.5682 34.953V24.545C88.2302 24.6878 86.8857 24.7603 85.5402 24.7623Z" fill="url(#paint20_radial_3604_5581)" style="mix-blend-mode:color-dodge"/>
</g>
<path style="mix-blend-mode:multiply" d="M68.0053 68.8398C66.6027 68.2856 65.2378 67.6402 63.9194 66.908C52.5502 60.5279 45.4844 48.2943 45.4844 34.9546V23.4551C47.14 23.6752 48.8081 23.7881 50.4783 23.7932C59.1476 23.7932 64.8225 20.5814 68.0053 17.9637C71.1881 20.5814 76.863 23.7932 85.5371 23.7932C87.2073 23.7881 88.8754 23.6752 90.531 23.4551V34.9498C90.531 48.2895 83.4652 60.5231 72.096 66.879C70.7756 67.6191 69.4093 68.2741 68.0053 68.8398Z" stroke="url(#paint21_linear_3604_5581)" stroke-width="0.5" stroke-miterlimit="10"/>
<path style="mix-blend-mode:screen" d="M91.481 22.3534V34.9493C91.481 48.6366 84.2365 61.1939 72.5534 67.7236C71.1974 68.4844 69.7939 69.1571 68.3516 69.7376" stroke="url(#paint22_linear_3604_5581)" stroke-width="0.81" stroke-miterlimit="10"/>
<path d="M70.5228 14.9165L70.4453 15.0231V14.8099C70.4453 14.8099 70.4598 14.8487 70.5228 14.9165Z" fill="url(#paint23_linear_3604_5581)"/>
<path style="mix-blend-mode:multiply" d="M48.2502 40.4139C48.0982 40.8578 47.8121 41.2435 47.4314 41.5177C47.0508 41.792 46.5943 41.9412 46.1252 41.9449L41.0733 40.979C40.9671 40.2304 40.8753 39.477 40.8125 38.7187V38.6945C41.508 37.9894 45.3138 38.4337 45.3138 38.4337L47.0766 35.7388L47.4823 36.0527L48.2502 40.4139Z" fill="url(#paint24_linear_3604_5581)"/>
<path style="mix-blend-mode:multiply" d="M49.445 47.1886C49.445 47.1886 49.3243 48.1014 48.0637 48.6375L42.8331 48.3912C42.4725 47.3126 42.1505 46.2211 41.8672 45.1167C42.4953 44.938 43.1461 44.8518 43.7991 44.8607C44.3207 44.9138 48.2424 42.8612 48.2424 42.8612L48.5805 43.1462L49.445 47.1886Z" fill="url(#paint25_linear_3604_5581)"/>
<path style="mix-blend-mode:multiply" d="M50.1753 52.0049C50.0735 52.2526 49.9181 52.4746 49.7202 52.655C49.5222 52.8354 49.2868 52.9697 49.0307 53.0481C47.6887 53.1969 46.3578 53.4324 45.0462 53.7532C44.6791 53.0127 44.333 52.2625 44.0078 51.5026C44.2598 51.1295 44.605 50.8289 45.0092 50.6307C45.4133 50.4324 45.8623 50.3434 46.3116 50.3725C46.9539 50.4497 49.2577 49.0974 49.2577 49.0974L49.5475 49.3824L50.1753 52.0049Z" fill="url(#paint26_linear_3604_5581)"/>
<path d="M47.8305 40.4148L47.0771 35.7155L27 27.08L28.8353 35.7155L47.8305 40.4148Z" fill="url(#paint27_linear_3604_5581)"/>
<path d="M48.2811 42.8641L32.6328 39.2177L33.961 45.361L49.0731 47.0852L48.2811 42.8641Z" fill="url(#paint28_linear_3604_5581)"/>
<path d="M49.2745 49.0961L38.625 48.391L39.4992 52.361L49.8879 51.8346L49.2745 49.0961Z" fill="url(#paint29_linear_3604_5581)"/>
<path d="M47.839 40.4139C47.6518 40.7022 47.3749 40.9209 47.051 41.0361C46.7272 41.1514 46.3744 41.1567 46.0472 41.0514L28.8438 35.7388L47.839 40.4139Z" fill="url(#paint30_linear_3604_5581)"/>
<path d="M49.0575 47.0844C48.8545 47.3986 48.5617 47.6444 48.2172 47.79C47.8727 47.9355 47.4923 47.9741 47.1256 47.9007L33.9453 45.3602L49.0575 47.0844Z" fill="url(#paint31_linear_3604_5581)"/>
<path d="M49.8887 51.833C49.6974 52.0574 49.4586 52.2367 49.1897 52.3578C48.9208 52.4789 48.6284 52.5388 48.3335 52.5333L39.5 52.3594L49.8887 51.833Z" fill="url(#paint32_linear_3604_5581)"/>
<path style="mix-blend-mode:overlay" d="M27 27.08L27.8549 31.1031L47.4828 38.2269L47.0771 35.7155L27 27.08Z" fill="url(#paint33_radial_3604_5581)"/>
<path style="mix-blend-mode:overlay" d="M32.6328 39.2177L48.2811 42.8641L48.6191 44.68L33.2703 42.1734L32.6328 39.2177Z" fill="url(#paint34_radial_3604_5581)"/>
<path style="mix-blend-mode:overlay" d="M38.625 48.391L49.2745 49.0961L49.5643 50.376H39.0645L38.625 48.391Z" fill="url(#paint35_radial_3604_5581)"/>
<path style="mix-blend-mode:multiply" d="M87.75 40.4139C87.902 40.8578 88.1882 41.2435 88.5688 41.5177C88.9495 41.792 89.4059 41.9412 89.8751 41.9449L94.9269 40.979C95.0332 40.2304 95.125 39.477 95.1877 38.7187V38.6945C94.4923 37.9894 90.6865 38.4337 90.6865 38.4337L88.9333 35.7388L88.5276 36.0527L87.75 40.4139Z" fill="url(#paint36_linear_3604_5581)"/>
<path style="mix-blend-mode:multiply" d="M86.5547 47.1868C86.5547 47.1868 86.6754 48.0996 87.936 48.6357L93.1714 48.3894C93.5352 47.3108 93.8572 46.2192 94.1373 45.1148C93.5092 44.9362 92.8584 44.85 92.2054 44.8589C91.6887 44.8879 87.7525 42.8594 87.7525 42.8594L87.4144 43.1443L86.5547 47.1868Z" fill="url(#paint37_linear_3604_5581)"/>
<path style="mix-blend-mode:multiply" d="M85.7891 52.0049C85.8909 52.2526 86.0463 52.4746 86.2443 52.655C86.4422 52.8354 86.6777 52.9697 86.9337 53.0481C88.2757 53.1969 89.6066 53.4324 90.9182 53.7532C91.2853 53.0127 91.6314 52.2625 91.9566 51.5026C91.7055 51.131 91.3618 50.8313 90.9595 50.6332C90.5572 50.435 90.1101 50.3451 89.6625 50.3725C89.0201 50.4497 86.7164 49.0974 86.7164 49.0974L86.4266 49.3824L85.7891 52.0049Z" fill="url(#paint38_linear_3604_5581)"/>
<path d="M88.1641 40.4161L88.9175 35.7168L108.995 27.0813L107.159 35.7168L88.1641 40.4161Z" fill="url(#paint39_linear_3604_5581)"/>
<path d="M87.7296 42.8659L103.378 39.2195L102.05 45.3629L86.9375 47.0871L87.7296 42.8659Z" fill="url(#paint40_linear_3604_5581)"/>
<path d="M86.7462 49.0961L97.3957 48.391L96.5215 52.361L86.1328 51.8346L86.7462 49.0961Z" fill="url(#paint41_linear_3604_5581)"/>
<path d="M88.1641 40.4162C88.3512 40.7046 88.6281 40.9232 88.952 41.0384C89.2759 41.1537 89.6287 41.1591 89.9559 41.0538L107.164 35.7411L88.1641 40.4162Z" fill="url(#paint42_linear_3604_5581)"/>
<path d="M86.9375 47.0839C87.141 47.3976 87.4338 47.643 87.7782 47.7885C88.1226 47.934 88.5027 47.9729 88.8694 47.9002L102.059 45.3597L86.9375 47.0839Z" fill="url(#paint43_linear_3604_5581)"/>
<path d="M86.1328 51.8325C86.3241 52.057 86.5629 52.2362 86.8318 52.3573C87.1007 52.4784 87.3931 52.5383 87.688 52.5328L96.5215 52.359L86.1328 51.8325Z" fill="url(#paint44_linear_3604_5581)"/>
<path style="mix-blend-mode:overlay" d="M108.994 27.0811L108.139 31.1042L88.5156 38.228L88.9165 35.7166L108.994 27.0811Z" fill="url(#paint45_radial_3604_5581)"/>
<path style="mix-blend-mode:overlay" d="M103.4 39.2181L87.7521 42.8646L87.4141 44.6805L102.763 42.1739L103.4 39.2181Z" fill="url(#paint46_radial_3604_5581)"/>
<path style="mix-blend-mode:overlay" d="M97.3612 48.3905L86.7117 49.0956L86.4219 50.3755H96.9217L97.3612 48.3905Z" fill="url(#paint47_radial_3604_5581)"/>
<g filter="url(#filter0_d_3604_5581)">
<path d="M52.1744 44.0284L62.4625 51.7078C62.4788 51.7078 62.4788 51.7241 62.4951 51.7241L66.3103 54.5611C66.6364 54.8057 67.0929 54.5774 67.0929 54.1698L67.1092 33.023C67.0766 32.648 67.0277 32.2567 66.9462 31.8817C66.8647 31.523 66.7505 31.1806 66.5875 30.8871C66.8647 32.9577 65.6908 35.3708 63.7016 36.9523C63.2614 37.311 62.6581 37.7023 61.9897 37.9795C61.2723 38.2893 59.1038 39.0393 59.1038 39.0393L52.5657 41.4034C51.4407 41.811 51.2124 43.3111 52.1744 44.0284Z" fill="white"/>
<path d="M62.4022 37.8022C62.4185 37.7859 62.4511 37.7859 62.4674 37.7696C62.5 37.7533 62.5326 37.737 62.5815 37.7044C62.6305 37.6881 62.6631 37.6555 62.712 37.6392C62.7283 37.6229 62.7609 37.6066 62.7772 37.6066C62.8261 37.574 62.8913 37.5414 62.9402 37.5087C62.9565 37.4924 62.9728 37.4924 62.9891 37.4761C63.0381 37.4435 63.087 37.4109 63.1522 37.3783C63.1848 37.362 63.2011 37.3457 63.2337 37.3294C63.2663 37.2968 63.3152 37.2805 63.3478 37.2479C63.3968 37.2153 63.4457 37.1664 63.5109 37.1337C63.5272 37.1337 63.5272 37.1174 63.5435 37.1174C63.6087 37.0685 63.6739 37.0196 63.7392 36.9707C65.7283 35.3892 66.9022 32.9761 66.625 30.9055C66.5109 30.7098 66.3642 30.5305 66.2011 30.4L62.8098 27.8891C62.4837 27.6446 62.0109 27.8728 62.0109 28.2804V34.1989C62.0109 37.9164 59.125 39.0414 59.125 39.0414C59.125 39.0414 61.3098 38.3077 62.0109 37.9979C62.1413 37.9327 62.2718 37.8674 62.4022 37.8022Z" fill="#EBEBEB"/>
<path d="M83.5982 43.2671L73.3101 35.5877C73.2938 35.5877 73.2938 35.5714 73.2775 35.5714L69.4623 32.7345C69.1362 32.4899 68.6797 32.7182 68.6797 33.1258V54.2726C68.7123 54.6476 68.7612 55.0389 68.8427 55.4139C68.9243 55.7726 69.0384 56.115 69.2014 56.4085C68.9243 54.3378 70.0982 51.9248 72.0873 50.3433C72.5275 49.9846 73.1308 49.5932 73.7993 49.3161C74.5004 49.0063 76.6852 48.2726 76.6852 48.2726L83.2232 45.9084C84.3482 45.4845 84.5602 43.9845 83.5982 43.2671Z" fill="white"/>
<path d="M73.435 49.4921C73.4187 49.5084 73.3861 49.5084 73.3698 49.5247C73.3372 49.541 73.3046 49.5573 73.2557 49.5899C73.2067 49.6062 73.1741 49.6388 73.1252 49.6551C73.1089 49.6714 73.0763 49.6877 73.06 49.6877C73.0111 49.7203 72.9459 49.7529 72.897 49.7855C72.8806 49.8018 72.8643 49.8019 72.848 49.8182C72.7991 49.8508 72.7502 49.8834 72.685 49.916C72.6524 49.9323 72.6361 49.9486 72.6035 49.9649C72.5709 49.9975 72.522 50.0138 72.4893 50.0464C72.4404 50.079 72.3915 50.1279 72.3263 50.1605C72.31 50.1605 72.31 50.1769 72.2937 50.1769C72.2285 50.2258 72.1633 50.2747 72.098 50.3236C70.1089 51.9051 68.935 54.3182 69.2122 56.3888C69.3263 56.5845 69.473 56.7638 69.6361 56.8943L73.0111 59.4052C73.3372 59.6497 73.81 59.4215 73.81 59.0139V53.0953C73.81 49.3942 76.6959 48.2529 76.6959 48.2529C76.6959 48.2529 74.5111 48.9866 73.81 49.2964C73.6959 49.3616 73.5654 49.4268 73.435 49.4921Z" fill="#EBEBEB"/>
</g>
<path d="M5.15337 65.9096L5.15344 65.91C6.03388 71.3017 6.7746 84.5548 7.3303 94.4975C7.44424 96.5362 7.55041 98.4357 7.6484 100.1C7.73309 101.497 8.84375 102.962 11.0674 104.325C13.2703 105.675 16.4572 106.855 20.4384 107.717L20.4388 107.717L46.7654 113.437C46.7655 113.437 46.7656 113.437 46.7657 113.437C59.461 116.188 75.5392 116.188 88.2344 113.437C88.2345 113.437 88.2345 113.437 88.2346 113.437L114.561 107.724L114.562 107.724C118.543 106.862 121.73 105.682 123.933 104.332C126.156 102.969 127.267 101.504 127.352 100.106C127.352 100.106 127.352 100.106 127.352 100.106L127.851 100.136C127.953 98.3925 128.064 96.3934 128.183 94.2488C128.733 84.3333 129.456 71.306 130.34 65.9975L5.15337 65.9096ZM5.15337 65.9096C4.51521 62.0224 3.79892 58.4975 3.00943 55.9367C2.61582 54.66 2.19544 53.594 1.74239 52.8374C1.67164 52.7193 1.59879 52.6065 1.52362 52.5L5.15337 65.9096Z" fill="url(#paint48_linear_3604_5581)" fill-opacity="0.15" stroke="url(#paint49_linear_3604_5581)"/>
<path d="M49.2074 85.195H47.4574L47.1914 86H45.7494L47.5484 81.065H49.1304L50.9224 86H49.4734L49.2074 85.195ZM48.8644 84.145L48.3324 82.549L47.8074 84.145H48.8644ZM53.2525 84.705L53.9875 82.073H55.4505L54.0995 86H52.3915L51.0405 82.073H52.5035L53.2525 84.705ZM55.6914 84.033C55.6914 83.627 55.7638 83.2723 55.9084 82.969C56.0578 82.6657 56.2584 82.4323 56.5104 82.269C56.7671 82.1057 57.0518 82.024 57.3644 82.024C57.6351 82.024 57.8684 82.0777 58.0644 82.185C58.2604 82.2923 58.4121 82.437 58.5194 82.619V82.073H59.8914V86H58.5194V85.454C58.4121 85.636 58.2581 85.7807 58.0574 85.888C57.8614 85.9953 57.6304 86.049 57.3644 86.049C57.0518 86.049 56.7671 85.9673 56.5104 85.804C56.2584 85.6407 56.0578 85.4073 55.9084 85.104C55.7638 84.796 55.6914 84.439 55.6914 84.033ZM58.5194 84.033C58.5194 83.781 58.4494 83.5827 58.3094 83.438C58.1741 83.2933 58.0061 83.221 57.8054 83.221C57.6001 83.221 57.4298 83.2933 57.2944 83.438C57.1591 83.578 57.0914 83.7763 57.0914 84.033C57.0914 84.285 57.1591 84.4857 57.2944 84.635C57.4298 84.7797 57.6001 84.852 57.8054 84.852C58.0061 84.852 58.1741 84.7797 58.3094 84.635C58.4494 84.4903 58.5194 84.2897 58.5194 84.033ZM61.3663 81.709C61.1236 81.709 60.9276 81.6437 60.7783 81.513C60.6336 81.3777 60.5613 81.2097 60.5613 81.009C60.5613 80.8037 60.6336 80.6333 60.7783 80.498C60.9276 80.3627 61.1236 80.295 61.3663 80.295C61.6043 80.295 61.7956 80.3627 61.9403 80.498C62.0896 80.6333 62.1643 80.8037 62.1643 81.009C62.1643 81.2097 62.0896 81.3777 61.9403 81.513C61.7956 81.6437 61.6043 81.709 61.3663 81.709ZM62.0453 82.073V86H60.6733V82.073H62.0453ZM64.1986 80.82V86H62.8266V80.82H64.1986ZM64.7559 84.033C64.7559 83.627 64.8282 83.2723 64.9729 82.969C65.1222 82.6657 65.3229 82.4323 65.5749 82.269C65.8316 82.1057 66.1162 82.024 66.4289 82.024C66.6996 82.024 66.9329 82.0777 67.1289 82.185C67.3249 82.2923 67.4766 82.437 67.5839 82.619V82.073H68.9559V86H67.5839V85.454C67.4766 85.636 67.3226 85.7807 67.1219 85.888C66.9259 85.9953 66.6949 86.049 66.4289 86.049C66.1162 86.049 65.8316 85.9673 65.5749 85.804C65.3229 85.6407 65.1222 85.4073 64.9729 85.104C64.8282 84.796 64.7559 84.439 64.7559 84.033ZM67.5839 84.033C67.5839 83.781 67.5139 83.5827 67.3739 83.438C67.2386 83.2933 67.0706 83.221 66.8699 83.221C66.6646 83.221 66.4942 83.2933 66.3589 83.438C66.2236 83.578 66.1559 83.7763 66.1559 84.033C66.1559 84.285 66.2236 84.4857 66.3589 84.635C66.4942 84.7797 66.6646 84.852 66.8699 84.852C67.0706 84.852 67.2386 84.7797 67.3739 84.635C67.5139 84.4903 67.5839 84.2897 67.5839 84.033ZM71.1097 82.619C71.217 82.4323 71.3687 82.2877 71.5647 82.185C71.7607 82.0777 71.9917 82.024 72.2577 82.024C72.5704 82.024 72.8527 82.1057 73.1047 82.269C73.3614 82.4323 73.562 82.6657 73.7067 82.969C73.856 83.2723 73.9307 83.627 73.9307 84.033C73.9307 84.439 73.856 84.796 73.7067 85.104C73.562 85.4073 73.3614 85.6407 73.1047 85.804C72.8527 85.9673 72.5704 86.049 72.2577 86.049C71.9917 86.049 71.7607 85.9977 71.5647 85.895C71.3687 85.7877 71.217 85.6407 71.1097 85.454V86H69.7377V80.82H71.1097V82.619ZM72.5377 84.033C72.5377 83.7763 72.4677 83.578 72.3277 83.438C72.1924 83.2933 72.0244 83.221 71.8237 83.221C71.623 83.221 71.4527 83.2933 71.3127 83.438C71.1774 83.5827 71.1097 83.781 71.1097 84.033C71.1097 84.2897 71.1774 84.4903 71.3127 84.635C71.4527 84.7797 71.623 84.852 71.8237 84.852C72.0244 84.852 72.1924 84.7797 72.3277 84.635C72.4677 84.4857 72.5377 84.285 72.5377 84.033ZM75.8675 80.82V86H74.4955V80.82H75.8675ZM80.4008 83.991C80.4008 84.0983 80.3938 84.2057 80.3798 84.313H77.7828C77.7968 84.5277 77.8552 84.6887 77.9578 84.796C78.0652 84.8987 78.2005 84.95 78.3638 84.95C78.5925 84.95 78.7558 84.8473 78.8538 84.642H80.3168C80.2562 84.9127 80.1372 85.1553 79.9598 85.37C79.7872 85.58 79.5678 85.7457 79.3018 85.867C79.0358 85.9883 78.7418 86.049 78.4198 86.049C78.0325 86.049 77.6872 85.9673 77.3838 85.804C77.0852 85.6407 76.8495 85.4073 76.6768 85.104C76.5088 84.8007 76.4248 84.4437 76.4248 84.033C76.4248 83.6223 76.5088 83.2677 76.6768 82.969C76.8448 82.6657 77.0782 82.4323 77.3768 82.269C77.6802 82.1057 78.0278 82.024 78.4198 82.024C78.8072 82.024 79.1502 82.1033 79.4488 82.262C79.7475 82.4207 79.9808 82.6493 80.1488 82.948C80.3168 83.242 80.4008 83.5897 80.4008 83.991ZM79.0008 83.648C79.0008 83.48 78.9448 83.3493 78.8328 83.256C78.7208 83.158 78.5808 83.109 78.4128 83.109C78.2448 83.109 78.1072 83.1557 77.9998 83.249C77.8925 83.3377 77.8225 83.4707 77.7898 83.648H79.0008ZM84.6192 84.831V86H84.0242C83.0208 86 82.5192 85.503 82.5192 84.509V83.214H82.0362V82.073H82.5192V81.121H83.8982V82.073H84.6122V83.214H83.8982V84.53C83.8982 84.6373 83.9215 84.7143 83.9682 84.761C84.0195 84.8077 84.1035 84.831 84.2202 84.831H84.6192ZM87.0754 86.049C86.6834 86.049 86.3311 85.9673 86.0184 85.804C85.7104 85.6407 85.4678 85.4073 85.2904 85.104C85.1131 84.8007 85.0244 84.4437 85.0244 84.033C85.0244 83.627 85.1131 83.2723 85.2904 82.969C85.4724 82.6657 85.7174 82.4323 86.0254 82.269C86.3381 82.1057 86.6904 82.024 87.0824 82.024C87.4744 82.024 87.8244 82.1057 88.1324 82.269C88.4451 82.4323 88.6901 82.6657 88.8674 82.969C89.0494 83.2723 89.1404 83.627 89.1404 84.033C89.1404 84.439 89.0494 84.796 88.8674 85.104C88.6901 85.4073 88.4451 85.6407 88.1324 85.804C87.8198 85.9673 87.4674 86.049 87.0754 86.049ZM87.0754 84.859C87.2668 84.859 87.4254 84.789 87.5514 84.649C87.6821 84.5043 87.7474 84.299 87.7474 84.033C87.7474 83.767 87.6821 83.564 87.5514 83.424C87.4254 83.284 87.2691 83.214 87.0824 83.214C86.8958 83.214 86.7394 83.284 86.6134 83.424C86.4874 83.564 86.4244 83.767 86.4244 84.033C86.4244 84.3037 86.4851 84.509 86.6064 84.649C86.7278 84.789 86.8841 84.859 87.0754 84.859Z" fill="#F7F7FC"/>
<path d="M32.4297 93.71C32.4297 94.0087 32.3597 94.2817 32.2197 94.529C32.0843 94.7717 31.8767 94.9677 31.5967 95.117C31.3213 95.2617 30.983 95.334 30.5817 95.334H29.9027V97H28.5307V92.065H30.5817C30.9783 92.065 31.3143 92.135 31.5897 92.275C31.8697 92.415 32.0797 92.6087 32.2197 92.856C32.3597 93.1033 32.4297 93.388 32.4297 93.71ZM30.4487 94.242C30.836 94.242 31.0297 94.0647 31.0297 93.71C31.0297 93.3507 30.836 93.171 30.4487 93.171H29.9027V94.242H30.4487ZM34.3529 93.766C34.5069 93.542 34.6935 93.3647 34.9129 93.234C35.1322 93.1033 35.3679 93.038 35.6199 93.038V94.501H35.2349C34.9362 94.501 34.7145 94.5593 34.5699 94.676C34.4252 94.7927 34.3529 94.9957 34.3529 95.285V97H32.9809V93.073H34.3529V93.766ZM39.8637 94.991C39.8637 95.0983 39.8567 95.2057 39.8427 95.313H37.2457C37.2597 95.5277 37.3181 95.6887 37.4207 95.796C37.5281 95.8987 37.6634 95.95 37.8267 95.95C38.0554 95.95 38.2187 95.8473 38.3167 95.642H39.7797C39.7191 95.9127 39.6001 96.1553 39.4227 96.37C39.2501 96.58 39.0307 96.7457 38.7647 96.867C38.4987 96.9883 38.2047 97.049 37.8827 97.049C37.4954 97.049 37.1501 96.9673 36.8467 96.804C36.5481 96.6407 36.3124 96.4073 36.1397 96.104C35.9717 95.8007 35.8877 95.4437 35.8877 95.033C35.8877 94.6223 35.9717 94.2677 36.1397 93.969C36.3077 93.6657 36.5411 93.4323 36.8397 93.269C37.1431 93.1057 37.4907 93.024 37.8827 93.024C38.2701 93.024 38.6131 93.1033 38.9117 93.262C39.2104 93.4207 39.4437 93.6493 39.6117 93.948C39.7797 94.242 39.8637 94.5897 39.8637 94.991ZM38.4637 94.648C38.4637 94.48 38.4077 94.3493 38.2957 94.256C38.1837 94.158 38.0437 94.109 37.8757 94.109C37.7077 94.109 37.5701 94.1557 37.4627 94.249C37.3554 94.3377 37.2854 94.4707 37.2527 94.648H38.4637ZM45.5562 93.038C46.0509 93.038 46.4382 93.1873 46.7182 93.486C47.0029 93.7847 47.1452 94.193 47.1452 94.711V97H45.7732V94.893C45.7732 94.683 45.7149 94.5197 45.5982 94.403C45.4815 94.2863 45.3229 94.228 45.1222 94.228C44.9215 94.228 44.7629 94.2863 44.6462 94.403C44.5295 94.5197 44.4712 94.683 44.4712 94.893V97H43.0992V94.893C43.0992 94.683 43.0409 94.5197 42.9242 94.403C42.8122 94.2863 42.6559 94.228 42.4552 94.228C42.2499 94.228 42.0889 94.2863 41.9722 94.403C41.8555 94.5197 41.7972 94.683 41.7972 94.893V97H40.4252V93.073H41.7972V93.591C41.9185 93.423 42.0749 93.29 42.2662 93.192C42.4622 93.0893 42.6862 93.038 42.9382 93.038C43.2275 93.038 43.4842 93.101 43.7082 93.227C43.9369 93.353 44.1165 93.5303 44.2472 93.759C44.3872 93.5443 44.5715 93.3717 44.8002 93.241C45.0289 93.1057 45.2809 93.038 45.5562 93.038ZM48.5899 92.709C48.3472 92.709 48.1512 92.6437 48.0019 92.513C47.8572 92.3777 47.7849 92.2097 47.7849 92.009C47.7849 91.8037 47.8572 91.6333 48.0019 91.498C48.1512 91.3627 48.3472 91.295 48.5899 91.295C48.8279 91.295 49.0192 91.3627 49.1639 91.498C49.3132 91.6333 49.3879 91.8037 49.3879 92.009C49.3879 92.2097 49.3132 92.3777 49.1639 92.513C49.0192 92.6437 48.8279 92.709 48.5899 92.709ZM49.2689 93.073V97H47.8969V93.073H49.2689ZM54.0682 93.073V97H52.6892V96.44C52.5725 96.6173 52.4115 96.762 52.2062 96.874C52.0009 96.9813 51.7652 97.035 51.4992 97.035C51.0419 97.035 50.6802 96.8857 50.4142 96.587C50.1529 96.2837 50.0222 95.873 50.0222 95.355V93.073H51.3872V95.18C51.3872 95.404 51.4455 95.5813 51.5622 95.712C51.6835 95.838 51.8422 95.901 52.0382 95.901C52.2389 95.901 52.3975 95.838 52.5142 95.712C52.6309 95.5813 52.6892 95.404 52.6892 95.18V93.073H54.0682ZM59.98 93.038C60.4747 93.038 60.862 93.1873 61.142 93.486C61.4267 93.7847 61.569 94.193 61.569 94.711V97H60.197V94.893C60.197 94.683 60.1387 94.5197 60.022 94.403C59.9054 94.2863 59.7467 94.228 59.546 94.228C59.3454 94.228 59.1867 94.2863 59.07 94.403C58.9534 94.5197 58.895 94.683 58.895 94.893V97H57.523V94.893C57.523 94.683 57.4647 94.5197 57.348 94.403C57.236 94.2863 57.0797 94.228 56.879 94.228C56.6737 94.228 56.5127 94.2863 56.396 94.403C56.2794 94.5197 56.221 94.683 56.221 94.893V97H54.849V93.073H56.221V93.591C56.3424 93.423 56.4987 93.29 56.69 93.192C56.886 93.0893 57.11 93.038 57.362 93.038C57.6514 93.038 57.908 93.101 58.132 93.227C58.3607 93.353 58.5404 93.5303 58.671 93.759C58.811 93.5443 58.9954 93.3717 59.224 93.241C59.4527 93.1057 59.7047 93.038 59.98 93.038ZM65.5226 97.049C64.9486 97.049 64.4772 96.9137 64.1086 96.643C63.7399 96.3677 63.5416 95.9757 63.5136 95.467H64.9766C64.9906 95.6397 65.0419 95.7657 65.1306 95.845C65.2192 95.9243 65.3336 95.964 65.4736 95.964C65.5996 95.964 65.7022 95.9337 65.7816 95.873C65.8656 95.8077 65.9076 95.719 65.9076 95.607C65.9076 95.4623 65.8399 95.3503 65.7046 95.271C65.5692 95.1917 65.3499 95.103 65.0466 95.005C64.7246 94.8977 64.4632 94.795 64.2626 94.697C64.0666 94.5943 63.8939 94.4473 63.7446 94.256C63.5999 94.06 63.5276 93.8057 63.5276 93.493C63.5276 93.1757 63.6069 92.905 63.7656 92.681C63.9242 92.4523 64.1436 92.2797 64.4236 92.163C64.7036 92.0463 65.0209 91.988 65.3756 91.988C65.9496 91.988 66.4069 92.1233 66.7476 92.394C67.0929 92.66 67.2772 93.0357 67.3006 93.521H65.8096C65.8049 93.3717 65.7582 93.2597 65.6696 93.185C65.5856 93.1103 65.4759 93.073 65.3406 93.073C65.2379 93.073 65.1539 93.1033 65.0886 93.164C65.0232 93.2247 64.9906 93.311 64.9906 93.423C64.9906 93.5163 65.0256 93.598 65.0956 93.668C65.1702 93.7333 65.2612 93.7917 65.3686 93.843C65.4759 93.8897 65.6346 93.9503 65.8446 94.025C66.1572 94.1323 66.4139 94.2397 66.6146 94.347C66.8199 94.4497 66.9949 94.5967 67.1396 94.788C67.2889 94.9747 67.3636 95.2127 67.3636 95.502C67.3636 95.796 67.2889 96.0597 67.1396 96.293C66.9949 96.5263 66.7826 96.7107 66.5026 96.846C66.2272 96.9813 65.9006 97.049 65.5226 97.049ZM72.0194 93.073V97H70.6404V96.44C70.5237 96.6173 70.3627 96.762 70.1574 96.874C69.952 96.9813 69.7164 97.035 69.4504 97.035C68.993 97.035 68.6314 96.8857 68.3654 96.587C68.104 96.2837 67.9734 95.873 67.9734 95.355V93.073H69.3384V95.18C69.3384 95.404 69.3967 95.5813 69.5134 95.712C69.6347 95.838 69.7934 95.901 69.9894 95.901C70.19 95.901 70.3487 95.838 70.4654 95.712C70.582 95.5813 70.6404 95.404 70.6404 95.18V93.073H72.0194ZM74.1722 93.619C74.2795 93.4323 74.4312 93.2877 74.6272 93.185C74.8232 93.0777 75.0542 93.024 75.3202 93.024C75.6329 93.024 75.9152 93.1057 76.1672 93.269C76.4239 93.4323 76.6245 93.6657 76.7692 93.969C76.9185 94.2723 76.9932 94.627 76.9932 95.033C76.9932 95.439 76.9185 95.796 76.7692 96.104C76.6245 96.4073 76.4239 96.6407 76.1672 96.804C75.9152 96.9673 75.6329 97.049 75.3202 97.049C75.0542 97.049 74.8232 96.9977 74.6272 96.895C74.4312 96.7877 74.2795 96.6407 74.1722 96.454V97H72.8002V91.82H74.1722V93.619ZM75.6002 95.033C75.6002 94.7763 75.5302 94.578 75.3902 94.438C75.2549 94.2933 75.0869 94.221 74.8862 94.221C74.6855 94.221 74.5152 94.2933 74.3752 94.438C74.2399 94.5827 74.1722 94.781 74.1722 95.033C74.1722 95.2897 74.2399 95.4903 74.3752 95.635C74.5152 95.7797 74.6855 95.852 74.8862 95.852C75.0869 95.852 75.2549 95.7797 75.3902 95.635C75.5302 95.4857 75.6002 95.285 75.6002 95.033ZM79.231 97.049C78.8763 97.049 78.559 96.9907 78.279 96.874C78.0037 96.7527 77.7843 96.5893 77.621 96.384C77.4623 96.174 77.3737 95.9383 77.355 95.677H78.685C78.7037 95.803 78.762 95.901 78.86 95.971C78.958 96.041 79.0793 96.076 79.224 96.076C79.336 96.076 79.4247 96.0527 79.49 96.006C79.5553 95.9593 79.588 95.8987 79.588 95.824C79.588 95.726 79.5343 95.6537 79.427 95.607C79.3197 95.5603 79.1423 95.509 78.895 95.453C78.615 95.397 78.3817 95.334 78.195 95.264C78.0083 95.194 77.845 95.0797 77.705 94.921C77.5697 94.7623 77.502 94.5477 77.502 94.277C77.502 94.0437 77.565 93.8337 77.691 93.647C77.817 93.4557 78.0013 93.304 78.244 93.192C78.4913 93.08 78.7877 93.024 79.133 93.024C79.6463 93.024 80.05 93.15 80.344 93.402C80.638 93.654 80.8083 93.9853 80.855 94.396H79.616C79.5927 94.27 79.5367 94.1743 79.448 94.109C79.364 94.039 79.2497 94.004 79.105 94.004C78.993 94.004 78.9067 94.025 78.846 94.067C78.79 94.109 78.762 94.1673 78.762 94.242C78.762 94.3353 78.8157 94.4077 78.923 94.459C79.0303 94.5057 79.203 94.5547 79.441 94.606C79.7257 94.6667 79.9613 94.7343 80.148 94.809C80.3393 94.8837 80.505 95.005 80.645 95.173C80.7897 95.3363 80.862 95.5603 80.862 95.845C80.862 96.0737 80.7943 96.279 80.659 96.461C80.5283 96.643 80.3393 96.7877 80.092 96.895C79.8493 96.9977 79.5623 97.049 79.231 97.049ZM81.3125 95.033C81.3125 94.627 81.3965 94.2723 81.5645 93.969C81.7325 93.6657 81.9659 93.4323 82.2645 93.269C82.5679 93.1057 82.9132 93.024 83.3005 93.024C83.7999 93.024 84.2199 93.1617 84.5605 93.437C84.9012 93.7077 85.1205 94.088 85.2185 94.578H83.7625C83.6785 94.3213 83.5152 94.193 83.2725 94.193C83.0999 94.193 82.9622 94.2653 82.8595 94.41C82.7615 94.55 82.7125 94.7577 82.7125 95.033C82.7125 95.3083 82.7615 95.5183 82.8595 95.663C82.9622 95.8077 83.0999 95.88 83.2725 95.88C83.5199 95.88 83.6832 95.7517 83.7625 95.495H85.2185C85.1205 95.9803 84.9012 96.3607 84.5605 96.636C84.2199 96.9113 83.7999 97.049 83.3005 97.049C82.9132 97.049 82.5679 96.9673 82.2645 96.804C81.9659 96.6407 81.7325 96.4073 81.5645 96.104C81.3965 95.8007 81.3125 95.4437 81.3125 95.033ZM87.1605 93.766C87.3145 93.542 87.5012 93.3647 87.7205 93.234C87.9398 93.1033 88.1755 93.038 88.4275 93.038V94.501H88.0425C87.7438 94.501 87.5222 94.5593 87.3775 94.676C87.2328 94.7927 87.1605 94.9957 87.1605 95.285V97H85.7885V93.073H87.1605V93.766ZM89.6123 92.709C89.3697 92.709 89.1737 92.6437 89.0243 92.513C88.8797 92.3777 88.8073 92.2097 88.8073 92.009C88.8073 91.8037 88.8797 91.6333 89.0243 91.498C89.1737 91.3627 89.3697 91.295 89.6123 91.295C89.8503 91.295 90.0417 91.3627 90.1863 91.498C90.3357 91.6333 90.4103 91.8037 90.4103 92.009C90.4103 92.2097 90.3357 92.3777 90.1863 92.513C90.0417 92.6437 89.8503 92.709 89.6123 92.709ZM90.2913 93.073V97H88.9193V93.073H90.2913ZM92.4447 93.619C92.552 93.4323 92.7037 93.2877 92.8997 93.185C93.0957 93.0777 93.3267 93.024 93.5927 93.024C93.9053 93.024 94.1877 93.1057 94.4397 93.269C94.6963 93.4323 94.897 93.6657 95.0417 93.969C95.191 94.2723 95.2657 94.627 95.2657 95.033C95.2657 95.439 95.191 95.796 95.0417 96.104C94.897 96.4073 94.6963 96.6407 94.4397 96.804C94.1877 96.9673 93.9053 97.049 93.5927 97.049C93.3267 97.049 93.0957 96.9977 92.8997 96.895C92.7037 96.7877 92.552 96.6407 92.4447 96.454V97H91.0727V91.82H92.4447V93.619ZM93.8727 95.033C93.8727 94.7763 93.8027 94.578 93.6627 94.438C93.5273 94.2933 93.3593 94.221 93.1587 94.221C92.958 94.221 92.7877 94.2933 92.6477 94.438C92.5123 94.5827 92.4447 94.781 92.4447 95.033C92.4447 95.2897 92.5123 95.4903 92.6477 95.635C92.7877 95.7797 92.958 95.852 93.1587 95.852C93.3593 95.852 93.5273 95.7797 93.6627 95.635C93.8027 95.4857 93.8727 95.285 93.8727 95.033ZM99.5825 94.991C99.5825 95.0983 99.5755 95.2057 99.5615 95.313H96.9645C96.9785 95.5277 97.0368 95.6887 97.1395 95.796C97.2468 95.8987 97.3821 95.95 97.5455 95.95C97.7741 95.95 97.9375 95.8473 98.0355 95.642H99.4985C99.4378 95.9127 99.3188 96.1553 99.1415 96.37C98.9688 96.58 98.7495 96.7457 98.4835 96.867C98.2175 96.9883 97.9235 97.049 97.6015 97.049C97.2141 97.049 96.8688 96.9673 96.5655 96.804C96.2668 96.6407 96.0311 96.4073 95.8585 96.104C95.6905 95.8007 95.6065 95.4437 95.6065 95.033C95.6065 94.6223 95.6905 94.2677 95.8585 93.969C96.0265 93.6657 96.2598 93.4323 96.5585 93.269C96.8618 93.1057 97.2095 93.024 97.6015 93.024C97.9888 93.024 98.3318 93.1033 98.6305 93.262C98.9291 93.4207 99.1625 93.6493 99.3305 93.948C99.4985 94.242 99.5825 94.5897 99.5825 94.991ZM98.1825 94.648C98.1825 94.48 98.1265 94.3493 98.0145 94.256C97.9025 94.158 97.7625 94.109 97.5945 94.109C97.4265 94.109 97.2888 94.1557 97.1815 94.249C97.0741 94.3377 97.0041 94.4707 96.9715 94.648H98.1825ZM101.516 93.766C101.67 93.542 101.857 93.3647 102.076 93.234C102.295 93.1033 102.531 93.038 102.783 93.038V94.501H102.398C102.099 94.501 101.878 94.5593 101.733 94.676C101.588 94.7927 101.516 94.9957 101.516 95.285V97H100.144V93.073H101.516V93.766ZM104.948 97.049C104.593 97.049 104.276 96.9907 103.996 96.874C103.72 96.7527 103.501 96.5893 103.338 96.384C103.179 96.174 103.09 95.9383 103.072 95.677H104.402C104.42 95.803 104.479 95.901 104.577 95.971C104.675 96.041 104.796 96.076 104.941 96.076C105.053 96.076 105.141 96.0527 105.207 96.006C105.272 95.9593 105.305 95.8987 105.305 95.824C105.305 95.726 105.251 95.6537 105.144 95.607C105.036 95.5603 104.859 95.509 104.612 95.453C104.332 95.397 104.098 95.334 103.912 95.264C103.725 95.194 103.562 95.0797 103.422 94.921C103.286 94.7623 103.219 94.5477 103.219 94.277C103.219 94.0437 103.282 93.8337 103.408 93.647C103.534 93.4557 103.718 93.304 103.961 93.192C104.208 93.08 104.504 93.024 104.85 93.024C105.363 93.024 105.767 93.15 106.061 93.402C106.355 93.654 106.525 93.9853 106.572 94.396H105.333C105.309 94.27 105.253 94.1743 105.165 94.109C105.081 94.039 104.966 94.004 104.822 94.004C104.71 94.004 104.623 94.025 104.563 94.067C104.507 94.109 104.479 94.1673 104.479 94.242C104.479 94.3353 104.532 94.4077 104.64 94.459C104.747 94.5057 104.92 94.5547 105.158 94.606C105.442 94.6667 105.678 94.7343 105.865 94.809C106.056 94.8837 106.222 95.005 106.362 95.173C106.506 95.3363 106.579 95.5603 106.579 95.845C106.579 96.0737 106.511 96.279 106.376 96.461C106.245 96.643 106.056 96.7877 105.809 96.895C105.566 96.9977 105.279 97.049 104.948 97.049Z" fill="#FFE794"/>
<defs>
<filter id="filter0_d_3604_5581" x="47.5703" y="27.7885" width="40.6406" height="39.7174" filterUnits="userSpaceOnUse" color-interpolation-filters="sRGB">
<feFlood flood-opacity="0" result="BackgroundImageFix"/>
<feColorMatrix in="SourceAlpha" type="matrix" values="0 0 0 0 0 0 0 0 0 0 0 0 0 0 0 0 0 0 127 0" result="hardAlpha"/>
<feOffset dy="4"/>
<feGaussianBlur stdDeviation="2"/>
<feComposite in2="hardAlpha" operator="out"/>
<feColorMatrix type="matrix" values="0 0 0 0 0.556863 0 0 0 0 0.337255 0 0 0 0 0.976471 0 0 0 0.25 0"/>
<feBlend mode="normal" in2="BackgroundImageFix" result="effect1_dropShadow_3604_5581"/>
<feBlend mode="normal" in="SourceGraphic" in2="effect1_dropShadow_3604_5581" result="shape"/>
</filter>
<linearGradient id="paint0_linear_3604_5581" x1="53.4695" y1="9.30881" x2="56.5461" y2="14.3317" gradientUnits="userSpaceOnUse">
<stop offset="0.17" stop-color="#FFF1A3"/>
<stop offset="0.19" stop-color="#FCE594"/>
<stop offset="0.22" stop-color="#F6D17B"/>
<stop offset="0.26" stop-color="#F2C168"/>
<stop offset="0.3" stop-color="#EFB65A"/>
<stop offset="0.36" stop-color="#EEB052"/>
<stop offset="0.46" stop-color="#EDAE50"/>
<stop offset="0.54" stop-color="#EEB153"/>
<stop offset="0.61" stop-color="#F0B95D"/>
<stop offset="0.68" stop-color="#F5C76E"/>
<stop offset="0.73" stop-color="#FBDA85"/>
<stop offset="0.76" stop-color="#FFE794"/>
<stop offset="1" stop-color="#B77946"/>
</linearGradient>
<radialGradient id="paint1_radial_3604_5581" cx="0" cy="0" r="1" gradientUnits="userSpaceOnUse" gradientTransform="translate(53.8656 8.6568) scale(6.04679)">
<stop stop-color="#F3E8DE"/>
<stop offset="0.54" stop-color="#F6EEE7" stop-opacity="0.36"/>
<stop offset="0.57" stop-color="#F6EEE7" stop-opacity="0.33"/>
<stop offset="0.75" stop-color="#F7F0E9" stop-opacity="0.15"/>
<stop offset="0.88" stop-color="#F8F1EB" stop-opacity="0.04"/>
<stop offset="0.96" stop-color="#F8F1EB" stop-opacity="0"/>
</radialGradient>
<linearGradient id="paint2_linear_3604_5581" x1="59.6989" y1="15.6018" x2="55.7289" y2="9.57921" gradientUnits="userSpaceOnUse">
<stop stop-color="#B77946" stop-opacity="0"/>
<stop offset="0.18" stop-color="#FFF1A3"/>
<stop offset="0.34" stop-color="#E7C883"/>
<stop offset="0.51" stop-color="#D2A669"/>
<stop offset="0.67" stop-color="#C38D56"/>
<stop offset="0.81" stop-color="#BA7E4A"/>
<stop offset="0.93" stop-color="#B77946"/>
</linearGradient>
<linearGradient id="paint3_linear_3604_5581" x1="53.3852" y1="16.2959" x2="55.5538" y2="7.43818" gradientUnits="userSpaceOnUse">
<stop stop-color="#B77946" stop-opacity="0"/>
<stop offset="0.18" stop-color="#FFF1A3"/>
<stop offset="0.34" stop-color="#E7C883"/>
<stop offset="0.51" stop-color="#D2A669"/>
<stop offset="0.67" stop-color="#C38D56"/>
<stop offset="0.81" stop-color="#BA7E4A"/>
<stop offset="0.93" stop-color="#B77946"/>
</linearGradient>
<linearGradient id="paint4_linear_3604_5581" x1="79.5555" y1="9.3093" x2="82.632" y2="14.3322" gradientUnits="userSpaceOnUse">
<stop offset="0.17" stop-color="#FFF1A3"/>
<stop offset="0.19" stop-color="#FCE594"/>
<stop offset="0.22" stop-color="#F6D17B"/>
<stop offset="0.26" stop-color="#F2C168"/>
<stop offset="0.3" stop-color="#EFB65A"/>
<stop offset="0.36" stop-color="#EEB052"/>
<stop offset="0.46" stop-color="#EDAE50"/>
<stop offset="0.54" stop-color="#EEB153"/>
<stop offset="0.61" stop-color="#F0B95D"/>
<stop offset="0.68" stop-color="#F5C76E"/>
<stop offset="0.73" stop-color="#FBDA85"/>
<stop offset="0.76" stop-color="#FFE794"/>
<stop offset="1" stop-color="#B77946"/>
</linearGradient>
<radialGradient id="paint5_radial_3604_5581" cx="0" cy="0" r="1" gradientUnits="userSpaceOnUse" gradientTransform="translate(79.9467 8.65729) scale(6.04679)">
<stop stop-color="#F3E8DE"/>
<stop offset="0.54" stop-color="#F6EEE7" stop-opacity="0.36"/>
<stop offset="0.57" stop-color="#F6EEE7" stop-opacity="0.33"/>
<stop offset="0.75" stop-color="#F7F0E9" stop-opacity="0.15"/>
<stop offset="0.88" stop-color="#F8F1EB" stop-opacity="0.04"/>
<stop offset="0.96" stop-color="#F8F1EB" stop-opacity="0"/>
</radialGradient>
<linearGradient id="paint6_linear_3604_5581" x1="85.7848" y1="15.5998" x2="81.8196" y2="9.57713" gradientUnits="userSpaceOnUse">
<stop stop-color="#B77946" stop-opacity="0"/>
<stop offset="0.18" stop-color="#FFF1A3"/>
<stop offset="0.34" stop-color="#E7C883"/>
<stop offset="0.51" stop-color="#D2A669"/>
<stop offset="0.67" stop-color="#C38D56"/>
<stop offset="0.81" stop-color="#BA7E4A"/>
<stop offset="0.93" stop-color="#B77946"/>
</linearGradient>
<linearGradient id="paint7_linear_3604_5581" x1="79.4556" y1="16.2968" x2="81.6241" y2="7.43915" gradientUnits="userSpaceOnUse">
<stop stop-color="#B77946" stop-opacity="0"/>
<stop offset="0.18" stop-color="#FFF1A3"/>
<stop offset="0.34" stop-color="#E7C883"/>
<stop offset="0.51" stop-color="#D2A669"/>
<stop offset="0.67" stop-color="#C38D56"/>
<stop offset="0.81" stop-color="#BA7E4A"/>
<stop offset="0.93" stop-color="#B77946"/>
</linearGradient>
<linearGradient id="paint8_linear_3604_5581" x1="66.5086" y1="1.21226" x2="69.5851" y2="6.23515" gradientUnits="userSpaceOnUse">
<stop offset="0.17" stop-color="#FFF1A3"/>
<stop offset="0.19" stop-color="#FCE594"/>
<stop offset="0.22" stop-color="#F6D17B"/>
<stop offset="0.26" stop-color="#F2C168"/>
<stop offset="0.3" stop-color="#EFB65A"/>
<stop offset="0.36" stop-color="#EEB052"/>
<stop offset="0.46" stop-color="#EDAE50"/>
<stop offset="0.54" stop-color="#EEB153"/>
<stop offset="0.61" stop-color="#F0B95D"/>
<stop offset="0.68" stop-color="#F5C76E"/>
<stop offset="0.73" stop-color="#FBDA85"/>
<stop offset="0.76" stop-color="#FFE794"/>
<stop offset="1" stop-color="#B77946"/>
</linearGradient>
<radialGradient id="paint9_radial_3604_5581" cx="0" cy="0" r="1" gradientUnits="userSpaceOnUse" gradientTransform="translate(66.9046 0.560246) scale(6.04679)">
<stop stop-color="#F3E8DE"/>
<stop offset="0.54" stop-color="#F6EEE7" stop-opacity="0.36"/>
<stop offset="0.57" stop-color="#F6EEE7" stop-opacity="0.33"/>
<stop offset="0.75" stop-color="#F7F0E9" stop-opacity="0.15"/>
<stop offset="0.88" stop-color="#F8F1EB" stop-opacity="0.04"/>
<stop offset="0.96" stop-color="#F8F1EB" stop-opacity="0"/>
</radialGradient>
<linearGradient id="paint10_linear_3604_5581" x1="72.7331" y1="7.50675" x2="68.7679" y2="1.48411" gradientUnits="userSpaceOnUse">
<stop stop-color="#B77946" stop-opacity="0"/>
<stop offset="0.18" stop-color="#FFF1A3"/>
<stop offset="0.34" stop-color="#E7C883"/>
<stop offset="0.51" stop-color="#D2A669"/>
<stop offset="0.67" stop-color="#C38D56"/>
<stop offset="0.81" stop-color="#BA7E4A"/>
<stop offset="0.93" stop-color="#B77946"/>
</linearGradient>
<linearGradient id="paint11_linear_3604_5581" x1="66.4165" y1="8.1927" x2="68.585" y2="-0.664971" gradientUnits="userSpaceOnUse">
<stop stop-color="#B77946" stop-opacity="0"/>
<stop offset="0.18" stop-color="#FFF1A3"/>
<stop offset="0.34" stop-color="#E7C883"/>
<stop offset="0.51" stop-color="#D2A669"/>
<stop offset="0.67" stop-color="#C38D56"/>
<stop offset="0.81" stop-color="#BA7E4A"/>
<stop offset="0.93" stop-color="#B77946"/>
</linearGradient>
<linearGradient id="paint12_linear_3604_5581" x1="70.5234" y1="14.9188" x2="70.5961" y2="14.9188" gradientUnits="userSpaceOnUse">
<stop stop-color="#B77946"/>
<stop offset="0.24" stop-color="#FFE794"/>
<stop offset="0.27" stop-color="#FBDA85"/>
<stop offset="0.32" stop-color="#F5C76E"/>
<stop offset="0.39" stop-color="#F0B95D"/>
<stop offset="0.46" stop-color="#EEB153"/>
<stop offset="0.54" stop-color="#EDAE50"/>
<stop offset="0.64" stop-color="#EEB052"/>
<stop offset="0.7" stop-color="#EFB65A"/>
<stop offset="0.74" stop-color="#F2C168"/>
<stop offset="0.78" stop-color="#F6D17B"/>
<stop offset="0.81" stop-color="#FCE594"/>
<stop offset="0.83" stop-color="#FFF1A3"/>
<stop offset="0.86" stop-color="#F7E398"/>
<stop offset="0.91" stop-color="#E1BF7C"/>
<stop offset="0.98" stop-color="#BE844F"/>
<stop offset="1" stop-color="#B77946"/>
</linearGradient>
<linearGradient id="paint13_linear_3604_5581" x1="40.6484" y1="42.4113" x2="95.3545" y2="42.4113" gradientUnits="userSpaceOnUse">
<stop stop-color="#B77946"/>
<stop offset="0.18" stop-color="#FFF1A3"/>
<stop offset="0.19" stop-color="#F2DC93"/>
<stop offset="0.2" stop-color="#E0BE7B"/>
<stop offset="0.22" stop-color="#D1A468"/>
<stop offset="0.23" stop-color="#C59159"/>
<stop offset="0.25" stop-color="#BD834E"/>
<stop offset="0.27" stop-color="#B87B48"/>
<stop offset="0.31" stop-color="#B77946"/>
<stop offset="0.33" stop-color="#BF8148"/>
<stop offset="0.41" stop-color="#E0A24E"/>
<stop offset="0.46" stop-color="#EDAE50"/>
<stop offset="1" stop-color="#613F1B"/>
</linearGradient>
<linearGradient id="paint14_linear_3604_5581" x1="41.6161" y1="42.7245" x2="94.3902" y2="42.7245" gradientUnits="userSpaceOnUse">
<stop stop-color="#B77946"/>
<stop offset="0.24" stop-color="#FFE794"/>
<stop offset="0.27" stop-color="#FBDA85"/>
<stop offset="0.32" stop-color="#F5C76E"/>
<stop offset="0.39" stop-color="#F0B95D"/>
<stop offset="0.46" stop-color="#EEB153"/>
<stop offset="0.54" stop-color="#EDAE50"/>
<stop offset="0.64" stop-color="#EEB052"/>
<stop offset="0.7" stop-color="#EFB65A"/>
<stop offset="0.74" stop-color="#F2C168"/>
<stop offset="0.78" stop-color="#F6D17B"/>
<stop offset="0.81" stop-color="#FCE594"/>
<stop offset="0.83" stop-color="#FFF1A3"/>
<stop offset="0.86" stop-color="#F7E398"/>
<stop offset="0.91" stop-color="#E1BF7C"/>
<stop offset="0.98" stop-color="#BE844F"/>
<stop offset="1" stop-color="#B77946"/>
</linearGradient>
<linearGradient id="paint15_linear_3604_5581" x1="67.9851" y1="71.1579" x2="67.9851" y2="54.51" gradientUnits="userSpaceOnUse">
<stop stop-color="#B77946" stop-opacity="0"/>
<stop offset="0.93" stop-color="#B77946"/>
</linearGradient>
<linearGradient id="paint16_linear_3604_5581" x1="41.4229" y1="42.6617" x2="94.5834" y2="42.6617" gradientUnits="userSpaceOnUse">
<stop stop-color="#B77946"/>
<stop offset="0.24" stop-color="#FFE794"/>
<stop offset="0.27" stop-color="#FBDA85"/>
<stop offset="0.32" stop-color="#F5C76E"/>
<stop offset="0.39" stop-color="#F0B95D"/>
<stop offset="0.46" stop-color="#EEB153"/>
<stop offset="0.54" stop-color="#EDAE50"/>
<stop offset="0.64" stop-color="#EEB052"/>
<stop offset="0.7" stop-color="#EFB65A"/>
<stop offset="0.74" stop-color="#F2C168"/>
<stop offset="0.78" stop-color="#F6D17B"/>
<stop offset="0.81" stop-color="#FCE594"/>
<stop offset="0.83" stop-color="#FFF1A3"/>
<stop offset="0.86" stop-color="#F7E398"/>
<stop offset="0.91" stop-color="#E1BF7C"/>
<stop offset="0.98" stop-color="#BE844F"/>
<stop offset="1" stop-color="#B77946"/>
</linearGradient>
<linearGradient id="paint17_linear_3604_5581" x1="44.4982" y1="43.2947" x2="91.4767" y2="43.2947" gradientUnits="userSpaceOnUse">
<stop stop-color="#B77946"/>
<stop offset="0.45" stop-color="#EDAE50"/>
<stop offset="0.51" stop-color="#EBAC4F"/>
<stop offset="0.54" stop-color="#E3A54D"/>
<stop offset="0.57" stop-color="#D59A49"/>
<stop offset="0.59" stop-color="#C28A44"/>
<stop offset="0.61" stop-color="#A9753D"/>
<stop offset="0.63" stop-color="#875934"/>
<stop offset="1" stop-color="#FFF1A3"/>
</linearGradient>
<radialGradient id="paint18_radial_3604_5581" cx="0" cy="0" r="1" gradientUnits="userSpaceOnUse" gradientTransform="translate(68.0101 43.4018) scale(24.0229 24.0229)">
<stop stop-color="#312F69"/>
<stop offset="0.39" stop-color="#312F69"/>
<stop offset="0.79" stop-color="#312F69"/>
<stop offset="1" stop-color="#312F69"/>
</radialGradient>
<radialGradient id="paint19_radial_3604_5581" cx="0" cy="0" r="1" gradientUnits="userSpaceOnUse" gradientTransform="translate(55.2421 21.9414) scale(39.3331)">
<stop stop-color="#FAF7F4"/>
<stop offset="0.09" stop-color="#FAF7F3" stop-opacity="0.94"/>
<stop offset="0.27" stop-color="#F9F6F2" stop-opacity="0.8"/>
<stop offset="0.51" stop-color="#F8F4EF" stop-opacity="0.56"/>
<stop offset="0.8" stop-color="#F6F2EB" stop-opacity="0.24"/>
<stop offset="1" stop-color="#F5F0E8" stop-opacity="0"/>
</radialGradient>
<radialGradient id="paint20_radial_3604_5581" cx="0" cy="0" r="1" gradientUnits="userSpaceOnUse" gradientTransform="translate(93.4464 39.4832) scale(24.5639 24.5639)">
<stop stop-color="#EDAE50"/>
<stop offset="0.1" stop-color="#E1A54C" stop-opacity="0.94"/>
<stop offset="0.28" stop-color="#C28E42" stop-opacity="0.79"/>
<stop offset="0.53" stop-color="#906931" stop-opacity="0.54"/>
<stop offset="0.83" stop-color="#4B361A" stop-opacity="0.2"/>
<stop offset="1" stop-color="#23180D" stop-opacity="0"/>
</radialGradient>
<linearGradient id="paint21_linear_3604_5581" x1="45.3636" y1="43.3873" x2="90.6518" y2="43.3873" gradientUnits="userSpaceOnUse">
<stop stop-color="#B77946"/>
<stop offset="0.1" stop-color="#EDAE50"/>
<stop offset="0.2" stop-color="#E2A54D"/>
<stop offset="0.35" stop-color="#C68E45"/>
<stop offset="0.56" stop-color="#996839"/>
<stop offset="0.63" stop-color="#875934"/>
<stop offset="0.64" stop-color="#8A5D37"/>
<stop offset="0.67" stop-color="#A98454"/>
<stop offset="0.71" stop-color="#C4A66C"/>
<stop offset="0.76" stop-color="#D9C180"/>
<stop offset="0.8" stop-color="#EAD790"/>
<stop offset="0.85" stop-color="#F6E69B"/>
<stop offset="0.91" stop-color="#FDEEA1"/>
<stop offset="1" stop-color="#FFF1A3"/>
</linearGradient>
<linearGradient id="paint22_linear_3604_5581" x1="68.2743" y1="46.1349" x2="91.6742" y2="46.1349" gradientUnits="userSpaceOnUse">
<stop stop-color="#B77946"/>
<stop offset="0.24" stop-color="#FFE794"/>
<stop offset="0.27" stop-color="#FBDA85"/>
<stop offset="0.32" stop-color="#F5C76E"/>
<stop offset="0.39" stop-color="#F0B95D"/>
<stop offset="0.46" stop-color="#EEB153"/>
<stop offset="0.54" stop-color="#EDAE50"/>
<stop offset="0.64" stop-color="#EEB052"/>
<stop offset="0.7" stop-color="#EFB65A"/>
<stop offset="0.74" stop-color="#F2C168"/>
<stop offset="0.78" stop-color="#F6D17B"/>
<stop offset="0.81" stop-color="#FCE594"/>
<stop offset="0.83" stop-color="#FFF1A3"/>
<stop offset="0.86" stop-color="#F7E398"/>
<stop offset="0.91" stop-color="#E1BF7C"/>
<stop offset="0.98" stop-color="#BE844F"/>
<stop offset="1" stop-color="#B77946"/>
</linearGradient>
<linearGradient id="paint23_linear_3604_5581" x1="70.4453" y1="14.9165" x2="70.5228" y2="14.9165" gradientUnits="userSpaceOnUse">
<stop stop-color="#B77946"/>
<stop offset="0.24" stop-color="#FFE794"/>
<stop offset="0.27" stop-color="#FBDA85"/>
<stop offset="0.32" stop-color="#F5C76E"/>
<stop offset="0.39" stop-color="#F0B95D"/>
<stop offset="0.46" stop-color="#EEB153"/>
<stop offset="0.54" stop-color="#EDAE50"/>
<stop offset="0.64" stop-color="#EEB052"/>
<stop offset="0.7" stop-color="#EFB65A"/>
<stop offset="0.74" stop-color="#F2C168"/>
<stop offset="0.78" stop-color="#F6D17B"/>
<stop offset="0.81" stop-color="#FCE594"/>
<stop offset="0.83" stop-color="#FFF1A3"/>
<stop offset="0.86" stop-color="#F7E398"/>
<stop offset="0.91" stop-color="#E1BF7C"/>
<stop offset="0.98" stop-color="#BE844F"/>
<stop offset="1" stop-color="#B77946"/>
</linearGradient>
<linearGradient id="paint24_linear_3604_5581" x1="40.8173" y1="38.8298" x2="48.2599" y2="38.8298" gradientUnits="userSpaceOnUse">
<stop stop-color="#B77946" stop-opacity="0"/>
<stop offset="0.13" stop-color="#B77946" stop-opacity="0.26"/>
<stop offset="0.25" stop-color="#B77946" stop-opacity="0.49"/>
<stop offset="0.38" stop-color="#B77946" stop-opacity="0.67"/>
<stop offset="0.51" stop-color="#B77946" stop-opacity="0.82"/>
<stop offset="0.64" stop-color="#B77946" stop-opacity="0.92"/>
<stop offset="0.78" stop-color="#B77946" stop-opacity="0.98"/>
<stop offset="0.93" stop-color="#B77946"/>
</linearGradient>
<linearGradient id="paint25_linear_3604_5581" x1="41.8768" y1="45.7542" x2="49.445" y2="45.7542" gradientUnits="userSpaceOnUse">
<stop stop-color="#B77946" stop-opacity="0"/>
<stop offset="0.13" stop-color="#B77946" stop-opacity="0.26"/>
<stop offset="0.25" stop-color="#B77946" stop-opacity="0.49"/>
<stop offset="0.38" stop-color="#B77946" stop-opacity="0.67"/>
<stop offset="0.51" stop-color="#B77946" stop-opacity="0.82"/>
<stop offset="0.64" stop-color="#B77946" stop-opacity="0.92"/>
<stop offset="0.78" stop-color="#B77946" stop-opacity="0.98"/>
<stop offset="0.93" stop-color="#B77946"/>
</linearGradient>
<linearGradient id="paint26_linear_3604_5581" x1="44.0223" y1="51.4253" x2="50.1947" y2="51.4253" gradientUnits="userSpaceOnUse">
<stop stop-color="#B77946" stop-opacity="0"/>
<stop offset="0.13" stop-color="#B77946" stop-opacity="0.26"/>
<stop offset="0.25" stop-color="#B77946" stop-opacity="0.49"/>
<stop offset="0.38" stop-color="#B77946" stop-opacity="0.67"/>
<stop offset="0.51" stop-color="#B77946" stop-opacity="0.82"/>
<stop offset="0.64" stop-color="#B77946" stop-opacity="0.92"/>
<stop offset="0.78" stop-color="#B77946" stop-opacity="0.98"/>
<stop offset="0.93" stop-color="#B77946"/>
</linearGradient>
<linearGradient id="paint27_linear_3604_5581" x1="32.7473" y1="29.403" x2="52.7423" y2="53.6385" gradientUnits="userSpaceOnUse">
<stop offset="0.24" stop-color="#FFE794"/>
<stop offset="0.27" stop-color="#FBDA85"/>
<stop offset="0.32" stop-color="#F5C76E"/>
<stop offset="0.39" stop-color="#F0B95D"/>
<stop offset="0.46" stop-color="#EEB153"/>
<stop offset="0.54" stop-color="#EDAE50"/>
<stop offset="0.64" stop-color="#EEB052"/>
<stop offset="0.7" stop-color="#EFB65A"/>
<stop offset="0.74" stop-color="#F2C168"/>
<stop offset="0.78" stop-color="#F6D17B"/>
<stop offset="0.81" stop-color="#FCE594"/>
<stop offset="0.83" stop-color="#FFF1A3"/>
<stop offset="0.86" stop-color="#F7E398"/>
<stop offset="0.91" stop-color="#E1BF7C"/>
<stop offset="0.98" stop-color="#BE844F"/>
<stop offset="1" stop-color="#B77946"/>
</linearGradient>
<linearGradient id="paint28_linear_3604_5581" x1="31.8649" y1="33.8519" x2="51.4831" y2="55.6" gradientUnits="userSpaceOnUse">
<stop offset="0.24" stop-color="#FFE794"/>
<stop offset="0.27" stop-color="#FBDA85"/>
<stop offset="0.32" stop-color="#F5C76E"/>
<stop offset="0.39" stop-color="#F0B95D"/>
<stop offset="0.46" stop-color="#EEB153"/>
<stop offset="0.54" stop-color="#EDAE50"/>
<stop offset="0.64" stop-color="#EEB052"/>
<stop offset="0.7" stop-color="#EFB65A"/>
<stop offset="0.74" stop-color="#F2C168"/>
<stop offset="0.78" stop-color="#F6D17B"/>
<stop offset="0.81" stop-color="#FCE594"/>
<stop offset="0.83" stop-color="#FFF1A3"/>
<stop offset="0.86" stop-color="#F7E398"/>
<stop offset="0.91" stop-color="#E1BF7C"/>
<stop offset="0.98" stop-color="#BE844F"/>
<stop offset="1" stop-color="#B77946"/>
</linearGradient>
<linearGradient id="paint29_linear_3604_5581" x1="39.1418" y1="43.7641" x2="51.2402" y2="59.8181" gradientUnits="userSpaceOnUse">
<stop offset="0.24" stop-color="#FFE794"/>
<stop offset="0.27" stop-color="#FBDA85"/>
<stop offset="0.32" stop-color="#F5C76E"/>
<stop offset="0.39" stop-color="#F0B95D"/>
<stop offset="0.46" stop-color="#EEB153"/>
<stop offset="0.54" stop-color="#EDAE50"/>
<stop offset="0.64" stop-color="#EEB052"/>
<stop offset="0.7" stop-color="#EFB65A"/>
<stop offset="0.74" stop-color="#F2C168"/>
<stop offset="0.78" stop-color="#F6D17B"/>
<stop offset="0.81" stop-color="#FCE594"/>
<stop offset="0.83" stop-color="#FFF1A3"/>
<stop offset="0.86" stop-color="#F7E398"/>
<stop offset="0.91" stop-color="#E1BF7C"/>
<stop offset="0.98" stop-color="#BE844F"/>
<stop offset="1" stop-color="#B77946"/>
</linearGradient>
<linearGradient id="paint30_linear_3604_5581" x1="28.8438" y1="38.4289" x2="47.839" y2="38.4289" gradientUnits="userSpaceOnUse">
<stop stop-color="#B77946"/>
<stop offset="0.18" stop-color="#FFF1A3"/>
<stop offset="0.19" stop-color="#F2DC93"/>
<stop offset="0.2" stop-color="#E0BE7B"/>
<stop offset="0.22" stop-color="#D1A468"/>
<stop offset="0.23" stop-color="#C59159"/>
<stop offset="0.25" stop-color="#BD834E"/>
<stop offset="0.27" stop-color="#B87B48"/>
<stop offset="0.31" stop-color="#B77946"/>
<stop offset="0.33" stop-color="#BF8148"/>
<stop offset="0.41" stop-color="#E0A24E"/>
<stop offset="0.46" stop-color="#EDAE50"/>
<stop offset="1" stop-color="#613F1B"/>
</linearGradient>
<linearGradient id="paint31_linear_3604_5581" x1="33.9453" y1="46.6449" x2="49.0575" y2="46.6449" gradientUnits="userSpaceOnUse">
<stop stop-color="#B77946"/>
<stop offset="0.18" stop-color="#FFF1A3"/>
<stop offset="0.19" stop-color="#F2DC93"/>
<stop offset="0.2" stop-color="#E0BE7B"/>
<stop offset="0.22" stop-color="#D1A468"/>
<stop offset="0.23" stop-color="#C59159"/>
<stop offset="0.25" stop-color="#BD834E"/>
<stop offset="0.27" stop-color="#B87B48"/>
<stop offset="0.31" stop-color="#B77946"/>
<stop offset="0.33" stop-color="#BF8148"/>
<stop offset="0.41" stop-color="#E0A24E"/>
<stop offset="0.46" stop-color="#EDAE50"/>
<stop offset="1" stop-color="#613F1B"/>
</linearGradient>
<linearGradient id="paint32_linear_3604_5581" x1="39.5" y1="52.1807" x2="49.8887" y2="52.1807" gradientUnits="userSpaceOnUse">
<stop stop-color="#B77946"/>
<stop offset="0.18" stop-color="#FFF1A3"/>
<stop offset="0.19" stop-color="#F2DC93"/>
<stop offset="0.2" stop-color="#E0BE7B"/>
<stop offset="0.22" stop-color="#D1A468"/>
<stop offset="0.23" stop-color="#C59159"/>
<stop offset="0.25" stop-color="#BD834E"/>
<stop offset="0.27" stop-color="#B87B48"/>
<stop offset="0.31" stop-color="#B77946"/>
<stop offset="0.33" stop-color="#BF8148"/>
<stop offset="0.41" stop-color="#E0A24E"/>
<stop offset="0.46" stop-color="#EDAE50"/>
<stop offset="1" stop-color="#613F1B"/>
</linearGradient>
<radialGradient id="paint33_radial_3604_5581" cx="0" cy="0" r="1" gradientUnits="userSpaceOnUse" gradientTransform="translate(37.239 32.55) scale(7.81929 10.3997)">
<stop stop-color="#F3E8DE"/>
<stop offset="0.54" stop-color="#F6EEE7" stop-opacity="0.36"/>
<stop offset="0.57" stop-color="#F6EEE7" stop-opacity="0.33"/>
<stop offset="0.75" stop-color="#F7F0E9" stop-opacity="0.15"/>
<stop offset="0.88" stop-color="#F8F1EB" stop-opacity="0.04"/>
<stop offset="0.96" stop-color="#F8F1EB" stop-opacity="0"/>
</radialGradient>
<radialGradient id="paint34_radial_3604_5581" cx="0" cy="0" r="1" gradientUnits="userSpaceOnUse" gradientTransform="translate(40.626 41.8262) scale(5.83428 7.7596)">
<stop stop-color="#F3E8DE"/>
<stop offset="0.54" stop-color="#F6EEE7" stop-opacity="0.36"/>
<stop offset="0.57" stop-color="#F6EEE7" stop-opacity="0.33"/>
<stop offset="0.75" stop-color="#F7F0E9" stop-opacity="0.15"/>
<stop offset="0.88" stop-color="#F8F1EB" stop-opacity="0.04"/>
<stop offset="0.96" stop-color="#F8F1EB" stop-opacity="0"/>
</radialGradient>
<radialGradient id="paint35_radial_3604_5581" cx="0" cy="0" r="1" gradientUnits="userSpaceOnUse" gradientTransform="translate(44.0922 49.2422) scale(3.9024 5.19019)">
<stop stop-color="#F3E8DE"/>
<stop offset="0.54" stop-color="#F6EEE7" stop-opacity="0.36"/>
<stop offset="0.57" stop-color="#F6EEE7" stop-opacity="0.33"/>
<stop offset="0.75" stop-color="#F7F0E9" stop-opacity="0.15"/>
<stop offset="0.88" stop-color="#F8F1EB" stop-opacity="0.04"/>
<stop offset="0.96" stop-color="#F8F1EB" stop-opacity="0"/>
</radialGradient>
<linearGradient id="paint36_linear_3604_5581" x1="95.1926" y1="38.8298" x2="87.75" y2="38.8298" gradientUnits="userSpaceOnUse">
<stop stop-color="#B77946" stop-opacity="0"/>
<stop offset="0.13" stop-color="#B77946" stop-opacity="0.26"/>
<stop offset="0.25" stop-color="#B77946" stop-opacity="0.49"/>
<stop offset="0.38" stop-color="#B77946" stop-opacity="0.67"/>
<stop offset="0.51" stop-color="#B77946" stop-opacity="0.82"/>
<stop offset="0.64" stop-color="#B77946" stop-opacity="0.92"/>
<stop offset="0.78" stop-color="#B77946" stop-opacity="0.98"/>
<stop offset="0.93" stop-color="#B77946"/>
</linearGradient>
<linearGradient id="paint37_linear_3604_5581" x1="94.1228" y1="45.7524" x2="86.5547" y2="45.7524" gradientUnits="userSpaceOnUse">
<stop stop-color="#B77946" stop-opacity="0"/>
<stop offset="0.13" stop-color="#B77946" stop-opacity="0.26"/>
<stop offset="0.25" stop-color="#B77946" stop-opacity="0.49"/>
<stop offset="0.38" stop-color="#B77946" stop-opacity="0.67"/>
<stop offset="0.51" stop-color="#B77946" stop-opacity="0.82"/>
<stop offset="0.64" stop-color="#B77946" stop-opacity="0.92"/>
<stop offset="0.78" stop-color="#B77946" stop-opacity="0.98"/>
<stop offset="0.93" stop-color="#B77946"/>
</linearGradient>
<linearGradient id="paint38_linear_3604_5581" x1="91.9614" y1="51.4253" x2="85.7891" y2="51.4253" gradientUnits="userSpaceOnUse">
<stop stop-color="#B77946" stop-opacity="0"/>
<stop offset="0.13" stop-color="#B77946" stop-opacity="0.26"/>
<stop offset="0.25" stop-color="#B77946" stop-opacity="0.49"/>
<stop offset="0.38" stop-color="#B77946" stop-opacity="0.67"/>
<stop offset="0.51" stop-color="#B77946" stop-opacity="0.82"/>
<stop offset="0.64" stop-color="#B77946" stop-opacity="0.92"/>
<stop offset="0.78" stop-color="#B77946" stop-opacity="0.98"/>
<stop offset="0.93" stop-color="#B77946"/>
</linearGradient>
<linearGradient id="paint39_linear_3604_5581" x1="103.247" y1="29.4044" x2="83.2523" y2="53.6398" gradientUnits="userSpaceOnUse">
<stop offset="0.24" stop-color="#FFE794"/>
<stop offset="0.27" stop-color="#FBDA85"/>
<stop offset="0.32" stop-color="#F5C76E"/>
<stop offset="0.39" stop-color="#F0B95D"/>
<stop offset="0.46" stop-color="#EEB153"/>
<stop offset="0.54" stop-color="#EDAE50"/>
<stop offset="0.64" stop-color="#EEB052"/>
<stop offset="0.7" stop-color="#EFB65A"/>
<stop offset="0.74" stop-color="#F2C168"/>
<stop offset="0.78" stop-color="#F6D17B"/>
<stop offset="0.81" stop-color="#FCE594"/>
<stop offset="0.83" stop-color="#FFF1A3"/>
<stop offset="0.86" stop-color="#F7E398"/>
<stop offset="0.91" stop-color="#E1BF7C"/>
<stop offset="0.98" stop-color="#BE844F"/>
<stop offset="1" stop-color="#B77946"/>
</linearGradient>
<linearGradient id="paint40_linear_3604_5581" x1="104.146" y1="33.8537" x2="84.5275" y2="55.6018" gradientUnits="userSpaceOnUse">
<stop offset="0.24" stop-color="#FFE794"/>
<stop offset="0.27" stop-color="#FBDA85"/>
<stop offset="0.32" stop-color="#F5C76E"/>
<stop offset="0.39" stop-color="#F0B95D"/>
<stop offset="0.46" stop-color="#EEB153"/>
<stop offset="0.54" stop-color="#EDAE50"/>
<stop offset="0.64" stop-color="#EEB052"/>
<stop offset="0.7" stop-color="#EFB65A"/>
<stop offset="0.74" stop-color="#F2C168"/>
<stop offset="0.78" stop-color="#F6D17B"/>
<stop offset="0.81" stop-color="#FCE594"/>
<stop offset="0.83" stop-color="#FFF1A3"/>
<stop offset="0.86" stop-color="#F7E398"/>
<stop offset="0.91" stop-color="#E1BF7C"/>
<stop offset="0.98" stop-color="#BE844F"/>
<stop offset="1" stop-color="#B77946"/>
</linearGradient>
<linearGradient id="paint41_linear_3604_5581" x1="96.8789" y1="43.7641" x2="84.7805" y2="59.8181" gradientUnits="userSpaceOnUse">
<stop offset="0.24" stop-color="#FFE794"/>
<stop offset="0.27" stop-color="#FBDA85"/>
<stop offset="0.32" stop-color="#F5C76E"/>
<stop offset="0.39" stop-color="#F0B95D"/>
<stop offset="0.46" stop-color="#EEB153"/>
<stop offset="0.54" stop-color="#EDAE50"/>
<stop offset="0.64" stop-color="#EEB052"/>
<stop offset="0.7" stop-color="#EFB65A"/>
<stop offset="0.74" stop-color="#F2C168"/>
<stop offset="0.78" stop-color="#F6D17B"/>
<stop offset="0.81" stop-color="#FCE594"/>
<stop offset="0.83" stop-color="#FFF1A3"/>
<stop offset="0.86" stop-color="#F7E398"/>
<stop offset="0.91" stop-color="#E1BF7C"/>
<stop offset="0.98" stop-color="#BE844F"/>
<stop offset="1" stop-color="#B77946"/>
</linearGradient>
<linearGradient id="paint42_linear_3604_5581" x1="107.159" y1="38.4312" x2="88.1641" y2="38.4312" gradientUnits="userSpaceOnUse">
<stop stop-color="#B77946"/>
<stop offset="0.18" stop-color="#FFF1A3"/>
<stop offset="0.19" stop-color="#F2DC93"/>
<stop offset="0.2" stop-color="#E0BE7B"/>
<stop offset="0.22" stop-color="#D1A468"/>
<stop offset="0.23" stop-color="#C59159"/>
<stop offset="0.25" stop-color="#BD834E"/>
<stop offset="0.27" stop-color="#B87B48"/>
<stop offset="0.31" stop-color="#B77946"/>
<stop offset="0.33" stop-color="#BF8148"/>
<stop offset="0.41" stop-color="#E0A24E"/>
<stop offset="0.46" stop-color="#EDAE50"/>
<stop offset="1" stop-color="#613F1B"/>
</linearGradient>
<linearGradient id="paint43_linear_3604_5581" x1="102.05" y1="46.6444" x2="86.9375" y2="46.6444" gradientUnits="userSpaceOnUse">
<stop stop-color="#B77946"/>
<stop offset="0.18" stop-color="#FFF1A3"/>
<stop offset="0.19" stop-color="#F2DC93"/>
<stop offset="0.2" stop-color="#E0BE7B"/>
<stop offset="0.22" stop-color="#D1A468"/>
<stop offset="0.23" stop-color="#C59159"/>
<stop offset="0.25" stop-color="#BD834E"/>
<stop offset="0.27" stop-color="#B87B48"/>
<stop offset="0.31" stop-color="#B77946"/>
<stop offset="0.33" stop-color="#BF8148"/>
<stop offset="0.41" stop-color="#E0A24E"/>
<stop offset="0.46" stop-color="#EDAE50"/>
<stop offset="1" stop-color="#613F1B"/>
</linearGradient>
<linearGradient id="paint44_linear_3604_5581" x1="96.5215" y1="52.1803" x2="86.1328" y2="52.1803" gradientUnits="userSpaceOnUse">
<stop stop-color="#B77946"/>
<stop offset="0.18" stop-color="#FFF1A3"/>
<stop offset="0.19" stop-color="#F2DC93"/>
<stop offset="0.2" stop-color="#E0BE7B"/>
<stop offset="0.22" stop-color="#D1A468"/>
<stop offset="0.23" stop-color="#C59159"/>
<stop offset="0.25" stop-color="#BD834E"/>
<stop offset="0.27" stop-color="#B87B48"/>
<stop offset="0.31" stop-color="#B77946"/>
<stop offset="0.33" stop-color="#BF8148"/>
<stop offset="0.41" stop-color="#E0A24E"/>
<stop offset="0.46" stop-color="#EDAE50"/>
<stop offset="1" stop-color="#613F1B"/>
</linearGradient>
<radialGradient id="paint45_radial_3604_5581" cx="0" cy="0" r="1" gradientUnits="userSpaceOnUse" gradientTransform="translate(98.7546 32.5511) rotate(180) scale(7.81929 10.3997)">
<stop stop-color="#F3E8DE"/>
<stop offset="0.54" stop-color="#F6EEE7" stop-opacity="0.36"/>
<stop offset="0.57" stop-color="#F6EEE7" stop-opacity="0.33"/>
<stop offset="0.75" stop-color="#F7F0E9" stop-opacity="0.15"/>
<stop offset="0.88" stop-color="#F8F1EB" stop-opacity="0.04"/>
<stop offset="0.96" stop-color="#F8F1EB" stop-opacity="0"/>
</radialGradient>
<radialGradient id="paint46_radial_3604_5581" cx="0" cy="0" r="1" gradientUnits="userSpaceOnUse" gradientTransform="translate(95.4072 41.8267) rotate(180) scale(5.83428 7.7596)">
<stop stop-color="#F3E8DE"/>
<stop offset="0.54" stop-color="#F6EEE7" stop-opacity="0.36"/>
<stop offset="0.57" stop-color="#F6EEE7" stop-opacity="0.33"/>
<stop offset="0.75" stop-color="#F7F0E9" stop-opacity="0.15"/>
<stop offset="0.88" stop-color="#F8F1EB" stop-opacity="0.04"/>
<stop offset="0.96" stop-color="#F8F1EB" stop-opacity="0"/>
</radialGradient>
<radialGradient id="paint47_radial_3604_5581" cx="0" cy="0" r="1" gradientUnits="userSpaceOnUse" gradientTransform="translate(91.8939 49.2417) rotate(-180) scale(3.9024 5.19019)">
<stop stop-color="#F3E8DE"/>
<stop offset="0.54" stop-color="#F6EEE7" stop-opacity="0.36"/>
<stop offset="0.57" stop-color="#F6EEE7" stop-opacity="0.33"/>
<stop offset="0.75" stop-color="#F7F0E9" stop-opacity="0.15"/>
<stop offset="0.88" stop-color="#F8F1EB" stop-opacity="0.04"/>
<stop offset="0.96" stop-color="#F8F1EB" stop-opacity="0"/>
</radialGradient>
<linearGradient id="paint48_linear_3604_5581" x1="67.5" y1="52" x2="67.5" y2="116" gradientUnits="userSpaceOnUse">
<stop stop-color="white" stop-opacity="0.06"/>
<stop offset="0.0001" stop-color="white" stop-opacity="0.06"/>
<stop offset="1" stop-color="white" stop-opacity="0"/>
</linearGradient>
<linearGradient id="paint49_linear_3604_5581" x1="67" y1="65.5" x2="67.5" y2="116" gradientUnits="userSpaceOnUse">
<stop stop-color="#FFE794" stop-opacity="0"/>
<stop offset="1" stop-color="#FFE794"/>
</linearGradient>
</defs>
</svg>
