<svg width="20" height="20" viewBox="0 0 20 20" fill="none" xmlns="http://www.w3.org/2000/svg">
<path d="M3.82077 10.0372L7.82011 13.0098C7.82644 13.0098 7.82644 13.0161 7.83278 13.0161L9.3159 14.1143C9.44266 14.2089 9.62012 14.1206 9.62012 13.9628L9.62646 5.77715C9.61379 5.63199 9.59477 5.48052 9.56308 5.33536C9.53139 5.19652 9.48702 5.06398 9.42364 4.95038C9.53139 5.7519 9.07505 6.68597 8.3018 7.29815C8.13067 7.437 7.89616 7.58847 7.6363 7.69576C7.35742 7.81567 6.51446 8.10599 6.51446 8.10599L3.97288 9.02112C3.53555 9.1789 3.44682 9.75953 3.82077 10.0372Z" fill="#8A92B2"/>
<path d="M7.78958 7.6262C7.79592 7.61989 7.8086 7.61989 7.81493 7.61358C7.82761 7.60727 7.84029 7.60095 7.8593 7.58833C7.87832 7.58202 7.89099 7.5694 7.91001 7.56309C7.91634 7.55678 7.92902 7.55046 7.93536 7.55046C7.95437 7.53784 7.97973 7.52522 7.99874 7.5126C8.00508 7.50629 8.01142 7.50629 8.01775 7.49997C8.03677 7.48735 8.05578 7.47473 8.08114 7.46211C8.09381 7.4558 8.10015 7.44948 8.11283 7.44317C8.1255 7.43055 8.14452 7.42424 8.15719 7.41162C8.17621 7.39899 8.19522 7.38006 8.22057 7.36744C8.22691 7.36744 8.22691 7.36113 8.23325 7.36113C8.2586 7.34219 8.28395 7.32326 8.30931 7.30433C9.08255 6.69214 9.5389 5.75808 9.43115 4.95655C9.38678 4.88082 9.32974 4.81139 9.26636 4.7609L7.94804 3.78897C7.82127 3.69431 7.63747 3.78266 7.63747 3.94044V6.23142C7.63747 7.67038 6.51562 8.10585 6.51562 8.10585C6.51562 8.10585 7.36493 7.82185 7.63747 7.70193C7.68817 7.67669 7.73888 7.65144 7.78958 7.6262Z" fill="#454A75"/>
<path d="M16.0999 9.87951L12.098 6.90692C12.0917 6.90692 12.0917 6.90061 12.0854 6.90061L10.6013 5.80246C10.4745 5.70779 10.2969 5.79615 10.2969 5.95393V14.1396C10.3096 14.2847 10.3286 14.4362 10.3603 14.5814C10.392 14.7202 10.4364 14.8527 10.4998 14.9663C10.392 14.1648 10.8486 13.2308 11.6224 12.6186C11.7936 12.4797 12.0283 12.3283 12.2883 12.221C12.561 12.1011 13.4109 11.817 13.4109 11.817L15.9541 10.9019C16.3917 10.7378 16.4741 10.1572 16.0999 9.87951Z" fill="#8A92B2"/>
<path d="M12.1348 12.2905C12.1285 12.2968 12.1158 12.2968 12.1095 12.3031C12.0968 12.3094 12.0841 12.3157 12.0651 12.3284C12.0461 12.3347 12.0334 12.3473 12.0143 12.3536C12.008 12.3599 11.9953 12.3662 11.989 12.3662C11.9699 12.3789 11.9446 12.3915 11.9256 12.4041C11.9192 12.4104 11.9129 12.4104 11.9065 12.4167C11.8875 12.4294 11.8685 12.442 11.8431 12.4546C11.8304 12.4609 11.8241 12.4672 11.8114 12.4735C11.7987 12.4862 11.7797 12.4925 11.767 12.5051C11.748 12.5177 11.7289 12.5366 11.7036 12.5493C11.6972 12.5493 11.6972 12.5556 11.6909 12.5556C11.6655 12.5745 11.6402 12.5934 11.6148 12.6124C10.841 13.2246 10.3844 14.1586 10.4922 14.9601C10.5366 15.0359 10.5937 15.1053 10.6571 15.1558L11.9699 16.1277C12.0968 16.2224 12.2807 16.134 12.2807 15.9763V13.6853C12.2807 12.2526 13.4033 11.8109 13.4033 11.8109C13.4033 11.8109 12.5534 12.0949 12.2807 12.2148C12.2363 12.24 12.1856 12.2653 12.1348 12.2905Z" fill="#454A75"/>
</svg>
