<svg width="16" height="16" viewBox="0 0 16 16" fill="none" xmlns="http://www.w3.org/2000/svg">
<g id="pickaxe-svgrepo-com 1" clip-path="url(#clip0_1307_8892)">
<path id="Vector" d="M15.999 12.2564C15.999 12.2564 12.9492 8.23584 10.3559 5.64305C7.76267 3.0498 3.74219 0 3.74219 0C3.74219 0 7.9951 0.0102567 11.9922 4.00682C15.9888 8.00341 15.999 12.2564 15.999 12.2564Z" fill="white"/>
<path id="Vector_2" d="M11.9121 2.67383L0.292969 14.293C-0.0976563 14.6836 -0.0976563 15.3164 0.292969 15.7071C0.683594 16.0977 1.31641 16.0977 1.70703 15.7071L13.3262 4.08792L11.9121 2.67383Z" fill="white"/>
<path id="Vector_3" d="M8.8516 5.73783L10.2656 7.15186L13.3295 4.08795L11.9155 2.67393L8.8516 5.73783Z" fill="white"/>
<path id="Vector_4" d="M11.444 5.03099C11.3141 5.16135 11.1027 5.16089 10.9728 5.03099C10.8424 4.90062 10.8424 4.68968 10.9728 4.55931C11.1027 4.42945 11.3141 4.42945 11.444 4.55931C11.5744 4.68968 11.5744 4.90062 11.444 5.03099Z" fill="white"/>
<path id="Vector_5" d="M15.2134 15.5H6.78658L7.82053 13.2943L10.9693 11.2601L14.1804 13.2964L15.2134 15.5Z" fill="white" stroke="white"/>
</g>
<defs>
<clipPath id="clip0_1307_8892">
<rect width="16" height="16" fill="white"/>
</clipPath>
</defs>
</svg>
