<svg width="16" height="16" viewBox="0 0 16 16" fill="white" xmlns="http://www.w3.org/2000/svg">
<g id="calendar-days">
<path id="Icon" d="M2 5.7C1.83431 5.7 1.7 5.83431 1.7 6C1.7 6.16569 1.83431 6.3 2 6.3V5.7ZM14 6.3C14.1657 6.3 14.3 6.16569 14.3 6C14.3 5.83431 14.1657 5.7 14 5.7V6.3ZM2.72801 13.8547L2.86421 13.5874L2.72801 13.8547ZM2.14532 13.272L2.41263 13.1358L2.14532 13.272ZM13.8547 13.272L13.5874 13.1358L13.8547 13.272ZM13.272 13.8547L13.1358 13.5874L13.272 13.8547ZM13.272 3.47866L13.1358 3.74596L13.272 3.47866ZM13.8547 4.06135L13.5874 4.19754L13.8547 4.06135ZM2.72801 3.47866L2.86421 3.74596L2.72801 3.47866ZM2.14532 4.06135L2.41263 4.19754L2.14532 4.06135ZM4.96667 2C4.96667 1.83431 4.83235 1.7 4.66667 1.7C4.50098 1.7 4.36667 1.83431 4.36667 2H4.96667ZM4.36667 3.33333C4.36667 3.49902 4.50098 3.63333 4.66667 3.63333C4.83235 3.63333 4.96667 3.49902 4.96667 3.33333H4.36667ZM11.6333 2C11.6333 1.83431 11.499 1.7 11.3333 1.7C11.1676 1.7 11.0333 1.83431 11.0333 2H11.6333ZM11.0333 3.33333C11.0333 3.49902 11.1676 3.63333 11.3333 3.63333C11.499 3.63333 11.6333 3.49902 11.6333 3.33333H11.0333ZM4 7.7C3.83431 7.7 3.7 7.83431 3.7 8C3.7 8.16569 3.83431 8.3 4 8.3V7.7ZM5.33333 8.3C5.49902 8.3 5.63333 8.16569 5.63333 8C5.63333 7.83431 5.49902 7.7 5.33333 7.7V8.3ZM7.33333 7.7C7.16765 7.7 7.03333 7.83431 7.03333 8C7.03333 8.16569 7.16765 8.3 7.33333 8.3V7.7ZM8.66667 8.3C8.83235 8.3 8.96667 8.16569 8.96667 8C8.96667 7.83431 8.83235 7.7 8.66667 7.7V8.3ZM10.6667 7.7C10.501 7.7 10.3667 7.83431 10.3667 8C10.3667 8.16569 10.501 8.3 10.6667 8.3V7.7ZM12 8.3C12.1657 8.3 12.3 8.16569 12.3 8C12.3 7.83431 12.1657 7.7 12 7.7V8.3ZM4 9.7C3.83431 9.7 3.7 9.83431 3.7 10C3.7 10.1657 3.83431 10.3 4 10.3V9.7ZM5.33333 10.3C5.49902 10.3 5.63333 10.1657 5.63333 10C5.63333 9.83431 5.49902 9.7 5.33333 9.7V10.3ZM7.33333 9.7C7.16765 9.7 7.03333 9.83431 7.03333 10C7.03333 10.1657 7.16765 10.3 7.33333 10.3V9.7ZM8.66667 10.3C8.83235 10.3 8.96667 10.1657 8.96667 10C8.96667 9.83431 8.83235 9.7 8.66667 9.7V10.3ZM10.6667 9.7C10.501 9.7 10.3667 9.83431 10.3667 10C10.3667 10.1657 10.501 10.3 10.6667 10.3V9.7ZM12 10.3C12.1657 10.3 12.3 10.1657 12.3 10C12.3 9.83431 12.1657 9.7 12 9.7V10.3ZM4 11.7C3.83431 11.7 3.7 11.8343 3.7 12C3.7 12.1657 3.83431 12.3 4 12.3V11.7ZM5.33333 12.3C5.49902 12.3 5.63333 12.1657 5.63333 12C5.63333 11.8343 5.49902 11.7 5.33333 11.7V12.3ZM7.33333 11.7C7.16765 11.7 7.03333 11.8343 7.03333 12C7.03333 12.1657 7.16765 12.3 7.33333 12.3V11.7ZM8.66667 12.3C8.83235 12.3 8.96667 12.1657 8.96667 12C8.96667 11.8343 8.83235 11.7 8.66667 11.7V12.3ZM10.6667 11.7C10.501 11.7 10.3667 11.8343 10.3667 12C10.3667 12.1657 10.501 12.3 10.6667 12.3V11.7ZM12 12.3C12.1657 12.3 12.3 12.1657 12.3 12C12.3 11.8343 12.1657 11.7 12 11.7V12.3ZM2 6.3H14V5.7H2V6.3ZM4.13333 3.63333H11.8667V3.03333H4.13333V3.63333ZM13.7 5.46667V11.8667H14.3V5.46667H13.7ZM11.8667 13.7H4.13333V14.3H11.8667V13.7ZM2.3 11.8667V5.46667H1.7V11.8667H2.3ZM4.13333 13.7C3.75501 13.7 3.48932 13.6998 3.28203 13.6828C3.07825 13.6662 2.95748 13.6349 2.86421 13.5874L2.59182 14.122C2.78376 14.2198 2.99228 14.2612 3.23317 14.2808C3.47056 14.3002 3.76492 14.3 4.13333 14.3V13.7ZM1.7 11.8667C1.7 12.2351 1.69977 12.5294 1.71916 12.7668C1.73884 13.0077 1.78022 13.2162 1.87802 13.4082L2.41263 13.1358C2.3651 13.0425 2.33382 12.9218 2.31717 12.718C2.30023 12.5107 2.3 12.245 2.3 11.8667H1.7ZM2.86421 13.5874C2.66978 13.4883 2.5117 13.3302 2.41263 13.1358L1.87802 13.4082C2.03462 13.7155 2.28448 13.9654 2.59182 14.122L2.86421 13.5874ZM13.7 11.8667C13.7 12.245 13.6998 12.5107 13.6828 12.718C13.6662 12.9218 13.6349 13.0425 13.5874 13.1358L14.122 13.4082C14.2198 13.2162 14.2612 13.0077 14.2808 12.7668C14.3002 12.5294 14.3 12.2351 14.3 11.8667H13.7ZM11.8667 14.3C12.2351 14.3 12.5294 14.3002 12.7668 14.2808C13.0077 14.2612 13.2162 14.2198 13.4082 14.122L13.1358 13.5874C13.0425 13.6349 12.9218 13.6662 12.718 13.6828C12.5107 13.6998 12.245 13.7 11.8667 13.7V14.3ZM13.5874 13.1358C13.4883 13.3302 13.3302 13.4883 13.1358 13.5874L13.4082 14.122C13.7155 13.9654 13.9654 13.7155 14.122 13.4082L13.5874 13.1358ZM11.8667 3.63333C12.245 3.63333 12.5107 3.63357 12.718 3.6505C12.9218 3.66715 13.0425 3.69844 13.1358 3.74596L13.4082 3.21136C13.2162 3.11355 13.0077 3.07218 12.7668 3.0525C12.5294 3.0331 12.2351 3.03333 11.8667 3.03333V3.63333ZM14.3 5.46667C14.3 5.09825 14.3002 4.80389 14.2808 4.56651C14.2612 4.32562 14.2198 4.1171 14.122 3.92515L13.5874 4.19754C13.6349 4.29081 13.6662 4.41158 13.6828 4.61537C13.6998 4.82265 13.7 5.08835 13.7 5.46667H14.3ZM13.1358 3.74596C13.3302 3.84503 13.4883 4.00311 13.5874 4.19754L14.122 3.92515C13.9654 3.61782 13.7155 3.36795 13.4082 3.21136L13.1358 3.74596ZM4.13333 3.03333C3.76492 3.03333 3.47056 3.0331 3.23317 3.0525C2.99228 3.07218 2.78376 3.11355 2.59182 3.21136L2.86421 3.74596C2.95748 3.69844 3.07825 3.66715 3.28203 3.6505C3.48932 3.63357 3.75501 3.63333 4.13333 3.63333V3.03333ZM2.3 5.46667C2.3 5.08835 2.30023 4.82265 2.31717 4.61537C2.33382 4.41158 2.3651 4.29081 2.41263 4.19754L1.87802 3.92515C1.78022 4.1171 1.73884 4.32562 1.71916 4.56651C1.69977 4.80389 1.7 5.09825 1.7 5.46667H2.3ZM2.59182 3.21136C2.28448 3.36795 2.03462 3.61782 1.87802 3.92515L2.41263 4.19754C2.5117 4.00311 2.66978 3.84503 2.86421 3.74596L2.59182 3.21136ZM4.36667 2V3.33333H4.96667V2H4.36667ZM11.0333 2V3.33333H11.6333V2H11.0333ZM4 8.3H5.33333V7.7H4V8.3ZM7.33333 8.3H8.66667V7.7H7.33333V8.3ZM10.6667 8.3H12V7.7H10.6667V8.3ZM4 10.3H5.33333V9.7H4V10.3ZM7.33333 10.3H8.66667V9.7H7.33333V10.3ZM10.6667 10.3H12V9.7H10.6667V10.3ZM4 12.3H5.33333V11.7H4V12.3ZM7.33333 12.3H8.66667V11.7H7.33333V12.3ZM10.6667 12.3H12V11.7H10.6667V12.3Z" fill="white"/>
</g>
</svg>
