<svg width="24" height="24" viewBox="0 0 24 24" fill="none" xmlns="http://www.w3.org/2000/svg">
<g id="wolf-svgrepo-com (2)">
<path id="Vector" d="M9.90626 6.33156C10.2229 7.88222 9.78493 9.15556 7.95893 9.42356C6.1316 9.69222 3.49226 12.0222 2.06026 8.22489C1.23026 6.02556 0.728931 1.48956 1.75293 1.33956C2.7776 1.18889 9.59026 4.78089 9.90626 6.33156Z" fill="#66757F"/>
<path id="Vector_2" d="M8.5224 6.56757C9.09906 7.49557 7.0524 9.12291 5.95973 9.61291C4.86706 10.1036 4.0164 9.17291 3.17773 6.87957C2.81107 5.87757 2.35506 3.19157 2.75506 3.01157C3.1544 2.83291 7.94507 5.63957 8.5224 6.56757Z" fill="#CCD6DD"/>
<path id="Vector_3" d="M14.2473 6.33121C13.942 7.88187 14.3646 9.15521 16.126 9.42321C17.8886 9.69188 20.4353 12.0219 21.8166 8.22454C22.6173 6.02454 23.1013 1.48921 22.1133 1.33854C21.1246 1.18854 14.552 4.78054 14.2473 6.33121Z" fill="#66757F"/>
<path id="Vector_4" d="M15.5814 6.56757C15.0247 7.49557 16.9994 9.12291 18.0534 9.61291C19.1074 10.1036 19.9281 9.17291 20.7374 6.87957C21.0914 5.87757 21.5307 3.19157 21.1447 3.01157C20.7601 2.83291 16.1387 5.63957 15.5814 6.56757Z" fill="#CCD6DD"/>
<path id="Vector_5" d="M21.5643 17.9412C21.5643 17.6385 21.4389 17.2139 21.2929 16.8165C21.6829 16.8352 22.3056 16.9439 23.1396 17.3612C23.1348 17.0433 23.0731 16.7288 22.9576 16.4325C22.9849 16.4459 23.0076 16.4552 23.0349 16.4692C22.2989 14.2625 20.8289 12.7912 20.8289 12.7912H22.2996C20.7456 9.68255 18.9896 7.44788 16.9163 6.41855C15.9896 5.83655 14.4576 5.52655 12.0009 5.52588H11.9989C9.53494 5.52588 8.00161 5.83788 7.07561 6.42321C5.00628 7.45455 3.25294 9.68721 1.70161 12.7912H3.17294C3.17294 12.7912 1.70161 14.2619 0.965611 16.4692L1.02161 16.4432C0.87854 16.7271 0.81365 17.0439 0.833611 17.3612C1.67561 16.9399 2.31161 16.8332 2.70894 16.8159C2.58294 17.1579 2.48028 17.5119 2.45161 17.7992C2.35719 18.0876 2.32648 18.3931 2.36161 18.6945C4.49961 17.7225 5.49961 17.8612 6.66628 18.4445C7.47494 20.8599 9.47028 22.6665 12.0003 22.6665C14.5289 22.6665 16.4976 20.8039 17.3056 18.3892C18.2776 17.5559 19.7776 17.8059 21.5829 18.6665C21.6222 18.4244 21.614 18.1769 21.5589 17.9379L21.5643 17.9412Z" fill="#66757F"/>
<path id="Vector_6" d="M23.0348 16.4692C22.7435 15.5938 20.5915 14.4018 18.3862 13.4605C18.5595 13.0178 18.6662 12.5265 18.6662 11.9998C18.6662 10.1592 17.4722 8.6665 15.9995 8.6665C14.5268 8.6665 13.3328 10.1592 13.3328 11.9998C13.3328 13.9998 15.9995 18.6665 11.9988 19.4118C8.58218 18.7752 10.0295 15.2778 10.5242 13.0252C10.5722 12.8412 10.6075 12.6525 10.6295 12.4565C10.6522 12.2932 10.6662 12.1392 10.6662 11.9998C10.6662 10.1592 9.47218 8.6665 7.99951 8.6665C6.52684 8.6665 5.33284 10.1592 5.33284 11.9998C5.33284 12.5265 5.43951 13.0178 5.61351 13.4605C3.40818 14.4018 1.25684 15.5938 0.964844 16.4692C2.43618 15.7332 3.17218 15.7332 3.17218 15.7332C3.17218 15.7332 2.43618 17.2052 2.43618 17.9412C4.21618 16.7545 5.99551 16.5265 7.38884 17.6398C8.19751 20.0552 9.33284 21.9998 12.0002 20.0825C14.6662 21.9998 15.8002 20.0558 16.6082 17.6412C18.0028 16.5258 19.7835 16.7545 21.5642 17.9412C21.5642 17.2052 20.8288 15.7332 20.8288 15.7332C20.8288 15.7332 21.5642 15.7338 23.0348 16.4692Z" fill="#CCD6DD"/>
<path id="Vector_7" d="M7.33398 11.3335C7.33398 11.3335 7.33398 10.3335 8.33398 10.3335C9.33398 10.3335 9.33398 11.3335 9.33398 11.3335V12.3335C9.33398 12.3335 9.33398 13.3335 8.33398 13.3335C7.33398 13.3335 7.33398 12.3335 7.33398 12.3335V11.3335ZM14.6673 11.3335C14.6673 11.3335 14.6673 10.3335 15.6673 10.3335C16.6673 10.3335 16.6673 11.3335 16.6673 11.3335V12.3335C16.6673 12.3335 16.6673 13.3335 15.6673 13.3335C14.6673 13.3335 14.6673 12.3335 14.6673 12.3335V11.3335ZM9.95998 17.4375C9.27932 17.5762 11.3207 20.0828 12.0013 20.0828C12.6813 20.0828 14.7226 17.5762 14.0426 17.4375C13.3626 17.2988 10.6407 17.2988 9.95998 17.4375Z" fill="#292F33"/>
</g>
</svg>
