<svg width="240" height="42" viewBox="0 0 240 42" fill="none" xmlns="http://www.w3.org/2000/svg">
<g id="bnb-chain-full-binance-smart-chain-logo (2) 1" clip-path="url(#clip0_1198_516)">
<g id="Layer_x0020_1">
<g id="_2085448168176">
<path id="Vector" d="M7.00319 6.47699L18.1968 0L29.3904 6.47699L25.1904 8.75399L18.1968 4.7262L11.0214 8.75399L7.00319 6.47699ZM29.2182 14.523L25.1904 12.246L18.1968 16.2738L11.0214 12.246L6.99362 14.523V19.2492L13.9968 23.277V31.5048L18.0246 33.954L22.0524 31.5048V23.4588L29.0556 19.431V14.5326H29.2182V14.523ZM29.2182 27.477V22.7508L25.1904 25.2V29.7444L29.2182 27.477ZM32.1936 29.046L25.2 33.0738V37.8L36.4032 31.323V18.3786L32.2032 21L32.1936 29.046ZM28.1658 10.5048L32.1936 12.954V17.6802L36.2214 15.231V10.5048L32.1936 8.05558L28.1658 10.5048ZM13.9968 34.8246V39.5508L18.0246 42L22.0524 39.5508V34.8246L18.0246 37.2738L13.9968 34.8246ZM6.99362 27.477L11.0214 29.754V25.0278L6.99362 22.5786V27.477ZM13.9968 10.5048L18.0246 12.954L22.2246 10.5048L18.1968 8.05558L13.9968 10.5048ZM4.02779 12.954L8.22779 10.5048L4.02779 8.05558L0 10.5048V15.231L4.02779 17.6802V12.954ZM4.02779 21L0 18.5508V31.4952L11.2032 37.9722V33.246L4.2 29.2182V20.9904L4.02779 21Z" fill="#F0B90B"/>
<path id="Vector_2" d="M68.5879 26.4246C68.5879 23.277 66.8371 21.6984 64.2157 20.646C65.9665 19.7754 67.3633 18.1968 67.3633 15.5754C67.3633 11.9016 64.3879 9.45239 59.6617 9.45239H48.8125V32.9016H60.0061C65.0863 32.7198 68.5879 30.6246 68.5879 26.4246ZM62.1109 16.446C62.1109 18.1968 60.7141 18.8952 58.4371 18.8952H53.7109V13.8246H58.7815C61.0681 13.8246 62.1109 14.7048 62.1109 16.446ZM63.5173 25.7262C63.5173 27.477 62.1205 28.3476 59.8435 28.3476H53.7205V23.277H59.6713C62.2927 23.0952 63.5173 24.1476 63.5173 25.7262Z" fill="#F0B90B"/>
<path id="Vector_3" d="M93.9588 32.7198V9.45239H88.8787V23.8032L77.8573 9.45239H73.1406V32.9016H78.2112V18.0246L89.5866 32.9016H93.9588V32.7198Z" fill="#F0B90B"/>
<path id="Vector_4" d="M119.678 26.4246C119.678 23.277 117.927 21.6984 115.306 20.646C117.056 19.7754 118.453 18.1968 118.453 15.5754C118.453 11.9016 115.478 9.45239 110.752 9.45239H99.9023V32.9016H111.096C116.176 32.7198 119.678 30.6246 119.678 26.4246ZM113.383 16.446C113.383 18.1968 111.986 18.8952 109.709 18.8952H104.983V13.8246H110.053C112.158 13.8246 113.383 14.7048 113.383 16.446ZM114.607 25.7262C114.607 27.477 113.21 28.3476 110.933 28.3476H104.81V23.277H110.761C113.383 23.0952 114.607 24.1476 114.607 25.7262Z" fill="#F0B90B"/>
<path id="Vector_5" d="M150.645 28.7016L148.024 26.0802C146.101 28.0032 144.178 29.0556 141.375 29.0556C136.821 29.0556 133.673 25.3818 133.673 20.6556C133.673 16.1016 137.002 12.4374 141.375 12.4374C143.996 12.4374 146.101 13.662 147.852 15.4128L150.473 12.2652C148.196 10.17 145.575 8.59137 141.375 8.59137C134.371 8.59137 129.301 14.016 129.301 20.6652C129.301 27.4866 134.371 32.739 141.202 32.739C145.575 32.7198 148.196 31.1508 150.645 28.7016Z" fill="#F0B90B"/>
<path id="Vector_6" d="M170.592 22.5786V32.3754H174.62V8.92621H170.592V18.723H159.399V8.92621H155.371V32.3754H159.399V22.5786H170.592Z" fill="#F0B90B"/>
<path id="Vector_7" d="M193.161 8.92621H189.315L178.992 32.5476H183.192L185.641 26.9508H196.663L199.112 32.5476H203.484L193.161 8.92621ZM195.266 23.0952H187.22L191.248 13.8246L195.266 23.0952Z" fill="#F0B90B"/>
<path id="Vector_8" d="M208.039 8.92621V32.3754H212.057V8.92621H208.039Z" fill="#F0B90B"/>
<path id="Vector_9" d="M234.981 25.2L222.381 9.09842H218.707V32.5476H222.735V15.7476L235.679 32.3754H239.181V8.92621H235.153V25.2H234.981Z" fill="#F0B90B"/>
</g>
</g>
</g>
<defs>
<clipPath id="clip0_1198_516">
<rect width="239.18" height="42" fill="white"/>
</clipPath>
</defs>
</svg>
