<svg width="245" height="54" viewBox="0 0 245 54" fill="none" xmlns="http://www.w3.org/2000/svg">
<g id="full-conflux-logo 1" clip-path="url(#clip0_1198_658)">
<g id="Layer_x0020_1">
<g id="_2987019293328">
<g id="Group">
<path id="Vector" fill-rule="evenodd" clip-rule="evenodd" d="M0 31.9688L21.453 10.4178L43.102 32.155V21.796L21.649 0.00982666L0.0196007 21.8646L0 31.9688Z" fill="white"/>
<path id="Vector_2" fill-rule="evenodd" clip-rule="evenodd" d="M4.96875 37.31L21.3648 53.9902L37.947 37.31L32.89 32.155L21.453 43.6803L15.2689 37.31L26.608 25.6868L21.5314 20.6494L4.96875 37.31Z" fill="white"/>
</g>
<g id="Group_2">
<path id="Vector_3" d="M73.1903 42.8276C71.3968 42.8276 69.7994 42.6218 68.3979 42.2004C66.9965 41.779 65.8204 41.0048 64.8698 39.8875C63.9192 38.7703 63.1939 37.1728 62.6843 35.0951C62.1845 32.9979 61.9297 30.2734 61.9297 26.9412C61.9297 23.7169 62.1845 21.0806 62.6843 19.0421C63.2135 16.9939 63.9682 15.3964 64.9482 14.2498C65.9282 13.1031 67.1141 12.2995 68.5155 11.8585C69.917 11.4077 71.4948 11.1823 73.2589 11.1823C75.3268 11.1823 77.2085 11.3489 78.8843 11.6821C80.5896 11.9859 81.9518 12.3093 82.9613 12.6523V17.4839C82.2066 17.3173 81.06 17.1605 79.5213 17.0233C78.0121 16.8567 76.3558 16.7685 74.5624 16.7685C73.3863 16.7685 72.3769 16.9057 71.5438 17.1899C70.7304 17.4447 70.0738 17.9347 69.574 18.6599C69.0938 19.3656 68.7311 20.3848 68.4861 21.7274C68.2607 23.0701 68.1529 24.8244 68.1529 26.9804C68.1529 29.7833 68.3391 31.9296 68.7017 33.4095C69.0643 34.8697 69.7112 35.8792 70.6324 36.4378C71.5536 36.967 72.8767 37.2316 74.582 37.2316C76.6792 37.2316 78.4041 37.1924 79.7467 37.1042C81.0894 37.016 82.1674 36.918 82.9809 36.8102V41.6026C81.8342 41.9946 80.4426 42.3082 78.8255 42.5238C77.2182 42.7296 75.3464 42.8276 73.1903 42.8276Z" fill="white"/>
<path id="Vector_4" d="M98.936 42.8276C96.8093 42.8276 94.9472 42.6316 93.3498 42.2396C91.7523 41.8182 90.4293 41.0635 89.361 39.9659C88.3026 38.8486 87.4892 37.2512 86.9305 35.1735C86.4013 33.0958 86.1367 30.3909 86.1367 27.0588C86.1367 23.7267 86.4013 21.0218 86.9305 18.9441C87.4892 16.8468 88.3026 15.2298 89.361 14.1125C90.4489 12.9953 91.7817 12.2211 93.3498 11.7996C94.9472 11.3782 96.8093 11.1724 98.936 11.1724C101.063 11.1724 102.925 11.3782 104.522 11.7996C106.12 12.2211 107.443 12.9953 108.511 14.1125C109.569 15.2298 110.373 16.8468 110.902 18.9441C111.431 21.0218 111.696 23.7267 111.696 27.0588C111.696 30.3909 111.431 33.0958 110.902 35.1735C110.373 37.2512 109.569 38.8486 108.511 39.9659C107.443 41.0537 106.1 41.8182 104.483 42.2396C102.886 42.6316 101.033 42.8276 98.936 42.8276ZM98.936 37.2414C100.171 37.2414 101.2 37.114 102.043 36.8592C102.915 36.575 103.581 36.0751 104.062 35.3499C104.561 34.6247 104.934 33.5957 105.149 32.2824C105.375 30.9398 105.483 29.1953 105.483 27.0686C105.483 24.8537 105.375 23.0701 105.149 21.7274C104.924 20.3554 104.561 19.3165 104.062 18.6207C103.562 17.8955 102.886 17.4055 102.043 17.1506C101.2 16.8958 100.171 16.7684 98.936 16.7684C97.7011 16.7684 96.6721 16.8958 95.8293 17.1506C95.0158 17.4055 94.3494 17.8955 93.8104 18.6207C93.3106 19.3165 92.9284 20.3554 92.6736 21.7274C92.4481 23.0701 92.3403 24.8537 92.3403 27.0686C92.3403 29.1953 92.4384 30.9398 92.6344 32.2824C92.8598 33.5957 93.2224 34.6247 93.7222 35.3499C94.222 36.0751 94.8982 36.5848 95.7411 36.8592C96.5839 37.114 97.6423 37.2414 98.936 37.2414Z" fill="white"/>
<path id="Vector_5" d="M116.5 42.5728V11.4664H121.498L134.513 31.9786V11.4664H140.727V42.5728H135.728L122.753 22.0606V42.5728H116.5Z" fill="white"/>
<path id="Vector_6" d="M145.852 42.5728V18.5717C145.852 16.7194 146.214 15.2788 146.939 14.2399C147.665 13.2011 148.576 12.4857 149.674 12.0937C150.762 11.6722 151.859 11.4664 152.947 11.4664C153.956 11.4664 155.201 11.4762 156.681 11.5056C158.19 11.535 159.788 11.584 161.464 11.6722C163.169 11.731 164.805 11.8388 166.374 12.0055V17.2192H154.662C153.79 17.2192 153.133 17.4545 152.692 17.9347C152.271 18.3855 152.065 18.9735 152.065 19.6987V25.0399L164.364 25.3731V30.2929L152.065 30.6261V42.563L145.852 42.5728Z" fill="white"/>
<path id="Vector_7" d="M177.682 42.5728C175.242 42.5728 173.409 42.0142 172.184 40.8871C170.949 39.7699 170.332 37.8686 170.332 35.2127V11.4664H176.545V34.2131C176.545 35.2519 176.8 35.9673 177.3 36.3594C177.829 36.7514 178.506 36.9474 179.319 36.9474H189.149V42.5826H177.682V42.5728Z" fill="white"/>
<path id="Vector_8" d="M203.906 42.7884C202.172 42.7884 200.564 42.6512 199.075 42.367C197.614 42.0632 196.331 41.5437 195.213 40.8087C194.126 40.0541 193.273 39.0153 192.655 37.702C192.067 36.3594 191.773 34.6443 191.773 32.5764V11.4664H197.987V32.5274C197.987 34.2425 198.506 35.4381 199.545 36.1437C200.584 36.8396 202.034 37.1924 203.916 37.1924C205.768 37.1924 207.209 36.8396 208.238 36.1437C209.277 35.4381 209.796 34.2425 209.796 32.5274V11.4664H216.049V32.5666C216.049 34.6443 215.745 36.3496 215.128 37.6922C214.51 39.0054 213.658 40.0443 212.57 40.7989C211.482 41.5241 210.188 42.0436 208.708 42.3572C207.209 42.6512 205.612 42.7884 203.906 42.7884Z" fill="white"/>
<path id="Vector_9" d="M218.725 42.5728L228.251 26.9804L218.598 11.4664H225.487L232.122 22.0998L238.169 11.4664H245.01L235.346 27.3136L244.882 42.5728H237.993L231.534 32.1942L225.605 42.5728H218.725Z" fill="white"/>
</g>
</g>
</g>
</g>
<defs>
<clipPath id="clip0_1198_658">
<rect width="245.009" height="54" fill="white"/>
</clipPath>
</defs>
</svg>
