<svg width="204" height="64" viewBox="0 0 204 64" fill="none" xmlns="http://www.w3.org/2000/svg">
<g id="Cookie3_Logo_Light 1">
<path id="Vector" fill-rule="evenodd" clip-rule="evenodd" d="M47.9352 11.75V14.704C47.9352 15.362 47.3993 15.898 46.7393 15.898H43.7852C43.1272 15.898 42.5912 15.364 42.5912 14.704V11.75C42.5912 11.09 43.1252 10.556 43.7852 10.556H46.7393C47.3993 10.556 47.9352 11.09 47.9352 11.75ZM154.221 22.132C154.221 20.618 153.101 19.498 151.587 19.498C150.073 19.498 148.953 20.652 148.953 22.132C148.953 23.612 150.073 24.766 151.587 24.766C153.101 24.766 154.221 23.646 154.221 22.132ZM153.393 27.84H149.783V46.44H153.393V27.84ZM132.157 19.718H135.765V34.164H138.725L143.563 27.846H147.861L141.647 36.044L148.041 46.446H143.817L138.329 37.634H135.765V46.446H132.157V19.718ZM63.9692 33.798V33.7966L63.9732 33.794C63.9732 41.052 69.1713 46.76 76.6853 46.76C82.2093 46.76 86.3293 43.726 88.1333 39.282L84.8093 37.512C83.5453 40.766 80.6213 43.076 76.6813 43.076C71.3372 43.076 67.8333 38.922 67.8333 33.794C67.8333 28.666 71.2973 24.512 76.6813 24.512C80.5093 24.512 83.3633 26.68 84.6633 29.75L88.0232 27.946C86.1093 23.686 82.0653 20.832 76.6813 20.832C69.1677 20.832 63.9699 26.5034 63.9692 33.7966L63.9673 33.798H63.9692ZM89.2193 37.158C89.2193 31.594 93.3372 27.516 99.0073 27.516C104.677 27.516 108.795 31.594 108.795 37.158C108.795 42.722 104.717 46.766 99.0073 46.766C93.2972 46.766 89.2193 42.722 89.2193 37.158ZM99.0052 43.446C102.475 43.446 105.143 40.846 105.143 37.162C105.143 33.478 102.469 30.878 99.0052 30.878C95.5413 30.878 92.8672 33.478 92.8672 37.162C92.8672 40.846 95.5772 43.446 99.0052 43.446ZM119.661 27.516C113.991 27.516 109.873 31.594 109.873 37.158C109.873 42.722 113.951 46.766 119.661 46.766C125.371 46.766 129.449 42.722 129.449 37.158C129.449 31.594 125.331 27.516 119.661 27.516ZM125.799 37.162C125.799 40.846 123.131 43.446 119.661 43.446C116.233 43.446 113.523 40.846 113.523 37.162C113.523 33.478 116.197 30.878 119.661 30.878C123.125 30.878 125.799 33.478 125.799 37.162ZM156.027 37.158C156.027 31.67 159.781 27.516 165.419 27.516C171.057 27.516 174.301 31.814 174.301 36.724V38.424H159.675C160.145 41.964 162.529 43.518 165.453 43.518C168.377 43.518 170.327 41.714 170.907 40.088L173.687 41.568C172.893 43.628 170.363 46.766 165.455 46.766C159.747 46.766 156.027 42.578 156.027 37.158ZM170.547 35.388C170.511 33.078 168.563 30.694 165.383 30.694C162.639 30.694 160.399 32.318 159.785 35.388H170.547ZM184.705 34.884C187.849 34.884 189.653 36.688 189.653 39.182L189.655 39.18H189.661C189.661 41.6 188.037 43.404 184.643 43.404C181.463 43.404 179.695 41.31 179.369 38.926L176.299 40.37C176.767 43.37 179.617 46.764 184.711 46.764C190.413 46.764 193.413 43.294 193.413 39.14C193.413 36.286 192.043 34.192 189.659 33.002C190.995 32.276 192.619 30.652 192.619 27.728C192.619 23.974 189.515 20.83 184.601 20.83C179.687 20.83 177.157 23.94 176.617 27.224L179.687 28.634C179.937 26.25 181.491 24.19 184.561 24.19C187.449 24.19 188.859 26.14 188.859 27.84C188.859 30.156 187.269 31.67 184.705 31.67H182.755V34.884H184.705ZM53.2812 25.394V22.44C53.2812 21.78 52.7453 21.246 52.0853 21.246H49.1313C48.4713 21.246 47.9373 21.78 47.9373 22.44V25.394C47.9373 26.054 48.4713 26.588 49.1313 26.588H52.0853C52.7453 26.588 53.2812 26.052 53.2812 25.394ZM43.7412 22.854V19.9C43.7412 19.24 43.2052 18.706 42.5472 18.706H39.5933C38.9333 18.706 38.3993 19.24 38.3993 19.9V22.854C38.3993 23.514 38.9333 24.048 39.5933 24.048H42.5472C43.2072 24.048 43.7412 23.514 43.7412 22.854ZM38.4412 31.936H42.5912V31.932H46.7433C47.4053 31.932 47.9393 32.466 47.9393 33.126V41.426C47.9393 42.088 47.4033 42.622 46.7433 42.622H43.7893C43.1273 42.622 42.5933 43.156 42.5933 43.816V46.77C42.5933 47.43 42.0592 47.964 41.3993 47.964H38.4453C37.7833 47.964 37.2493 48.498 37.2493 49.158V52.112C37.2493 52.774 36.7153 53.308 36.0553 53.308H22.4093C21.7493 53.308 21.2153 52.772 21.2153 52.112V49.158C21.2153 48.498 20.6812 47.964 20.0212 47.964H17.0673C16.4072 47.964 15.8733 47.43 15.8733 46.77V43.816C15.8733 43.156 15.3392 42.622 14.6792 42.622H11.7252C11.0652 42.622 10.5312 42.086 10.5312 41.426V27.78C10.5312 27.12 11.0652 26.586 11.7252 26.586H14.6792C15.3392 26.586 15.8733 26.052 15.8733 25.392V22.44C15.8733 21.78 16.4072 21.246 17.0673 21.246H20.0212C20.6812 21.246 21.2153 20.712 21.2153 20.052V17.1C21.2153 16.44 21.7493 15.906 22.4093 15.906H30.7092C31.3692 15.906 31.9032 16.44 31.9032 17.1V25.4C31.9032 26.06 32.4372 26.594 33.0972 26.594H36.0513C36.7132 26.594 37.2472 27.128 37.2472 27.788V30.742C37.2472 31.402 37.7812 31.936 38.4412 31.936ZM37.2472 43.824C37.2472 43.162 37.7812 42.628 38.4412 42.628L41.3912 42.624C42.0512 42.624 42.5852 42.09 42.5852 41.43V38.474C42.5852 37.814 42.0512 37.28 41.3912 37.28H38.4373C37.7793 37.28 37.2432 36.746 37.2432 36.086V33.132C37.2432 32.472 36.7072 31.936 36.0472 31.936H33.0933C32.4353 31.936 31.8993 31.402 31.8993 30.742V27.788C31.8993 27.13 31.3653 26.594 30.7053 26.594H27.7512C27.0912 26.594 26.5572 26.06 26.5572 25.4V22.446C26.5572 21.786 26.0232 21.252 25.3632 21.252H22.4093C21.7493 21.252 21.2153 21.786 21.2153 22.446V25.4C21.2153 26.06 20.6812 26.594 20.0212 26.594H17.0673C16.4072 26.594 15.8733 27.128 15.8733 27.788V41.434C15.8733 42.094 16.4072 42.628 17.0673 42.628H20.0212C20.6792 42.628 21.2153 43.162 21.2153 43.822V46.776C21.2153 47.436 21.7493 47.97 22.4093 47.97H36.0532C36.7132 47.97 37.2472 47.436 37.2472 46.776V43.824Z" fill="white"/>
</g>
</svg>
