<svg width="192" height="62" viewBox="0 0 192 62" fill="none" xmlns="http://www.w3.org/2000/svg">
<g id="Logo_brand orange_for light bg_transparent (1) 1">
<path id="Vector" fill-rule="evenodd" clip-rule="evenodd" d="M31.1646 8.22597L11.6051 19.5306V42.1396L31.1646 53.4441L50.724 42.1396V19.5306L31.1646 8.22597ZM31.9861 2.52881C31.4777 2.23502 30.8515 2.23502 30.3431 2.52881L7.08708 15.9698C6.57876 16.2636 6.26562 16.8065 6.26562 17.3941V44.276C6.26562 44.8636 6.57876 45.4066 7.08708 45.7003L30.3431 59.1413C30.8515 59.4352 31.4777 59.4352 31.9861 59.1413L55.2421 45.7003C55.7504 45.4066 56.0635 44.8636 56.0635 44.276V17.3941C56.0635 16.8065 55.7504 16.2636 55.2421 15.9698L31.9861 2.52881Z" fill="#FF9211"/>
<path id="Vector_2" d="M31.1659 16.4151L18.6909 23.6251V38.0451L31.0838 45.2076C31.1346 45.2371 31.1659 45.2913 31.1659 45.3501V47.8189C31.1659 47.9455 31.0291 48.0247 30.9195 47.9614L16.8427 39.8256C16.4614 39.6051 16.2266 39.198 16.2266 38.7573V22.9129C16.2266 22.4722 16.4614 22.065 16.8427 21.8448L30.5498 13.9226C30.9311 13.7022 31.4008 13.7022 31.7821 13.9226L45.9151 22.0613C46.0238 22.1239 46.0247 22.2805 45.917 22.3445C45.0829 22.8397 44.6558 23.06 43.7227 23.5795C43.6721 23.6078 43.6103 23.6074 43.5602 23.5785L31.1659 16.4151Z" fill="#FF9211"/>
<path id="Vector_3" d="M33.2188 31.1395C33.2188 31.0787 33.2522 31.0228 33.3059 30.9943L45.7099 24.3852C45.8193 24.3269 45.9512 24.4063 45.9512 24.5305V40.6082C45.9512 40.6669 45.9201 40.721 45.8696 40.7504L33.4655 47.9603C33.3561 48.024 33.2188 47.9448 33.2188 47.8181V31.1395Z" fill="#FF9211"/>
<path id="Vector_4" d="M80.5527 45.2084C77.7135 45.2084 75.2934 44.7147 73.2925 43.7275C71.3186 42.7135 69.8044 41.1527 68.7497 39.0447C67.6953 36.9368 67.168 34.2552 67.168 31C67.168 26.1972 68.3443 22.6351 70.6967 20.3137C73.0763 17.9658 76.3751 16.7916 80.5933 16.7916C82.9188 16.7916 85.0007 17.1785 86.8395 17.9524C88.7052 18.7262 90.1653 19.8868 91.2199 21.4343C92.3015 22.9554 92.8423 24.9031 92.8423 27.2778H88.2185C88.2185 25.8103 87.9076 24.5829 87.2856 23.5957C86.6637 22.6085 85.7714 21.8614 84.6087 21.3544C83.473 20.8474 82.1481 20.5939 80.6339 20.5939C78.741 20.5939 77.1321 20.9675 75.8072 21.7146C74.5092 22.435 73.5223 23.529 72.8464 24.9966C72.1974 26.4639 71.8728 28.3318 71.8728 30.5998V31.4802C71.8728 33.7483 72.1974 35.6161 72.8464 37.0836C73.5223 38.5512 74.5092 39.6451 75.8072 40.3654C77.1052 41.0592 78.7141 41.4061 80.6339 41.4061C82.2022 41.4061 83.5676 41.166 84.7304 40.6857C85.8931 40.1787 86.7854 39.4316 87.4072 38.4444C88.0562 37.4572 88.3808 36.2297 88.3808 34.7622H92.8423C92.8423 37.1369 92.3015 39.0982 91.2199 40.6457C90.1653 42.1932 88.7052 43.3405 86.8395 44.0878C85.0007 44.8349 82.9051 45.2084 80.5527 45.2084Z" fill="white"/>
<path id="Vector_5" d="M110.507 45.2084C107.641 45.2084 105.153 44.6881 103.044 43.6474C100.962 42.6069 99.3534 41.0326 98.2177 38.9247C97.109 36.8167 96.5547 34.1752 96.5547 31C96.5547 27.7982 97.109 25.1565 98.2177 23.0753C99.3534 20.9675 100.962 19.3931 103.044 18.3526C105.153 17.312 107.641 16.7916 110.507 16.7916C113.428 16.7916 115.929 17.312 118.011 18.3526C120.093 19.3931 121.688 20.9675 122.797 23.0753C123.933 25.1565 124.5 27.7982 124.5 31C124.5 34.1752 123.933 36.8167 122.797 38.9247C121.688 41.0326 120.093 42.6069 118.011 43.6474C115.929 44.6881 113.428 45.2084 110.507 45.2084ZM110.507 41.4061C111.995 41.4061 113.306 41.206 114.442 40.8058C115.604 40.4056 116.578 39.7918 117.362 38.9647C118.173 38.1375 118.782 37.097 119.187 35.8428C119.62 34.5887 119.836 33.1345 119.836 31.4802V30.5998C119.836 28.8922 119.62 27.4113 119.187 26.1572C118.782 24.9031 118.173 23.8624 117.362 23.0353C116.578 22.2081 115.604 21.5945 114.442 21.1942C113.306 20.794 111.995 20.5939 110.507 20.5939C109.047 20.5939 107.736 20.794 106.573 21.1942C105.437 21.5945 104.464 22.2081 103.653 23.0353C102.868 23.8624 102.274 24.9031 101.868 26.1572C101.462 27.4113 101.26 28.8922 101.26 30.5998V31.4802C101.26 33.1345 101.462 34.5887 101.868 35.8428C102.274 37.097 102.868 38.1375 103.653 38.9647C104.464 39.7918 105.437 40.4056 106.573 40.8058C107.736 41.206 109.047 41.4061 110.507 41.4061Z" fill="white"/>
<path id="Vector_6" d="M129.742 44.7281V17.272H144.384C146.358 17.272 147.994 17.6189 149.292 18.3125C150.59 19.0063 151.563 19.9801 152.212 21.2342C152.861 22.4617 153.186 23.9026 153.186 25.5569C153.186 27.3978 152.767 28.9988 151.928 30.3596C151.09 31.7205 149.9 32.721 148.359 33.3614L154.159 44.7281H149.211L143.938 34.1219H134.285V44.7281H129.742ZM134.285 30.3596H144.019C145.48 30.3596 146.602 29.9327 147.386 29.0789C148.197 28.2251 148.603 27.0378 148.603 25.5167C148.603 24.5829 148.427 23.7958 148.075 23.1555C147.724 22.4883 147.21 21.9813 146.534 21.6344C145.858 21.2877 145.02 21.1143 144.019 21.1143H134.285V30.3596Z" fill="white"/>
<path id="Vector_7" d="M159.012 44.7281V17.272H180.591V21.1143H163.555V28.7587H178.805V32.601H163.555V40.8858H180.834V44.7281H159.012Z" fill="white"/>
</g>
</svg>
