<svg width="250" height="27" viewBox="0 0 250 27" fill="none" xmlns="http://www.w3.org/2000/svg">
<g id="cryptoadventure-logo-white 1" clip-path="url(#clip0_1045_943)">
<path id="Vector" d="M30.5508 22.525L33.2008 26.575H8.10078C7.62578 26.575 7.15078 26.525 6.70078 26.45C6.25078 26.375 5.82578 26.25 5.40078 26.125C3.85078 25.575 2.52578 24.6 1.55078 23.325C1.27578 22.95 1.02578 22.55 0.800781 22.15C0.250781 21.025 -0.0742188 19.75 -0.0742188 18.4V8.65003C-0.0742188 4.15002 3.60078 0.475024 8.10078 0.475024H18.3008C18.2258 0.550024 18.1758 0.600025 18.1008 0.675025C17.9758 0.800025 17.8508 0.950025 17.7508 1.07502C17.7508 1.07502 17.7508 1.07502 17.7508 1.10002C17.7258 1.15002 17.6758 1.20002 17.6508 1.25002C17.6258 1.27502 17.6258 1.30002 17.6008 1.30002L15.0508 5.20002H8.10078C6.20078 5.20002 4.67578 6.75003 4.67578 8.62503V18.375C4.67578 18.425 4.67578 18.475 4.67578 18.55C4.70078 19.175 4.90078 19.75 5.22578 20.25C5.42578 20.575 5.67578 20.85 5.97578 21.075L6.05078 21.15C6.12578 21.225 6.22578 21.275 6.30078 21.325C6.35078 21.35 6.40078 21.4 6.45078 21.425C6.60078 21.5 6.77578 21.575 6.92578 21.625C6.97578 21.65 7.02578 21.65 7.07578 21.675C7.30078 21.75 7.52578 21.775 7.75078 21.8C7.77578 21.8 7.80078 21.8 7.82578 21.8C7.90078 21.8 7.97578 21.8 8.05078 21.8H30.0508L30.5508 22.525ZM40.3758 26.575L24.3258 2.00002C23.7008 1.02502 22.6508 0.450024 21.5008 0.450024C20.6758 0.450024 19.9008 0.750024 19.3008 1.25002L19.1758 1.37502C19.1258 1.42502 19.0758 1.47502 19.0508 1.50002C18.9508 1.60002 18.8758 1.70002 18.8008 1.80002C18.7508 1.87502 18.7008 1.92502 18.6508 2.00002L6.82578 20.15C7.17578 20.425 7.62578 20.575 8.10078 20.575H12.2008L21.5008 6.35003L23.6508 18.275L25.8008 12.925L34.7258 26.575H40.3758ZM140.201 16.625H130.101L128.476 20.8H125.176L133.426 0.750024H136.826L145.101 20.8H141.801L140.201 16.625ZM130.951 14.05H139.276L135.151 4.22502L130.951 14.05ZM144.201 13.65C144.201 9.30003 147.276 6.35003 151.326 6.35003C153.726 6.35003 155.326 7.22503 156.376 8.57503V0.0250244H159.301V20.8H156.376V18.875C155.326 20.225 153.726 21.1 151.326 21.1C147.276 21.1 144.201 18 144.201 13.65ZM151.676 8.95003C148.951 8.95003 147.126 11.025 147.126 13.625C147.126 16.225 148.951 18.45 151.676 18.45C154.401 18.45 156.351 16.225 156.351 13.625C156.351 11.025 154.376 8.95003 151.676 8.95003ZM171.326 6.62503H174.476L168.901 20.8H165.426L159.851 6.62503H163.001L167.176 17.925L171.326 6.62503ZM187.051 19.7C185.401 20.625 183.626 21.1 181.651 21.1C176.876 21.1 173.601 18.1 173.601 13.725C173.601 9.50003 176.651 6.35003 180.901 6.35003C185.501 6.35003 188.476 10.2 187.626 14.8H176.601C177.126 17.125 178.926 18.4 181.676 18.4C183.326 18.4 184.751 17.975 186.626 17.075L187.051 19.7ZM184.976 12.45C184.776 10.4 183.301 9.00003 180.976 9.00003C178.651 9.00003 176.901 10.4 176.676 12.45H184.976ZM202.276 12.2V20.8H199.351V12.825C199.351 10.475 198.076 9.12503 195.876 9.12503C193.726 9.12503 191.976 10.475 191.976 12.825V20.8H189.051V6.62503H192.001V8.40003C192.476 7.67503 193.826 6.32503 196.351 6.32503C200.226 6.32503 202.276 8.75003 202.276 12.2ZM208.051 9.10003V16.175C208.051 17.675 208.926 18.425 210.376 18.425C211.051 18.425 211.976 18.3 212.676 18.075L213.051 20.575C212.351 20.85 211.076 21.05 209.951 21.05C206.976 21.05 205.126 19.375 205.126 16.5V9.10003H202.601V6.62503H205.176V2.07502H208.001V6.62503H212.201V9.10003H208.051ZM223.351 6.62503H226.251V15.05C226.226 18.625 223.601 21.1 219.801 21.1C215.951 21.1 213.326 18.675 213.326 15.125V6.62503H216.276V14.625C216.276 16.8 217.701 18.35 219.801 18.35C221.901 18.35 223.351 16.825 223.351 14.625V6.62503ZM231.226 8.57503C232.026 7.02503 233.376 6.35003 234.926 6.35003C236.026 6.35003 236.876 6.70003 236.876 6.70003L236.576 9.37503C236.426 9.32503 235.776 9.05003 234.851 9.05003C233.276 9.05003 231.251 9.87503 231.251 13.075V20.8H228.301V6.62503H231.251V8.57503H231.226ZM249.301 19.7C247.651 20.625 245.876 21.1 243.901 21.1C239.126 21.1 235.851 18.1 235.851 13.725C235.851 9.50003 238.901 6.35003 243.151 6.35003C247.751 6.35003 250.726 10.2 249.876 14.8H238.851C239.376 17.125 241.176 18.4 243.926 18.4C245.576 18.4 247.001 17.975 248.876 17.075L249.301 19.7ZM247.226 12.45C247.026 10.4 245.551 9.00003 243.226 9.00003C240.901 9.00003 239.151 10.4 238.926 12.45H247.226Z" fill="white"/>
<g id="Group">
<path id="Vector_2" d="M58.4484 19.775C57.3484 20.25 55.4984 21.1 51.9984 21.1C45.1734 21.1 40.5234 16.9 40.5234 10.775C40.5234 4.67498 45.1484 0.474976 51.9734 0.474976C54.6484 0.474976 57.0734 1.19998 58.2234 1.74998L57.9234 4.67498C56.8484 4.14998 54.6734 3.42498 51.9984 3.42498C47.1734 3.42498 43.8984 6.39998 43.8984 10.775C43.8984 15.15 47.3484 18.175 52.3984 18.175C54.7734 18.175 56.8984 17.5 58.0734 16.85L58.4484 19.775Z" fill="white"/>
<path id="Vector_3" d="M62.3742 8.57498C63.1742 7.02498 64.5242 6.34998 66.0742 6.34998C67.1742 6.34998 68.0242 6.69998 68.0242 6.69998L67.7242 9.37498C67.5742 9.32498 66.9242 9.04998 65.9992 9.04998C64.4242 9.04998 62.3992 9.87497 62.3992 13.075V20.8H59.4492V6.62498H62.3992V8.57498H62.3742Z" fill="white"/>
<path id="Vector_4" d="M78.6477 6.625H81.8727L75.0727 22.6C73.9477 25.225 72.7227 27 69.2477 27C67.9977 27 67.1477 26.625 66.8977 26.475L67.1977 24.05C67.5977 24.225 68.3727 24.425 69.0977 24.425C70.9977 24.425 71.7727 23.475 72.3977 21.8L72.6977 21L66.5977 6.625H69.8227L74.2477 17.8L78.6477 6.625Z" fill="white"/>
<path id="Vector_5" d="M97.35 13.8C97.35 18.15 94.275 21.0999 90.225 21.0999C87.825 21.0999 86.225 20.2249 85.175 18.8749V26.725H82.25V6.62495H85.175V8.54995C86.225 7.19995 87.825 6.32495 90.225 6.32495C94.275 6.32495 97.35 9.42495 97.35 13.8ZM89.875 18.4749C92.6 18.4749 94.425 16.4 94.425 13.8C94.425 11.2 92.6 8.97495 89.875 8.97495C87.15 8.97495 85.2 11.2 85.2 13.8C85.2 16.4 87.175 18.4749 89.875 18.4749Z" fill="white"/>
<path id="Vector_6" d="M102.247 9.09995V16.175C102.247 17.675 103.122 18.425 104.572 18.425C105.247 18.425 106.172 18.3 106.872 18.075L107.247 20.575C106.547 20.85 105.272 21.05 104.147 21.05C101.172 21.05 99.3219 19.375 99.3219 16.5V9.09995H96.7969V6.62495H99.3719V2.07495H102.222V6.62495H106.422V9.09995H102.247Z" fill="white"/>
<path id="Vector_7" d="M114.123 6.32495C118.423 6.32495 121.648 9.54995 121.648 13.6999C121.648 17.8499 118.423 21.0749 114.123 21.0749C109.823 21.0749 106.598 17.8499 106.598 13.6999C106.598 9.54995 109.798 6.32495 114.123 6.32495ZM114.123 18.3499C116.798 18.3499 118.723 16.3249 118.723 13.7249C118.723 11.125 116.798 9.09995 114.123 9.09995C111.448 9.09995 109.523 11.125 109.523 13.7249C109.523 16.3249 111.448 18.3499 114.123 18.3499Z" fill="white"/>
</g>
</g>
<defs>
<clipPath id="clip0_1045_943">
<rect width="250" height="27" fill="white"/>
</clipPath>
</defs>
</svg>
