<svg width="240" height="64" viewBox="0 0 240 64" fill="none" xmlns="http://www.w3.org/2000/svg">
<path d="M76.8398 46.208V27.048H89.3918V29.168H79.2398V35.344H89.2078V37.504H79.2398V44.112H89.4078V46.24L76.8398 46.208Z" fill="white"/>
<path d="M101.792 46.208V44.608C101.211 45.2415 100.5 45.7418 99.707 46.0746C98.9144 46.4074 98.0592 46.5648 97.2 46.536C96.5801 46.5596 95.9618 46.4583 95.382 46.238C94.8021 46.0177 94.2724 45.683 93.8246 45.2538C93.3767 44.8246 93.0198 44.3097 92.775 43.7397C92.5303 43.1697 92.4028 42.5563 92.4 41.936C92.4 38.808 94.872 37.368 97.2 37.368C98.0556 37.3262 98.91 37.4721 99.7033 37.7955C100.497 38.1189 101.209 38.6119 101.792 39.24V36.752C101.792 34.92 100.296 33.856 98.288 33.856C97.4817 33.8401 96.682 34.0042 95.9472 34.3363C95.2123 34.6685 94.5608 35.1603 94.04 35.776L93.032 34.304C93.7385 33.547 94.5987 32.9498 95.5548 32.5524C96.511 32.1551 97.5411 31.9667 98.576 32C101.536 32 103.944 33.32 103.944 36.688V46.224L101.792 46.208ZM101.792 43.272V40.632C101.333 40.0769 100.752 39.6352 100.094 39.3411C99.4365 39.0469 98.7199 38.9083 98 38.936C95.96 38.936 94.552 40.2 94.552 41.952C94.552 43.704 95.96 45 98 45C98.7233 45.0295 99.4434 44.8884 100.102 44.5883C100.761 44.2881 101.34 43.8372 101.792 43.272Z" fill="white"/>
<path d="M107.104 44.368L108.2 42.816C108.784 43.4409 109.49 43.9393 110.274 44.2806C111.059 44.6218 111.905 44.7986 112.76 44.8C114.888 44.8 116.064 43.792 116.064 42.4C116.064 39.04 107.48 41.104 107.48 36C107.48 33.824 109.32 32 112.616 32C113.566 31.9652 114.513 32.1262 115.398 32.473C116.283 32.8199 117.087 33.3451 117.76 34.016L116.76 35.504C116.236 34.9308 115.595 34.4775 114.879 34.1751C114.164 33.8728 113.392 33.7284 112.616 33.752C110.72 33.752 109.544 34.704 109.544 35.936C109.544 38.952 118.136 36.968 118.136 42.336C118.136 44.664 116.264 46.536 112.704 46.536C111.671 46.5831 110.64 46.4147 109.676 46.0414C108.712 45.6681 107.836 45.0983 107.104 44.368Z" fill="white"/>
<path d="M121.208 49.68C121.582 49.8291 121.981 49.9077 122.384 49.912C122.845 49.9437 123.303 49.8154 123.68 49.5487C124.058 49.282 124.332 48.8932 124.456 48.448L125.368 46.352L119.568 32.328H121.928L126.52 43.704L131.144 32.328H133.472L126.52 49.016C126.239 49.8653 125.688 50.5998 124.952 51.108C124.216 51.6162 123.334 51.8704 122.44 51.832C121.916 51.8297 121.395 51.7625 120.888 51.632L121.208 49.68Z" fill="white"/>
<path d="M164.656 43.504L166.096 41.664C166.837 42.5303 167.758 43.2257 168.794 43.7022C169.829 44.1787 170.956 44.4249 172.096 44.424C175.52 44.424 176.608 42.584 176.608 41.096C176.608 36.152 165.264 38.912 165.264 32.072C165.264 28.912 168.08 26.728 171.872 26.728C173.128 26.6807 174.38 26.8969 175.547 27.3626C176.714 27.8283 177.77 28.5333 178.648 29.432L177.208 31.184C176.505 30.4262 175.646 29.8288 174.691 29.4326C173.735 29.0364 172.706 28.8507 171.672 28.888C169.4 28.888 167.736 30.12 167.736 31.928C167.736 36.24 179.08 33.768 179.08 40.92C179.08 43.68 177.184 46.52 172.016 46.52C170.645 46.5761 169.277 46.3358 168.007 45.8153C166.737 45.2948 165.594 44.5064 164.656 43.504Z" fill="white"/>
<path d="M182.496 43.304V34.224H180.2V32.328H182.496V28.536H184.68V32.328H187.496V34.224H184.68V42.84C184.68 43.88 185.136 44.624 186.056 44.624C186.328 44.6256 186.597 44.5734 186.848 44.4705C187.099 44.3675 187.328 44.2157 187.52 44.024L188.152 45.624C187.808 45.9365 187.405 46.1768 186.967 46.3307C186.528 46.4846 186.064 46.549 185.6 46.52C183.528 46.552 182.496 45.368 182.496 43.304Z" fill="white"/>
<path d="M199.184 46.208V44.608C198.602 45.2426 197.89 45.7435 197.096 46.0763C196.302 46.4092 195.445 46.566 194.584 46.536C193.964 46.5607 193.345 46.4602 192.765 46.2403C192.185 46.0204 191.655 45.6858 191.207 45.2564C190.758 44.8269 190.402 44.3116 190.157 43.7411C189.913 43.1705 189.786 42.5566 189.784 41.936C189.784 38.808 192.256 37.368 194.584 37.368C195.441 37.3261 196.297 37.4719 197.091 37.7953C197.886 38.1186 198.6 38.6117 199.184 39.24V36.752C199.184 34.92 197.688 33.856 195.68 33.856C194.873 33.8406 194.072 34.0049 193.336 34.3369C192.6 34.669 191.947 35.1605 191.424 35.776L190.44 34.304C191.147 33.5466 192.007 32.9491 192.963 32.5517C193.919 32.1543 194.949 31.9662 195.984 32C198.936 32 201.352 33.32 201.352 36.688V46.224L199.184 46.208ZM199.184 43.272V40.632C198.725 40.0769 198.144 39.6352 197.486 39.3411C196.829 39.0469 196.112 38.9083 195.392 38.936C193.352 38.936 191.944 40.2 191.944 41.952C191.944 43.704 193.352 45 195.392 45C196.116 45.0295 196.836 44.8884 197.494 44.5882C198.153 44.2881 198.732 43.8372 199.184 43.272Z" fill="white"/>
<path d="M215.12 46.208L210.152 39.968L207.824 42.24V46.24H205.64V27.048H207.792V39.712L215.088 32.328H217.816L211.672 38.624L217.848 46.208H215.12Z" fill="white"/>
<path d="M219.576 39.256C219.576 35.256 222.448 31.984 226.408 31.984C230.6 31.984 233.072 35.264 233.072 39.424V39.968H221.872C221.879 40.6105 222.014 41.2452 222.268 41.8353C222.522 42.4253 222.891 42.9591 223.353 43.4055C223.815 43.852 224.362 44.2023 224.96 44.4362C225.558 44.6701 226.197 44.7829 226.84 44.768C227.64 44.7717 228.432 44.6159 229.172 44.3096C229.911 44.0032 230.581 43.5526 231.144 42.984L232.184 44.392C231.454 45.1012 230.589 45.6576 229.642 46.0285C228.694 46.3994 227.681 46.5774 226.664 46.552C222.528 46.552 219.576 43.592 219.576 39.256ZM226.376 33.768C223.424 33.768 221.96 36.264 221.84 38.36H230.944C230.958 37.7551 230.85 37.1537 230.625 36.5917C230.401 36.0298 230.066 35.519 229.639 35.0901C229.212 34.6612 228.703 34.3229 228.142 34.0957C227.582 33.8685 226.981 33.757 226.376 33.768Z" fill="white"/>
<path d="M141.512 46.208V44.28C148.408 38.88 152.168 35.696 152.168 32.392C152.168 29.92 150.128 28.888 148.168 28.888C147.174 28.8567 146.187 29.0573 145.284 29.4739C144.382 29.8905 143.589 30.5116 142.968 31.288L141.504 29.768C142.307 28.7852 143.326 28.0016 144.482 27.4783C145.638 26.9551 146.9 26.7065 148.168 26.752C151.368 26.752 154.608 28.56 154.608 32.352C154.608 36.144 150.608 39.816 145.296 44.04H154.688V46.168L141.512 46.208Z" fill="white"/>
<path d="M19.8878 18.24C18.9995 18.2378 18.126 18.0124 17.3474 17.5847C16.5688 17.157 15.9102 16.5406 15.4319 15.792L6.43985 1.6V18.304C6.43985 21.1047 7.55242 23.7907 9.53281 25.771C11.5132 27.7514 14.1992 28.864 16.9998 28.864H20.1358L27.6559 46.24L37.0478 18.24H19.8878Z" fill="#09F595"/>
<path d="M58.5838 15.792C58.1066 16.5416 57.4481 17.1588 56.6693 17.5867C55.8905 18.0145 55.0164 18.2392 54.1278 18.24H37.0078L46.3998 46.24L53.9198 28.864H57.0558C59.8565 28.864 62.5425 27.7514 64.5229 25.771C66.5032 23.7907 67.6158 21.1047 67.6158 18.304V1.6L58.5838 15.792Z" fill="#09F595"/>
<path d="M31.0161 54.048L27.6161 46.2L24.4161 55.8C24.1481 56.5968 24.0737 57.446 24.199 58.2774C24.3243 59.1087 24.6457 59.8982 25.1367 60.5807C25.6276 61.2631 26.2739 61.8189 27.0223 62.202C27.7706 62.5852 28.5994 62.7847 29.4401 62.784H44.6401C45.4801 62.7834 46.3079 62.583 47.0552 62.1993C47.8025 61.8156 48.4478 61.2597 48.9378 60.5774C49.4278 59.8951 49.7485 59.1061 49.8734 58.2754C49.9983 57.4447 49.9238 56.5962 49.6561 55.8L46.4561 46.2L43.0561 54.048H31.0161Z" fill="#09F595"/>
</svg>
