<svg width="250" height="43" viewBox="0 0 250 43" fill="none" xmlns="http://www.w3.org/2000/svg">
<g id="financial move logo 1" clip-path="url(#clip0_1045_852)">
<g id="b">
<g id="c">
<g id="Clip path group">
<mask id="mask0_1045_852" style="mask-type:luminance" maskUnits="userSpaceOnUse" x="0" y="0" width="250" height="43">
<g id="d">
<path id="Vector" d="M250 0H0V42.7414H250V0Z" fill="white"/>
</g>
</mask>
<g mask="url(#mask0_1045_852)">
<g id="Group">
<g id="Group_2">
<path id="Vector_2" d="M81.344 17.9237H78.6948C78.3538 17.9237 78.1308 17.9543 78.0259 18.0155C77.427 18.3565 76.9505 18.8679 76.5877 19.5455C76.5439 19.6286 76.5265 19.821 76.5265 20.1226V21.8144H80.4216V23.4756H76.5265V35.5457H74.804V23.4756H72.5352V21.8144H74.804V20.057C74.804 19.375 74.9527 18.8111 75.2499 18.3652C75.7614 17.6657 76.2423 17.1499 76.6882 16.8351C77.1997 16.4504 77.8554 16.2581 78.6685 16.2581H81.3527V17.9193H81.3483L81.344 17.9237ZM86.0435 35.5544H84.3211V21.8188H86.0435V35.5544ZM86.3976 18.6887H83.9713V16.2275H86.3976V18.6887ZM101.567 35.5544H99.8447V25.5609C99.8447 25.2855 99.8228 25.1019 99.7835 25.0144C99.4206 24.3543 98.9092 23.8297 98.249 23.4494C98.1004 23.3663 97.9081 23.3182 97.672 23.3182H95.4031C95.2326 23.3182 95.084 23.3489 94.9572 23.4101C93.7638 24.0483 92.9681 24.6866 92.5616 25.3248V35.5457H90.8391V24.0789L90.6162 21.81H92.3386L92.531 23.4101C92.955 22.9423 93.3528 22.5794 93.7157 22.3259C94.3321 21.88 94.8654 21.657 95.3157 21.657H97.7113C98.4982 21.657 99.1583 21.8581 99.6873 22.2647C100.133 22.5882 100.614 23.0953 101.126 23.7948C101.423 24.2407 101.571 24.809 101.571 25.4866V35.5457L101.567 35.5544ZM116.785 35.5588H115.062L114.778 33.9588C114.393 34.3653 113.991 34.7282 113.563 35.0429C112.946 35.4888 112.426 35.7118 111.998 35.7118H109.187C108.417 35.7118 107.77 35.5107 107.241 35.1041C106.686 34.6364 106.219 34.1336 105.834 33.6047C105.51 33.1369 105.357 32.573 105.357 31.9129V31.2746C105.357 30.6363 105.519 30.0724 105.834 29.5828C106.219 29.0494 106.686 28.5511 107.241 28.0833C107.775 27.6768 108.426 27.4757 109.187 27.4757H114.743V25.5303C114.743 25.3161 114.721 25.1456 114.682 25.0232C114.319 24.3631 113.808 23.8385 113.148 23.4581C112.999 23.3751 112.807 23.327 112.57 23.327H109.567C109.353 23.327 109.174 23.3707 109.021 23.4581C108.487 23.7554 107.976 24.2887 107.491 25.0582L105.829 24.5117C106.044 24.1707 106.201 23.9259 106.306 23.7773C106.713 23.1784 107.189 22.6712 107.744 22.2472C108.256 21.8625 108.894 21.6701 109.659 21.6701H112.597C113.384 21.6701 114.044 21.8712 114.573 22.2778C114.979 22.5314 115.456 23.0341 116.011 23.7773C116.308 24.1838 116.457 24.7565 116.457 25.4997V33.2943L116.78 35.5632H116.789L116.785 35.5588ZM112.343 33.9588C112.706 33.7664 113.143 33.4823 113.65 33.0976C114.179 32.7129 114.542 32.35 114.734 32.0134V29.1063H109.209C108.977 29.1063 108.785 29.15 108.632 29.2374C108.015 29.5784 107.526 30.0899 107.163 30.7675C107.102 30.8986 107.067 31.0648 107.067 31.2746V31.9129C107.067 32.1271 107.097 32.2976 107.163 32.42C107.504 33.0582 107.993 33.5566 108.632 33.9194C108.78 34.0025 108.973 34.0506 109.209 34.0506H111.893C112.063 34.0506 112.212 34.02 112.339 33.9588H112.343ZM131.941 35.5588H130.219V25.5653C130.219 25.2899 130.197 25.1062 130.158 25.0188C129.795 24.3587 129.283 23.8341 128.623 23.4538C128.474 23.3707 128.282 23.3226 128.046 23.3226H125.777C125.607 23.3226 125.458 23.3532 125.331 23.4144C124.138 24.0527 123.342 24.6909 122.936 25.3292V35.55H121.213V24.0833L120.99 21.8144H122.713L122.905 23.4144C123.329 22.9467 123.727 22.5838 124.09 22.3303C124.706 21.8844 125.235 21.6614 125.69 21.6614H128.085C128.872 21.6614 129.532 21.8625 130.061 22.2691C130.507 22.5926 130.984 23.0997 131.5 23.7991C131.797 24.245 131.946 24.8133 131.946 25.4909V35.55L131.941 35.5588ZM147.159 32.879C146.63 33.8582 146 34.6014 145.275 35.1173C144.746 35.5238 144.09 35.7249 143.329 35.7249H140.072C139.281 35.7249 138.625 35.5238 138.092 35.1173C137.646 34.7938 137.17 34.2866 136.654 33.5872C136.356 33.1413 136.208 32.573 136.208 31.8954V25.5084C136.208 24.8265 136.356 24.2625 136.654 23.8166C137.165 23.1172 137.646 22.6013 138.092 22.2865C138.621 21.88 139.285 21.6789 140.072 21.6789H143.233C144.002 21.6789 144.649 21.88 145.178 22.2865C145.755 22.7106 146.385 23.4713 147.063 24.5554L145.401 25.1019C145.27 24.8265 145.047 24.5248 144.733 24.2101C144.413 23.8691 144.125 23.6243 143.871 23.4756C143.723 23.3926 143.53 23.3445 143.294 23.3445H140.103C139.867 23.3445 139.679 23.3882 139.526 23.4756C138.888 23.8385 138.389 24.3587 138.026 25.0407C137.965 25.1718 137.93 25.3467 137.93 25.5871V31.8473C137.93 32.079 137.961 32.2626 138.026 32.3937C138.175 32.6691 138.389 32.9708 138.665 33.2855C138.962 33.5828 139.242 33.8058 139.495 33.9544C139.644 34.0375 139.836 34.0856 140.072 34.0856H143.395C143.626 34.0856 143.819 34.0418 143.972 33.9544C144.225 33.8058 144.518 33.5697 144.833 33.2549C145.157 32.914 145.366 32.6254 145.471 32.3937L145.502 32.3325L147.163 32.9096V32.8965L147.159 32.879ZM153.069 35.5632H151.347V21.8275H153.069V35.5632ZM153.423 18.6974H150.997V16.2362H153.423V18.6974ZM168.435 35.5632H166.713L166.425 33.9632C166.04 34.3697 165.638 34.7326 165.209 35.0473C164.593 35.4932 164.073 35.7162 163.644 35.7162H160.833C160.064 35.7162 159.417 35.5151 158.888 35.1085C158.333 34.6408 157.865 34.138 157.48 33.609C157.161 33.1413 157.004 32.5773 157.004 31.9172V31.279C157.004 30.6407 157.165 30.0768 157.48 29.5872C157.865 29.0538 158.333 28.5555 158.888 28.0877C159.417 27.6811 160.073 27.48 160.833 27.48H166.39V25.5347C166.39 25.3205 166.368 25.15 166.328 25.0276C165.965 24.3674 165.454 23.8428 164.798 23.4625C164.65 23.3795 164.457 23.3314 164.221 23.3314H161.218C161.004 23.3314 160.824 23.3751 160.671 23.4625C160.142 23.7598 159.627 24.2931 159.141 25.0625L157.48 24.5161C157.694 24.1751 157.852 23.9303 157.957 23.7816C158.363 23.1827 158.84 22.6756 159.395 22.2516C159.906 21.8669 160.545 21.6745 161.31 21.6745H164.247C165.034 21.6745 165.694 21.8756 166.228 22.2822C166.63 22.5357 167.111 23.0385 167.666 23.7816C167.963 24.1882 168.112 24.7609 168.112 25.5041V33.2987L168.431 35.5675H168.435V35.5632ZM163.998 33.9632C164.361 33.7708 164.798 33.4866 165.305 33.1019C165.839 32.7172 166.197 32.3544 166.39 32.0178V29.1106H160.864C160.632 29.1106 160.44 29.1544 160.287 29.2418C159.67 29.5828 159.181 30.0943 158.818 30.7719C158.757 30.903 158.726 31.0691 158.726 31.279V31.9172C158.726 32.1314 158.757 32.3019 158.818 32.4243C159.159 33.0626 159.648 33.561 160.287 33.9238C160.435 34.0069 160.628 34.055 160.864 34.055H163.548C163.718 34.055 163.867 34.0244 163.994 33.9632H163.998ZM174.844 35.5632H173.122C173.1 35.432 173.048 35.1566 172.96 34.7326C172.877 34.3085 172.829 33.985 172.829 33.7708V16.3892H174.551V33.3774C174.551 33.6309 174.595 34.0156 174.682 34.5271C174.766 35.0342 174.822 35.3796 174.844 35.55V35.5632ZM205.271 35.5588H202.079V25.8494C202.079 25.7882 202.071 25.7183 202.049 25.6571C201.857 25.2942 201.524 24.9664 201.057 24.6647C201.017 24.6429 200.925 24.6341 200.803 24.6341H199.334C198.888 24.6341 198.272 25.0582 197.481 25.9106V35.5588H194.289V25.8494C194.289 25.7664 194.28 25.7008 194.259 25.6571C194.088 25.3336 193.738 25.0101 193.205 24.6647C193.161 24.6429 193.074 24.6341 192.952 24.6341H191.483C191.352 24.6341 191.216 24.6647 191.067 24.7259C190.936 24.7696 190.823 24.8177 190.713 24.8877C190.604 24.9314 190.49 25.0188 190.359 25.1412C190.228 25.2505 190.136 25.3336 190.075 25.3948C190.014 25.456 189.913 25.5653 189.791 25.7183C189.682 25.8494 189.62 25.9194 189.598 25.9412V35.5544H186.407V24.5991L186.088 21.7576H189.218L189.38 22.492C190.211 21.8931 190.879 21.6002 191.395 21.6002H192.991C193.883 21.6002 194.661 21.8319 195.321 22.2997C195.574 22.492 195.885 22.7674 196.248 23.1303L196.947 22.5838C197.822 21.9237 198.587 21.5915 199.247 21.5915H200.847C201.738 21.5915 202.517 21.8232 203.177 22.2909C203.837 22.7805 204.344 23.292 204.711 23.821C205.096 24.3281 205.288 24.9795 205.288 25.7664V35.5369L205.275 35.5457L205.271 35.5588ZM220.851 31.5369C220.851 32.3456 220.668 32.997 220.305 33.4823C219.92 34.0593 219.413 34.5795 218.77 35.0473C218.132 35.4932 217.354 35.7162 216.44 35.7162H213.437C212.545 35.7162 211.776 35.4932 211.137 35.0473C210.906 34.8768 210.617 34.6233 210.276 34.2779C209.935 33.9369 209.699 33.6703 209.577 33.4779C209.214 32.9883 209.03 32.3413 209.03 31.5325V25.7838C209.03 24.9751 209.214 24.3237 209.577 23.8385C209.918 23.3314 210.438 22.8155 211.142 22.3084C211.802 21.8406 212.571 21.6089 213.441 21.6089H216.445C217.336 21.6089 218.115 21.8406 218.775 22.3084C219.435 22.798 219.946 23.3095 220.309 23.8385C220.672 24.3281 220.856 24.9751 220.856 25.7838V31.5325H220.851V31.5369ZM212.226 25.8844V31.6943C212.226 31.926 212.58 32.2495 213.28 32.656C213.319 32.6779 213.384 32.6866 213.472 32.6866H216.41C216.449 32.6866 216.519 32.6648 216.602 32.6254C217.284 32.2407 217.634 31.9347 217.656 31.703V25.8931C217.656 25.8319 217.647 25.762 217.625 25.7008C217.371 25.2767 217.017 24.9314 216.571 24.6778C216.532 24.656 216.48 24.6472 216.41 24.6472H213.472C213.411 24.6472 213.354 24.656 213.31 24.6778C212.842 24.9532 212.488 25.2942 212.257 25.7008L212.226 25.8931V25.8844ZM236.252 21.762L231.273 35.5588H227.89L222.81 21.762H226.386L229.612 31.1172L232.869 21.762H236.252ZM250.006 30.1948H241.35V31.5019L241.38 31.6637C241.529 31.8954 241.734 32.1314 241.988 32.3631C242.263 32.5773 242.478 32.6866 242.626 32.6866H245.726C246.049 32.6866 246.438 32.4112 246.91 31.856L247.007 31.7249L249.975 32.6167C249.826 32.9795 249.516 33.4167 249.053 33.9238C248.607 34.4134 248.231 34.7632 247.938 34.9774C247.216 35.467 246.447 35.7118 245.638 35.7118H242.635C241.721 35.7118 240.943 35.4888 240.305 35.0429C239.706 34.597 239.199 34.0812 238.771 33.5129C238.368 32.9577 238.163 32.2976 238.163 31.5325V25.7838C238.163 25.0363 238.364 24.3893 238.771 23.8385C239.195 23.2614 239.706 22.7543 240.305 22.3084C240.965 21.8406 241.743 21.6089 242.635 21.6089H245.573C246.465 21.6089 247.243 21.8406 247.903 22.3084C248.563 22.798 249.07 23.3095 249.437 23.8385C249.822 24.3456 250.014 24.997 250.014 25.7838V30.1904H250.01L250.006 30.1948ZM246.814 27.3576V25.8582C246.814 25.7489 246.806 25.6877 246.784 25.6658C246.552 25.2811 246.198 24.9532 245.73 24.6735C245.686 24.6516 245.621 24.6429 245.538 24.6429H242.631C242.482 24.6429 242.268 24.7609 241.992 24.997C241.739 25.2112 241.533 25.4341 241.385 25.6658L241.354 25.8582V27.3576H246.814Z" fill="white"/>
<path id="Vector_3" d="M0 42.7414H5.87109V8.68643L0 5.1629V42.7414Z" fill="url(#paint0_linear_1045_852)"/>
<path id="Vector_4" d="M16.7539 10.4482V42.7414H10.8828V13.9717L16.7539 10.4482Z" fill="url(#paint1_linear_1045_852)"/>
<path id="Vector_5" d="M27.6289 0H21.7578V42.7414H27.6289V0Z" fill="url(#paint2_linear_1045_852)"/>
<path id="Vector_6" d="M32.6445 10.4482V42.7414H38.5156V13.9717L32.6445 10.4482Z" fill="url(#paint3_linear_1045_852)"/>
<path id="Vector_7" d="M49.3906 42.7414H43.5195V8.68643L49.3906 5.1629V42.7414Z" fill="url(#paint4_linear_1045_852)"/>
</g>
</g>
</g>
</g>
</g>
</g>
</g>
<defs>
<linearGradient id="paint0_linear_1045_852" x1="-1.80111" y1="42.3348" x2="7.65034" y2="5.6569" gradientUnits="userSpaceOnUse">
<stop stop-color="#FF9900"/>
<stop offset="1" stop-color="#FFFF00"/>
</linearGradient>
<linearGradient id="paint1_linear_1045_852" x1="17.3747" y1="42.6496" x2="10.2795" y2="10.6099" gradientUnits="userSpaceOnUse">
<stop stop-color="#FF9900"/>
<stop offset="1" stop-color="#FFFF00"/>
</linearGradient>
<linearGradient id="paint2_linear_1045_852" x1="18.6758" y1="41.902" x2="30.6803" y2="0.961756" gradientUnits="userSpaceOnUse">
<stop stop-color="#FF9900"/>
<stop offset="1" stop-color="#FFFF00"/>
</linearGradient>
<linearGradient id="paint3_linear_1045_852" x1="32.0194" y1="42.6495" x2="39.1233" y2="10.6099" gradientUnits="userSpaceOnUse">
<stop stop-color="#FF9900"/>
<stop offset="1" stop-color="#FFFF00"/>
</linearGradient>
<linearGradient id="paint4_linear_1045_852" x1="51.1961" y1="42.3348" x2="41.7403" y2="5.65689" gradientUnits="userSpaceOnUse">
<stop stop-color="#FF9900"/>
<stop offset="1" stop-color="#FFFF00"/>
</linearGradient>
<clipPath id="clip0_1045_852">
<rect width="250" height="42.7414" fill="white"/>
</clipPath>
</defs>
</svg>
