<svg width="140" height="32" viewBox="0 0 140 32" fill="none" xmlns="http://www.w3.org/2000/svg">
<g clip-path="url(#clip0_139_4983)">
<path fill-rule="evenodd" clip-rule="evenodd" d="M115.586 9.5163H119.551V5.55121H115.586V9.5163ZM94.5092 16.1229C95.2687 14.1125 97.2066 12.6828 99.4796 12.6828C101.753 12.6828 103.696 14.1125 104.45 16.1229H94.5092ZM99.4796 8.99135C94.5092 8.99135 90.4771 13.0235 90.4771 17.9938C90.4771 22.9641 94.5092 26.9962 99.4796 26.9962C102.892 26.9962 105.857 25.0975 107.382 22.3051L104.059 20.6912C103.132 22.2605 101.429 23.3104 99.4796 23.3104C97.0167 23.3104 94.9448 21.635 94.3417 19.3564H104.617V19.362H108.381C108.448 18.9153 108.482 18.4573 108.482 17.9938C108.482 13.0235 104.455 8.99135 99.4796 8.99135ZM109.532 26.516H113.497V22.5509H109.532V26.516ZM115.586 26.516H119.551V11.2587H115.586V26.516ZM130.614 23.3104C127.676 23.3104 125.297 20.9313 125.297 17.9938C125.297 15.0563 127.676 12.6772 130.614 12.6772C133.551 12.6772 135.931 15.0563 135.931 17.9938C135.931 20.9313 133.551 23.3104 130.614 23.3104ZM130.614 8.99135C125.644 8.99135 121.611 13.0235 121.611 17.9938C121.611 22.9641 125.644 26.9962 130.614 26.9962C135.584 26.9962 139.616 22.9641 139.616 17.9938C139.616 13.0235 135.584 8.99135 130.614 8.99135ZM47.7155 14.6765V18.7756H53.2611C52.9707 19.9484 52.401 20.9983 51.5801 21.836C50.3403 23.1037 48.6258 23.7962 46.7494 23.7962C42.8513 23.7962 39.6792 20.6242 39.6792 16.7205C39.6792 12.8224 42.8513 9.64475 46.7494 9.64475C48.838 9.64475 50.7591 10.5383 52.0883 12.0797L55.2604 9.4828C53.1549 7.01438 50.0331 5.54004 46.7494 5.54004C40.5895 5.54004 35.5801 10.555 35.5801 16.7149C35.5801 22.8748 40.5895 27.8898 46.7494 27.8898C49.7427 27.8898 52.496 26.8119 54.512 24.7512C56.2042 23.02 57.3267 20.6074 57.5389 18.1948C57.645 17.0165 57.6562 15.8437 57.5892 14.6653L47.7155 14.6765ZM67.9096 23.3104C64.9776 23.3104 62.593 20.9313 62.593 17.9938C62.593 15.0563 64.9721 12.6772 67.9096 12.6772C70.8471 12.6772 73.2262 15.0563 73.2262 17.9938C73.2262 20.9313 70.8471 23.3104 67.9096 23.3104ZM73.2262 10.7449C71.7351 9.65034 69.8977 9.0081 67.9096 9.0081C62.9392 9.0081 58.9127 13.0402 58.9127 18.0105C58.9127 22.9809 62.9448 27.013 67.9096 27.013C69.8977 27.013 71.7351 26.3652 73.2262 25.2762V26.5215H76.912V9.49955H73.2262V10.7449ZM84.8199 5.55121H81.134V9.5163H78.9281V12.9955H81.134V22.0985C81.134 23.0367 81.2513 23.8297 81.4858 24.4496C81.7148 25.0639 82.0722 25.5442 82.4911 25.9184C82.9155 26.2982 83.4125 26.5941 84.0045 26.7673C84.6077 26.9348 85.2666 27.0018 85.9703 27.0018C86.6963 27.0018 87.3441 26.9292 87.8914 26.7784C88.4052 26.6388 88.8967 26.4434 89.349 26.1976V23.3941C88.623 23.7069 87.9417 23.8242 87.1654 23.8577C86.3445 23.8968 85.8642 23.6622 85.4621 23.2769C85.0377 22.8748 84.8143 22.3498 84.8143 21.473V12.9955H89.349V9.5163H84.8143V5.55121H84.8199Z" fill="white"/>
<path fill-rule="evenodd" clip-rule="evenodd" d="M15.9832 24.7903C11.1302 24.7903 7.19302 20.8531 7.19302 16.0001C7.19302 11.147 11.1302 7.20984 15.9832 7.20984V0.0112305C7.15393 0.0112305 0 7.17074 0 16.0001C0 24.8294 7.15393 31.9833 15.9832 31.9833C24.807 31.9833 31.9665 24.8238 31.9665 16.0001H24.7735C24.7735 20.8587 20.8363 24.7903 15.9832 24.7903Z" fill="#2354E6"/>
<path fill-rule="evenodd" clip-rule="evenodd" d="M15.9834 15.9999H24.7736V7.20972H15.9834V15.9999Z" fill="#17E6A1"/>
</g>
<defs>
<clipPath id="clip0_139_4983">
<rect width="139.616" height="32" fill="white"/>
</clipPath>
</defs>
</svg>
