<?xml version="1.0" encoding="utf-8"?>
<!-- Generator: Adobe Illustrator 27.9.2, SVG Export Plug-In . SVG Version: 6.00 Build 0)  -->
<svg version="1.1" id="Layer_1" xmlns="http://www.w3.org/2000/svg" xmlns:xlink="http://www.w3.org/1999/xlink" x="0px" y="0px"
	 viewBox="0 0 321.7 104.8" style="enable-background:new 0 0 321.7 104.8;" xml:space="preserve">
<style type="text/css">
	.st0{fill:#52D500;}
</style>
<g>
	<g>
		<path class="st0" d="M125,46.6h7.6c0.8,0,1.4-0.6,1.4-1.4v-7.6c0-0.8-0.6-1.4-1.4-1.4h-7c-0.9,0-1.5-0.7-1.5-1.5v-7.4
			c0-0.7-0.5-1.4-1.2-1.5c-0.1,0-0.2,0-0.3,0h-19.2c0,0,0,0,0,0h0c-0.4,0-0.8,0.2-1.1,0.4l-9.4,9.4c-0.3,0.3-0.4,0.7-0.4,1.1v8.5
			c0,0.4-0.1,0.7-0.4,1l0,0c-0.3,0.3-0.6,0.4-1,0.4h-7.7c-0.4,0-0.7-0.1-1-0.4l0,0c-0.2-0.3-0.4-0.6-0.4-1v-8.5
			c0-0.4-0.2-0.8-0.4-1.1L72,26.2c-0.3-0.3-0.7-0.4-1.1-0.4H52.1c-0.8,0-1.5,0.7-1.5,1.5l0,7.5c0,0.4-0.1,0.7-0.4,1l0,0
			c-0.3,0.3-0.6,0.4-1,0.4h0h-7.5h-0.1c-0.4,0-0.7-0.1-1-0.4l0,0c-0.3-0.3-0.4-0.6-0.4-1c0,0,0,0,0,0v-7.6c0-0.8-0.6-1.4-1.4-1.4h0
			h-7.6h0c-0.8,0-1.4,0.6-1.4,1.4v7.6c0,0,0,0,0,0c0,0.4-0.1,0.7-0.4,1l0,0c-0.3,0.3-0.6,0.4-1,0.4h-7.6c-0.8,0-1.4,0.6-1.4,1.4
			v38.9c0,0.8,0.6,1.4,1.4,1.4h7.6c0.8,0,1.4-0.6,1.4-1.4l0-38.9c0-0.4,0.1-0.7,0.4-1h0c0.3-0.3,0.6-0.4,1-0.4h7.6
			c0.4,0,0.7,0.1,1,0.4h0c0.3,0.3,0.4,0.6,0.4,1l0,38.9c0,0.8,0.6,1.4,1.4,1.4h0.1h7.5h21.7c0.4,0,0.8-0.2,1.1-0.4l9.4-9.4
			c0.3-0.3,0.4-0.7,0.4-1.1v-8.5c0-0.4,0.1-0.7,0.4-1l0,0c0.2-0.3,0.6-0.4,1-0.4l7.7,0c0.4,0,0.7,0.1,1,0.4l0,0
			c0.3,0.3,0.4,0.6,0.4,1v8.4c0,0.4,0.2,0.8,0.4,1.1l9.5,9.5c0.3,0.3,0.7,0.4,1.1,0.4h29.2c0.8,0,1.5-0.7,1.5-1.5V69
			c0-0.8-0.7-1.5-1.5-1.5h-28.2c-0.8,0-1.5-0.7-1.5-1.5v-7.4c0-0.8-0.7-1.5-1.5-1.5h-7.5c-0.4,0-0.7-0.1-1-0.4l0,0
			c-0.2-0.3-0.4-0.6-0.4-1l0-7.6c0-0.4,0.1-0.7,0.4-1c0.3-0.3,0.6-0.4,1-0.4h7.5c0.8,0,1.5-0.7,1.5-1.5v-7.4c0-0.8,0.7-1.5,1.5-1.5
			l17.9,0c0.4,0,0.7,0.1,1,0.4c0.3,0.3,0.4,0.6,0.4,1v7.6C123.6,46,124.2,46.6,125,46.6z M71.5,65.9c0,0.8-0.7,1.5-1.5,1.5H52.1
			c-0.8,0-1.5-0.7-1.5-1.5v-7.4c0-0.8,0.7-1.5,1.5-1.5h17.9c0.4,0,0.7,0.1,1,0.4l0,0c0.3,0.3,0.4,0.6,0.4,1V65.9z M71.5,45.2
			c0,0.4-0.1,0.7-0.4,1l0,0c-0.3,0.3-0.6,0.4-1,0.4H52.1c-0.8,0-1.5-0.7-1.5-1.5l0-7.5c0-0.4,0.1-0.7,0.4-1c0.3-0.3,0.6-0.4,1-0.4
			h18c0.8,0,1.5,0.7,1.5,1.5V45.2z M81.9,55.6c0,0.4-0.1,0.7-0.4,1l0,0c-0.3,0.3-0.6,0.4-1,0.4h-7.6c-0.4,0-0.7-0.1-1-0.4l0,0
			c-0.3-0.3-0.4-0.6-0.4-1l0-7.6c0-0.4,0.1-0.7,0.4-1l0,0c0.3-0.3,0.6-0.4,1-0.4h7.6c0.4,0,0.7,0.1,1,0.4l0,0c0.3,0.3,0.4,0.6,0.4,1
			V55.6z"/>
		<g>
			<g>
				<path class="st0" d="M164.5,37.9c0,0.3-0.2,0.5-0.4,0.5h-1.8c-0.3,0-0.5-0.2-0.5-0.5V26.2c0-0.3,0.2-0.5,0.5-0.5h1.8
					c0.3,0,0.4,0.2,0.4,0.5V37.9z"/>
				<path class="st0" d="M175.5,33.6v-7.4c0-0.3,0.2-0.5,0.5-0.5h1.8c0.3,0,0.4,0.2,0.4,0.5v11.7c0,0.3-0.2,0.5-0.4,0.5h-2.3
					c-0.4,0-0.5-0.2-0.6-0.5l-3.7-7.4H171v7.4c0,0.3-0.2,0.5-0.5,0.5h-1.8c-0.3,0-0.5-0.2-0.5-0.5V26.2c0-0.3,0.2-0.5,0.5-0.5h2.3
					c0.4,0,0.5,0.2,0.6,0.5l3.7,7.4H175.5z"/>
				<path class="st0" d="M186.8,37.9c0,0.3-0.2,0.5-0.5,0.5h-1.8c-0.3,0-0.5-0.2-0.5-0.5v-9.7h-2.9c-0.3,0-0.5-0.2-0.5-0.5v-1.5
					c0-0.3,0.2-0.5,0.5-0.5h8.5c0.3,0,0.4,0.2,0.4,0.5v1.5c0,0.3-0.2,0.5-0.4,0.5h-2.9V37.9z"/>
				<path class="st0" d="M195.5,35.9h5.8c0.3,0,0.5,0.2,0.5,0.5v1.5c0,0.3-0.2,0.5-0.5,0.5h-8c-0.3,0-0.5-0.2-0.5-0.5V26.2
					c0-0.3,0.2-0.5,0.5-0.5h7.8c0.3,0,0.4,0.2,0.4,0.5v1.5c0,0.3-0.2,0.5-0.4,0.5h-5.6v2.5h4.2c0.3,0,0.5,0.2,0.5,0.5v1.5
					c0,0.3-0.2,0.5-0.5,0.5h-4.2V35.9z"/>
				<path class="st0" d="M212.3,34.2l1.8,3.7c0.1,0.3-0.1,0.5-0.3,0.5h-1.9c-0.4,0-0.5-0.2-0.7-0.5l-1.6-3.5h-2.3v3.5
					c0,0.3-0.2,0.5-0.5,0.5H205c-0.3,0-0.4-0.2-0.4-0.5V26.2c0-0.3,0.2-0.5,0.4-0.5h6.2c1.9,0,2.8,0.9,2.8,2.8v3.1
					C214,34,212.3,34.2,212.3,34.2z M207.3,28.2V32h3.2c0.5,0,0.9-0.4,0.9-0.9v-2c0-0.5-0.4-0.9-0.9-0.9H207.3z"/>
				<path class="st0" d="M224.7,33.6v-7.4c0-0.3,0.2-0.5,0.4-0.5h1.8c0.3,0,0.5,0.2,0.5,0.5v11.7c0,0.3-0.2,0.5-0.5,0.5h-2.2
					c-0.4,0-0.5-0.2-0.6-0.5l-3.7-7.4h-0.2v7.4c0,0.3-0.2,0.5-0.5,0.5H218c-0.3,0-0.5-0.2-0.5-0.5V26.2c0-0.3,0.2-0.5,0.5-0.5h2.3
					c0.4,0,0.5,0.2,0.6,0.5l3.7,7.4H224.7z"/>
				<path class="st0" d="M233.4,35.8l-0.6,2.2c-0.1,0.3-0.3,0.5-0.6,0.5h-2c-0.2,0-0.4-0.2-0.3-0.5l3.8-11.7
					c0.1-0.3,0.3-0.5,0.6-0.5h2.2c0.4,0,0.5,0.2,0.6,0.5l3.8,11.7c0.1,0.3-0.1,0.5-0.3,0.5h-2c-0.4,0-0.5-0.2-0.6-0.5l-0.6-2.2
					H233.4z M236.6,33.3l-1.2-4h-0.2l-1.2,4H236.6z"/>
				<path class="st0" d="M246.4,37.9c0,0.3-0.2,0.5-0.5,0.5h-1.8c-0.3,0-0.5-0.2-0.5-0.5v-9.7h-2.9c-0.3,0-0.4-0.2-0.4-0.5v-1.5
					c0-0.3,0.2-0.5,0.4-0.5h8.5c0.3,0,0.5,0.2,0.5,0.5v1.5c0,0.3-0.2,0.5-0.5,0.5h-2.9V37.9z"/>
				<path class="st0" d="M255,37.9c0,0.3-0.2,0.5-0.5,0.5h-1.8c-0.3,0-0.5-0.2-0.5-0.5V26.2c0-0.3,0.2-0.5,0.5-0.5h1.8
					c0.3,0,0.5,0.2,0.5,0.5V37.9z"/>
				<path class="st0" d="M268.6,35.8c0,1.9-0.9,2.8-2.8,2.8h-4.4c-1.9,0-2.8-0.9-2.8-2.8v-7.4c0-1.9,0.9-2.8,2.8-2.8h4.4
					c1.9,0,2.8,0.9,2.8,2.8V35.8z M265.9,28.9c0-0.5-0.4-0.9-0.9-0.9h-2.8c-0.5,0-0.9,0.4-0.9,0.9v6.3c0,0.5,0.4,0.9,0.9,0.9h2.8
					c0.5,0,0.9-0.4,0.9-0.9V28.9z"/>
				<path class="st0" d="M279.4,33.6v-7.4c0-0.3,0.2-0.5,0.4-0.5h1.8c0.3,0,0.5,0.2,0.5,0.5v11.7c0,0.3-0.2,0.5-0.5,0.5h-2.2
					c-0.4,0-0.5-0.2-0.6-0.5l-3.7-7.4h-0.2v7.4c0,0.3-0.2,0.5-0.5,0.5h-1.8c-0.3,0-0.5-0.2-0.5-0.5V26.2c0-0.3,0.2-0.5,0.5-0.5h2.3
					c0.4,0,0.5,0.2,0.6,0.5l3.7,7.4H279.4z"/>
				<path class="st0" d="M288.1,35.8l-0.6,2.2c-0.1,0.3-0.3,0.5-0.6,0.5h-2c-0.2,0-0.4-0.2-0.3-0.5l3.8-11.7
					c0.1-0.3,0.3-0.5,0.6-0.5h2.2c0.4,0,0.5,0.2,0.6,0.5l3.8,11.7c0.1,0.3-0.1,0.5-0.3,0.5h-2c-0.4,0-0.5-0.2-0.6-0.5l-0.6-2.2
					H288.1z M291.4,33.3l-1.2-4H290l-1.2,4H291.4z"/>
				<path class="st0" d="M300.8,35.9h5.4c0.3,0,0.5,0.2,0.5,0.5v1.5c0,0.3-0.2,0.5-0.5,0.5h-7.7c-0.3,0-0.5-0.2-0.5-0.5V26.2
					c0-0.3,0.2-0.5,0.5-0.5h1.8c0.3,0,0.5,0.2,0.5,0.5V35.9z"/>
				<path class="st0" d="M161.8,46.2c0-0.3,0.2-0.5,0.5-0.5h5.6c1.9,0,2.8,0.9,2.8,2.8v1.2c0,1.5-1.2,1.8-1.2,1.8v0.2
					c0,0,1.8,0.3,1.8,2.2v1.7c0,1.9-0.9,2.8-2.8,2.8h-6.2c-0.3,0-0.5-0.2-0.5-0.5V46.2z M164.5,48.2v2.4h2.5c0.5,0,0.9-0.4,0.9-0.9
					v-0.6c0-0.5-0.4-0.9-0.9-0.9H164.5z M167.7,55.9c0.5,0,0.9-0.4,0.9-0.9v-1.2c0-0.5-0.4-0.9-0.9-0.9h-3.2v3H167.7z"/>
				<path class="st0" d="M177.2,55.9h5.4c0.3,0,0.5,0.2,0.5,0.4v1.5c0,0.3-0.2,0.5-0.5,0.5h-7.7c-0.3,0-0.5-0.2-0.5-0.5V46.2
					c0-0.3,0.2-0.5,0.5-0.5h1.8c0.3,0,0.5,0.2,0.5,0.5V55.9z"/>
				<path class="st0" d="M194.9,55.8c0,1.9-0.9,2.8-2.8,2.8h-4.4c-1.9,0-2.8-0.9-2.8-2.8v-7.4c0-1.9,0.9-2.8,2.8-2.8h4.4
					c1.9,0,2.8,0.9,2.8,2.8V55.8z M192.2,48.9c0-0.5-0.4-0.9-0.9-0.9h-2.8c-0.5,0-0.9,0.4-0.9,0.9v6.3c0,0.5,0.4,0.9,0.9,0.9h2.8
					c0.5,0,0.9-0.4,0.9-0.9V48.9z"/>
				<path class="st0" d="M208.2,49.6c0,0.3-0.2,0.4-0.5,0.4h-1.8c-0.3,0-0.5-0.2-0.5-0.4v-0.6c0-0.5-0.4-0.9-0.9-0.9H202
					c-0.5,0-0.9,0.4-0.9,0.9v6.3c0,0.5,0.4,0.9,0.9,0.9h2.6c0.5,0,0.9-0.4,0.9-0.9v-0.6c0-0.3,0.2-0.5,0.5-0.5h1.8
					c0.3,0,0.5,0.2,0.5,0.5v1.2c0,1.9-0.9,2.8-2.8,2.8h-4.2c-1.9,0-2.8-0.9-2.8-2.8v-7.4c0-1.9,0.9-2.8,2.8-2.8h4.2
					c1.9,0,2.8,0.9,2.8,2.8V49.6z"/>
				<path class="st0" d="M214.2,50.5h1.7l2-4.3c0.1-0.3,0.3-0.5,0.6-0.5h2c0.2,0,0.4,0.2,0.3,0.5l-2.5,5.5l2.9,6.2
					c0.1,0.3-0.1,0.5-0.4,0.5H219c-0.4,0-0.6-0.2-0.7-0.5l-2.3-5h-1.8v5c0,0.3-0.2,0.5-0.5,0.5H212c-0.3,0-0.4-0.2-0.4-0.5V46.2
					c0-0.3,0.2-0.5,0.4-0.5h1.8c0.3,0,0.5,0.2,0.5,0.5V50.5z"/>
				<path class="st0" d="M233,49.6c0,0.3-0.2,0.4-0.4,0.4h-1.8c-0.3,0-0.5-0.2-0.5-0.4v-0.6c0-0.5-0.4-0.9-0.9-0.9h-2.6
					c-0.5,0-0.9,0.4-0.9,0.9v6.3c0,0.5,0.4,0.9,0.9,0.9h2.6c0.5,0,0.9-0.4,0.9-0.9v-0.6c0-0.3,0.2-0.5,0.5-0.5h1.8
					c0.3,0,0.4,0.2,0.4,0.5v1.2c0,1.9-0.9,2.8-2.8,2.8H226c-1.9,0-2.8-0.9-2.8-2.8v-7.4c0-1.9,0.9-2.8,2.8-2.8h4.2
					c1.9,0,2.8,0.9,2.8,2.8V49.6z"/>
				<path class="st0" d="M239,50.9h4.2v-4.7c0-0.3,0.2-0.5,0.5-0.5h1.8c0.3,0,0.4,0.2,0.4,0.5v11.7c0,0.3-0.2,0.5-0.4,0.5h-1.8
					c-0.3,0-0.5-0.2-0.5-0.5v-4.6H239v4.6c0,0.3-0.2,0.5-0.5,0.5h-1.8c-0.3,0-0.5-0.2-0.5-0.5V46.2c0-0.3,0.2-0.5,0.5-0.5h1.8
					c0.3,0,0.5,0.2,0.5,0.5V50.9z"/>
				<path class="st0" d="M251.9,55.8l-0.6,2.2c-0.1,0.3-0.3,0.5-0.6,0.5h-2c-0.2,0-0.4-0.2-0.3-0.5l3.8-11.7
					c0.1-0.3,0.3-0.5,0.6-0.5h2.2c0.4,0,0.5,0.2,0.6,0.5l3.8,11.7c0.1,0.3-0.1,0.5-0.3,0.5h-2c-0.4,0-0.5-0.2-0.6-0.5l-0.6-2.2
					H251.9z M255.2,53.3l-1.2-4h-0.2l-1.2,4H255.2z"/>
				<path class="st0" d="M264.6,57.9c0,0.3-0.2,0.5-0.4,0.5h-1.8c-0.3,0-0.5-0.2-0.5-0.5V46.2c0-0.3,0.2-0.5,0.5-0.5h1.8
					c0.3,0,0.4,0.2,0.4,0.5V57.9z"/>
				<path class="st0" d="M275.6,53.6v-7.4c0-0.3,0.2-0.5,0.5-0.5h1.8c0.3,0,0.4,0.2,0.4,0.5v11.7c0,0.3-0.2,0.5-0.4,0.5h-2.3
					c-0.4,0-0.5-0.2-0.6-0.5l-3.7-7.4h-0.2v7.4c0,0.3-0.2,0.5-0.5,0.5h-1.8c-0.3,0-0.5-0.2-0.5-0.5V46.2c0-0.3,0.2-0.5,0.5-0.5h2.3
					c0.4,0,0.5,0.2,0.6,0.5l3.7,7.4H275.6z"/>
				<path class="st0" d="M171.4,69.6c0,0.3-0.2,0.4-0.5,0.4h-1.8c-0.3,0-0.5-0.2-0.5-0.4v-0.6c0-0.5-0.4-0.9-0.9-0.9h-2.6
					c-0.5,0-0.9,0.4-0.9,0.9v6.3c0,0.5,0.4,0.9,0.9,0.9h2.6c0.5,0,0.9-0.4,0.9-0.9v-0.6c0-0.3,0.2-0.5,0.5-0.5h1.8
					c0.3,0,0.5,0.2,0.5,0.5v1.2c0,1.9-0.9,2.8-2.8,2.8h-4.2c-1.9,0-2.8-0.9-2.8-2.8v-7.4c0-1.9,0.9-2.8,2.8-2.8h4.2
					c1.9,0,2.8,0.9,2.8,2.8V69.6z"/>
				<path class="st0" d="M184.6,75.8c0,1.9-0.9,2.8-2.8,2.8h-4.4c-1.9,0-2.8-0.9-2.8-2.8v-7.4c0-1.9,0.9-2.8,2.8-2.8h4.4
					c1.9,0,2.8,0.9,2.8,2.8V75.8z M181.9,68.9c0-0.5-0.4-0.9-0.9-0.9h-2.8c-0.5,0-0.9,0.4-0.9,0.9v6.3c0,0.5,0.4,0.9,0.9,0.9h2.8
					c0.5,0,0.9-0.4,0.9-0.9V68.9z"/>
				<path class="st0" d="M195.4,73.6v-7.4c0-0.3,0.2-0.4,0.5-0.4h1.8c0.3,0,0.4,0.2,0.4,0.4v11.7c0,0.3-0.2,0.5-0.4,0.5h-2.3
					c-0.4,0-0.5-0.2-0.6-0.5l-3.7-7.4h-0.2v7.4c0,0.3-0.2,0.5-0.5,0.5h-1.8c-0.3,0-0.5-0.2-0.5-0.5V66.2c0-0.3,0.2-0.4,0.5-0.4h2.3
					c0.4,0,0.5,0.2,0.6,0.4l3.7,7.4H195.4z"/>
				<path class="st0" d="M208.1,74.7c0-0.5-0.2-0.6-0.6-0.8l-4-1.5c-1.3-0.5-2-1.2-2-2.7v-1.3c0-1.9,0.9-2.8,2.8-2.8h3.5
					c1.9,0,2.8,0.9,2.8,2.8v1.2c0,0.3-0.2,0.4-0.5,0.4h-1.8c-0.3,0-0.5-0.2-0.5-0.4v-0.6c0-0.5-0.4-0.9-0.9-0.9h-1.9
					c-0.5,0-0.9,0.4-0.9,0.9v0.5c0,0.5,0.2,0.6,0.6,0.8l4,1.5c1.3,0.5,2,1.2,2,2.7v1.3c0,1.9-0.9,2.8-2.8,2.8h-3.9
					c-1.9,0-2.8-0.9-2.8-2.8v-1.2c0-0.3,0.2-0.5,0.5-0.5h1.8c0.3,0,0.5,0.2,0.5,0.5v0.6c0,0.5,0.4,0.9,0.9,0.9h2.2
					c0.5,0,0.9-0.4,0.9-0.9V74.7z"/>
				<path class="st0" d="M214,66.2c0-0.3,0.2-0.4,0.4-0.4h1.8c0.3,0,0.5,0.2,0.5,0.4v9c0,0.5,0.4,0.9,0.9,0.9h2.4
					c0.5,0,0.9-0.4,0.9-0.9v-9c0-0.3,0.2-0.4,0.4-0.4h1.8c0.3,0,0.5,0.2,0.5,0.4v9.5c0,1.9-0.9,2.8-2.8,2.8h-4.1
					c-1.9,0-2.8-0.9-2.8-2.8V66.2z"/>
				<path class="st0" d="M230.1,76h5.4c0.3,0,0.5,0.2,0.5,0.5v1.5c0,0.3-0.2,0.5-0.5,0.5h-7.7c-0.3,0-0.5-0.2-0.5-0.5V66.2
					c0-0.3,0.2-0.4,0.5-0.4h1.8c0.3,0,0.5,0.2,0.5,0.4V76z"/>
				<path class="st0" d="M241.5,77.9c0,0.3-0.2,0.5-0.5,0.5h-1.8c-0.3,0-0.5-0.2-0.5-0.5v-9.7h-2.9c-0.3,0-0.4-0.2-0.4-0.4v-1.5
					c0-0.3,0.2-0.4,0.4-0.4h8.5c0.3,0,0.5,0.2,0.5,0.4v1.5c0,0.3-0.2,0.4-0.5,0.4h-2.9V77.9z"/>
				<path class="st0" d="M250.1,77.9c0,0.3-0.2,0.5-0.5,0.5h-1.8c-0.3,0-0.5-0.2-0.5-0.5V66.2c0-0.3,0.2-0.4,0.5-0.4h1.8
					c0.3,0,0.5,0.2,0.5,0.4V77.9z"/>
				<path class="st0" d="M261.1,73.6v-7.4c0-0.3,0.2-0.4,0.5-0.4h1.8c0.3,0,0.5,0.2,0.5,0.4v11.7c0,0.3-0.2,0.5-0.5,0.5h-2.3
					c-0.4,0-0.5-0.2-0.6-0.5l-3.7-7.4h-0.2v7.4c0,0.3-0.2,0.5-0.5,0.5h-1.8c-0.3,0-0.4-0.2-0.4-0.5V66.2c0-0.3,0.2-0.4,0.4-0.4h2.3
					c0.4,0,0.5,0.2,0.6,0.4l3.7,7.4H261.1z"/>
				<path class="st0" d="M277.2,75.8c0,1.9-0.9,2.8-2.8,2.8h-4.2c-1.9,0-2.8-0.9-2.8-2.8v-7.4c0-1.9,0.9-2.8,2.8-2.8h4.2
					c1.9,0,2.8,0.9,2.8,2.8v1.2c0,0.3-0.2,0.4-0.5,0.4H275c-0.3,0-0.5-0.2-0.5-0.4v-0.6c0-0.5-0.4-0.9-0.9-0.9H271
					c-0.5,0-0.9,0.4-0.9,0.9v6.3c0,0.5,0.4,0.9,0.9,0.9h2.6c0.5,0,0.9-0.4,0.9-0.9v-1.4h-1.7c-0.3,0-0.5-0.2-0.5-0.5v-1.5
					c0-0.3,0.2-0.5,0.5-0.5h4c0.3,0,0.5,0.2,0.5,0.5V75.8z"/>
			</g>
		</g>
	</g>
</g>
</svg>
