<svg width="206" height="52" viewBox="0 0 206 52" fill="none" xmlns="http://www.w3.org/2000/svg">
<path fill-rule="evenodd" clip-rule="evenodd" d="M65.6875 36.4912H69.3366V15.5088H65.6875V36.4912Z" fill="white"/>
<path fill-rule="evenodd" clip-rule="evenodd" d="M91.2576 21.2844C89.2246 21.2844 87.3548 22.1315 86.2422 23.8997C85.4109 22.1759 83.749 21.2844 81.5975 21.2844C79.7722 21.2844 78.0805 22.087 77.0566 23.7361V21.5815H73.1094V36.7974H77.0566V28.3425C77.0566 26.2176 78.496 24.6278 80.3213 24.6278H80.5587C82.1761 24.6278 82.933 25.6531 82.933 27.6739V36.7974H86.88V28.3425C86.88 26.2176 88.3046 24.6278 90.1299 24.6278H90.3673C91.9847 24.6278 92.7119 25.6531 92.7119 27.6739V36.7974H96.6592V27.2133C96.6592 25.4153 96.2289 23.9738 95.3682 22.8893C94.4927 21.8194 93.1274 21.2844 91.2576 21.2844Z" fill="white"/>
<path fill-rule="evenodd" clip-rule="evenodd" d="M117.515 21.2844C115.482 21.2844 113.613 22.1315 112.5 23.8997C111.669 22.1759 110.007 21.2844 107.855 21.2844C106.03 21.2844 104.338 22.087 103.314 23.7361V21.5815H99.3672V36.7974H103.314V28.3425C103.314 26.2176 104.754 24.6278 106.579 24.6278H106.816C108.434 24.6278 109.191 25.6531 109.191 27.6739V36.7974H113.138V28.3425C113.138 26.2176 114.562 24.6278 116.388 24.6278H116.625C118.243 24.6278 118.97 25.6531 118.97 27.6739V36.7974H122.917V27.2133C122.917 25.4153 122.487 23.9738 121.626 22.8893C120.75 21.8194 119.385 21.2844 117.515 21.2844Z" fill="white"/>
<path fill-rule="evenodd" clip-rule="evenodd" d="M147.417 31.775V24.7763H150.815V21.5817H147.417V16.6482H143.47V21.5817H138.987H135.162H135.04V30.0366C135.04 32.1614 133.63 33.9 131.909 33.9H131.672C130.232 33.9 129.416 32.8302 129.416 30.8687V21.5817H125.469V31.3146C125.469 33.0825 125.899 34.4794 126.76 35.5196C127.605 36.5747 128.896 37.0947 130.603 37.0947C132.488 37.0947 134.105 36.1288 135.04 34.5686V36.7973H138.987V24.7763H143.47V32.845C143.47 35.4157 144.85 36.7973 147.417 36.7973H151.275V33.4542H149.094C147.699 33.4542 147.417 33.1719 147.417 31.775Z" fill="white"/>
<path fill-rule="evenodd" clip-rule="evenodd" d="M161.527 30.5863C161.527 32.5032 159.939 33.8999 158.143 33.8999H157.906C156.823 33.8999 156.021 33.2907 156.021 32.3547C156.021 31.775 156.244 31.3442 156.689 31.0321C157.134 30.72 157.654 30.5417 158.232 30.4971L161.527 30.1554V30.5863ZM165.355 26.7527C165.355 23.2459 162.803 21.2844 158.974 21.2844C155.235 21.2844 152.757 23.4093 152.43 26.292H156.392C156.481 25.3708 157.416 24.4793 158.841 24.4793H159.093C160.547 24.4793 161.527 25.5341 161.527 26.9012V27.2727L157.698 27.6146C156.066 27.7483 154.73 28.2237 153.692 29.0558C152.653 29.8879 152.133 31.0767 152.133 32.6219C152.089 35.2968 154.389 37.1243 157.119 37.0945C159.063 37.0945 160.666 36.2627 161.616 34.9401C161.645 35.7424 161.705 36.3666 161.793 36.7974H165.503C165.4 36.0843 165.355 34.9697 165.355 33.454V26.7527Z" fill="white"/>
<path fill-rule="evenodd" clip-rule="evenodd" d="M175.743 33.9001H175.505C173.695 33.9447 172.003 31.9834 172.033 29.1898C172.003 26.3962 173.695 24.4347 175.505 24.4795H175.743C177.731 24.4795 179.215 26.307 179.215 29.16C179.215 32.013 177.716 33.9001 175.743 33.9001ZM176.411 21.2846C174.378 21.2846 172.686 22.4436 172.033 23.558V15.4895H168.086V36.7976H172.033V34.8213C172.686 35.9357 174.378 37.0947 176.411 37.0947C180.67 37.1691 183.207 33.3503 183.162 29.1898C183.207 25.0291 180.67 21.2102 176.411 21.2846Z" fill="white"/>
<mask id="mask0_2956_4893" style="mask-type:luminance" maskUnits="userSpaceOnUse" x="0" y="0" width="206" height="52">
<path d="M0 52H205.263V0H0V52Z" fill="white"/>
</mask>
<g mask="url(#mask0_2956_4893)">
<path fill-rule="evenodd" clip-rule="evenodd" d="M185.141 36.7974H189.088V15.4893H185.141V36.7974Z" fill="white"/>
</g>
<mask id="mask1_2956_4893" style="mask-type:luminance" maskUnits="userSpaceOnUse" x="0" y="0" width="206" height="52">
<path d="M0 52H205.263V0H0V52Z" fill="white"/>
</mask>
<g mask="url(#mask1_2956_4893)">
<path fill-rule="evenodd" clip-rule="evenodd" d="M194.931 27.3917C195.02 25.5937 196.401 24.4793 198.062 24.4793H198.3C199.962 24.4793 201.342 25.5937 201.431 27.3917H194.931ZM198.329 21.2845C193.878 21.2251 191.058 24.6426 191.103 29.1896C191.029 34.0484 194.516 37.1541 198.329 37.0948C202.054 37.0948 204.458 35.0145 205.2 31.9832H201.283C201.001 33.0976 200.036 33.9001 198.612 33.9001H198.359C196.712 33.9001 195.08 32.4737 194.931 30.4378H205.2C205.244 29.784 205.259 29.3086 205.259 29.0113C205.304 24.5685 202.766 21.2401 198.329 21.2845Z" fill="white"/>
</g>
<mask id="mask2_2956_4893" style="mask-type:luminance" maskUnits="userSpaceOnUse" x="0" y="0" width="206" height="52">
<path d="M0 52H205.263V0H0V52Z" fill="white"/>
</mask>
<g mask="url(#mask2_2956_4893)">
<ellipse cx="25.965" cy="26" rx="25.965" ry="26" fill="black"/>
<path fill-rule="evenodd" clip-rule="evenodd" d="M40.4089 28.0463C40.4019 29.0308 39.8727 29.7209 39.0315 30.2051C35.7686 32.0837 32.511 33.9713 29.251 35.8553C28.6554 36.1994 28.0589 36.542 27.4194 36.9103C27.4094 36.7492 27.3971 36.6406 27.3969 36.5321C27.3954 35.5958 27.4061 34.6592 27.3896 33.7232C27.385 33.4571 27.4736 33.3149 27.7035 33.1828C30.6683 31.4796 33.6222 29.757 36.5916 28.0621C37.1201 27.7604 37.3519 27.3914 37.3475 26.7705C37.3246 23.5386 37.3369 20.3062 37.3369 17.0737V16.5084C38.1115 16.9766 38.8362 17.3604 39.4995 17.831C40.1042 18.2598 40.4089 18.91 40.4116 19.6577C40.422 22.454 40.4285 25.2503 40.4089 28.0463ZM40.3881 34.0275C40.3186 34.8926 39.8119 35.5068 39.0642 35.9374C36.2008 37.5861 33.342 39.2423 30.4812 40.8954C29.5832 41.4144 28.6849 41.9334 27.7862 42.4512C27.678 42.5135 27.5658 42.5683 27.4189 42.6458C27.4097 42.4966 27.3973 42.3875 27.3971 42.2782C27.3954 41.3291 27.4017 40.38 27.3917 39.4308C27.3896 39.2164 27.4436 39.0836 27.641 38.9697C31.8131 36.566 35.9811 34.1547 40.1502 31.7457C40.2139 31.7089 40.2826 31.681 40.4012 31.6238C40.4012 32.4663 40.4503 33.2514 40.3881 34.0275ZM21.5974 16.7292C21.0963 16.434 20.6685 16.4369 20.1673 16.7301C17.36 18.3723 14.5404 19.9936 11.7247 21.6214C11.6054 21.6903 11.4827 21.7537 11.2724 21.8686C11.3469 20.7969 11.1183 19.7862 11.4827 18.8082C11.6821 18.2734 12.054 17.8702 12.5469 17.585C14.8961 16.2252 17.2441 14.8626 19.5986 13.5115C20.4582 13.0179 21.3339 13.0298 22.193 13.5253C24.8662 15.0669 27.5377 16.6112 30.2053 18.1627C30.3193 18.2291 30.4609 18.3754 30.4628 18.4867C30.4822 19.5872 30.4744 20.6883 30.4744 21.8696C29.5043 21.3089 28.6082 20.7915 27.7124 20.2735C25.6727 19.0944 23.6275 17.9247 21.5974 16.7292ZM24.3249 36.9258C24.0667 36.7785 23.8796 36.6731 23.6935 36.5655C21.3322 35.2013 18.9734 33.8325 16.6062 32.4782C16.3507 32.3321 16.2554 32.176 16.2588 31.878C16.2755 30.3391 16.2694 28.8001 16.2631 27.2615C16.2621 27.0533 16.2953 26.9092 16.501 26.7943C17.3726 26.3073 18.2329 25.7996 19.098 25.3007C19.1606 25.2643 19.2284 25.2374 19.3433 25.1827V26.9106C19.3433 27.8469 19.3581 28.7832 19.3375 29.719C19.3259 30.2528 19.5304 30.6124 19.9957 30.8751C21.3337 31.6306 22.6542 32.4166 23.9936 33.1693C24.2571 33.3173 24.3367 33.4816 24.3316 33.7726C24.314 34.7961 24.3249 35.8204 24.3249 36.9258ZM24.3251 42.6582C24.1688 42.5772 24.0507 42.5215 23.9377 42.4563C20.2222 40.3107 16.5133 38.1534 12.7882 36.0247C11.7433 35.4274 11.2673 34.5771 11.277 33.383C11.2976 30.8433 11.2925 28.3032 11.2797 25.7633C11.2736 24.6162 11.7402 23.7862 12.7449 23.2139C15.3603 21.7244 17.9619 20.2107 20.5634 18.697C20.7882 18.5661 20.9528 18.5448 21.1868 18.6856C22.0853 19.2264 22.999 19.7423 23.9546 20.2948C23.7729 20.4031 23.6345 20.4874 23.4944 20.5683C20.6781 22.1969 17.8648 23.8303 15.0421 25.4475C14.5791 25.7126 14.3647 26.056 14.3689 26.5934C14.3834 28.5944 14.3848 30.5957 14.3681 32.5967C14.3635 33.1501 14.5823 33.4995 15.0585 33.7721C18.0371 35.4775 21.0041 37.204 23.9808 38.9128C24.2327 39.0574 24.3401 39.2072 24.3333 39.5098C24.3113 40.535 24.3251 41.5612 24.3251 42.6582ZM24.841 10.5054C25.5616 10.1516 26.3227 10.1756 27.0211 10.574C29.4453 11.9571 31.8627 13.3523 34.2697 14.7648C35.0446 15.2196 35.44 15.9506 35.4441 16.8464C35.4586 19.988 35.4526 23.1298 35.4443 26.2714C35.4441 26.3879 35.3688 26.5568 35.2757 26.6123C34.3431 27.1684 33.3991 27.7059 32.3772 28.2957V27.8016C32.3772 24.5701 32.368 21.3387 32.3852 18.1074C32.3883 17.4869 32.1741 17.0868 31.6243 16.774C28.8091 15.1723 26.0105 13.5411 23.2066 11.9195C23.0854 11.8495 22.9668 11.7746 22.7837 11.6634C23.5036 11.2541 24.154 10.8427 24.841 10.5054ZM25.965 0C11.625 0 0 11.6406 0 26C0 40.3594 11.625 52 25.965 52C40.3051 52 51.9301 40.3594 51.9301 26C51.9301 11.6406 40.3051 0 25.965 0Z" fill="white"/>
</g>
</svg>
