<svg width="140" height="32" viewBox="0 0 140 32" fill="none" xmlns="http://www.w3.org/2000/svg">
<g clip-path="url(#clip0_132_1400)">
<path d="M108.954 15.9853C108.954 15.1692 108.954 14.4015 108.928 13.6925C108.91 13.0236 108.843 12.357 108.729 11.6976C108.623 11.0956 108.435 10.5109 108.17 9.95965C107.891 9.39132 107.518 8.87421 107.066 8.43011C106.426 7.77415 105.664 7.24915 104.823 6.88442C103.914 6.51593 102.939 6.33326 101.958 6.34717C100.973 6.33445 99.9951 6.51704 99.081 6.88442C98.2352 7.24417 97.4686 7.76689 96.8248 8.42277C96.3743 8.8666 96.0025 9.38382 95.7254 9.95231C95.463 10.5037 95.2778 11.0885 95.1749 11.6903C95.0635 12.3498 94.9998 13.0165 94.9841 13.6852C94.9665 14.3941 94.9577 15.1619 94.9621 15.978C94.9665 16.7941 94.9621 17.556 94.9841 18.2694C94.9998 18.938 95.0635 19.6047 95.1749 20.2642C95.2778 20.8661 95.463 21.4509 95.7254 22.0022C96.0036 22.5701 96.3752 23.0871 96.8248 23.5318C97.4676 24.1882 98.2345 24.7101 99.081 25.0672C99.9945 25.437 100.973 25.6206 101.958 25.6074C102.94 25.6218 103.914 25.4381 104.823 25.0672C105.664 24.7073 106.426 24.1856 107.066 23.5318C107.517 23.0868 107.89 22.5699 108.17 22.0022C108.435 21.451 108.623 20.8663 108.729 20.2642C108.842 19.6068 108.907 18.9421 108.925 18.2752C108.947 17.5619 108.957 16.7986 108.951 15.9839L108.954 15.9853ZM105.255 15.9853C105.255 16.8896 105.242 17.6426 105.211 18.2415C105.194 18.7334 105.145 19.2237 105.064 19.7094C105.009 20.0329 104.91 20.3475 104.77 20.6444C104.657 20.8837 104.509 21.1049 104.33 21.3006C104.055 21.616 103.713 21.8666 103.329 22.0345C102.897 22.2193 102.432 22.3132 101.962 22.3105C101.49 22.3126 101.023 22.2187 100.588 22.0345C100.195 21.8698 99.8443 21.619 99.561 21.3006C99.3814 21.1058 99.2328 20.8844 99.1206 20.6444C98.9847 20.3472 98.8908 20.0325 98.8417 19.7094C98.7633 19.2235 98.7143 18.7333 98.6949 18.2415C98.6685 17.6426 98.6553 16.8905 98.6553 15.9853C98.6553 15.0811 98.6685 14.3266 98.6949 13.7277C98.7144 13.2359 98.7634 12.7457 98.8417 12.2598C98.8908 11.9367 98.9847 11.622 99.1206 11.3248C99.2332 11.085 99.3817 10.8637 99.561 10.6686C99.8447 10.3507 100.196 10.1 100.588 9.9347C101.022 9.74846 101.49 9.65448 101.962 9.65873C102.432 9.65386 102.898 9.74788 103.329 9.9347C103.712 10.1031 104.054 10.3536 104.33 10.6686C104.508 10.8646 104.657 11.0857 104.77 11.3248C104.91 11.6217 105.009 11.9363 105.064 12.2598C105.144 12.7455 105.193 13.2358 105.211 13.7277C105.243 14.3252 105.255 15.0797 105.255 15.9853Z" fill="#23AF91"/>
<path d="M138.429 6.83759C138.427 6.65909 138.283 6.51478 138.105 6.51318H135.053C134.874 6.51399 134.729 6.65876 134.728 6.83759V18.111L127.286 6.60419C127.236 6.52639 127.192 6.51318 127.082 6.51318H124.252C124.074 6.51555 123.93 6.65942 123.928 6.83759V25.1304C123.93 25.3084 124.074 25.4518 124.252 25.4534H127.302C127.48 25.4526 127.625 25.3085 127.625 25.1304V13.8277L135.069 25.3609C135.12 25.4387 135.161 25.4519 135.273 25.4519H138.102C138.28 25.4511 138.424 25.3072 138.426 25.129L138.429 6.83759Z" fill="#23AF91"/>
<path d="M117.973 6.83759C117.972 6.65876 117.827 6.51399 117.649 6.51318H114.6C114.421 6.51399 114.276 6.65876 114.275 6.83759V25.129C114.276 25.3078 114.421 25.4526 114.6 25.4534H117.649C117.827 25.4526 117.972 25.3078 117.973 25.129V6.83759Z" fill="#23AF91"/>
<path d="M81.4755 15.9855C81.4755 15.0754 81.4858 14.3179 81.5122 13.7146C81.5302 13.2227 81.5792 12.7325 81.659 12.2468C81.9408 10.6174 83.1885 9.65593 84.7812 9.65593C85.8205 9.66473 86.7628 10.0493 87.3647 10.9242C87.6372 11.3326 87.836 11.7857 87.9518 12.2629C87.9608 12.3132 88.0067 12.3482 88.0575 12.3436H91.6465C91.6979 12.3436 91.717 12.3084 91.7082 12.2585C91.3162 10.0376 90.1316 8.04271 88.0384 7.05482C87.0097 6.57851 85.8868 6.34019 84.7533 6.35758C82.7325 6.35758 81.0302 7.04944 79.6465 8.43317C78.8565 9.20312 78.3173 10.1936 78.0994 11.275C77.888 12.3397 77.7813 13.9094 77.7793 15.984C77.7774 18.0586 77.8841 19.6278 78.0994 20.6915C78.3154 21.7743 78.8531 22.7668 79.6421 23.5392C81.0249 24.922 82.7271 25.6134 84.7489 25.6134C85.8822 25.6305 87.0049 25.3927 88.034 24.9176C90.1272 23.9297 91.3118 21.9348 91.7038 19.7139C91.7126 19.6625 91.6935 19.6288 91.6421 19.6288H88.0516C88.0006 19.6234 87.9542 19.6588 87.946 19.7095C87.8298 20.1861 87.6311 20.6387 87.3588 21.0468C86.757 21.9275 85.8146 22.3077 84.7753 22.315C83.1827 22.315 81.9349 21.355 81.6531 19.7257C81.5734 19.2399 81.5243 18.7497 81.5063 18.2578C81.4858 17.6515 81.4755 16.8926 81.4755 15.9855Z" fill="#23AF91"/>
<path d="M43.5687 6.83759C43.5679 6.65876 43.4231 6.51399 43.2443 6.51318H40.1955C40.0167 6.51399 39.8719 6.65876 39.8711 6.83759V25.1304C39.8727 25.3087 40.0172 25.4526 40.1955 25.4535H43.2443C43.4226 25.4526 43.5671 25.3087 43.5687 25.1304V19.7609L46.0157 16.8354L51.0417 25.3565C51.0804 25.4193 51.15 25.4564 51.2238 25.4535H54.9287C55.099 25.4535 55.1298 25.3477 55.0447 25.2024L48.4641 14.0464L54.5016 6.80383C54.6234 6.65704 54.572 6.51759 54.3812 6.51759H50.3313C50.282 6.51469 50.2346 6.53675 50.205 6.5763L43.5687 14.5352V6.83759Z" fill="#23AF91"/>
<path d="M65.7801 22.315C64.0641 22.315 62.5082 20.7268 62.5082 18.8302V6.83759C62.5074 6.65876 62.3626 6.51399 62.1838 6.51318H59.1349C58.9561 6.51399 58.8114 6.65876 58.8105 6.83759V18.7833C58.8105 22.9594 61.9342 25.6134 65.7801 25.6134C69.626 25.6134 72.7496 22.9594 72.7496 18.7833V6.83759C72.748 6.65909 72.6037 6.51478 72.4252 6.51318H69.375C69.1967 6.51479 69.0528 6.65933 69.052 6.83759V18.8302C69.052 20.7253 67.4946 22.315 65.7801 22.315Z" fill="#23AF91"/>
<path fill-rule="evenodd" clip-rule="evenodd" d="M9.22422 15.9854L18.6892 25.4518L24.6635 19.4775C25.7318 18.5156 27.3661 18.5584 28.3826 19.5749C29.3991 20.5914 29.4419 22.2257 28.48 23.294L20.596 31.1795C19.537 32.221 17.8385 32.221 16.7794 31.1795L5.40477 19.8019V26.5645C5.40477 28.0569 4.19487 29.2668 2.70239 29.2668C1.2099 29.2668 0 28.0569 0 26.5645V5.39749C0 3.905 1.2099 2.6951 2.70239 2.6951C4.19487 2.6951 5.40477 3.905 5.40477 5.39749V12.1601L16.778 0.785375C17.8367 -0.256909 19.5358 -0.256909 20.5945 0.785375L28.4844 8.66941C29.4463 9.7377 29.4035 11.3721 28.387 12.3886C27.3705 13.405 25.7362 13.4478 24.6679 12.4859L18.6936 6.51161L9.22422 15.9854ZM18.6936 13.2801C17.5992 13.2795 16.6123 13.9382 16.1931 14.9491C15.7739 15.9599 16.005 17.1238 16.7786 17.8978C17.5522 18.6718 18.716 18.9036 19.7271 18.4849C20.7381 18.0663 21.3974 17.0797 21.3974 15.9854C21.3978 15.2679 21.1132 14.5796 20.6061 14.072C20.099 13.5644 19.4111 13.279 18.6936 13.2786V13.2801Z" fill="#23AF91"/>
</g>
<defs>
<clipPath id="clip0_132_1400">
<rect width="139.429" height="32" fill="white"/>
</clipPath>
</defs>
</svg>
