<svg width="214" height="64" viewBox="0 0 214 64" fill="none" xmlns="http://www.w3.org/2000/svg">
<g id="manta 1">
<path id="Vector" fill-rule="evenodd" clip-rule="evenodd" d="M14.8783 54.9478C7.89566 49.7304 3.36522 41.3914 3.36522 32C3.36522 16.1913 16.1913 3.36522 32 3.36522C45.0522 3.36522 59.3044 11.1652 62.7478 23.113C58.8956 9.76522 46.5914 0 32 0C14.3304 0 0 14.3304 0 32C0 49.6696 14.3304 64 32 64C49.6696 64 64 49.6696 64 32V30.313H62.2434C62.1914 30.313 62.113 30.313 62.0086 30.313C61.8 30.313 61.5044 30.3044 61.1218 30.287C60.3652 30.2608 59.3218 30.2086 58.1478 30.1044C55.7478 29.8956 53.0086 29.487 51.1478 28.7392C48.1478 27.5392 46.4522 25.9566 44.5218 24.0956L44.4086 23.9914C42.4696 22.1304 40.2956 20.0348 36.513 18.2609C32.7914 16.513 28.6782 16.7913 25.6608 17.4174C24.1304 17.7304 22.8086 18.1478 21.8782 18.487C21.4086 18.6522 21.0348 18.8087 20.774 18.913C19.2522 19.5565 17.7739 20.313 16.287 21.0174C16.287 21.0174 19.2174 21.8174 20.6608 22.2696C20.713 22.287 20.7914 22.313 20.9044 22.3478C21.1218 22.4174 21.4348 22.5304 21.8086 22.687C22.574 23 23.574 23.4608 24.5652 24.1044C26.1304 25.1044 27.426 26.374 27.9566 27.9218C24.6434 28.3566 21.5304 29.8174 19.2 31.1826C17.7913 32.0086 16.6174 32.8434 15.7913 33.4608C15.3826 33.774 15.0522 34.0348 14.8261 34.2174C14.6348 34.374 11.6435 37.0086 11.6435 37.0086C11.6435 37.0086 15.5043 37.4174 17.4087 37.8C18.6783 38.0522 20.3826 38.4696 22.174 39.087C23.9652 39.713 25.774 40.5304 27.2782 41.5826C28.7826 42.6348 29.887 43.8434 30.426 45.2348C32.0086 49.287 30.4522 53.226 27.3304 55.4434C24.2434 57.6348 19.5565 58.1566 14.8696 54.9392L14.8783 54.9478ZM25.8 59.9566C27.0608 59.5478 28.2348 58.9478 29.2956 58.2C33.5392 55.1826 35.774 49.6522 33.574 44.0174C32.7044 41.8 31.0522 40.113 29.2174 38.826C27.374 37.5392 25.2608 36.6 23.2956 35.913C22.0086 35.4608 20.7566 35.113 19.6696 34.8522C20.0608 34.6 20.4696 34.3392 20.913 34.0782C23.5044 32.5566 26.774 31.1566 29.9044 31.1566C34.626 31.1566 38.1392 32.6086 41.4956 34.1566C41.8 34.2956 42.1044 34.4434 42.4174 34.5826C45.4174 35.9914 48.5652 37.4696 52.226 37.4696C55.887 37.4696 58.5392 36.4696 60.4434 35.426C58.7478 49.6174 46.6696 60.626 32.0174 60.626C29.887 60.626 27.8086 60.3914 25.8174 59.9566H25.8ZM56.7914 33.3652C55.5304 33.7914 54 34.1044 52.2174 34.1044C49.3478 34.1044 46.8782 32.9566 43.7478 31.4956C43.4696 31.3652 43.1914 31.2348 42.9044 31.1044C39.7652 29.6522 36.1392 28.113 31.4174 27.8348C30.7826 24.713 28.4174 22.574 26.3826 21.2696C26.1566 21.1218 25.9304 20.9826 25.7044 20.8522C25.9044 20.8086 26.113 20.7566 26.3304 20.713C29.0608 20.1478 32.313 20.0086 35.0696 21.313C38.3392 22.8522 40.1914 24.626 42.113 26.4696L42.1826 26.5304C44.1566 28.426 46.2522 30.4174 49.8956 31.8782C51.9218 32.687 54.5478 33.1218 56.7914 33.3652Z" fill="url(#paint0_linear_1198_734)"/>
<g id="Group">
<path id="Vector_2" d="M84.7148 25.105V6.20068H88.3322L91.4626 13.792L94.593 6.20068H98.2104V25.105H95.3756V10.5746L91.4364 19.9398L87.4974 10.5746V25.105H84.7148Z" fill="white"/>
<path id="Vector_3" d="M102.508 25.105L108.447 6.20068H112.282L118.221 25.105H114.925L113.551 20.5398H107.047L105.699 25.105H102.517H102.508ZM107.769 18.0268H112.847L110.308 9.62678L107.769 18.0268Z" fill="white"/>
<path id="Vector_4" d="M122.863 25.105V6.20068H126.133L132.968 19.4268L132.915 6.20068H135.672V25.105H132.672L125.568 11.4442L125.62 25.105H122.863Z" fill="white"/>
<path id="Vector_5" d="M146.54 25.105V8.9572H140.68V6.20068H155.636V8.9572H149.775V25.105H146.532H146.54Z" fill="white"/>
<path id="Vector_6" d="M159.211 25.105L165.15 6.20068H168.985L174.924 25.105H171.628L170.254 20.5398H163.75L162.402 25.105H159.22H159.211ZM164.472 18.0268H169.55L167.011 9.62678L164.472 18.0268Z" fill="white"/>
<path id="Vector_7" d="M85.0625 57.505V38.6006H88.3321L95.1669 51.8266L95.1147 38.6006H97.8711V57.505H94.8711L87.7669 43.844L87.8191 57.505H85.0625Z" fill="white"/>
<path id="Vector_8" d="M104.61 57.505V38.6006H116.975V41.3572H107.845V46.6266H113.758V49.3224H107.845V54.7484H117.08V57.505H104.602H104.61Z" fill="white"/>
<path id="Vector_9" d="M127.646 57.505V41.3572H121.785V38.6006H136.742V41.3572H130.881V57.505H127.637H127.646Z" fill="white"/>
<path id="Vector_10" d="M142.741 57.505L140.523 38.6006H143.384L144.576 51.0788L147.002 38.6006H149.428L151.854 50.9658L153.045 38.6006H155.802L153.61 57.505H150.697L148.184 44.1658L145.645 57.505H142.732H142.741Z" fill="white"/>
<path id="Vector_11" d="M167.062 57.8006C165.731 57.8006 164.505 57.418 163.392 56.67C162.279 55.9136 161.383 54.8092 160.723 53.3658C160.053 51.9136 159.723 50.1484 159.723 48.0614C159.723 45.9744 160.053 44.2006 160.723 42.757C161.392 41.3048 162.279 40.2092 163.392 39.4526C164.505 38.6962 165.731 38.3222 167.062 38.3222C168.392 38.3222 169.61 38.7048 170.723 39.4526C171.827 40.2092 172.723 41.3136 173.392 42.757C174.07 44.2092 174.401 45.9744 174.401 48.0614C174.401 50.1484 174.062 51.9222 173.392 53.3658C172.714 54.818 171.827 55.9136 170.723 56.67C169.618 57.4266 168.392 57.8006 167.062 57.8006ZM167.062 54.8874C167.818 54.8874 168.505 54.6354 169.131 54.1136C169.749 53.6006 170.244 52.8354 170.601 51.818C170.957 50.8006 171.14 49.5484 171.14 48.0528C171.14 46.557 170.957 45.3048 170.601 44.2962C170.244 43.2874 169.749 42.5222 169.131 42.0006C168.514 41.4788 167.818 41.218 167.062 41.218C166.305 41.218 165.618 41.4788 164.992 42.0006C164.375 42.5222 163.879 43.2874 163.523 44.2962C163.166 45.3048 162.983 46.557 162.983 48.0528C162.983 49.5484 163.166 50.8006 163.523 51.818C163.879 52.8354 164.375 53.6006 164.992 54.1136C165.61 54.6266 166.305 54.8874 167.062 54.8874Z" fill="white"/>
<path id="Vector_12" d="M180.079 57.505V38.6006H186.505C187.766 38.6006 188.87 38.8354 189.81 39.3136C190.757 39.7918 191.488 40.4528 192.027 41.3136C192.557 42.1658 192.827 43.1658 192.827 44.2962C192.827 45.5398 192.505 46.6092 191.853 47.505C191.201 48.4092 190.323 49.0614 189.21 49.4788L193.34 57.4962H189.853L186.097 49.9398H183.314V57.4962H180.07L180.079 57.505ZM183.323 47.3572H186.236C187.244 47.3572 188.044 47.0788 188.653 46.531C189.253 45.9832 189.557 45.2614 189.557 44.3572C189.557 43.4528 189.253 42.705 188.653 42.1572C188.053 41.6092 187.244 41.331 186.236 41.331H183.323V47.3484V47.3572Z" fill="white"/>
<path id="Vector_13" d="M198.681 57.505V38.6006H201.924V47.0528L208.698 38.6006H212.394L204.776 47.7572L212.742 57.505H208.662L201.914 48.8614V57.505H198.672H198.681Z" fill="white"/>
</g>
</g>
<defs>
<linearGradient id="paint0_linear_1198_734" x1="-0.573914" y1="32.5914" x2="64.574" y2="31.4" gradientUnits="userSpaceOnUse">
<stop stop-color="#29CCB9"/>
<stop offset="0.49" stop-color="#0091FF"/>
<stop offset="1" stop-color="#FF66B7"/>
</linearGradient>
</defs>
</svg>
