<svg width="472" height="89" viewBox="0 0 472 89" fill="none" xmlns="http://www.w3.org/2000/svg">
<path fill-rule="evenodd" clip-rule="evenodd" d="M19.419 38.6896C20.6548 41.3376 18.7717 44.5153 15.7118 44.5153C13.9464 44.5153 11.6514 43.103 11.6514 40.3961C11.6514 34.6292 9.94489 31.8635 8.00299 31.0985C8.00299 42.7499 0 47.0456 0 60.2859C0 73.5261 7.8853 83.7652 19.0071 88.1786C15.4764 85.1187 13.2402 80.5876 13.2402 75.5268C13.2402 60.1093 33.0712 56.2255 25.7743 40.043C28.6578 43.868 33.8362 62.2866 27.7751 74.4088C31.4823 72.4669 37.6023 65.7585 39.8973 62.2866C36.955 78.4103 40.4269 77.1745 43.5457 75.9976C44.7226 75.5268 45.8995 75.0561 46.6056 75.5857C47.9591 76.4684 44.3695 85.1775 40.8388 88.2375C51.9606 83.8829 59.8459 73.0553 59.8459 60.3447C59.8459 32.0989 24.5974 30.6866 34.3069 0.20459C24.8917 4.50031 10.3568 18.9175 19.419 38.6896Z" fill="#FFA723"/>
<path d="M95.1537 40.9267V77.9406H84.4438V22.2139H98.5668L114.749 63.5234L130.991 22.2139H145.114V77.9406H134.404V40.6325L119.633 77.9994H109.747L95.1537 40.9267Z" fill="white"/>
<path d="M187.246 65.9949H165.591L161.295 77.9406H149.409L170.358 22.2139H183.245L204.076 77.9406H191.424L187.246 65.9949ZM168.945 56.5796H184.01L176.536 35.101L168.945 56.5796Z" fill="white"/>
<path d="M216.846 77.9406V32.8649H199.31V22.2139H246.269V32.8649H228.674V77.9994H216.846V77.9406Z" fill="white"/>
<path d="M244.621 49.9891C244.621 33.6889 256.861 21.0371 272.573 21.0371C287.225 21.0371 298.759 30.8055 300.701 45.1049H288.226C286.931 37.1019 280.693 31.5705 272.749 31.5705C263.216 31.5705 256.743 39.1027 256.743 49.9891C256.743 60.9344 263.216 68.5254 272.749 68.5254C280.693 68.5254 286.813 62.9351 288.226 54.9321H300.701C298.759 69.3493 287.284 79.0588 272.573 79.0588C256.861 79.1176 244.621 66.407 244.621 49.9891Z" fill="white"/>
<path d="M306.585 77.9406V22.2139H318.354V44.1632H342.481V22.2139H354.309V77.9406H342.481V54.3435H318.354V77.9406H306.585Z" fill="white"/>
<path d="M397.738 61.3461H370.316L363.843 77.9406H360.135L382.085 22.2139H386.204L408.036 77.9406H404.152L397.738 61.3461ZM371.551 58.1685H396.443L384.027 26.1565L371.551 58.1685Z" fill="white"/>
<path d="M414.744 77.9406V22.2139H418.569V77.9406H414.744Z" fill="white"/>
<path d="M432.75 27.5688V77.9406H429.16V22.2139H433.456L468.41 72.5268V22.2139H472V77.9406H467.704L432.75 27.5688Z" fill="white"/>
</svg>
