<svg width="157" height="32" viewBox="0 0 157 32" fill="none" xmlns="http://www.w3.org/2000/svg">
<path d="M51.2587 22.5977L39.993 3.05609C37.5233 -1.01687 31.5004 -1.06021 29.1173 3.2294L17.2885 23.5509C15.0786 27.2772 17.8083 31.9568 22.228 31.9568H45.9291C50.3921 31.9568 53.7285 27.1472 51.2587 22.5977Z" fill="#3156AA"/>
<path d="M35.0104 24.1142L34.3172 22.9009C33.6673 21.7743 32.2373 19.3479 32.2373 19.3479L22.7049 2.7961C20.2351 -0.886896 14.3857 -1.1902 11.9159 3.44604L0.823583 22.6409C-1.47287 26.6706 1.25688 31.9134 6.23976 31.9569H29.8109H39.8633H45.8428C39.7334 32.0002 37.7836 28.837 35.0104 24.1142Z" fill="#1972E2"/>
<path d="M35.0104 24.1141L34.3172 22.9011C33.6673 21.7744 32.2373 19.348 32.2373 19.348L26.0846 8.51562L17.2454 23.5943C15.0357 27.3206 17.7654 32.0001 22.1851 32.0001H29.7676H39.82H45.8429C39.6901 31.9568 37.7835 28.8371 35.0104 24.1141Z" fill="url(#paint0_linear_139_5027)"/>
<path d="M89.502 30.2228V7.64819H108.264V9.07807C108.264 10.2046 107.354 11.1145 106.227 11.1145H94.1815V17.1806H106.227V20.6471H94.1815V26.713H106.227C107.354 26.713 108.264 27.623 108.264 28.7496V30.1795L89.502 30.2228Z" fill="white"/>
<path d="M135.215 7.64819H130.795C129.972 7.64819 129.235 7.99482 128.715 8.64476L123.386 15.3608L118.056 8.6881C117.536 8.03816 116.799 7.69152 115.976 7.69152H111.557L120.526 18.9571L111.557 30.2228H115.976C116.799 30.2228 117.536 29.8762 118.056 29.2263L123.386 22.5535L128.758 29.2696C129.278 29.8762 130.015 30.2661 130.838 30.2661H135.258L126.289 19.0004L135.215 7.64819Z" fill="white"/>
<path d="M74.8129 27.8412L80.9656 17.0956V30.1811H85.6453V7.60645H82.7422C81.8322 7.60645 80.9656 8.08306 80.5324 8.90632L73.1664 22.3384L65.8004 8.90632C65.367 8.08306 64.5004 7.60645 63.5905 7.60645H60.6875V30.1811H65.367V17.0956L71.5198 27.8412H74.8129Z" fill="white"/>
<path d="M147.433 30.4832C140.934 30.5698 135.648 25.4569 135.604 18.9575C135.604 15.4045 136.688 12.4581 138.724 10.4216C140.761 8.42846 143.707 7.34521 147.217 7.34521C151.333 7.34521 154.583 8.77509 156.922 11.5482L155.449 12.8047C154.539 13.5847 153.196 13.628 152.2 12.8914C150.9 11.8948 149.253 11.4182 147.39 11.4182C142.797 11.4182 140.067 14.1913 140.067 18.8709C140.067 23.5937 142.884 26.4969 147.39 26.4969C149.296 26.4969 150.9 25.9769 152.2 25.0236C153.153 24.287 154.496 24.3304 155.449 25.1103L156.922 26.3668C154.583 29.0966 151.463 30.4832 147.433 30.4832Z" fill="white"/>
<defs>
<linearGradient id="paint0_linear_139_5027" x1="14.0996" y1="16.743" x2="41.483" y2="26.8623" gradientUnits="userSpaceOnUse">
<stop stop-color="#264CA2" stop-opacity="0"/>
<stop offset="1" stop-color="#234588"/>
</linearGradient>
</defs>
</svg>
