<svg width="261" height="53" viewBox="0 0 261 53" fill="none" xmlns="http://www.w3.org/2000/svg">
<g clip-path="url(#clip0_1045_922)">
<path d="M22.7984 0L45.9504 13.122L41.8234 15.5C39.5592 16.7695 37.0068 17.4362 34.4109 17.4362C31.8151 17.4362 29.2627 16.7695 26.9984 15.5L22.8724 13.127L11.3984 19.543V6.491L22.7984 0Z" fill="white"/>
<path d="M0 13.262L11.4 19.753V27.989C11.4064 29.4601 11.7974 30.904 12.5342 32.1773C13.2709 33.4507 14.3278 34.5093 15.6 35.248L22.8 39.3L11.26 45.861L0 39.436V13.262Z" fill="white"/>
<path d="M22.8008 39.3V52.418L45.9528 39.3L43.8528 38.113C40.9783 36.4669 37.7233 35.6008 34.4108 35.6008C31.0983 35.6008 27.8433 36.4669 24.9688 38.113L22.8008 39.3Z" fill="white"/>
<path d="M22.4141 39.352V52.982L46.5141 39.352L44.3301 38.12C41.337 36.4096 37.9494 35.5099 34.5021 35.5099C31.0548 35.5099 27.6671 36.4096 24.6741 38.12L22.4141 39.352Z" fill="#6ACCBF"/>
<path d="M74.1016 27.175C74.0579 26.687 74.1168 26.1954 74.2744 25.7316C74.4321 25.2678 74.685 24.8421 75.017 24.4818C75.349 24.1216 75.7526 23.8348 76.2021 23.6399C76.6515 23.445 77.1367 23.3462 77.6266 23.35C78.1189 23.345 78.6069 23.4425 79.0596 23.6364C79.5122 23.8302 79.9196 24.116 80.2558 24.4757C80.592 24.8355 80.8497 25.2612 81.0125 25.7259C81.1754 26.1906 81.2397 26.6841 81.2016 27.175V33H84.7016V27.175C84.6579 26.687 84.7168 26.1954 84.8744 25.7316C85.0321 25.2678 85.285 24.8421 85.617 24.4818C85.949 24.1216 86.3526 23.8348 86.8021 23.6399C87.2515 23.445 87.7367 23.3462 88.2266 23.35C88.7189 23.345 89.2069 23.4425 89.6596 23.6364C90.1122 23.8302 90.5196 24.116 90.8558 24.4757C91.192 24.8355 91.4497 25.2612 91.6125 25.7259C91.7754 26.1906 91.8397 26.6841 91.8016 27.175V33H95.3016V27.175C95.3016 23 92.7266 20.125 89.1266 20.125C88.0124 20.1372 86.9271 20.4815 86.0097 21.1139C85.0923 21.7463 84.3844 22.638 83.9766 23.675C83.5246 22.608 82.7646 21.7002 81.7936 21.0678C80.8227 20.4353 79.6852 20.107 78.5266 20.125C77.6464 20.1265 76.7797 20.341 76.0004 20.7503C75.2211 21.1595 74.5525 21.7512 74.0516 22.475L73.7266 20.5H70.6016V33H74.1016V27.175ZM98.4516 20.5V38H101.952V31.425C103.343 32.7297 105.195 33.4307 107.102 33.375C111.277 33.375 114.377 30.55 114.377 26.725C114.377 22.95 111.252 20.125 107.102 20.125C105.176 20.0732 103.307 20.7829 101.902 22.1L101.577 20.5H98.4516ZM110.877 26.725C110.877 28.775 109.027 30.275 106.352 30.275C103.727 30.275 101.952 28.825 101.952 26.725C101.952 24.65 103.727 23.2 106.352 23.2C108.977 23.2 110.877 24.675 110.877 26.725ZM119.552 26.775C119.552 24.75 121.302 23.3 123.702 23.3C124.474 23.226 125.25 23.381 125.935 23.7455C126.62 24.1101 127.182 24.6681 127.552 25.35H131.177C130.502 22.15 127.552 20.125 123.702 20.125C119.302 20.125 116.052 22.95 116.052 26.775C116.052 30.55 119.327 33.375 123.702 33.375C127.577 33.375 130.552 31.3 131.202 28.125H127.577C127.002 29.425 125.602 30.175 123.702 30.175C121.327 30.175 119.552 28.775 119.552 26.775Z" fill="white"/>
<path d="M150.925 27.325C150.925 27.125 150.95 26.95 150.95 26.775C151.004 25.9026 150.875 25.0286 150.571 24.2091C150.267 23.3896 149.794 22.6428 149.185 22.0166C148.575 21.3903 147.841 20.8985 147.03 20.5728C146.219 20.247 145.349 20.0945 144.475 20.125C143.61 20.1131 142.751 20.2788 141.953 20.612C141.155 20.9452 140.433 21.4388 139.833 22.0622C139.233 22.6857 138.767 23.4256 138.465 24.2362C138.163 25.0469 138.03 25.911 138.075 26.775C138.039 27.6344 138.179 28.4921 138.485 29.2958C138.792 30.0995 139.258 30.8324 139.857 31.4499C140.456 32.0674 141.174 32.5565 141.968 32.8875C142.762 33.2184 143.615 33.3843 144.475 33.375C145.763 33.4132 147.032 33.0579 148.113 32.3567C149.193 31.6555 150.035 30.6416 150.525 29.45H148.475C148.079 30.1618 147.499 30.7536 146.795 31.1628C146.091 31.5721 145.289 31.7836 144.475 31.775C142.1 31.775 140.325 29.9 140.1 27.325H150.925ZM140.1 26.175C140.117 25.0176 140.582 23.9118 141.398 23.0909C142.215 22.2701 143.318 21.7983 144.475 21.775C145.648 21.7697 146.776 22.23 147.61 23.0549C148.444 23.8797 148.917 25.0019 148.925 26.175H140.1ZM165.95 33V15.5H163.95V23C163.465 22.1211 162.751 21.3898 161.884 20.8836C161.017 20.3775 160.029 20.1153 159.025 20.125C155.6 20.125 153.075 22.95 153.075 26.775C153.075 30.55 155.625 33.375 159.025 33.375C160.035 33.3854 161.03 33.1211 161.901 32.6103C162.773 32.0996 163.49 31.3615 163.975 30.475L164.2 33H165.95ZM155.075 26.75C155.03 26.1344 155.113 25.5162 155.317 24.9339C155.522 24.3516 155.844 23.8175 156.264 23.365C156.684 22.9124 157.192 22.5511 157.757 22.3033C158.323 22.0556 158.933 21.9269 159.55 21.925C162.15 21.925 163.95 23.925 163.95 26.75C163.95 29.6 162.175 31.55 159.55 31.55C158.936 31.5448 158.329 31.4146 157.767 31.1673C157.205 30.9201 156.7 30.5609 156.281 30.1118C155.862 29.6627 155.539 29.133 155.332 28.555C155.125 27.9771 155.037 27.3629 155.075 26.75ZM179.925 26.675C179.925 29.525 178.275 31.475 175.85 31.475C173.425 31.475 171.825 29.55 171.825 26.675V20.5H169.825V26.675C169.825 30.575 172.075 33.375 175.25 33.375C176.219 33.3732 177.169 33.1068 177.997 32.6045C178.825 32.1022 179.501 31.3832 179.95 30.525L180.2 33H181.925V20.5H179.925V26.675ZM186.95 26.75C186.916 26.1305 187.008 25.5105 187.221 24.9278C187.434 24.345 187.763 23.8117 188.189 23.3603C188.614 22.9089 189.127 22.5489 189.697 22.3021C190.266 22.0554 190.88 21.9271 191.5 21.925C192.441 21.9081 193.364 22.1825 194.143 22.7106C194.921 23.2388 195.518 23.9948 195.85 24.875H197.925C197.547 23.4748 196.706 22.2437 195.54 21.3814C194.373 20.5191 192.95 20.0764 191.5 20.125C190.626 20.1056 189.757 20.2651 188.947 20.5937C188.137 20.9224 187.403 21.4132 186.789 22.036C186.176 22.6588 185.696 23.4005 185.38 24.2154C185.064 25.0304 184.917 25.9015 184.95 26.775C184.925 27.6444 185.076 28.5099 185.396 29.3189C185.715 30.1278 186.196 30.8633 186.809 31.4806C187.421 32.098 188.153 32.5843 188.96 32.91C189.766 33.2356 190.63 33.3939 191.5 33.375C192.956 33.4226 194.385 32.9769 195.556 32.1102C196.727 31.2434 197.57 30.0065 197.95 28.6H195.875C195.547 29.4885 194.949 30.2515 194.163 30.7809C193.378 31.3103 192.447 31.5794 191.5 31.55C190.88 31.553 190.267 31.4289 189.697 31.1855C189.127 30.9421 188.613 30.5844 188.186 30.1347C187.76 29.6849 187.43 29.1525 187.218 28.5704C187.005 27.9883 186.914 27.3687 186.95 26.75ZM212.6 33V20.5H210.875L210.6 23.075C210.138 22.177 209.434 21.4254 208.569 20.9044C207.703 20.3834 206.71 20.1136 205.7 20.125C202.275 20.125 199.675 22.95 199.675 26.775C199.675 30.55 202.275 33.375 205.7 33.375C206.713 33.3868 207.71 33.1174 208.58 32.5966C209.449 32.0758 210.157 31.3241 210.625 30.425L210.875 33H212.6ZM201.675 26.75C201.63 26.1281 201.715 25.5036 201.924 24.9161C202.133 24.3286 202.462 23.791 202.889 23.3373C203.317 22.8836 203.835 22.5238 204.409 22.2807C204.983 22.0376 205.601 21.9165 206.225 21.925C208.8 21.925 210.6 23.925 210.6 26.75C210.6 29.6 208.8 31.55 206.225 31.55C205.605 31.553 204.992 31.4289 204.422 31.1855C203.852 30.9421 203.338 30.5844 202.911 30.1347C202.485 29.6849 202.155 29.1525 201.943 28.5704C201.73 27.9883 201.639 27.3687 201.675 26.75ZM220.15 22.375H223.95V20.5H220.15V17.7H219.325L215.525 21.525V22.375H218.15V27.15C218.15 31.275 219.85 33.375 223.95 33.375V31.475C221.325 31.475 220.15 30.2 220.15 27.15V22.375ZM227.15 16.2C227.143 16.3398 227.165 16.4796 227.215 16.6102C227.266 16.7408 227.343 16.8595 227.442 16.9585C227.541 17.0574 227.659 17.1345 227.79 17.1848C227.92 17.235 228.06 17.2572 228.2 17.25C228.342 17.2609 228.484 17.2414 228.618 17.1928C228.752 17.1442 228.873 17.0677 228.975 16.9683C229.077 16.869 229.156 16.749 229.208 16.6165C229.26 16.4841 229.283 16.3421 229.275 16.2C229.285 16.0564 229.263 15.9124 229.213 15.7776C229.162 15.6428 229.083 15.5204 228.981 15.4186C228.88 15.3168 228.757 15.238 228.622 15.1873C228.488 15.1367 228.344 15.1155 228.2 15.125C228.058 15.1175 227.916 15.1404 227.784 15.1921C227.651 15.2438 227.531 15.3232 227.432 15.4249C227.332 15.5266 227.256 15.6484 227.207 15.7821C227.159 15.9157 227.139 16.0582 227.15 16.2ZM229.2 33V20.5H227.2V33H229.2ZM232.375 26.775C232.352 27.6458 232.507 28.5121 232.829 29.3214C233.151 30.1306 233.634 30.8661 234.249 31.4832C234.864 32.1003 235.597 32.5861 236.405 32.9113C237.214 33.2365 238.079 33.3943 238.95 33.375C239.83 33.4148 240.708 33.2717 241.529 32.9547C242.351 32.6378 243.098 32.1539 243.723 31.5336C244.348 30.9134 244.837 30.1702 245.16 29.3512C245.483 28.5321 245.633 27.6549 245.6 26.775C245.638 25.8915 245.493 25.0097 245.172 24.1855C244.851 23.3613 244.363 22.6127 243.738 21.9874C243.112 21.3621 242.364 20.8736 241.54 20.553C240.715 20.2324 239.834 20.0866 238.95 20.125C238.075 20.1072 237.206 20.2676 236.395 20.5965C235.585 20.9254 234.849 21.4158 234.234 22.0379C233.619 22.66 233.137 23.4009 232.817 24.2153C232.498 25.0297 232.347 25.9006 232.375 26.775ZM234.375 26.75C234.347 26.1336 234.445 25.5178 234.662 24.9403C234.88 24.3629 235.213 23.8358 235.641 23.3914C236.069 22.9469 236.583 22.5943 237.152 22.3551C237.721 22.1158 238.333 21.9951 238.95 22C239.576 21.9745 240.201 22.0806 240.783 22.3117C241.365 22.5427 241.893 22.8934 242.331 23.3412C242.769 23.7889 243.109 24.3237 243.327 24.9109C243.546 25.4981 243.639 26.1247 243.6 26.75C243.641 27.3747 243.549 28.0008 243.331 28.5875C243.112 29.1741 242.772 29.708 242.333 30.1541C241.894 30.6002 241.366 30.9485 240.783 31.1762C240.2 31.4038 239.575 31.5057 238.95 31.475C238.335 31.4809 237.725 31.3615 237.157 31.1242C236.59 30.8868 236.076 30.5365 235.648 30.0945C235.22 29.6526 234.887 29.1281 234.668 28.5532C234.449 27.9782 234.349 27.3647 234.375 26.75ZM250.5 26.825C250.5 23.95 252.15 22 254.55 22C257 22 258.6 23.925 258.6 26.825V33H260.6V26.825C260.6 22.9 258.375 20.125 255.15 20.125C254.183 20.1183 253.233 20.3815 252.407 20.8849C251.581 21.3884 250.912 22.1122 250.475 22.975L250.225 20.5H248.5V33H250.5V26.825Z" fill="white"/>
</g>
<defs>
<clipPath id="clip0_1045_922">
<rect width="260.6" height="52.982" fill="white"/>
</clipPath>
</defs>
</svg>
