<svg width="189" height="45" viewBox="0 0 189 45" fill="none" xmlns="http://www.w3.org/2000/svg">
<g id="Ordify">
<path id="Vector" fill-rule="evenodd" clip-rule="evenodd" d="M27.9686 9.56002L34.7943 14.5011L37.401 22.495L34.7943 30.489L27.9686 35.4301H19.6597L12.7894 30.489L10.1654 22.495L12.7894 14.5011L19.6597 9.56002H27.9686ZM16.52 0H16.4121L4.53708 8.59361L0 22.5L4.53708 36.4064L16.4121 45H16.52H31.0879H31.2925L43.2457 36.4064L47.8125 22.5L43.2457 8.59361L31.2925 0H31.0879H16.52ZM177.628 13.1456C176.495 15.2635 175.301 17.3814 174.049 19.4993C172.795 17.3814 171.618 15.2635 170.514 13.1456C169.41 11.0277 168.382 8.89493 167.426 6.74716H159.328C161.028 10.0881 162.788 13.3395 164.607 16.5015C166.456 19.6634 168.396 22.8253 170.424 25.9872V37.755H177.404V25.8978C179.433 22.7359 181.356 19.5888 183.176 16.4568C184.996 13.3246 186.756 10.0881 188.457 6.74716H180.76C179.805 8.89493 178.761 11.0277 177.628 13.1456ZM135.723 37.755V6.74716H156.484V12.6086H142.703V19.0966H154.963V24.9581H142.703V37.755H135.723ZM128.546 6.74716H121.566V37.755H128.546V6.74716ZM95.5549 32.0724C95.8829 32.1022 96.256 32.132 96.6736 32.1619H98.2396C101.73 32.1619 104.31 31.2819 105.98 29.522C107.681 27.762 108.531 25.3309 108.531 22.2286C108.531 18.9773 107.725 16.5163 106.115 14.8459C104.504 13.1754 101.953 12.3402 98.4632 12.3402C97.9862 12.3402 97.4939 12.3551 96.9868 12.3849C96.4796 12.3849 96.0022 12.4147 95.5549 12.4744V32.0724ZM115.735 22.2286C115.735 24.9133 115.317 27.2549 114.482 29.2535C113.647 31.2521 112.453 32.9076 110.902 34.2201C109.381 35.5326 107.517 36.517 105.309 37.1732C103.102 37.8295 100.626 38.1576 97.8814 38.1576C96.629 38.1576 95.167 38.098 93.4966 37.9786C91.8262 37.8891 90.1855 37.6804 88.5749 37.3522V7.14983C90.1855 6.85152 91.8559 6.65761 93.5861 6.56815C95.3461 6.44881 96.8527 6.38914 98.1055 6.38914C100.76 6.38914 103.162 6.68745 105.309 7.28402C107.487 7.88063 109.351 8.82027 110.902 10.103C112.453 11.3856 113.647 13.0262 114.482 15.0247C115.317 17.0234 115.735 19.4246 115.735 22.2286ZM78.508 8.89483C76.0321 7.22439 72.4671 6.38914 67.8141 6.38914C66.5312 6.38914 65.0696 6.44881 63.4289 6.56815C61.8183 6.68745 60.2523 6.89625 58.7309 7.19455V37.7549H65.7108V26.4346H69.1565C69.7527 27.1505 70.3494 27.9559 70.9462 28.8508C71.5424 29.7159 72.1391 30.6406 72.7358 31.625C73.3622 32.6094 73.9589 33.6235 74.5255 34.6675C75.1222 35.7116 75.704 36.7407 76.2706 37.7549H84.101C83.5642 36.6214 82.9823 35.473 82.3559 34.3096C81.7295 33.1164 81.0734 31.9829 80.3872 30.909C79.7306 29.8054 79.0597 28.7614 78.3734 27.777C77.6876 26.7628 77.0315 25.8679 76.4046 25.0923C78.2839 24.3167 79.7158 23.2578 80.7004 21.9154C81.7147 20.5433 82.2214 18.7684 82.2214 16.5909C82.2214 13.1008 80.9839 10.5354 78.508 8.89483ZM66.8295 12.3849C67.2471 12.3551 67.7097 12.3402 68.2164 12.3402C70.4538 12.3402 72.1391 12.6683 73.2727 13.3245C74.4359 13.951 75.0178 15.0247 75.0178 16.5461C75.0178 18.1271 74.4508 19.2457 73.3176 19.902C72.1841 20.5582 70.3049 20.8864 67.6796 20.8864H65.7108V12.4744C66.069 12.4446 66.4416 12.4147 66.8295 12.3849Z" fill="url(#paint0_linear_1045_878)"/>
</g>
<defs>
<linearGradient id="paint0_linear_1045_878" x1="-7.70958" y1="-4.5" x2="186.313" y2="85.5406" gradientUnits="userSpaceOnUse">
<stop stop-color="#F4977C"/>
<stop offset="1" stop-color="#D7AF6A"/>
</linearGradient>
</defs>
</svg>
