<svg width="206" height="32" viewBox="0 0 206 32" fill="none" xmlns="http://www.w3.org/2000/svg">
<g clip-path="url(#clip0_132_1522)">
<path d="M39.7211 24.6183C39.2421 24.6183 38.9035 24.5191 38.7052 24.321C38.5235 24.1227 38.4326 23.8089 38.4326 23.3793V9.0323C38.4326 8.60279 38.5317 8.28892 38.7299 8.09069C38.9282 7.87594 39.2585 7.76855 39.7211 7.76855H45.792C48.1047 7.76855 49.8061 8.25589 50.8965 9.23052C51.9868 10.2052 52.5319 11.6589 52.5319 13.5916C52.5319 15.5079 51.9868 16.9533 50.8965 17.9279C49.8227 18.8862 48.1212 19.3652 45.792 19.3652H43.438V23.3793C43.438 23.8089 43.3389 24.1227 43.1406 24.321C42.9424 24.5191 42.6037 24.6183 42.1247 24.6183H39.7211ZM45.3956 15.7722C46.0729 15.7722 46.5933 15.5905 46.9567 15.227C47.3365 14.8636 47.5266 14.3185 47.5266 13.5916C47.5266 12.8483 47.3365 12.2949 46.9567 11.9314C46.5933 11.568 46.0729 11.3863 45.3956 11.3863H43.438V15.7722H45.3956Z" fill="white"/>
<path d="M58.3831 24.9901C56.8303 24.9901 55.5832 24.4945 54.6415 23.5034C53.7164 22.4957 53.2539 21.0833 53.2539 19.2661C53.2539 17.8785 53.5678 16.6643 54.1954 15.6236C54.8398 14.5829 55.7401 13.7817 56.8964 13.2201C58.0693 12.6419 59.4156 12.3528 60.9354 12.3528C62.1909 12.3528 63.2977 12.4932 64.2558 12.774C65.2304 13.0383 66.1224 13.4266 66.9319 13.9386V23.8503C66.9319 24.1642 66.8742 24.3706 66.7584 24.4697C66.6428 24.5689 66.4115 24.6184 66.0647 24.6184H63.5372C63.3554 24.6184 63.2151 24.5937 63.116 24.544C63.0168 24.4781 62.9343 24.3788 62.8682 24.2467L62.546 23.5034C62.0669 24.0154 61.4888 24.3872 60.8115 24.6184C60.1508 24.8662 59.3413 24.9901 58.3831 24.9901ZM60.2416 21.6201C60.8858 21.6201 61.3896 21.4632 61.753 21.1494C62.1165 20.8355 62.2982 20.3895 62.2982 19.8112V15.9458C61.9844 15.7971 61.5879 15.7227 61.1089 15.7227C60.2333 15.7227 59.5312 16.0283 59.0026 16.6395C58.4905 17.2507 58.2345 18.1097 58.2345 19.2166C58.2345 20.819 58.9034 21.6201 60.2416 21.6201Z" fill="white"/>
<path d="M70.3807 24.6184C69.9015 24.6184 69.5628 24.5192 69.3647 24.3211C69.1664 24.1228 69.0674 23.809 69.0674 23.3795V13.4926C69.0674 13.1953 69.1169 12.997 69.216 12.8979C69.3316 12.7823 69.5628 12.7245 69.9098 12.7245H72.4621C72.6602 12.7245 72.809 12.7575 72.908 12.8236C73.0236 12.8731 73.0897 12.9723 73.1063 13.1209L73.2301 13.8643C73.6927 13.4018 74.2958 13.0383 75.039 12.774C75.799 12.4932 76.6414 12.3528 77.5665 12.3528C78.9046 12.3528 79.9866 12.7327 80.8125 13.4926C81.6386 14.236 82.0515 15.3428 82.0515 16.813V23.3795C82.0515 23.809 81.9524 24.1228 81.7542 24.3211C81.5725 24.5192 81.242 24.6184 80.763 24.6184H78.3594C77.8804 24.6184 77.5336 24.5192 77.3187 24.3211C77.1205 24.1228 77.0214 23.809 77.0214 23.3795V17.1351C77.0214 16.6395 76.914 16.2845 76.6993 16.0696C76.4845 15.8549 76.1458 15.7475 75.6833 15.7475C75.1877 15.7475 74.7912 15.8797 74.4939 16.1439C74.2131 16.4083 74.0727 16.7717 74.0727 17.2343V23.3795C74.0727 23.809 73.9735 24.1228 73.7754 24.3211C73.5937 24.5192 73.2632 24.6184 72.7842 24.6184H70.3807Z" fill="white"/>
<path d="M90.8098 24.9901C88.4971 24.9901 86.713 24.4531 85.4574 23.3795C84.202 22.3058 83.5742 20.7447 83.5742 18.6962C83.5742 17.4408 83.8633 16.334 84.4414 15.3758C85.0197 14.4177 85.8539 13.6743 86.9442 13.1457C88.051 12.6171 89.3561 12.3528 90.8593 12.3528C91.9991 12.3528 92.9573 12.4602 93.7337 12.6749C94.5266 12.8897 95.2286 13.22 95.8399 13.6661C96.0216 13.7817 96.1124 13.9304 96.1124 14.1121C96.1124 14.2443 96.0463 14.4177 95.9142 14.6325L94.8982 16.3917C94.7826 16.6231 94.6422 16.7387 94.4771 16.7387C94.3778 16.7387 94.2209 16.6726 94.0062 16.5405C93.5602 16.2597 93.139 16.0531 92.7425 15.921C92.3625 15.7888 91.8834 15.7227 91.3054 15.7227C90.4793 15.7227 89.8104 15.9871 89.2982 16.5157C88.8026 17.0443 88.5548 17.7711 88.5548 18.6962C88.5548 19.6379 88.8108 20.3647 89.323 20.8767C89.8351 21.3723 90.5372 21.6201 91.4292 21.6201C91.9577 21.6201 92.4369 21.5458 92.8664 21.3971C93.2959 21.2485 93.7337 21.042 94.1797 20.7776C94.411 20.6455 94.5761 20.5794 94.6753 20.5794C94.8239 20.5794 94.9561 20.695 95.0717 20.9264L96.1867 22.8343C96.2694 22.9995 96.3107 23.1317 96.3107 23.2307C96.3107 23.3795 96.2115 23.5198 96.0134 23.652C95.3195 24.0981 94.5595 24.4284 93.7337 24.6432C92.9242 24.8744 91.9495 24.9901 90.8098 24.9901Z" fill="white"/>
<path d="M102.593 24.9901C101.04 24.9901 99.7931 24.4945 98.8516 23.5034C97.9265 22.4957 97.4639 21.0833 97.4639 19.2661C97.4639 17.8785 97.7777 16.6643 98.4055 15.6236C99.0497 14.5829 99.9501 13.7817 101.106 13.2201C102.279 12.6419 103.626 12.3528 105.145 12.3528C106.401 12.3528 107.508 12.4932 108.466 12.774C109.44 13.0383 110.333 13.4266 111.142 13.9386V23.8503C111.142 24.1642 111.084 24.3706 110.969 24.4697C110.853 24.5689 110.622 24.6184 110.275 24.6184H107.747C107.566 24.6184 107.425 24.5937 107.326 24.544C107.227 24.4781 107.144 24.3788 107.078 24.2467L106.756 23.5034C106.277 24.0154 105.699 24.3872 105.021 24.6184C104.361 24.8662 103.551 24.9901 102.593 24.9901ZM104.452 21.6201C105.096 21.6201 105.6 21.4632 105.963 21.1494C106.327 20.8355 106.508 20.3895 106.508 19.8112V15.9458C106.194 15.7971 105.798 15.7227 105.319 15.7227C104.443 15.7227 103.741 16.0283 103.213 16.6395C102.701 17.2507 102.444 18.1097 102.444 19.2166C102.444 20.819 103.114 21.6201 104.452 21.6201Z" fill="white"/>
<path d="M126.708 23.6767C126.823 23.8089 126.881 23.9576 126.881 24.1227C126.881 24.2713 126.832 24.3953 126.732 24.4944C126.633 24.577 126.501 24.6183 126.336 24.6183H122.495C122.264 24.6183 122.09 24.6018 121.975 24.5688C121.876 24.5191 121.768 24.4283 121.653 24.2962L118.283 19.712V23.3793C118.283 23.8089 118.184 24.1227 117.985 24.321C117.787 24.5191 117.448 24.6183 116.969 24.6183H114.566C114.087 24.6183 113.748 24.5191 113.55 24.321C113.368 24.1227 113.277 23.8089 113.277 23.3793V9.0323C113.277 8.60279 113.376 8.28892 113.575 8.09069C113.773 7.87594 114.103 7.76855 114.566 7.76855H116.969C117.448 7.76855 117.787 7.87594 117.985 8.09069C118.184 8.28892 118.283 8.60279 118.283 9.0323V17.3333L121.554 13.0713C121.653 12.9391 121.76 12.8483 121.876 12.7987C121.991 12.7492 122.165 12.7244 122.396 12.7244H126.237C126.402 12.7244 126.526 12.7739 126.608 12.873C126.708 12.9556 126.757 13.0713 126.757 13.22C126.757 13.3851 126.699 13.5338 126.584 13.666L122.347 18.5227L126.708 23.6767Z" fill="white"/>
<path d="M134.754 24.9901C133.366 24.9901 132.127 24.7588 131.037 24.2964C129.963 23.8337 129.112 23.1399 128.484 22.2149C127.857 21.2898 127.543 20.1582 127.543 18.8202C127.543 16.7222 128.138 15.1198 129.327 14.013C130.516 12.9062 132.226 12.3528 134.456 12.3528C136.637 12.3528 138.289 12.8979 139.412 13.9882C140.552 15.062 141.122 16.557 141.122 18.4732C141.122 19.2992 140.758 19.7122 140.032 19.7122H132.251C132.251 20.4224 132.515 20.9677 133.044 21.3475C133.589 21.7275 134.407 21.9174 135.497 21.9174C136.174 21.9174 136.736 21.8597 137.182 21.7441C137.645 21.6119 138.107 21.422 138.57 21.1742C138.768 21.0915 138.9 21.0502 138.966 21.0502C139.115 21.0502 139.239 21.1494 139.338 21.3475L140.18 22.9334C140.263 23.0987 140.304 23.2225 140.304 23.3052C140.304 23.4537 140.205 23.5943 140.007 23.7263C139.33 24.1724 138.561 24.4945 137.702 24.6927C136.843 24.891 135.86 24.9901 134.754 24.9901ZM136.662 17.2591C136.662 16.6313 136.48 16.1439 136.117 15.7971C135.753 15.4502 135.208 15.2767 134.481 15.2767C133.754 15.2767 133.201 15.4584 132.821 15.8219C132.441 16.1688 132.251 16.6479 132.251 17.2591H136.662Z" fill="white"/>
<path d="M149.615 24.9901C148.227 24.9901 146.914 24.8497 145.675 24.5689C144.436 24.2714 143.437 23.8585 142.677 23.3299C142.396 23.1482 142.256 22.9581 142.256 22.76C142.256 22.6278 142.305 22.4875 142.404 22.3387L143.619 20.406C143.751 20.2077 143.883 20.1087 144.015 20.1087C144.098 20.1087 144.238 20.1664 144.436 20.282C145.048 20.6291 145.741 20.9098 146.518 21.1245C147.294 21.3393 148.062 21.4467 148.822 21.4467C149.599 21.4467 150.169 21.3311 150.532 21.0997C150.912 20.8685 151.102 20.4969 151.102 19.9847C151.102 19.4891 150.895 19.1009 150.482 18.8202C150.086 18.5392 149.334 18.1842 148.227 17.7547C146.559 17.1269 145.254 16.4248 144.312 15.6484C143.387 14.8555 142.925 13.7817 142.925 12.4271C142.925 10.7917 143.511 9.54449 144.684 8.68548C145.857 7.82648 147.418 7.39697 149.367 7.39697C150.722 7.39697 151.878 7.52087 152.836 7.76866C153.811 7.99992 154.637 8.36336 155.314 8.85894C155.595 9.07369 155.736 9.27192 155.736 9.45364C155.736 9.56927 155.686 9.70142 155.587 9.8501L154.373 11.7829C154.224 11.9811 154.092 12.0802 153.976 12.0802C153.894 12.0802 153.753 12.0224 153.555 11.9068C152.597 11.279 151.457 10.9651 150.136 10.9651C149.425 10.9651 148.88 11.0808 148.5 11.3121C148.12 11.5433 147.93 11.9233 147.93 12.4519C147.93 12.8153 148.029 13.1127 148.227 13.3439C148.426 13.5752 148.69 13.7817 149.02 13.9634C149.367 14.1286 149.896 14.3434 150.606 14.6077L151.077 14.7811C152.3 15.2602 153.258 15.7227 153.951 16.1688C154.662 16.5982 155.199 17.1351 155.562 17.7794C155.925 18.4071 156.107 19.2 156.107 20.1582C156.107 21.6285 155.554 22.8014 154.447 23.6768C153.357 24.5524 151.746 24.9901 149.615 24.9901Z" fill="white"/>
<path d="M161.371 24.6183C161.124 24.6183 160.934 24.577 160.801 24.4944C160.669 24.4119 160.57 24.2466 160.504 23.9988L157.307 13.2943C157.274 13.1952 157.258 13.1208 157.258 13.0713C157.258 12.84 157.423 12.7244 157.753 12.7244H161.024C161.239 12.7244 161.395 12.7657 161.495 12.8482C161.595 12.9143 161.661 13.03 161.693 13.1952L163.031 18.8201L164.716 14.2854C164.8 14.0872 164.882 13.955 164.964 13.889C165.063 13.8064 165.229 13.7651 165.46 13.7651H167.02C167.252 13.7651 167.409 13.8064 167.491 13.889C167.591 13.955 167.681 14.0872 167.765 14.2854L169.424 18.8201L170.788 13.1952C170.836 13.03 170.902 12.9143 170.986 12.8482C171.068 12.7657 171.217 12.7244 171.431 12.7244H174.728C175.057 12.7244 175.223 12.84 175.223 13.0713C175.223 13.1208 175.207 13.1952 175.173 13.2943L171.952 23.9988C171.886 24.2466 171.786 24.4119 171.655 24.4944C171.539 24.577 171.357 24.6183 171.109 24.6183H168.681C168.45 24.6183 168.276 24.577 168.16 24.4944C168.045 24.3953 167.946 24.2301 167.863 23.9988L166.227 19.5138L164.592 23.9988C164.526 24.2301 164.426 24.3953 164.295 24.4944C164.179 24.577 164.007 24.6183 163.775 24.6183H161.371Z" fill="white"/>
<path d="M181.505 24.9901C179.951 24.9901 178.705 24.4945 177.763 23.5034C176.838 22.4957 176.375 21.0833 176.375 19.2661C176.375 17.8785 176.689 16.6643 177.317 15.6236C177.961 14.5829 178.861 13.7817 180.017 13.2201C181.191 12.6419 182.537 12.3528 184.057 12.3528C185.312 12.3528 186.419 12.4932 187.377 12.774C188.352 13.0383 189.244 13.4266 190.053 13.9386V23.8503C190.053 24.1642 189.995 24.3706 189.879 24.4697C189.764 24.5689 189.534 24.6184 189.186 24.6184H186.658C186.477 24.6184 186.337 24.5937 186.237 24.544C186.137 24.4781 186.055 24.3788 185.989 24.2467L185.668 23.5034C185.189 24.0154 184.61 24.3872 183.933 24.6184C183.272 24.8662 182.463 24.9901 181.505 24.9901ZM183.364 21.6201C184.007 21.6201 184.512 21.4632 184.875 21.1494C185.239 20.8355 185.42 20.3895 185.42 19.8112V15.9458C185.105 15.7971 184.709 15.7227 184.23 15.7227C183.354 15.7227 182.653 16.0283 182.124 16.6395C181.612 17.2507 181.355 18.1097 181.355 19.2166C181.355 20.819 182.026 21.6201 183.364 21.6201Z" fill="white"/>
<path d="M193.477 29.6238C192.997 29.6238 192.66 29.5247 192.46 29.3265C192.279 29.1282 192.188 28.8143 192.188 28.3848V14.1864C192.931 13.6578 193.866 13.22 194.988 12.8731C196.112 12.5262 197.284 12.3528 198.506 12.3528C203.496 12.3528 205.99 14.4673 205.99 18.6962C205.99 20.6125 205.461 22.1405 204.405 23.2804C203.347 24.4202 201.853 24.9901 199.92 24.9901C199.375 24.9901 198.846 24.924 198.333 24.7918C197.838 24.6598 197.424 24.4781 197.095 24.2467V28.3848C197.095 28.8143 196.995 29.1282 196.797 29.3265C196.599 29.5247 196.26 29.6238 195.781 29.6238H193.477ZM198.854 21.6449C199.565 21.6449 200.094 21.3807 200.439 20.8519C200.803 20.3068 200.984 19.58 200.984 18.6714C200.984 17.5977 200.771 16.846 200.341 16.4165C199.928 15.9705 199.283 15.7475 198.408 15.7475C197.846 15.7475 197.4 15.8219 197.07 15.9705V19.9104C197.07 20.4721 197.226 20.9016 197.54 21.1989C197.855 21.4963 198.293 21.6449 198.854 21.6449Z" fill="white"/>
<path fill-rule="evenodd" clip-rule="evenodd" d="M15.6875 31.9368C10.9932 31.9333 7.2118 30.8068 4.56972 28.7836C1.89595 26.7361 0.477539 23.8304 0.477539 20.5424C0.477539 17.3744 1.89285 15.09 3.49427 13.5459C4.74928 12.3358 6.1342 11.5608 7.09854 11.115C6.88046 10.4457 6.6084 9.56958 6.36497 8.66464C6.03926 7.4537 5.71973 6.03295 5.71973 4.99182C5.71973 3.75952 5.9884 2.52194 6.71282 1.56029C7.4782 0.544283 8.63044 0 10.0166 0C11.1 0 12.0197 0.401854 12.7398 1.09509C13.4281 1.75773 13.8862 2.63773 14.2024 3.55509C14.7582 5.16704 14.9746 7.19218 15.0353 9.21319H16.3631C16.4239 7.19218 16.6402 5.16704 17.1961 3.55509C17.5124 2.63773 17.9703 1.75773 18.6587 1.09509C19.3788 0.401854 20.2984 0 21.3818 0C22.7681 0 23.9202 0.544283 24.6857 1.56029C25.4101 2.52194 25.6788 3.75952 25.6788 4.99182C25.6788 6.03295 25.3591 7.4537 25.0335 8.66464C24.79 9.56958 24.5179 10.4457 24.2999 11.115C25.2642 11.5608 26.6492 12.3358 27.9042 13.5459C29.5056 15.09 30.9208 17.3744 30.9208 20.5424C30.9208 23.8304 29.5025 26.7361 26.8287 28.7836C24.1867 30.8068 20.4052 31.9333 15.711 31.9368H15.6875Z" fill="#633001"/>
<path d="M10.0166 1.17188C7.98634 1.17188 7.05176 2.70198 7.05176 4.81809C7.05176 6.50008 8.13766 9.86867 8.5832 11.18C8.68341 11.4749 8.52595 11.7981 8.23877 11.9125C6.61158 12.5606 1.80957 14.9338 1.80957 20.3688C1.80957 26.0939 6.68951 30.4107 15.6885 30.4176C15.6921 30.4176 15.6956 30.4174 15.6992 30.4174C15.7028 30.4174 15.7064 30.4176 15.71 30.4176C24.7089 30.4107 29.5888 26.0939 29.5888 20.3688C29.5888 14.9338 24.7869 12.5606 23.1597 11.9125C22.8725 11.7981 22.7151 11.4749 22.8153 11.18C23.2608 9.86867 24.3468 6.50008 24.3468 4.81809C24.3468 2.70198 23.4122 1.17188 21.3818 1.17188C18.4594 1.17188 17.7308 5.35393 17.6789 9.84229C17.6755 10.1419 17.4356 10.3851 17.139 10.3851H14.2595C13.9628 10.3851 13.723 10.1419 13.7196 9.84229C13.6676 5.35393 12.9391 1.17188 10.0166 1.17188Z" fill="#D1884F"/>
<path d="M15.71 28.5838C9.09796 28.5838 1.821 25.0083 1.8096 20.3799C1.80959 20.387 1.80957 20.3942 1.80957 20.4014C1.80957 26.1312 6.69727 30.4502 15.71 30.4502C24.7227 30.4502 29.6104 26.1312 29.6104 20.4014C29.6104 20.3942 29.6104 20.387 29.6104 20.3799C29.5989 25.0083 22.3219 28.5838 15.71 28.5838Z" fill="#FEDC90"/>
<path d="M12.0361 18.9581C12.0361 20.5208 11.3051 21.3346 10.4033 21.3346C9.50154 21.3346 8.77051 20.5208 8.77051 18.9581C8.77051 17.3954 9.50154 16.5815 10.4033 16.5815C11.3051 16.5815 12.0361 17.3954 12.0361 18.9581Z" fill="#633001"/>
<path d="M22.6494 18.9581C22.6494 20.5208 21.9184 21.3346 21.0166 21.3346C20.1148 21.3346 19.3838 20.5208 19.3838 18.9581C19.3838 17.3954 20.1148 16.5815 21.0166 16.5815C21.9184 16.5815 22.6494 17.3954 22.6494 18.9581Z" fill="#633001"/>
</g>
<defs>
<clipPath id="clip0_132_1522">
<rect width="205.99" height="32" fill="white"/>
</clipPath>
</defs>
</svg>
