<svg width="186" height="62" viewBox="0 0 186 62" fill="none" xmlns="http://www.w3.org/2000/svg">
<g id="Poolz">
<path id="Vector" fill-rule="evenodd" clip-rule="evenodd" d="M17.2265 0L0 22.1276L6.14795 49.7198L31.0416 62L55.9349 49.7198L62.0825 22.1276L44.8558 0H17.2265ZM22.2143 3.99442H39.8684L31.0416 15.3326L22.2143 3.99442ZM5.24369 21.798L18.1654 5.20036L28.5475 18.5361L20.8167 28.4659L5.24369 21.798ZM44.9172 6.48495L56.4746 21.3307L40.863 24.6796L44.9172 6.48495ZM33.5349 18.5361L40.1152 10.0839L37.1873 23.2268L33.5349 18.5361ZM31.0416 21.7393L34.408 26.0641L26.3247 27.7981L31.0416 21.7393ZM41.4051 28.6445L57.3949 25.2145L53.2426 43.8496L41.4051 28.6445ZM4.85368 25.9606L18.289 31.713L8.84015 43.8496L4.85368 25.9606ZM10.8886 47.6252L22.5098 32.6976L35.7073 29.8663L29.6847 56.8971L10.8886 47.6252ZM39.187 32.2019L51.1937 47.6252L33.8431 56.1841L39.187 32.2019Z" fill="#FDFDFD"/>
<path id="Vector_2" d="M162.996 44.2694H157.383V13.7778H162.996V44.2694Z" fill="#FDFDFD"/>
<path id="Vector_3" fill-rule="evenodd" clip-rule="evenodd" d="M96.1284 15.5141C99.4454 15.5141 101.954 16.2623 103.655 17.7586C105.355 19.255 106.206 21.2596 106.206 23.7723C106.206 25.4099 105.823 26.8921 105.058 28.219C104.293 29.5177 103.144 30.5483 101.614 31.3106C100.083 32.0729 98.2116 32.4541 96.0007 32.4541H88.645V44.2695H82.7773V15.5141H96.1284ZM95.1928 27.9649C96.8935 27.9649 98.1837 27.5979 99.0623 26.8638C99.9414 26.1298 100.38 25.1416 100.38 23.8994C100.38 21.3019 98.6369 20.0031 95.1507 20.0031H88.645V27.9649H95.1928Z" fill="#FDFDFD"/>
<path id="Vector_4" fill-rule="evenodd" clip-rule="evenodd" d="M118.749 44.7778C116.623 44.7778 114.71 44.3119 113.009 43.3801C111.308 42.4483 109.976 41.1215 109.012 39.3991C108.049 37.6487 107.566 35.6301 107.566 33.3432C107.566 31.0563 108.049 29.0518 109.012 27.3296C109.976 25.5791 111.308 24.2381 113.009 23.3063C114.71 22.3465 116.623 21.8665 118.749 21.8665C120.875 21.8665 122.775 22.3465 124.447 23.3063C126.148 24.2381 127.48 25.5791 128.444 27.3296C129.408 29.0518 129.889 31.0563 129.889 33.3432C129.889 35.6301 129.408 37.6348 128.444 39.3569C127.48 41.0791 126.148 42.4203 124.447 43.3801C122.775 44.3119 120.875 44.7778 118.749 44.7778ZM118.707 40.2462C120.351 40.2462 121.669 39.625 122.662 38.3829C123.682 37.1406 124.192 35.4606 124.192 33.3432C124.192 31.2258 123.682 29.5458 122.662 28.3037C121.669 27.0332 120.351 26.3979 118.707 26.3979C117.063 26.3979 115.731 27.0332 114.71 28.3037C113.718 29.5458 113.222 31.2258 113.222 33.3432C113.222 35.4606 113.718 37.1406 114.71 38.3829C115.731 39.625 117.063 40.2462 118.707 40.2462Z" fill="#FDFDFD"/>
<path id="Vector_5" fill-rule="evenodd" clip-rule="evenodd" d="M137.298 43.3801C138.999 44.3119 140.912 44.7778 143.038 44.7778C145.164 44.7778 147.063 44.3119 148.736 43.3801C150.437 42.4203 151.769 41.0791 152.733 39.3569C153.697 37.6348 154.179 35.6301 154.179 33.3432C154.179 31.0563 153.697 29.0518 152.733 27.3296C151.769 25.5791 150.437 24.2381 148.736 23.3063C147.063 22.3465 145.164 21.8665 143.038 21.8665C140.912 21.8665 138.999 22.3465 137.298 23.3063C135.597 24.2381 134.265 25.5791 133.301 27.3296C132.337 29.0518 131.855 31.0563 131.855 33.3432C131.855 35.6301 132.337 37.6487 133.301 39.3991C134.265 41.1215 135.597 42.4483 137.298 43.3801ZM146.951 38.3829C145.958 39.625 144.64 40.2462 142.996 40.2462C141.352 40.2462 140.02 39.625 138.999 38.3829C138.006 37.1406 137.51 35.4606 137.51 33.3432C137.51 31.2258 138.006 29.5458 138.999 28.3037C140.02 27.0332 141.352 26.3979 142.996 26.3979C144.64 26.3979 145.958 27.0332 146.951 28.3037C147.971 29.5458 148.481 31.2258 148.481 33.3432C148.481 35.4606 147.971 37.1406 146.951 38.3829Z" fill="#FDFDFD"/>
<path id="Vector_6" d="M184.522 44.2695V39.6535H173.424L184.394 26.7368V22.3748H166.664V26.991H177.209L166.238 39.8651V44.2695H184.522Z" fill="#FDFDFD"/>
</g>
</svg>
