<svg width="213" height="54" viewBox="0 0 213 54" fill="none" xmlns="http://www.w3.org/2000/svg">
<g id="Group">
<g id="Group_2">
<g id="Group_3">
<path id="Vector" d="M0 0V54H50.4681V47.949H6.04232V6.05098H50.4681V0H0Z" fill="white"/>
<path id="Vector_2" d="M86.8633 24.1044L95.3511 10.9203H102.363L92.278 26.5845V27.4155L102.926 43.0797H95.6281L86.8633 29.8957V24.1044Z" fill="white"/>
<path id="Vector_3" d="M123.07 29.8956H131.143L127.541 13.9544H126.715L123.07 29.8956ZM132.536 35.9596H121.72L120.11 43.0796H113.777L121.438 10.9246H132.818L140.479 43.0796H134.146L132.536 35.9596Z" fill="white"/>
<path id="Vector_4" d="M156.492 10.9203H162.547V37.2884H177.138V43.0797H156.492V10.9203Z" fill="white"/>
<g id="Group_4">
<path id="Vector_5" d="M55.4779 20.7543C55.4779 19.4688 54.9802 18.3521 53.989 17.3998C52.9935 16.452 51.5954 15.9758 49.7905 15.9758C48.2626 15.9758 47.055 16.2918 46.1677 16.9194C45.2804 17.547 44.8389 18.3997 44.8389 19.4688C44.8389 20.0228 44.9471 20.5206 45.1592 20.9621C45.3713 21.4079 45.7479 21.8061 46.2846 22.1567C46.817 22.5073 47.5225 22.8232 48.3968 23.1002C49.2668 23.3772 50.3748 23.6369 51.7253 23.8793C55.0884 24.4939 57.6594 25.5154 59.434 26.9568C61.2086 28.3938 62.0959 30.5233 62.0959 33.341V33.895C62.0959 35.397 61.8275 36.7517 61.2908 37.9593C60.7541 39.1669 59.9837 40.2014 58.9752 41.0584C57.9667 41.9154 56.7418 42.5733 55.3048 43.0321C53.8678 43.4909 52.2447 43.7203 50.4441 43.7203C48.3319 43.7203 46.475 43.4216 44.8692 42.8243C43.2634 42.227 41.926 41.4003 40.8569 40.3442C39.7878 39.2881 38.9741 38.0459 38.4244 36.6219C37.8747 35.1979 37.5977 33.644 37.5977 31.9603V31.6833H43.653C43.653 33.6137 44.2113 35.1503 45.328 36.3016C46.4447 37.4486 48.1804 38.0242 50.535 38.0242C52.3702 38.0242 53.7293 37.626 54.6166 36.8296C55.5039 36.0332 55.9454 35.0853 55.9454 33.9816C55.9454 33.4622 55.8545 32.9645 55.6683 32.4883C55.4866 32.0122 55.1619 31.5837 54.7031 31.2028C54.2443 30.8176 53.6167 30.4757 52.8203 30.1684C52.0239 29.8654 51.0154 29.6014 49.7905 29.3893C48.1674 29.1123 46.6871 28.753 45.341 28.3115C43.9949 27.8657 42.8263 27.2771 41.8307 26.5412C40.8352 25.8054 40.0648 24.8878 39.5151 23.7841C38.9654 22.6804 38.6884 21.3343 38.6884 19.7415V19.4645C38.6884 18.1486 38.9567 16.9324 39.4891 15.8114C40.0215 14.6947 40.7746 13.7208 41.7355 12.8941C42.7007 12.0674 43.8607 11.4225 45.2241 10.9637C46.5832 10.5049 48.1068 10.2755 49.7905 10.2755C51.6863 10.2755 53.37 10.5438 54.8373 11.0805C56.3046 11.6172 57.5338 12.3444 58.5294 13.262C59.5205 14.1796 60.1958 15.2747 60.7758 16.4303C61.4943 17.8543 61.5332 20.75 61.5332 20.75H55.4779V20.7543Z" fill="white"/>
</g>
<path id="Vector_6" d="M191.258 10.9203V43.0797H212.086V37.2884H197.313V16.7073H212.086V10.9203H191.258Z" fill="white"/>
<path id="Vector_7" d="M82.5397 10.9203H76.4844V43.0754H82.5397V10.9203Z" fill="white"/>
<path id="Vector_8" d="M207.458 24.1044H201.676V29.8914H207.458V24.1044Z" fill="white"/>
</g>
</g>
</g>
</svg>
