<svg width="197" height="54" viewBox="0 0 197 54" fill="none" xmlns="http://www.w3.org/2000/svg">
<g id="taiko-h-blk 1" clip-path="url(#clip0_1198_708)">
<path id="Vector" d="M110.82 42.6837C109.839 44.0808 108.536 45.1191 106.912 45.7989C105.289 46.4409 103.476 46.7619 101.475 46.7619C99.8888 46.7619 98.435 46.5731 97.1132 46.1953C95.8295 45.8178 94.6967 45.2513 93.7148 44.4962C92.7331 43.7033 91.959 42.7403 91.3925 41.6075C90.826 40.437 90.543 39.1152 90.543 37.6425C90.543 36.0189 90.8639 34.6405 91.5057 33.5077C92.1478 32.3372 93.0163 31.3932 94.1112 30.6755C95.2441 29.9581 96.5659 29.4295 98.0762 29.0896C99.5865 28.7121 101.173 28.5234 102.834 28.5234H110.481C110.481 26.333 109.99 24.6339 109.008 23.4255C108.026 22.2172 106.308 21.5941 103.854 21.5564C102.419 21.5564 101.173 21.8018 100.115 22.2927C99.0958 22.7836 98.4161 23.5955 98.0762 24.7282H91.4491C91.6758 23.1423 92.1855 21.8018 92.9784 20.7067C93.8093 19.6117 94.791 18.7054 95.9238 17.988C97.0945 17.2705 98.3784 16.7607 99.7756 16.4586C101.21 16.1566 102.645 16.0055 104.08 16.0055C105.931 16.0055 107.649 16.2509 109.235 16.7418C110.82 17.2327 112.199 18.0635 113.369 19.2341C114.691 20.5935 115.578 22.2172 116.032 24.1053C116.485 25.9932 116.711 28.0513 116.711 30.2791V46.3654H111.104L110.82 42.6837ZM110.481 33.1112H104.25C103.155 33.1112 102.06 33.2057 100.965 33.3945C99.8698 33.5456 98.9258 33.9421 98.1328 34.5839C97.3775 35.1881 97 36.0755 97 37.246C97 38.681 97.5099 39.776 98.5293 40.5313C99.5865 41.2486 100.87 41.6075 102.381 41.6075C103.552 41.6075 104.628 41.4564 105.609 41.1544C106.629 40.8522 107.498 40.3614 108.215 39.6817C108.933 38.9643 109.48 38.0769 109.858 37.0196C110.273 35.9244 110.481 34.6216 110.481 33.1112Z" fill="white"/>
<path id="Vector_2" d="M127.326 4.11078C128.497 4.11078 129.46 4.4695 130.215 5.18697C131.008 5.90443 131.404 6.88621 131.404 8.13233C131.404 9.34068 131.008 10.3036 130.215 11.021C129.46 11.7385 128.497 12.0972 127.326 12.0972C126.08 12.0972 125.08 11.7385 124.324 11.021C123.569 10.3036 123.191 9.34068 123.191 8.13233C123.191 6.88621 123.569 5.90443 124.324 5.18697C125.08 4.4695 126.08 4.11078 127.326 4.11078ZM124.041 46.3654V16.5153H130.498V46.3654H124.041Z" fill="white"/>
<path id="Vector_3" d="M181.819 16.0055C184.198 16.0055 186.293 16.3831 188.106 17.1383C189.919 17.8936 191.448 18.9509 192.694 20.3102C193.978 21.6319 194.941 23.2367 195.583 25.1247C196.224 27.0128 196.545 29.1086 196.545 31.4119C196.545 33.7531 196.224 35.8678 195.583 37.7559C194.978 39.6061 194.053 41.211 192.807 42.5705C191.561 43.9297 190.013 44.9683 188.163 45.6856C186.35 46.403 184.235 46.7619 181.819 46.7619C179.44 46.7619 177.344 46.403 175.532 45.6856C173.719 44.9304 172.19 43.892 170.943 42.5705C169.735 41.211 168.81 39.5872 168.168 37.6991C167.564 35.8112 167.262 33.7154 167.262 31.4119C167.262 29.1086 167.564 27.0128 168.168 25.1247C168.81 23.2367 169.754 21.6319 171 20.3102C172.246 18.9509 173.776 17.8936 175.588 17.1383C177.401 16.3831 179.478 16.0055 181.819 16.0055ZM181.819 41.1544C183.291 41.1544 184.537 40.9088 185.557 40.418C186.614 39.8894 187.464 39.1907 188.106 38.3222C188.785 37.4537 189.276 36.4341 189.579 35.2636C189.918 34.0929 190.088 32.828 190.088 31.4687C190.088 30.1093 189.918 28.8443 189.579 27.6736C189.276 26.4652 188.785 25.4269 188.106 24.5584C187.464 23.6899 186.614 23.0102 185.557 22.5193C184.537 22.0284 183.291 21.7829 181.819 21.7829C180.384 21.7829 179.156 22.0284 178.137 22.5193C177.117 23.0102 176.268 23.6899 175.588 24.5584C174.908 25.4269 174.399 26.4652 174.059 27.6736C173.757 28.8443 173.606 30.1093 173.606 31.4687C173.606 32.828 173.757 34.0929 174.059 35.2636C174.399 36.4341 174.889 37.4537 175.532 38.3222C176.211 39.1907 177.061 39.8894 178.08 40.418C179.138 40.9088 180.384 41.1544 181.819 41.1544Z" fill="white"/>
<path id="Vector_4" d="M149.014 28.6932H144.369V7.50415H137.969V46.3654H144.369V34.3007H149.41L157.283 46.3654H164.76L154.565 30.7324L163.967 16.5153H156.717L149.014 28.6932Z" fill="white"/>
<path id="Vector_5" d="M86.175 16.4305H78.5292V7.50415H76.5535L67.2617 20.1284V21.7609H72.0331V36.535C72.0331 40.0225 72.8187 42.5328 74.3902 44.0659C75.9998 45.5987 78.6633 46.3654 82.3808 46.3654H85.945V40.7316H82.9556C81.2311 40.7316 80.0621 40.31 79.4489 39.4669C78.8357 38.6237 78.5292 37.3398 78.5292 35.6151V21.7609H86.175V16.4305Z" fill="white"/>
<path id="Vector_6" d="M58.7975 43.546L48.506 29.5633C47.3878 28.044 45.7323 27.1338 43.9693 26.9332C43.5681 26.8865 43.2097 26.6537 43.0089 26.3025C42.8047 25.9512 42.7832 25.5249 42.9445 25.1521C43.6505 23.5254 43.6933 21.6369 42.9338 19.9097L35.9711 4.0064C34.9392 1.64491 32.6063 0.121948 30.0297 0.121948C27.4533 0.121948 25.1204 1.64849 24.0885 4.0064L17.1258 19.9097C16.3697 21.6369 16.4092 23.5254 17.1151 25.1521C17.2763 25.5249 17.2512 25.9512 17.0506 26.3025C16.8463 26.6537 16.4916 26.8865 16.0902 26.9332C14.3272 27.1338 12.6716 28.044 11.5536 29.5633L1.26197 43.546C-0.264569 45.6207 -0.418659 48.4015 0.867794 50.634C2.15783 52.8629 4.64473 54.1208 7.20329 53.8377L24.4575 51.917C26.3316 51.709 27.9478 50.7308 29.0013 49.3046C29.2415 48.9785 29.6249 48.785 30.0297 48.785C30.4347 48.785 30.8146 48.9785 31.0583 49.3046C32.1118 50.7308 33.728 51.709 35.6021 51.917L52.8563 53.8377C55.4149 54.1243 57.9017 52.8664 59.1918 50.634C60.4781 48.4015 60.3242 45.6207 58.7975 43.546ZM21.6266 21.9056L28.5999 5.98446C28.8509 5.41469 29.4134 5.04559 30.0332 5.04559C30.6533 5.04559 31.2158 5.41469 31.4668 5.98446L38.4402 21.9056C38.6588 22.4073 38.6121 22.9878 38.3111 23.4465C38.0101 23.9052 37.5013 24.1811 36.9495 24.1811H23.1138C22.5655 24.1811 22.0531 23.9052 21.7521 23.4465C21.451 22.9878 21.4044 22.4073 21.623 21.9056H21.6266ZM25.2064 46.1439C24.9591 46.6349 24.4791 46.9646 23.9343 47.0255L6.6622 48.9462C6.04585 49.0142 5.44384 48.7134 5.13208 48.1758C4.82031 47.6382 4.85974 46.9681 5.22883 46.4665L15.5312 32.4696C15.8573 32.0288 16.3805 31.778 16.9287 31.8102C17.477 31.8389 17.9715 32.1435 18.2475 32.62L18.2582 32.638L25.1564 44.5853L25.1671 44.603C25.443 45.0798 25.4572 45.6603 25.2099 46.1475L25.2064 46.1439ZM31.4488 40.7401C31.1549 41.2453 30.6175 41.5608 30.0297 41.5608C29.4456 41.5608 28.9047 41.2491 28.6108 40.7437L23.3108 31.5665C23.017 31.0613 23.017 30.4342 23.3108 29.929C23.6047 29.4236 24.1423 29.1083 24.7299 29.1083H35.3262C35.9102 29.1083 36.4512 29.4165 36.7451 29.9254C37.039 30.4342 37.039 31.0578 36.7451 31.563L31.4488 40.7401ZM54.931 48.1758C54.6193 48.7134 54.0208 49.018 53.401 48.9498L36.1288 47.029C35.5841 46.9681 35.104 46.6385 34.8568 46.1475C34.6095 45.6567 34.6237 45.076 34.8996 44.603L34.9105 44.5853L41.8086 32.638L41.8192 32.62C42.0951 32.1435 42.5897 31.8389 43.138 31.8102C43.6862 31.7816 44.2094 32.0288 44.5356 32.4696L54.838 46.4665C55.207 46.9681 55.2427 47.6382 54.9346 48.1758H54.931Z" fill="#E81899"/>
</g>
<defs>
<clipPath id="clip0_1198_708">
<rect width="196.579" height="54" fill="white"/>
</clipPath>
</defs>
</svg>
