<svg width="370" height="100" viewBox="0 0 370 100" fill="none" xmlns="http://www.w3.org/2000/svg">
<path d="M0 14.4453L44.4434 0V100C12.6977 86.6654 0 61.1101 0 46.6679V14.4453Z" fill="#0500FF"/>
<path d="M88.8899 14.4453L44.4465 0V100C76.1923 86.6654 88.8899 61.1101 88.8899 46.6679V14.4453Z" fill="url(#paint0_linear_2895_875)"/>
<path d="M166.937 23.5894H184.564V33.4626C190.339 24.5893 196.985 23.5894 206.713 23.5894V41.0375H202.283C190.625 41.0375 185.044 46.5233 185.044 57.3904V75.9369H166.937V23.5894Z" fill="#0500FF"/>
<path d="M265.525 75.9337H247.422V70.9433C243.468 75.5307 238.081 77.5244 231.438 77.5244C218.823 77.5244 211.692 70.0449 211.692 56.2888V23.5862H229.795V52.206C229.795 58.6825 232.973 62.47 238.364 62.47C243.754 62.47 247.419 58.7779 247.419 52.5013V23.5862H265.522V75.9337H265.525Z" fill="#0500FF"/>
<path d="M269.949 59.7747H286.905C287.678 63.5621 290.277 65.1559 296.532 65.1559C301.64 65.1559 304.624 63.9621 304.624 61.7684C304.624 60.0701 303.178 58.9717 299.043 58.0763L285.367 54.9842C276.217 52.8951 271.592 47.6093 271.592 39.1298C271.592 27.9582 279.777 22.177 295.668 22.177C311.559 22.177 319.359 27.8105 320.712 39.8805H303.861C303.575 36.693 300.295 34.7424 294.905 34.7424C290.573 34.7424 287.785 36.1361 287.785 38.2345C287.785 40.0282 289.61 41.422 293.277 42.3265L307.624 45.8186C317.06 48.1077 321.592 52.8982 321.592 60.6731C321.592 71.4447 312.248 77.8259 296.366 77.8259C280.484 77.8259 269.977 70.9463 269.977 59.7747H269.959H269.949Z" fill="#0500FF"/>
<path d="M369.799 39.8683V23.5862H325.112V39.8775H338.447V75.9337H356.458V39.8683H369.799Z" fill="#0500FF"/>
<path d="M161.898 39.8683V23.5862H117.214V39.8775H130.549V75.9337H148.563V39.8683H161.898Z" fill="#0500FF"/>
<defs>
<linearGradient id="paint0_linear_2895_875" x1="77.0845" y1="-7.00265" x2="43.5112" y2="98.6339" gradientUnits="userSpaceOnUse">
<stop offset="0.02" stop-color="#0000FF"/>
<stop offset="0.08" stop-color="#0094FF"/>
<stop offset="0.16" stop-color="#48FF91"/>
<stop offset="0.42" stop-color="#0094FF"/>
<stop offset="0.68" stop-color="#0038FF"/>
<stop offset="0.9" stop-color="#0500FF"/>
</linearGradient>
</defs>
</svg>
