<svg width="45" height="75" viewBox="0 0 45 75" fill="none" xmlns="http://www.w3.org/2000/svg">
<path d="M42.94 12.4409C41.0188 8.78905 38.0108 5.74631 34.2846 3.53919C30.5599 1.34185 26.0639 0.000105037 21.1842 0.000105037C15.1693 -0.0147724 10.172 1.55232 6.40025 3.72254C2.61349 5.88502 0.980761 8.40281 0.980761 8.40281C0.344385 8.95503 -0.0145699 9.75841 0.00045342 10.5988C0.0176646 11.4404 0.405207 12.2304 1.06127 12.7552L6.30237 16.953C7.37064 17.8083 8.89951 17.7762 9.93058 16.8774C9.93058 16.8774 10.5744 15.7138 12.592 14.5612C14.6209 13.4162 17.2515 12.494 21.1842 12.4816C24.6144 12.4741 27.6052 13.7542 29.6463 15.5033C30.6603 16.3698 31.4177 17.3402 31.882 18.2279C32.3499 19.1229 32.5207 19.9053 32.5184 20.4995C32.5085 22.5074 32.1184 23.8207 31.5553 24.9397C31.1257 25.7753 30.5651 26.5169 29.8432 27.2361C28.7662 28.3131 27.3056 29.3083 25.6667 30.2231C24.0266 31.149 22.2588 31.9635 20.4724 32.9477C18.4336 34.0767 16.2761 35.6983 14.6817 38.1321C13.887 39.3353 13.2655 40.7117 12.8708 42.1637C12.4708 43.6171 12.2903 45.141 12.2903 46.6957C12.2903 48.3544 12.2903 49.7161 12.2903 49.7161C12.2903 51.2796 13.5578 52.5472 15.1214 52.5472H21.942C23.5054 52.5472 24.773 51.2796 24.773 49.7161C24.773 49.7161 24.773 48.3544 24.773 46.6957C24.773 46.0966 24.8412 45.7104 24.9068 45.4652C25.0196 45.0988 25.0827 45.0072 25.2671 44.7844C25.4552 44.5726 25.8352 44.2485 26.5357 43.8609C27.5595 43.2854 29.2046 42.508 31.0675 41.5015C33.8565 39.9765 37.2471 37.9067 40.1066 34.4913C41.529 32.7868 42.7866 30.7343 43.6543 28.37C44.5296 26.0056 45.0023 23.348 45 20.4995C44.9974 17.6139 44.215 14.8732 42.94 12.4409Z" fill="url(#paint0_linear_2841_1247)"/>
<path d="M18.5355 59.2823C14.2834 59.2823 10.8359 62.731 10.8359 66.9819C10.8359 71.2316 14.2836 74.6791 18.5355 74.6791C22.7852 74.6791 26.2313 71.2316 26.2313 66.9819C26.2313 62.731 22.7852 59.2823 18.5355 59.2823Z" fill="url(#paint1_linear_2841_1247)"/>
<defs>
<linearGradient id="paint0_linear_2841_1247" x1="22.5" y1="0" x2="22.5" y2="52.5472" gradientUnits="userSpaceOnUse">
<stop stop-color="#5690FF"/>
<stop offset="1" stop-color="#8C56FF"/>
</linearGradient>
<linearGradient id="paint1_linear_2841_1247" x1="18.5336" y1="59.2823" x2="18.5336" y2="74.6791" gradientUnits="userSpaceOnUse">
<stop stop-color="#8C56FF"/>
<stop offset="1" stop-color="#8C56FF"/>
</linearGradient>
</defs>
</svg>
