<svg width="237" height="64" viewBox="0 0 237 64" fill="none" xmlns="http://www.w3.org/2000/svg">
<g id="Logo_FA_Viction_HorizontalLockup_Standard_Beige (2) 1">
<g id="Group">
<path id="Vector" d="M16.095 18.0634H21.9937L26.8832 34.1289C27.4276 35.9522 28.085 38.5536 28.085 38.5536H28.1621C28.1621 38.5536 28.822 35.9137 29.3639 34.1289L34.2149 18.0634H39.9184L30.5657 45.8082H25.4425L16.0898 18.0634H16.095Z" fill="#F8F6D7"/>
<path id="Vector_2" d="M41.3164 18.0634H46.9429V45.8082H41.3164V18.0634Z" fill="#F8F6D7"/>
<path id="Vector_3" d="M49.1914 32.0334C49.1914 23.808 54.3146 17.5215 62.5014 17.5215C69.3298 17.5215 73.3667 21.597 73.947 26.8742H68.3591C67.8557 24.0802 65.7602 22.257 62.4988 22.257C57.3757 22.257 54.9335 26.525 54.9335 32.0359C54.9335 37.5469 57.8816 41.7764 62.5399 41.7764C65.8373 41.7764 68.1665 39.7965 68.5157 36.8869H74.0267C73.8726 39.3317 72.8248 41.6994 70.9604 43.4456C69.0601 45.2304 66.3817 46.3937 62.5399 46.3937C54.7409 46.3937 49.1914 40.3794 49.1914 32.0359V32.0334Z" fill="#F8F6D7"/>
<path id="Vector_4" d="M74.2565 18.0634H96.5674V22.7963H88.2239V45.8057H82.5974V22.7963H74.2539V18.0634H74.2565Z" fill="#F8F6D7"/>
<path id="Vector_5" d="M98.5859 18.0634H104.212V45.8082H98.5859V18.0634Z" fill="#F8F6D7"/>
<path id="Vector_6" d="M106.465 31.9949C106.465 23.6899 111.665 17.5215 119.852 17.5215C128.039 17.5215 133.2 23.6925 133.2 31.9949C133.2 40.2972 128.039 46.4297 119.852 46.4297C111.665 46.4297 106.465 40.2998 106.465 31.9949ZM127.458 31.9949C127.458 26.4454 124.975 22.1388 119.893 22.1388C114.811 22.1388 112.209 26.4454 112.209 31.9949C112.209 37.5443 114.808 41.8124 119.893 41.8124C124.978 41.8124 127.458 37.5058 127.458 31.9949Z" fill="#F8F6D7"/>
<path id="Vector_7" d="M135.41 18.0634H141.114L150.348 33.546C151.242 35.0585 152.29 37.4262 152.29 37.4262H152.367C152.367 37.4262 152.213 34.5552 152.213 32.6138V18.0634H157.762V45.8082H152.331L142.863 30.4823C141.971 29.0083 140.883 26.6406 140.883 26.6406H140.806C140.806 26.6406 140.96 29.5501 140.96 31.4916V45.8108H135.41V18.066V18.0634Z" fill="#F8F6D7"/>
</g>
<g id="Group_2">
<path id="Vector_8" d="M220.374 16.0963V29.7761C215.372 31.0653 210.125 31.7483 204.722 31.7483C199.319 31.7483 194.073 31.0627 189.07 29.7761V16.0963C194.073 17.3829 199.319 18.0685 204.722 18.0685C210.125 18.0685 215.372 17.3855 220.374 16.0963Z" fill="#F8F6D7"/>
<path id="Vector_9" d="M189.07 47.7137V34.0339C194.073 32.7447 199.319 32.0616 204.722 32.0616C210.125 32.0616 215.372 32.7473 220.374 34.0339V47.7137C215.372 46.4271 210.125 45.7414 204.722 45.7414C199.319 45.7414 194.073 46.4245 189.07 47.7137Z" fill="#F8F6D7"/>
</g>
</g>
</svg>
