<svg width="220" height="23" viewBox="0 0 220 23" fill="none" xmlns="http://www.w3.org/2000/svg">
<g id="weway 1" clip-path="url(#clip0_1045_867)">
<path id="Vector" fill-rule="evenodd" clip-rule="evenodd" d="M116.095 8.22354C116.095 6.24791 116.673 4.35967 118.233 2.95723C119.801 1.54682 122.435 0.564087 126.679 0.564087H128.484C133.088 0.564087 135.715 1.73665 137.197 3.29547C138.681 4.85664 139.097 6.89024 139.097 8.79269V9.4425H121.567L121.68 9.99373C121.895 11.0541 122.462 11.9534 123.479 12.5743C124.48 13.1843 125.881 13.505 127.744 13.505H127.774C130.015 13.505 131.381 13.0763 132.213 12.5473C132.798 12.1747 133.107 11.7599 133.264 11.4381H138.988C138.901 12.3736 138.498 13.5373 137.281 14.5275C135.851 15.6895 133.242 16.6619 128.544 16.6619H126.857C122.675 16.6619 119.993 15.6729 118.362 14.2392C116.741 12.8129 116.095 10.8921 116.095 8.8826V8.22354ZM127.537 3.39138C125.843 3.39138 124.559 3.65038 123.618 4.17014C122.659 4.70024 122.09 5.48368 121.807 6.44491L121.634 7.03456H133.481L133.331 6.45927C133.078 5.4852 132.503 4.69847 131.531 4.16894C130.581 3.65014 129.275 3.39138 127.567 3.39138H127.537ZM172.513 8.1936C172.513 6.22267 173.212 4.34116 174.661 2.95094C176.11 1.56148 178.348 0.624 181.498 0.624H181.943C186.453 0.624 188.561 2.39207 189.197 3.03594L189.97 3.81881V1.01342H195.691V16.2125H190.029V12.6702L189.199 13.9304C188.816 14.5137 186.713 16.602 182.209 16.602H181.795C178.522 16.602 176.21 15.6619 174.72 14.2404C173.23 12.8193 172.513 10.8727 172.513 8.76275V8.1936ZM183.719 3.9306C181.739 3.9306 180.38 4.49606 179.517 5.39519C178.659 6.28993 178.354 7.45137 178.354 8.52313V8.6429C178.354 9.68023 178.732 10.8415 179.621 11.7448C180.515 12.6545 181.889 13.2654 183.807 13.2654H183.954C187.672 13.2654 189.97 10.9504 189.97 8.6429V8.52313C189.97 6.13976 187.564 3.9306 183.865 3.9306H183.719ZM83.0625 1.01342L89.285 16.2125H95.502L99.7227 4.68771L103.943 16.2125H110.3L116.104 1.01342H110.934L107.101 12.2316L103.074 1.01342H96.7887L92.8919 12.2316L88.9298 1.01342H83.0625ZM145.125 16.2125L138.902 1.01342H144.77L148.731 12.2316L152.629 1.01342H158.914L162.941 12.2316L166.773 1.01342H171.945L166.14 16.2125H159.784L155.563 4.68771L151.341 16.2125H145.125ZM197.657 1.01342L204.914 15.0808L204.915 15.0828C204.99 15.2288 205.061 15.3658 205.126 15.4936C205.264 15.76 205.381 15.9872 205.469 16.1757C205.597 16.4474 205.705 16.7241 205.705 17.0007C205.705 17.2313 205.651 17.5362 205.371 17.7471C205.132 17.9264 204.812 17.9684 204.483 17.9684H201.208V21.8443H206.524C207.87 21.8443 208.852 21.4902 209.678 20.8059C210.52 20.1077 211.232 19.0396 211.977 17.5451L211.979 17.5429L219.999 1.01342H214.39L209.135 12.54L203.724 1.01342H197.657Z" fill="white"/>
<path id="Vector_2" fill-rule="evenodd" clip-rule="evenodd" d="M68.3548 1.0336C68.9734 1.65962 68.9734 2.67461 68.3548 3.30063L56.488 15.3151C55.8699 15.9412 54.8673 15.9412 54.249 15.3151C53.6306 14.6891 53.6306 13.6742 54.249 13.0481L66.1156 1.0336C66.7341 0.407582 67.7366 0.407582 68.3548 1.0336ZM36.3205 3.30063C35.7022 2.67461 35.7022 1.65962 36.3205 1.0336C36.9388 0.407582 37.9413 0.407582 38.5597 1.0336L50.4265 13.0481C51.0449 13.6742 51.0449 14.6891 50.4265 15.3151C49.808 15.9412 48.8057 15.9412 48.1873 15.3151L36.3205 3.30063ZM32.498 1.0336C33.1162 1.65962 33.1162 2.67461 32.498 3.30063L20.6311 15.3151C20.0129 15.9412 19.0103 15.9412 18.392 15.3151C17.7736 14.6891 17.7736 13.6742 18.392 13.0481L30.2588 1.0336C30.8772 0.407582 31.8796 0.407582 32.498 1.0336ZM0.463742 3.30063C-0.154581 2.67461 -0.154581 1.65962 0.463742 1.0336C1.08207 0.407582 2.08457 0.407582 2.7029 1.0336L14.5696 13.0481C15.188 13.6742 15.188 14.6891 14.5696 15.3151C13.9513 15.9412 12.9489 15.9412 12.3305 15.3151L0.463742 3.30063Z" fill="white"/>
</g>
<defs>
<clipPath id="clip0_1045_867">
<rect width="220" height="22.5641" fill="white"/>
</clipPath>
</defs>
</svg>
