<svg width="16" height="16" viewBox="0 0 16 16" fill="none" xmlns="http://www.w3.org/2000/svg">
<g clip-path="url(#clip0_1740_2945)">
<path d="M8 16C12.4183 16 16 12.4183 16 8C16 3.58172 12.4183 0 8 0C3.58172 0 0 3.58172 0 8C0 12.4183 3.58172 16 8 16Z" fill="#12F67D"/>
<path fill-rule="evenodd" clip-rule="evenodd" d="M12.2194 2.71282V3.4867C12.2194 3.65908 12.0787 3.7995 11.9054 3.7995H11.13C10.9573 3.7995 10.8166 3.65961 10.8166 3.4867V2.71282C10.8166 2.53991 10.9567 2.40002 11.13 2.40002H11.9054C12.0787 2.40002 12.2194 2.53991 12.2194 2.71282ZM13.6228 6.28722V5.51335C13.6228 5.34044 13.4821 5.20055 13.3088 5.20055H12.5334C12.3601 5.20055 12.2199 5.34044 12.2199 5.51335V6.28722C12.2199 6.46014 12.3601 6.60002 12.5334 6.60002H13.3088C13.4821 6.60002 13.6228 6.45961 13.6228 6.28722ZM11.1184 5.6218V4.84793C11.1184 4.67502 10.9777 4.53513 10.805 4.53513H10.0295C9.85628 4.53513 9.71609 4.67502 9.71609 4.84793V5.6218C9.71609 5.79471 9.85628 5.9346 10.0295 5.9346H10.805C10.9783 5.9346 11.1184 5.79471 11.1184 5.6218ZM9.72713 8.00106H10.8166V8.00002H11.9065C12.0803 8.00002 12.2205 8.13991 12.2205 8.31282V10.4872C12.2205 10.6606 12.0798 10.8006 11.9065 10.8006H11.131C10.9573 10.8006 10.8171 10.9404 10.8171 11.1134V11.8872C10.8171 12.0601 10.6769 12.2 10.5036 12.2H9.72817C9.55439 12.2 9.4142 12.3399 9.4142 12.5128V13.2867C9.4142 13.4601 9.27402 13.6 9.10076 13.6H5.51852C5.34525 13.6 5.20508 13.4596 5.20508 13.2867V12.5128C5.20508 12.3399 5.06489 12.2 4.89164 12.2H4.11617C3.94292 12.2 3.80273 12.0601 3.80273 11.8872V11.1134C3.80273 10.9404 3.66255 10.8006 3.48929 10.8006H2.71383C2.54057 10.8006 2.40039 10.6601 2.40039 10.4872V6.9123C2.40039 6.7394 2.54057 6.5995 2.71383 6.5995H3.48929C3.66255 6.5995 3.80273 6.45961 3.80273 6.2867V5.51335C3.80273 5.34044 3.94292 5.20055 4.11617 5.20055H4.89164C5.06489 5.20055 5.20508 5.06065 5.20508 4.88775V4.11439C5.20508 3.9415 5.34525 3.80159 5.51852 3.80159H7.69737C7.87063 3.80159 8.01081 3.9415 8.01081 4.11439V6.28879C8.01081 6.4617 8.151 6.60159 8.32425 6.60159H9.09972C9.27349 6.60159 9.41369 6.7415 9.41369 6.91439V7.68828C9.41369 7.86118 9.55386 8.00106 9.72713 8.00106ZM9.41369 11.1154C9.41369 10.942 9.55386 10.8021 9.72713 10.8021L10.5015 10.8011C10.6748 10.8011 10.815 10.6612 10.815 10.4883V9.71386C10.815 9.54097 10.6748 9.40106 10.5015 9.40106H9.72607C9.55333 9.40106 9.41263 9.26118 9.41263 9.08826V8.31439C9.41263 8.1415 9.27193 8.00106 9.09866 8.00106H8.32321C8.15047 8.00106 8.00977 7.86118 8.00977 7.68828V6.91439C8.00977 6.74201 7.86957 6.60159 7.69633 6.60159H6.92085C6.74761 6.60159 6.60741 6.4617 6.60741 6.28879V5.51492C6.60741 5.34201 6.46724 5.20212 6.29397 5.20212H5.51852C5.34525 5.20212 5.20508 5.34201 5.20508 5.51492V6.28879C5.20508 6.4617 5.06489 6.60159 4.89164 6.60159H4.11617C3.94292 6.60159 3.80273 6.7415 3.80273 6.91439V10.4893C3.80273 10.6622 3.94292 10.8021 4.11617 10.8021H4.89164C5.06437 10.8021 5.20508 10.942 5.20508 11.1149V11.8888C5.20508 12.0617 5.34525 12.2016 5.51852 12.2016H9.10025C9.27349 12.2016 9.41369 12.0617 9.41369 11.8888V11.1154Z" fill="black"/>
</g>
<defs>
<clipPath id="clip0_1740_2945">
<rect width="16" height="16" fill="white"/>
</clipPath>
</defs>
</svg>
