<svg width="24" height="24" viewBox="0 0 24 24" fill="none" xmlns="http://www.w3.org/2000/svg">
<g id="Tko_512x512 1" clip-path="url(#clip0_1612_2151)">
<g id="Clip path group">
<mask id="mask0_1612_2151" style="mask-type:luminance" maskUnits="userSpaceOnUse" x="0" y="0" width="24" height="24">
<g id="clip0_132_10">
<path id="Vector" d="M24 0H0V24H24V0Z" fill="white"/>
</g>
</mask>
<g mask="url(#mask0_1612_2151)">
<g id="Group">
<path id="Vector_2" d="M12 24C18.6274 24 24 18.6274 24 12C24 5.37258 18.6274 0 12 0C5.37258 0 0 5.37258 0 12C0 18.6274 5.37258 24 12 24Z" fill="#E81899"/>
<path id="Vector_3" d="M18.8256 15.0975L16.3837 11.8461C16.1185 11.4927 15.7257 11.2811 15.3074 11.2345C15.2122 11.2236 15.1271 11.1695 15.0795 11.0878C15.031 11.0061 15.0259 10.907 15.0642 10.8203C15.2317 10.442 15.2419 10.0029 15.0616 9.60125L13.4097 5.90323C13.1648 5.35414 12.6113 5 12 5C11.3887 5 10.8352 5.35494 10.5903 5.90323L8.93836 9.60125C8.75897 10.0029 8.76829 10.442 8.93578 10.8203C8.97408 10.907 8.96812 11.0061 8.9205 11.0878C8.87203 11.1695 8.78784 11.2236 8.69264 11.2345C8.27433 11.2811 7.88151 11.4927 7.61625 11.8461L5.17444 15.0975C4.81223 15.5799 4.77567 16.2265 5.08087 16.7457C5.38697 17.264 5.97703 17.5564 6.58411 17.4906L10.6779 17.044C11.1225 16.9956 11.506 16.7682 11.756 16.4365C11.813 16.3607 11.9039 16.3157 12 16.3157C12.0961 16.3157 12.1862 16.3607 12.244 16.4365C12.494 16.7682 12.8774 16.9956 13.3221 17.044L17.4159 17.4906C18.023 17.5573 18.613 17.2648 18.9191 16.7457C19.2243 16.2265 19.1878 15.5799 18.8256 15.0975ZM10.0062 10.0654L11.6608 6.36322C11.7203 6.2307 11.8537 6.14488 12.0008 6.14488C12.1479 6.14488 12.2814 6.2307 12.3409 6.36322L13.9955 10.0654C14.0473 10.182 14.0363 10.317 13.9649 10.4237C13.8934 10.5304 13.7727 10.5945 13.6418 10.5945H10.3591C10.229 10.5945 10.1074 10.5304 10.036 10.4237C9.96454 10.317 9.95353 10.182 10.0054 10.0654H10.0062ZM10.8556 15.7016C10.797 15.8158 10.683 15.8924 10.5538 15.9065L6.45572 16.3532C6.30947 16.369 6.16664 16.299 6.09267 16.1741C6.0187 16.049 6.02803 15.8932 6.11559 15.7766L8.55998 12.5218C8.63737 12.4194 8.7615 12.361 8.89158 12.3685C9.02165 12.3752 9.13898 12.446 9.20447 12.5569L9.207 12.561L10.8437 15.3391L10.8463 15.3433C10.9117 15.4541 10.9151 15.5891 10.8564 15.7024L10.8556 15.7016ZM12.3367 14.445C12.267 14.5625 12.1395 14.6359 12 14.6359C11.8614 14.6359 11.733 14.5633 11.6633 14.4459L10.4058 12.3118C10.3361 12.1944 10.3361 12.0485 10.4058 11.9311C10.4755 11.8136 10.6031 11.7402 10.7425 11.7402H13.2566C13.3952 11.7402 13.5236 11.8119 13.5933 11.9302C13.663 12.0485 13.663 12.1935 13.5933 12.311L12.3367 14.445ZM17.9082 16.1741C17.8342 16.299 17.6922 16.3699 17.5451 16.354L13.4471 15.9074C13.3178 15.8932 13.2039 15.8165 13.1452 15.7024C13.0866 15.5883 13.09 15.4533 13.1555 15.3433L13.158 15.3391L14.7947 12.561L14.7972 12.5569C14.8627 12.446 14.98 12.3752 15.1101 12.3685C15.2402 12.3619 15.3643 12.4194 15.4417 12.5218L17.8861 15.7766C17.9737 15.8932 17.9821 16.049 17.909 16.1741H17.9082Z" fill="#FAFAFA"/>
</g>
</g>
</g>
</g>
<defs>
<clipPath id="clip0_1612_2151">
<rect width="24" height="24" fill="white"/>
</clipPath>
</defs>
</svg>
