<svg width="106" height="34" viewBox="0 0 106 34" fill="none" xmlns="http://www.w3.org/2000/svg">
<g clip-path="url(#clip0_3439_9212)">
<path d="M101.806 4.67532C100.151 1.7804 97.1111 0 93.8252 0H53.0046H12.1794C8.89358 0 5.85336 1.7804 4.19421 4.67532L0 12H53H106L101.806 4.67532Z" fill="#4E195C"/>
<path d="M101.799 4.54587C100.144 1.72936 97.0995 0 93.8091 0H12.1808C8.89049 0 5.8504 1.72936 4.19132 4.54587L3.84375 5.13761C4.04766 4.84404 6.5409 1.33945 7.19897 5.50459C7.21751 5.60092 7.23605 5.70642 7.24995 5.82569C7.52337 7.92202 7.96826 9.8578 8.54755 11.656C15.0124 31.867 38.6982 34 52.995 34C67.2964 34 90.9776 31.8624 97.447 11.656C98.0263 9.8578 98.4666 7.92661 98.7446 5.82569C98.7539 5.71101 98.7724 5.60092 98.7956 5.50459C99.4537 1.33486 101.947 4.84404 102.151 5.13761L101.799 4.54587Z" fill="url(#paint0_linear_3439_9212)"/>
</g>
<circle cx="35" cy="15" r="8" fill="white"/>
<g clip-path="url(#clip1_3439_9212)">
<path d="M34.9469 17.9016V16.4505L33.6904 17.1761V15.725L32.4339 16.4505V14.5458L30.3281 13.3252V17.6663L34.9469 20.3332L38.7017 18.1655L36.6 16.9464L34.9469 17.9016Z" fill="url(#paint1_linear_3439_9212)"/>
<path d="M34.9496 9.66602L31.1875 11.8386L33.2892 13.0568L34.9496 12.0975V13.5487L36.2061 12.8231V14.2742L37.4626 13.5487V15.4615L39.5684 16.6829V12.3329L34.9496 9.66602Z" fill="url(#paint2_linear_3439_9212)"/>
<path d="M33.694 14.2743L34.9505 13.5488V12.0977L32.4375 13.5488V16.4502L33.694 15.7246V14.2743Z" fill="black"/>
<path d="M35.7727 16.4673V15.4771L36.6301 14.982L37.4583 15.4616V13.5488L34.9453 14.9991V17.9013L36.5984 16.9461L35.7727 16.4673Z" fill="black"/>
</g>
<path d="M46.8888 14.8C46.8888 13.976 47.0728 13.24 47.4408 12.592C47.8168 11.936 48.3248 11.428 48.9648 11.068C49.6128 10.7 50.3368 10.516 51.1368 10.516C52.0728 10.516 52.8928 10.756 53.5968 11.236C54.3008 11.716 54.7928 12.38 55.0728 13.228H53.1408C52.9488 12.828 52.6768 12.528 52.3248 12.328C51.9808 12.128 51.5808 12.028 51.1248 12.028C50.6368 12.028 50.2008 12.144 49.8168 12.376C49.4408 12.6 49.1448 12.92 48.9288 13.336C48.7208 13.752 48.6168 14.24 48.6168 14.8C48.6168 15.352 48.7208 15.84 48.9288 16.264C49.1448 16.68 49.4408 17.004 49.8168 17.236C50.2008 17.46 50.6368 17.572 51.1248 17.572C51.5808 17.572 51.9808 17.472 52.3248 17.272C52.6768 17.064 52.9488 16.76 53.1408 16.36H55.0728C54.7928 17.216 54.3008 17.884 53.5968 18.364C52.9008 18.836 52.0808 19.072 51.1368 19.072C50.3368 19.072 49.6128 18.892 48.9648 18.532C48.3248 18.164 47.8168 17.656 47.4408 17.008C47.0728 16.36 46.8888 15.624 46.8888 14.8ZM56.0997 14.8C56.0997 13.976 56.2837 13.24 56.6517 12.592C57.0277 11.936 57.5357 11.428 58.1757 11.068C58.8237 10.7 59.5477 10.516 60.3477 10.516C61.2837 10.516 62.1037 10.756 62.8077 11.236C63.5117 11.716 64.0037 12.38 64.2837 13.228H62.3517C62.1597 12.828 61.8877 12.528 61.5357 12.328C61.1917 12.128 60.7917 12.028 60.3357 12.028C59.8477 12.028 59.4117 12.144 59.0277 12.376C58.6517 12.6 58.3557 12.92 58.1397 13.336C57.9317 13.752 57.8277 14.24 57.8277 14.8C57.8277 15.352 57.9317 15.84 58.1397 16.264C58.3557 16.68 58.6517 17.004 59.0277 17.236C59.4117 17.46 59.8477 17.572 60.3357 17.572C60.7917 17.572 61.1917 17.472 61.5357 17.272C61.8877 17.064 62.1597 16.76 62.3517 16.36H64.2837C64.0037 17.216 63.5117 17.884 62.8077 18.364C62.1117 18.836 61.2917 19.072 60.3477 19.072C59.5477 19.072 58.8237 18.892 58.1757 18.532C57.5357 18.164 57.0277 17.656 56.6517 17.008C56.2837 16.36 56.0997 15.624 56.0997 14.8ZM67.3986 10.624V19H65.7186V10.624H67.3986ZM75.1665 13.216C75.1665 13.664 75.0585 14.084 74.8425 14.476C74.6345 14.868 74.3025 15.184 73.8465 15.424C73.3985 15.664 72.8305 15.784 72.1425 15.784H70.7385V19H69.0585V10.624H72.1425C72.7905 10.624 73.3425 10.736 73.7985 10.96C74.2545 11.184 74.5945 11.492 74.8185 11.884C75.0505 12.276 75.1665 12.72 75.1665 13.216ZM72.0705 14.428C72.5345 14.428 72.8785 14.324 73.1025 14.116C73.3265 13.9 73.4385 13.6 73.4385 13.216C73.4385 12.4 72.9825 11.992 72.0705 11.992H70.7385V14.428H72.0705Z" fill="white"/>
<defs>
<linearGradient id="paint0_linear_3439_9212" x1="52.9965" y1="36.8006" x2="52.9965" y2="-0.0164585" gradientUnits="userSpaceOnUse">
<stop stop-color="#512376"/>
<stop offset="0.40625" stop-color="#7F2B8A"/>
<stop offset="0.729167" stop-color="#7F2B8A"/>
<stop offset="1" stop-color="#512376"/>
</linearGradient>
<linearGradient id="paint1_linear_3439_9212" x1="34.5161" y1="15.7429" x2="32.6367" y2="18.9993" gradientUnits="userSpaceOnUse">
<stop stop-color="#7790E2"/>
<stop offset="1" stop-color="#486DDC"/>
</linearGradient>
<linearGradient id="paint2_linear_3439_9212" x1="37.2598" y1="10.9999" x2="35.3763" y2="14.2628" gradientUnits="userSpaceOnUse">
<stop stop-color="#7790E2"/>
<stop offset="1" stop-color="#486DDC"/>
</linearGradient>
<clipPath id="clip0_3439_9212">
<rect width="106" height="34" fill="white"/>
</clipPath>
<clipPath id="clip1_3439_9212">
<rect width="9.23755" height="10.6667" fill="white" transform="translate(30.3281 9.66602)"/>
</clipPath>
</defs>
</svg>
