<svg width="44" height="14" viewBox="0 0 44 14" fill="none" xmlns="http://www.w3.org/2000/svg">
<g clip-path="url(#clip0_3431_8644)">
<path d="M15.1049 6.67254C15.0922 6.3582 15.1418 6.04445 15.2509 5.74938C15.3601 5.45432 15.5266 5.18379 15.7408 4.95339C15.955 4.723 16.2127 4.53731 16.4991 4.40703C16.7854 4.27675 17.0947 4.20446 17.4092 4.19434H17.5069C18.7222 4.19434 19.4394 4.9092 19.6515 5.7456L18.8961 5.99818C18.8282 5.6865 18.6506 5.40961 18.3956 5.21801C18.1405 5.02642 17.8251 4.93288 17.5069 4.95448C16.7205 4.95448 15.9318 5.52875 15.9318 6.68683C15.9318 7.84492 16.7015 8.39775 17.5164 8.39775C17.8362 8.40649 18.1498 8.3077 18.4068 8.11718C18.6639 7.92667 18.8496 7.65544 18.9342 7.34689L19.6753 7.58518C19.5474 8.05585 19.2629 8.46885 18.8686 8.75606C18.4744 9.04327 17.9941 9.18753 17.5069 9.16504C16.881 9.17652 16.2761 8.939 15.8252 8.50468C15.3744 8.07035 15.1144 7.47478 15.1025 6.84887C15.1002 6.79168 15.1025 6.73211 15.1049 6.67254Z" fill="white"/>
<path d="M21.1488 9.05507H20.3672V4.17969H21.1488V6.086C21.2622 5.95142 21.4049 5.84454 21.566 5.7735C21.7271 5.70247 21.9022 5.66917 22.0781 5.67614C22.8859 5.67614 23.2695 6.25518 23.2695 6.9772V9.05507H22.5166V7.1154C22.5391 6.95005 22.4958 6.78246 22.396 6.64874C22.2961 6.51502 22.1477 6.42588 21.9828 6.40054C21.936 6.39574 21.8889 6.39574 21.8422 6.40054C21.6614 6.40054 21.4881 6.47234 21.3603 6.60015C21.2325 6.72795 21.1607 6.9013 21.1607 7.08204C21.1595 7.10188 21.1595 7.12178 21.1607 7.14162L21.1488 9.05507Z" fill="white"/>
<path d="M25.0211 7.17755L25.8598 7.04649C26.0505 7.02266 26.0981 6.92496 26.0981 6.8082C26.0981 6.53178 25.9123 6.31018 25.4786 6.31018C25.3148 6.29693 25.1524 6.3488 25.0266 6.45452C24.9008 6.56024 24.8217 6.7113 24.8066 6.87492V6.91066L24.0917 6.75101C24.1513 6.18388 24.666 5.67871 25.4714 5.67871C26.4818 5.67871 26.8654 6.2506 26.8654 6.91781V8.54532C26.8646 8.72167 26.8781 8.89779 26.9059 9.07194H26.1911C26.1653 8.93372 26.1549 8.79306 26.1601 8.65255C26.0516 8.81955 25.9012 8.95517 25.7239 9.0459C25.5466 9.13663 25.3486 9.1793 25.1497 9.16964C24.878 9.19207 24.6086 9.10582 24.4004 8.92981C24.1922 8.75381 24.0624 8.50241 24.0393 8.23078C24.0393 8.2141 24.0393 8.19742 24.0393 8.18312C24.0274 7.58025 24.4587 7.25618 25.0211 7.17755ZM26.1029 7.70416V7.55404L25.2474 7.68272C25.1313 7.6864 25.0211 7.73482 24.9398 7.81786C24.8586 7.9009 24.8125 8.01214 24.8114 8.12832C24.8123 8.18589 24.8246 8.2427 24.8478 8.29544C24.8709 8.34818 24.9042 8.39579 24.9459 8.43549C24.9876 8.4752 25.0368 8.5062 25.0906 8.52669C25.1444 8.54719 25.2018 8.55676 25.2593 8.55486H25.2951C25.3926 8.56506 25.4912 8.55587 25.5852 8.52781C25.6792 8.49975 25.7666 8.45338 25.8426 8.39136C25.9186 8.32935 25.9815 8.25291 26.0278 8.16646C26.0741 8.08001 26.1029 7.98525 26.1124 7.88765C26.1158 7.82623 26.1118 7.76463 26.1005 7.70416H26.1029Z" fill="white"/>
<path d="M28.1981 4.11316C28.2653 4.11222 28.332 4.12455 28.3943 4.14946C28.4567 4.17437 28.5136 4.21135 28.5616 4.25829C28.6097 4.30523 28.648 4.36121 28.6743 4.42299C28.7007 4.48478 28.7146 4.55117 28.7152 4.61834C28.7152 4.71889 28.6854 4.81719 28.6297 4.90089C28.574 4.98458 28.4948 5.04994 28.402 5.08873C28.3092 5.12753 28.2071 5.13804 28.1084 5.11894C28.0096 5.09983 27.9188 5.05197 27.8472 4.98137C27.7756 4.91076 27.7265 4.82057 27.706 4.72213C27.6855 4.62369 27.6946 4.52139 27.7321 4.42809C27.7696 4.3348 27.8339 4.25467 27.9168 4.19779C27.9997 4.14091 28.0976 4.10981 28.1981 4.1084V4.11316ZM27.8168 9.06957V5.77642H28.5984V9.05527L27.8168 9.06957Z" fill="white"/>
<path d="M30.373 9.05546H29.5938V5.7766H30.3539V6.21267C30.453 6.04522 30.5953 5.90753 30.766 5.81404C30.9366 5.72054 31.1293 5.67469 31.3237 5.68129C32.1244 5.68129 32.5152 6.26033 32.5152 6.98234V9.05546H31.736V7.11579C31.736 6.71308 31.5525 6.38662 31.0616 6.38662C30.9709 6.38725 30.8811 6.40574 30.7975 6.44104C30.7139 6.47635 30.6381 6.52778 30.5744 6.59239C30.5106 6.657 30.4603 6.73353 30.4261 6.81761C30.392 6.90169 30.3747 6.99168 30.3753 7.08243C30.3753 7.10864 30.3753 7.13485 30.3753 7.16106L30.373 9.05546Z" fill="white"/>
<path d="M33.4609 9.05507V4.17969H34.2425V9.05507H33.4609Z" fill="white"/>
<path d="M35.638 4.11329C35.7386 4.11282 35.837 4.14224 35.9209 4.19783C36.0047 4.25342 36.0701 4.33267 36.1088 4.42551C36.1475 4.51835 36.1578 4.62059 36.1383 4.71927C36.1188 4.81795 36.0704 4.90861 35.9993 4.97973C35.9281 5.05086 35.8375 5.09925 35.7388 5.11875C35.6401 5.13826 35.5379 5.12801 35.445 5.0893C35.3522 5.05059 35.273 4.98517 35.2174 4.90133C35.1618 4.8175 35.1323 4.71904 35.1328 4.61846C35.1341 4.48486 35.1877 4.35709 35.2822 4.26262C35.3766 4.16815 35.5044 4.11453 35.638 4.11329ZM35.2543 9.06969V5.77654H36.0288V9.05539L35.2543 9.06969Z" fill="white"/>
<path d="M37.8207 9.05541H37.0391V5.77656H37.7992V6.21263C37.8985 6.04535 38.0409 5.9078 38.2115 5.81433C38.3821 5.72086 38.5746 5.6749 38.769 5.68124C39.5697 5.68124 39.9605 6.26028 39.9605 6.9823V9.05541H39.1789V7.11574C39.2015 6.95039 39.1581 6.78279 39.0583 6.64908C38.9585 6.51536 38.8101 6.42622 38.6451 6.40087C38.5976 6.3961 38.5497 6.3961 38.5022 6.40087C38.3201 6.40276 38.1462 6.47639 38.0181 6.60578C37.8901 6.73518 37.8183 6.90987 37.8183 7.09191C37.8158 7.11966 37.8158 7.14757 37.8183 7.17531L37.8207 9.05541Z" fill="white"/>
<path d="M42.6226 7.16068L43.9975 9.06699H43.0444L42.0912 7.71589L41.6885 8.14004V9.05507H40.9141V4.17969H41.6885V7.10111L42.9467 5.77622H43.9832L42.6226 7.16068Z" fill="white"/>
<path d="M5.85237 2.85946L9.2313 4.79913V8.69754L5.8619 10.6491L2.48535 8.71422V4.8182L5.85237 2.85946ZM5.85237 0L4.61327 0.714866L1.2391 2.6736L0 3.38846V10.1487L1.2391 10.8636L4.61803 12.8032L5.85714 13.5181L7.09624 12.8032L10.4633 10.8493L11.7024 10.1344V3.36464L10.4633 2.64977L7.0867 0.714866L5.8476 0H5.85237Z" fill="white"/>
</g>
<defs>
<clipPath id="clip0_3431_8644">
<rect width="44" height="13.5133" fill="white"/>
</clipPath>
</defs>
</svg>
