<svg width="18" height="18" viewBox="0 0 18 18" fill="none" xmlns="http://www.w3.org/2000/svg">
<rect width="18" height="18" rx="9" fill="url(#paint0_linear_1346_7835)"/>
<path d="M4.67545 9.15084L4.68251 11.7394L6.88196 13.0336V14.5491L3.39532 12.5041V8.3939L4.67545 9.15084ZM4.67545 6.56233V8.07073L3.39453 7.313V5.8046L4.67545 5.04688L5.96265 5.8046L4.67545 6.56233ZM7.80049 5.8046L9.08141 5.04688L10.3686 5.8046L9.08141 6.56233L7.80049 5.8046Z" fill="white"/>
<path d="M5.60156 11.2028V9.68737L6.88248 10.4451V11.9535L5.60156 11.2028ZM7.80101 13.5764L9.08194 14.3341L10.3691 13.5764V15.0848L9.08194 15.8425L7.80101 15.0848V13.5764ZM12.2062 5.8046L13.4871 5.04688L14.7743 5.8046V7.313L13.4871 8.07073V6.56233L12.2062 5.8046ZM13.4871 11.7394L13.4942 9.15084L14.7751 8.39312V12.5034L11.2884 14.5483V13.0328L13.4871 11.7394Z" fill="white"/>
<path d="M12.57 11.203L11.2891 11.9536V10.4452L12.57 9.6875V11.203Z" fill="white"/>
<path d="M12.5686 7.09674L12.5756 8.6122L10.3699 9.90645V12.5012L9.08899 13.2519L7.80807 12.5012V9.90645L5.60235 8.6122V7.09674L6.88876 6.33901L9.08115 7.63955L11.2869 6.33901L12.5741 7.09674H12.5686ZM5.60156 4.50902L9.08193 2.45703L12.5686 4.50902L11.2877 5.26674L9.08193 3.96621L6.88248 5.26674L5.60156 4.50902Z" fill="white"/>
<defs>
<linearGradient id="paint0_linear_1346_7835" x1="18" y1="18" x2="0" y2="0" gradientUnits="userSpaceOnUse">
<stop stop-color="#D1A000"/>
<stop offset="1" stop-color="#FFD632"/>
</linearGradient>
</defs>
</svg>
