<svg width="18" height="18" viewBox="0 0 18 18" fill="none" xmlns="http://www.w3.org/2000/svg">
<g clip-path="url(#clip0_1346_7864)">
<path d="M9 0C13.9702 0 18 4.02984 18 9C18 13.9702 13.9702 18 9 18C4.02984 18 0 13.9702 0 9C0 4.02984 4.02984 0 9 0Z" fill="#F0B90B"/>
<path d="M2.87891 9.00374L4.40747 7.47518L5.93603 9.00374L4.40747 10.5323L2.87891 9.00374ZM13.5903 7.4651L7.46315 13.5923L8.99171 15.1209L15.1189 8.99366L13.5903 7.4651ZM5.17139 11.2962L11.2986 5.16902L12.8271 6.69758L6.69995 12.8248L5.17139 11.2962ZM5.16851 6.71486L9.00251 2.88086L10.5311 4.40942L6.69707 8.24342L5.16851 6.71486Z" fill="white"/>
</g>
<defs>
<clipPath id="clip0_1346_7864">
<rect width="18" height="18" fill="white"/>
</clipPath>
</defs>
</svg>
