<svg width="18" height="18" viewBox="0 0 27 26" fill="none" xmlns="http://www.w3.org/2000/svg">
<path d="M13.5 0C20.6804 0 26.5 5.82081 26.5 13C26.5 20.1804 20.6804 26 13.5 26C6.32081 26 0.5 20.1798 0.5 13C0.5 5.82081 6.32081 0 13.5 0Z" fill="url(#paint0_linear_165_1460)"/>
<path d="M13.9797 13.9179H18.9195C19.0248 13.9179 19.0745 13.9179 19.0821 13.7798C19.1225 13.2773 19.1225 12.7718 19.0821 12.2687C19.0821 12.171 19.0336 12.1307 18.9277 12.1307H9.09665C8.97497 12.1307 8.94221 12.171 8.94221 12.2851V13.7312C8.94221 13.9179 8.94221 13.9179 9.13702 13.9179H13.9797ZM18.5305 10.4406C18.5445 10.4037 18.5445 10.3634 18.5305 10.3271C18.448 10.1475 18.3503 9.97609 18.2368 9.81521C18.066 9.54026 17.8647 9.28695 17.6354 9.05938C17.5272 8.92191 17.402 8.79847 17.2616 8.69376C16.5584 8.0953 15.7224 7.67175 14.8239 7.45881C14.3705 7.35702 13.9072 7.30846 13.4427 7.31256H9.07969C8.95801 7.31256 8.94163 7.36111 8.94163 7.467V10.3511C8.94163 10.4728 8.94163 10.5055 9.09607 10.5055H18.472C18.472 10.5055 18.5533 10.4891 18.5696 10.4406H18.5299H18.5305ZM18.5305 15.6079C18.3924 15.5927 18.2532 15.5927 18.1151 15.6079H9.10484C8.98316 15.6079 8.94221 15.6079 8.94221 15.7706V18.5903C8.94221 18.7202 8.94221 18.7529 9.10484 18.7529H13.2648C13.4637 18.7681 13.6626 18.7541 13.8574 18.7126C14.4612 18.6693 15.0549 18.5382 15.6212 18.3224C15.8271 18.251 16.026 18.158 16.2138 18.0462H16.2706C17.2458 17.539 18.0379 16.7423 18.5375 15.7641C18.5375 15.7641 18.5942 15.6413 18.5305 15.6091V15.6079ZM7.30946 20.2149V20.1663V18.2732V17.6315V15.722C7.30946 15.6161 7.30946 15.6003 7.17959 15.6003H5.41638C5.31869 15.6003 5.27832 15.6003 5.27832 15.4705V13.9266H7.16321C7.26851 13.9266 7.30946 13.9266 7.30946 13.7886V12.2611C7.30946 12.1634 7.30946 12.1394 7.17959 12.1394H5.41638C5.31869 12.1394 5.27832 12.1394 5.27832 12.0096V10.5798C5.27832 10.4903 5.27832 10.4663 5.40819 10.4663H7.15502C7.2767 10.4663 7.30946 10.4663 7.30946 10.3119V5.93253C7.30946 5.80266 7.30946 5.7699 7.47209 5.7699H13.5655C14.0078 5.78745 14.4471 5.836 14.8818 5.91615C15.7774 6.08171 16.638 6.4017 17.4248 6.85859C17.9466 7.16572 18.4269 7.53662 18.8545 7.96367C19.1763 8.29771 19.4665 8.65924 19.7239 9.04418C19.9795 9.43437 20.1919 9.85148 20.3586 10.2873C20.3791 10.4008 20.4879 10.4774 20.6014 10.4581H22.0557C22.2423 10.4581 22.2423 10.4581 22.2505 10.6371V11.9698C22.2505 12.0997 22.2019 12.1324 22.0715 12.1324H20.95C20.8365 12.1324 20.8038 12.1324 20.812 12.2787C20.8564 12.7736 20.8564 13.2703 20.812 13.7652C20.812 13.9032 20.812 13.9196 20.967 13.9196H22.2499C22.3067 13.9927 22.2499 14.0659 22.2499 14.1396C22.2581 14.2338 22.2581 14.3291 22.2499 14.4233V15.4067C22.2499 15.5448 22.2096 15.5857 22.0873 15.5857H20.5516C20.4446 15.5652 20.3405 15.6337 20.3159 15.7401C19.9503 16.6908 19.3653 17.5431 18.6094 18.2264C18.3333 18.4751 18.0431 18.7091 17.7401 18.9249C17.4148 19.1121 17.0984 19.3069 16.7649 19.4614C16.1512 19.7375 15.5077 19.9411 14.8473 20.0704C14.2201 20.1827 13.5842 20.2336 12.946 20.2248H7.30712V20.2166L7.30946 20.2149Z" fill="#FEFEFD"/>
<defs>
<linearGradient id="paint0_linear_165_1460" x1="13.5" y1="0" x2="13.5" y2="26" gradientUnits="userSpaceOnUse">
<stop stop-color="#F9AB12"/>
<stop offset="1" stop-color="#FBC856"/>
</linearGradient>
</defs>
</svg>
