<svg width="20" height="20" viewBox="0 0 20 20" fill="none" xmlns="http://www.w3.org/2000/svg">
<circle cx="10" cy="10" r="10" fill="url(#paint0_linear_1346_6105)"/>
<path d="M3.83427 10.2327L7.89722 13.2655C7.90366 13.2655 7.90366 13.2719 7.91009 13.2719L9.4168 14.3923C9.54558 14.4888 9.72587 14.3987 9.72587 14.2377L9.7323 5.88647C9.71943 5.73837 9.70011 5.58384 9.66792 5.43574C9.63572 5.29409 9.59065 5.15887 9.52626 5.04297C9.63572 5.86071 9.17212 6.81367 8.38657 7.43824C8.21272 7.5799 7.97448 7.73443 7.71049 7.84389C7.42718 7.96623 6.5708 8.26242 6.5708 8.26242L3.9888 9.19606C3.54452 9.35704 3.45437 9.94942 3.83427 10.2327Z" fill="#F2EEFF"/>
<path d="M7.86649 7.77298C7.87293 7.76654 7.8858 7.76654 7.89224 7.7601C7.90512 7.75366 7.918 7.74722 7.93731 7.73434C7.95663 7.7279 7.96951 7.71503 7.98883 7.70859C7.99526 7.70215 8.00814 7.69571 8.01458 7.69571C8.0339 7.68283 8.05965 7.66995 8.07897 7.65708C8.08541 7.65064 8.09185 7.65064 8.09829 7.6442C8.1176 7.63132 8.13692 7.61844 8.16268 7.60557C8.17555 7.59913 8.18199 7.59269 8.19487 7.58625C8.20775 7.57337 8.22706 7.56693 8.23994 7.55405C8.25926 7.54118 8.27858 7.52186 8.30433 7.50898C8.31077 7.50898 8.31077 7.50254 8.31721 7.50254C8.34297 7.48323 8.36872 7.46391 8.39448 7.44459C9.18002 6.82002 9.64362 5.86706 9.53416 5.04932C9.48909 4.97205 9.43114 4.90122 9.36675 4.84971L8.02746 3.85812C7.89868 3.76154 7.71195 3.85168 7.71195 4.01266V6.34998C7.71195 7.81805 6.57227 8.26233 6.57227 8.26233C6.57227 8.26233 7.43508 7.97258 7.71195 7.85024C7.76346 7.82449 7.81498 7.79873 7.86649 7.77298Z" fill="#DBD9FF"/>
<path d="M16.2529 9.92976L12.19 6.89704C12.1835 6.89704 12.1835 6.8906 12.1771 6.8906L10.6704 5.77023C10.5416 5.67365 10.3613 5.76379 10.3613 5.92476V14.276C10.3742 14.4241 10.3935 14.5787 10.4257 14.7267C10.4579 14.8684 10.503 15.0036 10.5674 15.1195C10.4579 14.3018 10.9215 13.3488 11.7071 12.7243C11.8809 12.5826 12.1191 12.4281 12.3831 12.3186C12.66 12.1963 13.5228 11.9065 13.5228 11.9065L16.1048 10.9729C16.5491 10.8055 16.6328 10.2131 16.2529 9.92976Z" fill="#F2EEFF"/>
<path d="M12.2266 12.3897C12.2201 12.3962 12.2072 12.3962 12.2008 12.4026C12.1879 12.4091 12.175 12.4155 12.1557 12.4284C12.1364 12.4348 12.1235 12.4477 12.1042 12.4541C12.0978 12.4606 12.0849 12.467 12.0785 12.467C12.0591 12.4799 12.0334 12.4928 12.0141 12.5056C12.0076 12.5121 12.0012 12.5121 11.9948 12.5185C11.9754 12.5314 11.9561 12.5443 11.9304 12.5572C11.9175 12.5636 11.911 12.57 11.8982 12.5765C11.8853 12.5894 11.866 12.5958 11.8531 12.6087C11.8338 12.6215 11.8145 12.6409 11.7887 12.6537C11.7823 12.6537 11.7823 12.6602 11.7758 12.6602C11.7501 12.6795 11.7243 12.6988 11.6986 12.7181C10.913 13.3427 10.4494 14.2957 10.5589 15.1134C10.6039 15.1907 10.6619 15.2615 10.7263 15.313L12.0591 16.3046C12.1879 16.4012 12.3746 16.311 12.3746 16.1501V13.8127C12.3746 12.3511 13.5143 11.9004 13.5143 11.9004C13.5143 11.9004 12.6515 12.1901 12.3746 12.3125C12.3296 12.3382 12.2781 12.364 12.2266 12.3897Z" fill="#DBD9FF"/>
<defs>
<linearGradient id="paint0_linear_1346_6105" x1="10" y1="0" x2="10" y2="20" gradientUnits="userSpaceOnUse">
<stop stop-color="#7770E0"/>
<stop offset="1" stop-color="#554FD8"/>
</linearGradient>
</defs>
</svg>
