<?xml version="1.0" encoding="UTF-8"?>
<svg fill="none" viewBox="0 0 24 24" xmlns="http://www.w3.org/2000/svg">
<circle cx="12" cy="12" r="11.75" fill="#000" stroke="#000" stroke-width=".5"/>
<mask id="b" x="4" y="4" width="16" height="16" style="mask-type:luminance" maskUnits="userSpaceOnUse">
<path d="m19.4 11.582c-0.0516 0-0.1259 0-0.2195-0.0065-0.1873-0.0064-0.4457-0.0193-0.733-0.0452-0.591-0.0516-1.2658-0.1517-1.7276-0.3358-0.7394-0.2938-1.156-0.6878-1.6339-1.1431l-0.0291-0.0258c-0.4779-0.45853-1.0139-0.97518-1.9438-1.4111-0.9171-0.43269-1.931-0.36165-2.6737-0.20989-0.3778 0.0775-0.70072 0.18083-0.93321 0.26479-0.11625 0.04197-0.20666 0.07749-0.27124 0.10656-0.37457 0.15822-0.73946 0.34551-1.1076 0.51665 0 0 0.72331 0.19697 1.0785 0.30676 0.01291 0.00323 0.03229 0.00968 0.05812 0.01937 0.05167 0.01938 0.12916 0.04521 0.22281 0.08396 0.18728 0.07749 0.43592 0.19051 0.68128 0.34871 0.3843 0.2487 0.704 0.5587 0.8364 0.9397-0.817 0.1065-1.5855 0.465-2.157 0.804-0.34874 0.2034-0.63612 0.4101-0.83955 0.5619-0.1001 0.0775-0.18083 0.1421-0.23895 0.1873-0.04521 0.0387-0.78467 0.6878-0.78467 0.6878s0.95258 0.1001 1.4208 0.1969c0.31322 0.0614 0.733 0.1647 1.1722 0.3165 0.44237 0.155 0.88797 0.3552 1.2594 0.6135 0.3713 0.2583 0.6425 0.5586 0.7782 0.9009 0.3907 0.9978 0.0064 1.9697-0.7621 2.5154-0.7588 0.5393-1.9148 0.6685-3.0708-0.1227l0.00323 0.0065c-1.7211-1.2852-2.8383-3.3421-2.8383-5.6573 0-3.8975 3.158-7.0588 7.0555-7.0588 3.1909 0 6.6744 1.8913 7.5582 4.7974-0.9684-3.2552-3.9863-5.6273-7.5582-5.6273-4.356 0-7.8854 3.5326-7.8854 7.8886 0 4.356 3.5326 7.8853 7.8886 7.8853 4.356 0 7.8854-3.5325 7.8854-7.8886v-0.4165h-0.4909zm-8.7766-2.2216c-0.0548-0.03552-0.1097-0.07104-0.1679-0.10333 0.0485-0.01292 0.1001-0.02261 0.155-0.03229 0.6717-0.13885 1.4757-0.17437 2.1538 0.1453 0.8073 0.38103 1.2626 0.81691 1.734 1.2722l0.0162 0.0162c0.4876 0.4682 1.001 0.959 1.9019 1.3174 0.4982 0.1993 1.1408 0.3058 1.6914 0.3643 0.0022-1e-3 0.0048-2e-3 0.0071-0.0026v0.0032c-0.0023 0-0.0049-6e-4 -0.0071-6e-4 -0.3087 0.1053-0.6839 0.1815-1.1199 0.1815-0.7071 0-1.3142-0.2842-2.0859-0.6426-0.0679-0.0323-0.1357-0.0646-0.2067-0.0969-0.7718-0.3584-1.6662-0.7362-2.8319-0.804-0.155-0.7718-0.7394-1.2981-1.24-1.6178zm1.3821 9.7001c-0.5264 0-1.0365-0.0581-1.5274-0.1647v-0.0032c0.31-0.1001 0.6006-0.2486 0.8622-0.4327 1.0462-0.7427 1.5984-2.1086 1.0527-3.4971-0.2131-0.5457-0.6232-0.9622-1.0753-1.2787-0.4553-0.3164-0.9752-0.5489-1.4595-0.7168-0.31645-0.1098-0.62644-0.197-0.89445-0.2616 0.09687-0.0613 0.19697-0.1259 0.30676-0.1905 0.63935-0.3746 1.4434-0.7201 2.2151-0.7201 1.1625 0 2.0279 0.3552 2.8577 0.7395 0.0743 0.0355 0.1518 0.071 0.2261 0.1065 0.7394 0.3455 1.5144 0.7104 2.4185 0.7104 0.9042 0 1.5564-0.2486 2.0246-0.5037-0.4165 3.4971-3.3937 6.2127-7.007 6.2127z" fill="#fff"/>
</mask>
<g clip-rule="evenodd" fill-rule="evenodd" mask="url(#b)">
<path d="m9.0788 11.795-0.11399 6.2246v-6.1546l0.0013-0.07h0.11269z" fill="#0FA7E5"/>
<path d="m9.1915 11.795-0.13303 7.2654h-0.09365v-1.0408l0.11399-6.2246h0.11269z" fill="#0FA6E6"/>
<path d="m9.3043 11.795-0.13304 7.2654h-0.1127l0.13304-7.2654h0.1127z" fill="#0EA6E7"/>
<path d="m9.4137 11.795-0.13304 7.2654h-0.11269l0.13304-7.2654h0.11269z" fill="#0EA5E8"/>
<path d="m9.5309 11.795-0.13304 7.2654h-0.11269l0.13303-7.2654h0.1127z" fill="#0DA4E9"/>
<path d="m9.6403 11.795-0.13303 7.2654h-0.1127l0.13304-7.2654h0.11269z" fill="#0CA3EA"/>
<path d="m9.7535 11.795-0.13303 7.2654h-0.1127l0.13304-7.2654h0.11269z" fill="#0CA2EB"/>
<path d="m9.8668 11.795-0.13304 7.2654h-0.1127l0.13304-7.2654h0.1127z" fill="#0BA1EC"/>
<path d="m9.9801 11.795-0.13304 7.2654h-0.11269l0.13303-7.2654h0.1127z" fill="#0BA0ED"/>
<path d="m10.093 11.795-0.13305 7.2654h-0.11269l0.13303-7.2654h0.11271z" fill="#0AA0EE"/>
<path d="m10.203 11.795-0.1331 7.2654h-0.11267l0.13307-7.2654h0.1127z" fill="#0A9FEF"/>
<path d="m10.32 11.795-0.1331 7.2654h-0.1127l0.1331-7.2654h0.1127z" fill="#099EF0"/>
<path d="m10.429 11.795-0.133 7.2654h-0.1127l0.133-7.2654h0.1127z" fill="#089DF1"/>
<path d="m10.543 11.795-0.133 7.2654h-0.1127l0.133-7.2654h0.1127z" fill="#089CF2"/>
<path d="m10.656 11.795-0.133 7.2654h-0.1127l0.133-7.2654h0.1127z" fill="#079BF3"/>
<path d="m10.769 11.795-0.1331 7.2654h-0.1127l0.1331-7.2654h0.1127z" fill="#079AF4"/>
<path d="m10.882 11.795-0.1331 7.2654h-0.1127l0.1331-7.2654h0.1127z" fill="#069AF5"/>
<path d="m10.992 11.795-0.133 7.2654h-0.1127l0.133-7.2654h0.1127z" fill="#0599F6"/>
<path d="m11.109 11.795-0.133 7.2654h-0.1127l0.133-7.2654h0.1127z" fill="#0598F7"/>
<path d="m11.218 11.795-0.133 7.2654h-0.1127l0.133-7.2654h0.1127z" fill="#0497F8"/>
<path d="m11.332 11.795-0.1331 7.2654h-0.1127l0.1331-7.2654h0.1127z" fill="#0496F9"/>
<path d="m11.445 11.795-0.1331 7.2654h-0.1127l0.1331-7.2654h0.1127z" fill="#0395FA"/>
<path d="m11.558 11.795-0.133 7.2654h-0.1127l0.133-7.2654h0.1127z" fill="#0294FB"/>
<path d="m11.672 11.795-0.133 7.2654h-0.1127l0.133-7.2654h0.1127z" fill="#0294FC"/>
<path d="m11.781 11.795-0.133 7.2654h-0.1127l0.133-7.2654h0.1127z" fill="#0193FD"/>
<path d="m11.894 11.795-0.1331 7.2654h-0.1127l0.1331-7.2654h0.1127z" fill="#0192FE"/>
<path d="m12.008 11.795-0.1331 7.2654h-0.1127l0.1331-7.2654h0.1127z" fill="#0091FF"/>
<path d="m12.039 11.795-0.133 7.2654h-0.0307l0.133-7.2654h0.0307z" fill="#0091FF"/>
<path d="m12.07 11.795-0.1331 7.2654h-0.031l0.1331-7.2654h0.031z" fill="#0191FF"/>
<path d="m12.102 11.795-0.133 7.2654h-0.031l0.133-7.2654h0.031z" fill="#0291FE"/>
<path d="m12.133 11.795-0.1331 7.2654h-0.0309l0.133-7.2654h0.031z" fill="#0390FE"/>
<path d="m12.16 11.795-0.133 7.2654h-0.031l0.133-7.2654h0.031z" fill="#0490FE"/>
<path d="m12.191 11.795-0.1331 7.2654h-0.0307l0.1331-7.2654h0.0307z" fill="#0590FE"/>
<path d="m12.223 11.795-0.133 7.2654h-0.031l0.133-7.2654h0.031z" fill="#0690FD"/>
<path d="m12.254 11.795-0.1331 7.2654h-0.031l0.1331-7.2654h0.031z" fill="#0790FD"/>
<path d="m12.285 11.795-0.133 7.2654h-0.031l0.133-7.2654h0.031z" fill="#0890FD"/>
<path d="m12.316 11.795-0.1331 7.2654h-0.031l0.1331-7.2654h0.031z" fill="#098FFC"/>
<path d="m12.347 11.795-0.133 7.2654h-0.0307l0.133-7.2654h0.0307z" fill="#0A8FFC"/>
<path d="m12.379 11.795-0.1331 7.2654h-0.031l0.1331-7.2654h0.031z" fill="#0B8FFC"/>
<path d="m12.41 11.795-0.133 7.2654h-0.031l0.133-7.2654h0.031z" fill="#0C8FFC"/>
<path d="m12.441 11.795-0.1331 7.2654h-0.031l0.1331-7.2654h0.031z" fill="#0D8FFB"/>
<path d="m12.473 11.795-0.133 7.2654h-0.031l0.133-7.2654h0.031z" fill="#0E8FFB"/>
<path d="m12.504 11.795-0.1331 7.2654h-0.0307l0.1331-7.2654h0.0307z" fill="#0F8EFB"/>
<path d="m12.535 11.795-0.133 7.2654h-0.031l0.133-7.2654h0.031z" fill="#108EFA"/>
<path d="m12.566 11.795-0.1331 7.2654h-0.031l0.1331-7.2654h0.031z" fill="#118EFA"/>
<path d="m12.598 11.795-0.133 7.2654h-0.031l0.133-7.2654h0.031z" fill="#128EFA"/>
<path d="m12.629 11.795-0.1331 7.2654h-0.031l0.1331-7.2654h0.031z" fill="#138EFA"/>
<path d="m12.66 11.795-0.133 7.2654h-0.0307l0.133-7.2654h0.0307z" fill="#148EF9"/>
<path d="m12.688 11.795-0.1331 7.2654h-0.031l0.1331-7.2654h0.031z" fill="#158DF9"/>
<path d="m12.719 11.795-0.133 7.2654h-0.031l0.133-7.2654h0.031z" fill="#168DF9"/>
<path d="m12.75 11.795-0.1331 7.2654h-0.031l0.1331-7.2654h0.031z" fill="#178DF8"/>
<path d="m12.781 11.795-0.133 7.2654h-0.031l0.133-7.2654h0.031z" fill="#188DF8"/>
<path d="m12.812 11.795-0.1331 7.2654h-0.0307l0.1331-7.2654h0.0307z" fill="#198DF8"/>
<path d="m12.844 11.795-0.133 7.2654h-0.031l0.133-7.2654h0.031z" fill="#1A8DF8"/>
<path d="m12.875 11.795-0.1331 7.2654h-0.031l0.1331-7.2654h0.031z" fill="#1B8CF7"/>
<path d="m12.906 11.795-0.133 7.2654h-0.031l0.133-7.2654h0.031z" fill="#1C8CF7"/>
<path d="m12.934 11.795-0.1331 7.2654h-0.031l0.1331-7.2654h0.031z" fill="#1D8CF7"/>
<path d="m12.964 11.795-0.133 7.2654h-0.0307l0.133-7.2654h0.0307z" fill="#1E8CF6"/>
<path d="m12.996 11.795-0.1331 7.2654h-0.031l0.1331-7.2654h0.031z" fill="#1F8CF6"/>
<path d="m13.027 11.795-0.133 7.2654h-0.031l0.133-7.2654h0.031z" fill="#208CF6"/>
<path d="m13.059 11.795-0.1331 7.2654h-0.031l0.1331-7.2654h0.031z" fill="#218BF6"/>
<path d="m13.09 11.795-0.133 7.2654h-0.031l0.133-7.2654h0.031z" fill="#228BF5"/>
<path d="m13.121 11.795-0.133 7.2654h-0.0307l0.1331-7.2654h0.0306z" fill="#238BF5"/>
<path d="m13.152 11.795-0.133 7.2654h-0.031l0.133-7.2654h0.031z" fill="#248BF5"/>
<path d="m13.184 11.795-0.1331 7.2654h-0.031l0.1331-7.2654h0.031z" fill="#258BF5"/>
<path d="m13.215 11.795-0.133 7.2654h-0.031l0.133-7.2654h0.031z" fill="#268BF4"/>
<path d="m13.246 11.795-0.1331 7.2654h-0.031l0.1331-7.2654h0.031z" fill="#278AF4"/>
<path d="m13.277 11.795-0.133 7.2654h-0.0307l0.133-7.2654h0.0307z" fill="#288AF4"/>
<path d="m13.309 11.795-0.1331 7.2654h-0.031l0.1331-7.2654h0.031z" fill="#298AF3"/>
<path d="m13.34 11.795-0.133 7.2654h-0.031l0.133-7.2654h0.031z" fill="#2A8AF3"/>
<path d="m13.371 11.795-0.1331 7.2654h-0.031l0.1331-7.2654h0.031z" fill="#2B8AF3"/>
<path d="m13.402 11.795-0.133 7.2654h-0.031l0.133-7.2654h0.031z" fill="#2C8AF3"/>
<path d="m13.433 11.795-0.133 7.2654h-0.0307l0.1331-7.2654h0.0306z" fill="#2D89F2"/>
<path d="m13.461 11.795-0.133 7.2654h-0.031l0.133-7.2654h0.031z" fill="#2E89F2"/>
<path d="m13.492 11.795-0.1331 7.2654h-0.031l0.1331-7.2654h0.031z" fill="#2F89F2"/>
<path d="m13.523 11.795-0.133 7.2654h-0.031l0.133-7.2654h0.031z" fill="#3089F1"/>
<path d="m13.555 11.795-0.1331 7.2654h-0.031l0.1331-7.2654h0.031z" fill="#3189F1"/>
<path d="m13.586 11.795-0.133 7.2654h-0.0307l0.133-7.2654h0.0307z" fill="#3289F1"/>
<path d="m13.617 11.795-0.1331 7.2654h-0.031l0.1331-7.2654h0.031z" fill="#3388F1"/>
<path d="m13.648 11.795-0.133 7.2654h-0.031l0.133-7.2654h0.031z" fill="#3488F0"/>
<path d="m13.68 11.795-0.1331 7.2654h-0.031l0.1331-7.2654h0.031z" fill="#3588F0"/>
<path d="m13.707 11.795-0.133 7.2654h-0.031l0.133-7.2654h0.031z" fill="#3688F0"/>
<path d="m13.738 11.795-0.133 7.2654h-0.0307l0.1331-7.2654h0.0306z" fill="#3788EF"/>
<path d="m13.77 11.795-0.133 7.2654h-0.031l0.133-7.2654h0.031z" fill="#3888EF"/>
<path d="m13.801 11.795-0.1331 7.2654h-0.031l0.1331-7.2654h0.031z" fill="#3987EF"/>
<path d="m13.832 11.795-0.133 7.2654h-0.031l0.133-7.2654h0.031z" fill="#3A87EF"/>
<path d="m13.863 11.795-0.1331 7.2654h-0.031l0.1331-7.2654h0.031z" fill="#3B87EE"/>
<path d="m13.894 11.795-0.1331 7.2654h-0.0306l0.133-7.2654h0.0307z" fill="#3C87EE"/>
<path d="m13.926 11.795-0.1331 7.2654h-0.031l0.1331-7.2654h0.031z" fill="#3D87EE"/>
<path d="m13.957 11.795-0.133 7.2654h-0.031l0.133-7.2654h0.031z" fill="#3E87ED"/>
<path d="m13.988 11.795-0.1331 7.2654h-0.031l0.1331-7.2654h0.031z" fill="#3F86ED"/>
<path d="m14.02 11.795-0.133 7.2654h-0.031l0.133-7.2654h0.031z" fill="#4086ED"/>
<path d="m14.05 11.795-0.133 7.2654h-0.0307l0.1331-7.2654h0.0306z" fill="#4186ED"/>
<path d="m14.082 11.795-0.133 7.2654h-0.031l0.133-7.2654h0.031z" fill="#4286EC"/>
<path d="m14.113 11.795-0.1331 7.2654h-0.031l0.1331-7.2654h0.031z" fill="#4386EC"/>
<path d="m14.144 11.795-0.133 7.2654h-0.031l0.133-7.2654h0.031z" fill="#4485EC"/>
<path d="m14.176 11.795-0.1331 7.2654h-0.031l0.1331-7.2654h0.031z" fill="#4585EB"/>
<path d="m14.207 11.795-0.1331 7.2654h-0.0306l0.133-7.2654h0.0307z" fill="#4685EB"/>
<path d="m14.234 11.795-0.133 7.2654h-0.031l0.133-7.2654h0.031z" fill="#4785EB"/>
<path d="m14.266 11.795-0.133 7.2654h-0.031l0.133-7.2654h0.031z" fill="#4885EB"/>
<path d="m14.297 11.795-0.133 7.2654h-0.031l0.133-7.2654h0.031z" fill="#4985EA"/>
<path d="m14.328 11.795-0.133 7.2654h-0.031l0.133-7.2654h0.031z" fill="#4A84EA"/>
<path d="m14.359 11.795-0.133 7.2654h-0.0307l0.133-7.2654h0.0307z" fill="#4B84EA"/>
<path d="m14.391 11.795-0.133 7.2654h-0.031l0.133-7.2654h0.031z" fill="#4C84E9"/>
<path d="m14.422 11.795-0.133 7.2654h-0.031l0.133-7.2654h0.031z" fill="#4D84E9"/>
<path d="m14.449 11.795-0.133 7.2654h-0.031l0.133-7.2654h0.031z" fill="#4E84E9"/>
<path d="m14.48 11.795-0.133 7.2654h-0.031l0.133-7.2654h0.031z" fill="#4F84E9"/>
<path d="m14.511 11.795-0.1331 7.2654h-0.0306l0.133-7.2654h0.0307z" fill="#5083E8"/>
<path d="m14.543 11.795-0.133 7.2654h-0.031l0.133-7.2654h0.031z" fill="#5183E8"/>
<path d="m14.574 11.795-0.133 7.2654h-0.031l0.133-7.2654h0.031z" fill="#5283E8"/>
<path d="m14.605 11.795-0.133 7.2654h-0.031l0.133-7.2654h0.031z" fill="#5383E7"/>
<path d="m14.637 11.795-0.133 7.2654h-0.031l0.133-7.2654h0.031z" fill="#5483E7"/>
<path d="m14.668 11.795-0.133 7.2654h-0.0307l0.133-7.2654h0.0307z" fill="#5583E7"/>
<path d="m14.699 11.795-0.133 7.2654h-0.031l0.133-7.2654h0.031z" fill="#5682E7"/>
<path d="m14.73 11.795-0.133 7.2654h-0.031l0.133-7.2654h0.031z" fill="#5782E6"/>
<path d="m14.762 11.795-0.133 7.2654h-0.031l0.133-7.2654h0.031z" fill="#5882E6"/>
<path d="m14.793 11.795-0.133 7.2654h-0.031l0.133-7.2654h0.031z" fill="#5982E6"/>
<path d="m14.824 11.795-0.1331 7.2654h-0.0306l0.133-7.2654h0.0307z" fill="#5A82E5"/>
<path d="m14.855 11.795-0.133 7.2654h-0.031l0.133-7.2654h0.031z" fill="#5B82E5"/>
<path d="m14.887 11.795-0.133 7.2654h-0.031l0.133-7.2654h0.031z" fill="#5C81E5"/>
<path d="m14.918 11.795-0.133 7.2654h-0.031l0.133-7.2654h0.031z" fill="#5D81E5"/>
<path d="m14.949 11.795-0.133 7.2654h-0.031l0.133-7.2654h0.031z" fill="#5E81E4"/>
<path d="m14.98 11.795-0.133 7.2654h-0.0307l0.133-7.2654h0.0307z" fill="#5F81E4"/>
<path d="m15.008 11.795-0.1331 7.2654h-0.0309l0.133-7.2654h0.031z" fill="#6081E4"/>
<path d="m15.039 11.795-0.133 7.2654h-0.031l0.133-7.2654h0.031z" fill="#6181E4"/>
<path d="m15.07 11.795-0.1331 7.2654h-0.031l0.1331-7.2654h0.031z" fill="#6280E3"/>
<path d="m15.102 11.795-0.133 7.2654h-0.031l0.133-7.2654h0.031z" fill="#6380E3"/>
<path d="m15.132 11.795-0.1331 7.2654h-0.0306l0.133-7.2654h0.0307z" fill="#6480E3"/>
<path d="m15.164 11.795-0.133 7.2654h-0.031l0.133-7.2654h0.031z" fill="#6580E2"/>
<path d="m15.195 11.795-0.1331 7.2654h-0.031l0.1331-7.2654h0.031z" fill="#6680E2"/>
<path d="m15.223 11.795-0.133 7.2654h-0.031l0.133-7.2654h0.031z" fill="#6780E2"/>
<path d="m15.254 11.795-0.1331 7.2654h-0.031l0.1331-7.2654h0.031z" fill="#687FE2"/>
<path d="m15.285 11.795-0.133 7.2654h-0.0307l0.133-7.2654h0.0307z" fill="#697FE1"/>
<path d="m15.316 11.795-0.1331 7.2654h-0.031l0.1331-7.2654h0.031z" fill="#6A7FE1"/>
<path d="m15.348 11.795-0.133 7.2654h-0.031l0.133-7.2654h0.031z" fill="#6B7FE1"/>
<path d="m15.379 11.795-0.1331 7.2654h-0.031l0.1331-7.2654h0.031z" fill="#6C7FE0"/>
<path d="m15.41 11.795-0.133 7.2654h-0.031l0.133-7.2654h0.031z" fill="#6D7FE0"/>
<path d="m15.441 11.795-0.1331 7.2654h-0.0307l0.1331-7.2654h0.0307z" fill="#6E7EE0"/>
<path d="m15.473 11.795-0.133 7.2654h-0.031l0.133-7.2654h0.031z" fill="#6F7EE0"/>
<path d="m15.504 11.795-0.1331 7.2654h-0.031l0.1331-7.2654h0.031z" fill="#707EDF"/>
<path d="m15.535 11.795-0.133 7.2654h-0.031l0.133-7.2654h0.031z" fill="#717EDF"/>
<path d="m15.566 11.795-0.1331 7.2654h-0.031l0.1331-7.2654h0.031z" fill="#727EDF"/>
<path d="m15.597 11.795-0.133 7.2654h-0.0307l0.133-7.2654h0.0307z" fill="#737EDE"/>
<path d="m15.629 11.795-0.1331 7.2654h-0.031l0.1331-7.2654h0.031z" fill="#747DDE"/>
<path d="m15.66 11.795-0.133 7.2654h-0.031l0.133-7.2654h0.031z" fill="#757DDE"/>
<path d="m15.691 11.795-0.1331 7.2654h-0.031l0.1331-7.2654h0.031z" fill="#767DDE"/>
<path d="m15.723 11.795-0.133 7.2654h-0.031l0.133-7.2654h0.031z" fill="#777DDD"/>
<path d="m15.75 11.795-0.1331 7.2654h-0.0307l0.1331-7.2654h0.0307z" fill="#787DDD"/>
<path d="m15.781 11.795-0.133 7.2654h-0.031l0.133-7.2654h0.031z" fill="#797DDD"/>
<path d="m15.812 11.795-0.1331 7.2654h-0.031l0.1331-7.2654h0.031z" fill="#7A7CDC"/>
<path d="m15.844 11.795-0.133 7.2654h-0.031l0.133-7.2654h0.031z" fill="#7B7CDC"/>
<path d="m15.875 11.795-0.1331 7.2654h-0.031l0.1331-7.2654h0.031z" fill="#7C7CDC"/>
<path d="m15.906 11.795-0.133 7.2654h-0.0307l0.133-7.2654h0.0307z" fill="#7D7CDC"/>
<path d="m15.938 11.795-0.1331 7.2654h-0.031l0.1331-7.2654h0.031z" fill="#7E7CDB"/>
<path d="m15.969 11.795-0.133 7.2654h-0.031l0.133-7.2654h0.031z" fill="#807CDB"/>
<path d="m15.996 11.795-0.1331 7.2654h-0.031l0.1331-7.2654h0.031z" fill="#817BDB"/>
<path d="m16.027 11.795-0.133 7.2654h-0.031l0.133-7.2654h0.031z" fill="#827BDA"/>
<path d="m16.058 11.795-0.1327 7.2654h-0.031l0.1331-7.2654h0.0306z" fill="#837BDA"/>
<path d="m16.09 11.795-0.133 7.2654h-0.0307l0.1327-7.2654h0.031z" fill="#847BDA"/>
<path d="m16.121 11.795-0.1331 7.2654h-0.031l0.1331-7.2654h0.031z" fill="#857BDA"/>
<path d="m16.152 11.795-0.133 7.2654h-0.031l0.133-7.2654h0.031z" fill="#867AD9"/>
<path d="m16.176 11.795h0.0081l-0.1331 7.2654h-0.031l0.1331-7.2654h0.0229z" fill="#877AD9"/>
<path d="m16.184 11.795 0.0307 6e-4 -0.1327 7.2648h-0.031l0.133-7.2654z" fill="#887AD9"/>
<path d="m16.215 11.796 0.031 6e-4 -0.133 7.2641h-0.0307l0.1327-7.2647z" fill="#897AD8"/>
<path d="m16.246 11.797 0.031 7e-4 -0.133 7.2634h-0.031l0.133-7.2641z" fill="#8A7AD8"/>
<path d="m16.278 11.797 0.031 3e-4 -0.1331 7.2632h-0.031l0.1331-7.2635z" fill="#8B7AD8"/>
<path d="m16.309 11.798 0.031 7e-4 -0.133 7.2624h-0.031l0.133-7.2631z" fill="#8C79D8"/>
<path d="m16.34 11.798 0.0306 6e-4 -0.1327 7.2619h-0.031l0.1331-7.2625z" fill="#8D79D7"/>
<path d="m16.371 11.799 0.031 7e-4 -0.133 7.2612h-0.0307l0.1327-7.2619z" fill="#8E79D7"/>
<path d="m16.403 11.8 0.031 3e-4 -0.1331 7.2609h-0.031l0.1331-7.2612z" fill="#8F79D7"/>
<path d="m16.434 11.8 0.031 7e-4 -0.133 7.2602h-0.031l0.133-7.2609z" fill="#9079D6"/>
<path d="m16.465 11.8 0.0306 7e-4 -0.1327 7.2596h-0.031l0.1331-7.2603z" fill="#9179D6"/>
<path d="m16.492 11.801 0.031 7e-4 -0.1327 7.2589h-0.031l0.1327-7.2596z" fill="#9278D6"/>
<path d="m16.523 11.802 0.031 3e-4 -0.133 7.2586h-0.0307l0.1327-7.2589z" fill="#9378D6"/>
<path d="m16.555 11.802 0.031 6e-4 -0.133 7.258h-0.031l0.133-7.2586z" fill="#9478D5"/>
<path d="m16.586 11.802 0.0306 6e-4 -0.1327 7.2574h-0.031l0.1331-7.258z" fill="#9578D5"/>
<path d="m16.617 11.803 0.031 7e-4 -0.1327 7.2566h-0.031l0.1327-7.2573z" fill="#9678D5"/>
<path d="m16.648 11.804 0.031 6e-4 -0.1327 7.256h-0.031l0.1327-7.2566z" fill="#9778D4"/>
<path d="m16.68 11.804 0.031 4e-4 -0.133 7.2557h-0.0307l0.1327-7.2561z" fill="#9877D4"/>
<path d="m16.711 11.805 0.0306 7e-4 -0.1327 7.255h-0.031l0.1331-7.2557z" fill="#9977D4"/>
<path d="m16.738 11.805 0.031 7e-4 -0.1327 7.2544h-0.031l0.1327-7.2551z" fill="#9A77D4"/>
<path d="m16.769 11.806 0.031 6e-4 -0.1327 7.2538h-0.031l0.1327-7.2544z" fill="#9B77D3"/>
<path d="m16.801 11.807 0.031 3e-4 -0.1327 7.2534h-0.031l0.1327-7.2537z" fill="#9C77D3"/>
<path d="m16.832 11.807 0.031 7e-4 -0.133 7.2528h-0.0307l0.1327-7.2535z" fill="#9D77D3"/>
<path d="m16.864 11.808 0.0307 6e-4 -0.1327 7.2522h-0.031l0.133-7.2528z" fill="#9E76D2"/>
<path d="m16.894 11.808 0.031 7e-4 -0.1327 7.2515h-0.031l0.1327-7.2522z" fill="#9F76D2"/>
<path d="m16.926 11.809 0.031 3e-4 -0.1327 7.2512h-0.031l0.1327-7.2515z" fill="#A076D2"/>
<path d="m16.957 11.809 0.031 7e-4 -0.1327 7.2505h-0.031l0.1327-7.2512z" fill="#A176D2"/>
<path d="m16.988 11.81 0.0307 6e-4 -0.1328 7.2499h-0.0306l0.1327-7.2505z" fill="#A276D1"/>
<path d="m17.019 11.811 0.031 6e-4 -0.1327 7.2493h-0.031l0.1327-7.2499z" fill="#A376D1"/>
<path d="m17.051 11.811 0.031 3e-4 -0.1327 7.2489h-0.031l0.1327-7.2492z" fill="#A475D1"/>
<path d="m17.082 11.812 0.031 6e-4 -0.1327 7.2483h-0.031l0.1327-7.2489z" fill="#A575D1"/>
<path d="m17.113 11.812 0.0307 6e-4 -0.1324 7.2476h-0.031l0.1327-7.2482z" fill="#A675D0"/>
<path d="m17.144 11.813 0.031 6e-4 -0.1327 7.247h-0.0307l0.1324-7.2476z" fill="#A775D0"/>
<path d="m17.176 11.814 0.031 3e-4 -0.1327 7.2467h-0.031l0.1327-7.247z" fill="#A875D0"/>
<path d="m17.207 11.814 0.031 6e-4 -0.1327 7.246h-0.031l0.1327-7.2466z" fill="#A975CF"/>
<path d="m17.234 11.815 0.031 6e-4 -0.1327 7.2454h-0.031l0.1327-7.246z" fill="#AA74CF"/>
<path d="m17.266 11.815 0.0307 6e-4 -0.1324 7.2448h-0.031l0.1327-7.2454z" fill="#AB74CF"/>
<path d="m17.296 11.816 0.031 3e-4 -0.1328 7.2444h-0.0306l0.1324-7.2447z" fill="#AC74CF"/>
<path d="m17.328 11.816 0.031 6e-4 -0.1327 7.2438h-0.031l0.1327-7.2444z" fill="#AD74CE"/>
<path d="m17.359 11.817 0.031 6e-4 -0.1327 7.2431h-0.031l0.1327-7.2437z" fill="#AE74CE"/>
<path d="m17.39 11.818 0.0307 7e-4 -0.1324 7.2424h-0.031l0.1327-7.2431z" fill="#AF74CE"/>
<path d="m17.422 11.818 0.031 3e-4 -0.1324 7.2422h-0.031l0.1324-7.2425z" fill="#B073CD"/>
<path d="m17.453 11.819 0.031 6e-4 -0.1327 7.2415h-0.0307l0.1324-7.2421z" fill="#B173CD"/>
<path d="m17.48 11.819 0.031 6e-4 -0.1327 7.2409h-0.031l0.1327-7.2415z" fill="#B273CD"/>
<path d="m17.512 11.82 0.0307 7e-4 -0.1324 7.2402h-0.031l0.1327-7.2409z" fill="#B373CD"/>
<path d="m17.542 11.821 0.031 3e-4 -0.1323 7.2399h-0.031l0.1323-7.2402z" fill="#B473CC"/>
<path d="m17.574 11.821 0.031 6e-4 -0.1324 7.2393h-0.031l0.1324-7.2399z" fill="#B573CC"/>
<path d="m17.605 11.822 0.031 7e-4 -0.1327 7.2386h-0.0306l0.1323-7.2393z" fill="#B672CC"/>
<path d="m17.637 11.822 0.031 7e-4 -0.1327 7.2379h-0.031l0.1327-7.2386z" fill="#B772CB"/>
<path d="m17.668 11.822 0.0306 3e-4 -0.1323 7.2377h-0.031l0.1327-7.238z" fill="#B872CB"/>
<path d="m17.699 11.823 0.031 6e-4 -0.1324 7.237h-0.031l0.1324-7.2376z" fill="#B972CB"/>
<path d="m17.73 11.824 0.031 6e-4 -0.1323 7.2364h-0.031l0.1323-7.237z" fill="#BA72CB"/>
<path d="m17.761 11.824 0.031 7e-4 -0.1327 7.2356h-0.0307l0.1324-7.2363z" fill="#BB72CA"/>
<path d="m17.793 11.825 0.0306 3e-4 -0.1323 7.2353h-0.031l0.1327-7.2356z" fill="#BC71CA"/>
<path d="m17.824 11.825 0.031 6e-4 -0.1324 7.2348h-0.031l0.1324-7.2354z" fill="#BD71CA"/>
<path d="m17.855 11.826 0.031 7e-4 -0.1323 7.234h-0.031l0.1323-7.2347z" fill="#BE71C9"/>
<path d="m17.886 11.826 0.031 7e-4 -0.1324 7.2334h-0.031l0.1324-7.2341z" fill="#BF71C9"/>
<path d="m17.918 11.827 0.0307 4e-4 -0.1324 7.2331h-0.0306l0.1323-7.2335z" fill="#C071C9"/>
<path d="m17.949 11.827 0.031 6e-4 -0.1324 7.2325h-0.031l0.1324-7.2331z" fill="#C170C9"/>
<path d="m17.98 11.828 0.031 7e-4 -0.1323 7.2318h-0.031l0.1323-7.2325z" fill="#C270C8"/>
<path d="m18.007 11.829 0.031 6e-4 -0.1324 7.2312h-0.031l0.1324-7.2318z" fill="#C370C8"/>
<path d="m18.039 11.829 0.031 4e-4 -0.1324 7.2308h-0.031l0.1324-7.2312z" fill="#C470C8"/>
<path d="m18.07 11.83 0.0307 7e-4 -0.1324 7.2302h-0.0307l0.1324-7.2309z" fill="#C570C7"/>
<path d="m18.101 11.83 0.031 7e-4 -0.1324 7.2295h-0.0309l0.1323-7.2302z" fill="#C670C7"/>
<path d="m18.132 11.831 0.031 6e-4 -0.1324 7.2289h-0.031l0.1324-7.2295z" fill="#C76FC7"/>
<path d="m18.164 11.832 0.031 3e-4 -0.1324 7.2286h-0.031l0.1324-7.2289z" fill="#C86FC7"/>
<path d="m18.195 11.832 0.0307 7e-4 -0.1321 7.2279h-0.031l0.1324-7.2286z" fill="#C96FC6"/>
<path d="m18.226 11.833 0.031 6e-4 -0.1324 7.2273h-0.0306l0.132-7.2279z" fill="#CA6FC6"/>
<path d="m18.254 11.833 0.031 6e-4 -0.1324 7.2266h-0.031l0.1324-7.2272z" fill="#CB6FC6"/>
<path d="m18.285 11.834 0.031 3e-4 -0.1324 7.2263h-0.031l0.1324-7.2266z" fill="#CC6FC5"/>
<path d="m18.316 11.834 0.0307 7e-4 -0.1321 7.2256h-0.031l0.1324-7.2263z" fill="#CD6EC5"/>
<path d="m18.347 11.835 0.031 6e-4 -0.1321 7.225h-0.031l0.1321-7.2256z" fill="#CE6EC5"/>
<path d="m18.378 11.836 0.031 6e-4 -0.1324 7.2244h-0.0307l0.1321-7.225z" fill="#CF6EC5"/>
<path d="m18.41 11.836 0.031 3e-4 -0.1324 7.2241h-0.031l0.1324-7.2244z" fill="#D06EC4"/>
<path d="m18.441 11.837 0.031 6e-4 -0.1324 7.2234h-0.031l0.1324-7.224z" fill="#D16EC4"/>
<path d="m18.472 11.837 0.0307 6e-4 -0.1321 7.2228h-0.031l0.1324-7.2234z" fill="#D26EC4"/>
<path d="m18.503 11.838 0.031 6e-4 -0.1321 7.2222h-0.031l0.1321-7.2228z" fill="#D36DC3"/>
<path d="m18.534 11.839 0.031 3e-4 -0.1324 7.2218h-0.0307l0.1321-7.2221z" fill="#D46DC3"/>
<path d="m18.566 11.839 0.031 6e-4 -0.1324 7.2212h-0.031l0.1324-7.2218z" fill="#D56DC3"/>
<path d="m18.597 11.84 0.0307 6e-4 -0.1321 7.2205h-0.031l0.1324-7.2211z" fill="#D66DC3"/>
<path d="m18.628 11.84 0.031 6e-4 -0.1321 7.2199h-0.031l0.1321-7.2205z" fill="#D76DC2"/>
<path d="m18.659 11.841 0.031 3e-4 -0.1321 7.2196h-0.031l0.1321-7.2199z" fill="#D86DC2"/>
<path d="m18.691 11.841 0.031 6e-4 -0.1324 7.2189h-0.0307l0.1321-7.2195z" fill="#D96CC2"/>
<path d="m18.722 11.842 0.0307 6e-4 -0.1321 7.2183h-0.031l0.1324-7.2189z" fill="#DA6CC1"/>
<path d="m18.753 11.842 0.031 6e-4 -0.1321 7.2176h-0.031l0.1321-7.2182z" fill="#DB6CC1"/>
<path d="m18.78 11.843 0.031 3e-4 -0.1321 7.2173h-0.031l0.1321-7.2176z" fill="#DC6CC1"/>
<path d="m18.812 11.843 0.031 6e-4 -0.1321 7.2166h-0.031l0.1321-7.2172z" fill="#DD6CC1"/>
<path d="m18.843 11.844 0.031 6e-4 -0.1324 7.216h-0.0307l0.1321-7.2166z" fill="#DE6CC0"/>
<path d="m18.875 11.844 0.0307 6e-4 -0.1321 7.2154h-0.031l0.1324-7.216z" fill="#DF6BC0"/>
<path d="m18.906 11.845 0.031 7e-4 -0.1321 7.2147h-0.031l0.1321-7.2154z" fill="#E06BC0"/>
<path d="m18.937 11.846 0.031 4e-4 -0.1321 7.2143h-0.031l0.1321-7.2147z" fill="#E16BC0"/>
<path d="m18.968 11.846 0.031 6e-4 -0.1321 7.2138h-0.031l0.1321-7.2144z" fill="#E26BBF"/>
<path d="m18.999 11.847 0.0145 3e-4v0.888l-0.1159 6.3254h-0.0307l0.1321-7.2137z" fill="#E36BBF"/>
<path d="m19.01 14.425-0.085 4.6356h-0.031l0.116-6.3254v1.6898z" fill="#E46BBF"/>
<path d="m19.011 16.114-0.0539 2.9462h-0.031l0.0849-4.6357v1.6895z" fill="#E56ABE"/>
<path d="m19.011 17.804-0.023 1.2568h-0.031l0.054-2.9462v1.6894z" fill="#E66ABE"/>
<path d="m18.988 19.061 0.0229-1.2567v1.2567h-0.0229z" fill="#E76ABE"/>
<path d="m10.482 9.0505-0.0246 1.3482v-1.3482h0.0246z" fill="#089DF1"/>
<path d="m10.594 9.0505-0.0627 3.4306-0.0746-0.0013v-2.0811l0.0246-1.3482h0.1127z" fill="#089CF2"/>
<path d="m10.707 9.0505-0.0627 3.4325-0.1127-0.0019 0.0627-3.4306h0.1127z" fill="#079BF3"/>
<path d="m10.82 9.0505-0.0627 3.4348-0.1127-0.0023 0.0627-3.4325h0.1127z" fill="#079AF4"/>
<path d="m10.929 9.0505-0.0626 3.4367-0.1127-0.0019 0.0627-3.4348h0.1126z" fill="#069AF5"/>
<path d="m11.042 9.0505-0.0629 3.4387-0.1124-2e-3 0.0626-3.4367h0.1127z" fill="#0599F6"/>
<path d="m11.156 9.0505-0.0629 3.4409-0.1127-0.0022 0.0629-3.4387h0.1127z" fill="#0598F7"/>
<path d="m11.269 9.0505-0.063 3.4429-0.1126-2e-3 0.0629-3.4409h0.1127z" fill="#0497F8"/>
<path d="m11.383 9.0505-0.063 3.4451-0.1127-0.0022 0.063-3.4429h0.1127z" fill="#0496F9"/>
<path d="m11.492 9.0505-0.063 3.4471-0.1127-2e-3 0.063-3.4451h0.1127z" fill="#0395FA"/>
<path d="m11.609 9.0505-0.063 3.449-0.1127-0.0019 0.063-3.4471h0.1127z" fill="#0294FB"/>
<path d="m11.719 9.0505-0.0629 3.4513-0.1127-0.0023 0.0629-3.449h0.1127z" fill="#0294FC"/>
<path d="m11.832 9.0505-0.0633 3.4532-0.1124-0.0019 0.063-3.4513h0.1127z" fill="#0193FD"/>
<path d="m11.946 9.0505-0.0633 3.4555-0.1127-0.0023 0.0633-3.4532h0.1127z" fill="#0192FE"/>
<path d="m12.059 9.0505-0.0633 3.4574-0.1127-0.0019 0.0633-3.4555h0.1127z" fill="#0091FF"/>
<path d="m12.09 9.0505-0.0633 3.458-0.031-6e-4 0.0633-3.4574h0.031z" fill="#0091FF"/>
<path d="m12.122 9.0505-0.0633 3.4584-0.031-4e-4 0.0633-3.458h0.031z" fill="#0191FF"/>
<path d="m12.153 9.0505-0.0633 3.459-0.031-6e-4 0.0633-3.4584h0.031z" fill="#0291FE"/>
<path d="m12.184 9.0505-0.0633 3.4597-0.0307-7e-4 0.0633-3.459h0.0307z" fill="#0390FE"/>
<path d="m12.212 9.0505-0.0633 3.4603-0.031-6e-4 0.0633-3.4597h0.031z" fill="#0490FE"/>
<path d="m12.243 9.0505-0.0633 3.4609-0.031-6e-4 0.0633-3.4603h0.031z" fill="#0590FE"/>
<path d="m12.274 9.0505-0.0633 3.4613-0.031-4e-4 0.0633-3.4609h0.031z" fill="#0690FD"/>
<path d="m12.305 9.0505-0.0636 3.4619-0.0307-6e-4 0.0633-3.4613h0.031z" fill="#0790FD"/>
<path d="m12.336 9.0505-0.0633 3.4626-0.031-7e-4 0.0636-3.4619h0.0307z" fill="#0890FD"/>
<path d="m12.368 9.0505-0.0633 3.4632-0.031-6e-4 0.0633-3.4626h0.031z" fill="#098FFC"/>
<path d="m12.399 9.0505-0.0633 3.4635-0.031-3e-4 0.0633-3.4632h0.031z" fill="#0A8FFC"/>
<path d="m12.43 9.0505-0.0636 3.4642-0.0307-7e-4 0.0633-3.4635h0.031z" fill="#0B8FFC"/>
<path d="m12.458 9.0505-0.0636 3.4648-0.031-6e-4 0.0636-3.4642h0.031z" fill="#0C8FFC"/>
<path d="m12.489 9.0505-0.0633 3.4655-0.031-7e-4 0.0636-3.4648h0.0307z" fill="#0D8FFB"/>
<path d="m12.52 9.0505-0.0633 3.4658-0.031-3e-4 0.0633-3.4655h0.031z" fill="#0E8FFB"/>
<path d="m12.551 9.0505-0.0633 3.4664-0.031-6e-4 0.0633-3.4658h0.031z" fill="#0F8EFB"/>
<path d="m12.583 9.0505-0.0636 3.4671-0.0307-7e-4 0.0633-3.4664h0.031z" fill="#108EFA"/>
<path d="m12.614 9.0505-0.0636 3.4677-0.031-6e-4 0.0636-3.4671h0.031z" fill="#118EFA"/>
<path d="m12.645 9.0505-0.0633 3.468-0.031-3e-4 0.0636-3.4677h0.0307z" fill="#128EFA"/>
<path d="m12.676 9.0505-0.0633 3.4687-0.031-7e-4 0.0633-3.468h0.031z" fill="#138EFA"/>
<path d="m12.708 9.0505-0.0636 3.4693-0.0307-6e-4 0.0633-3.4687h0.031z" fill="#148EF9"/>
<path d="m12.739 9.0505-0.0636 3.47-0.031-7e-4 0.0636-3.4693h0.031z" fill="#158DF9"/>
<path d="m12.77 9.0505-0.0636 3.4703-0.031-3e-4 0.0636-3.47h0.031z" fill="#168DF9"/>
<path d="m12.801 9.0505-0.0633 3.471-0.031-7e-4 0.0636-3.4703h0.0307z" fill="#178DF8"/>
<path d="m12.833 9.0505-0.0636 3.4713h-0.0146l-0.0161-3e-4 0.0633-3.471h0.031z" fill="#188DF8"/>
<path d="m12.864 9.0505-0.0636 3.4713h-0.031l0.0636-3.4713h0.031z" fill="#198DF8"/>
<path d="m12.895 9.0505-0.0636 3.4713h-0.031l0.0636-3.4713h0.031z" fill="#1A8DF8"/>
<path d="m12.927 9.0505-0.0636 3.4713h-0.031l0.0636-3.4713h0.031z" fill="#1B8CF7"/>
<path d="m12.958 9.0505-0.0633 3.4713h-0.031l0.0636-3.4713h0.0307z" fill="#1C8CF7"/>
<path d="m12.985 9.0505-0.0636 3.4713h-0.0307l0.0633-3.4713h0.031z" fill="#1D8CF7"/>
<path d="m13.016 9.0505-0.0636 3.4713h-0.031l0.0636-3.4713h0.031z" fill="#1E8CF6"/>
<path d="m13.048 9.0505-0.0636 3.4713h-0.031l0.0636-3.4713h0.031z" fill="#1F8CF6"/>
<path d="m13.079 9.0505-0.0636 3.4713h-0.031l0.0636-3.4713h0.031z" fill="#208CF6"/>
<path d="m13.11 9.0505-0.0633 3.4713h-0.031l0.0636-3.4713h0.0307z" fill="#218BF6"/>
<path d="m13.141 9.0505-0.0636 3.4713h-0.0307l0.0633-3.4713h0.031z" fill="#228BF5"/>
<path d="m13.173 9.0505-0.0636 3.4713h-0.031l0.0636-3.4713h0.031z" fill="#238BF5"/>
<path d="m13.204 9.0505-0.0636 3.4713h-0.031l0.0636-3.4713h0.031z" fill="#248BF5"/>
<path d="m13.231 9.0505-0.0636 3.4713h-0.031l0.0636-3.4713h0.031z" fill="#258BF5"/>
<path d="m13.262 9.0505-0.0633 3.4713h-0.031l0.0636-3.4713h0.0307z" fill="#268BF4"/>
<path d="m13.294 9.0505-0.0636 3.4713h-0.0307l0.0633-3.4713h0.031z" fill="#278AF4"/>
<path d="m13.325 9.0505-0.0636 3.4713h-0.031l0.0636-3.4713h0.031z" fill="#288AF4"/>
<path d="m13.356 9.0505-0.0636 3.4713h-0.031l0.0636-3.4713h0.031z" fill="#298AF3"/>
<path d="m13.388 9.0505-0.0636 3.4713h-0.031l0.0636-3.4713h0.031z" fill="#2A8AF3"/>
<path d="m13.418 9.0505-0.0633 3.4713h-0.031l0.0636-3.4713h0.0307z" fill="#2B8AF3"/>
<path d="m13.45 9.0505-0.0637 3.4713h-0.0306l0.0633-3.4713h0.031z" fill="#2C8AF3"/>
<path d="m13.481 9.0505-0.0636 3.4713h-0.031l0.0636-3.4713h0.031z" fill="#2D89F2"/>
<path d="m13.513 9.0505-0.0636 3.4713h-0.031l0.0636-3.4713h0.031z" fill="#2E89F2"/>
<path d="m13.544 9.0505-0.0636 3.4713h-0.031l0.0636-3.4713h0.031z" fill="#2F89F2"/>
<path d="m13.575 9.0505-0.0633 3.4713h-0.031l0.0636-3.4713h0.0307z" fill="#3089F1"/>
<path d="m13.606 9.0505-0.0636 3.4713h-0.0307l0.0633-3.4713h0.031z" fill="#3189F1"/>
<path d="m13.638 9.0505-0.0636 3.4713h-0.031l0.0636-3.4713h0.031z" fill="#3289F1"/>
<path d="m13.669 9.0505-0.0636 3.4713h-0.031l0.0636-3.4713h0.031z" fill="#3388F1"/>
<path d="m13.7 9.0505-0.0636 3.4713h-0.031l0.0636-3.4713h0.031z" fill="#3488F0"/>
<path d="m13.731 9.0505-0.0633 3.4713h-0.031l0.0636-3.4713h0.0307z" fill="#3588F0"/>
<path d="m13.758 9.0505-0.0637 3.4713h-0.0306l0.0633-3.4713h0.031z" fill="#3688F0"/>
<path d="m13.79 9.0505-0.0636 3.4713h-0.031l0.0636-3.4713h0.031z" fill="#3788EF"/>
<path d="m13.821 9.0505-0.0636 3.4713h-0.031l0.0636-3.4713h0.031z" fill="#3888EF"/>
<path d="m13.852 9.0505-0.0636 3.4713h-0.031l0.0636-3.4713h0.031z" fill="#3987EF"/>
<path d="m13.883 9.0505-0.0633 3.4713h-0.031l0.0636-3.4713h0.0307z" fill="#3A87EF"/>
<path d="m13.915 9.0505-0.0636 3.4713h-0.0307l0.0633-3.4713h0.031z" fill="#3B87EE"/>
<path d="m13.946 9.0505-0.0636 3.4713h-0.031l0.0636-3.4713h0.031z" fill="#3C87EE"/>
<path d="m13.977 9.0505-0.0636 3.4713h-0.031l0.0636-3.4713h0.031z" fill="#3D87EE"/>
<path d="m14.005 9.0505-0.0636 3.4713h-0.031l0.0636-3.4713h0.031z" fill="#3E87ED"/>
<path d="m14.036 9.0505-0.0633 3.4713h-0.031l0.0636-3.4713h0.0307z" fill="#3F86ED"/>
<path d="m14.067 9.0505-0.0636 3.4713h-0.0306l0.0632-3.4713h0.031z" fill="#4086ED"/>
<path d="m14.098 9.0505-0.0636 3.4713h-0.031l0.0636-3.4713h0.031z" fill="#4186ED"/>
<path d="m14.13 9.0505-0.0636 3.4713h-0.031l0.0636-3.4713h0.031z" fill="#4286EC"/>
<path d="m14.161 9.0505-0.0636 3.4713h-0.031l0.0636-3.4713h0.031z" fill="#4386EC"/>
<path d="m14.192 9.0505-0.0632 3.4713h-0.031l0.0636-3.4713h0.0306z" fill="#4485EC"/>
<path d="m14.223 9.0505-0.0636 3.4713h-0.0307l0.0633-3.4713h0.031z" fill="#4585EB"/>
<path d="m14.255 9.0505-0.0636 3.4713h-0.031l0.0636-3.4713h0.031z" fill="#4685EB"/>
<path d="m14.286 9.0505-0.0636 3.4713h-0.031l0.0636-3.4713h0.031z" fill="#4785EB"/>
<path d="m14.317 9.0505-0.0636 3.4713h-0.031l0.0636-3.4713h0.031z" fill="#4885EB"/>
<path d="m14.348 9.0505-0.0633 3.4713h-0.031l0.0636-3.4713h0.0307z" fill="#4985EA"/>
<path d="m14.379 9.0505-0.0636 3.4713h-0.0306l0.0632-3.4713h0.031z" fill="#4A84EA"/>
<path d="m14.411 9.0505-0.0636 3.4713h-0.031l0.0636-3.4713h0.031z" fill="#4B84EA"/>
<path d="m14.442 9.0505-0.0636 3.4713h-0.031l0.0636-3.4713h0.031z" fill="#4C84E9"/>
<path d="m14.474 9.0505-0.0636 3.4713h-0.031l0.0636-3.4713h0.031z" fill="#4D84E9"/>
<path d="m14.5 9.0505-0.0633 3.4713h-0.031l0.0637-3.4713h0.0306z" fill="#4E84E9"/>
<path d="m14.532 9.0505-0.0636 3.4713h-0.0307l0.0633-3.4713h0.031z" fill="#4F84E9"/>
<path d="m14.563 9.0505-0.0637 3.4713h-0.0309l0.0636-3.4713h0.031z" fill="#5083E8"/>
<path d="m14.595 9.0505-0.0636 3.4713h-0.031l0.0636-3.4713h0.031z" fill="#5183E8"/>
<path d="m14.626 9.0505-0.0637 3.4713h-0.031l0.0637-3.4713h0.031z" fill="#5283E8"/>
<path d="m14.657 9.0505-0.0633 3.4713h-0.031l0.0636-3.4713h0.0307z" fill="#5383E7"/>
<path d="m14.688 9.0505-0.0636 3.4713h-0.0306l0.0632-3.4713h0.031z" fill="#5483E7"/>
<path d="m14.72 9.0505-0.0636 3.4713h-0.031l0.0636-3.4713h0.031z" fill="#5583E7"/>
<path d="m14.747 9.0505-0.0637 3.4713h-0.031l0.0637-3.4713h0.031z" fill="#5682E7"/>
<path d="m14.778 9.0505-0.0636 3.4713h-0.031l0.0636-3.4713h0.031z" fill="#5782E6"/>
<path d="m14.809 9.0505-0.0633 3.4713h-0.031l0.0637-3.4713h0.0306z" fill="#5882E6"/>
<path d="m14.84 9.0505-0.0636 3.4713h-0.0307l0.0633-3.4713h0.031z" fill="#5982E6"/>
<path d="m14.872 9.0505-0.0637 3.4713h-0.031l0.0637-3.4713h0.031z" fill="#5A82E5"/>
<path d="m14.903 9.0505-0.0636 3.4713h-0.031l0.0636-3.4713h0.031z" fill="#5B82E5"/>
<path d="m14.934 9.0505-0.0637 3.4713h-0.031l0.0637-3.4713h0.031z" fill="#5C81E5"/>
<path d="m14.965 9.0505-0.0633 3.4713h-0.031l0.0636-3.4713h0.0307z" fill="#5D81E5"/>
<path d="m14.997 9.0505-0.0636 3.4713h-0.0307l0.0633-3.4713h0.031z" fill="#5E81E4"/>
<path d="m15.028 9.0505-0.0636 3.4713h-0.031l0.0636-3.4713h0.031z" fill="#5F81E4"/>
<path d="m15.06 9.0505-0.0637 3.4713h-0.031l0.0637-3.4713h0.031z" fill="#6081E4"/>
<path d="m15.091 9.0505-0.0636 3.4713h-0.031l0.0636-3.4713h0.031z" fill="#6181E4"/>
<path d="m15.122 9.0505-0.0633 3.4713h-0.031l0.0637-3.4713h0.0306z" fill="#6280E3"/>
<path d="m15.153 9.0505-0.0636 3.4713h-0.0307l0.0633-3.4713h0.031z" fill="#6380E3"/>
<path d="m15.184 9.0505-0.0637 3.4713h-0.031l0.0637-3.4713h0.031z" fill="#6480E3"/>
<path d="m15.216 9.0505-0.0636 3.4713h-0.031l0.0636-3.4713h0.031z" fill="#6580E2"/>
<path d="m15.247 9.0505-0.0637 3.4713h-0.031l0.0637-3.4713h0.031z" fill="#6680E2"/>
<path d="m15.274 9.0505-0.0633 3.4713h-0.031l0.0636-3.4713h0.0307z" fill="#6780E2"/>
<path d="m15.305 9.0505-0.0636 3.4713h-0.0307l0.0633-3.4713h0.031z" fill="#687FE2"/>
<path d="m15.337 9.0505-0.0636 3.4713h-0.031l0.0636-3.4713h0.031z" fill="#697FE1"/>
<path d="m15.368 9.0505-0.0636 3.4713h-0.031l0.0637-3.4713h0.0309z" fill="#6A7FE1"/>
<path d="m15.399 9.0505-0.0636 3.4713h-0.031l0.0636-3.4713h0.031z" fill="#6B7FE1"/>
<path d="m15.43 9.0505-0.0633 3.4713h-0.031l0.0637-3.4713h0.0306z" fill="#6C7FE0"/>
<path d="m15.462 9.0505-0.0636 3.4713h-0.0307l0.0633-3.4713h0.031z" fill="#6D7FE0"/>
<path d="m15.493 9.0505-0.0636 3.4713h-0.031l0.0637-3.4713h0.0309z" fill="#6E7EE0"/>
<path d="m15.52 9.0505-0.0636 3.4713h-0.031l0.0636-3.4713h0.031z" fill="#6F7EE0"/>
<path d="m15.552 9.0505-0.0636 3.4713h-0.031l0.0636-3.4713h0.031z" fill="#707EDF"/>
<path d="m15.583 9.0505-0.0636 3.4713h-0.031l0.0636-3.4713h0.031z" fill="#717EDF"/>
<path d="m15.612 9.0505h0.0013l-0.0636 3.4713h-0.0307l0.0636-3.4713h0.0294z" fill="#727EDF"/>
<path d="m15.614 9.0505 0.031 6.4e-4 -0.0636 3.4706h-0.031l0.0636-3.4713z" fill="#737EDE"/>
<path d="m15.646 9.051 0.031 6.4e-4 -0.0636 3.4699h-0.031l0.0636-3.4706z" fill="#747DDE"/>
<path d="m15.677 9.0518 0.031 3.2e-4 -0.0636 3.4696h-0.031l0.0636-3.4699z" fill="#757DDE"/>
<path d="m15.708 9.052 0.0307 6.5e-4 -0.0633 3.469h-0.031l0.0636-3.4696z" fill="#767DDE"/>
<path d="m15.739 9.0527 0.031 6.5e-4 -0.0636 3.4683h-0.0307l0.0633-3.469z" fill="#777DDD"/>
<path d="m15.771 9.0535 0.031 6.4e-4 -0.0636 3.4677h-0.031l0.0636-3.4683z" fill="#787DDD"/>
<path d="m15.802 9.054 0.031 3.2e-4 -0.0636 3.4673h-0.031l0.0636-3.4676z" fill="#797DDD"/>
<path d="m15.833 9.0544 0.0307 6.5e-4 -0.0633 3.4667h-0.031l0.0636-3.4674z" fill="#7A7CDC"/>
<path d="m15.864 9.0549 0.031 6.5e-4 -0.0633 3.4661h-0.031l0.0633-3.4668z" fill="#7B7CDC"/>
<path d="m15.895 9.0557 0.031 6.5e-4 -0.0636 3.4654h-0.0307l0.0633-3.466z" fill="#7C7CDC"/>
<path d="m15.927 9.0564 0.031 3.2e-4 -0.0636 3.4651h-0.031l0.0636-3.4654z" fill="#7D7CDC"/>
<path d="m15.958 9.0566 0.031 6.5e-4 -0.0636 3.4644h-0.031l0.0636-3.4651z" fill="#7E7CDB"/>
<path d="m15.989 9.0574 0.0307 6.5e-4 -0.0633 3.4638h-0.031l0.0636-3.4644z" fill="#807CDB"/>
<path d="m16.016 9.0579 0.031 6.5e-4 -0.0633 3.4632h-0.031l0.0633-3.4638z" fill="#817BDB"/>
<path d="m16.048 9.0586 0.031 3.3e-4 -0.0636 3.4629h-0.0307l0.0633-3.4632z" fill="#827BDA"/>
<path d="m16.079 9.0588 0.031 6.4e-4 -0.0636 3.4622h-0.031l0.0636-3.4629z" fill="#837BDA"/>
<path d="m16.11 9.0596 0.0307 6.5e-4 -0.0633 3.4616h-0.031l0.0636-3.4622z" fill="#847BDA"/>
<path d="m16.141 9.0603 0.031 6.5e-4 -0.0633 3.461h-0.031l0.0633-3.4616z" fill="#857BDA"/>
<path d="m16.173 9.0608 0.031 3.2e-4 -0.0633 3.4606h-0.031l0.0633-3.4609z" fill="#867AD9"/>
<path d="m16.204 9.0613 0.031 6.5e-4 -0.0636 3.46h-0.0307l0.0633-3.4606z" fill="#877AD9"/>
<path d="m16.236 9.0618 0.0307 6.4e-4 -0.0633 3.4593h-0.031l0.0636-3.4599z" fill="#887AD9"/>
<path d="m16.262 9.0625 0.031 6.5e-4 -0.0633 3.4586h-0.031l0.0633-3.4593z" fill="#897AD8"/>
<path d="m16.294 9.0632 0.031 3.3e-4 -0.0633 3.4583h-0.031l0.0633-3.4587z" fill="#8A7AD8"/>
<path d="m16.325 9.0635 0.031 6.4e-4 -0.0633 3.4577h-0.031l0.0633-3.4583z" fill="#8B7AD8"/>
<path d="m16.356 9.0642 0.031 6.4e-4 -0.0637 3.457h-0.0306l0.0633-3.4577z" fill="#8C79D8"/>
<path d="m16.388 9.0647 0.0307 6.4e-4 -0.0633 3.4564h-0.031l0.0636-3.457z" fill="#8D79D7"/>
<path d="m16.419 9.0654 0.031 3.2e-4 -0.0633 3.456h-0.031l0.0633-3.4564z" fill="#8E79D7"/>
<path d="m16.45 9.0657 0.031 6.5e-4 -0.0633 3.4554h-0.031l0.0633-3.456z" fill="#8F79D7"/>
<path d="m16.481 9.0664 0.031 6.4e-4 -0.0633 3.4548h-0.031l0.0633-3.4554z" fill="#9079D6"/>
<path d="m16.512 9.0671 0.0307 6.4e-4 -0.0633 3.4541h-0.0307l0.0633-3.4548z" fill="#9179D6"/>
<path d="m16.544 9.0676 0.031 3.2e-4 -0.0633 3.4538h-0.031l0.0633-3.4542z" fill="#9278D6"/>
<path d="m16.575 9.0679 0.031 6.5e-4 -0.0633 3.4532h-0.031l0.0633-3.4538z" fill="#9378D6"/>
<path d="m16.606 9.0686 0.031 6.5e-4 -0.0633 3.4526h-0.031l0.0633-3.4532z" fill="#9478D5"/>
<path d="m16.638 9.0691 0.0307 6.5e-4 -0.063 3.4519h-0.031l0.0633-3.4525z" fill="#9578D5"/>
<path d="m16.668 9.0698 0.031 3.3e-4 -0.0633 3.4516h-0.0306l0.0629-3.4519z" fill="#9678D5"/>
<path d="m16.7 9.0701 0.031 6.4e-4 -0.0633 3.4509h-0.031l0.0633-3.4515z" fill="#9778D4"/>
<path d="m16.731 9.0708 0.031 6.5e-4 -0.0633 3.4502h-0.031l0.0633-3.4509z" fill="#9877D4"/>
<path d="m16.762 9.0715 0.0307 6.5e-4 -0.063 3.4496h-0.031l0.0633-3.4503z" fill="#9977D4"/>
<path d="m16.79 9.072 0.031 3.2e-4 -0.0629 3.4493h-0.031l0.0629-3.4496z" fill="#9A77D4"/>
<path d="m16.821 9.0725 0.031 6.5e-4 -0.0633 3.4486h-0.0307l0.063-3.4493z" fill="#9B77D3"/>
<path d="m16.852 9.073 0.031 6.4e-4 -0.0633 3.448h-0.031l0.0633-3.4486z" fill="#9C77D3"/>
<path d="m16.884 9.0737 0.031 6.5e-4 -0.0633 3.4473h-0.031l0.0633-3.448z" fill="#9D77D3"/>
<path d="m16.915 9.0745 0.0306 3.3e-4 -0.0629 3.447h-0.031l0.0633-3.4473z" fill="#9E76D2"/>
<path d="m16.946 9.0747 0.031 6.4e-4 -0.063 3.4464h-0.031l0.063-3.447z" fill="#9F76D2"/>
<path d="m16.977 9.0754 0.031 6.5e-4 -0.0633 3.4457h-0.0306l0.0629-3.4464z" fill="#A076D2"/>
<path d="m17.005 9.0759 0.031 6.4e-4 -0.0633 3.4451h-0.031l0.0633-3.4458z" fill="#A176D2"/>
<path d="m17.036 9.0767 0.0307 3.2e-4 -0.0629 3.4447h-0.031l0.0632-3.445z" fill="#A276D1"/>
<path d="m17.067 9.0769 0.031 6.5e-4 -0.063 3.4442h-0.031l0.063-3.4448z" fill="#A376D1"/>
<path d="m17.098 9.0776 0.031 6.4e-4 -0.0629 3.4435h-0.031l0.0629-3.4442z" fill="#A475D1"/>
<path d="m17.129 9.0784 0.031 6.5e-4 -0.0633 3.4428h-0.0307l0.063-3.4434z" fill="#A575D1"/>
<path d="m17.161 9.0789 0.0307 6.4e-4 -0.0629 3.4422h-0.031l0.0632-3.4428z" fill="#A675D0"/>
<path d="m17.192 9.0796 0.031 3.2e-4 -0.063 3.4419h-0.031l0.063-3.4422z" fill="#A775D0"/>
<path d="m17.223 9.0798 0.031 6.5e-4 -0.0629 3.4412h-0.031l0.0629-3.4419z" fill="#A875D0"/>
<path d="m17.254 9.0806 0.031 6.4e-4 -0.063 3.4406h-0.031l0.063-3.4412z" fill="#A975CF"/>
<path d="m17.286 9.0813 0.031 6.4e-4 -0.0633 3.44h-0.0306l0.0629-3.4406z" fill="#AA74CF"/>
<path d="m17.317 9.0818 0.0307 3.2e-4 -0.063 3.4396h-0.031l0.0633-3.4399z" fill="#AB74CF"/>
<path d="m17.348 9.0823 0.031 6.4e-4 -0.0629 3.439h-0.031l0.0629-3.4396z" fill="#AC74CF"/>
<path d="m17.379 9.0828 0.031 6.5e-4 -0.063 3.4383h-0.031l0.063-3.4389z" fill="#AD74CE"/>
<path d="m17.411 9.0835 0.031 6.4e-4 -0.0629 3.4377h-0.031l0.0629-3.4383z" fill="#AE74CE"/>
<path d="m17.442 9.0842 0.0306 3.2e-4 -0.0629 3.4374h-0.0307l0.063-3.4377z" fill="#AF74CE"/>
<path d="m17.473 9.0845 0.031 6.5e-4 -0.0629 3.4367h-0.031l0.0629-3.4373z" fill="#B073CD"/>
<path d="m17.504 9.0852 0.031 6.4e-4 -0.063 3.436h-0.031l0.063-3.4367z" fill="#B173CD"/>
<path d="m17.532 9.0857 0.031 6.5e-4 -0.063 3.4354h-0.0309l0.0629-3.436z" fill="#B273CD"/>
<path d="m17.563 9.0864 0.0306 3.2e-4 -0.0626 3.435h-0.031l0.063-3.4354z" fill="#B373CD"/>
<path d="m17.594 9.0867 0.031 6.5e-4 -0.063 3.4344h-0.0307l0.0627-3.435z" fill="#B473CC"/>
<path d="m17.626 9.0874 0.031 6.5e-4 -0.063 3.4338h-0.031l0.063-3.4344z" fill="#B573CC"/>
<path d="m17.657 9.0881 0.031 6.5e-4 -0.063 3.4331h-0.0309l0.0629-3.4338z" fill="#B672CC"/>
<path d="m17.688 9.0886 0.031 3.3e-4 -0.063 3.4328h-0.031l0.063-3.4332z" fill="#B772CB"/>
<path d="m17.719 9.0889 0.0307 6.4e-4 -0.0627 3.4322h-0.031l0.063-3.4328z" fill="#B872CB"/>
<path d="m17.75 9.0896 0.031 6.5e-4 -0.0629 3.4316h-0.0307l0.0626-3.4322z" fill="#B972CB"/>
<path d="m17.778 9.0901 0.031 6.4e-4 -0.063 3.4309h-0.031l0.063-3.4315z" fill="#BA72CB"/>
<path d="m17.809 9.0908 0.031 3.2e-4 -0.063 3.4306h-0.031l0.063-3.4309z" fill="#BB72CA"/>
<path d="m17.84 9.0911 0.0307 6.5e-4 -0.0627 3.4299h-0.031l0.063-3.4305z" fill="#BC71CA"/>
<path d="m17.871 9.0918 0.031 6.4e-4 -0.0626 3.4293h-0.031l0.0626-3.4299z" fill="#BD71CA"/>
<path d="m17.902 9.0925 0.031 6.5e-4 -0.063 3.4286h-0.0307l0.0627-3.4293z" fill="#BE71C9"/>
<path d="m17.934 9.093 0.031 3.2e-4 -0.063 3.4283h-0.031l0.063-3.4286z" fill="#BF71C9"/>
<path d="m17.965 9.0935 0.0307 6.4e-4 -0.0627 3.4276h-0.031l0.063-3.4283z" fill="#C071C9"/>
<path d="m17.996 9.094 0.031 6.5e-4 -0.0626 3.427h-0.031l0.0626-3.4276z" fill="#C170C9"/>
<path d="m18.028 9.0947 0.031 6.4e-4 -0.0627 3.4263h-0.031l0.0627-3.427z" fill="#C270C8"/>
<path d="m18.059 9.0955 0.031 3.2e-4 -0.0629 3.426h-0.0307l0.0626-3.4263z" fill="#C370C8"/>
<path d="m18.09 9.0957 0.0255 6.5e-4v0.29158l-0.0575 3.1338h-0.031l0.063-3.426z" fill="#C470C8"/>
<path d="m18.116 11.077-0.0265 1.4443h-0.031l0.0575-3.1338v1.6895z" fill="#C570C7"/>
<path d="m18.09 12.522 0.0265-1.4444v1.4444h-0.0265z" fill="#C670C7"/>
<path d="m4.2602 4.1133-0.14304 7.815v-7.815h0.14304z" fill="#29CCB9"/>
<path d="m4.3729 4.1133-0.25574 13.97v-6.1545l0.14304-7.815h0.1127z" fill="#29CCB9"/>
<path d="m4.4856 4.1133-0.28867 15.774h-0.07976v-1.8044l0.25574-13.97h0.11269z" fill="#28CBBA"/>
<path d="m4.6006 4.1133-0.28868 15.774h-0.11269l0.28868-15.774h0.11269z" fill="#28CABB"/>
<path d="m4.71 4.1133-0.28868 15.774h-0.1127l0.28868-15.774h0.1127z" fill="#27C9BC"/>
<path d="m4.8232 4.1133-0.28868 15.774h-0.11269l0.28867-15.774h0.1127z" fill="#27C9BD"/>
<path d="m4.9365 4.1133-0.28868 15.774h-0.11269l0.28867-15.774h0.1127z" fill="#26C8BE"/>
<path d="m5.0498 4.1133-0.28868 15.774h-0.11269l0.28868-15.774h0.11269z" fill="#25C7BF"/>
<path d="m5.1631 4.1133-0.28868 15.774h-0.11269l0.28868-15.774h0.11269z" fill="#25C6C0"/>
<path d="m5.2725 4.1133-0.28868 15.774h-0.1127l0.28868-15.774h0.1127z" fill="#24C5C1"/>
<path d="m5.3896 4.1133-0.28867 15.774h-0.1127l0.28868-15.774h0.11269z" fill="#24C4C2"/>
<path d="m5.499 4.1133-0.28868 15.774h-0.11269l0.28867-15.774h0.1127z" fill="#23C3C3"/>
<path d="m5.6123 4.1133-0.28868 15.774h-0.11269l0.28868-15.774h0.11269z" fill="#22C3C4"/>
<path d="m5.7256 4.1133-0.28868 15.774h-0.11269l0.28868-15.774h0.11269z" fill="#22C2C5"/>
<path d="m5.8389 4.1133-0.28868 15.774h-0.11269l0.28868-15.774h0.11269z" fill="#21C1C6"/>
<path d="m5.9522 4.1133-0.289 15.774h-0.11237l0.28868-15.774h0.11269z" fill="#21C0C7"/>
<path d="m6.0618 4.1133-0.289 15.774h-0.11269l0.289-15.774h0.11269z" fill="#20BFC8"/>
<path d="m6.1751 4.1133-0.289 15.774h-0.11269l0.289-15.774h0.11269z" fill="#1FBEC9"/>
<path d="m6.2884 4.1133-0.289 15.774h-0.11269l0.289-15.774h0.11269z" fill="#1FBDCA"/>
<path d="M6.4017 4.11328L6.11269 19.8872H6L6.289 4.11328H6.4017Z" fill="#1EBDCB"/>
<path d="m6.515 4.1133-0.289 15.774h-0.1127l0.289-15.774h0.1127z" fill="#1EBCCC"/>
<path d="m6.6244 4.1133-0.289 15.774h-0.11269l0.289-15.774h0.11269z" fill="#1DBBCD"/>
<path d="m6.7415 4.1133-0.289 15.774h-0.1127l0.289-15.774h0.1127z" fill="#1DBACE"/>
<path d="m6.8509 4.1133-0.289 15.774h-0.11269l0.289-15.774h0.11269z" fill="#1CB9CF"/>
<path d="m6.9642 4.1133-0.28901 15.774h-0.11269l0.289-15.774h0.1127z" fill="#1BB8D0"/>
<path d="m7.0775 4.1133-0.289 15.774h-0.1127l0.289-15.774h0.1127z" fill="#1BB7D1"/>
<path d="m7.1908 4.1133-0.289 15.774h-0.1127l0.289-15.774h0.1127z" fill="#1AB7D2"/>
<path d="m7.304 4.1133-0.289 15.774h-0.1127l0.289-15.774h0.1127z" fill="#1AB6D3"/>
<path d="m7.4134 4.1133-0.289 15.774h-0.11269l0.289-15.774h0.11269z" fill="#19B5D4"/>
<path d="m7.5306 4.1133-0.289 15.774h-0.11269l0.289-15.774h0.11269z" fill="#18B4D5"/>
<path d="m7.64 4.1133-0.289 15.774h-0.1127l0.289-15.774h0.1127z" fill="#18B3D6"/>
<path d="m7.7533 4.1133-0.289 15.774h-0.1127l0.289-15.774h0.1127z" fill="#17B2D7"/>
<path d="m7.8665 4.1133-0.289 15.774h-0.1127l0.289-15.774h0.1127z" fill="#17B1D8"/>
<path d="m7.9798 4.1133-0.289 15.774h-0.1127l0.28901-15.774h0.11269z" fill="#16B1D9"/>
<path d="m8.0931 4.1133-0.289 15.774h-0.11269l0.289-15.774h0.11269z" fill="#15B0DA"/>
<path d="m8.2025 4.1133-0.289 15.774h-0.1127l0.289-15.774h0.1127z" fill="#15AFDB"/>
<path d="m8.3197 4.1133-0.289 15.774h-0.11269l0.289-15.774h0.11269z" fill="#14AEDD"/>
<path d="m8.429 4.1133-0.289 15.774h-0.1127l0.289-15.774h0.1127z" fill="#14ADDE"/>
<path d="m8.5423 4.1133-0.289 15.774h-0.1127l0.28901-15.774h0.11269z" fill="#13ACDF"/>
<path d="m8.6556 4.1133-0.289 15.774h-0.11269l0.289-15.774h0.11269z" fill="#12ACE0"/>
<path d="m8.7689 4.1133-0.289 15.774h-0.11269l0.289-15.774h0.11269z" fill="#12ABE1"/>
<path d="m8.8822 4.1133-0.289 15.774h-0.11269l0.289-15.774h0.11269z" fill="#11AAE2"/>
<path d="m8.9915 4.1133-0.289 15.774h-0.1127l0.289-15.774h0.1127z" fill="#11A9E3"/>
<path d="m9.1048 4.1133-0.289 15.774h-0.1127l0.28901-15.774h0.11269z" fill="#10A8E4"/>
<path d="m9.2181 4.1133-0.289 15.774h-0.11269l0.289-15.774h0.11269z" fill="#0FA7E5"/>
<path d="m9.3314 4.1133-0.289 15.774h-0.11269l0.289-15.774h0.11269z" fill="#0FA6E6"/>
<path d="m9.4447 4.1133-0.289 15.774h-0.11269l0.289-15.774h0.11269z" fill="#0EA6E7"/>
<path d="m9.558 4.1133-0.28901 15.774h-0.11269l0.289-15.774h0.1127z" fill="#0EA5E8"/>
<path d="m9.6712 4.1133-0.289 15.774h-0.1127l0.289-15.774h0.1127z" fill="#0DA4E9"/>
<path d="m9.7803 4.1133-0.28868 15.774h-0.11269l0.289-15.774h0.11237z" fill="#0CA3EA"/>
<path d="m9.8936 4.1133-0.28868 15.774h-0.11269l0.28868-15.774h0.11269z" fill="#0CA2EB"/>
<path d="m10.007 4.1133-0.28864 15.774h-0.11269l0.28868-15.774h0.11265z" fill="#0BA1EC"/>
<path d="m10.12 4.1133-0.28866 15.774h-0.11269l0.28865-15.774h0.1127z" fill="#0BA0ED"/>
<path d="m10.233 4.1133-0.28867 15.774h-0.1127l0.28867-15.774h0.1127z" fill="#0AA0EE"/>
<path d="m10.343 4.1133-0.2887 15.774h-0.11269l0.28869-15.774h0.1127z" fill="#0A9FEF"/>
<path d="m10.46 4.1133-0.2887 15.774h-0.1127l0.2887-15.774h0.1127z" fill="#099EF0"/>
<path d="m10.569 4.1133-0.2886 15.774h-0.1127l0.2886-15.774h0.1127z" fill="#089DF1"/>
<path d="m10.683 4.1133-0.2887 15.774h-0.1127l0.2887-15.774h0.1127z" fill="#089CF2"/>
<path d="m10.796 4.1133-0.2887 15.774h-0.1127l0.2887-15.774h0.1127z" fill="#079BF3"/>
<path d="m10.909 4.1133-0.2887 15.774h-0.1127l0.2887-15.774h0.1127z" fill="#079AF4"/>
<path d="m11.022 4.1133-0.2887 15.774h-0.1127l0.2887-15.774h0.1127z" fill="#069AF5"/>
<path d="m11.132 4.1133-0.2886 15.774h-0.1127l0.2886-15.774h0.1127z" fill="#0599F6"/>
<path d="m11.249 4.1133-0.2886 15.774h-0.1127l0.2886-15.774h0.1127z" fill="#0598F7"/>
<path d="m11.358 4.1133-0.2887 15.774h-0.1127l0.2887-15.774h0.1127z" fill="#0497F8"/>
<path d="m11.472 4.1133-0.2887 15.774h-0.1127l0.2887-15.774h0.1127z" fill="#0496F9"/>
<path d="m11.585 4.1133-0.2887 15.774h-0.1127l0.2887-15.774h0.1127z" fill="#0395FA"/>
<path d="m11.698 4.1133-0.2886 15.774h-0.1127l0.2887-15.774h0.1126z" fill="#0294FB"/>
<path d="m11.812 4.1133-0.2886 15.774h-0.1127l0.2886-15.774h0.1127z" fill="#0294FC"/>
<path d="m11.921 4.1133-0.2887 15.774h-0.1127l0.2887-15.774h0.1127z" fill="#0193FD"/>
<path d="m12.038 4.1133-0.2887 15.774h-0.1127l0.2887-15.774h0.1127z" fill="#0192FE"/>
<path d="m12.148 4.1133-0.2887 15.774h-0.1127l0.2887-15.774h0.1127z" fill="#0091FF"/>
<path d="m12.179 4.1133-0.2887 15.774h-0.031l0.2887-15.774h0.031z" fill="#0091FF"/>
<path d="m12.21 4.1133-0.289 15.774h-0.0307l0.2887-15.774h0.031z" fill="#0191FF"/>
<path d="m12.242 4.1133-0.289 15.774h-0.031l0.289-15.774h0.031z" fill="#0291FE"/>
<path d="m12.273 4.1133-0.2887 15.774h-0.031l0.289-15.774h0.0307z" fill="#0390FE"/>
<path d="m12.304 4.1133-0.2887 15.774h-0.031l0.2887-15.774h0.031z" fill="#0490FE"/>
<path d="m12.335 4.1133-0.2887 15.774h-0.031l0.2887-15.774h0.031z" fill="#0590FE"/>
<path d="m12.363 4.1133-0.289 15.774h-0.0306l0.2886-15.774h0.031z" fill="#0690FD"/>
<path d="m12.394 4.1133-0.289 15.774h-0.031l0.289-15.774h0.031z" fill="#0790FD"/>
<path d="m12.425 4.1133-0.2886 15.774h-0.031l0.289-15.774h0.0306z" fill="#0890FD"/>
<path d="m12.456 4.1133-0.2887 15.774h-0.031l0.2887-15.774h0.031z" fill="#098FFC"/>
<path d="m12.488 4.1133-0.2886 15.774h-0.031l0.2886-15.774h0.031z" fill="#0A8FFC"/>
<path d="m12.519 4.1133-0.289 15.774h-0.0307l0.2887-15.774h0.031z" fill="#0B8FFC"/>
<path d="m12.55 4.1133-0.289 15.774h-0.031l0.289-15.774h0.031z" fill="#0C8FFC"/>
<path d="m12.581 4.1133-0.2887 15.774h-0.031l0.289-15.774h0.0307z" fill="#0D8FFB"/>
<path d="m12.613 4.1133-0.2886 15.774h-0.031l0.2886-15.774h0.031z" fill="#0E8FFB"/>
<path d="m12.644 4.1133-0.2887 15.774h-0.031l0.2887-15.774h0.031z" fill="#0F8EFB"/>
<path d="m12.675 4.1133-0.289 15.774h-0.0306l0.2886-15.774h0.031z" fill="#108EFA"/>
<path d="m12.707 4.1133-0.289 15.774h-0.031l0.289-15.774h0.031z" fill="#118EFA"/>
<path d="m12.738 4.1133-0.2886 15.774h-0.031l0.289-15.774h0.0306z" fill="#128EFA"/>
<path d="m12.769 4.1133-0.2887 15.774h-0.031l0.2887-15.774h0.031z" fill="#138EFA"/>
<path d="m12.8 4.1133-0.2886 15.774h-0.031l0.2886-15.774h0.031z" fill="#148EF9"/>
<path d="m12.831 4.1133-0.289 15.774h-0.0307l0.2887-15.774h0.031z" fill="#158DF9"/>
<path d="m12.859 4.1133-0.289 15.774h-0.031l0.289-15.774h0.031z" fill="#168DF9"/>
<path d="m12.89 4.1133-0.2887 15.774h-0.031l0.289-15.774h0.0307z" fill="#178DF8"/>
<path d="m12.921 4.1133-0.2886 15.774h-0.031l0.2886-15.774h0.031z" fill="#188DF8"/>
<path d="m12.952 4.1133-0.2887 15.774h-0.031l0.2887-15.774h0.031z" fill="#198DF8"/>
<path d="m12.984 4.1133-0.289 15.774h-0.0306l0.2886-15.774h0.031z" fill="#1A8DF8"/>
<path d="m13.015 4.1133-0.289 15.774h-0.031l0.289-15.774h0.031z" fill="#1B8CF7"/>
<path d="m13.046 4.1133-0.2886 15.774h-0.031l0.289-15.774h0.0306z" fill="#1C8CF7"/>
<path d="m13.078 4.1133-0.2887 15.774h-0.031l0.2887-15.774h0.031z" fill="#1D8CF7"/>
<path d="m13.109 4.1133-0.2886 15.774h-0.031l0.2886-15.774h0.031z" fill="#1E8CF6"/>
<path d="m13.136 4.1133-0.289 15.774h-0.0307l0.2887-15.774h0.031z" fill="#1F8CF6"/>
<path d="m13.168 4.1133-0.289 15.774h-0.031l0.289-15.774h0.031z" fill="#208CF6"/>
<path d="m13.199 4.1133-0.2887 15.774h-0.031l0.289-15.774h0.0307z" fill="#218BF6"/>
<path d="m13.23 4.1133-0.2886 15.774h-0.031l0.2886-15.774h0.031z" fill="#228BF5"/>
<path d="m13.261 4.1133-0.2887 15.774h-0.031l0.2887-15.774h0.031z" fill="#238BF5"/>
<path d="m13.292 4.1133-0.289 15.774h-0.0306l0.2886-15.774h0.031z" fill="#248BF5"/>
<path d="m13.324 4.1133-0.289 15.774h-0.031l0.289-15.774h0.031z" fill="#258BF5"/>
<path d="m13.355 4.1133-0.2886 15.774h-0.031l0.289-15.774h0.0306z" fill="#268BF4"/>
<path d="m13.386 4.1133-0.2887 15.774h-0.031l0.2887-15.774h0.031z" fill="#278AF4"/>
<path d="m13.417 4.1133-0.2886 15.774h-0.031l0.2886-15.774h0.031z" fill="#288AF4"/>
<path d="m13.449 4.1133-0.289 15.774h-0.0307l0.2887-15.774h0.031z" fill="#298AF3"/>
<path d="m13.48 4.1133-0.289 15.774h-0.031l0.289-15.774h0.031z" fill="#2A8AF3"/>
<path d="m13.511 4.1133-0.2887 15.774h-0.031l0.289-15.774h0.0307z" fill="#2B8AF3"/>
<path d="m13.542 4.1133-0.2886 15.774h-0.031l0.2886-15.774h0.031z" fill="#2C8AF3"/>
<path d="m13.574 4.1133-0.2887 15.774h-0.031l0.2887-15.774h0.031z" fill="#2D89F2"/>
<path d="m13.605 4.1133-0.289 15.774h-0.0306l0.2886-15.774h0.031z" fill="#2E89F2"/>
<path d="m13.632 4.1133-0.289 15.774h-0.031l0.289-15.774h0.031z" fill="#2F89F2"/>
<path d="m13.663 4.1133-0.2887 15.774h-0.0309l0.289-15.774h0.0306z" fill="#3089F1"/>
<path d="m13.695 4.1133-0.2887 15.774h-0.031l0.2887-15.774h0.031z" fill="#3189F1"/>
<path d="m13.726 4.1133-0.2887 15.774h-0.031l0.2887-15.774h0.031z" fill="#3289F1"/>
<path d="m13.757 4.1133-0.289 15.774h-0.0307l0.2887-15.774h0.031z" fill="#3388F1"/>
<path d="m13.789 4.1133-0.2891 15.774h-0.0309l0.289-15.774h0.031z" fill="#3488F0"/>
<path d="m13.82 4.1133-0.2887 15.774h-0.031l0.289-15.774h0.0307z" fill="#3588F0"/>
<path d="m13.851 4.1133-0.2887 15.774h-0.031l0.2887-15.774h0.031z" fill="#3688F0"/>
<path d="m13.878 4.1133-0.2887 15.774h-0.031l0.2887-15.774h0.031z" fill="#3788EF"/>
<path d="m13.91 4.1133-0.289 15.774h-0.0307l0.2887-15.774h0.031z" fill="#3888EF"/>
<path d="m13.941 4.1133-0.289 15.774h-0.031l0.289-15.774h0.031z" fill="#3987EF"/>
<path d="m13.972 4.1133-0.2887 15.774h-0.031l0.289-15.774h0.0307z" fill="#3A87EF"/>
<path d="m14.003 4.1133-0.2887 15.774h-0.031l0.2887-15.774h0.031z" fill="#3B87EE"/>
<path d="m14.034 4.1133-0.2887 15.774h-0.031l0.2887-15.774h0.031z" fill="#3C87EE"/>
<path d="m14.066 4.1133-0.289 15.774h-0.0307l0.2887-15.774h0.031z" fill="#3D87EE"/>
<path d="m14.097 4.1133-0.289 15.774h-0.031l0.289-15.774h0.031z" fill="#3E87ED"/>
<path d="m14.128 4.1133-0.2887 15.774h-0.031l0.289-15.774h0.0307z" fill="#3F86ED"/>
<path d="m14.16 4.1133-0.2887 15.774h-0.031l0.2887-15.774h0.031z" fill="#4086ED"/>
<path d="m14.191 4.1133-0.2887 15.774h-0.031l0.2887-15.774h0.031z" fill="#4186ED"/>
<path d="m14.222 4.1133-0.289 15.774h-0.0307l0.2887-15.774h0.031z" fill="#4286EC"/>
<path d="m14.254 4.1133-0.289 15.774h-0.031l0.289-15.774h0.031z" fill="#4386EC"/>
<path d="m14.284 4.1133-0.2887 15.774h-0.031l0.289-15.774h0.0307z" fill="#4485EC"/>
<path d="m14.316 4.1133-0.2887 15.774h-0.031l0.2887-15.774h0.031z" fill="#4585EB"/>
<path d="m14.347 4.1133-0.2887 15.774h-0.031l0.2887-15.774h0.031z" fill="#4685EB"/>
<path d="m14.378 4.1133-0.289 15.774h-0.0307l0.2887-15.774h0.031z" fill="#4785EB"/>
<path d="m14.406 4.1133-0.289 15.774h-0.031l0.289-15.774h0.031z" fill="#4885EB"/>
<path d="m14.437 4.1133-0.2887 15.774h-0.031l0.289-15.774h0.0307z" fill="#4985EA"/>
<path d="m14.468 4.1133-0.2887 15.774h-0.031l0.2887-15.774h0.031z" fill="#4A84EA"/>
<path d="m14.499 4.1133-0.2887 15.774h-0.031l0.2887-15.774h0.031z" fill="#4B84EA"/>
<path d="m14.531 4.1133-0.289 15.774h-0.0307l0.2887-15.774h0.031z" fill="#4C84E9"/>
<path d="m14.562 4.1133-0.289 15.774h-0.031l0.289-15.774h0.031z" fill="#4D84E9"/>
<path d="m14.593 4.1133-0.2887 15.774h-0.031l0.289-15.774h0.0307z" fill="#4E84E9"/>
<path d="m14.624 4.1133-0.2887 15.774h-0.031l0.2887-15.774h0.031z" fill="#4F84E9"/>
<path d="m14.656 4.1133-0.2887 15.774h-0.031l0.2887-15.774h0.031z" fill="#5083E8"/>
<path d="m14.683 4.1133-0.289 15.774h-0.0307l0.2887-15.774h0.031z" fill="#5183E8"/>
<path d="m14.714 4.1133-0.289 15.774h-0.031l0.289-15.774h0.031z" fill="#5283E8"/>
<path d="m14.746 4.1133-0.2887 15.774h-0.031l0.289-15.774h0.0307z" fill="#5383E7"/>
<path d="m14.777 4.1133-0.2887 15.774h-0.031l0.2887-15.774h0.031z" fill="#5483E7"/>
<path d="m14.808 4.1133-0.2887 15.774h-0.031l0.2887-15.774h0.031z" fill="#5583E7"/>
<path d="m14.839 4.1133-0.289 15.774h-0.0307l0.2887-15.774h0.031z" fill="#5682E7"/>
<path d="m14.871 4.1133-0.289 15.774h-0.031l0.289-15.774h0.031z" fill="#5782E6"/>
<path d="m14.902 4.1133-0.2887 15.774h-0.031l0.289-15.774h0.0307z" fill="#5882E6"/>
<path d="m14.933 4.1133-0.2887 15.774h-0.031l0.2887-15.774h0.031z" fill="#5982E6"/>
<path d="m14.964 4.1133-0.2887 15.774h-0.031l0.2887-15.774h0.031z" fill="#5A82E5"/>
<path d="m14.996 4.1133-0.289 15.774h-0.0307l0.2887-15.774h0.031z" fill="#5B82E5"/>
<path d="m15.027 4.1133-0.289 15.774h-0.031l0.289-15.774h0.031z" fill="#5C81E5"/>
<path d="m15.058 4.1133-0.2887 15.774h-0.031l0.289-15.774h0.0307z" fill="#5D81E5"/>
<path d="m15.089 4.1133-0.2887 15.774h-0.031l0.2887-15.774h0.031z" fill="#5E81E4"/>
<path d="m15.12 4.1133-0.2887 15.774h-0.031l0.2887-15.774h0.031z" fill="#5F81E4"/>
<path d="m15.152 4.1133-0.289 15.774h-0.0307l0.2887-15.774h0.031z" fill="#6081E4"/>
<path d="m15.179 4.1133-0.289 15.774h-0.031l0.289-15.774h0.031z" fill="#6181E4"/>
<path d="m15.21 4.1133-0.2887 15.774h-0.031l0.289-15.774h0.0307z" fill="#6280E3"/>
<path d="m15.242 4.1133-0.2887 15.774h-0.031l0.2887-15.774h0.031z" fill="#6380E3"/>
<path d="m15.273 4.1133-0.2887 15.774h-0.031l0.2887-15.774h0.031z" fill="#6480E3"/>
<path d="m15.304 4.1133-0.289 15.774h-0.0307l0.2887-15.774h0.031z" fill="#6580E2"/>
<path d="m15.336 4.1133-0.289 15.774h-0.031l0.289-15.774h0.031z" fill="#6680E2"/>
<path d="m15.367 4.1133-0.2887 15.774h-0.031l0.289-15.774h0.0307z" fill="#6780E2"/>
<path d="m15.398 4.1133-0.2887 15.774h-0.031l0.2887-15.774h0.031z" fill="#687FE2"/>
<path d="m15.425 4.1133-0.2886 15.774h-0.031l0.2886-15.774h0.031z" fill="#697FE1"/>
<path d="m15.456 4.1133-0.289 15.774h-0.0307l0.2887-15.774h0.031z" fill="#6A7FE1"/>
<path d="m15.488 4.1133-0.289 15.774h-0.031l0.289-15.774h0.031z" fill="#6B7FE1"/>
<path d="m15.519 4.1133-0.2887 15.774h-0.031l0.289-15.774h0.0307z" fill="#6C7FE0"/>
<path d="m15.55 4.1133-0.2886 15.774h-0.031l0.2886-15.774h0.031z" fill="#6D7FE0"/>
<path d="m15.581 4.1133-0.2887 15.774h-0.031l0.2887-15.774h0.031z" fill="#6E7EE0"/>
<path d="m15.613 4.1133-0.289 15.774h-0.0306l0.2886-15.774h0.031z" fill="#6F7EE0"/>
<path d="m15.644 4.1133-0.289 15.774h-0.031l0.289-15.774h0.031z" fill="#707EDF"/>
<path d="m15.675 4.1133-0.2886 15.774h-0.031l0.289-15.774h0.0306z" fill="#717EDF"/>
<path d="m15.706 4.1133-0.2887 15.774h-0.031l0.2887-15.774h0.031z" fill="#727EDF"/>
<path d="m15.738 4.1133-0.2886 15.774h-0.031l0.2886-15.774h0.031z" fill="#737EDE"/>
<path d="m15.769 4.1133-0.289 15.774h-0.0307l0.2887-15.774h0.031z" fill="#747DDE"/>
<path d="m15.8 4.1133-0.289 15.774h-0.031l0.289-15.774h0.031z" fill="#757DDE"/>
<path d="m15.831 4.1133-0.2887 15.774h-0.031l0.289-15.774h0.0307z" fill="#767DDE"/>
<path d="m15.863 4.1133-0.2886 15.774h-0.031l0.2886-15.774h0.031z" fill="#777DDD"/>
<path d="m15.894 4.1133-0.2887 15.774h-0.031l0.2887-15.774h0.031z" fill="#787DDD"/>
<path d="m15.925 4.1133-0.289 15.774h-0.0306l0.2886-15.774h0.031z" fill="#797DDD"/>
<path d="m15.953 4.1133-0.289 15.774h-0.031l0.289-15.774h0.031z" fill="#7A7CDC"/>
<path d="m15.984 4.1133-0.2886 15.774h-0.031l0.289-15.774h0.0306z" fill="#7B7CDC"/>
<path d="m16.015 4.1133-0.2887 15.774h-0.031l0.2887-15.774h0.031z" fill="#7C7CDC"/>
<path d="m16.046 4.1133-0.2886 15.774h-0.031l0.2886-15.774h0.031z" fill="#7D7CDC"/>
<path d="m16.078 4.1133-0.289 15.774h-0.0307l0.2887-15.774h0.031z" fill="#7E7CDB"/>
<path d="m16.109 4.1133-0.289 15.774h-0.031l0.289-15.774h0.031z" fill="#807CDB"/>
<path d="m16.14 4.1133-0.2887 15.774h-0.031l0.289-15.774h0.0307z" fill="#817BDB"/>
<path d="m16.171 4.1133-0.2886 15.774h-0.031l0.2886-15.774h0.031z" fill="#827BDA"/>
<path d="m16.199 4.1133-0.2887 15.774h-0.031l0.2887-15.774h0.031z" fill="#837BDA"/>
<path d="m16.23 4.1133-0.289 15.774h-0.0306l0.2886-15.774h0.031z" fill="#847BDA"/>
<path d="m16.261 4.1133-0.289 15.774h-0.031l0.289-15.774h0.031z" fill="#857BDA"/>
<path d="m16.292 4.1133-0.2886 15.774h-0.031l0.289-15.774h0.0306z" fill="#867AD9"/>
<path d="m16.324 4.1133-0.2887 15.774h-0.031l0.2887-15.774h0.031z" fill="#877AD9"/>
<path d="m16.355 4.1133-0.2886 15.774h-0.031l0.2886-15.774h0.031z" fill="#887AD9"/>
<path d="m16.386 4.1133-0.289 15.774h-0.0307l0.2887-15.774h0.031z" fill="#897AD8"/>
<path d="m16.418 4.1133-0.289 15.774h-0.031l0.289-15.774h0.031z" fill="#8A7AD8"/>
<path d="m16.449 4.1133-0.2887 15.774h-0.031l0.289-15.774h0.0307z" fill="#8B7AD8"/>
<path d="m16.48 4.1133-0.2886 15.774h-0.031l0.2886-15.774h0.031z" fill="#8C79D8"/>
<path d="m16.511 4.1133-0.2887 15.774h-0.031l0.2887-15.774h0.031z" fill="#8D79D7"/>
<path d="m16.542 4.1133-0.289 15.774h-0.0306l0.2886-15.774h0.031z" fill="#8E79D7"/>
<path d="m16.574 4.1133-0.289 15.774h-0.031l0.289-15.774h0.031z" fill="#8F79D7"/>
<path d="m16.605 4.1133-0.2886 15.774h-0.031l0.289-15.774h0.0306z" fill="#9079D6"/>
<path d="m16.636 4.1133-0.2887 15.774h-0.031l0.2887-15.774h0.031z" fill="#9179D6"/>
<path d="m16.667 4.1133-0.2886 15.774h-0.031l0.2886-15.774h0.031z" fill="#9278D6"/>
<path d="m16.695 4.1133-0.289 15.774h-0.0307l0.2887-15.774h0.031z" fill="#9378D6"/>
<path d="m16.726 4.1133-0.2891 15.774h-0.031l0.2891-15.774h0.031z" fill="#9478D5"/>
<path d="m16.757 4.1133-0.2887 15.774h-0.031l0.289-15.774h0.0307z" fill="#9578D5"/>
<path d="m16.788 4.1133-0.2887 15.774h-0.0309l0.2886-15.774h0.031z" fill="#9678D5"/>
<path d="m16.82 4.1133-0.2887 15.774h-0.031l0.2887-15.774h0.031z" fill="#9778D4"/>
<path d="m16.851 4.1133-0.289 15.774h-0.0307l0.2887-15.774h0.031z" fill="#9877D4"/>
<path d="m16.882 4.1133-0.289 15.774h-0.031l0.289-15.774h0.031z" fill="#9977D4"/>
<path d="m16.913 4.1133-0.2887 15.774h-0.0309l0.289-15.774h0.0306z" fill="#9A77D4"/>
<path d="m16.941 4.1133-0.2887 15.774h-0.031l0.2887-15.774h0.031z" fill="#9B77D3"/>
<path d="m16.972 4.1133-0.2887 15.774h-0.031l0.2887-15.774h0.031z" fill="#9C77D3"/>
<path d="m17.003 4.1133-0.289 15.774h-0.0307l0.2887-15.774h0.031z" fill="#9D77D3"/>
<path d="m17.035 4.1133-0.289 15.774h-0.031l0.289-15.774h0.031z" fill="#9E76D2"/>
<path d="m17.066 4.1133-0.2887 15.774h-0.031l0.289-15.774h0.0307z" fill="#9F76D2"/>
<path d="m17.097 4.1133-0.2887 15.774h-0.031l0.2887-15.774h0.031z" fill="#A076D2"/>
<path d="m17.128 4.1133-0.2887 15.774h-0.031l0.2887-15.774h0.031z" fill="#A176D2"/>
<path d="m17.16 4.1133-0.289 15.774h-0.0307l0.2887-15.774h0.031z" fill="#A276D1"/>
<path d="m17.191 4.1133-0.289 15.774h-0.031l0.289-15.774h0.031z" fill="#A376D1"/>
<path d="m17.222 4.1133-0.2887 15.774h-0.031l0.289-15.774h0.0307z" fill="#A475D1"/>
<path d="m17.253 4.1133-0.2887 15.774h-0.031l0.2887-15.774h0.031z" fill="#A575D1"/>
<path d="m17.284 4.1133-0.2887 15.774h-0.031l0.2887-15.774h0.031z" fill="#A675D0"/>
<path d="m17.316 4.1133-0.289 15.774h-0.0307l0.2887-15.774h0.031z" fill="#A775D0"/>
<path d="m17.347 4.1133-0.289 15.774h-0.031l0.289-15.774h0.031z" fill="#A875D0"/>
<path d="m17.378 4.1133-0.2887 15.774h-0.031l0.289-15.774h0.0307z" fill="#A975CF"/>
<path d="m17.41 4.1133-0.2887 15.774h-0.031l0.2887-15.774h0.031z" fill="#AA74CF"/>
<path d="m17.441 4.1133-0.2887 15.774h-0.031l0.2887-15.774h0.031z" fill="#AB74CF"/>
<path d="m17.468 4.1133-0.289 15.774h-0.0307l0.2887-15.774h0.031z" fill="#AC74CF"/>
<path d="m17.5 4.1133-0.289 15.774h-0.031l0.289-15.774h0.031z" fill="#AD74CE"/>
<path d="m17.531 4.1133-0.2887 15.774h-0.031l0.289-15.774h0.0307z" fill="#AE74CE"/>
<path d="m17.562 4.1133-0.2887 15.774h-0.031l0.2887-15.774h0.031z" fill="#AF74CE"/>
<path d="m17.593 4.1133-0.2887 15.774h-0.031l0.2887-15.774h0.031z" fill="#B073CD"/>
<path d="m17.624 4.1133-0.289 15.774h-0.0307l0.2887-15.774h0.031z" fill="#B173CD"/>
<path d="m17.656 4.1133-0.289 15.774h-0.031l0.289-15.774h0.031z" fill="#B273CD"/>
<path d="m17.687 4.1133-0.2887 15.774h-0.031l0.289-15.774h0.0307z" fill="#B373CD"/>
<path d="m17.714 4.1133-0.2887 15.774h-0.031l0.2887-15.774h0.031z" fill="#B473CC"/>
<path d="m17.746 4.1133-0.2887 15.774h-0.031l0.2887-15.774h0.031z" fill="#B573CC"/>
<path d="m17.777 4.1133-0.289 15.774h-0.0307l0.2887-15.774h0.031z" fill="#B672CC"/>
<path d="m17.808 4.1133-0.289 15.774h-0.031l0.289-15.774h0.031z" fill="#B772CB"/>
<path d="m17.839 4.1133-0.2887 15.774h-0.031l0.289-15.774h0.0307z" fill="#B872CB"/>
<path d="m17.87 4.1133-0.2887 15.774h-0.031l0.2887-15.774h0.031z" fill="#B972CB"/>
<path d="m17.902 4.1133-0.2887 15.774h-0.031l0.2887-15.774h0.031z" fill="#BA72CB"/>
<path d="m17.933 4.1133-0.289 15.774h-0.0307l0.2887-15.774h0.031z" fill="#BB72CA"/>
<path d="m17.964 4.1133-0.289 15.774h-0.031l0.289-15.774h0.031z" fill="#BC71CA"/>
<path d="m17.996 4.1133-0.2887 15.774h-0.031l0.289-15.774h0.0307z" fill="#BD71CA"/>
<path d="m18.027 4.1133-0.2887 15.774h-0.031l0.2887-15.774h0.031z" fill="#BE71C9"/>
<path d="m18.058 4.1133-0.2887 15.774h-0.031l0.2887-15.774h0.031z" fill="#BF71C9"/>
<path d="m18.089 4.1133-0.289 15.774h-0.0307l0.2887-15.774h0.031z" fill="#C071C9"/>
<path d="m18.121 4.1133-0.289 15.774h-0.031l0.289-15.774h0.031z" fill="#C170C9"/>
<path d="m18.152 4.1133-0.2887 15.774h-0.031l0.289-15.774h0.0307z" fill="#C270C8"/>
<path d="m18.183 4.1133-0.2887 15.774h-0.031l0.2887-15.774h0.031z" fill="#C370C8"/>
<path d="m18.214 4.1133-0.2887 15.774h-0.031l0.2887-15.774h0.031z" fill="#C470C8"/>
<path d="m18.242 4.1133-0.289 15.774h-0.0307l0.2887-15.774h0.031z" fill="#C570C7"/>
<path d="m18.273 4.1133-0.289 15.774h-0.031l0.289-15.774h0.031z" fill="#C670C7"/>
<path d="m18.304 4.1133-0.2887 15.774h-0.031l0.289-15.774h0.0307z" fill="#C76FC7"/>
<path d="m18.335 4.1133-0.2887 15.774h-0.031l0.2887-15.774h0.031z" fill="#C86FC7"/>
<path d="m18.367 4.1133-0.2887 15.774h-0.031l0.2887-15.774h0.031z" fill="#C96FC6"/>
<path d="m18.398 4.1133-0.289 15.774h-0.0307l0.2887-15.774h0.031z" fill="#CA6FC6"/>
<path d="m18.429 4.1133-0.289 15.774h-0.031l0.289-15.774h0.031z" fill="#CB6FC6"/>
<path d="m18.46 4.1133-0.2887 15.774h-0.031l0.289-15.774h0.0307z" fill="#CC6FC5"/>
<path d="m18.488 4.1133-0.2886 15.774h-0.031l0.2886-15.774h0.031z" fill="#CD6EC5"/>
<path d="m18.519 4.1133-0.2887 15.774h-0.031l0.2887-15.774h0.031z" fill="#CE6EC5"/>
<path d="m18.55 4.1133-0.289 15.774h-0.0306l0.2886-15.774h0.031z" fill="#CF6EC5"/>
<path d="m18.582 4.1133-0.289 15.774h-0.031l0.289-15.774h0.031z" fill="#D06EC4"/>
<path d="m18.613 4.1133-0.2886 15.774h-0.031l0.289-15.774h0.0306z" fill="#D16EC4"/>
<path d="m18.644 4.1133-0.2887 15.774h-0.031l0.2887-15.774h0.031z" fill="#D26EC4"/>
<path d="m18.675 4.1133-0.2886 15.774h-0.031l0.2886-15.774h0.031z" fill="#D36DC3"/>
<path d="m18.706 4.1133-0.289 15.774h-0.0307l0.2887-15.774h0.031z" fill="#D46DC3"/>
<path d="m18.738 4.1133-0.289 15.774h-0.031l0.289-15.774h0.031z" fill="#D56DC3"/>
<path d="m18.769 4.1133-0.2887 15.774h-0.031l0.289-15.774h0.0307z" fill="#D66DC3"/>
<path d="m18.8 4.1133-0.2886 15.774h-0.031l0.2886-15.774h0.031z" fill="#D76DC2"/>
<path d="m18.831 4.1133-0.2887 15.774h-0.031l0.2887-15.774h0.031z" fill="#D86DC2"/>
<path d="m18.863 4.1133-0.289 15.774h-0.0306l0.2886-15.774h0.031z" fill="#D96CC2"/>
<path d="m18.894 4.1133-0.289 15.774h-0.031l0.289-15.774h0.031z" fill="#DA6CC1"/>
<path d="m18.925 4.1133-0.2886 15.774h-0.031l0.289-15.774h0.0306z" fill="#DB6CC1"/>
<path d="m18.956 4.1133-0.2887 15.774h-0.031l0.2887-15.774h0.031z" fill="#DC6CC1"/>
<path d="m18.988 4.1133-0.2886 15.774h-0.031l0.2886-15.774h0.031z" fill="#DD6CC1"/>
<path d="m19.015 4.1133-0.289 15.774h-0.0307l0.2887-15.774h0.031z" fill="#DE6CC0"/>
<path d="m19.047 4.1133-0.289 15.774h-0.031l0.289-15.774h0.031z" fill="#DF6BC0"/>
<path d="m19.078 4.1133-0.2887 15.774h-0.031l0.289-15.774h0.0307z" fill="#E06BC0"/>
<path d="m19.102 4.1133h0.0064l-0.2886 15.774h-0.031l0.2886-15.774h0.0246z" fill="#E16BC0"/>
<path d="m19.109 4.1133 0.031 6.5e-4 -0.2887 15.773h-0.031l0.2887-15.774z" fill="#E26BBF"/>
<path d="m19.14 4.114 0.031 6.5e-4 -0.289 15.773h-0.0306l0.2886-15.773z" fill="#E36BBF"/>
<path d="m19.172 4.1145 0.031 6.5e-4 -0.289 15.772h-0.031l0.289-15.773z" fill="#E46BBF"/>
<path d="m19.199 4.1152 0.0306 3.3e-4 -0.2886 15.772h-0.031l0.289-15.772z" fill="#E56ABE"/>
<path d="m19.23 4.1155 0.031 6.4e-4 -0.2887 15.771h-0.031l0.2887-15.772z" fill="#E66ABE"/>
<path d="m19.261 4.1162 0.031 6.5e-4 -0.2886 15.77h-0.031l0.2886-15.771z" fill="#E76ABE"/>
<path d="m19.293 4.1169 0.031 6.5e-4 -0.289 15.77h-0.0307l0.2887-15.77z" fill="#E86ABE"/>
<path d="m19.324 4.1174 0.0306 3.2e-4 -0.2886 15.769h-0.031l0.289-15.77z" fill="#E96ABD"/>
<path d="m19.355 4.1179 0.031 6.5e-4 -0.2887 15.769h-0.031l0.2887-15.769z" fill="#EA6ABD"/>
<path d="m19.386 4.1184 0.031 6.4e-4 -0.2886 15.768h-0.031l0.2886-15.769z" fill="#EB69BD"/>
<path d="m19.418 4.1191 0.031 6.5e-4 -0.2887 15.768h-0.031l0.2887-15.768z" fill="#EC69BC"/>
<path d="m19.449 4.1199 0.031 3.3e-4 -0.289 15.767h-0.0306l0.2886-15.768z" fill="#ED69BC"/>
<path d="m19.48 4.1201 0.0307 6.4e-4 -0.2887 15.767h-0.031l0.289-15.767z" fill="#EE69BC"/>
<path d="m19.511 4.1208 0.031 6.5e-4 -0.2886 15.766h-0.031l0.2886-15.767z" fill="#EF69BC"/>
<path d="m19.543 4.1213 0.031 6.4e-4 -0.2887 15.765h-0.031l0.2887-15.766z" fill="#F069BB"/>
<path d="m19.574 4.1221 0.031 3.2e-4 -0.2886 15.765h-0.031l0.2886-15.765z" fill="#F168BB"/>
<path d="m19.605 4.1223 0.0307 6.5e-4 -0.2887 15.764h-0.0307l0.2887-15.765z" fill="#F268BB"/>
<path d="m19.636 4.123 0.031 6.4e-4 -0.2886 15.764h-0.031l0.2886-15.764z" fill="#F368BA"/>
<path d="m19.668 4.1235 0.031 6.4e-4 -0.2887 15.763h-0.031l0.2887-15.764z" fill="#F468BA"/>
<path d="m19.699 4.1243 0.031 3.2e-4 -0.2886 15.763h-0.031l0.2886-15.763z" fill="#F568BA"/>
<path d="m19.726 4.1245 0.0307 6.5e-4 -0.2884 15.762h-0.031l0.2887-15.763z" fill="#F668BA"/>
<path d="m19.757 4.1252 0.031 6.5e-4 -0.2887 15.761h-0.0306l0.2883-15.762z" fill="#F767B9"/>
<path d="m19.789 4.1257 0.031 6.5e-4 -0.2887 15.761h-0.031l0.2887-15.761z" fill="#F867B9"/>
<path d="m19.82 4.1265 0.031 3.3e-4 -0.2887 15.76h-0.031l0.2887-15.761z" fill="#F967B9"/>
<path d="m19.851 4.1267 0.0307 6.4e-4 -0.2884 15.76h-0.031l0.2887-15.76z" fill="#FA67B8"/>
<path d="m19.882 4.1274 0.0094 3.2e-4v1.1867l-0.2668 14.573h-0.0309l0.2883-15.76z" fill="#FB67B8"/>
<path d="m19.892 7.0039-0.236 12.883h-0.0307l0.2667-14.573v1.6894z" fill="#FC67B8"/>
<path d="m19.892 8.6934-0.2051 11.194h-0.031l0.2361-12.883v1.6894z" fill="#FD66B8"/>
<path d="m19.889 10.383-0.174 9.5044h-0.031l0.205-11.194v1.6894z" fill="#FE66B7"/>
<path d="m19.889 12.072-0.1431 7.8149h-0.031l0.1741-9.5044v1.6895z" fill="#FF66B7"/>
<path d="m19.746 19.887 0.143-7.8149v7.8149h-0.143z" fill="#FF66B7"/>
</g>
<path d="m19.396 11.469c-0.0514 0-0.1221 0-0.2119-0.0061h-0.0038c-0.1686-0.0062-0.4318-0.0184-0.7272-0.0452-0.5096-0.0446-1.2174-0.1376-1.6956-0.3281-0.7243-0.288-1.1289-0.6736-1.5977-1.1198l-0.0359-0.03262c-0.4805-0.46111-1.0249-0.98325-1.9668-1.425-0.7646-0.36069-1.6878-0.43399-2.7444-0.21829-0.3126 0.06426-0.63191 0.15468-0.949 0.26931-0.12013 0.04327-0.21151 0.07911-0.27674 0.10882-0.24831 0.10462-0.49501 0.22345-0.73332 0.3384-0.12399 0.05942-0.25219 0.12109-0.37812 0.17986l-0.28028 0.13013 0.29836 0.08137c0.00711 0.00194 0.72557 0.19762 1.075 0.30547l0.00581 0.00194c0.0042 9.7e-4 0.01615 0.0042 0.04585 0.0155 0.01518 0.00549 0.03229 0.01195 0.05167 0.01873 0.04585 0.01647 0.10301 0.03713 0.16759 0.06361 0.25735 0.10656 0.47435 0.21768 0.66322 0.33938 0.3585 0.2322 0.6061 0.4853 0.7375 0.7543-0.8124 0.1356-1.5596 0.5037-2.0536 0.7969-0.36036 0.2102-0.65776 0.4253-0.85183 0.57-0.0607 0.0471-0.1143 0.0894-0.16016 0.1256-0.0297 0.0232-0.05618 0.0442-0.07911 0.062l-0.0042 0.0032c-0.0452 0.0388-0.75527 0.6623-0.78563 0.6888l-0.19406 0.1705 0.25671 0.0268c0.00968 9e-4 0.95257 0.1007 1.4111 0.1953 0.21828 0.043 0.65872 0.1405 1.1563 0.3123 0.495 0.1734 0.9096 0.3752 1.2322 0.5996 0.3675 0.2557 0.6155 0.5415 0.7375 0.8496 0.3481 0.8883 0.0646 1.8234-0.7223 2.382-0.3823 0.2719-0.83924 0.416-1.321 0.4166h-0.00387c-0.54862 0-1.0924-0.1818-1.6165-0.5405l-0.05425-0.0372c-0.81986-0.6264-1.5002-1.4401-1.9704-2.3569-0.50535-0.9852-0.76142-2.0495-0.76142-3.1635 0-3.83 3.1144-6.9457 6.9425-6.9457 1.5813 0 3.2097 0.45918 4.5859 1.2926 1.4408 0.87281 2.458 2.0892 2.8642 3.4247l0.2163-0.06523c-0.4805-1.6158-1.4902-3.0692-2.8428-4.0922-1.3976-1.0572-3.0654-1.6158-4.8236-1.6158-2.1367 0-4.1455 0.83245-5.656 2.344-1.5106 1.5112-2.3424 3.5206-2.3424 5.6576 0 2.137 0.83245 4.1455 2.344 5.656 1.5112 1.5106 3.5206 2.3424 5.6576 2.3424 2.137 0 4.1455-0.8325 5.656-2.344 1.5106-1.5112 2.3424-3.5206 2.3424-5.6576v-0.5296h-0.6038zm-6.6839-1.9965c0.7979 0.37651 1.2381 0.80141 1.7021 1.25l0.0181 0.0174c0.4746 0.4563 1.0129 0.9729 1.938 1.341 0.3003 0.1201 0.6756 0.2173 1.1205 0.2913-0.1656 0.0242-0.3348 0.0365-0.5069 0.0365-0.6775 0-1.2713-0.2758-2.023-0.6248l-0.0146-0.0068c-0.0681-0.0326-0.1366-0.0653-0.2076-0.0972-0.7521-0.3494-1.6475-0.7272-2.7873-0.8089-0.1805-0.7372-0.7334-1.2474-1.2-1.5593 0.5603-0.10171 1.3172-0.14272 1.9607 0.16081zm-0.7107 9.475c-0.3752 0-0.7527-0.0303-1.1263-0.0907 0.1821-0.0846 0.3584-0.1863 0.5267-0.3048 1.1779-0.8364 1.6171-2.2953 1.0924-3.6301-0.1957-0.5015-0.5713-0.9491-1.116-1.3304-0.4101-0.2851-0.9106-0.5312-1.487-0.7311-0.2073-0.0717-0.42785-0.1395-0.64872-0.1989 0.02648-0.0165 0.05361-0.0326 0.08105-0.0487 0.54862-0.3213 1.3684-0.7046 2.158-0.7046 1.1415 0 1.9807 0.3448 2.809 0.7284 0.0375 0.0178 0.0759 0.0359 0.1143 0.0537 0.0375 0.0177 0.0749 0.0351 0.1127 0.0532l0.0142 0.0068c0.7517 0.351 1.5286 0.7143 2.4522 0.7143 0.6626 0 1.309-0.144 1.8838-0.4182-0.5076 3.3792-3.4225 5.9011-6.8663 5.9011z" fill="url(#a)"/>
<defs>
<linearGradient id="a" x1="4.0013" x2="19.999" y1="11.853" y2="12.147" gradientUnits="userSpaceOnUse">
<stop stop-color="#29CCB9" offset="0"/>
<stop stop-color="#0091FF" offset=".5"/>
<stop stop-color="#FF66B7" offset="1"/>
</linearGradient>
</defs>
</svg>
