<svg width="18" height="18" viewBox="0 0 18 18" fill="none" xmlns="http://www.w3.org/2000/svg">
<path d="M9 18C13.9875 18 18 13.9875 18 9C18 4.01247 13.9875 0 9 0C4.01247 0 0 4.01247 0 9C0 13.9875 4.01247 18 9 18Z" fill="#50AF95"/>
<path fill-rule="evenodd" clip-rule="evenodd" d="M10.2266 9.99926C10.1581 10.0045 9.80417 10.0258 9.01474 10.0258C8.38684 10.0258 7.94103 10.0068 7.78463 9.99926C5.35809 9.89131 3.5469 9.46414 3.5469 8.95269C3.5469 8.44124 5.35809 8.01465 7.78463 7.90497V9.57382C7.94332 9.58536 8.39768 9.61249 9.02558 9.61249C9.77906 9.61249 10.1564 9.58075 10.2243 9.5744V7.90613C12.6457 8.01523 14.4529 8.4424 14.4529 8.95269C14.4529 9.46299 12.6463 9.89015 10.2243 9.99868L10.2266 9.99926ZM10.2266 7.73353V6.24017H13.6058V3.96289H4.4054V6.24017H7.78406V7.73295C5.03787 7.86052 2.97266 8.41065 2.97266 9.06987C2.97266 9.7291 5.03787 10.2786 7.78406 10.4068V15.1923H10.226V10.4051C12.9659 10.2775 15.0277 9.72795 15.0277 9.0693C15.0277 8.41065 12.9676 7.8611 10.226 7.73295L10.2266 7.73353Z" fill="white"/>
</svg>
