<svg width="24" height="24" viewBox="0 0 24 24" fill="none" xmlns="http://www.w3.org/2000/svg">
<g id="Group 1261159144">
<g id="Group 1261159142">
<circle id="Ellipse 1434" cx="12" cy="12" r="11.75" fill="#F8F6D7" stroke="#F8F6D7" stroke-width="0.5"/>
</g>
<g id="Group">
<path id="Vector" d="M17.8811 6V11.192C15.9825 11.6813 13.9912 11.9405 11.9405 11.9405C9.88986 11.9405 7.89864 11.6803 6 11.192V6C7.89864 6.4883 9.88986 6.74854 11.9405 6.74854C13.9912 6.74854 15.9825 6.48928 17.8811 6Z" fill="#1E1E1E"/>
<path id="Vector_2" d="M6 18.0001V12.8081C7.89864 12.3188 9.88986 12.0596 11.9405 12.0596C13.9912 12.0596 15.9825 12.3198 17.8811 12.8081V18.0001C15.9825 17.5118 13.9912 17.2516 11.9405 17.2516C9.88986 17.2516 7.89864 17.5108 6 18.0001Z" fill="#1E1E1E"/>
</g>
</g>
</svg>
