<svg width="18" height="18" viewBox="0 0 18 18" fill="none" xmlns="http://www.w3.org/2000/svg">
<rect width="18" height="18" rx="9" fill="url(#paint0_linear_1346_7847)"/>
<path fill-rule="evenodd" clip-rule="evenodd" d="M6.55394 12.5586H4.90306C4.55617 12.5586 4.38481 12.5586 4.28033 12.4896C4.16748 12.414 4.09852 12.2888 4.09017 12.1507C4.08389 12.0234 4.16958 11.8679 4.34093 11.5571L8.41714 4.13648C8.59059 3.82136 8.67835 3.66381 8.78911 3.60553C8.90822 3.54295 9.05033 3.54295 9.16944 3.60553C9.2802 3.66381 9.36797 3.82136 9.54141 4.13648L10.3794 5.64728L10.3837 5.65499C10.571 5.99304 10.666 6.16448 10.7075 6.3444C10.7534 6.54081 10.7534 6.748 10.7075 6.94441C10.6657 7.1257 10.5716 7.29837 10.3815 7.64154L8.24034 11.5507L8.2348 11.5607C8.04623 11.9015 7.95067 12.0743 7.81822 12.2046C7.67403 12.3471 7.50058 12.4506 7.31042 12.509C7.13697 12.5586 6.94263 12.5586 6.55394 12.5586ZM10.7229 12.5586H13.0884C13.4374 12.5586 13.613 12.5586 13.7175 12.4875C13.8304 12.4119 13.9014 12.2845 13.9077 12.1465C13.9137 12.0233 13.8299 11.8739 13.6657 11.5811C13.66 11.5712 13.6543 11.561 13.6486 11.5507L12.4637 9.45718L12.4502 9.4336C12.2837 9.1428 12.1996 8.99595 12.0917 8.93919C11.9726 8.87659 11.8325 8.87659 11.7135 8.93919C11.6048 8.99746 11.517 9.1507 11.3436 9.45933L10.1629 11.5529L10.1588 11.5601C9.98601 11.8682 9.89963 12.0222 9.90586 12.1486C9.91422 12.2867 9.98318 12.414 10.096 12.4896C10.1984 12.5586 10.374 12.5586 10.7229 12.5586Z" fill="white"/>
<defs>
<linearGradient id="paint0_linear_1346_7847" x1="18" y1="18" x2="0" y2="0" gradientUnits="userSpaceOnUse">
<stop stop-color="#D91D1E"/>
<stop offset="1" stop-color="#FF7576"/>
</linearGradient>
</defs>
</svg>
