<svg width="10" height="10" viewBox="0 0 8 8" fill="none" xmlns="http://www.w3.org/2000/svg">
<path d="M2.64246 5.00006H5.35488C5.55682 5.00006 5.65779 5.00006 5.70455 4.96012C5.74511 4.92548 5.76664 4.8735 5.76246 4.82031C5.75763 4.75902 5.68624 4.68762 5.54345 4.54483L4.18724 3.18862C4.12123 3.12262 4.08823 3.08961 4.05018 3.07725C4.0167 3.06637 3.98064 3.06637 3.94717 3.07725C3.90912 3.08961 3.87611 3.12262 3.81011 3.18862L2.4539 4.54483C2.31111 4.68762 2.23971 4.75902 2.23489 4.82031C2.2307 4.8735 2.25223 4.92548 2.2928 4.96012C2.33956 5.00006 2.44053 5.00006 2.64246 5.00006Z" fill="#F7F7FC" stroke="#F7F7FC" stroke-linecap="round" stroke-linejoin="round"/>
</svg>
