<svg width="10" height="10" viewBox="0 0 8 8" fill="none" xmlns="http://www.w3.org/2000/svg">
<path d="M5.35754 2.99994L2.64512 2.99994C2.44318 2.99994 2.34221 2.99994 2.29545 3.03988C2.25489 3.07452 2.23336 3.1265 2.23754 3.17969C2.24237 3.24098 2.31376 3.31238 2.45655 3.45517L3.81276 4.81138C3.87877 4.87738 3.91177 4.91039 3.94982 4.92275C3.9833 4.93363 4.01936 4.93363 4.05283 4.92275C4.09088 4.91039 4.12389 4.87738 4.18989 4.81138L5.5461 3.45517C5.68889 3.31238 5.76029 3.24098 5.76511 3.17969C5.7693 3.1265 5.74777 3.07452 5.7072 3.03988C5.66044 2.99994 5.55947 2.99994 5.35754 2.99994Z" fill="#F7F7FC" stroke="#F7F7FC" stroke-linecap="round" stroke-linejoin="round"/>
</svg>
