<svg width="24" height="24" viewBox="0 0 24 24" fill="none" xmlns="http://www.w3.org/2000/svg">
<mask id="mask0_14_792" style="mask-type:alpha" maskUnits="userSpaceOnUse" x="0" y="0" width="24" height="24">
<rect width="24" height="24" fill="#D9D9D9"/>
</mask>
<g mask="url(#mask0_14_792)">
<path d="M16.5248 2.88174C17.8862 2.88174 19.2408 2.88848 20.6022 2.875C20.9122 2.875 21.0066 2.97609 20.9998 3.27936C20.9863 4.8766 20.9863 6.46711 20.9998 8.06435C20.9998 8.36088 20.892 8.48893 20.6089 8.44175C19.7732 8.30696 19.1802 8.59676 18.6882 9.31114C18.2164 9.99856 17.4751 10.3692 16.6529 10.531C15.6015 10.7466 14.7726 11.279 14.1526 12.1619C13.7213 12.7752 13.2562 13.375 12.8114 13.9748C12.5823 14.2848 12.5284 14.2848 12.2386 14.022C11.4096 13.2537 11.2681 11.9597 11.9218 11.0095C12.434 10.2681 12.953 9.54028 13.4854 8.81242C13.6202 8.63046 13.6808 8.44175 13.6741 8.21935C13.6673 7.7139 13.6606 7.20844 13.6808 6.70298C13.6876 6.44015 13.6134 6.29188 13.3573 6.19079C12.9058 6.01557 12.461 5.82012 12.0364 5.60446C11.7264 5.44945 11.4299 5.42924 11.0996 5.49663C10.1628 5.68533 9.22606 5.85382 8.28929 6.02904C8.10732 6.06274 7.95232 6.13687 7.81753 6.26492C7.4199 6.62885 7.02228 6.99278 6.61791 7.34323C5.84288 8.00369 4.6837 7.96999 3.94237 7.28931C3.74018 7.10061 3.69301 6.96582 3.92215 6.75016C4.84545 5.86056 5.74853 4.95748 6.65835 4.0544C6.77966 3.93309 6.91445 3.85221 7.08967 3.82526C8.80148 3.52198 10.5133 3.21197 12.2251 2.9087C12.3801 2.88174 12.5351 2.88848 12.6969 2.88848C13.9639 2.88174 15.2444 2.88174 16.5248 2.88174Z" fill="url(#paint0_linear_14_792)"/>
<path d="M6.79337 10.1403C6.234 10.12 5.74202 9.9246 5.33092 9.50676C5.20287 9.37871 5.19613 9.27088 5.32418 9.13609C5.5331 8.91369 5.72854 8.71824 6.05877 8.65759C6.69902 8.53628 7.20447 8.13865 7.6358 7.68037C8.13451 7.14796 8.70062 6.81773 9.44196 6.76381C9.80589 6.73686 10.1833 6.6762 10.5337 6.55489C11.2549 6.30553 11.8884 6.50098 12.5219 6.84469C12.7712 6.97948 12.7577 7.16818 12.7577 7.3771C12.7577 7.60624 12.6027 7.64668 12.4275 7.68711C11.6255 7.8556 10.8235 8.03082 10.0215 8.18583C9.72501 8.23975 9.48239 8.36106 9.26673 8.58346C8.9365 8.92043 8.58605 9.23718 8.24234 9.56067C7.83798 9.93134 7.35948 10.1335 6.79337 10.1403Z" fill="url(#paint1_linear_14_792)"/>
<rect x="5.34668" y="11.8477" width="1.82403" height="1.82403" rx="0.912016" fill="url(#paint2_linear_14_792)"/>
<path d="M6.27191 12.2129L6.26465 12.2369V12.9348L6.27191 12.9418L6.604 12.7503L6.27191 12.2129Z" fill="#C1CCF8"/>
<path d="M6.27155 12.2129L5.93945 12.7503L6.27155 12.9418V12.6031V12.2129Z" fill="white"/>
<path d="M6.27167 13.0029L6.26758 13.0078V13.2563L6.27167 13.268L6.60396 12.8115L6.27167 13.0029Z" fill="#C1CCF8"/>
<path d="M6.27155 13.268V13.0029L5.93945 12.8115L6.27155 13.268Z" fill="white"/>
<path d="M6.27148 12.9422L6.60357 12.7507L6.27148 12.6035V12.9422Z" fill="#8197EE"/>
<path d="M5.93945 12.7507L6.27155 12.9422V12.6035L5.93945 12.7507Z" fill="#C1CCF8"/>
<rect x="7.61426" y="15.6924" width="1.08456" height="1.08456" rx="0.54228" fill="url(#paint3_linear_14_792)"/>
<path d="M8.16447 15.9092L8.16016 15.9235V16.3384L8.16447 16.3426L8.36193 16.2287L8.16447 15.9092Z" fill="#C1CCF8"/>
<path d="M8.16426 15.9092L7.9668 16.2287L8.16426 16.3426V16.1412V15.9092Z" fill="white"/>
<path d="M8.16454 16.3794L8.16211 16.3823V16.5301L8.16454 16.537L8.36212 16.2656L8.16454 16.3794Z" fill="#C1CCF8"/>
<path d="M8.16426 16.537V16.3794L7.9668 16.2656L8.16426 16.537Z" fill="white"/>
<path d="M8.16406 16.343L8.36152 16.2291L8.16406 16.1416V16.343Z" fill="#8197EE"/>
<path d="M7.9668 16.2291L8.16426 16.343V16.1416L7.9668 16.2291Z" fill="#C1CCF8"/>
<rect x="6.03711" y="18.0586" width="1.08456" height="1.08456" rx="0.54228" fill="url(#paint4_linear_14_792)"/>
<path d="M6.58732 18.2754L6.58301 18.2897V18.7046L6.58732 18.7088L6.78478 18.595L6.58732 18.2754Z" fill="#C1CCF8"/>
<path d="M6.58711 18.2754L6.38965 18.595L6.58711 18.7088V18.5074V18.2754Z" fill="white"/>
<path d="M6.58739 18.7456L6.58496 18.7485V18.8963L6.58739 18.9032L6.78497 18.6318L6.58739 18.7456Z" fill="#C1CCF8"/>
<path d="M6.58711 18.9032V18.7456L6.38965 18.6318L6.58711 18.9032Z" fill="white"/>
<path d="M6.58691 18.7092L6.78437 18.5954L6.58691 18.5078V18.7092Z" fill="#8197EE"/>
<path d="M6.38965 18.5954L6.58711 18.7092V18.5078L6.38965 18.5954Z" fill="#C1CCF8"/>
<rect x="11.7559" y="18.4531" width="1.08456" height="1.08456" rx="0.54228" fill="url(#paint5_linear_14_792)"/>
<path d="M12.3061 18.6699L12.3018 18.6842V19.0991L12.3061 19.1033L12.5035 18.9895L12.3061 18.6699Z" fill="#C1CCF8"/>
<path d="M12.3059 18.6699L12.1084 18.9895L12.3059 19.1033V18.9019V18.6699Z" fill="white"/>
<path d="M12.3061 19.1402L12.3037 19.143V19.2908L12.3061 19.2978L12.5037 19.0264L12.3061 19.1402Z" fill="#C1CCF8"/>
<path d="M12.3059 19.2978V19.1402L12.1084 19.0264L12.3059 19.2978Z" fill="white"/>
<path d="M12.3057 19.1037L12.5031 18.9899L12.3057 18.9023V19.1037Z" fill="#8197EE"/>
<path d="M12.1084 18.9899L12.3059 19.1037V18.9023L12.1084 18.9899Z" fill="#C1CCF8"/>
<rect x="4.36133" y="16.1855" width="1.82403" height="1.82403" rx="0.912016" fill="url(#paint6_linear_14_792)"/>
<path d="M5.28656 16.5508L5.2793 16.5748V17.2726L5.28656 17.2797L5.61864 17.0882L5.28656 16.5508Z" fill="#C1CCF8"/>
<path d="M5.2862 16.5508L4.9541 17.0882L5.2862 17.2797V16.941V16.5508Z" fill="white"/>
<path d="M5.28632 17.3408L5.28223 17.3456V17.5942L5.28632 17.6059L5.61861 17.1494L5.28632 17.3408Z" fill="#C1CCF8"/>
<path d="M5.2862 17.6059V17.3408L4.9541 17.1494L5.2862 17.6059Z" fill="white"/>
<path d="M5.28613 17.2801L5.61822 17.0886L5.28613 16.9414V17.2801Z" fill="#8197EE"/>
<path d="M4.9541 17.0886L5.2862 17.2801V16.9414L4.9541 17.0886Z" fill="#C1CCF8"/>
<rect x="7.71289" y="12.4385" width="0.985963" height="0.985963" rx="0.492982" fill="url(#paint7_linear_14_792)"/>
<path d="M8.21291 12.6357L8.20898 12.6487V13.0259L8.21291 13.0298L8.39242 12.9263L8.21291 12.6357Z" fill="#C1CCF8"/>
<path d="M8.21272 12.6357L8.0332 12.9263L8.21272 13.0298V12.8467V12.6357Z" fill="white"/>
<path d="M8.21315 13.0634L8.21094 13.066V13.2004L8.21315 13.2067L8.39277 12.96L8.21315 13.0634Z" fill="#C1CCF8"/>
<path d="M8.21272 13.2067V13.0634L8.0332 12.96L8.21272 13.2067Z" fill="white"/>
<path d="M8.21289 13.0298L8.3924 12.9263L8.21289 12.8467V13.0298Z" fill="#8197EE"/>
<path d="M8.0332 12.9263L8.21272 13.0298V12.8467L8.0332 12.9263Z" fill="#C1CCF8"/>
<rect x="8.00879" y="18.1572" width="0.985963" height="0.985963" rx="0.492982" fill="url(#paint8_linear_14_792)"/>
<path d="M8.50881 18.3545L8.50488 18.3675V18.7447L8.50881 18.7485L8.68831 18.645L8.50881 18.3545Z" fill="#C1CCF8"/>
<path d="M8.50861 18.3545L8.3291 18.645L8.50861 18.7485V18.5654V18.3545Z" fill="white"/>
<path d="M8.50905 18.7812L8.50684 18.7838V18.9182L8.50905 18.9245L8.68866 18.6777L8.50905 18.7812Z" fill="#C1CCF8"/>
<path d="M8.50861 18.9245V18.7812L8.3291 18.6777L8.50861 18.9245Z" fill="white"/>
<path d="M8.50879 18.7485L8.6883 18.645L8.50879 18.5654V18.7485Z" fill="#8197EE"/>
<path d="M8.3291 18.645L8.50861 18.7485V18.5654L8.3291 18.645Z" fill="#C1CCF8"/>
<rect x="6.03711" y="20.4248" width="3.05649" height="3.05649" rx="1.52824" fill="url(#paint9_linear_14_792)"/>
<path d="M7.58736 21.0361L7.5752 21.0764V22.2457L7.58736 22.2576L8.14383 21.9367L7.58736 21.0361Z" fill="#C1CCF8"/>
<path d="M7.58676 21.0361L7.03027 21.9367L7.58676 22.2576V21.69V21.0361Z" fill="white"/>
<path d="M7.58693 22.3607L7.58008 22.3689V22.7854L7.58693 22.8049L8.14375 22.04L7.58693 22.3607Z" fill="#C1CCF8"/>
<path d="M7.58676 22.8049V22.3607L7.03027 22.04L7.58676 22.8049Z" fill="white"/>
<path d="M7.58691 22.258L8.14339 21.9371L7.58691 21.6904V22.258Z" fill="#8197EE"/>
<path d="M7.03027 21.9371L7.58676 22.258V21.6904L7.03027 21.9371Z" fill="#C1CCF8"/>
<rect x="6.03711" y="13.8193" width="1.97193" height="1.97193" rx="0.985963" fill="url(#paint10_linear_14_792)"/>
<path d="M6.54951 14.8207L6.55028 15.1043L6.79123 15.2461V15.4121L6.40927 15.188V14.7378L6.54951 14.8207ZM6.54951 14.5371V14.7024L6.40918 14.6194V14.4541L6.54951 14.3711L6.69052 14.4541L6.54951 14.5371ZM6.89186 14.4541L7.03219 14.3711L7.1732 14.4541L7.03219 14.5371L6.89186 14.4541Z" fill="white"/>
<path d="M6.65137 15.0455V14.8795L6.79169 14.9625V15.1277L6.65137 15.0455ZM6.89232 15.3055L7.03265 15.3885L7.17366 15.3055V15.4708L7.03265 15.5538L6.89232 15.4708V15.3055ZM7.37491 14.4541L7.51524 14.3711L7.65626 14.4541V14.6194L7.51524 14.7024V14.5371L7.37491 14.4541ZM7.51524 15.1043L7.51601 14.8207L7.65634 14.7377V15.188L7.27437 15.412V15.246L7.51524 15.1043Z" fill="white"/>
<path d="M7.41474 15.0459L7.27441 15.1281V14.9629L7.41474 14.8799V15.0459Z" fill="white"/>
<path d="M7.41461 14.5962L7.41539 14.7622L7.17375 14.904V15.1882L7.03342 15.2705L6.89309 15.1882V14.904L6.65145 14.7622V14.5962L6.79238 14.5132L7.03256 14.6556L7.2742 14.5132L7.41522 14.5962H7.41461ZM6.65137 14.3127L7.03265 14.0879L7.41461 14.3127L7.27429 14.3957L7.03265 14.2532L6.79169 14.3957L6.65137 14.3127Z" fill="white"/>
<rect x="7.12207" y="11.0586" width="0.887367" height="0.887367" rx="0.443684" fill="url(#paint11_linear_14_792)"/>
<path d="M7.35319 11.5099L7.35353 11.6375L7.46196 11.7013V11.7761L7.29008 11.6752V11.4726L7.35319 11.5099ZM7.35319 11.3823V11.4567L7.29004 11.4193V11.345L7.35319 11.3076L7.41664 11.345L7.35319 11.3823ZM7.50724 11.345L7.57039 11.3076L7.63385 11.345L7.57039 11.3823L7.50724 11.345Z" fill="white"/>
<path d="M7.39844 11.6111V11.5364L7.46158 11.5737V11.6481L7.39844 11.6111ZM7.50687 11.7281L7.57001 11.7655L7.63347 11.7281V11.8025L7.57001 11.8398L7.50687 11.8025V11.7281ZM7.72403 11.345L7.78718 11.3076L7.85064 11.345V11.4193L7.78718 11.4567V11.3823L7.72403 11.345ZM7.78718 11.6375L7.78753 11.5099L7.85068 11.4726V11.6752L7.67879 11.776V11.7013L7.78718 11.6375Z" fill="white"/>
<path d="M7.74283 11.6108L7.67969 11.6478V11.5735L7.74283 11.5361V11.6108Z" fill="white"/>
<path d="M7.7419 11.4084L7.74225 11.4831L7.63351 11.5469V11.6748L7.57036 11.7119L7.50721 11.6748V11.5469L7.39848 11.4831V11.4084L7.46189 11.3711L7.56997 11.4352L7.67871 11.3711L7.74217 11.4084H7.7419ZM7.39844 11.2808L7.57001 11.1797L7.7419 11.2808L7.67875 11.3182L7.57001 11.2541L7.46158 11.3182L7.39844 11.2808Z" fill="white"/>
<rect x="7.91016" y="19.4395" width="0.887367" height="0.887367" rx="0.443684" fill="url(#paint12_linear_14_792)"/>
<path d="M8.14127 19.8908L8.14162 20.0184L8.25005 20.0822V20.1569L8.07816 20.0561V19.8535L8.14127 19.8908ZM8.14127 19.7632V19.8375L8.07812 19.8002V19.7258L8.14127 19.6885L8.20473 19.7258L8.14127 19.7632ZM8.29533 19.7258L8.35848 19.6885L8.42193 19.7258L8.35848 19.7632L8.29533 19.7258Z" fill="white"/>
<path d="M8.18652 19.992V19.9172L8.24967 19.9546V20.029L8.18652 19.992ZM8.29495 20.109L8.3581 20.1463L8.42156 20.109V20.1833L8.3581 20.2207L8.29495 20.1833V20.109ZM8.51212 19.7258L8.57527 19.6885L8.63872 19.7258V19.8002L8.57527 19.8375V19.7632L8.51212 19.7258ZM8.57527 20.0184L8.57561 19.8908L8.63876 19.8534V20.0561L8.46688 20.1569V20.0822L8.57527 20.0184Z" fill="white"/>
<path d="M8.53092 19.9917L8.46777 20.0287V19.9543L8.53092 19.917V19.9917Z" fill="white"/>
<path d="M8.52998 19.7893L8.53033 19.864L8.42159 19.9278V20.0557L8.35845 20.0927L8.2953 20.0557V19.9278L8.18656 19.864V19.7893L8.24998 19.7519L8.35806 19.816L8.4668 19.7519L8.53026 19.7893H8.52998ZM8.18652 19.6617L8.3581 19.5605L8.52998 19.6617L8.46684 19.6991L8.3581 19.6349L8.24967 19.6991L8.18652 19.6617Z" fill="white"/>
<rect x="6.33301" y="16.3828" width="0.887367" height="0.887367" rx="0.443684" fill="url(#paint13_linear_14_792)"/>
<path d="M6.56315 16.8342L6.5635 16.9618L6.67192 17.0256V17.1003L6.50004 16.9995V16.7968L6.56315 16.8342ZM6.56315 16.7065V16.7809L6.5 16.7436V16.6692L6.56315 16.6318L6.6266 16.6692L6.56315 16.7065ZM6.71721 16.6692L6.78035 16.6318L6.84381 16.6692L6.78035 16.7065L6.71721 16.6692Z" fill="white"/>
<path d="M6.6084 16.9353V16.8606L6.67155 16.898V16.9723L6.6084 16.9353ZM6.71683 17.0523L6.77997 17.0897L6.84343 17.0523V17.1267L6.77997 17.164L6.71683 17.1267V17.0523ZM6.93399 16.6692L6.99714 16.6318L7.0606 16.6692V16.7436L6.99714 16.7809V16.7065L6.93399 16.6692ZM6.99714 16.9618L6.99749 16.8342L7.06064 16.7968V16.9994L6.88875 17.1002V17.0255L6.99714 16.9618Z" fill="white"/>
<path d="M6.95182 16.9351L6.88867 16.9721V16.8977L6.95182 16.8604V16.9351Z" fill="white"/>
<path d="M6.95186 16.7326L6.95221 16.8073L6.84347 16.8711V16.9991L6.78032 17.0361L6.71718 16.9991V16.8711L6.60844 16.8073V16.7326L6.67185 16.6953L6.77994 16.7594L6.88867 16.6953L6.95213 16.7326H6.95186ZM6.6084 16.6051L6.77997 16.5039L6.95186 16.6051L6.88871 16.6424L6.77997 16.5783L6.67155 16.6424L6.6084 16.6051Z" fill="white"/>
<rect x="9.48828" y="15.9395" width="2.6621" height="2.6621" rx="1.33105" fill="url(#paint14_linear_14_792)"/>
<path d="M10.1797 17.2925L10.1807 17.6753L10.506 17.8667V18.0909L9.99035 17.7884V17.1806L10.1797 17.2925ZM10.1797 16.9097V17.1328L9.99023 17.0207V16.7976L10.1797 16.6855L10.37 16.7976L10.1797 16.9097ZM10.6419 16.7976L10.8313 16.6855L11.0217 16.7976L10.8313 16.9097L10.6419 16.7976Z" fill="white"/>
<path d="M10.3164 17.596V17.3719L10.5058 17.4839V17.707L10.3164 17.596ZM10.6417 17.947L10.8311 18.0591L11.0215 17.947V18.1701L10.8311 18.2822L10.6417 18.1701V17.947ZM11.2932 16.7976L11.4826 16.6855L11.673 16.7976V17.0207L11.4826 17.1328V16.9097L11.2932 16.7976ZM11.4826 17.6753L11.4837 17.2925L11.6731 17.1804V17.7883L11.1575 18.0908V17.8666L11.4826 17.6753Z" fill="white"/>
<path d="M11.3476 17.5962L11.1582 17.7072V17.4841L11.3476 17.3721V17.5962Z" fill="white"/>
<path d="M11.3468 16.9889L11.3478 17.213L11.0216 17.4045V17.7882L10.8322 17.8992L10.6427 17.7882V17.4045L10.3165 17.213V16.9889L10.5068 16.8769L10.831 17.0692L11.1572 16.8769L11.3476 16.9889H11.3468ZM10.3164 16.6062L10.8311 16.3027L11.3468 16.6062L11.1573 16.7183L10.8311 16.5259L10.5058 16.7183L10.3164 16.6062Z" fill="white"/>
<rect x="3.375" y="18.4531" width="2.6621" height="2.6621" rx="1.33105" fill="url(#paint15_linear_14_792)"/>
<path d="M4.06639 19.8062L4.06744 20.189L4.39273 20.3804V20.6045L3.87707 20.3021V19.6942L4.06639 19.8062ZM4.06639 19.4233V19.6464L3.87695 19.5344V19.3113L4.06639 19.1992L4.25676 19.3113L4.06639 19.4233ZM4.52857 19.3113L4.71801 19.1992L4.90838 19.3113L4.71801 19.4233L4.52857 19.3113Z" fill="white"/>
<path d="M4.20312 20.1097V19.8855L4.39257 19.9976V20.2207L4.20312 20.1097ZM4.52841 20.4607L4.71785 20.5728L4.90822 20.4607V20.6838L4.71785 20.7958L4.52841 20.6838V20.4607ZM5.17991 19.3113L5.36935 19.1992L5.55972 19.3113V19.5344L5.36935 19.6464V19.4233L5.17991 19.3113ZM5.36935 20.189L5.3704 19.8062L5.55984 19.6941V20.302L5.04418 20.6044V20.3803L5.36935 20.189Z" fill="white"/>
<path d="M5.23436 20.1099L5.04492 20.2209V19.9978L5.23436 19.8857V20.1099Z" fill="white"/>
<path d="M5.23351 19.5026L5.23455 19.7267L4.90834 19.9181V20.3019L4.7189 20.4129L4.52946 20.3019V19.9181L4.20324 19.7267V19.5026L4.39349 19.3905L4.71774 19.5829L5.04395 19.3905L5.23432 19.5026H5.23351ZM4.20312 19.1199L4.71785 18.8164L5.23351 19.1199L5.04407 19.2319L4.71785 19.0396L4.39257 19.2319L4.20312 19.1199Z" fill="white"/>
<rect x="3.6709" y="13.7207" width="2.07052" height="2.07052" rx="1.03526" fill="url(#paint16_linear_14_792)"/>
<path fill-rule="evenodd" clip-rule="evenodd" d="M4.42504 15.1651H4.23515C4.19524 15.1651 4.17553 15.1651 4.16351 15.1572C4.15053 15.1485 4.1426 15.1341 4.14164 15.1182C4.14092 15.1036 4.15077 15.0857 4.17048 15.0499L4.63937 14.1964C4.65932 14.1601 4.66941 14.142 4.68215 14.1353C4.69586 14.1281 4.7122 14.1281 4.7259 14.1353C4.73864 14.142 4.74874 14.1601 4.76869 14.1964L4.86508 14.3701L4.86557 14.371C4.88712 14.4099 4.89805 14.4296 4.90282 14.4503C4.90811 14.4729 4.90811 14.4968 4.90282 14.5194C4.89801 14.5402 4.8872 14.5601 4.86532 14.5995L4.61903 15.0492L4.61839 15.0504C4.5967 15.0896 4.58571 15.1094 4.57047 15.1244C4.55389 15.1408 4.53394 15.1527 4.51206 15.1594C4.49211 15.1651 4.46975 15.1651 4.42504 15.1651ZM4.9046 15.1651H5.1767C5.21685 15.1651 5.23704 15.1651 5.24907 15.157C5.26204 15.1483 5.27021 15.1336 5.27094 15.1177C5.27163 15.1036 5.26199 15.0864 5.2431 15.0527C5.24245 15.0516 5.2418 15.0504 5.24113 15.0492L5.10483 14.8084L5.10328 14.8057C5.08413 14.7722 5.07446 14.7553 5.06205 14.7488C5.04835 14.7416 5.03223 14.7416 5.01854 14.7488C5.00604 14.7555 4.99594 14.7731 4.97599 14.8086L4.84018 15.0495L4.83971 15.0503C4.81983 15.0857 4.8099 15.1034 4.81061 15.118C4.81157 15.1339 4.81951 15.1485 4.83249 15.1572C4.84427 15.1651 4.86446 15.1651 4.9046 15.1651Z" fill="white"/>
<rect x="9.38965" y="11.9463" width="0.887367" height="0.887367" rx="0.443684" fill="url(#paint17_linear_14_792)"/>
<path fill-rule="evenodd" clip-rule="evenodd" d="M9.7123 12.5658H9.63091C9.61381 12.5658 9.60536 12.5658 9.60021 12.5624C9.59465 12.5586 9.59125 12.5525 9.59084 12.5456C9.59053 12.5394 9.59475 12.5317 9.6032 12.5164L9.80415 12.1506C9.8127 12.135 9.81703 12.1273 9.82249 12.1244C9.82836 12.1213 9.83536 12.1213 9.84124 12.1244C9.8467 12.1273 9.85102 12.135 9.85957 12.1506L9.90088 12.225L9.90109 12.2254C9.91033 12.2421 9.91501 12.2505 9.91706 12.2594C9.91932 12.2691 9.91932 12.2793 9.91706 12.289C9.915 12.2979 9.91036 12.3064 9.90099 12.3234L9.79543 12.5161L9.79516 12.5166C9.78586 12.5334 9.78115 12.5419 9.77462 12.5483C9.76751 12.5553 9.75896 12.5604 9.74959 12.5633C9.74104 12.5658 9.73146 12.5658 9.7123 12.5658ZM9.91782 12.5658H10.0344C10.0516 12.5658 10.0603 12.5658 10.0654 12.5622C10.071 12.5585 10.0745 12.5522 10.0748 12.5454C10.0751 12.5394 10.071 12.532 10.0629 12.5176C10.0626 12.5171 10.0623 12.5166 10.062 12.5161L10.0036 12.4129L10.003 12.4117C9.99476 12.3974 9.99062 12.3901 9.9853 12.3873C9.97943 12.3842 9.97252 12.3842 9.96665 12.3873C9.96129 12.3902 9.95697 12.3978 9.94842 12.413L9.89021 12.5162L9.89001 12.5165C9.88149 12.5317 9.87723 12.5393 9.87754 12.5455C9.87795 12.5524 9.88135 12.5586 9.88691 12.5624C9.89196 12.5658 9.90062 12.5658 9.91782 12.5658Z" fill="white"/>
<rect x="8.30469" y="16.9746" width="0.887367" height="0.887367" rx="0.443684" fill="url(#paint18_linear_14_792)"/>
<path fill-rule="evenodd" clip-rule="evenodd" d="M8.62831 17.5941H8.54693C8.52982 17.5941 8.52138 17.5941 8.51623 17.5907C8.51066 17.5869 8.50726 17.5808 8.50685 17.574C8.50654 17.5677 8.51077 17.56 8.51921 17.5447L8.72016 17.1789C8.72871 17.1633 8.73304 17.1556 8.7385 17.1527C8.74437 17.1496 8.75138 17.1496 8.75725 17.1527C8.76271 17.1556 8.76704 17.1633 8.77559 17.1789L8.8169 17.2534L8.81711 17.2537C8.82635 17.2704 8.83103 17.2789 8.83307 17.2877C8.83534 17.2974 8.83534 17.3076 8.83307 17.3173C8.83101 17.3262 8.82638 17.3348 8.817 17.3517L8.71145 17.5444L8.71117 17.5449C8.70188 17.5617 8.69717 17.5702 8.69064 17.5766C8.68353 17.5836 8.67498 17.5888 8.6656 17.5916C8.65705 17.5941 8.64747 17.5941 8.62831 17.5941ZM8.83384 17.5941H8.95045C8.96765 17.5941 8.97631 17.5941 8.98146 17.5906C8.98703 17.5868 8.99053 17.5806 8.99084 17.5738C8.99114 17.5677 8.987 17.5603 8.97891 17.5459C8.97863 17.5454 8.97835 17.5449 8.97806 17.5444L8.91965 17.4412L8.91899 17.44C8.91078 17.4257 8.90663 17.4184 8.90131 17.4156C8.89544 17.4126 8.88854 17.4126 8.88267 17.4156C8.87731 17.4185 8.87298 17.4261 8.86443 17.4413L8.80623 17.5445L8.80603 17.5448C8.79751 17.56 8.79325 17.5676 8.79355 17.5739C8.79397 17.5807 8.79737 17.5869 8.80293 17.5907C8.80798 17.5941 8.81663 17.5941 8.83384 17.5941Z" fill="white"/>
<rect x="7.02344" y="17.3691" width="0.887367" height="0.887367" rx="0.443684" fill="url(#paint19_linear_14_792)"/>
<path fill-rule="evenodd" clip-rule="evenodd" d="M7.34706 17.9886H7.26568C7.24857 17.9886 7.24013 17.9886 7.23498 17.9852C7.22941 17.9815 7.22601 17.9753 7.2256 17.9685C7.22529 17.9622 7.22952 17.9546 7.23796 17.9392L7.43891 17.5734C7.44746 17.5579 7.45179 17.5501 7.45725 17.5472C7.46312 17.5442 7.47013 17.5442 7.476 17.5472C7.48146 17.5501 7.48579 17.5579 7.49434 17.5734L7.53565 17.6479L7.53586 17.6483C7.5451 17.6649 7.54978 17.6734 7.55182 17.6823C7.55409 17.6919 7.55409 17.7022 7.55182 17.7118C7.54976 17.7208 7.54513 17.7293 7.53575 17.7462L7.4302 17.9389L7.42992 17.9394C7.42063 17.9562 7.41592 17.9647 7.40939 17.9712C7.40228 17.9782 7.39373 17.9833 7.38435 17.9862C7.3758 17.9886 7.36622 17.9886 7.34706 17.9886ZM7.55259 17.9886H7.6692C7.6864 17.9886 7.69506 17.9886 7.70021 17.9851C7.70578 17.9814 7.70928 17.9751 7.70959 17.9683C7.70989 17.9622 7.70575 17.9549 7.69766 17.9404C7.69738 17.9399 7.6971 17.9394 7.69681 17.9389L7.6384 17.8357L7.63774 17.8345C7.62953 17.8202 7.62538 17.813 7.62006 17.8102C7.61419 17.8071 7.60729 17.8071 7.60142 17.8102C7.59606 17.813 7.59173 17.8206 7.58318 17.8358L7.52498 17.939L7.52478 17.9394C7.51626 17.9546 7.512 17.9622 7.5123 17.9684C7.51272 17.9752 7.51612 17.9815 7.52168 17.9852C7.52673 17.9886 7.53538 17.9886 7.55259 17.9886Z" fill="white"/>
<rect x="6.43164" y="19.4395" width="0.887367" height="0.887367" rx="0.443684" fill="url(#paint20_linear_14_792)"/>
<path fill-rule="evenodd" clip-rule="evenodd" d="M6.75429 20.0589H6.6729C6.6558 20.0589 6.64735 20.0589 6.6422 20.0555C6.63664 20.0518 6.63324 20.0456 6.63283 20.0388C6.63252 20.0325 6.63674 20.0249 6.64519 20.0095L6.84614 19.6437C6.85469 19.6282 6.85902 19.6204 6.86448 19.6175C6.87035 19.6145 6.87736 19.6145 6.88323 19.6175C6.88869 19.6204 6.89301 19.6282 6.90156 19.6437L6.94288 19.7182L6.94309 19.7186C6.95232 19.7352 6.957 19.7437 6.95905 19.7526C6.96132 19.7623 6.96132 19.7725 6.95905 19.7821C6.95699 19.7911 6.95235 19.7996 6.94298 19.8165L6.83742 20.0092L6.83715 20.0097C6.82786 20.0265 6.82314 20.035 6.81661 20.0415C6.80951 20.0485 6.80096 20.0536 6.79158 20.0565C6.78303 20.0589 6.77345 20.0589 6.75429 20.0589ZM6.95981 20.0589H7.07643C7.09363 20.0589 7.10229 20.0589 7.10744 20.0554C7.113 20.0517 7.1165 20.0454 7.11682 20.0386C7.11711 20.0325 7.11298 20.0252 7.10488 20.0107C7.1046 20.0102 7.10432 20.0097 7.10404 20.0092L7.04563 19.906L7.04496 19.9049C7.03675 19.8905 7.03261 19.8833 7.02729 19.8805C7.02142 19.8774 7.01451 19.8774 7.00864 19.8805C7.00329 19.8834 6.99896 19.8909 6.99041 19.9061L6.9322 20.0093L6.932 20.0097C6.92348 20.0249 6.91922 20.0325 6.91953 20.0387C6.91994 20.0455 6.92334 20.0518 6.92891 20.0555C6.93395 20.0589 6.94261 20.0589 6.95981 20.0589Z" fill="white"/>
<rect x="8.50195" y="13.4248" width="2.07052" height="2.07052" rx="1.03526" fill="url(#paint21_linear_14_792)"/>
<path fill-rule="evenodd" clip-rule="evenodd" d="M9.2561 14.8692H9.0662C9.0263 14.8692 9.00659 14.8692 8.99457 14.8613C8.98159 14.8526 8.97365 14.8382 8.97269 14.8223C8.97197 14.8077 8.98183 14.7898 9.00154 14.754L9.47042 13.9005C9.49037 13.8642 9.50047 13.8461 9.51321 13.8394C9.52691 13.8322 9.54326 13.8322 9.55696 13.8394C9.5697 13.8461 9.57979 13.8642 9.59974 13.9005L9.69614 14.0742L9.69663 14.0751C9.71818 14.114 9.72911 14.1337 9.73388 14.1544C9.73916 14.177 9.73916 14.2009 9.73388 14.2235C9.72907 14.2443 9.71825 14.2642 9.69638 14.3036L9.45008 14.7533L9.44945 14.7545C9.42776 14.7937 9.41676 14.8135 9.40153 14.8285C9.38494 14.8449 9.36499 14.8568 9.34312 14.8635C9.32316 14.8692 9.30081 14.8692 9.2561 14.8692ZM9.73566 14.8692H10.0078C10.0479 14.8692 10.0681 14.8692 10.0801 14.8611C10.0931 14.8524 10.1013 14.8377 10.102 14.8218C10.1027 14.8077 10.093 14.7905 10.0742 14.7568C10.0735 14.7557 10.0729 14.7545 10.0722 14.7533L9.93589 14.5125L9.93434 14.5098C9.91518 14.4763 9.90552 14.4594 9.8931 14.4529C9.87941 14.4457 9.86329 14.4457 9.84959 14.4529C9.83709 14.4596 9.827 14.4772 9.80705 14.5127L9.67123 14.7536L9.67077 14.7544C9.65089 14.7898 9.64095 14.8075 9.64167 14.8221C9.64263 14.838 9.65056 14.8526 9.66354 14.8613C9.67532 14.8692 9.69551 14.8692 9.73566 14.8692Z" fill="white"/>
<rect x="9.09375" y="18.9463" width="2.6621" height="2.6621" rx="1.33105" fill="url(#paint22_linear_14_792)"/>
<path fill-rule="evenodd" clip-rule="evenodd" d="M10.0627 20.8037H9.81851C9.76721 20.8037 9.74187 20.8037 9.72641 20.7935C9.70972 20.7823 9.69953 20.7638 9.69829 20.7434C9.69736 20.7246 9.71003 20.7016 9.73538 20.6556L10.3382 19.5581C10.3639 19.5115 10.3769 19.4882 10.3932 19.4796C10.4109 19.4703 10.4319 19.4703 10.4495 19.4796C10.4659 19.4882 10.4788 19.5115 10.5045 19.5581L10.6284 19.7816L10.6291 19.7827C10.6568 19.8327 10.6708 19.8581 10.677 19.8847C10.6838 19.9137 10.6838 19.9444 10.677 19.9734C10.6708 20.0002 10.6569 20.0257 10.6287 20.0765L10.3121 20.6546L10.3113 20.6561C10.2834 20.7065 10.2692 20.7321 10.2496 20.7514C10.2283 20.7724 10.2027 20.7877 10.1745 20.7964C10.1489 20.8037 10.1202 20.8037 10.0627 20.8037ZM10.6792 20.8037H11.0291C11.0807 20.8037 11.1067 20.8037 11.1221 20.7932C11.1388 20.782 11.1493 20.7632 11.1503 20.7428C11.1511 20.7245 11.1387 20.7024 11.1145 20.6591C11.1136 20.6577 11.1128 20.6562 11.1119 20.6546L10.9367 20.345L10.9347 20.3415C10.9101 20.2985 10.8976 20.2768 10.8817 20.2684C10.8641 20.2592 10.8433 20.2592 10.8257 20.2684C10.8097 20.277 10.7967 20.2997 10.771 20.3453L10.5964 20.655L10.5958 20.656C10.5703 20.7016 10.5575 20.7244 10.5584 20.7431C10.5596 20.7635 10.5698 20.7823 10.5865 20.7935C10.6017 20.8037 10.6276 20.8037 10.6792 20.8037Z" fill="white"/>
</g>
<defs>
<linearGradient id="paint0_linear_14_792" x1="21.0001" y1="2.875" x2="7.31262" y2="9.8125" gradientUnits="userSpaceOnUse">
<stop stop-color="#A3ABF8"/>
<stop offset="1" stop-color="#7770E0"/>
</linearGradient>
<linearGradient id="paint1_linear_14_792" x1="21.3751" y1="2.87512" x2="5.62512" y2="9.62512" gradientUnits="userSpaceOnUse">
<stop stop-color="#A3ABF8"/>
<stop offset="1" stop-color="#7770E0"/>
</linearGradient>
<linearGradient id="paint2_linear_14_792" x1="7.17071" y1="13.6717" x2="5.34668" y2="11.8477" gradientUnits="userSpaceOnUse">
<stop stop-color="#556ECC"/>
<stop offset="1" stop-color="#627EEA"/>
</linearGradient>
<linearGradient id="paint3_linear_14_792" x1="8.69882" y1="16.7769" x2="7.61426" y2="15.6924" gradientUnits="userSpaceOnUse">
<stop stop-color="#556ECC"/>
<stop offset="1" stop-color="#627EEA"/>
</linearGradient>
<linearGradient id="paint4_linear_14_792" x1="7.12167" y1="19.1432" x2="6.03711" y2="18.0586" gradientUnits="userSpaceOnUse">
<stop stop-color="#556ECC"/>
<stop offset="1" stop-color="#627EEA"/>
</linearGradient>
<linearGradient id="paint5_linear_14_792" x1="12.8404" y1="19.5377" x2="11.7559" y2="18.4531" gradientUnits="userSpaceOnUse">
<stop stop-color="#556ECC"/>
<stop offset="1" stop-color="#627EEA"/>
</linearGradient>
<linearGradient id="paint6_linear_14_792" x1="6.18536" y1="18.0096" x2="4.36133" y2="16.1855" gradientUnits="userSpaceOnUse">
<stop stop-color="#556ECC"/>
<stop offset="1" stop-color="#627EEA"/>
</linearGradient>
<linearGradient id="paint7_linear_14_792" x1="8.69885" y1="13.4244" x2="7.71289" y2="12.4385" gradientUnits="userSpaceOnUse">
<stop stop-color="#556ECC"/>
<stop offset="1" stop-color="#627EEA"/>
</linearGradient>
<linearGradient id="paint8_linear_14_792" x1="8.99475" y1="19.1432" x2="8.00879" y2="18.1572" gradientUnits="userSpaceOnUse">
<stop stop-color="#556ECC"/>
<stop offset="1" stop-color="#627EEA"/>
</linearGradient>
<linearGradient id="paint9_linear_14_792" x1="9.0936" y1="23.4813" x2="6.03711" y2="20.4248" gradientUnits="userSpaceOnUse">
<stop stop-color="#556ECC"/>
<stop offset="1" stop-color="#627EEA"/>
</linearGradient>
<linearGradient id="paint10_linear_14_792" x1="8.00904" y1="15.7913" x2="6.03711" y2="13.8193" gradientUnits="userSpaceOnUse">
<stop stop-color="#D1A000"/>
<stop offset="1" stop-color="#FFD632"/>
</linearGradient>
<linearGradient id="paint11_linear_14_792" x1="8.00944" y1="11.946" x2="7.12207" y2="11.0586" gradientUnits="userSpaceOnUse">
<stop stop-color="#D1A000"/>
<stop offset="1" stop-color="#FFD632"/>
</linearGradient>
<linearGradient id="paint12_linear_14_792" x1="8.79752" y1="20.3268" x2="7.91016" y2="19.4395" gradientUnits="userSpaceOnUse">
<stop stop-color="#D1A000"/>
<stop offset="1" stop-color="#FFD632"/>
</linearGradient>
<linearGradient id="paint13_linear_14_792" x1="7.22037" y1="17.2702" x2="6.33301" y2="16.3828" gradientUnits="userSpaceOnUse">
<stop stop-color="#D1A000"/>
<stop offset="1" stop-color="#FFD632"/>
</linearGradient>
<linearGradient id="paint14_linear_14_792" x1="12.1504" y1="18.6016" x2="9.48828" y2="15.9395" gradientUnits="userSpaceOnUse">
<stop stop-color="#D1A000"/>
<stop offset="1" stop-color="#FFD632"/>
</linearGradient>
<linearGradient id="paint15_linear_14_792" x1="6.0371" y1="21.1152" x2="3.375" y2="18.4531" gradientUnits="userSpaceOnUse">
<stop stop-color="#D1A000"/>
<stop offset="1" stop-color="#FFD632"/>
</linearGradient>
<linearGradient id="paint16_linear_14_792" x1="5.74142" y1="15.7912" x2="3.6709" y2="13.7207" gradientUnits="userSpaceOnUse">
<stop stop-color="#D91D1E"/>
<stop offset="1" stop-color="#FF7576"/>
</linearGradient>
<linearGradient id="paint17_linear_14_792" x1="10.277" y1="12.8337" x2="9.38965" y2="11.9463" gradientUnits="userSpaceOnUse">
<stop stop-color="#D91D1E"/>
<stop offset="1" stop-color="#FF7576"/>
</linearGradient>
<linearGradient id="paint18_linear_14_792" x1="9.19205" y1="17.862" x2="8.30469" y2="16.9746" gradientUnits="userSpaceOnUse">
<stop stop-color="#D91D1E"/>
<stop offset="1" stop-color="#FF7576"/>
</linearGradient>
<linearGradient id="paint19_linear_14_792" x1="7.9108" y1="18.2565" x2="7.02344" y2="17.3691" gradientUnits="userSpaceOnUse">
<stop stop-color="#D91D1E"/>
<stop offset="1" stop-color="#FF7576"/>
</linearGradient>
<linearGradient id="paint20_linear_14_792" x1="7.31901" y1="20.3268" x2="6.43164" y2="19.4395" gradientUnits="userSpaceOnUse">
<stop stop-color="#D91D1E"/>
<stop offset="1" stop-color="#FF7576"/>
</linearGradient>
<linearGradient id="paint21_linear_14_792" x1="10.5725" y1="15.4953" x2="8.50195" y2="13.4248" gradientUnits="userSpaceOnUse">
<stop stop-color="#D91D1E"/>
<stop offset="1" stop-color="#FF7576"/>
</linearGradient>
<linearGradient id="paint22_linear_14_792" x1="11.7559" y1="21.6084" x2="9.09375" y2="18.9463" gradientUnits="userSpaceOnUse">
<stop stop-color="#D91D1E"/>
<stop offset="1" stop-color="#FF7576"/>
</linearGradient>
</defs>
</svg>
