<svg width="24" height="24" viewBox="0 0 24 24" fill="none" xmlns="http://www.w3.org/2000/svg">
<path d="M6 4H6.01M3.1709 10C3.58273 8.83481 4.69397 8 6.00019 8C7.30641 8 8.41765 8.83481 8.82949 10M6 15H6.01M3.1709 21C3.58273 19.8348 4.69397 19 6.00019 19C7.30641 19 8.41765 19.8348 8.82949 21M13.6 8.5H19.4C19.9601 8.5 20.2401 8.5 20.454 8.39101C20.6422 8.29513 20.7951 8.14215 20.891 7.95399C21 7.74008 21 7.46005 21 6.9V6.1C21 5.53995 21 5.25992 20.891 5.04601C20.7951 4.85785 20.6422 4.70487 20.454 4.60899C20.2401 4.5 19.9601 4.5 19.4 4.5H13.6C13.0399 4.5 12.7599 4.5 12.546 4.60899C12.3578 4.70487 12.2049 4.85785 12.109 5.04601C12 5.25992 12 5.53995 12 6.1V6.9C12 7.46005 12 7.74008 12.109 7.95399C12.2049 8.14215 12.3578 8.29513 12.546 8.39101C12.7599 8.5 13.0399 8.5 13.6 8.5ZM13.6 19.5H19.4C19.9601 19.5 20.2401 19.5 20.454 19.391C20.6422 19.2951 20.7951 19.1422 20.891 18.954C21 18.7401 21 18.4601 21 17.9V17.1C21 16.5399 21 16.2599 20.891 16.046C20.7951 15.8578 20.6422 15.7049 20.454 15.609C20.2401 15.5 19.9601 15.5 19.4 15.5H13.6C13.0399 15.5 12.7599 15.5 12.546 15.609C12.3578 15.7049 12.2049 15.8578 12.109 16.046C12 16.2599 12 16.5399 12 17.1V17.9C12 18.4601 12 18.7401 12.109 18.954C12.2049 19.1422 12.3578 19.2951 12.546 19.391C12.7599 19.5 13.0399 19.5 13.6 19.5ZM7 4C7 4.55228 6.55228 5 6 5C5.44772 5 5 4.55228 5 4C5 3.44772 5.44772 3 6 3C6.55228 3 7 3.44772 7 4ZM7 15C7 15.5523 6.55228 16 6 16C5.44772 16 5 15.5523 5 15C5 14.4477 5.44772 14 6 14C6.55228 14 7 14.4477 7 15Z" stroke="#75CAC2" stroke-linecap="round" stroke-linejoin="round"/>
</svg>
