<svg width="24" height="24" viewBox="0 0 24 24" fill="none" xmlns="http://www.w3.org/2000/svg">
<mask id="mask0_14_755" style="mask-type:alpha" maskUnits="userSpaceOnUse" x="0" y="0" width="24" height="24">
<rect width="24" height="24" fill="#D9D9D9"/>
</mask>
<g mask="url(#mask0_14_755)">
<path fill-rule="evenodd" clip-rule="evenodd" d="M12.5977 2.19818C12.5977 2.37667 12.453 2.52137 12.2745 2.52137L9.34561 2.52137C8.70395 2.52137 8.24214 2.52162 7.87943 2.55126C7.52049 2.58058 7.28715 2.63706 7.09725 2.73382C6.73049 2.9207 6.4323 3.21889 6.24542 3.58565C6.14867 3.77555 6.09218 4.00889 6.06286 4.36783C6.03322 4.73054 6.03297 5.19235 6.03297 5.83401L6.03297 7.47766L6.99619 6.51444C7.1224 6.38823 7.32703 6.38823 7.45324 6.51444C7.57945 6.64065 7.57945 6.84528 7.45324 6.97149L5.93831 8.48642C5.8777 8.54703 5.7955 8.58108 5.70979 8.58108C5.62407 8.58108 5.54187 8.54703 5.48126 8.48642L3.96633 6.97149C3.84012 6.84528 3.84012 6.64065 3.96633 6.51444C4.09254 6.38823 4.29717 6.38823 4.42338 6.51444L5.3866 7.47766L5.3866 5.81949C5.3866 5.19545 5.3866 4.70729 5.41863 4.31519C5.45123 3.91628 5.51858 3.58841 5.6695 3.29221C5.91835 2.80382 6.31542 2.40675 6.80381 2.1579C7.10001 2.00698 7.42788 1.93963 7.82679 1.90703C8.2189 1.875 8.70705 1.875 9.3311 1.875L12.2745 1.875C12.453 1.875 12.5977 2.01969 12.5977 2.19818Z" fill="url(#paint0_linear_14_755)"/>
<path fill-rule="evenodd" clip-rule="evenodd" d="M11.8477 20.7295C11.8477 20.5511 11.9924 20.4064 12.1708 20.4064L15.0997 20.4064C15.7414 20.4064 16.2032 20.4061 16.5659 20.3765C16.9248 20.3472 17.1582 20.2907 17.3481 20.1939C17.7148 20.007 18.013 19.7088 18.1999 19.3421C18.2966 19.1522 18.3531 18.9188 18.3825 18.5599C18.4121 18.1972 18.4123 17.7354 18.4123 17.0937L18.4123 15.4501L17.4491 16.4133C17.3229 16.5395 17.1183 16.5395 16.9921 16.4133C16.8659 16.2871 16.8659 16.0825 16.9921 15.9562L18.507 14.4413C18.5676 14.3807 18.6498 14.3467 18.7355 14.3467C18.8212 14.3467 18.9034 14.3807 18.9641 14.4413L20.479 15.9562C20.6052 16.0825 20.6052 16.2871 20.479 16.4133C20.3528 16.5395 20.1481 16.5395 20.0219 16.4133L19.0587 15.4501L19.0587 17.1082C19.0587 17.7323 19.0587 18.2204 19.0267 18.6125C18.9941 19.0115 18.9267 19.3393 18.7758 19.6355C18.527 20.1239 18.1299 20.521 17.6415 20.7698C17.3453 20.9208 17.0174 20.9881 16.6185 21.0207C16.2264 21.0527 15.7383 21.0527 15.1142 21.0527L12.1708 21.0527C11.9924 21.0527 11.8477 20.908 11.8477 20.7295Z" fill="url(#paint1_linear_14_755)"/>
<path d="M6.91428 13.2628C7.43371 13.2628 7.95315 13.2583 8.47258 13.2674C8.56292 13.2674 8.68035 13.3125 8.74359 13.3802C9.16365 13.7909 9.58372 14.2016 9.98571 14.6304C11.1511 15.8715 11.5169 17.3293 10.9884 18.945C10.4645 20.5562 9.33078 21.5491 7.65504 21.8696C4.9314 22.3886 2.39746 20.1184 2.58717 17.3563C2.65944 16.3048 3.06143 15.4066 3.78412 14.6529C4.19967 14.2196 4.62425 13.7909 5.05787 13.3712C5.1211 13.308 5.23854 13.2674 5.33339 13.2674C5.85734 13.2583 6.38581 13.2628 6.91428 13.2628ZM5.496 18.3086C5.5502 18.9901 5.9251 19.3828 6.571 19.5633C6.571 19.7845 6.571 20.0011 6.571 20.2177C6.80136 20.2177 7.00462 20.2177 7.23497 20.2177C7.23497 20.0733 7.24401 19.9469 7.23046 19.8206C7.20787 19.631 7.26207 19.5362 7.46533 19.473C8.01187 19.297 8.35514 18.7238 8.28739 18.1642C8.21964 17.5685 7.75892 17.1081 7.1627 17.0449C7.00462 17.0269 6.84653 17.0359 6.68844 17.0224C6.39485 16.9908 6.17804 16.7471 6.17352 16.4627C6.16449 16.1739 6.37226 15.9256 6.66134 15.876C7.19884 15.7812 7.4292 15.9076 7.65052 16.4356C7.85829 16.4356 8.06607 16.4356 8.33256 16.4356C8.25577 16.21 8.20609 16.0069 8.11575 15.8264C7.93508 15.4698 7.60535 15.2938 7.23046 15.19C7.23046 15.1133 7.23046 15.0546 7.23046 14.9914C7.23046 14.4543 7.23046 14.4498 6.70199 14.5085C6.64779 14.513 6.571 14.5988 6.56197 14.6529C6.5439 14.8289 6.55745 15.0095 6.55745 15.1855C6.48518 15.208 6.4355 15.2261 6.38581 15.2442C5.78959 15.4427 5.41921 16.0114 5.50503 16.6026C5.59085 17.2255 6.07867 17.6678 6.71554 17.7039C6.85104 17.7129 6.98655 17.7039 7.12205 17.7219C7.41565 17.7625 7.6189 18.0153 7.61439 18.3041C7.60987 18.593 7.39306 18.8322 7.10399 18.8728C6.55293 18.9495 6.34064 18.8276 6.1419 18.3086C5.93413 18.3086 5.72636 18.3086 5.496 18.3086Z" fill="url(#paint2_linear_14_755)"/>
<path d="M4.3623 10.3877C6.06063 10.3877 7.73637 10.3877 9.43017 10.3877C9.1953 11.0286 8.95139 11.6514 8.73458 12.2787C8.65328 12.5134 8.55391 12.5992 8.29193 12.5947C7.32985 12.5766 6.36325 12.5811 5.40117 12.5901C5.23405 12.5901 5.14823 12.5495 5.08951 12.3825C4.86367 11.7236 4.61073 11.0647 4.3623 10.3877Z" fill="url(#paint3_linear_14_755)"/>
<path d="M17.2167 10.3582C14.9412 10.3841 13.0541 8.46635 13.0606 6.18257C13.067 3.92796 14.9477 2.02967 17.2361 2.03615C19.4922 2.03939 21.3955 3.92795 21.3826 6.22792C21.3696 8.48254 19.489 10.3938 17.2167 10.3582ZM19.1524 4.50781C19.1394 4.41062 19.0909 4.33288 18.9905 4.29077C18.8675 4.23894 18.7834 4.30373 18.7024 4.38147C17.6019 5.48286 16.4981 6.58426 15.3976 7.68889C15.2649 7.82171 15.2584 7.94804 15.362 8.05818C15.4688 8.16508 15.5983 8.16184 15.731 8.02903C16.838 6.92439 17.9418 5.81652 19.0455 4.71189C19.1038 4.65358 19.1491 4.59527 19.1524 4.50781ZM16.9934 4.99048C16.9901 4.45274 16.5499 4.01218 16.0126 4.01542C15.4882 4.01866 15.0286 4.48513 15.0351 5.00667C15.0448 5.54441 15.485 5.97201 16.0288 5.97201C16.579 5.96877 16.9966 5.54765 16.9934 4.99048ZM17.4465 7.39735C17.4465 7.95128 17.8608 8.36916 18.4144 8.36916C18.9679 8.36916 19.3854 7.94804 19.3854 7.39735C19.3854 6.84017 18.9711 6.42553 18.4144 6.42553C17.8641 6.42877 17.4465 6.84341 17.4465 7.39735Z" fill="url(#paint4_linear_14_755)"/>
<path d="M16.0161 4.50492C16.2977 4.50168 16.5178 4.72196 16.5178 5.00378C16.5146 5.27589 16.301 5.49293 16.0258 5.49617C15.7475 5.49941 15.5273 5.27913 15.5273 4.99731C15.5306 4.72196 15.741 4.50816 16.0161 4.50492Z" fill="url(#paint5_linear_14_755)"/>
<path d="M18.4204 6.90531C18.702 6.90531 18.9189 7.13207 18.9124 7.41389C18.9059 7.686 18.6891 7.8998 18.4139 7.8998C18.1323 7.8998 17.9187 7.67629 17.9219 7.39122C17.9284 7.11587 18.1453 6.90207 18.4204 6.90531Z" fill="url(#paint6_linear_14_755)"/>
</g>
<defs>
<linearGradient id="paint0_linear_14_755" x1="12.5977" y1="5.22804" x2="3.87167" y2="5.22804" gradientUnits="userSpaceOnUse">
<stop stop-color="#F8845B" stop-opacity="0.3"/>
<stop offset="1" stop-color="#F0603A"/>
</linearGradient>
<linearGradient id="paint1_linear_14_755" x1="11.8477" y1="17.6997" x2="20.5736" y2="17.6997" gradientUnits="userSpaceOnUse">
<stop stop-color="#F8845B" stop-opacity="0.3"/>
<stop offset="1" stop-color="#F0603A"/>
</linearGradient>
<linearGradient id="paint2_linear_14_755" x1="6.90115" y1="13.2617" x2="6.90115" y2="21.944" gradientUnits="userSpaceOnUse">
<stop stop-color="#A3ABF8"/>
<stop offset="1" stop-color="#7770E0"/>
</linearGradient>
<linearGradient id="paint3_linear_14_755" x1="6.89624" y1="10.3877" x2="6.89624" y2="12.5948" gradientUnits="userSpaceOnUse">
<stop stop-color="#A3ABF8"/>
<stop offset="1" stop-color="#7770E0"/>
</linearGradient>
<linearGradient id="paint4_linear_14_755" x1="17.2216" y1="2.03613" x2="17.2216" y2="10.3586" gradientUnits="userSpaceOnUse">
<stop stop-color="#A3ABF8"/>
<stop offset="1" stop-color="#7770E0"/>
</linearGradient>
<linearGradient id="paint5_linear_14_755" x1="16.0226" y1="4.50488" x2="16.0226" y2="5.49621" gradientUnits="userSpaceOnUse">
<stop stop-color="#A3ABF8"/>
<stop offset="1" stop-color="#7770E0"/>
</linearGradient>
<linearGradient id="paint6_linear_14_755" x1="18.4172" y1="6.90527" x2="18.4172" y2="7.8998" gradientUnits="userSpaceOnUse">
<stop stop-color="#A3ABF8"/>
<stop offset="1" stop-color="#7770E0"/>
</linearGradient>
</defs>
</svg>
