<svg width="68" height="24" viewBox="0 0 68 24" fill="none" xmlns="http://www.w3.org/2000/svg">
<rect width="68" height="24" rx="6" fill="url(#paint0_linear_4052_5775)"/>
<path d="M34.4164 15.056C34.043 15.056 33.707 14.992 33.4084 14.864C33.1097 14.7307 32.875 14.544 32.7044 14.304C32.5337 14.064 32.4484 13.784 32.4484 13.464H33.4244C33.4457 13.704 33.539 13.9013 33.7044 14.056C33.875 14.2107 34.1124 14.288 34.4164 14.288C34.731 14.288 34.9764 14.2133 35.1524 14.064C35.3284 13.9093 35.4164 13.712 35.4164 13.472C35.4164 13.2853 35.3604 13.1333 35.2484 13.016C35.1417 12.8987 35.0057 12.808 34.8404 12.744C34.6804 12.68 34.4564 12.6107 34.1684 12.536C33.8057 12.44 33.5097 12.344 33.2804 12.248C33.0564 12.1467 32.8644 11.992 32.7044 11.784C32.5444 11.576 32.4644 11.2987 32.4644 10.952C32.4644 10.632 32.5444 10.352 32.7044 10.112C32.8644 9.872 33.0884 9.688 33.3764 9.56C33.6644 9.432 33.9977 9.368 34.3764 9.368C34.915 9.368 35.355 9.504 35.6964 9.776C36.043 10.0427 36.235 10.4107 36.2724 10.88H35.2644C35.2484 10.6773 35.1524 10.504 34.9764 10.36C34.8004 10.216 34.5684 10.144 34.2804 10.144C34.019 10.144 33.8057 10.2107 33.6404 10.344C33.475 10.4773 33.3924 10.6693 33.3924 10.92C33.3924 11.0907 33.443 11.232 33.5444 11.344C33.651 11.4507 33.7844 11.536 33.9444 11.6C34.1044 11.664 34.323 11.7333 34.6004 11.808C34.9684 11.9093 35.267 12.0107 35.4964 12.112C35.731 12.2133 35.9284 12.3707 36.0884 12.584C36.2537 12.792 36.3364 13.072 36.3364 13.424C36.3364 13.7067 36.259 13.9733 36.1044 14.224C35.955 14.4747 35.7337 14.6773 35.4404 14.832C35.1524 14.9813 34.811 15.056 34.4164 15.056ZM38.4765 11.336V13.776C38.4765 13.9413 38.5138 14.0613 38.5885 14.136C38.6685 14.2053 38.8018 14.24 38.9885 14.24H39.5485V15H38.8285C38.4178 15 38.1032 14.904 37.8845 14.712C37.6658 14.52 37.5565 14.208 37.5565 13.776V11.336H37.0365V10.592H37.5565V9.496H38.4765V10.592H39.5485V11.336H38.4765ZM40.0851 12.776C40.0851 12.3333 40.1757 11.9413 40.3571 11.6C40.5437 11.2587 40.7944 10.9947 41.1091 10.808C41.4291 10.616 41.7811 10.52 42.1651 10.52C42.5117 10.52 42.8131 10.5893 43.0691 10.728C43.3304 10.8613 43.5384 11.0293 43.6931 11.232V10.592H44.6131V15H43.6931V14.344C43.5384 14.552 43.3277 14.7253 43.0611 14.864C42.7944 15.0027 42.4904 15.072 42.1491 15.072C41.7704 15.072 41.4237 14.976 41.1091 14.784C40.7944 14.5867 40.5437 14.3147 40.3571 13.968C40.1757 13.616 40.0851 13.2187 40.0851 12.776ZM43.6931 12.792C43.6931 12.488 43.6291 12.224 43.5011 12C43.3784 11.776 43.2157 11.6053 43.0131 11.488C42.8104 11.3707 42.5917 11.312 42.3571 11.312C42.1224 11.312 41.9037 11.3707 41.7011 11.488C41.4984 11.6 41.3331 11.768 41.2051 11.992C41.0824 12.2107 41.0211 12.472 41.0211 12.776C41.0211 13.08 41.0824 13.3467 41.2051 13.576C41.3331 13.8053 41.4984 13.9813 41.7011 14.104C41.9091 14.2213 42.1277 14.28 42.3571 14.28C42.5917 14.28 42.8104 14.2213 43.0131 14.104C43.2157 13.9867 43.3784 13.816 43.5011 13.592C43.6291 13.3627 43.6931 13.096 43.6931 12.792ZM47.5549 12.8L49.5869 15H48.3549L46.7229 13.104V15H45.8109V9.08H46.7229V12.52L48.3229 10.592H49.5869L47.5549 12.8ZM54.2806 12.688C54.2806 12.8533 54.27 13.0027 54.2486 13.136H50.8806C50.9073 13.488 51.038 13.7707 51.2726 13.984C51.5073 14.1973 51.7953 14.304 52.1366 14.304C52.6273 14.304 52.974 14.0987 53.1766 13.688H54.1606C54.0273 14.0933 53.7846 14.4267 53.4326 14.688C53.086 14.944 52.654 15.072 52.1366 15.072C51.7153 15.072 51.3366 14.9787 51.0006 14.792C50.67 14.6 50.4086 14.3333 50.2166 13.992C50.03 13.6453 49.9366 13.2453 49.9366 12.792C49.9366 12.3387 50.0273 11.9413 50.2086 11.6C50.3953 11.2533 50.654 10.9867 50.9846 10.8C51.3206 10.6133 51.7046 10.52 52.1366 10.52C52.5526 10.52 52.9233 10.6107 53.2486 10.792C53.574 10.9733 53.8273 11.2293 54.0086 11.56C54.19 11.8853 54.2806 12.2613 54.2806 12.688ZM53.3286 12.4C53.3233 12.064 53.2033 11.7947 52.9686 11.592C52.734 11.3893 52.4433 11.288 52.0966 11.288C51.782 11.288 51.5126 11.3893 51.2886 11.592C51.0646 11.7893 50.9313 12.0587 50.8886 12.4H53.3286ZM54.8741 12.776C54.8741 12.3333 54.9648 11.9413 55.1461 11.6C55.3328 11.2587 55.5835 10.9947 55.8981 10.808C56.2181 10.616 56.5728 10.52 56.9621 10.52C57.2501 10.52 57.5328 10.584 57.8101 10.712C58.0928 10.8347 58.3168 11 58.4821 11.208V9.08H59.4021V15H58.4821V14.336C58.3328 14.5493 58.1248 14.7253 57.8581 14.864C57.5968 15.0027 57.2955 15.072 56.9541 15.072C56.5701 15.072 56.2181 14.976 55.8981 14.784C55.5835 14.5867 55.3328 14.3147 55.1461 13.968C54.9648 13.616 54.8741 13.2187 54.8741 12.776ZM58.4821 12.792C58.4821 12.488 58.4181 12.224 58.2901 12C58.1675 11.776 58.0048 11.6053 57.8021 11.488C57.5995 11.3707 57.3808 11.312 57.1461 11.312C56.9115 11.312 56.6928 11.3707 56.4901 11.488C56.2875 11.6 56.1221 11.768 55.9941 11.992C55.8715 12.2107 55.8101 12.472 55.8101 12.776C55.8101 13.08 55.8715 13.3467 55.9941 13.576C56.1221 13.8053 56.2875 13.9813 56.4901 14.104C56.6981 14.2213 56.9168 14.28 57.1461 14.28C57.3808 14.28 57.5995 14.2213 57.8021 14.104C58.0048 13.9867 58.1675 13.816 58.2901 13.592C58.4181 13.3627 58.4821 13.096 58.4821 12.792Z" fill="#F7F7FC"/>
<path d="M17.3333 8.76409C17 8.66922 16.4567 8.66572 16 8.66922C15.8473 8.67039 15.9396 8.66293 15.7333 8.66922C15.1951 8.68848 14.6678 8.94521 14.6667 9.67255C14.6655 10.4474 15.3333 10.6766 16 10.6766C16.6667 10.6766 17.3333 10.8535 17.3333 11.6807C17.3333 12.3024 16.795 12.5748 16.1241 12.665C15.5907 12.665 15.3333 12.6848 14.6667 12.5892M16 12.6667V13.3333M16 8V8.66667M22 15.3333V15.8667C22 16.6134 22 16.9868 21.8547 17.272C21.7268 17.5229 21.5229 17.7268 21.272 17.8547C20.9868 18 20.6134 18 19.8667 18H12.1333C11.3866 18 11.0132 18 10.728 17.8547C10.4771 17.7268 10.2732 17.5229 10.1453 17.272C10 16.9868 10 16.6134 10 15.8667V15.3333M20.6667 10.6667C20.6667 13.244 18.5773 15.3333 16 15.3333C13.4227 15.3333 11.3333 13.244 11.3333 10.6667C11.3333 8.08934 13.4227 6 16 6C18.5773 6 20.6667 8.08934 20.6667 10.6667Z" stroke="#F7F7FC" stroke-linecap="round" stroke-linejoin="round"/>
<defs>
<linearGradient id="paint0_linear_4052_5775" x1="0" y1="0" x2="68.7877" y2="2.5228" gradientUnits="userSpaceOnUse">
<stop stop-color="#B30040"/>
<stop offset="1" stop-color="#B300A1"/>
</linearGradient>
</defs>
</svg>
