 <svg width="16" height="16" viewBox="0 0 32 32" fill="none" xmlns="http://www.w3.org/2000/svg">
<path d="M4.49805 4C4.49805 3.72386 4.27419 3.5 3.99805 3.5C3.7219 3.5 3.49805 3.72386 3.49805 4H4.49805ZM27.998 28.5C28.2742 28.5 28.498 28.2761 28.498 28C28.498 27.7239 28.2742 27.5 27.998 27.5V28.5ZM4.43402 25.816L3.98852 26.043H3.98852L4.43402 25.816ZM6.18209 27.564L6.40908 27.1185H6.40908L6.18209 27.564ZM26.6657 20.5C26.9419 20.5 27.1657 20.2762 27.1657 20C27.1657 19.7239 26.9419 19.5 26.6657 19.5V20.5ZM21.3324 19.5C21.0562 19.5 20.8324 19.7239 20.8324 20C20.8324 20.2762 21.0562 20.5 21.3324 20.5V19.5ZM17.3324 9.83336C17.6085 9.83336 17.8324 9.60951 17.8324 9.33336C17.8324 9.05722 17.6085 8.83336 17.3324 8.83336V9.83336ZM9.33239 8.83336C9.05625 8.83336 8.83239 9.05722 8.83239 9.33336C8.83239 9.60951 9.05625 9.83336 9.33239 9.83336V8.83336ZM23.9991 15.1667C24.2752 15.1667 24.4991 14.9428 24.4991 14.6667C24.4991 14.3906 24.2752 14.1667 23.9991 14.1667V15.1667ZM11.9991 14.1667C11.7229 14.1667 11.4991 14.3906 11.4991 14.6667C11.4991 14.9428 11.7229 15.1667 11.9991 15.1667V14.1667ZM3.49805 4V21.6H4.49805V4H3.49805ZM10.398 28.5H27.998V27.5H10.398V28.5ZM3.49805 21.6C3.49805 22.7119 3.49766 23.5758 3.5542 24.2679C3.61123 24.9658 3.72863 25.5329 3.98852 26.043L4.87952 25.589C4.70344 25.2434 4.60285 24.8226 4.55088 24.1865C4.49844 23.5446 4.49805 22.7284 4.49805 21.6H3.49805ZM10.398 27.5C9.26969 27.5 8.4535 27.4996 7.81157 27.4472C7.17548 27.3952 6.75467 27.2946 6.40908 27.1185L5.95509 28.0095C6.46515 28.2694 7.03221 28.3868 7.73014 28.4438C8.42223 28.5004 9.28619 28.5 10.398 28.5V27.5ZM3.98852 26.043C4.41995 26.8897 5.10836 27.5781 5.95509 28.0095L6.40908 27.1185C5.75051 26.783 5.21508 26.2475 4.87952 25.589L3.98852 26.043ZM26.6657 19.5H21.3324V20.5H26.6657V19.5ZM17.3324 8.83336H9.33239V9.83336H17.3324V8.83336ZM23.9991 14.1667H11.9991V15.1667H23.9991V14.1667Z" fill="#F7F7FC"/>
</svg>
