<svg width="22" height="20" viewBox="0 0 22 20" fill="none" xmlns="http://www.w3.org/2000/svg">
<path fill-rule="evenodd" clip-rule="evenodd" d="M5.75813 19.1601H2.26483C1.53079 19.1601 1.1682 19.1601 0.947116 19.0187C0.708323 18.8639 0.562405 18.6074 0.544717 18.3243C0.531439 18.0636 0.712757 17.7451 1.07535 17.1083L9.70073 1.90491C10.0677 1.25931 10.2535 0.936504 10.4878 0.817119C10.7399 0.68889 11.0406 0.68889 11.2926 0.817119C11.527 0.936504 11.7127 1.25931 12.0797 1.90491L13.8529 5.00024L13.8619 5.01603C14.2583 5.70864 14.4594 6.05986 14.5471 6.42849C14.6444 6.83089 14.6444 7.25539 14.5471 7.65779C14.4587 8.02922 14.2597 8.38299 13.8573 9.08607L9.32661 17.0951L9.31489 17.1156C8.91587 17.8139 8.71365 18.1678 8.43339 18.4348C8.12828 18.7268 7.76126 18.9389 7.35886 19.0585C6.99183 19.1601 6.58061 19.1601 5.75813 19.1601ZM14.5799 19.1601H19.5853C20.3238 19.1601 20.6953 19.1601 20.9165 19.0144C21.1552 18.8595 21.3055 18.5985 21.3189 18.3157C21.3317 18.0633 21.1543 17.7572 20.8068 17.1575C20.7948 17.1371 20.7828 17.1163 20.7706 17.0952L18.2633 12.8059L18.2347 12.7576C17.8824 12.1618 17.7046 11.861 17.4762 11.7447C17.2242 11.6164 16.9278 11.6164 16.6758 11.7447C16.4459 11.8641 16.2602 12.178 15.8932 12.8103L13.3948 17.0996L13.3862 17.1144C13.0205 17.7457 12.8377 18.0612 12.8509 18.32C12.8686 18.6031 13.0145 18.8639 13.2533 19.0187C13.47 19.1601 13.8414 19.1601 14.5799 19.1601Z" fill="white"/>
</svg>
