<svg width="38" height="38" viewBox="0 0 38 38" fill="none" xmlns="http://www.w3.org/2000/svg">
<circle cx="19" cy="19" r="19" fill="#EDEDED"/>
<path d="M18.9987 6.78577L18.8307 7.34247V23.4952L18.9987 23.6587L26.6858 19.2267L18.9987 6.78577Z" fill="#219EE1"/>
<path d="M18.9969 6.78577L11.3096 19.2267L18.9969 23.6587V15.8186V6.78577Z" fill="#32B1F7"/>
<path d="M18.9988 25.0783L18.9041 25.1909V30.9447L18.9988 31.2144L26.6906 20.6486L18.9988 25.0783Z" fill="#1D91D0"/>
<path d="M18.9969 31.2144V25.0783L11.3096 20.6486L18.9969 31.2144Z" fill="#21A1E7"/>
<path d="M18.9957 23.6584L26.6828 19.2265L18.9957 15.8184V23.6584Z" fill="#1D91D0"/>
<path d="M11.3096 19.2265L18.9969 23.6584V15.8184L11.3096 19.2265Z" fill="#21A1E7"/>
<circle cx="19" cy="19" r="19" fill="#E84142"/>
<path fill-rule="evenodd" clip-rule="evenodd" d="M13.4684 26.5612H9.78099C9.00617 26.5612 8.62344 26.5612 8.39007 26.4119C8.13801 26.2485 7.98399 25.9778 7.96532 25.679C7.9513 25.4037 8.14269 25.0676 8.52543 24.3954L17.63 8.34739C18.0174 7.66592 18.2134 7.32519 18.4608 7.19917C18.7269 7.06382 19.0443 7.06382 19.3103 7.19917C19.5577 7.32519 19.7537 7.66592 20.1411 8.34739L22.0128 11.6147L22.0224 11.6314C22.4408 12.3624 22.653 12.7332 22.7456 13.1223C22.8483 13.547 22.8483 13.9951 22.7456 14.4199C22.6523 14.8119 22.4423 15.1854 22.0175 15.9275L17.2351 24.3814L17.2227 24.4031C16.8015 25.1402 16.5881 25.5138 16.2923 25.7956C15.9702 26.1038 15.5828 26.3277 15.158 26.4539C14.7706 26.5612 14.3365 26.5612 13.4684 26.5612ZM22.7802 26.5612H28.0637C28.8432 26.5612 29.2354 26.5612 29.4689 26.4074C29.7209 26.2439 29.8795 25.9684 29.8937 25.6699C29.9071 25.4035 29.7199 25.0804 29.353 24.4473C29.3404 24.4258 29.3277 24.4039 29.3148 24.3815L26.6682 19.854L26.6381 19.803C26.2662 19.1742 26.0785 18.8566 25.8374 18.7338C25.5715 18.5984 25.2585 18.5984 24.9926 18.7338C24.7499 18.8598 24.5539 19.1912 24.1664 19.8587L21.5293 24.3862L21.5202 24.4018C21.1342 25.0682 20.9413 25.4012 20.9552 25.6745C20.9738 25.9732 21.1279 26.2485 21.3799 26.4119C21.6086 26.5612 22.0007 26.5612 22.7802 26.5612Z" fill="white"/>
</svg>
