<svg width="22" height="22" viewBox="0 0 22 22" fill="none" xmlns="http://www.w3.org/2000/svg">
<path fill-rule="evenodd" clip-rule="evenodd" d="M6.81877 9.28092L11.0021 5.09945L15.1871 9.28432L17.6198 6.84995L11.0021 0.230713L4.38432 6.84825L6.81877 9.28092ZM0.230774 11.0003L2.66433 8.56683L5.09789 11.0003L2.66433 13.4338L0.230774 11.0003ZM11.0021 16.9021L6.81877 12.719L4.38092 15.1499L4.38432 15.1533L11.0021 21.7692L17.6198 15.1499L17.6215 15.1482L15.1871 12.7173L11.0021 16.9021ZM16.9021 11.0009L19.3357 8.56743L21.7692 11.0009L19.3357 13.4344L16.9021 11.0009ZM11.0021 8.529L13.4705 10.9991H13.4722L13.4705 11.0008L11.0021 13.4709L8.5336 11.0042L8.53019 10.9991L8.5336 10.9957L8.96571 10.5636L9.17666 10.3544L11.0021 8.529Z" fill="white"/>
</svg>
