<svg width="39" height="38" viewBox="0 0 39 38" fill="none" xmlns="http://www.w3.org/2000/svg">
<path d="M19.8306 38C30.324 38 38.8306 29.4934 38.8306 19C38.8306 8.50659 30.324 0 19.8306 0C9.33716 0 0.830566 8.50659 0.830566 19C0.830566 29.4934 9.33716 38 19.8306 38Z" fill="#F3BA2F"/>
<path fill-rule="evenodd" clip-rule="evenodd" d="M15.8584 17.367L19.8326 13.3946L23.8083 17.3702L26.1194 15.0576L19.8326 8.76929L13.5457 15.0559L15.8584 17.367ZM9.59985 19.0004L11.9117 16.6886L14.2236 19.0004L11.9117 21.3122L9.59985 19.0004ZM19.8326 24.6071L15.8584 20.6331L13.5425 22.9426L13.5457 22.9458L19.8326 29.2308L26.1194 22.9426L26.1211 22.9409L23.8083 20.6315L19.8326 24.6071ZM25.4376 19.001L27.7495 16.6892L30.0614 19.001L27.7495 21.3128L25.4376 19.001ZM19.8326 16.6527L22.1776 18.9992H22.1792L22.1776 19.0009L19.8326 21.3475L17.4875 19.0041L17.4843 18.9992L17.4875 18.996L17.898 18.5855L18.0984 18.3867L19.8326 16.6527Z" fill="white"/>
</svg>
