<svg width="115" height="47" viewBox="0 0 115 47" fill="none" xmlns="http://www.w3.org/2000/svg">
<path d="M51.9157 16.7261C50.6036 16.4359 49.9391 17.3651 48.4336 17.9939C46.2216 18.9127 46.1333 20.1529 47.1089 20.6503C48.0804 21.1478 49.3378 20.3878 50.4816 20.6849C50.4858 20.6849 50.4901 20.6883 50.4943 20.6883C50.4985 20.6883 50.5027 20.6883 50.5069 20.6918C51.6634 20.9543 52.2101 22.153 53.3581 22.1703C54.5062 22.1876 55.2548 21.1063 54.0058 19.348C53.1479 18.1459 53.2067 17.0715 51.9157 16.7261Z" fill="url(#paint0_linear_222_10071)"/>
<path d="M49.0521 15.1683C49.4811 16.1598 49.1951 17.1443 48.4213 17.3723C47.6433 17.6003 46.6677 16.9785 46.2387 15.9905C45.8098 14.9991 46.0957 14.0145 46.8695 13.7865C47.6517 13.5586 48.6274 14.1769 49.0521 15.1683Z" fill="url(#paint1_linear_222_10071)"/>
<path d="M55.3473 16.6986C54.3338 17.3376 53.9175 18.2911 54.4179 18.83C54.9184 19.3689 56.1506 19.286 57.1641 18.6469C58.1776 18.0078 58.5939 17.0544 58.0935 16.5155C57.593 15.9766 56.3608 16.0595 55.3473 16.6986Z" fill="url(#paint2_linear_222_10071)"/>
<path d="M52.6011 13.8003C52.4497 14.9023 51.6296 15.7279 50.7633 15.6485C49.9012 15.569 49.3209 14.6121 49.4723 13.5102C49.6237 12.4082 50.4437 11.5826 51.31 11.662C52.1721 11.7415 52.7525 12.6984 52.6011 13.8003Z" fill="url(#paint3_linear_222_10071)"/>
<path d="M56.0933 15.1205C56.6973 14.1292 56.5572 13.0667 55.7804 12.7473C55.0035 12.4279 53.8842 12.9726 53.2802 13.9639C52.6762 14.9552 52.8163 16.0177 53.5931 16.3371C54.3699 16.6564 55.4893 16.1118 56.0933 15.1205Z" fill="url(#paint4_linear_222_10071)"/>
<path d="M81.6065 38.5085C80.5394 38.0841 79.8795 38.7892 78.5444 39.1236C76.5881 39.6113 76.374 40.6629 77.1341 41.22C77.8942 41.777 79.0313 41.2947 79.9539 41.7058C79.9563 41.7088 79.9596 41.707 79.962 41.71C79.9644 41.7131 79.9678 41.7113 79.9702 41.7143C80.9112 42.0941 81.2341 43.1954 82.1915 43.3653C83.1488 43.5351 83.8964 42.7107 83.0544 41.0361C82.4842 39.8944 82.6546 38.9816 81.6065 38.5085Z" fill="url(#paint5_linear_222_10071)"/>
<path d="M79.5346 36.8747C79.7794 37.7776 79.4343 38.5792 78.7603 38.6674C78.0864 38.7557 77.3423 38.096 77.0941 37.1948C76.8494 36.2919 77.1945 35.4903 77.8684 35.4021C78.5423 35.3138 79.2865 35.9735 79.5346 36.8747Z" fill="url(#paint6_linear_222_10071)"/>
<path d="M84.5822 38.817C83.6534 39.2313 83.1916 39.9992 83.5546 40.5331C83.9176 41.0671 84.9685 41.163 85.8973 40.7487C86.8261 40.3343 87.288 39.5665 86.925 39.0325C86.562 38.4986 85.5144 38.4009 84.5822 38.817Z" fill="url(#paint7_linear_222_10071)"/>
<path d="M82.7452 36.104C82.4944 37.0267 81.7106 37.6264 80.9952 37.443C80.2773 37.2565 79.8994 36.3578 80.1502 35.4352C80.402 34.5077 81.1858 33.908 81.9036 34.0945C82.6191 34.2779 82.9994 35.1796 82.7452 36.104Z" fill="url(#paint8_linear_222_10071)"/>
<path d="M83.2642 36.2408C82.6446 37.0133 82.6428 37.9459 83.2629 38.329C83.8831 38.7122 84.8901 38.3943 85.5097 37.6219C86.1293 36.8494 86.1312 35.9168 85.511 35.5337C84.8909 35.1506 83.8838 35.4684 83.2642 36.2408Z" fill="url(#paint9_linear_222_10071)"/>
<path d="M10.2151 37.7461C8.51744 37.6383 7.85023 38.9785 6.07595 40.0981C3.46866 41.7385 3.5776 43.3726 4.88336 43.8203C6.1879 44.2714 7.62563 43.0266 9.11218 43.1803C9.11613 43.1811 9.12007 43.1819 9.12402 43.1827C9.12796 43.1835 9.13191 43.1843 9.13709 43.1817C10.633 43.2852 11.5273 44.7349 12.9654 44.525C14.4034 44.315 15.1523 42.7571 13.2831 40.7269C12.0106 39.3406 11.8934 37.9318 10.2151 37.7461Z" fill="url(#paint10_linear_222_10071)"/>
<path d="M6.04298 36.2582C6.74592 37.448 6.56702 38.7774 5.64255 39.2259C4.71808 39.6744 3.39389 39.0731 2.69096 37.8833C1.98803 36.6935 2.16692 35.3641 3.09139 34.9156C4.01708 34.4637 5.34127 35.065 6.04298 36.2582Z" fill="url(#paint11_linear_222_10071)"/>
<path d="M14.4822 37.3017C13.3368 38.3261 12.9894 39.6326 13.7036 40.2208C14.4178 40.809 15.9214 40.4575 17.0655 39.4365C18.2108 38.4121 18.5582 37.1056 17.844 36.5174C17.131 35.9258 15.6275 36.2773 14.4822 37.3017Z" fill="url(#paint12_linear_222_10071)"/>
<path d="M10.1388 33.9686C10.1444 35.4065 9.27689 36.6312 8.19902 36.702C7.12115 36.7727 6.24535 35.6646 6.23979 34.2266C6.23422 32.7887 7.10171 31.564 8.17958 31.4933C9.25866 31.4191 10.1345 32.5272 10.1388 33.9686Z" fill="url(#paint13_linear_222_10071)"/>
<path d="M11.1942 34.1882C10.6239 35.5743 10.9787 36.9027 11.9887 37.1553C12.9987 37.408 14.2784 36.4905 14.8486 35.1045C15.4189 33.7184 15.0642 32.39 14.0542 32.1374C13.0441 31.8848 11.7645 32.8022 11.1942 34.1882Z" fill="url(#paint14_linear_222_10071)"/>
<path d="M109.975 3.52044C109.092 3.26481 108.575 3.87279 107.498 4.23897C105.917 4.77441 105.778 5.6242 106.413 6.00764C107.048 6.39454 107.961 5.92474 108.731 6.18037C108.735 6.18037 108.735 6.18037 108.739 6.18382C108.743 6.18382 108.743 6.18382 108.747 6.18728C109.525 6.41872 109.824 7.26852 110.61 7.32724C111.397 7.38943 111.981 6.67781 111.241 5.41693C110.732 4.55332 110.842 3.81407 109.975 3.52044Z" fill="url(#paint15_linear_222_10071)"/>
<path d="M108.108 2.32153C108.34 3.01933 108.079 3.68603 107.532 3.80694C106.981 3.92785 106.351 3.4615 106.124 2.76024C105.892 2.06244 106.153 1.39573 106.7 1.27483C107.251 1.15392 107.881 1.62373 108.108 2.32153Z" fill="url(#paint16_linear_222_10071)"/>
<path d="M112.339 3.65153C111.599 4.04534 111.25 4.68441 111.561 5.07476C111.872 5.46512 112.722 5.46512 113.462 5.06786C114.202 4.67405 114.551 4.03497 114.24 3.64462C113.929 3.25427 113.075 3.25772 112.339 3.65153Z" fill="url(#paint17_linear_222_10071)"/>
<path d="M110.636 1.53742C110.46 2.28704 109.841 2.82248 109.253 2.72921C108.664 2.63594 108.327 1.95195 108.504 1.20234C108.681 0.452723 109.299 -0.0827169 109.888 0.0105533C110.476 0.103823 110.813 0.787805 110.636 1.53742Z" fill="url(#paint18_linear_222_10071)"/>
<path d="M111.09 1.68238C110.611 2.33527 110.64 3.07452 111.154 3.3267C111.667 3.58233 112.474 3.25415 112.953 2.60126C113.433 1.94837 113.403 1.20912 112.89 0.956943C112.377 0.701314 111.57 1.02603 111.09 1.68238Z" fill="url(#paint19_linear_222_10071)"/>
<defs>
<linearGradient id="paint0_linear_222_10071" x1="50.5842" y1="16.6714" x2="50.5842" y2="22.1705" gradientUnits="userSpaceOnUse">
<stop stop-color="#FF4229"/>
<stop offset="1" stop-color="#E30613"/>
</linearGradient>
<linearGradient id="paint1_linear_222_10071" x1="47.6454" y1="13.7393" x2="47.6454" y2="17.4194" gradientUnits="userSpaceOnUse">
<stop stop-color="#FF4229"/>
<stop offset="1" stop-color="#E30613"/>
</linearGradient>
<linearGradient id="paint2_linear_222_10071" x1="56.2557" y1="16.1597" x2="56.2557" y2="19.1858" gradientUnits="userSpaceOnUse">
<stop stop-color="#FF4229"/>
<stop offset="1" stop-color="#E30613"/>
</linearGradient>
<linearGradient id="paint3_linear_222_10071" x1="51.0367" y1="11.6567" x2="51.0367" y2="15.6537" gradientUnits="userSpaceOnUse">
<stop stop-color="#FF4229"/>
<stop offset="1" stop-color="#E30613"/>
</linearGradient>
<linearGradient id="paint4_linear_222_10071" x1="53.2802" y1="13.9639" x2="55.8456" y2="15.527" gradientUnits="userSpaceOnUse">
<stop stop-color="#FF4229"/>
<stop offset="1" stop-color="#E30613"/>
</linearGradient>
<linearGradient id="paint5_linear_222_10071" x1="82.9745" y1="39.9306" x2="78.712" y2="43.2925" gradientUnits="userSpaceOnUse">
<stop stop-color="#FF4229"/>
<stop offset="1" stop-color="#E30613"/>
</linearGradient>
<linearGradient id="paint6_linear_222_10071" x1="79.4336" y1="36.4417" x2="77.4765" y2="37.9847" gradientUnits="userSpaceOnUse">
<stop stop-color="#FF4229"/>
<stop offset="1" stop-color="#E30613"/>
</linearGradient>
<linearGradient id="paint7_linear_222_10071" x1="86.8474" y1="38.931" x2="84.0361" y2="41.1471" gradientUnits="userSpaceOnUse">
<stop stop-color="#FF4229"/>
<stop offset="1" stop-color="#E30613"/>
</linearGradient>
<linearGradient id="paint8_linear_222_10071" x1="82.8976" y1="35.0002" x2="80.3646" y2="36.9981" gradientUnits="userSpaceOnUse">
<stop stop-color="#FF4229"/>
<stop offset="1" stop-color="#E30613"/>
</linearGradient>
<linearGradient id="paint9_linear_222_10071" x1="86.0094" y1="36.0719" x2="83.1729" y2="38.3087" gradientUnits="userSpaceOnUse">
<stop stop-color="#FF4229"/>
<stop offset="1" stop-color="#E30613"/>
</linearGradient>
<linearGradient id="paint10_linear_222_10071" x1="10.9561" y1="37.8861" x2="9.53313" y2="44.7932" gradientUnits="userSpaceOnUse">
<stop stop-color="#FF4229"/>
<stop offset="1" stop-color="#E30613"/>
</linearGradient>
<linearGradient id="paint11_linear_222_10071" x1="5.10336" y1="35.0014" x2="4.22638" y2="39.2603" gradientUnits="userSpaceOnUse">
<stop stop-color="#FF4229"/>
<stop offset="1" stop-color="#E30613"/>
</linearGradient>
<linearGradient id="paint12_linear_222_10071" x1="16.5742" y1="36.1171" x2="15.6187" y2="40.7523" gradientUnits="userSpaceOnUse">
<stop stop-color="#FF4229"/>
<stop offset="1" stop-color="#E30613"/>
</linearGradient>
<linearGradient id="paint13_linear_222_10071" x1="9.06828" y1="31.6214" x2="8.01613" y2="36.7183" gradientUnits="userSpaceOnUse">
<stop stop-color="#FF4229"/>
<stop offset="1" stop-color="#E30613"/>
</linearGradient>
<linearGradient id="paint14_linear_222_10071" x1="13.9212" y1="32.1087" x2="12.8415" y2="37.3328" gradientUnits="userSpaceOnUse">
<stop stop-color="#FF4229"/>
<stop offset="1" stop-color="#E30613"/>
</linearGradient>
<linearGradient id="paint15_linear_222_10071" x1="108.821" y1="3.45947" x2="108.821" y2="7.33101" gradientUnits="userSpaceOnUse">
<stop stop-color="#FF4229"/>
<stop offset="1" stop-color="#E30613"/>
</linearGradient>
<linearGradient id="paint16_linear_222_10071" x1="107.116" y1="1.25586" x2="107.116" y2="3.82601" gradientUnits="userSpaceOnUse">
<stop stop-color="#FF4229"/>
<stop offset="1" stop-color="#E30613"/>
</linearGradient>
<linearGradient id="paint17_linear_222_10071" x1="112.901" y1="3.354" x2="112.901" y2="5.36667" gradientUnits="userSpaceOnUse">
<stop stop-color="#FF4229"/>
<stop offset="1" stop-color="#E30613"/>
</linearGradient>
<linearGradient id="paint18_linear_222_10071" x1="109.57" y1="0" x2="109.57" y2="2.73976" gradientUnits="userSpaceOnUse">
<stop stop-color="#FF4229"/>
<stop offset="1" stop-color="#E30613"/>
</linearGradient>
<linearGradient id="paint19_linear_222_10071" x1="112.022" y1="0.869629" x2="112.022" y2="3.41358" gradientUnits="userSpaceOnUse">
<stop stop-color="#FF4229"/>
<stop offset="1" stop-color="#E30613"/>
</linearGradient>
</defs>
</svg>
