<svg width="25" height="18" viewBox="0 0 25 18" fill="none" xmlns="http://www.w3.org/2000/svg">
<g clip-path="url(#clip0_355_2047)">
<path d="M24.8474 13.1738C24.8474 13.5192 24.8571 13.9606 24.8474 14.4115C24.7891 16.4456 22.3792 18.403 20.426 17.9328C19.8624 17.7985 19.3182 17.4819 18.8518 17.1365C18.2493 16.6855 17.7343 16.1194 17.1998 15.5917C16.8306 15.2271 16.4807 14.8529 16.1503 14.4595C15.4021 13.5864 14.5081 13.1258 13.3031 13.2601C12.516 13.3465 11.7192 13.2985 10.9224 13.2697C10.3005 13.2409 9.766 13.4328 9.33843 13.855C8.78454 14.3923 8.2598 14.9584 7.71563 15.5053C7.22975 15.9947 6.76332 16.5128 6.22886 16.9542C4.23679 18.6237 1.79772 18.2207 0.495588 15.9659C0.194348 15.4382 0 14.7761 0 14.1908C0.00971741 10.871 0.388696 7.57996 1.08835 4.33689C1.88518 0.65246 5.9179 -0.825152 8.61934 0.498942C9.65911 1.00747 10.7572 1.1418 11.9135 1.16099C13.5655 1.18977 15.13 0.969091 16.6848 0.335829C19.4931 -0.805962 22.8845 1.03626 23.6619 4.1354C24.1089 5.92965 24.3032 7.78146 24.5462 9.61408C24.7017 10.7655 24.7502 11.9169 24.8474 13.1738ZM7.92941 7.94457C8.40556 7.94457 8.82341 7.96376 9.24126 7.94457C9.84374 7.91579 10.2713 7.48402 10.2616 6.93711C10.2616 6.37101 9.81459 5.95843 9.18295 5.94883C8.78454 5.93924 8.38613 5.94883 7.92941 5.94883C7.92941 5.50747 7.93913 5.11408 7.92941 4.71109C7.90997 4.04905 7.49213 3.62687 6.87993 3.63647C6.29688 3.64606 5.90819 4.06824 5.89847 4.71109C5.88875 5.10449 5.89847 5.49788 5.89847 5.93924C5.4709 5.93924 5.10164 5.93924 4.7421 5.93924C4.01329 5.94883 3.57601 6.31344 3.56629 6.92751C3.56629 7.53199 4.01329 7.92538 4.72266 7.94457C5.10164 7.95417 5.49034 7.94457 5.89847 7.94457C5.89847 8.39553 5.88875 8.76973 5.89847 9.15353C5.90819 9.78679 6.3066 10.2282 6.87993 10.2473C7.46297 10.2665 7.90997 9.81557 7.92941 9.16312C7.93913 8.78892 7.92941 8.40512 7.92941 7.94457ZM19.7847 3.64606C18.9975 3.65566 18.3659 4.26973 18.3562 5.03732C18.3465 5.8241 18.9975 6.46696 19.8041 6.45736C20.5912 6.44777 21.2228 5.8337 21.2325 5.06611C21.2423 4.27933 20.5912 3.63647 19.7847 3.64606ZM18.8323 8.84649C18.8421 8.05011 18.191 7.40726 17.3942 7.40726C16.6168 7.41685 15.9851 8.04052 15.9754 8.81771C15.9657 9.61408 16.6168 10.2665 17.4136 10.2569C18.191 10.2473 18.8226 9.62367 18.8323 8.84649Z" fill="url(#paint0_linear_355_2047)"/>
</g>
<defs>
<linearGradient id="paint0_linear_355_2047" x1="12.4259" y1="-0.00506592" x2="12.4259" y2="18.0034" gradientUnits="userSpaceOnUse">
<stop stop-color="white"/>
<stop offset="1" stop-color="white" stop-opacity="0.3"/>
</linearGradient>
<clipPath id="clip0_355_2047">
<rect width="24.8571" height="18" fill="white"/>
</clipPath>
</defs>
</svg>
