<svg width="15" height="15" viewBox="0 0 15 15" fill="none" xmlns="http://www.w3.org/2000/svg">
<path d="M10.8154 5.1202C11.0442 5.34908 11.0442 5.7201 10.8154 5.94887L6.88454 9.8798C6.65565 10.1086 6.28475 10.1086 6.05587 9.8798L4.18465 8.00846C3.95576 7.77969 3.95576 7.40868 4.18465 7.17991C4.41341 6.95103 4.78443 6.95103 5.0132 7.17991L6.47015 8.63686L9.98669 5.1202C10.2156 4.89143 10.5866 4.89143 10.8154 5.1202ZM15 7.5C15 11.6456 11.6451 15 7.5 15C3.35438 15 0 11.6451 0 7.5C0 3.35438 3.35495 0 7.5 0C11.6456 0 15 3.35495 15 7.5ZM13.8281 7.5C13.8281 4.00211 10.9974 1.17188 7.5 1.17188C4.00211 1.17188 1.17188 4.00257 1.17188 7.5C1.17188 10.9979 4.00257 13.8281 7.5 13.8281C10.9979 13.8281 13.8281 10.9974 13.8281 7.5Z" fill="#E30613"/>
</svg>
