<svg width="11" height="11" viewBox="0 0 11 11" fill="none" xmlns="http://www.w3.org/2000/svg">
<path d="M6.55868e-08 5.5C6.4062e-08 5.37213 0.0537615 5.24413 0.161149 5.1465L5.66113 0.14653C5.87604 -0.0488434 6.22406 -0.0488434 6.43883 0.14653C6.6536 0.341904 6.65374 0.658277 6.43883 0.853526L1.32769 5.5L6.43883 10.1465C6.65374 10.3418 6.65374 10.6582 6.43883 10.8535C6.22392 11.0487 5.87591 11.0488 5.66113 10.8535L0.161149 5.8535C0.0537616 5.75587 6.71117e-08 5.62787 6.55868e-08 5.5ZM4.56114 5.8535L10.0611 10.8535C10.276 11.0488 10.624 11.0488 10.8388 10.8535C11.0536 10.6581 11.0537 10.3417 10.8388 10.1465L5.72768 5.5L10.8388 0.853526C11.0537 0.658152 11.0537 0.341779 10.8388 0.14653C10.6239 -0.0487185 10.2759 -0.0488435 10.0611 0.14653L4.56114 5.1465C4.45375 5.24413 4.39999 5.37213 4.39999 5.5C4.39999 5.62787 4.45375 5.75587 4.56114 5.8535Z" fill="white" fill-opacity="0.8"/>
</svg>
