<svg width="431" height="170" viewBox="0 0 431 170" fill="none" xmlns="http://www.w3.org/2000/svg">
<mask id="mask0_2_5575" style="mask-type:alpha" maskUnits="userSpaceOnUse" x="0" y="0" width="431" height="170">
<path d="M0.801025 6C0.801025 2.68629 3.48732 0 6.80103 0H424.127C427.441 0 430.127 2.68629 430.127 6V164C430.127 167.314 427.441 170 424.127 170H6.80102C3.48731 170 0.801025 167.314 0.801025 164V6Z" fill="#A9A9A9"/>
</mask>
<g mask="url(#mask0_2_5575)">
<g clip-path="url(#clip0_2_5575)">
<path opacity="0.3" d="M286.285 140.807H208.41L149.923 -37.7961H344.881L286.285 140.807Z" fill="url(#paint0_linear_2_5575)"/>
<path opacity="0.15" d="M297.612 140.807H197.1L113.701 -37.7961H381.01L297.612 140.807Z" fill="url(#paint1_linear_2_5575)"/>
<path d="M301.123 140.807H193.68V265.688H301.123V140.807Z" fill="url(#paint2_linear_2_5575)"/>
<path d="M279.461 140.807H215.342V265.688H279.461V140.807Z" fill="url(#paint3_linear_2_5575)"/>
<path d="M305.347 156.403H189.348C188.914 156.403 188.589 156.078 188.589 155.645V141.565C188.589 141.132 188.914 140.807 189.348 140.807H305.347C305.781 140.807 306.106 141.132 306.106 141.565V155.645C306.214 156.078 305.781 156.403 305.347 156.403Z" fill="url(#paint4_linear_2_5575)"/>
<path d="M301.123 156.403H193.68V162.144H301.123V156.403Z" fill="url(#paint5_linear_2_5575)"/>
<path d="M233.755 156.403V265.796" stroke="url(#paint6_linear_2_5575)" stroke-width="1.0668" stroke-miterlimit="10"/>
<path d="M247.402 156.403V265.796" stroke="url(#paint7_linear_2_5575)" stroke-width="1.0668" stroke-miterlimit="10"/>
<path d="M261.049 156.403V265.796" stroke="url(#paint8_linear_2_5575)" stroke-width="1.0668" stroke-miterlimit="10"/>
<path d="M297.116 42.2448C296.574 40.2952 295.925 38.3456 295.166 36.5044C294.516 35.0964 293.867 33.58 293.108 32.2803C292.459 31.0889 291.7 29.8975 290.834 28.8144C290.076 27.7313 289.209 26.7565 288.343 25.7817C288.018 25.4568 287.693 25.0235 287.368 24.6986L280.869 17.9834C281.194 18.3083 281.519 18.7416 281.844 19.0665C282.711 20.0413 283.577 21.0161 284.335 22.0992C285.202 23.1823 285.96 24.3737 286.61 25.5651C287.368 26.9731 288.126 28.3811 288.668 29.7892C289.426 31.6304 290.076 33.58 290.617 35.5296C292.242 41.8116 292.459 48.6351 291.051 55.8918C290.726 57.7331 290.292 59.4661 289.751 61.199C289.101 63.3652 288.343 65.4231 287.368 67.481C286.61 69.1056 285.852 70.622 284.985 72.1383C284.227 73.5463 283.361 74.8461 282.494 76.1458C281.628 77.3372 280.761 78.5286 279.895 79.72C279.028 80.8031 278.053 81.8862 277.079 82.9693C276.104 84.0524 275.021 85.0272 274.046 86.002C272.963 86.9768 271.88 87.9516 270.688 88.9263C269.497 89.9011 268.197 90.8759 266.897 91.7424C265.381 92.7172 263.973 93.692 262.348 94.4501C260.399 95.5332 258.449 96.3997 256.5 97.2662C249.676 99.9739 242.311 101.382 234.946 101.057C223.79 100.515 214.367 95.9665 207.544 89.0347L214.042 95.7499C220.758 102.79 230.289 107.231 241.445 107.772C248.81 108.205 256.175 106.797 262.998 103.981C264.948 103.223 266.897 102.248 268.847 101.165C270.363 100.299 271.88 99.4324 273.396 98.4576C274.696 97.5911 275.996 96.6163 277.187 95.6416C278.378 94.6668 279.461 93.8003 280.545 92.7172C281.628 91.7424 282.602 90.7676 283.577 89.6845C284.552 88.6014 285.527 87.5183 286.393 86.4352C287.368 85.2438 288.235 84.0524 288.993 82.861C289.859 81.5613 290.726 80.2616 291.484 78.8535C292.35 77.3372 293.108 75.8209 293.867 74.1962C294.733 72.1383 295.6 70.0804 296.249 67.9142C296.791 66.1813 297.224 64.4483 297.549 62.607C298.957 55.3503 298.741 48.4185 297.116 42.2448Z" fill="url(#paint9_linear_2_5575)"/>
<path d="M253.467 5.85273C279.353 7.26075 296.249 29.5726 291.051 55.8919C285.852 82.1028 260.724 102.357 234.838 100.949C208.952 99.5407 192.055 77.2289 197.254 50.9096C202.453 24.6986 227.581 4.55301 253.467 5.85273Z" fill="url(#paint10_linear_2_5575)"/>
<path d="M252.384 11.3766C275.345 12.568 290.184 32.3887 285.635 55.567C281.086 78.7453 258.774 96.6164 235.921 95.425C212.959 94.2336 198.121 74.4129 202.67 51.2346C207.219 28.0563 229.53 10.1852 252.384 11.3766Z" fill="url(#paint11_linear_2_5575)"/>
<path opacity="0.5" d="M215.884 122.502C219.174 122.502 221.841 119.835 221.841 116.545C221.841 113.255 219.174 110.588 215.884 110.588C212.594 110.588 209.927 113.255 209.927 116.545C209.927 119.835 212.594 122.502 215.884 122.502Z" fill="url(#paint12_linear_2_5575)"/>
<path d="M286.501 104.415C287.698 104.415 288.668 103.445 288.668 102.248C288.668 101.052 287.698 100.082 286.501 100.082C285.305 100.082 284.335 101.052 284.335 102.248C284.335 103.445 285.305 104.415 286.501 104.415Z" fill="url(#paint13_linear_2_5575)"/>
<path d="M251.301 133.875C252.318 133.875 253.142 133.051 253.142 132.034C253.142 131.017 252.318 130.192 251.301 130.192C250.284 130.192 249.459 131.017 249.459 132.034C249.459 133.051 250.284 133.875 251.301 133.875Z" fill="url(#paint14_linear_2_5575)"/>
<path d="M186.856 41.2701C187.873 41.2701 188.698 40.4457 188.698 39.4288C188.698 38.4119 187.873 37.5875 186.856 37.5875C185.839 37.5875 185.015 38.4119 185.015 39.4288C185.015 40.4457 185.839 41.2701 186.856 41.2701Z" fill="url(#paint15_linear_2_5575)"/>
<path opacity="0.2" d="M275.995 122.502C277.491 122.502 278.703 121.29 278.703 119.795C278.703 118.299 277.491 117.087 275.995 117.087C274.5 117.087 273.288 118.299 273.288 119.795C273.288 121.29 274.5 122.502 275.995 122.502Z" fill="url(#paint16_linear_2_5575)"/>
<path opacity="0.3" d="M303.831 33.6883C305.326 33.6883 306.539 32.476 306.539 30.9806C306.539 29.4851 305.326 28.2728 303.831 28.2728C302.336 28.2728 301.123 29.4851 301.123 30.9806C301.123 32.476 302.336 33.6883 303.831 33.6883Z" fill="url(#paint17_linear_2_5575)"/>
<g filter="url(#filter0_d_2_5575)">
<path d="M247.825 28.2728C260.76 28.2728 270.195 38.6928 268.915 51.5645C267.635 64.4362 256.127 74.8562 243.192 74.8562C230.257 74.8562 220.874 64.3891 222.149 51.5645C223.429 38.6928 234.937 28.2728 247.825 28.2728Z" fill="#DB2728"/>
<path d="M240.653 47.5106C240.013 46.8033 239.268 46.1904 238.462 45.7189L238.064 49.7266C239.392 51.1411 240.095 53.1213 239.875 55.3373L239.87 55.3845C239.711 56.9876 239.087 58.4963 238.112 59.7222C238.587 60.6652 239.313 61.4667 240.157 62.0325C241.761 60.1937 242.844 57.8834 243.092 55.3845L243.097 55.3373C243.402 52.2727 242.446 49.4908 240.653 47.5106ZM233.979 62.6926C233.093 63.0227 232.131 63.1641 231.184 63.1641C226.825 63.1641 223.623 59.6279 224.054 55.2902C224.485 50.9525 228.391 47.4163 232.75 47.4163C232.987 47.4163 233.224 47.4163 233.409 47.4634L233.727 44.2573C233.491 44.2573 233.254 44.2573 233.064 44.2573C226.909 44.2101 221.442 49.1608 220.832 55.2902C220.222 61.4196 224.705 66.3703 230.865 66.3703C232.665 66.3703 234.413 65.9459 236.004 65.1915C235.227 64.4371 234.548 63.6356 233.979 62.6926Z" fill="#DB2728"/>
<path d="M230.722 67.7838C223.804 67.7838 218.724 62.1731 219.409 55.2893C220.093 48.4055 226.29 42.7948 233.208 42.7948C233.444 42.7948 233.729 42.7948 233.966 42.7948C234.719 42.8419 235.227 43.4549 235.152 44.2093L234.833 47.4154C234.795 47.7926 234.564 48.217 234.256 48.4527C233.943 48.7356 233.508 48.8299 233.128 48.8299C232.986 48.8299 232.802 48.7827 232.612 48.7827C229.011 48.7827 225.835 51.6588 225.478 55.2422C225.122 58.8255 227.721 61.7488 231.322 61.7488C232.128 61.7488 232.9 61.6073 233.639 61.3244C234.278 61.0887 234.966 61.3244 235.246 61.8431C235.735 62.6446 236.323 63.399 237.063 64.0591C237.414 64.342 237.556 64.8134 237.462 65.2849C237.368 65.7564 237.041 66.1808 236.596 66.3694C234.702 67.3124 232.712 67.7838 230.722 67.7838ZM232.163 45.6709C227.151 46.0481 222.758 50.1972 222.252 55.2893C221.722 60.6172 225.649 64.9549 231.003 64.9549C231.856 64.9549 232.671 64.8606 233.5 64.6249C233.415 64.5306 233.334 64.3891 233.249 64.2948C232.519 64.4834 231.752 64.5777 230.994 64.5777C225.876 64.5777 222.119 60.4286 222.631 55.2893C223.114 50.433 227.307 46.3781 232.173 46.0481L232.211 45.6709H232.163ZM240.019 63.399C239.782 63.399 239.507 63.3047 239.284 63.1632C238.265 62.456 237.411 61.513 236.813 60.3814C236.575 59.9099 236.636 59.297 237.01 58.8727C237.824 57.8354 238.325 56.6095 238.456 55.2893C238.63 53.5448 238.13 51.8946 236.973 50.6687C236.717 50.3858 236.608 50.0558 236.645 49.6786L237.044 45.6709C237.095 45.1523 237.426 44.6808 237.876 44.445C238.326 44.2093 238.895 44.2093 239.298 44.445C240.237 45.0108 241.066 45.718 241.75 46.4724C243.837 48.8299 244.854 51.9417 244.526 55.2422C244.249 58.024 243.091 60.6172 241.217 62.786C240.89 63.2104 240.445 63.399 240.019 63.399ZM239.83 59.5799C239.915 59.6742 240.001 59.7685 240.086 59.8628C240.985 58.4483 241.566 56.8924 241.725 55.2893C241.979 52.7433 241.27 50.3387 239.648 48.547L239.592 49.1128C240.939 50.8102 241.576 52.979 241.346 55.2893C241.149 56.7981 240.62 58.3069 239.83 59.5799Z" fill="#DB2728"/>
<path d="M244.773 38.4567H241.551L239.877 55.2889H243.099L244.773 38.4567Z" fill="#DB2728"/>
<path d="M243.018 56.1363H239.796C239.37 56.1363 239.028 55.7591 239.07 55.3347L240.749 38.4553C240.791 38.031 241.208 37.6538 241.634 37.6538H244.856C245.283 37.6538 245.624 38.031 245.582 38.4553L243.908 55.2876C243.861 55.7591 243.444 56.1363 243.018 56.1363ZM240.761 54.5332H242.372L243.891 39.2569H242.28L240.761 54.5332Z" fill="#DB2728"/>
<path d="M258.584 32.0428C252.424 32.0428 246.957 36.9935 246.347 43.1229C246.047 46.1404 247.002 48.9222 248.795 50.9025C249.649 51.8455 250.707 52.647 251.882 53.2128L252.248 49.5352C250.351 48.1207 249.307 45.7633 249.569 43.1229C250.001 38.7852 253.906 35.249 258.265 35.249C262.624 35.249 265.826 38.7852 265.395 43.1229C264.973 47.3663 261.214 50.8554 256.983 50.9968L256.664 54.2029C262.696 54.0615 268.016 49.158 268.617 43.1229C269.226 36.9935 264.744 32.0428 258.584 32.0428Z" fill="#DB2728"/>
<path d="M256.521 55.6198C256.142 55.6198 255.824 55.4783 255.568 55.1954C255.312 54.9125 255.203 54.5825 255.24 54.2053L255.559 50.9992C255.634 50.2448 256.311 49.6318 257.074 49.5847C260.59 49.4904 263.624 46.6143 263.971 43.1253C264.327 39.5419 261.723 36.6658 258.122 36.6658C254.521 36.6658 251.345 39.5419 250.988 43.1253C250.782 45.1998 251.627 47.1801 253.211 48.406C253.562 48.6889 253.757 49.1132 253.715 49.5375L253.349 53.2152C253.302 53.6867 253.018 54.1582 252.568 54.3939C252.114 54.6768 251.64 54.6768 251.185 54.4882C249.872 53.8753 248.681 52.9794 247.699 51.895C245.565 49.5375 244.595 46.4257 244.923 43.1253C245.608 36.2415 251.804 30.6307 258.722 30.6307C265.64 30.6307 270.72 36.2415 270.036 43.1253C269.403 49.9619 263.458 55.4312 256.521 55.6198C256.568 55.6198 256.568 55.6198 256.521 55.6198ZM258.275 52.2722L258.238 52.6494C262.866 51.8479 266.724 47.8402 267.193 43.1253C267.723 37.7974 263.795 33.4597 258.441 33.4597C253.087 33.4597 248.296 37.7974 247.766 43.1253C247.513 45.6713 248.264 48.1231 249.886 49.9147C250.143 50.1976 250.399 50.4805 250.707 50.7163L250.754 50.2448C248.843 48.5003 247.869 45.9071 248.145 43.1253C248.656 37.986 253.239 33.8369 258.403 33.8369C263.568 33.8369 267.325 37.986 266.814 43.1253C266.406 47.6987 262.762 51.4707 258.275 52.2722Z" fill="#DB2728"/>
<path d="M249.569 43.1228H246.347L244.673 59.955H247.895L249.569 43.1228Z" fill="#DB2728"/>
<path d="M247.813 60.7627H244.591C244.165 60.7627 243.823 60.3855 243.866 59.9612L245.54 43.1289C245.582 42.7046 245.998 42.3274 246.425 42.3274H249.647C250.073 42.3274 250.415 42.7046 250.373 43.1289L248.698 59.9612C248.652 60.4327 248.287 60.7627 247.813 60.7627ZM245.556 59.1596H247.167L248.682 43.9305H247.071L245.556 59.1596Z" fill="#DB2728"/>
<path d="M238.13 40.954L237.834 43.9244L236.629 56.0417C236.198 60.3794 239.4 63.9156 243.759 63.9156C248.118 63.9156 252.023 60.3794 252.455 56.0417L253.529 45.2446H256.751L255.677 56.0417L255.494 57.8805L254.42 68.6777C254.27 70.1865 253.845 71.6009 253.145 72.9211C251.088 76.9288 246.827 79.7577 242.183 79.7577C238.914 79.7577 236.16 78.3904 234.343 76.1744C233.664 75.3729 233.137 74.477 232.762 73.4869L235.47 71.0351C235.694 72.1196 236.164 73.1097 236.842 73.9112C238.147 75.5615 240.133 76.5516 242.502 76.5516C246.861 76.5516 250.767 73.0154 251.198 68.6777L251.681 63.8213C249.442 65.8487 246.52 67.1218 243.44 67.1218C237.565 67.1218 233.225 62.6426 233.37 56.8904H233.323L234.575 44.3016C234.589 44.1601 234.598 44.0658 234.613 43.9244L234.908 40.954H238.13V40.954Z" fill="#DB2728"/>
<path d="M242.108 80.5107C238.792 80.5107 235.71 79.0962 233.68 76.6444C232.959 75.7957 232.394 74.8056 231.976 73.7683C231.867 73.4383 231.947 73.1082 232.207 72.8725L234.915 70.4207C235.123 70.2321 235.417 70.1378 235.692 70.2321C235.971 70.2793 236.137 70.515 236.209 70.7508C236.395 71.7409 236.831 72.5896 237.42 73.344C238.596 74.8528 240.455 75.7014 242.492 75.7014C246.425 75.7014 249.913 72.5425 250.303 68.6291L250.607 65.5644C248.42 67.0732 245.872 67.9218 243.266 67.9218C237.153 67.9218 232.453 63.2541 232.437 57.219C232.499 57.0775 232.508 56.9832 232.518 56.8889L233.77 44.3001C233.779 44.2058 233.788 44.1115 233.798 44.0172C233.803 43.9701 233.803 43.9701 233.807 43.9229L234.103 40.9525C234.145 40.5282 234.561 40.151 234.988 40.151H238.21C238.636 40.151 238.978 40.5282 238.936 40.9525L237.444 55.946C237.44 55.9931 237.44 55.9931 237.435 56.0403C237.046 59.9536 239.906 63.1126 243.839 63.1126C247.772 63.1126 251.26 59.9536 251.65 56.0403L252.723 45.2431C252.766 44.8188 253.182 44.4416 253.609 44.4416H256.831C257.257 44.4416 257.599 44.8188 257.556 45.2431L255.23 68.6291C255.071 70.2321 254.637 71.7409 253.875 73.2025C251.587 77.6346 246.941 80.5107 242.108 80.5107ZM233.748 73.5797C234.057 74.287 234.512 74.9471 235.02 75.56C236.751 77.6817 239.425 78.9076 242.315 78.9076C246.485 78.9076 250.477 76.4087 252.467 72.5896C253.11 71.3637 253.531 69.9964 253.667 68.6291L255.913 46.0446H254.302L253.308 56.0403C252.83 60.8495 248.512 64.7157 243.727 64.7157C238.941 64.7157 235.44 60.8495 235.862 56.1346C235.867 56.0874 235.867 56.0874 235.871 56.0403L237.292 41.7541H235.681L235.48 43.7815C235.475 43.8286 235.47 43.8758 235.466 43.9229C235.452 44.0644 235.442 44.1587 235.428 44.3001L234.199 56.6532C234.195 56.7003 234.237 56.7475 234.228 56.8418C234.125 62.1696 238.213 66.3188 243.567 66.3188C246.363 66.3188 249.077 65.2343 251.216 63.2541C251.477 63.0183 251.813 62.9712 252.135 63.0655C252.406 63.2069 252.614 63.4898 252.581 63.8199L252.103 68.6291C251.625 73.4383 247.308 77.3045 242.522 77.3045C240.011 77.3045 237.75 76.2201 236.274 74.3813C235.814 73.7683 235.406 73.1082 235.144 72.401L233.748 73.5797Z" fill="#DB2728"/>
<path d="M242 81.5988C238.351 81.5988 234.995 80.0901 232.798 77.4026C232.039 76.4596 231.389 75.3752 230.98 74.2436C230.719 73.5363 230.95 72.6405 231.575 72.0747L234.283 69.623C234.804 69.1515 235.486 68.9629 236.135 69.1043C236.784 69.2458 237.206 69.7644 237.382 70.3773C237.54 71.1789 237.891 71.9333 238.394 72.5934C239.405 73.8664 240.988 74.6208 242.694 74.6208C246.01 74.6208 248.978 71.9333 249.307 68.6328L249.414 67.5484C247.473 68.4914 245.384 69.01 243.252 69.01C236.618 69.01 231.529 63.9651 231.465 57.4585C231.437 57.2699 231.403 57.1284 231.422 56.9398L232.679 44.3039C232.688 44.2096 232.698 44.1153 232.702 44.0681C232.707 44.021 232.712 43.9738 232.716 43.9267L233.012 40.9563C233.115 39.919 234.052 39.0703 235.095 39.0703H238.317C239.359 39.0703 240.128 39.919 240.024 40.9563L238.538 55.9026C238.533 55.9497 238.528 55.9969 238.524 56.044C238.195 59.3444 240.629 62.0319 243.946 62.0319C247.262 62.0319 250.23 59.3444 250.559 56.044L251.633 45.2469C251.736 44.2096 252.673 43.3609 253.715 43.3609H256.937C257.98 43.3609 258.748 44.2096 258.645 45.2469L256.319 68.6328C256.146 70.3773 255.65 72.0276 254.827 73.6306C252.311 78.4398 247.259 81.5988 242 81.5988ZM251.868 61.9376C252.105 61.9376 252.337 61.9848 252.564 62.0791C252.792 62.1734 252.967 62.3148 253.143 62.4563L253.457 59.2973C253.032 60.2403 252.469 61.1361 251.773 61.9376C251.773 61.9376 251.82 61.9376 251.868 61.9376Z" fill="#DB2728"/>
<path d="M240.653 47.5106C240.013 46.8033 239.268 46.1904 238.462 45.7189L238.064 49.7266C239.392 51.1411 240.095 53.1213 239.875 55.3373L239.87 55.3845C239.711 56.9876 239.087 58.4963 238.112 59.7222C238.587 60.6652 239.313 61.4667 240.157 62.0325C241.761 60.1937 242.844 57.8834 243.092 55.3845L243.097 55.3373C243.402 52.2727 242.446 49.4908 240.653 47.5106ZM233.979 62.6926C233.093 63.0227 232.131 63.1641 231.184 63.1641C226.825 63.1641 223.623 59.6279 224.054 55.2902C224.485 50.9525 228.391 47.4163 232.75 47.4163C232.987 47.4163 233.224 47.4163 233.409 47.4634L233.727 44.2573C233.491 44.2573 233.254 44.2573 233.064 44.2573C226.909 44.2101 221.442 49.1608 220.832 55.2902C220.222 61.4196 224.705 66.3703 230.865 66.3703C232.665 66.3703 234.413 65.9459 236.004 65.1915C235.227 64.4371 234.548 63.6356 233.979 62.6926Z" fill="white"/>
<path d="M244.773 38.4567H241.551L239.877 55.2889H243.099L244.773 38.4567Z" fill="white"/>
<path d="M258.584 32.0428C252.424 32.0428 246.957 36.9935 246.347 43.1229C246.047 46.1404 247.002 48.9222 248.795 50.9025C249.649 51.8455 250.707 52.647 251.882 53.2128L252.248 49.5352C250.351 48.1207 249.307 45.7633 249.569 43.1229C250.001 38.7852 253.906 35.249 258.265 35.249C262.624 35.249 265.826 38.7852 265.395 43.1229C264.973 47.3663 261.214 50.8554 256.983 50.9968L256.664 54.2029C262.696 54.0615 268.016 49.158 268.617 43.1229C269.226 36.9935 264.744 32.0428 258.584 32.0428Z" fill="white"/>
<path d="M249.569 43.1228H246.347L244.673 59.955H247.895L249.569 43.1228Z" fill="white"/>
<path d="M238.13 40.954L237.834 43.9244L236.629 56.0417C236.198 60.3794 239.4 63.9156 243.759 63.9156C248.118 63.9156 252.023 60.3794 252.455 56.0417L253.529 45.2446H256.751L255.677 56.0417L255.494 57.8805L254.42 68.6777C254.27 70.1865 253.845 71.6009 253.145 72.9211C251.088 76.9288 246.827 79.7577 242.183 79.7577C238.914 79.7577 236.16 78.3904 234.343 76.1744C233.664 75.3729 233.137 74.477 232.762 73.4869L235.47 71.0351C235.694 72.1196 236.164 73.1097 236.842 73.9112C238.147 75.5615 240.133 76.5516 242.502 76.5516C246.861 76.5516 250.767 73.0154 251.198 68.6777L251.681 63.8213C249.442 65.8487 246.52 67.1218 243.44 67.1218C237.565 67.1218 233.225 62.6426 233.37 56.8904H233.323L234.575 44.3016C234.589 44.1601 234.598 44.0658 234.613 43.9244L234.908 40.954H238.13V40.954Z" fill="white"/>
</g>
</g>
</g>
<defs>
<filter id="filter0_d_2_5575" x="203.347" y="14.2728" width="82.7505" height="85.326" filterUnits="userSpaceOnUse" color-interpolation-filters="sRGB">
<feFlood flood-opacity="0" result="BackgroundImageFix"/>
<feColorMatrix in="SourceAlpha" type="matrix" values="0 0 0 0 0 0 0 0 0 0 0 0 0 0 0 0 0 0 127 0" result="hardAlpha"/>
<feOffset dy="2"/>
<feGaussianBlur stdDeviation="8"/>
<feComposite in2="hardAlpha" operator="out"/>
<feColorMatrix type="matrix" values="0 0 0 0 0 0 0 0 0 0 0 0 0 0 0 0 0 0 0.12 0"/>
<feBlend mode="normal" in2="BackgroundImageFix" result="effect1_dropShadow_2_5575"/>
<feBlend mode="normal" in="SourceGraphic" in2="effect1_dropShadow_2_5575" result="shape"/>
</filter>
<linearGradient id="paint0_linear_2_5575" x1="247.394" y1="140.857" x2="247.394" y2="-34.1236" gradientUnits="userSpaceOnUse">
<stop stop-color="#FF8A9F"/>
<stop offset="1" stop-color="#79D3FD" stop-opacity="0"/>
</linearGradient>
<linearGradient id="paint1_linear_2_5575" x1="247.348" y1="140.857" x2="247.348" y2="-34.1236" gradientUnits="userSpaceOnUse">
<stop stop-color="#FF8A8A"/>
<stop offset="1" stop-color="#79D3FD" stop-opacity="0"/>
</linearGradient>
<linearGradient id="paint2_linear_2_5575" x1="247.394" y1="289.774" x2="247.394" y2="153.998" gradientUnits="userSpaceOnUse">
<stop stop-color="#9A8AFF"/>
<stop offset="1" stop-color="#423BFD"/>
</linearGradient>
<linearGradient id="paint3_linear_2_5575" x1="247.394" y1="265.509" x2="247.394" y2="159.76" gradientUnits="userSpaceOnUse">
<stop stop-color="#AF8AFF"/>
<stop offset="1" stop-color="#799EFD"/>
</linearGradient>
<linearGradient id="paint4_linear_2_5575" x1="188.617" y1="148.645" x2="306.172" y2="148.645" gradientUnits="userSpaceOnUse">
<stop stop-color="#C58AFF"/>
<stop offset="1" stop-color="#7C79FD"/>
</linearGradient>
<linearGradient id="paint5_linear_2_5575" x1="192.222" y1="159.311" x2="330.919" y2="159.311" gradientUnits="userSpaceOnUse">
<stop stop-color="#522E9D"/>
<stop offset="1" stop-color="#A379FD"/>
</linearGradient>
<linearGradient id="paint6_linear_2_5575" x1="-nan" y1="-nan" x2="-nan" y2="-nan" gradientUnits="userSpaceOnUse">
<stop stop-color="#7C79FD"/>
<stop offset="1" stop-color="white"/>
</linearGradient>
<linearGradient id="paint7_linear_2_5575" x1="-nan" y1="-nan" x2="-nan" y2="-nan" gradientUnits="userSpaceOnUse">
<stop stop-color="#7C79FD"/>
<stop offset="1" stop-color="white"/>
</linearGradient>
<linearGradient id="paint8_linear_2_5575" x1="-nan" y1="-nan" x2="-nan" y2="-nan" gradientUnits="userSpaceOnUse">
<stop stop-color="#7C79FD"/>
<stop offset="1" stop-color="white"/>
</linearGradient>
<linearGradient id="paint9_linear_2_5575" x1="268.052" y1="49.2245" x2="240.321" y2="100.931" gradientUnits="userSpaceOnUse">
<stop stop-color="#F9DD68"/>
<stop offset="1" stop-color="#F9A942"/>
</linearGradient>
<linearGradient id="paint10_linear_2_5575" x1="196.329" y1="53.4214" x2="292.005" y2="53.4214" gradientUnits="userSpaceOnUse">
<stop stop-color="#F9DD68"/>
<stop offset="1" stop-color="#F9A942"/>
</linearGradient>
<linearGradient id="paint11_linear_2_5575" x1="201.847" y1="53.4214" x2="286.487" y2="53.4214" gradientUnits="userSpaceOnUse">
<stop stop-color="#F9DD68"/>
<stop offset="1" stop-color="#F9A942"/>
</linearGradient>
<linearGradient id="paint12_linear_2_5575" x1="209.961" y1="116.588" x2="221.808" y2="116.588" gradientUnits="userSpaceOnUse">
<stop stop-color="#F9DD68"/>
<stop offset="1" stop-color="#F9A942"/>
</linearGradient>
<linearGradient id="paint13_linear_2_5575" x1="284.282" y1="102.196" x2="288.692" y2="102.196" gradientUnits="userSpaceOnUse">
<stop stop-color="#F9DD68"/>
<stop offset="1" stop-color="#F9A942"/>
</linearGradient>
<linearGradient id="paint14_linear_2_5575" x1="249.47" y1="132.055" x2="253.054" y2="132.055" gradientUnits="userSpaceOnUse">
<stop stop-color="#F9DD68"/>
<stop offset="1" stop-color="#F9A942"/>
</linearGradient>
<linearGradient id="paint15_linear_2_5575" x1="185.033" y1="39.4703" x2="188.617" y2="39.4703" gradientUnits="userSpaceOnUse">
<stop stop-color="#F9DD68"/>
<stop offset="1" stop-color="#F9A942"/>
</linearGradient>
<linearGradient id="paint16_linear_2_5575" x1="273.231" y1="119.8" x2="278.654" y2="119.8" gradientUnits="userSpaceOnUse">
<stop stop-color="#F9DD68"/>
<stop offset="1" stop-color="#F9A942"/>
</linearGradient>
<linearGradient id="paint17_linear_2_5575" x1="301.107" y1="30.953" x2="306.53" y2="30.953" gradientUnits="userSpaceOnUse">
<stop stop-color="#F9DD68"/>
<stop offset="1" stop-color="#F9A942"/>
</linearGradient>
<clipPath id="clip0_2_5575">
<rect width="267.309" height="303.592" fill="white" transform="translate(113.747 -37.7961)"/>
</clipPath>
</defs>
</svg>
