<svg width="30" height="30" viewBox="0 0 30 30" fill="none" xmlns="http://www.w3.org/2000/svg">
<circle cx="15" cy="15" r="15" fill="white"/>
<g clip-path="url(#clip0_2_60)">
<path d="M12.5554 17.9777C12.6892 18.2159 12.8231 18.4467 12.9569 18.6774C13.1131 18.9529 13.0611 19.1687 12.7785 19.3325C12.4885 19.4963 12.2059 19.6675 11.9159 19.8387C12.3174 20.5459 12.719 21.2159 13.0759 21.9082C13.3808 22.5037 13.1875 23.2407 12.6818 23.6576C12.1761 24.0819 11.4176 24.134 10.8896 23.7246C10.674 23.5534 10.4881 23.3152 10.3468 23.0769C9.79648 22.1539 9.26106 21.2159 8.72564 20.2779C8.62153 20.0918 8.53229 20.0323 8.29432 20.0918C6.99296 20.4343 5.72133 19.8089 5.20822 18.603C4.69511 17.3821 5.14129 16.0273 6.32368 15.3276C7.21605 14.7916 8.13072 14.3003 9.01566 13.7568C9.2908 13.5856 9.55851 13.3623 9.7593 13.1092C11.2763 11.196 12.7785 9.27545 14.2806 7.34741C14.5409 7.01242 14.8532 6.7891 15.2845 6.80399C15.7233 6.81887 16.0505 7.05709 16.2661 7.43674C16.6603 8.1216 17.0618 8.80647 17.4485 9.49877C17.5452 9.66999 17.6493 9.74443 17.8575 9.7221C18.1996 9.68488 18.5491 9.69232 18.8986 9.66255C19.1515 9.64021 19.3151 9.73699 19.4415 9.96031C19.6348 10.3176 19.8431 10.675 20.0513 11.0248C20.1777 11.2258 20.1926 11.4119 20.0438 11.6055C20.0215 11.6353 20.0067 11.665 19.9843 11.7022C19.7687 12.0447 19.3969 12.3871 19.3894 12.737C19.382 13.0869 19.7389 13.4516 19.9397 13.8089C20.1256 14.129 20.3115 14.4491 20.4975 14.7767C20.9511 15.603 20.5644 16.3772 19.6423 16.5484C17.3221 16.9876 15.002 17.4491 12.6818 17.9032C12.6521 17.9032 12.6223 17.933 12.5554 17.9777ZM14.2955 8.47892C14.2434 8.59059 14.2286 8.6427 14.1988 8.67992C12.9049 10.3251 11.6184 11.9777 10.317 13.6228C10.1832 13.7941 10.198 13.9132 10.2947 14.0844C10.8524 15.0372 11.4102 15.9901 11.9456 16.9504C12.0795 17.1886 12.2133 17.2482 12.4736 17.196C13.827 16.9206 15.1879 16.6601 16.5487 16.3921C17.218 16.2581 17.8947 16.1241 18.6086 15.9752C17.1734 13.474 15.7605 11.0323 14.2955 8.47892ZM9.56595 14.3003C8.53229 14.9032 7.49863 15.469 6.51703 16.1018C5.71389 16.6228 5.52798 17.6874 5.99648 18.5137C6.4501 19.3102 7.47632 19.7047 8.3092 19.2879C9.36517 18.7593 10.3765 18.134 11.4399 17.531C10.8078 16.4442 10.198 15.3871 9.56595 14.3003ZM19.4415 15.7965C19.9174 15.7817 20.0364 15.469 19.8059 15.067C18.4376 12.6849 17.0618 10.3027 15.6861 7.92061C15.6341 7.83872 15.5969 7.70473 15.5225 7.6824C15.3663 7.63773 15.1656 7.59307 15.0317 7.65262C14.8607 7.72706 14.7937 7.89828 14.935 8.10671C15.2102 8.53103 15.4481 8.98513 15.701 9.42433C16.8759 11.464 18.0509 13.5037 19.2258 15.536C19.2928 15.6477 19.3969 15.7444 19.4415 15.7965ZM9.23131 19.6675C9.85597 20.7469 10.4434 21.7965 11.0607 22.8238C11.1722 23.0025 11.3953 23.1588 11.5961 23.2333C11.8712 23.33 12.1315 23.2109 12.3174 22.9727C12.5108 22.7196 12.5331 22.4367 12.3769 22.1687C11.7746 21.1042 11.1573 20.0472 10.5401 18.9901C10.5327 18.9752 10.4955 18.9678 10.4658 18.9529C10.0642 19.1762 9.66262 19.4144 9.23131 19.6675ZM18.8763 11.9553C19.4043 11.3226 19.4192 11.2333 18.9284 10.5707C18.6904 10.2506 18.3632 10.4963 18.0063 10.4367C18.326 10.9951 18.5937 11.464 18.8763 11.9553ZM12.1687 18.8114C12.0423 18.5955 11.9233 18.3946 11.7969 18.1787C11.5738 18.3052 11.3804 18.4243 11.1573 18.5434C11.2912 18.7742 11.4027 18.9678 11.5292 19.1836C11.7671 19.0496 11.953 18.938 12.1687 18.8114Z" fill="#E30613"/>
<path d="M21.5386 9.46155C21.4642 9.39455 21.3006 9.32011 21.2783 9.20845C21.2485 9.08189 21.3006 8.85113 21.3898 8.79902C22.0963 8.3747 22.825 7.97271 23.5613 7.6005C23.6505 7.55584 23.9033 7.6675 23.9777 7.77172C24.0372 7.86105 23.9926 8.13649 23.9108 8.18115C23.182 8.61291 22.4309 9.02234 21.6873 9.43177C21.6575 9.43921 21.6278 9.43921 21.5386 9.46155Z" fill="#E30613"/>
<path d="M19.2333 7.80895C19.3969 7.22086 19.5159 6.70721 19.6943 6.20845C19.7315 6.09679 20.0067 5.97024 20.0959 6.00746C20.2223 6.05957 20.3859 6.29034 20.3636 6.41689C20.2744 6.91565 20.1405 7.40696 19.9695 7.88339C19.9249 8.0025 19.6869 8.1216 19.5456 8.11416C19.4341 8.09927 19.3299 7.90572 19.2333 7.80895Z" fill="#E30613"/>
<path d="M23.2117 12.2085C22.6317 12.0447 22.1037 11.9181 21.5906 11.7395C21.4865 11.7023 21.3675 11.464 21.3973 11.3598C21.4344 11.2333 21.6501 11.0546 21.7468 11.0769C22.2748 11.1812 22.8027 11.3226 23.3158 11.4938C23.42 11.531 23.5092 11.7767 23.4943 11.9107C23.4869 12.0224 23.3084 12.1191 23.2117 12.2085Z" fill="#E30613"/>
</g>
<defs>
<clipPath id="clip0_2_60">
<rect width="19" height="18" fill="white" transform="translate(5 6)"/>
</clipPath>
</defs>
</svg>
