<svg width="84" height="84" viewBox="0 0 84 84" fill="none" xmlns="http://www.w3.org/2000/svg">
<g clip-path="url(#clip0_0_4619)">
<path d="M28.2059 38.4723L32.9115 36.7758L27.2303 21.017C26.7677 19.7337 27.4489 18.3031 28.7532 17.8329C30.0575 17.3627 31.4936 18.026 31.9575 19.3128L32.7688 21.5631L37.478 19.8653L36.6667 17.6151C35.2801 13.7687 30.9816 11.7835 27.0831 13.1889C23.1846 14.5944 21.1416 18.8658 22.5283 22.7122L28.2095 38.471L28.2059 38.4723Z" fill="#454A4C"/>
<path d="M29.4774 17.5718C30.7817 17.1015 32.2178 17.7648 32.6818 19.0517L33.493 21.3019L32.7724 21.5617L31.9611 19.3115C31.5421 18.149 30.3215 17.4964 29.1287 17.7337C29.2376 17.6743 29.3513 17.6172 29.4774 17.5718Z" fill="#222526"/>
<path d="M27.0831 13.1889C27.2056 13.1448 27.3283 13.1126 27.4498 13.0768C23.7849 14.6109 21.9022 18.7281 23.2453 22.4537L28.9265 38.2125L28.2059 38.4723L22.5247 22.7135C21.138 18.8671 23.1846 14.5944 27.0831 13.1889Z" fill="#222526"/>
<path d="M52.9373 39.1327C52.6482 39.0763 52.4137 39.0243 52.0511 38.8657C54.5081 40.0005 55.9958 40.5809 58.3093 41.0242C56.7783 40.7526 55.2826 40.0707 53.9514 39.45C53.6375 39.3021 53.2942 39.1969 52.9373 39.1327Z" fill="#BCBCBC"/>
<path d="M54.0773 39.3363L52.9385 39.1362C53.2954 39.2004 53.6374 39.302 53.9513 39.4499C55.2861 40.0694 56.7832 40.7548 58.3093 41.0241C58.6904 41.0875 59.0692 41.1558 59.4481 41.2241C57.9171 40.9526 56.4249 40.2694 55.0901 39.65C54.7762 39.502 54.4342 39.4004 54.0773 39.3363Z" fill="#BCBCBC"/>
<path d="M52.1986 41.1381C52.3676 40.9406 52.4135 40.6951 52.311 40.4107C54.6621 37.6832 58.0715 36.9763 60.3343 38.0243C63.3019 39.4008 66.7696 40.8661 69.2121 37.9289C69.8315 37.2075 70.4384 36.1693 71.0242 34.6887C75.5036 24.1884 57.4725 9.23858 56.4692 8.49965C56.7371 7.80856 56.3982 7.08316 55.6435 6.49162C57.2748 7.7754 59.6408 9.97928 60.6502 11.0173C62.0004 12.4024 62.5045 12.9196 63.3267 13.8564C64.8869 15.6318 65.8139 16.8481 66.0589 17.1775C67.1492 18.6322 70.4629 23.0693 71.5685 27.7963C71.7023 28.3707 71.834 29.1427 71.8942 29.7275C71.9494 30.2419 71.9331 30.9306 71.9483 31.4473C71.9654 31.9915 71.8008 32.7096 71.7222 33.2481C71.6423 33.783 71.3523 34.458 71.1823 34.9691C71.1299 35.1286 71.0543 35.2804 70.9921 35.4354C70.764 35.9997 70.3307 36.8307 70.1987 37.063C69.4227 38.4113 68.6089 39.3273 67.5489 40.0348C66.958 40.4286 65.6861 41.1242 63.7757 41.3589C61.9861 41.5783 60.6543 41.4077 59.4455 41.2169C57.9145 40.9453 56.4224 40.2621 55.0876 39.6427C54.7773 39.4935 54.4353 39.3918 54.0747 39.329C54.1997 39.3482 54.5287 39.4023 54.7798 39.3761C54.2276 39.4707 53.576 39.9105 53.3635 40.0554C52.872 40.3973 52.4673 40.8444 52.1986 41.1381Z" fill="#BCBCBC"/>
<path d="M48.9097 44.9913C50.0064 43.7082 51.1019 42.4215 52.2022 41.1371C52.3712 40.9395 52.4171 40.6941 52.3109 40.411L49.0184 44.2652C49.1209 44.5496 49.0787 44.7938 48.9097 44.9913Z" fill="#BCBCBC"/>
<path d="M37.0958 13.4634C37.1133 13.4892 37.1405 13.5196 37.1567 13.5419C37.1554 13.5383 37.1964 13.4713 37.2853 13.3228C37.1123 13.2044 37.0548 13.1126 37.0981 13.0408C37.0138 13.1796 36.9659 13.2612 37.0958 13.4634Z" fill="#BCBCBC"/>
<path d="M43.5785 51.2311C44.4696 50.1909 45.3572 49.1519 46.2434 48.1093C47.131 47.0703 48.0221 46.03 48.9084 44.9875C49.0774 44.79 49.1209 44.5493 49.0184 44.2649L43.6872 50.5051C43.7897 50.7894 43.7475 51.0336 43.5785 51.2311Z" fill="#BCBCBC"/>
<path d="M37.0855 13.0736C37.0071 13.624 36.9274 14.171 36.849 14.7214L36.7831 15.171C36.7356 15.5135 36.6845 15.8573 36.6346 16.2046C36.5762 16.6073 36.5178 17.01 36.4607 17.4162C36.5134 17.0316 37.8504 16.9795 39.8852 17.3385L40.4848 13.1857C38.4513 12.8303 37.1247 12.7984 37.0855 13.0736Z" fill="#BCBCBC"/>
<path d="M50.1479 5.01426C49.2107 5.03478 48.8964 5.04367 47.8616 5.19982C47.2343 5.28938 46.6234 5.46946 46.1735 5.59949C45.9823 5.65637 45.2519 5.91165 44.733 6.15496C43.9722 6.51763 43.6758 6.70078 43.0868 7.06578C42.4069 7.48362 41.1915 8.40381 39.9891 9.60852C39.771 9.82777 39.1852 10.4165 38.4801 11.2612C38.3064 11.4684 38.0431 11.7883 37.7555 12.1651C37.521 12.4746 37.2976 12.7922 37.068 13.1039C37.0644 13.1052 37.0644 13.1052 37.0656 13.1088C37.1545 13.0165 37.368 12.8069 38.8179 12.9551C39.2955 13.0038 39.8573 13.0825 40.4838 13.194C40.5201 13.1368 41.188 12.0645 42.3958 10.6489C44.412 8.29118 47.8182 5.14718 51.6835 5.15158C51.1601 5.05506 50.6475 5.0109 50.1479 5.01426Z" fill="#D1D1D1"/>
<path d="M41.62 13.387L40.4812 13.187L39.8828 17.3433L41.0216 17.5433L41.62 13.387Z" fill="#BCBCBC"/>
<path d="M52.821 5.34806L51.6822 5.14804C47.8205 5.14234 44.4108 8.28764 42.3946 10.6454C41.1891 12.0561 40.5189 13.1332 40.4825 13.1905L41.6213 13.3905C41.6577 13.3332 42.3256 12.2609 43.5346 10.849C45.5496 8.48766 48.9593 5.34236 52.821 5.34806Z" fill="#D1D1D1"/>
<path d="M43.503 13.777C45.656 14.2943 46.9721 14.828 47.4182 15.3541C47.4257 15.3634 47.9566 14.5775 48.8017 13.59C50.6252 11.4544 53.6741 8.65207 56.4754 8.50581C56.9766 7.20841 55.3427 5.79303 52.8223 5.35197C48.9606 5.34627 45.5509 8.49157 43.5382 10.848C42.3292 12.26 41.6612 13.3323 41.6249 13.3896C42.2514 13.5011 42.8892 13.6327 43.503 13.777Z" fill="#D1D1D1"/>
<path d="M47.5456 15.1311C46.7923 14.6114 44.1417 13.8316 41.6236 13.3857L41.0239 17.5385C43.5407 17.9808 46.1758 18.8867 46.9067 19.5591L47.5456 15.1311Z" fill="#BCBCBC"/>
<path d="M36.5012 17.3253C34.9778 19.1077 33.458 20.8888 31.9346 22.6712C32.4014 22.1253 33.8276 21.9366 35.679 22.2613L39.8792 17.3447C38.0301 17.0152 36.7565 17.0284 36.5012 17.3253Z" fill="#AFAEAE"/>
<path d="M41.0217 17.5437L39.8829 17.3436L35.6791 22.2615L36.8215 22.4602L41.0217 17.5437Z" fill="#AFAEAE"/>
<path d="M46.9032 19.5604C46.1722 18.888 43.5384 17.9857 41.0204 17.5398L36.8202 22.4563C39.3382 22.9022 41.6979 24.1283 42.0836 25.1983L46.9032 19.5604Z" fill="#AFAEAE"/>
<path d="M31.9333 22.6678C30.7717 24.0306 29.6064 25.3946 28.4411 26.7587C27.4046 27.9719 26.3646 29.1864 25.3294 30.4031C26.0137 29.6021 27.5874 29.2356 29.4366 29.5652L35.679 22.2614C33.8299 21.9319 32.4038 22.1206 31.9333 22.6678Z" fill="#AFAEAE"/>
<path d="M36.8214 22.4601L35.679 22.2614L29.4402 29.5638L30.579 29.7639L36.8214 22.4601Z" fill="#AFAEAE"/>
<path d="M42.0849 25.2018C41.6991 24.1318 39.3382 22.9022 36.8214 22.4598L30.579 29.7635C33.0957 30.2059 35.1789 31.7606 35.2243 33.2305L42.0849 25.2018Z" fill="#AFAEAE"/>
<path d="M25.2469 28.7738C24.5515 28.8437 23.8133 28.9532 23.116 29.4697C22.7051 29.7865 22.4607 30.204 22.4487 30.6904C22.5594 30.6023 22.6107 30.5637 22.612 30.5673C22.6033 30.3173 22.5904 29.9765 22.9273 29.6462C22.3622 30.1793 21.8493 30.7217 21.2642 31.4026C21.7347 30.8554 23.1572 30.6679 25.0086 30.9927C26.2177 29.5807 27.034 28.9088 27.0781 28.8728C26.4274 28.7619 25.8098 28.7315 25.2469 28.7738Z" fill="#D1D1D1"/>
<path d="M28.2181 29.0764L27.078 28.8728C27.034 28.9088 26.2164 29.5771 25.0086 30.9926L26.1474 31.1926C27.3565 29.7807 28.1741 29.1123 28.2181 29.0764Z" fill="#D1D1D1"/>
<path d="M31.4723 29.9719C30.685 29.7415 29.8976 29.5112 29.1066 29.2822C31.1949 29.8911 32.7425 31.2251 32.7077 32.495L35.2279 33.2293C35.1861 31.9389 33.5704 30.5853 31.4723 29.9719Z" fill="#BCBCBC"/>
<path d="M32.8722 32.3757C32.8487 32.2315 32.8076 31.9933 32.6957 31.7846C32.6216 31.6466 32.4232 31.2883 32.1098 30.9835C31.4903 30.3834 30.9619 30.0356 30.023 29.6109C29.4738 29.3751 28.8629 29.1936 28.223 29.0788C28.1826 29.1135 27.3614 29.7831 26.1523 31.1951C28.6704 31.641 31.03 32.8671 31.4193 33.9358C32.2595 32.9461 32.875 32.3948 32.8722 32.3757Z" fill="#D1D1D1"/>
<path d="M15.1219 43.6028C15.1632 45.0501 15.1937 46.5013 15.2484 47.9517C15.2765 48.741 15.3291 50.2083 15.4376 52.1695C15.5808 54.8253 15.816 57.9621 16.0065 59.7894C16.3599 63.2089 16.5001 64.3433 17.0479 67.6245C17.2779 69.0078 17.7587 71.1321 18.0937 72.2646C18.3964 73.2963 18.8595 74.6598 19.3339 75.6255C19.5042 75.9738 19.9596 76.8982 20.7889 77.7642C21.6972 78.7141 22.5557 79.2321 22.985 79.4629C23.8997 79.9446 24.6903 80.2742 26.0273 80.5273C18.5752 79.213 18.4743 45.889 18.467 44.0278C16.4224 43.6642 15.115 43.5049 15.1219 43.6028Z" fill="#BCBCBC"/>
<path d="M21.2642 31.4027C20.852 31.8967 20.1633 32.7194 19.3341 33.9543C18.3735 35.3892 17.759 36.5868 17.645 36.8127C17.1214 37.845 16.7105 38.7041 16.1093 40.3228C15.6216 41.6354 15.3225 42.8157 15.1218 43.6031C15.1454 43.5102 16.4442 43.6686 18.4657 44.0244C20.0179 37.6805 22.996 33.3491 25.0086 30.9927C23.1571 30.668 21.7346 30.8555 21.2642 31.4027Z" fill="#D1D1D1"/>
<path d="M26.1487 31.1962L25.0099 30.9961C22.9973 33.3526 20.0205 37.6875 18.467 44.0279L19.6058 44.2279C21.158 37.8839 24.1361 33.5526 26.1487 31.1962Z" fill="#D1D1D1"/>
<path d="M26.0261 80.524C26.4049 80.5922 26.7837 80.6605 27.1661 80.7275C19.7104 79.4146 19.6131 46.0892 19.6058 44.228L18.467 44.028C18.4695 45.887 18.5716 79.2145 26.0261 80.524Z" fill="#BCBCBC"/>
<path d="M31.4157 33.937C31.0264 32.8683 28.6691 31.6374 26.1487 31.1963C24.1361 33.5528 21.158 37.8841 19.6058 44.228C22.1238 44.674 24.8079 45.2528 25.6034 45.5284C26.9316 39.9521 29.5922 36.0727 31.4157 33.937Z" fill="#D1D1D1"/>
<path d="M27.1661 80.7275C27.9513 80.8501 28.485 80.9188 29.5562 80.8862C30.0591 80.8695 30.8964 80.7525 31.4252 80.5819C32.1993 80.335 32.8559 80.0782 33.7029 79.5479C34.2883 79.1842 34.8557 78.7025 35.3822 78.119C36.2591 77.1521 36.9922 75.8314 37.5507 74.196C38.3711 71.8075 38.7149 69.3618 38.941 67.7418C39.0032 67.2253 38.9254 66.4901 39.1506 66.0193C39.1529 66.0144 39.1696 65.8799 39.3278 64.3085C39.4044 63.5498 39.4568 62.7918 39.5468 62.0363C39.5697 61.8513 39.5962 61.6087 39.6276 61.4247C39.6914 61.0482 39.9761 60.5278 39.8466 60.1688C39.8364 60.1403 40.1307 58.9015 40.1341 58.8882C40.2525 58.4599 40.3441 58.0252 40.4856 57.6046C40.5484 57.4173 40.623 57.1614 40.6845 56.9705C40.7891 56.6396 40.8188 56.5526 41.1203 55.7288C41.1227 55.724 41.3269 55.1724 41.6058 54.5456C42.2213 53.1588 42.886 52.0435 43.5772 51.2279C43.7426 51.0317 43.7885 50.7862 43.6872 50.5054C41.3489 53.2684 39.6161 58.5808 39.2388 62.7177C38.7447 68.1459 38.0973 74.4248 35.6128 77.2566C34.9947 77.9815 34.2225 78.5612 33.2293 78.9233C26.0678 82.0514 25.699 46.4258 25.6022 45.5248C24.8066 45.2492 22.1226 44.6704 19.6045 44.2245C19.6119 46.0856 19.7104 79.4145 27.1661 80.7275Z" fill="#BCBCBC"/>
<path d="M31.4158 33.9371C29.5922 36.0727 26.9353 39.9508 25.6071 45.5271C25.7039 46.4282 26.0727 82.0537 33.2342 78.9256C34.2238 78.5648 34.9983 77.9803 35.6177 77.2589C38.1022 74.4271 38.7496 68.1482 39.2436 62.72C39.621 58.5832 41.3525 53.2672 43.6921 50.5077C45.4708 48.4284 47.2459 46.3504 49.0233 44.2676C50.1201 42.9844 51.2204 41.7 52.3159 40.4133C54.667 37.6858 58.0764 36.9789 60.3392 38.0269C63.3068 39.4034 66.7745 40.8687 69.217 37.9315C69.8364 37.2101 70.4433 36.1719 71.0291 34.6913C75.5085 24.1911 57.4774 9.24118 56.4741 8.50225C53.6777 8.65077 50.6252 11.4544 48.8004 13.5865C47.7096 14.8634 47.1429 15.7988 47.5456 15.1314C47.469 15.6531 47.2707 17.0341 46.9068 19.5594C44.8882 21.922 43.489 23.5632 42.0849 25.2022C40.006 27.6347 37.9249 30.0721 35.228 33.2295C33.7908 32.8117 33.0047 32.585 32.7077 32.4952C33.2116 32.1087 32.503 32.6614 31.4158 33.9371Z" fill="#E0E0E0"/>
<path d="M53.0179 37.4366L51.9567 37.2488C51.8523 37.2302 51.7324 37.2814 51.626 37.4041L52.6871 37.592C52.7922 37.4657 52.9086 37.4158 53.0179 37.4366Z" fill="#ED8C00"/>
<path d="M52.6871 37.5918L51.6223 37.4053L48.513 41.0448L49.5777 41.2314L52.6871 37.5918Z" fill="#ED8C00"/>
<path d="M48.5792 42.2901L49.6404 42.478C49.536 42.4594 49.4435 42.3722 49.3896 42.2229C49.2807 41.9207 49.3613 41.4779 49.5728 41.229L48.5117 41.0411C48.3002 41.2901 48.2196 41.7329 48.3285 42.035C48.3836 42.1879 48.4748 42.2715 48.5792 42.2901Z" fill="#ED8C00"/>
<path d="M47.5403 43.858L46.4792 43.6701C46.3748 43.6515 46.2548 43.7028 46.1484 43.8255L47.2096 44.0134C47.316 43.8907 47.4359 43.8394 47.5403 43.858Z" fill="#ED8C00"/>
<path d="M47.2095 44.013L46.1448 43.8265L43.039 47.4648L44.1002 47.6526L47.2095 44.013Z" fill="#ED8C00"/>
<path d="M43.103 48.7153L44.1641 48.9031C44.0597 48.8845 43.9685 48.8009 43.9134 48.6481C43.8045 48.3459 43.885 47.9031 44.0978 47.6577L43.0367 47.4698C42.8252 47.7188 42.7446 48.1616 42.8523 48.4602C42.9061 48.6095 42.9986 48.6967 43.103 48.7153Z" fill="#ED8C00"/>
<path d="M49.5777 41.2317C49.3662 41.4807 49.2856 41.9235 49.3946 42.2257C49.5035 42.5278 49.7633 42.5708 49.9748 42.3218L53.0842 38.6822C53.2957 38.4332 53.3763 37.9904 53.2673 37.6883C53.1584 37.3861 52.8986 37.3432 52.6871 37.5922L49.5777 41.2317Z" fill="#FFB000"/>
<path d="M44.1002 47.6531C43.8887 47.9021 43.8081 48.3449 43.9158 48.6435C44.0247 48.9457 44.2844 48.9886 44.496 48.7396L47.6053 45.1C47.8181 44.8546 47.8974 44.4083 47.7898 44.1097C47.6809 43.8075 47.4211 43.7646 47.2096 44.0135L44.1002 47.6531Z" fill="#FFB000"/>
<path d="M40.7131 40.178L39.1821 39.9065C38.6261 39.8097 37.9975 40.0765 37.4361 40.7328L38.9671 41.0043C39.5285 40.348 40.1571 40.0812 40.7131 40.178Z" fill="#D30000"/>
<path d="M37.7833 47.3199L39.318 47.5901C38.7655 47.4921 38.2846 47.0388 37.9952 46.2474C37.4187 44.6596 37.8539 42.3095 38.9672 41.0044L37.4362 40.7328C36.3229 42.038 35.8877 44.3881 36.4642 45.9758C36.75 46.7686 37.2322 47.2254 37.7833 47.3199Z" fill="#D30000"/>
<path d="M38.9684 41.0076C37.8552 42.3128 37.4199 44.6629 37.9964 46.2506C38.5741 47.8419 39.947 48.07 41.0638 46.7636C42.1807 45.4572 42.6136 43.1119 42.0358 41.5206C41.4545 39.9306 40.084 39.6976 38.9684 41.0076Z" fill="#EA3D03"/>
<path d="M34.3305 39.1087L32.7995 38.8372C32.2422 38.7368 31.6149 39.0072 31.0536 39.6635L32.5846 39.935C33.146 39.2787 33.7745 39.0119 34.3305 39.1087Z" fill="#D30000"/>
<path d="M31.4044 46.2492L32.9354 46.5207C32.383 46.4226 31.902 45.9693 31.6139 45.1814C31.0361 43.5902 31.4726 41.2436 32.5859 39.9384L31.0549 39.6669C29.9416 40.9721 29.5064 43.3222 30.0829 44.9099C30.3674 45.6991 30.852 46.1511 31.4044 46.2492Z" fill="#D30000"/>
<path d="M32.5846 39.935C31.4714 41.2402 31.0348 43.5867 31.6126 45.178C32.1903 46.7693 33.5632 46.9974 34.68 45.691C35.7933 44.3859 36.2285 42.0357 35.652 40.448C35.0756 38.8602 33.7027 38.6321 32.5846 39.935Z" fill="#EA3D03"/>
<path d="M38.6906 51.0897L37.1596 50.8182C36.6022 50.7178 35.975 50.9881 35.4136 51.6444L36.9446 51.9159C37.506 51.2596 38.1296 50.9906 38.6906 51.0897Z" fill="#ED8C00"/>
<path d="M35.7608 58.2317L37.2918 58.5032C36.7394 58.4051 36.2584 57.9519 35.969 57.1605C35.3913 55.5692 35.8278 53.2226 36.941 51.9174L35.41 51.6459C34.2968 52.9511 33.8616 55.3012 34.438 56.8889C34.7262 57.6768 35.2084 58.1336 35.7608 58.2317Z" fill="#ED8C00"/>
<path d="M36.9446 51.9161C35.8314 53.2212 35.3948 55.5678 35.9726 57.1591C36.5503 58.7504 37.9232 58.9785 39.04 57.672C40.1533 56.3669 40.5898 54.0203 40.012 52.429C39.432 50.8426 38.0578 50.6109 36.9446 51.9161Z" fill="#FFB000"/>
<path d="M32.3067 50.0174L30.7757 49.7459C30.2184 49.6455 29.5911 49.9159 29.0298 50.5722L30.5644 50.8424C31.1221 50.1874 31.7507 49.9206 32.3067 50.0174Z" fill="#ED8C00"/>
<path d="M29.377 57.1591L30.908 57.4306C30.3556 57.3326 29.8746 56.8793 29.5852 56.0879C29.0087 54.5001 29.444 52.15 30.5572 50.8449L29.0226 50.5746C27.9093 51.8798 27.4741 54.2299 28.0506 55.8176C28.3436 56.6078 28.8282 57.0597 29.377 57.1591Z" fill="#ED8C00"/>
<path d="M30.5608 50.8432C29.444 52.1497 29.0123 54.4985 29.5888 56.0862C30.1665 57.6775 31.5394 57.9056 32.6562 56.5992C33.7695 55.2941 34.206 52.9475 33.6282 51.3562C33.0518 49.7685 31.6789 49.5403 30.5608 50.8432Z" fill="#FFB000"/>
<path d="M62.6204 16.5615C64.4713 21.6505 63.0783 29.1702 59.5057 33.3544C55.9354 37.5337 51.5363 36.7938 49.6853 31.7049C47.8332 26.6123 49.2274 19.0962 52.7977 14.9169C56.3691 10.7292 60.7669 11.4655 62.6204 16.5615Z" fill="#AFAEAE"/>
<path d="M61.4369 29.1796C61.4671 29.1165 61.4949 29.0582 61.5251 28.9951C61.4542 29.1372 61.3722 29.2712 61.274 29.3829L61.1119 29.6784C61.236 29.5372 61.3451 29.3653 61.4369 29.1796Z" fill="#3F3F3F"/>
<path d="M61.7724 27.7047C61.7687 27.6377 61.76 27.5686 61.7562 27.5016C61.7375 27.2915 61.6971 27.0891 61.6317 26.9078L61.676 27.2453C61.726 27.384 61.7582 27.5411 61.7724 27.7047Z" fill="#3F3F3F"/>
<path d="M62.8581 21.5009C62.8883 21.4378 62.9197 21.3782 62.9463 21.3164C62.8777 21.4536 62.798 21.5828 62.7071 21.6919L62.5426 21.9922C62.6655 21.8475 62.7686 21.6818 62.8581 21.5009Z" fill="#3F3F3F"/>
<path d="M63.1955 19.9974C63.1918 19.9305 63.1831 19.8613 63.1793 19.7944C63.1629 19.5794 63.1189 19.3783 63.0523 19.1935L63.0966 19.531C63.1478 19.6732 63.18 19.8303 63.1955 19.9974Z" fill="#3F3F3F"/>
<path d="M59.5264 31.4469L59.3642 31.7424L61.1131 29.6819L61.2753 29.3864L59.5264 31.4469Z" fill="#3F3F3F"/>
<path d="M63.0965 19.5311L63.0522 19.1936L62.1428 16.6936L62.1884 17.0346L63.0965 19.5311Z" fill="#3F3F3F"/>
<path d="M60.5657 24.1993L60.6469 24.2102L62.5449 21.9874L62.7071 21.692L60.5657 24.1993Z" fill="#3F3F3F"/>
<path d="M61.6725 27.2467L61.6269 26.9056L60.6469 24.2101L60.5657 24.1992L61.6725 27.2467Z" fill="#3F3F3F"/>
<path d="M56.223 31.8264L58.4405 32.1838C58.1491 32.1322 57.8963 31.894 57.7463 31.4781L55.5289 31.1206C55.6788 31.5365 55.9329 31.7783 56.223 31.8264Z" fill="#1E1E1E"/>
<path d="M58.2799 31.2412L57.7427 31.479C58.0501 32.3203 58.7759 32.4362 59.3607 31.7433L59.5229 31.4479C59.0751 31.9788 58.518 31.8904 58.2799 31.2412Z" fill="#3F3F3F"/>
<path d="M61.4597 15.9955L59.2459 15.6368C58.9509 15.5864 58.6163 15.7312 58.3161 16.0844L60.5336 16.4419C60.8301 16.0899 61.1647 15.9452 61.4597 15.9955Z" fill="#1E1E1E"/>
<path d="M62.1884 17.0342L62.1428 16.6932C61.8367 15.8555 61.1184 15.7489 60.53 16.4431L60.9505 16.8418C61.4055 16.3082 61.9564 16.3908 62.1884 17.0342Z" fill="#3F3F3F"/>
<path d="M56.7551 28.7626L54.5413 28.4038L55.5289 31.1207L57.7427 31.4794L56.7551 28.7626Z" fill="#1E1E1E"/>
<path d="M60.5299 16.4435L58.3125 16.0861L56.4145 18.3088L58.632 18.6662L60.5299 16.4435Z" fill="#1E1E1E"/>
<path d="M57.1667 28.1763L56.7551 28.7625L57.7427 31.4794L58.2799 31.2415L57.1667 28.1763Z" fill="#3F3F3F"/>
<path d="M60.9519 16.8455L60.53 16.4432L58.632 18.6659L58.8032 19.3554L60.9519 16.8455Z" fill="#3F3F3F"/>
<path d="M55.0193 30.6894L54.8571 30.9848L56.7551 28.7621L57.1667 28.1759L55.0193 30.6894Z" fill="#3F3F3F"/>
<path d="M58.8032 19.3556L58.632 18.6662L57.6457 15.9529L57.6913 16.2939L58.8032 19.3556Z" fill="#3F3F3F"/>
<path d="M53.7827 30.5005L53.2455 30.7383C53.5542 31.5831 54.2663 31.6838 54.8584 30.9884L55.0206 30.6929C54.562 31.2278 54.016 31.1475 53.7827 30.5005Z" fill="#3F3F3F"/>
<path d="M51.7112 31.0787L53.9286 31.4362C53.6457 31.3855 53.3942 31.1508 53.2443 30.7349L51.0268 30.3774C51.1803 30.7921 51.4283 31.0281 51.7112 31.0787Z" fill="#1E1E1E"/>
<path d="M56.9479 15.2481L54.734 14.8893C54.4378 14.8355 54.108 14.9825 53.8066 15.3321L56.0241 15.6896C56.3219 15.3412 56.6565 15.1965 56.9479 15.2481Z" fill="#1E1E1E"/>
<path d="M57.6912 16.2937L57.6469 15.9562C57.3396 15.115 56.6174 14.9977 56.0253 15.6932L56.4459 16.0919C56.8996 15.5548 57.4544 15.648 57.6912 16.2937Z" fill="#3F3F3F"/>
<path d="M50.3115 25.5701C50.2382 25.717 50.222 25.751 50.2197 25.7558C50.028 26.1503 49.9363 26.6413 49.9718 27.0784C49.9755 27.1453 49.9842 27.2145 49.988 27.2814C49.9463 26.714 50.0605 26.0823 50.3115 25.5701Z" fill="#3F3F3F"/>
<path d="M51.74 17.8889C51.7085 17.9484 51.6783 18.0115 51.6517 18.0733C51.4588 18.4642 51.3718 18.9455 51.4046 19.3755C51.4084 19.4425 51.4158 19.5081 51.4208 19.5786C51.3732 19.0173 51.49 18.3927 51.74 17.8889Z" fill="#3F3F3F"/>
<path d="M52.8733 28.0005L52.3361 28.2383L53.2443 30.7348L53.7827 30.5005L52.8733 28.0005Z" fill="#3F3F3F"/>
<path d="M52.3361 28.2383L50.1187 27.8809L51.0268 30.3773L53.2443 30.7348L52.3361 28.2383Z" fill="#1E1E1E"/>
<path d="M55.4055 23.3359L54.7414 23.2218L52.8434 25.4445L53.2604 25.8445L55.4055 23.3359Z" fill="#3F3F3F"/>
<path d="M54.7414 23.2218L52.524 22.8644L50.626 25.0871L52.8434 25.4446L54.7414 23.2218Z" fill="#1E1E1E"/>
<path d="M54.2951 20.2899L53.7603 20.5229L54.7415 23.222L55.4055 23.3361L54.2951 20.2899Z" fill="#3F3F3F"/>
<path d="M53.7603 20.523L51.5428 20.1655L52.524 22.8646L54.7415 23.2221L53.7603 20.523Z" fill="#1E1E1E"/>
<path d="M56.4424 16.0931L56.0241 15.6896L54.2717 17.7514L54.6923 18.1501L56.4424 16.0931Z" fill="#3F3F3F"/>
<path d="M56.0241 15.6899L53.8066 15.3325L52.0578 17.393L54.2717 17.7517L56.0241 15.6899Z" fill="#1E1E1E"/>
<path d="M56.4424 16.0934L54.6922 18.1503C54.2409 18.6826 54.0619 19.6429 54.2987 20.2886L55.4055 23.3361L53.2605 25.8447C52.8091 26.377 52.6352 27.3515 52.8733 28.0008L53.7828 30.5008C54.016 31.1478 54.5656 31.2268 55.0229 30.6884L57.1667 28.1762L58.2799 31.2415C58.5132 31.8885 59.0738 31.9755 59.5265 31.4468L61.2753 29.3863C61.7326 28.8479 61.9093 27.8924 61.6725 27.2467L60.5657 24.1993L62.7071 21.6919C63.1621 21.1584 63.3347 20.1803 63.0979 19.5346L62.1884 17.0345C61.9529 16.3924 61.402 16.3098 60.9483 16.847L58.8045 19.3591L57.6926 16.2974C57.4544 15.6482 56.8997 15.5549 56.4424 16.0934Z" fill="#565656"/>
<path d="M52.8435 25.4446L50.626 25.0871C50.0375 25.7813 49.8162 27.042 50.1187 27.881L52.3361 28.2384C52.0301 27.4008 52.2514 26.14 52.8435 25.4446Z" fill="#1E1E1E"/>
<path d="M53.2604 25.8447L52.8422 25.4411C52.2537 26.1353 52.0324 27.396 52.3349 28.235L52.872 27.9971C52.6365 27.355 52.8091 26.3769 53.2604 25.8447Z" fill="#3F3F3F"/>
<path d="M54.2716 17.7517L52.0541 17.3942C51.468 18.0835 51.238 19.3314 51.5404 20.1703L53.7579 20.5278C53.4542 19.6853 53.6855 18.441 54.2716 17.7517Z" fill="#1E1E1E"/>
<path d="M54.6922 18.1502L54.2752 17.7502C53.6891 18.4395 53.459 19.6873 53.7615 20.5263L54.2987 20.2885C54.0618 19.6428 54.2408 18.6825 54.6922 18.1502Z" fill="#3F3F3F"/>
<path d="M33.7109 23.6457C35.1977 23.885 37.173 23.1528 38.1201 22.008C38.589 21.4453 38.7181 20.8886 38.5553 20.4371L39.4494 22.8945C39.6122 23.3459 39.4795 23.9039 39.0142 24.4653C38.067 25.6102 36.0918 26.3424 34.605 26.1031C33.8488 25.982 33.3652 25.6342 33.1973 25.1685L32.3032 22.7111C32.4711 23.1768 32.9548 23.5247 33.7109 23.6457Z" fill="#E0E0E0"/>
<path d="M33.7109 23.6455L34.6049 26.1029C33.8488 25.9818 33.3651 25.634 33.1972 25.1683L32.3032 22.7109C32.471 23.1766 32.9547 23.5245 33.7109 23.6455Z" fill="#BCBCBC"/>
<path d="M33.7109 23.6457C35.1977 23.8849 37.173 23.1527 38.1201 22.0079C39.0672 20.8631 38.6344 19.7417 37.1476 19.5025C35.6608 19.2632 33.6855 19.9954 32.7384 21.1402C31.7877 22.2863 32.2241 23.4064 33.7109 23.6457Z" fill="#D1D1D1"/>
<path d="M32.3979 18.2981C33.5169 18.4771 34.9999 17.9264 35.712 17.0672C36.064 16.643 36.162 16.2261 36.0402 15.8884L37.6956 20.4573C37.8173 20.7951 37.7205 21.2156 37.3673 21.6361C36.6552 22.4954 35.1722 23.0461 34.0532 22.8671C33.4864 22.7742 33.123 22.5115 32.9938 22.1644L31.3421 17.5941C31.4641 17.9438 31.8275 18.2065 32.3979 18.2981Z" fill="#454A4C"/>
<path d="M32.3979 18.2983L34.0496 22.8686C33.4828 22.7757 33.1194 22.5131 32.9902 22.166L31.3385 17.5957C31.4641 17.9441 31.8275 18.2067 32.3979 18.2983Z" fill="#222526"/>
</g>
<defs>
<clipPath id="clip0_0_4619">
<rect width="65.5591" height="65.5591" fill="white" transform="translate(0 22.2339) rotate(-19.8248)"/>
</clipPath>
</defs>
</svg>
