<svg width="590" height="591" viewBox="0 0 590 591" fill="none" xmlns="http://www.w3.org/2000/svg">
<mask id="mask0_154_1113" style="mask-type:alpha" maskUnits="userSpaceOnUse" x="0" y="0" width="590" height="591">
<rect x="0.146973" y="0.756897" width="589.246" height="589.246" fill="#C4C4C4"/>
</mask>
<g mask="url(#mask0_154_1113)">
<g filter="url(#filter0_di_154_1113)">
<g clip-path="url(#clip0_154_1113)">
<path d="M193.27 321.38C193.27 255.106 247.496 201.38 313.77 201.38V201.38C380.044 201.38 434.27 255.106 434.27 321.38V321.38C434.27 387.654 380.044 441.38 313.77 441.38V441.38C247.496 441.38 193.27 387.654 193.27 321.38V321.38Z" fill="#F3715E"/>
<g filter="url(#filter1_f_154_1113)">
<ellipse cx="303.528" cy="300.792" rx="130.742" ry="127.647" fill="#FF4229"/>
</g>
<g filter="url(#filter2_f_154_1113)">
<ellipse cx="284.38" cy="265.666" rx="80.8232" ry="78.5714" fill="#FF7360"/>
</g>
<g opacity="0.45" filter="url(#filter3_f_154_1113)">
<ellipse rx="34.2301" ry="20.4032" transform="matrix(0.982139 -0.188159 0.197044 0.980395 333.334 409)" fill="#FF7360"/>
</g>
</g>
</g>
<g filter="url(#filter4_b_154_1113)">
<path fill-rule="evenodd" clip-rule="evenodd" d="M155.27 325.925C155.27 325.925 155.27 325.925 155.27 325.925C155.27 298.85 162.428 273.447 174.955 251.505L313.794 325.925H155.27Z" fill="url(#paint0_linear_154_1113)" fill-opacity="0.2"/>
<path d="M155.27 325.925H155.02V326.175H155.27V325.925ZM174.955 251.505L175.073 251.284L174.858 251.169L174.738 251.381L174.955 251.505ZM313.794 325.925V326.175L313.912 325.705L313.794 325.925ZM155.52 325.925C155.52 325.925 155.52 325.925 155.52 325.925C155.52 325.925 155.52 325.925 155.52 325.925H155.02C155.02 325.925 155.02 325.925 155.02 325.925C155.02 325.925 155.02 325.925 155.02 325.925H155.52ZM155.52 325.925C155.52 298.895 162.666 273.534 175.172 251.628L174.738 251.381C162.19 273.36 155.02 298.806 155.02 325.925H155.52ZM174.837 251.725L313.675 326.146L313.912 325.705L175.073 251.284L174.837 251.725ZM313.794 325.675H155.27V326.175H313.794V325.675Z" fill="#FCA593" fill-opacity="0.6"/>
</g>
<g filter="url(#filter5_b_154_1113)">
<path fill-rule="evenodd" clip-rule="evenodd" d="M316.353 149.604V321.015L158.429 235.909C188.003 184.215 243.689 149.38 307.511 149.38C310.477 149.38 313.425 149.455 316.353 149.604Z" fill="url(#paint1_linear_154_1113)" fill-opacity="0.2"/>
<path d="M316.353 321.015L316.235 321.235L316.603 321.434V321.015H316.353ZM316.353 149.604H316.603V149.366L316.366 149.354L316.353 149.604ZM158.429 235.909L158.212 235.785L158.084 236.007L158.31 236.129L158.429 235.909ZM316.603 321.015V149.604H316.103V321.015H316.603ZM158.31 236.129L316.235 321.235L316.472 320.795L158.547 235.689L158.31 236.129ZM158.646 236.033C188.177 184.414 243.782 149.63 307.511 149.63V149.13C243.596 149.13 187.828 184.016 158.212 235.785L158.646 236.033ZM307.511 149.63C310.473 149.63 313.416 149.705 316.341 149.853L316.366 149.354C313.433 149.205 310.481 149.13 307.511 149.13V149.63Z" fill="#FCA593" fill-opacity="0.6"/>
</g>
<path d="M183.662 311.38V300.598H179.468V298.69H190.178V300.598H185.984V311.38H183.662ZM194.624 311.56C193.1 311.56 191.906 311.14 191.042 310.3C190.178 309.46 189.746 308.308 189.746 306.844C189.746 305.896 189.932 305.068 190.304 304.36C190.676 303.652 191.192 303.1 191.852 302.704C192.524 302.308 193.304 302.11 194.192 302.11C195.068 302.11 195.8 302.296 196.388 302.668C196.976 303.04 197.42 303.562 197.72 304.234C198.032 304.906 198.188 305.692 198.188 306.592V307.186H191.564V305.998H196.586L196.28 306.25C196.28 305.41 196.1 304.768 195.74 304.324C195.392 303.88 194.882 303.658 194.21 303.658C193.466 303.658 192.89 303.922 192.482 304.45C192.086 304.978 191.888 305.716 191.888 306.664V306.898C191.888 307.882 192.128 308.62 192.608 309.112C193.1 309.592 193.79 309.832 194.678 309.832C195.194 309.832 195.674 309.766 196.118 309.634C196.574 309.49 197.006 309.262 197.414 308.95L198.08 310.462C197.648 310.81 197.132 311.08 196.532 311.272C195.932 311.464 195.296 311.56 194.624 311.56ZM203.604 311.56C202.812 311.56 202.116 311.374 201.516 311.002C200.916 310.618 200.448 310.072 200.112 309.364C199.776 308.656 199.608 307.81 199.608 306.826C199.608 305.842 199.776 305.002 200.112 304.306C200.448 303.598 200.916 303.058 201.516 302.686C202.116 302.302 202.812 302.11 203.604 302.11C204.372 302.11 205.044 302.302 205.62 302.686C206.208 303.058 206.598 303.562 206.79 304.198H206.592L206.79 302.29H208.95C208.914 302.662 208.878 303.04 208.842 303.424C208.818 303.808 208.806 304.186 208.806 304.558V311.38H206.574L206.556 309.508H206.772C206.58 310.132 206.19 310.63 205.602 311.002C205.014 311.374 204.348 311.56 203.604 311.56ZM204.234 309.832C204.942 309.832 205.512 309.586 205.944 309.094C206.376 308.59 206.592 307.834 206.592 306.826C206.592 305.818 206.376 305.068 205.944 304.576C205.512 304.084 204.942 303.838 204.234 303.838C203.526 303.838 202.956 304.084 202.524 304.576C202.092 305.068 201.876 305.818 201.876 306.826C201.876 307.834 202.086 308.59 202.506 309.094C202.938 309.586 203.514 309.832 204.234 309.832ZM211.256 311.38V304.558C211.256 304.186 211.244 303.808 211.22 303.424C211.196 303.04 211.16 302.662 211.112 302.29H213.29L213.47 304.09H213.254C213.506 303.466 213.89 302.98 214.406 302.632C214.934 302.284 215.558 302.11 216.278 302.11C216.998 302.11 217.592 302.284 218.06 302.632C218.54 302.968 218.876 303.496 219.068 304.216H218.78C219.032 303.568 219.446 303.058 220.022 302.686C220.598 302.302 221.258 302.11 222.002 302.11C223.022 302.11 223.784 302.41 224.288 303.01C224.792 303.61 225.044 304.546 225.044 305.818V311.38H222.794V305.908C222.794 305.188 222.674 304.672 222.434 304.36C222.194 304.036 221.81 303.874 221.282 303.874C220.658 303.874 220.166 304.096 219.806 304.54C219.446 304.972 219.266 305.56 219.266 306.304V311.38H217.016V305.908C217.016 305.188 216.896 304.672 216.656 304.36C216.416 304.036 216.032 303.874 215.504 303.874C214.88 303.874 214.388 304.096 214.028 304.54C213.68 304.972 213.506 305.56 213.506 306.304V311.38H211.256Z" fill="white"/>
<path d="M278.578 385.56C277.258 385.56 276.124 385.296 275.176 384.768C274.24 384.228 273.52 383.472 273.016 382.5C272.512 381.516 272.26 380.358 272.26 379.026C272.26 377.694 272.512 376.542 273.016 375.57C273.52 374.598 274.24 373.848 275.176 373.32C276.124 372.78 277.258 372.51 278.578 372.51C279.466 372.51 280.264 372.636 280.972 372.888C281.692 373.14 282.31 373.512 282.826 374.004L282.07 375.84C281.506 375.384 280.96 375.06 280.432 374.868C279.916 374.664 279.322 374.562 278.65 374.562C277.366 374.562 276.382 374.952 275.698 375.732C275.026 376.5 274.69 377.598 274.69 379.026C274.69 380.454 275.026 381.558 275.698 382.338C276.382 383.118 277.366 383.508 278.65 383.508C279.322 383.508 279.916 383.412 280.432 383.22C280.96 383.016 281.506 382.68 282.07 382.212L282.826 384.048C282.31 384.528 281.692 384.9 280.972 385.164C280.264 385.428 279.466 385.56 278.578 385.56ZM288.287 385.56C287.351 385.56 286.541 385.368 285.857 384.984C285.173 384.6 284.639 384.054 284.255 383.346C283.883 382.638 283.697 381.798 283.697 380.826C283.697 379.854 283.883 379.02 284.255 378.324C284.639 377.616 285.173 377.07 285.857 376.686C286.541 376.302 287.351 376.11 288.287 376.11C289.223 376.11 290.033 376.302 290.717 376.686C291.413 377.07 291.947 377.616 292.319 378.324C292.703 379.02 292.895 379.854 292.895 380.826C292.895 381.798 292.703 382.638 292.319 383.346C291.947 384.054 291.413 384.6 290.717 384.984C290.033 385.368 289.223 385.56 288.287 385.56ZM288.287 383.832C288.995 383.832 289.559 383.586 289.979 383.094C290.399 382.59 290.609 381.834 290.609 380.826C290.609 379.818 290.399 379.068 289.979 378.576C289.559 378.084 288.995 377.838 288.287 377.838C287.579 377.838 287.015 378.084 286.595 378.576C286.175 379.068 285.965 379.818 285.965 380.826C285.965 381.834 286.175 382.59 286.595 383.094C287.015 383.586 287.579 383.832 288.287 383.832ZM294.836 385.38V378.558C294.836 378.186 294.824 377.808 294.8 377.424C294.776 377.04 294.74 376.662 294.692 376.29H296.87L297.05 378.09H296.834C297.086 377.466 297.47 376.98 297.986 376.632C298.514 376.284 299.138 376.11 299.858 376.11C300.578 376.11 301.172 376.284 301.64 376.632C302.12 376.968 302.456 377.496 302.648 378.216H302.36C302.612 377.568 303.026 377.058 303.602 376.686C304.178 376.302 304.838 376.11 305.582 376.11C306.602 376.11 307.364 376.41 307.868 377.01C308.372 377.61 308.624 378.546 308.624 379.818V385.38H306.374V379.908C306.374 379.188 306.254 378.672 306.014 378.36C305.774 378.036 305.39 377.874 304.862 377.874C304.238 377.874 303.746 378.096 303.386 378.54C303.026 378.972 302.846 379.56 302.846 380.304V385.38H300.596V379.908C300.596 379.188 300.476 378.672 300.236 378.36C299.996 378.036 299.612 377.874 299.084 377.874C298.46 377.874 297.968 378.096 297.608 378.54C297.26 378.972 297.086 379.56 297.086 380.304V385.38H294.836ZM311.025 385.38V378.558C311.025 378.186 311.013 377.808 310.989 377.424C310.965 377.04 310.929 376.662 310.881 376.29H313.059L313.239 378.09H313.023C313.275 377.466 313.659 376.98 314.175 376.632C314.703 376.284 315.327 376.11 316.047 376.11C316.767 376.11 317.361 376.284 317.829 376.632C318.309 376.968 318.645 377.496 318.837 378.216H318.549C318.801 377.568 319.215 377.058 319.791 376.686C320.367 376.302 321.027 376.11 321.771 376.11C322.791 376.11 323.553 376.41 324.057 377.01C324.561 377.61 324.813 378.546 324.813 379.818V385.38H322.563V379.908C322.563 379.188 322.443 378.672 322.203 378.36C321.963 378.036 321.579 377.874 321.051 377.874C320.427 377.874 319.935 378.096 319.575 378.54C319.215 378.972 319.035 379.56 319.035 380.304V385.38H316.785V379.908C316.785 379.188 316.665 378.672 316.425 378.36C316.185 378.036 315.801 377.874 315.273 377.874C314.649 377.874 314.157 378.096 313.797 378.54C313.449 378.972 313.275 379.56 313.275 380.304V385.38H311.025ZM330.491 385.56C329.375 385.56 328.541 385.254 327.989 384.642C327.437 384.03 327.161 383.094 327.161 381.834V376.29H329.411V381.816C329.411 382.488 329.549 382.986 329.825 383.31C330.101 383.622 330.521 383.778 331.085 383.778C331.721 383.778 332.237 383.562 332.633 383.13C333.041 382.698 333.245 382.128 333.245 381.42V376.29H335.495V385.38H333.299V383.526H333.551C333.287 384.174 332.885 384.678 332.345 385.038C331.817 385.386 331.199 385.56 330.491 385.56ZM337.937 385.38V378.558C337.937 378.186 337.925 377.808 337.901 377.424C337.877 377.04 337.841 376.662 337.793 376.29H339.971L340.151 378.09H339.935C340.223 377.454 340.649 376.968 341.213 376.632C341.777 376.284 342.431 376.11 343.175 376.11C344.243 376.11 345.047 376.41 345.587 377.01C346.127 377.61 346.397 378.546 346.397 379.818V385.38H344.147V379.926C344.147 379.194 344.003 378.672 343.715 378.36C343.439 378.036 343.019 377.874 342.455 377.874C341.759 377.874 341.207 378.09 340.799 378.522C340.391 378.954 340.187 379.53 340.187 380.25V385.38H337.937ZM348.783 385.38V376.29H351.033V385.38H348.783ZM348.657 374.58V372.384H351.159V374.58H348.657ZM357.364 385.56C356.284 385.56 355.468 385.278 354.916 384.714C354.364 384.15 354.088 383.304 354.088 382.176V377.982H352.342V376.29H354.088V373.968L356.338 373.392V376.29H358.768V377.982H356.338V382.032C356.338 382.656 356.458 383.094 356.698 383.346C356.938 383.598 357.268 383.724 357.688 383.724C357.916 383.724 358.108 383.706 358.264 383.67C358.432 383.634 358.594 383.586 358.75 383.526V385.308C358.546 385.392 358.318 385.452 358.066 385.488C357.826 385.536 357.592 385.56 357.364 385.56ZM360.257 389.466L359.735 387.684C360.299 387.564 360.773 387.426 361.157 387.27C361.541 387.114 361.859 386.91 362.111 386.658C362.363 386.406 362.573 386.082 362.741 385.686L363.191 384.624L363.137 385.506L359.177 376.29H361.571L364.415 383.382H363.893L366.755 376.29H369.023L364.883 385.884C364.607 386.532 364.307 387.066 363.983 387.486C363.659 387.918 363.311 388.26 362.939 388.512C362.567 388.776 362.159 388.98 361.715 389.124C361.271 389.268 360.785 389.382 360.257 389.466Z" fill="white"/>
<path d="M215.674 236.38V223.69H217.996V236.38H215.674ZM220.609 236.38V229.558C220.609 229.186 220.597 228.808 220.573 228.424C220.549 228.04 220.513 227.662 220.465 227.29H222.643L222.823 229.09H222.607C222.895 228.454 223.321 227.968 223.885 227.632C224.449 227.284 225.103 227.11 225.847 227.11C226.915 227.11 227.719 227.41 228.259 228.01C228.799 228.61 229.069 229.546 229.069 230.818V236.38H226.819V230.926C226.819 230.194 226.675 229.672 226.387 229.36C226.111 229.036 225.691 228.874 225.127 228.874C224.431 228.874 223.879 229.09 223.471 229.522C223.063 229.954 222.859 230.53 222.859 231.25V236.38H220.609ZM234.031 236.38L230.107 227.29H232.501L235.345 234.4H234.787L237.703 227.29H239.953L236.011 236.38H234.031ZM245.374 236.56C243.85 236.56 242.656 236.14 241.792 235.3C240.928 234.46 240.496 233.308 240.496 231.844C240.496 230.896 240.682 230.068 241.054 229.36C241.426 228.652 241.942 228.1 242.602 227.704C243.274 227.308 244.054 227.11 244.942 227.11C245.818 227.11 246.55 227.296 247.138 227.668C247.726 228.04 248.17 228.562 248.47 229.234C248.782 229.906 248.938 230.692 248.938 231.592V232.186H242.314V230.998H247.336L247.03 231.25C247.03 230.41 246.85 229.768 246.49 229.324C246.142 228.88 245.632 228.658 244.96 228.658C244.216 228.658 243.64 228.922 243.232 229.45C242.836 229.978 242.638 230.716 242.638 231.664V231.898C242.638 232.882 242.878 233.62 243.358 234.112C243.85 234.592 244.54 234.832 245.428 234.832C245.944 234.832 246.424 234.766 246.868 234.634C247.324 234.49 247.756 234.262 248.164 233.95L248.83 235.462C248.398 235.81 247.882 236.08 247.282 236.272C246.682 236.464 246.046 236.56 245.374 236.56ZM254.084 236.56C253.304 236.56 252.584 236.47 251.924 236.29C251.276 236.098 250.73 235.834 250.286 235.498L250.916 233.986C251.372 234.298 251.876 234.538 252.428 234.706C252.98 234.874 253.538 234.958 254.102 234.958C254.702 234.958 255.146 234.856 255.434 234.652C255.734 234.448 255.884 234.172 255.884 233.824C255.884 233.548 255.788 233.332 255.596 233.176C255.416 233.008 255.122 232.882 254.714 232.798L252.914 232.456C252.146 232.288 251.558 232 251.15 231.592C250.754 231.184 250.556 230.65 250.556 229.99C250.556 229.426 250.706 228.928 251.006 228.496C251.318 228.064 251.756 227.728 252.32 227.488C252.896 227.236 253.568 227.11 254.336 227.11C255.008 227.11 255.638 227.2 256.226 227.38C256.826 227.56 257.33 227.83 257.738 228.19L257.09 229.648C256.718 229.348 256.292 229.114 255.812 228.946C255.332 228.778 254.864 228.694 254.408 228.694C253.784 228.694 253.328 228.808 253.04 229.036C252.752 229.252 252.608 229.534 252.608 229.882C252.608 230.146 252.692 230.368 252.86 230.548C253.04 230.716 253.316 230.842 253.688 230.926L255.488 231.268C256.292 231.424 256.898 231.7 257.306 232.096C257.726 232.48 257.936 233.008 257.936 233.68C257.936 234.28 257.774 234.796 257.45 235.228C257.126 235.66 256.676 235.99 256.1 236.218C255.524 236.446 254.852 236.56 254.084 236.56ZM263.661 236.56C262.581 236.56 261.765 236.278 261.213 235.714C260.661 235.15 260.385 234.304 260.385 233.176V228.982H258.639V227.29H260.385V224.968L262.635 224.392V227.29H265.065V228.982H262.635V233.032C262.635 233.656 262.755 234.094 262.995 234.346C263.235 234.598 263.565 234.724 263.985 234.724C264.213 234.724 264.405 234.706 264.561 234.67C264.729 234.634 264.891 234.586 265.047 234.526V236.308C264.843 236.392 264.615 236.452 264.363 236.488C264.123 236.536 263.889 236.56 263.661 236.56ZM270.61 236.56C269.674 236.56 268.864 236.368 268.18 235.984C267.496 235.6 266.962 235.054 266.578 234.346C266.206 233.638 266.02 232.798 266.02 231.826C266.02 230.854 266.206 230.02 266.578 229.324C266.962 228.616 267.496 228.07 268.18 227.686C268.864 227.302 269.674 227.11 270.61 227.11C271.546 227.11 272.356 227.302 273.04 227.686C273.736 228.07 274.27 228.616 274.642 229.324C275.026 230.02 275.218 230.854 275.218 231.826C275.218 232.798 275.026 233.638 274.642 234.346C274.27 235.054 273.736 235.6 273.04 235.984C272.356 236.368 271.546 236.56 270.61 236.56ZM270.61 234.832C271.318 234.832 271.882 234.586 272.302 234.094C272.722 233.59 272.932 232.834 272.932 231.826C272.932 230.818 272.722 230.068 272.302 229.576C271.882 229.084 271.318 228.838 270.61 228.838C269.902 228.838 269.338 229.084 268.918 229.576C268.498 230.068 268.288 230.818 268.288 231.826C268.288 232.834 268.498 233.59 268.918 234.094C269.338 234.586 269.902 234.832 270.61 234.832ZM277.14 236.38V229.612C277.14 229.228 277.128 228.838 277.104 228.442C277.092 228.046 277.062 227.662 277.014 227.29H279.192L279.444 229.774H279.084C279.204 229.174 279.402 228.676 279.678 228.28C279.966 227.884 280.314 227.59 280.722 227.398C281.13 227.206 281.574 227.11 282.054 227.11C282.27 227.11 282.444 227.122 282.576 227.146C282.708 227.158 282.84 227.188 282.972 227.236L282.954 229.216C282.726 229.12 282.528 229.06 282.36 229.036C282.204 229.012 282.006 229 281.766 229C281.25 229 280.812 229.108 280.452 229.324C280.104 229.54 279.84 229.84 279.66 230.224C279.492 230.608 279.408 231.046 279.408 231.538V236.38H277.14ZM287.377 236.56C286.597 236.56 285.877 236.47 285.217 236.29C284.569 236.098 284.023 235.834 283.579 235.498L284.209 233.986C284.665 234.298 285.169 234.538 285.721 234.706C286.273 234.874 286.831 234.958 287.395 234.958C287.995 234.958 288.439 234.856 288.727 234.652C289.027 234.448 289.177 234.172 289.177 233.824C289.177 233.548 289.081 233.332 288.889 233.176C288.709 233.008 288.415 232.882 288.007 232.798L286.207 232.456C285.439 232.288 284.851 232 284.443 231.592C284.047 231.184 283.849 230.65 283.849 229.99C283.849 229.426 283.999 228.928 284.299 228.496C284.611 228.064 285.049 227.728 285.613 227.488C286.189 227.236 286.861 227.11 287.629 227.11C288.301 227.11 288.931 227.2 289.519 227.38C290.119 227.56 290.623 227.83 291.031 228.19L290.383 229.648C290.011 229.348 289.585 229.114 289.105 228.946C288.625 228.778 288.157 228.694 287.701 228.694C287.077 228.694 286.621 228.808 286.333 229.036C286.045 229.252 285.901 229.534 285.901 229.882C285.901 230.146 285.985 230.368 286.153 230.548C286.333 230.716 286.609 230.842 286.981 230.926L288.781 231.268C289.585 231.424 290.191 231.7 290.599 232.096C291.019 232.48 291.229 233.008 291.229 233.68C291.229 234.28 291.067 234.796 290.743 235.228C290.419 235.66 289.969 235.99 289.393 236.218C288.817 236.446 288.145 236.56 287.377 236.56Z" fill="white"/>
<path d="M183.27 290.47C182.463 290.47 181.84 290.3 181.4 289.96C180.96 289.613 180.74 289.13 180.74 288.51C180.74 288.023 180.89 287.62 181.19 287.3C181.49 286.973 181.887 286.777 182.38 286.71V286.86C181.933 286.767 181.577 286.563 181.31 286.25C181.043 285.93 180.91 285.553 180.91 285.12C180.91 284.527 181.12 284.067 181.54 283.74C181.96 283.407 182.537 283.24 183.27 283.24C184.01 283.24 184.59 283.407 185.01 283.74C185.43 284.067 185.64 284.527 185.64 285.12C185.64 285.553 185.513 285.93 185.26 286.25C185.013 286.57 184.667 286.77 184.22 286.85V286.71C184.707 286.777 185.093 286.973 185.38 287.3C185.667 287.62 185.81 288.023 185.81 288.51C185.81 289.13 185.59 289.613 185.15 289.96C184.71 290.3 184.083 290.47 183.27 290.47ZM183.27 289.79C183.857 289.79 184.293 289.68 184.58 289.46C184.873 289.24 185.02 288.907 185.02 288.46C185.02 288.02 184.873 287.693 184.58 287.48C184.293 287.26 183.857 287.15 183.27 287.15C182.683 287.15 182.243 287.26 181.95 287.48C181.663 287.693 181.52 288.02 181.52 288.46C181.52 288.907 181.667 289.24 181.96 289.46C182.253 289.68 182.69 289.79 183.27 289.79ZM183.27 286.47C183.777 286.47 184.163 286.357 184.43 286.13C184.703 285.903 184.84 285.59 184.84 285.19C184.84 284.79 184.703 284.48 184.43 284.26C184.163 284.033 183.777 283.92 183.27 283.92C182.763 283.92 182.373 284.033 182.1 284.26C181.833 284.48 181.7 284.79 181.7 285.19C181.7 285.59 181.833 285.903 182.1 286.13C182.373 286.357 182.763 286.47 183.27 286.47ZM186.896 290.38V289.36H187.916V290.38H186.896ZM191.542 290.47C190.742 290.47 190.128 290.16 189.702 289.54C189.275 288.92 189.062 288.023 189.062 286.85C189.062 285.67 189.275 284.773 189.702 284.16C190.128 283.547 190.742 283.24 191.542 283.24C192.348 283.24 192.962 283.547 193.382 284.16C193.808 284.773 194.022 285.667 194.022 286.84C194.022 288.02 193.808 288.92 193.382 289.54C192.955 290.16 192.342 290.47 191.542 290.47ZM191.542 289.75C192.102 289.75 192.518 289.513 192.792 289.04C193.065 288.567 193.202 287.833 193.202 286.84C193.202 285.84 193.065 285.11 192.792 284.65C192.518 284.183 192.102 283.95 191.542 283.95C190.988 283.95 190.572 284.183 190.292 284.65C190.018 285.117 189.882 285.847 189.882 286.84C189.882 287.833 190.018 288.567 190.292 289.04C190.572 289.513 190.988 289.75 191.542 289.75ZM197.498 290.47C197.024 290.47 196.571 290.397 196.138 290.25C195.704 290.103 195.341 289.893 195.048 289.62L195.358 288.98C195.684 289.247 196.021 289.44 196.368 289.56C196.714 289.68 197.088 289.74 197.488 289.74C198.014 289.74 198.414 289.63 198.688 289.41C198.961 289.183 199.098 288.853 199.098 288.42C199.098 288.007 198.958 287.693 198.678 287.48C198.398 287.26 197.988 287.15 197.448 287.15H196.388V286.46H197.378C197.844 286.46 198.214 286.34 198.488 286.1C198.761 285.86 198.898 285.533 198.898 285.12C198.898 284.747 198.771 284.463 198.518 284.27C198.271 284.07 197.914 283.97 197.448 283.97C196.688 283.97 196.031 284.24 195.478 284.78L195.168 284.13C195.441 283.85 195.784 283.633 196.198 283.48C196.611 283.32 197.044 283.24 197.498 283.24C198.191 283.24 198.734 283.4 199.128 283.72C199.521 284.04 199.718 284.483 199.718 285.05C199.718 285.483 199.594 285.857 199.348 286.17C199.101 286.477 198.768 286.687 198.348 286.8V286.69C198.848 286.77 199.234 286.97 199.508 287.29C199.781 287.603 199.918 288 199.918 288.48C199.918 289.093 199.701 289.58 199.268 289.94C198.841 290.293 198.251 290.47 197.498 290.47ZM203.494 290.38H202.764L206.954 283.33H207.684L203.494 290.38ZM202.784 287.56C202.244 287.56 201.817 287.37 201.504 286.99C201.197 286.603 201.044 286.073 201.044 285.4C201.044 284.72 201.2 284.193 201.514 283.82C201.827 283.44 202.25 283.25 202.784 283.25C203.324 283.25 203.747 283.44 204.054 283.82C204.367 284.193 204.524 284.72 204.524 285.4C204.524 286.073 204.367 286.603 204.054 286.99C203.747 287.37 203.324 287.56 202.784 287.56ZM202.784 286.98C203.11 286.98 203.364 286.85 203.544 286.59C203.73 286.323 203.824 285.927 203.824 285.4C203.824 284.867 203.73 284.47 203.544 284.21C203.364 283.95 203.11 283.82 202.784 283.82C202.464 283.82 202.21 283.95 202.024 284.21C201.844 284.47 201.754 284.867 201.754 285.4C201.754 285.933 201.844 286.33 202.024 286.59C202.21 286.85 202.464 286.98 202.784 286.98ZM207.664 290.47C207.117 290.47 206.687 290.28 206.374 289.9C206.067 289.52 205.914 288.987 205.914 288.3C205.914 287.62 206.07 287.093 206.384 286.72C206.697 286.347 207.124 286.16 207.664 286.16C208.204 286.16 208.627 286.35 208.934 286.73C209.247 287.103 209.404 287.627 209.404 288.3C209.404 288.98 209.247 289.513 208.934 289.9C208.627 290.28 208.204 290.47 207.664 290.47ZM207.664 289.89C207.984 289.89 208.234 289.76 208.414 289.5C208.6 289.233 208.694 288.833 208.694 288.3C208.694 287.773 208.6 287.38 208.414 287.12C208.234 286.86 207.984 286.73 207.664 286.73C207.337 286.73 207.084 286.86 206.904 287.12C206.724 287.38 206.634 287.773 206.634 288.3C206.634 288.84 206.724 289.24 206.904 289.5C207.084 289.76 207.337 289.89 207.664 289.89Z" fill="white"/>
<path d="M274.4 363.38L277.87 356.68V357.04H273.93V356.33H278.62V356.95L275.31 363.38H274.4ZM282.396 363.47C282.089 363.47 281.789 363.437 281.496 363.37C281.203 363.303 280.926 363.207 280.666 363.08C280.413 362.953 280.189 362.8 279.996 362.62L280.306 361.98C280.633 362.24 280.966 362.433 281.306 362.56C281.646 362.68 282.009 362.74 282.396 362.74C282.903 362.74 283.299 362.603 283.586 362.33C283.873 362.057 284.016 361.697 284.016 361.25C284.016 360.79 283.879 360.413 283.606 360.12C283.333 359.827 282.953 359.68 282.466 359.68C282.119 359.68 281.809 359.75 281.536 359.89C281.263 360.023 281.026 360.233 280.826 360.52H280.226V356.33H284.406V357.03H281.026V359.84H280.806C280.986 359.56 281.233 359.347 281.546 359.2C281.866 359.047 282.226 358.97 282.626 358.97C283.079 358.97 283.469 359.063 283.796 359.25C284.129 359.437 284.386 359.697 284.566 360.03C284.746 360.363 284.836 360.753 284.836 361.2C284.836 361.647 284.736 362.043 284.536 362.39C284.343 362.73 284.063 362.997 283.696 363.19C283.336 363.377 282.903 363.47 282.396 363.47ZM285.892 363.38V362.36H286.912V363.38H285.892ZM290.498 363.47C290.024 363.47 289.571 363.397 289.138 363.25C288.704 363.103 288.341 362.893 288.048 362.62L288.358 361.98C288.684 362.247 289.021 362.44 289.368 362.56C289.714 362.68 290.088 362.74 290.488 362.74C291.014 362.74 291.414 362.63 291.688 362.41C291.961 362.183 292.098 361.853 292.098 361.42C292.098 361.007 291.958 360.693 291.678 360.48C291.398 360.26 290.988 360.15 290.448 360.15H289.388V359.46H290.378C290.844 359.46 291.214 359.34 291.488 359.1C291.761 358.86 291.898 358.533 291.898 358.12C291.898 357.747 291.771 357.463 291.518 357.27C291.271 357.07 290.914 356.97 290.448 356.97C289.688 356.97 289.031 357.24 288.478 357.78L288.168 357.13C288.441 356.85 288.784 356.633 289.198 356.48C289.611 356.32 290.044 356.24 290.498 356.24C291.191 356.24 291.734 356.4 292.128 356.72C292.521 357.04 292.718 357.483 292.718 358.05C292.718 358.483 292.594 358.857 292.348 359.17C292.101 359.477 291.768 359.687 291.348 359.8V359.69C291.848 359.77 292.234 359.97 292.508 360.29C292.781 360.603 292.918 361 292.918 361.48C292.918 362.093 292.701 362.58 292.268 362.94C291.841 363.293 291.251 363.47 290.498 363.47ZM296.534 363.47C295.734 363.47 295.12 363.16 294.694 362.54C294.267 361.92 294.054 361.023 294.054 359.85C294.054 358.67 294.267 357.773 294.694 357.16C295.12 356.547 295.734 356.24 296.534 356.24C297.34 356.24 297.954 356.547 298.374 357.16C298.8 357.773 299.014 358.667 299.014 359.84C299.014 361.02 298.8 361.92 298.374 362.54C297.947 363.16 297.334 363.47 296.534 363.47ZM296.534 362.75C297.094 362.75 297.51 362.513 297.784 362.04C298.057 361.567 298.194 360.833 298.194 359.84C298.194 358.84 298.057 358.11 297.784 357.65C297.51 357.183 297.094 356.95 296.534 356.95C295.98 356.95 295.564 357.183 295.284 357.65C295.01 358.117 294.874 358.847 294.874 359.84C294.874 360.833 295.01 361.567 295.284 362.04C295.564 362.513 295.98 362.75 296.534 362.75ZM302.49 363.38H301.76L305.95 356.33H306.68L302.49 363.38ZM301.78 360.56C301.24 360.56 300.813 360.37 300.5 359.99C300.193 359.603 300.04 359.073 300.04 358.4C300.04 357.72 300.196 357.193 300.51 356.82C300.823 356.44 301.246 356.25 301.78 356.25C302.32 356.25 302.743 356.44 303.05 356.82C303.363 357.193 303.52 357.72 303.52 358.4C303.52 359.073 303.363 359.603 303.05 359.99C302.743 360.37 302.32 360.56 301.78 360.56ZM301.78 359.98C302.106 359.98 302.36 359.85 302.54 359.59C302.726 359.323 302.82 358.927 302.82 358.4C302.82 357.867 302.726 357.47 302.54 357.21C302.36 356.95 302.106 356.82 301.78 356.82C301.46 356.82 301.206 356.95 301.02 357.21C300.84 357.47 300.75 357.867 300.75 358.4C300.75 358.933 300.84 359.33 301.02 359.59C301.206 359.85 301.46 359.98 301.78 359.98ZM306.66 363.47C306.113 363.47 305.683 363.28 305.37 362.9C305.063 362.52 304.91 361.987 304.91 361.3C304.91 360.62 305.066 360.093 305.38 359.72C305.693 359.347 306.12 359.16 306.66 359.16C307.2 359.16 307.623 359.35 307.93 359.73C308.243 360.103 308.4 360.627 308.4 361.3C308.4 361.98 308.243 362.513 307.93 362.9C307.623 363.28 307.2 363.47 306.66 363.47ZM306.66 362.89C306.98 362.89 307.23 362.76 307.41 362.5C307.596 362.233 307.69 361.833 307.69 361.3C307.69 360.773 307.596 360.38 307.41 360.12C307.23 359.86 306.98 359.73 306.66 359.73C306.333 359.73 306.08 359.86 305.9 360.12C305.72 360.38 305.63 360.773 305.63 361.3C305.63 361.84 305.72 362.24 305.9 362.5C306.08 362.76 306.333 362.89 306.66 362.89Z" fill="white"/>
<path d="M216.54 215.38V214.67H218.2V209.04H218.64L216.7 210.25V209.42L218.43 208.33H219.03V214.67H220.59V215.38H216.54ZM224.496 215.47C223.643 215.47 222.983 215.17 222.516 214.57C222.056 213.963 221.826 213.117 221.826 212.03C221.826 211.217 221.943 210.53 222.176 209.97C222.409 209.403 222.743 208.973 223.176 208.68C223.609 208.387 224.133 208.24 224.746 208.24C225.113 208.24 225.483 208.317 225.856 208.47C226.229 208.617 226.536 208.823 226.776 209.09L226.476 209.73C226.223 209.47 225.946 209.28 225.646 209.16C225.346 209.033 225.043 208.97 224.736 208.97C224.056 208.97 223.533 209.213 223.166 209.7C222.806 210.18 222.626 210.903 222.626 211.87V212.8H222.536C222.583 212.42 222.696 212.093 222.876 211.82C223.063 211.54 223.306 211.327 223.606 211.18C223.906 211.033 224.239 210.96 224.606 210.96C225.033 210.96 225.409 211.053 225.736 211.24C226.063 211.427 226.319 211.69 226.506 212.03C226.693 212.363 226.786 212.747 226.786 213.18C226.786 213.62 226.689 214.013 226.496 214.36C226.303 214.707 226.033 214.98 225.686 215.18C225.339 215.373 224.943 215.47 224.496 215.47ZM224.436 214.77C224.743 214.77 225.013 214.707 225.246 214.58C225.486 214.447 225.669 214.263 225.796 214.03C225.929 213.79 225.996 213.517 225.996 213.21C225.996 212.903 225.929 212.633 225.796 212.4C225.669 212.167 225.486 211.983 225.246 211.85C225.013 211.717 224.743 211.65 224.436 211.65C224.129 211.65 223.859 211.717 223.626 211.85C223.393 211.983 223.209 212.167 223.076 212.4C222.949 212.633 222.886 212.903 222.886 213.21C222.886 213.517 222.949 213.79 223.076 214.03C223.209 214.263 223.393 214.447 223.626 214.58C223.859 214.707 224.129 214.77 224.436 214.77ZM227.892 215.38V214.36H228.912V215.38H227.892ZM232.768 215.47C231.914 215.47 231.254 215.17 230.788 214.57C230.328 213.963 230.098 213.117 230.098 212.03C230.098 211.217 230.214 210.53 230.448 209.97C230.681 209.403 231.014 208.973 231.448 208.68C231.881 208.387 232.404 208.24 233.018 208.24C233.384 208.24 233.754 208.317 234.128 208.47C234.501 208.617 234.808 208.823 235.048 209.09L234.748 209.73C234.494 209.47 234.218 209.28 233.918 209.16C233.618 209.033 233.314 208.97 233.008 208.97C232.328 208.97 231.804 209.213 231.438 209.7C231.078 210.18 230.898 210.903 230.898 211.87V212.8H230.808C230.854 212.42 230.968 212.093 231.148 211.82C231.334 211.54 231.578 211.327 231.878 211.18C232.178 211.033 232.511 210.96 232.878 210.96C233.304 210.96 233.681 211.053 234.008 211.24C234.334 211.427 234.591 211.69 234.778 212.03C234.964 212.363 235.058 212.747 235.058 213.18C235.058 213.62 234.961 214.013 234.768 214.36C234.574 214.707 234.304 214.98 233.958 215.18C233.611 215.373 233.214 215.47 232.768 215.47ZM232.708 214.77C233.014 214.77 233.284 214.707 233.518 214.58C233.758 214.447 233.941 214.263 234.068 214.03C234.201 213.79 234.268 213.517 234.268 213.21C234.268 212.903 234.201 212.633 234.068 212.4C233.941 212.167 233.758 211.983 233.518 211.85C233.284 211.717 233.014 211.65 232.708 211.65C232.401 211.65 232.131 211.717 231.898 211.85C231.664 211.983 231.481 212.167 231.348 212.4C231.221 212.633 231.158 212.903 231.158 213.21C231.158 213.517 231.221 213.79 231.348 214.03C231.481 214.263 231.664 214.447 231.898 214.58C232.131 214.707 232.401 214.77 232.708 214.77ZM236.664 215.38L240.134 208.68V209.04H236.194V208.33H240.884V208.95L237.574 215.38H236.664ZM244.49 215.38H243.76L247.95 208.33H248.68L244.49 215.38ZM243.78 212.56C243.24 212.56 242.813 212.37 242.5 211.99C242.193 211.603 242.04 211.073 242.04 210.4C242.04 209.72 242.196 209.193 242.51 208.82C242.823 208.44 243.246 208.25 243.78 208.25C244.32 208.25 244.743 208.44 245.05 208.82C245.363 209.193 245.52 209.72 245.52 210.4C245.52 211.073 245.363 211.603 245.05 211.99C244.743 212.37 244.32 212.56 243.78 212.56ZM243.78 211.98C244.106 211.98 244.36 211.85 244.54 211.59C244.726 211.323 244.82 210.927 244.82 210.4C244.82 209.867 244.726 209.47 244.54 209.21C244.36 208.95 244.106 208.82 243.78 208.82C243.46 208.82 243.206 208.95 243.02 209.21C242.84 209.47 242.75 209.867 242.75 210.4C242.75 210.933 242.84 211.33 243.02 211.59C243.206 211.85 243.46 211.98 243.78 211.98ZM248.66 215.47C248.113 215.47 247.683 215.28 247.37 214.9C247.063 214.52 246.91 213.987 246.91 213.3C246.91 212.62 247.066 212.093 247.38 211.72C247.693 211.347 248.12 211.16 248.66 211.16C249.2 211.16 249.623 211.35 249.93 211.73C250.243 212.103 250.4 212.627 250.4 213.3C250.4 213.98 250.243 214.513 249.93 214.9C249.623 215.28 249.2 215.47 248.66 215.47ZM248.66 214.89C248.98 214.89 249.23 214.76 249.41 214.5C249.596 214.233 249.69 213.833 249.69 213.3C249.69 212.773 249.596 212.38 249.41 212.12C249.23 211.86 248.98 211.73 248.66 211.73C248.333 211.73 248.08 211.86 247.9 212.12C247.72 212.38 247.63 212.773 247.63 213.3C247.63 213.84 247.72 214.24 247.9 214.5C248.08 214.76 248.333 214.89 248.66 214.89Z" fill="white"/>
</g>
<defs>
<filter id="filter0_di_154_1113" x="2.27002" y="24.3799" width="663" height="662" filterUnits="userSpaceOnUse" color-interpolation-filters="sRGB">
<feFlood flood-opacity="0" result="BackgroundImageFix"/>
<feColorMatrix in="SourceAlpha" type="matrix" values="0 0 0 0 0 0 0 0 0 0 0 0 0 0 0 0 0 0 127 0" result="hardAlpha"/>
<feOffset dx="20" dy="34"/>
<feGaussianBlur stdDeviation="105.5"/>
<feComposite in2="hardAlpha" operator="out"/>
<feColorMatrix type="matrix" values="0 0 0 0 0.988235 0 0 0 0 0.309804 0 0 0 0 0.211765 0 0 0 0.5 0"/>
<feBlend mode="normal" in2="BackgroundImageFix" result="effect1_dropShadow_154_1113"/>
<feBlend mode="normal" in="SourceGraphic" in2="effect1_dropShadow_154_1113" result="shape"/>
<feColorMatrix in="SourceAlpha" type="matrix" values="0 0 0 0 0 0 0 0 0 0 0 0 0 0 0 0 0 0 127 0" result="hardAlpha"/>
<feMorphology radius="4" operator="erode" in="SourceAlpha" result="effect2_innerShadow_154_1113"/>
<feOffset/>
<feGaussianBlur stdDeviation="15"/>
<feComposite in2="hardAlpha" operator="arithmetic" k2="-1" k3="1"/>
<feColorMatrix type="matrix" values="0 0 0 0 0.9875 0 0 0 0 0.645509 0 0 0 0 0.576042 0 0 0 0.6 0"/>
<feBlend mode="normal" in2="shape" result="effect2_innerShadow_154_1113"/>
</filter>
<filter id="filter1_f_154_1113" x="112.785" y="113.145" width="381.485" height="375.294" filterUnits="userSpaceOnUse" color-interpolation-filters="sRGB">
<feFlood flood-opacity="0" result="BackgroundImageFix"/>
<feBlend mode="normal" in="SourceGraphic" in2="BackgroundImageFix" result="shape"/>
<feGaussianBlur stdDeviation="30" result="effect1_foregroundBlur_154_1113"/>
</filter>
<filter id="filter2_f_154_1113" x="153.557" y="137.094" width="261.646" height="257.143" filterUnits="userSpaceOnUse" color-interpolation-filters="sRGB">
<feFlood flood-opacity="0" result="BackgroundImageFix"/>
<feBlend mode="normal" in="SourceGraphic" in2="BackgroundImageFix" result="shape"/>
<feGaussianBlur stdDeviation="25" result="effect1_foregroundBlur_154_1113"/>
</filter>
<filter id="filter3_f_154_1113" x="269.472" y="357.98" width="127.723" height="102.04" filterUnits="userSpaceOnUse" color-interpolation-filters="sRGB">
<feFlood flood-opacity="0" result="BackgroundImageFix"/>
<feBlend mode="normal" in="SourceGraphic" in2="BackgroundImageFix" result="shape"/>
<feGaussianBlur stdDeviation="15" result="effect1_foregroundBlur_154_1113"/>
</filter>
<filter id="filter4_b_154_1113" x="125.02" y="221.169" width="218.892" height="135.006" filterUnits="userSpaceOnUse" color-interpolation-filters="sRGB">
<feFlood flood-opacity="0" result="BackgroundImageFix"/>
<feGaussianBlur in="BackgroundImage" stdDeviation="15"/>
<feComposite in2="SourceAlpha" operator="in" result="effect1_backgroundBlur_154_1113"/>
<feBlend mode="normal" in="SourceGraphic" in2="effect1_backgroundBlur_154_1113" result="shape"/>
</filter>
<filter id="filter5_b_154_1113" x="128.084" y="119.13" width="218.519" height="232.304" filterUnits="userSpaceOnUse" color-interpolation-filters="sRGB">
<feFlood flood-opacity="0" result="BackgroundImageFix"/>
<feGaussianBlur in="BackgroundImage" stdDeviation="15"/>
<feComposite in2="SourceAlpha" operator="in" result="effect1_backgroundBlur_154_1113"/>
<feBlend mode="normal" in="SourceGraphic" in2="effect1_backgroundBlur_154_1113" result="shape"/>
</filter>
<linearGradient id="paint0_linear_154_1113" x1="234.532" y1="251.505" x2="357.486" y2="358.367" gradientUnits="userSpaceOnUse">
<stop stop-color="#FC4F36"/>
<stop offset="1" stop-color="white"/>
</linearGradient>
<linearGradient id="paint1_linear_154_1113" x1="237.391" y1="149.38" x2="425.844" y2="220.13" gradientUnits="userSpaceOnUse">
<stop stop-color="#E30613"/>
<stop offset="1" stop-color="white"/>
</linearGradient>
<clipPath id="clip0_154_1113">
<path d="M193.27 321.38C193.27 255.106 247.496 201.38 313.77 201.38V201.38C380.044 201.38 434.27 255.106 434.27 321.38V321.38C434.27 387.654 380.044 441.38 313.77 441.38V441.38C247.496 441.38 193.27 387.654 193.27 321.38V321.38Z" fill="white"/>
</clipPath>
</defs>
</svg>
