<svg width="25" height="24" viewBox="0 0 25 24" fill="none" xmlns="http://www.w3.org/2000/svg">
<path d="M4.2999 12C4.2999 10.29 5.6899 8.9 7.3999 8.9H11.3999V7H7.3999C4.6399 7 2.3999 9.24 2.3999 12C2.3999 14.76 4.6399 17 7.3999 17H11.3999V15.1H7.3999C5.6899 15.1 4.2999 13.71 4.2999 12ZM8.3999 13H16.3999V11H8.3999V13ZM17.3999 7H13.3999V8.9H17.3999C19.1099 8.9 20.4999 10.29 20.4999 12C20.4999 13.71 19.1099 15.1 17.3999 15.1H13.3999V17H17.3999C20.1599 17 22.3999 14.76 22.3999 12C22.3999 9.24 20.1599 7 17.3999 7Z" fill="#1D91D0"/>
</svg>
