<svg width="28" height="28" viewBox="0 0 28 28" fill="none" xmlns="http://www.w3.org/2000/svg">
<circle cx="14" cy="14" r="14" fill="white"/>
<path d="M6.9125 14C6.9125 12.5037 8.12875 11.2875 9.625 11.2875H13.125V9.625H9.625C7.21 9.625 5.25 11.585 5.25 14C5.25 16.415 7.21 18.375 9.625 18.375H13.125V16.7125H9.625C8.12875 16.7125 6.9125 15.4963 6.9125 14ZM10.5 14.875H17.5V13.125H10.5V14.875ZM18.375 9.625H14.875V11.2875H18.375C19.8713 11.2875 21.0875 12.5037 21.0875 14C21.0875 15.4963 19.8713 16.7125 18.375 16.7125H14.875V18.375H18.375C20.79 18.375 22.75 16.415 22.75 14C22.75 11.585 20.79 9.625 18.375 9.625Z" fill="#1D91D0"/>
</svg>
