<svg width="30" height="30" viewBox="0 0 30 30" fill="none" xmlns="http://www.w3.org/2000/svg">
<circle cx="15" cy="15" r="15" fill="white"/>
<path d="M23.0434 9.91984C22.7378 9.91984 22.3259 10.0328 22.1465 9.87334C21.9406 9.69398 22.0868 9.27547 22.0801 8.9566C22.0668 8.27236 21.8011 8 21.1102 8C18.9179 8 16.7257 8 14.5401 8C12.3478 8 10.1555 8 7.96991 8C7.27902 8 7 8.27901 7 8.96324C7 12.9491 7 16.9283 7 20.9141C7 22.2028 7.79719 23 9.08597 23C13.3576 23 17.6292 23 21.9007 23C23.1962 23 23.9934 22.2028 23.9934 20.9207C23.9934 17.5793 23.9934 14.2378 23.9934 10.8964C24 10.1988 23.7276 9.92648 23.0434 9.91984ZM23.2227 20.9074C23.2227 21.585 22.9504 21.9969 22.4123 22.1696C22.2263 22.2294 22.0403 22.2228 21.8542 22.2228C19.7284 22.2228 17.6026 22.2228 15.4767 22.2228C13.3642 22.2228 11.2517 22.2228 9.13247 22.2228C8.18249 22.2228 7.76397 21.8043 7.76397 20.841C7.76397 16.9216 7.76397 13.0089 7.75733 9.08946C7.75733 8.82374 7.8304 8.76395 8.08284 8.76395C12.3744 8.77059 16.6725 8.77059 20.964 8.76395C21.2563 8.76395 21.2962 8.85031 21.2962 9.11603C21.2896 12.8428 21.2896 16.5762 21.2896 20.3029C21.2896 20.9407 21.542 21.306 22.0535 21.4256C22.3126 21.4854 22.5318 21.4455 22.6116 21.1665C22.6913 20.9008 22.5385 20.7347 22.286 20.6882C22.027 20.6417 22.0602 20.4557 22.0602 20.283C22.0602 18.0908 22.0602 15.8986 22.0602 13.713C22.0602 12.7963 22.0668 11.8729 22.0535 10.9562C22.0535 10.7369 22.1067 10.6639 22.3259 10.6838C22.6116 10.717 22.9769 10.5642 23.1563 10.7436C23.329 10.9163 23.2095 11.2883 23.2095 11.574C23.2294 14.6895 23.2294 17.7985 23.2227 20.9074ZM14.5002 11.0757C12.9855 11.0757 11.4709 11.0757 9.95623 11.0757C9.8433 11.0757 9.73701 11.0757 9.62407 11.0624C9.41813 11.0292 9.31184 10.8964 9.31184 10.6971C9.31184 10.4911 9.42478 10.3649 9.62407 10.3317C9.72372 10.3118 9.82337 10.3184 9.92302 10.3184C12.9988 10.3184 16.068 10.3184 19.1438 10.3184C19.2567 10.3184 19.3697 10.3051 19.476 10.3384C19.6553 10.3849 19.755 10.5111 19.755 10.7037C19.755 10.8897 19.662 11.0226 19.476 11.0624C19.3564 11.089 19.2368 11.0824 19.1106 11.0824C17.576 11.0757 16.0414 11.0757 14.5002 11.0757ZM17.4564 12.2383C18.061 12.2383 18.6721 12.2383 19.2767 12.2383C19.5424 12.2383 19.7483 12.318 19.7483 12.6169C19.7483 12.9159 19.5358 12.9956 19.2767 12.9956C18.0477 12.9956 16.8253 12.9956 15.5963 12.9956C15.324 12.9956 15.118 12.8959 15.118 12.6169C15.118 12.3379 15.324 12.2316 15.5963 12.2383C16.2208 12.2383 16.8386 12.2383 17.4564 12.2383ZM17.4498 14.1581C18.0543 14.1581 18.6655 14.1581 19.27 14.1581C19.5358 14.1581 19.7417 14.2312 19.7483 14.5301C19.755 14.8291 19.549 14.9154 19.2833 14.9154C18.0543 14.9154 16.832 14.9154 15.603 14.9154C15.3372 14.9154 15.1446 14.8291 15.1114 14.5434C15.0848 14.3043 15.2907 14.1581 15.6163 14.1581C16.2341 14.1581 16.8386 14.1581 17.4498 14.1581ZM17.4697 16.0846C18.0676 16.0846 18.6655 16.0846 19.2567 16.0846C19.5955 16.0846 19.7683 16.2174 19.755 16.4699C19.7351 16.7688 19.5291 16.8419 19.27 16.8419C18.0543 16.8419 16.8386 16.8419 15.6229 16.8419C15.2974 16.8419 15.0914 16.6891 15.118 16.4566C15.1446 16.1709 15.3439 16.0846 15.6096 16.0846C16.2274 16.0846 16.8453 16.0846 17.4697 16.0846ZM17.4232 18.7617C16.8187 18.7617 16.2075 18.7551 15.603 18.7617C15.3306 18.7617 15.1247 18.6621 15.1247 18.3831C15.1247 18.0974 15.3306 17.9978 15.603 18.0044C16.832 18.0044 18.0543 18.0044 19.2833 18.0044C19.549 18.0044 19.755 18.0841 19.755 18.3831C19.755 18.682 19.549 18.7617 19.2833 18.7617C18.6589 18.7617 18.041 18.7617 17.4232 18.7617ZM11.617 18.7617C11.0125 18.7617 10.4013 18.7617 9.7968 18.7617C9.53107 18.7617 9.32513 18.6754 9.32513 18.3764C9.32513 18.0775 9.53771 17.9978 9.80344 17.9978C11.0324 17.9978 12.2548 17.9978 13.4838 17.9978C13.7562 17.9978 13.9621 18.0974 13.9555 18.3831C13.9555 18.6621 13.7495 18.7617 13.4771 18.7617C12.8527 18.7551 12.2349 18.7617 11.617 18.7617ZM11.617 20.6882C11.0191 20.6882 10.4213 20.6882 9.83001 20.6882C9.49121 20.6882 9.31184 20.5554 9.32513 20.3029C9.33841 19.9973 9.54435 19.9243 9.80344 19.9243C11.0324 19.9243 12.2548 19.9243 13.4838 19.9243C13.7562 19.9243 13.9621 20.0239 13.9555 20.3096C13.9488 20.5886 13.7429 20.6882 13.4705 20.6882C12.8527 20.6816 12.2349 20.6882 11.617 20.6882ZM17.4431 20.6882C16.8386 20.6882 16.2274 20.6816 15.6229 20.6882C15.3572 20.6949 15.1579 20.6085 15.1247 20.3229C15.0981 20.0837 15.2974 19.9309 15.6229 19.9243C16.8386 19.9176 18.0543 19.9243 19.27 19.9243C19.6088 19.9243 19.7816 20.0638 19.7616 20.3162C19.7351 20.6151 19.5358 20.6816 19.27 20.6816C18.6589 20.6816 18.0477 20.6882 17.4431 20.6882ZM13.9621 12.7431C13.9621 12.3711 13.8292 12.2383 13.4705 12.2383C12.2415 12.2316 11.0125 12.2316 9.79015 12.2383C9.43806 12.2383 9.31848 12.3645 9.31848 12.7232C9.31184 13.3344 9.31848 13.9389 9.31848 14.55C9.31848 15.1612 9.31848 15.7657 9.31848 16.3769C9.31848 16.7622 9.44471 16.895 9.83665 16.895C11.0391 16.895 12.2481 16.9017 13.4506 16.895C13.8292 16.895 13.9687 16.7555 13.9687 16.3702C13.9687 15.1546 13.9687 13.9522 13.9621 12.7431ZM12.9457 16.1178C12.0688 16.1045 11.1985 16.1045 10.3216 16.1178C10.109 16.1178 10.0625 16.0514 10.0692 15.8521C10.0825 14.9885 10.0758 14.1249 10.0692 13.2613C10.0692 13.0686 10.1024 12.9889 10.3216 12.9889C11.1985 13.0022 12.0688 13.0022 12.9457 12.9889C13.1649 12.9823 13.1981 13.0686 13.1915 13.2613C13.1782 13.6931 13.1848 14.1249 13.1848 14.5567C13.1848 14.9885 13.1782 15.4203 13.1915 15.8521C13.1981 16.0381 13.1649 16.1178 12.9457 16.1178Z" fill="#E30613"/>
</svg>
