<svg width="278" height="184" viewBox="0 0 278 184" fill="none" xmlns="http://www.w3.org/2000/svg">
<path d="M0 6C0 2.68629 2.68629 0 6 0H272C275.314 0 278 2.68629 278 6V178C278 181.314 275.314 184 272 184H6C2.68629 184 0 181.314 0 178V6Z" fill="url(#paint0_linear_2_631)"/>
<mask id="mask0_2_631" style="mask-type:alpha" maskUnits="userSpaceOnUse" x="0" y="0" width="278" height="184">
<path d="M0 6C0 2.68629 2.68629 0 6 0H272C275.314 0 278 2.68629 278 6V178C278 181.314 275.314 184 272 184H6C2.68629 184 0 181.314 0 178V6Z" fill="url(#paint1_linear_2_631)"/>
</mask>
<g mask="url(#mask0_2_631)">
<g style="mix-blend-mode:overlay" opacity="0.504246">
<path fill-rule="evenodd" clip-rule="evenodd" d="M268.248 -84.0683L319.857 -75.2034C341.669 -71.4566 359.773 -56.6583 367.348 -36.3829L385.272 11.5893C392.847 31.8647 388.744 54.537 374.507 71.0657L340.821 110.173C326.584 126.702 304.377 134.576 282.564 130.829L230.956 121.964C209.143 118.217 191.039 103.419 183.464 83.1436L165.54 35.1714C157.965 14.8959 162.069 -7.77635 176.306 -24.305L209.991 -63.4123C224.228 -79.941 246.436 -87.815 268.248 -84.0683Z" fill="url(#paint2_linear_2_631)"/>
</g>
<g style="mix-blend-mode:overlay" opacity="0.504246">
<path fill-rule="evenodd" clip-rule="evenodd" d="M282.584 -98.3917L339.354 -81.4838C363.348 -74.3378 381.606 -55.2647 387.25 -31.4494L400.604 24.8983C406.248 48.7137 398.421 73.6532 380.071 90.3224L336.655 129.762C318.305 146.432 292.221 152.298 268.227 145.152L211.457 128.244C187.463 121.098 169.206 102.025 163.562 78.2097L150.208 21.862C144.564 -1.9533 152.391 -26.8928 170.741 -43.5621L214.156 -83.002C232.506 -99.6712 258.591 -105.538 282.584 -98.3917Z" fill="url(#paint3_linear_2_631)"/>
</g>
<g style="mix-blend-mode:overlay" opacity="0.504246">
<path fill-rule="evenodd" clip-rule="evenodd" d="M189.966 59.936L182.283 17.4893C179.035 -0.450775 185.86 -18.7157 200.185 -30.4253L234.078 -58.1304C248.403 -69.8399 268.053 -73.2152 285.625 -66.9846L327.201 -52.2431C344.774 -46.0125 357.599 -31.1228 360.846 -13.1827L368.529 29.264C371.776 47.204 364.952 65.469 350.627 77.1785L316.734 104.884C302.409 116.593 282.759 119.968 265.187 113.738L223.61 98.9963C206.038 92.7658 193.213 77.8761 189.966 59.936Z" fill="url(#paint4_linear_2_631)"/>
</g>
</g>
<path d="M105.912 52.264C104.104 52.264 102.552 51.904 101.256 51.184C99.96 50.464 98.96 49.456 98.256 48.16C97.568 46.848 97.224 45.304 97.224 43.528C97.224 41.752 97.568 40.216 98.256 38.92C98.96 37.624 99.96 36.616 101.256 35.896C102.552 35.176 104.104 34.816 105.912 34.816C107.08 34.816 108.144 34.984 109.104 35.32C110.064 35.64 110.88 36.112 111.552 36.736L110.376 39.688C109.64 39.112 108.936 38.704 108.264 38.464C107.608 38.224 106.864 38.104 106.032 38.104C104.448 38.104 103.232 38.576 102.384 39.52C101.552 40.448 101.136 41.784 101.136 43.528C101.136 45.272 101.552 46.616 102.384 47.56C103.232 48.504 104.448 48.976 106.032 48.976C106.864 48.976 107.608 48.856 108.264 48.616C108.936 48.376 109.64 47.968 110.376 47.392L111.552 50.344C110.88 50.952 110.064 51.424 109.104 51.76C108.144 52.096 107.08 52.264 105.912 52.264ZM119.194 52.264C117.082 52.264 115.434 51.696 114.25 50.56C113.066 49.424 112.474 47.88 112.474 45.928C112.474 44.664 112.722 43.56 113.218 42.616C113.73 41.672 114.434 40.936 115.33 40.408C116.242 39.864 117.306 39.592 118.522 39.592C119.722 39.592 120.722 39.848 121.522 40.36C122.338 40.872 122.946 41.592 123.346 42.52C123.762 43.432 123.97 44.496 123.97 45.712V46.552H115.45V44.752H121.33L120.922 45.088C120.922 44.08 120.714 43.32 120.298 42.808C119.898 42.28 119.314 42.016 118.546 42.016C117.698 42.016 117.042 42.328 116.578 42.952C116.13 43.576 115.906 44.472 115.906 45.64V46.024C115.906 47.208 116.194 48.088 116.77 48.664C117.362 49.24 118.21 49.528 119.314 49.528C119.97 49.528 120.586 49.448 121.162 49.288C121.754 49.112 122.314 48.84 122.842 48.472L123.85 50.872C123.242 51.32 122.538 51.664 121.738 51.904C120.954 52.144 120.106 52.264 119.194 52.264ZM126.245 52V43.048C126.245 42.52 126.229 41.984 126.197 41.44C126.181 40.896 126.141 40.36 126.077 39.832H129.557L129.965 43.384H129.413C129.573 42.52 129.829 41.808 130.181 41.248C130.549 40.688 130.997 40.272 131.525 40C132.069 39.728 132.685 39.592 133.373 39.592C133.677 39.592 133.917 39.608 134.093 39.64C134.269 39.656 134.445 39.696 134.621 39.76L134.597 42.952C134.261 42.808 133.973 42.72 133.733 42.688C133.509 42.64 133.221 42.616 132.869 42.616C132.197 42.616 131.637 42.744 131.189 43C130.757 43.256 130.429 43.632 130.205 44.128C129.997 44.624 129.893 45.224 129.893 45.928V52H126.245ZM142.528 52.264C140.944 52.264 139.752 51.872 138.952 51.088C138.152 50.288 137.752 49.096 137.752 47.512V42.544H135.448V39.832H137.752V36.856L141.376 35.968V39.832H144.496V42.544H141.376V47.32C141.376 48.088 141.536 48.616 141.856 48.904C142.176 49.192 142.584 49.336 143.08 49.336C143.384 49.336 143.632 49.32 143.824 49.288C144.032 49.24 144.248 49.176 144.472 49.096V51.904C144.168 52.032 143.848 52.12 143.512 52.168C143.176 52.232 142.848 52.264 142.528 52.264ZM146.355 52V39.832H149.979V52H146.355ZM146.211 37.84V34.456H150.099V37.84H146.211ZM153.181 52V35.08H156.925V42.448H156.973L163.909 35.08H168.349L159.829 43.936L159.853 42.4L168.877 52H164.293L156.973 44.272H156.925V52H153.181ZM103.848 82.264C102.488 82.264 101.216 82.096 100.032 81.76C98.848 81.424 97.84 80.96 97.008 80.368L98.112 77.44C98.656 77.808 99.232 78.12 99.84 78.376C100.448 78.632 101.088 78.832 101.76 78.976C102.432 79.104 103.136 79.168 103.872 79.168C105.024 79.168 105.84 78.992 106.32 78.64C106.816 78.288 107.064 77.84 107.064 77.296C107.064 76.8 106.896 76.424 106.56 76.168C106.24 75.896 105.648 75.664 104.784 75.472L101.952 74.896C100.4 74.576 99.24 74.032 98.472 73.264C97.704 72.496 97.32 71.472 97.32 70.192C97.32 69.104 97.608 68.16 98.184 67.36C98.76 66.56 99.568 65.936 100.608 65.488C101.664 65.04 102.896 64.816 104.304 64.816C105.504 64.816 106.624 64.984 107.664 65.32C108.704 65.656 109.56 66.136 110.232 66.76L109.128 69.496C108.472 68.968 107.736 68.576 106.92 68.32C106.12 68.048 105.224 67.912 104.232 67.912C103.192 67.912 102.392 68.096 101.832 68.464C101.288 68.832 101.016 69.336 101.016 69.976C101.016 70.456 101.184 70.848 101.52 71.152C101.856 71.44 102.448 71.672 103.296 71.848L106.08 72.4C107.664 72.72 108.84 73.256 109.608 74.008C110.376 74.76 110.76 75.76 110.76 77.008C110.76 78.064 110.472 78.984 109.896 79.768C109.336 80.552 108.536 81.168 107.496 81.616C106.472 82.048 105.256 82.264 103.848 82.264ZM119.405 82.264C117.293 82.264 115.645 81.696 114.461 80.56C113.277 79.424 112.685 77.88 112.685 75.928C112.685 74.664 112.933 73.56 113.429 72.616C113.941 71.672 114.645 70.936 115.541 70.408C116.453 69.864 117.517 69.592 118.733 69.592C119.933 69.592 120.933 69.848 121.733 70.36C122.549 70.872 123.157 71.592 123.557 72.52C123.973 73.432 124.181 74.496 124.181 75.712V76.552H115.661V74.752H121.541L121.133 75.088C121.133 74.08 120.925 73.32 120.509 72.808C120.109 72.28 119.525 72.016 118.757 72.016C117.909 72.016 117.253 72.328 116.789 72.952C116.341 73.576 116.117 74.472 116.117 75.64V76.024C116.117 77.208 116.405 78.088 116.981 78.664C117.573 79.24 118.421 79.528 119.525 79.528C120.181 79.528 120.797 79.448 121.373 79.288C121.965 79.112 122.525 78.84 123.053 78.472L124.061 80.872C123.453 81.32 122.749 81.664 121.949 81.904C121.165 82.144 120.317 82.264 119.405 82.264ZM132.336 82.264C131.04 82.264 129.904 82.008 128.928 81.496C127.952 80.984 127.2 80.248 126.672 79.288C126.144 78.328 125.88 77.192 125.88 75.88C125.88 74.552 126.144 73.424 126.672 72.496C127.216 71.552 127.968 70.832 128.928 70.336C129.904 69.84 131.04 69.592 132.336 69.592C133.152 69.592 133.944 69.712 134.712 69.952C135.496 70.192 136.136 70.528 136.632 70.96L135.576 73.456C135.176 73.088 134.712 72.816 134.184 72.64C133.672 72.448 133.176 72.352 132.696 72.352C131.72 72.352 130.96 72.656 130.416 73.264C129.872 73.872 129.6 74.752 129.6 75.904C129.6 77.056 129.872 77.936 130.416 78.544C130.96 79.152 131.72 79.456 132.696 79.456C133.16 79.456 133.648 79.368 134.16 79.192C134.688 79.016 135.16 78.752 135.576 78.4L136.632 80.872C136.12 81.304 135.472 81.648 134.688 81.904C133.92 82.144 133.136 82.264 132.336 82.264ZM143.107 82.264C141.587 82.264 140.459 81.848 139.723 81.016C138.987 80.168 138.619 78.888 138.619 77.176V69.832H142.243V77.176C142.243 77.944 142.395 78.512 142.699 78.88C143.019 79.248 143.507 79.432 144.163 79.432C144.883 79.432 145.475 79.184 145.939 78.688C146.419 78.176 146.659 77.496 146.659 76.648V69.832H150.283V82H146.755V79.672H147.091C146.723 80.488 146.195 81.128 145.507 81.592C144.835 82.04 144.035 82.264 143.107 82.264ZM153.245 82V73.048C153.245 72.52 153.229 71.984 153.197 71.44C153.181 70.896 153.141 70.36 153.077 69.832H156.557L156.965 73.384H156.413C156.573 72.52 156.829 71.808 157.181 71.248C157.549 70.688 157.997 70.272 158.525 70C159.069 69.728 159.685 69.592 160.373 69.592C160.677 69.592 160.917 69.608 161.093 69.64C161.269 69.656 161.445 69.696 161.621 69.76L161.597 72.952C161.261 72.808 160.973 72.72 160.733 72.688C160.509 72.64 160.221 72.616 159.869 72.616C159.197 72.616 158.637 72.744 158.189 73C157.757 73.256 157.429 73.632 157.205 74.128C156.997 74.624 156.893 75.224 156.893 75.928V82H153.245ZM163.136 82V69.832H166.76V82H163.136ZM162.992 67.84V64.456H166.88V67.84H162.992ZM175.41 82.264C173.826 82.264 172.634 81.872 171.834 81.088C171.034 80.288 170.634 79.096 170.634 77.512V72.544H168.33V69.832H170.634V66.856L174.258 65.968V69.832H177.378V72.544H174.258V77.32C174.258 78.088 174.418 78.616 174.738 78.904C175.058 79.192 175.466 79.336 175.962 79.336C176.266 79.336 176.514 79.32 176.706 79.288C176.914 79.24 177.13 79.176 177.354 79.096V81.904C177.05 82.032 176.73 82.12 176.394 82.168C176.058 82.232 175.73 82.264 175.41 82.264ZM179.329 87.448L178.489 84.616C179.241 84.472 179.873 84.304 180.385 84.112C180.913 83.92 181.345 83.664 181.681 83.344C182.017 83.04 182.289 82.64 182.497 82.144L183.097 80.728L183.001 82.12L177.721 69.832H181.537L185.017 78.64H184.273L187.801 69.832H191.401L185.905 82.48C185.505 83.392 185.073 84.144 184.609 84.736C184.161 85.344 183.673 85.824 183.145 86.176C182.617 86.528 182.033 86.8 181.393 86.992C180.769 87.184 180.081 87.336 179.329 87.448Z" fill="white"/>
<rect x="226" y="132" width="32" height="32" rx="16" fill="url(#paint5_linear_2_631)"/>
<path d="M239.867 153.008L245.201 147.756L239.867 142.504" stroke="white" stroke-opacity="0.8" stroke-width="2" stroke-linecap="round" stroke-linejoin="round"/>
<path d="M20.928 154L15.968 142.72H17.76L21.984 152.608H21.408L25.648 142.72H27.36L22.384 154H20.928ZM28.5121 154V145.936H30.1281V154H28.5121ZM28.3841 144.256V142.576H30.2561V144.256H28.3841ZM36.2245 154.144C34.9232 154.144 33.8992 153.776 33.1525 153.04C32.4058 152.304 32.0325 151.285 32.0325 149.984C32.0325 149.141 32.1925 148.405 32.5125 147.776C32.8432 147.147 33.2965 146.661 33.8725 146.32C34.4592 145.968 35.1365 145.792 35.9045 145.792C36.6618 145.792 37.2965 145.952 37.8085 146.272C38.3205 146.592 38.7098 147.045 38.9765 147.632C39.2432 148.208 39.3765 148.891 39.3765 149.68V150.192H33.2965V149.264H38.2725L38.0005 149.472C38.0005 148.672 37.8192 148.053 37.4565 147.616C37.1045 147.168 36.5925 146.944 35.9205 146.944C35.1738 146.944 34.5978 147.205 34.1925 147.728C33.7872 148.24 33.5845 148.949 33.5845 149.856V150.016C33.5845 150.965 33.8138 151.68 34.2725 152.16C34.7418 152.64 35.4032 152.88 36.2565 152.88C36.7258 152.88 37.1632 152.816 37.5685 152.688C37.9845 152.549 38.3792 152.325 38.7525 152.016L39.2805 153.12C38.9072 153.451 38.4538 153.707 37.9205 153.888C37.3872 154.059 36.8218 154.144 36.2245 154.144ZM43.3135 154L40.2575 145.936H41.9375L44.3215 152.656H43.9055L46.3535 145.936H47.6015L50.0335 152.656H49.6335L52.0175 145.936H53.6335L50.5615 154H49.0895L46.5615 147.152H47.3135L44.8175 154H43.3135ZM62.1551 154.144C61.4831 154.144 60.8645 154.059 60.2991 153.888C59.7338 153.717 59.2645 153.477 58.8911 153.168L59.3871 152.064C59.7818 152.363 60.2191 152.587 60.6991 152.736C61.1791 152.885 61.6698 152.96 62.1711 152.96C62.7578 152.96 63.2005 152.859 63.4991 152.656C63.7978 152.443 63.9471 152.155 63.9471 151.792C63.9471 151.515 63.8511 151.291 63.6591 151.12C63.4778 150.949 63.1738 150.821 62.7471 150.736L61.2111 150.432C60.5285 150.283 60.0111 150.027 59.6591 149.664C59.3071 149.301 59.1311 148.837 59.1311 148.272C59.1311 147.792 59.2591 147.365 59.5151 146.992C59.7818 146.619 60.1551 146.325 60.6351 146.112C61.1258 145.899 61.6965 145.792 62.3471 145.792C62.9445 145.792 63.4991 145.877 64.0111 146.048C64.5231 146.219 64.9498 146.464 65.2911 146.784L64.7791 147.856C64.4485 147.579 64.0751 147.365 63.6591 147.216C63.2431 147.056 62.8218 146.976 62.3951 146.976C61.7978 146.976 61.3551 147.088 61.0671 147.312C60.7791 147.536 60.6351 147.829 60.6351 148.192C60.6351 148.469 60.7205 148.699 60.8911 148.88C61.0725 149.051 61.3551 149.184 61.7391 149.28L63.2751 149.584C64.0005 149.733 64.5445 149.979 64.9071 150.32C65.2698 150.661 65.4511 151.12 65.4511 151.696C65.4511 152.197 65.3125 152.635 65.0351 153.008C64.7578 153.381 64.3738 153.664 63.8831 153.856C63.3925 154.048 62.8165 154.144 62.1551 154.144ZM67.3559 154V145.936H68.9719V154H67.3559ZM67.2279 144.256V142.576H69.0999V144.256H67.2279ZM74.4763 154.144C73.6016 154.144 72.9403 153.909 72.4923 153.44C72.0443 152.96 71.8203 152.245 71.8203 151.296V147.184H70.2523V145.936H71.8203V143.808L73.4363 143.376V145.936H75.6763V147.184H73.4363V151.152C73.4363 151.749 73.5429 152.176 73.7563 152.432C73.9696 152.688 74.2789 152.816 74.6843 152.816C74.8869 152.816 75.0629 152.8 75.2123 152.768C75.3723 152.725 75.5163 152.677 75.6443 152.624V153.936C75.4843 154 75.2976 154.048 75.0843 154.08C74.8709 154.123 74.6683 154.144 74.4763 154.144ZM80.8026 154.144C79.5013 154.144 78.4773 153.776 77.7306 153.04C76.984 152.304 76.6106 151.285 76.6106 149.984C76.6106 149.141 76.7706 148.405 77.0906 147.776C77.4213 147.147 77.8746 146.661 78.4506 146.32C79.0373 145.968 79.7146 145.792 80.4826 145.792C81.24 145.792 81.8746 145.952 82.3866 146.272C82.8986 146.592 83.288 147.045 83.5546 147.632C83.8213 148.208 83.9546 148.891 83.9546 149.68V150.192H77.8746V149.264H82.8506L82.5786 149.472C82.5786 148.672 82.3973 148.053 82.0346 147.616C81.6826 147.168 81.1706 146.944 80.4986 146.944C79.752 146.944 79.176 147.205 78.7706 147.728C78.3653 148.24 78.1626 148.949 78.1626 149.856V150.016C78.1626 150.965 78.392 151.68 78.8506 152.16C79.32 152.64 79.9813 152.88 80.8346 152.88C81.304 152.88 81.7413 152.816 82.1466 152.688C82.5626 152.549 82.9573 152.325 83.3306 152.016L83.8586 153.12C83.4853 153.451 83.032 153.707 82.4986 153.888C81.9653 154.059 81.4 154.144 80.8026 154.144Z" fill="white"/>
<circle cx="48" cy="52" r="32" fill="white"/>
<path fill-rule="evenodd" clip-rule="evenodd" d="M68.7163 38.0758L68.463 36.565C68.4358 36.4413 68.3936 36.3207 68.3363 36.2061C68.267 36.1066 68.1825 36.0222 68.083 35.9528C67.9835 35.8864 67.878 35.8322 67.7664 35.79C67.6548 35.7568 67.5402 35.7598 67.4286 35.79C67.3593 35.796 67.2899 35.805 67.2236 35.8231C67.0999 35.8533 66.9884 35.9226 66.9039 36.0161C66.8074 36.0945 66.732 36.1971 66.6838 36.3116L59.1418 52.5084L59.0272 52.7285C58.9609 52.7134 58.8975 52.7044 58.8282 52.7044H37.7854L29.6735 36.3056C29.6101 36.2001 29.5348 36.1036 29.4503 36.0131C29.3568 35.9287 29.2513 35.8623 29.1337 35.8201C29.0281 35.7598 28.9015 35.7447 28.7839 35.7839C28.6602 35.7869 28.5426 35.8201 28.4371 35.8834C28.3346 35.9498 28.2381 36.0252 28.1536 36.1126C28.0812 36.2121 28.03 36.3237 27.9938 36.4413C27.9697 36.5046 27.9576 36.571 27.9546 36.6373L27.7103 38.1089C27.5173 39.5926 27.4238 41.0914 27.4238 42.5901C27.4208 45.8409 27.8068 49.0827 28.5668 52.243C29.0704 54.3961 29.77 56.501 30.6566 58.5275C31.5371 60.5509 32.5956 62.487 33.8259 64.3204C36.6455 68.5423 40.7678 72.6646 46.6693 75.9365L47.6042 76.4582C47.6343 76.4823 47.6675 76.5064 47.7037 76.5245C47.7941 76.5758 47.8906 76.609 47.9902 76.627C48.0052 76.6301 48.0233 76.6301 48.0384 76.6331C48.0927 76.6421 48.144 76.6512 48.1982 76.6482C48.2073 76.6482 48.2133 76.6512 48.2224 76.6512C48.3762 76.6512 48.5269 76.618 48.6657 76.5517L49.7754 75.9335C55.6679 72.6585 59.7871 68.5031 62.6188 64.3174C65.0825 60.6414 66.8647 56.5493 67.878 52.243C68.6319 49.0796 69.0058 45.8409 68.9998 42.5901C68.9998 41.0793 68.9063 39.5715 68.7163 38.0758ZM58.0954 54.5348L48.1801 73.708L38.6931 54.5348H58.0954ZM35.3126 63.2409C32.9755 59.7548 31.2898 55.8738 30.3369 51.7876C29.6132 48.7751 29.2513 45.6871 29.2603 42.5901C29.2513 41.6673 29.2905 40.7476 29.3659 39.8278L46.033 73.4275C41.184 70.4481 37.7341 66.8716 35.3126 63.2409ZM66.0807 51.7876C65.1217 55.8708 63.439 59.7488 61.111 63.2378C58.6684 66.8565 55.2547 70.3908 50.4388 73.3883L60.7943 53.3859L60.8275 53.3527L67.0728 39.9334C67.1452 40.8169 67.1784 41.7035 67.1603 42.5931C67.1663 45.6901 66.8044 48.7781 66.0807 51.7876Z" fill="#E1AA4D"/>
<path fill-rule="evenodd" clip-rule="evenodd" d="M33.7261 35.588C33.8015 35.6875 33.901 35.7659 34.0126 35.8202C34.1181 35.8835 34.2387 35.9167 34.3594 35.9167C34.477 35.9197 34.5946 35.9106 34.7092 35.8835L48.21 31.6315L61.9942 35.983C62.1088 36.0102 62.2264 36.0222 62.341 36.0162C62.4646 36.0162 62.5823 35.98 62.6878 35.9167C62.7964 35.8594 62.8959 35.781 62.9743 35.6875C63.0587 35.597 63.113 35.4824 63.1341 35.3588C63.1582 35.2412 63.1703 35.1206 63.1643 34.9999C63.1643 34.8733 63.1311 34.7496 63.0708 34.6381C63.0165 34.5295 62.9411 34.43 62.8506 34.3456C62.7632 34.2611 62.6546 34.2038 62.534 34.1827L48.4633 29.7317C48.2914 29.6623 48.0984 29.6623 47.9265 29.7317L34.1724 34.0832C34.0578 34.1164 33.9492 34.1737 33.8558 34.246C33.7562 34.3214 33.6808 34.424 33.6356 34.5386C33.5723 34.6471 33.5391 34.7738 33.5391 34.9004C33.5331 35.021 33.5421 35.1417 33.5723 35.2593C33.6024 35.3769 33.6567 35.4885 33.7261 35.588Z" fill="#E1AA4D"/>
<defs>
<linearGradient id="paint0_linear_2_631" x1="37.3862" y1="175.328" x2="212.487" y2="-26.7678" gradientUnits="userSpaceOnUse">
<stop stop-color="#DAA44A"/>
<stop offset="1" stop-color="#FFC86A"/>
</linearGradient>
<linearGradient id="paint1_linear_2_631" x1="37.3862" y1="175.328" x2="212.487" y2="-26.7678" gradientUnits="userSpaceOnUse">
<stop stop-color="#475FBA"/>
<stop offset="1" stop-color="#1D91D0"/>
</linearGradient>
<linearGradient id="paint2_linear_2_631" x1="108.893" y1="395.11" x2="537.203" y2="106.807" gradientUnits="userSpaceOnUse">
<stop stop-opacity="0.01"/>
<stop offset="1" stop-color="white"/>
</linearGradient>
<linearGradient id="paint3_linear_2_631" x1="526.724" y1="130.789" x2="319.515" y2="-235.878" gradientUnits="userSpaceOnUse">
<stop stop-opacity="0.01"/>
<stop offset="1" stop-color="white"/>
</linearGradient>
<linearGradient id="paint4_linear_2_631" x1="226.543" y1="-64.1617" x2="148.102" y2="81.6391" gradientUnits="userSpaceOnUse">
<stop stop-opacity="0.01"/>
<stop offset="1" stop-color="white"/>
</linearGradient>
<linearGradient id="paint5_linear_2_631" x1="242" y1="132" x2="242" y2="164" gradientUnits="userSpaceOnUse">
<stop stop-color="#FA4833"/>
<stop offset="1" stop-color="#E30713"/>
</linearGradient>
</defs>
</svg>
