<svg width="517" height="527" viewBox="0 0 517 527" fill="none" xmlns="http://www.w3.org/2000/svg">
<g filter="url(#filter0_di_1_198)">
<g clip-path="url(#clip0_1_198)">
<path d="M181 229.5C181 200.505 204.505 177 233.5 177C262.495 177 286 200.505 286 229.5C286 258.495 262.495 282 233.5 282C204.505 282 181 258.495 181 229.5Z" fill="#F3715E"/>
<g filter="url(#filter1_f_1_198)">
<ellipse cx="229.037" cy="220.493" rx="56.9625" ry="55.8456" fill="#FF4229"/>
</g>
<g filter="url(#filter2_f_1_198)">
<ellipse cx="220.695" cy="205.125" rx="35.2134" ry="34.375" fill="#FF7360"/>
</g>
<g opacity="0.45" filter="url(#filter3_f_1_198)">
<ellipse rx="14.9157" ry="8.92495" transform="matrix(0.981993 -0.188915 0.196258 0.980552 242.024 267.834)" fill="#FF7360"/>
</g>
</g>
</g>
<defs>
<filter id="filter0_di_1_198" x="-10" y="0" width="527" height="527" filterUnits="userSpaceOnUse" color-interpolation-filters="sRGB">
<feFlood flood-opacity="0" result="BackgroundImageFix"/>
<feColorMatrix in="SourceAlpha" type="matrix" values="0 0 0 0 0 0 0 0 0 0 0 0 0 0 0 0 0 0 127 0" result="hardAlpha"/>
<feOffset dx="20" dy="34"/>
<feGaussianBlur stdDeviation="105.5"/>
<feComposite in2="hardAlpha" operator="out"/>
<feColorMatrix type="matrix" values="0 0 0 0 0.988235 0 0 0 0 0.309804 0 0 0 0 0.211765 0 0 0 1 0"/>
<feBlend mode="normal" in2="BackgroundImageFix" result="effect1_dropShadow_1_198"/>
<feBlend mode="normal" in="SourceGraphic" in2="effect1_dropShadow_1_198" result="shape"/>
<feColorMatrix in="SourceAlpha" type="matrix" values="0 0 0 0 0 0 0 0 0 0 0 0 0 0 0 0 0 0 127 0" result="hardAlpha"/>
<feMorphology radius="4" operator="erode" in="SourceAlpha" result="effect2_innerShadow_1_198"/>
<feOffset/>
<feGaussianBlur stdDeviation="15"/>
<feComposite in2="hardAlpha" operator="arithmetic" k2="-1" k3="1"/>
<feColorMatrix type="matrix" values="0 0 0 0 0.9875 0 0 0 0 0.645509 0 0 0 0 0.576042 0 0 0 0.6 0"/>
<feBlend mode="normal" in2="shape" result="effect2_innerShadow_1_198"/>
</filter>
<filter id="filter1_f_1_198" x="112.075" y="104.647" width="233.925" height="231.691" filterUnits="userSpaceOnUse" color-interpolation-filters="sRGB">
<feFlood flood-opacity="0" result="BackgroundImageFix"/>
<feBlend mode="normal" in="SourceGraphic" in2="BackgroundImageFix" result="shape"/>
<feGaussianBlur stdDeviation="30" result="effect1_foregroundBlur_1_198"/>
</filter>
<filter id="filter2_f_1_198" x="135.482" y="120.75" width="170.427" height="168.75" filterUnits="userSpaceOnUse" color-interpolation-filters="sRGB">
<feFlood flood-opacity="0" result="BackgroundImageFix"/>
<feBlend mode="normal" in="SourceGraphic" in2="BackgroundImageFix" result="shape"/>
<feGaussianBlur stdDeviation="25" result="effect1_foregroundBlur_1_198"/>
</filter>
<filter id="filter3_f_1_198" x="197.271" y="228.638" width="89.506" height="78.3926" filterUnits="userSpaceOnUse" color-interpolation-filters="sRGB">
<feFlood flood-opacity="0" result="BackgroundImageFix"/>
<feBlend mode="normal" in="SourceGraphic" in2="BackgroundImageFix" result="shape"/>
<feGaussianBlur stdDeviation="15" result="effect1_foregroundBlur_1_198"/>
</filter>
<clipPath id="clip0_1_198">
<path d="M181 229.5C181 200.505 204.505 177 233.5 177C262.495 177 286 200.505 286 229.5C286 258.495 262.495 282 233.5 282C204.505 282 181 258.495 181 229.5Z" fill="white"/>
</clipPath>
</defs>
</svg>
