<svg width="36" height="36" viewBox="0 0 36 36" fill="none" xmlns="http://www.w3.org/2000/svg">
<path d="M36 18C36 27.936 27.936 36 18 36C8.064 36 0 27.936 0 18C0 8.064 8.064 0 18 0C27.936 0 36 8.064 36 18Z" fill="white"/>
<path d="M8.89129 18.6119L8.96329 18.5039L13.6433 11.1959C13.7153 11.0879 13.8593 11.0879 13.9313 11.2319C14.7233 12.9959 15.3713 15.1559 15.0833 16.5239C14.9393 17.0999 14.5793 17.8559 14.1473 18.5399C14.1113 18.6479 14.0393 18.7559 13.9673 18.8279C13.9313 18.8639 13.8953 18.8999 13.8233 18.8999H8.99929C8.89129 18.8639 8.81929 18.7199 8.89129 18.6119Z" fill="#2081E2"/>
<path d="M29.7356 19.9799V21.1319C29.7356 21.2039 29.6996 21.2399 29.6276 21.2759C29.2676 21.4199 28.0076 21.9959 27.5036 22.7159C26.1716 24.5519 25.1636 27.1799 22.9316 27.1799H13.5716C10.2596 27.1799 7.55957 24.4799 7.55957 21.1319V21.0239C7.55957 20.9519 7.63157 20.8799 7.70357 20.8799H12.9596C13.0676 20.8799 13.1396 20.9879 13.1396 21.0599C13.1036 21.3839 13.1756 21.7439 13.3196 22.0679C13.6436 22.7159 14.2916 23.0759 14.9756 23.0759H17.5676V21.0599H15.0116C14.8676 21.0599 14.7956 20.9159 14.8676 20.8079C14.9036 20.7719 14.9396 20.7359 14.9756 20.6639C15.2276 20.3039 15.5516 19.7999 15.9116 19.1879C16.1636 18.7919 16.3796 18.3239 16.5596 17.8919C16.5956 17.8199 16.6316 17.7479 16.6676 17.6399C16.7036 17.4959 16.7756 17.3519 16.8116 17.2439C16.8476 17.1359 16.8836 17.0279 16.9196 16.9199C16.9916 16.5599 17.0276 16.1639 17.0276 15.7319C17.0276 15.5879 17.0276 15.4079 16.9916 15.2279C16.9916 15.0479 16.9556 14.8679 16.9556 14.6879C16.9556 14.5439 16.9196 14.3639 16.8836 14.2199C16.8476 13.9679 16.8116 13.7519 16.7396 13.4999L16.7036 13.4279C16.6676 13.2839 16.6316 13.1039 16.5596 12.9599C16.4156 12.4559 16.2356 11.9519 16.0556 11.5199C15.9836 11.3399 15.9116 11.1599 15.8396 10.9799C15.7316 10.7279 15.6236 10.4759 15.5156 10.2599C15.4796 10.1519 15.4076 10.0799 15.3716 9.97189C15.3356 9.86389 15.2636 9.75589 15.2276 9.64789C15.1916 9.57589 15.1556 9.50389 15.1196 9.43189L14.7956 8.85589C14.7596 8.78389 14.8316 8.67589 14.9036 8.71189L16.8836 9.25189L17.1356 9.32389L17.4236 9.39589L17.5316 9.43189V8.24389C17.5316 7.66789 17.9996 7.19989 18.5396 7.19989C18.8276 7.19989 19.0796 7.30789 19.2596 7.48789C19.4396 7.66789 19.5476 7.91989 19.5476 8.20789V9.93589L19.7636 10.0079C19.7636 10.0079 19.7996 10.0079 19.7996 10.0439C19.8356 10.0799 19.9076 10.1519 20.0156 10.2239C20.0876 10.2959 20.1596 10.3679 20.2676 10.4399C20.4476 10.5839 20.6996 10.7999 20.9516 11.0159C21.0236 11.0879 21.0956 11.1239 21.1316 11.1959C21.4556 11.4839 21.8156 11.8439 22.1756 12.2399C22.2836 12.3479 22.3556 12.4559 22.4636 12.5639C22.5716 12.6719 22.6436 12.8159 22.7516 12.9239C22.8596 13.0679 23.0036 13.2479 23.1116 13.3919C23.1476 13.4639 23.2196 13.5359 23.2556 13.6439C23.3996 13.8599 23.5076 14.0759 23.6516 14.2919C23.6876 14.3999 23.7596 14.5079 23.7956 14.6159C23.9396 14.9039 24.0476 15.1919 24.0836 15.5159C24.1196 15.5879 24.1196 15.6599 24.1196 15.6959C24.1556 15.7679 24.1556 15.8759 24.1556 15.9839C24.1916 16.3079 24.1556 16.5959 24.1196 16.9199C24.0836 17.0639 24.0476 17.1719 24.0116 17.3159C23.9756 17.4239 23.9396 17.5679 23.8676 17.7119C23.7596 17.9639 23.6156 18.2159 23.4716 18.4679C23.4356 18.5399 23.3636 18.6479 23.2916 18.7559C23.2196 18.8639 23.1476 18.9359 23.1116 19.0439C23.0396 19.1519 22.9316 19.2599 22.8596 19.3679C22.7876 19.4759 22.7156 19.5839 22.6076 19.6919C22.4996 19.8359 22.3556 19.9799 22.2476 20.1239C22.1756 20.1959 22.1036 20.3039 21.9956 20.3759C21.9236 20.4479 21.8516 20.5559 21.7436 20.6279C21.6356 20.7359 21.5276 20.8439 21.4196 20.9159L21.2036 21.0959C21.1676 21.1319 21.1316 21.1319 21.0956 21.1319H19.5116V23.1479H21.4916C21.9236 23.1479 22.3556 23.0039 22.6796 22.7159C22.7876 22.6079 23.2916 22.1759 23.9036 21.5279C23.9396 21.4919 23.9396 21.4919 23.9756 21.4919L29.5556 19.7999C29.6636 19.7639 29.7356 19.8719 29.7356 19.9799Z" fill="#2081E2"/>
</svg>
