<svg width="56" height="56" viewBox="0 0 56 56" fill="none" xmlns="http://www.w3.org/2000/svg">
<path d="M0 8C0 3.58172 3.58172 0 8 0H48C52.4183 0 56 3.58172 56 8V48C56 52.4183 52.4183 56 48 56H8C3.58172 56 0 52.4183 0 48V8Z" fill="url(#paint0_linear_971_694)"/>
<path d="M13.9922 42.001H12.9922C12.9922 42.5533 13.4399 43.001 13.9922 43.001V42.001ZM41.9922 42.001V43.001C42.5445 43.001 42.9922 42.5533 42.9922 42.001H41.9922ZM18.6589 19.2232C18.1066 19.2232 17.6589 19.6709 17.6589 20.2232C17.6589 20.7755 18.1066 21.2232 18.6589 21.2232V19.2232ZM20.2144 21.2232C20.7667 21.2232 21.2144 20.7755 21.2144 20.2232C21.2144 19.6709 20.7667 19.2232 20.2144 19.2232V21.2232ZM26.4366 19.2232C25.8843 19.2232 25.4366 19.6709 25.4366 20.2232C25.4366 20.7755 25.8843 21.2232 26.4366 21.2232V19.2232ZM27.9922 21.2232C28.5445 21.2232 28.9922 20.7755 28.9922 20.2232C28.9922 19.6709 28.5445 19.2232 27.9922 19.2232V21.2232ZM18.6589 23.8899C18.1066 23.8899 17.6589 24.3376 17.6589 24.8899C17.6589 25.4422 18.1066 25.8899 18.6589 25.8899V23.8899ZM20.2144 25.8899C20.7667 25.8899 21.2144 25.4422 21.2144 24.8899C21.2144 24.3376 20.7667 23.8899 20.2144 23.8899V25.8899ZM26.4366 23.8899C25.8843 23.8899 25.4366 24.3376 25.4366 24.8899C25.4366 25.4422 25.8843 25.8899 26.4366 25.8899V23.8899ZM27.9922 25.8899C28.5445 25.8899 28.9922 25.4422 28.9922 24.8899C28.9922 24.3376 28.5445 23.8899 27.9922 23.8899V25.8899ZM18.6589 28.5565C18.1066 28.5565 17.6589 29.0042 17.6589 29.5565C17.6589 30.1088 18.1066 30.5565 18.6589 30.5565V28.5565ZM20.2144 30.5565C20.7667 30.5565 21.2144 30.1088 21.2144 29.5565C21.2144 29.0042 20.7667 28.5565 20.2144 28.5565V30.5565ZM26.4366 28.5565C25.8843 28.5565 25.4366 29.0042 25.4366 29.5565C25.4366 30.1088 25.8843 30.5565 26.4366 30.5565V28.5565ZM27.9922 30.5565C28.5445 30.5565 28.9922 30.1088 28.9922 29.5565C28.9922 29.0042 28.5445 28.5565 27.9922 28.5565V30.5565ZM26.4366 42.001V43.001H27.4366V42.001H26.4366ZM20.2144 42.001H19.2144V43.001H20.2144V42.001ZM37.3255 25.4454C36.7732 25.4454 36.3255 25.8931 36.3255 26.4454C36.3255 26.9977 36.7732 27.4454 37.3255 27.4454V25.4454ZM37.3411 27.4454C37.8934 27.4454 38.3411 26.9977 38.3411 26.4454C38.3411 25.8931 37.8934 25.4454 37.3411 25.4454V27.4454ZM37.3255 30.1121C36.7732 30.1121 36.3255 30.5598 36.3255 31.1121C36.3255 31.6644 36.7732 32.1121 37.3255 32.1121V30.1121ZM37.3411 32.1121C37.8934 32.1121 38.3411 31.6644 38.3411 31.1121C38.3411 30.5598 37.8934 30.1121 37.3411 30.1121V32.1121ZM37.3255 34.7788C36.7732 34.7788 36.3255 35.2265 36.3255 35.7788C36.3255 36.331 36.7732 36.7788 37.3255 36.7788V34.7788ZM37.3411 36.7788C37.8934 36.7788 38.3411 36.331 38.3411 35.7788C38.3411 35.2265 37.8934 34.7788 37.3411 34.7788V36.7788ZM41.8226 21.0725L40.9316 21.5265L41.8226 21.0725ZM41.1428 20.3927L40.6889 21.2838L41.1428 20.3927ZM31.8095 14.1705L31.3555 15.0615L31.8095 14.1705ZM32.4893 14.8503L31.5983 15.3043L32.4893 14.8503ZM14.1617 14.8503L15.0527 15.3043L14.1617 14.8503ZM14.8415 14.1705L15.2955 15.0615L14.8415 14.1705ZM12.9922 16.4899V42.001H14.9922V16.4899H12.9922ZM16.4811 15.001H30.17V13.001H16.4811V15.001ZM31.6589 16.4899V20.2232H33.6589V16.4899H31.6589ZM31.6589 20.2232V42.001H33.6589V20.2232H31.6589ZM13.9922 43.001H32.6589V41.001H13.9922V43.001ZM32.6589 43.001H41.9922V41.001H32.6589V43.001ZM40.9922 22.7121V42.001H42.9922V22.7121H40.9922ZM32.6589 21.2232H39.5033V19.2232H32.6589V21.2232ZM18.6589 21.2232H20.2144V19.2232H18.6589V21.2232ZM26.4366 21.2232H27.9922V19.2232H26.4366V21.2232ZM18.6589 25.8899H20.2144V23.8899H18.6589V25.8899ZM26.4366 25.8899H27.9922V23.8899H26.4366V25.8899ZM18.6589 30.5565H20.2144V28.5565H18.6589V30.5565ZM26.4366 30.5565H27.9922V28.5565H26.4366V30.5565ZM25.4366 37.3343V42.001H27.4366V37.3343H25.4366ZM26.4366 41.001H20.2144V43.001H26.4366V41.001ZM21.2144 42.001V37.3343H19.2144V42.001H21.2144ZM23.3255 35.2232C24.4915 35.2232 25.4366 36.1684 25.4366 37.3343H27.4366C27.4366 35.0638 25.596 33.2232 23.3255 33.2232V35.2232ZM23.3255 33.2232C21.055 33.2232 19.2144 35.0638 19.2144 37.3343H21.2144C21.2144 36.1684 22.1596 35.2232 23.3255 35.2232V33.2232ZM37.3255 27.4454H37.3411V25.4454H37.3255V27.4454ZM37.3255 32.1121H37.3411V30.1121H37.3255V32.1121ZM37.3255 36.7788H37.3411V34.7788H37.3255V36.7788ZM42.9922 22.7121C42.9922 22.293 42.993 21.9185 42.9677 21.609C42.9414 21.2877 42.8822 20.9494 42.7136 20.6186L40.9316 21.5265C40.9326 21.5284 40.9582 21.5743 40.9743 21.7718C40.9914 21.9811 40.9922 22.26 40.9922 22.7121H42.9922ZM39.5033 21.2232C39.9554 21.2232 40.2343 21.224 40.4436 21.2411C40.6411 21.2572 40.6869 21.2828 40.6889 21.2838L41.5968 19.5017C41.266 19.3332 40.9277 19.274 40.6064 19.2477C40.2969 19.2224 39.9224 19.2232 39.5033 19.2232V21.2232ZM42.7136 20.6186C42.4686 20.1377 42.0777 19.7467 41.5968 19.5017L40.6889 21.2838C40.7934 21.337 40.8784 21.422 40.9316 21.5265L42.7136 20.6186ZM30.17 15.001C30.6221 15.001 30.901 15.0018 31.1102 15.0188C31.3078 15.035 31.3536 15.0606 31.3555 15.0615L32.2635 13.2795C31.9327 13.1109 31.5943 13.0517 31.2731 13.0255C30.9635 13.0002 30.5891 13.001 30.17 13.001V15.001ZM33.6589 16.4899C33.6589 16.0708 33.6596 15.6963 33.6343 15.3867C33.6081 15.0655 33.5489 14.7272 33.3803 14.3963L31.5983 15.3043C31.5993 15.3062 31.6248 15.3521 31.641 15.5496C31.6581 15.7588 31.6589 16.0378 31.6589 16.4899H33.6589ZM31.3555 15.0615C31.4601 15.1148 31.545 15.1998 31.5983 15.3043L33.3803 14.3963C33.1353 13.9155 32.7444 13.5245 32.2635 13.2795L31.3555 15.0615ZM14.9922 16.4899C14.9922 16.0378 14.993 15.7588 15.0101 15.5496C15.0262 15.3521 15.0518 15.3062 15.0527 15.3043L13.2707 14.3963C13.1022 14.7272 13.0429 15.0655 13.0167 15.3867C12.9914 15.6963 12.9922 16.0708 12.9922 16.4899H14.9922ZM16.4811 13.001C16.062 13.001 15.6875 13.0002 15.378 13.0255C15.0567 13.0517 14.7184 13.1109 14.3875 13.2795L15.2955 15.0615C15.2974 15.0606 15.3433 15.035 15.5408 15.0188C15.75 15.0018 16.029 15.001 16.4811 15.001V13.001ZM15.0527 15.3043C15.106 15.1998 15.191 15.1148 15.2955 15.0615L14.3875 13.2795C13.9067 13.5245 13.5157 13.9155 13.2707 14.3963L15.0527 15.3043Z" fill="white"/>
<defs>
<linearGradient id="paint0_linear_971_694" x1="1.49732e-06" y1="52" x2="56" y2="-1.56947e-06" gradientUnits="userSpaceOnUse">
<stop stop-color="#9610FF"/>
<stop offset="1" stop-color="#B14DFF" stop-opacity="0"/>
</linearGradient>
</defs>
</svg>
