<svg width="189" height="189" viewBox="0 0 189 189" fill="none" xmlns="http://www.w3.org/2000/svg">
<path d="M94.4013 181.638C142.581 181.638 181.639 142.58 181.639 94.4003C181.639 46.2205 142.581 7.16309 94.4013 7.16309C46.2215 7.16309 7.16406 46.2205 7.16406 94.4003C7.16406 142.58 46.2215 181.638 94.4013 181.638Z" fill="url(#paint0_linear_980_1479)"/>
<path d="M94.398 156.575C128.737 156.575 156.573 128.738 156.573 94.4C156.573 60.0615 128.737 32.2246 94.398 32.2246C60.0595 32.2246 32.2227 60.0615 32.2227 94.4C32.2227 128.738 60.0595 156.575 94.398 156.575Z" fill="url(#paint1_linear_980_1479)"/>
<path d="M94.4 187.8C145.983 187.8 187.8 145.983 187.8 94.4C187.8 42.8166 145.983 1 94.4 1C42.8166 1 1 42.8166 1 94.4C1 145.983 42.8166 187.8 94.4 187.8Z" stroke="url(#paint2_linear_980_1479)" stroke-width="1.0529" stroke-miterlimit="10"/>
<path d="M41.0008 68.877C42.2197 63.1377 44.7846 58.7444 48.6954 55.6971C52.6062 52.5989 57.5328 51.0498 63.4751 51.0498C68.6557 51.0498 72.6173 52.218 75.3599 54.5543C78.1026 56.8398 79.4739 59.8364 79.4739 63.544C79.4739 64.4075 79.3977 65.3471 79.2453 66.3629C78.6358 69.8166 77.3153 72.5846 75.2837 74.667C73.2521 76.6986 71.0936 78.0699 68.8081 78.7809V79.0857C73.5823 80.9649 75.9694 84.3424 75.9694 89.2182C75.9694 89.7769 75.8678 90.7673 75.6647 92.1894C75.106 95.3891 73.8616 98.208 71.9316 100.646C70.0524 103.084 67.5891 104.988 64.5417 106.36C61.4944 107.731 58.0661 108.417 54.2568 108.417C48.67 108.417 44.3021 107.223 41.1531 104.836C38.0042 102.449 36.4297 98.7666 36.4297 93.7893C36.4297 92.3164 36.5313 90.945 36.7344 89.6753H51.2856C51.1333 90.3356 51.0571 90.9958 51.0571 91.6561C51.0571 94.6019 52.6316 96.0748 55.7805 96.0748C57.4058 96.0748 58.7771 95.4653 59.8945 94.2464C61.0119 93.0274 61.5705 91.5037 61.5705 89.6753C61.5705 88.2024 60.9865 87.1358 59.8183 86.4756C58.7009 85.7645 56.8979 85.409 54.4092 85.409H51.8189L54.0283 73.2957H56.5424C58.4724 73.3464 60.1738 73.0417 61.6467 72.3814C63.1196 71.6704 64.0338 70.2737 64.3894 68.1913C64.4402 67.8866 64.4655 67.4802 64.4655 66.9723C64.4655 65.8042 64.1608 64.9408 63.5513 64.3821C62.9419 63.7726 62.0784 63.4679 60.9611 63.4679C59.4374 63.4679 58.2438 64.0012 57.3804 65.0677C56.517 66.0835 55.9329 67.3533 55.6282 68.877H41.0008Z" fill="white"/>
<path d="M84.7574 80.2284C86.2811 71.8481 89.2523 65.1947 93.671 60.2681C98.0896 55.3415 104.108 52.8782 111.727 52.8782C117.974 52.8782 122.545 54.5797 125.44 57.9826C128.386 61.3347 129.859 65.9819 129.859 71.9243C129.859 74.7178 129.605 77.4858 129.097 80.2284C127.624 88.6087 124.653 95.2875 120.183 100.265C115.714 105.192 109.695 107.655 102.127 107.655C95.8803 107.655 91.2838 105.979 88.338 102.627C85.443 99.2745 83.9955 94.6019 83.9955 88.6087C83.9955 85.8661 84.2495 83.0726 84.7574 80.2284ZM114.317 80.2284C114.774 77.4858 115.003 75.378 115.003 73.9051C115.003 71.7212 114.571 70.0197 113.707 68.8008C112.844 67.5818 111.371 66.9723 109.289 66.9723C106.292 66.9723 104.083 68.1405 102.661 70.4768C101.239 72.8132 100.172 76.0637 99.461 80.2284C99.0039 82.9711 98.7753 85.1042 98.7753 86.6279C98.7753 88.8119 99.207 90.5133 100.07 91.7323C100.934 92.9512 102.432 93.5607 104.565 93.5607C107.562 93.5607 109.72 92.4179 111.041 90.1324C112.412 87.7961 113.504 84.4948 114.317 80.2284Z" fill="white"/>
<path d="M129.965 87.2523C129.965 85.3017 130.524 83.7746 131.643 82.671C132.788 81.5674 134.25 81.0156 136.03 81.0156C137.811 81.0156 139.26 81.5674 140.379 82.671C141.524 83.7746 142.096 85.3017 142.096 87.2523C142.096 89.2285 141.524 90.7684 140.379 91.872C139.26 92.9756 137.811 93.5274 136.03 93.5274C134.25 93.5274 132.788 92.9756 131.643 91.872C130.524 90.7684 129.965 89.2285 129.965 87.2523ZM154.456 81.4776L139.464 108.426H134.276L149.229 81.4776H154.456ZM135.992 84.2494C134.593 84.2494 133.894 85.2504 133.894 87.2523C133.894 89.2798 134.593 90.2936 135.992 90.2936C136.679 90.2936 137.213 90.0498 137.594 89.5621C137.976 89.0488 138.167 88.2789 138.167 87.2523C138.167 85.2504 137.442 84.2494 135.992 84.2494ZM146.712 102.613C146.712 100.637 147.271 99.1095 148.39 98.0316C149.535 96.928 150.997 96.3762 152.777 96.3762C154.557 96.3762 155.994 96.928 157.088 98.0316C158.207 99.1095 158.766 100.637 158.766 102.613C158.766 104.589 158.207 106.129 157.088 107.233C155.994 108.336 154.557 108.888 152.777 108.888C150.971 108.888 149.509 108.336 148.39 107.233C147.271 106.129 146.712 104.589 146.712 102.613ZM152.739 99.61C151.289 99.61 150.565 100.611 150.565 102.613C150.565 104.64 151.289 105.654 152.739 105.654C154.163 105.654 154.875 104.64 154.875 102.613C154.875 100.611 154.163 99.61 152.739 99.61Z" fill="white"/>
<g opacity="0.3">
<path d="M41.0008 71.9014C42.2197 66.1621 44.7846 61.7688 48.6954 58.7215C52.6062 55.6233 57.5328 54.0742 63.4751 54.0742C68.6557 54.0742 72.6173 55.2424 75.3599 57.5787C78.1026 59.8642 79.4739 62.8608 79.4739 66.5685C79.4739 67.4319 79.3977 68.3715 79.2453 69.3873C78.6358 72.841 77.3153 75.609 75.2837 77.6914C73.2521 79.723 71.0936 81.0943 68.8081 81.8053V82.1101C73.5823 83.9893 75.9694 87.3668 75.9694 92.2426C75.9694 92.8013 75.8678 93.7917 75.6647 95.2138C75.106 98.4135 73.8616 101.232 71.9316 103.67C70.0524 106.108 67.5891 108.013 64.5417 109.384C61.4944 110.755 58.0661 111.441 54.2568 111.441C48.67 111.441 44.3021 110.248 41.1531 107.86C38.0042 105.473 36.4297 101.791 36.4297 96.8137C36.4297 95.3408 36.5313 93.9695 36.7344 92.6997H51.2856C51.1333 93.36 51.0571 94.0202 51.0571 94.6805C51.0571 97.6263 52.6316 99.0992 55.7805 99.0992C57.4058 99.0992 58.7771 98.4897 59.8945 97.2708C61.0119 96.0518 61.5705 94.5281 61.5705 92.6997C61.5705 91.2268 60.9865 90.1602 59.8183 89.5C58.7009 88.7889 56.8979 88.4334 54.4092 88.4334H51.8189L54.0283 76.3201H56.5424C58.4724 76.3709 60.1738 76.0661 61.6467 75.4059C63.1196 74.6948 64.0338 73.2981 64.3894 71.2157C64.4402 70.911 64.4655 70.5047 64.4655 69.9968C64.4655 68.8286 64.1608 67.9652 63.5513 67.4065C62.9419 66.797 62.0784 66.4923 60.9611 66.4923C59.4374 66.4923 58.2438 67.0256 57.3804 68.0921C56.517 69.1079 55.9329 70.3777 55.6282 71.9014H41.0008Z" fill="url(#paint3_linear_980_1479)"/>
<path d="M84.7574 83.2528C86.2811 74.8726 89.2523 68.2191 93.671 63.2925C98.0896 58.3659 104.108 55.9026 111.727 55.9026C117.974 55.9026 122.545 57.6041 125.44 61.007C128.386 64.3591 129.859 69.0064 129.859 74.9487C129.859 77.7422 129.605 80.5102 129.097 83.2528C127.624 91.6331 124.653 98.312 120.183 103.289C115.714 108.216 109.695 110.679 102.127 110.679C95.8803 110.679 91.2838 109.003 88.338 105.651C85.443 102.299 83.9955 97.6263 83.9955 91.6331C83.9955 88.8905 84.2495 86.0971 84.7574 83.2528ZM114.317 83.2528C114.774 80.5102 115.003 78.4024 115.003 76.9295C115.003 74.7456 114.571 73.0441 113.707 71.8252C112.844 70.6062 111.371 69.9968 109.289 69.9968C106.292 69.9968 104.083 71.1649 102.661 73.5012C101.239 75.8376 100.172 79.0881 99.461 83.2528C99.0039 85.9955 98.7753 88.1286 98.7753 89.6523C98.7753 91.8363 99.207 93.5377 100.07 94.7567C100.934 95.9756 102.432 96.5851 104.565 96.5851C107.562 96.5851 109.72 95.4423 111.041 93.1568C112.412 90.8205 113.504 87.5192 114.317 83.2528Z" fill="url(#paint4_linear_980_1479)"/>
<path d="M129.965 90.2767C129.965 88.3261 130.524 86.799 131.643 85.6954C132.788 84.5918 134.25 84.04 136.03 84.04C137.811 84.04 139.26 84.5918 140.379 85.6954C141.524 86.799 142.096 88.3261 142.096 90.2767C142.096 92.2529 141.524 93.7928 140.379 94.8964C139.26 96 137.811 96.5518 136.03 96.5518C134.25 96.5518 132.788 96 131.643 94.8964C130.524 93.7928 129.965 92.2529 129.965 90.2767ZM154.456 84.502L139.464 111.45H134.276L149.229 84.502H154.456ZM135.992 87.2738C134.593 87.2738 133.894 88.2748 133.894 90.2767C133.894 92.3042 134.593 93.318 135.992 93.318C136.679 93.318 137.213 93.0742 137.594 92.5865C137.976 92.0732 138.167 91.3033 138.167 90.2767C138.167 88.2748 137.442 87.2738 135.992 87.2738ZM146.712 105.637C146.712 103.661 147.271 102.134 148.39 101.056C149.535 99.9524 150.997 99.4006 152.777 99.4006C154.557 99.4006 155.994 99.9524 157.088 101.056C158.207 102.134 158.766 103.661 158.766 105.637C158.766 107.613 158.207 109.153 157.088 110.257C155.994 111.361 154.557 111.912 152.777 111.912C150.971 111.912 149.509 111.361 148.39 110.257C147.271 109.153 146.712 107.613 146.712 105.637ZM152.739 102.634C151.289 102.634 150.565 103.635 150.565 105.637C150.565 107.665 151.289 108.679 152.739 108.679C154.163 108.679 154.875 107.665 154.875 105.637C154.875 103.635 154.163 102.634 152.739 102.634Z" fill="url(#paint5_linear_980_1479)"/>
</g>
<path d="M34.5546 118.85C35.6966 118.85 36.5503 119.101 37.1157 119.602C37.6922 120.104 37.9805 120.776 37.9805 121.619C37.9805 121.767 37.9583 122.001 37.914 122.32C37.7699 123.186 37.404 123.927 36.8164 124.542C36.2288 125.146 35.4471 125.539 34.4715 125.721L36.5835 130.798H35.1866L33.1743 125.807H31.0123L30.1641 130.798H29L31.0456 118.85H34.5546ZM36.7 122.32C36.7332 122.092 36.7498 121.887 36.7498 121.705C36.7498 121.101 36.5558 120.633 36.1678 120.303C35.7797 119.973 35.181 119.807 34.3717 119.807H32.0434L31.1786 124.85H33.5235C34.4437 124.85 35.1699 124.622 35.7021 124.166C36.2343 123.71 36.5669 123.095 36.7 122.32Z" fill="white"/>
<path d="M44.3153 121.329C45.0803 121.329 45.7345 121.482 46.2777 121.79C46.821 122.086 47.2312 122.497 47.5084 123.021C47.7967 123.545 47.9408 124.143 47.9408 124.815C47.9408 125.123 47.9186 125.396 47.8743 125.636C47.8077 125.978 47.7412 126.285 47.6747 126.559H40.141C40.1078 126.775 40.0912 126.98 40.0912 127.174C40.0912 128.051 40.3462 128.729 40.8562 129.208C41.3773 129.687 42.0369 129.926 42.8352 129.926C43.6002 129.926 44.271 129.738 44.8475 129.362C45.424 128.986 45.8453 128.479 46.1114 127.841H47.3587C46.9818 128.752 46.3775 129.499 45.546 130.08C44.7255 130.649 43.7665 130.934 42.6689 130.934C41.538 130.934 40.6289 130.604 39.9415 129.943C39.2652 129.271 38.927 128.359 38.927 127.208C38.927 126.866 38.9603 126.507 39.0268 126.131C39.1931 125.163 39.5257 124.314 40.0246 123.585C40.5346 122.855 41.1611 122.297 41.9039 121.91C42.6467 121.522 43.4505 121.329 44.3153 121.329ZM46.6769 125.67C46.7323 125.351 46.76 125.083 46.76 124.867C46.76 124.058 46.5106 123.437 46.0116 123.004C45.5127 122.571 44.8752 122.354 44.0991 122.354C43.5337 122.354 42.9904 122.479 42.4693 122.73C41.9482 122.981 41.4937 123.357 41.1056 123.858C40.7176 124.36 40.4515 124.963 40.3074 125.67H46.6769Z" fill="white"/>
<path d="M51.6007 119.705C51.39 119.705 51.2182 119.642 51.0851 119.517C50.9521 119.38 50.8856 119.203 50.8856 118.987C50.8856 118.691 50.9853 118.446 51.1849 118.252C51.3845 118.047 51.6229 117.944 51.9 117.944C52.1107 117.944 52.277 118.007 52.3989 118.132C52.532 118.258 52.5985 118.423 52.5985 118.628C52.5985 118.924 52.4987 119.181 52.2992 119.397C52.0996 119.602 51.8668 119.705 51.6007 119.705ZM51.8668 121.465L50.2702 130.798H49.1061L50.7026 121.465H51.8668Z" fill="white"/>
<path d="M65.3627 121.294C66.2719 121.294 66.9981 121.551 67.5413 122.064C68.0957 122.576 68.3729 123.328 68.3729 124.32C68.3729 124.627 68.3396 124.963 68.2731 125.328L67.3251 130.798H66.1776L67.1089 125.465C67.1644 125.123 67.1921 124.838 67.1921 124.61C67.1921 123.87 66.9981 123.306 66.61 122.918C66.222 122.531 65.6732 122.337 64.9636 122.337C64.1764 122.337 63.4835 122.593 62.8848 123.106C62.2972 123.619 61.8869 124.36 61.6541 125.328L60.6895 130.798H59.542L60.4733 125.465C60.5288 125.123 60.5565 124.838 60.5565 124.61C60.5565 123.87 60.3625 123.306 59.9744 122.918C59.5864 122.531 59.0431 122.337 58.3446 122.337C57.502 122.337 56.7758 122.622 56.166 123.192C55.5562 123.75 55.1516 124.559 54.952 125.619L54.0706 130.798H52.9064L54.503 121.465H55.6671L55.3844 123.089C55.7614 122.508 56.2436 122.064 56.8313 121.756C57.43 121.448 58.0619 121.294 58.7271 121.294C59.5143 121.294 60.1685 121.488 60.6895 121.876C61.2106 122.263 61.5377 122.833 61.6707 123.585C62.0366 122.844 62.5522 122.28 63.2174 121.893C63.8826 121.494 64.5977 121.294 65.3627 121.294Z" fill="white"/>
<path d="M72.322 123.533C72.7211 122.884 73.2699 122.354 73.9684 121.944C74.6669 121.534 75.4374 121.329 76.28 121.329C77.3777 121.329 78.2535 121.665 78.9077 122.337C79.5729 122.998 79.9055 123.898 79.9055 125.038C79.9055 125.379 79.8722 125.738 79.8057 126.114C79.6394 127.072 79.3068 127.915 78.8079 128.644C78.309 129.373 77.6936 129.937 76.9619 130.336C76.2412 130.735 75.4651 130.934 74.6336 130.934C73.7799 130.934 73.0759 130.735 72.5215 130.336C71.9672 129.926 71.5958 129.396 71.4073 128.747L71.058 130.798H69.9105L72.0891 118.149H73.2367L72.322 123.533ZM78.625 126.114C78.6804 125.773 78.7081 125.482 78.7081 125.243C78.7081 124.342 78.4476 123.642 77.9265 123.14C77.4165 122.628 76.7402 122.371 75.8975 122.371C75.2767 122.371 74.6835 122.525 74.1181 122.833C73.5526 123.14 73.0703 123.579 72.6712 124.149C72.2721 124.719 72.006 125.379 71.8729 126.131C71.8175 126.451 71.7898 126.735 71.7898 126.986C71.7898 127.875 72.0503 128.581 72.5714 129.105C73.0925 129.63 73.7688 129.892 74.6004 129.892C75.2434 129.892 75.8421 129.744 76.3965 129.447C76.9619 129.14 77.4386 128.701 77.8267 128.131C78.2258 127.55 78.4919 126.878 78.625 126.114Z" fill="white"/>
<path d="M90.5957 121.465L88.9992 130.798H87.835L88.1178 129.157C87.7408 129.738 87.253 130.182 86.6543 130.49C86.0556 130.798 85.4125 130.951 84.7251 130.951C83.7938 130.951 83.0454 130.695 82.48 130.182C81.9146 129.658 81.6318 128.9 81.6318 127.909C81.6318 127.544 81.6596 127.214 81.715 126.918L82.6463 121.465H83.7938L82.8791 126.781C82.8348 127.043 82.8126 127.317 82.8126 127.601C82.8126 128.353 83.0122 128.929 83.4113 129.328C83.8215 129.715 84.387 129.909 85.1076 129.909C85.9502 129.909 86.6764 129.647 87.2862 129.123C87.896 128.587 88.3062 127.806 88.5169 126.781L89.4316 121.465H90.5957Z" fill="white"/>
<path d="M94.1016 123.328C94.4675 122.679 94.9443 122.177 95.5319 121.824C96.1195 121.471 96.8013 121.294 97.5774 121.294L97.3612 122.542H97.0286C96.2304 122.542 95.543 122.753 94.9664 123.175C94.3899 123.596 93.9908 124.291 93.769 125.26L92.8211 130.798H91.657L93.2535 121.465H94.4176L94.1016 123.328Z" fill="white"/>
<path d="M100.709 130.934C99.7888 130.934 99.0404 130.718 98.4639 130.285C97.8874 129.84 97.5991 129.237 97.5991 128.473C97.5991 128.336 97.6047 128.234 97.6158 128.165H98.7466C98.7023 128.712 98.8575 129.151 99.2123 129.482C99.5671 129.812 100.088 129.977 100.776 129.977C101.474 129.977 102.034 129.829 102.455 129.533C102.877 129.225 103.087 128.821 103.087 128.319C103.087 128.023 102.999 127.772 102.821 127.567C102.644 127.362 102.422 127.197 102.156 127.072C101.901 126.935 101.541 126.781 101.075 126.61C100.498 126.394 100.033 126.194 99.6779 126.012C99.3343 125.818 99.0349 125.556 98.7799 125.226C98.536 124.884 98.414 124.456 98.414 123.944C98.414 123.431 98.5582 122.975 98.8464 122.576C99.1347 122.177 99.5283 121.87 100.027 121.653C100.537 121.437 101.114 121.329 101.757 121.329C102.655 121.329 103.387 121.556 103.952 122.012C104.529 122.468 104.817 123.072 104.817 123.824C104.817 123.984 104.811 124.103 104.8 124.183H103.703C103.714 124.137 103.719 124.063 103.719 123.961C103.719 123.459 103.525 123.055 103.137 122.747C102.76 122.44 102.272 122.286 101.674 122.286C101.075 122.286 100.576 122.434 100.177 122.73C99.7888 123.015 99.5948 123.402 99.5948 123.892C99.5948 124.223 99.689 124.502 99.8775 124.73C100.066 124.946 100.299 125.123 100.576 125.26C100.853 125.396 101.225 125.556 101.69 125.738C102.245 125.955 102.688 126.154 103.021 126.337C103.364 126.519 103.653 126.77 103.885 127.089C104.118 127.408 104.235 127.806 104.235 128.285C104.235 129.094 103.908 129.738 103.254 130.216C102.599 130.695 101.751 130.934 100.709 130.934Z" fill="white"/>
<path d="M111.715 121.329C112.48 121.329 113.134 121.482 113.677 121.79C114.22 122.086 114.63 122.497 114.908 123.021C115.196 123.545 115.34 124.143 115.34 124.815C115.34 125.123 115.318 125.396 115.274 125.636C115.207 125.978 115.14 126.285 115.074 126.559H107.54C107.507 126.775 107.49 126.98 107.49 127.174C107.49 128.051 107.745 128.729 108.255 129.208C108.777 129.687 109.436 129.926 110.234 129.926C110.999 129.926 111.67 129.738 112.247 129.362C112.823 128.986 113.245 128.479 113.511 127.841H114.758C114.381 128.752 113.777 129.499 112.945 130.08C112.125 130.649 111.166 130.934 110.068 130.934C108.937 130.934 108.028 130.604 107.341 129.943C106.664 129.271 106.326 128.359 106.326 127.208C106.326 126.866 106.36 126.507 106.426 126.131C106.592 125.163 106.925 124.314 107.424 123.585C107.934 122.855 108.56 122.297 109.303 121.91C110.046 121.522 110.85 121.329 111.715 121.329ZM114.076 125.67C114.132 125.351 114.159 125.083 114.159 124.867C114.159 124.058 113.91 123.437 113.411 123.004C112.912 122.571 112.274 122.354 111.498 122.354C110.933 122.354 110.39 122.479 109.869 122.73C109.347 122.981 108.893 123.357 108.505 123.858C108.117 124.36 107.851 124.963 107.707 125.67H114.076Z" fill="white"/>
<path d="M128.962 121.294C129.871 121.294 130.597 121.551 131.14 122.064C131.695 122.576 131.972 123.328 131.972 124.32C131.972 124.627 131.939 124.963 131.872 125.328L130.924 130.798H129.777L130.708 125.465C130.763 125.123 130.791 124.838 130.791 124.61C130.791 123.87 130.597 123.306 130.209 122.918C129.821 122.531 129.272 122.337 128.563 122.337C127.775 122.337 127.082 122.593 126.484 123.106C125.896 123.619 125.486 124.36 125.253 125.328L124.288 130.798H123.141L124.072 125.465C124.128 125.123 124.155 124.838 124.155 124.61C124.155 123.87 123.961 123.306 123.573 122.918C123.185 122.531 122.642 122.337 121.944 122.337C121.101 122.337 120.375 122.622 119.765 123.192C119.155 123.75 118.75 124.559 118.551 125.619L117.669 130.798H116.505L118.102 121.465H119.266L118.983 123.089C119.36 122.508 119.843 122.064 120.43 121.756C121.029 121.448 121.661 121.294 122.326 121.294C123.113 121.294 123.767 121.488 124.288 121.876C124.81 122.263 125.137 122.833 125.27 123.585C125.636 122.844 126.151 122.28 126.816 121.893C127.482 121.494 128.197 121.294 128.962 121.294Z" fill="white"/>
<path d="M139.064 121.329C139.829 121.329 140.483 121.482 141.026 121.79C141.57 122.086 141.98 122.497 142.257 123.021C142.545 123.545 142.69 124.143 142.69 124.815C142.69 125.123 142.667 125.396 142.623 125.636C142.556 125.978 142.49 126.285 142.423 126.559H134.89C134.857 126.775 134.84 126.98 134.84 127.174C134.84 128.051 135.095 128.729 135.605 129.208C136.126 129.687 136.786 129.926 137.584 129.926C138.349 129.926 139.02 129.738 139.596 129.362C140.173 128.986 140.594 128.479 140.86 127.841H142.107C141.73 128.752 141.126 129.499 140.295 130.08C139.474 130.649 138.515 130.934 137.418 130.934C136.287 130.934 135.378 130.604 134.69 129.943C134.014 129.271 133.676 128.359 133.676 127.208C133.676 126.866 133.709 126.507 133.776 126.131C133.942 125.163 134.274 124.314 134.773 123.585C135.283 122.855 135.91 122.297 136.653 121.91C137.395 121.522 138.199 121.329 139.064 121.329ZM141.426 125.67C141.481 125.351 141.509 125.083 141.509 124.867C141.509 124.058 141.259 123.437 140.76 123.004C140.261 122.571 139.624 122.354 138.848 122.354C138.282 122.354 137.739 122.479 137.218 122.73C136.697 122.981 136.242 123.357 135.854 123.858C135.466 124.36 135.2 124.963 135.056 125.67H141.426Z" fill="white"/>
<path d="M149.759 121.294C150.69 121.294 151.433 121.556 151.987 122.081C152.553 122.593 152.835 123.345 152.835 124.337C152.835 124.701 152.808 125.032 152.752 125.328L151.804 130.798H150.657L151.571 125.465C151.616 125.203 151.638 124.924 151.638 124.627C151.638 123.875 151.438 123.306 151.039 122.918C150.64 122.531 150.08 122.337 149.36 122.337C148.484 122.337 147.735 122.622 147.114 123.192C146.494 123.761 146.089 124.599 145.9 125.704V125.653L145.019 130.798H143.855L145.451 121.465H146.616L146.333 123.072C146.721 122.502 147.214 122.064 147.813 121.756C148.412 121.448 149.06 121.294 149.759 121.294Z" fill="white"/>
<path d="M156.308 128.268C156.275 128.473 156.258 128.65 156.258 128.798C156.258 129.162 156.352 129.419 156.541 129.567C156.74 129.704 157.062 129.772 157.505 129.772H158.57L158.387 130.798H157.14C156.452 130.798 155.937 130.661 155.593 130.387C155.249 130.114 155.077 129.664 155.077 129.037C155.077 128.786 155.1 128.53 155.144 128.268L156.142 122.474H154.878L155.061 121.465H156.325L156.724 119.124H157.888L157.489 121.465H160L159.817 122.474H157.306L156.308 128.268Z" fill="white"/>
<defs>
<linearGradient id="paint0_linear_980_1479" x1="94.4292" y1="181.673" x2="94.4292" y2="7.13596" gradientUnits="userSpaceOnUse">
<stop stop-color="#B8008C" stop-opacity="0"/>
<stop offset="0.4722" stop-color="#DB008C" stop-opacity="0.4722"/>
<stop offset="1" stop-color="#FF008C"/>
</linearGradient>
<linearGradient id="paint1_linear_980_1479" x1="94.426" y1="156.551" x2="94.426" y2="32.2572" gradientUnits="userSpaceOnUse">
<stop stop-color="#B8008C" stop-opacity="0"/>
<stop offset="0.4722" stop-color="#DB008C" stop-opacity="0.4722"/>
<stop offset="1" stop-color="#FF008C"/>
</linearGradient>
<linearGradient id="paint2_linear_980_1479" x1="94.4279" y1="188.166" x2="94.4279" y2="0.64208" gradientUnits="userSpaceOnUse">
<stop stop-color="#B8008C" stop-opacity="0"/>
<stop offset="0.4722" stop-color="#DB008C" stop-opacity="0.4722"/>
<stop offset="1" stop-color="#FF008C"/>
</linearGradient>
<linearGradient id="paint3_linear_980_1479" x1="83.1441" y1="54.0742" x2="83.1441" y2="111.441" gradientUnits="userSpaceOnUse">
<stop stop-color="white" stop-opacity="0"/>
<stop offset="1" stop-color="white"/>
</linearGradient>
<linearGradient id="paint4_linear_980_1479" x1="83.1441" y1="54.0742" x2="83.1441" y2="111.441" gradientUnits="userSpaceOnUse">
<stop stop-color="white" stop-opacity="0"/>
<stop offset="1" stop-color="white"/>
</linearGradient>
<linearGradient id="paint5_linear_980_1479" x1="144.366" y1="84.04" x2="144.366" y2="111.912" gradientUnits="userSpaceOnUse">
<stop stop-color="white" stop-opacity="0"/>
<stop offset="1" stop-color="white"/>
</linearGradient>
</defs>
</svg>
