<svg width="189" height="228" viewBox="0 0 189 228" fill="none" xmlns="http://www.w3.org/2000/svg">
<path d="M94.4013 220.638C142.581 220.638 181.639 181.58 181.639 133.4C181.639 85.2205 142.581 46.1631 94.4013 46.1631C46.2215 46.1631 7.16406 85.2205 7.16406 133.4C7.16406 181.58 46.2215 220.638 94.4013 220.638Z" fill="url(#paint0_linear_0_1)"/>
<path d="M94.398 195.575C128.737 195.575 156.573 167.738 156.573 133.4C156.573 99.0615 128.737 71.2246 94.398 71.2246C60.0595 71.2246 32.2227 99.0615 32.2227 133.4C32.2227 167.738 60.0595 195.575 94.398 195.575Z" fill="url(#paint1_linear_0_1)"/>
<path d="M94.4 226.8C145.983 226.8 187.8 184.983 187.8 133.4C187.8 81.8166 145.983 40 94.4 40C42.8166 40 1 81.8166 1 133.4C1 184.983 42.8166 226.8 94.4 226.8Z" stroke="url(#paint2_linear_0_1)" stroke-width="1.0529" stroke-miterlimit="10"/>
<path d="M41.0008 107.877C42.2197 102.138 44.7846 97.7444 48.6954 94.6971C52.6062 91.5989 57.5328 90.0498 63.4751 90.0498C68.6557 90.0498 72.6173 91.218 75.3599 93.5543C78.1026 95.8398 79.4739 98.8364 79.4739 102.544C79.4739 103.407 79.3977 104.347 79.2453 105.363C78.6358 108.817 77.3153 111.585 75.2837 113.667C73.2521 115.699 71.0936 117.07 68.8081 117.781V118.086C73.5823 119.965 75.9694 123.342 75.9694 128.218C75.9694 128.777 75.8678 129.767 75.6647 131.189C75.106 134.389 73.8616 137.208 71.9316 139.646C70.0524 142.084 67.5891 143.988 64.5417 145.36C61.4944 146.731 58.0661 147.417 54.2568 147.417C48.67 147.417 44.3021 146.223 41.1531 143.836C38.0042 141.449 36.4297 137.767 36.4297 132.789C36.4297 131.316 36.5313 129.945 36.7344 128.675H51.2856C51.1333 129.336 51.0571 129.996 51.0571 130.656C51.0571 133.602 52.6316 135.075 55.7805 135.075C57.4058 135.075 58.7771 134.465 59.8945 133.246C61.0119 132.027 61.5705 130.504 61.5705 128.675C61.5705 127.202 60.9865 126.136 59.8183 125.476C58.7009 124.764 56.8979 124.409 54.4092 124.409H51.8189L54.0283 112.296H56.5424C58.4724 112.346 60.1738 112.042 61.6467 111.381C63.1196 110.67 64.0338 109.274 64.3894 107.191C64.4402 106.887 64.4655 106.48 64.4655 105.972C64.4655 104.804 64.1608 103.941 63.5513 103.382C62.9419 102.773 62.0784 102.468 60.9611 102.468C59.4374 102.468 58.2438 103.001 57.3804 104.068C56.517 105.084 55.9329 106.353 55.6282 107.877H41.0008Z" fill="white"/>
<path d="M84.7574 119.228C86.2811 110.848 89.2523 104.195 93.671 99.2681C98.0896 94.3415 104.108 91.8782 111.727 91.8782C117.974 91.8782 122.545 93.5797 125.44 96.9826C128.386 100.335 129.859 104.982 129.859 110.924C129.859 113.718 129.605 116.486 129.097 119.228C127.624 127.609 124.653 134.288 120.183 139.265C115.714 144.192 109.695 146.655 102.127 146.655C95.8803 146.655 91.2838 144.979 88.338 141.627C85.443 138.275 83.9955 133.602 83.9955 127.609C83.9955 124.866 84.2495 122.073 84.7574 119.228ZM114.317 119.228C114.774 116.486 115.003 114.378 115.003 112.905C115.003 110.721 114.571 109.02 113.707 107.801C112.844 106.582 111.371 105.972 109.289 105.972C106.292 105.972 104.083 107.141 102.661 109.477C101.239 111.813 100.172 115.064 99.461 119.228C99.0039 121.971 98.7753 124.104 98.7753 125.628C98.7753 127.812 99.207 129.513 100.07 130.732C100.934 131.951 102.432 132.561 104.565 132.561C107.562 132.561 109.72 131.418 111.041 129.132C112.412 126.796 113.504 123.495 114.317 119.228Z" fill="white"/>
<path d="M129.965 126.252C129.965 124.302 130.524 122.775 131.643 121.671C132.788 120.567 134.25 120.016 136.03 120.016C137.811 120.016 139.26 120.567 140.379 121.671C141.524 122.775 142.096 124.302 142.096 126.252C142.096 128.228 141.524 129.768 140.379 130.872C139.26 131.976 137.811 132.527 136.03 132.527C134.25 132.527 132.788 131.976 131.643 130.872C130.524 129.768 129.965 128.228 129.965 126.252ZM154.456 120.478L139.464 147.426H134.276L149.229 120.478H154.456ZM135.992 123.249C134.593 123.249 133.894 124.25 133.894 126.252C133.894 128.28 134.593 129.294 135.992 129.294C136.679 129.294 137.213 129.05 137.594 128.562C137.976 128.049 138.167 127.279 138.167 126.252C138.167 124.25 137.442 123.249 135.992 123.249ZM146.712 141.613C146.712 139.637 147.271 138.11 148.39 137.032C149.535 135.928 150.997 135.376 152.777 135.376C154.557 135.376 155.994 135.928 157.088 137.032C158.207 138.11 158.766 139.637 158.766 141.613C158.766 143.589 158.207 145.129 157.088 146.233C155.994 147.336 154.557 147.888 152.777 147.888C150.971 147.888 149.509 147.336 148.39 146.233C147.271 145.129 146.712 143.589 146.712 141.613ZM152.739 138.61C151.289 138.61 150.565 139.611 150.565 141.613C150.565 143.64 151.289 144.654 152.739 144.654C154.163 144.654 154.875 143.64 154.875 141.613C154.875 139.611 154.163 138.61 152.739 138.61Z" fill="white"/>
<g opacity="0.3">
<path d="M41.0008 110.901C42.2197 105.162 44.7846 100.769 48.6954 97.7215C52.6062 94.6233 57.5328 93.0742 63.4751 93.0742C68.6557 93.0742 72.6173 94.2424 75.3599 96.5787C78.1026 98.8642 79.4739 101.861 79.4739 105.568C79.4739 106.432 79.3977 107.371 79.2453 108.387C78.6358 111.841 77.3153 114.609 75.2837 116.691C73.2521 118.723 71.0936 120.094 68.8081 120.805V121.11C73.5823 122.989 75.9694 126.367 75.9694 131.243C75.9694 131.801 75.8678 132.792 75.6647 134.214C75.106 137.414 73.8616 140.232 71.9316 142.67C70.0524 145.108 67.5891 147.013 64.5417 148.384C61.4944 149.755 58.0661 150.441 54.2568 150.441C48.67 150.441 44.3021 149.248 41.1531 146.86C38.0042 144.473 36.4297 140.791 36.4297 135.814C36.4297 134.341 36.5313 132.969 36.7344 131.7H51.2856C51.1333 132.36 51.0571 133.02 51.0571 133.681C51.0571 136.626 52.6316 138.099 55.7805 138.099C57.4058 138.099 58.7771 137.49 59.8945 136.271C61.0119 135.052 61.5705 133.528 61.5705 131.7C61.5705 130.227 60.9865 129.16 59.8183 128.5C58.7009 127.789 56.8979 127.433 54.4092 127.433H51.8189L54.0283 115.32H56.5424C58.4724 115.371 60.1738 115.066 61.6467 114.406C63.1196 113.695 64.0338 112.298 64.3894 110.216C64.4402 109.911 64.4655 109.505 64.4655 108.997C64.4655 107.829 64.1608 106.965 63.5513 106.406C62.9419 105.797 62.0784 105.492 60.9611 105.492C59.4374 105.492 58.2438 106.026 57.3804 107.092C56.517 108.108 55.9329 109.378 55.6282 110.901H41.0008Z" fill="url(#paint3_linear_0_1)"/>
<path d="M84.7574 122.253C86.2811 113.873 89.2523 107.219 93.671 102.293C98.0896 97.3659 104.108 94.9026 111.727 94.9026C117.974 94.9026 122.545 96.6041 125.44 100.007C128.386 103.359 129.859 108.006 129.859 113.949C129.859 116.742 129.605 119.51 129.097 122.253C127.624 130.633 124.653 137.312 120.183 142.289C115.714 147.216 109.695 149.679 102.127 149.679C95.8803 149.679 91.2838 148.003 88.338 144.651C85.443 141.299 83.9955 136.626 83.9955 130.633C83.9955 127.89 84.2495 125.097 84.7574 122.253ZM114.317 122.253C114.774 119.51 115.003 117.402 115.003 115.93C115.003 113.746 114.571 112.044 113.707 110.825C112.844 109.606 111.371 108.997 109.289 108.997C106.292 108.997 104.083 110.165 102.661 112.501C101.239 114.838 100.172 118.088 99.461 122.253C99.0039 124.995 98.7753 127.129 98.7753 128.652C98.7753 130.836 99.207 132.538 100.07 133.757C100.934 134.976 102.432 135.585 104.565 135.585C107.562 135.585 109.72 134.442 111.041 132.157C112.412 129.82 113.504 126.519 114.317 122.253Z" fill="url(#paint4_linear_0_1)"/>
<path d="M129.965 129.277C129.965 127.326 130.524 125.799 131.643 124.695C132.788 123.592 134.25 123.04 136.03 123.04C137.811 123.04 139.26 123.592 140.379 124.695C141.524 125.799 142.096 127.326 142.096 129.277C142.096 131.253 141.524 132.793 140.379 133.896C139.26 135 137.811 135.552 136.03 135.552C134.25 135.552 132.788 135 131.643 133.896C130.524 132.793 129.965 131.253 129.965 129.277ZM154.456 123.502L139.464 150.45H134.276L149.229 123.502H154.456ZM135.992 126.274C134.593 126.274 133.894 127.275 133.894 129.277C133.894 131.304 134.593 132.318 135.992 132.318C136.679 132.318 137.213 132.074 137.594 131.587C137.976 131.073 138.167 130.303 138.167 129.277C138.167 127.275 137.442 126.274 135.992 126.274ZM146.712 144.637C146.712 142.661 147.271 141.134 148.39 140.056C149.535 138.952 150.997 138.401 152.777 138.401C154.557 138.401 155.994 138.952 157.088 140.056C158.207 141.134 158.766 142.661 158.766 144.637C158.766 146.613 158.207 148.153 157.088 149.257C155.994 150.361 154.557 150.912 152.777 150.912C150.971 150.912 149.509 150.361 148.39 149.257C147.271 148.153 146.712 146.613 146.712 144.637ZM152.739 141.634C151.289 141.634 150.565 142.635 150.565 144.637C150.565 146.665 151.289 147.679 152.739 147.679C154.163 147.679 154.875 146.665 154.875 144.637C154.875 142.635 154.163 141.634 152.739 141.634Z" fill="url(#paint5_linear_0_1)"/>
</g>
<path d="M34.5546 157.85C35.6966 157.85 36.5503 158.101 37.1157 158.602C37.6922 159.104 37.9805 159.776 37.9805 160.619C37.9805 160.767 37.9583 161.001 37.914 161.32C37.7699 162.186 37.404 162.927 36.8164 163.542C36.2288 164.146 35.4471 164.539 34.4715 164.721L36.5835 169.798H35.1866L33.1743 164.807H31.0123L30.1641 169.798H29L31.0456 157.85H34.5546ZM36.7 161.32C36.7332 161.092 36.7498 160.887 36.7498 160.705C36.7498 160.101 36.5558 159.633 36.1678 159.303C35.7797 158.973 35.181 158.807 34.3717 158.807H32.0434L31.1786 163.85H33.5235C34.4437 163.85 35.1699 163.622 35.7021 163.166C36.2343 162.71 36.5669 162.095 36.7 161.32Z" fill="white"/>
<path d="M44.3153 160.329C45.0803 160.329 45.7345 160.482 46.2777 160.79C46.821 161.086 47.2312 161.497 47.5084 162.021C47.7967 162.545 47.9408 163.143 47.9408 163.815C47.9408 164.123 47.9186 164.396 47.8743 164.636C47.8077 164.978 47.7412 165.285 47.6747 165.559H40.141C40.1078 165.775 40.0912 165.98 40.0912 166.174C40.0912 167.051 40.3462 167.729 40.8562 168.208C41.3773 168.687 42.0369 168.926 42.8352 168.926C43.6002 168.926 44.271 168.738 44.8475 168.362C45.424 167.986 45.8453 167.479 46.1114 166.841H47.3587C46.9818 167.752 46.3775 168.499 45.546 169.08C44.7255 169.649 43.7665 169.934 42.6689 169.934C41.538 169.934 40.6289 169.604 39.9415 168.943C39.2652 168.271 38.927 167.359 38.927 166.208C38.927 165.866 38.9603 165.507 39.0268 165.131C39.1931 164.163 39.5257 163.314 40.0246 162.585C40.5346 161.855 41.1611 161.297 41.9039 160.91C42.6467 160.522 43.4505 160.329 44.3153 160.329ZM46.6769 164.67C46.7323 164.351 46.76 164.083 46.76 163.867C46.76 163.058 46.5106 162.437 46.0116 162.004C45.5127 161.571 44.8752 161.354 44.0991 161.354C43.5337 161.354 42.9904 161.479 42.4693 161.73C41.9482 161.981 41.4937 162.357 41.1056 162.858C40.7176 163.36 40.4515 163.963 40.3074 164.67H46.6769Z" fill="white"/>
<path d="M51.6007 158.705C51.39 158.705 51.2182 158.642 51.0851 158.517C50.9521 158.38 50.8856 158.203 50.8856 157.987C50.8856 157.691 50.9853 157.446 51.1849 157.252C51.3845 157.047 51.6229 156.944 51.9 156.944C52.1107 156.944 52.277 157.007 52.3989 157.132C52.532 157.258 52.5985 157.423 52.5985 157.628C52.5985 157.924 52.4987 158.181 52.2992 158.397C52.0996 158.602 51.8668 158.705 51.6007 158.705ZM51.8668 160.465L50.2702 169.798H49.1061L50.7026 160.465H51.8668Z" fill="white"/>
<path d="M65.3627 160.294C66.2719 160.294 66.9981 160.551 67.5413 161.064C68.0957 161.576 68.3729 162.328 68.3729 163.32C68.3729 163.627 68.3396 163.963 68.2731 164.328L67.3251 169.798H66.1776L67.1089 164.465C67.1644 164.123 67.1921 163.838 67.1921 163.61C67.1921 162.87 66.9981 162.306 66.61 161.918C66.222 161.531 65.6732 161.337 64.9636 161.337C64.1764 161.337 63.4835 161.593 62.8848 162.106C62.2972 162.619 61.8869 163.36 61.6541 164.328L60.6895 169.798H59.542L60.4733 164.465C60.5288 164.123 60.5565 163.838 60.5565 163.61C60.5565 162.87 60.3625 162.306 59.9744 161.918C59.5864 161.531 59.0431 161.337 58.3446 161.337C57.502 161.337 56.7758 161.622 56.166 162.192C55.5562 162.75 55.1516 163.559 54.952 164.619L54.0706 169.798H52.9064L54.503 160.465H55.6671L55.3844 162.089C55.7614 161.508 56.2436 161.064 56.8313 160.756C57.43 160.448 58.0619 160.294 58.7271 160.294C59.5143 160.294 60.1685 160.488 60.6895 160.876C61.2106 161.263 61.5377 161.833 61.6707 162.585C62.0366 161.844 62.5522 161.28 63.2174 160.893C63.8826 160.494 64.5977 160.294 65.3627 160.294Z" fill="white"/>
<path d="M72.322 162.533C72.7211 161.884 73.2699 161.354 73.9684 160.944C74.6669 160.534 75.4374 160.329 76.28 160.329C77.3777 160.329 78.2535 160.665 78.9077 161.337C79.5729 161.998 79.9055 162.898 79.9055 164.038C79.9055 164.379 79.8722 164.738 79.8057 165.114C79.6394 166.072 79.3068 166.915 78.8079 167.644C78.309 168.373 77.6936 168.937 76.9619 169.336C76.2412 169.735 75.4651 169.934 74.6336 169.934C73.7799 169.934 73.0759 169.735 72.5215 169.336C71.9672 168.926 71.5958 168.396 71.4073 167.747L71.058 169.798H69.9105L72.0891 157.149H73.2367L72.322 162.533ZM78.625 165.114C78.6804 164.773 78.7081 164.482 78.7081 164.243C78.7081 163.342 78.4476 162.642 77.9265 162.14C77.4165 161.628 76.7402 161.371 75.8975 161.371C75.2767 161.371 74.6835 161.525 74.1181 161.833C73.5526 162.14 73.0703 162.579 72.6712 163.149C72.2721 163.719 72.006 164.379 71.8729 165.131C71.8175 165.451 71.7898 165.735 71.7898 165.986C71.7898 166.875 72.0503 167.581 72.5714 168.105C73.0925 168.63 73.7688 168.892 74.6004 168.892C75.2434 168.892 75.8421 168.744 76.3965 168.447C76.9619 168.14 77.4386 167.701 77.8267 167.131C78.2258 166.55 78.4919 165.878 78.625 165.114Z" fill="white"/>
<path d="M90.5957 160.465L88.9992 169.798H87.835L88.1178 168.157C87.7408 168.738 87.253 169.182 86.6543 169.49C86.0556 169.798 85.4125 169.951 84.7251 169.951C83.7938 169.951 83.0454 169.695 82.48 169.182C81.9146 168.658 81.6318 167.9 81.6318 166.909C81.6318 166.544 81.6596 166.214 81.715 165.918L82.6463 160.465H83.7938L82.8791 165.781C82.8348 166.043 82.8126 166.317 82.8126 166.601C82.8126 167.353 83.0122 167.929 83.4113 168.328C83.8215 168.715 84.387 168.909 85.1076 168.909C85.9502 168.909 86.6764 168.647 87.2862 168.123C87.896 167.587 88.3062 166.806 88.5169 165.781L89.4316 160.465H90.5957Z" fill="white"/>
<path d="M94.1016 162.328C94.4675 161.679 94.9443 161.177 95.5319 160.824C96.1195 160.471 96.8013 160.294 97.5774 160.294L97.3612 161.542H97.0286C96.2304 161.542 95.543 161.753 94.9664 162.175C94.3899 162.596 93.9908 163.291 93.769 164.26L92.8211 169.798H91.657L93.2535 160.465H94.4176L94.1016 162.328Z" fill="white"/>
<path d="M100.709 169.934C99.7888 169.934 99.0404 169.718 98.4639 169.285C97.8874 168.84 97.5991 168.237 97.5991 167.473C97.5991 167.336 97.6047 167.234 97.6158 167.165H98.7466C98.7023 167.712 98.8575 168.151 99.2123 168.482C99.5671 168.812 100.088 168.977 100.776 168.977C101.474 168.977 102.034 168.829 102.455 168.533C102.877 168.225 103.087 167.821 103.087 167.319C103.087 167.023 102.999 166.772 102.821 166.567C102.644 166.362 102.422 166.197 102.156 166.072C101.901 165.935 101.541 165.781 101.075 165.61C100.498 165.394 100.033 165.194 99.6779 165.012C99.3343 164.818 99.0349 164.556 98.7799 164.226C98.536 163.884 98.414 163.456 98.414 162.944C98.414 162.431 98.5582 161.975 98.8464 161.576C99.1347 161.177 99.5283 160.87 100.027 160.653C100.537 160.437 101.114 160.329 101.757 160.329C102.655 160.329 103.387 160.556 103.952 161.012C104.529 161.468 104.817 162.072 104.817 162.824C104.817 162.984 104.811 163.103 104.8 163.183H103.703C103.714 163.137 103.719 163.063 103.719 162.961C103.719 162.459 103.525 162.055 103.137 161.747C102.76 161.44 102.272 161.286 101.674 161.286C101.075 161.286 100.576 161.434 100.177 161.73C99.7888 162.015 99.5948 162.402 99.5948 162.892C99.5948 163.223 99.689 163.502 99.8775 163.73C100.066 163.946 100.299 164.123 100.576 164.26C100.853 164.396 101.225 164.556 101.69 164.738C102.245 164.955 102.688 165.154 103.021 165.337C103.364 165.519 103.653 165.77 103.885 166.089C104.118 166.408 104.235 166.806 104.235 167.285C104.235 168.094 103.908 168.738 103.254 169.216C102.599 169.695 101.751 169.934 100.709 169.934Z" fill="white"/>
<path d="M111.715 160.329C112.48 160.329 113.134 160.482 113.677 160.79C114.22 161.086 114.63 161.497 114.908 162.021C115.196 162.545 115.34 163.143 115.34 163.815C115.34 164.123 115.318 164.396 115.274 164.636C115.207 164.978 115.14 165.285 115.074 165.559H107.54C107.507 165.775 107.49 165.98 107.49 166.174C107.49 167.051 107.745 167.729 108.255 168.208C108.777 168.687 109.436 168.926 110.234 168.926C110.999 168.926 111.67 168.738 112.247 168.362C112.823 167.986 113.245 167.479 113.511 166.841H114.758C114.381 167.752 113.777 168.499 112.945 169.08C112.125 169.649 111.166 169.934 110.068 169.934C108.937 169.934 108.028 169.604 107.341 168.943C106.664 168.271 106.326 167.359 106.326 166.208C106.326 165.866 106.36 165.507 106.426 165.131C106.592 164.163 106.925 163.314 107.424 162.585C107.934 161.855 108.56 161.297 109.303 160.91C110.046 160.522 110.85 160.329 111.715 160.329ZM114.076 164.67C114.132 164.351 114.159 164.083 114.159 163.867C114.159 163.058 113.91 162.437 113.411 162.004C112.912 161.571 112.274 161.354 111.498 161.354C110.933 161.354 110.39 161.479 109.869 161.73C109.347 161.981 108.893 162.357 108.505 162.858C108.117 163.36 107.851 163.963 107.707 164.67H114.076Z" fill="white"/>
<path d="M128.962 160.294C129.871 160.294 130.597 160.551 131.14 161.064C131.695 161.576 131.972 162.328 131.972 163.32C131.972 163.627 131.939 163.963 131.872 164.328L130.924 169.798H129.777L130.708 164.465C130.763 164.123 130.791 163.838 130.791 163.61C130.791 162.87 130.597 162.306 130.209 161.918C129.821 161.531 129.272 161.337 128.563 161.337C127.775 161.337 127.082 161.593 126.484 162.106C125.896 162.619 125.486 163.36 125.253 164.328L124.288 169.798H123.141L124.072 164.465C124.128 164.123 124.155 163.838 124.155 163.61C124.155 162.87 123.961 162.306 123.573 161.918C123.185 161.531 122.642 161.337 121.944 161.337C121.101 161.337 120.375 161.622 119.765 162.192C119.155 162.75 118.75 163.559 118.551 164.619L117.669 169.798H116.505L118.102 160.465H119.266L118.983 162.089C119.36 161.508 119.843 161.064 120.43 160.756C121.029 160.448 121.661 160.294 122.326 160.294C123.113 160.294 123.767 160.488 124.288 160.876C124.81 161.263 125.137 161.833 125.27 162.585C125.636 161.844 126.151 161.28 126.816 160.893C127.482 160.494 128.197 160.294 128.962 160.294Z" fill="white"/>
<path d="M139.064 160.329C139.829 160.329 140.483 160.482 141.026 160.79C141.57 161.086 141.98 161.497 142.257 162.021C142.545 162.545 142.69 163.143 142.69 163.815C142.69 164.123 142.667 164.396 142.623 164.636C142.556 164.978 142.49 165.285 142.423 165.559H134.89C134.857 165.775 134.84 165.98 134.84 166.174C134.84 167.051 135.095 167.729 135.605 168.208C136.126 168.687 136.786 168.926 137.584 168.926C138.349 168.926 139.02 168.738 139.596 168.362C140.173 167.986 140.594 167.479 140.86 166.841H142.107C141.73 167.752 141.126 168.499 140.295 169.08C139.474 169.649 138.515 169.934 137.418 169.934C136.287 169.934 135.378 169.604 134.69 168.943C134.014 168.271 133.676 167.359 133.676 166.208C133.676 165.866 133.709 165.507 133.776 165.131C133.942 164.163 134.274 163.314 134.773 162.585C135.283 161.855 135.91 161.297 136.653 160.91C137.395 160.522 138.199 160.329 139.064 160.329ZM141.426 164.67C141.481 164.351 141.509 164.083 141.509 163.867C141.509 163.058 141.259 162.437 140.76 162.004C140.261 161.571 139.624 161.354 138.848 161.354C138.282 161.354 137.739 161.479 137.218 161.73C136.697 161.981 136.242 162.357 135.854 162.858C135.466 163.36 135.2 163.963 135.056 164.67H141.426Z" fill="white"/>
<path d="M149.759 160.294C150.69 160.294 151.433 160.556 151.987 161.081C152.553 161.593 152.835 162.345 152.835 163.337C152.835 163.701 152.808 164.032 152.752 164.328L151.804 169.798H150.657L151.571 164.465C151.616 164.203 151.638 163.924 151.638 163.627C151.638 162.875 151.438 162.306 151.039 161.918C150.64 161.531 150.08 161.337 149.36 161.337C148.484 161.337 147.735 161.622 147.114 162.192C146.494 162.761 146.089 163.599 145.9 164.704V164.653L145.019 169.798H143.855L145.451 160.465H146.616L146.333 162.072C146.721 161.502 147.214 161.064 147.813 160.756C148.412 160.448 149.06 160.294 149.759 160.294Z" fill="white"/>
<path d="M156.308 167.268C156.275 167.473 156.258 167.65 156.258 167.798C156.258 168.162 156.352 168.419 156.541 168.567C156.74 168.704 157.062 168.772 157.505 168.772H158.57L158.387 169.798H157.14C156.452 169.798 155.937 169.661 155.593 169.387C155.249 169.114 155.077 168.664 155.077 168.037C155.077 167.786 155.1 167.53 155.144 167.268L156.142 161.474H154.878L155.061 160.465H156.325L156.724 158.124H157.888L157.489 160.465H160L159.817 161.474H157.306L156.308 167.268Z" fill="white"/>
<path d="M134.501 4.13357C109.999 4.13357 90.1355 23.9968 90.1355 48.4994C90.1355 73.002 109.999 92.8652 134.501 92.8652C159.004 92.8652 178.867 73.002 178.867 48.4994C178.867 23.9968 159.004 4.13357 134.501 4.13357Z" fill="url(#paint6_linear_0_1)"/>
<path d="M134.503 80.1203C151.966 80.1203 166.123 65.9635 166.123 48.5001C166.123 31.0367 151.966 16.8799 134.503 16.8799C117.04 16.8799 102.883 31.0367 102.883 48.5001C102.883 65.9635 117.04 80.1203 134.503 80.1203Z" fill="url(#paint7_linear_0_1)"/>
<path d="M134.5 96C160.734 96 182 74.7335 182 48.5C182 22.2665 160.734 1 134.5 1C108.266 1 87 22.2665 87 48.5C87 74.7335 108.266 96 134.5 96Z" stroke="url(#paint8_linear_0_1)" stroke-width="1.0529" stroke-miterlimit="10"/>
<path d="M102.258 30.385L103.493 23.2957H115.715L110.2 54.9076H102.346L106.626 30.385H102.258Z" fill="white"/>
<path d="M117.876 47.5508C121.083 45.2323 123.642 43.3151 125.554 41.7991C127.466 40.2832 129.113 38.7375 130.496 37.1621C131.908 35.557 132.731 34.0262 132.967 32.5697C133.055 32.1536 133.099 31.7671 133.099 31.4104C133.099 30.5484 132.864 29.8945 132.393 29.4486C131.952 29.0028 131.275 28.7798 130.363 28.7798C128.098 28.7798 126.657 30.3998 126.039 33.6398H118.715C119.48 29.8945 121.068 27.0855 123.48 25.2129C125.922 23.3106 128.716 22.3594 131.864 22.3594C134.923 22.3594 137.188 23.0579 138.658 24.4549C140.159 25.852 140.909 27.6949 140.909 29.9837C140.909 30.6971 140.85 31.351 140.732 31.9455C140.203 34.9774 138.644 37.8012 136.055 40.4169C133.496 43.0327 130.319 45.6484 126.525 48.2642H138.438L137.335 54.4617H115.185L116.156 48.7992L117.876 47.5508Z" fill="white"/>
<path d="M103.057 66.4805H105.566L105.466 67.0326H102.258L103.487 60.0164H104.187L103.057 66.4805Z" fill="white"/>
<path d="M107.964 60.5182C107.838 60.5182 107.734 60.4814 107.654 60.4078C107.574 60.3275 107.534 60.2238 107.534 60.0967C107.534 59.9227 107.594 59.7788 107.714 59.665C107.834 59.5446 107.977 59.4844 108.144 59.4844C108.271 59.4844 108.371 59.5212 108.444 59.5948C108.524 59.6684 108.564 59.7654 108.564 59.8859C108.564 60.0599 108.504 60.2104 108.384 60.3376C108.264 60.458 108.124 60.5182 107.964 60.5182ZM108.124 61.5521L107.165 67.0326H106.465L107.424 61.5521H108.124Z" fill="white"/>
<path d="M116.235 61.4517C116.782 61.4517 117.218 61.6023 117.545 61.9034C117.878 62.2045 118.045 62.6462 118.045 63.2284C118.045 63.409 118.025 63.6064 117.985 63.8206L117.415 67.0326H116.725L117.285 63.9009C117.318 63.7001 117.335 63.5328 117.335 63.399C117.335 62.964 117.218 62.6328 116.985 62.4053C116.752 62.1778 116.422 62.064 115.996 62.064C115.522 62.064 115.106 62.2146 114.746 62.5157C114.393 62.8168 114.146 63.2518 114.007 63.8206L113.427 67.0326H112.737L113.297 63.9009C113.33 63.7001 113.347 63.5328 113.347 63.399C113.347 62.964 113.23 62.6328 112.997 62.4053C112.764 62.1778 112.437 62.064 112.017 62.064C111.511 62.064 111.075 62.2313 110.708 62.5659C110.342 62.8938 110.098 63.3689 109.978 63.9912L109.449 67.0326H108.749L109.709 61.5521H110.408L110.238 62.5057C110.465 62.1644 110.755 61.9034 111.108 61.7227C111.468 61.5421 111.848 61.4517 112.247 61.4517C112.72 61.4517 113.114 61.5655 113.427 61.793C113.74 62.0205 113.937 62.3551 114.017 62.7967C114.236 62.3618 114.546 62.0305 114.946 61.803C115.346 61.5688 115.776 61.4517 116.235 61.4517Z" fill="white"/>
<path d="M120.468 60.5182C120.342 60.5182 120.238 60.4814 120.158 60.4078C120.078 60.3275 120.038 60.2238 120.038 60.0967C120.038 59.9227 120.098 59.7788 120.218 59.665C120.338 59.5446 120.481 59.4844 120.648 59.4844C120.775 59.4844 120.875 59.5212 120.948 59.5948C121.028 59.6684 121.068 59.7654 121.068 59.8859C121.068 60.0599 121.008 60.2104 120.888 60.3376C120.768 60.458 120.628 60.5182 120.468 60.5182ZM120.628 61.5521L119.669 67.0326H118.969L119.928 61.5521H120.628Z" fill="white"/>
<path d="M122.412 65.547C122.392 65.6675 122.382 65.7712 122.382 65.8582C122.382 66.0723 122.439 66.2229 122.552 66.3099C122.672 66.3902 122.866 66.4303 123.132 66.4303H123.772L123.662 67.0326H122.912C122.499 67.0326 122.189 66.9523 121.983 66.7917C121.776 66.6311 121.673 66.3667 121.673 65.9987C121.673 65.8515 121.686 65.7009 121.713 65.547L122.312 62.1443H121.553L121.663 61.5521H122.422L122.662 60.177H123.362L123.122 61.5521H124.631L124.521 62.1443H123.012L122.412 65.547Z" fill="white"/>
<path d="M128.154 61.4718C128.614 61.4718 129.007 61.5621 129.334 61.7428C129.66 61.9168 129.907 62.1577 130.073 62.4655C130.247 62.7733 130.333 63.1246 130.333 63.5194C130.333 63.7001 130.32 63.8607 130.293 64.0012C130.253 64.202 130.213 64.3827 130.173 64.5433H125.645C125.625 64.6704 125.615 64.7909 125.615 64.9046C125.615 65.4199 125.769 65.818 126.075 66.0991C126.388 66.3801 126.785 66.5206 127.265 66.5206C127.724 66.5206 128.128 66.4102 128.474 66.1894C128.821 65.9686 129.074 65.6708 129.234 65.2961H129.983C129.757 65.8314 129.394 66.2697 128.894 66.611C128.401 66.9456 127.824 67.1129 127.165 67.1129C126.485 67.1129 125.939 66.9188 125.525 66.5307C125.119 66.1359 124.916 65.6005 124.916 64.9247C124.916 64.7239 124.936 64.5131 124.976 64.2923C125.076 63.7235 125.276 63.225 125.575 62.7967C125.882 62.3685 126.258 62.0406 126.705 61.8131C127.151 61.5856 127.634 61.4718 128.154 61.4718ZM129.574 64.0213C129.607 63.8339 129.624 63.6767 129.624 63.5496C129.624 63.0744 129.474 62.7097 129.174 62.4555C128.874 62.2012 128.491 62.074 128.024 62.074C127.684 62.074 127.358 62.1477 127.045 62.2949C126.732 62.4421 126.458 62.6629 126.225 62.9573C125.992 63.2518 125.832 63.6064 125.745 64.0213H129.574Z" fill="white"/>
<path d="M131.194 64.2823C131.293 63.7202 131.493 63.2284 131.793 62.8068C132.093 62.3785 132.463 62.0506 132.903 61.8231C133.343 61.5889 133.812 61.4718 134.312 61.4718C134.792 61.4718 135.202 61.5889 135.541 61.8231C135.888 62.0573 136.121 62.3618 136.241 62.7365L136.791 59.6048H137.491L136.181 67.0326H135.482L135.701 65.808C135.462 66.1894 135.132 66.5039 134.712 66.7515C134.292 66.9924 133.826 67.1129 133.313 67.1129C132.653 67.1129 132.123 66.9155 131.723 66.5206C131.33 66.1191 131.134 65.5805 131.134 64.9046C131.134 64.7106 131.154 64.5031 131.194 64.2823ZM135.961 64.2923C135.995 64.105 136.011 63.9377 136.011 63.7905C136.011 63.2685 135.855 62.8536 135.541 62.5458C135.228 62.238 134.822 62.0841 134.322 62.0841C133.936 62.0841 133.572 62.1711 133.233 62.3451C132.899 62.519 132.616 62.7733 132.383 63.1079C132.15 63.4358 131.993 63.8273 131.913 64.2823C131.88 64.483 131.863 64.6537 131.863 64.7942C131.863 65.3228 132.016 65.7411 132.323 66.0489C132.636 66.35 133.043 66.5006 133.542 66.5006C133.916 66.5006 134.272 66.4102 134.612 66.2296C134.958 66.0489 135.248 65.7913 135.482 65.4567C135.721 65.1221 135.881 64.734 135.961 64.2923Z" fill="white"/>
<path d="M142.556 60.5684L142.096 63.2183H144.745L144.655 63.7804H141.996L141.526 66.4705H144.475L144.375 67.0326H140.726L141.956 60.0063H145.614L145.504 60.5684H142.556Z" fill="white"/>
<path d="M145.913 64.2823C146.013 63.7202 146.213 63.2284 146.513 62.8068C146.813 62.3785 147.183 62.0506 147.622 61.8231C148.062 61.5889 148.532 61.4718 149.032 61.4718C149.512 61.4718 149.921 61.5889 150.261 61.8231C150.608 62.0573 150.841 62.3618 150.961 62.7365L151.511 59.6048H152.21L150.901 67.0326H150.201L150.421 65.808C150.181 66.1894 149.851 66.5039 149.432 66.7515C149.012 66.9924 148.545 67.1129 148.032 67.1129C147.373 67.1129 146.843 66.9155 146.443 66.5206C146.05 66.1191 145.853 65.5805 145.853 64.9046C145.853 64.7106 145.873 64.5031 145.913 64.2823ZM150.681 64.2923C150.714 64.105 150.731 63.9377 150.731 63.7905C150.731 63.2685 150.574 62.8536 150.261 62.5458C149.948 62.238 149.542 62.0841 149.042 62.0841C148.655 62.0841 148.292 62.1711 147.952 62.3451C147.619 62.519 147.336 62.7733 147.103 63.1079C146.869 63.4358 146.713 63.8273 146.633 64.2823C146.6 64.483 146.583 64.6537 146.583 64.7942C146.583 65.3228 146.736 65.7411 147.043 66.0489C147.356 66.35 147.762 66.5006 148.262 66.5006C148.635 66.5006 148.992 66.4102 149.332 66.2296C149.678 66.0489 149.968 65.7913 150.201 65.4567C150.441 65.1221 150.601 64.734 150.681 64.2923Z" fill="white"/>
<path d="M153.998 60.5182C153.871 60.5182 153.768 60.4814 153.688 60.4078C153.608 60.3275 153.568 60.2238 153.568 60.0967C153.568 59.9227 153.628 59.7788 153.748 59.665C153.868 59.5446 154.011 59.4844 154.177 59.4844C154.304 59.4844 154.404 59.5212 154.477 59.5948C154.557 59.6684 154.597 59.7654 154.597 59.8859C154.597 60.0599 154.537 60.2104 154.417 60.3376C154.297 60.458 154.157 60.5182 153.998 60.5182ZM154.157 61.5521L153.198 67.0326H152.498L153.458 61.5521H154.157Z" fill="white"/>
<path d="M155.942 65.547C155.922 65.6675 155.912 65.7712 155.912 65.8582C155.912 66.0723 155.968 66.2229 156.082 66.3099C156.202 66.3902 156.395 66.4303 156.661 66.4303H157.301L157.191 67.0326H156.442C156.028 67.0326 155.719 66.9523 155.512 66.7917C155.305 66.6311 155.202 66.3667 155.202 65.9987C155.202 65.8515 155.215 65.7009 155.242 65.547L155.842 62.1443H155.082L155.192 61.5521H155.952L156.192 60.177H156.891L156.652 61.5521H158.161L158.051 62.1443H156.542L155.942 65.547Z" fill="white"/>
<path d="M159.844 60.5182C159.718 60.5182 159.615 60.4814 159.535 60.4078C159.455 60.3275 159.415 60.2238 159.415 60.0967C159.415 59.9227 159.475 59.7788 159.595 59.665C159.715 59.5446 159.858 59.4844 160.024 59.4844C160.151 59.4844 160.251 59.5212 160.324 59.5948C160.404 59.6684 160.444 59.7654 160.444 59.8859C160.444 60.0599 160.384 60.2104 160.264 60.3376C160.144 60.458 160.004 60.5182 159.844 60.5182ZM160.004 61.5521L159.045 67.0326H158.345L159.305 61.5521H160.004Z" fill="white"/>
<path d="M163.028 67.1129C162.575 67.1129 162.175 67.0225 161.829 66.8418C161.482 66.6545 161.212 66.3935 161.019 66.0589C160.833 65.7176 160.739 65.3195 160.739 64.8645C160.739 64.2488 160.879 63.6834 161.159 63.1681C161.439 62.6462 161.829 62.2346 162.328 61.9335C162.828 61.6257 163.385 61.4718 163.998 61.4718C164.451 61.4718 164.851 61.5655 165.197 61.7528C165.544 61.9335 165.814 62.1945 166.007 62.5358C166.2 62.8703 166.297 63.2652 166.297 63.7202C166.297 64.3425 166.153 64.9113 165.867 65.4266C165.58 65.9418 165.187 66.3534 164.687 66.6612C164.194 66.9623 163.641 67.1129 163.028 67.1129ZM163.108 66.5206C163.581 66.5206 164.004 66.3935 164.378 66.1392C164.757 65.8849 165.051 65.547 165.257 65.1254C165.47 64.7039 165.577 64.2488 165.577 63.7603C165.577 63.2116 165.417 62.7934 165.097 62.5057C164.784 62.2179 164.384 62.074 163.898 62.074C163.425 62.074 163.002 62.2012 162.628 62.4555C162.262 62.7097 161.975 63.0477 161.769 63.4693C161.562 63.8908 161.459 64.3459 161.459 64.8343C161.459 65.3764 161.615 65.7946 161.929 66.089C162.242 66.3768 162.635 66.5206 163.108 66.5206Z" fill="white"/>
<path d="M170.591 61.4517C171.15 61.4517 171.597 61.6056 171.93 61.9134C172.27 62.2146 172.44 62.6562 172.44 63.2384C172.44 63.4525 172.423 63.6466 172.39 63.8206L171.82 67.0326H171.13L171.68 63.9009C171.707 63.747 171.72 63.583 171.72 63.409C171.72 62.9674 171.6 62.6328 171.36 62.4053C171.12 62.1778 170.784 62.064 170.351 62.064C169.824 62.064 169.375 62.2313 169.001 62.5659C168.628 62.9005 168.385 63.3923 168.272 64.0414V64.0113L167.742 67.0326H167.042L168.002 61.5521H168.702L168.532 62.4956C168.765 62.161 169.061 61.9034 169.421 61.7227C169.781 61.5421 170.171 61.4517 170.591 61.4517Z" fill="white"/>
<path d="M149.19 53.7874H146.935L144.18 48.2046L143.165 53.7874H140.91L142.545 44.7363H144.799L147.555 50.3449L148.57 44.7363H150.824L149.19 53.7874Z" fill="white"/>
<path d="M158.484 44.7363L158.167 46.4769H154.397L154.054 48.4238H156.875L156.559 50.0999H153.737L153.078 53.7874H150.824L152.459 44.7363H158.484Z" fill="white"/>
<path d="M166.326 44.7363L166.023 46.4769H163.558L162.239 53.7874H159.985L161.303 46.4769H158.851L159.167 44.7363H166.326Z" fill="white"/>
<path d="M168.882 53.8905C168.301 53.8905 167.779 53.8003 167.313 53.6197C166.856 53.4392 166.495 53.19 166.232 52.8719C165.968 52.5453 165.836 52.1714 165.836 51.7502C165.836 51.6901 165.845 51.5826 165.862 51.4279H168.038C168.02 51.6944 168.099 51.9092 168.275 52.0726C168.46 52.2273 168.719 52.3046 169.053 52.3046C169.334 52.3046 169.567 52.2531 169.752 52.1499C169.936 52.0468 170.029 51.9007 170.029 51.7116C170.029 51.531 169.927 51.3892 169.725 51.2861C169.532 51.1743 169.207 51.0411 168.75 50.8864C168.275 50.7317 167.875 50.5812 167.55 50.4351C167.234 50.2804 166.961 50.0612 166.733 49.7776C166.504 49.4939 166.39 49.1372 166.39 48.7074C166.39 48.2863 166.517 47.9081 166.772 47.5728C167.027 47.229 167.383 46.9626 167.84 46.7735C168.306 46.5844 168.842 46.4898 169.448 46.4898C170.055 46.4898 170.582 46.5887 171.031 46.7863C171.479 46.9754 171.826 47.2419 172.072 47.5857C172.318 47.9295 172.441 48.3163 172.441 48.7461L172.428 48.9395H170.385C170.402 48.6816 170.323 48.4754 170.147 48.3206C169.971 48.1659 169.721 48.0886 169.396 48.0886C169.141 48.0886 168.93 48.1401 168.763 48.2433C168.605 48.3464 168.526 48.4883 168.526 48.6688C168.526 48.8579 168.631 49.0169 168.842 49.1458C169.062 49.2661 169.4 49.4037 169.857 49.5584C170.332 49.7131 170.723 49.8678 171.031 50.0225C171.347 50.1687 171.615 50.3793 171.835 50.6543C172.063 50.9208 172.178 51.256 172.178 51.66C172.178 52.1241 172.033 52.5238 171.742 52.859C171.461 53.1943 171.07 53.4521 170.569 53.6326C170.077 53.8045 169.514 53.8905 168.882 53.8905Z" fill="white"/>
<defs>
<linearGradient id="paint0_linear_0_1" x1="94.4292" y1="220.673" x2="94.4292" y2="46.136" gradientUnits="userSpaceOnUse">
<stop stop-color="#B8008C" stop-opacity="0"/>
<stop offset="0.4722" stop-color="#DB008C" stop-opacity="0.4722"/>
<stop offset="1" stop-color="#FF008C"/>
</linearGradient>
<linearGradient id="paint1_linear_0_1" x1="94.426" y1="195.551" x2="94.426" y2="71.2572" gradientUnits="userSpaceOnUse">
<stop stop-color="#B8008C" stop-opacity="0"/>
<stop offset="0.4722" stop-color="#DB008C" stop-opacity="0.4722"/>
<stop offset="1" stop-color="#FF008C"/>
</linearGradient>
<linearGradient id="paint2_linear_0_1" x1="94.4279" y1="227.166" x2="94.4279" y2="39.6421" gradientUnits="userSpaceOnUse">
<stop stop-color="#B8008C" stop-opacity="0"/>
<stop offset="0.4722" stop-color="#DB008C" stop-opacity="0.4722"/>
<stop offset="1" stop-color="#FF008C"/>
</linearGradient>
<linearGradient id="paint3_linear_0_1" x1="83.1441" y1="93.0742" x2="83.1441" y2="150.441" gradientUnits="userSpaceOnUse">
<stop stop-color="white" stop-opacity="0"/>
<stop offset="1" stop-color="white"/>
</linearGradient>
<linearGradient id="paint4_linear_0_1" x1="83.1441" y1="93.0742" x2="83.1441" y2="150.441" gradientUnits="userSpaceOnUse">
<stop stop-color="white" stop-opacity="0"/>
<stop offset="1" stop-color="white"/>
</linearGradient>
<linearGradient id="paint5_linear_0_1" x1="144.366" y1="123.04" x2="144.366" y2="150.912" gradientUnits="userSpaceOnUse">
<stop stop-color="white" stop-opacity="0"/>
<stop offset="1" stop-color="white"/>
</linearGradient>
<linearGradient id="paint6_linear_0_1" x1="134.487" y1="4.11547" x2="134.487" y2="92.879" gradientUnits="userSpaceOnUse">
<stop stop-color="#00FECF"/>
<stop offset="0.4722" stop-color="#00FECF" stop-opacity="0.5"/>
<stop offset="1" stop-color="#00FECF" stop-opacity="0"/>
</linearGradient>
<linearGradient id="paint7_linear_0_1" x1="134.517" y1="80.1081" x2="134.517" y2="16.8965" gradientUnits="userSpaceOnUse">
<stop stop-color="#00FECF" stop-opacity="0"/>
<stop offset="0.4722" stop-color="#00FECF" stop-opacity="0.5"/>
<stop offset="1" stop-color="#00FECF"/>
</linearGradient>
<linearGradient id="paint8_linear_0_1" x1="134.514" y1="96.1863" x2="134.514" y2="0.817974" gradientUnits="userSpaceOnUse">
<stop stop-color="#00FECF" stop-opacity="0"/>
<stop offset="0.4722" stop-color="#00FECF" stop-opacity="0.5"/>
<stop offset="1" stop-color="#00FECF"/>
</linearGradient>
</defs>
</svg>
