<svg width="56" height="56" viewBox="0 0 56 56" fill="none" xmlns="http://www.w3.org/2000/svg">
<path d="M0 8C0 3.58172 3.58172 0 8 0H48C52.4183 0 56 3.58172 56 8V48C56 52.4183 52.4183 56 48 56H8C3.58172 56 0 52.4183 0 48V8Z" fill="url(#paint0_linear_967_2211)"/>
<path d="M24.0391 13.75C27.9741 13.75 31.1641 20.1299 31.1641 28M24.0391 13.75C20.104 13.75 16.9141 20.1299 16.9141 28C16.9141 35.8701 20.104 42.25 24.0391 42.25M24.0391 13.75H32.7474C36.2452 13.75 39.0807 20.1299 39.0807 28M31.1641 28C31.1641 35.8701 27.9741 42.25 24.0391 42.25M31.1641 28H39.0807M24.0391 42.25H32.7474C36.2452 42.25 39.0807 35.8701 39.0807 28M38.0142 35.9167H29.9643M38.0142 20.0833H29.9643M24.0391 21.6667C25.3507 21.6667 26.4141 24.5022 26.4141 28C26.4141 31.4978 25.3507 34.3333 24.0391 34.3333C22.7274 34.3333 21.6641 31.4978 21.6641 28C21.6641 24.5022 22.7274 21.6667 24.0391 21.6667Z" stroke="white" stroke-width="2" stroke-linecap="round" stroke-linejoin="round"/>
<defs>
<linearGradient id="paint0_linear_967_2211" x1="1.49732e-06" y1="52" x2="56" y2="-1.56947e-06" gradientUnits="userSpaceOnUse">
<stop stop-color="#9610FF"/>
<stop offset="1" stop-color="#B14DFF" stop-opacity="0"/>
</linearGradient>
</defs>
</svg>
