<svg width="56" height="56" viewBox="0 0 56 56" fill="none" xmlns="http://www.w3.org/2000/svg">
<path d="M0 8C0 3.58172 3.58172 0 8 0H48C52.4183 0 56 3.58172 56 8V48C56 52.4183 52.4183 56 48 56H8C3.58172 56 0 52.4183 0 48V8Z" fill="url(#paint0_linear_971_680)"/>
<path d="M30.5807 26.1875C30.5807 28.3161 27.1296 30.0417 22.8724 30.0417C18.6152 30.0417 15.1641 28.3161 15.1641 26.1875M30.5807 26.1875C30.5807 24.0589 27.1296 22.3333 22.8724 22.3333C18.6152 22.3333 15.1641 24.0589 15.1641 26.1875M30.5807 26.1875V32.3542M15.1641 26.1875V32.3542M39.8307 18.4792C39.8307 16.3506 36.3796 14.625 32.1224 14.625C29.0713 14.625 26.4342 15.5113 25.1849 16.7972M39.8307 18.4792C39.8307 19.9058 38.2806 21.1513 35.9766 21.8177M39.8307 18.4792V31.5833C39.8307 32.7246 38.2806 33.721 35.9766 34.2542M39.8307 25.4167C39.8307 26.5832 38.2111 27.5985 35.8223 28.1223M30.5807 32.3542C30.5807 34.4828 27.1296 36.2083 22.8724 36.2083C18.6152 36.2083 15.1641 34.4828 15.1641 32.3542M30.5807 32.3542V38.5208C30.5807 40.6494 27.1296 42.375 22.8724 42.375C18.6152 42.375 15.1641 40.6494 15.1641 38.5208V32.3542" stroke="white" stroke-width="2" stroke-linecap="round" stroke-linejoin="round"/>
<defs>
<linearGradient id="paint0_linear_971_680" x1="1.49732e-06" y1="52" x2="56" y2="-1.56947e-06" gradientUnits="userSpaceOnUse">
<stop stop-color="#9610FF"/>
<stop offset="1" stop-color="#B14DFF" stop-opacity="0"/>
</linearGradient>
</defs>
</svg>
