<svg width="56" height="56" viewBox="0 0 56 56" fill="none" xmlns="http://www.w3.org/2000/svg">
<path d="M0 8C0 3.58172 3.58172 0 8 0H48C52.4183 0 56 3.58172 56 8V48C56 52.4183 52.4183 56 48 56H8C3.58172 56 0 52.4183 0 48V8Z" fill="url(#paint0_linear_970_2271)"/>
<path d="M28.0042 23.2497H28.02M32.7542 39.083L35.9208 42.2497L42.2542 35.9163M23.5247 32.7497C24.1768 30.9048 25.9363 29.583 28.0045 29.583C30.0726 29.583 31.8321 30.9048 32.4842 32.7497M40.6693 29.583V20.3997C40.6693 18.6262 40.6693 17.7394 40.3241 17.062C40.0205 16.4662 39.5361 15.9818 38.9402 15.6782C38.2629 15.333 37.3761 15.333 35.6026 15.333H20.4026C18.6291 15.333 17.7424 15.333 17.065 15.6782C16.4691 15.9818 15.9847 16.4662 15.6811 17.062C15.3359 17.7394 15.3359 18.6262 15.3359 20.3997V35.5997C15.3359 37.3732 15.3359 38.2599 15.6811 38.9373C15.9847 39.5332 16.4691 40.0176 17.065 40.3212C17.7424 40.6663 18.6291 40.6663 20.4026 40.6663H26.4208M29.5875 23.2497C29.5875 24.1241 28.8786 24.833 28.0042 24.833C27.1297 24.833 26.4208 24.1241 26.4208 23.2497C26.4208 22.3752 27.1297 21.6663 28.0042 21.6663C28.8786 21.6663 29.5875 22.3752 29.5875 23.2497Z" stroke="white" stroke-width="2" stroke-linecap="round" stroke-linejoin="round"/>
<defs>
<linearGradient id="paint0_linear_970_2271" x1="1.49732e-06" y1="52" x2="56" y2="-1.56947e-06" gradientUnits="userSpaceOnUse">
<stop stop-color="#9610FF"/>
<stop offset="1" stop-color="#B14DFF" stop-opacity="0"/>
</linearGradient>
</defs>
</svg>
