<svg width="25" height="25" viewBox="0 0 25 25" fill="none" xmlns="http://www.w3.org/2000/svg">
<g clip-path="url(#clip0_303_676)">
<path d="M20.4338 4.17943C18.8953 3.47351 17.2455 2.95342 15.5206 2.65555C15.4892 2.6498 15.4578 2.66416 15.4416 2.6929C15.2294 3.07027 14.9944 3.56258 14.8298 3.94954C12.9745 3.67178 11.1288 3.67178 9.31153 3.94954C9.14692 3.55398 8.90336 3.07027 8.69023 2.6929C8.67405 2.66512 8.64267 2.65076 8.61126 2.65555C6.88727 2.95247 5.23749 3.47256 3.69807 4.17943C3.68474 4.18517 3.67332 4.19476 3.66574 4.2072C0.536457 8.88228 -0.320783 13.4424 0.0997501 17.9461C0.101653 17.9681 0.114021 17.9892 0.131147 18.0026C2.19576 19.5188 4.19568 20.4392 6.15847 21.0494C6.18988 21.0589 6.22317 21.0475 6.24316 21.0216C6.70746 20.3875 7.12134 19.719 7.4762 19.0159C7.49714 18.9748 7.47715 18.9259 7.43435 18.9096C6.77786 18.6606 6.15276 18.357 5.55145 18.0122C5.50389 17.9844 5.50008 17.9164 5.54384 17.8838C5.67037 17.789 5.79695 17.6903 5.91777 17.5907C5.93963 17.5725 5.97009 17.5687 5.99579 17.5802C9.94612 19.3837 14.2228 19.3837 18.1265 17.5802C18.1522 17.5677 18.1827 17.5716 18.2055 17.5897C18.3264 17.6894 18.4529 17.789 18.5804 17.8838C18.6241 17.9164 18.6213 17.9844 18.5737 18.0122C17.9724 18.3637 17.3473 18.6606 16.6899 18.9087C16.6471 18.9249 16.628 18.9748 16.649 19.0159C17.0115 19.718 17.4253 20.3866 17.8811 21.0206C17.9001 21.0475 17.9343 21.0589 17.9658 21.0494C19.9381 20.4392 21.938 19.5188 24.0026 18.0026C24.0207 17.9892 24.0321 17.9691 24.034 17.947C24.5373 12.7403 23.191 8.21756 20.4652 4.20815C20.4585 4.19476 20.4471 4.18517 20.4338 4.17943ZM8.06611 15.2038C6.87679 15.2038 5.89683 14.1119 5.89683 12.771C5.89683 11.4301 6.85779 10.3382 8.06611 10.3382C9.28392 10.3382 10.2544 11.4396 10.2354 12.771C10.2354 14.1119 9.27441 15.2038 8.06611 15.2038ZM16.0867 15.2038C14.8974 15.2038 13.9174 14.1119 13.9174 12.771C13.9174 11.4301 14.8783 10.3382 16.0867 10.3382C17.3045 10.3382 18.275 11.4396 18.256 12.771C18.256 14.1119 17.3045 15.2038 16.0867 15.2038Z" fill="#AE88FE"/>
</g>
<defs>
<clipPath id="clip0_303_676">
<rect width="24.1379" height="24.1379" fill="white"/>
</clipPath>
</defs>
</svg>
