<svg width="23" height="17" viewBox="0 0 23 17" fill="none" xmlns="http://www.w3.org/2000/svg">
<path d="M20.125 0H2.875C2.1125 0 1.38123 0.311488 0.842066 0.865943C0.302899 1.4204 0 2.1724 0 2.95652V14.0435C0 14.8276 0.302899 15.5796 0.842066 16.1341C1.38123 16.6885 2.1125 17 2.875 17H20.125C20.8875 17 21.6188 16.6885 22.1579 16.1341C22.6971 15.5796 23 14.8276 23 14.0435V2.95652C23 2.1724 22.6971 1.4204 22.1579 0.865943C21.6188 0.311488 20.8875 0 20.125 0ZM19.8591 5.0039L11.9528 11.6561C11.8248 11.7629 11.6649 11.8212 11.5 11.8212C11.3351 11.8212 11.1752 11.7629 11.0472 11.6561L3.14094 5.0039C3.05712 4.94687 2.98586 4.87238 2.93177 4.78527C2.87768 4.69815 2.84196 4.60034 2.82691 4.49814C2.81187 4.39595 2.81784 4.29164 2.84443 4.19196C2.87102 4.09228 2.91764 3.99945 2.98129 3.91946C3.04494 3.83946 3.12419 3.77409 3.21393 3.72755C3.30368 3.68101 3.40192 3.65435 3.50231 3.64928C3.60269 3.6442 3.703 3.66084 3.79675 3.69811C3.8905 3.73538 3.9756 3.79246 4.04656 3.86566L11.5 10.1335L18.9534 3.86566C19.1019 3.76462 19.2816 3.72385 19.4577 3.75125C19.6337 3.77866 19.7936 3.8723 19.9064 4.01401C20.0191 4.15573 20.0767 4.33542 20.068 4.51831C20.0592 4.70119 19.9848 4.87424 19.8591 5.0039Z" fill="#AE88FE"/>
</svg>
