<svg width="25" height="25" viewBox="0 0 25 25" fill="none" xmlns="http://www.w3.org/2000/svg">
<g clip-path="url(#clip0_303_677)">
<path d="M12.0732 8.0603C9.85224 8.0603 8.0625 9.86243 8.0625 12.0854C8.0625 14.2976 9.8738 16.1213 12.084 16.1105C14.2835 16.1105 16.1163 14.276 16.1055 12.0746C16.0948 9.87323 14.2835 8.0603 12.0732 8.0603Z" fill="#AE88FE"/>
<path d="M23.9978 6.33391C23.8361 4.17585 22.9305 2.38466 21.0547 1.17614C19.9011 0.442403 18.6182 0.161855 17.2706 0.0863225C16.8825 0.0647419 16.4944 0.0323709 16.1063 0C13.4219 0 10.7376 0 8.04238 0C7.40632 0.0539516 6.75948 0.0863225 6.12342 0.151064C2.78141 0.507145 0.506692 2.7839 0.150929 6.13969C0.0862454 6.77632 0.0431227 7.42374 0 8.06036C0 10.7472 0 13.4339 0 16.1315C0.0754647 16.9192 0.0970261 17.7177 0.226394 18.4838C0.786989 21.7101 3.04015 23.8358 6.31747 24.0084C9.18513 24.1595 12.0528 24.1379 14.9312 24.1271C16.1495 24.1271 17.3892 24.1056 18.5751 23.9005C21.7338 23.361 23.7929 21.0627 23.987 17.8364C24.1271 15.5488 24.1164 13.2505 24.1271 10.9522C24.1379 9.41994 24.1164 7.86614 23.9978 6.33391ZM12.0851 18.3004C8.66766 18.3112 5.87547 15.5273 5.87547 12.0959C5.87547 8.65383 8.62454 5.88072 12.0636 5.88072C15.4918 5.88072 18.2732 8.64304 18.284 12.0744C18.284 15.4949 15.5026 18.2896 12.0851 18.3004ZM18.532 7.08924C17.7234 7.10003 17.0658 6.45261 17.0658 5.64333C17.0658 4.84485 17.6803 4.20822 18.4781 4.18664C19.2974 4.16506 19.955 4.80169 19.9658 5.61096C19.9874 6.40945 19.3405 7.07844 18.532 7.08924Z" fill="#AE88FE"/>
</g>
<defs>
<clipPath id="clip0_303_677">
<rect width="24.1379" height="24.1379" fill="white"/>
</clipPath>
</defs>
</svg>
