<svg width="26" height="26" viewBox="0 0 26 26" fill="none" xmlns="http://www.w3.org/2000/svg">
<path fill-rule="evenodd" clip-rule="evenodd" d="M26 13C26 20.1797 20.1797 26 13 26C5.8203 26 0 20.1797 0 13C0 5.8203 5.8203 0 13 0C20.1797 0 26 5.8203 26 13ZM19.7661 11.0994C20.8152 11.0994 21.6667 11.9509 21.6667 13C21.6667 13.7754 21.1953 14.4444 20.5719 14.7485C20.6023 14.931 20.6176 15.1134 20.6176 15.3111C20.6176 18.2304 17.2269 20.5871 13.0304 20.5871C8.83393 20.5871 5.44328 18.2304 5.44328 15.3111C5.44328 15.1134 5.45849 14.9158 5.4889 14.7333C4.81989 14.4292 4.36375 13.7754 4.36375 13C4.36375 11.9509 5.21521 11.0994 6.26433 11.0994C6.76609 11.0994 7.23743 11.3123 7.57194 11.6316C8.87954 10.6737 10.6889 10.0807 12.7111 10.0199L13.669 5.48886C13.6994 5.39764 13.745 5.32161 13.8211 5.276C13.8971 5.23038 13.9883 5.21518 14.0795 5.23038L17.2269 5.89939C17.4398 5.44325 17.8959 5.13916 18.4281 5.13916C19.1731 5.13916 19.7813 5.74734 19.7813 6.49237C19.7813 7.2374 19.1731 7.84559 18.4281 7.84559C17.6983 7.84559 17.1053 7.26781 17.0749 6.55319L14.262 5.96021L13.3953 10.0199C15.3719 10.0959 17.1661 10.7041 18.4585 11.6316C18.793 11.297 19.2491 11.0994 19.7661 11.0994ZM10.0199 13C9.27486 13 8.66667 13.6082 8.66667 14.3532C8.66667 15.0982 9.27486 15.7064 10.0199 15.7064C10.7649 15.7064 11.3731 15.0982 11.3731 14.3532C11.3731 13.6082 10.7649 13 10.0199 13ZM13.0152 18.9146C13.5322 18.9146 15.2959 18.8538 16.2234 17.9263C16.3602 17.7894 16.3602 17.5766 16.2538 17.4245C16.117 17.2877 15.8889 17.2877 15.7521 17.4245C15.1591 18.0023 13.9275 18.2152 13.0304 18.2152C12.1333 18.2152 10.8866 18.0023 10.3088 17.4245C10.1719 17.2877 9.94387 17.2877 9.80702 17.4245C9.67018 17.5614 9.67018 17.7894 9.80702 17.9263C10.7193 18.8386 12.4983 18.9146 13.0152 18.9146ZM14.6269 14.3532C14.6269 15.0982 15.2351 15.7064 15.9801 15.7064C16.7252 15.7064 17.3333 15.0982 17.3333 14.3532C17.3333 13.6082 16.7252 13 15.9801 13C15.2351 13 14.6269 13.6082 14.6269 14.3532Z" fill="#AE88FE"/>
</svg>
