<svg width="25" height="25" viewBox="0 0 25 25" fill="none" xmlns="http://www.w3.org/2000/svg">
<g clip-path="url(#clip0_303_675)">
<path fill-rule="evenodd" clip-rule="evenodd" d="M24.1379 12.069C24.1379 18.7345 18.7345 24.1379 12.069 24.1379C5.40346 24.1379 0 18.7345 0 12.069C0 5.40346 5.40346 0 12.069 0C18.7345 0 24.1379 5.40346 24.1379 12.069ZM12.5015 8.90984C11.3276 9.3981 8.98146 10.4087 5.46311 11.9416C4.89179 12.1688 4.5925 12.391 4.56525 12.6084C4.51921 12.9756 4.97916 13.1203 5.6055 13.3172C5.6907 13.344 5.77898 13.3718 5.86948 13.4012C6.4857 13.6015 7.31462 13.8358 7.74555 13.8451C8.13644 13.8536 8.57271 13.6924 9.05438 13.3617C12.3417 11.1427 14.0386 10.0211 14.1451 9.99689C14.2203 9.97983 14.3245 9.95839 14.395 10.0211C14.4656 10.0838 14.4587 10.2026 14.4512 10.2345C14.4056 10.4287 12.6001 12.1073 11.6658 12.9759C11.3745 13.2467 11.1679 13.4388 11.1257 13.4827C11.031 13.581 10.9346 13.6739 10.8419 13.7633C10.2694 14.3151 9.84014 14.729 10.8657 15.4048C11.3585 15.7296 11.7529 15.9982 12.1464 16.2661C12.576 16.5587 13.0046 16.8506 13.5591 17.214C13.7004 17.3066 13.8353 17.4028 13.9667 17.4965C14.4667 17.853 14.916 18.1733 15.471 18.1222C15.7935 18.0925 16.1266 17.7893 16.2958 16.8848C16.6956 14.7474 17.4815 10.1163 17.6631 8.20788C17.6791 8.04068 17.659 7.82669 17.643 7.73276C17.6269 7.63883 17.5933 7.50499 17.4712 7.40592C17.3266 7.28859 17.1034 7.26384 17.0035 7.2656C16.5496 7.2736 15.8531 7.51576 12.5015 8.90984Z" fill="#AE88FE"/>
</g>
<defs>
<clipPath id="clip0_303_675">
<rect width="24.1379" height="24.1379" fill="white"/>
</clipPath>
</defs>
</svg>
