<svg width="28" height="28" viewBox="0 0 28 28" fill="none" xmlns="http://www.w3.org/2000/svg">
<path d="M27.7211 8.11051C27.7211 8.11051 27.4477 6.24661 26.6055 5.42818C25.5391 4.35102 24.3469 4.34574 23.8 4.28238C19.8844 4.00781 14.0055 4.00781 14.0055 4.00781H13.9945C13.9945 4.00781 8.11562 4.00781 4.2 4.28238C3.65313 4.34574 2.46094 4.35102 1.39453 5.42818C0.552344 6.24661 0.284375 8.11051 0.284375 8.11051C0.284375 8.11051 0 10.3018 0 12.4878V14.5365C0 16.7225 0.278906 18.9137 0.278906 18.9137C0.278906 18.9137 0.552344 20.7776 1.38906 21.5961C2.45547 22.6732 3.85547 22.6363 4.47891 22.7524C6.72109 22.9583 14 23.0217 14 23.0217C14 23.0217 19.8844 23.0112 23.8 22.7419C24.3469 22.6785 25.5391 22.6732 26.6055 21.5961C27.4477 20.7776 27.7211 18.9137 27.7211 18.9137C27.7211 18.9137 28 16.7277 28 14.5365V12.4878C28 10.3018 27.7211 8.11051 27.7211 8.11051ZM11.107 17.0234V9.42527L18.6703 13.2376L11.107 17.0234Z" fill="#AE88FE"/>
</svg>
