<svg width="16" height="16" viewBox="0 0 16 16" fill="none" xmlns="http://www.w3.org/2000/svg">
<g clip-path="url(#clip0_518_1134)">
<path d="M1.3335 4.66675V6.26675C1.3335 8.50696 1.3335 9.62706 1.76947 10.4827C2.15296 11.2354 2.76489 11.8473 3.51753 12.2308C4.37318 12.6667 5.49329 12.6667 7.7335 12.6667H12.0002M12.0002 12.6667L9.3335 10.0001M12.0002 12.6667L9.3335 15.3334" stroke="#EEEDFF" stroke-width="1.5" stroke-linecap="round" stroke-linejoin="round"/>
<path d="M14.6667 11.3334V9.73342C14.6667 7.4932 14.6667 6.3731 14.2307 5.51745C13.8472 4.7648 13.2353 4.15288 12.4826 3.76939C11.627 3.33341 10.5069 3.33341 8.26667 3.33341H4M4 3.33341L6.66667 6.00008M4 3.33341L6.66667 0.666748" stroke="#EEEDFF" stroke-width="1.5" stroke-linecap="round" stroke-linejoin="round"/>
</g>
<defs>
<clipPath id="clip0_518_1134">
<rect width="16" height="16" fill="white"/>
</clipPath>
</defs>
</svg>
