<svg width="24" height="24" viewBox="0 0 24 24" fill="none" xmlns="http://www.w3.org/2000/svg">
<path d="M2 7V9.4C2 12.7603 2 14.4405 2.65396 15.7239C3.2292 16.8529 4.14708 17.7708 5.27606 18.346C6.55953 19 8.23969 19 11.6 19H18M18 19L14 15M18 19L14 23" stroke="#5690FF" stroke-width="2" stroke-linecap="round" stroke-linejoin="round"/>
<path d="M22 17V14.6C22 11.2397 22 9.55953 21.346 8.27606C20.7708 7.14708 19.8529 6.2292 18.7239 5.65396C17.4405 5 15.7603 5 12.4 5H6M6 5L10 9M6 5L10 1" stroke="#5690FF" stroke-width="2" stroke-linecap="round" stroke-linejoin="round"/>
</svg>
