<svg width="18" height="14" viewBox="0 0 18 14" fill="none" xmlns="http://www.w3.org/2000/svg">
<path d="M4.09419 5.90581H7.36473M5.72946 4.27054V7.54108M11.4529 6.72345H11.4611M13.9058 5.08818H13.914M7.73181 1H10.2682C12.4144 1 13.4875 1 14.3298 1.40672C15.0714 1.76481 15.6876 2.33854 16.0976 3.05275C16.5633 3.86393 16.6397 4.9343 16.7926 7.07505L16.9938 9.89138C17.0925 11.2723 15.9988 12.4469 14.6143 12.4469C13.9063 12.4469 13.2349 12.1324 12.7817 11.5885L12.4749 11.2204C12.1944 10.8838 12.0541 10.7154 11.8943 10.5794C11.5595 10.2942 11.1541 10.1043 10.7206 10.0296C10.5138 9.99399 10.2947 9.99399 9.85642 9.99399H8.14358C7.7053 9.99399 7.48616 9.99399 7.2794 10.0296C6.84594 10.1043 6.44054 10.2942 6.10566 10.5794C5.94592 10.7154 5.80563 10.8837 5.52505 11.2204L5.2183 11.5885C4.76506 12.1324 4.09366 12.4469 3.38567 12.4469C2.00124 12.4469 0.907548 11.2723 1.00619 9.89138L1.20735 7.07505C1.36026 4.9343 1.43672 3.86393 1.90241 3.05275C2.31244 2.33854 2.9286 1.76481 3.67021 1.40672C4.51251 1 5.58561 1 7.73181 1Z" stroke="#EEEDFF" stroke-width="1.5" stroke-linecap="round" stroke-linejoin="round"/>
</svg>
