<svg width="18" height="18" viewBox="0 0 18 18" fill="none" xmlns="http://www.w3.org/2000/svg">
<path d="M1 2.6C1 2.03995 1 1.75992 1.10899 1.54601C1.20487 1.35785 1.35785 1.20487 1.54601 1.10899C1.75992 1 2.03995 1 2.6 1H5.4C5.96005 1 6.24008 1 6.45399 1.10899C6.64215 1.20487 6.79513 1.35785 6.89101 1.54601C7 1.75992 7 2.03995 7 2.6V7.4C7 7.96005 7 8.24008 6.89101 8.45399C6.79513 8.64215 6.64215 8.79513 6.45399 8.89101C6.24008 9 5.96005 9 5.4 9H2.6C2.03995 9 1.75992 9 1.54601 8.89101C1.35785 8.79513 1.20487 8.64215 1.10899 8.45399C1 8.24008 1 7.96005 1 7.4V2.6Z" stroke="#5690FF" stroke-width="1.5" stroke-linecap="round" stroke-linejoin="round"/>
<path d="M11 10.6C11 10.0399 11 9.75992 11.109 9.54601C11.2049 9.35785 11.3578 9.20487 11.546 9.10899C11.7599 9 12.0399 9 12.6 9H15.4C15.9601 9 16.2401 9 16.454 9.10899C16.6422 9.20487 16.7951 9.35785 16.891 9.54601C17 9.75992 17 10.0399 17 10.6V15.4C17 15.9601 17 16.2401 16.891 16.454C16.7951 16.6422 16.6422 16.7951 16.454 16.891C16.2401 17 15.9601 17 15.4 17H12.6C12.0399 17 11.7599 17 11.546 16.891C11.3578 16.7951 11.2049 16.6422 11.109 16.454C11 16.2401 11 15.9601 11 15.4V10.6Z" stroke="#5690FF" stroke-width="1.5" stroke-linecap="round" stroke-linejoin="round"/>
<path d="M1 14.6C1 14.0399 1 13.7599 1.10899 13.546C1.20487 13.3578 1.35785 13.2049 1.54601 13.109C1.75992 13 2.03995 13 2.6 13H5.4C5.96005 13 6.24008 13 6.45399 13.109C6.64215 13.2049 6.79513 13.3578 6.89101 13.546C7 13.7599 7 14.0399 7 14.6V15.4C7 15.9601 7 16.2401 6.89101 16.454C6.79513 16.6422 6.64215 16.7951 6.45399 16.891C6.24008 17 5.96005 17 5.4 17H2.6C2.03995 17 1.75992 17 1.54601 16.891C1.35785 16.7951 1.20487 16.6422 1.10899 16.454C1 16.2401 1 15.9601 1 15.4V14.6Z" stroke="#5690FF" stroke-width="1.5" stroke-linecap="round" stroke-linejoin="round"/>
<path d="M11 2.6C11 2.03995 11 1.75992 11.109 1.54601C11.2049 1.35785 11.3578 1.20487 11.546 1.10899C11.7599 1 12.0399 1 12.6 1H15.4C15.9601 1 16.2401 1 16.454 1.10899C16.6422 1.20487 16.7951 1.35785 16.891 1.54601C17 1.75992 17 2.03995 17 2.6V3.4C17 3.96005 17 4.24008 16.891 4.45399C16.7951 4.64215 16.6422 4.79513 16.454 4.89101C16.2401 5 15.9601 5 15.4 5H12.6C12.0399 5 11.7599 5 11.546 4.89101C11.3578 4.79513 11.2049 4.64215 11.109 4.45399C11 4.24008 11 3.96005 11 3.4V2.6Z" stroke="#5690FF" stroke-width="1.5" stroke-linecap="round" stroke-linejoin="round"/>
</svg>
