<svg width="24" height="24" viewBox="0 0 24 24" fill="none" xmlns="http://www.w3.org/2000/svg">
<path d="M5 9.77753V16.2001C5 17.8802 5 18.7203 5.32698 19.362C5.6146 19.9265 6.07354 20.3855 6.63803 20.6731C7.27976 21.0001 8.11984 21.0001 9.8 21.0001H14.2C15.8802 21.0001 16.7202 21.0001 17.362 20.6731C17.9265 20.3855 18.3854 19.9265 18.673 19.362C19 18.7203 19 17.8802 19 16.2001V5.00008M21 12.0001L15.5668 5.96405C14.3311 4.59129 13.7133 3.9049 12.9856 3.65151C12.3466 3.42894 11.651 3.42899 11.0119 3.65165C10.2843 3.90516 9.66661 4.59163 8.43114 5.96458L3 12.0001" stroke="#8C56FF" stroke-width="2" stroke-linecap="round" stroke-linejoin="round"/>
</svg>
