<svg width="19" height="18" viewBox="0 0 19 18" fill="none" xmlns="http://www.w3.org/2000/svg">
<path d="M2.82696 6.74844V12.6153C2.82696 14.1501 2.82696 14.9175 3.12565 15.5037C3.38838 16.0193 3.80762 16.4386 4.32326 16.7013C4.90947 17 5.67687 17 7.21166 17H11.231C12.7658 17 13.5331 17 14.1194 16.7013C14.635 16.4386 15.0542 16.0193 15.317 15.5037C15.6157 14.9175 15.6157 14.1501 15.6157 12.6153V2.38434M17.4426 8.77869L12.4795 3.26491C11.3507 2.01092 10.7863 1.38392 10.1217 1.15245C9.53788 0.949139 8.90249 0.949186 8.31873 1.15258C7.6541 1.38415 7.08981 2.01123 5.96123 3.26539L1 8.77869" stroke="#5690FF" stroke-width="1.5" stroke-linecap="round" stroke-linejoin="round"/>
</svg>
