<svg width="24" height="24" viewBox="0 0 24 24" fill="none" xmlns="http://www.w3.org/2000/svg">
<g id="award">
<path id="Icon" d="M12 3L12.2446 2.56392C12.0927 2.47869 11.9073 2.47869 11.7554 2.56392L12 3ZM13.3976 3.784L13.153 4.22008C13.2259 4.26096 13.3079 4.28293 13.3914 4.28396L13.3976 3.784ZM15 3.80385L15.4299 3.5485C15.3409 3.39872 15.1804 3.30604 15.0062 3.30389L15 3.80385ZM15.8184 5.18162L15.3885 5.43697C15.4312 5.50882 15.4912 5.56883 15.563 5.61151L15.8184 5.18162ZM17.1962 6L17.6961 5.99381C17.694 5.81961 17.6013 5.65909 17.4515 5.57012L17.1962 6ZM17.216 7.60238L16.716 7.60857C16.7171 7.69213 16.739 7.77411 16.7799 7.84699L17.216 7.60238ZM18 9L18.4361 9.24462C18.5213 9.09268 18.5213 8.90732 18.4361 8.75538L18 9ZM17.216 10.3976L16.7799 10.153C16.739 10.2259 16.7171 10.3079 16.716 10.3914L17.216 10.3976ZM17.1962 12L17.4515 12.4299C17.6013 12.3409 17.694 12.1804 17.6961 12.0062L17.1962 12ZM15.8184 12.8184L15.563 12.3885C15.4912 12.4312 15.4312 12.4912 15.3885 12.563L15.8184 12.8184ZM15 14.1962L15.0062 14.6961C15.1804 14.694 15.3409 14.6013 15.4299 14.4515L15 14.1962ZM13.3976 14.216L13.3914 13.716C13.3079 13.7171 13.2259 13.739 13.153 13.7799L13.3976 14.216ZM12 15L11.7554 15.4361C11.9073 15.5213 12.0927 15.5213 12.2446 15.4361L12 15ZM10.6024 14.216L10.847 13.7799C10.7741 13.739 10.6921 13.7171 10.6086 13.716L10.6024 14.216ZM9 14.1962L8.57012 14.4515C8.65909 14.6013 8.81961 14.694 8.99381 14.6961L9 14.1962ZM8.18162 12.8184L8.61151 12.563C8.56883 12.4912 8.50882 12.4312 8.43697 12.3885L8.18162 12.8184ZM6.80385 12L6.30389 12.0062C6.30604 12.1804 6.39872 12.3409 6.5485 12.4299L6.80385 12ZM6.784 10.3976L7.28396 10.3914C7.28293 10.3079 7.26096 10.2259 7.22008 10.153L6.784 10.3976ZM6 9L5.56392 8.75538C5.47869 8.90732 5.47869 9.09268 5.56392 9.24462L6 9ZM6.784 7.60238L7.22008 7.84699C7.26096 7.77411 7.28293 7.69213 7.28396 7.60857L6.784 7.60238ZM6.80385 6L6.5485 5.57012C6.39872 5.65909 6.30604 5.81961 6.30389 5.99381L6.80385 6ZM8.18162 5.18162L8.43697 5.61151C8.50882 5.56883 8.56883 5.50882 8.61151 5.43697L8.18162 5.18162ZM9 3.80385L8.99381 3.30389C8.81961 3.30604 8.65909 3.39872 8.57012 3.5485L9 3.80385ZM10.6024 3.784L10.6086 4.28396C10.6921 4.28293 10.7741 4.26096 10.847 4.22008L10.6024 3.784ZM4 19L3.55279 18.7764C3.47529 18.9314 3.48357 19.1155 3.57467 19.2629C3.66578 19.4103 3.82671 19.5 4 19.5V19ZM6.5 19L6.9 18.7C6.80557 18.5741 6.65738 18.5 6.5 18.5V19ZM8 21L7.6 21.3C7.70397 21.4387 7.87231 21.5136 8.0449 21.498C8.21749 21.4824 8.36972 21.3786 8.44721 21.2236L8 21ZM20 19V19.5C20.1733 19.5 20.3342 19.4103 20.4253 19.2629C20.5164 19.1155 20.5247 18.9314 20.4472 18.7764L20 19ZM17.5 19V18.5C17.3426 18.5 17.1944 18.5741 17.1 18.7L17.5 19ZM16 21L15.5528 21.2236C15.6303 21.3786 15.7825 21.4824 15.9551 21.498C16.1277 21.5136 16.296 21.4387 16.4 21.3L16 21ZM18.9472 15.7764C18.8237 15.5294 18.5234 15.4293 18.2764 15.5528C18.0294 15.6763 17.9293 15.9766 18.0528 16.2236L18.9472 15.7764ZM14.9472 17.7764C14.8237 17.5294 14.5234 17.4293 14.2764 17.5528C14.0294 17.6763 13.9293 17.9766 14.0528 18.2236L14.9472 17.7764ZM9.94721 18.2236C10.0707 17.9766 9.9706 17.6763 9.72361 17.5528C9.47662 17.4293 9.17628 17.5294 9.05279 17.7764L9.94721 18.2236ZM5.94721 16.2236C6.07071 15.9766 5.9706 15.6763 5.72361 15.5528C5.47662 15.4293 5.17628 15.5294 5.05279 15.7764L5.94721 16.2236ZM11.7554 3.43608L13.153 4.22008L13.6422 3.34793L12.2446 2.56392L11.7554 3.43608ZM13.3914 4.28396L14.9938 4.30381L15.0062 3.30389L13.4038 3.28404L13.3914 4.28396ZM14.5701 4.05919L15.3885 5.43697L16.2483 4.92628L15.4299 3.5485L14.5701 4.05919ZM15.563 5.61151L16.9408 6.42988L17.4515 5.57012L16.0737 4.75174L15.563 5.61151ZM16.6962 6.00619L16.716 7.60857L17.716 7.59618L17.6961 5.99381L16.6962 6.00619ZM16.7799 7.84699L17.5639 9.24462L18.4361 8.75538L17.6521 7.35776L16.7799 7.84699ZM17.5639 8.75538L16.7799 10.153L17.6521 10.6422L18.4361 9.24462L17.5639 8.75538ZM16.716 10.3914L16.6962 11.9938L17.6961 12.0062L17.716 10.4038L16.716 10.3914ZM15.3885 12.563L14.5701 13.9408L15.4299 14.4515L16.2483 13.0737L15.3885 12.563ZM14.9938 13.6962L13.3914 13.716L13.4038 14.716L15.0062 14.6961L14.9938 13.6962ZM10.6086 13.716L9.00619 13.6962L8.99381 14.6961L10.5962 14.716L10.6086 13.716ZM9.42988 13.9408L8.61151 12.563L7.75174 13.0737L8.57012 14.4515L9.42988 13.9408ZM7.30381 11.9938L7.28396 10.3914L6.28404 10.4038L6.30389 12.0062L7.30381 11.9938ZM7.22008 10.153L6.43608 8.75538L5.56392 9.24462L6.34793 10.6422L7.22008 10.153ZM6.43608 9.24462L7.22008 7.84699L6.34793 7.35776L5.56392 8.75538L6.43608 9.24462ZM7.28396 7.60857L7.30381 6.00619L6.30389 5.99381L6.28404 7.59618L7.28396 7.60857ZM7.05919 6.42988L8.43697 5.61151L7.92628 4.75174L6.5485 5.57012L7.05919 6.42988ZM8.61151 5.43697L9.42988 4.05919L8.57012 3.5485L7.75174 4.92628L8.61151 5.43697ZM9.00619 4.30381L10.6086 4.28396L10.5962 3.28404L8.99381 3.30389L9.00619 4.30381ZM10.847 4.22008L12.2446 3.43608L11.7554 2.56392L10.3578 3.34793L10.847 4.22008ZM16.9408 11.5701L15.563 12.3885L16.0737 13.2483L17.4515 12.4299L16.9408 11.5701ZM8.43697 12.3885L7.05919 11.5701L6.5485 12.4299L7.92628 13.2483L8.43697 12.3885ZM13.153 13.7799L11.7554 14.5639L12.2446 15.4361L13.6422 14.6521L13.153 13.7799ZM12.2446 14.5639L10.847 13.7799L10.3578 14.6521L11.7554 15.4361L12.2446 14.5639ZM4 19.5H6.5V18.5H4V19.5ZM6.1 19.3L7.6 21.3L8.4 20.7L6.9 18.7L6.1 19.3ZM20 18.5H17.5V19.5H20V18.5ZM17.1 18.7L15.6 20.7L16.4 21.3L17.9 19.3L17.1 18.7ZM18.0528 16.2236L19.5528 19.2236L20.4472 18.7764L18.9472 15.7764L18.0528 16.2236ZM14.0528 18.2236L15.5528 21.2236L16.4472 20.7764L14.9472 17.7764L14.0528 18.2236ZM9.05279 17.7764L7.55279 20.7764L8.44721 21.2236L9.94721 18.2236L9.05279 17.7764ZM5.05279 15.7764L3.55279 18.7764L4.44721 19.2236L5.94721 16.2236L5.05279 15.7764ZM13.5 9C13.5 9.82843 12.8284 10.5 12 10.5V11.5C13.3807 11.5 14.5 10.3807 14.5 9H13.5ZM12 10.5C11.1716 10.5 10.5 9.82843 10.5 9H9.5C9.5 10.3807 10.6193 11.5 12 11.5V10.5ZM10.5 9C10.5 8.17157 11.1716 7.5 12 7.5V6.5C10.6193 6.5 9.5 7.61929 9.5 9H10.5ZM12 7.5C12.8284 7.5 13.5 8.17157 13.5 9H14.5C14.5 7.61929 13.3807 6.5 12 6.5V7.5Z" fill="#5690FF"/>
</g>
</svg>
