<svg width="25" height="24" viewBox="0 0 25 24" fill="none" xmlns="http://www.w3.org/2000/svg">
<path d="M4.28588 14.2625C3.49384 13.4705 3.09783 13.0745 2.94945 12.6178C2.81893 12.2161 2.81893 11.7834 2.94945 11.3817C3.09783 10.9251 3.49384 10.5291 4.28588 9.73703L9.76046 4.26244C10.5525 3.47041 10.9485 3.07439 11.4052 2.92601C11.8069 2.7955 12.2396 2.7955 12.6412 2.92601C13.0979 3.07439 13.4939 3.47041 14.2859 4.26244L19.7605 9.73703C20.5526 10.5291 20.9486 10.9251 21.097 11.3817C21.2275 11.7834 21.2275 12.2161 21.097 12.6178C20.9486 13.0745 20.5526 13.4705 19.7605 14.2625L14.2859 19.7371C13.4939 20.5291 13.0979 20.9251 12.6412 21.0735C12.2396 21.204 11.8069 21.204 11.4052 21.0735C10.9485 20.9251 10.5525 20.5291 9.76046 19.7371L4.28588 14.2625Z" stroke="#5690FF" stroke-width="2" stroke-linecap="round" stroke-linejoin="round"/>
</svg>
