<svg width="30" height="30" viewBox="0 0 30 30" fill="none" xmlns="http://www.w3.org/2000/svg">
<circle cx="14.9999" cy="14.9999" r="14.7778" fill="white"/>
<path fill-rule="evenodd" clip-rule="evenodd" d="M10.6975 20.8805H7.8295C7.22686 20.8805 6.92918 20.8805 6.74767 20.7644C6.55162 20.6373 6.43183 20.4267 6.41731 20.1943C6.40641 19.9803 6.55527 19.7188 6.85295 19.196L13.9343 6.71421C14.2356 6.18417 14.3881 5.91916 14.5805 5.82114C14.7874 5.71587 15.0343 5.71587 15.2412 5.82114C15.4336 5.91916 15.5861 6.18417 15.8874 6.71421L17.3432 9.25543L17.3506 9.2684C17.676 9.83702 17.8411 10.1254 17.9131 10.428C17.993 10.7584 17.993 11.1069 17.9131 11.4372C17.8405 11.7422 17.6771 12.0326 17.3468 12.6098L13.6271 19.1851L13.6175 19.202C13.2899 19.7753 13.1239 20.0659 12.8938 20.2851C12.6433 20.5247 12.342 20.6989 12.0116 20.7971C11.7103 20.8805 11.3727 20.8805 10.6975 20.8805ZM17.94 20.8805H22.0494C22.6557 20.8805 22.9607 20.8805 23.1423 20.7609C23.3383 20.6337 23.4617 20.4195 23.4727 20.1873C23.4831 19.9801 23.3375 19.7288 23.0522 19.2364C23.0423 19.2196 23.0325 19.2026 23.0225 19.1852L20.964 15.6638L20.9406 15.6242C20.6513 15.135 20.5053 14.888 20.3178 14.7925C20.111 14.6872 19.8676 14.6872 19.6608 14.7925C19.472 14.8905 19.3195 15.1483 19.0182 15.6674L16.967 19.1888L16.96 19.201C16.6598 19.7193 16.5097 19.9783 16.5205 20.1908C16.535 20.4232 16.6548 20.6373 16.8509 20.7644C17.0288 20.8805 17.3337 20.8805 17.94 20.8805Z" fill="#E84142"/>
</svg>
