<svg width="24" height="25" viewBox="0 0 24 25" fill="none" xmlns="http://www.w3.org/2000/svg">
<path d="M0 6.75684C0 3.44313 2.68629 0.756836 6 0.756836H18C21.3137 0.756836 24 3.44313 24 6.75684V18.7568C24 22.0705 21.3137 24.7568 18 24.7568H6C2.68629 24.7568 0 22.0705 0 18.7568V6.75684Z" fill="url(#paint0_linear_58_20250)"/>
<g clip-path="url(#clip0_58_20250)">
<path d="M19.4559 20.6958C19.4202 19.8949 19.3513 19.101 19.1685 18.315C19.171 18.0242 18.9854 17.741 19.0813 17.4606C19.3048 17.1255 19.2486 16.638 19.1751 16.2677C19.1806 16.2115 19.1186 16.2216 19.1062 16.185C19.0981 16.0796 18.9283 16.1627 18.8666 16.1364C18.8616 16.0643 18.8827 15.9849 18.8064 15.9329C18.7964 15.8804 18.7545 15.8486 18.7099 15.8486C18.4706 15.8786 18.4771 15.3648 18.3371 15.2004C18.2692 15.0627 18.2493 14.8946 18.1199 14.7935C18.0299 14.5559 17.871 14.3414 17.6882 14.1606C17.6565 14.0955 17.6646 13.9721 17.5957 13.9431C17.5827 13.879 17.5417 13.8255 17.4961 13.7672C17.4744 13.7299 17.479 13.6694 17.4104 13.674C17.551 13.4446 17.7679 13.2702 17.9011 13.0343C18.1829 12.6418 18.4166 12.2288 18.5463 11.7847C18.6605 11.6377 18.4563 11.5113 18.4358 11.3582C18.5249 11.225 18.3232 11.2333 18.334 11.1407C18.4066 11.1539 18.5848 11.1814 18.4371 11.0524C18.4631 10.962 18.3809 10.8792 18.3424 10.7977C18.2962 10.7012 18.344 10.5848 18.2701 10.5041C18.191 10.0316 18.0404 9.64301 17.8372 9.21504C17.7413 9.04856 17.5836 8.8778 17.6305 8.67344C17.623 8.62823 17.695 8.58058 17.6261 8.53751C17.9812 7.52396 17.92 6.15393 17.3161 5.18528C16.5356 3.68665 16.3922 5.88511 16.0132 6.40197C15.8705 6.58036 15.679 7.08408 15.4205 6.85651C15.3333 6.85284 15.1207 6.70255 15.0729 6.8C14.9283 6.78075 14.792 6.72332 14.6508 6.70988C14.3504 6.62863 14.0295 6.67323 13.7188 6.64848C13.7384 6.63199 13.7583 6.61549 13.7778 6.5993C13.5112 6.57364 13.2452 6.65612 12.9728 6.69003C12.9063 6.70683 12.8331 6.70102 12.7763 6.74868C12.7701 6.74562 12.7642 6.74623 12.7589 6.75051C12.3083 6.8391 12.4756 6.94571 12.0097 6.47559C11.9728 6.3757 11.8741 6.31766 11.818 6.22816C11.8242 6.22877 11.8301 6.22785 11.8363 6.22602C11.5957 5.96851 11.4331 5.56712 11.2637 5.2534C11.2001 5.14404 10.9822 4.43077 10.8357 4.76068C10.822 4.77351 10.8084 4.78664 10.795 4.79947C10.6718 4.82574 10.6042 4.96443 10.5195 5.06218C10.3686 5.21247 10.2572 5.42905 10.2138 5.62516C10.1464 5.67862 10.093 5.74704 10.0614 5.83227C9.85904 6.13377 9.75756 6.4762 9.65949 6.75876C9.55148 6.9903 9.59183 6.86598 9.594 7.12532C9.54342 7.45951 9.43728 7.82699 9.52448 8.15934C9.48476 8.19569 9.49966 8.27664 9.55831 8.27725C9.52355 8.31391 9.52324 8.37011 9.56545 8.39944C9.84011 9.15548 10.0102 9.43834 9.68462 10.2564C9.46955 10.6336 9.47824 11.0809 9.28086 11.474C9.21072 11.5161 9.26472 11.5748 9.22438 11.6313C9.21227 11.6515 9.20017 11.6719 9.18807 11.6921C9.21383 11.7141 9.25976 11.7129 9.26721 11.6732C9.27745 11.6793 9.28924 11.6835 9.30134 11.6802C9.29731 11.6903 9.29452 11.7007 9.29296 11.7116C9.26534 11.7126 9.26658 11.7504 9.24238 11.7575C9.2461 11.7865 9.29141 11.7822 9.30817 11.7642C9.378 11.7834 9.23276 12.1677 9.19303 12.2117C9.11451 12.4457 8.99472 12.3446 9.18589 12.5795C9.50772 12.8889 9.76904 13.3135 10.1775 13.5414V13.5411C10.0934 13.8313 10.1359 14.1068 9.97697 14.3503C9.82707 14.5485 9.82738 14.8201 9.68028 15.048C9.31717 15.7161 9.16758 16.5161 9.00651 17.2425C9.01582 17.3161 8.98851 17.3567 8.92831 17.3955C8.92489 17.335 8.94041 17.2743 8.93668 17.2132C8.93917 17.1753 8.94196 17.1377 8.94444 17.0998C9.045 16.4981 8.95965 15.8462 8.90534 15.2319C8.92148 15.1201 8.89417 14.9481 8.80013 14.8623C8.83303 14.7758 8.86903 14.6542 8.78151 14.5843C8.77406 14.2834 8.87493 13.838 8.70517 13.5784C8.59592 12.819 8.59096 12.0333 8.37713 11.3634C8.3014 11.1939 8.24616 10.1079 8.0075 10.2875C7.8725 10.0316 7.61522 9.19122 7.39115 9.12676C7.3567 9.06048 7.32319 8.99388 7.26825 8.94104C7.19284 8.84115 7.14381 8.69727 7.04698 8.63282C6.65221 8.22807 6.70715 7.67608 6.40207 7.20352C6.18793 7.51388 5.06199 5.56865 5.18644 6.39494C5.13585 6.34943 5.08558 6.30361 5.03499 6.25809C4.5223 5.55124 4.86678 6.54279 4.94499 6.80672C4.95896 7.03399 5.34006 7.80683 5.19389 7.90427C4.87516 7.61346 4.85747 7.9672 4.94561 8.21066C4.94871 8.20363 4.95182 8.19691 4.95492 8.18989C4.95958 8.38905 5.03809 8.59463 5.07409 8.82129C4.66816 8.23998 4.92233 9.24803 4.93816 9.44842C4.92202 9.64453 4.99278 9.82934 4.96175 10.0248C4.65295 9.75817 5.00892 10.5582 4.94965 10.703C4.49716 9.89991 4.7653 10.9358 4.78982 11.2272C4.76033 11.152 4.69485 11.0989 4.6874 11.0207C4.60702 10.9461 4.62502 11.1514 4.65916 11.1875C4.62161 11.434 4.81961 11.7175 4.72495 11.9343C4.57443 11.8082 4.73333 12.5071 4.81247 12.4704C4.79509 12.5691 4.7833 12.647 4.85623 12.7264C4.84537 12.7783 4.86306 12.9595 4.93599 12.9079C4.93475 13.0136 4.9602 13.1128 5.00209 13.2078C4.90216 13.1009 4.87951 13.0863 4.81713 13.1862C4.82426 13.2622 4.8463 13.3337 4.88261 13.3985C4.90433 13.4464 4.89782 13.5109 4.97044 13.5222C4.94127 13.5973 4.9484 13.645 5.03344 13.6761C5.00427 13.7742 5.02692 13.8435 5.12561 13.8884C5.08775 13.9327 5.11165 14.021 5.18768 14.0118C5.1582 14.1985 4.83482 13.674 4.85189 13.9095C4.86958 14.0558 4.9304 14.1811 4.97602 14.3124C4.98844 14.3573 4.99278 14.4056 5.03065 14.4398C5.07316 14.5999 5.14299 14.7376 5.21903 14.8916C5.26992 14.9337 5.24603 15.1054 5.34813 15.169C5.32299 15.2472 5.37699 15.3202 5.44837 15.3522C5.47258 15.4213 5.45862 15.5083 5.53869 15.5655C5.53869 15.5655 5.54148 15.5658 5.54427 15.5661L5.53869 15.5655C5.53869 15.654 5.43068 15.5535 5.44031 15.6119C5.42075 15.7356 5.54272 15.7524 5.59765 15.8447C5.55389 15.9158 5.68703 15.9925 5.73234 16.0545C5.71527 16.0667 5.7072 16.0838 5.70162 16.1016C5.62589 15.9791 5.12189 15.7426 5.38351 16.0542C5.46048 16.1327 5.48034 16.3035 5.62217 16.3692C5.71186 16.5494 5.84779 16.7464 5.99924 16.9074C6.09948 17.0583 6.22611 17.16 6.30618 17.3314C5.59424 17.1298 6.51318 17.7169 6.53956 17.9255C6.54359 17.9215 6.54763 17.9173 6.55166 17.9133C5.72024 17.6485 6.37662 18.1329 6.61559 18.4017C6.67115 18.4897 6.93804 18.7604 6.67425 18.604C6.29749 18.5591 7.07584 19.0176 7.14318 19.0793C7.13015 19.1608 7.27384 19.1642 7.23505 19.2583C6.8108 19.0057 6.67239 19.2427 7.07925 19.3817C7.17081 19.4642 7.29525 19.5124 7.38836 19.601C6.61746 19.715 7.68536 20.033 7.91533 20.2367C11.3074 21.4543 15.8097 20.4151 19.4559 20.6958ZM18.3719 12.084C18.3688 12.0843 18.3651 12.0852 18.3616 12.0862C18.3629 12.0828 18.3644 12.0794 18.3657 12.0764C18.3682 12.0788 18.37 12.0816 18.3719 12.084ZM19.0829 18.1919C19.0823 18.1922 19.082 18.1925 19.0813 18.1928C19.0813 18.1919 19.0816 18.191 19.0816 18.1904C19.0823 18.191 19.0826 18.1916 19.0829 18.1919ZM13.5509 6.6607C13.554 6.66131 13.5568 6.66223 13.5599 6.66254C13.5553 6.66956 13.5509 6.67628 13.5463 6.68331C13.5454 6.68056 13.5429 6.66376 13.5509 6.6607ZM12.3521 20.2059C12.3533 20.2055 12.3545 20.2059 12.3555 20.2055C12.3549 20.2065 12.3545 20.2074 12.3539 20.2083C12.3536 20.2074 12.3527 20.2068 12.3521 20.2059ZM12.213 20.1109C12.2062 20.1035 12.2006 20.095 12.1972 20.0837C12.2186 20.0809 12.2133 20.0965 12.213 20.1109ZM6.33597 9.70807L6.33566 9.70777C6.33597 9.70777 6.33628 9.70777 6.33659 9.70777C6.33628 9.70777 6.33628 9.70777 6.33597 9.70807ZM5.74786 13.9834C5.74755 13.9822 5.74755 13.9813 5.74724 13.9801C5.74817 13.981 5.74879 13.9819 5.74972 13.9828C5.7491 13.9828 5.74848 13.9834 5.74786 13.9834ZM6.58425 11.2904C6.58425 11.2916 6.58425 11.2932 6.58425 11.2944C6.58425 11.2932 6.58208 11.2907 6.58425 11.2904ZM7.32877 14.7123V14.7126C7.32846 14.7123 7.32846 14.7123 7.32877 14.7123ZM7.54291 16.2421C7.54229 16.2396 7.5426 16.2381 7.54571 16.2381C7.54477 16.2396 7.54384 16.2405 7.54291 16.2421ZM6.33659 13.5527C6.33752 13.5533 6.33783 13.5542 6.33876 13.5552C6.33783 13.5552 6.3369 13.5545 6.33628 13.5552C6.33659 13.5542 6.33659 13.5536 6.33659 13.5527ZM6.08831 12.79C6.088 12.7924 6.088 12.7948 6.0849 12.7933C6.08614 12.7921 6.08707 12.7909 6.08831 12.79ZM6.16869 13.7806C6.16869 13.7812 6.16869 13.7821 6.16869 13.7827C6.16838 13.7821 6.16776 13.7815 6.16745 13.7812C6.16776 13.7809 6.16807 13.7806 6.16869 13.7806ZM6.42938 13.9495C6.43032 13.9501 6.43063 13.9507 6.43156 13.9514C6.43032 13.951 6.42969 13.9514 6.42938 13.9523C6.42938 13.9514 6.42938 13.9504 6.42938 13.9495ZM6.18017 13.5481C6.18049 13.55 6.1808 13.5515 6.1808 13.553C6.178 13.5512 6.17552 13.55 6.17273 13.5484C6.17521 13.5481 6.17769 13.5481 6.18017 13.5481ZM6.74346 13.7103C6.74221 13.7085 6.74066 13.7073 6.73973 13.7055C6.74501 13.7055 6.75059 13.7055 6.75587 13.7055C6.75121 13.7061 6.74718 13.7079 6.74346 13.7103ZM6.64942 12.852C6.64849 12.8526 6.64787 12.8535 6.64694 12.8541C6.64632 12.8523 6.64787 12.8511 6.64942 12.852ZM7.34057 14.5272C7.34026 14.5266 7.34026 14.5259 7.33994 14.5253C7.34057 14.5262 7.34119 14.5272 7.3415 14.5281C7.3415 14.5278 7.34119 14.5275 7.34057 14.5272ZM7.11153 13.6444C7.11029 13.6428 7.10936 13.6416 7.10811 13.6401C7.10905 13.6398 7.10967 13.6392 7.1106 13.6389C7.11091 13.6407 7.11122 13.6425 7.11153 13.6444ZM6.79249 13.7116C6.78535 13.7097 6.77822 13.7079 6.77046 13.7055C6.77946 13.7058 6.78815 13.7055 6.79684 13.7045C6.79559 13.707 6.79404 13.7091 6.79249 13.7116ZM7.04977 16.1773C7.05008 16.1776 7.05039 16.1782 7.0507 16.1785C7.05039 16.1785 7.05008 16.1785 7.04977 16.1788C7.04977 16.1785 7.04977 16.1779 7.04977 16.1773ZM6.86356 15.9638C6.8648 15.9647 6.86573 15.9656 6.86666 15.9665C6.86542 15.9668 6.86449 15.9672 6.86325 15.9675C6.86356 15.9662 6.86356 15.965 6.86356 15.9638ZM7.04822 16.904C7.04853 16.9059 7.04915 16.908 7.04946 16.9098C7.04853 16.908 7.04729 16.9062 7.04636 16.9043C7.04698 16.9043 7.0476 16.9043 7.04822 16.904ZM7.2667 11.7147C7.2667 11.7068 7.2667 11.6988 7.2667 11.6912C7.27384 11.701 7.2816 11.7086 7.2667 11.7147ZM7.14225 12.0874C7.14194 12.0874 7.14194 12.0874 7.14225 12.0874C7.14194 12.0877 7.14225 12.0874 7.14225 12.0874C7.14225 12.0883 7.14194 12.0889 7.14163 12.0898C7.14132 12.0892 7.14101 12.0886 7.14039 12.088C7.14101 12.0877 7.14163 12.0877 7.14225 12.0874C7.14194 12.0874 7.14194 12.0874 7.14225 12.0874ZM6.33628 11.2641C6.33504 11.2623 6.33411 11.2602 6.33318 11.258C6.33442 11.2577 6.33597 11.2574 6.33721 11.2568C6.33659 11.2596 6.33659 11.262 6.33628 11.2641ZM6.05666 11.1716C6.05573 11.171 6.0551 11.1704 6.05417 11.1697C6.0551 11.1694 6.05573 11.1694 6.05666 11.1691C6.05666 11.1701 6.05666 11.1707 6.05666 11.1716ZM6.11779 11.5641C6.11779 11.5659 6.11779 11.5675 6.11748 11.5693C6.11624 11.5678 6.11531 11.5659 6.11407 11.5644C6.11562 11.5644 6.11686 11.5641 6.11779 11.5641ZM5.65413 12.3015C5.65445 12.3018 5.65445 12.3018 5.65413 12.3015C5.65413 12.3018 5.65413 12.3018 5.65413 12.3015C5.65413 12.3018 5.65413 12.3015 5.65413 12.3015ZM6.05821 10.8368C6.05821 10.8356 6.05821 10.8343 6.05821 10.8331C6.05883 10.8331 6.05945 10.8334 6.06038 10.8334C6.05976 10.8346 6.05883 10.8356 6.05821 10.8368ZM5.62341 11.203C5.6231 11.2024 5.6231 11.2021 5.6231 11.2015C5.62341 11.2015 5.62403 11.2015 5.62465 11.2015C5.62403 11.2021 5.62372 11.2024 5.62341 11.203ZM8.01092 17.0931L8.01061 17.0928H8.01092C8.01092 17.0928 8.01092 17.0928 8.01092 17.0931ZM7.63881 13.0948C7.6416 13.0951 7.64409 13.0951 7.64688 13.0951C7.64409 13.0985 7.64191 13.0976 7.63881 13.0948ZM5.93314 10.0737C5.9319 10.0731 5.93097 10.0725 5.92972 10.0719C5.93065 10.0713 5.93159 10.0704 5.93252 10.0694C5.93283 10.071 5.93314 10.0725 5.93314 10.0737ZM5.96417 10.5924C5.96386 10.5921 5.96355 10.5921 5.96324 10.5918C5.96355 10.5918 5.96386 10.5915 5.96386 10.5915C5.96417 10.5921 5.96417 10.5924 5.96417 10.5924ZM7.94792 14.0479C7.94823 14.0454 7.94854 14.0433 7.94885 14.0409C7.94947 14.0436 7.95009 14.0461 7.94792 14.0479ZM5.53031 10.1959C5.53031 10.1956 5.53031 10.1953 5.53031 10.195C5.53062 10.1953 5.53093 10.1953 5.53124 10.1956C5.53093 10.1956 5.53062 10.1956 5.53031 10.1959ZM8.10402 19.1581C8.10402 19.1615 8.10402 19.1648 8.10402 19.1682C8.10092 19.1651 8.09812 19.1618 8.09533 19.1584C8.09781 19.1584 8.10092 19.1584 8.10402 19.1581ZM6.33659 9.70746C6.33659 9.70593 6.33659 9.7041 6.33659 9.70257C6.33783 9.70288 6.33876 9.70349 6.34 9.70379C6.33876 9.70502 6.33783 9.70624 6.33659 9.70746ZM8.15709 19.251C8.15988 19.2537 8.16299 19.2568 8.16578 19.2595C8.16702 19.2607 8.16826 19.2623 8.1695 19.2635C8.16485 19.2638 8.16175 19.2555 8.15709 19.251ZM5.59517 9.20985C5.59424 9.2129 5.59362 9.21596 5.59238 9.21932C5.59207 9.21596 5.59113 9.2126 5.59082 9.20924C5.59207 9.20954 5.59362 9.20954 5.59517 9.20985ZM5.93314 8.18164C5.93221 8.18103 5.93128 8.18042 5.93034 8.17981C5.93128 8.1795 5.93221 8.17919 5.93314 8.17889C5.93314 8.17981 5.93314 8.18072 5.93314 8.18164ZM8.22785 20.0519C8.22785 20.0525 8.22785 20.0528 8.22785 20.0534C8.22754 20.0531 8.22723 20.0525 8.22692 20.0522C8.22754 20.0522 8.22754 20.0519 8.22785 20.0519ZM8.47613 19.8701C8.47799 19.8717 8.47923 19.8732 8.48109 19.8747C8.47923 19.8759 8.47737 19.8769 8.47551 19.8781C8.47551 19.8756 8.47551 19.8729 8.47613 19.8701ZM7.94854 11.5388C7.94823 11.5384 7.94823 11.5381 7.94792 11.5378C7.94823 11.5378 7.94823 11.5378 7.94854 11.5375C7.94854 11.5378 7.94854 11.5384 7.94854 11.5388ZM6.8946 10.0432C6.89429 10.0429 6.89398 10.0426 6.89398 10.0426C6.89429 10.0423 6.8946 10.0423 6.8946 10.0419C6.8946 10.0426 6.8946 10.0429 6.8946 10.0432ZM5.84003 15.38C5.84003 15.3813 5.84034 15.3828 5.84034 15.384C5.83941 15.3831 5.83879 15.3819 5.83786 15.381C5.83848 15.3806 5.8391 15.3803 5.84003 15.38ZM8.38302 14.744C8.38271 14.744 8.3824 14.744 8.38209 14.744C8.3824 14.7437 8.38271 14.7434 8.38302 14.7431C8.38302 14.7434 8.38302 14.7437 8.38302 14.744ZM16.9828 19.1779C16.9918 19.1749 17.0014 19.1718 17.0119 19.1694C17.0051 19.1773 16.9992 19.185 16.9933 19.1929C16.9905 19.1874 16.9871 19.1825 16.9828 19.1779ZM14.0227 7.64707C14.0376 7.64096 14.0354 7.65073 14.022 7.64859C14.0224 7.64829 14.0224 7.64768 14.0227 7.64707ZM9.96518 10.0389C9.9658 10.0389 9.96642 10.0386 9.96673 10.0386C9.9658 10.0398 9.96487 10.0413 9.96394 10.0426C9.96425 10.0413 9.96456 10.0401 9.96518 10.0389ZM16.7242 14.2868C16.7255 14.2874 16.7267 14.2883 16.728 14.2889C16.7264 14.2889 16.7252 14.2895 16.7236 14.2898C16.7239 14.2889 16.7239 14.2877 16.7242 14.2868ZM9.59214 15.9638C9.59214 15.9647 9.59214 15.9656 9.59214 15.9665C9.5909 15.9659 9.59183 15.9647 9.59214 15.9638ZM17.686 15.5364C17.6863 15.5364 17.6863 15.5367 17.6863 15.5367C17.686 15.5367 17.686 15.5371 17.6857 15.5371C17.686 15.5371 17.686 15.5367 17.686 15.5364ZM17.9948 17.4908C17.9948 17.4905 17.9945 17.4902 17.9945 17.4899C17.9951 17.4899 17.9954 17.4896 17.9961 17.4896C17.9954 17.4902 17.9951 17.4905 17.9948 17.4908ZM16.6007 14.4077C16.6023 14.4096 16.6041 14.4114 16.6057 14.4129C16.6048 14.4135 16.6038 14.4148 16.6026 14.4148C16.6029 14.4151 16.6004 14.4089 16.6007 14.4077ZM16.6941 8.94256C16.6839 8.94409 16.6768 8.94043 16.6771 8.93004C16.6827 8.93432 16.6886 8.93859 16.6941 8.94256ZM10.8484 8.66734C10.8475 8.6707 10.8472 8.67375 10.8463 8.6768C10.8447 8.67467 10.8432 8.67253 10.8416 8.6707C10.8441 8.66947 10.8463 8.66856 10.8484 8.66734ZM14.5211 18.7738C14.5211 18.7796 14.5198 18.7824 14.5136 18.783C14.5 18.7659 14.522 18.7601 14.5211 18.7738ZM16.2534 14.8339C16.2587 14.8439 16.25 14.8433 16.242 14.8464C16.2457 14.8418 16.2494 14.8378 16.2534 14.8339ZM15.2665 15.1717C15.2662 15.1714 15.2659 15.1711 15.2656 15.1705C15.2662 15.1705 15.2672 15.1705 15.2678 15.1705C15.2681 15.1714 15.2672 15.1729 15.2672 15.1738C15.2665 15.1732 15.2665 15.1723 15.2665 15.1717ZM15.4981 15.5199C15.4981 15.5184 15.4981 15.5169 15.4981 15.5154C15.499 15.5172 15.4999 15.519 15.5009 15.5212C15.5009 15.5212 15.4993 15.5206 15.4981 15.5199ZM14.9568 16.0249C14.9565 16.0264 14.9556 16.0276 14.9553 16.0292C14.9543 16.0279 14.9531 16.027 14.9522 16.0258C14.9537 16.0255 14.9553 16.0249 14.9568 16.0249ZM14.2793 15.6339C14.2796 15.6333 14.2799 15.633 14.2803 15.6324C14.2806 15.6327 14.2809 15.633 14.2809 15.6333C14.2803 15.6333 14.2796 15.6336 14.2793 15.6339ZM13.4032 15.5749C13.4032 15.5752 13.4032 15.5752 13.4035 15.5755C13.4032 15.5755 13.4029 15.5755 13.4026 15.5755C13.4026 15.5755 13.4029 15.5752 13.4032 15.5749ZM13.8985 15.2649C13.8982 15.2661 13.8982 15.2673 13.8979 15.2682C13.8973 15.2676 13.897 15.267 13.8964 15.2664C13.8973 15.2661 13.8979 15.2655 13.8985 15.2649ZM15.8233 16.9401C15.823 16.941 15.8224 16.9416 15.8218 16.9425C15.8214 16.9416 15.8211 16.9407 15.8208 16.9398C15.8218 16.9398 15.8227 16.9398 15.8233 16.9401ZM15.9856 17.3063C15.9856 17.306 15.9856 17.306 15.9856 17.3063C15.9856 17.306 15.9856 17.3063 15.9856 17.3063ZM15.0738 15.3577C15.0738 15.3565 15.0735 15.355 15.0732 15.3538C15.0757 15.3541 15.0782 15.3547 15.081 15.3544C15.0788 15.3556 15.0763 15.3565 15.0738 15.3577ZM14.9401 15.286C14.9456 15.2826 14.9512 15.2801 14.9562 15.2783C14.9512 15.2805 14.946 15.2829 14.9401 15.286ZM13.5838 15.0856C13.5832 15.085 13.5832 15.084 13.5826 15.0834C13.5832 15.0834 13.5835 15.0834 13.5841 15.0831C13.5841 15.084 13.5841 15.0846 13.5838 15.0856ZM15.1778 15.749C15.1778 15.749 15.1778 15.7494 15.1778 15.749C15.1775 15.7494 15.1775 15.749 15.1775 15.749H15.1778ZM15.2451 15.6614C15.2451 15.6592 15.2454 15.6574 15.2454 15.6553C15.2464 15.6571 15.2473 15.6586 15.2482 15.6605C15.2473 15.6608 15.2464 15.6611 15.2451 15.6614ZM14.8653 15.2594C14.8628 15.2609 14.8597 15.2603 14.8566 15.2603C14.8597 15.2588 14.8625 15.2551 14.8653 15.2594ZM15.5778 17.8232C15.5772 17.825 15.5766 17.8269 15.576 17.8287C15.5716 17.8253 15.567 17.8232 15.5617 17.822C15.5673 17.8223 15.5725 17.8229 15.5778 17.8232ZM15.2703 15.2035C15.2703 15.2047 15.27 15.2059 15.27 15.2068C15.2647 15.2038 15.261 15.1983 15.2703 15.2035ZM12.4458 17.4294C12.4455 17.4291 12.4455 17.4291 12.4452 17.4288C12.4455 17.4288 12.4458 17.4288 12.4461 17.4288C12.4458 17.4288 12.4458 17.4291 12.4458 17.4294ZM16.4592 17.9228C16.4586 17.9228 16.458 17.9222 16.4577 17.9225C16.4583 17.9215 16.4589 17.9206 16.4595 17.92C16.4595 17.9209 16.4592 17.9219 16.4592 17.9228ZM13.8706 13.3832C13.87 13.3835 13.8697 13.3838 13.869 13.3844C13.8684 13.381 13.8678 13.378 13.8666 13.3752C13.8706 13.3777 13.8753 13.3771 13.8706 13.3832ZM14.1192 13.4318C14.1192 13.4314 14.1192 13.4314 14.1192 13.4311C14.1201 13.4311 14.1201 13.4311 14.1192 13.4318ZM14.0577 19.0157C14.0568 19.0164 14.0559 19.017 14.0549 19.0176C14.0546 19.017 14.0546 19.0164 14.0543 19.0157C14.0553 19.0157 14.0565 19.0157 14.0577 19.0157ZM16.2466 15.0034C16.2451 15.0046 16.2429 15.004 16.2413 15.0043C16.2426 15.0025 16.2448 15.0031 16.2466 15.0034ZM15.2634 13.6352C15.2631 13.6352 15.2631 13.6349 15.2628 13.6349L15.2631 13.6346C15.2634 13.6349 15.2634 13.6352 15.2634 13.6352ZM12.6928 11.6267C12.6903 11.6261 12.6879 11.6252 12.6854 11.6243C12.6888 11.6215 12.6907 11.6237 12.6928 11.6267ZM13.1897 18.1916C13.1878 18.1913 13.1835 18.1916 13.1838 18.1898C13.1857 18.1904 13.1875 18.191 13.1897 18.1916ZM11.0744 8.73881C11.0765 8.73637 11.0784 8.73393 11.0809 8.73118C11.0796 8.73637 11.0812 8.74187 11.0744 8.73881ZM10.206 11.3301C10.2045 11.3274 10.2032 11.3249 10.2017 11.3222C10.2035 11.3216 10.2048 11.3206 10.2066 11.32C10.2063 11.3234 10.206 11.3265 10.206 11.3301ZM14.6142 11.934C14.6142 11.9359 14.6154 11.9386 14.6142 11.9398C14.6139 11.9377 14.6136 11.9359 14.6136 11.9337C14.6133 11.9337 14.6139 11.934 14.6142 11.934ZM14.5804 18.5276C14.5807 18.5288 14.5807 18.53 14.581 18.5313C14.5797 18.531 14.5785 18.5307 14.5773 18.5303C14.5782 18.5294 14.5791 18.5285 14.5804 18.5276ZM14.7061 17.6989C14.7064 17.7022 14.7064 17.7053 14.7067 17.7086C14.7054 17.7083 14.7039 17.708 14.7026 17.708C14.7036 17.705 14.7048 17.7019 14.7061 17.6989ZM16.5712 18.4045C16.5709 18.4042 16.5706 18.4039 16.5703 18.4036C16.5706 18.4033 16.5709 18.4033 16.5716 18.4033C16.5716 18.4036 16.5712 18.4042 16.5712 18.4045ZM16.6575 9.07025C16.6581 9.07025 16.6585 9.07025 16.6591 9.07025C16.6591 9.07056 16.6591 9.07056 16.6591 9.07086C16.6588 9.07056 16.6581 9.07025 16.6575 9.07025ZM10.2436 16.5436C10.2429 16.5433 10.2426 16.5427 10.242 16.5424C10.2426 16.5417 10.2436 16.5411 10.2442 16.5402C10.2442 16.5414 10.2439 16.5424 10.2436 16.5436ZM9.77835 17.1234C9.77897 17.1237 9.77959 17.1243 9.78052 17.1246C9.7799 17.1246 9.77897 17.1249 9.77835 17.1252C9.77835 17.1246 9.77835 17.124 9.77835 17.1234ZM17.1913 15.5028C17.1913 15.5028 17.1913 15.5025 17.1913 15.5028C17.1913 15.5025 17.1913 15.5025 17.1913 15.5028ZM11.2978 7.29639C11.2972 7.29577 11.2969 7.29516 11.2963 7.29455C11.2969 7.29425 11.2975 7.29394 11.2981 7.29364C11.2978 7.29455 11.2978 7.29547 11.2978 7.29639ZM10.0887 16.2079C10.0871 16.2073 10.0881 16.2066 10.0887 16.2057C10.0887 16.2066 10.0887 16.2073 10.0887 16.2079ZM17.1261 14.4673C17.1261 14.4636 17.1261 14.46 17.1261 14.456C17.1283 14.4575 17.1302 14.459 17.1324 14.4606C17.1305 14.4627 17.1286 14.4652 17.1261 14.4673ZM16.3214 14.3463C16.322 14.3451 16.323 14.3442 16.3236 14.3433C16.3236 14.3448 16.3233 14.3463 16.3214 14.3463ZM9.53162 16.5155C9.53069 16.5149 9.53007 16.5142 9.53038 16.5133C9.53069 16.5139 9.531 16.5146 9.53162 16.5155ZM16.5979 18.5187C16.5979 18.5187 16.5982 18.5197 16.5986 18.5206C16.5979 18.5203 16.5973 18.5203 16.5967 18.52C16.5973 18.5197 16.5976 18.519 16.5979 18.5187ZM17.8893 10.4571C17.8853 10.458 17.8815 10.4592 17.8781 10.4607C17.8815 10.4522 17.8859 10.4436 17.8912 10.4354C17.8905 10.4424 17.8902 10.4498 17.8893 10.4571ZM16.8481 8.55889C16.8453 8.55828 16.8425 8.55737 16.8394 8.55676C16.8422 8.55126 16.845 8.54576 16.8481 8.53995C16.8478 8.54667 16.8481 8.55278 16.8481 8.55889ZM10.5849 8.21341C10.5849 8.21249 10.5849 8.21127 10.5849 8.21035C10.5859 8.21066 10.5865 8.21096 10.5874 8.21127C10.5865 8.21188 10.5859 8.2128 10.5849 8.21341ZM9.87207 16.1547C9.86742 16.1529 9.86897 16.1504 9.87114 16.1471C9.87176 16.1495 9.87176 16.152 9.87207 16.1547ZM16.1644 19.141C16.1622 19.1395 16.1597 19.1379 16.1576 19.1367C16.1594 19.1358 16.1616 19.1346 16.1638 19.134C16.1634 19.134 16.1644 19.141 16.1644 19.141ZM16.8509 6.96312C16.8484 6.96403 16.8484 6.96251 16.8487 6.96067C16.8493 6.96159 16.8499 6.96251 16.8509 6.96312ZM16.8484 7.08286C16.849 7.08317 16.8496 7.08378 16.8502 7.08408C16.8496 7.0847 16.849 7.08531 16.8481 7.08592C16.8484 7.085 16.8484 7.08378 16.8484 7.08286C16.8487 7.08286 16.8484 7.08286 16.8484 7.08286ZM16.6675 5.87045C16.6665 5.86679 16.6659 5.86282 16.6653 5.85884C16.6727 5.86037 16.6693 5.86495 16.6675 5.87045ZM16.6252 6.00547C16.6259 6.0073 16.6262 6.00914 16.6265 6.01066C16.6249 6.01066 16.6234 6.01066 16.6221 6.01036C16.6231 6.00883 16.6243 6.007 16.6252 6.00547ZM14.6623 19.7308C14.6592 19.7421 14.6611 19.7519 14.6468 19.748C14.6524 19.7418 14.657 19.7367 14.6623 19.7308ZM17.4647 14.1304C17.4672 14.1304 17.4691 14.1307 17.4682 14.1337C17.4669 14.1328 17.466 14.1313 17.4647 14.1304ZM16.5973 6.07573C16.5976 6.08031 16.5976 6.0852 16.5979 6.08978C16.5958 6.08917 16.5933 6.08886 16.5914 6.08795C16.5936 6.08398 16.5955 6.0797 16.5973 6.07573ZM14.4525 8.39638C14.4541 8.39424 14.455 8.39241 14.4565 8.39027C14.4572 8.3915 14.4581 8.39241 14.459 8.39363C14.4568 8.39455 14.4547 8.39516 14.4525 8.39638ZM13.7468 6.98878C13.7461 6.98817 13.7452 6.98756 13.7446 6.98694C13.7458 6.98664 13.7471 6.98633 13.7483 6.98603C13.7477 6.98694 13.7471 6.98786 13.7468 6.98878ZM9.49935 11.7828C9.49935 11.7816 9.49966 11.7804 9.49966 11.7792C9.50152 11.7804 9.50028 11.7816 9.49935 11.7828ZM9.49935 11.7828L9.49997 11.7831C9.49966 11.7834 9.49966 11.7834 9.49935 11.7837C9.49935 11.7834 9.49935 11.7831 9.49935 11.7828ZM17.3446 19.0463C17.3446 19.0469 17.3446 19.0472 17.3446 19.0478C17.3434 19.0475 17.3443 19.0469 17.3446 19.0463ZM18.0563 18.2799C18.0566 18.282 18.0569 18.2844 18.0569 18.2869C18.0553 18.286 18.0538 18.2851 18.0522 18.2841C18.0535 18.2829 18.0547 18.2814 18.0563 18.2799ZM18.1199 18.3443C18.1199 18.3449 18.1196 18.3452 18.1196 18.3458C18.1193 18.3455 18.1189 18.3452 18.1186 18.3449C18.1189 18.3446 18.1193 18.3443 18.1199 18.3443ZM11.3903 6.16095C11.3906 6.16309 11.3909 6.16523 11.3909 6.16737C11.3891 6.16492 11.3872 6.16279 11.3903 6.16095ZM9.68586 8.17553C9.68586 8.17767 9.68586 8.1795 9.68555 8.18164C9.68276 8.17828 9.68059 8.17431 9.67811 8.17064C9.68059 8.17217 9.68307 8.174 9.68586 8.17553ZM10.2904 13.6422C10.2898 13.6425 10.2892 13.6428 10.2886 13.6431C10.2889 13.6413 10.2895 13.6392 10.2898 13.6373C10.2901 13.6392 10.2904 13.6404 10.2904 13.6422ZM8.35199 13.7665C8.35199 13.7656 8.35199 13.765 8.35199 13.7641C8.35292 13.7644 8.35354 13.7647 8.35447 13.765C8.35354 13.7653 8.35292 13.7659 8.35199 13.7665ZM5.03344 12.1735C5.03375 12.1757 5.03375 12.1775 5.03406 12.1796C5.03282 12.1781 5.0322 12.1763 5.03096 12.1747C5.03189 12.1741 5.03251 12.1741 5.03344 12.1735ZM11.2503 19.6539C11.2506 19.6539 11.2506 19.6539 11.2509 19.6539L11.2506 19.6542C11.2506 19.6542 11.2503 19.6542 11.2503 19.6539ZM17.9961 19.1987C17.997 19.1957 17.9948 19.1896 17.9995 19.1905C17.9982 19.1932 17.997 19.196 17.9961 19.1987ZM16.7903 4.83766C16.7903 4.83552 16.79 4.83338 16.7897 4.83155C16.7913 4.83246 16.7931 4.83277 16.795 4.83338C16.7935 4.83491 16.7922 4.83613 16.7903 4.83766ZM9.62131 7.9895C9.61293 7.97239 9.61604 7.95926 9.63155 7.94582C9.62752 7.96139 9.62411 7.97575 9.62131 7.9895ZM9.58748 8.12665C9.58748 8.12757 9.58748 8.12849 9.58748 8.1294C9.58655 8.12879 9.58562 8.12788 9.58469 8.12696C9.58562 8.12696 9.58655 8.12696 9.58748 8.12665ZM7.49108 19.6884C7.48674 19.6878 7.48239 19.6878 7.48488 19.6823C7.48674 19.6841 7.48891 19.6862 7.49108 19.6884ZM17.8949 18.454C17.8977 18.4482 17.9005 18.4424 17.9033 18.4369C17.9085 18.4405 17.9119 18.4448 17.9147 18.4494C17.9076 18.4506 17.9011 18.4521 17.8949 18.454ZM13.1453 6.66865C13.1397 6.66742 13.1341 6.66559 13.1295 6.66192C13.1348 6.66406 13.14 6.66651 13.1453 6.66865ZM10.408 5.2812C10.4062 5.28334 10.4046 5.28517 10.4028 5.28731C10.4015 5.28242 10.4028 5.28028 10.408 5.2812ZM4.97789 8.13918C4.97882 8.14132 4.97975 8.14345 4.98068 8.14559C4.9782 8.1459 4.97602 8.14651 4.97416 8.14743C4.9754 8.14468 4.97665 8.14193 4.97789 8.13918ZM4.96485 10.7711C4.94747 10.7607 4.94716 10.7546 4.95337 10.7375C4.95554 10.7488 4.95927 10.7601 4.96485 10.7711ZM4.91209 13.3645C4.91271 13.3639 4.91302 13.3633 4.91364 13.3627C4.91396 13.363 4.91396 13.3633 4.91427 13.3636C4.91364 13.3639 4.91302 13.3642 4.91209 13.3645ZM4.95461 14.1948C4.95461 14.1954 4.95492 14.1957 4.95492 14.1963C4.95182 14.1957 4.94902 14.1951 4.94592 14.1936C4.94902 14.1942 4.95182 14.1945 4.95461 14.1948Z" fill="url(#paint1_linear_58_20250)"/>
</g>
<defs>
<linearGradient id="paint0_linear_58_20250" x1="3.22759" y1="23.6257" x2="25.4898" y2="6.61939" gradientUnits="userSpaceOnUse">
<stop stop-color="#EAEAEA"/>
<stop offset="1" stop-color="white"/>
</linearGradient>
<linearGradient id="paint1_linear_58_20250" x1="12.0431" y1="4.67041" x2="12.0431" y2="20.8437" gradientUnits="userSpaceOnUse">
<stop stop-color="#E30713"/>
<stop offset="1" stop-color="#F84631"/>
</linearGradient>
<clipPath id="clip0_58_20250">
<rect width="14.8256" height="16.1734" fill="white" transform="translate(4.63025 4.67041)"/>
</clipPath>
</defs>
</svg>
