<svg width="25" height="25" viewBox="0 0 25 25" fill="none" xmlns="http://www.w3.org/2000/svg">
<g clip-path="url(#clip0_72_2691)">
<path d="M20.4053 4.9493C18.9076 4.2621 17.3016 3.7558 15.6223 3.46582C15.5918 3.46022 15.5612 3.47421 15.5455 3.50218C15.3389 3.86955 15.1101 4.34881 14.9499 4.7255C13.1438 4.45511 11.347 4.45511 9.57788 4.7255C9.41763 4.34043 9.18053 3.86955 8.97305 3.50218C8.9573 3.47514 8.92675 3.46115 8.89617 3.46582C7.21788 3.75487 5.61183 4.26117 4.11322 4.9493C4.10025 4.95489 4.08913 4.96422 4.08175 4.97634C1.03542 9.52748 0.200904 13.9668 0.610289 18.351C0.612142 18.3725 0.624182 18.393 0.640855 18.406C2.65073 19.882 4.59764 20.7781 6.5084 21.372C6.53898 21.3814 6.57138 21.3702 6.59084 21.345C7.04283 20.7278 7.44574 20.0769 7.7912 19.3925C7.81158 19.3524 7.79212 19.3049 7.75046 19.289C7.11138 19.0466 6.50284 18.751 5.91748 18.4153C5.87117 18.3883 5.86747 18.3221 5.91006 18.2904C6.03324 18.1981 6.15646 18.102 6.27408 18.0051C6.29536 17.9874 6.32502 17.9836 6.35004 17.9948C10.1956 19.7506 14.359 19.7506 18.1592 17.9948C18.1842 17.9827 18.2139 17.9864 18.2361 18.0041C18.3537 18.1011 18.4769 18.1981 18.601 18.2904C18.6436 18.3221 18.6409 18.3883 18.5946 18.4153C18.0092 18.7575 17.4006 19.0466 16.7606 19.2881C16.719 19.3039 16.7004 19.3524 16.7208 19.3925C17.0737 20.076 17.4766 20.7268 17.9203 21.3441C17.9388 21.3702 17.9721 21.3814 18.0027 21.372C19.9227 20.7781 21.8696 19.882 23.8795 18.406C23.8971 18.393 23.9082 18.3734 23.9101 18.3519C24.4 13.2833 23.0894 8.88039 20.4358 4.97726C20.4294 4.96422 20.4183 4.95489 20.4053 4.9493ZM8.36548 15.6815C7.20768 15.6815 6.2537 14.6185 6.2537 13.3131C6.2537 12.0077 7.18918 10.9448 8.36548 10.9448C9.551 10.9448 10.4958 12.0171 10.4772 13.3131C10.4772 14.6185 9.54174 15.6815 8.36548 15.6815ZM16.1734 15.6815C15.0157 15.6815 14.0617 14.6185 14.0617 13.3131C14.0617 12.0077 14.9971 10.9448 16.1734 10.9448C17.359 10.9448 18.3037 12.0171 18.2852 13.3131C18.2852 14.6185 17.359 15.6815 16.1734 15.6815Z" fill="white"/>
</g>
<defs>
<clipPath id="clip0_72_2691">
<rect width="23.4981" height="23.4981" fill="white" transform="translate(0.513184 0.880615)"/>
</clipPath>
</defs>
</svg>
