<svg width="30" height="30" viewBox="0 0 30 30" fill="none" xmlns="http://www.w3.org/2000/svg">
<circle cx="14.9999" cy="14.9999" r="14.7778" fill="white"/>
<path d="M14.9991 5.5L14.8684 5.93299V18.4962L14.9991 18.6234L20.978 15.1763L14.9991 5.5Z" fill="#219EE1"/>
<path d="M14.9976 5.5L9.01855 15.1763L14.9976 18.6234V12.5255V5.5Z" fill="#32B1F7"/>
<path d="M14.999 19.7275L14.9253 19.8152V24.2904L14.999 24.5001L20.9815 16.2822L14.999 19.7275Z" fill="#1D91D0"/>
<path d="M14.9976 24.5001V19.7275L9.01855 16.2822L14.9976 24.5001Z" fill="#21A1E7"/>
<path d="M14.9966 18.6232L20.9754 15.1761L14.9966 12.5254V18.6232Z" fill="#1D91D0"/>
<path d="M9.01855 15.1761L14.9976 18.6232V12.5254L9.01855 15.1761Z" fill="#21A1E7"/>
<rect x="13.241" y="9.37012" width="1.05556" height="1.05556" fill="white"/>
<rect x="13.241" y="11.1296" width="1.05556" height="1.05556" fill="white"/>
</svg>
