<svg width="24" height="24" viewBox="0 0 24 24" fill="none" xmlns="http://www.w3.org/2000/svg">
<circle cx="12" cy="12" r="12" fill="white"/>
<g clip-path="url(#clip0_40_69067)">
<path d="M12.0011 6.99609C8.66773 6.99609 5.82106 9.06943 4.66772 11.9961C5.82106 14.9228 8.66773 16.9961 12.0011 16.9961C15.3344 16.9961 18.1811 14.9228 19.3344 11.9961C18.1811 9.06943 15.3377 6.99609 12.0011 6.99609ZM12.0011 15.3294C10.1611 15.3294 8.66773 13.8361 8.66773 11.9961C8.66773 10.1561 10.1611 8.66276 12.0011 8.66276C13.8411 8.66276 15.3344 10.1561 15.3344 11.9961C15.3344 13.8361 13.8411 15.3294 12.0011 15.3294ZM12.0011 9.99609C10.8977 9.99609 10.0011 10.8928 10.0011 11.9961C10.0011 13.0994 10.8977 13.9961 12.0011 13.9961C13.1044 13.9961 14.0011 13.0994 14.0011 11.9961C14.0011 10.8928 13.1044 9.99609 12.0011 9.99609Z" fill="#FF0000"/>
</g>
<defs>
<clipPath id="clip0_40_69067">
<rect width="16" height="16" fill="white" transform="translate(4.00098 3.99609)"/>
</clipPath>
</defs>
</svg>
