<svg width="26" height="26" viewBox="0 0 26 26" fill="none" xmlns="http://www.w3.org/2000/svg">
<g clip-path="url(#clip0_72_2677)">
<path d="M13.3786 0.189941C6.50531 0.189941 0.938477 5.84143 0.938477 12.8193C0.938477 18.7545 4.95003 23.6805 10.3623 25.0692C10.2998 24.9112 10.2691 24.6898 10.2691 24.4694V22.3219H8.71384C7.87426 22.3219 7.09609 21.9436 6.75412 21.2481C6.34968 20.4904 6.28721 19.322 5.2613 18.5954C4.95003 18.3428 5.19883 18.0903 5.5408 18.1214C6.19405 18.3106 6.72235 18.7534 7.21996 19.4155C7.71757 20.0787 7.93567 20.2367 8.86841 20.2367C9.30355 20.2367 9.9875 20.2055 10.61 20.1099C10.952 19.2253 11.5428 18.4364 12.2585 18.058C8.0913 17.5528 6.10088 15.4687 6.10088 12.6269C6.10088 11.3951 6.62919 10.2268 7.50053 9.21642C7.22102 8.23724 6.84728 6.21655 7.62546 5.42762C9.49201 5.42762 10.6111 6.65938 10.8906 6.97431C11.8233 6.65831 12.8503 6.46913 13.9069 6.46913C14.9953 6.46913 15.9905 6.65831 16.9233 6.97431C17.2028 6.65831 18.3229 5.42762 20.1884 5.42762C20.9348 6.18538 20.5929 8.23724 20.2816 9.21642C21.1529 10.1956 21.6505 11.3951 21.6505 12.6269C21.6505 15.4687 19.6908 17.5528 15.5554 17.9946C16.7062 18.5944 17.5151 20.2991 17.5151 21.562V24.4382C17.5151 24.5328 17.4844 24.6274 17.4844 24.722C22.3355 23.0173 25.8188 18.345 25.8188 12.8193C25.8188 5.84143 20.2519 0.189941 13.3786 0.189941Z" fill="white"/>
</g>
<defs>
<clipPath id="clip0_72_2677">
<rect width="24.8803" height="24.8803" fill="white" transform="translate(0.938477 0.189941)"/>
</clipPath>
</defs>
</svg>
