<svg width="24" height="25" viewBox="0 0 24 25" fill="none" xmlns="http://www.w3.org/2000/svg">
<g clip-path="url(#clip0_72_2664)">
<path fill-rule="evenodd" clip-rule="evenodd" d="M23.8921 12.4522C23.8921 18.941 18.6319 24.2012 12.1431 24.2012C5.65427 24.2012 0.394043 18.941 0.394043 12.4522C0.394043 5.96335 5.65427 0.703125 12.1431 0.703125C18.6319 0.703125 23.8921 5.96335 23.8921 12.4522ZM12.5641 9.37678C11.4213 9.8521 9.13742 10.8359 5.71233 12.3281C5.15615 12.5493 4.8648 12.7657 4.83828 12.9772C4.79346 13.3348 5.24122 13.4756 5.85095 13.6673C5.93389 13.6934 6.01983 13.7204 6.10793 13.7491C6.70781 13.9441 7.51477 14.1722 7.93427 14.1813C8.3148 14.1895 8.73951 14.0326 9.2084 13.7106C12.4086 11.5504 14.0605 10.4586 14.1642 10.435C14.2374 10.4184 14.3388 10.3975 14.4075 10.4586C14.4762 10.5197 14.4694 10.6353 14.4621 10.6663C14.4178 10.8554 12.6601 12.4895 11.7506 13.3351C11.467 13.5987 11.2659 13.7857 11.2248 13.8284C11.1327 13.9241 11.0388 14.0146 10.9486 14.1015C10.3913 14.6388 9.97334 15.0417 10.9717 15.6996C11.4515 16.0157 11.8354 16.2772 12.2184 16.538C12.6367 16.8229 13.0539 17.107 13.5937 17.4608C13.7312 17.551 13.8626 17.6446 13.9905 17.7358C14.4773 18.0829 14.9146 18.3946 15.4549 18.3449C15.7689 18.316 16.0932 18.0208 16.2579 17.1404C16.6471 15.0596 17.4122 10.5512 17.589 8.69342C17.6045 8.53066 17.585 8.32235 17.5693 8.2309C17.5537 8.13946 17.521 8.00917 17.4021 7.91272C17.2613 7.7985 17.044 7.77441 16.9468 7.77613C16.5049 7.78391 15.8269 8.01966 12.5641 9.37678Z" fill="white"/>
</g>
<defs>
<clipPath id="clip0_72_2664">
<rect width="23.4981" height="23.4981" fill="white" transform="translate(0.394043 0.703125)"/>
</clipPath>
</defs>
</svg>
