<svg width="14" height="14" viewBox="0 0 14 14" fill="none" xmlns="http://www.w3.org/2000/svg">
<path d="M13.1363 11.0909V11.7727C13.1363 12.5261 12.526 13.1364 11.7726 13.1364H2.22716C1.47375 13.1364 0.863525 12.5261 0.863525 11.7727V2.22728C0.863525 1.47387 1.47375 0.863647 2.22716 0.863647H11.7726C12.526 0.863647 13.1363 1.47387 13.1363 2.22728V2.9091H6.99989C6.24648 2.9091 5.63625 3.51933 5.63625 4.27274V9.72728C5.63625 10.4807 6.24648 11.0909 6.99989 11.0909H13.1363ZM6.99989 9.72728H13.8181V4.27274H6.99989V9.72728ZM9.72716 8.02274C9.16125 8.02274 8.70443 7.56592 8.70443 7.00001C8.70443 6.4341 9.16125 5.97728 9.72716 5.97728C10.2931 5.97728 10.7499 6.4341 10.7499 7.00001C10.7499 7.56592 10.2931 8.02274 9.72716 8.02274Z" fill="#ED636C"/>
</svg>
