<svg width="25" height="24" viewBox="0 0 25 24" fill="none" xmlns="http://www.w3.org/2000/svg">
<path d="M21.0312 5L19.0312 12H7.40796M20.0312 16H8.03125L6.03125 3H3.03125M11.0312 6L13.0312 8L17.0312 4M9.03125 20C9.03125 20.5523 8.58353 21 8.03125 21C7.47897 21 7.03125 20.5523 7.03125 20C7.03125 19.4477 7.47897 19 8.03125 19C8.58353 19 9.03125 19.4477 9.03125 20ZM20.0312 20C20.0312 20.5523 19.5835 21 19.0312 21C18.479 21 18.0312 20.5523 18.0312 20C18.0312 19.4477 18.479 19 19.0312 19C19.5835 19 20.0312 19.4477 20.0312 20Z" stroke="#EEEDFF" stroke-linecap="round" stroke-linejoin="round"/>
</svg>
