<svg width="24" height="24" viewBox="0 0 24 24" fill="none" xmlns="http://www.w3.org/2000/svg">
<path d="M10 16.0005V11.0005H7V16.0005H10ZM10 16.0005H13V8.00049H10V16.0005ZM11 20.0005H7.2C6.0799 20.0005 5.51984 20.0005 5.09202 19.7825C4.71569 19.5908 4.40973 19.2848 4.21799 18.9085C4 18.4806 4 17.9206 4 16.8005V7.20049C4 6.08038 4 5.52033 4.21799 5.09251C4.40973 4.71618 4.71569 4.41022 5.09202 4.21848C5.51984 4.00049 6.0799 4.00049 7.2 4.00049H16.8C17.9201 4.00049 18.4802 4.00049 18.908 4.21848C19.2843 4.41022 19.5903 4.71618 19.782 5.09251C20 5.52033 20 6.08038 20 7.20049V9.10049M19 13.5005C19 14.3289 18.3284 15.0005 17.5 15.0005C16.6716 15.0005 16 14.3289 16 13.5005C16 12.6721 16.6716 12.0005 17.5 12.0005C18.3284 12.0005 19 12.6721 19 13.5005ZM18.5585 18.0005H16.4415C15.5807 18.0005 14.8164 18.5513 14.5442 19.368L14 21.0005H21L20.4558 19.368C20.1836 18.5513 19.4193 18.0005 18.5585 18.0005Z" stroke="#B8B8E0" stroke-width="2" stroke-linecap="round" stroke-linejoin="round"/>
</svg>
