<svg width="32" height="32" viewBox="0 0 32 32" fill="none" xmlns="http://www.w3.org/2000/svg">
<g id="Group 1261155764">
<path id="Vector" d="M16 0C24.8375 0 32 7.1625 32 16C32 24.8375 24.8375 32 16 32C7.1625 32 0 24.8375 0 16C0 7.1625 7.1625 0 16 0Z" fill="#0052FF"/>
<path id="Vector_2" d="M16.0031 21.625C12.8969 21.625 10.3781 19.1094 10.3781 16C10.3781 12.8906 12.8969 10.375 16.0031 10.375C18.7875 10.375 21.1 12.4062 21.5438 15.0625H27.2094C26.7313 9.2875 21.8969 4.75 16 4.75C9.7875 4.75 4.75 9.7875 4.75 16C4.75 22.2125 9.7875 27.25 16 27.25C21.8969 27.25 26.7313 22.7125 27.2094 16.9375H21.5406C21.0938 19.5938 18.7875 21.625 16.0031 21.625Z" fill="white"/>
</g>
</svg>
