<svg width="32" height="32" viewBox="0 0 32 32" fill="none" xmlns="http://www.w3.org/2000/svg">
<mask id="mask0_1168_7820" style="mask-type:alpha" maskUnits="userSpaceOnUse" x="0" y="0" width="32" height="32">
<circle cx="16" cy="16" r="16" fill="#D9D9D9"/>
</mask>
<g mask="url(#mask0_1168_7820)">
<path d="M26.1574 0H5.84264C2.61584 0 0 2.61584 0 5.84264V26.1574C0 29.3842 2.61584 32 5.84264 32H26.1574C29.3842 32 32 29.3842 32 26.1574V5.84264C32 2.61584 29.3842 0 26.1574 0Z" fill="url(#paint0_linear_1168_7820)"/>
<path d="M10.4201 7.45557C9.36619 7.45644 8.33614 7.76971 7.46017 8.3558C6.5842 8.94189 5.90162 9.77448 5.49869 10.7484C5.09576 11.7223 4.99057 12.7937 5.1964 13.8274C5.40222 14.8611 5.90984 15.8105 6.6551 16.5558C7.40036 17.301 8.34981 17.8087 9.38347 18.0145C10.4171 18.2203 11.4886 18.1151 12.4625 17.7122C13.4364 17.3093 14.269 16.6267 14.8551 15.7507C15.4412 14.8747 15.7544 13.8447 15.7553 12.7907C15.7545 11.376 15.1922 10.0194 14.1918 9.01906C13.1914 8.01869 11.8349 7.45635 10.4201 7.45557ZM10.4201 15.9334C9.79799 15.9334 9.18981 15.7489 8.67252 15.4032C8.15522 15.0575 7.75205 14.5663 7.51398 13.9914C7.27592 13.4166 7.21365 12.7842 7.33507 12.174C7.45648 11.5638 7.75611 11.0033 8.19607 10.5634C8.63603 10.1235 9.19656 9.82396 9.80677 9.70264C10.417 9.58132 11.0495 9.64369 11.6242 9.88184C12.199 10.12 12.6902 10.5232 13.0358 11.0406C13.3814 11.5579 13.5658 12.1661 13.5657 12.7883C13.5629 13.6216 13.2305 14.42 12.6412 15.0092C12.0519 15.5985 11.2535 15.9307 10.4201 15.9334ZM26.1352 12.016C26.1369 12.779 25.9441 13.5297 25.5749 14.1974C25.0054 13.7338 24.3571 13.3765 23.6611 13.1425C23.8467 12.796 23.9444 12.4092 23.9456 12.016C23.9456 11.3866 23.6956 10.7829 23.2505 10.3379C22.8054 9.89279 22.2018 9.64275 21.5723 9.64275C20.9429 9.64275 20.3392 9.89279 19.8942 10.3379C19.4491 10.7829 19.199 11.3866 19.199 12.016C19.196 12.4097 19.294 12.7975 19.4836 13.1425C18.7874 13.3766 18.139 13.7339 17.5693 14.1974C17.1893 13.503 16.9968 12.7217 17.0108 11.9303C17.0247 11.139 17.2447 10.3649 17.6489 9.68443C18.0531 9.00394 18.6276 8.44051 19.3158 8.04967C20.0041 7.65884 20.7823 7.45408 21.5738 7.45557C22.783 7.45686 23.9423 7.93772 24.7974 8.79267C25.6526 9.64761 26.1337 10.8068 26.1352 12.016ZM21.5738 13.8617C20.5195 13.8608 19.4886 14.1726 18.6115 14.7576C17.7344 15.3425 17.0505 16.1745 16.6462 17.1482C16.2419 18.1218 16.1354 19.1936 16.3401 20.2278C16.5449 21.262 17.0517 22.2122 17.7965 22.9584C18.5414 23.7046 19.4907 24.2132 20.5245 24.4198C21.5584 24.6265 22.6303 24.5219 23.6047 24.1194C24.5791 23.7169 25.4123 23.0344 25.9989 22.1584C26.5855 21.2824 26.8991 20.2521 26.9002 19.1978C26.8988 17.7847 26.3375 16.4297 25.3391 15.4296C24.3408 14.4295 22.9869 13.8657 21.5738 13.8617ZM21.5738 22.3336C20.9525 22.3328 20.3453 22.1478 19.8292 21.802C19.313 21.4561 18.911 20.9649 18.674 20.3906C18.437 19.8162 18.3757 19.1845 18.4978 18.5753C18.6198 17.9661 18.9198 17.4067 19.3598 16.968C19.7998 16.5293 20.36 16.231 20.9696 16.1107C21.5792 15.9904 22.2107 16.0536 22.7844 16.2923C23.358 16.531 23.848 16.9344 24.1924 17.4516C24.5367 17.9688 24.7199 18.5765 24.7189 19.1978C24.7164 20.0303 24.384 20.8279 23.7944 21.4157C23.2049 22.0035 22.4063 22.3336 21.5738 22.3336ZM14.9816 19.9618C14.9816 21.1719 14.5008 22.3325 13.6451 23.1882C12.7894 24.0439 11.6288 24.5247 10.4187 24.5247C9.20852 24.5247 8.04793 24.0439 7.19222 23.1882C6.33651 22.3325 5.85578 21.1719 5.85578 19.9618H8.04539C8.04539 20.5912 8.29543 21.1949 8.74051 21.6399C9.18559 22.085 9.78924 22.3351 10.4187 22.3351C11.0481 22.3351 11.6518 22.085 12.0969 21.6399C12.5419 21.1949 12.792 20.5912 12.792 19.9618H14.9816Z" fill="#252525"/>
</g>
<defs>
<linearGradient id="paint0_linear_1168_7820" x1="30.3684" y1="1.63161" x2="2.07377" y2="29.9262" gradientUnits="userSpaceOnUse">
<stop stop-color="#F1D961"/>
<stop offset="1" stop-color="#CDA146"/>
</linearGradient>
</defs>
</svg>
