<svg width="36" height="36" viewBox="0 0 36 36" fill="none" xmlns="http://www.w3.org/2000/svg">
<g id="Group 1261155765">
<path id="Vector" d="M28.8309 0.933105H7.16184C3.71992 0.933105 0.929688 3.72333 0.929688 7.16526V28.8343C0.929688 32.2762 3.71992 35.0664 7.16184 35.0664H28.8309C32.2728 35.0664 35.063 32.2762 35.063 28.8343V7.16526C35.063 3.72333 32.2728 0.933105 28.8309 0.933105Z" fill="url(#paint0_linear_1166_6726)"/>
<path id="Vector_2" d="M12.4201 9.45557C11.3662 9.45644 10.3361 9.76971 9.46017 10.3558C8.5842 10.9419 7.90162 11.7745 7.49869 12.7484C7.09576 13.7223 6.99057 14.7937 7.1964 15.8274C7.40222 16.8611 7.90984 17.8105 8.6551 18.5558C9.40036 19.301 10.3498 19.8087 11.3835 20.0145C12.4171 20.2203 13.4886 20.1151 14.4625 19.7122C15.4364 19.3093 16.269 18.6267 16.8551 17.7507C17.4412 16.8747 17.7544 15.8447 17.7553 14.7907C17.7545 13.376 17.1922 12.0194 16.1918 11.0191C15.1914 10.0187 13.8349 9.45635 12.4201 9.45557ZM12.4201 17.9334C11.798 17.9334 11.1898 17.7489 10.6725 17.4032C10.1552 17.0575 9.75205 16.5663 9.51398 15.9914C9.27592 15.4166 9.21365 14.7842 9.33507 14.174C9.45648 13.5638 9.75611 13.0033 10.1961 12.5634C10.636 12.1235 11.1966 11.824 11.8068 11.7026C12.417 11.5813 13.0495 11.6437 13.6242 11.8818C14.199 12.12 14.6902 12.5232 15.0358 13.0406C15.3814 13.5579 15.5658 14.1661 15.5657 14.7883C15.5629 15.6216 15.2305 16.42 14.6412 17.0092C14.0519 17.5985 13.2535 17.9307 12.4201 17.9334ZM28.1352 14.016C28.1369 14.779 27.9441 15.5297 27.5749 16.1974C27.0054 15.7338 26.3571 15.3765 25.6611 15.1425C25.8467 14.796 25.9444 14.4092 25.9456 14.016C25.9456 13.3866 25.6956 12.7829 25.2505 12.3379C24.8054 11.8928 24.2018 11.6427 23.5723 11.6427C22.9429 11.6427 22.3392 11.8928 21.8942 12.3379C21.4491 12.7829 21.199 13.3866 21.199 14.016C21.196 14.4097 21.294 14.7975 21.4836 15.1425C20.7874 15.3766 20.139 15.7339 19.5693 16.1974C19.1893 15.503 18.9968 14.7217 19.0108 13.9303C19.0247 13.139 19.2447 12.3649 19.6489 11.6844C20.0531 11.0039 20.6276 10.4405 21.3158 10.0497C22.0041 9.65884 22.7823 9.45408 23.5738 9.45557C24.783 9.45686 25.9423 9.93772 26.7974 10.7927C27.6526 11.6476 28.1337 12.8068 28.1352 14.016ZM23.5738 15.8617C22.5195 15.8608 21.4886 16.1726 20.6115 16.7576C19.7344 17.3425 19.0505 18.1745 18.6462 19.1482C18.2419 20.1218 18.1354 21.1936 18.3401 22.2278C18.5449 23.262 19.0517 24.2122 19.7965 24.9584C20.5414 25.7046 21.4907 26.2132 22.5245 26.4198C23.5584 26.6265 24.6303 26.5219 25.6047 26.1194C26.5791 25.7169 27.4123 25.0344 27.9989 24.1584C28.5855 23.2824 28.8991 22.2521 28.9002 21.1978C28.8988 19.7847 28.3375 18.4297 27.3391 17.4296C26.3408 16.4295 24.9869 15.8657 23.5738 15.8617ZM23.5738 24.3336C22.9525 24.3328 22.3453 24.1478 21.8292 23.802C21.313 23.4561 20.911 22.9649 20.674 22.3906C20.437 21.8162 20.3757 21.1845 20.4978 20.5753C20.6198 19.9661 20.9198 19.4067 21.3598 18.968C21.7998 18.5293 22.36 18.231 22.9696 18.1107C23.5792 17.9904 24.2107 18.0536 24.7844 18.2923C25.358 18.531 25.848 18.9344 26.1924 19.4516C26.5367 19.9688 26.7199 20.5765 26.7189 21.1978C26.7164 22.0303 26.384 22.8279 25.7944 23.4157C25.2049 24.0035 24.4063 24.3336 23.5738 24.3336ZM16.9816 21.9618C16.9816 23.1719 16.5008 24.3325 15.6451 25.1882C14.7894 26.0439 13.6288 26.5247 12.4187 26.5247C11.2085 26.5247 10.0479 26.0439 9.19222 25.1882C8.33651 24.3325 7.85578 23.1719 7.85578 21.9618H10.0454C10.0454 22.5912 10.2954 23.1949 10.7405 23.6399C11.1856 24.085 11.7892 24.3351 12.4187 24.3351C13.0481 24.3351 13.6518 24.085 14.0969 23.6399C14.5419 23.1949 14.792 22.5912 14.792 21.9618H16.9816Z" fill="#252525"/>
</g>
<defs>
<linearGradient id="paint0_linear_1166_6726" x1="33.3226" y1="2.67349" x2="3.14171" y2="32.8544" gradientUnits="userSpaceOnUse">
<stop stop-color="#F1D961"/>
<stop offset="1" stop-color="#CDA146"/>
</linearGradient>
</defs>
</svg>
