<svg width="16" height="16" viewBox="0 0 16 16" fill="none" xmlns="http://www.w3.org/2000/svg">
<g id="dogecoin-doge-logo 2" clip-path="url(#clip0_3354_17878)">
<g id="Layer 2">
<g id="Layer 1">
<g id="Layer_1">
<path id="Vector" d="M8 16C12.4183 16 16 12.4183 16 8C16 3.58172 12.4183 0 8 0C3.58172 0 0 3.58172 0 8C0 12.4183 3.58172 16 8 16Z" fill="#988430"/>
<path id="Vector_2" d="M8.00156 15.7438C12.2783 15.7438 15.7453 12.2768 15.7453 8.00009C15.7453 3.72334 12.2783 0.256348 8.00156 0.256348C3.7248 0.256348 0.257812 3.72334 0.257812 8.00009C0.257812 12.2768 3.7248 15.7438 8.00156 15.7438Z" fill="#7A6A2A"/>
<path id="Vector_3" d="M8.00246 15.5806C12.1891 15.5806 15.583 12.1867 15.583 8.00002C15.583 3.81338 12.1891 0.419434 8.00246 0.419434C3.81582 0.419434 0.421875 3.81338 0.421875 8.00002C0.421875 12.1867 3.81582 15.5806 8.00246 15.5806Z" fill="#BA9F33"/>
<path id="Vector_4" fill-rule="evenodd" clip-rule="evenodd" d="M3.49658 7.14581C3.45127 7.10442 3.4034 7.06295 3.35937 7.02156C3.31534 6.98018 3.27011 6.93871 3.2248 6.89732L3.09014 6.76932C3.06813 6.7473 3.04483 6.72793 3.02281 6.70583C3.0008 6.68646 2.97494 6.66444 2.95293 6.64499C2.77424 6.47543 2.59453 6.30587 2.41831 6.13623C2.60084 6.30323 2.77953 6.46903 2.96206 6.6385L3.02546 6.70199C3.04747 6.72392 3.07077 6.74338 3.09279 6.76539L3.22736 6.88964C3.27267 6.93102 3.3167 6.9725 3.36201 7.01764C3.40733 7.06278 3.45136 7.10434 3.49667 7.14564L3.49658 7.14581ZM1.12509 7.12021C1.12509 7.12021 1.7749 7.18745 2.09208 7.23276C2.38589 7.27424 3.30501 7.41529 3.30501 7.41529L1.12509 7.12021ZM1.12509 7.12021C1.30761 7.13574 1.49014 7.15511 1.67267 7.17457C1.76585 7.18361 1.8552 7.19394 1.94454 7.20298L2.08167 7.2186C2.12698 7.225 2.17102 7.23148 2.21633 7.23797L2.76007 7.32467L3.03186 7.36998C3.1212 7.38551 3.21055 7.40241 3.30373 7.41794C3.21439 7.40889 3.1212 7.39592 3.03186 7.38295L2.76007 7.34412L2.21633 7.26391C2.17102 7.25742 2.12698 7.24829 2.08167 7.24189L1.94446 7.22611C1.85511 7.21706 1.76193 7.20409 1.67258 7.19368C1.49006 7.17175 1.30753 7.14837 1.125 7.11995L1.12509 7.12021ZM3.24033 7.58459C3.24033 7.58459 2.54648 7.76072 2.31216 7.82805C2.08176 7.89145 1.38399 8.10376 1.38399 8.10376L3.24024 7.58468L3.24033 7.58459Z" fill="#CFB66C"/>
<path id="Vector_5" fill-rule="evenodd" clip-rule="evenodd" d="M3.24168 7.58447C3.08765 7.62978 2.93448 7.67382 2.77823 7.71529L2.31479 7.83953C2.16076 7.88485 2.00759 7.92888 1.85399 7.97419L1.62359 8.03759C1.54721 8.05961 1.46956 8.07898 1.39062 8.10108C1.46691 8.07548 1.54465 8.04928 1.62102 8.02727L1.85142 7.95354C2.00545 7.90558 2.15863 7.86027 2.31222 7.8124C2.46881 7.77357 2.62292 7.7321 2.77951 7.69455C2.92833 7.65701 3.085 7.61954 3.24168 7.58456V7.58447ZM1.48253 8.53082C1.55882 8.50232 2.43912 8.09204 2.64366 7.99621C2.74606 7.94825 3.0437 7.84261 3.0437 7.84261L1.48253 8.53082Z" fill="#CFB66C"/>
<path id="Vector_6" fill-rule="evenodd" clip-rule="evenodd" d="M1.48446 8.53097C1.5517 8.50537 1.61519 8.47406 1.67987 8.44427L1.87145 8.35493L2.25596 8.16984C2.38396 8.109 2.50838 8.04184 2.64039 7.98467C2.70771 7.95625 2.77504 7.93296 2.84228 7.91094L2.94468 7.8786C2.97959 7.86955 3.01201 7.85914 3.04708 7.8501C2.91908 7.91094 2.78434 7.96274 2.65617 8.02222C2.52817 8.0857 2.39727 8.1375 2.26517 8.19442L1.87426 8.36654C1.74302 8.4197 1.61502 8.47662 1.48438 8.53097H1.48446ZM1.56979 8.88937C1.56979 8.88937 2.36715 8.42209 2.64158 8.2719C2.78528 8.19169 3.25001 7.9612 3.25001 7.9612L1.56979 8.88937Z" fill="#CFB66C"/>
<path id="Vector_7" fill-rule="evenodd" clip-rule="evenodd" d="M1.57031 8.88923C1.70488 8.80637 1.8421 8.72223 1.97932 8.63681L2.18412 8.51248C2.254 8.47109 2.32133 8.43227 2.39258 8.39088C2.46247 8.34941 2.5298 8.30802 2.60097 8.26919C2.63485 8.24828 2.67035 8.2301 2.70712 8.21484L2.81584 8.16048C2.95954 8.09059 3.10324 8.01934 3.25471 7.9585C3.11749 8.04528 2.97635 8.11909 2.83529 8.19538C2.76541 8.23421 2.69415 8.26919 2.62426 8.30802C2.55438 8.34685 2.48705 8.38832 2.4158 8.42587C2.34591 8.46725 2.27858 8.50608 2.20741 8.54363L1.99638 8.65883L1.57048 8.88923H1.57031ZM3.24404 8.06329C3.24404 8.06329 2.74825 8.44387 2.58774 8.56556C2.42723 8.68724 1.95474 9.029 1.95474 9.029L3.24404 8.06329Z" fill="#CFB66C"/>
<path id="Vector_8" fill-rule="evenodd" clip-rule="evenodd" d="M6.08963 11.1325L5.83594 10.6523L5.98348 10.0516L7.03589 9.64516L6.58798 8.72612L6.80933 7.79795L7.22491 6.9668L8.50909 6.7649L9.45271 5.86523L11.4903 6.01926L11.8903 8.19791L11.12 10.9409L10.6812 12.3611L8.90256 12.4284L8.07671 11.8562L7.10971 11.4523L6.08963 11.1325Z" fill="#E2CC85"/>
<path id="Vector_9" fill-rule="evenodd" clip-rule="evenodd" d="M9.20406 11.1173C9.20406 11.1173 8.95805 11.23 8.53846 11.204C8.41703 11.0409 7.5666 10.9646 7.5666 10.9646C7.5666 10.9646 7.46045 10.9322 7.27271 11.0099C7.08379 11.0867 6.9051 11.0772 6.7381 11.1186C6.5711 11.16 6.4053 10.9426 6.2773 10.8972C6.1493 10.8494 5.97957 10.7342 5.97957 10.7342L5.62117 10.6992L4.90147 10.395L3.75809 9.25586L3.44739 9.74226L3.35156 10.3442L3.69725 11.0575L4.62798 11.9054L6.44285 12.3662L7.51856 12.0492L8.86614 11.4796L9.20406 11.1172V11.1173Z" fill="#F1D789"/>
<path id="Vector_10" fill-rule="evenodd" clip-rule="evenodd" d="M2.75682 7.0912L2.98722 6.39351L3.26174 5.94295L4.14579 5.86914L3.88041 6.64328L3.14133 7.95853L3.44811 9.13263L2.90445 9.40442L2.73737 9.14816L2.6028 8.56047L2.59375 7.90024L2.75682 7.0912Z" fill="#F4ECB4"/>
<path id="Vector_11" fill-rule="evenodd" clip-rule="evenodd" d="M3.75269 11.0692L3.58313 10.8323C3.58313 10.8323 3.53782 10.7196 3.56376 10.6212C3.58936 10.5216 3.58569 10.5151 3.57281 10.4775C3.55992 10.44 3.45112 10.3106 3.45761 10.1992C3.46401 10.0866 3.44856 10.049 3.53133 9.95975C3.61803 9.87305 3.59218 9.72286 3.59218 9.72286L3.70482 9.79275L3.73042 9.75392C3.73042 9.75392 3.7718 9.78626 3.7718 9.83678C3.78085 9.76689 3.7433 9.44322 3.82872 9.3695C3.91414 9.29577 4.06561 9.7151 4.06561 9.7151L3.97242 9.10667L3.73289 8.4828L3.30699 7.9132L3.28139 7.28531V7.23096C3.28139 7.23096 3.08589 7.53133 3.03154 7.76856C2.99271 7.93163 3.08589 8.12969 3.06652 8.36401C3.05091 8.59706 3.03154 8.57888 3.08845 8.67121C3.14537 8.76354 3.28395 8.95341 3.2296 9.09063C3.18172 9.20847 3.01857 9.12561 3.01857 9.12561C3.01857 9.12561 2.98622 9.22136 2.94219 9.25634C2.92666 9.19943 2.90985 9.16316 2.87879 9.12834C2.87615 9.15036 2.86975 9.18014 2.86975 9.18014C2.86975 9.18014 2.84124 9.0908 2.81274 8.97816C2.774 8.82806 2.73253 8.63 2.69498 8.52384C2.67945 8.58469 2.64062 8.76977 2.64062 8.76977L2.66264 9.05462L2.7688 9.44553L2.8712 9.70153L2.97087 10.0148L3.05748 10.2252L3.12737 10.3857L3.18821 10.7469L3.48201 11.0576L3.63868 11.1275L3.75252 11.0692L3.75269 11.0692Z" fill="#F3E19D"/>
<path id="Vector_12" fill-rule="evenodd" clip-rule="evenodd" d="M2.91609 6.52169C2.91609 6.52169 2.70506 6.88009 2.6443 7.24139C2.58355 7.60269 2.5291 7.98447 2.5675 8.47634C2.60633 8.97221 2.68014 9.27634 2.73971 9.49385C2.84211 9.85507 3.10732 10.3573 3.10732 10.3573L3.11637 10.3379C3.07179 10.2534 3.03621 10.1644 3.01021 10.0725C2.97523 9.93528 2.96225 9.77221 2.92991 9.69839C2.90141 9.62467 2.85354 9.56118 2.83024 9.47055C2.80823 9.38385 2.80464 9.24664 2.73706 9.14441C2.70856 9.10294 2.67357 8.99422 2.66325 8.88551C2.65028 8.72235 2.66973 8.53982 2.6542 8.38972C2.6257 8.13987 2.60633 7.97031 2.63219 7.83949C2.65804 7.70868 2.79278 7.33731 2.87564 7.04214C2.93 6.85312 2.89757 6.69389 2.99724 6.52946C3.09691 6.36638 3.15784 6.22268 3.17977 6.12301C3.20537 6.03239 2.91575 6.52169 2.91575 6.52169H2.91609Z" fill="#F2E8B0"/>
<path id="Vector_13" fill-rule="evenodd" clip-rule="evenodd" d="M3.90973 6.37793C3.90973 6.37793 3.80101 6.41036 3.74922 6.46727C3.69742 6.52163 3.6754 6.56694 3.60552 6.65885C3.53563 6.75075 3.5317 6.82584 3.4747 6.94104C3.41778 7.05368 3.29217 7.22324 3.27664 7.28408C3.26111 7.34493 3.23525 7.62968 3.20291 7.76434C3.17441 7.899 3.23525 8.06471 3.23525 8.06471L3.30898 8.0491C3.30898 8.0491 3.30898 8.14493 3.3828 8.2097C3.45652 8.2731 3.46949 7.99474 3.46949 7.99474L3.74521 7.06401L4.16069 6.78181L4.20601 6.55397L3.90956 6.37793H3.90973Z" fill="#F5EEC0"/>
<path id="Vector_14" fill-rule="evenodd" clip-rule="evenodd" d="M4.11836 6.80001C4.11836 6.80001 3.92286 6.81289 3.82712 6.88287C3.78829 6.91128 3.77276 6.93458 3.73137 6.96956C3.655 7.03297 3.57726 7.09125 3.5398 7.17436C3.49833 7.25714 3.45301 7.38275 3.42195 7.61963C3.40898 7.7193 3.40898 7.81121 3.39994 7.89151C3.38697 8.00022 3.3676 8.08692 3.37792 8.14751C3.39089 8.27175 3.51906 8.33652 3.53152 8.47758L3.79691 8.343L4.04676 7.35783L4.57754 7.02503L4.27716 6.68848L4.11802 6.79941L4.11836 6.80001Z" fill="#E6DB9D"/>
<path id="Vector_15" fill-rule="evenodd" clip-rule="evenodd" d="M2.71884 13.4341C2.71994 13.4244 2.72105 13.4146 2.72216 13.4046C2.7609 13.0718 2.76748 12.8196 2.79589 12.6617C2.83728 12.4377 2.86578 12.3545 2.85929 12.2707C2.85025 12.1361 2.83992 12.0377 2.85289 11.9341C2.87226 11.7969 3.00692 11.6338 3.00308 11.5212C3.00044 11.4318 2.95512 11.3736 2.9163 11.3193C2.87747 11.2649 2.84641 11.2196 2.84641 11.2196C2.84641 11.2196 3.1118 11.0371 3.10924 10.3018C3.11465 10.3033 3.11987 10.3055 3.12477 10.3082L3.2555 10.6797L3.34484 10.7884L3.68788 11.4279L4.12931 11.8564L4.78168 12.2952L5.19077 12.7404L5.23216 13.9275L4.69754 14.6213L4.60999 14.7799C3.91442 14.4307 3.27657 13.9768 2.71875 13.434L2.71884 13.4341Z" fill="#E5CB7A"/>
<path id="Vector_16" fill-rule="evenodd" clip-rule="evenodd" d="M4.35156 14.5694C4.35156 14.5694 4.36061 14.4218 4.48229 14.326C4.50175 14.3583 4.51463 14.3895 4.51079 14.4127C4.53281 14.374 4.68684 14.1254 5.03508 14.0606C5.38333 13.9972 5.46747 13.7435 5.46747 13.7435L6.20654 13.0717L7.05185 12.2937L8.07969 11.9325L8.56003 11.8146C8.56003 11.8146 8.56908 11.8496 8.55099 11.9273C8.64025 11.9209 8.8383 11.8756 9.04413 11.803C9.12699 11.7707 9.20473 11.7577 9.24611 11.8005C9.30696 11.8574 9.316 11.992 9.31984 12.0723C9.41951 12.0502 9.53471 11.9545 9.62704 11.9635C9.77467 11.9791 9.9054 12.1526 10.0556 12.1526C10.2536 12.1526 10.3429 12.0309 10.4815 11.935C10.5643 11.8781 10.6834 11.807 10.7507 11.759C10.9112 11.6412 12.6096 11.1221 12.6096 11.1221L13.2051 11.1609L13.3009 11.8004L13.2497 13.4721C13.2434 13.4781 13.2371 13.4844 13.2307 13.4905L10.5232 14.9046L6.77025 15.4799C5.92957 15.3425 5.11831 15.0635 4.37102 14.6546L4.35182 14.5693L4.35156 14.5694Z" fill="#D8C173"/>
<path id="Vector_17" fill-rule="evenodd" clip-rule="evenodd" d="M2.94531 13.6464C2.99865 13.5348 3.0466 13.4416 3.05505 13.4082C3.06171 13.4754 3.07391 13.623 3.09849 13.7798C3.04689 13.736 2.99583 13.6915 2.94531 13.6463V13.6464Z" fill="#F1D789"/>
<path id="Vector_18" fill-rule="evenodd" clip-rule="evenodd" d="M5.6881 15.2199L6.17347 15.0849L6.21486 15.0978C6.21486 15.0978 6.23688 15.1108 6.23688 15.1548C6.29772 15.1198 6.34952 15.1262 6.38706 15.103C6.40643 15.1444 6.4258 15.2816 6.51131 15.2985C6.60057 15.3179 6.6964 15.2596 6.79351 15.1859C6.88925 15.1095 6.99831 15.0137 7.08082 14.9749C7.1111 15.0305 7.13792 15.088 7.16112 15.147C7.26984 15.0603 7.45885 14.7082 7.72808 14.7146C7.80589 14.5307 7.93589 14.3737 8.10201 14.2628C8.35186 14.0933 8.50845 14.0803 8.70395 14.0958C8.7816 13.995 8.87728 13.9094 8.98615 13.8434C9.01849 13.8564 9.10783 13.9108 9.21919 13.859C9.33183 13.8073 9.45864 13.6065 9.62563 13.5807C9.71562 13.5683 9.80712 13.5875 9.88453 13.635C9.88453 13.635 10.3709 13.1521 10.7066 12.9916C10.6936 12.9528 10.6677 12.8065 11.0612 12.4829C11.0832 12.5023 11.0677 12.5567 11.0832 12.5597C11.0896 12.5597 11.1856 12.5183 11.3071 12.425C11.4573 12.3125 11.6372 12.1946 11.7459 12.1623C11.9507 12.1014 12.168 12.2257 12.168 12.2257C12.1864 12.2127 12.207 12.2031 12.2288 12.1972C12.2805 12.1881 12.3181 12.1817 12.3466 12.1716C12.344 12.2389 12.3816 12.3541 12.3466 12.4538C12.3871 12.4766 12.43 12.4948 12.4746 12.5081C12.4526 12.556 12.4047 12.6777 12.3245 12.736C12.3917 12.7683 12.4008 12.8059 12.4966 12.8384C12.4578 12.8927 12.3942 12.986 12.3659 13.0432C12.3374 13.104 12.235 13.3564 12.1897 13.4522C12.1419 13.548 12.0772 13.7241 12.046 13.7594C12.0149 13.7947 11.9023 13.9445 11.8156 14.0182C11.8924 13.9897 12.2066 13.894 12.3399 13.8577C12.3002 13.9159 12.0991 14.2143 11.9057 14.5013C10.9799 15.0562 9.94645 15.4074 8.87422 15.5315C7.80199 15.6557 6.71562 15.5499 5.6875 15.2211L5.6881 15.2199Z" fill="#E0CD81"/>
<path id="Vector_19" fill-rule="evenodd" clip-rule="evenodd" d="M4.1448 6.7651C4.1448 6.7651 4.03224 6.7651 4.01023 6.78063C3.98821 6.79616 4.12287 6.82859 4.16425 6.84412C4.20564 6.85965 4.29498 6.93082 4.31828 6.98782C4.3403 7.04218 5.12733 7.35927 5.12733 7.35927L5.68396 7.33077L5.87587 7.06564L5.51081 6.7459L5.76681 5.99121L5.4277 6.04557L4.61217 6.53197L4.20308 6.68864L4.1448 6.7651Z" fill="#DFC57C"/>
<path id="Vector_20" fill-rule="evenodd" clip-rule="evenodd" d="M5.36889 7.01471C5.37694 7.02774 5.38827 7.03842 5.40175 7.04568C5.41523 7.05295 5.43039 7.05654 5.44569 7.0561C5.56089 7.0561 5.66696 7.0846 5.711 7.14279C5.78481 7.23606 5.98935 7.53379 5.98935 7.53379L6.47865 7.70983L6.51023 7.13366L5.97561 6.76221L5.36719 6.98612V7.01462H5.36855L5.36889 7.01471Z" fill="#E5CC7C"/>
<path id="Vector_21" fill-rule="evenodd" clip-rule="evenodd" d="M5.27113 7.22853C5.27113 7.22853 5.36039 7.23502 5.47303 7.19354C5.58567 7.15207 5.77076 7.06281 5.85106 7.0978C5.96361 7.14567 5.94032 7.29586 6.06209 7.4306C6.13582 7.51346 6.27047 7.5109 6.34685 7.60024C6.42322 7.68959 6.68596 7.64812 6.68596 7.64812L6.78563 8.18572L6.38567 8.6984L6.25486 9.33524H5.71401L5.21993 9.13923L4.97656 8.55043L5.09825 7.95497L5.27113 7.22853Z" fill="#D2C281"/>
<path id="Vector_22" fill-rule="evenodd" clip-rule="evenodd" d="M6.31885 7.25412C6.33227 7.25825 6.3462 7.26044 6.36024 7.26061C6.34471 7.27358 6.31228 7.30199 6.32525 7.37581C6.33822 7.44962 6.37961 7.5428 6.34471 7.59972C6.37257 7.63018 6.39335 7.66644 6.40555 7.70587C6.42757 7.76936 6.43405 7.82756 6.57767 7.83669C6.55694 7.84945 6.53783 7.86466 6.52075 7.882C6.52075 7.882 6.62042 7.9687 6.67094 8.04891C6.72265 8.0467 6.85987 8.00403 6.85987 8.00403L6.88837 8.02349L6.94921 7.99789C6.94921 7.99789 6.89229 7.97587 6.93368 7.83737C6.97251 7.71569 7.00749 7.72217 7.01048 7.71313C7.01347 7.70408 7.03898 7.57591 7.03898 7.52411C7.05835 7.45687 7.07388 7.25233 7.07388 7.25233L7.0325 6.80057L6.79954 6.65943L6.6101 6.47656L6.43141 6.81312L6.31373 6.93045L6.30469 7.22169L6.31885 7.25412Z" fill="#E2C270"/>
<path id="Vector_23" fill-rule="evenodd" clip-rule="evenodd" d="M6.88281 6.8766C6.88281 6.8766 6.9242 6.99436 6.93982 7.08499C6.94532 7.06737 6.94836 7.04908 6.94886 7.03063C6.94886 7.03063 6.9812 7.20932 6.9876 7.28313C7.00057 7.28049 7.0132 7.27665 7.0161 7.28953C7.019 7.30242 7.04853 7.4462 7.0417 7.52642C7.09561 7.43748 7.1702 7.36289 7.25913 7.30899C7.31093 7.27656 7.37177 7.24166 7.43526 7.23901C7.53493 7.23645 7.60738 7.3025 7.7265 7.3025C8.01382 7.3025 8.27409 7.09147 8.46566 7.02679C8.60672 6.97883 8.7284 6.94393 8.81382 6.86619C8.85529 6.83129 8.92911 6.75364 8.99635 6.63835C9.08569 6.48475 9.17888 6.35104 9.27215 6.33423C9.22995 6.34198 9.18702 6.34501 9.14415 6.34327C9.14415 6.34327 9.17265 6.31477 9.22095 6.27594C9.26924 6.23712 9.3271 6.18924 9.40987 6.18924C9.5575 6.18924 9.63123 6.21117 9.71409 6.21117C9.79695 6.20861 9.84482 6.18924 9.84482 6.18924C9.84482 6.18924 9.9316 6.25009 10.127 6.25009C10.3225 6.25265 10.4532 6.26946 10.5556 6.27859C10.6579 6.28772 11.0008 6.25009 11.0992 6.25299C11.1634 6.25546 11.2264 6.27087 11.2844 6.2983L10.9672 5.3767L9.82784 4.38086L9.14952 4.86112L8.10607 5.90449L7.0964 6.27859L6.88537 6.51547V6.8766H6.88281Z" fill="#CCB360"/>
<path id="Vector_24" fill-rule="evenodd" clip-rule="evenodd" d="M9.1447 6.34829C9.1447 6.34829 9.1732 6.31987 9.22098 6.28104C9.26877 6.24222 9.32722 6.19426 9.41 6.19426C9.55754 6.19426 9.63135 6.21628 9.71421 6.21628C9.79707 6.21372 9.84494 6.19426 9.84494 6.19426C9.84494 6.19426 9.93181 6.25502 10.1271 6.25502C10.3226 6.25758 10.4534 6.27439 10.5557 6.28343C10.658 6.29248 11.001 6.25502 11.0993 6.25783C11.1635 6.26025 11.2264 6.27566 11.2844 6.30315L11.1407 5.88757L10.9738 5.57047L10.4974 5.04875C10.4974 5.04875 9.92567 4.71219 9.92131 4.70963C9.91875 4.70707 9.72326 4.65527 9.72326 4.65527L9.20545 4.96853L8.73561 6.18411L8.72656 6.44011L9.03069 6.58381C9.10706 6.45581 9.19129 6.35341 9.27022 6.34044C9.19897 6.3482 9.14461 6.3482 9.14461 6.3482L9.1447 6.34829Z" fill="#D5B457"/>
<path id="Vector_25" fill-rule="evenodd" clip-rule="evenodd" d="M9.14224 6.43485C9.09692 6.43741 9.05946 6.42837 9.04905 6.39602C9.01023 6.28731 8.97916 6.27178 8.94665 6.27178C8.91414 6.27178 8.87028 6.34167 8.84425 6.34807C8.81823 6.35447 8.78734 6.26785 8.78734 6.26785L8.75883 6.25488C8.75883 6.25488 8.59184 6.3636 8.47408 6.49177C8.35632 6.61994 8.16338 6.83745 8.07668 6.87619C7.98998 6.91494 7.69217 6.92799 7.59028 6.95001C7.48839 6.97202 7.37541 7.04584 7.35988 7.06265C7.34435 7.07946 7.40528 7.09755 7.41432 7.11436C7.42337 7.12989 7.31457 7.12341 7.30552 7.13996C7.29912 7.15293 7.33112 7.22666 7.34699 7.26421C7.37477 7.2504 7.40524 7.24288 7.43625 7.24219C7.53592 7.23963 7.60846 7.30568 7.7275 7.30568C8.0149 7.30568 8.27508 7.09465 8.46665 7.02988C8.60779 6.98201 8.72948 6.94702 8.8149 6.86937C8.85628 6.83447 8.9301 6.75673 8.99743 6.64153C9.04658 6.56259 9.09454 6.48878 9.14249 6.43442L9.14224 6.43485Z" fill="#D2B257"/>
<path id="Vector_26" fill-rule="evenodd" clip-rule="evenodd" d="M5.01443 12.8413C5.01443 12.8413 4.98883 12.7455 4.7516 12.4983C4.68427 12.4284 4.64289 12.3703 4.59758 12.3287C4.48494 12.2225 4.41889 12.1941 4.33867 12.1332C4.16263 12.0025 3.97106 12.0025 3.82352 11.842C3.67598 11.6815 3.50403 11.3748 3.38456 11.0614C3.2668 10.7481 3.23438 10.6484 3.23438 10.6394C3.23438 10.6303 3.2668 10.5695 3.30819 10.5786C3.34957 10.5876 3.34958 10.6678 3.35999 10.6873C3.38061 10.719 3.40399 10.7489 3.42987 10.7765C3.49072 10.8465 3.57742 10.9301 3.62145 11.0549C3.6124 10.9487 3.57614 10.831 3.57614 10.831C3.57614 10.831 3.80397 10.9747 3.99811 11.1248C4.19361 11.275 4.27382 11.3268 4.33091 11.4225C4.388 11.5182 4.52248 11.7707 4.58691 11.8446C4.65134 11.9184 5.53411 12.1966 5.53411 12.1966L5.95403 12.5097L6.1625 12.9667L5.99935 13.2227L5.68609 13.29L5.17733 13.0622L5.01443 12.8412V12.8413Z" fill="#D2B159"/>
<path id="Vector_27" fill-rule="evenodd" clip-rule="evenodd" d="M3.89062 11.2671C3.89062 11.2671 3.99678 11.4367 4.25568 11.5972C4.48873 11.7383 4.85762 11.8665 5.1865 11.9429C5.37542 11.9882 5.56444 12.0231 5.734 12.0257C6.19096 12.0321 6.50549 11.9015 6.89521 11.8587C7.10624 11.8367 7.36514 11.8199 7.63437 11.7563C7.97997 11.6735 8.18451 11.5802 8.46287 11.4491C8.66477 11.3559 8.84994 11.2861 9.00004 11.1967C9.21107 11.0725 9.3651 10.934 9.54379 10.8926C9.52177 10.9534 9.49848 11.0621 9.32243 11.1748C9.41562 11.1721 9.54379 11.1657 9.54379 11.1657C9.54379 11.1657 9.41954 11.2395 9.20075 11.4052C9.06609 11.5076 8.88749 11.6809 8.70496 11.7961C8.58712 11.8699 8.45894 11.9241 8.37481 11.9683C8.17001 12.0809 8.0874 12.1378 7.95283 12.2755C8.00071 12.2729 8.00463 12.2755 8.00463 12.2755C8.00463 12.2755 7.83499 12.2975 7.71339 12.3622C7.68779 12.3622 7.64341 12.3531 7.56576 12.3752C7.50492 12.3945 7.42462 12.4386 7.34185 12.4619C7.224 12.4968 7.18526 12.4813 7.18526 12.4813L7.20463 12.5201C7.20463 12.5201 7.05103 12.5175 6.99983 12.5227C7.00888 12.5253 7.00632 12.5292 7.00632 12.5292C6.99732 12.5307 6.98866 12.5338 6.98072 12.5382C6.95608 12.5542 6.92898 12.566 6.9005 12.5731C6.88497 12.5757 6.872 12.5757 6.85255 12.5796C6.85903 12.5951 6.90955 12.682 6.93284 12.7332C6.91347 12.7462 6.62215 12.9663 6.62215 12.9663C6.63118 12.9805 6.63857 12.9957 6.64416 13.0116C6.65321 13.04 6.65713 13.0815 6.66618 13.1008C6.68811 13.1397 6.70108 13.1461 6.70108 13.1461C6.70108 13.1461 6.66618 13.1526 6.60525 13.1682C6.55354 13.1811 6.49005 13.2031 6.40045 13.216C6.37296 13.2196 6.3453 13.2218 6.31759 13.2225C6.33056 13.251 6.38748 13.3597 6.2826 13.4853C6.17773 13.6108 6.14539 13.629 6.11305 13.7093C6.09677 13.697 6.07943 13.6861 6.06125 13.6768C6.02635 13.6613 5.97839 13.6381 5.96158 13.6069C5.95178 13.6484 5.9388 13.6891 5.92275 13.7286C5.89041 13.8153 5.84254 13.9008 5.83349 13.9655C5.79851 13.9267 5.73383 13.8503 5.64448 13.8658C5.55514 13.8814 5.48397 14.0031 5.46844 14.0381C5.46844 14.016 5.45291 13.9992 5.44907 14.0251C5.44642 14.0536 5.39727 14.3512 5.12284 14.592C5.12028 14.5312 5.12028 14.3965 5.11379 14.3526C5.08819 14.3782 5.05688 14.416 4.87042 14.4963C4.68789 14.5765 4.71682 14.6568 4.71682 14.6568C4.71682 14.6568 4.70129 14.5288 4.79968 14.394C4.89935 14.2594 4.96019 14.1959 4.96019 14.1856C4.95858 14.1751 4.9541 14.1652 4.94722 14.1571C4.93425 14.1441 4.9084 14.1286 4.9084 14.1183C4.92393 14.1119 5.07795 14.0381 5.06891 13.8852C5.05986 13.7481 5.00167 13.6768 4.96019 13.6264C4.95379 13.6199 5.02112 13.572 5.01199 13.5565C5.00551 13.5475 4.92273 13.4865 4.91232 13.4541C4.91477 13.4348 4.91911 13.4157 4.92529 13.3972C4.93434 13.3687 4.94082 13.3492 4.93826 13.3299C4.93178 13.2975 4.89679 13.2082 4.88647 13.1991C4.89551 13.2017 4.96019 13.1991 4.96019 13.1991C4.96019 13.1991 4.90848 13.1163 4.89935 13.0775C4.89022 13.0386 4.87085 12.9363 4.86052 12.9169C4.88254 12.9195 4.9369 12.9233 4.9369 12.9169C4.93954 12.8975 4.88902 12.8651 4.9113 12.8401C4.92683 12.8427 4.95661 12.8557 4.98503 12.8919C4.96949 12.8505 4.94364 12.7703 4.8892 12.7379C4.9148 12.7289 5.00184 12.7055 5.07821 12.7508C5.15458 12.7961 5.18061 12.8595 5.18061 12.8595C5.18061 12.8595 5.22592 12.8945 5.29589 12.9463C5.37611 13.0097 5.47834 13.0999 5.64149 13.1637C5.67648 13.1832 5.76574 13.1832 5.83051 13.1702C5.85871 13.1635 5.88575 13.1526 5.91072 13.1379C5.91974 13.1326 5.92929 13.1282 5.93922 13.1249C5.92531 13.097 5.9093 13.0701 5.89135 13.0446C5.91337 13.0446 5.93922 13.0472 5.93922 13.0472C5.93922 13.0472 5.95475 13.0123 5.88487 12.9448C5.9004 12.9293 5.91985 12.9192 5.91985 12.893C5.89784 12.8905 5.85901 12.8581 5.84996 12.8452C5.86285 12.8361 5.88231 12.8063 5.90432 12.7973C5.88487 12.7818 5.83699 12.717 5.81498 12.7106C5.83601 12.7028 5.85636 12.6933 5.87582 12.6821C5.87582 12.6821 5.7671 12.6536 5.73212 12.6303C5.69713 12.6047 5.64542 12.5604 5.61436 12.5474C5.58193 12.5345 5.52501 12.5281 5.50172 12.5021C5.52365 12.5086 5.55864 12.5021 5.58458 12.5021C5.60395 12.5021 5.61308 12.5047 5.61948 12.5047C5.61692 12.4957 5.61692 12.4762 5.66744 12.4698C5.69173 12.4661 5.71531 12.4587 5.73732 12.4478C5.73732 12.4478 5.68937 12.4452 5.63492 12.3934C5.58048 12.3416 5.53525 12.3002 5.50419 12.2938C5.47185 12.2873 5.41101 12.3158 5.37346 12.3131C5.32167 12.3067 5.29965 12.2808 5.29965 12.2808C5.29965 12.2808 5.12753 12.2963 4.74567 12.0634C4.41551 11.8614 4.27181 11.6828 4.27181 11.6828C4.24091 11.6716 4.21105 11.6577 4.18255 11.6413C4.05831 11.5766 3.8861 11.442 3.89131 11.2658L3.89062 11.2671Z" fill="#C2A44D"/>
<path id="Vector_28" fill-rule="evenodd" clip-rule="evenodd" d="M8.65341 3.49765C8.68336 3.50738 8.70997 3.52533 8.73021 3.54945C8.79105 3.61933 8.82988 3.75135 8.69138 3.89249C8.74574 3.91186 8.76818 3.91809 8.81563 3.91186C8.76775 3.96886 8.65904 4.09055 8.65255 4.1967C8.64607 4.2834 8.70043 4.30934 8.70043 4.30934C8.70043 4.30934 8.61757 4.40508 8.61373 4.56534C8.65286 4.52121 8.69568 4.4805 8.74173 4.44365C8.83756 4.36728 8.96957 4.28058 9.05891 4.22623C9.0577 4.24901 9.06077 4.27182 9.06796 4.29347C9.06796 4.29347 9.23487 4.15625 9.37516 4.21718C9.43856 4.24568 9.41006 4.33494 9.41006 4.33494C9.41006 4.33494 9.49684 4.3026 9.55768 4.36344C9.61853 4.42428 9.70454 4.58121 9.74866 4.64205C9.76803 4.67056 9.81855 4.72491 9.87026 4.80905C9.94091 4.92685 9.9999 5.05126 10.0464 5.18051C10.0489 5.11318 10.0658 5.00839 10.2574 5.07435C10.449 5.14168 10.6664 5.28282 10.8489 5.56075C11.0315 5.83868 11.0767 6.15245 11.1686 6.27192C11.2618 6.38712 11.3576 6.57869 11.3641 6.65899C11.3706 6.73929 11.3356 6.99811 11.5272 7.69844C11.5815 7.48101 11.6644 6.99811 11.6644 6.99811L11.7097 6.57221L11.7615 5.25441L10.3854 4.1112L9.30971 3.33057L8.60938 3.39789L8.65332 3.49756L8.65341 3.49765Z" fill="#CAA13E"/>
<path id="Vector_29" fill-rule="evenodd" clip-rule="evenodd" d="M11.2054 5.45895C11.2054 5.45895 11.1859 5.33095 10.8623 5.11335C10.5387 4.89848 10.2863 4.89848 10.0533 4.71595C9.87462 4.57225 9.68825 4.24209 9.5669 4.13338C9.44906 4.02594 9.42969 3.71524 9.42969 3.71524L9.82708 3.38244L10.4181 2.52817L10.9177 1.97803L11.1572 2.31083L11.49 2.70174L11.6751 3.48621L11.7424 4.63445L11.2048 5.45903L11.2054 5.45895Z" fill="#B59544"/>
<path id="Vector_30" fill-rule="evenodd" clip-rule="evenodd" d="M11.6103 6.8353C11.6201 6.66117 11.5986 6.48669 11.5468 6.32014C11.4614 6.05476 11.275 5.58355 11.1884 5.40708C11.1534 5.21158 11.1793 5.19605 11.2169 5.17403C11.2544 5.15202 11.3956 5.07163 11.4729 4.78961C11.5502 4.50758 11.7901 4.49836 11.7901 4.49836L11.9376 4.38965L12.1616 4.95012L12.357 5.45632L12.4179 5.84339L12.4632 6.17346L12.357 6.87123L11.8328 7.345L11.6102 6.8353H11.6103Z" fill="#C89D3A"/>
<path id="Vector_31" fill-rule="evenodd" clip-rule="evenodd" d="M4.28906 14.6125V14.5982C4.29996 14.5914 4.30957 14.5827 4.31748 14.5726C4.32652 14.5596 4.33309 14.5441 4.33949 14.5402C4.35246 14.5337 4.41331 14.5146 4.44565 14.5208C4.47799 14.5269 4.56349 14.5622 4.60881 14.5596C4.70199 14.557 4.81071 14.4858 4.98291 14.5182C5.24181 14.5661 5.30265 14.7421 5.45284 14.8418C5.55524 14.9118 5.66122 14.8806 5.67675 14.8806H5.71165C5.71814 14.8806 5.76601 14.8263 5.79195 14.8289C5.84375 14.8315 5.84887 14.8742 5.88121 14.8768C5.95758 14.8858 6.10521 14.838 6.17903 14.8574C6.20091 14.8643 6.22082 14.8763 6.23704 14.8925C6.25327 14.9087 6.26533 14.9286 6.27221 14.9505C6.28774 14.9984 6.27477 15.0592 6.23722 15.0942C6.15701 15.1679 6.08064 15.2379 6.06511 15.299C6.08486 15.3141 6.10383 15.3301 6.12194 15.3471C5.48144 15.1839 4.8652 14.9372 4.28906 14.6133V14.6125Z" fill="#CEB052"/>
<path id="Vector_32" fill-rule="evenodd" clip-rule="evenodd" d="M11.1875 12.0257C11.1875 12.0257 11.3894 11.7565 11.4594 11.6231C11.5293 11.4857 11.238 9.74487 11.238 9.74487L11.8231 7.82777L11.8075 7.20382C11.8075 7.20382 11.836 6.62773 11.9034 6.37787C11.9837 6.52158 12.2335 6.69506 12.2879 6.78696C12.3135 6.61083 12.4004 6.23938 12.3875 5.84326C12.4354 5.91699 12.5506 6.65879 12.5506 6.65879L12.6658 7.15842L12.816 7.68919L12.983 8.24975L13.0827 8.63682L13.1396 8.73L13.1875 8.89307L13.2329 9.0692L13.3636 9.48213L13.4404 9.82124L13.5012 10.4362C13.5145 10.4832 13.524 10.5313 13.5297 10.5799C13.5323 10.6472 13.5207 10.686 13.5207 10.6977C13.5207 10.7094 13.5427 10.8452 13.5337 10.9476C13.5207 11.05 13.5207 11.1301 13.4404 11.2036C13.3601 11.277 13.3097 11.7162 13.3097 11.7162L13.166 11.6204C13.166 11.6204 13.1945 11.4896 13.1271 11.3706C13.0598 11.2515 12.9291 11.2269 12.8553 11.2463C12.7815 11.2618 12.634 11.2851 12.586 11.3265C12.5407 11.3679 12.4294 11.4961 12.3271 11.5544C12.1991 11.6312 11.9906 11.6372 11.8793 11.6631C11.7667 11.6887 11.6424 11.7655 11.5116 11.8547C11.409 11.9211 11.3007 11.9782 11.188 12.0253L11.1875 12.0257Z" fill="#CCA847"/>
<path id="Vector_33" fill-rule="evenodd" clip-rule="evenodd" d="M11.1875 14.8545C11.1875 14.8545 11.196 14.8601 11.2125 14.8691C12.1322 14.4382 12.9562 13.8275 13.636 13.0729C13.6285 12.8109 13.6189 12.5423 13.6083 12.4429C13.5864 12.2318 13.6019 12.017 13.5954 11.8927C13.589 11.7685 13.5191 11.2623 13.4867 11.1315C13.4517 11.0008 13.3843 10.936 13.3741 10.936C13.365 10.9387 13.3106 11.1821 13.3106 11.2432C13.3106 11.3044 13.2976 11.4517 13.2976 11.4893C13.2886 11.4866 13.2847 11.4637 13.2847 11.4543C13.2718 11.4866 13.2562 11.5436 13.2498 11.5501C13.2433 11.5566 13.2588 11.4957 13.2498 11.4828C13.2407 11.4698 13.2242 11.4763 13.2277 11.4439C13.2293 11.4248 13.2323 11.4057 13.2368 11.387C13.2368 11.387 13.198 11.4439 13.1695 11.5889C13.141 11.7326 13.141 11.7365 13.1307 11.7494C13.1217 11.765 13.0699 11.8168 13.0672 11.8362C13.0647 11.8711 13.1152 11.9061 13.119 11.9255C13.1216 11.9579 13.0737 12.108 13.0582 12.1815C13.0426 12.2549 13.0491 12.3989 13.0326 12.4727C13.0196 12.54 13.007 12.5789 12.9627 12.6073C12.995 12.6138 13.0261 12.6228 13.0261 12.6228C13.0261 12.6228 13.0714 12.8144 12.9562 12.9775C12.9148 13.0345 12.9045 13.0604 12.8605 13.1122C12.7737 13.2079 12.7063 13.317 12.6999 13.3879C12.6954 13.367 12.6924 13.3458 12.6908 13.3244C12.6908 13.3244 12.5562 13.4811 12.4992 13.5704C12.4255 13.6856 12.3232 13.6792 12.2944 13.7077C12.2657 13.7362 12.2595 13.7879 12.2688 13.8293C12.2432 13.8357 12.1951 13.8449 12.1627 13.9445C12.1472 13.9963 12.1083 14.0469 12.0475 14.0818C11.9866 14.1166 11.9128 14.1271 11.8753 14.1361C11.9076 14.1452 11.9206 14.1452 11.9361 14.1555C11.9168 14.1878 11.8274 14.2383 11.7277 14.3031C11.6281 14.364 11.5801 14.4532 11.5555 14.5115C11.5299 14.5659 11.4921 14.6008 11.4313 14.6073C11.4569 14.6229 11.4948 14.659 11.5142 14.6707C11.4857 14.6772 11.4374 14.6772 11.3511 14.751C11.2605 14.8261 11.2294 14.8481 11.1879 14.8546L11.1875 14.8545Z" fill="#C39D3C"/>
<path id="Vector_34" fill-rule="evenodd" clip-rule="evenodd" d="M9.38324 15.4541C9.43281 15.4194 9.48649 15.3909 9.54307 15.3694C9.74497 15.2892 9.95856 15.2736 10.0427 15.2478C10.123 15.2222 10.1864 15.1869 10.2861 15.1675C10.2834 15.1902 10.2812 15.2115 10.2788 15.2317C9.98497 15.324 9.68574 15.3983 9.38281 15.4541H9.38324Z" fill="#D2BA6B"/>
<path id="Vector_35" fill-rule="evenodd" clip-rule="evenodd" d="M13.1078 10.1435C13.1078 10.1435 13.0664 10.3675 12.9926 10.5086C12.9187 10.6497 12.839 10.8452 12.839 10.8452C12.8394 10.8011 12.8446 10.7573 12.8545 10.7143C12.7613 10.7687 12.5347 10.8995 12.4705 10.9577C12.4096 11.0121 12.3073 11.1079 12.2815 11.1532C12.3423 10.9746 12.4057 10.8141 12.4161 10.7403C12.3229 10.8076 11.8879 11.1662 11.6614 11.4031L10.9559 11.9739C10.8745 12.0179 10.7906 12.0571 10.7048 12.0915C10.5832 12.1432 10.4395 12.1873 10.3333 12.2287C10.3618 12.1524 10.407 12.085 10.4705 12.0203C10.5379 11.9569 10.7398 11.7381 10.7708 11.6363C10.7993 11.5301 10.8058 11.4667 10.7683 11.3774C10.7333 11.3864 10.6531 11.3903 10.5987 11.4059C10.5443 11.4214 10.4861 11.4796 10.4861 11.4796C10.4861 11.4796 10.5274 11.2427 10.6168 11.0188C10.5495 11.0214 10.4343 11.0407 10.4343 11.0407C10.4343 11.0407 10.5948 10.7715 10.8695 10.5839C10.7853 10.6018 10.703 10.6273 10.6235 10.6602C10.463 10.7275 10.287 10.8271 10.1562 10.8815C10.23 10.7791 10.7478 10.0401 11.0559 9.35139C11.3631 8.66403 11.4779 8.48799 11.5452 8.11909C11.5801 7.93657 11.5708 7.66683 11.5801 7.42525C11.5892 7.18572 11.6189 6.97085 11.5996 6.82715C11.6798 6.92682 11.9802 7.20774 11.9905 7.83562C11.9995 8.46342 11.7032 9.31137 11.3885 9.76825C11.4653 9.79026 11.6643 9.8162 11.8688 9.46105C12.0733 9.10589 12.0708 9.00673 12.1446 8.85911C12.1536 8.93292 12.151 8.95878 12.151 8.95878C12.151 8.95878 12.4488 8.59764 12.5899 8.14324C12.6184 8.33874 12.7025 8.51095 12.5704 8.86952C12.4527 9.1931 12.2986 9.27212 12.2986 9.27212C12.2986 9.27212 12.375 9.25915 12.4876 9.19182C12.507 9.23969 12.5032 9.29422 12.5355 9.31351C12.5679 9.33279 12.6119 9.3653 12.6184 9.39636C12.6533 9.34457 12.7076 9.27852 12.7245 9.22937C12.7116 9.33177 12.7025 9.77951 12.7501 10.0074C12.8499 9.99831 12.9521 9.99182 13.022 9.81185C12.9741 9.98798 12.9741 10.094 13.0065 10.2442C13.0595 10.2081 13.1074 10.1433 13.1074 10.1433L13.1078 10.1435Z" fill="#C0993A"/>
<path id="Vector_36" fill-rule="evenodd" clip-rule="evenodd" d="M9.74247 3.00821C9.74247 3.00821 9.6428 3.04959 9.47324 3.04959C9.3257 3.04959 9.36709 2.99268 9.13669 2.99268C8.78204 2.99268 7.54317 3.19748 7.32566 3.19457C7.18452 3.19201 7.80199 3.25542 7.80199 3.25542L9.38006 3.27743L9.69716 3.25183L9.815 3.01205L9.74247 3.00821Z" fill="#A88F33"/>
<path id="Vector_37" fill-rule="evenodd" clip-rule="evenodd" d="M5.64806 6.09312C5.64806 6.09312 5.44607 6.24715 5.36065 6.36499C5.27523 6.48284 5.22992 6.5604 5.13281 6.65623C5.15561 6.6571 5.17838 6.65404 5.20014 6.64719C5.20014 6.64719 5.20014 6.67279 5.18461 6.67953C5.19803 6.67803 5.21162 6.67955 5.22437 6.68398C5.23713 6.68841 5.24874 6.69563 5.25834 6.70513C5.22984 6.72066 5.15218 6.7984 5.21303 6.8903C5.25834 6.96019 5.35417 6.96659 5.35417 6.96659C5.35417 6.96659 5.33215 7.03008 5.42406 7.02359C5.62211 7.01455 5.84347 6.92776 5.9457 6.94978C6.0481 6.97538 6.1063 6.98477 6.17874 7.11038C6.25554 7.23462 6.32244 7.25408 6.32244 7.25408C6.32244 7.25408 6.36776 7.13879 6.35743 6.96668C6.39458 6.8739 6.41518 6.77532 6.41827 6.67543L6.35095 6.17965L6.05714 5.80811L5.67656 6.01913L5.64806 6.09286V6.09312Z" fill="#E3C571"/>
<path id="Vector_38" fill-rule="evenodd" clip-rule="evenodd" d="M6.01562 6.01953C6.01562 6.01953 6.04413 6.08685 6.16325 6.09325C6.15028 6.12175 6.15028 6.12568 6.15421 6.14761C6.15677 6.16963 6.16061 6.20197 6.16061 6.20197C6.17372 6.19562 6.18558 6.18695 6.19559 6.17637C6.20208 6.20487 6.18911 6.2501 6.19559 6.28252C6.19959 6.30224 6.2061 6.32137 6.21496 6.33944C6.21685 6.33501 6.21902 6.33071 6.22145 6.32655C6.22401 6.32007 6.24705 6.39644 6.31079 6.45455C6.31074 6.44562 6.31294 6.43681 6.31719 6.42895C6.31817 6.44519 6.32354 6.46085 6.33272 6.47427C6.32795 6.47199 6.3236 6.46894 6.31984 6.46522C6.31984 6.46522 6.32624 6.67002 6.36123 6.77592C6.36707 6.76908 6.37227 6.76171 6.37676 6.7539C6.37676 6.7475 6.3742 6.81091 6.36771 6.8563C6.35867 6.90162 6.36515 6.96502 6.36515 6.96502C6.38849 6.94664 6.41414 6.93141 6.44144 6.91971C6.48026 6.90409 6.54384 6.85622 6.58258 6.75006C6.60505 6.68995 6.62238 6.62803 6.63438 6.56498C6.64689 6.58907 6.65553 6.61499 6.65998 6.64178C6.66262 6.67412 6.72347 6.65731 6.72347 6.65731L6.73644 6.51616L6.81324 6.19642L6.88312 5.99836L7.21968 5.47416L7.82776 5.00585L8.35854 5.12754L8.80637 4.51911L8.03487 4.05566L7.30476 4.13204L6.64214 5.0498L6.11145 5.88222L6.01562 6.01944V6.01953Z" fill="#D8B65B"/>
<path id="Vector_39" fill-rule="evenodd" clip-rule="evenodd" d="M9.83622 4.69142C9.83622 4.69142 9.79091 4.70047 9.66018 4.76822C9.52945 4.83598 9.43882 4.85748 9.38831 4.95715C9.33779 5.05682 9.33395 5.13584 9.33395 5.13584C9.33395 5.13584 9.42329 5.09701 9.47509 5.08404C9.52945 5.07115 9.59029 5.07499 9.58381 5.09701C9.57758 5.11211 9.56893 5.12609 9.55821 5.1384C9.55821 5.1384 9.6606 5.13584 9.65787 5.18635C9.65514 5.23687 9.6385 5.29251 9.61913 5.31709C9.59968 5.34269 9.51946 5.38057 9.51042 5.41035C9.4884 5.4712 9.51946 5.47376 9.50777 5.52291C9.49873 5.57087 9.45606 5.66405 9.3162 5.82712C9.1725 5.99028 9.1114 6.10548 9.1114 6.10548C9.1114 6.10548 9.04151 5.97475 9.00524 5.86211C8.97965 5.87499 8.84217 5.95137 8.84217 5.95137L8.52371 4.84203L8.53011 4.76822C8.53011 4.76822 8.55861 4.73332 8.5651 4.66855C8.51722 4.65302 8.51074 4.64005 8.44725 4.57929C8.38376 4.51854 8.33205 4.44464 8.22598 4.39412C8.21045 4.36562 8.19099 4.32688 8.11334 4.31126C8.03569 4.29565 7.9891 4.28285 7.9891 4.28285C7.9891 4.28285 8.03048 4.26723 8.04994 4.23489C8.00198 4.24137 7.96324 4.2569 7.85836 4.25434C7.75221 4.2517 7.74052 4.24786 7.68232 4.2569C7.62412 4.26595 7.55432 4.29189 7.5283 4.20255C7.49979 4.18053 7.43895 4.19999 7.38715 4.27627C7.33536 4.35256 7.31727 4.41349 7.2176 4.44327C7.21059 4.48721 7.19521 4.52939 7.17229 4.56752C7.14378 4.61547 7.09847 4.66335 7.03763 4.73451C6.9418 4.84715 6.95733 5.03224 6.80458 5.17338C6.65056 5.31444 6.83018 4.78239 6.83018 4.78239L7.07611 4.19359L7.77645 3.50879L8.86385 3.43506L8.97 3.99826L9.50078 4.18079L9.83605 4.6921L9.83622 4.69142Z" fill="#D3AE4D"/>
<path id="Vector_40" fill-rule="evenodd" clip-rule="evenodd" d="M10.0086 4.81557L9.55163 4.15671L9.23188 3.9107C9.23188 3.9107 9.00404 3.49137 8.98851 3.4784C8.97554 3.46935 8.76067 3.44606 8.62346 3.43701L8.64906 3.50041C8.679 3.51014 8.70561 3.52809 8.72586 3.55221C8.7867 3.6221 8.82552 3.75411 8.68703 3.89525C8.74139 3.91462 8.76383 3.92085 8.81127 3.91462C8.7634 3.97163 8.65469 4.09331 8.6482 4.19947C8.64172 4.28616 8.69607 4.31202 8.69607 4.31202C8.69607 4.31202 8.61321 4.40785 8.60938 4.56802C8.6485 4.52389 8.69133 4.48318 8.73738 4.44633C8.8332 4.36953 8.96522 4.28318 9.05456 4.22882C9.05334 4.25163 9.05641 4.27447 9.0636 4.29615C9.0636 4.29615 9.23052 4.15893 9.3708 4.21977C9.43421 4.24828 9.40571 4.33762 9.40571 4.33762C9.40571 4.33762 9.49249 4.30528 9.55333 4.36612C9.61417 4.42696 9.70087 4.58355 9.74491 4.64448C9.76428 4.67298 9.81479 4.72734 9.86651 4.81139C9.93717 4.92921 9.99616 5.05365 10.0426 5.18293C10.0452 5.13113 10.0556 5.05869 10.145 5.05869L10.0091 4.81532L10.0086 4.81557Z" fill="#CAA13E"/>
<path id="Vector_41" fill-rule="evenodd" clip-rule="evenodd" d="M3.155 6.68762C3.155 6.68762 3.12266 6.60732 3.155 6.45073C3.18734 6.29415 3.23786 6.22033 3.25467 5.98993C3.27148 5.75953 3.42167 5.47213 3.42167 5.47213L3.83715 5.2832L4.13104 5.36342L4.21774 5.75697L3.8462 5.96177C3.8462 5.96177 3.82683 6.04847 3.72195 6.11836C3.61708 6.18825 3.4721 6.24261 3.4372 6.31386C3.41633 6.35749 3.40111 6.4036 3.39188 6.45108C3.39188 6.45108 3.28573 6.42906 3.22233 6.49895C3.155 6.5702 3.15756 6.6336 3.155 6.68796V6.68762Z" fill="#F4EFC8"/>
<path id="Vector_42" fill-rule="evenodd" clip-rule="evenodd" d="M3.99611 6.58241C3.99611 6.58241 3.96112 6.60443 3.93527 6.65921C3.90967 6.61783 3.84848 6.37181 3.84592 6.15046C3.84336 5.9291 3.83014 5.87423 3.88134 5.79794C3.93254 5.72166 4.13333 5.64127 4.10482 5.50388C4.07632 5.37315 3.9572 5.3188 3.81094 5.35634C3.70854 5.38194 3.63233 5.59971 3.52618 5.70843C3.44588 5.79129 3.35014 5.77832 3.32428 5.82363C3.28929 5.88447 3.32163 5.94531 3.31131 5.98414C3.30866 5.99711 3.27632 6.067 3.21804 6.15114C3.10028 6.3207 2.90094 6.56023 2.875 6.7751C2.88405 6.65341 2.87765 6.65085 2.90999 6.51619L2.89053 6.48385L3.01853 6.06444L3.10139 5.71884L3.28656 5.14011L3.61271 4.54858L3.92989 4.19385L4.25996 4.21586L4.29879 4.71165L4.4878 5.64247L4.8852 6.13177L4.24827 6.5604L3.99585 6.58241H3.99611Z" fill="#EBCC73"/>
<path id="Vector_43" fill-rule="evenodd" clip-rule="evenodd" d="M4.1964 6.75862C4.1964 6.75862 4.14204 6.77159 4.12259 6.76127C4.10313 6.75094 4.08385 6.73925 4.09025 6.72628C4.09665 6.71331 4.13163 6.69138 4.13163 6.68097C4.13235 6.67156 4.12938 6.66224 4.12334 6.65499C4.1173 6.64774 4.10867 6.64313 4.09929 6.64214C4.06951 6.6383 4.06047 6.65767 4.06047 6.65767C4.06047 6.65767 4.03196 6.63574 4.00875 6.63207C4.02249 6.63039 4.0363 6.62951 4.05014 6.62943C4.01437 6.61322 3.97642 6.60233 3.9375 6.59708C3.96984 6.57771 4.03333 6.52071 4.07472 6.52071C4.1161 6.52071 4.14204 6.51431 4.13556 6.49229C4.12907 6.47028 4.09673 6.43794 4.06183 6.42497C4.07472 6.40944 4.08385 6.38614 4.05279 6.32257C4.02036 6.25916 4.03333 6.21641 4.04374 6.20097C4.05279 6.18151 4.08513 6.14661 4.10066 6.12459C4.11619 6.10258 4.12916 6.0728 4.15501 6.05727C4.16799 6.04822 4.20937 6.03167 4.25084 6.01588C4.29616 6.00035 4.3337 5.98089 4.35956 6.00035C4.38806 6.01972 4.37509 6.04566 4.37509 6.04566C4.37509 6.04566 4.46443 6.01323 4.54465 6.05471C4.62495 6.09345 4.82044 6.11811 4.82044 6.11811L4.8905 6.25925L4.42706 6.65665L4.23548 6.75248L4.19666 6.75888L4.1964 6.75862Z" fill="#E5C66B"/>
<path id="Vector_44" fill-rule="evenodd" clip-rule="evenodd" d="M4.84261 6.10874C4.84261 6.10874 4.69891 6.20457 4.66657 6.23947C4.68594 6.24212 4.71828 6.25509 4.70531 6.27446C4.68978 6.29383 4.5966 6.36116 4.5448 6.42464C4.49044 6.48805 4.43865 6.56835 4.42055 6.60717C4.40118 6.64207 4.25356 6.74439 4.20312 6.75727C4.30928 6.75727 4.52287 6.62654 4.60308 6.62654C4.60052 6.66537 4.6251 6.7094 4.67041 6.71324C4.71572 6.71708 4.84645 6.74174 5.0225 6.63303C5.19854 6.52687 5.14034 6.44785 5.21407 6.39614C5.35521 6.30287 5.41213 6.22001 5.48978 6.1683C5.56743 6.11659 5.60763 6.10481 5.60763 6.10481C5.60763 6.10481 5.61019 6.06599 5.63323 6.06991C5.63953 6.07064 5.64552 6.07307 5.65055 6.07695C5.65557 6.08083 5.65944 6.08601 5.66173 6.09193C5.66173 6.09193 5.79638 5.9961 5.96893 5.97024C5.9649 5.96844 5.96168 5.96522 5.95988 5.9612C5.95988 5.9612 5.97277 5.95471 5.97541 5.94823C5.97541 5.94823 5.98446 5.93526 5.99094 5.94174C5.99743 5.94823 6.00647 5.9961 6.01945 6.01556C6.04795 6.00259 6.1023 5.8809 6.1023 5.8809L6.23312 5.5068V5.16504L6.13072 5.18449L5.36272 5.51064L4.89663 5.99354L4.84227 6.10874H4.84261Z" fill="#E6BD62"/>
<path id="Vector_45" fill-rule="evenodd" clip-rule="evenodd" d="M7.047 4.43241C7.08854 4.42233 7.12837 4.40617 7.16519 4.38445C7.14966 4.42592 7.14966 4.47123 7.08233 4.56962C7.015 4.66801 7.01244 4.68226 6.95808 4.78449C6.90373 4.89065 6.89724 5.04339 6.84544 5.11064C6.86866 5.09936 6.89357 5.09195 6.91917 5.08871C6.91917 5.08871 6.86746 5.13402 6.84544 5.18189C6.82343 5.22976 6.7846 5.32943 6.68886 5.39036C6.59311 5.45129 6.47134 5.49003 6.34061 5.63373C6.2098 5.77479 6.07523 5.95347 6.00781 6.01773C6.0428 5.95689 6.09067 5.8352 6.10364 5.75499C6.11661 5.67478 6.101 5.57886 6.12301 5.47279C6.14503 5.36672 6.14503 5.29026 6.25101 5.10509C6.357 4.91992 6.53842 4.27659 6.53842 4.27659L6.92933 4.15234L7.04717 4.43198L7.047 4.43241Z" fill="#B6933F"/>
<path id="Vector_46" fill-rule="evenodd" clip-rule="evenodd" d="M6.76674 4.19547C6.76674 4.19547 6.64898 4.36503 6.61664 4.51521C6.5843 4.6654 6.614 4.65243 6.59463 4.72624C6.58304 4.77125 6.58304 4.81845 6.59463 4.86346C6.63541 4.79776 6.69125 4.74271 6.75753 4.70286C6.86889 4.63562 6.95951 4.58766 7.01353 4.53074C7.06789 4.4699 7.1132 4.37023 7.23096 4.29386C7.18309 4.28737 7.11576 4.26536 7.10296 4.26826C7.15091 4.2139 7.29453 4.13104 7.43951 4.03137C7.58321 3.92897 7.57417 3.88767 7.80721 3.78544C7.73084 3.79841 7.69457 3.77896 7.63109 3.78544C7.65669 3.73109 7.74629 3.70514 7.83589 3.61589C7.92549 3.52663 7.77897 3.39453 7.77897 3.39453L7.0963 3.80746L6.76623 4.19581L6.76674 4.19547Z" fill="#C49937"/>
<path id="Vector_47" fill-rule="evenodd" clip-rule="evenodd" d="M4.91406 3.88733L4.92959 3.76309L5.12509 3.44983L5.32964 2.89969V2.14756L5.31411 1.71261L5.34645 1.42777L5.37102 1.33723L5.39696 1.30225L5.56388 1.38894L5.79436 1.7022L5.81638 2.30679L5.59238 3.26082L4.95289 3.95859L4.91406 3.88733Z" fill="#DFC068"/>
<path id="Vector_48" fill-rule="evenodd" clip-rule="evenodd" d="M5.42642 1.26737C5.42642 1.26737 5.32402 1.27001 5.30217 1.69591C5.28033 2.12181 5.26975 2.34573 5.25422 2.55676C5.23869 2.76778 5.2025 2.89587 5.18433 3.0202C5.16615 3.14453 5.15583 3.314 5.09763 3.4176C5.07203 3.46547 5.01733 3.61566 4.88916 3.7283C4.74546 3.85254 4.53076 3.93933 4.49825 3.94581C4.44125 3.9587 4.15256 3.9872 4.0348 4.05197C3.99342 4.07398 3.92216 4.09984 3.84323 4.17365C3.68656 4.31471 3.47817 4.56712 3.32799 4.87134C3.09759 5.32574 2.86719 6.60855 2.86719 6.60855L2.91898 6.52185C2.91898 6.52185 2.92547 6.40665 3.04067 6.20467C3.15331 6.00277 3.12097 5.77621 3.27756 5.38914C3.3384 5.2416 3.41477 5.05002 3.50796 4.88687C3.65558 4.62148 3.83418 4.39364 4.01415 4.2694C4.30796 4.0675 4.63162 4.02346 4.63162 4.02346L4.97987 3.79306C4.97987 3.79306 5.04071 3.6753 5.12101 3.54065C5.23357 3.35172 5.37701 3.14069 5.40833 2.83392C5.45629 2.37952 5.341 2.08179 5.34749 1.81256C5.35397 1.54334 5.35653 1.34528 5.41097 1.29732C5.46542 1.24936 5.42651 1.26754 5.42651 1.26754L5.42642 1.26737Z" fill="#A88F33"/>
<path id="Vector_49" fill-rule="evenodd" clip-rule="evenodd" d="M5.42595 3.2998C5.42595 3.2998 5.57955 2.92177 5.64986 2.5865C5.66284 2.51917 5.68869 2.45193 5.69518 2.39757C5.72752 2.08039 5.73656 1.94966 5.69518 1.77617C5.66284 1.64817 5.53859 1.5328 5.47382 1.44337C5.41042 1.3501 5.38064 1.31537 5.39361 1.29575C5.40658 1.27612 5.45701 1.24403 5.50616 1.24787C5.55841 1.24939 5.6098 1.26153 5.65722 1.28353C5.70463 1.30554 5.74707 1.33695 5.78196 1.37587C5.88163 1.49107 5.96056 1.88207 5.96056 1.88207L6.04359 2.398L6.25462 3.04781L5.42612 3.30031L5.42595 3.2998Z" fill="#C99E3D"/>
<path id="Vector_50" fill-rule="evenodd" clip-rule="evenodd" d="M6.86922 2.90624C6.86922 2.90624 6.84071 2.91912 6.789 2.90624C6.79121 2.92737 6.78754 2.9487 6.7784 2.96788C6.76926 2.98706 6.75501 3.00335 6.73721 3.01495C6.68285 2.99294 6.17401 3.03697 6.17401 3.03697C6.17401 3.03697 5.93712 2.9955 5.86331 2.68224C5.81159 2.47377 5.90213 2.18645 5.87235 1.99744C5.82704 1.71908 5.76364 1.66464 5.75715 1.57802C5.75067 1.49141 5.74418 1.46931 5.74418 1.41495C5.71568 1.40847 5.69887 1.39942 5.67045 1.39942C5.66397 1.37382 5.67685 1.35146 5.64844 1.30615C5.66397 1.31264 5.77012 1.32561 5.89437 1.44337C5.99677 1.5392 5.99677 1.5741 6.01221 1.59356C6.03158 1.61293 6.18826 1.74715 6.25558 1.88096C6.32291 2.01476 6.45364 2.44143 6.48342 2.51131C6.49247 2.53982 6.51193 2.56832 6.56022 2.633C6.63532 2.72627 6.74531 2.88047 6.86956 2.90607L6.86922 2.90624Z" fill="#B58634"/>
<path id="Vector_51" fill-rule="evenodd" clip-rule="evenodd" d="M6.03125 1.6001C6.10967 1.72678 6.18012 1.85822 6.24219 1.99365C6.31857 2.16577 6.36388 2.30691 6.45971 2.42211C6.40791 2.27201 6.31601 1.97684 6.26165 1.87197C6.20081 1.76104 6.07656 1.64157 6.03125 1.60018V1.6001Z" fill="#A88F33"/>
<path id="Vector_52" fill-rule="evenodd" clip-rule="evenodd" d="M5.14699 3.72811C5.14699 3.72811 5.01626 3.76045 4.77289 3.88862C4.69259 3.93001 4.6163 3.96491 4.54249 3.99734C4.35074 4.08404 4.14509 4.16417 3.98193 4.20837C3.9949 4.2239 4.0013 4.2303 4.0013 4.2303C4.0013 4.2303 4.0013 4.29379 4.03629 4.32997C4.01692 4.34942 3.75793 4.52547 3.83439 5.11444C3.8861 5.09507 3.94695 5.06913 3.95599 5.06913C3.97161 5.07177 3.97545 5.11444 3.99482 5.11444C4.01419 5.11444 4.07768 5.08884 4.145 5.0018C4.14244 5.03678 4.10362 5.38887 4.312 5.62576C4.35083 5.58044 4.44922 5.43026 4.44922 5.43026L4.45178 5.38238C4.45178 5.38238 4.46082 5.21539 4.51527 5.06264C4.56971 4.90989 4.67578 4.79725 4.67578 4.79725L5.22968 4.0063L5.14682 3.72803L5.14699 3.72811Z" fill="#E6C367"/>
<path id="Vector_53" fill-rule="evenodd" clip-rule="evenodd" d="M4.62887 4.8895C4.60351 4.90742 4.57557 4.92137 4.54601 4.93088C4.53696 4.89854 4.52399 4.78718 4.60036 4.67847C4.68971 4.54765 4.88512 4.37809 4.93948 4.24327C4.97447 4.15648 4.95894 3.93905 5.26963 3.6607C5.58033 3.38234 5.70193 3.2866 5.70193 3.2866L6.2042 3.03418L6.82168 3.27755L6.5149 4.4799L6.27674 5.0431L5.32954 4.86449L4.62878 4.8895H4.62887Z" fill="#DCBA5A"/>
<path id="Vector_54" fill-rule="evenodd" clip-rule="evenodd" d="M4.99219 4.56296L5.11003 4.41542V4.31054C5.11003 4.31054 5.24076 4.27555 5.38182 4.13185C5.52288 3.98815 5.71837 3.71244 5.89058 3.72925C6.06278 3.74871 6.07959 4.10335 6.08608 4.20311C6.09256 4.30286 6.11458 4.52925 6.14948 4.65102C6.1883 4.77271 5.73006 5.23351 5.73006 5.23351L5.41885 5.47039L4.99219 4.56296Z" fill="#E9CE77"/>
<path id="Vector_55" fill-rule="evenodd" clip-rule="evenodd" d="M5.35938 5.79161C5.35938 5.79161 5.4552 5.64142 5.38497 5.60908C5.42636 5.51589 5.50274 5.4175 5.50274 5.4175C5.50274 5.4175 5.55709 5.28293 5.73314 5.11722C5.90918 4.9515 6.01798 4.84142 6.04648 4.73014C6.06405 4.65762 6.07361 4.58339 6.07498 4.50879C6.09401 4.52434 6.11437 4.53819 6.13582 4.55018C6.16432 4.56315 6.2989 4.67442 6.27952 4.89842C6.26015 5.12242 6.17712 5.21561 6.17712 5.21561C6.17712 5.21561 6.09691 5.29582 6.03999 5.33729C5.97907 5.37868 5.95713 5.42655 5.85482 5.43047C5.86534 5.42211 5.87716 5.41554 5.88981 5.41102C5.88981 5.41102 5.78365 5.39813 5.72665 5.44985C5.66965 5.50156 5.54847 5.66087 5.48763 5.70883C5.42679 5.74766 5.35963 5.79169 5.35963 5.79169L5.35938 5.79161Z" fill="#CDAE50"/>
<path id="Vector_56" fill-rule="evenodd" clip-rule="evenodd" d="M9.66355 3.27376C9.51061 3.21802 9.34988 3.18658 9.18722 3.18058C8.91534 3.17153 8.51795 3.18706 8.12831 3.18962C7.7089 3.19218 7.32831 3.04592 6.80019 3.02006C6.71349 2.96827 6.49299 2.74171 5.80469 3.22196C5.84607 3.2194 6.3044 3.11581 6.46355 3.31523C6.62406 3.51329 6.57875 3.84984 6.55682 3.93006C6.51534 4.10875 6.38069 4.36893 6.32642 4.55146C6.27214 4.73398 6.28494 4.8299 6.24612 4.9579C6.20729 5.0859 6.12187 5.14947 6.1723 5.29701C6.23963 5.25563 6.2747 5.25563 6.38717 5.00321C6.49964 4.75079 6.47652 4.57083 6.66297 4.35724C6.8455 4.14237 7.14937 3.84848 7.26491 3.77467C7.38045 3.70085 8.29787 3.22452 9.25847 3.67892C9.49015 3.65435 9.66363 3.27367 9.66363 3.27367L9.66355 3.27376Z" fill="#D2A83E"/>
<path id="Vector_57" fill-rule="evenodd" clip-rule="evenodd" d="M6.19255 3.09761C6.1916 3.08789 6.18945 3.07831 6.18615 3.06911C6.17716 3.05018 6.16537 3.03272 6.15116 3.01732C6.15116 3.01732 5.92332 2.97593 5.80812 2.98881C5.60614 3.01083 5.42361 3.26069 5.33819 3.38886C5.25277 3.51703 5.14662 3.715 5.03142 3.81732C5.03268 3.80735 5.03038 3.79726 5.02493 3.78881C5.02493 3.78881 5.03142 3.79786 5.01853 3.81083C5.00565 3.8238 5.00556 3.8302 5.01205 3.83643L5.0315 3.8558C5.0379 3.8558 5.21659 3.7755 5.45996 3.5486C5.71886 3.31172 5.91692 3.1902 6.02052 3.14856C6.07576 3.12508 6.13351 3.10799 6.19263 3.09761H6.19255Z" fill="#C29637"/>
<path id="Vector_58" fill-rule="evenodd" clip-rule="evenodd" d="M10.6103 2.12451C10.6103 2.12451 10.5688 2.17622 10.5171 2.23323C10.4018 2.35491 10.2517 2.49204 10.1235 2.63318C10.0019 2.76784 9.86468 2.87271 9.71056 3.04876C9.55645 3.2248 9.37776 3.42021 9.33254 3.47722C9.29115 3.53422 9.25881 3.6274 9.25881 3.67527C9.23679 3.65974 9.21094 3.64293 9.21094 3.64293C9.22182 3.66326 9.23484 3.68236 9.24976 3.69994C9.28211 3.74525 9.33254 3.80234 9.35848 3.83715C9.39031 3.88147 9.41315 3.9316 9.42572 3.98469C9.44125 3.98725 9.54092 4.00671 9.66525 3.80217C9.78958 3.59762 9.95257 3.37371 9.95257 3.37371L10.2115 2.98919L10.3746 2.66305L10.5794 2.29799L10.6106 2.12451H10.6103Z" fill="#AC8132"/>
<path id="Vector_59" fill-rule="evenodd" clip-rule="evenodd" d="M10.8754 1.86279C10.8754 1.86279 10.7188 1.99079 10.6579 2.06759C10.5971 2.14439 10.4531 2.34595 10.4531 2.34595L10.5049 2.33946L10.7677 2.1065L10.8701 1.92398L10.8754 1.86313L10.8754 1.86279Z" fill="#A88F33"/>
<path id="Vector_60" fill-rule="evenodd" clip-rule="evenodd" d="M10.8288 12.1501C10.8288 12.1501 10.8262 12.0439 10.8858 11.9805C10.9467 11.917 11.1007 11.8239 11.2509 11.4743C11.4011 11.1248 11.4178 11.0459 11.4178 11.0459C11.4178 11.0459 11.1486 11.2763 10.9826 11.3306C11.0214 11.2503 11.0434 11.1934 11.0629 11.152C11.0409 11.1326 10.9477 11.1106 10.9386 11.1002C10.9903 11.0484 11.0188 10.9216 11.1237 10.8374C11.2584 10.735 11.5043 10.5591 11.6955 10.4022C11.8866 10.2454 12.2624 9.88057 12.3104 9.77441C12.3389 9.8158 12.3453 9.84166 12.3453 9.84166C12.3453 9.84166 12.1563 10.0877 12.0579 10.2443C11.9712 10.3789 11.9777 10.4553 11.9777 10.4553L12.1563 10.3785C12.1563 10.3785 12.2081 10.5701 11.9738 10.8614C12.0762 10.8226 12.1175 10.8459 12.1757 10.8134C12.0799 10.8744 11.9479 10.9572 11.8236 11.185C11.7019 11.4128 11.5362 11.6782 11.2567 11.8438C10.9848 12.0186 10.8281 12.1493 10.8281 12.1493L10.8288 12.1501Z" fill="#A67A2E"/>
<path id="Vector_61" fill-rule="evenodd" clip-rule="evenodd" d="M10.1235 3.40844C10.1235 3.40844 10.0173 3.62971 10.0018 3.80191C9.99923 3.84338 9.98882 3.87572 9.98882 3.9236C9.98626 4.07762 9.99786 4.24983 9.96322 4.33004C9.95025 4.2977 9.94376 4.27568 9.93079 4.2628C9.91142 4.31715 9.87643 4.48671 9.84793 4.55011C9.83505 4.50873 9.80654 4.36503 9.80919 4.19547C9.81184 4.02591 9.81559 3.99348 9.81559 3.95858C9.80919 4.0103 9.7742 4.08027 9.76123 4.12166C9.74186 4.08675 9.71985 4.04144 9.6939 4.0039C9.67837 4.0295 9.659 4.0673 9.64219 4.08675C9.63955 4.07122 9.63315 4.02975 9.62922 3.97155C9.62666 3.90423 9.62274 3.81753 9.62666 3.79935C9.63306 3.76445 9.6875 3.62723 9.8027 3.50162C9.93992 3.35144 10.0811 3.06284 10.1224 2.9735C10.1638 2.88415 10.3399 2.5127 10.3399 2.5127H10.4745L10.279 2.95796C10.279 2.95796 10.1613 3.20134 10.1004 3.29076C10.0396 3.38019 9.91142 3.63645 9.85442 3.73612C9.8958 3.68176 9.93079 3.65326 9.97226 3.60146C10.0124 3.5652 10.1236 3.40861 10.1236 3.40861L10.1235 3.40844Z" fill="#8C6228"/>
<path id="Vector_62" fill-rule="evenodd" clip-rule="evenodd" d="M10.8751 1.8457C10.8531 1.9134 10.8183 1.97626 10.7727 2.03088C10.6924 2.12671 10.5202 2.25479 10.4361 2.35702C10.3593 2.45669 10.2057 2.72856 10.2755 3.05087C10.3011 2.98098 10.3494 2.84248 10.4775 2.68581C10.6057 2.52914 10.7429 2.34926 10.8103 2.20948C10.8776 2.06834 10.8866 1.95706 10.8866 1.95706L10.9122 1.92472L10.8967 1.85091L10.8747 1.8457H10.8751Z" fill="#CBA94C"/>
<path id="Vector_63" fill-rule="evenodd" clip-rule="evenodd" d="M13.496 10.4326C13.496 10.4326 13.4442 10.2915 13.4287 10.1633C13.4132 10.0352 13.4543 10.0097 13.4067 9.86305C13.3782 9.77371 13.3265 9.78625 13.3135 9.77371C13.3005 9.76116 13.2915 9.62616 13.2941 9.55235C13.2966 9.47854 13.2915 9.38279 13.2785 9.34132C13.2592 9.32579 13.2462 9.31282 13.2177 9.21708C13.1853 9.12125 13.1698 9.07338 13.1543 9.04496C13.1387 9.01654 13.0934 8.9906 13.0934 8.9621C13.0934 8.9051 13.1451 8.8754 13.1451 8.8597C13.1426 8.82736 13.1038 8.8533 13.0934 8.84417C13.0805 8.82864 13.1258 8.73546 13.109 8.72248C13.1025 8.71608 13.0572 8.77044 13.0455 8.75491C13.0325 8.73929 13.017 8.58527 12.9937 8.48304C12.9718 8.38337 12.9484 8.31092 12.9458 8.28114C12.9433 8.25264 12.7671 7.75037 12.7245 7.62868C12.6901 7.52586 12.6611 7.42129 12.6378 7.31542C12.6248 7.25458 12.6157 7.13025 12.6093 7.14322C12.6028 7.15619 12.6067 7.21959 12.5963 7.21703C12.5872 7.21439 12.5549 6.99312 12.5446 6.95813C12.5355 6.92315 12.4811 6.80453 12.4678 6.71869C12.4548 6.6319 12.4264 6.40534 12.4069 6.25132C12.3875 6.09729 12.3784 6.03389 12.3784 5.99532C12.3816 5.90098 12.3764 5.80654 12.3629 5.71312C12.3373 5.54996 12.2861 5.3519 12.2412 5.23679C12.1545 5.01927 11.924 4.46264 11.8828 4.32415C11.8828 4.28916 11.9281 4.30862 11.9281 4.30862C11.9281 4.30862 12.0407 4.59081 12.1235 4.80824C12.2038 5.02576 12.2802 5.21733 12.2997 5.23679C12.3152 5.25616 12.4369 5.46975 12.4912 5.81927C12.5456 6.1688 12.565 6.4911 12.5974 6.70597C12.6129 6.80837 12.6259 6.917 12.6582 7.02572C12.6931 7.14356 12.7475 7.26525 12.8187 7.45161C12.8796 7.60829 12.9249 7.73902 12.9495 7.85166C12.978 7.99536 12.978 8.10407 12.9948 8.17533C13.0104 8.23617 13.0336 8.35777 13.0881 8.53373C13.1425 8.70968 13.2226 8.93633 13.277 9.07739C13.3832 9.35958 13.4306 9.59519 13.4466 9.7208C13.4608 9.85025 13.5088 10.2982 13.4958 10.4327L13.496 10.4326Z" fill="#A88F33"/>
<path id="Vector_64" fill-rule="evenodd" clip-rule="evenodd" d="M10.8819 1.83018L10.8754 1.84571C10.8754 1.84571 10.8948 1.8522 10.891 1.87814C10.8912 1.91363 10.8891 1.9491 10.8845 1.98429C10.8781 2.02961 10.8651 2.06451 10.8625 2.09301C10.8625 2.15385 10.8716 2.22374 10.7857 2.39722C10.7601 2.4451 10.7444 2.48648 10.7314 2.51498C10.699 2.58487 10.6926 2.59528 10.6641 2.62762C10.7094 2.60202 10.8725 2.49962 10.9553 2.51498C10.8984 2.54732 10.8116 2.61081 10.7572 2.69367C10.7702 2.69623 10.8246 2.70664 10.9108 2.69367C11.0545 2.67165 11.2151 2.61986 11.3561 2.63018C11.5102 2.63923 11.4494 2.44509 11.4494 2.44509L11.2715 2.05418L10.935 1.81738L10.8819 1.83027V1.83018Z" fill="#BE9C44"/>
<path id="Vector_65" fill-rule="evenodd" clip-rule="evenodd" d="M11.7592 4.7585C11.7592 4.7585 11.609 4.60831 11.5482 4.0929C11.4873 3.57509 11.5003 2.8129 11.5003 2.8129L11.3786 2.51517C11.3786 2.51517 11.353 2.31711 11.2893 2.24338C11.2255 2.16965 11.1003 2.04532 11.0433 1.98448C10.9863 1.92364 10.9216 1.84078 10.8828 1.82781C10.9022 1.79547 10.989 1.61294 11.3216 1.61038C11.6542 1.60782 11.7568 1.79291 11.7915 1.86023C11.8263 1.92756 11.9831 2.21863 12.0413 2.7733C12.0957 3.32728 12.0983 3.36876 12.0893 3.56033C12.0828 3.66648 12.0478 3.91242 11.9869 4.17516C11.9312 4.39788 11.8704 4.64645 11.759 4.75901L11.7592 4.7585Z" fill="#A17C34"/>
<path id="Vector_66" fill-rule="evenodd" clip-rule="evenodd" d="M11.2896 5.20011C11.3397 5.20372 11.3897 5.19244 11.4333 5.16768C11.4812 5.16512 11.6547 5.18714 11.788 5.01758C11.797 5.05632 11.8204 5.16128 11.7595 5.25446C11.7919 5.22204 11.8398 5.20915 11.8462 5.20011C11.8488 5.24798 11.8941 5.39552 11.7025 5.75409C11.7543 5.69717 11.8151 5.69973 11.8695 5.69325C11.8721 5.76058 11.9083 5.98705 11.8125 6.10882C11.7491 6.19168 11.6455 6.16574 11.6455 6.16574C11.6471 6.14765 11.6471 6.12947 11.6455 6.11138C11.643 6.07639 11.63 6.04149 11.6391 6.0182C11.5891 5.99533 11.5435 5.96375 11.5045 5.92493C11.3918 5.81877 11.2456 5.63761 11.2353 5.50295C11.2223 5.35277 11.3569 5.32043 11.3569 5.32043C11.3457 5.31033 11.336 5.29853 11.3284 5.28544C11.322 5.26351 11.3155 5.22852 11.2896 5.20011Z" fill="#8C6228"/>
<path id="Vector_67" fill-rule="evenodd" clip-rule="evenodd" d="M10.2914 3.57155C10.2914 3.57155 10.2849 3.5625 10.25 3.60389C10.2565 3.5625 10.263 3.52359 10.2655 3.48604C10.2821 3.45128 10.3034 3.41905 10.329 3.3903C10.3096 3.42904 10.2966 3.46403 10.2966 3.46403C10.2966 3.46403 10.3445 3.37469 10.4144 3.32033C10.4623 3.2815 10.5232 3.26341 10.549 3.22714C10.5775 3.18832 10.571 3.18183 10.5775 3.17535C10.5775 3.17535 10.641 3.13396 10.7381 3.01219C10.751 2.99666 10.7704 2.97985 10.7834 2.96432C10.8053 2.95527 10.8571 2.93198 10.918 2.90083C10.9815 2.86593 11.0526 2.81806 11.0967 2.79843C11.1834 2.7596 11.2754 2.76353 11.318 2.7026C11.3504 2.69355 11.3853 2.59645 11.3789 2.51367C11.4267 2.53304 11.6727 2.68579 11.7569 3.01978C11.8177 3.25667 11.7089 3.62172 11.6636 3.79785C11.6183 3.97398 11.6119 4.10463 11.5484 4.18484C11.4681 4.29108 11.2093 4.44084 11.1458 4.51499C11.0915 4.57584 10.9284 4.72986 10.9348 4.84114C10.9413 4.924 11.0435 4.96914 11.0656 4.98484C11.0877 5.00054 11.0875 5.01983 11.129 5.01044C11.1705 5.00105 11.1859 4.98194 11.2028 4.98194C11.2222 4.9845 11.2222 4.98842 11.2312 4.98842C11.2378 4.98823 11.2443 4.98734 11.2507 4.98578C11.2507 4.98578 11.2442 5.10362 10.9685 5.13938C10.9491 5.14202 10.9297 5.14842 10.905 5.15235C10.9374 5.13682 10.9568 5.13682 10.9918 5.08895C10.953 5.08246 10.8416 5.07598 10.8131 5.06693C10.8222 5.0514 10.8519 5.00993 10.8765 4.99056C10.8985 4.97119 10.874 4.96496 10.8546 4.97503C10.8212 4.99772 10.7892 5.02233 10.7588 5.04875C10.7264 5.07726 10.6979 5.11608 10.6461 5.15115C10.6306 5.09936 10.6331 5.00097 10.6941 4.9298C10.6785 4.93236 10.6487 4.97767 10.6203 4.96863C10.6151 4.92141 10.6182 4.87366 10.6293 4.82748C10.6448 4.7692 10.729 4.66697 10.729 4.66697L11.1354 3.9407L11.2221 3.39056L10.2914 3.57138V3.57155Z" fill="#92723A"/>
<path id="Vector_68" fill-rule="evenodd" clip-rule="evenodd" d="M10.2715 3.60281C10.2715 3.60281 10.2495 3.61834 10.2935 3.64812C10.287 3.65717 10.2715 3.68951 10.252 3.71152C10.2301 3.73712 10.2067 3.75299 10.1977 3.77501C10.1783 3.82032 10.1628 3.85138 10.1628 3.87084C10.1628 3.8903 10.1563 4.01454 10.1019 4.09475C10.0825 4.12326 10.0605 4.17113 10.0449 4.20347C10.0126 4.26039 9.98409 4.30587 9.97761 4.33147C9.96472 4.37678 9.95568 4.50103 9.95568 4.50103C9.95568 4.50103 9.98418 4.46604 9.9945 4.45315C9.97889 4.4855 9.96208 4.5204 9.9375 4.54634C9.95303 4.53337 9.99834 4.50103 10.0747 4.4337C10.1809 4.34444 10.3466 4.19425 10.5486 4.0753C10.4876 4.09731 10.4359 4.09731 10.3945 4.1038C10.4269 4.07146 10.7181 3.7297 10.8709 3.69736C10.8801 3.6856 10.8848 3.67083 10.8838 3.65589L10.753 3.643L10.4876 3.69992L10.4489 3.49512L10.2715 3.60255V3.60281Z" fill="#B18E3E"/>
<path id="Vector_69" fill-rule="evenodd" clip-rule="evenodd" d="M10.6889 4.76753C10.6889 4.76753 10.6539 4.80244 10.6216 4.88922C10.5967 4.86322 10.5754 4.83404 10.5581 4.80244C10.5102 4.72222 10.4365 4.61991 10.2643 4.67819C10.2618 4.62383 10.2578 4.59533 10.2643 4.5565C10.2928 4.5501 10.3795 4.48022 10.4662 4.3779C10.5271 4.30801 10.5841 4.22772 10.6229 4.12549C10.6485 4.10603 10.6928 4.07369 10.7509 4.03614C10.8337 3.97922 10.9334 3.90149 10.9489 3.81479C10.9101 3.83032 10.8273 3.86914 10.7029 3.86274C10.7509 3.84073 10.8246 3.81743 10.8156 3.7216C10.835 3.70863 10.8506 3.69959 10.8506 3.69959C10.836 3.69472 10.8206 3.69252 10.8052 3.6931C10.8026 3.68406 10.7988 3.67117 10.7767 3.67757C10.7547 3.68397 10.7511 3.68406 10.7482 3.6931C10.7392 3.69575 10.7094 3.6931 10.6874 3.70872C10.6654 3.72433 10.6045 3.77596 10.5812 3.78501C10.5903 3.76948 10.6032 3.74626 10.6032 3.74626C10.6032 3.74626 10.5398 3.75266 10.4945 3.77186C10.4116 3.80037 10.3159 3.85216 10.2188 3.9026C10.2278 3.88706 10.2317 3.877 10.2381 3.87409C10.2445 3.87119 10.2601 3.86769 10.2601 3.86505C10.2601 3.8624 10.2537 3.83945 10.2576 3.83015C10.2866 3.76864 10.3209 3.70975 10.36 3.6541C10.4053 3.59318 10.4143 3.50648 10.4143 3.50648L10.6124 3.40681L11.169 3.27881L11.5302 3.30082L11.4849 3.55068L11.2716 3.9869L11.0891 4.3843L10.8806 4.62776L10.689 4.76753H10.6889Z" fill="#543E26"/>
<path id="Vector_70" fill-rule="evenodd" clip-rule="evenodd" d="M11.5918 3.68643C11.5918 3.68643 11.3742 3.95566 11.3134 3.99713C11.3522 3.91427 11.5918 3.42105 11.6785 3.28383C11.6591 3.2683 11.6331 3.2683 11.694 3.02783C11.6423 3.14943 11.6241 3.21292 11.5814 3.24526C11.5388 3.2776 11.5335 3.26728 11.5046 3.26728C11.5101 3.25743 11.5123 3.24612 11.511 3.23494C11.511 3.23494 11.3285 3.21292 11.2038 3.21292C11.0792 3.21292 10.8324 3.28025 10.6951 3.33461C10.5864 3.37992 10.5255 3.37992 10.4867 3.40833C10.4479 3.44067 10.4258 3.47566 10.4064 3.48471C10.3909 3.49375 10.3171 3.51705 10.3002 3.54162C10.2847 3.56722 10.2589 3.59598 10.2589 3.60247C10.2589 3.60895 10.2524 3.61808 10.2718 3.61151C10.2782 3.60895 10.3262 3.58301 10.3805 3.55067C10.4543 3.50928 10.5436 3.46141 10.6084 3.43291C10.7935 3.3591 10.8517 3.37207 10.9345 3.35654C11.0212 3.34101 11.1455 3.30474 11.2283 3.30474C11.3112 3.30218 11.4679 3.30474 11.5041 3.31122C11.4886 3.32419 11.4756 3.33973 11.4821 3.39408C11.4821 3.40961 11.4691 3.42642 11.4565 3.46397C11.4178 3.57013 11.3439 3.74617 11.3029 3.83551C11.246 3.95711 11.1813 4.05943 11.1493 4.12283C11.1173 4.18623 11.0469 4.35323 10.9772 4.44257C10.9075 4.53192 10.871 4.58627 10.8492 4.60573C10.8273 4.62519 10.6705 4.7403 10.6822 4.78177C10.7107 4.77273 10.8907 4.70497 11.0213 4.55786C11.1519 4.41074 11.178 4.32097 11.2802 4.24067C11.3824 4.16038 11.4627 4.02581 11.5106 3.91453C11.5507 3.81094 11.5417 3.77859 11.5921 3.68669L11.5918 3.68643Z" fill="#806031"/>
<path id="Vector_71" fill-rule="evenodd" clip-rule="evenodd" d="M6.9085 5.69574C6.9085 5.69574 6.88 5.8135 6.81523 5.87179C6.75183 5.92879 6.63919 5.97794 6.62631 6.07377C6.61077 6.16952 6.73895 6.21747 6.73895 6.21747C6.73895 6.21747 6.66897 6.33267 6.66897 6.41937C6.66897 6.50872 6.66641 6.52553 6.67546 6.61094C6.66519 6.61755 6.65646 6.62628 6.64986 6.63654C6.64986 6.63654 6.65626 6.7194 6.71975 6.77112C6.78323 6.82283 6.83751 6.85397 6.86985 6.841C6.87479 6.85156 6.87912 6.86238 6.88282 6.87343C6.88282 6.87343 6.93077 6.75174 6.96312 6.64559C6.99546 6.53688 7.02396 6.55232 7.03684 6.40606C7.04973 6.2598 7.19044 6.00866 7.19044 6.00866L7.28644 5.79405L7.12986 5.67236L6.9085 5.69566V5.69574Z" fill="#B6903C"/>
<path id="Vector_72" fill-rule="evenodd" clip-rule="evenodd" d="M7.19483 5.90674C7.16254 5.93989 7.13274 5.97537 7.10566 6.01289C7.06427 6.0699 7.03193 6.12161 6.97109 6.14371C6.91025 6.16581 6.87142 6.16564 6.87526 6.22657C6.8791 6.2875 6.9361 6.31327 6.96844 6.34433C7.00343 6.37667 7.03193 6.43103 7.0164 6.49195C7.03577 6.48291 7.07076 6.4725 7.1031 6.40261C7.13544 6.33272 7.36166 5.90682 7.36166 5.90682H7.19483V5.90674Z" fill="#685026"/>
<path id="Vector_73" fill-rule="evenodd" clip-rule="evenodd" d="M8.0908 4.92401C8.0908 4.92401 8.11017 4.8723 8.0908 4.83475C8.07135 4.79593 7.95359 4.78296 7.89531 4.73893C7.83446 4.69361 7.76065 4.66213 7.69981 4.68201C7.70885 4.65999 7.74512 4.61203 7.71534 4.60171C7.68684 4.59266 7.58077 4.64054 7.55227 4.66255C7.52376 4.68457 7.459 4.71042 7.44611 4.72604C7.43323 4.74166 7.41112 4.77135 7.39815 4.75838C7.38518 4.74934 7.37878 4.72604 7.35677 4.73893C7.33475 4.75181 7.22877 4.83859 7.20923 4.88911C7.18968 4.93963 7.14574 5.05227 7.01373 5.18035C6.88172 5.30844 6.82471 5.39138 6.86354 5.43926C6.90237 5.48713 6.92054 5.45223 6.92703 5.49361C6.93202 5.53424 6.92982 5.57543 6.92054 5.6153C6.90501 5.68263 6.87916 5.74603 6.91406 5.759C7.0034 5.7875 7.09019 5.7334 7.10956 5.74995C7.14838 5.78486 7.08754 5.91047 7.17944 5.93504C7.27271 5.96064 7.36462 5.91303 7.36462 5.91303L7.70373 5.7305L8.02996 5.55838L8.19687 5.22823L8.10736 4.95252L8.09029 4.92401H8.0908Z" fill="#D4B968"/>
<path id="Vector_74" fill-rule="evenodd" clip-rule="evenodd" d="M7.77189 5.71252C7.77189 5.71252 7.71489 5.62582 7.78486 5.54937C7.85483 5.47291 7.95442 5.44065 7.99324 5.39278C7.98585 5.38366 7.97594 5.37693 7.96474 5.37341C7.99051 5.32729 8.02984 5.2902 8.07738 5.26717C8.05801 5.2478 8.03207 5.23227 8.00365 5.23227C7.94017 5.23227 7.90125 5.27109 7.84306 5.27109C7.78614 5.27109 7.77965 5.24259 7.77965 5.24259C7.77965 5.24259 7.87548 5.23355 7.86635 5.1908C7.85731 5.14548 7.84075 5.14548 7.84075 5.14548C7.84075 5.14548 8.02584 5.06868 8.05818 5.02772C8.09052 4.98676 8.08668 4.93838 8.09317 4.91901C8.1151 4.91901 8.24327 4.85168 8.29507 4.88018C8.34686 4.90868 8.3106 4.98634 8.3106 4.98634C8.3106 4.98634 8.46735 4.86849 8.54723 4.75295C8.61711 4.75944 8.64963 4.70508 8.70083 4.70508C8.76431 4.70508 8.86398 4.79178 8.88335 4.97686C8.89633 5.08302 8.9157 5.14386 8.89633 5.3316C8.88728 5.43775 8.88984 5.6644 8.92193 5.77686C8.94386 5.86621 8.99565 5.85716 8.99565 5.85716C8.98771 5.88439 8.97195 5.90869 8.95034 5.92705C8.91535 5.95939 8.91151 6.0449 8.91535 6.07724C8.92051 6.10088 8.92701 6.12422 8.93481 6.14713C8.93481 6.14713 8.89342 6.195 8.88301 6.22742C8.87397 6.25977 8.8313 6.28178 8.80015 6.28178C8.76901 6.28178 8.78462 6.27914 8.74324 6.28178C8.70185 6.28443 8.68888 6.29083 8.66294 6.28178C8.637 6.27274 8.61763 6.26233 8.62804 6.17938C8.63708 6.09652 8.30829 5.90367 8.30829 5.90367L7.77069 5.7121L7.77189 5.71252Z" fill="#CCA849"/>
<path id="Vector_75" fill-rule="evenodd" clip-rule="evenodd" d="M7.14886 6.53083C7.14886 6.53083 7.26662 6.6875 7.75081 6.6875C7.98121 6.6875 8.0615 6.66549 8.10921 6.65252C8.161 6.63954 8.35514 6.56326 8.55063 6.33277C8.72668 6.12439 8.68785 6.03897 8.68785 6.03897L8.58545 6.02344L8.25265 6.06875L7.2679 6.48816L7.14844 6.53083H7.14886Z" fill="#585136"/>
<path id="Vector_76" fill-rule="evenodd" clip-rule="evenodd" d="M7.51316 6.56947C7.51316 6.56947 7.09375 6.66274 7.09375 6.39735C7.09375 6.13845 7.35265 5.86658 7.41742 5.81871C7.48475 5.77075 7.64526 5.71631 7.64526 5.71631H8.03233L8.10606 5.91181L8.07372 6.33378L7.51316 6.56939V6.56947Z" fill="#252211"/>
<path id="Vector_77" fill-rule="evenodd" clip-rule="evenodd" d="M7.89921 5.7954C7.89921 5.7954 7.819 5.72159 7.63647 5.821C7.45394 5.92042 7.30632 6.1282 7.29727 6.31687C7.28823 6.48379 7.43449 6.60812 7.66233 6.6146C7.83189 6.621 7.9342 6.60163 7.986 6.589C7.97303 6.57347 7.9057 6.48933 7.9057 6.48933L7.8993 5.79549L7.89921 5.7954Z" fill="#C3B378"/>
<path id="Vector_78" fill-rule="evenodd" clip-rule="evenodd" d="M7.82078 5.83689C7.82078 5.83689 7.80141 5.82136 7.74398 5.85242C7.6961 5.87802 7.62622 5.94569 7.57186 5.99356C7.53687 6.02206 7.51486 6.03495 7.49506 6.05696C7.41476 6.15279 7.34743 6.30947 7.38634 6.38712C7.42526 6.46477 7.55334 6.55412 7.87957 6.49327L7.81984 5.83698L7.82078 5.83689Z" fill="#E6D89C"/>
<path id="Vector_79" fill-rule="evenodd" clip-rule="evenodd" d="M7.71572 5.99757C7.71572 5.99757 7.66392 6.07787 7.66392 6.20604C7.66392 6.33677 7.73773 6.54515 8.0096 6.56069C8.21799 6.57366 8.35776 6.2604 8.50923 6.13871C8.62443 6.04553 8.69432 6.04288 8.69432 6.04288C8.69432 6.04288 8.57656 5.91488 8.26202 5.74908C7.95132 5.58208 7.60308 5.56007 7.41406 5.81641C7.50341 5.80992 7.79209 5.73611 7.79209 5.73611L7.93323 5.78142L7.71572 5.99766V5.99757Z" fill="#252211"/>
<path id="Vector_80" fill-rule="evenodd" clip-rule="evenodd" d="M8.12383 6.16701C8.11479 6.14764 8.1083 6.1217 8.14585 6.1153C8.18339 6.1089 8.2002 6.11265 8.21318 6.1409C8.22615 6.16915 8.23878 6.1927 8.21958 6.20439C8.2002 6.21471 8.14969 6.20439 8.12375 6.16684L8.12383 6.16701ZM8.06299 5.98448C8.06299 5.98448 8.05002 5.99353 8.0565 5.97544C8.05906 5.95351 8.07596 5.9146 8.11735 5.92373C8.15873 5.93286 8.14977 5.97808 8.14295 5.99105C8.13612 6.00403 8.10156 6.02596 8.07562 6.01665C8.07233 6.01581 8.06929 6.01421 8.06673 6.01197C8.06418 6.00973 8.06219 6.00693 8.06093 6.00377C8.05966 6.00062 8.05916 5.99722 8.05946 5.99384C8.05976 5.99046 8.06085 5.98719 8.06265 5.98431L8.06299 5.98448Z" fill="#6F674D"/>
<path id="Vector_81" fill-rule="evenodd" clip-rule="evenodd" d="M4.55469 6.06706C4.55469 6.06706 4.65709 6.14386 4.77604 6.14087C4.8938 6.13823 5.04527 6.01663 5.11516 5.93889C5.15654 5.89358 5.19196 5.8457 5.23036 5.80816C5.26278 5.77582 5.28471 5.76029 5.30024 5.73827C5.32226 5.71267 5.34556 5.66454 5.35725 5.64893C5.32875 5.67094 5.28736 5.70985 5.24461 5.73571C5.20322 5.76131 5.11388 5.80944 5.07761 5.82241C5.04271 5.83538 4.68021 6.02721 4.68021 6.02721L4.55469 6.06706Z" fill="#AC924C"/>
<path id="Vector_82" fill-rule="evenodd" clip-rule="evenodd" d="M4.71094 5.11075C4.71094 5.11075 4.76785 5.07193 4.87793 5.04727C4.98409 5.02167 5.19768 5.00195 5.19768 5.00195L5.37372 5.07875L5.44361 5.34414L5.31561 5.61994L5.15254 5.72234L4.96736 5.42461L4.71136 5.11127L4.71094 5.11075Z" fill="#9F8E57"/>
<path id="Vector_83" fill-rule="evenodd" clip-rule="evenodd" d="M4.4828 5.3475L4.42188 5.39299C4.42188 5.39299 4.43749 5.36449 4.45038 5.27779C4.46326 5.19109 4.53067 4.98006 4.62906 4.85837C4.72745 4.73669 4.72489 4.74317 4.72489 4.74317C4.71584 4.74152 4.70654 4.74181 4.69761 4.74403C4.68867 4.74625 4.68032 4.75035 4.6731 4.75606C4.68607 4.72739 4.76893 4.62499 4.85178 4.57379C4.93464 4.52259 4.96698 4.50646 5.05368 4.54819C5.14038 4.58992 5.1624 4.61159 5.22589 4.60903C5.28937 4.60647 5.34365 4.53914 5.34365 4.53914C5.34365 4.53914 5.35662 4.58053 5.30874 4.67636C5.26087 4.77219 5.07186 4.9676 5.07186 4.9676L4.6783 5.23683L4.4828 5.34776V5.3475Z" fill="#EAC970"/>
<path id="Vector_84" fill-rule="evenodd" clip-rule="evenodd" d="M4.77378 5.07849C4.77378 5.07849 5.05862 5.11731 5.14532 5.0371C5.14788 5.04615 5.15829 5.04615 5.15829 5.05263C5.15759 5.05752 5.15532 5.06204 5.15181 5.06552C5.16124 5.06401 5.17076 5.06316 5.18031 5.06296C5.19171 5.06635 5.20343 5.06852 5.21529 5.06944C5.22484 5.06924 5.23437 5.06835 5.24379 5.0668C5.2429 5.07323 5.24071 5.07942 5.23737 5.08499C5.23402 5.09056 5.22959 5.0954 5.22434 5.09922C5.23731 5.09922 5.24994 5.10178 5.24994 5.11211C5.24994 5.12243 5.2525 5.15358 5.23697 5.16007C5.2241 5.16362 5.21041 5.16269 5.19814 5.15742C5.19917 5.18193 5.20583 5.20587 5.2176 5.22739C5.2432 5.27527 5.29781 5.32979 5.3712 5.31409C5.3712 5.31409 5.40994 5.40728 5.24687 5.61438C5.22494 5.64288 5.20156 5.68171 5.17314 5.71405C5.16191 5.73852 5.15333 5.76413 5.14754 5.79042C5.14754 5.79042 5.42334 5.68427 5.50227 5.44218C5.58257 5.19881 5.5981 4.95936 5.58257 4.73545C5.57992 4.67196 5.5696 4.62673 5.55407 4.59431C5.51524 4.51401 5.40644 4.52698 5.36249 4.57229C5.29901 4.63578 5.19285 4.79364 5.04531 4.90236C4.89512 5.01107 4.88872 5.03036 4.77344 5.07849H4.77378Z" fill="#D7BC6B"/>
<path id="Vector_85" fill-rule="evenodd" clip-rule="evenodd" d="M4.43464 5.42803C4.43464 5.42803 4.38028 5.46037 4.35178 5.58163C4.32328 5.70587 4.37738 5.85734 4.4087 5.90521C4.44002 5.95309 4.5111 6.0839 4.65856 6.09039C4.69505 6.09019 4.73115 6.08271 4.76471 6.06837C4.81619 6.04477 4.86447 6.01475 4.90841 5.97903C4.9719 5.93115 5.02361 5.88977 5.01713 5.88584C5.0016 5.87936 4.62621 5.56866 4.62621 5.56866L4.48507 5.41113L4.43456 5.4282L4.43464 5.42803Z" fill="#585136"/>
<path id="Vector_86" fill-rule="evenodd" clip-rule="evenodd" d="M4.78433 5.94323C4.78433 5.94323 4.8607 5.93683 4.90601 5.90833C4.95132 5.87983 4.64062 5.57178 4.64062 5.57178L4.66264 5.90458L4.78433 5.94323Z" fill="#453A25"/>
<path id="Vector_87" fill-rule="evenodd" clip-rule="evenodd" d="M4.45417 5.40453C4.45417 5.40453 4.41534 5.47834 4.41534 5.49779C4.40886 5.5612 4.42832 5.76054 4.44385 5.82394C4.45938 5.89127 4.54352 5.9935 4.65232 5.9935C4.71956 5.9935 4.81283 5.95211 4.81283 5.94178C4.81283 5.92881 4.717 5.91618 4.69114 5.86797C4.67561 5.84237 4.66913 5.77871 4.66554 5.71437C4.66298 5.67298 4.66298 5.62767 4.67851 5.61197C4.7135 5.57314 4.7199 5.46178 4.7199 5.46178L4.84414 5.23096H4.68073L4.48523 5.35264L4.45417 5.40453Z" fill="#84754B"/>
<path id="Vector_88" fill-rule="evenodd" clip-rule="evenodd" d="M4.40625 5.47583C4.40625 5.47583 4.53425 5.30627 4.64962 5.26736C4.76499 5.22844 4.81662 5.25183 4.81662 5.25183L4.74929 5.42403L4.65346 5.53018L4.65995 5.58454C4.65995 5.58454 4.64433 5.72824 4.74016 5.82791C4.83599 5.92758 4.90716 5.92374 4.94863 5.92374C4.9901 5.92374 5.10914 5.88875 5.16998 5.74505C5.22434 5.61048 5.26965 5.43785 5.16094 5.2648C5.0547 5.09259 4.86705 5.08594 4.83078 5.08594C4.79452 5.08594 4.50976 5.10019 4.40625 5.47557V5.47583Z" fill="#252211"/>
<path id="Vector_89" fill-rule="evenodd" clip-rule="evenodd" d="M7.69225 6.05188C7.64438 6.02987 7.68969 5.8953 7.73756 5.85383C7.78543 5.81235 7.84627 5.76457 7.95251 5.758C7.99126 5.75544 8.0288 5.78001 8.0224 5.80595C8.01336 5.85383 7.94603 5.92115 7.88519 5.96903C7.80105 6.03507 7.7466 6.07646 7.69225 6.05188Z" fill="#F7F7E7"/>
<path id="Vector_90" fill-rule="evenodd" clip-rule="evenodd" d="M5.1063 5.31803C5.14128 5.31547 5.18659 5.34363 5.19564 5.38152C5.20469 5.42291 5.17362 5.50577 5.1063 5.50577C5.05194 5.50577 5.02344 5.43844 5.02344 5.41907C5.02405 5.40314 5.0285 5.38759 5.03641 5.37376C5.03897 5.36983 5.04545 5.32452 5.1063 5.31803Z" fill="#F8F6DE"/>
<path id="Vector_91" fill-rule="evenodd" clip-rule="evenodd" d="M4.59959 5.34766C4.59959 5.34766 4.51024 5.38904 4.46886 5.47566C4.43928 5.53961 4.43034 5.61119 4.44326 5.68046C4.44974 5.7128 4.48208 5.79301 4.5041 5.82151C4.52612 5.85001 4.5559 5.86947 4.57791 5.86682C4.59993 5.86418 4.64516 5.80598 4.64516 5.77108C4.64516 5.73618 4.6478 5.58855 4.69047 5.50825C4.72801 5.42804 4.59984 5.34774 4.59984 5.34774L4.59959 5.34766Z" fill="#D4C38B"/>
<path id="Vector_92" fill-rule="evenodd" clip-rule="evenodd" d="M4.61411 5.34129C4.59858 5.35033 4.57272 5.36331 4.57912 5.38012C4.58561 5.39565 4.63997 5.40572 4.65942 5.4436C4.68144 5.48243 4.68144 5.52382 4.67495 5.54327C4.69186 5.53524 4.70721 5.52426 4.72026 5.51085C4.74877 5.47851 4.78367 5.43456 4.81345 5.43456C4.8329 5.43456 4.85228 5.4436 4.87045 5.4436C4.89895 5.4436 4.92737 5.43456 4.93129 5.40478C4.93769 5.36595 4.87694 5.33096 4.84195 5.33745C4.84844 5.31185 4.85748 5.27405 4.82898 5.2481C4.80048 5.22216 4.71122 5.26756 4.69176 5.28053C4.67231 5.2935 4.61411 5.34137 4.61411 5.34137V5.34129Z" fill="#E2D59D"/>
<path id="Vector_93" fill-rule="evenodd" clip-rule="evenodd" d="M6.67472 8.06097L6.86629 8.00439L6.92065 8.04322C6.92065 8.04322 6.95939 8.12608 7.02032 8.1364C7.00086 8.17779 6.95034 8.2132 6.95299 8.24256C6.95563 8.27191 6.98149 8.29436 6.98149 8.29436C6.98149 8.29436 6.80929 8.57911 7.14849 8.86609C7.06819 8.89843 6.96596 8.94289 6.9116 8.96849C6.95034 8.97754 7.0332 8.99409 7.06819 9.02549C7.10318 9.0569 7.10318 9.06688 7.13552 9.08634C7.16786 9.10579 7.18723 9.13165 7.18083 9.14325C7.15881 9.13028 7.085 9.09154 7.07211 9.12772C7.05923 9.1639 6.75237 9.14974 6.75237 9.14974L6.23457 9.24941C6.23457 9.24941 6.25394 9.19761 6.19958 9.14974C6.13618 9.09282 6.05852 9.1523 5.97567 9.0889C5.86695 9.00604 5.86303 8.91021 5.82812 8.87403C5.86303 8.85201 5.93428 8.81967 6.10384 8.79723C6.09735 8.78426 6.07534 8.74543 6.08831 8.71053C6.10384 8.66522 6.16852 8.63671 6.14915 8.58253C6.17765 8.57604 6.19054 8.57604 6.26179 8.4867C6.32912 8.39735 6.3705 8.37798 6.4223 8.3715C6.4741 8.36501 6.50516 8.3715 6.60099 8.28215C6.66823 8.21875 6.6463 8.16439 6.6463 8.16439C6.6463 8.16439 6.69025 8.15014 6.6748 8.0608L6.67472 8.06097Z" fill="#CBAC5A"/>
<path id="Vector_94" fill-rule="evenodd" clip-rule="evenodd" d="M6.10577 8.08977C6.10833 8.0768 6.11874 8.07032 6.18863 8.0768C6.25852 8.08329 6.70122 8.03542 6.82163 8.02893C6.94332 8.01989 7.37177 8.02629 7.58024 8.07032C7.78871 8.11435 7.99966 8.16615 8.10189 8.192C8.20429 8.22051 8.23654 8.23075 8.23262 8.24372C8.23006 8.25669 8.20702 8.26932 8.19379 8.26573C8.1809 8.26317 7.8417 8.15958 7.73691 8.13773C7.63213 8.11589 7.26954 8.05743 7.07131 8.06093C6.88623 8.06358 6.81241 8.05837 6.65583 8.07646C6.49916 8.09592 6.24025 8.12177 6.1626 8.11145C6.0858 8.1024 6.10167 8.1024 6.1056 8.08943L6.10577 8.08977Z" fill="#D6BC6F"/>
<path id="Vector_95" fill-rule="evenodd" clip-rule="evenodd" d="M7.14447 9.10445C7.14447 9.10445 7.40986 9.24815 7.50569 9.42419C7.57558 9.55493 7.4643 9.61969 7.4643 9.61969C7.4643 9.61969 7.61449 9.61969 7.59503 9.70255C7.58599 9.75426 7.33613 9.89404 7.16913 9.96785C6.99958 10.0417 7.00606 10.0378 6.9232 10.0507C6.8429 10.0637 6.62283 10.0251 6.57752 10.0895C6.53221 10.154 6.55192 10.2204 6.56455 10.2307C6.57752 10.2397 6.68239 10.2527 6.68239 10.2527C6.68239 10.2527 6.66038 10.3135 6.44295 10.32C6.22552 10.3265 6.17108 10.342 6.1581 10.3653C6.14513 10.3873 6.19949 10.3744 6.29925 10.3909C6.39892 10.4065 6.53869 10.4165 6.53869 10.4165C6.53869 10.4165 6.49338 10.4554 6.37562 10.4864C6.24096 10.5213 6.02993 10.5538 5.96653 10.5926C5.99887 10.6146 6.04683 10.6469 6.06893 10.6495C6.01457 10.6625 5.93812 10.691 5.92523 10.7013C5.9446 10.7143 5.97054 10.7298 5.97054 10.7298C5.97054 10.7298 5.86174 10.8605 5.79834 10.893C5.73494 10.9254 5.36988 11.0949 5.24427 11.0625C4.93101 10.9797 4.89218 10.6366 4.81581 10.6108C4.70061 10.5719 4.64625 10.6495 4.54394 10.5951C4.58925 10.5628 4.61391 10.5434 4.66178 10.5214C4.60999 10.4958 4.34204 10.3259 4.34204 10.3259C4.31402 10.2648 4.28292 10.2052 4.24886 10.1473C4.19706 10.058 4.12086 9.93884 4.06368 9.83397C3.93944 9.60357 3.93295 9.49741 3.82031 9.36668C3.83977 9.34108 3.90701 9.34466 3.90701 9.34466L4.8508 9.65536L6.52427 9.70383L6.95947 9.08252L7.14456 9.10454L7.14447 9.10445Z" fill="#DFC677"/>
<path id="Vector_96" fill-rule="evenodd" clip-rule="evenodd" d="M4.67188 10.0517C4.68197 10.063 4.69375 10.0726 4.70678 10.0802C4.7392 10.1023 4.78707 10.1282 4.81942 10.1669C4.83239 10.1476 4.86473 10.1126 4.92182 10.1669C4.9789 10.2213 5.04982 10.1826 5.09393 10.1954C5.13925 10.2111 5.14181 10.2175 5.14181 10.2175C5.14181 10.2175 5.16741 10.1954 5.22466 10.1721C5.25965 10.1592 5.30104 10.1501 5.34635 10.1372C5.38774 10.1282 5.43305 10.1152 5.4642 10.1152C5.4927 10.1346 5.59493 10.2432 6.00529 10.0829C6.39237 9.93269 6.48162 9.91588 6.54639 9.93909C6.55288 9.92356 6.55936 9.89378 6.65903 9.89771C6.65903 9.85632 6.57617 9.71518 6.57617 9.71518L6.11921 9.55859H5.86927L5.11979 9.69581L4.70447 9.93278L4.67213 10.0522L4.67188 10.0517Z" fill="#C4A859"/>
<path id="Vector_97" fill-rule="evenodd" clip-rule="evenodd" d="M4.42188 9.7888C4.42188 9.7888 4.43092 9.85869 4.53451 9.9325C4.63691 10.0062 4.66909 10.0503 4.66909 10.0503C4.66909 10.0503 4.68854 10.0247 4.70407 9.99855C4.7196 9.97005 4.73257 9.93771 4.75843 9.92866C4.81023 9.90665 4.92799 9.94803 4.95393 9.94155C4.97594 9.93515 4.96946 9.88984 4.99275 9.88984C5.04711 9.88719 5.08201 9.92474 5.10147 9.92474C5.12093 9.92474 5.16871 9.92218 5.1752 9.91185C5.18168 9.90153 5.18424 9.79401 5.25806 9.74221C5.33835 9.68529 5.43674 9.70987 5.46286 9.72284C5.46286 9.74221 5.46542 9.79017 5.51721 9.79273C5.56901 9.79529 5.57413 9.78624 5.61961 9.80177C5.6651 9.8173 5.71928 9.79921 5.74386 9.8755C5.76587 9.8691 5.81767 9.86261 5.8047 9.7888C5.8303 9.76943 5.85266 9.75646 5.9071 9.68009C5.92007 9.66072 5.942 9.6387 5.9589 9.6102C6.00421 9.6102 6.05857 9.60115 6.13102 9.66456C6.109 9.68009 6.09603 9.69016 6.08963 9.70594C6.10858 9.7247 6.12588 9.74506 6.14134 9.76678C6.1608 9.79238 6.17377 9.82379 6.19834 9.83027C6.2527 9.8458 6.34205 9.82379 6.44171 9.83027C6.53754 9.83676 6.61776 9.87166 6.65274 9.89368C6.66571 9.88728 6.66571 9.88463 6.69806 9.89112C6.7304 9.8976 6.75497 9.90016 6.72007 9.85877C6.73944 9.86782 6.76146 9.88728 6.78091 9.86782C6.80037 9.84836 6.81582 9.81995 6.87017 9.81346C6.92453 9.80698 6.94399 9.81602 6.966 9.75911C6.9945 9.68922 6.89611 9.68922 6.89611 9.68922C6.89611 9.68922 6.94143 9.64775 6.99194 9.59339C7.05279 9.53647 7.12267 9.46266 7.13949 9.37203C7.16799 9.20504 7.00491 9.18311 7.00491 9.18311L6.21396 9.42648L5.24696 9.37852L4.42239 9.78889L4.42188 9.7888Z" fill="#927D49"/>
<path id="Vector_98" fill-rule="evenodd" clip-rule="evenodd" d="M3.70493 7.50402C3.70493 7.50402 3.67933 7.53637 3.66355 7.61274C3.64776 7.68911 3.6545 7.68007 3.64153 7.73442C3.62856 7.78878 3.46924 8.32988 3.52898 8.51241C3.58871 8.69494 3.69213 8.76226 3.75682 8.90981C3.76979 8.94215 3.78242 8.9616 3.78916 8.9901C3.81117 9.08585 3.7918 9.15966 3.81766 9.25549C3.8267 9.28783 3.85008 9.32538 3.88499 9.36421C3.96179 9.44442 4.08697 9.52079 4.14099 9.57515C4.21727 9.65545 4.32607 9.8186 4.46457 9.83405C4.53838 9.8431 4.64326 9.81204 4.72996 9.76032C4.80676 9.71237 4.8542 9.64512 4.93476 9.60672C4.99167 9.57822 5.05252 9.5679 5.10687 9.55493C5.21951 9.53291 5.32183 9.52933 5.38267 9.54195C5.47586 9.56141 5.69593 9.62874 5.81787 9.62874C5.91316 9.6272 6.00791 9.61417 6.10007 9.58991C6.28516 9.53555 6.50907 9.44228 6.6567 9.4009C6.7434 9.3753 6.81328 9.36856 6.88454 9.35303C7.00622 9.32452 7.10845 9.2857 7.16674 9.21189C7.12791 9.16657 7.08004 9.09669 6.82105 9.09925C6.52725 9.10573 6.18805 9.2688 6.02105 9.29474C5.85405 9.32069 5.78161 9.34262 5.59515 9.27529C5.41237 9.20728 5.40631 9.16231 5.40631 9.16231C5.40631 9.16231 5.21439 9.02808 5.1341 8.68589C5.0538 8.3437 5.1341 8.09436 5.34257 7.85739C5.39692 7.79655 5.38395 7.74219 5.38395 7.74219C5.38395 7.74219 5.52117 7.5571 5.48362 7.38379C5.44223 7.21159 5.17685 7.24657 5.17685 7.24657L3.70502 7.50402H3.70493Z" fill="#6E6342"/>
<path id="Vector_99" fill-rule="evenodd" clip-rule="evenodd" d="M3.92977 8.08008C3.91836 8.10154 3.91299 8.12569 3.91424 8.14997C3.9168 8.18487 3.92721 8.23018 4.032 8.33249C4.12134 8.42175 4.10189 8.52142 4.10189 8.52142C4.10189 8.52142 4.14686 8.53047 4.26889 8.47338C4.36471 8.42807 4.39689 8.50837 4.39689 8.50837C4.42478 8.49374 4.45502 8.48409 4.48623 8.47987C4.51451 8.47726 4.54188 8.46852 4.56644 8.45427C4.56644 8.45427 4.67908 8.56947 4.77747 8.62382C4.86682 8.67178 4.91861 8.70412 4.96265 8.67178C5.00403 8.64328 5.00403 8.585 5.00139 8.55914C4.99112 8.53528 4.97812 8.51268 4.96265 8.49181C4.93414 8.45042 4.88883 8.40247 4.88585 8.36381C4.87936 8.27455 4.95317 8.16831 4.93756 8.14246C4.92194 8.1166 4.86383 8.11012 4.72013 8.16191C4.57131 8.21107 3.92917 8.08033 3.92917 8.08033L3.92977 8.08008Z" fill="#39331F"/>
<path id="Vector_100" fill-rule="evenodd" clip-rule="evenodd" d="M4.27212 8.65913C4.27212 8.65913 4.19839 8.58924 4.22425 8.25004C4.25555 8.24959 4.2868 8.25262 4.31743 8.25909C4.31743 8.25909 4.35762 8.52192 4.27212 8.65913Z" fill="#292311"/>
<path id="Vector_101" fill-rule="evenodd" clip-rule="evenodd" d="M3.74385 7.2451C3.75413 7.23749 3.76368 7.22892 3.77235 7.2195C3.74675 7.26738 3.62856 7.45895 3.72439 7.7606C3.82022 8.06089 4.06095 8.28481 4.35739 8.29522C4.65384 8.30563 4.80966 8.16056 4.98784 7.94313C5.05772 7.85643 5.13802 7.74763 5.20919 7.6739C5.31535 7.55862 5.3982 7.52628 5.3982 7.415C5.3982 7.18716 5.16516 7.08485 4.82212 6.98262C4.47908 6.88039 4.16966 6.89302 4.00915 6.96299C3.85256 7.03928 3.78523 7.11958 3.74376 7.24519L3.74385 7.2451Z" fill="#252211"/>
<path id="Vector_102" fill-rule="evenodd" clip-rule="evenodd" d="M4.84401 8.76113L4.86961 8.74816C4.86961 8.74816 4.87601 8.64576 4.91748 8.64849C4.95886 8.65498 4.97832 8.70942 4.9744 8.72879C4.97184 8.74816 4.96151 8.78059 4.92004 8.77666C4.86568 8.77794 4.84375 8.76113 4.84375 8.76113H4.84401Z" fill="#3F3824"/>
<path id="Vector_103" fill-rule="evenodd" clip-rule="evenodd" d="M4.72656 8.32642C4.72656 8.32642 4.75216 8.31738 4.78348 8.34844C4.80908 8.34844 4.9207 8.33547 4.95568 8.35748C4.99067 8.3795 5.00099 8.39887 5.00099 8.39887C5.00099 8.39887 4.87026 8.42737 4.79901 8.39887C4.72656 8.37429 4.72656 8.32642 4.72656 8.32642Z" fill="#2D2815"/>
<path id="Vector_104" fill-rule="evenodd" clip-rule="evenodd" d="M5.30716 8.34576C5.30716 8.33927 5.23727 8.2914 5.16346 8.27578C5.15049 8.27322 5.14784 8.28227 5.13786 8.28227C5.13137 8.27971 5.12881 8.26025 5.12881 8.26025L5.08683 8.28236C5.08683 8.28236 5.08034 8.2914 5.10236 8.30796C5.12173 8.32349 5.15416 8.33646 5.1632 8.36231C5.17225 8.38817 5.17225 8.39721 5.17617 8.40114C5.17873 8.4037 5.22404 8.40114 5.24606 8.38817C5.26808 8.3752 5.30955 8.35404 5.3069 8.3455L5.30716 8.34576Z" fill="#82764F"/>
<path id="Vector_105" fill-rule="evenodd" clip-rule="evenodd" d="M4.65625 8.60867C4.65625 8.60867 4.66914 8.51941 4.75592 8.51548C4.84518 8.509 4.86207 8.5957 4.86207 8.5957L4.81028 8.64749C4.81028 8.64621 4.77145 8.59186 4.65668 8.60867H4.65625Z" fill="#2D2816"/>
<path id="Vector_106" fill-rule="evenodd" clip-rule="evenodd" d="M5.21583 8.22369C5.21583 8.22369 5.16787 8.27548 5.0618 8.29101C5.05276 8.27804 5.0333 8.25219 5.0618 8.2108C5.0903 8.16941 5.12264 8.15644 5.15498 8.16933C5.16925 8.17164 5.18257 8.17799 5.19335 8.18762C5.20413 8.19725 5.21193 8.20976 5.21583 8.22369Z" fill="#574F35"/>
<path id="Vector_107" fill-rule="evenodd" clip-rule="evenodd" d="M5.41256 8.28716C5.4152 8.27419 5.40616 8.27163 5.41256 8.26515C5.41896 8.25866 5.45403 8.24577 5.46051 8.25218C5.46307 8.25482 5.46051 8.26515 5.46051 8.27778C5.46051 8.2904 5.46051 8.30337 5.45403 8.31268C5.44498 8.32565 5.41913 8.33213 5.40616 8.32829C5.39318 8.32445 5.39062 8.30628 5.39062 8.30269C5.39703 8.30013 5.41256 8.29365 5.41256 8.28716ZM5.63357 8.14739C5.63357 8.1409 5.65558 8.12793 5.66856 8.12793C5.68793 8.12793 5.68793 8.14346 5.69057 8.14739C5.69697 8.14995 5.69697 8.14474 5.70346 8.15643C5.70994 8.16812 5.71907 8.18877 5.7125 8.20174C5.70593 8.21471 5.68016 8.22367 5.67376 8.22111C5.66472 8.21463 5.63621 8.15643 5.63357 8.14739Z" fill="#82764F"/>
<path id="Vector_108" fill-rule="evenodd" clip-rule="evenodd" d="M5.1875 8.31698C5.1875 8.31698 5.216 8.32338 5.25483 8.35581C5.24186 8.36485 5.2224 8.37518 5.2224 8.37518C5.2224 8.37518 5.21984 8.3454 5.1875 8.31689V8.31698Z" fill="#6E6342"/>
<path id="Vector_109" fill-rule="evenodd" clip-rule="evenodd" d="M5.12602 8.03259C5.11954 8.02619 5.14539 8.01065 5.16092 8.01321C5.17646 8.01577 5.18294 8.02619 5.19975 8.02875C5.21656 8.03131 5.21921 8.02226 5.22535 8.01577C5.2315 8.00929 5.25385 8.01321 5.25769 8.01577C5.26008 8.01862 5.26225 8.02164 5.26418 8.02482C5.26445 8.0199 5.26573 8.01508 5.26795 8.01068C5.27017 8.00627 5.27327 8.00237 5.27706 7.99922C5.28203 7.99557 5.28776 7.99309 5.29381 7.99197C5.29987 7.99085 5.30611 7.99111 5.31205 7.99273C5.31461 8.00178 5.32758 8.03412 5.32502 8.04061C5.32246 8.04709 5.28363 8.05622 5.27706 8.04965C5.28355 8.06527 5.31205 8.09761 5.31589 8.10401C5.31973 8.11041 5.28739 8.12603 5.2745 8.12347C5.25641 8.12219 5.14505 8.05742 5.12568 8.03284L5.12602 8.03259ZM5.29558 7.81772C5.29318 7.81119 5.2886 7.80571 5.28261 7.80219C5.27356 7.79963 5.24378 7.80219 5.24378 7.81772C5.24378 7.83325 5.26938 7.92012 5.29814 7.96534C5.33057 8.01065 5.3525 8.04812 5.37451 8.05853C5.38143 8.06167 5.38927 8.06209 5.39648 8.05968C5.40368 8.05727 5.40971 8.05223 5.41334 8.04556C5.4159 8.03907 5.42239 7.9912 5.41983 7.87856C5.41727 7.76592 5.41334 7.6572 5.40686 7.65072C5.40037 7.64423 5.37451 7.64432 5.36547 7.6572C5.35642 7.67009 5.29814 7.79835 5.2955 7.81772H5.29558Z" fill="#585136"/>
<path id="Vector_110" fill-rule="evenodd" clip-rule="evenodd" d="M5.17508 8.4802C5.17508 8.4802 5.12976 8.4517 5.08573 8.47115C5.04435 8.49061 5.04691 8.56698 5.04691 8.56698C5.05622 8.57063 5.06628 8.57194 5.07621 8.57081C5.08615 8.56968 5.09565 8.56614 5.10391 8.5605C5.13241 8.54113 5.16859 8.50878 5.17508 8.48028V8.4802Z" fill="#574F35"/>
<path id="Vector_111" fill-rule="evenodd" clip-rule="evenodd" d="M5.25997 8.58256C5.25741 8.55696 5.23438 8.55696 5.23438 8.54373C5.23596 8.53741 5.23962 8.5318 5.24478 8.52781C5.24993 8.52382 5.25627 8.52167 5.26279 8.52171C5.27576 8.52171 5.28839 8.53724 5.30426 8.54731C5.31979 8.55636 5.34309 8.57291 5.34565 8.59263C5.34821 8.61234 5.32005 8.66635 5.28873 8.66635C5.25741 8.66635 5.26672 8.60807 5.26023 8.58221L5.25997 8.58256ZM5.50983 8.54757C5.50983 8.54757 5.45803 8.5631 5.46187 8.54757C5.46571 8.53204 5.47749 8.5282 5.4943 8.5282C5.50284 8.51926 5.51433 8.51371 5.52664 8.51258C5.53368 8.51224 5.5406 8.51455 5.54601 8.51907C5.54601 8.51907 5.581 8.50354 5.59132 8.51258C5.60165 8.52163 5.59397 8.52163 5.60037 8.53204C5.60852 8.54359 5.61387 8.55689 5.61599 8.57087C5.61599 8.58119 5.57716 8.60321 5.54601 8.59937C5.50983 8.5916 5.51623 8.55405 5.50983 8.54757ZM5.8114 8.48929C5.8114 8.48929 5.82693 8.49833 5.81404 8.50874C5.805 8.51779 5.75969 8.53434 5.72077 8.53724C5.68195 8.53724 5.64705 8.54364 5.64705 8.53076C5.64705 8.51787 5.67939 8.49193 5.69876 8.48545C5.70264 8.48058 5.70758 8.47666 5.71319 8.47397C5.71881 8.47128 5.72496 8.46989 5.73119 8.46992C5.74672 8.46992 5.80747 8.46343 5.82437 8.46087C5.8399 8.45823 5.85287 8.46727 5.84374 8.48024C5.8399 8.48929 5.8114 8.48929 5.8114 8.48929ZM5.90074 8.08959C5.90074 8.08959 5.88129 8.13097 5.85936 8.13097C5.83734 8.12841 5.83734 8.12193 5.83734 8.11544C5.83734 8.1064 5.85936 8.0831 5.85671 8.07661C5.85031 8.07661 5.83469 8.07661 5.83734 8.06108C5.83734 8.04811 5.85936 8.03258 5.87873 8.03548C5.89336 8.02346 5.91159 8.01664 5.93052 8.01611C5.95254 8.01611 5.97191 8.02251 5.97191 8.03548C5.97191 8.04845 5.94631 8.07687 5.93692 8.08344C5.9266 8.09377 5.91363 8.10051 5.90074 8.08984V8.08959ZM5.60557 8.8546C5.60557 8.8546 5.57997 8.85724 5.57997 8.87013C5.57997 8.87661 5.58638 8.87661 5.59551 8.87277C5.60077 8.87248 5.60597 8.87159 5.61104 8.87013C5.6136 8.87277 5.6136 8.88566 5.63305 8.88566C5.64903 8.8835 5.66442 8.87823 5.67836 8.87013C5.6939 8.86373 5.70687 8.85716 5.70687 8.84453C5.70038 8.82251 5.68741 8.8121 5.66804 8.8121C5.65811 8.81147 5.64821 8.81373 5.63954 8.81859C5.63954 8.81859 5.63305 8.80562 5.61104 8.81859C5.58902 8.83156 5.59158 8.83156 5.59807 8.83804C5.60967 8.84837 5.60583 8.85511 5.60583 8.85511L5.60557 8.8546ZM5.45931 8.98925C5.45931 8.98277 5.49166 8.9698 5.5007 8.97372C5.50975 8.97628 5.5356 9.02544 5.5356 9.03064C5.5356 9.03713 5.50326 9.05266 5.49029 9.05266C5.47732 9.05266 5.45539 9.03064 5.45539 9.02706C5.45539 9.0245 5.47092 9.02066 5.47092 9.01801C5.47476 9.01161 5.45931 8.996 5.45931 8.98951V8.98925ZM5.35691 8.80024C5.3634 8.79768 5.3634 8.7912 5.37244 8.78471C5.37528 8.78283 5.3785 8.78162 5.38187 8.78117C5.38525 8.78073 5.38868 8.78106 5.3919 8.78215C5.39418 8.77808 5.39734 8.77457 5.40115 8.77186C5.40496 8.76916 5.40932 8.76734 5.41392 8.76653C5.42945 8.76397 5.44242 8.76653 5.43952 8.77302C5.43952 8.79248 5.45249 8.80536 5.45249 8.82089C5.45249 8.83642 5.44344 8.85588 5.4111 8.86885C5.37876 8.87789 5.33473 8.87789 5.32824 8.87533C5.32176 8.87277 5.31527 8.84683 5.32176 8.83386C5.32824 8.82089 5.34633 8.80673 5.35674 8.80024H5.35691Z" fill="#82764F"/>
<path id="Vector_112" fill-rule="evenodd" clip-rule="evenodd" d="M5.39962 8.80908C5.39962 8.80908 5.3776 8.82205 5.3776 8.82854C5.37565 8.8348 5.37479 8.84135 5.37504 8.84791C5.37504 8.85175 5.40355 8.84535 5.40739 8.84142C5.40867 8.83886 5.39962 8.81582 5.39962 8.80908Z" fill="#6E6342"/>
<path id="Vector_113" fill-rule="evenodd" clip-rule="evenodd" d="M5.20558 8.74798C5.21846 8.75062 5.24048 8.74798 5.25729 8.75446C5.27026 8.76095 5.2793 8.77392 5.26633 8.78945C5.25336 8.80498 5.24073 8.82828 5.21198 8.82435C5.17963 8.82179 5.14857 8.80498 5.14857 8.79201C5.14803 8.78381 5.14912 8.77557 5.15179 8.7678C5.15446 8.76002 5.15864 8.75285 5.1641 8.7467C5.17707 8.73637 5.18347 8.74286 5.20549 8.74798H5.20558Z" fill="#585136"/>
<path id="Vector_114" fill-rule="evenodd" clip-rule="evenodd" d="M5.19717 8.76123C5.19717 8.76123 5.15579 8.79357 5.14538 8.80919C5.13241 8.82472 5.069 8.90493 5.04963 8.92174C5.05607 8.91039 5.0634 8.89958 5.07156 8.8894C5.04596 8.90577 5.02677 8.93045 5.01721 8.95929C5.00168 9.00725 5.10399 9.0331 5.17123 9.05256C5.23848 9.07201 5.2645 9.07816 5.2645 9.07816C5.23975 9.04095 5.21849 9.00153 5.20101 8.9604C5.17541 8.89956 5.16219 8.89307 5.179 8.86457C5.19197 8.83607 5.21143 8.8167 5.21143 8.79468C5.20366 8.7742 5.19717 8.76123 5.19717 8.76123Z" fill="#574F35"/>
<path id="Vector_115" fill-rule="evenodd" clip-rule="evenodd" d="M3.71892 8.86343C3.72834 8.86516 3.738 8.86516 3.74742 8.86343C3.76679 8.86078 3.96878 8.78663 4.17981 8.79994C4.33779 8.80948 4.49437 8.83522 4.64709 8.87674C4.91248 8.94663 5.24255 9.08512 5.45614 9.16414C5.51305 9.18607 5.56878 9.22498 5.60974 9.24043C5.77289 9.30392 5.77929 9.30392 5.87512 9.32073C5.98776 9.33626 6.10296 9.29871 6.22337 9.27286C6.37091 9.24043 6.62333 9.2249 6.84468 9.19256C6.91626 9.18264 6.98686 9.16662 7.05571 9.14468C7.05571 9.14468 6.87967 9.32073 6.45761 9.38413C6.28701 9.41004 6.11365 9.41222 5.94245 9.39061C5.8078 9.37764 5.71854 9.35819 5.65121 9.33882C5.57484 9.3168 5.41816 9.25852 5.22531 9.21082C5.09065 9.17583 4.94047 9.14998 4.76835 9.11763C4.34373 9.0399 3.88293 8.95064 3.71875 8.86394L3.71892 8.86343Z" fill="#252211"/>
<path id="Vector_116" fill-rule="evenodd" clip-rule="evenodd" d="M3.23862 8.06348C3.13622 8.15018 3.0276 8.23303 2.92153 8.31325L2.60178 8.55892C2.49307 8.63914 2.38691 8.72199 2.27811 8.80229C2.16931 8.88259 2.06068 8.95888 1.94531 9.03269C2.04771 8.94599 2.15634 8.86569 2.26506 8.78676C2.37377 8.70783 2.4865 8.63043 2.59137 8.55039L2.91112 8.30437C3.02111 8.22416 3.12726 8.1413 3.23862 8.06365V8.06348ZM2.67295 8.96963C2.67295 8.96963 2.78815 8.8738 2.93185 8.73923C3.11045 8.57232 3.32925 8.35864 3.39914 8.3199L2.67286 8.96972L2.67295 8.96963Z" fill="#CFB66C"/>
<path id="Vector_117" fill-rule="evenodd" clip-rule="evenodd" d="M2.67188 8.96935C2.72888 8.91244 2.78972 8.8568 2.85056 8.80236L2.94375 8.72214C2.97225 8.69654 3.00468 8.66779 3.03309 8.63928C3.09001 8.58237 3.14573 8.52144 3.20265 8.46324C3.23086 8.43398 3.26069 8.40631 3.29199 8.38038C3.30764 8.36653 3.32503 8.35477 3.3437 8.3454C3.35932 8.33635 3.37613 8.3198 3.39806 8.31689C3.38518 8.33635 3.36965 8.3454 3.35668 8.36221C3.34114 8.37518 3.32817 8.39071 3.31529 8.40359C3.28679 8.43209 3.25445 8.45795 3.22594 8.48389C3.1651 8.53569 3.1017 8.58629 3.04086 8.64048C2.98001 8.69467 2.9231 8.75312 2.86217 8.80748C2.79621 8.8632 2.73536 8.91756 2.67188 8.96961V8.96935ZM3.44602 8.45155C3.44602 8.45155 3.02405 8.86456 2.93726 8.93181L3.44602 8.45155Z" fill="#CFB66C"/>
<path id="Vector_118" fill-rule="evenodd" clip-rule="evenodd" d="M3.44626 8.45166C3.4083 8.4956 3.3676 8.5371 3.3244 8.57591L3.1964 8.69759C3.15501 8.73898 3.1161 8.78045 3.07216 8.82184C3.02684 8.86066 2.98546 8.89864 2.9375 8.93448L3.06175 8.81279C3.10322 8.7714 3.14853 8.7365 3.19256 8.69503L3.31681 8.57335C3.35947 8.53068 3.40095 8.48921 3.44626 8.45166ZM3.46563 8.67557C3.42673 8.78413 3.3809 8.89008 3.32841 8.99276C3.2197 9.21027 3.05663 9.48206 2.98537 9.62064L3.46563 8.67557Z" fill="#CFB66C"/>
<path id="Vector_119" fill-rule="evenodd" clip-rule="evenodd" d="M3.47116 8.67578C3.47116 8.72365 3.45819 8.76513 3.44266 8.80651C3.42752 8.84793 3.41026 8.88855 3.39095 8.9282C3.37149 8.96702 3.34948 9.0085 3.32746 9.04604C3.30545 9.08359 3.27959 9.12233 3.26013 9.16124L3.1294 9.39164C3.08409 9.46844 3.04006 9.54567 2.99219 9.61948C3.02453 9.53662 3.06856 9.45897 3.11003 9.3826C3.15534 9.3058 3.19673 9.229 3.23803 9.14955C3.2582 9.10996 3.27634 9.06938 3.29239 9.02795C3.31176 8.98648 3.33113 8.94765 3.34675 8.91011C3.36612 8.86872 3.38165 8.82981 3.4011 8.79235C3.42304 8.75215 3.44121 8.71333 3.47099 8.67578H3.47116Z" fill="#CFB66C"/>
<path id="Vector_120" fill-rule="evenodd" clip-rule="evenodd" d="M3.9286 9.7373C3.9286 9.7373 3.8006 9.90686 3.8134 10.1217C3.8483 10.0092 3.89233 9.83697 3.9286 9.7373ZM4.05029 9.90729C4.05029 9.90729 4.00497 10.3681 3.96743 10.5946C4.0205 10.3328 4.03083 10.3548 4.05029 9.90729ZM4.89816 10.6219C4.89816 10.6219 4.70658 11.1851 4.70266 11.3416C4.74413 11.1806 4.82434 10.8518 4.89816 10.6214V10.6219Z" fill="#DEC270"/>
<path id="Vector_121" fill-rule="evenodd" clip-rule="evenodd" d="M5.34375 9.70264C5.34375 9.70264 5.65445 10.2152 5.88749 10.6527C5.82443 10.4326 5.67937 10.0288 5.34375 9.70264Z" fill="#CBAF59"/>
<path id="Vector_122" fill-rule="evenodd" clip-rule="evenodd" d="M6.17969 10.457C6.35028 10.7586 6.50411 11.0693 6.64049 11.3878C6.61463 11.1677 6.54466 10.791 6.17969 10.457Z" fill="#E3C677"/>
<path id="Vector_123" fill-rule="evenodd" clip-rule="evenodd" d="M8.63781 11.2129C8.68952 11.1806 8.79183 11.0045 8.88118 10.9605C8.97044 10.9152 9.03776 10.9062 9.11806 10.8168C9.19828 10.7236 9.22046 10.6666 9.39633 10.5929C9.64235 10.4867 9.47313 10.3495 9.47313 10.3495C9.50023 10.3228 9.52921 10.2982 9.55983 10.2757C9.62332 10.2279 9.69705 10.1696 9.69065 10.0673C9.6816 9.89514 9.64926 9.64528 9.50812 9.5003C9.64534 9.4718 9.90808 9.45243 10.0713 9.41104C10.2602 9.36309 10.347 9.29576 10.347 9.29576C10.347 9.29576 10.2383 9.11067 10.4144 8.9243C10.5904 8.73793 10.7341 8.62657 10.8403 8.41811C10.7186 8.40257 10.5331 8.33789 10.0596 8.51777C10.0852 8.5298 10.1099 8.54363 10.1334 8.55916C10.1334 8.55916 9.8422 8.63946 9.73605 8.7288C9.55087 8.88539 9.52758 9.01356 9.32696 9.10939C9.12634 9.20522 8.92436 9.17928 8.75744 9.25693C8.59053 9.33459 8.56587 9.40063 8.50494 9.42913C8.51791 9.44466 8.50238 9.47052 8.52696 9.49254C8.51143 9.51455 8.4208 9.66209 8.3289 9.66209C8.33794 9.69708 8.4156 9.72294 8.4156 9.72294C8.4156 9.72294 8.35868 9.76441 8.2137 9.77473C8.28743 9.85153 8.3574 9.93525 8.55025 10.0569C8.53472 10.0893 8.46996 10.1372 8.4959 10.1981C8.5244 10.2589 8.5983 10.3418 8.89329 10.4091C8.74311 10.4155 8.56715 10.4505 8.33009 10.4181C8.09321 10.3896 8.05438 10.3728 7.90812 10.4091C7.92365 10.4246 7.96504 10.4246 8.0013 10.466C7.96248 10.4686 7.71911 10.4375 7.63625 10.5463C7.54955 10.6589 7.512 10.844 7.51849 10.9683C7.47318 10.9903 7.42914 11.0291 7.45116 11.1094C7.47318 11.1897 7.58838 11.2156 7.66219 11.266C7.73592 11.3204 7.7424 11.3397 7.81238 11.3269C7.8861 11.3113 7.99482 11.2376 8.05831 11.2376C8.12179 11.2376 8.16702 11.2855 8.16702 11.2855C8.16702 11.2855 8.33922 11.2026 8.35604 11.2181C8.37157 11.2337 8.3586 11.3333 8.37541 11.3489C8.39247 11.3606 8.58644 11.2454 8.63823 11.2129H8.63781Z" fill="#ECD592"/>
<path id="Vector_124" fill-rule="evenodd" clip-rule="evenodd" d="M12.3981 6.03253C11.5891 3.94322 9.58905 3.55615 9.58905 3.55615H3.8829L3.90491 5.68428H5.0413V10.4364H3.88281V12.5607H9.4311C10.7683 12.5607 11.8401 11.217 11.8401 11.217C13.5566 8.78077 12.3981 6.03253 12.3981 6.03253H12.3981ZM9.46088 9.78523C9.46088 9.78523 9.02568 10.4131 8.55217 10.4131H7.60497L7.58252 5.68949H8.7981C8.7981 5.68949 9.3613 5.80725 9.75477 6.92178C9.75477 6.92178 10.2764 8.51752 9.46088 9.78523Z" fill="white" fill-opacity="0.8"/>
</g>
</g>
</g>
</g>
<defs>
<clipPath id="clip0_3354_17878">
<rect width="16" height="16" fill="white"/>
</clipPath>
</defs>
</svg>
