<svg width="40" height="40" viewBox="0 0 36 36" fill="none" xmlns="http://www.w3.org/2000/svg">
<g clip-path="url(#clip0_2793_9541)">
<path d="M18 36C27.9411 36 36 27.9411 36 18C36 8.05887 27.9411 0 18 0C8.05887 0 0 8.05887 0 18C0 27.9411 8.05887 36 18 36Z" fill="#988430"/>
<path d="M18.0015 35.4235C27.6242 35.4235 35.425 27.6228 35.425 18.0001C35.425 8.37739 27.6242 0.57666 18.0015 0.57666C8.37886 0.57666 0.578125 8.37739 0.578125 18.0001C0.578125 27.6228 8.37886 35.4235 18.0015 35.4235Z" fill="#7A6A2A"/>
<path d="M18.0016 35.0562C27.4216 35.0562 35.058 27.4199 35.058 17.9999C35.058 8.57998 27.4216 0.943604 18.0016 0.943604C8.58169 0.943604 0.945312 8.57998 0.945312 17.9999C0.945312 27.4199 8.58169 35.0562 18.0016 35.0562Z" fill="#BA9F33"/>
<path fill-rule="evenodd" clip-rule="evenodd" d="M7.86731 16.0777C7.76536 15.9846 7.65765 15.8913 7.55858 15.7982C7.45951 15.705 7.35775 15.6117 7.25579 15.5186L6.95282 15.2306C6.90328 15.1811 6.85087 15.1375 6.80133 15.0878C6.75179 15.0442 6.69362 14.9946 6.64408 14.9509C6.24203 14.5694 5.83768 14.1878 5.4412 13.8062C5.85189 14.1819 6.25394 14.555 6.66463 14.9363L6.80728 15.0791C6.85682 15.1285 6.90923 15.1722 6.95877 15.2218L7.26155 15.5013C7.36351 15.5944 7.46258 15.6878 7.56453 15.7893C7.66648 15.8909 7.76555 15.9844 7.86751 16.0773L7.86731 16.0777ZM2.53144 16.0201C2.53144 16.0201 3.99352 16.1714 4.70719 16.2734C5.36824 16.3667 7.43627 16.684 7.43627 16.684L2.53144 16.0201ZM2.53144 16.0201C2.94213 16.055 3.35282 16.0986 3.76351 16.1424C3.97317 16.1628 4.17419 16.186 4.37522 16.2063L4.68376 16.2415C4.78571 16.2559 4.88479 16.2705 4.98674 16.2851L6.21016 16.4801L6.82168 16.5821C7.02271 16.617 7.22373 16.655 7.43339 16.69C7.23237 16.6696 7.02271 16.6405 6.82168 16.6113L6.21016 16.5239L4.98674 16.3434C4.88479 16.3288 4.78571 16.3083 4.68376 16.2939L4.37503 16.2584C4.174 16.238 3.96434 16.2088 3.76331 16.1854C3.35263 16.1361 2.94194 16.0835 2.53125 16.0195L2.53144 16.0201ZM7.29074 17.065C7.29074 17.065 5.72959 17.4613 5.20235 17.6127C4.68395 17.7554 3.11397 18.2331 3.11397 18.2331L7.29055 17.0652L7.29074 17.065Z" fill="#CFB66C"/>
<path fill-rule="evenodd" clip-rule="evenodd" d="M7.28986 17.0649C6.9433 17.1669 6.59866 17.266 6.24711 17.3593L5.20436 17.6388C4.8578 17.7408 4.51316 17.8399 4.16756 17.9418L3.64916 18.0845C3.47732 18.134 3.3026 18.1776 3.125 18.2273C3.29665 18.1697 3.47156 18.1108 3.6434 18.0612L4.1618 17.8953C4.50836 17.7874 4.853 17.6855 5.1986 17.5778C5.55092 17.4904 5.89767 17.3971 6.24999 17.3126C6.58484 17.2281 6.93735 17.1439 7.28986 17.0651V17.0649ZM3.33178 19.1942C3.50343 19.1301 5.4841 18.207 5.94433 17.9913C6.17473 17.8834 6.84442 17.6457 6.84442 17.6457L3.33178 19.1942Z" fill="#CFB66C"/>
<path fill-rule="evenodd" clip-rule="evenodd" d="M3.33613 19.1943C3.48743 19.1367 3.63027 19.0663 3.77581 18.9992L4.20685 18.7982L5.072 18.3818C5.36 18.2449 5.63994 18.0938 5.93696 17.9651C6.08845 17.9012 6.23994 17.8488 6.39123 17.7992L6.62163 17.7265C6.70016 17.7061 6.77312 17.6827 6.85203 17.6624C6.56403 17.7992 6.26087 17.9158 5.97248 18.0496C5.68448 18.1925 5.38995 18.309 5.09274 18.4371L4.21319 18.8243C3.91789 18.944 3.62989 19.072 3.33594 19.1943H3.33613ZM3.52813 20.0007C3.52813 20.0007 5.32218 18.9493 5.93965 18.6114C6.26298 18.4309 7.30861 17.9123 7.30861 17.9123L3.52813 20.0007Z" fill="#CFB66C"/>
<path fill-rule="evenodd" clip-rule="evenodd" d="M3.52344 20.0011C3.82622 19.8147 4.13496 19.6254 4.44369 19.4332L4.90449 19.1534C5.06174 19.0603 5.21323 18.973 5.37355 18.8798C5.5308 18.7865 5.68229 18.6934 5.84241 18.6061C5.91864 18.559 5.99851 18.5181 6.08126 18.4838L6.32587 18.3614C6.6492 18.2042 6.97253 18.0439 7.31333 17.907C7.00459 18.1022 6.68702 18.2683 6.36965 18.44C6.2124 18.5273 6.05208 18.6061 5.89483 18.6934C5.73758 18.7808 5.58609 18.8741 5.42577 18.9586C5.26853 19.0517 5.11704 19.139 4.95691 19.2235L4.48209 19.4827L3.52382 20.0011H3.52344ZM7.28933 18.1428C7.28933 18.1428 6.17381 18.9991 5.81265 19.2729C5.4515 19.5467 4.3884 20.3156 4.3884 20.3156L7.28933 18.1428Z" fill="#CFB66C"/>
<path fill-rule="evenodd" clip-rule="evenodd" d="M13.6958 25.0484L13.125 23.9678L13.457 22.6163L15.8249 21.7019L14.8171 19.634L15.3151 17.5456L16.2502 15.6756L19.1396 15.2213L21.2627 13.197L25.8473 13.5436L26.7472 18.4455L25.0142 24.6174L24.027 27.8126L20.0249 27.9641L18.1667 26.6768L15.991 25.7678L13.6958 25.0484Z" fill="#E2CC85"/>
<path fill-rule="evenodd" clip-rule="evenodd" d="M20.715 25.0135C20.715 25.0135 20.1615 25.2669 19.2174 25.2086C18.9442 24.8416 17.0307 24.6698 17.0307 24.6698C17.0307 24.6698 16.7919 24.597 16.3695 24.7718C15.9444 24.9446 15.5423 24.9232 15.1666 25.0164C14.7908 25.1095 14.4178 24.6203 14.1298 24.5183C13.8418 24.4106 13.4599 24.1514 13.4599 24.1514L12.6535 24.0727L11.0342 23.3882L8.46156 20.8252L7.76249 21.9196L7.54688 23.274L8.32467 24.8789L10.4188 26.7866L14.5023 27.8234L16.9226 27.1103L19.9547 25.8287L20.715 25.0133V25.0135Z" fill="#F1D789"/>
<path fill-rule="evenodd" clip-rule="evenodd" d="M6.21066 15.9554L6.72906 14.3857L7.34673 13.3719L9.33585 13.2058L8.73873 14.9476L7.07581 17.9069L7.76605 20.5487L6.54282 21.1602L6.16689 20.5836L5.8641 19.2613L5.84375 17.7758L6.21066 15.9554Z" fill="#F4ECB4"/>
<path fill-rule="evenodd" clip-rule="evenodd" d="M8.43964 24.9057L8.05814 24.3728C8.05814 24.3728 7.95619 24.1193 8.01456 23.8979C8.07216 23.6737 8.0639 23.6591 8.03491 23.5746C8.00592 23.4901 7.76112 23.1989 7.77571 22.9483C7.79011 22.6949 7.75536 22.6104 7.9416 22.4096C8.13667 22.2145 8.07849 21.8766 8.07849 21.8766L8.33193 22.0338L8.38953 21.9464C8.38953 21.9464 8.48265 22.0192 8.48265 22.1329C8.503 21.9756 8.41852 21.2474 8.61072 21.0815C8.80291 20.9156 9.14371 21.8591 9.14371 21.8591L8.93404 20.4901L8.3951 19.0864L7.43683 17.8048L7.37923 16.3921V16.2698C7.37923 16.2698 6.93936 16.9456 6.81705 17.4794C6.72969 17.8463 6.93936 18.2919 6.89577 18.8192C6.86064 19.3435 6.81705 19.3026 6.94512 19.5104C7.07318 19.7181 7.38499 20.1453 7.26268 20.454C7.15497 20.7192 6.78787 20.5328 6.78787 20.5328C6.78787 20.5328 6.7151 20.7482 6.61603 20.8269C6.58108 20.6988 6.54326 20.6172 6.47337 20.5389C6.46742 20.5884 6.45302 20.6554 6.45302 20.6554C6.45302 20.6554 6.38889 20.4544 6.32476 20.201C6.2376 19.8632 6.14428 19.4176 6.0598 19.1788C6.02486 19.3157 5.9375 19.7321 5.9375 19.7321L5.98704 20.373L6.22588 21.2526L6.45628 21.8286L6.68054 22.5334L6.87542 23.0069L7.03267 23.368L7.16956 24.1808L7.83062 24.8796L8.18313 25.0371L8.43926 24.9059L8.43964 24.9057Z" fill="#F3E19D"/>
<path fill-rule="evenodd" clip-rule="evenodd" d="M6.55534 14.6737C6.55534 14.6737 6.08053 15.4801 5.94382 16.293C5.80712 17.1059 5.68462 17.9649 5.77102 19.0716C5.85838 20.1873 6.02446 20.8716 6.15848 21.361C6.38888 22.1738 6.98561 23.3039 6.98561 23.3039L7.00597 23.2601C6.90566 23.07 6.82561 22.8698 6.76712 22.663C6.6884 22.3543 6.65921 21.9873 6.58645 21.8213C6.52232 21.6554 6.41461 21.5125 6.36219 21.3086C6.31265 21.1136 6.30459 20.8048 6.15253 20.5748C6.0884 20.4815 6.00968 20.2369 5.98645 19.9923C5.95726 19.6252 6.00104 19.2145 5.96609 18.8768C5.90197 18.3146 5.85838 17.9331 5.91656 17.6387C5.97473 17.3444 6.2779 16.5088 6.46433 15.8447C6.58664 15.4194 6.51368 15.0611 6.73793 14.6912C6.96219 14.3242 7.09928 14.0009 7.14862 13.7767C7.20622 13.5728 6.55457 14.6737 6.55457 14.6737H6.55534Z" fill="#F2E8B0"/>
<path fill-rule="evenodd" clip-rule="evenodd" d="M8.80275 14.3503C8.80275 14.3503 8.55814 14.4233 8.4416 14.5514C8.32505 14.6737 8.27552 14.7756 8.11827 14.9824C7.96102 15.1892 7.95219 15.3581 7.82393 15.6173C7.69587 15.8708 7.41324 16.2523 7.3783 16.3892C7.34336 16.5261 7.28518 17.1668 7.21241 17.4698C7.14828 17.7727 7.28518 18.1456 7.28518 18.1456L7.45107 18.1105C7.45107 18.1105 7.45107 18.3261 7.61715 18.4718C7.78304 18.6145 7.81222 17.9882 7.81222 17.9882L8.43257 15.894L9.36742 15.2591L9.46937 14.7464L8.80236 14.3503H8.80275Z" fill="#F5EEC0"/>
<path fill-rule="evenodd" clip-rule="evenodd" d="M9.25849 15.3C9.25849 15.3 8.81862 15.329 8.6032 15.4864C8.51584 15.5504 8.48089 15.6028 8.38777 15.6815C8.21593 15.8242 8.04102 15.9553 7.95673 16.1423C7.86342 16.3286 7.76147 16.6112 7.69158 17.1442C7.6624 17.3684 7.6624 17.5752 7.64205 17.7559C7.61286 18.0005 7.56928 18.1956 7.59251 18.3319C7.62169 18.6114 7.91008 18.7572 7.93811 19.0745L8.53523 18.7718L9.0974 16.5551L10.2916 15.8063L9.6158 15.0491L9.25773 15.2987L9.25849 15.3Z" fill="#E6DB9D"/>
<path fill-rule="evenodd" clip-rule="evenodd" d="M6.10957 30.2265C6.11206 30.2046 6.11456 30.1827 6.11705 30.1602C6.20422 29.4114 6.21901 28.8439 6.28294 28.4885C6.37606 27.9847 6.44019 27.7973 6.4256 27.6087C6.40525 27.3059 6.38202 27.0846 6.4112 26.8515C6.45478 26.5427 6.75776 26.1758 6.74912 25.9224C6.74317 25.7214 6.64121 25.5904 6.55385 25.4681C6.46649 25.3458 6.39661 25.2439 6.39661 25.2439C6.39661 25.2439 6.99373 24.8332 6.98797 23.1787C7.00016 23.1821 7.01189 23.187 7.02291 23.1933L7.31705 24.0291L7.51808 24.2737L8.28992 25.7125L9.28313 26.6768L10.751 27.664L11.6714 28.6657L11.7645 31.3366L10.5617 32.8978L10.3647 33.2545C8.79962 32.4688 7.36447 31.4475 6.10938 30.2263L6.10957 30.2265Z" fill="#E5CB7A"/>
<path fill-rule="evenodd" clip-rule="evenodd" d="M9.78125 32.7816C9.78125 32.7816 9.8016 32.4496 10.0754 32.234C10.1192 32.3067 10.1482 32.3768 10.1395 32.429C10.1891 32.3419 10.5356 31.7826 11.3192 31.6369C12.1027 31.4942 12.292 30.9234 12.292 30.9234L13.9549 29.4118L15.8569 27.6613L18.1695 26.8486L19.2503 26.5834C19.2503 26.5834 19.2707 26.6621 19.23 26.8369C19.4308 26.8225 19.8764 26.7205 20.3395 26.5573C20.526 26.4845 20.7009 26.4554 20.794 26.5515C20.9309 26.6796 20.9512 26.9826 20.9599 27.1631C21.1841 27.1135 21.4433 26.8981 21.6511 26.9185C21.9832 26.9534 22.2774 27.3437 22.6153 27.3437C23.0609 27.3437 23.2618 27.0699 23.5736 26.8543C23.76 26.7263 24.0278 26.5663 24.1793 26.4582C24.5405 26.1931 28.3619 25.0251 28.3619 25.0251L29.7016 25.1125L29.9172 26.5514L29.802 30.3126C29.7878 30.3263 29.7736 30.3405 29.7592 30.3541L23.6675 33.5357L15.2233 34.8302C13.3318 34.5212 11.5064 33.8933 9.82503 32.9734L9.78183 32.7814L9.78125 32.7816Z" fill="#D8C173"/>
<path fill-rule="evenodd" clip-rule="evenodd" d="M6.625 30.7048C6.745 30.4539 6.8529 30.244 6.87191 30.1689C6.88689 30.3202 6.91434 30.6522 6.96964 31.0051C6.85354 30.9064 6.73866 30.8063 6.625 30.7046V30.7048Z" fill="#F1D789"/>
<path fill-rule="evenodd" clip-rule="evenodd" d="M12.7904 34.2444L13.8825 33.9407L13.9756 33.9699C13.9756 33.9699 14.0252 33.9991 14.0252 34.0979C14.1621 34.0194 14.2786 34.0338 14.3631 33.9816C14.4067 34.0747 14.4502 34.3835 14.6426 34.4213C14.8435 34.4651 15.0591 34.3339 15.2776 34.168C15.493 33.9962 15.7384 33.7806 15.924 33.6932C15.9922 33.8185 16.0525 33.9478 16.1047 34.0805C16.3493 33.8854 16.7746 33.0932 17.3804 33.1076C17.5554 32.6939 17.8479 32.3405 18.2217 32.0912C18.7839 31.7097 19.1362 31.6805 19.5761 31.7154C19.7508 31.4885 19.9661 31.2959 20.211 31.1475C20.2838 31.1767 20.4848 31.299 20.7354 31.1824C20.9888 31.0661 21.2741 30.6145 21.6499 30.5563C21.8523 30.5285 22.0582 30.5717 22.2324 30.6786C22.2324 30.6786 23.3268 29.5921 24.0819 29.2309C24.0527 29.1436 23.9946 28.8145 24.8799 28.0862C24.9294 28.13 24.8945 28.2523 24.9294 28.259C24.9438 28.259 25.1598 28.1659 25.4332 27.9561C25.7711 27.7028 26.1759 27.4377 26.4205 27.3649C26.8813 27.228 27.3701 27.5075 27.3701 27.5075C27.4117 27.4784 27.458 27.4567 27.507 27.4434C27.6234 27.4231 27.7078 27.4085 27.772 27.3858C27.7662 27.5373 27.8507 27.7965 27.772 28.0208C27.8632 28.072 27.9598 28.1131 28.06 28.1431C28.0106 28.2508 27.9027 28.5246 27.7222 28.6557C27.8735 28.7285 27.8939 28.813 28.1095 28.8861C28.0222 29.0084 27.8791 29.2183 27.8154 29.3469C27.7512 29.4838 27.521 30.0517 27.4191 30.2672C27.3114 30.4828 27.1658 30.8789 27.0957 30.9584C27.0257 31.0379 26.7724 31.3748 26.5774 31.5407C26.7502 31.4766 27.4571 31.2611 27.757 31.1795C27.6677 31.3105 27.2152 31.9819 26.7801 32.6276C24.697 33.8762 22.3717 34.6664 19.9592 34.9457C17.5467 35.225 15.1023 34.9869 12.7891 34.2473L12.7904 34.2444Z" fill="#E0CD81"/>
<path fill-rule="evenodd" clip-rule="evenodd" d="M9.33166 15.2215C9.33166 15.2215 9.07841 15.2215 9.02887 15.2564C8.97934 15.2914 9.28231 15.3643 9.37543 15.3993C9.46855 15.4342 9.66958 15.5943 9.72199 15.7226C9.77153 15.8449 11.5423 16.5584 11.5423 16.5584L12.7948 16.4942L13.2266 15.8977L12.4052 15.1783L12.9812 13.4802L12.2182 13.6025L10.3832 14.6969L9.46279 15.0494L9.33166 15.2215Z" fill="#DFC57C"/>
<path fill-rule="evenodd" clip-rule="evenodd" d="M12.082 15.7835C12.1001 15.8128 12.1256 15.8368 12.1559 15.8532C12.1862 15.8695 12.2203 15.8776 12.2548 15.8766C12.514 15.8766 12.7526 15.9407 12.8517 16.0717C13.0178 16.2815 13.478 16.9514 13.478 16.9514L14.5789 17.3475L14.65 16.0511L13.4471 15.2153L12.0781 15.7191V15.7833H12.0812L12.082 15.7835Z" fill="#E5CC7C"/>
<path fill-rule="evenodd" clip-rule="evenodd" d="M11.8659 16.2642C11.8659 16.2642 12.0667 16.2788 12.3202 16.1855C12.5736 16.0922 12.9901 15.8913 13.1707 15.9701C13.424 16.0778 13.3716 16.4157 13.6456 16.7189C13.8114 16.9053 14.1144 16.8995 14.2863 17.1005C14.4581 17.3016 15.0493 17.2083 15.0493 17.2083L15.2735 18.4179L14.3736 19.5714L14.0793 21.0043H12.8624L11.7507 20.5633L11.2031 19.2385L11.4769 17.8987L11.8659 16.2642Z" fill="#D2C281"/>
<path fill-rule="evenodd" clip-rule="evenodd" d="M14.2194 16.3223C14.2496 16.3316 14.2809 16.3365 14.3125 16.3369C14.2775 16.366 14.2046 16.43 14.2338 16.5961C14.263 16.7621 14.3561 16.9718 14.2775 17.0999C14.3402 17.1684 14.387 17.25 14.4144 17.3387C14.464 17.4816 14.4786 17.6125 14.8017 17.633C14.7551 17.6617 14.7121 17.696 14.6736 17.735C14.6736 17.735 14.8979 17.9301 15.0116 18.1105C15.1279 18.1056 15.4367 18.0096 15.4367 18.0096L15.5008 18.0533L15.6377 17.9957C15.6377 17.9957 15.5096 17.9462 15.6027 17.6346C15.6901 17.3608 15.7688 17.3754 15.7755 17.355C15.7823 17.3347 15.8397 17.0463 15.8397 16.9297C15.8832 16.7785 15.9182 16.3182 15.9182 16.3182L15.8251 15.3018L15.3009 14.9842L14.8747 14.5728L14.4726 15.33L14.2079 15.594L14.1875 16.2493L14.2194 16.3223Z" fill="#E2C270"/>
<path fill-rule="evenodd" clip-rule="evenodd" d="M15.4844 15.4719C15.4844 15.4719 15.5775 15.7368 15.6126 15.9407C15.625 15.9011 15.6319 15.8599 15.633 15.8184C15.633 15.8184 15.7058 16.2205 15.7202 16.3866C15.7493 16.3806 15.7778 16.372 15.7843 16.401C15.7908 16.4299 15.8572 16.7535 15.8419 16.9339C15.9632 16.7339 16.131 16.566 16.3311 16.4447C16.4476 16.3718 16.5845 16.2932 16.7274 16.2873C16.9516 16.2815 17.1146 16.4301 17.3827 16.4301C18.0291 16.4301 18.6147 15.9553 19.0458 15.8098C19.3632 15.7019 19.6369 15.6234 19.8291 15.4484C19.9225 15.3699 20.0885 15.1952 20.2398 14.9358C20.4409 14.5902 20.6505 14.2893 20.8604 14.2515C20.7654 14.269 20.6688 14.2758 20.5724 14.2719C20.5724 14.2719 20.6365 14.2077 20.7452 14.1204C20.8538 14.033 20.984 13.9253 21.1703 13.9253C21.5024 13.9253 21.6683 13.9747 21.8547 13.9747C22.0412 13.9689 22.1489 13.9253 22.1489 13.9253C22.1489 13.9253 22.3442 14.0622 22.7838 14.0622C23.2237 14.068 23.5178 14.1058 23.7481 14.1263C23.9783 14.1469 24.7499 14.0622 24.9713 14.0687C25.1156 14.0743 25.2573 14.109 25.3879 14.1707L24.6743 12.0971L22.1107 9.85645L20.5845 10.937L18.2367 13.2846L15.965 14.1263L15.4901 14.6593V15.4719H15.4844Z" fill="#CCB360"/>
<path fill-rule="evenodd" clip-rule="evenodd" d="M20.5814 14.2834C20.5814 14.2834 20.6456 14.2195 20.7531 14.1321C20.8606 14.0447 20.9921 13.9368 21.1784 13.9368C21.5103 13.9368 21.6764 13.9864 21.8628 13.9864C22.0493 13.9806 22.157 13.9368 22.157 13.9368C22.157 13.9368 22.3524 14.0735 22.7919 14.0735C23.2318 14.0793 23.5259 14.1171 23.7561 14.1375C23.9864 14.1578 24.758 14.0735 24.9794 14.0799C25.1237 14.0853 25.2653 14.12 25.3958 14.1818L25.0725 13.2468L24.6969 12.5333L23.625 11.3594C23.625 11.3594 22.3386 10.6022 22.3288 10.5964C22.3231 10.5907 21.8832 10.4741 21.8832 10.4741L20.7181 11.179L19.661 13.914L19.6406 14.49L20.3249 14.8133C20.4968 14.5253 20.6863 14.2949 20.8639 14.2657C20.7035 14.2832 20.5812 14.2832 20.5812 14.2832L20.5814 14.2834Z" fill="#D5B457"/>
<path fill-rule="evenodd" clip-rule="evenodd" d="M20.5642 14.4787C20.4622 14.4844 20.3779 14.4641 20.3545 14.3913C20.2671 14.1467 20.1973 14.1117 20.1241 14.1117C20.051 14.1117 19.9523 14.269 19.8937 14.2834C19.8351 14.2978 19.7656 14.1029 19.7656 14.1029L19.7015 14.0737C19.7015 14.0737 19.3258 14.3183 19.0608 14.6067C18.7959 14.8951 18.3617 15.3845 18.1667 15.4717C17.9716 15.5589 17.3015 15.5882 17.0723 15.6378C16.843 15.6873 16.5888 15.8534 16.5539 15.8912C16.5189 15.929 16.656 15.9697 16.6764 16.0076C16.6967 16.0425 16.4519 16.0279 16.4316 16.0652C16.4172 16.0943 16.4892 16.2602 16.5249 16.3447C16.5874 16.3136 16.6559 16.2967 16.7257 16.2952C16.95 16.2894 17.1132 16.438 17.381 16.438C18.0277 16.438 18.6131 15.9632 19.0441 15.8175C19.3617 15.7098 19.6355 15.631 19.8277 15.4563C19.9208 15.3778 20.0869 15.2029 20.2383 14.9437C20.3489 14.7661 20.4568 14.6 20.5647 14.4777L20.5642 14.4787Z" fill="#D2B257"/>
<path fill-rule="evenodd" clip-rule="evenodd" d="M11.2864 28.8934C11.2864 28.8934 11.2288 28.6778 10.695 28.1215C10.5435 27.9643 10.4504 27.8335 10.3485 27.74C10.095 27.501 9.9464 27.4371 9.76592 27.3002C9.36983 27.006 8.93879 27.006 8.60682 26.6449C8.27485 26.2837 7.88797 25.5937 7.61917 24.8884C7.35421 24.1836 7.28125 23.9594 7.28125 23.939C7.28125 23.9186 7.35421 23.7818 7.44733 23.8021C7.54045 23.8225 7.54045 24.0029 7.56387 24.0467C7.61027 24.1182 7.66289 24.1854 7.72112 24.2475C7.85802 24.405 8.05309 24.5931 8.15216 24.8739C8.13181 24.635 8.05021 24.37 8.05021 24.37C8.05021 24.37 8.56285 24.6934 8.99965 25.0311C9.43952 25.369 9.62 25.4856 9.74845 25.701C9.8769 25.9164 10.1795 26.4845 10.3245 26.6506C10.4694 26.8167 12.4557 27.4428 12.4557 27.4428L13.4005 28.1473L13.8695 29.1754L13.5024 29.7514L12.7976 29.9029L11.6529 29.3903L11.2864 28.8932V28.8934Z" fill="#D2B159"/>
<path fill-rule="evenodd" clip-rule="evenodd" d="M8.75 25.3515C8.75 25.3515 8.98885 25.733 9.57138 26.0941C10.0957 26.4117 10.9257 26.7001 11.6657 26.8719C12.0908 26.9739 12.5161 27.0524 12.8976 27.0584C13.9257 27.0728 14.6335 26.7788 15.5103 26.6826C15.9851 26.6331 16.5677 26.5953 17.1734 26.4522C17.951 26.2658 18.4112 26.0559 19.0376 25.761C19.4918 25.5513 19.9085 25.3941 20.2462 25.1931C20.721 24.9135 21.0676 24.6019 21.4696 24.5088C21.4201 24.6457 21.3677 24.8903 20.9716 25.1437C21.1812 25.1378 21.4696 25.1234 21.4696 25.1234C21.4696 25.1234 21.1901 25.2893 20.6978 25.6621C20.3948 25.8925 19.9929 26.2825 19.5823 26.5417C19.3171 26.7078 19.0287 26.8297 18.8394 26.9291C18.3786 27.1826 18.1928 27.3106 17.89 27.6203C17.9977 27.6146 18.0065 27.6203 18.0065 27.6203C18.0065 27.6203 17.6248 27.6699 17.3512 27.8154C17.2936 27.8154 17.1938 27.7951 17.0191 27.8446C16.8822 27.8882 16.7015 27.9874 16.5152 28.0397C16.2501 28.1184 16.1629 28.0834 16.1629 28.0834L16.2065 28.1708C16.2065 28.1708 15.8609 28.1649 15.7457 28.1766C15.7661 28.1823 15.7603 28.1912 15.7603 28.1912C15.7401 28.1945 15.7206 28.2014 15.7027 28.2115C15.6473 28.2474 15.5863 28.274 15.5222 28.29C15.4873 28.2958 15.4581 28.2958 15.4143 28.3046C15.4289 28.3396 15.5426 28.535 15.595 28.6502C15.5514 28.6794 14.8959 29.1746 14.8959 29.1746C14.9163 29.2066 14.9329 29.2408 14.9455 29.2765C14.9658 29.3405 14.9746 29.4338 14.995 29.4774C15.0443 29.5647 15.0735 29.5793 15.0735 29.5793C15.0735 29.5793 14.995 29.5939 14.8579 29.6289C14.7416 29.658 14.5987 29.7074 14.3971 29.7366C14.3352 29.7446 14.273 29.7495 14.2107 29.7512C14.2399 29.8153 14.3679 30.0599 14.132 30.3423C13.896 30.6248 13.8232 30.6658 13.7504 30.8463C13.7138 30.8186 13.6748 30.7942 13.6339 30.7734C13.5554 30.7384 13.4475 30.6862 13.4096 30.6161C13.3876 30.7095 13.3584 30.801 13.3223 30.8899C13.2495 31.085 13.1418 31.2774 13.1215 31.4229C13.0427 31.3355 12.8972 31.1637 12.6962 31.1986C12.4952 31.2336 12.335 31.5074 12.3001 31.5861C12.3001 31.5366 12.2651 31.4987 12.2565 31.5569C12.2505 31.621 12.14 32.2907 11.5225 32.8326C11.5167 32.6957 11.5167 32.3927 11.5021 32.2938C11.4445 32.3514 11.3741 32.4365 10.9545 32.6171C10.5439 32.7976 10.6089 32.9783 10.6089 32.9783C10.6089 32.9783 10.574 32.6903 10.7954 32.3869C11.0196 32.0841 11.1565 31.9413 11.1565 31.9181C11.1529 31.8944 11.1428 31.8722 11.1273 31.8539C11.0982 31.8248 11.04 31.7898 11.04 31.7666C11.0749 31.7522 11.4215 31.5861 11.4011 31.2422C11.3808 30.9337 11.2498 30.7734 11.1565 30.6599C11.1421 30.6453 11.2936 30.5376 11.2731 30.5026C11.2585 30.4823 11.0722 30.3452 11.0488 30.2722C11.0543 30.2287 11.0641 30.1858 11.078 30.1442C11.0984 30.0801 11.1129 30.0363 11.1072 29.9927C11.0926 29.9199 11.0139 29.7189 10.9906 29.6985C11.011 29.7043 11.1565 29.6985 11.1565 29.6985C11.1565 29.6985 11.0402 29.5121 11.0196 29.4248C10.9991 29.3374 10.9555 29.1072 10.9323 29.0636C10.9818 29.0694 11.1041 29.078 11.1041 29.0636C11.1101 29.0198 10.9964 28.9471 11.0465 28.8908C11.0815 28.8966 11.1485 28.9257 11.2124 29.0073C11.1775 28.914 11.1193 28.7336 10.9968 28.6608C11.0544 28.6404 11.2502 28.5878 11.4221 28.6898C11.5939 28.7917 11.6525 28.9344 11.6525 28.9344C11.6525 28.9344 11.7544 29.0131 11.9119 29.1297C12.0923 29.2723 12.3224 29.4753 12.6895 29.6189C12.7682 29.6626 12.969 29.6626 13.1147 29.6335C13.1782 29.6183 13.239 29.5938 13.2952 29.5607C13.3155 29.5487 13.337 29.539 13.3593 29.5315C13.328 29.4687 13.292 29.4083 13.2516 29.3508C13.3012 29.3508 13.3593 29.3568 13.3593 29.3568C13.3593 29.3568 13.3943 29.2781 13.237 29.1264C13.272 29.0914 13.3158 29.0688 13.3158 29.0098C13.2662 29.0041 13.1789 28.9313 13.1585 28.9021C13.1875 28.8818 13.2313 28.8148 13.2808 28.7944C13.237 28.7595 13.1293 28.6137 13.0798 28.5993C13.1271 28.5818 13.1729 28.5603 13.2167 28.5352C13.2167 28.5352 12.9721 28.4711 12.8934 28.4187C12.8146 28.3611 12.6983 28.2614 12.6284 28.2322C12.5554 28.2031 12.4274 28.1887 12.375 28.1303C12.4243 28.1449 12.503 28.1303 12.5614 28.1303C12.605 28.1303 12.6255 28.1361 12.6399 28.1361C12.6342 28.1157 12.6342 28.0719 12.7478 28.0575C12.8025 28.0493 12.8555 28.0326 12.9051 28.008C12.9051 28.008 12.7972 28.0022 12.6747 27.8857C12.5522 27.7691 12.4504 27.676 12.3805 27.6614C12.3078 27.6468 12.1709 27.711 12.0864 27.705C11.9698 27.6906 11.9203 27.6322 11.9203 27.6322C11.9203 27.6322 11.533 27.6672 10.6738 27.143C9.93099 26.6886 9.60766 26.2867 9.60766 26.2867C9.53814 26.2615 9.47095 26.2303 9.40683 26.1934C9.12728 26.0479 8.73982 25.7449 8.75154 25.3486L8.75 25.3515Z" fill="#C2A44D"/>
<path fill-rule="evenodd" clip-rule="evenodd" d="M19.4584 7.86983C19.5258 7.89172 19.5857 7.9321 19.6312 7.98638C19.7681 8.14362 19.8555 8.44065 19.5439 8.75822C19.6662 8.8018 19.7167 8.81582 19.8234 8.8018C19.7157 8.93006 19.4711 9.20385 19.4565 9.4427C19.4419 9.63777 19.5642 9.69614 19.5642 9.69614C19.5642 9.69614 19.3778 9.91156 19.3692 10.2721C19.4572 10.1729 19.5536 10.0813 19.6572 9.99834C19.8728 9.8265 20.1698 9.63143 20.3708 9.50913C20.3681 9.56039 20.375 9.61171 20.3912 9.66042C20.3912 9.66042 20.7667 9.35169 21.0824 9.48878C21.225 9.5529 21.1609 9.75374 21.1609 9.75374C21.1609 9.75374 21.3562 9.68097 21.4931 9.81786C21.63 9.95476 21.8235 10.3078 21.9228 10.4447C21.9664 10.5089 22.08 10.6312 22.1964 10.8205C22.3553 11.0855 22.488 11.3654 22.5927 11.6563C22.5984 11.5048 22.6362 11.269 23.0675 11.4174C23.4985 11.5689 23.9877 11.8865 24.3984 12.5118C24.8091 13.1372 24.9109 13.8431 25.1176 14.1119C25.3273 14.3711 25.5429 14.8022 25.5575 14.9829C25.5721 15.1635 25.4934 15.7459 25.9244 17.3216C26.0467 16.8324 26.2332 15.7459 26.2332 15.7459L26.3351 14.7876L26.4517 11.8225L23.3555 9.25031L20.9351 7.4939L19.3594 7.64538L19.4583 7.86964L19.4584 7.86983Z" fill="#CAA13E"/>
<path fill-rule="evenodd" clip-rule="evenodd" d="M25.2141 12.2825C25.2141 12.2825 25.1703 11.9945 24.4422 11.5049C23.714 11.0214 23.146 11.0214 22.6219 10.6108C22.2198 10.2874 21.8005 9.54458 21.5275 9.29998C21.2623 9.05825 21.2188 8.35918 21.2188 8.35918L22.1129 7.61038L23.4427 5.68826L24.5668 4.45044L25.1056 5.19924L25.8544 6.07879L26.2708 7.84385L26.4223 10.4274L25.2127 12.2827L25.2141 12.2825Z" fill="#B59544"/>
<path fill-rule="evenodd" clip-rule="evenodd" d="M26.1114 15.3792C26.1334 14.9874 26.085 14.5948 25.9685 14.2201C25.7765 13.623 25.357 12.5627 25.1621 12.1657C25.0834 11.7258 25.1418 11.6909 25.2263 11.6413C25.3107 11.5918 25.6283 11.4109 25.8023 10.7764C25.9762 10.1418 26.5159 10.1211 26.5159 10.1211L26.8479 9.87646L27.3519 11.1375L27.7916 12.2765L27.9285 13.1474L28.0304 13.89L27.7916 15.46L26.6121 16.526L26.1112 15.3792H26.1114Z" fill="#C89D3A"/>
<path fill-rule="evenodd" clip-rule="evenodd" d="M9.65625 32.8779V32.8456C9.68076 32.8303 9.7024 32.8108 9.72019 32.788C9.74054 32.7588 9.75532 32.7239 9.76972 32.7153C9.79891 32.7007 9.9358 32.6577 10.0086 32.6715C10.0813 32.6853 10.2737 32.7646 10.3757 32.7588C10.5853 32.7531 10.8299 32.5928 11.2174 32.6657C11.7999 32.7734 11.9368 33.1695 12.2747 33.3938C12.5051 33.5512 12.7436 33.4812 12.7786 33.4812H12.8571C12.8717 33.4812 12.9794 33.3588 13.0378 33.3648C13.1543 33.3706 13.1658 33.4667 13.2386 33.4725C13.4104 33.4929 13.7426 33.3851 13.9087 33.4289C13.9579 33.4444 14.0027 33.4715 14.0392 33.5079C14.0757 33.5444 14.1029 33.5892 14.1183 33.6384C14.1533 33.7461 14.1241 33.883 14.0396 33.9617C13.8591 34.1276 13.6873 34.2851 13.6523 34.4225C13.6968 34.4564 13.7395 34.4926 13.7802 34.5308C12.3391 34.1636 10.9525 33.6085 9.65625 32.8796V32.8779Z" fill="#CEB052"/>
<path fill-rule="evenodd" clip-rule="evenodd" d="M25.1641 27.0583C25.1641 27.0583 25.6183 26.4525 25.7758 26.1524C25.933 25.8431 25.2777 21.9263 25.2777 21.9263L26.5943 17.6129L26.5591 16.209C26.5591 16.209 26.6233 14.9128 26.7747 14.3506C26.9554 14.6739 27.5176 15.0642 27.6399 15.271C27.6975 14.8747 27.8932 14.039 27.8642 13.1477C27.9719 13.3136 28.2311 14.9826 28.2311 14.9826L28.4903 16.1068L28.8282 17.301L29.2039 18.5623L29.4282 19.4332L29.5563 19.6429L29.6642 20.0098L29.7661 20.4061L30.0603 21.3352L30.2331 22.0982L30.3699 23.4817C30.3997 23.5877 30.4212 23.6958 30.4341 23.805C30.4398 23.9565 30.4137 24.0439 30.4137 24.0702C30.4137 24.0965 30.4633 24.4022 30.4429 24.6324C30.4137 24.8628 30.4137 25.0431 30.2331 25.2084C30.0524 25.3737 29.9389 26.3617 29.9389 26.3617L29.6156 26.1463C29.6156 26.1463 29.6797 25.852 29.5282 25.5841C29.3767 25.3163 29.0826 25.2608 28.9165 25.3046C28.7506 25.3395 28.4187 25.3917 28.3107 25.485C28.2088 25.5782 27.9584 25.8666 27.7282 25.9977C27.4402 26.1705 26.971 26.1841 26.7206 26.2423C26.4672 26.2999 26.1876 26.4727 25.8933 26.6733C25.6625 26.8227 25.4188 26.9513 25.1652 27.0573L25.1641 27.0583Z" fill="#CCA847"/>
<path fill-rule="evenodd" clip-rule="evenodd" d="M25.1641 33.4224C25.1641 33.4224 25.1833 33.4348 25.2203 33.4552C27.2896 32.4857 29.1437 31.1114 30.6731 29.4136C30.6564 28.8241 30.6347 28.2199 30.6109 27.996C30.5616 27.5212 30.5965 27.0378 30.5819 26.7582C30.5673 26.4787 30.4101 25.3397 30.3373 25.0456C30.2586 24.7514 30.1069 24.6057 30.0839 24.6057C30.0635 24.6117 29.941 25.1592 29.941 25.2969C29.941 25.4346 29.9118 25.766 29.9118 25.8504C29.8915 25.8445 29.8828 25.7928 29.8828 25.7717C29.8537 25.8445 29.8187 25.9728 29.8041 25.9873C29.7895 26.0019 29.8245 25.865 29.8041 25.8359C29.7838 25.8067 29.7465 25.8213 29.7546 25.7485C29.758 25.7053 29.7648 25.6625 29.7749 25.6204C29.7749 25.6204 29.6876 25.7485 29.6236 26.0747C29.5595 26.398 29.5595 26.4069 29.5363 26.4359C29.5159 26.471 29.3994 26.5873 29.3934 26.6311C29.3877 26.7096 29.5013 26.7884 29.51 26.832C29.5157 26.9049 29.408 27.2426 29.3731 27.408C29.3381 27.5733 29.3527 27.8972 29.3155 28.0632C29.2863 28.2147 29.2579 28.3021 29.1582 28.366C29.231 28.3806 29.3009 28.401 29.3009 28.401C29.3009 28.401 29.4028 28.832 29.1436 29.1991C29.0505 29.3272 29.0273 29.3856 28.9282 29.5021C28.733 29.7175 28.5815 29.9629 28.5669 30.1224C28.5568 30.0754 28.55 30.0276 28.5465 29.9796C28.5465 29.9796 28.2437 30.3321 28.1155 30.5331C27.9496 30.7923 27.7194 30.7777 27.6547 30.8419C27.59 30.906 27.576 31.0224 27.5971 31.1157C27.5395 31.1301 27.4312 31.1506 27.3582 31.3749C27.3233 31.4912 27.2359 31.6053 27.099 31.6836C26.9621 31.7619 26.7961 31.7856 26.7116 31.8059C26.7843 31.8263 26.8135 31.8263 26.8485 31.8495C26.8049 31.9223 26.6039 32.0359 26.3796 32.1816C26.1554 32.3185 26.0475 32.5194 25.9922 32.6505C25.9346 32.7728 25.8495 32.8515 25.7126 32.8661C25.7702 32.9011 25.8555 32.9825 25.899 33.0088C25.8349 33.0234 25.7262 33.0234 25.5321 33.1895C25.3282 33.3584 25.2583 33.408 25.165 33.4225L25.1641 33.4224Z" fill="#C39D3C"/>
<path fill-rule="evenodd" clip-rule="evenodd" d="M21.1103 34.7721C21.2219 34.694 21.3427 34.6299 21.4699 34.5815C21.9242 34.401 22.4048 34.366 22.5941 34.3079C22.7748 34.2503 22.9174 34.1708 23.1417 34.1272C23.1357 34.1783 23.1308 34.2263 23.1254 34.2716C22.4642 34.4794 21.791 34.6466 21.1094 34.7721H21.1103Z" fill="#D2BA6B"/>
<path fill-rule="evenodd" clip-rule="evenodd" d="M29.4925 22.8235C29.4925 22.8235 29.3993 23.3273 29.2333 23.6448C29.0672 23.9624 28.8877 24.4021 28.8877 24.4021C28.8887 24.303 28.9005 24.2043 28.9226 24.1077C28.7129 24.2301 28.2032 24.5244 28.0586 24.6553C27.9217 24.7776 27.6915 24.9933 27.6333 25.0952C27.7702 24.6933 27.9129 24.3322 27.9363 24.1661C27.7266 24.3176 26.7478 25.1244 26.2383 25.6574L24.6508 26.9419C24.4676 27.0407 24.279 27.129 24.0857 27.2064C23.8121 27.3228 23.4888 27.4219 23.25 27.5152C23.3141 27.3433 23.4158 27.1917 23.5587 27.0461C23.7102 26.9035 24.1645 26.4112 24.2343 26.1821C24.2985 25.9433 24.3131 25.8006 24.2286 25.5996C24.1499 25.6199 23.9694 25.6288 23.8471 25.6637C23.7248 25.6987 23.5936 25.8296 23.5936 25.8296C23.5936 25.8296 23.6868 25.2966 23.8878 24.7928C23.7363 24.7986 23.4771 24.8421 23.4771 24.8421C23.4771 24.8421 23.8382 24.2364 24.4563 23.8142C24.267 23.8545 24.0818 23.9119 23.903 23.9858C23.5418 24.1373 23.1457 24.3616 22.8516 24.4839C23.0175 24.2535 24.1825 22.5908 24.8758 21.0411C25.567 19.4946 25.8253 19.0985 25.9767 18.2685C26.0553 17.8578 26.0343 17.2509 26.0553 16.7073C26.0756 16.1684 26.1426 15.6849 26.0991 15.3616C26.2795 15.5858 26.9554 16.2179 26.9786 17.6306C26.999 19.0432 26.3321 20.9511 25.6242 21.979C25.797 22.0286 26.2448 22.0869 26.7048 21.2878C27.1648 20.4887 27.1593 20.2656 27.3254 19.9335C27.3457 20.0996 27.3398 20.1577 27.3398 20.1577C27.3398 20.1577 28.0098 19.3452 28.3272 18.3228C28.3913 18.7627 28.5807 19.1501 28.2834 19.9569C28.0185 20.685 27.6719 20.8628 27.6719 20.8628C27.6719 20.8628 27.8438 20.8336 28.097 20.6821C28.1408 20.7898 28.1321 20.9125 28.2049 20.9559C28.2777 20.9993 28.3767 21.0724 28.3913 21.1423C28.4699 21.0258 28.5922 20.8772 28.6302 20.7666C28.601 20.997 28.5806 22.0044 28.6878 22.517C28.9122 22.4967 29.1422 22.4821 29.2995 22.0772C29.1918 22.4734 29.1918 22.7121 29.2646 23.05C29.384 22.9686 29.4917 22.8229 29.4917 22.8229L29.4925 22.8235Z" fill="#C0993A"/>
<path fill-rule="evenodd" clip-rule="evenodd" d="M21.9225 6.76907C21.9225 6.76907 21.6983 6.86219 21.3168 6.86219C20.9848 6.86219 21.0779 6.73413 20.5595 6.73413C19.7616 6.73413 16.9741 7.19493 16.4847 7.1884C16.1671 7.18264 17.5564 7.3253 17.5564 7.3253L21.1071 7.37483L21.8206 7.31723L22.0857 6.77771L21.9225 6.76907Z" fill="#A88F33"/>
<path fill-rule="evenodd" clip-rule="evenodd" d="M12.714 13.7096C12.714 13.7096 12.2595 14.0562 12.0673 14.3214C11.8751 14.5865 11.7732 14.761 11.5547 14.9766C11.606 14.9786 11.6572 14.9717 11.7062 14.9563C11.7062 14.9563 11.7062 15.0139 11.6712 15.0291C11.7014 15.0257 11.732 15.0291 11.7607 15.0391C11.7894 15.049 11.8155 15.0653 11.8371 15.0867C11.773 15.1216 11.5983 15.2965 11.7352 15.5033C11.8371 15.6606 12.0527 15.675 12.0527 15.675C12.0527 15.675 12.0032 15.8178 12.21 15.8032C12.6556 15.7829 13.1537 15.5876 13.3837 15.6371C13.6141 15.6947 13.745 15.7158 13.908 15.9985C14.0808 16.278 14.2314 16.3218 14.2314 16.3218C14.2314 16.3218 14.3333 16.0624 14.3101 15.6751C14.3937 15.4664 14.44 15.2446 14.447 15.0198L14.2955 13.9043L13.6344 13.0684L12.7781 13.5432L12.714 13.7091V13.7096Z" fill="#E3C571"/>
<path fill-rule="evenodd" clip-rule="evenodd" d="M13.5312 13.5437C13.5312 13.5437 13.5954 13.6952 13.8634 13.7096C13.8342 13.7737 13.8342 13.7825 13.8431 13.8319C13.8488 13.8814 13.8575 13.9542 13.8575 13.9542C13.887 13.9399 13.9136 13.9204 13.9362 13.8966C13.9508 13.9607 13.9216 14.0625 13.9362 14.1354C13.9452 14.1798 13.9598 14.2228 13.9798 14.2635C13.984 14.2535 13.9889 14.2439 13.9944 14.2345C14.0001 14.2199 14.052 14.3918 14.1954 14.5225C14.1953 14.5024 14.2002 14.4826 14.2098 14.4649C14.212 14.5014 14.2241 14.5367 14.2447 14.5669C14.234 14.5617 14.2242 14.5549 14.2157 14.5465C14.2157 14.5465 14.2301 15.0073 14.3089 15.2456C14.322 15.2302 14.3337 15.2136 14.3438 15.196C14.3438 15.1816 14.338 15.3243 14.3234 15.4264C14.3031 15.5284 14.3177 15.671 14.3177 15.671C14.3702 15.6297 14.4279 15.5954 14.4893 15.5691C14.5767 15.534 14.7197 15.4262 14.8069 15.1874C14.8575 15.0521 14.8965 14.9128 14.9234 14.771C14.9516 14.8252 14.971 14.8835 14.981 14.9438C14.987 15.0165 15.1239 14.9787 15.1239 14.9787L15.1531 14.6611L15.3259 13.9417L15.4831 13.4961L16.2404 12.3166L17.6086 11.2629L18.8028 11.5367L19.8104 10.1678L18.0745 9.125L16.4318 9.29684L14.9409 11.3618L13.7469 13.2348L13.5312 13.5435V13.5437Z" fill="#D8B65B"/>
<path fill-rule="evenodd" clip-rule="evenodd" d="M22.1335 10.5553C22.1335 10.5553 22.0315 10.5757 21.7374 10.7281C21.4432 10.8806 21.2393 10.929 21.1256 11.1532C21.012 11.3775 21.0033 11.5553 21.0033 11.5553C21.0033 11.5553 21.2044 11.4679 21.3209 11.4387C21.4432 11.4097 21.5801 11.4184 21.5655 11.4679C21.5515 11.5019 21.5321 11.5333 21.5079 11.561C21.5079 11.561 21.7383 11.5553 21.7322 11.6689C21.726 11.7826 21.6886 11.9078 21.645 11.9631C21.6012 12.0207 21.4207 12.1059 21.4004 12.1729C21.3509 12.3098 21.4207 12.3156 21.3944 12.4262C21.3741 12.5341 21.2781 12.7437 20.9634 13.1107C20.6401 13.4778 20.5026 13.737 20.5026 13.737C20.5026 13.737 20.3454 13.4428 20.2638 13.1894C20.2062 13.2184 19.8968 13.3902 19.8968 13.3902L19.1803 10.8942L19.1947 10.7281C19.1947 10.7281 19.2588 10.6496 19.2734 10.5039C19.1657 10.4689 19.1511 10.4397 19.0083 10.303C18.8654 10.1663 18.7491 10.0001 18.5104 9.8864C18.4755 9.82228 18.4317 9.73511 18.257 9.69997C18.0823 9.66484 17.9774 9.63604 17.9774 9.63604C17.9774 9.63604 18.0705 9.6009 18.1143 9.52813C18.0064 9.54272 17.9192 9.57767 17.6833 9.57191C17.4444 9.56596 17.4181 9.55732 17.2872 9.57767C17.1562 9.59802 16.9992 9.65639 16.9406 9.45536C16.8765 9.40583 16.7396 9.4496 16.6231 9.62125C16.5065 9.7929 16.4658 9.92999 16.2415 9.997C16.2258 10.0958 16.1912 10.1908 16.1396 10.2765C16.0755 10.3845 15.9735 10.4922 15.8366 10.6523C15.621 10.9057 15.6559 11.3222 15.3123 11.6397C14.9657 11.9571 15.3699 10.76 15.3699 10.76L15.9232 9.4352L17.499 7.8944L19.9456 7.72852L20.1845 8.99572L21.3787 9.4064L22.1331 10.5569L22.1335 10.5553Z" fill="#D3AE4D"/>
<path fill-rule="evenodd" clip-rule="evenodd" d="M22.5232 10.8349L21.4951 9.35248L20.7756 8.79895C20.7756 8.79895 20.263 7.85546 20.2281 7.82627C20.1989 7.80592 19.7154 7.75351 19.4067 7.73315L19.4643 7.87581C19.5317 7.8977 19.5915 7.93808 19.6371 7.99235C19.774 8.1496 19.8613 8.44663 19.5497 8.76419C19.672 8.80778 19.7225 8.82179 19.8293 8.80778C19.7216 8.93603 19.477 9.20983 19.4624 9.44867C19.4478 9.64375 19.5701 9.70192 19.5701 9.70192C19.5701 9.70192 19.3836 9.91754 19.375 10.2779C19.463 10.1786 19.5594 10.087 19.663 10.0041C19.8786 9.83133 20.1756 9.63703 20.3767 9.51472C20.3739 9.56605 20.3808 9.61743 20.397 9.66621C20.397 9.66621 20.7726 9.35747 21.0882 9.49437C21.2309 9.5585 21.1667 9.75952 21.1667 9.75952C21.1667 9.75952 21.362 9.68675 21.4989 9.82365C21.6358 9.96055 21.8309 10.3129 21.9299 10.45C21.9735 10.5141 22.0872 10.6364 22.2035 10.8255C22.3625 11.0906 22.4953 11.3706 22.5998 11.6615C22.6056 11.5449 22.629 11.3819 22.8302 11.3819L22.5244 10.8343L22.5232 10.8349Z" fill="#CAA13E"/>
<path fill-rule="evenodd" clip-rule="evenodd" d="M7.11047 15.0467C7.11047 15.0467 7.0377 14.866 7.11047 14.5137C7.18323 14.1613 7.2969 13.9953 7.33472 13.4769C7.37255 12.9585 7.71047 12.3118 7.71047 12.3118L8.64531 11.8867L9.30656 12.0672L9.50163 12.9527L8.66567 13.4135C8.66567 13.4135 8.62208 13.6086 8.38611 13.7658C8.15015 13.9231 7.82394 14.0454 7.74541 14.2057C7.69846 14.3039 7.66421 14.4076 7.64346 14.5144C7.64346 14.5144 7.40461 14.4649 7.26195 14.6221C7.11047 14.7825 7.11623 14.9251 7.11047 15.0474V15.0467Z" fill="#F4EFC8"/>
<path fill-rule="evenodd" clip-rule="evenodd" d="M8.99125 14.8108C8.99125 14.8108 8.91253 14.8603 8.85435 14.9836C8.79675 14.8905 8.65909 14.3369 8.65333 13.8389C8.64757 13.3408 8.61781 13.2174 8.73301 13.0457C8.84821 12.8741 9.29998 12.6932 9.23585 12.3841C9.17173 12.09 8.90369 11.9677 8.57461 12.0521C8.34421 12.1097 8.17275 12.5997 7.9339 12.8443C7.75323 13.0308 7.53781 13.0016 7.47963 13.1035C7.40091 13.2404 7.47368 13.3773 7.45045 13.4647C7.44449 13.4939 7.37173 13.6511 7.24059 13.8404C6.97563 14.2219 6.52712 14.7609 6.46875 15.2443C6.4891 14.9705 6.4747 14.9648 6.54747 14.6618L6.50369 14.589L6.79169 13.6454L6.97813 12.8678L7.39477 11.5656L8.12859 10.2347L8.84225 9.43652L9.58491 9.48606L9.67227 10.6016L10.0975 12.6959L10.9917 13.7968L9.55861 14.7613L8.99067 14.8108H8.99125Z" fill="#EBCC73"/>
<path fill-rule="evenodd" clip-rule="evenodd" d="M9.4419 15.2064C9.4419 15.2064 9.3196 15.2356 9.27582 15.2124C9.23205 15.1891 9.18865 15.1628 9.20305 15.1336C9.21745 15.1045 9.29618 15.0551 9.29618 15.0317C9.29779 15.0105 9.2911 14.9896 9.27751 14.9732C9.26392 14.9569 9.24452 14.9466 9.22341 14.9443C9.1564 14.9357 9.13605 14.9793 9.13605 14.9793C9.13605 14.9793 9.07192 14.9299 9.0197 14.9217C9.05059 14.9179 9.08169 14.9159 9.11281 14.9157C9.03233 14.8793 8.94695 14.8547 8.85938 14.843C8.93214 14.7994 9.07499 14.6711 9.16811 14.6711C9.26123 14.6711 9.3196 14.6567 9.30501 14.6072C9.29041 14.5576 9.21765 14.4849 9.13912 14.4557C9.16811 14.4207 9.18865 14.3683 9.11877 14.2253C9.04581 14.0826 9.07499 13.9864 9.09841 13.9517C9.11877 13.9079 9.19153 13.8294 9.22648 13.7798C9.26142 13.7303 9.29061 13.6633 9.34878 13.6284C9.37797 13.608 9.47109 13.5708 9.5644 13.5352C9.66635 13.5003 9.75083 13.4565 9.80901 13.5003C9.87313 13.5439 9.84395 13.6022 9.84395 13.6022C9.84395 13.6022 10.045 13.5293 10.2255 13.6226C10.4061 13.7098 10.846 13.7653 10.846 13.7653L11.0036 14.0828L9.96088 14.977L9.52984 15.1926L9.44248 15.207L9.4419 15.2064Z" fill="#E5C66B"/>
<path fill-rule="evenodd" clip-rule="evenodd" d="M10.8842 13.7447C10.8842 13.7447 10.5608 13.9603 10.4881 14.0388C10.5316 14.0448 10.6044 14.0739 10.5752 14.1175C10.5403 14.1611 10.3306 14.3126 10.2141 14.4554C10.0918 14.5981 9.97523 14.7788 9.93453 14.8661C9.89095 14.9447 9.55878 15.1749 9.44531 15.2039C9.68416 15.2039 10.1647 14.9097 10.3452 14.9097C10.3395 14.9971 10.3948 15.0962 10.4967 15.1048C10.5987 15.1134 10.8928 15.1689 11.2889 14.9243C11.685 14.6855 11.554 14.5077 11.7199 14.3913C12.0375 14.1815 12.1656 13.995 12.3403 13.8787C12.515 13.7623 12.6054 13.7358 12.6054 13.7358C12.6054 13.7358 12.6112 13.6485 12.663 13.6573C12.6772 13.6589 12.6907 13.6644 12.702 13.6731C12.7133 13.6819 12.722 13.6935 12.7272 13.7068C12.7272 13.7068 13.0301 13.4912 13.4184 13.433C13.4093 13.429 13.4021 13.4218 13.398 13.4127C13.398 13.4127 13.427 13.3981 13.433 13.3835C13.433 13.3835 13.4533 13.3543 13.4679 13.3689C13.4825 13.3835 13.5028 13.4912 13.532 13.535C13.5962 13.5058 13.7185 13.232 13.7185 13.232L14.0128 12.3903V11.6213L13.7824 11.6651L12.0544 12.3989L11.0057 13.4855L10.8834 13.7447H10.8842Z" fill="#E6BD62"/>
<path fill-rule="evenodd" clip-rule="evenodd" d="M15.8616 9.97292C15.9551 9.95024 16.0447 9.91388 16.1275 9.86501C16.0926 9.95833 16.0926 10.0603 15.9411 10.2817C15.7896 10.503 15.7839 10.5351 15.6615 10.7651C15.5392 11.004 15.5247 11.3476 15.4081 11.4989C15.4603 11.4736 15.5164 11.4569 15.574 11.4496C15.574 11.4496 15.4576 11.5515 15.4081 11.6593C15.3586 11.767 15.2712 11.9912 15.0558 12.1283C14.8404 12.2654 14.5664 12.3526 14.2722 12.6759C13.9779 12.9933 13.6751 13.3953 13.5234 13.5399C13.6022 13.403 13.7099 13.1292 13.7391 12.9487C13.7682 12.7682 13.7331 12.5524 13.7826 12.3138C13.8322 12.0751 13.8322 11.9031 14.0706 11.4865C14.3091 11.0698 14.7173 9.62233 14.7173 9.62233L15.5968 9.34277L15.862 9.97196L15.8616 9.97292Z" fill="#B6933F"/>
<path fill-rule="evenodd" clip-rule="evenodd" d="M15.2271 9.43981C15.2271 9.43981 14.9622 9.82131 14.8894 10.1592C14.8166 10.4972 14.8834 10.468 14.8399 10.634C14.8138 10.7353 14.8138 10.8415 14.8399 10.9428C14.9316 10.795 15.0573 10.6711 15.2064 10.5814C15.457 10.4301 15.6609 10.3222 15.7824 10.1942C15.9047 10.0573 16.0066 9.83302 16.2716 9.66118C16.1639 9.64659 16.0124 9.59706 15.9836 9.60358C16.0915 9.48128 16.4146 9.29485 16.7409 9.07059C17.0642 8.84019 17.0438 8.74726 17.5682 8.51725C17.3963 8.54643 17.3147 8.50266 17.1719 8.51725C17.2295 8.39494 17.4311 8.33658 17.6327 8.13574C17.8343 7.93491 17.5046 7.6377 17.5046 7.6377L15.9686 8.56678L15.226 9.44058L15.2271 9.43981Z" fill="#C49937"/>
<path fill-rule="evenodd" clip-rule="evenodd" d="M11.0625 8.74662L11.0974 8.46707L11.5373 7.76224L11.9975 6.52442V4.83213L11.9626 3.8535L12.0354 3.21261L12.0907 3.0089L12.149 2.93018L12.5246 3.12525L13.0432 3.83008L13.0927 5.1904L12.5887 7.33696L11.1499 8.90694L11.0625 8.74662Z" fill="#DFC068"/>
<path fill-rule="evenodd" clip-rule="evenodd" d="M12.2036 2.85146C12.2036 2.85146 11.9732 2.85741 11.924 3.81568C11.8749 4.77395 11.8511 5.27776 11.8161 5.75258C11.7812 6.22739 11.6998 6.51559 11.6589 6.79533C11.618 7.07507 11.5948 7.45638 11.4638 7.68947C11.4062 7.79718 11.2831 8.13511 10.9948 8.38855C10.6714 8.6681 10.1884 8.86336 10.1152 8.87795C9.98694 8.90695 9.33741 8.97107 9.07245 9.1168C8.97933 9.16634 8.81901 9.22451 8.64141 9.39059C8.2889 9.70797 7.82003 10.2759 7.48211 10.9604C6.96371 11.9828 6.44531 14.8691 6.44531 14.8691L6.56186 14.674C6.56186 14.674 6.57645 14.4148 6.83565 13.9604C7.08909 13.5061 7.01632 12.9964 7.36864 12.1254C7.50554 11.7935 7.67738 11.3624 7.88704 10.9953C8.2192 10.3982 8.62106 9.88557 9.02598 9.60602C9.68704 9.15174 10.4153 9.05267 10.4153 9.05267L11.1988 8.53427C11.1988 8.53427 11.3357 8.26931 11.5164 7.96634C11.7697 7.54125 12.0924 7.06643 12.1629 6.37619C12.2708 5.35379 12.0114 4.68391 12.026 4.07815C12.0406 3.47239 12.0463 3.02675 12.1688 2.91885C12.2913 2.81095 12.2038 2.85184 12.2038 2.85184L12.2036 2.85146Z" fill="#A88F33"/>
<path fill-rule="evenodd" clip-rule="evenodd" d="M12.2045 7.42418C12.2045 7.42418 12.5501 6.57362 12.7083 5.81925C12.7375 5.66777 12.7956 5.51647 12.8102 5.39417C12.883 4.6805 12.9034 4.38636 12.8102 3.99602C12.7375 3.70802 12.4579 3.44844 12.3122 3.24722C12.1695 3.03737 12.1025 2.95922 12.1317 2.91506C12.1609 2.8709 12.2744 2.79871 12.385 2.80735C12.5025 2.81077 12.6182 2.83807 12.7248 2.88758C12.8315 2.93709 12.927 3.00778 13.0055 3.09535C13.2298 3.35455 13.4074 4.23429 13.4074 4.23429L13.5942 5.39513L14.069 6.85721L12.2049 7.42533L12.2045 7.42418Z" fill="#C99E3D"/>
<path fill-rule="evenodd" clip-rule="evenodd" d="M15.4499 6.53891C15.4499 6.53891 15.3857 6.5679 15.2694 6.53891C15.2744 6.58646 15.2661 6.63446 15.2455 6.67761C15.225 6.72077 15.1929 6.75742 15.1529 6.78352C15.0305 6.73398 13.8857 6.83306 13.8857 6.83306C13.8857 6.83306 13.3527 6.73975 13.1866 6.03491C13.0702 5.56586 13.2739 4.91939 13.2069 4.49411C13.105 3.86781 12.9623 3.74531 12.9477 3.55043C12.9331 3.35555 12.9185 3.30582 12.9185 3.18352C12.8544 3.16893 12.8166 3.14858 12.7527 3.14858C12.7381 3.09098 12.7671 3.04067 12.7031 2.93872C12.7381 2.95331 12.9769 2.9825 13.2565 3.24746C13.4869 3.46307 13.4869 3.5416 13.5216 3.58538C13.5652 3.62896 13.9177 3.93098 14.0692 4.23203C14.2207 4.53309 14.5148 5.49309 14.5818 5.65034C14.6022 5.71447 14.646 5.77859 14.7546 5.92413C14.9236 6.13398 15.1711 6.48093 15.4506 6.53853L15.4499 6.53891Z" fill="#B58634"/>
<path fill-rule="evenodd" clip-rule="evenodd" d="M13.5625 3.6001C13.7389 3.88512 13.8975 4.18086 14.0371 4.4856C14.209 4.87287 14.3109 5.19043 14.5265 5.44963C14.41 5.11191 14.2032 4.44778 14.0809 4.21181C13.944 3.96221 13.6645 3.69341 13.5625 3.60029V3.6001Z" fill="#A88F33"/>
<path fill-rule="evenodd" clip-rule="evenodd" d="M11.5866 8.38838C11.5866 8.38838 11.2924 8.46114 10.7449 8.74953C10.5642 8.84265 10.3925 8.92118 10.2265 8.99414C9.79503 9.18921 9.33231 9.3695 8.96521 9.46895C8.99439 9.5039 9.00879 9.5183 9.00879 9.5183C9.00879 9.5183 9.00879 9.66114 9.08751 9.74255C9.04393 9.78633 8.46121 10.1824 8.63324 11.5076C8.74959 11.464 8.88649 11.4057 8.90684 11.4057C8.94197 11.4116 8.95062 11.5076 8.9942 11.5076C9.03778 11.5076 9.18063 11.45 9.33212 11.2542C9.32636 11.3329 9.239 12.1251 9.70786 12.6581C9.79522 12.5561 10.0166 12.2182 10.0166 12.2182L10.0224 12.1105C10.0224 12.1105 10.0427 11.7347 10.1652 11.3911C10.2877 11.0474 10.5264 10.7939 10.5264 10.7939L11.7726 9.0143L11.5862 8.38818L11.5866 8.38838Z" fill="#E6C367"/>
<path fill-rule="evenodd" clip-rule="evenodd" d="M10.4208 11.0016C10.3637 11.0419 10.3009 11.0733 10.2344 11.0947C10.214 11.022 10.1848 10.7714 10.3567 10.5268C10.5577 10.2325 10.9974 9.85096 11.1197 9.5476C11.1984 9.35233 11.1635 8.86312 11.8625 8.23681C12.5616 7.61051 12.8352 7.39508 12.8352 7.39508L13.9653 6.82715L15.3546 7.37473L14.6644 10.08L14.1285 11.3472L11.9973 10.9454L10.4206 11.0016H10.4208Z" fill="#DCBA5A"/>
<path fill-rule="evenodd" clip-rule="evenodd" d="M11.2344 10.2669L11.4995 9.93493V9.69896C11.4995 9.69896 11.7937 9.62024 12.111 9.29691C12.4284 8.97359 12.8683 8.35323 13.2558 8.39106C13.6432 8.43483 13.681 9.23279 13.6956 9.45723C13.7102 9.68168 13.7598 10.1911 13.8383 10.465C13.9256 10.7388 12.8946 11.7756 12.8946 11.7756L12.1944 12.3086L11.2344 10.2669Z" fill="#E9CE77"/>
<path fill-rule="evenodd" clip-rule="evenodd" d="M12.0547 13.0311C12.0547 13.0311 12.2703 12.6932 12.1123 12.6204C12.2054 12.4108 12.3772 12.1894 12.3772 12.1894C12.3772 12.1894 12.4996 11.8866 12.8956 11.5137C13.2917 11.1409 13.5365 10.8932 13.6007 10.6428C13.6402 10.4797 13.6617 10.3126 13.6648 10.1448C13.7076 10.1798 13.7534 10.2109 13.8017 10.2379C13.8658 10.2671 14.1686 10.5174 14.125 11.0214C14.0814 11.5254 13.8946 11.7351 13.8946 11.7351C13.8946 11.7351 13.7141 11.9156 13.5861 12.0089C13.449 12.102 13.3996 12.2097 13.1694 12.2186C13.1931 12.1998 13.2197 12.185 13.2482 12.1748C13.2482 12.1748 13.0093 12.1458 12.8811 12.2622C12.7528 12.3785 12.4802 12.737 12.3433 12.8449C12.2064 12.9322 12.0553 13.0313 12.0553 13.0313L12.0547 13.0311Z" fill="#CDAE50"/>
<path fill-rule="evenodd" clip-rule="evenodd" d="M21.7371 7.36584C21.393 7.24042 21.0314 7.16968 20.6654 7.15617C20.0537 7.13582 19.1595 7.17076 18.2828 7.17652C17.3392 7.18228 16.4828 6.8532 15.2946 6.79502C15.0995 6.67848 14.6034 6.16872 13.0547 7.24929C13.1478 7.24353 14.179 7.01044 14.5371 7.45915C14.8983 7.90478 14.7963 8.66203 14.747 8.84251C14.6537 9.24456 14.3507 9.82996 14.2286 10.2407C14.1065 10.6513 14.1353 10.8671 14.0479 11.1551C13.9605 11.4431 13.7684 11.5862 13.8818 11.9182C14.0333 11.825 14.1122 11.825 14.3653 11.2571C14.6183 10.6892 14.5663 10.2842 14.9858 9.80366C15.3965 9.3202 16.0802 8.65896 16.3402 8.49288C16.6002 8.3268 18.6644 7.25505 20.8257 8.27745C21.347 8.22216 21.7373 7.36564 21.7373 7.36564L21.7371 7.36584Z" fill="#D2A83E"/>
<path fill-rule="evenodd" clip-rule="evenodd" d="M13.9235 6.96963C13.9213 6.94775 13.9165 6.92621 13.9091 6.90551C13.8889 6.86291 13.8623 6.82362 13.8303 6.78896C13.8303 6.78896 13.3177 6.69584 13.0585 6.72483C12.604 6.77437 12.1934 7.33655 12.0012 7.62493C11.809 7.91331 11.5701 8.35875 11.3109 8.58896C11.3138 8.56653 11.3086 8.54382 11.2963 8.52483C11.2963 8.52483 11.3109 8.54518 11.2819 8.57437C11.2529 8.60355 11.2527 8.61795 11.2673 8.63197L11.3111 8.67555C11.3255 8.67555 11.7276 8.49488 12.2751 7.98435C12.8577 7.45136 13.3033 7.17795 13.5364 7.08426C13.6607 7.03143 13.7906 6.99298 13.9237 6.96963H13.9235Z" fill="#C29637"/>
<path fill-rule="evenodd" clip-rule="evenodd" d="M23.8674 4.77954C23.8674 4.77954 23.774 4.89589 23.6575 5.02415C23.3983 5.29794 23.0604 5.60648 22.772 5.92405C22.4984 6.22703 22.1897 6.463 21.8429 6.85909C21.4962 7.25519 21.0941 7.69487 20.9923 7.82312C20.8992 7.95138 20.8265 8.16105 20.8265 8.26876C20.7769 8.23381 20.7188 8.19599 20.7188 8.19599C20.7432 8.24172 20.7725 8.28471 20.8061 8.32424C20.8789 8.4262 20.9924 8.55465 21.0507 8.63298C21.1223 8.73271 21.1737 8.84548 21.202 8.96495C21.237 8.97071 21.4612 9.01449 21.741 8.55426C22.0207 8.09404 22.3874 7.59023 22.3874 7.59023L22.9699 6.72508L23.3371 5.99125L23.7979 5.16988L23.8679 4.77954H23.8674Z" fill="#AC8132"/>
<path fill-rule="evenodd" clip-rule="evenodd" d="M24.4658 4.19141C24.4658 4.19141 24.1133 4.47941 23.9764 4.65221C23.8395 4.82501 23.5156 5.27851 23.5156 5.27851L23.6322 5.26392L24.2235 4.73976L24.4539 4.32907L24.4656 4.19217L24.4658 4.19141Z" fill="#A88F33"/>
<path fill-rule="evenodd" clip-rule="evenodd" d="M24.3609 27.338C24.3609 27.338 24.3552 27.0991 24.4892 26.9565C24.6261 26.8136 24.9726 26.6039 25.3105 25.8175C25.6485 25.0311 25.6861 24.8535 25.6861 24.8535C25.6861 24.8535 25.0803 25.3719 24.7069 25.4942C24.7943 25.3135 24.8438 25.1854 24.8876 25.0921C24.838 25.0485 24.6284 24.999 24.608 24.9758C24.7244 24.8592 24.7885 24.5737 25.0245 24.3844C25.3274 24.154 25.8808 23.7581 26.3109 23.4052C26.7409 23.0523 27.5865 22.2315 27.6944 21.9927C27.7585 22.0858 27.7729 22.144 27.7729 22.144C27.7729 22.144 27.3479 22.6975 27.1265 23.0498C26.9312 23.3528 26.9458 23.5246 26.9458 23.5246L27.3479 23.3518C27.3479 23.3518 27.4642 23.7829 26.9372 24.4384C27.1676 24.351 27.2605 24.4034 27.3914 24.3305C27.1758 24.4676 26.8788 24.654 26.5992 25.1664C26.3255 25.6791 25.9526 26.2762 25.3236 26.6489C24.7119 27.0421 24.3594 27.3362 24.3594 27.3362L24.3609 27.338Z" fill="#A67A2E"/>
<path fill-rule="evenodd" clip-rule="evenodd" d="M22.7778 7.66899C22.7778 7.66899 22.539 8.16684 22.504 8.5543C22.4983 8.64761 22.4748 8.72038 22.4748 8.82809C22.4691 9.17465 22.4952 9.56211 22.4172 9.74259C22.3881 9.66982 22.3735 9.62028 22.3443 9.59129C22.3007 9.7136 22.222 10.0951 22.1578 10.2378C22.1289 10.1446 22.0647 9.82131 22.0707 9.4398C22.0766 9.0583 22.0851 8.98534 22.0851 8.90681C22.0707 9.02316 21.992 9.1806 21.9628 9.27372C21.9192 9.1952 21.8697 9.09324 21.8113 9.00876C21.7763 9.06636 21.7328 9.15142 21.6949 9.1952C21.689 9.16025 21.6746 9.06694 21.6658 8.936C21.66 8.78451 21.6512 8.58944 21.66 8.54854C21.6744 8.47001 21.7969 8.16128 22.0561 7.87865C22.3648 7.54073 22.6824 6.89139 22.7755 6.69036C22.8686 6.48934 23.2647 5.65356 23.2647 5.65356H23.5677L23.1278 6.65542C23.1278 6.65542 22.8629 7.203 22.726 7.40422C22.5891 7.60544 22.3007 8.18201 22.1724 8.40627C22.2656 8.28396 22.3443 8.21984 22.4376 8.10329C22.5278 8.02169 22.7782 7.66937 22.7782 7.66937L22.7778 7.66899Z" fill="#8C6228"/>
<path fill-rule="evenodd" clip-rule="evenodd" d="M24.4748 4.15332C24.4253 4.30564 24.3471 4.44707 24.2444 4.56996C24.0638 4.78558 23.6763 5.07377 23.4872 5.30378C23.3144 5.52804 22.9688 6.13975 23.1258 6.86494C23.1834 6.70769 23.2919 6.39607 23.5803 6.04356C23.8687 5.69105 24.1774 5.28631 24.3291 4.97182C24.4804 4.65425 24.5008 4.40388 24.5008 4.40388L24.5584 4.33111L24.5234 4.16503L24.4739 4.15332H24.4748Z" fill="#CBA94C"/>
<path fill-rule="evenodd" clip-rule="evenodd" d="M30.3719 23.4727C30.3719 23.4727 30.2554 23.1553 30.2205 22.8669C30.1855 22.5785 30.2781 22.5213 30.1709 22.1913C30.1068 21.9902 29.9904 22.0185 29.9613 21.9902C29.9321 21.962 29.9117 21.6583 29.9175 21.4922C29.9232 21.3261 29.9117 21.1107 29.8825 21.0174C29.839 20.9824 29.8098 20.9532 29.7456 20.7378C29.6729 20.5222 29.6379 20.4145 29.603 20.3505C29.568 20.2866 29.4659 20.2282 29.4659 20.1641C29.4659 20.0359 29.5824 19.969 29.5824 19.9337C29.5767 19.8609 29.4893 19.9193 29.4659 19.8988C29.4369 19.8638 29.5389 19.6542 29.501 19.625C29.4864 19.6106 29.3845 19.7329 29.3582 19.6979C29.329 19.6628 29.2941 19.3162 29.2416 19.0862C29.1923 18.862 29.1397 18.699 29.1339 18.632C29.1282 18.5678 28.7319 17.4377 28.6359 17.1639C28.5585 16.9326 28.4934 16.6973 28.4408 16.4591C28.4116 16.3222 28.3913 16.0425 28.3767 16.0716C28.3621 16.1008 28.3709 16.2435 28.3475 16.2377C28.3271 16.2318 28.2544 15.7339 28.2311 15.6552C28.2108 15.5765 28.0883 15.3096 28.0583 15.1164C28.0292 14.9212 27.9652 14.4114 27.9215 14.0648C27.8777 13.7183 27.8573 13.5756 27.8573 13.4888C27.8645 13.2766 27.8528 13.0641 27.8224 12.8539C27.7648 12.4868 27.6496 12.0412 27.5486 11.7822C27.3535 11.2928 26.8349 10.0403 26.7422 9.72872C26.7422 9.65 26.8441 9.69378 26.8441 9.69378C26.8441 9.69378 27.0974 10.3287 27.2838 10.8179C27.4645 11.3073 27.6363 11.7384 27.6801 11.7822C27.7151 11.8257 27.9888 12.3063 28.1111 13.0928C28.2335 13.8792 28.277 14.6044 28.35 15.0878C28.3849 15.3182 28.4141 15.5626 28.4869 15.8073C28.5654 16.0724 28.6877 16.3462 28.848 16.7655C28.9849 17.118 29.0869 17.4122 29.1422 17.6656C29.2063 17.9889 29.2063 18.2336 29.2441 18.3939C29.2793 18.5308 29.3315 18.8044 29.454 19.2003C29.5765 19.5962 29.7568 20.1061 29.8791 20.4235C30.1181 21.0585 30.2247 21.5886 30.2608 21.8712C30.2927 22.1625 30.4006 23.1703 30.3714 23.473L30.3719 23.4727Z" fill="#A88F33"/>
<path fill-rule="evenodd" clip-rule="evenodd" d="M24.4902 4.1184L24.4756 4.15334C24.4756 4.15334 24.5192 4.16794 24.5105 4.2263C24.5111 4.30616 24.5063 4.38596 24.4959 4.46515C24.4815 4.5671 24.4523 4.64563 24.4466 4.70976C24.4466 4.84666 24.4669 5.0039 24.2738 5.39424C24.2162 5.50195 24.1807 5.59507 24.1515 5.6592C24.0787 5.81645 24.0641 5.83987 24 5.91264C24.102 5.85504 24.4691 5.62464 24.6553 5.6592C24.5272 5.73197 24.332 5.87482 24.2097 6.06125C24.2388 6.06701 24.3612 6.09043 24.5553 6.06125C24.8786 6.01171 25.2397 5.89517 25.5571 5.9184C25.9039 5.93875 25.767 5.50195 25.767 5.50195L25.3668 4.6224L24.6096 4.0896L24.4902 4.11859V4.1184Z" fill="#BE9C44"/>
<path fill-rule="evenodd" clip-rule="evenodd" d="M26.464 10.7069C26.464 10.7069 26.1261 10.3689 25.9892 9.20926C25.8523 8.0442 25.8815 6.32926 25.8815 6.32926L25.6077 5.65937C25.6077 5.65937 25.5501 5.21374 25.4067 5.04785C25.2633 4.88196 24.9816 4.60222 24.8533 4.46532C24.7251 4.32843 24.5795 4.14199 24.4922 4.11281C24.5358 4.04004 24.731 3.62935 25.4795 3.62359C26.2279 3.61783 26.4587 4.03428 26.5368 4.18577C26.6149 4.33726 26.9678 4.99217 27.0988 6.24017C27.2211 7.48663 27.227 7.57995 27.2067 8.01099C27.1921 8.24983 27.1134 8.80318 26.9763 9.39435C26.8511 9.89547 26.7142 10.4548 26.4636 10.708L26.464 10.7069Z" fill="#A17C34"/>
<path fill-rule="evenodd" clip-rule="evenodd" d="M25.3977 11.7C25.5103 11.7081 25.6228 11.6827 25.721 11.627C25.8288 11.6213 26.2191 11.6708 26.519 11.2893C26.5394 11.3765 26.592 11.6126 26.4549 11.8223C26.5278 11.7493 26.6355 11.7203 26.6501 11.7C26.6559 11.8077 26.7579 12.1397 26.3268 12.9465C26.4432 12.8184 26.5801 12.8242 26.7024 12.8096C26.7083 12.9611 26.7897 13.4706 26.5743 13.7446C26.4316 13.931 26.1986 13.8727 26.1986 13.8727C26.202 13.832 26.202 13.7911 26.1986 13.7504C26.1928 13.6716 26.1636 13.5931 26.1842 13.5407C26.0715 13.4893 25.9689 13.4182 25.8812 13.3308C25.6277 13.092 25.2987 12.6844 25.2754 12.3814C25.2462 12.0435 25.5492 11.9707 25.5492 11.9707C25.5238 11.948 25.5022 11.9214 25.4851 11.892C25.4705 11.8427 25.4559 11.7639 25.3977 11.7Z" fill="#8C6228"/>
<path fill-rule="evenodd" clip-rule="evenodd" d="M23.1556 8.03599C23.1556 8.03599 23.141 8.01563 23.0625 8.10875C23.0771 8.01563 23.0917 7.92808 23.0974 7.8436C23.1346 7.76539 23.1827 7.69286 23.2403 7.62818C23.1965 7.71535 23.1673 7.79407 23.1673 7.79407C23.1673 7.79407 23.2752 7.59304 23.4325 7.47074C23.5402 7.38338 23.6771 7.34267 23.7353 7.26107C23.7994 7.17371 23.7848 7.15912 23.7994 7.14453C23.7994 7.14453 23.9422 7.05141 24.1607 6.77743C24.1897 6.74248 24.2335 6.70466 24.2627 6.66971C24.312 6.64936 24.4286 6.59695 24.5655 6.52687C24.7083 6.44834 24.8685 6.34063 24.9675 6.29647C25.1626 6.20911 25.3696 6.21794 25.4656 6.08085C25.5383 6.0605 25.6169 5.842 25.6025 5.65576C25.7102 5.69935 26.2635 6.04303 26.453 6.79451C26.5899 7.32751 26.3451 8.14888 26.2432 8.54517C26.1412 8.94146 26.1268 9.23541 25.984 9.41589C25.8033 9.65493 25.221 9.99189 25.0781 10.1587C24.9558 10.2956 24.5889 10.6422 24.6033 10.8926C24.6179 11.079 24.8479 11.1806 24.8976 11.2159C24.9474 11.2512 24.947 11.2946 25.0403 11.2735C25.1336 11.2524 25.1684 11.2094 25.2064 11.2094C25.25 11.2151 25.25 11.224 25.2703 11.224C25.2851 11.2235 25.2997 11.2215 25.3141 11.218C25.3141 11.218 25.2995 11.4832 24.6791 11.5636C24.6354 11.5696 24.5918 11.584 24.5363 11.5928C24.6093 11.5578 24.6528 11.5578 24.7316 11.4501C24.6442 11.4355 24.3936 11.4209 24.3295 11.4006C24.3499 11.3657 24.4169 11.2723 24.4722 11.2288C24.5217 11.1852 24.4664 11.1712 24.4228 11.1938C24.3478 11.2449 24.2758 11.3003 24.2072 11.3597C24.1344 11.4238 24.0703 11.5112 23.9538 11.5901C23.9188 11.4736 23.9246 11.2522 24.0617 11.0921C24.0265 11.0978 23.9595 11.1998 23.8956 11.1794C23.884 11.0732 23.8909 10.9657 23.9159 10.8618C23.9509 10.7307 24.1402 10.5007 24.1402 10.5007L25.0547 8.86658L25.2498 7.62875L23.1556 8.0356V8.03599Z" fill="#92723A"/>
<path fill-rule="evenodd" clip-rule="evenodd" d="M23.1031 8.10583C23.1031 8.10583 23.0535 8.14077 23.1526 8.20778C23.138 8.22813 23.1031 8.3009 23.0593 8.35044C23.0099 8.40804 22.9573 8.44375 22.937 8.49329C22.8934 8.59524 22.8584 8.66513 22.8584 8.7089C22.8584 8.75268 22.8439 9.03223 22.7215 9.21271C22.6778 9.27684 22.6282 9.38455 22.5933 9.45732C22.5205 9.58538 22.4564 9.68772 22.4418 9.74532C22.4128 9.84727 22.3925 10.1268 22.3925 10.1268C22.3925 10.1268 22.4566 10.0481 22.4798 10.0191C22.4447 10.0919 22.4069 10.1704 22.3516 10.2288C22.3865 10.1996 22.4885 10.1268 22.6603 9.97533C22.8991 9.7745 23.272 9.43658 23.7265 9.16893C23.5894 9.21847 23.473 9.21847 23.3799 9.23306C23.4527 9.16029 24.108 8.39133 24.4517 8.31857C24.4725 8.29211 24.4829 8.25889 24.4808 8.22525L24.1865 8.19626L23.5894 8.32433L23.5022 7.86353L23.1031 8.10525V8.10583Z" fill="#B18E3E"/>
<path fill-rule="evenodd" clip-rule="evenodd" d="M24.0579 10.7273C24.0579 10.7273 23.9792 10.8058 23.9064 11.0011C23.8504 10.9426 23.8024 10.877 23.7636 10.8058C23.6559 10.6254 23.49 10.3952 23.1025 10.5263C23.0968 10.404 23.0879 10.3399 23.1025 10.2525C23.1667 10.2381 23.3617 10.0809 23.5568 9.85065C23.6939 9.6934 23.822 9.51273 23.9093 9.28271C23.9669 9.23893 24.0666 9.16617 24.1973 9.08169C24.3837 8.95362 24.608 8.77871 24.6429 8.58364C24.5556 8.61858 24.3692 8.70594 24.0894 8.69154C24.1973 8.64201 24.3632 8.58959 24.3428 8.37397C24.3866 8.34479 24.4216 8.32444 24.4216 8.32444C24.3887 8.31349 24.3542 8.30854 24.3196 8.30985C24.3137 8.28949 24.305 8.2605 24.2555 8.2749C24.206 8.2893 24.1979 8.28949 24.1914 8.30985C24.171 8.3158 24.104 8.30985 24.0545 8.34498C24.0049 8.38012 23.868 8.49628 23.8156 8.51663C23.836 8.48169 23.865 8.42946 23.865 8.42946C23.865 8.42946 23.7223 8.44386 23.6204 8.48706C23.4339 8.55119 23.2185 8.66773 23 8.78121C23.0204 8.74626 23.0292 8.72361 23.0436 8.71708C23.058 8.71055 23.0931 8.70268 23.0931 8.69673C23.0931 8.69077 23.0787 8.63913 23.0874 8.6182C23.1527 8.47981 23.2298 8.34729 23.3178 8.2221C23.4197 8.08501 23.4401 7.88994 23.4401 7.88994L23.8857 7.66569L25.1381 7.37769L25.9508 7.42722L25.8489 7.9894L25.3689 8.9709L24.9582 9.86505L24.4892 10.4128L24.0581 10.7273H24.0579Z" fill="#543E26"/>
<path fill-rule="evenodd" clip-rule="evenodd" d="M26.0873 8.29436C26.0873 8.29436 25.5979 8.90012 25.461 8.99343C25.5484 8.807 26.0873 7.69724 26.2824 7.3885C26.2388 7.35356 26.1804 7.35356 26.3173 6.8125C26.201 7.0861 26.1601 7.22895 26.0641 7.30172C25.9681 7.37448 25.9562 7.35125 25.8913 7.35125C25.9035 7.32908 25.9086 7.30365 25.9057 7.27848C25.9057 7.27848 25.495 7.22895 25.2145 7.22895C24.934 7.22895 24.3787 7.38044 24.0698 7.50274C23.8252 7.60469 23.6883 7.60469 23.6009 7.66863C23.5136 7.7414 23.464 7.82012 23.4202 7.84047C23.3853 7.86082 23.2194 7.91324 23.1814 7.96853C23.1464 8.02613 23.0883 8.09084 23.0883 8.10543C23.0883 8.12002 23.0737 8.14056 23.1175 8.12578C23.1319 8.12002 23.2398 8.06165 23.3621 7.98888C23.528 7.89576 23.729 7.78805 23.8747 7.72392C24.2912 7.55784 24.4223 7.58703 24.6085 7.55208C24.8036 7.51714 25.0833 7.43554 25.2696 7.43554C25.456 7.42978 25.8085 7.43554 25.8901 7.45013C25.8552 7.47932 25.826 7.51426 25.8406 7.63656C25.8406 7.67151 25.8114 7.70933 25.783 7.79381C25.6958 8.03266 25.5297 8.42876 25.4374 8.62978C25.3093 8.90338 25.1638 9.13359 25.0918 9.27624C25.0198 9.4189 24.8614 9.79464 24.7045 9.99567C24.5477 10.1967 24.4657 10.319 24.4165 10.3628C24.3674 10.4065 24.0145 10.6656 24.0408 10.7589C24.1049 10.7385 24.5098 10.5861 24.8038 10.2551C25.0977 9.92405 25.1563 9.72207 25.3863 9.5414C25.6163 9.36072 25.797 9.05794 25.9047 8.80757C25.995 8.57448 25.9746 8.50172 26.0881 8.29493L26.0873 8.29436Z" fill="#806031"/>
<path fill-rule="evenodd" clip-rule="evenodd" d="M15.5363 12.8155C15.5363 12.8155 15.4722 13.0805 15.3265 13.2116C15.1838 13.3399 14.9304 13.4505 14.9014 13.6661C14.8664 13.8815 15.1548 13.9894 15.1548 13.9894C15.1548 13.9894 14.9974 14.2486 14.9974 14.4437C14.9974 14.6447 14.9916 14.6826 15.012 14.8747C14.9889 14.8896 14.9692 14.9092 14.9544 14.9323C14.9544 14.9323 14.9688 15.1188 15.1116 15.2351C15.2545 15.3515 15.3766 15.4216 15.4493 15.3924C15.4605 15.4161 15.4702 15.4405 15.4785 15.4653C15.4785 15.4653 15.5864 15.1915 15.6592 14.9527C15.732 14.7081 15.7961 14.7428 15.8251 14.4138C15.8541 14.0847 16.1707 13.5196 16.1707 13.5196L16.3867 13.0367L16.0344 12.7629L15.5363 12.8154V12.8155Z" fill="#B6903C"/>
<path fill-rule="evenodd" clip-rule="evenodd" d="M16.1962 13.2903C16.1235 13.3649 16.0565 13.4447 15.9955 13.5291C15.9024 13.6574 15.8297 13.7737 15.6928 13.8235C15.5559 13.8732 15.4685 13.8728 15.4772 14.0099C15.4858 14.147 15.614 14.205 15.6868 14.2749C15.7655 14.3476 15.8297 14.4699 15.7947 14.607C15.8383 14.5867 15.917 14.5632 15.9898 14.406C16.0626 14.2487 16.5715 13.2905 16.5715 13.2905H16.1962V13.2903Z" fill="#685026"/>
<path fill-rule="evenodd" clip-rule="evenodd" d="M18.2024 11.0795C18.2024 11.0795 18.2459 10.9632 18.2024 10.8787C18.1586 10.7913 17.8936 10.7621 17.7625 10.6631C17.6256 10.5611 17.4595 10.4903 17.3226 10.535C17.343 10.4855 17.4246 10.3776 17.3576 10.3543C17.2934 10.334 17.0548 10.4417 16.9906 10.4912C16.9265 10.5408 16.7808 10.5989 16.7518 10.6341C16.7228 10.6692 16.6731 10.736 16.6439 10.7068C16.6147 10.6865 16.6003 10.6341 16.5508 10.6631C16.5012 10.6921 16.2628 10.8873 16.2188 11.001C16.1748 11.1147 16.076 11.3681 15.7789 11.6563C15.4819 11.9445 15.3537 12.1311 15.441 12.2388C15.5284 12.3465 15.5693 12.268 15.5839 12.3611C15.5951 12.4525 15.5901 12.5452 15.5693 12.6349C15.5343 12.7864 15.4761 12.9291 15.5547 12.9582C15.7557 13.0224 15.951 12.9006 15.9945 12.9379C16.0819 13.0164 15.945 13.299 16.1518 13.3543C16.3617 13.4119 16.5684 13.3048 16.5684 13.3048L17.3314 12.8941L18.0655 12.5068L18.441 11.764L18.2396 11.1436L18.2012 11.0795H18.2024Z" fill="#D4B968"/>
<path fill-rule="evenodd" clip-rule="evenodd" d="M17.4789 12.8534C17.4789 12.8534 17.3507 12.6583 17.5081 12.4863C17.6656 12.3143 17.8896 12.2417 17.977 12.134C17.9604 12.1135 17.938 12.0983 17.9129 12.0904C17.9708 11.9866 18.0593 11.9032 18.1663 11.8514C18.1227 11.8078 18.0643 11.7728 18.0004 11.7728C17.8576 11.7728 17.77 11.8602 17.6391 11.8602C17.511 11.8602 17.4964 11.7961 17.4964 11.7961C17.4964 11.7961 17.712 11.7757 17.6915 11.6795C17.6711 11.5776 17.6339 11.5776 17.6339 11.5776C17.6339 11.5776 18.0503 11.4048 18.1231 11.3126C18.1959 11.2205 18.1872 11.1116 18.2018 11.068C18.2512 11.068 18.5395 10.9165 18.6561 10.9807C18.7726 11.0448 18.691 11.2195 18.691 11.2195C18.691 11.2195 19.0437 10.9543 19.2234 10.6944C19.3807 10.709 19.4538 10.5867 19.569 10.5867C19.7119 10.5867 19.9362 10.7817 19.9797 11.1982C20.0089 11.437 20.0525 11.5739 20.0089 11.9963C19.9886 12.2352 19.9943 12.7451 20.0665 12.9982C20.1159 13.1992 20.2324 13.1789 20.2324 13.1789C20.2145 13.2401 20.1791 13.2948 20.1305 13.3361C20.0517 13.4089 20.0431 13.6013 20.0517 13.674C20.0633 13.7272 20.078 13.7797 20.0955 13.8313C20.0955 13.8313 20.0024 13.939 19.979 14.0119C19.9586 14.0847 19.8626 14.1343 19.7925 14.1343C19.7225 14.1343 19.7576 14.1283 19.6645 14.1343C19.5714 14.1402 19.5422 14.1546 19.4838 14.1343C19.4254 14.1139 19.3818 14.0905 19.4053 13.9039C19.4256 13.7174 18.6858 13.2835 18.6858 13.2835L17.4762 12.8525L17.4789 12.8534Z" fill="#CCA849"/>
<path fill-rule="evenodd" clip-rule="evenodd" d="M16.0947 14.6941C16.0947 14.6941 16.3597 15.0466 17.4491 15.0466C17.9675 15.0466 18.1481 14.9971 18.2555 14.9679C18.372 14.9387 18.8088 14.7671 19.2487 14.2485C19.6448 13.7796 19.5574 13.5874 19.5574 13.5874L19.327 13.5525L18.5782 13.6544L16.3626 14.5981L16.0938 14.6941H16.0947Z" fill="#585136"/>
<path fill-rule="evenodd" clip-rule="evenodd" d="M16.9046 14.7814C16.9046 14.7814 15.9609 14.9913 15.9609 14.3942C15.9609 13.8116 16.5435 13.1999 16.6892 13.0922C16.8407 12.9843 17.2018 12.8618 17.2018 12.8618H18.0727L18.2386 13.3017L18.1659 14.2511L16.9046 14.7812V14.7814Z" fill="#252211"/>
<path fill-rule="evenodd" clip-rule="evenodd" d="M17.7771 13.0398C17.7771 13.0398 17.5967 12.8737 17.186 13.0974C16.7753 13.3211 16.4431 13.7886 16.4228 14.2131C16.4024 14.5886 16.7315 14.8684 17.2441 14.883C17.6256 14.8974 17.8559 14.8538 17.9724 14.8254C17.9432 14.7904 17.7917 14.6011 17.7917 14.6011L17.7773 13.04L17.7771 13.0398Z" fill="#C3B378"/>
<path fill-rule="evenodd" clip-rule="evenodd" d="M17.5967 13.1328C17.5967 13.1328 17.5532 13.0978 17.4239 13.1677C17.3162 13.2253 17.159 13.3776 17.0367 13.4853C16.958 13.5494 16.9084 13.5784 16.8639 13.6279C16.6832 13.8435 16.5317 14.1961 16.6193 14.3708C16.7068 14.5455 16.995 14.7465 17.729 14.6096L17.5946 13.133L17.5967 13.1328Z" fill="#E6D89C"/>
<path fill-rule="evenodd" clip-rule="evenodd" d="M17.3584 13.4942C17.3584 13.4942 17.2419 13.6748 17.2419 13.9632C17.2419 14.2574 17.4079 14.7262 18.0197 14.7612C18.4885 14.7904 18.803 14.0855 19.1438 13.8117C19.403 13.6021 19.5603 13.5961 19.5603 13.5961C19.5603 13.5961 19.2953 13.3081 18.5876 12.9351C17.8885 12.5593 17.105 12.5098 16.6797 13.0866C16.8807 13.072 17.5302 12.9059 17.5302 12.9059L17.8478 13.0078L17.3584 13.4944V13.4942Z" fill="#252211"/>
<path fill-rule="evenodd" clip-rule="evenodd" d="M18.2728 13.8757C18.2524 13.8321 18.2378 13.7737 18.3223 13.7593C18.4068 13.7449 18.4446 13.7534 18.4738 13.8169C18.503 13.8805 18.5314 13.9334 18.4882 13.9598C18.4446 13.983 18.3309 13.9598 18.2726 13.8753L18.2728 13.8757ZM18.1359 13.465C18.1359 13.465 18.1067 13.4853 18.1213 13.4446C18.127 13.3953 18.165 13.3077 18.2582 13.3283C18.3513 13.3488 18.3311 13.4506 18.3158 13.4798C18.3004 13.5089 18.2226 13.5583 18.1643 13.5374C18.1569 13.5355 18.15 13.5318 18.1443 13.5268C18.1385 13.5218 18.1341 13.5155 18.1312 13.5084C18.1284 13.5013 18.1273 13.4936 18.1279 13.486C18.1286 13.4784 18.1311 13.4711 18.1351 13.4646L18.1359 13.465Z" fill="#6F674D"/>
<path fill-rule="evenodd" clip-rule="evenodd" d="M10.25 13.6512C10.25 13.6512 10.4804 13.824 10.748 13.8173C11.013 13.8114 11.3538 13.5378 11.5111 13.3629C11.6042 13.2609 11.6839 13.1532 11.7703 13.0687C11.8432 12.996 11.8926 12.961 11.9275 12.9115C11.977 12.8539 12.0295 12.7456 12.0558 12.7104C11.9916 12.76 11.8985 12.8475 11.8023 12.9057C11.7092 12.9633 11.5082 13.0716 11.4266 13.1008C11.348 13.13 10.5324 13.5616 10.5324 13.5616L10.25 13.6512Z" fill="#AC924C"/>
<path fill-rule="evenodd" clip-rule="evenodd" d="M10.6016 11.499C10.6016 11.499 10.7296 11.4116 10.9773 11.3561C11.2162 11.2985 11.6967 11.2542 11.6967 11.2542L12.0928 11.427L12.2501 12.0241L11.9621 12.6446L11.5952 12.875L11.1785 12.2051L10.6025 11.5001L10.6016 11.499Z" fill="#9F8E57"/>
<path fill-rule="evenodd" clip-rule="evenodd" d="M10.0902 12.0321L9.95312 12.1345C9.95312 12.1345 9.98826 12.0703 10.0173 11.8753C10.0462 11.6802 10.1979 11.2054 10.4193 10.9316C10.6407 10.6578 10.6349 10.6724 10.6349 10.6724C10.6145 10.6687 10.5936 10.6693 10.5735 10.6743C10.5534 10.6793 10.5346 10.6885 10.5184 10.7014C10.5476 10.6369 10.734 10.4065 10.9204 10.2913C11.1069 10.1761 11.1796 10.1398 11.3747 10.2337C11.5698 10.3276 11.6193 10.3763 11.7621 10.3706C11.905 10.3648 12.0271 10.2133 12.0271 10.2133C12.0271 10.2133 12.0563 10.3064 11.9486 10.5221C11.8409 10.7377 11.4156 11.1773 11.4156 11.1773L10.5301 11.7831L10.0902 12.0327V12.0321Z" fill="#EAC970"/>
<path fill-rule="evenodd" clip-rule="evenodd" d="M10.743 11.4264C10.743 11.4264 11.3839 11.5137 11.5789 11.3332C11.5847 11.3536 11.6081 11.3536 11.6081 11.3682C11.6065 11.3792 11.6014 11.3894 11.5935 11.3972C11.6147 11.3938 11.6362 11.3919 11.6576 11.3914C11.6833 11.399 11.7097 11.4039 11.7364 11.406C11.7579 11.4055 11.7793 11.4035 11.8005 11.4C11.7985 11.4145 11.7935 11.4284 11.786 11.441C11.7785 11.4535 11.7685 11.4644 11.7567 11.473C11.7859 11.473 11.8143 11.4788 11.8143 11.502C11.8143 11.5252 11.8201 11.5953 11.7851 11.6099C11.7562 11.6179 11.7254 11.6158 11.6978 11.604C11.7001 11.6591 11.7151 11.713 11.7415 11.7614C11.7991 11.8691 11.922 11.9918 12.0871 11.9565C12.0871 11.9565 12.1743 12.1661 11.8074 12.6321C11.7581 12.6962 11.7055 12.7836 11.6415 12.8564C11.6163 12.9114 11.5969 12.969 11.5839 13.0282C11.5839 13.0282 12.2045 12.7894 12.3821 12.2447C12.5627 11.6971 12.5977 11.1583 12.5627 10.6545C12.5568 10.5117 12.5335 10.4099 12.4986 10.3369C12.4112 10.1563 12.1664 10.1855 12.0676 10.2874C11.9247 10.4303 11.6859 10.7855 11.3539 11.0301C11.016 11.2747 11.0016 11.3181 10.7422 11.4264H10.743Z" fill="#D7BC6B"/>
<path fill-rule="evenodd" clip-rule="evenodd" d="M9.97013 12.2128C9.97013 12.2128 9.84783 12.2856 9.7837 12.5584C9.71957 12.838 9.8413 13.1788 9.91176 13.2865C9.98223 13.3942 10.1422 13.6885 10.4739 13.7031C10.5561 13.7027 10.6373 13.6858 10.7128 13.6536C10.8286 13.6005 10.9372 13.5329 11.0361 13.4526C11.179 13.3449 11.2953 13.2517 11.2807 13.2429C11.2458 13.2283 10.4012 12.5292 10.4012 12.5292L10.0836 12.1748L9.96994 12.2132L9.97013 12.2128Z" fill="#585136"/>
<path fill-rule="evenodd" clip-rule="evenodd" d="M10.7686 13.3719C10.7686 13.3719 10.9405 13.3575 11.0424 13.2934C11.1444 13.2293 10.4453 12.5361 10.4453 12.5361L10.4948 13.2849L10.7686 13.3719Z" fill="#453A25"/>
<path fill-rule="evenodd" clip-rule="evenodd" d="M10.0277 12.1601C10.0277 12.1601 9.94038 12.3261 9.94038 12.3699C9.92579 12.5126 9.96957 12.9611 10.0045 13.1037C10.0395 13.2552 10.2288 13.4852 10.4736 13.4852C10.6249 13.4852 10.8347 13.3921 10.8347 13.3689C10.8347 13.3397 10.6191 13.3113 10.5609 13.2028C10.526 13.1452 10.5114 13.002 10.5033 12.8572C10.4976 12.7641 10.4976 12.6621 10.5325 12.6268C10.6112 12.5395 10.6256 12.2889 10.6256 12.2889L10.9052 11.7695H10.5375L10.0976 12.0433L10.0277 12.1601Z" fill="#84754B"/>
<path fill-rule="evenodd" clip-rule="evenodd" d="M9.92188 12.3204C9.92188 12.3204 10.2099 11.9389 10.4695 11.8513C10.729 11.7638 10.8452 11.8164 10.8452 11.8164L10.6937 12.2038L10.4781 12.4427L10.4927 12.565C10.4927 12.565 10.4576 12.8883 10.6732 13.1126C10.8888 13.3368 11.0489 13.3282 11.1422 13.3282C11.2355 13.3282 11.5034 13.2495 11.6403 12.9261C11.7626 12.6233 11.8645 12.2349 11.6199 11.8455C11.3809 11.4581 10.9587 11.4431 10.8771 11.4431C10.7955 11.4431 10.1548 11.4752 9.92188 12.3198V12.3204Z" fill="#252211"/>
<path fill-rule="evenodd" clip-rule="evenodd" d="M17.3193 13.6165C17.2116 13.567 17.3135 13.2642 17.4212 13.1709C17.5289 13.0776 17.6658 12.97 17.9049 12.9552C17.992 12.9495 18.0765 13.0048 18.0621 13.0632C18.0418 13.1709 17.8903 13.3224 17.7534 13.4301C17.5641 13.5787 17.4416 13.6718 17.3193 13.6165Z" fill="#F7F7E7"/>
<path fill-rule="evenodd" clip-rule="evenodd" d="M11.4911 11.965C11.5698 11.9592 11.6718 12.0226 11.6921 12.1078C11.7125 12.2009 11.6426 12.3874 11.4911 12.3874C11.3688 12.3874 11.3047 12.2359 11.3047 12.1923C11.3061 12.1565 11.3161 12.1215 11.3339 12.0903C11.3396 12.0815 11.3542 11.9796 11.4911 11.965Z" fill="#F8F6DE"/>
<path fill-rule="evenodd" clip-rule="evenodd" d="M10.3569 12.032C10.3569 12.032 10.1559 12.1251 10.0627 12.32C9.9962 12.4639 9.97607 12.6249 10.0051 12.7808C10.0197 12.8536 10.0925 13.034 10.142 13.0982C10.1916 13.1623 10.2586 13.2061 10.3081 13.2001C10.3577 13.1942 10.4594 13.0632 10.4594 12.9847C10.4594 12.9062 10.4654 12.574 10.5614 12.3933C10.6458 12.2128 10.3575 12.0322 10.3575 12.0322L10.3569 12.032Z" fill="#D4C38B"/>
<path fill-rule="evenodd" clip-rule="evenodd" d="M10.3857 12.0174C10.3507 12.0378 10.2925 12.0669 10.3069 12.1048C10.3215 12.1397 10.4438 12.1624 10.4876 12.2476C10.5371 12.335 10.5371 12.4281 10.5226 12.4719C10.5606 12.4538 10.5951 12.4291 10.6245 12.3989C10.6886 12.3261 10.7672 12.2273 10.8342 12.2273C10.8779 12.2273 10.9215 12.2476 10.9624 12.2476C11.0265 12.2476 11.0905 12.2273 11.0993 12.1603C11.1137 12.0729 10.977 11.9942 10.8983 12.0088C10.9129 11.9512 10.9332 11.8661 10.8691 11.8077C10.805 11.7494 10.6041 11.8515 10.5604 11.8807C10.5166 11.9099 10.3857 12.0176 10.3857 12.0176V12.0174Z" fill="#E2D59D"/>
<path fill-rule="evenodd" clip-rule="evenodd" d="M15.0142 18.1368L15.4452 18.0095L15.5676 18.0969C15.5676 18.0969 15.6547 18.2833 15.7918 18.3065C15.748 18.3997 15.6344 18.4793 15.6403 18.5454C15.6463 18.6114 15.7044 18.6619 15.7044 18.6619C15.7044 18.6619 15.317 19.3026 16.0802 19.9483C15.8995 20.0211 15.6695 20.1211 15.5472 20.1787C15.6344 20.1991 15.8208 20.2363 15.8995 20.307C15.9782 20.3777 15.9782 20.4001 16.051 20.4439C16.1238 20.4877 16.1674 20.5458 16.153 20.572C16.1034 20.5428 15.9373 20.4556 15.9084 20.537C15.8794 20.6184 15.1889 20.5865 15.1889 20.5865L14.0239 20.8108C14.0239 20.8108 14.0675 20.6943 13.9452 20.5865C13.8025 20.4585 13.6278 20.5923 13.4413 20.4496C13.1967 20.2632 13.1879 20.0476 13.1094 19.9662C13.1879 19.9167 13.3482 19.8439 13.7297 19.7934C13.7151 19.7642 13.6656 19.6768 13.6948 19.5983C13.7297 19.4964 13.8753 19.4322 13.8317 19.3103C13.8958 19.2957 13.9248 19.2957 14.0851 19.0947C14.2366 18.8937 14.3297 18.8501 14.4463 18.8355C14.5628 18.8209 14.6327 18.8355 14.8483 18.6345C14.9996 18.4918 14.9503 18.3695 14.9503 18.3695C14.9503 18.3695 15.0492 18.3375 15.0144 18.1364L15.0142 18.1368Z" fill="#CBAC5A"/>
<path fill-rule="evenodd" clip-rule="evenodd" d="M13.736 18.2015C13.7418 18.1723 13.7652 18.1577 13.9225 18.1723C14.0797 18.1869 15.0758 18.0792 15.3467 18.0646C15.6205 18.0443 16.5845 18.0587 17.0536 18.1577C17.5226 18.2568 17.9973 18.3733 18.2273 18.4315C18.4577 18.4956 18.5303 18.5187 18.5214 18.5479C18.5157 18.5771 18.4638 18.6055 18.4341 18.5974C18.4051 18.5916 17.6419 18.3586 17.4061 18.3094C17.1703 18.2603 16.3545 18.1287 15.9085 18.1366C15.4921 18.1426 15.326 18.1308 14.9737 18.1716C14.6211 18.2153 14.0386 18.2735 13.8639 18.2503C13.6911 18.2299 13.7268 18.2299 13.7356 18.2007L13.736 18.2015Z" fill="#D6BC6F"/>
<path fill-rule="evenodd" clip-rule="evenodd" d="M16.0809 20.4844C16.0809 20.4844 16.678 20.8077 16.8937 21.2038C17.0509 21.498 16.8005 21.6437 16.8005 21.6437C16.8005 21.6437 17.1385 21.6437 17.0947 21.8301C17.0743 21.9465 16.5122 22.261 16.1364 22.4271C15.7549 22.5931 15.7695 22.5845 15.5831 22.6135C15.4024 22.6427 14.9072 22.5559 14.8053 22.7009C14.7033 22.8458 14.7477 22.9952 14.7761 23.0184C14.8053 23.0388 15.0412 23.068 15.0412 23.068C15.0412 23.068 14.9917 23.2049 14.5025 23.2194C14.0133 23.234 13.8908 23.2688 13.8616 23.3214C13.8324 23.3707 13.9547 23.3417 14.1792 23.379C14.4034 23.4139 14.7179 23.4366 14.7179 23.4366C14.7179 23.4366 14.616 23.524 14.351 23.5938C14.048 23.6724 13.5732 23.7453 13.4306 23.8327C13.5033 23.8822 13.6112 23.955 13.661 23.9608C13.5387 23.9899 13.3666 24.0541 13.3376 24.0773C13.3812 24.1065 13.4396 24.1414 13.4396 24.1414C13.4396 24.1414 13.1948 24.4356 13.0521 24.5085C12.9095 24.5815 12.0881 24.9628 11.8055 24.89C11.1006 24.7036 11.0133 23.9318 10.8414 23.8736C10.5822 23.7862 10.4599 23.9608 10.2297 23.8385C10.3317 23.7657 10.3872 23.7221 10.4949 23.6726C10.3783 23.615 9.77545 23.2327 9.77545 23.2327C9.71241 23.0953 9.64243 22.9612 9.56579 22.8308C9.44924 22.6298 9.27779 22.3618 9.14915 22.1258C8.86959 21.6074 8.855 21.3686 8.60156 21.0744C8.64534 21.0168 8.79663 21.0249 8.79663 21.0249L10.9202 21.724L14.6855 21.833L15.6647 20.4351L16.0811 20.4846L16.0809 20.4844Z" fill="#DFC677"/>
<path fill-rule="evenodd" clip-rule="evenodd" d="M10.5078 22.6164C10.5305 22.6417 10.557 22.6633 10.5863 22.6805C10.6593 22.7301 10.767 22.7884 10.8398 22.8756C10.869 22.832 10.9417 22.7533 11.0702 22.8756C11.1986 22.9979 11.3582 22.9107 11.4574 22.9397C11.5594 22.9749 11.5652 22.9893 11.5652 22.9893C11.5652 22.9893 11.6228 22.9397 11.7516 22.8873C11.8303 22.8581 11.9234 22.8378 12.0254 22.8088C12.1185 22.7884 12.2205 22.7593 12.2905 22.7593C12.3547 22.8028 12.5847 23.0473 13.508 22.6865C14.3789 22.3486 14.5797 22.3107 14.7255 22.363C14.7401 22.328 14.7547 22.261 14.9789 22.2698C14.9789 22.1767 14.7925 21.8592 14.7925 21.8592L13.7643 21.5068H13.202L11.5156 21.8156L10.5812 22.3488L10.5084 22.6176L10.5078 22.6164Z" fill="#C4A859"/>
<path fill-rule="evenodd" clip-rule="evenodd" d="M9.94531 22.0252C9.94531 22.0252 9.96566 22.1824 10.1988 22.3485C10.4292 22.5144 10.5015 22.6135 10.5015 22.6135C10.5015 22.6135 10.5453 22.5559 10.5803 22.4971C10.6152 22.433 10.6444 22.3602 10.7026 22.3399C10.8191 22.2903 11.0841 22.3834 11.1424 22.3688C11.192 22.3544 11.1774 22.2525 11.2298 22.2525C11.3521 22.2465 11.4306 22.331 11.4744 22.331C11.5182 22.331 11.6257 22.3253 11.6403 22.302C11.6549 22.2788 11.6606 22.0369 11.8267 21.9203C12.0074 21.7923 12.2288 21.8476 12.2875 21.8768C12.2875 21.9203 12.2933 22.0282 12.4098 22.034C12.5264 22.0398 12.5379 22.0194 12.6402 22.0544C12.7426 22.0893 12.8645 22.0486 12.9198 22.2202C12.9693 22.2058 13.0859 22.1912 13.0567 22.0252C13.1143 21.9816 13.1646 21.9524 13.2871 21.7806C13.3163 21.737 13.3656 21.6874 13.4036 21.6233C13.5056 21.6233 13.6279 21.603 13.7909 21.7456C13.7413 21.7806 13.7122 21.8032 13.6978 21.8387C13.7404 21.881 13.7793 21.9268 13.8141 21.9756C13.8579 22.0332 13.8871 22.1039 13.9424 22.1185C14.0647 22.1534 14.2657 22.1039 14.49 22.1185C14.7056 22.1331 14.886 22.2116 14.9648 22.2611C14.994 22.2467 14.994 22.2408 15.0667 22.2554C15.1395 22.27 15.1948 22.2757 15.1163 22.1826C15.1598 22.203 15.2094 22.2467 15.2532 22.203C15.2969 22.1592 15.3317 22.0952 15.454 22.0807C15.5763 22.0661 15.6201 22.0864 15.6696 21.9584C15.7337 21.8011 15.5124 21.8011 15.5124 21.8011C15.5124 21.8011 15.6143 21.7078 15.728 21.5855C15.8649 21.4574 16.0221 21.2913 16.0599 21.0874C16.1241 20.7117 15.7572 20.6624 15.7572 20.6624L13.9775 21.2099L11.8018 21.102L9.94646 22.0254L9.94531 22.0252Z" fill="#927D49"/>
<path fill-rule="evenodd" clip-rule="evenodd" d="M8.34782 16.8844C8.34782 16.8844 8.29022 16.9572 8.2547 17.129C8.21918 17.3009 8.23435 17.2805 8.20516 17.4028C8.17598 17.5251 7.81751 18.7426 7.95191 19.1533C8.08631 19.564 8.31902 19.7155 8.46455 20.0474C8.49374 20.1202 8.52215 20.164 8.53732 20.2281C8.58686 20.4435 8.54327 20.6096 8.60145 20.8252C8.6218 20.898 8.67441 20.9825 8.75294 21.0698C8.92574 21.2503 9.2074 21.4221 9.32894 21.5445C9.50059 21.7251 9.74539 22.0922 10.057 22.127C10.2231 22.1473 10.459 22.0774 10.6541 21.9611C10.8269 21.8532 10.9337 21.7019 11.1149 21.6155C11.243 21.5514 11.3799 21.5281 11.5022 21.4989C11.7556 21.4494 11.9858 21.4413 12.1227 21.4698C12.3324 21.5135 12.8276 21.665 13.1019 21.665C13.3163 21.6616 13.5295 21.6322 13.7369 21.5777C14.1533 21.4554 14.6571 21.2455 14.9893 21.1524C15.1844 21.0948 15.3416 21.0796 15.5019 21.0447C15.7757 20.9805 16.0057 20.8932 16.1369 20.7271C16.0495 20.6252 15.9418 20.4679 15.3591 20.4737C14.698 20.4883 13.9348 20.8552 13.5591 20.9135C13.1833 20.9719 13.0203 21.0213 12.6008 20.8698C12.1895 20.7167 12.1759 20.6156 12.1759 20.6156C12.1759 20.6156 11.7441 20.3135 11.5634 19.5436C11.3828 18.7737 11.5634 18.2127 12.0325 17.6795C12.1548 17.5426 12.1256 17.4203 12.1256 17.4203C12.1256 17.4203 12.4343 17.0038 12.3499 16.6139C12.2567 16.2264 11.6596 16.3052 11.6596 16.3052L8.34801 16.8844H8.34782Z" fill="#6E6342"/>
<path fill-rule="evenodd" clip-rule="evenodd" d="M8.84003 18.1807C8.81435 18.2289 8.80227 18.2833 8.80509 18.3379C8.81085 18.4164 8.83427 18.5184 9.07005 18.7486C9.27107 18.9494 9.2273 19.1737 9.2273 19.1737C9.2273 19.1737 9.32848 19.194 9.60304 19.0656C9.81865 18.9636 9.89104 19.1443 9.89104 19.1443C9.9538 19.1114 10.0218 19.0897 10.0921 19.0802C10.1557 19.0743 10.2173 19.0547 10.2725 19.0226C10.2725 19.0226 10.526 19.2818 10.7474 19.4041C10.9484 19.512 11.0649 19.5848 11.164 19.512C11.2571 19.4479 11.2571 19.3167 11.2512 19.2586C11.2281 19.2049 11.1988 19.154 11.164 19.1071C11.0999 19.0139 10.9979 18.906 10.9912 18.8191C10.9766 18.6182 11.1427 18.3792 11.1076 18.321C11.0724 18.2628 10.9417 18.2482 10.6183 18.3648C10.2835 18.4754 8.83869 18.1812 8.83869 18.1812L8.84003 18.1807Z" fill="#39331F"/>
<path fill-rule="evenodd" clip-rule="evenodd" d="M9.60446 19.4826C9.60446 19.4826 9.43857 19.3253 9.49675 18.5621C9.56717 18.5611 9.63749 18.5679 9.70641 18.5825C9.70641 18.5825 9.79684 19.1738 9.60446 19.4826Z" fill="#292311"/>
<path fill-rule="evenodd" clip-rule="evenodd" d="M8.42365 16.302C8.4468 16.2848 8.46827 16.2656 8.48778 16.2444C8.43018 16.3521 8.16426 16.7831 8.37988 17.4618C8.59549 18.1375 9.13713 18.6413 9.80413 18.6647C10.4711 18.6881 10.8217 18.3617 11.2226 17.8725C11.3799 17.6775 11.5606 17.4327 11.7207 17.2668C11.9595 17.0074 12.146 16.9346 12.146 16.6842C12.146 16.1716 11.6216 15.9414 10.8498 15.7114C10.0779 15.4814 9.38173 15.5098 9.02058 15.6672C8.66826 15.8389 8.51677 16.0195 8.42346 16.3022L8.42365 16.302Z" fill="#252211"/>
<path fill-rule="evenodd" clip-rule="evenodd" d="M10.899 19.7125L10.9566 19.6834C10.9566 19.6834 10.971 19.453 11.0643 19.4591C11.1574 19.4737 11.2012 19.5962 11.1924 19.6398C11.1866 19.6834 11.1634 19.7563 11.0701 19.7475C10.9478 19.7504 10.8984 19.7125 10.8984 19.7125H10.899Z" fill="#3F3824"/>
<path fill-rule="evenodd" clip-rule="evenodd" d="M10.6406 18.734C10.6406 18.734 10.6982 18.7136 10.7687 18.7835C10.8263 18.7835 11.0774 18.7543 11.1561 18.8038C11.2349 18.8534 11.2581 18.897 11.2581 18.897C11.2581 18.897 10.964 18.9611 10.8036 18.897C10.6406 18.8417 10.6406 18.734 10.6406 18.734Z" fill="#2D2815"/>
<path fill-rule="evenodd" clip-rule="evenodd" d="M11.9352 18.7776C11.9352 18.763 11.778 18.6553 11.6119 18.6201C11.5827 18.6144 11.5768 18.6347 11.5543 18.6347C11.5397 18.629 11.534 18.5852 11.534 18.5852L11.4395 18.6349C11.4395 18.6349 11.4249 18.6553 11.4744 18.6925C11.518 18.7275 11.591 18.7567 11.6113 18.8148C11.6317 18.873 11.6317 18.8934 11.6405 18.9022C11.6463 18.908 11.7482 18.9022 11.7978 18.873C11.8473 18.8438 11.9406 18.7962 11.9347 18.777L11.9352 18.7776Z" fill="#82764F"/>
<path fill-rule="evenodd" clip-rule="evenodd" d="M10.4688 19.3689C10.4688 19.3689 10.4977 19.1681 10.693 19.1592C10.8938 19.1446 10.9319 19.3397 10.9319 19.3397L10.8153 19.4563C10.8153 19.4534 10.7279 19.3311 10.4697 19.3689H10.4688Z" fill="#2D2816"/>
<path fill-rule="evenodd" clip-rule="evenodd" d="M11.7317 18.5039C11.7317 18.5039 11.6238 18.6204 11.3851 18.6554C11.3648 18.6262 11.321 18.568 11.3851 18.4749C11.4493 18.3818 11.522 18.3526 11.5948 18.3816C11.6269 18.3868 11.6569 18.4011 11.6811 18.4228C11.7054 18.4444 11.7229 18.4726 11.7317 18.5039Z" fill="#574F35"/>
<path fill-rule="evenodd" clip-rule="evenodd" d="M12.1743 18.6466C12.1803 18.6174 12.1599 18.6117 12.1743 18.5971C12.1887 18.5825 12.2677 18.5535 12.2822 18.5679C12.288 18.5738 12.2822 18.5971 12.2822 18.6255C12.2822 18.6539 12.2822 18.6831 12.2677 18.704C12.2473 18.7332 12.1891 18.7478 12.1599 18.7391C12.1308 18.7305 12.125 18.6896 12.125 18.6815C12.1394 18.6758 12.1743 18.6612 12.1743 18.6466ZM12.6716 18.3321C12.6716 18.3175 12.7212 18.2883 12.7503 18.2883C12.7939 18.2883 12.7939 18.3233 12.7999 18.3321C12.8143 18.3379 12.8143 18.3262 12.8289 18.3525C12.8435 18.3788 12.864 18.4252 12.8492 18.4544C12.8344 18.4836 12.7765 18.5038 12.7621 18.498C12.7417 18.4834 12.6776 18.3525 12.6716 18.3321Z" fill="#82764F"/>
<path fill-rule="evenodd" clip-rule="evenodd" d="M11.6719 18.7136C11.6719 18.7136 11.736 18.728 11.8234 18.8009C11.7942 18.8213 11.7504 18.8445 11.7504 18.8445C11.7504 18.8445 11.7446 18.7775 11.6719 18.7134V18.7136Z" fill="#6E6342"/>
<path fill-rule="evenodd" clip-rule="evenodd" d="M11.5257 18.0728C11.5111 18.0584 11.5693 18.0235 11.6043 18.0292C11.6392 18.035 11.6538 18.0584 11.6916 18.0642C11.7295 18.0699 11.7354 18.0496 11.7492 18.035C11.7631 18.0204 11.8134 18.0292 11.822 18.035C11.8274 18.0414 11.8323 18.0482 11.8366 18.0554C11.8372 18.0443 11.8401 18.0334 11.8451 18.0235C11.8501 18.0136 11.857 18.0048 11.8656 17.9978C11.8768 17.9895 11.8896 17.984 11.9033 17.9814C11.9169 17.9789 11.9309 17.9795 11.9443 17.9832C11.9501 18.0035 11.9792 18.0763 11.9735 18.0909C11.9677 18.1055 11.8804 18.126 11.8656 18.1112C11.8802 18.1464 11.9443 18.2191 11.9529 18.2335C11.9616 18.2479 11.8888 18.2831 11.8598 18.2773C11.8191 18.2744 11.5686 18.1287 11.525 18.0734L11.5257 18.0728ZM11.9072 17.5894C11.9019 17.5747 11.8915 17.5624 11.8781 17.5544C11.8577 17.5487 11.7907 17.5544 11.7907 17.5894C11.7907 17.6243 11.8483 17.8198 11.913 17.9215C11.986 18.0235 12.0353 18.1078 12.0848 18.1312C12.1004 18.1383 12.1181 18.1392 12.1343 18.1338C12.1505 18.1284 12.164 18.117 12.1722 18.102C12.178 18.0874 12.1926 17.9797 12.1868 17.7263C12.181 17.4728 12.1722 17.2282 12.1576 17.2136C12.143 17.199 12.0848 17.1992 12.0645 17.2282C12.0441 17.2572 11.913 17.5458 11.9071 17.5894H11.9072Z" fill="#585136"/>
<path fill-rule="evenodd" clip-rule="evenodd" d="M11.6478 19.0806C11.6478 19.0806 11.5459 19.0164 11.4468 19.0602C11.3537 19.104 11.3594 19.2758 11.3594 19.2758C11.3804 19.284 11.403 19.287 11.4254 19.2844C11.4477 19.2819 11.4691 19.2739 11.4877 19.2612C11.5518 19.2177 11.6332 19.1449 11.6478 19.0808V19.0806Z" fill="#574F35"/>
<path fill-rule="evenodd" clip-rule="evenodd" d="M11.8388 19.3109C11.8331 19.2533 11.7812 19.2533 11.7812 19.2235C11.7848 19.2093 11.7931 19.1967 11.8047 19.1877C11.8162 19.1787 11.8305 19.1739 11.8452 19.174C11.8744 19.174 11.9028 19.2089 11.9385 19.2316C11.9734 19.2519 12.0259 19.2892 12.0316 19.3335C12.0374 19.3779 11.974 19.4994 11.9036 19.4994C11.8331 19.4994 11.854 19.3683 11.8394 19.3101L11.8388 19.3109ZM12.401 19.2322C12.401 19.2322 12.2845 19.2671 12.2931 19.2322C12.3018 19.1972 12.3283 19.1886 12.3661 19.1886C12.3853 19.1685 12.4111 19.156 12.4388 19.1534C12.4547 19.1527 12.4703 19.1579 12.4824 19.168C12.4824 19.168 12.5612 19.1331 12.5844 19.1534C12.6076 19.1738 12.5903 19.1738 12.6047 19.1972C12.6231 19.2232 12.6351 19.2531 12.6399 19.2846C12.6399 19.3078 12.5525 19.3573 12.4824 19.3487C12.401 19.3312 12.4154 19.2467 12.401 19.2322ZM13.0796 19.101C13.0796 19.101 13.1145 19.1214 13.0855 19.1448C13.0652 19.1651 12.9632 19.2024 12.8756 19.2089C12.7883 19.2089 12.7098 19.2233 12.7098 19.1943C12.7098 19.1653 12.7825 19.107 12.8261 19.0924C12.8349 19.0814 12.846 19.0726 12.8586 19.0665C12.8712 19.0605 12.8851 19.0574 12.8991 19.0574C12.934 19.0574 13.0707 19.0428 13.1087 19.0371C13.1437 19.0311 13.1729 19.0515 13.1523 19.0807C13.1437 19.101 13.0796 19.101 13.0796 19.101ZM13.2806 18.2017C13.2806 18.2017 13.2368 18.2948 13.1875 18.2948C13.1379 18.289 13.1379 18.2745 13.1379 18.2599C13.1379 18.2395 13.1875 18.1871 13.1815 18.1725C13.1671 18.1725 13.132 18.1725 13.1379 18.1376C13.1379 18.1084 13.1875 18.0734 13.231 18.08C13.264 18.0529 13.305 18.0376 13.3476 18.0364C13.3971 18.0364 13.4407 18.0508 13.4407 18.08C13.4407 18.1091 13.3831 18.1731 13.362 18.1879C13.3388 18.2111 13.3096 18.2263 13.2806 18.2023V18.2017ZM12.6164 19.923C12.6164 19.923 12.5588 19.9289 12.5588 19.9579C12.5588 19.9725 12.5733 19.9725 12.5938 19.9639C12.6056 19.9632 12.6173 19.9612 12.6287 19.9579C12.6345 19.9639 12.6345 19.9929 12.6783 19.9929C12.7142 19.988 12.7489 19.9761 12.7802 19.9579C12.8152 19.9435 12.8444 19.9287 12.8444 19.9003C12.8298 19.8508 12.8006 19.8274 12.757 19.8274C12.7347 19.8259 12.7124 19.831 12.6929 19.8419C12.6929 19.8419 12.6783 19.8128 12.6287 19.8419C12.5792 19.8711 12.585 19.8711 12.5996 19.8857C12.6257 19.909 12.617 19.9241 12.617 19.9241L12.6164 19.923ZM12.2874 20.2259C12.2874 20.2114 12.3601 20.1822 12.3805 20.191C12.4008 20.1968 12.459 20.3074 12.459 20.3191C12.459 20.3337 12.3862 20.3686 12.3571 20.3686C12.3279 20.3686 12.2785 20.3191 12.2785 20.311C12.2785 20.3052 12.3135 20.2966 12.3135 20.2906C12.3221 20.2762 12.2874 20.2411 12.2874 20.2265V20.2259ZM12.057 19.8007C12.0716 19.7949 12.0716 19.7803 12.0919 19.7657C12.0983 19.7615 12.1055 19.7588 12.1131 19.7578C12.1207 19.7568 12.1284 19.7575 12.1357 19.76C12.1408 19.7508 12.1479 19.7429 12.1565 19.7368C12.1651 19.7307 12.1749 19.7266 12.1852 19.7248C12.2202 19.7191 12.2493 19.7248 12.2428 19.7394C12.2428 19.7832 12.272 19.8122 12.272 19.8471C12.272 19.8821 12.2517 19.9258 12.1789 19.955C12.1061 19.9754 12.007 19.9754 11.9924 19.9696C11.9779 19.9639 11.9633 19.9055 11.9779 19.8763C11.9924 19.8471 12.0332 19.8153 12.0566 19.8007H12.057Z" fill="#82764F"/>
<path fill-rule="evenodd" clip-rule="evenodd" d="M12.157 19.8203C12.157 19.8203 12.1074 19.8495 12.1074 19.8641C12.103 19.8782 12.1011 19.8929 12.1017 19.9077C12.1017 19.9163 12.1658 19.9019 12.1744 19.8931C12.1773 19.8873 12.157 19.8355 12.157 19.8203Z" fill="#6E6342"/>
<path fill-rule="evenodd" clip-rule="evenodd" d="M11.7223 19.6834C11.7513 19.6894 11.8008 19.6834 11.8387 19.698C11.8678 19.7126 11.8882 19.7418 11.859 19.7768C11.8298 19.8117 11.8014 19.8641 11.7367 19.8553C11.6639 19.8495 11.5941 19.8117 11.5941 19.7825C11.5928 19.7641 11.5953 19.7455 11.6013 19.728C11.6073 19.7105 11.6167 19.6944 11.629 19.6806C11.6582 19.6573 11.6726 19.6719 11.7221 19.6834H11.7223Z" fill="#585136"/>
<path fill-rule="evenodd" clip-rule="evenodd" d="M11.6819 19.7126C11.6819 19.7126 11.5888 19.7854 11.5654 19.8206C11.5362 19.8555 11.3935 20.036 11.35 20.0738C11.3644 20.0483 11.3809 20.0239 11.3993 20.001C11.3417 20.0379 11.2985 20.0934 11.277 20.1583C11.2421 20.2662 11.4723 20.3244 11.6236 20.3681C11.7749 20.4119 11.8334 20.4257 11.8334 20.4257C11.7777 20.342 11.7299 20.2533 11.6906 20.1608C11.633 20.0239 11.6032 20.0093 11.641 19.9452C11.6702 19.881 11.714 19.8374 11.714 19.7879C11.6965 19.7418 11.6819 19.7126 11.6819 19.7126Z" fill="#574F35"/>
<path fill-rule="evenodd" clip-rule="evenodd" d="M8.36757 19.9428C8.38877 19.9467 8.4105 19.9467 8.4317 19.9428C8.47528 19.9369 8.92975 19.77 9.40456 19.8C9.76002 19.8215 10.1123 19.8794 10.456 19.9728C11.0531 20.13 11.7957 20.4416 12.2763 20.6194C12.4044 20.6688 12.5297 20.7563 12.6219 20.7911C12.989 20.9339 13.0034 20.9339 13.219 20.9718C13.4725 21.0067 13.7317 20.9222 14.0026 20.864C14.3345 20.7911 14.9025 20.7561 15.4005 20.6834C15.5616 20.6611 15.7204 20.625 15.8753 20.5757C15.8753 20.5757 15.4793 20.9718 14.5296 21.1144C14.1458 21.1727 13.7557 21.1776 13.3705 21.129C13.0675 21.0998 12.8667 21.056 12.7152 21.0125C12.5434 20.9629 12.1909 20.8318 11.7569 20.7245C11.454 20.6457 11.1161 20.5876 10.7288 20.5148C9.7734 20.3399 8.7366 20.1391 8.36719 19.944L8.36757 19.9428Z" fill="#252211"/>
<path fill-rule="evenodd" clip-rule="evenodd" d="M7.29276 18.1428C7.06236 18.3379 6.81795 18.5243 6.57929 18.7048L5.85987 19.2576C5.61526 19.4381 5.37641 19.6245 5.13161 19.8052C4.88681 19.9858 4.6424 20.1575 4.38281 20.3236C4.61321 20.1285 4.85763 19.9478 5.10224 19.7702C5.34684 19.5926 5.60048 19.4185 5.83644 19.2384L6.55587 18.6848C6.80336 18.5044 7.0422 18.3179 7.29276 18.1432V18.1428ZM6.02 20.1817C6.02 20.1817 6.2792 19.9661 6.60252 19.6633C7.00438 19.2877 7.49667 18.8069 7.65392 18.7198L6.0198 20.1819L6.02 20.1817Z" fill="#CFB66C"/>
<path fill-rule="evenodd" clip-rule="evenodd" d="M6.02344 20.1814C6.15169 20.0533 6.28859 19.9282 6.42549 19.8057L6.63515 19.6252C6.69928 19.5676 6.77224 19.5029 6.83617 19.4388C6.96424 19.3107 7.08961 19.1736 7.21768 19.0427C7.28115 18.9768 7.34826 18.9146 7.4187 18.8562C7.45392 18.8251 7.49303 18.7986 7.53505 18.7775C7.57019 18.7572 7.60801 18.7199 7.65736 18.7134C7.62837 18.7572 7.59342 18.7775 7.56424 18.8153C7.52929 18.8445 7.50011 18.8795 7.47112 18.9085C7.40699 18.9726 7.33422 19.0308 7.27009 19.0891C7.1332 19.2057 6.99054 19.3195 6.85365 19.4414C6.71675 19.5634 6.58869 19.6949 6.4516 19.8172C6.30318 19.9426 6.16629 20.0649 6.02344 20.182V20.1814ZM7.76526 19.0164C7.76526 19.0164 6.81582 19.9456 6.62056 20.0969L7.76526 19.0164Z" fill="#CFB66C"/>
<path fill-rule="evenodd" clip-rule="evenodd" d="M7.76189 19.0164C7.67648 19.1152 7.58491 19.2086 7.48772 19.2959L7.19972 19.5697C7.1066 19.6628 7.01904 19.7561 6.92016 19.8493C6.81821 19.9366 6.72509 20.0221 6.61719 20.1027L6.89674 19.8289C6.99005 19.7358 7.092 19.6573 7.19108 19.5639L7.47063 19.2901C7.56663 19.1941 7.65994 19.1008 7.76189 19.0164ZM7.80548 19.5202C7.71796 19.7644 7.61484 20.0028 7.49674 20.2338C7.25213 20.7232 6.88522 21.3348 6.7249 21.6466L7.80548 19.5202Z" fill="#CFB66C"/>
<path fill-rule="evenodd" clip-rule="evenodd" d="M7.80426 19.5205C7.80426 19.6282 7.77507 19.7215 7.74013 19.8147C7.70607 19.9079 7.66723 19.9992 7.62378 20.0884C7.58 20.1758 7.53047 20.2691 7.48093 20.3536C7.43139 20.4381 7.37322 20.5252 7.32944 20.6128L7.0353 21.1312C6.93335 21.304 6.83427 21.4778 6.72656 21.6438C6.79933 21.4574 6.8984 21.2827 6.99171 21.1108C7.09367 20.938 7.18679 20.7652 7.27971 20.5865C7.32509 20.4974 7.36591 20.4061 7.40202 20.3129C7.4456 20.2196 7.48919 20.1322 7.52432 20.0477C7.56791 19.9546 7.60285 19.8671 7.64663 19.7828C7.69597 19.6923 7.73687 19.605 7.80387 19.5205H7.80426Z" fill="#CFB66C"/>
<path fill-rule="evenodd" clip-rule="evenodd" d="M8.83935 21.9087C8.83935 21.9087 8.55135 22.2902 8.58015 22.7737C8.65868 22.5204 8.75775 22.1329 8.83935 21.9087ZM9.11314 22.2912C9.11314 22.2912 9.01119 23.328 8.92671 23.8377C9.04613 23.2485 9.06937 23.298 9.11314 22.2912ZM11.0209 23.899C11.0209 23.899 10.5898 25.1662 10.581 25.5183C10.6743 25.1562 10.8548 24.4164 11.0209 23.898V23.899Z" fill="#DEC270"/>
<path fill-rule="evenodd" clip-rule="evenodd" d="M12.0312 21.8303C12.0312 21.8303 12.7303 22.9837 13.2547 23.968C13.1128 23.4727 12.7864 22.5641 12.0312 21.8303Z" fill="#CBAF59"/>
<path fill-rule="evenodd" clip-rule="evenodd" d="M13.9141 23.5283C14.2979 24.2068 14.644 24.9059 14.9509 25.6225C14.8927 25.1273 14.7352 24.2798 13.9141 23.5283Z" fill="#E3C677"/>
<path fill-rule="evenodd" clip-rule="evenodd" d="M19.4331 25.2288C19.5495 25.156 19.7797 24.7597 19.9807 24.6608C20.1815 24.5589 20.333 24.5385 20.5137 24.3375C20.6942 24.1276 20.7441 23.9996 21.1398 23.8337C21.6933 23.5946 21.3126 23.2859 21.3126 23.2859C21.3736 23.226 21.4388 23.1706 21.5077 23.12C21.6505 23.0123 21.8164 22.8812 21.802 22.651C21.7817 22.2637 21.7089 21.7015 21.3913 21.3753C21.7001 21.3112 22.2912 21.2676 22.6585 21.1745C23.0836 21.0666 23.2789 20.9151 23.2789 20.9151C23.2789 20.9151 23.0343 20.4986 23.4304 20.0793C23.8265 19.66 24.1498 19.4094 24.3886 18.9404C24.1148 18.9054 23.6974 18.7599 22.6322 19.1646C22.6897 19.1917 22.7452 19.2228 22.7983 19.2577C22.7983 19.2577 22.143 19.4384 21.9041 19.6394C21.4875 19.9918 21.4351 20.2801 20.9837 20.4958C20.5323 20.7114 20.0778 20.653 19.7023 20.8277C19.3267 21.0025 19.2713 21.1511 19.1342 21.2152C19.1634 21.2501 19.1284 21.3083 19.1837 21.3578C19.1488 21.4074 18.9449 21.7393 18.7381 21.7393C18.7584 21.8181 18.9331 21.8762 18.9331 21.8762C18.9331 21.8762 18.8051 21.9696 18.4789 21.9928C18.6448 22.1656 18.8022 22.3539 19.2361 22.6277C19.2012 22.7005 19.0554 22.8084 19.1138 22.9453C19.1779 23.0822 19.3442 23.2686 20.008 23.4201C19.67 23.4345 19.2741 23.5132 18.7408 23.4405C18.2078 23.3763 18.1204 23.3385 17.7913 23.4201C17.8263 23.4551 17.9194 23.4551 18.001 23.5482C17.9136 23.5539 17.366 23.4841 17.1796 23.7289C16.9845 23.9821 16.9001 24.3987 16.9146 24.6783C16.8127 24.7278 16.7136 24.8152 16.7632 24.9959C16.8127 25.1765 17.0719 25.2347 17.238 25.3482C17.4039 25.4705 17.4185 25.5141 17.5759 25.4851C17.7418 25.4501 17.9864 25.2842 18.1292 25.2842C18.2721 25.2842 18.3738 25.392 18.3738 25.392C18.3738 25.392 18.7613 25.2055 18.7991 25.2405C18.8341 25.2754 18.8049 25.4997 18.8427 25.5346C18.8811 25.5609 19.3175 25.3017 19.4341 25.2288H19.4331Z" fill="#ECD592"/>
<path fill-rule="evenodd" clip-rule="evenodd" d="M27.9017 13.5728C26.0813 8.87189 21.5812 8.00098 21.5812 8.00098H8.74238L8.79192 12.7893H11.3488V23.4816H8.74219V28.2612H21.2258C24.2345 28.2612 26.6462 25.2378 26.6462 25.2378C30.5083 19.7564 27.9015 13.5728 27.9015 13.5728H27.9017ZM21.2928 22.0164C21.2928 22.0164 20.3136 23.4291 19.2482 23.4291H17.117L17.0665 12.801H19.8016C19.8016 12.801 21.0688 13.0659 21.9541 15.5736C21.9541 15.5736 23.1278 19.164 21.2928 22.0164Z" fill="white" fill-opacity="0.8"/>
</g>
<defs>
<clipPath id="clip0_2793_9541">
<rect width="40" height="40" fill="white"/>
</clipPath>
</defs>
</svg>
