<svg width="25" height="24" viewBox="0 0 25 24" fill="none" xmlns="http://www.w3.org/2000/svg">
<path d="M6.97656 8H4.97656M6.97656 16H4.97656M6.97656 12H3.97656M7.97656 4.51555C9.40666 3.55827 11.1264 3 12.9766 3C17.9471 3 21.9766 7.02944 21.9766 12C21.9766 16.9706 17.9471 21 12.9766 21C11.1264 21 9.40666 20.4417 7.97656 19.4845M14.9766 9.49991C14.4766 9.37589 13.6616 9.37133 12.9766 9.37589M12.9766 9.37589C12.7475 9.37742 12.886 9.36768 12.5766 9.37589C11.7691 9.40108 10.9782 9.73666 10.9766 10.6874C10.9748 11.7002 11.9766 11.9999 12.9766 11.9999C13.9766 11.9999 14.9766 12.2311 14.9766 13.3124C14.9766 14.125 14.1691 14.4811 13.1627 14.599C13.0981 14.599 13.0363 14.5991 12.9766 14.5994M12.9766 9.37589L12.9766 8M12.9766 14.5994C12.2964 14.6022 11.8959 14.6148 10.9766 14.4999M12.9766 14.5994L12.9766 16" stroke="#B8B8E0" stroke-width="2" stroke-linecap="round" stroke-linejoin="round"/>
</svg>
