<svg width="12" height="12" viewBox="0 0 12 12" fill="none" xmlns="http://www.w3.org/2000/svg">
<g id="Group 1261155348">
<g id="Group 1261154317">
<g id="dypius_icon_purple_text_purple">
<g id="Group 1000010408">
<circle id="Ellipse 260" cx="6" cy="6" r="6" fill="url(#paint0_linear_675_8169)"/>
<g id="Group 1000010406">
<g id="Group 1000010398">
<path id="Vector" d="M2.29715 6.02232L4.69675 7.80588C4.70055 7.80588 4.70055 7.80966 4.70436 7.80966L5.59423 8.46855C5.67028 8.52535 5.77676 8.47234 5.77676 8.37767L5.78057 3.46628C5.77296 3.37918 5.76155 3.2883 5.74254 3.20121C5.72352 3.1179 5.6969 3.03838 5.65887 2.97021C5.72352 3.45113 5.44972 4.01157 4.98577 4.37888C4.88309 4.46219 4.74238 4.55307 4.58647 4.61744C4.41914 4.68939 3.91336 4.86358 3.91336 4.86358L2.38842 5.41266C2.12602 5.50733 2.07278 5.85571 2.29715 6.02232Z" fill="white"/>
<path id="Vector_2" d="M4.67844 4.57572C4.68224 4.57193 4.68985 4.57193 4.69365 4.56815C4.70125 4.56436 4.70886 4.56057 4.72027 4.553C4.73168 4.54921 4.73928 4.54164 4.75069 4.53785C4.75449 4.53407 4.7621 4.53028 4.7659 4.53028C4.77731 4.5227 4.79252 4.51513 4.80393 4.50756C4.80773 4.50377 4.81154 4.50377 4.81534 4.49998C4.82675 4.49241 4.83816 4.48484 4.85337 4.47726C4.86097 4.47348 4.86478 4.46969 4.87238 4.4659C4.87999 4.45833 4.8914 4.45454 4.899 4.44697C4.91041 4.4394 4.92182 4.42804 4.93703 4.42046C4.94083 4.42046 4.94083 4.41668 4.94464 4.41668C4.95985 4.40532 4.97506 4.39396 4.99027 4.3826C5.45422 4.01528 5.72803 3.45485 5.66338 2.97393C5.63676 2.92849 5.60253 2.88684 5.5645 2.85654L4.77351 2.27338C4.69745 2.21658 4.58717 2.2696 4.58717 2.36427V3.73885C4.58717 4.60223 3.91406 4.86351 3.91406 4.86351C3.91406 4.86351 4.42365 4.69311 4.58717 4.62116C4.61759 4.60601 4.64801 4.59087 4.67844 4.57572Z" fill="#F2EEFF"/>
</g>
<g id="Group 1000010399">
<path id="Vector_3" d="M9.66152 5.92762L7.26039 4.14407C7.25658 4.14407 7.25658 4.14028 7.25278 4.14028L6.36234 3.48139C6.28624 3.42459 6.17969 3.47761 6.17969 3.57227V8.48366C6.1873 8.57075 6.19871 8.66163 6.21774 8.74873C6.23677 8.83204 6.2634 8.91156 6.30146 8.97972C6.23677 8.49881 6.51075 7.93837 6.97499 7.57106C7.07773 7.48775 7.21853 7.39687 7.37455 7.33249C7.53817 7.26055 8.04808 7.09014 8.04808 7.09014L9.574 6.54107C9.83656 6.44261 9.88603 6.09423 9.66152 5.92762Z" fill="white"/>
<path id="Vector_4" d="M7.28403 7.37422C7.28023 7.378 7.27262 7.378 7.26881 7.38179C7.2612 7.38558 7.25359 7.38936 7.24217 7.39694C7.23076 7.40072 7.22315 7.4083 7.21173 7.41208C7.20793 7.41587 7.20031 7.41966 7.19651 7.41966C7.18509 7.42723 7.16987 7.4348 7.15846 7.44238C7.15465 7.44616 7.15085 7.44617 7.14704 7.44995C7.13562 7.45753 7.12421 7.4651 7.10899 7.47267C7.10138 7.47646 7.09757 7.48025 7.08996 7.48403C7.08235 7.49161 7.07094 7.49539 7.06332 7.50297C7.05191 7.51054 7.04049 7.5219 7.02527 7.52947C7.02147 7.52947 7.02147 7.53326 7.01766 7.53326C7.00244 7.54462 6.98722 7.55598 6.972 7.56734C6.50775 7.93465 6.23377 8.49509 6.29846 8.976C6.3251 9.02144 6.35935 9.0631 6.3974 9.09339L7.18509 9.67655C7.2612 9.73335 7.37155 9.68033 7.37155 9.58567V8.21108C7.37155 7.3515 8.04509 7.08643 8.04509 7.08643C8.04509 7.08643 7.53518 7.25683 7.37155 7.32878C7.34492 7.34392 7.31447 7.35907 7.28403 7.37422Z" fill="#F2EEFF"/>
</g>
</g>
</g>
</g>
</g>
</g>
<defs>
<linearGradient id="paint0_linear_675_8169" x1="6" y1="0" x2="6" y2="12" gradientUnits="userSpaceOnUse">
<stop stop-color="#7770E0"/>
<stop offset="1" stop-color="#554FD8"/>
</linearGradient>
</defs>
</svg>
