<svg width="24" height="24" viewBox="0 0 24 24" fill="none" xmlns="http://www.w3.org/2000/svg">
<circle cx="12" cy="12" r="12" fill="#EEEDFF"/>
<path fill-rule="evenodd" clip-rule="evenodd" d="M12 7.49996C10.6504 5.9272 8.39533 5.44114 6.70442 6.88132C5.01351 8.3215 4.77545 10.7294 6.10333 12.4327C7.20738 13.8489 10.5486 16.8357 11.6437 17.8025C11.7662 17.9106 11.8274 17.9647 11.8989 17.9859C11.9613 18.0045 12.0295 18.0045 12.0919 17.9859C12.1633 17.9647 12.2246 17.9106 12.3471 17.8025C13.4422 16.8357 16.7834 13.8489 17.8874 12.4327C19.2153 10.7294 19.0063 8.30635 17.2863 6.88132C15.5664 5.45629 13.3496 5.9272 12 7.49996Z" fill="#AD5772" stroke="#AD5772" stroke-width="2" stroke-linecap="round" stroke-linejoin="round"/>
</svg>
