<svg width="24" height="24" viewBox="0 0 24 24" fill="none" xmlns="http://www.w3.org/2000/svg">
<path d="M4 14H6.67452C7.1637 14 7.40829 14 7.63846 14.0553C7.84254 14.1043 8.03763 14.1851 8.21657 14.2947C8.4184 14.4184 8.59136 14.5914 8.93726 14.9373L9.06274 15.0627C9.40864 15.4086 9.5816 15.5816 9.78343 15.7053C9.96237 15.8149 10.1575 15.8957 10.3615 15.9447C10.5917 16 10.8363 16 11.3255 16H12.6745C13.1637 16 13.4083 16 13.6385 15.9447C13.8425 15.8957 14.0376 15.8149 14.2166 15.7053C14.4184 15.5816 14.5914 15.4086 14.9373 15.0627L15.0627 14.9373C15.4086 14.5914 15.5816 14.4184 15.7834 14.2947C15.9624 14.1851 16.1575 14.1043 16.3615 14.0553C16.5917 14 16.8363 14 17.3255 14H20M11.9997 7L13.0577 8.54377L14.8528 9.07295L13.7116 10.5562L13.763 12.4271L11.9997 11.8L10.2363 12.4271L10.2878 10.5562L9.14648 9.07295L10.9416 8.54377L11.9997 7ZM7.2 4H16.8C17.9201 4 18.4802 4 18.908 4.21799C19.2843 4.40973 19.5903 4.71569 19.782 5.09202C20 5.51984 20 6.07989 20 7.2V16.8C20 17.9201 20 18.4802 19.782 18.908C19.5903 19.2843 19.2843 19.5903 18.908 19.782C18.4802 20 17.9201 20 16.8 20H7.2C6.07989 20 5.51984 20 5.09202 19.782C4.71569 19.5903 4.40973 19.2843 4.21799 18.908C4 18.4802 4 17.9201 4 16.8V7.2C4 6.0799 4 5.51984 4.21799 5.09202C4.40973 4.71569 4.71569 4.40973 5.09202 4.21799C5.51984 4 6.07989 4 7.2 4Z" stroke="#B8B8E0" stroke-width="2" stroke-linecap="round" stroke-linejoin="round"/>
</svg>
