<svg width="17" height="16" viewBox="0 0 17 16" fill="none" xmlns="http://www.w3.org/2000/svg">
<path d="M13.3659 2.6665L8.03255 7.99984M13.3659 2.6665V5.6665M13.3659 2.6665H10.3659M12.6992 8.33317V11.1998C12.6992 11.9466 12.6992 12.3199 12.5539 12.6052C12.4261 12.856 12.2221 13.06 11.9712 13.1878C11.686 13.3332 11.3126 13.3332 10.5659 13.3332H4.83255C4.08582 13.3332 3.71245 13.3332 3.42723 13.1878C3.17635 13.06 2.97237 12.856 2.84454 12.6052C2.69922 12.3199 2.69922 11.9466 2.69922 11.1998V5.4665C2.69922 4.71977 2.69922 4.3464 2.84454 4.06118C2.97237 3.8103 3.17635 3.60633 3.42723 3.4785C3.71245 3.33317 4.08582 3.33317 4.83255 3.33317H7.69922" stroke="#7DD9AF" stroke-linecap="round" stroke-linejoin="round"/>
</svg>
