<svg width="18" height="18" viewBox="0 0 18 18" fill="none" xmlns="http://www.w3.org/2000/svg">
<path id="Icon" d="M2.25109 10.9737C1.56023 10.2828 1.2148 9.9374 1.08538 9.53908C0.971539 9.18871 0.971539 8.81129 1.08538 8.46092C1.2148 8.0626 1.56023 7.71717 2.25109 7.02631L7.02632 2.25109C7.71717 1.56023 8.0626 1.2148 8.46092 1.08538C8.81129 0.971539 9.18871 0.971539 9.53908 1.08538C9.9374 1.2148 10.2828 1.56023 10.9737 2.25109L15.7489 7.02632C16.4398 7.71717 16.7852 8.0626 16.9146 8.46092C17.0285 8.81129 17.0285 9.18871 16.9146 9.53908C16.7852 9.9374 16.4398 10.2828 15.7489 10.9737L10.9737 15.7489C10.2828 16.4398 9.9374 16.7852 9.53908 16.9146C9.18871 17.0285 8.81129 17.0285 8.46092 16.9146C8.0626 16.7852 7.71717 16.4398 7.02631 15.7489L2.25109 10.9737Z" stroke="white" stroke-width="2" stroke-linecap="round" stroke-linejoin="round"/>
</svg>
