<svg width="137" height="137" viewBox="0 0 137 137" fill="none" xmlns="http://www.w3.org/2000/svg">
<path d="M68.4993 131.546C103.319 131.546 131.546 103.319 131.546 68.4998C131.546 33.6804 103.319 5.45361 68.4993 5.45361C33.6799 5.45361 5.45312 33.6804 5.45312 68.4998C5.45312 103.319 33.6799 131.546 68.4993 131.546Z" fill="url(#paint0_linear_2049_6964)"/>
<path d="M68.5043 113.434C93.3207 113.434 113.438 93.3168 113.438 68.5004C113.438 43.6841 93.3207 23.5664 68.5043 23.5664C43.688 23.5664 23.5703 43.6841 23.5703 68.5004C23.5703 93.3168 43.688 113.434 68.5043 113.434Z" fill="url(#paint1_linear_2049_6964)"/>
<path d="M68.5 136C105.779 136 136 105.779 136 68.5C136 31.2208 105.779 1 68.5 1C31.2208 1 1 31.2208 1 68.5C1 105.779 31.2208 136 68.5 136Z" stroke="url(#paint2_linear_2049_6964)" stroke-width="1.0529" stroke-miterlimit="10"/>
<path d="M26.9421 50.728V45.64H35.8061V69H30.1101V50.728H26.9421ZM45.9814 63.944L42.4294 73.128H38.9414L40.7974 63.944H45.9814ZM48.7369 57C48.7369 53.3307 49.4409 50.44 50.8489 48.328C52.2782 46.216 54.5715 45.16 57.7289 45.16C60.8862 45.16 63.1689 46.216 64.5769 48.328C66.0062 50.44 66.7209 53.3307 66.7209 57C66.7209 60.712 66.0062 63.624 64.5769 65.736C63.1689 67.848 60.8862 68.904 57.7289 68.904C54.5715 68.904 52.2782 67.848 50.8489 65.736C49.4409 63.624 48.7369 60.712 48.7369 57ZM61.3449 57C61.3449 54.8453 61.1102 53.192 60.6409 52.04C60.1715 50.8667 59.2009 50.28 57.7289 50.28C56.2569 50.28 55.2862 50.8667 54.8169 52.04C54.3475 53.192 54.1129 54.8453 54.1129 57C54.1129 58.4507 54.1982 59.656 54.3689 60.616C54.5395 61.5547 54.8809 62.3227 55.3929 62.92C55.9262 63.496 56.7049 63.784 57.7289 63.784C58.7529 63.784 59.5209 63.496 60.0329 62.92C60.5662 62.3227 60.9182 61.5547 61.0889 60.616C61.2595 59.656 61.3449 58.4507 61.3449 57ZM69.6119 57C69.6119 53.3307 70.3159 50.44 71.7239 48.328C73.1532 46.216 75.4465 45.16 78.6039 45.16C81.7612 45.16 84.0439 46.216 85.4519 48.328C86.8812 50.44 87.5959 53.3307 87.5959 57C87.5959 60.712 86.8812 63.624 85.4519 65.736C84.0439 67.848 81.7612 68.904 78.6039 68.904C75.4465 68.904 73.1532 67.848 71.7239 65.736C70.3159 63.624 69.6119 60.712 69.6119 57ZM82.2199 57C82.2199 54.8453 81.9852 53.192 81.5159 52.04C81.0465 50.8667 80.0759 50.28 78.6039 50.28C77.1319 50.28 76.1612 50.8667 75.6919 52.04C75.2225 53.192 74.9879 54.8453 74.9879 57C74.9879 58.4507 75.0732 59.656 75.2439 60.616C75.4145 61.5547 75.7559 62.3227 76.2679 62.92C76.8012 63.496 77.5799 63.784 78.6039 63.784C79.6279 63.784 80.3959 63.496 80.9079 62.92C81.4412 62.3227 81.7932 61.5547 81.9639 60.616C82.1345 59.656 82.2199 58.4507 82.2199 57ZM90.4869 57C90.4869 53.3307 91.1909 50.44 92.5989 48.328C94.0282 46.216 96.3215 45.16 99.4789 45.16C102.636 45.16 104.919 46.216 106.327 48.328C107.756 50.44 108.471 53.3307 108.471 57C108.471 60.712 107.756 63.624 106.327 65.736C104.919 67.848 102.636 68.904 99.4789 68.904C96.3215 68.904 94.0282 67.848 92.5989 65.736C91.1909 63.624 90.4869 60.712 90.4869 57ZM103.095 57C103.095 54.8453 102.86 53.192 102.391 52.04C101.922 50.8667 100.951 50.28 99.4789 50.28C98.0069 50.28 97.0362 50.8667 96.5669 52.04C96.0975 53.192 95.8629 54.8453 95.8629 57C95.8629 58.4507 95.9482 59.656 96.1189 60.616C96.2895 61.5547 96.6309 62.3227 97.1429 62.92C97.6762 63.496 98.4549 63.784 99.4789 63.784C100.503 63.784 101.271 63.496 101.783 62.92C102.316 62.3227 102.668 61.5547 102.839 60.616C103.01 59.656 103.095 58.4507 103.095 57Z" fill="#F2F2F2"/>
<path d="M29.2903 90.668C29.7623 90.756 30.1623 90.996 30.4903 91.388C30.8183 91.78 30.9823 92.236 30.9823 92.756C30.9823 93.18 30.8743 93.564 30.6583 93.908C30.4503 94.244 30.1423 94.512 29.7343 94.712C29.3263 94.904 28.8383 95 28.2703 95H25.3663V86.612H28.1863C29.0343 86.612 29.6783 86.808 30.1183 87.2C30.5663 87.592 30.7903 88.1 30.7903 88.724C30.7903 89.244 30.6503 89.668 30.3703 89.996C30.0903 90.316 29.7303 90.54 29.2903 90.668ZM26.2063 90.32H28.1623C28.7303 90.32 29.1663 90.188 29.4703 89.924C29.7823 89.652 29.9383 89.28 29.9383 88.808C29.9383 88.344 29.7823 87.98 29.4703 87.716C29.1663 87.452 28.7183 87.32 28.1263 87.32H26.2063V90.32ZM28.2103 94.292C28.8183 94.292 29.2903 94.148 29.6263 93.86C29.9703 93.572 30.1423 93.176 30.1423 92.672C30.1423 92.168 29.9623 91.768 29.6023 91.472C29.2503 91.168 28.7743 91.016 28.1743 91.016H26.2063V94.292H28.2103ZM38.4544 91.388C38.4544 91.676 38.4464 91.896 38.4304 92.048H32.9944C33.0184 92.544 33.1384 92.968 33.3544 93.32C33.5704 93.672 33.8544 93.94 34.2064 94.124C34.5584 94.3 34.9424 94.388 35.3584 94.388C35.9024 94.388 36.3584 94.256 36.7264 93.992C37.1024 93.728 37.3504 93.372 37.4704 92.924H38.3584C38.1984 93.564 37.8544 94.088 37.3264 94.496C36.8064 94.896 36.1504 95.096 35.3584 95.096C34.7424 95.096 34.1904 94.96 33.7024 94.688C33.2144 94.408 32.8304 94.016 32.5504 93.512C32.2784 93 32.1424 92.404 32.1424 91.724C32.1424 91.044 32.2784 90.448 32.5504 89.936C32.8224 89.424 33.2024 89.032 33.6904 88.76C34.1784 88.488 34.7344 88.352 35.3584 88.352C35.9824 88.352 36.5264 88.488 36.9904 88.76C37.4624 89.032 37.8224 89.4 38.0704 89.864C38.3264 90.32 38.4544 90.828 38.4544 91.388ZM37.6024 91.364C37.6104 90.876 37.5104 90.46 37.3024 90.116C37.1024 89.772 36.8264 89.512 36.4744 89.336C36.1224 89.16 35.7384 89.072 35.3224 89.072C34.6984 89.072 34.1664 89.272 33.7264 89.672C33.2864 90.072 33.0424 90.636 32.9944 91.364H37.6024ZM41.0833 89.156V93.224C41.0833 93.624 41.1593 93.9 41.3113 94.052C41.4633 94.204 41.7313 94.28 42.1152 94.28H42.8833V95H41.9833C41.3913 95 40.9513 94.864 40.6633 94.592C40.3753 94.312 40.2313 93.856 40.2313 93.224V89.156H39.3193V88.448H40.2313V86.804H41.0833V88.448H42.8833V89.156H41.0833ZM43.8846 91.712C43.8846 91.04 44.0166 90.452 44.2806 89.948C44.5526 89.436 44.9246 89.044 45.3966 88.772C45.8766 88.492 46.4166 88.352 47.0166 88.352C47.6406 88.352 48.1766 88.496 48.6246 88.784C49.0806 89.072 49.4086 89.44 49.6086 89.888V88.448H50.4486V95H49.6086V93.548C49.4006 93.996 49.0686 94.368 48.6126 94.664C48.1646 94.952 47.6286 95.096 47.0046 95.096C46.4126 95.096 45.8766 94.956 45.3966 94.676C44.9246 94.396 44.5526 94 44.2806 93.488C44.0166 92.976 43.8846 92.384 43.8846 91.712ZM49.6086 91.724C49.6086 91.196 49.5006 90.732 49.2846 90.332C49.0686 89.932 48.7726 89.624 48.3966 89.408C48.0286 89.192 47.6206 89.084 47.1726 89.084C46.7086 89.084 46.2926 89.188 45.9246 89.396C45.5566 89.604 45.2646 89.908 45.0486 90.308C44.8406 90.7 44.7366 91.168 44.7366 91.712C44.7366 92.248 44.8406 92.72 45.0486 93.128C45.2646 93.528 45.5566 93.836 45.9246 94.052C46.2926 94.26 46.7086 94.364 47.1726 94.364C47.6206 94.364 48.0286 94.256 48.3966 94.04C48.7726 93.824 49.0686 93.516 49.2846 93.116C49.5006 92.716 49.6086 92.252 49.6086 91.724ZM61.0232 89.024C61.0232 89.744 60.7872 90.324 60.3152 90.764C59.8432 91.204 59.1352 91.424 58.1912 91.424H56.4992V95H55.6592V86.612H58.1912C59.1272 86.612 59.8312 86.832 60.3032 87.272C60.7832 87.712 61.0232 88.296 61.0232 89.024ZM58.1912 90.704C59.5032 90.704 60.1592 90.144 60.1592 89.024C60.1592 88.464 60.0032 88.04 59.6912 87.752C59.3792 87.464 58.8792 87.32 58.1912 87.32H56.4992V90.704H58.1912ZM62.0487 91.712C62.0487 91.04 62.1807 90.452 62.4447 89.948C62.7167 89.436 63.0887 89.044 63.5607 88.772C64.0407 88.492 64.5807 88.352 65.1807 88.352C65.8047 88.352 66.3407 88.496 66.7887 88.784C67.2447 89.072 67.5727 89.44 67.7727 89.888V88.448H68.6127V95H67.7727V93.548C67.5647 93.996 67.2327 94.368 66.7767 94.664C66.3287 94.952 65.7927 95.096 65.1687 95.096C64.5767 95.096 64.0407 94.956 63.5607 94.676C63.0887 94.396 62.7167 94 62.4447 93.488C62.1807 92.976 62.0487 92.384 62.0487 91.712ZM67.7727 91.724C67.7727 91.196 67.6647 90.732 67.4487 90.332C67.2327 89.932 66.9367 89.624 66.5607 89.408C66.1927 89.192 65.7847 89.084 65.3367 89.084C64.8727 89.084 64.4567 89.188 64.0887 89.396C63.7207 89.604 63.4287 89.908 63.2127 90.308C63.0047 90.7 62.9007 91.168 62.9007 91.712C62.9007 92.248 63.0047 92.72 63.2127 93.128C63.4287 93.528 63.7207 93.836 64.0887 94.052C64.4567 94.26 64.8727 94.364 65.3367 94.364C65.7847 94.364 66.1927 94.256 66.5607 94.04C66.9367 93.824 67.2327 93.516 67.4487 93.116C67.6647 92.716 67.7727 92.252 67.7727 91.724ZM72.7863 95.096C72.0343 95.096 71.4183 94.924 70.9383 94.58C70.4663 94.228 70.2023 93.752 70.1463 93.152H71.0103C71.0503 93.52 71.2223 93.82 71.5263 94.052C71.8383 94.276 72.2543 94.388 72.7743 94.388C73.2303 94.388 73.5863 94.28 73.8423 94.064C74.1063 93.848 74.2383 93.58 74.2383 93.26C74.2383 93.036 74.1663 92.852 74.0223 92.708C73.8783 92.564 73.6943 92.452 73.4703 92.372C73.2543 92.284 72.9583 92.192 72.5823 92.096C72.0943 91.968 71.6983 91.84 71.3943 91.712C71.0903 91.584 70.8303 91.396 70.6143 91.148C70.4063 90.892 70.3023 90.552 70.3023 90.128C70.3023 89.808 70.3983 89.512 70.5903 89.24C70.7823 88.968 71.0543 88.752 71.4063 88.592C71.7583 88.432 72.1583 88.352 72.6063 88.352C73.3103 88.352 73.8783 88.532 74.3103 88.892C74.7423 89.244 74.9743 89.732 75.0063 90.356H74.1663C74.1423 89.972 73.9903 89.664 73.7103 89.432C73.4383 89.192 73.0623 89.072 72.5823 89.072C72.1583 89.072 71.8143 89.172 71.5503 89.372C71.2863 89.572 71.1543 89.82 71.1543 90.116C71.1543 90.372 71.2303 90.584 71.3823 90.752C71.5423 90.912 71.7383 91.04 71.9703 91.136C72.2023 91.224 72.5143 91.324 72.9063 91.436C73.3783 91.564 73.7543 91.688 74.0343 91.808C74.3143 91.928 74.5543 92.104 74.7543 92.336C74.9543 92.568 75.0583 92.876 75.0663 93.26C75.0663 93.612 74.9703 93.928 74.7783 94.208C74.5863 94.48 74.3183 94.696 73.9743 94.856C73.6303 95.016 73.2343 95.096 72.7863 95.096ZM78.9035 95.096C78.1515 95.096 77.5355 94.924 77.0555 94.58C76.5835 94.228 76.3195 93.752 76.2635 93.152H77.1275C77.1675 93.52 77.3395 93.82 77.6435 94.052C77.9555 94.276 78.3715 94.388 78.8915 94.388C79.3475 94.388 79.7035 94.28 79.9595 94.064C80.2235 93.848 80.3555 93.58 80.3555 93.26C80.3555 93.036 80.2835 92.852 80.1395 92.708C79.9955 92.564 79.8115 92.452 79.5875 92.372C79.3715 92.284 79.0755 92.192 78.6995 92.096C78.2115 91.968 77.8155 91.84 77.5115 91.712C77.2075 91.584 76.9475 91.396 76.7315 91.148C76.5235 90.892 76.4195 90.552 76.4195 90.128C76.4195 89.808 76.5155 89.512 76.7075 89.24C76.8995 88.968 77.1715 88.752 77.5235 88.592C77.8755 88.432 78.2755 88.352 78.7235 88.352C79.4275 88.352 79.9955 88.532 80.4275 88.892C80.8595 89.244 81.0915 89.732 81.1235 90.356H80.2835C80.2595 89.972 80.1075 89.664 79.8275 89.432C79.5555 89.192 79.1795 89.072 78.6995 89.072C78.2755 89.072 77.9315 89.172 77.6675 89.372C77.4035 89.572 77.2715 89.82 77.2715 90.116C77.2715 90.372 77.3475 90.584 77.4995 90.752C77.6595 90.912 77.8555 91.04 78.0875 91.136C78.3195 91.224 78.6315 91.324 79.0235 91.436C79.4955 91.564 79.8715 91.688 80.1515 91.808C80.4315 91.928 80.6715 92.104 80.8715 92.336C81.0715 92.568 81.1755 92.876 81.1835 93.26C81.1835 93.612 81.0875 93.928 80.8955 94.208C80.7035 94.48 80.4355 94.696 80.0915 94.856C79.7475 95.016 79.3515 95.096 78.9035 95.096ZM92.3817 95H91.5417L86.8977 87.944V95H86.0577V86.612H86.8977L91.5417 93.656V86.612H92.3817V95ZM98.8202 86.612V87.308H95.1242V90.44H98.2442V91.136H95.1242V95H94.2842V86.612H98.8202ZM105.11 86.612V87.308H102.782V95H101.942V87.308H99.6022V86.612H105.11ZM108.693 95.096C107.941 95.096 107.325 94.924 106.845 94.58C106.373 94.228 106.109 93.752 106.053 93.152H106.917C106.957 93.52 107.129 93.82 107.433 94.052C107.745 94.276 108.161 94.388 108.681 94.388C109.137 94.388 109.493 94.28 109.749 94.064C110.013 93.848 110.145 93.58 110.145 93.26C110.145 93.036 110.073 92.852 109.929 92.708C109.785 92.564 109.601 92.452 109.377 92.372C109.161 92.284 108.865 92.192 108.489 92.096C108.001 91.968 107.605 91.84 107.301 91.712C106.997 91.584 106.737 91.396 106.521 91.148C106.313 90.892 106.209 90.552 106.209 90.128C106.209 89.808 106.305 89.512 106.497 89.24C106.689 88.968 106.961 88.752 107.313 88.592C107.665 88.432 108.065 88.352 108.513 88.352C109.217 88.352 109.785 88.532 110.217 88.892C110.649 89.244 110.881 89.732 110.913 90.356H110.073C110.049 89.972 109.897 89.664 109.617 89.432C109.345 89.192 108.969 89.072 108.489 89.072C108.065 89.072 107.721 89.172 107.457 89.372C107.193 89.572 107.061 89.82 107.061 90.116C107.061 90.372 107.137 90.584 107.289 90.752C107.449 90.912 107.645 91.04 107.877 91.136C108.109 91.224 108.421 91.324 108.813 91.436C109.285 91.564 109.661 91.688 109.941 91.808C110.221 91.928 110.461 92.104 110.661 92.336C110.861 92.568 110.965 92.876 110.973 93.26C110.973 93.612 110.877 93.928 110.685 94.208C110.493 94.48 110.225 94.696 109.881 94.856C109.537 95.016 109.141 95.096 108.693 95.096Z" fill="white"/>
<defs>
<linearGradient id="paint0_linear_2049_6964" x1="68.5195" y1="131.572" x2="68.5195" y2="5.43401" gradientUnits="userSpaceOnUse">
<stop stop-color="#B8008C" stop-opacity="0"/>
<stop offset="0.4722" stop-color="#DB008C" stop-opacity="0.4722"/>
<stop offset="1" stop-color="#FF008C"/>
</linearGradient>
<linearGradient id="paint1_linear_2049_6964" x1="68.5245" y1="113.417" x2="68.5245" y2="23.59" gradientUnits="userSpaceOnUse">
<stop stop-color="#B8008C" stop-opacity="0"/>
<stop offset="0.4722" stop-color="#DB008C" stop-opacity="0.4722"/>
<stop offset="1" stop-color="#FF008C"/>
</linearGradient>
<linearGradient id="paint2_linear_2049_6964" x1="68.5202" y1="136.265" x2="68.5202" y2="0.741332" gradientUnits="userSpaceOnUse">
<stop stop-color="#B8008C" stop-opacity="0"/>
<stop offset="0.4722" stop-color="#DB008C" stop-opacity="0.4722"/>
<stop offset="1" stop-color="#FF008C"/>
</linearGradient>
</defs>
</svg>
