<svg width="137" height="137" viewBox="0 0 137 137" fill="none" xmlns="http://www.w3.org/2000/svg">
<path d="M68.4993 131.546C103.319 131.546 131.546 103.319 131.546 68.4999C131.546 33.6805 103.319 5.45374 68.4993 5.45374C33.6799 5.45374 5.45312 33.6805 5.45312 68.4999C5.45312 103.319 33.6799 131.546 68.4993 131.546Z" fill="url(#paint0_linear_1949_8357)"/>
<path d="M68.5043 113.434C93.3207 113.434 113.438 93.3167 113.438 68.5003C113.438 43.6839 93.3207 23.5663 68.5043 23.5663C43.688 23.5663 23.5703 43.6839 23.5703 68.5003C23.5703 93.3167 43.688 113.434 68.5043 113.434Z" fill="url(#paint1_linear_1949_8357)"/>
<path d="M68.5 136C105.779 136 136 105.779 136 68.5C136 31.2208 105.779 1 68.5 1C31.2208 1 1 31.2208 1 68.5C1 105.779 31.2208 136 68.5 136Z" stroke="url(#paint2_linear_1949_8357)" stroke-width="1.0529" stroke-miterlimit="10"/>
<path d="M40.0755 50.408H30.0915V54.824C30.5182 54.3547 31.1155 53.9707 31.8835 53.672C32.6515 53.3733 33.4835 53.224 34.3795 53.224C35.9795 53.224 37.3022 53.5867 38.3475 54.312C39.4142 55.0373 40.1928 55.976 40.6835 57.128C41.1742 58.28 41.4195 59.528 41.4195 60.872C41.4195 63.368 40.7155 65.352 39.3075 66.824C37.8995 68.2747 35.9155 69 33.3555 69C31.6488 69 30.1662 68.712 28.9075 68.136C27.6488 67.5387 26.6782 66.7173 25.9955 65.672C25.3128 64.6267 24.9395 63.4213 24.8755 62.056H30.2195C30.3475 62.7173 30.6568 63.272 31.1475 63.72C31.6382 64.1467 32.3102 64.36 33.1635 64.36C34.1662 64.36 34.9128 64.04 35.4035 63.4C35.8942 62.76 36.1395 61.9067 36.1395 60.84C36.1395 59.7947 35.8835 58.9947 35.3715 58.44C34.8595 57.8853 34.1128 57.608 33.1315 57.608C32.4062 57.608 31.8088 57.7893 31.3395 58.152C30.8702 58.4933 30.5608 58.952 30.4115 59.528H25.1315V45.608H40.0755V50.408ZM50.872 63.944L47.32 73.128H43.832L45.688 63.944H50.872ZM53.6275 57C53.6275 53.3307 54.3315 50.44 55.7395 48.328C57.1688 46.216 59.4622 45.16 62.6195 45.16C65.7768 45.16 68.0595 46.216 69.4675 48.328C70.8968 50.44 71.6115 53.3307 71.6115 57C71.6115 60.712 70.8968 63.624 69.4675 65.736C68.0595 67.848 65.7768 68.904 62.6195 68.904C59.4622 68.904 57.1688 67.848 55.7395 65.736C54.3315 63.624 53.6275 60.712 53.6275 57ZM66.2355 57C66.2355 54.8453 66.0008 53.192 65.5315 52.04C65.0622 50.8667 64.0915 50.28 62.6195 50.28C61.1475 50.28 60.1768 50.8667 59.7075 52.04C59.2382 53.192 59.0035 54.8453 59.0035 57C59.0035 58.4507 59.0888 59.656 59.2595 60.616C59.4302 61.5547 59.7715 62.3227 60.2835 62.92C60.8168 63.496 61.5955 63.784 62.6195 63.784C63.6435 63.784 64.4115 63.496 64.9235 62.92C65.4568 62.3227 65.8088 61.5547 65.9795 60.616C66.1502 59.656 66.2355 58.4507 66.2355 57ZM74.5025 57C74.5025 53.3307 75.2065 50.44 76.6145 48.328C78.0438 46.216 80.3372 45.16 83.4945 45.16C86.6518 45.16 88.9345 46.216 90.3425 48.328C91.7718 50.44 92.4865 53.3307 92.4865 57C92.4865 60.712 91.7718 63.624 90.3425 65.736C88.9345 67.848 86.6518 68.904 83.4945 68.904C80.3372 68.904 78.0438 67.848 76.6145 65.736C75.2065 63.624 74.5025 60.712 74.5025 57ZM87.1105 57C87.1105 54.8453 86.8758 53.192 86.4065 52.04C85.9372 50.8667 84.9665 50.28 83.4945 50.28C82.0225 50.28 81.0518 50.8667 80.5825 52.04C80.1132 53.192 79.8785 54.8453 79.8785 57C79.8785 58.4507 79.9638 59.656 80.1345 60.616C80.3052 61.5547 80.6465 62.3227 81.1585 62.92C81.6918 63.496 82.4705 63.784 83.4945 63.784C84.5185 63.784 85.2865 63.496 85.7985 62.92C86.3318 62.3227 86.6838 61.5547 86.8545 60.616C87.0252 59.656 87.1105 58.4507 87.1105 57ZM95.3775 57C95.3775 53.3307 96.0815 50.44 97.4895 48.328C98.9188 46.216 101.212 45.16 104.37 45.16C107.527 45.16 109.81 46.216 111.218 48.328C112.647 50.44 113.362 53.3307 113.362 57C113.362 60.712 112.647 63.624 111.218 65.736C109.81 67.848 107.527 68.904 104.37 68.904C101.212 68.904 98.9188 67.848 97.4895 65.736C96.0815 63.624 95.3775 60.712 95.3775 57ZM107.986 57C107.986 54.8453 107.751 53.192 107.282 52.04C106.812 50.8667 105.842 50.28 104.37 50.28C102.898 50.28 101.927 50.8667 101.458 52.04C100.988 53.192 100.754 54.8453 100.754 57C100.754 58.4507 100.839 59.656 101.01 60.616C101.18 61.5547 101.522 62.3227 102.034 62.92C102.567 63.496 103.346 63.784 104.37 63.784C105.394 63.784 106.162 63.496 106.674 62.92C107.207 62.3227 107.559 61.5547 107.73 60.616C107.9 59.656 107.986 58.4507 107.986 57Z" fill="#F2F2F2"/>
<path d="M29.2903 90.668C29.7623 90.756 30.1623 90.996 30.4903 91.388C30.8183 91.78 30.9823 92.236 30.9823 92.756C30.9823 93.18 30.8743 93.564 30.6583 93.908C30.4503 94.244 30.1423 94.512 29.7343 94.712C29.3263 94.904 28.8383 95 28.2703 95H25.3663V86.612H28.1863C29.0343 86.612 29.6783 86.808 30.1183 87.2C30.5663 87.592 30.7903 88.1 30.7903 88.724C30.7903 89.244 30.6503 89.668 30.3703 89.996C30.0903 90.316 29.7303 90.54 29.2903 90.668ZM26.2063 90.32H28.1623C28.7303 90.32 29.1663 90.188 29.4703 89.924C29.7823 89.652 29.9383 89.28 29.9383 88.808C29.9383 88.344 29.7823 87.98 29.4703 87.716C29.1663 87.452 28.7183 87.32 28.1263 87.32H26.2063V90.32ZM28.2103 94.292C28.8183 94.292 29.2903 94.148 29.6263 93.86C29.9703 93.572 30.1423 93.176 30.1423 92.672C30.1423 92.168 29.9623 91.768 29.6023 91.472C29.2503 91.168 28.7743 91.016 28.1743 91.016H26.2063V94.292H28.2103ZM38.4544 91.388C38.4544 91.676 38.4464 91.896 38.4304 92.048H32.9944C33.0184 92.544 33.1384 92.968 33.3544 93.32C33.5704 93.672 33.8544 93.94 34.2064 94.124C34.5584 94.3 34.9424 94.388 35.3584 94.388C35.9024 94.388 36.3584 94.256 36.7264 93.992C37.1024 93.728 37.3504 93.372 37.4704 92.924H38.3584C38.1984 93.564 37.8544 94.088 37.3264 94.496C36.8064 94.896 36.1504 95.096 35.3584 95.096C34.7424 95.096 34.1904 94.96 33.7024 94.688C33.2144 94.408 32.8304 94.016 32.5504 93.512C32.2784 93 32.1424 92.404 32.1424 91.724C32.1424 91.044 32.2784 90.448 32.5504 89.936C32.8224 89.424 33.2024 89.032 33.6904 88.76C34.1784 88.488 34.7344 88.352 35.3584 88.352C35.9824 88.352 36.5264 88.488 36.9904 88.76C37.4624 89.032 37.8224 89.4 38.0704 89.864C38.3264 90.32 38.4544 90.828 38.4544 91.388ZM37.6024 91.364C37.6104 90.876 37.5104 90.46 37.3024 90.116C37.1024 89.772 36.8264 89.512 36.4744 89.336C36.1224 89.16 35.7384 89.072 35.3224 89.072C34.6984 89.072 34.1664 89.272 33.7264 89.672C33.2864 90.072 33.0424 90.636 32.9944 91.364H37.6024ZM41.0833 89.156V93.224C41.0833 93.624 41.1593 93.9 41.3113 94.052C41.4633 94.204 41.7313 94.28 42.1152 94.28H42.8833V95H41.9833C41.3913 95 40.9513 94.864 40.6633 94.592C40.3753 94.312 40.2313 93.856 40.2313 93.224V89.156H39.3193V88.448H40.2313V86.804H41.0833V88.448H42.8833V89.156H41.0833ZM43.8846 91.712C43.8846 91.04 44.0166 90.452 44.2806 89.948C44.5526 89.436 44.9246 89.044 45.3966 88.772C45.8766 88.492 46.4166 88.352 47.0166 88.352C47.6406 88.352 48.1766 88.496 48.6246 88.784C49.0806 89.072 49.4086 89.44 49.6086 89.888V88.448H50.4486V95H49.6086V93.548C49.4006 93.996 49.0686 94.368 48.6126 94.664C48.1646 94.952 47.6286 95.096 47.0046 95.096C46.4126 95.096 45.8766 94.956 45.3966 94.676C44.9246 94.396 44.5526 94 44.2806 93.488C44.0166 92.976 43.8846 92.384 43.8846 91.712ZM49.6086 91.724C49.6086 91.196 49.5006 90.732 49.2846 90.332C49.0686 89.932 48.7726 89.624 48.3966 89.408C48.0286 89.192 47.6206 89.084 47.1726 89.084C46.7086 89.084 46.2926 89.188 45.9246 89.396C45.5566 89.604 45.2646 89.908 45.0486 90.308C44.8406 90.7 44.7366 91.168 44.7366 91.712C44.7366 92.248 44.8406 92.72 45.0486 93.128C45.2646 93.528 45.5566 93.836 45.9246 94.052C46.2926 94.26 46.7086 94.364 47.1726 94.364C47.6206 94.364 48.0286 94.256 48.3966 94.04C48.7726 93.824 49.0686 93.516 49.2846 93.116C49.5006 92.716 49.6086 92.252 49.6086 91.724ZM61.0232 89.024C61.0232 89.744 60.7872 90.324 60.3152 90.764C59.8432 91.204 59.1352 91.424 58.1912 91.424H56.4992V95H55.6592V86.612H58.1912C59.1272 86.612 59.8312 86.832 60.3032 87.272C60.7832 87.712 61.0232 88.296 61.0232 89.024ZM58.1912 90.704C59.5032 90.704 60.1592 90.144 60.1592 89.024C60.1592 88.464 60.0032 88.04 59.6912 87.752C59.3792 87.464 58.8792 87.32 58.1912 87.32H56.4992V90.704H58.1912ZM62.0487 91.712C62.0487 91.04 62.1807 90.452 62.4447 89.948C62.7167 89.436 63.0887 89.044 63.5607 88.772C64.0407 88.492 64.5807 88.352 65.1807 88.352C65.8047 88.352 66.3407 88.496 66.7887 88.784C67.2447 89.072 67.5727 89.44 67.7727 89.888V88.448H68.6127V95H67.7727V93.548C67.5647 93.996 67.2327 94.368 66.7767 94.664C66.3287 94.952 65.7927 95.096 65.1687 95.096C64.5767 95.096 64.0407 94.956 63.5607 94.676C63.0887 94.396 62.7167 94 62.4447 93.488C62.1807 92.976 62.0487 92.384 62.0487 91.712ZM67.7727 91.724C67.7727 91.196 67.6647 90.732 67.4487 90.332C67.2327 89.932 66.9367 89.624 66.5607 89.408C66.1927 89.192 65.7847 89.084 65.3367 89.084C64.8727 89.084 64.4567 89.188 64.0887 89.396C63.7207 89.604 63.4287 89.908 63.2127 90.308C63.0047 90.7 62.9007 91.168 62.9007 91.712C62.9007 92.248 63.0047 92.72 63.2127 93.128C63.4287 93.528 63.7207 93.836 64.0887 94.052C64.4567 94.26 64.8727 94.364 65.3367 94.364C65.7847 94.364 66.1927 94.256 66.5607 94.04C66.9367 93.824 67.2327 93.516 67.4487 93.116C67.6647 92.716 67.7727 92.252 67.7727 91.724ZM72.7863 95.096C72.0343 95.096 71.4183 94.924 70.9383 94.58C70.4663 94.228 70.2023 93.752 70.1463 93.152H71.0103C71.0503 93.52 71.2223 93.82 71.5263 94.052C71.8383 94.276 72.2543 94.388 72.7743 94.388C73.2303 94.388 73.5863 94.28 73.8423 94.064C74.1063 93.848 74.2383 93.58 74.2383 93.26C74.2383 93.036 74.1663 92.852 74.0223 92.708C73.8783 92.564 73.6943 92.452 73.4703 92.372C73.2543 92.284 72.9583 92.192 72.5823 92.096C72.0943 91.968 71.6983 91.84 71.3943 91.712C71.0903 91.584 70.8303 91.396 70.6143 91.148C70.4063 90.892 70.3023 90.552 70.3023 90.128C70.3023 89.808 70.3983 89.512 70.5903 89.24C70.7823 88.968 71.0543 88.752 71.4063 88.592C71.7583 88.432 72.1583 88.352 72.6063 88.352C73.3103 88.352 73.8783 88.532 74.3103 88.892C74.7423 89.244 74.9743 89.732 75.0063 90.356H74.1663C74.1423 89.972 73.9903 89.664 73.7103 89.432C73.4383 89.192 73.0623 89.072 72.5823 89.072C72.1583 89.072 71.8143 89.172 71.5503 89.372C71.2863 89.572 71.1543 89.82 71.1543 90.116C71.1543 90.372 71.2303 90.584 71.3823 90.752C71.5423 90.912 71.7383 91.04 71.9703 91.136C72.2023 91.224 72.5143 91.324 72.9063 91.436C73.3783 91.564 73.7543 91.688 74.0343 91.808C74.3143 91.928 74.5543 92.104 74.7543 92.336C74.9543 92.568 75.0583 92.876 75.0663 93.26C75.0663 93.612 74.9703 93.928 74.7783 94.208C74.5863 94.48 74.3183 94.696 73.9743 94.856C73.6303 95.016 73.2343 95.096 72.7863 95.096ZM78.9035 95.096C78.1515 95.096 77.5355 94.924 77.0555 94.58C76.5835 94.228 76.3195 93.752 76.2635 93.152H77.1275C77.1675 93.52 77.3395 93.82 77.6435 94.052C77.9555 94.276 78.3715 94.388 78.8915 94.388C79.3475 94.388 79.7035 94.28 79.9595 94.064C80.2235 93.848 80.3555 93.58 80.3555 93.26C80.3555 93.036 80.2835 92.852 80.1395 92.708C79.9955 92.564 79.8115 92.452 79.5875 92.372C79.3715 92.284 79.0755 92.192 78.6995 92.096C78.2115 91.968 77.8155 91.84 77.5115 91.712C77.2075 91.584 76.9475 91.396 76.7315 91.148C76.5235 90.892 76.4195 90.552 76.4195 90.128C76.4195 89.808 76.5155 89.512 76.7075 89.24C76.8995 88.968 77.1715 88.752 77.5235 88.592C77.8755 88.432 78.2755 88.352 78.7235 88.352C79.4275 88.352 79.9955 88.532 80.4275 88.892C80.8595 89.244 81.0915 89.732 81.1235 90.356H80.2835C80.2595 89.972 80.1075 89.664 79.8275 89.432C79.5555 89.192 79.1795 89.072 78.6995 89.072C78.2755 89.072 77.9315 89.172 77.6675 89.372C77.4035 89.572 77.2715 89.82 77.2715 90.116C77.2715 90.372 77.3475 90.584 77.4995 90.752C77.6595 90.912 77.8555 91.04 78.0875 91.136C78.3195 91.224 78.6315 91.324 79.0235 91.436C79.4955 91.564 79.8715 91.688 80.1515 91.808C80.4315 91.928 80.6715 92.104 80.8715 92.336C81.0715 92.568 81.1755 92.876 81.1835 93.26C81.1835 93.612 81.0875 93.928 80.8955 94.208C80.7035 94.48 80.4355 94.696 80.0915 94.856C79.7475 95.016 79.3515 95.096 78.9035 95.096ZM92.3817 95H91.5417L86.8977 87.944V95H86.0577V86.612H86.8977L91.5417 93.656V86.612H92.3817V95ZM98.8202 86.612V87.308H95.1242V90.44H98.2442V91.136H95.1242V95H94.2842V86.612H98.8202ZM105.11 86.612V87.308H102.782V95H101.942V87.308H99.6022V86.612H105.11ZM108.693 95.096C107.941 95.096 107.325 94.924 106.845 94.58C106.373 94.228 106.109 93.752 106.053 93.152H106.917C106.957 93.52 107.129 93.82 107.433 94.052C107.745 94.276 108.161 94.388 108.681 94.388C109.137 94.388 109.493 94.28 109.749 94.064C110.013 93.848 110.145 93.58 110.145 93.26C110.145 93.036 110.073 92.852 109.929 92.708C109.785 92.564 109.601 92.452 109.377 92.372C109.161 92.284 108.865 92.192 108.489 92.096C108.001 91.968 107.605 91.84 107.301 91.712C106.997 91.584 106.737 91.396 106.521 91.148C106.313 90.892 106.209 90.552 106.209 90.128C106.209 89.808 106.305 89.512 106.497 89.24C106.689 88.968 106.961 88.752 107.313 88.592C107.665 88.432 108.065 88.352 108.513 88.352C109.217 88.352 109.785 88.532 110.217 88.892C110.649 89.244 110.881 89.732 110.913 90.356H110.073C110.049 89.972 109.897 89.664 109.617 89.432C109.345 89.192 108.969 89.072 108.489 89.072C108.065 89.072 107.721 89.172 107.457 89.372C107.193 89.572 107.061 89.82 107.061 90.116C107.061 90.372 107.137 90.584 107.289 90.752C107.449 90.912 107.645 91.04 107.877 91.136C108.109 91.224 108.421 91.324 108.813 91.436C109.285 91.564 109.661 91.688 109.941 91.808C110.221 91.928 110.461 92.104 110.661 92.336C110.861 92.568 110.965 92.876 110.973 93.26C110.973 93.612 110.877 93.928 110.685 94.208C110.493 94.48 110.225 94.696 109.881 94.856C109.537 95.016 109.141 95.096 108.693 95.096Z" fill="white"/>
<defs>
<linearGradient id="paint0_linear_1949_8357" x1="68.5195" y1="131.572" x2="68.5195" y2="5.43413" gradientUnits="userSpaceOnUse">
<stop stop-color="#B8008C" stop-opacity="0"/>
<stop offset="0.4722" stop-color="#DB008C" stop-opacity="0.4722"/>
<stop offset="1" stop-color="#FF008C"/>
</linearGradient>
<linearGradient id="paint1_linear_1949_8357" x1="68.5245" y1="113.417" x2="68.5245" y2="23.5898" gradientUnits="userSpaceOnUse">
<stop stop-color="#B8008C" stop-opacity="0"/>
<stop offset="0.4722" stop-color="#DB008C" stop-opacity="0.4722"/>
<stop offset="1" stop-color="#FF008C"/>
</linearGradient>
<linearGradient id="paint2_linear_1949_8357" x1="68.5202" y1="136.265" x2="68.5202" y2="0.741332" gradientUnits="userSpaceOnUse">
<stop stop-color="#B8008C" stop-opacity="0"/>
<stop offset="0.4722" stop-color="#DB008C" stop-opacity="0.4722"/>
<stop offset="1" stop-color="#FF008C"/>
</linearGradient>
</defs>
</svg>
