<svg width="24" height="24" viewBox="0 0 24 24" fill="none" xmlns="http://www.w3.org/2000/svg">
<path d="M11.2681 4.41115C11.4996 3.89177 11.6154 3.63208 11.7766 3.55211C11.9166 3.48263 12.0811 3.48263 12.2211 3.55211C12.3823 3.63208 12.498 3.89177 12.7295 4.41115L14.5736 8.54808C14.642 8.70162 14.6762 8.77839 14.7292 8.83718C14.776 8.8892 14.8333 8.93081 14.8972 8.95929C14.9695 8.99149 15.0531 9.00031 15.2203 9.01795L19.7246 9.49336C20.2901 9.55304 20.5728 9.58288 20.6987 9.71147C20.808 9.82316 20.8589 9.97956 20.8361 10.1342C20.8098 10.3122 20.5986 10.5025 20.1762 10.8832L16.8116 13.9154C16.6867 14.0279 16.6242 14.0842 16.5847 14.1527C16.5497 14.2134 16.5278 14.2807 16.5205 14.3503C16.5122 14.429 16.5297 14.5112 16.5645 14.6757L17.5043 19.1064C17.6223 19.6627 17.6813 19.9408 17.5979 20.1002C17.5254 20.2388 17.3924 20.3354 17.2383 20.3615C17.0609 20.3915 16.8146 20.2495 16.322 19.9654L12.3985 17.7024C12.2529 17.6184 12.1801 17.5765 12.1027 17.56C12.0342 17.5455 11.9634 17.5455 11.895 17.56C11.8176 17.5765 11.7448 17.6184 11.5991 17.7024L7.67565 19.9654C7.18307 20.2495 6.93678 20.3915 6.75937 20.3615C6.60525 20.3354 6.47221 20.2388 6.39977 20.1002C6.31638 19.9408 6.37537 19.6627 6.49336 19.1064L7.43313 14.6757C7.46801 14.5112 7.48545 14.429 7.47716 14.3503C7.46983 14.2807 7.44796 14.2134 7.41297 14.1527C7.37342 14.0842 7.31098 14.0279 7.1861 13.9154L3.82148 10.8832C3.39907 10.5025 3.18786 10.3122 3.16161 10.1342C3.1388 9.97956 3.18962 9.82316 3.29896 9.71147C3.42483 9.58288 3.70758 9.55304 4.27308 9.49336L8.77737 9.01795C8.94455 9.00031 9.02814 8.99149 9.10042 8.95929C9.16437 8.93081 9.22163 8.8892 9.26848 8.83718C9.32144 8.77839 9.35566 8.70162 9.4241 8.54808L11.2681 4.41115Z" stroke="#B8B8E0" stroke-width="2" stroke-linecap="round" stroke-linejoin="round"/>
</svg>
