<svg width="70" height="78" viewBox="0 0 70 78" fill="none" xmlns="http://www.w3.org/2000/svg">
<path d="M31.0552 3.53484C33.5022 2.14788 36.4978 2.14788 38.9448 3.53483L51.3999 10.5944L63.7413 17.8511C66.166 19.2768 67.6638 21.8711 67.6861 24.6837L67.7999 39L67.6861 53.3163C67.6638 56.1289 66.166 58.7232 63.7413 60.1489L51.4001 67.4055L38.9448 74.4652C36.4978 75.8521 33.5022 75.8521 31.0552 74.4652L18.6 67.4055L6.25867 60.1489C3.83403 58.7232 2.33622 56.1289 2.31386 53.3163L2.20006 39L2.31386 24.6837C2.33622 21.8711 3.83402 19.2768 6.25867 17.8511L18.6 10.5944L31.0552 3.53484Z" stroke="url(#paint0_linear_524_936)" stroke-width="4"/>
<defs>
<linearGradient id="paint0_linear_524_936" x1="35" y1="-1" x2="35" y2="79" gradientUnits="userSpaceOnUse">
<stop stop-color="#00FECF"/>
<stop offset="1" stop-color="#8C56FF"/>
</linearGradient>
</defs>
</svg>
