<svg width="34" height="34" viewBox="0 0 34 34" fill="none" xmlns="http://www.w3.org/2000/svg">
<rect width="34" height="34" rx="17" fill="url(#paint0_linear_531_5703)"/>
<path d="M8.82967 17.2793L8.84301 22.1687L12.9975 24.6134V27.4759L6.41164 23.6133V15.8495L8.82967 17.2793ZM8.82967 12.3899V15.2391L6.41016 13.8078V10.9586L8.82967 9.52734L11.261 10.9586L8.82967 12.3899ZM14.7325 10.9586L17.152 9.52734L19.5834 10.9586L17.152 12.3899L14.7325 10.9586Z" fill="white"/>
<path d="M10.582 21.1553V18.2927L13.0015 19.724V22.5732L10.582 21.1553ZM14.7365 25.6387L17.1561 27.07L19.5874 25.6387V28.4879L17.1561 29.9192L14.7365 28.4879V25.6387ZM23.0574 10.9586L25.477 9.52734L27.9083 10.9586V13.8078L25.477 15.2391V12.3899L23.0574 10.9586ZM25.477 22.1687L25.4903 17.2793L27.9098 15.848V23.6118L21.3239 27.4744V24.6119L25.477 22.1687Z" fill="white"/>
<path d="M23.7359 21.1555L21.3164 22.5734V19.7242L23.7359 18.293V21.1555Z" fill="white"/>
<path d="M23.742 13.4016L23.7553 16.2641L19.5889 18.7088V23.6101L17.1694 25.028L14.7499 23.6101V18.7088L10.5835 16.2641V13.4016L13.0134 11.9703L17.1546 14.4269L21.321 11.9703L23.7523 13.4016H23.742ZM10.582 8.51367L17.1561 4.6377L23.742 8.51367L21.3224 9.94493L17.1561 7.48837L13.0015 9.94493L10.582 8.51367Z" fill="white"/>
<defs>
<linearGradient id="paint0_linear_531_5703" x1="34" y1="34" x2="0" y2="0" gradientUnits="userSpaceOnUse">
<stop stop-color="#D1A000"/>
<stop offset="1" stop-color="#FFD632"/>
</linearGradient>
</defs>
</svg>
