<?xml version="1.0" encoding="UTF-8" standalone="no"?> <svg xmlns="http://www.w3.org/2000/svg" viewBox="0 0 64 64"><title>dragon</title><g id="dragon">
<circle cx="58" cy="16" r="1"/><circle cx="36" cy="5" r="1"/><line x1="15.919" y1="10.586" x2="12.223" y2="14.281" style="fill:none;stroke:#fff;stroke-linecap:round;stroke-linejoin:round;stroke-width:2px"/><line x1="12.223" y1="10.586" x2="15.919" y2="14.281" style="fill:none;stroke:#fff;stroke-linecap:round;stroke-linejoin:round;stroke-width:2px"/><path d="M20,44V40.109a7.423,7.423,0,0,1,5.5,4.56" style="fill:none;stroke:#fff;stroke-linecap:round;stroke-linejoin:round;stroke-width:2px"/><line x1="52.024" y1="29" x2="63" y2="29" style="fill:none;stroke:#fff;stroke-linecap:round;stroke-linejoin:round;stroke-width:2px"/><line x1="63" y1="51" x2="51.265" y2="51" style="fill:none;stroke:#fff;stroke-linecap:round;stroke-linejoin:round;stroke-width:2px"/><path d="M2.261,34.248A7.487,7.487,0,0,0,7.491,40l-.146-3.336" style="fill:none;stroke:#fff;stroke-linecap:round;stroke-linejoin:round;stroke-width:2px"/><path d="M6.417,34.678a7.581,7.581,0,0,0,5.074,5.074l-.228-5.223" style="fill:none;stroke:#fff;stroke-linecap:round;stroke-linejoin:round;stroke-width:2px"/><path d="M15,44.719v-4.61A7.453,7.453,0,0,1,20.632,45" style="fill:none;stroke:#fff;stroke-linecap:round;stroke-linejoin:round;stroke-width:2px"/><path d="M2,31.515v2.594H26.545a5.446,5.446,0,0,1,0,10.891H2a9.27,9.27,0,0,0,3.844,8.98A6.624,6.624,0,0,1,6.89,50.843c.523,9.412,9.935,8.366,9.935,8.366-3.137-3.137-3.137-8.889-3.137-8.889a10.811,10.811,0,0,0,10.981,8.889,9.928,9.928,0,0,1-3.137-8.889c1.046,10.458,9.935,8.889,9.935,8.889a10.606,10.606,0,0,1-2.091-8.366,11.051,11.051,0,0,0,13.073,6.8c9.935-2.092,10.458-13.6,10.458-13.6-3.137,5.229-13.6,3.137-13.6,3.137,14.119-1.046,13.6-13.6,13.6-13.6A10.252,10.252,0,0,1,49.136,36.2" style="fill:none;stroke:#fff;stroke-linecap:round;stroke-linejoin:round;stroke-width:2px"/><path d="M35.651,21.82a7.583,7.583,0,0,0-15.165,0c0,.061.008.12.009.18h-9" style="fill:none;stroke:#fff;stroke-linecap:round;stroke-linejoin:round;stroke-width:2px"/><path d="M52.024,29a12.724,12.724,0,0,0,.883-6.4L48.2,26l-5.568-2.183" style="fill:none;stroke:#fff;stroke-linecap:round;stroke-linejoin:round;stroke-width:2px"/><path d="M10.119,25.742s3.138.683,3.138,6.831,10.981,4.1,10.981,4.1" style="fill:none;stroke:#fff;stroke-linecap:round;stroke-linejoin:round;stroke-width:2px"/><path d="M10.5,24.732c.754.073,2.621.667,5.5,4.268,4,5,12,1,12,1" style="fill:none;stroke:#fff;stroke-linecap:round;stroke-linejoin:round;stroke-width:2px"/><path d="M40.161,25.742,51,15.284V8.5A2.5,2.5,0,0,0,48.5,6h0A2.5,2.5,0,0,0,46,8.5v4.692l-4,4.183V13a3,3,0,0,0-3-3h0a3,3,0,0,0-3,3v8.559l-1.261.908" style="fill:none;stroke:#fff;stroke-linecap:round;stroke-linejoin:round;stroke-width:2px"/><path d="M2.759,21H11a0,0,0,0,1,0,0v0A10,10,0,0,1,1,31H1a0,0,0,0,1,0,0V22.759A1.759,1.759,0,0,1,2.759,21Z" style="fill:none;stroke:#fff;stroke-linecap:round;stroke-linejoin:round;stroke-width:2px"/><path d="M23.973,24.3l6.119-.507a.53.53,0,0,0,.4-.824l-1.409-2.1a.529.529,0,0,0-.767-.12L23.934,24.2A.056.056,0,0,0,23.973,24.3Z" style="fill:none;stroke:#fff;stroke-linecap:round;stroke-linejoin:round;stroke-width:2px"/><line x1="2" y1="24" x2="3" y2="24" style="fill:none;stroke:#fff;stroke-linecap:round;stroke-linejoin:round;stroke-width:2px"/></g></svg>