<svg width="72" height="69" viewBox="0 0 72 69" fill="none" xmlns="http://www.w3.org/2000/svg">
<path d="M14.1094 39.3003V56.4314L22.2545 51.6244L22.6749 39.7094L14.1094 39.3003Z" fill="url(#paint0_linear_525_1837)"/>
<path d="M14.2617 53.1061L22.1219 49.0249L22.0715 50.4861L14.2617 55.1719V53.1061Z" fill="url(#paint1_linear_525_1837)"/>
<g style="mix-blend-mode:multiply" opacity="0.8">
<path d="M14.3109 46.8077C14.7644 44.9939 15.6713 46.2535 15.6713 48.8231C15.6713 51.3928 15.369 55.4236 15.369 55.4236L16.0744 54.9198C16.0744 54.9198 16.024 48.2185 16.3767 47.4124C16.7294 46.6062 18.5937 46.8581 18.5937 53.4586L21.9191 51.4432L22.3222 39.7034L14.1094 39.3003V48.5712L14.3109 46.8077Z" fill="url(#paint2_linear_525_1837)"/>
</g>
<path d="M57.1894 39.3511V56.2302L49.3796 51.494L48.9766 39.7542L57.1894 39.3511Z" fill="url(#paint3_linear_525_1837)"/>
<path d="M57.1918 53.1061L49.2812 49.0249L49.382 50.4861L57.1918 55.1719V53.1061Z" fill="url(#paint4_linear_525_1837)"/>
<g style="mix-blend-mode:multiply" opacity="0.8">
<path d="M56.9879 46.8077C56.5344 44.9939 55.6274 46.2535 55.6274 48.8231C55.6274 51.3928 55.9298 55.4236 55.9298 55.4236L55.2244 54.9198C55.2244 54.9198 55.2747 48.2185 54.922 47.4124C54.5694 46.6062 52.7051 46.8581 52.7051 53.4586L49.3796 51.4432L48.9766 39.7034L57.1894 39.3003V48.5712L56.9879 46.8077Z" fill="url(#paint5_linear_525_1837)"/>
</g>
<path d="M33.6558 51.595V68.1214C28.6676 65.5014 21.1602 57.7924 21.1602 57.7924V46.4053L33.6558 51.595Z" fill="url(#paint6_linear_525_1837)"/>
<path d="M33.6593 63.7881V67.1136C28.6711 64.4935 21.1133 56.7846 21.1133 56.7846V53.9126C22.8768 56.1296 26.5549 59.9085 33.6593 63.7881Z" fill="url(#paint7_linear_525_1837)"/>
<path d="M37.9336 51.595V68.1214C42.9218 65.5014 50.4796 57.7924 50.4796 57.7924V46.4053L37.9336 51.595Z" fill="url(#paint8_linear_525_1837)"/>
<path d="M37.9336 63.7881V67.1136C42.9218 64.4935 50.4796 56.7846 50.4796 56.7846V53.9126C48.7161 56.1296 45.0379 59.9085 37.9336 63.7881Z" fill="url(#paint9_linear_525_1837)"/>
<g style="mix-blend-mode:multiply" opacity="0.8">
<path d="M22.319 59.0016C22.319 59.0016 22.2183 51.3934 23.3771 51.5446C24.5864 51.6957 26.6018 52.905 27.0553 54.2654C27.5087 55.6258 27.3576 63.6371 27.3576 63.6371L27.811 63.9898C27.811 63.9898 27.2568 54.2654 28.1637 54.7693C29.0707 55.2227 30.3303 56.1297 30.7334 58.2962C31.1869 60.4628 31.2876 66.761 31.2876 66.761L33.6558 68.1718V51.6454L21.1602 46.4053V57.8428L22.319 59.0016Z" fill="url(#paint10_linear_525_1837)"/>
</g>
<g style="mix-blend-mode:multiply" opacity="0.8">
<path d="M49.2746 59.0011C49.2746 59.0011 49.3754 50.0828 48.1661 50.234C46.9569 50.3851 46.9569 54.8695 46.9569 56.2299C46.9569 57.691 46.7554 61.3692 46.7554 61.3692L46.1003 61.9738C46.1003 61.9738 46.2011 51.8463 45.2942 52.3502C44.3872 52.8036 40.306 55.9779 39.9029 58.1445C39.4495 60.3111 39.651 67.2139 39.651 67.2139L37.9883 68.2216V51.6952L50.5343 46.4551V57.8926L49.2746 59.0011Z" fill="url(#paint11_linear_525_1837)"/>
</g>
<path d="M40.8672 26.4016L68.3776 26.2505L65.808 30.8356L42.278 31.4906L40.8672 26.4016Z" fill="url(#paint12_linear_525_1837)"/>
<path d="M65.9029 26.2505H62.7286L60.0078 30.9867L63.2829 30.886L65.9029 26.2505Z" fill="url(#paint13_linear_525_1837)"/>
<g style="mix-blend-mode:multiply" opacity="0.5">
<path d="M42.0703 30.0796L66.5577 29.5254L65.8019 30.8354L42.2719 31.4904L42.0703 30.0796Z" fill="#DE5634"/>
</g>
<g style="mix-blend-mode:multiply" opacity="0.4">
<path d="M56.4846 26.6534C56.283 26.8549 57.2404 29.2734 57.6434 29.223C58.0465 29.1726 66.0074 29.2734 66.3601 29.0719C66.7128 28.8199 68.0732 26.8045 67.7709 26.5526C67.4182 26.2503 56.6861 26.4518 56.4846 26.6534Z" fill="#FFDF66"/>
</g>
<path opacity="0.5" d="M55.9324 26.3003C55.9324 26.3003 56.9905 29.1219 56.9905 29.7265C57.0409 30.3311 56.5875 31.1373 56.5875 31.1373L42.278 31.5404L40.8672 26.4514L55.9324 26.3003Z" fill="#DE5634"/>
<path d="M30.7331 26.4016L3.22266 26.2505L5.79231 30.8356L29.3223 31.4906L30.7331 26.4016Z" fill="url(#paint14_linear_525_1837)"/>
<path d="M5.64062 26.2505L8.81491 26.3009L11.5357 30.9867L8.26067 30.9363L5.64062 26.2505Z" fill="url(#paint15_linear_525_1837)"/>
<g style="mix-blend-mode:multiply" opacity="0.5">
<path d="M29.5264 30.0796L5.03906 29.5254L5.79484 30.8354L29.3249 31.4904L29.5264 30.0796Z" fill="#DE5634"/>
</g>
<g style="mix-blend-mode:multiply" opacity="0.4">
<path d="M14.9642 26.5524C15.6696 27.2074 14.41 29.4244 14.0069 29.3236C13.6038 29.2732 5.64292 29.2732 5.29022 29.0213C4.93752 28.7694 3.57711 26.754 3.87943 26.502C4.18174 26.2501 14.5611 26.1493 14.9642 26.5524Z" fill="#FFDF66"/>
</g>
<path opacity="0.5" d="M15.7183 26.3003C15.7183 26.3003 14.6602 29.1219 14.6602 29.7265C14.6098 30.3311 15.0632 31.1373 15.0632 31.1373L29.3727 31.5404L30.7331 26.4011L15.7183 26.3003Z" fill="#DE5634"/>
<path d="M43.8867 20.4563L71.4476 20.3052L68.8779 24.8903L45.3479 25.5453L43.8867 20.4563Z" fill="url(#paint16_linear_525_1837)"/>
<path d="M69.1256 20.3052H65.9513L63.2305 25.0414L66.5055 24.9406L69.1256 20.3052Z" fill="url(#paint17_linear_525_1837)"/>
<g style="mix-blend-mode:multiply" opacity="0.5">
<path d="M45.0977 24.1349L69.6354 23.5303L68.8796 24.8907L45.3496 25.5457L45.0977 24.1349Z" fill="#DE5634"/>
</g>
<g style="mix-blend-mode:multiply" opacity="0.4">
<path d="M59.508 20.7081C59.3065 20.9096 60.2638 23.3281 60.6669 23.2777C61.07 23.2273 69.0309 23.3281 69.3836 23.1266C69.7363 22.8746 71.0967 20.8592 70.7944 20.6073C70.4417 20.305 59.7096 20.5065 59.508 20.7081Z" fill="#FFDF66"/>
</g>
<path opacity="0.5" d="M55.375 20.4062C55.375 20.4062 56.4331 23.2278 56.4331 23.8325C56.4835 24.4371 56.03 25.2433 56.03 25.2433L45.3483 25.5456L43.9375 20.4566L55.375 20.4062Z" fill="#DE5634"/>
<path d="M27.5105 20.4563L0 20.3052L2.56966 24.8903L26.0997 25.5453L27.5105 20.4563Z" fill="url(#paint18_linear_525_1837)"/>
<path d="M2.36719 20.3052L5.54147 20.3556L8.26229 25.0414L4.98723 24.991L2.36719 20.3052Z" fill="url(#paint19_linear_525_1837)"/>
<g style="mix-blend-mode:multiply" opacity="0.5">
<path d="M26.2998 24.1349L1.8125 23.5303L2.56828 24.8907L26.0983 25.5457L26.2998 24.1349Z" fill="#DE5634"/>
</g>
<g style="mix-blend-mode:multiply" opacity="0.4">
<path d="M11.7416 20.6071C12.447 21.2621 11.1873 23.4791 10.7843 23.3783C10.3812 23.3279 2.42026 23.3279 2.06756 23.076C1.71487 22.8241 0.354458 20.8087 0.656771 20.5567C0.959083 20.3048 11.3385 20.204 11.7416 20.6071Z" fill="#FFDF66"/>
</g>
<path opacity="0.5" d="M16.2222 20.4062C16.2222 20.4062 15.1641 23.2278 15.1641 23.8325C15.1137 24.4371 15.5671 25.1929 15.5671 25.1929L26.1481 25.5456L27.5589 20.4566L16.2222 20.4062Z" fill="#DE5634"/>
<path d="M18.3881 25.5454L17.0781 21.2627L18.3881 19.5999L27.5079 14.1079V3.4766L28.6668 2.67043L32.2945 0V18.0884L18.3881 25.5454Z" fill="url(#paint20_linear_525_1837)"/>
<g style="mix-blend-mode:multiply">
<path d="M17.0781 21.2626L28.6668 14.6118V2.67041L27.5079 3.47658V14.1079L18.3881 19.5999L17.0781 21.2626Z" fill="url(#paint21_linear_525_1837)"/>
</g>
<g style="mix-blend-mode:multiply" opacity="0.4">
<path d="M28.9221 2.67044C28.8717 3.32545 28.9725 11.7902 29.3756 11.9918C29.7787 12.1933 31.7941 11.0344 31.9956 10.581C32.1468 10.0771 32.046 1.05811 31.7437 1.05811C31.4918 1.10849 28.9725 2.16659 28.9221 2.67044Z" fill="#FFDF66"/>
</g>
<path opacity="0.37" d="M28.9684 14.7628C27.9606 15.6193 17.6316 21.2625 17.4805 21.6152C17.2789 22.0687 18.6897 24.2856 19.2943 24.0841C19.9997 23.933 32.2434 16.9798 32.2938 16.6271C32.2938 16.2744 32.3442 14.5109 32.0419 14.3597C31.7396 14.2589 29.3714 14.4605 28.9684 14.7628Z" fill="url(#paint22_linear_525_1837)"/>
<path d="M17.0781 21.6157L28.8683 14.7633L28.9691 2.46924L28.6668 2.67078V14.6121L17.0781 21.263V21.6157Z" fill="#B33114"/>
<path opacity="0.4" d="M27.6078 14.2085C26.9528 14.2589 18.5384 19.6501 18.5384 19.8013C18.5384 19.9524 17.0772 20.8594 17.4299 20.8594C17.7826 20.8594 28.414 14.8131 28.414 14.6116C28.414 14.41 27.9605 14.2085 27.6078 14.2085Z" fill="#FFDF66"/>
<path opacity="0.4" d="M17.0781 21.6156C17.0781 21.6156 22.6709 18.794 25.5429 16.9801C28.4149 15.1663 29.0195 14.7632 29.0195 14.7632L17.0781 21.6156Z" fill="#FFDF66"/>
<g style="mix-blend-mode:multiply" opacity="0.5">
<path d="M27.5077 12.7475L28.6666 11.7398H28.8681L32.2943 9.87549V18.0883L28.4146 20.0534L26.5 14.6621L27.5077 14.1079V12.7475Z" fill="#DE5634"/>
</g>
<path d="M53.2068 25.5454L54.5672 21.2627L53.2068 19.5999L44.1374 14.1079V3.4766L42.9785 2.67043L39.25 0V18.0884L53.2068 25.5454Z" fill="url(#paint23_linear_525_1837)"/>
<g style="mix-blend-mode:multiply">
<path d="M54.5691 21.2626L42.9805 14.6118V2.67041L44.1393 3.47658V14.1079L53.2087 19.5999L54.5691 21.2626Z" fill="url(#paint24_linear_525_1837)"/>
</g>
<g style="mix-blend-mode:multiply" opacity="0.4">
<path d="M42.5217 2.67007C42.5721 3.32508 42.7737 11.7898 42.3706 11.9914C41.9675 12.1929 39.8009 10.9333 39.5994 10.4294C39.4482 9.97597 39.5994 1.05774 39.8513 1.10812C40.1032 1.10812 42.4713 2.16622 42.5217 2.67007Z" fill="#FFDF66"/>
</g>
<path opacity="0.37" d="M42.6259 14.7628C43.684 15.6193 53.9626 21.2625 54.1137 21.6152C54.3153 22.0687 52.9045 24.2856 52.2999 24.0841C51.6449 23.8826 39.4012 16.9294 39.3508 16.6271C39.3508 16.2744 39.3004 14.5109 39.6027 14.3597C39.8547 14.2589 42.2228 14.4605 42.6259 14.7628Z" fill="url(#paint25_linear_525_1837)"/>
<path d="M54.5628 21.6157L42.7223 14.7633L42.6719 2.46924L42.9742 2.67078V14.6121L54.5628 21.263V21.6157Z" fill="#B33114"/>
<path opacity="0.4" d="M43.982 14.2085C44.637 14.2589 53.0513 19.6501 53.0513 19.8013C53.0513 19.9524 54.5125 20.8594 54.1598 20.8594C53.8071 20.8594 43.1758 14.8131 43.1758 14.6116C43.1758 14.41 43.6293 14.2085 43.982 14.2085Z" fill="#FFDF66"/>
<path opacity="0.4" d="M54.5703 21.6156C54.5703 21.6156 48.9775 18.794 46.1055 16.9801C43.2335 15.1663 42.6289 14.7632 42.6289 14.7632L54.5703 21.6156Z" fill="#FFDF66"/>
<g style="mix-blend-mode:multiply" opacity="0.5">
<path d="M44.1378 12.7475L42.9789 11.7398H42.727L39.3008 9.87549V18.0883L43.1805 20.0534L45.0951 14.6621L44.1378 14.1079V12.7475Z" fill="#DE5634"/>
</g>
<path d="M17.7368 43.4827C17.6864 43.6339 10.8843 41.2658 10.8843 41.2658C7.8612 36.6303 6.60156 32.9521 6.60156 32.9521H18.2406L17.7368 43.4827Z" fill="url(#paint26_linear_525_1837)"/>
<path d="M8.82031 32.9521C8.82031 32.9521 11.5411 38.5449 12.045 39.1999L17.9401 39.3511V38.948C17.9401 38.948 12.5488 38.9984 12.2465 38.7465C11.9442 38.4946 9.17301 32.9521 9.17301 32.9521H8.82031Z" fill="#B33114"/>
<g style="mix-blend-mode:multiply">
<path d="M8.82031 32.9521L12.045 39.1999C12.045 39.1999 10.8861 37.5372 10.1303 36.076C9.42494 34.6149 8.82031 32.9521 8.82031 32.9521Z" fill="white"/>
</g>
<g style="mix-blend-mode:multiply" opacity="0.4">
<path d="M9.62876 33.356C10.0822 34.7164 11.8457 37.7395 12.2488 37.7395C12.6015 37.7395 16.9347 37.6387 17.3377 37.0341C17.7408 36.4295 18.0935 33.4063 17.7408 33.356C17.3881 33.3056 9.42722 32.7513 9.62876 33.356Z" fill="#FFDF66"/>
</g>
<g style="mix-blend-mode:multiply" opacity="0.4">
<path d="M6.9554 33.2042C7.50964 34.5142 9.07159 37.89 9.32352 37.89C9.62583 37.9404 10.5832 38.0412 10.5832 37.6381C10.5832 36.9831 8.81966 33.2545 8.41658 33.1538C8.0135 33.1034 6.85463 32.8515 6.9554 33.2042Z" fill="#FFDF66"/>
</g>
<g style="mix-blend-mode:multiply" opacity="0.37">
<path d="M9.62619 38.3437C9.57581 38.7468 11.1378 40.9133 11.3897 41.0645C11.6416 41.2156 16.8817 42.9287 17.2344 42.6768C17.5871 42.4249 17.7383 38.0414 17.4863 37.8902C17.184 37.7894 9.67658 37.8902 9.62619 38.3437Z" fill="url(#paint27_linear_525_1837)"/>
</g>
<path opacity="0.5" d="M14.3047 32.9521C14.3047 32.9521 15.262 37.9907 15.0605 42.6765L17.7309 43.4827L18.2348 32.9521H14.3047Z" fill="#DE5634"/>
<path d="M53.8593 43.4827C53.9097 43.6339 60.7117 41.2658 60.7117 41.2658C63.7349 36.6303 64.9945 32.9521 64.9945 32.9521H53.3555L53.8593 43.4827Z" fill="url(#paint28_linear_525_1837)"/>
<path d="M62.7838 32.9521C62.7838 32.9521 60.063 38.5449 59.5592 39.1999L53.6641 39.3511V38.948C53.6641 38.948 59.0553 38.9984 59.3576 38.7465C59.6599 38.4946 62.4311 32.9521 62.4311 32.9521H62.7838Z" fill="#B33114"/>
<g style="mix-blend-mode:soft-light">
<path d="M62.7755 32.9521L59.5508 39.1999C59.5508 39.1999 60.7096 37.5372 61.4654 36.076C62.1708 34.6149 62.7755 32.9521 62.7755 32.9521Z" fill="white"/>
</g>
<g style="mix-blend-mode:multiply" opacity="0.4">
<path d="M61.9757 33.356C61.5222 34.7164 59.7587 37.7395 59.3556 37.7395C59.0029 37.7395 54.6698 37.6387 54.2667 37.0341C53.8636 36.4295 53.5109 33.4063 53.8636 33.356C54.2163 33.3056 62.1772 32.7513 61.9757 33.356Z" fill="#FFDF66"/>
</g>
<g style="mix-blend-mode:multiply" opacity="0.4">
<path d="M64.6434 33.2042C64.0891 34.5142 62.5272 37.89 62.2753 37.89C61.9729 37.9404 61.0156 38.0412 61.0156 37.6381C61.0156 36.9831 62.7791 33.2545 63.1822 33.1538C63.5853 33.1034 64.7945 32.8515 64.6434 33.2042Z" fill="#FFDF66"/>
</g>
<g style="mix-blend-mode:multiply" opacity="0.37">
<path d="M61.9735 38.3437C62.0239 38.7468 60.462 40.9133 60.21 41.0645C59.9581 41.2156 54.718 42.9287 54.3653 42.6768C54.0126 42.4249 53.8615 38.0414 54.1134 37.8902C54.4157 37.7894 61.9231 37.8902 61.9735 38.3437Z" fill="url(#paint29_linear_525_1837)"/>
</g>
<path opacity="0.5" d="M57.2855 32.9521C57.2855 32.9521 56.3282 37.9907 56.5298 42.6765L53.8593 43.4827L53.3555 32.9521H57.2855Z" fill="#DE5634"/>
<path d="M44.5405 14.4606C44.4397 14.3598 49.6798 9.42203 49.6798 9.42203C55.1718 8.91817 59.0515 9.47241 59.0515 9.47241L53.6603 19.8014L44.5405 14.4606Z" fill="url(#paint30_linear_525_1837)"/>
<path d="M57.9927 11.4372C57.9927 11.4372 51.7449 11.2356 50.9892 11.3868L48.1172 16.5261L48.4699 16.7276C48.4699 16.7276 50.9388 11.941 51.2915 11.7899C51.6442 11.6387 57.8416 11.7899 57.8416 11.7899L57.9927 11.4372Z" fill="#B33114"/>
<path d="M57.8404 11.7397H51.4414C51.4414 11.7397 52.953 11.8909 54.5653 11.9413C56.1776 11.9917 57.8404 11.7397 57.8404 11.7397Z" fill="white"/>
<g style="mix-blend-mode:multiply" opacity="0.37">
<path d="M57.2385 11.9917C55.8277 11.7901 52.3007 11.9413 52.1495 12.2436C51.9984 12.5963 50.0333 16.4256 50.386 17.0806C50.7387 17.7356 53.258 19.3983 53.4596 19.1464C53.7115 18.8945 57.8935 12.0924 57.2385 11.9917Z" fill="url(#paint31_linear_525_1837)"/>
</g>
<g style="mix-blend-mode:multiply" opacity="0.37">
<path d="M58.6453 9.72428C57.2345 9.62351 53.5564 9.42197 53.3548 9.6739C53.2037 9.92583 52.6494 10.6816 53.0021 10.8832C53.5564 11.1855 57.688 11.3366 57.9903 11.0343C58.1918 10.6816 58.998 9.72428 58.6453 9.72428Z" fill="url(#paint32_linear_525_1837)"/>
</g>
<g style="mix-blend-mode:multiply" opacity="0.4">
<path d="M52.8529 9.67467C52.5002 9.42274 49.8801 9.82582 49.6282 9.97698C49.3763 10.1281 45.4462 13.9574 45.4966 14.4109C45.547 14.814 49.3763 17.0309 49.6282 16.8294C49.8297 16.6279 53.2056 9.97698 52.8529 9.67467Z" fill="#FFDF66"/>
</g>
<g style="mix-blend-mode:multiply" opacity="0.5">
<path d="M54.3138 18.4914C54.3138 18.4914 50.0311 15.4179 45.9499 13.0498L44.5391 14.511L53.6084 19.8518L54.3138 18.4914Z" fill="#DE5634"/>
</g>
<path d="M27.1048 14.4606C27.2055 14.3598 21.9654 9.42203 21.9654 9.42203C16.4734 8.91817 12.5938 9.47241 12.5938 9.47241L17.985 19.8014L27.1048 14.4606Z" fill="url(#paint33_linear_525_1837)"/>
<path d="M13.6055 11.4372C13.6055 11.4372 19.8533 11.2356 20.609 11.3868L23.481 16.5261L23.1283 16.7276C23.1283 16.7276 20.6594 11.941 20.3067 11.7899C19.954 11.6387 13.7566 11.7899 13.7566 11.7899L13.6055 11.4372Z" fill="#B33114"/>
<path d="M13.8047 11.7397H20.3548C20.3548 11.7397 18.4402 11.8405 16.8278 11.8405C15.2155 11.9413 13.8047 11.7397 13.8047 11.7397Z" fill="white"/>
<g style="mix-blend-mode:multiply" opacity="0.37">
<path d="M14.3625 11.9917C15.7733 11.7901 19.3003 11.9413 19.4514 12.2436C19.6026 12.5963 21.5676 16.4256 21.2149 17.0806C20.8622 17.7356 18.343 19.3983 18.1414 19.1464C17.8895 18.8945 13.7075 12.0924 14.3625 11.9917Z" fill="url(#paint34_linear_525_1837)"/>
</g>
<g style="mix-blend-mode:multiply" opacity="0.37">
<path d="M12.9984 9.72428C14.4092 9.62351 18.0873 9.42197 18.2889 9.6739C18.44 9.92583 18.9943 10.6816 18.6416 10.8832C18.0873 11.1855 13.9557 11.3366 13.6534 11.0343C13.4015 10.6816 12.6457 9.72428 12.9984 9.72428Z" fill="url(#paint35_linear_525_1837)"/>
</g>
<g style="mix-blend-mode:multiply" opacity="0.4">
<path d="M18.7446 9.67467C19.0973 9.42274 21.7173 9.82582 21.9692 9.97698C22.2212 10.1281 26.1512 13.9574 26.1008 14.4109C26.0504 14.814 22.2212 17.0309 21.9692 16.8294C21.7677 16.6279 18.3919 9.97698 18.7446 9.67467Z" fill="#FFDF66"/>
</g>
<g style="mix-blend-mode:multiply" opacity="0.5">
<path d="M17.332 18.4914C17.332 18.4914 21.6148 15.4179 25.696 13.0498L27.1068 14.511L18.0374 19.8518L17.332 18.4914Z" fill="#DE5634"/>
</g>
<path d="M35.8777 8.6665L16.832 19.6505V45.9014L35.8777 56.9358L54.9234 45.9014V19.6505L35.8777 8.6665Z" fill="url(#paint36_linear_525_1837)"/>
<path d="M20.2578 43.9363V21.666L35.8773 12.647L51.4968 21.666V43.9363L35.8773 52.9553L20.2578 43.9363Z" fill="url(#paint37_linear_525_1837)"/>
<path d="M21.418 43.2814V22.321L35.8786 13.957L50.3392 22.321V43.2814L35.8786 51.595L21.418 43.2814Z" fill="url(#paint38_linear_525_1837)"/>
<path opacity="0.4" d="M17.2867 19.7514C17.0347 20.4568 19.1005 21.3133 20.5113 21.011C21.9221 20.7087 35.3751 12.8485 35.6774 12.1432C35.7781 11.9416 35.7781 9.17041 35.6774 9.17041C35.2239 9.17041 17.3874 19.3987 17.2867 19.7514Z" fill="#FFDF66"/>
<path opacity="0.4" d="M54.3685 19.7515C54.6204 20.4568 52.5546 21.3134 51.1438 21.0111C49.733 20.7088 36.4313 12.7479 35.9778 12.0929C35.7259 11.7905 35.6755 9.12012 35.9778 9.12012C36.4817 9.1705 54.2677 19.3988 54.3685 19.7515Z" fill="#FFDF66"/>
<g style="mix-blend-mode:multiply" opacity="0.37">
<path d="M17.2864 34.6649C17.1352 35.4711 16.8329 45.397 17.2864 45.4474C17.7398 45.5481 19.8057 44.087 19.9064 43.432C20.0072 42.7769 20.0576 35.9749 19.9064 35.3199C19.7553 34.7153 17.4879 33.3549 17.2864 34.6649Z" fill="url(#paint39_linear_525_1837)"/>
</g>
<g style="mix-blend-mode:multiply" opacity="0.37">
<path d="M54.4186 34.6649C54.5697 35.4711 54.872 45.397 54.4186 45.4474C53.9651 45.5481 51.8993 44.087 51.7985 43.432C51.6978 42.7769 51.6474 35.9749 51.7985 35.3199C51.9497 34.7153 54.217 33.3549 54.4186 34.6649Z" fill="url(#paint40_linear_525_1837)"/>
</g>
<g style="mix-blend-mode:multiply" opacity="0.37">
<path d="M17.739 45.7501C17.9909 46.1028 35.1219 56.2303 35.3739 56.2303C35.525 56.2303 35.6762 53.711 35.6762 53.4087C35.6762 52.6025 20.5102 44.5408 20.2078 44.4904C19.8551 44.3897 17.5374 45.3974 17.739 45.7501Z" fill="url(#paint41_linear_525_1837)"/>
</g>
<g style="mix-blend-mode:multiply" opacity="0.37">
<path d="M54.0172 46.0019C53.8157 46.3546 36.3319 56.4317 36.08 56.4317C36.0296 56.4317 36.0296 53.3078 36.1304 53.1566C36.6846 52.6024 51.1452 44.5407 51.4475 44.4399C51.8002 44.3896 54.2691 45.6492 54.0172 46.0019Z" fill="url(#paint42_linear_525_1837)"/>
</g>
<path opacity="0.37" d="M22.0692 42.727C21.0615 36.9327 21.6158 36.58 28.8209 34.1111C36.026 31.6422 48.2193 25.344 49.2774 28.0649C50.3355 30.7857 49.9828 42.4751 49.7308 43.1301C49.4789 43.7851 36.9329 50.9902 35.8748 50.9902C34.8167 50.9902 22.17 43.382 22.0692 42.727Z" fill="#ED8A1D"/>
<g style="mix-blend-mode:soft-light" opacity="0.4">
<path d="M50.0334 22.4716C49.7815 22.4213 36.7317 14.8634 35.9759 14.9138C35.2705 14.9642 26.1507 19.247 22.4222 22.4213C21.4145 23.2778 21.7672 36.0757 22.7245 35.8742C23.6314 35.6222 24.3368 30.4829 34.4643 27.5606C44.4406 24.6886 48.7738 27.1575 49.8319 27.611C50.1342 27.7117 50.5877 22.6228 50.0334 22.4716Z" fill="#FFDF66"/>
</g>
<path opacity="0.5" d="M20.2578 43.9363V21.666L35.8773 12.647L51.4968 21.666V43.9363L50.3379 43.2813C50.3379 43.2813 50.3883 23.9333 49.9852 23.3287C48.5241 21.1621 36.9354 15.8716 35.0711 16.4763C33.1565 17.0809 22.8779 21.4644 21.719 23.2783C21.3159 23.8829 21.4167 43.2813 21.4167 43.2813L20.2578 43.9363Z" fill="#DE5634"/>
<path opacity="0.4" d="M38.8001 24.689C42.6798 26.4525 48.5749 26.5029 49.0787 26.1502C49.633 25.7975 49.9856 23.3286 49.1291 22.8751C48.2725 22.472 41.6217 18.8946 39.8582 19.2977C38.0947 19.7008 38.0947 24.3867 38.8001 24.689Z" fill="#FFDF66"/>
<g style="mix-blend-mode:soft-light" opacity="0.8">
<path d="M16.832 27.6618C16.832 27.6114 16.9832 20.2552 17.2855 19.7513C17.5878 19.2475 35.4747 9.32152 35.9785 9.17036C36.4824 9.0192 43.1836 12.8989 43.1836 12.8989L35.8777 8.6665L16.832 19.6505V27.6618Z" fill="#700000"/>
</g>
<g style="mix-blend-mode:soft-light">
<path d="M42.6797 16.5767C42.6797 16.5767 51.0437 21.3633 51.1444 21.8671C51.2452 22.4214 51.4468 36.7812 51.4468 36.7812C51.4468 36.7812 51.5475 22.2198 51.4468 21.6152C51.3964 21.061 42.6797 16.5767 42.6797 16.5767Z" fill="white"/>
</g>
<g style="mix-blend-mode:multiply">
<path d="M20.2599 33.8593C20.2599 33.8593 19.9576 21.8171 20.1087 21.414C20.2599 21.011 35.8794 12.647 35.8794 12.647C35.8794 12.647 20.8141 21.2629 20.5118 21.8171C20.2095 22.321 20.2599 33.8593 20.2599 33.8593Z" fill="white"/>
</g>
<path opacity="0.8" d="M16.8277 45.9015L35.8734 56.9359L54.9191 45.9015V39.956C54.9191 39.956 54.768 45.1961 54.3649 45.8511C53.9618 46.5061 36.8811 56.432 36.0246 56.4824C35.168 56.5328 17.6843 46.2038 17.2308 45.4984C16.7773 44.793 16.7773 32.5493 16.7773 32.5493V45.9015H16.8277Z" fill="#700000"/>
<path opacity="0.4" d="M20.257 38.2432C20.257 38.2432 20.2066 43.3825 20.5089 43.836C20.8112 44.2894 28.2179 48.5218 28.2179 48.5218C28.2179 48.5218 20.1562 44.3398 20.1058 44.0879C20.0051 43.836 20.257 38.2432 20.257 38.2432Z" fill="#FFDF66"/>
<g style="mix-blend-mode:multiply" opacity="0.4">
<path d="M26.7039 48.6221C26.1497 48.6221 24.5877 49.2771 24.89 49.6298C25.142 49.9321 34.6144 55.676 35.6725 56.0791C36.0252 56.2303 35.9748 53.9629 35.5214 53.2575C35.3702 52.9048 28.4674 48.6221 26.7039 48.6221Z" fill="#FFDF66"/>
</g>
<g style="mix-blend-mode:soft-light">
<path d="M43.8329 14.0073C43.5305 14.1081 44.5383 15.3677 45.0421 15.5189C45.546 15.6196 46.201 15.2669 45.949 15.0654C45.7475 14.8135 44.2863 13.8561 43.8329 14.0073Z" fill="white"/>
</g>
<g style="mix-blend-mode:soft-light">
<path d="M46.1099 15.2669C45.6564 15.3677 46.5129 17.4335 46.8656 17.7862C47.2183 18.1389 50.4934 18.7939 50.443 18.1893C50.3926 17.5846 46.7649 15.1157 46.1099 15.2669Z" fill="white"/>
</g>
<g style="mix-blend-mode:multiply" opacity="0.5">
<path d="M44.6948 48.6728C44.2917 50.4867 44.3421 51.5448 44.594 51.5448C44.846 51.5448 53.1596 46.5566 53.4115 46.3047C53.6634 46.1032 52.0511 44.642 51.4465 44.7428C50.7411 44.8435 44.846 47.9674 44.6948 48.6728Z" fill="#DE5634"/>
</g>
<path opacity="0.5" d="M21.2672 22.1695C21.0656 21.5649 20.461 21.5649 20.4106 22.2199C20.3603 22.8749 20.2595 35.3705 20.5114 35.3705C20.7633 35.3705 21.2672 34.7659 21.3176 34.514C21.3176 34.262 21.368 22.4718 21.2672 22.1695Z" fill="#DE5634"/>
<path opacity="0.5" d="M50.49 22.2204C50.4396 22.4723 50.3388 34.2625 50.49 34.2625C50.6411 34.2625 51.3465 33.7083 51.3465 33.4059C51.3465 33.1036 51.1954 21.9684 51.0946 21.918C50.9938 21.8677 50.49 22.0692 50.49 22.2204Z" fill="#DE5634"/>
<path opacity="0.5" d="M35.8739 13.7548C35.8739 14.0067 29.1726 17.836 29.0215 17.836C28.8703 17.836 28.9207 16.7779 29.1223 16.6771C29.3238 16.526 35.8235 12.6463 35.8739 12.747C35.9243 12.8478 35.8739 13.5532 35.8739 13.7548Z" fill="#DE5634"/>
<path d="M33.9153 13.6549C32.9076 13.4029 32.0511 14.0579 31.5976 14.5618C31.1441 15.0656 31.396 15.368 31.9503 15.2672C32.5549 15.1664 34.3688 13.7556 33.9153 13.6549Z" fill="#B33114"/>
<path opacity="0.5" d="M33.9124 13.6549C33.207 13.4029 32.3504 13.8564 32.0481 14.1083C31.7962 14.3603 32.3 15.0657 32.7031 14.9145C33.1062 14.7634 34.2147 13.7556 33.9124 13.6549Z" fill="#DE5634"/>
<path opacity="0.4" d="M31.8455 14.2598C31.8455 14.2598 30.6867 15.0155 30.8378 15.4186C30.989 15.7713 32.3494 15.1163 32.3494 15.1163C32.3494 15.1163 31.644 15.3682 31.4424 15.0155C31.2913 14.7132 31.8455 14.2598 31.8455 14.2598Z" fill="#FFDF66"/>
<g style="mix-blend-mode:multiply">
<path d="M20.9116 44.087C20.3574 44.2382 21.9697 45.3467 22.3728 45.3971C22.7759 45.4474 22.3728 44.4901 22.1712 44.2886C22.0705 44.1878 21.2139 43.9863 20.9116 44.087Z" fill="white"/>
</g>
<path d="M35.8729 45.1456L16.1722 33.6577C15.4164 35.3708 15.2148 37.0335 15.2148 37.0335L16.4745 39.2001L35.8225 50.4361L55.1705 39.2001L56.3294 37.0335C56.3294 37.0335 56.3294 35.4212 55.624 33.6577L35.8729 45.1456Z" fill="url(#paint43_linear_525_1837)"/>
<path d="M16.5292 39.2003L15.2695 37.0337L35.8772 49.1262L56.3841 37.0337L55.1748 39.2003L35.8772 50.4362L16.5292 39.2003Z" fill="url(#paint44_linear_525_1837)"/>
<path opacity="0.5" d="M15.2695 37.0337L16.5292 39.2003L16.8315 39.4018V40.0568C16.8315 40.0568 17.94 40.6111 20.1065 41.8203C20.1569 41.8707 21.4669 43.2311 21.4669 43.2311C21.4669 43.2311 35.3733 51.6455 35.8772 51.6455C36.5322 51.6455 50.3378 43.0296 50.3378 43.0296C50.3378 43.0296 51.3959 42.1226 51.4967 42.0722L54.9229 40.3087V39.4018L55.1748 39.2507L56.3337 37.0841L35.8268 49.1766L15.2695 37.0337Z" fill="#DE5634"/>
<g style="mix-blend-mode:soft-light" opacity="0.69">
<path d="M35.8789 45.1456V49.1261L56.3858 37.0335C56.3858 37.0335 56.285 35.0685 55.6804 33.6577L35.8789 45.1456Z" fill="url(#paint45_linear_525_1837)"/>
</g>
<g style="mix-blend-mode:multiply" opacity="0.4">
<path d="M17.1865 34.5649C16.8338 34.5649 17.1361 37.8904 18.2446 38.6462C20.0585 39.8554 30.9921 46.3048 31.7479 46.3048C32.2517 46.3048 32.2014 43.4832 32.0502 43.2816C31.7983 42.8785 17.7911 34.5649 17.1865 34.5649Z" fill="#FFDF66"/>
</g>
<g style="mix-blend-mode:multiply" opacity="0.4">
<path d="M41.9743 41.7199C41.7224 41.9718 41.7728 45.0957 42.1758 44.9949C42.5789 44.8941 48.7763 41.6191 51.6987 39.4525C54.6211 37.2859 55.0241 34.4644 54.3691 34.5651C54.3187 34.5651 42.4278 41.216 41.9743 41.7199Z" fill="#FFDF66"/>
</g>
<path d="M35.726 20.1542L55.4268 31.6421C56.1825 29.929 56.3841 28.2663 56.3841 28.2663L55.1244 26.0997L35.726 14.8638L16.4284 26.0997L15.2695 28.2663C15.2695 28.2663 15.2695 29.8786 15.9749 31.6421L35.726 20.1542Z" fill="url(#paint46_linear_525_1837)"/>
<path d="M55.0741 26.0997L56.3841 28.2663L35.726 16.2242L15.2695 28.2663L16.4284 26.0997L35.726 14.8638L55.0741 26.0997Z" fill="url(#paint47_linear_525_1837)"/>
<path opacity="0.6" d="M50.2837 31.1378L51.4929 30.3317L54.9191 32.2463V31.3898C54.9191 31.3898 53.5587 30.5332 51.3922 29.324C51.3418 29.2736 50.2333 28.6186 50.2333 28.6186C50.2333 28.6186 36.3269 20.1538 35.8231 20.1538C35.168 20.1538 21.3624 28.5178 21.3624 28.5178C21.3624 28.5178 20.3043 29.072 20.2036 29.1224L16.8277 31.0875L16.7773 32.4479L20.3547 30.1301L21.4128 31.1882L35.8231 22.6731L50.2837 31.1378Z" fill="#DE5634"/>
<path opacity="0.4" d="M35.7217 20.1538V16.1733L15.2148 28.2659C15.2148 28.2659 15.3156 30.2309 15.9202 31.6417L35.7217 20.1538Z" fill="#FFDF66"/>
<g style="mix-blend-mode:soft-light" opacity="0.69">
<path d="M54.4169 30.7852C54.7696 30.7852 54.4673 27.4598 53.3588 26.704C51.545 25.4948 40.6113 19.0454 39.8555 19.0454C39.3517 19.0454 39.4021 21.867 39.5532 22.0685C39.8052 22.4716 53.8627 30.7852 54.4169 30.7852Z" fill="url(#paint48_linear_525_1837)"/>
</g>
<g style="mix-blend-mode:soft-light" opacity="0.4">
<path d="M29.6772 23.5802C29.9291 23.3282 29.8788 20.2043 29.4757 20.3051C29.0726 20.4059 22.8752 23.6809 19.9528 25.8475C17.0305 28.0141 16.6274 30.8357 17.2824 30.7349C17.2824 30.7853 29.1734 24.084 29.6772 23.5802Z" fill="#FFDF66"/>
</g>
<g style="mix-blend-mode:soft-light">
<path d="M45.756 22.0695C45.756 22.0695 36.3339 16.4263 35.7292 16.4263C35.1246 16.4263 27.6172 21.0114 27.6172 21.0114C27.6172 21.0114 35.5277 16.0233 35.7292 16.0233C35.8804 15.9729 45.756 22.0695 45.756 22.0695Z" fill="white"/>
</g>
<path opacity="0.5" d="M28.7751 12.7473C28.7751 12.7473 28.624 13.7047 28.6743 13.8558C28.7247 14.007 30.0348 16.0224 30.0348 16.0224V17.3324L35.9802 22.8748L41.825 17.534L42.0769 16.2239C42.0769 16.2239 43.3869 14.1581 43.3869 13.8558C43.3869 13.5535 42.1776 12.2435 42.1776 12.2435L35.9299 8.61572L28.7751 12.7473Z" fill="#DE5634"/>
<path d="M42.8255 13.4026L36.0235 4.03085L35.9731 3.98047L35.9227 4.03085L29.1207 13.4026L29.0703 13.4529L29.1207 13.5033L35.9227 22.8246V22.9254L35.9731 22.875L36.0235 22.9254V22.8246L42.8255 13.4026Z" fill="url(#paint49_linear_525_1837)"/>
<path opacity="0.5" d="M30.5312 13.4033L35.9729 5.94629L41.4145 13.4033L35.9729 20.9108L30.5312 13.4033Z" fill="#DE5634"/>
<path d="M30.7852 13.4026L35.9749 6.34863L41.1142 13.4026L35.9749 20.5069L30.7852 13.4026Z" fill="url(#paint50_linear_525_1837)"/>
<g style="mix-blend-mode:soft-light" opacity="0.4">
<path d="M35.8737 4.48427C35.2691 5.0889 29.4747 12.949 29.5755 13.1506C29.6763 13.3521 31.9436 13.3521 36.3272 13.3017C40.6603 13.2513 42.4742 13.2513 42.5246 13.1506C42.5246 13.0498 35.9745 4.3835 35.8737 4.48427Z" fill="#FFDF66"/>
</g>
<g style="mix-blend-mode:soft-light" opacity="0.37">
<path d="M29.4231 13.4529C29.3223 13.8056 35.6709 22.4215 36.0739 22.3207C36.477 22.1696 42.7248 13.6544 42.3217 13.4025C41.8683 13.201 29.4734 13.1506 29.4231 13.4529Z" fill="url(#paint51_linear_525_1837)"/>
</g>
<g style="mix-blend-mode:multiply">
<path d="M38.046 31.6421C37.6933 31.9444 37.9956 32.146 37.9956 32.146L39.8599 31.6421C39.8599 31.6421 38.8521 30.9367 38.046 31.6421Z" fill="white"/>
</g>
<g style="mix-blend-mode:multiply" opacity="0.5">
<path d="M31.3412 46.5052L30.5351 48.5206L29.5273 49.5283V53.3073L35.8759 56.935L42.678 53.0049L42.5268 49.4276L41.4183 48.4199L40.7129 46.4044L35.8759 42.0713L31.3412 46.5052Z" fill="#DE5634"/>
</g>
<path d="M42.8255 50.9904L36.0235 41.6187L35.9731 41.5684L35.9227 41.6187L29.1207 50.9401L29.0703 50.9904L29.1207 51.0408L35.9227 60.3621V60.4629L35.9731 60.4125L36.0235 60.4629V60.3621L42.8255 50.9904Z" fill="url(#paint52_linear_525_1837)"/>
<path opacity="0.5" d="M30.5312 50.9899L35.9729 43.4824L41.4145 50.9899L35.9729 58.4469L30.5312 50.9899Z" fill="#DE5634"/>
<path d="M30.7852 50.9901L35.9749 43.8857L41.1142 50.9901L35.9749 58.0441L30.7852 50.9901Z" fill="url(#paint53_linear_525_1837)"/>
<g style="mix-blend-mode:multiply" opacity="0.4">
<path d="M35.8737 42.0717C35.2691 42.6763 29.4747 50.5364 29.5755 50.738C29.6763 50.9395 31.9436 50.9395 36.3272 50.8891C40.6603 50.8387 42.4742 50.8387 42.5246 50.738C42.5246 50.5868 35.9745 41.9709 35.8737 42.0717Z" fill="#FFDF66"/>
</g>
<g style="mix-blend-mode:multiply" opacity="0.37">
<path d="M29.4231 50.9905C29.3223 51.3432 35.6709 59.9591 36.0739 59.8583C36.477 59.7072 42.7248 51.192 42.3217 50.9905C41.8683 50.7386 29.4734 50.6882 29.4231 50.9905Z" fill="url(#paint54_linear_525_1837)"/>
</g>
<g filter="url(#filter0_d_525_1837)">
<path d="M36.7477 25.1924H31.7422V40.8119H39.7213V38.2456H42.3231V31.83L36.7477 25.1924ZM39.7213 38.221H34.3441V27.7833H35.5335L39.7213 32.7677V38.221Z" fill="url(#paint55_linear_525_1837)"/>
</g>
<defs>
<filter id="filter0_d_525_1837" x="27.7422" y="25.1924" width="18.582" height="23.6196" filterUnits="userSpaceOnUse" color-interpolation-filters="sRGB">
<feFlood flood-opacity="0" result="BackgroundImageFix"/>
<feColorMatrix in="SourceAlpha" type="matrix" values="0 0 0 0 0 0 0 0 0 0 0 0 0 0 0 0 0 0 127 0" result="hardAlpha"/>
<feOffset dy="4"/>
<feGaussianBlur stdDeviation="2"/>
<feComposite in2="hardAlpha" operator="out"/>
<feColorMatrix type="matrix" values="0 0 0 0 0.498039 0 0 0 0 0.0196078 0 0 0 0 0.0196078 0 0 0 0.5 0"/>
<feBlend mode="normal" in2="BackgroundImageFix" result="effect1_dropShadow_525_1837"/>
<feBlend mode="normal" in="SourceGraphic" in2="effect1_dropShadow_525_1837" result="shape"/>
</filter>
<linearGradient id="paint0_linear_525_1837" x1="14.0879" y1="47.8595" x2="22.6723" y2="47.8595" gradientUnits="userSpaceOnUse">
<stop stop-color="#DE3C14"/>
<stop offset="0.0736727" stop-color="#C72E10"/>
<stop offset="0.1852" stop-color="#AB1C0C"/>
<stop offset="0.2972" stop-color="#971009"/>
<stop offset="0.409" stop-color="#8B0807"/>
<stop offset="0.5205" stop-color="#870606"/>
<stop offset="0.6152" stop-color="#8C0707"/>
<stop offset="0.727" stop-color="#9A0808"/>
<stop offset="0.8475" stop-color="#B20B0B"/>
<stop offset="0.9732" stop-color="#D30E0E"/>
<stop offset="1" stop-color="#DB0F0F"/>
</linearGradient>
<linearGradient id="paint1_linear_525_1837" x1="14.2411" y1="52.0885" x2="22.1354" y2="52.0885" gradientUnits="userSpaceOnUse">
<stop stop-color="#FFA933"/>
<stop offset="0.0524895" stop-color="#FFB030"/>
<stop offset="0.182" stop-color="#FFBA2C"/>
<stop offset="0.3393" stop-color="#FFBD2B"/>
<stop offset="0.3449" stop-color="#FEBB2B"/>
<stop offset="0.4289" stop-color="#EB9E2E"/>
<stop offset="0.5184" stop-color="#DC8731"/>
<stop offset="0.6154" stop-color="#D27733"/>
<stop offset="0.7248" stop-color="#CC6E34"/>
<stop offset="0.873" stop-color="#CA6B34"/>
<stop offset="0.9227" stop-color="#E39130"/>
<stop offset="0.9725" stop-color="#F7B12C"/>
<stop offset="1" stop-color="#FFBD2B"/>
</linearGradient>
<linearGradient id="paint2_linear_525_1837" x1="18.2546" y1="69.223" x2="18.2546" y2="58.8223" gradientUnits="userSpaceOnUse">
<stop stop-color="white"/>
<stop offset="1" stop-color="#B41E2D"/>
</linearGradient>
<linearGradient id="paint3_linear_525_1837" x1="48.9654" y1="47.7844" x2="57.1963" y2="47.7844" gradientUnits="userSpaceOnUse">
<stop stop-color="#DE3C14"/>
<stop offset="0.0736727" stop-color="#C72E10"/>
<stop offset="0.1852" stop-color="#AB1C0C"/>
<stop offset="0.2972" stop-color="#971009"/>
<stop offset="0.409" stop-color="#8B0807"/>
<stop offset="0.5205" stop-color="#870606"/>
<stop offset="0.6152" stop-color="#8C0707"/>
<stop offset="0.727" stop-color="#9A0808"/>
<stop offset="0.8475" stop-color="#B20B0B"/>
<stop offset="0.9732" stop-color="#D30E0E"/>
<stop offset="1" stop-color="#DB0F0F"/>
</linearGradient>
<linearGradient id="paint4_linear_525_1837" x1="49.3044" y1="52.0885" x2="57.1987" y2="52.0885" gradientUnits="userSpaceOnUse">
<stop stop-color="#FFA933"/>
<stop offset="0.0524895" stop-color="#FFB030"/>
<stop offset="0.182" stop-color="#FFBA2C"/>
<stop offset="0.3393" stop-color="#FFBD2B"/>
<stop offset="0.3449" stop-color="#FEBB2B"/>
<stop offset="0.4289" stop-color="#EB9E2E"/>
<stop offset="0.5184" stop-color="#DC8731"/>
<stop offset="0.6154" stop-color="#D27733"/>
<stop offset="0.7248" stop-color="#CC6E34"/>
<stop offset="0.873" stop-color="#CA6B34"/>
<stop offset="0.9227" stop-color="#E39130"/>
<stop offset="0.9725" stop-color="#F7B12C"/>
<stop offset="1" stop-color="#FFBD2B"/>
</linearGradient>
<linearGradient id="paint5_linear_525_1837" x1="53.0809" y1="69.223" x2="53.0809" y2="58.8223" gradientUnits="userSpaceOnUse">
<stop stop-color="white"/>
<stop offset="1" stop-color="#B41E2D"/>
</linearGradient>
<linearGradient id="paint6_linear_525_1837" x1="21.1377" y1="57.2686" x2="33.6714" y2="57.2686" gradientUnits="userSpaceOnUse">
<stop stop-color="#DE3C14"/>
<stop offset="0.0736727" stop-color="#C72E10"/>
<stop offset="0.1852" stop-color="#AB1C0C"/>
<stop offset="0.2972" stop-color="#971009"/>
<stop offset="0.409" stop-color="#8B0807"/>
<stop offset="0.5205" stop-color="#870606"/>
<stop offset="0.6152" stop-color="#8C0707"/>
<stop offset="0.727" stop-color="#9A0808"/>
<stop offset="0.8475" stop-color="#B20B0B"/>
<stop offset="0.9732" stop-color="#D30E0E"/>
<stop offset="1" stop-color="#DB0F0F"/>
</linearGradient>
<linearGradient id="paint7_linear_525_1837" x1="21.1412" y1="60.5059" x2="33.6749" y2="60.5059" gradientUnits="userSpaceOnUse">
<stop stop-color="#FFA933"/>
<stop offset="0.0524895" stop-color="#FFB030"/>
<stop offset="0.182" stop-color="#FFBA2C"/>
<stop offset="0.3393" stop-color="#FFBD2B"/>
<stop offset="0.3449" stop-color="#FEBB2B"/>
<stop offset="0.4289" stop-color="#EB9E2E"/>
<stop offset="0.5184" stop-color="#DC8731"/>
<stop offset="0.6154" stop-color="#D27733"/>
<stop offset="0.7248" stop-color="#CC6E34"/>
<stop offset="0.873" stop-color="#CA6B34"/>
<stop offset="0.9227" stop-color="#E39130"/>
<stop offset="0.9725" stop-color="#F7B12C"/>
<stop offset="1" stop-color="#FFBD2B"/>
</linearGradient>
<linearGradient id="paint8_linear_525_1837" x1="37.9278" y1="57.2686" x2="50.4614" y2="57.2686" gradientUnits="userSpaceOnUse">
<stop stop-color="#DE3C14"/>
<stop offset="0.0736727" stop-color="#C72E10"/>
<stop offset="0.1852" stop-color="#AB1C0C"/>
<stop offset="0.2972" stop-color="#971009"/>
<stop offset="0.409" stop-color="#8B0807"/>
<stop offset="0.5205" stop-color="#870606"/>
<stop offset="0.6152" stop-color="#8C0707"/>
<stop offset="0.727" stop-color="#9A0808"/>
<stop offset="0.8475" stop-color="#B20B0B"/>
<stop offset="0.9732" stop-color="#D30E0E"/>
<stop offset="1" stop-color="#DB0F0F"/>
</linearGradient>
<linearGradient id="paint9_linear_525_1837" x1="37.9278" y1="60.5059" x2="50.4614" y2="60.5059" gradientUnits="userSpaceOnUse">
<stop stop-color="#FFA933"/>
<stop offset="0.0524895" stop-color="#FFB030"/>
<stop offset="0.182" stop-color="#FFBA2C"/>
<stop offset="0.3393" stop-color="#FFBD2B"/>
<stop offset="0.3449" stop-color="#FEBB2B"/>
<stop offset="0.4289" stop-color="#EB9E2E"/>
<stop offset="0.5184" stop-color="#DC8731"/>
<stop offset="0.6154" stop-color="#D27733"/>
<stop offset="0.7248" stop-color="#CC6E34"/>
<stop offset="0.873" stop-color="#CA6B34"/>
<stop offset="0.9227" stop-color="#E39130"/>
<stop offset="0.9725" stop-color="#F7B12C"/>
<stop offset="1" stop-color="#FFBD2B"/>
</linearGradient>
<linearGradient id="paint10_linear_525_1837" x1="27.4045" y1="69.2237" x2="27.4045" y2="58.8229" gradientUnits="userSpaceOnUse">
<stop stop-color="white"/>
<stop offset="1" stop-color="#B41E2D"/>
</linearGradient>
<linearGradient id="paint11_linear_525_1837" x1="44.1989" y1="69.2231" x2="44.1989" y2="58.8223" gradientUnits="userSpaceOnUse">
<stop stop-color="white"/>
<stop offset="1" stop-color="#B41E2D"/>
</linearGradient>
<linearGradient id="paint12_linear_525_1837" x1="54.6248" y1="35.7893" x2="54.6243" y2="26.3604" gradientUnits="userSpaceOnUse">
<stop stop-color="#CA6B34"/>
<stop offset="0.6667" stop-color="#FFA933"/>
<stop offset="1" stop-color="#FFBD2B"/>
</linearGradient>
<linearGradient id="paint13_linear_525_1837" x1="60.0055" y1="28.6124" x2="65.9234" y2="28.6124" gradientUnits="userSpaceOnUse">
<stop stop-color="#DE3C14"/>
<stop offset="0.0736727" stop-color="#C72E10"/>
<stop offset="0.1852" stop-color="#AB1C0C"/>
<stop offset="0.2972" stop-color="#971009"/>
<stop offset="0.409" stop-color="#8B0807"/>
<stop offset="0.5205" stop-color="#870606"/>
<stop offset="0.6152" stop-color="#8C0707"/>
<stop offset="0.727" stop-color="#9A0808"/>
<stop offset="0.8475" stop-color="#B20B0B"/>
<stop offset="0.9732" stop-color="#D30E0E"/>
<stop offset="1" stop-color="#DB0F0F"/>
</linearGradient>
<linearGradient id="paint14_linear_525_1837" x1="16.9856" y1="35.7894" x2="16.9861" y2="26.3604" gradientUnits="userSpaceOnUse">
<stop stop-color="#CA6B34"/>
<stop offset="0.6667" stop-color="#FFA933"/>
<stop offset="1" stop-color="#FFBD2B"/>
</linearGradient>
<linearGradient id="paint15_linear_525_1837" x1="5.62113" y1="28.6353" x2="11.539" y2="28.6353" gradientUnits="userSpaceOnUse">
<stop stop-color="#DE3C14"/>
<stop offset="0.0736727" stop-color="#C72E10"/>
<stop offset="0.1852" stop-color="#AB1C0C"/>
<stop offset="0.2972" stop-color="#971009"/>
<stop offset="0.409" stop-color="#8B0807"/>
<stop offset="0.5205" stop-color="#870606"/>
<stop offset="0.6152" stop-color="#8C0707"/>
<stop offset="0.727" stop-color="#9A0808"/>
<stop offset="0.8475" stop-color="#B20B0B"/>
<stop offset="0.9732" stop-color="#D30E0E"/>
<stop offset="1" stop-color="#DB0F0F"/>
</linearGradient>
<linearGradient id="paint16_linear_525_1837" x1="57.6725" y1="29.84" x2="57.6721" y2="20.4111" gradientUnits="userSpaceOnUse">
<stop stop-color="#CA6B34"/>
<stop offset="0.6667" stop-color="#FFA933"/>
<stop offset="1" stop-color="#FFBD2B"/>
</linearGradient>
<linearGradient id="paint17_linear_525_1837" x1="63.2207" y1="22.6739" x2="69.1387" y2="22.6739" gradientUnits="userSpaceOnUse">
<stop stop-color="#DE3C14"/>
<stop offset="0.0736727" stop-color="#C72E10"/>
<stop offset="0.1852" stop-color="#AB1C0C"/>
<stop offset="0.2972" stop-color="#971009"/>
<stop offset="0.409" stop-color="#8B0807"/>
<stop offset="0.5205" stop-color="#870606"/>
<stop offset="0.6152" stop-color="#8C0707"/>
<stop offset="0.727" stop-color="#9A0808"/>
<stop offset="0.8475" stop-color="#B20B0B"/>
<stop offset="0.9732" stop-color="#D30E0E"/>
<stop offset="1" stop-color="#DB0F0F"/>
</linearGradient>
<linearGradient id="paint18_linear_525_1837" x1="13.7615" y1="29.8401" x2="13.7621" y2="20.4111" gradientUnits="userSpaceOnUse">
<stop stop-color="#CA6B34"/>
<stop offset="0.6667" stop-color="#FFA933"/>
<stop offset="1" stop-color="#FFBD2B"/>
</linearGradient>
<linearGradient id="paint19_linear_525_1837" x1="2.3688" y1="22.6918" x2="8.28667" y2="22.6918" gradientUnits="userSpaceOnUse">
<stop stop-color="#DE3C14"/>
<stop offset="0.0736727" stop-color="#C72E10"/>
<stop offset="0.1852" stop-color="#AB1C0C"/>
<stop offset="0.2972" stop-color="#971009"/>
<stop offset="0.409" stop-color="#8B0807"/>
<stop offset="0.5205" stop-color="#870606"/>
<stop offset="0.6152" stop-color="#8C0707"/>
<stop offset="0.727" stop-color="#9A0808"/>
<stop offset="0.8475" stop-color="#B20B0B"/>
<stop offset="0.9732" stop-color="#D30E0E"/>
<stop offset="1" stop-color="#DB0F0F"/>
</linearGradient>
<linearGradient id="paint20_linear_525_1837" x1="24.6713" y1="24.9842" x2="24.6713" y2="8.52255" gradientUnits="userSpaceOnUse">
<stop stop-color="#CA6B34"/>
<stop offset="0.6667" stop-color="#FFA933"/>
<stop offset="1" stop-color="#FFBD2B"/>
</linearGradient>
<linearGradient id="paint21_linear_525_1837" x1="22.8485" y1="19.8319" x2="22.8485" y2="4.31968" gradientUnits="userSpaceOnUse">
<stop stop-color="#CA6B34"/>
<stop offset="0.6667" stop-color="#FFA933"/>
<stop offset="1" stop-color="#FFBD2B"/>
</linearGradient>
<linearGradient id="paint22_linear_525_1837" x1="24.8847" y1="14.3616" x2="24.8847" y2="24.1239" gradientUnits="userSpaceOnUse">
<stop stop-color="#C10065"/>
<stop offset="1" stop-color="white"/>
</linearGradient>
<linearGradient id="paint23_linear_525_1837" x1="46.8967" y1="24.9842" x2="46.8967" y2="8.52255" gradientUnits="userSpaceOnUse">
<stop stop-color="#CA6B34"/>
<stop offset="0.6667" stop-color="#FFA933"/>
<stop offset="1" stop-color="#FFBD2B"/>
</linearGradient>
<linearGradient id="paint24_linear_525_1837" x1="48.7582" y1="19.8319" x2="48.7582" y2="4.31968" gradientUnits="userSpaceOnUse">
<stop stop-color="#CA6B34"/>
<stop offset="0.6667" stop-color="#FFA933"/>
<stop offset="1" stop-color="#FFBD2B"/>
</linearGradient>
<linearGradient id="paint25_linear_525_1837" x1="46.7194" y1="14.3616" x2="46.7194" y2="24.1239" gradientUnits="userSpaceOnUse">
<stop stop-color="#C10065"/>
<stop offset="1" stop-color="white"/>
</linearGradient>
<linearGradient id="paint26_linear_525_1837" x1="12.4118" y1="43.4525" x2="12.4118" y2="33.0423" gradientUnits="userSpaceOnUse">
<stop stop-color="#CA6B34"/>
<stop offset="0.6667" stop-color="#FFA933"/>
<stop offset="1" stop-color="#FFBD2B"/>
</linearGradient>
<linearGradient id="paint27_linear_525_1837" x1="13.6255" y1="37.8524" x2="13.6255" y2="42.7112" gradientUnits="userSpaceOnUse">
<stop stop-color="#C10065"/>
<stop offset="1" stop-color="white"/>
</linearGradient>
<linearGradient id="paint28_linear_525_1837" x1="59.1941" y1="43.4525" x2="59.1941" y2="33.0423" gradientUnits="userSpaceOnUse">
<stop stop-color="#CA6B34"/>
<stop offset="0.6667" stop-color="#FFA933"/>
<stop offset="1" stop-color="#FFBD2B"/>
</linearGradient>
<linearGradient id="paint29_linear_525_1837" x1="57.984" y1="37.8524" x2="57.984" y2="42.7112" gradientUnits="userSpaceOnUse">
<stop stop-color="#C10065"/>
<stop offset="1" stop-color="white"/>
</linearGradient>
<linearGradient id="paint30_linear_525_1837" x1="51.7702" y1="18.2827" x2="51.7702" y2="10.938" gradientUnits="userSpaceOnUse">
<stop stop-color="#CA6B34"/>
<stop offset="0.6667" stop-color="#FFA933"/>
<stop offset="1" stop-color="#FFBD2B"/>
</linearGradient>
<linearGradient id="paint31_linear_525_1837" x1="55.8894" y1="15.9185" x2="48.3872" y2="12.2461" gradientUnits="userSpaceOnUse">
<stop stop-color="#C10065"/>
<stop offset="1" stop-color="white"/>
</linearGradient>
<linearGradient id="paint32_linear_525_1837" x1="58.092" y1="11.4106" x2="50.5899" y2="7.73829" gradientUnits="userSpaceOnUse">
<stop stop-color="#C10065"/>
<stop offset="1" stop-color="white"/>
</linearGradient>
<linearGradient id="paint33_linear_525_1837" x1="19.8346" y1="18.2827" x2="19.8346" y2="10.938" gradientUnits="userSpaceOnUse">
<stop stop-color="#CA6B34"/>
<stop offset="0.6667" stop-color="#FFA933"/>
<stop offset="1" stop-color="#FFBD2B"/>
</linearGradient>
<linearGradient id="paint34_linear_525_1837" x1="15.7215" y1="15.9185" x2="23.2236" y2="12.2461" gradientUnits="userSpaceOnUse">
<stop stop-color="#C10065"/>
<stop offset="1" stop-color="white"/>
</linearGradient>
<linearGradient id="paint35_linear_525_1837" x1="13.5112" y1="11.4106" x2="21.0133" y2="7.73829" gradientUnits="userSpaceOnUse">
<stop stop-color="#C10065"/>
<stop offset="1" stop-color="white"/>
</linearGradient>
<linearGradient id="paint36_linear_525_1837" x1="35.8819" y1="57.751" x2="35.8819" y2="16.362" gradientUnits="userSpaceOnUse">
<stop stop-color="#CA6B34"/>
<stop offset="0.6667" stop-color="#FFA933"/>
<stop offset="1" stop-color="#FFBD2B"/>
</linearGradient>
<linearGradient id="paint37_linear_525_1837" x1="35.8815" y1="9.08361" x2="35.8815" y2="50.6871" gradientUnits="userSpaceOnUse">
<stop stop-color="#CA6B34"/>
<stop offset="0.1742" stop-color="#CC6E34"/>
<stop offset="0.2919" stop-color="#D27733"/>
<stop offset="0.3931" stop-color="#DB8631"/>
<stop offset="0.4848" stop-color="#E99B2F"/>
<stop offset="0.5694" stop-color="#FBB72C"/>
<stop offset="0.5853" stop-color="#FFBD2B"/>
<stop offset="1" stop-color="#FFA933"/>
</linearGradient>
<linearGradient id="paint38_linear_525_1837" x1="35.8828" y1="51.6149" x2="35.8828" y2="13.9621" gradientUnits="userSpaceOnUse">
<stop stop-color="#B75014"/>
<stop offset="0.375" stop-color="#E8692A"/>
<stop offset="1" stop-color="#F58E2F"/>
</linearGradient>
<linearGradient id="paint39_linear_525_1837" x1="18.5272" y1="34.111" x2="18.5272" y2="45.4659" gradientUnits="userSpaceOnUse">
<stop stop-color="#C10065"/>
<stop offset="1" stop-color="white"/>
</linearGradient>
<linearGradient id="paint40_linear_525_1837" x1="53.1624" y1="34.111" x2="53.1624" y2="45.4659" gradientUnits="userSpaceOnUse">
<stop stop-color="#C10065"/>
<stop offset="1" stop-color="white"/>
</linearGradient>
<linearGradient id="paint41_linear_525_1837" x1="26.7272" y1="44.4905" x2="26.7272" y2="56.2242" gradientUnits="userSpaceOnUse">
<stop stop-color="#C10065"/>
<stop offset="1" stop-color="white"/>
</linearGradient>
<linearGradient id="paint42_linear_525_1837" x1="45.0392" y1="44.492" x2="45.0392" y2="56.4556" gradientUnits="userSpaceOnUse">
<stop stop-color="#C10065"/>
<stop offset="1" stop-color="white"/>
</linearGradient>
<linearGradient id="paint43_linear_525_1837" x1="35.8022" y1="16.7597" x2="35.8022" y2="46.757" gradientUnits="userSpaceOnUse">
<stop stop-color="#CA6B34"/>
<stop offset="0.6667" stop-color="#FFA933"/>
<stop offset="1" stop-color="#FFBD2B"/>
</linearGradient>
<linearGradient id="paint44_linear_525_1837" x1="35.8065" y1="50.4357" x2="35.8065" y2="37.0374" gradientUnits="userSpaceOnUse">
<stop stop-color="#F1CB3C"/>
<stop offset="1" stop-color="#FFC14F"/>
</linearGradient>
<linearGradient id="paint45_linear_525_1837" x1="46.1164" y1="33.676" x2="46.1164" y2="49.1146" gradientUnits="userSpaceOnUse">
<stop stop-color="#C10065"/>
<stop offset="1" stop-color="white"/>
</linearGradient>
<linearGradient id="paint46_linear_525_1837" x1="35.8065" y1="35.0617" x2="35.8065" y2="5.0644" gradientUnits="userSpaceOnUse">
<stop stop-color="#CA6B34"/>
<stop offset="0.6667" stop-color="#FFA933"/>
<stop offset="1" stop-color="#FFBD2B"/>
</linearGradient>
<linearGradient id="paint47_linear_525_1837" x1="35.8065" y1="14.8818" x2="35.8065" y2="28.2801" gradientUnits="userSpaceOnUse">
<stop stop-color="#F1CB3C"/>
<stop offset="1" stop-color="#FFC14F"/>
</linearGradient>
<linearGradient id="paint48_linear_525_1837" x1="69.1715" y1="24.8815" x2="35.5695" y2="24.8815" gradientUnits="userSpaceOnUse">
<stop stop-color="#C10065"/>
<stop offset="1" stop-color="white"/>
</linearGradient>
<linearGradient id="paint49_linear_525_1837" x1="35.9636" y1="22.4838" x2="35.9636" y2="5.90484" gradientUnits="userSpaceOnUse">
<stop stop-color="#CA6B34"/>
<stop offset="0.6667" stop-color="#FFA933"/>
<stop offset="1" stop-color="#FFBD2B"/>
</linearGradient>
<linearGradient id="paint50_linear_525_1837" x1="30.8084" y1="13.4195" x2="41.1223" y2="13.4195" gradientUnits="userSpaceOnUse">
<stop stop-color="#DE3C14"/>
<stop offset="0.0736727" stop-color="#C72E10"/>
<stop offset="0.1852" stop-color="#AB1C0C"/>
<stop offset="0.2972" stop-color="#971009"/>
<stop offset="0.409" stop-color="#8B0807"/>
<stop offset="0.5205" stop-color="#870606"/>
<stop offset="0.6152" stop-color="#8C0707"/>
<stop offset="0.727" stop-color="#9A0808"/>
<stop offset="0.8475" stop-color="#B20B0B"/>
<stop offset="0.9732" stop-color="#D30E0E"/>
<stop offset="1" stop-color="#DB0F0F"/>
</linearGradient>
<linearGradient id="paint51_linear_525_1837" x1="35.8601" y1="13.2293" x2="35.8601" y2="22.2927" gradientUnits="userSpaceOnUse">
<stop stop-color="#C10065"/>
<stop offset="1" stop-color="white"/>
</linearGradient>
<linearGradient id="paint52_linear_525_1837" x1="35.9636" y1="60.0378" x2="35.9636" y2="43.4589" gradientUnits="userSpaceOnUse">
<stop stop-color="#CA6B34"/>
<stop offset="0.6667" stop-color="#FFA933"/>
<stop offset="1" stop-color="#FFBD2B"/>
</linearGradient>
<linearGradient id="paint53_linear_525_1837" x1="30.8084" y1="50.9731" x2="41.1223" y2="50.9731" gradientUnits="userSpaceOnUse">
<stop stop-color="#DE3C14"/>
<stop offset="0.0736727" stop-color="#C72E10"/>
<stop offset="0.1852" stop-color="#AB1C0C"/>
<stop offset="0.2972" stop-color="#971009"/>
<stop offset="0.409" stop-color="#8B0807"/>
<stop offset="0.5205" stop-color="#870606"/>
<stop offset="0.6152" stop-color="#8C0707"/>
<stop offset="0.727" stop-color="#9A0808"/>
<stop offset="0.8475" stop-color="#B20B0B"/>
<stop offset="0.9732" stop-color="#D30E0E"/>
<stop offset="1" stop-color="#DB0F0F"/>
</linearGradient>
<linearGradient id="paint54_linear_525_1837" x1="35.8601" y1="50.7835" x2="35.8601" y2="59.8469" gradientUnits="userSpaceOnUse">
<stop stop-color="#C10065"/>
<stop offset="1" stop-color="white"/>
</linearGradient>
<linearGradient id="paint55_linear_525_1837" x1="32.7499" y1="26.9559" x2="38.5442" y2="41.8196" gradientUnits="userSpaceOnUse">
<stop stop-color="#FFC943"/>
<stop offset="1" stop-color="#870606"/>
</linearGradient>
</defs>
</svg>
