<svg width="21" height="25" viewBox="0 0 21 25" fill="none" xmlns="http://www.w3.org/2000/svg">
<path d="M10.5247 0L0.800781 5.62022V19.0017L10.5247 24.6219L20.2485 19.0017V5.62022L10.5247 0Z" fill="url(#paint0_linear_525_5078)"/>
<path d="M2.55078 17.9849V6.63741L10.5261 2.03418L18.4837 6.63741V17.9849L10.5261 22.5881L2.55078 17.9849Z" fill="url(#paint1_linear_525_5078)"/>
<path d="M3.13672 17.6635V6.97614L10.5233 2.71191L17.892 6.97614V17.6635L10.5233 21.9099L3.13672 17.6635Z" fill="url(#paint2_linear_525_5078)"/>
<g style="mix-blend-mode:soft-light" opacity="0.5">
<path d="M1.03377 5.6559C0.908872 6.01274 1.94371 6.45879 2.67523 6.29821C3.40675 6.13763 10.2402 2.12319 10.4186 1.76635C10.4722 1.6593 10.4722 0.267624 10.4186 0.267624C10.1867 0.249782 1.10513 5.47748 1.03377 5.6559Z" fill="white"/>
</g>
<g style="mix-blend-mode:soft-light" opacity="0.5">
<path d="M19.9611 5.6559C20.086 6.01274 19.0512 6.45879 18.3196 6.29821C17.5881 6.13763 10.8082 2.0875 10.5762 1.76635C10.4513 1.60577 10.4156 0.267624 10.5762 0.267624C10.826 0.249782 19.8897 5.47748 19.9611 5.6559Z" fill="white"/>
</g>
<path opacity="0.5" d="M1.031 13.2743C0.959636 13.6669 0.799058 18.7518 1.031 18.7875C1.26295 18.8232 2.31563 18.1095 2.36915 17.7705C2.42268 17.4315 2.44052 13.9523 2.36915 13.6312C2.29778 13.2922 1.13806 12.5964 1.031 13.2743Z" fill="url(#paint3_linear_525_5078)"/>
<path opacity="0.5" d="M19.9829 13.2743C20.0542 13.6669 20.2148 18.7518 19.9829 18.7875C19.7509 18.8232 18.6983 18.1095 18.6447 17.7705C18.5912 17.4315 18.5734 13.9523 18.6447 13.6312C18.7161 13.2922 19.8758 12.5964 19.9829 13.2743Z" fill="url(#paint4_linear_525_5078)"/>
<path opacity="0.5" d="M1.28256 18.9126C1.40745 19.0911 10.15 24.2652 10.2928 24.2652C10.3641 24.2652 10.4533 22.9806 10.4533 22.8379C10.4533 22.4453 2.70992 18.3239 2.56718 18.2882C2.35308 18.2346 1.15766 18.7342 1.28256 18.9126Z" fill="url(#paint5_linear_525_5078)"/>
<path opacity="0.5" d="M19.7841 19.0555C19.6592 19.2339 10.7382 24.3903 10.6133 24.3903C10.5776 24.3903 10.5776 22.7845 10.649 22.731C10.9344 22.4455 18.321 18.324 18.4459 18.2883C18.6422 18.2348 19.909 18.8771 19.7841 19.0555Z" fill="url(#paint6_linear_525_5078)"/>
<g style="mix-blend-mode:soft-light" opacity="0.5">
<path d="M3.47553 17.3783C2.95812 14.4165 3.24359 14.2381 6.91903 12.9713C10.5945 11.7224 16.8035 8.49301 17.3566 9.90252C17.9097 11.2942 17.7134 17.2534 17.5885 17.5924C17.4636 17.9136 11.0584 21.589 10.5231 21.6069C9.98785 21.6069 3.5469 17.6995 3.47553 17.3783Z" fill="url(#paint7_linear_525_5078)"/>
</g>
<g style="mix-blend-mode:soft-light" opacity="0.3">
<path d="M17.7482 7.04747C17.6233 7.01179 10.9504 3.15792 10.5757 3.19361C10.2188 3.22929 5.57994 5.38817 3.67085 7.02963C3.17127 7.47568 3.34969 14.0058 3.81358 13.8809C4.27747 13.7561 4.61647 11.1154 9.79064 9.63456C14.8756 8.17152 17.088 9.4383 17.6411 9.67024C17.7838 9.72377 18.0336 7.11884 17.7482 7.04747Z" fill="white"/>
</g>
<path opacity="0.5" d="M2.55078 17.9849V6.63741L10.5261 2.03418L18.4837 6.63741V18.0027L17.8949 17.6637C17.8949 17.6637 17.9306 7.77929 17.7165 7.47598C16.9671 6.36978 11.0614 3.67564 10.0979 3.97895C9.11663 4.28227 3.88893 6.51252 3.30014 7.4403C3.10388 7.76145 3.13957 17.6637 3.13957 17.6637L2.55078 17.9849Z" fill="url(#paint8_linear_525_5078)"/>
<g style="mix-blend-mode:soft-light" opacity="0.2">
<path d="M12.0042 8.18946C14.0025 9.08156 16.9821 9.0994 17.2498 8.92098C17.5174 8.74256 17.7137 7.47578 17.2676 7.26168C16.8394 7.04758 13.4316 5.22769 12.5395 5.42396C11.6474 5.63806 11.6652 8.02888 12.0042 8.18946Z" fill="white"/>
</g>
<path d="M0.800781 9.68819C0.800781 9.65251 0.889991 5.90569 1.05057 5.63806C1.21115 5.37043 10.3284 0.321155 10.596 0.249788C10.8458 0.17842 14.2536 2.15888 14.2536 2.15888L10.5247 0L0.800781 5.62022V9.68819Z" fill="url(#paint9_linear_525_5078)"/>
<path d="M14.0039 4.03223C14.0039 4.03223 18.2681 6.45873 18.3395 6.74421C18.393 7.01184 18.5001 14.3627 18.5001 14.3627C18.5001 14.3627 18.5358 6.94047 18.5001 6.63715C18.4466 6.316 14.0039 4.03223 14.0039 4.03223Z" fill="#E6ADFF"/>
<path d="M2.54838 12.8643C2.54838 12.8643 2.40565 6.72662 2.47701 6.51251C2.54838 6.31625 10.5059 2.03418 10.5059 2.03418C10.5059 2.03418 2.83385 6.4233 2.67328 6.70878C2.5127 6.97641 2.54838 12.8643 2.54838 12.8643Z" fill="#E6ADFF"/>
<path d="M0.800781 19.0019L10.5247 24.6222L20.2485 19.0019V15.951C20.2485 15.951 20.1593 18.6094 19.9631 18.9484C19.7668 19.2874 11.0599 24.3545 10.6139 24.3724C10.1678 24.4081 1.26467 19.109 1.03273 18.77C0.800781 18.431 0.800781 12.1685 0.800781 12.1685V19.0019Z" fill="url(#paint10_linear_525_5078)"/>
<path d="M2.54875 15.0762C2.54875 15.0762 2.51306 17.6989 2.67364 17.913C2.81638 18.1271 6.59887 20.3217 6.59887 20.3217C6.59887 20.3217 2.51306 18.1985 2.45954 18.0736C2.42385 17.9309 2.54875 15.0762 2.54875 15.0762Z" fill="#E6ADFF"/>
<g style="mix-blend-mode:soft-light" opacity="0.5">
<path d="M5.8496 20.3755C5.56412 20.3755 4.76124 20.6966 4.93966 20.8929C5.08239 21.0535 9.89972 23.9617 10.4528 24.1758C10.6312 24.2472 10.6134 23.1053 10.3815 22.7306C10.2566 22.5701 6.74169 20.3755 5.8496 20.3755Z" fill="white"/>
</g>
<g style="mix-blend-mode:soft-light">
<path d="M13.9484 2.2123C13.7164 2.28367 14.5015 3.26497 14.8583 3.35418C15.233 3.44339 15.7326 3.17576 15.5542 2.99734C15.3936 2.80108 14.3052 2.10525 13.9484 2.2123Z" fill="white"/>
</g>
<g style="mix-blend-mode:soft-light">
<path d="M15.6815 3.19357C15.3247 3.28278 15.9848 4.83503 16.2525 5.1205C16.5379 5.38813 19.018 5.88771 18.9644 5.44166C18.9109 4.97777 16.1811 3.05083 15.6815 3.19357Z" fill="white"/>
</g>
<g style="mix-blend-mode:soft-light" opacity="0.5">
<path d="M15.0055 20.4112C14.7914 21.3211 14.8271 21.8564 14.952 21.8742C15.0769 21.8742 19.3233 19.3228 19.4303 19.2158C19.5374 19.1087 18.7524 18.3772 18.4134 18.4129C18.0922 18.4486 15.0947 20.0722 15.0055 20.4112Z" fill="url(#paint11_linear_525_5078)"/>
</g>
<path opacity="0.5" d="M3.06954 6.88678C2.96248 6.58347 2.65917 6.58347 2.62349 6.92247C2.5878 7.26147 2.55212 13.6311 2.67701 13.6489C2.80191 13.6667 3.06954 13.3456 3.06954 13.2028C3.08738 13.0601 3.12306 7.02952 3.06954 6.88678Z" fill="url(#paint12_linear_525_5078)"/>
<path opacity="0.5" d="M17.9618 6.92276C17.944 7.04766 17.8905 13.0604 17.9618 13.0604C18.0332 13.0604 18.3901 12.7749 18.3901 12.6322C18.3901 12.4895 18.3008 6.79787 18.2652 6.78003C18.2295 6.74435 17.9797 6.83355 17.9618 6.92276Z" fill="url(#paint13_linear_525_5078)"/>
<path opacity="0.5" d="M10.5225 2.60524C10.5225 2.73013 7.0968 4.67491 7.00759 4.67491C6.91838 4.67491 6.95407 4.13965 7.06112 4.06828C7.16817 3.99691 10.5046 2.01645 10.5225 2.08782C10.5403 2.14135 10.5225 2.51603 10.5225 2.60524Z" fill="url(#paint14_linear_525_5078)"/>
<path d="M2.8868 18.0741C2.60133 18.1455 3.4399 18.7164 3.63616 18.7343C3.83242 18.7699 3.63616 18.2704 3.54695 18.1812C3.47559 18.1276 3.04738 18.0384 2.8868 18.0741Z" fill="#E6ADFF"/>
<path d="M10.5089 18.6268L0.481733 12.7568C0.0892099 13.6489 0 14.4697 0 14.4697L0.660153 15.5759L10.5268 21.3031L20.3934 15.5759L20.9822 14.4697C20.9822 14.4697 20.9822 13.6311 20.6253 12.7568L10.5089 18.6268Z" fill="url(#paint15_linear_525_5078)"/>
<path d="M0.660153 15.594L0 14.4878L10.5089 20.6433L20.9822 14.4878L20.3755 15.594L10.5089 21.3213L0.660153 15.594Z" fill="url(#paint16_linear_525_5078)"/>
<path opacity="0.5" d="M0 14.4881L0.660153 15.5943L0.802889 15.6835V16.0046C0.802889 16.0046 1.37383 16.2901 2.48003 16.8967C2.51572 16.9146 3.17587 17.6104 3.17587 17.6104C3.17587 17.6104 10.277 21.9103 10.5446 21.9103C10.8836 21.9103 17.9312 17.5212 17.9312 17.5212C17.9312 17.5212 18.4843 17.0573 18.5378 17.0216L20.2863 16.1117V15.6478L20.4112 15.5764L21 14.4702L10.5446 20.6257L0 14.4881Z" fill="url(#paint17_linear_525_5078)"/>
<path opacity="0.5" d="M10.5078 18.6271V20.6432L20.9632 14.4877C20.9632 14.4877 20.9275 13.4707 20.6064 12.7749L10.5078 18.6271Z" fill="url(#paint18_linear_525_5078)"/>
<g style="mix-blend-mode:soft-light" opacity="0.5">
<path d="M0.997501 13.2031C0.801239 13.2031 0.961817 14.8981 1.5506 15.2906C2.47838 15.9151 8.06292 19.198 8.4376 19.2159C8.68739 19.2159 8.66955 17.7707 8.59818 17.6636C8.4376 17.4495 1.28297 13.2031 0.997501 13.2031Z" fill="white"/>
</g>
<g style="mix-blend-mode:soft-light" opacity="0.5">
<path d="M13.6131 16.8785C13.4882 17.0034 13.5061 18.5913 13.7202 18.5378C13.9343 18.4842 17.0923 16.8071 18.5732 15.7187C20.0541 14.6304 20.2682 13.1852 19.9292 13.2209C19.947 13.203 13.8629 16.6108 13.6131 16.8785Z" fill="white"/>
</g>
<path d="M5.40625 17.6455C5.40625 17.6455 10.2057 20.5359 10.5269 20.5359C10.8481 20.5359 14.6662 18.1986 14.6662 18.1986C14.6662 18.1986 10.6339 20.75 10.5269 20.75C10.4377 20.75 5.40625 17.6455 5.40625 17.6455Z" fill="#E6ADFF"/>
<path opacity="0.5" d="M10.5634 13.7736L8.40455 14.9155L8.81492 12.5069L7.06641 10.8119L9.47507 10.455L10.5634 8.27832L11.634 10.455L14.0426 10.8119L12.3119 12.5069L12.7223 14.9155L10.5634 13.7736Z" fill="url(#paint19_linear_525_5078)"/>
<path d="M13.793 10.901C13.1864 10.8118 12.1694 10.6691 11.5628 10.5799L10.5636 8.5459L9.56449 10.5799L7.31641 10.901L8.94003 12.4711L8.56534 14.7014L10.5636 13.6487L12.5619 14.7014L12.1873 12.4711L13.793 10.901Z" fill="url(#paint20_linear_525_5078)"/>
<path opacity="0.5" d="M7.31641 10.9014L10.5993 11.7578L8.94003 12.4715L7.31641 10.9014Z" fill="url(#paint21_linear_525_5078)"/>
<path opacity="0.5" d="M13.7953 10.9014L10.6016 11.7578L12.1717 12.4715L13.7953 10.9014Z" fill="url(#paint22_linear_525_5078)"/>
<path opacity="0.5" d="M10.5452 13.6491L10.5987 11.7578L8.54688 14.7017L10.5452 13.6491Z" fill="url(#paint23_linear_525_5078)"/>
<path opacity="0.5" d="M12.5452 14.7017L10.6004 11.7578L10.5469 13.6491L12.5452 14.7017Z" fill="url(#paint24_linear_525_5078)"/>
<path opacity="0.5" d="M10.5469 8.54639L10.6004 11.7579L11.546 10.5625L10.5469 8.54639Z" fill="url(#paint25_linear_525_5078)"/>
<path opacity="0.5" d="M13.7953 10.9015L10.6016 11.7579L11.5472 10.5625L13.7953 10.9015Z" fill="url(#paint26_linear_525_5078)"/>
<path opacity="0.5" d="M13.7953 10.9015L10.6016 11.7579L11.5472 10.5625L13.7953 10.9015Z" fill="url(#paint27_linear_525_5078)"/>
<path opacity="0.5" d="M9.54665 10.5625L10.5993 11.7579L7.31641 10.9015L9.54665 10.5625Z" fill="url(#paint28_linear_525_5078)"/>
<path opacity="0.8" d="M11.5451 11.276C11.3845 11.4188 11.5272 11.508 11.5272 11.508L12.3836 11.276C12.3836 11.276 11.9376 10.9549 11.5451 11.276Z" fill="white"/>
<path opacity="0.5" d="M8.56641 14.7016C8.56641 14.7016 10.083 13.9879 10.5647 13.7917L12.563 14.7016L10.5647 13.6489L8.56641 14.7016Z" fill="url(#paint29_linear_525_5078)"/>
<g style="mix-blend-mode:soft-light" opacity="0.5">
<path d="M7.31641 10.9014L10.5993 11.7578L8.79729 13.31L7.31641 10.9014Z" fill="url(#paint30_linear_525_5078)"/>
</g>
<g style="mix-blend-mode:soft-light" opacity="0.5">
<path d="M13.7914 10.9014L10.5977 11.7578L12.364 13.5241L13.7914 10.9014Z" fill="url(#paint31_linear_525_5078)"/>
</g>
<g style="mix-blend-mode:soft-light" opacity="0.5">
<path d="M8.56641 14.7012L10.6004 11.7573L12.563 14.7012L10.5647 14.3801L8.56641 14.7012Z" fill="url(#paint32_linear_525_5078)"/>
</g>
<path opacity="0.4" d="M9.81672 10.2229C9.60261 10.8117 10.4233 11.2221 10.5304 11.0437C10.691 10.437 10.5304 8.88479 9.81672 10.2229Z" fill="#F7FFFF"/>
<path opacity="0.4" d="M9.15382 13.2382C9.58203 13.2917 9.83181 12.8099 9.92102 12.4709C10.0638 11.9178 8.36877 13.1311 9.15382 13.2382Z" fill="#F7FFFF"/>
<path opacity="0.5" d="M5.90487 9.81263L4.90572 10.3479L5.08414 9.22385L4.28125 8.4388L5.40529 8.27822L5.90487 7.26123L6.40444 8.27822L7.52849 8.4388L6.70776 9.22385L6.90402 10.3479L5.90487 9.81263Z" fill="url(#paint33_linear_525_5078)"/>
<path d="M7.4037 8.47459C7.11823 8.43891 6.65434 8.36754 6.36887 8.33185L5.90498 7.38623L5.44108 8.33185L4.40625 8.47459L5.15561 9.20611L4.97719 10.2409L5.90498 9.75921L6.83276 10.2409L6.65434 9.20611L7.4037 8.47459Z" fill="url(#paint34_linear_525_5078)"/>
<path opacity="0.5" d="M4.40625 8.47461L5.92282 8.86713L5.15561 9.20613L4.40625 8.47461Z" fill="url(#paint35_linear_525_5078)"/>
<path opacity="0.5" d="M7.40276 8.47461L5.92188 8.86713L6.6534 9.20613L7.40276 8.47461Z" fill="url(#paint36_linear_525_5078)"/>
<path opacity="0.5" d="M5.90434 9.74144L5.92219 8.86719L4.97656 10.241L5.90434 9.74144Z" fill="url(#paint37_linear_525_5078)"/>
<path opacity="0.5" d="M6.83403 10.241L5.92409 8.86719L5.90625 9.74144L6.83403 10.241Z" fill="url(#paint38_linear_525_5078)"/>
<path opacity="0.5" d="M5.90625 7.38623L5.92409 8.86711L6.37014 8.33185L5.90625 7.38623Z" fill="url(#paint39_linear_525_5078)"/>
<path opacity="0.5" d="M7.40276 8.47477L5.92188 8.86729L6.36792 8.33203L7.40276 8.47477Z" fill="url(#paint40_linear_525_5078)"/>
<path opacity="0.5" d="M7.40276 8.47477L5.92188 8.86729L6.36792 8.33203L7.40276 8.47477Z" fill="url(#paint41_linear_525_5078)"/>
<path opacity="0.5" d="M5.44108 8.33203L5.92282 8.86729L4.40625 8.47477L5.44108 8.33203Z" fill="url(#paint42_linear_525_5078)"/>
<path opacity="0.8" d="M6.36914 8.65291C6.29777 8.72428 6.3513 8.75996 6.3513 8.75996L6.74382 8.65291C6.74382 8.65291 6.54756 8.49233 6.36914 8.65291Z" fill="white"/>
<path opacity="0.5" d="M4.97656 10.241C4.97656 10.241 5.6724 9.90201 5.90434 9.8128L6.83213 10.241L5.90434 9.75928L4.97656 10.241Z" fill="url(#paint43_linear_525_5078)"/>
<path opacity="0.5" d="M4.40625 8.47461L5.92282 8.86713L5.08424 9.59865L4.40625 8.47461Z" fill="url(#paint44_linear_525_5078)"/>
<path opacity="0.5" d="M7.40276 8.47461L5.92188 8.86713L6.74261 9.68786L7.40276 8.47461Z" fill="url(#paint45_linear_525_5078)"/>
<path opacity="0.5" d="M4.97656 10.2405L5.92219 8.8667L6.83213 10.2405L5.90434 10.08L4.97656 10.2405Z" fill="url(#paint46_linear_525_5078)"/>
<path opacity="0.4" d="M5.56601 8.15336C5.45896 8.42099 5.83364 8.61725 5.88716 8.52804C5.95853 8.26041 5.88716 7.54674 5.56601 8.15336Z" fill="#F7FFFF"/>
<path opacity="0.4" d="M5.24581 9.56289C5.44207 9.59858 5.54912 9.36663 5.60265 9.20605C5.67401 8.95627 4.88897 9.50937 5.24581 9.56289Z" fill="#F7FFFF"/>
<path opacity="0.5" d="M15.2408 9.81263L14.2417 10.3479L14.4379 9.22385L13.6172 8.4388L14.7412 8.27822L15.2408 7.26123L15.7404 8.27822L16.8644 8.4388L16.0615 9.22385L16.2578 10.3479L15.2408 9.81263Z" fill="url(#paint47_linear_525_5078)"/>
<path d="M16.7396 8.47459C16.4542 8.43891 15.9903 8.36754 15.7048 8.33185L15.2409 7.38623L14.777 8.33185L13.7422 8.47459L14.4915 9.20611L14.3131 10.2409L15.2409 9.75921L16.1687 10.2409L15.9903 9.20611L16.7396 8.47459Z" fill="url(#paint48_linear_525_5078)"/>
<path opacity="0.5" d="M13.7461 8.47461L15.2805 8.86713L14.4955 9.20613L13.7461 8.47461Z" fill="url(#paint49_linear_525_5078)"/>
<path opacity="0.5" d="M16.7443 8.47461L15.2812 8.86713L15.9949 9.20613L16.7443 8.47461Z" fill="url(#paint50_linear_525_5078)"/>
<path opacity="0.5" d="M15.2442 9.74144L15.2799 8.86719L14.3164 10.241L15.2442 9.74144Z" fill="url(#paint51_linear_525_5078)"/>
<path opacity="0.5" d="M16.1739 10.241L15.2818 8.86719L15.2461 9.74144L16.1739 10.241Z" fill="url(#paint52_linear_525_5078)"/>
<path opacity="0.5" d="M15.2461 7.38623L15.2818 8.86711L15.71 8.33185L15.2461 7.38623Z" fill="url(#paint53_linear_525_5078)"/>
<path opacity="0.5" d="M16.7443 8.47477L15.2812 8.86729L15.7095 8.33203L16.7443 8.47477Z" fill="url(#paint54_linear_525_5078)"/>
<path opacity="0.5" d="M16.7443 8.47477L15.2812 8.86729L15.7095 8.33203L16.7443 8.47477Z" fill="url(#paint55_linear_525_5078)"/>
<path opacity="0.5" d="M14.7809 8.33203L15.2805 8.86729L13.7461 8.47477L14.7809 8.33203Z" fill="url(#paint56_linear_525_5078)"/>
<path opacity="0.8" d="M15.709 8.65291C15.6376 8.72428 15.6911 8.75996 15.6911 8.75996L16.0837 8.65291C16.1015 8.65291 15.8874 8.49233 15.709 8.65291Z" fill="white"/>
<path opacity="0.5" d="M14.332 10.241C14.332 10.241 15.0279 9.90201 15.2598 9.8128L16.1876 10.241L15.2598 9.75928L14.332 10.241Z" fill="url(#paint57_linear_525_5078)"/>
<path opacity="0.5" d="M13.7422 8.47461L15.2766 8.86713L14.438 9.59865L13.7422 8.47461Z" fill="url(#paint58_linear_525_5078)"/>
<path opacity="0.5" d="M16.7404 8.47461L15.2773 8.86713L16.0802 9.68786L16.7404 8.47461Z" fill="url(#paint59_linear_525_5078)"/>
<path opacity="0.5" d="M14.332 10.2405L15.2777 8.8667L16.1698 10.2405L15.242 10.08L14.332 10.2405Z" fill="url(#paint60_linear_525_5078)"/>
<path opacity="0.4" d="M14.9019 8.15336C14.7949 8.42099 15.1696 8.61725 15.2231 8.52804C15.3123 8.26041 15.2409 7.54674 14.9019 8.15336Z" fill="#F7FFFF"/>
<path opacity="0.4" d="M14.5989 9.56289C14.7952 9.59858 14.9022 9.36663 14.9557 9.20605C15.0093 8.95627 14.2421 9.50937 14.5989 9.56289Z" fill="#F7FFFF"/>
<defs>
<linearGradient id="paint0_linear_525_5078" x1="10.5227" y1="25.0458" x2="10.5227" y2="3.93166" gradientUnits="userSpaceOnUse">
<stop stop-color="#F768CA"/>
<stop offset="0.4544" stop-color="#C741D1"/>
<stop offset="0.8056" stop-color="#6B24C7"/>
<stop offset="0.835" stop-color="#692AC7"/>
<stop offset="0.8747" stop-color="#623BC6"/>
<stop offset="0.9204" stop-color="#5758C6"/>
<stop offset="0.9701" stop-color="#487FC5"/>
<stop offset="1" stop-color="#3D9AC4"/>
</linearGradient>
<linearGradient id="paint1_linear_525_5078" x1="10.5242" y1="3.30244" x2="10.5242" y2="22.5377" gradientUnits="userSpaceOnUse">
<stop stop-color="#3D9AC4"/>
<stop offset="0.0299415" stop-color="#487FC5"/>
<stop offset="0.0796258" stop-color="#5758C6"/>
<stop offset="0.1253" stop-color="#623BC6"/>
<stop offset="0.165" stop-color="#692AC7"/>
<stop offset="0.1944" stop-color="#6B24C7"/>
<stop offset="0.5456" stop-color="#C741D1"/>
<stop offset="1" stop-color="#F768CA"/>
</linearGradient>
<linearGradient id="paint2_linear_525_5078" x1="10.5213" y1="21.9155" x2="10.5213" y2="2.70733" gradientUnits="userSpaceOnUse">
<stop stop-color="#D36AF0"/>
<stop offset="0.00865363" stop-color="#D068EE"/>
<stop offset="0.2023" stop-color="#9B46CB"/>
<stop offset="0.3698" stop-color="#742CB1"/>
<stop offset="0.503" stop-color="#5C1DA2"/>
<stop offset="0.5853" stop-color="#53179C"/>
<stop offset="0.5905" stop-color="#53199D"/>
<stop offset="0.7096" stop-color="#4F3DA9"/>
<stop offset="0.8212" stop-color="#4C57B2"/>
<stop offset="0.9213" stop-color="#4B66B8"/>
<stop offset="1" stop-color="#4A6CBA"/>
</linearGradient>
<linearGradient id="paint3_linear_525_5078" x1="1.66719" y1="21.2979" x2="1.66719" y2="9.65723" gradientUnits="userSpaceOnUse">
<stop stop-color="#705AB8"/>
<stop offset="1" stop-color="white"/>
</linearGradient>
<linearGradient id="paint4_linear_525_5078" x1="19.3406" y1="21.2979" x2="19.3406" y2="9.65723" gradientUnits="userSpaceOnUse">
<stop stop-color="#705AB8"/>
<stop offset="1" stop-color="white"/>
</linearGradient>
<linearGradient id="paint5_linear_525_5078" x1="3.44281" y1="16.9543" x2="8.14842" y2="24.5864" gradientUnits="userSpaceOnUse">
<stop stop-color="#705AB8"/>
<stop offset="1" stop-color="white"/>
</linearGradient>
<linearGradient id="paint6_linear_525_5078" x1="13.9265" y1="17.9165" x2="17.2969" y2="27.9106" gradientUnits="userSpaceOnUse">
<stop stop-color="#705AB8"/>
<stop offset="1" stop-color="white"/>
</linearGradient>
<linearGradient id="paint7_linear_525_5078" x1="10.5018" y1="23.2392" x2="10.5018" y2="7.14604" gradientUnits="userSpaceOnUse">
<stop stop-color="#705AB8"/>
<stop offset="1" stop-color="white"/>
</linearGradient>
<linearGradient id="paint8_linear_525_5078" x1="10.5242" y1="17.9938" x2="10.5242" y2="2.03074" gradientUnits="userSpaceOnUse">
<stop stop-color="white"/>
<stop offset="0.4444" stop-color="#881DED"/>
<stop offset="1" stop-color="#262262"/>
</linearGradient>
<linearGradient id="paint9_linear_525_5078" x1="0.798801" y1="4.84741" x2="14.257" y2="4.84741" gradientUnits="userSpaceOnUse">
<stop stop-color="#728EE3"/>
<stop offset="1" stop-color="#836888"/>
</linearGradient>
<linearGradient id="paint10_linear_525_5078" x1="0.798801" y1="18.4032" x2="20.2466" y2="18.4032" gradientUnits="userSpaceOnUse">
<stop stop-color="#728EE3"/>
<stop offset="1" stop-color="#836888"/>
</linearGradient>
<linearGradient id="paint11_linear_525_5078" x1="17.1526" y1="21.8657" x2="17.1526" y2="18.4005" gradientUnits="userSpaceOnUse">
<stop stop-color="white"/>
<stop offset="0.4444" stop-color="#881DED"/>
<stop offset="1" stop-color="#262262"/>
</linearGradient>
<linearGradient id="paint12_linear_525_5078" x1="2.84862" y1="13.6486" x2="2.84862" y2="6.66424" gradientUnits="userSpaceOnUse">
<stop stop-color="white"/>
<stop offset="0.4444" stop-color="#881DED"/>
<stop offset="1" stop-color="#262262"/>
</linearGradient>
<linearGradient id="paint13_linear_525_5078" x1="18.1646" y1="13.0624" x2="18.1646" y2="6.76749" gradientUnits="userSpaceOnUse">
<stop stop-color="white"/>
<stop offset="0.4444" stop-color="#881DED"/>
<stop offset="1" stop-color="#262262"/>
</linearGradient>
<linearGradient id="paint14_linear_525_5078" x1="8.74945" y1="4.68281" x2="8.74945" y2="2.08011" gradientUnits="userSpaceOnUse">
<stop stop-color="white"/>
<stop offset="0.4444" stop-color="#881DED"/>
<stop offset="1" stop-color="#262262"/>
</linearGradient>
<linearGradient id="paint15_linear_525_5078" x1="10.4866" y1="5.81477" x2="10.4866" y2="21.1175" gradientUnits="userSpaceOnUse">
<stop stop-color="#F768CA"/>
<stop offset="0.4544" stop-color="#C741D1"/>
<stop offset="0.8056" stop-color="#6B24C7"/>
<stop offset="0.835" stop-color="#692AC7"/>
<stop offset="0.8747" stop-color="#623BC6"/>
<stop offset="0.9204" stop-color="#5758C6"/>
<stop offset="0.9701" stop-color="#487FC5"/>
<stop offset="1" stop-color="#3D9AC4"/>
</linearGradient>
<linearGradient id="paint16_linear_525_5078" x1="0" y1="17.8965" x2="20.9733" y2="17.8965" gradientUnits="userSpaceOnUse">
<stop stop-color="#F768CA"/>
<stop offset="0.4544" stop-color="#C741D1"/>
<stop offset="0.8056" stop-color="#6B24C7"/>
<stop offset="0.835" stop-color="#692AC7"/>
<stop offset="0.8747" stop-color="#623BC6"/>
<stop offset="0.9204" stop-color="#5758C6"/>
<stop offset="0.9701" stop-color="#487FC5"/>
<stop offset="1" stop-color="#3D9AC4"/>
</linearGradient>
<linearGradient id="paint17_linear_525_5078" x1="10.4866" y1="14.4793" x2="10.4866" y2="21.9159" gradientUnits="userSpaceOnUse">
<stop stop-color="white"/>
<stop offset="0.4444" stop-color="#881DED"/>
<stop offset="1" stop-color="#262262"/>
</linearGradient>
<linearGradient id="paint18_linear_525_5078" x1="16.0205" y1="20.827" x2="15.3451" y2="12.8957" gradientUnits="userSpaceOnUse">
<stop stop-color="#705AB8"/>
<stop offset="1" stop-color="white"/>
</linearGradient>
<linearGradient id="paint19_linear_525_5078" x1="10.5613" y1="14.9114" x2="10.5613" y2="8.27584" gradientUnits="userSpaceOnUse">
<stop stop-color="white"/>
<stop offset="0.4444" stop-color="#881DED"/>
<stop offset="1" stop-color="#262262"/>
</linearGradient>
<linearGradient id="paint20_linear_525_5078" x1="10.5615" y1="14.8129" x2="10.5615" y2="7.4965" gradientUnits="userSpaceOnUse">
<stop stop-color="#F768CA"/>
<stop offset="0.4544" stop-color="#C741D1"/>
<stop offset="0.8056" stop-color="#6B24C7"/>
<stop offset="0.835" stop-color="#692AC7"/>
<stop offset="0.8747" stop-color="#623BC6"/>
<stop offset="0.9204" stop-color="#5758C6"/>
<stop offset="0.9701" stop-color="#487FC5"/>
<stop offset="1" stop-color="#3D9AC4"/>
</linearGradient>
<linearGradient id="paint21_linear_525_5078" x1="7.31344" y1="11.6813" x2="10.608" y2="11.6813" gradientUnits="userSpaceOnUse">
<stop stop-color="#705AB8"/>
<stop offset="1" stop-color="white"/>
</linearGradient>
<linearGradient id="paint22_linear_525_5078" x1="10.6102" y1="11.6813" x2="13.7889" y2="11.6813" gradientUnits="userSpaceOnUse">
<stop stop-color="#705AB8"/>
<stop offset="1" stop-color="white"/>
</linearGradient>
<linearGradient id="paint23_linear_525_5078" x1="8.54909" y1="13.2257" x2="10.6073" y2="13.2257" gradientUnits="userSpaceOnUse">
<stop stop-color="#705AB8"/>
<stop offset="1" stop-color="white"/>
</linearGradient>
<linearGradient id="paint24_linear_525_5078" x1="10.5511" y1="13.2257" x2="12.5514" y2="13.2257" gradientUnits="userSpaceOnUse">
<stop stop-color="#705AB8"/>
<stop offset="1" stop-color="white"/>
</linearGradient>
<linearGradient id="paint25_linear_525_5078" x1="10.8471" y1="9.02427" x2="11.2949" y2="13.1297" gradientUnits="userSpaceOnUse">
<stop stop-color="#BFD7FF"/>
<stop offset="1"/>
</linearGradient>
<linearGradient id="paint26_linear_525_5078" x1="10.6102" y1="11.1608" x2="13.7889" y2="11.1608" gradientUnits="userSpaceOnUse">
<stop stop-color="#BFD7FF"/>
<stop offset="1"/>
</linearGradient>
<linearGradient id="paint27_linear_525_5078" x1="11.9358" y1="8.90555" x2="12.3837" y2="13.0111" gradientUnits="userSpaceOnUse">
<stop stop-color="#BFD7FF"/>
<stop offset="1"/>
</linearGradient>
<linearGradient id="paint28_linear_525_5078" x1="8.735" y1="9.25449" x2="9.18289" y2="13.36" gradientUnits="userSpaceOnUse">
<stop stop-color="#BFD7FF"/>
<stop offset="1"/>
</linearGradient>
<linearGradient id="paint29_linear_525_5078" x1="10.5625" y1="14.6973" x2="10.5625" y2="13.6457" gradientUnits="userSpaceOnUse">
<stop stop-color="white"/>
<stop offset="0.4444" stop-color="#881DED"/>
<stop offset="1" stop-color="#262262"/>
</linearGradient>
<linearGradient id="paint30_linear_525_5078" x1="8.9607" y1="13.3102" x2="8.9607" y2="10.8925" gradientUnits="userSpaceOnUse">
<stop stop-color="white"/>
<stop offset="0.4444" stop-color="#881DED"/>
<stop offset="1" stop-color="#262262"/>
</linearGradient>
<linearGradient id="paint31_linear_525_5078" x1="12.1956" y1="13.5174" x2="12.1956" y2="10.8925" gradientUnits="userSpaceOnUse">
<stop stop-color="white"/>
<stop offset="0.4444" stop-color="#881DED"/>
<stop offset="1" stop-color="#262262"/>
</linearGradient>
<linearGradient id="paint32_linear_525_5078" x1="10.5625" y1="14.6969" x2="10.5625" y2="11.7534" gradientUnits="userSpaceOnUse">
<stop stop-color="white"/>
<stop offset="0.4444" stop-color="#881DED"/>
<stop offset="1" stop-color="#262262"/>
</linearGradient>
<linearGradient id="paint33_linear_525_5078" x1="5.90442" y1="10.3992" x2="5.90442" y2="6.73002" gradientUnits="userSpaceOnUse">
<stop stop-color="#8980EB"/>
<stop offset="1" stop-color="#705AB8"/>
</linearGradient>
<linearGradient id="paint34_linear_525_5078" x1="5.90455" y1="10.2876" x2="5.90455" y2="6.90323" gradientUnits="userSpaceOnUse">
<stop stop-color="#F768CA"/>
<stop offset="0.4544" stop-color="#C741D1"/>
<stop offset="0.8056" stop-color="#6B24C7"/>
<stop offset="0.835" stop-color="#692AC7"/>
<stop offset="0.8747" stop-color="#623BC6"/>
<stop offset="0.9204" stop-color="#5758C6"/>
<stop offset="0.9701" stop-color="#487FC5"/>
<stop offset="1" stop-color="#3D9AC4"/>
</linearGradient>
<linearGradient id="paint35_linear_525_5078" x1="4.40206" y1="8.83889" x2="5.92603" y2="8.83889" gradientUnits="userSpaceOnUse">
<stop stop-color="#705AB8"/>
<stop offset="1" stop-color="white"/>
</linearGradient>
<linearGradient id="paint36_linear_525_5078" x1="5.92509" y1="8.83889" x2="7.3955" y2="8.83889" gradientUnits="userSpaceOnUse">
<stop stop-color="#705AB8"/>
<stop offset="1" stop-color="white"/>
</linearGradient>
<linearGradient id="paint37_linear_525_5078" x1="4.9733" y1="9.55332" x2="5.9254" y2="9.55332" gradientUnits="userSpaceOnUse">
<stop stop-color="#705AB8"/>
<stop offset="1" stop-color="white"/>
</linearGradient>
<linearGradient id="paint38_linear_525_5078" x1="5.90052" y1="9.55332" x2="6.82583" y2="9.55332" gradientUnits="userSpaceOnUse">
<stop stop-color="#705AB8"/>
<stop offset="1" stop-color="white"/>
</linearGradient>
<linearGradient id="paint39_linear_525_5078" x1="6.03742" y1="7.60972" x2="6.24459" y2="9.5088" gradientUnits="userSpaceOnUse">
<stop stop-color="#BFD7FF"/>
<stop offset="1"/>
</linearGradient>
<linearGradient id="paint40_linear_525_5078" x1="5.92509" y1="8.59823" x2="7.3955" y2="8.59823" gradientUnits="userSpaceOnUse">
<stop stop-color="#BFD7FF"/>
<stop offset="1"/>
</linearGradient>
<linearGradient id="paint41_linear_525_5078" x1="6.53828" y1="7.55501" x2="6.74546" y2="9.45409" gradientUnits="userSpaceOnUse">
<stop stop-color="#BFD7FF"/>
<stop offset="1"/>
</linearGradient>
<linearGradient id="paint42_linear_525_5078" x1="5.05964" y1="7.71641" x2="5.26682" y2="9.61551" gradientUnits="userSpaceOnUse">
<stop stop-color="#BFD7FF"/>
<stop offset="1"/>
</linearGradient>
<linearGradient id="paint43_linear_525_5078" x1="5.9039" y1="10.2341" x2="5.9039" y2="9.74766" gradientUnits="userSpaceOnUse">
<stop stop-color="white"/>
<stop offset="0.4444" stop-color="#881DED"/>
<stop offset="1" stop-color="#262262"/>
</linearGradient>
<linearGradient id="paint44_linear_525_5078" x1="5.16403" y1="9.59239" x2="5.16403" y2="8.47404" gradientUnits="userSpaceOnUse">
<stop stop-color="white"/>
<stop offset="0.4444" stop-color="#881DED"/>
<stop offset="1" stop-color="#262262"/>
</linearGradient>
<linearGradient id="paint45_linear_525_5078" x1="6.66028" y1="9.68826" x2="6.66028" y2="8.47404" gradientUnits="userSpaceOnUse">
<stop stop-color="white"/>
<stop offset="0.4444" stop-color="#881DED"/>
<stop offset="1" stop-color="#262262"/>
</linearGradient>
<linearGradient id="paint46_linear_525_5078" x1="5.9039" y1="10.2336" x2="5.9039" y2="8.87202" gradientUnits="userSpaceOnUse">
<stop stop-color="white"/>
<stop offset="0.4444" stop-color="#881DED"/>
<stop offset="1" stop-color="#262262"/>
</linearGradient>
<linearGradient id="paint47_linear_525_5078" x1="15.2476" y1="10.3992" x2="15.2476" y2="6.73002" gradientUnits="userSpaceOnUse">
<stop stop-color="#8980EB"/>
<stop offset="1" stop-color="#705AB8"/>
</linearGradient>
<linearGradient id="paint48_linear_525_5078" x1="15.2477" y1="10.2876" x2="15.2477" y2="6.90323" gradientUnits="userSpaceOnUse">
<stop stop-color="#F768CA"/>
<stop offset="0.4544" stop-color="#C741D1"/>
<stop offset="0.8056" stop-color="#6B24C7"/>
<stop offset="0.835" stop-color="#692AC7"/>
<stop offset="0.8747" stop-color="#623BC6"/>
<stop offset="0.9204" stop-color="#5758C6"/>
<stop offset="0.9701" stop-color="#487FC5"/>
<stop offset="1" stop-color="#3D9AC4"/>
</linearGradient>
<linearGradient id="paint49_linear_525_5078" x1="13.7491" y1="8.83889" x2="15.2731" y2="8.83889" gradientUnits="userSpaceOnUse">
<stop stop-color="#705AB8"/>
<stop offset="1" stop-color="white"/>
</linearGradient>
<linearGradient id="paint50_linear_525_5078" x1="15.2739" y1="8.83889" x2="16.7443" y2="8.83889" gradientUnits="userSpaceOnUse">
<stop stop-color="#705AB8"/>
<stop offset="1" stop-color="white"/>
</linearGradient>
<linearGradient id="paint51_linear_525_5078" x1="14.3204" y1="9.55332" x2="15.2725" y2="9.55332" gradientUnits="userSpaceOnUse">
<stop stop-color="#705AB8"/>
<stop offset="1" stop-color="white"/>
</linearGradient>
<linearGradient id="paint52_linear_525_5078" x1="15.2476" y1="9.55332" x2="16.1729" y2="9.55332" gradientUnits="userSpaceOnUse">
<stop stop-color="#705AB8"/>
<stop offset="1" stop-color="white"/>
</linearGradient>
<linearGradient id="paint53_linear_525_5078" x1="15.3845" y1="7.60972" x2="15.5917" y2="9.5088" gradientUnits="userSpaceOnUse">
<stop stop-color="#BFD7FF"/>
<stop offset="1"/>
</linearGradient>
<linearGradient id="paint54_linear_525_5078" x1="15.2739" y1="8.59823" x2="16.7443" y2="8.59823" gradientUnits="userSpaceOnUse">
<stop stop-color="#BFD7FF"/>
<stop offset="1"/>
</linearGradient>
<linearGradient id="paint55_linear_525_5078" x1="15.8871" y1="7.555" x2="16.0942" y2="9.45411" gradientUnits="userSpaceOnUse">
<stop stop-color="#BFD7FF"/>
<stop offset="1"/>
</linearGradient>
<linearGradient id="paint56_linear_525_5078" x1="14.4067" y1="7.71641" x2="14.6139" y2="9.61551" gradientUnits="userSpaceOnUse">
<stop stop-color="#BFD7FF"/>
<stop offset="1"/>
</linearGradient>
<linearGradient id="paint57_linear_525_5078" x1="15.2488" y1="10.2341" x2="15.2488" y2="9.74766" gradientUnits="userSpaceOnUse">
<stop stop-color="white"/>
<stop offset="0.4444" stop-color="#881DED"/>
<stop offset="1" stop-color="#262262"/>
</linearGradient>
<linearGradient id="paint58_linear_525_5078" x1="14.5072" y1="9.59239" x2="14.5072" y2="8.47404" gradientUnits="userSpaceOnUse">
<stop stop-color="white"/>
<stop offset="0.4444" stop-color="#881DED"/>
<stop offset="1" stop-color="#262262"/>
</linearGradient>
<linearGradient id="paint59_linear_525_5078" x1="16.0052" y1="9.68826" x2="16.0052" y2="8.47404" gradientUnits="userSpaceOnUse">
<stop stop-color="white"/>
<stop offset="0.4444" stop-color="#881DED"/>
<stop offset="1" stop-color="#262262"/>
</linearGradient>
<linearGradient id="paint60_linear_525_5078" x1="15.2488" y1="10.2336" x2="15.2488" y2="8.87202" gradientUnits="userSpaceOnUse">
<stop stop-color="white"/>
<stop offset="0.4444" stop-color="#881DED"/>
<stop offset="1" stop-color="#262262"/>
</linearGradient>
</defs>
</svg>
