<svg width="188" height="188" viewBox="0 0 188 188" fill="none" xmlns="http://www.w3.org/2000/svg">
<g id="Vector" filter="url(#filter0_d_1186_9488)">
<path fill-rule="evenodd" clip-rule="evenodd" d="M123.888 25.9556C122.675 27.1686 120.707 27.1667 119.491 25.9514C118.276 24.7361 118.274 22.7676 119.487 21.5546C119.498 21.5433 119.51 21.5321 119.521 21.5211L116 18L22.8774 111.123L26.3985 114.644C26.4098 114.632 26.4205 114.621 26.432 114.61C27.645 113.397 29.6135 113.398 30.8288 114.614C32.0441 115.829 32.046 117.798 30.833 119.011C30.8215 119.022 30.8106 119.033 30.7989 119.044L34.388 122.633C34.3993 122.621 34.41 122.611 34.4215 122.599C35.6345 121.386 37.603 121.388 38.8183 122.603C40.0336 123.819 40.0355 125.787 38.8225 127L38.8171 127.005L38.8062 127.016L38.8001 127.022L38.7884 127.034L41.8356 130.081C45.157 126.759 50.548 126.764 53.876 130.092C57.204 133.42 57.209 138.811 53.8875 142.133L56.8669 145.112C56.8782 145.1 56.8889 145.089 56.9004 145.078C58.1135 143.865 60.0819 143.867 61.2972 145.082C62.5125 146.297 62.5145 148.266 61.3014 149.479C61.2899 149.49 61.2791 149.501 61.2674 149.513L64.8564 153.102C64.8624 153.095 64.8678 153.09 64.8738 153.084C64.8791 153.078 64.8845 153.073 64.8899 153.067C66.103 151.854 68.0714 151.856 69.2867 153.072C70.502 154.287 70.504 156.255 69.2909 157.468C69.2794 157.48 69.2686 157.491 69.2569 157.502L72.8456 161.091L165.968 67.9682L162.379 64.3794C162.368 64.3909 162.357 64.4022 162.346 64.4135C161.133 65.6265 159.164 65.6246 157.949 64.4093C156.734 63.194 156.732 61.2255 157.945 60.0125C157.956 60.0012 157.968 59.99 157.979 59.979L154.39 56.3899C154.379 56.4014 154.368 56.4127 154.356 56.424C153.143 57.637 151.175 57.6351 149.96 56.4198C148.744 55.2045 148.742 53.236 149.955 52.023C149.967 52.0117 149.978 52.0005 149.989 51.9895L147.01 49.0101C143.688 52.3318 138.298 52.3266 134.97 48.9986C131.642 45.6705 131.636 40.2798 134.958 36.9581L131.911 33.911C131.9 33.9225 131.889 33.9338 131.877 33.9451C130.665 35.1581 128.696 35.1561 127.481 33.9409C126.265 32.7256 126.264 30.7571 127.477 29.5441C127.488 29.5328 127.499 29.5216 127.511 29.5106L123.922 25.9215C123.91 25.933 123.899 25.9443 123.888 25.9556Z" fill="#220F4E"/>
</g>
<defs>
<filter id="filter0_d_1186_9488" x="0.875" y="0" width="187.094" height="187.091" filterUnits="userSpaceOnUse" color-interpolation-filters="sRGB">
<feFlood flood-opacity="0" result="BackgroundImageFix"/>
<feColorMatrix in="SourceAlpha" type="matrix" values="0 0 0 0 0 0 0 0 0 0 0 0 0 0 0 0 0 0 127 0" result="hardAlpha"/>
<feOffset dy="4"/>
<feGaussianBlur stdDeviation="11"/>
<feComposite in2="hardAlpha" operator="out"/>
<feColorMatrix type="matrix" values="0 0 0 0 0.368627 0 0 0 0 0.0901961 0 0 0 0 0.8 0 0 0 1 0"/>
<feBlend mode="normal" in2="BackgroundImageFix" result="effect1_dropShadow_1186_9488"/>
<feBlend mode="normal" in="SourceGraphic" in2="effect1_dropShadow_1186_9488" result="shape"/>
</filter>
</defs>
</svg>
