<svg width="50" height="50" viewBox="0 0 50 50" fill="none" xmlns="http://www.w3.org/2000/svg">
<mask id="mask0_1030_5434" style="mask-type:alpha" maskUnits="userSpaceOnUse" x="0" y="0" width="50" height="50">
<circle cx="25" cy="25" r="25" fill="#D9D9D9"/>
</mask>
<g mask="url(#mask0_1030_5434)">
<path d="M41.9296 -1.66797H8.07172C2.69372 -1.66797 -1.66602 2.69176 -1.66602 8.06977V41.9276C-1.66602 47.3056 2.69372 51.6654 8.07172 51.6654H41.9296C47.3076 51.6654 51.6673 47.3056 51.6673 41.9276V8.06977C51.6673 2.69176 47.3076 -1.66797 41.9296 -1.66797Z" fill="url(#paint0_linear_1030_5434)"/>
<path d="M16.2893 11.6485C14.6425 11.6498 13.033 12.1393 11.6643 13.0551C10.2956 13.9708 9.2291 15.2717 8.59952 16.7935C7.96994 18.3152 7.80557 19.9893 8.12718 21.6044C8.44879 23.2195 9.24194 24.703 10.4064 25.8675C11.5709 27.032 13.0544 27.8251 14.6695 28.1467C16.2846 28.4683 17.9588 28.304 19.4805 27.6744C21.0022 27.0448 22.3031 25.9783 23.2189 24.6096C24.1346 23.2409 24.6241 21.6314 24.6255 19.9846C24.6243 17.7741 23.7456 15.6545 22.1825 14.0914C20.6194 12.5283 18.4998 11.6497 16.2893 11.6485ZM16.2893 24.895C15.3172 24.895 14.3669 24.6067 13.5586 24.0666C12.7503 23.5265 12.1204 22.7589 11.7484 21.8608C11.3764 20.9626 11.2791 19.9744 11.4689 19.0209C11.6586 18.0675 12.1267 17.1918 12.8142 16.5044C13.5016 15.8171 14.3774 15.349 15.3309 15.1595C16.2843 14.9699 17.2726 15.0674 18.1707 15.4395C19.0687 15.8116 19.8363 16.4417 20.3763 17.25C20.9162 18.0584 21.2044 19.0087 21.2042 19.9808C21.1998 21.2829 20.6805 22.5304 19.7597 23.4511C18.8389 24.3717 17.5914 24.8908 16.2893 24.895ZM40.8441 18.7742C40.8468 19.9662 40.5454 21.1393 39.9686 22.1825C39.0787 21.4582 38.0658 20.8999 36.9783 20.5343C37.2683 19.9928 37.4209 19.3884 37.4229 18.7742C37.4229 17.7907 37.0322 16.8475 36.3367 16.152C35.6413 15.4566 34.6981 15.0659 33.7146 15.0659C32.7311 15.0659 31.7879 15.4566 31.0924 16.152C30.397 16.8475 30.0063 17.7907 30.0063 18.7742C30.0016 19.3892 30.1547 19.9952 30.4509 20.5343C29.3632 20.9001 28.35 21.4584 27.4598 22.1825C26.8661 21.0976 26.5653 19.8768 26.5872 18.6403C26.609 17.4038 26.9526 16.1943 27.5841 15.131C28.2157 14.0678 29.1134 13.1874 30.1888 12.5767C31.2642 11.966 32.4802 11.6461 33.7169 11.6485C35.6062 11.6505 37.4177 12.4018 38.7538 13.7377C40.09 15.0735 40.8417 16.8848 40.8441 18.7742ZM33.7169 21.658C32.0695 21.6566 30.4588 22.1438 29.0883 23.0578C27.7179 23.9718 26.6492 25.2717 26.0175 26.7931C25.3858 28.3145 25.2193 29.989 25.5393 31.605C25.8592 33.2209 26.6511 34.7057 27.8149 35.8716C28.9787 37.0375 30.462 37.8322 32.0774 38.1551C33.6928 38.478 35.3676 38.3146 36.8901 37.6857C38.4127 37.0567 39.7145 35.9904 40.6311 34.6216C41.5476 33.2528 42.0377 31.643 42.0393 29.9957C42.0371 27.7877 41.1601 25.6705 39.6002 24.1078C38.0404 22.5451 35.9248 21.6642 33.7169 21.658ZM33.7169 34.8954C32.746 34.8942 31.7974 34.6051 30.9909 34.0647C30.1844 33.5243 29.5562 32.7568 29.1859 31.8594C28.8156 30.962 28.7198 29.9749 28.9106 29.023C29.1013 28.0711 29.5701 27.1971 30.2575 26.5117C30.945 25.8262 31.8204 25.36 32.7728 25.1721C33.7253 24.9841 34.7121 25.0829 35.6084 25.4558C36.5047 25.8288 37.2703 26.4592 37.8084 27.2673C38.3464 28.0753 38.6327 29.0249 38.631 29.9957C38.6272 31.2965 38.1078 32.5427 37.1866 33.4612C36.2654 34.3796 35.0177 34.8954 33.7169 34.8954ZM23.4165 31.1894C23.4165 33.0803 22.6654 34.8937 21.3283 36.2307C19.9913 37.5678 18.1779 38.3189 16.287 38.3189C14.3961 38.3189 12.5827 37.5678 11.2457 36.2307C9.90861 34.8937 9.15746 33.0803 9.15746 31.1894H12.5787C12.5787 32.1729 12.9694 33.1161 13.6649 33.8115C14.3603 34.507 15.3035 34.8977 16.287 34.8977C17.2705 34.8977 18.2137 34.507 18.9091 33.8115C19.6046 33.1161 19.9953 32.1729 19.9953 31.1894H23.4165Z" fill="#252525"/>
</g>
<defs>
<linearGradient id="paint0_linear_1030_5434" x1="48.948" y1="1.05138" x2="1.79026" y2="48.2091" gradientUnits="userSpaceOnUse">
<stop stop-color="#F1D961"/>
<stop offset="1" stop-color="#CDA146"/>
</linearGradient>
</defs>
</svg>
