<svg width="50" height="50" viewBox="0 0 50 50" fill="none" xmlns="http://www.w3.org/2000/svg">
<path d="M25 50C38.8071 50 50 38.8071 50 25C50 11.1929 38.8071 0 25 0C11.1929 0 0 11.1929 0 25C0 38.8071 11.1929 50 25 50Z" fill="#3375BB"/>
<path fill-rule="evenodd" clip-rule="evenodd" d="M37.2702 12.6149C37.4855 12.6152 37.6986 12.6582 37.8971 12.7415C38.0957 12.8247 38.2757 12.9465 38.4269 13.0999C38.578 13.2532 38.6972 13.435 38.7776 13.6347C38.858 13.8344 38.898 14.0481 38.8952 14.2634C38.8172 18.9209 38.6374 22.4834 38.3014 25.3034C37.9739 28.1234 37.4812 30.2184 36.7389 31.9134C36.2389 33.0459 35.6217 33.9834 34.8964 34.7809C33.9189 35.8359 32.8039 36.6014 31.5839 37.3284C31.0629 37.6399 30.5212 37.9476 29.9539 38.2704C28.7414 38.9589 27.4089 39.7161 25.8964 40.7279C25.6297 40.9073 25.3156 41.0031 24.9942 41.0031C24.6728 41.0031 24.3586 40.9073 24.0919 40.7279C22.5569 39.7051 21.2069 38.9379 19.9844 38.2454C19.7124 38.0912 19.4464 37.9395 19.1864 37.7904C17.7564 36.9629 16.4689 36.1729 15.3439 35.0329C14.5939 34.2829 13.9454 33.3679 13.4289 32.2829C12.7264 30.8304 12.2489 29.0729 11.8989 26.7979C11.4257 23.7556 11.1932 19.7781 11.1057 14.2631C11.1022 14.0485 11.1412 13.8353 11.2204 13.6358C11.2996 13.4363 11.4174 13.2544 11.5672 13.1006C11.8761 12.792 12.2945 12.6179 12.7312 12.6161H13.4032C15.4732 12.6239 20.0432 12.4209 23.9957 9.34363C24.281 9.12338 24.6313 9.00391 24.9918 9.00391C25.3523 9.00391 25.7026 9.12338 25.9879 9.34363C29.9404 12.4211 34.5104 12.6261 36.5904 12.6161M33.6379 30.8736C34.1457 29.8269 34.5679 28.3811 34.8879 26.3036C35.2707 23.8186 35.5052 20.4436 35.6154 15.8511C33.1779 15.7806 28.9904 15.3119 24.9979 12.6236C21.0057 15.3031 16.8182 15.7706 14.3882 15.8506C14.4742 19.6481 14.6459 22.6006 14.9194 24.9206C15.2319 27.5606 15.6769 29.3506 16.2319 30.6081C16.5992 31.4441 17.0054 32.0456 17.4894 32.5781C18.1379 33.2891 18.9582 33.8749 20.0744 34.5481C20.5379 34.8256 21.0494 35.1154 21.6044 35.4306C22.5954 35.9914 23.7294 36.6331 24.9944 37.4381C26.2372 36.6456 27.3544 36.0106 28.3344 35.4531C28.6297 35.2851 28.9119 35.1256 29.1817 34.9689C30.5567 34.1799 31.5717 33.5236 32.3292 32.7589C32.8407 32.2331 33.2557 31.6631 33.6382 30.8731" fill="white"/>
</svg>
