<svg width="100" height="101" viewBox="0 0 100 101" fill="none" xmlns="http://www.w3.org/2000/svg">
<path d="M80.8584 17.2896H19.0741V73.4813H80.8584V17.2896Z" fill="white"/>
<path fill-rule="evenodd" clip-rule="evenodd" d="M100 50.1787C100 77.7932 77.6145 100.179 50 100.179C22.3858 100.179 0 77.7932 0 50.1787C0 22.5645 22.3858 0.178711 50 0.178711C77.6145 0.178711 100 22.5645 100 50.1787ZM35.8314 70.0762H26.1278C24.0888 70.0762 23.0816 70.0762 22.4675 69.6834C21.8042 69.2533 21.3989 68.5409 21.3497 67.7546C21.3128 67.0302 21.8165 66.1456 22.8237 64.3768L46.7831 22.1451C47.8026 20.3517 48.3184 19.4551 48.9694 19.1235C49.6696 18.7673 50.5049 18.7673 51.205 19.1235C51.856 19.4551 52.3719 20.3517 53.3913 22.1451L58.3169 30.7432L58.342 30.7871C59.4431 32.711 60.0015 33.6866 60.2453 34.7106C60.5155 35.8284 60.5155 37.0075 60.2453 38.1253C59.9997 39.1571 59.4469 40.1398 58.3292 42.0928L45.7439 64.34L45.7113 64.3969C44.6029 66.3367 44.0412 67.3199 43.2627 68.0615C42.4152 68.8725 41.3957 69.4617 40.2779 69.7939C39.2584 70.0762 38.1161 70.0762 35.8314 70.0762ZM60.3362 70.0762H74.2403C76.2916 70.0762 77.3236 70.0762 77.9381 69.6714C78.6012 69.2413 79.0186 68.5163 79.0559 67.7306C79.0912 67.0296 78.5985 66.1794 77.6332 64.5134C77.5999 64.4567 77.5666 64.3989 77.5326 64.3402L70.5679 52.4257L70.4887 52.2916C69.51 50.6366 69.016 49.8008 68.3815 49.4778C67.6818 49.1215 66.8582 49.1215 66.1584 49.4778C65.5196 49.8094 65.0038 50.6815 63.9843 52.438L57.0443 64.3525L57.0206 64.3936C56.0047 66.1472 55.4969 67.0236 55.5336 67.7426C55.5827 68.5289 55.988 69.2533 56.6513 69.6834C57.2532 70.0762 58.285 70.0762 60.3362 70.0762Z" fill="#E84142"/>
</svg>
