<svg width="100" height="101" viewBox="0 0 100 101" fill="none" xmlns="http://www.w3.org/2000/svg">
<path fill-rule="evenodd" clip-rule="evenodd" d="M50 0.178711C77.6162 0.178711 100 22.5625 100 50.1787C100 77.7949 77.6162 100.179 50 100.179C22.3838 100.179 0 77.7949 0 50.1787C0 22.5625 22.3838 0.178711 50 0.178711Z" fill="#F0B90B"/>
<path d="M27.48 50.1788L27.516 63.4L38.75 70.0106V77.7509L20.9415 67.3062V46.3126L27.48 50.1788ZM27.48 36.9577V44.662L20.9375 40.7918V33.0875L27.48 29.2173L34.0545 33.0875L27.48 36.9577ZM43.4415 33.0875L49.984 29.2173L56.5585 33.0875L49.984 36.9577L43.4415 33.0875Z" fill="white"/>
<path d="M32.2075 60.6596V52.9192L38.75 56.7894V64.4937L32.2075 60.6596ZM43.4415 72.783L49.984 76.6532L56.5585 72.783V80.4873L49.984 84.3575L43.4415 80.4873V72.783ZM65.9415 33.0875L72.484 29.2173L79.0585 33.0875V40.7918L72.484 44.662V36.9577L65.9415 33.0875ZM72.484 63.4L72.52 50.1788L79.0625 46.3086V67.3022L61.254 77.7469V70.0065L72.484 63.4Z" fill="white"/>
<path d="M67.7925 60.6593L61.25 64.4935V56.7891L67.7925 52.9189V60.6593Z" fill="white"/>
<path d="M67.7924 39.6979L67.8285 47.4383L56.5625 54.0489V67.3021L50.02 71.1362L43.4775 67.3021V54.0489L32.2115 47.4383V39.6979L38.782 35.8277L49.98 42.4703L61.246 35.8277L67.8205 39.6979H67.7924ZM32.2075 26.4808L49.984 16L67.7924 26.4808L61.25 30.351L49.984 23.7083L38.75 30.351L32.2075 26.4808Z" fill="white"/>
</svg>
