<svg width="16" height="16" viewBox="0 0 16 16" fill="none" xmlns="http://www.w3.org/2000/svg">
<circle cx="8" cy="8" r="8" fill="url(#paint0_linear_1202_793)"/>
<path d="M3.05505 8.02993L6.25452 10.408C6.25959 10.408 6.25959 10.413 6.26466 10.413L7.45115 11.2916C7.55256 11.3673 7.69454 11.2966 7.69454 11.1704L7.69961 4.62187C7.68947 4.50574 7.67426 4.38456 7.6489 4.26844C7.62355 4.15736 7.58806 4.05133 7.53735 3.96045C7.62355 4.60167 7.25848 5.34892 6.63988 5.83867C6.50298 5.94975 6.31537 6.07092 6.10748 6.15676C5.88438 6.25269 5.21 6.48494 5.21 6.48494L3.17674 7.21704C2.82688 7.34327 2.75589 7.80777 3.05505 8.02993Z" fill="white"/>
<path d="M6.2301 6.10096C6.23517 6.09591 6.24531 6.09591 6.25039 6.09086C6.26053 6.08581 6.27067 6.08076 6.28588 6.07066C6.30109 6.06562 6.31123 6.05552 6.32644 6.05047C6.33151 6.04542 6.34165 6.04037 6.34672 6.04037C6.36194 6.03027 6.38222 6.02017 6.39743 6.01008C6.4025 6.00503 6.40757 6.00503 6.41264 5.99998C6.42785 5.98988 6.44306 5.97978 6.46335 5.96969C6.47349 5.96464 6.47856 5.95959 6.4887 5.95454C6.49884 5.94444 6.51405 5.93939 6.52419 5.92929C6.5394 5.9192 6.55461 5.90405 6.5749 5.89395C6.57997 5.89395 6.57997 5.8889 6.58504 5.8889C6.60532 5.87375 6.6256 5.85861 6.64588 5.84346C7.26448 5.35371 7.62956 4.60646 7.54336 3.96524C7.50786 3.90465 7.46223 3.84911 7.41153 3.80872L6.35687 3.03118C6.25546 2.95544 6.10841 3.02613 6.10841 3.15235V4.98513C6.10841 6.1363 5.21094 6.48468 5.21094 6.48468C5.21094 6.48468 5.89038 6.25748 6.10841 6.16155C6.14898 6.14135 6.18954 6.12115 6.2301 6.10096Z" fill="#F2EEFF"/>
<path d="M12.8768 7.90365L9.67531 5.52559C9.67023 5.52559 9.67023 5.52054 9.66516 5.52054L8.47791 4.64202C8.37644 4.56628 8.23438 4.63697 8.23438 4.76319V11.3117C8.24452 11.4278 8.25974 11.549 8.28511 11.6651C8.31048 11.7762 8.346 11.8822 8.39673 11.9731C8.31048 11.3319 8.67579 10.5847 9.29478 10.0949C9.43177 9.98383 9.6195 9.86265 9.82752 9.77682C10.0457 9.68089 10.7256 9.45369 10.7256 9.45369L12.7601 8.72159C13.1102 8.59031 13.1762 8.12581 12.8768 7.90365Z" fill="white"/>
<path d="M9.70748 9.83245C9.70241 9.8375 9.69226 9.8375 9.68719 9.84255C9.67704 9.8476 9.66689 9.85265 9.65167 9.86275C9.63645 9.86779 9.62631 9.87789 9.61108 9.88294C9.60601 9.88799 9.59586 9.89304 9.59079 9.89304C9.57557 9.90314 9.55527 9.91324 9.54005 9.92333C9.53498 9.92838 9.5299 9.92838 9.52483 9.93343C9.50961 9.94353 9.49439 9.95363 9.47409 9.96373C9.46395 9.96877 9.45887 9.97382 9.44872 9.97887C9.43858 9.98897 9.42336 9.99402 9.41321 10.0041C9.39799 10.0142 9.38277 10.0294 9.36247 10.0395C9.3574 10.0395 9.3574 10.0445 9.35232 10.0445C9.33203 10.0597 9.31174 10.0748 9.29144 10.0899C8.67245 10.5797 8.30714 11.3269 8.39339 11.9682C8.42891 12.0288 8.47457 12.0843 8.52531 12.1247L9.57557 12.9022C9.67704 12.978 9.82418 12.9073 9.82418 12.7811V10.9483C9.82418 9.80216 10.7222 9.44873 10.7222 9.44873C10.7222 9.44873 10.0423 9.67593 9.82418 9.77186C9.78866 9.79206 9.74807 9.81226 9.70748 9.83245Z" fill="#F2EEFF"/>
<defs>
<linearGradient id="paint0_linear_1202_793" x1="8" y1="0" x2="8" y2="16" gradientUnits="userSpaceOnUse">
<stop stop-color="#7770E0"/>
<stop offset="1" stop-color="#554FD8"/>
</linearGradient>
</defs>
</svg>
