<svg width="61" height="61" viewBox="0 0 61 61" fill="none" xmlns="http://www.w3.org/2000/svg">
<path d="M13.6288 16.9201C12.7576 16.918 11.9009 16.6969 11.1373 16.2774C10.3736 15.858 9.7277 15.2534 9.2586 14.5192L0.439453 0.600098V16.9829C0.439453 19.7297 1.53063 22.3641 3.47294 24.3063C5.41525 26.2486 8.0496 27.3398 10.7963 27.3398H13.872L21.2475 44.3817L30.4588 16.9201H13.6288Z" fill="#09F595"/>
<path d="M51.581 14.5192C51.113 15.2544 50.4672 15.8597 49.7034 16.2794C48.9395 16.699 48.0822 16.9193 47.2107 16.9201H30.4199L39.6313 44.3817L47.0067 27.3398H50.0824C52.8293 27.3398 55.4636 26.2486 57.4059 24.3063C59.3482 22.3641 60.4394 19.7297 60.4394 16.9829V0.600098L51.581 14.5192Z" fill="#09F595"/>
<path d="M24.5429 52.0394L21.2082 44.3423L18.0698 53.7577C17.8069 54.5392 17.734 55.372 17.8568 56.1874C17.9797 57.0028 18.295 57.7771 18.7765 58.4465C19.258 59.1157 19.8918 59.6608 20.6259 60.0366C21.3598 60.4124 22.1726 60.6081 22.9972 60.6074H37.9049C38.7287 60.6068 39.5406 60.4103 40.2735 60.0339C41.0065 59.6576 41.6394 59.1124 42.1199 58.4432C42.6005 57.774 42.9151 57.0002 43.0376 56.1855C43.1601 55.3708 43.087 54.5386 42.8244 53.7577L39.686 44.3423L36.3513 52.0394H24.5429Z" fill="#09F595"/>
</svg>
