<svg width="267" height="267" viewBox="0 0 267 267" fill="none" xmlns="http://www.w3.org/2000/svg">
<path d="M133.5 267C207.23 267 267 207.23 267 133.5C267 59.77 207.23 0 133.5 0C59.77 0 0 59.77 0 133.5C0 207.23 59.77 267 133.5 267Z" fill="url(#paint0_linear_1059_5331)"/>
<path d="M209.4 88.6997H175.4C169.4 88.6997 165.5 94.9997 168.2 100.3L182.8 129.8C183.9 132.1 183.9 134.7 182.8 137L168.2 166.5C165.5 171.9 169.5 178.1 175.4 178.1H209.4C212.3 178.1 214.9 176.6 216.4 174.1L237.6 137.4C239 134.9 239 131.8 237.6 129.3L216.4 92.5997C215 90.2997 212.3 88.6997 209.4 88.6997Z" fill="url(#paint1_linear_1059_5331)"/>
<path d="M69.7998 178.3H100.2C107.4 178.3 112.1 170.7 108.9 164.3L95.7998 137.9C94.4998 135.2 94.4998 132 95.7998 129.3L108.9 102.9C112.1 96.3999 107.4 88.8999 100.2 88.8999H69.7998C66.2998 88.8999 63.0998 90.7999 61.3998 93.7999L41.1998 128.8C39.4998 131.8 39.4998 135.5 41.1998 138.5L61.3998 173.5C63.0998 176.4 66.2998 178.3 69.7998 178.3Z" fill="url(#paint2_linear_1059_5331)"/>
<path d="M160.1 215.7H82.0002C76.8002 215.7 72.0002 212.9 69.4002 208.4L30.4002 140.8C27.8002 136.3 27.8002 130.7 30.4002 126.2L69.4002 58.5998C72.0002 54.0998 76.8002 51.2998 82.0002 51.2998H160.1C165.3 51.2998 170.1 54.0998 172.7 58.5998L211.7 126.2C214.3 130.7 214.3 136.3 211.7 140.8L172.7 208.4C170.1 212.9 165.3 215.7 160.1 215.7ZM87.8002 205.6H154.2C159.4 205.6 164.2 202.8 166.8 198.3L200 140.8C202.6 136.3 202.6 130.7 200 126.2L166.8 68.6998C164.2 64.1998 159.4 61.3998 154.2 61.3998H87.8002C82.6002 61.3998 77.8002 64.1998 75.2002 68.6998L42.0002 126.2C39.4002 130.7 39.4002 136.3 42.0002 140.8L75.2002 198.3C77.8002 202.8 82.6002 205.6 87.8002 205.6Z" fill="url(#paint3_linear_1059_5331)"/>
<defs>
<linearGradient id="paint0_linear_1059_5331" x1="133.5" y1="0" x2="133.5" y2="267" gradientUnits="userSpaceOnUse">
<stop stop-color="#CCFA82"/>
<stop offset="1" stop-color="#0DB4C8"/>
</linearGradient>
<linearGradient id="paint1_linear_1059_5331" x1="167.3" y1="133.499" x2="238.667" y2="133.499" gradientUnits="userSpaceOnUse">
<stop stop-color="white" stop-opacity="0.1"/>
<stop offset="1" stop-color="white"/>
</linearGradient>
<linearGradient id="paint2_linear_1059_5331" x1="39.842" y1="133.499" x2="109.955" y2="133.499" gradientUnits="userSpaceOnUse">
<stop stop-color="white" stop-opacity="0.1"/>
<stop offset="1" stop-color="white"/>
</linearGradient>
<linearGradient id="paint3_linear_1059_5331" x1="56.6262" y1="227.834" x2="163.292" y2="71.5691" gradientUnits="userSpaceOnUse">
<stop stop-color="white" stop-opacity="0.1"/>
<stop offset="1" stop-color="white"/>
</linearGradient>
</defs>
</svg>
