<svg width="60" height="66" viewBox="0 0 60 66" fill="none" xmlns="http://www.w3.org/2000/svg">
<path fill-rule="evenodd" clip-rule="evenodd" d="M18.9678 32.8633L38.4307 52.3291L50.7157 40.0441C52.9124 38.0662 56.2731 38.1542 58.3633 40.2444C60.4536 42.3346 60.5416 45.6953 58.5636 47.892L42.3516 64.1071C40.1739 66.2487 36.6813 66.2487 34.5037 64.1071L11.1139 40.7112V54.6171C11.1139 57.6861 8.62594 60.174 5.55693 60.174C2.48792 60.174 0 57.6861 0 54.6171V11.0913C0 8.02234 2.48792 5.53442 5.55693 5.53442C8.62594 5.53442 11.1139 8.02234 11.1139 11.0913V24.9973L34.5007 1.60744C36.6776 -0.535814 40.1716 -0.535814 42.3486 1.60744L58.5726 17.8194C60.5506 20.0162 60.4626 23.3769 58.3724 25.4671C56.2822 27.5573 52.9214 27.6453 50.7247 25.6673L38.4397 13.3823L18.9678 32.8633ZM38.4397 27.3003C36.1894 27.2991 34.16 28.6537 33.298 30.7323C32.4361 32.811 32.9113 35.2042 34.502 36.7958C36.0928 38.3874 38.4857 38.8639 40.5648 38.0031C42.644 37.1422 43.9997 35.1136 43.9997 32.8633C44.0005 31.3879 43.4151 29.9726 42.3724 28.9288C41.3297 27.885 39.9151 27.2981 38.4397 27.2973V27.3003Z" fill="#23AF91"/>
</svg>
