<?xml version="1.0" encoding="iso-8859-1"?>
<!-- Uploaded to: SVG Repo, www.svgrepo.com, Generator: SVG Repo Mixer Tools -->
<!DOCTYPE svg PUBLIC "-//W3C//DTD SVG 1.1//EN" "http://www.w3.org/Graphics/SVG/1.1/DTD/svg11.dtd">
<svg fill="#ff8c00" version="1.1" id="Capa_1" xmlns="http://www.w3.org/2000/svg" xmlns:xlink="http://www.w3.org/1999/xlink" 
	 width="800px" height="800px" viewBox="0 0 226.944 226.944"
	 xml:space="preserve">
<g>
	<g>
		<path d="M75.044,21.939c3.384,0.902,7.272,2.026,10.584,3.963c4.014,2.346,6.715,4.897,8.256,7.797
			c1.248,2.349,1.953,4.723,2.095,7.056c0.049,0.793,0.057,1.529,0.032,2.228c5.688-1.6,11.547-2.43,17.459-2.43
			c4.418,0,8.807,0.469,13.118,1.368c-0.041-0.109-0.082-0.218-0.123-0.324c-4.238-10.78-12.264-19.42-22.022-23.704
			c-4.122-1.81-8.844-2.811-14.035-2.976c-5.563-0.178-10.955,1.18-15.428,2.508c-1.007,0.299-1.692,1.231-1.677,2.28
			C73.318,20.757,74.03,21.668,75.044,21.939z"/>
		<path d="M164.682,55.179c-5.401,0-10.642,0.816-15.64,2.35c-10.424-7.312-22.583-11.514-35.57-11.514
			c-12.989,0-25.148,4.202-35.572,11.514c-4.998-1.533-10.237-2.35-15.639-2.35C27.876,55.179,0,88.242,0,129.029
			s27.875,73.851,62.261,73.851c5.401,0,10.641-0.816,15.639-2.351c10.424,7.312,22.583,11.514,35.572,11.514
			c12.987,0,25.146-4.201,35.571-11.514c4.998,1.533,10.238,2.351,15.641,2.351c34.385,0,62.261-33.063,62.261-73.851
			S199.067,55.179,164.682,55.179z M134.766,112.37l12.875-25.966c0.24-0.488,0.74-0.792,1.285-0.782
			c0.543,0.01,1.032,0.332,1.256,0.827l11.713,25.867c0.195,0.433,0.16,0.936-0.096,1.336c-0.256,0.401-0.697,0.646-1.173,0.65
			l-24.653,0.234c-0.004,0-0.008,0-0.013,0c-0.003,0-0.006,0-0.01,0c-0.776,0-1.405-0.629-1.405-1.405
			C134.542,112.85,134.624,112.589,134.766,112.37z M65.05,112.314l11.712-25.867c0.224-0.495,0.713-0.817,1.256-0.827
			c0.545-0.01,1.044,0.294,1.285,0.782l12.875,25.966c0.141,0.219,0.223,0.48,0.223,0.761c0,0.776-0.63,1.405-1.407,1.405
			c-0.002,0-0.006,0-0.009,0c-0.004,0-0.009,0-0.013,0L66.318,114.3c-0.475-0.004-0.916-0.249-1.172-0.65
			C64.89,113.25,64.854,112.748,65.05,112.314z M45.493,179.218c-0.286,0.56-0.882,0.921-1.519,0.921
			c-0.215,0-0.425-0.041-0.623-0.121c-19.038-7.704-31.828-28.981-31.828-52.946c0-23.965,12.79-45.242,31.826-52.946
			c0.204-0.082,0.417-0.124,0.634-0.124c0.641,0,1.219,0.354,1.509,0.924c0.401,0.788,0.14,1.735-0.61,2.204
			C29.336,86.862,19.679,106,19.679,127.072c0,21.073,9.657,40.209,25.204,49.942C45.632,177.484,45.894,178.431,45.493,179.218z
			 M184.055,149.863l-12.682,9.278c-2.436,1.783-4.951,3.626-7.447,5.418l-10.061,7.229c-0.479,0.345-1.12,0.354-1.607,0.024
			l-11.353-7.668c-2.379-1.607-4.782-3.26-7.104-4.859c-1.041-0.716-2.082-1.432-3.125-2.146l-0.031-0.021l-5.012,3.492
			l-11.443,8.208c-0.215,0.146-0.461,0.221-0.709,0.235c-0.003,0.002-0.006,0.004-0.008,0.006c-0.003-0.001-0.006-0.003-0.007-0.005
			c-0.309,0.013-0.62-0.071-0.882-0.259l-10.232-7.46l-6.051-4.217l-0.031,0.021c-1.043,0.715-2.083,1.431-3.125,2.146
			c-2.323,1.6-4.726,3.252-7.105,4.859l-11.351,7.668c-0.488,0.33-1.13,0.32-1.608-0.024l-10.062-7.229
			c-2.495-1.792-5.012-3.635-7.446-5.418l-12.682-9.278c-0.543-0.397-0.729-1.125-0.443-1.733c0.287-0.609,0.965-0.931,1.618-0.767
			l27.017,6.825l23.052-19.669c0.462-0.395,1.124-0.447,1.642-0.133l17.696,10.715l17.697-10.716
			c0.519-0.313,1.181-0.261,1.642,0.133l23.053,19.669l27.018-6.825c0.651-0.164,1.33,0.156,1.616,0.767
			C184.784,148.738,184.598,149.465,184.055,149.863z"/>
	</g>
</g>
</svg>