<?xml version="1.0" encoding="utf-8"?>

<!-- Uploaded to: SVG Repo, www.svgrepo.com, Generator: SVG Repo Mixer Tools -->
<svg version="1.1" id="Icons" xmlns="http://www.w3.org/2000/svg" xmlns:xlink="http://www.w3.org/1999/xlink" 
	 viewBox="0 0 32 32" xml:space="preserve">
<style type="text/css">
	.st0{fill:none;stroke:#fff;stroke-width:2;stroke-linecap:round;stroke-linejoin:round;stroke-miterlimit:10;}
</style>
<polyline class="st0" points="3,3 29,3 29,29 "/>
<line class="st0" x1="8" y1="24" x2="29" y2="3"/>
<path class="st0" d="M5,3c5.5,0,10,4.5,10,10c0,2.3-0.8,4.3-2,6"/>
<path class="st0" d="M13,19c1.7-1.3,3.8-2,6-2c5.5,0,10,4.5,10,10"/>
<path class="st0" d="M15,3c3.2,0,5.8,2.6,5.8,5.8c0,1.3-0.4,2.5-1.2,3.5"/>
<path class="st0" d="M19.7,12.3c1-0.7,2.2-1.2,3.5-1.2c3.2,0,5.8,2.6,5.8,5.8"/>
</svg>