<svg width="60" height="60" viewBox="0 0 60 60" fill="none" xmlns="http://www.w3.org/2000/svg">
<g id="Group 1261154349">
<g id="Group 1000009206">
<path id="Vector" d="M48.5151 10.2661H11.4445V43.9812H48.5151V10.2661Z" fill="white"/>
<path id="Vector_2" fill-rule="evenodd" clip-rule="evenodd" d="M60 30C60 46.5687 46.5687 60 30 60C13.4315 60 0 46.5687 0 30C0 13.4315 13.4315 0 30 0C46.5687 0 60 13.4315 60 30ZM21.4989 41.9385H15.6767C14.4533 41.9385 13.849 41.9385 13.4805 41.7028C13.0825 41.4447 12.8393 41.0173 12.8098 40.5455C12.7877 40.1109 13.0899 39.5801 13.6942 38.5188L28.0699 13.1798C28.6816 12.1038 28.9911 11.5658 29.3817 11.3668C29.8017 11.1531 30.3029 11.1531 30.723 11.3668C31.1136 11.5658 31.4231 12.1038 32.0348 13.1798L34.9901 18.3387L35.0052 18.365C35.6659 19.5194 36.0009 20.1048 36.1472 20.7191C36.3093 21.3898 36.3093 22.0973 36.1472 22.768C35.9998 23.387 35.6682 23.9766 34.9975 25.1484L27.4463 38.4968L27.4268 38.5309C26.7618 39.6948 26.4247 40.2847 25.9576 40.7297C25.4491 41.2162 24.8374 41.5698 24.1667 41.7691C23.555 41.9385 22.8697 41.9385 21.4989 41.9385ZM36.2017 41.9385H44.5442C45.775 41.9385 46.3941 41.9385 46.7629 41.6956C47.1607 41.4376 47.4112 41.0025 47.4336 40.5312C47.4547 40.1105 47.1591 39.6004 46.5799 38.6008C46.5599 38.5668 46.5399 38.5321 46.5196 38.4969L42.3407 31.3482L42.2932 31.2677C41.706 30.2747 41.4096 29.7733 41.0289 29.5794C40.6091 29.3657 40.1149 29.3657 39.695 29.5794C39.3118 29.7784 39.0023 30.3017 38.3906 31.3556L34.2266 38.5043L34.2123 38.5289C33.6028 39.5811 33.2982 40.1069 33.3201 40.5383C33.3496 41.0101 33.5928 41.4447 33.9908 41.7028C34.3519 41.9385 34.971 41.9385 36.2017 41.9385Z" fill="#E84142"/>
</g>
</g>
</svg>
