<svg width="47" height="60" viewBox="0 0 47 60" fill="none" xmlns="http://www.w3.org/2000/svg">
<g id="baby-doge-coin-babydoge-logo 1" clip-path="url(#clip0_55_106)">
<g id="Group">
<path id="Vector" d="M16.6308 59.9926C15.8327 59.6951 15.078 59.3323 14.3742 58.8534C14.142 58.6938 13.8518 58.7736 13.5833 58.7663C12.4441 58.7373 11.3049 58.8462 10.173 58.6938C8.23562 58.4398 6.98758 57.3079 6.29826 55.5447C5.81937 54.3112 5.42754 53.0341 5.35498 51.6917C5.34047 51.4015 5.12279 51.3434 4.94864 51.2273C1.56734 48.9925 -0.159593 45.8724 0.0145514 41.7873C0.0943676 39.9805 0.653081 38.3116 1.64716 36.7951C1.8866 36.4323 2.10428 36.0478 2.63397 36.1421C3.18543 36.2364 3.17092 36.7081 3.23622 37.0999C3.74414 39.8427 5.2026 41.9179 7.58983 43.3473C8.02519 43.6085 8.03245 43.6013 8.06147 43.0861C8.14855 41.3592 8.73628 39.8209 9.82469 38.4713C10.2093 37.9924 10.0424 37.1144 9.51993 36.8387C4.32463 34.0596 1.76325 29.2706 2.31471 23.3715C2.47434 21.6809 2.76458 20.0192 3.31604 18.4084C3.43939 18.0456 3.47567 17.69 3.38134 17.2982C2.29294 12.872 2.19861 8.44588 3.43939 4.02696C3.64982 3.26508 3.92554 2.51771 4.32463 1.83565C5.36949 0.0651797 6.31277 -0.254085 8.1558 0.166764C9.91901 0.573101 11.392 1.56717 12.8504 2.57576C13.576 3.08368 14.2654 3.63514 14.9184 4.23739C15.1071 4.41153 15.2594 4.44056 15.4989 4.33172C18.7133 2.94582 22.0656 2.29278 25.5702 2.45967C28.255 2.59027 30.8163 3.24331 33.2761 4.28818C33.6027 4.42604 33.7986 4.39702 34.067 4.16483C35.7142 2.74991 37.4483 1.45833 39.4655 0.587613C40.2854 0.232068 41.1271 -0.0146365 42.0341 -0.000124448C42.767 0.00713157 43.3765 0.290116 43.8699 0.841573C44.9366 2.0243 45.4009 3.49002 45.7347 4.99201C46.6272 9.07715 46.5692 13.155 45.5461 17.2111C45.4517 17.5739 45.4517 17.9077 45.5678 18.2778C46.1991 20.2587 46.5982 22.2904 46.6345 24.3801C46.6925 27.6163 45.9742 30.6203 43.8844 33.1889C42.6437 34.7199 41.1344 35.9317 39.3857 36.8387C38.9213 37.0854 38.6746 37.9924 39.0229 38.3987C40.7426 40.4014 41.0473 42.7596 40.7789 45.2629C40.7353 45.6765 40.8296 45.8942 41.1924 46.1336C42.3897 46.9173 43.0645 48.0855 43.3693 49.4641C43.9425 52.0328 43.2894 54.4055 42.0341 56.6113C41.2795 57.9392 39.9952 58.5995 38.4569 58.7083C37.354 58.7881 36.2438 58.7518 35.1337 58.7446C34.8072 58.7446 34.5314 58.8099 34.263 59.0203C33.6099 59.521 32.8408 59.7532 32.0426 59.8838C31.9773 59.891 31.9193 59.9055 31.9047 59.9781C31.1429 59.9781 30.3882 59.9781 29.6264 59.9781C29.3651 59.8838 29.0822 59.9128 28.8137 59.8475C28.4073 59.6734 28.0155 59.4774 27.7035 59.1437C27.5149 58.9477 27.2899 58.8752 27.0214 58.8752C25.3163 58.8752 23.6184 58.8752 21.9132 58.8752C21.6665 58.8752 21.4416 58.926 21.2602 59.1001C20.7595 59.5863 20.179 59.9055 19.4752 59.9708C19.3809 59.9708 19.2865 59.9708 19.1922 59.9708C19.1124 59.891 19.0181 59.9346 18.9237 59.9201C18.8512 59.9273 18.7714 59.9055 18.7133 59.9708C18.5247 59.9708 18.336 59.9708 18.1473 59.9708C17.9587 59.891 17.77 59.891 17.5814 59.9708C17.458 59.9708 17.3274 59.9708 17.2041 59.9708C17.1388 59.9128 17.0807 59.9128 17.0154 59.9708C16.8848 59.9926 16.7542 59.9926 16.6308 59.9926Z" fill="#31201B"/>
<path id="Vector_2" d="M19.4751 59.9926C20.2007 59.7387 20.8755 59.3904 21.4052 58.8172C21.4995 58.7156 21.6446 58.7664 21.768 58.7664C23.553 58.7664 25.338 58.7736 27.1229 58.7736C27.3914 58.7736 27.6018 58.8244 27.7832 59.0566C28.059 59.4121 28.4726 59.5935 28.8716 59.7895C28.9079 59.9346 29.1909 59.7532 29.1474 59.9999C25.933 59.9926 22.704 59.9926 19.4751 59.9926Z" fill="#FEFEFE"/>
<path id="Vector_3" d="M29.1546 59.9926C29.0966 59.8766 28.9152 59.9273 28.8789 59.7822C29.1329 59.8403 29.4159 59.804 29.6335 59.9926C29.4739 59.9926 29.3143 59.9926 29.1546 59.9926Z" fill="#EEEDED"/>
<path id="Vector_4" d="M17.5813 59.9926C17.77 59.8475 17.9586 59.8475 18.1473 59.9926C17.9586 59.9926 17.77 59.9926 17.5813 59.9926Z" fill="#4B3C37"/>
<path id="Vector_5" d="M18.9091 59.9128C19.0107 59.92 19.134 59.833 19.1921 59.9926C19.0978 59.9926 19.0034 59.9926 18.9091 59.9926C18.8801 59.9708 18.8656 59.9563 18.8801 59.9345C18.8873 59.92 18.9019 59.9128 18.9091 59.9128Z" fill="#AAA3A1"/>
<path id="Vector_6" d="M17.0081 59.9926C17.0734 59.8548 17.1314 59.8765 17.1967 59.9926C17.1387 59.9926 17.0734 59.9926 17.0081 59.9926Z" fill="#978F8C"/>
<path id="Vector_7" d="M18.9092 59.9127C18.9092 59.9417 18.9092 59.9635 18.9019 59.9925C18.8366 59.9925 18.7786 59.9925 18.7133 59.9925C18.7495 59.891 18.8294 59.891 18.9092 59.9127Z" fill="#8E8683"/>
<path id="Vector_8" d="M38.1013 4.01251C37.4265 4.82519 36.6573 5.5653 36.1059 6.4723C35.7721 7.0165 35.8229 7.29223 36.3308 7.6768C41.2939 11.4209 44.1891 16.3913 45.1178 22.5154C45.3283 23.8795 45.2122 25.2581 45.1976 26.6295C45.1976 26.7311 45.1686 26.8182 45.0888 26.8835C44.2036 27.7687 43.166 28.371 41.9034 28.4943C39.3711 28.741 37.2813 27.7542 35.4238 26.1289C33.6969 24.6196 32.1513 22.9217 30.3736 21.4705C29.2707 20.5707 28.1388 19.6855 26.7238 19.3155C24.3221 18.6769 22.0582 18.9744 19.9685 20.3821C18.8511 21.1367 17.8715 22.0582 16.8629 22.9435C15.4335 24.206 14.2072 25.708 12.6399 26.8109C11.6168 27.5293 10.5284 28.175 9.25859 28.3419C7.40105 28.5814 5.58705 28.5524 4.09231 27.1665C3.98347 27.0794 3.88914 26.9851 3.82384 26.8617C3.58439 26.0273 3.62067 25.1783 3.66421 24.3294C3.81658 21.0787 4.65102 18.0094 6.18204 15.136C7.68404 12.3061 9.66493 9.88263 12.2263 7.94527C13.2276 7.18339 13.2276 7.00925 12.4948 5.97889C11.8853 5.12994 11.0653 4.46964 10.4776 3.59892C10.7316 3.4538 10.9347 3.61343 11.1452 3.70776C12.0159 4.10684 12.756 4.70183 13.4671 5.33311C13.8371 5.65963 14.2217 5.96438 14.5918 6.27639C14.9473 6.58114 15.2956 6.62468 15.7237 6.43602C16.9064 5.91359 18.1182 5.46372 19.388 5.15171C21.4922 4.62927 23.6183 4.37531 25.7733 4.53495C28.2041 4.70909 30.5405 5.28232 32.7753 6.26913C32.935 6.34169 33.1019 6.39974 33.2542 6.46505C33.6533 6.64645 33.9436 6.53761 34.2773 6.25462C35.2787 5.3839 36.3743 4.63653 37.4482 3.84562C37.7094 3.65697 37.9489 3.69325 38.1013 4.01251Z" fill="#FDA524"/>
<path id="Vector_9" d="M4.07787 27.0575C4.46244 27.3042 4.81799 27.609 5.23158 27.7976C7.0093 28.6321 8.82331 28.5015 10.6083 27.8267C12.4803 27.1156 13.8227 25.6861 15.2231 24.3438C16.6598 22.9651 18.0965 21.5865 19.7073 20.411C22.4501 18.4084 26.3901 18.3793 29.1184 20.3675C30.7365 21.5502 32.1732 22.9143 33.6099 24.293C34.2847 24.9388 34.9667 25.5701 35.6633 26.1941C37.1871 27.5582 38.9721 28.3418 41.0183 28.4362C42.1284 28.487 43.1806 28.233 44.1021 27.5509C44.4141 27.3115 44.7188 27.0575 45.0889 26.8979C45.0599 27.3768 44.9583 27.8484 44.7986 28.2983C43.1951 30.8379 41.0545 32.739 38.3118 33.9943C35.5037 35.2859 32.5505 35.9679 29.503 36.309C27.493 36.5339 25.4759 36.6572 23.4514 36.5847C19.7944 36.4613 16.1737 36.0695 12.6908 34.836C10.3471 34.0088 8.17752 32.8841 6.3998 31.1499C5.42024 30.1994 4.49872 29.1545 4.04159 27.8122C3.96903 27.6017 3.95452 27.3768 3.91824 27.1664C3.88922 27.0213 3.96903 26.9922 4.07787 27.0575Z" fill="#FDFEFD"/>
<path id="Vector_10" d="M4.07788 27.0575C3.88922 27.2679 4.01983 27.4783 4.07788 27.6815C4.33184 28.5377 4.92683 29.1835 5.44926 29.8728C7.08912 32.0279 9.31672 33.363 11.7765 34.3353C14.0114 35.2205 16.326 35.801 18.7133 36.0767C19.9468 36.2218 21.1876 36.2871 22.4283 36.3742C23.4514 36.4395 24.4818 36.4685 25.5049 36.4323C28.8281 36.3162 32.1224 35.9969 35.315 34.9883C37.3903 34.328 39.3494 33.4645 41.1126 32.173C42.3534 31.2732 43.3329 30.134 44.2109 28.8933C44.3778 28.6611 44.5664 28.4579 44.7914 28.2765C44.1311 31.0048 42.5057 33.0655 40.2419 34.6473C37.8111 36.3379 35.0683 37.2594 32.1877 37.8036C26.5352 38.8703 20.9046 38.834 15.3029 37.4844C12.5892 36.8313 10.0351 35.8082 7.84375 34.0305C5.65243 32.2528 4.33184 29.9671 3.83843 27.1881C3.81666 27.0793 3.82391 26.9704 3.82391 26.8616C3.91099 26.9269 3.9908 26.9922 4.07788 27.0575Z" fill="#DEDEDE"/>
<path id="Vector_11" d="M20.5926 51.5683C20.6144 53.2299 20.6361 54.8843 20.5781 56.5459C20.3459 56.662 20.1137 56.604 19.8815 56.5459C19.4534 56.4516 19.0253 56.3283 18.5899 56.2339C17.7192 56.0525 16.863 56.1323 16.0213 56.4081C15.8326 56.4734 15.644 56.5822 15.4263 56.5169C15.3755 56.4879 15.3537 56.4443 15.3537 56.3863C15.6585 56.009 15.5859 55.6389 15.3465 55.2616C14.1565 53.3315 13.3366 51.22 12.4586 49.1448C11.6314 47.1784 11.2686 45.0887 11.2759 42.9554C11.2759 42.2298 11.4863 41.5187 11.5879 40.8004C11.6096 40.6407 11.6822 40.4884 11.8926 40.5101C12.2772 40.6262 12.64 40.7859 12.9883 40.9818C12.9012 42.0702 13.2568 43.0497 13.801 43.9495C14.4032 44.9363 15.1796 45.7925 15.927 46.6705C17.0952 48.0346 18.5101 49.1303 19.7219 50.4509C20.0484 50.7992 20.4039 51.1184 20.5926 51.5683Z" fill="#FDA524"/>
<path id="Vector_12" d="M36.0769 40.9383C36.3599 40.7787 36.6357 40.6118 36.9549 40.5319C37.2452 40.4449 37.2742 40.6843 37.3032 40.844C37.5064 41.8816 37.6588 42.9047 37.5862 43.9858C37.4701 45.6257 37.1363 47.2075 36.5704 48.7385C35.7577 50.9298 34.8724 53.0921 33.6462 55.0948C33.414 55.4721 33.2689 55.8929 33.0149 56.2485C32.4344 56.2993 31.8685 56.1179 31.2807 56.1324C30.5479 56.1469 29.8368 56.234 29.1402 56.4589C28.9733 56.5097 28.8137 56.5823 28.6323 56.5387C28.4654 56.4517 28.4218 56.2993 28.4073 56.1324C28.2985 55.7406 28.4291 55.3415 28.3275 54.9497C28.3275 54.8626 28.3275 54.7828 28.3275 54.6957C28.4001 54.5869 28.3493 54.449 28.4001 54.3329C28.4364 53.6073 28.4073 52.8817 28.4146 52.1561C28.4146 52.1053 28.4146 52.0545 28.4073 52.0037C28.4146 51.8949 28.4291 51.786 28.4364 51.6844C28.7629 50.7774 29.4159 50.1099 30.1198 49.4931C31.8685 47.9766 33.4648 46.315 34.7999 44.4212C35.4819 43.4561 35.8883 42.3895 35.9899 41.214C35.9826 41.0979 36.0044 41.0108 36.0769 40.9383Z" fill="#FDA524"/>
<path id="Vector_13" d="M17.5813 42.3242C18.7713 42.4621 19.9685 42.5999 21.1585 42.7451C21.485 42.7886 21.2673 42.9627 21.2165 43.0788C20.578 44.501 20.832 46.1264 21.8623 47.1785C23.016 48.3612 24.8736 48.5934 26.361 47.7372C27.7469 46.939 28.3637 45.2411 27.9066 43.565C27.834 43.2965 27.551 42.9773 27.7107 42.7886C27.8485 42.629 28.2476 42.7015 28.5233 42.6653C29.4303 42.5564 30.3373 42.4403 31.2516 42.3315C31.4475 42.6507 31.2008 42.8757 31.0629 43.1006C30.7001 43.6884 30.214 44.1963 29.8657 44.7985C29.1981 45.9595 28.5959 47.1567 28.1896 48.441C28.1315 48.6224 28.088 48.8038 27.9864 48.9707C27.9356 49.0578 27.8921 49.2392 27.9283 49.2755C27.1157 49.1594 26.9343 49.2973 26.9125 50.1897C26.8835 51.4668 26.898 52.7511 26.8907 54.0282C26.8907 54.1878 26.8762 54.3402 26.869 54.4998C26.3538 54.9279 25.7153 54.9715 25.0985 55.0585C24.1842 55.1891 23.2772 55.0513 22.4065 54.7465C22.2469 54.6885 22.08 54.6232 22.0074 54.4418C21.9929 53.0268 21.9857 51.6047 21.9639 50.1897C21.9494 49.348 21.9421 49.348 21.0932 49.1739C20.8392 48.8764 20.7812 48.4846 20.6506 48.1363C19.9975 46.4094 19.1486 44.7985 18.0166 43.3328C17.7917 43.0426 17.5232 42.7523 17.5813 42.3242Z" fill="#DEDEDE"/>
<path id="Vector_14" d="M17.5813 42.3243C18.0311 43.3619 18.8583 44.1528 19.388 45.1396C20.0846 46.4312 20.7231 47.7445 21.0932 49.1667C20.7159 49.4352 20.5925 49.8125 20.5925 50.2624C20.5852 50.6977 20.6796 51.1331 20.5998 51.5685C18.5028 49.1885 15.9632 47.2294 14.1056 44.6245C13.4308 43.6739 13.0027 42.6436 12.8503 41.4971C12.8286 41.3302 12.6834 41.0763 12.9955 40.9819C14.4031 41.5116 15.8616 41.8527 17.3128 42.23C17.4071 42.259 17.4942 42.2953 17.5813 42.3243Z" fill="#FDFEFD"/>
<path id="Vector_15" d="M27.9211 49.2754C27.9139 49.1738 27.689 49.2101 27.8341 48.9634C28.1606 48.4119 28.2694 47.7589 28.5307 47.1639C29.1329 45.807 29.8005 44.4937 30.751 43.34C30.9832 43.0497 31.2299 42.745 31.2444 42.3386C32.0353 42.1355 32.8262 41.9468 33.6099 41.7219C34.437 41.4824 35.257 41.2067 36.0769 40.9382C36.1132 42.2225 35.6488 43.3545 34.945 44.3921C33.8711 45.9594 32.6085 47.3743 31.2009 48.6514C30.185 49.5729 29.1402 50.4726 28.4291 51.6699C28.1678 51.0821 28.342 50.4581 28.2839 49.8559C28.2549 49.5874 28.2114 49.3625 27.9211 49.2754Z" fill="#FDFEFD"/>
<path id="Vector_16" d="M33.0438 56.1976C32.9423 55.8203 33.2107 55.5664 33.3704 55.2979C35.003 52.5551 36.2728 49.66 37.0709 46.5762C37.5498 44.7259 37.6659 42.8248 37.2088 40.931C37.1725 40.7786 37.187 40.5609 36.9476 40.5246C37.0637 40.4521 37.1798 40.365 37.3031 40.2997C38.5512 39.6612 38.3262 39.5015 38.9357 40.8729C39.6613 42.5055 39.5743 44.2179 39.2695 45.9449C38.8487 48.3031 37.8909 50.4654 36.9186 52.6277C36.2147 54.1877 35.4166 55.6897 34.3282 57.0176C34.0742 57.003 33.9581 56.7491 33.7332 56.6765C33.4937 56.5387 33.1962 56.4661 33.0438 56.1976Z" fill="#F08102"/>
<path id="Vector_17" d="M11.8999 40.5103C11.7983 40.5684 11.7185 40.6409 11.704 40.7643C11.5734 41.9906 11.3049 43.1951 11.479 44.4649C11.6967 46.0757 11.9652 47.672 12.611 49.174C13.5325 51.3145 14.396 53.4914 15.615 55.4868C15.8544 55.8786 15.8036 56.1688 15.3973 56.3865C14.9837 56.7783 14.5701 56.5752 14.1565 56.3938C13.7937 55.9947 13.5035 55.5448 13.2495 55.0732C11.8491 52.4537 10.5575 49.7835 9.84644 46.8811C9.39657 45.0526 9.17889 43.2096 9.80291 41.3665C9.93351 40.9747 10.1149 40.6119 10.2891 40.2346C10.4487 39.8791 10.6664 39.7557 11.0219 39.9806C11.3049 40.162 11.6024 40.3362 11.8999 40.5103Z" fill="#F08102"/>
<path id="Vector_18" d="M35.8882 57.3443C37.441 55.0587 38.5149 52.6352 39.4799 50.1608C39.7701 49.4135 40.0023 48.6371 40.2563 47.8752C40.3071 47.7301 40.2781 47.5269 40.4667 47.4834C40.6772 47.4326 40.8223 47.5705 40.9529 47.7228C41.722 48.6008 42.0993 49.6457 42.1719 50.7921C42.288 52.5481 41.7293 54.1589 40.9892 55.7117C40.503 56.7275 39.596 57.1919 38.5149 57.3225C37.6659 57.4241 36.817 57.3588 35.8882 57.3443Z" fill="#F08102"/>
<path id="Vector_19" d="M12.8939 57.3443C11.8055 57.3443 10.7388 57.4894 9.69396 57.1557C8.90306 56.9017 8.27178 56.4373 7.91624 55.6899C7.19064 54.1517 6.66095 52.5553 6.74802 50.8139C6.79881 49.7327 7.16887 48.7822 7.8074 47.926C7.87996 47.8244 7.97429 47.7301 8.06862 47.6503C8.43142 47.36 8.54751 47.3891 8.67087 47.8317C9.41823 50.5091 10.5719 53.0125 11.8635 55.465C12.19 56.0818 12.7125 56.5897 12.8939 57.3443Z" fill="#F08102"/>
<path id="Vector_20" d="M43.2894 13.2058C42.2083 11.5659 41.0473 9.99862 39.6251 8.63449C39.0301 8.06852 38.4061 7.53158 37.7821 7.00189C37.6152 6.85677 37.5717 6.76244 37.7241 6.58104C38.9721 5.07179 40.3725 3.75119 42.0559 2.73535C42.6654 4.04869 43.0064 5.43459 43.2314 6.85677C43.5144 8.68529 43.5724 10.5283 43.5289 12.3713C43.5216 12.6616 43.5216 12.9736 43.2894 13.2058Z" fill="#C74F02"/>
<path id="Vector_21" d="M6.95854 2.82983C8.56212 3.78763 9.94802 4.98487 11.08 6.47235C11.2759 6.72631 11.3049 6.87144 11.0147 7.11088C9.29498 8.55483 7.77847 10.2092 6.38531 11.9652C6.24019 11.9942 6.19666 12.1466 6.08056 12.2119C6.008 12.2917 5.94995 12.3933 5.86288 12.4586C5.68874 12.5819 5.57264 12.5311 5.51459 12.328C5.49282 12.2481 5.48557 12.1756 5.48557 12.0958C5.50734 10.2237 5.36947 8.34441 5.73953 6.48687C5.99349 5.21706 6.32727 3.96903 6.95854 2.82983Z" fill="#C74F02"/>
<path id="Vector_22" d="M38.1013 4.01254C37.8474 3.81663 37.6587 3.81663 37.3685 4.04882C36.2728 4.91954 35.0756 5.66691 34.0525 6.63196C33.8783 6.79885 33.6752 6.75531 33.4793 6.6755C32.6884 6.37074 31.8974 6.04422 31.0993 5.76124C28.3855 4.78168 25.5702 4.43339 22.7186 4.6946C20.5418 4.89052 18.3722 5.33313 16.3913 6.31995C15.4263 6.79885 14.7442 6.71903 13.9678 5.96441C13.1406 5.15173 12.2482 4.37534 11.1815 3.87467C10.9566 3.76583 10.7099 3.69327 10.4777 3.6062C9.67952 3.01121 8.88136 2.40896 8.09045 1.81397C8.11948 1.57452 8.27911 1.68336 8.40246 1.69787C9.42556 1.98085 10.2963 2.54682 11.1743 3.11279C12.3425 3.87467 13.4236 4.7454 14.4467 5.68868C14.8386 6.04422 15.2014 6.06599 15.6512 5.84831C20.237 3.66425 24.9897 3.30145 29.8803 4.564C31.0267 4.86149 32.1369 5.28234 33.2035 5.81203C33.7042 6.05874 34.1033 6.02246 34.5386 5.63789C35.9608 4.37534 37.4483 3.19986 39.1244 2.29286C39.6686 2.00262 40.2274 1.74141 40.8369 1.60354C40.9457 1.56001 41.04 1.53098 41.0328 1.70513C39.9806 2.38719 39.0229 3.1781 38.1013 4.01254Z" fill="#E8C587"/>
<path id="Vector_23" d="M1.74868 40.0531C1.79947 39.8354 1.83575 39.6177 1.90106 39.4146C1.94459 39.2767 1.93734 39.0518 2.13325 39.0518C2.29288 39.0518 2.37995 39.2404 2.438 39.3855C2.77903 40.22 3.18537 41.0181 3.73683 41.7437C4.82523 43.1804 6.20387 44.2616 7.8002 45.0815C7.98885 45.1831 8.19928 45.2339 8.20653 45.5314C8.21379 45.8216 8.09044 45.945 7.8655 46.0756C7.21246 46.4529 6.70454 46.9898 6.30546 47.6284C6.2329 47.7445 6.21839 47.9114 6.04424 47.9404C5.42748 47.759 4.99212 47.3091 4.55676 46.8883C3.3958 45.7563 2.52507 44.4357 2.09697 42.8467C1.93008 42.0485 1.7124 41.2576 1.72691 40.4304C1.71966 40.2998 1.77045 40.1764 1.74868 40.0531Z" fill="#F08102"/>
<path id="Vector_24" d="M6.95855 2.82974C7.0166 2.9676 7.03836 3.09095 6.95129 3.22882C6.26197 4.37527 6.04429 5.65958 5.8121 6.95115C5.48558 8.77241 5.68149 10.6009 5.61619 12.4657C5.89917 12.4077 5.98624 12.1392 6.19667 12.0521C6.24746 12.1102 6.25471 12.1682 6.19667 12.2263C5.6307 13.2566 5.06473 14.287 4.45522 15.4044C4.2448 14.8675 4.20126 14.4031 4.15773 13.946C3.86749 10.6445 3.90377 7.36475 4.88333 4.15033C5.05747 3.59162 5.29692 3.06193 5.53637 2.52498C5.70326 2.15493 5.89917 2.11139 6.22569 2.32182C6.4724 2.4887 6.74087 2.61931 6.95855 2.82974Z" fill="#DF6D03"/>
<path id="Vector_25" d="M43.2894 13.2057C43.5578 9.94778 43.3402 6.74062 42.2808 3.62054C42.1864 3.3303 41.9397 3.06908 42.0558 2.72805C42.0921 2.69902 42.1284 2.66274 42.1647 2.64097C43.137 2.01696 43.195 2.02421 43.6449 3.11262C44.3197 4.74522 44.6753 6.45764 44.8204 8.21359C44.9437 9.69382 45.0163 11.174 44.9075 12.6615C44.8421 13.525 44.7188 14.3812 44.4576 15.3753C44.0295 14.5916 43.6594 13.9023 43.2894 13.2057Z" fill="#DF6D03"/>
<path id="Vector_26" d="M22.1454 40.6625C22.1454 40.7713 22.1308 40.8874 22.1454 40.9963C22.1889 41.3155 22.051 41.3953 21.7463 41.3953C20.6143 41.4099 19.5187 41.1559 18.4158 40.9818C16.4784 40.677 14.5991 40.1255 12.7924 39.3564C12.4441 39.2113 12.1103 39.0226 11.7838 38.8412C11.6532 38.7687 11.4863 38.7034 11.4935 38.5002C11.5008 38.2825 11.4355 37.9705 11.5516 37.8617C11.7039 37.7238 11.8853 37.9995 12.0595 38.0866C12.3788 38.2608 12.7053 38.4131 13.0753 38.4494C13.3583 38.4784 13.6413 38.522 13.9025 38.6235C15.2521 39.146 16.6743 39.3637 18.0892 39.5668C19.2575 39.7337 20.4402 39.8208 21.6229 39.8716C22.0873 39.8934 22.1816 40.0675 22.1381 40.4593C22.1308 40.5391 22.1381 40.6044 22.1454 40.6625C22.1381 40.6625 22.1381 40.6625 22.1454 40.6625Z" fill="#C74F02"/>
<path id="Vector_27" d="M22.0003 54.4419C23.4297 55.0949 24.8882 55.1094 26.3684 54.6523C26.5353 54.6015 26.6949 54.5507 26.8618 54.4999C26.8328 55.3779 27.1013 56.2559 26.7965 57.1339C26.7385 57.2863 26.7385 57.3733 26.5716 57.3733C25.1204 57.3733 23.6692 57.3733 22.218 57.3733C22.0148 57.3733 21.935 57.3008 21.9422 57.0903C21.964 56.2051 21.9858 55.3199 22.0003 54.4419Z" fill="#F08102"/>
<path id="Vector_28" d="M23.8215 46.7794C23.0088 46.5762 22.2905 45.662 22.2324 44.7622C22.1744 43.8262 22.7911 42.9264 23.6909 42.6072C24.6269 42.2807 25.6355 42.5419 26.1579 43.253C26.0999 43.623 26.0491 43.9931 26.0491 44.3776C26.0418 45.5531 24.9752 46.6851 23.8215 46.7794Z" fill="#F2E156"/>
<path id="Vector_29" d="M32.9568 39.2042C34.2048 38.9285 35.4383 38.5947 36.6356 38.1448C36.7371 38.1086 36.846 38.065 36.9548 38.0505C37.1362 38.0215 37.4047 37.8328 37.4845 38.0941C37.5643 38.348 37.6369 38.6818 37.2523 38.8632C35.5327 39.6686 33.7549 40.3144 31.8974 40.7135C30.8961 40.9239 29.8947 41.1343 28.8716 41.2214C28.4363 41.2794 28.0154 41.4391 27.5728 41.4318C27.268 41.4246 26.9125 41.4681 26.7529 41.1126C26.6513 40.8804 26.956 40.3144 27.2463 40.1475C27.4712 40.0169 27.7179 39.9806 27.9719 39.9371C29.0167 39.7557 30.0761 39.7194 31.121 39.5525C31.7232 39.4437 32.34 39.3276 32.9568 39.2042Z" fill="#C74F02"/>
<path id="Vector_30" d="M2.22026 42.8831C2.88056 45.0308 4.22292 46.6562 6.04418 47.926C5.87729 48.4702 5.68864 48.9999 5.54351 49.5513C5.4637 49.8488 5.36937 49.8561 5.13718 49.6892C3.0547 48.1292 1.80667 46.0757 1.44387 43.4926C1.32051 42.6291 1.34228 41.7656 1.55271 40.9094C1.79941 40.9457 1.79941 41.1561 1.82118 41.3303C1.87197 41.7294 1.98081 42.1212 1.94453 42.5275C1.92276 42.7162 2.00983 42.8613 2.22026 42.8831Z" fill="#DEDEDE"/>
<path id="Vector_31" d="M33.0439 56.1977C33.2978 56.3283 33.5518 56.459 33.7985 56.5896C33.6606 56.9088 33.4067 56.7274 33.2398 56.6694C32.8697 56.546 32.623 56.6331 32.3836 56.9451C32.0426 57.395 31.5999 57.7578 31.1791 58.1714C31.404 58.3383 31.7378 58.1569 31.97 58.5197C31.0412 58.5052 30.1923 58.5705 29.3433 58.4761C28.6612 58.1931 28.3565 57.6344 28.4073 56.7492C28.5016 56.6839 28.3565 56.4444 28.5959 56.4735C29.4304 56.2413 30.2503 55.9801 31.1283 55.9728C31.7813 55.9655 32.4126 56.0599 33.0439 56.1977Z" fill="#FDFEFD"/>
<path id="Vector_32" d="M20.3313 57.7215C20.1644 58.106 19.9249 58.4035 19.4823 58.4834C19.0034 58.5269 18.481 58.6648 18.0602 58.3818C17.4071 57.9464 16.8049 57.424 16.4275 56.7056C16.2607 56.3936 16.3768 56.263 16.7178 56.1977C17.8425 55.98 18.9019 56.2485 19.954 56.5895C20.5199 56.7709 20.549 56.8508 20.3893 57.453C20.3676 57.5401 20.3966 57.6417 20.3313 57.7215Z" fill="#FDFEFD"/>
<path id="Vector_33" d="M20.3313 57.7215C20.3749 56.8581 20.3749 56.8581 19.4751 56.5606C18.5681 56.2558 17.6466 56.1542 16.6961 56.2849C16.4348 56.3211 16.4058 56.43 16.5147 56.6259C16.9573 57.3805 17.5958 57.9392 18.3214 58.3964C18.6624 58.6068 19.0978 58.4181 19.4896 58.4762C17.1822 58.7809 15.8616 58.6648 14.6499 57.0322C14.5265 56.7855 14.7152 56.6912 14.8748 56.6259C15.0417 56.5606 15.2086 56.4735 15.3972 56.4663C16.8194 55.893 18.2489 55.8858 19.7001 56.3574C19.983 56.4517 20.2878 56.4808 20.578 56.5388C20.5853 56.9524 20.5418 57.3515 20.3313 57.7215Z" fill="#DEDEDD"/>
<path id="Vector_34" d="M29.3506 58.469C30.1705 58.469 30.9904 58.469 31.8104 58.469C31.5854 58.3311 31.3532 58.3964 31.1283 58.3746C31.0557 58.3674 30.9614 58.3892 30.9251 58.2948C30.8889 58.2005 30.9614 58.1425 31.0195 58.0989C31.6 57.6563 32.1079 57.1339 32.5505 56.5606C32.6811 56.3865 32.8335 56.4228 33.0149 56.4736C33.2761 56.5461 33.5228 56.7203 33.8203 56.5897C34.0525 56.6695 34.1976 56.8509 34.3427 57.025C33.4865 58.1062 32.3981 58.6867 30.9904 58.5851C30.4317 58.5415 29.8803 58.6721 29.3506 58.469Z" fill="#DEDEDE"/>
<path id="Vector_35" d="M23.8215 46.7794C24.5181 46.5472 25.1349 46.1844 25.5557 45.5532C25.8315 45.1323 25.9693 44.6824 25.9475 44.1745C25.933 43.8625 25.875 43.507 26.1652 43.2603C26.811 44.0874 26.8545 45.1033 26.2886 45.9377C25.7589 46.7214 24.8011 47.0479 23.8215 46.7794Z" fill="#FCFCFB"/>
<path id="Vector_36" d="M32.9568 39.2041C32.1368 39.6104 31.2371 39.6539 30.3519 39.77C29.4303 39.8861 28.5088 39.9514 27.5946 40.1328C27.0866 40.2344 26.9633 40.59 26.8399 40.989C26.7674 41.2285 26.9633 41.214 27.0794 41.243C27.5002 41.3301 27.9283 41.3083 28.3492 41.2503C28.5233 41.2285 28.6902 41.185 28.8644 41.214C28.2404 41.3954 27.6454 41.7074 26.9488 41.497C26.5642 41.3809 26.4481 41.1559 26.5062 40.7931C26.5062 40.7786 26.5134 40.7641 26.5134 40.7496C26.6585 39.8136 26.7311 39.7047 27.7107 39.6902C29.2054 39.6684 30.6856 39.4798 32.1513 39.2186C32.4126 39.175 32.6883 39.2041 32.9568 39.2041Z" fill="#613F36"/>
<path id="Vector_37" d="M24.4382 41.0472C24.4091 41.0472 24.3729 41.0472 24.3438 41.0472C23.5892 41.069 23.6037 41.069 23.6182 40.3216C23.6255 40.0169 23.6908 39.85 24.0391 39.8863C24.2858 39.9153 24.5398 39.8863 24.7937 39.8935C25.2073 39.9008 25.396 40.0459 25.3597 40.5248C25.3307 40.9311 25.2726 41.1488 24.8082 41.0545C24.6994 41.0254 24.5688 41.0472 24.4382 41.0472Z" fill="#DCDCDC"/>
<path id="Vector_38" d="M2.22027 42.883C2.1985 42.9774 2.18399 43.079 2.04612 42.9846C1.88649 42.8758 1.76314 42.7815 1.79942 42.5348C1.87923 41.976 1.78491 41.4246 1.54546 40.9094C1.49466 40.7062 1.58174 40.5176 1.63979 40.3289C1.69783 40.2781 1.75588 40.2781 1.79942 40.3434C1.87198 41.2069 2.05338 42.0414 2.22027 42.883Z" fill="#FBF5EE"/>
<path id="Vector_39" d="M15.3973 56.4735C15.1723 56.6912 14.7297 56.6187 14.6499 57.0323C14.4395 56.8509 14.2871 56.6259 14.1565 56.3937C14.5701 56.3865 14.9909 56.5969 15.3973 56.3865C15.3973 56.4082 15.3973 56.4445 15.3973 56.4735Z" fill="#F4A025"/>
<path id="Vector_40" d="M28.4072 54.391C28.4 54.4998 28.4218 54.6159 28.3057 54.6885C28.3564 53.7888 28.2258 52.889 28.3855 51.9893C28.4 52.0038 28.4145 52.0255 28.4218 52.0473C28.4435 52.831 28.4798 53.6146 28.4072 54.391Z" fill="#988F8D"/>
<path id="Vector_41" d="M28.313 54.9424C28.5162 55.3124 28.313 55.7333 28.4654 56.1033C28.4073 56.1904 28.4871 56.3065 28.3855 56.3791C28.1969 55.9147 28.2767 55.4285 28.313 54.9424Z" fill="#DBBD93"/>
<path id="Vector_42" d="M28.3927 56.3863C28.4217 56.292 28.3782 56.1832 28.4725 56.1106C28.5161 56.2339 28.5596 56.35 28.5959 56.4734C28.5306 56.5677 28.4725 56.6621 28.4072 56.7491C28.4 56.6258 28.4 56.5024 28.3927 56.3863Z" fill="#FAD8A5"/>
<path id="Vector_43" d="M8.38792 1.69786C8.27908 1.72689 8.14847 1.68335 8.07591 1.81396C7.98884 1.77042 7.90177 1.73414 7.8147 1.69061C7.89451 1.48018 8.03963 1.57451 8.1775 1.61079C8.25731 1.63981 8.32262 1.66884 8.38792 1.69786Z" fill="#C6A774"/>
<path id="Vector_44" d="M8.18477 1.61073C8.06141 1.63975 7.91629 1.55268 7.82197 1.69054C7.74941 1.64701 7.55349 1.61798 7.76392 1.52365C7.88001 1.4656 8.06141 1.49463 8.18477 1.61073Z" fill="#937955"/>
<path id="Vector_45" d="M1.80667 40.3434C1.75588 40.3361 1.69783 40.3361 1.64704 40.3289C1.61801 40.2128 1.70509 40.1402 1.74862 40.0459C1.82844 40.1402 1.83569 40.2418 1.80667 40.3434Z" fill="#D9B690"/>
<path id="Vector_46" d="M6.18933 12.2264C6.18933 12.1683 6.18933 12.1103 6.18933 12.0522C6.23287 11.9797 6.25463 11.8418 6.38524 11.9651C6.33445 12.0667 6.31268 12.1901 6.18933 12.2264Z" fill="#CB6105"/>
<path id="Vector_47" d="M41.0182 1.71239C40.9819 1.62532 40.8948 1.63257 40.8223 1.61081C40.9238 1.51648 41.0545 1.47294 41.1488 1.56727C41.1996 1.61806 41.1053 1.69062 41.0182 1.71239Z" fill="#9A7F59"/>
<path id="Vector_48" d="M35.9101 22.0437C35.1627 22.0147 34.5604 21.9856 33.9872 21.7897C32.3111 21.2383 31.7451 19.8234 32.5723 18.2561C33.2906 16.8919 34.9377 16.2679 36.4325 16.7976C37.8909 17.32 38.7399 18.7785 38.4569 20.295C38.2828 21.2238 37.6878 21.8115 36.7082 21.9784C36.3962 22.0292 36.0842 22.0292 35.9101 22.0437Z" fill="#31201B"/>
<path id="Vector_49" d="M13.0463 22.0292C12.7561 22.022 12.4078 22.051 12.0668 21.9639C10.8042 21.6519 10.231 20.6143 10.4922 19.0978C10.7679 17.487 12.4223 16.3478 14.0476 16.638C15.7818 16.9428 16.9065 18.4665 16.638 20.1354C16.5365 20.7667 16.1446 21.173 15.6149 21.485C14.9546 21.8696 14.2363 22.0292 13.0463 22.0292Z" fill="#31201B"/>
<path id="Vector_50" d="M16.2753 11.2902C17.6539 11.1451 18.6988 12.8866 18.1038 14.2434C17.9587 14.5845 17.6829 14.8022 17.3492 14.9255C16.3914 15.2811 15.4336 15.2956 14.512 14.7949C13.5688 14.287 13.3438 13.2203 14.0186 12.3859C14.5919 11.6821 15.3247 11.2467 16.2753 11.2902Z" fill="#FDFEFD"/>
<path id="Vector_51" d="M32.7827 15.1868C32.5723 15.165 32.3836 15.1505 32.195 15.1215C30.5261 14.8457 30.3447 13.4163 30.9469 12.2771C31.6145 11.0146 33.1092 11.0581 34.1976 11.7474C34.3427 11.8417 34.4733 11.9578 34.5967 12.0812C35.0683 12.5528 35.4602 13.0825 35.2207 13.8009C34.9885 14.5047 34.4371 14.8893 33.7405 15.0634C33.4285 15.1432 33.0874 15.1505 32.7827 15.1868Z" fill="#FDFEFD"/>
<path id="Vector_52" d="M20.8102 23.0521C20.7812 22.0581 21.1585 21.4341 22.08 21.0495C23.6038 20.411 25.1566 20.3892 26.6948 20.9914C27.3479 21.2454 27.9429 21.6227 28.0953 22.4064C28.2259 22.8998 28.1388 23.3714 27.9501 23.8213C27.5293 24.8154 26.7747 25.4757 25.8169 25.9328C25.708 25.9836 25.5702 25.9908 25.4976 26.1214C25.6427 26.3754 26.0055 26.3827 26.1216 26.6656C27.3334 27.442 28.1533 27.3042 29.0385 26.1867C29.3215 25.8239 29.5465 25.4249 29.7641 25.0185C29.9746 24.634 30.2938 24.5904 30.6494 24.7646C30.9759 24.9315 31.15 25.1636 30.9759 25.57C30.5405 26.6149 29.9383 27.5291 28.937 28.1023C28.6104 28.291 28.4653 28.5377 28.3927 28.915C28.1315 30.3154 27.5656 31.5707 26.4191 32.485C25.1711 33.4863 23.5602 33.4573 22.334 32.4197C21.1875 31.4474 20.6506 30.1558 20.3749 28.7264C20.3168 28.4361 20.1935 28.262 19.9467 28.1023C19.018 27.5001 18.3649 26.6656 17.9586 25.6353C17.7917 25.1999 17.9151 24.9024 18.2924 24.7428C18.7205 24.5614 18.9817 24.663 19.1994 25.0983C19.388 25.4829 19.6057 25.8457 19.8742 26.1867C20.7522 27.2969 21.5866 27.4348 22.7911 26.6584C22.9072 26.3754 23.2482 26.3391 23.4441 26.0852C22.987 25.853 22.5371 25.6353 22.1453 25.3233C21.6809 24.9532 21.3036 24.5179 21.0424 23.9882C20.8973 23.6979 20.8102 23.3932 20.8102 23.0521Z" fill="#31201B"/>
<path id="Vector_53" d="M26.1216 26.673C25.7951 26.5207 25.4976 26.332 25.1929 26.078C26.8835 25.396 28.0735 24.3584 28.0953 22.4065C28.6105 23.6037 28.1606 25.1855 27.1157 25.991C26.7965 26.2377 26.3901 26.3538 26.1216 26.673Z" fill="#DEDEDD"/>
<path id="Vector_54" d="M20.8102 23.0522C21.1948 24.5978 22.2469 25.512 23.7271 26.0635C23.4223 26.332 23.1176 26.5134 22.7983 26.673C22.4718 26.4335 22.1598 26.1868 21.826 25.9619C21.1657 25.512 20.832 24.8517 20.6433 24.1116C20.549 23.7488 20.7376 23.4078 20.8102 23.0522Z" fill="#DDDDDD"/>
<path id="Vector_55" d="M28.4072 54.3911C28.4145 53.6074 28.4217 52.8238 28.429 52.0474C28.5306 52.831 28.5523 53.6147 28.4072 54.3911Z" fill="#E5BA7E"/>
<path id="Vector_56" d="M35.9245 18.6115C35.9318 19.163 35.5254 19.6346 35.0247 19.6491C34.4152 19.6636 33.9871 19.2573 33.9726 18.6333C33.9581 18.1036 34.4152 17.6319 34.9594 17.6102C35.4166 17.5957 35.91 18.1108 35.9245 18.6115Z" fill="#FCFDFC"/>
<path id="Vector_57" d="M14.9256 18.6552C14.9256 19.272 14.5555 19.6203 13.9243 19.6203C13.3293 19.613 13.0028 19.2575 13.01 18.6044C13.01 18.0747 13.4091 17.6539 13.917 17.6466C14.512 17.6321 14.9256 18.0384 14.9256 18.6552Z" fill="#FCFDFC"/>
<path id="Vector_58" d="M24.4817 23.2699C23.894 23.1828 23.2845 23.2046 22.7403 22.8926C22.4791 22.7475 22.2396 22.5515 22.2469 22.2468C22.2541 21.9275 22.5008 21.7099 22.7911 21.5938C23.894 21.1656 24.9969 21.1729 26.0998 21.5938C26.3828 21.7026 26.644 21.884 26.6803 22.2178C26.7093 22.5806 26.4191 22.7329 26.1651 22.8853C25.6499 23.2046 25.0622 23.2118 24.4817 23.2699Z" fill="#614037"/>
<path id="Vector_59" d="M26.2233 30.5841C26.1725 30.6639 26.1217 30.7437 26.0636 30.8163C24.8882 32.2094 23.7345 32.1514 22.6388 30.6639C22.7186 30.4898 22.8855 30.4245 23.0524 30.3737C24.0755 30.0762 25.0841 30.1632 26.0854 30.468C26.1434 30.4825 26.187 30.5333 26.2233 30.5841Z" fill="#F28B7E"/>
<path id="Vector_60" d="M26.2232 30.5839C25.2291 30.3807 24.2278 30.1776 23.2119 30.4606C23.016 30.5186 22.8274 30.5912 22.6387 30.6565C22.3049 30.2211 22.3049 30.2139 22.8128 30.0542C23.894 29.7132 24.9751 29.7132 26.0708 30.0324C26.4626 30.1558 26.5279 30.3009 26.2232 30.5839Z" fill="#DDDBDB"/>
</g>
</g>
<defs>
<clipPath id="clip0_55_106">
<rect width="46.6344" height="60" fill="white"/>
</clipPath>
</defs>
</svg>
