<svg width="60" height="60" viewBox="0 0 60 60" fill="none" xmlns="http://www.w3.org/2000/svg">
<g id="Group 1000002389">
<g id="Group 1000002295">
<rect id="Rectangle 1366" width="60" height="60" rx="30" fill="url(#paint0_linear_55_48)"/>
</g>
<g id="Group 1000002388">
<path id="Vector" d="M15.5838 30.488L15.6073 39.1164L22.9388 43.4306V48.4821L11.3167 41.6657V27.9649L15.5838 30.488ZM15.5838 21.8596V26.8876L11.3141 24.3619V19.3339L15.5838 16.8081L19.8745 19.3339L15.5838 21.8596ZM26.0006 19.3339L30.2703 16.8081L34.561 19.3339L30.2703 21.8596L26.0006 19.3339Z" fill="white"/>
<path id="Vector_2" d="M18.6711 37.3279V32.2764L22.9408 34.8022V39.8302L18.6711 37.3279ZM26.0026 45.2399L30.2723 47.7657L34.563 45.2399V50.2679L30.2723 52.7937L26.0026 50.2679V45.2399ZM40.6865 19.3339L44.9563 16.8081L49.2469 19.3339V24.3619L44.9563 26.8876V21.8596L40.6865 19.3339ZM44.9563 39.1164L44.9798 30.488L49.2495 27.9622V41.6631L37.6274 48.4795V43.4279L44.9563 39.1164Z" fill="white"/>
<path id="Vector_3" d="M41.8994 37.3259L37.6297 39.8282V34.8002L41.8994 32.2744V37.3259Z" fill="white"/>
<path id="Vector_4" d="M41.8945 23.6471L41.918 28.6986L34.5656 33.0128V41.6621L30.2959 44.1643L26.0261 41.6621V33.0128L18.6737 28.6986V23.6471L22.9618 21.1213L30.2697 25.4564L37.6221 21.1213L41.9128 23.6471H41.8945ZM18.6711 15.0213L30.2723 8.1814L41.8945 15.0213L37.6248 17.5471L30.2723 13.212L22.9408 17.5471L18.6711 15.0213Z" fill="white"/>
</g>
</g>
<defs>
<linearGradient id="paint0_linear_55_48" x1="60" y1="60" x2="0" y2="0" gradientUnits="userSpaceOnUse">
<stop stop-color="#D1A000"/>
<stop offset="1" stop-color="#FFD632"/>
</linearGradient>
</defs>
</svg>
