<svg width="60" height="60" viewBox="0 0 60 60" fill="none" xmlns="http://www.w3.org/2000/svg">
<g id="Group 1261157597">
<circle id="Ellipse 2142" cx="30" cy="30" r="30" fill="#2B6AFF"/>
<g id="Group 1261157580">
<g id="Group 1261157579">
<path id="Vector" d="M36.7445 27.5785C36.4142 28.0905 36.0839 28.6107 35.7619 29.1227C34.5315 31.0633 33.3506 33.0286 32.1532 34.9857C31.7734 35.605 31.3192 36.1665 30.7247 36.6042C28.908 37.9419 27.0335 36.5877 26.8188 35.0022C26.6701 33.9783 26.5793 32.946 26.5628 31.9138C26.5545 30.7165 26.5628 29.5191 26.5628 28.33C26.5628 28.1566 26.5463 27.9832 26.538 27.8097C26.4554 27.8097 26.4472 27.8758 26.4224 27.9088C24.1598 31.6496 21.7816 35.3243 19.4694 39.032C19.329 39.2549 19.1969 39.4861 19.0483 39.7091C18.9822 39.8082 18.9822 39.8743 19.073 39.9733C21.41 42.3929 24.1846 44.0279 27.5372 44.5399C31.6082 45.1674 35.3077 44.2508 38.619 41.79C39.0237 41.4928 39.387 41.1459 39.7834 40.8321C40.2706 40.4523 40.8073 40.2211 41.4514 40.3697C41.5423 40.3862 41.6166 40.4275 41.6826 40.4853C41.8313 40.634 41.9799 40.7661 42.1451 40.8982C42.6405 41.2615 42.6653 41.7488 42.5332 42.2855C42.368 42.9213 41.9304 43.359 41.4432 43.7554C39.1971 45.6216 36.6702 46.9511 33.7965 47.5539C28.2969 48.7183 23.2845 47.6117 18.8666 44.1352C15.4975 41.4845 13.3587 38.0163 12.4173 33.8214C11.9301 31.6496 11.8806 29.453 12.2109 27.2482C13.2183 20.3943 18.1069 15.2002 23.5817 13.1193C25.3489 12.4422 27.2069 12.0706 29.0979 12.0128C31.1623 11.9467 33.1855 12.1284 35.1673 12.7642C37.8098 13.5982 40.221 15.0351 42.2111 16.9591C44.9609 19.6181 46.6951 22.8304 47.4217 26.5876C47.7768 28.4208 47.8594 30.2705 47.5621 32.112C47.207 34.3333 45.4069 36.5381 42.9708 37.0006C40.5596 37.463 38.3135 36.2161 37.3391 33.8626C36.9179 32.8469 36.8023 31.7817 36.8023 30.6999C36.8023 29.7008 36.8023 28.7098 36.8023 27.7107C36.8023 27.6776 36.8023 27.6446 36.7941 27.6116L36.7445 27.5785Z" fill="#FEFEFE"/>
<path id="Vector_2" d="M29.8216 32.3923V30.8976C29.8216 28.8415 29.8298 26.777 29.8051 24.7209C29.7968 23.8869 29.6069 23.0941 28.9958 22.4665C28.4425 21.9133 27.6085 21.7564 26.8901 22.0619C26.3946 22.2766 25.9735 22.6317 25.6679 23.0859C24.9413 24.1181 24.3302 25.2246 23.6448 26.2816C21.4317 29.659 19.3673 33.1272 17.1873 36.5211C17.0139 36.7936 16.8652 36.8019 16.7166 36.4964C16.5349 36.133 16.378 35.7614 16.2294 35.3816C15.5935 33.7796 15.2632 32.0785 15.2385 30.3526C15.1889 26.7523 16.1964 23.4905 18.4672 20.6829C20.6968 17.9248 23.5622 16.1329 27.0635 15.4888C32.1255 14.5639 36.5186 15.976 40.1767 19.5516C42.4559 21.7729 43.7771 24.531 44.3056 27.6771C44.5038 28.8332 44.5451 30.0141 44.4294 31.1784C44.3386 32.0372 43.9918 32.7887 43.3064 33.3419C42.7366 33.7961 42.0925 34.0521 41.3741 33.7631C40.6144 33.4658 40.2263 32.8465 40.0941 32.0537C39.9042 30.8976 39.929 29.7333 39.9538 28.569C39.9703 27.578 40.0363 26.5706 39.8216 25.5879C39.5657 24.4484 38.905 23.6391 37.7242 23.3418C37.1544 23.2015 36.6259 23.3914 36.1305 23.6556C35.379 24.0603 34.8092 24.6713 34.3303 25.3567C33.4715 26.5706 32.7283 27.8671 31.9355 29.1305C31.2749 30.1875 30.6143 31.2445 29.9537 32.3015C29.9289 32.3345 29.9041 32.3758 29.8794 32.4088L29.8216 32.3923Z" fill="#2B6AFF"/>
</g>
</g>
</g>
</svg>
