<svg width="60" height="60" viewBox="0 0 60 60" fill="none" xmlns="http://www.w3.org/2000/svg">
<g id="Group 1261154353">
<g id="Mask group">
<mask id="mask0_55_56" style="mask-type:alpha" maskUnits="userSpaceOnUse" x="0" y="0" width="60" height="60">
<circle id="Ellipse 317" cx="30" cy="30" r="30" fill="#D9D9D9"/>
</mask>
<g mask="url(#mask0_55_56)">
<g id="Group 1000009194">
<path id="Vector" d="M50.3136 -1.99976H9.68412C3.23052 -1.99976 -2.00116 3.23192 -2.00116 9.68552V50.315C-2.00116 56.7686 3.23052 62.0002 9.68412 62.0002H50.3136C56.7672 62.0002 61.9988 56.7686 61.9988 50.315V9.68552C61.9988 3.23192 56.7672 -1.99976 50.3136 -1.99976Z" fill="url(#paint0_linear_55_56)"/>
<path id="Vector_2" d="M19.5452 13.9793C17.569 13.9809 15.6377 14.5683 13.9953 15.6672C12.3528 16.7661 11.073 18.3272 10.3175 20.1533C9.562 21.9793 9.36476 23.9883 9.75069 25.9264C10.1366 27.8646 11.0884 29.6448 12.4858 31.0421C13.8831 32.4395 15.6633 33.3913 17.6015 33.7772C19.5396 34.1631 21.5486 33.9659 23.3746 33.2104C25.2007 32.4549 26.7618 31.1751 27.8607 29.5326C28.9596 27.8902 29.547 25.9589 29.5486 23.9827C29.5472 21.3301 28.4928 18.7865 26.6171 16.9108C24.7414 15.0351 22.1978 13.9807 19.5452 13.9793ZM19.5452 29.8751C18.3787 29.8751 17.2383 29.5292 16.2684 28.8811C15.2985 28.233 14.5425 27.3118 14.0962 26.234C13.6498 25.1563 13.533 23.9704 13.7607 22.8262C13.9883 21.6821 14.5502 20.6312 15.3751 19.8064C16.2 18.9816 17.251 18.42 18.3951 18.1925C19.5393 17.965 20.7252 18.082 21.8029 18.5285C22.8806 18.9751 23.8016 19.7311 24.4496 20.7012C25.0975 21.6712 25.4433 22.8116 25.4431 23.9781C25.4378 25.5406 24.8147 27.0376 23.7098 28.1424C22.6048 29.2472 21.1077 29.8701 19.5452 29.8751ZM49.011 22.5301C49.0142 23.9606 48.6526 25.3683 47.9604 26.6201C46.8926 25.751 45.677 25.081 44.372 24.6423C44.72 23.9925 44.9032 23.2672 44.9055 22.5301C44.9055 21.3499 44.4367 20.2181 43.6021 19.3836C42.7676 18.549 41.6358 18.0802 40.4556 18.0802C39.2754 18.0802 38.1435 18.549 37.309 19.3836C36.4745 20.2181 36.0056 21.3499 36.0056 22.5301C36 23.2682 36.1837 23.9954 36.5392 24.6423C35.2339 25.0812 34.0181 25.7512 32.9498 26.6201C32.2374 25.3183 31.8765 23.8533 31.9027 22.3695C31.9288 20.8857 32.3412 19.4343 33.099 18.1584C33.8569 16.8824 34.9342 15.826 36.2247 15.0932C37.5151 14.3604 38.9743 13.9765 40.4583 13.9793C42.7256 13.9817 44.8993 14.8833 46.5027 16.4863C48.106 18.0893 49.0081 20.2629 49.011 22.5301ZM40.4583 25.9907C38.4815 25.9891 36.5486 26.5736 34.9041 27.6705C33.2595 28.7673 31.9771 30.3272 31.2191 32.1529C30.461 33.9785 30.2613 35.988 30.6452 37.9271C31.0291 39.8663 31.9794 41.648 33.376 43.0471C34.7725 44.4462 36.5525 45.3997 38.4909 45.7872C40.4294 46.1747 42.4392 45.9786 44.2662 45.2239C46.0933 44.4692 47.6555 43.1896 48.7553 41.5471C49.8552 39.9045 50.4433 37.9727 50.4453 35.9959C50.4426 33.3464 49.3902 30.8058 47.5184 28.9305C45.6465 27.0553 43.1079 25.9982 40.4583 25.9907ZM40.4583 41.8756C39.2933 41.8741 38.1549 41.5272 37.1871 40.8787C36.2193 40.2302 35.4656 39.3093 35.0212 38.2324C34.5768 37.1555 34.4618 35.971 34.6907 34.8287C34.9196 33.6864 35.4821 32.6377 36.3071 31.8151C37.1321 30.9926 38.1825 30.4331 39.3255 30.2076C40.4684 29.9821 41.6526 30.1006 42.7282 30.5481C43.8038 30.9957 44.7225 31.7521 45.3681 32.7218C46.0137 33.6915 46.3573 34.8309 46.3553 35.9959C46.3507 37.5569 45.7274 39.0524 44.622 40.1545C43.5166 41.2567 42.0193 41.8756 40.4583 41.8756ZM28.0979 37.4284C28.0979 39.6974 27.1965 41.8735 25.5921 43.478C23.9876 45.0825 21.8115 45.9838 19.5425 45.9838C17.2734 45.9838 15.0973 45.0825 13.4929 43.478C11.8884 41.8735 10.987 39.6974 10.987 37.4284H15.0925C15.0925 38.6086 15.5614 39.7404 16.3959 40.575C17.2304 41.4095 18.3623 41.8783 19.5425 41.8783C20.7227 41.8783 21.8545 41.4095 22.689 40.575C23.5236 39.7404 23.9924 38.6086 23.9924 37.4284H28.0979Z" fill="#252525"/>
</g>
</g>
</g>
</g>
<defs>
<linearGradient id="paint0_linear_55_56" x1="58.7356" y1="1.26346" x2="2.14638" y2="57.8527" gradientUnits="userSpaceOnUse">
<stop stop-color="#F1D961"/>
<stop offset="1" stop-color="#CDA146"/>
</linearGradient>
</defs>
</svg>
