<svg width="60" height="60" viewBox="0 0 60 60" fill="none" xmlns="http://www.w3.org/2000/svg">
<g id="Group 1261156282">
<path id="Vector" d="M59.9999 29.8719C60.0377 42.0096 52.8112 52.9752 41.6121 57.664C30.413 62.3527 17.5113 59.8571 8.88496 51.3115C0.258618 42.7659 -2.35199 29.8719 2.22603 18.6416C6.80405 7.41131 17.7383 0.0757049 29.8455 8.01397e-05C46.455 -0.0377322 59.9242 13.31 59.9999 29.8719Z" fill="#8DC63F"/>
<path id="Vector_2" d="M57.7582 29.8715C57.796 41.1018 51.0992 51.2355 40.7325 55.5839C30.3657 59.9323 18.4478 57.588 10.4646 49.723C2.48147 41.8202 0.060034 29.9093 4.29754 19.5487C8.53504 9.1503 18.6369 2.38188 29.8361 2.30625C45.197 2.23063 57.6825 14.5575 57.7582 29.8715Z" fill="#F9E988"/>
<path id="Vector_3" d="M30.5391 4.0843C32.3173 3.7818 34.0955 3.7818 35.8738 4.0843C37.652 4.34898 39.3924 4.95398 40.9815 5.78585C42.5705 6.65554 43.9326 7.82772 45.2947 8.92428C46.6567 10.0208 48.0188 11.1552 49.3051 12.403C50.6294 13.613 51.7644 15.0121 52.7103 16.5246C53.694 18.0371 54.4885 19.663 55.0939 21.3267C56.2668 24.7299 56.6451 28.3977 56.0776 31.8764H55.8884C55.3209 28.3977 54.5264 25.108 53.2778 21.9696C52.7103 20.3814 51.9914 18.8311 51.2347 17.3564C50.4024 15.8818 49.5322 14.4071 48.5485 13.0458C47.5647 11.6468 46.3162 10.399 44.9163 9.37804C43.5164 8.3571 41.8895 7.71429 40.3383 7.10929C38.7871 6.50429 37.198 5.86148 35.5711 5.36992C33.9442 4.91617 32.2795 4.53805 30.5391 4.19773V4.0843Z" fill="white"/>
<path id="Vector_4" d="M44.0722 20.078C42.067 19.5108 39.9861 18.6789 37.8673 17.8471C37.7538 17.3177 37.262 16.6749 36.3161 15.843C34.954 14.633 32.3434 14.6708 30.1112 15.2002C27.6519 14.633 25.1926 14.4061 22.8469 14.9733C3.66461 20.267 14.5232 33.1233 7.48593 46.0929C8.46964 48.2104 19.2904 60.6129 34.9162 57.2854C34.9162 57.2854 29.5815 44.467 41.6508 38.3036C51.45 33.3123 58.4873 24.0105 44.0722 20.078Z" fill="#8BC53F"/>
<path id="Vector_5" d="M30.1055 15.1998C31.5054 15.3133 36.5752 16.9402 37.8616 17.8482C36.7644 14.7079 33.1323 14.2918 30.1055 15.1998Z" fill="#009345"/>
<path id="Vector_6" d="M46.4486 28.5097C46.4486 29.5306 45.2 30.06 44.4811 29.3416C43.7623 28.6232 44.2541 27.3753 45.2757 27.3375C45.9189 27.3753 46.4486 27.8669 46.4486 28.5097ZM31.4281 23.1782C31.4281 25.3335 30.1039 27.2997 28.0987 28.1316C26.0934 28.9635 23.7855 28.5097 22.2343 26.9594C20.683 25.4091 20.229 23.1025 21.0614 21.0985C21.8937 19.0944 23.8612 17.771 26.0177 17.771C27.4555 17.771 28.8175 18.3382 29.8012 19.3213C30.8606 20.3801 31.4281 21.7413 31.4281 23.1782Z" fill="white"/>
<path id="Vector_7" d="M29.8363 23.216C29.8363 24.7285 28.9283 26.1276 27.4905 26.6948C26.0907 27.2619 24.4638 26.9594 23.3665 25.8629C22.2693 24.7663 21.9667 23.1782 22.5342 21.7413C23.1017 20.3423 24.5016 19.397 26.015 19.397C28.1337 19.4348 29.8363 21.1363 29.8363 23.216Z" fill="#58595B"/>
<path id="Vector_8" d="M50.8095 30.893C46.4585 33.9558 41.5022 36.2623 34.5027 36.2623C31.2111 36.2623 30.5679 32.7836 28.3735 34.4851C27.2384 35.3548 23.3036 37.3211 20.1633 37.2076C17.023 37.0564 11.9531 35.2036 10.5532 28.5486C9.98572 35.2414 9.72088 40.157 7.18594 45.791C12.1801 53.8073 24.0981 59.9707 34.9189 57.3238C33.746 49.1941 40.859 41.2535 44.8316 37.2076C46.3829 35.6195 49.2961 33.1239 50.8095 30.893Z" fill="#8BC53F"/>
<path id="Vector_9" d="M50.6143 31.0828C49.2522 32.3313 47.6632 33.2393 46.0363 34.0339C44.3715 34.8284 42.669 35.4338 40.8907 35.9256C39.1125 36.3796 37.2586 36.7202 35.4047 36.5688C33.5129 36.4175 31.6212 35.7743 30.3727 34.3744L30.4483 34.2987C31.9617 35.2824 33.74 35.6229 35.4804 35.6986C37.2586 35.7364 39.0368 35.6229 40.7772 35.2824C42.5176 34.9041 44.258 34.3744 45.9228 33.6934C47.5875 33.0123 49.2144 32.2178 50.6521 31.0828H50.6143Z" fill="#58595B"/>
</g>
</svg>
