<svg width="60" height="60" viewBox="0 0 60 60" fill="none" xmlns="http://www.w3.org/2000/svg">
<g id="Conflux logo 100x100 2" clip-path="url(#clip0_55_83)">
<path id="Vector" d="M30 60C46.5685 60 60 46.5685 60 30C60 13.4315 46.5685 0 30 0C13.4315 0 0 13.4315 0 30C0 46.5685 13.4315 60 30 60Z" fill="white"/>
<g id="Clip path group">
<mask id="mask0_55_83" style="mask-type:luminance" maskUnits="userSpaceOnUse" x="7" y="7" width="46" height="46">
<g id="clip0_2058_7209">
<path id="Vector_2" d="M52.5 7.5H7.5V52.5H52.5V7.5Z" fill="white"/>
</g>
</mask>
<g mask="url(#mask0_55_83)">
<g id="Group">
<path id="Vector_3" fill-rule="evenodd" clip-rule="evenodd" d="M14.1 33.6633L29.931 17.7657L45.8988 33.8019V26.1609L30.0678 10.0923L14.118 26.2149L14.1 33.6633Z" fill="#181818"/>
<path id="Vector_4" fill-rule="evenodd" clip-rule="evenodd" d="M17.7656 37.6034L29.8616 49.9082L42.098 37.6034L38.3648 33.8018L29.9318 42.305L25.3688 37.6034L33.7334 29.0318L29.984 25.3167L17.7656 37.6034Z" fill="#181818"/>
</g>
</g>
</g>
</g>
<defs>
<clipPath id="clip0_55_83">
<rect width="60" height="60" fill="white"/>
</clipPath>
</defs>
</svg>
