<svg width="60" height="60" viewBox="0 0 60 60" fill="none" xmlns="http://www.w3.org/2000/svg">
<g id="Cookie3 logo" clip-path="url(#clip0_211_2930)">
<path id="Vector" d="M30 60C46.5685 60 60 46.5685 60 30C60 13.4315 46.5685 0 30 0C13.4315 0 0 13.4315 0 30C0 46.5685 13.4315 60 30 60Z" fill="#12F67D"/>
<path id="Vector_2" fill-rule="evenodd" clip-rule="evenodd" d="M45.8213 10.173V13.075C45.8213 13.7215 45.2937 14.248 44.644 14.248H41.736C41.0882 14.248 40.5606 13.7234 40.5606 13.075V10.173C40.5606 9.52458 41.0863 9 41.736 9H44.644C45.2937 9 45.8213 9.52458 45.8213 10.173ZM51.0841 23.577V20.675C51.0841 20.0266 50.5564 19.502 49.9067 19.502H46.9987C46.349 19.502 45.8233 20.0266 45.8233 20.675V23.577C45.8233 24.2254 46.349 24.75 46.9987 24.75H49.9067C50.5564 24.75 51.0841 24.2234 51.0841 23.577ZM41.6927 21.0817V18.1796C41.6927 17.5312 41.165 17.0066 40.5173 17.0066H37.6093C36.9596 17.0066 36.4339 17.5312 36.4339 18.1796V21.0817C36.4339 21.7301 36.9596 22.2547 37.6093 22.2547H40.5173C41.167 22.2547 41.6927 21.7301 41.6927 21.0817ZM36.4753 30.0039H40.5606V30H44.6479C45.2996 30 45.8253 30.5246 45.8253 31.173V39.327C45.8253 39.9773 45.2977 40.502 44.6479 40.502H41.74C41.0882 40.502 40.5626 41.0266 40.5626 41.675V44.577C40.5626 45.2254 40.0369 45.75 39.3872 45.75H36.4792C35.8275 45.75 35.3018 46.2746 35.3018 46.923V49.825C35.3018 50.4754 34.7761 51 34.1264 51H20.693C20.0432 51 19.5176 50.4734 19.5176 49.825V46.923C19.5176 46.2746 18.9919 45.75 18.3422 45.75H15.4342C14.7845 45.75 14.2588 45.2254 14.2588 44.577V41.675C14.2588 41.0266 13.7331 40.502 13.0834 40.502H10.1754C9.52566 40.502 9 39.9754 9 39.327V25.921C9 25.2727 9.52566 24.748 10.1754 24.748H13.0834C13.7331 24.748 14.2588 24.2234 14.2588 23.575V20.675C14.2588 20.0266 14.7845 19.502 15.4342 19.502H18.3422C18.9919 19.502 19.5176 18.9773 19.5176 18.329V15.4289C19.5176 14.7805 20.0432 14.2559 20.693 14.2559H28.8637C29.5134 14.2559 30.0391 14.7805 30.0391 15.4289V23.5829C30.0391 24.2313 30.5648 24.7559 31.2145 24.7559H34.1225C34.7741 24.7559 35.2999 25.2805 35.2999 25.9289V28.831C35.2999 29.4793 35.8255 30.0039 36.4753 30.0039ZM35.2999 41.6828C35.2999 41.0324 35.8255 40.5079 36.4753 40.5079L39.3793 40.5039C40.029 40.5039 40.5547 39.9793 40.5547 39.3309V36.4269C40.5547 35.7785 40.029 35.2539 39.3793 35.2539H36.4713C35.8235 35.2539 35.2959 34.7293 35.2959 34.0809V31.1789C35.2959 30.5305 34.7683 30.0039 34.1185 30.0039H31.2106C30.5628 30.0039 30.0352 29.4793 30.0352 28.831V25.9289C30.0352 25.2824 29.5094 24.7559 28.8598 24.7559H25.9517C25.3021 24.7559 24.7763 24.2313 24.7763 23.5829V20.6809C24.7763 20.0324 24.2507 19.5079 23.6009 19.5079H20.693C20.0432 19.5079 19.5176 20.0324 19.5176 20.6809V23.5829C19.5176 24.2313 18.9919 24.7559 18.3422 24.7559H15.4342C14.7845 24.7559 14.2588 25.2805 14.2588 25.9289V39.3349C14.2588 39.9833 14.7845 40.5079 15.4342 40.5079H18.3422C18.9899 40.5079 19.5176 41.0324 19.5176 41.6809V44.5829C19.5176 45.2313 20.0432 45.7559 20.693 45.7559H34.1245C34.7741 45.7559 35.2999 45.2313 35.2999 44.5829V41.6828Z" fill="black"/>
</g>
<defs>
<clipPath id="clip0_211_2930">
<rect width="60" height="60" fill="white"/>
</clipPath>
</defs>
</svg>
