<svg width="60" height="60" viewBox="0 0 60 60" fill="none" xmlns="http://www.w3.org/2000/svg">
<g id="Group 1261159153">
<g id="Group 1261159152">
<circle id="Ellipse 1434" cx="30" cy="30" r="29.75" fill="#FF9211" stroke="#FF9211" stroke-width="0.5"/>
</g>
<g id="Group 1261159151">
<path id="Vector" fill-rule="evenodd" clip-rule="evenodd" d="M29.9566 14.1488L16.2435 22.0744V37.9256L29.9566 45.8512L43.6697 37.9256V22.0744L29.9566 14.1488ZM30.5326 10.1545C30.1761 9.94851 29.7371 9.94851 29.3807 10.1545L13.0759 19.5779C12.7195 19.784 12.5 20.1645 12.5 20.5765V39.4234C12.5 39.8354 12.7195 40.2161 13.0759 40.422L29.3807 49.8455C29.7371 50.0515 30.1761 50.0515 30.5326 49.8455L46.8374 40.422C47.1937 40.2161 47.4132 39.8354 47.4132 39.4234V20.5765C47.4132 20.1645 47.1937 19.784 46.8374 19.5779L30.5326 10.1545Z" fill="white"/>
<path id="Vector_2" d="M29.9515 19.8902L21.2053 24.9452V35.055L29.8939 40.0766C29.9296 40.0973 29.9515 40.1353 29.9515 40.1765V41.9074C29.9515 41.9962 29.8556 42.0517 29.7787 42.0073L19.9095 36.3033C19.6422 36.1488 19.4775 35.8633 19.4775 35.5543V24.4458C19.4775 24.1369 19.6422 23.8514 19.9095 23.697L29.5196 18.1427C29.7869 17.9882 30.1162 17.9882 30.3835 18.1427L40.2922 23.8488C40.3683 23.8927 40.369 24.0024 40.2935 24.0473C39.7087 24.3945 39.4092 24.549 38.755 24.9132C38.7196 24.933 38.6762 24.9328 38.6411 24.9125L29.9515 19.8902Z" fill="white"/>
<path id="Vector_3" d="M31.3916 30.2134C31.3916 30.1708 31.4151 30.1316 31.4527 30.1116L40.1491 25.478C40.2259 25.4372 40.3183 25.4928 40.3183 25.5799V36.8519C40.3183 36.8931 40.2965 36.931 40.2611 36.9517L31.5646 42.0065C31.4879 42.0511 31.3916 41.9956 31.3916 41.9068V30.2134Z" fill="white"/>
</g>
</g>
</svg>
