<svg width="60" height="39" viewBox="0 0 60 39" fill="none" xmlns="http://www.w3.org/2000/svg">
<g id="Group 1261159434">
<path id="Vector" d="M45.4265 32.7441L49.3572 38.7515H12.1261C11.4215 38.7515 10.7169 38.6774 10.0494 38.5661C9.38195 38.4549 8.75154 38.2695 8.12114 38.0841C5.822 37.2682 3.85661 35.822 2.41038 33.9308C2.00247 33.3745 1.63164 32.7812 1.2979 32.1879C0.482077 30.5192 0 28.6279 0 26.6255V12.1632C0 5.48826 5.45117 0.0370828 12.1261 0.0370828H27.2559C27.1446 0.148331 27.0705 0.222497 26.9592 0.333745C26.7738 0.51916 26.5884 0.741657 26.4401 0.927071C26.4401 0.927071 26.4401 0.927071 26.4401 0.964153C26.403 1.03832 26.3288 1.11248 26.2917 1.18665C26.2546 1.22373 26.2546 1.26082 26.2176 1.26082L22.4351 7.04573H12.1261C9.30779 7.04573 7.04574 9.34487 7.04574 12.1261V26.5884C7.04574 26.6625 7.04574 26.7367 7.04574 26.848C7.08282 27.775 7.37948 28.6279 7.86156 29.3696C8.15822 29.8517 8.52905 30.2596 8.97404 30.5933L9.08529 30.7046C9.19654 30.8158 9.34487 30.89 9.45612 30.9642C9.53028 31.0012 9.60445 31.0754 9.67861 31.1125C9.90111 31.2237 10.1607 31.335 10.3832 31.4091C10.4574 31.4462 10.5315 31.4462 10.6057 31.4833C10.9394 31.5946 11.2732 31.6316 11.6069 31.6687C11.644 31.6687 11.6811 31.6687 11.7182 31.6687C11.8294 31.6687 11.9407 31.6687 12.0519 31.6687H44.6848L45.4265 32.7441ZM60 38.7515L36.1928 2.29913C35.2658 0.852905 33.7083 0 32.0025 0C30.7787 0 29.6292 0.444994 28.7392 1.18665L28.5538 1.37206C28.4796 1.44623 28.4054 1.5204 28.3684 1.55748C28.22 1.70581 28.1088 1.85414 27.9975 2.00247C27.9234 2.11372 27.8492 2.18789 27.775 2.29913L10.2349 29.2213C10.754 29.6292 11.4215 29.8517 12.1261 29.8517H18.2077L32.0025 8.75154L35.1916 26.4401L38.3807 18.5043L51.6193 38.7515H60Z" fill="white"/>
</g>
</svg>
