<svg width="60" height="60" viewBox="0 0 60 60" fill="none" xmlns="http://www.w3.org/2000/svg">
<g id="easy2stake 1" clip-path="url(#clip0_73_1081)">
<path id="Vector" d="M13.4053 16.6428C12.5483 16.6407 11.7057 16.4233 10.9546 16.0106C10.2034 15.5981 9.56811 15.0034 9.1067 14.2813L0.432129 0.590332V16.7046C0.432129 19.4063 1.50542 21.9975 3.41589 23.9079C5.32636 25.8184 7.91752 26.8917 10.6192 26.8917H13.6445L20.8991 43.6542L29.9594 16.6428H13.4053Z" fill="#09F595"/>
<path id="Vector_2" d="M50.7353 14.2813C50.275 15.0044 49.6398 15.5998 48.8885 16.0126C48.1371 16.4253 47.2939 16.642 46.4367 16.6428H29.9211L38.9815 43.6542L46.236 26.8917H49.2613C51.9632 26.8917 54.5543 25.8184 56.4648 23.9079C58.3752 21.9975 59.4485 19.4063 59.4485 16.7046V0.590332L50.7353 14.2813Z" fill="#09F595"/>
<path id="Vector_3" d="M24.1406 51.1864L20.8606 43.6155L17.7736 52.8765C17.515 53.6452 17.4433 54.4644 17.5641 55.2664C17.685 56.0684 17.9951 56.83 18.4687 57.4885C18.9423 58.1467 19.5657 58.6828 20.2878 59.0525C21.0097 59.4221 21.8091 59.6146 22.6202 59.6139H37.2835C38.0938 59.6133 38.8924 59.4201 39.6133 59.0498C40.3343 58.6797 40.9568 58.1434 41.4294 57.4852C41.9022 56.827 42.2116 56.0659 42.3321 55.2645C42.4526 54.4632 42.3807 53.6446 42.1224 52.8765L39.0354 43.6155L35.7554 51.1864H24.1406Z" fill="#09F595"/>
</g>
<defs>
<clipPath id="clip0_73_1081">
<rect width="60" height="60" fill="white"/>
</clipPath>
</defs>
</svg>
