<svg width="60" height="60" viewBox="0 0 60 60" fill="none" xmlns="http://www.w3.org/2000/svg">
<g id="Group 1261154354">
<g id="Group 1000009213">
<path id="Vector" d="M30 46.5C25.6239 46.5 21.4271 44.7616 18.3327 41.6673C15.2384 38.5729 13.5 34.3761 13.5 30C13.5 25.6239 15.2384 21.4271 18.3327 18.3327C21.4271 15.2384 25.6239 13.5 30 13.5V0C24.0666 0 18.2664 1.75947 13.3329 5.05591C8.39942 8.35235 4.55425 13.0377 2.28362 18.5195C0.0129957 24.0013 -0.5811 30.0333 0.576456 35.8527C1.73401 41.6721 4.59122 47.0176 8.7868 51.2132C12.9824 55.4088 18.3279 58.266 24.1473 59.4235C29.9667 60.5811 35.9987 59.987 41.4805 57.7164C46.9623 55.4457 51.6477 51.6006 54.9441 46.6671C58.2405 41.7336 60 35.9334 60 30H46.5C46.5 34.3761 44.7616 38.5729 41.6673 41.6673C38.5729 44.7616 34.3761 46.5 30 46.5Z" fill="#2354E6"/>
<path id="Vector_2" d="M46.5 13.4998H30V29.9998H46.5V13.4998Z" fill="#17E6A1"/>
</g>
</g>
</svg>
