<svg width="100" height="100" viewBox="0 0 100 100" fill="none" xmlns="http://www.w3.org/2000/svg">
<circle cx="50" cy="50" r="50" fill="#001616"/>
<path d="M82.11 46.5739H87.0838C87.6073 46.5739 88 46.1823 88 45.6603V40.7006C88 40.1785 87.6073 39.7869 87.0838 39.7869H82.5026C81.9136 39.7869 81.5209 39.3301 81.5209 38.8081V33.9789C81.5209 33.5221 81.1937 33.0653 80.7356 33C80.6702 33 80.6047 33 80.5393 33H67.9738C67.712 33 67.4503 33.1305 67.2539 33.261L61.1021 39.3954C60.9058 39.5912 60.8403 39.8522 60.8403 40.1132V45.6603C60.8403 45.9213 60.7749 46.1171 60.5785 46.3129C60.3822 46.5086 60.1859 46.5739 59.9241 46.5739H54.8848C54.623 46.5739 54.4267 46.5086 54.2304 46.3129C54.0995 46.1171 53.9686 45.9213 53.9686 45.6603V40.1132C53.9686 39.8522 53.8377 39.5912 53.7068 39.3954L47.4241 33.261C47.2277 33.0653 46.966 33 46.7042 33H34.4005C33.877 33 33.4188 33.4568 33.4188 33.9789V38.8733C33.4188 39.1344 33.3534 39.3301 33.1571 39.5259C32.9607 39.7217 32.7644 39.7869 32.5026 39.7869H27.5942H27.5288C27.267 39.7869 27.0707 39.7217 26.8743 39.5259C26.678 39.3301 26.6126 39.1344 26.6126 38.8733V33.9136C26.6126 33.3916 26.2199 33 25.6963 33H20.7225C20.199 33 19.8063 33.3916 19.8063 33.9136V38.8733C19.8063 39.1344 19.7408 39.3301 19.5445 39.5259C19.3482 39.7217 19.1518 39.7869 18.8901 39.7869H13.9162C13.3927 39.7869 13 40.1785 13 40.7006V66.0864C13 66.6084 13.3927 67 13.9162 67H18.8901C19.4136 67 19.8063 66.6084 19.8063 66.0864V40.7006C19.8063 40.4395 19.8717 40.2438 20.0681 40.048C20.2644 39.8522 20.4607 39.7869 20.7225 39.7869H25.6963C25.9581 39.7869 26.1545 39.8522 26.3508 40.048C26.5471 40.2438 26.6126 40.4395 26.6126 40.7006V66.0864C26.6126 66.6084 27.0052 67 27.5288 67H27.5942H32.5026H46.7042C46.966 67 47.2277 66.8695 47.4241 66.739L53.5759 60.6046C53.7723 60.4088 53.8377 60.1478 53.8377 59.8868V54.3397C53.8377 54.0787 53.9031 53.8829 54.0995 53.6871C54.2304 53.4914 54.4921 53.4261 54.7539 53.4261H59.7932C60.055 53.4261 60.2513 53.4914 60.4476 53.6871C60.644 53.8829 60.7094 54.0787 60.7094 54.3397V59.8215C60.7094 60.0825 60.8403 60.3436 60.9712 60.5393L67.1885 66.739C67.3848 66.9347 67.6466 67 67.9084 67H87.0183C87.5419 67 88 66.5432 88 66.0211V61.1919C88 60.6699 87.5419 60.2131 87.0183 60.2131H68.5628C68.0393 60.2131 67.5812 59.7562 67.5812 59.2342V54.405C67.5812 53.8829 67.123 53.4261 66.5995 53.4261H61.6911C61.4293 53.4261 61.233 53.3608 61.0367 53.1651C60.9058 52.9693 60.7749 52.7735 60.7749 52.5125V47.5528C60.7749 47.2917 60.8403 47.096 61.0367 46.9002C61.233 46.7044 61.4293 46.6392 61.6911 46.6392H66.5995C67.123 46.6392 67.5812 46.1823 67.5812 45.6603V40.8311C67.5812 40.309 68.0393 39.8522 68.5628 39.8522H80.2775C80.5393 39.8522 80.7356 39.9175 80.9319 40.1132C81.1283 40.309 81.1937 40.5048 81.1937 40.7658V45.7255C81.1937 46.1823 81.5864 46.5739 82.11 46.5739ZM47.0969 59.1689C47.0969 59.691 46.6387 60.1478 46.1152 60.1478H34.4005C33.877 60.1478 33.4188 59.691 33.4188 59.1689V54.3397C33.4188 53.8177 33.877 53.3608 34.4005 53.3608H46.1152C46.377 53.3608 46.5733 53.4261 46.7696 53.6219C46.966 53.8177 47.0314 54.0134 47.0314 54.2745V59.1689H47.0969ZM47.0969 45.6603C47.0969 45.9213 47.0314 46.1171 46.8351 46.3129C46.6387 46.5086 46.4424 46.5739 46.1806 46.5739H34.4005C33.877 46.5739 33.4188 46.1171 33.4188 45.595V40.7006C33.4188 40.4395 33.4843 40.2438 33.6806 40.048C33.877 39.8522 34.0733 39.7869 34.3351 39.7869H46.1152C46.6387 39.7869 47.0969 40.2438 47.0969 40.7658V45.6603ZM53.9031 52.4472C53.9031 52.7083 53.8377 52.904 53.6414 53.0998C53.445 53.2956 53.2487 53.3608 52.9869 53.3608H48.0131C47.7513 53.3608 47.555 53.2956 47.3586 53.0998C47.1623 52.904 47.0969 52.7083 47.0969 52.4472V47.4875C47.0969 47.2265 47.1623 47.0307 47.3586 46.8349C47.555 46.6392 47.7513 46.5739 48.0131 46.5739H52.9869C53.2487 46.5739 53.445 46.6392 53.6414 46.8349C53.8377 47.0307 53.9031 47.2265 53.9031 47.4875V52.4472Z" fill="#52D500"/>
</svg>
