<svg width="56" height="60" viewBox="0 0 56 60" fill="none" xmlns="http://www.w3.org/2000/svg">
<g id="Group 1000009204">
<path id="Vector" d="M17.3373 29.9888L35.1432 47.7947L46.3667 36.5712C48.3302 34.563 51.5879 34.563 53.5292 36.5712C55.5374 38.5348 55.5374 41.7925 53.5292 43.7337L38.7356 58.5273C36.7274 60.4909 33.5143 60.4909 31.5285 58.5273L10.1748 37.1737V49.8475C10.1748 52.6367 7.92116 54.9349 5.08739 54.9349C2.29825 54.9349 0 52.6813 0 49.8475V10.1078C0 7.31871 2.25362 5.02045 5.08739 5.02045C7.87653 5.02045 10.1748 7.27408 10.1748 10.1078V22.8263L31.5285 1.47267C33.5366 -0.490889 36.7497 -0.490889 38.7356 1.47267L53.5292 16.2663C55.4927 18.2745 55.4927 21.4875 53.5292 23.4288C51.521 25.3923 48.3079 25.3923 46.3667 23.4288L35.1432 12.2053L17.3373 29.9888ZM35.1432 24.9015C32.3094 24.9015 30.0112 27.1551 30.0112 29.9888C30.0112 32.8226 32.2648 35.1209 35.0985 35.1209C37.9323 35.1209 40.2306 32.8672 40.2306 30.0335V29.9888C40.1859 27.1997 37.9323 24.9461 35.1432 24.9015Z" fill="#28CD96"/>
</g>
</svg>
