<svg width="60" height="60" viewBox="0 0 60 60" fill="none" xmlns="http://www.w3.org/2000/svg">
<circle cx="30" cy="30" r="30" fill="#130E3A"/>
<path fill-rule="evenodd" clip-rule="evenodd" d="M29.0861 10.656C28.0013 10.6648 26.9186 11.0675 26.0908 11.8642C24.4172 13.4758 24.4172 16.0865 26.0908 17.6978L37.5546 28.7329L40.25 26.1383L40.3214 26.0685C42.1084 24.2748 42.0844 21.4256 40.25 19.6597L32.1511 11.8642L32.0786 11.7964C31.2607 11.0444 30.2101 10.6642 29.1564 10.656H29.0861ZM15.4669 22.8408L37.2808 43.8859L43.2975 38.0813L21.4835 17.0362L15.4669 22.8408ZM10.9304 27.6256L10.8599 27.6948C10.0765 28.4779 9.68299 29.4854 9.67969 30.494V30.5201C9.68327 31.5585 10.1002 32.5955 10.9304 33.3876C12.5986 34.9793 15.3031 34.9793 16.9705 33.3876C18.6387 31.7961 18.6387 29.2172 16.9705 27.6256L13.951 24.7453L10.9304 27.6256ZM41.7928 27.2672C40.1257 28.8587 40.1257 31.4376 41.7928 33.0289L44.8134 35.9103L47.8337 33.0289L47.9042 32.9603C49.5008 31.3642 49.4777 28.8361 47.8337 27.2672C46.9993 26.4721 45.9062 26.0743 44.8131 26.0743C43.72 26.0743 42.6268 26.4721 41.7928 27.2672ZM18.5103 34.7868L18.4373 34.8588C16.6542 36.6386 16.6784 38.8453 18.5103 40.6136L26.619 48.5236L26.6912 48.5914C27.5142 49.3499 28.5728 49.7306 29.633 49.7338H29.6588C30.7502 49.7306 31.8404 49.3273 32.6725 48.5236C34.3446 46.9106 34.3446 44.2945 32.6725 42.681L21.203 32.1885L18.5103 34.7868Z" fill="url(#paint0_linear_211_2974)"/>
<defs>
<linearGradient id="paint0_linear_211_2974" x1="37.7798" y1="17.9043" x2="17.8707" y2="40.632" gradientUnits="userSpaceOnUse">
<stop stop-color="#F170A8"/>
<stop offset="0.473958" stop-color="#D561CE"/>
<stop offset="1" stop-color="#6EBFFA"/>
</linearGradient>
</defs>
</svg>
