<svg width="82" height="50" viewBox="0 0 82 50" fill="none" xmlns="http://www.w3.org/2000/svg">
<g id="Group 1261154351">
<g id="Group 1000009224">
<g id="Group">
<path id="Vector" d="M80.1851 35.3552L62.5612 4.78433C58.6997 -1.59739 49.2754 -1.65387 45.548 5.05611L27.0417 36.8482C23.5861 42.6793 27.8536 50 34.7683 50H71.8444C78.8261 50 84.0466 42.4746 80.1815 35.3587L80.1851 35.3552Z" fill="#002F81"/>
<path id="Vector_2" d="M54.771 37.7263L53.6873 35.8274C52.6708 34.066 50.4329 30.2681 50.4329 30.2681L35.5199 4.37409C31.6549 -1.3864 22.5058 -1.86291 18.6408 5.39065L1.28874 35.4179C-2.30451 41.722 1.96644 49.925 9.76005 49.9921H71.7136C62.1551 50.0592 59.1054 45.1105 54.7674 37.7228L54.771 37.7263Z" fill="#1877F2"/>
<path id="Vector_3" d="M54.7688 37.6603L53.6852 35.7613C52.6686 34 50.4308 30.202 50.4308 30.202L40.8052 13.2559L26.9758 36.8449C23.5202 42.676 27.7876 49.9967 34.7023 49.9967H62.2906H71.7114C62.0859 49.9296 59.1033 45.048 54.7652 37.6603H54.7688Z" fill="url(#paint0_linear_55_76)"/>
</g>
</g>
</g>
<defs>
<linearGradient id="paint0_linear_55_76" x1="22.0236" y1="26.1217" x2="64.8602" y2="41.9524" gradientUnits="userSpaceOnUse">
<stop stop-color="#264CA2" stop-opacity="0"/>
<stop offset="1" stop-color="#002F81"/>
</linearGradient>
</defs>
</svg>
