<svg width="100" height="100" viewBox="0 0 100 100" fill="none" xmlns="http://www.w3.org/2000/svg">
<circle cx="50" cy="50" r="50" fill="#111416"/>
<g opacity="0.2">
<path d="M72.5703 67.8317L77.5774 51.0077L93.7714 51.0076L88.5878 67.8317H72.5703Z" fill="#FF99F0"/>
<path d="M7.9375 67.8317L12.9445 51.0077L29.1388 51.0076L23.9552 67.8317H7.9375Z" fill="#FF6D01"/>
<path d="M61.4531 51.0078L66.4602 34.1837L82.6542 34.1836L77.4706 51.0078H61.4531Z" fill="#FAC670"/>
<path d="M29.1406 51.0078L34.1476 34.1837L50.342 34.1836L45.1583 51.0078H29.1406Z" fill="#DFFF67"/>
<path d="M40.2578 67.8317L45.2648 51.0077L61.4593 51.0076L56.2752 67.8317H40.2578Z" fill="#38D996"/>
</g>
<path d="M70.6328 64.895L75.6399 48.0709L91.8339 48.0708L86.6503 64.895H70.6328Z" fill="#FF99F0"/>
<path d="M6 64.8955L11.007 48.0713L27.2013 48.0713L22.0176 64.8955H6Z" fill="#FF6D01"/>
<path d="M59.5156 48.0712L64.5227 31.2471L80.7172 31.2471L75.5336 48.0712H59.5156Z" fill="#FAC670"/>
<path d="M27.2031 48.0712L32.2101 31.2471L48.4045 31.2471L43.2208 48.0712H27.2031Z" fill="#DFFF67"/>
<path d="M38.3203 64.8955L43.3273 48.0713L59.5218 48.0713L54.3379 64.8955H38.3203Z" fill="#38D996"/>
</svg>
