<svg width="100" height="100" viewBox="0 0 100 100" fill="none" xmlns="http://www.w3.org/2000/svg">
<circle cx="50" cy="50" r="50" fill="url(#paint0_radial_2779_1000)"/>
<path d="M46.6522 29.5723C29.5185 31.2886 17.3834 47.6394 20.4849 64.7731C21.2076 68.778 22.3217 70.5245 24.7307 71.5182C27.0493 72.5119 29.5486 71.9398 32.349 69.7717C34.4568 68.1758 38.7026 66.0981 41.7138 65.1947C43.8518 64.5623 45.2369 64.3817 48.5492 64.2612C56.1374 63.9601 61.0758 65.3754 67.4294 69.6212C70.531 71.6989 71.2536 72 73.0302 72C74.8671 72 76.1017 71.4279 77.4266 69.9524C80.6185 66.3992 80.8895 55.86 77.9686 48.0008C74.5057 38.7263 66.6465 32.0113 56.9204 29.9938C54.1802 29.4518 49.6935 29.241 46.6522 29.5723Z" fill="#0077FF"/>
<defs>
<radialGradient id="paint0_radial_2779_1000" cx="0" cy="0" r="1" gradientUnits="userSpaceOnUse" gradientTransform="translate(50 64) rotate(90) scale(36)">
<stop stop-color="#02284D"/>
<stop offset="1" stop-color="#04111A"/>
</radialGradient>
</defs>
</svg>
