<svg width="53" height="60" viewBox="0 0 53 60" fill="none" xmlns="http://www.w3.org/2000/svg">
<g id="Group 1261159430">
<g id="Group">
<path id="Vector" d="M25.8201 0L52.0388 14.8601L47.3651 17.5531C44.8009 18.9908 41.9105 19.7458 38.9708 19.7458C36.0311 19.7458 33.1406 18.9908 30.5764 17.5531L25.9039 14.8658L12.91 22.1317V7.3508L25.8201 0Z" fill="white"/>
<path id="Vector_2" d="M0 15.0186L12.91 22.3694V31.6963C12.9173 33.3623 13.3601 34.9974 14.1945 36.4394C15.0288 37.8814 16.2257 39.0802 17.6664 39.9168L25.8201 44.5055L12.7515 51.9356L0 44.6596V15.0186Z" fill="white"/>
<path id="Vector_3" d="M25.8202 44.5056V59.3612L52.0389 44.5056L49.6607 43.1613C46.4054 41.2971 42.7193 40.3164 38.9681 40.3164C35.2168 40.3164 31.5307 41.2971 28.2754 43.1613L25.8202 44.5056Z" fill="white"/>
<path id="Vector_4" d="M25.3853 44.5644V59.9998L52.6775 44.5644L50.2043 43.1692C46.8147 41.2322 42.9784 40.2134 39.0744 40.2134C35.1705 40.2134 31.3341 41.2322 27.9446 43.1692L25.3853 44.5644Z" fill="#6ACCBF"/>
</g>
</g>
</svg>
