<svg width="53" height="60" viewBox="0 0 53 60" fill="none" xmlns="http://www.w3.org/2000/svg">
<g id="Group 1261159430">
<g id="Group">
<path id="Vector" d="M25.8202 0L52.0389 14.8601L47.3653 17.5531C44.8011 18.9908 41.9106 19.7458 38.9709 19.7458C36.0312 19.7458 33.1407 18.9908 30.5765 17.5531L25.904 14.8658L12.9102 22.1317V7.3508L25.8202 0Z" fill="white"/>
<path id="Vector_2" d="M0 15.0186L12.91 22.3694V31.6963C12.9173 33.3623 13.3601 34.9974 14.1945 36.4394C15.0288 37.8814 16.2257 39.0802 17.6664 39.9168L25.8201 44.5055L12.7515 51.9356L0 44.6596V15.0186Z" fill="white"/>
<path id="Vector_3" d="M25.8203 44.5056V59.3612L52.039 44.5056L49.6609 43.1613C46.4056 41.2971 42.7195 40.3164 38.9682 40.3164C35.2169 40.3164 31.5308 41.2971 28.2755 43.1613L25.8203 44.5056Z" fill="white"/>
<path id="Vector_4" d="M25.3848 44.5644V59.9998L52.6771 44.5644L50.2038 43.1692C46.8142 41.2322 42.9779 40.2134 39.0739 40.2134C35.17 40.2134 31.3336 41.2322 27.9441 43.1692L25.3848 44.5644Z" fill="#6ACCBF"/>
</g>
</g>
</svg>
