<svg width="60" height="41" viewBox="0 0 60 41" fill="none" xmlns="http://www.w3.org/2000/svg">
<g id="Group 1261159479">
<path id="Vector" d="M60 0L0 6.70009L4.52934 40.0873L30.041 36.741L29.7343 40.0255L60 36.9222V0Z" fill="#AAFF00"/>
<path id="Vector_2" d="M14.8784 20.5521L21.4769 19.9178L20.9117 14.0377L14.313 14.6721L14.8784 20.5521ZM25.5853 25.9044L15.4863 26.8753L16.3576 35.9368L7.90824 36.7494L4.68555 9.15232L23.7461 6.77393C26.6029 6.49927 28.8522 8.35597 29.1272 11.2154L30.0215 20.5188C30.2965 23.3783 28.4421 25.6296 25.5853 25.9044Z" fill="black"/>
<path id="Vector_3" d="M56.8414 32.0458L39.0977 33.7519C36.2409 34.0265 33.9914 32.1699 33.7166 29.3105L31.9508 10.9453C31.6758 8.08582 33.5302 5.83454 36.387 5.55987L54.5732 3.81128L52.8252 10.9706L40.5938 12.1466L41.9722 26.4843L48.9732 25.811L48.5549 21.4616L44.451 21.8562L45.848 16.1125L55.2226 15.2112L56.8414 32.0458Z" fill="black"/>
</g>
</svg>
