<svg width="100" height="100" viewBox="0 0 100 100" fill="none" xmlns="http://www.w3.org/2000/svg">
<circle cx="50" cy="50" r="50" fill="#191919"/>
<path d="M66.7474 58.9519H39.6334V79.8858H66.7474V58.9519Z" fill="#E85C50"/>
<path d="M81.5751 20.0925H60.9673V39.1664H81.5751V20.0925Z" fill="#E85C50"/>
<path d="M39.7816 20.1221C39.8557 20.1221 39.8557 20.1962 39.8557 20.2703V58.6552C39.8849 58.6832 39.9201 58.7044 39.9585 58.7172C39.9969 58.73 40.0377 58.7342 40.078 58.7293H60.4561C60.6784 58.7293 60.7525 58.6552 60.7525 58.4329V20.5667C60.7525 20.4185 60.6784 20.2703 60.8266 20.1962C60.8362 20.1863 60.8478 20.1785 60.8605 20.1731C60.8732 20.1678 60.8869 20.165 60.9007 20.165C60.9145 20.165 60.9281 20.1678 60.9409 20.1731C60.9536 20.1785 60.9651 20.1863 60.9748 20.1962C61.0489 20.2703 61.0489 20.3444 61.123 20.4185C61.864 21.9746 62.6791 23.4567 63.4202 25.0128C64.0871 26.2726 64.6799 27.6064 65.3468 28.8661C66.0878 30.2741 66.7548 31.682 67.4958 33.09C68.1627 34.3497 68.7555 35.6094 69.4224 36.9433C70.0153 38.1289 70.6081 39.2404 71.1268 40.352C71.2414 40.5153 71.3407 40.689 71.4232 40.8707V78.5591C71.4232 78.9296 71.4232 78.9296 71.7937 79.0037C71.8678 79.0037 71.8678 79.0037 71.9419 79.0778C71.6671 79.2207 71.3624 79.2969 71.0527 79.3001C69.7883 79.6115 68.4988 79.8098 67.1994 79.8929C66.6087 79.9546 66.0147 79.9793 65.4209 79.967C62.3086 80.0411 59.1963 79.967 56.1581 79.967H39.7075L39.7816 79.8929C39.9729 79.8319 40.1739 79.8068 40.3744 79.8188H60.6043C60.7525 79.7447 60.6784 79.5965 60.6784 79.5224V59.1739C60.4561 59.6927 60.2338 60.1373 60.0115 60.656C59.1222 62.4344 58.3071 64.287 57.4179 66.0654C56.9733 67.0288 56.4546 68.0662 56.0099 69.0295C55.9544 69.1822 55.8503 69.3124 55.7135 69.4C55.5735 69.4604 55.4209 69.4858 55.2689 69.4741H44.8205C44.5982 69.4 44.5241 69.2518 44.45 69.0295L42.6715 65.2207L40.7449 61.1451C40.4485 60.4781 40.1521 59.8853 39.7816 59.1443V79.3001C39.8359 79.4998 39.8093 79.7128 39.7075 79.8929H33.6311C33.5908 79.8978 33.55 79.8936 33.5116 79.8808C33.4732 79.868 33.438 79.8468 33.4088 79.8188C33.4829 79.7447 33.557 79.8188 33.6311 79.8188H33.7052C33.6311 79.8188 33.4829 79.7447 33.4088 79.8929C32.9382 79.9052 32.4675 79.8804 32.0008 79.8188C31.1116 79.7447 30.1483 79.5224 29.259 79.3742C29.2394 79.3742 29.2205 79.3664 29.2066 79.3525C29.1927 79.3386 29.1849 79.3198 29.1849 79.3001C29.2824 79.0659 29.3082 78.808 29.259 78.5591V40.9448L29.4813 40.2779C30.1483 39.0181 30.7411 37.7584 31.408 36.4246C33.7793 31.682 36.1505 26.9395 38.5218 22.1228L39.411 20.3444C39.4851 20.2703 39.4851 20.048 39.7075 20.1962V20.4926C39.6869 20.4297 39.683 20.3625 39.696 20.2976C39.709 20.2327 39.7384 20.1723 39.7816 20.1221Z" fill="#E85C50"/>
<path d="M29.3331 40.8709V79.1818C29.3331 79.33 29.259 79.33 29.1108 79.33C27.5596 79.0353 26.0611 78.5108 24.6647 77.7738C23.892 77.3843 23.1489 76.9385 22.4416 76.44C21.5197 75.7496 20.7437 74.8833 20.1586 73.8912C19.5736 72.8991 19.191 71.8009 19.0329 70.66V70.4081C19.0329 70.334 18.9588 70.1857 19.0329 70.0375V20.4187C19.1811 20.4187 19.1811 20.5669 19.2552 20.641C19.9222 21.8266 20.515 22.9382 21.1078 24.1238C21.7747 25.5318 22.5157 26.8656 23.1827 28.2735C23.8496 29.5333 24.5165 30.8671 25.1093 32.1269C25.4798 32.942 25.9244 33.7571 26.295 34.5722L27.4065 36.7953L28.7403 39.463C28.9574 39.8373 29.1314 40.2351 29.259 40.6486C29.4072 40.6486 29.4072 40.7227 29.3331 40.8709Z" fill="#CF3339"/>
<path d="M71.9419 79.1075C71.7899 79.0958 71.6373 79.1213 71.4973 79.1816C71.3491 79.1816 71.275 79.1816 71.275 79.0334V40.7226C71.2508 40.648 71.2449 40.5686 71.2578 40.4912C71.2707 40.4138 71.302 40.3407 71.3491 40.278C72.3865 38.2772 73.4239 36.2764 74.3873 34.2757C74.3873 34.2016 74.4614 34.2016 74.4614 34.1275V34.0534C74.4614 34.0337 74.4692 34.0149 74.4831 34.001C74.497 33.9871 74.5158 33.9793 74.5355 33.9793V33.9052C74.5635 33.8759 74.5847 33.8408 74.5975 33.8023C74.6103 33.7639 74.6144 33.7231 74.6096 33.6829C74.6096 33.6632 74.6174 33.6444 74.6313 33.6305C74.6452 33.6166 74.664 33.6088 74.6837 33.6088C75.2024 32.5713 75.7211 31.608 76.2398 30.5706C76.5362 30.0519 76.7585 29.5331 77.0549 28.9403C77.2773 28.4957 77.5737 27.977 77.796 27.5324C77.796 27.5127 77.8038 27.4939 77.8177 27.48C77.8316 27.4661 77.8504 27.4583 77.8701 27.4583C78.6852 25.9021 79.4262 24.346 80.1672 22.8639C80.5378 22.197 80.9083 21.5301 81.2047 20.9373C81.2788 20.7891 81.3529 20.6409 81.5011 20.6409C81.5377 20.6957 81.5573 20.7602 81.5573 20.8261C81.5573 20.8921 81.5377 20.9565 81.5011 21.0114V70.1412C81.5059 70.5712 81.4305 70.9984 81.2788 71.4009C80.9076 72.6867 80.2197 73.8587 79.278 74.8096C78.604 75.5965 77.832 76.2938 76.9808 76.8845C75.8914 77.6079 74.7229 78.2046 73.498 78.6629L71.9419 79.1075Z" fill="#CF3339"/>
<path d="M29.3331 40.8709C29.3146 40.7595 29.263 40.6562 29.1849 40.5745L28.2957 38.7961C27.9993 38.2032 27.7029 37.6845 27.4065 37.0176C27.1842 36.4989 26.8137 35.9802 26.5914 35.3874C26.3691 34.7945 25.9244 34.098 25.7021 33.357C25.5828 33.0705 25.4338 32.7973 25.2575 32.5418C25.0352 32.1713 24.887 31.7267 24.6647 31.2821C24.2253 30.5145 23.8295 29.7229 23.4791 28.9108C23.1827 28.3921 22.9604 27.8734 22.6639 27.3547C22.3675 26.836 22.0711 26.3172 21.8488 25.7244C21.6265 25.1316 21.1078 24.3906 20.8114 23.6496C20.6632 23.3532 20.4409 23.0567 20.2927 22.6862C19.9222 21.9452 19.5517 21.2042 19.107 20.4632V70.4081C19.0455 70.0659 19.0207 69.7181 19.0329 69.3706V20.0186C19.1811 20.0186 19.2552 20.0186 19.3293 20.0927H39.5593C39.7816 20.0927 39.7075 20.2409 39.6334 20.315L35.5577 28.3921C34.7426 30.0965 33.8534 31.7267 33.0383 33.4311C32.7419 34.0239 32.4454 34.6908 32.149 35.2836L29.5555 40.3967L29.3331 40.8709Z" fill="#E33936"/>
<path d="M74.5356 34.2015C74.5356 34.2756 74.4615 34.3497 74.4615 34.4238C73.7946 35.7576 73.1276 37.1656 72.3866 38.4994C72.0161 39.1663 71.7197 39.7592 71.4233 40.4261C71.3492 40.5002 71.3492 40.5743 71.2751 40.7225C71.1269 40.7225 71.1269 40.6484 71.0528 40.5743C70.9046 40.2779 70.8305 40.0556 70.6823 39.7592C70.5341 39.4627 70.3118 39.0922 70.1635 38.7958L69.2743 37.0174C68.9779 36.4246 68.6074 35.8317 68.311 35.1648C68.0146 34.4979 67.6441 33.831 67.3477 33.1641C67.1792 32.7787 66.981 32.4071 66.7548 32.0525L65.8656 30.2741C65.5692 29.6072 65.1987 28.9402 64.9023 28.2733C64.7338 27.888 64.5356 27.5163 64.3095 27.1618C64.0131 26.4208 63.5684 25.7538 63.272 25.0869C63.1036 24.7016 62.9054 24.3299 62.6792 23.9754L60.9008 20.4185C60.8267 20.3444 60.8267 20.1962 60.7526 20.1221H81.4271C81.4271 20.1962 81.5012 20.2703 81.4271 20.3444C81.1634 20.7043 80.9397 21.0919 80.7602 21.5004C79.7227 23.5011 78.7594 25.5019 77.722 27.5027C77.4462 27.9562 77.1987 28.4265 76.9809 28.9106C76.6845 29.4293 76.4622 29.948 76.1658 30.5408L74.6097 33.6828C74.5356 33.7569 74.5356 33.831 74.4615 33.9051C74.3874 33.9051 74.4615 33.9792 74.3874 34.0533C74.5356 34.0977 74.5356 34.2015 74.5356 34.2015Z" fill="#E33936"/>
<path d="M77.8701 27.6067C78.0867 27.074 78.3342 26.5544 78.6111 26.0505C78.6852 25.9023 78.7593 25.68 78.8334 25.5318C79.204 24.7908 79.5745 24.0498 79.945 23.3828C80.3155 22.7159 80.5378 22.2417 80.8342 21.6785C81.0565 21.308 81.2047 20.9375 81.427 20.567C81.5011 20.4929 81.5011 20.4188 81.5752 20.4929V69.4003C81.5909 69.6742 81.5659 69.9489 81.5011 70.2154V20.7152C81.427 20.7152 81.427 20.7893 81.3529 20.8634C81.2692 21.0681 81.1701 21.2663 81.0565 21.4562C80.0191 23.3828 79.0557 25.3836 78.0924 27.3844C78.0183 27.3844 78.0183 27.5326 77.8701 27.6067Z" fill="#E34C37"/>
<path d="M60.9006 20.1223C60.7524 20.1223 60.6783 20.2705 60.6783 20.4187V58.2849C60.6783 58.8036 60.7524 58.7295 60.2337 58.7295H40.2261C40.0779 58.7295 39.9297 58.8036 39.8556 58.6554C39.9666 58.7226 40.0977 58.7489 40.2261 58.7295H60.5301C60.5602 58.7331 60.5906 58.7298 60.6192 58.7199C60.6478 58.71 60.6738 58.6937 60.6952 58.6723C60.7166 58.6509 60.7329 58.6249 60.7428 58.5963C60.7527 58.5677 60.756 58.5373 60.7524 58.5072V20.3446C60.6783 20.1223 60.7524 20.0482 60.9006 20.1223Z" fill="#E9654C"/>
<path d="M39.6334 20.3446C39.6334 20.2705 39.7075 20.1223 39.5593 20.1223H19.033C19.1159 20.0528 19.2212 20.0159 19.3294 20.0185H39.337C39.4852 20.0185 39.6334 19.9444 39.7075 20.0926V58.5517C39.6652 58.5132 39.6388 58.4604 39.6334 58.4035V20.7151C39.67 20.6603 39.6896 20.5958 39.6896 20.5298C39.6896 20.4639 39.67 20.3994 39.6334 20.3446Z" fill="#E7563D"/>
<path d="M60.9006 20.1223C61.0113 20.052 61.1401 20.016 61.2711 20.0185H81.2046C81.3528 20.0185 81.4269 19.9444 81.5752 20.0926L60.9006 20.1223Z" fill="#E85C50"/>
<path d="M60.7524 79.9968H39.7815C39.77 79.8687 39.7957 79.74 39.8556 79.6263C40.3743 78.5147 40.893 77.4032 41.4858 76.2917C42.5233 74.0686 43.5607 71.8455 44.6722 69.6225C44.6722 69.5484 44.7463 69.4742 44.8204 69.4001H55.8617C56.1581 69.8448 56.3063 70.3635 56.6027 70.8081C57.0473 71.7714 57.4919 72.6606 57.9365 73.5499C58.8999 75.5506 59.7891 77.4773 60.7524 79.478V79.9968Z" fill="#CF3339"/>
<path d="M44.7465 69.3262C44.6724 69.4744 44.6724 69.6967 44.5242 69.8449C44.0055 70.8824 43.4867 71.9939 42.968 73.0313C42.5975 73.7723 42.3011 74.5134 41.9306 75.1803C41.5601 75.9954 41.1155 76.8846 40.745 77.6998C40.4485 78.2926 40.1521 78.9595 39.8557 79.5523C39.7816 79.6264 39.7816 79.7746 39.7075 79.8487H39.6334V58.9519C39.725 59.0363 39.8003 59.1368 39.8557 59.2483C40.078 59.6929 40.2262 60.1375 40.4485 60.5822C40.745 61.2491 41.1155 61.9901 41.4119 62.657C42.0047 63.8427 42.5234 65.1024 43.1162 66.288C43.4867 67.029 43.7831 67.696 44.1537 68.437C44.376 68.7334 44.5242 69.0298 44.7465 69.3262Z" fill="#E33937"/>
<path d="M60.7524 79.9969C60.6681 79.6271 60.5174 79.2756 60.3078 78.9595C60.1554 78.5198 59.9567 78.0975 59.715 77.6998C59.2704 76.6623 58.7517 75.699 58.233 74.6616C57.8625 73.8464 57.4919 73.0313 57.0473 72.2162C56.6027 71.4011 56.2322 70.5119 55.8617 69.6226C55.7876 69.5485 55.7876 69.4744 55.7876 69.3262C56.3804 67.9924 57.0473 66.7326 57.6402 65.3988C58.0107 64.6578 58.3812 63.8426 58.7517 63.1016C59.1222 62.3606 59.5668 61.3973 59.9373 60.5822C60.1656 60.1518 60.3637 59.7061 60.5301 59.2483C60.5406 59.1846 60.5662 59.1244 60.6049 59.0728C60.6436 59.0212 60.6942 58.9797 60.7524 58.9519V79.6264C60.7524 79.7746 60.8265 79.8487 60.7524 79.9969Z" fill="#E33937"/>
<path d="M33.4088 79.9227C33.4381 79.8947 33.4732 79.8736 33.5117 79.8607C33.5501 79.8479 33.5909 79.8438 33.6311 79.8486H39.5593C39.5045 79.8853 39.44 79.9048 39.374 79.9048C39.3081 79.9048 39.2436 79.8853 39.1888 79.8486H33.6311C33.6018 79.8767 33.5667 79.8978 33.5283 79.9106C33.4898 79.9235 33.449 79.9276 33.4088 79.9227Z" fill="#E75840"/>
<path d="M74.7578 33.6829C74.753 33.6426 74.7571 33.6018 74.7699 33.5634C74.7827 33.5249 74.8039 33.4898 74.8319 33.4605C75.2765 32.5713 75.7212 31.608 76.2399 30.7188C76.2399 30.6447 76.314 30.6447 76.314 30.5706H76.3881C75.9435 31.5339 75.4247 32.4972 74.9801 33.3864C74.906 33.5346 74.906 33.6829 74.7578 33.6829Z" fill="#E04437"/>
<path d="M76.3881 30.6447C76.504 30.262 76.6528 29.8902 76.8327 29.5331C76.9029 29.3454 77.003 29.1702 77.1291 29.0144H77.2032L76.3881 30.6447Z" fill="#E24837"/>
<path d="M77.2031 29.0144C77.3491 28.5126 77.5743 28.0373 77.87 27.6064V27.7546C77.6041 28.15 77.3806 28.5722 77.2031 29.0144Z" fill="#E34C37"/>
<path d="M74.6837 33.9794C74.6837 33.9053 74.6837 33.7571 74.8319 33.7571C74.7578 33.8312 74.7578 33.9053 74.6837 33.9794Z" fill="#E04437"/>
<path d="M74.6096 34.0979C74.6096 34.0238 74.6096 34.0238 74.6837 33.9497C74.6837 34.0535 74.6096 34.0535 74.6096 34.0979Z" fill="#E04437"/>
<path d="M74.5355 34.2017C74.5355 34.1276 74.5355 34.1276 74.6096 34.0535C74.6096 34.0979 74.6096 34.2017 74.5355 34.2017Z" fill="#E04437"/>
</svg>
