<svg width="60" height="60" viewBox="0 0 60 60" fill="none" xmlns="http://www.w3.org/2000/svg">
<g id="Group 1261159144">
<g id="Group 1261159142">
<circle id="Ellipse 1434" cx="30" cy="30" r="29.75" fill="#F8F6D7" stroke="#F8F6D7" stroke-width="0.5"/>
</g>
<g id="Group">
<path id="Vector" d="M44.7027 15V27.98C39.9561 29.2032 34.9781 29.8514 29.8514 29.8514C24.7247 29.8514 19.7466 29.2008 15 27.98V15C19.7466 16.2208 24.7247 16.8713 29.8514 16.8713C34.9781 16.8713 39.9561 16.2232 44.7027 15Z" fill="#1E1E1E"/>
<path id="Vector_2" d="M15 45.0008V32.0208C19.7466 30.7976 24.7247 30.1494 29.8514 30.1494C34.9781 30.1494 39.9561 30.8 44.7027 32.0208V45.0008C39.9561 43.78 34.9781 43.1294 29.8514 43.1294C24.7247 43.1294 19.7466 43.7776 15 45.0008Z" fill="#1E1E1E"/>
</g>
</g>
</svg>
