<svg width="100" height="100" viewBox="0 0 100 100" fill="none" xmlns="http://www.w3.org/2000/svg">
<circle cx="50" cy="50" r="50" fill="url(#paint0_linear_1632_554)"/>
<path fill-rule="evenodd" clip-rule="evenodd" d="M84.3548 42.4695C84.9734 43.0955 84.9734 44.1105 84.3548 44.7365L72.488 56.7511C71.8699 57.3771 70.8673 57.3771 70.249 56.7511C69.6306 56.125 69.6306 55.1101 70.249 54.484L82.1156 42.4695C82.7341 41.8435 83.7366 41.8435 84.3548 42.4695ZM52.3205 44.7365C51.7022 44.1105 51.7022 43.0955 52.3205 42.4695C52.9388 41.8435 53.9413 41.8435 54.5597 42.4695L66.4265 54.484C67.0449 55.1101 67.0449 56.125 66.4265 56.7511C65.808 57.3771 64.8057 57.3771 64.1873 56.7511L52.3205 44.7365ZM48.498 42.4695C49.1162 43.0955 49.1162 44.1105 48.498 44.7365L36.6311 56.7511C36.0129 57.3771 35.0103 57.3771 34.392 56.7511C33.7736 56.125 33.7736 55.1101 34.392 54.484L46.2588 42.4695C46.8772 41.8435 47.8796 41.8435 48.498 42.4695ZM16.4637 44.7365C15.8454 44.1105 15.8454 43.0955 16.4637 42.4695C17.0821 41.8435 18.0846 41.8435 18.7029 42.4695L30.5696 54.484C31.188 55.1101 31.188 56.125 30.5696 56.7511C29.9513 57.3771 28.9489 57.3771 28.3305 56.7511L16.4637 44.7365Z" fill="white"/>
<defs>
<linearGradient id="paint0_linear_1632_554" x1="50" y1="0" x2="50" y2="100" gradientUnits="userSpaceOnUse">
<stop stop-color="#0E011E"/>
<stop offset="1" stop-color="#460C52"/>
</linearGradient>
</defs>
</svg>
