<svg xmlns="http://www.w3.org/2000/svg" width="32" height="32" viewBox="0 0 32 32" fill="none">
<circle cx="16" cy="16" r="16" fill="#1A1C39" fill-opacity="0.35"/>
<path d="M11.1967 16.1645L11.2045 19.0406L13.6484 20.4786V22.1625L9.77431 19.8903V15.3234L11.1967 16.1645ZM11.1967 13.2883V14.9643L9.77344 14.1224V12.4464L11.1967 11.6045L12.6269 12.4464L11.1967 13.2883ZM14.669 12.4464L16.0922 11.6045L17.5224 12.4464L16.0922 13.2883L14.669 12.4464Z" fill="white"/>
<path d="M12.2266 18.4444V16.7606L13.6498 17.6025V19.2785L12.2266 18.4444ZM14.6704 21.0818L16.0936 21.9237L17.5239 21.0818V22.7578L16.0936 23.5997L14.6704 22.7578V21.0818ZM19.565 12.4464L20.9883 11.6045L22.4185 12.4464V14.1224L20.9883 14.9643V13.2883L19.565 12.4464ZM20.9883 19.0406L20.9961 16.1645L22.4194 15.3225V19.8895L18.5453 22.1616V20.4778L20.9883 19.0406Z" fill="white"/>
<path d="M19.9662 18.4446L18.543 19.2787V17.6027L19.9662 16.7607V18.4446Z" fill="white"/>
<path d="M19.9677 13.8833L19.9755 15.5671L17.5247 17.0052V19.8883L16.1015 20.7223L14.6782 19.8883V17.0052L12.2274 15.5671V13.8833L13.6568 13.0413L16.0928 14.4864L18.5436 13.0413L19.9738 13.8833H19.9677ZM12.2266 11.008L16.0936 8.72803L19.9677 11.008L18.5444 11.8499L16.0936 10.4049L13.6498 11.8499L12.2266 11.008Z" fill="white"/>
</svg>