<svg width="90" height="90" viewBox="0 0 90 90" fill="none" xmlns="http://www.w3.org/2000/svg">
<path d="M72.3673 15.314H17.0703V65.6056H72.3673V15.314Z" fill="white"/>
<path fill-rule="evenodd" clip-rule="evenodd" d="M89.5 44.75C89.5 69.465 69.465 89.5 44.75 89.5C20.0352 89.5 0 69.465 0 44.75C0 20.0352 20.0352 0 44.75 0C69.465 0 89.5 20.0352 89.5 44.75ZM32.0691 62.5582H23.3844C21.5595 62.5582 20.6581 62.5582 20.1084 62.2067C19.5148 61.8217 19.152 61.1842 19.108 60.4804C19.075 59.8321 19.5258 59.0403 20.4272 57.4573L41.8709 19.6599C42.7833 18.0549 43.245 17.2523 43.8276 16.9555C44.4543 16.6368 45.2019 16.6368 45.8285 16.9555C46.4111 17.2523 46.8729 18.0549 47.7853 19.6599L52.1936 27.3552L52.2161 27.3945C53.2016 29.1164 53.7014 29.9896 53.9196 30.906C54.1614 31.9065 54.1614 32.9618 53.9196 33.9622C53.6997 34.8856 53.205 35.7651 52.2046 37.5131L40.9408 57.4243L40.9116 57.4753C39.9196 59.2114 39.4169 60.0913 38.7201 60.7551C37.9616 61.4809 37.0491 62.0082 36.0487 62.3056C35.1363 62.5582 34.1139 62.5582 32.0691 62.5582ZM54.0009 62.5582H66.4451C68.281 62.5582 69.2046 62.5582 69.7546 62.1959C70.3481 61.811 70.7217 61.1621 70.7551 60.459C70.7866 59.8315 70.3457 59.0706 69.4817 57.5795C69.4519 57.5288 69.4221 57.4771 69.3917 57.4246L63.1583 46.7611L63.0874 46.641C62.2114 45.1598 61.7693 44.4118 61.2014 44.1227C60.5752 43.8038 59.8381 43.8038 59.2118 44.1227C58.6401 44.4195 58.1784 45.2 57.2659 46.772L51.0547 57.4356L51.0334 57.4723C50.1242 59.0418 49.6698 59.8262 49.7025 60.4697C49.7465 61.1734 50.1093 61.8217 50.7029 62.2067C51.2416 62.5582 52.165 62.5582 54.0009 62.5582Z" fill="#E84142"/>
</svg>
