<svg width="90" height="90" viewBox="0 0 90 90" fill="none" xmlns="http://www.w3.org/2000/svg">
<path d="M45 0C69.8555 0 90 20.1445 90 45C90 69.8555 69.8555 90 45 90C20.1445 90 0 69.8555 0 45C0 20.1445 20.1445 0 45 0Z" fill="#0052FF"/>
<path d="M45.0088 60.8203C36.2725 60.8203 29.1885 53.7451 29.1885 45C29.1885 36.2549 36.2725 29.1797 45.0088 29.1797C52.8398 29.1797 59.3438 34.8926 60.5918 42.3633H76.5264C75.1816 26.1211 61.585 13.3594 45 13.3594C27.5273 13.3594 13.3594 27.5273 13.3594 45C13.3594 62.4727 27.5273 76.6406 45 76.6406C61.585 76.6406 75.1816 63.8789 76.5264 47.6367H60.583C59.3262 55.1074 52.8398 60.8203 45.0088 60.8203Z" fill="white"/>
</svg>
