<svg width="51" height="81" viewBox="0 0 51 81" fill="none" xmlns="http://www.w3.org/2000/svg">
<path d="M34.5702 24.8423C34.5702 13.2542 28.9244 3.27427 24.6245 0.0350666C24.6245 0.0350666 24.2937 -0.147424 24.3279 0.320207C23.9744 22.7095 12.5345 28.7773 6.25001 36.9437C-8.25795 55.8086 5.22351 76.487 18.9787 80.3079C26.6433 82.4522 17.1994 76.5212 15.979 64.0093C14.4849 48.9082 34.5702 37.3657 34.5702 24.8423Z" fill="#1B2143"/>
<path d="M41.162 32.4726C41.0708 32.4156 40.9453 32.37 40.8655 32.5183C40.626 35.3354 37.7518 41.3576 34.102 46.9008C21.7268 65.6744 28.7755 74.7305 32.7447 79.6007C35.0486 82.4179 32.7447 79.6007 38.4931 76.7151C45.5988 72.4038 50.2067 64.9445 50.891 56.664C52.0202 43.3194 44.0134 34.9134 41.162 32.4726Z" fill="#2CA6E0"/>
</svg>
