<svg width="60" height="66" viewBox="0 0 60 66" fill="none" xmlns="http://www.w3.org/2000/svg">
<path d="M18.9013 32.6941L38.3134 52.1062L50.5494 39.8703C52.6901 37.6809 56.2416 37.6809 58.358 39.8703C60.5473 42.0109 60.5473 45.5625 58.358 47.6789L42.2299 63.807C40.0405 65.9477 36.5376 65.9477 34.3726 63.807L11.0926 40.5271V54.3442C11.0926 57.385 8.63572 59.8905 5.54632 59.8905C2.50557 59.8905 0 57.4336 0 54.3442V11.0197C0 7.97892 2.45692 5.47334 5.54632 5.47334C8.58706 5.47334 11.0926 7.93027 11.0926 11.0197V24.8855L34.3726 1.60551C36.5619 -0.535171 40.0649 -0.535171 42.2299 1.60551L58.358 17.7336C60.4987 19.923 60.4987 23.4259 58.358 25.5423C56.1687 27.683 52.6657 27.683 50.5494 25.5423L38.3134 13.3063L18.9013 32.6941ZM38.3134 27.1478C35.224 27.1478 32.7184 29.6047 32.7184 32.6941C32.7184 35.7835 35.1754 38.2891 38.2648 38.2891C41.3541 38.2891 43.8597 35.8322 43.8597 32.7428V32.6941C43.8111 29.6534 41.3542 27.1964 38.3134 27.1478Z" fill="#28CD96"/>
</svg>
