<svg width="90" height="90" viewBox="0 0 90 90" fill="none" xmlns="http://www.w3.org/2000/svg">
<path d="M45 90C69.84 90 90 69.84 90 45C90 20.16 69.84 0 45 0C20.16 0 0 20.16 0 45C0 69.84 20.16 90 45 90Z" fill="#31CB9E"/>
<path d="M40.1408 49.2299L66.6008 63.4499C67.5008 63.8999 67.5908 65.0699 66.7808 65.6099L48.8708 78.4799C48.0608 79.1099 46.8908 78.6599 46.6208 77.6699L40.1408 49.2299ZM39.3308 12.9599C40.4108 12.2399 41.8508 13.0499 41.5808 14.3099L34.4708 44.9999L41.4908 75.6899C41.7608 76.8599 40.3208 77.7599 39.2408 77.0399L21.2408 64.1699C20.3408 63.5399 19.8008 62.4599 19.8008 61.3799V28.6199C19.8008 27.5399 20.3408 26.4599 21.2408 25.8299L39.3308 12.9599ZM68.3108 30.5099C69.2108 29.9699 70.4708 30.5999 70.4708 31.6799V58.3199C70.4708 59.3099 69.3008 59.9399 68.3108 59.4899L41.4008 44.9999L68.3108 30.5099ZM46.6208 12.3299C46.8008 11.3399 48.0608 10.9799 48.8708 11.5199L66.7808 24.2999C67.5908 24.8399 67.5008 26.0099 66.6008 26.4599L40.1408 40.7699L46.6208 12.3299Z" fill="white"/>
</svg>
