<svg width="77" height="44" viewBox="0 0 77 44" fill="none" xmlns="http://www.w3.org/2000/svg">
<path d="M76.2781 43.8421C75.6602 43.8421 75.1767 43.7076 74.8081 43.4756C74.4243 43.2241 74.2227 42.8577 74.2227 42.3568V35.0737H75.1919C75.5431 35.0737 75.8423 35.3578 75.8423 35.7242V42.14C75.8423 42.1574 75.8423 42.4566 76.0938 42.7081C76.2434 42.8577 76.4277 42.9423 76.6793 42.9423H76.8636C76.9308 42.9423 76.998 43.0095 76.998 43.0767V43.8616L76.2803 43.8442L76.2781 43.8421Z" fill="#1877F2"/>
<path d="M55.4003 43.8419C54.3986 43.8419 53.579 43.5753 52.961 43.0397C52.6445 42.773 52.4255 42.4716 52.2932 42.1377C52.1588 41.8038 52.0938 41.3181 52.0938 40.6677C52.0938 40.0172 52.161 39.5315 52.2932 39.1976C52.4103 38.881 52.6271 38.597 52.9437 38.3281C53.5616 37.7926 54.3812 37.5259 55.383 37.5259C56.3847 37.5259 57.2043 37.7926 57.8222 38.3281C58.1388 38.5948 58.3578 38.8962 58.4727 39.1976C58.6071 39.5488 58.6722 40.0324 58.6722 40.6677C58.6722 41.3029 58.605 41.8038 58.4727 42.1377C58.3383 42.4716 58.1214 42.773 57.8049 43.0397C57.2195 43.5753 56.402 43.8419 55.4003 43.8419ZM55.4003 38.4452C54.2988 38.4452 53.7459 39.1976 53.7459 40.6828C53.7459 42.1681 54.2967 42.9378 55.4003 42.9378C56.5018 42.9378 57.0547 42.1854 57.0547 40.7002C57.0547 39.2149 56.4866 38.4452 55.4003 38.4452Z" fill="#1877F2"/>
<path d="M62.3157 43.842C61.4462 43.842 60.6462 43.6079 59.961 43.1569C59.8417 43.081 59.703 42.9921 59.5946 42.9053C59.5382 42.8576 59.5317 42.8316 59.5273 42.7709V35.0693H60.5139C60.8651 35.0693 61.1644 35.3707 61.1644 35.7198V37.9748L61.4657 37.8078C61.817 37.6235 62.2853 37.5411 62.8859 37.5411C63.9375 37.5411 64.7398 37.8577 65.2753 38.4756C65.7437 39.0264 65.9778 39.7614 65.9778 40.6634C65.9778 41.5654 65.7111 42.3004 65.1756 42.836C64.5576 43.5038 63.5884 43.8377 62.32 43.8377L62.3157 43.842ZM62.4826 38.4453C62.1162 38.4453 61.6977 38.5797 61.2294 38.8637L61.1622 38.8963V42.5216L61.2294 42.5714C61.5958 42.8056 62.0317 42.9227 62.4826 42.9227C63.0833 42.9227 63.5516 42.6712 63.8681 42.1703C64.1348 41.7692 64.2866 41.251 64.2866 40.6677C64.2866 39.1977 63.6687 38.4453 62.4826 38.4453Z" fill="#1877F2"/>
<path d="M69.8337 43.8246C67.9973 43.8246 66.8438 42.6213 66.8438 40.6677C66.8438 38.7141 67.9799 37.5281 69.8012 37.5281C70.5037 37.5281 71.1043 37.7124 71.5879 38.0636L71.6876 38.1308V37.6473H72.9734C73.0579 37.6473 73.1078 37.7145 73.1078 37.7818V43.7119H71.6702V43.1763L71.5705 43.2609C71.1694 43.6273 70.5341 43.829 69.8337 43.829V43.8246ZM70.1677 38.5948C69.0142 38.5948 68.3312 39.4795 68.3312 40.6655C68.3312 41.8515 69.0163 42.7709 70.1677 42.7709C70.5341 42.7709 71.1694 42.7383 71.6702 42.2353L71.6876 42.218V39.1781L71.6702 39.1608C71.319 38.7596 70.8008 38.5927 70.1677 38.5927V38.5948Z" fill="#1877F2"/>
<path d="M11.1094 43.7575V35.0542H18.3426V35.6049C18.3426 36.0386 17.9914 36.3898 17.5577 36.3898H12.9133V38.7294H17.5577V40.065H12.9133V42.4045H17.5577C17.9914 42.4045 18.3426 42.7558 18.3426 43.1894V43.7401L11.1094 43.7575Z" fill="#151617"/>
<path d="M28.7333 35.0542H27.0291C26.7125 35.0542 26.4285 35.1886 26.2268 35.438L24.1713 38.0268L22.1159 35.4553C21.9164 35.2038 21.6323 35.0715 21.3136 35.0715H19.6094L23.0677 39.4145L19.6094 43.7575H21.3136C21.6302 43.7575 21.9142 43.6231 22.1159 43.3737L24.1713 40.8022L26.242 43.3911C26.4415 43.6252 26.7255 43.7748 27.0443 43.7748H28.7485L25.2902 39.4319L28.7311 35.0542H28.7333Z" fill="#151617"/>
<path d="M5.44661 42.8379L7.81866 38.6944V43.7399H9.62263V35.0366H8.50382C8.15256 35.0366 7.81866 35.2209 7.6517 35.5375L4.81131 40.7152L1.97092 35.5375C1.80397 35.2209 1.47006 35.0366 1.11881 35.0366H0V43.7399H1.80397V38.6944L4.17602 42.8379H5.44661Z" fill="#151617"/>
<path d="M33.4465 43.8571C30.94 43.8897 28.9019 41.9187 28.8867 39.4144C28.8867 38.0441 29.3052 36.9079 30.0901 36.123C30.875 35.3555 32.0111 34.937 33.3641 34.937C34.9513 34.937 36.2045 35.4877 37.1065 36.5567L36.5384 37.0402C36.1872 37.3416 35.669 37.3568 35.2852 37.0727C34.7843 36.6889 34.149 36.5046 33.4313 36.5046C31.6599 36.5046 30.6083 37.5736 30.6083 39.3776C30.6083 41.1815 31.6946 42.3177 33.4313 42.3177C34.1664 42.3177 34.7843 42.1182 35.2852 41.7496C35.6516 41.4656 36.1698 41.4829 36.5384 41.7821L37.1065 42.2656C36.2045 43.3172 35.0011 43.8528 33.4487 43.8528L33.4465 43.8571Z" fill="#151617"/>
<path d="M43.9235 43.8571C41.1178 43.8571 39.3789 42.1529 39.3789 39.4144C39.3789 36.6737 41.1157 34.9717 43.8888 34.9717C45.2245 34.9717 46.3454 35.3555 47.2127 36.1404L46.7943 36.6087C46.61 36.8082 46.3433 36.9253 46.0766 36.9253C45.927 36.9253 45.7752 36.8927 45.6429 36.8255C45.1247 36.5588 44.5241 36.4244 43.8888 36.4244C42.0849 36.4244 40.966 37.5779 40.966 39.4317C40.966 41.2856 42.1347 42.4564 44.0059 42.4564C44.9079 42.4564 45.6104 42.2895 46.1265 41.9209L46.159 41.9035V40.1169H44.1707V39.5315C44.1707 39.0978 44.522 38.7466 44.9556 38.7466H47.4122C47.4794 38.7466 47.5466 38.8138 47.5466 38.881V42.7405C46.6945 43.4755 45.476 43.8593 43.9214 43.8593L43.9235 43.8571Z" fill="#1877F2"/>
<path d="M50.7703 43.8421C50.1524 43.8421 49.6689 43.7076 49.3003 43.4756C48.9165 43.2241 48.7148 42.8577 48.7148 42.3568V35.0737H49.684C50.0353 35.0737 50.3345 35.3578 50.3345 35.7242V42.14C50.3345 42.1574 50.3345 42.4566 50.586 42.7081C50.7356 42.8577 50.9199 42.9423 51.1715 42.9423H51.3558C51.423 42.9423 51.4902 43.0095 51.4902 43.0767V43.8616L50.7725 43.8442L50.7703 43.8421Z" fill="#1877F2"/>
<path d="M62.1702 21.7174L51.3442 2.93833C48.9721 -0.981838 43.1829 -1.01653 40.8933 3.10528L29.5252 22.6346C27.4025 26.2165 30.0239 30.7134 34.2715 30.7134H57.0466C61.3354 30.7134 64.5422 26.0907 62.168 21.7196L62.1702 21.7174Z" fill="#002F81"/>
<path d="M46.5549 23.1746L45.8893 22.0081C45.2648 20.9261 43.8902 18.5931 43.8902 18.5931L34.7294 2.68692C32.3551 -0.851638 26.7351 -1.14435 24.3609 3.31137L13.7018 21.7566C11.4945 25.629 14.1181 30.668 18.9056 30.7092H56.9624C51.0909 30.7504 49.2175 27.7105 46.5527 23.1724L46.5549 23.1746Z" fill="#1877F2"/>
<path d="M46.5549 23.1335L45.8893 21.967C45.2648 20.8851 43.8902 18.552 43.8902 18.552L37.9774 8.14233L29.4823 22.6327C27.3596 26.2146 29.981 30.7115 34.2285 30.7115H51.1755H56.9625C51.0497 30.6703 49.2175 27.6716 46.5528 23.1335H46.5549Z" fill="url(#paint0_linear_26_666)"/>
<defs>
<linearGradient id="paint0_linear_26_666" x1="26.4402" y1="16.0456" x2="52.7539" y2="25.7701" gradientUnits="userSpaceOnUse">
<stop stop-color="#264CA2" stop-opacity="0"/>
<stop offset="1" stop-color="#002F81"/>
</linearGradient>
</defs>
</svg>
