<svg width="68" height="64" viewBox="0 0 68 64" fill="none" xmlns="http://www.w3.org/2000/svg">
<path d="M61.6775 0.0153032L52.5317 0.00805664L54.5589 6.45461L55.2427 8.62964L53.4489 9.97042L38.0156 21.5182L51.6527 31.7541L67.8469 19.6393L61.6775 0.0153032Z" fill="#FFC800"/>
<path d="M14.3848 9.94698L12.5938 8.60172L13.2801 6.43028L15.3074 0.00721905L6.1949 0L0 19.6168L16.174 31.7569L29.8296 21.5391L14.3848 9.94698Z" fill="#E1AA00"/>
<path d="M32.3576 10.3955L18.519 0.0124512L16.1836 7.407L32.3576 19.5471L32.3664 19.5399V10.3937L32.3576 10.3955Z" fill="#E1AA00"/>
<path d="M49.3296 0.0229492L35.4727 10.3898V19.5359L51.6563 7.42834L49.3296 0.0229492Z" fill="#FFC800"/>
<path d="M17.9685 34.3016L16.2178 35.6133L16.1836 35.7199L32.3576 47.86L32.3664 47.8529V23.5293L17.9685 34.3016Z" fill="#E1AA00"/>
<path d="M51.617 35.6213L49.8574 34.2993L35.491 23.5164L35.4727 23.5299V47.8533L51.6563 35.7458L51.617 35.6213Z" fill="#FFC800"/>
<path d="M32.355 51.7479L30.564 50.4032L19.1896 41.8677L16.1836 51.3873L32.3576 63.5274L32.3664 63.5203V51.7387L32.355 51.7479Z" fill="#E1AA00"/>
<path d="M48.6593 41.8738L37.2549 50.4059L35.4727 51.7394V63.521L51.6563 51.4134L48.6593 41.8738Z" fill="#FFC800"/>
</svg>
