<svg width="24" height="24" viewBox="0 0 24 24" fill="none" xmlns="http://www.w3.org/2000/svg">
<g id="Group 1261157235">
<g id="Group 1000002295">
<rect id="Rectangle 1366" width="24" height="24" rx="12" fill="url(#paint0_linear_2585_9092)"/>
</g>
<g id="Group 1000002388">
<path id="Vector" d="M6.23133 12.1956L6.24075 15.6469L9.17335 17.3726V19.3932L4.52448 16.6667V11.1863L6.23133 12.1956ZM6.23133 8.74424V10.7554L4.52344 9.74513V7.73394L6.23133 6.72363L7.94759 7.73394L6.23133 8.74424ZM10.3981 7.73394L12.1059 6.72363L13.8222 7.73394L12.1059 8.74424L10.3981 7.73394Z" fill="white"/>
<path id="Vector_2" d="M7.46875 14.9316V12.911L9.17665 13.9213V15.9325L7.46875 14.9316ZM10.4014 18.0964L12.1092 19.1067L13.8255 18.0964V20.1075L12.1092 21.1179L10.4014 20.1075V18.0964ZM16.2749 7.73394L17.9828 6.72363L19.6991 7.73394V9.74513L17.9828 10.7554V8.74424L16.2749 7.73394ZM17.9828 15.6469L17.9922 12.1956L19.7001 11.1853V16.6656L15.0513 19.3922V17.3716L17.9828 15.6469Z" fill="white"/>
<path id="Vector_3" d="M16.7548 14.9298L15.0469 15.9307V13.9195L16.7548 12.9092V14.9298Z" fill="white"/>
<path id="Vector_4" d="M16.7581 9.45874L16.7675 11.4794L13.8266 13.205V16.6647L12.1187 17.6656L10.4108 16.6647V13.205L7.4698 11.4794V9.45874L9.18501 8.44844L12.1082 10.1825L15.0492 8.44844L16.7654 9.45874H16.7581ZM7.46875 6.00844L12.1092 3.27246L16.7581 6.00844L15.0502 7.01874L12.1092 5.2847L9.17665 7.01874L7.46875 6.00844Z" fill="white"/>
</g>
</g>
<defs>
<linearGradient id="paint0_linear_2585_9092" x1="24" y1="24" x2="0" y2="0" gradientUnits="userSpaceOnUse">
<stop stop-color="#D1A000"/>
<stop offset="1" stop-color="#FFD632"/>
</linearGradient>
</defs>
</svg>
