<svg width="763" height="134" viewBox="0 0 763 134" fill="none" xmlns="http://www.w3.org/2000/svg">
<path d="M95.225 -61.2084L196.783 -65.4941L224.825 -91.8388L220.828 -179.211L279.585 -191.593L321.423 -259.445L394.477 -169.979L431.866 -205.105L493.919 -161.298L524.646 -77.0814L597.46 -103.768L762.001 30.3978L651.587 134.13L672.046 185.175L591.427 260.916L529.383 269.799L480.213 389.553L425.873 387.905L357.387 315.008L292.637 302.28L260.96 212.368L201.24 148.802L136.971 174.048L45.4745 76.6576L95.225 -61.2084Z" stroke="white" stroke-opacity="0.4"/>
<path d="M366.632 56.3194L371.908 41.6111L385.286 29.0428L403.824 30.072L417.742 40.0239L425.508 37.1926L443.105 51.5595L431.345 62.608L418.335 77.0635L413.116 89.8379L407.315 89.6483L399.987 81.8475L383.277 64.0617L376.423 66.7413L366.632 56.3194Z" stroke="white" stroke-opacity="0.4"/>
<path d="M116.118 -52.9324L210.067 -57.4541L236.981 -82.7392L234.005 -163.351L288.955 -174.741L328.11 -236.991L396.079 -154.024L431.19 -186.666L489.146 -145.676L518.187 -67.3849L584.947 -91.5939L736.379 32.6766L633.958 128.986L652.343 176.66L577.523 247.557L520.029 255.75L474.419 366.284L423.977 364.463L360.477 296.873L299.422 283.756L269.918 200.864L214.528 142.291L154.827 165.194L69.9918 74.8942L116.118 -52.9324Z" stroke="white" stroke-opacity="0.4"/>
<path d="M137.004 -44.6584L223.343 -49.4162L249.129 -73.6414L247.173 -147.492L298.317 -157.891L334.789 -214.538L397.674 -138.071L430.506 -168.229L484.366 -130.056L511.719 -57.6903L572.426 -79.4215L710.749 34.9535L616.321 123.839L632.632 168.142L563.612 234.196L510.667 241.698L468.616 343.014L422.072 341.019L363.559 278.737L306.2 265.231L278.868 189.358L227.809 135.778L172.675 156.338L94.5012 73.1289L137.004 -44.6584Z" stroke="white" stroke-opacity="0.4"/>
<path d="M157.905 -36.3824L236.635 -41.3762L261.293 -64.5418L260.358 -131.632L307.694 -141.038L341.483 -192.084L399.284 -122.116L429.837 -149.789L479.601 -114.434L505.268 -47.9938L559.921 -67.2472L685.134 37.2322L598.699 118.694L612.936 159.627L549.717 220.838L501.321 227.649L462.829 319.745L420.183 317.578L366.657 260.603L312.993 246.708L287.834 177.854L241.105 129.266L190.538 147.484L119.026 71.3655L157.905 -36.3824Z" stroke="white" stroke-opacity="0.4"/>
<path d="M178.798 -28.1055L249.919 -33.3353L273.449 -55.4411L273.534 -115.771L317.064 -124.185L348.17 -169.629L400.887 -106.16L429.161 -131.349L474.828 -98.8103L498.808 -38.2963L547.408 -55.0719L659.512 39.512L581.07 113.551L593.233 151.113L535.813 207.48L491.967 213.601L457.035 296.478L418.287 294.137L369.746 242.47L319.778 228.185L296.793 166.351L254.394 122.756L208.394 138.631L143.544 69.6031L178.798 -28.1055Z" stroke="white" stroke-opacity="0.4"/>
<path d="M199.691 -19.8295L263.203 -25.2954L285.605 -46.3414L286.711 -99.9109L326.433 -107.333L354.857 -147.174L402.489 -90.2043L428.485 -112.909L470.055 -83.1882L492.349 -28.5997L534.896 -42.8976L633.89 41.7908L563.441 108.406L573.529 142.598L521.91 194.121L482.613 199.551L451.24 273.209L416.39 270.695L372.836 224.335L326.563 209.662L305.751 154.847L267.682 116.245L226.249 129.777L168.061 67.8397L199.691 -19.8295Z" stroke="white" stroke-opacity="0.4"/>
<path d="M220.584 -11.5545L276.487 -17.2564L297.761 -37.2428L299.887 -84.0517L335.803 -90.4816L361.543 -124.721L404.092 -74.2502L427.808 -94.4711L465.283 -67.567L485.889 -18.9041L522.383 -30.7243L608.268 44.0686L545.812 103.26L553.826 134.082L508.007 180.761L473.26 185.501L445.445 249.94L414.494 247.252L375.926 206.2L333.348 191.137L314.709 143.342L280.971 109.732L244.105 120.921L192.578 66.0753L220.584 -11.5545Z" stroke="white" stroke-opacity="0.4"/>
<path d="M241.47 -3.27949L289.763 -9.21743L309.909 -28.1441L313.056 -68.1925L345.165 -73.6304L368.222 -102.267L405.686 -58.296L427.124 -76.0326L460.502 -51.9458L479.422 -9.20861L509.862 -18.551L582.638 46.3464L528.175 98.1147L534.115 125.566L494.095 167.402L463.898 171.451L439.643 226.67L412.589 223.81L379.007 188.065L340.125 172.613L323.66 131.837L294.251 103.22L261.953 112.066L217.087 64.3109L241.47 -3.27949Z" stroke="white" stroke-opacity="0.4"/>
<path d="M262.371 4.99648L303.055 -1.17749L322.073 -19.0444L326.24 -52.3323L354.543 -56.7781L374.917 -79.813L407.297 -42.3408L426.456 -57.5933L455.737 -36.3237L472.97 0.487941L497.357 -6.37668L557.023 48.6251L510.553 92.9701L514.419 117.05L480.2 154.043L454.552 157.401L433.856 203.402L410.701 200.368L382.105 169.93L346.918 154.09L332.626 120.333L307.548 96.7088L279.816 103.212L241.613 62.5475L262.371 4.99648Z" stroke="white" stroke-opacity="0.4"/>
<path d="M283.264 13.2725L316.339 6.86246L334.229 -9.94474L339.416 -36.4722L363.912 -39.9258L381.603 -57.3585L408.899 -26.3856L425.78 -39.1538L450.965 -20.7015L466.511 10.1845L484.844 5.79764L531.401 50.904L492.924 87.8254L494.715 108.535L466.296 140.684L445.198 143.352L428.061 180.133L408.804 176.926L385.195 151.796L353.703 135.566L341.584 108.829L320.836 90.1976L297.672 94.358L266.13 60.7841L283.264 13.2725Z" stroke="white" stroke-opacity="0.4"/>
<path d="M304.157 21.5465L329.623 14.9004L346.385 -0.847028L352.593 -20.6139L373.282 -23.0755L388.29 -34.9061L410.502 -10.4324L425.104 -20.7164L446.192 -5.08126L460.051 19.8791L472.331 17.97L505.779 53.1808L475.295 82.6788L475.012 100.018L452.393 127.323L435.844 129.3L422.266 156.863L406.908 153.482L388.284 133.66L360.489 117.041L350.542 97.3229L334.125 83.6843L315.528 85.5019L290.647 59.0187L304.157 21.5465Z" stroke="white" stroke-opacity="0.4"/>
<path d="M325.05 29.8234L342.907 22.9414L358.541 8.25361L365.769 -4.75279L382.652 -6.22232L394.977 -12.4507L412.104 5.5237L424.427 -2.27603L441.419 10.5419L453.591 29.5766L459.818 30.1453L480.157 55.4605L457.665 77.5351L455.309 91.504L438.49 113.966L426.49 115.252L416.472 133.595L405.011 130.042L391.374 115.526L367.274 98.5186L359.5 85.8198L347.413 77.174L333.383 76.6488L315.164 57.2563L325.05 29.8234Z" stroke="white" stroke-opacity="0.4"/>
<path d="M345.936 38.0994L356.183 30.9813L370.689 17.3533L378.938 11.1074L392.013 10.6299L401.656 10.0037L413.699 21.4789L423.743 16.1634L436.639 26.164L447.124 39.2731L447.297 42.3196L454.527 57.7393L440.028 72.3905L435.597 82.9888L424.579 100.607L417.129 101.203L410.669 110.327L403.107 106.6L394.456 97.392L374.051 79.9952L368.451 74.3157L360.694 70.6627L351.231 67.7946L339.674 55.4929L345.936 38.0994Z" stroke="white" stroke-opacity="0.4"/>
</svg>
