<svg width="24" height="24" viewBox="0 0 24 24" fill="none" xmlns="http://www.w3.org/2000/svg">
<g id="Group 1261157236">
<path id="Vector" d="M23.9999 11.9487C24.0151 16.8039 21.1245 21.1901 16.6448 23.0656C12.1652 24.9411 7.00452 23.9428 3.55399 20.5246C0.103447 17.1064 -0.940795 11.9487 0.890412 7.45664C2.72162 2.96453 7.09533 0.030282 11.9382 3.20559e-05C18.582 -0.0150929 23.9697 5.32402 23.9999 11.9487Z" fill="#8DC63F"/>
<path id="Vector_2" d="M23.1064 11.9491C23.1215 16.4412 20.4428 20.4947 16.2961 22.234C12.1494 23.9734 7.38223 23.0357 4.18897 19.8897C0.995711 16.7286 0.0271385 11.9642 1.72214 7.81997C3.41714 3.66061 7.4579 0.95324 11.9376 0.92299C18.0819 0.89274 23.0761 5.82347 23.1064 11.9491Z" fill="#F9E988"/>
<path id="Vector_3" d="M12.2188 1.63372C12.93 1.51272 13.6413 1.51272 14.3526 1.63372C15.0639 1.73959 15.7601 1.98159 16.3957 2.31434C17.0313 2.66222 17.5762 3.13109 18.121 3.56971C18.6658 4.00834 19.2106 4.46209 19.7252 4.96121C20.2549 5.44521 20.7089 6.00483 21.0872 6.60983C21.4807 7.21483 21.7985 7.8652 22.0407 8.5307C22.5098 9.89194 22.6612 11.3591 22.4342 12.7506H22.3585C22.1315 11.3591 21.8137 10.0432 21.3142 8.78782C21.0872 8.15257 20.7997 7.53245 20.497 6.94258C20.1641 6.3527 19.816 5.76283 19.4225 5.21833C19.029 4.65871 18.5296 4.15959 17.9696 3.75121C17.4097 3.34284 16.7589 3.08572 16.1384 2.84372C15.5179 2.60172 14.8823 2.34459 14.2316 2.14797C13.5808 1.96647 12.9149 1.81522 12.2188 1.67909V1.63372Z" fill="white"/>
<path id="Vector_4" d="M17.6267 8.03168C16.8246 7.80481 15.9922 7.47206 15.1447 7.13931C15.0993 6.92756 14.9026 6.67043 14.5243 6.33769C13.9794 5.85369 12.9352 5.86882 12.0423 6.08056C11.0586 5.85369 10.0749 5.76294 9.13657 5.98981C1.46366 8.10731 5.8071 13.2498 2.99219 18.4376C3.38567 19.2846 7.71398 24.2456 13.9643 22.9146C13.9643 22.9146 11.8304 17.7873 16.6581 15.3219C20.5778 13.3254 23.3927 9.60468 17.6267 8.03168Z" fill="#8BC53F"/>
<path id="Vector_5" d="M12.0391 6.07992C12.599 6.12532 14.627 6.77608 15.1415 7.13929C14.7026 5.88318 13.2498 5.7167 12.0391 6.07992Z" fill="#009345"/>
<path id="Vector_6" d="M18.5769 11.4039C18.5769 11.8123 18.0775 12.024 17.79 11.7366C17.5024 11.4493 17.6992 10.9501 18.1078 10.935C18.365 10.9501 18.5769 11.1468 18.5769 11.4039ZM12.5687 9.27127C12.5687 10.1334 12.0391 10.9199 11.237 11.2526C10.4349 11.5854 9.51169 11.4039 8.8912 10.7838C8.27071 10.1636 8.0891 9.24102 8.42205 8.4394C8.75499 7.63777 9.54196 7.1084 10.4046 7.1084C10.9797 7.1084 11.5245 7.33527 11.918 7.72852C12.3417 8.15202 12.5687 8.69652 12.5687 9.27127Z" fill="white"/>
<path id="Vector_7" d="M11.9314 9.28641C11.9314 9.8914 11.5682 10.451 10.9931 10.6779C10.4331 10.9048 9.78238 10.7838 9.34349 10.3452C8.90461 9.90653 8.78354 9.27128 9.01055 8.69653C9.23756 8.13691 9.79751 7.75879 10.4029 7.75879C11.2504 7.77391 11.9314 8.45453 11.9314 9.28641Z" fill="#58595B"/>
<path id="Vector_8" d="M20.3244 12.3577C18.584 13.5828 16.6015 14.5054 13.8017 14.5054C12.4851 14.5054 12.2278 13.1139 11.35 13.7945C10.896 14.1424 9.32206 14.9289 8.06594 14.8835C6.80982 14.823 4.78188 14.0819 4.22192 11.4199C3.99491 14.097 3.88897 16.0633 2.875 18.3169C4.87268 21.5234 9.63987 23.9888 13.9682 22.93C13.499 19.6781 16.3442 16.5019 17.9333 14.8835C18.5538 14.2483 19.7191 13.25 20.3244 12.3577Z" fill="#8BC53F"/>
<path id="Vector_9" d="M20.2451 12.4326C19.7003 12.932 19.0646 13.2952 18.4139 13.6131C17.748 13.9309 17.067 14.173 16.3557 14.3698C15.6444 14.5514 14.9028 14.6876 14.1613 14.627C13.4046 14.5665 12.6479 14.3092 12.1484 13.7493L12.1787 13.719C12.7841 14.1125 13.4954 14.2487 14.1915 14.279C14.9028 14.2941 15.6141 14.2487 16.3103 14.1125C17.0064 13.9611 17.7026 13.7493 18.3685 13.4769C19.0344 13.2044 19.6851 12.8866 20.2602 12.4326H20.2451Z" fill="#58595B"/>
</g>
</svg>
