<svg width="100" height="100" viewBox="0 0 100 100" fill="none" xmlns="http://www.w3.org/2000/svg">
<circle cx="50" cy="50" r="50" fill="#FA7224"/>
<path fill-rule="evenodd" clip-rule="evenodd" d="M74.2916 20.9368C74.393 21.0159 74.4148 21.1632 74.3353 21.2669L67.9349 29.9222C75.3255 33.7778 80.185 41.2898 80.185 50.0051C80.185 62.5896 70.0405 72.5736 57.6333 72.5736H40.7842C40.5575 72.5736 40.4681 72.3008 40.5734 72.1644C40.643 72.0797 42.7069 69.4412 44.2658 67.4465C45.2023 66.2513 45.9559 65.2882 45.9857 65.2472C46.0672 65.1436 46.1865 65.0426 46.4629 65.0426C46.5086 65.0426 46.6458 65.0426 46.8765 65.0426C48.0595 65.0426 51.6584 65.048 57.6274 65.048C64.7714 65.048 72.6571 59.4379 72.6571 50.0023C72.6571 44.8342 70.3129 39.3196 63.2166 36.2936C63.2166 36.2936 62.5365 37.2077 59.6236 41.1423C56.7088 45.0798 55.1121 48.7962 61.3435 48.7962H70.1439C70.2234 49.3666 70.2334 50.5507 70.13 51.3748H61.3475C52.6864 51.4076 48.5506 54.8075 42.0985 62.5077C36.1474 69.613 28.6117 78.5768 27.4819 79.9191C27.4 80.0173 27.2582 80.0257 27.1572 79.9465L26.033 79.0542C25.9294 78.9723 25.9129 78.8223 25.992 78.7213L32.6227 70.2407C24.5268 66.1612 20 58.2892 20 49.9995C20 37.7861 29.9242 27.4309 42.5856 27.4309H59.5262C59.7052 27.4309 59.8841 27.6465 59.7072 27.8757L58.9297 28.8717C57.5955 30.5771 54.9889 33.9115 54.6131 34.3944C54.1677 34.9647 54.1518 34.9647 53.7064 34.9565C53.6487 34.9565 53.5871 34.9565 53.5155 34.9565H42.5856C34.513 34.9565 27.5228 41.4835 27.5228 50.0023C27.5228 55.3859 30.7372 61.5662 37.581 63.9021L40.7186 59.8773C44.5223 55.0121 44.5859 51.3802 38.8058 51.3802H30.1122C29.9924 50.5316 30.025 49.342 30.0932 48.8017H38.8058C47.9303 48.8017 52.4358 44.8861 58.2259 37.4887C63.5884 30.6398 71.665 21.4088 72.8341 20.0772C72.9196 19.9817 73.0548 19.9763 73.1542 20.0527L74.2856 20.9368H74.2916Z" fill="white"/>
</svg>
