<svg width="60" height="60" viewBox="0 0 60 60" fill="none" xmlns="http://www.w3.org/2000/svg">
<circle cx="30" cy="30" r="30" fill="#005BFE"/>
<path d="M48 29.9883C48 40.154 39.9708 47.9999 29.9637 47.9999C19.9564 47.9999 12.0046 40.154 12.0023 29.9883C14.2254 33.4625 17.9234 34.47 22.0879 35.0367C23.6905 37.7422 26.5798 39.4106 29.9614 39.4106C35.2065 39.4106 39.2222 35.5209 39.2222 30.0021C39.2222 25.3438 36.3627 21.8466 32.3263 20.869C32.846 18.2163 31.8341 14.2142 29.9614 12.0503C39.9708 12.0434 48 19.8363 48 29.9883Z" fill="white"/>
<path d="M32.3287 20.8622C31.5587 20.6765 30.7695 20.5833 29.9775 20.5846H29.918C29.9501 20.2643 29.9661 19.9427 29.966 19.6208V12.0481C31.8365 14.2006 32.8484 18.2095 32.3287 20.8622Z" fill="black"/>
<path d="M22.0906 35.0369C17.9261 34.4747 14.224 33.4673 12.001 29.9885L20.7765 29.8875V30.0069C20.7765 30.0963 20.7765 30.1882 20.7765 30.2776C20.7998 31.9508 21.2523 33.5898 22.0906 35.0369Z" fill="black"/>
<path d="M29.9661 19.6209V19.8968C29.9661 25.302 25.2258 29.9518 20.1307 29.9518L12 29.9905L29.9936 12L29.9661 19.6209Z" fill="white"/>
</svg>
