<svg width="200" height="200" viewBox="0 0 200 200" fill="none" xmlns="http://www.w3.org/2000/svg">
<circle cx="100" cy="100" r="100" fill="url(#paint0_linear_28_96)"/>
<path d="M38.1813 100.373L78.1747 130.099C78.2381 130.099 78.2381 130.162 78.3014 130.162L93.1326 141.144C94.4002 142.091 96.1749 141.207 96.1749 139.629L96.2383 57.7726C96.1115 56.321 95.9214 54.8063 95.6044 53.3547C95.2875 51.9663 94.8439 50.6409 94.2101 49.5049C95.2875 57.5201 90.7241 66.8608 82.9916 72.9826C81.2804 74.3711 78.9353 75.8858 76.3366 76.9587C73.5479 78.1578 65.1182 81.061 65.1182 81.061L39.7024 90.2123C35.3292 91.7901 34.4418 97.5964 38.1813 100.373Z" fill="white"/>
<path d="M77.8587 76.263C77.9221 76.1998 78.0489 76.1998 78.1122 76.1367C78.239 76.0736 78.3658 76.0105 78.5559 75.8843C78.7461 75.8212 78.8728 75.695 79.063 75.6318C79.1263 75.5687 79.2531 75.5056 79.3165 75.5056C79.5066 75.3794 79.7601 75.2532 79.9503 75.1269C80.0137 75.0638 80.0771 75.0638 80.1404 75.0007C80.3306 74.8745 80.5207 74.7483 80.7742 74.622C80.901 74.5589 80.9644 74.4958 81.0911 74.4327C81.2179 74.3065 81.408 74.2434 81.5348 74.1171C81.725 73.9909 81.9151 73.8016 82.1686 73.6754C82.232 73.6754 82.232 73.6122 82.2954 73.6122C82.5489 73.4229 82.8024 73.2336 83.056 73.0442C90.7884 66.9223 95.3519 57.5817 94.2744 49.5665C93.8307 48.8091 93.2603 48.1149 92.6265 47.61L79.4432 37.8907C78.1756 36.944 76.3376 37.8276 76.3376 39.4054V62.3152C76.3376 76.7047 65.1191 81.0595 65.1191 81.0595C65.1191 81.0595 73.6122 78.2194 76.3376 77.0203C76.8446 76.7679 77.3517 76.5154 77.8587 76.263Z" fill="#F2EEFF"/>
<path d="M160.982 98.7969L120.963 69.0711C120.899 69.0711 120.899 69.008 120.836 69.008L105.995 58.0265C104.727 57.0798 102.951 57.9633 102.951 59.5411V141.398C103.078 142.849 103.268 144.364 103.585 145.815C103.902 147.204 104.346 148.529 104.981 149.665C103.902 141.65 108.469 132.309 116.206 126.188C117.919 124.799 120.265 123.284 122.865 122.211C125.593 121.012 134.091 118.172 134.091 118.172L159.523 109.021C163.899 107.38 164.724 101.574 160.982 98.7969Z" fill="white"/>
<path d="M121.343 122.906C121.279 122.969 121.152 122.969 121.089 123.032C120.962 123.095 120.835 123.158 120.645 123.285C120.455 123.348 120.328 123.474 120.138 123.537C120.074 123.6 119.947 123.663 119.884 123.663C119.694 123.789 119.44 123.916 119.25 124.042C119.186 124.105 119.123 124.105 119.059 124.168C118.869 124.294 118.679 124.421 118.425 124.547C118.298 124.61 118.235 124.673 118.108 124.736C117.981 124.862 117.791 124.925 117.664 125.052C117.474 125.178 117.284 125.367 117.03 125.493C116.966 125.493 116.967 125.557 116.903 125.557C116.649 125.746 116.396 125.935 116.142 126.125C108.405 132.246 103.838 141.587 104.916 149.602C105.36 150.36 105.931 151.054 106.565 151.559L119.694 161.278C120.962 162.225 122.801 161.341 122.801 159.763V136.854C122.801 122.527 134.027 118.109 134.027 118.109C134.027 118.109 125.528 120.949 122.801 122.149C122.357 122.401 121.85 122.653 121.343 122.906Z" fill="#F2EEFF"/>
<defs>
<linearGradient id="paint0_linear_28_96" x1="100" y1="0" x2="100" y2="200" gradientUnits="userSpaceOnUse">
<stop stop-color="#7770E0"/>
<stop offset="1" stop-color="#554FD8"/>
</linearGradient>
</defs>
</svg>
