<svg width="24" height="24" viewBox="0 0 24 24" fill="none" xmlns="http://www.w3.org/2000/svg">
<g id="Group 1261159360">
<circle id="Ellipse 2176" cx="12" cy="12" r="12" fill="black"/>
<path id="Vector" d="M12 0C5.36812 0 0 5.36813 0 12C0 18.6319 5.36812 24 12 24C18.6319 24 24 18.6319 24 12C24 5.36813 18.6319 0 12 0ZM11.4856 4.85368C11.8211 4.68593 12.1678 4.69711 12.4921 4.88723C13.6104 5.5247 14.7288 6.17335 15.8472 6.822C16.205 7.03448 16.384 7.36999 16.384 7.78378C16.3952 9.23765 16.384 10.6803 16.384 12.1342C16.384 12.1901 16.3504 12.2684 16.3057 12.2908C15.8807 12.548 15.4334 12.794 14.9636 13.0736C14.9636 12.9842 14.9636 12.9171 14.9636 12.85C14.9636 11.3625 14.9636 9.86393 14.9636 8.37651C14.9636 8.08574 14.863 7.9068 14.617 7.76142C13.3197 7.0233 12.0224 6.274 10.7251 5.5247C10.6692 5.49115 10.6132 5.45759 10.5238 5.40168C10.8705 5.18919 11.1612 5.01025 11.4856 4.85368ZM11.2395 19.6831C11.1612 19.6496 11.1165 19.616 11.0606 19.5937C9.34949 18.6095 7.62721 17.603 5.90494 16.63C5.42404 16.3504 5.20038 15.959 5.21156 15.411C5.22274 14.2367 5.22274 13.0624 5.21156 11.8882C5.21156 11.3625 5.42405 10.9711 5.89376 10.7139C7.10158 10.0205 8.30941 9.32712 9.50606 8.63374C9.60671 8.57782 9.685 8.56663 9.79683 8.63374C10.2106 8.87978 10.6356 9.12582 11.0718 9.37185C10.9823 9.42777 10.9264 9.46132 10.8593 9.49487C9.56198 10.2442 8.2535 11.0047 6.9562 11.7428C6.74371 11.8658 6.64306 12.0224 6.64306 12.2684C6.65424 13.1966 6.65424 14.1137 6.64306 15.0419C6.64306 15.2992 6.74371 15.4557 6.9562 15.5788C8.33178 16.3616 9.70737 17.1668 11.0829 17.9497C11.1948 18.0168 11.2507 18.0839 11.2507 18.2293C11.2395 18.7102 11.2395 19.1799 11.2395 19.6831ZM11.2395 17.0438C11.1165 16.9767 11.0382 16.932 10.9487 16.876C9.85275 16.2498 8.76794 15.6123 7.67195 14.986C7.54893 14.9189 7.50419 14.8518 7.51538 14.7064C7.52656 14.0019 7.51538 13.2861 7.51538 12.5815C7.51538 12.4809 7.52656 12.4138 7.62721 12.3691C8.02982 12.1454 8.43243 11.9105 8.82386 11.6757C8.85741 11.6533 8.87978 11.6421 8.9357 11.6198C8.9357 11.8993 8.9357 12.1566 8.9357 12.4138C8.9357 12.85 8.94688 13.2749 8.9357 13.7111C8.9357 13.9571 9.02517 14.1249 9.23765 14.2479C9.85275 14.5946 10.4678 14.9637 11.0829 15.3103C11.206 15.3774 11.2395 15.4557 11.2395 15.5899C11.2395 16.0596 11.2395 16.5294 11.2395 17.0438ZM9.98695 7.71668C9.75209 7.58248 9.56198 7.58248 9.32712 7.71668C8.02982 8.47717 6.73252 9.22647 5.42404 9.97577C5.36813 10.0093 5.31221 10.0317 5.21156 10.0876C5.24511 9.59553 5.14445 9.12581 5.31221 8.67847C5.40168 8.43243 5.58062 8.24231 5.80429 8.11929C6.8891 7.49301 7.9739 6.86673 9.05871 6.24045C9.45014 6.01677 9.86393 6.01678 10.2554 6.25163C11.4856 6.96738 12.7269 7.67195 13.9571 8.3877C14.013 8.42125 14.0801 8.48835 14.0801 8.53308C14.0913 9.03635 14.0801 9.55079 14.0801 10.0988C13.6328 9.84157 13.219 9.59553 12.8052 9.36067C11.8658 8.81268 10.9264 8.27586 9.98695 7.71668ZM18.6654 15.7018C18.6319 16.1044 18.397 16.384 18.0503 16.5853C16.7307 17.3458 15.3998 18.1062 14.0801 18.8779C13.6664 19.1128 13.2526 19.3588 12.8388 19.5937C12.7828 19.6272 12.7381 19.6496 12.671 19.6831C12.671 19.616 12.6598 19.5601 12.6598 19.5154C12.6598 19.0792 12.6598 18.6431 12.6598 18.1957C12.6598 18.0951 12.6822 18.0391 12.7717 17.9832C14.6952 16.876 16.63 15.7577 18.5536 14.6505C18.5871 14.6281 18.6095 14.617 18.6654 14.5946C18.6766 14.986 18.699 15.3439 18.6654 15.7018ZM18.6766 12.9506C18.6766 13.4091 18.4306 13.7223 18.0391 13.9459C16.5294 14.8183 15.0196 15.6794 13.521 16.5517C13.2414 16.7083 12.973 16.8649 12.671 17.0326C12.671 16.9543 12.6598 16.9096 12.6598 16.8537C12.6598 16.4175 12.6598 15.9925 12.6598 15.5564C12.6598 15.4334 12.6934 15.3663 12.8052 15.3103C14.1696 14.5275 15.5452 13.7335 16.9096 12.9506C17.1556 12.8164 17.2563 12.6375 17.2563 12.3579C17.2451 10.8705 17.2563 9.37186 17.2563 7.88444C17.2563 7.81734 17.2563 7.73905 17.2563 7.62721C17.6142 7.8397 17.9497 8.01864 18.2516 8.24231C18.5312 8.44361 18.6766 8.74558 18.6766 9.08108C18.6878 10.3672 18.6878 11.6533 18.6766 12.9506Z" fill="white"/>
</g>
</svg>
