<svg width="16" height="16" viewBox="0 0 16 16" fill="none" xmlns="http://www.w3.org/2000/svg">
<circle cx="8" cy="8" r="8" fill="url(#paint0_linear_2795_1440)"/>
<g clip-path="url(#clip0_2795_1440)">
<path fill-rule="evenodd" clip-rule="evenodd" d="M6.70851 7.29298C6.86049 7.61864 6.62891 8.00944 6.25258 8.00944C6.03548 8.00944 5.75323 7.83575 5.75323 7.50285C5.75323 6.79363 5.54336 6.45349 5.30454 6.35941C5.30454 7.79233 4.32031 8.32063 4.32031 9.94898C4.32031 11.5772 5.29006 12.8365 6.65786 13.3793C6.22363 13.0029 5.94863 12.4457 5.94863 11.8233C5.94863 9.92723 8.38749 9.44962 7.49011 7.45942C7.84472 7.92983 8.48157 10.195 7.73616 11.6858C8.19209 11.447 8.94474 10.622 9.22698 10.195C8.86513 12.1779 9.29211 12.0259 9.67567 11.8812C9.82041 11.8233 9.96515 11.7655 10.052 11.8306C10.2184 11.9391 9.77699 13.0102 9.34277 13.3865C10.7106 12.851 11.6803 11.5194 11.6803 9.95621C11.6803 6.48244 7.34536 6.30875 8.53946 2.56C7.38155 3.0883 5.59402 4.86136 6.70851 7.29298Z" fill="white"/>
</g>
<defs>
<linearGradient id="paint0_linear_2795_1440" x1="8" y1="0" x2="8" y2="16" gradientUnits="userSpaceOnUse">
<stop stop-color="#FEA623"/>
<stop offset="1" stop-color="#DF2C56"/>
</linearGradient>
<clipPath id="clip0_2795_1440">
<rect width="7.36" height="10.8429" fill="white" transform="translate(4.32031 2.56)"/>
</clipPath>
</defs>
</svg>
