<svg width="24" height="24" viewBox="0 0 24 24" fill="none" xmlns="http://www.w3.org/2000/svg">
<g id="Group 1261157239">
<g id="Group 1261157238">
<g id="Group 1261156069">
<circle id="Ellipse 266" cx="12" cy="12" r="12" fill="white"/>
</g>
</g>
<g id="Group 1261157234">
<g id="Group 1000009224">
<g id="Group">
<path id="Vector" d="M21.8197 17.8199C21.6672 17.8199 21.5479 17.7867 21.457 17.7295C21.3623 17.6674 21.3125 17.577 21.3125 17.4534V15.6562H21.5517C21.6383 15.6562 21.7122 15.7263 21.7122 15.8168V17.3999C21.7122 17.4042 21.7122 17.478 21.7742 17.5401C21.8111 17.577 21.8566 17.5978 21.9187 17.5978H21.9642C21.9807 17.5978 21.9973 17.6144 21.9973 17.631V17.8247L21.8202 17.8204L21.8197 17.8199Z" fill="#1877F2"/>
<path id="Vector_2" d="M16.6675 17.8193C16.4203 17.8193 16.2181 17.7534 16.0656 17.6213C15.9875 17.5555 15.9334 17.4811 15.9008 17.3987C15.8676 17.3163 15.8516 17.1965 15.8516 17.036C15.8516 16.8755 15.8681 16.7556 15.9008 16.6732C15.9297 16.5951 15.9832 16.525 16.0613 16.4587C16.2138 16.3265 16.416 16.2607 16.6632 16.2607C16.9104 16.2607 17.1126 16.3265 17.2651 16.4587C17.3432 16.5245 17.3972 16.5989 17.4256 16.6732C17.4588 16.7599 17.4748 16.8792 17.4748 17.036C17.4748 17.1927 17.4582 17.3163 17.4256 17.3987C17.3924 17.4811 17.3389 17.5555 17.2608 17.6213C17.1163 17.7534 16.9146 17.8193 16.6675 17.8193ZM16.6675 16.4876C16.3957 16.4876 16.2592 16.6732 16.2592 17.0397C16.2592 17.4062 16.3951 17.5962 16.6675 17.5962C16.9393 17.5962 17.0757 17.4105 17.0757 17.044C17.0757 16.6775 16.9355 16.4876 16.6675 16.4876Z" fill="#1877F2"/>
<path id="Vector_3" d="M18.3755 17.819C18.161 17.819 17.9636 17.7612 17.7945 17.6499C17.7651 17.6312 17.7308 17.6093 17.7041 17.5879C17.6902 17.5761 17.6886 17.5697 17.6875 17.5547V15.6543H17.9309C18.0176 15.6543 18.0914 15.7287 18.0914 15.8148V16.3712L18.1658 16.33C18.2525 16.2846 18.368 16.2642 18.5162 16.2642C18.7757 16.2642 18.9737 16.3423 19.1058 16.4948C19.2214 16.6307 19.2792 16.8121 19.2792 17.0346C19.2792 17.2572 19.2134 17.4386 19.0812 17.5707C18.9287 17.7355 18.6896 17.8179 18.3766 17.8179L18.3755 17.819ZM18.4167 16.4873C18.3263 16.4873 18.2231 16.5205 18.1075 16.5906L18.0909 16.5986V17.4932L18.1075 17.5055C18.1979 17.5632 18.3054 17.5921 18.4167 17.5921C18.5649 17.5921 18.6805 17.5301 18.7586 17.4065C18.8244 17.3075 18.8619 17.1796 18.8619 17.0357C18.8619 16.673 18.7094 16.4873 18.4167 16.4873Z" fill="#1877F2"/>
<path id="Vector_4" d="M20.23 17.8154C19.7768 17.8154 19.4922 17.5185 19.4922 17.0364C19.4922 16.5544 19.7725 16.2617 20.222 16.2617C20.3953 16.2617 20.5435 16.3072 20.6628 16.3939L20.6874 16.4105V16.2911H21.0047C21.0256 16.2911 21.0379 16.3077 21.0379 16.3243V17.7876H20.6831V17.6554L20.6585 17.6763C20.5596 17.7667 20.4028 17.8165 20.23 17.8165V17.8154ZM20.3124 16.5249C20.0277 16.5249 19.8592 16.7432 19.8592 17.0359C19.8592 17.3285 20.0283 17.5554 20.3124 17.5554C20.4028 17.5554 20.5596 17.5474 20.6831 17.4232L20.6874 17.419V16.6689L20.6831 16.6646C20.5965 16.5656 20.4686 16.5244 20.3124 16.5244V16.5249Z" fill="#1877F2"/>
<path id="Vector_5" d="M5.74219 17.798V15.6504H7.52701V15.7863C7.52701 15.8933 7.44034 15.98 7.33334 15.98H6.18732V16.5572H7.33334V16.8868H6.18732V17.4641H7.33334C7.44034 17.4641 7.52701 17.5508 7.52701 17.6578V17.7937L5.74219 17.798Z" fill="#151617"/>
<path id="Vector_6" d="M10.0873 15.6504H9.66677C9.58866 15.6504 9.51857 15.6836 9.46882 15.7451L8.96162 16.3839L8.45442 15.7494C8.4052 15.6873 8.33511 15.6547 8.25646 15.6547H7.83594L8.68929 16.7263L7.83594 17.798H8.25646C8.33458 17.798 8.40466 17.7648 8.45442 17.7033L8.96162 17.0687L9.47256 17.7075C9.52178 17.7653 9.59187 17.8022 9.67052 17.8022H10.091L9.23769 16.7306L10.0868 15.6504H10.0873Z" fill="#151617"/>
<path id="Vector_7" d="M4.34397 17.5715L4.92928 16.5491V17.7941H5.37442V15.6465H5.09835C5.01167 15.6465 4.92928 15.692 4.88808 15.7701L4.18721 17.0477L3.48633 15.7701C3.44514 15.692 3.36274 15.6465 3.27607 15.6465H3V17.7941H3.44514V16.5491L4.03045 17.5715H4.34397Z" fill="#151617"/>
<path id="Vector_8" d="M11.2501 17.8231C10.6317 17.8312 10.1287 17.3448 10.125 16.7269C10.125 16.3888 10.2283 16.1084 10.4219 15.9147C10.6156 15.7253 10.896 15.6221 11.2298 15.6221C11.6214 15.6221 11.9307 15.758 12.1533 16.0217L12.0131 16.141C11.9264 16.2154 11.7985 16.2192 11.7038 16.1491C11.5803 16.0544 11.4235 16.0089 11.2464 16.0089C10.8093 16.0089 10.5498 16.2727 10.5498 16.7178C10.5498 17.1629 10.8178 17.4433 11.2464 17.4433C11.4278 17.4433 11.5803 17.3941 11.7038 17.3031C11.7943 17.233 11.9221 17.2373 12.0131 17.3111L12.1533 17.4304C11.9307 17.6899 11.6338 17.8221 11.2507 17.8221L11.2501 17.8231Z" fill="#151617"/>
<path id="Vector_9" d="M13.8402 17.8234C13.1478 17.8234 12.7188 17.4028 12.7188 16.7271C12.7188 16.0508 13.1473 15.6309 13.8316 15.6309C14.1612 15.6309 14.4378 15.7256 14.6518 15.9192L14.5485 16.0348C14.503 16.084 14.4372 16.1129 14.3714 16.1129C14.3345 16.1129 14.2971 16.1049 14.2644 16.0883C14.1366 16.0225 13.9884 15.9893 13.8316 15.9893C13.3865 15.9893 13.1104 16.274 13.1104 16.7314C13.1104 17.1888 13.3988 17.4777 13.8605 17.4777C14.083 17.4777 14.2564 17.4366 14.3837 17.3456L14.3918 17.3413V16.9005H13.9011V16.756C13.9011 16.649 13.9878 16.5623 14.0948 16.5623H14.701C14.7176 16.5623 14.7342 16.5789 14.7342 16.5955V17.5478C14.5239 17.7292 14.2232 17.8239 13.8396 17.8239L13.8402 17.8234Z" fill="#1877F2"/>
<path id="Vector_10" d="M15.5306 17.8199C15.3782 17.8199 15.2588 17.7867 15.1679 17.7295C15.0732 17.6674 15.0234 17.577 15.0234 17.4534V15.6562H15.2626C15.3493 15.6562 15.4231 15.7263 15.4231 15.8168V17.3999C15.4231 17.4042 15.4231 17.478 15.4852 17.5401C15.5221 17.577 15.5676 17.5978 15.6296 17.5978H15.6751C15.6917 17.5978 15.7083 17.6144 15.7083 17.631V17.8247L15.5312 17.8204L15.5306 17.8199Z" fill="#1877F2"/>
</g>
<g id="Group_2">
<path id="Vector_11" d="M18.3345 12.3594L15.6632 7.72555C15.0778 6.75824 13.6493 6.74967 13.0844 7.76675L10.2793 12.5857C9.75547 13.4695 10.4023 14.5792 11.4504 14.5792H17.0703C18.1285 14.5792 18.9198 13.4385 18.334 12.3599L18.3345 12.3594Z" fill="#002F81"/>
<path id="Vector_12" d="M14.4816 12.7184L14.3174 12.4306C14.1633 12.1636 13.8241 11.5879 13.8241 11.5879L11.5636 7.66301C10.9778 6.78986 9.59103 6.71763 9.00519 7.81709L6.37503 12.3685C5.83038 13.324 6.47775 14.5674 7.65908 14.5776H17.0497C15.6009 14.5878 15.1386 13.8377 14.4811 12.7179L14.4816 12.7184Z" fill="#1877F2"/>
<path id="Vector_13" d="M14.4842 12.7089L14.3199 12.4211C14.1659 12.1541 13.8266 11.5784 13.8266 11.5784L12.3676 9.00977L10.2714 12.5853C9.74766 13.4692 10.3945 14.5788 11.4426 14.5788H15.6243H17.0523C15.5933 14.5686 15.1412 13.8287 14.4837 12.7089H14.4842Z" fill="url(#paint0_linear_2585_9266)"/>
</g>
</g>
</g>
</g>
<defs>
<linearGradient id="paint0_linear_2585_9266" x1="9.52081" y1="10.9599" x2="16.0138" y2="13.3595" gradientUnits="userSpaceOnUse">
<stop stop-color="#264CA2" stop-opacity="0"/>
<stop offset="1" stop-color="#002F81"/>
</linearGradient>
</defs>
</svg>
