<svg width="254" height="253" viewBox="0 0 254 253" fill="none" xmlns="http://www.w3.org/2000/svg">
<path d="M126.88 252.88C196.689 252.88 253.28 196.289 253.28 126.48C253.28 56.6712 196.689 0.0799561 126.88 0.0799561C57.0717 0.0799561 0.480469 56.6712 0.480469 126.48C0.480469 196.289 57.0717 252.88 126.88 252.88Z" fill="url(#paint0_linear_1119_613)"/>
<path d="M195.771 58.7899C189.149 46.3622 179.279 35.9637 167.214 28.7022C155.148 21.4408 141.339 17.5885 127.257 17.5556C113.175 17.5228 99.3477 21.3107 87.2485 28.5158C75.1493 35.7209 65.2313 46.0732 58.5511 58.4699C46.134 65.0905 35.7559 74.9697 28.5321 87.0458C21.3083 99.1218 17.512 112.938 17.5511 127.01C17.602 141.218 21.5158 155.144 28.8736 167.299C36.2314 179.453 46.7561 189.378 59.3211 196.01C66.1026 207.982 75.9421 217.939 87.8335 224.861C99.7249 231.784 113.241 235.424 127.001 235.41C140.805 235.43 154.365 231.768 166.283 224.802C178.2 217.836 188.045 207.818 194.801 195.78C207.204 189.194 217.594 179.375 224.87 167.364C232.147 155.353 236.038 141.597 236.133 127.554C236.227 113.512 232.52 99.7049 225.406 87.5972C218.292 75.4896 208.034 65.5321 195.721 58.7799L195.771 58.7899ZM126.881 200.79C112.181 200.794 97.8102 196.438 85.5857 188.274C73.3612 180.11 63.8323 168.505 58.2041 154.925C52.5759 141.345 51.1013 126.401 53.9667 111.983C56.8321 97.5651 63.9088 84.3207 74.3018 73.9248C84.6949 63.529 97.9374 56.4487 112.355 53.5794C126.772 50.7102 141.716 52.1808 155.298 57.8053C168.879 63.4298 180.487 72.9556 188.655 85.1779C196.822 97.4001 201.181 111.77 201.181 126.47C201.184 146.179 193.358 165.082 179.424 179.021C165.49 192.961 146.59 200.795 126.881 200.8V200.79Z" fill="white"/>
<defs>
<linearGradient id="paint0_linear_1119_613" x1="0.480469" y1="126.48" x2="253.28" y2="126.48" gradientUnits="userSpaceOnUse">
<stop stop-color="#487FC1"/>
<stop offset="1" stop-color="#1CC3F2"/>
</linearGradient>
</defs>
</svg>
