<svg width="24" height="24" viewBox="0 0 300 200" fill="none" xmlns="http://www.w3.org/2000/svg">
<path d="M299.347 0L0 33.4275L22.5974 200L149.878 183.305L148.348 199.692L299.347 184.209V0Z" fill="#AAFF00"/>
<path d="M74.2322 102.537L107.153 99.3722L104.333 70.0358L71.4116 73.2011L74.2322 102.537ZM127.65 129.24L77.265 134.084L81.6123 179.293L39.4573 183.347L23.3789 45.6622L118.474 33.7961C132.727 32.4258 143.949 41.6891 145.321 55.9553L149.783 102.371C151.155 116.637 141.903 127.869 127.65 129.24Z" fill="black"/>
<path d="M283.593 159.881L195.068 168.393C180.815 169.763 169.592 160.5 168.221 146.234L159.411 54.608C158.039 40.3418 167.291 29.1099 181.544 27.7395L272.277 19.0156L263.556 54.7342L202.532 60.6016L209.409 132.134L244.338 128.775L242.251 107.075L221.776 109.044L228.746 80.3878L275.517 75.8909L283.593 159.881Z" fill="black"/>
</svg>
