<svg width="100" height="100" viewBox="0 0 100 100" fill="none" xmlns="http://www.w3.org/2000/svg">
<circle cx="50" cy="50" r="50" fill="#020202"/>
<mask id="mask0_13_201" style="mask-type:alpha" maskUnits="userSpaceOnUse" x="16" y="23" width="68" height="60">
<path d="M35.4208 46.7307L34.9329 48.3431C34.3474 50.308 32.591 51.6684 30.5418 51.6684C27.4681 51.6684 25.2725 48.595 26.1507 45.5719L26.6386 43.9596C27.2241 41.9947 28.9805 40.6343 31.0297 40.6343C34.1035 40.6343 36.299 43.7077 35.4208 46.7307Z" fill="black"/>
<path d="M83.9658 46.1768C83.9658 58.9744 73.9148 69.3536 61.5222 69.3536H44.4945L41.9087 80.9421C41.6648 82.1009 40.6401 82.907 39.518 82.907H38.347C34.4438 82.907 31.5164 79.1282 32.3946 75.1982L33.712 69.3536L35.4684 61.3929C35.8587 59.5287 37.4688 58.2187 39.274 58.2187H54.8868C56.3017 58.2187 57.5702 57.3118 58.0094 55.9514C58.1069 55.5987 58.1557 55.246 58.1557 54.9437C58.1557 53.1803 56.7896 51.6687 54.9844 51.6687H44.2994C41.7135 51.6687 39.6155 49.7541 39.1276 47.386C38.9813 46.6303 38.9325 45.8241 39.1276 45.018V44.9676V44.8668C39.7131 42.3476 41.8599 40.5842 44.3482 40.5842H58.8388C60.2049 40.5842 61.5222 39.7276 61.9614 38.3672C62.0589 38.0146 62.1565 37.6618 62.1565 37.2588C62.1565 35.4953 60.7904 33.9838 58.9851 33.9838H21.3681C17.7577 34.0846 15.1718 30.4569 16.2452 26.93C16.9283 24.5619 19.0262 23 21.3681 23H61.5222C73.9148 23 83.9658 33.3792 83.9658 46.1768Z" fill="black"/>
</mask>
<g mask="url(#mask0_13_201)">
<path d="M3.91413 102.875L3.91406 21.335H90.9311V102.875H3.91413Z" fill="url(#paint0_radial_13_201)"/>
</g>
<defs>
<radialGradient id="paint0_radial_13_201" cx="0" cy="0" r="1" gradientUnits="userSpaceOnUse" gradientTransform="translate(18.873 66.4909) rotate(-36.3081) scale(61.8048 56.65)">
<stop stop-color="#85EAFF"/>
<stop offset="0.706211" stop-color="#DADADA"/>
<stop offset="1" stop-color="#FFCB80"/>
</radialGradient>
</defs>
</svg>
