<svg width="100" height="100" viewBox="0 0 100 100" fill="none" xmlns="http://www.w3.org/2000/svg">
<circle cx="50" cy="50" r="50" fill="#0A0917"/>
<path fill-rule="evenodd" clip-rule="evenodd" d="M36.2265 19L19 41.1276L25.148 68.7198L50.0416 81L74.9349 68.7198L81.0825 41.1276L63.8558 19H36.2265ZM41.2143 22.9944H58.8684L50.0416 34.3326L41.2143 22.9944ZM24.2437 40.798L37.1654 24.2004L47.5475 37.5361L39.8167 47.4659L24.2437 40.798ZM63.9172 25.485L75.4746 40.3307L59.863 43.6796L63.9172 25.485ZM52.5349 37.5361L59.1152 29.0839L56.1873 42.2268L52.5349 37.5361ZM50.0416 40.7393L53.408 45.0641L45.3247 46.7981L50.0416 40.7393ZM60.4051 47.6445L76.3949 44.2145L72.2426 62.8496L60.4051 47.6445ZM23.8537 44.9606L37.289 50.713L27.8401 62.8496L23.8537 44.9606ZM29.8886 66.6252L41.5098 51.6976L54.7073 48.8663L48.6847 75.8971L29.8886 66.6252ZM58.187 51.2019L70.1937 66.6252L52.8431 75.1841L58.187 51.2019Z" fill="#FDFDFD"/>
</svg>
