<svg width="24" height="24" viewBox="0 0 200 200" fill="none" xmlns="http://www.w3.org/2000/svg">
<g clip-path="url(#clip0_185_39)">
<path d="M100 200C155.228 200 200 155.228 200 100C200 44.7715 155.228 0 100 0C44.7715 0 0 44.7715 0 100C0 155.228 44.7715 200 100 200Z" fill="black"/>
<path d="M131.397 113.827C131.847 117.081 132.734 119.512 134.055 121.123C136.472 124.056 140.611 125.522 146.475 125.522C149.988 125.522 152.839 125.136 155.03 124.363C159.186 122.88 161.264 120.125 161.264 116.098C161.264 113.745 160.233 111.925 158.172 110.636C156.109 109.38 152.872 108.269 148.456 107.302L140.917 105.611C133.506 103.934 128.384 102.114 125.548 100.148C120.748 96.8625 118.347 91.7234 118.347 84.7313C118.347 78.3516 120.667 73.0516 125.306 68.8312C129.947 64.6109 136.761 62.5 145.75 62.5C153.258 62.5 159.661 64.4891 164.961 68.4687C170.262 72.4484 173.041 78.2234 173.298 85.7953H158.992C158.734 81.5094 156.866 78.4656 153.386 76.6609C151.067 75.4687 148.183 74.8719 144.736 74.8719C140.902 74.8719 137.841 75.6453 135.553 77.1922C133.266 78.7391 132.122 80.8969 132.122 83.6688C132.122 86.2141 133.248 88.1156 135.505 89.3719C136.955 90.2094 140.047 91.1922 144.784 92.3203L157.059 95.2672C162.441 96.5563 166.5 98.2797 169.239 100.439C173.492 103.791 175.619 108.639 175.619 114.986C175.619 121.495 173.13 126.9 168.152 131.202C163.173 135.503 156.142 137.653 147.055 137.653C137.777 137.653 130.478 135.534 125.162 131.297C119.845 127.061 117.188 121.237 117.188 113.827H131.397Z" fill="white"/>
<path fill-rule="evenodd" clip-rule="evenodd" d="M43.75 40.625V159.375H146.875V148.438H56.25V51.5625H146.875V40.625H43.75Z" fill="white"/>
</g>
<defs>
<clipPath id="clip0_185_39">
<rect width="200" height="200" fill="white"/>
</clipPath>
</defs>
</svg>
