<svg width="32" height="32" viewBox="0 0 32 32" fill="none" xmlns="http://www.w3.org/2000/svg">
<path d="M9.45603 27.7094L9.68302 27.2638L9.45603 27.7094ZM8.29065 26.544L8.73615 26.317L8.29065 26.544ZM23.7094 26.544L23.2638 26.317L23.7094 26.544ZM22.544 27.7094L22.317 27.2638L22.544 27.7094ZM22.544 9.62398L22.317 10.0695L22.544 9.62398ZM23.7094 10.7894L24.1549 10.5624L23.7094 10.7894ZM9.45603 9.62398L9.68302 10.0695L9.45603 9.62398ZM8.29065 10.7894L7.84515 10.5624L8.29065 10.7894ZM5.45603 13.0427L5.68302 12.5972L5.45603 13.0427ZM4.29065 11.8773L4.73615 11.6503L4.29065 11.8773ZM27.7094 11.8773L27.2638 11.6503L27.7094 11.8773ZM26.544 13.0427L26.317 12.5972L26.544 13.0427ZM26.544 4.29065L26.317 4.73615L26.544 4.29065ZM27.7094 5.45603L27.2638 5.68302L27.7094 5.45603ZM5.45603 4.29065L5.68302 4.73615L5.45603 4.29065ZM4.29065 5.45603L4.73615 5.68302L4.29065 5.45603ZM7.69971 22.9333C7.47892 23.0992 7.43437 23.4126 7.60022 23.6334C7.76606 23.8542 8.07949 23.8987 8.30029 23.7329L7.69971 22.9333ZM12.2671 27.6997C12.1013 27.9205 12.1458 28.2339 12.3666 28.3998C12.5874 28.5656 12.9008 28.5211 13.0667 28.3003L12.2671 27.6997ZM23.6997 23.7329C23.9205 23.8987 24.2339 23.8542 24.3998 23.6334C24.5656 23.4126 24.5211 23.0992 24.3003 22.9333L23.6997 23.7329ZM18.9333 28.3003C19.0992 28.5211 19.4126 28.5656 19.6334 28.3998C19.8542 28.2339 19.8987 27.9205 19.7329 27.6997L18.9333 28.3003ZM12.2667 9.83333H19.7333V8.83333H12.2667V9.83333ZM23.5 13.6V23.7333H24.5V13.6H23.5ZM19.7333 27.5H12.2667V28.5H19.7333V27.5ZM8.5 23.7333V13.6H7.5V23.7333H8.5ZM12.2667 27.5C11.5117 27.5 10.9755 27.4996 10.5559 27.4653C10.1422 27.4315 9.886 27.3673 9.68302 27.2638L9.22903 28.1549C9.59648 28.3421 9.9989 28.4232 10.4745 28.462C10.9442 28.5004 11.5282 28.5 12.2667 28.5V27.5ZM7.5 23.7333C7.5 24.4718 7.49961 25.0558 7.53799 25.5255C7.57685 26.0011 7.65792 26.4035 7.84515 26.771L8.73615 26.317C8.63273 26.114 8.56848 25.8578 8.53467 25.4441C8.50039 25.0245 8.5 24.4883 8.5 23.7333H7.5ZM9.68302 27.2638C9.27534 27.0561 8.94388 26.7247 8.73615 26.317L7.84515 26.771C8.14875 27.3668 8.63318 27.8513 9.22903 28.1549L9.68302 27.2638ZM23.5 23.7333C23.5 24.4883 23.4996 25.0245 23.4653 25.4441C23.4315 25.8578 23.3673 26.114 23.2638 26.317L24.1549 26.771C24.3421 26.4035 24.4232 26.0011 24.462 25.5255C24.5004 25.0558 24.5 24.4718 24.5 23.7333H23.5ZM19.7333 28.5C20.4718 28.5 21.0558 28.5004 21.5255 28.462C22.0011 28.4232 22.4035 28.3421 22.771 28.1549L22.317 27.2638C22.114 27.3673 21.8578 27.4315 21.4441 27.4653C21.0245 27.4996 20.4883 27.5 19.7333 27.5V28.5ZM23.2638 26.317C23.0561 26.7247 22.7247 27.0561 22.317 27.2638L22.771 28.1549C23.3668 27.8513 23.8513 27.3668 24.1549 26.771L23.2638 26.317ZM19.7333 9.83333C20.4883 9.83333 21.0245 9.83372 21.4441 9.868C21.8578 9.90181 22.114 9.96606 22.317 10.0695L22.771 9.17848C22.4035 8.99125 22.0011 8.91018 21.5255 8.87133C21.0558 8.83294 20.4718 8.83333 19.7333 8.83333V9.83333ZM22.317 10.0695C22.7247 10.2772 23.0561 10.6087 23.2638 11.0164L24.1549 10.5624C23.8513 9.96652 23.3668 9.48208 22.771 9.17848L22.317 10.0695ZM12.2667 8.83333C11.5282 8.83333 10.9442 8.83294 10.4745 8.87133C9.9989 8.91018 9.59648 8.99125 9.22903 9.17848L9.68302 10.0695C9.886 9.96606 10.1422 9.90181 10.5559 9.868C10.9755 9.83372 11.5117 9.83333 12.2667 9.83333V8.83333ZM9.22903 9.17848C8.63318 9.48208 8.14875 9.96652 7.84515 10.5624L8.73615 11.0164C8.94388 10.6087 9.27534 10.2772 9.68302 10.0695L9.22903 9.17848ZM18.1667 16C18.1667 17.1966 17.1966 18.1667 16 18.1667V19.1667C17.7489 19.1667 19.1667 17.7489 19.1667 16H18.1667ZM16 18.1667C14.8034 18.1667 13.8333 17.1966 13.8333 16H12.8333C12.8333 17.7489 14.2511 19.1667 16 19.1667V18.1667ZM13.8333 16C13.8333 14.8034 14.8034 13.8333 16 13.8333V12.8333C14.2511 12.8333 12.8333 14.2511 12.8333 16H13.8333ZM16 13.8333C17.1966 13.8333 18.1667 14.8034 18.1667 16H19.1667C19.1667 14.2511 17.7489 12.8333 16 12.8333V13.8333ZM8.26667 4.5H23.7333V3.5H8.26667V4.5ZM27.5 8.26667V9.06667H28.5V8.26667H27.5ZM4.5 9.06667V8.26667H3.5V9.06667H4.5ZM3.5 9.06667C3.5 9.80515 3.49961 10.3891 3.53799 10.8588C3.57685 11.3344 3.65792 11.7369 3.84515 12.1043L4.73615 11.6503C4.63273 11.4473 4.56848 11.1912 4.53467 10.7774C4.50039 10.3578 4.5 9.82165 4.5 9.06667H3.5ZM5.68302 12.5972C5.27534 12.3895 4.94388 12.058 4.73615 11.6503L3.84515 12.1043C4.14875 12.7001 4.63318 13.1846 5.22903 13.4882L5.68302 12.5972ZM27.5 9.06667C27.5 9.82165 27.4996 10.3578 27.4653 10.7774C27.4315 11.1912 27.3673 11.4473 27.2638 11.6503L28.1549 12.1043C28.3421 11.7369 28.4232 11.3344 28.462 10.8588C28.5004 10.3891 28.5 9.80515 28.5 9.06667H27.5ZM27.2638 11.6503C27.0561 12.058 26.7247 12.3895 26.317 12.5972L26.771 13.4882C27.3668 13.1846 27.8513 12.7001 28.1549 12.1043L27.2638 11.6503ZM23.7333 4.5C24.4883 4.5 25.0245 4.50039 25.4441 4.53467C25.8578 4.56848 26.114 4.63273 26.317 4.73615L26.771 3.84515C26.4035 3.65792 26.0011 3.57685 25.5255 3.53799C25.0558 3.49961 24.4718 3.5 23.7333 3.5V4.5ZM28.5 8.26667C28.5 7.52818 28.5004 6.94425 28.462 6.47449C28.4232 5.9989 28.3421 5.59648 28.1549 5.22903L27.2638 5.68302C27.3673 5.886 27.4315 6.14217 27.4653 6.55592C27.4996 6.97551 27.5 7.51168 27.5 8.26667H28.5ZM26.317 4.73615C26.7247 4.94388 27.0561 5.27534 27.2638 5.68302L28.1549 5.22903C27.8513 4.63318 27.3668 4.14875 26.771 3.84515L26.317 4.73615ZM8.26667 3.5C7.52818 3.5 6.94425 3.49961 6.47449 3.53799C5.9989 3.57685 5.59648 3.65792 5.22903 3.84515L5.68302 4.73615C5.886 4.63273 6.14217 4.56848 6.55592 4.53467C6.97551 4.50039 7.51168 4.5 8.26667 4.5V3.5ZM4.5 8.26667C4.5 7.51168 4.50039 6.97551 4.53467 6.55592C4.56848 6.14217 4.63273 5.886 4.73615 5.68302L3.84515 5.22903C3.65792 5.59648 3.57685 5.9989 3.53799 6.47449C3.49961 6.94425 3.5 7.52818 3.5 8.26667H4.5ZM5.22903 3.84515C4.63318 4.14875 4.14875 4.63318 3.84515 5.22903L4.73615 5.68302C4.94388 5.27534 5.27534 4.94388 5.68302 4.73615L5.22903 3.84515ZM10 23.1667C11.5648 23.1667 12.8333 24.4352 12.8333 26H13.8333C13.8333 23.8829 12.1171 22.1667 10 22.1667V23.1667ZM8.30029 23.7329C8.77378 23.3772 9.36158 23.1667 10 23.1667V22.1667C9.13761 22.1667 8.34043 22.452 7.69971 22.9333L8.30029 23.7329ZM12.8333 26C12.8333 26.6384 12.6228 27.2262 12.2671 27.6997L13.0667 28.3003C13.548 27.6596 13.8333 26.8624 13.8333 26H12.8333ZM19.1667 26C19.1667 24.4352 20.4352 23.1667 22 23.1667V22.1667C19.8829 22.1667 18.1667 23.8829 18.1667 26H19.1667ZM22 23.1667C22.6384 23.1667 23.2262 23.3772 23.6997 23.7329L24.3003 22.9333C23.6596 22.452 22.8624 22.1667 22 22.1667V23.1667ZM19.7329 27.6997C19.3772 27.2262 19.1667 26.6384 19.1667 26H18.1667C18.1667 26.8624 18.452 27.6596 18.9333 28.3003L19.7329 27.6997ZM24.0003 13.8333C24.6542 13.8328 25.1806 13.8287 25.6126 13.7877C26.0504 13.7461 26.4259 13.664 26.771 13.4882L26.317 12.5972C26.1266 12.6942 25.889 12.7569 25.5181 12.7921C25.1414 12.8279 24.6635 12.8327 23.9995 12.8333L24.0003 13.8333ZM24.5 13.6C24.5 13.5084 24.5 13.4193 24.4999 13.3329L23.4999 13.3337C23.5 13.4196 23.5 13.5083 23.5 13.6H24.5ZM24.4999 13.3329C24.4994 12.6791 24.4954 12.1526 24.4543 11.7206C24.4127 11.2829 24.3307 10.9074 24.1549 10.5624L23.2638 11.0164C23.3608 11.2067 23.4236 11.4443 23.4588 11.8152C23.4946 12.1919 23.4994 12.6697 23.4999 13.3337L24.4999 13.3329ZM8.00046 12.8333C7.33645 12.8327 6.85862 12.8279 6.48193 12.7921C6.111 12.7569 5.87338 12.6942 5.68302 12.5972L5.22903 13.4882C5.5741 13.664 5.94958 13.7461 6.38735 13.7877C6.81937 13.8287 7.34584 13.8328 7.99968 13.8333L8.00046 12.8333ZM8.5 13.6C8.5 13.5083 8.5 13.4196 8.50007 13.3337L7.50007 13.3329C7.5 13.4193 7.5 13.5084 7.5 13.6H8.5ZM8.50007 13.3337C8.50059 12.6697 8.50541 12.1919 8.5412 11.8152C8.57644 11.4443 8.63916 11.2067 8.73615 11.0164L7.84515 10.5624C7.66933 10.9074 7.58728 11.2829 7.54568 11.7206C7.50464 12.1526 7.50058 12.6791 7.50007 13.3329L8.50007 13.3337Z" fill="#F7F7FC"/>
</svg>
