<svg width="48" height="44" viewBox="0 0 48 44" fill="none" xmlns="http://www.w3.org/2000/svg">
<path d="M8 6L0 6C0.0153551 5.22481 0.153551 3.42636 1.15163 1.73643C1.64299 0.899225 2.19578 0.341085 2.61036 0L8 0L8 6Z" fill="#0F507E"/>
<path d="M40 6L48 6C47.9846 5.22481 47.8464 3.42636 46.8484 1.73643C46.357 0.899225 45.8042 0.341085 45.3896 0L40 0V6Z" fill="#0F507E"/>
<path d="M23.6977 44L5.52411 31.5V5C5.52411 2.2 3.84137 0.5 3 0H44.9002C42.8809 0 42.3761 3.33333 42.3761 5V31.5L23.6977 44Z" fill="url(#paint0_linear_445_9421)"/>
<path d="M33 28.808C32.9543 27.768 32.866 26.7372 32.6317 25.7167C32.6349 25.3391 32.397 24.9714 32.5199 24.6073C32.8063 24.1722 32.7343 23.5391 32.6401 23.0584C32.6472 22.9854 32.5677 22.9985 32.5518 22.9509C32.5414 22.8141 32.3239 22.922 32.2447 22.8879C32.2383 22.7943 32.2654 22.6911 32.1676 22.6237C32.1548 22.5555 32.1011 22.5142 32.0439 22.5142C31.7372 22.5531 31.7456 21.886 31.5662 21.6726C31.4791 21.4937 31.4536 21.2755 31.2878 21.1443C31.1724 20.8357 30.9688 20.5572 30.7345 20.3224C30.694 20.2379 30.7043 20.0777 30.616 20.04C30.5993 19.9567 30.5468 19.8873 30.4883 19.8116C30.4605 19.7632 30.4665 19.6846 30.3786 19.6906C30.5587 19.3927 30.8367 19.1662 31.0074 18.86C31.3685 18.3504 31.668 17.8141 31.8343 17.2374C31.9806 17.0466 31.7189 16.8824 31.6927 16.6837C31.8068 16.5108 31.5483 16.5215 31.5622 16.4013C31.6553 16.4184 31.8836 16.4541 31.6943 16.2867C31.7277 16.1693 31.6223 16.0618 31.5729 15.9559C31.5137 15.8305 31.5749 15.6794 31.4803 15.5747C31.3789 14.9611 31.186 14.4566 30.9254 13.9009C30.8025 13.6848 30.6005 13.463 30.6606 13.1977C30.651 13.139 30.7433 13.0771 30.655 13.0212C31.11 11.7052 31.0316 9.92626 30.2577 8.66853C29.2574 6.72264 29.0736 9.57722 28.588 10.2483C28.405 10.48 28.1596 11.134 27.8283 10.8385C27.7166 10.8338 27.4441 10.6386 27.3829 10.7651C27.1975 10.7401 27.0229 10.6656 26.842 10.6481C26.457 10.5426 26.0457 10.6005 25.6476 10.5684C25.6726 10.547 25.6981 10.5256 25.7231 10.5045C25.3815 10.4712 25.0406 10.5783 24.6914 10.6223C24.6063 10.6442 24.5125 10.6366 24.4397 10.6985C24.4317 10.6945 24.4242 10.6953 24.4174 10.7009C23.8399 10.8159 24.0543 10.9543 23.4573 10.3439C23.4099 10.2142 23.2835 10.1389 23.2115 10.0226C23.2194 10.0234 23.227 10.0222 23.2349 10.0199C22.9267 9.6855 22.7183 9.16432 22.5011 8.75698C22.4196 8.61498 22.1404 7.68884 21.9527 8.11721C21.9352 8.13387 21.9177 8.15092 21.9006 8.16758C21.7427 8.20169 21.656 8.38176 21.5474 8.50869C21.3541 8.70383 21.2113 8.98504 21.1556 9.23968C21.0693 9.30909 21.0009 9.39794 20.9603 9.5086C20.701 9.90008 20.571 10.3447 20.4453 10.7116C20.3069 11.0122 20.3586 10.8508 20.3613 11.1876C20.2965 11.6215 20.1605 12.0986 20.2723 12.5302C20.2213 12.5774 20.2404 12.6825 20.3156 12.6833C20.2711 12.7309 20.2707 12.8038 20.3248 12.8419C20.6767 13.8236 20.8947 14.1909 20.4775 15.253C20.2019 15.7429 20.213 16.3236 19.96 16.834C19.8702 16.8888 19.9394 16.9649 19.8877 17.0383C19.8721 17.0645 19.8566 17.0911 19.8411 17.1172C19.8741 17.1458 19.933 17.1442 19.9425 17.0926C19.9557 17.1006 19.9708 17.1061 19.9863 17.1018C19.9811 17.1148 19.9775 17.1283 19.9756 17.1426C19.9402 17.1438 19.9417 17.193 19.9107 17.2021C19.9155 17.2398 19.9736 17.2342 19.995 17.2108C20.0845 17.2358 19.8984 17.7348 19.8475 17.7919C19.7469 18.0957 19.5933 17.9644 19.8383 18.2695C20.2508 18.6712 20.5857 19.2226 21.1091 19.5185V19.5181C21.0013 19.8949 21.0558 20.2526 20.8521 20.5687C20.66 20.8262 20.6604 21.1788 20.4719 21.4746C20.0066 22.3421 19.8149 23.3809 19.6084 24.3241C19.6204 24.4197 19.5854 24.4724 19.5082 24.5228C19.5038 24.4442 19.5237 24.3653 19.519 24.286C19.5221 24.2368 19.5257 24.188 19.5289 24.1388C19.6578 23.3575 19.5484 22.5111 19.4788 21.7134C19.4995 21.5683 19.4645 21.3449 19.344 21.2335C19.3861 21.1212 19.4323 20.9634 19.3201 20.8726C19.3105 20.4819 19.4398 19.9036 19.2223 19.5664C19.0822 18.5804 19.0759 17.5603 18.8019 16.6905C18.7048 16.4703 18.634 15.0603 18.3282 15.2935C18.1551 14.9611 17.8254 13.87 17.5383 13.7863C17.4941 13.7002 17.4512 13.6138 17.3808 13.5451C17.2841 13.4154 17.2213 13.2286 17.0972 13.1449C16.5913 12.6194 16.6617 11.9027 16.2707 11.2891C15.9963 11.6921 14.5533 9.16631 14.7128 10.2392C14.648 10.1801 14.5835 10.1206 14.5187 10.0615C13.8617 9.1437 14.3031 10.4312 14.4034 10.7739C14.4213 11.069 14.9097 12.0724 14.7223 12.199C14.3139 11.8214 14.2912 12.2807 14.4042 12.5968C14.4081 12.5877 14.4121 12.5789 14.4161 12.5698C14.4221 12.8284 14.5227 13.0954 14.5688 13.3897C14.0486 12.6349 14.3743 13.9438 14.3946 14.204C14.3739 14.4586 14.4646 14.6986 14.4248 14.9524C14.0291 14.6061 14.4853 15.6449 14.4093 15.8329C13.8294 14.7902 14.1731 16.1352 14.2045 16.5136C14.1667 16.416 14.0828 16.347 14.0732 16.2454C13.9702 16.1486 13.9933 16.4152 14.0371 16.462C13.9889 16.7821 14.2427 17.1501 14.1214 17.4318C13.9285 17.2679 14.1321 18.1754 14.2335 18.1279C14.2113 18.256 14.1961 18.3571 14.2896 18.4602C14.2757 18.5277 14.2984 18.7629 14.3918 18.6958C14.3902 18.8331 14.4228 18.962 14.4765 19.0853C14.3485 18.9465 14.3194 18.9275 14.2395 19.0572C14.2486 19.1559 14.2769 19.2487 14.3234 19.3328C14.3513 19.3951 14.3429 19.4788 14.436 19.4935C14.3986 19.591 14.4077 19.6529 14.5167 19.6934C14.4793 19.8207 14.5084 19.9107 14.6348 19.969C14.5863 20.0265 14.6169 20.1412 14.7144 20.1293C14.6766 20.3716 14.2622 19.6906 14.284 19.9964C14.3067 20.1864 14.3847 20.349 14.4431 20.5196C14.459 20.5779 14.4646 20.6405 14.5131 20.685C14.5676 20.8928 14.6571 21.0717 14.7546 21.2716C14.8198 21.3263 14.7892 21.5492 14.92 21.6317C14.8878 21.7333 14.957 21.828 15.0485 21.8697C15.0795 21.9593 15.0616 22.0724 15.1642 22.1465C15.1642 22.1465 15.1678 22.1469 15.1714 22.1473L15.1642 22.1465C15.1642 22.2616 15.0258 22.1311 15.0381 22.2068C15.0131 22.3675 15.1694 22.3893 15.2398 22.5091C15.1837 22.6015 15.3543 22.701 15.4124 22.7816C15.3905 22.7974 15.3802 22.8196 15.373 22.8426C15.276 22.6836 14.6301 22.3766 14.9654 22.7812C15.064 22.8831 15.0894 23.1048 15.2712 23.1901C15.3861 23.4241 15.5604 23.6799 15.7544 23.889C15.8829 24.0849 16.0452 24.217 16.1478 24.4395C15.2354 24.1777 16.4131 24.94 16.4469 25.2109C16.4521 25.2058 16.4572 25.2002 16.4624 25.1951C15.3969 24.8512 16.2381 25.4803 16.5443 25.8293C16.6155 25.9435 16.9576 26.2949 16.6195 26.0919C16.1367 26.0336 17.1342 26.6289 17.2205 26.709C17.2038 26.8149 17.3879 26.8193 17.3382 26.9415C16.7945 26.6134 16.6171 26.9212 17.1385 27.1017C17.2559 27.2088 17.4154 27.2715 17.5347 27.3865C16.5467 27.5344 17.9153 27.9473 18.21 28.2119C22.5572 29.7929 28.3271 28.4435 33 28.808ZM31.6107 17.6261C31.6068 17.6265 31.602 17.6277 31.5976 17.6289C31.5992 17.6245 31.6012 17.6202 31.6028 17.6162C31.606 17.6194 31.6083 17.6229 31.6107 17.6261ZM32.5219 25.5568C32.5211 25.5572 32.5207 25.5576 32.5199 25.558C32.5199 25.5568 32.5203 25.5556 32.5203 25.5548C32.5211 25.5556 32.5215 25.5564 32.5219 25.5568ZM25.4324 10.5843C25.4364 10.5851 25.44 10.5863 25.4439 10.5867C25.438 10.5958 25.4324 10.6045 25.4264 10.6136C25.4252 10.6101 25.4221 10.5882 25.4324 10.5843ZM23.896 28.1718C23.8976 28.1714 23.8992 28.1718 23.9003 28.1714C23.8996 28.1726 23.8992 28.1738 23.8984 28.175C23.898 28.1738 23.8968 28.173 23.896 28.1718ZM23.7178 28.0485C23.709 28.0389 23.7019 28.0278 23.6975 28.0132C23.7249 28.0096 23.7182 28.0298 23.7178 28.0485ZM16.186 14.5411L16.1856 14.5407C16.186 14.5407 16.1864 14.5407 16.1868 14.5407C16.1864 14.5407 16.1864 14.5407 16.186 14.5411ZM15.4323 20.0924C15.4319 20.0908 15.4319 20.0896 15.4315 20.088C15.4327 20.0892 15.4335 20.0904 15.4347 20.0916C15.4339 20.0916 15.4331 20.0924 15.4323 20.0924ZM16.5042 16.5957C16.5042 16.5972 16.5042 16.5992 16.5042 16.6008C16.5042 16.5992 16.5014 16.5961 16.5042 16.5957ZM17.4583 21.0387V21.0391C17.4579 21.0387 17.4579 21.0387 17.4583 21.0387ZM17.7328 23.0251C17.732 23.0219 17.7324 23.0199 17.7363 23.0199C17.7351 23.0219 17.7339 23.0231 17.7328 23.0251ZM16.1868 19.5331C16.188 19.5339 16.1884 19.5351 16.1896 19.5363C16.1884 19.5363 16.1872 19.5355 16.1864 19.5363C16.1868 19.5351 16.1868 19.5343 16.1868 19.5331ZM15.8686 18.5427C15.8682 18.5459 15.8682 18.5491 15.8642 18.5471C15.8658 18.5455 15.867 18.5439 15.8686 18.5427ZM15.9716 19.829C15.9716 19.8298 15.9716 19.831 15.9716 19.8318C15.9712 19.831 15.9704 19.8302 15.97 19.8298C15.9704 19.8294 15.9708 19.829 15.9716 19.829ZM16.3057 20.0484C16.3069 20.0491 16.3073 20.0499 16.3085 20.0507C16.3069 20.0503 16.3061 20.0507 16.3057 20.0519C16.3057 20.0507 16.3057 20.0495 16.3057 20.0484ZM15.9863 19.5272C15.9867 19.5296 15.9871 19.5315 15.9871 19.5335C15.9835 19.5311 15.9804 19.5296 15.9768 19.5276C15.98 19.5272 15.9831 19.5272 15.9863 19.5272ZM16.7082 19.7378C16.7066 19.7354 16.7046 19.7338 16.7034 19.7314C16.7102 19.7314 16.7173 19.7314 16.7241 19.7314C16.7181 19.7322 16.713 19.7346 16.7082 19.7378ZM16.5877 18.6232C16.5865 18.624 16.5857 18.6252 16.5845 18.626C16.5837 18.6236 16.5857 18.6221 16.5877 18.6232ZM17.4734 20.7984C17.473 20.7976 17.473 20.7968 17.4726 20.796C17.4734 20.7972 17.4742 20.7984 17.4746 20.7996C17.4746 20.7992 17.4742 20.7988 17.4734 20.7984ZM17.1799 19.6521C17.1783 19.6501 17.1771 19.6485 17.1755 19.6466C17.1767 19.6462 17.1775 19.6454 17.1787 19.645C17.1791 19.6474 17.1795 19.6497 17.1799 19.6521ZM16.771 19.7394C16.7619 19.737 16.7527 19.7346 16.7428 19.7314C16.7543 19.7318 16.7655 19.7314 16.7766 19.7303C16.775 19.7334 16.773 19.7362 16.771 19.7394ZM17.1008 22.941C17.1012 22.9414 17.1016 22.9422 17.102 22.9426C17.1016 22.9426 17.1012 22.9426 17.1008 22.943C17.1008 22.9426 17.1008 22.9418 17.1008 22.941ZM16.8621 22.6638C16.8637 22.6649 16.8649 22.6661 16.8661 22.6673C16.8645 22.6677 16.8633 22.6681 16.8617 22.6685C16.8621 22.6669 16.8621 22.6653 16.8621 22.6638ZM17.0988 23.8846C17.0992 23.887 17.1 23.8898 17.1004 23.8921C17.0992 23.8898 17.0976 23.8874 17.0964 23.885C17.0972 23.885 17.098 23.885 17.0988 23.8846ZM17.3788 17.1466C17.3788 17.1363 17.3788 17.126 17.3788 17.116C17.3879 17.1287 17.3979 17.1386 17.3788 17.1466ZM17.2193 17.6305C17.2193 17.6317 17.2189 17.6325 17.2185 17.6336C17.2181 17.6329 17.2177 17.6321 17.2169 17.6313C17.2177 17.6309 17.2185 17.6309 17.2193 17.6305ZM16.1864 16.5615C16.1848 16.5592 16.1836 16.5564 16.1824 16.5536C16.184 16.5532 16.186 16.5528 16.1876 16.552C16.1868 16.5556 16.1868 16.5588 16.1864 16.5615ZM15.828 16.4414C15.8268 16.4406 15.826 16.4398 15.8248 16.439C15.826 16.4386 15.8268 16.4386 15.828 16.4382C15.828 16.4394 15.828 16.4402 15.828 16.4414ZM15.9064 16.951C15.9064 16.9534 15.9064 16.9554 15.906 16.9578C15.9044 16.9558 15.9032 16.9534 15.9016 16.9514C15.9036 16.9514 15.9052 16.951 15.9064 16.951ZM15.3122 17.9085C15.3126 17.9089 15.3126 17.9089 15.3122 17.9085C15.3122 17.9089 15.3122 17.9089 15.3122 17.9085ZM15.83 16.0067C15.83 16.0051 15.83 16.0035 15.83 16.0019C15.8308 16.0019 15.8316 16.0023 15.8328 16.0023C15.832 16.0039 15.8308 16.0051 15.83 16.0067ZM15.2728 16.4822C15.2724 16.4814 15.2724 16.481 15.2724 16.4802C15.2728 16.4802 15.2736 16.4802 15.2744 16.4802C15.2736 16.481 15.2732 16.4814 15.2728 16.4822ZM18.3325 24.1301L18.3321 24.1297H18.3325C18.3325 24.1297 18.3325 24.1297 18.3325 24.1301ZM17.8557 18.9386C17.8592 18.939 17.8624 18.939 17.866 18.939C17.8624 18.9433 17.8596 18.9421 17.8557 18.9386ZM15.6697 15.0159C15.6681 15.0151 15.6669 15.0143 15.6654 15.0135C15.6665 15.0127 15.6677 15.0115 15.6689 15.0103C15.6693 15.0123 15.6697 15.0143 15.6697 15.0159ZM15.7095 15.6893C15.7091 15.689 15.7087 15.689 15.7083 15.6886C15.7087 15.6886 15.7091 15.6882 15.7091 15.6882C15.7095 15.6889 15.7095 15.6893 15.7095 15.6893ZM18.2518 20.1761C18.2522 20.1729 18.2526 20.1701 18.253 20.1669C18.2538 20.1705 18.2546 20.1737 18.2518 20.1761ZM15.1535 15.1745C15.1535 15.1741 15.1535 15.1737 15.1535 15.1733C15.1539 15.1737 15.1543 15.1737 15.1547 15.1741C15.1543 15.1741 15.1539 15.1741 15.1535 15.1745ZM18.4518 26.8114C18.4518 26.8157 18.4518 26.8201 18.4518 26.8244C18.4479 26.8205 18.4443 26.8161 18.4407 26.8118C18.4439 26.8118 18.4479 26.8118 18.4518 26.8114ZM16.1868 14.5403C16.1868 14.5383 16.1868 14.5359 16.1868 14.534C16.1884 14.5343 16.1896 14.5351 16.1912 14.5355C16.1896 14.5371 16.1884 14.5387 16.1868 14.5403ZM18.5199 26.9319C18.5234 26.9355 18.5274 26.9395 18.531 26.943C18.5326 26.9446 18.5342 26.9466 18.5358 26.9482C18.5298 26.9486 18.5258 26.9379 18.5199 26.9319ZM15.2366 13.8942C15.2354 13.8981 15.2346 13.9021 15.233 13.9065C15.2326 13.9021 15.2314 13.8978 15.231 13.8934C15.2326 13.8938 15.2346 13.8938 15.2366 13.8942ZM15.6697 12.5591C15.6685 12.5583 15.6673 12.5575 15.6662 12.5567C15.6673 12.5563 15.6685 12.5559 15.6697 12.5555C15.6697 12.5567 15.6697 12.5579 15.6697 12.5591ZM18.6105 27.9719C18.6105 27.9727 18.6105 27.9731 18.6105 27.9739C18.6101 27.9735 18.6097 27.9727 18.6093 27.9723C18.6101 27.9723 18.6101 27.9719 18.6105 27.9719ZM18.9287 27.7359C18.9311 27.7379 18.9327 27.7399 18.9351 27.7419C18.9327 27.7434 18.9303 27.7446 18.9279 27.7462C18.9279 27.7431 18.9279 27.7395 18.9287 27.7359ZM18.2526 16.9181C18.2522 16.9177 18.2522 16.9173 18.2518 16.9169C18.2522 16.9169 18.2522 16.9169 18.2526 16.9165C18.2526 16.9169 18.2526 16.9177 18.2526 16.9181ZM16.9019 14.9762C16.9015 14.9758 16.9011 14.9754 16.9011 14.9754C16.9015 14.975 16.9019 14.975 16.9019 14.9746C16.9019 14.9754 16.9019 14.9758 16.9019 14.9762ZM15.5504 21.9058C15.5504 21.9074 15.5508 21.9094 15.5508 21.9109C15.5496 21.9098 15.5488 21.9082 15.5476 21.907C15.5484 21.9066 15.5492 21.9062 15.5504 21.9058ZM18.8094 21.08C18.809 21.08 18.8086 21.08 18.8082 21.08C18.8086 21.0796 18.809 21.0792 18.8094 21.0788C18.8094 21.0792 18.8094 21.0796 18.8094 21.08ZM29.8305 26.8371C29.842 26.8332 29.8544 26.8292 29.8679 26.826C29.8591 26.8363 29.8516 26.8463 29.844 26.8566C29.8404 26.8494 29.8361 26.8431 29.8305 26.8371ZM26.0369 11.865C26.056 11.8571 26.0533 11.8698 26.0362 11.867C26.0366 11.8666 26.0366 11.8658 26.0369 11.865ZM20.837 14.9706C20.8378 14.9706 20.8386 14.9702 20.839 14.9702C20.8378 14.9718 20.8366 14.9738 20.8354 14.9754C20.8358 14.9738 20.8362 14.9722 20.837 14.9706ZM29.4992 20.4862C29.5008 20.487 29.5024 20.4882 29.504 20.489C29.502 20.489 29.5004 20.4898 29.4984 20.4902C29.4988 20.489 29.4988 20.4874 29.4992 20.4862ZM20.359 22.6638C20.359 22.6649 20.359 22.6661 20.359 22.6673C20.3574 22.6665 20.3586 22.6649 20.359 22.6638ZM30.7317 22.1089C30.7321 22.1089 30.7321 22.1093 30.7321 22.1093C30.7317 22.1093 30.7317 22.1097 30.7314 22.1097C30.7317 22.1097 30.7317 22.1093 30.7317 22.1089ZM31.1275 24.6465C31.1275 24.6461 31.1271 24.6457 31.1271 24.6453C31.1279 24.6453 31.1283 24.6449 31.1291 24.6449C31.1283 24.6457 31.1279 24.6461 31.1275 24.6465ZM29.3409 20.6433C29.3429 20.6457 29.3453 20.6481 29.3473 20.65C29.3461 20.6508 29.3449 20.6524 29.3433 20.6524C29.3437 20.6528 29.3405 20.6449 29.3409 20.6433ZM29.4606 13.5471C29.4475 13.5491 29.4383 13.5444 29.4387 13.5309C29.4459 13.5364 29.4534 13.542 29.4606 13.5471ZM21.969 13.1898C21.9678 13.1941 21.9674 13.1981 21.9662 13.2021C21.9642 13.1993 21.9622 13.1965 21.9602 13.1941C21.9634 13.1925 21.9662 13.1913 21.969 13.1898ZM26.6757 26.3124C26.6757 26.3199 26.6741 26.3235 26.6662 26.3243C26.6487 26.3021 26.6769 26.2945 26.6757 26.3124ZM28.8958 21.1966C28.9026 21.2097 28.8915 21.2089 28.8811 21.2129C28.8859 21.2069 28.8907 21.2018 28.8958 21.1966ZM27.631 21.6353C27.6307 21.6349 27.6303 21.6345 27.6299 21.6337C27.6307 21.6337 27.6318 21.6337 27.6326 21.6337C27.633 21.6349 27.6318 21.6369 27.6318 21.6381C27.631 21.6373 27.631 21.6361 27.631 21.6353ZM27.9278 22.0874C27.9278 22.0855 27.9278 22.0835 27.9278 22.0815C27.9289 22.0839 27.9301 22.0863 27.9313 22.089C27.9313 22.089 27.9293 22.0882 27.9278 22.0874ZM27.2341 22.7431C27.2337 22.7451 27.2325 22.7467 27.2321 22.7486C27.2309 22.747 27.2293 22.7459 27.2281 22.7443C27.2301 22.7439 27.2321 22.7431 27.2341 22.7431ZM26.3659 22.2354C26.3663 22.2346 26.3667 22.2342 26.3671 22.2334C26.3675 22.2338 26.3679 22.2342 26.3679 22.2346C26.3671 22.2346 26.3663 22.235 26.3659 22.2354ZM25.2431 22.1588C25.2431 22.1592 25.2431 22.1592 25.2435 22.1596C25.2431 22.1596 25.2427 22.1596 25.2423 22.1596C25.2423 22.1596 25.2427 22.1592 25.2431 22.1588ZM25.8779 21.7563C25.8775 21.7578 25.8775 21.7594 25.8771 21.7606C25.8763 21.7598 25.8759 21.759 25.8751 21.7582C25.8763 21.7578 25.8771 21.7571 25.8779 21.7563ZM28.3446 23.9314C28.3442 23.9326 28.3434 23.9334 28.3426 23.9346C28.3422 23.9334 28.3418 23.9322 28.3414 23.931C28.3426 23.931 28.3438 23.931 28.3446 23.9314ZM28.5526 24.407C28.5526 24.4066 28.5526 24.4066 28.5526 24.407V24.407ZM27.3841 21.8768C27.3841 21.8752 27.3837 21.8733 27.3833 21.8717C27.3864 21.8721 27.3896 21.8729 27.3932 21.8725C27.3904 21.8741 27.3872 21.8752 27.3841 21.8768ZM27.2126 21.7836C27.2198 21.7793 27.227 21.7761 27.2333 21.7737C27.227 21.7765 27.2202 21.7797 27.2126 21.7836ZM25.4746 21.5234C25.4738 21.5226 25.4738 21.5215 25.473 21.5207C25.4738 21.5207 25.4742 21.5207 25.475 21.5203C25.475 21.5215 25.475 21.5222 25.4746 21.5234ZM27.5173 22.3849C27.5169 22.3853 27.5169 22.3849 27.5169 22.3849H27.5173ZM27.6036 22.2711C27.6036 22.2683 27.604 22.2659 27.604 22.2632C27.6052 22.2655 27.6064 22.2675 27.6076 22.2699C27.6064 22.2703 27.6052 22.2707 27.6036 22.2711ZM27.1168 21.7491C27.1136 21.7511 27.1096 21.7503 27.1056 21.7503C27.1096 21.7483 27.1132 21.7436 27.1168 21.7491ZM28.03 25.0781C28.0292 25.0804 28.0284 25.0828 28.0276 25.0852C28.022 25.0808 28.0161 25.0781 28.0093 25.0765C28.0164 25.0769 28.0232 25.0777 28.03 25.0781ZM27.6358 21.6765C27.6358 21.6781 27.6354 21.6797 27.6354 21.6809C27.6287 21.6769 27.6239 21.6698 27.6358 21.6765ZM24.0161 24.5668C24.0157 24.5664 24.0157 24.5664 24.0153 24.566C24.0157 24.566 24.0161 24.566 24.0165 24.566C24.0161 24.566 24.0161 24.5664 24.0161 24.5668ZM29.1595 25.2074C29.1587 25.2074 29.1579 25.2066 29.1575 25.207C29.1583 25.2058 29.1591 25.2046 29.1599 25.2038C29.1599 25.205 29.1595 25.2062 29.1595 25.2074ZM25.8421 19.313C25.8413 19.3134 25.8409 19.3138 25.8401 19.3146C25.8393 19.3102 25.8385 19.3063 25.8369 19.3027C25.8421 19.3059 25.848 19.3051 25.8421 19.313ZM26.1606 19.3761C26.1606 19.3757 26.1606 19.3757 26.1606 19.3753C26.1618 19.3753 26.1618 19.3753 26.1606 19.3761ZM26.0819 26.6265C26.0807 26.6273 26.0795 26.6281 26.0783 26.6289C26.0779 26.6281 26.0779 26.6273 26.0775 26.6265C26.0787 26.6265 26.0803 26.6265 26.0819 26.6265ZM28.8871 21.4167C28.8851 21.4183 28.8823 21.4175 28.8803 21.4179C28.8819 21.4156 28.8847 21.4163 28.8871 21.4167ZM27.6271 19.6402C27.6267 19.6402 27.6267 19.6398 27.6263 19.6398L27.6267 19.6394C27.6271 19.6398 27.6271 19.6402 27.6271 19.6402ZM24.3327 17.0323C24.3295 17.0316 24.3263 17.0304 24.3231 17.0292C24.3275 17.0256 24.3299 17.0284 24.3327 17.0323ZM24.9694 25.5564C24.9671 25.556 24.9615 25.5564 24.9619 25.554C24.9643 25.5548 24.9667 25.5556 24.9694 25.5564ZM22.2585 13.2826C22.2613 13.2794 22.2637 13.2762 22.2669 13.2727C22.2653 13.2794 22.2673 13.2865 22.2585 13.2826ZM21.1457 16.6472C21.1437 16.6436 21.1421 16.6405 21.1401 16.6369C21.1425 16.6361 21.1441 16.6349 21.1465 16.6341C21.1461 16.6385 21.1457 16.6425 21.1457 16.6472ZM26.795 17.4314C26.795 17.4337 26.7966 17.4373 26.795 17.4389C26.7946 17.4361 26.7942 17.4337 26.7942 17.431C26.7938 17.431 26.7946 17.4314 26.795 17.4314ZM26.7517 25.9927C26.7521 25.9943 26.7521 25.9959 26.7525 25.9975C26.7509 25.9971 26.7493 25.9967 26.7477 25.9963C26.7489 25.9951 26.7501 25.9939 26.7517 25.9927ZM26.9127 24.9166C26.9131 24.921 26.9131 24.925 26.9135 24.9293C26.912 24.9289 26.91 24.9285 26.9084 24.9285C26.9096 24.9246 26.9112 24.9206 26.9127 24.9166ZM29.3031 25.8329C29.3027 25.8325 29.3023 25.8321 29.3019 25.8317C29.3023 25.8313 29.3027 25.8313 29.3035 25.8313C29.3035 25.8317 29.3031 25.8325 29.3031 25.8329ZM29.4137 13.7129C29.4145 13.7129 29.4149 13.7129 29.4157 13.7129C29.4157 13.7133 29.4157 13.7133 29.4157 13.7137C29.4153 13.7133 29.4145 13.7129 29.4137 13.7129ZM21.1938 23.4166C21.193 23.4162 21.1926 23.4154 21.1918 23.415C21.1926 23.4142 21.1938 23.4134 21.1946 23.4122C21.1946 23.4138 21.1942 23.415 21.1938 23.4166ZM20.5976 24.1694C20.5984 24.1698 20.5992 24.1706 20.6004 24.171C20.5996 24.171 20.5984 24.1714 20.5976 24.1718C20.5976 24.171 20.5976 24.1702 20.5976 24.1694ZM30.0978 22.0652C30.0978 22.0648 30.0978 22.0648 30.0978 22.0652V22.0652ZM22.5449 11.4097C22.5441 11.4089 22.5437 11.4081 22.5429 11.4073C22.5437 11.4069 22.5445 11.4065 22.5453 11.4061C22.5449 11.4073 22.5449 11.4085 22.5449 11.4097ZM20.9953 22.9807C20.9933 22.9799 20.9945 22.9791 20.9953 22.9779C20.9953 22.9791 20.9953 22.9799 20.9953 22.9807ZM30.0142 20.7206C30.0142 20.7159 30.0142 20.7111 30.0142 20.706C30.017 20.708 30.0194 20.7099 30.0222 20.7119C30.0198 20.7147 30.0174 20.7179 30.0142 20.7206ZM28.9829 20.5636C28.9837 20.562 28.9849 20.5608 28.9857 20.5596C28.9857 20.5616 28.9853 20.5636 28.9829 20.5636ZM20.2814 23.3801C20.2802 23.3793 20.2794 23.3785 20.2798 23.3773C20.2802 23.3781 20.2806 23.3789 20.2814 23.3801ZM29.3373 25.9812C29.3373 25.9812 29.3377 25.9824 29.3381 25.9836C29.3373 25.9832 29.3365 25.9832 29.3357 25.9828C29.3365 25.9824 29.3369 25.9816 29.3373 25.9812ZM30.9923 15.5136C30.9871 15.5148 30.9823 15.5164 30.9779 15.5184C30.9823 15.5073 30.9879 15.4962 30.9946 15.4855C30.9939 15.4946 30.9935 15.5041 30.9923 15.5136ZM29.6579 13.049C29.6543 13.0482 29.6507 13.047 29.6467 13.0462C29.6503 13.039 29.6539 13.0319 29.6579 13.0244C29.6575 13.0331 29.6579 13.041 29.6579 13.049ZM21.6313 12.6004C21.6313 12.5992 21.6313 12.5976 21.6313 12.5964C21.6325 12.5968 21.6333 12.5972 21.6345 12.5976C21.6333 12.5984 21.6325 12.5996 21.6313 12.6004ZM20.7177 22.9117C20.7117 22.9093 20.7137 22.9061 20.7165 22.9017C20.7173 22.9049 20.7173 22.9081 20.7177 22.9117ZM28.7817 26.7891C28.7789 26.7872 28.7757 26.7852 28.7729 26.7836C28.7753 26.7824 28.7781 26.7808 28.7809 26.78C28.7805 26.78 28.7817 26.7891 28.7817 26.7891ZM29.6615 10.9769C29.6583 10.9781 29.6583 10.9761 29.6587 10.9738C29.6595 10.975 29.6603 10.9761 29.6615 10.9769ZM29.6583 11.1324C29.6591 11.1328 29.6599 11.1336 29.6607 11.134C29.6599 11.1348 29.6591 11.1356 29.6579 11.1364C29.6583 11.1352 29.6583 11.1336 29.6583 11.1324ZM29.4264 9.55818C29.4252 9.55342 29.4244 9.54826 29.4236 9.54311C29.4332 9.54509 29.4288 9.55104 29.4264 9.55818ZM29.3723 9.73349C29.3731 9.73587 29.3735 9.73825 29.3739 9.74023C29.3719 9.74023 29.3699 9.74023 29.3683 9.73984C29.3695 9.73786 29.3711 9.73548 29.3723 9.73349ZM26.8567 27.555C26.8527 27.5697 26.8551 27.5824 26.8368 27.5773C26.8439 27.5693 26.8499 27.5626 26.8567 27.555ZM30.4482 20.2832C30.4513 20.2832 30.4537 20.2836 30.4525 20.2875C30.451 20.2863 30.4498 20.2843 30.4482 20.2832ZM29.3365 9.82472C29.3369 9.83067 29.3369 9.83701 29.3373 9.84296C29.3345 9.84217 29.3313 9.84177 29.329 9.84058C29.3317 9.83543 29.3341 9.82987 29.3365 9.82472ZM26.5878 12.8379C26.5898 12.8352 26.591 12.8328 26.593 12.83C26.5938 12.8316 26.595 12.8328 26.5962 12.8344C26.5934 12.8356 26.5906 12.8364 26.5878 12.8379ZM25.6834 11.0103C25.6826 11.0095 25.6814 11.0087 25.6806 11.0079C25.6822 11.0075 25.6838 11.0071 25.6854 11.0067C25.6846 11.0079 25.6838 11.0091 25.6834 11.0103ZM20.24 17.235C20.24 17.2334 20.2404 17.2319 20.2404 17.2303C20.2428 17.2319 20.2412 17.2334 20.24 17.235ZM20.24 17.235L20.2408 17.2354C20.2404 17.2358 20.2404 17.2358 20.24 17.2362C20.24 17.2358 20.24 17.2354 20.24 17.235ZM30.2942 26.6662C30.2942 26.667 30.2942 26.6674 30.2942 26.6682C30.2927 26.6678 30.2938 26.667 30.2942 26.6662ZM31.2062 25.671C31.2066 25.6738 31.207 25.677 31.207 25.6802C31.205 25.679 31.2031 25.6778 31.2011 25.6766C31.2027 25.675 31.2043 25.673 31.2062 25.671ZM31.2878 25.7547C31.2878 25.7555 31.2874 25.7559 31.2874 25.7567C31.287 25.7563 31.2866 25.7559 31.2862 25.7555C31.2866 25.7551 31.287 25.7547 31.2878 25.7547ZM22.6634 9.93538C22.6638 9.93816 22.6642 9.94093 22.6642 9.94371C22.6618 9.94054 22.6594 9.93776 22.6634 9.93538ZM20.4791 12.5512C20.4791 12.554 20.4791 12.5563 20.4787 12.5591C20.4751 12.5547 20.4723 12.5496 20.4691 12.5448C20.4723 12.5468 20.4755 12.5492 20.4791 12.5512ZM21.2539 19.6493C21.2531 19.6497 21.2523 19.6501 21.2515 19.6505C21.2519 19.6482 21.2527 19.6454 21.2531 19.643C21.2535 19.6454 21.2539 19.647 21.2539 19.6493ZM18.7696 19.8108C18.7696 19.8096 18.7696 19.8088 18.7696 19.8076C18.7708 19.808 18.7716 19.8084 18.7728 19.8088C18.7716 19.8092 18.7708 19.81 18.7696 19.8108ZM14.5167 17.7423C14.5171 17.7451 14.5171 17.7475 14.5175 17.7503C14.5159 17.7483 14.5151 17.7459 14.5135 17.7439C14.5147 17.7431 14.5155 17.7431 14.5167 17.7423ZM22.484 27.4551C22.4844 27.4551 22.4844 27.4551 22.4848 27.4551L22.4844 27.4555C22.4844 27.4555 22.484 27.4555 22.484 27.4551ZM31.1291 26.8641C31.1303 26.8601 31.1275 26.8522 31.1335 26.8534C31.1319 26.857 31.1303 26.8605 31.1291 26.8641ZM29.5839 8.21716C29.5839 8.21438 29.5835 8.21161 29.5831 8.20923C29.5851 8.21042 29.5875 8.21081 29.5899 8.21161C29.5879 8.21359 29.5863 8.21518 29.5839 8.21716ZM20.3963 12.3096C20.3856 12.2874 20.3896 12.2704 20.4095 12.2529C20.4043 12.2731 20.3999 12.2918 20.3963 12.3096ZM20.353 12.4877C20.353 12.4889 20.353 12.4901 20.353 12.4913C20.3518 12.4905 20.3506 12.4893 20.3494 12.4881C20.3506 12.4881 20.3518 12.4881 20.353 12.4877ZM17.6663 27.4999C17.6608 27.4991 17.6552 27.4991 17.6584 27.492C17.6608 27.4944 17.6635 27.4971 17.6663 27.4999ZM30.9994 25.8971C31.003 25.8896 31.0066 25.882 31.0102 25.8749C31.0169 25.8797 31.0213 25.8852 31.0249 25.8912C31.0157 25.8928 31.0074 25.8947 30.9994 25.8971ZM24.9126 10.5946C24.9054 10.593 24.8982 10.5906 24.8923 10.5859C24.899 10.5886 24.9058 10.5918 24.9126 10.5946ZM21.4046 8.79307C21.4022 8.79585 21.4002 8.79823 21.3978 8.80101C21.3962 8.79466 21.3978 8.79188 21.4046 8.79307ZM14.4455 12.504C14.4467 12.5068 14.4479 12.5095 14.4491 12.5123C14.4459 12.5127 14.4431 12.5135 14.4407 12.5147C14.4423 12.5111 14.4439 12.5075 14.4455 12.504ZM14.4288 15.9214C14.4065 15.9079 14.4061 15.9 14.4141 15.8777C14.4169 15.8924 14.4217 15.9071 14.4288 15.9214ZM14.3612 19.2888C14.362 19.288 14.3624 19.2872 14.3632 19.2864C14.3636 19.2868 14.3636 19.2872 14.364 19.2876C14.3632 19.288 14.3624 19.2884 14.3612 19.2888ZM14.4157 20.3669C14.4157 20.3676 14.4161 20.368 14.4161 20.3688C14.4121 20.368 14.4085 20.3672 14.4046 20.3653C14.4085 20.3661 14.4121 20.3665 14.4157 20.3669Z" fill="white"/>
<defs>
<linearGradient id="paint0_linear_445_9421" x1="24" y1="0" x2="24" y2="36" gradientUnits="userSpaceOnUse">
<stop stop-color="#326CC3"/>
<stop offset="1" stop-color="#62EAA9"/>
</linearGradient>
</defs>
</svg>
