<svg width="12" height="12" viewBox="0 0 12 12" fill="none" xmlns="http://www.w3.org/2000/svg">
<g id="shop-cart-svgrepo-com 1" clip-path="url(#clip0_484_768)">
<g id="shop-cart">
<g id="Group">
<path id="Vector" d="M4.5 11.5C5.05228 11.5 5.5 11.0523 5.5 10.5C5.5 9.94772 5.05228 9.5 4.5 9.5C3.94772 9.5 3.5 9.94772 3.5 10.5C3.5 11.0523 3.94772 11.5 4.5 11.5Z" fill="#EEEDFF"/>
</g>
<g id="Group_2">
<path id="Vector_2" d="M9.5 11.5C10.0523 11.5 10.5 11.0523 10.5 10.5C10.5 9.94772 10.0523 9.5 9.5 9.5C8.94772 9.5 8.5 9.94772 8.5 10.5C8.5 11.0523 8.94772 11.5 9.5 11.5Z" fill="#EEEDFF"/>
</g>
<g id="Group_3">
<path id="Vector_3" d="M10.5 9H3.6L1.6 1H0V0H2.4L2.8 1.5H12L10.4 7H4.15L4.4 8H10.5V9ZM3.9 6H9.65L10.65 2.5H3L3.9 6Z" fill="#EEEDFF"/>
</g>
</g>
</g>
<defs>
<clipPath id="clip0_484_768">
<rect width="12" height="12" fill="white"/>
</clipPath>
</defs>
</svg>
