<svg width="14" height="16" viewBox="0 0 14 16" fill="none" xmlns="http://www.w3.org/2000/svg">
<g id="Group 1261159485">
<path id="Vector" fill-rule="evenodd" clip-rule="evenodd" d="M12.5366 0H1.25281C0.338059 0 0 0.338059 0 1.25281V12.2951C0 12.3974 0.00284083 12.494 0.0142042 12.5849C0.03409 12.7838 0.0397719 12.9769 0.224426 13.1985C0.241471 13.2212 0.431807 13.3604 0.431807 13.3604C0.534077 13.4116 0.602257 13.4485 0.718731 13.494L6.2754 15.8206C6.56517 15.9541 6.68448 16.0053 6.8947 15.9996C7.10493 16.0024 7.22424 15.9513 7.51401 15.8206L13.0707 13.494C13.1872 13.4485 13.2553 13.4116 13.3576 13.3604C13.3576 13.3604 13.5479 13.2184 13.565 13.1985C13.7496 12.9769 13.7553 12.7838 13.7752 12.5849C13.7837 12.4968 13.7894 12.4002 13.7894 12.2951V1.25281C13.7894 0.338059 13.4514 0 12.5366 0Z" fill="white"/>
<g id="Group">
<path id="Vector_2" d="M2.97565 5.5629H4.07221V4.71065H2.97565V2.97774H4.11767V2.12549H2.04102V8.26169H4.13471V7.41228H2.97565V5.5629Z" fill="#333333"/>
<path id="Vector_3" d="M10.8459 5.74458V7.12806C10.8459 7.37237 10.7323 7.48601 10.4965 7.48601H10.3232C10.0789 7.48601 9.96527 7.37237 9.96527 7.12806V3.25601C9.96527 3.01169 10.0789 2.89806 10.3232 2.89806H10.4795C10.7153 2.89806 10.8289 3.01169 10.8289 3.25601V4.45768H11.7436V3.20487C11.7436 2.44353 11.3772 2.07422 10.6187 2.07422H10.1641C9.40563 2.07422 9.03064 2.45205 9.03064 3.21339V7.17352C9.03064 7.93486 9.40563 8.31269 10.1641 8.31269H10.6272C11.3857 8.31269 11.7607 7.93486 11.7607 7.17352V5.74458H10.8459Z" fill="#333333"/>
<path id="Vector_4" d="M8.5401 2.12549H7.60547V8.26169H8.5401V2.12549Z" fill="#333333"/>
<path id="Vector_5" d="M6.04729 2.12549H4.58142V8.26169H5.51321V6.03448H6.04445C6.80295 6.03448 7.17794 5.65665 7.17794 4.8953V3.26466C7.18078 2.50332 6.80579 2.12549 6.04729 2.12549ZM6.24899 4.85269C6.24899 5.097 6.13536 5.21347 5.89957 5.21347H5.51606V2.95217H5.89957C6.13536 2.95217 6.24899 3.0658 6.24899 3.31012V4.85269Z" fill="#333333"/>
</g>
<path id="Vector_6" fill-rule="evenodd" clip-rule="evenodd" d="M4.24219 13.8066H9.5858L6.8586 14.7072L4.24219 13.8066Z" fill="#333333"/>
<g id="Group_2">
<path id="Vector_7" d="M12.9108 15.5174C12.9108 15.2588 13.1068 15.0628 13.3511 15.0628C13.5982 15.0628 13.7914 15.2588 13.7914 15.5174C13.7914 15.7759 13.5954 15.9719 13.3511 15.9719C13.1068 15.9719 12.9108 15.7759 12.9108 15.5174ZM13.7119 15.5174C13.7119 15.3043 13.5528 15.1395 13.3511 15.1395C13.1494 15.1395 12.9903 15.3043 12.9903 15.5174C12.9903 15.7304 13.1494 15.8952 13.3511 15.8952C13.5528 15.8952 13.7119 15.7304 13.7119 15.5174ZM13.1721 15.2816H13.3823C13.4846 15.2816 13.5471 15.3355 13.5471 15.4236C13.5471 15.5032 13.5017 15.5543 13.4363 15.5685L13.5471 15.7162V15.7475H13.4733L13.3483 15.577H13.2545V15.7475H13.175V15.2816H13.1721ZM13.3823 15.5088C13.4335 15.5088 13.4704 15.4833 13.4704 15.4321C13.4704 15.381 13.4335 15.3583 13.3823 15.3583H13.2517V15.5088H13.3823Z" fill="white"/>
</g>
<g id="Group_3">
<path id="Vector_8" d="M3.00398 11.6484C2.8591 11.6484 2.72558 11.6257 2.60342 11.5774C2.48127 11.5291 2.37331 11.4637 2.28525 11.3785C2.19718 11.2933 2.12332 11.191 2.07219 11.0745C2.02105 10.9581 1.99548 10.8274 1.99548 10.6882V10.6825C1.99548 10.5462 2.02105 10.4183 2.07219 10.3018C2.12332 10.1854 2.1915 10.0831 2.27957 9.99503C2.36763 9.90697 2.47274 9.83879 2.5949 9.79049C2.71706 9.7422 2.85057 9.71663 2.99262 9.71663C3.15738 9.71663 3.29943 9.73936 3.41874 9.78765C3.53806 9.83594 3.64601 9.90128 3.74544 9.98651L3.44431 10.3501C3.37613 10.2933 3.30795 10.2507 3.23977 10.2195C3.16875 10.1882 3.08921 10.174 2.9983 10.174C2.93012 10.174 2.86762 10.1882 2.8108 10.2138C2.75399 10.2393 2.70285 10.2763 2.66024 10.3217C2.61763 10.3672 2.58354 10.4212 2.56081 10.4837C2.53524 10.5462 2.52388 10.6115 2.52388 10.6825V10.6882C2.52388 10.7621 2.53524 10.8302 2.56081 10.8956C2.58638 10.9581 2.62047 11.0149 2.66592 11.0603C2.71137 11.1058 2.76251 11.1399 2.82501 11.1655C2.88466 11.191 2.95285 11.2052 3.02671 11.2052C3.14602 11.2052 3.24545 11.1797 3.32215 11.1285V10.9041H2.95569V10.5263H3.80794V11.3643C3.70851 11.4467 3.59203 11.5149 3.45851 11.5689C3.32499 11.6228 3.17443 11.6484 3.00398 11.6484Z" fill="#333333"/>
<path id="Vector_9" d="M4.76183 9.73645H5.25614L6.04589 11.6086H5.49477L5.35841 11.2762H4.64252L4.509 11.6086H3.96924L4.76183 9.73645ZM5.21068 10.8785L5.0033 10.3501L4.79308 10.8785H5.21068Z" fill="#333333"/>
<path id="Vector_10" d="M6.22388 9.75093H6.76648L7.20965 10.4697L7.65282 9.75093H8.19542V11.6117H7.68407V10.5435L7.20965 11.2708H7.19828L6.7267 10.5492V11.6117H6.22388V9.75093Z" fill="#333333"/>
<path id="Vector_11" d="M8.53699 9.75093H10.0284V10.1884H9.0455V10.4697H9.93468V10.8759H9.0455V11.1713H10.0398V11.6088H8.53699V9.75093Z" fill="#333333"/>
<path id="Vector_12" d="M11.0474 11.6451C10.8826 11.6451 10.7235 11.6196 10.5758 11.5684C10.4281 11.5173 10.2945 11.4406 10.1809 11.3383L10.4678 10.9946C10.6525 11.1423 10.8542 11.219 11.0701 11.219C11.1383 11.219 11.1922 11.2076 11.2263 11.1849C11.2633 11.1622 11.2803 11.1309 11.2803 11.0912V11.0826C11.2803 11.0628 11.2746 11.0457 11.2661 11.0315C11.2576 11.0173 11.2405 11.0031 11.2178 10.9889C11.1951 10.9747 11.161 10.9605 11.1212 10.9491C11.0815 10.9349 11.0303 10.9236 10.965 10.9094C10.8655 10.8866 10.7746 10.8611 10.6894 10.8327C10.6042 10.8042 10.5303 10.7702 10.4678 10.7275C10.4053 10.6849 10.357 10.631 10.3201 10.5656C10.2832 10.5003 10.2661 10.4207 10.2661 10.3241V10.3156C10.2661 10.2276 10.2832 10.148 10.3144 10.077C10.3457 10.0031 10.394 9.94063 10.4565 9.8895C10.519 9.83552 10.5957 9.79575 10.6837 9.76734C10.7718 9.73894 10.8712 9.72473 10.982 9.72473C11.1411 9.72473 11.2832 9.74462 11.4081 9.78723C11.5331 9.82984 11.6439 9.8895 11.7462 9.97188L11.4905 10.3355C11.4053 10.2759 11.3201 10.2304 11.2292 10.1992C11.1411 10.1679 11.053 10.1537 10.9707 10.1537C10.9082 10.1537 10.8627 10.1651 10.8315 10.1878C10.8002 10.2105 10.786 10.2389 10.786 10.273V10.2787C10.786 10.2986 10.7917 10.3185 10.8002 10.3355C10.8087 10.3526 10.8258 10.3668 10.8513 10.3781C10.8741 10.3923 10.9082 10.4037 10.9479 10.4179C10.9905 10.4321 11.0417 10.4463 11.1042 10.4577C11.2093 10.4804 11.3059 10.5088 11.3911 10.5401C11.4763 10.5713 11.5502 10.6082 11.6098 10.6537C11.6695 10.6991 11.715 10.7503 11.7462 10.8156C11.7775 10.8781 11.7945 10.952 11.7945 11.04V11.0457C11.7945 11.1423 11.7775 11.2275 11.7405 11.3014C11.7036 11.3753 11.6525 11.4378 11.5871 11.4917C11.5218 11.5429 11.4422 11.5826 11.3513 11.611C11.2633 11.6309 11.161 11.6451 11.0474 11.6451Z" fill="#333333"/>
</g>
</g>
</svg>
