<svg width="13" height="14" viewBox="0 0 13 14" fill="none" xmlns="http://www.w3.org/2000/svg">
<path id="Icon" d="M0.5 13C0.5 13.2761 0.723858 13.5 1 13.5C1.27614 13.5 1.5 13.2761 1.5 13H0.5ZM6.26253 8.87555C6.53589 8.91466 6.78919 8.72475 6.8283 8.45139C6.8674 8.17803 6.67749 7.92473 6.40413 7.88563L6.26253 8.87555ZM9.97783 10.6464C9.78257 10.8417 9.78257 11.1583 9.97783 11.3536C10.1731 11.5488 10.4897 11.5488 10.6849 11.3536L9.97783 10.6464ZM8.55582 8.87537C8.48699 9.1428 8.64798 9.41539 8.91541 9.48422C9.18284 9.55305 9.45543 9.39206 9.52426 9.12463L8.55582 8.87537ZM10.3314 12.5C10.0552 12.5 9.83138 12.7239 9.83138 13C9.83138 13.2761 10.0552 13.5 10.3314 13.5V12.5ZM10.338 13.5C10.6142 13.5 10.838 13.2761 10.838 13C10.838 12.7239 10.6142 12.5 10.338 12.5V13.5ZM7.83333 3.66667C7.83333 4.86328 6.86328 5.83333 5.66667 5.83333V6.83333C7.41557 6.83333 8.83333 5.41557 8.83333 3.66667H7.83333ZM5.66667 5.83333C4.47005 5.83333 3.5 4.86328 3.5 3.66667H2.5C2.5 5.41557 3.91776 6.83333 5.66667 6.83333V5.83333ZM3.5 3.66667C3.5 2.47005 4.47005 1.5 5.66667 1.5V0.5C3.91776 0.5 2.5 1.91776 2.5 3.66667H3.5ZM5.66667 1.5C6.86328 1.5 7.83333 2.47005 7.83333 3.66667H8.83333C8.83333 1.91776 7.41557 0.5 5.66667 0.5V1.5ZM1.5 13C1.5 10.6988 3.36548 8.83333 5.66667 8.83333V7.83333C2.8132 7.83333 0.5 10.1465 0.5 13H1.5ZM5.66667 8.83333C5.86925 8.83333 6.06818 8.84775 6.26253 8.87555L6.40413 7.88563C6.16302 7.85114 5.91678 7.83333 5.66667 7.83333V8.83333ZM11.1647 9.33333C11.1647 9.51197 11.1003 9.64052 10.9008 9.83304C10.7927 9.93738 10.6658 10.0406 10.5012 10.1775C10.343 10.3091 10.1616 10.4627 9.97783 10.6464L10.6849 11.3536C10.8345 11.204 10.9864 11.0746 11.1407 10.9463C11.2887 10.8232 11.4534 10.6895 11.5953 10.5526C11.8958 10.2625 12.1647 9.89108 12.1647 9.33333H11.1647ZM10.3314 8.5C10.7916 8.5 11.1647 8.8731 11.1647 9.33333H12.1647C12.1647 8.32081 11.3439 7.5 10.3314 7.5V8.5ZM9.52426 9.12463C9.61679 8.7651 9.94375 8.5 10.3314 8.5V7.5C9.47642 7.5 8.75931 8.08475 8.55582 8.87537L9.52426 9.12463ZM10.3314 13.5H10.338V12.5H10.3314V13.5Z" fill="#EEEDFF"/>
</svg>
