<svg width="14" height="14" viewBox="0 0 14 14" fill="none" xmlns="http://www.w3.org/2000/svg">
<path id="Icon" d="M5.94212 1.70373H3.25925C2.46844 1.70373 2.07303 1.70373 1.77098 1.85764C1.50529 1.99301 1.28928 2.20903 1.1539 2.47472C1 2.77677 1 3.17217 1 3.96299V10.7407C1 11.5316 1 11.927 1.1539 12.229C1.28928 12.4947 1.50529 12.7107 1.77098 12.8461C2.07303 13 2.46844 13 3.25925 13H10.037C10.8278 13 11.2232 13 11.5253 12.8461C11.791 12.7107 12.007 12.4947 12.1424 12.229C12.2963 11.927 12.2963 11.5316 12.2963 10.7407V7.70488M9.11919 2.76276L11.1161 4.75968M5.77461 6.10734L10.4684 1.41358C11.0198 0.862142 11.9139 0.862141 12.4653 1.41357C13.0167 1.96501 13.0167 2.85906 12.4653 3.41049L7.62063 8.25516C7.08289 8.79289 6.81403 9.06176 6.50778 9.27558C6.23594 9.46536 5.94277 9.62259 5.63428 9.74401C5.28672 9.88081 4.914 9.95602 4.16855 10.1064L3.82407 10.1759L3.85757 9.94142C3.97612 9.11159 4.03539 8.69668 4.17022 8.3093C4.28986 7.96557 4.4533 7.63869 4.6565 7.33673C4.8855 6.99645 5.18187 6.70008 5.77461 6.10734Z" stroke="#EEEDFF" stroke-linecap="round" stroke-linejoin="round"/>
</svg>
