<svg width="14" height="13" viewBox="0 0 14 13" fill="none" xmlns="http://www.w3.org/2000/svg">
<path id="Icon" d="M11 3.66667V3.13333C11 2.3866 11 2.01323 10.8547 1.72801C10.7268 1.47713 10.5229 1.27316 10.272 1.14532C9.98677 1 9.6134 1 8.86667 1H3.13333C2.3866 1 2.01323 1 1.72801 1.14532C1.47713 1.27316 1.27316 1.47713 1.14532 1.72801C1 2.01323 1 2.3866 1 3.13333V3.66667M13 6.33333H11.6667C10.9303 6.33333 10.3333 6.93029 10.3333 7.66667C10.3333 8.40305 10.9303 9 11.6667 9H13M1 3.66667V9.53333C1 10.2801 1 10.6534 1.14532 10.9387C1.27316 11.1895 1.47713 11.3935 1.72801 11.5213C2.01323 11.6667 2.3866 11.6667 3.13333 11.6667H10.8667C11.6134 11.6667 11.9868 11.6667 12.272 11.5213C12.5229 11.3935 12.7268 11.1895 12.8547 10.9387C13 10.6534 13 10.2801 13 9.53333V5.8C13 5.05326 13 4.6799 12.8547 4.39468C12.7268 4.1438 12.5229 3.93982 12.272 3.81199C11.9868 3.66667 11.6134 3.66667 10.8667 3.66667H1Z" stroke="#EEEDFF" stroke-linecap="round" stroke-linejoin="round"/>
</svg>
