<svg width="56" height="56" viewBox="0 0 56 56" fill="none" xmlns="http://www.w3.org/2000/svg">
<g filter="url(#filter0_d_2386_8641)">
<circle cx="28" cy="24" r="18" fill="#374157" fill-opacity="0.8" shape-rendering="crispEdges"/>
</g>
<path d="M23.4141 22.1931C23.8462 22.1667 24.3789 22.1667 25.0641 22.1667H30.9307C31.6159 22.1667 32.1486 22.1667 32.5807 22.1931M23.4141 22.1931C22.8748 22.226 22.4922 22.3 22.1656 22.4664C21.6481 22.7301 21.2274 23.1507 20.9638 23.6682C20.6641 24.2564 20.6641 25.0265 20.6641 26.5667V27.85C20.6641 29.3901 20.6641 30.1602 20.9638 30.7485C21.2274 31.2659 21.6481 31.6866 22.1656 31.9503C22.7538 32.25 23.5239 32.25 25.0641 32.25H30.9307C32.4709 32.25 33.2409 32.25 33.8292 31.9503C34.3466 31.6866 34.7673 31.2659 35.031 30.7485C35.3307 30.1602 35.3307 29.3901 35.3307 27.85V26.5667C35.3307 25.0265 35.3307 24.2564 35.031 23.6682C34.7673 23.1507 34.3466 22.7301 33.8292 22.4664C33.5026 22.3 33.12 22.226 32.5807 22.1931M23.4141 22.1931V20.3333C23.4141 17.802 25.4661 15.75 27.9974 15.75C30.5287 15.75 32.5807 17.802 32.5807 20.3333V22.1931" stroke="white" stroke-width="2" stroke-linecap="round" stroke-linejoin="round"/>
<defs>
<filter id="filter0_d_2386_8641" x="0" y="0" width="56" height="56" filterUnits="userSpaceOnUse" color-interpolation-filters="sRGB">
<feFlood flood-opacity="0" result="BackgroundImageFix"/>
<feColorMatrix in="SourceAlpha" type="matrix" values="0 0 0 0 0 0 0 0 0 0 0 0 0 0 0 0 0 0 127 0" result="hardAlpha"/>
<feOffset dy="4"/>
<feGaussianBlur stdDeviation="5"/>
<feComposite in2="hardAlpha" operator="out"/>
<feColorMatrix type="matrix" values="0 0 0 0 0.466667 0 0 0 0 0.513726 0 0 0 0 0.611765 0 0 0 1 0"/>
<feBlend mode="normal" in2="BackgroundImageFix" result="effect1_dropShadow_2386_8641"/>
<feBlend mode="normal" in="SourceGraphic" in2="effect1_dropShadow_2386_8641" result="shape"/>
</filter>
</defs>
</svg>
