<svg width="18" height="18" viewBox="0 0 18 18" fill="none" xmlns="http://www.w3.org/2000/svg">
<g id="Group 1261162457">
<path id="Vector" d="M8.53035 5.70583H8.5397M11.3539 15.1176L13.2362 17L17.0009 13.2353M5.86759 11.3529C6.25521 10.2563 7.30114 9.47055 8.53052 9.47055C9.7599 9.47055 10.8058 10.2563 11.1934 11.3529M16.0587 9.47055V4.01172C16.0587 2.95755 16.0587 2.43044 15.8536 2.02778C15.6732 1.6736 15.3851 1.38563 15.031 1.20516C14.6284 1 14.1012 1 13.047 1H4.01174C2.95754 1 2.43043 1 2.02778 1.20516C1.67359 1.38563 1.38562 1.6736 1.20516 2.02778C1 2.43044 1 2.95755 1 4.01172V13.047C1 14.1012 1 14.6283 1.20516 15.031C1.38562 15.3852 1.67359 15.6731 2.02778 15.8537C2.43043 16.0588 2.95754 16.0588 4.01174 16.0588H7.58914M9.47146 5.70583C9.47146 6.22571 9.05014 6.64703 8.53035 6.64703C8.01047 6.64703 7.58914 6.22571 7.58914 5.70583C7.58914 5.18604 8.01047 4.76471 8.53035 4.76471C9.05014 4.76471 9.47146 5.18604 9.47146 5.70583Z" stroke="#F7F7FC" stroke-width="1.5" stroke-linecap="round" stroke-linejoin="round"/>
</g>
</svg>
