<svg width="36" height="36" viewBox="0 0 36 36" fill="none" xmlns="http://www.w3.org/2000/svg">
<path d="M4.5 4.5L31.5 31.5M14.0662 5.34488C15.2807 4.79406 16.6241 4.5 18 4.5C20.3869 4.5 22.6761 5.385 24.364 6.9603C26.0518 8.53561 27 10.6722 27 12.9C27 15.5349 27.4337 17.6638 28.068 19.3683M25.5 25.5H22.5M9.68008 9.69676C9.23529 10.7031 9 11.7902 9 12.9C9 16.9293 7.98571 19.7753 6.79118 21.7299C5.63424 23.6229 5.05577 24.5695 5.07727 24.8153C5.10143 25.0916 5.15594 25.1888 5.37904 25.3534C5.57762 25.5 6.52144 25.5 8.40908 25.5H13.5M13.5 25.5V27C13.5 29.4853 15.5147 31.5 18 31.5C20.4853 31.5 22.5 29.4853 22.5 27V25.5M13.5 25.5H22.5" stroke="#EEEDFF" stroke-width="3" stroke-linecap="round" stroke-linejoin="round"/>
</svg>
