<svg width="12" height="12" viewBox="0 0 12 12" fill="none" xmlns="http://www.w3.org/2000/svg">
<g id="Frame 1261152722">
<g id="Arrow---Left-Circle">
<path id="Vector" d="M6.87098 8.38537L6.87098 8.38538L6.86997 8.38639C6.62944 8.62692 6.30208 8.76514 5.95679 8.76514C5.61149 8.76514 5.28413 8.62692 5.0436 8.38639L5.04259 8.38537L1.38436 4.70606C1.11858 4.45375 1.00088 4.11831 1.00088 3.79867C1.00088 3.46557 1.12018 3.13439 1.37963 2.87494L1.37958 2.87488L1.38567 2.86899C1.89289 2.37868 2.70383 2.36924 3.20896 2.88848L5.95679 5.64564L8.70461 2.88848C9.20665 2.37249 10.0324 2.37344 10.5339 2.87494C11.0413 3.3823 11.0513 4.19708 10.5319 4.70339L6.87098 8.38537Z" fill="#B8B8E0" stroke="#B8B8E0"/>
</g>
</g>
</svg>
