<svg width="24" height="24" viewBox="0 0 24 24" fill="none" xmlns="http://www.w3.org/2000/svg">
<path d="M22 7.99995H20M20 7.99995H19C17 6.00173 14 3.99974 12 5.99995M20 7.99995V15.9999M12 5.99995L8.99956 9.00158C8.9202 9.08097 8.88052 9.12066 8.84859 9.1558C8.15499 9.91889 8.15528 11.0842 8.84927 11.847C8.88121 11.8821 8.92098 11.9218 9.00031 12.0011C9.07967 12.0804 9.11936 12.1201 9.15449 12.152C9.91743 12.8453 11.0824 12.8452 11.8451 12.1516C11.8802 12.1197 11.9199 12.08 11.9992 12.0007L12.9996 11.0003M12 5.99995C10 3.99974 7 6.0018 5 8.00001H4M2 8.00001H4M4 8.00001V15.9999M20 15.9999V18.9999H22M20 15.9999H17.1716M15 12.9999L16.5 14.4999C16.5796 14.5796 16.6195 14.6194 16.6515 14.6547C17.3449 15.4175 17.3449 16.5824 16.6515 17.3452C16.6195 17.3805 16.5796 17.4203 16.5 17.4999C16.4204 17.5795 16.3805 17.6194 16.3453 17.6515C15.5824 18.3449 14.4176 18.3449 13.6547 17.6515C13.6195 17.6194 13.5796 17.5795 13.5 17.4999L13 16.9999C12.4548 17.5452 12.1821 17.8178 11.888 17.9636C11.3285 18.2408 10.6715 18.2408 10.112 17.9636C9.81788 17.8178 9.54525 17.5452 9 16.9999C8.31085 17.9188 6.89563 17.7912 6.38197 16.7639L6 15.9999H4M4 15.9999V18.9999H2" stroke="#EEEDFF" stroke-width="2" stroke-linecap="round" stroke-linejoin="round"/>
</svg>
