<svg width="17" height="16" viewBox="0 0 17 16" fill="none" xmlns="http://www.w3.org/2000/svg">
<rect x="0.0957031" width="16" height="16" rx="8" fill="url(#paint0_linear_242_3668)"/>
<path d="M4.25188 8.13186L4.25815 10.4328L6.21322 11.5832V12.9303L3.11398 11.1126V7.45902L4.25188 8.13186ZM4.25188 5.83096V7.17176L3.11328 6.49822V5.15742L4.25188 4.48389L5.39605 5.15742L4.25188 5.83096ZM7.02969 5.15742L8.16829 4.48389L9.31246 5.15742L8.16829 5.83096L7.02969 5.15742Z" fill="white"/>
<path d="M5.07617 9.95584V8.60877L6.21477 9.28231V10.6231L5.07617 9.95584ZM7.03124 12.0657L8.16984 12.7392L9.31401 12.0657V13.4065L8.16984 14.08L7.03124 13.4065V12.0657ZM10.947 5.15742L12.0855 4.48389L13.2297 5.15742V6.49822L12.0855 7.17176V5.83096L10.947 5.15742ZM12.0855 10.4328L12.0918 8.13186L13.2304 7.45832V11.1119L10.1312 12.9296V11.5825L12.0855 10.4328Z" fill="white"/>
<path d="M11.2675 9.95596L10.1289 10.6232V9.28242L11.2675 8.60889V9.95596Z" fill="white"/>
<path d="M11.2691 6.30681L11.2754 7.65388L9.31471 8.80433V11.1108L8.17611 11.7781L7.03751 11.1108V8.80433L5.07687 7.65388V6.30681L6.22035 5.63327L8.16914 6.7893L10.1298 5.63327L11.274 6.30681H11.2691ZM5.07617 4.0066L8.16984 2.18262L11.2691 4.0066L10.1305 4.68014L8.16984 3.52411L6.21477 4.68014L5.07617 4.0066Z" fill="white"/>
<defs>
<linearGradient id="paint0_linear_242_3668" x1="16.0957" y1="16" x2="0.0957031" y2="0" gradientUnits="userSpaceOnUse">
<stop stop-color="#D1A000"/>
<stop offset="1" stop-color="#FFD632"/>
</linearGradient>
</defs>
</svg>
