<svg width="24" height="24" viewBox="0 0 24 24" fill="none" xmlns="http://www.w3.org/2000/svg">
<g clip-path="url(#clip0_616_5210)">
<path d="M12 24C18.6274 24 24 18.6274 24 12C24 5.37258 18.6274 0 12 0C5.37258 0 0 5.37258 0 12C0 18.6274 5.37258 24 12 24Z" fill="#00B2BB"/>
<path d="M0 12C0 18.6139 5.34653 23.9604 12 23.9604C18.6139 23.9604 23.9604 18.6139 23.9604 12" fill="#008DA1"/>
<path d="M12.0192 7.48923L14.1191 5.38867L12.0186 3.28871L9.91862 5.38927L12.0192 7.48923Z" fill="#EBFFF6"/>
<path d="M12 3.28711L14.099 5.38612L12 7.48513" fill="#D6EAE0"/>
<path d="M13.5843 19.287L10.416 21.0296V9.46523L13.5843 7.72266V19.287Z" fill="#EBFFF6"/>
<path d="M10.416 9.46523L13.5843 7.72266V19.1286" fill="#D6EAE0"/>
</g>
<defs>
<clipPath id="clip0_616_5210">
<rect width="24" height="24" fill="white"/>
</clipPath>
</defs>
</svg>
