<svg width="21" height="20" viewBox="0 0 21 20" fill="none" xmlns="http://www.w3.org/2000/svg">
<g clip-path="url(#clip0_242_3731)">
<path d="M17.5938 10C17.5938 14.1421 14.2359 17.5 10.0938 17.5C5.95161 17.5 2.59375 14.1421 2.59375 10C2.59375 5.85786 5.95161 2.5 10.0938 2.5C14.2359 2.5 17.5938 5.85786 17.5938 10Z" fill="#26264F" stroke="#00FECF" stroke-linecap="round" stroke-linejoin="round"/>
<path d="M17.5938 10C17.5938 14.1421 14.2359 17.5 10.0938 17.5C5.95161 17.5 2.59375 14.1421 2.59375 10C2.59375 5.85786 5.95161 2.5 10.0938 2.5C14.2359 2.5 17.5938 5.85786 17.5938 10Z" fill="#00FECF"/>
<path d="M6.75977 10.2778L8.81105 12.5L13.4264 7.5" stroke="#242240" stroke-linecap="round" stroke-linejoin="round"/>
</g>
<defs>
<clipPath id="clip0_242_3731">
<rect width="20" height="20" fill="white" transform="translate(0.09375)"/>
</clipPath>
</defs>
</svg>
