<svg width="32" height="32" viewBox="0 0 32 32" fill="none" xmlns="http://www.w3.org/2000/svg">
<g clip-path="url(#clip0_655_6022)">
<path d="M15.9993 31.3626C24.4838 31.3626 31.3618 24.4845 31.3618 16C31.3618 7.5155 24.4838 0.637451 15.9993 0.637451C7.51477 0.637451 0.636719 7.5155 0.636719 16C0.636719 24.4845 7.51477 31.3626 15.9993 31.3626Z" fill="#080B29"/>
<path d="M16 32C11.7262 32 7.7083 30.3357 4.68634 27.3137C1.66425 24.2917 0 20.2738 0 16C0 11.7262 1.66425 7.7083 4.68634 4.68634C7.7083 1.66425 11.7262 0 16 0C20.2738 0 24.2917 1.66425 27.3137 4.68634C30.3357 7.7083 32 11.7262 32 16C32 20.2738 30.3357 24.2917 27.3137 27.3137C24.2917 30.3357 20.2738 32 16 32ZM16 1.2749C7.88054 1.2749 1.2749 7.88054 1.2749 16C1.2749 24.1195 7.88054 30.7251 16 30.7251C24.1195 30.7251 30.7251 24.1195 30.7251 16C30.7251 7.88054 24.1195 1.2749 16 1.2749Z" fill="#64BFA3"/>
<path d="M27.5564 12.0478C27.3029 12.0478 27.0632 11.8955 26.9639 11.6456C25.7418 8.57147 23.2669 6.13705 20.1737 4.96656C19.8444 4.84201 19.6785 4.47401 19.8032 4.14476C19.9278 3.81558 20.2958 3.64946 20.625 3.77421C24.0524 5.07117 26.7946 7.76854 28.1486 11.1747C28.2787 11.5019 28.1189 11.8725 27.7917 12.0025C27.7145 12.0332 27.6348 12.0478 27.5564 12.0478Z" fill="#64BFA3"/>
<path d="M18.105 4.38451C18.0694 4.38451 18.0334 4.38151 17.9972 4.37526C17.3424 4.26377 16.6708 4.20717 16.0007 4.20717C15.6487 4.20717 15.3633 3.92172 15.3633 3.56972C15.3633 3.21772 15.6487 2.93227 16.0007 2.93227C16.7423 2.93227 17.4861 2.99493 18.2113 3.11859C18.5584 3.17775 18.7918 3.50699 18.7327 3.85402C18.6797 4.16484 18.41 4.38451 18.105 4.38451Z" fill="#64BFA3"/>
<path d="M16.284 30.9981C22.8576 30.6057 28.3614 26.2453 30.4336 20.2786L31.5 16L30.5 11.5L29 8L27 5L22 9.5L17 14L8 22.7141L4.5 26L10 30L16.284 30.9981Z" fill="white" fill-opacity="0.15"/>
<path d="M19.5235 11.689L15.6738 11.6761L16.2576 8L20.1074 8.01288L19.5235 11.689Z" fill="#64BFA3"/>
<path d="M15.42 13.2706L15.419 13.2767L13.5838 13.2706L13 16.9467L14.8352 16.9528L13.7654 23.6892L17.6151 23.7021L19.2697 13.2835L15.42 13.2706Z" fill="#64BFA3"/>
<path d="M20.1061 8.01291L16.5527 8.00101V11.6791L19.5223 11.689L20.1061 8.01291Z" fill="#5AAC93"/>
<path d="M19.2691 13.2834L16.5527 13.2744V23.6986L17.6144 23.7021L19.2691 13.2834Z" fill="#5AAC93"/>
</g>
<defs>
<clipPath id="clip0_655_6022">
<rect width="32" height="32" fill="white"/>
</clipPath>
</defs>
</svg>
