<svg width="21" height="20" viewBox="0 0 21 20" fill="none" xmlns="http://www.w3.org/2000/svg">
<g filter="url(#filter0_b_242_3689)">
<rect x="0.0957031" width="20" height="20" rx="6" fill="url(#paint0_linear_242_3689)"/>
<rect x="0.0957031" width="20" height="20" rx="6" fill="url(#paint1_linear_242_3689)"/>
</g>
<rect opacity="0.2" x="0.0957031" width="20" height="20" rx="6" fill="white"/>
<path d="M10.0937 14.9996C7.33233 14.9996 5.09375 12.7611 5.09375 9.99963C5.09375 8.71904 5.57517 7.55089 6.36691 6.6663L7.87153 4.99963M10.0937 4.99963C12.8552 4.99963 15.0937 7.23821 15.0937 9.99963C15.0937 11.2802 14.6123 12.4484 13.8206 13.333L12.316 14.9996M5.09375 4.99963H7.87153M7.87153 4.99963V7.77741M15.0937 14.9996H12.316M12.316 14.9996V12.2219" stroke="white" stroke-linecap="round" stroke-linejoin="round"/>
<defs>
<filter id="filter0_b_242_3689" x="-7.9043" y="-8" width="36" height="36" filterUnits="userSpaceOnUse" color-interpolation-filters="sRGB">
<feFlood flood-opacity="0" result="BackgroundImageFix"/>
<feGaussianBlur in="BackgroundImageFix" stdDeviation="4"/>
<feComposite in2="SourceAlpha" operator="in" result="effect1_backgroundBlur_242_3689"/>
<feBlend mode="normal" in="SourceGraphic" in2="effect1_backgroundBlur_242_3689" result="shape"/>
</filter>
<linearGradient id="paint0_linear_242_3689" x1="0.0957031" y1="0" x2="26.8538" y2="11.2647" gradientUnits="userSpaceOnUse">
<stop stop-color="white" stop-opacity="0.47"/>
<stop offset="1" stop-color="white" stop-opacity="0"/>
</linearGradient>
<linearGradient id="paint1_linear_242_3689" x1="20.0957" y1="19.4506" x2="2.31151" y2="-1.85001" gradientUnits="userSpaceOnUse">
<stop stop-color="#276E76"/>
<stop offset="1" stop-color="#60A9A4"/>
</linearGradient>
</defs>
</svg>
