<svg width="20" height="20" viewBox="0 0 20 20" fill="none" xmlns="http://www.w3.org/2000/svg">
<g filter="url(#filter0_b_734_1185)">
<rect width="20" height="20" rx="6" fill="url(#paint0_linear_734_1185)"/>
<rect width="20" height="20" rx="6" fill="url(#paint1_linear_734_1185)"/>
</g>
<rect opacity="0.2" width="20" height="20" rx="6" fill="white"/>
<path d="M9.99805 14.9995C7.23662 14.9995 4.99805 12.7609 4.99805 9.99951C4.99805 8.71892 5.47947 7.55077 6.2712 6.66618L7.77582 4.99951M9.99805 4.99951C12.7595 4.99951 14.998 7.23809 14.998 9.99951C14.998 11.2801 14.5166 12.4483 13.7249 13.3328L12.2203 14.9995M4.99805 4.99951H7.77582M7.77582 4.99951V7.77729M14.998 14.9995H12.2203M12.2203 14.9995V12.2217" stroke="white" stroke-linecap="round" stroke-linejoin="round"/>
<defs>
<filter id="filter0_b_734_1185" x="-8" y="-8" width="36" height="36" filterUnits="userSpaceOnUse" color-interpolation-filters="sRGB">
<feFlood flood-opacity="0" result="BackgroundImageFix"/>
<feGaussianBlur in="BackgroundImageFix" stdDeviation="4"/>
<feComposite in2="SourceAlpha" operator="in" result="effect1_backgroundBlur_734_1185"/>
<feBlend mode="normal" in="SourceGraphic" in2="effect1_backgroundBlur_734_1185" result="shape"/>
</filter>
<linearGradient id="paint0_linear_734_1185" x1="0" y1="0" x2="26.7581" y2="11.2647" gradientUnits="userSpaceOnUse">
<stop stop-color="white" stop-opacity="0.47"/>
<stop offset="1" stop-color="white" stop-opacity="0"/>
</linearGradient>
<linearGradient id="paint1_linear_734_1185" x1="20" y1="19.4506" x2="2.21581" y2="-1.85001" gradientUnits="userSpaceOnUse">
<stop stop-color="#276E76"/>
<stop offset="1" stop-color="#60A9A4"/>
</linearGradient>
</defs>
</svg>
