<svg width="29" height="36" viewBox="0 0 29 36" fill="none" xmlns="http://www.w3.org/2000/svg">
<g id="Group 1261160108">
<path id="Vector" d="M16.5579 36C16.5579 36 2.72463 34.2194 2.40556 33.5538C2.34912 33.2925 2.32492 33.0251 2.33351 32.7579C2.26146 30.0338 2.632 21.436 2.632 21.436L16.4893 22.853L16.5544 35.3036L16.5579 36Z" fill="url(#paint0_linear_567_11719)"/>
<path id="Vector_2" d="M27.272 32.4597C27.272 33.043 27.2102 33.4341 27.1141 33.5404C26.3525 34.3535 16.5608 35.9866 16.5608 35.9866V35.273L16.4922 22.8533L26.5137 21.4192C26.5137 21.4192 27.3509 29.468 27.272 32.4597Z" fill="url(#paint1_linear_567_11719)"/>
<path id="Vector_3" d="M17.9913 25.0071C17.9433 25.3845 17.8918 25.6315 17.8267 25.6693C17.4836 25.8786 2.04469 24.3999 1.65014 24.1528L1.6124 24.1151C1.38615 23.5656 1.23275 22.9889 1.1561 22.3997C0.758118 20.3206 0.332692 17.075 0.373862 16.7113C0.373862 16.6598 0.541973 16.629 0.833596 16.6221C3.57829 16.5432 17.463 18.2106 17.8267 18.6189C17.8708 18.6786 17.9002 18.748 17.9124 18.8213C17.9124 18.8522 17.9124 18.8865 17.9364 18.9276C18.1629 20.0358 18.1594 23.5387 17.9913 25.0071Z" fill="url(#paint2_linear_567_11719)"/>
<path id="Vector_4" d="M27.4403 23.1306C27.4044 23.3606 27.3339 23.5839 27.231 23.7928C26.9668 23.9952 18.0088 25.8238 17.8338 25.6694C17.7768 25.4628 17.7502 25.249 17.7549 25.0347C17.6692 23.6143 17.6692 20.1869 17.9162 18.8352C17.9711 18.5298 18.0363 18.3343 18.1186 18.2828C18.5612 18.0015 28.4112 16.2243 28.5381 16.485C28.6651 16.7458 27.8657 21.3603 27.4403 23.1306Z" fill="url(#paint3_linear_567_11719)"/>
<path id="Vector_5" d="M28.527 16.4851C28.527 16.8282 19.9498 18.7392 17.9325 18.9416L17.6958 18.9588C16.3234 18.9931 2.76464 17.4835 0.64094 16.8454C0.541715 16.8295 0.448319 16.7881 0.369904 16.7253C0.164053 16.4234 2.18483 15.9019 4.83002 15.3907L4.96383 15.3633C8.51477 14.6771 13.1293 14.0218 15.0368 13.9257C18.4059 13.7576 28.5133 16.1386 28.527 16.4851Z" fill="url(#paint4_linear_567_11719)"/>
<g id="Vector_6" style="mix-blend-mode:multiply" opacity="0.3">
<path d="M27.441 23.1306C27.4052 23.3607 27.3346 23.5839 27.2318 23.7928C26.9676 23.9952 18.0096 25.8238 17.8346 25.6694C17.4915 25.8822 2.05266 24.4 1.65124 24.153C1.5243 24.0775 1.3459 23.3673 1.16406 22.417C2.53641 24.3074 5.74427 24.5098 10.5269 25.0347C15.3095 25.5597 17.4435 25.0622 17.7557 25.0347L17.9959 25.0073C19.3202 24.846 25.4717 24.0398 26.3466 23.8442C27.2215 23.6487 27.4273 23.1958 27.441 23.1306Z" fill="#900055"/>
</g>
<g id="Vector_7" style="mix-blend-mode:multiply" opacity="0.2">
<path d="M1.16495 18.1081C1.78937 17.3361 16.151 19.079 16.9469 19.9642C17.7429 20.8493 17.6125 23.9646 16.9469 24.7983C16.2813 25.632 3.56656 23.7999 2.32802 22.8907C1.08947 21.9815 1.16495 18.1081 1.16495 18.1081Z" fill="#DA0553"/>
</g>
<g id="Vector_8" style="mix-blend-mode:multiply" opacity="0.2">
<path d="M18.756 18.9596C17.9086 19.1242 18.0698 23.8726 18.4472 24.5656C18.8246 25.2586 25.6177 24.0681 26.7122 23.4677C27.8066 22.8673 28.383 17.4706 28.1531 17.1138C27.9233 16.7569 22.1972 18.3043 18.756 18.9596Z" fill="#DA0553"/>
</g>
<path id="Vector_9" d="M28.2084 16.3103C28.5515 16.4853 21.5422 18.5163 17.4938 18.7119C13.4454 18.9075 0.5625 16.8215 0.5625 16.8215C0.5625 16.8215 2.94695 17.4734 9.84641 18.3071C16.7459 19.1408 17.6688 19.4392 18.0462 19.4084C18.4236 19.3775 20.0567 18.5781 23.6522 17.9194C27.2477 17.2607 28.5378 16.7872 28.5378 16.6362C28.5378 16.4853 28.2084 16.3103 28.2084 16.3103Z" fill="#8981FF"/>
<path id="Vector_10" d="M15.0036 14.4753C14.091 12.1526 13.3293 7.54151 11.5522 5.29429C9.77497 3.04708 4.99921 9.41133 2.6971 9.00648C0.394995 8.60164 -0.250007 6.94797 0.895901 5.55161C2.04181 4.15525 3.36269 6.23778 3.09509 6.77642L3.99397 6.91023C3.99397 6.91023 3.04019 5.01296 1.88742 4.81054C0.734651 4.60812 0.0416165 6.29953 0.000446154 7.59297C-0.0407242 8.8864 2.77945 9.8642 3.4862 9.99457C4.19296 10.1249 7.94632 4.84828 10.5057 5.58591C13.0652 6.32355 12.626 13.2745 15.0036 14.4753Z" fill="url(#paint5_linear_567_11719)"/>
<g id="Vector_11" style="mix-blend-mode:multiply" opacity="0.3">
<path d="M27.2731 32.4597C27.2731 33.043 27.2114 33.4341 27.1153 33.5404C26.3537 34.3536 16.562 35.9866 16.562 35.9866C16.562 35.9866 2.72875 34.206 2.40968 33.5404C2.35324 33.2791 2.32904 33.0117 2.33763 32.7445C2.40281 33.3998 10.009 34.6555 12.7057 34.9608C15.4023 35.2662 16.4796 35.2765 16.4796 35.2765H16.5448C17.056 35.2421 20.5178 34.9951 23.6501 34.4839C27.057 33.9453 27.2731 32.4597 27.2731 32.4597Z" fill="#900055"/>
</g>
<g id="Vector_12" style="mix-blend-mode:multiply" opacity="0.2">
<path d="M2.524 24.3076C2.38677 24.3076 5.42307 32.2912 9.9175 33.5504C14.4119 34.8095 16.3572 26.2872 16.3572 25.8515C16.3572 25.4158 2.524 24.3076 2.524 24.3076Z" fill="#DA0553"/>
</g>
<g id="Vector_13" style="mix-blend-mode:multiply" opacity="0.2">
<path d="M16.9237 25.6696C16.361 25.8514 17.6647 33.8694 18.121 34.4972C18.5773 35.1251 25.6483 33.9997 26.6536 32.9567C27.6588 31.9138 27.254 24.7227 26.3105 24.4894C25.367 24.2561 16.9237 25.6696 16.9237 25.6696Z" fill="#DA0553"/>
</g>
<path id="Vector_14" d="M16.9414 19.2642C17.3565 19.3293 17.5658 25.6902 17.8369 25.6696C18.1079 25.649 18.1251 20.4753 18.523 19.2642C18.0031 19.3884 17.4613 19.3884 16.9414 19.2642Z" fill="#665CFF"/>
<path id="Vector_15" d="M16.5614 25.6698C16.3212 25.6355 16.3899 34.638 16.4928 35.1595C16.5957 35.681 16.853 28.2052 16.5614 25.6698Z" fill="#5D52FF"/>
<g id="Vector_16" style="mix-blend-mode:multiply" opacity="0.5">
<path d="M2.48047 25.316C3.44454 24.1392 14.1077 26.0811 17.1337 26.6506C20.1597 27.2201 26.8602 25.1238 26.8602 25.1238L26.7538 23.9368C26.7538 23.9368 19.597 25.4772 17.6963 25.6796C15.7956 25.8821 2.51821 24.3073 2.51821 24.3073L2.48047 25.316Z" fill="#6E3B66"/>
</g>
<g id="Vector_17" style="mix-blend-mode:multiply" opacity="0.3">
<path d="M3.16406 33.8626C3.16406 33.8626 4.05952 33.5195 8.84214 34.2365C13.6248 34.9536 15.8754 35.9108 15.8754 35.9108C15.8754 35.9108 6.79048 34.7546 3.16406 33.8626Z" fill="#900055"/>
</g>
<g id="Vector_18" style="mix-blend-mode:multiply" opacity="0.3">
<path d="M16.7617 35.9113C16.7617 35.9113 21.1086 34.6213 22.8 34.2371C24.092 33.9816 25.402 33.8279 26.7181 33.7773C26.7181 33.7773 25.3869 34.2165 22.4638 34.8924C19.5407 35.5683 16.7617 35.9113 16.7617 35.9113Z" fill="#900055"/>
</g>
<g id="Vector_19" style="mix-blend-mode:soft-light">
<path d="M17.1027 18.736C16.293 19.0551 17.5384 19.5628 18.0325 19.4222C18.5265 19.2815 19.4803 18.959 19.5592 18.8012C19.6381 18.6434 17.1027 18.736 17.1027 18.736Z" fill="white"/>
</g>
<path id="Vector_20" d="M11.9379 35.3756C11.8427 35.5297 11.6963 35.6453 11.5245 35.7024C11.3527 35.7595 11.1662 35.7543 10.9978 35.6879C10.3116 35.5095 7.05231 35.0737 6.51367 34.9228C5.97502 34.7718 5.30943 18.2488 5.37119 17.542C5.43294 16.8353 14.6723 15.6722 15.0565 15.6482C15.5111 15.7052 15.9263 15.9349 16.2161 16.2898C16.2951 16.4613 10.9978 17.8508 10.6101 18.2385C10.2224 18.6262 10.5861 35.187 10.792 35.2007C10.9978 35.2144 11.9379 35.3756 11.9379 35.3756Z" fill="url(#paint6_linear_567_11719)"/>
<path id="Vector_21" d="M15.2258 15.6482C14.8209 15.6825 15.5929 16.0633 16.2104 16.276C16.828 16.4888 22.8903 17.2332 23.4152 17.9606C23.9401 18.6879 22.4786 34.8919 22.4786 34.8919L21.5591 35.0943C21.7788 35.2604 22.0315 35.3774 22.3002 35.4374C22.6261 35.4751 25.4291 34.7204 25.6041 34.566C25.7791 34.4116 27.1514 17.5146 27.0554 17.1097C26.9593 16.7049 18.6703 15.3531 15.2258 15.6482Z" fill="url(#paint7_linear_567_11719)"/>
<path id="Vector_22" d="M15.1606 14.7216C15.1606 14.7216 15.0817 7.89764 16.955 4.98141C18.8282 2.06517 20.1903 4.42904 21.3705 4.73438C22.5507 5.03973 23.6246 2.35337 22.2522 0.895249C20.8799 -0.562867 21.0103 0.953573 21.0103 0.953573L20.1697 0.5007C20.1697 0.5007 20.8902 -0.628054 22.3106 0.531577C23.7309 1.69121 23.1374 4.14771 22.1596 5.1701C21.1818 6.1925 20.1937 3.74287 18.516 5.01228C16.8383 6.2817 15.2087 14.6187 15.4797 15.2294C15.7507 15.8401 15.1606 14.7216 15.1606 14.7216Z" fill="url(#paint8_linear_567_11719)"/>
<g id="Vector_23" style="mix-blend-mode:multiply" opacity="0.5">
<path d="M6.40139 17.4528C5.90391 17.6689 9.5818 18.187 11.0022 17.8576C12.8864 17.3715 14.8205 17.1044 16.766 17.0616C19.4833 16.9965 23.2847 17.8576 23.2847 17.8576C22.0892 17.3165 20.8388 16.9058 19.5553 16.6328C17.8399 16.3377 21.4937 16.0049 21.4937 16.0049L20.0219 15.7957L13.0298 16.2039C13.0298 16.2039 6.89886 16.6774 6.40139 17.4528Z" fill="#811166"/>
</g>
<path id="Vector_24" d="M14.6742 15.679C14.3689 15.7167 6.92731 14.9928 6.62883 15.0614C6.33034 15.13 4.57031 15.4457 4.57031 15.4457C4.6365 15.1852 4.73203 14.9332 4.85507 14.6943C4.97172 14.5502 8.44718 14.0356 9.6274 13.9258C10.8076 13.816 17.0724 15.4182 17.0724 15.6824C17.0724 15.9466 14.6742 15.679 14.6742 15.679Z" fill="url(#paint9_linear_567_11719)"/>
<path id="Vector_25" d="M5.17505 11.2257C4.58838 11.4762 5.69998 16.5058 8.58533 16.9141C11.4707 17.3224 15.001 15.9466 15.104 15.7956C15.2069 15.6447 11.1894 11.0404 10.5478 10.4812C9.90621 9.92198 5.17505 11.2257 5.17505 11.2257Z" fill="url(#paint10_linear_567_11719)"/>
<path id="Vector_26" d="M23.7306 15.1572C23.7306 15.1572 23.9261 14.5911 23.7306 14.4917C22.4173 14.2741 21.0934 14.1264 19.7645 14.0491C19.1675 14.0491 15.6474 15.6959 15.7401 15.7645C15.8327 15.8331 16.6527 15.9017 17.8706 15.7645C19.0886 15.6273 22.914 14.9788 22.914 14.9788L23.7306 15.1572Z" fill="url(#paint11_linear_567_11719)"/>
<path id="Vector_27" d="M15.6292 16.0325L15.5812 16.0016C15.6477 15.9337 15.7054 15.8576 15.7527 15.7752C15.6155 15.2742 13.804 11.7782 12.6649 10.0422C12.467 9.70304 12.2209 9.39446 11.9342 9.12614C9.72126 7.61999 5.61795 10.2274 4.58183 11.2464C4.45747 11.3709 4.37067 11.5278 4.33138 11.6993C4.33138 11.7199 4.33138 11.7439 4.31422 11.7645C4.19757 12.3546 4.43774 13.1951 4.93178 14.0597C5.16772 14.4648 5.43743 14.8493 5.73803 15.2091C6.02006 15.5455 6.32869 15.8587 6.66093 16.1457C7.05631 16.4854 7.4891 16.7789 7.95093 17.0206C10.133 18.1562 14.0441 16.7083 15.269 16.2006C15.5057 16.1045 15.6429 16.0428 15.6429 16.0428L15.6292 16.0325ZM8.37293 16.6329C8.05463 16.5377 7.76002 16.3763 7.50836 16.1594C7.27411 15.9658 7.05819 15.751 6.86335 15.5178C5.80665 14.269 5.03814 12.3958 5.35377 11.8228C5.78263 11.0406 12.8022 15.0066 14.274 15.9398H14.2946C12.7782 16.2623 9.65265 16.976 8.37293 16.6329Z" fill="url(#paint12_linear_567_11719)"/>
<path id="Vector_28" d="M19.3004 7.57185C21.4858 6.97144 20.6727 12.9446 20.1512 13.9189C19.6297 14.8933 18.1133 15.5143 18.1133 15.5143C18.1133 15.5143 24.7897 15.1026 26.0043 12.8108C26.4671 11.9212 26.7391 10.9447 26.8029 9.94394C26.8667 8.94316 26.7209 7.94008 26.3748 6.99889C25.9356 5.98679 19.3004 7.57185 19.3004 7.57185Z" fill="url(#paint13_linear_567_11719)"/>
<path id="Vector_29" d="M26.5672 6.47459L26.4951 6.44028C25.6203 6.09719 20.968 6.20355 19.0296 7.4215C18.8482 7.53203 18.6821 7.66583 18.5355 7.81948C17.0808 9.40797 15.3826 15.5698 16.2094 15.7105C16.4444 15.7555 16.684 15.7728 16.923 15.7619C16.4736 15.9849 16.3192 16.009 17.1632 16.1736C17.493 16.1986 17.8247 16.1848 18.1513 16.1325C18.3983 16.1016 18.6762 16.0604 18.9781 16.0055L19.4962 15.9095L19.7295 15.8649C19.9868 15.81 20.2578 15.7516 20.5357 15.6865L21.0984 15.5526L21.5375 15.4394C22.0179 15.3125 22.4982 15.1684 22.9579 15.0174L23.5617 14.8082L23.6029 14.791L23.8294 14.7052L23.8842 14.6846L24.1073 14.5954H24.1278L24.5293 14.4205C24.7145 14.3347 24.8723 14.2489 25.0473 14.1597C25.1014 14.1328 25.1541 14.103 25.2051 14.0705C25.2703 14.0362 25.3286 13.9985 25.3904 13.9607C25.4521 13.923 25.6065 13.8166 25.7026 13.7412C25.7517 13.705 25.7987 13.6661 25.8433 13.6245C25.8844 13.5868 25.9187 13.5525 25.9531 13.5147C26.0003 13.4666 26.0439 13.415 26.0834 13.3603L26.1383 13.278C26.1623 13.241 26.1829 13.2019 26.2001 13.1613C26.4588 12.4971 26.6451 11.807 26.7559 11.1028C26.7559 11.0342 26.7799 10.9656 26.7936 10.897C26.7936 10.897 26.7936 10.873 26.7936 10.8592C26.8142 10.7563 26.8279 10.6499 26.8451 10.5402C26.8451 10.5402 26.8451 10.5402 26.8451 10.5127L26.8657 10.3755C26.8657 10.2726 26.8897 10.1628 26.9034 10.053C26.9034 9.97407 26.9034 9.89859 26.9274 9.82311C26.9514 9.74763 26.9274 9.78537 26.9274 9.76821V9.70303C26.9274 9.59667 26.9446 9.49375 26.9514 9.39082C26.9583 9.28789 26.9514 9.18497 26.9686 9.08547C26.9686 9.01686 26.9686 8.94824 26.9686 8.88305C26.9686 8.74925 26.9686 8.61887 26.9686 8.4885C27.0338 7.4764 26.9 6.69759 26.5672 6.47459ZM25.3389 13.1373C24.1416 14.321 20.6489 14.9248 18.6179 15.2953C19.4849 14.8381 20.2532 14.2143 20.8788 13.4598C23.1295 10.8455 25.1983 7.07156 25.9805 7.41464C26.7627 7.75773 26.9755 11.5317 25.3389 13.1373Z" fill="url(#paint14_linear_567_11719)"/>
<g id="Vector_30" style="mix-blend-mode:multiply" opacity="0.5">
<path d="M22.293 35.4512C22.293 35.4512 22.9517 35.1081 23.4149 29.5707C23.878 24.0333 23.7579 18.0121 23.9569 17.8577C24.1559 17.7034 27.0447 17.1235 27.0447 17.1235C27.0447 17.1235 25.7924 33.3618 25.4219 34.1886C25.0514 35.0155 22.293 35.4512 22.293 35.4512Z" fill="#811166"/>
</g>
<g id="Vector_31" style="mix-blend-mode:multiply" opacity="0.5">
<path d="M11.1328 35.7152C11.1328 35.7152 10.5256 35.7667 10.3677 34.8438C10.2099 33.9209 9.76048 19.079 9.99721 18.4271C10.2339 17.7752 15.0371 16.7117 15.0371 16.7117C15.0371 16.7117 11.0059 17.9742 10.6868 18.482C10.3677 18.9898 10.4055 25.0521 10.4467 25.1447C10.4878 25.2374 10.9681 25.2202 10.9681 25.2202C10.9681 25.2202 11.1706 35.1388 11.2426 35.2452C11.3147 35.3515 11.9288 35.3687 11.9288 35.3687C11.8368 35.4897 11.7154 35.5851 11.576 35.6458C11.4366 35.7064 11.2841 35.7304 11.1328 35.7152Z" fill="#811166"/>
</g>
<g id="Vector_32" style="mix-blend-mode:multiply" opacity="0.3">
<path d="M5.8945 18.115C5.60287 18.1699 5.7504 24.3351 6.35767 26.5034C6.96493 28.6718 9.34938 30.7509 9.76108 30.8023C10.1728 30.8538 9.81254 19.5011 9.76108 19.0619C9.70962 18.6228 5.8945 18.115 5.8945 18.115Z" fill="#912774"/>
</g>
<g id="Vector_33" style="mix-blend-mode:multiply" opacity="0.5">
<path d="M23.4179 17.9602C23.6478 18.2758 23.315 23.9505 22.8141 24.7773C22.8141 24.7773 22.3166 34.4558 22.0078 34.991L22.4813 34.8915C22.4813 34.8915 23.8776 20.451 23.4179 17.9602Z" fill="#811166"/>
</g>
<path id="Vector_34" d="M5.43825 17.7069C5.5103 17.2437 7.33208 17.8853 8.56376 17.9333C9.79544 17.9814 9.93611 17.9676 9.95326 18.1632C9.97042 18.3588 9.72683 18.6881 8.23783 18.5269C6.74884 18.3656 5.34218 18.0088 5.43825 17.7069Z" fill="#FF4F90"/>
<path id="Vector_35" d="M23.5072 17.6517C23.3871 17.6963 24.2586 17.8816 25.2707 17.5831C26.2828 17.2846 26.8283 17.24 26.8626 17.1234C26.8969 17.0067 24.0939 17.4322 23.5072 17.6517Z" fill="#FF4F90"/>
<g id="Vector_36" style="mix-blend-mode:multiply" opacity="0.5">
<path d="M15.6202 16.029L15.5482 15.9879L15.2531 15.8232C13.2667 14.7116 6.45296 11.1881 4.66205 11.4969C4.52804 11.5119 4.40507 11.5783 4.31897 11.6821C4.30719 11.6984 4.29686 11.7156 4.28809 11.7336C4.16458 12.3409 4.42533 13.2192 4.95368 14.1112C5.40713 14.8619 5.97556 15.5369 6.63823 16.1114C7.03188 16.4645 7.46607 16.7697 7.93166 17.0206C10.1103 18.1596 14.0214 16.7084 15.2463 16.204L15.6237 16.0428L15.6202 16.029ZM6.87153 15.5178C5.80453 14.269 5.02916 12.382 5.3448 11.8057C5.77708 11.02 12.8652 15.0307 14.265 15.9227C12.7486 16.2452 9.62994 16.9519 8.35366 16.6089C8.04155 16.5207 7.7516 16.3675 7.50281 16.1594C7.27332 15.9652 7.06202 15.7504 6.87153 15.5178Z" fill="#811166"/>
</g>
<g id="Vector_37" style="mix-blend-mode:multiply" opacity="0.5">
<path d="M26.58 6.47452C26.1675 6.38445 25.7362 6.45696 25.3758 6.67694C23.6604 7.64101 22.2331 11.2674 20.4217 13.1407L18.2739 15.3673L18.1264 15.5217L17.8828 15.7756L18.1641 16.1187C18.4112 16.0878 18.6891 16.0466 18.991 15.9917L19.509 15.8957L19.7423 15.8511C19.9997 15.7962 20.2707 15.7378 20.5486 15.6727L21.1113 15.5389L21.5504 15.4256C22.0307 15.2987 22.511 15.1546 22.9708 15.0036L23.5746 14.7944L23.6158 14.7772L23.8422 14.6914L23.8971 14.6708L24.1201 14.5816H24.1407L24.5421 14.4067C24.7274 14.3209 24.8852 14.2351 25.0602 14.1459C25.1143 14.119 25.167 14.0892 25.218 14.0567C25.2832 14.0224 25.3415 13.9847 25.4033 13.9469C25.465 13.9092 25.6194 13.8028 25.7155 13.7274C25.7646 13.6912 25.8115 13.6523 25.8561 13.6107C25.8973 13.573 25.9316 13.5387 25.9659 13.5009C26.0132 13.4528 26.0568 13.4012 26.0963 13.3465L26.1512 13.2642C26.1751 13.2272 26.1958 13.1881 26.213 13.1475C26.4717 12.4833 26.658 11.7932 26.7687 11.089C26.7687 11.0204 26.7928 10.9518 26.8065 10.8832C26.8065 10.8832 26.8065 10.8592 26.8065 10.8454C26.8271 10.7425 26.8408 10.6362 26.858 10.5264C26.858 10.5264 26.858 10.5264 26.858 10.4989L26.8785 10.3617C26.8785 10.2588 26.9026 10.149 26.9163 10.0392C26.9163 9.96027 26.9163 9.88479 26.9403 9.80931C26.9643 9.73384 26.9403 9.77157 26.9403 9.75442V9.68923C26.9403 9.58288 26.9574 9.47995 26.9643 9.37703C26.9712 9.2741 26.9643 9.17117 26.9815 9.07168C26.9815 9.00306 26.9815 8.93444 26.9815 8.86926C26.9815 8.73545 26.9815 8.60508 26.9815 8.47471C27.0466 7.47633 26.9128 6.69752 26.58 6.47452ZM25.3518 13.1372C24.1544 14.3209 20.6618 14.9247 18.6307 15.2953C19.4977 14.838 20.266 14.2143 20.8917 13.4598C23.1423 10.8454 25.2111 7.07149 25.9934 7.41457C26.7756 7.75766 26.9883 11.5316 25.3518 13.1372Z" fill="#811166"/>
</g>
<g id="Vector_38" style="mix-blend-mode:multiply" opacity="0.3">
<path d="M16.4924 14.729C16.4924 14.729 16.4443 11.6653 17.8647 10.0116C19.2851 8.3579 17.4873 13.2812 17.3981 13.9331C17.3089 14.5849 20.0845 9.57929 21.5152 8.90684C22.9458 8.23439 20.4207 12.7322 19.5767 13.6826C18.9291 14.3269 18.1496 14.8231 17.2918 15.1373L16.4924 14.729Z" fill="#912774"/>
</g>
<g id="Vector_39" style="mix-blend-mode:multiply" opacity="0.3">
<path d="M15.4814 15.23C15.4814 15.23 12.9391 11.9055 12.0162 11.4904C11.0933 11.0752 10.3763 12.0427 11.7315 13.3602C13.0867 14.6776 15.4814 15.23 15.4814 15.23Z" fill="#912774"/>
</g>
<path id="Vector_40" d="M14.4483 16.3103C14.016 17.0342 17.8174 16.7323 18.1159 16.4133L18.4178 16.0908C18.4178 16.0908 17.3371 14.9414 16.4931 14.7184C16.0742 14.5802 15.622 14.5802 15.2031 14.7184C15.2031 14.7184 15.7623 15.4355 15.5187 16.0359C15.2751 16.6363 14.4483 16.3103 14.4483 16.3103Z" fill="url(#paint15_linear_567_11719)"/>
<g id="Vector_41" style="mix-blend-mode:multiply" opacity="0.5">
<path d="M21.2677 12.986C20.8697 13.8678 26.0949 12.4748 26.3282 10.6874C26.5615 8.89988 26.4689 7.50695 25.7587 7.59958C25.0485 7.69221 23.141 10.6153 22.4582 11.497C21.7755 12.3788 21.2677 12.986 21.2677 12.986Z" fill="#9D1166"/>
</g>
<g id="Vector_42" style="mix-blend-mode:multiply" opacity="0.5">
<path d="M5.43787 11.7503C5.02274 11.8464 5.50306 14.2754 6.83423 15.0474C8.16541 15.8193 12.2721 15.4488 12.5398 15.0474C12.8074 14.646 6.40194 11.5308 5.43787 11.7503Z" fill="#9D1166"/>
</g>
<g id="Vector_43" style="mix-blend-mode:multiply" opacity="0.5">
<path d="M14.4453 16.5094C14.7575 16.8078 15.8966 16.3721 16.9807 16.0085C18.0649 15.6448 18.4148 16.0908 18.4148 16.0908C18.4148 16.0908 18.2193 16.5265 17.8693 16.6089C17.0083 16.752 16.138 16.8311 15.2653 16.8456C14.9612 16.8324 14.6711 16.7135 14.4453 16.5094Z" fill="#811166"/>
</g>
<g id="Vector_44" style="mix-blend-mode:soft-light">
<path d="M18.8738 7.81513C17.7896 8.9679 20.8945 8.01412 22.3046 8.21654C23.7147 8.41896 24.9841 6.73097 25.2723 6.50111C25.5605 6.27124 20.0471 6.49081 18.8738 7.81513Z" fill="white"/>
</g>
<g id="Vector_45" style="mix-blend-mode:soft-light">
<path d="M5.78489 10.7935C5.63736 11.1366 7.66843 11.1846 10.619 10.9342C13.5695 10.6837 12.0942 9.31824 11.0993 9.03348C10.1043 8.74872 6.2309 9.76425 5.78489 10.7935Z" fill="white"/>
</g>
<path id="Vector_46" d="M2.36156 33.0192L2.52967 24.4592C2.32213 27.3076 2.26601 30.1649 2.36156 33.0192Z" fill="#8981FF"/>
<path id="Vector_47" d="M1.1034 16.9624C0.863239 16.5884 3.44324 15.6724 3.44324 15.6724C3.44324 15.6724 0.355469 16.3997 0.355469 16.7256C0.355469 17.0516 1.1034 16.9624 1.1034 16.9624Z" fill="#8981FF"/>
<path id="Vector_48" d="M7.52044 11.7195C7.21167 11.7195 11.315 13.8398 12.4883 14.4127C13.6617 14.9857 14.365 15.4042 14.365 15.4042C14.365 15.4042 8.64233 11.7332 7.52044 11.7195Z" fill="#FF4F90"/>
<path id="Vector_49" d="M19.7734 13.792C19.7734 13.792 23.0945 9.07459 24.0277 7.93555C24.0277 7.93555 21.7976 11.9462 19.7734 13.792Z" fill="#FF4F90"/>
<g id="Vector_50" style="mix-blend-mode:multiply" opacity="0.5">
<path d="M17.0039 14.962C17.0039 14.962 18.3762 12.4884 18.9149 11.8743C19.4535 11.2601 19.3609 12.9687 19.0144 13.8161C18.6679 14.6636 17.2269 15.1061 17.1514 15.0615C17.076 15.0169 17.0039 14.962 17.0039 14.962Z" fill="#9D1166"/>
</g>
<g id="Vector_51" style="mix-blend-mode:multiply" opacity="0.5">
<path d="M15.4831 15.1541C15.4831 15.1541 14.2754 13.6856 13.6956 13.0509C13.1158 12.4162 13.1329 13.4249 13.3868 14.1042C13.6407 14.7835 15.4831 15.1541 15.4831 15.1541Z" fill="#9D1166"/>
</g>
<g id="Vector_52" style="mix-blend-mode:multiply" opacity="0.3">
<path d="M16.5672 14.7524C16.4826 13.9385 16.5895 13.116 16.8794 12.3508C17.147 11.9048 17.2602 13.7986 17.1916 14.1623C17.123 14.526 16.5672 14.7524 16.5672 14.7524Z" fill="#9D1166"/>
</g>
<path id="Vector_53" d="M24.279 6.90013C24.9 6.59822 24.4849 7.76814 23.8399 7.92939C23.1949 8.09064 22.5739 7.44564 21.3285 7.50053C20.0831 7.55543 20.4742 7.92596 19.3043 8.13867C18.1344 8.35139 18.2544 8.27934 18.5392 7.79559C18.824 7.31184 19.3214 7.79559 20.0282 7.62405C20.735 7.4525 20.5017 7.33242 21.9461 7.43878C22.762 7.52448 23.5832 7.33488 24.279 6.90013Z" fill="#FF5CA2"/>
<path id="Vector_54" d="M5.78932 11.0642C5.78932 11.2803 6.29709 11.4073 7.40526 11.2254C8.51342 11.0436 8.9114 10.6868 9.78627 10.1962C10.891 9.56145 11.7247 9.92513 11.8963 9.4448C12.0678 8.96448 11.7178 9.24582 11.5189 9.37619C11.3199 9.50656 11.3713 9.44824 9.66619 10.0624C7.96105 10.6765 5.76187 10.5324 5.78932 11.0642Z" fill="#FF5CA2"/>
<g id="Vector_55" style="mix-blend-mode:multiply" opacity="0.5">
<path d="M17.5464 4.20676C18.0611 3.7779 18.6169 4.58072 18.6718 4.72825C18.7267 4.87578 18.0199 5.38698 17.2994 6.70786C16.5789 8.02874 16.1055 7.05094 16.1055 7.05094C16.1055 7.05094 16.9838 4.66993 17.5464 4.20676Z" fill="#D42F55"/>
</g>
<g id="Vector_56" style="mix-blend-mode:multiply" opacity="0.5">
<path d="M11.2702 5.22485C10.9271 5.35866 11.9289 6.99175 12.1211 7.52696C12.2685 7.87314 12.5334 8.15621 12.869 8.32635C12.869 8.32635 12.2137 5.79095 11.2702 5.22485Z" fill="#D42F55"/>
</g>
<path id="Vector_57" d="M18.4251 3.61254C18.106 3.84927 18.8231 4.53888 18.902 4.55946C18.9809 4.58005 19.8489 4.51486 19.8489 4.51486C19.6667 4.24442 19.4637 3.98861 19.2416 3.74978C19.0255 3.54736 18.4251 3.61254 18.4251 3.61254Z" fill="#FFF455"/>
<path id="Vector_58" d="M20.2617 0.39798C20.5391 0.177055 20.8733 0.0390854 21.2258 0C21.4591 0.0446012 21.4488 0.120081 21.4488 0.120081C21.4488 0.120081 21.0028 0.542076 21.0028 0.741066C21.0028 0.940056 20.2617 0.39798 20.2617 0.39798Z" fill="#FFF455"/>
<path id="Vector_59" d="M10.9271 4.91269C10.7419 4.82005 10.3988 5.31067 10.5223 5.43418C10.7796 5.59588 11.0505 5.73479 11.332 5.84931C11.332 5.84931 11.5584 5.37242 11.4658 5.18716C11.3732 5.00189 10.9271 4.91269 10.9271 4.91269Z" fill="#FFF455"/>
<path id="Vector_60" d="M2.98857 5.64374C2.84104 5.606 3.19785 6.50145 3.2596 6.60095C3.32136 6.70044 3.79825 6.71074 3.79825 6.71074C3.79825 6.71074 3.38312 5.77068 2.98857 5.64374Z" fill="#FFF455"/>
<path id="Vector_61" d="M0.0664062 7.94893C0.165901 7.70534 1.30495 8.61109 1.53139 8.84781C1.75782 9.08454 1.27064 9.12228 1.15399 9.04681C1.03734 8.97133 0.1213 8.44297 0.0664062 7.94893Z" fill="#FFF455"/>
<g id="Vector_62" style="mix-blend-mode:multiply" opacity="0.5">
<path d="M1.37154 9.18056C1.3235 9.08107 1.68718 9.02274 1.78667 9.01245C2.37715 9.1342 2.95242 9.32058 3.5021 9.56825C3.69423 9.72607 3.60846 9.91134 3.46779 9.91134C2.72957 9.80064 2.01859 9.55278 1.37154 9.18056Z" fill="#D42F55"/>
</g>
<path id="Vector_63" d="M9.97268 23.6321C9.34141 23.265 9.22819 24.4212 9.51981 25.1932C9.81144 25.9651 10.1477 25.4677 10.1477 24.7781C10.1477 24.0885 10.1065 23.7111 9.97268 23.6321Z" fill="#920066"/>
<path id="Vector_64" d="M23.9687 30.8022C24.5245 29.9788 25.4268 30.6959 24.672 31.533C23.9172 32.3701 23.4609 31.5673 23.9687 30.8022Z" fill="#920066"/>
<g id="Vector_65" style="mix-blend-mode:multiply" opacity="0.5">
<path d="M23.9658 30.8025C23.6227 31.173 24.1098 31.7631 24.6691 31.2828C25.2283 30.8025 24.6519 30.0237 23.9658 30.8025Z" fill="#9A1166"/>
</g>
<g id="Vector_66" style="mix-blend-mode:multiply" opacity="0.5">
<path d="M9.33173 24.2735C9.41064 24.7641 9.79146 25.1793 9.95957 25.1278C10.1277 25.0763 10.3232 23.7555 9.95957 23.5633C9.5959 23.3712 9.25282 23.7452 9.33173 24.2735Z" fill="#9A1166"/>
</g>
<path id="Vector_67" d="M9.40625 24.7878C9.40625 24.7878 9.55035 25.4363 9.81452 25.474C10.0787 25.5118 10.1302 24.9937 10.1302 24.9937C10.1302 24.9937 10.089 25.7039 9.84883 25.7313C9.60867 25.7588 9.40625 24.7878 9.40625 24.7878Z" fill="#FF4F90"/>
<path id="Vector_68" d="M23.7611 31.3994C23.8091 32.0032 24.6805 31.5332 24.6805 31.5332C24.6805 31.5332 24.4129 31.9689 24.039 31.9861C23.665 32.0032 23.7611 31.3994 23.7611 31.3994Z" fill="#FF4F90"/>
<g id="Vector_69" style="mix-blend-mode:multiply" opacity="0.3">
<path d="M6.68747 34.9636C6.39241 34.672 6.93106 33.5398 8.34457 33.677C9.75809 33.8142 10.5232 35.5914 10.5232 35.5914L6.68747 34.9636Z" fill="#912774"/>
</g>
<g id="Vector_70" style="mix-blend-mode:multiply" opacity="0.3">
<path d="M24.1377 18.2044C23.9318 18.5818 23.7946 20.3899 24.5116 21.3334C25.2287 22.2768 26.8035 18.6092 26.752 17.8579C26.7005 17.1065 24.1377 18.2044 24.1377 18.2044Z" fill="#811166"/>
</g>
<g id="Vector_71" style="mix-blend-mode:multiply" opacity="0.2">
<path d="M15.9897 19.2642C14.535 18.7736 16.2093 21.6864 16.9366 22.7705C17.664 23.8547 17.2214 19.8165 17.0773 19.5386C16.9332 19.2607 15.9897 19.2642 15.9897 19.2642Z" fill="#DA0553"/>
</g>
<g id="Vector_72" style="mix-blend-mode:multiply" opacity="0.5">
<path d="M26.8836 10.4814C26.7742 11.3896 26.5553 12.2813 26.2318 13.1369C25.6863 14.4166 21.5212 15.566 18.9961 15.9914C19.3117 15.9159 24.3723 14.7117 25.5799 13.6104C26.3999 12.8728 26.743 11.4043 26.8836 10.4814Z" fill="#9D1166"/>
</g>
<g id="Vector_73" style="mix-blend-mode:multiply" opacity="0.5">
<path d="M1.66181 24.1531L1.62407 24.1154C1.39782 23.5659 1.24441 22.9892 1.16777 22.3999C0.769785 20.3208 0.344359 17.0752 0.385529 16.7116C0.179678 16.4096 2.20046 15.8882 4.84565 15.377C4.13889 15.5279 1.57604 16.1043 0.841835 16.6224C0.759824 16.6722 0.694217 16.7449 0.653136 16.8316C0.450715 17.4869 1.31872 23.7757 1.66181 24.1531Z" fill="#6E3B66"/>
</g>
<g id="Vector_74" style="mix-blend-mode:multiply" opacity="0.5">
<path d="M27.0333 8.44348C27.0333 8.57385 27.0333 8.70422 27.0333 8.83803C27.0333 8.90321 27.0333 8.97183 27.0333 9.04045C27.0333 9.13994 27.0333 9.24287 27.0162 9.34579C26.999 9.44872 27.0162 9.55165 26.9922 9.658V9.72319C26.9922 9.72319 26.9922 9.75407 26.9922 9.77808C26.9922 9.8021 26.9922 9.92904 26.9682 10.0079C26.9682 10.1177 26.9407 10.2275 26.9304 10.3305L26.9098 10.4677C26.9098 10.4677 26.9098 10.4883 26.9098 10.4951C26.8927 10.6049 26.879 10.7113 26.8584 10.8142C26.8584 10.8142 26.8584 10.8416 26.8584 10.8519C26.8584 10.9206 26.8344 10.9892 26.8206 11.0578C26.8584 10.7765 27.2289 7.45539 25.4003 6.65943C25.2414 6.59004 25.0742 6.5416 24.9028 6.51533C22.4188 6.12078 19.0703 7.40393 19.0703 7.40393C21.0087 6.18597 25.661 6.07961 26.5359 6.4227L26.6079 6.45701C26.8995 6.69717 27.0333 7.47597 27.0333 8.44348Z" fill="#9D1166"/>
</g>
<g id="Vector_75" style="mix-blend-mode:multiply" opacity="0.5">
<path d="M12.6525 10.025C12.5427 9.88776 11.6233 8.76243 10.4396 8.82076C9.17364 8.88594 5.434 10.248 4.75126 11.3527C4.72381 11.4008 4.69637 11.4488 4.67235 11.4968C4.21605 12.4403 4.75812 13.7029 4.91937 14.0425C4.93653 14.0734 4.94682 14.0974 4.95368 14.1111C4.42533 13.2191 4.16458 12.3408 4.28809 11.7336C4.29686 11.7155 4.3072 11.6983 4.31897 11.6821C4.35827 11.5106 4.44506 11.3537 4.56942 11.2292C5.59868 10.2 9.71571 7.6028 11.9218 9.10895C12.2085 9.37728 12.4546 9.68585 12.6525 10.025Z" fill="#9D1166"/>
</g>
</g>
<defs>
<linearGradient id="paint0_linear_567_11719" x1="12.9383" y1="36.4701" x2="4.81746" y2="17.2161" gradientUnits="userSpaceOnUse">
<stop stop-color="#512EFF"/>
<stop offset="1" stop-color="#6B2ED8"/>
</linearGradient>
<linearGradient id="paint1_linear_567_11719" x1="16.4922" y1="28.7029" x2="27.2788" y2="28.7029" gradientUnits="userSpaceOnUse">
<stop stop-color="#3D069A"/>
<stop offset="1" stop-color="#6509BA"/>
</linearGradient>
<linearGradient id="paint2_linear_567_11719" x1="15.6103" y1="35.3409" x2="7.49289" y2="16.0869" gradientUnits="userSpaceOnUse">
<stop stop-color="#512EFF"/>
<stop offset="1" stop-color="#6B2ED8"/>
</linearGradient>
<linearGradient id="paint3_linear_567_11719" x1="17.7" y1="21.0686" x2="28.545" y2="21.0686" gradientUnits="userSpaceOnUse">
<stop stop-color="#3D069A"/>
<stop offset="1" stop-color="#6509BA"/>
</linearGradient>
<linearGradient id="paint4_linear_567_11719" x1="0.35275" y1="16.4371" x2="28.527" y2="16.4371" gradientUnits="userSpaceOnUse">
<stop offset="0.04" stop-color="#9190FF"/>
<stop offset="1" stop-color="#6B59FF"/>
</linearGradient>
<linearGradient id="paint5_linear_567_11719" x1="7.1827" y1="13.4632" x2="8.32992" y2="4.50832" gradientUnits="userSpaceOnUse">
<stop stop-color="#FFAC15"/>
<stop offset="0.63" stop-color="#FF8100"/>
<stop offset="0.7" stop-color="#FFA400"/>
<stop offset="1" stop-color="#FFBA00"/>
</linearGradient>
<linearGradient id="paint6_linear_567_11719" x1="10.7919" y1="35.7256" x2="10.7919" y2="15.631" gradientUnits="userSpaceOnUse">
<stop stop-color="#DE0086"/>
<stop offset="1" stop-color="#FF003B"/>
</linearGradient>
<linearGradient id="paint7_linear_567_11719" x1="21.0891" y1="35.4511" x2="21.0891" y2="15.607" gradientUnits="userSpaceOnUse">
<stop stop-color="#DE0086"/>
<stop offset="1" stop-color="#FF003B"/>
</linearGradient>
<linearGradient id="paint8_linear_567_11719" x1="15.0469" y1="15.1835" x2="21.8274" y2="0.184644" gradientUnits="userSpaceOnUse">
<stop stop-color="#FFAC15"/>
<stop offset="0.63" stop-color="#FF8100"/>
<stop offset="0.7" stop-color="#FFA400"/>
<stop offset="1" stop-color="#FFBA00"/>
</linearGradient>
<linearGradient id="paint9_linear_567_11719" x1="10.8076" y1="15.7956" x2="10.8076" y2="13.9189" gradientUnits="userSpaceOnUse">
<stop stop-color="#DE0086"/>
<stop offset="1" stop-color="#FF003B"/>
</linearGradient>
<linearGradient id="paint10_linear_567_11719" x1="10.0675" y1="16.9896" x2="10.0675" y2="10.344" gradientUnits="userSpaceOnUse">
<stop stop-color="#DE0057"/>
<stop offset="1" stop-color="#83003B"/>
</linearGradient>
<linearGradient id="paint11_linear_567_11719" x1="19.7782" y1="15.8503" x2="19.7782" y2="14.0491" gradientUnits="userSpaceOnUse">
<stop stop-color="#DE0086"/>
<stop offset="1" stop-color="#FF003B"/>
</linearGradient>
<linearGradient id="paint12_linear_567_11719" x1="10.0095" y1="17.4528" x2="10.0095" y2="8.65268" gradientUnits="userSpaceOnUse">
<stop stop-color="#DE0086"/>
<stop offset="1" stop-color="#FF003B"/>
</linearGradient>
<linearGradient id="paint13_linear_567_11719" x1="22.4739" y1="15.5143" x2="22.4739" y2="6.65924" gradientUnits="userSpaceOnUse">
<stop stop-color="#DE0057"/>
<stop offset="1" stop-color="#83003B"/>
</linearGradient>
<linearGradient id="paint14_linear_567_11719" x1="21.5135" y1="16.1874" x2="21.5135" y2="6.26873" gradientUnits="userSpaceOnUse">
<stop stop-color="#DE0086"/>
<stop offset="1" stop-color="#FF003B"/>
</linearGradient>
<linearGradient id="paint15_linear_567_11719" x1="16.4176" y1="16.7563" x2="16.4176" y2="14.6361" gradientUnits="userSpaceOnUse">
<stop stop-color="#FF0086"/>
<stop offset="0.99" stop-color="#FF4A77"/>
</linearGradient>
</defs>
</svg>
