<svg width="34" height="16" viewBox="0 0 34 16" fill="none" xmlns="http://www.w3.org/2000/svg">
<g id="Group 1261160110">
<path id="Vector" d="M21.6358 1.55396C21.6358 1.55396 18.772 1.95869 18.4746 2.37875C18.1771 2.79881 19.0479 14.0853 19.5324 14.7231C20.0168 15.3608 24.1776 15.3148 24.1776 15.3148L21.6358 1.55396Z" fill="url(#paint0_linear_567_12020)"/>
<path id="Vector_2" d="M31.5348 1.05408C28.6894 -0.62004 21.6372 1.55386 21.6372 1.55386C21.1589 1.88807 21.582 14.4317 21.8978 14.8303C22.2137 15.2289 25.2706 15.4987 25.5772 15.1645C25.8838 14.8303 26.0678 11.9175 26.0678 11.9175C26.0678 11.9175 29.7993 12.2731 31.0227 11.3655C32.6018 10.1973 33.4603 7.64937 33.4143 5.3283C33.3959 3.48554 32.7949 1.79609 31.5348 1.05408ZM26.1751 4.55563C26.3468 3.84121 29.416 3.67258 29.9741 5.5184C30.5321 7.36422 27.3495 8.04491 26.5707 7.86707C25.9973 7.74442 26.0065 5.27311 26.1751 4.55563Z" fill="url(#paint1_linear_567_12020)"/>
<path id="Vector_3" d="M26.8708 9.23174C26.785 9.23174 26.7022 9.23174 26.6255 9.23174C26.5078 9.22346 26.391 9.20603 26.276 9.17961C26.0602 9.12893 25.8568 9.03553 25.6778 8.90493C25.4987 8.77433 25.3477 8.60917 25.2335 8.4192C24.5467 7.32459 24.7215 4.88086 24.8717 4.25537C25.0833 3.37232 25.9816 2.80201 27.248 2.72229H27.5055C29.3452 2.72229 30.7986 3.66974 31.2432 5.13536C31.3692 5.53412 31.3982 5.9572 31.3278 6.36943C31.2574 6.78166 31.0896 7.17114 30.8384 7.50549C29.9002 8.76875 27.9532 9.23174 26.8708 9.23174ZM32.0833 5.09243C32.0097 3.69427 31.5498 2.61191 30.8568 2.20718C30.5104 2.00482 29.8051 1.75952 28.4346 1.75952H28.1709C26.3566 1.84962 24.5575 2.13645 22.8051 2.61498C22.7836 2.98292 22.7714 3.47657 22.7652 4.05301C22.7346 6.96279 22.9094 12.0066 23.0719 13.831C23.3233 13.8739 23.6422 13.9168 23.9917 13.9444C24.1603 13.9444 24.3351 13.9689 24.5038 13.972C24.5927 13.3925 24.6877 12.534 24.7429 11.8257L24.838 10.5042V10.4582L26.1901 10.5839L26.6317 10.6146C26.8371 10.6146 27.0977 10.6391 27.3921 10.6422H27.6987C29.3176 10.6422 30.0627 10.4061 30.2283 10.2834C31.3535 9.4525 32.1293 7.34912 32.068 5.31013C32.0833 5.24267 32.0802 5.16602 32.0772 5.09243H32.0833Z" fill="url(#paint2_linear_567_12020)"/>
<path id="Vector_4" d="M31.5618 5.09229C31.4882 3.69413 31.0282 2.61177 30.3353 2.20704C30.0133 2.01694 29.3848 1.79311 28.189 1.76245H28.1645C26.3502 1.85255 24.551 2.13938 22.7987 2.61791C22.6607 4.847 22.8661 11.6477 23.0808 13.8339C23.3322 13.8768 23.6511 13.9197 24.0006 13.9473C24.0895 13.3709 24.1785 12.5277 24.2367 11.801L24.3471 10.4489L24.8377 10.5041L25.6778 10.5838L26.1193 10.6144C26.3892 10.6144 26.7663 10.6451 27.1802 10.6451H27.4868C28.9034 10.6175 29.5565 10.3906 29.7221 10.2894C30.9301 9.55048 31.7243 8.33015 31.5618 5.09229ZM30.8473 7.49922C29.8999 8.76861 27.9529 9.2316 26.8613 9.2316C26.7755 9.2316 26.6927 9.2316 26.6161 9.2316H26.3462C26.1462 9.23522 25.9465 9.21462 25.7514 9.17027C25.5358 9.11927 25.3325 9.02574 25.1535 8.89517C24.9745 8.7646 24.8233 8.59961 24.7089 8.40987C24.0221 7.31525 24.1969 4.87153 24.3471 4.24603C24.5709 3.30166 25.5736 2.71296 26.9901 2.71296H27.2385H27.496C29.3357 2.71296 30.7891 3.6604 31.2337 5.12602C31.3628 5.52379 31.3951 5.94664 31.3279 6.3594C31.2607 6.77217 31.0959 7.16293 30.8473 7.49922Z" fill="url(#paint3_linear_567_12020)"/>
<path id="Vector_5" d="M26.5662 7.86728C25.9929 7.7385 26.0021 5.27331 26.1707 4.55583C26.3394 3.83835 29.4116 3.67278 29.9697 5.51861C30.5277 7.36443 27.345 8.05124 26.5662 7.86728Z" fill="url(#paint4_linear_567_12020)"/>
<path id="Vector_6" d="M26.5662 7.86728C25.9929 7.7385 26.0021 5.27331 26.1707 4.55583C26.3394 3.83835 29.4116 3.67278 29.9697 5.51861C30.5277 7.36443 27.345 8.05124 26.5662 7.86728Z" fill="url(#paint5_linear_567_12020)"/>
<path id="Vector_7" d="M18.2734 2.46466C18.2734 2.46466 23.9765 -1.60412 30.7465 0.713891C30.7465 0.713891 27.1193 0.0546679 21.5481 1.95875C20.4353 1.93436 19.3269 2.1056 18.2734 2.46466Z" fill="url(#paint6_linear_567_12020)"/>
<g id="Vector_8" style="mix-blend-mode:multiply" opacity="0.5">
<path d="M26.2972 4.37175C26.0826 5.44797 26.0734 6.99945 26.5517 6.68057C27.03 6.36169 28.0848 7.18955 29.1181 6.90439C30.1514 6.61924 30.2771 4.91753 28.698 4.26137C27.1189 3.60522 26.2972 4.37175 26.2972 4.37175Z" fill="#B82774"/>
</g>
<g id="Vector_9" style="mix-blend-mode:multiply" opacity="0.5">
<path d="M18.9389 2.80509C19.3651 1.27202 21.4624 6.04601 21.2937 9.97989C21.1251 13.9138 19.8649 14.7631 19.4019 14.3522C18.9389 13.9414 18.5894 4.06528 18.9389 2.80509Z" fill="#B82774"/>
</g>
<g id="Vector_10" style="mix-blend-mode:multiply" opacity="0.5">
<path d="M20.2835 15.0481C19.6366 14.8151 21.5499 14.8887 22.3777 15.0481C23.2056 15.2075 24.3308 15.3179 24.3308 15.3179C22.9764 15.3502 21.6217 15.2599 20.2835 15.0481Z" fill="#B82774"/>
</g>
<g id="Vector_11" style="mix-blend-mode:multiply" opacity="0.5">
<path d="M33.4246 5.32837C33.4706 7.64945 32.6121 10.1974 31.033 11.3656C29.8066 12.2855 26.0781 11.9175 26.0781 11.9175C26.0781 11.9175 29.4509 11.9697 30.567 11.289C32.5048 10.1024 33.0996 7.77209 33.4246 5.32837Z" fill="#B82774"/>
</g>
<path id="Vector_12" d="M26.3438 7.65882C26.3438 7.65882 27.1685 8.19847 29.1033 7.26636C28.8663 7.42522 28.611 7.55493 28.3429 7.65269C27.6346 7.91638 26.6166 8.11568 26.3438 7.65882Z" fill="url(#paint7_linear_567_12020)"/>
<g id="Vector_13" style="mix-blend-mode:multiply" opacity="0.8">
<path d="M32.0859 5.3162C32.0184 5.4971 31.9387 5.59522 31.8559 5.55842C31.3899 5.35912 31.6444 2.24085 28.4525 2.05381C25.2606 1.86678 23.0009 4.62938 22.7617 4.06521C22.7617 3.48877 22.7801 2.99512 22.8016 2.62718C24.5539 2.14866 26.3531 1.86183 28.1673 1.77173H28.431C29.8016 1.77173 30.5068 2.01702 30.8533 2.21938C31.5462 2.62412 32.0062 3.70647 32.0798 5.10463C32.0828 5.16596 32.0859 5.24261 32.0859 5.3162Z" fill="#B82774"/>
</g>
<g id="Vector_14" style="mix-blend-mode:multiply" opacity="0.8">
<path d="M24.8125 8.54795C24.8125 8.54795 25.6802 9.40647 27.6027 9.16118C28.8355 8.96509 29.9726 8.37823 30.8467 7.48706C30.8467 7.48706 29.9054 9.53525 27.6027 9.76215C25.3 9.98904 24.8125 8.54795 24.8125 8.54795Z" fill="#B82774"/>
</g>
<path id="Vector_15" d="M24.332 10.4612C25.6949 10.7249 27.0857 10.8156 28.4713 10.731C30.7096 10.5838 30.9243 9.55054 30.9243 9.55054C30.9243 9.55054 29.1551 11.1971 24.332 10.4612Z" fill="url(#paint8_linear_567_12020)"/>
<path id="Vector_16" d="M20.3789 2.00474C20.7497 2.07588 21.1266 2.11079 21.5042 2.10899C21.9315 1.95518 22.3492 1.77601 22.7552 1.57242C21.9369 1.40753 21.0866 1.56223 20.3789 2.00474Z" fill="#FFFFDB"/>
<g id="Vector_17" style="mix-blend-mode:soft-light">
<path d="M24.8368 10.5042C24.5854 10.5042 24.8153 11.2216 24.9012 11.2952C24.987 11.3688 25.7781 10.9457 25.6738 10.7586C25.5696 10.5716 25.1158 10.5042 24.8368 10.5042Z" fill="#FFFFDB"/>
</g>
<path id="Vector_18" d="M23.0627 13.6531C23.3824 13.7483 23.7096 13.816 24.0408 13.8554C24.4578 13.8922 24.5436 13.6531 24.5436 13.6531C24.5467 13.7572 24.5311 13.861 24.4977 13.9597C24.0359 13.9653 23.5748 13.9252 23.121 13.8401C23.0228 13.8248 23.0627 13.6531 23.0627 13.6531Z" fill="url(#paint9_linear_567_12020)"/>
<path id="Vector_19" d="M17.967 1.32723C17.967 1.32723 10.2434 14.1836 8.84214 14.4381C8.81926 14.4468 8.7945 14.4494 8.77031 14.4456C8.74612 14.4419 8.72332 14.4319 8.70416 14.4166C8.64538 14.3479 8.59012 14.2763 8.53859 14.202C7.75672 13.1902 6.63144 12.1937 6.81235 11.5958C6.8798 11.3658 7.8671 10.0474 9.13036 8.43457C10.3568 6.87084 11.8408 5.02501 12.9845 3.63911C13.5554 2.90788 14.1697 2.21163 14.8242 1.55413C15.2964 1.28124 17.2066 0.962362 17.967 1.32723Z" fill="url(#paint10_linear_567_12020)"/>
<path id="Vector_20" d="M10.2817 1.53857C10.2817 1.53857 8.63519 1.44966 7.87172 1.92491C7.10825 2.40017 5.4004 4.9604 5.52611 5.9753C5.65182 6.99019 9.55197 9.56576 9.55197 9.56576L11.7719 9.97969L8.15687 5.50925L10.4258 1.55391L10.2817 1.53857Z" fill="url(#paint11_linear_567_12020)"/>
<path id="Vector_21" d="M20.7232 6.69591C19.9921 7.6235 19.2068 8.50707 18.3715 9.342C19.5673 10.7248 20.4534 11.8685 20.6067 12.307C21.1341 13.7941 19.0736 15.3241 18.1722 15.7717C17.8165 15.9496 16.2466 14.7875 14.4315 13.2605C13.9715 13.6929 13.5116 14.0976 13.113 14.4594C13.0946 14.4594 13.0701 14.4931 13.0486 14.5146L12.9413 14.6066C11.8804 15.5264 11.0648 16.0967 10.8165 15.9863C10.007 15.6221 9.28616 15.0865 8.70389 14.4165C8.64511 14.3478 8.58985 14.2761 8.53832 14.2018C8.49539 14.1375 8.45553 14.07 8.41874 14.0025C8.28875 13.8049 8.20214 13.5819 8.16461 13.3483C8.12709 13.1147 8.1395 12.8758 8.20104 12.6473C8.33289 12.1997 9.16688 11.0069 10.2922 9.55356C9.86903 9.15189 9.47043 8.77476 9.13009 8.43441C8.65793 7.99836 8.21542 7.53127 7.80551 7.03625C6.31229 4.71211 9.38151 1.79006 10.286 1.53864C10.5681 1.46198 11.6351 2.34504 12.9842 3.63895C13.3767 4.00996 13.7876 4.42082 14.2107 4.84702C16.0044 2.82949 17.5835 1.24429 17.9667 1.32708C18.8805 1.53251 22.103 4.28898 20.7232 6.69591Z" fill="url(#paint12_linear_567_12020)"/>
<path id="Vector_22" d="M19.3828 5.54011C19.3694 5.64085 19.3382 5.73843 19.2908 5.82832C19.1314 6.04295 18.4415 6.84015 17.1445 8.18006L16.1112 9.27775L17.1016 10.4245C17.7966 11.1828 18.436 11.9903 19.0148 12.8406C18.7672 13.2713 18.4229 13.6387 18.0092 13.9138C17.9049 13.8463 17.7823 13.7605 17.632 13.6531C17.1813 13.3312 16.5098 12.81 15.5225 11.979L14.385 11.0224L14.0507 11.329L13.2873 12.0373C12.5269 12.776 11.7253 13.471 10.8865 14.1192C10.7611 14.037 10.6403 13.9479 10.5247 13.8524C10.2361 13.6573 9.99425 13.4008 9.81639 13.1012C10.3492 12.2179 10.9456 11.3745 11.6009 10.5778L12.5207 9.37586L11.4139 8.33643C10.0648 7.06398 9.33501 6.30358 9.1633 6.09815C9.09571 5.97432 9.05552 5.8374 9.04547 5.69668C9.03542 5.55596 9.05574 5.41473 9.10505 5.28255C9.28781 4.73693 9.59061 4.23924 9.99116 3.82613C10.0985 3.70655 10.2089 3.59616 10.2978 3.49805C10.8129 3.92424 11.6806 4.72451 12.9776 6.02149L13.8606 6.91681L14.2317 7.29088L15.4183 5.96017C16.3964 4.86248 17.12 4.10514 17.6259 3.61763C17.7547 3.48885 17.8742 3.37847 17.9724 3.28955C18.5432 3.74201 18.9887 4.33315 19.2663 5.0066C19.3447 5.17342 19.3845 5.35577 19.3828 5.54011Z" fill="url(#paint13_linear_567_12020)"/>
<path id="Vector_23" d="M16.4546 8.18293L15.406 9.27755L16.3964 10.4243C17.089 11.179 17.7254 11.9835 18.3004 12.8312C18.1352 13.1474 17.9042 13.4244 17.6228 13.6438C17.1721 13.3218 16.5006 12.8006 15.5133 11.9696L14.3758 11.013H13.6705L12.5759 12.0371C11.6101 12.9569 10.9509 13.5088 10.5155 13.8523C10.2303 13.6561 9.99161 13.3996 9.81639 13.101C10.3492 12.2177 10.9456 11.3743 11.6009 10.5776L12.5207 9.37567L11.4139 8.33624C10.0648 7.06379 9.33501 6.30338 9.1633 6.09795C9.09571 5.97412 9.05552 5.83721 9.04547 5.69649C9.03542 5.55577 9.05574 5.41453 9.10505 5.28235C9.28781 4.73673 9.59061 4.23905 9.99116 3.82593C10.5155 4.28892 11.2697 4.99107 12.2877 6.0213L13.5418 7.29069H14.247L15.4336 5.95997C16.4117 4.86229 17.1353 4.10495 17.6412 3.61743C18.0468 4.00666 18.361 4.48106 18.5611 5.0064C18.6181 5.13697 18.6459 5.27839 18.6428 5.42083C18.6396 5.56326 18.6054 5.70329 18.5427 5.83119C18.4261 6.04582 17.7363 6.84302 16.4546 8.18293Z" fill="url(#paint14_linear_567_12020)"/>
<path id="Vector_24" d="M13.9141 13.7419C13.9141 13.7419 16.367 15.4252 18.1668 15.7717C18.1668 15.7717 16.6337 15.2412 14.4322 13.2605L13.9141 13.7419Z" fill="url(#paint15_linear_567_12020)"/>
<path id="Vector_25" d="M7.875 1.91895C7.875 1.91895 8.53116 1.61234 9.89253 1.72272C11.2539 1.8331 13.624 4.25536 13.624 4.25536C13.624 4.25536 11.2999 1.77791 10.4598 1.42837C9.61964 1.07883 7.875 1.91895 7.875 1.91895Z" fill="url(#paint16_linear_567_12020)"/>
<path id="Vector_26" d="M14.7187 1.55396C14.7187 1.55396 13.4524 2.99199 13.5351 3.50097C13.6179 4.00995 14.6144 4.12953 15.6201 3.32007C16.6258 2.5106 17.9719 1.32707 17.9719 1.32707C17.9719 1.32707 16.7178 0.815018 14.7187 1.55396Z" fill="url(#paint17_linear_567_12020)"/>
<g id="Vector_27" style="mix-blend-mode:multiply" opacity="0.5">
<path d="M5.66797 6.31268C5.94392 4.93905 10.2948 9.55054 10.2948 9.55054C10.2948 9.55054 9.31669 9.41256 8.90276 9.11821C8.48883 8.82386 6.31493 7.37357 5.66797 6.31268Z" fill="#B82774"/>
</g>
<g id="Vector_28" style="mix-blend-mode:multiply" opacity="0.5">
<path d="M13.9141 13.742C13.9141 13.742 14.4844 13.3128 14.6837 13.4814C14.883 13.65 16.6184 15.1095 16.6153 15.2536C16.6123 15.3977 13.9141 13.742 13.9141 13.742Z" fill="#B82774"/>
</g>
<g id="Vector_29" style="mix-blend-mode:multiply" opacity="0.5">
<path d="M12.9416 14.6067C11.8807 15.5265 11.0651 16.0968 10.8167 15.9864C10.0072 15.6222 9.28643 15.0866 8.70416 14.4166C8.64538 14.3479 8.59012 14.2762 8.53859 14.2019C7.75672 13.1901 6.63144 12.1936 6.81235 11.5957C7.24325 12.4631 7.78317 13.272 8.41901 14.0026C8.55139 14.1559 8.69268 14.3013 8.84214 14.438C8.91879 14.5116 8.99545 14.5821 9.07517 14.6496C10.3875 15.7534 12.0432 15.3272 12.9416 14.6067Z" fill="#B82774"/>
</g>
<g id="Vector_30" style="mix-blend-mode:soft-light" opacity="0.3">
<path d="M5.79297 5.41442C5.83283 6.08284 6.93358 6.05218 7.17274 5.75476C7.4119 5.45735 7.27392 4.63869 8.51878 2.99523C9.76364 1.35177 6.85079 1.07888 5.79297 5.41442Z" fill="#FFFFB1"/>
</g>
<path id="Vector_31" d="M16.1094 9.27758C16.1094 9.27758 19.2001 6.10411 19.289 5.82202C18.4479 7.15753 17.3704 8.32853 16.1094 9.27758Z" fill="url(#paint18_linear_567_12020)"/>
<path id="Vector_32" d="M10.4102 7.34912C10.4102 7.34912 11.7593 9.13669 12.4522 9.28693L10.4102 7.34912Z" fill="url(#paint19_linear_567_12020)"/>
<g id="Vector_33" style="mix-blend-mode:multiply" opacity="0.8">
<path d="M19.3809 5.53989C19.3809 5.53989 18.832 5.93849 18.6818 5.75146C18.5315 5.56442 18.599 4.16319 17.2897 4.56486C15.9805 4.96652 14.7418 8.43128 14.2236 8.3117C13.7054 8.19212 12.3072 6.01821 11.4211 5.47857C10.535 4.93893 9.53544 4.42688 9.18283 6.0918C9.11524 5.96797 9.07505 5.83105 9.065 5.69034C9.05495 5.54962 9.07527 5.40838 9.12458 5.2762C9.30734 4.73058 9.61014 4.23289 10.0107 3.81978C10.118 3.7002 10.2284 3.58982 10.3173 3.4917C10.8324 3.9179 11.7001 4.71816 12.9971 6.01515L13.8802 6.91046L14.2512 7.28453L15.4378 5.95382C16.4159 4.85614 17.1395 4.0988 17.6454 3.61128C17.7742 3.48251 17.8938 3.37212 17.9919 3.2832C18.5627 3.73567 19.0082 4.3268 19.2858 5.00025C19.3578 5.17066 19.3903 5.35514 19.3809 5.53989Z" fill="#B82774"/>
</g>
<path id="Vector_34" d="M17.6795 1.23218C17.2471 1.56639 18.2651 1.9006 18.5993 1.8914C18.9335 1.8822 18.2559 1.30577 17.6795 1.23218Z" fill="#FFFFDB"/>
<path id="Vector_35" d="M9.81399 1.50796C9.20076 1.6398 9.22528 2.01694 9.50737 2.12119C9.78946 2.22544 10.8718 2.07519 10.8534 1.89429C10.835 1.71339 10.3383 1.39757 9.81399 1.50796Z" fill="#FFFFDB"/>
<g id="Vector_36" style="mix-blend-mode:soft-light">
<path d="M14.3025 11.1572C14.143 11.1572 13.3336 12.1292 14.6704 11.8502C15.0292 11.7705 14.7777 11.1572 14.3025 11.1572Z" fill="#FFFFDB"/>
</g>
<path id="Vector_37" d="M17.332 13.4415C17.5162 13.6484 17.7289 13.828 17.9637 13.975C18.2059 14.0792 18.9724 12.908 18.9724 12.908C18.9724 12.908 18.4604 13.6224 18.1507 13.7266C17.841 13.8309 17.332 13.4415 17.332 13.4415Z" fill="url(#paint20_linear_567_12020)"/>
<path id="Vector_38" d="M9.81641 13.1011C10.0376 13.5071 10.3366 13.8655 10.6964 14.1558C11.1808 14.4808 12.113 13.1011 12.113 13.1011C12.113 13.1011 11.2268 13.9841 10.8528 13.9811C10.4787 13.978 9.81641 13.1011 9.81641 13.1011Z" fill="url(#paint21_linear_567_12020)"/>
<path id="Vector_39" d="M5.06872 14.156H4.83262H4.76823C4.21939 14.1376 3.11251 14.0702 2.98373 13.8494C2.86167 13.5021 2.77937 13.1421 2.73844 12.7763C2.65259 12.2059 2.579 11.608 2.56674 11.5038H2.35211C1.76341 11.5038 0.159809 11.5038 0.0770224 11.3229C-0.00576371 11.142 -0.100815 9.13366 0.254859 8.97422C0.904576 8.81181 1.56571 8.69906 2.23253 8.63695H2.29078H2.34597C2.32451 8.54496 1.95657 6.82485 2.16201 6.39559C2.36744 5.96633 3.63376 5.74556 4.0017 5.70264L5.05339 13.9812L5.06872 14.156Z" fill="url(#paint22_linear_567_12020)"/>
<path id="Vector_40" d="M9.40842 9.97662C9.29497 10.6542 9.00982 11.3104 8.56523 11.4146C7.9457 11.4909 7.32214 11.5298 6.69794 11.5312C6.66514 12.1224 6.59653 12.7112 6.49251 13.2942C6.4775 13.3792 6.45387 13.4624 6.42199 13.5426C6.19203 14.0577 5.5236 14.1742 4.9349 14.1558H4.83372H4.76933C4.54391 14.1379 4.32095 14.0968 4.10398 14.0331C4.07271 14.0205 4.04747 13.9964 4.03345 13.9657C3.84642 13.702 3.68085 12.7208 3.549 11.5434C3.19946 11.5434 2.86832 11.522 2.56477 11.5005H2.54637C1.67865 11.4422 1.05929 11.3441 0.994897 11.1939C0.786399 10.6665 0.507379 9.26834 1.28005 8.84828C1.58611 8.73596 1.90575 8.66481 2.23056 8.63671H2.28881H2.344C2.62609 8.59992 2.95724 8.56619 3.29758 8.53553C3.24194 7.87274 3.22658 7.20718 3.25159 6.54253C3.27852 6.34189 3.36246 6.1532 3.49344 5.99885C3.62443 5.84449 3.79695 5.73097 3.99053 5.67174C4.86745 5.36513 6.22882 5.73306 6.55077 5.90477C6.73167 5.99982 6.80219 7.04231 6.80832 8.3301C8.21569 8.3117 9.05581 8.3301 9.22138 8.43434C9.46361 8.60298 9.5096 9.299 9.40842 9.97662Z" fill="url(#paint23_linear_567_12020)"/>
<path id="Vector_41" d="M0.246094 8.97112C0.552094 9.03043 0.867983 9.01358 1.16594 8.92206C1.51548 8.76262 3.31225 8.51733 3.31225 8.51733C3.31225 8.51733 1.31618 8.59092 0.246094 8.97112Z" fill="url(#paint24_linear_567_12020)"/>
<path id="Vector_42" d="M2.12257 6.49345C2.48744 5.96301 5.18872 5.34671 6.55316 5.90475C6.55316 5.90475 5.93993 5.45709 4.23515 5.54908C2.53037 5.64106 2.09191 6.23896 2.12257 6.49345Z" fill="url(#paint25_linear_567_12020)"/>
<g id="Vector_43" style="mix-blend-mode:multiply" opacity="0.5">
<path d="M0.0742188 11.3074C0.0742188 11.3074 1.32214 11.4208 2.3493 11.4883C1.7606 11.4913 0.157005 11.4821 0.0742188 11.3074Z" fill="#B82774"/>
</g>
<g id="Vector_44" style="mix-blend-mode:multiply" opacity="0.5">
<path d="M3.54674 11.5314C3.54674 11.5314 3.51607 13.1994 3.24012 13.3404C3.10521 13.4109 2.90284 13.1013 2.7342 12.7732C2.64835 12.2029 2.57476 11.605 2.5625 11.5007C2.9887 11.5253 3.35663 11.5406 3.54674 11.5314Z" fill="#B82774"/>
</g>
<g id="Vector_45" style="mix-blend-mode:multiply" opacity="0.5">
<path d="M6.49205 13.3003C6.47705 13.3853 6.45342 13.4685 6.42153 13.5487C6.19157 14.0638 5.52622 14.1803 4.93445 14.1619H4.83326H4.76888C4.22003 14.1435 3.11315 14.076 2.98438 13.8553C3.3319 13.9085 3.68188 13.9444 4.033 13.9626C4.36983 13.9871 4.708 13.9871 5.04483 13.9626C5.32681 13.954 5.60546 13.8991 5.86962 13.8001C6.11821 13.6924 6.33322 13.5198 6.49205 13.3003Z" fill="#B82774"/>
</g>
<path id="Vector_46" d="M6.80859 8.3301C6.80859 8.3301 7.29305 8.41595 8.14544 8.5294C8.99783 8.64284 9.19406 8.50487 9.19406 8.50487C9.19406 8.50487 9.04689 8.26571 6.80859 8.3301Z" fill="url(#paint26_linear_567_12020)"/>
<g id="Vector_47" style="mix-blend-mode:multiply" opacity="0.5">
<path d="M9.40579 9.98291C9.29234 10.6605 9.00719 11.3167 8.5626 11.4209C7.94307 11.4972 7.31952 11.5361 6.69531 11.5374C6.69531 11.5374 8.36636 11.4332 8.71284 11.2308C9.05932 11.0285 9.37819 10.0596 9.40579 9.98291Z" fill="#B82774"/>
</g>
<g id="Vector_48" style="mix-blend-mode:multiply" opacity="0.5">
<path d="M2.1229 6.49351C2.35286 6.1869 2.98756 6.24822 3.09181 6.29728C3.19605 6.34634 3.23898 8.3792 3.17459 8.44359C2.91641 8.5324 2.63956 8.55248 2.37126 8.50185C2.23942 8.43746 2.04625 6.73574 2.1229 6.49351Z" fill="#B82774"/>
</g>
<g id="Vector_49" style="mix-blend-mode:multiply" opacity="0.2">
<path d="M0.97634 9.11501C0.764775 9.97354 3.51818 11.6415 5.53571 11.3962C7.55324 11.1509 8.81649 9.28059 8.94833 8.99543C9.08018 8.71028 6.88175 8.5631 6.80203 8.44659C6.72231 8.33008 6.32678 6.33095 5.10645 6.15004C3.88612 5.96914 3.75121 7.7843 3.53964 8.57537C3.32808 9.36644 1.35654 8.50485 0.97634 9.11501Z" fill="#FF6355"/>
</g>
<path id="Vector_50" d="M3.23655 6.055C3.18239 6.0976 3.14001 6.15332 3.11341 6.21688C3.08681 6.28044 3.07687 6.34974 3.08455 6.41822C3.09223 6.48669 3.11726 6.55207 3.15727 6.60816C3.19729 6.66426 3.25096 6.70921 3.3132 6.73875C3.44505 6.78781 3.79152 6.03047 3.63515 5.95995C3.56644 5.93718 3.49275 5.93402 3.42234 5.95081C3.35193 5.9676 3.28759 6.00368 3.23655 6.055Z" fill="#FFFFDB"/>
<path id="Vector_51" d="M1.16355 8.90966C0.905994 8.81461 0.682165 9.31132 0.810943 9.52289C0.939722 9.73445 1.84117 9.15801 1.16355 8.90966Z" fill="#FFFFDB"/>
</g>
<defs>
<linearGradient id="paint0_linear_567_12020" x1="21.2954" y1="15.3179" x2="21.2954" y2="1.55396" gradientUnits="userSpaceOnUse">
<stop offset="0.05" stop-color="#FF4B00"/>
<stop offset="1" stop-color="#FF7204"/>
</linearGradient>
<linearGradient id="paint1_linear_567_12020" x1="27.4231" y1="15.3148" x2="27.4231" y2="0.419386" gradientUnits="userSpaceOnUse">
<stop stop-color="#FFA200"/>
<stop offset="1" stop-color="#FFB82F"/>
</linearGradient>
<linearGradient id="paint2_linear_567_12020" x1="27.4197" y1="13.9751" x2="27.4197" y2="1.75952" gradientUnits="userSpaceOnUse">
<stop stop-color="#FF7234"/>
<stop offset="1" stop-color="#FF5E00"/>
</linearGradient>
<linearGradient id="paint3_linear_567_12020" x1="27.168" y1="13.9473" x2="27.168" y2="1.76245" gradientUnits="userSpaceOnUse">
<stop stop-color="#DE0086"/>
<stop offset="1" stop-color="#FF003B"/>
</linearGradient>
<linearGradient id="paint4_linear_567_12020" x1="28.0533" y1="7.89487" x2="28.0533" y2="4.05299" gradientUnits="userSpaceOnUse">
<stop stop-color="#FFA200"/>
<stop offset="1" stop-color="#FFC234"/>
</linearGradient>
<linearGradient id="paint5_linear_567_12020" x1="28.0533" y1="7.89487" x2="28.0533" y2="4.05299" gradientUnits="userSpaceOnUse">
<stop stop-color="#FF7234"/>
<stop offset="1" stop-color="#FF5E00"/>
</linearGradient>
<linearGradient id="paint6_linear_567_12020" x1="24.51" y1="2.46466" x2="24.51" y2="-0.000522359" gradientUnits="userSpaceOnUse">
<stop stop-color="#FFDE00"/>
<stop offset="1" stop-color="#FFE834"/>
</linearGradient>
<linearGradient id="paint7_linear_567_12020" x1="27.7297" y1="7.93171" x2="27.7297" y2="7.26636" gradientUnits="userSpaceOnUse">
<stop stop-color="#FFDE00"/>
<stop offset="1" stop-color="#FFE834"/>
</linearGradient>
<linearGradient id="paint8_linear_567_12020" x1="27.6312" y1="10.7617" x2="27.6312" y2="9.55054" gradientUnits="userSpaceOnUse">
<stop stop-color="#FFDE00"/>
<stop offset="1" stop-color="#FFE834"/>
</linearGradient>
<linearGradient id="paint9_linear_567_12020" x1="23.0566" y1="13.8217" x2="24.5436" y2="13.8217" gradientUnits="userSpaceOnUse">
<stop stop-color="#FFDE00"/>
<stop offset="1" stop-color="#FFE834"/>
</linearGradient>
<linearGradient id="paint10_linear_567_12020" x1="12.3805" y1="14.4442" x2="12.3805" y2="1.16473" gradientUnits="userSpaceOnUse">
<stop stop-color="#FF5E00"/>
<stop offset="0.54" stop-color="#FF691C"/>
<stop offset="1" stop-color="#FFFF34"/>
</linearGradient>
<linearGradient id="paint11_linear_567_12020" x1="8.64439" y1="9.97969" x2="8.64439" y2="1.53244" gradientUnits="userSpaceOnUse">
<stop offset="0.05" stop-color="#FF4B00"/>
<stop offset="1" stop-color="#FF7204"/>
</linearGradient>
<linearGradient id="paint12_linear_567_12020" x1="14.2322" y1="15.9986" x2="14.2322" y2="1.32401" gradientUnits="userSpaceOnUse">
<stop stop-color="#FFA200"/>
<stop offset="1" stop-color="#FFB82F"/>
</linearGradient>
<linearGradient id="paint13_linear_567_12020" x1="14.2317" y1="14.1223" x2="14.2317" y2="3.28955" gradientUnits="userSpaceOnUse">
<stop stop-color="#FF7234"/>
<stop offset="1" stop-color="#FF5E00"/>
</linearGradient>
<linearGradient id="paint14_linear_567_12020" x1="13.879" y1="13.8553" x2="13.879" y2="3.61743" gradientUnits="userSpaceOnUse">
<stop stop-color="#DE0086"/>
<stop offset="1" stop-color="#FF003B"/>
</linearGradient>
<linearGradient id="paint15_linear_567_12020" x1="16.0389" y1="15.7717" x2="16.0389" y2="13.2605" gradientUnits="userSpaceOnUse">
<stop offset="0.05" stop-color="#FF4B00"/>
<stop offset="1" stop-color="#FF7204"/>
</linearGradient>
<linearGradient id="paint16_linear_567_12020" x1="10.7511" y1="4.26149" x2="10.7511" y2="1.34865" gradientUnits="userSpaceOnUse">
<stop stop-color="#FFDE00"/>
<stop offset="1" stop-color="#FFE834"/>
</linearGradient>
<linearGradient id="paint17_linear_567_12020" x1="15.7428" y1="3.9057" x2="15.7428" y2="1.15536" gradientUnits="userSpaceOnUse">
<stop stop-color="#FFDE00"/>
<stop offset="1" stop-color="#FFE834"/>
</linearGradient>
<linearGradient id="paint18_linear_567_12020" x1="17.7007" y1="9.28677" x2="17.7007" y2="5.83122" gradientUnits="userSpaceOnUse">
<stop stop-color="#FFDE00"/>
<stop offset="1" stop-color="#FFE834"/>
</linearGradient>
<linearGradient id="paint19_linear_567_12020" x1="11.4312" y1="9.28693" x2="11.4312" y2="7.34912" gradientUnits="userSpaceOnUse">
<stop stop-color="#FFDE00"/>
<stop offset="1" stop-color="#FFE834"/>
</linearGradient>
<linearGradient id="paint20_linear_567_12020" x1="17.332" y1="13.4445" x2="18.9724" y2="13.4445" gradientUnits="userSpaceOnUse">
<stop stop-color="#FFDE00"/>
<stop offset="1" stop-color="#FFE834"/>
</linearGradient>
<linearGradient id="paint21_linear_567_12020" x1="9.82867" y1="13.653" x2="12.1252" y2="13.653" gradientUnits="userSpaceOnUse">
<stop stop-color="#FFDE00"/>
<stop offset="1" stop-color="#FFE834"/>
</linearGradient>
<linearGradient id="paint22_linear_567_12020" x1="2.52994" y1="14.156" x2="2.52994" y2="5.67198" gradientUnits="userSpaceOnUse">
<stop offset="0.05" stop-color="#FF4B00"/>
<stop offset="1" stop-color="#FF7204"/>
</linearGradient>
<linearGradient id="paint23_linear_567_12020" x1="5.11581" y1="14.1558" x2="5.11581" y2="5.54603" gradientUnits="userSpaceOnUse">
<stop stop-color="#FFA200"/>
<stop offset="1" stop-color="#FFC234"/>
</linearGradient>
<linearGradient id="paint24_linear_567_12020" x1="1.76997" y1="8.99565" x2="1.76997" y2="8.50507" gradientUnits="userSpaceOnUse">
<stop stop-color="#FFDE00"/>
<stop offset="1" stop-color="#FFE834"/>
</linearGradient>
<linearGradient id="paint25_linear_567_12020" x1="4.33633" y1="6.49345" x2="4.33633" y2="5.53681" gradientUnits="userSpaceOnUse">
<stop stop-color="#FFDE00"/>
<stop offset="1" stop-color="#FFE834"/>
</linearGradient>
<linearGradient id="paint26_linear_567_12020" x1="8.00133" y1="8.57539" x2="8.00133" y2="8.3209" gradientUnits="userSpaceOnUse">
<stop stop-color="#FFDE00"/>
<stop offset="1" stop-color="#FFE834"/>
</linearGradient>
</defs>
</svg>
