<svg width="31" height="30" viewBox="0 0 31 30" fill="none" xmlns="http://www.w3.org/2000/svg">
<g id="Group 1261160114">
<path id="Vector" d="M9.96094 4.33866C9.96094 4.33866 10.9596 0.946595 12.9605 0.105587C14.9614 -0.735421 17.3513 3.71141 16.5839 4.1179C15.8165 4.52438 15.3119 2.01538 13.6964 1.45821C11.72 0.781898 12.5681 5.58265 9.96094 4.33866Z" fill="url(#paint0_linear_567_12072)"/>
<path id="Vector_2" d="M30.7756 17.8056V17.9072C30.7756 17.9072 30.7756 17.9072 30.7756 17.9352V17.9773C30.1063 24.8315 23.2837 29.9967 15.4132 29.9967C15.1119 29.9967 14.814 29.9967 14.5161 29.9757C6.98912 29.6252 0.600963 24.5021 0.0402913 17.8231C-0.499356 11.4209 4.43456 5.70206 11.6742 4.15671C12.9015 3.89909 14.1522 3.76991 15.4062 3.77125C15.8933 3.77125 16.3734 3.78877 16.8499 3.82731C19.8858 4.03582 22.8076 5.06669 25.3021 6.80939C25.2974 7.16261 25.422 7.50536 25.6525 7.77305C25.806 7.87368 25.9784 7.94177 26.1592 7.97311C26.3401 8.00445 26.5254 7.99837 26.7038 7.95526C27.1142 8.33344 27.5016 8.73598 27.8636 9.16071C29.4096 10.9394 30.4001 13.1324 30.7126 15.4683C30.8135 16.2432 30.8347 17.0264 30.7756 17.8056Z" fill="url(#paint1_linear_567_12072)"/>
<path id="Vector_3" d="M30.8422 17.2763C30.8211 17.49 30.8001 17.7038 30.7686 17.914C30.7686 17.914 30.7686 17.914 30.7686 17.9421V17.9771C29.84 24.53 23.6515 29.4113 16.5625 29.4113H16.1911C9.66278 29.2536 4.0105 24.947 2.69993 19.0459L2.62634 18.6955C2.53842 18.2322 2.47758 17.7642 2.44413 17.2938C2.03414 11.4593 5.85371 6.19598 11.6672 4.17756C12.3357 3.94664 13.0195 3.76281 13.7136 3.6274C15.7062 3.22345 17.7592 3.22022 19.753 3.6179C21.7468 4.01557 23.6415 4.8062 25.3266 5.94368C25.3266 5.94368 25.3266 6.01727 25.3055 6.13992C25.3055 6.19598 25.3055 6.25906 25.3055 6.32914C25.2934 6.4866 25.2934 6.64476 25.3055 6.80221C25.3008 7.15543 25.4254 7.49818 25.656 7.76587C25.8094 7.8665 25.9819 7.93459 26.1627 7.96593C26.3435 7.99727 26.5288 7.9912 26.7072 7.94809C26.7992 7.93526 26.8904 7.91771 26.9805 7.89552C27.0433 7.88257 27.1053 7.8662 27.1663 7.84646C27.3275 7.80441 27.4291 7.76587 27.4291 7.76587C28.759 9.16628 29.7524 10.8512 30.3341 12.6928C30.3901 12.8715 30.4427 13.0432 30.4847 13.2289C30.4957 13.26 30.505 13.2915 30.5128 13.3235C30.5408 13.4392 30.5688 13.5583 30.5899 13.6739C30.6109 13.7896 30.6319 13.8527 30.6319 13.8527C30.8668 14.9777 30.9376 16.1309 30.8422 17.2763Z" fill="url(#paint2_linear_567_12072)"/>
<path id="Vector_4" d="M26.2024 17.2761C25.9256 21.9787 21.6259 25.6161 16.5869 25.6161C16.027 25.6153 15.468 25.5696 14.9154 25.4794C10.6543 24.7786 7.27974 21.4566 7.09052 17.2761C6.93984 13.9716 8.80757 10.9896 11.7511 9.36361C13.2694 8.53058 14.9743 8.09652 16.706 8.1021C22.2462 8.0951 26.4933 12.3142 26.2024 17.2761Z" fill="url(#paint3_linear_567_12072)"/>
<path id="Vector_5" d="M24.0403 17.5321C23.8301 22.0035 19.7722 25.4727 14.968 25.4727H14.9154C10.6543 24.7718 7.27974 21.4498 7.09052 17.2693C6.93984 13.9649 8.80757 10.9828 11.7511 9.35685C12.7736 9.00979 13.8462 8.8334 14.9259 8.83472C20.1857 8.83472 24.2786 12.8295 24.0403 17.5321Z" fill="url(#paint4_linear_567_12072)"/>
<path id="Vector_6" d="M2.78373 9.353C2.78373 9.353 11.4531 -1.26123 23.9035 5.07437C23.9035 5.07437 13.3909 -1.18763 4.5113 9.6018C4.5113 9.6018 2.31768 10.5269 2.78373 9.353Z" fill="url(#paint5_linear_567_12072)"/>
<path id="Vector_7" d="M24.4928 17.6613C24.5419 16.6801 21.2199 17.409 21.3145 18.0608C21.4091 18.7125 24.4017 19.487 24.4928 17.6613Z" fill="#FF9000"/>
<g id="Vector_8" style="mix-blend-mode:multiply" opacity="0.5">
<path d="M21.3203 18.0611C21.492 17.7667 22.2805 18.4886 23.2126 18.5762C24.1447 18.6638 24.3304 18.2258 24.3304 18.2258C24.3277 18.4465 24.2596 18.6614 24.1349 18.8435C24.0102 19.0256 23.8344 19.1667 23.6296 19.249C22.9217 19.5083 21.4114 18.2889 21.3203 18.0611Z" fill="#B82774"/>
</g>
<g id="Vector_9" style="mix-blend-mode:soft-light">
<path d="M22.0039 17.7387C21.6815 18.0156 22.8695 18.0892 23.3355 17.7387C23.8016 17.3883 22.7013 17.136 22.0039 17.7387Z" fill="white"/>
</g>
<path id="Vector_10" d="M15.391 8.32279C13.6389 8.46646 15.2684 11.3259 15.5277 11.3434C15.787 11.3609 17.1677 8.1651 15.391 8.32279Z" fill="#FF9000"/>
<g id="Vector_11" style="mix-blend-mode:multiply" opacity="0.5">
<path d="M16.1489 10.0923C16.1489 10.0923 15.7038 11.1961 15.448 11.0559C15.1922 10.9158 14.5404 9.25126 14.8068 8.57495C15.0731 7.89864 14.3162 8.5364 14.4248 9.55963C14.5334 10.5829 15.2798 11.4589 15.5391 11.5675C15.7985 11.6762 16.1489 10.0923 16.1489 10.0923Z" fill="#B82774"/>
</g>
<g id="Vector_12" style="mix-blend-mode:soft-light">
<path d="M15.7592 8.48405C15.0864 8.41747 15.7977 9.4477 16.015 9.58086C16.2323 9.71402 16.4951 8.56114 15.7592 8.48405Z" fill="white"/>
</g>
<path id="Vector_13" d="M7.10156 17.7034C7.10156 17.7034 9.47741 17.8435 9.6316 18.208C9.78578 18.5724 7.42745 19.3118 7.42745 19.3118C7.29103 18.7817 7.18226 18.2448 7.10156 17.7034Z" fill="#FF9000"/>
<g id="Vector_14" style="mix-blend-mode:multiply" opacity="0.5">
<path d="M9.64895 18.2083C9.64895 18.2083 9.40014 18.7409 7.40625 19.1789L7.68308 19.9744C7.68308 19.9744 9.44921 19.3156 9.64895 18.2083Z" fill="#B82774"/>
</g>
<g id="Vector_15" style="mix-blend-mode:soft-light">
<path d="M7.73566 17.8226C7.07687 18.145 8.91658 18.4183 9.07777 18.2045C9.23897 17.9908 7.99146 17.6964 7.73566 17.8226Z" fill="white"/>
</g>
<path id="Vector_16" d="M15.9299 25.5703C14.4301 25.5703 15.7512 23.1875 16.0386 23.1174C16.3259 23.0473 17.5068 25.5703 15.9299 25.5703Z" fill="#FF9000"/>
<g id="Vector_17" style="mix-blend-mode:multiply" opacity="0.5">
<path d="M15.8664 23.2896C15.8664 23.2896 15.1445 24.6912 15.4389 25.2169C15.7332 25.7425 16.5672 25.364 16.5672 25.364C16.5672 25.364 16.3605 25.7145 15.2356 25.4937C14.1108 25.2729 15.8664 23.2896 15.8664 23.2896Z" fill="#B82774"/>
</g>
<g id="Vector_18" style="mix-blend-mode:soft-light">
<path d="M16.2618 23.3173C15.9394 23.1982 16.0866 24.0917 16.4195 24.1548C16.7524 24.2179 16.2618 23.3173 16.2618 23.3173Z" fill="white"/>
</g>
<g id="Vector_19" style="mix-blend-mode:multiply" opacity="0.5">
<path d="M17.616 18.0818L17.0763 18.8913C16.6614 19.1324 16.1855 19.2481 15.7062 19.2242C14.4377 19.0139 14.1293 17.7034 14.1293 17.7034C14.1293 17.7034 14.0592 20.3525 15.7868 20.8151C16.6734 21.0499 17.2936 20.349 17.6966 19.6097C18.569 19.5096 19.412 19.233 20.174 18.7967C21.2253 18.1099 17.616 18.0818 17.616 18.0818Z" fill="#B82774"/>
</g>
<path id="Vector_20" d="M17.6666 16.761C17.6666 16.761 20.5891 17.0764 20.95 17.7246C21.3109 18.3729 16.6328 19.0282 16.6328 19.0282C17.2635 18.4388 17.6351 17.6236 17.6666 16.761Z" fill="#4A0E7C"/>
<g id="Vector_21" style="mix-blend-mode:multiply" opacity="0.8">
<path d="M17.6596 16.761C17.6596 16.761 18.83 17.206 18.7985 17.8613C18.7669 18.5166 16.7695 19.0142 16.7695 19.0142C17.0643 18.7196 17.2955 18.3676 17.4486 17.98C17.6017 17.5924 17.6735 17.1775 17.6596 16.761Z" fill="#9865D3"/>
</g>
<g id="Vector_22" style="mix-blend-mode:soft-light" opacity="0.5">
<path d="M18.8983 17.0693C18.5478 17.0693 18.8983 17.9068 19.4519 18.0365C20.0056 18.1661 20.8746 17.9383 20.8221 17.686C20.7695 17.4337 19.3713 17.0588 18.8983 17.0693Z" fill="white"/>
</g>
<g id="Vector_23" style="mix-blend-mode:multiply" opacity="0.5">
<path d="M14.4609 18.4673C14.0825 18.2781 12.4145 14.4691 14.7728 10.9053C16.0904 8.92191 15.6699 12.8291 15.8661 14.5637C16.0623 16.2982 14.4609 18.4673 14.4609 18.4673Z" fill="#B82774"/>
</g>
<path id="Vector_24" d="M14.7708 16.7787L14.14 17.1886C14.14 17.1886 13.7511 10.1137 15.7449 9.60205L14.7708 16.7787Z" fill="#40005E"/>
<path id="Vector_25" d="M14.7641 16.7784C14.7641 16.7784 14.4522 11.6938 15.4649 9.84705C16.1167 8.66613 16.8491 11.7919 17.1925 14.2658C17.3145 15.1625 17.3777 16.0662 17.3817 16.9711C17.0264 16.6574 16.5781 16.4687 16.1053 16.4339C15.6326 16.3991 15.1615 16.5201 14.7641 16.7784Z" fill="#4A0E7C"/>
<g id="Vector_26" style="mix-blend-mode:multiply" opacity="0.8">
<path d="M14.1846 17.5323C14.1101 16.1793 14.116 14.8232 14.2022 13.4709C14.3599 12.2199 14.6612 11.6873 14.7558 11.6487C14.8504 11.6102 14.6822 15.2791 14.7208 15.9834C14.7593 16.6878 14.7628 16.8279 14.7628 16.8279L14.1846 17.5323Z" fill="#B8659F"/>
</g>
<g id="Vector_27" style="mix-blend-mode:soft-light" opacity="0.5">
<path d="M15.201 10.8597C15.0717 11.5749 15.0922 12.3092 15.2611 13.016C15.4299 13.7229 15.7436 14.3871 16.1822 14.9667C17.2334 16.2877 16.883 13.2846 16.5852 11.536C16.2873 9.78744 15.5724 9.18472 15.201 10.8597Z" fill="white"/>
</g>
<path id="Vector_28" d="M17.7961 17.5739C17.8065 17.9332 17.7095 18.2874 17.5173 18.5912C17.3252 18.895 17.0467 19.1344 16.7176 19.2789C16.3885 19.4234 16.0237 19.4663 15.6701 19.4022C15.3164 19.338 14.99 19.1697 14.7326 18.9188C14.4752 18.668 14.2985 18.3459 14.2253 17.994C14.1521 17.6421 14.1857 17.2764 14.3217 16.9437C14.4576 16.611 14.6899 16.3264 14.9886 16.1266C15.2874 15.9267 15.639 15.8206 15.9984 15.8218C16.4685 15.8181 16.921 16 17.2576 16.3281C17.5943 16.6562 17.7878 17.1039 17.7961 17.5739Z" fill="url(#paint6_linear_567_12072)"/>
<path id="Vector_29" d="M17.8017 17.5741C17.7718 17.8824 17.6529 18.1754 17.4596 18.4174C17.2662 18.6594 17.0067 18.8399 16.7126 18.9371C16.4185 19.0343 16.1025 19.044 15.803 18.9648C15.5036 18.8857 15.2336 18.7213 15.0258 18.4915C14.8181 18.2617 14.6817 17.9765 14.6331 17.6706C14.5845 17.3647 14.6258 17.0513 14.7521 16.7685C14.8784 16.4856 15.0842 16.2456 15.3444 16.0776C15.6046 15.9095 15.908 15.8208 16.2178 15.822C16.659 15.8474 17.0726 16.0454 17.369 16.3733C17.6654 16.7012 17.8208 17.1326 17.8017 17.5741Z" fill="url(#paint7_linear_567_12072)"/>
<g id="Vector_30" style="mix-blend-mode:multiply" opacity="0.2">
<path d="M14.9535 16.7923C14.8379 17.2689 17.0771 17.8436 17.4906 17.9627C17.9041 18.0819 17.6728 16.4244 16.7197 16.0775C15.7665 15.7306 14.9535 16.7923 14.9535 16.7923Z" fill="#AB5455"/>
</g>
<g id="Vector_31" style="mix-blend-mode:multiply" opacity="0.5">
<path d="M7.104 17.2764C7.104 17.711 11.4142 13.3763 16.243 12.9698C21.0717 12.5633 23.1322 16.3513 24.9369 16.5336C26.7415 16.7158 23.8856 7.35955 15.9766 8.12347C8.12723 8.88388 6.99888 14.5712 7.104 17.2764Z" fill="#923B66"/>
</g>
<path id="Vector_32" d="M17.0625 8.48438C17.0625 8.48438 22.8619 8.62804 25.2939 13.979C25.2939 13.979 21.8422 15.7311 19.547 14.5046C17.2517 13.2781 17.0625 8.48438 17.0625 8.48438Z" fill="white"/>
<path id="Vector_33" d="M8.89844 21.0219C10.3877 20.1633 14.6208 23.8252 14.6453 24.7994C14.6699 25.7736 9.50116 23.7201 8.89844 21.0219Z" fill="white"/>
<g id="Vector_34" style="mix-blend-mode:soft-light">
<path d="M30.5796 16.4597C30.5796 16.4597 28.2809 18.3274 27.545 14.9459C26.7776 11.4417 21.7175 4.13891 11.9618 8.95719C2.67218 13.5442 9.02881 22.1856 8.06865 22.2066C7.1085 22.2276 3.35901 21.4216 2.70372 19.0248L2.63013 18.6743C1.81015 12.5105 6.05023 4.95189 16.8432 3.82003C17.0289 3.79901 17.2181 3.77798 17.4109 3.76397H17.4319C20.8485 3.48363 23.389 4.53489 25.2988 6.13981C25.2988 6.19588 25.2988 6.25895 25.2988 6.32904C25.2866 6.48649 25.2866 6.64465 25.2988 6.80211C25.2941 7.15533 25.4187 7.49808 25.6492 7.76576C25.8027 7.86639 25.9752 7.93448 26.156 7.96583C26.3368 7.99717 26.5221 7.99109 26.7005 7.94798C26.7924 7.93516 26.8837 7.91761 26.9738 7.89542C27.2908 8.29919 27.5867 8.71909 27.8604 9.15343C29.2239 11.3934 30.1469 13.8733 30.5796 16.4597Z" fill="#B6D3FF"/>
</g>
<g id="Vector_35" style="mix-blend-mode:multiply" opacity="0.5">
<path d="M5.56866 26.7973C5.50558 26.4644 6.78812 26.2051 7.05444 26.2296C7.32076 26.2542 9.95241 28.5319 13.5337 29.3834C17.115 30.2349 10.4325 30.4347 5.56866 26.7973Z" fill="#923B66"/>
</g>
<g id="Vector_36" style="mix-blend-mode:soft-light">
<path d="M2.02266 23.1876C1.62669 22.7706 0.214497 19.743 0.326632 18.7969C0.438766 17.8507 1.99463 17.4583 2.14181 17.5319C2.28898 17.6055 3.00384 21.0606 4.24433 23.1386C5.48481 25.2166 2.02266 23.1876 2.02266 23.1876Z" fill="#B6D3FF"/>
</g>
<g id="Vector_37" style="mix-blend-mode:multiply" opacity="0.5">
<path d="M0.223937 14.5778C-0.0318696 15.8323 2.15125 15.1735 2.34398 14.9283C2.53672 14.683 3.1114 12.1249 3.59848 11.1823C4.08557 10.2396 2.29843 10.7407 2.29843 10.7407C2.29843 10.7407 0.798626 11.757 0.223937 14.5778Z" fill="#923B66"/>
</g>
<g id="Vector_38" style="mix-blend-mode:multiply" opacity="0.8">
<path d="M30.8405 17.2763C30.823 17.5005 30.7984 17.7213 30.7669 17.9421V17.9771C30.0976 24.8313 23.2749 30 15.4045 30C15.1031 30 14.8053 30 14.5074 29.9755L14.2656 29.6251C14.2656 29.6251 15.026 29.576 16.1894 29.4043C18.6249 29.0539 23.2574 28.1078 26.0923 25.9176C29.4318 23.3421 30.7073 19.0494 30.7319 15.4961C30.7443 14.7719 30.6726 14.0487 30.5181 13.3411C30.8455 14.6254 30.9544 15.9557 30.8405 17.2763Z" fill="#923B66"/>
</g>
<g id="Vector_39" style="mix-blend-mode:multiply" opacity="0.4">
<path d="M29.0337 19.6938C28.6833 17.8786 25.575 20.9413 22.2496 23.8989C19.0362 26.7758 10.0619 28.2931 14.5403 29.2533C17.3717 29.891 30.3653 26.7373 29.0337 19.6938Z" fill="#B82774"/>
</g>
<path id="Vector_40" d="M9.99609 23.1874C9.99609 23.1874 12.449 26.0784 16.4473 26.2256C20.4456 26.3728 23.6695 22.7529 23.6695 22.7529C23.6695 22.7529 20.3545 25.5563 16.5805 25.6089C12.9887 25.6439 9.99609 23.1874 9.99609 23.1874Z" fill="#9F81FF"/>
<path id="Vector_41" d="M17.6136 25.7741C16.9478 25.6655 18.8226 25.1889 19.4428 25.0943C20.0631 24.9997 19.8633 26.2332 17.6136 25.7741Z" fill="white"/>
<path id="Vector_42" d="M5.40254 7.43306C4.89443 8.66654 7.78189 6.16454 10.1297 4.95909C12.4775 3.75365 6.31714 5.2184 5.40254 7.43306Z" fill="white"/>
<path id="Vector_43" style="mix-blend-mode:screen" opacity="0.72" d="M25.8712 17.4128C25.6014 22.0314 21.3753 25.6092 16.4098 25.6092C15.8594 25.6076 15.3099 25.5631 14.7664 25.476C10.5789 24.7997 7.26038 21.5198 7.07466 17.4163C6.92748 14.1679 8.76017 11.2349 11.6546 9.63701C13.1472 8.81821 14.8231 8.3914 16.5255 8.39653C21.985 8.39303 26.1585 12.542 25.8712 17.4128Z" fill="url(#paint8_radial_567_12072)"/>
<g id="Vector_44" style="mix-blend-mode:multiply" opacity="0.8">
<path d="M25.3247 5.94345C25.3247 5.94345 25.3247 6.01703 25.3036 6.13968C25.3036 6.19575 25.3247 5.87336 25.3247 5.94345C24.9742 5.71217 24.5362 5.71918 24.1402 5.51593C21.9466 4.38408 19.5532 4.00212 17.4367 3.76383C16.2025 3.6256 14.9604 3.57057 13.7188 3.59914C15.712 3.20019 17.7648 3.20201 19.7574 3.60449C21.75 4.00698 23.6425 4.80208 25.3247 5.94345Z" fill="#923B66"/>
</g>
<path id="Vector_45" d="M8.18898 14.7533C7.97523 13.3517 9.44349 11.8694 10.26 11.568C11.0764 11.2667 8.18898 14.7533 8.18898 14.7533Z" fill="white"/>
<g id="Vector_46" style="mix-blend-mode:multiply" opacity="0.5">
<path d="M13.109 1.36365C12.6184 1.24801 13.5995 0.375467 14.2829 0.533156C14.9662 0.690845 15.5479 1.93484 15.3341 2.30628C15.1204 2.67773 14.0446 1.24451 13.109 1.36365Z" fill="#6E3B66"/>
</g>
<g id="Vector_47" style="mix-blend-mode:soft-light">
<path d="M11.168 2.14841C11.2205 2.77917 13.0602 0.960487 13.691 0.603058C14.3218 0.24563 12.037 -0.308033 11.168 2.14841Z" fill="white"/>
</g>
<g id="Vector_48" style="mix-blend-mode:multiply" opacity="0.5">
<path d="M17.9315 7.40479C15.391 7.70615 21.5759 8.10562 24.3372 11.7675C26.9969 15.2927 27.0425 14.0417 27.0425 14.0417C27.0425 14.0417 25.4901 7.76922 17.9315 7.40479Z" fill="#923B66"/>
</g>
<path id="Vector_49" d="M3.13281 21.6038C3.13281 20.4019 4.63611 21.6319 5.15473 22.8583C5.67335 24.0848 3.63041 23.8395 3.13281 21.6038Z" fill="#4F0086"/>
<g id="Vector_50" style="mix-blend-mode:multiply" opacity="0.5">
<path d="M3.51543 22.3505C3.86585 22.9182 4.72789 22.701 4.91711 22.701C5.10634 22.701 4.27584 21.2818 3.64509 21.1381C3.01433 20.9944 3.31569 22.0317 3.51543 22.3505Z" fill="#912774"/>
</g>
<path id="Vector_51" d="M3.95312 23.1493C3.95312 23.1493 4.52081 23.6188 4.94131 23.4997C5.36182 23.3805 5.16208 22.8479 5.16208 22.8479C5.16208 22.8479 5.48095 23.4857 5.24267 23.7099C5.00438 23.9342 4.13184 23.3525 3.95312 23.1493Z" fill="url(#paint9_linear_567_12072)"/>
<path id="Vector_52" d="M25.3239 5.9436C25.3239 5.9436 26.7711 7.47143 27.4264 7.76579C26.9148 8.05099 26.3258 8.16633 25.7444 8.09518C24.9349 7.93049 25.3239 5.9436 25.3239 5.9436Z" fill="url(#paint10_linear_567_12072)"/>
<g id="Vector_53" style="mix-blend-mode:multiply" opacity="0.5">
<path d="M25.2973 6.13989C25.2973 6.13989 26.0262 6.65851 26.1593 7.25423C26.2925 7.84994 25.8089 7.85345 25.434 7.66422C25.059 7.475 25.2973 6.13989 25.2973 6.13989Z" fill="#923B66"/>
</g>
</g>
<defs>
<linearGradient id="paint0_linear_567_12072" x1="9.96094" y1="2.27819" x2="16.7311" y2="2.27819" gradientUnits="userSpaceOnUse">
<stop stop-color="#1D0066"/>
<stop offset="1" stop-color="#93003B"/>
</linearGradient>
<linearGradient id="paint1_linear_567_12072" x1="-0.0122717" y1="16.8735" x2="30.8142" y2="16.8735" gradientUnits="userSpaceOnUse">
<stop stop-color="#3D069A"/>
<stop offset="1" stop-color="#6509BA"/>
</linearGradient>
<linearGradient id="paint2_linear_567_12072" x1="9.95363" y1="27.929" x2="23.3432" y2="4.73824" gradientUnits="userSpaceOnUse">
<stop stop-color="#902EF6"/>
<stop offset="1" stop-color="#682EFF"/>
</linearGradient>
<linearGradient id="paint3_linear_567_12072" x1="16.65" y1="25.6091" x2="16.65" y2="8.0951" gradientUnits="userSpaceOnUse">
<stop stop-color="#FF003B"/>
<stop offset="1" stop-color="#DE0086"/>
</linearGradient>
<linearGradient id="paint4_linear_567_12072" x1="15.5637" y1="25.4727" x2="15.5637" y2="8.83472" gradientUnits="userSpaceOnUse">
<stop stop-color="#F8E1F2"/>
<stop offset="1" stop-color="#FFBAD2"/>
</linearGradient>
<linearGradient id="paint5_linear_567_12072" x1="2.71715" y1="6.50058" x2="23.9035" y2="6.50058" gradientUnits="userSpaceOnUse">
<stop stop-color="#8963CF"/>
<stop offset="1" stop-color="#926DFF"/>
</linearGradient>
<linearGradient id="paint6_linear_567_12072" x1="15.9914" y1="19.305" x2="15.9914" y2="15.8078" gradientUnits="userSpaceOnUse">
<stop stop-color="#83003B"/>
<stop offset="1" stop-color="#DE0057"/>
</linearGradient>
<linearGradient id="paint7_linear_567_12072" x1="16.2108" y1="19.3052" x2="16.2108" y2="15.808" gradientUnits="userSpaceOnUse">
<stop stop-color="#DE0086"/>
<stop offset="1" stop-color="#FF003B"/>
</linearGradient>
<radialGradient id="paint8_radial_567_12072" cx="0" cy="0" r="1" gradientUnits="userSpaceOnUse" gradientTransform="translate(20.0227 12.8399) scale(10.7018)">
<stop offset="0.02" stop-color="#F1F9FE"/>
<stop offset="1"/>
</radialGradient>
<linearGradient id="paint9_linear_567_12072" x1="3.94612" y1="23.3175" x2="5.32327" y2="23.3175" gradientUnits="userSpaceOnUse">
<stop stop-color="#8963CF"/>
<stop offset="1" stop-color="#926DFF"/>
</linearGradient>
<linearGradient id="paint10_linear_567_12072" x1="25.6708" y1="8.07766" x2="26.5083" y2="6.63043" gradientUnits="userSpaceOnUse">
<stop stop-color="#902EF6"/>
<stop offset="1" stop-color="#682EFF"/>
</linearGradient>
</defs>
</svg>
