<svg width="25" height="30" viewBox="0 0 25 30" fill="none" xmlns="http://www.w3.org/2000/svg">
<g id="Group 1261160111">
<path id="Vector" d="M17.6902 2.41176C17.6902 2.41176 16.7335 2.09288 16.301 6.53885C15.8685 10.9848 18.1337 4.47897 18.0604 3.95117C17.9715 3.43033 17.8479 2.91604 17.6902 2.41176Z" fill="#CC0040"/>
<path id="Vector_2" d="M5.46938 27.9876C5.46585 28.1916 5.43879 28.3945 5.38875 28.5924C5.14318 29.4904 2.87804 30.3774 1.84809 29.7213C1.69794 29.6086 1.59272 29.4462 1.55121 29.2631C1.12604 27.8447 2.04235 23.7176 1.84809 17.5342C1.65665 12.7396 1.2027 7.95902 0.488281 3.21403C0.488281 3.21403 6.03384 -0.451243 7.54393 1.01487C7.54393 1.01487 5.5097 15.3094 5.38875 20.9759C5.28979 25.4879 5.50237 27.0713 5.46938 27.9876Z" fill="url(#paint0_linear_567_11902)"/>
<path id="Vector_3" d="M0.4885 3.20326C1.00164 6.80623 7.2436 3.48916 7.54049 1.0041C7.83738 -1.48095 0.198943 1.1837 0.4885 3.20326Z" fill="#FF7A00"/>
<g id="Vector_4" style="mix-blend-mode:multiply" opacity="0.5">
<path d="M1.62109 29.4427C2.09758 30.5423 3.82026 28.9772 4.35173 23.6662C4.66694 20.4884 5.13609 17.5819 5.45131 15.7639C5.66756 14.5434 5.81783 13.8103 5.81783 13.8103C5.81783 13.8103 4.55332 21.3058 4.49101 23.7542C4.4287 26.2026 4.60096 27.7493 4.00719 29.0175C3.41342 30.2857 2.10491 30.2124 1.62109 29.4427Z" fill="#B10053"/>
</g>
<g id="Vector_5" style="mix-blend-mode:multiply" opacity="0.5">
<path d="M4.08984 29.6738C4.7896 28.6282 5.18548 27.4088 5.23341 26.1515C5.37269 23.934 5.38002 21.7532 5.38002 21.7532C5.38002 21.7532 5.48632 25.5174 5.45699 26.9835C5.42767 28.4496 4.08984 29.6738 4.08984 29.6738Z" fill="#B10053"/>
</g>
<g id="Vector_6" style="mix-blend-mode:multiply" opacity="0.5">
<path d="M1.59416 25.4478C1.87638 28.2993 3.6797 23.3109 4.29913 13.6456C4.91856 3.98027 5.48302 4.65468 5.57465 3.27287C5.66628 1.89106 3.19955 0.820801 3.19955 0.820801C3.19955 0.820801 5.63329 1.30828 6.31503 2.39687C6.99677 3.48545 4.88924 7.77382 4.58869 13.312C4.28814 18.8503 2.73772 26.8259 2.04132 27.515C1.34492 28.2041 1.59416 25.4478 1.59416 25.4478Z" fill="#B10053"/>
</g>
<g id="Vector_7" style="mix-blend-mode:multiply" opacity="0.3">
<path d="M1.82502 21.7386C1.77737 22.7172 4.07183 16.1893 3.99486 10.5448C3.91789 4.9003 4.25509 5.50507 4.25509 4.08294C4.25509 2.66081 2.68269 1.36331 1.18359 1.92043C1.18359 1.92043 2.64971 1.51725 3.55869 2.53986C4.46768 3.56247 3.52937 4.80866 3.43773 7.34503C3.3461 9.8814 2.63504 17.1826 2.33815 18.5681C2.04127 19.9536 1.869 19.9462 1.869 19.9462L1.82502 21.7386Z" fill="#B10053"/>
</g>
<path id="Vector_8" d="M3.56955 2.53979C3.95288 2.94076 4.19594 3.45516 4.26229 4.0059C4.30994 4.81959 3.73448 5.83854 3.56955 6.44331C3.40461 7.04808 3.88476 4.72063 3.91775 3.87762C3.94516 3.40617 3.82332 2.93806 3.56955 2.53979Z" fill="#BB001A"/>
<path id="Vector_9" d="M3.19922 0.820801C3.19922 0.820801 4.70198 1.46222 5.15647 2.18428C5.61097 2.90634 5.43503 1.70413 4.95854 1.38525C4.3995 1.12048 3.80795 0.930689 3.19922 0.820801Z" fill="#BB001A"/>
<path id="Vector_10" d="M1.62891 27.3425C1.80485 27.8227 2.40961 26.7011 2.98873 24.5422C2.98873 24.5422 2.54523 27.2839 2.0834 27.9509C1.62158 28.618 1.62891 27.3425 1.62891 27.3425Z" fill="#FF4C00"/>
<path id="Vector_11" d="M3.25391 29.8571C3.25391 29.8571 3.98696 29.7618 4.39014 28.4973C4.79332 27.2328 4.5111 25.5101 4.55142 24.033C4.59173 22.5559 4.74567 21.1228 4.74567 21.1228C4.74567 21.1228 4.52576 22.6366 4.48177 23.8351C4.43779 25.0336 4.59172 27.0349 4.31316 28.1418C4.14132 28.8074 3.77205 29.4054 3.25391 29.8571Z" fill="#FF4C00"/>
<path id="Vector_12" d="M4.30859 29.4652C4.67796 29.1685 4.97606 28.7927 5.18093 28.3656C5.29064 28.0542 5.37401 27.7342 5.43017 27.4089C5.17405 28.1523 4.79492 28.8474 4.30859 29.4652Z" fill="#FF4C00"/>
<g id="Vector_13" style="mix-blend-mode:multiply" opacity="0.5">
<path d="M1.77734 22.7577C2.1622 21.1779 3.04187 22.8896 2.98322 23.3624C2.92458 23.8353 3.66496 20.9067 3.76026 19.2243C3.85555 17.542 1.79934 20.5915 1.77734 22.7577Z" fill="#D42F55"/>
</g>
<g id="Vector_14" style="mix-blend-mode:multiply" opacity="0.5">
<path d="M3.25391 23.4061C3.25391 24.5826 3.71573 25.6053 3.92099 25.4843C4.12624 25.3633 4.62472 21.2289 4.77499 19.5319C4.92527 17.8349 4.27652 17.9595 4.18489 18.1171C4.09326 18.2747 3.25391 23.4061 3.25391 23.4061Z" fill="#D42F55"/>
</g>
<g id="Vector_15" style="mix-blend-mode:multiply" opacity="0.5">
<path d="M4.59084 25.6307C4.58013 25.8554 4.61852 26.0796 4.70335 26.2879C4.78817 26.4961 4.91739 26.6834 5.08199 26.8366C5.15896 26.8586 5.48517 23.4719 5.38254 21.6576C5.27992 19.8433 5.38255 17.9923 5.32757 18.04C5.27259 18.0876 4.23165 22.7755 4.59084 25.6307Z" fill="#D42F55"/>
</g>
<g id="Vector_16" style="mix-blend-mode:multiply" opacity="0.5">
<path d="M5.46896 27.9881C5.46542 28.1921 5.43836 28.395 5.38832 28.5928C5.14275 29.4908 2.87761 30.3778 1.84767 29.7217C1.69751 29.6091 1.59229 29.4467 1.55078 29.2636C1.5801 28.5525 1.95396 29.4065 2.58439 29.4652C3.21482 29.5238 3.86724 28.9887 3.90389 29.0803C3.94054 29.172 3.51903 29.5531 3.62533 29.6741C3.73162 29.7951 4.9888 28.985 5.0731 28.6771C5.16725 28.4163 5.29675 28.1697 5.45796 27.9441L5.46896 27.9881Z" fill="#912774"/>
</g>
<g id="Vector_17" style="mix-blend-mode:multiply" opacity="0.5">
<path d="M1.86719 17.6005C1.86719 17.6005 3.16837 18.7624 4.25695 19.041C5.34554 19.3195 5.6021 17.4026 5.6021 17.4026L5.66075 16.5559C5.66075 16.5559 3.77314 18.2529 1.87453 17.2413L1.86719 17.6005Z" fill="#912774"/>
</g>
<g id="Vector_18" style="mix-blend-mode:soft-light" opacity="0.5">
<path d="M1.06175 4.37229C0.489972 3.69788 2.83575 2.96483 3.39287 3.11144C3.94999 3.25805 3.86936 4.41994 3.53216 4.57755C3.19495 4.73515 1.65919 5.07969 1.06175 4.37229Z" fill="white"/>
</g>
<g id="Vector_19" style="mix-blend-mode:soft-light" opacity="0.5">
<path d="M4.29942 4.17819C4.10882 4.07557 4.68427 2.93567 5.05446 2.76706C5.42466 2.59846 5.58593 3.1116 5.4943 3.52577C5.40267 3.93995 4.53033 4.29548 4.29942 4.17819Z" fill="white"/>
</g>
<g id="Vector_20" style="mix-blend-mode:soft-light" opacity="0.5">
<path d="M6.56519 2.73046C6.40392 2.6315 6.93172 1.24236 7.20661 0.897824C7.48151 0.553288 7.47417 1.50259 7.47417 1.50259C7.19783 1.93096 6.89421 2.34109 6.56519 2.73046Z" fill="white"/>
</g>
<g id="Vector_21" style="mix-blend-mode:multiply">
<path d="M0.722656 4.80843C0.976628 5.26714 1.33174 5.66198 1.76104 5.963C2.19035 6.26403 2.68258 6.46332 3.20038 6.54576C4.87908 6.74369 6.77402 4.21832 7.06724 3.30566C7.22582 2.84425 7.34836 2.37124 7.43377 1.89087L7.02693 4.76444C7.02693 4.76444 4.91573 6.91229 2.7972 6.91229C0.678674 6.91229 0.821626 5.55614 0.821626 5.55614L0.722656 4.80843Z" fill="#D42F55"/>
</g>
<path id="Vector_22" d="M19.7013 15.2072C19.1307 14.9863 18.6108 14.6522 18.1729 14.2249C17.2822 13.3599 17.0733 12.5169 16.9524 13.3379C16.7911 14.3715 16.8644 16.5633 14.1045 17.0032H13.9725C13.5931 17.0483 13.2108 17.0642 12.8289 17.0508C8.76415 16.9299 6.20946 15.9732 6.20946 15.9732C6.06332 16.3234 5.84571 16.6393 5.57054 16.9006C5.29537 17.1618 4.96868 17.3628 4.61139 17.4907C3.09764 18.0368 1.27234 17.2744 1.27234 16.7942C1.27234 14.6171 0.839836 11.2194 0.484305 8.77463C0.253392 7.1949 0.0554677 6.01102 0.0261456 5.82042C0.0149541 5.75872 0.00881816 5.6962 0.0078125 5.6335C0.0078125 5.26697 0.209411 5.03606 0.898482 4.82347C2.73112 9.66163 7.15876 3.96213 7.15876 3.96213L7.2394 3.2474C7.38385 3.06892 7.5473 2.90669 7.72687 2.76359L7.78186 2.71594C8.46727 2.14416 9.54852 1.58337 10.6774 2.15515C12.5797 3.10812 14.1668 7.60175 15.8968 6.79539C17.6268 5.98903 17.5938 2.97618 18.3342 3.30605C19.0746 3.63592 20.0935 5.87174 21.2077 10.6366C22.2047 14.903 23.5828 13.4295 24.0923 13.3122C24.1154 13.3032 24.1405 13.3004 24.165 13.3043C24.1894 13.3082 24.2124 13.3185 24.2316 13.3342C24.5578 13.6531 22.5016 16.2738 19.7013 15.2072Z" fill="url(#paint1_linear_567_11902)"/>
<path id="Vector_23" d="M4.50828 7.4625C1.94259 7.71906 0.2639 6.4802 0 5.62986C0 5.26333 0.201587 5.03242 0.890658 4.81983C2.72329 9.65799 7.01532 4.14542 7.01532 4.14542C7.01532 4.14542 7.06297 4.07212 7.15094 3.9585C7.42217 4.2224 7.60177 7.15828 4.50828 7.4625Z" fill="#FF4A70"/>
<g id="Vector_24" style="mix-blend-mode:multiply" opacity="0.3">
<path d="M6.20312 15.9618C6.20312 15.9618 6.51101 9.1407 7.00582 6.94154C7.50063 4.74238 7.15243 3.95068 7.15243 3.95068C7.15243 3.95068 8.72116 2.38561 10.3705 3.093C12.0199 3.8004 12.8116 6.21948 13.0572 9.43759C13.3028 12.6557 12.1006 15.9874 10.9277 16.5555C9.75478 17.1237 6.20312 15.9618 6.20312 15.9618Z" fill="#963B66"/>
</g>
<g id="Vector_25" style="mix-blend-mode:multiply" opacity="0.5">
<path d="M16.9571 12.385C16.8508 11.3294 17.4922 9.12295 17.6902 7.83278C18.0274 5.71791 17.9797 4.39842 18.2619 4.22981C18.8924 3.86329 20.3145 7.16203 20.2229 10.8823C20.1312 14.6025 18.8044 14.5769 18.4855 14.4413C17.6865 14.0967 16.9571 12.385 16.9571 12.385Z" fill="#963B66"/>
</g>
<g id="Vector_26" style="mix-blend-mode:multiply" opacity="0.5">
<path d="M20.676 15.3058C20.2142 15.1812 22.4134 14.8183 23.6083 13.7187C24.8031 12.6191 23.7549 15.7383 20.676 15.3058Z" fill="#963B66"/>
</g>
<path id="Vector_27" d="M24.0965 13.3013C23.7952 13.6819 23.4102 13.988 22.9713 14.1956C21.8717 14.6061 21.1166 14.1003 20.6145 11.3623C20.1124 8.62436 19.0201 3.63593 18.2761 4.2297C17.532 4.82348 18.2577 8.2615 16.8759 8.17354C15.4941 8.08557 13.0604 5.6445 11.378 3.85585C9.69566 2.06719 7.19961 3.22908 7.71274 2.75626L7.76773 2.70861C8.45314 2.13683 9.53439 1.57605 10.6633 2.14783C12.5656 3.1008 14.6951 7.22423 16.4251 6.41787C18.1551 5.61151 16.9309 2.08185 17.6713 2.41173C18.4117 2.7416 19.8485 3.92915 21.1936 10.6256C22.0696 14.9213 23.5834 13.4185 24.0965 13.3013Z" fill="#FF4A88"/>
<g id="Vector_28" style="mix-blend-mode:multiply" opacity="0.2">
<path d="M6.82897 6.41772C5.56445 7.22042 5.04765 7.54296 4.51619 11.1533C3.98472 14.7635 3.5962 17.1057 3.9664 17.4758C4.33659 17.846 4.89005 16.4203 5.022 15.7239C5.83935 11.4282 6.82897 6.41772 6.82897 6.41772Z" fill="#963B66"/>
</g>
<g id="Vector_29" style="mix-blend-mode:soft-light">
<path d="M0.965919 6.71804C0.0422705 5.98499 1.05021 13.1799 1.8639 14.668C2.67759 16.1561 4.11439 12.0583 4.57621 9.92882C5.03804 7.7993 5.06736 7.81396 4.94274 7.61603C4.81812 7.41811 3.05146 7.81396 0.965919 6.71804Z" fill="white"/>
</g>
<g id="Vector_30" style="mix-blend-mode:soft-light">
<path d="M1.55058 7.03741C0.483989 6.43997 1.34167 6.6269 2.80778 6.74786C4.27389 6.86881 5.50542 5.64827 5.9086 5.81321C6.31178 5.97815 6.2458 7.16936 4.83467 7.4186C3.72565 7.59105 2.59062 7.4593 1.55058 7.03741Z" fill="white"/>
</g>
<g id="Vector_31" style="mix-blend-mode:soft-light" opacity="0.5">
<path d="M11.2734 2.5397C10.445 2.48839 12.5819 4.68022 13.4102 5.8861C14.2386 7.09197 16.4414 7.2899 16.3424 6.9417C16.2435 6.5935 14.7004 6.69246 13.4872 5.27766C12.274 3.86287 11.7425 2.57269 11.2734 2.5397Z" fill="white"/>
</g>
<g id="Vector_32" style="mix-blend-mode:soft-light" opacity="0.5">
<path d="M19.5746 5.17901C19.2081 5.0434 19.8202 7.86932 20.5166 10.3104C21.213 12.7515 21.5685 12.5829 21.5685 12.5829C21.5685 12.5829 20.7805 9.62866 20.5166 8.10757C20.3191 7.09767 20.0029 6.11467 19.5746 5.17901Z" fill="white"/>
</g>
<g id="Vector_33" style="mix-blend-mode:multiply" opacity="0.3">
<path d="M7.15243 3.9509C8.67352 2.48479 11.056 2.6534 11.789 4.40173C12.5221 6.15007 9.14634 7.33395 7.65824 9.43049C6.17014 11.527 7.42732 15.3646 7.87449 15.94C8.32165 16.5155 6.20312 15.962 6.20312 15.962C6.20312 15.962 6.54033 9.44148 7.00582 6.94177C7.47131 4.44205 7.15243 3.9509 7.15243 3.9509Z" fill="#963B66"/>
</g>
<g id="Vector_34" style="mix-blend-mode:soft-light">
<path d="M6.20314 15.9618C5.96123 16.7278 4.88364 17.3839 4.73703 17.1567C4.59042 16.9294 5.60203 12.707 6.11517 10.3173C6.62831 7.92751 6.87389 5.89328 7.03516 5.91894C7.19643 5.9446 6.77126 8.05213 6.43772 11.2189C6.10418 14.3857 6.35341 15.478 6.20314 15.9618Z" fill="white"/>
</g>
<g id="Vector_35" style="mix-blend-mode:multiply" opacity="0.5">
<path d="M4.60366 17.4799C3.0899 18.026 1.26459 17.2636 1.26459 16.7835C1.26459 14.6063 0.832094 11.2086 0.476562 8.76386V8.55127C0.476562 8.55127 1.4442 12.6161 1.53583 14.2105C1.62746 15.8048 1.1693 16.318 1.53583 16.8751C1.97933 17.5422 3.82296 17.6595 4.60366 17.4799Z" fill="#963B66"/>
</g>
<g id="Vector_36" style="mix-blend-mode:multiply">
<path d="M0.722862 4.80856C0.488285 2.41147 1.78946 6.75482 3.18959 6.74749C3.20059 6.74749 1.4156 6.99672 0.722862 4.80856Z" fill="#D42F55"/>
</g>
<g id="Vector_37" style="mix-blend-mode:multiply" opacity="0.5">
<path d="M17.3158 10.7131C17.0812 12.8683 18.0488 14.0815 18.1661 14.2098C17.2754 13.3448 17.0665 12.5018 16.9456 13.3228C16.7843 14.3564 16.8576 16.5482 14.0977 16.9881C15.2925 16.7792 16.4031 15.313 16.7147 13.9679C17.0262 12.6227 17.2828 9.65387 17.7813 7.4767C18.2797 5.29952 17.6713 4.28424 18.4667 4.21094C18.5803 4.21094 18.6133 5.79434 18.3604 6.43209C17.8083 7.80152 17.4565 9.24335 17.3158 10.7131Z" fill="#963B66"/>
</g>
<g id="Vector_38" style="mix-blend-mode:soft-light">
<path d="M14.8521 7.15456C13.4336 6.37386 13.3457 12.5975 14.0934 14.3202C14.8411 16.0428 16.5528 13.6714 16.912 11.0984C17.2712 8.52537 18.1252 7.77033 17.1465 7.83264C16.1679 7.89495 14.8521 7.15456 14.8521 7.15456Z" fill="white"/>
</g>
<g id="Vector_39" style="mix-blend-mode:multiply" opacity="0.2">
<path d="M12.3282 6.10968C11.6318 6.54584 10.5909 14.3345 10.1657 15.9399C9.74054 17.5453 12.779 15.3682 13.0723 11.4317C13.3655 7.49515 12.5518 5.97773 12.3282 6.10968Z" fill="#963B66"/>
</g>
<g id="Vector_40" style="mix-blend-mode:multiply" opacity="0.5">
<path d="M14.0981 16.9737H13.9662C13.5868 17.0189 13.2045 17.0348 12.8226 17.0214C8.75782 16.9004 6.20312 15.9438 6.20312 15.9438C6.20312 15.9438 6.3644 13.686 6.40472 12.4508C6.44504 11.2156 7.08279 14.4703 7.82684 15.5736C8.79814 17.0434 14.0981 16.9737 14.0981 16.9737Z" fill="#963B66"/>
</g>
<g id="Vector_41" style="mix-blend-mode:multiply" opacity="0.5">
<path d="M7.23579 3.24699C8.33537 2.14741 8.50397 3.04907 9.04277 3.10038C9.58156 3.15169 7.69029 4.88903 7.41906 5.66607C7.14783 6.44311 6.72266 8.79255 6.72266 8.79255C6.72266 8.79255 7.12217 6.07292 7.21747 5.26656C7.28767 4.83529 7.26391 4.39395 7.14783 3.97272C7.13843 3.72767 7.16812 3.48269 7.23579 3.24699Z" fill="#963B66"/>
</g>
</g>
<defs>
<linearGradient id="paint0_linear_567_11902" x1="4.01427" y1="29.9485" x2="4.01427" y2="0.659335" gradientUnits="userSpaceOnUse">
<stop stop-color="#D32A00"/>
<stop offset="1" stop-color="#EC5C11"/>
</linearGradient>
<linearGradient id="paint1_linear_567_11902" x1="12.1362" y1="17.6666" x2="12.1362" y2="1.90958" gradientUnits="userSpaceOnUse">
<stop stop-color="#DE0086"/>
<stop offset="1" stop-color="#FF003B"/>
</linearGradient>
</defs>
</svg>
