<svg width="33" height="30" viewBox="0 0 33 30" fill="none" xmlns="http://www.w3.org/2000/svg">
<g id="Group 1261160116">
<path id="Vector" d="M26.1007 29.7425L25.4929 29.8431C24.2213 30.0518 22.9242 30.0518 21.6526 29.8431H21.6204L17.0516 27.4963L16.1217 27.0213L15.687 27.3152L12.2855 29.5855L11.9594 29.8029L11.5569 29.8391H11.4804C10.47 29.9317 8.14334 30.0967 7.08465 29.7868H7.05648C6.90351 29.7385 6.85118 29.5734 6.87131 29.3158C6.97597 28.1082 8.78338 24.7791 10.3573 22.07C11.5649 20.005 12.6116 18.3183 12.6116 18.3183L12.7645 16.2171L13.2999 9.99378L14.105 0.711157L14.1412 0.268361C14.1412 0.268361 17.0033 -0.335452 18.863 0.268361H18.8872C19.5514 0.586369 20.7711 4.94187 22.0069 10.1628C22.3531 11.6241 22.6952 13.1417 23.0293 14.6592C23.3635 16.1768 23.7016 17.7427 24.0075 19.208C25.2151 24.9965 26.1007 29.7425 26.1007 29.7425Z" fill="url(#paint0_linear_567_11672)"/>
<path id="Vector_2" d="M26.5192 20.6328C26.5192 20.6328 28.1294 28.3656 26.3421 29.6175C26.2669 29.6686 26.1858 29.7105 26.1006 29.7423C25.9059 29.8128 25.6998 29.8469 25.4928 29.843C24.5632 29.7719 23.6573 29.516 22.8279 29.0902C21.3123 28.3598 19.8584 27.5076 18.4805 26.5421C18.4805 26.5421 17.8887 26.9447 17.0193 27.4921L16.4839 27.8141L16.4476 27.8343C15.0629 28.6394 13.2595 29.5813 11.9392 29.7906C11.8061 29.8127 11.6715 29.8248 11.5366 29.8269H11.4601C11.2458 29.8313 11.0322 29.8 10.8282 29.7343C10.6768 29.6754 10.539 29.5865 10.4228 29.4731C10.3066 29.3597 10.2144 29.224 10.1519 29.0741C9.42731 27.6008 9.95464 24.0745 10.3371 22.0497C10.5021 21.1923 10.639 20.6127 10.639 20.6127C10.639 20.6127 7.61185 18.1974 5.7682 15.8627C4.86651 14.7195 4.25062 13.5923 4.42371 12.7792C4.70549 11.4629 7.1288 10.7665 9.39511 10.364C10.6886 10.1503 11.9939 10.0159 13.3038 9.96141C13.4125 9.96141 13.4729 9.96141 13.4729 9.96141C13.4729 9.96141 14.8053 5.40866 16.5 2.50633C17.2406 1.23833 18.0457 0.300406 18.7945 0.256126C18.8158 0.25219 18.8376 0.25219 18.8589 0.256126C18.963 0.256533 19.0664 0.274215 19.1648 0.308455C21.6082 1.06121 23.9752 9.96946 23.9752 9.96946C23.9752 9.96946 32.4688 10.2311 32.9478 12.7873C33.4067 15.275 26.5192 20.6328 26.5192 20.6328Z" fill="url(#paint1_linear_567_11672)"/>
<path id="Vector_3" d="M22.3586 20.6329C22.3586 20.6329 23.8722 26.9891 22.8457 29.0863C22.7594 29.2939 22.6207 29.4756 22.4431 29.6136C22.2033 29.7674 21.9229 29.8459 21.6381 29.8391C20.2895 29.8793 18.1078 28.7562 16.5056 27.8264C16.2078 27.6533 15.926 27.4802 15.6764 27.3232C14.9679 26.8804 14.501 26.5543 14.501 26.5543C13.123 27.5186 11.6706 28.372 10.1576 29.1064C9.58014 29.3771 8.97744 29.5901 8.3582 29.7425C7.93799 29.8625 7.49561 29.8832 7.06604 29.8028H7.03786C6.89485 29.7683 6.75874 29.7098 6.63532 29.6297C4.87218 28.4221 6.39379 21.0073 6.46222 20.6571C6.46222 20.6571 -0.433318 15.2992 0.0215542 12.8236C0.512655 10.2715 8.99824 10.0058 8.99824 10.0058C8.99824 10.0058 11.5745 0.29248 14.1145 0.29248C14.8915 0.29248 15.7247 1.24651 16.4775 2.55074C18.1681 5.45307 19.5006 10.0058 19.5006 10.0058C19.5006 10.0058 20.5713 10.042 21.9802 10.2031C23.5904 10.3762 25.6031 10.7183 27.0039 11.3543C27.809 11.7327 28.4209 12.2117 28.5497 12.8236C28.9039 14.4901 25.9251 17.4971 23.9809 19.2643C23.0671 20.0814 22.3586 20.6329 22.3586 20.6329Z" fill="url(#paint2_linear_567_11672)"/>
<g id="Vector_4" style="mix-blend-mode:soft-light">
<path d="M19.5234 9.98171C19.5234 9.98171 22.9893 9.88107 24.4626 10.0059C30.1988 10.4849 31.7366 11.4429 32.1794 12.1071C32.6222 12.7713 28.959 12.1715 28.6772 12.1595C28.3955 12.1474 28.2425 11.2256 25.1469 10.823C22.0514 10.4205 19.5234 9.98171 19.5234 9.98171Z" fill="white"/>
</g>
<g id="Vector_5" style="mix-blend-mode:multiply" opacity="0.3">
<path d="M26.5199 20.6328C25.7148 20.8743 23.3559 20.6731 23.0097 20.6328C22.6635 20.5926 27.5544 16.3015 28.4923 14.5947C29.4302 12.8879 32.2762 13.0328 32.7029 13.3428C33.1296 13.6527 30.8955 16.6315 29.4101 18.1411C28.5105 19.043 27.5444 19.8759 26.5199 20.6328Z" fill="#B30053"/>
</g>
<g id="Vector_6" style="mix-blend-mode:soft-light">
<path d="M25.6485 13.7737C24.7955 14.1308 23.9201 14.432 23.028 14.6754C19.6756 15.5687 16.2341 16.0858 12.7672 16.2171C10.4285 16.3379 8.08358 16.2259 5.767 15.883C3.45641 15.5127 1.59666 14.8284 0.626536 13.7737C0.375322 13.4857 0.178873 13.1542 0.046875 12.7955C0.10831 12.5667 0.214231 12.3522 0.358588 12.1644C0.502944 11.9765 0.682905 11.8189 0.888188 11.7006C0.979662 11.6357 1.07512 11.5765 1.17399 11.5235C1.18735 11.5131 1.20231 11.505 1.21827 11.4994C3.68183 10.1508 9.01148 9.9858 9.01148 9.9858C9.01148 9.9858 11.5878 0.272461 14.1278 0.272461C14.3633 0.281242 14.5918 0.355087 14.788 0.485808C15.5033 1.02943 16.0856 1.72873 16.4907 2.53072C18.1814 5.43305 19.5138 9.9858 19.5138 9.9858C19.5138 9.9858 20.5846 10.022 21.9935 10.183C23.6036 10.3561 25.6163 10.6983 27.0172 11.3343C27.2587 12.397 26.8763 13.2383 25.6485 13.7737Z" fill="white"/>
</g>
<g id="Vector_7" style="mix-blend-mode:multiply" opacity="0.2">
<path d="M1.23945 14.8482C0.253221 15.2507 2.78118 17.5573 4.90661 18.8253C7.03203 20.0933 23.4598 16.3698 24.9693 16.7039C26.4788 17.038 28.8901 14.2887 28.4553 13.1414C28.0206 11.9942 27.296 11.8211 27.296 12.0304C27.296 12.2397 26.3943 13.9505 24.3977 14.4457C22.4011 14.9408 6.95957 16.1041 5.18838 16.2571C3.4172 16.4101 1.39241 14.7637 1.23945 14.8482Z" fill="#DA0553"/>
</g>
<g id="Vector_8" style="mix-blend-mode:soft-light">
<path d="M7.0853 29.485C5.58785 29.1508 5.78107 25.0892 6.72302 23.9742C7.66497 22.8591 19.4755 22.9396 21.7419 23.628C24.0082 24.3163 23.0058 29.01 22.2169 29.485C21.4279 29.96 14.8745 26.0231 14.3431 26.1439C13.8118 26.2646 9.98763 30.1451 7.0853 29.485Z" fill="white"/>
</g>
<path id="Vector_9" d="M20.3099 18.9383L19.3841 19.6789L19.6538 20.7457C20.1794 22.6742 20.4634 24.6605 20.4991 26.659C20.4965 26.7815 20.4871 26.9038 20.4709 27.0253C18.8097 26.3555 17.2373 25.4834 15.7894 24.4289L14.932 23.8171L14.457 23.483L13.1688 24.441C11.992 25.2911 10.7434 26.0373 9.43725 26.6711C9.15059 26.8098 8.85626 26.9321 8.55569 27.0374C8.38662 25.8298 8.63217 23.2414 9.19573 20.7577L9.44128 19.691L8.48726 18.9383C6.21289 17.1349 3.98281 14.7881 3.50781 13.7414C4.37328 13.2302 7.13069 12.719 9.62645 12.6345L11.2366 12.5861L11.6392 11.145C12.2468 8.92369 13.1001 6.77697 14.1832 4.74463C14.3563 5.02238 14.5375 5.34844 14.7267 5.71073C15.5978 7.46104 16.3274 9.27829 16.9084 11.145L17.3553 12.5902L18.9654 12.6385C21.4451 12.719 24.2347 13.2302 25.1122 13.7414C24.6976 14.7881 22.5319 17.1349 20.3099 18.9383Z" fill="url(#paint3_linear_567_11672)"/>
<path id="Vector_10" d="M25.1257 13.7414C24.7231 14.6994 22.8795 16.7484 20.8668 18.4713C20.6856 18.6323 20.4924 18.7852 20.3072 18.9382L19.3814 19.6789L19.6511 20.7456C20.1775 22.6738 20.4602 24.6604 20.4924 26.659C19.1721 26.0253 17.9088 25.2792 16.7166 24.4289L15.3922 23.4829H14.4543L13.1661 24.441C11.9893 25.2911 10.7407 26.0372 9.43457 26.671C9.43457 26.506 9.43457 26.3208 9.43457 26.1276C9.43457 25.9344 9.43457 25.6566 9.46275 25.395C9.54998 24.0723 9.7343 22.7578 10.0142 21.4621C10.0625 21.2287 10.1149 20.9952 10.1712 20.7577L10.3886 19.6789L9.44262 18.9261C7.18436 17.1227 4.97038 14.7759 4.51953 13.7293C5.38097 13.2181 8.14241 12.7069 10.6422 12.6223L12.2524 12.574L12.6549 11.1329C13.1949 9.26611 13.8883 7.44713 14.728 5.69458C15.6027 7.44984 16.335 9.2725 16.9178 11.145L17.3727 12.5901L18.9829 12.6384C21.4585 12.7189 24.2481 13.2382 25.1257 13.7414Z" fill="url(#paint4_linear_567_11672)"/>
<path id="Vector_11" d="M14.4609 23.4953C14.4609 23.4953 15.3626 23.4671 15.7169 23.7207C16.0711 23.9743 18.3696 25.5362 18.3656 25.7938C18.3616 26.0515 15.9423 24.5701 14.4609 23.4953Z" fill="#FFE016"/>
<g id="Vector_12" style="mix-blend-mode:soft-light">
<path d="M8.53748 27.0375C8.2074 26.9127 8.89172 24.7631 9.13727 24.582C9.38282 24.4008 9.31841 26.5343 9.41905 26.6711C9.15362 26.8528 8.85347 26.9775 8.53748 27.0375Z" fill="white"/>
</g>
<g id="Vector_13" style="mix-blend-mode:multiply" opacity="0.5">
<path d="M9.42958 19.6787H10.3917C10.3917 19.6787 9.40945 22.5529 9.26051 23.3016C9.11157 24.0503 8.64864 22.5166 9.42958 19.6787Z" fill="#D42F55"/>
</g>
<g id="Vector_14" style="mix-blend-mode:multiply" opacity="0.5">
<path d="M4.08747 14.6351C3.48366 13.5482 12.3637 13.9427 12.3637 13.9427C12.3637 13.9427 14.1752 8.02938 15.5156 7.38934C15.5156 7.38934 14.3885 4.75672 14.1872 4.74464C13.986 4.73257 11.2286 12.5862 11.2286 12.5862C8.60917 12.5471 6.00106 12.9374 3.50781 13.7415L4.08747 14.6351Z" fill="#D42F55"/>
</g>
<g id="Vector_15" style="mix-blend-mode:multiply" opacity="0.5">
<path d="M17.375 12.5903C17.375 12.5903 24.0612 13.7416 24.6852 14.3575L25.132 13.7416C25.132 13.7416 23.075 12.7312 17.375 12.5903Z" fill="#D42F55"/>
</g>
<g id="Vector_16" style="mix-blend-mode:multiply" opacity="0.3">
<path d="M16.4857 1.00099C15.2217 1.00099 17.0533 3.17875 17.9429 5.21158C18.8325 7.24442 22.9545 7.22429 22.9545 7.22429C22.9545 7.22429 21.1914 2.09591 20.0885 1.48002C18.9855 0.864131 16.4857 1.00099 16.4857 1.00099Z" fill="#B30053"/>
</g>
<g id="Vector_17" style="mix-blend-mode:multiply" opacity="0.3">
<path d="M22.3869 29.9596C22.1253 29.7624 22.9384 29.8952 23.2806 28.4581C23.6228 27.021 26.7223 27.1579 27.0242 27.323C27.3261 27.488 26.831 29.2954 26.3439 29.6174C25.8569 29.9395 22.3869 29.9596 22.3869 29.9596Z" fill="#B30053"/>
</g>
<g id="Vector_18" style="mix-blend-mode:soft-light">
<path d="M23.5763 27.2187C23.2302 27.098 23.2624 23.7448 23.2785 23.1128C23.2946 22.4808 26.6518 22.7424 26.8208 23.1128C26.9899 23.4831 27.1388 26.8121 26.9456 27.0376C26.7524 27.263 23.8018 27.2952 23.5763 27.2187Z" fill="white"/>
</g>
<g id="Vector_19" style="mix-blend-mode:soft-light" opacity="0.5">
<path d="M12.5094 29.5615C13.2742 29.4247 14.9247 28.688 14.981 28.4626C15.0374 28.2372 13.1615 28.0601 12.7348 27.9957C12.3081 27.9312 9.75603 29.4448 9.56683 29.5615C9.37764 29.6783 12.5094 29.5615 12.5094 29.5615Z" fill="white"/>
</g>
<g id="Vector_20" style="mix-blend-mode:multiply" opacity="0.5">
<path d="M14.5385 26.671C14.1802 26.7918 12.9041 27.5928 12.8639 27.7981C12.8236 28.0034 14.8202 28.249 15.0859 28.2973C15.3516 28.3456 16.4908 27.8223 16.4908 27.8223C16.4908 27.8223 14.6109 26.6469 14.5385 26.671Z" fill="#D42F55"/>
</g>
<g id="Vector_21" style="mix-blend-mode:multiply" opacity="0.5">
<path d="M28.9383 14.176C28.7128 14.4296 27.4489 15.9512 27.469 16.3377C27.4891 16.7241 31.0234 16.2854 31.2448 15.9955C31.4662 15.7057 33.0442 13.5803 32.7061 13.3267C32.3679 13.0731 29.6025 13.4394 28.9383 14.176Z" fill="#D42F55"/>
</g>
<path id="Vector_22" d="M19.5234 9.98145C19.5234 9.98145 26.8537 10.6939 27.8319 12.1471C29.3294 14.3571 24.5713 18.7045 24.5713 18.7045C24.5713 18.7045 29.3133 14.4939 28.6571 12.4329C28.001 10.3719 19.5234 9.98145 19.5234 9.98145Z" fill="#FFE016"/>
<path id="Vector_23" d="M27.9767 11.6282C27.4172 11.3666 28.2746 12.7392 28.1418 13.7416C28.0089 14.7439 28.7214 13.4558 28.7134 12.7795C28.68 12.5461 28.5969 12.3226 28.4698 12.124C28.3428 11.9254 28.1746 11.7564 27.9767 11.6282Z" fill="white"/>
<g id="Vector_24" style="mix-blend-mode:soft-light">
<path d="M15.2728 0.864096C13.8197 0.32469 14.6972 5.441 16.2269 9.12426C17.6881 12.6465 19.1533 11.2457 19.4472 10.3319C19.7411 9.41811 16.4805 1.76982 15.2728 0.864096Z" fill="white"/>
</g>
<path id="Vector_25" d="M16.794 4.16489C15.7394 4.03205 16.3472 7.24031 16.9993 8.36743C17.6514 9.49455 18.5732 8.74582 18.6095 7.77167C18.6457 6.79752 17.1966 4.21722 16.794 4.16489Z" fill="white"/>
<g id="Vector_26" style="mix-blend-mode:soft-light">
<path d="M15.0844 0.356981C14.6134 0.497871 16.4128 0.831979 17.7975 0.997022C19.1823 1.16206 19.5164 1.17414 19.5043 0.819905C19.4922 0.465668 17.6405 -0.411874 15.0844 0.356981Z" fill="white"/>
</g>
<g id="Vector_27" style="mix-blend-mode:soft-light">
<path d="M22.3625 29.8474C22.2377 29.7226 25.8687 29.2476 26.235 29.316C26.6013 29.3845 25.768 29.7749 25.768 29.7749C25.768 29.7749 23.3528 30.1694 22.3625 29.8474Z" fill="white"/>
</g>
<g id="Vector_28" style="mix-blend-mode:soft-light" opacity="0.5">
<path d="M19.6535 20.7579C20.1799 22.6861 20.4626 24.6728 20.4948 26.6713C19.1745 26.0376 17.9113 25.2915 16.719 24.4412L15.3946 23.4952H14.4567L13.1685 24.4412C11.9917 25.2913 10.7431 26.0375 9.43698 26.6713C9.43698 26.5062 9.43698 26.3211 9.43698 26.1278L9.75901 25.8219C9.6302 25.7978 9.52957 25.6448 9.46516 25.3952C9.25584 24.6545 9.33634 23.0484 10.0166 21.4624C10.5675 20.1295 11.5386 19.0129 12.7821 18.2823C16.6465 16.0885 20.8973 18.4715 20.8973 18.4715C20.7162 18.6325 20.523 18.7855 20.3378 18.9385L19.3838 19.6791L19.6535 20.7579Z" fill="white"/>
</g>
<path id="Vector_29" d="M6.21458 28.5065C6.07369 27.5565 6.44 26.8963 6.77411 26.9446C7.10822 26.9929 7.5792 29.1345 7.24509 29.3881C6.91098 29.6417 6.25081 28.7561 6.21458 28.5065Z" fill="white"/>
<g id="Vector_30" style="mix-blend-mode:multiply" opacity="0.8">
<path d="M16.4551 27.8422C15.0704 28.6473 13.267 29.5893 11.9467 29.7986C11.8136 29.8207 11.679 29.8328 11.5441 29.8348H11.4676C10.4573 29.9274 8.13057 30.0924 7.07189 29.7825H7.04371C6.9007 29.748 6.76459 29.6894 6.64117 29.6094C4.87803 28.4018 6.39964 20.9869 6.46808 20.6367C6.4238 20.9708 5.58651 27.2787 6.32719 28.8003C6.44086 29.0318 6.62565 29.2208 6.85452 29.3397C7.32556 29.5701 7.83686 29.7068 8.36002 29.7422C9.18149 29.8255 10.0089 29.8323 10.8316 29.7623C11.367 29.7181 11.8662 29.6577 12.2727 29.5892C12.5561 29.549 12.8361 29.4871 13.11 29.4041C14.2539 28.9475 15.3707 28.4261 16.4551 27.8422Z" fill="#D42F55"/>
</g>
<g id="Vector_31" style="mix-blend-mode:multiply" opacity="0.8">
<path d="M19.1634 0.320698L18.8816 0.284467H18.793C17.4585 0.128255 16.1072 0.197656 14.7958 0.489765C14.5582 0.548627 14.3254 0.625328 14.0994 0.719213C14.0074 0.746364 13.9194 0.785621 13.8377 0.835951C10.2148 3.19082 9.40976 10.4044 9.40976 10.4044C9.40976 10.4044 2.89261 10.8552 1.24219 11.5033C3.70574 10.1548 9.0354 9.98975 9.0354 9.98975C9.0354 9.98975 11.6117 0.276418 14.1517 0.276418C14.1517 0.276418 17.0138 -0.327395 18.8735 0.276418C18.9719 0.27596 19.0696 0.290901 19.1634 0.320698Z" fill="#D42F55"/>
</g>
<path id="Vector_32" d="M26.7738 16.6839C26.7738 15.7661 24.6242 17.5655 24.4713 17.9237C24.3183 18.282 24.2056 18.753 24.3103 18.91C24.4149 19.067 26.5645 18.5799 26.7738 16.6839Z" fill="#DC2C00"/>
<g id="Vector_33" style="mix-blend-mode:multiply" opacity="0.5">
<path d="M26.5843 16.4868C26.2521 16.4972 25.934 16.6237 25.6854 16.8444C25.4368 17.065 25.2735 17.3658 25.2237 17.6944C25.1553 18.3345 25.8074 18.3264 26.3629 17.6944C26.9184 17.0625 26.7453 16.5069 26.5843 16.4868Z" fill="#D42F55"/>
</g>
<path id="Vector_34" d="M24.4957 17.8674C24.4957 17.8674 24.4675 18.3948 24.6607 18.5236C24.9747 18.7409 25.6671 18.4672 25.6671 18.4672C25.2559 18.7608 24.7886 18.9664 24.2944 19.071C23.7188 19.1153 24.4957 17.8674 24.4957 17.8674Z" fill="#FFBA00"/>
<path id="Vector_35" d="M24.1331 19.015C23.952 18.7856 25.067 18.7654 25.1637 18.7413C25.2603 18.7171 24.3304 19.2445 24.1331 19.015Z" fill="white"/>
<path id="Vector_36" d="M11.0052 28.6959C10.8643 28.6717 11.1541 28.0559 11.5003 27.9391C11.8465 27.8224 12.3255 27.8385 12.3054 28.0679C12.2852 28.2974 11.6975 28.8086 11.0052 28.6959Z" fill="#DC2C00"/>
<path id="Vector_37" d="M11.269 28.092C11.0074 28.6959 11.414 28.6435 11.8205 28.563C11.4872 28.7177 11.1252 28.8013 10.7578 28.8086C10.8362 28.5159 11.0178 28.2614 11.269 28.092Z" fill="#FFBA00"/>
<path id="Vector_38" d="M10.8166 28.7965C10.7764 28.7522 11.038 28.5831 11.2192 28.5791C11.3364 28.573 11.4524 28.6055 11.5493 28.6717C11.3231 28.7858 11.0678 28.8292 10.8166 28.7965Z" fill="white"/>
<g id="Vector_39" style="mix-blend-mode:multiply" opacity="0.5">
<path d="M11.7391 27.8867C11.1997 28.1524 11.3647 28.5549 11.7914 28.5147C12.2181 28.4744 12.367 28.0437 12.2664 27.9552C12.1658 27.8666 11.7391 27.8867 11.7391 27.8867Z" fill="#D42F55"/>
</g>
<g id="Vector_40" style="mix-blend-mode:soft-light">
<path d="M7.46309 17.2074C6.28767 16.6197 8.13131 18.6646 8.64254 19.0712L9.44762 19.6911H10.3936C10.3936 19.6911 7.93809 17.4127 7.46309 17.2074Z" fill="white"/>
</g>
<path id="Vector_41" d="M9.42745 19.6788C9.18593 19.4896 9.02491 18.8738 9.28657 18.8979C9.54822 18.9221 10.3895 19.6788 10.3895 19.6788H9.42745Z" fill="white"/>
<path id="Vector_42" d="M14.4609 23.4954C14.4609 23.4954 15.415 23.4954 15.7169 23.7208C16.0419 23.987 16.3523 24.2705 16.6467 24.5701C15.8719 24.3147 15.1363 23.953 14.4609 23.4954Z" fill="#FFE016"/>
<g id="Vector_43" style="mix-blend-mode:multiply" opacity="0.8">
<path d="M15.9492 27.4883C15.9492 27.4883 19.6929 29.2152 21.5848 29.6419C23.0048 29.8949 24.4531 29.9491 25.888 29.8029C24.364 30.05 22.8114 30.0649 21.2829 29.8472C19.1132 29.4567 15.9492 27.4883 15.9492 27.4883Z" fill="#D42F55"/>
</g>
<path id="Vector_44" d="M0.207031 12.8679C0.412328 13.8903 1.8172 12.5337 2.10703 11.942C2.39686 11.3503 0.267413 11.3744 0.207031 12.8679Z" fill="white"/>
<path id="Vector_45" d="M19.3828 19.6792C19.3828 19.6792 24.0362 16.5152 25.1271 13.7417C23.6115 16.0715 21.6612 18.0874 19.3828 19.6792Z" fill="#FFE016"/>
<g id="Vector_46" style="mix-blend-mode:multiply" opacity="0.3">
<path d="M10.7199 18.9301C10.2771 18.9784 8.15566 17.1871 7.8296 16.3458C7.50354 15.5044 10.4059 16.3458 14.8781 16.1163C19.3504 15.8869 24.3741 13.8017 24.2895 14.0714C24.205 14.3411 21.4718 17.4809 20.7673 17.6299C20.0629 17.7788 18.5936 16.7563 15.4457 16.8248C12.2978 16.8932 11.3196 18.8737 10.7199 18.9301Z" fill="#B30053"/>
</g>
</g>
<defs>
<linearGradient id="paint0_linear_567_11672" x1="19.2978" y1="32.2181" x2="8.42512" y2="2.3495" gradientUnits="userSpaceOnUse">
<stop stop-color="#FF5900"/>
<stop offset="0.23" stop-color="#FE6800"/>
<stop offset="0.66" stop-color="#FA9300"/>
<stop offset="0.85" stop-color="#F66A00"/>
<stop offset="1" stop-color="#F63F00"/>
</linearGradient>
<linearGradient id="paint1_linear_567_11672" x1="24.8889" y1="30.1851" x2="14.5517" y2="1.77371" gradientUnits="userSpaceOnUse">
<stop stop-color="#FF5900"/>
<stop offset="0.23" stop-color="#FE6800"/>
<stop offset="0.66" stop-color="#FA9300"/>
<stop offset="0.85" stop-color="#F66A00"/>
<stop offset="1" stop-color="#F63F00"/>
</linearGradient>
<linearGradient id="paint2_linear_567_11672" x1="20.5794" y1="30.3302" x2="10.1415" y2="1.6571" gradientUnits="userSpaceOnUse">
<stop stop-color="#FFEA34"/>
<stop offset="0.63" stop-color="#FF8100"/>
<stop offset="0.7" stop-color="#FFA400"/>
<stop offset="1" stop-color="#FFBA00"/>
</linearGradient>
<linearGradient id="paint3_linear_567_11672" x1="19.3156" y1="27.456" x2="11.4178" y2="5.75903" gradientUnits="userSpaceOnUse">
<stop stop-color="#FFBA00"/>
<stop offset="0.21" stop-color="#FE6800"/>
<stop offset="1" stop-color="#D41B00"/>
</linearGradient>
<linearGradient id="paint4_linear_567_11672" x1="19.643" y1="26.981" x2="12.2322" y2="6.62043" gradientUnits="userSpaceOnUse">
<stop offset="0.04" stop-color="#FF9000"/>
<stop offset="1" stop-color="#E13E00"/>
</linearGradient>
</defs>
</svg>
