<svg width="25" height="28" viewBox="0 0 25 28" fill="none" xmlns="http://www.w3.org/2000/svg">
<g id="Group 1261160113">
<path id="Vector" d="M24.3685 10.8303C24.3685 11.2885 23.9889 12.1982 23.3801 13.378C22.809 14.4826 22.0327 15.8198 21.1538 17.2253C18.076 22.1704 13.7328 28.0183 12.7377 27.9499C11.893 27.8951 8.76385 25.279 5.87753 22.4474C3.32977 19.9441 0.963262 17.2698 0.535786 16.025C0.39664 15.6043 0.297036 15.1715 0.238264 14.7323C-0.278128 11.4082 0.104889 5.30729 0.81279 4.66436C1.63354 3.91884 9.36232 0.314359 10.1968 0.0134153C11.315 -0.390122 24.3992 8.42615 24.3685 10.8303Z" fill="url(#paint0_linear_567_12126)"/>
<g id="Vector_2" style="mix-blend-mode:multiply" opacity="0.3">
<path d="M1.92144 5.29363C1.16908 6.49398 0.420141 11.8392 1.63075 15.1598C2.84137 18.4804 6.82545 20.2245 10.0982 21.1684C13.371 22.1123 7.70434 16.343 11.2473 13.3781C14.7902 10.4131 15.4058 10.331 14.8757 15.6899C14.3456 21.0487 22.5292 19.8415 23.1961 10.9021C23.4731 7.21556 11.9107 0.642685 10.365 0.622166C8.8192 0.601647 2.81743 3.87441 1.92144 5.29363Z" fill="#D93B66"/>
</g>
<g id="Vector_3" style="mix-blend-mode:multiply" opacity="0.3">
<path d="M2.64179 4.80807C0.025635 9.34616 7.29957 10.5807 12.0873 10.9501C16.875 11.3194 21.7312 10.2661 18.6944 6.58637C15.6576 2.90665 12.6516 0.482002 9.42328 0.813724C6.19498 1.14545 2.64179 4.80807 2.64179 4.80807Z" fill="#963B66"/>
</g>
<path id="Vector_4" style="mix-blend-mode:screen" d="M11.3811 26.3188C9.84216 25.6999 2.34593 19.746 1.92188 16.5587C1.49782 13.3714 6.11799 18.6585 7.98178 19.8759C9.84558 21.0934 7.76633 17.4547 9.26079 12.7456C10.7552 8.03653 15.03 13.7921 16.757 15.6901C18.484 17.5881 20.1392 13.2244 21.4661 14.5752C22.793 15.926 15.3617 27.9193 11.3811 26.3188Z" fill="url(#paint1_linear_567_12126)"/>
<g id="Vector_5" style="mix-blend-mode:multiply" opacity="0.3">
<path d="M2.639 13.6005C2.29702 10.2833 8.32956 11.1691 8.77072 12.7456C9.21188 14.3221 9.29737 19.5647 7.79608 19.2877C6.29478 19.0107 2.87839 15.8816 2.639 13.6005Z" fill="#963B66"/>
</g>
<g id="Vector_6" style="mix-blend-mode:multiply" opacity="0.3">
<path d="M22.1175 9.60587C19.939 8.46365 16.8475 11.0559 16.5021 16.5583C16.1567 22.0608 22.374 14.4791 23.2118 12.2391C24.0497 9.99914 22.1175 9.60587 22.1175 9.60587Z" fill="#963B66"/>
</g>
<g id="Vector_7" style="mix-blend-mode:multiply" opacity="0.5">
<path d="M0.883604 15.4026C1.22558 16.5721 0.856248 9.08274 3.64339 5.98782C6.43054 2.89289 6.69386 8.987 11.208 9.78723C15.7222 10.5875 19.1659 7.78322 15.8487 5.37225C12.5315 2.96129 15.24 4.34631 19.2685 6.76412C23.297 9.18193 20.5646 13.125 18.5059 19.3935C17.3739 22.8407 23.7792 13.0258 23.6937 10.6798C23.6082 8.33381 12.8153 0.953851 10.247 0.632389C7.67877 0.310926 1.677 4.07956 0.876768 5.61163C0.0765321 7.14371 0.182542 12.9164 0.883604 15.4026Z" fill="#820045"/>
</g>
<g id="Vector_8" style="mix-blend-mode:darken">
<path d="M14.4317 25.1387C13.1629 25.4499 10.1843 16.3942 11.1145 10.7173C12.0446 5.04046 17.0581 8.898 21.008 10.242C24.9579 11.586 16.9965 24.5129 14.4317 25.1387Z" fill="#FF001A"/>
</g>
<g id="Vector_9" style="mix-blend-mode:soft-light">
<path d="M12.088 4.16515C10.6209 4.06597 6.68809 8.68955 6.66415 10.3584C6.64021 12.0273 11.6092 20.44 12.088 20.9598C12.5667 21.4796 18.1855 10.184 18.3394 8.99049C18.4933 7.79698 12.088 4.16515 12.088 4.16515Z" fill="white"/>
</g>
<path id="Vector_10" style="mix-blend-mode:screen" opacity="0.72" d="M12.088 4.16515C10.6209 4.06597 6.68809 8.68955 6.66415 10.3584C6.64021 12.0273 11.6092 20.44 12.088 20.9598C12.5667 21.4796 18.1855 10.184 18.3394 8.99049C18.4933 7.79698 12.088 4.16515 12.088 4.16515Z" fill="url(#paint2_linear_567_12126)"/>
<g id="Vector_11" style="mix-blend-mode:screen" opacity="0.92">
<path d="M12.088 4.16515C10.6209 4.06597 6.68809 8.68955 6.66415 10.3584C6.64021 12.0273 11.6092 20.44 12.088 20.9598C12.5667 21.4796 18.1855 10.184 18.3394 8.99049C18.4933 7.79698 12.088 4.16515 12.088 4.16515Z" fill="#FF8390"/>
</g>
<path id="Vector_12" style="mix-blend-mode:screen" opacity="0.72" d="M10.1865 0.0133179C10.5284 -0.0995359 11.6638 3.5323 11.6638 3.77511C11.6638 4.01792 8.03881 7.50955 6.97525 8.98006C5.91169 10.4506 0.850365 5.4987 0.894822 4.92417C0.93928 4.34964 8.72961 0.495511 10.1865 0.0133179Z" fill="url(#paint3_linear_567_12126)"/>
<g id="Vector_13" style="mix-blend-mode:multiply" opacity="0.5">
<path d="M0.527344 16.0251C1.26602 13.8398 6.683 9.55821 6.683 9.95833C6.683 10.3584 8.1672 14.5135 12.0863 20.9735C12.0863 20.9735 12.9276 27.4438 12.7258 27.9671C12.524 28.4903 5.32876 22.7245 0.527344 16.0251Z" fill="#B80066"/>
</g>
<g id="Vector_14" style="mix-blend-mode:multiply" opacity="0.5">
<path d="M18.3747 8.61094C18.7166 9.24361 23.8737 10.9877 24.2225 10.8783C24.5713 10.7688 21.0216 6.55222 16.6305 3.75823C12.2395 0.964245 10.9639 0.307637 10.875 0.27002C11.2486 1.60195 11.7466 2.89579 12.3626 4.13441C12.8927 4.99963 18.3747 8.61094 18.3747 8.61094Z" fill="#960066"/>
</g>
<path id="Vector_15" style="mix-blend-mode:screen" opacity="0.72" d="M13.0219 27.8679C12.7551 27.2762 12.6799 21.8114 13.7264 19.2876C14.7728 16.7637 17.8575 10.3174 18.8971 9.95831C19.9367 9.59923 24.0747 11.3262 24.0747 11.3262C24.0747 11.3262 19.7487 21.4181 13.0219 27.8679Z" fill="url(#paint4_linear_567_12126)"/>
<path id="Vector_16" style="mix-blend-mode:screen" d="M13.0219 27.8679C12.7551 27.2762 12.6799 21.8114 13.7264 19.2876C14.7728 16.7637 17.8575 10.3174 18.8971 9.95831C19.9367 9.59923 24.0747 11.3262 24.0747 11.3262C24.0747 11.3262 19.7487 21.4181 13.0219 27.8679Z" fill="url(#paint5_linear_567_12126)"/>
<path id="Vector_17" style="mix-blend-mode:screen" opacity="0.72" d="M0.896415 4.92781C1.21788 3.99078 6.99394 9.35647 6.83321 9.65742C6.67248 9.95836 1.67955 14.3802 0.988751 14.7598C0.297949 15.1394 -0.567264 9.19573 0.896415 4.92781Z" fill="url(#paint6_linear_567_12126)"/>
<path id="Vector_18" style="mix-blend-mode:screen" d="M23.3718 13.3813C20.807 18.3572 14.0084 28.0421 12.7294 27.9532C11.1426 27.8472 1.44401 18.6752 0.524084 16.0249C0.384938 15.6042 0.285334 15.1714 0.226562 14.7322C0.613001 14.3286 0.855804 14.6535 1.05073 14.8827C1.24566 15.1118 1.01996 16.4045 1.21489 16.9653C1.40982 17.5262 6.75498 23.0355 8.56748 24.4889C10.38 25.9423 12.3943 25.5148 12.7602 25.8568C13.1261 26.1988 14.7266 25.1387 16.6177 23.0492C18.5089 20.9597 17.4214 20.6553 18.461 19.6294C19.5006 18.6034 23.259 13.5421 23.3718 13.3813Z" fill="url(#paint7_linear_567_12126)"/>
<g id="Vector_19" style="mix-blend-mode:screen" opacity="0.5">
<path d="M16.0703 6.61035C16.0703 6.61035 18.259 8.20398 18.748 8.68959C19.2371 9.17521 22.4927 10.4371 22.4927 10.4371C22.4927 10.4371 19.2439 9.30516 18.9464 9.26071C18.6488 9.21625 17.6947 10.721 17.6947 10.721C17.6947 10.721 18.4573 8.92556 18.3787 8.61436C18.3 8.30315 16.0703 6.61035 16.0703 6.61035Z" fill="#FF9790"/>
</g>
<g id="Vector_20" style="mix-blend-mode:darken">
<path d="M3.21618 12.954C1.62597 15.1597 5.05262 20.6109 7.2413 22.5294C9.42998 24.448 11.1912 21.1957 11.7999 22.2559C12.4086 23.316 11.5092 20.6896 9.68646 17.1261C7.86371 13.5627 7.05321 10.7721 6.26665 10.7072C5.4801 10.6422 3.21618 12.954 3.21618 12.954Z" fill="#FF001A"/>
</g>
<g id="Vector_21" style="mix-blend-mode:screen">
<path d="M10.0378 5.3689C10.0378 5.3689 7.36698 8.41937 6.96002 8.66218C6.55306 8.90498 6.1803 8.53564 6.09481 8.73399C5.96015 9.22932 5.90929 9.7437 5.94433 10.2558C6.13736 10.5457 6.37514 10.8031 6.64882 11.0184C6.83007 11.1586 8.95035 15.707 9.4599 16.7911C9.69929 17.3075 11.1151 19.3696 11.8059 21.8182C12.5685 24.5198 12.6096 27.6319 12.7361 27.9533L12.6643 21.7977L13.3482 19.2944C13.3482 19.2944 12.719 20.2895 12.1684 20.1904C11.6178 20.0912 7.06945 11.9349 6.96002 10.9569C6.79245 9.46583 7.96202 7.80722 7.96202 7.80722L10.0378 5.3689Z" fill="#FF77BB"/>
</g>
<g id="Vector_22" style="mix-blend-mode:screen" opacity="0.5">
<path d="M1.53179 4.63366C1.24111 4.89699 6.2101 8.628 6.66151 8.6622C7.11293 8.6964 11.1517 4.39085 11.5792 3.91208C12.0067 3.4333 10.5977 0.471749 10.3104 0.26998C10.0232 0.068211 2.09264 4.12069 1.53179 4.63366Z" fill="#FF5793"/>
</g>
<path id="Vector_23" d="M6.83471 11.0184C5.96266 11.4664 5.99002 9.27432 6.15075 8.98364C6.31148 8.69295 7.98035 7.63623 7.98035 7.63623C7.98035 7.63623 6.9715 10.9466 6.83471 11.0184Z" fill="white"/>
<path id="Vector_24" d="M17.8016 7.90623C17.6135 7.84125 18.1436 8.98347 18.2941 9.18524C18.4445 9.38701 18.9609 9.11342 18.978 8.98347C18.9951 8.85352 17.8016 7.90623 17.8016 7.90623Z" fill="white"/>
<path id="Vector_25" style="mix-blend-mode:screen" d="M4.36719 20.7206C4.36719 20.7206 7.67415 18.6447 9.63712 19.6502C11.6001 20.6556 12.7526 27.7414 12.5063 27.8577C12.2601 27.974 7.04148 24.5508 4.36719 20.7206Z" fill="url(#paint8_linear_567_12126)"/>
<g id="Vector_26" style="mix-blend-mode:multiply" opacity="0.5">
<path d="M19.0634 9.82461C18.3795 9.73228 16.4541 14.3422 16.461 14.8859C16.4678 15.4297 22.7876 14.2669 23.5058 12.5707C24.2239 10.8745 19.0634 9.82461 19.0634 9.82461Z" fill="#960066"/>
</g>
<g id="Vector_27" style="mix-blend-mode:multiply" opacity="0.5">
<path d="M5.71544 8.35773C5.60942 9.12719 2.91119 10.6388 1.6869 10.3652C0.462605 10.0916 0.298454 6.17248 0.698572 5.57743C1.09869 4.98238 5.71544 8.35773 5.71544 8.35773Z" fill="#960066"/>
</g>
<g id="Vector_28" style="mix-blend-mode:multiply" opacity="0.5">
<path d="M24.3685 10.8303C24.3685 11.2885 23.9889 12.1982 23.3801 13.378C22.809 14.4826 22.0327 15.8198 21.1538 17.2253L20.8597 17.5502C21.0307 17.3177 23.9718 13.2173 23.428 10.2386C22.8672 7.16082 11.7015 1.08724 10.6892 0.77946C9.24947 0.345144 1.83531 4.02144 0.901703 4.92427C-0.0319056 5.8271 0.183546 12.1537 0.734136 14.7767C1.28473 17.3997 6.06904 22.4953 6.06904 22.4953L5.87753 22.4474C3.32977 19.9441 0.963262 17.2698 0.535786 16.025C0.39664 15.6043 0.297036 15.1715 0.238264 14.7323C-0.278128 11.4082 0.104889 5.30729 0.81279 4.66436C1.63354 3.91884 9.36232 0.314359 10.1968 0.0134153C11.315 -0.390122 24.3992 8.42615 24.3685 10.8303Z" fill="#7A0033"/>
</g>
<path id="Vector_29" d="M8.37101 0.967385C8.1966 0.926347 10.0365 0.0201005 10.2724 0.0303599C10.5084 0.0406193 11.1137 1.85312 11.059 1.98649C11.0043 2.11986 10.163 1.22387 9.55427 1.08023C9.16345 1.01147 8.76779 0.973739 8.37101 0.967385Z" fill="#FFA9B3"/>
<g id="Vector_30" style="mix-blend-mode:multiply" opacity="0.5">
<path d="M9.11596 16.0591C7.31372 13.973 10.6754 23.9247 11.6706 26.0826C12.6657 28.2405 11.7868 23.4561 11.6706 21.4556C11.5543 19.455 9.11596 16.0591 9.11596 16.0591Z" fill="#EC0066"/>
</g>
<path id="Vector_31" d="M0.574219 16.1515C0.72811 14.7835 3.68283 19.8414 3.68283 19.8414L4.6438 21.1204L7.69769 24.0923C7.69769 24.0923 2.80394 20.5904 0.574219 16.1515Z" fill="#FF8D98"/>
<path id="Vector_32" d="M24.3678 10.8303C24.3678 10.8303 23.5436 10.9261 23.2016 11.3365C22.8597 11.7468 22.0628 15.0709 22.0252 15.1598C21.9876 15.2487 20.5273 18.2137 20.5273 18.2137C20.5273 18.2137 23.3726 14.3561 24.3678 10.8303Z" fill="#FF8D98"/>
<path id="Vector_33" d="M0.799386 4.66425C0.590778 5.04043 1.92109 4.60953 2.33488 4.25387C2.74868 3.89821 3.87038 2.96118 3.87038 2.96118C3.87038 2.96118 1.06271 4.16154 0.799386 4.66425Z" fill="#FF8D98"/>
<path id="Vector_34" d="M11.7679 3.46741C11.5627 3.41269 11.0839 4.45574 11.1557 4.49335C11.2275 4.53097 12.6809 4.52072 12.7288 4.53098C12.7767 4.54124 11.9799 3.53239 11.7679 3.46741Z" fill="white"/>
<path id="Vector_35" d="M0.80405 15.4743C0.544145 15.8368 0.763013 14.8861 0.916905 14.7048C1.1473 14.5246 1.40167 14.3772 1.67268 14.2671C1.67268 14.2671 0.957942 15.2315 0.80405 15.4743Z" fill="white"/>
<g id="Vector_36" style="mix-blend-mode:screen">
<path d="M6.83594 23.3673C6.85646 22.2388 12.2153 25.2824 12.6804 26.2229C13.1455 27.1633 12.9335 27.7584 12.7317 27.9704C12.5299 28.1824 8.5903 25.4192 6.83594 23.3673Z" fill="#FFC098"/>
</g>
<path id="Vector_37" d="M10.0539 17.6185C10.3446 17.5262 11.2406 19.7764 11.1449 19.9918C11.0491 20.2073 8.81254 19.3763 10.0539 17.6185Z" fill="url(#paint9_linear_567_12126)"/>
<g id="Vector_38" style="mix-blend-mode:multiply" opacity="0.5">
<path d="M9.6928 18.5798C9.65176 19.0928 10.5307 19.4758 10.8282 19.4655C11.1257 19.4553 10.688 18.337 10.3768 17.9164C10.0656 17.4957 9.72357 18.019 9.6928 18.5798Z" fill="#960066"/>
</g>
<path id="Vector_39" d="M9.81711 19.1815C9.78634 19.1131 10.7678 19.6192 10.9149 19.585C11.0619 19.5508 10.7336 18.624 10.7336 18.624C10.7336 18.624 11.2329 19.7013 11.1885 20.0261C11.144 20.351 10.0633 19.6705 9.81711 19.1815Z" fill="#FF5E66"/>
<path id="Vector_40" d="M16.565 13.3235C16.4179 12.9986 15.1971 14.1066 15.5185 15.0334C15.84 15.9602 16.8933 14.0314 16.565 13.3235Z" fill="url(#paint10_linear_567_12126)"/>
<g id="Vector_41" style="mix-blend-mode:multiply" opacity="0.5">
<path d="M15.7568 13.843C15.2814 14.6398 16.0406 14.927 16.4579 14.2773C16.8751 13.6275 16.4579 13.2513 16.3621 13.289C16.1282 13.4352 15.9231 13.6229 15.7568 13.843Z" fill="#960066"/>
</g>
<path id="Vector_42" d="M15.5767 15.1598C15.4673 14.6776 16.2607 14.7323 16.3975 14.6024C16.5343 14.4724 15.8024 15.6796 15.5767 15.1598Z" fill="#FF88A4"/>
<g id="Group" style="mix-blend-mode:screen">
<path id="Vector_43" d="M3.96959 17.5533C4.08244 16.1854 5.01605 18.1757 5.01605 18.8084C5.01605 19.441 3.7986 19.6496 3.96959 17.5533Z" fill="#FF007C"/>
<path id="Vector_44" d="M5.07168 18.4565C5.0067 18.4565 5.3008 19.3047 5.51283 19.2328C5.72486 19.161 5.13323 18.4702 5.07168 18.4565Z" fill="#FF007C"/>
<path id="Vector_45" d="M4.58646 14.7768C4.56594 14.8862 5.15073 15.9976 5.41406 15.7719C5.67738 15.5462 4.66854 14.2912 4.58646 14.7768Z" fill="#FF007C"/>
<path id="Vector_46" d="M1.5176 8.98338C1.14827 9.7118 1.29532 11.5824 1.89379 12.0817C2.49225 12.581 2.23577 10.0298 2.33152 8.97654C2.42728 7.92324 1.71937 8.58668 1.5176 8.98338Z" fill="#FF007C"/>
<path id="Vector_47" d="M4.36578 5.90207C4.17085 6.58603 5.33018 6.12094 5.44987 5.25231C5.56956 4.38368 4.51968 5.36174 4.36578 5.90207Z" fill="#FF007C"/>
<path id="Vector_48" d="M14.9919 22.8337C14.3079 23.0287 14.8927 21.4658 15.1595 21.2025C15.4262 20.9392 15.3236 22.7448 14.9919 22.8337Z" fill="#FF007C"/>
<path id="Vector_49" d="M15.3161 23.2578C14.9536 23.2031 15.5966 22.6046 15.7641 22.7175C15.9317 22.8304 15.535 23.292 15.3161 23.2578Z" fill="#FF007C"/>
<path id="Vector_50" d="M20.2937 8.20044C20.1091 8.20044 20.5434 9.22639 20.9572 9.07933C21.371 8.93228 20.6357 8.20044 20.2937 8.20044Z" fill="#FF007C"/>
<path id="Vector_51" d="M17.456 14.944C17.5894 14.3045 18.8 13.2888 19.3745 13.3709C19.949 13.453 17.9519 15.6348 17.6646 15.7442C17.3773 15.8537 17.3397 15.5014 17.456 14.944Z" fill="#FF007C"/>
<path id="Vector_52" d="M18.9669 16.1853C18.772 16.0896 19.2097 15.8707 19.3944 15.7784C19.5791 15.686 19.1721 16.2777 18.9669 16.1853Z" fill="#FF007C"/>
<path id="Vector_53" d="M14.3794 3.73059C14.3554 3.94604 13.9998 3.61091 13.8493 3.47069C13.6988 3.33048 14.3999 3.50489 14.3794 3.73059Z" fill="#FF007C"/>
</g>
</g>
<defs>
<linearGradient id="paint0_linear_567_12126" x1="12.1802" y1="27.9567" x2="12.1802" y2="-0.000263286" gradientUnits="userSpaceOnUse">
<stop stop-color="#FF7A00"/>
<stop offset="0.56" stop-color="#EB0029"/>
<stop offset="1" stop-color="#A1002C"/>
</linearGradient>
<linearGradient id="paint1_linear_567_12126" x1="11.7573" y1="26.4659" x2="11.7573" y2="10.9365" gradientUnits="userSpaceOnUse">
<stop stop-color="#FF7A00"/>
<stop offset="0.56" stop-color="#EB0029"/>
<stop offset="1" stop-color="#A1002C"/>
</linearGradient>
<linearGradient id="paint2_linear_567_12126" x1="12.5086" y1="20.9838" x2="12.5086" y2="4.16173" gradientUnits="userSpaceOnUse">
<stop offset="0.24"/>
<stop offset="0.99" stop-color="#FF86A4"/>
</linearGradient>
<linearGradient id="paint3_linear_567_12126" x1="6.28103" y1="9.25707" x2="6.28103" y2="0.00989834" gradientUnits="userSpaceOnUse">
<stop offset="0.24"/>
<stop offset="0.99" stop-color="#FF86A4"/>
</linearGradient>
<linearGradient id="paint4_linear_567_12126" x1="18.4662" y1="27.8679" x2="18.4662" y2="9.90701" gradientUnits="userSpaceOnUse">
<stop offset="0.01" stop-color="#FF7200"/>
<stop offset="0.76"/>
</linearGradient>
<linearGradient id="paint5_linear_567_12126" x1="18.4662" y1="27.8679" x2="18.4662" y2="9.90701" gradientUnits="userSpaceOnUse">
<stop offset="0.02" stop-color="#FF2CFE"/>
<stop offset="1"/>
</linearGradient>
<linearGradient id="paint6_linear_567_12126" x1="0.0995994" y1="9.79762" x2="6.83663" y2="9.79762" gradientUnits="userSpaceOnUse">
<stop offset="0.01" stop-color="#FF86A4"/>
<stop offset="0.76"/>
</linearGradient>
<linearGradient id="paint7_linear_567_12126" x1="11.8026" y1="27.9566" x2="11.8026" y2="13.3813" gradientUnits="userSpaceOnUse">
<stop offset="0.02" stop-color="#FF1400"/>
<stop offset="1"/>
</linearGradient>
<linearGradient id="paint8_linear_567_12126" x1="8.45387" y1="27.8714" x2="8.45387" y2="19.3766" gradientUnits="userSpaceOnUse">
<stop offset="0.02" stop-color="#FF2CFE"/>
<stop offset="1"/>
</linearGradient>
<linearGradient id="paint9_linear_567_12126" x1="10.4164" y1="20.026" x2="10.4164" y2="17.6185" gradientUnits="userSpaceOnUse">
<stop stop-color="#FF134B"/>
<stop offset="1" stop-color="#97003B"/>
</linearGradient>
<linearGradient id="paint10_linear_567_12126" x1="16.0452" y1="15.2899" x2="16.0452" y2="13.2653" gradientUnits="userSpaceOnUse">
<stop stop-color="#FF134B"/>
<stop offset="1" stop-color="#97003B"/>
</linearGradient>
</defs>
</svg>
