<svg width="32" height="32" viewBox="0 0 32 32" fill="none" xmlns="http://www.w3.org/2000/svg">
<path d="M16 32C24.8366 32 32 24.8366 32 16C32 7.16344 24.8366 0 16 0C7.16344 0 0 7.16344 0 16C0 24.8366 7.16344 32 16 32Z" fill="#EDEDED"/>
<path fill-rule="evenodd" clip-rule="evenodd" d="M12.6549 14.6248L16.0016 11.2796L19.3496 14.6275L21.2958 12.68L16.0016 7.38464L10.7074 12.6787L12.6549 14.6248ZM7.38452 16.0003L9.33137 14.0535L11.2782 16.0003L9.33137 17.9471L7.38452 16.0003ZM16.0016 20.7218L12.6549 17.3752L10.7046 19.32L10.7074 19.3227L16.0016 24.6154L21.2958 19.32L21.2971 19.3187L19.3496 17.3739L16.0016 20.7218ZM20.7216 16.0008L22.6684 14.054L24.6153 16.0008L22.6684 17.9476L20.7216 16.0008ZM16.0016 14.0233L17.9763 15.9993H17.9777L17.9763 16.0007L16.0016 17.9768L14.0268 16.0034L14.0241 15.9993L14.0268 15.9966L14.3725 15.6509L14.5412 15.4836L16.0016 14.0233Z" fill="#F3BA2F"/>
</svg>
