<svg width="386" height="92" viewBox="0 0 386 92" fill="none" xmlns="http://www.w3.org/2000/svg">
<g clip-path="url(#clip0_224_940)">
<mask id="mask0_224_940" style="mask-type:luminance" maskUnits="userSpaceOnUse" x="0" y="0" width="386" height="92">
<path d="M385.183 0H0V91.8169H385.183V0Z" fill="white"/>
</mask>
<g mask="url(#mask0_224_940)">
<path fill-rule="evenodd" clip-rule="evenodd" d="M79.4072 14.0958L79.8903 17.0167C80.2711 19.7339 80.4474 22.4759 80.4181 25.2196C80.4148 31.2827 79.6835 37.3234 78.2395 43.212C76.2868 51.2123 72.8854 58.7872 68.2041 65.5619C62.7945 73.3424 54.9726 80.9951 43.5712 87.1441L42.1763 87.8959L40.7816 87.1441C29.3803 80.9951 21.5616 73.3424 16.1488 65.5619C11.4675 58.7872 8.06622 51.2123 6.11335 43.212C4.66969 37.3245 3.93825 31.2848 3.93478 25.2228C3.90531 22.4791 4.08176 19.7371 4.46264 17.0199L4.94569 14.099C4.98691 13.8608 4.9806 13.6167 4.92712 13.381C4.87363 13.1452 4.77401 12.9224 4.63399 12.7253C4.49399 12.5282 4.31637 12.3608 4.11137 12.2327C3.90637 12.1046 3.67804 12.0183 3.43955 11.9788C3.20105 11.9393 2.95712 11.9475 2.72177 12.0027C2.48642 12.0579 2.26434 12.1592 2.06832 12.3007C1.87229 12.4422 1.7062 12.621 1.57961 12.827C1.45302 13.0329 1.36844 13.2619 1.33074 13.5007L0.847683 16.4216C0.432184 19.3364 0.238618 22.2786 0.268651 25.2228C0.270953 31.5834 1.03783 37.9206 2.55278 44.0983C4.61499 52.5344 8.20493 60.5214 13.1449 67.6638C18.8552 75.8828 27.1376 83.964 39.0573 90.3784L41.3222 91.5972C41.5891 91.7416 41.8876 91.8171 42.1908 91.8171C42.494 91.8171 42.7926 91.7416 43.0594 91.5972L45.321 90.3784C57.2281 83.9608 65.5136 75.8828 71.2336 67.6638C76.1711 60.5218 79.7588 52.536 81.8192 44.1015C83.3342 37.9238 84.1011 31.5866 84.1034 25.226C84.1334 22.2818 83.9397 19.3396 83.5245 16.4248L83.0413 13.5039C83.0036 13.2651 82.9189 13.0361 82.7924 12.8302C82.666 12.6242 82.4998 12.4454 82.3037 12.3039C82.1077 12.1624 81.8855 12.0612 81.6502 12.0059C81.415 11.9506 81.171 11.9425 80.9325 11.982C80.694 12.0215 80.4656 12.1077 80.2606 12.2359C80.0556 12.364 79.8779 12.5314 79.7382 12.7285C79.5981 12.9256 79.4985 13.1484 79.445 13.3842C79.3915 13.62 79.3851 13.864 79.4264 14.1022L79.4072 14.0958Z" fill="white"/>
<path fill-rule="evenodd" clip-rule="evenodd" d="M14.9561 12.1059L42.181 3.78789L70.0137 12.285C70.4797 12.4243 70.9819 12.3734 71.4105 12.1433C71.8388 11.9132 72.1588 11.5228 72.3 11.0574C72.4414 10.592 72.3925 10.0897 72.1643 9.6602C71.9361 9.23072 71.5471 8.90916 71.0822 8.76588L42.7152 0.105595C42.3672 -0.00110005 41.9949 -0.00110005 41.6467 0.105595L13.8844 8.58031C13.6524 8.64968 13.4364 8.76418 13.2487 8.91724C13.0611 9.07032 12.9056 9.25893 12.791 9.47227C12.6765 9.68561 12.6052 9.91949 12.5813 10.1604C12.5573 10.4014 12.5812 10.6447 12.6516 10.8764C12.7219 11.1081 12.8374 11.3237 12.9912 11.5107C13.1451 11.6976 13.3344 11.8524 13.5482 11.966C13.762 12.0796 13.9962 12.1499 14.2372 12.1728C14.4783 12.1957 14.7215 12.1708 14.9529 12.0994L14.9561 12.1059Z" fill="white"/>
<path fill-rule="evenodd" clip-rule="evenodd" d="M1.51212 14.6332L40.5433 90.8136C40.6955 91.1113 40.9264 91.3617 41.2108 91.5373C41.4952 91.7131 41.8223 91.8077 42.1568 91.8107C42.491 91.8137 42.8197 91.7251 43.1073 91.5543C43.3947 91.3835 43.63 91.1372 43.7875 90.8423L67.5901 46.3248L67.6252 46.2546L82.8604 14.582C83.0667 14.145 83.0924 13.644 82.9315 13.1882C82.7708 12.7323 82.4366 12.3583 82.0014 12.1475C81.5664 11.9368 81.0658 11.9062 80.6083 12.0625C80.1509 12.2189 79.7737 12.5495 79.5586 12.9824L64.3492 44.6292L42.2293 86.0274L4.77218 12.9568C4.66423 12.7399 4.51432 12.5465 4.33107 12.3879C4.14785 12.2293 3.93498 12.1086 3.70477 12.0329C3.47458 11.9572 3.23166 11.9279 2.99004 11.9467C2.74845 11.9655 2.51298 12.0321 2.29731 12.1426C2.08162 12.2531 1.89001 12.4053 1.73357 12.5904C1.57713 12.7754 1.45897 12.9897 1.38594 13.2207C1.3129 13.4518 1.28645 13.6951 1.30811 13.9364C1.32977 14.1778 1.39912 14.4125 1.51212 14.6268V14.6332Z" fill="white"/>
<path fill-rule="evenodd" clip-rule="evenodd" d="M20.1968 48.5595H63.6004C64.0861 48.5595 64.5518 48.3666 64.8954 48.023C65.2388 47.6796 65.4319 47.2139 65.4319 46.7279C65.4319 46.2422 65.2388 45.7765 64.8954 45.4329C64.5518 45.0895 64.0861 44.8964 63.6004 44.8964H20.1968C19.711 44.8964 19.2452 45.0895 18.9017 45.4329C18.5582 45.7765 18.3652 46.2422 18.3652 46.7279C18.3652 47.2139 18.5582 47.6796 18.9017 48.023C19.2452 48.3666 19.711 48.5595 20.1968 48.5595ZM141.261 32.7555H113.025C112.537 32.758 112.069 32.9531 111.724 33.2981C111.379 33.6431 111.184 34.1102 111.182 34.5982V57.2614C111.185 57.7489 111.381 58.2158 111.725 58.5606C112.07 58.9056 112.537 59.1007 113.025 59.1042H141.261V62.943H113.025C112.28 62.9465 111.541 62.8023 110.852 62.5188C110.163 62.2351 109.538 61.818 109.011 61.2912C108.484 60.7644 108.067 60.1385 107.783 59.4496C107.5 58.7605 107.355 58.0223 107.359 57.2775V34.6143C107.355 33.8692 107.5 33.131 107.783 32.4421C108.067 31.7531 108.484 31.1271 109.011 30.6003C109.538 30.0735 110.163 29.6564 110.852 29.3729C111.541 29.0892 112.28 28.9451 113.025 28.9485H141.261V32.7555ZM194.281 28.9292V32.7683H167.088V43.9879H188.945V47.8589H167.085V59.0977H194.278V62.9368H163.246V28.9292H194.281Z" fill="white"/>
<path d="M250.277 34.643V44.6054C250.281 45.3502 250.137 46.0882 249.852 46.7771C249.568 47.4657 249.152 48.0917 248.624 48.6182C248.099 49.145 247.472 49.5621 246.783 49.8458C246.095 50.1295 245.356 50.2741 244.612 50.2712H239.42L250.089 62.924H245.036L234.413 50.2712H221.936C221.319 50.2397 220.704 50.1768 220.093 50.0825V62.924H216.254V28.9772H244.582C245.328 28.9742 246.065 29.1188 246.753 29.4026C247.444 29.6863 248.069 30.1034 248.597 30.6302C249.122 31.157 249.54 31.7827 249.822 32.4713C250.107 33.1602 250.252 33.8981 250.249 34.643H250.277ZM221.949 46.4002H244.612C244.848 46.4031 245.082 46.3588 245.303 46.2696C245.521 46.1805 245.72 46.0485 245.888 45.8812C246.056 45.7138 246.186 45.5148 246.276 45.2958C246.365 45.0766 246.409 44.8418 246.407 44.6054V34.643C246.409 34.4031 246.365 34.1646 246.278 33.9418C246.189 33.7189 246.056 33.5157 245.888 33.3443C245.725 33.1687 245.528 33.0293 245.307 32.9357C245.087 32.8418 244.848 32.7959 244.609 32.8002H221.945C221.457 32.8028 220.99 32.9979 220.645 33.3429C220.3 33.6879 220.105 34.1552 220.103 34.643V44.6054C220.098 44.845 220.143 45.0828 220.237 45.3034C220.331 45.524 220.471 45.7223 220.646 45.8851C220.818 46.0531 221.022 46.1853 221.246 46.2737C221.469 46.3623 221.708 46.4052 221.949 46.4002Z" fill="white"/>
<path fill-rule="evenodd" clip-rule="evenodd" d="M270.582 28.9292H304.563V32.7683H289.528V62.9398H285.688V32.7683H270.582V28.9292ZM325.16 62.924V28.9292H329.001V62.924H325.16ZM380.023 28.9292H384.935L370.724 45.9266L384.981 62.924H380.023L367.371 47.8621H356.417V62.924H352.552V28.9292H356.424V43.9879H367.378L380.023 28.9292Z" fill="white"/>
</g>
</g>
<defs>
<clipPath id="clip0_224_940">
<rect width="385.631" height="91.8169" fill="white"/>
</clipPath>
</defs>
</svg>
