<svg width="22" height="24" viewBox="0 0 22 24" fill="none" xmlns="http://www.w3.org/2000/svg">
<path fill-rule="evenodd" clip-rule="evenodd" d="M20.6925 3.67883L20.8188 4.44253C20.9184 5.15299 20.9645 5.86991 20.9568 6.58728C20.956 8.17256 20.7648 9.75196 20.3872 11.2916C19.8766 13.3834 18.9873 15.3639 17.7633 17.1353C16.3489 19.1696 14.3038 21.1705 11.3228 22.7782L10.958 22.9747L10.5934 22.7782C7.61237 21.1705 5.56809 19.1696 4.15285 17.1353C2.92885 15.3639 2.03956 13.3834 1.52896 11.2916C1.15149 9.75226 0.960251 8.1731 0.959345 6.58812C0.951639 5.87075 0.997774 5.15382 1.09736 4.44337L1.22366 3.67966C1.23444 3.61738 1.23279 3.55358 1.2188 3.49194C1.20482 3.4303 1.17877 3.37204 1.14216 3.32051C1.10556 3.26898 1.05912 3.2252 1.00552 3.1917C0.951915 3.1582 0.892216 3.13564 0.829859 3.12533C0.767502 3.115 0.703722 3.11713 0.642187 3.13157C0.580652 3.14601 0.522588 3.1725 0.471335 3.20949C0.420081 3.24648 0.376654 3.29324 0.343557 3.34709C0.310459 3.40094 0.288344 3.46081 0.278487 3.52324L0.152186 4.28695C0.0435488 5.04906 -0.00706138 5.81832 0.000791185 6.58812C0.00139315 8.25118 0.201903 9.90812 0.598003 11.5233C1.13719 13.7291 2.07583 15.8173 3.36744 17.6848C4.86048 19.8338 7.026 21.9467 10.1425 23.6238L10.7347 23.9425C10.8045 23.9803 10.8825 24 10.9618 24C11.0411 24 11.1192 23.9803 11.1889 23.9425L11.7803 23.6238C14.8935 21.9459 17.0599 19.8338 18.5554 17.6848C19.8464 15.8175 20.7844 13.7295 21.3231 11.5242C21.7193 9.90896 21.9198 8.25202 21.9204 6.58897C21.9282 5.81916 21.8776 5.0499 21.769 4.28779L21.6427 3.52408C21.6328 3.46164 21.6107 3.40177 21.5776 3.34793C21.5445 3.29407 21.5011 3.24731 21.4498 3.21032C21.3986 3.17333 21.3405 3.14685 21.279 3.13241C21.2175 3.11796 21.1537 3.11584 21.0913 3.12616C21.0289 3.13648 20.9692 3.15904 20.9156 3.19254C20.862 3.22603 20.8156 3.26981 20.779 3.32134C20.7424 3.37287 20.7164 3.43113 20.7024 3.49278C20.6884 3.55442 20.6867 3.61822 20.6975 3.6805L20.6925 3.67883Z" fill="white"/>
<path fill-rule="evenodd" clip-rule="evenodd" d="M3.84009 3.15853L10.9584 0.983701L18.2355 3.20538C18.3574 3.2418 18.4887 3.22848 18.6007 3.16832C18.7127 3.10817 18.7964 3.00609 18.8333 2.88441C18.8703 2.76273 18.8575 2.63138 18.7978 2.51909C18.7382 2.4068 18.6365 2.32272 18.5149 2.28526L11.098 0.0209225C11.007 -0.00697418 10.9097 -0.00697418 10.8186 0.0209225L3.55987 2.23674C3.49921 2.25488 3.44273 2.28481 3.39367 2.32483C3.34461 2.36486 3.30395 2.41417 3.27399 2.46995C3.24404 2.52573 3.22541 2.58688 3.21915 2.64988C3.21289 2.71289 3.21914 2.7765 3.23754 2.83708C3.25593 2.89767 3.28611 2.95402 3.32634 3.00291C3.36657 3.0518 3.41606 3.09226 3.47197 3.12197C3.52787 3.15168 3.5891 3.17006 3.65213 3.17605C3.71516 3.18203 3.77875 3.17551 3.83925 3.15686L3.84009 3.15853Z" fill="white"/>
<path fill-rule="evenodd" clip-rule="evenodd" d="M0.326742 3.81935L10.5319 23.7376C10.5717 23.8155 10.6321 23.8809 10.7064 23.9268C10.7808 23.9728 10.8663 23.9975 10.9538 23.9983C11.0412 23.9991 11.1271 23.9759 11.2023 23.9313C11.2774 23.8866 11.339 23.8222 11.3801 23.7451L17.6036 12.1055L17.6128 12.0871L21.5962 3.80597C21.6502 3.69169 21.6569 3.56071 21.6148 3.44152C21.5728 3.32233 21.4854 3.22454 21.3716 3.16943C21.2579 3.11433 21.127 3.10634 21.0074 3.14722C20.8878 3.18809 20.7892 3.27453 20.7329 3.38773L16.7562 11.6622L10.9727 22.4862L1.17912 3.38103C1.1509 3.32431 1.1117 3.27375 1.06379 3.23228C1.01589 3.19082 0.960226 3.15927 0.900035 3.13947C0.83985 3.11966 0.776335 3.112 0.713162 3.11693C0.649994 3.12185 0.588429 3.13926 0.532038 3.16815C0.475644 3.19704 0.425545 3.23683 0.384641 3.28522C0.343738 3.3336 0.312844 3.38963 0.293749 3.45004C0.274654 3.51046 0.267738 3.57406 0.273401 3.63717C0.279065 3.70027 0.297195 3.76163 0.326742 3.81768V3.81935Z" fill="white"/>
<path fill-rule="evenodd" clip-rule="evenodd" d="M5.2113 12.6898H16.5597C16.6867 12.6898 16.8085 12.6394 16.8983 12.5495C16.9881 12.4597 17.0386 12.338 17.0386 12.2109C17.0386 12.0839 16.9881 11.9621 16.8983 11.8723C16.8085 11.7825 16.6867 11.732 16.5597 11.732H5.2113C5.08429 11.732 4.96249 11.7825 4.87268 11.8723C4.78288 11.9621 4.73242 12.0839 4.73242 12.2109C4.73242 12.338 4.78288 12.4597 4.87268 12.5495C4.96249 12.6394 5.08429 12.6898 5.2113 12.6898Z" fill="white"/>
</svg>
