<svg width="49" height="48" viewBox="0 0 49 48" fill="none" xmlns="http://www.w3.org/2000/svg">
<rect width="49" height="48" rx="8" fill="#EFF0F6"/>
<path d="M25 28L25.7071 28.7071C25.3166 29.0976 24.6834 29.0976 24.2929 28.7071L25 28ZM30.2929 21.2929C30.6834 20.9024 31.3166 20.9024 31.7071 21.2929C32.0976 21.6834 32.0976 22.3166 31.7071 22.7071L30.2929 21.2929ZM18.2929 22.7071C17.9024 22.3166 17.9024 21.6834 18.2929 21.2929C18.6834 20.9024 19.3166 20.9024 19.7071 21.2929L18.2929 22.7071ZM24.2929 27.2929L30.2929 21.2929L31.7071 22.7071L25.7071 28.7071L24.2929 27.2929ZM24.2929 28.7071L18.2929 22.7071L19.7071 21.2929L25.7071 27.2929L24.2929 28.7071Z" fill="#7770E0"/>
</svg>
