<svg width="20" height="20" viewBox="0 0 20 20" fill="none" xmlns="http://www.w3.org/2000/svg">
<path d="M3.34367 9.26986L3.54121 10.0451C3.88143 9.9584 4.12536 9.66001 4.14269 9.30935L3.34367 9.26986ZM15.132 6.69902L14.4225 7.06875C14.5448 7.30329 14.775 7.46226 15.0377 7.49344L15.132 6.69902ZM5.83594 16.6335C6.27777 16.6335 6.63594 16.2753 6.63594 15.8335C6.63594 15.3917 6.27777 15.0335 5.83594 15.0335V16.6335ZM14.1693 15.0335C13.7274 15.0335 13.3693 15.3917 13.3693 15.8335C13.3693 16.2753 13.7274 16.6335 14.1693 16.6335V15.0335ZM9.2026 15.8335C9.2026 16.2753 9.56078 16.6335 10.0026 16.6335C10.4444 16.6335 10.8026 16.2753 10.8026 15.8335H9.2026ZM10.0026 9.16683L10.5683 8.60114C10.2559 8.28872 9.74934 8.28872 9.43692 8.60114L10.0026 9.16683ZM11.9369 12.2325C12.2493 12.5449 12.7559 12.5449 13.0683 12.2325C13.3807 11.9201 13.3807 11.4136 13.0683 11.1011L11.9369 12.2325ZM6.93692 11.1011C6.6245 11.4136 6.6245 11.9201 6.93692 12.2325C7.24934 12.5449 7.75587 12.5449 8.06829 12.2325L6.93692 11.1011ZM18.3693 11.2502C18.3693 13.3396 16.6754 15.0335 14.5859 15.0335V16.6335C17.5591 16.6335 19.9693 14.2233 19.9693 11.2502H18.3693ZM4.16927 15.0335C2.77015 15.0335 1.63594 13.8993 1.63594 12.5002H0.0359375C0.0359375 14.7829 1.88649 16.6335 4.16927 16.6335V15.0335ZM1.63594 12.5002C1.63594 11.3187 2.44544 10.3243 3.54121 10.0451L3.14613 8.49464C1.35868 8.9501 0.0359375 10.5697 0.0359375 12.5002H1.63594ZM4.14269 9.30935C4.28514 6.42712 6.66793 4.1335 9.58594 4.1335V2.5335C5.81073 2.5335 2.72898 5.50047 2.54465 9.23037L4.14269 9.30935ZM15.0377 7.49344C16.9138 7.71615 18.3693 9.31378 18.3693 11.2502H19.9693C19.9693 8.49347 17.8979 6.22174 15.2263 5.90459L15.0377 7.49344ZM9.58594 4.1335C11.6875 4.1335 13.5126 5.32277 14.4225 7.06875L15.8414 6.32929C14.6667 4.07533 12.307 2.5335 9.58594 2.5335V4.1335ZM4.16927 16.6335H5.83594V15.0335H4.16927V16.6335ZM14.1693 16.6335H14.5859V15.0335H14.1693V16.6335ZM10.8026 15.8335V9.16683H9.2026V15.8335H10.8026ZM9.43692 9.73251L11.9369 12.2325L13.0683 11.1011L10.5683 8.60114L9.43692 9.73251ZM9.43692 8.60114L6.93692 11.1011L8.06829 12.2325L10.5683 9.73251L9.43692 8.60114Z" fill="#F7F7FC"/>
</svg>
