<svg width="24" height="24" viewBox="0 0 24 24" fill="none" xmlns="http://www.w3.org/2000/svg">
<path d="M1.35355 11.6464C1.15829 11.4512 0.841709 11.4512 0.646447 11.6464C0.451184 11.8417 0.451184 12.1583 0.646447 12.3536L1.35355 11.6464ZM7 18L6.64645 18.3536C6.84171 18.5488 7.15829 18.5488 7.35355 18.3536L7 18ZM18.3536 7.35355C18.5488 7.15829 18.5488 6.84171 18.3536 6.64645C18.1583 6.45118 17.8417 6.45118 17.6464 6.64645L18.3536 7.35355ZM6.35355 11.6464C6.15829 11.4512 5.84171 11.4512 5.64645 11.6464C5.45118 11.8417 5.45118 12.1583 5.64645 12.3536L6.35355 11.6464ZM11.6464 17.6464C11.4512 17.8417 11.4512 18.1583 11.6464 18.3536C11.8417 18.5488 12.1583 18.5488 12.3536 18.3536L11.6464 17.6464ZM23.3536 7.35355C23.5488 7.15829 23.5488 6.84171 23.3536 6.64645C23.1583 6.45118 22.8417 6.45118 22.6464 6.64645L23.3536 7.35355ZM0.646447 12.3536L6.64645 18.3536L7.35355 17.6464L1.35355 11.6464L0.646447 12.3536ZM12.3536 18.3536L23.3536 7.35355L22.6464 6.64645L11.6464 17.6464L12.3536 18.3536ZM7.35355 18.3536L9.85355 15.8536L9.14645 15.1464L6.64645 17.6464L7.35355 18.3536ZM9.85355 15.8536L18.3536 7.35355L17.6464 6.64645L9.14645 15.1464L9.85355 15.8536ZM5.64645 12.3536L9.14645 15.8536L9.85355 15.1464L6.35355 11.6464L5.64645 12.3536Z" fill="#F7F7FC"/>
</svg>
