<svg width="36" height="36" viewBox="0 0 36 36" fill="none" xmlns="http://www.w3.org/2000/svg">
<circle cx="18" cy="18" r="17.75" stroke="#747687" stroke-width="0.5"/>
<path d="M17.9475 8.54712L22.7844 11.3299L22.7895 16.3192L27.1871 18.8506L27.1922 24.4315L22.3629 27.227L17.9855 24.7083L13.6311 27.227L8.79414 24.4442L8.78906 18.8608L13.1232 16.3522L13.1156 11.3426L17.9475 8.54712Z" fill="white"/>
<path d="M18.2041 18.3936V14.2676L17.9502 14.4148L17.6963 14.2676V18.3859L17.9578 18.5357L18.2041 18.3936ZM13.6211 21.933L13.3672 21.7883V25.9041L13.6287 26.0539L13.875 25.9117V21.7883L13.6211 21.933ZM22.6068 25.9117V21.7883L22.5561 21.8162C22.5154 21.8391 22.4723 21.8492 22.4291 21.8492C22.3402 21.8492 22.2564 21.8035 22.2082 21.7223C22.1447 21.6131 22.1727 21.4785 22.2641 21.3998C22.1676 21.4354 22.0965 21.5293 22.0965 21.6385V25.9016L22.358 26.0514L22.6068 25.9117Z" fill="#FF9100"/>
<path d="M25.9496 19.3127L26.1628 19.4346C26.1146 19.3559 26.0334 19.3127 25.9496 19.3127ZM26.1679 19.4448V19.686C26.2086 19.6124 26.2111 19.5209 26.1679 19.4448ZM21.6738 20.9581L21.4529 20.8311C21.331 20.76 21.1761 20.8032 21.105 20.925C21.0339 21.0469 21.0771 21.2018 21.199 21.2729L21.4199 21.3999C21.4605 21.4227 21.5037 21.4329 21.5468 21.4329C21.6357 21.4329 21.7195 21.3872 21.7677 21.3059C21.8363 21.184 21.7957 21.0292 21.6738 20.9581ZM20.5718 20.3258L20.3509 20.1989C20.2291 20.1278 20.0742 20.1709 20.0031 20.2928C19.932 20.4147 19.9752 20.5696 20.097 20.6407L20.3179 20.7676C20.3586 20.7905 20.4017 20.8006 20.4449 20.8006C20.5337 20.8006 20.6175 20.7549 20.6658 20.6737C20.7369 20.5518 20.6937 20.3969 20.5718 20.3258Z" fill="#FF9100"/>
<path d="M26.1632 19.4397C26.1632 19.4372 26.1607 19.4372 26.1607 19.4346L25.9474 19.3127C25.9017 19.3127 25.8586 19.3229 25.8154 19.3458L25.5945 19.4727C25.4726 19.5438 25.432 19.6987 25.5005 19.8206C25.5488 19.9018 25.6326 19.9475 25.7214 19.9475C25.7646 19.9475 25.8078 19.9374 25.8484 19.9145L26.0693 19.7875C26.1125 19.7622 26.1429 19.7292 26.1658 19.6885V19.4473C26.1658 19.4422 26.1632 19.4397 26.1632 19.4397ZM22.5171 21.25L22.2962 21.377C22.2836 21.3846 22.2709 21.3922 22.2607 21.4024C22.1668 21.4811 22.1414 21.6157 22.2048 21.7249C22.2531 21.8061 22.3369 21.8518 22.4257 21.8518C22.4689 21.8518 22.5121 21.8417 22.5527 21.8188L22.6035 21.7909L22.7736 21.6918C22.8955 21.6208 22.9361 21.4659 22.8675 21.344C22.7939 21.2221 22.639 21.179 22.5171 21.25ZM19.4703 19.6936L19.2494 19.5667C19.1275 19.4956 18.9726 19.5387 18.9015 19.6606C18.8304 19.7825 18.8736 19.9374 18.9955 20.0084L19.2164 20.1354C19.257 20.1583 19.3002 20.1684 19.3433 20.1684C19.4322 20.1684 19.516 20.1227 19.5642 20.0415C19.6328 19.9196 19.5896 19.7622 19.4703 19.6936ZM24.716 19.9805L24.4951 20.1075C24.3732 20.1786 24.3326 20.3334 24.4011 20.4553C24.4494 20.5366 24.5332 20.5823 24.622 20.5823C24.6652 20.5823 24.7084 20.5721 24.749 20.5493L24.9699 20.4223C25.0918 20.3512 25.1324 20.1963 25.0638 20.0745C24.9927 19.9526 24.8378 19.9094 24.716 19.9805ZM23.6166 20.6153L23.3957 20.7422C23.2738 20.8133 23.2332 20.9682 23.3017 21.0901C23.35 21.1713 23.4337 21.217 23.5226 21.217C23.5658 21.217 23.6089 21.2069 23.6496 21.184L23.8705 21.0571C23.9923 20.986 24.033 20.8311 23.9644 20.7092C23.8933 20.5874 23.7384 20.5442 23.6166 20.6153Z" fill="#FF9100"/>
<path d="M27.1818 18.8506L22.7842 16.3192L22.7791 11.3299L17.9422 8.54712L13.1104 11.3426L13.1154 16.3522L8.78125 18.8633L8.78887 24.4442L13.6258 27.2295L17.9777 24.7083L22.3551 27.2295L27.1844 24.434L27.1818 18.8506ZM17.9422 9.72017L21.507 11.7717L17.9447 13.8284L14.3799 11.7793L17.9422 9.72017ZM13.6131 17.2383L17.1779 19.2899L13.6156 21.3465L10.0508 19.2975L13.6131 17.2383ZM13.8721 25.9118L13.6258 26.054L13.3643 25.9042L9.80449 23.8551L9.79941 19.7393L13.3643 21.7883L13.6182 21.9356L13.8721 21.7883L17.4369 19.7317L17.442 23.8475L13.8721 25.9118ZM17.9549 18.5358L17.6934 18.386L14.1336 16.337L14.1285 12.2211L17.6934 14.2676L17.9473 14.4149L18.2012 14.2676L21.766 12.211L21.7711 16.3268L18.2012 18.3936L17.9549 18.5358ZM26.1713 23.845L22.6014 25.9118L22.3551 26.054L22.0936 25.9042L18.5338 23.8551L18.5313 19.4473L22.3475 17.2383L25.9504 19.3127C26.0342 19.3153 26.118 19.3584 26.1637 19.4346L26.1688 19.4372V19.4448C26.2119 19.5235 26.2094 19.6149 26.1688 19.686L26.1713 23.845Z" fill="#FF9100"/>
</svg>
