<svg width="36" height="36" viewBox="0 0 36 36" fill="none" xmlns="http://www.w3.org/2000/svg">
<circle cx="18" cy="18" r="17.75" stroke="#747687" stroke-width="0.5"/>
<path d="M14.607 26.8899C14.347 26.7053 14.0753 26.5377 13.7937 26.3882C13.8203 26.904 13.9687 27.4062 14.2267 27.8537C14.6715 28.4194 15.1732 28.9379 15.7239 29.401C15.0902 29.1977 14.4934 29.034 13.8148 28.8333C13.808 28.5559 13.7645 28.2807 13.6854 28.0147C13.6229 27.7591 13.5344 27.5105 13.4214 27.2728C13.2191 26.929 12.9613 26.6212 12.6583 26.3618C12.3942 26.1294 12.1539 25.9631 12.0061 25.8548C11.9453 26.7526 12.1275 27.6107 13.6485 28.7831C13.0121 28.5957 12.3969 28.4029 11.7763 28.1626C11.7738 27.2743 11.4972 26.4084 10.9842 25.6832C10.7993 25.4402 10.6304 25.2554 10.5221 25.1366C10.1392 26.301 10.728 27.3414 11.6126 28.094C11.0037 27.8577 10.417 27.5679 9.85932 27.2279C10.0106 26.1699 9.83175 25.091 9.34705 24.1385C8.59451 25.2343 9.16221 26.5149 9.70616 27.1302C9.16274 26.7848 8.6658 26.3713 8.22748 25.8997L8.20635 25.8786C8.40439 25.4455 8.85064 23.9853 8.44136 22.7601C7.67561 23.51 7.61223 24.6085 7.98455 25.5274C8.01623 25.6066 8.05056 25.6779 8.08489 25.7439C7.65374 25.2523 7.28888 24.7064 6.99963 24.12C7.33078 23.6977 7.57192 23.212 7.70816 22.6929C7.84441 22.1738 7.87286 21.6324 7.79178 21.1019C6.8412 21.7224 6.68013 23.0664 6.92042 23.9695C6.634 23.3754 6.40158 22.7568 6.22596 22.1211C6.61 21.7634 6.91911 21.3329 7.13534 20.8547C7.35156 20.3764 7.47059 19.86 7.48549 19.3354C6.74879 19.639 6.34742 20.3916 6.21804 21.1494C6.16677 21.4236 6.1561 21.7038 6.18635 21.9812C6.01538 21.3364 5.90662 20.6768 5.86156 20.0113C6.06711 19.8366 6.26364 19.6515 6.4504 19.4568C7.02794 18.9504 7.4108 18.2585 7.53302 17.5002C6.77519 17.6665 6.28141 18.324 6.02264 19.0396C5.92021 19.3282 5.86406 19.6312 5.85629 19.9374C5.8378 19.6417 5.82988 19.3512 5.83517 19.0713C5.8714 17.6068 6.17011 16.1606 6.7171 14.8016C6.74086 14.7382 6.76198 14.688 6.78047 14.6484C6.86232 14.5613 6.99171 14.3844 7.1343 14.1943C7.32441 13.9302 7.53302 13.6662 7.64656 13.4681C7.99833 12.8934 8.26514 12.2708 8.43871 11.6198C7.8755 11.9905 7.42442 12.5082 7.1343 13.1169C7.00802 13.4023 6.90729 13.6983 6.83328 14.0015C6.77406 14.2017 6.73253 14.4067 6.70918 14.6141C6.69333 14.6537 6.66957 14.7092 6.64316 14.7778C6.51114 15.1026 6.35535 15.5356 6.23124 15.9555C6.24709 15.8314 6.29197 15.4591 6.35006 15.0419C6.38175 14.8121 6.41608 14.5692 6.44248 14.3421C6.46986 14.1488 6.48397 13.9538 6.48473 13.7586C6.45366 13.2641 6.36504 12.7749 6.22068 12.301C5.83673 12.9356 5.6587 13.6735 5.71106 14.4134C5.75859 14.8438 5.9223 15.6809 6.21804 15.9977C6.02104 16.6588 5.88059 17.3355 5.79819 18.0204C5.64768 15.9344 5.7982 15.8578 5.1143 14.4372C4.47001 16.4017 5.4206 17.8699 5.78763 18.1207C5.71359 18.7897 5.70034 19.464 5.74802 20.1354C5.17767 18.2105 5.36251 18.0837 4.35119 16.7424C4.08713 18.7307 5.1143 20.0087 5.76122 20.2912C5.81877 20.9475 5.93633 21.5972 6.11242 22.232C5.13542 20.4866 5.30178 20.315 4 19.1954C4.13467 21.4478 5.69257 22.3297 6.16787 22.4274C6.35163 23.0481 6.5893 23.6516 6.87817 24.2309C6.74614 24.0804 6.5613 23.8665 6.3659 23.6341C6.32366 23.584 6.28141 23.5338 6.2418 23.481C5.58167 22.6888 5.43116 22.3825 4.12938 21.7118C4.72878 23.7107 6.21276 24.4553 6.98115 24.4421C7.28094 25.0068 7.64994 25.5319 8.07961 26.0053L8.03207 25.9763L7.75218 25.7967C7.65184 25.7281 7.54094 25.6568 7.43268 25.5775C6.39231 24.8567 6.35534 24.5583 4.76311 24.1596C5.48925 25.4798 6.58507 26.3987 8.06904 26.2456C8.10548 26.2431 8.14168 26.2378 8.17731 26.2298C8.20884 26.225 8.23979 26.217 8.26972 26.206C8.71339 26.6537 9.20789 27.0481 9.74313 27.381C9.63487 27.352 9.31009 27.2622 9.00643 27.1645C7.71257 26.742 7.64392 26.5334 5.94871 26.5255C7.60695 28.3342 9.43948 27.917 10.0019 27.5394C10.5369 27.8462 11.0948 28.1111 11.6707 28.3316C9.52397 28.2075 9.44739 28.0015 7.81027 28.5508C9.99398 29.8209 11.7235 28.7039 11.977 28.4504C12.5474 28.6643 13.1204 28.8439 13.7013 29.0208C13.2682 29.0393 11.8529 29.1079 11.441 29.232C10.9357 29.4062 10.4609 29.6583 10.0336 29.9793C10.3922 30.0897 10.7611 30.1631 11.1347 30.1985C12.4549 30.3041 13.791 29.4063 14.0393 29.1211C14.5674 29.2769 15.18 29.4591 15.7371 29.6492C13.5059 29.7258 12.9936 30.1773 12.2727 30.9325C12.617 30.9839 12.9651 31.006 13.3131 30.9985C14.4274 30.9563 15.8348 30.0506 16.0909 29.7707C16.2467 29.8261 16.3893 29.8816 16.5266 29.937C16.5478 29.8631 16.5689 29.7918 16.5926 29.7205C16.3444 29.6255 16.1015 29.541 15.8691 29.4565C15.9031 28.9554 15.8043 28.4543 15.5827 28.0037C15.3611 27.5531 15.0245 27.1689 14.607 26.8899Z" fill="url(#paint0_linear_581_4100)"/>
<path d="M31.3227 21.7013C30.0262 22.372 29.8757 22.673 29.2103 23.4705C29.1707 23.5233 29.1285 23.5735 29.0862 23.6236C28.8908 23.856 28.706 24.0699 28.5766 24.2204C28.8635 23.6405 29.1003 23.0372 29.2843 22.4169C29.7595 22.3192 31.3201 21.4373 31.4521 19.1849C30.1504 20.3045 30.3167 20.4761 29.3397 22.2215C29.5158 21.5867 29.6333 20.937 29.6909 20.2807C30.3378 19.9982 31.3729 18.7202 31.1036 16.7319C30.0896 18.0732 30.2744 18.2 29.7041 20.1249C29.7518 19.4535 29.7385 18.7792 29.6645 18.1102C30.0315 17.8462 30.9848 16.3912 30.3378 14.4267C29.6487 15.8473 29.8097 15.9239 29.6539 18.0099C29.5698 17.3248 29.4276 16.6482 29.2288 15.9872C29.5245 15.6783 29.6909 14.8412 29.7358 14.4029C29.7881 13.6631 29.6101 12.9251 29.2262 12.2905C29.0818 12.7644 28.9932 13.2536 28.9621 13.7481C28.9629 13.9433 28.977 14.1383 29.0044 14.3316C29.0308 14.5587 29.0651 14.8016 29.0968 15.0314C29.1549 15.4486 29.1998 15.8235 29.2156 15.945C29.0915 15.5251 28.9357 15.0921 28.8063 14.7673L28.7535 14.6142C28.7342 14.4035 28.6962 14.1949 28.64 13.991C28.566 13.6878 28.4652 13.3918 28.339 13.1064C28.0488 12.4977 27.5977 11.98 27.0345 11.6093C27.2093 12.2599 27.476 12.8823 27.8267 13.4576C27.9402 13.6425 28.1488 13.9303 28.339 14.1838C28.4512 14.345 28.572 14.5001 28.7007 14.6485C28.7165 14.6881 28.7377 14.7383 28.7614 14.8016C29.3096 16.1603 29.6084 17.6067 29.6434 19.0714C29.6434 19.3513 29.6434 19.6417 29.6222 19.9375C29.6145 19.6313 29.5583 19.3283 29.4559 19.0397C29.1918 18.3241 28.7033 17.6666 27.9455 17.5003C28.0677 18.2586 28.4506 18.9505 29.0281 19.4569C29.2149 19.6516 29.4114 19.8366 29.617 20.0114C29.5719 20.6769 29.4631 21.3365 29.2922 21.9812C29.3224 21.7039 29.3118 21.4237 29.2605 21.1495C29.1311 20.3784 28.7324 19.6391 27.993 19.3354C28.0049 19.8584 28.1202 20.3738 28.3323 20.8519C28.5444 21.33 28.8491 21.7614 29.2288 22.1212C29.0532 22.7569 28.8208 23.3755 28.5343 23.9695C28.7746 23.0665 28.6136 21.7224 27.663 21.1019C27.5825 21.6324 27.6113 22.1738 27.7475 22.6928C27.8837 23.2117 28.1245 23.6974 28.4551 24.12C28.1659 24.7064 27.801 25.2524 27.3699 25.744C27.4042 25.6779 27.4385 25.6067 27.4702 25.5274C27.8425 24.5953 27.7818 23.5101 27.0134 22.7602C26.6041 23.9854 27.0504 25.4456 27.2484 25.8786L27.2273 25.8998C26.7893 26.3707 26.2933 26.7842 25.7512 27.1302C26.2925 26.5124 26.8603 25.2343 26.1077 24.1385C25.623 25.091 25.4441 26.17 25.5954 27.2279C25.0378 27.5679 24.451 27.8578 23.8421 28.094C24.7267 27.3415 25.3156 26.3011 24.9327 25.1366C24.8244 25.2555 24.6554 25.4403 24.4706 25.6832C23.959 26.4092 23.6825 27.2746 23.6784 28.1627C23.0579 28.403 22.4427 28.5957 21.8063 28.7832C23.3272 27.6108 23.5094 26.7526 23.4487 25.8549C23.2235 26.0125 23.0067 26.1817 22.7991 26.3618C22.4953 26.6211 22.2365 26.9289 22.0334 27.2728C21.9216 27.511 21.8331 27.7595 21.7693 28.0148C21.6916 28.2811 21.6481 28.5561 21.64 28.8334C20.9613 29.0341 20.3646 29.1978 19.7309 29.4011C20.2816 28.9379 20.7833 28.4194 21.228 27.8537C21.486 27.4063 21.6344 26.9041 21.6611 26.3882C21.3794 26.5378 21.1078 26.7054 20.8478 26.8899C20.4287 27.1674 20.0903 27.5506 19.8668 28.0009C19.6433 28.4511 19.5427 28.9523 19.5751 29.4539C19.3427 29.5305 19.0998 29.615 18.8516 29.7179C18.8753 29.7892 18.8965 29.8605 18.9176 29.9345C19.0549 29.879 19.1975 29.8236 19.3533 29.7681C19.6173 30.048 21.0168 30.9537 22.1311 30.996C22.4791 31.0034 22.8272 30.9813 23.1715 30.9299C22.4506 30.1695 21.9383 29.7232 19.7071 29.6467C20.2642 29.4618 20.8874 29.2796 21.4049 29.1185C21.6532 29.409 22.9893 30.3015 24.3095 30.1959C24.6831 30.1608 25.0521 30.0874 25.4106 29.9767C24.9833 29.6557 24.5085 29.4036 24.0032 29.2295C23.5834 29.1053 22.176 29.0367 21.7429 29.0182C22.3238 28.8413 22.8968 28.6617 23.4672 28.4479C23.7312 28.7119 25.4502 29.8183 27.6339 28.5482C25.9968 27.999 25.9202 28.2049 23.7735 28.329C24.3494 28.1085 24.9073 27.8437 25.4423 27.5369C26.0047 27.9145 27.8373 28.329 29.4955 26.5229C27.8003 26.5229 27.7316 26.7394 26.4378 27.1619C26.1341 27.2596 25.8093 27.3494 25.7011 27.3784C26.2363 27.0455 26.7308 26.6512 27.1745 26.2034C27.2044 26.2144 27.2354 26.2224 27.2669 26.2272C27.3025 26.2352 27.3387 26.2405 27.3752 26.243C28.8591 26.3962 29.9549 25.4799 30.6811 24.157C29.0968 24.5557 29.0519 24.8541 28.0115 25.575C27.9033 25.6542 27.7924 25.7255 27.692 25.7941L27.4121 25.9737L27.3646 26.0027C27.7943 25.5293 28.1633 25.0042 28.4631 24.4395C29.2288 24.4448 30.7233 23.7002 31.3227 21.7013Z" fill="url(#paint1_linear_581_4100)"/>
<path d="M17.7854 8.03396L16.547 8.81027L16.9035 7.39231L15.7812 6.45493L17.2388 6.35723L17.7854 5L18.3294 6.35723L19.7896 6.45493L18.6673 7.39231L19.0238 8.81027L17.7854 8.03396Z" fill="url(#paint2_linear_581_4100)"/>
<path d="M11.6718 10.0619L11.0117 10.7432L11.0169 9.79258L10.1641 9.37538L11.0698 9.08756L11.2018 8.1449L11.7563 8.91857L12.6937 8.75486L12.1286 9.52061L12.5749 10.3603L11.6718 10.0619Z" fill="url(#paint3_linear_581_4100)"/>
<path d="M23.8031 10.0619L24.4633 10.7432L24.458 9.79258L25.3109 9.37538L24.4052 9.08756L24.2731 8.1449L23.7186 8.91857L22.7812 8.75486L23.3463 9.52061L22.9001 10.3603L23.8031 10.0619Z" fill="url(#paint4_linear_581_4100)"/>
<path d="M17.7809 12.8H14.3984V23.2001H19.7902V21.4914H21.5484V17.2196L17.7809 12.8ZM19.7902 21.4749H16.1566V14.5252H16.9604L19.7902 17.844V21.4749Z" fill="url(#paint5_linear_581_4100)"/>
<defs>
<linearGradient id="paint0_linear_581_4100" x1="4.00528" y1="21.3025" x2="16.6032" y2="21.3025" gradientUnits="userSpaceOnUse">
<stop stop-color="#FFF5A8"/>
<stop offset="0.31" stop-color="#BD8100"/>
<stop offset="0.76" stop-color="#E0BE58"/>
<stop offset="1" stop-color="#F1DC83"/>
</linearGradient>
<linearGradient id="paint1_linear_581_4100" x1="18.8595" y1="21.3026" x2="31.4574" y2="21.3026" gradientUnits="userSpaceOnUse">
<stop stop-color="#FFF5A8"/>
<stop offset="0.31" stop-color="#BD8100"/>
<stop offset="0.76" stop-color="#E0BE58"/>
<stop offset="1" stop-color="#F1DC83"/>
</linearGradient>
<linearGradient id="paint2_linear_581_4100" x1="23.3754" y1="4.87061" x2="12.2667" y2="9.41496" gradientUnits="userSpaceOnUse">
<stop offset="0.01" stop-color="#FBC01B"/>
<stop offset="0.25" stop-color="#FFF5A8"/>
<stop offset="0.32" stop-color="#F8E997"/>
<stop offset="0.44" stop-color="#E7CA6A"/>
<stop offset="0.61" stop-color="#CA9922"/>
<stop offset="0.69" stop-color="#BD8100"/>
<stop offset="1" stop-color="#FFF5A8"/>
</linearGradient>
<linearGradient id="paint3_linear_581_4100" x1="19.391" y1="3.79006" x2="10.2017" y2="10.4754" gradientUnits="userSpaceOnUse">
<stop offset="0.01" stop-color="#FBC01B"/>
<stop offset="0.25" stop-color="#FFF5A8"/>
<stop offset="0.32" stop-color="#F8E997"/>
<stop offset="0.44" stop-color="#E7CA6A"/>
<stop offset="0.61" stop-color="#CA9922"/>
<stop offset="0.69" stop-color="#BD8100"/>
<stop offset="1" stop-color="#FFF5A8"/>
</linearGradient>
<linearGradient id="paint4_linear_581_4100" x1="20.5854" y1="-5.0628" x2="29.7541" y2="1.63627" gradientUnits="userSpaceOnUse">
<stop offset="0.01" stop-color="#FBC01B"/>
<stop offset="0.25" stop-color="#FFF5A8"/>
<stop offset="0.32" stop-color="#F8E997"/>
<stop offset="0.44" stop-color="#E7CA6A"/>
<stop offset="0.61" stop-color="#CA9922"/>
<stop offset="0.69" stop-color="#BD8100"/>
<stop offset="1" stop-color="#FFF5A8"/>
</linearGradient>
<linearGradient id="paint5_linear_581_4100" x1="15.0794" y1="13.9742" x2="18.8955" y2="23.9092" gradientUnits="userSpaceOnUse">
<stop stop-color="#FBC01B"/>
<stop offset="0.185" stop-color="#FFF5A8"/>
<stop offset="0.295" stop-color="#FFF5A8"/>
<stop offset="0.435" stop-color="#E7CA6A"/>
<stop offset="0.52" stop-color="#CA9922"/>
<stop offset="0.6" stop-color="#BD8100"/>
<stop offset="1" stop-color="#FFF5A8"/>
</linearGradient>
</defs>
</svg>
