<svg width="36" height="36" viewBox="0 0 36 36" fill="none" xmlns="http://www.w3.org/2000/svg">
<circle cx="18" cy="18" r="17.75" stroke="#747687" stroke-width="0.5"/>
<mask id="mask0_581_4115" style="mask-type:alpha" maskUnits="userSpaceOnUse" x="5" y="5" width="26" height="26">
<rect x="5" y="5" width="26" height="26" fill="#D9D9D9"/>
</mask>
<g mask="url(#mask0_581_4115)">
<path fill-rule="evenodd" clip-rule="evenodd" d="M18.6406 7.38137C18.6406 7.57473 18.4839 7.73148 18.2905 7.73148L15.1176 7.73148C14.4224 7.73148 13.9221 7.73176 13.5292 7.76386C13.1404 7.79563 12.8876 7.85682 12.6819 7.96164C12.2845 8.16409 11.9615 8.48713 11.759 8.88446C11.6542 9.09018 11.593 9.34296 11.5613 9.73181C11.5292 10.1248 11.5289 10.625 11.5289 11.3202L11.5289 13.1008L12.5724 12.0573C12.7091 11.9206 12.9308 11.9206 13.0675 12.0573C13.2042 12.194 13.2042 12.4157 13.0675 12.5525L11.4263 14.1936C11.3607 14.2593 11.2716 14.2962 11.1788 14.2962C11.0859 14.2962 10.9969 14.2593 10.9312 14.1936L9.29002 12.5525C9.15329 12.4157 9.15329 12.194 9.29002 12.0573C9.42675 11.9206 9.64843 11.9206 9.78516 12.0573L10.8286 13.1008L10.8286 11.3044C10.8286 10.6284 10.8286 10.0996 10.8634 9.67479C10.8987 9.24264 10.9716 8.88744 11.1351 8.56656C11.4047 8.03747 11.8349 7.60731 12.364 7.33773C12.6848 7.17423 13.04 7.10126 13.4722 7.06595C13.897 7.03125 14.4258 7.03125 15.1019 7.03125L18.2905 7.03125C18.4839 7.03125 18.6406 7.188 18.6406 7.38137Z" fill="url(#paint0_linear_581_4115)"/>
<path fill-rule="evenodd" clip-rule="evenodd" d="M17.8281 27.4574C17.8281 27.264 17.9849 27.1073 18.1782 27.1073L21.3512 27.1073C22.0463 27.1073 22.5466 27.107 22.9395 27.0749C23.3284 27.0431 23.5812 26.9819 23.7869 26.8771C24.1842 26.6747 24.5073 26.3516 24.7097 25.9543C24.8145 25.7486 24.8757 25.4958 24.9075 25.1069C24.9396 24.714 24.9399 24.2137 24.9399 23.5186L24.9399 21.7379L23.8964 22.7814C23.7597 22.9182 23.538 22.9182 23.4012 22.7814C23.2645 22.6447 23.2645 22.423 23.4012 22.2863L25.0424 20.6451C25.1081 20.5795 25.1971 20.5426 25.29 20.5426C25.3828 20.5426 25.4719 20.5795 25.5376 20.6451L27.1787 22.2863C27.3155 22.423 27.3155 22.6447 27.1787 22.7814C27.042 22.9182 26.8203 22.9182 26.6836 22.7814L25.6401 21.7379L25.6401 23.5343C25.6401 24.2103 25.6401 24.7392 25.6054 25.164C25.5701 25.5961 25.4971 25.9513 25.3336 26.2722C25.064 26.8013 24.6339 27.2314 24.1048 27.501C23.7839 27.6645 23.4287 27.7375 22.9966 27.7728C22.5718 27.8075 22.0429 27.8075 21.3669 27.8075L18.1782 27.8075C17.9849 27.8075 17.8281 27.6507 17.8281 27.4574Z" fill="url(#paint1_linear_581_4115)"/>
<path d="M12.4798 19.3682C13.0425 19.3682 13.6052 19.3633 14.168 19.3731C14.2658 19.3731 14.3931 19.4219 14.4616 19.4953C14.9166 19.9402 15.3717 20.3851 15.8072 20.8496C17.0696 22.1942 17.466 23.7734 16.8935 25.5238C16.3259 27.2693 15.0977 28.345 13.2823 28.6921C10.3317 29.2544 7.58659 26.795 7.7921 23.8028C7.8704 22.6636 8.30589 21.6906 9.08881 20.8741C9.53898 20.4047 9.99895 19.9402 10.4687 19.4855C10.5372 19.4171 10.6644 19.3731 10.7672 19.3731C11.3348 19.3633 11.9073 19.3682 12.4798 19.3682ZM10.9433 24.8344C11.0021 25.5727 11.4082 25.9981 12.1079 26.1937C12.1079 26.4332 12.1079 26.6679 12.1079 26.9026C12.3575 26.9026 12.5777 26.9026 12.8272 26.9026C12.8272 26.7462 12.837 26.6093 12.8223 26.4724C12.7979 26.267 12.8566 26.1643 13.0768 26.0959C13.6689 25.9052 14.0407 25.2842 13.9673 24.678C13.8939 24.0326 13.3948 23.5339 12.7489 23.4654C12.5777 23.4459 12.4064 23.4556 12.2351 23.441C11.9171 23.4067 11.6822 23.1427 11.6773 22.8347C11.6675 22.5218 11.8926 22.2529 12.2058 22.1991C12.7881 22.0964 13.0376 22.2333 13.2774 22.8054C13.5025 22.8054 13.7276 22.8054 14.0163 22.8054C13.9331 22.5609 13.8793 22.3409 13.7814 22.1453C13.5857 21.759 13.2285 21.5684 12.8223 21.4559C12.8223 21.3728 12.8223 21.3092 12.8223 21.2408C12.8223 20.6589 12.8223 20.6541 12.2498 20.7176C12.1911 20.7225 12.1079 20.8154 12.0981 20.8741C12.0786 21.0648 12.0932 21.2603 12.0932 21.451C12.015 21.4755 11.9611 21.495 11.9073 21.5146C11.2614 21.7297 10.8602 22.3458 10.9531 22.9863C11.0461 23.661 11.5746 24.1401 12.2645 24.1793C12.4113 24.189 12.5581 24.1793 12.7049 24.1988C13.023 24.2428 13.2432 24.5166 13.2383 24.8295C13.2334 25.1425 12.9985 25.4016 12.6853 25.4456C12.0884 25.5287 11.8584 25.3967 11.6431 24.8344C11.418 24.8344 11.1929 24.8344 10.9433 24.8344Z" fill="url(#paint2_linear_581_4115)"/>
<path d="M9.71094 16.2537C11.5508 16.2537 13.3662 16.2537 15.2011 16.2537C14.9467 16.9479 14.6824 17.6227 14.4476 18.3023C14.3595 18.5565 14.2518 18.6494 13.968 18.6445C12.9258 18.625 11.8786 18.6299 10.8364 18.6397C10.6553 18.6397 10.5624 18.5956 10.4987 18.4147C10.2541 17.7009 9.98006 16.9871 9.71094 16.2537Z" fill="url(#paint3_linear_581_4115)"/>
<path d="M23.6431 16.2217C21.178 16.2498 19.1336 14.1722 19.1406 11.6982C19.1477 9.25565 21.185 7.19918 23.6642 7.20619C26.1083 7.2097 28.1702 9.25565 28.1561 11.7473C28.1421 14.1898 26.1048 16.2603 23.6431 16.2217ZM25.7401 9.88382C25.7261 9.77854 25.6735 9.69432 25.5648 9.6487C25.4315 9.59255 25.3403 9.66273 25.2527 9.74696C24.0604 10.9401 22.8647 12.1333 21.6724 13.33C21.5286 13.4739 21.5216 13.6107 21.6338 13.7301C21.7496 13.8459 21.8898 13.8424 22.0336 13.6985C23.2329 12.5018 24.4286 11.3016 25.6244 10.1049C25.6875 10.0417 25.7366 9.97858 25.7401 9.88382ZM23.4012 10.4067C23.3977 9.82416 22.9208 9.34689 22.3387 9.3504C21.7706 9.35391 21.2727 9.85926 21.2797 10.4243C21.2902 11.0068 21.7671 11.47 22.3562 11.47C22.9523 11.4665 23.4047 11.0103 23.4012 10.4067ZM23.8921 13.0142C23.8921 13.6143 24.3409 14.067 24.9406 14.067C25.5402 14.067 25.9926 13.6107 25.9926 13.0142C25.9926 12.4106 25.5437 11.9614 24.9406 11.9614C24.3445 11.9649 23.8921 12.4141 23.8921 13.0142Z" fill="url(#paint4_linear_581_4115)"/>
<path d="M22.342 9.88029C22.6471 9.87678 22.8855 10.1154 22.8855 10.4207C22.882 10.7155 22.6506 10.9506 22.3525 10.9541C22.0509 10.9577 21.8125 10.719 21.8125 10.4137C21.816 10.1154 22.0439 9.8838 22.342 9.88029Z" fill="url(#paint5_linear_581_4115)"/>
<path d="M24.9463 12.4808C25.2514 12.4808 25.4863 12.7264 25.4793 13.0317C25.4723 13.3265 25.2374 13.5581 24.9393 13.5581C24.6342 13.5581 24.4028 13.316 24.4063 13.0072C24.4133 12.7089 24.6482 12.4772 24.9463 12.4808Z" fill="url(#paint6_linear_581_4115)"/>
</g>
<defs>
<linearGradient id="paint0_linear_581_4115" x1="18.6406" y1="10.6637" x2="9.18748" y2="10.6637" gradientUnits="userSpaceOnUse">
<stop stop-color="#F8845B" stop-opacity="0.3"/>
<stop offset="1" stop-color="#F0603A"/>
</linearGradient>
<linearGradient id="paint1_linear_581_4115" x1="17.8281" y1="24.175" x2="27.2813" y2="24.175" gradientUnits="userSpaceOnUse">
<stop stop-color="#F8845B" stop-opacity="0.3"/>
<stop offset="1" stop-color="#F0603A"/>
</linearGradient>
<linearGradient id="paint2_linear_581_4115" x1="12.4656" y1="19.3669" x2="12.4656" y2="28.7727" gradientUnits="userSpaceOnUse">
<stop stop-color="#A3ABF8"/>
<stop offset="1" stop-color="#7770E0"/>
</linearGradient>
<linearGradient id="paint3_linear_581_4115" x1="12.456" y1="16.2537" x2="12.456" y2="18.6447" gradientUnits="userSpaceOnUse">
<stop stop-color="#A3ABF8"/>
<stop offset="1" stop-color="#7770E0"/>
</linearGradient>
<linearGradient id="paint4_linear_581_4115" x1="23.6484" y1="7.20618" x2="23.6484" y2="16.2222" gradientUnits="userSpaceOnUse">
<stop stop-color="#A3ABF8"/>
<stop offset="1" stop-color="#7770E0"/>
</linearGradient>
<linearGradient id="paint5_linear_581_4115" x1="22.349" y1="9.88025" x2="22.349" y2="10.9542" gradientUnits="userSpaceOnUse">
<stop stop-color="#A3ABF8"/>
<stop offset="1" stop-color="#7770E0"/>
</linearGradient>
<linearGradient id="paint6_linear_581_4115" x1="24.9429" y1="12.4807" x2="24.9429" y2="13.5581" gradientUnits="userSpaceOnUse">
<stop stop-color="#A3ABF8"/>
<stop offset="1" stop-color="#7770E0"/>
</linearGradient>
</defs>
</svg>
