<svg width="17" height="17" viewBox="0 0 17 17" fill="none" xmlns="http://www.w3.org/2000/svg">
<g id="dragon-svgrepo-com 1" clip-path="url(#clip0_1430_1023)">
<path id="Vector" d="M13.2362 7.05129C13.2362 7.05129 13.6737 6.96879 14.0575 6.68129C14.4012 6.42379 14.9037 5.94629 14.7325 5.76629C14.5475 5.57254 14.2487 6.08254 14.1787 5.96004C14.1325 5.87879 14.4687 5.59879 14.6187 5.16754C14.7525 4.78379 14.6 4.40379 14.2575 4.82379C14.1512 4.95379 14.0712 5.09504 14.02 5.04379C13.965 4.98879 14.0962 4.66879 14.1925 4.37004C14.3537 3.86504 14.1075 3.53004 13.6862 4.14129C13.5062 4.40129 13.425 4.74379 13.29 4.71879C13.1937 4.70129 13.2425 4.50629 13.2262 4.31254C13.1925 3.90879 12.8062 3.95379 12.6737 4.66629C12.615 4.98129 12.6662 5.34504 12.595 5.37004C12.4712 5.41379 12.4987 4.87754 12.2962 4.93004C12.1487 4.96879 12.0937 5.33504 12.1025 5.72254C12.1112 6.11004 12.3575 6.73379 12.3575 6.73379L12.7012 7.35879L13.2362 7.05129Z" fill="#BDCE44"/>
<path id="Vector_2" d="M12.2778 6.7726C12.2778 6.7726 12.0016 7.4176 12.3803 8.2476C12.6566 8.85385 13.0516 9.28135 12.8178 9.52385C12.4716 9.88135 11.2516 9.1076 10.0491 9.4626C9.11281 9.73885 8.66656 10.2714 8.39406 11.2489C8.19031 11.9801 7.98906 12.2639 7.64906 12.3639C7.38406 12.4413 6.96906 12.3839 6.74906 12.1826C6.28406 11.7551 6.29531 11.2614 6.47031 10.8464C6.63406 10.4576 7.17531 10.0776 7.42656 9.9476C8.12156 9.58635 9.82906 9.05885 10.3128 8.1351C10.7441 7.31135 10.8578 6.36635 10.5941 5.7501C10.3303 5.13385 9.90781 5.35385 9.90781 5.35385L10.0041 6.81385L8.32406 8.57385L5.90406 10.2276L5.57031 11.9876L6.41531 13.4126L8.15781 13.2801L9.93531 10.6051L11.6516 10.4814L13.2791 10.3939L13.8953 8.66885L12.2778 6.7726Z" fill="#6D8038"/>
<path id="Vector_3" d="M13.5395 5.26514C13.2495 5.06889 12.2607 5.96889 12.252 6.98139C12.2432 7.99264 12.8532 8.70639 12.977 8.90889C13.1007 9.11139 13.4907 9.82139 12.9857 10.1401C12.5807 10.3976 10.6895 9.56764 9.71198 10.1926C8.73573 10.8176 9.06698 11.8914 8.16948 12.7589C7.83323 13.0851 6.02572 13.3864 5.87573 11.5914C5.72572 9.79639 7.89948 9.70889 8.97323 8.92514C10.047 8.14264 10.3895 7.48264 10.3545 6.55889C10.3195 5.63514 10.047 5.34514 10.047 5.34514L8.32198 6.04889L7.52948 7.33389C7.52948 7.33389 6.49573 7.71264 5.58198 8.32764C4.50573 9.05264 4.31448 9.57764 4.31448 9.57764C4.31448 9.57764 4.06198 9.49889 4.06198 9.43639C4.06198 9.37389 4.94823 8.36514 4.87198 7.92264C4.77823 7.38014 4.47948 7.23389 4.30323 7.21639C4.12698 7.19889 4.02698 7.35139 4.15698 7.55014C4.28573 7.75014 4.35073 7.92514 4.32698 8.00139C4.30323 8.07764 4.22573 8.15764 4.20948 8.02514C4.19198 7.87889 4.08573 7.62889 4.00948 7.52639C3.94698 7.44264 3.75198 7.19764 3.51073 7.23889C3.26948 7.28014 3.25323 7.50889 3.45198 7.69639C3.65198 7.88389 3.84448 8.14764 3.74573 8.26514C3.64573 8.38264 3.48198 8.00389 3.37573 7.86389C3.27073 7.72264 3.00948 7.66889 2.85323 7.63764C2.68948 7.60514 2.41948 7.78639 2.57698 8.04764C2.69448 8.24139 2.85323 8.14764 3.04573 8.35264C3.23823 8.55764 3.24573 8.63389 3.23948 8.68639C3.23323 8.73889 2.86948 9.00889 2.82948 9.25514C2.78823 9.50139 2.85823 9.65389 2.76448 9.74139C2.67073 9.82889 2.27198 9.81139 2.14323 9.85264C2.01448 9.89389 1.87323 10.2226 2.11948 10.3276C2.36573 10.4326 2.81698 10.4514 3.02823 10.3864C3.18198 10.3389 3.22823 10.2689 3.29198 10.2814C3.35698 10.2926 3.86698 10.6689 3.86698 10.6689C3.86698 10.6689 3.79448 11.2114 3.80573 11.6714C3.82073 12.2701 3.99948 12.7389 3.99948 12.7389C3.99948 12.7389 4.17823 12.9939 4.10198 12.9914C3.88448 12.9826 3.29198 12.3926 2.99948 12.3289C2.70573 12.2639 2.47198 12.2826 2.35948 12.4114C2.25698 12.5289 2.21948 12.7876 2.42448 12.8039C2.64823 12.8214 2.75323 12.7751 2.75323 12.8564C2.75323 12.9101 2.68073 12.9539 2.53573 13.0026C2.32698 13.0726 2.26823 13.2389 2.31823 13.4426C2.36573 13.6339 2.62948 13.5776 2.70573 13.5189C2.78198 13.4601 2.81073 13.4014 2.85198 13.4539C2.89323 13.5064 2.71323 13.6414 2.65823 13.7651C2.54698 14.0139 2.70323 14.1214 2.86948 14.1351C3.09823 14.1526 3.13323 13.8589 3.23948 13.7476C3.34448 13.6364 3.47948 13.5476 3.52698 13.5539C3.57448 13.5601 3.55573 13.7476 3.76698 13.9764C3.97823 14.2051 4.26573 14.0764 4.31198 14.1176C4.35823 14.1589 4.27697 14.4639 4.45823 14.6276C4.63948 14.7914 4.93323 14.7214 4.93323 14.4689C4.93323 14.2164 4.95698 14.1114 4.95698 14.1114C4.95698 14.1114 5.31198 14.4226 5.77573 14.5864C6.23948 14.7501 6.87323 14.8889 6.87323 14.8889C6.87323 14.8889 6.80948 15.0026 6.82323 15.2264C6.82948 15.3176 6.84948 15.5964 7.11948 15.5901C7.31323 15.5864 7.32198 15.2151 7.39198 15.2026C7.46198 15.1914 7.32448 15.6864 7.68198 15.7101C8.03948 15.7339 7.92573 15.2676 7.98948 15.2551C8.05448 15.2439 8.05573 15.8601 8.52323 15.6476C8.76948 15.5364 8.44073 14.9926 8.46448 14.9439C8.47948 14.9151 8.71073 14.8789 8.86323 14.7801C8.96448 14.7139 9.02698 14.5689 9.02698 14.5689C9.02698 14.5689 9.76572 14.3601 10.0707 13.8089C10.487 13.0564 10.417 12.1639 10.7457 11.8764C11.0745 11.5889 11.7082 11.8176 12.0132 11.8526C12.3182 11.8876 12.347 11.8764 12.3657 11.8876C12.3832 11.8989 12.4182 12.0401 12.3895 12.0814C12.3607 12.1226 11.527 12.4214 11.3282 12.7564C11.1282 13.0901 11.157 13.3289 11.1757 13.4189C11.217 13.6126 11.407 13.6389 11.492 13.4776C11.5757 13.3189 11.6207 13.1789 11.692 13.2014C11.762 13.2251 11.6245 13.4876 11.6807 13.6114C11.7632 13.7926 11.9682 13.7639 12.0507 13.6989C12.1332 13.6339 12.1532 13.3764 12.212 13.4051C12.2707 13.4339 12.212 13.5464 12.3207 13.7364C12.417 13.9051 12.7345 13.7514 12.687 13.5014C12.6582 13.3489 12.532 13.2339 12.7132 13.0876C12.8945 12.9414 13.042 12.9464 13.2295 12.8301C13.417 12.7126 13.3995 12.5426 13.6107 12.6189C13.822 12.6951 13.8282 12.8864 13.9857 12.7776C14.2232 12.6139 14.1095 12.2851 13.9095 12.1264C13.7095 11.9676 13.417 11.9501 13.3757 11.9326C13.3345 11.9151 13.317 11.6926 13.317 11.6926C13.317 11.6926 14.502 11.2289 14.637 10.0614C14.772 8.89389 13.4282 7.63264 13.3407 6.87639C13.2557 6.12514 13.7932 5.43639 13.5395 5.26514Z" fill="#00AA48"/>
<path id="Vector_4" d="M5.42188 14.4313C5.58187 14.5176 5.75188 14.5926 5.91813 14.6476C6.39563 14.8051 6.88063 14.8938 6.88063 14.8938C6.88063 14.8938 6.98062 14.6888 7.31437 14.5363C7.50312 14.4501 7.91313 14.3838 7.91313 14.3838C7.91313 14.3838 7.30938 14.3663 6.69938 14.2663C6.43688 14.2238 6.10813 14.1113 5.80938 13.9138L5.42188 14.4313Z" fill="#7BD989"/>
<path id="Vector_5" d="M6.81563 8.53004C7.19688 8.32754 7.56313 8.15504 7.84812 8.03129L7.50813 7.35254C7.23688 7.44629 6.88313 7.59129 6.45312 7.81629L6.81563 8.53004Z" fill="#7BD989"/>
<path id="Vector_6" d="M4.88719 10.3025C5.05469 9.94128 5.29344 9.61878 5.56344 9.35628L5.09344 8.68628C4.65844 9.05003 4.35219 9.43878 4.14844 9.85128L4.88719 10.3025Z" fill="#7BD989"/>
<path id="Vector_7" d="M4.06596 10.0364C3.85596 10.5414 3.79471 10.9514 3.80596 11.5614L4.63846 11.5139C4.62096 11.1551 4.68721 10.8089 4.80971 10.4876L4.06596 10.0364Z" fill="#7BD989"/>
<path id="Vector_8" d="M4.375 13.4613C4.52375 13.6663 4.69375 13.8513 4.875 14.0376C4.97125 14.1363 5.09875 14.2363 5.24375 14.3276L5.64875 13.7988C5.545 13.7163 5.44875 13.6226 5.36125 13.5163C5.24125 13.3701 5.12375 13.2151 5.0175 13.0288L4.375 13.4613Z" fill="#7BD989"/>
<path id="Vector_9" d="M4.26875 13.3C4.0225 12.9112 3.85125 12.44 3.8125 11.755L4.64875 11.6787C4.69 12.1975 4.7975 12.57 4.93875 12.8662L4.26875 13.3Z" fill="#7BD989"/>
<path id="Vector_10" d="M5.70937 9.22381C5.82562 9.12381 5.94688 9.03381 6.06938 8.95756C6.25563 8.84131 6.44813 8.72881 6.64062 8.62381L6.28813 7.90381C6.10313 8.00506 5.87312 8.13256 5.66187 8.26506C5.49562 8.37006 5.34562 8.47631 5.23438 8.57381L5.70937 9.22381Z" fill="#7BD989"/>
<path id="Vector_11" d="M8.00188 7.96512C8.05938 7.94137 8.11188 7.92012 8.15813 7.90137C8.58063 7.73762 8.70937 7.48512 8.62687 7.29137C8.54437 7.09762 8.22188 7.14512 8.14563 7.17387C8.11438 7.18512 7.95312 7.21012 7.67188 7.29762L8.00188 7.96512Z" fill="#7BD989"/>
<path id="Vector_12" d="M4.65031 3.26255C4.65031 3.26255 4.59781 2.60005 5.04281 2.24755C5.48906 1.89505 6.19281 2.13005 6.57906 2.20005C6.96531 2.27005 7.47031 2.2588 7.83406 2.1763C8.19781 2.0938 8.33906 2.0238 8.56156 2.01255C8.78406 2.0013 9.10656 1.97755 9.38906 1.9538C9.62781 1.9338 10.1053 1.8713 10.1816 2.09505C10.2391 2.2613 10.0766 2.4288 9.81781 2.4938C9.56031 2.5588 9.48406 2.58755 9.53656 2.70505C9.58906 2.82255 10.0178 2.7463 10.1116 2.7163C10.2053 2.68755 10.7516 2.57505 10.7516 2.89255C10.7516 3.21005 10.3053 3.30255 10.0178 3.3738C9.73031 3.4438 9.55531 3.40255 9.56656 3.55005C9.58406 3.78505 10.3178 3.5613 10.5403 3.53255C10.7628 3.5038 11.0453 3.46255 11.0741 3.6738C11.1028 3.88505 10.8803 4.1138 10.4578 4.1838C10.0353 4.2538 9.76031 4.32505 9.76531 4.4363C9.77031 4.54755 10.2903 4.4338 10.4403 4.40755C10.6341 4.37255 10.9091 4.36755 10.9391 4.5663C11.0091 5.03505 10.1766 4.9538 10.1591 5.1413C10.1428 5.3088 10.8216 5.13005 10.9041 5.40505C10.9866 5.6813 10.7278 5.9213 10.3178 5.9563C10.0328 5.9813 9.05656 5.7863 8.90406 5.95005C8.75156 6.1138 9.27406 6.1513 9.44906 6.19005C9.68406 6.24255 10.0766 6.27255 9.90031 6.63005C9.78531 6.86505 9.35531 6.80005 9.04156 6.81505C8.72781 6.83005 8.17031 6.86505 8.17031 6.86505L6.91531 6.9238L5.86531 6.80005L5.20281 6.5538L4.69781 6.34255L4.53906 6.17255L5.99906 4.3713L4.65031 3.26255Z" fill="url(#paint0_linear_1430_1023)"/>
<path id="Vector_13" d="M8.70625 6.59871C8.70625 7.00496 8.42875 7.45621 7.8525 7.46121C7.27625 7.46621 6.98125 7.11371 6.88875 7.08746C6.79625 7.06121 6.765 7.42121 6.445 7.43996C6.12375 7.45746 5.64875 7.03996 5.5875 7.02621C5.52625 7.01246 5.50875 7.34246 5.16125 7.34246C4.91875 7.34246 4.6375 6.96371 4.4525 6.79246C4.2675 6.62121 3.9375 6.36996 3.9375 6.36996H4.87C4.87 6.36996 5.1825 6.33496 5.57375 6.36996C5.95375 6.40371 6.265 6.70371 6.89375 6.69121C7.24625 6.68371 7.4125 6.65121 7.4125 6.65121C7.4125 6.65121 7.54 6.19121 8.12125 6.16246C8.6625 6.13621 8.70625 6.50621 8.70625 6.59871Z" fill="#BECE44"/>
<path id="Vector_14" d="M6.78125 2.84246C6.78125 2.84246 7.38875 2.61121 7.465 2.44621C7.54125 2.28246 7.78125 1.66621 8.0925 1.55496C8.40375 1.44371 8.585 1.75496 8.36875 1.99496C8.1525 2.23496 7.835 2.43496 8.01125 2.54621C8.1875 2.65746 8.57375 2.11246 8.67375 1.98371C8.77375 1.85496 9.0025 1.51996 9.26 1.52621C9.5175 1.53246 9.6775 1.97371 9.18375 2.38246C8.67375 2.80496 8.42125 2.90496 7.835 2.94496C7.24875 2.98621 6.96625 3.02371 6.96625 3.02371L6.78125 2.84246Z" fill="#FFBA02"/>
<path id="Vector_15" d="M3.77854 2.8687C3.77854 2.8687 3.48479 1.89495 4.00104 1.47245C4.51729 1.04995 5.19229 1.3137 5.60229 1.5662C5.97854 1.79745 6.71479 1.7587 6.68729 1.3312C6.66354 0.961198 6.25729 1.06495 6.22354 1.2312C6.19479 1.37745 6.13229 1.4712 6.07729 1.4537C6.01479 1.43495 5.97604 1.3087 5.98354 1.2312C6.01229 0.897448 6.29479 0.797448 6.51729 0.821198C6.69229 0.839948 6.98604 0.967448 6.95729 1.43745C6.92854 1.90745 6.43854 2.0387 5.96604 1.95995C5.59229 1.89745 5.25604 1.63745 4.91729 1.5462C4.70979 1.4912 4.41729 1.5362 4.23854 1.6662C4.02979 1.8187 3.97479 2.05995 3.97604 2.2587C3.97729 2.38495 4.00104 2.5012 4.01229 2.58745C4.03854 2.7837 4.25854 3.37995 4.25854 3.37995L3.77854 2.8687Z" fill="#7CDB8B"/>
<path id="Vector_16" d="M7.17031 3.56128C7.17031 3.56128 7.46906 3.62628 7.48156 3.97128C7.49406 4.31628 7.44031 4.34628 7.47031 4.35878C7.50031 4.37128 7.74031 4.23003 7.86906 4.39378C8.03156 4.60128 7.74031 4.93878 7.57531 5.05128C7.41156 5.16253 7.31156 5.18003 7.28781 5.23253C7.26406 5.28503 7.04281 5.96628 6.74281 6.08878C6.39656 6.23003 5.39906 6.17128 5.26406 6.17128C5.12906 6.17128 4.99406 6.30378 4.86781 6.36878C4.74156 6.43378 4.61906 6.47628 4.47156 6.44003C4.32531 6.40503 4.10156 6.24003 4.10156 6.24003L7.17031 3.56128Z" fill="#7CDB8B"/>
<path id="Vector_17" d="M5.1677 5.09745L5.5252 5.11495L5.70645 4.47495C5.70645 4.47495 5.2077 4.30495 5.03145 4.33995C4.8552 4.37495 4.47395 4.5212 4.35145 4.5862C4.2277 4.6512 4.12895 4.81495 3.89395 4.77995C3.65895 4.74495 3.1552 4.6512 2.8552 4.9912C2.59645 5.2862 2.64395 5.5362 2.86645 5.64245C3.08895 5.74745 3.37145 5.4137 3.5527 5.38495C3.73395 5.3562 4.0102 5.48495 4.0102 5.48495L5.1677 5.09745Z" fill="#D43330"/>
<path id="Vector_18" d="M3.85156 4.35871C3.85156 4.35871 3.96281 4.86871 4.09781 4.86871C4.23281 4.86871 4.23281 4.70496 4.23281 4.70496C4.23281 4.70496 4.74906 4.56996 4.84906 4.51121C4.94906 4.45246 5.07156 4.21246 5.07156 4.21246L4.15656 4.14746L3.85156 4.35871Z" fill="white"/>
<path id="Vector_19" d="M3.83971 5.74885C3.83971 5.74885 3.73471 5.5201 3.77471 5.4201C3.81596 5.3201 3.85096 5.13885 3.96846 5.1501C4.09721 5.1626 4.11471 5.36135 4.11471 5.36135C4.11471 5.36135 4.45471 5.0501 4.71846 4.9451C4.85971 4.88885 5.09971 4.86885 5.11721 4.9801C5.13471 5.09135 5.05221 5.40885 5.05221 5.40885L3.83971 5.74885Z" fill="white"/>
<path id="Vector_20" d="M3.45515 5.32631C3.4114 5.40631 3.37265 5.70131 3.4439 5.91256C3.5139 6.12381 3.7489 6.45256 4.11265 6.47506C4.4764 6.49756 5.1514 5.72381 5.1914 5.70131C5.23265 5.67756 6.3764 5.83006 6.6989 5.37256C7.0214 4.91506 6.85265 4.11006 7.01515 3.85881C7.1914 3.58881 7.4489 3.76506 7.4489 3.76506C7.4489 3.76506 7.42015 3.57756 7.29015 3.44881C7.1614 3.32006 6.9789 3.34381 7.03265 3.19131C7.08515 3.03881 7.4839 3.18006 7.50765 3.06756C7.5314 2.95631 7.3714 2.84381 7.1889 2.81006C7.10265 2.79381 6.88515 2.83381 6.8739 2.78131C6.86265 2.72881 7.0439 2.72256 7.05015 2.60006C7.0564 2.47631 6.5864 2.52381 6.39265 2.54756C6.1989 2.57131 5.9464 2.68256 5.9289 2.63506C5.9114 2.58756 6.24515 2.41256 6.2339 2.35381C6.22265 2.29506 5.95765 2.24256 5.56515 2.45381C5.17265 2.66506 4.6614 3.18131 4.6614 3.18131L4.2739 3.15256C4.2739 3.15256 3.7339 2.51381 3.38765 2.59506C3.02265 2.68131 2.9014 3.03506 2.9064 3.53381C2.9114 4.03256 3.1239 4.30756 3.66265 4.40756C3.96765 4.46381 4.76015 4.38006 4.9239 4.37256C5.35265 4.35256 5.4339 4.54256 5.45765 4.70631C5.4814 4.87006 5.1639 5.05256 5.0114 5.08756C4.8589 5.12256 4.6539 5.15756 4.4889 5.26881C4.32515 5.38006 4.1364 5.69131 4.02515 5.68506C3.9139 5.67881 3.89015 5.48506 3.8314 5.36881C3.77765 5.25006 3.56015 5.13381 3.45515 5.32631Z" fill="#02AB47"/>
<path id="Vector_21" d="M6.41828 3.17999C6.41328 3.22874 6.28203 3.67249 5.94328 3.86624C5.60453 4.05999 5.26078 4.00249 5.16953 3.72124C5.06703 3.40749 5.23953 3.08374 5.64953 3.13999C6.01953 3.19249 6.44453 2.94624 6.41828 3.17999Z" fill="#79DA89"/>
<path id="Vector_22" d="M5.7333 3.67701C5.82994 3.55628 5.82351 3.39057 5.71895 3.30687C5.61439 3.22318 5.45129 3.2532 5.35466 3.37393C5.25803 3.49466 5.26445 3.66038 5.36901 3.74407C5.47357 3.82776 5.63667 3.79774 5.7333 3.67701Z" fill="#2F2E2F"/>
<path id="Vector_23" d="M3.43861 2.95998C3.36111 3.02998 3.49111 3.20748 3.49986 3.30873C3.50861 3.40998 3.46111 3.59373 3.59361 3.58498C3.72611 3.57623 3.76611 3.42123 3.73861 3.24123C3.70111 2.99873 3.57486 2.83623 3.43861 2.95998Z" fill="#2F2E2F"/>
</g>
<defs>
<linearGradient id="paint0_linear_1430_1023" x1="11.4268" y1="4.34267" x2="6.21794" y2="4.48342" gradientUnits="userSpaceOnUse">
<stop stop-color="#01AB46"/>
<stop offset="0.396" stop-color="#128A3C"/>
<stop offset="1" stop-color="#2F502A"/>
</linearGradient>
<clipPath id="clip0_1430_1023">
<rect width="16" height="16" fill="white" transform="translate(0.34375 0.248779)"/>
</clipPath>
</defs>
</svg>
