<svg width="17" height="17" viewBox="0 0 17 17" fill="none" xmlns="http://www.w3.org/2000/svg">
<g id="skyscraper-svgrepo-com 1">
<path id="Vector" d="M4.19126 1.69385C4.79751 1.69385 5.35064 1.9251 5.76783 2.30322C5.9897 2.21104 6.23189 2.16104 6.48658 2.16104C7.45064 2.16104 8.24595 2.8876 8.3522 3.8251C8.36002 3.89541 8.37564 4.03916 8.17408 4.03916H2.03814C1.91626 4.03916 1.8522 3.88447 1.86001 3.80791C1.97564 2.62041 2.97564 1.69385 4.19126 1.69385ZM12.985 4.57354C12.3788 4.57354 11.8256 4.80479 11.4085 5.18291C11.1866 5.09072 10.9444 5.04072 10.6897 5.04072C9.72564 5.04072 8.93033 5.76729 8.82408 6.70479C8.81627 6.7751 8.80064 6.91885 9.0022 6.91885H15.1397C15.2616 6.91885 15.3256 6.76416 15.3178 6.6876C15.2022 5.5001 14.2022 4.57354 12.985 4.57354Z" fill="#00B3E3"/>
<path id="Vector_2" d="M10.6172 3.52041C10.7812 3.52041 10.8109 3.43604 10.6828 3.33447L8.74685 1.78291C8.61872 1.67979 8.40935 1.67979 8.28122 1.78291L6.34528 3.33447C6.21716 3.4376 6.24685 3.52041 6.41091 3.52041H10.6172Z" fill="#F2D383"/>
<path id="Vector_3" d="M10.6828 3.33286L10.1156 2.87817H6.91247L6.34528 3.33286C6.21716 3.43599 6.24685 3.5188 6.41091 3.5188H10.6172C10.7812 3.52036 10.8109 3.43599 10.6828 3.33286Z" fill="black"/>
<path id="Vector_4" d="M5.77344 4.55493H11.2484V14.4346H5.77344V4.55493Z" fill="#0071CE"/>
<path id="Vector_5" d="M7.70312 12.7283H9.32344V14.4361H7.70312V12.7283Z" fill="#F2D383"/>
<path id="Vector_6" d="M5.77344 10.6485H11.2484V11.9876H5.77344V10.6485ZM5.77344 7.45947H11.2484V8.79854H5.77344V7.45947Z" fill="#00B3E3"/>
<path id="Vector_7" d="M15.5 14.6534C15.5 14.719 15.4453 14.7737 15.3797 14.7737H1.63594C1.57031 14.7737 1.51562 14.719 1.51562 14.6534V14.2221C1.51562 14.1565 1.57031 14.1018 1.63594 14.1018H15.3781C15.4438 14.1018 15.4984 14.1565 15.4984 14.2221V14.6534H15.5Z" fill="#333E48"/>
<path id="Vector_8" d="M4.89062 14.1001H12.1297V14.772H4.89062V14.1001Z" fill="#A4A9AD"/>
<path id="Vector_9" d="M6.73438 4.55493H7.18125V14.1002H6.73438V4.55493ZM9.8375 4.55493H10.2844V14.1002H9.8375V4.55493Z" fill="black"/>
<path id="Vector_10" d="M11.2484 4.55493V3.46274C11.2484 3.29868 11.1141 3.16431 10.95 3.16431H6.07188C5.90781 3.16431 5.77344 3.29868 5.77344 3.46274V4.55493H11.2484Z" fill="#F2D383"/>
<path id="Vector_11" d="M6.95781 4.26729C6.83437 4.26729 6.73438 4.16729 6.73438 4.04385V3.70635C6.73438 3.58291 6.83437 3.48291 6.95781 3.48291C7.08125 3.48291 7.18125 3.58291 7.18125 3.70635V4.04385C7.18125 4.16729 7.08125 4.26729 6.95781 4.26729ZM8.50938 4.26729C8.38594 4.26729 8.28594 4.16729 8.28594 4.04385V3.70635C8.28594 3.58291 8.38594 3.48291 8.50938 3.48291C8.63281 3.48291 8.73281 3.58291 8.73281 3.70635V4.04385C8.73281 4.16729 8.63281 4.26729 8.50938 4.26729ZM10.0609 4.26729C9.9375 4.26729 9.8375 4.16729 9.8375 4.04385V3.70635C9.8375 3.58291 9.9375 3.48291 10.0609 3.48291C10.1844 3.48291 10.2844 3.58291 10.2844 3.70635V4.04385C10.2844 4.16729 10.1844 4.26729 10.0609 4.26729Z" fill="black"/>
<path id="Vector_12" d="M6.79844 13.072C6.79844 12.5048 6.3375 10.5532 5.77031 10.5532C5.20312 10.5532 4.74219 12.5048 4.74219 13.072C4.74219 13.6392 5.20312 14.1001 5.77031 14.1001C6.3375 14.1001 6.79844 13.6407 6.79844 13.072Z" fill="#00AD68"/>
<path id="Vector_13" d="M4.13438 13.072C4.13438 12.5048 3.67344 10.5532 3.10625 10.5532C2.53906 10.5532 2.07812 12.5048 2.07812 13.072C2.07812 13.6392 2.53906 14.1001 3.10625 14.1001C3.67344 14.1001 4.13438 13.6407 4.13438 13.072ZM12.8875 13.072C12.8875 12.5048 13.3484 10.5532 13.9156 10.5532C14.4828 10.5532 14.9438 12.5048 14.9438 13.072C14.9438 13.6392 14.4828 14.1001 13.9156 14.1001C13.3484 14.1001 12.8875 13.6407 12.8875 13.072Z" fill="#218649"/>
<path id="Vector_14" d="M10.2188 13.072C10.2188 12.5048 10.6797 10.5532 11.2469 10.5532C11.8141 10.5532 12.275 12.5048 12.275 13.072C12.275 13.6392 11.8141 14.1001 11.2469 14.1001C10.6797 14.1001 10.2188 13.6407 10.2188 13.072Z" fill="#00AD68"/>
<path id="Vector_15" d="M8.28906 12.7282H8.73594V14.1001H8.28906V12.7282ZM8.28906 7.45947H8.73594V8.79854H8.28906V7.45947ZM8.28906 10.6485H8.73594V11.9876H8.28906V10.6485Z" fill="black"/>
</g>
</svg>
