<svg width="17" height="16" viewBox="0 0 17 16" fill="none" xmlns="http://www.w3.org/2000/svg">
<g id="alchemy-svgrepo-com 1" clip-path="url(#clip0_1430_852)">
<g id="Group">
<g id="Group_2">
<path id="Vector" d="M1.44775 13.93C1.29547 13.93 1.17188 13.8064 1.17188 13.6541V6.48169C1.17188 6.3294 1.29547 6.20581 1.44775 6.20581C1.60003 6.20581 1.72363 6.3294 1.72363 6.48169V13.6541C1.72363 13.8064 1.60003 13.93 1.44775 13.93Z" fill="#F2D383"/>
<path id="Vector_2" d="M15.2446 13.93C15.0923 13.93 14.9688 13.8064 14.9688 13.6541V6.48169C14.9688 6.3294 15.0923 6.20581 15.2446 6.20581C15.3969 6.20581 15.5205 6.3294 15.5205 6.48169V13.6541C15.5205 13.8064 15.3969 13.93 15.2446 13.93Z" fill="#F2D383"/>
</g>
<g id="Group_3">
<path id="Vector_3" d="M7.23438 6.48145V11.1711C7.23438 11.7805 7.72844 12.2745 8.33781 12.2745C8.94719 12.2745 9.44125 11.7805 9.44125 11.1711V6.48145H7.23438Z" fill="#5AB4E5"/>
<path id="Vector_4" d="M7.23438 5.37809H9.44125V3.7229H7.23438V5.37809Z" fill="#5AB4E5"/>
<path id="Vector_5" d="M11.9297 5.37809H14.1366V3.7229H11.9297V5.37809Z" fill="#5AB4E5"/>
<path id="Vector_6" d="M11.9297 6.48145V11.1711C11.9297 11.7805 12.4237 12.2745 13.0331 12.2745C13.6425 12.2745 14.1366 11.7805 14.1366 11.1711V6.48145H11.9297Z" fill="#5AB4E5"/>
<path id="Vector_7" d="M2.54688 5.37809H4.75375V3.7229H2.54688V5.37809Z" fill="#5AB4E5"/>
<path id="Vector_8" d="M2.54688 6.48145V11.1711C2.54688 11.7805 3.04094 12.2745 3.65031 12.2745C4.25969 12.2745 4.75375 11.7805 4.75375 11.1711V6.48145H2.54688Z" fill="#5AB4E5"/>
</g>
<g id="Group_4">
<path id="Vector_9" d="M0.34375 6.48161H16.3438V5.37817H0.34375V6.48161Z" fill="#F2D383" fill-opacity="0.5"/>
<path id="Vector_10" d="M0.34375 14.7575H16.3438V13.6541H0.34375V14.7575Z" fill="#F2D383" fill-opacity="0.5"/>
<path id="Vector_11" d="M2 3.72307H5.31034V2.61963H2V3.72307Z" fill="#F2D383" fill-opacity="0.5"/>
<path id="Vector_12" d="M6.6875 3.72307H9.99788V2.61963H6.6875V3.72307Z" fill="#F2D383" fill-opacity="0.5"/>
<path id="Vector_13" d="M11.375 3.72307H14.6853V2.61963H11.375V3.72307Z" fill="#F2D383" fill-opacity="0.5"/>
</g>
<g id="Group_5">
<path id="Vector_14" d="M4.75859 2.61955H2.55172L2 1.24023H5.31034L4.75859 2.61955Z" fill="#D69C77"/>
<path id="Vector_15" d="M9.44613 2.61955H7.23925L6.6875 1.24023H9.99788L9.44613 2.61955Z" fill="#D69C77"/>
<path id="Vector_16" d="M14.1414 2.61955H11.9346L11.3828 1.24023H14.6932L14.1414 2.61955Z" fill="#D69C77"/>
</g>
<g id="Group_6">
<path id="Vector_17" d="M3.65031 12.2746C3.04094 12.2746 2.54688 11.7806 2.54688 11.1712V8.13672H4.75378V11.1712C4.75375 11.7805 4.25969 12.2746 3.65031 12.2746Z" fill="#0E9AA7"/>
<path id="Vector_18" d="M8.33781 12.2746C7.72844 12.2746 7.23438 11.7806 7.23438 11.1712V8.13672H9.44128V11.1712C9.44125 11.7805 8.94719 12.2746 8.33781 12.2746Z" fill="#0E9AA7"/>
<path id="Vector_19" d="M13.0331 12.2746C12.4237 12.2746 11.9297 11.7806 11.9297 11.1712V8.13672H14.1366V11.1712C14.1366 11.7805 13.6425 12.2746 13.0331 12.2746Z" fill="#0E9AA7"/>
</g>
</g>
</g>
<defs>
<clipPath id="clip0_1430_852">
<rect width="16" height="16" fill="white" transform="translate(0.34375 -0.0012207)"/>
</clipPath>
</defs>
</svg>
