<svg width="16" height="17" viewBox="0 0 16 17" fill="none" xmlns="http://www.w3.org/2000/svg">
<g id="land 1">
<path id="primary" d="M7.33333 14.2439H13.3333L10.9333 9.31723C10.8787 9.20452 10.7935 9.10946 10.6874 9.04295C10.5813 8.97643 10.4586 8.94116 10.3333 8.94116C10.2081 8.94116 10.0854 8.97643 9.97927 9.04295C9.87316 9.10946 9.78792 9.20452 9.73333 9.31723L7.33333 14.2439ZM7.33333 14.2439H2.66667L6.08 7.9239C6.13712 7.81806 6.22181 7.72965 6.32509 7.66803C6.42837 7.60641 6.5464 7.57388 6.66667 7.57388C6.78693 7.57388 6.90496 7.60641 7.00824 7.66803C7.11152 7.72965 7.19621 7.81806 7.25333 7.9239L8.91333 11.0039L7.33333 14.2439ZM2 14.2439H14M10 4.2439C10 4.63946 10.1173 5.02614 10.3371 5.35504C10.5568 5.68394 10.8692 5.94028 11.2346 6.09166C11.6001 6.24303 12.0022 6.28264 12.3902 6.20547C12.7781 6.1283 13.1345 5.93782 13.4142 5.65811C13.6939 5.37841 13.8844 5.02204 13.9616 4.63408C14.0387 4.24612 13.9991 3.84398 13.8478 3.47853C13.6964 3.11308 13.44 2.80072 13.1111 2.58096C12.7822 2.36119 12.3956 2.2439 12 2.2439C11.4696 2.2439 10.9609 2.45461 10.5858 2.82968C10.2107 3.20476 10 3.71346 10 4.2439Z" stroke="#f6ca4a" stroke-linecap="round" stroke-linejoin="round"/>
</g>
</svg>
