<svg width="17" height="17" viewBox="0 0 17 17" fill="none" xmlns="http://www.w3.org/2000/svg">
<g id="medal-reward-svgrepo-com 1">
<path id="Vector" d="M11.0014 10.0764V15.6901L8.49678 13.6323L5.99219 15.6875V10.0764C6.70964 10.5547 7.56906 10.8333 8.49678 10.8333C9.4245 10.8333 10.2839 10.5521 11.0014 10.0764Z" fill="#F8B517"/>
<path id="Vector_2" d="M8.4995 10.8305C10.9931 10.8305 13.0146 8.80905 13.0146 6.31542C13.0146 3.82178 10.9931 1.80029 8.4995 1.80029C6.00586 1.80029 3.98438 3.82178 3.98438 6.31542C3.98438 8.80905 6.00586 10.8305 8.4995 10.8305Z" fill="#FBD303"/>
<path id="Vector_3" d="M8.50335 9.25645C10.1275 9.25645 11.4442 7.93979 11.4442 6.3156C11.4442 4.69142 10.1275 3.37476 8.50335 3.37476C6.87916 3.37476 5.5625 4.69142 5.5625 6.3156C5.5625 7.93979 6.87916 9.25645 8.50335 9.25645Z" fill="#F8B517"/>
<path id="Vector_4" d="M8.49793 3.55591L9.11554 5.46391H11.1287L9.49923 6.64657L10.1274 8.56245L8.49793 7.3798L6.86849 8.56245L7.49663 6.64657L5.86719 5.46391H7.88032L8.49793 3.55591Z" fill="#FCFCFD"/>
</g>
</svg>
