<svg width="17" height="17" viewBox="0 0 17 17" fill="none" xmlns="http://www.w3.org/2000/svg">
<g id="cart-mine-svgrepo-com 1" clip-path="url(#clip0_1430_940)">
<path id="Vector" d="M12.6893 6.73253H8.51544L7.11719 4.42297L8.44941 2.64906C8.47025 2.62125 8.49113 2.5934 8.51547 2.56906C8.77634 2.26297 9.15203 2.09253 9.55894 2.09253C10.0007 2.09253 10.4041 2.29428 10.6685 2.64906L13.1068 5.89775C13.3641 6.23862 13.1207 6.73253 12.6893 6.73253Z" fill="#D6A246"/>
<path id="Vector_2" d="M12.6895 6.73253H8.51562V2.56906C8.7765 2.26297 9.15219 2.09253 9.55909 2.09253C10.0008 2.09253 10.4043 2.29428 10.6686 2.64906L13.1069 5.89775C13.3643 6.23862 13.1208 6.73253 12.6895 6.73253Z" fill="#CE8A42"/>
<path id="Vector_3" d="M3.07812 7.77588L3.28681 8.81935L3.829 11.5303C3.87756 11.7742 4.09191 11.9498 4.34056 11.9498H12.6884C12.937 11.9498 13.1514 11.7741 13.1999 11.5303L13.7421 8.81935L13.9508 7.77588H3.07812Z" fill="#A78966"/>
<g id="Group">
<path id="Vector_4" d="M13.7378 12.9932H3.303C3.01497 12.9932 2.78125 12.7597 2.78125 12.4715C2.78125 11.6084 3.48337 10.9062 4.34647 10.9062H12.6943C13.5574 10.9062 14.2595 11.6084 14.2595 12.4715C14.2595 12.7597 14.0258 12.9932 13.7378 12.9932Z" fill="#957856"/>
<path id="Vector_5" d="M8.52344 11.9498H12.6973C12.946 11.9498 13.1603 11.7741 13.2089 11.5303L13.7511 8.81935L13.9598 7.77588H8.52344V11.9498Z" fill="#957856"/>
</g>
<path id="Vector_6" d="M12.6895 10.9065H8.51562V12.9935H13.733C14.0211 12.9935 14.2548 12.7599 14.2548 12.4717C14.2547 11.6086 13.5526 10.9065 12.6895 10.9065Z" fill="#816952"/>
<path id="Vector_7" d="M5.38553 15.0804C4.52244 15.0804 3.82031 14.3783 3.82031 13.5152C3.82031 12.6521 4.52244 11.95 5.38553 11.95C6.24863 11.95 6.95075 12.6521 6.95075 13.5152C6.95075 14.3783 6.24863 15.0804 5.38553 15.0804Z" fill="#696B6F"/>
<path id="Vector_8" d="M6.95584 13.5152C6.95584 12.6521 6.25372 11.95 5.39062 11.95V15.0804C6.25372 15.0804 6.95584 14.3783 6.95584 13.5152Z" fill="#616267"/>
<path id="Vector_9" d="M5.38894 12.9934C5.10125 12.9934 4.86719 13.2275 4.86719 13.5152C4.86719 13.8028 5.10125 14.0369 5.38894 14.0369C5.67663 14.0369 5.91069 13.8028 5.91069 13.5152C5.91069 13.2275 5.67663 12.9934 5.38894 12.9934Z" fill="#E7ECFD"/>
<path id="Vector_10" d="M5.91237 13.5152C5.91237 13.2275 5.67831 12.9934 5.39062 12.9934V14.0369C5.67831 14.0369 5.91237 13.8028 5.91237 13.5152Z" fill="#DAE0F0"/>
<path id="Vector_11" d="M11.6512 15.0804C10.7881 15.0804 10.0859 14.3783 10.0859 13.5152C10.0859 12.6521 10.7881 11.95 11.6512 11.95C12.5143 11.95 13.2164 12.6521 13.2164 13.5152C13.2164 14.3783 12.5143 15.0804 11.6512 15.0804Z" fill="#696B6F"/>
<path id="Vector_12" d="M13.2137 13.5152C13.2137 12.6521 12.5115 11.95 11.6484 11.95V15.0804C12.5115 15.0804 13.2137 14.3783 13.2137 13.5152Z" fill="#616267"/>
<path id="Vector_13" d="M11.6468 12.9934C11.3591 12.9934 11.125 13.2275 11.125 13.5152C11.125 13.8028 11.3591 14.0369 11.6468 14.0369C11.9344 14.0369 12.1685 13.8028 12.1685 13.5152C12.1685 13.2275 11.9344 12.9934 11.6468 12.9934Z" fill="#E7ECFD"/>
<path id="Vector_14" d="M12.1702 13.5152C12.1702 13.2275 11.9361 12.9934 11.6484 12.9934V14.0369C11.9361 14.0369 12.1702 13.8028 12.1702 13.5152Z" fill="#DAE0F0"/>
<path id="Vector_15" d="M15.822 16.1238H0.8655C0.577469 16.1238 0.34375 15.8903 0.34375 15.6021C0.34375 15.3139 0.577469 15.0803 0.8655 15.0803H15.822C16.1101 15.0803 16.3438 15.3139 16.3438 15.6021C16.3438 15.8903 16.11 16.1238 15.822 16.1238Z" fill="#957856"/>
<path id="Vector_16" d="M15.82 15.0803H8.51562V16.1238H15.82C16.108 16.1238 16.3417 15.8903 16.3417 15.602C16.3417 15.3138 16.108 15.0803 15.82 15.0803Z" fill="#816952"/>
<path id="Vector_17" d="M8.516 6.73249H4.34209C4.14984 6.73249 3.97287 6.62652 3.88215 6.45702C3.79112 6.28736 3.80131 6.08152 3.90797 5.92137L5.12672 4.09324C5.41781 3.65674 5.90456 3.39624 6.429 3.39624C6.95344 3.39624 7.44018 3.65677 7.73128 4.09324L8.95003 5.92137C9.05669 6.08149 9.06687 6.28733 8.97584 6.45702C8.88522 6.62652 8.70825 6.73249 8.516 6.73249Z" fill="#F5DC48"/>
<path id="Vector_18" d="M8.516 6.73249H4.34209C4.14984 6.73249 3.97287 6.62652 3.88215 6.45702C3.79112 6.28736 3.80131 6.08152 3.90797 5.92137L5.12672 4.09324C5.41781 3.65674 5.90456 3.39624 6.429 3.39624C6.95344 3.39624 7.44018 3.65677 7.73128 4.09324L8.95003 5.92137C9.05669 6.08149 9.06687 6.28733 8.97584 6.45702C8.88522 6.62652 8.70825 6.73249 8.516 6.73249Z" fill="#FFE477"/>
<path id="Vector_19" d="M8.51562 5.27026V6.73254C8.70787 6.73254 8.88484 6.62658 8.97556 6.45708C9.06659 6.28742 9.05641 6.08158 8.94975 5.92142L8.51562 5.27026Z" fill="#EDBA43"/>
<path id="Vector_20" d="M14.2493 6.31159L13.9571 7.77593L13.7484 8.8194H3.29278L3.0841 7.77593L2.79191 6.31159C2.76057 6.15856 2.79888 6.00203 2.89978 5.88028C2.99713 5.75853 3.14672 5.68896 3.30322 5.68896H13.738C14.0649 5.689 14.3153 5.98812 14.2493 6.31159Z" fill="#957856"/>
<path id="Vector_21" d="M14.2443 6.31156L13.9521 7.7759L13.7434 8.81937H8.51562V5.68896H13.733C14.0599 5.68896 14.3104 5.98809 14.2443 6.31156Z" fill="#816952"/>
<path id="Vector_22" d="M14.7779 6.73246H2.25612C1.96809 6.73246 1.73438 6.49893 1.73438 6.21071C1.73438 5.9225 1.96809 5.68896 2.25612 5.68896H14.7779C15.0659 5.68896 15.2996 5.9225 15.2996 6.21071C15.2996 6.49893 15.0659 6.73246 14.7779 6.73246Z" fill="#A78966"/>
<path id="Vector_23" d="M14.7765 5.68896H8.51562V6.73243H14.7765C15.0645 6.73243 15.2983 6.4989 15.2983 6.21068C15.2983 5.9225 15.0645 5.68896 14.7765 5.68896Z" fill="#957856"/>
<path id="Vector_24" d="M14.7806 1.16725H14.2588V0.645529C14.2588 0.357311 14.0252 0.123779 13.7371 0.123779C13.4491 0.123779 13.2154 0.357311 13.2154 0.645529V1.16728H12.6936C12.4056 1.16728 12.1719 1.40081 12.1719 1.68903C12.1719 1.97725 12.4056 2.21078 12.6936 2.21078H13.2154V2.73253C13.2154 3.02075 13.4491 3.25428 13.7371 3.25428C14.0252 3.25428 14.2589 3.02075 14.2589 2.73253V2.21075H14.7806C15.0687 2.21075 15.3024 1.97722 15.3024 1.689C15.3024 1.40078 15.0686 1.16725 14.7806 1.16725Z" fill="#FFE477"/>
<path id="Vector_25" d="M14.2561 2.73247V2.21075H14.7778C15.0659 2.21075 15.2996 1.97722 15.2996 1.689C15.2996 1.40078 15.0659 1.16725 14.7778 1.16725H14.2561V0.645529C14.2561 0.357311 14.0224 0.123779 13.7344 0.123779V3.25422C14.0224 3.25422 14.2561 3.02069 14.2561 2.73247Z" fill="#FFB655"/>
<path id="Vector_26" d="M3.30403 2.55864H2.78228V2.03689C2.78228 1.74867 2.54856 1.51514 2.26053 1.51514C1.9725 1.51514 1.73878 1.74867 1.73878 2.03689V2.55864H1.21706C0.929031 2.55864 0.695312 2.79217 0.695312 3.08039C0.695312 3.36861 0.929031 3.60214 1.21706 3.60214H1.73881V4.12386C1.73881 4.41207 1.97253 4.64561 2.26056 4.64561C2.54859 4.64561 2.78228 4.41207 2.78228 4.12386V3.60211H3.30403C3.59206 3.60211 3.82578 3.36857 3.82578 3.08036C3.82578 2.79214 3.59206 2.55864 3.30403 2.55864Z" fill="#FFE477"/>
<path id="Vector_27" d="M2.77956 4.12386V3.60211H3.30131C3.58934 3.60211 3.82306 3.36857 3.82306 3.08036C3.82306 2.79214 3.58934 2.55861 3.30131 2.55861H2.77956V2.03689C2.77956 1.74867 2.54584 1.51514 2.25781 1.51514V4.64557C2.54588 4.64561 2.77956 4.41207 2.77956 4.12386Z" fill="#FFB655"/>
</g>
<defs>
<clipPath id="clip0_1430_940">
<rect width="16" height="16" fill="white" transform="translate(0.34375 0.123779)"/>
</clipPath>
</defs>
</svg>
