<svg width="16" height="17" viewBox="0 0 16 17" fill="none" xmlns="http://www.w3.org/2000/svg">
<g id="minimize-square-3-svgrepo-com 1" clip-path="url(#clip0_1430_1073)">
<path id="Vector" d="M11.3333 4.96362L8 8.29696M8 8.29696H10.5M8 8.29696V5.79696" stroke="#EEEDFF" stroke-width="1.5" stroke-linecap="round" stroke-linejoin="round"/>
<path id="Vector_2" d="M1.33594 12.2968C1.33594 11.0397 1.33594 10.4112 1.72646 10.0207C2.11698 9.63013 2.74552 9.63013 4.0026 9.63013C5.25968 9.63013 5.88822 9.63013 6.27874 10.0207C6.66927 10.4112 6.66927 11.0397 6.66927 12.2968C6.66927 13.5539 6.66927 14.1824 6.27874 14.5729C5.88822 14.9635 5.25968 14.9635 4.0026 14.9635C2.74552 14.9635 2.11698 14.9635 1.72646 14.5729C1.33594 14.1824 1.33594 13.5539 1.33594 12.2968Z" stroke="#EEEDFF" stroke-width="1.5"/>
<path id="Vector_3" d="M8.00221 1.63013C11.1449 1.63013 12.7163 1.63013 13.6925 2.60644C14.6689 3.58275 14.6689 5.15409 14.6689 8.29679C14.6689 11.4395 14.6689 13.0109 13.6925 13.9871C12.7879 14.8919 11.3723 14.9582 8.66888 14.9631M1.33594 7.63013C1.3408 4.92675 1.40717 3.51113 2.31186 2.60644C2.96103 1.95727 3.87328 1.73975 5.33561 1.66686" stroke="#EEEDFF" stroke-width="1.5" stroke-linecap="round"/>
</g>
<defs>
<clipPath id="clip0_1430_1073">
<rect width="16" height="16" fill="white" transform="translate(0 0.296875)"/>
</clipPath>
</defs>
</svg>
