<svg width="17" height="17" viewBox="0 0 17 17" fill="none" xmlns="http://www.w3.org/2000/svg">
<g id="Group 1261160989">
<g id="hourglass">
<path id="Shape" d="M10.8714 6.91847C11.264 6.65647 11.5 6.21567 11.5 5.74367V3.49927H5.5V5.74367C5.5 6.21567 5.736 6.65647 6.1286 6.91847L7.9924 8.28707C8.06 8.33667 8.1 8.41547 8.1 8.49927C8.1 8.58307 8.06 8.66187 7.9926 8.71147L6.1288 10.0801C5.736 10.3421 5.5 10.7829 5.5 11.2549V13.4993H11.5V11.2549C11.5 10.7829 11.264 10.3421 10.8714 10.0801L9.0076 8.71147C8.94 8.66187 8.9 8.58307 8.9 8.49927C8.9 8.41547 8.94 8.33667 9.0074 8.28707L10.8714 6.91847Z" fill="#E6E6E6" fill-opacity="0.2"/>
<path id="Rectangle-path" d="M12.5 13.4993H4.5V14.2993H12.5V13.4993Z" fill="#9E6C53"/>
<path id="Rectangle-path_2" d="M12.5 2.69922H4.5V3.49922H12.5V2.69922Z" fill="#9E6C53"/>
<g id="Group">
<path id="Shape_2" d="M13.3 14.0991H12.5H3.7C3.5896 14.0991 3.5 14.1885 3.5 14.2991C3.5 14.4097 3.5896 14.4991 3.7 14.4991H12.5H13.3C13.4104 14.4991 13.5 14.4097 13.5 14.2991C13.5 14.1885 13.4104 14.0991 13.3 14.0991Z" fill="#8A5336"/>
<path id="Shape_3" d="M3.7 2.89927H12.5H13.3C13.4104 2.89927 13.5 2.80987 13.5 2.69927C13.5 2.58867 13.4104 2.49927 13.3 2.49927H12.5H3.7C3.5896 2.49927 3.5 2.58867 3.5 2.69927C3.5 2.80987 3.5896 2.89927 3.7 2.89927Z" fill="#8A5336"/>
</g>
<path id="Shape_4" d="M10.54 6.41914C10.7664 6.26814 10.9016 6.01554 10.9016 5.74374C10.9016 5.48254 10.7238 5.25474 10.4704 5.19134L7.45976 4.43874C6.76996 4.26614 6.10156 4.78794 6.10156 5.49914V5.74374C6.10156 6.01554 6.23676 6.26814 6.46316 6.41914L8.30156 7.76834V10.9437C8.30156 11.6697 7.54876 12.1509 6.88996 11.8459C6.53516 11.6817 6.10556 11.9247 6.10176 12.3157C6.10176 12.3185 6.10176 12.3211 6.10176 12.3239V13.4991H10.9018V11.2545C10.9018 11.2517 10.9018 11.2491 10.9018 11.2463C10.898 10.8601 10.524 10.5819 10.1436 10.6481L9.73376 10.7195C9.19476 10.8133 8.70156 10.3985 8.70156 9.85174V7.76834L10.54 6.41914Z" fill="#EBBA16"/>
</g>
</g>
</svg>
