<?xml version="1.0" encoding="utf-8"?>
<!-- Uploaded to: SVG Repo, www.svgrepo.com, Generator: SVG Repo Mixer Tools -->
<svg fill="#0ab5c9" width="800px" height="800px" viewBox="0 0 32 32" version="1.1" xmlns="http://www.w3.org/2000/svg">
<title>player-teleport</title>
<path d="M30.135 17.039c0-1.494-3.593-2.777-8.71-3.325-0.009-0.113-0.019-0.226-0.030-0.338-0.002-0.016-0.003-0.031-0.005-0.047-0.011-0.115-0.023-0.229-0.037-0.342-0.002-0.017-0.004-0.033-0.006-0.050-0.013-0.113-0.028-0.225-0.043-0.336-0.002-0.017-0.005-0.034-0.007-0.050-0.016-0.111-0.032-0.221-0.050-0.33-0.001-0.009-0.003-0.018-0.004-0.026l0 0.004c-0.037-0.227-0.079-0.45-0.127-0.668 5.279-0.528 9.017-1.833 9.017-3.357 0-1.724-4.786-3.167-11.177-3.523-0.070-1.785-1.053-3.258-2.362-3.687-0.252-0.082-0.515-0.126-0.787-0.126-0.109 0-0.221-0.014-0.327 0l0 0c-1.537 0.2-2.747 1.826-2.822 3.821-6.314 0.37-11.023 1.804-11.023 3.515-0 1.525 3.741 2.829 9.025 3.357-0.082 0.333-0.153 0.678-0.213 1.031l0-0.003c-0.002 0.010-0.003 0.020-0.005 0.030-0.019 0.115-0.038 0.23-0.055 0.346-0.002 0.016-0.005 0.033-0.007 0.049-0.017 0.115-0.032 0.23-0.047 0.346-0.002 0.018-0.004 0.036-0.007 0.053-0.014 0.112-0.027 0.223-0.039 0.336-5.087 0.551-8.653 1.83-8.653 3.318-0 1.705 4.68 3.135 10.963 3.511l0.12 1.615c-6.354 0.363-11.101 1.801-11.101 3.519 0 1.992 6.38 3.608 14.25 3.608s14.25-1.615 14.25-3.608c0-1.713-4.718-3.148-11.044-3.516l0.107-1.618c6.278-0.377 10.953-1.806 10.953-3.511zM26.054 16.565c0 1.121-2.824 2.081-6.77 2.439l0.075-1.142h2.172c0-0.792 0.003-1.656-0.022-2.535l0 0.001c-0-0.003-0-0.006-0-0.008-0.003-0.121-0.007-0.242-0.012-0.363-0-0.012-0.001-0.023-0.001-0.034-0.005-0.121-0.010-0.241-0.016-0.362-0.001-0.013-0.001-0.025-0.002-0.038-0.002-0.031-0.003-0.062-0.005-0.092 2.76 0.453 4.581 1.235 4.581 2.135zM26.054 7.701c0 0.988-2.194 1.851-5.416 2.287-0.519-1.2-1.338-2.059-2.633-2.26 0.511-0.641 0.862-1.5 0.94-2.461 4.122 0.323 7.108 1.282 7.108 2.435zM5.683 7.701c0-1.139 2.938-2.089 6.992-2.423 0.083 0.982 0.453 1.853 0.986 2.496-1.167 0.22-1.952 1.057-2.48 2.221-3.263-0.433-5.499-1.301-5.499-2.294zM5.683 16.565c0-0.893 1.807-1.67 4.541-2.125-0.003 0.033-0.005 0.065-0.008 0.098-0.002 0.020-0.003 0.039-0.004 0.059-0.008 0.115-0.016 0.23-0.024 0.345-0.001 0.021-0.002 0.042-0.004 0.063-0.007 0.113-0.013 0.226-0.019 0.339-0.001 0.024-0.002 0.049-0.003 0.073-0.005 0.108-0.010 0.216-0.014 0.324-0 0.010-0.001 0.019-0.001 0.029l0-0.004c-0.028 0.724-0.035 1.433-0.035 2.095h2.288l0.085 1.142c-3.956-0.357-6.803-1.318-6.803-2.439zM26.048 25.222c0 1.423-4.557 2.577-10.178 2.577s-10.178-1.154-10.178-2.577c0-1.149 2.971-2.122 7.074-2.455l0.242 3.245c1.537 0.541 4.496 0.482 5.815 0l0.213-3.24c4.071 0.337 7.012 1.306 7.012 2.45z"></path>
</svg>