<svg width="17" height="16" viewBox="0 0 17 16" fill="none" xmlns="http://www.w3.org/2000/svg">
<g id="lightning-thunder-svgrepo-com 1" clip-path="url(#clip0_1430_439)">
<path id="Vector" d="M10.1642 4.92529H5.55847L2.85156 9.41129H4.84534L3.31172 15.549L10.1987 7.74979H8.17159L10.1642 4.92529Z" fill="#FEE187"/>
<path id="Vector_2" d="M14.5535 3.08046C14.4816 2.92099 14.3228 2.81843 14.1479 2.81843H12.9793L14.477 0.695365C14.5728 0.559553 14.5849 0.381646 14.5084 0.234053C14.4319 0.0865527 14.2796 -0.00610352 14.1134 -0.00610352H9.50765C9.35175 -0.00610352 9.20721 0.075459 9.12662 0.208959L6.54937 4.48018H5.55806C5.40215 4.48018 5.25762 4.56174 5.17703 4.69524L2.47021 9.1813C2.38731 9.31874 2.38484 9.49015 2.46371 9.62996C2.54259 9.76977 2.69068 9.85618 2.85118 9.85618H4.27515L2.87962 15.4411C2.8299 15.6401 2.92268 15.8473 3.10425 15.9428C3.16984 15.9773 3.24078 15.9939 3.31115 15.9939C3.43562 15.9939 3.55815 15.9416 3.64487 15.8435L10.5318 8.04427C10.6476 7.91315 10.6758 7.7263 10.6038 7.5668C10.5319 7.40733 10.3732 7.30477 10.1982 7.30477H9.02965L10.5273 5.18171C10.6231 5.0459 10.6352 4.86799 10.5587 4.72046C10.4822 4.57293 10.3299 4.48027 10.1637 4.48027H7.58875L9.75881 0.883865H13.2549L11.7572 3.00693C11.6614 3.14274 11.6492 3.32065 11.7257 3.46824C11.8022 3.6158 11.9546 3.70843 12.1208 3.70843H13.1613L11.7808 5.27183C11.6182 5.45605 11.6356 5.73724 11.8198 5.89993C11.9044 5.97465 12.0095 6.01133 12.1142 6.01133C12.2374 6.01133 12.3599 5.96046 12.4479 5.8609L14.4814 3.55799C14.5972 3.42677 14.6255 3.23993 14.5535 3.08046ZM7.80762 7.49321C7.71187 7.62902 7.69971 7.80693 7.77621 7.95446C7.85271 8.10199 8.00506 8.19465 8.17128 8.19465H9.21181L4.18531 13.887L5.27675 9.51908C5.30993 9.38618 5.28003 9.24533 5.19575 9.13733C5.11137 9.02933 4.98203 8.96621 4.84503 8.96621H3.6394L5.80928 5.37015H9.30531L7.80762 7.49321Z" fill="#FFC61B"/>
</g>
<defs>
<clipPath id="clip0_1430_439">
<rect width="16" height="16" fill="white" transform="translate(0.5 -0.00610352)"/>
</clipPath>
</defs>
</svg>
