<svg width="38" height="38" viewBox="0 0 38 38" fill="none" xmlns="http://www.w3.org/2000/svg">
<path d="M0 8C0 3.58172 3.58172 0 8 0H30C34.4183 0 38 3.58172 38 8V30C38 34.4183 34.4183 38 30 38H8C3.58172 38 0 34.4183 0 30V8Z" fill="url(#paint0_linear_684_2858)"/>
<path d="M10 28H28M10 25H28M12.8233 10.0004C13.2383 10.3668 13.5 10.9029 13.5 11.5C13.5 12.6046 12.6046 13.5 11.5 13.5C10.9029 13.5 10.3668 13.2383 10.0004 12.8233M12.8233 10.0004C12.9414 10 13.0668 10 13.2 10H24.8C24.9332 10 25.0586 10 25.1767 10.0004M12.8233 10.0004C11.9485 10.0031 11.469 10.0259 11.092 10.218C10.7157 10.4097 10.4097 10.7157 10.218 11.092C10.0259 11.469 10.0031 11.9485 10.0004 12.8233M10.0004 12.8233C10 12.9414 10 13.0668 10 13.2V18.8C10 18.9332 10 19.0586 10.0004 19.1767M10.0004 19.1767C10.3668 18.7617 10.9029 18.5 11.5 18.5C12.6046 18.5 13.5 19.3954 13.5 20.5C13.5 21.0971 13.2383 21.6332 12.8233 21.9996M10.0004 19.1767C10.0031 20.0515 10.0259 20.531 10.218 20.908C10.4097 21.2843 10.7157 21.5903 11.092 21.782C11.469 21.9741 11.9485 21.9969 12.8233 21.9996M12.8233 21.9996C12.9414 22 13.0668 22 13.2 22H24.8C24.9332 22 25.0586 22 25.1767 21.9996M28 19.1771C27.6335 18.7619 27.0973 18.5 26.5 18.5C25.3954 18.5 24.5 19.3954 24.5 20.5C24.5 21.0971 24.7617 21.6332 25.1767 21.9996M28 19.1771C28.0004 19.0589 28 18.9334 28 18.8V13.2C28 13.0668 28 12.9414 27.9996 12.8233M28 19.1771C27.9973 20.0516 27.974 20.5311 27.782 20.908C27.5903 21.2843 27.2843 21.5903 26.908 21.782C26.5311 21.9741 26.0515 21.9969 25.1767 21.9996M27.9996 12.8233C27.6332 13.2383 27.0971 13.5 26.5 13.5C25.3954 13.5 24.5 12.6046 24.5 11.5C24.5 10.9029 24.7617 10.3668 25.1767 10.0004M27.9996 12.8233C27.9969 11.9485 27.9741 11.469 27.782 11.092C27.5903 10.7157 27.2843 10.4097 26.908 10.218C26.5311 10.0259 26.0515 10.0031 25.1767 10.0004M21 16C21 17.1046 20.1046 18 19 18C17.8954 18 17 17.1046 17 16C17 14.8954 17.8954 14 19 14C20.1046 14 21 14.8954 21 16Z" stroke="white" stroke-width="2" stroke-linecap="round" stroke-linejoin="round"/>
<defs>
<linearGradient id="paint0_linear_684_2858" x1="1.01604e-06" y1="35.2857" x2="38" y2="-1.065e-06" gradientUnits="userSpaceOnUse">
<stop stop-color="#9610FF"/>
<stop offset="1" stop-color="#B14DFF" stop-opacity="0"/>
</linearGradient>
</defs>
</svg>
