<svg width="32" height="32" viewBox="0 0 32 32" fill="none" xmlns="http://www.w3.org/2000/svg">
<path d="M0 8C0 3.58172 3.58172 0 8 0H24C28.4183 0 32 3.58172 32 8V24C32 28.4183 28.4183 32 24 32H8C3.58172 32 0 28.4183 0 24V8Z" fill="url(#paint0_linear_684_2883)"/>
<path d="M16.0188 12.7952H16.0294M19.2188 23.4619L21.3521 25.5953L25.6188 21.3286M13.001 19.1952C13.4403 17.9524 14.6257 17.0619 16.019 17.0619C17.4123 17.0619 18.5976 17.9524 19.0369 19.1952M24.551 17.0619V10.8752C24.551 9.68047 24.551 9.08308 24.3185 8.62673C24.114 8.22532 23.7876 7.89896 23.3862 7.69443C22.9299 7.46191 22.3325 7.46191 21.1377 7.46191H10.8977C9.70293 7.46191 9.10554 7.46191 8.6492 7.69443C8.24778 7.89896 7.92142 8.22532 7.71689 8.62673C7.48438 9.08308 7.48438 9.68047 7.48438 10.8752V21.1152C7.48438 22.31 7.48438 22.9074 7.71689 23.3638C7.92142 23.7652 8.24778 24.0915 8.6492 24.2961C9.10554 24.5286 9.70293 24.5286 10.8977 24.5286H14.9521M17.0854 12.7952C17.0854 13.3844 16.6079 13.8619 16.0188 13.8619C15.4296 13.8619 14.9521 13.3844 14.9521 12.7952C14.9521 12.2061 15.4296 11.7286 16.0188 11.7286C16.6079 11.7286 17.0854 12.2061 17.0854 12.7952Z" stroke="#F7F7FC" stroke-width="2" stroke-linecap="round" stroke-linejoin="round"/>
<defs>
<linearGradient id="paint0_linear_684_2883" x1="8.55612e-07" y1="29.7143" x2="32" y2="-8.96841e-07" gradientUnits="userSpaceOnUse">
<stop stop-color="#9610FF"/>
<stop offset="1" stop-color="#B14DFF" stop-opacity="0"/>
</linearGradient>
</defs>
</svg>
