<svg width="38" height="38" viewBox="0 0 38 38" fill="none" xmlns="http://www.w3.org/2000/svg">
<path d="M0 8C0 3.58172 3.58172 0 8 0H30C34.4183 0 38 3.58172 38 8V30C38 34.4183 34.4183 38 30 38H8C3.58172 38 0 34.4183 0 30V8Z" fill="url(#paint0_linear_684_2850)"/>
<path d="M10 19H28M19 15V19M13.5 19V23M24.5 19V23M17.1 15H20.9C21.4601 15 21.7401 15 21.954 14.891C22.1422 14.7951 22.2951 14.6422 22.391 14.454C22.5 14.2401 22.5 13.9601 22.5 13.4V11.6C22.5 11.0399 22.5 10.7599 22.391 10.546C22.2951 10.3578 22.1422 10.2049 21.954 10.109C21.7401 10 21.4601 10 20.9 10H17.1C16.5399 10 16.2599 10 16.046 10.109C15.8578 10.2049 15.7049 10.3578 15.609 10.546C15.5 10.7599 15.5 11.0399 15.5 11.6V13.4C15.5 13.9601 15.5 14.2401 15.609 14.454C15.7049 14.6422 15.8578 14.7951 16.046 14.891C16.2599 15 16.5399 15 17.1 15ZM22.6 28H26.4C26.9601 28 27.2401 28 27.454 27.891C27.6422 27.7951 27.7951 27.6422 27.891 27.454C28 27.2401 28 26.9601 28 26.4V24.6C28 24.0399 28 23.7599 27.891 23.546C27.7951 23.3578 27.6422 23.2049 27.454 23.109C27.2401 23 26.9601 23 26.4 23H22.6C22.0399 23 21.7599 23 21.546 23.109C21.3578 23.2049 21.2049 23.3578 21.109 23.546C21 23.7599 21 24.0399 21 24.6V26.4C21 26.9601 21 27.2401 21.109 27.454C21.2049 27.6422 21.3578 27.7951 21.546 27.891C21.7599 28 22.0399 28 22.6 28ZM11.6 28H15.4C15.9601 28 16.2401 28 16.454 27.891C16.6422 27.7951 16.7951 27.6422 16.891 27.454C17 27.2401 17 26.9601 17 26.4V24.6C17 24.0399 17 23.7599 16.891 23.546C16.7951 23.3578 16.6422 23.2049 16.454 23.109C16.2401 23 15.9601 23 15.4 23H11.6C11.0399 23 10.7599 23 10.546 23.109C10.3578 23.2049 10.2049 23.3578 10.109 23.546C10 23.7599 10 24.0399 10 24.6V26.4C10 26.9601 10 27.2401 10.109 27.454C10.2049 27.6422 10.3578 27.7951 10.546 27.891C10.7599 28 11.0399 28 11.6 28Z" stroke="white" stroke-width="2" stroke-linecap="round" stroke-linejoin="round"/>
<defs>
<linearGradient id="paint0_linear_684_2850" x1="1.01604e-06" y1="35.2857" x2="38" y2="-1.065e-06" gradientUnits="userSpaceOnUse">
<stop stop-color="#9610FF"/>
<stop offset="1" stop-color="#B14DFF" stop-opacity="0"/>
</linearGradient>
</defs>
</svg>
