<svg width="38" height="38" viewBox="0 0 38 38" fill="none" xmlns="http://www.w3.org/2000/svg">
<path d="M0 8C0 3.58172 3.58172 0 8 0H30C34.4183 0 38 3.58172 38 8V30C38 34.4183 34.4183 38 30 38H8C3.58172 38 0 34.4183 0 30V8Z" fill="url(#paint0_linear_684_2854)"/>
<path d="M18 13L28 13.0007M18 19L28 19.0007M18 25L28 25.0007M10 18.9444L11.5385 20.5L15 17M10 12.9444L11.5385 14.5L15 11M11.5 25H11.51M12 25C12 25.2761 11.7761 25.5 11.5 25.5C11.2239 25.5 11 25.2761 11 25C11 24.7239 11.2239 24.5 11.5 24.5C11.7761 24.5 12 24.7239 12 25Z" stroke="white" stroke-width="2" stroke-linecap="round" stroke-linejoin="round"/>
<defs>
<linearGradient id="paint0_linear_684_2854" x1="1.01604e-06" y1="35.2857" x2="38" y2="-1.065e-06" gradientUnits="userSpaceOnUse">
<stop stop-color="#9610FF"/>
<stop offset="1" stop-color="#B14DFF" stop-opacity="0"/>
</linearGradient>
</defs>
</svg>
