<svg width="33" height="32" viewBox="0 0 33 32" fill="none" xmlns="http://www.w3.org/2000/svg">
<path d="M16.1551 12.6673C12.9885 12.641 12.2446 15.2372 9.28095 17.5557C4.9917 20.9477 5.67655 23.9873 8.1853 24.682C10.6941 25.3766 13.013 22.8748 15.7277 22.9958C18.4856 23.0547 20.5427 25.6477 23.141 25.1034C25.7393 24.5591 26.6029 21.5134 22.6185 17.9448C19.9268 15.4317 19.2353 12.8178 16.1551 12.6673Z" fill="white"/>
<path d="M8.8439 16.0181C10.4188 15.0665 10.3541 12.5368 8.69934 10.3677C7.04461 8.19858 4.42648 7.21156 2.85159 8.1631C1.2767 9.11464 1.34143 11.6444 2.99616 13.8135C4.65089 15.9826 7.26901 16.9696 8.8439 16.0181Z" fill="white"/>
<path d="M29.201 14.583C31.0103 12.5139 31.2592 9.99316 29.7569 8.95274C28.2545 7.91233 25.5698 8.74625 23.7605 10.8154C21.9511 12.8845 21.7023 15.4052 23.2046 16.4456C24.707 17.486 27.3916 16.6521 29.201 14.583Z" fill="white"/>
<path d="M12.8296 10.6379C14.8033 10.3836 16.0398 7.94455 15.5916 5.19024C15.1433 2.43594 13.18 0.409345 11.2064 0.663717C9.23276 0.918089 7.99619 3.3571 8.44443 6.11141C8.89268 8.86571 10.856 10.8923 12.8296 10.6379Z" fill="white"/>
<path d="M19.644 10.8605C21.595 11.2282 23.7018 9.31905 24.3497 6.59639C24.9975 3.87372 23.9411 1.36854 21.9901 1.0009C20.0391 0.633265 17.9323 2.54239 17.2845 5.26505C16.6366 7.98771 17.693 10.4929 19.644 10.8605Z" fill="white"/>
</svg>
