<svg width="24" height="24" viewBox="0 0 24 24" fill="none" xmlns="http://www.w3.org/2000/svg">
<g id="Group 1261159154">
<g id="Group 1261159141">
<circle id="Ellipse 1434" cx="12" cy="12" r="11.75" stroke="white" stroke-width="0.5"/>
</g>
<g id="Group 1261159150">
<path id="Vector" fill-rule="evenodd" clip-rule="evenodd" d="M11.9826 5.6595L6.49739 8.82977V15.1703L11.9826 18.3405L17.4679 15.1703V8.82977L11.9826 5.6595ZM12.213 4.06179C12.0705 3.9794 11.8948 3.9794 11.7523 4.06179L5.23037 7.83117C5.08781 7.91359 5 8.06581 5 8.2306V15.7694C5 15.9342 5.08781 16.0864 5.23037 16.1688L11.7523 19.9382C11.8948 20.0206 12.0705 20.0206 12.213 19.9382L18.735 16.1688C18.8775 16.0864 18.9653 15.9342 18.9653 15.7694V8.2306C18.9653 8.06581 18.8775 7.91359 18.735 7.83117L12.213 4.06179Z" fill="white"/>
<path id="Vector_2" d="M11.9826 7.95605L8.48407 9.97802V14.0219L11.9595 16.0306C11.9738 16.0389 11.9826 16.0541 11.9826 16.0706V16.7629C11.9826 16.7984 11.9442 16.8206 11.9134 16.8029L7.96575 14.5213C7.85882 14.4595 7.79297 14.3453 7.79297 14.2217V9.77828C7.79297 9.6547 7.85882 9.54051 7.96575 9.47874L11.8098 7.25704C11.9167 7.19524 12.0484 7.19524 12.1553 7.25704L16.1188 9.53947C16.1493 9.55703 16.1496 9.60093 16.1193 9.61888C15.8854 9.75776 15.7656 9.81953 15.504 9.96524C15.4898 9.97315 15.4724 9.97306 15.4584 9.96493L11.9826 7.95605Z" fill="white"/>
<path id="Vector_3" d="M12.5586 12.0854C12.5586 12.0684 12.568 12.0527 12.583 12.0447L16.0616 10.1913C16.0923 10.1749 16.1293 10.1972 16.1293 10.232V14.7408C16.1293 14.7573 16.1205 14.7725 16.1064 14.7807L12.6278 16.8026C12.5971 16.8205 12.5586 16.7983 12.5586 16.7628V12.0854Z" fill="white"/>
</g>
</g>
</svg>
