<svg width="100" height="100" viewBox="0 0 100 100" fill="none" xmlns="http://www.w3.org/2000/svg">
<circle cx="50" cy="50" r="50" fill="white"/>
<path fill-rule="evenodd" clip-rule="evenodd" d="M50.0002 17.8575L22.193 33.929V66.0719L50.0002 82.1433L77.8076 66.0719V33.929L50.0002 17.8575ZM51.168 9.75808C50.4454 9.34041 49.555 9.34041 48.8323 9.75808L15.7698 28.8668C15.0471 29.2845 14.6021 30.0565 14.6021 30.8916V69.1091C14.6021 69.9444 15.0471 70.7164 15.7698 71.134L48.8323 90.2426C49.555 90.6604 50.4454 90.6604 51.168 90.2426L84.2307 71.134C84.9533 70.7164 85.3984 69.9444 85.3984 69.1091V30.8916C85.3984 30.0565 84.9533 29.2845 84.2307 28.8668L51.168 9.75808Z" fill="#FF9211"/>
<path d="M50.0003 29.4997L32.2648 39.75V60.2507L49.8835 70.4333C49.9558 70.4751 50.0003 70.5523 50.0003 70.6359V74.1458C50.0003 74.3257 49.8055 74.4383 49.65 74.3483L29.6372 62.7816C29.0953 62.4684 28.7612 61.8896 28.7612 61.263V38.7375C28.7612 38.1109 29.0953 37.5321 29.6372 37.2187L49.1243 25.9561C49.6664 25.6429 50.3342 25.6429 50.8761 25.9561L70.9687 37.5268C71.1233 37.6157 71.1247 37.8383 70.9715 37.9294C69.7857 38.6334 69.1785 38.9466 67.8519 39.6851C67.78 39.7251 67.6921 39.7247 67.6208 39.6837L50.0003 29.4997Z" fill="#FF9211"/>
<path d="M52.9197 50.4327C52.9197 50.3463 52.9673 50.267 53.0436 50.2263L70.6779 40.8305C70.8334 40.7476 71.0211 40.8604 71.0211 41.0369V63.8942C71.0211 63.9777 70.9769 64.0547 70.9048 64.0965L53.2706 74.3465C53.1147 74.437 52.9197 74.3247 52.9197 74.1444V50.4327Z" fill="#FF9211"/>
</svg>
