<svg width="24" height="24" viewBox="0 0 24 24" fill="none" xmlns="http://www.w3.org/2000/svg">
<circle cx="12" cy="12" r="11.75" stroke="white" stroke-width="0.5"/>
<mask id="mask0_2137_655" style="mask-type:luminance" maskUnits="userSpaceOnUse" x="6" y="4" width="12" height="17">
<path d="M17.04 4H6V20.2643H17.04V4Z" fill="white"/>
</mask>
<g mask="url(#mask0_2137_655)">
<path fill-rule="evenodd" clip-rule="evenodd" d="M9.58231 11.0995C9.81026 11.588 9.46289 12.1742 8.89841 12.1742C8.57275 12.1742 8.14937 11.9136 8.14937 11.4143C8.14937 10.3504 7.83458 9.84023 7.47634 9.69911C7.47634 11.8485 6 12.641 6 15.0835C6 17.5259 7.45464 19.4148 9.5063 20.2289C8.85499 19.6644 8.44248 18.8286 8.44248 17.895C8.44248 15.0508 12.1008 14.3344 10.7547 11.3491C11.2866 12.0547 12.2419 15.4525 11.1238 17.6887C11.8077 17.3305 12.9366 16.0929 13.36 15.4525C12.8172 18.4269 13.4577 18.1989 14.033 17.9819C14.2501 17.895 14.4672 17.8082 14.5975 17.9059C14.8472 18.0687 14.185 19.6753 13.5337 20.2397C15.5854 19.4365 17.04 17.439 17.04 15.0943C17.04 9.88365 10.5376 9.62313 12.3287 4C10.5919 4.79246 7.91057 7.45204 9.58231 11.0995Z" fill="white"/>
</g>
</svg>
