<svg width="20" height="20" viewBox="0 0 20 20" fill="none" xmlns="http://www.w3.org/2000/svg">
<rect x="10.0215" y="-2" width="17" height="17" rx="5" transform="rotate(45 10.0215 -2)" fill="#875BFD"/>
<path d="M8.45188 13V12.304L10.6759 10.192C10.8625 10.016 11.0012 9.86133 11.0919 9.728C11.1825 9.59467 11.2412 9.472 11.2679 9.36C11.2999 9.24267 11.3159 9.13333 11.3159 9.032C11.3159 8.776 11.2279 8.57867 11.0519 8.44C10.8759 8.296 10.6172 8.224 10.2759 8.224C10.0039 8.224 9.75588 8.272 9.53188 8.368C9.31321 8.464 9.12388 8.61067 8.96388 8.808L8.23588 8.248C8.45454 7.95467 8.74788 7.728 9.11588 7.568C9.48921 7.40267 9.90521 7.32 10.3639 7.32C10.7692 7.32 11.1212 7.38667 11.4199 7.52C11.7239 7.648 11.9559 7.832 12.1159 8.072C12.2812 8.312 12.3639 8.59733 12.3639 8.928C12.3639 9.10933 12.3399 9.29067 12.2919 9.472C12.2439 9.648 12.1532 9.83467 12.0199 10.032C11.8865 10.2293 11.6919 10.4507 11.4359 10.696L9.52388 12.512L9.30788 12.12H12.5799V13H8.45188Z" fill="white"/>
</svg>
