<svg width="24" height="24" viewBox="0 0 24 24" fill="none" xmlns="http://www.w3.org/2000/svg">
<circle cx="12" cy="12" r="11.75" fill="#FCE8D7" stroke="#FCE8D7" stroke-width="0.5"/>
<g clip-path="url(#clip0_984_181)">
<path fill-rule="evenodd" clip-rule="evenodd" d="M11.9257 19.9798C14.2594 19.9798 16.3587 18.9737 17.8159 17.3705L17.4282 16.9414C16.9483 16.4104 16.1303 16.365 15.5947 16.8397L14.7676 17.5727C13.6424 18.57 11.9321 18.5071 10.8831 17.4299L10.3659 16.8988C9.8693 16.3888 9.05553 16.3711 8.53709 16.8589L7.02011 18.2863C8.37251 19.3474 10.0754 19.9798 11.9257 19.9798ZM18.5491 15.9285L18.7374 16.1369C19.4708 14.928 19.8933 13.5085 19.8933 11.9899C19.8933 10.1486 19.2722 8.45274 18.2285 7.10157C18.0345 7.15144 17.8491 7.24687 17.689 7.38879L16.8619 8.12183C15.7367 9.11912 14.0264 9.05626 12.9774 7.97905L12.4603 7.44795C11.9636 6.93796 11.1499 6.92018 10.6314 7.408L8.50338 9.4104L7.4681 8.31017L9.59615 6.30776C10.7149 5.25509 12.4709 5.29346 13.5426 6.39398L14.0597 6.92508C14.5459 7.42428 15.3384 7.4534 15.8599 6.99125L16.687 6.2582C16.8258 6.13518 16.9734 6.02835 17.1275 5.93757C15.7316 4.73013 13.9137 4 11.9257 4C7.92867 4 4.61908 6.95147 4.04592 10.7996C5.13661 10.17 6.5528 10.3346 7.4689 11.2754L8.06701 11.8896C8.5319 12.367 9.28183 12.4174 9.80639 12.0064L11.5794 10.6174C12.6436 9.78365 14.1501 9.82398 15.1681 10.7134L17.5824 12.8227L16.5884 13.9604L14.1741 11.8511C13.7024 11.4389 13.0042 11.4202 12.5111 11.8066L10.7381 13.1957C9.60615 14.0825 7.98787 13.9738 6.98467 12.9436L6.38658 12.3294C5.88994 11.8194 5.07617 11.8016 4.55773 12.2894L4 12.8142C4.17248 14.5018 4.86875 16.0339 5.9231 17.2442L7.50182 15.7586C8.62055 14.706 10.3766 14.7443 11.4482 15.8449L11.9655 16.376C12.4516 16.8751 13.2442 16.9043 13.7656 16.4422L14.5927 15.7091C15.7485 14.6847 17.5137 14.7826 18.5491 15.9285Z" fill="url(#paint0_linear_984_181)"/>
</g>
<defs>
<linearGradient id="paint0_linear_984_181" x1="11.9466" y1="4" x2="15.1038" y2="19.9734" gradientUnits="userSpaceOnUse">
<stop stop-color="#780000"/>
<stop offset="1" stop-color="#C1121F"/>
</linearGradient>
<clipPath id="clip0_984_181">
<rect width="15.9313" height="16" fill="white" transform="translate(4 4)"/>
</clipPath>
</defs>
</svg>
