<svg width="24" height="24" viewBox="0 0 24 24" fill="none" xmlns="http://www.w3.org/2000/svg">
<g id="Group 1261158561">
<g id="Group 1261158540">
<path id="Vector" d="M23.75 12C23.75 18.4893 18.4893 23.75 12 23.75C5.51065 23.75 0.25 18.4893 0.25 12C0.25 5.51065 5.51065 0.25 12 0.25C18.4893 0.25 23.75 5.51065 23.75 12Z" stroke="#747687" stroke-width="0.5"/>
<path id="Vector_2" d="M15.7676 13.6592C15.8216 14.0497 15.928 14.3414 16.0865 14.5348C16.3766 14.8867 16.8733 15.0626 17.5769 15.0626C17.9985 15.0626 18.3406 15.0163 18.6035 14.9236C19.1023 14.7456 19.3516 14.415 19.3516 13.9318C19.3516 13.6494 19.2279 13.431 18.9806 13.2763C18.733 13.1256 18.3446 12.9923 17.8147 12.8762L16.91 12.6733C16.0207 12.4721 15.406 12.2537 15.0657 12.0178C14.4897 11.6235 14.2016 11.0068 14.2016 10.1678C14.2016 9.40219 14.48 8.76619 15.0367 8.25974C15.5936 7.75331 16.4113 7.5 17.4899 7.5C18.3909 7.5 19.1593 7.73869 19.7953 8.21624C20.4314 8.69381 20.7649 9.38681 20.7957 10.2954H19.079C19.048 9.78113 18.8239 9.41587 18.4063 9.19931C18.128 9.05624 17.7819 8.98463 17.3683 8.98463C16.9082 8.98463 16.5409 9.07744 16.2663 9.26306C15.9919 9.44869 15.8546 9.70763 15.8546 10.0403C15.8546 10.3457 15.9897 10.5739 16.2605 10.7246C16.4345 10.8251 16.8056 10.9431 17.374 11.0784L18.847 11.4321C19.4929 11.5868 19.9799 11.7936 20.3086 12.0527C20.819 12.4549 21.0742 13.0367 21.0742 13.7983C21.0742 14.5794 20.7755 15.228 20.1782 15.7442C19.5807 16.2604 18.737 16.5184 17.6465 16.5184C16.5332 16.5184 15.6573 16.2641 15.0194 15.7556C14.3813 15.2473 14.0625 14.5484 14.0625 13.6592H15.7676Z" fill="#747687"/>
<path id="Vector_3" fill-rule="evenodd" clip-rule="evenodd" d="M5.25 4.875V19.125H17.625V17.8126H6.75V6.1875H17.625V4.875H5.25Z" fill="#747687"/>
</g>
</g>
</svg>
