<svg width="18" height="18" viewBox="0 0 18 18" fill="none" xmlns="http://www.w3.org/2000/svg">
<g id="Icon" filter="url(#filter0_d_785_3359)">
<path d="M8.41183 3.60743C8.56617 3.26118 8.64334 3.08806 8.7508 3.03474C8.84414 2.98842 8.95378 2.98842 9.04712 3.03474C9.15458 3.08806 9.23175 3.26118 9.38609 3.60743L10.6154 6.36539C10.6611 6.46775 10.6839 6.51893 10.7192 6.55812C10.7504 6.5928 10.7886 6.62054 10.8312 6.63953C10.8794 6.66099 10.9351 6.66687 11.0466 6.67864L14.0495 6.99557C14.4265 7.03536 14.615 7.05526 14.6989 7.14098C14.7718 7.21544 14.8056 7.31971 14.7904 7.42279C14.7729 7.54147 14.6321 7.66836 14.3505 7.92215L12.1074 9.94359C12.0242 10.0186 11.9826 10.0561 11.9562 10.1018C11.9329 10.1422 11.9183 10.1871 11.9134 10.2335C11.9079 10.286 11.9195 10.3408 11.9428 10.4504L12.5693 13.4043C12.6479 13.7751 12.6873 13.9605 12.6317 14.0668C12.5834 14.1592 12.4947 14.2236 12.3919 14.241C12.2737 14.261 12.1095 14.1663 11.7811 13.9769L9.16543 12.4683C9.06835 12.4123 9.01981 12.3843 8.96821 12.3733C8.92255 12.3636 8.87537 12.3636 8.82971 12.3733C8.77811 12.3843 8.72957 12.4123 8.63249 12.4683L6.01684 13.9769C5.68845 14.1663 5.52426 14.261 5.40598 14.241C5.30324 14.2236 5.21455 14.1592 5.16626 14.0668C5.11066 13.9605 5.14999 13.7751 5.22865 13.4043L5.85516 10.4504C5.87841 10.3408 5.89004 10.286 5.88451 10.2335C5.87963 10.1871 5.86505 10.1422 5.84172 10.1018C5.81535 10.0561 5.77372 10.0186 5.69047 9.94359L3.4474 7.92215C3.16579 7.66836 3.02498 7.54147 3.00748 7.42279C2.99227 7.31971 3.02615 7.21544 3.09904 7.14098C3.18296 7.05526 3.37146 7.03536 3.74846 6.99557L6.75132 6.67864C6.86277 6.66687 6.9185 6.66099 6.96668 6.63953C7.00932 6.62054 7.04749 6.5928 7.07873 6.55812C7.11403 6.51893 7.13684 6.46775 7.18247 6.36539L8.41183 3.60743Z" fill="#F3C009"/>
</g>
<defs>
<filter id="filter0_d_785_3359" x="0.00390625" y="0" width="17.7891" height="17.2437" filterUnits="userSpaceOnUse" color-interpolation-filters="sRGB">
<feFlood flood-opacity="0" result="BackgroundImageFix"/>
<feColorMatrix in="SourceAlpha" type="matrix" values="0 0 0 0 0 0 0 0 0 0 0 0 0 0 0 0 0 0 127 0" result="hardAlpha"/>
<feOffset/>
<feGaussianBlur stdDeviation="1.5"/>
<feComposite in2="hardAlpha" operator="out"/>
<feColorMatrix type="matrix" values="0 0 0 0 0.952941 0 0 0 0 0.752941 0 0 0 0 0.0352941 0 0 0 1 0"/>
<feBlend mode="normal" in2="BackgroundImageFix" result="effect1_dropShadow_785_3359"/>
<feBlend mode="normal" in="SourceGraphic" in2="effect1_dropShadow_785_3359" result="shape"/>
</filter>
</defs>
</svg>
