<svg width="16" height="16" viewBox="0 0 16 16" fill="none" xmlns="http://www.w3.org/2000/svg">
<g clip-path="url(#clip0_253_12342)">
<g filter="url(#filter0_d_253_12342)">
<path d="M7.51339 2.94068C7.66774 2.59443 7.74491 2.42131 7.85236 2.36799C7.94571 2.32167 8.05534 2.32167 8.14868 2.36799C8.25614 2.42131 8.33331 2.59443 8.48765 2.94069L9.71701 5.69864C9.76264 5.801 9.78545 5.85218 9.82076 5.89138C9.85199 5.92606 9.89016 5.95379 9.9328 5.97278C9.98099 5.99424 10.0367 6.00013 10.1482 6.01189L13.151 6.32882C13.528 6.36861 13.7165 6.38851 13.8004 6.47423C13.8733 6.54869 13.9072 6.65296 13.892 6.75605C13.8745 6.87472 13.7337 7.00161 13.4521 7.2554L11.209 9.27684C11.1258 9.35187 11.0841 9.38938 11.0578 9.43507C11.0344 9.47549 11.0199 9.52037 11.015 9.56678C11.0094 9.61925 11.0211 9.67406 11.0443 9.78369L11.6708 12.7375C11.7495 13.1084 11.7888 13.2938 11.7332 13.4001C11.6849 13.4924 11.5962 13.5569 11.4935 13.5743C11.3752 13.5943 11.211 13.4996 10.8826 13.3102L8.26699 11.8015C8.16991 11.7456 8.12137 11.7176 8.06977 11.7066C8.02411 11.6969 7.97693 11.6969 7.93128 11.7066C7.87968 11.7176 7.83114 11.7456 7.73406 11.8015L5.1184 13.3102C4.79001 13.4996 4.62582 13.5943 4.50755 13.5743C4.40481 13.5569 4.31611 13.4924 4.26782 13.4001C4.21222 13.2938 4.25155 13.1084 4.33021 12.7375L4.95672 9.78369C4.97997 9.67406 4.9916 9.61925 4.98608 9.56678C4.98119 9.52037 4.96661 9.47549 4.94328 9.43507C4.91691 9.38938 4.87529 9.35187 4.79204 9.27684L2.54896 7.2554C2.26735 7.00161 2.12654 6.87472 2.10904 6.75605C2.09384 6.65296 2.12771 6.54869 2.20061 6.47423C2.28452 6.38851 2.47302 6.36861 2.85002 6.32882L5.85288 6.01189C5.96433 6.00013 6.02006 5.99424 6.06825 5.97278C6.11088 5.95379 6.14905 5.92606 6.18029 5.89138C6.21559 5.85218 6.23841 5.801 6.28403 5.69864L7.51339 2.94068Z" fill="#F3B109"/>
</g>
</g>
<defs>
<filter id="filter0_d_253_12342" x="-0.894531" y="-0.666748" width="17.791" height="17.2437" filterUnits="userSpaceOnUse" color-interpolation-filters="sRGB">
<feFlood flood-opacity="0" result="BackgroundImageFix"/>
<feColorMatrix in="SourceAlpha" type="matrix" values="0 0 0 0 0 0 0 0 0 0 0 0 0 0 0 0 0 0 127 0" result="hardAlpha"/>
<feOffset/>
<feGaussianBlur stdDeviation="1.5"/>
<feComposite in2="hardAlpha" operator="out"/>
<feColorMatrix type="matrix" values="0 0 0 0 0.952941 0 0 0 0 0.694118 0 0 0 0 0.0352941 0 0 0 1 0"/>
<feBlend mode="normal" in2="BackgroundImageFix" result="effect1_dropShadow_253_12342"/>
<feBlend mode="normal" in="SourceGraphic" in2="effect1_dropShadow_253_12342" result="shape"/>
</filter>
<clipPath id="clip0_253_12342">
<rect width="16" height="16" fill="white"/>
</clipPath>
</defs>
</svg>
