<svg width="24" height="24" viewBox="0 0 24 24" fill="none" xmlns="http://www.w3.org/2000/svg">
<g id="Group 1261160830">
<g id="Group 1261159141">
<circle id="Ellipse 1434" cx="12" cy="12" r="11.75" stroke="#747687" stroke-width="0.5"/>
</g>
<path id="Vector" d="M18.9506 15.0975L16.5087 11.8461C16.2435 11.4927 15.8507 11.2811 15.4324 11.2345C15.3372 11.2236 15.2521 11.1695 15.2045 11.0878C15.156 11.0061 15.1509 10.907 15.1892 10.8203C15.3567 10.442 15.3669 10.0029 15.1866 9.60125L13.5347 5.90323C13.2898 5.35414 12.7363 5 12.125 5C11.5137 5 10.9602 5.35494 10.7153 5.90323L9.06336 9.60125C8.88397 10.0029 8.8933 10.442 9.06078 10.8203C9.09908 10.907 9.09312 11.0061 9.0455 11.0878C8.99703 11.1695 8.91284 11.2236 8.81764 11.2345C8.39933 11.2811 8.00651 11.4927 7.74125 11.8461L5.29944 15.0975C4.93723 15.5799 4.90067 16.2265 5.20587 16.7457C5.51197 17.264 6.10203 17.5564 6.70911 17.4906L10.8029 17.044C11.2475 16.9956 11.631 16.7682 11.881 16.4365C11.938 16.3607 12.0289 16.3157 12.125 16.3157C12.2211 16.3157 12.3112 16.3607 12.369 16.4365C12.619 16.7682 13.0024 16.9956 13.4471 17.044L17.5409 17.4906C18.148 17.5572 18.738 17.2648 19.0441 16.7457C19.3493 16.2265 19.3128 15.5799 18.9506 15.0975ZM10.1312 10.0654L11.7858 6.36322C11.8453 6.2307 11.9787 6.14488 12.1258 6.14488C12.2729 6.14488 12.4064 6.2307 12.4659 6.36322L14.1205 10.0654C14.1723 10.182 14.1613 10.317 14.0899 10.4237C14.0184 10.5304 13.8977 10.5945 13.7668 10.5945H10.4841C10.354 10.5945 10.2324 10.5304 10.161 10.4237C10.0895 10.317 10.0794 10.182 10.1312 10.0654ZM10.9806 15.7016C10.922 15.8158 10.808 15.8924 10.6788 15.9065L6.58072 16.3532C6.43447 16.369 6.29164 16.299 6.21767 16.1741C6.1437 16.049 6.15303 15.8932 6.24059 15.7766L8.68498 12.5218C8.76237 12.4194 8.8865 12.361 9.01658 12.3685C9.14665 12.3752 9.26398 12.446 9.32947 12.5569L9.332 12.561L10.9687 15.3391L10.9713 15.3433C11.0367 15.4541 11.0401 15.5891 10.9814 15.7024L10.9806 15.7016ZM12.4617 14.445C12.392 14.5625 12.2645 14.6359 12.125 14.6359C11.9864 14.6359 11.858 14.5633 11.7883 14.4459L10.5308 12.3118C10.4611 12.1944 10.4611 12.0485 10.5308 11.9311C10.6005 11.8136 10.7281 11.7402 10.8675 11.7402H13.3816C13.5202 11.7402 13.6486 11.8119 13.7183 11.9302C13.788 12.0485 13.788 12.1935 13.7183 12.311L12.4617 14.445ZM18.0332 16.1741C17.9592 16.299 17.8172 16.3699 17.6701 16.354L13.5721 15.9074C13.4428 15.8932 13.3289 15.8165 13.2702 15.7024C13.2116 15.5883 13.215 15.4533 13.2805 15.3433L13.283 15.3391L14.9197 12.561L14.9222 12.5569C14.9877 12.446 15.105 12.3752 15.2351 12.3685C15.3652 12.3619 15.4893 12.4194 15.5667 12.5218L18.0111 15.7766C18.0987 15.8932 18.1063 16.049 18.0332 16.1741Z" fill="#747687"/>
</g>
</svg>
