<svg width="20" height="20" viewBox="0 0 20 20" fill="none" xmlns="http://www.w3.org/2000/svg">
<rect x="10.0215" y="-2" width="17" height="17" rx="5" transform="rotate(45 10.0215 -2)" fill="#8C56FF"/>
<path d="M10.2839 13.08C9.88921 13.08 9.50254 13.024 9.12388 12.912C8.75054 12.7947 8.43588 12.6347 8.17988 12.432L8.62788 11.624C8.83054 11.7893 9.07588 11.9227 9.36388 12.024C9.65188 12.1253 9.95321 12.176 10.2679 12.176C10.6412 12.176 10.9319 12.1013 11.1399 11.952C11.3479 11.7973 11.4519 11.5893 11.4519 11.328C11.4519 11.072 11.3559 10.8693 11.1639 10.72C10.9719 10.5707 10.6625 10.496 10.2359 10.496H9.72388V9.784L11.3239 7.88L11.4599 8.272H8.45188V7.4H12.2679V8.096L10.6679 10L10.1239 9.68H10.4359C11.1239 9.68 11.6385 9.83467 11.9799 10.144C12.3265 10.448 12.4999 10.84 12.4999 11.32C12.4999 11.6347 12.4199 11.9253 12.2599 12.192C12.0999 12.4587 11.8545 12.6747 11.5239 12.84C11.1985 13 10.7852 13.08 10.2839 13.08Z" fill="white"/>
</svg>
