<svg width="24" height="24" viewBox="0 0 24 24" fill="none" xmlns="http://www.w3.org/2000/svg">
<g id="Group 1261159348">
<g id="Group">
<path id="Vector" d="M17.8811 6V11.192C15.9825 11.6813 13.9912 11.9405 11.9405 11.9405C9.88986 11.9405 7.89864 11.6803 6 11.192V6C7.89864 6.4883 9.88986 6.74854 11.9405 6.74854C13.9912 6.74854 15.9825 6.48928 17.8811 6Z" fill="white"/>
<path id="Vector_2" d="M6 18.0004V12.8084C7.89864 12.3191 9.88986 12.0598 11.9405 12.0598C13.9912 12.0598 15.9825 12.32 17.8811 12.8084V18.0004C15.9825 17.5121 13.9912 17.2518 11.9405 17.2518C9.88986 17.2518 7.89864 17.5111 6 18.0004Z" fill="white"/>
</g>
<g id="Group 1261159141">
<circle id="Ellipse 1434" cx="12" cy="12" r="11.75" stroke="white" stroke-width="0.5"/>
</g>
</g>
</svg>
