<svg width="56" height="56" viewBox="0 0 56 56" fill="none" xmlns="http://www.w3.org/2000/svg">
<path d="M0 8C0 3.58172 3.58172 0 8 0H48C52.4183 0 56 3.58172 56 8V48C56 52.4183 52.4183 56 48 56H8C3.58172 56 0 52.4183 0 48V8Z" fill="url(#paint0_linear_134_1584)"/>
<path d="M29.6667 41.3334V38.0001C29.6667 33.3977 25.9357 29.6667 21.3333 29.6667C16.731 29.6667 13 33.3977 13 38.0001V41.3334H29.6667ZM29.6667 41.3334H43V39.6667C43 34.7575 39.269 31.3334 34.6667 31.3334C32.3111 31.3334 30.1838 32.3759 28.6682 34.0519M26.3333 19.6667C26.3333 22.4282 24.0948 24.6667 21.3333 24.6667C18.5719 24.6667 16.3333 22.4282 16.3333 19.6667C16.3333 16.9053 18.5719 14.6667 21.3333 14.6667C24.0948 14.6667 26.3333 16.9053 26.3333 19.6667ZM38 23.0001C38 24.841 36.5076 26.3334 34.6667 26.3334C32.8257 26.3334 31.3333 24.841 31.3333 23.0001C31.3333 21.1591 32.8257 19.6667 34.6667 19.6667C36.5076 19.6667 38 21.1591 38 23.0001Z" stroke="#F7F7FC" stroke-width="2" stroke-linecap="round" stroke-linejoin="round"/>
<defs>
<linearGradient id="paint0_linear_134_1584" x1="1.49732e-06" y1="52" x2="56" y2="-1.56947e-06" gradientUnits="userSpaceOnUse">
<stop stop-color="#9610FF"/>
<stop offset="1" stop-color="#B14DFF" stop-opacity="0"/>
</linearGradient>
</defs>
</svg>
