<svg width="40" height="40" viewBox="0 0 40 40" fill="none" xmlns="http://www.w3.org/2000/svg">
<circle cx="20" cy="20" r="20" fill="url(#paint0_linear_275_5881)"/>
<circle cx="20" cy="20" r="16" fill="#2A2859"/>
<path d="M26.1415 27.5276L23.8768 25.2731M13.8608 27.5276L16.1256 25.2731M20.0012 17.8785V20.5101L21.266 21.7542M15.3895 12.9801C15.0604 12.6511 14.6142 12.4663 14.1489 12.4663C13.6836 12.4663 13.2374 12.6511 12.9084 12.9801C12.5794 13.3092 12.3945 13.7554 12.3945 14.2207C12.3945 14.686 12.5794 15.1322 12.9084 15.4612M27.0942 15.4598C27.4232 15.1308 27.6081 14.6845 27.6081 14.2192C27.6081 13.7539 27.4232 13.3077 27.0942 12.9787C26.7652 12.6497 26.319 12.4648 25.8537 12.4648C25.3884 12.4648 24.9422 12.6497 24.6132 12.9787M26.1415 20.5101C26.1415 23.9013 23.3924 26.6504 20.0012 26.6504C16.61 26.6504 13.8608 23.9013 13.8608 20.5101C13.8608 17.1189 16.61 14.3697 20.0012 14.3697C23.3924 14.3697 26.1415 17.1189 26.1415 20.5101Z" stroke="#F7F7FC" stroke-linecap="round" stroke-linejoin="round"/>
<defs>
<linearGradient id="paint0_linear_275_5881" x1="8.8" y1="3.46667" x2="33.6" y2="37.3333" gradientUnits="userSpaceOnUse">
<stop stop-color="#5B51D1"/>
<stop offset="1" stop-color="#4EBCD4"/>
</linearGradient>
</defs>
</svg>
