<svg width="40" height="40" viewBox="0 0 40 40" fill="none" xmlns="http://www.w3.org/2000/svg">
<circle cx="20" cy="20" r="20" fill="url(#paint0_linear_1983_1880)"/>
<path d="M26.1454 27.5276L23.8807 25.2731M13.8647 27.5276L16.1295 25.2731M20.0051 17.8785V20.5101L21.2699 21.7542M15.3934 12.9801C15.0644 12.6511 14.6181 12.4663 14.1528 12.4663C13.6875 12.4663 13.2413 12.6511 12.9123 12.9801C12.5833 13.3092 12.3984 13.7554 12.3984 14.2207C12.3984 14.686 12.5833 15.1322 12.9123 15.4612M27.0981 15.4598C27.4272 15.1308 27.612 14.6845 27.612 14.2192C27.612 13.7539 27.4272 13.3077 27.0981 12.9787C26.7691 12.6497 26.3229 12.4648 25.8576 12.4648C25.3923 12.4648 24.9461 12.6497 24.6171 12.9787M26.1454 20.5101C26.1454 23.9013 23.3963 26.6504 20.0051 26.6504C16.6139 26.6504 13.8647 23.9013 13.8647 20.5101C13.8647 17.1189 16.6139 14.3697 20.0051 14.3697C23.3963 14.3697 26.1454 17.1189 26.1454 20.5101Z" stroke="#080B2A" stroke-width="2" stroke-linecap="round" stroke-linejoin="round"/>
<defs>
<linearGradient id="paint0_linear_1983_1880" x1="8.8" y1="3.46667" x2="33.6" y2="37.3333" gradientUnits="userSpaceOnUse">
<stop stop-color="#7BD8AF"/>
<stop offset="1" stop-color="#D9FA86"/>
</linearGradient>
</defs>
</svg>
