<svg width="32" height="32" viewBox="0 0 32 32" fill="none" xmlns="http://www.w3.org/2000/svg">
<g id="coins">
<path id="Icon" d="M14.6667 26.6666H6.66667C5.19391 26.6666 4 25.4727 4 23.9999C4 22.5272 5.19391 21.3333 6.66667 21.3333M14.6667 26.6666C16.1394 26.6666 17.3333 25.4727 17.3333 23.9999C17.3333 22.5272 16.1394 21.3333 14.6667 21.3333M14.6667 26.6666H25.3333C26.8061 26.6666 28 25.4727 28 23.9999C28 22.5272 26.8061 21.3333 25.3333 21.3333M14.6667 21.3333H6.66667M14.6667 21.3333H25.3333M14.6667 21.3333C16.1394 21.3333 17.3333 20.1393 17.3333 18.6666C17.3333 17.1938 16.1394 15.9999 14.6667 15.9999M6.66667 21.3333C5.19391 21.3333 4 20.1393 4 18.6666C4 17.1938 5.19391 15.9999 6.66667 15.9999M25.3333 21.3333C26.8061 21.3333 28 20.1393 28 18.6666C28 17.1938 26.8061 15.9999 25.3333 15.9999M14.6667 15.9999H25.3333M14.6667 15.9999H6.66667M14.6667 15.9999C16.1394 15.9999 17.3333 14.806 17.3333 13.3333C17.3333 11.8605 16.1394 10.6666 14.6667 10.6666M25.3333 15.9999C26.8061 15.9999 28 14.806 28 13.3333C28 11.8605 26.8061 10.6666 25.3333 10.6666H14.6667M14.6667 10.6666H6.66667M14.6667 10.6666C16.1394 10.6666 17.3333 9.47268 17.3333 7.99992C17.3333 6.52716 16.1394 5.33325 14.6667 5.33325H6.66667C5.19391 5.33325 4 6.52716 4 7.99992C4 9.47268 5.19391 10.6666 6.66667 10.6666M6.66667 15.9999C5.19391 15.9999 4 14.806 4 13.3333C4 11.8605 5.19391 10.6666 6.66667 10.6666" stroke="#D6D8E7" stroke-width="2" stroke-linecap="round" stroke-linejoin="round"/>
</g>
</svg>
