<svg width="32" height="32" viewBox="0 0 32 32" fill="none" xmlns="http://www.w3.org/2000/svg">
<g id="file-contract">
<path id="Icon" d="M25.3327 12V23.7333C25.3327 25.2268 25.3327 25.9735 25.042 26.544C24.7864 27.0457 24.3784 27.4537 23.8767 27.7094C23.3062 28 22.5595 28 21.066 28H10.9327C9.43921 28 8.69247 28 8.12204 27.7094C7.62028 27.4537 7.21233 27.0457 6.95666 26.544C6.66602 25.9735 6.66602 25.2268 6.66602 23.7333V8.26667C6.66602 6.77319 6.66602 6.02646 6.95666 5.45603C7.21233 4.95426 7.62028 4.54631 8.12204 4.29065C8.69247 4 9.43921 4 10.9327 4H17.3327M25.3327 12L17.3327 4M25.3327 12H21.5994C20.1059 12 19.3591 12 18.7887 11.7094C18.2869 11.4537 17.879 11.0457 17.6233 10.544C17.3327 9.97354 17.3327 9.22681 17.3327 7.73333V4M10.666 8H13.3327M10.666 12H13.3327M21.3327 22.6667H18.666L17.3327 20.6667L15.9993 22.6667L13.3327 18.6667L12.666 22.6667H10.666" stroke="#D6D8E7" stroke-width="2" stroke-linecap="round" stroke-linejoin="round"/>
</g>
</svg>
