<svg width="16" height="16" viewBox="0 0 16 16" fill="none" xmlns="http://www.w3.org/2000/svg">
<g id="Group 1261161290">
<g id="Group 1261159152">
<circle id="Ellipse 1434" cx="8" cy="8" r="7.75" fill="#FF9211" stroke="#FF9211" stroke-width="0.5"/>
</g>
<g id="Group 1261159151">
<path id="Vector" fill-rule="evenodd" clip-rule="evenodd" d="M7.99104 3.77321L4.3342 5.88672V10.1137L7.99104 12.2272L11.6479 10.1137V5.88672L7.99104 3.77321ZM8.14462 2.70806C8.04957 2.65314 7.9325 2.65314 7.83745 2.70806L3.48952 5.22099C3.39448 5.27593 3.33594 5.37741 3.33594 5.48727V10.5131C3.33594 10.623 3.39448 10.7245 3.48952 10.7794L7.83745 13.2923C7.9325 13.3473 8.04957 13.3473 8.14462 13.2923L12.4926 10.7794C12.5876 10.7245 12.6461 10.623 12.6461 10.5131V5.48727C12.6461 5.37741 12.5876 5.27593 12.4926 5.22099L8.14462 2.70806Z" fill="white"/>
<path id="Vector_2" d="M7.98837 5.3044L5.65605 6.65238V9.34833L7.97302 10.6874C7.98252 10.6929 7.98837 10.7031 7.98837 10.7141V11.1756C7.98837 11.1993 7.96279 11.2141 7.9423 11.2023L5.3105 9.68121C5.23922 9.64 5.19531 9.56387 5.19531 9.48149V6.51922C5.19531 6.43683 5.23922 6.36071 5.3105 6.31953L7.87318 4.83839C7.94447 4.7972 8.03228 4.7972 8.10357 4.83839L10.7459 6.36001C10.7662 6.37172 10.7664 6.40099 10.7462 6.41295C10.5903 6.50554 10.5104 6.54672 10.336 6.64386C10.3265 6.64913 10.315 6.64907 10.3056 6.64365L7.98837 5.3044Z" fill="white"/>
<path id="Vector_3" d="M8.375 8.05695C8.375 8.04559 8.38126 8.03513 8.39129 8.0298L10.7103 6.79417C10.7308 6.78328 10.7555 6.79811 10.7555 6.82133V9.82721C10.7555 9.83819 10.7496 9.8483 10.7402 9.85381L8.42113 11.2018C8.40068 11.2137 8.375 11.1989 8.375 11.1752V8.05695Z" fill="white"/>
</g>
</g>
</svg>
