<svg width="24" height="24" viewBox="0 0 24 24" fill="none" xmlns="http://www.w3.org/2000/svg">
<g id="Group 1000002304">
<circle id="Ellipse 260" cx="12" cy="12" r="12" fill="url(#paint0_linear_275_5685)"/>
<g id="Group">
<g id="Group_2">
<g id="Group_3">
<g id="Group_4">
<path id="Vector" d="M4.60073 12.2873L9.47627 15.9266C9.484 15.9266 9.484 15.9343 9.49172 15.9343L11.2998 17.2787C11.4543 17.3946 11.6706 17.2865 11.6706 17.0933L11.6784 7.07177C11.6629 6.89405 11.6397 6.70861 11.6011 6.5309C11.5625 6.36091 11.5084 6.19865 11.4311 6.05957C11.5625 7.04086 11.0062 8.18441 10.0635 8.9339C9.85488 9.10389 9.56899 9.28933 9.25219 9.42068C8.91222 9.56749 7.88457 9.92291 7.88457 9.92291L4.78617 11.0433C4.25303 11.2365 4.14486 11.9473 4.60073 12.2873Z" fill="#F2EEFF"/>
</g>
</g>
<path id="Vector_2" d="M9.43978 9.33246C9.44751 9.32473 9.46296 9.32473 9.47069 9.317C9.48614 9.30928 9.5016 9.30155 9.52478 9.28609C9.54796 9.27837 9.56341 9.26292 9.58659 9.25519C9.59432 9.24746 9.60977 9.23973 9.6175 9.23973C9.64068 9.22428 9.67158 9.20883 9.69476 9.19337C9.70249 9.18565 9.71022 9.18565 9.71794 9.17792C9.74112 9.16247 9.7643 9.14701 9.79521 9.13156C9.81066 9.12383 9.81839 9.11611 9.83384 9.10838C9.8493 9.09293 9.87248 9.0852 9.88793 9.06975C9.91111 9.05429 9.93429 9.03111 9.9652 9.01566C9.97292 9.01566 9.97293 9.00793 9.98065 9.00793C10.0116 8.98475 10.0425 8.96157 10.0734 8.93839C11.016 8.18891 11.5723 7.04536 11.441 6.06407C11.3869 5.97135 11.3174 5.88635 11.2401 5.82454L9.63295 4.63463C9.47842 4.51873 9.25434 4.6269 9.25434 4.82007V7.62486C9.25434 9.38654 7.88672 9.91968 7.88672 9.91968C7.88672 9.91968 8.9221 9.57198 9.25434 9.42518C9.31616 9.39427 9.37797 9.36336 9.43978 9.33246Z" fill="#DBD9FF"/>
</g>
<g id="Group_5">
<g id="Group_6">
<g id="Group_7">
<path id="Vector_3" d="M19.5016 11.921L14.626 8.28172C14.6183 8.28172 14.6183 8.27399 14.6106 8.27399L12.8025 6.92955C12.648 6.81365 12.4316 6.92182 12.4316 7.11499V17.1365C12.4471 17.3142 12.4703 17.4997 12.5089 17.6774C12.5475 17.8474 12.6016 18.0096 12.6789 18.1487C12.5475 17.1674 13.1039 16.0239 14.0465 15.2744C14.2551 15.1044 14.541 14.9189 14.8578 14.7876C15.1901 14.6408 16.2254 14.2931 16.2254 14.2931L19.3238 13.1727C19.857 12.9718 19.9574 12.261 19.5016 11.921Z" fill="#F2EEFF"/>
</g>
</g>
<path id="Vector_4" d="M14.6726 14.8714C14.6649 14.8791 14.6495 14.8791 14.6417 14.8869C14.6263 14.8946 14.6108 14.9023 14.5877 14.9178C14.5645 14.9255 14.549 14.9409 14.5258 14.9487C14.5181 14.9564 14.5027 14.9641 14.4949 14.9641C14.4718 14.9796 14.4408 14.995 14.4177 15.0105C14.4099 15.0182 14.4022 15.0182 14.3945 15.0259C14.3713 15.0414 14.3481 15.0568 14.3172 15.0723C14.3018 15.08 14.294 15.0878 14.2786 15.0955C14.2631 15.1109 14.24 15.1187 14.2245 15.1341C14.2013 15.1496 14.1781 15.1727 14.1472 15.1882C14.1395 15.1882 14.1395 15.1959 14.1318 15.1959C14.1009 15.2191 14.07 15.2423 14.0391 15.2655C13.0964 16.015 12.5401 17.1585 12.6714 18.1398C12.7255 18.2325 12.7951 18.3175 12.8723 18.3793L14.4718 19.5692C14.6263 19.6851 14.8504 19.577 14.8504 19.3838V16.579C14.8504 14.825 16.218 14.2842 16.218 14.2842C16.218 14.2842 15.1826 14.6319 14.8504 14.7787C14.7963 14.8096 14.7345 14.8405 14.6726 14.8714Z" fill="#DBD9FF"/>
</g>
</g>
</g>
<defs>
<linearGradient id="paint0_linear_275_5685" x1="12" y1="0" x2="12" y2="24" gradientUnits="userSpaceOnUse">
<stop stop-color="#7770E0"/>
<stop offset="1" stop-color="#554FD8"/>
</linearGradient>
</defs>
</svg>
