<svg width="12" height="12" viewBox="0 0 12 12" fill="none" xmlns="http://www.w3.org/2000/svg">
<g id="fire-svgrepo-com (1) 1" clip-path="url(#clip0_275_5619)">
<g id="fire">
<path id="path-1" fill-rule="evenodd" clip-rule="evenodd" d="M10.395 7.75569C10.2964 10.1114 8.35622 11.9911 5.97627 11.9911C3.53321 11.9911 1.55274 9.94406 1.55274 7.56759C1.55274 7.24995 1.54704 6.61512 2.02333 5.54406C2.30836 4.90308 2.48714 4.50039 2.58803 4.1323C2.64347 3.92999 2.75128 3.60858 3.05862 4.1323C3.23984 4.4411 3.24686 4.88524 3.24686 4.88524C3.24686 4.88524 3.92111 4.36783 4.37627 3.37936C5.04351 1.93028 4.51114 1.06406 4.32921 0.461711C4.26624 0.253335 4.22671 -0.121159 4.65862 0.038182C5.09871 0.200582 6.2622 1.01503 6.87038 1.87348C7.73838 3.09865 8.04685 4.27348 8.04685 4.27348C8.04685 4.27348 8.32478 3.92853 8.42333 3.56759C8.53462 3.16002 8.53627 2.75635 8.89387 3.19117C9.23396 3.60468 9.73904 4.38176 10.0233 5.12053C10.5395 6.46213 10.395 7.75569 10.395 7.75569Z" fill="url(#paint0_linear_275_5619)"/>
<path id="path-2" fill-rule="evenodd" clip-rule="evenodd" d="M5.97679 11.9912C4.28743 11.9912 2.91797 10.6218 2.91797 8.93241C2.91797 7.91307 3.32875 7.2942 4.18366 6.45495C4.73105 5.91759 5.24338 5.25759 5.46112 4.80818C5.50399 4.71971 5.60155 4.25867 5.97769 4.79848C6.175 5.08159 6.48432 5.58507 6.68267 6.01477C7.0246 6.75561 7.1062 7.47359 7.1062 7.47359C7.1062 7.47359 7.44131 7.27613 7.67091 6.76771C7.74493 6.60385 7.89458 5.98352 8.31293 6.60375C8.6199 7.05891 9.04159 7.87726 9.03562 8.93241C9.03562 10.6218 7.66611 11.9912 5.97679 11.9912Z" fill="#FC9502"/>
<path id="path-3" fill-rule="evenodd" clip-rule="evenodd" d="M6.02236 8.6499C6.45765 8.6499 6.45765 9.45597 7.01059 10.5323C7.37878 11.2489 6.82805 11.9911 6.02236 11.9911C5.21666 11.9911 4.79883 11.3379 4.79883 10.5323C4.79883 9.72661 5.58706 8.6499 6.02236 8.6499Z" fill="#FCE202"/>
</g>
</g>
<defs>
<linearGradient id="paint0_linear_275_5619" x1="5.9829" y1="12" x2="5.9829" y2="0.00881719" gradientUnits="userSpaceOnUse">
<stop stop-color="#FF4C0D"/>
<stop offset="1" stop-color="#FC9502"/>
</linearGradient>
<clipPath id="clip0_275_5619">
<rect width="12" height="12" fill="white"/>
</clipPath>
</defs>
</svg>
