<svg width="371" height="167" viewBox="0 0 371 167" fill="none" xmlns="http://www.w3.org/2000/svg">
<g style="mix-blend-mode:overlay">
<path d="M262.915 181.834L274.021 171.317L270.47 156.446L255.809 152.085L244.703 162.601L248.259 177.479L262.915 181.834Z" stroke="white" stroke-width="0.86" stroke-miterlimit="10"/>
<path d="M318.481 66.684L344.193 42.3363L335.966 7.89266L302.028 -2.19127L276.316 22.1564L284.543 56.588L318.481 66.684Z" stroke="white" stroke-width="0.86" stroke-miterlimit="10"/>
<path d="M223.933 16.5314L239.615 1.68136L234.602 -19.3177L213.901 -25.473L198.219 -10.6229L203.238 10.3823L223.933 16.5314Z" stroke="white" stroke-width="0.86" stroke-miterlimit="10"/>
<path d="M231.175 46.835L237.773 40.5877L235.663 31.7466L226.95 29.1589L220.353 35.4062L222.462 44.2472L231.175 46.835Z" stroke="white" stroke-width="0.86" stroke-miterlimit="10"/>
<path d="M141.302 174.14L160.148 156.293L154.119 131.044L129.236 123.648L110.389 141.495L116.425 166.738L141.302 174.14Z" stroke="white" stroke-width="0.86" stroke-miterlimit="10"/>
<path d="M178.008 126.395L188.952 116.032L185.456 101.368L170.998 97.0726L160.055 107.436L163.556 122.106L178.008 126.395Z" stroke="white" stroke-width="0.86" stroke-miterlimit="10"/>
<path d="M252.063 136.409L281.935 108.122L272.37 68.1169L232.951 56.3935L203.08 84.6804L212.633 124.685L252.063 136.409Z" stroke="white" stroke-width="0.86" stroke-miterlimit="10"/>
<path d="M175.102 76.3585L203.079 84.6808" stroke="white" stroke-width="0.86" stroke-miterlimit="10"/>
<path d="M201.238 86.4238C202.2 87.4403 203.805 87.484 204.821 86.5214C205.838 85.5588 205.881 83.9545 204.919 82.938C203.956 81.9215 202.352 81.8777 201.335 82.8403C200.319 83.8029 200.275 85.4073 201.238 86.4238Z" fill="white"/>
<path d="M168.717 99.2335C169.998 100.587 172.134 100.645 173.487 99.3635C174.84 98.0822 174.898 95.9467 173.617 94.5936C172.336 93.2405 170.2 93.1824 168.847 94.4636C167.494 95.7449 167.436 97.8804 168.717 99.2335Z" fill="white"/>
<path d="M299.653 0.0584447C300.934 1.4115 303.069 1.46969 304.422 0.188419C305.775 -1.09285 305.834 -3.2284 304.552 -4.58145C303.271 -5.9345 301.136 -5.9927 299.783 -4.71142C298.429 -3.43015 298.371 -1.29461 299.653 0.0584447Z" fill="white"/>
<path d="M155.249 132.25C155.011 132.475 154.712 132.625 154.389 132.68C154.067 132.734 153.735 132.692 153.436 132.558C153.138 132.425 152.885 132.205 152.712 131.928C152.538 131.651 152.45 131.328 152.46 131.001C152.47 130.674 152.576 130.357 152.767 130.09C152.957 129.824 153.221 129.62 153.527 129.504C153.834 129.388 154.167 129.366 154.486 129.44C154.805 129.514 155.094 129.681 155.318 129.92C155.467 130.077 155.583 130.262 155.661 130.465C155.738 130.667 155.774 130.883 155.768 131.1C155.761 131.316 155.712 131.529 155.623 131.727C155.534 131.924 155.407 132.102 155.249 132.25Z" fill="white"/>
<path d="M319.52 67.9663C319.284 68.1925 318.986 68.3434 318.663 68.4C318.341 68.4565 318.009 68.4161 317.71 68.2838C317.41 68.1516 317.157 67.9334 316.982 67.6571C316.807 67.3807 316.717 67.0585 316.725 66.7313C316.734 66.4042 316.839 66.0868 317.027 65.8194C317.216 65.552 317.48 65.3466 317.785 65.2292C318.091 65.1119 318.424 65.0878 318.743 65.1602C319.062 65.2325 319.353 65.398 319.578 65.6356C319.728 65.7922 319.845 65.9768 319.923 66.1788C320.001 66.3808 320.039 66.5963 320.034 66.8129C320.028 67.0295 319.98 67.2429 319.892 67.4408C319.804 67.6387 319.678 67.8173 319.52 67.9663Z" fill="white"/>
<path d="M255.472 140.009C254.76 140.683 253.864 141.131 252.897 141.297C251.931 141.462 250.937 141.336 250.041 140.936C249.146 140.537 248.389 139.88 247.867 139.05C247.344 138.22 247.08 137.254 247.106 136.274C247.133 135.294 247.45 134.343 248.017 133.543C248.584 132.743 249.375 132.129 250.291 131.778C251.207 131.428 252.206 131.357 253.162 131.574C254.119 131.791 254.989 132.288 255.663 133C256.567 133.955 257.055 135.229 257.019 136.544C256.984 137.859 256.427 139.105 255.472 140.009Z" fill="white"/>
<path d="M201.516 12.013C202.417 12.9643 203.918 13.0052 204.87 12.1044C205.821 11.2036 205.862 9.70222 204.961 8.75096C204.06 7.7997 202.559 7.75881 201.608 8.6596C200.656 9.5604 200.615 11.0618 201.516 12.013Z" fill="white"/>
<path d="M176.049 77.3594C175.851 77.5469 175.602 77.6715 175.333 77.7174C175.064 77.7632 174.788 77.7284 174.539 77.6172C174.29 77.5061 174.08 77.3235 173.934 77.0928C173.789 76.862 173.716 76.5933 173.723 76.3207C173.73 76.0481 173.818 75.7839 173.976 75.5614C174.134 75.3388 174.354 75.168 174.608 75.0706C174.863 74.9731 175.141 74.9534 175.407 75.0139C175.673 75.0743 175.915 75.2123 176.102 75.4103C176.354 75.6758 176.489 76.0303 176.479 76.3958C176.469 76.7614 176.315 77.108 176.049 77.3594Z" fill="white"/>
<path d="M240.712 2.54124C240.515 2.73021 240.266 2.85641 239.997 2.90382C239.728 2.95124 239.451 2.91775 239.201 2.80759C238.951 2.69743 238.74 2.51556 238.593 2.28504C238.447 2.05453 238.373 1.78574 238.379 1.51277C238.386 1.2398 238.473 0.97493 238.63 0.751743C238.788 0.528556 239.008 0.357101 239.263 0.259119C239.518 0.161137 239.796 0.14104 240.062 0.201374C240.328 0.261707 240.571 0.399753 240.759 0.598014C241.009 0.862447 241.145 1.21521 241.136 1.57929C241.127 1.94337 240.975 2.28919 240.712 2.54124Z" fill="white"/>
<path d="M231.754 47.8204C231.594 47.9718 231.393 48.0724 231.176 48.1094C230.959 48.1465 230.736 48.1184 230.534 48.0286C230.333 47.9388 230.163 47.7915 230.046 47.6051C229.929 47.4188 229.87 47.2018 229.876 46.9817C229.882 46.7616 229.953 46.5482 230.08 46.3686C230.207 46.1889 230.385 46.051 230.591 45.9723C230.796 45.8936 231.021 45.8777 231.235 45.9265C231.45 45.9753 231.645 46.0867 231.797 46.2466C232 46.461 232.109 46.7472 232.101 47.0424C232.093 47.3375 231.968 47.6174 231.754 47.8204Z" fill="white"/>
<path d="M255.809 152.085L252.062 136.409" stroke="white" stroke-width="0.86" stroke-miterlimit="10"/>
<path d="M284.545 56.5884L272.37 68.1174" stroke="white" stroke-width="0.86" stroke-miterlimit="10"/>
<path d="M163.557 122.106L154.118 131.044" stroke="white" stroke-width="0.86" stroke-miterlimit="10"/>
<path d="M226.95 29.159L223.932 16.5314" stroke="white" stroke-width="0.86" stroke-miterlimit="10"/>
</g>
<g clip-path="url(#clip0_275_5373)">
<g style="mix-blend-mode:overlay" opacity="0.3">
<path d="M214.173 65.306C215.347 64.281 216.799 63.627 218.345 63.4269C219.89 63.2268 221.461 63.4895 222.857 64.1818C224.254 64.8741 225.413 65.9649 226.19 67.3163C226.967 68.6677 227.325 70.219 227.22 71.7741C227.115 73.3292 226.551 74.8182 225.6 76.053C224.649 77.2878 223.353 78.2128 221.876 78.7112C220.4 79.2095 218.808 79.2588 217.303 78.8528C215.799 78.4468 214.448 77.6037 213.422 76.4302C212.047 74.8552 211.354 72.7986 211.495 70.7127C211.636 68.6267 212.599 66.682 214.173 65.306Z" fill="#FFFFF9"/>
</g>
</g>
<g clip-path="url(#clip1_275_5373)">
<g style="mix-blend-mode:overlay" opacity="0.3">
<path d="M123.998 111.423C126.347 109.373 129.25 108.065 132.341 107.665C135.433 107.265 138.574 107.79 141.367 109.175C144.159 110.56 146.479 112.741 148.032 115.444C149.586 118.147 150.302 121.249 150.093 124.36C149.883 127.47 148.755 130.448 146.853 132.917C144.951 135.387 142.359 137.237 139.405 138.234C136.452 139.23 133.269 139.329 130.259 138.517C127.249 137.705 124.548 136.019 122.497 133.672C119.747 130.522 118.36 126.409 118.642 122.237C118.923 118.065 120.85 114.175 123.998 111.423Z" fill="#FFFFF9"/>
</g>
</g>
<g clip-path="url(#clip2_275_5373)">
<g style="mix-blend-mode:overlay" opacity="0.3">
<path d="M301.462 57.6455C305.417 54.1927 310.307 51.99 315.514 51.316C320.721 50.6419 326.01 51.5268 330.714 53.8587C335.418 56.1906 339.325 59.8649 341.941 64.4169C344.556 68.969 345.764 74.1944 345.41 79.4326C345.057 84.6709 343.158 89.6867 339.954 93.8459C336.75 98.0051 332.385 101.121 327.411 102.8C322.436 104.478 317.076 104.644 312.007 103.277C306.938 101.909 302.388 99.0694 298.933 95.1164C294.302 89.8111 291.966 82.8838 292.441 75.8574C292.915 68.8309 296.16 62.2803 301.462 57.6455Z" fill="#FFFFF9"/>
</g>
</g>
<g clip-path="url(#clip3_275_5373)">
<path d="M245.973 113.835C255.731 111.981 262.138 102.569 260.285 92.8111C258.432 83.0535 249.019 76.646 239.261 78.4995C229.504 80.3529 223.096 89.7655 224.95 99.5231C226.803 109.281 236.216 115.688 245.973 113.835Z" fill="#0052FF"/>
<path d="M245.029 108.43C251.876 107.129 256.375 100.533 255.076 93.6972C253.778 86.8614 247.174 82.3743 240.326 83.6751C233.83 84.9092 229.448 90.9095 230.124 97.359L246.513 94.246L246.908 96.3268L230.519 99.4398C232.255 105.688 238.532 109.664 245.029 108.43Z" fill="white"/>
</g>
<circle cx="310.394" cy="31.9862" r="17.9835" fill="url(#paint0_linear_275_5373)"/>
<path d="M299.276 32.0534L306.468 37.3991C306.479 37.3991 306.479 37.4105 306.491 37.4105L309.158 39.3853C309.386 39.5556 309.705 39.3967 309.705 39.1129L309.717 24.3922C309.694 24.1312 309.66 23.8588 309.603 23.5977C309.546 23.348 309.466 23.1097 309.352 22.9054C309.546 24.3468 308.725 26.0266 307.334 27.1275C307.027 27.3772 306.605 27.6496 306.138 27.8426C305.636 28.0582 304.12 28.5803 304.12 28.5803L299.549 30.226C298.763 30.5098 298.603 31.554 299.276 32.0534Z" fill="white"/>
<path d="M306.412 27.7169C306.424 27.7055 306.446 27.7055 306.458 27.6942C306.481 27.6828 306.503 27.6715 306.538 27.6488C306.572 27.6374 306.594 27.6147 306.629 27.6034C306.64 27.592 306.663 27.5807 306.674 27.5807C306.708 27.558 306.754 27.5353 306.788 27.5126C306.8 27.5012 306.811 27.5012 306.822 27.4899C306.857 27.4672 306.891 27.4445 306.936 27.4218C306.959 27.4104 306.971 27.3991 306.993 27.3877C307.016 27.365 307.05 27.3537 307.073 27.331C307.107 27.3083 307.142 27.2742 307.187 27.2515C307.199 27.2515 307.199 27.2402 307.21 27.2402C307.256 27.2061 307.301 27.1721 307.347 27.138C308.737 26.0371 309.558 24.3573 309.364 22.9159C309.284 22.7797 309.182 22.6549 309.068 22.5641L306.697 20.8162C306.469 20.6459 306.139 20.8048 306.139 21.0886V25.2086C306.139 27.7963 304.121 28.5795 304.121 28.5795C304.121 28.5795 305.648 28.0687 306.139 27.8531C306.23 27.8077 306.321 27.7623 306.412 27.7169Z" fill="#F2EEFF"/>
<path d="M321.36 31.7696L314.163 26.4239C314.152 26.4239 314.152 26.4125 314.14 26.4125L311.471 24.4376C311.243 24.2674 310.924 24.4263 310.924 24.71V39.4307C310.947 39.6918 310.981 39.9642 311.038 40.2252C311.095 40.4749 311.175 40.7133 311.289 40.9176C311.095 39.4761 311.916 37.7964 313.308 36.6954C313.616 36.4457 314.038 36.1733 314.505 35.9804C314.996 35.7647 316.524 35.254 316.524 35.254L321.097 33.6083C321.884 33.3132 322.033 32.269 321.36 31.7696Z" fill="white"/>
<path d="M314.232 36.1047C314.221 36.116 314.198 36.116 314.187 36.1274C314.164 36.1387 314.141 36.15 314.107 36.1727C314.073 36.1841 314.05 36.2068 314.015 36.2181C314.004 36.2295 313.981 36.2408 313.97 36.2408C313.936 36.2635 313.89 36.2862 313.856 36.3089C313.844 36.3203 313.833 36.3203 313.822 36.3316C313.787 36.3543 313.753 36.377 313.708 36.3997C313.685 36.4111 313.673 36.4224 313.651 36.4338C313.628 36.4565 313.593 36.4678 313.571 36.4905C313.536 36.5132 313.502 36.5473 313.457 36.57C313.445 36.57 313.445 36.5813 313.434 36.5813C313.388 36.6154 313.343 36.6494 313.297 36.6835C311.905 37.7844 311.084 39.4642 311.278 40.9056C311.358 41.0418 311.461 41.1667 311.575 41.2575L313.936 43.0053C314.164 43.1756 314.495 43.0167 314.495 42.7329V38.613C314.495 36.0366 316.513 35.2421 316.513 35.2421C316.513 35.2421 314.985 35.7528 314.495 35.9685C314.415 36.0139 314.323 36.0593 314.232 36.1047Z" fill="#F2EEFF"/>
<circle cx="218.72" cy="-5.03999" r="6.85088" fill="url(#paint1_linear_275_5373)"/>
<circle cx="135.03" cy="149.264" r="9.05715" fill="url(#paint2_linear_275_5373)"/>
<path d="M129.429 149.298L133.052 151.991C133.057 151.991 133.057 151.996 133.063 151.996L134.407 152.991C134.521 153.077 134.682 152.997 134.682 152.854L134.688 145.44C134.676 145.309 134.659 145.171 134.63 145.04C134.602 144.914 134.562 144.794 134.504 144.691C134.602 145.417 134.188 146.263 133.488 146.818C133.333 146.943 133.121 147.081 132.885 147.178C132.633 147.286 131.869 147.549 131.869 147.549L129.567 148.378C129.171 148.521 129.091 149.047 129.429 149.298Z" fill="white"/>
<path d="M133.023 147.115C133.029 147.109 133.04 147.109 133.046 147.104C133.057 147.098 133.069 147.092 133.086 147.081C133.103 147.075 133.115 147.064 133.132 147.058C133.138 147.052 133.149 147.046 133.155 147.046C133.172 147.035 133.195 147.024 133.212 147.012C133.218 147.006 133.224 147.006 133.23 147.001C133.247 146.989 133.264 146.978 133.287 146.966C133.299 146.961 133.304 146.955 133.316 146.949C133.327 146.938 133.344 146.932 133.356 146.921C133.373 146.909 133.39 146.892 133.413 146.881C133.419 146.881 133.419 146.875 133.425 146.875C133.448 146.858 133.471 146.841 133.494 146.823C134.194 146.269 134.607 145.423 134.51 144.697C134.47 144.628 134.418 144.566 134.361 144.52L133.166 143.64C133.052 143.554 132.885 143.634 132.885 143.777V145.852C132.885 147.155 131.869 147.549 131.869 147.549C131.869 147.549 132.638 147.292 132.885 147.184C132.931 147.161 132.977 147.138 133.023 147.115Z" fill="#F2EEFF"/>
<path d="M140.551 149.155L136.926 146.463C136.921 146.463 136.921 146.457 136.915 146.457L135.571 145.463C135.456 145.377 135.295 145.457 135.295 145.6V153.014C135.306 153.145 135.324 153.282 135.352 153.414C135.381 153.54 135.421 153.66 135.479 153.763C135.381 153.037 135.795 152.191 136.495 151.636C136.651 151.51 136.863 151.373 137.099 151.276C137.346 151.168 138.115 150.91 138.115 150.91L140.419 150.081C140.815 149.933 140.89 149.407 140.551 149.155Z" fill="white"/>
<path d="M136.961 151.339C136.955 151.344 136.944 151.344 136.938 151.35C136.926 151.356 136.915 151.362 136.898 151.373C136.88 151.379 136.869 151.39 136.852 151.396C136.846 151.402 136.835 151.407 136.829 151.407C136.812 151.419 136.789 151.43 136.771 151.442C136.766 151.447 136.76 151.447 136.754 151.453C136.737 151.464 136.72 151.476 136.697 151.487C136.685 151.493 136.679 151.499 136.668 151.504C136.656 151.516 136.639 151.522 136.628 151.533C136.611 151.545 136.593 151.562 136.57 151.573C136.565 151.573 136.565 151.579 136.559 151.579C136.536 151.596 136.513 151.613 136.49 151.63C135.789 152.185 135.376 153.031 135.473 153.757C135.513 153.825 135.565 153.888 135.623 153.934L136.812 154.814C136.926 154.9 137.093 154.82 137.093 154.677V152.602C137.093 151.304 138.11 150.904 138.11 150.904C138.11 150.904 137.34 151.162 137.093 151.27C137.053 151.293 137.007 151.316 136.961 151.339Z" fill="#F2EEFF"/>
<rect x="223.912" y="33.1132" width="10.2763" height="10.2763" rx="5.13816" fill="url(#paint3_linear_275_5373)"/>
<path d="M229.123 35.1681L229.082 35.3036V39.2349L229.123 39.2747L230.994 38.196L229.123 35.1681Z" fill="#C1CCF8"/>
<path d="M229.123 35.1681L227.252 38.196L229.123 39.2747V37.3666V35.1681Z" fill="white"/>
<path d="M229.125 39.6205L229.102 39.6479V41.0483L229.125 41.1139L230.997 38.5424L229.125 39.6205Z" fill="#C1CCF8"/>
<path d="M229.123 41.1139V39.6205L227.252 38.5424L229.123 41.1139Z" fill="white"/>
<path d="M229.123 39.2747L230.994 38.1961L229.123 37.3666V39.2747Z" fill="#8197EE"/>
<path d="M227.252 38.1961L229.123 39.2747V37.3666L227.252 38.1961Z" fill="#C1CCF8"/>
<rect x="252.6" y="160.65" width="13.7018" height="13.7018" rx="6.85088" fill="url(#paint4_linear_275_5373)"/>
<path d="M259.549 163.39L259.494 163.571V168.812L259.549 168.865L262.043 167.427L259.549 163.39Z" fill="#C1CCF8"/>
<path d="M259.547 163.39L257.053 167.427L259.547 168.865V166.321V163.39Z" fill="white"/>
<path d="M259.547 168.866L262.041 167.428L259.547 166.322V168.866Z" fill="#8197EE"/>
<path d="M257.053 167.428L259.547 168.866V166.322L257.053 167.428Z" fill="#C1CCF8"/>
<rect x="167.875" y="104.952" width="13.7018" height="13.7018" rx="6.85088" fill="url(#paint5_linear_275_5373)"/>
<path d="M174.824 107.692L174.77 107.872V113.114L174.824 113.167L177.319 111.729L174.824 107.692Z" fill="#C1CCF8"/>
<path d="M174.823 107.692L172.328 111.729L174.823 113.167V110.623L174.823 107.692Z" fill="white"/>
<path d="M174.824 113.628L174.793 113.664V115.532L174.824 115.619L177.32 112.19L174.824 113.628Z" fill="#C1CCF8"/>
<path d="M174.823 115.619L174.823 113.628L172.328 112.19L174.823 115.619Z" fill="white"/>
<path d="M174.822 113.168L177.317 111.729L174.822 110.623V113.168Z" fill="#8197EE"/>
<path d="M172.328 111.729L174.823 113.168L174.823 110.623L172.328 111.729Z" fill="#C1CCF8"/>
<defs>
<linearGradient id="paint0_linear_275_5373" x1="310.394" y1="14.0027" x2="310.394" y2="49.9698" gradientUnits="userSpaceOnUse">
<stop stop-color="#7770E0"/>
<stop offset="1" stop-color="#554FD8"/>
</linearGradient>
<linearGradient id="paint1_linear_275_5373" x1="218.72" y1="-11.8909" x2="218.72" y2="1.81088" gradientUnits="userSpaceOnUse">
<stop stop-color="#7770E0"/>
<stop offset="1" stop-color="#554FD8"/>
</linearGradient>
<linearGradient id="paint2_linear_275_5373" x1="135.03" y1="140.207" x2="135.03" y2="158.322" gradientUnits="userSpaceOnUse">
<stop stop-color="#7770E0"/>
<stop offset="1" stop-color="#554FD8"/>
</linearGradient>
<linearGradient id="paint3_linear_275_5373" x1="234.188" y1="43.3895" x2="223.912" y2="33.1132" gradientUnits="userSpaceOnUse">
<stop stop-color="#556ECC"/>
<stop offset="1" stop-color="#627EEA"/>
</linearGradient>
<linearGradient id="paint4_linear_275_5373" x1="266.301" y1="174.352" x2="252.6" y2="160.65" gradientUnits="userSpaceOnUse">
<stop stop-color="#556ECC"/>
<stop offset="1" stop-color="#627EEA"/>
</linearGradient>
<linearGradient id="paint5_linear_275_5373" x1="181.577" y1="118.654" x2="167.875" y2="104.952" gradientUnits="userSpaceOnUse">
<stop stop-color="#556ECC"/>
<stop offset="1" stop-color="#627EEA"/>
</linearGradient>
<clipPath id="clip0_275_5373">
<rect width="15.7632" height="15.7599" fill="white" transform="translate(219.662 60.1083) rotate(46.5609)"/>
</clipPath>
<clipPath id="clip1_275_5373">
<rect width="31.5264" height="31.5199" fill="white" transform="translate(134.977 101.028) rotate(46.5609)"/>
</clipPath>
<clipPath id="clip2_275_5373">
<rect width="53.097" height="53.0861" fill="white" transform="translate(319.951 40.1375) rotate(46.5609)"/>
</clipPath>
<clipPath id="clip3_275_5373">
<rect width="35.9671" height="35.9671" fill="white" transform="translate(221.594 81.8555) rotate(-10.7553)"/>
</clipPath>
</defs>
</svg>
