<svg width="32" height="32" viewBox="0 0 32 32" fill="none" xmlns="http://www.w3.org/2000/svg">
<g id="money-insert">
<path id="Icon" d="M16 28L16 20M16 28L19.3333 24.6667M16 28L12.6667 24.6667M24.2356 19.9995C23.6823 19.5109 23.3333 18.7962 23.3333 18C23.3333 16.5272 24.5272 15.3333 26 15.3333C26.7962 15.3333 27.5109 15.6823 27.9995 16.2356M24.2356 19.9995C24.0781 20 23.911 20 23.7333 20L21.3333 20M24.2356 19.9995C25.402 19.9959 26.0414 19.9654 26.544 19.7094C27.0457 19.4537 27.4537 19.0457 27.7094 18.544C27.9654 18.0414 27.9959 17.402 27.9995 16.2356M27.9995 16.2356C28 16.0781 28 15.911 28 15.7333L28 8.26667C28 8.08901 28 7.92192 27.9995 7.76444M27.9995 7.76444C27.5109 8.31773 26.7962 8.66667 26 8.66667C24.5272 8.66667 23.3333 7.47276 23.3333 6C23.3333 5.2038 23.6823 4.4891 24.2356 4.00049M27.9995 7.76444C27.9959 6.59803 27.9654 5.9586 27.7094 5.45602C27.4537 4.95426 27.0457 4.54631 26.544 4.29065C26.0414 4.03457 25.402 4.00411 24.2356 4.00049M24.2356 4.00049C24.0781 4 23.911 4 23.7333 4L8.26667 4C8.08901 4 7.92192 4 7.76444 4.00049M4 7.76388C4.48863 8.31749 5.20354 8.66666 6 8.66666C7.47276 8.66666 8.66667 7.47276 8.66667 6C8.66667 5.2038 8.31773 4.4891 7.76444 4.00049M4 7.76388C3.99951 7.92153 4 8.0888 4 8.26666L4 15.7333C4 15.911 4 16.0781 4.00049 16.2356M4 7.76388C4.00363 6.59783 4.03462 5.95852 4.29065 5.45602C4.54631 4.95426 4.95426 4.54631 5.45603 4.29065C5.9586 4.03457 6.59803 4.00411 7.76444 4.00049M4.00049 16.2356C4.48911 15.6823 5.2038 15.3333 6 15.3333C7.47276 15.3333 8.66667 16.5272 8.66667 18C8.66667 18.7962 8.31773 19.5109 7.76444 19.9995M4.00049 16.2356C4.00411 17.402 4.03457 18.0414 4.29065 18.544C4.54631 19.0457 4.95426 19.4537 5.45602 19.7093C5.9586 19.9654 6.59803 19.9959 7.76444 19.9995M7.76444 19.9995C7.92192 20 8.08901 20 8.26667 20L10.6667 20M13.3333 12C13.3333 10.5272 14.5272 9.33333 16 9.33333C17.4728 9.33333 18.6667 10.5272 18.6667 12C18.6667 13.4728 17.4728 14.6667 16 14.6667C14.5272 14.6667 13.3333 13.4728 13.3333 12Z" stroke="#D6D8E7" stroke-width="2" stroke-linecap="round" stroke-linejoin="round"/>
</g>
</svg>
