<svg width="16" height="16" viewBox="0 0 16 16" fill="none" xmlns="http://www.w3.org/2000/svg">
<g id="bnb-bnb-logo 1" clip-path="url(#clip0_1989_7380)">
<g id="Group">
<path id="Vector" fill-rule="evenodd" clip-rule="evenodd" d="M8 0C12.4186 0 16 3.58141 16 8C16 12.4186 12.4186 16 8 16C3.58141 16 0 12.4186 0 8C0 3.58141 3.58141 0 8 0Z" fill="#F0B90B"/>
<path id="Vector_2" d="M4.39836 7.99996L4.40413 10.1153L6.20156 11.173V12.4115L3.3522 10.7403V7.38137L4.39836 7.99996ZM4.39836 5.88458V7.11727L3.35156 6.49804V5.26535L4.39836 4.64612L5.45028 5.26535L4.39836 5.88458ZM6.9522 5.26535L7.999 4.64612L9.05092 5.26535L7.999 5.88458L6.9522 5.26535Z" fill="white"/>
<path id="Vector_3" d="M5.15625 9.67689V8.43843L6.20304 9.05766V10.2903L5.15625 9.67689ZM6.95369 11.6166L8.00048 12.2359L9.0524 11.6166V12.8493L8.00048 13.4686L6.95369 12.8493V11.6166ZM10.5537 5.26535L11.6005 4.64612L12.6524 5.26535V6.49804L11.6005 7.11727V5.88458L10.5537 5.26535ZM11.6005 10.1153L11.6062 7.99996L12.653 7.38073V10.7397L9.80369 12.4109V11.1724L11.6005 10.1153Z" fill="white"/>
<path id="Vector_4" d="M10.8437 9.67694L9.79688 10.2904V9.05771L10.8437 8.43848V9.67694Z" fill="white"/>
<path id="Vector_5" d="M10.8498 6.32304L10.8556 7.5615L9.05304 8.61919V10.7397L8.00625 11.3532L6.95945 10.7397V8.61919L5.15689 7.5615V6.32304L6.20817 5.70381L7.99984 6.76663L9.8024 5.70381L10.8543 6.32304H10.8498ZM5.15625 4.2083L8.00048 2.53137L10.8498 4.2083L9.80304 4.82753L8.00048 3.76471L6.20304 4.82753L5.15625 4.2083Z" fill="white"/>
</g>
</g>
<defs>
<clipPath id="clip0_1989_7380">
<rect width="16" height="16" fill="white"/>
</clipPath>
</defs>
</svg>
