<svg width="16" height="16" viewBox="0 0 16 16" fill="none" xmlns="http://www.w3.org/2000/svg">
<g id="skale logo 1" clip-path="url(#clip0_1989_7358)">
<g id="Clip path group">
<mask id="mask0_1989_7358" style="mask-type:luminance" maskUnits="userSpaceOnUse" x="0" y="0" width="16" height="16">
<g id="clip0_185_39">
<path id="Vector" d="M16 0H0V16H16V0Z" fill="white"/>
</g>
</mask>
<g mask="url(#mask0_1989_7358)">
<g id="Group">
<path id="Vector_2" d="M8 16C12.4182 16 16 12.4182 16 8C16 3.58172 12.4182 0 8 0C3.58172 0 0 3.58172 0 8C0 12.4182 3.58172 16 8 16Z" fill="black"/>
<path id="Vector_3" d="M10.5117 9.10616C10.5477 9.36648 10.6187 9.56096 10.7244 9.68984C10.9177 9.92448 11.2488 10.0418 11.718 10.0418C11.999 10.0418 12.2271 10.0109 12.4024 9.94904C12.7348 9.8304 12.9011 9.61 12.9011 9.28784C12.9011 9.0996 12.8186 8.954 12.6537 8.85088C12.4887 8.7504 12.2297 8.66152 11.8764 8.58416L11.2733 8.44888C10.6804 8.31472 10.2707 8.16912 10.0438 8.01184C9.6598 7.749 9.46772 7.33787 9.46772 6.7785C9.46772 6.26813 9.65332 5.84413 10.0244 5.5065C10.3957 5.16887 10.9408 5 11.66 5C12.2606 5 12.7728 5.15913 13.1968 5.4775C13.6209 5.79587 13.8432 6.25787 13.8638 6.86362H12.7193C12.6987 6.52075 12.5492 6.27725 12.2708 6.13287C12.0853 6.0375 11.8546 5.98975 11.5788 5.98975C11.2721 5.98975 11.0272 6.05162 10.8442 6.17538C10.6612 6.29913 10.5697 6.47175 10.5697 6.6935C10.5697 6.89713 10.6598 7.04925 10.8404 7.14975C10.9564 7.21675 11.2037 7.29538 11.5827 7.38562L12.5647 7.62138C12.9952 7.7245 13.32 7.86238 13.5391 8.03512C13.8793 8.30328 14.0495 8.69112 14.0495 9.19888C14.0495 9.7196 13.8504 10.152 13.4521 10.4962C13.0538 10.8402 12.4913 11.0122 11.7644 11.0122C11.0221 11.0122 10.4382 10.8427 10.0129 10.5038C9.58756 10.1649 9.375 9.69896 9.375 9.10616H10.5117Z" fill="white"/>
<path id="Vector_4" fill-rule="evenodd" clip-rule="evenodd" d="M3.5 3.25V12.75H11.75V11.875H4.5V4.125H11.75V3.25H3.5Z" fill="white"/>
</g>
</g>
</g>
</g>
<defs>
<clipPath id="clip0_1989_7358">
<rect width="16" height="16" fill="white"/>
</clipPath>
</defs>
</svg>
