<svg width="32" height="32" viewBox="0 0 32 32" fill="none" xmlns="http://www.w3.org/2000/svg">
<g id="star">
<path id="Icon" d="M15.0248 5.88161C15.3335 5.18911 15.4879 4.84286 15.7028 4.73622C15.8895 4.64359 16.1087 4.64359 16.2954 4.73622C16.5103 4.84286 16.6647 5.18911 16.9734 5.88162L19.4321 11.3975C19.5233 11.6022 19.569 11.7046 19.6396 11.783C19.702 11.8524 19.7784 11.9078 19.8636 11.9458C19.96 11.9887 20.0715 12.0005 20.2944 12.024L26.3001 12.6579C27.0541 12.7375 27.4311 12.7773 27.5989 12.9487C27.7447 13.0976 27.8125 13.3062 27.7821 13.5123C27.7471 13.7497 27.4654 14.0035 26.9022 14.511L22.4161 18.5539C22.2496 18.704 22.1663 18.779 22.1136 18.8704C22.0669 18.9512 22.0378 19.041 22.028 19.1338C22.0169 19.2387 22.0402 19.3484 22.0867 19.5676L23.3397 25.4753C23.497 26.217 23.5757 26.5878 23.4645 26.8004C23.3679 26.9851 23.1905 27.114 22.985 27.1488C22.7485 27.1888 22.4201 26.9994 21.7633 26.6206L16.532 23.6033C16.3379 23.4913 16.2408 23.4354 16.1376 23.4134C16.0463 23.394 15.9519 23.394 15.8606 23.4134C15.7574 23.4354 15.6603 23.4913 15.4662 23.6033L10.2348 26.6206C9.57807 26.9994 9.24969 27.1888 9.01314 27.1488C8.80766 27.114 8.63027 26.9851 8.53368 26.8004C8.42249 26.5878 8.50115 26.217 8.65846 25.4753L9.91149 19.5676C9.95799 19.3484 9.98125 19.2387 9.9702 19.1338C9.96043 19.041 9.93127 18.9512 9.88461 18.8704C9.83187 18.779 9.74862 18.704 9.58212 18.5539L5.09596 14.511C4.53274 14.0035 4.25113 13.7497 4.21613 13.5123C4.18572 13.3062 4.25347 13.0976 4.39926 12.9487C4.56709 12.7773 4.94409 12.7375 5.69809 12.6579L11.7038 12.024C11.9267 12.0005 12.0382 11.9887 12.1345 11.9458C12.2198 11.9078 12.2962 11.8524 12.3586 11.783C12.4292 11.7046 12.4749 11.6022 12.5661 11.3975L15.0248 5.88161Z" stroke="#D6D8E7" stroke-width="2" stroke-linecap="round" stroke-linejoin="round"/>
</g>
</svg>
