<svg width="16" height="16" viewBox="0 0 16 16" fill="none" xmlns="http://www.w3.org/2000/svg">
<g id="Tko_512x512 1" clip-path="url(#clip0_1989_7346)">
<g id="Clip path group">
<mask id="mask0_1989_7346" style="mask-type:luminance" maskUnits="userSpaceOnUse" x="0" y="0" width="16" height="16">
<g id="clip0_132_10">
<path id="Vector" d="M16 0H0V16H16V0Z" fill="white"/>
</g>
</mask>
<g mask="url(#mask0_1989_7346)">
<g id="Group">
<path id="Vector_2" d="M8 16C12.4183 16 16 12.4183 16 8C16 3.58172 12.4183 0 8 0C3.58172 0 0 3.58172 0 8C0 12.4183 3.58172 16 8 16Z" fill="#E81899"/>
<path id="Vector_3" d="M12.5504 10.065L10.9225 7.89744C10.7457 7.66187 10.4838 7.52078 10.2049 7.48969C10.1414 7.48247 10.0847 7.44634 10.053 7.3919C10.0207 7.33747 10.0173 7.27137 10.0428 7.21359C10.1545 6.96141 10.1612 6.66862 10.0411 6.40087L8.93978 3.93553C8.77653 3.56947 8.40753 3.33337 8 3.33337C7.59247 3.33337 7.22347 3.57 7.06022 3.93553L5.9589 6.40087C5.83931 6.66862 5.84553 6.96141 5.95719 7.21359C5.98272 7.27137 5.97875 7.33747 5.947 7.3919C5.91469 7.44634 5.85856 7.48247 5.79509 7.48969C5.51622 7.52078 5.25434 7.66187 5.0775 7.89744L3.44962 10.065C3.20815 10.3867 3.18378 10.8177 3.38725 11.1638C3.59131 11.5093 3.98469 11.7043 4.3894 11.6604L7.11859 11.3627C7.41503 11.3305 7.67069 11.1788 7.83731 10.9577C7.87531 10.9072 7.93594 10.8772 8 10.8772C8.06406 10.8772 8.12412 10.9072 8.16269 10.9577C8.32931 11.1788 8.58494 11.3305 8.8814 11.3627L11.6106 11.6604C12.0153 11.7049 12.4087 11.5099 12.6127 11.1638C12.8162 10.8177 12.7918 10.3867 12.5504 10.065ZM6.67081 6.71031L7.77384 4.24219C7.81353 4.15384 7.9025 4.09662 8.00056 4.09662C8.09862 4.09662 8.18762 4.15384 8.22728 4.24219L9.33031 6.71031C9.36487 6.78806 9.35753 6.87806 9.3099 6.94916C9.26228 7.02028 9.18181 7.06306 9.09453 7.06306H6.90606C6.81931 7.06306 6.73828 7.02028 6.69065 6.94916C6.64303 6.87806 6.63569 6.78806 6.67025 6.71031H6.67081ZM7.23706 10.4677C7.19797 10.5439 7.122 10.595 7.03584 10.6044L4.30381 10.9022C4.20631 10.9127 4.11109 10.8661 4.06178 10.7827C4.01247 10.6994 4.01869 10.5955 4.07706 10.5177L5.70666 8.34794C5.75825 8.27962 5.841 8.24072 5.92772 8.24572C6.01444 8.25019 6.09265 8.29737 6.13631 8.37128L6.138 8.37406L7.22912 10.2261L7.23084 10.2289C7.27447 10.3028 7.27675 10.3928 7.23762 10.4683L7.23706 10.4677ZM8.22447 9.63006C8.17797 9.70837 8.09297 9.75728 8 9.75728C7.90762 9.75728 7.82203 9.70894 7.77553 9.63062L6.93722 8.20794C6.89075 8.12962 6.89075 8.03241 6.93722 7.95409C6.98369 7.87575 7.06872 7.82687 7.16169 7.82687H8.83775C8.93016 7.82687 9.01572 7.87466 9.06222 7.95353C9.10869 8.03241 9.10869 8.12906 9.06222 8.20741L8.22447 9.63006ZM11.9388 10.7827C11.8895 10.8661 11.7948 10.9133 11.6967 10.9027L8.96472 10.605C8.87856 10.5955 8.80262 10.5444 8.7635 10.4683C8.72437 10.3922 8.72665 10.3022 8.77031 10.2289L8.772 10.2261L9.86312 8.37406L9.86481 8.37128C9.90847 8.29737 9.98669 8.25019 10.0734 8.24572C10.1601 8.24128 10.2429 8.27962 10.2945 8.34794L11.9241 10.5177C11.9824 10.5955 11.9881 10.6994 11.9393 10.7827H11.9388Z" fill="#FAFAFA"/>
</g>
</g>
</g>
</g>
<defs>
<clipPath id="clip0_1989_7346">
<rect width="16" height="16" fill="white"/>
</clipPath>
</defs>
</svg>
