<svg width="16" height="16" viewBox="0 0 16 16" fill="none" xmlns="http://www.w3.org/2000/svg">
<g id="Group 1261161291">
<g id="Group 1261159142">
<circle id="Ellipse 1434" cx="8" cy="8" r="7.75" fill="#F8F6D7" stroke="#F8F6D7" stroke-width="0.5"/>
</g>
<g id="Group">
<path id="Vector" d="M11.9207 4V7.46134C10.655 7.78752 9.32749 7.96036 7.96036 7.96036C6.59324 7.96036 5.26576 7.78687 4 7.46134V4C5.26576 4.32554 6.59324 4.49903 7.96036 4.49903C9.32749 4.49903 10.655 4.32619 11.9207 4Z" fill="#1E1E1E"/>
<path id="Vector_2" d="M4 12.0002V8.53882C5.26576 8.21263 6.59324 8.03979 7.96036 8.03979C9.32749 8.03979 10.655 8.21328 11.9207 8.53882V12.0002C10.655 11.6746 9.32749 11.5011 7.96036 11.5011C6.59324 11.5011 5.26576 11.674 4 12.0002Z" fill="#1E1E1E"/>
</g>
</g>
</svg>
