<svg width="56" height="56" viewBox="0 0 56 56" fill="none" xmlns="http://www.w3.org/2000/svg">
<path d="M0 8C0 3.58172 3.58172 0 8 0H48C52.4183 0 56 3.58172 56 8V48C56 52.4183 52.4183 56 48 56H8C3.58172 56 0 52.4183 0 48V8Z" fill="url(#paint0_linear_163_897)"/>
<path d="M26.3333 41.3333H16.3333C14.4924 41.3333 13 39.8409 13 38C13 36.159 14.4924 34.6666 16.3333 34.6666M26.3333 41.3333C28.1743 41.3333 29.6667 39.8409 29.6667 38C29.6667 36.159 28.1743 34.6666 26.3333 34.6666M26.3333 41.3333H39.6667C41.5076 41.3333 43 39.8409 43 38C43 36.159 41.5076 34.6666 39.6667 34.6666M26.3333 34.6666H16.3333M26.3333 34.6666H39.6667M26.3333 34.6666C28.1743 34.6666 29.6667 33.1742 29.6667 31.3333C29.6667 29.4923 28.1743 28 26.3333 28M16.3333 34.6666C14.4924 34.6666 13 33.1742 13 31.3333C13 29.4923 14.4924 28 16.3333 28M39.6667 34.6666C41.5076 34.6666 43 33.1742 43 31.3333C43 29.4923 41.5076 28 39.6667 28M26.3333 28H39.6667M26.3333 28H16.3333M26.3333 28C28.1743 28 29.6667 26.5076 29.6667 24.6666C29.6667 22.8257 28.1743 21.3333 26.3333 21.3333M39.6667 28C41.5076 28 43 26.5076 43 24.6666C43 22.8257 41.5076 21.3333 39.6667 21.3333H26.3333M26.3333 21.3333H16.3333M26.3333 21.3333C28.1743 21.3333 29.6667 19.8409 29.6667 18C29.6667 16.159 28.1743 14.6666 26.3333 14.6666H16.3333C14.4924 14.6666 13 16.159 13 18C13 19.8409 14.4924 21.3333 16.3333 21.3333M16.3333 28C14.4924 28 13 26.5076 13 24.6666C13 22.8257 14.4924 21.3333 16.3333 21.3333" stroke="#F7F7FC" stroke-width="2" stroke-linecap="round" stroke-linejoin="round"/>
<defs>
<linearGradient id="paint0_linear_163_897" x1="1.49732e-06" y1="52" x2="56" y2="-1.56947e-06" gradientUnits="userSpaceOnUse">
<stop stop-color="#9610FF"/>
<stop offset="1" stop-color="#B14DFF" stop-opacity="0"/>
</linearGradient>
</defs>
</svg>
