<svg width="56" height="56" viewBox="0 0 56 56" fill="none" xmlns="http://www.w3.org/2000/svg">
<path d="M0 8C0 3.58172 3.58172 0 8 0H48C52.4183 0 56 3.58172 56 8V48C56 52.4183 52.4183 56 48 56H8C3.58172 56 0 52.4183 0 48V8Z" fill="url(#paint0_linear_163_885)"/>
<path d="M33 34.6667C32.5273 32.7648 30.4683 31.3333 28 31.3333C25.5317 31.3333 23.4727 32.7648 23 34.6667M26.3333 13H29.6667M28 24.6667H28.0167M21.3333 16.3333H18.3333C16.4665 16.3333 15.5331 16.3333 14.82 16.6966C14.1928 17.0162 13.6829 17.5262 13.3633 18.1534C13 18.8664 13 19.7998 13 21.6667V36C13 37.8668 13 38.8003 13.3633 39.5133C13.6829 40.1405 14.1928 40.6504 14.82 40.97C15.5331 41.3333 16.4665 41.3333 18.3333 41.3333H37.6667C39.5335 41.3333 40.4669 41.3333 41.18 40.97C41.8072 40.6504 42.3171 40.1405 42.6367 39.5133C43 38.8003 43 37.8668 43 36V21.6667C43 19.7998 43 18.8664 42.6367 18.1534C42.3171 17.5262 41.8072 17.0162 41.18 16.6966C40.4669 16.3333 39.5335 16.3333 37.6667 16.3333H34.6667M29.6667 24.6667C29.6667 25.5871 28.9205 26.3333 28 26.3333C27.0795 26.3333 26.3333 25.5871 26.3333 24.6667C26.3333 23.7462 27.0795 23 28 23C28.9205 23 29.6667 23.7462 29.6667 24.6667Z" stroke="#F7F7FC" stroke-width="2" stroke-linecap="round" stroke-linejoin="round"/>
<defs>
<linearGradient id="paint0_linear_163_885" x1="1.49732e-06" y1="52" x2="56" y2="-1.56947e-06" gradientUnits="userSpaceOnUse">
<stop stop-color="#9610FF"/>
<stop offset="1" stop-color="#B14DFF" stop-opacity="0"/>
</linearGradient>
</defs>
</svg>
