<svg width="15" height="10" viewBox="0 0 15 10" fill="none" xmlns="http://www.w3.org/2000/svg">
<g id="Layer 22">
<path id="Vector" d="M13.0638 4.19786L13.0303 0H9.96624L7.13651 3.38906L5.25002 1.62803L3.96996 3.09861L2.5551 1.44038L0.0434985 3.69029L1.70927 5.5358L0 7.33637L2.2722 9.6499L3.79885 7.97047L5.24212 9.6402L7.83028 7.51179L7.77348 7.44888H9.52301V9.63193H13.0379V7.4151H14.2554V4.19786H13.0638Z" fill="#6D390C"/>
<path id="Vector_2" d="M13.3025 5.15294V6.47182H12.0846V8.68866H10.467V6.50562H6.75333L6.74219 5.34382L10.4066 0.955078H12.0846L12.1184 5.15294H13.3025ZM9.09922 5.25395L10.5806 5.26545L10.6482 3.30096L9.09922 5.25395Z" fill="#B26510"/>
<path id="Vector_3" d="M12.8498 9.44936H9.71457V7.26596H6.00558L5.98438 5.0732L10.0557 0.197388H12.8423L12.8761 4.39525H14.0663V7.23288H12.8498V9.44936ZM11.2322 7.93025H11.3297V5.71377H11.3678L11.3606 4.81007L11.3185 6.03226H11.2322V7.93025ZM7.50959 5.74721H7.74541L10.9425 1.71578H10.7649L7.50708 5.61708L7.50959 5.74721Z" fill="#B26510"/>
<path id="Vector_4" d="M13.3025 5.12059V6.43912H12.0846V8.65595H10.467V6.47291H6.75333L6.74219 5.31111L10.4066 0.922729H12.0846L12.1184 5.12059H13.3025ZM9.09922 5.2216L10.5806 5.23275L10.6482 3.26861L9.09922 5.2216Z" fill="url(#paint0_linear_700_147)"/>
<g id="Vector_5" style="mix-blend-mode:overlay">
<path d="M12.1562 5.10767L12.1598 5.55089H13.3062V5.10767H12.1562Z" fill="white"/>
</g>
<g id="Vector_6" style="mix-blend-mode:overlay">
<path d="M10.6926 3.71008L10.6368 3.78018L10.5872 5.23135L9.09904 5.22308L8.75 5.66307L10.625 5.67421L10.6926 3.71008Z" fill="white"/>
</g>
<g id="Vector_7" style="mix-blend-mode:overlay">
<path d="M10.5069 6.47583H10.4688V8.64342H10.5069V6.47583Z" fill="white"/>
</g>
<g id="Vector_8" style="mix-blend-mode:overlay">
<path d="M6.78712 6.46033L6.78029 5.74175L10.4447 1.35302H12.0885L12.085 0.90979H10.407L6.74219 5.29853L6.75333 6.46033H6.78712Z" fill="white"/>
</g>
<g id="Vector_9" style="mix-blend-mode:overlay" opacity="0.22">
<path d="M6.00558 7.26623L6.75759 6.50667L6.74644 5.2985L5.98438 5.07275L6.00558 7.26623Z" fill="#FCFACC"/>
</g>
<g id="Vector_10" style="mix-blend-mode:overlay" opacity="0.6">
<path d="M12.8413 0.197021H10.0547L10.4152 0.956217L12.0878 0.922784L12.8413 0.197021Z" fill="#FCFACC"/>
</g>
<g id="Vector_11" style="mix-blend-mode:overlay" opacity="0.44">
<path d="M5.98438 5.07284L6.74644 5.29858L10.4112 0.956217H10.4166L10.0561 0.197021L5.98438 5.07284Z" fill="#FCFACC"/>
</g>
<path id="Vector_12" opacity="0.46" d="M6.75982 6.47583L6.00781 7.2663H9.71572L10.513 6.47583H6.75982Z" fill="#6D390C"/>
<path id="Vector_13" d="M9.71094 9.44935H12.8459L12.0867 8.65601H10.4701L9.71094 9.44935Z" fill="#6D390C"/>
<path id="Vector_14" opacity="0.46" d="M12.0859 6.43909L12.8451 7.23243H14.063L13.3038 6.43909H12.0859Z" fill="#6D390C"/>
<g id="Vector_15" style="mix-blend-mode:overlay" opacity="0.44">
<path d="M14.0686 4.3949L13.3094 5.10772H12.125L12.8784 4.3949H14.0686Z" fill="#FCFACC"/>
</g>
<path id="Vector_16" opacity="0.46" d="M12.0859 6.4729L12.8451 7.23246V9.44929L12.0859 8.65595V6.4729Z" fill="#6D390C"/>
<g id="Vector_17" style="mix-blend-mode:overlay" opacity="0.34">
<path d="M9.36639 5.22488H9.0932L10.6421 3.2719L10.5947 4.66124C10.6342 4.64949 10.6741 4.63751 10.7144 4.62529C11.1678 4.49947 11.6369 4.43978 12.1073 4.44807L12.0789 0.925293H10.4009L6.73438 5.31367L6.74552 6.47547H8.09172C8.42416 5.97379 8.85847 5.54769 9.36639 5.22488Z" fill="white"/>
</g>
<path id="Vector_18" d="M5.35569 8.32561L3.81789 6.5466L2.2463 8.27528L1.32031 7.3324L3.00406 5.55879L1.38645 3.76864L2.46486 2.80347L3.96312 4.55982L5.32119 2.99973L6.07894 3.70681L4.61483 5.36863L6.46142 7.41759L5.35569 8.32561Z" fill="#B26510"/>
<path id="Vector_19" d="M5.26618 9.38284L3.80422 7.69154L2.26858 9.38068L0.265625 7.34142L1.96986 5.54588L0.313792 3.71188L2.5389 1.71863L3.97029 3.39662L5.26582 1.90807L7.13792 3.65544L5.63283 5.36255L7.55814 7.49851L5.26618 9.38284Z" fill="#B26510"/>
<path id="Vector_20" d="M5.35569 8.29215L3.81789 6.51279L2.2463 8.24147L1.32031 7.29858L3.00406 5.52533L1.38645 3.73483L2.46486 2.76965L3.96312 4.52637L5.32119 2.96629L6.07894 3.67336L4.61411 5.33446L6.4607 7.38342L5.35569 8.29215Z" fill="url(#paint1_linear_700_147)"/>
<g id="Vector_21" style="mix-blend-mode:overlay">
<path d="M5.88505 3.89658L6.08204 3.67299L5.32463 2.96556L3.96657 4.52601L2.46795 2.76929L1.39062 3.73446L1.62859 3.99831L2.50605 3.21215L4.00431 4.96887L5.36238 3.40878L5.88505 3.89658Z" fill="white"/>
</g>
<g id="Vector_22" style="mix-blend-mode:overlay">
<path d="M4.64451 5.76475L6.24521 7.54088L6.45263 7.37014L4.61719 5.33447L4.64451 5.76475Z" fill="white"/>
</g>
<g id="Vector_23" style="mix-blend-mode:overlay">
<path d="M1.32812 7.28606L1.56106 7.52331L3.04962 5.95567L3.00001 5.52539L1.32812 7.28606Z" fill="white"/>
</g>
<g id="Vector_24" style="mix-blend-mode:overlay" opacity="0.44">
<path d="M0.265625 7.34142L1.32102 7.28606L3.00477 5.52539L1.96986 5.54588L0.265625 7.34142Z" fill="#FCFACC"/>
</g>
<path id="Vector_25" d="M2.24219 8.27528L2.26375 9.38064L3.79688 7.69402V6.53186L2.24219 8.27528Z" fill="#6D390C"/>
<path id="Vector_26" opacity="0.46" d="M3.81377 6.51318L3.79688 6.53188V7.69403L3.79939 7.69152L5.26135 9.38282L5.27608 9.17396L5.35121 8.29183L3.81377 6.51318Z" fill="#6D390C"/>
<path id="Vector_27" d="M6.46121 7.37012L5.35585 8.29215L5.35549 8.29179L5.26562 9.38278L7.55759 7.49845L6.46121 7.37012Z" fill="#6D390C"/>
<g id="Vector_28" style="mix-blend-mode:overlay" opacity="0.44">
<path d="M4.61719 5.33447L5.63448 5.36251L7.55979 7.49847L6.43753 7.34138L4.61719 5.33447Z" fill="#FCFACC"/>
</g>
<g id="Vector_29" style="mix-blend-mode:overlay" opacity="0.6">
<path d="M0.3125 3.71188L1.38731 3.73524L2.46463 2.76971L2.46535 2.77043L2.5376 1.71863L0.3125 3.71188Z" fill="#FCFACC"/>
</g>
<g id="Vector_30" style="mix-blend-mode:overlay" opacity="0.6">
<path d="M3.96094 4.52644L5.32008 2.9721L5.26221 1.90808L3.96669 3.39664L3.96094 4.52609V4.52644Z" fill="#FCFACC"/>
</g>
<g id="Vector_31" style="mix-blend-mode:overlay" opacity="0.22">
<path d="M3.96665 4.52643V4.52607L3.9724 3.39662L2.541 1.71863L2.46875 2.77043L3.96665 4.52643Z" fill="#FCFACC"/>
</g>
<g id="Vector_32" style="mix-blend-mode:overlay" opacity="0.22">
<path d="M6.07982 3.67307L5.32242 2.99978L5.26562 1.90808L7.13773 3.65545L6.07982 3.67307Z" fill="#FCFACC"/>
</g>
<g id="Vector_33" style="mix-blend-mode:overlay" opacity="0.34">
<path d="M2.06189 8.05427C2.17876 7.39477 2.5049 6.79044 2.99203 6.33077C3.47915 5.87109 4.10137 5.58051 4.76653 5.50205L4.61411 5.33274L6.07894 3.67165L5.32119 2.96457L3.96312 4.52466L2.46486 2.76794L1.38645 3.73311L3.00406 5.52362L1.32031 7.29687L2.06189 8.05427Z" fill="white"/>
</g>
</g>
<defs>
<linearGradient id="paint0_linear_700_147" x1="10.0223" y1="8.65595" x2="10.0223" y2="0.922729" gradientUnits="userSpaceOnUse">
<stop stop-color="#CE7C1D"/>
<stop offset="1" stop-color="#F7E436"/>
</linearGradient>
<linearGradient id="paint1_linear_700_147" x1="3.89086" y1="8.29215" x2="3.89086" y2="2.76965" gradientUnits="userSpaceOnUse">
<stop stop-color="#CE7C1D"/>
<stop offset="1" stop-color="#F7E436"/>
</linearGradient>
</defs>
</svg>
