<svg width="396" height="59" viewBox="0 0 396 59" fill="none" xmlns="http://www.w3.org/2000/svg">
<rect width="396" height="59" rx="6" fill="#0C3C88"/>
<mask id="mask0_2061_1163" style="mask-type:alpha" maskUnits="userSpaceOnUse" x="0" y="0" width="396" height="59">
<path d="M0 6C0 2.68629 2.68629 0 6 0H390C393.314 0 396 2.68629 396 6V53C396 56.3137 393.314 59 390 59H5.99999C2.68629 59 0 56.3137 0 53V6Z" fill="#386FC8"/>
</mask>
<g mask="url(#mask0_2061_1163)">
<path d="M5.58869 38.7576C5.36507 38.9711 5.01233 38.8148 4.88322 38.4449C4.75411 38.075 4.84863 37.4915 5.07225 37.2779C5.29588 37.0644 5.64861 37.2207 5.77772 37.5906C5.90683 37.9605 5.81232 38.544 5.58869 38.7576Z" fill="#F3BF09"/>
<path d="M10.8868 53.9202C10.6632 54.1338 10.4868 54.0556 10.3577 53.6857C10.2286 53.3158 10.2759 53.0241 10.4995 52.8105C10.7231 52.5969 10.8995 52.6751 11.0286 53.045C11.0932 53.23 11.1105 53.7067 10.8868 53.9202Z" fill="#F3BF09"/>
<path d="M8.40774 16.093C8.0723 16.4133 7.71957 16.257 7.5259 15.7021C7.33224 15.1472 7.42675 14.5638 7.76219 14.2434C8.09763 13.9231 8.45036 14.0794 8.64403 14.6343C8.8377 15.1891 8.74318 15.7726 8.40774 16.093Z" fill="#F3BF09"/>
<path d="M13.6356 31.074C13.4119 31.2875 13.0592 31.1312 12.9301 30.7613C12.801 30.3914 12.8955 29.8079 13.1191 29.5944C13.3428 29.3808 13.6955 29.5371 13.8246 29.907C13.9537 30.2769 13.971 30.7536 13.6356 31.074Z" fill="#F3BF09"/>
<path d="M18.9337 46.2366C18.7101 46.4502 18.5337 46.372 18.4046 46.0021C18.2755 45.6322 18.3227 45.3405 18.5464 45.1269C18.77 44.9134 18.9464 44.9915 19.0755 45.3614C19.2518 45.4396 19.1573 46.0231 18.9337 46.2366Z" fill="#F3BF09"/>
<path d="M16.5796 8.28826C16.2442 8.60861 15.8914 8.45227 15.6978 7.89741C15.5041 7.34256 15.5986 6.75909 15.9341 6.43875C16.2695 6.1184 16.6222 6.27474 16.8159 6.8296C16.8978 7.49123 16.8032 8.0747 16.5796 8.28826Z" fill="#F3BF09"/>
<path d="M21.8074 23.2693C21.5838 23.4828 21.2311 23.3265 21.102 22.9566C20.9729 22.5867 21.0674 22.0032 21.291 21.7897C21.5146 21.5761 21.8674 21.7324 21.9965 22.1023C22.1256 22.4723 22.0311 23.0557 21.8074 23.2693Z" fill="#F3BF09"/>
<path d="M27.0392 38.2454C27.2244 38.0685 27.2879 37.6767 27.1809 37.3702C27.074 37.0638 26.8371 36.9588 26.6518 37.1357C26.4666 37.3126 26.4031 37.7045 26.5101 38.0109C26.617 38.3174 26.8539 38.4223 27.0392 38.2454Z" fill="#F3BF09"/>
<path d="M32.3321 53.4114C32.2203 53.5182 31.9321 53.5468 31.803 53.1769C31.7385 52.992 31.7212 52.5153 31.9448 52.3017C32.0566 52.1949 32.3448 52.1663 32.4739 52.5362C32.4912 53.0129 32.444 53.3046 32.3321 53.4114Z" fill="#F3BF09"/>
<path d="M24.6226 0.604669C24.2871 0.925015 23.9344 0.768676 23.7407 0.213821C23.5471 -0.341034 23.6416 -0.924501 23.977 -1.24485C24.3125 -1.56519 24.6652 -1.40885 24.8589 -0.853998C25.0525 -0.299143 24.958 0.284324 24.6226 0.604669Z" fill="#F3BF09"/>
<path d="M29.8504 15.5857C29.6268 15.7992 29.2741 15.6429 29.1449 15.273C29.0158 14.9031 29.1103 14.3196 29.334 14.1061C29.5576 13.8925 29.9103 14.0489 30.0394 14.4188C30.1686 14.7887 30.074 15.3721 29.8504 15.5857Z" fill="#F3BF09"/>
<path d="M35.1485 30.7484C34.9249 30.9619 34.7486 30.8837 34.6194 30.5138C34.4903 30.1439 34.5376 29.8522 34.7612 29.6386C34.9848 29.4251 35.1612 29.5032 35.2903 29.8731C35.3549 30.0581 35.3722 30.5348 35.1485 30.7484Z" fill="#F3BF09"/>
<path d="M40.3751 45.7278C40.2633 45.8346 39.9751 45.8632 39.846 45.4933C39.7815 45.3084 39.7642 44.8317 39.9878 44.6181C40.0996 44.5114 40.3878 44.4827 40.5169 44.8526C40.646 45.2225 40.5987 45.5143 40.3751 45.7278Z" fill="#F3BF09"/>
<path d="M37.9051 7.89818C37.6815 8.11174 37.3287 7.95542 37.1996 7.58551C37.0705 7.21561 37.165 6.63214 37.3887 6.41857C37.6123 6.20501 37.965 6.36136 38.0941 6.73126C38.2232 7.10117 38.2405 7.57783 37.9051 7.89818Z" fill="#F3BF09"/>
<path d="M53.6576 53.0214C53.5458 53.1281 53.3694 53.05 53.3049 52.865C53.2403 52.6801 53.2876 52.3883 53.3994 52.2815C53.5112 52.1748 53.6876 52.2529 53.7521 52.4379C53.8167 52.6229 53.8813 52.8078 53.6576 53.0214Z" fill="#F3BF09"/>
<path d="M46.0613 0.107163C45.8377 0.320727 45.485 0.1644 45.3559 -0.205503C45.2268 -0.575406 45.3213 -1.15888 45.5449 -1.37244C45.7685 -1.58601 46.1213 -1.42966 46.2504 -1.05976C46.3795 -0.689858 46.285 -0.106401 46.0613 0.107163Z" fill="#F3BF09"/>
<path d="M59.422 7.57158C59.1984 7.78515 59.022 7.70698 58.8929 7.33707C58.7638 6.96717 58.811 6.67544 59.0347 6.46188C59.2583 6.24831 59.4346 6.32648 59.5638 6.69638C59.7401 6.77455 59.6456 7.35802 59.422 7.57158Z" fill="#F3BF09"/>
<path d="M75.1042 52.5151C75.166 52.4561 75.1871 52.3255 75.1515 52.2233C75.1158 52.1212 75.0369 52.0862 74.9751 52.1452C74.9133 52.2041 74.8922 52.3348 74.9278 52.4369C74.9635 52.539 75.0425 52.574 75.1042 52.5151Z" fill="#F3BF09"/>
<path d="M67.5782 -0.218446C67.3546 -0.00488266 67.1782 -0.0830629 67.0491 -0.452966C66.92 -0.822869 66.9673 -1.11459 67.1909 -1.32815C67.4145 -1.54172 67.5909 -1.46356 67.72 -1.09366C67.7846 -0.908704 67.69 -0.325228 67.5782 -0.218446Z" fill="#F3BF09"/>
<path d="M72.8048 14.761C72.693 14.8678 72.4048 14.8964 72.2757 14.5265C72.2111 14.3416 72.1938 13.8649 72.4175 13.6513C72.5293 13.5446 72.8175 13.5159 72.9466 13.8858C72.9639 14.3625 72.9166 14.6543 72.8048 14.761Z" fill="#F3BF09"/>
<path d="M78.0326 29.7421C77.9208 29.8489 77.7444 29.7707 77.6799 29.5857C77.6153 29.4008 77.6626 29.109 77.7744 29.0023C77.8862 28.8955 78.0626 28.9737 78.1271 29.1586C78.1917 29.3436 78.1444 29.6353 78.0326 29.7421Z" fill="#F3BF09"/>
<path d="M83.3308 44.9096C83.219 45.0164 83.1544 44.8314 83.1544 44.8314L83.2017 44.5397C83.3135 44.4329 83.378 44.6179 83.378 44.6179L83.3308 44.9096Z" fill="#F3BF09"/>
<path d="M80.8478 7.07354C80.736 7.18032 80.4478 7.20893 80.3187 6.83903C80.2541 6.65407 80.2368 6.17739 80.4604 5.96383C80.5723 5.85705 80.8604 5.82843 80.9895 6.19834C81.1186 6.56824 80.9596 6.96676 80.8478 7.07354Z" fill="#F3BF09"/>
<path d="M86.0756 22.0546C85.9638 22.1613 85.7874 22.0832 85.7229 21.8982C85.6583 21.7133 85.7056 21.4215 85.8174 21.3148C85.9292 21.208 86.1056 21.2862 86.1701 21.4711C86.2347 21.6561 86.1874 21.9478 86.0756 22.0546Z" fill="#F3BF09"/>
<path d="M91.3737 37.2221C91.2619 37.3289 91.1974 37.1439 91.1974 37.1439L91.2446 36.8522C91.3564 36.7454 91.421 36.9304 91.421 36.9304C91.421 36.9304 91.4856 37.1153 91.3737 37.2221Z" fill="#F3BF09"/>
<path d="M96.5986 52.2049C96.4868 52.3117 96.5986 52.2049 96.5986 52.2049C96.4223 52.1267 96.5341 52.0199 96.5341 52.0199C96.5341 52.0199 96.6459 51.9131 96.5986 52.2049C96.7104 52.0981 96.5986 52.2049 96.5986 52.2049Z" fill="#F3BF09"/>
<path d="M94.1303 14.37C94.2538 14.2521 94.2961 13.9908 94.2248 13.7865C94.1535 13.5822 93.9956 13.5122 93.8721 13.6302C93.7486 13.7481 93.7062 14.0094 93.7776 14.2137C93.8489 14.418 94.0068 14.4879 94.1303 14.37Z" fill="#F3BF09"/>
<path d="M99.4284 29.5375C99.3166 29.6443 99.2521 29.4594 99.2521 29.4594L99.2993 29.1676C99.4111 29.0609 99.4757 29.2458 99.4757 29.2458C99.4757 29.2458 99.5402 29.4308 99.4284 29.5375Z" fill="#F3BF09"/>
<path d="M104.653 44.5203C104.477 44.4421 104.589 44.3354 104.589 44.3354C104.701 44.2286 104.701 44.2286 104.653 44.5203C104.765 44.4135 104.765 44.4135 104.653 44.5203Z" fill="#F3BF09"/>
</g>
</svg>
