<svg width="173" height="13" viewBox="0 0 173 13" fill="none" xmlns="http://www.w3.org/2000/svg">
<path id="Vector 1" d="M1 5.5C0.447715 5.5 4.82823e-08 5.94772 0 6.5C-4.82823e-08 7.05228 0.447715 7.5 1 7.5L1 5.5ZM172.774 6.50002L167 0.726512L161.227 6.50001L167 12.2735L172.774 6.50002ZM6.92857 7.5C7.48086 7.5 7.92857 7.05229 7.92857 6.5C7.92857 5.94772 7.48086 5.5 6.92857 5.5L6.92857 7.5ZM18.7857 5.5C18.2334 5.5 17.7857 5.94772 17.7857 6.5C17.7857 7.05229 18.2334 7.5 18.7857 7.5L18.7857 5.5ZM30.6429 7.5C31.1951 7.5 31.6429 7.05229 31.6429 6.5C31.6429 5.94772 31.1951 5.5 30.6429 5.5L30.6429 7.5ZM42.5 5.5C41.9477 5.5 41.5 5.94772 41.5 6.5C41.5 7.05229 41.9477 7.5 42.5 7.5L42.5 5.5ZM54.3571 7.5C54.9094 7.5 55.3571 7.05229 55.3571 6.5C55.3571 5.94772 54.9094 5.5 54.3571 5.5L54.3571 7.5ZM66.2143 5.50001C65.662 5.50001 65.2143 5.94772 65.2143 6.50001C65.2143 7.05229 65.662 7.50001 66.2143 7.50001L66.2143 5.50001ZM78.0714 7.50001C78.6237 7.50001 79.0714 7.05229 79.0714 6.50001C79.0714 5.94772 78.6237 5.50001 78.0714 5.50001L78.0714 7.50001ZM89.9286 5.50001C89.3763 5.50001 88.9286 5.94772 88.9286 6.50001C88.9286 7.05229 89.3763 7.50001 89.9286 7.50001L89.9286 5.50001ZM101.786 7.50001C102.338 7.50001 102.786 7.05229 102.786 6.50001C102.786 5.94772 102.338 5.50001 101.786 5.50001L101.786 7.50001ZM113.643 5.50001C113.091 5.50001 112.643 5.94772 112.643 6.50001C112.643 7.05229 113.091 7.50001 113.643 7.50001L113.643 5.50001ZM125.5 7.50001C126.052 7.50001 126.5 7.0523 126.5 6.50001C126.5 5.94773 126.052 5.50001 125.5 5.50001L125.5 7.50001ZM137.357 5.50001C136.805 5.50001 136.357 5.94773 136.357 6.50001C136.357 7.0523 136.805 7.50001 137.357 7.50001L137.357 5.50001ZM149.214 7.50001C149.767 7.50001 150.214 7.0523 150.214 6.50001C150.214 5.94773 149.767 5.50001 149.214 5.50001L149.214 7.50001ZM161.071 5.50001C160.519 5.50001 160.071 5.94773 160.071 6.50001C160.071 7.0523 160.519 7.50001 161.071 7.50001L161.071 5.50001ZM1 7.5L6.92857 7.5L6.92857 5.5L1 5.5L1 7.5ZM18.7857 7.5L30.6429 7.5L30.6429 5.5L18.7857 5.5L18.7857 7.5ZM42.5 7.5L54.3571 7.5L54.3571 5.5L42.5 5.5L42.5 7.5ZM66.2143 7.50001L78.0714 7.50001L78.0714 5.50001L66.2143 5.50001L66.2143 7.50001ZM89.9286 7.50001L101.786 7.50001L101.786 5.50001L89.9286 5.50001L89.9286 7.50001ZM113.643 7.50001L125.5 7.50001L125.5 5.50001L113.643 5.50001L113.643 7.50001ZM137.357 7.50001L149.214 7.50001L149.214 5.50001L137.357 5.50001L137.357 7.50001ZM161.071 7.50001L167 7.50001L167 5.50001L161.071 5.50001L161.071 7.50001Z" fill="white"/>
</svg>
