<svg width="121" height="79" viewBox="0 0 121 79" fill="none" xmlns="http://www.w3.org/2000/svg">
<path d="M114.659 0.965179H3.46575C2.68595 0.965179 1.93804 1.27588 1.38634 1.82903C0.834638 2.38217 0.524281 3.13251 0.523438 3.9152V73.5075C0.523438 74.2908 0.833419 75.0419 1.38521 75.5958C1.937 76.1496 2.6854 76.4608 3.46575 76.4608H114.659C115.44 76.4608 116.189 76.1498 116.742 75.5962C117.295 75.0425 117.606 74.2914 117.608 73.5075V3.9152C117.605 3.13193 117.293 2.3816 116.741 1.82864C116.188 1.27568 115.439 0.965175 114.659 0.965179ZM106.155 19.0538C105.217 19.0538 114.982 18.3346 114.201 17.8114C113.421 17.2881 107.752 7.49972 107.393 6.62954C107.034 5.75935 99.6686 12.0992 99.8517 11.1755C100.035 10.2517 101.724 10.6456 102.388 9.97955C103.052 9.31354 103.897 8.85999 104.817 8.67624C105.738 8.49249 106.692 8.5868 107.559 8.94724C108.426 9.30768 109.167 9.91806 109.688 10.7012C110.209 11.4843 110.488 12.4051 110.488 13.347C110.488 13.973 110.365 14.593 110.127 15.1714C109.888 15.7497 109.538 16.2752 109.097 16.7176C108.655 17.1599 108.131 17.5106 107.555 17.7494C106.978 17.9882 106.36 18.1104 105.737 18.1092L106.155 19.0538Z" fill="url(#paint0_radial_686_19011)"/>
<path d="M115.623 1.03657e-05H4.4294C3.84845 -0.00125011 3.27292 0.112457 2.73579 0.334634C2.19865 0.55681 1.71042 0.883093 1.29903 1.29482C0.887643 1.70655 0.561159 2.19565 0.338257 2.73413C0.115354 3.27261 0.000417201 3.84992 0 4.43303V74.0222C0.00252644 75.1968 0.468758 76.3226 1.29659 77.1529C2.12441 77.9831 3.24635 78.4503 4.41665 78.452H115.623C116.203 78.4528 116.778 78.3389 117.315 78.1168C117.851 77.8946 118.339 77.5685 118.75 77.1572C119.161 76.7458 119.487 76.2573 119.71 75.7194C119.933 75.1814 120.048 74.6047 120.049 74.0222V4.43303C120.049 3.85019 119.934 3.27314 119.711 2.73486C119.488 2.19659 119.162 1.70764 118.751 1.29596C118.34 0.884271 117.852 0.55792 117.315 0.335555C116.779 0.113191 116.203 -0.000829614 115.623 1.03657e-05ZM111.133 14.4177C110.875 17.0609 108.643 18.4832 106.184 18.4832C103.726 18.4832 101.914 15.792 102.14 13.5196C102.401 10.87 104.627 9.45413 107.082 9.45413C109.538 9.45413 111.343 12.1421 111.133 14.4177Z" fill="url(#paint1_linear_686_19011)"/>
<path d="M115.626 1.40225H4.43271C3.52201 1.4031 2.64887 1.76681 2.00521 2.41346C1.36154 3.06011 1 3.93679 1 4.85087V74.4432C1 75.357 1.36165 76.2333 2.0054 76.8795C2.64916 77.5256 3.5223 77.8886 4.43271 77.8886H115.626C116.537 77.8886 117.41 77.5257 118.055 76.8797C118.699 76.2336 119.061 75.3573 119.062 74.4432V4.85087C119.061 3.9365 118.699 3.05982 118.055 2.41327C117.411 1.76671 116.537 1.4031 115.626 1.40225ZM104.64 15.641C104.36 18.4695 108.668 19.7288 106.041 19.7288C103.414 19.7288 113.063 27.1293 113.305 24.7003C113.582 21.8717 103.873 15.3821 106.497 15.3821C109.121 15.3821 104.879 13.2087 104.64 15.641Z" fill="url(#paint2_linear_686_19011)"/>
<path d="M18.7292 22.2223H22.0992V23.4823H18.7292V22.2223ZM18.8492 25.1023H22.6592V26.4023H17.2392V19.4023H22.5292V20.7023H18.8492V25.1023ZM23.0996 26.4023L25.5096 23.2423L25.4796 24.1023L23.1696 21.0223H24.9196L26.3796 23.0323L25.7196 23.0523L27.2296 21.0223H28.8896L26.5696 24.0723V23.2323L28.9696 26.4023H27.1996L25.6696 24.2623L26.3196 24.3523L24.7996 26.4023H23.0996ZM32.1608 26.4823C31.5808 26.4823 31.0642 26.3656 30.6108 26.1323C30.1575 25.8923 29.8008 25.5623 29.5408 25.1423C29.2875 24.7223 29.1608 24.2456 29.1608 23.7123C29.1608 23.1723 29.2875 22.6956 29.5408 22.2823C29.8008 21.8623 30.1575 21.5356 30.6108 21.3023C31.0642 21.0623 31.5808 20.9423 32.1608 20.9423C32.7275 20.9423 33.2208 21.0623 33.6408 21.3023C34.0608 21.5356 34.3708 21.8723 34.5708 22.3123L33.3608 22.9623C33.2208 22.7089 33.0442 22.5223 32.8308 22.4023C32.6242 22.2823 32.3975 22.2223 32.1508 22.2223C31.8842 22.2223 31.6442 22.2823 31.4308 22.4023C31.2175 22.5223 31.0475 22.6923 30.9208 22.9123C30.8008 23.1323 30.7408 23.3989 30.7408 23.7123C30.7408 24.0256 30.8008 24.2923 30.9208 24.5123C31.0475 24.7323 31.2175 24.9023 31.4308 25.0223C31.6442 25.1423 31.8842 25.2023 32.1508 25.2023C32.3975 25.2023 32.6242 25.1456 32.8308 25.0323C33.0442 24.9123 33.2208 24.7223 33.3608 24.4623L34.5708 25.1223C34.3708 25.5556 34.0608 25.8923 33.6408 26.1323C33.2208 26.3656 32.7275 26.4823 32.1608 26.4823ZM35.4397 26.4023V18.9823H36.9997V26.4023H35.4397ZM40.7175 26.4823C40.2709 26.4823 39.8709 26.3956 39.5175 26.2223C39.1709 26.0489 38.9009 25.7856 38.7075 25.4323C38.5142 25.0723 38.4175 24.6156 38.4175 24.0623V21.0223H39.9775V23.8323C39.9775 24.2789 40.0709 24.6089 40.2575 24.8223C40.4509 25.0289 40.7209 25.1323 41.0675 25.1323C41.3075 25.1323 41.5209 25.0823 41.7075 24.9823C41.8942 24.8756 42.0409 24.7156 42.1475 24.5023C42.2542 24.2823 42.3075 24.0089 42.3075 23.6823V21.0223H43.8675V26.4023H42.3875V24.9223L42.6575 25.3523C42.4775 25.7256 42.2109 26.0089 41.8575 26.2023C41.5109 26.3889 41.1309 26.4823 40.7175 26.4823ZM47.1228 26.4823C46.6628 26.4823 46.2194 26.4289 45.7928 26.3223C45.3728 26.2089 45.0394 26.0689 44.7928 25.9023L45.3128 24.7823C45.5594 24.9356 45.8494 25.0623 46.1828 25.1623C46.5228 25.2556 46.8561 25.3023 47.1828 25.3023C47.5428 25.3023 47.7961 25.2589 47.9428 25.1723C48.0961 25.0856 48.1728 24.9656 48.1728 24.8123C48.1728 24.6856 48.1128 24.5923 47.9928 24.5323C47.8794 24.4656 47.7261 24.4156 47.5328 24.3823C47.3394 24.3489 47.1261 24.3156 46.8928 24.2823C46.6661 24.2489 46.4361 24.2056 46.2028 24.1523C45.9694 24.0923 45.7561 24.0056 45.5628 23.8923C45.3694 23.7789 45.2128 23.6256 45.0928 23.4323C44.9794 23.2389 44.9228 22.9889 44.9228 22.6823C44.9228 22.3423 45.0194 22.0423 45.2128 21.7823C45.4128 21.5223 45.6994 21.3189 46.0728 21.1723C46.4461 21.0189 46.8928 20.9423 47.4128 20.9423C47.7794 20.9423 48.1528 20.9823 48.5328 21.0623C48.9128 21.1423 49.2294 21.2589 49.4828 21.4123L48.9628 22.5223C48.7028 22.3689 48.4394 22.2656 48.1728 22.2123C47.9128 22.1523 47.6594 22.1223 47.4128 22.1223C47.0661 22.1223 46.8128 22.1689 46.6528 22.2623C46.4928 22.3556 46.4128 22.4756 46.4128 22.6223C46.4128 22.7556 46.4694 22.8556 46.5828 22.9223C46.7028 22.9889 46.8594 23.0423 47.0528 23.0823C47.2461 23.1223 47.4561 23.1589 47.6828 23.1923C47.9161 23.2189 48.1494 23.2623 48.3828 23.3223C48.6161 23.3823 48.8261 23.4689 49.0128 23.5823C49.2061 23.6889 49.3628 23.8389 49.4828 24.0323C49.6028 24.2189 49.6628 24.4656 49.6628 24.7723C49.6628 25.1056 49.5628 25.4023 49.3628 25.6623C49.1628 25.9156 48.8728 26.1156 48.4928 26.2623C48.1194 26.4089 47.6628 26.4823 47.1228 26.4823ZM50.6253 26.4023V21.0223H52.1853V26.4023H50.6253ZM51.4053 20.2723C51.1186 20.2723 50.8853 20.1889 50.7053 20.0223C50.5253 19.8556 50.4353 19.6489 50.4353 19.4023C50.4353 19.1556 50.5253 18.9489 50.7053 18.7823C50.8853 18.6156 51.1186 18.5323 51.4053 18.5323C51.6919 18.5323 51.9253 18.6123 52.1053 18.7723C52.2853 18.9256 52.3753 19.1256 52.3753 19.3723C52.3753 19.6323 52.2853 19.8489 52.1053 20.0223C51.9319 20.1889 51.6986 20.2723 51.4053 20.2723ZM55.0931 26.4023L52.8331 21.0223H54.4431L56.3231 25.6523H55.5231L57.4731 21.0223H58.9731L56.7031 26.4023H55.0931ZM62.1332 26.4823C61.5198 26.4823 60.9798 26.3623 60.5132 26.1223C60.0532 25.8823 59.6965 25.5556 59.4432 25.1423C59.1898 24.7223 59.0632 24.2456 59.0632 23.7123C59.0632 23.1723 59.1865 22.6956 59.4332 22.2823C59.6865 21.8623 60.0298 21.5356 60.4632 21.3023C60.8965 21.0623 61.3865 20.9423 61.9332 20.9423C62.4598 20.9423 62.9332 21.0556 63.3532 21.2823C63.7798 21.5023 64.1165 21.8223 64.3632 22.2423C64.6098 22.6556 64.7332 23.1523 64.7332 23.7323C64.7332 23.7923 64.7298 23.8623 64.7232 23.9423C64.7165 24.0156 64.7098 24.0856 64.7032 24.1523H60.3332V23.2423H63.8832L63.2832 23.5123C63.2832 23.2323 63.2265 22.9889 63.1132 22.7823C62.9998 22.5756 62.8432 22.4156 62.6432 22.3023C62.4432 22.1823 62.2098 22.1223 61.9432 22.1223C61.6765 22.1223 61.4398 22.1823 61.2332 22.3023C61.0332 22.4156 60.8765 22.5789 60.7632 22.7923C60.6498 22.9989 60.5932 23.2456 60.5932 23.5323V23.7723C60.5932 24.0656 60.6565 24.3256 60.7832 24.5523C60.9165 24.7723 61.0998 24.9423 61.3332 25.0623C61.5732 25.1756 61.8532 25.2323 62.1732 25.2323C62.4598 25.2323 62.7098 25.1889 62.9232 25.1023C63.1432 25.0156 63.3432 24.8856 63.5232 24.7123L64.3532 25.6123C64.1065 25.8923 63.7965 26.1089 63.4232 26.2623C63.0498 26.4089 62.6198 26.4823 62.1332 26.4823ZM68.7938 26.4023V20.9023C68.7938 20.2956 68.9738 19.8123 69.3338 19.4523C69.6938 19.0856 70.2071 18.9023 70.8738 18.9023C71.1005 18.9023 71.3171 18.9256 71.5238 18.9723C71.7371 19.0189 71.9171 19.0923 72.0638 19.1923L71.6538 20.3223C71.5671 20.2623 71.4705 20.2156 71.3638 20.1823C71.2571 20.1489 71.1438 20.1323 71.0238 20.1323C70.7971 20.1323 70.6205 20.1989 70.4938 20.3323C70.3738 20.4589 70.3138 20.6523 70.3138 20.9123V21.4123L70.3538 22.0823V26.4023H68.7938ZM67.9638 22.3423V21.1423H71.6938V22.3423H67.9638ZM74.9626 26.4823C74.3893 26.4823 73.8793 26.3623 73.4326 26.1223C72.9926 25.8823 72.6426 25.5556 72.3826 25.1423C72.1293 24.7223 72.0026 24.2456 72.0026 23.7123C72.0026 23.1723 72.1293 22.6956 72.3826 22.2823C72.6426 21.8623 72.9926 21.5356 73.4326 21.3023C73.8793 21.0623 74.3893 20.9423 74.9626 20.9423C75.5293 20.9423 76.036 21.0623 76.4826 21.3023C76.9293 21.5356 77.2793 21.8589 77.5326 22.2723C77.786 22.6856 77.9126 23.1656 77.9126 23.7123C77.9126 24.2456 77.786 24.7223 77.5326 25.1423C77.2793 25.5556 76.9293 25.8823 76.4826 26.1223C76.036 26.3623 75.5293 26.4823 74.9626 26.4823ZM74.9626 25.2023C75.2226 25.2023 75.456 25.1423 75.6626 25.0223C75.8693 24.9023 76.0326 24.7323 76.1526 24.5123C76.2726 24.2856 76.3326 24.0189 76.3326 23.7123C76.3326 23.3989 76.2726 23.1323 76.1526 22.9123C76.0326 22.6923 75.8693 22.5223 75.6626 22.4023C75.456 22.2823 75.2226 22.2223 74.9626 22.2223C74.7026 22.2223 74.4693 22.2823 74.2626 22.4023C74.056 22.5223 73.8893 22.6923 73.7626 22.9123C73.6426 23.1323 73.5826 23.3989 73.5826 23.7123C73.5826 24.0189 73.6426 24.2856 73.7626 24.5123C73.8893 24.7323 74.056 24.9023 74.2626 25.0223C74.4693 25.1423 74.7026 25.2023 74.9626 25.2023ZM78.9554 26.4023V21.0223H80.4454V22.5423L80.2354 22.1023C80.3954 21.7223 80.652 21.4356 81.0054 21.2423C81.3587 21.0423 81.7887 20.9423 82.2954 20.9423V22.3823C82.2287 22.3756 82.1687 22.3723 82.1154 22.3723C82.062 22.3656 82.0054 22.3623 81.9454 22.3623C81.5187 22.3623 81.172 22.4856 80.9054 22.7323C80.6454 22.9723 80.5154 23.3489 80.5154 23.8623V26.4023H78.9554ZM86.774 28.4223C86.494 28.4223 86.2174 28.3789 85.944 28.2923C85.6707 28.2056 85.4474 28.0856 85.274 27.9323L85.844 26.8223C85.964 26.9289 86.1007 27.0123 86.254 27.0723C86.414 27.1323 86.5707 27.1623 86.724 27.1623C86.944 27.1623 87.1174 27.1089 87.244 27.0023C87.3774 26.9023 87.4974 26.7323 87.604 26.4923L87.884 25.8323L88.004 25.6623L89.934 21.0223H91.434L89.004 26.7323C88.8307 27.1656 88.6307 27.5056 88.404 27.7523C88.184 27.9989 87.9374 28.1723 87.664 28.2723C87.3974 28.3723 87.1007 28.4223 86.774 28.4223ZM87.694 26.6123L85.294 21.0223H86.904L88.764 25.5223L87.694 26.6123ZM94.4841 26.4823C93.9108 26.4823 93.4008 26.3623 92.9541 26.1223C92.5141 25.8823 92.1641 25.5556 91.9041 25.1423C91.6508 24.7223 91.5241 24.2456 91.5241 23.7123C91.5241 23.1723 91.6508 22.6956 91.9041 22.2823C92.1641 21.8623 92.5141 21.5356 92.9541 21.3023C93.4008 21.0623 93.9108 20.9423 94.4841 20.9423C95.0508 20.9423 95.5574 21.0623 96.0041 21.3023C96.4508 21.5356 96.8008 21.8589 97.0541 22.2723C97.3074 22.6856 97.4341 23.1656 97.4341 23.7123C97.4341 24.2456 97.3074 24.7223 97.0541 25.1423C96.8008 25.5556 96.4508 25.8823 96.0041 26.1223C95.5574 26.3623 95.0508 26.4823 94.4841 26.4823ZM94.4841 25.2023C94.7441 25.2023 94.9774 25.1423 95.1841 25.0223C95.3908 24.9023 95.5541 24.7323 95.6741 24.5123C95.7941 24.2856 95.8541 24.0189 95.8541 23.7123C95.8541 23.3989 95.7941 23.1323 95.6741 22.9123C95.5541 22.6923 95.3908 22.5223 95.1841 22.4023C94.9774 22.2823 94.7441 22.2223 94.4841 22.2223C94.2241 22.2223 93.9908 22.2823 93.7841 22.4023C93.5774 22.5223 93.4108 22.6923 93.2841 22.9123C93.1641 23.1323 93.1041 23.3989 93.1041 23.7123C93.1041 24.0189 93.1641 24.2856 93.2841 24.5123C93.4108 24.7323 93.5774 24.9023 93.7841 25.0223C93.9908 25.1423 94.2241 25.2023 94.4841 25.2023ZM100.747 26.4823C100.3 26.4823 99.9002 26.3956 99.5468 26.2223C99.2002 26.0489 98.9302 25.7856 98.7368 25.4323C98.5435 25.0723 98.4468 24.6156 98.4468 24.0623V21.0223H100.007V23.8323C100.007 24.2789 100.1 24.6089 100.287 24.8223C100.48 25.0289 100.75 25.1323 101.097 25.1323C101.337 25.1323 101.55 25.0823 101.737 24.9823C101.924 24.8756 102.07 24.7156 102.177 24.5023C102.284 24.2823 102.337 24.0089 102.337 23.6823V21.0223H103.897V26.4023H102.417V24.9223L102.687 25.3523C102.507 25.7256 102.24 26.0089 101.887 26.2023C101.54 26.3889 101.16 26.4823 100.747 26.4823ZM105.452 23.9723L105.142 19.4023H107.002L106.692 23.9723H105.452ZM106.072 26.4823C105.792 26.4823 105.562 26.3923 105.382 26.2123C105.202 26.0323 105.112 25.8189 105.112 25.5723C105.112 25.3189 105.202 25.1089 105.382 24.9423C105.562 24.7689 105.792 24.6823 106.072 24.6823C106.359 24.6823 106.589 24.7689 106.762 24.9423C106.942 25.1089 107.032 25.3189 107.032 25.5723C107.032 25.8189 106.942 26.0323 106.762 26.2123C106.589 26.3923 106.359 26.4823 106.072 26.4823Z" fill="#F7F7FF"/>
<path d="M105.961 58.4023L107.961 60.4023L105.961 62.4023" stroke="#FBF36D" stroke-width="0.5" stroke-linecap="round" stroke-linejoin="round"/>
<path d="M8.85535 39.4503C8.30335 39.4503 7.86935 39.2923 7.55335 38.9763C7.23735 38.6603 7.07935 38.1983 7.07935 37.5903V35.2023H7.67935V37.5663C7.67935 38.0343 7.78135 38.3763 7.98535 38.5923C8.19335 38.8083 8.48535 38.9163 8.86135 38.9163C9.24135 38.9163 9.53335 38.8083 9.73735 38.5923C9.94535 38.3763 10.0494 38.0343 10.0494 37.5663V35.2023H10.6314V37.5903C10.6314 38.1983 10.4734 38.6603 10.1574 38.9763C9.84535 39.2923 9.41135 39.4503 8.85535 39.4503ZM13.4634 39.4383C13.1994 39.4383 12.9574 39.3783 12.7374 39.2583C12.5214 39.1343 12.3474 38.9523 12.2154 38.7123C12.0874 38.4723 12.0234 38.1723 12.0234 37.8123C12.0234 37.4523 12.0854 37.1523 12.2094 36.9123C12.3374 36.6723 12.5094 36.4923 12.7254 36.3723C12.9454 36.2523 13.1914 36.1923 13.4634 36.1923C13.7754 36.1923 14.0514 36.2603 14.2914 36.3963C14.5314 36.5323 14.7214 36.7223 14.8614 36.9663C15.0014 37.2063 15.0714 37.4883 15.0714 37.8123C15.0714 38.1363 15.0014 38.4203 14.8614 38.6643C14.7214 38.9083 14.5314 39.0983 14.2914 39.2343C14.0514 39.3703 13.7754 39.4383 13.4634 39.4383ZM11.7774 40.5663V36.2223H12.3294V37.0803L12.2934 37.8183L12.3534 38.5563V40.5663H11.7774ZM13.4154 38.9343C13.6194 38.9343 13.8014 38.8883 13.9614 38.7963C14.1254 38.7043 14.2534 38.5743 14.3454 38.4063C14.4414 38.2343 14.4894 38.0363 14.4894 37.8123C14.4894 37.5843 14.4414 37.3883 14.3454 37.2243C14.2534 37.0563 14.1254 36.9263 13.9614 36.8343C13.8014 36.7423 13.6194 36.6963 13.4154 36.6963C13.2154 36.6963 13.0334 36.7423 12.8694 36.8343C12.7094 36.9263 12.5814 37.0563 12.4854 37.2243C12.3934 37.3883 12.3474 37.5843 12.3474 37.8123C12.3474 38.0363 12.3934 38.2343 12.4854 38.4063C12.5814 38.5743 12.7094 38.7043 12.8694 38.7963C13.0334 38.8883 13.2154 38.9343 13.4154 38.9343ZM17.2593 40.6023C16.9673 40.6023 16.6833 40.5603 16.4073 40.4763C16.1353 40.3963 15.9133 40.2803 15.7413 40.1283L16.0173 39.6843C16.1653 39.8123 16.3473 39.9123 16.5633 39.9843C16.7793 40.0603 17.0053 40.0983 17.2413 40.0983C17.6173 40.0983 17.8933 40.0103 18.0693 39.8343C18.2453 39.6583 18.3333 39.3903 18.3333 39.0303V38.3583L18.3933 37.7283L18.3633 37.0923V36.2223H18.9093V38.9703C18.9093 39.5303 18.7693 39.9423 18.4893 40.2063C18.2093 40.4703 17.7993 40.6023 17.2593 40.6023ZM17.1873 39.2703C16.8793 39.2703 16.6033 39.2063 16.3593 39.0783C16.1193 38.9463 15.9273 38.7643 15.7833 38.5323C15.6433 38.3003 15.5733 38.0323 15.5733 37.7283C15.5733 37.4203 15.6433 37.1523 15.7833 36.9243C15.9273 36.6923 16.1193 36.5123 16.3593 36.3843C16.6033 36.2563 16.8793 36.1923 17.1873 36.1923C17.4593 36.1923 17.7073 36.2483 17.9313 36.3603C18.1553 36.4683 18.3333 36.6363 18.4653 36.8643C18.6013 37.0923 18.6693 37.3803 18.6693 37.7283C18.6693 38.0723 18.6013 38.3583 18.4653 38.5863C18.3333 38.8143 18.1553 38.9863 17.9313 39.1023C17.7073 39.2143 17.4593 39.2703 17.1873 39.2703ZM17.2533 38.7663C17.4653 38.7663 17.6533 38.7223 17.8173 38.6343C17.9813 38.5463 18.1093 38.4243 18.2013 38.2683C18.2973 38.1123 18.3453 37.9323 18.3453 37.7283C18.3453 37.5243 18.2973 37.3443 18.2013 37.1883C18.1093 37.0323 17.9813 36.9123 17.8173 36.8283C17.6533 36.7403 17.4653 36.6963 17.2533 36.6963C17.0413 36.6963 16.8513 36.7403 16.6833 36.8283C16.5193 36.9123 16.3893 37.0323 16.2933 37.1883C16.2013 37.3443 16.1553 37.5243 16.1553 37.7283C16.1553 37.9323 16.2013 38.1123 16.2933 38.2683C16.3893 38.4243 16.5193 38.5463 16.6833 38.6343C16.8513 38.7223 17.0413 38.7663 17.2533 38.7663ZM20.0099 39.4023V36.2223H20.5619V37.0863L20.5079 36.8703C20.5959 36.6503 20.7439 36.4823 20.9519 36.3663C21.1599 36.2503 21.4159 36.1923 21.7199 36.1923V36.7503C21.6959 36.7463 21.6719 36.7443 21.6479 36.7443C21.6279 36.7443 21.6079 36.7443 21.5879 36.7443C21.2799 36.7443 21.0359 36.8363 20.8559 37.0203C20.6759 37.2043 20.5859 37.4703 20.5859 37.8183V39.4023H20.0099ZM24.1694 39.4023V38.7303L24.1394 38.6043V37.4583C24.1394 37.2143 24.0674 37.0263 23.9234 36.8943C23.7834 36.7583 23.5714 36.6903 23.2874 36.6903C23.0994 36.6903 22.9154 36.7223 22.7354 36.7863C22.5554 36.8463 22.4034 36.9283 22.2794 37.0323L22.0394 36.6003C22.2034 36.4683 22.3994 36.3683 22.6274 36.3003C22.8594 36.2283 23.1014 36.1923 23.3534 36.1923C23.7894 36.1923 24.1254 36.2983 24.3614 36.5103C24.5974 36.7223 24.7154 37.0463 24.7154 37.4823V39.4023H24.1694ZM23.1254 39.4383C22.8894 39.4383 22.6814 39.3983 22.5014 39.3183C22.3254 39.2383 22.1894 39.1283 22.0934 38.9883C21.9974 38.8443 21.9494 38.6823 21.9494 38.5023C21.9494 38.3303 21.9894 38.1743 22.0694 38.0343C22.1534 37.8943 22.2874 37.7823 22.4714 37.6983C22.6594 37.6143 22.9114 37.5723 23.2274 37.5723H24.2354V37.9863H23.2514C22.9634 37.9863 22.7694 38.0343 22.6694 38.1303C22.5694 38.2263 22.5194 38.3423 22.5194 38.4783C22.5194 38.6343 22.5814 38.7603 22.7054 38.8563C22.8294 38.9483 23.0014 38.9943 23.2214 38.9943C23.4374 38.9943 23.6254 38.9463 23.7854 38.8503C23.9494 38.7543 24.0674 38.6143 24.1394 38.4303L24.2534 38.8263C24.1774 39.0143 24.0434 39.1643 23.8514 39.2763C23.6594 39.3843 23.4174 39.4383 23.1254 39.4383ZM27.0954 39.4383C26.7874 39.4383 26.5114 39.3703 26.2674 39.2343C26.0274 39.0983 25.8374 38.9083 25.6974 38.6643C25.5574 38.4203 25.4874 38.1363 25.4874 37.8123C25.4874 37.4883 25.5574 37.2063 25.6974 36.9663C25.8374 36.7223 26.0274 36.5323 26.2674 36.3963C26.5114 36.2603 26.7874 36.1923 27.0954 36.1923C27.3634 36.1923 27.6054 36.2523 27.8214 36.3723C28.0374 36.4923 28.2094 36.6723 28.3374 36.9123C28.4694 37.1523 28.5354 37.4523 28.5354 37.8123C28.5354 38.1723 28.4714 38.4723 28.3434 38.7123C28.2194 38.9523 28.0494 39.1343 27.8334 39.2583C27.6174 39.3783 27.3714 39.4383 27.0954 39.4383ZM27.1434 38.9343C27.3434 38.9343 27.5234 38.8883 27.6834 38.7963C27.8474 38.7043 27.9754 38.5743 28.0674 38.4063C28.1634 38.2343 28.2114 38.0363 28.2114 37.8123C28.2114 37.5843 28.1634 37.3883 28.0674 37.2243C27.9754 37.0563 27.8474 36.9263 27.6834 36.8343C27.5234 36.7423 27.3434 36.6963 27.1434 36.6963C26.9394 36.6963 26.7574 36.7423 26.5974 36.8343C26.4374 36.9263 26.3094 37.0563 26.2134 37.2243C26.1174 37.3883 26.0694 37.5843 26.0694 37.8123C26.0694 38.0363 26.1174 38.2343 26.2134 38.4063C26.3094 38.5743 26.4374 38.7043 26.5974 38.7963C26.7574 38.8883 26.9394 38.9343 27.1434 38.9343ZM28.2294 39.4023V38.5443L28.2654 37.8063L28.2054 37.0683V34.9503H28.7814V39.4023H28.2294ZM31.2872 39.4383C30.9472 39.4383 30.6472 39.3683 30.3872 39.2283C30.1312 39.0883 29.9312 38.8963 29.7872 38.6523C29.6472 38.4083 29.5772 38.1283 29.5772 37.8123C29.5772 37.4963 29.6452 37.2163 29.7812 36.9723C29.9212 36.7283 30.1112 36.5383 30.3512 36.4023C30.5952 36.2623 30.8692 36.1923 31.1732 36.1923C31.4812 36.1923 31.7532 36.2603 31.9892 36.3963C32.2252 36.5323 32.4092 36.7243 32.5412 36.9723C32.6772 37.2163 32.7452 37.5023 32.7452 37.8303C32.7452 37.8543 32.7432 37.8823 32.7392 37.9143C32.7392 37.9463 32.7372 37.9763 32.7332 38.0043H30.0272V37.5903H32.4332L32.1992 37.7343C32.2032 37.5303 32.1612 37.3483 32.0732 37.1883C31.9852 37.0283 31.8632 36.9043 31.7072 36.8163C31.5552 36.7243 31.3772 36.6783 31.1732 36.6783C30.9732 36.6783 30.7952 36.7243 30.6392 36.8163C30.4832 36.9043 30.3612 37.0303 30.2732 37.1943C30.1852 37.3543 30.1412 37.5383 30.1412 37.7463V37.8423C30.1412 38.0543 30.1892 38.2443 30.2852 38.4123C30.3852 38.5763 30.5232 38.7043 30.6992 38.7963C30.8752 38.8883 31.0772 38.9343 31.3052 38.9343C31.4932 38.9343 31.6632 38.9023 31.8152 38.8383C31.9712 38.7743 32.1072 38.6783 32.2232 38.5503L32.5412 38.9223C32.3972 39.0903 32.2172 39.2183 32.0012 39.3063C31.7892 39.3943 31.5512 39.4383 31.2872 39.4383ZM36.2484 39.4383C35.9284 39.4383 35.6804 39.3523 35.5044 39.1803C35.3284 39.0083 35.2404 38.7623 35.2404 38.4423V35.5263H35.8164V38.4183C35.8164 38.5903 35.8584 38.7223 35.9424 38.8143C36.0304 38.9063 36.1544 38.9523 36.3144 38.9523C36.4944 38.9523 36.6444 38.9023 36.7644 38.8023L36.9444 39.2163C36.8564 39.2923 36.7504 39.3483 36.6264 39.3843C36.5064 39.4203 36.3804 39.4383 36.2484 39.4383ZM34.7004 36.6963V36.2223H36.7284V36.6963H34.7004ZM38.8973 39.4383C38.5773 39.4383 38.2933 39.3683 38.0453 39.2283C37.7973 39.0883 37.6013 38.8963 37.4573 38.6523C37.3133 38.4043 37.2413 38.1243 37.2413 37.8123C37.2413 37.4963 37.3133 37.2163 37.4573 36.9723C37.6013 36.7283 37.7973 36.5383 38.0453 36.4023C38.2933 36.2623 38.5773 36.1923 38.8973 36.1923C39.2133 36.1923 39.4953 36.2623 39.7433 36.4023C39.9953 36.5383 40.1913 36.7283 40.3313 36.9723C40.4753 37.2123 40.5473 37.4923 40.5473 37.8123C40.5473 38.1283 40.4753 38.4083 40.3313 38.6523C40.1913 38.8963 39.9953 39.0883 39.7433 39.2283C39.4953 39.3683 39.2133 39.4383 38.8973 39.4383ZM38.8973 38.9343C39.1013 38.9343 39.2833 38.8883 39.4433 38.7963C39.6073 38.7043 39.7353 38.5743 39.8273 38.4063C39.9193 38.2343 39.9653 38.0363 39.9653 37.8123C39.9653 37.5843 39.9193 37.3883 39.8273 37.2243C39.7353 37.0563 39.6073 36.9263 39.4433 36.8343C39.2833 36.7423 39.1013 36.6963 38.8973 36.6963C38.6933 36.6963 38.5113 36.7423 38.3513 36.8343C38.1913 36.9263 38.0633 37.0563 37.9673 37.2243C37.8713 37.3883 37.8233 37.5843 37.8233 37.8123C37.8233 38.0363 37.8713 38.2343 37.9673 38.4063C38.0633 38.5743 38.1913 38.7043 38.3513 38.7963C38.5113 38.8883 38.6933 38.9343 38.8973 38.9343ZM43.0392 39.4023V35.2023H44.6772C45.0452 35.2023 45.3592 35.2603 45.6192 35.3763C45.8792 35.4923 46.0792 35.6603 46.2192 35.8803C46.3592 36.1003 46.4292 36.3623 46.4292 36.6663C46.4292 36.9703 46.3592 37.2323 46.2192 37.4523C46.0792 37.6683 45.8792 37.8363 45.6192 37.9563C45.3592 38.0723 45.0452 38.1303 44.6772 38.1303H43.3692L43.6392 37.8483V39.4023H43.0392ZM43.6392 37.9083L43.3692 37.6083H44.6592C45.0432 37.6083 45.3332 37.5263 45.5292 37.3623C45.7292 37.1983 45.8292 36.9663 45.8292 36.6663C45.8292 36.3663 45.7292 36.1343 45.5292 35.9703C45.3332 35.8063 45.0432 35.7243 44.6592 35.7243H43.3692L43.6392 35.4243V37.9083ZM47.1681 39.4023V36.2223H47.7201V37.0863L47.6661 36.8703C47.7541 36.6503 47.9021 36.4823 48.1101 36.3663C48.3181 36.2503 48.5741 36.1923 48.8781 36.1923V36.7503C48.8541 36.7463 48.8301 36.7443 48.8061 36.7443C48.7861 36.7443 48.7661 36.7443 48.7461 36.7443C48.4381 36.7443 48.1941 36.8363 48.0141 37.0203C47.8341 37.2043 47.7441 37.4703 47.7441 37.8183V39.4023H47.1681ZM50.9747 39.4383C50.6347 39.4383 50.3347 39.3683 50.0747 39.2283C49.8187 39.0883 49.6187 38.8963 49.4747 38.6523C49.3347 38.4083 49.2647 38.1283 49.2647 37.8123C49.2647 37.4963 49.3327 37.2163 49.4687 36.9723C49.6087 36.7283 49.7987 36.5383 50.0387 36.4023C50.2827 36.2623 50.5567 36.1923 50.8607 36.1923C51.1687 36.1923 51.4407 36.2603 51.6767 36.3963C51.9127 36.5323 52.0967 36.7243 52.2287 36.9723C52.3647 37.2163 52.4327 37.5023 52.4327 37.8303C52.4327 37.8543 52.4307 37.8823 52.4267 37.9143C52.4267 37.9463 52.4247 37.9763 52.4207 38.0043H49.7147V37.5903H52.1207L51.8867 37.7343C51.8907 37.5303 51.8487 37.3483 51.7607 37.1883C51.6727 37.0283 51.5507 36.9043 51.3947 36.8163C51.2427 36.7243 51.0647 36.6783 50.8607 36.6783C50.6607 36.6783 50.4827 36.7243 50.3267 36.8163C50.1707 36.9043 50.0487 37.0303 49.9607 37.1943C49.8727 37.3543 49.8287 37.5383 49.8287 37.7463V37.8423C49.8287 38.0543 49.8767 38.2443 49.9727 38.4123C50.0727 38.5763 50.2107 38.7043 50.3867 38.7963C50.5627 38.8883 50.7647 38.9343 50.9927 38.9343C51.1807 38.9343 51.3507 38.9023 51.5027 38.8383C51.6587 38.7743 51.7947 38.6783 51.9107 38.5503L52.2287 38.9223C52.0847 39.0903 51.9047 39.2183 51.6887 39.3063C51.4767 39.3943 51.2387 39.4383 50.9747 39.4383ZM57.2105 36.1923C57.4665 36.1923 57.6925 36.2423 57.8885 36.3423C58.0845 36.4423 58.2365 36.5943 58.3445 36.7983C58.4565 37.0023 58.5125 37.2603 58.5125 37.5723V39.4023H57.9365V37.6383C57.9365 37.3303 57.8645 37.0983 57.7205 36.9423C57.5765 36.7863 57.3745 36.7083 57.1145 36.7083C56.9225 36.7083 56.7545 36.7483 56.6105 36.8283C56.4665 36.9083 56.3545 37.0263 56.2745 37.1823C56.1985 37.3383 56.1605 37.5323 56.1605 37.7643V39.4023H55.5845V37.6383C55.5845 37.3303 55.5125 37.0983 55.3685 36.9423C55.2285 36.7863 55.0265 36.7083 54.7625 36.7083C54.5745 36.7083 54.4085 36.7483 54.2645 36.8283C54.1205 36.9083 54.0085 37.0263 53.9285 37.1823C53.8485 37.3383 53.8085 37.5323 53.8085 37.7643V39.4023H53.2325V36.2223H53.7845V37.0683L53.6945 36.8523C53.7945 36.6443 53.9485 36.4823 54.1565 36.3663C54.3645 36.2503 54.6065 36.1923 54.8825 36.1923C55.1865 36.1923 55.4485 36.2683 55.6685 36.4203C55.8885 36.5683 56.0325 36.7943 56.1005 37.0983L55.8665 37.0023C55.9625 36.7583 56.1305 36.5623 56.3705 36.4143C56.6105 36.2663 56.8905 36.1923 57.2105 36.1923ZM59.5724 39.4023V36.2223H60.1484V39.4023H59.5724ZM59.8604 35.6103C59.7484 35.6103 59.6544 35.5743 59.5784 35.5023C59.5064 35.4303 59.4704 35.3423 59.4704 35.2383C59.4704 35.1303 59.5064 35.0403 59.5784 34.9683C59.6544 34.8963 59.7484 34.8603 59.8604 34.8603C59.9724 34.8603 60.0644 34.8963 60.1364 34.9683C60.2124 35.0363 60.2504 35.1223 60.2504 35.2263C60.2504 35.3343 60.2144 35.4263 60.1424 35.5023C60.0704 35.5743 59.9764 35.6103 59.8604 35.6103ZM62.5861 39.4383C62.3141 39.4383 62.0741 39.3883 61.8661 39.2883C61.6621 39.1883 61.5021 39.0363 61.3861 38.8323C61.2741 38.6243 61.2181 38.3643 61.2181 38.0523V36.2223H61.7941V37.9863C61.7941 38.2983 61.8681 38.5323 62.0161 38.6883C62.1681 38.8443 62.3801 38.9223 62.6521 38.9223C62.8521 38.9223 63.0261 38.8823 63.1741 38.8023C63.3221 38.7183 63.4361 38.5983 63.5161 38.4423C63.5961 38.2823 63.6361 38.0903 63.6361 37.8663V36.2223H64.2121V39.4023H63.6661V38.5443L63.7561 38.7723C63.6521 38.9843 63.4961 39.1483 63.2881 39.2643C63.0801 39.3803 62.8461 39.4383 62.5861 39.4383ZM69.2867 36.1923C69.5427 36.1923 69.7687 36.2423 69.9647 36.3423C70.1607 36.4423 70.3127 36.5943 70.4207 36.7983C70.5327 37.0023 70.5887 37.2603 70.5887 37.5723V39.4023H70.0127V37.6383C70.0127 37.3303 69.9407 37.0983 69.7967 36.9423C69.6527 36.7863 69.4507 36.7083 69.1907 36.7083C68.9987 36.7083 68.8307 36.7483 68.6867 36.8283C68.5427 36.9083 68.4307 37.0263 68.3507 37.1823C68.2747 37.3383 68.2367 37.5323 68.2367 37.7643V39.4023H67.6607V37.6383C67.6607 37.3303 67.5887 37.0983 67.4447 36.9423C67.3047 36.7863 67.1027 36.7083 66.8387 36.7083C66.6507 36.7083 66.4847 36.7483 66.3407 36.8283C66.1967 36.9083 66.0847 37.0263 66.0047 37.1823C65.9247 37.3383 65.8847 37.5323 65.8847 37.7643V39.4023H65.3087V36.2223H65.8607V37.0683L65.7707 36.8523C65.8707 36.6443 66.0247 36.4823 66.2327 36.3663C66.4407 36.2503 66.6827 36.1923 66.9587 36.1923C67.2627 36.1923 67.5247 36.2683 67.7447 36.4203C67.9647 36.5683 68.1087 36.7943 68.1767 37.0983L67.9427 37.0023C68.0387 36.7583 68.2067 36.5623 68.4467 36.4143C68.6867 36.2663 68.9667 36.1923 69.2867 36.1923ZM75.2339 39.4023V38.7303L75.2039 38.6043V37.4583C75.2039 37.2143 75.1319 37.0263 74.9879 36.8943C74.8479 36.7583 74.6359 36.6903 74.3519 36.6903C74.1639 36.6903 73.9799 36.7223 73.7999 36.7863C73.6199 36.8463 73.4679 36.9283 73.3439 37.0323L73.1039 36.6003C73.2679 36.4683 73.4639 36.3683 73.6919 36.3003C73.9239 36.2283 74.1659 36.1923 74.4179 36.1923C74.8539 36.1923 75.1899 36.2983 75.4259 36.5103C75.6619 36.7223 75.7799 37.0463 75.7799 37.4823V39.4023H75.2339ZM74.1899 39.4383C73.9539 39.4383 73.7459 39.3983 73.5659 39.3183C73.3899 39.2383 73.2539 39.1283 73.1579 38.9883C73.0619 38.8443 73.0139 38.6823 73.0139 38.5023C73.0139 38.3303 73.0539 38.1743 73.1339 38.0343C73.2179 37.8943 73.3519 37.7823 73.5359 37.6983C73.7239 37.6143 73.9759 37.5723 74.2919 37.5723H75.2999V37.9863H74.3159C74.0279 37.9863 73.8339 38.0343 73.7339 38.1303C73.6339 38.2263 73.5839 38.3423 73.5839 38.4783C73.5839 38.6343 73.6459 38.7603 73.7699 38.8563C73.8939 38.9483 74.0659 38.9943 74.2859 38.9943C74.5019 38.9943 74.6899 38.9463 74.8499 38.8503C75.0139 38.7543 75.1319 38.6143 75.2039 38.4303L75.3179 38.8263C75.2419 39.0143 75.1079 39.1643 74.9159 39.2763C74.7239 39.3843 74.4819 39.4383 74.1899 39.4383ZM78.5438 36.1923C78.8038 36.1923 79.0318 36.2423 79.2278 36.3423C79.4278 36.4423 79.5838 36.5943 79.6958 36.7983C79.8078 37.0023 79.8638 37.2603 79.8638 37.5723V39.4023H79.2878V37.6383C79.2878 37.3303 79.2118 37.0983 79.0598 36.9423C78.9118 36.7863 78.7018 36.7083 78.4298 36.7083C78.2258 36.7083 78.0478 36.7483 77.8958 36.8283C77.7438 36.9083 77.6258 37.0263 77.5418 37.1823C77.4618 37.3383 77.4218 37.5323 77.4218 37.7643V39.4023H76.8458V36.2223H77.3978V37.0803L77.3078 36.8523C77.4118 36.6443 77.5718 36.4823 77.7878 36.3663C78.0038 36.2503 78.2558 36.1923 78.5438 36.1923ZM82.2438 39.4383C81.9358 39.4383 81.6598 39.3703 81.4158 39.2343C81.1758 39.0983 80.9858 38.9083 80.8458 38.6643C80.7058 38.4203 80.6358 38.1363 80.6358 37.8123C80.6358 37.4883 80.7058 37.2063 80.8458 36.9663C80.9858 36.7223 81.1758 36.5323 81.4158 36.3963C81.6598 36.2603 81.9358 36.1923 82.2438 36.1923C82.5118 36.1923 82.7538 36.2523 82.9698 36.3723C83.1858 36.4923 83.3578 36.6723 83.4858 36.9123C83.6178 37.1523 83.6838 37.4523 83.6838 37.8123C83.6838 38.1723 83.6198 38.4723 83.4918 38.7123C83.3678 38.9523 83.1978 39.1343 82.9818 39.2583C82.7658 39.3783 82.5198 39.4383 82.2438 39.4383ZM82.2918 38.9343C82.4918 38.9343 82.6718 38.8883 82.8318 38.7963C82.9958 38.7043 83.1238 38.5743 83.2158 38.4063C83.3118 38.2343 83.3598 38.0363 83.3598 37.8123C83.3598 37.5843 83.3118 37.3883 83.2158 37.2243C83.1238 37.0563 82.9958 36.9263 82.8318 36.8343C82.6718 36.7423 82.4918 36.6963 82.2918 36.6963C82.0878 36.6963 81.9058 36.7423 81.7458 36.8343C81.5858 36.9263 81.4578 37.0563 81.3618 37.2243C81.2658 37.3883 81.2178 37.5843 81.2178 37.8123C81.2178 38.0363 81.2658 38.2343 81.3618 38.4063C81.4578 38.5743 81.5858 38.7043 81.7458 38.7963C81.9058 38.8883 82.0878 38.9343 82.2918 38.9343ZM83.3778 39.4023V38.5443L83.4138 37.8063L83.3538 37.0683V34.9503H83.9298V39.4023H83.3778ZM86.631 39.4023V36.2223H87.207V39.4023H86.631ZM86.919 35.6103C86.807 35.6103 86.713 35.5743 86.637 35.5023C86.565 35.4303 86.529 35.3423 86.529 35.2383C86.529 35.1303 86.565 35.0403 86.637 34.9683C86.713 34.8963 86.807 34.8603 86.919 34.8603C87.031 34.8603 87.123 34.8963 87.195 34.9683C87.271 35.0363 87.309 35.1223 87.309 35.2263C87.309 35.3343 87.273 35.4263 87.201 35.5023C87.129 35.5743 87.035 35.6103 86.919 35.6103ZM90.0047 36.1923C90.2647 36.1923 90.4927 36.2423 90.6887 36.3423C90.8887 36.4423 91.0447 36.5943 91.1567 36.7983C91.2687 37.0023 91.3247 37.2603 91.3247 37.5723V39.4023H90.7487V37.6383C90.7487 37.3303 90.6727 37.0983 90.5207 36.9423C90.3727 36.7863 90.1627 36.7083 89.8907 36.7083C89.6867 36.7083 89.5087 36.7483 89.3567 36.8283C89.2047 36.9083 89.0867 37.0263 89.0027 37.1823C88.9227 37.3383 88.8827 37.5323 88.8827 37.7643V39.4023H88.3067V36.2223H88.8587V37.0803L88.7687 36.8523C88.8727 36.6443 89.0327 36.4823 89.2487 36.3663C89.4647 36.2503 89.7167 36.1923 90.0047 36.1923ZM93.7767 39.4383C93.4527 39.4383 93.1627 39.3683 92.9067 39.2283C92.6547 39.0883 92.4567 38.8963 92.3127 38.6523C92.1687 38.4083 92.0967 38.1283 92.0967 37.8123C92.0967 37.4963 92.1687 37.2163 92.3127 36.9723C92.4567 36.7283 92.6547 36.5383 92.9067 36.4023C93.1627 36.2623 93.4527 36.1923 93.7767 36.1923C94.0647 36.1923 94.3207 36.2503 94.5447 36.3663C94.7727 36.4783 94.9487 36.6463 95.0727 36.8703L94.6347 37.1523C94.5307 36.9963 94.4027 36.8823 94.2507 36.8103C94.1027 36.7343 93.9427 36.6963 93.7707 36.6963C93.5627 36.6963 93.3767 36.7423 93.2127 36.8343C93.0487 36.9263 92.9187 37.0563 92.8227 37.2243C92.7267 37.3883 92.6787 37.5843 92.6787 37.8123C92.6787 38.0403 92.7267 38.2383 92.8227 38.4063C92.9187 38.5743 93.0487 38.7043 93.2127 38.7963C93.3767 38.8883 93.5627 38.9343 93.7707 38.9343C93.9427 38.9343 94.1027 38.8983 94.2507 38.8263C94.4027 38.7503 94.5307 38.6343 94.6347 38.4783L95.0727 38.7543C94.9487 38.9743 94.7727 39.1443 94.5447 39.2643C94.3207 39.3803 94.0647 39.4383 93.7767 39.4383ZM95.8185 39.4023V36.2223H96.3705V37.0863L96.3165 36.8703C96.4045 36.6503 96.5525 36.4823 96.7605 36.3663C96.9685 36.2503 97.2245 36.1923 97.5285 36.1923V36.7503C97.5045 36.7463 97.4805 36.7443 97.4565 36.7443C97.4365 36.7443 97.4165 36.7443 97.3965 36.7443C97.0885 36.7443 96.8445 36.8363 96.6645 37.0203C96.4845 37.2043 96.3945 37.4703 96.3945 37.8183V39.4023H95.8185ZM99.6251 39.4383C99.2851 39.4383 98.9851 39.3683 98.7251 39.2283C98.4691 39.0883 98.2691 38.8963 98.1251 38.6523C97.9851 38.4083 97.9151 38.1283 97.9151 37.8123C97.9151 37.4963 97.9831 37.2163 98.1191 36.9723C98.2591 36.7283 98.4491 36.5383 98.6891 36.4023C98.9331 36.2623 99.2071 36.1923 99.5111 36.1923C99.8191 36.1923 100.091 36.2603 100.327 36.3963C100.563 36.5323 100.747 36.7243 100.879 36.9723C101.015 37.2163 101.083 37.5023 101.083 37.8303C101.083 37.8543 101.081 37.8823 101.077 37.9143C101.077 37.9463 101.075 37.9763 101.071 38.0043H98.3651V37.5903H100.771L100.537 37.7343C100.541 37.5303 100.499 37.3483 100.411 37.1883C100.323 37.0283 100.201 36.9043 100.045 36.8163C99.8931 36.7243 99.7151 36.6783 99.5111 36.6783C99.3111 36.6783 99.1331 36.7243 98.9771 36.8163C98.8211 36.9043 98.6991 37.0303 98.6111 37.1943C98.5231 37.3543 98.4791 37.5383 98.4791 37.7463V37.8423C98.4791 38.0543 98.5271 38.2443 98.6231 38.4123C98.7231 38.5763 98.8611 38.7043 99.0371 38.7963C99.2131 38.8883 99.4151 38.9343 99.6431 38.9343C99.8311 38.9343 100.001 38.9023 100.153 38.8383C100.309 38.7743 100.445 38.6783 100.561 38.5503L100.879 38.9223C100.735 39.0903 100.555 39.2183 100.339 39.3063C100.127 39.3943 99.8891 39.4383 99.6251 39.4383ZM103.769 39.4023V38.7303L103.739 38.6043V37.4583C103.739 37.2143 103.667 37.0263 103.523 36.8943C103.383 36.7583 103.171 36.6903 102.887 36.6903C102.699 36.6903 102.515 36.7223 102.335 36.7863C102.155 36.8463 102.003 36.9283 101.879 37.0323L101.639 36.6003C101.803 36.4683 101.999 36.3683 102.227 36.3003C102.459 36.2283 102.701 36.1923 102.953 36.1923C103.389 36.1923 103.725 36.2983 103.961 36.5103C104.197 36.7223 104.315 37.0463 104.315 37.4823V39.4023H103.769ZM102.725 39.4383C102.489 39.4383 102.281 39.3983 102.101 39.3183C101.925 39.2383 101.789 39.1283 101.693 38.9883C101.597 38.8443 101.549 38.6823 101.549 38.5023C101.549 38.3303 101.589 38.1743 101.669 38.0343C101.753 37.8943 101.887 37.7823 102.071 37.6983C102.259 37.6143 102.511 37.5723 102.827 37.5723H103.835V37.9863H102.851C102.563 37.9863 102.369 38.0343 102.269 38.1303C102.169 38.2263 102.119 38.3423 102.119 38.4783C102.119 38.6343 102.181 38.7603 102.305 38.8563C102.429 38.9483 102.601 38.9943 102.821 38.9943C103.037 38.9943 103.225 38.9463 103.385 38.8503C103.549 38.7543 103.667 38.6143 103.739 38.4303L103.853 38.8263C103.777 39.0143 103.643 39.1643 103.451 39.2763C103.259 39.3843 103.017 39.4383 102.725 39.4383ZM106.293 39.4383C106.029 39.4383 105.777 39.4023 105.537 39.3303C105.301 39.2583 105.115 39.1703 104.979 39.0663L105.219 38.6103C105.355 38.7023 105.523 38.7803 105.723 38.8443C105.923 38.9083 106.127 38.9403 106.335 38.9403C106.603 38.9403 106.795 38.9023 106.911 38.8263C107.031 38.7503 107.091 38.6443 107.091 38.5083C107.091 38.4083 107.055 38.3303 106.983 38.2743C106.911 38.2183 106.815 38.1763 106.695 38.1483C106.579 38.1203 106.449 38.0963 106.305 38.0763C106.161 38.0523 106.017 38.0243 105.873 37.9923C105.729 37.9563 105.597 37.9083 105.477 37.8483C105.357 37.7843 105.261 37.6983 105.189 37.5903C105.117 37.4783 105.081 37.3303 105.081 37.1463C105.081 36.9543 105.135 36.7863 105.243 36.6423C105.351 36.4983 105.503 36.3883 105.699 36.3123C105.899 36.2323 106.135 36.1923 106.407 36.1923C106.615 36.1923 106.825 36.2183 107.037 36.2703C107.253 36.3183 107.429 36.3883 107.565 36.4803L107.319 36.9363C107.175 36.8403 107.025 36.7743 106.869 36.7383C106.713 36.7023 106.557 36.6843 106.401 36.6843C106.149 36.6843 105.961 36.7263 105.837 36.8103C105.713 36.8903 105.651 36.9943 105.651 37.1223C105.651 37.2303 105.687 37.3143 105.759 37.3743C105.835 37.4303 105.931 37.4743 106.047 37.5063C106.167 37.5383 106.299 37.5663 106.443 37.5903C106.587 37.6103 106.731 37.6383 106.875 37.6743C107.019 37.7063 107.149 37.7523 107.265 37.8123C107.385 37.8723 107.481 37.9563 107.553 38.0643C107.629 38.1723 107.667 38.3163 107.667 38.4963C107.667 38.6883 107.611 38.8543 107.499 38.9943C107.387 39.1343 107.229 39.2443 107.025 39.3243C106.821 39.4003 106.577 39.4383 106.293 39.4383ZM109.803 39.4383C109.463 39.4383 109.163 39.3683 108.903 39.2283C108.647 39.0883 108.447 38.8963 108.303 38.6523C108.163 38.4083 108.093 38.1283 108.093 37.8123C108.093 37.4963 108.161 37.2163 108.297 36.9723C108.437 36.7283 108.627 36.5383 108.867 36.4023C109.111 36.2623 109.385 36.1923 109.689 36.1923C109.997 36.1923 110.269 36.2603 110.505 36.3963C110.741 36.5323 110.925 36.7243 111.057 36.9723C111.193 37.2163 111.261 37.5023 111.261 37.8303C111.261 37.8543 111.259 37.8823 111.255 37.9143C111.255 37.9463 111.253 37.9763 111.249 38.0043H108.543V37.5903H110.949L110.715 37.7343C110.719 37.5303 110.677 37.3483 110.589 37.1883C110.501 37.0283 110.379 36.9043 110.223 36.8163C110.071 36.7243 109.893 36.6783 109.689 36.6783C109.489 36.6783 109.311 36.7243 109.155 36.8163C108.999 36.9043 108.877 37.0303 108.789 37.1943C108.701 37.3543 108.657 37.5383 108.657 37.7463V37.8423C108.657 38.0543 108.705 38.2443 108.801 38.4123C108.901 38.5763 109.039 38.7043 109.215 38.7963C109.391 38.8883 109.593 38.9343 109.821 38.9343C110.009 38.9343 110.179 38.9023 110.331 38.8383C110.487 38.7743 110.623 38.6783 110.739 38.5503L111.057 38.9223C110.913 39.0903 110.733 39.2183 110.517 39.3063C110.305 39.3943 110.067 39.4383 109.803 39.4383ZM30.8998 48.6023C30.7478 48.6023 30.5998 48.5763 30.4558 48.5243C30.3118 48.4763 30.1878 48.4043 30.0838 48.3083L30.3298 47.8763C30.4098 47.9523 30.4978 48.0103 30.5938 48.0503C30.6898 48.0903 30.7918 48.1103 30.8998 48.1103C31.0398 48.1103 31.1558 48.0743 31.2478 48.0023C31.3398 47.9303 31.4258 47.8023 31.5058 47.6183L31.7038 47.1803L31.7638 47.1083L33.0118 44.2223H33.5758L32.0338 47.7203C31.9418 47.9443 31.8378 48.1203 31.7218 48.2483C31.6098 48.3763 31.4858 48.4663 31.3498 48.5183C31.2138 48.5743 31.0638 48.6023 30.8998 48.6023ZM31.6558 47.5043L30.2038 44.2223H30.8038L32.0398 47.0543L31.6558 47.5043ZM35.3875 47.4383C35.0675 47.4383 34.7835 47.3683 34.5355 47.2283C34.2875 47.0883 34.0915 46.8963 33.9475 46.6523C33.8035 46.4043 33.7315 46.1243 33.7315 45.8123C33.7315 45.4963 33.8035 45.2163 33.9475 44.9723C34.0915 44.7283 34.2875 44.5383 34.5355 44.4023C34.7835 44.2623 35.0675 44.1923 35.3875 44.1923C35.7035 44.1923 35.9855 44.2623 36.2335 44.4023C36.4855 44.5383 36.6815 44.7283 36.8215 44.9723C36.9655 45.2123 37.0375 45.4923 37.0375 45.8123C37.0375 46.1283 36.9655 46.4083 36.8215 46.6523C36.6815 46.8963 36.4855 47.0883 36.2335 47.2283C35.9855 47.3683 35.7035 47.4383 35.3875 47.4383ZM35.3875 46.9343C35.5915 46.9343 35.7735 46.8883 35.9335 46.7963C36.0975 46.7043 36.2255 46.5743 36.3175 46.4063C36.4095 46.2343 36.4555 46.0363 36.4555 45.8123C36.4555 45.5843 36.4095 45.3883 36.3175 45.2243C36.2255 45.0563 36.0975 44.9263 35.9335 44.8343C35.7735 44.7423 35.5915 44.6963 35.3875 44.6963C35.1835 44.6963 35.0015 44.7423 34.8415 44.8343C34.6815 44.9263 34.5535 45.0563 34.4575 45.2243C34.3615 45.3883 34.3135 45.5843 34.3135 45.8123C34.3135 46.0363 34.3615 46.2343 34.4575 46.4063C34.5535 46.5743 34.6815 46.7043 34.8415 46.7963C35.0015 46.8883 35.1835 46.9343 35.3875 46.9343ZM39.1721 47.4383C38.9001 47.4383 38.6601 47.3883 38.4521 47.2883C38.2481 47.1883 38.0881 47.0363 37.9721 46.8323C37.8601 46.6243 37.8041 46.3643 37.8041 46.0523V44.2223H38.3801V45.9863C38.3801 46.2983 38.4541 46.5323 38.6021 46.6883C38.7541 46.8443 38.9661 46.9223 39.2381 46.9223C39.4381 46.9223 39.6121 46.8823 39.7601 46.8023C39.9081 46.7183 40.0221 46.5983 40.1021 46.4423C40.1821 46.2823 40.2221 46.0903 40.2221 45.8663V44.2223H40.7981V47.4023H40.2521V46.5443L40.3421 46.7723C40.2381 46.9843 40.0821 47.1483 39.8741 47.2643C39.6661 47.3803 39.4321 47.4383 39.1721 47.4383ZM41.8946 47.4023V44.2223H42.4466V45.0863L42.3926 44.8703C42.4806 44.6503 42.6286 44.4823 42.8366 44.3663C43.0446 44.2503 43.3006 44.1923 43.6046 44.1923V44.7503C43.5806 44.7463 43.5566 44.7443 43.5326 44.7443C43.5126 44.7443 43.4926 44.7443 43.4726 44.7443C43.1646 44.7443 42.9206 44.8363 42.7406 45.0203C42.5606 45.2043 42.4706 45.4703 42.4706 45.8183V47.4023H41.8946ZM45.9669 47.4023V44.2223H46.5189V45.0863L46.4649 44.8703C46.5529 44.6503 46.7009 44.4823 46.9089 44.3663C47.1169 44.2503 47.3729 44.1923 47.6769 44.1923V44.7503C47.6529 44.7463 47.6289 44.7443 47.6049 44.7443C47.5849 44.7443 47.5649 44.7443 47.5449 44.7443C47.2369 44.7443 46.9929 44.8363 46.8129 45.0203C46.6329 45.2043 46.5429 45.4703 46.5429 45.8183V47.4023H45.9669ZM50.1264 47.4023V46.7303L50.0964 46.6043V45.4583C50.0964 45.2143 50.0244 45.0263 49.8804 44.8943C49.7404 44.7583 49.5284 44.6903 49.2444 44.6903C49.0564 44.6903 48.8724 44.7223 48.6924 44.7863C48.5124 44.8463 48.3604 44.9283 48.2364 45.0323L47.9964 44.6003C48.1604 44.4683 48.3564 44.3683 48.5844 44.3003C48.8164 44.2283 49.0584 44.1923 49.3104 44.1923C49.7464 44.1923 50.0824 44.2983 50.3184 44.5103C50.5544 44.7223 50.6724 45.0463 50.6724 45.4823V47.4023H50.1264ZM49.0824 47.4383C48.8464 47.4383 48.6384 47.3983 48.4584 47.3183C48.2824 47.2383 48.1464 47.1283 48.0504 46.9883C47.9544 46.8443 47.9064 46.6823 47.9064 46.5023C47.9064 46.3303 47.9464 46.1743 48.0264 46.0343C48.1104 45.8943 48.2444 45.7823 48.4284 45.6983C48.6164 45.6143 48.8684 45.5723 49.1844 45.5723H50.1924V45.9863H49.2084C48.9204 45.9863 48.7264 46.0343 48.6264 46.1303C48.5264 46.2263 48.4764 46.3423 48.4764 46.4783C48.4764 46.6343 48.5384 46.7603 48.6624 46.8563C48.7864 46.9483 48.9584 46.9943 49.1784 46.9943C49.3944 46.9943 49.5824 46.9463 49.7424 46.8503C49.9064 46.7543 50.0244 46.6143 50.0964 46.4303L50.2104 46.8263C50.1344 47.0143 50.0004 47.1643 49.8084 47.2763C49.6164 47.3843 49.3744 47.4383 49.0824 47.4383ZM53.4364 44.1923C53.6964 44.1923 53.9244 44.2423 54.1204 44.3423C54.3204 44.4423 54.4764 44.5943 54.5884 44.7983C54.7004 45.0023 54.7564 45.2603 54.7564 45.5723V47.4023H54.1804V45.6383C54.1804 45.3303 54.1044 45.0983 53.9524 44.9423C53.8044 44.7863 53.5944 44.7083 53.3224 44.7083C53.1184 44.7083 52.9404 44.7483 52.7884 44.8283C52.6364 44.9083 52.5184 45.0263 52.4344 45.1823C52.3544 45.3383 52.3144 45.5323 52.3144 45.7643V47.4023H51.7384V44.2223H52.2904V45.0803L52.2004 44.8523C52.3044 44.6443 52.4644 44.4823 52.6804 44.3663C52.8964 44.2503 53.1484 44.1923 53.4364 44.1923ZM56.2904 46.6343L56.3024 45.8963L58.1324 44.2223H58.8284L57.4244 45.6023L57.1124 45.8663L56.2904 46.6343ZM55.8224 47.4023V42.9503H56.3984V47.4023H55.8224ZM58.2524 47.4023L57.0044 45.8543L57.3764 45.3923L58.9604 47.4023H58.2524ZM60.669 47.4023L62.037 45.6263L62.031 45.9203L60.729 44.2223H61.371L62.367 45.5303H62.121L63.117 44.2223H63.747L62.427 45.9323L62.433 45.6263L63.813 47.4023H63.159L62.109 46.0103L62.343 46.0463L61.311 47.4023H60.669ZM63.9243 46.3703V45.9503L66.0723 43.2023H66.7203L64.5903 45.9503L64.2843 45.8543H67.6383V46.3703H63.9243ZM66.2583 47.4023V46.3703L66.2763 45.8543V44.9423H66.8403V47.4023H66.2583ZM69.9513 47.4023V43.9403C69.9513 43.6283 70.0413 43.3803 70.2213 43.1963C70.4053 43.0083 70.6653 42.9143 71.0013 42.9143C71.1253 42.9143 71.2433 42.9303 71.3553 42.9623C71.4713 42.9903 71.5693 43.0363 71.6493 43.1003L71.4753 43.5383C71.4153 43.4903 71.3473 43.4543 71.2713 43.4303C71.1953 43.4023 71.1153 43.3883 71.0313 43.3883C70.8633 43.3883 70.7353 43.4363 70.6473 43.5323C70.5593 43.6243 70.5153 43.7623 70.5153 43.9463V44.3723L70.5273 44.6363V47.4023H69.9513ZM69.4113 44.6963V44.2223H71.4393V44.6963H69.4113ZM73.8979 47.4023V46.7303L73.8679 46.6043V45.4583C73.8679 45.2143 73.7959 45.0263 73.6519 44.8943C73.5119 44.7583 73.2999 44.6903 73.0159 44.6903C72.8279 44.6903 72.6439 44.7223 72.4639 44.7863C72.2839 44.8463 72.1319 44.9283 72.0079 45.0323L71.7679 44.6003C71.9319 44.4683 72.1279 44.3683 72.3559 44.3003C72.5879 44.2283 72.8299 44.1923 73.0819 44.1923C73.5179 44.1923 73.8539 44.2983 74.0899 44.5103C74.3259 44.7223 74.4439 45.0463 74.4439 45.4823V47.4023H73.8979ZM72.8539 47.4383C72.6179 47.4383 72.4099 47.3983 72.2299 47.3183C72.0539 47.2383 71.9179 47.1283 71.8219 46.9883C71.7259 46.8443 71.6779 46.6823 71.6779 46.5023C71.6779 46.3303 71.7179 46.1743 71.7979 46.0343C71.8819 45.8943 72.0159 45.7823 72.1999 45.6983C72.3879 45.6143 72.6399 45.5723 72.9559 45.5723H73.9639V45.9863H72.9799C72.6919 45.9863 72.4979 46.0343 72.3979 46.1303C72.2979 46.2263 72.2479 46.3423 72.2479 46.4783C72.2479 46.6343 72.3099 46.7603 72.4339 46.8563C72.5579 46.9483 72.7299 46.9943 72.9499 46.9943C73.1659 46.9943 73.3539 46.9463 73.5139 46.8503C73.6779 46.7543 73.7959 46.6143 73.8679 46.4303L73.9819 46.8263C73.9059 47.0143 73.7719 47.1643 73.5799 47.2763C73.3879 47.3843 73.1459 47.4383 72.8539 47.4383ZM76.4219 47.4383C76.1579 47.4383 75.9059 47.4023 75.6659 47.3303C75.4299 47.2583 75.2439 47.1703 75.1079 47.0663L75.3479 46.6103C75.4839 46.7023 75.6519 46.7803 75.8519 46.8443C76.0519 46.9083 76.2559 46.9403 76.4639 46.9403C76.7319 46.9403 76.9239 46.9023 77.0399 46.8263C77.1599 46.7503 77.2199 46.6443 77.2199 46.5083C77.2199 46.4083 77.1839 46.3303 77.1119 46.2743C77.0399 46.2183 76.9439 46.1763 76.8239 46.1483C76.7079 46.1203 76.5779 46.0963 76.4339 46.0763C76.2899 46.0523 76.1459 46.0243 76.0019 45.9923C75.8579 45.9563 75.7259 45.9083 75.6059 45.8483C75.4859 45.7843 75.3899 45.6983 75.3179 45.5903C75.2459 45.4783 75.2099 45.3303 75.2099 45.1463C75.2099 44.9543 75.2639 44.7863 75.3719 44.6423C75.4799 44.4983 75.6319 44.3883 75.8279 44.3123C76.0279 44.2323 76.2639 44.1923 76.5359 44.1923C76.7439 44.1923 76.9539 44.2183 77.1659 44.2703C77.3819 44.3183 77.5579 44.3883 77.6939 44.4803L77.4479 44.9363C77.3039 44.8403 77.1539 44.7743 76.9979 44.7383C76.8419 44.7023 76.6859 44.6843 76.5299 44.6843C76.2779 44.6843 76.0899 44.7263 75.9659 44.8103C75.8419 44.8903 75.7799 44.9943 75.7799 45.1223C75.7799 45.2303 75.8159 45.3143 75.8879 45.3743C75.9639 45.4303 76.0599 45.4743 76.1759 45.5063C76.2959 45.5383 76.4279 45.5663 76.5719 45.5903C76.7159 45.6103 76.8599 45.6383 77.0039 45.6743C77.1479 45.7063 77.2779 45.7523 77.3939 45.8123C77.5139 45.8723 77.6099 45.9563 77.6819 46.0643C77.7579 46.1723 77.7959 46.3163 77.7959 46.4963C77.7959 46.6883 77.7399 46.8543 77.6279 46.9943C77.5159 47.1343 77.3579 47.2443 77.1539 47.3243C76.9499 47.4003 76.7059 47.4383 76.4219 47.4383ZM79.6077 47.4383C79.2877 47.4383 79.0397 47.3523 78.8637 47.1803C78.6877 47.0083 78.5997 46.7623 78.5997 46.4423V43.5263H79.1757V46.4183C79.1757 46.5903 79.2177 46.7223 79.3017 46.8143C79.3897 46.9063 79.5137 46.9523 79.6737 46.9523C79.8537 46.9523 80.0037 46.9023 80.1237 46.8023L80.3037 47.2163C80.2157 47.2923 80.1097 47.3483 79.9857 47.3843C79.8657 47.4203 79.7397 47.4383 79.6077 47.4383ZM78.0597 44.6963V44.2223H80.0877V44.6963H78.0597ZM82.3106 47.4383C81.9706 47.4383 81.6706 47.3683 81.4106 47.2283C81.1546 47.0883 80.9546 46.8963 80.8106 46.6523C80.6706 46.4083 80.6006 46.1283 80.6006 45.8123C80.6006 45.4963 80.6686 45.2163 80.8046 44.9723C80.9446 44.7283 81.1346 44.5383 81.3746 44.4023C81.6186 44.2623 81.8926 44.1923 82.1966 44.1923C82.5046 44.1923 82.7766 44.2603 83.0126 44.3963C83.2486 44.5323 83.4326 44.7243 83.5646 44.9723C83.7006 45.2163 83.7686 45.5023 83.7686 45.8303C83.7686 45.8543 83.7666 45.8823 83.7626 45.9143C83.7626 45.9463 83.7606 45.9763 83.7566 46.0043H81.0506V45.5903H83.4566L83.2226 45.7343C83.2266 45.5303 83.1846 45.3483 83.0966 45.1883C83.0086 45.0283 82.8866 44.9043 82.7306 44.8163C82.5786 44.7243 82.4006 44.6783 82.1966 44.6783C81.9966 44.6783 81.8186 44.7243 81.6626 44.8163C81.5066 44.9043 81.3846 45.0303 81.2966 45.1943C81.2086 45.3543 81.1646 45.5383 81.1646 45.7463V45.8423C81.1646 46.0543 81.2126 46.2443 81.3086 46.4123C81.4086 46.5763 81.5466 46.7043 81.7226 46.7963C81.8986 46.8883 82.1006 46.9343 82.3286 46.9343C82.5166 46.9343 82.6866 46.9023 82.8386 46.8383C82.9946 46.7743 83.1306 46.6783 83.2466 46.5503L83.5646 46.9223C83.4206 47.0903 83.2406 47.2183 83.0246 47.3063C82.8126 47.3943 82.5746 47.4383 82.3106 47.4383ZM84.5685 47.4023V44.2223H85.1205V45.0863L85.0665 44.8703C85.1545 44.6503 85.3025 44.4823 85.5105 44.3663C85.7185 44.2503 85.9745 44.1923 86.2785 44.1923V44.7503C86.2545 44.7463 86.2305 44.7443 86.2065 44.7443C86.1865 44.7443 86.1665 44.7443 86.1465 44.7443C85.8385 44.7443 85.5945 44.8363 85.4145 45.0203C85.2345 45.2043 85.1445 45.4703 85.1445 45.8183V47.4023H84.5685ZM87.1088 47.4383C86.9968 47.4383 86.9008 47.4003 86.8208 47.3243C86.7408 47.2443 86.7008 47.1443 86.7008 47.0243C86.7008 46.9043 86.7408 46.8063 86.8208 46.7303C86.9008 46.6543 86.9968 46.6163 87.1088 46.6163C87.2168 46.6163 87.3088 46.6543 87.3848 46.7303C87.4648 46.8063 87.5048 46.9043 87.5048 47.0243C87.5048 47.1443 87.4648 47.2443 87.3848 47.3243C87.3088 47.4003 87.2168 47.4383 87.1088 47.4383Z" fill="#F7F7FF"/>
<path d="M73.9366 62.4023V58.2023H75.5746C75.9426 58.2023 76.2566 58.2603 76.5166 58.3763C76.7766 58.4923 76.9766 58.6603 77.1166 58.8803C77.2566 59.1003 77.3266 59.3623 77.3266 59.6663C77.3266 59.9703 77.2566 60.2323 77.1166 60.4523C76.9766 60.6683 76.7766 60.8363 76.5166 60.9563C76.2566 61.0723 75.9426 61.1303 75.5746 61.1303H74.2666L74.5366 60.8483V62.4023H73.9366ZM74.5366 60.9083L74.2666 60.6083H75.5566C75.9406 60.6083 76.2306 60.5263 76.4266 60.3623C76.6266 60.1983 76.7266 59.9663 76.7266 59.6663C76.7266 59.3663 76.6266 59.1343 76.4266 58.9703C76.2306 58.8063 75.9406 58.7243 75.5566 58.7243H74.2666L74.5366 58.4243V60.9083ZM78.0655 62.4023V59.2223H78.6175V60.0863L78.5635 59.8703C78.6515 59.6503 78.7995 59.4823 79.0075 59.3663C79.2155 59.2503 79.4715 59.1923 79.7755 59.1923V59.7503C79.7515 59.7463 79.7275 59.7443 79.7035 59.7443C79.6835 59.7443 79.6635 59.7443 79.6435 59.7443C79.3355 59.7443 79.0915 59.8363 78.9115 60.0203C78.7315 60.2043 78.6415 60.4703 78.6415 60.8183V62.4023H78.0655ZM81.8722 62.4383C81.5322 62.4383 81.2322 62.3683 80.9722 62.2283C80.7162 62.0883 80.5162 61.8963 80.3722 61.6523C80.2322 61.4083 80.1622 61.1283 80.1622 60.8123C80.1622 60.4963 80.2302 60.2163 80.3662 59.9723C80.5062 59.7283 80.6962 59.5383 80.9362 59.4023C81.1802 59.2623 81.4542 59.1923 81.7582 59.1923C82.0662 59.1923 82.3382 59.2603 82.5742 59.3963C82.8102 59.5323 82.9942 59.7243 83.1262 59.9723C83.2622 60.2163 83.3302 60.5023 83.3302 60.8303C83.3302 60.8543 83.3282 60.8823 83.3242 60.9143C83.3242 60.9463 83.3222 60.9763 83.3182 61.0043H80.6122V60.5903H83.0182L82.7842 60.7343C82.7882 60.5303 82.7462 60.3483 82.6582 60.1883C82.5702 60.0283 82.4482 59.9043 82.2922 59.8163C82.1402 59.7243 81.9622 59.6783 81.7582 59.6783C81.5582 59.6783 81.3802 59.7243 81.2242 59.8163C81.0682 59.9043 80.9462 60.0303 80.8582 60.1943C80.7702 60.3543 80.7262 60.5383 80.7262 60.7463V60.8423C80.7262 61.0543 80.7742 61.2443 80.8702 61.4123C80.9702 61.5763 81.1082 61.7043 81.2842 61.7963C81.4602 61.8883 81.6622 61.9343 81.8902 61.9343C82.0782 61.9343 82.2482 61.9023 82.4002 61.8383C82.5562 61.7743 82.6922 61.6783 82.8082 61.5503L83.1262 61.9223C82.9822 62.0903 82.8022 62.2183 82.5862 62.3063C82.3742 62.3943 82.1362 62.4383 81.8722 62.4383ZM88.108 59.1923C88.364 59.1923 88.59 59.2423 88.786 59.3423C88.982 59.4423 89.134 59.5943 89.242 59.7983C89.354 60.0023 89.41 60.2603 89.41 60.5723V62.4023H88.834V60.6383C88.834 60.3303 88.762 60.0983 88.618 59.9423C88.474 59.7863 88.272 59.7083 88.012 59.7083C87.82 59.7083 87.652 59.7483 87.508 59.8283C87.364 59.9083 87.252 60.0263 87.172 60.1823C87.096 60.3383 87.058 60.5323 87.058 60.7643V62.4023H86.482V60.6383C86.482 60.3303 86.41 60.0983 86.266 59.9423C86.126 59.7863 85.924 59.7083 85.66 59.7083C85.472 59.7083 85.306 59.7483 85.162 59.8283C85.018 59.9083 84.906 60.0263 84.826 60.1823C84.746 60.3383 84.706 60.5323 84.706 60.7643V62.4023H84.13V59.2223H84.682V60.0683L84.592 59.8523C84.692 59.6443 84.846 59.4823 85.054 59.3663C85.262 59.2503 85.504 59.1923 85.78 59.1923C86.084 59.1923 86.346 59.2683 86.566 59.4203C86.786 59.5683 86.93 59.7943 86.998 60.0983L86.764 60.0023C86.86 59.7583 87.028 59.5623 87.268 59.4143C87.508 59.2663 87.788 59.1923 88.108 59.1923ZM90.4698 62.4023V59.2223H91.0458V62.4023H90.4698ZM90.7578 58.6103C90.6458 58.6103 90.5518 58.5743 90.4758 58.5023C90.4038 58.4303 90.3678 58.3423 90.3678 58.2383C90.3678 58.1303 90.4038 58.0403 90.4758 57.9683C90.5518 57.8963 90.6458 57.8603 90.7578 57.8603C90.8698 57.8603 90.9618 57.8963 91.0338 57.9683C91.1098 58.0363 91.1478 58.1223 91.1478 58.2263C91.1478 58.3343 91.1118 58.4263 91.0398 58.5023C90.9678 58.5743 90.8738 58.6103 90.7578 58.6103ZM93.4836 62.4383C93.2116 62.4383 92.9716 62.3883 92.7636 62.2883C92.5596 62.1883 92.3996 62.0363 92.2836 61.8323C92.1716 61.6243 92.1156 61.3643 92.1156 61.0523V59.2223H92.6916V60.9863C92.6916 61.2983 92.7656 61.5323 92.9136 61.6883C93.0656 61.8443 93.2776 61.9223 93.5496 61.9223C93.7496 61.9223 93.9236 61.8823 94.0716 61.8023C94.2196 61.7183 94.3336 61.5983 94.4136 61.4423C94.4936 61.2823 94.5336 61.0903 94.5336 60.8663V59.2223H95.1096V62.4023H94.5636V61.5443L94.6536 61.7723C94.5496 61.9843 94.3936 62.1483 94.1856 62.2643C93.9776 62.3803 93.7436 62.4383 93.4836 62.4383ZM100.184 59.1923C100.44 59.1923 100.666 59.2423 100.862 59.3423C101.058 59.4423 101.21 59.5943 101.318 59.7983C101.43 60.0023 101.486 60.2603 101.486 60.5723V62.4023H100.91V60.6383C100.91 60.3303 100.838 60.0983 100.694 59.9423C100.55 59.7863 100.348 59.7083 100.088 59.7083C99.8962 59.7083 99.7282 59.7483 99.5842 59.8283C99.4402 59.9083 99.3282 60.0263 99.2482 60.1823C99.1722 60.3383 99.1342 60.5323 99.1342 60.7643V62.4023H98.5582V60.6383C98.5582 60.3303 98.4862 60.0983 98.3422 59.9423C98.2022 59.7863 98.0002 59.7083 97.7362 59.7083C97.5482 59.7083 97.3822 59.7483 97.2382 59.8283C97.0942 59.9083 96.9822 60.0263 96.9022 60.1823C96.8222 60.3383 96.7822 60.5323 96.7822 60.7643V62.4023H96.2062V59.2223H96.7582V60.0683L96.6682 59.8523C96.7682 59.6443 96.9222 59.4823 97.1302 59.3663C97.3382 59.2503 97.5802 59.1923 97.8562 59.1923C98.1602 59.1923 98.4222 59.2683 98.6422 59.4203C98.8622 59.5683 99.0062 59.7943 99.0742 60.0983L98.8402 60.0023C98.9362 59.7583 99.1042 59.5623 99.3442 59.4143C99.5842 59.2663 99.8642 59.1923 100.184 59.1923Z" fill="#FBF36D"/>
<path d="M114.133 74.474H112.171V73.9818H114.133V74.474ZM110.207 74.474H108.242V73.9818H110.207V74.474ZM106.28 74.474H104.319V73.9818H106.28V74.474ZM102.361 74.474H100.396V73.9818H102.351L102.361 74.474ZM98.4311 74.474H96.4696V73.9818H98.4311V74.474ZM94.5112 74.474H92.5464V73.9818H94.5112V74.474ZM90.5817 74.474H88.6234V73.9818H90.569L90.5817 74.474ZM86.6618 74.474H84.6971V73.9818H86.6618V74.474ZM82.7324 74.474H80.7708V73.9818H82.7324V74.474ZM78.8093 74.474H76.8509V73.9818H78.8093V74.474ZM74.8862 74.474H72.9215V73.9818H74.8862V74.474ZM70.9599 74.474H69.0016V73.9818H70.9599V74.474ZM67.0368 74.474H65.0721V73.9818H67.0368V74.474ZM63.1138 74.474H61.1522V73.9818H63.1138V74.474ZM59.1875 74.474H57.226V73.9818H59.1875V74.474ZM55.2612 74.474H53.3124V73.9818H55.2708L55.2612 74.474ZM51.3382 74.474H49.3766V73.9818H51.3382V74.474ZM47.4119 74.474H45.4503V73.9818H47.4119V74.474ZM43.492 74.474H41.5304V73.9818H43.4952L43.492 74.474ZM39.5625 74.474H37.6042V73.9818H39.5625V74.474ZM35.6426 74.474H33.6779V73.9818H35.6426V74.474ZM31.7164 74.474H29.7484V73.9818H31.71L31.7164 74.474ZM27.7901 74.474H25.8317V73.9818H27.7901V74.474ZM23.867 74.474H21.9023V73.9818H23.867V74.474ZM19.9407 74.474H17.9824V73.9818H19.9407V74.474ZM16.0176 74.474H14.0529V73.9818H16.0176V74.474ZM12.0946 74.474H10.133V73.9818H12.0946V74.474ZM8.16827 74.474H6.20671V73.9818H8.16827V74.474ZM4.49355 74.2311H4V72.2591H4.49355V74.2311ZM115.684 73.5727H115.197V71.6039H115.684V73.5727ZM4.49355 70.2935H4V68.3215H4.49355V70.2935ZM115.684 69.6383H115.197V67.6663H115.684V69.6383ZM4.49355 66.3527H4V64.3839H4.49355V66.3527ZM115.684 65.6975H115.197V63.7318H115.684V65.6975ZM4.49355 62.4182H4V60.4462H4.49355V62.4182ZM115.684 61.763H115.197V59.791H115.684V61.763ZM4.49355 58.4742H4V56.5086H4.49355V58.4742ZM115.684 57.835H115.197V55.8662H115.684V57.835ZM4.49355 54.527H4V52.555H4.49355V54.527ZM115.684 53.8878H115.197V51.919H115.684V53.8878ZM4.49355 50.5958H4V48.627H4.49355V50.5958ZM115.684 49.9406H115.197V47.9686H115.684V49.9406ZM4.49355 46.6582H4V44.6862H4.49355V46.6582ZM115.684 45.9998H115.197V44.0342H115.684V45.9998ZM4.49355 42.7173H4V40.7485H4.49355V42.7173ZM115.684 42.0621H115.197V40.0901H115.684V42.0621ZM4.49355 38.7765H4V36.8109H4.49355V38.7765ZM115.684 38.1373H115.197V36.1685H115.684V38.1373ZM4.49355 34.8389H4V32.8669H4.49355V34.8389ZM115.684 34.1997H115.197V32.2277H115.684V34.1997ZM4.49355 30.9173H4V28.9485H4.49355V30.9173ZM115.684 30.2365H115.197V28.2677H115.684V30.2365ZM4.49355 26.9541H4V24.9821H4.49355V26.9541ZM115.684 26.2989H115.197V24.3301H115.684V26.2989ZM4.49355 23.0165H4V21.0476H4.49355V23.0165ZM115.684 22.3581H115.197V20.3892H115.684V22.3581ZM4.49355 19.0788H4V17.1068H4.49355V19.0788ZM115.684 18.4236H115.197V16.4516H115.684V18.4236ZM4.49355 15.138H4V13.1692H4.49355V15.138ZM115.684 14.4796H115.197V12.514H115.684V14.4796ZM4.49355 11.2004H4V9.22839H4.49355V11.2004ZM115.684 10.5612H115.197V8.58916H115.684V10.5612ZM4.49355 7.27236H4V5.30675H4.49355V7.27236ZM115.684 6.61716H115.197V4.65155H115.684V6.61716ZM113.477 4.89445H111.515V4.40225H113.477V4.89445ZM109.554 4.89445H107.592V4.40225H109.554V4.89445ZM105.628 4.89445H103.666V4.40225H105.628V4.89445ZM101.708 4.89445H99.743V4.40225H101.714L101.708 4.89445ZM97.7783 4.89445H95.8199V4.40225H97.7783V4.89445ZM93.8552 4.89445H91.8937V4.40225H93.8552V4.89445ZM89.9289 4.89445H87.9674V4.40225H89.9321L89.9289 4.89445ZM86.0059 4.89445H84.0443V4.40225H86.0059V4.89445ZM82.0828 4.89445H80.1181V4.40225H82.0828V4.89445ZM78.1565 4.89445H76.1981V4.40225H78.1501L78.1565 4.89445ZM74.2334 4.89445H72.2687V4.40225H74.2334V4.89445ZM70.3103 4.89445H68.3488V4.40225H70.3103V4.89445ZM66.3841 4.89445H64.4193V4.40225H66.3841V4.89445ZM62.461 4.89445H60.4994V4.40225H62.461V4.89445ZM58.5347 4.89445H56.5732V4.40225H58.5347V4.89445ZM54.6084 4.89445H52.6469V4.40225H54.6084V4.89445ZM50.6885 4.89445H48.7238V4.40225H50.6885V4.89445ZM46.7591 4.89445H44.8007V4.40225H46.7591V4.89445ZM42.8392 4.89445H40.8744V4.40225H42.8392V4.89445ZM38.9097 4.89445H36.9514V4.40225H38.9097V4.89445ZM34.9898 4.89445H33.0251V4.40225H34.9898V4.89445ZM31.0636 4.89445H29.1116V4.40225H31.0763L31.0636 4.89445ZM27.1373 4.89445H25.1789V4.40225H27.1373V4.89445ZM23.2142 4.89445H21.2495V4.40225H23.2142V4.89445ZM19.2911 4.89445H17.3296V4.40225H19.2911V4.89445ZM15.3648 4.89445H13.4001V4.40225H15.3648V4.89445ZM11.4418 4.89445H9.48021V4.40225H11.4418V4.89445ZM7.5155 4.89445H5.54758V4.40225H7.50913L7.5155 4.89445Z" fill="#FBF36D"/>
<defs>
<radialGradient id="paint0_radial_686_19011" cx="0" cy="0" r="1" gradientUnits="userSpaceOnUse" gradientTransform="translate(27.9679 -33.2712) scale(100.078 100.448)">
<stop stop-color="#5C5C5C"/>
<stop offset="0.52" stop-color="#3C3C3C"/>
<stop offset="1" stop-color="#242424"/>
</radialGradient>
<linearGradient id="paint1_linear_686_19011" x1="60.0277" y1="-5.81373" x2="60.0277" y2="80.8874" gradientUnits="userSpaceOnUse">
<stop stop-color="#2F4858"/>
<stop offset="1" stop-color="#112D3E"/>
</linearGradient>
<linearGradient id="paint2_linear_686_19011" x1="60" y1="6.5" x2="60.031" y2="80.2633" gradientUnits="userSpaceOnUse">
<stop offset="0.242636" stop-color="#2F4858"/>
<stop offset="0.587712" stop-color="#122F41"/>
<stop offset="1" stop-color="#122F41"/>
</linearGradient>
</defs>
</svg>
