<svg width="1992" height="168" viewBox="0 0 1992 168" fill="none" xmlns="http://www.w3.org/2000/svg">
<mask id="mask0_177_3321" style="mask-type:alpha" maskUnits="userSpaceOnUse" x="0" y="0" width="1992" height="168">
<rect x="0.5" y="0.5" width="1991" height="167" rx="19.5" fill="#F28A4D" stroke="#F28A4D"/>
</mask>
<g mask="url(#mask0_177_3321)">
<path d="M1326.49 114C1325.12 114 1324 132.783 1324 132.783C1324.05 133.386 1324.33 133.949 1324.79 134.36C1325.26 134.772 1325.87 135 1326.5 135C1327.13 135 1327.74 134.772 1328.21 134.36C1328.67 133.949 1328.95 133.386 1329 132.783C1329 132.783 1327.87 114 1326.49 114Z" fill="url(#paint0_radial_177_3321)"/>
<path d="M1314.89 111.019C1313.73 110.381 1303.25 125.647 1303.25 125.647C1302.98 126.177 1302.93 126.787 1303.1 127.352C1303.28 127.918 1303.68 128.397 1304.22 128.691C1304.76 128.986 1305.39 129.074 1305.99 128.937C1306.59 128.801 1307.12 128.45 1307.46 127.957C1307.46 127.957 1316.04 111.658 1314.89 111.019Z" fill="url(#paint1_radial_177_3321)"/>
<path d="M1305.98 102.108C1305.34 100.949 1289.09 109.517 1289.09 109.517C1288.58 109.849 1288.21 110.377 1288.07 110.987C1287.92 111.597 1288.01 112.243 1288.31 112.788C1288.61 113.333 1289.1 113.734 1289.68 113.907C1290.26 114.08 1290.88 114.01 1291.41 113.714C1291.41 113.714 1306.62 103.254 1305.98 102.108Z" fill="url(#paint2_radial_177_3321)"/>
<path d="M1303 90.9945C1303 89.8956 1284.53 89.0055 1284.53 89.0055C1284.21 88.9851 1283.88 89.0216 1283.58 89.1126C1283.27 89.2036 1282.99 89.3471 1282.75 89.5343C1282.52 89.7215 1282.33 89.9483 1282.2 90.2005C1282.07 90.4527 1282 90.7249 1282 91C1282 91.2751 1282.07 91.5473 1282.2 91.7995C1282.33 92.0517 1282.52 92.2784 1282.75 92.4656C1282.99 92.6528 1283.27 92.7964 1283.58 92.8874C1283.88 92.9784 1284.21 93.0149 1284.53 92.9945C1284.53 92.9945 1303 92.0934 1303 90.9945Z" fill="url(#paint3_radial_177_3321)"/>
<path d="M1305.98 79.8927C1306.61 78.7372 1291.45 68.3249 1291.45 68.3249C1291.19 68.1662 1290.9 68.063 1290.6 68.0212C1290.3 67.9793 1290 67.9997 1289.71 68.0811C1289.12 68.2454 1288.62 68.6485 1288.31 69.2015C1288 69.7545 1287.92 70.4122 1288.08 71.0298C1288.23 71.6475 1288.62 72.1746 1289.15 72.4952C1289.15 72.4952 1305.35 81.0481 1305.98 79.8927Z" fill="url(#paint4_radial_177_3321)"/>
<path d="M1314.89 70.9795C1316.04 70.3083 1307.48 53.1512 1307.48 53.1512C1307.15 52.6132 1306.62 52.2265 1306.01 52.0729C1305.4 51.9192 1304.76 52.0106 1304.21 52.3277C1303.67 52.6449 1303.27 53.1629 1303.09 53.7725C1302.92 54.3821 1302.99 55.0354 1303.29 55.5946C1303.29 55.5946 1313.74 71.6508 1314.89 70.9795Z" fill="url(#paint5_radial_177_3321)"/>
<path d="M1326.49 68C1327.87 68 1328.99 49.5286 1328.99 49.5286C1329.02 49.2056 1328.97 48.8812 1328.86 48.5756C1328.75 48.2699 1328.57 47.9897 1328.33 47.7524C1328.1 47.515 1327.81 47.3257 1327.5 47.1963C1327.18 47.0668 1326.84 47 1326.5 47C1326.16 47 1325.82 47.0668 1325.5 47.1963C1325.19 47.3257 1324.9 47.515 1324.67 47.7524C1324.43 47.9897 1324.25 48.2699 1324.14 48.5756C1324.03 48.8812 1323.98 49.2056 1324.01 49.5286C1324.01 49.5286 1325.12 68 1326.49 68Z" fill="url(#paint6_radial_177_3321)"/>
<path d="M1338.11 70.9796C1339.26 71.6486 1349.68 55.6457 1349.68 55.6457C1349.83 55.3698 1349.94 55.0652 1349.98 54.7491C1350.02 54.433 1350 54.1118 1349.92 53.8036C1349.84 53.4955 1349.7 53.2065 1349.5 52.9532C1349.31 52.6999 1349.07 52.4873 1348.8 52.3274C1348.52 52.1675 1348.22 52.0635 1347.91 52.0213C1347.59 51.9792 1347.28 51.9997 1346.97 52.0817C1346.66 52.1637 1346.38 52.3056 1346.13 52.4993C1345.87 52.6929 1345.66 52.9346 1345.5 53.2105C1345.5 53.2105 1336.96 70.3106 1338.11 70.9796Z" fill="url(#paint7_radial_177_3321)"/>
<path d="M1346.02 79.8926C1346.7 81.0484 1363.79 72.4931 1363.79 72.4931C1364.06 72.3352 1364.3 72.1249 1364.5 71.8742C1364.69 71.6236 1364.83 71.3374 1364.92 71.0321C1365 70.7268 1365.02 70.4083 1364.98 70.0948C1364.94 69.7813 1364.83 69.479 1364.68 69.2051C1364.52 68.9312 1364.31 68.6911 1364.05 68.4985C1363.8 68.3059 1363.51 68.1645 1363.2 68.0825C1362.9 68.0004 1362.58 67.9793 1362.26 68.0204C1361.95 68.0614 1361.64 68.1638 1361.36 68.3217C1361.36 68.3217 1345.35 78.7369 1346.02 79.8926Z" fill="url(#paint8_radial_177_3321)"/>
<path d="M1349 90.9945C1349 92.0964 1367.78 93 1367.78 93C1368.39 92.9625 1368.95 92.7355 1369.36 92.3646C1369.77 91.9936 1370 91.5062 1370 91C1370 90.4938 1369.77 90.0064 1369.36 89.6354C1368.95 89.2645 1368.39 89.0375 1367.78 89C1367.78 89 1349 89.8926 1349 90.9945Z" fill="url(#paint9_radial_177_3321)"/>
<path d="M1346.02 102.108C1345.35 103.257 1361.46 113.748 1361.46 113.748C1362.02 114.022 1362.67 114.075 1363.26 113.895C1363.86 113.715 1364.36 113.316 1364.67 112.78C1364.98 112.243 1365.08 111.609 1364.93 111.007C1364.79 110.404 1364.42 109.879 1363.9 109.538C1363.9 109.538 1346.71 100.946 1346.02 102.108Z" fill="url(#paint10_radial_177_3321)"/>
<path d="M1338.11 111.02C1336.95 111.69 1345.51 128.786 1345.51 128.786C1345.66 129.062 1345.88 129.304 1346.13 129.498C1346.38 129.692 1346.66 129.834 1346.97 129.917C1347.27 130 1347.59 130.021 1347.91 129.979C1348.22 129.938 1348.52 129.835 1348.79 129.676C1349.07 129.517 1349.31 129.305 1349.5 129.052C1349.69 128.8 1349.84 128.511 1349.92 128.204C1350 127.896 1350.02 127.575 1349.98 127.259C1349.94 126.943 1349.84 126.638 1349.68 126.362C1349.68 126.362 1339.28 110.351 1338.11 111.02Z" fill="url(#paint11_radial_177_3321)"/>
<path d="M1333.09 117.002C1331.6 117.421 1348.49 182.949 1348.49 182.949C1348.58 183.303 1348.75 183.633 1348.98 183.923C1349.2 184.212 1349.49 184.454 1349.81 184.635C1350.13 184.816 1350.48 184.933 1350.85 184.978C1351.21 185.024 1351.58 184.997 1351.94 184.9C1352.29 184.803 1352.63 184.637 1352.92 184.412C1353.21 184.187 1353.45 183.908 1353.63 183.589C1353.82 183.271 1353.93 182.919 1353.98 182.556C1354.02 182.192 1354 181.823 1353.9 181.47C1353.9 181.47 1334.58 116.596 1333.09 117.002Z" fill="url(#paint12_radial_177_3321)"/>
<path d="M1319.9 117.002C1318.4 116.604 1300.08 182.516 1300.08 182.516C1299.91 183.234 1300.02 183.992 1300.4 184.626C1300.77 185.26 1301.38 185.72 1302.09 185.908C1302.8 186.095 1303.56 185.995 1304.19 185.628C1304.83 185.261 1305.3 184.658 1305.5 183.947C1305.5 183.947 1321.39 117.399 1319.9 117.002Z" fill="url(#paint13_radial_177_3321)"/>
<path d="M1306.98 110.018C1305.9 108.928 1257.65 156.409 1257.65 156.409C1257.2 156.946 1256.97 157.63 1257 158.328C1257.03 159.026 1257.32 159.686 1257.81 160.18C1258.31 160.674 1258.96 160.966 1259.66 160.997C1260.35 161.029 1261.03 160.798 1261.56 160.351C1261.56 160.351 1308.08 111.096 1306.98 110.018Z" fill="url(#paint14_radial_177_3321)"/>
<path d="M1300 98.0927C1299.59 96.6071 1234.2 113.462 1234.2 113.462C1233.83 113.541 1233.48 113.697 1233.17 113.918C1232.86 114.139 1232.6 114.421 1232.4 114.747C1232.21 115.073 1232.08 115.436 1232.03 115.814C1231.97 116.192 1232 116.576 1232.1 116.944C1232.2 117.311 1232.37 117.655 1232.61 117.952C1232.85 118.249 1233.14 118.495 1233.48 118.674C1233.81 118.852 1234.18 118.96 1234.56 118.991C1234.94 119.022 1235.32 118.974 1235.67 118.852C1235.67 118.852 1300.42 99.5783 1300 98.0927Z" fill="url(#paint15_radial_177_3321)"/>
<path d="M1300 83.8968C1300.38 82.3955 1235.37 64.0643 1235.37 64.0643C1234.67 63.91 1233.94 64.0357 1233.33 64.4152C1232.71 64.7947 1232.27 65.3984 1232.09 66.0999C1231.91 66.8014 1232 67.5461 1232.36 68.1781C1232.71 68.8101 1233.29 69.2802 1233.98 69.49C1233.98 69.49 1299.61 85.4244 1300 83.8968Z" fill="url(#paint16_radial_177_3321)"/>
<path d="M1306.98 71.9806C1308.06 70.8694 1260.91 22.0132 1260.91 22.0132C1260.66 21.7125 1260.36 21.4674 1260.01 21.2935C1259.67 21.1195 1259.29 21.0205 1258.9 21.0029C1258.52 20.9852 1258.13 21.0492 1257.77 21.1908C1257.41 21.3324 1257.09 21.5485 1256.81 21.8254C1256.54 22.1022 1256.33 22.4336 1256.19 22.7986C1256.05 23.1635 1255.99 23.554 1256 23.9451C1256.02 24.3361 1256.12 24.7192 1256.29 25.0699C1256.46 25.4206 1256.7 25.7313 1257 25.982C1257 25.982 1305.91 73.0919 1306.98 71.9806Z" fill="url(#paint17_radial_177_3321)"/>
<path d="M1318.91 64.998C1320.41 64.5922 1303.53 -0.927356 1303.53 -0.927356C1303.43 -1.28235 1303.27 -1.61509 1303.04 -1.90655C1302.82 -2.19801 1302.54 -2.4425 1302.22 -2.62605C1301.9 -2.8096 1301.54 -2.92863 1301.18 -2.97633C1300.81 -3.02403 1300.44 -2.99947 1300.08 -2.90406C1299.73 -2.80865 1299.39 -2.64427 1299.1 -2.42027C1298.81 -2.19627 1298.56 -1.91704 1298.38 -1.59856C1298.19 -1.28007 1298.07 -0.928557 1298.02 -0.564071C1297.98 -0.199585 1298 0.170728 1298.1 0.525724C1298.1 0.525724 1317.42 65.4169 1318.91 64.998Z" fill="url(#paint18_radial_177_3321)"/>
<path d="M1333.1 64.9982C1334.6 65.3959 1352.94 -0.574726 1352.94 -0.574726C1353.09 -1.28763 1352.96 -2.03302 1352.59 -2.65465C1352.21 -3.27628 1351.6 -3.72591 1350.9 -3.90932C1350.2 -4.09273 1349.46 -3.99568 1348.82 -3.6385C1348.19 -3.28132 1347.72 -2.69173 1347.51 -1.99332C1347.51 -1.99332 1331.6 64.6137 1333.1 64.9982Z" fill="url(#paint19_radial_177_3321)"/>
<path d="M1345.02 71.9817C1346.13 73.0725 1394.99 25.0096 1394.99 25.0096C1395.29 24.7575 1395.53 24.4452 1395.71 24.0925C1395.88 23.7399 1395.98 23.3546 1396 22.9614C1396.01 22.5682 1395.95 22.1755 1395.81 21.8085C1395.67 21.4415 1395.45 21.1083 1395.18 20.8299C1394.9 20.5516 1394.57 20.3343 1394.2 20.1919C1393.84 20.0495 1393.45 19.9851 1393.06 20.0029C1392.67 20.0207 1392.28 20.1202 1391.93 20.2951C1391.58 20.47 1391.27 20.7165 1391.02 21.0188C1391.02 21.0188 1343.91 70.8776 1345.02 71.9817Z" fill="url(#paint20_radial_177_3321)"/>
<path d="M1352 83.9069C1352.41 85.3986 1419.07 68.4748 1419.07 68.4748C1419.76 68.2445 1420.33 67.763 1420.67 67.129C1421.01 66.495 1421.09 65.7565 1420.9 65.0647C1420.71 64.3729 1420.25 63.7802 1419.64 63.4079C1419.02 63.0357 1418.28 62.9121 1417.57 63.0624C1417.57 63.0624 1351.62 82.402 1352 83.9069Z" fill="url(#paint21_radial_177_3321)"/>
<path d="M1352 98.1013C1351.61 99.5854 1417.37 117.88 1417.37 117.88C1417.73 117.989 1418.12 118.024 1418.49 117.983C1418.87 117.942 1419.23 117.826 1419.56 117.642C1419.89 117.457 1420.18 117.209 1420.41 116.91C1420.65 116.612 1420.81 116.27 1420.91 115.906C1421 115.541 1421.03 115.161 1420.97 114.789C1420.91 114.416 1420.78 114.059 1420.58 113.738C1420.39 113.417 1420.12 113.139 1419.81 112.921C1419.51 112.703 1419.16 112.55 1418.79 112.469C1418.79 112.469 1352.38 96.591 1352 98.1013Z" fill="url(#paint22_radial_177_3321)"/>
<path d="M1346.02 110.019C1344.94 111.112 1392.26 159.191 1392.26 159.191C1392.52 159.448 1392.82 159.651 1393.16 159.79C1393.5 159.929 1393.86 160 1394.22 160C1394.59 160 1394.95 159.929 1395.29 159.79C1395.62 159.651 1395.93 159.448 1396.19 159.191C1396.44 158.935 1396.65 158.631 1396.79 158.296C1396.93 157.961 1397 157.602 1397 157.239C1397 156.876 1396.93 156.517 1396.79 156.182C1396.65 155.847 1396.44 155.543 1396.19 155.287C1396.19 155.287 1347.1 108.938 1346.02 110.019Z" fill="url(#paint23_radial_177_3321)"/>
<path d="M1326.49 142C1325.12 142 1324.01 243.407 1324.01 243.407C1323.98 243.738 1324.03 244.071 1324.14 244.384C1324.25 244.698 1324.43 244.985 1324.67 245.228C1324.9 245.472 1325.19 245.666 1325.5 245.799C1325.82 245.931 1326.16 246 1326.5 246C1326.84 246 1327.18 245.931 1327.5 245.799C1327.81 245.666 1328.1 245.472 1328.33 245.228C1328.57 244.985 1328.75 244.698 1328.86 244.384C1328.97 244.071 1329.02 243.738 1328.99 243.407C1328.99 243.407 1327.87 142 1326.49 142Z" fill="url(#paint24_radial_177_3321)"/>
<path d="M1300.98 135.004C1299.83 134.342 1248.32 221.405 1248.32 221.405C1248 221.956 1247.92 222.61 1248.08 223.224C1248.25 223.839 1248.65 224.362 1249.2 224.68C1249.75 224.997 1250.41 225.083 1251.02 224.918C1251.63 224.753 1252.16 224.351 1252.47 223.8C1252.47 223.8 1302.12 135.665 1300.98 135.004Z" fill="url(#paint25_radial_177_3321)"/>
<path d="M1282 117.019C1281.33 115.89 1193.2 164.605 1193.2 164.605C1192.65 164.919 1192.24 165.434 1192.08 166.038C1191.92 166.642 1192 167.285 1192.32 167.825C1192.64 168.366 1193.17 168.76 1193.78 168.921C1194.4 169.081 1195.05 168.996 1195.6 168.682C1195.6 168.682 1282.7 118.149 1282 117.019Z" fill="url(#paint26_radial_177_3321)"/>
<path d="M1275 90.9945C1275 89.8956 1174.57 89.0055 1174.57 89.0055C1174.24 88.9851 1173.91 89.0216 1173.6 89.1126C1173.29 89.2036 1173 89.3471 1172.76 89.5343C1172.52 89.7215 1172.33 89.9483 1172.2 90.2005C1172.07 90.4527 1172 90.7249 1172 91C1172 91.2751 1172.07 91.5473 1172.2 91.7995C1172.33 92.0517 1172.52 92.2784 1172.76 92.4656C1173 92.6528 1173.29 92.7964 1173.6 92.8874C1173.91 92.9784 1174.24 93.0149 1174.57 92.9945C1174.57 92.9945 1275 92.0934 1275 90.9945Z" fill="url(#paint27_radial_177_3321)"/>
<path d="M1282 64.9807C1282.66 63.864 1195.6 13.3177 1195.6 13.3177C1195.05 13.0043 1194.4 12.9185 1193.78 13.0793C1193.17 13.24 1192.64 13.634 1192.32 14.1746C1192 14.7153 1191.92 15.3582 1192.08 15.9621C1192.24 16.566 1192.65 17.0813 1193.2 17.3946C1193.2 17.3946 1281.37 66.1103 1282 64.9807Z" fill="url(#paint28_radial_177_3321)"/>
<path d="M1300.98 46.9963C1302.12 46.3346 1252.47 -41.7995 1252.47 -41.7995C1252.16 -42.3505 1251.63 -42.7528 1251.02 -42.9179C1250.41 -43.0829 1249.75 -42.9972 1249.2 -42.6795C1248.65 -42.3619 1248.25 -41.8384 1248.08 -41.2242C1247.92 -40.6099 1248 -39.9553 1248.32 -39.4043C1248.32 -39.4043 1299.83 47.6579 1300.98 46.9963Z" fill="url(#paint29_radial_177_3321)"/>
<path d="M1326.49 40C1327.87 40 1329 -60.7785 1329 -60.7785C1328.95 -61.3824 1328.67 -61.947 1328.21 -62.359C1327.74 -62.771 1327.13 -63 1326.5 -63C1325.87 -63 1325.26 -62.771 1324.79 -62.359C1324.33 -61.947 1324.05 -61.3824 1324 -60.7785C1324 -60.7785 1325.12 40 1326.49 40Z" fill="url(#paint30_radial_177_3321)"/>
<path d="M1352.02 46.9963C1353.17 47.6569 1404.6 -39.2701 1404.6 -39.2701C1404.78 -39.5442 1404.91 -39.8523 1404.96 -40.1756C1405.02 -40.499 1405.01 -40.8306 1404.94 -41.1501C1404.86 -41.4696 1404.72 -41.7702 1404.52 -42.0334C1404.33 -42.2965 1404.08 -42.5167 1403.79 -42.6803C1403.51 -42.8439 1403.19 -42.9474 1402.87 -42.9846C1402.54 -43.0217 1402.21 -42.9916 1401.9 -42.8962C1401.58 -42.8008 1401.29 -42.642 1401.04 -42.4297C1400.79 -42.2173 1400.59 -41.956 1400.44 -41.6617C1400.44 -41.6617 1350.87 46.3356 1352.02 46.9963Z" fill="url(#paint31_radial_177_3321)"/>
<path d="M1371 64.9807C1371.66 66.1087 1459.66 17.4747 1459.66 17.4747C1459.96 17.3319 1460.22 17.1313 1460.43 16.8855C1460.64 16.6397 1460.8 16.3539 1460.9 16.0456C1460.99 15.7373 1461.02 15.4131 1460.98 15.0929C1460.95 14.7728 1460.84 14.4635 1460.68 14.1841C1460.52 13.9047 1460.3 13.6612 1460.03 13.4685C1459.77 13.2758 1459.47 13.138 1459.15 13.0637C1458.83 12.9893 1458.5 12.98 1458.18 13.0362C1457.85 13.0924 1457.55 13.213 1457.27 13.3906C1457.27 13.3906 1370.34 63.8656 1371 64.9807Z" fill="url(#paint32_radial_177_3321)"/>
<path d="M1378 90.9945C1378 92.0964 1478.78 93 1478.78 93C1479.38 92.9625 1479.95 92.7355 1480.36 92.3646C1480.77 91.9936 1481 91.5062 1481 91C1481 90.4938 1480.77 90.0064 1480.36 89.6354C1479.95 89.2645 1479.38 89.0375 1478.78 89C1478.78 89 1378 89.8926 1378 90.9945Z" fill="url(#paint33_radial_177_3321)"/>
<path d="M1371 117.019C1370.35 118.149 1456.45 168.686 1456.45 168.686C1456.72 168.84 1457.01 168.94 1457.32 168.98C1457.63 169.02 1457.94 169 1458.24 168.919C1458.55 168.839 1458.83 168.701 1459.07 168.513C1459.32 168.324 1459.53 168.09 1459.68 167.822C1459.84 167.554 1459.94 167.259 1459.98 166.952C1460.02 166.646 1460 166.335 1459.92 166.036C1459.84 165.738 1459.7 165.458 1459.51 165.213C1459.32 164.968 1459.08 164.763 1458.81 164.608C1458.81 164.608 1371.66 115.89 1371 117.019Z" fill="url(#paint34_radial_177_3321)"/>
<path d="M1352.02 135.004C1350.87 135.666 1400.58 223.917 1400.58 223.917C1400.92 224.429 1401.44 224.793 1402.03 224.935C1402.63 225.077 1403.26 224.985 1403.79 224.679C1404.32 224.374 1404.72 223.877 1404.9 223.29C1405.07 222.702 1405.02 222.069 1404.75 221.519C1404.75 221.519 1353.17 134.341 1352.02 135.004Z" fill="url(#paint35_radial_177_3321)"/>
<path d="M487 150.5C487 148.009 352.314 146 352.314 146C351.17 146 350.073 146.474 349.264 147.318C348.455 148.162 348 149.307 348 150.5C348 151.693 348.455 152.838 349.264 153.682C350.073 154.526 351.17 155 352.314 155C352.314 155 487 153.005 487 150.5Z" fill="url(#paint36_radial_177_3321)"/>
<path d="M513.978 84.9779C515.659 83.2961 422.195 -12.8723 422.195 -12.8723C421.379 -13.6197 420.306 -14.0233 419.2 -13.999C418.094 -13.9746 417.04 -13.5242 416.258 -12.7415C415.476 -11.9589 415.025 -10.9045 415.001 -9.79792C414.977 -8.69138 415.38 -7.61812 416.127 -6.80181C416.127 -6.80181 512.296 86.6466 513.978 84.9779Z" fill="url(#paint37_radial_177_3321)"/>
<path d="M578.5 59C580.991 59 583 -75.6822 583 -75.6822C583 -76.8274 582.526 -77.9256 581.682 -78.7354C580.838 -79.5451 579.693 -80 578.5 -80C577.307 -80 576.162 -79.5451 575.318 -78.7354C574.474 -77.9256 574 -76.8274 574 -75.6822C574 -75.6822 576.023 59 578.5 59Z" fill="url(#paint38_radial_177_3321)"/>
<path d="M643.023 84.9779C644.705 86.6444 741.734 -6.67757 741.734 -6.67757C742.136 -7.07649 742.455 -7.54989 742.672 -8.07077C742.889 -8.59165 743.001 -9.14979 743 -9.71333C742.999 -10.2769 742.887 -10.8348 742.668 -11.3552C742.45 -11.8756 742.13 -12.3483 741.728 -12.7464C741.325 -13.1444 740.847 -13.46 740.321 -13.6751C739.795 -13.8902 739.231 -14.0006 738.662 -14C738.093 -13.9994 737.53 -13.8878 737.004 -13.6716C736.479 -13.4553 736.001 -13.1387 735.599 -12.7398C735.599 -12.7398 641.327 83.2984 643.023 84.9779Z" fill="url(#paint39_radial_177_3321)"/>
<path d="M670 150.5C670 152.977 804.686 155 804.686 155C805.83 155 806.927 154.526 807.736 153.682C808.546 152.838 809 151.693 809 150.5C809 149.307 808.546 148.162 807.736 147.318C806.927 146.474 805.83 146 804.686 146C804.686 146 670 148.037 670 150.5Z" fill="url(#paint40_radial_177_3321)"/>
<path d="M506.997 131.84C507.469 130 443.323 112.108 443.323 112.108C442.882 111.995 442.424 111.971 441.973 112.035C441.523 112.099 441.09 112.251 440.698 112.482C440.307 112.713 439.965 113.018 439.692 113.38C439.419 113.743 439.221 114.155 439.108 114.594C438.995 115.033 438.97 115.489 439.035 115.937C439.099 116.386 439.252 116.817 439.484 117.207C439.716 117.596 440.023 117.937 440.387 118.208C440.751 118.48 441.165 118.677 441.606 118.79C441.606 118.79 506.525 133.694 506.997 131.84Z" fill="url(#paint41_radial_177_3321)"/>
<path d="M540.939 86.9876C542.61 86.0012 509.571 27.8023 509.571 27.8023C509.346 27.3941 509.039 27.035 508.671 26.7465C508.302 26.458 507.879 26.246 507.426 26.1231C506.973 26.0002 506.499 25.9689 506.034 26.0311C505.569 26.0932 505.121 26.2476 504.717 26.485C504.313 26.7224 503.961 27.0379 503.682 27.4128C503.404 27.7878 503.204 28.2144 503.095 28.6674C502.987 29.1204 502.971 29.5905 503.049 30.0497C503.127 30.5089 503.297 30.9478 503.55 31.3403C503.55 31.3403 539.268 87.9609 540.939 86.9876Z" fill="url(#paint42_radial_177_3321)"/>
<path d="M597.157 77.9974C599.01 78.4695 616.892 14.3246 616.892 14.3246C617.119 13.4342 616.985 12.4897 616.519 11.6989C616.053 10.9082 615.293 10.336 614.408 10.1082C613.522 9.88034 612.583 10.0156 611.796 10.4841C611.01 10.9526 610.441 11.7161 610.214 12.6065C610.214 12.6065 595.318 77.5253 597.157 77.9974Z" fill="url(#paint43_radial_177_3321)"/>
<path d="M642.013 112.94C642.986 114.598 701.198 81.5739 701.198 81.5739C701.606 81.3479 701.965 81.0415 702.253 80.6727C702.542 80.3039 702.754 79.8804 702.877 79.4273C703 78.9741 703.031 78.5007 702.969 78.0352C702.907 77.5696 702.752 77.1214 702.515 76.7172C702.278 76.3131 701.962 75.9612 701.587 75.6826C701.212 75.404 700.786 75.2043 700.333 75.0954C699.88 74.9865 699.41 74.9707 698.95 75.0488C698.491 75.1269 698.052 75.2974 697.66 75.5502C697.66 75.5502 641.014 111.268 642.013 112.94Z" fill="url(#paint44_radial_177_3321)"/>
<path d="M650.003 168.165C649.524 170.11 714.614 188.887 714.614 188.887C715.517 189.125 716.475 188.984 717.277 188.494C718.079 188.005 718.659 187.208 718.89 186.278C719.121 185.348 718.984 184.362 718.509 183.536C718.034 182.71 717.26 182.113 716.357 181.875C716.357 181.875 650.481 166.234 650.003 168.165Z" fill="url(#paint45_radial_177_3321)"/>
<path d="M501.988 104.942C503.166 102.954 415.344 49.5757 415.344 49.5757C414.867 49.2973 414.339 49.1152 413.791 49.0397C413.243 48.9641 412.686 48.9967 412.15 49.1354C411.615 49.2741 411.112 49.5164 410.671 49.8483C410.23 50.1802 409.859 50.5952 409.579 51.0697C409.299 51.5442 409.116 52.0689 409.04 52.6138C408.964 53.1588 408.997 53.7132 409.136 54.2455C409.276 54.7779 409.519 55.2777 409.853 55.7164C410.187 56.1551 410.604 56.5242 411.081 56.8025C411.081 56.8025 500.863 106.943 501.988 104.942Z" fill="url(#paint46_radial_177_3321)"/>
<path d="M555.852 63.9975C558.092 63.4061 534.207 -35.8744 534.207 -35.8744C533.927 -36.9479 533.233 -37.8659 532.279 -38.4266C531.324 -38.9872 530.187 -39.1446 529.116 -38.864C528.046 -38.5835 527.131 -37.888 526.572 -36.9305C526.013 -35.9731 525.856 -34.8322 526.136 -33.7587C526.136 -33.7587 553.624 64.5757 555.852 63.9975Z" fill="url(#paint47_radial_177_3321)"/>
<path d="M624.058 72.9884C626.057 74.1544 679.425 -12.7214 679.425 -12.7214C679.986 -13.6752 680.145 -14.8121 679.865 -15.8822C679.585 -16.9522 678.889 -17.8676 677.931 -18.427C676.973 -18.9865 675.831 -19.1441 674.757 -18.8652C673.682 -18.5864 672.763 -17.8938 672.201 -16.94C672.201 -16.94 622.071 71.8223 624.058 72.9884Z" fill="url(#paint48_radial_177_3321)"/>
<path d="M665.003 127.853C665.594 130.081 764.874 106.207 764.874 106.207C765.948 105.927 766.866 105.234 767.427 104.279C767.987 103.325 768.145 102.187 767.864 101.117C767.583 100.046 766.888 99.1308 765.931 98.5718C764.973 98.0127 763.832 97.8558 762.759 98.1356C762.759 98.1356 664.424 125.626 665.003 127.853Z" fill="url(#paint49_radial_177_3321)"/>
<g opacity="0.75">
<path d="M19.5602 206.402C21.2059 206.402 22.5487 139.261 22.5487 139.261C22.5487 138.467 22.2343 137.705 21.6742 137.143C21.1141 136.58 20.354 136.262 19.5602 136.259C18.7641 136.259 18.0007 136.575 17.4378 137.138C16.8748 137.701 16.5586 138.464 16.5586 139.261C16.5586 139.261 17.9014 206.402 19.5602 206.402Z" fill="url(#paint50_radial_177_3321)"/>
<path d="M19.5602 124.911C21.2059 124.911 22.5487 105.69 22.5487 105.69C22.5487 104.897 22.2338 104.137 21.6734 103.576C21.1129 103.016 20.3528 102.701 19.5602 102.701C18.7664 102.701 18.0049 103.016 17.4424 103.576C16.8799 104.136 16.5621 104.896 16.5586 105.69C16.5586 105.69 17.9014 124.911 19.5602 124.911Z" fill="url(#paint51_radial_177_3321)"/>
<path d="M49.9759 214.539C51.3977 215.368 86.1535 157.929 86.1535 157.929C86.4748 157.252 86.5314 156.48 86.3121 155.763C86.0929 155.047 85.6137 154.438 84.9687 154.057C84.3237 153.676 83.5595 153.55 82.8262 153.704C82.0929 153.857 81.4437 154.28 81.0059 154.888C81.0059 154.888 48.5409 213.722 49.9759 214.539Z" fill="url(#paint52_radial_177_3321)"/>
<path d="M90.7198 143.974C92.1548 144.803 102.937 128.821 102.937 128.821C103.133 128.48 103.26 128.104 103.311 127.714C103.362 127.325 103.336 126.929 103.234 126.549C103.132 126.17 102.956 125.814 102.716 125.502C102.477 125.191 102.178 124.929 101.838 124.733C101.497 124.537 101.121 124.409 100.731 124.359C100.342 124.308 99.9457 124.334 99.5661 124.436C99.1865 124.538 98.8308 124.714 98.5192 124.953C98.2075 125.193 97.9461 125.492 97.7499 125.832C97.7499 125.832 89.298 143.144 90.7198 143.974Z" fill="url(#paint53_radial_177_3321)"/>
<path d="M47.7494 164.88C49.158 165.261 53.7526 152.939 53.7526 152.939C53.9359 152.265 53.844 151.546 53.4972 150.94C53.1503 150.334 52.5768 149.89 51.9029 149.707C51.2291 149.524 50.51 149.615 49.9038 149.962C49.2977 150.309 48.8542 150.883 48.6709 151.557C48.6709 151.557 46.3407 164.498 47.7494 164.88Z" fill="url(#paint54_radial_177_3321)"/>
</g>
<g opacity="0.75">
<path d="M1963.76 -31.9906C1962.35 -31.9906 1961.21 24.9219 1961.21 24.9219C1961.21 25.5993 1961.48 26.2489 1961.96 26.7279C1962.43 27.2069 1963.08 27.476 1963.76 27.476C1964.44 27.476 1965.09 27.2069 1965.57 26.7279C1966.05 26.2489 1966.32 25.5993 1966.32 24.9219C1966.32 24.9219 1965.22 -31.9906 1963.76 -31.9906Z" fill="url(#paint55_radial_177_3321)"/>
<path d="M1963.76 34.7169C1962.35 34.7169 1961.21 51.0021 1961.21 51.0021C1961.21 51.6795 1961.48 52.3291 1961.96 52.8081C1962.43 53.287 1963.08 53.5561 1963.76 53.5561C1964.44 53.5561 1965.09 53.287 1965.57 52.8081C1966.05 52.3291 1966.32 51.6795 1966.32 51.0021C1966.32 51.0021 1965.22 34.7169 1963.76 34.7169Z" fill="url(#paint56_radial_177_3321)"/>
<path d="M1947.24 -33.7152C1945.92 -34.0048 1932.85 21.4201 1932.85 21.4201C1932.75 22.0645 1932.9 22.7219 1933.28 23.2576C1933.65 23.7932 1934.21 24.1666 1934.85 24.3012C1935.48 24.4358 1936.15 24.3215 1936.71 23.9817C1937.26 23.6418 1937.67 23.1022 1937.84 22.4733C1937.84 22.4733 1948.62 -33.4255 1947.24 -33.7152Z" fill="url(#paint57_radial_177_3321)"/>
<path d="M1933.3 31.5308C1931.98 31.2412 1927.38 46.9339 1927.38 46.9339C1927.24 47.5973 1927.37 48.2897 1927.74 48.8588C1928.11 49.4279 1928.69 49.8271 1929.35 49.9685C1930.02 50.1099 1930.71 49.982 1931.28 49.6129C1931.85 49.2438 1932.25 48.6637 1932.39 48.0003C1932.39 48.0003 1934.68 31.8204 1933.3 31.5308Z" fill="url(#paint58_radial_177_3321)"/>
<path d="M1931.45 -38.823C1930.14 -39.3891 1905.84 12.1389 1905.84 12.1389C1905.56 12.7587 1905.54 13.4619 1905.79 14.094C1906.03 14.726 1906.52 15.2351 1907.14 15.5092C1907.76 15.7833 1908.46 15.7999 1909.09 15.5555C1909.73 15.3111 1910.24 14.8256 1910.51 14.2058C1910.51 14.2058 1932.74 -38.2437 1931.45 -38.823Z" fill="url(#paint59_radial_177_3321)"/>
<path d="M1904.16 22.1178C1902.84 21.5517 1895.17 35.9675 1895.17 35.9675C1895.03 36.2739 1894.96 36.6046 1894.95 36.9402C1894.94 37.2758 1895 37.6096 1895.12 37.9221C1895.25 38.2346 1895.43 38.5195 1895.66 38.7603C1895.9 39.0011 1896.18 39.1929 1896.49 39.3245C1897.11 39.5773 1897.81 39.5817 1898.43 39.3369C1899.06 39.0921 1899.57 38.6166 1899.86 38.008C1899.86 38.008 1905.45 22.6971 1904.16 22.1178Z" fill="url(#paint60_radial_177_3321)"/>
<path d="M1917.08 -47.0778C1915.93 -47.894 1881.36 -2.47454 1881.36 -2.47454C1881.16 -2.20588 1881.02 -1.90044 1880.94 -1.57606C1880.86 -1.25167 1880.85 -0.914829 1880.9 -0.585182C1880.96 -0.255535 1881.07 0.0603218 1881.25 0.34396C1881.43 0.627598 1881.66 0.873341 1881.93 1.06686C1882.48 1.44522 1883.16 1.59734 1883.82 1.49211C1884.49 1.38688 1885.09 1.03225 1885.5 0.500748C1885.5 0.500748 1918.21 -46.2484 1917.08 -47.0778Z" fill="url(#paint61_radial_177_3321)"/>
<path d="M1877.63 6.89896C1876.49 6.06956 1865.94 18.5895 1865.94 18.5895C1865.75 18.8582 1865.6 19.1636 1865.52 19.488C1865.45 19.8124 1865.43 20.1492 1865.48 20.4789C1865.54 20.8085 1865.66 21.1244 1865.83 21.408C1866.01 21.6917 1866.24 21.9374 1866.51 22.1309C1867.06 22.5249 1867.74 22.6865 1868.4 22.5805C1869.07 22.4744 1869.67 22.1093 1870.06 21.5648C1870.06 21.5648 1878.78 7.71519 1877.63 6.89896Z" fill="url(#paint62_radial_177_3321)"/>
<path d="M1980.27 -33.7152C1978.96 -33.4255 1989.67 22.4733 1989.67 22.4733C1989.81 23.1367 1990.21 23.7174 1990.78 24.0878C1991.34 24.4581 1992.04 24.5877 1992.7 24.448C1993.36 24.3084 1993.94 23.9109 1994.31 23.343C1994.68 22.7752 1994.81 22.0835 1994.67 21.4201C1994.67 21.4201 1981.65 -34.0048 1980.27 -33.7152Z" fill="url(#paint63_radial_177_3321)"/>
</g>
<g opacity="0.75">
<path d="M530.163 173.372C531.48 172.806 525.832 157.456 525.832 157.456C525.698 157.148 525.504 156.869 525.261 156.636C525.019 156.403 524.733 156.22 524.42 156.098C524.107 155.975 523.773 155.916 523.437 155.923C523.101 155.93 522.769 156.004 522.462 156.139C522.153 156.269 521.874 156.46 521.64 156.699C521.407 156.939 521.223 157.223 521.101 157.534C520.978 157.846 520.919 158.179 520.926 158.513C520.934 158.848 521.009 159.178 521.145 159.483C521.145 159.483 528.873 174.004 530.163 173.372Z" fill="url(#paint64_radial_177_3321)"/>
<path d="M559.296 163.959C560.612 163.67 558.387 147.503 558.387 147.503C558.242 146.844 557.842 146.27 557.275 145.905C556.708 145.539 556.019 145.414 555.359 145.555C554.699 145.691 554.121 146.084 553.75 146.647C553.38 147.209 553.248 147.896 553.384 148.556C553.384 148.556 557.913 164.262 559.296 163.959Z" fill="url(#paint65_radial_177_3321)"/>
<path d="M589.758 160.839C591.166 160.839 592.312 144.541 592.312 144.541C592.308 143.866 592.038 143.22 591.559 142.743C591.08 142.267 590.433 142 589.758 142C589.103 142.017 588.48 142.284 588.017 142.747C587.554 143.21 587.286 143.834 587.27 144.488C587.27 144.488 588.349 160.839 589.758 160.839Z" fill="url(#paint66_radial_177_3321)"/>
<path d="M620.184 163.959C621.501 164.262 626.082 148.556 626.082 148.556C626.219 147.9 626.091 147.216 625.726 146.654C625.361 146.092 624.789 145.697 624.134 145.555C623.807 145.483 623.469 145.477 623.14 145.536C622.811 145.595 622.497 145.719 622.215 145.9C621.934 146.081 621.691 146.316 621.501 146.591C621.31 146.866 621.176 147.176 621.106 147.503C621.106 147.503 618.868 163.67 620.184 163.959Z" fill="url(#paint67_radial_177_3321)"/>
<path d="M649.345 173.372C650.635 174.004 658.363 159.523 658.363 159.523C658.498 159.217 658.571 158.887 658.578 158.553C658.585 158.219 658.525 157.887 658.403 157.576C658.28 157.265 658.097 156.981 657.865 156.741C657.632 156.502 657.354 156.31 657.047 156.179C656.74 156.043 656.409 155.97 656.074 155.963C655.739 155.956 655.406 156.016 655.094 156.138C654.782 156.261 654.497 156.443 654.256 156.676C654.015 156.909 653.822 157.188 653.689 157.495C653.689 157.495 648.068 172.806 649.345 173.372Z" fill="url(#paint68_radial_177_3321)"/>
</g>
<g opacity="0.5">
<path d="M1582.27 -60.6245C1580.58 -60.6245 1579.21 35.3356 1579.21 35.3356C1579.18 35.7562 1579.24 36.178 1579.38 36.5748C1579.52 36.9717 1579.74 37.3352 1580.03 37.6428C1580.32 37.9504 1580.67 38.1957 1581.05 38.3633C1581.44 38.531 1581.86 38.6175 1582.28 38.6175C1582.7 38.6175 1583.12 38.531 1583.51 38.3633C1583.89 38.1957 1584.24 37.9504 1584.53 37.6428C1584.82 37.3352 1585.04 36.9717 1585.18 36.5748C1585.32 36.178 1585.38 35.7562 1585.35 35.3356C1585.35 35.3356 1584.04 -60.6245 1582.27 -60.6245Z" fill="url(#paint69_radial_177_3321)"/>
<path d="M1556.91 -65.864C1555.34 -66.5091 1547.26 -50.5662 1547.26 -50.5662C1547.1 -50.1936 1547.02 -49.7944 1547.02 -49.3913C1547.03 -48.9882 1547.11 -48.5892 1547.26 -48.2169C1547.41 -47.8447 1547.64 -47.5065 1547.93 -47.2218C1548.21 -46.937 1548.55 -46.7113 1548.92 -46.5574C1549.3 -46.4036 1549.69 -46.3246 1550.1 -46.325C1550.5 -46.3254 1550.9 -46.4052 1551.27 -46.5599C1551.64 -46.7145 1551.98 -46.941 1552.27 -47.2263C1552.55 -47.5116 1552.78 -47.8503 1552.93 -48.2228C1552.93 -48.2228 1558.47 -65.2057 1556.91 -65.864ZM1545.62 -38.5992C1544.06 -39.2574 1535.97 -23.3145 1535.97 -23.3145C1535.7 -22.568 1535.73 -21.7441 1536.04 -21.0155C1536.36 -20.2869 1536.95 -19.71 1537.69 -19.4055C1538.42 -19.101 1539.25 -19.0926 1539.99 -19.3819C1540.73 -19.6713 1541.33 -20.2361 1541.66 -20.958C1541.66 -20.958 1547.18 -37.9541 1545.62 -38.5992ZM1534.36 -11.3475C1532.79 -11.9926 1524.9 3.46318 1524.9 3.46318C1524.59 4.21562 1524.59 5.06139 1524.9 5.81441C1525.21 6.56744 1525.81 7.16603 1526.56 7.47853C1527.31 7.79103 1528.16 7.79182 1528.91 7.48074C1529.67 7.16965 1530.26 6.57218 1530.58 5.81974C1530.58 5.81974 1535.92 -10.7024 1534.36 -11.3475Z" fill="url(#paint70_radial_177_3321)"/>
<path d="M1606.94 -65.5611C1605.37 -64.916 1610.89 -47.9331 1610.89 -47.9331C1611.2 -47.1806 1611.79 -46.5825 1612.55 -46.2702C1613.3 -45.9578 1614.14 -45.957 1614.89 -46.2677C1615.65 -46.5785 1616.25 -47.1754 1616.56 -47.9272C1616.87 -48.679 1616.87 -49.524 1616.56 -50.2765C1616.56 -50.2765 1608.52 -66.2193 1606.94 -65.5611ZM1618.25 -38.3226C1616.68 -37.6775 1622.19 -20.6814 1622.19 -20.6814C1622.35 -20.3089 1622.58 -19.9704 1622.86 -19.6854C1623.15 -19.4004 1623.49 -19.1744 1623.86 -19.0204C1624.23 -18.8664 1624.63 -18.7873 1625.03 -18.7877C1625.44 -18.7881 1625.84 -18.8679 1626.21 -19.0226C1626.58 -19.1774 1626.92 -19.404 1627.21 -19.6895C1627.49 -19.975 1627.72 -20.3139 1627.87 -20.6867C1628.02 -21.0596 1628.1 -21.4592 1628.1 -21.8626C1628.1 -22.266 1628.02 -22.6654 1627.87 -23.038C1627.87 -23.038 1619.81 -38.9677 1618.27 -38.3226H1618.25ZM1629.55 -11.0841C1627.99 -10.4258 1633.36 6.03048 1633.36 6.03048C1633.51 6.40305 1633.74 6.74149 1634.03 7.02648C1634.31 7.31148 1634.65 7.53745 1635.02 7.69148C1635.4 7.84551 1635.8 7.92461 1636.2 7.92422C1636.6 7.92384 1637 7.84401 1637.37 7.68927C1637.75 7.53454 1638.09 7.30793 1638.37 7.0224C1638.66 6.73687 1638.88 6.39799 1639.04 6.02514C1639.19 5.65228 1639.27 5.25273 1639.27 4.84931C1639.27 4.44589 1639.19 4.04649 1639.03 3.67393C1639.03 3.67393 1631.12 -11.6897 1629.55 -11.0841Z" fill="url(#paint71_radial_177_3321)"/>
</g>
<g opacity="0.75">
<path d="M1684.78 167.263C1686.91 166.038 1670.01 133.033 1670.01 133.033C1669.41 132.019 1668.43 131.281 1667.29 130.981C1666.15 130.68 1664.94 130.841 1663.91 131.427C1663.41 131.712 1662.96 132.094 1662.6 132.553C1662.24 133.011 1661.98 133.536 1661.83 134.097C1661.67 134.659 1661.63 135.245 1661.71 135.821C1661.78 136.398 1661.97 136.954 1662.27 137.457C1662.27 137.457 1682.65 168.474 1684.78 167.263Z" fill="url(#paint72_radial_177_3321)"/>
<path d="M1730.17 155.243C1732.63 155.243 1734.63 118.381 1734.63 118.381C1734.63 117.197 1734.16 116.062 1733.33 115.225C1732.49 114.388 1731.35 113.918 1730.17 113.918C1728.99 113.918 1727.85 114.388 1727.01 115.225C1726.18 116.062 1725.71 117.197 1725.71 118.381C1725.71 118.381 1727.66 155.243 1730.17 155.243Z" fill="url(#paint73_radial_177_3321)"/>
<path d="M1775.45 167.263C1777.59 168.474 1797.96 137.523 1797.96 137.523C1798.25 137.021 1798.44 136.466 1798.52 135.889C1798.6 135.313 1798.56 134.727 1798.41 134.166C1798.25 133.605 1797.99 133.08 1797.64 132.621C1797.28 132.162 1796.83 131.779 1796.33 131.493C1795.3 130.906 1794.09 130.746 1792.95 131.047C1791.81 131.347 1790.83 132.084 1790.23 133.099C1790.23 133.099 1773.31 166.038 1775.45 167.263Z" fill="url(#paint74_radial_177_3321)"/>
<path d="M1725.66 99.8048C1725.64 100.604 1725.87 101.39 1726.31 102.06C1726.74 102.73 1727.37 103.255 1728.1 103.567C1728.84 103.879 1729.65 103.964 1730.44 103.811C1731.22 103.659 1731.95 103.275 1732.51 102.709C1733.08 102.144 1733.46 101.422 1733.61 100.637C1733.77 99.8524 1733.68 99.0397 1733.37 98.3034C1733.06 97.567 1732.53 96.9406 1731.86 96.5045C1731.19 96.0683 1730.41 95.8423 1729.61 95.8553C1728.56 95.8553 1727.55 96.2714 1726.81 97.0121C1726.07 97.7527 1725.66 98.7573 1725.66 99.8048Z" fill="url(#paint75_radial_177_3321)"/>
<path d="M1854.94 168.553C1854.48 168.81 1854.08 169.155 1853.76 169.567C1853.44 169.98 1853.21 170.452 1853.07 170.957C1852.93 171.461 1852.9 171.988 1852.96 172.507C1853.03 173.025 1853.2 173.525 1853.46 173.977C1854.01 174.889 1854.89 175.551 1855.91 175.822C1856.94 176.093 1858.03 175.95 1858.95 175.425C1859.41 175.167 1859.81 174.821 1860.13 174.408C1860.45 173.995 1860.68 173.523 1860.82 173.018C1860.95 172.514 1860.99 171.987 1860.92 171.469C1860.85 170.951 1860.68 170.452 1860.42 170.001C1859.88 169.087 1859 168.423 1857.97 168.152C1856.95 167.881 1855.86 168.025 1854.94 168.553Z" fill="url(#paint76_radial_177_3321)"/>
<path d="M1652.89 121.461C1653.43 122.376 1654.31 123.041 1655.34 123.312C1656.37 123.583 1657.46 123.438 1658.38 122.91C1658.84 122.653 1659.24 122.308 1659.56 121.895C1659.88 121.483 1660.12 121.01 1660.25 120.506C1660.39 120.001 1660.43 119.474 1660.36 118.956C1660.29 118.437 1660.12 117.938 1659.86 117.486C1659.32 116.571 1658.44 115.906 1657.41 115.635C1656.38 115.364 1655.29 115.509 1654.37 116.037C1653.91 116.294 1653.51 116.639 1653.19 117.052C1652.87 117.464 1652.63 117.937 1652.5 118.441C1652.36 118.946 1652.32 119.473 1652.39 119.991C1652.46 120.509 1652.63 121.009 1652.89 121.461Z" fill="url(#paint77_radial_177_3321)"/>
<path d="M1799.6 117.038C1799.34 117.489 1799.17 117.988 1799.1 118.506C1799.03 119.024 1799.07 119.551 1799.2 120.055C1799.34 120.559 1799.57 121.032 1799.89 121.445C1800.21 121.858 1800.61 122.204 1801.07 122.462C1801.99 122.991 1803.08 123.135 1804.11 122.864C1805.13 122.593 1806.01 121.928 1806.56 121.014C1806.82 120.562 1806.99 120.062 1807.06 119.543C1807.12 119.025 1807.09 118.498 1806.95 117.994C1806.81 117.489 1806.58 117.017 1806.26 116.604C1805.94 116.191 1805.54 115.847 1805.08 115.59C1804.16 115.065 1803.07 114.923 1802.05 115.194C1801.02 115.465 1800.15 116.127 1799.6 117.038Z" fill="url(#paint78_radial_177_3321)"/>
<path d="M1708.84 157.85C1711.23 157.27 1678.56 18.0104 1678.56 18.0104C1678.26 16.8677 1677.53 15.8872 1676.51 15.2811C1675.5 14.675 1674.29 14.492 1673.15 14.7718C1672 15.0495 1671.02 15.7679 1670.41 16.7698C1669.8 17.7716 1669.61 18.9752 1669.88 20.1168C1669.88 20.1168 1706.48 158.442 1708.84 157.85Z" fill="url(#paint79_radial_177_3321)"/>
<path d="M1796 182.771C1797.71 184.535 1903.27 86.8901 1903.27 86.8901C1903.69 86.4909 1904.03 86.0112 1904.27 85.4791C1904.51 84.947 1904.63 84.3731 1904.65 83.791C1904.66 83.2088 1904.55 82.6301 1904.34 82.0885C1904.13 81.5469 1903.81 81.0534 1903.4 80.6367C1902.57 79.791 1901.45 79.3045 1900.26 79.2823C1899.08 79.2601 1897.94 79.7041 1897.08 80.5182C1897.08 80.5182 1794.22 181.02 1796 182.771Z" fill="url(#paint80_radial_177_3321)"/>
<path d="M1619.59 140.722C1607.37 129.334 1597.48 119.987 1597.48 119.987C1597.06 119.575 1596.73 119.084 1596.5 118.543C1596.28 118.002 1596.16 117.421 1596.16 116.834C1596.16 116.247 1596.28 115.666 1596.5 115.125C1596.73 114.583 1597.06 114.092 1597.48 113.681C1598.33 112.845 1599.48 112.376 1600.67 112.376C1601.86 112.376 1603 112.845 1603.85 113.681C1603.85 113.681 1613.31 123.462 1624.81 135.561C1624.95 135.655 1625.08 135.761 1625.21 135.877C1625.21 135.877 1677.87 190.341 1676.43 191.789C1675 193.237 1619.91 141.117 1619.91 141.117L1619.59 140.722Z" fill="url(#paint81_radial_177_3321)"/>
<path d="M1773.2 99.9892C1773.2 100.16 1773.2 100.331 1773.12 100.489C1773.04 100.647 1751.78 172.897 1749.79 172.331C1747.8 171.765 1765.89 98.6069 1765.89 98.6069C1765.94 98.4439 1766 98.2853 1766.07 98.1329C1769.92 81.9662 1773.17 68.8143 1773.17 68.8143C1773.49 67.6693 1774.25 66.6967 1775.28 66.1077C1776.31 65.5186 1777.54 65.3606 1778.69 65.6679C1779.25 65.8162 1779.79 66.0756 1780.26 66.431C1780.72 66.7865 1781.12 67.2309 1781.41 67.7388C1781.71 68.2468 1781.9 68.808 1781.97 69.3903C1782.05 69.9726 1782.01 70.5643 1781.86 71.1314C1781.86 71.1314 1778.04 84.0858 1773.2 99.9892Z" fill="url(#paint82_radial_177_3321)"/>
</g>
<g opacity="0.5">
<path d="M258.543 -69.7872C256.265 -69.7872 254.409 56.5973 254.409 56.5973C254.377 57.1607 254.461 57.7246 254.654 58.2545C254.848 58.7845 255.148 59.2694 255.536 59.6795C255.923 60.0895 256.39 60.4162 256.909 60.6395C257.427 60.8627 257.985 60.9779 258.549 60.9779C259.114 60.9779 259.672 60.8627 260.19 60.6395C260.708 60.4162 261.176 60.0895 261.563 59.6795C261.951 59.2694 262.251 58.7845 262.444 58.2545C262.638 57.7246 262.722 57.1607 262.69 56.5973C262.69 56.5973 260.833 -69.7872 258.543 -69.7872Z" fill="url(#paint83_radial_177_3321)"/>
<path d="M234.53 -79.7267C232.911 -81.346 142.178 6.74136 142.178 6.74136C141.406 7.51827 140.973 8.56892 140.973 9.66401C140.973 10.7591 141.406 11.8097 142.178 12.5866C142.562 12.9724 143.018 13.2784 143.521 13.4873C144.024 13.6961 144.562 13.8036 145.107 13.8036C145.651 13.8036 146.19 13.6961 146.693 13.4873C147.195 13.2784 147.652 12.9724 148.036 12.5866C148.036 12.5866 236.15 -78.1206 234.53 -79.7267Z" fill="url(#paint84_radial_177_3321)"/>
<path d="M282.573 -79.7267C280.954 -78.1206 369.054 12.5735 369.054 12.5735C369.829 13.3503 370.881 13.7875 371.979 13.7887C372.522 13.7893 373.06 13.6829 373.563 13.4755C374.065 13.2682 374.521 12.9639 374.906 12.5801C375.291 12.1963 375.596 11.7404 375.804 11.2386C376.013 10.7368 376.121 10.1989 376.121 9.65549C376.122 9.11209 376.015 8.5739 375.808 8.07163C375.601 7.56936 375.296 7.11288 374.913 6.7282C374.913 6.7282 284.179 -81.346 282.573 -79.7267Z" fill="url(#paint85_radial_177_3321)"/>
<path d="M319.415 12.9157C318.85 11.6769 317.93 10.6334 316.772 9.91728C315.614 9.20113 314.27 8.84445 312.909 8.89232C311.548 8.94018 310.232 9.39045 309.127 10.1862C308.022 10.982 307.178 12.0875 306.701 13.3629C306.225 14.6384 306.137 16.0266 306.449 17.352C306.761 18.6773 307.459 19.8804 308.455 20.809C309.451 21.7376 310.7 22.3502 312.044 22.5691C313.388 22.7881 314.766 22.6036 316.005 22.0391C316.829 21.6641 317.57 21.1306 318.187 20.4691C318.803 19.8076 319.284 19.0311 319.601 18.1838C319.917 17.3366 320.064 16.4353 320.032 15.5313C320 14.6274 319.791 13.7386 319.415 12.9157Z" fill="url(#paint86_radial_177_3321)"/>
<path d="M223.655 -10.0047C221.457 -10.7946 207.607 21.2228 207.607 21.2228C207.282 22.239 207.361 23.3413 207.828 24.3006C208.295 25.2598 209.114 26.0022 210.114 26.3735C211.114 26.7447 212.219 26.7162 213.199 26.2939C214.178 25.8716 214.958 25.088 215.374 24.106C215.374 24.106 225.801 -9.2016 223.655 -10.0047Z" fill="url(#paint87_radial_177_3321)"/>
</g>
</g>
<defs>
<radialGradient id="paint0_radial_177_3321" cx="0" cy="0" r="1" gradientUnits="userSpaceOnUse" gradientTransform="translate(1332.71 89.337) scale(166.129 158.646)">
<stop stop-color="#DECA7B"/>
<stop offset="0.9" stop-color="#B99842"/>
<stop offset="1" stop-color="#B5923C"/>
</radialGradient>
<radialGradient id="paint1_radial_177_3321" cx="0" cy="0" r="1" gradientUnits="userSpaceOnUse" gradientTransform="translate(1332.57 90.074) scale(161.03 153.945)">
<stop stop-color="#DECA7B"/>
<stop offset="0.9" stop-color="#B99842"/>
<stop offset="1" stop-color="#B5923C"/>
</radialGradient>
<radialGradient id="paint2_radial_177_3321" cx="0" cy="0" r="1" gradientUnits="userSpaceOnUse" gradientTransform="translate(1330.96 88.7562) scale(153.396 160.713)">
<stop stop-color="#DECA7B"/>
<stop offset="0.9" stop-color="#B99842"/>
<stop offset="1" stop-color="#B5923C"/>
</radialGradient>
<radialGradient id="paint3_radial_177_3321" cx="0" cy="0" r="1" gradientUnits="userSpaceOnUse" gradientTransform="translate(1331.43 89.5769) scale(156.011 132.538)">
<stop stop-color="#DECA7B"/>
<stop offset="0.9" stop-color="#B99842"/>
<stop offset="1" stop-color="#B5923C"/>
</radialGradient>
<radialGradient id="paint4_radial_177_3321" cx="0" cy="0" r="1" gradientUnits="userSpaceOnUse" gradientTransform="translate(1330.88 89.787) scale(152.887 160.182)">
<stop stop-color="#DECA7B"/>
<stop offset="0.9" stop-color="#B99842"/>
<stop offset="1" stop-color="#B5923C"/>
</radialGradient>
<radialGradient id="paint5_radial_177_3321" cx="0" cy="0" r="1" gradientUnits="userSpaceOnUse" gradientTransform="translate(1332.52 89.5596) scale(160.566 161.918)">
<stop stop-color="#DECA7B"/>
<stop offset="0.9" stop-color="#B99842"/>
<stop offset="1" stop-color="#B5923C"/>
</radialGradient>
<radialGradient id="paint6_radial_177_3321" cx="0" cy="0" r="1" gradientUnits="userSpaceOnUse" gradientTransform="translate(1332.69 88.9291) scale(165.673 156.011)">
<stop stop-color="#DECA7B"/>
<stop offset="0.9" stop-color="#B99842"/>
<stop offset="1" stop-color="#B5923C"/>
</radialGradient>
<radialGradient id="paint7_radial_177_3321" cx="0" cy="0" r="1" gradientUnits="userSpaceOnUse" gradientTransform="translate(1332.5 89.498) scale(160.211 161.381)">
<stop stop-color="#DECA7B"/>
<stop offset="0.9" stop-color="#B99842"/>
<stop offset="1" stop-color="#B5923C"/>
</radialGradient>
<radialGradient id="paint8_radial_177_3321" cx="0" cy="0" r="1" gradientUnits="userSpaceOnUse" gradientTransform="translate(1331.81 89.7897) scale(161.352 160.226)">
<stop stop-color="#DECA7B"/>
<stop offset="0.9" stop-color="#B99842"/>
<stop offset="1" stop-color="#B5923C"/>
</radialGradient>
<radialGradient id="paint9_radial_177_3321" cx="0" cy="0" r="1" gradientUnits="userSpaceOnUse" gradientTransform="translate(1331.94 89.573) scale(158.646 132.904)">
<stop stop-color="#DECA7B"/>
<stop offset="0.9" stop-color="#B99842"/>
<stop offset="1" stop-color="#B5923C"/>
</radialGradient>
<radialGradient id="paint10_radial_177_3321" cx="0" cy="0" r="1" gradientUnits="userSpaceOnUse" gradientTransform="translate(1331.72 88.718) scale(162.382 161.177)">
<stop stop-color="#DECA7B"/>
<stop offset="0.9" stop-color="#B99842"/>
<stop offset="1" stop-color="#B5923C"/>
</radialGradient>
<radialGradient id="paint11_radial_177_3321" cx="0" cy="0" r="1" gradientUnits="userSpaceOnUse" gradientTransform="translate(1332.5 89.0516) scale(160.226 161.466)">
<stop stop-color="#DECA7B"/>
<stop offset="0.9" stop-color="#B99842"/>
<stop offset="1" stop-color="#B5923C"/>
</radialGradient>
<radialGradient id="paint12_radial_177_3321" cx="0" cy="0" r="1" gradientUnits="userSpaceOnUse" gradientTransform="translate(1331.86 89.4812) scale(158.829 157.91)">
<stop stop-color="#DECA7B"/>
<stop offset="0.9" stop-color="#B99842"/>
<stop offset="1" stop-color="#B5923C"/>
</radialGradient>
<radialGradient id="paint13_radial_177_3321" cx="0" cy="0" r="1" gradientUnits="userSpaceOnUse" gradientTransform="translate(1332.61 89.0529) scale(158.654 159.759)">
<stop stop-color="#DECA7B"/>
<stop offset="0.9" stop-color="#B99842"/>
<stop offset="1" stop-color="#B5923C"/>
</radialGradient>
<radialGradient id="paint14_radial_177_3321" cx="0" cy="0" r="1" gradientUnits="userSpaceOnUse" gradientTransform="translate(1331.64 89.1683) scale(157.459 158.459)">
<stop stop-color="#DECA7B"/>
<stop offset="0.9" stop-color="#B99842"/>
<stop offset="1" stop-color="#B5923C"/>
</radialGradient>
<radialGradient id="paint15_radial_177_3321" cx="0" cy="0" r="1" gradientUnits="userSpaceOnUse" gradientTransform="translate(1331.68 89.2448) scale(157.523 158.566)">
<stop stop-color="#DECA7B"/>
<stop offset="0.9" stop-color="#B99842"/>
<stop offset="1" stop-color="#B5923C"/>
</radialGradient>
<radialGradient id="paint16_radial_177_3321" cx="0" cy="0" r="1" gradientUnits="userSpaceOnUse" gradientTransform="translate(1331.77 88.9932) scale(157.494 158.831)">
<stop stop-color="#DECA7B"/>
<stop offset="0.9" stop-color="#B99842"/>
<stop offset="1" stop-color="#B5923C"/>
</radialGradient>
<radialGradient id="paint17_radial_177_3321" cx="0" cy="0" r="1" gradientUnits="userSpaceOnUse" gradientTransform="translate(1331.89 89.298) scale(157.318 159.56)">
<stop stop-color="#DECA7B"/>
<stop offset="0.9" stop-color="#B99842"/>
<stop offset="1" stop-color="#B5923C"/>
</radialGradient>
<radialGradient id="paint18_radial_177_3321" cx="0" cy="0" r="1" gradientUnits="userSpaceOnUse" gradientTransform="translate(1332.01 89.1636) scale(158.648 157.888)">
<stop stop-color="#DECA7B"/>
<stop offset="0.9" stop-color="#B99842"/>
<stop offset="1" stop-color="#B5923C"/>
</radialGradient>
<radialGradient id="paint19_radial_177_3321" cx="0" cy="0" r="1" gradientUnits="userSpaceOnUse" gradientTransform="translate(1332.24 89.5781) scale(158.753 159.902)">
<stop stop-color="#DECA7B"/>
<stop offset="0.9" stop-color="#B99842"/>
<stop offset="1" stop-color="#B5923C"/>
</radialGradient>
<radialGradient id="paint20_radial_177_3321" cx="0" cy="0" r="1" gradientUnits="userSpaceOnUse" gradientTransform="translate(1331.97 89.6744) scale(159.477 160.445)">
<stop stop-color="#DECA7B"/>
<stop offset="0.9" stop-color="#B99842"/>
<stop offset="1" stop-color="#B5923C"/>
</radialGradient>
<radialGradient id="paint21_radial_177_3321" cx="0" cy="0" r="1" gradientUnits="userSpaceOnUse" gradientTransform="translate(1331.74 89.3985) scale(160.542 159.218)">
<stop stop-color="#DECA7B"/>
<stop offset="0.9" stop-color="#B99842"/>
<stop offset="1" stop-color="#B5923C"/>
</radialGradient>
<radialGradient id="paint22_radial_177_3321" cx="0" cy="0" r="1" gradientUnits="userSpaceOnUse" gradientTransform="translate(1331.76 89.6434) scale(159.342 158.403)">
<stop stop-color="#DECA7B"/>
<stop offset="0.9" stop-color="#B99842"/>
<stop offset="1" stop-color="#B5923C"/>
</radialGradient>
<radialGradient id="paint23_radial_177_3321" cx="0" cy="0" r="1" gradientUnits="userSpaceOnUse" gradientTransform="translate(1332.82 89.6493) scale(157.862 156.98)">
<stop stop-color="#DECA7B"/>
<stop offset="0.9" stop-color="#B99842"/>
<stop offset="1" stop-color="#B5923C"/>
</radialGradient>
<radialGradient id="paint24_radial_177_3321" cx="0" cy="0" r="1" gradientUnits="userSpaceOnUse" gradientTransform="translate(1332.69 88.5505) scale(165.673 160.003)">
<stop stop-color="#DECA7B"/>
<stop offset="0.9" stop-color="#B99842"/>
<stop offset="1" stop-color="#B5923C"/>
</radialGradient>
<radialGradient id="paint25_radial_177_3321" cx="0" cy="0" r="1" gradientUnits="userSpaceOnUse" gradientTransform="translate(1332.75 88.6012) scale(159.542 159.584)">
<stop stop-color="#DECA7B"/>
<stop offset="0.9" stop-color="#B99842"/>
<stop offset="1" stop-color="#B5923C"/>
</radialGradient>
<radialGradient id="paint26_radial_177_3321" cx="0" cy="0" r="1" gradientUnits="userSpaceOnUse" gradientTransform="translate(1332.66 90.0258) scale(159.519 156.599)">
<stop stop-color="#DECA7B"/>
<stop offset="0.9" stop-color="#B99842"/>
<stop offset="1" stop-color="#B5923C"/>
</radialGradient>
<radialGradient id="paint27_radial_177_3321" cx="0" cy="0" r="1" gradientUnits="userSpaceOnUse" gradientTransform="translate(1332.18 89.5769) scale(158.404 132.538)">
<stop stop-color="#DECA7B"/>
<stop offset="0.9" stop-color="#B99842"/>
<stop offset="1" stop-color="#B5923C"/>
</radialGradient>
<radialGradient id="paint28_radial_177_3321" cx="0" cy="0" r="1" gradientUnits="userSpaceOnUse" gradientTransform="translate(1332.67 88.6503) scale(159.519 156.599)">
<stop stop-color="#DECA7B"/>
<stop offset="0.9" stop-color="#B99842"/>
<stop offset="1" stop-color="#B5923C"/>
</radialGradient>
<radialGradient id="paint29_radial_177_3321" cx="0" cy="0" r="1" gradientUnits="userSpaceOnUse" gradientTransform="translate(1332.75 90.0179) scale(159.542 159.607)">
<stop stop-color="#DECA7B"/>
<stop offset="0.9" stop-color="#B99842"/>
<stop offset="1" stop-color="#B5923C"/>
</radialGradient>
<radialGradient id="paint30_radial_177_3321" cx="0" cy="0" r="1" gradientUnits="userSpaceOnUse" gradientTransform="translate(1332.71 89.7104) scale(166.129 158.991)">
<stop stop-color="#DECA7B"/>
<stop offset="0.9" stop-color="#B99842"/>
<stop offset="1" stop-color="#B5923C"/>
</radialGradient>
<radialGradient id="paint31_radial_177_3321" cx="0" cy="0" r="1" gradientUnits="userSpaceOnUse" gradientTransform="translate(1332.19 89.9511) scale(159.306 159.36)">
<stop stop-color="#DECA7B"/>
<stop offset="0.9" stop-color="#B99842"/>
<stop offset="1" stop-color="#B5923C"/>
</radialGradient>
<radialGradient id="paint32_radial_177_3321" cx="0" cy="0" r="1" gradientUnits="userSpaceOnUse" gradientTransform="translate(1332.31 88.617) scale(159.289 156.378)">
<stop stop-color="#DECA7B"/>
<stop offset="0.9" stop-color="#B99842"/>
<stop offset="1" stop-color="#B5923C"/>
</radialGradient>
<radialGradient id="paint33_radial_177_3321" cx="0" cy="0" r="1" gradientUnits="userSpaceOnUse" gradientTransform="translate(1332.49 89.573) scale(158.951 132.904)">
<stop stop-color="#DECA7B"/>
<stop offset="0.9" stop-color="#B99842"/>
<stop offset="1" stop-color="#B5923C"/>
</radialGradient>
<radialGradient id="paint34_radial_177_3321" cx="0" cy="0" r="1" gradientUnits="userSpaceOnUse" gradientTransform="translate(1332.68 90.0241) scale(157.764 156.609)">
<stop stop-color="#DECA7B"/>
<stop offset="0.9" stop-color="#B99842"/>
<stop offset="1" stop-color="#B5923C"/>
</radialGradient>
<radialGradient id="paint35_radial_177_3321" cx="0" cy="0" r="1" gradientUnits="userSpaceOnUse" gradientTransform="translate(1332.14 88.5397) scale(159.754 159.796)">
<stop stop-color="#DECA7B"/>
<stop offset="0.9" stop-color="#B99842"/>
<stop offset="1" stop-color="#B5923C"/>
</radialGradient>
<radialGradient id="paint36_radial_177_3321" cx="0" cy="0" r="1" gradientUnits="userSpaceOnUse" gradientTransform="translate(558.69 152.413) scale(257.459 268.555)">
<stop stop-color="#DECA7B"/>
<stop offset="0.9" stop-color="#B99842"/>
<stop offset="1" stop-color="#B5923C"/>
</radialGradient>
<radialGradient id="paint37_radial_177_3321" cx="0" cy="0" r="1" gradientUnits="userSpaceOnUse" gradientTransform="translate(558.555 151.451) scale(256.315 256.418)">
<stop stop-color="#DECA7B"/>
<stop offset="0.9" stop-color="#B99842"/>
<stop offset="1" stop-color="#B5923C"/>
</radialGradient>
<radialGradient id="paint38_radial_177_3321" cx="0" cy="0" r="1" gradientUnits="userSpaceOnUse" gradientTransform="translate(557.445 152.723) scale(268.555 257.679)">
<stop stop-color="#DECA7B"/>
<stop offset="0.9" stop-color="#B99842"/>
<stop offset="1" stop-color="#B5923C"/>
</radialGradient>
<radialGradient id="paint39_radial_177_3321" cx="0" cy="0" r="1" gradientUnits="userSpaceOnUse" gradientTransform="translate(557.495 151.361) scale(258.571 256.071)">
<stop stop-color="#DECA7B"/>
<stop offset="0.9" stop-color="#B99842"/>
<stop offset="1" stop-color="#B5923C"/>
</radialGradient>
<radialGradient id="paint40_radial_177_3321" cx="0" cy="0" r="1" gradientUnits="userSpaceOnUse" gradientTransform="translate(557.9 152.413) scale(257.459 268.555)">
<stop stop-color="#DECA7B"/>
<stop offset="0.9" stop-color="#B99842"/>
<stop offset="1" stop-color="#B5923C"/>
</radialGradient>
<radialGradient id="paint41_radial_177_3321" cx="0" cy="0" r="1" gradientUnits="userSpaceOnUse" gradientTransform="translate(558.454 151.808) scale(255.838 254.687)">
<stop stop-color="#DECA7B"/>
<stop offset="0.9" stop-color="#B99842"/>
<stop offset="1" stop-color="#B5923C"/>
</radialGradient>
<radialGradient id="paint42_radial_177_3321" cx="0" cy="0" r="1" gradientUnits="userSpaceOnUse" gradientTransform="translate(558.738 152.446) scale(258.83 256.667)">
<stop stop-color="#DECA7B"/>
<stop offset="0.9" stop-color="#B99842"/>
<stop offset="1" stop-color="#B5923C"/>
</radialGradient>
<radialGradient id="paint43_radial_177_3321" cx="0" cy="0" r="1" gradientUnits="userSpaceOnUse" gradientTransform="translate(559.031 151.31) scale(254.548 255.937)">
<stop stop-color="#DECA7B"/>
<stop offset="0.9" stop-color="#B99842"/>
<stop offset="1" stop-color="#B5923C"/>
</radialGradient>
<radialGradient id="paint44_radial_177_3321" cx="0" cy="0" r="1" gradientUnits="userSpaceOnUse" gradientTransform="translate(558.195 152.85) scale(256.664 258.926)">
<stop stop-color="#DECA7B"/>
<stop offset="0.9" stop-color="#B99842"/>
<stop offset="1" stop-color="#B5923C"/>
</radialGradient>
<radialGradient id="paint45_radial_177_3321" cx="0" cy="0" r="1" gradientUnits="userSpaceOnUse" gradientTransform="translate(557.102 150.977) scale(259.551 267.275)">
<stop stop-color="#DECA7B"/>
<stop offset="0.9" stop-color="#B99842"/>
<stop offset="1" stop-color="#B5923C"/>
</radialGradient>
<radialGradient id="paint46_radial_177_3321" cx="0" cy="0" r="1" gradientUnits="userSpaceOnUse" gradientTransform="translate(559.151 151.883) scale(258.344 256.887)">
<stop stop-color="#DECA7B"/>
<stop offset="0.9" stop-color="#B99842"/>
<stop offset="1" stop-color="#B5923C"/>
</radialGradient>
<radialGradient id="paint47_radial_177_3321" cx="0" cy="0" r="1" gradientUnits="userSpaceOnUse" gradientTransform="translate(558.21 151.977) scale(255.692 256.447)">
<stop stop-color="#DECA7B"/>
<stop offset="0.9" stop-color="#B99842"/>
<stop offset="1" stop-color="#B5923C"/>
</radialGradient>
<radialGradient id="paint48_radial_177_3321" cx="0" cy="0" r="1" gradientUnits="userSpaceOnUse" gradientTransform="translate(558.796 151.374) scale(256.77 255.675)">
<stop stop-color="#DECA7B"/>
<stop offset="0.9" stop-color="#B99842"/>
<stop offset="1" stop-color="#B5923C"/>
</radialGradient>
<radialGradient id="paint49_radial_177_3321" cx="0" cy="0" r="1" gradientUnits="userSpaceOnUse" gradientTransform="translate(558.678 152.042) scale(256.447 255.706)">
<stop stop-color="#DECA7B"/>
<stop offset="0.9" stop-color="#B99842"/>
<stop offset="1" stop-color="#B5923C"/>
</radialGradient>
<radialGradient id="paint50_radial_177_3321" cx="0" cy="0" r="1" gradientUnits="userSpaceOnUse" gradientTransform="translate(15.9003 259.089) scale(166.762 166.762)">
<stop stop-color="#DECA7B"/>
<stop offset="0.9" stop-color="#B99842"/>
<stop offset="1" stop-color="#B5923C"/>
</radialGradient>
<radialGradient id="paint51_radial_177_3321" cx="0" cy="0" r="1" gradientUnits="userSpaceOnUse" gradientTransform="translate(15.9003 259.089) scale(166.749 166.749)">
<stop stop-color="#DECA7B"/>
<stop offset="0.9" stop-color="#B99842"/>
<stop offset="1" stop-color="#B5923C"/>
</radialGradient>
<radialGradient id="paint52_radial_177_3321" cx="0" cy="0" r="1" gradientUnits="userSpaceOnUse" gradientTransform="translate(15.9047 259.089) scale(166.762 166.762)">
<stop stop-color="#DECA7B"/>
<stop offset="0.9" stop-color="#B99842"/>
<stop offset="1" stop-color="#B5923C"/>
</radialGradient>
<radialGradient id="paint53_radial_177_3321" cx="0" cy="0" r="1" gradientUnits="userSpaceOnUse" gradientTransform="translate(15.9028 259.089) scale(166.762 166.762)">
<stop stop-color="#DECA7B"/>
<stop offset="0.9" stop-color="#B99842"/>
<stop offset="1" stop-color="#B5923C"/>
</radialGradient>
<radialGradient id="paint54_radial_177_3321" cx="0" cy="0" r="1" gradientUnits="userSpaceOnUse" gradientTransform="translate(15.9031 259.089) scale(166.749 166.749)">
<stop stop-color="#DECA7B"/>
<stop offset="0.9" stop-color="#B99842"/>
<stop offset="1" stop-color="#B5923C"/>
</radialGradient>
<radialGradient id="paint55_radial_177_3321" cx="0" cy="0" r="1" gradientUnits="userSpaceOnUse" gradientTransform="translate(1973.96 -106.452) scale(152.465 152.465)">
<stop stop-color="#DECA7B"/>
<stop offset="0.9" stop-color="#B99842"/>
<stop offset="1" stop-color="#B5923C"/>
</radialGradient>
<radialGradient id="paint56_radial_177_3321" cx="0" cy="0" r="1" gradientUnits="userSpaceOnUse" gradientTransform="translate(1973.96 -106.452) scale(152.465 152.464)">
<stop stop-color="#DECA7B"/>
<stop offset="0.9" stop-color="#B99842"/>
<stop offset="1" stop-color="#B5923C"/>
</radialGradient>
<radialGradient id="paint57_radial_177_3321" cx="0" cy="0" r="1" gradientUnits="userSpaceOnUse" gradientTransform="translate(1973.96 -106.452) scale(152.465 152.465)">
<stop stop-color="#DECA7B"/>
<stop offset="0.9" stop-color="#B99842"/>
<stop offset="1" stop-color="#B5923C"/>
</radialGradient>
<radialGradient id="paint58_radial_177_3321" cx="0" cy="0" r="1" gradientUnits="userSpaceOnUse" gradientTransform="translate(1973.96 -106.452) scale(152.464 152.465)">
<stop stop-color="#DECA7B"/>
<stop offset="0.9" stop-color="#B99842"/>
<stop offset="1" stop-color="#B5923C"/>
</radialGradient>
<radialGradient id="paint59_radial_177_3321" cx="0" cy="0" r="1" gradientUnits="userSpaceOnUse" gradientTransform="translate(1973.96 -106.452) scale(152.464 152.464)">
<stop stop-color="#DECA7B"/>
<stop offset="0.9" stop-color="#B99842"/>
<stop offset="1" stop-color="#B5923C"/>
</radialGradient>
<radialGradient id="paint60_radial_177_3321" cx="0" cy="0" r="1" gradientUnits="userSpaceOnUse" gradientTransform="translate(1973.96 -106.452) scale(152.464 152.465)">
<stop stop-color="#DECA7B"/>
<stop offset="0.9" stop-color="#B99842"/>
<stop offset="1" stop-color="#B5923C"/>
</radialGradient>
<radialGradient id="paint61_radial_177_3321" cx="0" cy="0" r="1" gradientUnits="userSpaceOnUse" gradientTransform="translate(1973.96 -106.452) scale(152.464 152.464)">
<stop stop-color="#DECA7B"/>
<stop offset="0.9" stop-color="#B99842"/>
<stop offset="1" stop-color="#B5923C"/>
</radialGradient>
<radialGradient id="paint62_radial_177_3321" cx="0" cy="0" r="1" gradientUnits="userSpaceOnUse" gradientTransform="translate(1973.96 -106.452) scale(152.464 152.465)">
<stop stop-color="#DECA7B"/>
<stop offset="0.9" stop-color="#B99842"/>
<stop offset="1" stop-color="#B5923C"/>
</radialGradient>
<radialGradient id="paint63_radial_177_3321" cx="0" cy="0" r="1" gradientUnits="userSpaceOnUse" gradientTransform="translate(1973.97 -106.452) scale(152.465 152.465)">
<stop stop-color="#DECA7B"/>
<stop offset="0.9" stop-color="#B99842"/>
<stop offset="1" stop-color="#B5923C"/>
</radialGradient>
<radialGradient id="paint64_radial_177_3321" cx="0" cy="0" r="1" gradientUnits="userSpaceOnUse" gradientTransform="translate(599.964 310.947) scale(152.464 152.465)">
<stop stop-color="#DECA7B"/>
<stop offset="0.9" stop-color="#B99842"/>
<stop offset="1" stop-color="#B5923C"/>
</radialGradient>
<radialGradient id="paint65_radial_177_3321" cx="0" cy="0" r="1" gradientUnits="userSpaceOnUse" gradientTransform="translate(599.962 310.934) scale(152.464 152.464)">
<stop stop-color="#DECA7B"/>
<stop offset="0.9" stop-color="#B99842"/>
<stop offset="1" stop-color="#B5923C"/>
</radialGradient>
<radialGradient id="paint66_radial_177_3321" cx="0" cy="0" r="1" gradientUnits="userSpaceOnUse" gradientTransform="translate(599.961 310.947) scale(152.465 152.464)">
<stop stop-color="#DECA7B"/>
<stop offset="0.9" stop-color="#B99842"/>
<stop offset="1" stop-color="#B5923C"/>
</radialGradient>
<radialGradient id="paint67_radial_177_3321" cx="0" cy="0" r="1" gradientUnits="userSpaceOnUse" gradientTransform="translate(599.963 310.947) scale(152.464 152.464)">
<stop stop-color="#DECA7B"/>
<stop offset="0.9" stop-color="#B99842"/>
<stop offset="1" stop-color="#B5923C"/>
</radialGradient>
<radialGradient id="paint68_radial_177_3321" cx="0" cy="0" r="1" gradientUnits="userSpaceOnUse" gradientTransform="translate(599.963 310.947) scale(152.464 152.465)">
<stop stop-color="#DECA7B"/>
<stop offset="0.9" stop-color="#B99842"/>
<stop offset="1" stop-color="#B5923C"/>
</radialGradient>
<radialGradient id="paint69_radial_177_3321" cx="0" cy="0" r="1" gradientUnits="userSpaceOnUse" gradientTransform="translate(1587.33 -116.497) scale(184.26 184.258)">
<stop stop-color="#DECA7B"/>
<stop offset="0.9" stop-color="#B99842"/>
<stop offset="1" stop-color="#B5923C"/>
</radialGradient>
<radialGradient id="paint70_radial_177_3321" cx="0" cy="0" r="1" gradientUnits="userSpaceOnUse" gradientTransform="translate(1587.33 -116.497) scale(184.271 184.271)">
<stop stop-color="#DECA7B"/>
<stop offset="0.9" stop-color="#B99842"/>
<stop offset="1" stop-color="#B5923C"/>
</radialGradient>
<radialGradient id="paint71_radial_177_3321" cx="0" cy="0" r="1" gradientUnits="userSpaceOnUse" gradientTransform="translate(1587.33 -116.497) scale(184.271 184.271)">
<stop stop-color="#DECA7B"/>
<stop offset="0.9" stop-color="#B99842"/>
<stop offset="1" stop-color="#B5923C"/>
</radialGradient>
<radialGradient id="paint72_radial_177_3321" cx="0" cy="0" r="1" gradientUnits="userSpaceOnUse" gradientTransform="translate(1733.27 248.057) scale(242.54 242.54)">
<stop stop-color="#DECA7B"/>
<stop offset="0.9" stop-color="#B99842"/>
<stop offset="1" stop-color="#B5923C"/>
</radialGradient>
<radialGradient id="paint73_radial_177_3321" cx="0" cy="0" r="1" gradientUnits="userSpaceOnUse" gradientTransform="translate(1733.26 248.057) scale(242.541 242.54)">
<stop stop-color="#DECA7B"/>
<stop offset="0.9" stop-color="#B99842"/>
<stop offset="1" stop-color="#B5923C"/>
</radialGradient>
<radialGradient id="paint74_radial_177_3321" cx="0" cy="0" r="1" gradientUnits="userSpaceOnUse" gradientTransform="translate(1733.27 248.057) scale(242.539 242.54)">
<stop stop-color="#DECA7B"/>
<stop offset="0.9" stop-color="#B99842"/>
<stop offset="1" stop-color="#B5923C"/>
</radialGradient>
<radialGradient id="paint75_radial_177_3321" cx="0" cy="0" r="1" gradientUnits="userSpaceOnUse" gradientTransform="translate(1733.27 248.056) scale(242.543 242.54)">
<stop stop-color="#DECA7B"/>
<stop offset="0.9" stop-color="#B99842"/>
<stop offset="1" stop-color="#B5923C"/>
</radialGradient>
<radialGradient id="paint76_radial_177_3321" cx="0" cy="0" r="1" gradientUnits="userSpaceOnUse" gradientTransform="translate(1733.27 248.057) scale(242.543 242.539)">
<stop stop-color="#DECA7B"/>
<stop offset="0.9" stop-color="#B99842"/>
<stop offset="1" stop-color="#B5923C"/>
</radialGradient>
<radialGradient id="paint77_radial_177_3321" cx="0" cy="0" r="1" gradientUnits="userSpaceOnUse" gradientTransform="translate(1733.27 248.057) scale(242.543 242.54)">
<stop stop-color="#DECA7B"/>
<stop offset="0.9" stop-color="#B99842"/>
<stop offset="1" stop-color="#B5923C"/>
</radialGradient>
<radialGradient id="paint78_radial_177_3321" cx="0" cy="0" r="1" gradientUnits="userSpaceOnUse" gradientTransform="translate(1733.27 248.057) scale(242.538 242.54)">
<stop stop-color="#DECA7B"/>
<stop offset="0.9" stop-color="#B99842"/>
<stop offset="1" stop-color="#B5923C"/>
</radialGradient>
<radialGradient id="paint79_radial_177_3321" cx="0" cy="0" r="1" gradientUnits="userSpaceOnUse" gradientTransform="translate(1733.27 248.057) scale(242.541 242.54)">
<stop stop-color="#DECA7B"/>
<stop offset="0.9" stop-color="#B99842"/>
<stop offset="1" stop-color="#B5923C"/>
</radialGradient>
<radialGradient id="paint80_radial_177_3321" cx="0" cy="0" r="1" gradientUnits="userSpaceOnUse" gradientTransform="translate(1733.27 248.057) scale(242.54 242.54)">
<stop stop-color="#DECA7B"/>
<stop offset="0.9" stop-color="#B99842"/>
<stop offset="1" stop-color="#B5923C"/>
</radialGradient>
<radialGradient id="paint81_radial_177_3321" cx="0" cy="0" r="1" gradientUnits="userSpaceOnUse" gradientTransform="translate(1733.27 248.057) scale(242.54 242.54)">
<stop stop-color="#DECA7B"/>
<stop offset="0.9" stop-color="#B99842"/>
<stop offset="1" stop-color="#B5923C"/>
</radialGradient>
<radialGradient id="paint82_radial_177_3321" cx="0" cy="0" r="1" gradientUnits="userSpaceOnUse" gradientTransform="translate(1733.27 248.057) scale(242.54 242.54)">
<stop stop-color="#DECA7B"/>
<stop offset="0.9" stop-color="#B99842"/>
<stop offset="1" stop-color="#B5923C"/>
</radialGradient>
<radialGradient id="paint83_radial_177_3321" cx="0" cy="0" r="1" gradientUnits="userSpaceOnUse" gradientTransform="translate(253.777 -102.121) scale(184.535 184.535)">
<stop stop-color="#DECA7B"/>
<stop offset="0.9" stop-color="#B99842"/>
<stop offset="1" stop-color="#B5923C"/>
</radialGradient>
<radialGradient id="paint84_radial_177_3321" cx="0" cy="0" r="1" gradientUnits="userSpaceOnUse" gradientTransform="translate(253.778 -102.12) scale(184.535 184.535)">
<stop stop-color="#DECA7B"/>
<stop offset="0.9" stop-color="#B99842"/>
<stop offset="1" stop-color="#B5923C"/>
</radialGradient>
<radialGradient id="paint85_radial_177_3321" cx="0" cy="0" r="1" gradientUnits="userSpaceOnUse" gradientTransform="translate(253.781 -102.12) scale(184.535 184.535)">
<stop stop-color="#DECA7B"/>
<stop offset="0.9" stop-color="#B99842"/>
<stop offset="1" stop-color="#B5923C"/>
</radialGradient>
<radialGradient id="paint86_radial_177_3321" cx="0" cy="0" r="1" gradientUnits="userSpaceOnUse" gradientTransform="translate(253.774 -102.12) scale(184.535 184.534)">
<stop stop-color="#DECA7B"/>
<stop offset="0.9" stop-color="#B99842"/>
<stop offset="1" stop-color="#B5923C"/>
</radialGradient>
<radialGradient id="paint87_radial_177_3321" cx="0" cy="0" r="1" gradientUnits="userSpaceOnUse" gradientTransform="translate(253.777 -102.121) scale(184.535 184.535)">
<stop stop-color="#DECA7B"/>
<stop offset="0.9" stop-color="#B99842"/>
<stop offset="1" stop-color="#B5923C"/>
</radialGradient>
</defs>
</svg>
