<svg width="121" height="79" viewBox="0 0 121 79" fill="none" xmlns="http://www.w3.org/2000/svg">
<path d="M114.659 0.965179H3.46575C2.68595 0.965179 1.93804 1.27588 1.38634 1.82903C0.834638 2.38217 0.524281 3.13251 0.523438 3.9152V73.5075C0.523438 74.2908 0.833419 75.0419 1.38521 75.5958C1.937 76.1496 2.6854 76.4608 3.46575 76.4608H114.659C115.44 76.4608 116.189 76.1498 116.742 75.5962C117.295 75.0425 117.606 74.2914 117.608 73.5075V3.9152C117.605 3.13193 117.293 2.3816 116.741 1.82864C116.188 1.27568 115.439 0.965175 114.659 0.965179ZM106.155 19.0538C105.217 19.0538 114.982 18.3346 114.201 17.8114C113.421 17.2881 107.752 7.49972 107.393 6.62954C107.034 5.75935 99.6686 12.0992 99.8517 11.1755C100.035 10.2517 101.724 10.6456 102.388 9.97955C103.052 9.31354 103.897 8.85999 104.817 8.67624C105.738 8.49249 106.692 8.5868 107.559 8.94724C108.426 9.30768 109.167 9.91806 109.688 10.7012C110.209 11.4843 110.488 12.4051 110.488 13.347C110.488 13.973 110.365 14.593 110.127 15.1714C109.888 15.7497 109.538 16.2752 109.097 16.7176C108.655 17.1599 108.131 17.5106 107.555 17.7494C106.978 17.9882 106.36 18.1104 105.737 18.1092L106.155 19.0538Z" fill="url(#paint0_radial_686_19011)"/>
<path d="M115.623 1.03657e-05H4.4294C3.84845 -0.00125011 3.27292 0.112457 2.73579 0.334634C2.19865 0.55681 1.71042 0.883093 1.29903 1.29482C0.887643 1.70655 0.561159 2.19565 0.338257 2.73413C0.115354 3.27261 0.000417201 3.84992 0 4.43303V74.0222C0.00252644 75.1968 0.468758 76.3226 1.29659 77.1529C2.12441 77.9831 3.24635 78.4503 4.41665 78.452H115.623C116.203 78.4528 116.778 78.3389 117.315 78.1168C117.851 77.8946 118.339 77.5685 118.75 77.1572C119.161 76.7458 119.487 76.2573 119.71 75.7194C119.933 75.1814 120.048 74.6047 120.049 74.0222V4.43303C120.049 3.85019 119.934 3.27314 119.711 2.73486C119.488 2.19659 119.162 1.70764 118.751 1.29596C118.34 0.884271 117.852 0.55792 117.315 0.335555C116.779 0.113191 116.203 -0.000829614 115.623 1.03657e-05ZM111.133 14.4177C110.875 17.0609 108.643 18.4832 106.184 18.4832C103.726 18.4832 101.914 15.792 102.14 13.5196C102.401 10.87 104.627 9.45413 107.082 9.45413C109.538 9.45413 111.343 12.1421 111.133 14.4177Z" fill="url(#paint1_linear_686_19011)"/>
<path d="M115.626 1.40225H4.43271C3.52201 1.4031 2.64887 1.76681 2.00521 2.41346C1.36154 3.06011 1 3.93679 1 4.85087V74.4432C1 75.357 1.36165 76.2333 2.0054 76.8795C2.64916 77.5256 3.5223 77.8886 4.43271 77.8886H115.626C116.537 77.8886 117.41 77.5257 118.055 76.8797C118.699 76.2336 119.061 75.3573 119.062 74.4432V4.85087C119.061 3.9365 118.699 3.05982 118.055 2.41327C117.411 1.76671 116.537 1.4031 115.626 1.40225ZM104.64 15.641C104.36 18.4695 108.668 19.7288 106.041 19.7288C103.414 19.7288 113.063 27.1293 113.305 24.7003C113.582 21.8717 103.873 15.3821 106.497 15.3821C109.121 15.3821 104.879 13.2087 104.64 15.641Z" fill="url(#paint2_linear_686_19011)"/>
<path d="M18.7292 22.2223H22.0992V23.4823H18.7292V22.2223ZM18.8492 25.1023H22.6592V26.4023H17.2392V19.4023H22.5292V20.7023H18.8492V25.1023ZM23.0996 26.4023L25.5096 23.2423L25.4796 24.1023L23.1696 21.0223H24.9196L26.3796 23.0323L25.7196 23.0523L27.2296 21.0223H28.8896L26.5696 24.0723V23.2323L28.9696 26.4023H27.1996L25.6696 24.2623L26.3196 24.3523L24.7996 26.4023H23.0996ZM32.1608 26.4823C31.5808 26.4823 31.0642 26.3656 30.6108 26.1323C30.1575 25.8923 29.8008 25.5623 29.5408 25.1423C29.2875 24.7223 29.1608 24.2456 29.1608 23.7123C29.1608 23.1723 29.2875 22.6956 29.5408 22.2823C29.8008 21.8623 30.1575 21.5356 30.6108 21.3023C31.0642 21.0623 31.5808 20.9423 32.1608 20.9423C32.7275 20.9423 33.2208 21.0623 33.6408 21.3023C34.0608 21.5356 34.3708 21.8723 34.5708 22.3123L33.3608 22.9623C33.2208 22.7089 33.0442 22.5223 32.8308 22.4023C32.6242 22.2823 32.3975 22.2223 32.1508 22.2223C31.8842 22.2223 31.6442 22.2823 31.4308 22.4023C31.2175 22.5223 31.0475 22.6923 30.9208 22.9123C30.8008 23.1323 30.7408 23.3989 30.7408 23.7123C30.7408 24.0256 30.8008 24.2923 30.9208 24.5123C31.0475 24.7323 31.2175 24.9023 31.4308 25.0223C31.6442 25.1423 31.8842 25.2023 32.1508 25.2023C32.3975 25.2023 32.6242 25.1456 32.8308 25.0323C33.0442 24.9123 33.2208 24.7223 33.3608 24.4623L34.5708 25.1223C34.3708 25.5556 34.0608 25.8923 33.6408 26.1323C33.2208 26.3656 32.7275 26.4823 32.1608 26.4823ZM35.4397 26.4023V18.9823H36.9997V26.4023H35.4397ZM40.7175 26.4823C40.2709 26.4823 39.8709 26.3956 39.5175 26.2223C39.1709 26.0489 38.9009 25.7856 38.7075 25.4323C38.5142 25.0723 38.4175 24.6156 38.4175 24.0623V21.0223H39.9775V23.8323C39.9775 24.2789 40.0709 24.6089 40.2575 24.8223C40.4509 25.0289 40.7209 25.1323 41.0675 25.1323C41.3075 25.1323 41.5209 25.0823 41.7075 24.9823C41.8942 24.8756 42.0409 24.7156 42.1475 24.5023C42.2542 24.2823 42.3075 24.0089 42.3075 23.6823V21.0223H43.8675V26.4023H42.3875V24.9223L42.6575 25.3523C42.4775 25.7256 42.2109 26.0089 41.8575 26.2023C41.5109 26.3889 41.1309 26.4823 40.7175 26.4823ZM47.1228 26.4823C46.6628 26.4823 46.2194 26.4289 45.7928 26.3223C45.3728 26.2089 45.0394 26.0689 44.7928 25.9023L45.3128 24.7823C45.5594 24.9356 45.8494 25.0623 46.1828 25.1623C46.5228 25.2556 46.8561 25.3023 47.1828 25.3023C47.5428 25.3023 47.7961 25.2589 47.9428 25.1723C48.0961 25.0856 48.1728 24.9656 48.1728 24.8123C48.1728 24.6856 48.1128 24.5923 47.9928 24.5323C47.8794 24.4656 47.7261 24.4156 47.5328 24.3823C47.3394 24.3489 47.1261 24.3156 46.8928 24.2823C46.6661 24.2489 46.4361 24.2056 46.2028 24.1523C45.9694 24.0923 45.7561 24.0056 45.5628 23.8923C45.3694 23.7789 45.2128 23.6256 45.0928 23.4323C44.9794 23.2389 44.9228 22.9889 44.9228 22.6823C44.9228 22.3423 45.0194 22.0423 45.2128 21.7823C45.4128 21.5223 45.6994 21.3189 46.0728 21.1723C46.4461 21.0189 46.8928 20.9423 47.4128 20.9423C47.7794 20.9423 48.1528 20.9823 48.5328 21.0623C48.9128 21.1423 49.2294 21.2589 49.4828 21.4123L48.9628 22.5223C48.7028 22.3689 48.4394 22.2656 48.1728 22.2123C47.9128 22.1523 47.6594 22.1223 47.4128 22.1223C47.0661 22.1223 46.8128 22.1689 46.6528 22.2623C46.4928 22.3556 46.4128 22.4756 46.4128 22.6223C46.4128 22.7556 46.4694 22.8556 46.5828 22.9223C46.7028 22.9889 46.8594 23.0423 47.0528 23.0823C47.2461 23.1223 47.4561 23.1589 47.6828 23.1923C47.9161 23.2189 48.1494 23.2623 48.3828 23.3223C48.6161 23.3823 48.8261 23.4689 49.0128 23.5823C49.2061 23.6889 49.3628 23.8389 49.4828 24.0323C49.6028 24.2189 49.6628 24.4656 49.6628 24.7723C49.6628 25.1056 49.5628 25.4023 49.3628 25.6623C49.1628 25.9156 48.8728 26.1156 48.4928 26.2623C48.1194 26.4089 47.6628 26.4823 47.1228 26.4823ZM50.6253 26.4023V21.0223H52.1853V26.4023H50.6253ZM51.4053 20.2723C51.1186 20.2723 50.8853 20.1889 50.7053 20.0223C50.5253 19.8556 50.4353 19.6489 50.4353 19.4023C50.4353 19.1556 50.5253 18.9489 50.7053 18.7823C50.8853 18.6156 51.1186 18.5323 51.4053 18.5323C51.6919 18.5323 51.9253 18.6123 52.1053 18.7723C52.2853 18.9256 52.3753 19.1256 52.3753 19.3723C52.3753 19.6323 52.2853 19.8489 52.1053 20.0223C51.9319 20.1889 51.6986 20.2723 51.4053 20.2723ZM55.0931 26.4023L52.8331 21.0223H54.4431L56.3231 25.6523H55.5231L57.4731 21.0223H58.9731L56.7031 26.4023H55.0931ZM62.1332 26.4823C61.5198 26.4823 60.9798 26.3623 60.5132 26.1223C60.0532 25.8823 59.6965 25.5556 59.4432 25.1423C59.1898 24.7223 59.0632 24.2456 59.0632 23.7123C59.0632 23.1723 59.1865 22.6956 59.4332 22.2823C59.6865 21.8623 60.0298 21.5356 60.4632 21.3023C60.8965 21.0623 61.3865 20.9423 61.9332 20.9423C62.4598 20.9423 62.9332 21.0556 63.3532 21.2823C63.7798 21.5023 64.1165 21.8223 64.3632 22.2423C64.6098 22.6556 64.7332 23.1523 64.7332 23.7323C64.7332 23.7923 64.7298 23.8623 64.7232 23.9423C64.7165 24.0156 64.7098 24.0856 64.7032 24.1523H60.3332V23.2423H63.8832L63.2832 23.5123C63.2832 23.2323 63.2265 22.9889 63.1132 22.7823C62.9998 22.5756 62.8432 22.4156 62.6432 22.3023C62.4432 22.1823 62.2098 22.1223 61.9432 22.1223C61.6765 22.1223 61.4398 22.1823 61.2332 22.3023C61.0332 22.4156 60.8765 22.5789 60.7632 22.7923C60.6498 22.9989 60.5932 23.2456 60.5932 23.5323V23.7723C60.5932 24.0656 60.6565 24.3256 60.7832 24.5523C60.9165 24.7723 61.0998 24.9423 61.3332 25.0623C61.5732 25.1756 61.8532 25.2323 62.1732 25.2323C62.4598 25.2323 62.7098 25.1889 62.9232 25.1023C63.1432 25.0156 63.3432 24.8856 63.5232 24.7123L64.3532 25.6123C64.1065 25.8923 63.7965 26.1089 63.4232 26.2623C63.0498 26.4089 62.6198 26.4823 62.1332 26.4823ZM68.7938 26.4023V20.9023C68.7938 20.2956 68.9738 19.8123 69.3338 19.4523C69.6938 19.0856 70.2071 18.9023 70.8738 18.9023C71.1005 18.9023 71.3171 18.9256 71.5238 18.9723C71.7371 19.0189 71.9171 19.0923 72.0638 19.1923L71.6538 20.3223C71.5671 20.2623 71.4705 20.2156 71.3638 20.1823C71.2571 20.1489 71.1438 20.1323 71.0238 20.1323C70.7971 20.1323 70.6205 20.1989 70.4938 20.3323C70.3738 20.4589 70.3138 20.6523 70.3138 20.9123V21.4123L70.3538 22.0823V26.4023H68.7938ZM67.9638 22.3423V21.1423H71.6938V22.3423H67.9638ZM74.9626 26.4823C74.3893 26.4823 73.8793 26.3623 73.4326 26.1223C72.9926 25.8823 72.6426 25.5556 72.3826 25.1423C72.1293 24.7223 72.0026 24.2456 72.0026 23.7123C72.0026 23.1723 72.1293 22.6956 72.3826 22.2823C72.6426 21.8623 72.9926 21.5356 73.4326 21.3023C73.8793 21.0623 74.3893 20.9423 74.9626 20.9423C75.5293 20.9423 76.036 21.0623 76.4826 21.3023C76.9293 21.5356 77.2793 21.8589 77.5326 22.2723C77.786 22.6856 77.9126 23.1656 77.9126 23.7123C77.9126 24.2456 77.786 24.7223 77.5326 25.1423C77.2793 25.5556 76.9293 25.8823 76.4826 26.1223C76.036 26.3623 75.5293 26.4823 74.9626 26.4823ZM74.9626 25.2023C75.2226 25.2023 75.456 25.1423 75.6626 25.0223C75.8693 24.9023 76.0326 24.7323 76.1526 24.5123C76.2726 24.2856 76.3326 24.0189 76.3326 23.7123C76.3326 23.3989 76.2726 23.1323 76.1526 22.9123C76.0326 22.6923 75.8693 22.5223 75.6626 22.4023C75.456 22.2823 75.2226 22.2223 74.9626 22.2223C74.7026 22.2223 74.4693 22.2823 74.2626 22.4023C74.056 22.5223 73.8893 22.6923 73.7626 22.9123C73.6426 23.1323 73.5826 23.3989 73.5826 23.7123C73.5826 24.0189 73.6426 24.2856 73.7626 24.5123C73.8893 24.7323 74.056 24.9023 74.2626 25.0223C74.4693 25.1423 74.7026 25.2023 74.9626 25.2023ZM78.9554 26.4023V21.0223H80.4454V22.5423L80.2354 22.1023C80.3954 21.7223 80.652 21.4356 81.0054 21.2423C81.3587 21.0423 81.7887 20.9423 82.2954 20.9423V22.3823C82.2287 22.3756 82.1687 22.3723 82.1154 22.3723C82.062 22.3656 82.0054 22.3623 81.9454 22.3623C81.5187 22.3623 81.172 22.4856 80.9054 22.7323C80.6454 22.9723 80.5154 23.3489 80.5154 23.8623V26.4023H78.9554ZM86.774 28.4223C86.494 28.4223 86.2174 28.3789 85.944 28.2923C85.6707 28.2056 85.4474 28.0856 85.274 27.9323L85.844 26.8223C85.964 26.9289 86.1007 27.0123 86.254 27.0723C86.414 27.1323 86.5707 27.1623 86.724 27.1623C86.944 27.1623 87.1174 27.1089 87.244 27.0023C87.3774 26.9023 87.4974 26.7323 87.604 26.4923L87.884 25.8323L88.004 25.6623L89.934 21.0223H91.434L89.004 26.7323C88.8307 27.1656 88.6307 27.5056 88.404 27.7523C88.184 27.9989 87.9374 28.1723 87.664 28.2723C87.3974 28.3723 87.1007 28.4223 86.774 28.4223ZM87.694 26.6123L85.294 21.0223H86.904L88.764 25.5223L87.694 26.6123ZM94.4841 26.4823C93.9108 26.4823 93.4008 26.3623 92.9541 26.1223C92.5141 25.8823 92.1641 25.5556 91.9041 25.1423C91.6508 24.7223 91.5241 24.2456 91.5241 23.7123C91.5241 23.1723 91.6508 22.6956 91.9041 22.2823C92.1641 21.8623 92.5141 21.5356 92.9541 21.3023C93.4008 21.0623 93.9108 20.9423 94.4841 20.9423C95.0508 20.9423 95.5574 21.0623 96.0041 21.3023C96.4508 21.5356 96.8008 21.8589 97.0541 22.2723C97.3074 22.6856 97.4341 23.1656 97.4341 23.7123C97.4341 24.2456 97.3074 24.7223 97.0541 25.1423C96.8008 25.5556 96.4508 25.8823 96.0041 26.1223C95.5574 26.3623 95.0508 26.4823 94.4841 26.4823ZM94.4841 25.2023C94.7441 25.2023 94.9774 25.1423 95.1841 25.0223C95.3908 24.9023 95.5541 24.7323 95.6741 24.5123C95.7941 24.2856 95.8541 24.0189 95.8541 23.7123C95.8541 23.3989 95.7941 23.1323 95.6741 22.9123C95.5541 22.6923 95.3908 22.5223 95.1841 22.4023C94.9774 22.2823 94.7441 22.2223 94.4841 22.2223C94.2241 22.2223 93.9908 22.2823 93.7841 22.4023C93.5774 22.5223 93.4108 22.6923 93.2841 22.9123C93.1641 23.1323 93.1041 23.3989 93.1041 23.7123C93.1041 24.0189 93.1641 24.2856 93.2841 24.5123C93.4108 24.7323 93.5774 24.9023 93.7841 25.0223C93.9908 25.1423 94.2241 25.2023 94.4841 25.2023ZM100.747 26.4823C100.3 26.4823 99.9002 26.3956 99.5468 26.2223C99.2002 26.0489 98.9302 25.7856 98.7368 25.4323C98.5435 25.0723 98.4468 24.6156 98.4468 24.0623V21.0223H100.007V23.8323C100.007 24.2789 100.1 24.6089 100.287 24.8223C100.48 25.0289 100.75 25.1323 101.097 25.1323C101.337 25.1323 101.55 25.0823 101.737 24.9823C101.924 24.8756 102.07 24.7156 102.177 24.5023C102.284 24.2823 102.337 24.0089 102.337 23.6823V21.0223H103.897V26.4023H102.417V24.9223L102.687 25.3523C102.507 25.7256 102.24 26.0089 101.887 26.2023C101.54 26.3889 101.16 26.4823 100.747 26.4823ZM105.452 23.9723L105.142 19.4023H107.002L106.692 23.9723H105.452ZM106.072 26.4823C105.792 26.4823 105.562 26.3923 105.382 26.2123C105.202 26.0323 105.112 25.8189 105.112 25.5723C105.112 25.3189 105.202 25.1089 105.382 24.9423C105.562 24.7689 105.792 24.6823 106.072 24.6823C106.359 24.6823 106.589 24.7689 106.762 24.9423C106.942 25.1089 107.032 25.3189 107.032 25.5723C107.032 25.8189 106.942 26.0323 106.762 26.2123C106.589 26.3923 106.359 26.4823 106.072 26.4823Z" fill="#F7F7FF"/>
<path d="M105.961 64L107.961 66L105.961 68" stroke="#FBF36D" stroke-width="0.5" stroke-linecap="round" stroke-linejoin="round"/>
<path d="M9.85535 39.048C9.30335 39.048 8.86935 38.89 8.55335 38.574C8.23735 38.258 8.07935 37.796 8.07935 37.188V34.8H8.67935V37.164C8.67935 37.632 8.78135 37.974 8.98535 38.19C9.19335 38.406 9.48535 38.514 9.86135 38.514C10.2414 38.514 10.5334 38.406 10.7374 38.19C10.9454 37.974 11.0494 37.632 11.0494 37.164V34.8H11.6314V37.188C11.6314 37.796 11.4734 38.258 11.1574 38.574C10.8454 38.89 10.4114 39.048 9.85535 39.048ZM14.4634 39.036C14.1994 39.036 13.9574 38.976 13.7374 38.856C13.5214 38.732 13.3474 38.55 13.2154 38.31C13.0874 38.07 13.0234 37.77 13.0234 37.41C13.0234 37.05 13.0854 36.75 13.2094 36.51C13.3374 36.27 13.5094 36.09 13.7254 35.97C13.9454 35.85 14.1914 35.79 14.4634 35.79C14.7754 35.79 15.0514 35.858 15.2914 35.994C15.5314 36.13 15.7214 36.32 15.8614 36.564C16.0014 36.804 16.0714 37.086 16.0714 37.41C16.0714 37.734 16.0014 38.018 15.8614 38.262C15.7214 38.506 15.5314 38.696 15.2914 38.832C15.0514 38.968 14.7754 39.036 14.4634 39.036ZM12.7774 40.164V35.82H13.3294V36.678L13.2934 37.416L13.3534 38.154V40.164H12.7774ZM14.4154 38.532C14.6194 38.532 14.8014 38.486 14.9614 38.394C15.1254 38.302 15.2534 38.172 15.3454 38.004C15.4414 37.832 15.4894 37.634 15.4894 37.41C15.4894 37.182 15.4414 36.986 15.3454 36.822C15.2534 36.654 15.1254 36.524 14.9614 36.432C14.8014 36.34 14.6194 36.294 14.4154 36.294C14.2154 36.294 14.0334 36.34 13.8694 36.432C13.7094 36.524 13.5814 36.654 13.4854 36.822C13.3934 36.986 13.3474 37.182 13.3474 37.41C13.3474 37.634 13.3934 37.832 13.4854 38.004C13.5814 38.172 13.7094 38.302 13.8694 38.394C14.0334 38.486 14.2154 38.532 14.4154 38.532ZM18.2593 40.2C17.9673 40.2 17.6833 40.158 17.4073 40.074C17.1353 39.994 16.9133 39.878 16.7413 39.726L17.0173 39.282C17.1653 39.41 17.3473 39.51 17.5633 39.582C17.7793 39.658 18.0053 39.696 18.2413 39.696C18.6173 39.696 18.8933 39.608 19.0693 39.432C19.2453 39.256 19.3333 38.988 19.3333 38.628V37.956L19.3933 37.326L19.3633 36.69V35.82H19.9093V38.568C19.9093 39.128 19.7693 39.54 19.4893 39.804C19.2093 40.068 18.7993 40.2 18.2593 40.2ZM18.1873 38.868C17.8793 38.868 17.6033 38.804 17.3593 38.676C17.1193 38.544 16.9273 38.362 16.7833 38.13C16.6433 37.898 16.5733 37.63 16.5733 37.326C16.5733 37.018 16.6433 36.75 16.7833 36.522C16.9273 36.29 17.1193 36.11 17.3593 35.982C17.6033 35.854 17.8793 35.79 18.1873 35.79C18.4593 35.79 18.7073 35.846 18.9313 35.958C19.1553 36.066 19.3333 36.234 19.4653 36.462C19.6013 36.69 19.6693 36.978 19.6693 37.326C19.6693 37.67 19.6013 37.956 19.4653 38.184C19.3333 38.412 19.1553 38.584 18.9313 38.7C18.7073 38.812 18.4593 38.868 18.1873 38.868ZM18.2533 38.364C18.4653 38.364 18.6533 38.32 18.8173 38.232C18.9813 38.144 19.1093 38.022 19.2013 37.866C19.2973 37.71 19.3453 37.53 19.3453 37.326C19.3453 37.122 19.2973 36.942 19.2013 36.786C19.1093 36.63 18.9813 36.51 18.8173 36.426C18.6533 36.338 18.4653 36.294 18.2533 36.294C18.0413 36.294 17.8513 36.338 17.6833 36.426C17.5193 36.51 17.3893 36.63 17.2933 36.786C17.2013 36.942 17.1553 37.122 17.1553 37.326C17.1553 37.53 17.2013 37.71 17.2933 37.866C17.3893 38.022 17.5193 38.144 17.6833 38.232C17.8513 38.32 18.0413 38.364 18.2533 38.364ZM21.0099 39V35.82H21.5619V36.684L21.5079 36.468C21.5959 36.248 21.7439 36.08 21.9519 35.964C22.1599 35.848 22.4159 35.79 22.7199 35.79V36.348C22.6959 36.344 22.6719 36.342 22.6479 36.342C22.6279 36.342 22.6079 36.342 22.5879 36.342C22.2799 36.342 22.0359 36.434 21.8559 36.618C21.6759 36.802 21.5859 37.068 21.5859 37.416V39H21.0099ZM25.1694 39V38.328L25.1394 38.202V37.056C25.1394 36.812 25.0674 36.624 24.9234 36.492C24.7834 36.356 24.5714 36.288 24.2874 36.288C24.0994 36.288 23.9154 36.32 23.7354 36.384C23.5554 36.444 23.4034 36.526 23.2794 36.63L23.0394 36.198C23.2034 36.066 23.3994 35.966 23.6274 35.898C23.8594 35.826 24.1014 35.79 24.3534 35.79C24.7894 35.79 25.1254 35.896 25.3614 36.108C25.5974 36.32 25.7154 36.644 25.7154 37.08V39H25.1694ZM24.1254 39.036C23.8894 39.036 23.6814 38.996 23.5014 38.916C23.3254 38.836 23.1894 38.726 23.0934 38.586C22.9974 38.442 22.9494 38.28 22.9494 38.1C22.9494 37.928 22.9894 37.772 23.0694 37.632C23.1534 37.492 23.2874 37.38 23.4714 37.296C23.6594 37.212 23.9114 37.17 24.2274 37.17H25.2354V37.584H24.2514C23.9634 37.584 23.7694 37.632 23.6694 37.728C23.5694 37.824 23.5194 37.94 23.5194 38.076C23.5194 38.232 23.5814 38.358 23.7054 38.454C23.8294 38.546 24.0014 38.592 24.2214 38.592C24.4374 38.592 24.6254 38.544 24.7854 38.448C24.9494 38.352 25.0674 38.212 25.1394 38.028L25.2534 38.424C25.1774 38.612 25.0434 38.762 24.8514 38.874C24.6594 38.982 24.4174 39.036 24.1254 39.036ZM28.0954 39.036C27.7874 39.036 27.5114 38.968 27.2674 38.832C27.0274 38.696 26.8374 38.506 26.6974 38.262C26.5574 38.018 26.4874 37.734 26.4874 37.41C26.4874 37.086 26.5574 36.804 26.6974 36.564C26.8374 36.32 27.0274 36.13 27.2674 35.994C27.5114 35.858 27.7874 35.79 28.0954 35.79C28.3634 35.79 28.6054 35.85 28.8214 35.97C29.0374 36.09 29.2094 36.27 29.3374 36.51C29.4694 36.75 29.5354 37.05 29.5354 37.41C29.5354 37.77 29.4714 38.07 29.3434 38.31C29.2194 38.55 29.0494 38.732 28.8334 38.856C28.6174 38.976 28.3714 39.036 28.0954 39.036ZM28.1434 38.532C28.3434 38.532 28.5234 38.486 28.6834 38.394C28.8474 38.302 28.9754 38.172 29.0674 38.004C29.1634 37.832 29.2114 37.634 29.2114 37.41C29.2114 37.182 29.1634 36.986 29.0674 36.822C28.9754 36.654 28.8474 36.524 28.6834 36.432C28.5234 36.34 28.3434 36.294 28.1434 36.294C27.9394 36.294 27.7574 36.34 27.5974 36.432C27.4374 36.524 27.3094 36.654 27.2134 36.822C27.1174 36.986 27.0694 37.182 27.0694 37.41C27.0694 37.634 27.1174 37.832 27.2134 38.004C27.3094 38.172 27.4374 38.302 27.5974 38.394C27.7574 38.486 27.9394 38.532 28.1434 38.532ZM29.2294 39V38.142L29.2654 37.404L29.2054 36.666V34.548H29.7814V39H29.2294ZM32.2872 39.036C31.9472 39.036 31.6472 38.966 31.3872 38.826C31.1312 38.686 30.9312 38.494 30.7872 38.25C30.6472 38.006 30.5772 37.726 30.5772 37.41C30.5772 37.094 30.6452 36.814 30.7812 36.57C30.9212 36.326 31.1112 36.136 31.3512 36C31.5952 35.86 31.8692 35.79 32.1732 35.79C32.4812 35.79 32.7532 35.858 32.9892 35.994C33.2252 36.13 33.4092 36.322 33.5412 36.57C33.6772 36.814 33.7452 37.1 33.7452 37.428C33.7452 37.452 33.7432 37.48 33.7392 37.512C33.7392 37.544 33.7372 37.574 33.7332 37.602H31.0272V37.188H33.4332L33.1992 37.332C33.2032 37.128 33.1612 36.946 33.0732 36.786C32.9852 36.626 32.8632 36.502 32.7072 36.414C32.5552 36.322 32.3772 36.276 32.1732 36.276C31.9732 36.276 31.7952 36.322 31.6392 36.414C31.4832 36.502 31.3612 36.628 31.2732 36.792C31.1852 36.952 31.1412 37.136 31.1412 37.344V37.44C31.1412 37.652 31.1892 37.842 31.2852 38.01C31.3852 38.174 31.5232 38.302 31.6992 38.394C31.8752 38.486 32.0772 38.532 32.3052 38.532C32.4932 38.532 32.6632 38.5 32.8152 38.436C32.9712 38.372 33.1072 38.276 33.2232 38.148L33.5412 38.52C33.3972 38.688 33.2172 38.816 33.0012 38.904C32.7892 38.992 32.5512 39.036 32.2872 39.036ZM37.2484 39.036C36.9284 39.036 36.6804 38.95 36.5044 38.778C36.3284 38.606 36.2404 38.36 36.2404 38.04V35.124H36.8164V38.016C36.8164 38.188 36.8584 38.32 36.9424 38.412C37.0304 38.504 37.1544 38.55 37.3144 38.55C37.4944 38.55 37.6444 38.5 37.7644 38.4L37.9444 38.814C37.8564 38.89 37.7504 38.946 37.6264 38.982C37.5064 39.018 37.3804 39.036 37.2484 39.036ZM35.7004 36.294V35.82H37.7284V36.294H35.7004ZM39.8973 39.036C39.5773 39.036 39.2933 38.966 39.0453 38.826C38.7973 38.686 38.6013 38.494 38.4573 38.25C38.3133 38.002 38.2413 37.722 38.2413 37.41C38.2413 37.094 38.3133 36.814 38.4573 36.57C38.6013 36.326 38.7973 36.136 39.0453 36C39.2933 35.86 39.5773 35.79 39.8973 35.79C40.2133 35.79 40.4953 35.86 40.7433 36C40.9953 36.136 41.1913 36.326 41.3313 36.57C41.4753 36.81 41.5473 37.09 41.5473 37.41C41.5473 37.726 41.4753 38.006 41.3313 38.25C41.1913 38.494 40.9953 38.686 40.7433 38.826C40.4953 38.966 40.2133 39.036 39.8973 39.036ZM39.8973 38.532C40.1013 38.532 40.2833 38.486 40.4433 38.394C40.6073 38.302 40.7353 38.172 40.8273 38.004C40.9193 37.832 40.9653 37.634 40.9653 37.41C40.9653 37.182 40.9193 36.986 40.8273 36.822C40.7353 36.654 40.6073 36.524 40.4433 36.432C40.2833 36.34 40.1013 36.294 39.8973 36.294C39.6933 36.294 39.5113 36.34 39.3513 36.432C39.1913 36.524 39.0633 36.654 38.9673 36.822C38.8713 36.986 38.8233 37.182 38.8233 37.41C38.8233 37.634 38.8713 37.832 38.9673 38.004C39.0633 38.172 39.1913 38.302 39.3513 38.394C39.5113 38.486 39.6933 38.532 39.8973 38.532ZM44.0392 39V34.8H45.6772C46.0452 34.8 46.3592 34.858 46.6192 34.974C46.8792 35.09 47.0792 35.258 47.2192 35.478C47.3592 35.698 47.4292 35.96 47.4292 36.264C47.4292 36.568 47.3592 36.83 47.2192 37.05C47.0792 37.266 46.8792 37.434 46.6192 37.554C46.3592 37.67 46.0452 37.728 45.6772 37.728H44.3692L44.6392 37.446V39H44.0392ZM44.6392 37.506L44.3692 37.206H45.6592C46.0432 37.206 46.3332 37.124 46.5292 36.96C46.7292 36.796 46.8292 36.564 46.8292 36.264C46.8292 35.964 46.7292 35.732 46.5292 35.568C46.3332 35.404 46.0432 35.322 45.6592 35.322H44.3692L44.6392 35.022V37.506ZM48.1681 39V35.82H48.7201V36.684L48.6661 36.468C48.7541 36.248 48.9021 36.08 49.1101 35.964C49.3181 35.848 49.5741 35.79 49.8781 35.79V36.348C49.8541 36.344 49.8301 36.342 49.8061 36.342C49.7861 36.342 49.7661 36.342 49.7461 36.342C49.4381 36.342 49.1941 36.434 49.0141 36.618C48.8341 36.802 48.7441 37.068 48.7441 37.416V39H48.1681ZM51.9747 39.036C51.6347 39.036 51.3347 38.966 51.0747 38.826C50.8187 38.686 50.6187 38.494 50.4747 38.25C50.3347 38.006 50.2647 37.726 50.2647 37.41C50.2647 37.094 50.3327 36.814 50.4687 36.57C50.6087 36.326 50.7987 36.136 51.0387 36C51.2827 35.86 51.5567 35.79 51.8607 35.79C52.1687 35.79 52.4407 35.858 52.6767 35.994C52.9127 36.13 53.0967 36.322 53.2287 36.57C53.3647 36.814 53.4327 37.1 53.4327 37.428C53.4327 37.452 53.4307 37.48 53.4267 37.512C53.4267 37.544 53.4247 37.574 53.4207 37.602H50.7147V37.188H53.1207L52.8867 37.332C52.8907 37.128 52.8487 36.946 52.7607 36.786C52.6727 36.626 52.5507 36.502 52.3947 36.414C52.2427 36.322 52.0647 36.276 51.8607 36.276C51.6607 36.276 51.4827 36.322 51.3267 36.414C51.1707 36.502 51.0487 36.628 50.9607 36.792C50.8727 36.952 50.8287 37.136 50.8287 37.344V37.44C50.8287 37.652 50.8767 37.842 50.9727 38.01C51.0727 38.174 51.2107 38.302 51.3867 38.394C51.5627 38.486 51.7647 38.532 51.9927 38.532C52.1807 38.532 52.3507 38.5 52.5027 38.436C52.6587 38.372 52.7947 38.276 52.9107 38.148L53.2287 38.52C53.0847 38.688 52.9047 38.816 52.6887 38.904C52.4767 38.992 52.2387 39.036 51.9747 39.036ZM58.2105 35.79C58.4665 35.79 58.6925 35.84 58.8885 35.94C59.0845 36.04 59.2365 36.192 59.3445 36.396C59.4565 36.6 59.5125 36.858 59.5125 37.17V39H58.9365V37.236C58.9365 36.928 58.8645 36.696 58.7205 36.54C58.5765 36.384 58.3745 36.306 58.1145 36.306C57.9225 36.306 57.7545 36.346 57.6105 36.426C57.4665 36.506 57.3545 36.624 57.2745 36.78C57.1985 36.936 57.1605 37.13 57.1605 37.362V39H56.5845V37.236C56.5845 36.928 56.5125 36.696 56.3685 36.54C56.2285 36.384 56.0265 36.306 55.7625 36.306C55.5745 36.306 55.4085 36.346 55.2645 36.426C55.1205 36.506 55.0085 36.624 54.9285 36.78C54.8485 36.936 54.8085 37.13 54.8085 37.362V39H54.2325V35.82H54.7845V36.666L54.6945 36.45C54.7945 36.242 54.9485 36.08 55.1565 35.964C55.3645 35.848 55.6065 35.79 55.8825 35.79C56.1865 35.79 56.4485 35.866 56.6685 36.018C56.8885 36.166 57.0325 36.392 57.1005 36.696L56.8665 36.6C56.9625 36.356 57.1305 36.16 57.3705 36.012C57.6105 35.864 57.8905 35.79 58.2105 35.79ZM60.5724 39V35.82H61.1484V39H60.5724ZM60.8604 35.208C60.7484 35.208 60.6544 35.172 60.5784 35.1C60.5064 35.028 60.4704 34.94 60.4704 34.836C60.4704 34.728 60.5064 34.638 60.5784 34.566C60.6544 34.494 60.7484 34.458 60.8604 34.458C60.9724 34.458 61.0644 34.494 61.1364 34.566C61.2124 34.634 61.2504 34.72 61.2504 34.824C61.2504 34.932 61.2144 35.024 61.1424 35.1C61.0704 35.172 60.9764 35.208 60.8604 35.208ZM63.5861 39.036C63.3141 39.036 63.0741 38.986 62.8661 38.886C62.6621 38.786 62.5021 38.634 62.3861 38.43C62.2741 38.222 62.2181 37.962 62.2181 37.65V35.82H62.7941V37.584C62.7941 37.896 62.8681 38.13 63.0161 38.286C63.1681 38.442 63.3801 38.52 63.6521 38.52C63.8521 38.52 64.0261 38.48 64.1741 38.4C64.3221 38.316 64.4361 38.196 64.5161 38.04C64.5961 37.88 64.6361 37.688 64.6361 37.464V35.82H65.2121V39H64.6661V38.142L64.7561 38.37C64.6521 38.582 64.4961 38.746 64.2881 38.862C64.0801 38.978 63.8461 39.036 63.5861 39.036ZM70.2867 35.79C70.5427 35.79 70.7687 35.84 70.9647 35.94C71.1607 36.04 71.3127 36.192 71.4207 36.396C71.5327 36.6 71.5887 36.858 71.5887 37.17V39H71.0127V37.236C71.0127 36.928 70.9407 36.696 70.7967 36.54C70.6527 36.384 70.4507 36.306 70.1907 36.306C69.9987 36.306 69.8307 36.346 69.6867 36.426C69.5427 36.506 69.4307 36.624 69.3507 36.78C69.2747 36.936 69.2367 37.13 69.2367 37.362V39H68.6607V37.236C68.6607 36.928 68.5887 36.696 68.4447 36.54C68.3047 36.384 68.1027 36.306 67.8387 36.306C67.6507 36.306 67.4847 36.346 67.3407 36.426C67.1967 36.506 67.0847 36.624 67.0047 36.78C66.9247 36.936 66.8847 37.13 66.8847 37.362V39H66.3087V35.82H66.8607V36.666L66.7707 36.45C66.8707 36.242 67.0247 36.08 67.2327 35.964C67.4407 35.848 67.6827 35.79 67.9587 35.79C68.2627 35.79 68.5247 35.866 68.7447 36.018C68.9647 36.166 69.1087 36.392 69.1767 36.696L68.9427 36.6C69.0387 36.356 69.2067 36.16 69.4467 36.012C69.6867 35.864 69.9667 35.79 70.2867 35.79ZM76.2339 39V38.328L76.2039 38.202V37.056C76.2039 36.812 76.1319 36.624 75.9879 36.492C75.8479 36.356 75.6359 36.288 75.3519 36.288C75.1639 36.288 74.9799 36.32 74.7999 36.384C74.6199 36.444 74.4679 36.526 74.3439 36.63L74.1039 36.198C74.2679 36.066 74.4639 35.966 74.6919 35.898C74.9239 35.826 75.1659 35.79 75.4179 35.79C75.8539 35.79 76.1899 35.896 76.4259 36.108C76.6619 36.32 76.7799 36.644 76.7799 37.08V39H76.2339ZM75.1899 39.036C74.9539 39.036 74.7459 38.996 74.5659 38.916C74.3899 38.836 74.2539 38.726 74.1579 38.586C74.0619 38.442 74.0139 38.28 74.0139 38.1C74.0139 37.928 74.0539 37.772 74.1339 37.632C74.2179 37.492 74.3519 37.38 74.5359 37.296C74.7239 37.212 74.9759 37.17 75.2919 37.17H76.2999V37.584H75.3159C75.0279 37.584 74.8339 37.632 74.7339 37.728C74.6339 37.824 74.5839 37.94 74.5839 38.076C74.5839 38.232 74.6459 38.358 74.7699 38.454C74.8939 38.546 75.0659 38.592 75.2859 38.592C75.5019 38.592 75.6899 38.544 75.8499 38.448C76.0139 38.352 76.1319 38.212 76.2039 38.028L76.3179 38.424C76.2419 38.612 76.1079 38.762 75.9159 38.874C75.7239 38.982 75.4819 39.036 75.1899 39.036ZM79.5438 35.79C79.8038 35.79 80.0318 35.84 80.2278 35.94C80.4278 36.04 80.5838 36.192 80.6958 36.396C80.8078 36.6 80.8638 36.858 80.8638 37.17V39H80.2878V37.236C80.2878 36.928 80.2118 36.696 80.0598 36.54C79.9118 36.384 79.7018 36.306 79.4298 36.306C79.2258 36.306 79.0478 36.346 78.8958 36.426C78.7438 36.506 78.6258 36.624 78.5418 36.78C78.4618 36.936 78.4218 37.13 78.4218 37.362V39H77.8458V35.82H78.3978V36.678L78.3078 36.45C78.4118 36.242 78.5718 36.08 78.7878 35.964C79.0038 35.848 79.2558 35.79 79.5438 35.79ZM83.2438 39.036C82.9358 39.036 82.6598 38.968 82.4158 38.832C82.1758 38.696 81.9858 38.506 81.8458 38.262C81.7058 38.018 81.6358 37.734 81.6358 37.41C81.6358 37.086 81.7058 36.804 81.8458 36.564C81.9858 36.32 82.1758 36.13 82.4158 35.994C82.6598 35.858 82.9358 35.79 83.2438 35.79C83.5118 35.79 83.7538 35.85 83.9698 35.97C84.1858 36.09 84.3578 36.27 84.4858 36.51C84.6178 36.75 84.6838 37.05 84.6838 37.41C84.6838 37.77 84.6198 38.07 84.4918 38.31C84.3678 38.55 84.1978 38.732 83.9818 38.856C83.7658 38.976 83.5198 39.036 83.2438 39.036ZM83.2918 38.532C83.4918 38.532 83.6718 38.486 83.8318 38.394C83.9958 38.302 84.1238 38.172 84.2158 38.004C84.3118 37.832 84.3598 37.634 84.3598 37.41C84.3598 37.182 84.3118 36.986 84.2158 36.822C84.1238 36.654 83.9958 36.524 83.8318 36.432C83.6718 36.34 83.4918 36.294 83.2918 36.294C83.0878 36.294 82.9058 36.34 82.7458 36.432C82.5858 36.524 82.4578 36.654 82.3618 36.822C82.2658 36.986 82.2178 37.182 82.2178 37.41C82.2178 37.634 82.2658 37.832 82.3618 38.004C82.4578 38.172 82.5858 38.302 82.7458 38.394C82.9058 38.486 83.0878 38.532 83.2918 38.532ZM84.3778 39V38.142L84.4138 37.404L84.3538 36.666V34.548H84.9298V39H84.3778ZM87.631 39V35.82H88.207V39H87.631ZM87.919 35.208C87.807 35.208 87.713 35.172 87.637 35.1C87.565 35.028 87.529 34.94 87.529 34.836C87.529 34.728 87.565 34.638 87.637 34.566C87.713 34.494 87.807 34.458 87.919 34.458C88.031 34.458 88.123 34.494 88.195 34.566C88.271 34.634 88.309 34.72 88.309 34.824C88.309 34.932 88.273 35.024 88.201 35.1C88.129 35.172 88.035 35.208 87.919 35.208ZM91.0047 35.79C91.2647 35.79 91.4927 35.84 91.6887 35.94C91.8887 36.04 92.0447 36.192 92.1567 36.396C92.2687 36.6 92.3247 36.858 92.3247 37.17V39H91.7487V37.236C91.7487 36.928 91.6727 36.696 91.5207 36.54C91.3727 36.384 91.1627 36.306 90.8907 36.306C90.6867 36.306 90.5087 36.346 90.3567 36.426C90.2047 36.506 90.0867 36.624 90.0027 36.78C89.9227 36.936 89.8827 37.13 89.8827 37.362V39H89.3067V35.82H89.8587V36.678L89.7687 36.45C89.8727 36.242 90.0327 36.08 90.2487 35.964C90.4647 35.848 90.7167 35.79 91.0047 35.79ZM94.7767 39.036C94.4527 39.036 94.1627 38.966 93.9067 38.826C93.6547 38.686 93.4567 38.494 93.3127 38.25C93.1687 38.006 93.0967 37.726 93.0967 37.41C93.0967 37.094 93.1687 36.814 93.3127 36.57C93.4567 36.326 93.6547 36.136 93.9067 36C94.1627 35.86 94.4527 35.79 94.7767 35.79C95.0647 35.79 95.3207 35.848 95.5447 35.964C95.7727 36.076 95.9487 36.244 96.0727 36.468L95.6347 36.75C95.5307 36.594 95.4027 36.48 95.2507 36.408C95.1027 36.332 94.9427 36.294 94.7707 36.294C94.5627 36.294 94.3767 36.34 94.2127 36.432C94.0487 36.524 93.9187 36.654 93.8227 36.822C93.7267 36.986 93.6787 37.182 93.6787 37.41C93.6787 37.638 93.7267 37.836 93.8227 38.004C93.9187 38.172 94.0487 38.302 94.2127 38.394C94.3767 38.486 94.5627 38.532 94.7707 38.532C94.9427 38.532 95.1027 38.496 95.2507 38.424C95.4027 38.348 95.5307 38.232 95.6347 38.076L96.0727 38.352C95.9487 38.572 95.7727 38.742 95.5447 38.862C95.3207 38.978 95.0647 39.036 94.7767 39.036ZM96.8185 39V35.82H97.3705V36.684L97.3165 36.468C97.4045 36.248 97.5525 36.08 97.7605 35.964C97.9685 35.848 98.2245 35.79 98.5285 35.79V36.348C98.5045 36.344 98.4805 36.342 98.4565 36.342C98.4365 36.342 98.4165 36.342 98.3965 36.342C98.0885 36.342 97.8445 36.434 97.6645 36.618C97.4845 36.802 97.3945 37.068 97.3945 37.416V39H96.8185ZM100.625 39.036C100.285 39.036 99.9851 38.966 99.7251 38.826C99.4691 38.686 99.2691 38.494 99.1251 38.25C98.9851 38.006 98.9151 37.726 98.9151 37.41C98.9151 37.094 98.9831 36.814 99.1191 36.57C99.2591 36.326 99.4491 36.136 99.6891 36C99.9331 35.86 100.207 35.79 100.511 35.79C100.819 35.79 101.091 35.858 101.327 35.994C101.563 36.13 101.747 36.322 101.879 36.57C102.015 36.814 102.083 37.1 102.083 37.428C102.083 37.452 102.081 37.48 102.077 37.512C102.077 37.544 102.075 37.574 102.071 37.602H99.3651V37.188H101.771L101.537 37.332C101.541 37.128 101.499 36.946 101.411 36.786C101.323 36.626 101.201 36.502 101.045 36.414C100.893 36.322 100.715 36.276 100.511 36.276C100.311 36.276 100.133 36.322 99.9771 36.414C99.8211 36.502 99.6991 36.628 99.6111 36.792C99.5231 36.952 99.4791 37.136 99.4791 37.344V37.44C99.4791 37.652 99.5271 37.842 99.6231 38.01C99.7231 38.174 99.8611 38.302 100.037 38.394C100.213 38.486 100.415 38.532 100.643 38.532C100.831 38.532 101.001 38.5 101.153 38.436C101.309 38.372 101.445 38.276 101.561 38.148L101.879 38.52C101.735 38.688 101.555 38.816 101.339 38.904C101.127 38.992 100.889 39.036 100.625 39.036ZM104.769 39V38.328L104.739 38.202V37.056C104.739 36.812 104.667 36.624 104.523 36.492C104.383 36.356 104.171 36.288 103.887 36.288C103.699 36.288 103.515 36.32 103.335 36.384C103.155 36.444 103.003 36.526 102.879 36.63L102.639 36.198C102.803 36.066 102.999 35.966 103.227 35.898C103.459 35.826 103.701 35.79 103.953 35.79C104.389 35.79 104.725 35.896 104.961 36.108C105.197 36.32 105.315 36.644 105.315 37.08V39H104.769ZM103.725 39.036C103.489 39.036 103.281 38.996 103.101 38.916C102.925 38.836 102.789 38.726 102.693 38.586C102.597 38.442 102.549 38.28 102.549 38.1C102.549 37.928 102.589 37.772 102.669 37.632C102.753 37.492 102.887 37.38 103.071 37.296C103.259 37.212 103.511 37.17 103.827 37.17H104.835V37.584H103.851C103.563 37.584 103.369 37.632 103.269 37.728C103.169 37.824 103.119 37.94 103.119 38.076C103.119 38.232 103.181 38.358 103.305 38.454C103.429 38.546 103.601 38.592 103.821 38.592C104.037 38.592 104.225 38.544 104.385 38.448C104.549 38.352 104.667 38.212 104.739 38.028L104.853 38.424C104.777 38.612 104.643 38.762 104.451 38.874C104.259 38.982 104.017 39.036 103.725 39.036ZM107.293 39.036C107.029 39.036 106.777 39 106.537 38.928C106.301 38.856 106.115 38.768 105.979 38.664L106.219 38.208C106.355 38.3 106.523 38.378 106.723 38.442C106.923 38.506 107.127 38.538 107.335 38.538C107.603 38.538 107.795 38.5 107.911 38.424C108.031 38.348 108.091 38.242 108.091 38.106C108.091 38.006 108.055 37.928 107.983 37.872C107.911 37.816 107.815 37.774 107.695 37.746C107.579 37.718 107.449 37.694 107.305 37.674C107.161 37.65 107.017 37.622 106.873 37.59C106.729 37.554 106.597 37.506 106.477 37.446C106.357 37.382 106.261 37.296 106.189 37.188C106.117 37.076 106.081 36.928 106.081 36.744C106.081 36.552 106.135 36.384 106.243 36.24C106.351 36.096 106.503 35.986 106.699 35.91C106.899 35.83 107.135 35.79 107.407 35.79C107.615 35.79 107.825 35.816 108.037 35.868C108.253 35.916 108.429 35.986 108.565 36.078L108.319 36.534C108.175 36.438 108.025 36.372 107.869 36.336C107.713 36.3 107.557 36.282 107.401 36.282C107.149 36.282 106.961 36.324 106.837 36.408C106.713 36.488 106.651 36.592 106.651 36.72C106.651 36.828 106.687 36.912 106.759 36.972C106.835 37.028 106.931 37.072 107.047 37.104C107.167 37.136 107.299 37.164 107.443 37.188C107.587 37.208 107.731 37.236 107.875 37.272C108.019 37.304 108.149 37.35 108.265 37.41C108.385 37.47 108.481 37.554 108.553 37.662C108.629 37.77 108.667 37.914 108.667 38.094C108.667 38.286 108.611 38.452 108.499 38.592C108.387 38.732 108.229 38.842 108.025 38.922C107.821 38.998 107.577 39.036 107.293 39.036ZM110.803 39.036C110.463 39.036 110.163 38.966 109.903 38.826C109.647 38.686 109.447 38.494 109.303 38.25C109.163 38.006 109.093 37.726 109.093 37.41C109.093 37.094 109.161 36.814 109.297 36.57C109.437 36.326 109.627 36.136 109.867 36C110.111 35.86 110.385 35.79 110.689 35.79C110.997 35.79 111.269 35.858 111.505 35.994C111.741 36.13 111.925 36.322 112.057 36.57C112.193 36.814 112.261 37.1 112.261 37.428C112.261 37.452 112.259 37.48 112.255 37.512C112.255 37.544 112.253 37.574 112.249 37.602H109.543V37.188H111.949L111.715 37.332C111.719 37.128 111.677 36.946 111.589 36.786C111.501 36.626 111.379 36.502 111.223 36.414C111.071 36.322 110.893 36.276 110.689 36.276C110.489 36.276 110.311 36.322 110.155 36.414C109.999 36.502 109.877 36.628 109.789 36.792C109.701 36.952 109.657 37.136 109.657 37.344V37.44C109.657 37.652 109.705 37.842 109.801 38.01C109.901 38.174 110.039 38.302 110.215 38.394C110.391 38.486 110.593 38.532 110.821 38.532C111.009 38.532 111.179 38.5 111.331 38.436C111.487 38.372 111.623 38.276 111.739 38.148L112.057 38.52C111.913 38.688 111.733 38.816 111.517 38.904C111.305 38.992 111.067 39.036 110.803 39.036ZM11.4447 48.2C11.2927 48.2 11.1447 48.174 11.0007 48.122C10.8567 48.074 10.7327 48.002 10.6287 47.906L10.8747 47.474C10.9547 47.55 11.0427 47.608 11.1387 47.648C11.2347 47.688 11.3367 47.708 11.4447 47.708C11.5847 47.708 11.7007 47.672 11.7927 47.6C11.8847 47.528 11.9707 47.4 12.0507 47.216L12.2487 46.778L12.3087 46.706L13.5567 43.82H14.1207L12.5787 47.318C12.4867 47.542 12.3827 47.718 12.2667 47.846C12.1547 47.974 12.0307 48.064 11.8947 48.116C11.7587 48.172 11.6087 48.2 11.4447 48.2ZM12.2007 47.102L10.7487 43.82H11.3487L12.5847 46.652L12.2007 47.102ZM15.9324 47.036C15.6124 47.036 15.3284 46.966 15.0804 46.826C14.8324 46.686 14.6364 46.494 14.4924 46.25C14.3484 46.002 14.2764 45.722 14.2764 45.41C14.2764 45.094 14.3484 44.814 14.4924 44.57C14.6364 44.326 14.8324 44.136 15.0804 44C15.3284 43.86 15.6124 43.79 15.9324 43.79C16.2484 43.79 16.5304 43.86 16.7784 44C17.0304 44.136 17.2264 44.326 17.3664 44.57C17.5104 44.81 17.5824 45.09 17.5824 45.41C17.5824 45.726 17.5104 46.006 17.3664 46.25C17.2264 46.494 17.0304 46.686 16.7784 46.826C16.5304 46.966 16.2484 47.036 15.9324 47.036ZM15.9324 46.532C16.1364 46.532 16.3184 46.486 16.4784 46.394C16.6424 46.302 16.7704 46.172 16.8624 46.004C16.9544 45.832 17.0004 45.634 17.0004 45.41C17.0004 45.182 16.9544 44.986 16.8624 44.822C16.7704 44.654 16.6424 44.524 16.4784 44.432C16.3184 44.34 16.1364 44.294 15.9324 44.294C15.7284 44.294 15.5464 44.34 15.3864 44.432C15.2264 44.524 15.0984 44.654 15.0024 44.822C14.9064 44.986 14.8584 45.182 14.8584 45.41C14.8584 45.634 14.9064 45.832 15.0024 46.004C15.0984 46.172 15.2264 46.302 15.3864 46.394C15.5464 46.486 15.7284 46.532 15.9324 46.532ZM19.717 47.036C19.445 47.036 19.205 46.986 18.997 46.886C18.793 46.786 18.633 46.634 18.517 46.43C18.405 46.222 18.349 45.962 18.349 45.65V43.82H18.925V45.584C18.925 45.896 18.999 46.13 19.147 46.286C19.299 46.442 19.511 46.52 19.783 46.52C19.983 46.52 20.157 46.48 20.305 46.4C20.453 46.316 20.567 46.196 20.647 46.04C20.727 45.88 20.767 45.688 20.767 45.464V43.82H21.343V47H20.797V46.142L20.887 46.37C20.783 46.582 20.627 46.746 20.419 46.862C20.211 46.978 19.977 47.036 19.717 47.036ZM22.4396 47V43.82H22.9916V44.684L22.9376 44.468C23.0256 44.248 23.1736 44.08 23.3816 43.964C23.5896 43.848 23.8456 43.79 24.1496 43.79V44.348C24.1256 44.344 24.1016 44.342 24.0776 44.342C24.0576 44.342 24.0376 44.342 24.0176 44.342C23.7096 44.342 23.4656 44.434 23.2856 44.618C23.1056 44.802 23.0156 45.068 23.0156 45.416V47H22.4396ZM26.5118 47V43.82H27.0638V44.684L27.0098 44.468C27.0978 44.248 27.2458 44.08 27.4538 43.964C27.6618 43.848 27.9178 43.79 28.2218 43.79V44.348C28.1978 44.344 28.1738 44.342 28.1498 44.342C28.1298 44.342 28.1098 44.342 28.0898 44.342C27.7818 44.342 27.5378 44.434 27.3578 44.618C27.1778 44.802 27.0878 45.068 27.0878 45.416V47H26.5118ZM30.6714 47V46.328L30.6414 46.202V45.056C30.6414 44.812 30.5694 44.624 30.4254 44.492C30.2854 44.356 30.0734 44.288 29.7894 44.288C29.6014 44.288 29.4174 44.32 29.2374 44.384C29.0574 44.444 28.9054 44.526 28.7814 44.63L28.5414 44.198C28.7054 44.066 28.9014 43.966 29.1294 43.898C29.3614 43.826 29.6034 43.79 29.8554 43.79C30.2914 43.79 30.6274 43.896 30.8634 44.108C31.0994 44.32 31.2174 44.644 31.2174 45.08V47H30.6714ZM29.6274 47.036C29.3914 47.036 29.1834 46.996 29.0034 46.916C28.8274 46.836 28.6914 46.726 28.5954 46.586C28.4994 46.442 28.4514 46.28 28.4514 46.1C28.4514 45.928 28.4914 45.772 28.5714 45.632C28.6554 45.492 28.7894 45.38 28.9734 45.296C29.1614 45.212 29.4134 45.17 29.7294 45.17H30.7374V45.584H29.7534C29.4654 45.584 29.2714 45.632 29.1714 45.728C29.0714 45.824 29.0214 45.94 29.0214 46.076C29.0214 46.232 29.0834 46.358 29.2074 46.454C29.3314 46.546 29.5034 46.592 29.7234 46.592C29.9394 46.592 30.1274 46.544 30.2874 46.448C30.4514 46.352 30.5694 46.212 30.6414 46.028L30.7554 46.424C30.6794 46.612 30.5454 46.762 30.3534 46.874C30.1614 46.982 29.9194 47.036 29.6274 47.036ZM33.9813 43.79C34.2413 43.79 34.4693 43.84 34.6653 43.94C34.8653 44.04 35.0213 44.192 35.1333 44.396C35.2453 44.6 35.3013 44.858 35.3013 45.17V47H34.7253V45.236C34.7253 44.928 34.6493 44.696 34.4973 44.54C34.3493 44.384 34.1393 44.306 33.8673 44.306C33.6633 44.306 33.4853 44.346 33.3333 44.426C33.1813 44.506 33.0633 44.624 32.9793 44.78C32.8993 44.936 32.8593 45.13 32.8593 45.362V47H32.2833V43.82H32.8353V44.678L32.7453 44.45C32.8493 44.242 33.0093 44.08 33.2253 43.964C33.4413 43.848 33.6933 43.79 33.9813 43.79ZM36.8353 46.232L36.8473 45.494L38.6773 43.82H39.3733L37.9693 45.2L37.6573 45.464L36.8353 46.232ZM36.3673 47V42.548H36.9433V47H36.3673ZM38.7973 47L37.5493 45.452L37.9213 44.99L39.5053 47H38.7973ZM41.2139 47L42.5819 45.224L42.5759 45.518L41.2739 43.82H41.9159L42.9119 45.128H42.6659L43.6619 43.82H44.2919L42.9719 45.53L42.9779 45.224L44.3579 47H43.7039L42.6539 45.608L42.8879 45.644L41.8559 47H41.2139ZM44.4692 45.968V45.548L46.6172 42.8H47.2652L45.1352 45.548L44.8292 45.452H48.1832V45.968H44.4692ZM46.8032 47V45.968L46.8212 45.452V44.54H47.3852V47H46.8032ZM50.4962 47V43.538C50.4962 43.226 50.5862 42.978 50.7662 42.794C50.9502 42.606 51.2102 42.512 51.5462 42.512C51.6702 42.512 51.7882 42.528 51.9002 42.56C52.0162 42.588 52.1142 42.634 52.1942 42.698L52.0202 43.136C51.9602 43.088 51.8922 43.052 51.8162 43.028C51.7402 43 51.6602 42.986 51.5762 42.986C51.4082 42.986 51.2802 43.034 51.1922 43.13C51.1042 43.222 51.0602 43.36 51.0602 43.544V43.97L51.0722 44.234V47H50.4962ZM49.9562 44.294V43.82H51.9842V44.294H49.9562ZM54.4429 47V46.328L54.4129 46.202V45.056C54.4129 44.812 54.3409 44.624 54.1969 44.492C54.0569 44.356 53.8449 44.288 53.5609 44.288C53.3729 44.288 53.1889 44.32 53.0089 44.384C52.8289 44.444 52.6769 44.526 52.5529 44.63L52.3129 44.198C52.4769 44.066 52.6729 43.966 52.9009 43.898C53.1329 43.826 53.3749 43.79 53.6269 43.79C54.0629 43.79 54.3989 43.896 54.6349 44.108C54.8709 44.32 54.9889 44.644 54.9889 45.08V47H54.4429ZM53.3989 47.036C53.1629 47.036 52.9549 46.996 52.7749 46.916C52.5989 46.836 52.4629 46.726 52.3669 46.586C52.2709 46.442 52.2229 46.28 52.2229 46.1C52.2229 45.928 52.2629 45.772 52.3429 45.632C52.4269 45.492 52.5609 45.38 52.7449 45.296C52.9329 45.212 53.1849 45.17 53.5009 45.17H54.5089V45.584H53.5249C53.2369 45.584 53.0429 45.632 52.9429 45.728C52.8429 45.824 52.7929 45.94 52.7929 46.076C52.7929 46.232 52.8549 46.358 52.9789 46.454C53.1029 46.546 53.2749 46.592 53.4949 46.592C53.7109 46.592 53.8989 46.544 54.0589 46.448C54.2229 46.352 54.3409 46.212 54.4129 46.028L54.5269 46.424C54.4509 46.612 54.3169 46.762 54.1249 46.874C53.9329 46.982 53.6909 47.036 53.3989 47.036ZM56.9668 47.036C56.7028 47.036 56.4508 47 56.2108 46.928C55.9748 46.856 55.7888 46.768 55.6528 46.664L55.8928 46.208C56.0288 46.3 56.1968 46.378 56.3968 46.442C56.5968 46.506 56.8008 46.538 57.0088 46.538C57.2768 46.538 57.4688 46.5 57.5848 46.424C57.7048 46.348 57.7648 46.242 57.7648 46.106C57.7648 46.006 57.7288 45.928 57.6568 45.872C57.5848 45.816 57.4888 45.774 57.3688 45.746C57.2528 45.718 57.1228 45.694 56.9788 45.674C56.8348 45.65 56.6908 45.622 56.5468 45.59C56.4028 45.554 56.2708 45.506 56.1508 45.446C56.0308 45.382 55.9348 45.296 55.8628 45.188C55.7908 45.076 55.7548 44.928 55.7548 44.744C55.7548 44.552 55.8088 44.384 55.9168 44.24C56.0248 44.096 56.1768 43.986 56.3728 43.91C56.5728 43.83 56.8088 43.79 57.0808 43.79C57.2888 43.79 57.4988 43.816 57.7108 43.868C57.9268 43.916 58.1028 43.986 58.2388 44.078L57.9928 44.534C57.8488 44.438 57.6988 44.372 57.5428 44.336C57.3868 44.3 57.2308 44.282 57.0748 44.282C56.8228 44.282 56.6348 44.324 56.5108 44.408C56.3868 44.488 56.3248 44.592 56.3248 44.72C56.3248 44.828 56.3608 44.912 56.4328 44.972C56.5088 45.028 56.6048 45.072 56.7208 45.104C56.8408 45.136 56.9728 45.164 57.1168 45.188C57.2608 45.208 57.4048 45.236 57.5488 45.272C57.6928 45.304 57.8228 45.35 57.9388 45.41C58.0588 45.47 58.1548 45.554 58.2268 45.662C58.3028 45.77 58.3408 45.914 58.3408 46.094C58.3408 46.286 58.2848 46.452 58.1728 46.592C58.0608 46.732 57.9028 46.842 57.6988 46.922C57.4948 46.998 57.2508 47.036 56.9668 47.036ZM60.1526 47.036C59.8326 47.036 59.5846 46.95 59.4086 46.778C59.2326 46.606 59.1446 46.36 59.1446 46.04V43.124H59.7206V46.016C59.7206 46.188 59.7626 46.32 59.8466 46.412C59.9346 46.504 60.0586 46.55 60.2186 46.55C60.3986 46.55 60.5486 46.5 60.6686 46.4L60.8486 46.814C60.7606 46.89 60.6546 46.946 60.5306 46.982C60.4106 47.018 60.2846 47.036 60.1526 47.036ZM58.6046 44.294V43.82H60.6326V44.294H58.6046ZM62.8556 47.036C62.5156 47.036 62.2156 46.966 61.9556 46.826C61.6996 46.686 61.4996 46.494 61.3556 46.25C61.2156 46.006 61.1456 45.726 61.1456 45.41C61.1456 45.094 61.2136 44.814 61.3496 44.57C61.4896 44.326 61.6796 44.136 61.9196 44C62.1636 43.86 62.4376 43.79 62.7416 43.79C63.0496 43.79 63.3216 43.858 63.5576 43.994C63.7936 44.13 63.9776 44.322 64.1096 44.57C64.2456 44.814 64.3136 45.1 64.3136 45.428C64.3136 45.452 64.3116 45.48 64.3076 45.512C64.3076 45.544 64.3056 45.574 64.3016 45.602H61.5956V45.188H64.0016L63.7676 45.332C63.7716 45.128 63.7296 44.946 63.6416 44.786C63.5536 44.626 63.4316 44.502 63.2756 44.414C63.1236 44.322 62.9456 44.276 62.7416 44.276C62.5416 44.276 62.3636 44.322 62.2076 44.414C62.0516 44.502 61.9296 44.628 61.8416 44.792C61.7536 44.952 61.7096 45.136 61.7096 45.344V45.44C61.7096 45.652 61.7576 45.842 61.8536 46.01C61.9536 46.174 62.0916 46.302 62.2676 46.394C62.4436 46.486 62.6456 46.532 62.8736 46.532C63.0616 46.532 63.2316 46.5 63.3836 46.436C63.5396 46.372 63.6756 46.276 63.7916 46.148L64.1096 46.52C63.9656 46.688 63.7856 46.816 63.5696 46.904C63.3576 46.992 63.1196 47.036 62.8556 47.036ZM65.1134 47V43.82H65.6654V44.684L65.6114 44.468C65.6994 44.248 65.8474 44.08 66.0554 43.964C66.2634 43.848 66.5194 43.79 66.8234 43.79V44.348C66.7994 44.344 66.7754 44.342 66.7514 44.342C66.7314 44.342 66.7114 44.342 66.6914 44.342C66.3834 44.342 66.1394 44.434 65.9594 44.618C65.7794 44.802 65.6894 45.068 65.6894 45.416V47H65.1134ZM68.9816 45.602V45.104H70.5956V45.602H68.9816ZM75.0679 47V46.328L75.0379 46.202V45.056C75.0379 44.812 74.9659 44.624 74.8219 44.492C74.6819 44.356 74.4699 44.288 74.1859 44.288C73.9979 44.288 73.8139 44.32 73.6339 44.384C73.4539 44.444 73.3019 44.526 73.1779 44.63L72.9379 44.198C73.1019 44.066 73.2979 43.966 73.5259 43.898C73.7579 43.826 73.9999 43.79 74.2519 43.79C74.6879 43.79 75.0239 43.896 75.2599 44.108C75.4959 44.32 75.6139 44.644 75.6139 45.08V47H75.0679ZM74.0239 47.036C73.7879 47.036 73.5799 46.996 73.3999 46.916C73.2239 46.836 73.0879 46.726 72.9919 46.586C72.8959 46.442 72.8479 46.28 72.8479 46.1C72.8479 45.928 72.8879 45.772 72.9679 45.632C73.0519 45.492 73.1859 45.38 73.3699 45.296C73.5579 45.212 73.8099 45.17 74.1259 45.17H75.1339V45.584H74.1499C73.8619 45.584 73.6679 45.632 73.5679 45.728C73.4679 45.824 73.4179 45.94 73.4179 46.076C73.4179 46.232 73.4799 46.358 73.6039 46.454C73.7279 46.546 73.8999 46.592 74.1199 46.592C74.3359 46.592 74.5239 46.544 74.6839 46.448C74.8479 46.352 74.9659 46.212 75.0379 46.028L75.1519 46.424C75.0759 46.612 74.9419 46.762 74.7499 46.874C74.5579 46.982 74.3159 47.036 74.0239 47.036ZM77.4552 47L76.0632 43.82H76.6632L77.8992 46.7H77.6112L78.8712 43.82H79.4352L78.0432 47H77.4552ZM81.8471 47V46.328L81.8171 46.202V45.056C81.8171 44.812 81.7451 44.624 81.6011 44.492C81.4611 44.356 81.2491 44.288 80.9651 44.288C80.7771 44.288 80.5931 44.32 80.4131 44.384C80.2331 44.444 80.0811 44.526 79.9571 44.63L79.7171 44.198C79.8811 44.066 80.0771 43.966 80.3051 43.898C80.5371 43.826 80.7791 43.79 81.0311 43.79C81.4671 43.79 81.8031 43.896 82.0391 44.108C82.2751 44.32 82.3931 44.644 82.3931 45.08V47H81.8471ZM80.8031 47.036C80.5671 47.036 80.3591 46.996 80.1791 46.916C80.0031 46.836 79.8671 46.726 79.7711 46.586C79.6751 46.442 79.6271 46.28 79.6271 46.1C79.6271 45.928 79.6671 45.772 79.7471 45.632C79.8311 45.492 79.9651 45.38 80.1491 45.296C80.3371 45.212 80.5891 45.17 80.9051 45.17H81.9131V45.584H80.9291C80.6411 45.584 80.4471 45.632 80.3471 45.728C80.2471 45.824 80.1971 45.94 80.1971 46.076C80.1971 46.232 80.2591 46.358 80.3831 46.454C80.5071 46.546 80.6791 46.592 80.8991 46.592C81.1151 46.592 81.3031 46.544 81.4631 46.448C81.6271 46.352 81.7451 46.212 81.8171 46.028L81.9311 46.424C81.8551 46.612 81.7211 46.762 81.5291 46.874C81.3371 46.982 81.0951 47.036 80.8031 47.036ZM83.4591 47V43.82H84.0351V47H83.4591ZM83.7471 43.208C83.6351 43.208 83.5411 43.172 83.4651 43.1C83.3931 43.028 83.3571 42.94 83.3571 42.836C83.3571 42.728 83.3931 42.638 83.4651 42.566C83.5411 42.494 83.6351 42.458 83.7471 42.458C83.8591 42.458 83.9511 42.494 84.0231 42.566C84.0991 42.634 84.1371 42.72 84.1371 42.824C84.1371 42.932 84.1011 43.024 84.0291 43.1C83.9571 43.172 83.8631 43.208 83.7471 43.208ZM85.1349 47V42.548H85.7109V47H85.1349ZM88.7846 47V46.328L88.7546 46.202V45.056C88.7546 44.812 88.6826 44.624 88.5386 44.492C88.3986 44.356 88.1866 44.288 87.9026 44.288C87.7146 44.288 87.5306 44.32 87.3506 44.384C87.1706 44.444 87.0186 44.526 86.8946 44.63L86.6546 44.198C86.8186 44.066 87.0146 43.966 87.2426 43.898C87.4746 43.826 87.7166 43.79 87.9686 43.79C88.4046 43.79 88.7406 43.896 88.9766 44.108C89.2126 44.32 89.3306 44.644 89.3306 45.08V47H88.7846ZM87.7406 47.036C87.5046 47.036 87.2966 46.996 87.1166 46.916C86.9406 46.836 86.8046 46.726 86.7086 46.586C86.6126 46.442 86.5646 46.28 86.5646 46.1C86.5646 45.928 86.6046 45.772 86.6846 45.632C86.7686 45.492 86.9026 45.38 87.0866 45.296C87.2746 45.212 87.5266 45.17 87.8426 45.17H88.8506V45.584H87.8666C87.5786 45.584 87.3846 45.632 87.2846 45.728C87.1846 45.824 87.1346 45.94 87.1346 46.076C87.1346 46.232 87.1966 46.358 87.3206 46.454C87.4446 46.546 87.6166 46.592 87.8366 46.592C88.0526 46.592 88.2406 46.544 88.4006 46.448C88.5646 46.352 88.6826 46.212 88.7546 46.028L88.8686 46.424C88.7926 46.612 88.6586 46.762 88.4666 46.874C88.2746 46.982 88.0326 47.036 87.7406 47.036ZM92.0826 47.036C91.8106 47.036 91.5646 46.976 91.3446 46.856C91.1286 46.732 90.9566 46.55 90.8286 46.31C90.7046 46.07 90.6426 45.77 90.6426 45.41C90.6426 45.05 90.7066 44.75 90.8346 44.51C90.9666 44.27 91.1406 44.09 91.3566 43.97C91.5766 43.85 91.8186 43.79 92.0826 43.79C92.3946 43.79 92.6706 43.858 92.9106 43.994C93.1506 44.13 93.3406 44.32 93.4806 44.564C93.6206 44.804 93.6906 45.086 93.6906 45.41C93.6906 45.734 93.6206 46.018 93.4806 46.262C93.3406 46.506 93.1506 46.696 92.9106 46.832C92.6706 46.968 92.3946 47.036 92.0826 47.036ZM90.3966 47V42.548H90.9726V44.666L90.9126 45.404L90.9486 46.142V47H90.3966ZM92.0346 46.532C92.2386 46.532 92.4206 46.486 92.5806 46.394C92.7446 46.302 92.8726 46.172 92.9646 46.004C93.0606 45.832 93.1086 45.634 93.1086 45.41C93.1086 45.182 93.0606 44.986 92.9646 44.822C92.8726 44.654 92.7446 44.524 92.5806 44.432C92.4206 44.34 92.2386 44.294 92.0346 44.294C91.8346 44.294 91.6526 44.34 91.4886 44.432C91.3286 44.524 91.2006 44.654 91.1046 44.822C91.0126 44.986 90.9666 45.182 90.9666 45.41C90.9666 45.634 91.0126 45.832 91.1046 46.004C91.2006 46.172 91.3286 46.302 91.4886 46.394C91.6526 46.486 91.8346 46.532 92.0346 46.532ZM94.4864 47V42.548H95.0624V47H94.4864ZM97.5782 47.036C97.2382 47.036 96.9382 46.966 96.6782 46.826C96.4222 46.686 96.2222 46.494 96.0782 46.25C95.9382 46.006 95.8682 45.726 95.8682 45.41C95.8682 45.094 95.9362 44.814 96.0722 44.57C96.2122 44.326 96.4022 44.136 96.6422 44C96.8862 43.86 97.1602 43.79 97.4642 43.79C97.7722 43.79 98.0442 43.858 98.2802 43.994C98.5162 44.13 98.7002 44.322 98.8322 44.57C98.9682 44.814 99.0362 45.1 99.0362 45.428C99.0362 45.452 99.0342 45.48 99.0302 45.512C99.0302 45.544 99.0282 45.574 99.0242 45.602H96.3182V45.188H98.7242L98.4902 45.332C98.4942 45.128 98.4522 44.946 98.3642 44.786C98.2762 44.626 98.1542 44.502 97.9982 44.414C97.8462 44.322 97.6682 44.276 97.4642 44.276C97.2642 44.276 97.0862 44.322 96.9302 44.414C96.7742 44.502 96.6522 44.628 96.5642 44.792C96.4762 44.952 96.4322 45.136 96.4322 45.344V45.44C96.4322 45.652 96.4802 45.842 96.5762 46.01C96.6762 46.174 96.8142 46.302 96.9902 46.394C97.1662 46.486 97.3682 46.532 97.5962 46.532C97.7842 46.532 97.9542 46.5 98.1062 46.436C98.2622 46.372 98.3982 46.276 98.5142 46.148L98.8322 46.52C98.6882 46.688 98.5082 46.816 98.2922 46.904C98.0802 46.992 97.8422 47.036 97.5782 47.036ZM101.531 47V43.538C101.531 43.226 101.621 42.978 101.801 42.794C101.985 42.606 102.245 42.512 102.581 42.512C102.705 42.512 102.823 42.528 102.935 42.56C103.051 42.588 103.149 42.634 103.229 42.698L103.055 43.136C102.995 43.088 102.927 43.052 102.851 43.028C102.775 43 102.695 42.986 102.611 42.986C102.443 42.986 102.315 43.034 102.227 43.13C102.139 43.222 102.095 43.36 102.095 43.544V43.97L102.107 44.234V47H101.531ZM100.991 44.294V43.82H103.019V44.294H100.991ZM104.878 47.036C104.558 47.036 104.274 46.966 104.026 46.826C103.778 46.686 103.582 46.494 103.438 46.25C103.294 46.002 103.222 45.722 103.222 45.41C103.222 45.094 103.294 44.814 103.438 44.57C103.582 44.326 103.778 44.136 104.026 44C104.274 43.86 104.558 43.79 104.878 43.79C105.194 43.79 105.476 43.86 105.724 44C105.976 44.136 106.172 44.326 106.312 44.57C106.456 44.81 106.528 45.09 106.528 45.41C106.528 45.726 106.456 46.006 106.312 46.25C106.172 46.494 105.976 46.686 105.724 46.826C105.476 46.966 105.194 47.036 104.878 47.036ZM104.878 46.532C105.082 46.532 105.264 46.486 105.424 46.394C105.588 46.302 105.716 46.172 105.808 46.004C105.9 45.832 105.946 45.634 105.946 45.41C105.946 45.182 105.9 44.986 105.808 44.822C105.716 44.654 105.588 44.524 105.424 44.432C105.264 44.34 105.082 44.294 104.878 44.294C104.674 44.294 104.492 44.34 104.332 44.432C104.172 44.524 104.044 44.654 103.948 44.822C103.852 44.986 103.804 45.182 103.804 45.41C103.804 45.634 103.852 45.832 103.948 46.004C104.044 46.172 104.172 46.302 104.332 46.394C104.492 46.486 104.674 46.532 104.878 46.532ZM107.324 47V43.82H107.876V44.684L107.822 44.468C107.91 44.248 108.058 44.08 108.266 43.964C108.474 43.848 108.73 43.79 109.034 43.79V44.348C109.01 44.344 108.986 44.342 108.962 44.342C108.942 44.342 108.922 44.342 108.902 44.342C108.594 44.342 108.35 44.434 108.17 44.618C107.99 44.802 107.9 45.068 107.9 45.416V47H107.324ZM40.1639 55.036C39.8439 55.036 39.5599 54.966 39.3119 54.826C39.0639 54.686 38.8679 54.494 38.7239 54.25C38.5799 54.002 38.5079 53.722 38.5079 53.41C38.5079 53.094 38.5799 52.814 38.7239 52.57C38.8679 52.326 39.0639 52.136 39.3119 52C39.5599 51.86 39.8439 51.79 40.1639 51.79C40.4799 51.79 40.7619 51.86 41.0099 52C41.2619 52.136 41.4579 52.326 41.5979 52.57C41.7419 52.81 41.8139 53.09 41.8139 53.41C41.8139 53.726 41.7419 54.006 41.5979 54.25C41.4579 54.494 41.2619 54.686 41.0099 54.826C40.7619 54.966 40.4799 55.036 40.1639 55.036ZM40.1639 54.532C40.3679 54.532 40.5499 54.486 40.7099 54.394C40.8739 54.302 41.0019 54.172 41.0939 54.004C41.1859 53.832 41.2319 53.634 41.2319 53.41C41.2319 53.182 41.1859 52.986 41.0939 52.822C41.0019 52.654 40.8739 52.524 40.7099 52.432C40.5499 52.34 40.3679 52.294 40.1639 52.294C39.9599 52.294 39.7779 52.34 39.6179 52.432C39.4579 52.524 39.3299 52.654 39.2339 52.822C39.1379 52.986 39.0899 53.182 39.0899 53.41C39.0899 53.634 39.1379 53.832 39.2339 54.004C39.3299 54.172 39.4579 54.302 39.6179 54.394C39.7779 54.486 39.9599 54.532 40.1639 54.532ZM44.3085 51.79C44.5685 51.79 44.7965 51.84 44.9925 51.94C45.1925 52.04 45.3485 52.192 45.4605 52.396C45.5725 52.6 45.6285 52.858 45.6285 53.17V55H45.0525V53.236C45.0525 52.928 44.9765 52.696 44.8245 52.54C44.6765 52.384 44.4665 52.306 44.1945 52.306C43.9905 52.306 43.8125 52.346 43.6605 52.426C43.5085 52.506 43.3905 52.624 43.3065 52.78C43.2265 52.936 43.1865 53.13 43.1865 53.362V55H42.6105V51.82H43.1625V52.678L43.0725 52.45C43.1765 52.242 43.3365 52.08 43.5525 51.964C43.7685 51.848 44.0205 51.79 44.3085 51.79ZM48.1104 55.036C47.7704 55.036 47.4704 54.966 47.2104 54.826C46.9544 54.686 46.7544 54.494 46.6104 54.25C46.4704 54.006 46.4004 53.726 46.4004 53.41C46.4004 53.094 46.4684 52.814 46.6044 52.57C46.7444 52.326 46.9344 52.136 47.1744 52C47.4184 51.86 47.6924 51.79 47.9964 51.79C48.3044 51.79 48.5764 51.858 48.8124 51.994C49.0484 52.13 49.2324 52.322 49.3644 52.57C49.5004 52.814 49.5684 53.1 49.5684 53.428C49.5684 53.452 49.5664 53.48 49.5624 53.512C49.5624 53.544 49.5604 53.574 49.5564 53.602H46.8504V53.188H49.2564L49.0224 53.332C49.0264 53.128 48.9844 52.946 48.8964 52.786C48.8084 52.626 48.6864 52.502 48.5304 52.414C48.3784 52.322 48.2004 52.276 47.9964 52.276C47.7964 52.276 47.6184 52.322 47.4624 52.414C47.3064 52.502 47.1844 52.628 47.0964 52.792C47.0084 52.952 46.9644 53.136 46.9644 53.344V53.44C46.9644 53.652 47.0124 53.842 47.1084 54.01C47.2084 54.174 47.3464 54.302 47.5224 54.394C47.6984 54.486 47.9004 54.532 48.1284 54.532C48.3164 54.532 48.4864 54.5 48.6384 54.436C48.7944 54.372 48.9304 54.276 49.0464 54.148L49.3644 54.52C49.2204 54.688 49.0404 54.816 48.8244 54.904C48.6124 54.992 48.3744 55.036 48.1104 55.036ZM53.0716 55.036C52.7516 55.036 52.5036 54.95 52.3276 54.778C52.1516 54.606 52.0636 54.36 52.0636 54.04V51.124H52.6396V54.016C52.6396 54.188 52.6816 54.32 52.7656 54.412C52.8536 54.504 52.9776 54.55 53.1376 54.55C53.3176 54.55 53.4676 54.5 53.5876 54.4L53.7676 54.814C53.6796 54.89 53.5736 54.946 53.4496 54.982C53.3296 55.018 53.2036 55.036 53.0716 55.036ZM51.5236 52.294V51.82H53.5516V52.294H51.5236ZM54.464 55V51.82H55.04V55H54.464ZM54.752 51.208C54.64 51.208 54.546 51.172 54.47 51.1C54.398 51.028 54.362 50.94 54.362 50.836C54.362 50.728 54.398 50.638 54.47 50.566C54.546 50.494 54.64 50.458 54.752 50.458C54.864 50.458 54.956 50.494 55.028 50.566C55.104 50.634 55.142 50.72 55.142 50.824C55.142 50.932 55.106 51.024 55.034 51.1C54.962 51.172 54.868 51.208 54.752 51.208ZM60.1178 51.79C60.3738 51.79 60.5998 51.84 60.7958 51.94C60.9918 52.04 61.1438 52.192 61.2518 52.396C61.3638 52.6 61.4198 52.858 61.4198 53.17V55H60.8438V53.236C60.8438 52.928 60.7718 52.696 60.6278 52.54C60.4838 52.384 60.2818 52.306 60.0218 52.306C59.8298 52.306 59.6618 52.346 59.5178 52.426C59.3738 52.506 59.2618 52.624 59.1818 52.78C59.1058 52.936 59.0678 53.13 59.0678 53.362V55H58.4918V53.236C58.4918 52.928 58.4198 52.696 58.2758 52.54C58.1358 52.384 57.9338 52.306 57.6698 52.306C57.4818 52.306 57.3158 52.346 57.1718 52.426C57.0278 52.506 56.9158 52.624 56.8358 52.78C56.7558 52.936 56.7158 53.13 56.7158 53.362V55H56.1398V51.82H56.6918V52.666L56.6018 52.45C56.7018 52.242 56.8558 52.08 57.0638 51.964C57.2718 51.848 57.5138 51.79 57.7898 51.79C58.0938 51.79 58.3558 51.866 58.5758 52.018C58.7958 52.166 58.9398 52.392 59.0078 52.696L58.7738 52.6C58.8698 52.356 59.0378 52.16 59.2778 52.012C59.5178 51.864 59.7978 51.79 60.1178 51.79ZM63.8956 55.036C63.5556 55.036 63.2556 54.966 62.9956 54.826C62.7396 54.686 62.5396 54.494 62.3956 54.25C62.2556 54.006 62.1856 53.726 62.1856 53.41C62.1856 53.094 62.2536 52.814 62.3896 52.57C62.5296 52.326 62.7196 52.136 62.9596 52C63.2036 51.86 63.4776 51.79 63.7816 51.79C64.0896 51.79 64.3616 51.858 64.5976 51.994C64.8336 52.13 65.0176 52.322 65.1496 52.57C65.2856 52.814 65.3536 53.1 65.3536 53.428C65.3536 53.452 65.3516 53.48 65.3476 53.512C65.3476 53.544 65.3456 53.574 65.3416 53.602H62.6356V53.188H65.0416L64.8076 53.332C64.8116 53.128 64.7696 52.946 64.6816 52.786C64.5936 52.626 64.4716 52.502 64.3156 52.414C64.1636 52.322 63.9856 52.276 63.7816 52.276C63.5816 52.276 63.4036 52.322 63.2476 52.414C63.0916 52.502 62.9696 52.628 62.8816 52.792C62.7936 52.952 62.7496 53.136 62.7496 53.344V53.44C62.7496 53.652 62.7976 53.842 62.8936 54.01C62.9936 54.174 63.1316 54.302 63.3076 54.394C63.4836 54.486 63.6856 54.532 63.9136 54.532C64.1016 54.532 64.2716 54.5 64.4236 54.436C64.5796 54.372 64.7156 54.276 64.8316 54.148L65.1496 54.52C65.0056 54.688 64.8256 54.816 64.6096 54.904C64.3976 54.992 64.1596 55.036 63.8956 55.036ZM69.1268 55.036C68.8068 55.036 68.5228 54.966 68.2748 54.826C68.0268 54.686 67.8308 54.494 67.6868 54.25C67.5428 54.002 67.4708 53.722 67.4708 53.41C67.4708 53.094 67.5428 52.814 67.6868 52.57C67.8308 52.326 68.0268 52.136 68.2748 52C68.5228 51.86 68.8068 51.79 69.1268 51.79C69.4428 51.79 69.7248 51.86 69.9728 52C70.2248 52.136 70.4208 52.326 70.5608 52.57C70.7048 52.81 70.7768 53.09 70.7768 53.41C70.7768 53.726 70.7048 54.006 70.5608 54.25C70.4208 54.494 70.2248 54.686 69.9728 54.826C69.7248 54.966 69.4428 55.036 69.1268 55.036ZM69.1268 54.532C69.3308 54.532 69.5128 54.486 69.6728 54.394C69.8368 54.302 69.9648 54.172 70.0568 54.004C70.1488 53.832 70.1948 53.634 70.1948 53.41C70.1948 53.182 70.1488 52.986 70.0568 52.822C69.9648 52.654 69.8368 52.524 69.6728 52.432C69.5128 52.34 69.3308 52.294 69.1268 52.294C68.9228 52.294 68.7408 52.34 68.5808 52.432C68.4208 52.524 68.2928 52.654 68.1968 52.822C68.1008 52.986 68.0528 53.182 68.0528 53.41C68.0528 53.634 68.1008 53.832 68.1968 54.004C68.2928 54.172 68.4208 54.302 68.5808 54.394C68.7408 54.486 68.9228 54.532 69.1268 54.532ZM73.2713 51.79C73.5313 51.79 73.7593 51.84 73.9553 51.94C74.1553 52.04 74.3113 52.192 74.4233 52.396C74.5353 52.6 74.5913 52.858 74.5913 53.17V55H74.0153V53.236C74.0153 52.928 73.9393 52.696 73.7873 52.54C73.6393 52.384 73.4293 52.306 73.1573 52.306C72.9533 52.306 72.7753 52.346 72.6233 52.426C72.4713 52.506 72.3533 52.624 72.2693 52.78C72.1893 52.936 72.1493 53.13 72.1493 53.362V55H71.5733V51.82H72.1253V52.678L72.0353 52.45C72.1393 52.242 72.2993 52.08 72.5153 51.964C72.7313 51.848 72.9833 51.79 73.2713 51.79ZM75.6573 55V50.548H76.2333V55H75.6573ZM77.4711 56.2C77.3191 56.2 77.1711 56.174 77.0271 56.122C76.8831 56.074 76.7591 56.002 76.6551 55.906L76.9011 55.474C76.9811 55.55 77.0691 55.608 77.1651 55.648C77.2611 55.688 77.3631 55.708 77.4711 55.708C77.6111 55.708 77.7271 55.672 77.8191 55.6C77.9111 55.528 77.9971 55.4 78.0771 55.216L78.2751 54.778L78.3351 54.706L79.5831 51.82H80.1471L78.6051 55.318C78.5131 55.542 78.4091 55.718 78.2931 55.846C78.1811 55.974 78.0571 56.064 77.9211 56.116C77.7851 56.172 77.6351 56.2 77.4711 56.2ZM78.2271 55.102L76.7751 51.82H77.3751L78.6111 54.652L78.2271 55.102ZM80.7147 53.674L80.6067 50.8H81.2847L81.1707 53.674H80.7147ZM80.9487 55.036C80.8367 55.036 80.7427 54.998 80.6667 54.922C80.5907 54.846 80.5527 54.756 80.5527 54.652C80.5527 54.54 80.5907 54.448 80.6667 54.376C80.7427 54.304 80.8367 54.268 80.9487 54.268C81.0607 54.268 81.1527 54.304 81.2247 54.376C81.2967 54.448 81.3327 54.54 81.3327 54.652C81.3327 54.756 81.2967 54.846 81.2247 54.922C81.1527 54.998 81.0607 55.036 80.9487 55.036Z" fill="#F7F7FF"/>
<path d="M73.9366 68V63.8H75.5746C75.9426 63.8 76.2566 63.858 76.5166 63.974C76.7766 64.09 76.9766 64.258 77.1166 64.478C77.2566 64.698 77.3266 64.96 77.3266 65.264C77.3266 65.568 77.2566 65.83 77.1166 66.05C76.9766 66.266 76.7766 66.434 76.5166 66.554C76.2566 66.67 75.9426 66.728 75.5746 66.728H74.2666L74.5366 66.446V68H73.9366ZM74.5366 66.506L74.2666 66.206H75.5566C75.9406 66.206 76.2306 66.124 76.4266 65.96C76.6266 65.796 76.7266 65.564 76.7266 65.264C76.7266 64.964 76.6266 64.732 76.4266 64.568C76.2306 64.404 75.9406 64.322 75.5566 64.322H74.2666L74.5366 64.022V66.506ZM78.0655 68V64.82H78.6175V65.684L78.5635 65.468C78.6515 65.248 78.7995 65.08 79.0075 64.964C79.2155 64.848 79.4715 64.79 79.7755 64.79V65.348C79.7515 65.344 79.7275 65.342 79.7035 65.342C79.6835 65.342 79.6635 65.342 79.6435 65.342C79.3355 65.342 79.0915 65.434 78.9115 65.618C78.7315 65.802 78.6415 66.068 78.6415 66.416V68H78.0655ZM81.8722 68.036C81.5322 68.036 81.2322 67.966 80.9722 67.826C80.7162 67.686 80.5162 67.494 80.3722 67.25C80.2322 67.006 80.1622 66.726 80.1622 66.41C80.1622 66.094 80.2302 65.814 80.3662 65.57C80.5062 65.326 80.6962 65.136 80.9362 65C81.1802 64.86 81.4542 64.79 81.7582 64.79C82.0662 64.79 82.3382 64.858 82.5742 64.994C82.8102 65.13 82.9942 65.322 83.1262 65.57C83.2622 65.814 83.3302 66.1 83.3302 66.428C83.3302 66.452 83.3282 66.48 83.3242 66.512C83.3242 66.544 83.3222 66.574 83.3182 66.602H80.6122V66.188H83.0182L82.7842 66.332C82.7882 66.128 82.7462 65.946 82.6582 65.786C82.5702 65.626 82.4482 65.502 82.2922 65.414C82.1402 65.322 81.9622 65.276 81.7582 65.276C81.5582 65.276 81.3802 65.322 81.2242 65.414C81.0682 65.502 80.9462 65.628 80.8582 65.792C80.7702 65.952 80.7262 66.136 80.7262 66.344V66.44C80.7262 66.652 80.7742 66.842 80.8702 67.01C80.9702 67.174 81.1082 67.302 81.2842 67.394C81.4602 67.486 81.6622 67.532 81.8902 67.532C82.0782 67.532 82.2482 67.5 82.4002 67.436C82.5562 67.372 82.6922 67.276 82.8082 67.148L83.1262 67.52C82.9822 67.688 82.8022 67.816 82.5862 67.904C82.3742 67.992 82.1362 68.036 81.8722 68.036ZM88.108 64.79C88.364 64.79 88.59 64.84 88.786 64.94C88.982 65.04 89.134 65.192 89.242 65.396C89.354 65.6 89.41 65.858 89.41 66.17V68H88.834V66.236C88.834 65.928 88.762 65.696 88.618 65.54C88.474 65.384 88.272 65.306 88.012 65.306C87.82 65.306 87.652 65.346 87.508 65.426C87.364 65.506 87.252 65.624 87.172 65.78C87.096 65.936 87.058 66.13 87.058 66.362V68H86.482V66.236C86.482 65.928 86.41 65.696 86.266 65.54C86.126 65.384 85.924 65.306 85.66 65.306C85.472 65.306 85.306 65.346 85.162 65.426C85.018 65.506 84.906 65.624 84.826 65.78C84.746 65.936 84.706 66.13 84.706 66.362V68H84.13V64.82H84.682V65.666L84.592 65.45C84.692 65.242 84.846 65.08 85.054 64.964C85.262 64.848 85.504 64.79 85.78 64.79C86.084 64.79 86.346 64.866 86.566 65.018C86.786 65.166 86.93 65.392 86.998 65.696L86.764 65.6C86.86 65.356 87.028 65.16 87.268 65.012C87.508 64.864 87.788 64.79 88.108 64.79ZM90.4698 68V64.82H91.0458V68H90.4698ZM90.7578 64.208C90.6458 64.208 90.5518 64.172 90.4758 64.1C90.4038 64.028 90.3678 63.94 90.3678 63.836C90.3678 63.728 90.4038 63.638 90.4758 63.566C90.5518 63.494 90.6458 63.458 90.7578 63.458C90.8698 63.458 90.9618 63.494 91.0338 63.566C91.1098 63.634 91.1478 63.72 91.1478 63.824C91.1478 63.932 91.1118 64.024 91.0398 64.1C90.9678 64.172 90.8738 64.208 90.7578 64.208ZM93.4836 68.036C93.2116 68.036 92.9716 67.986 92.7636 67.886C92.5596 67.786 92.3996 67.634 92.2836 67.43C92.1716 67.222 92.1156 66.962 92.1156 66.65V64.82H92.6916V66.584C92.6916 66.896 92.7656 67.13 92.9136 67.286C93.0656 67.442 93.2776 67.52 93.5496 67.52C93.7496 67.52 93.9236 67.48 94.0716 67.4C94.2196 67.316 94.3336 67.196 94.4136 67.04C94.4936 66.88 94.5336 66.688 94.5336 66.464V64.82H95.1096V68H94.5636V67.142L94.6536 67.37C94.5496 67.582 94.3936 67.746 94.1856 67.862C93.9776 67.978 93.7436 68.036 93.4836 68.036ZM100.184 64.79C100.44 64.79 100.666 64.84 100.862 64.94C101.058 65.04 101.21 65.192 101.318 65.396C101.43 65.6 101.486 65.858 101.486 66.17V68H100.91V66.236C100.91 65.928 100.838 65.696 100.694 65.54C100.55 65.384 100.348 65.306 100.088 65.306C99.8962 65.306 99.7282 65.346 99.5842 65.426C99.4402 65.506 99.3282 65.624 99.2482 65.78C99.1722 65.936 99.1342 66.13 99.1342 66.362V68H98.5582V66.236C98.5582 65.928 98.4862 65.696 98.3422 65.54C98.2022 65.384 98.0002 65.306 97.7362 65.306C97.5482 65.306 97.3822 65.346 97.2382 65.426C97.0942 65.506 96.9822 65.624 96.9022 65.78C96.8222 65.936 96.7822 66.13 96.7822 66.362V68H96.2062V64.82H96.7582V65.666L96.6682 65.45C96.7682 65.242 96.9222 65.08 97.1302 64.964C97.3382 64.848 97.5802 64.79 97.8562 64.79C98.1602 64.79 98.4222 64.866 98.6422 65.018C98.8622 65.166 99.0062 65.392 99.0742 65.696L98.8402 65.6C98.9362 65.356 99.1042 65.16 99.3442 65.012C99.5842 64.864 99.8642 64.79 100.184 64.79Z" fill="#FBF36D"/>
<path d="M114.133 74.474H112.171V73.9818H114.133V74.474ZM110.207 74.474H108.242V73.9818H110.207V74.474ZM106.28 74.474H104.319V73.9818H106.28V74.474ZM102.361 74.474H100.396V73.9818H102.351L102.361 74.474ZM98.4311 74.474H96.4696V73.9818H98.4311V74.474ZM94.5112 74.474H92.5464V73.9818H94.5112V74.474ZM90.5817 74.474H88.6234V73.9818H90.569L90.5817 74.474ZM86.6618 74.474H84.6971V73.9818H86.6618V74.474ZM82.7324 74.474H80.7708V73.9818H82.7324V74.474ZM78.8093 74.474H76.8509V73.9818H78.8093V74.474ZM74.8862 74.474H72.9215V73.9818H74.8862V74.474ZM70.9599 74.474H69.0016V73.9818H70.9599V74.474ZM67.0368 74.474H65.0721V73.9818H67.0368V74.474ZM63.1138 74.474H61.1522V73.9818H63.1138V74.474ZM59.1875 74.474H57.226V73.9818H59.1875V74.474ZM55.2612 74.474H53.3124V73.9818H55.2708L55.2612 74.474ZM51.3382 74.474H49.3766V73.9818H51.3382V74.474ZM47.4119 74.474H45.4503V73.9818H47.4119V74.474ZM43.492 74.474H41.5304V73.9818H43.4952L43.492 74.474ZM39.5625 74.474H37.6042V73.9818H39.5625V74.474ZM35.6426 74.474H33.6779V73.9818H35.6426V74.474ZM31.7164 74.474H29.7484V73.9818H31.71L31.7164 74.474ZM27.7901 74.474H25.8317V73.9818H27.7901V74.474ZM23.867 74.474H21.9023V73.9818H23.867V74.474ZM19.9407 74.474H17.9824V73.9818H19.9407V74.474ZM16.0176 74.474H14.0529V73.9818H16.0176V74.474ZM12.0946 74.474H10.133V73.9818H12.0946V74.474ZM8.16827 74.474H6.20671V73.9818H8.16827V74.474ZM4.49355 74.2311H4V72.2591H4.49355V74.2311ZM115.684 73.5727H115.197V71.6039H115.684V73.5727ZM4.49355 70.2935H4V68.3215H4.49355V70.2935ZM115.684 69.6383H115.197V67.6663H115.684V69.6383ZM4.49355 66.3527H4V64.3839H4.49355V66.3527ZM115.684 65.6975H115.197V63.7318H115.684V65.6975ZM4.49355 62.4182H4V60.4462H4.49355V62.4182ZM115.684 61.763H115.197V59.791H115.684V61.763ZM4.49355 58.4742H4V56.5086H4.49355V58.4742ZM115.684 57.835H115.197V55.8662H115.684V57.835ZM4.49355 54.527H4V52.555H4.49355V54.527ZM115.684 53.8878H115.197V51.919H115.684V53.8878ZM4.49355 50.5958H4V48.627H4.49355V50.5958ZM115.684 49.9406H115.197V47.9686H115.684V49.9406ZM4.49355 46.6582H4V44.6862H4.49355V46.6582ZM115.684 45.9998H115.197V44.0342H115.684V45.9998ZM4.49355 42.7173H4V40.7485H4.49355V42.7173ZM115.684 42.0621H115.197V40.0901H115.684V42.0621ZM4.49355 38.7765H4V36.8109H4.49355V38.7765ZM115.684 38.1373H115.197V36.1685H115.684V38.1373ZM4.49355 34.8389H4V32.8669H4.49355V34.8389ZM115.684 34.1997H115.197V32.2277H115.684V34.1997ZM4.49355 30.9173H4V28.9485H4.49355V30.9173ZM115.684 30.2365H115.197V28.2677H115.684V30.2365ZM4.49355 26.9541H4V24.9821H4.49355V26.9541ZM115.684 26.2989H115.197V24.3301H115.684V26.2989ZM4.49355 23.0165H4V21.0476H4.49355V23.0165ZM115.684 22.3581H115.197V20.3892H115.684V22.3581ZM4.49355 19.0788H4V17.1068H4.49355V19.0788ZM115.684 18.4236H115.197V16.4516H115.684V18.4236ZM4.49355 15.138H4V13.1692H4.49355V15.138ZM115.684 14.4796H115.197V12.514H115.684V14.4796ZM4.49355 11.2004H4V9.22839H4.49355V11.2004ZM115.684 10.5612H115.197V8.58916H115.684V10.5612ZM4.49355 7.27236H4V5.30675H4.49355V7.27236ZM115.684 6.61716H115.197V4.65155H115.684V6.61716ZM113.477 4.89445H111.515V4.40225H113.477V4.89445ZM109.554 4.89445H107.592V4.40225H109.554V4.89445ZM105.628 4.89445H103.666V4.40225H105.628V4.89445ZM101.708 4.89445H99.743V4.40225H101.714L101.708 4.89445ZM97.7783 4.89445H95.8199V4.40225H97.7783V4.89445ZM93.8552 4.89445H91.8937V4.40225H93.8552V4.89445ZM89.9289 4.89445H87.9674V4.40225H89.9321L89.9289 4.89445ZM86.0059 4.89445H84.0443V4.40225H86.0059V4.89445ZM82.0828 4.89445H80.1181V4.40225H82.0828V4.89445ZM78.1565 4.89445H76.1981V4.40225H78.1501L78.1565 4.89445ZM74.2334 4.89445H72.2687V4.40225H74.2334V4.89445ZM70.3103 4.89445H68.3488V4.40225H70.3103V4.89445ZM66.3841 4.89445H64.4193V4.40225H66.3841V4.89445ZM62.461 4.89445H60.4994V4.40225H62.461V4.89445ZM58.5347 4.89445H56.5732V4.40225H58.5347V4.89445ZM54.6084 4.89445H52.6469V4.40225H54.6084V4.89445ZM50.6885 4.89445H48.7238V4.40225H50.6885V4.89445ZM46.7591 4.89445H44.8007V4.40225H46.7591V4.89445ZM42.8392 4.89445H40.8744V4.40225H42.8392V4.89445ZM38.9097 4.89445H36.9514V4.40225H38.9097V4.89445ZM34.9898 4.89445H33.0251V4.40225H34.9898V4.89445ZM31.0636 4.89445H29.1116V4.40225H31.0763L31.0636 4.89445ZM27.1373 4.89445H25.1789V4.40225H27.1373V4.89445ZM23.2142 4.89445H21.2495V4.40225H23.2142V4.89445ZM19.2911 4.89445H17.3296V4.40225H19.2911V4.89445ZM15.3648 4.89445H13.4001V4.40225H15.3648V4.89445ZM11.4418 4.89445H9.48021V4.40225H11.4418V4.89445ZM7.5155 4.89445H5.54758V4.40225H7.50913L7.5155 4.89445Z" fill="#FBF36D"/>
<defs>
<radialGradient id="paint0_radial_686_19011" cx="0" cy="0" r="1" gradientUnits="userSpaceOnUse" gradientTransform="translate(27.9679 -33.2712) scale(100.078 100.448)">
<stop stop-color="#5C5C5C"/>
<stop offset="0.52" stop-color="#3C3C3C"/>
<stop offset="1" stop-color="#242424"/>
</radialGradient>
<linearGradient id="paint1_linear_686_19011" x1="60.0277" y1="-5.81373" x2="60.0277" y2="80.8874" gradientUnits="userSpaceOnUse">
<stop stop-color="#2F4858"/>
<stop offset="1" stop-color="#112D3E"/>
</linearGradient>
<linearGradient id="paint2_linear_686_19011" x1="60" y1="6.5" x2="60.031" y2="80.2633" gradientUnits="userSpaceOnUse">
<stop offset="0.242636" stop-color="#2F4858"/>
<stop offset="0.587712" stop-color="#122F41"/>
<stop offset="1" stop-color="#122F41"/>
</linearGradient>
</defs>
</svg>
