<svg width="121" height="80" viewBox="0 0 121 80" fill="none" xmlns="http://www.w3.org/2000/svg">
<path d="M114.659 1.56293H3.46575C2.68595 1.56293 1.93804 1.87363 1.38634 2.42678C0.834638 2.97992 0.524281 3.73026 0.523438 4.51295V74.1053C0.523438 74.8885 0.833419 75.6397 1.38521 76.1935C1.937 76.7473 2.6854 77.0585 3.46575 77.0585H114.659C115.44 77.0585 116.189 76.7476 116.742 76.1939C117.295 75.6403 117.606 74.8891 117.608 74.1053V4.51295C117.605 3.72968 117.293 2.97935 116.741 2.42639C116.188 1.87342 115.439 1.56292 114.659 1.56293ZM106.155 19.6515C105.217 19.6515 114.982 18.9324 114.201 18.4091C113.421 17.8858 107.752 8.09747 107.393 7.22728C107.034 6.3571 99.6686 12.697 99.8517 11.7732C100.035 10.8494 101.724 11.2433 102.388 10.5773C103.052 9.91129 103.897 9.45774 104.817 9.27399C105.738 9.09024 106.692 9.18455 107.559 9.54499C108.426 9.90543 109.167 10.5158 109.688 11.299C110.209 12.0821 110.488 13.0028 110.488 13.9447C110.488 14.5707 110.365 15.1907 110.127 15.7691C109.888 16.3475 109.538 16.8729 109.097 17.3153C108.655 17.7577 108.131 18.1083 107.555 18.3471C106.978 18.5859 106.36 18.7082 105.737 18.7069L106.155 19.6515Z" fill="url(#paint0_radial_686_19011)"/>
<path d="M115.623 0.597758H4.4294C3.84845 0.596498 3.27292 0.710205 2.73579 0.932381C2.19865 1.15456 1.71042 1.48084 1.29903 1.89257C0.887643 2.3043 0.561159 2.79339 0.338257 3.33188C0.115354 3.87036 0.000417201 4.44767 0 5.03078V74.6199C0.00252644 75.7946 0.468758 76.9203 1.29659 77.7506C2.12441 78.5809 3.24635 79.048 4.41665 79.0497H115.623C116.203 79.0506 116.778 78.9367 117.315 78.7145C117.851 78.4923 118.339 78.1663 118.75 77.7549C119.161 77.3436 119.487 76.855 119.71 76.3171C119.933 75.7792 120.048 75.2025 120.049 74.6199V5.03078C120.049 4.44793 119.934 3.87089 119.711 3.33261C119.488 2.79434 119.162 2.30539 118.751 1.8937C118.34 1.48202 117.852 1.15567 117.315 0.933303C116.779 0.710938 116.203 0.596918 115.623 0.597758ZM111.133 15.0155C110.875 17.6586 108.643 19.0809 106.184 19.0809C103.726 19.0809 101.914 16.3898 102.14 14.1173C102.401 11.4678 104.627 10.0519 107.082 10.0519C109.538 10.0519 111.343 12.7398 111.133 15.0155Z" fill="url(#paint1_linear_686_19011)"/>
<path d="M115.626 2H4.43271C3.52201 2.00085 2.64887 2.36456 2.00521 3.0112C1.36154 3.65785 1 4.53454 1 5.44862V75.0409C1 75.9547 1.36165 76.8311 2.0054 77.4772C2.64916 78.1234 3.5223 78.4864 4.43271 78.4864H115.626C116.537 78.4864 117.41 78.1235 118.055 77.4774C118.699 76.8314 119.061 75.955 119.062 75.0409V5.44862C119.061 4.53425 118.699 3.65757 118.055 3.01101C117.411 2.36446 116.537 2.00085 115.626 2ZM104.64 16.2387C104.36 19.0673 108.668 20.3266 106.041 20.3266C103.414 20.3266 113.063 27.7271 113.305 25.298C113.582 22.4694 103.873 15.9798 106.497 15.9798C109.121 15.9798 104.879 13.8065 104.64 16.2387Z" fill="url(#paint2_linear_686_19011)"/>
<path d="M18.7292 22.82H22.0992V24.08H18.7292V22.82ZM18.8492 25.7H22.6592V27H17.2392V20H22.5292V21.3H18.8492V25.7ZM23.0996 27L25.5096 23.84L25.4796 24.7L23.1696 21.62H24.9196L26.3796 23.63L25.7196 23.65L27.2296 21.62H28.8896L26.5696 24.67V23.83L28.9696 27H27.1996L25.6696 24.86L26.3196 24.95L24.7996 27H23.0996ZM32.1608 27.08C31.5808 27.08 31.0642 26.9633 30.6108 26.73C30.1575 26.49 29.8008 26.16 29.5408 25.74C29.2875 25.32 29.1608 24.8433 29.1608 24.31C29.1608 23.77 29.2875 23.2933 29.5408 22.88C29.8008 22.46 30.1575 22.1333 30.6108 21.9C31.0642 21.66 31.5808 21.54 32.1608 21.54C32.7275 21.54 33.2208 21.66 33.6408 21.9C34.0608 22.1333 34.3708 22.47 34.5708 22.91L33.3608 23.56C33.2208 23.3067 33.0442 23.12 32.8308 23C32.6242 22.88 32.3975 22.82 32.1508 22.82C31.8842 22.82 31.6442 22.88 31.4308 23C31.2175 23.12 31.0475 23.29 30.9208 23.51C30.8008 23.73 30.7408 23.9967 30.7408 24.31C30.7408 24.6233 30.8008 24.89 30.9208 25.11C31.0475 25.33 31.2175 25.5 31.4308 25.62C31.6442 25.74 31.8842 25.8 32.1508 25.8C32.3975 25.8 32.6242 25.7433 32.8308 25.63C33.0442 25.51 33.2208 25.32 33.3608 25.06L34.5708 25.72C34.3708 26.1533 34.0608 26.49 33.6408 26.73C33.2208 26.9633 32.7275 27.08 32.1608 27.08ZM35.4397 27V19.58H36.9997V27H35.4397ZM40.7175 27.08C40.2709 27.08 39.8709 26.9933 39.5175 26.82C39.1709 26.6467 38.9009 26.3833 38.7075 26.03C38.5142 25.67 38.4175 25.2133 38.4175 24.66V21.62H39.9775V24.43C39.9775 24.8767 40.0709 25.2067 40.2575 25.42C40.4509 25.6267 40.7209 25.73 41.0675 25.73C41.3075 25.73 41.5209 25.68 41.7075 25.58C41.8942 25.4733 42.0409 25.3133 42.1475 25.1C42.2542 24.88 42.3075 24.6067 42.3075 24.28V21.62H43.8675V27H42.3875V25.52L42.6575 25.95C42.4775 26.3233 42.2109 26.6067 41.8575 26.8C41.5109 26.9867 41.1309 27.08 40.7175 27.08ZM47.1228 27.08C46.6628 27.08 46.2194 27.0267 45.7928 26.92C45.3728 26.8067 45.0394 26.6667 44.7928 26.5L45.3128 25.38C45.5594 25.5333 45.8494 25.66 46.1828 25.76C46.5228 25.8533 46.8561 25.9 47.1828 25.9C47.5428 25.9 47.7961 25.8567 47.9428 25.77C48.0961 25.6833 48.1728 25.5633 48.1728 25.41C48.1728 25.2833 48.1128 25.19 47.9928 25.13C47.8794 25.0633 47.7261 25.0133 47.5328 24.98C47.3394 24.9467 47.1261 24.9133 46.8928 24.88C46.6661 24.8467 46.4361 24.8033 46.2028 24.75C45.9694 24.69 45.7561 24.6033 45.5628 24.49C45.3694 24.3767 45.2128 24.2233 45.0928 24.03C44.9794 23.8367 44.9228 23.5867 44.9228 23.28C44.9228 22.94 45.0194 22.64 45.2128 22.38C45.4128 22.12 45.6994 21.9167 46.0728 21.77C46.4461 21.6167 46.8928 21.54 47.4128 21.54C47.7794 21.54 48.1528 21.58 48.5328 21.66C48.9128 21.74 49.2294 21.8567 49.4828 22.01L48.9628 23.12C48.7028 22.9667 48.4394 22.8633 48.1728 22.81C47.9128 22.75 47.6594 22.72 47.4128 22.72C47.0661 22.72 46.8128 22.7667 46.6528 22.86C46.4928 22.9533 46.4128 23.0733 46.4128 23.22C46.4128 23.3533 46.4694 23.4533 46.5828 23.52C46.7028 23.5867 46.8594 23.64 47.0528 23.68C47.2461 23.72 47.4561 23.7567 47.6828 23.79C47.9161 23.8167 48.1494 23.86 48.3828 23.92C48.6161 23.98 48.8261 24.0667 49.0128 24.18C49.2061 24.2867 49.3628 24.4367 49.4828 24.63C49.6028 24.8167 49.6628 25.0633 49.6628 25.37C49.6628 25.7033 49.5628 26 49.3628 26.26C49.1628 26.5133 48.8728 26.7133 48.4928 26.86C48.1194 27.0067 47.6628 27.08 47.1228 27.08ZM50.6253 27V21.62H52.1853V27H50.6253ZM51.4053 20.87C51.1186 20.87 50.8853 20.7867 50.7053 20.62C50.5253 20.4533 50.4353 20.2467 50.4353 20C50.4353 19.7533 50.5253 19.5467 50.7053 19.38C50.8853 19.2133 51.1186 19.13 51.4053 19.13C51.6919 19.13 51.9253 19.21 52.1053 19.37C52.2853 19.5233 52.3753 19.7233 52.3753 19.97C52.3753 20.23 52.2853 20.4467 52.1053 20.62C51.9319 20.7867 51.6986 20.87 51.4053 20.87ZM55.0931 27L52.8331 21.62H54.4431L56.3231 26.25H55.5231L57.4731 21.62H58.9731L56.7031 27H55.0931ZM62.1332 27.08C61.5198 27.08 60.9798 26.96 60.5132 26.72C60.0532 26.48 59.6965 26.1533 59.4432 25.74C59.1898 25.32 59.0632 24.8433 59.0632 24.31C59.0632 23.77 59.1865 23.2933 59.4332 22.88C59.6865 22.46 60.0298 22.1333 60.4632 21.9C60.8965 21.66 61.3865 21.54 61.9332 21.54C62.4598 21.54 62.9332 21.6533 63.3532 21.88C63.7798 22.1 64.1165 22.42 64.3632 22.84C64.6098 23.2533 64.7332 23.75 64.7332 24.33C64.7332 24.39 64.7298 24.46 64.7232 24.54C64.7165 24.6133 64.7098 24.6833 64.7032 24.75H60.3332V23.84H63.8832L63.2832 24.11C63.2832 23.83 63.2265 23.5867 63.1132 23.38C62.9998 23.1733 62.8432 23.0133 62.6432 22.9C62.4432 22.78 62.2098 22.72 61.9432 22.72C61.6765 22.72 61.4398 22.78 61.2332 22.9C61.0332 23.0133 60.8765 23.1767 60.7632 23.39C60.6498 23.5967 60.5932 23.8433 60.5932 24.13V24.37C60.5932 24.6633 60.6565 24.9233 60.7832 25.15C60.9165 25.37 61.0998 25.54 61.3332 25.66C61.5732 25.7733 61.8532 25.83 62.1732 25.83C62.4598 25.83 62.7098 25.7867 62.9232 25.7C63.1432 25.6133 63.3432 25.4833 63.5232 25.31L64.3532 26.21C64.1065 26.49 63.7965 26.7067 63.4232 26.86C63.0498 27.0067 62.6198 27.08 62.1332 27.08ZM68.7938 27V21.5C68.7938 20.8933 68.9738 20.41 69.3338 20.05C69.6938 19.6833 70.2071 19.5 70.8738 19.5C71.1005 19.5 71.3171 19.5233 71.5238 19.57C71.7371 19.6167 71.9171 19.69 72.0638 19.79L71.6538 20.92C71.5671 20.86 71.4705 20.8133 71.3638 20.78C71.2571 20.7467 71.1438 20.73 71.0238 20.73C70.7971 20.73 70.6205 20.7967 70.4938 20.93C70.3738 21.0567 70.3138 21.25 70.3138 21.51V22.01L70.3538 22.68V27H68.7938ZM67.9638 22.94V21.74H71.6938V22.94H67.9638ZM74.9626 27.08C74.3893 27.08 73.8793 26.96 73.4326 26.72C72.9926 26.48 72.6426 26.1533 72.3826 25.74C72.1293 25.32 72.0026 24.8433 72.0026 24.31C72.0026 23.77 72.1293 23.2933 72.3826 22.88C72.6426 22.46 72.9926 22.1333 73.4326 21.9C73.8793 21.66 74.3893 21.54 74.9626 21.54C75.5293 21.54 76.036 21.66 76.4826 21.9C76.9293 22.1333 77.2793 22.4567 77.5326 22.87C77.786 23.2833 77.9126 23.7633 77.9126 24.31C77.9126 24.8433 77.786 25.32 77.5326 25.74C77.2793 26.1533 76.9293 26.48 76.4826 26.72C76.036 26.96 75.5293 27.08 74.9626 27.08ZM74.9626 25.8C75.2226 25.8 75.456 25.74 75.6626 25.62C75.8693 25.5 76.0326 25.33 76.1526 25.11C76.2726 24.8833 76.3326 24.6167 76.3326 24.31C76.3326 23.9967 76.2726 23.73 76.1526 23.51C76.0326 23.29 75.8693 23.12 75.6626 23C75.456 22.88 75.2226 22.82 74.9626 22.82C74.7026 22.82 74.4693 22.88 74.2626 23C74.056 23.12 73.8893 23.29 73.7626 23.51C73.6426 23.73 73.5826 23.9967 73.5826 24.31C73.5826 24.6167 73.6426 24.8833 73.7626 25.11C73.8893 25.33 74.056 25.5 74.2626 25.62C74.4693 25.74 74.7026 25.8 74.9626 25.8ZM78.9554 27V21.62H80.4454V23.14L80.2354 22.7C80.3954 22.32 80.652 22.0333 81.0054 21.84C81.3587 21.64 81.7887 21.54 82.2954 21.54V22.98C82.2287 22.9733 82.1687 22.97 82.1154 22.97C82.062 22.9633 82.0054 22.96 81.9454 22.96C81.5187 22.96 81.172 23.0833 80.9054 23.33C80.6454 23.57 80.5154 23.9467 80.5154 24.46V27H78.9554ZM86.774 29.02C86.494 29.02 86.2174 28.9767 85.944 28.89C85.6707 28.8033 85.4474 28.6833 85.274 28.53L85.844 27.42C85.964 27.5267 86.1007 27.61 86.254 27.67C86.414 27.73 86.5707 27.76 86.724 27.76C86.944 27.76 87.1174 27.7067 87.244 27.6C87.3774 27.5 87.4974 27.33 87.604 27.09L87.884 26.43L88.004 26.26L89.934 21.62H91.434L89.004 27.33C88.8307 27.7633 88.6307 28.1033 88.404 28.35C88.184 28.5967 87.9374 28.77 87.664 28.87C87.3974 28.97 87.1007 29.02 86.774 29.02ZM87.694 27.21L85.294 21.62H86.904L88.764 26.12L87.694 27.21ZM94.4841 27.08C93.9108 27.08 93.4008 26.96 92.9541 26.72C92.5141 26.48 92.1641 26.1533 91.9041 25.74C91.6508 25.32 91.5241 24.8433 91.5241 24.31C91.5241 23.77 91.6508 23.2933 91.9041 22.88C92.1641 22.46 92.5141 22.1333 92.9541 21.9C93.4008 21.66 93.9108 21.54 94.4841 21.54C95.0508 21.54 95.5574 21.66 96.0041 21.9C96.4508 22.1333 96.8008 22.4567 97.0541 22.87C97.3074 23.2833 97.4341 23.7633 97.4341 24.31C97.4341 24.8433 97.3074 25.32 97.0541 25.74C96.8008 26.1533 96.4508 26.48 96.0041 26.72C95.5574 26.96 95.0508 27.08 94.4841 27.08ZM94.4841 25.8C94.7441 25.8 94.9774 25.74 95.1841 25.62C95.3908 25.5 95.5541 25.33 95.6741 25.11C95.7941 24.8833 95.8541 24.6167 95.8541 24.31C95.8541 23.9967 95.7941 23.73 95.6741 23.51C95.5541 23.29 95.3908 23.12 95.1841 23C94.9774 22.88 94.7441 22.82 94.4841 22.82C94.2241 22.82 93.9908 22.88 93.7841 23C93.5774 23.12 93.4108 23.29 93.2841 23.51C93.1641 23.73 93.1041 23.9967 93.1041 24.31C93.1041 24.6167 93.1641 24.8833 93.2841 25.11C93.4108 25.33 93.5774 25.5 93.7841 25.62C93.9908 25.74 94.2241 25.8 94.4841 25.8ZM100.747 27.08C100.3 27.08 99.9002 26.9933 99.5468 26.82C99.2002 26.6467 98.9302 26.3833 98.7368 26.03C98.5435 25.67 98.4468 25.2133 98.4468 24.66V21.62H100.007V24.43C100.007 24.8767 100.1 25.2067 100.287 25.42C100.48 25.6267 100.75 25.73 101.097 25.73C101.337 25.73 101.55 25.68 101.737 25.58C101.924 25.4733 102.07 25.3133 102.177 25.1C102.284 24.88 102.337 24.6067 102.337 24.28V21.62H103.897V27H102.417V25.52L102.687 25.95C102.507 26.3233 102.24 26.6067 101.887 26.8C101.54 26.9867 101.16 27.08 100.747 27.08ZM105.452 24.57L105.142 20H107.002L106.692 24.57H105.452ZM106.072 27.08C105.792 27.08 105.562 26.99 105.382 26.81C105.202 26.63 105.112 26.4167 105.112 26.17C105.112 25.9167 105.202 25.7067 105.382 25.54C105.562 25.3667 105.792 25.28 106.072 25.28C106.359 25.28 106.589 25.3667 106.762 25.54C106.942 25.7067 107.032 25.9167 107.032 26.17C107.032 26.4167 106.942 26.63 106.762 26.81C106.589 26.99 106.359 27.08 106.072 27.08Z" fill="#F7F7FF"/>
<path d="M105.961 59L107.961 61L105.961 63" stroke="#F37800" stroke-width="0.5" stroke-linecap="round" stroke-linejoin="round"/>
<path d="M8.85535 40.048C8.30335 40.048 7.86935 39.89 7.55335 39.574C7.23735 39.258 7.07935 38.796 7.07935 38.188V35.8H7.67935V38.164C7.67935 38.632 7.78135 38.974 7.98535 39.19C8.19335 39.406 8.48535 39.514 8.86135 39.514C9.24135 39.514 9.53335 39.406 9.73735 39.19C9.94535 38.974 10.0494 38.632 10.0494 38.164V35.8H10.6314V38.188C10.6314 38.796 10.4734 39.258 10.1574 39.574C9.84535 39.89 9.41135 40.048 8.85535 40.048ZM13.4634 40.036C13.1994 40.036 12.9574 39.976 12.7374 39.856C12.5214 39.732 12.3474 39.55 12.2154 39.31C12.0874 39.07 12.0234 38.77 12.0234 38.41C12.0234 38.05 12.0854 37.75 12.2094 37.51C12.3374 37.27 12.5094 37.09 12.7254 36.97C12.9454 36.85 13.1914 36.79 13.4634 36.79C13.7754 36.79 14.0514 36.858 14.2914 36.994C14.5314 37.13 14.7214 37.32 14.8614 37.564C15.0014 37.804 15.0714 38.086 15.0714 38.41C15.0714 38.734 15.0014 39.018 14.8614 39.262C14.7214 39.506 14.5314 39.696 14.2914 39.832C14.0514 39.968 13.7754 40.036 13.4634 40.036ZM11.7774 41.164V36.82H12.3294V37.678L12.2934 38.416L12.3534 39.154V41.164H11.7774ZM13.4154 39.532C13.6194 39.532 13.8014 39.486 13.9614 39.394C14.1254 39.302 14.2534 39.172 14.3454 39.004C14.4414 38.832 14.4894 38.634 14.4894 38.41C14.4894 38.182 14.4414 37.986 14.3454 37.822C14.2534 37.654 14.1254 37.524 13.9614 37.432C13.8014 37.34 13.6194 37.294 13.4154 37.294C13.2154 37.294 13.0334 37.34 12.8694 37.432C12.7094 37.524 12.5814 37.654 12.4854 37.822C12.3934 37.986 12.3474 38.182 12.3474 38.41C12.3474 38.634 12.3934 38.832 12.4854 39.004C12.5814 39.172 12.7094 39.302 12.8694 39.394C13.0334 39.486 13.2154 39.532 13.4154 39.532ZM17.2593 41.2C16.9673 41.2 16.6833 41.158 16.4073 41.074C16.1353 40.994 15.9133 40.878 15.7413 40.726L16.0173 40.282C16.1653 40.41 16.3473 40.51 16.5633 40.582C16.7793 40.658 17.0053 40.696 17.2413 40.696C17.6173 40.696 17.8933 40.608 18.0693 40.432C18.2453 40.256 18.3333 39.988 18.3333 39.628V38.956L18.3933 38.326L18.3633 37.69V36.82H18.9093V39.568C18.9093 40.128 18.7693 40.54 18.4893 40.804C18.2093 41.068 17.7993 41.2 17.2593 41.2ZM17.1873 39.868C16.8793 39.868 16.6033 39.804 16.3593 39.676C16.1193 39.544 15.9273 39.362 15.7833 39.13C15.6433 38.898 15.5733 38.63 15.5733 38.326C15.5733 38.018 15.6433 37.75 15.7833 37.522C15.9273 37.29 16.1193 37.11 16.3593 36.982C16.6033 36.854 16.8793 36.79 17.1873 36.79C17.4593 36.79 17.7073 36.846 17.9313 36.958C18.1553 37.066 18.3333 37.234 18.4653 37.462C18.6013 37.69 18.6693 37.978 18.6693 38.326C18.6693 38.67 18.6013 38.956 18.4653 39.184C18.3333 39.412 18.1553 39.584 17.9313 39.7C17.7073 39.812 17.4593 39.868 17.1873 39.868ZM17.2533 39.364C17.4653 39.364 17.6533 39.32 17.8173 39.232C17.9813 39.144 18.1093 39.022 18.2013 38.866C18.2973 38.71 18.3453 38.53 18.3453 38.326C18.3453 38.122 18.2973 37.942 18.2013 37.786C18.1093 37.63 17.9813 37.51 17.8173 37.426C17.6533 37.338 17.4653 37.294 17.2533 37.294C17.0413 37.294 16.8513 37.338 16.6833 37.426C16.5193 37.51 16.3893 37.63 16.2933 37.786C16.2013 37.942 16.1553 38.122 16.1553 38.326C16.1553 38.53 16.2013 38.71 16.2933 38.866C16.3893 39.022 16.5193 39.144 16.6833 39.232C16.8513 39.32 17.0413 39.364 17.2533 39.364ZM20.0099 40V36.82H20.5619V37.684L20.5079 37.468C20.5959 37.248 20.7439 37.08 20.9519 36.964C21.1599 36.848 21.4159 36.79 21.7199 36.79V37.348C21.6959 37.344 21.6719 37.342 21.6479 37.342C21.6279 37.342 21.6079 37.342 21.5879 37.342C21.2799 37.342 21.0359 37.434 20.8559 37.618C20.6759 37.802 20.5859 38.068 20.5859 38.416V40H20.0099ZM24.1694 40V39.328L24.1394 39.202V38.056C24.1394 37.812 24.0674 37.624 23.9234 37.492C23.7834 37.356 23.5714 37.288 23.2874 37.288C23.0994 37.288 22.9154 37.32 22.7354 37.384C22.5554 37.444 22.4034 37.526 22.2794 37.63L22.0394 37.198C22.2034 37.066 22.3994 36.966 22.6274 36.898C22.8594 36.826 23.1014 36.79 23.3534 36.79C23.7894 36.79 24.1254 36.896 24.3614 37.108C24.5974 37.32 24.7154 37.644 24.7154 38.08V40H24.1694ZM23.1254 40.036C22.8894 40.036 22.6814 39.996 22.5014 39.916C22.3254 39.836 22.1894 39.726 22.0934 39.586C21.9974 39.442 21.9494 39.28 21.9494 39.1C21.9494 38.928 21.9894 38.772 22.0694 38.632C22.1534 38.492 22.2874 38.38 22.4714 38.296C22.6594 38.212 22.9114 38.17 23.2274 38.17H24.2354V38.584H23.2514C22.9634 38.584 22.7694 38.632 22.6694 38.728C22.5694 38.824 22.5194 38.94 22.5194 39.076C22.5194 39.232 22.5814 39.358 22.7054 39.454C22.8294 39.546 23.0014 39.592 23.2214 39.592C23.4374 39.592 23.6254 39.544 23.7854 39.448C23.9494 39.352 24.0674 39.212 24.1394 39.028L24.2534 39.424C24.1774 39.612 24.0434 39.762 23.8514 39.874C23.6594 39.982 23.4174 40.036 23.1254 40.036ZM27.0954 40.036C26.7874 40.036 26.5114 39.968 26.2674 39.832C26.0274 39.696 25.8374 39.506 25.6974 39.262C25.5574 39.018 25.4874 38.734 25.4874 38.41C25.4874 38.086 25.5574 37.804 25.6974 37.564C25.8374 37.32 26.0274 37.13 26.2674 36.994C26.5114 36.858 26.7874 36.79 27.0954 36.79C27.3634 36.79 27.6054 36.85 27.8214 36.97C28.0374 37.09 28.2094 37.27 28.3374 37.51C28.4694 37.75 28.5354 38.05 28.5354 38.41C28.5354 38.77 28.4714 39.07 28.3434 39.31C28.2194 39.55 28.0494 39.732 27.8334 39.856C27.6174 39.976 27.3714 40.036 27.0954 40.036ZM27.1434 39.532C27.3434 39.532 27.5234 39.486 27.6834 39.394C27.8474 39.302 27.9754 39.172 28.0674 39.004C28.1634 38.832 28.2114 38.634 28.2114 38.41C28.2114 38.182 28.1634 37.986 28.0674 37.822C27.9754 37.654 27.8474 37.524 27.6834 37.432C27.5234 37.34 27.3434 37.294 27.1434 37.294C26.9394 37.294 26.7574 37.34 26.5974 37.432C26.4374 37.524 26.3094 37.654 26.2134 37.822C26.1174 37.986 26.0694 38.182 26.0694 38.41C26.0694 38.634 26.1174 38.832 26.2134 39.004C26.3094 39.172 26.4374 39.302 26.5974 39.394C26.7574 39.486 26.9394 39.532 27.1434 39.532ZM28.2294 40V39.142L28.2654 38.404L28.2054 37.666V35.548H28.7814V40H28.2294ZM31.2872 40.036C30.9472 40.036 30.6472 39.966 30.3872 39.826C30.1312 39.686 29.9312 39.494 29.7872 39.25C29.6472 39.006 29.5772 38.726 29.5772 38.41C29.5772 38.094 29.6452 37.814 29.7812 37.57C29.9212 37.326 30.1112 37.136 30.3512 37C30.5952 36.86 30.8692 36.79 31.1732 36.79C31.4812 36.79 31.7532 36.858 31.9892 36.994C32.2252 37.13 32.4092 37.322 32.5412 37.57C32.6772 37.814 32.7452 38.1 32.7452 38.428C32.7452 38.452 32.7432 38.48 32.7392 38.512C32.7392 38.544 32.7372 38.574 32.7332 38.602H30.0272V38.188H32.4332L32.1992 38.332C32.2032 38.128 32.1612 37.946 32.0732 37.786C31.9852 37.626 31.8632 37.502 31.7072 37.414C31.5552 37.322 31.3772 37.276 31.1732 37.276C30.9732 37.276 30.7952 37.322 30.6392 37.414C30.4832 37.502 30.3612 37.628 30.2732 37.792C30.1852 37.952 30.1412 38.136 30.1412 38.344V38.44C30.1412 38.652 30.1892 38.842 30.2852 39.01C30.3852 39.174 30.5232 39.302 30.6992 39.394C30.8752 39.486 31.0772 39.532 31.3052 39.532C31.4932 39.532 31.6632 39.5 31.8152 39.436C31.9712 39.372 32.1072 39.276 32.2232 39.148L32.5412 39.52C32.3972 39.688 32.2172 39.816 32.0012 39.904C31.7892 39.992 31.5512 40.036 31.2872 40.036ZM36.2484 40.036C35.9284 40.036 35.6804 39.95 35.5044 39.778C35.3284 39.606 35.2404 39.36 35.2404 39.04V36.124H35.8164V39.016C35.8164 39.188 35.8584 39.32 35.9424 39.412C36.0304 39.504 36.1544 39.55 36.3144 39.55C36.4944 39.55 36.6444 39.5 36.7644 39.4L36.9444 39.814C36.8564 39.89 36.7504 39.946 36.6264 39.982C36.5064 40.018 36.3804 40.036 36.2484 40.036ZM34.7004 37.294V36.82H36.7284V37.294H34.7004ZM38.8973 40.036C38.5773 40.036 38.2933 39.966 38.0453 39.826C37.7973 39.686 37.6013 39.494 37.4573 39.25C37.3133 39.002 37.2413 38.722 37.2413 38.41C37.2413 38.094 37.3133 37.814 37.4573 37.57C37.6013 37.326 37.7973 37.136 38.0453 37C38.2933 36.86 38.5773 36.79 38.8973 36.79C39.2133 36.79 39.4953 36.86 39.7433 37C39.9953 37.136 40.1913 37.326 40.3313 37.57C40.4753 37.81 40.5473 38.09 40.5473 38.41C40.5473 38.726 40.4753 39.006 40.3313 39.25C40.1913 39.494 39.9953 39.686 39.7433 39.826C39.4953 39.966 39.2133 40.036 38.8973 40.036ZM38.8973 39.532C39.1013 39.532 39.2833 39.486 39.4433 39.394C39.6073 39.302 39.7353 39.172 39.8273 39.004C39.9193 38.832 39.9653 38.634 39.9653 38.41C39.9653 38.182 39.9193 37.986 39.8273 37.822C39.7353 37.654 39.6073 37.524 39.4433 37.432C39.2833 37.34 39.1013 37.294 38.8973 37.294C38.6933 37.294 38.5113 37.34 38.3513 37.432C38.1913 37.524 38.0633 37.654 37.9673 37.822C37.8713 37.986 37.8233 38.182 37.8233 38.41C37.8233 38.634 37.8713 38.832 37.9673 39.004C38.0633 39.172 38.1913 39.302 38.3513 39.394C38.5113 39.486 38.6933 39.532 38.8973 39.532ZM43.0392 40V35.8H44.6772C45.0452 35.8 45.3592 35.858 45.6192 35.974C45.8792 36.09 46.0792 36.258 46.2192 36.478C46.3592 36.698 46.4292 36.96 46.4292 37.264C46.4292 37.568 46.3592 37.83 46.2192 38.05C46.0792 38.266 45.8792 38.434 45.6192 38.554C45.3592 38.67 45.0452 38.728 44.6772 38.728H43.3692L43.6392 38.446V40H43.0392ZM43.6392 38.506L43.3692 38.206H44.6592C45.0432 38.206 45.3332 38.124 45.5292 37.96C45.7292 37.796 45.8292 37.564 45.8292 37.264C45.8292 36.964 45.7292 36.732 45.5292 36.568C45.3332 36.404 45.0432 36.322 44.6592 36.322H43.3692L43.6392 36.022V38.506ZM47.1681 40V36.82H47.7201V37.684L47.6661 37.468C47.7541 37.248 47.9021 37.08 48.1101 36.964C48.3181 36.848 48.5741 36.79 48.8781 36.79V37.348C48.8541 37.344 48.8301 37.342 48.8061 37.342C48.7861 37.342 48.7661 37.342 48.7461 37.342C48.4381 37.342 48.1941 37.434 48.0141 37.618C47.8341 37.802 47.7441 38.068 47.7441 38.416V40H47.1681ZM50.9747 40.036C50.6347 40.036 50.3347 39.966 50.0747 39.826C49.8187 39.686 49.6187 39.494 49.4747 39.25C49.3347 39.006 49.2647 38.726 49.2647 38.41C49.2647 38.094 49.3327 37.814 49.4687 37.57C49.6087 37.326 49.7987 37.136 50.0387 37C50.2827 36.86 50.5567 36.79 50.8607 36.79C51.1687 36.79 51.4407 36.858 51.6767 36.994C51.9127 37.13 52.0967 37.322 52.2287 37.57C52.3647 37.814 52.4327 38.1 52.4327 38.428C52.4327 38.452 52.4307 38.48 52.4267 38.512C52.4267 38.544 52.4247 38.574 52.4207 38.602H49.7147V38.188H52.1207L51.8867 38.332C51.8907 38.128 51.8487 37.946 51.7607 37.786C51.6727 37.626 51.5507 37.502 51.3947 37.414C51.2427 37.322 51.0647 37.276 50.8607 37.276C50.6607 37.276 50.4827 37.322 50.3267 37.414C50.1707 37.502 50.0487 37.628 49.9607 37.792C49.8727 37.952 49.8287 38.136 49.8287 38.344V38.44C49.8287 38.652 49.8767 38.842 49.9727 39.01C50.0727 39.174 50.2107 39.302 50.3867 39.394C50.5627 39.486 50.7647 39.532 50.9927 39.532C51.1807 39.532 51.3507 39.5 51.5027 39.436C51.6587 39.372 51.7947 39.276 51.9107 39.148L52.2287 39.52C52.0847 39.688 51.9047 39.816 51.6887 39.904C51.4767 39.992 51.2387 40.036 50.9747 40.036ZM57.2105 36.79C57.4665 36.79 57.6925 36.84 57.8885 36.94C58.0845 37.04 58.2365 37.192 58.3445 37.396C58.4565 37.6 58.5125 37.858 58.5125 38.17V40H57.9365V38.236C57.9365 37.928 57.8645 37.696 57.7205 37.54C57.5765 37.384 57.3745 37.306 57.1145 37.306C56.9225 37.306 56.7545 37.346 56.6105 37.426C56.4665 37.506 56.3545 37.624 56.2745 37.78C56.1985 37.936 56.1605 38.13 56.1605 38.362V40H55.5845V38.236C55.5845 37.928 55.5125 37.696 55.3685 37.54C55.2285 37.384 55.0265 37.306 54.7625 37.306C54.5745 37.306 54.4085 37.346 54.2645 37.426C54.1205 37.506 54.0085 37.624 53.9285 37.78C53.8485 37.936 53.8085 38.13 53.8085 38.362V40H53.2325V36.82H53.7845V37.666L53.6945 37.45C53.7945 37.242 53.9485 37.08 54.1565 36.964C54.3645 36.848 54.6065 36.79 54.8825 36.79C55.1865 36.79 55.4485 36.866 55.6685 37.018C55.8885 37.166 56.0325 37.392 56.1005 37.696L55.8665 37.6C55.9625 37.356 56.1305 37.16 56.3705 37.012C56.6105 36.864 56.8905 36.79 57.2105 36.79ZM59.5724 40V36.82H60.1484V40H59.5724ZM59.8604 36.208C59.7484 36.208 59.6544 36.172 59.5784 36.1C59.5064 36.028 59.4704 35.94 59.4704 35.836C59.4704 35.728 59.5064 35.638 59.5784 35.566C59.6544 35.494 59.7484 35.458 59.8604 35.458C59.9724 35.458 60.0644 35.494 60.1364 35.566C60.2124 35.634 60.2504 35.72 60.2504 35.824C60.2504 35.932 60.2144 36.024 60.1424 36.1C60.0704 36.172 59.9764 36.208 59.8604 36.208ZM62.5861 40.036C62.3141 40.036 62.0741 39.986 61.8661 39.886C61.6621 39.786 61.5021 39.634 61.3861 39.43C61.2741 39.222 61.2181 38.962 61.2181 38.65V36.82H61.7941V38.584C61.7941 38.896 61.8681 39.13 62.0161 39.286C62.1681 39.442 62.3801 39.52 62.6521 39.52C62.8521 39.52 63.0261 39.48 63.1741 39.4C63.3221 39.316 63.4361 39.196 63.5161 39.04C63.5961 38.88 63.6361 38.688 63.6361 38.464V36.82H64.2121V40H63.6661V39.142L63.7561 39.37C63.6521 39.582 63.4961 39.746 63.2881 39.862C63.0801 39.978 62.8461 40.036 62.5861 40.036ZM69.2867 36.79C69.5427 36.79 69.7687 36.84 69.9647 36.94C70.1607 37.04 70.3127 37.192 70.4207 37.396C70.5327 37.6 70.5887 37.858 70.5887 38.17V40H70.0127V38.236C70.0127 37.928 69.9407 37.696 69.7967 37.54C69.6527 37.384 69.4507 37.306 69.1907 37.306C68.9987 37.306 68.8307 37.346 68.6867 37.426C68.5427 37.506 68.4307 37.624 68.3507 37.78C68.2747 37.936 68.2367 38.13 68.2367 38.362V40H67.6607V38.236C67.6607 37.928 67.5887 37.696 67.4447 37.54C67.3047 37.384 67.1027 37.306 66.8387 37.306C66.6507 37.306 66.4847 37.346 66.3407 37.426C66.1967 37.506 66.0847 37.624 66.0047 37.78C65.9247 37.936 65.8847 38.13 65.8847 38.362V40H65.3087V36.82H65.8607V37.666L65.7707 37.45C65.8707 37.242 66.0247 37.08 66.2327 36.964C66.4407 36.848 66.6827 36.79 66.9587 36.79C67.2627 36.79 67.5247 36.866 67.7447 37.018C67.9647 37.166 68.1087 37.392 68.1767 37.696L67.9427 37.6C68.0387 37.356 68.2067 37.16 68.4467 37.012C68.6867 36.864 68.9667 36.79 69.2867 36.79ZM75.2339 40V39.328L75.2039 39.202V38.056C75.2039 37.812 75.1319 37.624 74.9879 37.492C74.8479 37.356 74.6359 37.288 74.3519 37.288C74.1639 37.288 73.9799 37.32 73.7999 37.384C73.6199 37.444 73.4679 37.526 73.3439 37.63L73.1039 37.198C73.2679 37.066 73.4639 36.966 73.6919 36.898C73.9239 36.826 74.1659 36.79 74.4179 36.79C74.8539 36.79 75.1899 36.896 75.4259 37.108C75.6619 37.32 75.7799 37.644 75.7799 38.08V40H75.2339ZM74.1899 40.036C73.9539 40.036 73.7459 39.996 73.5659 39.916C73.3899 39.836 73.2539 39.726 73.1579 39.586C73.0619 39.442 73.0139 39.28 73.0139 39.1C73.0139 38.928 73.0539 38.772 73.1339 38.632C73.2179 38.492 73.3519 38.38 73.5359 38.296C73.7239 38.212 73.9759 38.17 74.2919 38.17H75.2999V38.584H74.3159C74.0279 38.584 73.8339 38.632 73.7339 38.728C73.6339 38.824 73.5839 38.94 73.5839 39.076C73.5839 39.232 73.6459 39.358 73.7699 39.454C73.8939 39.546 74.0659 39.592 74.2859 39.592C74.5019 39.592 74.6899 39.544 74.8499 39.448C75.0139 39.352 75.1319 39.212 75.2039 39.028L75.3179 39.424C75.2419 39.612 75.1079 39.762 74.9159 39.874C74.7239 39.982 74.4819 40.036 74.1899 40.036ZM78.5438 36.79C78.8038 36.79 79.0318 36.84 79.2278 36.94C79.4278 37.04 79.5838 37.192 79.6958 37.396C79.8078 37.6 79.8638 37.858 79.8638 38.17V40H79.2878V38.236C79.2878 37.928 79.2118 37.696 79.0598 37.54C78.9118 37.384 78.7018 37.306 78.4298 37.306C78.2258 37.306 78.0478 37.346 77.8958 37.426C77.7438 37.506 77.6258 37.624 77.5418 37.78C77.4618 37.936 77.4218 38.13 77.4218 38.362V40H76.8458V36.82H77.3978V37.678L77.3078 37.45C77.4118 37.242 77.5718 37.08 77.7878 36.964C78.0038 36.848 78.2558 36.79 78.5438 36.79ZM82.2438 40.036C81.9358 40.036 81.6598 39.968 81.4158 39.832C81.1758 39.696 80.9858 39.506 80.8458 39.262C80.7058 39.018 80.6358 38.734 80.6358 38.41C80.6358 38.086 80.7058 37.804 80.8458 37.564C80.9858 37.32 81.1758 37.13 81.4158 36.994C81.6598 36.858 81.9358 36.79 82.2438 36.79C82.5118 36.79 82.7538 36.85 82.9698 36.97C83.1858 37.09 83.3578 37.27 83.4858 37.51C83.6178 37.75 83.6838 38.05 83.6838 38.41C83.6838 38.77 83.6198 39.07 83.4918 39.31C83.3678 39.55 83.1978 39.732 82.9818 39.856C82.7658 39.976 82.5198 40.036 82.2438 40.036ZM82.2918 39.532C82.4918 39.532 82.6718 39.486 82.8318 39.394C82.9958 39.302 83.1238 39.172 83.2158 39.004C83.3118 38.832 83.3598 38.634 83.3598 38.41C83.3598 38.182 83.3118 37.986 83.2158 37.822C83.1238 37.654 82.9958 37.524 82.8318 37.432C82.6718 37.34 82.4918 37.294 82.2918 37.294C82.0878 37.294 81.9058 37.34 81.7458 37.432C81.5858 37.524 81.4578 37.654 81.3618 37.822C81.2658 37.986 81.2178 38.182 81.2178 38.41C81.2178 38.634 81.2658 38.832 81.3618 39.004C81.4578 39.172 81.5858 39.302 81.7458 39.394C81.9058 39.486 82.0878 39.532 82.2918 39.532ZM83.3778 40V39.142L83.4138 38.404L83.3538 37.666V35.548H83.9298V40H83.3778ZM86.631 40V36.82H87.207V40H86.631ZM86.919 36.208C86.807 36.208 86.713 36.172 86.637 36.1C86.565 36.028 86.529 35.94 86.529 35.836C86.529 35.728 86.565 35.638 86.637 35.566C86.713 35.494 86.807 35.458 86.919 35.458C87.031 35.458 87.123 35.494 87.195 35.566C87.271 35.634 87.309 35.72 87.309 35.824C87.309 35.932 87.273 36.024 87.201 36.1C87.129 36.172 87.035 36.208 86.919 36.208ZM90.0047 36.79C90.2647 36.79 90.4927 36.84 90.6887 36.94C90.8887 37.04 91.0447 37.192 91.1567 37.396C91.2687 37.6 91.3247 37.858 91.3247 38.17V40H90.7487V38.236C90.7487 37.928 90.6727 37.696 90.5207 37.54C90.3727 37.384 90.1627 37.306 89.8907 37.306C89.6867 37.306 89.5087 37.346 89.3567 37.426C89.2047 37.506 89.0867 37.624 89.0027 37.78C88.9227 37.936 88.8827 38.13 88.8827 38.362V40H88.3067V36.82H88.8587V37.678L88.7687 37.45C88.8727 37.242 89.0327 37.08 89.2487 36.964C89.4647 36.848 89.7167 36.79 90.0047 36.79ZM93.7767 40.036C93.4527 40.036 93.1627 39.966 92.9067 39.826C92.6547 39.686 92.4567 39.494 92.3127 39.25C92.1687 39.006 92.0967 38.726 92.0967 38.41C92.0967 38.094 92.1687 37.814 92.3127 37.57C92.4567 37.326 92.6547 37.136 92.9067 37C93.1627 36.86 93.4527 36.79 93.7767 36.79C94.0647 36.79 94.3207 36.848 94.5447 36.964C94.7727 37.076 94.9487 37.244 95.0727 37.468L94.6347 37.75C94.5307 37.594 94.4027 37.48 94.2507 37.408C94.1027 37.332 93.9427 37.294 93.7707 37.294C93.5627 37.294 93.3767 37.34 93.2127 37.432C93.0487 37.524 92.9187 37.654 92.8227 37.822C92.7267 37.986 92.6787 38.182 92.6787 38.41C92.6787 38.638 92.7267 38.836 92.8227 39.004C92.9187 39.172 93.0487 39.302 93.2127 39.394C93.3767 39.486 93.5627 39.532 93.7707 39.532C93.9427 39.532 94.1027 39.496 94.2507 39.424C94.4027 39.348 94.5307 39.232 94.6347 39.076L95.0727 39.352C94.9487 39.572 94.7727 39.742 94.5447 39.862C94.3207 39.978 94.0647 40.036 93.7767 40.036ZM95.8185 40V36.82H96.3705V37.684L96.3165 37.468C96.4045 37.248 96.5525 37.08 96.7605 36.964C96.9685 36.848 97.2245 36.79 97.5285 36.79V37.348C97.5045 37.344 97.4805 37.342 97.4565 37.342C97.4365 37.342 97.4165 37.342 97.3965 37.342C97.0885 37.342 96.8445 37.434 96.6645 37.618C96.4845 37.802 96.3945 38.068 96.3945 38.416V40H95.8185ZM99.6251 40.036C99.2851 40.036 98.9851 39.966 98.7251 39.826C98.4691 39.686 98.2691 39.494 98.1251 39.25C97.9851 39.006 97.9151 38.726 97.9151 38.41C97.9151 38.094 97.9831 37.814 98.1191 37.57C98.2591 37.326 98.4491 37.136 98.6891 37C98.9331 36.86 99.2071 36.79 99.5111 36.79C99.8191 36.79 100.091 36.858 100.327 36.994C100.563 37.13 100.747 37.322 100.879 37.57C101.015 37.814 101.083 38.1 101.083 38.428C101.083 38.452 101.081 38.48 101.077 38.512C101.077 38.544 101.075 38.574 101.071 38.602H98.3651V38.188H100.771L100.537 38.332C100.541 38.128 100.499 37.946 100.411 37.786C100.323 37.626 100.201 37.502 100.045 37.414C99.8931 37.322 99.7151 37.276 99.5111 37.276C99.3111 37.276 99.1331 37.322 98.9771 37.414C98.8211 37.502 98.6991 37.628 98.6111 37.792C98.5231 37.952 98.4791 38.136 98.4791 38.344V38.44C98.4791 38.652 98.5271 38.842 98.6231 39.01C98.7231 39.174 98.8611 39.302 99.0371 39.394C99.2131 39.486 99.4151 39.532 99.6431 39.532C99.8311 39.532 100.001 39.5 100.153 39.436C100.309 39.372 100.445 39.276 100.561 39.148L100.879 39.52C100.735 39.688 100.555 39.816 100.339 39.904C100.127 39.992 99.8891 40.036 99.6251 40.036ZM103.769 40V39.328L103.739 39.202V38.056C103.739 37.812 103.667 37.624 103.523 37.492C103.383 37.356 103.171 37.288 102.887 37.288C102.699 37.288 102.515 37.32 102.335 37.384C102.155 37.444 102.003 37.526 101.879 37.63L101.639 37.198C101.803 37.066 101.999 36.966 102.227 36.898C102.459 36.826 102.701 36.79 102.953 36.79C103.389 36.79 103.725 36.896 103.961 37.108C104.197 37.32 104.315 37.644 104.315 38.08V40H103.769ZM102.725 40.036C102.489 40.036 102.281 39.996 102.101 39.916C101.925 39.836 101.789 39.726 101.693 39.586C101.597 39.442 101.549 39.28 101.549 39.1C101.549 38.928 101.589 38.772 101.669 38.632C101.753 38.492 101.887 38.38 102.071 38.296C102.259 38.212 102.511 38.17 102.827 38.17H103.835V38.584H102.851C102.563 38.584 102.369 38.632 102.269 38.728C102.169 38.824 102.119 38.94 102.119 39.076C102.119 39.232 102.181 39.358 102.305 39.454C102.429 39.546 102.601 39.592 102.821 39.592C103.037 39.592 103.225 39.544 103.385 39.448C103.549 39.352 103.667 39.212 103.739 39.028L103.853 39.424C103.777 39.612 103.643 39.762 103.451 39.874C103.259 39.982 103.017 40.036 102.725 40.036ZM106.293 40.036C106.029 40.036 105.777 40 105.537 39.928C105.301 39.856 105.115 39.768 104.979 39.664L105.219 39.208C105.355 39.3 105.523 39.378 105.723 39.442C105.923 39.506 106.127 39.538 106.335 39.538C106.603 39.538 106.795 39.5 106.911 39.424C107.031 39.348 107.091 39.242 107.091 39.106C107.091 39.006 107.055 38.928 106.983 38.872C106.911 38.816 106.815 38.774 106.695 38.746C106.579 38.718 106.449 38.694 106.305 38.674C106.161 38.65 106.017 38.622 105.873 38.59C105.729 38.554 105.597 38.506 105.477 38.446C105.357 38.382 105.261 38.296 105.189 38.188C105.117 38.076 105.081 37.928 105.081 37.744C105.081 37.552 105.135 37.384 105.243 37.24C105.351 37.096 105.503 36.986 105.699 36.91C105.899 36.83 106.135 36.79 106.407 36.79C106.615 36.79 106.825 36.816 107.037 36.868C107.253 36.916 107.429 36.986 107.565 37.078L107.319 37.534C107.175 37.438 107.025 37.372 106.869 37.336C106.713 37.3 106.557 37.282 106.401 37.282C106.149 37.282 105.961 37.324 105.837 37.408C105.713 37.488 105.651 37.592 105.651 37.72C105.651 37.828 105.687 37.912 105.759 37.972C105.835 38.028 105.931 38.072 106.047 38.104C106.167 38.136 106.299 38.164 106.443 38.188C106.587 38.208 106.731 38.236 106.875 38.272C107.019 38.304 107.149 38.35 107.265 38.41C107.385 38.47 107.481 38.554 107.553 38.662C107.629 38.77 107.667 38.914 107.667 39.094C107.667 39.286 107.611 39.452 107.499 39.592C107.387 39.732 107.229 39.842 107.025 39.922C106.821 39.998 106.577 40.036 106.293 40.036ZM109.803 40.036C109.463 40.036 109.163 39.966 108.903 39.826C108.647 39.686 108.447 39.494 108.303 39.25C108.163 39.006 108.093 38.726 108.093 38.41C108.093 38.094 108.161 37.814 108.297 37.57C108.437 37.326 108.627 37.136 108.867 37C109.111 36.86 109.385 36.79 109.689 36.79C109.997 36.79 110.269 36.858 110.505 36.994C110.741 37.13 110.925 37.322 111.057 37.57C111.193 37.814 111.261 38.1 111.261 38.428C111.261 38.452 111.259 38.48 111.255 38.512C111.255 38.544 111.253 38.574 111.249 38.602H108.543V38.188H110.949L110.715 38.332C110.719 38.128 110.677 37.946 110.589 37.786C110.501 37.626 110.379 37.502 110.223 37.414C110.071 37.322 109.893 37.276 109.689 37.276C109.489 37.276 109.311 37.322 109.155 37.414C108.999 37.502 108.877 37.628 108.789 37.792C108.701 37.952 108.657 38.136 108.657 38.344V38.44C108.657 38.652 108.705 38.842 108.801 39.01C108.901 39.174 109.039 39.302 109.215 39.394C109.391 39.486 109.593 39.532 109.821 39.532C110.009 39.532 110.179 39.5 110.331 39.436C110.487 39.372 110.623 39.276 110.739 39.148L111.057 39.52C110.913 39.688 110.733 39.816 110.517 39.904C110.305 39.992 110.067 40.036 109.803 40.036ZM30.8998 49.2C30.7478 49.2 30.5998 49.174 30.4558 49.122C30.3118 49.074 30.1878 49.002 30.0838 48.906L30.3298 48.474C30.4098 48.55 30.4978 48.608 30.5938 48.648C30.6898 48.688 30.7918 48.708 30.8998 48.708C31.0398 48.708 31.1558 48.672 31.2478 48.6C31.3398 48.528 31.4258 48.4 31.5058 48.216L31.7038 47.778L31.7638 47.706L33.0118 44.82H33.5758L32.0338 48.318C31.9418 48.542 31.8378 48.718 31.7218 48.846C31.6098 48.974 31.4858 49.064 31.3498 49.116C31.2138 49.172 31.0638 49.2 30.8998 49.2ZM31.6558 48.102L30.2038 44.82H30.8038L32.0398 47.652L31.6558 48.102ZM35.3875 48.036C35.0675 48.036 34.7835 47.966 34.5355 47.826C34.2875 47.686 34.0915 47.494 33.9475 47.25C33.8035 47.002 33.7315 46.722 33.7315 46.41C33.7315 46.094 33.8035 45.814 33.9475 45.57C34.0915 45.326 34.2875 45.136 34.5355 45C34.7835 44.86 35.0675 44.79 35.3875 44.79C35.7035 44.79 35.9855 44.86 36.2335 45C36.4855 45.136 36.6815 45.326 36.8215 45.57C36.9655 45.81 37.0375 46.09 37.0375 46.41C37.0375 46.726 36.9655 47.006 36.8215 47.25C36.6815 47.494 36.4855 47.686 36.2335 47.826C35.9855 47.966 35.7035 48.036 35.3875 48.036ZM35.3875 47.532C35.5915 47.532 35.7735 47.486 35.9335 47.394C36.0975 47.302 36.2255 47.172 36.3175 47.004C36.4095 46.832 36.4555 46.634 36.4555 46.41C36.4555 46.182 36.4095 45.986 36.3175 45.822C36.2255 45.654 36.0975 45.524 35.9335 45.432C35.7735 45.34 35.5915 45.294 35.3875 45.294C35.1835 45.294 35.0015 45.34 34.8415 45.432C34.6815 45.524 34.5535 45.654 34.4575 45.822C34.3615 45.986 34.3135 46.182 34.3135 46.41C34.3135 46.634 34.3615 46.832 34.4575 47.004C34.5535 47.172 34.6815 47.302 34.8415 47.394C35.0015 47.486 35.1835 47.532 35.3875 47.532ZM39.1721 48.036C38.9001 48.036 38.6601 47.986 38.4521 47.886C38.2481 47.786 38.0881 47.634 37.9721 47.43C37.8601 47.222 37.8041 46.962 37.8041 46.65V44.82H38.3801V46.584C38.3801 46.896 38.4541 47.13 38.6021 47.286C38.7541 47.442 38.9661 47.52 39.2381 47.52C39.4381 47.52 39.6121 47.48 39.7601 47.4C39.9081 47.316 40.0221 47.196 40.1021 47.04C40.1821 46.88 40.2221 46.688 40.2221 46.464V44.82H40.7981V48H40.2521V47.142L40.3421 47.37C40.2381 47.582 40.0821 47.746 39.8741 47.862C39.6661 47.978 39.4321 48.036 39.1721 48.036ZM41.8946 48V44.82H42.4466V45.684L42.3926 45.468C42.4806 45.248 42.6286 45.08 42.8366 44.964C43.0446 44.848 43.3006 44.79 43.6046 44.79V45.348C43.5806 45.344 43.5566 45.342 43.5326 45.342C43.5126 45.342 43.4926 45.342 43.4726 45.342C43.1646 45.342 42.9206 45.434 42.7406 45.618C42.5606 45.802 42.4706 46.068 42.4706 46.416V48H41.8946ZM45.9669 48V44.82H46.5189V45.684L46.4649 45.468C46.5529 45.248 46.7009 45.08 46.9089 44.964C47.1169 44.848 47.3729 44.79 47.6769 44.79V45.348C47.6529 45.344 47.6289 45.342 47.6049 45.342C47.5849 45.342 47.5649 45.342 47.5449 45.342C47.2369 45.342 46.9929 45.434 46.8129 45.618C46.6329 45.802 46.5429 46.068 46.5429 46.416V48H45.9669ZM50.1264 48V47.328L50.0964 47.202V46.056C50.0964 45.812 50.0244 45.624 49.8804 45.492C49.7404 45.356 49.5284 45.288 49.2444 45.288C49.0564 45.288 48.8724 45.32 48.6924 45.384C48.5124 45.444 48.3604 45.526 48.2364 45.63L47.9964 45.198C48.1604 45.066 48.3564 44.966 48.5844 44.898C48.8164 44.826 49.0584 44.79 49.3104 44.79C49.7464 44.79 50.0824 44.896 50.3184 45.108C50.5544 45.32 50.6724 45.644 50.6724 46.08V48H50.1264ZM49.0824 48.036C48.8464 48.036 48.6384 47.996 48.4584 47.916C48.2824 47.836 48.1464 47.726 48.0504 47.586C47.9544 47.442 47.9064 47.28 47.9064 47.1C47.9064 46.928 47.9464 46.772 48.0264 46.632C48.1104 46.492 48.2444 46.38 48.4284 46.296C48.6164 46.212 48.8684 46.17 49.1844 46.17H50.1924V46.584H49.2084C48.9204 46.584 48.7264 46.632 48.6264 46.728C48.5264 46.824 48.4764 46.94 48.4764 47.076C48.4764 47.232 48.5384 47.358 48.6624 47.454C48.7864 47.546 48.9584 47.592 49.1784 47.592C49.3944 47.592 49.5824 47.544 49.7424 47.448C49.9064 47.352 50.0244 47.212 50.0964 47.028L50.2104 47.424C50.1344 47.612 50.0004 47.762 49.8084 47.874C49.6164 47.982 49.3744 48.036 49.0824 48.036ZM53.4364 44.79C53.6964 44.79 53.9244 44.84 54.1204 44.94C54.3204 45.04 54.4764 45.192 54.5884 45.396C54.7004 45.6 54.7564 45.858 54.7564 46.17V48H54.1804V46.236C54.1804 45.928 54.1044 45.696 53.9524 45.54C53.8044 45.384 53.5944 45.306 53.3224 45.306C53.1184 45.306 52.9404 45.346 52.7884 45.426C52.6364 45.506 52.5184 45.624 52.4344 45.78C52.3544 45.936 52.3144 46.13 52.3144 46.362V48H51.7384V44.82H52.2904V45.678L52.2004 45.45C52.3044 45.242 52.4644 45.08 52.6804 44.964C52.8964 44.848 53.1484 44.79 53.4364 44.79ZM56.2904 47.232L56.3024 46.494L58.1324 44.82H58.8284L57.4244 46.2L57.1124 46.464L56.2904 47.232ZM55.8224 48V43.548H56.3984V48H55.8224ZM58.2524 48L57.0044 46.452L57.3764 45.99L58.9604 48H58.2524ZM60.669 48L62.037 46.224L62.031 46.518L60.729 44.82H61.371L62.367 46.128H62.121L63.117 44.82H63.747L62.427 46.53L62.433 46.224L63.813 48H63.159L62.109 46.608L62.343 46.644L61.311 48H60.669ZM63.9243 46.968V46.548L66.0723 43.8H66.7203L64.5903 46.548L64.2843 46.452H67.6383V46.968H63.9243ZM66.2583 48V46.968L66.2763 46.452V45.54H66.8403V48H66.2583ZM69.9513 48V44.538C69.9513 44.226 70.0413 43.978 70.2213 43.794C70.4053 43.606 70.6653 43.512 71.0013 43.512C71.1253 43.512 71.2433 43.528 71.3553 43.56C71.4713 43.588 71.5693 43.634 71.6493 43.698L71.4753 44.136C71.4153 44.088 71.3473 44.052 71.2713 44.028C71.1953 44 71.1153 43.986 71.0313 43.986C70.8633 43.986 70.7353 44.034 70.6473 44.13C70.5593 44.222 70.5153 44.36 70.5153 44.544V44.97L70.5273 45.234V48H69.9513ZM69.4113 45.294V44.82H71.4393V45.294H69.4113ZM73.8979 48V47.328L73.8679 47.202V46.056C73.8679 45.812 73.7959 45.624 73.6519 45.492C73.5119 45.356 73.2999 45.288 73.0159 45.288C72.8279 45.288 72.6439 45.32 72.4639 45.384C72.2839 45.444 72.1319 45.526 72.0079 45.63L71.7679 45.198C71.9319 45.066 72.1279 44.966 72.3559 44.898C72.5879 44.826 72.8299 44.79 73.0819 44.79C73.5179 44.79 73.8539 44.896 74.0899 45.108C74.3259 45.32 74.4439 45.644 74.4439 46.08V48H73.8979ZM72.8539 48.036C72.6179 48.036 72.4099 47.996 72.2299 47.916C72.0539 47.836 71.9179 47.726 71.8219 47.586C71.7259 47.442 71.6779 47.28 71.6779 47.1C71.6779 46.928 71.7179 46.772 71.7979 46.632C71.8819 46.492 72.0159 46.38 72.1999 46.296C72.3879 46.212 72.6399 46.17 72.9559 46.17H73.9639V46.584H72.9799C72.6919 46.584 72.4979 46.632 72.3979 46.728C72.2979 46.824 72.2479 46.94 72.2479 47.076C72.2479 47.232 72.3099 47.358 72.4339 47.454C72.5579 47.546 72.7299 47.592 72.9499 47.592C73.1659 47.592 73.3539 47.544 73.5139 47.448C73.6779 47.352 73.7959 47.212 73.8679 47.028L73.9819 47.424C73.9059 47.612 73.7719 47.762 73.5799 47.874C73.3879 47.982 73.1459 48.036 72.8539 48.036ZM76.4219 48.036C76.1579 48.036 75.9059 48 75.6659 47.928C75.4299 47.856 75.2439 47.768 75.1079 47.664L75.3479 47.208C75.4839 47.3 75.6519 47.378 75.8519 47.442C76.0519 47.506 76.2559 47.538 76.4639 47.538C76.7319 47.538 76.9239 47.5 77.0399 47.424C77.1599 47.348 77.2199 47.242 77.2199 47.106C77.2199 47.006 77.1839 46.928 77.1119 46.872C77.0399 46.816 76.9439 46.774 76.8239 46.746C76.7079 46.718 76.5779 46.694 76.4339 46.674C76.2899 46.65 76.1459 46.622 76.0019 46.59C75.8579 46.554 75.7259 46.506 75.6059 46.446C75.4859 46.382 75.3899 46.296 75.3179 46.188C75.2459 46.076 75.2099 45.928 75.2099 45.744C75.2099 45.552 75.2639 45.384 75.3719 45.24C75.4799 45.096 75.6319 44.986 75.8279 44.91C76.0279 44.83 76.2639 44.79 76.5359 44.79C76.7439 44.79 76.9539 44.816 77.1659 44.868C77.3819 44.916 77.5579 44.986 77.6939 45.078L77.4479 45.534C77.3039 45.438 77.1539 45.372 76.9979 45.336C76.8419 45.3 76.6859 45.282 76.5299 45.282C76.2779 45.282 76.0899 45.324 75.9659 45.408C75.8419 45.488 75.7799 45.592 75.7799 45.72C75.7799 45.828 75.8159 45.912 75.8879 45.972C75.9639 46.028 76.0599 46.072 76.1759 46.104C76.2959 46.136 76.4279 46.164 76.5719 46.188C76.7159 46.208 76.8599 46.236 77.0039 46.272C77.1479 46.304 77.2779 46.35 77.3939 46.41C77.5139 46.47 77.6099 46.554 77.6819 46.662C77.7579 46.77 77.7959 46.914 77.7959 47.094C77.7959 47.286 77.7399 47.452 77.6279 47.592C77.5159 47.732 77.3579 47.842 77.1539 47.922C76.9499 47.998 76.7059 48.036 76.4219 48.036ZM79.6077 48.036C79.2877 48.036 79.0397 47.95 78.8637 47.778C78.6877 47.606 78.5997 47.36 78.5997 47.04V44.124H79.1757V47.016C79.1757 47.188 79.2177 47.32 79.3017 47.412C79.3897 47.504 79.5137 47.55 79.6737 47.55C79.8537 47.55 80.0037 47.5 80.1237 47.4L80.3037 47.814C80.2157 47.89 80.1097 47.946 79.9857 47.982C79.8657 48.018 79.7397 48.036 79.6077 48.036ZM78.0597 45.294V44.82H80.0877V45.294H78.0597ZM82.3106 48.036C81.9706 48.036 81.6706 47.966 81.4106 47.826C81.1546 47.686 80.9546 47.494 80.8106 47.25C80.6706 47.006 80.6006 46.726 80.6006 46.41C80.6006 46.094 80.6686 45.814 80.8046 45.57C80.9446 45.326 81.1346 45.136 81.3746 45C81.6186 44.86 81.8926 44.79 82.1966 44.79C82.5046 44.79 82.7766 44.858 83.0126 44.994C83.2486 45.13 83.4326 45.322 83.5646 45.57C83.7006 45.814 83.7686 46.1 83.7686 46.428C83.7686 46.452 83.7666 46.48 83.7626 46.512C83.7626 46.544 83.7606 46.574 83.7566 46.602H81.0506V46.188H83.4566L83.2226 46.332C83.2266 46.128 83.1846 45.946 83.0966 45.786C83.0086 45.626 82.8866 45.502 82.7306 45.414C82.5786 45.322 82.4006 45.276 82.1966 45.276C81.9966 45.276 81.8186 45.322 81.6626 45.414C81.5066 45.502 81.3846 45.628 81.2966 45.792C81.2086 45.952 81.1646 46.136 81.1646 46.344V46.44C81.1646 46.652 81.2126 46.842 81.3086 47.01C81.4086 47.174 81.5466 47.302 81.7226 47.394C81.8986 47.486 82.1006 47.532 82.3286 47.532C82.5166 47.532 82.6866 47.5 82.8386 47.436C82.9946 47.372 83.1306 47.276 83.2466 47.148L83.5646 47.52C83.4206 47.688 83.2406 47.816 83.0246 47.904C82.8126 47.992 82.5746 48.036 82.3106 48.036ZM84.5685 48V44.82H85.1205V45.684L85.0665 45.468C85.1545 45.248 85.3025 45.08 85.5105 44.964C85.7185 44.848 85.9745 44.79 86.2785 44.79V45.348C86.2545 45.344 86.2305 45.342 86.2065 45.342C86.1865 45.342 86.1665 45.342 86.1465 45.342C85.8385 45.342 85.5945 45.434 85.4145 45.618C85.2345 45.802 85.1445 46.068 85.1445 46.416V48H84.5685ZM87.1088 48.036C86.9968 48.036 86.9008 47.998 86.8208 47.922C86.7408 47.842 86.7008 47.742 86.7008 47.622C86.7008 47.502 86.7408 47.404 86.8208 47.328C86.9008 47.252 86.9968 47.214 87.1088 47.214C87.2168 47.214 87.3088 47.252 87.3848 47.328C87.4648 47.404 87.5048 47.502 87.5048 47.622C87.5048 47.742 87.4648 47.842 87.3848 47.922C87.3088 47.998 87.2168 48.036 87.1088 48.036Z" fill="#F7F7FF"/>
<path d="M73.9366 63V58.8H75.5746C75.9426 58.8 76.2566 58.858 76.5166 58.974C76.7766 59.09 76.9766 59.258 77.1166 59.478C77.2566 59.698 77.3266 59.96 77.3266 60.264C77.3266 60.568 77.2566 60.83 77.1166 61.05C76.9766 61.266 76.7766 61.434 76.5166 61.554C76.2566 61.67 75.9426 61.728 75.5746 61.728H74.2666L74.5366 61.446V63H73.9366ZM74.5366 61.506L74.2666 61.206H75.5566C75.9406 61.206 76.2306 61.124 76.4266 60.96C76.6266 60.796 76.7266 60.564 76.7266 60.264C76.7266 59.964 76.6266 59.732 76.4266 59.568C76.2306 59.404 75.9406 59.322 75.5566 59.322H74.2666L74.5366 59.022V61.506ZM78.0655 63V59.82H78.6175V60.684L78.5635 60.468C78.6515 60.248 78.7995 60.08 79.0075 59.964C79.2155 59.848 79.4715 59.79 79.7755 59.79V60.348C79.7515 60.344 79.7275 60.342 79.7035 60.342C79.6835 60.342 79.6635 60.342 79.6435 60.342C79.3355 60.342 79.0915 60.434 78.9115 60.618C78.7315 60.802 78.6415 61.068 78.6415 61.416V63H78.0655ZM81.8722 63.036C81.5322 63.036 81.2322 62.966 80.9722 62.826C80.7162 62.686 80.5162 62.494 80.3722 62.25C80.2322 62.006 80.1622 61.726 80.1622 61.41C80.1622 61.094 80.2302 60.814 80.3662 60.57C80.5062 60.326 80.6962 60.136 80.9362 60C81.1802 59.86 81.4542 59.79 81.7582 59.79C82.0662 59.79 82.3382 59.858 82.5742 59.994C82.8102 60.13 82.9942 60.322 83.1262 60.57C83.2622 60.814 83.3302 61.1 83.3302 61.428C83.3302 61.452 83.3282 61.48 83.3242 61.512C83.3242 61.544 83.3222 61.574 83.3182 61.602H80.6122V61.188H83.0182L82.7842 61.332C82.7882 61.128 82.7462 60.946 82.6582 60.786C82.5702 60.626 82.4482 60.502 82.2922 60.414C82.1402 60.322 81.9622 60.276 81.7582 60.276C81.5582 60.276 81.3802 60.322 81.2242 60.414C81.0682 60.502 80.9462 60.628 80.8582 60.792C80.7702 60.952 80.7262 61.136 80.7262 61.344V61.44C80.7262 61.652 80.7742 61.842 80.8702 62.01C80.9702 62.174 81.1082 62.302 81.2842 62.394C81.4602 62.486 81.6622 62.532 81.8902 62.532C82.0782 62.532 82.2482 62.5 82.4002 62.436C82.5562 62.372 82.6922 62.276 82.8082 62.148L83.1262 62.52C82.9822 62.688 82.8022 62.816 82.5862 62.904C82.3742 62.992 82.1362 63.036 81.8722 63.036ZM88.108 59.79C88.364 59.79 88.59 59.84 88.786 59.94C88.982 60.04 89.134 60.192 89.242 60.396C89.354 60.6 89.41 60.858 89.41 61.17V63H88.834V61.236C88.834 60.928 88.762 60.696 88.618 60.54C88.474 60.384 88.272 60.306 88.012 60.306C87.82 60.306 87.652 60.346 87.508 60.426C87.364 60.506 87.252 60.624 87.172 60.78C87.096 60.936 87.058 61.13 87.058 61.362V63H86.482V61.236C86.482 60.928 86.41 60.696 86.266 60.54C86.126 60.384 85.924 60.306 85.66 60.306C85.472 60.306 85.306 60.346 85.162 60.426C85.018 60.506 84.906 60.624 84.826 60.78C84.746 60.936 84.706 61.13 84.706 61.362V63H84.13V59.82H84.682V60.666L84.592 60.45C84.692 60.242 84.846 60.08 85.054 59.964C85.262 59.848 85.504 59.79 85.78 59.79C86.084 59.79 86.346 59.866 86.566 60.018C86.786 60.166 86.93 60.392 86.998 60.696L86.764 60.6C86.86 60.356 87.028 60.16 87.268 60.012C87.508 59.864 87.788 59.79 88.108 59.79ZM90.4698 63V59.82H91.0458V63H90.4698ZM90.7578 59.208C90.6458 59.208 90.5518 59.172 90.4758 59.1C90.4038 59.028 90.3678 58.94 90.3678 58.836C90.3678 58.728 90.4038 58.638 90.4758 58.566C90.5518 58.494 90.6458 58.458 90.7578 58.458C90.8698 58.458 90.9618 58.494 91.0338 58.566C91.1098 58.634 91.1478 58.72 91.1478 58.824C91.1478 58.932 91.1118 59.024 91.0398 59.1C90.9678 59.172 90.8738 59.208 90.7578 59.208ZM93.4836 63.036C93.2116 63.036 92.9716 62.986 92.7636 62.886C92.5596 62.786 92.3996 62.634 92.2836 62.43C92.1716 62.222 92.1156 61.962 92.1156 61.65V59.82H92.6916V61.584C92.6916 61.896 92.7656 62.13 92.9136 62.286C93.0656 62.442 93.2776 62.52 93.5496 62.52C93.7496 62.52 93.9236 62.48 94.0716 62.4C94.2196 62.316 94.3336 62.196 94.4136 62.04C94.4936 61.88 94.5336 61.688 94.5336 61.464V59.82H95.1096V63H94.5636V62.142L94.6536 62.37C94.5496 62.582 94.3936 62.746 94.1856 62.862C93.9776 62.978 93.7436 63.036 93.4836 63.036ZM100.184 59.79C100.44 59.79 100.666 59.84 100.862 59.94C101.058 60.04 101.21 60.192 101.318 60.396C101.43 60.6 101.486 60.858 101.486 61.17V63H100.91V61.236C100.91 60.928 100.838 60.696 100.694 60.54C100.55 60.384 100.348 60.306 100.088 60.306C99.8962 60.306 99.7282 60.346 99.5842 60.426C99.4402 60.506 99.3282 60.624 99.2482 60.78C99.1722 60.936 99.1342 61.13 99.1342 61.362V63H98.5582V61.236C98.5582 60.928 98.4862 60.696 98.3422 60.54C98.2022 60.384 98.0002 60.306 97.7362 60.306C97.5482 60.306 97.3822 60.346 97.2382 60.426C97.0942 60.506 96.9822 60.624 96.9022 60.78C96.8222 60.936 96.7822 61.13 96.7822 61.362V63H96.2062V59.82H96.7582V60.666L96.6682 60.45C96.7682 60.242 96.9222 60.08 97.1302 59.964C97.3382 59.848 97.5802 59.79 97.8562 59.79C98.1602 59.79 98.4222 59.866 98.6422 60.018C98.8622 60.166 99.0062 60.392 99.0742 60.696L98.8402 60.6C98.9362 60.356 99.1042 60.16 99.3442 60.012C99.5842 59.864 99.8642 59.79 100.184 59.79Z" fill="#F37800"/>
<path d="M114.133 75.0718H112.171V74.5796H114.133V75.0718ZM110.207 75.0718H108.242V74.5796H110.207V75.0718ZM106.28 75.0718H104.319V74.5796H106.28V75.0718ZM102.361 75.0718H100.396V74.5796H102.351L102.361 75.0718ZM98.4311 75.0718H96.4696V74.5796H98.4311V75.0718ZM94.5112 75.0718H92.5464V74.5796H94.5112V75.0718ZM90.5817 75.0718H88.6234V74.5796H90.569L90.5817 75.0718ZM86.6618 75.0718H84.6971V74.5796H86.6618V75.0718ZM82.7324 75.0718H80.7708V74.5796H82.7324V75.0718ZM78.8093 75.0718H76.8509V74.5796H78.8093V75.0718ZM74.8862 75.0718H72.9215V74.5796H74.8862V75.0718ZM70.9599 75.0718H69.0016V74.5796H70.9599V75.0718ZM67.0368 75.0718H65.0721V74.5796H67.0368V75.0718ZM63.1138 75.0718H61.1522V74.5796H63.1138V75.0718ZM59.1875 75.0718H57.226V74.5796H59.1875V75.0718ZM55.2612 75.0718H53.3124V74.5796H55.2708L55.2612 75.0718ZM51.3382 75.0718H49.3766V74.5796H51.3382V75.0718ZM47.4119 75.0718H45.4503V74.5796H47.4119V75.0718ZM43.492 75.0718H41.5304V74.5796H43.4952L43.492 75.0718ZM39.5625 75.0718H37.6042V74.5796H39.5625V75.0718ZM35.6426 75.0718H33.6779V74.5796H35.6426V75.0718ZM31.7164 75.0718H29.7484V74.5796H31.71L31.7164 75.0718ZM27.7901 75.0718H25.8317V74.5796H27.7901V75.0718ZM23.867 75.0718H21.9023V74.5796H23.867V75.0718ZM19.9407 75.0718H17.9824V74.5796H19.9407V75.0718ZM16.0176 75.0718H14.0529V74.5796H16.0176V75.0718ZM12.0946 75.0718H10.133V74.5796H12.0946V75.0718ZM8.16827 75.0718H6.20671V74.5796H8.16827V75.0718ZM4.49355 74.8288H4V72.8568H4.49355V74.8288ZM115.684 74.1704H115.197V72.2016H115.684V74.1704ZM4.49355 70.8912H4V68.9192H4.49355V70.8912ZM115.684 70.236H115.197V68.264H115.684V70.236ZM4.49355 66.9504H4V64.9816H4.49355V66.9504ZM115.684 66.2952H115.197V64.3296H115.684V66.2952ZM4.49355 63.016H4V61.044H4.49355V63.016ZM115.684 62.3608H115.197V60.3888H115.684V62.3608ZM4.49355 59.072H4V57.1064H4.49355V59.072ZM115.684 58.4328H115.197V56.4639H115.684V58.4328ZM4.49355 55.1248H4V53.1528H4.49355V55.1248ZM115.684 54.4855H115.197V52.5167H115.684V54.4855ZM4.49355 51.1935H4V49.2247H4.49355V51.1935ZM115.684 50.5383H115.197V48.5663H115.684V50.5383ZM4.49355 47.2559H4V45.2839H4.49355V47.2559ZM115.684 46.5975H115.197V44.6319H115.684V46.5975ZM4.49355 43.3151H4V41.3463H4.49355V43.3151ZM115.684 42.6599H115.197V40.6879H115.684V42.6599ZM4.49355 39.3743H4V37.4087H4.49355V39.3743ZM115.684 38.7351H115.197V36.7662H115.684V38.7351ZM4.49355 35.4367H4V33.4647H4.49355V35.4367ZM115.684 34.7974H115.197V32.8254H115.684V34.7974ZM4.49355 31.515H4V29.5462H4.49355V31.515ZM115.684 30.8342H115.197V28.8654H115.684V30.8342ZM4.49355 27.5518H4V25.5798H4.49355V27.5518ZM115.684 26.8966H115.197V24.9278H115.684V26.8966ZM4.49355 23.6142H4V21.6454H4.49355V23.6142ZM115.684 22.9558H115.197V20.987H115.684V22.9558ZM4.49355 19.6766H4V17.7046H4.49355V19.6766ZM115.684 19.0214H115.197V17.0494H115.684V19.0214ZM4.49355 15.7358H4V13.767H4.49355V15.7358ZM115.684 15.0774H115.197V13.1117H115.684V15.0774ZM4.49355 11.7981H4V9.82614H4.49355V11.7981ZM115.684 11.1589H115.197V9.18691H115.684V11.1589ZM4.49355 7.87011H4V5.9045H4.49355V7.87011ZM115.684 7.21491H115.197V5.2493H115.684V7.21491ZM113.477 5.4922H111.515V5H113.477V5.4922ZM109.554 5.4922H107.592V5H109.554V5.4922ZM105.628 5.4922H103.666V5H105.628V5.4922ZM101.708 5.4922H99.743V5H101.714L101.708 5.4922ZM97.7783 5.4922H95.8199V5H97.7783V5.4922ZM93.8552 5.4922H91.8937V5H93.8552V5.4922ZM89.9289 5.4922H87.9674V5H89.9321L89.9289 5.4922ZM86.0059 5.4922H84.0443V5H86.0059V5.4922ZM82.0828 5.4922H80.1181V5H82.0828V5.4922ZM78.1565 5.4922H76.1981V5H78.1501L78.1565 5.4922ZM74.2334 5.4922H72.2687V5H74.2334V5.4922ZM70.3103 5.4922H68.3488V5H70.3103V5.4922ZM66.3841 5.4922H64.4193V5H66.3841V5.4922ZM62.461 5.4922H60.4994V5H62.461V5.4922ZM58.5347 5.4922H56.5732V5H58.5347V5.4922ZM54.6084 5.4922H52.6469V5H54.6084V5.4922ZM50.6885 5.4922H48.7238V5H50.6885V5.4922ZM46.7591 5.4922H44.8007V5H46.7591V5.4922ZM42.8392 5.4922H40.8744V5H42.8392V5.4922ZM38.9097 5.4922H36.9514V5H38.9097V5.4922ZM34.9898 5.4922H33.0251V5H34.9898V5.4922ZM31.0636 5.4922H29.1116V5H31.0763L31.0636 5.4922ZM27.1373 5.4922H25.1789V5H27.1373V5.4922ZM23.2142 5.4922H21.2495V5H23.2142V5.4922ZM19.2911 5.4922H17.3296V5H19.2911V5.4922ZM15.3648 5.4922H13.4001V5H15.3648V5.4922ZM11.4418 5.4922H9.48021V5H11.4418V5.4922ZM7.5155 5.4922H5.54758V5H7.50913L7.5155 5.4922Z" fill="#F37800"/>
<defs>
<radialGradient id="paint0_radial_686_19011" cx="0" cy="0" r="1" gradientUnits="userSpaceOnUse" gradientTransform="translate(27.9679 -32.6735) scale(100.078 100.448)">
<stop stop-color="#5C5C5C"/>
<stop offset="0.52" stop-color="#3C3C3C"/>
<stop offset="1" stop-color="#242424"/>
</radialGradient>
<linearGradient id="paint1_linear_686_19011" x1="60.0277" y1="-5.21599" x2="60.0277" y2="81.4852" gradientUnits="userSpaceOnUse">
<stop stop-color="#363431"/>
<stop offset="1"/>
</linearGradient>
<linearGradient id="paint2_linear_686_19011" x1="60.031" y1="-3.66672" x2="60.031" y2="80.8611" gradientUnits="userSpaceOnUse">
<stop stop-color="#595151"/>
<stop offset="0.02" stop-color="#574F4F"/>
<stop offset="0.68" stop-color="#181D16"/>
<stop offset="1" stop-color="#000900"/>
</linearGradient>
</defs>
</svg>
