<svg width="16" height="16" viewBox="0 0 16 16" fill="none" xmlns="http://www.w3.org/2000/svg">
<path d="M8 2L8.95346 5.54121C9.06981 5.97333 9.12799 6.1894 9.24282 6.36603C9.34442 6.52233 9.47767 6.65558 9.63397 6.75718C9.8106 6.87201 10.0267 6.93019 10.4588 7.04654L14 8L10.4588 8.95346C10.0267 9.06981 9.8106 9.12799 9.63397 9.24282C9.47767 9.34442 9.34442 9.47767 9.24282 9.63397C9.12799 9.8106 9.06981 10.0267 8.95346 10.4588L8 14L7.04654 10.4588C6.93019 10.0267 6.87201 9.8106 6.75718 9.63397C6.65558 9.47767 6.52233 9.34442 6.36603 9.24282C6.1894 9.12799 5.97333 9.06981 5.54121 8.95346L2 8L5.54121 7.04654C5.97333 6.93019 6.1894 6.87201 6.36603 6.75718C6.52233 6.65558 6.65558 6.52233 6.75718 6.36603C6.87201 6.1894 6.93019 5.97333 7.04654 5.54121L8 2Z" stroke="#FFBF00" stroke-width="2" stroke-linecap="round" stroke-linejoin="round"/>
</svg>