<svg width="18" height="18" viewBox="0 0 18 18" fill="none" xmlns="http://www.w3.org/2000/svg">
<g clip-path="url(#clip0_753_11137)">
<g filter="url(#filter0_d_753_11137)">
<path d="M8.87422 13.3945L4.37422 15.1172C4.1668 15.1945 3.94883 15.0363 3.95938 14.8148L4.20547 10.0019C4.20899 9.9281 4.18438 9.85427 4.13868 9.79451L1.10821 6.04685C0.967583 5.87459 1.05196 5.61794 1.26641 5.55818L5.9211 4.30662C5.99493 4.28552 6.05821 4.23982 6.09688 4.17654L8.72657 0.140601C8.8461 -0.0457275 9.12032 -0.0457275 9.23985 0.140601L11.8695 4.18005C11.9117 4.24333 11.975 4.28904 12.0453 4.31013L16.7 5.56169C16.9145 5.61794 16.9988 5.8781 16.8582 6.05037L13.8313 9.79802C13.7856 9.85779 13.7609 9.93162 13.7645 10.0054L14.0106 14.8183C14.0211 15.0398 13.8031 15.198 13.5957 15.1207L9.09571 13.398C9.02188 13.3699 8.94454 13.3699 8.87422 13.3945Z" fill="#F3C009"/>
</g>
<path d="M16.0337 1.81755L14.5923 0.37614C14.5501 0.333953 14.4939 0.316375 14.4376 0.323406C14.3814 0.330437 14.3286 0.365594 14.3005 0.414812L12.8134 3.34333C12.7712 3.41716 12.7853 3.50505 12.845 3.56481C12.8802 3.59997 12.9294 3.61755 12.9751 3.61755C13.0067 3.61755 13.0384 3.61052 13.0665 3.59294L15.9915 2.10934C16.0407 2.08122 16.0759 2.032 16.0829 1.97223C16.0935 1.91598 16.0724 1.85973 16.0337 1.81755Z" fill="#F3C009"/>
<path d="M5.2433 3.34687L3.75619 0.418352C3.72807 0.369134 3.67885 0.333977 3.61908 0.326946C3.56283 0.319915 3.50307 0.337493 3.4644 0.379681L2.02299 1.82109C1.9808 1.86327 1.96323 1.91952 1.97026 1.97577C1.97729 2.03202 2.01244 2.08476 2.06166 2.11288L4.99018 3.59999C5.0183 3.61757 5.04994 3.6246 5.08158 3.6246C5.1308 3.6246 5.17651 3.60702 5.21166 3.57187C5.27143 3.50859 5.28198 3.41718 5.2433 3.34687Z" fill="#F3C009"/>
<path d="M10.1892 17.761L9.1697 14.6391C9.16267 14.6074 9.14509 14.5793 9.124 14.5582C9.08884 14.5231 9.04314 14.5055 8.99392 14.5055C8.90954 14.5055 8.83923 14.5617 8.81462 14.6426L7.79509 17.7645C7.78103 17.8207 7.79157 17.8805 7.82673 17.9262C7.86189 17.9719 7.91462 18 7.97439 18H10.0099C10.0662 18 10.1224 17.9719 10.1576 17.9262C10.1963 17.877 10.2068 17.8172 10.1892 17.761Z" fill="#F3C009"/>
</g>
<defs>
<filter id="filter0_d_753_11137" x="-1.96094" y="-2.99915" width="21.8906" height="21.1398" filterUnits="userSpaceOnUse" color-interpolation-filters="sRGB">
<feFlood flood-opacity="0" result="BackgroundImageFix"/>
<feColorMatrix in="SourceAlpha" type="matrix" values="0 0 0 0 0 0 0 0 0 0 0 0 0 0 0 0 0 0 127 0" result="hardAlpha"/>
<feOffset/>
<feGaussianBlur stdDeviation="1.5"/>
<feComposite in2="hardAlpha" operator="out"/>
<feColorMatrix type="matrix" values="0 0 0 0 0.952941 0 0 0 0 0.694118 0 0 0 0 0.0352941 0 0 0 1 0"/>
<feBlend mode="normal" in2="BackgroundImageFix" result="effect1_dropShadow_753_11137"/>
<feBlend mode="normal" in="SourceGraphic" in2="effect1_dropShadow_753_11137" result="shape"/>
</filter>
<clipPath id="clip0_753_11137">
<rect width="18" height="18" fill="white"/>
</clipPath>
</defs>
</svg>
