<svg xmlns="http://www.w3.org/2000/svg" width="14" height="14" viewBox="0 0 14 14" fill="none">
  <path d="M7 1L7.95346 4.54121C8.06981 4.97333 8.12799 5.1894 8.24282 5.36603C8.34442 5.52233 8.47767 5.65558 8.63397 5.75718C8.8106 5.87201 9.02667 5.93019 9.45879 6.04654L13 7L9.45879 7.95346C9.02667 8.06981 8.8106 8.12799 8.63397 8.24282C8.47767 8.34442 8.34442 8.47767 8.24282 8.63397C8.12799 8.8106 8.06981 9.02667 7.95346 9.45879L7 13L6.04654 9.45879C5.93019 9.02667 5.87201 8.8106 5.75718 8.63397C5.65558 8.47767 5.52233 8.34442 5.36603 8.24282C5.1894 8.12799 4.97333 8.06981 4.54121 7.95346L1 7L4.54121 6.04654C4.97333 5.93019 5.1894 5.87201 5.36603 5.75718C5.52233 5.65558 5.65558 5.52233 5.75718 5.36603C5.87201 5.1894 5.93019 4.97333 6.04654 4.54121L7 1Z" stroke="#1BF5FF" stroke-width="2" stroke-linecap="round" stroke-linejoin="round"/>
</svg>