<svg width="16" height="16" viewBox="0 0 16 16" fill="none" xmlns="http://www.w3.org/2000/svg">
<g id="fast-forward-svgrepo-com (1)" clip-path="url(#clip0_738_915)">
<g id="Group">
<g id="Group_2">
<path id="Vector" d="M8.00159 15.6813C12.2438 15.6813 15.6829 12.2423 15.6829 8C15.6829 3.75775 12.2438 0.318726 8.00159 0.318726C3.75934 0.318726 0.320312 3.75775 0.320312 8C0.320312 12.2423 3.75934 15.6813 8.00159 15.6813Z" fill="#413240"/>
<path id="Vector_2" d="M8 16C5.86311 16 3.85415 15.1679 2.34317 13.6568C0.832127 12.1458 0 10.1369 0 8C0 5.86311 0.832127 3.85415 2.34317 2.34317C3.85415 0.832127 5.86311 0 8 0C10.1369 0 12.1458 0.832127 13.6568 2.34317C15.1679 3.85415 16 5.86311 16 8C16 10.1369 15.1679 12.1458 13.6568 13.6568C12.1458 15.1679 10.1369 16 8 16ZM8 0.63745C3.94027 0.63745 0.63745 3.94027 0.63745 8C0.63745 12.0597 3.94027 15.3626 8 15.3626C12.0597 15.3626 15.3626 12.0597 15.3626 8C15.3626 3.94027 12.0597 0.63745 8 0.63745Z" fill="#FFC808"/>
</g>
<g id="Group_3">
<path id="Vector_3" d="M13.7802 6.02393C13.6534 6.02393 13.5336 5.94779 13.4839 5.82285C12.8729 4.28577 11.6354 3.06856 10.0888 2.48331C9.92417 2.42103 9.84121 2.23703 9.90355 2.07241C9.96583 1.90782 10.1498 1.82476 10.3145 1.88714C12.0281 2.53562 13.3992 3.8843 14.0763 5.58738C14.1413 5.75098 14.0614 5.93628 13.8978 6.0013C13.8592 6.01663 13.8194 6.02393 13.7802 6.02393Z" fill="#FFC808"/>
</g>
<g id="Group_4">
<path id="Vector_4" d="M9.05056 2.19224C9.03277 2.19224 9.01476 2.19075 8.99666 2.18762C8.66927 2.13188 8.33342 2.10358 7.99841 2.10358C7.82241 2.10358 7.67969 1.96085 7.67969 1.78485C7.67969 1.60885 7.82241 1.46613 7.99841 1.46613C8.36919 1.46613 8.74107 1.49746 9.10372 1.55929C9.27723 1.58887 9.39395 1.75349 9.36437 1.927C9.33789 2.08241 9.20307 2.19224 9.05056 2.19224Z" fill="#FFC808"/>
</g>
</g>
<path id="Vector_5" d="M8.142 15.499C11.4288 15.3029 14.1807 13.1226 15.2168 10.1393L15.75 8L15.25 5.75L14.5 4L13.5 2.5L11 4.75L8.5 7L4 11.357L2.25 13L5 15L8.142 15.499Z" fill="#FFC808" fill-opacity="0.15"/>
<g id="Group 1261155210">
<g id="Group_5">
<path id="Vector_6" d="M9.7608 5.84449L7.83594 5.83805L8.12785 4L10.0527 4.00644L9.7608 5.84449Z" fill="#FFC808"/>
<path id="Vector_7" d="M7.71001 6.63525L7.70952 6.63833L6.79191 6.63525L6.5 8.47331L7.41761 8.47638L6.88269 11.8446L8.80755 11.851L9.63487 6.64172L7.71001 6.63525Z" fill="#FFC808"/>
</g>
<path id="Vector_8" d="M10.0501 4.00644L8.27344 4.00049V5.83952L9.75821 5.84449L10.0501 4.00644Z" fill="#CEA000"/>
<path id="Vector_9" d="M9.6316 6.64174L8.27344 6.63721V11.8493L8.80428 11.8511L9.6316 6.64174Z" fill="#CEA000"/>
</g>
</g>
<defs>
<clipPath id="clip0_738_915">
<rect width="16" height="16" fill="white"/>
</clipPath>
</defs>
</svg>
