<svg width="167" height="28" viewBox="0 0 167 28" fill="none" xmlns="http://www.w3.org/2000/svg">
<rect width="167" height="28" rx="6" fill="#006776"/>
<mask id="mask0_753_11142" style="mask-type:alpha" maskUnits="userSpaceOnUse" x="0" y="0" width="167" height="28">
<rect width="167" height="28" rx="6" fill="#006776"/>
</mask>
<g mask="url(#mask0_753_11142)">
<path d="M3.91429 14.5872C3.6423 14.7443 3.21328 14.6293 3.05625 14.3573C2.89922 14.0853 3.01418 13.6563 3.28616 13.4993C3.55815 13.3423 3.98717 13.4572 4.1442 13.7292C4.30124 14.0012 4.18628 14.4302 3.91429 14.5872Z" fill="#F3BF09"/>
<path d="M10.3635 25.7364C10.0915 25.8934 9.87695 25.836 9.71992 25.564C9.56289 25.292 9.62037 25.0775 9.89236 24.9205C10.1643 24.7634 10.3788 24.8209 10.5359 25.0929C10.6144 25.2289 10.6354 25.5794 10.3635 25.7364Z" fill="#F3BF09"/>
<path d="M36.4338 25.3702C36.2978 25.4487 35.9473 25.4698 35.7902 25.1978C35.7117 25.0618 35.6907 24.7113 35.9627 24.5542C36.0987 24.4757 36.4492 24.4547 36.6062 24.7267C36.7632 24.9987 36.5698 25.2917 36.4338 25.3702Z" fill="#F3BF09"/>
<path d="M39.8791 8.69552C39.6071 8.85255 39.3926 8.79507 39.2355 8.52309C39.0785 8.2511 39.136 8.03659 39.408 7.87956C39.68 7.72253 39.8945 7.78 40.0515 8.05199C40.266 8.10947 40.1511 8.53849 39.8791 8.69552Z" fill="#F3BF09"/>
<path d="M46.2385 19.7102C46.4638 19.5801 46.541 19.292 46.4109 19.0666C46.2808 18.8413 45.9927 18.7641 45.7674 18.8942C45.542 19.0243 45.4648 19.3124 45.5949 19.5377C45.725 19.7631 46.0131 19.8403 46.2385 19.7102Z" fill="#F3BF09"/>
<path d="M49.8009 2.96676C49.529 3.1238 49.3145 3.06631 49.1574 2.79433C49.0004 2.52234 49.0579 2.30784 49.3299 2.15081C49.6018 1.99377 49.7378 1.91525 49.8949 2.18724C50.0519 2.45923 49.9369 2.88825 49.8009 2.96676Z" fill="#F3BF09"/>
<path d="M56.1603 13.9814C56.0243 14.0599 55.6738 14.081 55.5168 13.809C55.4383 13.673 55.4172 13.3225 55.6892 13.1655C55.8252 13.0869 56.1757 13.0659 56.3328 13.3379C56.3538 13.6884 56.2963 13.9029 56.1603 13.9814Z" fill="#F3BF09"/>
<path d="M62.5157 24.9968C62.666 24.9101 62.7174 24.718 62.6307 24.5678C62.544 24.4176 62.3519 24.3661 62.2017 24.4528C62.0515 24.5396 62 24.7316 62.0867 24.8819C62.1734 25.0321 62.3655 25.0835 62.5157 24.9968Z" fill="#F3BF09"/>
<path d="M65.9494 8.32919C66.1747 8.1991 66.2519 7.91098 66.1218 7.68566C65.9917 7.46033 65.7036 7.38314 65.4783 7.51323C65.253 7.64332 65.1758 7.93143 65.3059 8.15675C65.4359 8.38208 65.7241 8.45928 65.9494 8.32919Z" fill="#F3BF09"/>
<path d="M72.3048 19.3447C72.455 19.258 72.5065 19.0659 72.4198 18.9157C72.333 18.7655 72.141 18.714 71.9907 18.8007C71.8405 18.8875 71.7891 19.0795 71.8758 19.2298C71.9625 19.38 72.1546 19.4314 72.3048 19.3447Z" fill="#F3BF09"/>
<path d="M75.7306 2.67905C75.5946 2.75756 75.2441 2.77859 75.0871 2.50661C75.0086 2.37061 74.9875 2.02012 75.2595 1.86309C75.3955 1.78457 75.746 1.76353 75.9031 2.03551C76.0601 2.3075 76.0026 2.52202 75.7306 2.67905Z" fill="#F3BF09"/>
<path d="M82.086 13.6944C82.2363 13.6077 82.2877 13.4156 82.201 13.2654C82.1143 13.1152 81.9222 13.0637 81.772 13.1505C81.6218 13.2372 81.5703 13.4293 81.657 13.5795C81.7438 13.7297 81.9358 13.7812 82.086 13.6944Z" fill="#F3BF09"/>
<path d="M88.5274 24.8469C88.3914 24.9254 88.3129 24.7894 88.3129 24.7894L88.3704 24.5749L88.5849 24.6324C88.5849 24.6324 88.6634 24.7684 88.5274 24.8469Z" fill="#F3BF09"/>
<path d="M92.0314 7.95591C92.1816 7.86918 92.2331 7.67711 92.1463 7.5269C92.0596 7.37668 91.8675 7.32521 91.7173 7.41193C91.5671 7.49866 91.5156 7.69075 91.6023 7.84096C91.6891 7.99118 91.8812 8.04264 92.0314 7.95591Z" fill="#F3BF09"/>
<path d="M98.4727 19.1084C98.3367 19.1869 98.2582 19.0509 98.2582 19.0509L98.3157 18.8364C98.4517 18.7579 98.5302 18.8939 98.5302 18.8939L98.4727 19.1084Z" fill="#F3BF09"/>
<path d="M101.813 2.30577C101.677 2.38429 101.462 2.32681 101.384 2.19082C101.305 2.05482 101.363 1.84031 101.499 1.76179C101.635 1.68328 101.849 1.74076 101.928 1.87675C102.006 2.01275 101.949 2.22725 101.813 2.30577Z" fill="#F3BF09"/>
<path d="M108.254 13.4582C108.118 13.5368 108.039 13.4008 108.039 13.4008L108.097 13.1863C108.233 13.1077 108.311 13.2437 108.311 13.2437C108.311 13.2437 108.39 13.3797 108.254 13.4582Z" fill="#F3BF09"/>
<path d="M114.608 24.475C114.472 24.5535 114.608 24.475 114.608 24.475C114.393 24.4175 114.529 24.339 114.529 24.339C114.529 24.339 114.665 24.2605 114.608 24.475C114.744 24.3965 114.608 24.475 114.608 24.475Z" fill="#F3BF09"/>
<path d="M117.965 7.67039C118.04 7.62703 118.066 7.53099 118.022 7.45588C117.979 7.38078 117.883 7.35504 117.808 7.39841C117.733 7.44177 117.707 7.53781 117.75 7.61292C117.794 7.68803 117.89 7.71375 117.965 7.67039Z" fill="#F3BF09"/>
<path d="M124.397 18.8228C124.182 18.7653 124.318 18.6868 124.318 18.6868C124.454 18.6083 124.454 18.6083 124.397 18.8228C124.533 18.7443 124.533 18.7443 124.397 18.8228Z" fill="#F3BF09"/>
<path d="M127.895 1.94176C127.97 1.8984 127.995 1.80236 127.952 1.72725C127.909 1.65215 127.813 1.62641 127.738 1.66978C127.662 1.71314 127.637 1.80918 127.68 1.88428C127.723 1.95939 127.819 1.98512 127.895 1.94176Z" fill="#F3BF09"/>
<path d="M134.326 13.0941C134.19 13.1727 134.326 13.0941 134.326 13.0941C134.112 13.0367 134.248 12.9581 134.248 12.9581C134.248 12.9581 134.384 12.8796 134.326 13.0941C134.462 13.0156 134.326 13.0941 134.326 13.0941Z" fill="#F3BF09"/>
<path d="M144.123 7.4341C143.909 7.37663 144.045 7.29811 144.045 7.29811C144.181 7.2196 144.181 7.21959 144.123 7.4341C144.259 7.35559 144.259 7.35559 144.123 7.4341Z" fill="#F3BF09"/>
<path d="M154.048 1.70418C153.912 1.7827 153.912 1.7827 154.048 1.70418C153.833 1.6467 153.969 1.56819 153.969 1.56819C153.969 1.56819 153.969 1.56819 154.048 1.70418Z" fill="#F3BF09"/>
</g>
</svg>
