<svg width="703" height="59" viewBox="0 0 703 59" fill="none" xmlns="http://www.w3.org/2000/svg">
<rect width="703" height="59" rx="6" fill="#0C3C88"/>
<mask id="mask0_1996_30038" style="mask-type:alpha" maskUnits="userSpaceOnUse" x="0" y="0" width="703" height="59">
<path d="M0 6C0 2.68629 2.68629 0 6 0H697C700.314 0 703 2.68629 703 6V53C703 56.3137 700.314 59 697 59H6C2.68629 59 0 56.3137 0 53V6Z" fill="#386FC8"/>
</mask>
<g mask="url(#mask0_1996_30038)">
<path d="M437.603 56.3719C437.249 56.7433 436.524 56.7612 436.153 56.4077C435.782 56.0542 435.764 55.3293 436.117 54.9579C436.471 54.5865 437.196 54.5686 437.567 54.9221C437.938 55.2756 437.956 56.0005 437.603 56.3719Z" fill="#F3BF09"/>
<path d="M395.695 -0.497557C395.106 0.121443 394.139 0.1453 393.52 -0.443877C392.901 -1.03305 392.878 -1.99959 393.467 -2.61859C394.056 -3.23759 395.022 -3.26145 395.641 -2.67228C396.378 -2.2069 396.402 -1.24036 395.695 -0.497557Z" fill="#F3BF09"/>
<path d="M405.844 9.16504C405.254 9.78404 404.288 9.8079 403.669 9.21872C403.05 8.62954 403.026 7.663 403.615 7.044C404.204 6.425 405.171 6.40115 405.79 6.99032C406.409 7.5795 406.433 8.54604 405.844 9.16504Z" fill="#F3BF09"/>
<path d="M415.873 18.7099C416.393 18.1629 416.372 17.2975 415.825 16.7768C415.278 16.2562 414.413 16.2776 413.892 16.8245C413.371 17.3715 413.393 18.237 413.94 18.7576C414.487 19.2783 415.352 19.2569 415.873 18.7099Z" fill="#F3BF09"/>
<path d="M425.898 28.2562C425.427 28.7514 424.702 28.7693 424.206 28.298C423.711 27.8267 423.693 27.1017 424.165 26.6065C424.636 26.1113 425.361 26.0935 425.856 26.5648C426.469 26.9123 426.369 27.761 425.898 28.2562Z" fill="#F3BF09"/>
<path d="M436.05 37.9179C435.579 38.4131 434.854 38.431 434.359 37.9596C433.864 37.4883 433.846 36.7634 434.317 36.2682C434.788 35.773 435.513 35.7551 436.008 36.2264C436.504 36.6978 436.522 37.4227 436.05 37.9179Z" fill="#F3BF09"/>
<path d="M446.083 47.4627C446.474 47.0525 446.458 46.4034 446.047 46.0129C445.637 45.6224 444.988 45.6385 444.598 46.0487C444.207 46.4589 444.223 47.108 444.633 47.4985C445.044 47.889 445.693 47.873 446.083 47.4627Z" fill="#F3BF09"/>
<path d="M456.23 57.1248C455.876 57.4962 455.393 57.5081 455.021 57.1546C454.65 56.8011 454.638 56.3178 454.992 55.9464C455.345 55.575 455.828 55.5631 456.2 55.9166C456.565 56.0285 456.583 56.7534 456.23 57.1248Z" fill="#F3BF09"/>
<path d="M414.445 0.129395C413.856 0.748395 412.889 0.772253 412.27 0.183076C411.651 -0.4061 411.628 -1.37264 412.217 -1.99164C412.806 -2.61064 413.772 -2.6345 414.391 -2.04532C415.01 -1.45614 415.034 -0.489604 414.445 0.129395Z" fill="#F3BF09"/>
<path d="M424.474 9.67426C424.995 9.12728 424.974 8.26181 424.427 7.74118C423.88 7.22055 423.014 7.24191 422.493 7.7889C421.973 8.33588 421.994 9.20135 422.541 9.72198C423.088 10.2426 423.954 10.2212 424.474 9.67426Z" fill="#F3BF09"/>
<path d="M434.499 19.2206C434.028 19.7158 433.303 19.7337 432.808 19.2623C432.313 18.791 432.295 18.0661 432.766 17.5709C433.238 17.0757 433.963 17.0578 434.458 17.5291C434.953 18.0005 434.971 18.7254 434.499 19.2206Z" fill="#F3BF09"/>
<path d="M444.652 28.8822C444.18 29.3774 443.456 29.3953 442.96 28.924C442.465 28.4526 442.447 27.7277 442.919 27.2325C443.39 26.7373 444.115 26.7194 444.61 27.1908C444.987 27.7859 445.005 28.5108 444.652 28.8822Z" fill="#F3BF09"/>
<path d="M454.685 38.4271C455.075 38.0168 455.059 37.3677 454.649 36.9773C454.239 36.5868 453.59 36.6028 453.199 37.0131C452.809 37.4233 452.825 38.0724 453.235 38.4629C453.645 38.8533 454.294 38.8373 454.685 38.4271Z" fill="#F3BF09"/>
<path d="M464.835 48.0891C464.481 48.4605 463.998 48.4725 463.627 48.119C463.255 47.7655 463.243 47.2822 463.597 46.9108C463.95 46.5394 464.434 46.5275 464.805 46.881C465.053 47.1166 465.188 47.7177 464.835 48.0891Z" fill="#F3BF09"/>
<path d="M474.858 57.6345C474.505 58.0059 474.022 58.0179 473.65 57.6644C473.279 57.3109 473.267 56.8276 473.62 56.4562C473.974 56.0848 474.457 56.0729 474.829 56.4264C475.082 56.9037 475.094 57.3869 474.858 57.6345Z" fill="#F3BF09"/>
<path d="M432.963 0.753852C433.483 0.20687 433.462 -0.658599 432.915 -1.17923C432.368 -1.69986 431.502 -1.6785 430.982 -1.13151C430.461 -0.584532 430.482 0.280942 431.029 0.801571C431.576 1.3222 432.442 1.30083 432.963 0.753852Z" fill="#F3BF09"/>
<path d="M442.988 10.3002C442.516 10.7954 441.791 10.8133 441.296 10.3419C440.801 9.8706 440.783 9.14569 441.255 8.65049C441.726 8.15529 442.451 8.1374 442.946 8.60874C443.441 9.08008 443.459 9.80499 442.988 10.3002Z" fill="#F3BF09"/>
<path d="M453.14 19.9618C452.669 20.457 451.944 20.4749 451.449 20.0036C450.953 19.5322 450.936 18.8073 451.407 18.3121C451.878 17.8169 452.603 17.799 453.098 18.2704C453.594 18.7417 453.611 19.4666 453.14 19.9618Z" fill="#F3BF09"/>
<path d="M463.173 29.5067C463.564 29.0964 463.548 28.4473 463.137 28.0569C462.727 27.6664 462.078 27.6824 461.687 28.0926C461.297 28.5029 461.313 29.152 461.723 29.5425C462.134 29.9329 462.783 29.9169 463.173 29.5067Z" fill="#F3BF09"/>
<path d="M473.319 39.1687C472.966 39.5401 472.483 39.5521 472.111 39.1986C471.74 38.845 471.728 38.3618 472.081 37.9904C472.435 37.619 472.918 37.607 473.29 37.9606C473.537 38.1962 473.673 38.7973 473.319 39.1687Z" fill="#F3BF09"/>
<path d="M483.347 48.7141C482.993 49.0855 482.51 49.0975 482.139 48.744C481.767 48.3905 481.755 47.9072 482.109 47.5358C482.462 47.1644 482.945 47.1525 483.317 47.506C483.688 47.8595 483.7 48.3427 483.347 48.7141Z" fill="#F3BF09"/>
<path d="M493.376 58.259C493.14 58.5066 492.657 58.5185 492.409 58.2829C492.162 58.0472 492.15 57.5639 492.385 57.3163C492.621 57.0687 493.104 57.0568 493.352 57.2925C493.6 57.5281 493.611 58.0114 493.376 58.259Z" fill="#F3BF09"/>
<path d="M451.476 1.3871C451.005 1.8823 450.28 1.90019 449.785 1.42885C449.289 0.957511 449.271 0.232606 449.743 -0.262594C450.214 -0.757794 450.939 -0.775687 451.434 -0.304346C452.047 0.0431957 452.065 0.768103 451.476 1.3871Z" fill="#F3BF09"/>
<path d="M461.628 11.0487C461.157 11.5439 460.432 11.5618 459.937 11.0905C459.442 10.6191 459.424 9.89423 459.895 9.39903C460.367 8.90383 461.091 8.88593 461.587 9.35728C462.082 9.82862 462.1 10.5535 461.628 11.0487Z" fill="#F3BF09"/>
<path d="M471.657 20.5951C472.048 20.1848 472.032 19.5357 471.622 19.1452C471.211 18.7548 470.562 18.7708 470.172 19.181C469.781 19.5913 469.797 20.2404 470.208 20.6308C470.618 21.0213 471.267 21.0053 471.657 20.5951Z" fill="#F3BF09"/>
<path d="M481.808 30.2571C481.454 30.6285 480.971 30.6404 480.599 30.2869C480.228 29.9334 480.216 29.4502 480.57 29.0788C480.923 28.7074 481.406 28.6954 481.778 29.0489C482.143 29.1608 482.161 29.8857 481.808 30.2571Z" fill="#F3BF09"/>
<path d="M491.835 39.8011C491.481 40.1725 490.998 40.1844 490.627 39.8309C490.255 39.4774 490.243 38.9941 490.597 38.6227C490.95 38.2513 491.434 38.2394 491.805 38.5929C492.177 38.9464 492.188 39.4297 491.835 39.8011Z" fill="#F3BF09"/>
<path d="M470.222 2.01698C469.751 2.51218 469.026 2.53008 468.531 2.05874C468.035 1.58739 468.018 0.862486 468.489 0.367286C468.96 -0.127914 469.685 -0.145807 470.18 0.325534C470.676 0.796876 470.693 1.52178 470.222 2.01698Z" fill="#F3BF09"/>
<path d="M480.255 11.5618C479.902 11.9332 479.177 11.9511 478.805 11.5976C478.434 11.2441 478.416 10.5192 478.77 10.1478C479.123 9.77642 479.848 9.75853 480.219 10.112C480.591 10.4655 480.609 11.1904 480.255 11.5618Z" fill="#F3BF09"/>
<path d="M490.401 21.2239C490.048 21.5953 489.565 21.6072 489.193 21.2537C488.822 20.9002 488.81 20.417 489.163 20.0456C489.517 19.6742 490 19.6622 490.372 20.0157C490.619 20.2514 490.755 20.8525 490.401 21.2239Z" fill="#F3BF09"/>
<path d="M500.429 30.7693C500.075 31.1407 499.592 31.1526 499.221 30.7991C498.849 30.4456 498.837 29.9624 499.191 29.591C499.544 29.2196 500.028 29.2076 500.399 29.5611C500.77 29.9146 500.664 30.5217 500.429 30.7693Z" fill="#F3BF09"/>
<path d="M530.639 59.5173C530.521 59.6411 530.162 59.7708 529.914 59.5351C529.791 59.4173 529.661 59.0578 529.896 58.8102C530.014 58.6864 530.374 58.5567 530.621 58.7923C530.869 59.028 530.757 59.3935 530.639 59.5173Z" fill="#F3BF09"/>
<path d="M488.755 2.63607C489.146 2.22583 489.13 1.57673 488.719 1.18626C488.309 0.795787 487.66 0.811804 487.27 1.22204C486.879 1.63228 486.895 2.28139 487.305 2.67186C487.716 3.06233 488.365 3.0463 488.755 2.63607Z" fill="#F3BF09"/>
<path d="M498.901 12.2981C498.548 12.6695 498.065 12.6815 497.693 12.3279C497.322 11.9744 497.31 11.4912 497.663 11.1198C498.017 10.7484 498.5 10.7364 498.872 11.0899C499.237 11.2018 499.255 11.9267 498.901 12.2981Z" fill="#F3BF09"/>
<path d="M508.929 21.8435C508.575 22.2149 508.092 22.2269 507.721 21.8734C507.349 21.5199 507.337 21.0366 507.691 20.6652C508.044 20.2938 508.528 20.2819 508.899 20.6354C509.27 20.9889 509.282 21.4721 508.929 21.8435Z" fill="#F3BF09"/>
<path d="M518.958 31.3884C518.722 31.636 518.239 31.6479 517.991 31.4123C517.744 31.1766 517.732 30.6933 517.967 30.4457C518.203 30.1981 518.686 30.1862 518.934 30.4219C519.182 30.6575 519.194 31.1408 518.958 31.3884Z" fill="#F3BF09"/>
<path d="M529.112 41.0475C528.876 41.2951 528.635 41.3011 528.387 41.0654C528.139 40.8297 528.133 40.5881 528.369 40.3405C528.605 40.0929 528.846 40.0869 529.094 40.3226C529.336 40.3166 529.348 40.7999 529.112 41.0475Z" fill="#F3BF09"/>
<path d="M539.139 50.5915C539.335 50.3863 539.326 50.0618 539.121 49.8666C538.916 49.6713 538.592 49.6793 538.396 49.8845C538.201 50.0896 538.209 50.4141 538.414 50.6094C538.619 50.8046 538.944 50.7966 539.139 50.5915Z" fill="#F3BF09"/>
<path d="M507.495 3.2659C507.142 3.6373 506.658 3.64923 506.287 3.29572C505.916 2.94221 505.904 2.45894 506.257 2.08754C506.611 1.71614 507.094 1.70421 507.465 2.05772C507.713 2.29339 507.849 2.8945 507.495 3.2659Z" fill="#F3BF09"/>
<path d="M517.522 12.8113C517.169 13.1827 516.686 13.1946 516.314 12.8411C515.943 12.4876 515.931 12.0044 516.284 11.633C516.638 11.2616 517.121 11.2496 517.493 11.6031C517.746 12.0804 517.758 12.5637 517.522 12.8113Z" fill="#F3BF09"/>
<path d="M527.552 22.3562C527.316 22.6038 526.833 22.6157 526.585 22.38C526.337 22.1444 526.326 21.6611 526.561 21.4135C526.797 21.1659 527.28 21.154 527.528 21.3896C527.775 21.6253 527.787 22.1086 527.552 22.3562Z" fill="#F3BF09"/>
<path d="M537.706 32.0153C537.47 32.2629 537.228 32.2689 536.981 32.0332C536.733 31.7975 536.727 31.5559 536.963 31.3083C537.199 31.0607 537.316 30.9369 537.564 31.1726C537.812 31.4082 537.824 31.8915 537.706 32.0153Z" fill="#F3BF09"/>
<path d="M547.733 41.5592C547.615 41.683 547.256 41.8128 547.008 41.5771C546.884 41.4593 546.755 41.0998 546.99 40.8522C547.108 40.7284 547.468 40.5987 547.715 40.8343C547.845 41.1938 547.851 41.4354 547.733 41.5592Z" fill="#F3BF09"/>
<path d="M557.762 51.1041C557.892 50.9674 557.887 50.751 557.75 50.6208C557.613 50.4907 557.397 50.496 557.267 50.6328C557.137 50.7695 557.142 50.9859 557.279 51.116C557.416 51.2462 557.632 51.2409 557.762 51.1041Z" fill="#F3BF09"/>
<path d="M526.011 3.89822C525.657 4.26962 525.174 4.28155 524.803 3.92804C524.431 3.57454 524.419 3.09127 524.773 2.71987C525.126 2.34847 525.61 2.33654 525.981 2.69004C526.352 3.04355 526.364 3.52682 526.011 3.89822Z" fill="#F3BF09"/>
<path d="M536.04 13.4431C535.804 13.6907 535.321 13.7026 535.073 13.4669C534.826 13.2313 534.814 12.748 535.049 12.5004C535.285 12.2528 535.768 12.2409 536.016 12.4766C536.264 12.7122 536.276 13.1955 536.04 13.4431Z" fill="#F3BF09"/>
<path d="M546.194 23.1022C545.958 23.3498 545.717 23.3558 545.469 23.1201C545.221 22.8844 545.215 22.6428 545.451 22.3952C545.687 22.1476 545.928 22.1416 546.176 22.3773C546.3 22.4951 546.43 22.8546 546.194 23.1022Z" fill="#F3BF09"/>
<path d="M556.221 32.6462C556.417 32.441 556.409 32.1165 556.203 31.9212C555.998 31.726 555.674 31.734 555.479 31.9391C555.283 32.1443 555.291 32.4688 555.496 32.664C555.702 32.8593 556.026 32.8513 556.221 32.6462Z" fill="#F3BF09"/>
<path d="M566.25 42.191C566.381 42.0543 566.375 41.8379 566.238 41.7078C566.102 41.5776 565.885 41.5829 565.755 41.7197C565.625 41.8564 565.63 42.0728 565.767 42.203C565.904 42.3331 566.12 42.3278 566.25 42.191Z" fill="#F3BF09"/>
<path d="M576.276 51.7374C576.341 51.669 576.338 51.5608 576.27 51.4957C576.201 51.4306 576.093 51.4333 576.028 51.5017C575.963 51.5701 575.966 51.6782 576.034 51.7433C576.102 51.8084 576.211 51.8057 576.276 51.7374Z" fill="#F3BF09"/>
<path d="M544.509 4.53537C544.273 4.78297 543.79 4.7949 543.542 4.55923C543.294 4.32356 543.283 3.84029 543.518 3.59269C543.754 3.34509 544.237 3.33316 544.485 3.56883C544.732 3.8045 544.862 4.16397 544.509 4.53537Z" fill="#F3BF09"/>
<path d="M554.663 14.1945C554.427 14.4421 554.185 14.4481 553.938 14.2124C553.69 13.9767 553.684 13.7351 553.92 13.4875C554.156 13.2399 554.397 13.2339 554.645 13.4696C554.886 13.4636 554.898 13.9469 554.663 14.1945Z" fill="#F3BF09"/>
<path d="M564.69 23.7384C564.572 23.8622 564.213 23.992 563.965 23.7563C563.841 23.6385 563.712 23.279 563.947 23.0314C564.065 22.9076 564.425 22.7779 564.672 23.0135C564.92 23.2492 564.926 23.4908 564.69 23.7384Z" fill="#F3BF09"/>
<path d="M574.719 33.2833C574.849 33.1466 574.844 32.9302 574.707 32.8C574.57 32.6699 574.354 32.6752 574.224 32.812C574.094 32.9487 574.099 33.1651 574.236 33.2952C574.373 33.4254 574.589 33.4201 574.719 33.2833Z" fill="#F3BF09"/>
<path d="M584.873 42.9459C584.755 43.0697 584.632 42.9518 584.632 42.9518L584.626 42.7102L584.867 42.7042C584.867 42.7042 584.991 42.8221 584.873 42.9459Z" fill="#F3BF09"/>
<path d="M594.899 52.4927C594.657 52.4987 594.775 52.3745 594.775 52.3745C594.893 52.2503 594.893 52.2503 594.899 52.4927C595.018 52.3685 595.018 52.3685 594.899 52.4927Z" fill="#F3BF09"/>
<path d="M563.151 5.02702C563.346 4.8219 563.338 4.49735 563.133 4.30212C562.928 4.10688 562.603 4.11488 562.408 4.32C562.213 4.52512 562.221 4.84968 562.426 5.04492C562.631 5.24015 562.956 5.23214 563.151 5.02702Z" fill="#F3BF09"/>
<path d="M573.303 14.6901C573.186 14.8139 572.826 14.9437 572.578 14.708C572.455 14.5902 572.325 14.2307 572.561 13.9831C572.678 13.8593 573.038 13.7295 573.285 13.9652C573.415 14.3247 573.421 14.5663 573.303 14.6901Z" fill="#F3BF09"/>
<path d="M583.332 24.235C583.463 24.0982 583.457 23.8819 583.321 23.7517C583.184 23.6215 582.967 23.6269 582.837 23.7636C582.707 23.9004 582.712 24.1167 582.849 24.2469C582.986 24.3771 583.202 24.3717 583.332 24.235Z" fill="#F3BF09"/>
<path d="M593.487 33.8975C593.369 34.0213 593.245 33.9035 593.245 33.9035L593.239 33.6618C593.357 33.538 593.481 33.6559 593.481 33.6559L593.487 33.8975Z" fill="#F3BF09"/>
<path d="M603.51 43.4435C603.392 43.5677 603.392 43.5677 603.51 43.4435C603.267 43.4495 603.386 43.3253 603.386 43.3253C603.386 43.3253 603.386 43.3253 603.51 43.4435Z" fill="#F3BF09"/>
<path d="M581.788 5.78093C581.67 5.90473 581.31 6.03448 581.063 5.79881C580.939 5.68098 580.809 5.32152 581.045 5.07392C581.163 4.95012 581.522 4.82034 581.77 5.05602C582.017 5.29169 582.023 5.53333 581.788 5.78093Z" fill="#F3BF09"/>
<path d="M591.817 15.3258C591.699 15.4496 591.457 15.4556 591.334 15.3377C591.21 15.2199 591.204 14.9783 591.322 14.8545C591.439 14.7307 591.681 14.7247 591.805 14.8425C591.929 14.9604 591.935 15.202 591.817 15.3258Z" fill="#F3BF09"/>
<path d="M601.971 24.9883C601.853 25.1121 601.729 24.9943 601.729 24.9943L601.723 24.7527C601.841 24.6289 601.965 24.7467 601.965 24.7467C601.965 24.7467 602.089 24.8645 601.971 24.9883Z" fill="#F3BF09"/>
<path d="M611.997 34.5352C611.879 34.6594 611.997 34.5352 611.997 34.5352C611.755 34.5412 611.873 34.417 611.873 34.417C611.873 34.417 611.991 34.2927 611.997 34.5352C612.115 34.411 611.997 34.5352 611.997 34.5352Z" fill="#F3BF09"/>
<path d="M600.297 6.41417C600.179 6.53797 599.938 6.54394 599.814 6.42611C599.69 6.30827 599.684 6.06662 599.802 5.94282C599.92 5.81902 600.162 5.81307 600.285 5.9309C600.409 6.04874 600.533 6.16657 600.297 6.41417Z" fill="#F3BF09"/>
<path d="M610.322 15.9605C610.388 15.8921 610.385 15.7839 610.317 15.7189C610.248 15.6538 610.14 15.6565 610.075 15.7248C610.01 15.7932 610.012 15.9014 610.081 15.9665C610.149 16.0315 610.257 16.0289 610.322 15.9605Z" fill="#F3BF09"/>
<path d="M620.478 25.6236C620.235 25.6296 620.353 25.5053 620.353 25.5053C620.472 25.3811 620.472 25.3811 620.478 25.6236C620.596 25.4994 620.596 25.4994 620.478 25.6236Z" fill="#F3BF09"/>
<path d="M618.924 6.9273C618.989 6.85893 618.986 6.75075 618.918 6.68567C618.85 6.62059 618.742 6.62326 618.676 6.69163C618.611 6.76 618.614 6.86818 618.682 6.93326C618.751 6.99834 618.859 6.99567 618.924 6.9273Z" fill="#F3BF09"/>
<path d="M629.079 16.5904C628.961 16.7146 629.079 16.5904 629.079 16.5904C628.837 16.5964 628.955 16.4721 628.955 16.4721C628.955 16.4721 629.073 16.3479 629.079 16.5904C629.197 16.4661 629.079 16.5904 629.079 16.5904Z" fill="#F3BF09"/>
<path d="M637.571 7.66605C637.329 7.67204 637.447 7.54782 637.447 7.54782C637.565 7.4236 637.565 7.4236 637.571 7.66605C637.69 7.54183 637.69 7.54183 637.571 7.66605Z" fill="#F3BF09"/>
<path d="M9.11597 36.6568C8.71832 36.8864 8.09109 36.7183 7.86151 36.3207C7.63193 35.923 7.8 35.2958 8.19765 35.0662C8.59529 34.8366 9.22252 35.0047 9.45211 35.4024C9.68169 35.8 9.51362 36.4272 9.11597 36.6568Z" fill="#F3BF09"/>
<path d="M18.5313 52.9575C18.1337 53.187 17.82 53.103 17.5905 52.7054C17.3609 52.3077 17.4449 51.9941 17.8426 51.7645C18.2402 51.5349 18.439 51.4201 18.6686 51.8178C18.8982 52.2154 18.7301 52.8427 18.5313 52.9575Z" fill="#F3BF09"/>
<path d="M14.1381 12.2888C13.5417 12.6332 12.9144 12.4651 12.5701 11.8686C12.2257 11.2722 12.3937 10.6449 12.9902 10.3006C13.5867 9.95618 14.2139 10.1242 14.5583 10.7207C14.9027 11.3172 14.7346 11.9444 14.1381 12.2888Z" fill="#F3BF09"/>
<path d="M23.4363 28.3936C23.0386 28.6232 22.4114 28.4552 22.1818 28.0575C21.9522 27.6599 22.1203 27.0326 22.518 26.803C22.9156 26.5735 23.5428 26.7415 23.7724 27.1392C24.002 27.5368 23.8339 28.164 23.4363 28.3936Z" fill="#F3BF09"/>
<path d="M32.8516 44.6938C32.454 44.9234 32.1404 44.8393 31.9108 44.4417C31.6812 44.044 31.7652 43.7304 32.1629 43.5008C32.5605 43.2713 32.8741 43.3553 33.1037 43.7529C33.2185 43.9518 33.2493 44.4642 32.8516 44.6938Z" fill="#F3BF09"/>
<path d="M28.4389 4.02855C27.8424 4.37292 27.2152 4.20485 26.8708 3.60838C26.5265 3.01191 26.6945 2.38467 27.291 2.0403C27.8875 1.69593 28.5147 1.86399 28.8591 2.46047C29.2035 3.05694 29.0354 3.68417 28.4389 4.02855Z" fill="#F3BF09"/>
<path d="M37.7371 20.1334C37.3394 20.363 36.7122 20.1949 36.4826 19.7973C36.253 19.3996 36.4211 18.7724 36.8187 18.5428C37.2164 18.3132 37.8436 18.4813 38.0732 18.8789C38.3028 19.2766 38.3335 19.789 37.7371 20.1334Z" fill="#F3BF09"/>
<path d="M47.1524 36.4335C46.7547 36.6631 46.4411 36.5791 46.2116 36.1814C45.982 35.7838 46.066 35.4702 46.4637 35.2406C46.8613 35.011 47.1749 35.095 47.4045 35.4927C47.7181 35.5767 47.55 36.204 47.1524 36.4335Z" fill="#F3BF09"/>
<path d="M56.4493 52.5371C56.2504 52.6518 55.738 52.6826 55.5084 52.2849C55.3936 52.0861 55.3629 51.5737 55.7605 51.3441C55.9594 51.2293 56.4718 51.1985 56.7014 51.5962C56.931 51.9938 56.8469 52.3075 56.4493 52.5371Z" fill="#F3BF09"/>
<path d="M52.2683 11.7432C51.8707 11.9728 51.2434 11.8048 51.0139 11.4071C50.7843 11.0095 50.9523 10.3822 51.35 10.1526C51.7476 9.92307 52.3749 10.0911 52.6045 10.4888C52.834 10.8864 52.666 11.5137 52.2683 11.7432Z" fill="#F3BF09"/>
<path d="M61.5704 27.8432C61.8998 27.653 62.0127 27.2318 61.8225 26.9024C61.6323 26.5729 61.2111 26.4601 60.8816 26.6503C60.5522 26.8404 60.4393 27.2617 60.6295 27.5911C60.8197 27.9205 61.241 28.0334 61.5704 27.8432Z" fill="#F3BF09"/>
<path d="M70.9805 44.1469C70.7817 44.2617 70.2693 44.2925 70.0397 43.8948C69.9249 43.696 69.8941 43.1835 70.2918 42.954C70.4906 42.8392 71.003 42.8084 71.2326 43.2061C71.2634 43.7185 71.1794 44.0321 70.9805 44.1469Z" fill="#F3BF09"/>
<path d="M66.5808 3.48298C66.1832 3.71257 65.5559 3.54451 65.3264 3.14686C65.0968 2.74921 65.2648 2.12198 65.6625 1.89239C66.0601 1.66281 66.6874 1.83088 66.917 2.22853C67.1465 2.62618 66.9785 3.2534 66.5808 3.48298Z" fill="#F3BF09"/>
<path d="M75.9961 19.7831C75.5985 20.0127 75.2849 19.9287 75.0553 19.531C74.8257 19.1334 74.9098 18.8198 75.3074 18.5902C75.7051 18.3606 76.0187 18.4446 76.2483 18.8423C76.363 19.0411 76.3938 19.5536 75.9961 19.7831Z" fill="#F3BF09"/>
<path d="M85.293 35.8867C85.0942 36.0015 84.5818 36.0322 84.3522 35.6346C84.2374 35.4357 84.2066 34.9233 84.6043 34.6937C84.8031 34.5789 85.3155 34.5482 85.5451 34.9458C85.7747 35.3435 85.6907 35.6571 85.293 35.8867Z" fill="#F3BF09"/>
<path d="M94.5912 51.9915C94.3924 52.1063 94.0788 52.0223 93.964 51.8234C93.8492 51.6246 93.9332 51.311 94.132 51.1962C94.3308 51.0814 94.6445 51.1654 94.7593 51.3643C94.8741 51.5631 94.79 51.8767 94.5912 51.9915Z" fill="#F3BF09"/>
<path d="M108.9 43.7278C108.701 43.8426 108.387 43.7586 108.273 43.5598C108.158 43.3609 108.242 43.0473 108.441 42.9325C108.639 42.8177 108.953 42.9018 109.068 43.1006C109.183 43.2994 109.297 43.4982 108.9 43.7278Z" fill="#F3BF09"/>
<path d="M132.71 51.4591C132.819 51.3957 132.857 51.2553 132.794 51.1455C132.73 51.0357 132.59 50.9981 132.48 51.0615C132.37 51.1249 132.333 51.2653 132.396 51.3751C132.459 51.4849 132.6 51.5225 132.71 51.4591Z" fill="#F3BF09"/>
<path d="M147.042 43.1842C147.152 43.1208 147.189 42.9804 147.126 42.8706C147.062 42.7608 146.922 42.7232 146.812 42.7866C146.702 42.85 146.665 42.9904 146.728 43.1002C146.791 43.21 146.932 43.2476 147.042 43.1842Z" fill="#F3BF09"/>
<path d="M142.953 2.59711C142.754 2.7119 142.242 2.74265 142.012 2.345C141.898 2.14618 141.867 1.63375 142.264 1.40417C142.463 1.28937 142.976 1.2586 143.205 1.65625C143.236 2.16869 143.152 2.48232 142.953 2.59711Z" fill="#F3BF09"/>
<path d="M152.251 18.702C152.053 18.8167 151.739 18.7327 151.624 18.5339C151.509 18.3351 151.593 18.0214 151.792 17.9067C151.991 17.7919 152.305 17.8759 152.419 18.0747C152.534 18.2735 152.45 18.5872 152.251 18.702Z" fill="#F3BF09"/>
<path d="M161.671 35.007C161.472 35.1218 161.357 34.9229 161.357 34.9229L161.441 34.6093C161.64 34.4945 161.755 34.6934 161.755 34.6934L161.671 35.007Z" fill="#F3BF09"/>
<path d="M170.963 51.1118C170.764 51.2265 170.764 51.2265 170.963 51.1118C170.65 51.0277 170.848 50.9129 170.848 50.9129C170.848 50.9129 170.848 50.9129 170.963 51.1118Z" fill="#F3BF09"/>
<path d="M166.564 10.4383C166.365 10.5531 166.051 10.469 165.937 10.2702C165.822 10.0714 165.906 9.75776 166.105 9.64297C166.304 9.52818 166.617 9.61222 166.732 9.81105C166.847 10.0099 166.763 10.3235 166.564 10.4383Z" fill="#F3BF09"/>
<path d="M175.983 26.7433C175.784 26.8581 175.669 26.6593 175.669 26.6593L175.754 26.3457C175.952 26.2309 176.067 26.4297 176.067 26.4297C176.067 26.4297 176.182 26.6285 175.983 26.7433Z" fill="#F3BF09"/>
<path d="M185.277 42.85C185.079 42.9647 185.277 42.85 185.277 42.85C184.964 42.7659 185.163 42.6511 185.163 42.6511C185.163 42.6511 185.361 42.5363 185.277 42.85C185.476 42.7352 185.277 42.85 185.277 42.85Z" fill="#F3BF09"/>
<path d="M180.872 2.17754C181.092 2.05074 181.167 1.76993 181.04 1.55032C180.914 1.3307 180.633 1.25544 180.413 1.38224C180.194 1.50903 180.118 1.78986 180.245 2.00947C180.372 2.22909 180.653 2.30433 180.872 2.17754Z" fill="#F3BF09"/>
<path d="M190.292 18.4826C190.093 18.5974 189.978 18.3985 189.978 18.3985L190.062 18.0849C190.261 17.9701 190.376 18.1689 190.376 18.1689C190.376 18.1689 190.491 18.3678 190.292 18.4826Z" fill="#F3BF09"/>
<path d="M199.586 34.5892C199.272 34.5052 199.471 34.3904 199.471 34.3904C199.67 34.2756 199.67 34.2756 199.586 34.5892C199.785 34.4744 199.785 34.4744 199.586 34.5892Z" fill="#F3BF09"/>
</g>
</svg>
