<svg width="396" height="60" viewBox="0 0 396 60" fill="none" xmlns="http://www.w3.org/2000/svg">
<rect width="396" height="60" rx="8" fill="url(#paint0_linear_2034_1317)"/>
<mask id="mask0_2034_1317" style="mask-type:alpha" maskUnits="userSpaceOnUse" x="0" y="0" width="396" height="60">
<rect width="396" height="60" rx="8" fill="#482193"/>
</mask>
<g mask="url(#mask0_2034_1317)">
<path d="M363.739 -33.6366C344.235 -57.8569 297 -52.4073 269.249 -35.3666C237.272 -15.7258 238.897 14.5661 210.196 22.2074C184.01 29.1882 169.269 7.51325 150.708 13.8005C133.65 19.5794 117.849 47.4513 118.606 138.226" stroke="#8170E0" stroke-width="0.4" stroke-miterlimit="10"/>
<path d="M122.265 140.082C121.61 50.5652 137.112 22.1606 154.024 15.6514C166.567 10.8427 177.463 19.1338 191.447 22.3484C198.506 24.0862 205.886 24.0436 212.924 22.2245C235.986 16.2812 240.037 -3.48593 257.716 -21.4918C262.213 -26.0975 267.236 -30.1585 272.681 -33.5911C300.292 -51.1242 345.776 -58.5611 365.28 -35.6468" stroke="#8170E0" stroke-width="0.4" stroke-miterlimit="10"/>
<path d="M125.924 141.927C125.374 53.6718 140.565 24.7471 157.302 17.5313C169.606 12.2282 180.451 19.8439 194.194 22.6142C201.265 24.1307 208.589 24.0125 215.607 22.2688C238.443 16.5902 243.247 -1.90599 261.153 -19.7C265.696 -24.2333 270.697 -28.2838 276.075 -31.7867C303.603 -49.7282 347.277 -59.2409 366.781 -37.6325" stroke="#8170E0" stroke-width="0.4" stroke-miterlimit="10"/>
<path d="M129.573 143.765C129.126 56.7914 144.022 27.343 160.595 19.3961C172.674 13.6022 183.445 20.5443 196.963 22.8667C204.035 24.1652 211.299 23.9758 218.293 22.3106C240.922 16.8859 246.436 -0.319411 264.593 -17.9107C269.178 -22.385 274.161 -26.4335 279.479 -30.0065C306.889 -48.4039 348.783 -59.9422 368.286 -39.6397" stroke="#8170E0" stroke-width="0.4" stroke-miterlimit="10"/>
<path d="M133.235 145.625C132.885 59.9003 147.474 29.9483 163.896 21.2619C175.738 14.99 186.457 21.2449 199.739 23.1085C206.816 24.189 214.033 23.9258 221.012 22.3326C243.433 17.1618 249.673 1.24375 268.087 -16.1547C272.711 -20.5509 277.667 -24.5845 282.911 -28.2197C310.208 -47.0757 350.326 -60.6351 369.833 -41.6413" stroke="#8170E0" stroke-width="0.4" stroke-miterlimit="10"/>
<path d="M136.872 147.488C136.637 63.0128 150.673 32.1037 167.192 23.1241C178.976 16.7017 189.45 21.9145 202.507 23.3612C209.582 24.2182 216.752 23.8811 223.715 22.3637C245.93 17.4468 252.886 2.82145 271.528 -14.3606C276.188 -18.6932 281.123 -22.7211 286.3 -26.4193C313.474 -45.7521 351.822 -61.319 371.331 -43.6265" stroke="#8170E0" stroke-width="0.4" stroke-miterlimit="10"/>
<path d="M140.55 149.326C140.397 66.1265 154.393 35.1919 170.47 24.9656C181.86 17.8007 192.467 22.6055 205.282 23.6151C212.35 24.2506 219.473 23.8408 226.421 22.3989C248.429 17.7358 256.113 4.3904 274.988 -12.5779C279.687 -16.8417 284.602 -20.8614 289.714 -24.6212C316.774 -44.4127 353.334 -62.0188 372.851 -45.6186" stroke="#8170E0" stroke-width="0.4" stroke-miterlimit="10"/>
<path d="M144.205 151.177C144.14 69.2439 157.832 37.791 173.782 26.8546C184.915 19.1989 195.469 23.2499 208.051 23.8599C215.105 24.2728 222.184 23.7875 229.116 22.4157C250.914 18.0137 259.331 5.95749 278.436 -10.8136C282.885 -14.7101 287.693 -18.7718 293.112 -22.846C320.055 -43.1125 354.853 -62.7051 374.364 -47.6199" stroke="#8170E0" stroke-width="0.4" stroke-miterlimit="10"/>
<path d="M147.863 153.028C147.912 72.352 161.305 40.4402 177.071 28.7097C187.978 20.6015 198.481 23.896 210.83 24.0946C217.87 24.2829 224.91 23.7261 231.833 22.4333C253.424 18.2853 262.557 7.50988 281.909 -9.04381C286.414 -12.8992 291.213 -16.9436 296.541 -21.0681C323.329 -41.7805 356.374 -63.396 375.881 -49.6213" stroke="#8170E0" stroke-width="0.4" stroke-miterlimit="10"/>
<path d="M151.521 154.873C151.67 75.4619 164.77 43.0811 180.377 30.5856C191.054 22.0323 201.52 24.5384 213.592 24.3574C220.61 24.3233 227.613 23.6968 234.525 22.4845C255.913 18.5876 265.772 9.0995 285.348 -7.26603C289.885 -11.0667 294.69 -15.1138 299.928 -19.2841C326.616 -40.5061 357.876 -64.1135 377.386 -51.6402" stroke="#8170E0" stroke-width="0.4" stroke-miterlimit="10"/>
<path d="M155.178 156.725C155.424 78.5745 168.241 45.7311 183.661 32.4561C194.112 23.4622 204.516 25.1817 216.359 24.6175C223.35 24.3548 230.317 23.6547 237.22 22.5212C258.397 18.8809 268.979 10.6755 288.811 -5.45897C293.409 -9.2094 298.197 -13.2529 303.344 -17.4616C329.9 -39.1742 359.394 -64.7725 378.913 -53.6106" stroke="#8170E0" stroke-width="0.4" stroke-miterlimit="10"/>
<path d="M158.832 158.575C159.182 81.6874 171.719 48.3741 186.965 34.3114C197.197 24.8787 207.539 25.7998 219.135 24.8633C225.799 24.3229 232.601 23.7317 239.932 22.5455C260.898 19.1544 272.209 12.2409 292.275 -3.6872C296.922 -7.3865 301.698 -11.4291 306.768 -15.6844C333.192 -37.8876 360.926 -65.4796 380.442 -55.6164" stroke="#8170E0" stroke-width="0.4" stroke-miterlimit="10"/>
<path d="M162.491 160.427C162.953 84.815 175.175 51.0464 190.263 36.1806C200.273 26.3045 210.561 26.4099 221.91 25.1129C228.608 24.3483 235.38 23.676 242.639 22.5762C263.406 19.4527 275.427 13.8109 295.735 -1.90893C300.434 -5.55254 305.203 -9.59699 310.17 -13.8899C336.451 -36.59 362.435 -66.1693 381.953 -57.6074" stroke="#8170E0" stroke-width="0.4" stroke-miterlimit="10"/>
<path d="M166.137 162.284C166.698 87.914 178.681 53.6938 193.557 38.0502C203.355 27.7445 213.577 27.0158 224.686 25.3675C231.416 24.367 238.155 23.6208 245.327 22.6229C265.883 19.7369 278.629 15.4015 299.198 -0.121003C303.948 -3.72077 308.7 -7.76161 313.583 -12.0911C339.722 -35.3 363.949 -66.8639 383.47 -59.6034" stroke="#8170E0" stroke-width="0.4" stroke-miterlimit="10"/>
<path d="M169.804 164.123C170.456 91.0228 182.161 56.3683 196.855 39.9114C206.441 29.1688 216.59 27.6044 227.452 25.6147C234.212 24.3737 240.934 23.5572 248.047 22.6376C268.387 20.0109 281.865 16.9528 302.653 1.65216C307.632 -2.09246 312.416 -6.08958 316.986 -10.3235C342.985 -34.0129 365.484 -67.5587 384.985 -61.605" stroke="#8170E0" stroke-width="0.4" stroke-miterlimit="10"/>
<path d="M173.46 165.974C174.216 94.1366 185.668 59.0077 200.133 41.784C209.51 30.609 219.586 28.1969 230.229 25.8614C237.015 24.3753 243.712 23.4941 250.75 22.6682C270.888 20.2926 285.087 18.5245 306.101 3.43572C311.116 -0.237068 315.89 -4.22904 320.392 -8.51542C346.232 -32.7529 366.985 -68.2458 386.496 -63.6227" stroke="#8170E0" stroke-width="0.4" stroke-miterlimit="10"/>
<path d="M177.119 167.826C177.972 97.2486 189.198 61.6791 203.446 43.6375C212.611 32.0447 222.608 28.7639 232.997 26.1091C239.808 24.3733 246.486 23.441 253.453 22.7016C273.378 20.5826 288.306 20.0944 309.57 5.20845C314.619 1.60167 319.38 -2.39033 323.813 -6.73184C349.496 -31.458 368.506 -68.9365 388.027 -65.601" stroke="#8170E0" stroke-width="0.4" stroke-miterlimit="10"/>
<path d="M180.776 169.675C181.74 100.382 192.677 64.3596 206.738 45.5075C215.708 33.4741 225.604 29.331 235.763 26.3622C242.61 24.3567 249.257 23.3816 256.154 22.7332C275.866 20.8589 291.521 21.6698 313.027 6.99214C318.106 3.4489 322.856 -0.543636 327.221 -4.93732C352.744 -30.1806 370.018 -69.6307 389.541 -67.5967" stroke="#8170E0" stroke-width="0.4" stroke-miterlimit="10"/>
<path d="M184.435 171.527C185.467 103.486 196.196 67.0317 210.049 47.3872C218.82 34.9279 228.61 29.9134 238.555 26.6389C245.416 24.3964 252.061 23.3475 258.877 22.7909C278.388 21.1796 294.763 23.2687 316.499 8.78833C321.608 5.30884 326.347 1.31515 330.643 -3.13028C356.002 -28.8951 371.578 -70.3079 391.073 -69.5752" stroke="#8170E0" stroke-width="0.4" stroke-miterlimit="10"/>
<path d="M188.089 173.378C189.244 106.589 199.713 69.7015 213.331 49.2382C221.91 36.3429 231.584 30.4505 241.31 26.8612C248.173 24.3326 254.815 23.2672 261.568 22.8035C280.868 21.4489 297.965 24.8207 319.949 10.5576C325.09 7.1442 329.819 3.1485 334.044 -1.35015C359.228 -27.6475 373.053 -71.0166 392.577 -71.5899" stroke="#8170E0" stroke-width="0.4" stroke-miterlimit="10"/>
<path d="M191.75 175.222C193.005 109.699 203.249 72.3938 216.613 51.1107C224.999 37.7913 234.547 31.0147 244.063 27.1243C250.931 24.3141 257.572 23.2177 264.244 22.8341C283.343 21.7351 301.167 26.3942 323.385 12.3375C328.556 8.98503 333.277 4.98617 337.435 0.437856C362.399 -26.4149 374.555 -71.6965 394.086 -73.5857" stroke="#8170E0" stroke-width="0.4" stroke-miterlimit="10"/>
<path d="M195.399 177.076C197.593 72.7819 222.577 38.2776 246.852 27.3626C273.351 15.4467 296.547 32.7935 326.862 14.1091C362.421 -7.81406 372.777 -71.8614 395.61 -75.5879" stroke="#8170E0" stroke-width="0.4" stroke-miterlimit="10"/>
</g>
<defs>
<linearGradient id="paint0_linear_2034_1317" x1="0" y1="0" x2="394.57" y2="68.2634" gradientUnits="userSpaceOnUse">
<stop stop-color="#482193"/>
<stop offset="0.5" stop-color="#7755C4"/>
<stop offset="1" stop-color="#482193"/>
</linearGradient>
</defs>
</svg>
