<svg width="22" height="20" viewBox="0 0 22 20" fill="none" xmlns="http://www.w3.org/2000/svg">
<path fill-rule="evenodd" clip-rule="evenodd" d="M9.62489 11.0523C9.62489 11.67 10.1256 12.1708 10.7433 12.1708C11.3611 12.1708 11.8618 11.67 11.8618 11.0523V7.69693C11.8618 7.07922 11.3611 6.57847 10.7433 6.57847C10.1256 6.57847 9.62489 7.07922 9.62489 7.69693V11.0523ZM11.8618 14.3952C11.8618 13.7774 11.3611 13.2767 10.7433 13.2767C10.1256 13.2767 9.62489 13.7774 9.62489 14.3952V14.4077C9.62489 15.0254 10.1256 15.5262 10.7433 15.5262C11.3611 15.5262 11.8618 15.0254 11.8618 14.4077V14.3952ZM7.81001 1.72587C9.08847 -0.575289 12.3979 -0.575289 13.6763 1.72587L21.0593 15.0151C22.3016 17.2516 20.6845 20 18.1261 20H3.36022C0.801781 20 -0.815402 17.2516 0.427075 15.0151L7.81001 1.72587Z" fill="url(#paint0_linear_628_10867)"/>
<defs>
<linearGradient id="paint0_linear_628_10867" x1="10.7431" y1="0" x2="10.7431" y2="20" gradientUnits="userSpaceOnUse">
<stop stop-color="#F38927"/>
<stop offset="1" stop-color="#C14E17"/>
</linearGradient>
</defs>
</svg>
