<svg width="24" height="24" viewBox="0 0 24 24" fill="none" xmlns="http://www.w3.org/2000/svg">
<g id="Group 1261158941">
<circle id="Ellipse 2164" cx="12" cy="12" r="12" fill="url(#paint0_linear_707_197)"/>
<g id="Layer 24">
<path id="Vector" d="M19.2453 11.2202L19.2037 6H15.3934L11.8745 10.2144L9.52859 8.02451L7.93679 9.85323L6.17736 7.79117L3.05409 10.589L5.12554 12.884L3 15.123L5.82556 18L7.72401 15.9116L9.51876 17.9879L12.7372 15.3412L12.6666 15.263H14.8422V17.9776H19.2131V15.2209H20.7271V11.2202H19.2453Z" fill="#6D390C"/>
<path id="Vector_2" d="M19.5329 12.4079V14.048H18.0185V16.8047H16.0069V14.09H11.3889L11.375 12.6453L15.9318 7.18771H18.0185L18.0605 12.4079H19.5329ZM14.3061 12.5335L16.1482 12.5478L16.2322 10.1049L14.3061 12.5335Z" fill="#B26510"/>
<path id="Vector_3" d="M18.975 17.7506H15.0761V15.0354H10.4639L10.4375 12.3087L15.5003 6.24542H18.9656L19.0076 11.4656H20.4876V14.9943H18.975V17.7506ZM16.9634 15.8615H17.0845V13.1052H17.1319L17.123 11.9815L17.0707 13.5013H16.9634V15.8615ZM12.3342 13.1468H12.6274L16.6031 8.1336H16.3823L12.331 12.985L12.3342 13.1468Z" fill="#B26510"/>
<path id="Vector_4" d="M19.5329 12.3677V14.0073H18.0185V16.764H16.0069V14.0493H11.3889L11.375 12.6046L15.9318 7.14746H18.0185L18.0605 12.3677H19.5329ZM14.3061 12.4933L16.1482 12.5071L16.2322 10.0647L14.3061 12.4933Z" fill="url(#paint1_linear_707_197)"/>
<g id="Vector_5" style="mix-blend-mode:overlay">
<path d="M18.1172 12.3516L18.1217 12.9027H19.5472V12.3516H18.1172Z" fill="white"/>
</g>
<g id="Vector_6" style="mix-blend-mode:overlay">
<path d="M16.3063 10.6136L16.237 10.7008L16.1753 12.5053L14.3247 12.4951L13.8906 13.0422L16.2222 13.0561L16.3063 10.6136Z" fill="white"/>
</g>
<g id="Vector_7" style="mix-blend-mode:overlay">
<path d="M16.063 14.0529H16.0156V16.7484H16.063V14.0529Z" fill="white"/>
</g>
<g id="Vector_8" style="mix-blend-mode:overlay">
<path d="M11.4309 14.0337L11.4224 13.1401L15.9792 7.68258H18.0234L18.0189 7.13141H15.9323L11.375 12.589L11.3889 14.0337H11.4309Z" fill="white"/>
</g>
<g id="Vector_9" style="mix-blend-mode:overlay" opacity="0.22">
<path d="M10.4639 15.0358L11.399 14.0913L11.3852 12.5889L10.4375 12.3082L10.4639 15.0358Z" fill="#FCFACC"/>
</g>
<g id="Vector_10" style="mix-blend-mode:overlay" opacity="0.6">
<path d="M18.9652 6.24493H15.5L15.9483 7.18902L18.0283 7.14745L18.9652 6.24493Z" fill="#FCFACC"/>
</g>
<g id="Vector_11" style="mix-blend-mode:overlay" opacity="0.44">
<path d="M10.4375 12.3082L11.3852 12.5889L15.9424 7.18902H15.9491L15.5008 6.24493L10.4375 12.3082Z" fill="#FCFACC"/>
</g>
<path id="Vector_12" opacity="0.46" d="M11.4117 14.0529L10.4766 15.0359H15.0875L16.0789 14.0529H11.4117Z" fill="#6D390C"/>
<path id="Vector_13" d="M15.0703 17.7506H18.9687L18.0246 16.764H16.0144L15.0703 17.7506Z" fill="#6D390C"/>
<path id="Vector_14" opacity="0.46" d="M18.0234 14.0073L18.9675 14.9938H20.482L19.5379 14.0073H18.0234Z" fill="#6D390C"/>
<g id="Vector_15" style="mix-blend-mode:overlay" opacity="0.44">
<path d="M20.4951 11.4652L19.551 12.3516H18.0781L19.0151 11.4652H20.4951Z" fill="#FCFACC"/>
</g>
<path id="Vector_16" opacity="0.46" d="M18.0234 14.0493L18.9675 14.9939V17.7506L18.0234 16.764V14.0493Z" fill="#6D390C"/>
<g id="Vector_17" style="mix-blend-mode:overlay" opacity="0.34">
<path d="M14.648 12.4973H14.3083L16.2345 10.0687L16.1754 11.7964C16.2246 11.7818 16.2742 11.7668 16.3243 11.7517C16.8881 11.5952 17.4715 11.521 18.0565 11.5313L18.0212 7.15057H15.9345L11.375 12.6077L11.3889 14.0524H13.0629C13.4763 13.4286 14.0164 12.8987 14.648 12.4973Z" fill="white"/>
</g>
<path id="Vector_18" d="M9.65877 16.3532L7.74645 14.141L5.79213 16.2906L4.64062 15.1181L6.73442 12.9126L4.72287 10.6865L6.06391 9.48624L7.92705 11.6703L9.61586 9.7303L10.5582 10.6096L8.73748 12.6761L11.0338 15.2241L9.65877 16.3532Z" fill="#B26510"/>
<path id="Vector_19" d="M9.54649 17.6678L7.7285 15.5646L5.81887 17.6651L3.32812 15.1293L5.4474 12.8964L3.38802 10.6158L6.15502 8.13712L7.93501 10.2238L9.54604 8.37269L11.8741 10.5456L10.0024 12.6685L12.3966 15.3246L9.54649 17.6678Z" fill="#B26510"/>
<path id="Vector_20" d="M9.65877 16.3117L7.74645 14.099L5.79212 16.2487L4.64062 15.0762L6.73442 12.8711L4.72287 10.6445L6.06391 9.44427L7.92705 11.6288L9.61586 9.68879L10.5582 10.5681L8.73658 12.6337L11.0329 15.1817L9.65877 16.3117Z" fill="url(#paint2_linear_707_197)"/>
<g id="Vector_21" style="mix-blend-mode:overlay">
<path d="M10.3234 10.8456L10.5683 10.5675L9.62646 9.68783L7.93765 11.6283L6.07406 9.44376L4.73438 10.644L5.0303 10.9721L6.12145 9.99448L7.98459 12.179L9.6734 10.239L10.3234 10.8456Z" fill="white"/>
</g>
<g id="Vector_22" style="mix-blend-mode:overlay">
<path d="M8.77616 13.1687L10.7667 15.3774L11.0246 15.1651L8.74219 12.6336L8.77616 13.1687Z" fill="white"/>
</g>
<g id="Vector_23" style="mix-blend-mode:overlay">
<path d="M4.65625 15.0604L4.94591 15.3555L6.79698 13.406L6.7353 12.871L4.65625 15.0604Z" fill="white"/>
</g>
<g id="Vector_24" style="mix-blend-mode:overlay" opacity="0.44">
<path d="M3.32812 15.1293L4.64055 15.0604L6.73434 12.871L5.4474 12.8965L3.32812 15.1293Z" fill="#FCFACC"/>
</g>
<path id="Vector_25" d="M5.78906 16.2906L5.81588 17.6652L7.72238 15.5678V14.1226L5.78906 16.2906Z" fill="#6D390C"/>
<path id="Vector_26" opacity="0.46" d="M7.73976 14.0994L7.71875 14.1226V15.5678L7.72188 15.5647L9.53987 17.6679L9.5582 17.4082L9.65162 16.3112L7.73976 14.0994Z" fill="#6D390C"/>
<path id="Vector_27" d="M11.0336 15.165L9.65908 16.3116L9.65863 16.3112L9.54688 17.6679L12.397 15.3246L11.0336 15.165Z" fill="#6D390C"/>
<g id="Vector_28" style="mix-blend-mode:overlay" opacity="0.44">
<path d="M8.74219 12.6336L10.0072 12.6685L12.4014 15.3246L11.0059 15.1293L8.74219 12.6336Z" fill="#FCFACC"/>
</g>
<g id="Vector_29" style="mix-blend-mode:overlay" opacity="0.6">
<path d="M3.39062 10.6158L4.72719 10.6449L6.06688 9.44417L6.06777 9.44507L6.15762 8.13712L3.39062 10.6158Z" fill="#FCFACC"/>
</g>
<g id="Vector_30" style="mix-blend-mode:overlay" opacity="0.6">
<path d="M7.92188 11.6288L9.61202 9.69589L9.54005 8.37274L7.92902 10.2238L7.92188 11.6283V11.6288Z" fill="#FCFACC"/>
</g>
<g id="Vector_31" style="mix-blend-mode:overlay" opacity="0.22">
<path d="M7.93301 11.6287V11.6283L7.94016 10.2238L6.16016 8.13712L6.07031 9.44507L7.93301 11.6287Z" fill="#FCFACC"/>
</g>
<g id="Vector_32" style="mix-blend-mode:overlay" opacity="0.22">
<path d="M10.5594 10.5676L9.6175 9.73031L9.54688 8.37274L11.8749 10.5457L10.5594 10.5676Z" fill="#FCFACC"/>
</g>
<g id="Vector_33" style="mix-blend-mode:overlay" opacity="0.34">
<path d="M5.56281 16.0157C5.70813 15.1956 6.1137 14.4441 6.71946 13.8725C7.32522 13.3008 8.09896 12.9395 8.92612 12.8419L8.73658 12.6314L10.5582 10.5657L9.61586 9.68647L7.92705 11.6265L6.06391 9.44196L4.72287 10.6422L6.73442 12.8687L4.64062 15.0738L5.56281 16.0157Z" fill="white"/>
</g>
</g>
</g>
<defs>
<linearGradient id="paint0_linear_707_197" x1="0" y1="12" x2="24" y2="12" gradientUnits="userSpaceOnUse">
<stop offset="0.365" stop-color="#B26510"/>
<stop offset="1" stop-color="#E6BE31"/>
<stop offset="1.0001" stop-color="#E9C333"/>
</linearGradient>
<linearGradient id="paint1_linear_707_197" x1="15.454" y1="16.764" x2="15.454" y2="7.14746" gradientUnits="userSpaceOnUse">
<stop stop-color="#CE7C1D"/>
<stop offset="1" stop-color="#F7E436"/>
</linearGradient>
<linearGradient id="paint2_linear_707_197" x1="7.8372" y1="16.3117" x2="7.8372" y2="9.44427" gradientUnits="userSpaceOnUse">
<stop stop-color="#CE7C1D"/>
<stop offset="1" stop-color="#F7E436"/>
</linearGradient>
</defs>
</svg>
