<svg width="20" height="20" viewBox="0 0 20 20" fill="none" xmlns="http://www.w3.org/2000/svg">
<path d="M9.1665 14.1667H10.8332V9.16669H9.1665V14.1667ZM9.99984 1.66669C5.39567 1.66669 1.6665 5.39585 1.6665 10C1.6665 14.6042 5.39567 18.3334 9.99984 18.3334C14.604 18.3334 18.3332 14.6042 18.3332 10C18.3332 5.39585 14.604 1.66669 9.99984 1.66669ZM9.99984 16.6667C6.32484 16.6667 3.33317 13.675 3.33317 10C3.33317 6.32502 6.32484 3.33335 9.99984 3.33335C13.6748 3.33335 16.6665 6.32502 16.6665 10C16.6665 13.675 13.6748 16.6667 9.99984 16.6667ZM9.1665 7.50002H10.8332V5.83335H9.1665V7.50002Z" fill="white"/>
</svg>
