<svg width="97" height="97" viewBox="0 0 97 97" fill="none" xmlns="http://www.w3.org/2000/svg">
<path d="M48.5014 4.13391C23.9988 4.13391 4.13553 23.9972 4.13552 48.4997C4.13552 73.0023 23.9988 92.8656 48.5014 92.8656C73.0039 92.8656 92.8672 73.0023 92.8672 48.4997C92.8672 23.9972 73.0039 4.13391 48.5014 4.13391Z" fill="url(#paint0_linear_3805_14287)"/>
<path d="M48.503 80.1202C65.9664 80.1202 80.1233 65.9633 80.1233 48.5C80.1233 31.0366 65.9664 16.8797 48.503 16.8797C31.0397 16.8797 16.8828 31.0366 16.8828 48.5C16.8828 65.9633 31.0397 80.1202 48.503 80.1202Z" fill="url(#paint1_linear_3805_14287)"/>
<path d="M48.5 96C74.7335 96 96 74.7335 96 48.5C96 22.2665 74.7335 1 48.5 1C22.2665 1 1 22.2665 1 48.5C1 74.7335 22.2665 96 48.5 96Z" stroke="url(#paint2_linear_3805_14287)" stroke-width="1.0529" stroke-miterlimit="10"/>
<path d="M13.4117 36L14.7317 28.68H27.0517L22.0517 57H13.8517L17.5317 36H13.4117ZM28.5605 42.44C29.3605 38.04 30.9205 34.5467 33.2405 31.96C35.5605 29.3733 38.7205 28.08 42.7205 28.08C46.0005 28.08 48.4005 28.9733 49.9205 30.76C51.4671 32.52 52.2405 34.96 52.2405 38.08C52.2405 39.5467 52.1071 41 51.8405 42.44C51.0671 46.84 49.5071 50.3467 47.1605 52.96C44.8138 55.5467 41.6538 56.84 37.6805 56.84C34.4005 56.84 31.9871 55.96 30.4405 54.2C28.9205 52.44 28.1605 49.9867 28.1605 46.84C28.1605 45.4 28.2938 43.9333 28.5605 42.44ZM44.0805 42.44C44.3205 41 44.4405 39.8933 44.4405 39.12C44.4405 37.9733 44.2138 37.08 43.7605 36.44C43.3071 35.8 42.5338 35.48 41.4405 35.48C39.8671 35.48 38.7071 36.0933 37.9605 37.32C37.2138 38.5467 36.6538 40.2533 36.2805 42.44C36.0405 43.88 35.9205 45 35.9205 45.8C35.9205 46.9467 36.1471 47.84 36.6005 48.48C37.0538 49.12 37.8405 49.44 38.9605 49.44C40.5338 49.44 41.6671 48.84 42.3605 47.64C43.0805 46.4133 43.6538 44.68 44.0805 42.44ZM55.5695 35.28C55.9695 33.04 56.9162 31.32 58.4095 30.12C59.9295 28.92 61.7162 28.32 63.7695 28.32C65.5562 28.32 66.9695 28.7733 68.0095 29.68C69.0762 30.5867 69.6095 31.8933 69.6095 33.6C69.6095 34.1867 69.5562 34.7467 69.4495 35.28C69.0495 37.52 68.1029 39.24 66.6095 40.44C65.1429 41.64 63.3829 42.24 61.3295 42.24C59.5429 42.24 58.1029 41.7867 57.0095 40.88C55.9429 39.9467 55.4095 38.6133 55.4095 36.88C55.4095 36.56 55.4629 36.0267 55.5695 35.28ZM84.2095 28.72L64.0495 57H56.5295L76.6895 28.72H84.2095ZM62.9295 32.88C61.8629 32.88 61.1695 33.68 60.8495 35.28C60.7962 35.7067 60.7695 35.9867 60.7695 36.12C60.7695 37.1333 61.1962 37.64 62.0495 37.64C62.6095 37.64 63.0762 37.44 63.4495 37.04C63.8229 36.64 64.0762 36.0533 64.2095 35.28C64.2629 35.0667 64.2895 34.7733 64.2895 34.4C64.2895 33.3867 63.8362 32.88 62.9295 32.88ZM71.2895 50.4C71.6895 48.16 72.6362 46.44 74.1295 45.24C75.6229 44.04 77.3962 43.44 79.4495 43.44C81.2362 43.44 82.6495 43.8933 83.6895 44.8C84.7562 45.7067 85.2895 47.0267 85.2895 48.76C85.2895 49.1067 85.2362 49.6533 85.1295 50.4C84.7295 52.64 83.7829 54.3733 82.2895 55.6C80.8229 56.8 79.0629 57.4 77.0095 57.4C75.2229 57.4 73.7962 56.9467 72.7295 56.04C71.6629 55.1067 71.1295 53.76 71.1295 52C71.1295 51.68 71.1829 51.1467 71.2895 50.4ZM78.6095 48.04C77.4895 48.04 76.7962 48.8267 76.5295 50.4C76.4762 50.6133 76.4495 50.9067 76.4495 51.28C76.4495 52.2933 76.8895 52.8 77.7695 52.8C78.8629 52.8 79.5695 52 79.8895 50.4C79.9429 50.0267 79.9695 49.76 79.9695 49.6C79.9695 49.0933 79.8495 48.7067 79.6095 48.44C79.3695 48.1733 79.0362 48.04 78.6095 48.04ZM41.6657 76.39H38.1657L37.6337 78H34.7497L38.3477 68.13H41.5117L45.0957 78H42.1977L41.6657 76.39ZM40.9797 74.29L39.9157 71.098L38.8657 74.29H40.9797ZM53.7881 71.42C53.7881 72.0173 53.6481 72.5633 53.3681 73.058C53.0974 73.5433 52.6821 73.9353 52.1221 74.234C51.5714 74.5233 50.8947 74.668 50.0921 74.668H48.7341V78H45.9901V68.13H50.0921C50.8854 68.13 51.5574 68.27 52.1081 68.55C52.6681 68.83 53.0881 69.2173 53.3681 69.712C53.6481 70.2067 53.7881 70.776 53.7881 71.42ZM49.8261 72.484C50.6007 72.484 50.9881 72.1293 50.9881 71.42C50.9881 70.7013 50.6007 70.342 49.8261 70.342H48.7341V72.484H49.8261ZM59.8884 78L57.9284 74.36H57.6344V78H54.8904V68.13H59.2164C60.0098 68.13 60.6818 68.27 61.2324 68.55C61.7831 68.8207 62.1984 69.1987 62.4784 69.684C62.7584 70.16 62.8984 70.6967 62.8984 71.294C62.8984 71.966 62.7118 72.5587 62.3384 73.072C61.9744 73.576 61.4378 73.9353 60.7284 74.15L62.9544 78H59.8884ZM57.6344 72.484H58.9924C59.3658 72.484 59.6458 72.3953 59.8324 72.218C60.0191 72.0407 60.1124 71.784 60.1124 71.448C60.1124 71.1307 60.0144 70.8833 59.8184 70.706C59.6318 70.5193 59.3564 70.426 58.9924 70.426H57.6344V72.484Z" fill="white"/>
<defs>
<linearGradient id="paint0_linear_3805_14287" x1="48.4872" y1="4.1158" x2="48.4871" y2="92.8794" gradientUnits="userSpaceOnUse">
<stop stop-color="#9B61C3"/>
<stop offset="0.4722" stop-color="#9B61C3" stop-opacity="0.5"/>
<stop offset="1" stop-color="#9B61C3" stop-opacity="0"/>
</linearGradient>
<linearGradient id="paint1_linear_3805_14287" x1="48.5173" y1="80.1079" x2="48.5173" y2="16.8963" gradientUnits="userSpaceOnUse">
<stop stop-color="#9B61C3" stop-opacity="0"/>
<stop offset="0.4722" stop-color="#9B61C3" stop-opacity="0.5"/>
<stop offset="1" stop-color="#9B61C3"/>
</linearGradient>
<linearGradient id="paint2_linear_3805_14287" x1="48.5142" y1="96.1863" x2="48.5142" y2="0.817974" gradientUnits="userSpaceOnUse">
<stop stop-color="#9B61C3" stop-opacity="0"/>
<stop offset="0.4722" stop-color="#9B61C3" stop-opacity="0.5"/>
<stop offset="1" stop-color="#9B61C3"/>
</linearGradient>
</defs>
</svg>
