<svg width="56" height="56" viewBox="0 0 56 56" fill="none" xmlns="http://www.w3.org/2000/svg">
<mask id="mask0_534_3370" style="mask-type:alpha" maskUnits="userSpaceOnUse" x="8" y="8" width="40" height="40">
<rect x="8" y="8" width="40" height="40" fill="#8E97CD"/>
</mask>
<g mask="url(#mask0_534_3370)">
<path d="M39.5886 38.0182V41.5622C39.5886 41.572 39.5984 41.5818 39.6082 41.5818H43.3463H39.6474C39.6278 41.5818 39.618 41.5524 39.6278 41.5426C43.2293 38.3766 45.5061 33.7501 45.5061 28.5844C45.5061 19.0667 37.7829 11.3428 28.2638 11.333C28.254 11.333 28.2344 11.3428 28.2344 11.3624V16.2845" stroke="#6A07C7" stroke-width="2" stroke-miterlimit="10" stroke-linecap="round" stroke-linejoin="round"/>
<path d="M16.4173 17.9818L16.4173 14.4378C16.4173 14.428 16.4075 14.4182 16.3977 14.4182L12.6596 14.4182L16.3584 14.4182C16.3781 14.4182 16.3879 14.4476 16.3781 14.4574C12.7765 17.6234 10.4998 22.2499 10.4998 27.4156C10.4998 36.9333 18.223 44.6572 27.742 44.667C27.7519 44.667 27.7715 44.6572 27.7715 44.6376L27.7715 39.7155" stroke="#6A07C7" stroke-width="2" stroke-miterlimit="10" stroke-linecap="round" stroke-linejoin="round"/>
<circle cx="28.1937" cy="28.0043" r="11.5258" stroke="#6A07C7" stroke-width="2"/>
<path d="M21.05 28.2804L25.7604 31.7964C25.7679 31.7964 25.7679 31.8039 25.7753 31.8039L27.5221 33.1028C27.6714 33.2147 27.8804 33.1102 27.8804 32.9236L27.8879 23.2416C27.873 23.0699 27.8506 22.8907 27.8132 22.719C27.7759 22.5548 27.7237 22.398 27.649 22.2637C27.7759 23.2117 27.2384 24.3165 26.3277 25.0406C26.1262 25.2049 25.85 25.384 25.5439 25.5109C25.2154 25.6528 24.2226 25.9961 24.2226 25.9961L21.2292 27.0786C20.7141 27.2652 20.6096 27.952 21.05 28.2804Z" fill="#6A07C7"/>
<path d="M25.7248 25.4287C25.7323 25.4212 25.7472 25.4212 25.7547 25.4138C25.7696 25.4063 25.7845 25.3988 25.8069 25.3839C25.8293 25.3764 25.8442 25.3615 25.8666 25.3541C25.8741 25.3466 25.889 25.3391 25.8965 25.3391C25.9188 25.3242 25.9487 25.3093 25.9711 25.2943C25.9786 25.2869 25.986 25.2869 25.9935 25.2794C26.0159 25.2645 26.0383 25.2496 26.0681 25.2346C26.083 25.2272 26.0905 25.2197 26.1054 25.2122C26.1204 25.1973 26.1428 25.1899 26.1577 25.1749C26.1801 25.16 26.2025 25.1376 26.2323 25.1227C26.2398 25.1227 26.2398 25.1152 26.2472 25.1152C26.2771 25.0928 26.307 25.0704 26.3368 25.048C27.2474 24.3241 27.7848 23.2195 27.6579 22.2716C27.6056 22.182 27.5385 22.0999 27.4638 22.0402L25.9114 20.8908C25.7621 20.7789 25.5457 20.8834 25.5457 21.0699V23.7792C25.5457 25.4809 24.2246 25.9959 24.2246 25.9959C24.2246 25.9959 25.2247 25.6601 25.5457 25.5183C25.6054 25.4884 25.6651 25.4585 25.7248 25.4287Z" fill="#6A07C7"/>
<path d="M35.4417 27.928L30.7314 24.412C30.7239 24.412 30.7239 24.4046 30.7164 24.4046L28.9696 23.1057C28.8203 22.9937 28.6113 23.0982 28.6113 23.2848V32.9668C28.6263 33.1385 28.6487 33.3177 28.686 33.4894C28.7233 33.6536 28.7756 33.8104 28.8502 33.9448C28.7233 32.9967 29.2608 31.8919 30.1715 31.1678C30.3731 31.0036 30.6493 30.8244 30.9553 30.6975C31.2763 30.5557 32.2766 30.2198 32.2766 30.2198L35.2701 29.1373C35.7851 28.9432 35.8822 28.2565 35.4417 27.928Z" fill="#6A07C7"/>
<path d="M30.7777 30.7791C30.7702 30.7866 30.7553 30.7866 30.7478 30.7941C30.7329 30.8015 30.718 30.809 30.6956 30.8239C30.6732 30.8314 30.6583 30.8463 30.6359 30.8538C30.6284 30.8612 30.6135 30.8687 30.606 30.8687C30.5836 30.8836 30.5538 30.8986 30.5314 30.9135C30.5239 30.921 30.5165 30.921 30.509 30.9284C30.4866 30.9433 30.4642 30.9583 30.4344 30.9732C30.4194 30.9807 30.412 30.9881 30.397 30.9956C30.3821 31.0105 30.3597 31.018 30.3448 31.0329C30.3224 31.0478 30.3 31.0702 30.2702 31.0852C30.2627 31.0852 30.2627 31.0926 30.2552 31.0926C30.2254 31.115 30.1955 31.1374 30.1657 31.1598C29.2551 31.8838 28.7177 32.9884 28.8446 33.9363C28.8969 34.0258 28.964 34.1079 29.0387 34.1676L30.5836 35.317C30.7329 35.429 30.9494 35.3245 30.9494 35.1379V32.4286C30.9494 30.7344 32.2704 30.2119 32.2704 30.2119C32.2704 30.2119 31.2703 30.5478 30.9494 30.6896C30.8971 30.7194 30.8374 30.7493 30.7777 30.7791Z" fill="#6A07C7"/>
</g>
</svg>
