<svg width="372" height="405" viewBox="0 0 372 405" fill="none" xmlns="http://www.w3.org/2000/svg">
<path d="M28 2H344C358.359 2 370 13.6406 370 28V350C370 364.359 358.359 376 344 376H28C13.6406 376 2 364.359 2 350V28C2 13.6406 13.6406 2 28 2Z" fill="white" stroke="#F5F6FA" stroke-width="4"/>
<path d="M165.792 57.8V54.962H171.094V71H167.926V57.8H165.792ZM182.233 58.966C182.086 58.35 181.829 57.888 181.463 57.58C181.111 57.272 180.597 57.118 179.923 57.118C178.911 57.118 178.163 57.5287 177.679 58.35C177.209 59.1567 176.967 60.4767 176.953 62.31C177.305 61.7233 177.818 61.2687 178.493 60.946C179.167 60.6087 179.901 60.44 180.693 60.44C181.646 60.44 182.489 60.6453 183.223 61.056C183.956 61.4667 184.528 62.068 184.939 62.86C185.349 63.6373 185.555 64.576 185.555 65.676C185.555 66.7173 185.342 67.6487 184.917 68.47C184.506 69.2767 183.897 69.9073 183.091 70.362C182.284 70.8167 181.323 71.044 180.209 71.044C178.683 71.044 177.481 70.7067 176.601 70.032C175.735 69.3573 175.127 68.4187 174.775 67.216C174.437 65.9987 174.269 64.5027 174.269 62.728C174.269 60.044 174.731 58.02 175.655 56.656C176.579 55.2773 178.038 54.588 180.033 54.588C181.573 54.588 182.768 55.006 183.619 55.842C184.469 56.678 184.961 57.7193 185.093 58.966H182.233ZM179.989 62.97C179.211 62.97 178.559 63.1973 178.031 63.652C177.503 64.1067 177.239 64.7667 177.239 65.632C177.239 66.4973 177.481 67.1793 177.965 67.678C178.463 68.1767 179.16 68.426 180.055 68.426C180.847 68.426 181.47 68.184 181.925 67.7C182.394 67.216 182.629 66.5633 182.629 65.742C182.629 64.8913 182.401 64.2167 181.947 63.718C181.507 63.2193 180.854 62.97 179.989 62.97ZM189.485 71.154C188.928 71.154 188.466 70.9853 188.099 70.648C187.747 70.296 187.571 69.8633 187.571 69.35C187.571 68.8367 187.747 68.4113 188.099 68.074C188.466 67.722 188.928 67.546 189.485 67.546C190.028 67.546 190.475 67.722 190.827 68.074C191.179 68.4113 191.355 68.8367 191.355 69.35C191.355 69.8633 191.179 70.296 190.827 70.648C190.475 70.9853 190.028 71.154 189.485 71.154ZM201.58 58.966C201.433 58.35 201.176 57.888 200.81 57.58C200.458 57.272 199.944 57.118 199.27 57.118C198.258 57.118 197.51 57.5287 197.026 58.35C196.556 59.1567 196.314 60.4767 196.3 62.31C196.652 61.7233 197.165 61.2687 197.84 60.946C198.514 60.6087 199.248 60.44 200.04 60.44C200.993 60.44 201.836 60.6453 202.57 61.056C203.303 61.4667 203.875 62.068 204.286 62.86C204.696 63.6373 204.902 64.576 204.902 65.676C204.902 66.7173 204.689 67.6487 204.264 68.47C203.853 69.2767 203.244 69.9073 202.438 70.362C201.631 70.8167 200.67 71.044 199.556 71.044C198.03 71.044 196.828 70.7067 195.948 70.032C195.082 69.3573 194.474 68.4187 194.122 67.216C193.784 65.9987 193.616 64.5027 193.616 62.728C193.616 60.044 194.078 58.02 195.002 56.656C195.926 55.2773 197.385 54.588 199.38 54.588C200.92 54.588 202.115 55.006 202.966 55.842C203.816 56.678 204.308 57.7193 204.44 58.966H201.58ZM199.336 62.97C198.558 62.97 197.906 63.1973 197.378 63.652C196.85 64.1067 196.586 64.7667 196.586 65.632C196.586 66.4973 196.828 67.1793 197.312 67.678C197.81 68.1767 198.507 68.426 199.402 68.426C200.194 68.426 200.817 68.184 201.272 67.7C201.741 67.216 201.976 66.5633 201.976 65.742C201.976 64.8913 201.748 64.2167 201.294 63.718C200.854 63.2193 200.201 62.97 199.336 62.97ZM217.324 57.294L211.472 71H208.348L214.244 57.646H206.72V55.006H217.324V57.294ZM218.597 58.9C218.597 57.7853 218.919 56.9127 219.565 56.282C220.225 55.6513 221.068 55.336 222.095 55.336C223.121 55.336 223.957 55.6513 224.603 56.282C225.263 56.9127 225.593 57.7853 225.593 58.9C225.593 60.0293 225.263 60.9093 224.603 61.54C223.957 62.1707 223.121 62.486 222.095 62.486C221.068 62.486 220.225 62.1707 219.565 61.54C218.919 60.9093 218.597 60.0293 218.597 58.9ZM232.721 55.6L224.075 71H221.083L229.707 55.6H232.721ZM222.073 57.184C221.266 57.184 220.863 57.756 220.863 58.9C220.863 60.0587 221.266 60.638 222.073 60.638C222.469 60.638 222.777 60.4987 222.997 60.22C223.217 59.9267 223.327 59.4867 223.327 58.9C223.327 57.756 222.909 57.184 222.073 57.184ZM228.255 67.678C228.255 66.5487 228.577 65.676 229.223 65.06C229.883 64.4293 230.726 64.114 231.753 64.114C232.779 64.114 233.608 64.4293 234.239 65.06C234.884 65.676 235.207 66.5487 235.207 67.678C235.207 68.8073 234.884 69.6873 234.239 70.318C233.608 70.9487 232.779 71.264 231.753 71.264C230.711 71.264 229.868 70.9487 229.223 70.318C228.577 69.6873 228.255 68.8073 228.255 67.678ZM231.731 65.962C230.895 65.962 230.477 66.534 230.477 67.678C230.477 68.8367 230.895 69.416 231.731 69.416C232.552 69.416 232.963 68.8367 232.963 67.678C232.963 66.534 232.552 65.962 231.731 65.962Z" fill="#57B6AB"/>
<circle cx="157" cy="63" r="4" fill="#57B6AB"/>
<path d="M167.324 31.242V37.416C167.324 38.284 167.534 38.928 167.954 39.348C168.383 39.768 168.976 39.978 169.732 39.978C170.479 39.978 171.062 39.768 171.482 39.348C171.911 38.928 172.126 38.284 172.126 37.416V31.242H173.4V37.402C173.4 38.214 173.237 38.9 172.91 39.46C172.583 40.0107 172.14 40.4213 171.58 40.692C171.029 40.9627 170.409 41.098 169.718 41.098C169.027 41.098 168.402 40.9627 167.842 40.692C167.291 40.4213 166.853 40.0107 166.526 39.46C166.209 38.9 166.05 38.214 166.05 37.402V31.242H167.324ZM178.101 41.126C177.513 41.126 176.986 41.028 176.519 40.832C176.053 40.6267 175.684 40.3467 175.413 39.992C175.143 39.628 174.993 39.2127 174.965 38.746H176.281C176.319 39.1287 176.496 39.4413 176.813 39.684C177.14 39.9267 177.565 40.048 178.087 40.048C178.573 40.048 178.955 39.9407 179.235 39.726C179.515 39.5113 179.655 39.2407 179.655 38.914C179.655 38.578 179.506 38.3307 179.207 38.172C178.909 38.004 178.447 37.8407 177.821 37.682C177.252 37.5327 176.785 37.3833 176.421 37.234C176.067 37.0753 175.759 36.8467 175.497 36.548C175.245 36.24 175.119 35.8387 175.119 35.344C175.119 34.952 175.236 34.5927 175.469 34.266C175.703 33.9393 176.034 33.6827 176.463 33.496C176.893 33.3 177.383 33.202 177.933 33.202C178.783 33.202 179.469 33.4167 179.991 33.846C180.514 34.2753 180.794 34.8633 180.831 35.61H179.557C179.529 35.2087 179.366 34.8867 179.067 34.644C178.778 34.4013 178.386 34.28 177.891 34.28C177.434 34.28 177.07 34.378 176.799 34.574C176.529 34.77 176.393 35.0267 176.393 35.344C176.393 35.596 176.473 35.806 176.631 35.974C176.799 36.1327 177.005 36.2633 177.247 36.366C177.499 36.4593 177.845 36.5667 178.283 36.688C178.834 36.8373 179.282 36.9867 179.627 37.136C179.973 37.276 180.267 37.4907 180.509 37.78C180.761 38.0693 180.892 38.4473 180.901 38.914C180.901 39.334 180.785 39.712 180.551 40.048C180.318 40.384 179.987 40.65 179.557 40.846C179.137 41.0327 178.652 41.126 178.101 41.126ZM189.56 36.87C189.56 37.1127 189.546 37.3693 189.518 37.64H183.386C183.432 38.396 183.689 38.9887 184.156 39.418C184.632 39.838 185.206 40.048 185.878 40.048C186.428 40.048 186.886 39.922 187.25 39.67C187.623 39.4087 187.884 39.0633 188.034 38.634H189.406C189.2 39.3713 188.79 39.9733 188.174 40.44C187.558 40.8973 186.792 41.126 185.878 41.126C185.15 41.126 184.496 40.9627 183.918 40.636C183.348 40.3093 182.9 39.8473 182.574 39.25C182.247 38.6433 182.084 37.9433 182.084 37.15C182.084 36.3567 182.242 35.6613 182.56 35.064C182.877 34.4667 183.32 34.0093 183.89 33.692C184.468 33.3653 185.131 33.202 185.878 33.202C186.606 33.202 187.25 33.3607 187.81 33.678C188.37 33.9953 188.799 34.434 189.098 34.994C189.406 35.5447 189.56 36.17 189.56 36.87ZM188.244 36.604C188.244 36.1187 188.136 35.7033 187.922 35.358C187.707 35.0033 187.413 34.7373 187.04 34.56C186.676 34.3733 186.27 34.28 185.822 34.28C185.178 34.28 184.627 34.4853 184.17 34.896C183.722 35.3067 183.465 35.876 183.4 36.604H188.244ZM192.375 34.574C192.599 34.1353 192.917 33.7947 193.327 33.552C193.747 33.3093 194.256 33.188 194.853 33.188V34.504H194.517C193.089 34.504 192.375 35.2787 192.375 36.828V41H191.101V33.328H192.375V34.574ZM198.9 41.126C198.312 41.126 197.785 41.028 197.318 40.832C196.851 40.6267 196.483 40.3467 196.212 39.992C195.941 39.628 195.792 39.2127 195.764 38.746H197.08C197.117 39.1287 197.295 39.4413 197.612 39.684C197.939 39.9267 198.363 40.048 198.886 40.048C199.371 40.048 199.754 39.9407 200.034 39.726C200.314 39.5113 200.454 39.2407 200.454 38.914C200.454 38.578 200.305 38.3307 200.006 38.172C199.707 38.004 199.245 37.8407 198.62 37.682C198.051 37.5327 197.584 37.3833 197.22 37.234C196.865 37.0753 196.557 36.8467 196.296 36.548C196.044 36.24 195.918 35.8387 195.918 35.344C195.918 34.952 196.035 34.5927 196.268 34.266C196.501 33.9393 196.833 33.6827 197.262 33.496C197.691 33.3 198.181 33.202 198.732 33.202C199.581 33.202 200.267 33.4167 200.79 33.846C201.313 34.2753 201.593 34.8633 201.63 35.61H200.356C200.328 35.2087 200.165 34.8867 199.866 34.644C199.577 34.4013 199.185 34.28 198.69 34.28C198.233 34.28 197.869 34.378 197.598 34.574C197.327 34.77 197.192 35.0267 197.192 35.344C197.192 35.596 197.271 35.806 197.43 35.974C197.598 36.1327 197.803 36.2633 198.046 36.366C198.298 36.4593 198.643 36.5667 199.082 36.688C199.633 36.8373 200.081 36.9867 200.426 37.136C200.771 37.276 201.065 37.4907 201.308 37.78C201.56 38.0693 201.691 38.4473 201.7 38.914C201.7 39.334 201.583 39.712 201.35 40.048C201.117 40.384 200.785 40.65 200.356 40.846C199.936 41.0327 199.451 41.126 198.9 41.126Z" fill="#ACACAC"/>
<path d="M279.85 62.508C278.383 61.7453 277.65 60.5647 277.65 58.966C277.65 58.174 277.848 57.4553 278.244 56.81C278.655 56.15 279.263 55.6293 280.07 55.248C280.891 54.852 281.889 54.654 283.062 54.654C284.235 54.654 285.225 54.852 286.032 55.248C286.853 55.6293 287.462 56.15 287.858 56.81C288.269 57.4553 288.474 58.174 288.474 58.966C288.474 59.7727 288.276 60.484 287.88 61.1C287.484 61.7013 286.956 62.1707 286.296 62.508C287.103 62.86 287.733 63.3733 288.188 64.048C288.643 64.7227 288.87 65.522 288.87 66.446C288.87 67.4433 288.613 68.316 288.1 69.064C287.601 69.7973 286.912 70.362 286.032 70.758C285.152 71.154 284.162 71.352 283.062 71.352C281.962 71.352 280.972 71.154 280.092 70.758C279.227 70.362 278.537 69.7973 278.024 69.064C277.525 68.316 277.276 67.4433 277.276 66.446C277.276 65.522 277.503 64.7227 277.958 64.048C278.413 63.3587 279.043 62.8453 279.85 62.508ZM285.482 59.406C285.482 58.6873 285.262 58.13 284.822 57.734C284.397 57.338 283.81 57.14 283.062 57.14C282.329 57.14 281.742 57.338 281.302 57.734C280.877 58.13 280.664 58.6947 280.664 59.428C280.664 60.088 280.884 60.616 281.324 61.012C281.779 61.408 282.358 61.606 283.062 61.606C283.766 61.606 284.345 61.408 284.8 61.012C285.255 60.6013 285.482 60.066 285.482 59.406ZM283.062 63.85C282.226 63.85 281.544 64.0627 281.016 64.488C280.503 64.9133 280.246 65.522 280.246 66.314C280.246 67.0473 280.495 67.6487 280.994 68.118C281.507 68.5727 282.197 68.8 283.062 68.8C283.927 68.8 284.609 68.5653 285.108 68.096C285.607 67.6267 285.856 67.0327 285.856 66.314C285.856 65.5367 285.599 64.9353 285.086 64.51C284.573 64.07 283.898 63.85 283.062 63.85ZM292.799 71.154C292.241 71.154 291.779 70.9853 291.413 70.648C291.061 70.296 290.885 69.8633 290.885 69.35C290.885 68.8367 291.061 68.4113 291.413 68.074C291.779 67.722 292.241 67.546 292.799 67.546C293.341 67.546 293.789 67.722 294.141 68.074C294.493 68.4113 294.669 68.8367 294.669 69.35C294.669 69.8633 294.493 70.296 294.141 70.648C293.789 70.9853 293.341 71.154 292.799 71.154ZM296.578 62.772C296.578 60.2347 297.032 58.2473 297.942 56.81C298.866 55.3727 300.391 54.654 302.518 54.654C304.644 54.654 306.162 55.3727 307.072 56.81C307.996 58.2473 308.458 60.2347 308.458 62.772C308.458 65.324 307.996 67.326 307.072 68.778C306.162 70.23 304.644 70.956 302.518 70.956C300.391 70.956 298.866 70.23 297.942 68.778C297.032 67.326 296.578 65.324 296.578 62.772ZM305.422 62.772C305.422 61.6867 305.348 60.7773 305.202 60.044C305.07 59.296 304.791 58.6873 304.366 58.218C303.955 57.7487 303.339 57.514 302.518 57.514C301.696 57.514 301.073 57.7487 300.648 58.218C300.237 58.6873 299.958 59.296 299.812 60.044C299.68 60.7773 299.614 61.6867 299.614 62.772C299.614 63.8867 299.68 64.8253 299.812 65.588C299.944 66.336 300.222 66.9447 300.648 67.414C301.073 67.8687 301.696 68.096 302.518 68.096C303.339 68.096 303.962 67.8687 304.388 67.414C304.813 66.9447 305.092 66.336 305.224 65.588C305.356 64.8253 305.422 63.8867 305.422 62.772ZM310.624 59.186C310.698 57.7193 311.211 56.59 312.164 55.798C313.132 54.9913 314.401 54.588 315.97 54.588C317.041 54.588 317.958 54.7787 318.72 55.16C319.483 55.5267 320.055 56.0327 320.436 56.678C320.832 57.3087 321.03 58.0273 321.03 58.834C321.03 59.758 320.788 60.5427 320.304 61.188C319.835 61.8187 319.27 62.244 318.61 62.464V62.552C319.461 62.816 320.121 63.2853 320.59 63.96C321.074 64.6347 321.316 65.5 321.316 66.556C321.316 67.436 321.111 68.2207 320.7 68.91C320.304 69.5993 319.71 70.142 318.918 70.538C318.141 70.9193 317.202 71.11 316.102 71.11C314.445 71.11 313.096 70.692 312.054 69.856C311.013 69.02 310.463 67.788 310.404 66.16H313.396C313.426 66.8787 313.668 67.458 314.122 67.898C314.592 68.3233 315.23 68.536 316.036 68.536C316.784 68.536 317.356 68.3307 317.752 67.92C318.163 67.4947 318.368 66.952 318.368 66.292C318.368 65.412 318.09 64.7813 317.532 64.4C316.975 64.0187 316.11 63.828 314.936 63.828H314.298V61.298H314.936C317.019 61.298 318.06 60.6013 318.06 59.208C318.06 58.5773 317.87 58.086 317.488 57.734C317.122 57.382 316.586 57.206 315.882 57.206C315.193 57.206 314.658 57.3967 314.276 57.778C313.91 58.1447 313.697 58.614 313.638 59.186H310.624ZM323.178 58.9C323.178 57.7853 323.501 56.9127 324.146 56.282C324.806 55.6513 325.649 55.336 326.676 55.336C327.703 55.336 328.539 55.6513 329.184 56.282C329.844 56.9127 330.174 57.7853 330.174 58.9C330.174 60.0293 329.844 60.9093 329.184 61.54C328.539 62.1707 327.703 62.486 326.676 62.486C325.649 62.486 324.806 62.1707 324.146 61.54C323.501 60.9093 323.178 60.0293 323.178 58.9ZM337.302 55.6L328.656 71H325.664L334.288 55.6H337.302ZM326.654 57.184C325.847 57.184 325.444 57.756 325.444 58.9C325.444 60.0587 325.847 60.638 326.654 60.638C327.05 60.638 327.358 60.4987 327.578 60.22C327.798 59.9267 327.908 59.4867 327.908 58.9C327.908 57.756 327.49 57.184 326.654 57.184ZM332.836 67.678C332.836 66.5487 333.159 65.676 333.804 65.06C334.464 64.4293 335.307 64.114 336.334 64.114C337.361 64.114 338.189 64.4293 338.82 65.06C339.465 65.676 339.788 66.5487 339.788 67.678C339.788 68.8073 339.465 69.6873 338.82 70.318C338.189 70.9487 337.361 71.264 336.334 71.264C335.293 71.264 334.449 70.9487 333.804 70.318C333.159 69.6873 332.836 68.8073 332.836 67.678ZM336.312 65.962C335.476 65.962 335.058 66.534 335.058 67.678C335.058 68.8367 335.476 69.416 336.312 69.416C337.133 69.416 337.544 68.8367 337.544 67.678C337.544 66.534 337.133 65.962 336.312 65.962Z" fill="#F0603A"/>
<circle cx="268" cy="63" r="4" fill="#F0603A"/>
<path d="M283.084 31.242V32.278H280.424V41H279.15V32.278H276.476V31.242H283.084ZM291.512 36.87C291.512 37.1127 291.498 37.3693 291.47 37.64H285.338C285.385 38.396 285.642 38.9887 286.108 39.418C286.584 39.838 287.158 40.048 287.83 40.048C288.381 40.048 288.838 39.922 289.202 39.67C289.576 39.4087 289.837 39.0633 289.986 38.634H291.358C291.153 39.3713 290.742 39.9733 290.126 40.44C289.51 40.8973 288.745 41.126 287.83 41.126C287.102 41.126 286.449 40.9627 285.87 40.636C285.301 40.3093 284.853 39.8473 284.526 39.25C284.2 38.6433 284.036 37.9433 284.036 37.15C284.036 36.3567 284.195 35.6613 284.512 35.064C284.83 34.4667 285.273 34.0093 285.842 33.692C286.421 33.3653 287.084 33.202 287.83 33.202C288.558 33.202 289.202 33.3607 289.762 33.678C290.322 33.9953 290.752 34.434 291.05 34.994C291.358 35.5447 291.512 36.17 291.512 36.87ZM290.196 36.604C290.196 36.1187 290.089 35.7033 289.874 35.358C289.66 35.0033 289.366 34.7373 288.992 34.56C288.628 34.3733 288.222 34.28 287.774 34.28C287.13 34.28 286.58 34.4853 286.122 34.896C285.674 35.3067 285.418 35.876 285.352 36.604H290.196ZM292.578 37.136C292.578 36.352 292.737 35.666 293.054 35.078C293.371 34.4807 293.805 34.0187 294.356 33.692C294.916 33.3653 295.537 33.202 296.218 33.202C296.89 33.202 297.473 33.3467 297.968 33.636C298.463 33.9253 298.831 34.2893 299.074 34.728V33.328H300.362V41H299.074V39.572C298.822 40.02 298.444 40.3933 297.94 40.692C297.445 40.9813 296.867 41.126 296.204 41.126C295.523 41.126 294.907 40.958 294.356 40.622C293.805 40.286 293.371 39.8147 293.054 39.208C292.737 38.6013 292.578 37.9107 292.578 37.136ZM299.074 37.15C299.074 36.5713 298.957 36.0673 298.724 35.638C298.491 35.2087 298.173 34.882 297.772 34.658C297.38 34.4247 296.946 34.308 296.47 34.308C295.994 34.308 295.56 34.42 295.168 34.644C294.776 34.868 294.463 35.1947 294.23 35.624C293.997 36.0533 293.88 36.5573 293.88 37.136C293.88 37.724 293.997 38.2373 294.23 38.676C294.463 39.1053 294.776 39.4367 295.168 39.67C295.56 39.894 295.994 40.006 296.47 40.006C296.946 40.006 297.38 39.894 297.772 39.67C298.173 39.4367 298.491 39.1053 298.724 38.676C298.957 38.2373 299.074 37.7287 299.074 37.15ZM311.601 33.188C312.198 33.188 312.73 33.314 313.197 33.566C313.663 33.8087 314.032 34.1773 314.303 34.672C314.573 35.1667 314.709 35.7687 314.709 36.478V41H313.449V36.66C313.449 35.8947 313.257 35.3113 312.875 34.91C312.501 34.4993 311.993 34.294 311.349 34.294C310.686 34.294 310.159 34.5087 309.767 34.938C309.375 35.358 309.179 35.9693 309.179 36.772V41H307.919V36.66C307.919 35.8947 307.727 35.3113 307.345 34.91C306.971 34.4993 306.463 34.294 305.819 34.294C305.156 34.294 304.629 34.5087 304.237 34.938C303.845 35.358 303.649 35.9693 303.649 36.772V41H302.375V33.328H303.649V34.434C303.901 34.0327 304.237 33.7247 304.657 33.51C305.086 33.2953 305.557 33.188 306.071 33.188C306.715 33.188 307.284 33.3327 307.779 33.622C308.273 33.9113 308.642 34.336 308.885 34.896C309.099 34.3547 309.454 33.9347 309.949 33.636C310.443 33.3373 310.994 33.188 311.601 33.188Z" fill="#ACACAC"/>
<g filter="url(#filter0_d_1321_589)">
<circle cx="186.5" cy="220.5" r="114.5" fill="white"/>
</g>
<circle cx="186.5" cy="220.5" r="74.5" stroke="#F1EFFB" stroke-width="20"/>
<g filter="url(#filter1_d_1321_589)">
<path d="M186.5 130C204.399 130 221.896 135.308 236.779 145.252C251.662 155.196 263.261 169.33 270.111 185.867C276.961 202.404 278.753 220.6 275.261 238.156C271.769 255.711 263.15 271.837 250.493 284.493C237.837 297.15 221.711 305.769 204.156 309.261C186.6 312.753 168.404 310.961 151.867 304.111C135.33 297.261 121.196 285.662 111.252 270.779C101.308 255.896 96 238.399 96 220.5L127.658 220.5C127.658 232.138 131.109 243.514 137.575 253.191C144.04 262.867 153.23 270.409 163.982 274.863C174.734 279.316 186.565 280.482 197.979 278.211C209.394 275.941 219.878 270.337 228.108 262.108C236.337 253.878 241.941 243.394 244.211 231.979C246.482 220.565 245.316 208.734 240.863 197.982C236.409 187.23 228.867 178.04 219.191 171.575C209.514 165.109 198.138 161.658 186.5 161.658L186.5 130Z" fill="url(#paint0_linear_1321_589)"/>
</g>
<g filter="url(#filter2_d_1321_589)">
<path d="M111.925 169.229C120.365 156.952 131.705 146.949 144.94 140.107C158.174 133.266 172.893 129.797 187.789 130.009L187.338 161.664C177.653 161.526 168.083 163.781 159.478 168.23C150.873 172.678 143.5 179.182 138.012 187.164L111.925 169.229Z" fill="url(#paint1_linear_1321_589)"/>
</g>
<g filter="url(#filter3_d_1321_589)">
<path d="M96 220.5C96 202.259 101.512 184.443 111.814 169.389L137.94 187.268C131.242 197.056 127.658 208.64 127.658 220.5L96 220.5Z" fill="url(#paint2_linear_1321_589)"/>
</g>
<path opacity="0.4" d="M178.011 206.636V207.524H175.731V215H174.639V207.524H172.347V206.636H178.011ZM182.103 215.108C181.487 215.108 180.927 214.968 180.423 214.688C179.927 214.408 179.535 214.012 179.247 213.5C178.967 212.98 178.827 212.38 178.827 211.7C178.827 211.028 178.971 210.436 179.259 209.924C179.555 209.404 179.955 209.008 180.459 208.736C180.963 208.456 181.527 208.316 182.151 208.316C182.775 208.316 183.339 208.456 183.843 208.736C184.347 209.008 184.743 209.4 185.031 209.912C185.327 210.424 185.475 211.02 185.475 211.7C185.475 212.38 185.323 212.98 185.019 213.5C184.723 214.012 184.319 214.408 183.807 214.688C183.295 214.968 182.727 215.108 182.103 215.108ZM182.103 214.148C182.495 214.148 182.863 214.056 183.207 213.872C183.551 213.688 183.827 213.412 184.035 213.044C184.251 212.676 184.359 212.228 184.359 211.7C184.359 211.172 184.255 210.724 184.047 210.356C183.839 209.988 183.567 209.716 183.231 209.54C182.895 209.356 182.531 209.264 182.139 209.264C181.739 209.264 181.371 209.356 181.035 209.54C180.707 209.716 180.443 209.988 180.243 210.356C180.043 210.724 179.943 211.172 179.943 211.7C179.943 212.236 180.039 212.688 180.231 213.056C180.431 213.424 180.695 213.7 181.023 213.884C181.351 214.06 181.711 214.148 182.103 214.148ZM188.123 209.324V213.2C188.123 213.52 188.191 213.748 188.327 213.884C188.463 214.012 188.699 214.076 189.035 214.076H189.839V215H188.855C188.247 215 187.791 214.86 187.487 214.58C187.183 214.3 187.031 213.84 187.031 213.2V209.324H186.179V208.424H187.031V206.768H188.123V208.424H189.839V209.324H188.123ZM190.634 211.688C190.634 211.016 190.77 210.428 191.042 209.924C191.314 209.412 191.686 209.016 192.158 208.736C192.638 208.456 193.17 208.316 193.754 208.316C194.33 208.316 194.83 208.44 195.254 208.688C195.678 208.936 195.994 209.248 196.202 209.624V208.424H197.306V215H196.202V213.776C195.986 214.16 195.662 214.48 195.23 214.736C194.806 214.984 194.31 215.108 193.742 215.108C193.158 215.108 192.63 214.964 192.158 214.676C191.686 214.388 191.314 213.984 191.042 213.464C190.77 212.944 190.634 212.352 190.634 211.688ZM196.202 211.7C196.202 211.204 196.102 210.772 195.902 210.404C195.702 210.036 195.43 209.756 195.086 209.564C194.75 209.364 194.378 209.264 193.97 209.264C193.562 209.264 193.19 209.36 192.854 209.552C192.518 209.744 192.25 210.024 192.05 210.392C191.85 210.76 191.75 211.192 191.75 211.688C191.75 212.192 191.85 212.632 192.05 213.008C192.25 213.376 192.518 213.66 192.854 213.86C193.19 214.052 193.562 214.148 193.97 214.148C194.378 214.148 194.75 214.052 195.086 213.86C195.43 213.66 195.702 213.376 195.902 213.008C196.102 212.632 196.202 212.196 196.202 211.7ZM200.124 206.12V215H199.032V206.12H200.124ZM157.106 224.636V225.524H154.826V233H153.734V225.524H151.442V224.636H157.106ZM161.198 233.108C160.582 233.108 160.022 232.968 159.518 232.688C159.022 232.408 158.63 232.012 158.342 231.5C158.062 230.98 157.922 230.38 157.922 229.7C157.922 229.028 158.066 228.436 158.354 227.924C158.65 227.404 159.05 227.008 159.554 226.736C160.058 226.456 160.622 226.316 161.246 226.316C161.87 226.316 162.434 226.456 162.938 226.736C163.442 227.008 163.838 227.4 164.126 227.912C164.422 228.424 164.57 229.02 164.57 229.7C164.57 230.38 164.418 230.98 164.114 231.5C163.818 232.012 163.414 232.408 162.902 232.688C162.39 232.968 161.822 233.108 161.198 233.108ZM161.198 232.148C161.59 232.148 161.958 232.056 162.302 231.872C162.646 231.688 162.922 231.412 163.13 231.044C163.346 230.676 163.454 230.228 163.454 229.7C163.454 229.172 163.35 228.724 163.142 228.356C162.934 227.988 162.662 227.716 162.326 227.54C161.99 227.356 161.626 227.264 161.234 227.264C160.834 227.264 160.466 227.356 160.13 227.54C159.802 227.716 159.538 227.988 159.338 228.356C159.138 228.724 159.038 229.172 159.038 229.7C159.038 230.236 159.134 230.688 159.326 231.056C159.526 231.424 159.79 231.7 160.118 231.884C160.446 232.06 160.806 232.148 161.198 232.148ZM169.558 233L166.978 230.096V233H165.886V224.12H166.978V229.34L169.51 226.424H171.034L167.938 229.7L171.046 233H169.558ZM177.942 229.46C177.942 229.668 177.93 229.888 177.906 230.12H172.65C172.69 230.768 172.91 231.276 173.31 231.644C173.718 232.004 174.21 232.184 174.786 232.184C175.258 232.184 175.65 232.076 175.962 231.86C176.282 231.636 176.506 231.34 176.634 230.972H177.81C177.634 231.604 177.282 232.12 176.754 232.52C176.226 232.912 175.57 233.108 174.786 233.108C174.162 233.108 173.602 232.968 173.106 232.688C172.618 232.408 172.234 232.012 171.954 231.5C171.674 230.98 171.534 230.38 171.534 229.7C171.534 229.02 171.67 228.424 171.942 227.912C172.214 227.4 172.594 227.008 173.082 226.736C173.578 226.456 174.146 226.316 174.786 226.316C175.41 226.316 175.962 226.452 176.442 226.724C176.922 226.996 177.29 227.372 177.546 227.852C177.81 228.324 177.942 228.86 177.942 229.46ZM176.814 229.232C176.814 228.816 176.722 228.46 176.538 228.164C176.354 227.86 176.102 227.632 175.782 227.48C175.47 227.32 175.122 227.24 174.738 227.24C174.186 227.24 173.714 227.416 173.322 227.768C172.938 228.12 172.718 228.608 172.662 229.232H176.814ZM182.467 226.304C183.267 226.304 183.915 226.548 184.411 227.036C184.907 227.516 185.155 228.212 185.155 229.124V233H184.075V229.28C184.075 228.624 183.911 228.124 183.583 227.78C183.255 227.428 182.807 227.252 182.239 227.252C181.663 227.252 181.203 227.432 180.859 227.792C180.523 228.152 180.355 228.676 180.355 229.364V233H179.263V226.424H180.355V227.36C180.571 227.024 180.863 226.764 181.231 226.58C181.607 226.396 182.019 226.304 182.467 226.304ZM189.687 233.108C189.071 233.108 188.511 232.968 188.007 232.688C187.511 232.408 187.119 232.012 186.831 231.5C186.551 230.98 186.411 230.38 186.411 229.7C186.411 229.028 186.555 228.436 186.843 227.924C187.139 227.404 187.539 227.008 188.043 226.736C188.547 226.456 189.111 226.316 189.735 226.316C190.359 226.316 190.923 226.456 191.427 226.736C191.931 227.008 192.327 227.4 192.615 227.912C192.911 228.424 193.059 229.02 193.059 229.7C193.059 230.38 192.907 230.98 192.603 231.5C192.307 232.012 191.903 232.408 191.391 232.688C190.879 232.968 190.311 233.108 189.687 233.108ZM189.687 232.148C190.079 232.148 190.447 232.056 190.791 231.872C191.135 231.688 191.411 231.412 191.619 231.044C191.835 230.676 191.943 230.228 191.943 229.7C191.943 229.172 191.839 228.724 191.631 228.356C191.423 227.988 191.151 227.716 190.815 227.54C190.479 227.356 190.115 227.264 189.723 227.264C189.323 227.264 188.955 227.356 188.619 227.54C188.291 227.716 188.027 227.988 187.827 228.356C187.627 228.724 187.527 229.172 187.527 229.7C187.527 230.236 187.623 230.688 187.815 231.056C188.015 231.424 188.279 231.7 188.607 231.884C188.935 232.06 189.295 232.148 189.687 232.148ZM202.283 226.304C202.795 226.304 203.251 226.412 203.651 226.628C204.051 226.836 204.367 227.152 204.599 227.576C204.831 228 204.947 228.516 204.947 229.124V233H203.867V229.28C203.867 228.624 203.703 228.124 203.375 227.78C203.055 227.428 202.619 227.252 202.067 227.252C201.499 227.252 201.047 227.436 200.711 227.804C200.375 228.164 200.207 228.688 200.207 229.376V233H199.127V229.28C199.127 228.624 198.963 228.124 198.635 227.78C198.315 227.428 197.879 227.252 197.327 227.252C196.759 227.252 196.307 227.436 195.971 227.804C195.635 228.164 195.467 228.688 195.467 229.376V233H194.375V226.424H195.467V227.372C195.683 227.028 195.971 226.764 196.331 226.58C196.699 226.396 197.103 226.304 197.543 226.304C198.095 226.304 198.583 226.428 199.007 226.676C199.431 226.924 199.747 227.288 199.955 227.768C200.139 227.304 200.443 226.944 200.867 226.688C201.291 226.432 201.763 226.304 202.283 226.304ZM207.182 225.356C206.974 225.356 206.798 225.284 206.654 225.14C206.51 224.996 206.438 224.82 206.438 224.612C206.438 224.404 206.51 224.228 206.654 224.084C206.798 223.94 206.974 223.868 207.182 223.868C207.382 223.868 207.55 223.94 207.686 224.084C207.83 224.228 207.902 224.404 207.902 224.612C207.902 224.82 207.83 224.996 207.686 225.14C207.55 225.284 207.382 225.356 207.182 225.356ZM207.71 226.424V233H206.618V226.424H207.71ZM209.043 229.7C209.043 229.02 209.179 228.428 209.451 227.924C209.723 227.412 210.099 227.016 210.579 226.736C211.067 226.456 211.623 226.316 212.247 226.316C213.055 226.316 213.719 226.512 214.239 226.904C214.767 227.296 215.115 227.84 215.283 228.536H214.107C213.995 228.136 213.775 227.82 213.447 227.588C213.127 227.356 212.727 227.24 212.247 227.24C211.623 227.24 211.119 227.456 210.735 227.888C210.351 228.312 210.159 228.916 210.159 229.7C210.159 230.492 210.351 231.104 210.735 231.536C211.119 231.968 211.623 232.184 212.247 232.184C212.727 232.184 213.127 232.072 213.447 231.848C213.767 231.624 213.987 231.304 214.107 230.888H215.283C215.107 231.56 214.755 232.1 214.227 232.508C213.699 232.908 213.039 233.108 212.247 233.108C211.623 233.108 211.067 232.968 210.579 232.688C210.099 232.408 209.723 232.012 209.451 231.5C209.179 230.988 209.043 230.388 209.043 229.7ZM218.948 233.108C218.444 233.108 217.992 233.024 217.592 232.856C217.192 232.68 216.876 232.44 216.644 232.136C216.412 231.824 216.284 231.468 216.26 231.068H217.388C217.42 231.396 217.572 231.664 217.844 231.872C218.124 232.08 218.488 232.184 218.936 232.184C219.352 232.184 219.68 232.092 219.92 231.908C220.16 231.724 220.28 231.492 220.28 231.212C220.28 230.924 220.152 230.712 219.896 230.576C219.64 230.432 219.244 230.292 218.708 230.156C218.22 230.028 217.82 229.9 217.508 229.772C217.204 229.636 216.94 229.44 216.716 229.184C216.5 228.92 216.392 228.576 216.392 228.152C216.392 227.816 216.492 227.508 216.692 227.228C216.892 226.948 217.176 226.728 217.544 226.568C217.912 226.4 218.332 226.316 218.804 226.316C219.532 226.316 220.12 226.5 220.568 226.868C221.016 227.236 221.256 227.74 221.288 228.38H220.196C220.172 228.036 220.032 227.76 219.776 227.552C219.528 227.344 219.192 227.24 218.768 227.24C218.376 227.24 218.064 227.324 217.832 227.492C217.6 227.66 217.484 227.88 217.484 228.152C217.484 228.368 217.552 228.548 217.688 228.692C217.832 228.828 218.008 228.94 218.216 229.028C218.432 229.108 218.728 229.2 219.104 229.304C219.576 229.432 219.96 229.56 220.256 229.688C220.552 229.808 220.804 229.992 221.012 230.24C221.228 230.488 221.34 230.812 221.348 231.212C221.348 231.572 221.248 231.896 221.048 232.184C220.848 232.472 220.564 232.7 220.196 232.868C219.836 233.028 219.42 233.108 218.948 233.108Z" fill="#1E2029"/>
<path d="M55.374 57.294L49.522 71H46.398L52.294 57.646H44.77V55.006H55.374V57.294ZM67.7787 57.624H60.6507V61.386C60.9587 61.0047 61.3987 60.6967 61.9707 60.462C62.5427 60.2127 63.1514 60.088 63.7967 60.088C64.9701 60.088 65.9307 60.3447 66.6787 60.858C67.4267 61.3713 67.9694 62.0313 68.3067 62.838C68.6441 63.63 68.8127 64.4807 68.8127 65.39C68.8127 67.0767 68.3287 68.4333 67.3607 69.46C66.4074 70.4867 65.0434 71 63.2687 71C61.5967 71 60.2621 70.582 59.2647 69.746C58.2674 68.91 57.7027 67.8173 57.5707 66.468H60.5627C60.6947 67.0547 60.9881 67.524 61.4427 67.876C61.9121 68.228 62.5061 68.404 63.2247 68.404C64.0901 68.404 64.7427 68.1327 65.1827 67.59C65.6227 67.0473 65.8427 66.3287 65.8427 65.434C65.8427 64.5247 65.6154 63.8353 65.1607 63.366C64.7207 62.882 64.0681 62.64 63.2027 62.64C62.5867 62.64 62.0734 62.794 61.6627 63.102C61.2521 63.41 60.9587 63.8207 60.7827 64.334H57.8347V54.918H67.7787V57.624ZM72.6529 71.154C72.0956 71.154 71.6336 70.9853 71.2669 70.648C70.9149 70.296 70.7389 69.8633 70.7389 69.35C70.7389 68.8367 70.9149 68.4113 71.2669 68.074C71.6336 67.722 72.0956 67.546 72.6529 67.546C73.1956 67.546 73.6429 67.722 73.9949 68.074C74.3469 68.4113 74.5229 68.8367 74.5229 69.35C74.5229 69.8633 74.3469 70.296 73.9949 70.648C73.6429 70.9853 73.1956 71.154 72.6529 71.154ZM76.4758 59.186C76.5491 57.7193 77.0624 56.59 78.0158 55.798C78.9838 54.9913 80.2524 54.588 81.8218 54.588C82.8924 54.588 83.8091 54.7787 84.5718 55.16C85.3344 55.5267 85.9064 56.0327 86.2878 56.678C86.6838 57.3087 86.8818 58.0273 86.8818 58.834C86.8818 59.758 86.6398 60.5427 86.1558 61.188C85.6864 61.8187 85.1218 62.244 84.4618 62.464V62.552C85.3124 62.816 85.9724 63.2853 86.4418 63.96C86.9258 64.6347 87.1678 65.5 87.1678 66.556C87.1678 67.436 86.9624 68.2207 86.5518 68.91C86.1558 69.5993 85.5618 70.142 84.7698 70.538C83.9924 70.9193 83.0538 71.11 81.9538 71.11C80.2964 71.11 78.9471 70.692 77.9058 69.856C76.8644 69.02 76.3144 67.788 76.2558 66.16H79.2478C79.2771 66.8787 79.5191 67.458 79.9738 67.898C80.4431 68.3233 81.0811 68.536 81.8878 68.536C82.6358 68.536 83.2078 68.3307 83.6038 67.92C84.0144 67.4947 84.2198 66.952 84.2198 66.292C84.2198 65.412 83.9411 64.7813 83.3838 64.4C82.8264 64.0187 81.9611 63.828 80.7878 63.828H80.1498V61.298H80.7878C82.8704 61.298 83.9118 60.6013 83.9118 59.208C83.9118 58.5773 83.7211 58.086 83.3398 57.734C82.9731 57.382 82.4378 57.206 81.7338 57.206C81.0444 57.206 80.5091 57.3967 80.1278 57.778C79.7611 58.1447 79.5484 58.614 79.4898 59.186H76.4758ZM89.3817 62.772C89.3817 60.2347 89.8364 58.2473 90.7457 56.81C91.6697 55.3727 93.195 54.654 95.3217 54.654C97.4484 54.654 98.9664 55.3727 99.8757 56.81C100.8 58.2473 101.262 60.2347 101.262 62.772C101.262 65.324 100.8 67.326 99.8757 68.778C98.9664 70.23 97.4484 70.956 95.3217 70.956C93.195 70.956 91.6697 70.23 90.7457 68.778C89.8364 67.326 89.3817 65.324 89.3817 62.772ZM98.2257 62.772C98.2257 61.6867 98.1524 60.7773 98.0057 60.044C97.8737 59.296 97.595 58.6873 97.1697 58.218C96.759 57.7487 96.143 57.514 95.3217 57.514C94.5004 57.514 93.877 57.7487 93.4517 58.218C93.041 58.6873 92.7624 59.296 92.6157 60.044C92.4837 60.7773 92.4177 61.6867 92.4177 62.772C92.4177 63.8867 92.4837 64.8253 92.6157 65.588C92.7477 66.336 93.0264 66.9447 93.4517 67.414C93.877 67.8687 94.5004 68.096 95.3217 68.096C96.143 68.096 96.7664 67.8687 97.1917 67.414C97.617 66.9447 97.8957 66.336 98.0277 65.588C98.1597 64.8253 98.2257 63.8867 98.2257 62.772ZM103.032 58.9C103.032 57.7853 103.355 56.9127 104 56.282C104.66 55.6513 105.504 55.336 106.53 55.336C107.557 55.336 108.393 55.6513 109.038 56.282C109.698 56.9127 110.028 57.7853 110.028 58.9C110.028 60.0293 109.698 60.9093 109.038 61.54C108.393 62.1707 107.557 62.486 106.53 62.486C105.504 62.486 104.66 62.1707 104 61.54C103.355 60.9093 103.032 60.0293 103.032 58.9ZM117.156 55.6L108.51 71H105.518L114.142 55.6H117.156ZM106.508 57.184C105.702 57.184 105.298 57.756 105.298 58.9C105.298 60.0587 105.702 60.638 106.508 60.638C106.904 60.638 107.212 60.4987 107.432 60.22C107.652 59.9267 107.762 59.4867 107.762 58.9C107.762 57.756 107.344 57.184 106.508 57.184ZM112.69 67.678C112.69 66.5487 113.013 65.676 113.658 65.06C114.318 64.4293 115.162 64.114 116.188 64.114C117.215 64.114 118.044 64.4293 118.674 65.06C119.32 65.676 119.642 66.5487 119.642 67.678C119.642 68.8073 119.32 69.6873 118.674 70.318C118.044 70.9487 117.215 71.264 116.188 71.264C115.147 71.264 114.304 70.9487 113.658 70.318C113.013 69.6873 112.69 68.8073 112.69 67.678ZM116.166 65.962C115.33 65.962 114.912 66.534 114.912 67.678C114.912 68.8367 115.33 69.416 116.166 69.416C116.988 69.416 117.398 68.8367 117.398 67.678C117.398 66.534 116.988 65.962 116.166 65.962Z" fill="#554FD8"/>
<path d="M44.602 36.114C44.602 35.162 44.8167 34.308 45.246 33.552C45.6753 32.7867 46.2587 32.1893 46.996 31.76C47.7427 31.3307 48.5687 31.116 49.474 31.116C50.538 31.116 51.4667 31.3727 52.26 31.886C53.0533 32.3993 53.632 33.1273 53.996 34.07H52.47C52.1993 33.482 51.8073 33.0293 51.294 32.712C50.79 32.3947 50.1833 32.236 49.474 32.236C48.7927 32.236 48.1813 32.3947 47.64 32.712C47.0987 33.0293 46.674 33.482 46.366 34.07C46.058 34.6487 45.904 35.33 45.904 36.114C45.904 36.8887 46.058 37.57 46.366 38.158C46.674 38.7367 47.0987 39.1847 47.64 39.502C48.1813 39.8193 48.7927 39.978 49.474 39.978C50.1833 39.978 50.79 39.824 51.294 39.516C51.8073 39.1987 52.1993 38.746 52.47 38.158H53.996C53.632 39.0913 53.0533 39.8147 52.26 40.328C51.4667 40.832 50.538 41.084 49.474 41.084C48.5687 41.084 47.7427 40.874 46.996 40.454C46.2587 40.0247 45.6753 39.432 45.246 38.676C44.8167 37.92 44.602 37.066 44.602 36.114ZM59.0985 41.126C58.3798 41.126 57.7265 40.9627 57.1385 40.636C56.5598 40.3093 56.1025 39.8473 55.7665 39.25C55.4398 38.6433 55.2765 37.9433 55.2765 37.15C55.2765 36.366 55.4445 35.6753 55.7805 35.078C56.1258 34.4713 56.5925 34.0093 57.1805 33.692C57.7685 33.3653 58.4265 33.202 59.1545 33.202C59.8825 33.202 60.5405 33.3653 61.1285 33.692C61.7165 34.0093 62.1785 34.4667 62.5145 35.064C62.8598 35.6613 63.0325 36.3567 63.0325 37.15C63.0325 37.9433 62.8551 38.6433 62.5005 39.25C62.1551 39.8473 61.6838 40.3093 61.0865 40.636C60.4891 40.9627 59.8265 41.126 59.0985 41.126ZM59.0985 40.006C59.5558 40.006 59.9851 39.8987 60.3865 39.684C60.7878 39.4693 61.1098 39.1473 61.3525 38.718C61.6045 38.2887 61.7305 37.766 61.7305 37.15C61.7305 36.534 61.6091 36.0113 61.3665 35.582C61.1238 35.1527 60.8065 34.8353 60.4145 34.63C60.0225 34.4153 59.5978 34.308 59.1405 34.308C58.6738 34.308 58.2445 34.4153 57.8525 34.63C57.4698 34.8353 57.1618 35.1527 56.9285 35.582C56.6951 36.0113 56.5785 36.534 56.5785 37.15C56.5785 37.7753 56.6905 38.3027 56.9145 38.732C57.1478 39.1613 57.4558 39.4833 57.8385 39.698C58.2211 39.9033 58.6411 40.006 59.0985 40.006ZM73.7935 33.188C74.3909 33.188 74.9229 33.314 75.3895 33.566C75.8562 33.8087 76.2249 34.1773 76.4955 34.672C76.7662 35.1667 76.9015 35.7687 76.9015 36.478V41H75.6415V36.66C75.6415 35.8947 75.4502 35.3113 75.0675 34.91C74.6942 34.4993 74.1855 34.294 73.5415 34.294C72.8789 34.294 72.3515 34.5087 71.9595 34.938C71.5675 35.358 71.3715 35.9693 71.3715 36.772V41H70.1115V36.66C70.1115 35.8947 69.9202 35.3113 69.5375 34.91C69.1642 34.4993 68.6555 34.294 68.0115 34.294C67.3489 34.294 66.8215 34.5087 66.4295 34.938C66.0375 35.358 65.8415 35.9693 65.8415 36.772V41H64.5675V33.328H65.8415V34.434C66.0935 34.0327 66.4295 33.7247 66.8495 33.51C67.2789 33.2953 67.7502 33.188 68.2635 33.188C68.9075 33.188 69.4769 33.3327 69.9715 33.622C70.4662 33.9113 70.8349 34.336 71.0775 34.896C71.2922 34.3547 71.6469 33.9347 72.1415 33.636C72.6362 33.3373 73.1869 33.188 73.7935 33.188ZM88.0774 33.188C88.6747 33.188 89.2067 33.314 89.6734 33.566C90.14 33.8087 90.5087 34.1773 90.7794 34.672C91.05 35.1667 91.1854 35.7687 91.1854 36.478V41H89.9254V36.66C89.9254 35.8947 89.734 35.3113 89.3514 34.91C88.978 34.4993 88.4694 34.294 87.8254 34.294C87.1627 34.294 86.6354 34.5087 86.2434 34.938C85.8514 35.358 85.6554 35.9693 85.6554 36.772V41H84.3954V36.66C84.3954 35.8947 84.204 35.3113 83.8214 34.91C83.448 34.4993 82.9394 34.294 82.2954 34.294C81.6327 34.294 81.1054 34.5087 80.7134 34.938C80.3214 35.358 80.1254 35.9693 80.1254 36.772V41H78.8514V33.328H80.1254V34.434C80.3774 34.0327 80.7134 33.7247 81.1334 33.51C81.5627 33.2953 82.034 33.188 82.5474 33.188C83.1914 33.188 83.7607 33.3327 84.2554 33.622C84.75 33.9113 85.1187 34.336 85.3614 34.896C85.576 34.3547 85.9307 33.9347 86.4254 33.636C86.92 33.3373 87.4707 33.188 88.0774 33.188ZM99.9392 33.328V41H98.6652V39.866C98.4225 40.258 98.0819 40.566 97.6432 40.79C97.2139 41.0047 96.7379 41.112 96.2152 41.112C95.6179 41.112 95.0812 40.9907 94.6052 40.748C94.1292 40.496 93.7512 40.1227 93.4712 39.628C93.2005 39.1333 93.0652 38.5313 93.0652 37.822V33.328H94.3252V37.654C94.3252 38.41 94.5165 38.9933 94.8992 39.404C95.2819 39.8053 95.8045 40.006 96.4672 40.006C97.1485 40.006 97.6852 39.796 98.0772 39.376C98.4692 38.956 98.6652 38.3447 98.6652 37.542V33.328H99.9392ZM105.688 33.188C106.622 33.188 107.378 33.4727 107.956 34.042C108.535 34.602 108.824 35.414 108.824 36.478V41H107.564V36.66C107.564 35.8947 107.373 35.3113 106.99 34.91C106.608 34.4993 106.085 34.294 105.422 34.294C104.75 34.294 104.214 34.504 103.812 34.924C103.42 35.344 103.224 35.9553 103.224 36.758V41H101.95V33.328H103.224V34.42C103.476 34.028 103.817 33.7247 104.246 33.51C104.685 33.2953 105.166 33.188 105.688 33.188ZM111.423 32.082C111.181 32.082 110.975 31.998 110.807 31.83C110.639 31.662 110.555 31.4567 110.555 31.214C110.555 30.9713 110.639 30.766 110.807 30.598C110.975 30.43 111.181 30.346 111.423 30.346C111.657 30.346 111.853 30.43 112.011 30.598C112.179 30.766 112.263 30.9713 112.263 31.214C112.263 31.4567 112.179 31.662 112.011 31.83C111.853 31.998 111.657 32.082 111.423 32.082ZM112.039 33.328V41H110.765V33.328H112.039ZM115.625 34.378V38.9C115.625 39.2733 115.704 39.5393 115.863 39.698C116.021 39.8473 116.297 39.922 116.689 39.922H117.627V41H116.479C115.769 41 115.237 40.8367 114.883 40.51C114.528 40.1833 114.351 39.6467 114.351 38.9V34.378H113.357V33.328H114.351V31.396H115.625V33.328H117.627V34.378H115.625ZM125.638 33.328L121.018 44.612H119.702L121.214 40.916L118.12 33.328H119.534L121.942 39.544L124.322 33.328H125.638Z" fill="#ACACAC"/>
<circle cx="36" cy="63" r="4" fill="#554FD8"/>
<defs>
<filter id="filter0_d_1321_589" x="12" y="56" width="349" height="349" filterUnits="userSpaceOnUse" color-interpolation-filters="sRGB">
<feFlood flood-opacity="0" result="BackgroundImageFix"/>
<feColorMatrix in="SourceAlpha" type="matrix" values="0 0 0 0 0 0 0 0 0 0 0 0 0 0 0 0 0 0 127 0" result="hardAlpha"/>
<feOffset dy="10"/>
<feGaussianBlur stdDeviation="30"/>
<feComposite in2="hardAlpha" operator="out"/>
<feColorMatrix type="matrix" values="0 0 0 0 0.885625 0 0 0 0 0.92625 0 0 0 0 0.975 0 0 0 0.5 0"/>
<feBlend mode="normal" in2="BackgroundImageFix" result="effect1_dropShadow_1321_589"/>
<feBlend mode="normal" in="SourceGraphic" in2="effect1_dropShadow_1321_589" result="shape"/>
</filter>
<filter id="filter1_d_1321_589" x="82" y="120" width="209" height="209" filterUnits="userSpaceOnUse" color-interpolation-filters="sRGB">
<feFlood flood-opacity="0" result="BackgroundImageFix"/>
<feColorMatrix in="SourceAlpha" type="matrix" values="0 0 0 0 0 0 0 0 0 0 0 0 0 0 0 0 0 0 127 0" result="hardAlpha"/>
<feOffset dy="4"/>
<feGaussianBlur stdDeviation="7"/>
<feComposite in2="hardAlpha" operator="out"/>
<feColorMatrix type="matrix" values="0 0 0 0 0.329412 0 0 0 0 0.309804 0 0 0 0 0.835294 0 0 0 0.32 0"/>
<feBlend mode="normal" in2="BackgroundImageFix" result="effect1_dropShadow_1321_589"/>
<feBlend mode="normal" in="SourceGraphic" in2="effect1_dropShadow_1321_589" result="shape"/>
</filter>
<filter id="filter2_d_1321_589" x="97.9246" y="120" width="103.865" height="85.1641" filterUnits="userSpaceOnUse" color-interpolation-filters="sRGB">
<feFlood flood-opacity="0" result="BackgroundImageFix"/>
<feColorMatrix in="SourceAlpha" type="matrix" values="0 0 0 0 0 0 0 0 0 0 0 0 0 0 0 0 0 0 127 0" result="hardAlpha"/>
<feOffset dy="4"/>
<feGaussianBlur stdDeviation="7"/>
<feComposite in2="hardAlpha" operator="out"/>
<feColorMatrix type="matrix" values="0 0 0 0 0.376471 0 0 0 0 0.694118 0 0 0 0 0.647059 0 0 0 0.32 0"/>
<feBlend mode="normal" in2="BackgroundImageFix" result="effect1_dropShadow_1321_589"/>
<feBlend mode="normal" in="SourceGraphic" in2="effect1_dropShadow_1321_589" result="shape"/>
</filter>
<filter id="filter3_d_1321_589" x="82" y="159.389" width="69.9404" height="79.1108" filterUnits="userSpaceOnUse" color-interpolation-filters="sRGB">
<feFlood flood-opacity="0" result="BackgroundImageFix"/>
<feColorMatrix in="SourceAlpha" type="matrix" values="0 0 0 0 0 0 0 0 0 0 0 0 0 0 0 0 0 0 127 0" result="hardAlpha"/>
<feOffset dy="4"/>
<feGaussianBlur stdDeviation="7"/>
<feComposite in2="hardAlpha" operator="out"/>
<feColorMatrix type="matrix" values="0 0 0 0 0.941176 0 0 0 0 0.376471 0 0 0 0 0.227451 0 0 0 0.32 0"/>
<feBlend mode="normal" in2="BackgroundImageFix" result="effect1_dropShadow_1321_589"/>
<feBlend mode="normal" in="SourceGraphic" in2="effect1_dropShadow_1321_589" result="shape"/>
</filter>
<linearGradient id="paint0_linear_1321_589" x1="187" y1="155" x2="259.212" y2="203.513" gradientUnits="userSpaceOnUse">
<stop stop-color="#A8A3F0"/>
<stop offset="1" stop-color="#544FD5"/>
</linearGradient>
<linearGradient id="paint1_linear_1321_589" x1="187" y1="145" x2="183.797" y2="175.767" gradientUnits="userSpaceOnUse">
<stop stop-color="#A3EBE4"/>
<stop offset="1" stop-color="#57B6AB"/>
</linearGradient>
<linearGradient id="paint2_linear_1321_589" x1="145.5" y1="182.5" x2="138.58" y2="214.801" gradientUnits="userSpaceOnUse">
<stop stop-color="#FBB59C"/>
<stop offset="1" stop-color="#F0603A"/>
</linearGradient>
</defs>
</svg>
