<svg width="97" height="97" viewBox="0 0 97 97" fill="none" xmlns="http://www.w3.org/2000/svg">
<path d="M48.5014 4.1339C23.9988 4.1339 4.13553 23.9972 4.13552 48.4997C4.13552 73.0023 23.9988 92.8656 48.5014 92.8656C73.0039 92.8656 92.8672 73.0023 92.8672 48.4997C92.8672 23.9972 73.0039 4.1339 48.5014 4.1339Z" fill="url(#paint0_linear_3805_14279)"/>
<path d="M48.503 80.1202C65.9664 80.1202 80.1233 65.9633 80.1233 48.5C80.1233 31.0366 65.9664 16.8797 48.503 16.8797C31.0397 16.8797 16.8828 31.0366 16.8828 48.5C16.8828 65.9633 31.0397 80.1202 48.503 80.1202Z" fill="url(#paint1_linear_3805_14279)"/>
<path d="M48.5 96C74.7335 96 96 74.7335 96 48.5C96 22.2665 74.7335 1 48.5 1C22.2665 1 1 22.2665 1 48.5C1 74.7335 22.2665 96 48.5 96Z" stroke="url(#paint2_linear_3805_14279)" stroke-width="1.0529" stroke-miterlimit="10"/>
<path d="M13.4508 36L14.7708 28.68H27.0908L22.0908 57H13.8908L17.5708 36H13.4508ZM51.3195 34.68H39.2795L38.4795 39.12C39.1195 38.5867 39.9062 38.16 40.8395 37.84C41.7729 37.52 42.7595 37.36 43.7995 37.36C46.1995 37.36 47.9862 38.04 49.1595 39.4C50.3329 40.7333 50.9195 42.4667 50.9195 44.6C50.9195 45.2667 50.8529 46.0267 50.7195 46.88C50.1595 50.0267 48.8262 52.5067 46.7195 54.32C44.6129 56.1067 41.9729 57 38.7995 57C35.8395 57 33.5462 56.3333 31.9195 55C30.3195 53.6667 29.5195 51.8667 29.5195 49.6C29.5195 49.0933 29.5595 48.56 29.6395 48H37.3195C37.2662 48.6133 37.4262 49.1467 37.7995 49.6C38.1995 50.0533 38.8262 50.28 39.6795 50.28C40.6395 50.28 41.4129 49.96 41.9995 49.32C42.5862 48.68 42.9729 47.8267 43.1595 46.76C43.2129 46.3333 43.2395 46.04 43.2395 45.88C43.2395 45.1333 43.0262 44.56 42.5995 44.16C42.1729 43.76 41.5595 43.56 40.7595 43.56C40.0395 43.56 39.4262 43.7467 38.9195 44.12C38.4129 44.4667 38.0662 44.9067 37.8795 45.44H30.2795L33.3995 27.76H52.5195L51.3195 34.68ZM55.5305 35.28C55.9305 33.04 56.8771 31.32 58.3705 30.12C59.8905 28.92 61.6771 28.32 63.7305 28.32C65.5171 28.32 66.9305 28.7733 67.9705 29.68C69.0371 30.5867 69.5705 31.8933 69.5705 33.6C69.5705 34.1867 69.5171 34.7467 69.4105 35.28C69.0105 37.52 68.0638 39.24 66.5705 40.44C65.1038 41.64 63.3438 42.24 61.2905 42.24C59.5038 42.24 58.0638 41.7867 56.9705 40.88C55.9038 39.9467 55.3705 38.6133 55.3705 36.88C55.3705 36.56 55.4238 36.0267 55.5305 35.28ZM84.1705 28.72L64.0105 57H56.4905L76.6505 28.72H84.1705ZM62.8905 32.88C61.8238 32.88 61.1305 33.68 60.8105 35.28C60.7571 35.7067 60.7305 35.9867 60.7305 36.12C60.7305 37.1333 61.1571 37.64 62.0105 37.64C62.5705 37.64 63.0371 37.44 63.4105 37.04C63.7838 36.64 64.0371 36.0533 64.1705 35.28C64.2238 35.0667 64.2505 34.7733 64.2505 34.4C64.2505 33.3867 63.7971 32.88 62.8905 32.88ZM71.2505 50.4C71.6505 48.16 72.5971 46.44 74.0905 45.24C75.5838 44.04 77.3571 43.44 79.4105 43.44C81.1971 43.44 82.6105 43.8933 83.6505 44.8C84.7171 45.7067 85.2505 47.0267 85.2505 48.76C85.2505 49.1067 85.1971 49.6533 85.0905 50.4C84.6905 52.64 83.7438 54.3733 82.2505 55.6C80.7838 56.8 79.0238 57.4 76.9705 57.4C75.1838 57.4 73.7571 56.9467 72.6905 56.04C71.6238 55.1067 71.0905 53.76 71.0905 52C71.0905 51.68 71.1438 51.1467 71.2505 50.4ZM78.5705 48.04C77.4505 48.04 76.7571 48.8267 76.4905 50.4C76.4371 50.6133 76.4105 50.9067 76.4105 51.28C76.4105 52.2933 76.8505 52.8 77.7305 52.8C78.8238 52.8 79.5305 52 79.8505 50.4C79.9038 50.0267 79.9305 49.76 79.9305 49.6C79.9305 49.0933 79.8105 48.7067 79.5705 48.44C79.3305 48.1733 78.9971 48.04 78.5705 48.04ZM41.6657 76.39H38.1657L37.6337 78H34.7497L38.3477 68.13H41.5117L45.0957 78H42.1977L41.6657 76.39ZM40.9797 74.29L39.9157 71.098L38.8657 74.29H40.9797ZM53.7881 71.42C53.7881 72.0173 53.6481 72.5633 53.3681 73.058C53.0974 73.5433 52.6821 73.9353 52.1221 74.234C51.5714 74.5233 50.8947 74.668 50.0921 74.668H48.7341V78H45.9901V68.13H50.0921C50.8854 68.13 51.5574 68.27 52.1081 68.55C52.6681 68.83 53.0881 69.2173 53.3681 69.712C53.6481 70.2067 53.7881 70.776 53.7881 71.42ZM49.8261 72.484C50.6007 72.484 50.9881 72.1293 50.9881 71.42C50.9881 70.7013 50.6007 70.342 49.8261 70.342H48.7341V72.484H49.8261ZM59.8884 78L57.9284 74.36H57.6344V78H54.8904V68.13H59.2164C60.0098 68.13 60.6818 68.27 61.2324 68.55C61.7831 68.8207 62.1984 69.1987 62.4784 69.684C62.7584 70.16 62.8984 70.6967 62.8984 71.294C62.8984 71.966 62.7118 72.5587 62.3384 73.072C61.9744 73.576 61.4378 73.9353 60.7284 74.15L62.9544 78H59.8884ZM57.6344 72.484H58.9924C59.3658 72.484 59.6458 72.3953 59.8324 72.218C60.0191 72.0407 60.1124 71.784 60.1124 71.448C60.1124 71.1307 60.0144 70.8833 59.8184 70.706C59.6318 70.5193 59.3564 70.426 58.9924 70.426H57.6344V72.484Z" fill="white"/>
<defs>
<linearGradient id="paint0_linear_3805_14279" x1="48.4872" y1="4.11579" x2="48.4871" y2="92.8794" gradientUnits="userSpaceOnUse">
<stop stop-color="#00B1D2"/>
<stop offset="0.4722" stop-color="#00B1D2" stop-opacity="0.5"/>
<stop offset="1" stop-color="#00B1D2" stop-opacity="0"/>
</linearGradient>
<linearGradient id="paint1_linear_3805_14279" x1="48.5173" y1="80.1079" x2="48.5173" y2="16.8963" gradientUnits="userSpaceOnUse">
<stop stop-color="#00B1D2" stop-opacity="0"/>
<stop offset="0.4722" stop-color="#00B1D2" stop-opacity="0.5"/>
<stop offset="1" stop-color="#00B1D2"/>
</linearGradient>
<linearGradient id="paint2_linear_3805_14279" x1="48.5142" y1="96.1863" x2="48.5142" y2="0.817974" gradientUnits="userSpaceOnUse">
<stop stop-color="#0DD9FF" stop-opacity="0"/>
<stop offset="0.4722" stop-color="#0DD9FF" stop-opacity="0.5"/>
<stop offset="1" stop-color="#0DD9FF"/>
</linearGradient>
</defs>
</svg>
