<svg width="78" height="78" viewBox="0 0 78 78" fill="none" xmlns="http://www.w3.org/2000/svg">
<path d="M39.028 59.4653L17.3809 48.8965L39.0083 78.0001L42.2575 73.6273V57.8836L39.028 59.4653Z" fill="#21A1E7"/>
<path d="M39.0083 0L14.168 44.5719H63.8493L39.0083 0Z" fill="#32B1F7"/>
<path d="M63.8497 44.6379L39.0088 0V44.6379H63.8497Z" fill="#219EE1"/>
<path d="M31.4932 24.7554H36.3682V29.6304H31.4932V24.7554Z" fill="white"/>
<path d="M39.0079 32.4678L38.9103 32.4214L14.1699 44.6089H14.1919L38.9323 56.7964L39.0299 56.75L42.2571 55.1706V34.0591L39.0079 32.4678Z" fill="#21A1E7"/>
<path d="M31.4932 15.5342H36.3682V20.4092H31.4932V15.5342Z" fill="white"/>
<path d="M39.0284 59.4654L39.0088 78.0002L60.6517 48.877L39.0284 59.4654Z" fill="#1D91D0"/>
<path d="M63.8033 44.6089L39.0087 32.4678L38.9111 32.4214L38.9332 56.7964L39.0307 56.75L63.8253 44.6089H63.8033Z" fill="#1D91D0"/>
</svg>
