<svg width="20" height="20" viewBox="0 0 20 20" fill="none" xmlns="http://www.w3.org/2000/svg">
<path d="M2.5 17.5H2C2 17.7761 2.22386 18 2.5 18V17.5ZM17.5 17.5V18C17.7761 18 18 17.7761 18 17.5H17.5ZM5 5.33333C4.72386 5.33333 4.5 5.55719 4.5 5.83333C4.5 6.10948 4.72386 6.33333 5 6.33333V5.33333ZM5.83333 6.33333C6.10948 6.33333 6.33333 6.10948 6.33333 5.83333C6.33333 5.55719 6.10948 5.33333 5.83333 5.33333V6.33333ZM9.16667 5.33333C8.89052 5.33333 8.66667 5.55719 8.66667 5.83333C8.66667 6.10948 8.89052 6.33333 9.16667 6.33333V5.33333ZM10 6.33333C10.2761 6.33333 10.5 6.10948 10.5 5.83333C10.5 5.55719 10.2761 5.33333 10 5.33333V6.33333ZM5 7.83333C4.72386 7.83333 4.5 8.05719 4.5 8.33333C4.5 8.60948 4.72386 8.83333 5 8.83333V7.83333ZM5.83333 8.83333C6.10948 8.83333 6.33333 8.60948 6.33333 8.33333C6.33333 8.05719 6.10948 7.83333 5.83333 7.83333V8.83333ZM9.16667 7.83333C8.89052 7.83333 8.66667 8.05719 8.66667 8.33333C8.66667 8.60948 8.89052 8.83333 9.16667 8.83333V7.83333ZM10 8.83333C10.2761 8.83333 10.5 8.60948 10.5 8.33333C10.5 8.05719 10.2761 7.83333 10 7.83333V8.83333ZM5 10.3333C4.72386 10.3333 4.5 10.5572 4.5 10.8333C4.5 11.1095 4.72386 11.3333 5 11.3333V10.3333ZM5.83333 11.3333C6.10948 11.3333 6.33333 11.1095 6.33333 10.8333C6.33333 10.5572 6.10948 10.3333 5.83333 10.3333V11.3333ZM9.16667 10.3333C8.89052 10.3333 8.66667 10.5572 8.66667 10.8333C8.66667 11.1095 8.89052 11.3333 9.16667 11.3333V10.3333ZM10 11.3333C10.2761 11.3333 10.5 11.1095 10.5 10.8333C10.5 10.5572 10.2761 10.3333 10 10.3333V11.3333ZM9.16667 17.5V18H9.66667V17.5H9.16667ZM5.83333 17.5H5.33333V18H5.83333V17.5ZM15 8.66667C14.7239 8.66667 14.5 8.89052 14.5 9.16667C14.5 9.44281 14.7239 9.66667 15 9.66667V8.66667ZM15.0083 9.66667C15.2845 9.66667 15.5083 9.44281 15.5083 9.16667C15.5083 8.89052 15.2845 8.66667 15.0083 8.66667V9.66667ZM15 11.1667C14.7239 11.1667 14.5 11.3905 14.5 11.6667C14.5 11.9428 14.7239 12.1667 15 12.1667V11.1667ZM15.0083 12.1667C15.2845 12.1667 15.5083 11.9428 15.5083 11.6667C15.5083 11.3905 15.2845 11.1667 15.0083 11.1667V12.1667ZM15 13.6667C14.7239 13.6667 14.5 13.8905 14.5 14.1667C14.5 14.4428 14.7239 14.6667 15 14.6667V13.6667ZM15.0083 14.6667C15.2845 14.6667 15.5083 14.4428 15.5083 14.1667C15.5083 13.8905 15.2845 13.6667 15.0083 13.6667V14.6667ZM17.4092 6.28834L16.9637 6.51534L17.4092 6.28834ZM17.045 5.92416L16.818 6.36966L17.045 5.92416ZM12.045 2.59083L11.818 3.03633L12.045 2.59083ZM12.4092 2.95501L11.9637 3.182L12.4092 2.95501ZM2.59083 2.95501L3.03633 3.182L2.59083 2.95501ZM2.95501 2.59083L3.182 3.03633L2.95501 2.59083ZM2 3.83333V17.5H3V3.83333H2ZM3.83333 3H11.1667V2H3.83333V3ZM12 3.83333V5.83333H13V3.83333H12ZM12 5.83333V17.5H13V5.83333H12ZM2.5 18H12.5V17H2.5V18ZM12.5 18H17.5V17H12.5V18ZM17 7.16667V17.5H18V7.16667H17ZM12.5 6.33333H16.1667V5.33333H12.5V6.33333ZM5 6.33333H5.83333V5.33333H5V6.33333ZM9.16667 6.33333H10V5.33333H9.16667V6.33333ZM5 8.83333H5.83333V7.83333H5V8.83333ZM9.16667 8.83333H10V7.83333H9.16667V8.83333ZM5 11.3333H5.83333V10.3333H5V11.3333ZM9.16667 11.3333H10V10.3333H9.16667V11.3333ZM8.66667 15V17.5H9.66667V15H8.66667ZM9.16667 17H5.83333V18H9.16667V17ZM6.33333 17.5V15H5.33333V17.5H6.33333ZM7.5 13.8333C8.14433 13.8333 8.66667 14.3557 8.66667 15H9.66667C9.66667 13.8034 8.69662 12.8333 7.5 12.8333V13.8333ZM7.5 12.8333C6.30338 12.8333 5.33333 13.8034 5.33333 15H6.33333C6.33333 14.3557 6.85567 13.8333 7.5 13.8333V12.8333ZM15 9.66667H15.0083V8.66667H15V9.66667ZM15 12.1667H15.0083V11.1667H15V12.1667ZM15 14.6667H15.0083V13.6667H15V14.6667ZM18 7.16667C18 6.94156 18.0004 6.74266 17.987 6.57862C17.9731 6.40874 17.942 6.23271 17.8547 6.06135L16.9637 6.51534C16.9672 6.52223 16.9815 6.55201 16.9903 6.66005C16.9996 6.77393 17 6.92506 17 7.16667H18ZM16.1667 6.33333C16.4083 6.33333 16.5594 6.33372 16.6733 6.34303C16.7813 6.35185 16.8111 6.36615 16.818 6.36966L17.272 5.47866C17.1006 5.39134 16.9246 5.36023 16.7547 5.34635C16.5907 5.33294 16.3918 5.33333 16.1667 5.33333V6.33333ZM17.8547 6.06135C17.7268 5.81046 17.5229 5.60649 17.272 5.47866L16.818 6.36966C16.8807 6.40162 16.9317 6.45262 16.9637 6.51534L17.8547 6.06135ZM11.1667 3C11.4083 3 11.5594 3.00039 11.6733 3.00969C11.7813 3.01852 11.8111 3.03282 11.818 3.03633L12.272 2.14532C12.1006 2.05801 11.9246 2.02689 11.7547 2.01301C11.5907 1.99961 11.3918 2 11.1667 2V3ZM13 3.83333C13 3.60823 13.0004 3.40933 12.987 3.24529C12.9731 3.07541 12.942 2.89938 12.8547 2.72801L11.9637 3.182C11.9672 3.1889 11.9815 3.21868 11.9903 3.32672C11.9996 3.44059 12 3.59173 12 3.83333H13ZM11.818 3.03633C11.8807 3.06829 11.9317 3.11928 11.9637 3.182L12.8547 2.72801C12.7268 2.47713 12.5229 2.27316 12.272 2.14532L11.818 3.03633ZM3 3.83333C3 3.59173 3.00039 3.44059 3.00969 3.32672C3.01852 3.21868 3.03282 3.1889 3.03633 3.182L2.14532 2.72801C2.05801 2.89938 2.02689 3.07541 2.01301 3.24529C1.99961 3.40933 2 3.60823 2 3.83333H3ZM3.83333 2C3.60823 2 3.40933 1.99961 3.24529 2.01301C3.07541 2.02689 2.89938 2.05801 2.72801 2.14532L3.182 3.03633C3.1889 3.03282 3.21868 3.01852 3.32672 3.00969C3.44059 3.00039 3.59173 3 3.83333 3V2ZM3.03633 3.182C3.06829 3.11928 3.11928 3.06829 3.182 3.03633L2.72801 2.14532C2.47713 2.27316 2.27316 2.47713 2.14532 2.72801L3.03633 3.182Z" fill="#09FBD3"/>
</svg>
