<svg width="20" height="20" viewBox="0 0 20 20" fill="none" xmlns="http://www.w3.org/2000/svg">
<path d="M11.6663 8.75C11.6663 9.90059 9.80086 10.8333 7.49967 10.8333C5.19849 10.8333 3.33301 9.90059 3.33301 8.75M11.6663 8.75C11.6663 7.59941 9.80086 6.66667 7.49967 6.66667C5.19849 6.66667 3.33301 7.59941 3.33301 8.75M11.6663 8.75V12.0833M3.33301 8.75V12.0833M16.6663 4.58333C16.6663 3.43274 14.8009 2.5 12.4997 2.5C10.8504 2.5 9.42498 2.9791 8.74967 3.67414M16.6663 4.58333C16.6663 5.35446 15.8284 6.02774 14.583 6.38795M16.6663 4.58333V11.6667C16.6663 12.2836 15.8284 12.8222 14.583 13.1104M16.6663 8.33333C16.6663 8.9639 15.7909 9.51269 14.4996 9.79581M11.6663 12.0833C11.6663 13.2339 9.80086 14.1667 7.49967 14.1667C5.19849 14.1667 3.33301 13.2339 3.33301 12.0833M11.6663 12.0833V15.4167C11.6663 16.5673 9.80086 17.5 7.49967 17.5C5.19849 17.5 3.33301 16.5673 3.33301 15.4167V12.0833" stroke="#09FBD3" stroke-linecap="round" stroke-linejoin="round"/>
</svg>
