<svg width="20" height="20" viewBox="0 0 20 20" fill="none" xmlns="http://www.w3.org/2000/svg">
<path d="M7.91699 2.5C9.98806 2.5 11.667 5.85786 11.667 10M7.91699 2.5C5.84592 2.5 4.16699 5.85786 4.16699 10C4.16699 14.1421 5.84592 17.5 7.91699 17.5M7.91699 2.5L12.5003 2.5C14.3413 2.5 15.8337 5.85786 15.8337 10M11.667 10C11.667 14.1421 9.98806 17.5 7.91699 17.5M11.667 10L15.8337 10M7.91699 17.5L12.5003 17.5C14.3413 17.5 15.8337 14.1421 15.8337 10M15.2723 14.1667L11.0355 14.1667M15.2723 5.83333L11.0355 5.83333" stroke="#09FBD3" stroke-linecap="round" stroke-linejoin="round"/>
</svg>
