<svg width="20" height="20" viewBox="0 0 20 20" fill="none" xmlns="http://www.w3.org/2000/svg">
<path d="M9.99967 17.5L8.33301 16.6667M9.99967 17.5L11.6663 16.6667M9.99967 17.5V15.4167M4.99967 15L3.33301 14.1667V12.0833M3.33301 7.91667V5.83333M3.33301 5.83333L4.99967 5M3.33301 5.83333L4.99967 6.66667M8.33301 3.33333L9.99967 2.5L11.6663 3.33333M14.9997 5L16.6663 5.83333M16.6663 5.83333L14.9997 6.66667M16.6663 5.83333V7.91667M9.99967 9.16667L8.33301 8.33333M9.99967 9.16667L11.6663 8.33333M9.99967 9.16667V11.25M14.9997 15L16.6663 14.1667V12.0833" stroke="white" stroke-linecap="round" stroke-linejoin="round"/>
</svg>
