<svg width="20" height="20" viewBox="0 0 20 20" fill="none" xmlns="http://www.w3.org/2000/svg">
<path d="M12.0836 7.08342H12.092M13.517 16.6334L8.79302 11.8921C8.13224 11.2289 7.80184 10.8973 7.42057 10.7731C7.08521 10.6638 6.72383 10.6638 6.38843 10.7729C6.00712 10.897 5.67661 11.2285 5.01559 11.8914L3.58648 13.3247M10.1994 13.3036L10.5064 12.9959C11.1741 12.333 11.5079 12.0015 11.8914 11.8795C12.2288 11.7722 12.5915 11.7751 12.9271 11.8878C13.3086 12.0159 13.6371 12.3527 14.2941 13.0262L15.7414 14.4901M15.7414 14.4901L17.9487 10.6667C18.089 10.4239 18.1591 10.3024 18.1865 10.1733C18.2108 10.0591 18.2108 9.94105 18.1865 9.82682C18.1591 9.69772 18.089 9.57629 17.9487 9.33342L14.5519 3.44987C14.4117 3.207 14.3415 3.08557 14.2435 2.99725C14.1567 2.91911 14.0544 2.86008 13.9434 2.82399C13.8178 2.7832 13.6776 2.7832 13.3972 2.7832H6.60345C6.32301 2.7832 6.18279 2.7832 6.05726 2.82399C5.94619 2.86008 5.84395 2.91911 5.75716 2.99725C5.65908 3.08557 5.58897 3.207 5.44875 3.44987L2.05188 9.33342C1.91166 9.57629 1.84155 9.69772 1.81411 9.82682C1.78983 9.94105 1.78983 10.0591 1.81411 10.1733C1.84155 10.3024 1.91166 10.4239 2.05188 10.6667L3.58648 13.3247M15.7414 14.4901L14.5519 16.5503C14.4117 16.7932 14.3415 16.9146 14.2435 17.0029C14.1567 17.0811 14.0544 17.1401 13.9434 17.1762C13.8178 17.217 13.6776 17.217 13.3972 17.217H6.60345C6.32301 17.217 6.18279 17.217 6.05726 17.1762C5.94619 17.1401 5.84395 17.0811 5.75716 17.0029C5.65908 16.9146 5.58897 16.7932 5.44875 16.5503L3.58648 13.3247M12.5003 7.08342C12.5003 7.31353 12.3138 7.50008 12.0836 7.50008C11.8535 7.50008 11.667 7.31353 11.667 7.08342C11.667 6.8533 11.8535 6.66675 12.0836 6.66675C12.3138 6.66675 12.5003 6.8533 12.5003 7.08342Z" stroke="#09FBD3" stroke-linecap="round" stroke-linejoin="round"/>
</svg>
