<svg width="20" height="20" viewBox="0 0 20 20" fill="none" xmlns="http://www.w3.org/2000/svg">
<path d="M5.07701 17.3183L5.304 16.8728L5.07701 17.3183ZM4.34865 16.59L4.79415 16.363L4.34865 16.59ZM15.652 16.59L15.2065 16.363L15.652 16.59ZM14.9236 17.3183L14.6966 16.8728L14.9236 17.3183ZM14.9236 2.68166L14.6966 3.12716L14.9236 2.68166ZM15.652 3.41002L15.2065 3.63701L15.652 3.41002ZM5.07701 2.68166L5.304 3.12716L5.07701 2.68166ZM4.34865 3.41002L4.79415 3.63701L4.34865 3.41002ZM11.167 9.16667C11.167 9.811 10.6447 10.3333 10.0003 10.3333V11.3333C11.1969 11.3333 12.167 10.3633 12.167 9.16667H11.167ZM10.0003 10.3333C9.35599 10.3333 8.83366 9.811 8.83366 9.16667H7.83366C7.83366 10.3633 8.80371 11.3333 10.0003 11.3333V10.3333ZM8.83366 9.16667C8.83366 8.52233 9.35599 8 10.0003 8V7C8.80371 7 7.83366 7.97005 7.83366 9.16667H8.83366ZM10.0003 8C10.6447 8 11.167 8.52233 11.167 9.16667H12.167C12.167 7.97005 11.1969 7 10.0003 7V8ZM6.83366 3H13.167V2H6.83366V3ZM15.3337 5.16667V14.8333H16.3337V5.16667H15.3337ZM13.167 17H6.83366V18H13.167V17ZM4.66699 14.8333V5.16667H3.66699V14.8333H4.66699ZM6.83366 17C6.3587 17 6.03255 16.9996 5.77971 16.979C5.53271 16.9588 5.40003 16.9218 5.304 16.8728L4.85001 17.7638C5.11051 17.8966 5.38944 17.9504 5.69828 17.9756C6.00128 18.0004 6.3752 18 6.83366 18V17ZM3.66699 14.8333C3.66699 15.2918 3.6666 15.6657 3.69136 15.9687C3.71659 16.2776 3.77042 16.5565 3.90314 16.817L4.79415 16.363C4.74522 16.267 4.70822 16.1343 4.68804 15.8873C4.66738 15.6344 4.66699 15.3083 4.66699 14.8333H3.66699ZM5.304 16.8728C5.08448 16.761 4.906 16.5825 4.79415 16.363L3.90314 16.817C4.11087 17.2247 4.44233 17.5561 4.85001 17.7638L5.304 16.8728ZM15.3337 14.8333C15.3337 15.3083 15.3333 15.6344 15.3126 15.8873C15.2924 16.1343 15.2554 16.267 15.2065 16.363L16.0975 16.817C16.2302 16.5565 16.2841 16.2776 16.3093 15.9687C16.334 15.6657 16.3337 15.2918 16.3337 14.8333H15.3337ZM13.167 18C13.6255 18 13.9994 18.0004 14.3024 17.9756C14.6112 17.9504 14.8901 17.8966 15.1506 17.7638L14.6966 16.8728C14.6006 16.9218 14.4679 16.9588 14.2209 16.979C13.9681 16.9996 13.642 17 13.167 17V18ZM15.2065 16.363C15.0946 16.5825 14.9162 16.761 14.6966 16.8728L15.1506 17.7638C15.5583 17.5561 15.8898 17.2247 16.0975 16.817L15.2065 16.363ZM13.167 3C13.642 3 13.9681 3.00039 14.2209 3.02105C14.4679 3.04123 14.6006 3.07823 14.6966 3.12716L15.1506 2.23615C14.8901 2.10342 14.6112 2.0496 14.3024 2.02437C13.9994 1.99961 13.6255 2 13.167 2V3ZM16.3337 5.16667C16.3337 4.70821 16.334 4.33429 16.3093 4.03129C16.2841 3.72245 16.2302 3.44351 16.0975 3.18302L15.2065 3.63701C15.2554 3.73304 15.2924 3.86572 15.3126 4.11272C15.3333 4.36556 15.3337 4.69171 15.3337 5.16667H16.3337ZM14.6966 3.12716C14.9162 3.23901 15.0946 3.41749 15.2065 3.63701L16.0975 3.18302C15.8898 2.77534 15.5583 2.44388 15.1506 2.23615L14.6966 3.12716ZM6.83366 2C6.3752 2 6.00128 1.99961 5.69828 2.02437C5.38944 2.0496 5.11051 2.10342 4.85001 2.23615L5.304 3.12716C5.40003 3.07823 5.53271 3.04123 5.77971 3.02105C6.03255 3.00039 6.3587 3 6.83366 3V2ZM4.66699 5.16667C4.66699 4.69171 4.66738 4.36556 4.68804 4.11272C4.70822 3.86572 4.74522 3.73304 4.79415 3.63701L3.90314 3.18302C3.77042 3.44351 3.71659 3.72245 3.69136 4.03129C3.6666 4.33429 3.66699 4.70821 3.66699 5.16667H4.66699ZM4.85001 2.23615C4.44233 2.44388 4.11087 2.77534 3.90314 3.18302L4.79415 3.63701C4.906 3.41749 5.08448 3.23901 5.304 3.12716L4.85001 2.23615ZM6.33366 17.5C6.33366 15.475 7.97528 13.8333 10.0003 13.8333V12.8333C7.423 12.8333 5.33366 14.9227 5.33366 17.5H6.33366ZM10.0003 13.8333C12.0254 13.8333 13.667 15.475 13.667 17.5H14.667C14.667 14.9227 12.5777 12.8333 10.0003 12.8333V13.8333Z" fill="#09FBD3"/>
</svg>
