<svg id="katman_1" data-name="katman 1" xmlns="http://www.w3.org/2000/svg" viewBox="0 0 300 300"><defs><style>.cls-1{fill:#014680;}.cls-2{fill:#014681;}.cls-3{fill:#76ddfe;}.cls-4{fill:#014781;}.cls-5{fill:#77def4;}.cls-6{fill:#58c2e2;}.cls-7{fill:#14669b;}.cls-8{fill:#2f81b2;}.cls-9{fill:#46a0cc;}.cls-10{fill:#01467c;}.cls-11{fill:#01457e;}.cls-12{fill:#00457f;}.cls-13{fill:#01437d;}.cls-14{fill:#00447e;}.cls-15{fill:#fdfdfd;}.cls-16{fill:#76ddfd;}.cls-17{fill:#fff;}</style></defs><path class="cls-1" d="M158.81,7.13c22.76,1.11,43.69,8.21,63.32,19.49a208.23,208.23,0,0,1,17.56,11.54c.87.62,2.29,1.34,1.28,2.59s-2,0-2.86-.63a140.82,140.82,0,0,0-58.65-27.87,138.07,138.07,0,0,0-39.55-2.68A140.71,140.71,0,0,0,81.58,26.83,118.34,118.34,0,0,0,61.38,40.4c-.74.63-1.6,1.34-2.43.44s.17-1.72.82-2.23c13.9-11,29-19.69,46.13-24.71a160.08,160.08,0,0,1,37-6.77C145.5,7,149.75,7,150.5,7,152.5,7,156.5,7,158.81,7.13Z"/><path class="cls-2" d="M293.5,161c-.54,3.65-1.06,7.32-1.62,11a139.78,139.78,0,0,1-28.25,65.9c-.81,1-1.56,2.11-2.4,3.11a1.14,1.14,0,0,1-1.5.36,1.08,1.08,0,0,1-.27-1.51,29.19,29.19,0,0,1,2.33-3.47c13.52-16.24,21.3-35.19,26-55.53A126.4,126.4,0,0,0,291.18,145c-1.56-27.39-8.87-52.9-25.26-75.35-1.87-2.56-3.5-5.29-5.75-7.58-.75-.77-1.61-2.1-.48-2.94s1.71.63,2.35,1.38c15.6,18,23.7,39.51,28.63,62.43a102,102,0,0,1,2.36,16.6,4.62,4.62,0,0,0,.47,1.26Z"/><path class="cls-3" d="M208.66,139.68c0,10.57,0,21.13,0,31.69A9.22,9.22,0,0,1,205,179q-26.09,21.9-51.93,44.11c-1.52,1.31-2.45,1.33-4,.12-15.44-12.16-30-25.34-44.62-38.42-3.42-3.05-6.74-6.2-10.16-9.26a4.75,4.75,0,0,1-1.74-3.86q-.13-32.11-.45-64.23c0-1.84.65-2.57,2.25-3.19,15.36-6.05,30.87-11.74,46-18.38a24.56,24.56,0,0,1,19.27-.48c13.85,5.09,27.33,11.06,41.1,16.32.17.06.34.16.51.22,2.44.9,5.87,1.13,7.05,2.87,1.28,1.9.55,5.22.57,7.91,0,9,0,18,0,26.93Z"/><path class="cls-4" d="M142.61,268.9c-8.08-6.63-15.89-13-23.67-19.41-17.31-14.24-34.57-28.55-51.25-43.55-2.29-2.06-4.39-4.34-6.57-6.52-1.18-1.17-1.29-2.1.4-3a181.77,181.77,0,0,1,23.43-10,3,3,0,0,1,3.28.84c8.94,8.08,17.68,16.42,27,24.06,8.23,6.76,15.66,14.45,24.32,20.7a8,8,0,0,1,3.46,6.71c0,9.64,0,19.27-.07,28.9A8.08,8.08,0,0,1,142.61,268.9Z"/><path class="cls-5" d="M158.14,269c0-11.17,0-21.8,0-32.43,0-1.44.89-2.18,1.73-3,6.28-6.3,13.52-11.5,20.16-17.4q15.93-14.15,31.83-28.33c1.34-1.2,2.34-1.55,4.13-.76q11.37,5.06,22.92,9.73c2.13.87,2.52,1.39.67,3.14-12.19,11.47-24.91,22.33-37.63,33.2-13.15,11.22-26.32,22.42-39.94,33.06C160.89,267.08,159.74,267.86,158.14,269Z"/><path class="cls-6" d="M248.6,87.47v7.92q0,42.61-.09,85.24c0,3.18,0,3.18-2.91,1.92-7.18-3.15-14.34-6.34-21.55-9.4a2.87,2.87,0,0,1-2-3.11c.07-20.93.05-41.87.06-62.8,0-1.09-.15-2.14,1.07-2.93C231.41,98.9,239.63,93.41,248.6,87.47Z"/><path class="cls-7" d="M52.65,87.66a37.34,37.34,0,0,1,8.22,4.94c5.49,3.89,10.88,7.94,16.63,11.44A2.78,2.78,0,0,1,79,106.73q0,31.58,0,63.13c0,1,0,1.84-1.08,2.33-8.35,3.69-16.69,7.41-25.29,11.23Z"/><path class="cls-8" d="M142.83,57.07c0,3-.22,6,0,9,.33,3.62-1,5.59-4.46,6.86-8,2.92-15.79,6.26-23.72,9.28C107.2,85,99.62,87.69,92.29,91a7.07,7.07,0,0,1-7.13-.44C77.89,86.09,71,81.15,64.1,76.17,62,74.62,62,74,64.5,72.94c4.3-1.78,8.7-3.35,13.06-5,19.2-7.28,38.08-15.35,57.44-22.21,1.84-.66,3.72-1.22,5.57-1.86,1.64-.57,2.4-.22,2.35,1.71-.11,3.83,0,7.66,0,11.49Z"/><path class="cls-9" d="M238.58,74.91C230.86,80.58,223.19,86.2,215,91.05a5.69,5.69,0,0,1-5.36.18c-16.37-6.56-33-12.36-49.31-19.13a3,3,0,0,1-2.16-3.29q.14-11.49,0-23c0-1.88.27-2.45,2.29-1.71,24.9,9,49.8,18.08,74.21,28.42C236,73.1,237.49,73.5,238.58,74.91Z"/><path class="cls-1" d="M135.93,14.57c1.06.18,2.29,0,2.44,1.16s-1.1,1-1.84,1.08c-10.69,1.65-21.33,3.45-31.61,7.05A130.55,130.55,0,0,0,63.21,48,134.77,134.77,0,0,0,21.4,111.21a131.14,131.14,0,0,0-6,36.59c-.7,28.29,7.14,54.08,23,77.31,17.81,26.1,41.8,44.22,72.19,53.54a144.48,144.48,0,0,0,26.57,5.26c1,.1,2,0,1.83,1.44a1.44,1.44,0,0,1-2.07,1.25c-4.17-1.68-8.64-1-12.93-1.91a140,140,0,0,1-47.18-19.33c-31.68-20.07-51.6-48.67-60.27-85.07a129.71,129.71,0,0,1-2.21-46.72c4.12-32.5,18.18-60,41.94-82.4a134,134,0,0,1,69.59-35C129.27,15.58,132.68,15.09,135.93,14.57Z"/><path class="cls-1" d="M286.71,150.25q-.54,49.16-31.74,87.16c-20.61,25.06-47.16,40.34-78.83,46.88a40.14,40.14,0,0,1-9.4,1.32c-.62,0-1.5.17-1.6-.7-.08-.7.63-1.09,1.23-1.38,2.18-1,4.59-.71,6.89-1.08A128.42,128.42,0,0,0,230.13,258c26.14-19.61,43.33-45.57,51.06-77.43a129.41,129.41,0,0,0,2.32-45.89,129.76,129.76,0,0,0-22.24-59.45c-20.77-30.12-49.11-49.11-85-56.63-2.83-.59-5.71-.88-8.57-1.31-1.08-.16-2.74-.06-2.59-1.45.16-1.57,1.86-.84,2.78-.7a143.7,143.7,0,0,1,34.2,9.32c32,13.1,55.3,35.68,70.77,66.36a126.42,126.42,0,0,1,13.42,49.36c.11,1.68.35,3.35.42,5S286.71,148.57,286.71,150.25Z"/><path class="cls-2" d="M6.5,157.68V143A143.25,143.25,0,0,1,36.05,62.79c.79-1,1.59-2.08,2.43-3.08.35-.42.86-.91,1.43-.63.73.37.57,1.21.32,1.73a17.35,17.35,0,0,1-1.9,3.08A132.64,132.64,0,0,0,11.47,122a143.78,143.78,0,0,0,3.7,70.8,137.43,137.43,0,0,0,23.52,44.29c1,1.23,2.63,3,1.27,4.06s-2.14-1.3-2.91-2.28a144.28,144.28,0,0,1-22.22-40A137.81,137.81,0,0,1,6.5,157.68Z"/><path class="cls-1" d="M158.18,293.36H139.11c-6-.86-12-1.36-17.93-2.61C98.54,286,78.43,275.92,60.05,262.13c-.82-.61-2-1.41-1.21-2.39,1.07-1.24,2.23,0,3.11.73,11.91,10.12,25.61,17,40.16,22.4a135.82,135.82,0,0,0,55.28,8.22,141.47,141.47,0,0,0,79.37-29.43c.67-.51,1.23-1.15,1.87-1.7s1.68-1.22,2.42-.25-.27,1.54-.89,2.06a124.21,124.21,0,0,1-13.62,9.83C209,282.72,189.68,289,169.27,292.19,165.6,292.76,161.88,293,158.18,293.36Z"/><path class="cls-10" d="M151.69,286.77a15.68,15.68,0,0,1-1.94,0c-.82-.11-2.12.37-2.08-1.1,0-1.07,1.09-1.13,1.91-1.16,1.48,0,3,0,4.45,0,.73,0,1.66,0,1.68,1s-.94,1.2-1.8,1.23-1.48,0-2.22,0Z"/><path class="cls-11" d="M151.51,16.38c-1.39.09-3.66.73-3.7-1.17,0-1.7,2.32-1.32,3.69-1.21s4-.88,4,.91C155.58,17.17,153,16.28,151.51,16.38Z"/><path class="cls-12" d="M248.26,46.22a5.26,5.26,0,0,1,.88.6c1.48,1.42,2.93,2.86,4.39,4.29.55.53.74,1,.13,1.66s-1,.3-1.42-.13c-1.45-1.44-2.91-2.88-4.32-4.36C247.22,47.55,247.17,46.81,248.26,46.22Z"/><path class="cls-13" d="M51.79,46.27c.77.37,1.19,1,.53,1.73-1.6,1.68-3.27,3.3-5,4.83-.76.67-1.2-.11-1.31-.75C45.85,51.07,50.76,46.18,51.79,46.27Z"/><path class="cls-12" d="M47.06,247.41a9.94,9.94,0,0,1,1,.75c1.31,1.31,2.59,2.64,3.88,4,.47.49.91,1,.26,1.65s-1.06.25-1.45-.13c-1.53-1.47-3.08-2.93-4.51-4.5C45.55,248.38,46.1,247.81,47.06,247.41Z"/><path class="cls-14" d="M253.14,247.52c.72.29,1.37.78.62,1.59a27.21,27.21,0,0,1-4.79,4.62c-.79.51-1.44.55-1.51-.63C247.43,252.52,252.52,247.51,253.14,247.52Z"/><path class="cls-15" d="M150.48,184c-7.48,0-15,0-22.44,0-6.84,0-10.77-4-10.77-10.79q0-19.2,0-38.42c0-6.6,2.89-10,9.46-10.81,1.85-.23,1.74-1.27,1.74-2.51a21,21,0,0,1,4.28-13.57c7.39-9.52,24-10.85,32.91-2.71a20,20,0,0,1,7,16.09c-.06,2.12.68,2.66,2.71,2.74a8.87,8.87,0,0,1,8.14,8.69c.14,13.08.3,26.15.38,39.23,0,8.51-3.52,12-12.1,12.05-3.55,0-7.11,0-10.66,0Z"/><path class="cls-16" d="M150.23,123.88c-3.74,0-7.48-.07-11.21,0-1.72,0-2.22-.6-2.28-2.28-.24-7.53,3.19-12.37,10.28-14.25A14.42,14.42,0,0,1,163.48,115c1.18,2.38,1,4.92.83,7.42-.1,1.53-1.49,1.49-2.58,1.5-3.83,0-7.67,0-11.5,0Z"/><path class="cls-16" d="M165.29,154.33A10.66,10.66,0,0,0,158.72,137V132.4h-7.86v4.5h-2.25v-4.5h-7.86v4.5h-4.5v6.74h3.37v23h-3.37v6.74h4.5v3.37h7.86v-3.37h2.25v3.37h7.86v-3.37a10.67,10.67,0,0,0,6.57-19.08Z"/><path class="cls-17" d="M145.8,144.2H157a3.93,3.93,0,0,1,3.93,3.93v0a3.93,3.93,0,0,1-3.93,3.93H145.8a0,0,0,0,1,0,0V144.2a0,0,0,0,1,0,0Z"/><path class="cls-17" d="M145.8,158.8h12.08a4.21,4.21,0,0,1,4.21,4.21v0a4.21,4.21,0,0,1-4.21,4.21H145.8a0,0,0,0,1,0,0V158.8a0,0,0,0,1,0,0Z"/></svg>