<svg id="katman_1" data-name="katman 1" xmlns="http://www.w3.org/2000/svg" viewBox="0 0 300 300"><defs><style>.cls-1{fill:#e1aa4d;}.cls-2{fill:#fff;fill-rule:evenodd;}</style></defs><circle class="cls-1" cx="150" cy="150" r="140"/><path class="cls-2" d="M233.81,92.31l-1-6.17a7,7,0,0,0-.51-1.48,4.2,4.2,0,0,0-1-1,7,7,0,0,0-1.3-.67,2.59,2.59,0,0,0-1.38,0,4.63,4.63,0,0,0-.83.13,2.61,2.61,0,0,0-1.31.79,3.1,3.1,0,0,0-.91,1.21l-30.83,66.2-.46.91a3.74,3.74,0,0,0-.81-.1h-86l-33.16-67a7.66,7.66,0,0,0-.91-1.21,4.12,4.12,0,0,0-1.3-.79,1.79,1.79,0,0,0-1.43-.15,3.11,3.11,0,0,0-1.42.41,6.48,6.48,0,0,0-1.16.93,4.5,4.5,0,0,0-.65,1.34,3.16,3.16,0,0,0-.16.8l-1,6A141.93,141.93,0,0,0,65,110.77a168,168,0,0,0,4.67,39.45,150.61,150.61,0,0,0,21.49,49.36c11.53,17.25,28.37,34.1,52.5,47.49l3.82,2.13a3.62,3.62,0,0,0,.41.27,3.84,3.84,0,0,0,1.17.43l.2,0a3.5,3.5,0,0,0,.65.07h.1a4.34,4.34,0,0,0,1.81-.4l4.54-2.53c24.09-13.39,40.93-30.37,52.5-47.49a150.62,150.62,0,0,0,21.5-49.36A168,168,0,0,0,235,110.77,147.94,147.94,0,0,0,233.81,92.31Zm-43.42,67.28L149.87,238l-38.79-78.38ZM97.28,195.18a141.7,141.7,0,0,1-20.34-46.82,159.18,159.18,0,0,1-4.41-37.59c0-3.77.12-7.53.43-11.29l68.13,137.34C121.27,224.64,107.17,210,97.28,195.18ZM223,148.37a142.92,142.92,0,0,1-20.32,46.81,142.44,142.44,0,0,1-43.62,41.48l42.33-81.75.13-.14,25.53-54.85a106.5,106.5,0,0,1,.36,10.87A159.09,159.09,0,0,1,223,148.37Z"/><path class="cls-2" d="M90.79,82.14a3.17,3.17,0,0,0,1.17,1,2.64,2.64,0,0,0,1.42.39,5.77,5.77,0,0,0,1.44-.13L150,66l56.35,17.79a5.19,5.19,0,0,0,1.42.13,2.74,2.74,0,0,0,1.42-.4,4.08,4.08,0,0,0,1.17-.94A2.49,2.49,0,0,0,211,81.2a6,6,0,0,0,.12-1.46,3.1,3.1,0,0,0-.38-1.48,4.2,4.2,0,0,0-.9-1.19,2.44,2.44,0,0,0-1.3-.67L151,58.21a3,3,0,0,0-2.19,0L92.61,76a3.54,3.54,0,0,0-1.29.67,2.8,2.8,0,0,0-.91,1.19A2.85,2.85,0,0,0,90,79.34a5.1,5.1,0,0,0,.13,1.46A4.47,4.47,0,0,0,90.79,82.14Z"/></svg>