<svg id="katman_1" data-name="katman 1" xmlns="http://www.w3.org/2000/svg" xmlns:xlink="http://www.w3.org/1999/xlink" viewBox="0 0 300 300"><defs><style>.cls-1{fill:url(#linear-gradient);}</style><linearGradient id="linear-gradient" x1="34.27" y1="150" x2="265.73" y2="150" gradientUnits="userSpaceOnUse"><stop offset="0" stop-color="#0098d2"/><stop offset="0.51" stop-color="#03a0d5"/><stop offset="1" stop-color="#0c588c"/></linearGradient></defs><path class="cls-1" d="M79.16,131.48c10-2.89,19.53-7,29.67-9.26,4.64-1,9.18-1.39,13.65.6a15.55,15.55,0,0,1,9.33,11c2.56,10.12,6.06,19.87,11.78,28.75a36.81,36.81,0,0,0,19.91,15.3c5.45,1.83,11.07,3.22,16.44,5.24,13,4.87,15.17,12.37,7.22,23.59a7.31,7.31,0,0,0-1.39,2.57c12.22-5.58,24.68-10.63,35-19.6,2.88-2.51,3.36-5.52,2.15-9.08a91.57,91.57,0,0,0-10.11-21c-1.93-2.93-1.82-4.54,2.1-5.27,16.67-3.08,32.15-9,45.61-19.59,3.16-2.48,4.81-1.49,4.6,2.36-1.37,26.1-5.1,50.79-24.64,71.28-27.25,28.58-56.45,54.85-86.75,80-3,2.45-5.1,1.92-7.77-.28-17.49-14.41-34.83-29-51.37-44.49-11.92-11.18-23.14-23-34.34-34.93-14.79-15.74-21-34.39-22.7-55.45C35,122.29,34,91.32,34.31,60.3c.1-10.2,4.76-17.38,14.87-19.44C63,38,75.37,31.52,88.46,26.9S114.71,17.6,128,13.44a73.14,73.14,0,0,1,44.35,0c21.89,6.67,43.25,14.71,64.44,23.24A50.43,50.43,0,0,0,248,39.92c6.92,1.06,12.61,4.35,16.28,10.52,2.2,3.69,2.17,6.86-2,9.45-5.67,3.54-11.22,7.28-16.67,11.16-3.31,2.36-4.95,1.36-6-2.14-.48-1.6-1.16-3.14-1.72-4.71-2.7-7.61-2.72-7.64-9.07-3-16.85,12.22-31,27.2-43.15,44-3.33,4.56-6.5,5.34-11.24,3-7.17-3.51-14.68-6.39-21.59-10.33-12.5-7.13-31.82-5.74-39.2,12.27-1.73,4.22-5.19,6.1-8.92,7.85C96,122,87.13,125.75,79.16,131.48Zm-15.38-.91a17.67,17.67,0,0,0-8.61,3.92c-2.75,2.33-3.49,5.24-1.54,8.36s5.06,3.42,8.27,2.08a17.9,17.9,0,0,0,7.52-6.33c1.07-1.5,3.83-2.79,2.54-4.9S68.1,130.32,63.78,130.57Z"/></svg>