<svg width="48" height="48" viewBox="0 0 48 48" fill="none" xmlns="http://www.w3.org/2000/svg">
<path d="M24 48C37.2548 48 48 37.2548 48 24C48 10.7452 37.2548 0 24 0C10.7452 0 0 10.7452 0 24C0 37.2548 10.7452 48 24 48Z" fill="#F3BA2F"/>
<path fill-rule="evenodd" clip-rule="evenodd" d="M18.9825 21.9371L24.0025 16.9194L29.0245 21.9412L31.9437 19.02L24.0025 11.0769L16.0612 19.0179L18.9825 21.9371ZM11.0769 24.0004L13.9972 21.0802L16.9174 24.0004L13.9972 26.9206L11.0769 24.0004ZM24.0025 31.0826L18.9825 26.0628L16.0571 28.98L16.0612 28.9841L24.0025 36.9231L31.9437 28.98L31.9458 28.9779L29.0245 26.0608L24.0025 31.0826ZM31.0825 24.0011L34.0028 21.081L36.9231 24.0011L34.0028 26.9213L31.0825 24.0011ZM24.0025 21.0348L26.9646 23.999H26.9667L26.9646 24.001L24.0025 26.9651L21.0403 24.0051L21.0362 23.999L21.0403 23.9949L21.5588 23.4764L21.812 23.2253L24.0025 21.0348Z" fill="white"/>
</svg>
