<svg width="30" height="30" viewBox="0 0 30 30" fill="none" xmlns="http://www.w3.org/2000/svg">
<rect x="5.46313" y="9.37012" width="1.05556" height="1.05556" fill="white"/>
<rect x="5.46313" y="11.1296" width="1.05556" height="1.05556" fill="white"/>
<path d="M14.9999 29.7777C23.1615 29.7777 29.7777 23.1615 29.7777 14.9999C29.7777 6.8384 23.1615 0.222168 14.9999 0.222168C6.8384 0.222168 0.222168 6.8384 0.222168 14.9999C0.222168 23.1615 6.8384 29.7777 14.9999 29.7777Z" fill="white"/>
<path fill-rule="evenodd" clip-rule="evenodd" d="M11.9105 13.7298L15.0015 10.6402L18.0938 13.7323L19.8913 11.9336L15.0015 7.04272L10.1117 11.9323L11.9105 13.7298ZM7.04272 15.0003L8.84085 13.2022L10.639 15.0003L8.84085 16.7983L7.04272 15.0003ZM15.0015 19.3611L11.9105 16.2702L10.1092 18.0664L10.1117 18.0689L15.0015 22.9573L19.8913 18.0664L19.8925 18.0651L18.0938 16.2689L15.0015 19.3611ZM19.361 15.0007L21.1591 13.2026L22.9573 15.0007L21.1591 16.7988L19.361 15.0007ZM15.0015 13.1742L16.8254 14.9994H16.8267L16.8254 15.0006L15.0015 16.8257L13.1776 15.0031L13.1751 14.9994L13.1776 14.9968L13.4969 14.6776L13.6527 14.523L15.0015 13.1742Z" fill="#F3BA2F"/>
</svg>
