<svg width="43" height="47" viewBox="0 0 43 47" fill="none" xmlns="http://www.w3.org/2000/svg">
<path d="M21.9523 0.726562C32.9455 0.726562 41.8447 9.62581 41.8447 20.619C41.8447 31.6122 32.9455 40.5115 21.9523 40.5115C10.9591 40.5115 2.1001 31.5719 2.1001 20.619C2.1001 9.62581 10.9993 0.726562 21.9523 0.726562Z" fill="#DB2728"/>
<path d="M17.4837 17.1567C16.8797 16.5527 16.1951 16.0292 15.4703 15.6265V19.0493C16.7186 20.2574 17.4837 21.9486 17.4837 23.8412V23.8815C17.4837 25.2506 17.081 26.5392 16.3562 27.5862C16.8394 28.3915 17.5239 29.0761 18.289 29.5593C19.4971 27.9888 20.2219 26.0157 20.2219 23.8815V23.8412C20.2219 21.2238 19.1749 18.848 17.4837 17.1567ZM13.0945 30.123C12.3696 30.4049 11.5643 30.5257 10.7589 30.5257C7.05424 30.5257 4.03413 27.5056 4.03413 23.801C4.03413 20.0963 7.05424 17.0762 10.7589 17.0762C10.9602 17.0762 11.1616 17.0762 11.3227 17.1164V14.3782C11.1213 14.3782 10.92 14.3782 10.7589 14.3782C5.52405 14.3379 1.2959 18.5661 1.2959 23.801C1.2959 29.0358 5.52405 33.264 10.7589 33.264C12.2891 33.264 13.7387 32.9015 15.0273 32.2573C14.3025 31.613 13.6582 30.9284 13.0945 30.123Z" fill="#DB2728"/>
<path d="M10.757 34.4712C4.87784 34.4712 0.0859375 29.6793 0.0859375 23.8002C0.0859375 17.9211 4.87784 13.1292 10.757 13.1292C10.9583 13.1292 11.1999 13.1292 11.4013 13.1292C12.0456 13.1694 12.5288 13.6929 12.5288 14.3372V17.0754C12.5288 17.3976 12.3677 17.76 12.1261 17.9613C11.8845 18.2029 11.5221 18.2835 11.1999 18.2835C11.0791 18.2835 10.9181 18.2432 10.757 18.2432C7.69661 18.2432 5.24025 20.6996 5.24025 23.7599C5.24025 26.8203 7.69661 29.3169 10.757 29.3169C11.4415 29.3169 12.0858 29.1961 12.6899 28.9545C13.2133 28.7532 13.8174 28.9545 14.0992 29.3975C14.5825 30.082 15.1462 30.7263 15.8308 31.2901C16.1529 31.5317 16.314 31.9344 16.2737 32.337C16.2334 32.7397 15.9918 33.1021 15.6294 33.2632C14.0992 34.0686 12.4482 34.4712 10.757 34.4712ZM10.1127 15.5855C5.88454 15.9077 2.50202 19.4512 2.50202 23.8002C2.50202 28.3505 6.20669 32.0552 10.757 32.0552C11.4818 32.0552 12.1664 31.9746 12.8509 31.7733C12.7704 31.6927 12.6899 31.5719 12.6093 31.4914C12.0053 31.6525 11.361 31.733 10.7167 31.733C6.36776 31.733 2.82417 28.1894 2.82417 23.8002C2.82417 19.6526 6.04562 16.1895 10.153 15.9076V15.5855H10.1127ZM18.2871 30.7263C18.0858 30.7263 17.8442 30.6458 17.6428 30.525C16.7167 29.9209 15.9113 29.1156 15.3073 28.1492C15.0657 27.7465 15.0657 27.223 15.3475 26.8606C15.9516 25.9747 16.2737 24.9277 16.2737 23.8002C16.2737 22.3103 15.71 20.9009 14.6227 19.8539C14.3811 19.6123 14.2603 19.3304 14.2603 19.0083V15.5855C14.2603 15.1426 14.5019 14.7399 14.8643 14.5385C15.2267 14.3372 15.71 14.3372 16.0724 14.5385C16.918 15.0218 17.6831 15.6258 18.3274 16.2701C20.3005 18.2835 21.428 20.9412 21.428 23.7599C21.428 26.1357 20.6629 28.3505 19.2536 30.2028C19.0119 30.5652 18.6495 30.7263 18.2871 30.7263ZM17.8039 27.4646C17.8844 27.5451 17.965 27.6257 18.0455 27.7062C18.6898 26.4982 19.0522 25.1693 19.0522 23.8002C19.0522 21.6257 18.2469 19.572 16.7167 18.0419V18.5251C18.0052 19.9747 18.7301 21.8271 18.7301 23.8002C18.6898 25.0888 18.3677 26.3774 17.8039 27.4646Z" fill="#DB2728"/>
<path d="M20.2197 9.42432H17.4814V23.8H20.2197V9.42432Z" fill="#DB2728"/>
<path d="M20.2221 24.5236H17.4839C17.1215 24.5236 16.7993 24.2015 16.7993 23.8391V9.42308C16.7993 9.06067 17.1215 8.73853 17.4839 8.73853H20.2221C20.5845 8.73853 20.9067 9.06067 20.9067 9.42308V23.7988C20.9067 24.2015 20.5845 24.5236 20.2221 24.5236ZM18.1684 23.1545H19.5375V10.1076H18.1684V23.1545Z" fill="#DB2728"/>
<path d="M31.4147 3.94653C26.1798 3.94653 21.9517 8.17468 21.9517 13.4095C21.9517 15.9867 22.9986 18.3625 24.6899 20.0538C25.4953 20.8591 26.4617 21.5437 27.5087 22.0269V18.886C25.7771 17.678 24.6899 15.6646 24.6899 13.4095C24.6899 9.70487 27.71 6.68476 31.4147 6.68476C35.1193 6.68476 38.1394 9.70487 38.1394 13.4095C38.1394 17.0337 35.2401 20.0135 31.6563 20.1343V22.8725C36.7703 22.7517 40.8777 18.5639 40.8777 13.4095C40.8777 8.17468 36.6495 3.94653 31.4147 3.94653Z" fill="#DB2728"/>
<path d="M31.6544 24.0828C31.3322 24.0828 31.0503 23.962 30.8087 23.7204C30.5671 23.4788 30.4463 23.1969 30.4463 22.8748V20.1365C30.4463 19.4923 30.9698 18.9688 31.6141 18.9285C34.5939 18.848 36.9295 16.3916 36.9295 13.4118C36.9295 10.3514 34.4731 7.89504 31.4127 7.89504C28.3524 7.89504 25.896 10.3514 25.896 13.4118C25.896 15.1836 26.7819 16.8748 28.2316 17.9218C28.5537 18.1634 28.7551 18.5258 28.7551 18.8882V22.0291C28.7551 22.4318 28.5537 22.8345 28.1913 23.0358C27.8289 23.2775 27.4262 23.2775 27.0235 23.1164C25.8558 22.5929 24.7685 21.8278 23.8423 20.9016C21.8289 18.8882 20.7417 16.2305 20.7417 13.4118C20.7417 7.53263 25.5336 2.74072 31.4127 2.74072C37.2919 2.74072 42.0838 7.53263 42.0838 13.4118C42.1241 19.2506 37.5335 23.9217 31.6544 24.0828C31.6946 24.0828 31.6946 24.0828 31.6544 24.0828ZM32.8624 21.2238V21.5459C36.7281 20.8614 39.6677 17.4386 39.6677 13.4118C39.6677 8.86147 35.963 5.15681 31.4127 5.15681C26.8625 5.15681 23.1578 8.86147 23.1578 13.4118C23.1578 15.5862 24.0034 17.6802 25.5336 19.2104C25.7752 19.452 26.0168 19.6936 26.2987 19.8949V19.4923C24.5269 18.0023 23.4799 15.7876 23.4799 13.4118C23.4799 9.02255 27.0235 5.47895 31.4127 5.47895C35.802 5.47895 39.3456 9.02255 39.3456 13.4118C39.3858 17.3178 36.6073 20.5392 32.8624 21.2238Z" fill="#DB2728"/>
<path d="M24.6899 13.4094H21.9517V27.7851H24.6899V13.4094Z" fill="#DB2728"/>
<path d="M24.6889 28.4751H21.9507C21.5883 28.4751 21.2661 28.1529 21.2661 27.7905V13.4148C21.2661 13.0524 21.5883 12.7302 21.9507 12.7302H24.6889C25.0513 12.7302 25.3735 13.0524 25.3735 13.4148V27.7905C25.3735 28.1932 25.0916 28.4751 24.6889 28.4751ZM22.6352 27.1059H24.0043V14.0993H22.6352V27.1059Z" fill="#DB2728"/>
<path d="M14.7846 11.5571V14.094V24.4429C14.7846 28.1476 17.8047 31.1677 21.5094 31.1677C25.2141 31.1677 28.2342 28.1476 28.2342 24.4429V15.2215H30.9724V24.4429V26.0134V35.2348C30.9724 36.5234 30.7308 37.7314 30.2476 38.8589C28.8382 42.2817 25.4557 44.6978 21.5094 44.6978C18.7309 44.6978 16.2745 43.53 14.543 41.6374C13.8987 40.9528 13.3752 40.1878 12.9726 39.3421L15.0665 37.2482C15.3484 38.1743 15.8316 39.02 16.4759 39.7045C17.7242 41.1139 19.496 41.9595 21.5094 41.9595C25.2141 41.9595 28.2342 38.9394 28.2342 35.2348V31.0872C26.5026 32.8187 24.1268 33.9059 21.5094 33.9059C16.5161 33.9059 12.4491 30.0805 12.0867 25.1677H12.0464V14.4162C12.0464 14.2954 12.0464 14.2148 12.0464 14.094V11.5571H14.7846Z" fill="#DB2728"/>
<path d="M21.5096 45.3408C18.6908 45.3408 15.9526 44.1328 14.0197 42.0388C13.3352 41.314 12.7714 40.4684 12.3285 39.5825C12.2077 39.3006 12.2479 39.0187 12.4493 38.8174L14.5432 36.7235C14.7043 36.5624 14.9459 36.4819 15.1875 36.5624C15.4291 36.6027 15.5902 36.804 15.6707 37.0053C15.9123 37.851 16.3553 38.5758 16.919 39.2201C18.0466 40.5087 19.6975 41.2335 21.4291 41.2335C24.7713 41.2335 27.4693 38.5355 27.4693 35.1933V32.5758C25.7378 33.8644 23.6438 34.5893 21.4291 34.5893C16.2345 34.5893 11.8453 30.6027 11.3218 25.4484C11.362 25.3276 11.362 25.2471 11.362 25.1665V14.4149C11.362 14.3344 11.362 14.2539 11.362 14.1733C11.362 14.1331 11.362 14.1331 11.362 14.0928V11.5559C11.362 11.1935 11.6842 10.8713 12.0466 10.8713H14.7848C15.1472 10.8713 15.4694 11.1935 15.4694 11.5559V24.3612C15.4694 24.4014 15.4694 24.4014 15.4694 24.4417C15.4694 27.7839 18.1674 30.4819 21.5096 30.4819C24.8519 30.4819 27.5498 27.7839 27.5498 24.4417V15.2203C27.5498 14.8579 27.872 14.5357 28.2344 14.5357H30.9726C31.335 14.5357 31.6572 14.8579 31.6572 15.2203V35.1933C31.6572 36.5624 31.4156 37.851 30.8921 39.0993C29.3216 42.8845 25.617 45.3408 21.5096 45.3408ZM13.8184 39.4214C14.1405 40.0254 14.5835 40.5892 15.0667 41.1127C16.7177 42.9248 19.0935 43.9717 21.5499 43.9717C25.0935 43.9717 28.2747 41.8375 29.6438 38.5758C30.0867 37.5288 30.3283 36.361 30.3283 35.1933V15.9049H28.9592V24.4417C28.9592 28.549 25.617 31.851 21.5499 31.851C17.4828 31.851 14.1808 28.549 14.1405 24.5222C14.1405 24.482 14.1405 24.482 14.1405 24.4417V12.2405H12.7714V13.972C12.7714 14.0123 12.7714 14.0525 12.7714 14.0928C12.7714 14.2136 12.7714 14.2941 12.7714 14.4149V24.9652C12.7714 25.0054 12.8117 25.0457 12.8117 25.1262C13.1741 29.6765 16.9996 33.2201 21.5499 33.2201C23.9257 33.2201 26.1404 32.294 27.7914 30.6027C27.9928 30.4014 28.2746 30.3611 28.5565 30.4416C28.7981 30.5624 28.9995 30.8041 28.9995 31.0859V35.1933C28.9995 39.3006 25.6572 42.6026 21.5901 42.6026C19.4559 42.6026 17.4425 41.6764 16.0331 40.106C15.5902 39.5825 15.1875 39.0187 14.9056 38.4147L13.8184 39.4214Z" fill="#DB2728"/>
<path d="M21.5093 46.2701C18.4086 46.2701 15.4288 44.9815 13.3349 42.6862C12.61 41.8808 11.9657 40.9547 11.5228 39.9882C11.2409 39.3842 11.3617 38.6191 11.8449 38.1359L13.9389 36.042C14.3416 35.6393 14.9053 35.4782 15.4691 35.599C16.0328 35.7198 16.4355 36.1628 16.6368 36.6863C16.8382 37.3708 17.2006 38.0151 17.6838 38.5789C18.6502 39.6661 20.0596 40.3104 21.5093 40.3104C24.328 40.3104 26.6233 38.0151 26.6233 35.1963V34.2702C25.0529 35.0755 23.3213 35.5185 21.5093 35.5185C15.8717 35.5185 11.1201 31.2098 10.5161 25.6528C10.4758 25.4917 10.4355 25.3709 10.4355 25.2099V14.418C10.4355 14.3375 10.4355 14.2569 10.4355 14.2167C10.4355 14.1764 10.4355 14.1361 10.4355 14.0959V11.559C10.4355 10.6731 11.1604 9.94824 12.0463 9.94824H14.7845C15.6704 9.94824 16.3952 10.6731 16.3952 11.559V24.324C16.3952 24.3642 16.3952 24.4045 16.3952 24.4448C16.3952 27.2635 18.6905 29.5588 21.5093 29.5588C24.328 29.5588 26.6233 27.2635 26.6233 24.4448V15.2234C26.6233 14.3375 27.3482 13.6126 28.234 13.6126H30.9723C31.8582 13.6126 32.583 14.3375 32.583 15.2234V35.1963C32.583 36.6863 32.3011 38.0956 31.7374 39.4648C30.0058 43.5721 25.979 46.2701 21.5093 46.2701ZM28.234 29.4783C28.4354 29.4783 28.6367 29.5185 28.8381 29.5991C29.0394 29.6796 29.2005 29.8004 29.3616 29.9212V27.2233C29.0797 28.0286 28.677 28.7937 28.1535 29.4783C28.1535 29.4783 28.1938 29.4783 28.234 29.4783Z" fill="#DB2728"/>
<path d="M17.4837 17.1567C16.8797 16.5527 16.1951 16.0292 15.4703 15.6265V19.0493C16.7186 20.2574 17.4837 21.9486 17.4837 23.8412V23.8815C17.4837 25.2506 17.081 26.5392 16.3562 27.5862C16.8394 28.3915 17.5239 29.0761 18.289 29.5593C19.4971 27.9888 20.2219 26.0157 20.2219 23.8815V23.8412C20.2219 21.2238 19.1749 18.848 17.4837 17.1567ZM13.0945 30.123C12.3696 30.4049 11.5643 30.5257 10.7589 30.5257C7.05424 30.5257 4.03413 27.5056 4.03413 23.801C4.03413 20.0963 7.05424 17.0762 10.7589 17.0762C10.9602 17.0762 11.1616 17.0762 11.3227 17.1164V14.3782C11.1213 14.3782 10.92 14.3782 10.7589 14.3782C5.52405 14.3379 1.2959 18.5661 1.2959 23.801C1.2959 29.0358 5.52405 33.264 10.7589 33.264C12.2891 33.264 13.7387 32.9015 15.0273 32.2573C14.3025 31.613 13.6582 30.9284 13.0945 30.123Z" fill="white"/>
<path d="M20.2197 9.42432H17.4814V23.8H20.2197V9.42432Z" fill="white"/>
<path d="M31.4147 3.94653C26.1798 3.94653 21.9517 8.17468 21.9517 13.4095C21.9517 15.9867 22.9986 18.3625 24.6899 20.0538C25.4953 20.8591 26.4617 21.5437 27.5087 22.0269V18.886C25.7771 17.678 24.6899 15.6646 24.6899 13.4095C24.6899 9.70487 27.71 6.68476 31.4147 6.68476C35.1193 6.68476 38.1394 9.70487 38.1394 13.4095C38.1394 17.0337 35.2401 20.0135 31.6563 20.1343V22.8725C36.7703 22.7517 40.8777 18.5639 40.8777 13.4095C40.8777 8.17468 36.6495 3.94653 31.4147 3.94653Z" fill="white"/>
<path d="M24.6899 13.4094H21.9517V27.7851H24.6899V13.4094Z" fill="white"/>
<path d="M14.7846 11.5571V14.094V24.4429C14.7846 28.1476 17.8047 31.1677 21.5094 31.1677C25.2141 31.1677 28.2342 28.1476 28.2342 24.4429V15.2215H30.9724V24.4429V26.0134V35.2348C30.9724 36.5234 30.7308 37.7314 30.2476 38.8589C28.8382 42.2817 25.4557 44.6978 21.5094 44.6978C18.7309 44.6978 16.2745 43.53 14.543 41.6374C13.8987 40.9528 13.3752 40.1878 12.9726 39.3421L15.0665 37.2482C15.3484 38.1743 15.8316 39.02 16.4759 39.7045C17.7242 41.1139 19.496 41.9595 21.5094 41.9595C25.2141 41.9595 28.2342 38.9394 28.2342 35.2348V31.0872C26.5026 32.8187 24.1268 33.9059 21.5094 33.9059C16.5161 33.9059 12.4491 30.0805 12.0867 25.1677H12.0464V14.4162C12.0464 14.2954 12.0464 14.2148 12.0464 14.094V11.5571H14.7846Z" fill="white"/>
</svg>
