<svg width="25" height="28" viewBox="0 0 25 28" fill="none" xmlns="http://www.w3.org/2000/svg">
<path d="M20.6113 19.4466C19.598 19.4466 18.6847 19.8399 17.9913 20.4732L8.49133 14.9332C8.56466 14.6332 8.61133 14.3199 8.61133 13.9999C8.61133 13.6799 8.56466 13.3666 8.49133 13.0666L17.8913 7.57991C18.6047 8.24658 19.558 8.65991 20.6113 8.65991C22.818 8.65991 24.6113 6.86658 24.6113 4.65991C24.6113 2.45325 22.818 0.659912 20.6113 0.659912C18.4047 0.659912 16.6113 2.45325 16.6113 4.65991C16.6113 4.97991 16.658 5.29325 16.7313 5.59325L7.33133 11.0799C6.61799 10.4132 5.66466 9.99991 4.61133 9.99991C2.40466 9.99991 0.611328 11.7932 0.611328 13.9999C0.611328 16.2066 2.40466 17.9999 4.61133 17.9999C5.66466 17.9999 6.61799 17.5866 7.33133 16.9199L16.8313 22.4599C16.7647 22.7399 16.7247 23.0332 16.7247 23.3332C16.7247 25.4799 18.4647 27.2199 20.6113 27.2199C22.758 27.2199 24.498 25.4799 24.498 23.3332C24.498 21.1866 22.758 19.4466 20.6113 19.4466Z" fill="url(#paint0_linear_41_218443)"/>
<defs>
<linearGradient id="paint0_linear_41_218443" x1="4.51682" y1="18.0059" x2="24.6113" y2="0.659914" gradientUnits="userSpaceOnUse">
<stop stop-color="#E30613"/>
<stop offset="1" stop-color="#FC4F36"/>
</linearGradient>
</defs>
</svg>
