<svg width="25" height="25" viewBox="0 0 25 25" fill="none" xmlns="http://www.w3.org/2000/svg">
<g clip-path="url(#clip0_72_2651)">
<path d="M7.90544 21.9982C16.7705 21.9982 21.6206 14.6518 21.6206 8.283C21.6206 8.07647 21.616 7.86535 21.6068 7.65883C22.5503 6.9765 23.3646 6.13135 24.0113 5.16308C23.1325 5.55403 22.1996 5.80936 21.2443 5.92034C22.2502 5.31739 23.0033 4.37019 23.3641 3.25432C22.4178 3.81513 21.383 4.21073 20.3039 4.42417C19.5768 3.65162 18.6155 3.14011 17.5686 2.9687C16.5216 2.7973 15.4474 2.97556 14.5119 3.47591C13.5764 3.97627 12.8319 4.77086 12.3933 5.73683C11.9547 6.70281 11.8465 7.78636 12.0855 8.81996C10.1694 8.72381 8.2949 8.22606 6.5835 7.35897C4.8721 6.49189 3.36202 5.27483 2.15116 3.7867C1.53574 4.84776 1.34742 6.10334 1.62448 7.29826C1.90153 8.49318 2.62318 9.53778 3.64274 10.2198C2.87731 10.1954 2.12865 9.98937 1.45861 9.61853V9.67819C1.45793 10.7917 1.84288 11.8711 2.54803 12.7329C3.25318 13.5946 4.23501 14.1856 5.32662 14.4053C4.61757 14.5993 3.87339 14.6276 3.15167 14.488C3.4597 15.4456 4.05902 16.2831 4.86598 16.8838C5.67294 17.4844 6.64728 17.8181 7.65302 17.8383C5.94557 19.1795 3.83637 19.907 1.66514 19.9035C1.28009 19.9029 0.895418 19.8793 0.513184 19.8328C2.71892 21.2479 5.28479 21.9995 7.90544 21.9982Z" fill="white"/>
</g>
<defs>
<clipPath id="clip0_72_2651">
<rect width="23.4981" height="23.4981" fill="white" transform="translate(0.513184 0.703125)"/>
</clipPath>
</defs>
</svg>
