<svg width="24" height="24" viewBox="0 0 24 24" fill="none" xmlns="http://www.w3.org/2000/svg">
<path d="M21.3627 3.81647L15.5403 11.8998C15.4603 12.0399 15.4603 12.2 15.5403 12.34L21.3627 20.8035C21.6028 21.1637 21.1626 21.5839 20.8025 21.3638L12.2189 15.6414C12.0789 15.5614 11.9188 15.5614 11.7787 15.6414L3.19515 21.3638C2.835 21.6039 2.41483 21.1637 2.63492 20.8035L8.45734 12.34C8.53738 12.2 8.53738 12.0399 8.45734 11.8998L2.63492 3.81647C2.39482 3.45632 2.835 3.03614 3.19515 3.25623L11.7787 8.57845C11.9188 8.65848 12.0789 8.65848 12.2189 8.57845L20.8025 3.25623C21.1626 3.03614 21.5828 3.45632 21.3627 3.81647Z" fill="#F3BF09"/>
<path d="M12.4002 0.315131L14.0809 9.61901C14.1209 9.77907 14.2409 9.89912 14.381 9.91913L23.6849 11.5998C24.105 11.6999 24.105 12.3001 23.6849 12.3802L14.361 14.0609C14.2009 14.1009 14.0809 14.2209 14.0609 14.361L12.4002 23.6849C12.3201 24.105 11.6999 24.105 11.6198 23.6849L9.93914 14.361C9.89912 14.2009 9.77907 14.0809 9.63902 14.0609L0.315131 12.4002C-0.105044 12.3201 -0.105044 11.6999 0.315131 11.6198L9.61901 9.93914C9.77907 9.89912 9.89912 9.77907 9.91913 9.63902L11.5998 0.315131C11.6999 -0.105044 12.3001 -0.105044 12.4002 0.315131Z" fill="#F39909"/>
<path opacity="0.75" d="M9.72928 10.6029C9.27709 10.891 8.46875 10.891 8.46875 11.2391C8.46875 11.4952 8.93094 11.4952 9.42315 11.4952C10.1214 11.4852 10.7057 11.4232 10.9918 11.1871C11.2799 10.951 11.372 10.5609 11.402 9.77252C11.432 8.82813 11.36 8.66406 11.1259 8.66406C10.8157 8.66406 10.6216 10.0486 9.72928 10.6029Z" fill="#FFE06A"/>
</svg>
