<svg width="2492" height="1621" viewBox="0 0 2492 1621" fill="none" xmlns="http://www.w3.org/2000/svg">
<rect x="196" y="181" width="2096" height="1282" rx="30" fill="#1A1C39"/>
<path d="M1243.43 171.628C1243.43 171.628 269.128 170.804 265.97 169.088C262.812 167.372 191.758 219.684 187.364 228.815C182.97 237.945 187.364 807.613 187.364 807.613H235.42L236.107 569.05C236.107 569.05 213.589 485.776 210.499 458.522C207.41 431.267 205.213 243.506 207.822 237.259C210.431 231.011 264.459 190.576 273.384 188.448C282.309 186.319 519.156 187.967 524.03 190.027C528.904 192.086 554.786 213.849 561.788 216.595C568.791 219.341 1025.32 222.636 1037.95 219.959C1050.59 217.281 1068.37 194.214 1073.58 191.125C1078.8 188.036 1243.5 191.125 1243.5 191.125L1243.43 171.628Z" fill="url(#paint0_linear_12_1492)"/>
<path d="M1243.42 171.628C1243.42 171.628 2217.66 170.804 2220.81 169.088C2223.97 167.372 2295.3 219.684 2299.35 228.815C2303.4 237.945 2299.35 807.613 2299.35 807.613H2251.29L2250.61 569.05C2250.61 569.05 2273.06 485.776 2276.21 458.522C2279.37 431.267 2281.43 243.506 2278.82 237.259C2276.21 231.011 2222.19 190.576 2213.26 188.448C2204.34 186.319 1967.56 187.967 1962.62 190.027C1957.67 192.086 1931.86 213.849 1924.86 216.595C1917.86 219.341 1461.32 222.636 1448.76 219.959C1436.2 217.281 1418.35 194.214 1413.13 191.125C1407.91 188.036 1243.22 191.125 1243.22 191.125L1243.42 171.628Z" fill="url(#paint1_linear_12_1492)"/>
<path d="M1243.43 1443.94C1243.43 1443.94 269.131 1444.77 265.973 1446.48C262.815 1448.2 191.555 1395.82 187.367 1386.34C183.179 1376.87 187.367 807.614 187.367 807.614H235.423L236.11 1046.18C236.11 1046.18 213.592 1129.45 210.503 1156.71C207.413 1183.96 205.217 1371.72 207.825 1377.97C210.434 1384.22 264.463 1424.65 273.387 1426.78C282.312 1428.91 519.159 1427.26 524.033 1425.2C528.907 1423.14 554.789 1401.38 561.791 1398.63C568.794 1395.89 1025.32 1392.59 1037.96 1395.27C1050.59 1397.95 1068.37 1421.01 1073.59 1424.1C1078.8 1427.19 1243.5 1424.1 1243.5 1424.1L1243.43 1443.94Z" fill="url(#paint2_linear_12_1492)"/>
<path d="M1243.42 1443.94C1243.42 1443.94 2217.65 1444.77 2220.81 1446.48C2223.97 1448.2 2295.3 1395.82 2299.48 1386.34C2303.67 1376.87 2299.48 807.614 2299.48 807.614H2251.43L2250.74 1046.18C2250.74 1046.18 2273.19 1129.45 2276.35 1156.71C2279.51 1183.96 2281.56 1371.72 2278.96 1377.97C2276.35 1384.22 2222.32 1424.65 2213.39 1426.78C2204.47 1428.91 1967.69 1427.26 1962.75 1425.2C1957.81 1423.14 1931.99 1401.38 1924.99 1398.63C1917.99 1395.89 1461.46 1392.59 1448.89 1395.27C1436.33 1397.95 1418.48 1421.01 1413.26 1424.1C1408.05 1427.19 1243.35 1424.1 1243.35 1424.1L1243.42 1443.94Z" fill="url(#paint3_linear_12_1492)"/>
<path d="M275.436 1441.2C275.436 1441.2 211.453 1390.87 201.979 1383.53C192.505 1376.18 124.403 1370.83 124.403 1370.83C124.403 1370.83 338.664 1609.6 348.481 1616.81C358.298 1624.01 1243.42 1617.35 1243.42 1617.35V1506.55C1243.42 1506.55 1093.76 1509.37 1050.44 1505.18C1007.12 1500.99 951.514 1444.28 951.514 1444.28L275.436 1441.2Z" fill="url(#paint4_linear_12_1492)"/>
<path d="M2211.4 1441.2L2284.79 1383.53C2294.26 1376.18 2362.43 1370.83 2362.43 1370.83C2362.43 1370.83 2148.31 1609.6 2138.36 1616.81C2128.4 1624.01 1243.42 1617.35 1243.42 1617.35V1506.55C1243.42 1506.55 1393.01 1509.37 1436.4 1505.18C1479.78 1500.99 1536.01 1443.05 1536.01 1443.05L2211.4 1441.2Z" fill="url(#paint5_linear_12_1492)"/>
<path d="M1452.12 1580.69C1452.12 1580.69 1565.4 1487.33 1578.99 1478.95C1592.58 1470.58 2195.68 1478.95 2195.68 1478.95C2195.68 1478.95 2122.23 1577.54 2110.69 1583.78C2099.16 1590.03 1452.12 1580.69 1452.12 1580.69Z" fill="#150E20"/>
<path d="M1036.16 1580.69C1036.16 1580.69 922.954 1487.33 909.293 1478.95C895.631 1470.58 292.667 1478.95 292.667 1478.95C292.667 1478.95 366.055 1577.54 377.589 1583.78C389.122 1590.03 1036.16 1580.69 1036.16 1580.69Z" fill="#150E20"/>
<path d="M951.518 1444.29L1536.01 1443.05C1536.01 1443.05 1473.06 1503.05 1456.31 1510.4C1439.56 1517.74 1053.6 1510.4 1040.49 1510.4C1027.38 1510.4 951.518 1444.29 951.518 1444.29Z" fill="#F64AD1"/>
<path d="M186.538 1376.53C186.538 1376.53 135.256 1337.88 124.752 1308.29C114.249 1278.7 113.905 899.949 113.905 899.949C113.905 899.949 179.605 995.237 195.051 1000.59L186.538 1376.53Z" fill="url(#paint6_linear_12_1492)"/>
<path d="M175.824 1317.62C167.19 1314.78 159.433 1309.77 153.301 1303.06C147.168 1296.35 142.868 1288.17 140.812 1279.32C134.565 1249.25 138.066 981.851 138.066 981.851C138.066 981.851 170.812 1020.91 177.128 1044.74C183.444 1068.56 175.824 1317.62 175.824 1317.62Z" fill="#F64AD1"/>
<path d="M113.558 899.949L186.534 935.442V973.475L211.317 1005.95C203.488 1005.11 195.891 1002.78 188.937 999.082C178.914 993.727 125.091 923.977 113.558 899.949Z" fill="#343B54"/>
<path d="M124.403 1370.83L165.594 1358.88C165.594 1358.88 183.238 1373.71 186.739 1376.53C190.24 1379.34 219.966 1397.12 219.966 1397.12C219.966 1397.12 156.944 1400.07 124.403 1370.83Z" fill="#343B54"/>
<path d="M106.557 622.118C106.557 622.118 167.313 567.609 185.437 560.743C203.561 553.878 227.177 564.451 227.177 564.451C227.177 564.451 200.403 540.697 185.437 541.041C170.471 541.384 129.143 576.671 106.557 622.118Z" fill="#150E20"/>
<path d="M347.117 170.804L299.679 128.652C299.679 128.652 503.711 126.044 508.585 128.652C513.459 131.261 572.224 170.255 572.224 170.255L347.117 170.804Z" fill="url(#paint7_linear_12_1492)"/>
<path d="M113.566 415.752C115.076 384.996 42.2373 264.719 42.2373 234.925V20.5955C42.2373 20.5955 134.917 153.367 150.569 160.713C166.222 168.058 266.109 168.745 266.109 168.745C266.109 168.745 177.343 223.666 138.418 288.198C111.987 331.86 113.566 415.752 113.566 415.752Z" fill="url(#paint8_linear_12_1492)"/>
<path d="M187.359 228.815C187.359 228.815 125.092 290.601 117.746 331.792C111.568 366.117 106.557 621.981 106.557 621.981C106.557 621.981 153.171 546.876 185.437 540.903L187.359 228.815Z" fill="url(#paint9_linear_12_1492)"/>
<path d="M125.437 551.887C125.437 551.887 130.173 368.314 136.489 344.767C142.805 321.219 169.511 279.685 169.511 279.685L166.352 502.596C166.352 502.596 137.519 527.242 125.437 551.887Z" fill="#150E20"/>
<path d="M113.558 405.66C113.558 405.66 117.265 330.899 131.475 304.331C145.686 277.763 187.358 228.815 187.358 228.815C187.358 228.815 129.279 283.736 122.688 301.585C116.098 319.434 113.558 405.66 113.558 405.66Z" fill="#434A61"/>
<path d="M106.558 314.835C106.558 314.835 68.6619 255.108 63.4444 234.65C58.2269 214.192 64.1308 96.1805 64.1308 96.1805C64.1308 96.1805 106.763 162.772 113.56 174.306C120.356 185.839 106.558 314.835 106.558 314.835Z" fill="#F64AD1"/>
<path d="M42.2373 20.5955C42.2373 20.5955 186.405 147.944 197.801 154.259C209.197 160.575 299.68 169.088 299.68 169.088C299.68 169.088 170.203 169.981 150.432 160.575C130.66 151.17 42.2373 20.5955 42.2373 20.5955Z" fill="#434A61"/>
<path d="M508.582 128.652L648.768 170.461H537.484C537.484 170.461 513.525 152.612 508.582 128.652Z" fill="#434A61"/>
<path d="M1448.96 1395.27C1448.96 1395.27 1442.1 1393.9 1409.83 1424.72H1462.21C1462.21 1424.72 1464.34 1401.45 1448.96 1395.27Z" fill="#150E20"/>
<path d="M1037.27 1395.27C1037.27 1395.27 1044.13 1393.9 1076.4 1424.72H1023.95C1023.95 1424.72 1021.89 1401.45 1037.27 1395.27Z" fill="#150E20"/>
<path d="M177.133 1044.74C177.133 1044.74 162.373 1005.95 146.171 998.121C146.171 998.121 143.837 1225.15 148.025 1259C148.793 1268.27 151.736 1277.22 156.614 1285.14C161.493 1293.07 168.169 1299.72 176.103 1304.58L177.133 1044.74Z" fill="url(#paint10_linear_12_1492)"/>
<path d="M550.189 1442.43C550.189 1442.43 584.515 1408.11 591.38 1406.6C598.245 1405.09 650.077 1406.6 650.077 1406.6L608.886 1442.43H550.189Z" fill="#F64AD1"/>
<path d="M627.756 1442.43C627.756 1442.43 662.081 1408.11 668.947 1406.6C675.812 1405.09 727.712 1406.6 727.712 1406.6L686.521 1442.43H627.756Z" fill="#F64AD1"/>
<path d="M556.973 1442.43C556.973 1442.43 587.454 1412.09 595.28 1409.96C603.106 1407.83 647.249 1409.27 647.249 1409.27L609.216 1442.43H556.973Z" fill="url(#paint11_linear_12_1492)"/>
<path d="M634.623 1442.43C634.623 1442.43 667.37 1412.64 671.832 1410.51C676.294 1408.38 724.282 1409.75 724.282 1409.75L686.798 1442.43H634.623Z" fill="url(#paint12_linear_12_1492)"/>
<path d="M962.363 1454.79C962.363 1454.79 1312.48 1441.54 1523.59 1454.79C1523.59 1454.79 1463.17 1509.23 1456.31 1510.4C1449.44 1511.56 1054.01 1516.85 1040.49 1510.4C1026.96 1503.94 962.363 1454.79 962.363 1454.79Z" fill="url(#paint13_linear_12_1492)"/>
<path d="M71.4141 107.645C71.4141 107.645 74.0917 219.41 76.8378 228.815C79.5838 238.22 108.692 294.171 108.692 294.171C108.692 294.171 115.557 196.686 115.557 176.434C115.489 162.086 71.4141 107.645 71.4141 107.645Z" fill="url(#paint14_linear_12_1492)"/>
<path d="M562.468 169.569C574.619 169.569 516.814 36.5226 516.814 36.5226L798.834 42.4953C798.834 42.4953 761.282 0.0688148 770.756 3.22677C780.23 6.38473 1243.63 6.31606 1243.63 6.31606V171.628L562.468 169.569Z" fill="url(#paint15_linear_12_1492)"/>
<path d="M2300.24 1376.53C2300.24 1376.53 2351.59 1337.88 2362.44 1308.29C2373.28 1278.7 2373.22 899.949 2373.22 899.949C2373.22 899.949 2307.52 995.443 2292.48 1000.59L2300.24 1376.53Z" fill="url(#paint16_linear_12_1492)"/>
<path d="M2311.03 1317.62C2319.65 1314.78 2327.4 1309.77 2333.52 1303.06C2339.64 1296.34 2343.93 1288.17 2345.97 1279.32C2352.28 1249.25 2348.78 981.851 2348.78 981.851C2348.78 981.851 2315.97 1020.91 2309.72 1044.74C2303.47 1068.56 2311.03 1317.62 2311.03 1317.62Z" fill="#F64AD1"/>
<path d="M2373.21 899.949L2300.3 935.442V973.475L2275.52 1005.95C2283.35 1005.11 2290.95 1002.78 2297.9 999.082C2307.86 993.727 2361.68 923.977 2373.21 899.949Z" fill="#343B54"/>
<path d="M2362.43 1370.83L2321.24 1358.88C2321.24 1358.88 2303.6 1373.71 2300.03 1376.53C2296.46 1379.34 2266.87 1397.12 2266.87 1397.12C2266.87 1397.12 2329.89 1400.07 2362.43 1370.83Z" fill="#343B54"/>
<path d="M2380.23 622.118C2380.23 622.118 2319.47 567.609 2301.35 560.743C2283.22 553.878 2259.67 564.451 2259.67 564.451C2259.67 564.451 2286.45 540.697 2301.35 541.041C2316.24 541.384 2357.71 576.671 2380.23 622.118Z" fill="#150E20"/>
<path d="M2139.73 170.804L2187.17 128.652C2187.17 128.652 1983.14 126.044 1978.2 128.652C1973.25 131.261 1914.9 170.255 1914.9 170.255L2139.73 170.804Z" fill="url(#paint17_linear_12_1492)"/>
<path d="M2373.22 415.752C2371.78 384.996 2444.55 264.719 2444.55 234.925V20.5955C2444.55 20.5955 2351.94 153.23 2336.36 160.575C2320.77 167.921 2220.82 168.608 2220.82 168.608C2220.82 168.608 2309.65 223.529 2348.58 288.061C2374.87 331.86 2373.22 415.752 2373.22 415.752Z" fill="url(#paint18_linear_12_1492)"/>
<path d="M2299.35 228.815C2299.35 228.815 2361.55 290.601 2368.89 331.792C2375.14 366.117 2380.08 621.981 2380.08 621.981C2380.08 621.981 2333.47 546.876 2301.2 540.903L2299.35 228.815Z" fill="url(#paint19_linear_12_1492)"/>
<path d="M2361.13 551.887C2361.13 551.887 2356.47 368.314 2350.15 344.767C2343.83 321.219 2317.13 279.685 2317.13 279.685L2320.29 502.596C2320.29 502.596 2349.33 527.242 2361.13 551.887Z" fill="#150E20"/>
<path d="M2373.21 405.66C2373.21 405.66 2369.58 330.899 2355.36 304.331C2341.15 277.763 2299.48 228.815 2299.48 228.815C2299.48 228.815 2357.49 283.736 2364.15 301.585C2370.81 319.434 2373.21 405.66 2373.21 405.66Z" fill="#434A61"/>
<path d="M2380.23 314.835C2380.23 314.835 2418.12 255.108 2423.41 234.65C2428.69 214.192 2422.93 96.1117 2422.93 96.1117C2422.93 96.1117 2380.29 162.703 2373.43 174.237C2366.56 185.77 2380.23 314.835 2380.23 314.835Z" fill="#F64AD1"/>
<path d="M2444.55 20.5955C2444.55 20.5955 2300.38 147.944 2288.98 154.259C2277.59 160.575 2187.17 169.088 2187.17 169.088C2187.17 169.088 2316.65 169.981 2336.35 160.575C2356.06 151.17 2444.55 20.5955 2444.55 20.5955Z" fill="#434A61"/>
<path d="M1978.2 128.652L1838.02 170.461H1949.37C1949.37 170.461 1973.33 152.612 1978.2 128.652Z" fill="#434A61"/>
<path d="M2309.71 1044.74C2309.71 1044.74 2324.47 1005.95 2340.67 998.121C2340.67 998.121 2343.01 1225.15 2338.82 1259C2338.05 1268.27 2335.11 1277.22 2330.23 1285.14C2325.35 1293.07 2318.68 1299.72 2310.74 1304.58L2309.71 1044.74Z" fill="url(#paint20_linear_12_1492)"/>
<path d="M1936.66 1442.43C1936.66 1442.43 1902.33 1408.11 1895.47 1406.6C1888.6 1405.09 1836.77 1406.6 1836.77 1406.6L1877.96 1442.43H1936.66Z" fill="#F64AD1"/>
<path d="M1859.02 1442.43C1859.02 1442.43 1824.7 1408.11 1817.83 1406.6C1810.97 1405.09 1759.07 1406.6 1759.07 1406.6L1800.26 1442.43H1859.02Z" fill="#F64AD1"/>
<path d="M1929.79 1442.43C1929.79 1442.43 1899.38 1412.09 1891.55 1409.96C1883.73 1407.83 1839.59 1409.27 1839.59 1409.27L1877.62 1442.43H1929.79Z" fill="url(#paint21_linear_12_1492)"/>
<path d="M1852.23 1442.43C1852.23 1442.43 1819.41 1412.64 1814.95 1410.51C1810.49 1408.38 1762.5 1409.75 1762.5 1409.75L1799.98 1442.43H1852.23Z" fill="url(#paint22_linear_12_1492)"/>
<path d="M2415.37 107.645C2415.37 107.645 2412.76 219.41 2409.95 228.815C2407.13 238.22 2378.16 294.171 2378.16 294.171C2378.16 294.171 2371.3 196.686 2371.3 176.434C2371.37 162.086 2415.37 107.645 2415.37 107.645Z" fill="url(#paint23_linear_12_1492)"/>
<path d="M1914.91 170.599C1902.69 170.599 1970.45 36.5226 1970.45 36.5226L1688.36 42.4953C1688.36 42.4953 1725.84 0.0688148 1716.44 3.22677C1707.03 6.38473 1243.57 6.31606 1243.57 6.31606V171.628L1914.91 170.599Z" fill="url(#paint24_linear_12_1492)"/>
<path d="M602.696 168.676C602.696 168.676 561.506 64.189 563.84 57.8731C566.174 51.5572 815.378 57.8731 815.378 57.8731L1243.42 171.628L602.696 168.676Z" fill="#150E20"/>
<path d="M1916.41 71.1915C1907.21 100.78 1880.57 168.676 1880.57 168.676L1323.81 170.873L1243.42 171.628H1239.85L1248.16 169.431L1667.76 57.8731C1667.76 57.8731 1917.23 51.6259 1919.36 57.8731C1919.06 62.4372 1918.07 66.9286 1916.41 71.1915Z" fill="#150E20"/>
<path d="M554.922 181.102C563.336 189.895 572.253 198.193 581.627 205.954C583.755 205.954 1017.91 208.082 1023.19 205.954C1028.48 203.826 1048.32 181.308 1048.32 181.308L554.922 181.102Z" fill="#F64AD1"/>
<path d="M568.035 187.418C573.38 193.742 579.161 199.683 585.335 205.198C587.944 206.297 1008.5 205.198 1013.72 205.198C1018.94 205.198 1033.15 187.418 1033.15 187.418H568.035Z" fill="url(#paint25_linear_12_1492)"/>
<path d="M1936.8 181.102C1928.37 189.841 1919.43 198.071 1910.03 205.748C1907.97 205.748 1473.82 207.876 1468.53 205.748C1463.25 203.62 1443.41 181.102 1443.41 181.102H1936.8Z" fill="#F64AD1"/>
<path d="M1923.68 187.418C1918.34 193.742 1912.56 199.683 1906.38 205.198C1903.77 206.297 1483.22 205.198 1478 205.198C1472.78 205.198 1458.57 187.418 1458.57 187.418H1923.68Z" fill="url(#paint26_linear_12_1492)"/>
<path d="M210.433 1156.71C210.433 1156.71 210.433 1043.22 211.119 1038.97C211.806 1034.71 222.996 981.85 222.996 981.85L236.04 569.05V1046.18L210.433 1156.71Z" fill="#150E20"/>
<path d="M236.037 574.954C236.037 574.954 188.393 531.91 187.363 528.752C186.333 525.594 209.675 449.185 209.675 449.185C209.675 449.185 236.518 565.412 236.037 574.954Z" fill="#343B54"/>
<path d="M206.651 309.892L200.953 248.106L187.223 251.264L267.956 180.965C272.144 177.326 455.168 187.83 455.168 187.83H273.174C266.926 187.83 210.289 233.483 207.612 236.641C204.934 239.799 206.651 309.892 206.651 309.892Z" fill="#150E20"/>
<g style="mix-blend-mode:multiply" opacity="0.3">
<path d="M128.667 291.493C128.667 291.493 138.415 191.468 146.928 184.466C155.441 177.464 260.409 171.628 260.409 171.628C260.409 171.628 175.213 227.991 128.667 291.493Z" fill="#742F6B"/>
</g>
<g style="mix-blend-mode:multiply" opacity="0.3">
<path d="M150.564 160.713L199.718 155.152L128.802 98.7893C116.857 89.3841 80.7461 74.3495 80.7461 74.3495C80.7461 74.3495 122.28 140.392 150.564 160.713Z" fill="#742F6B"/>
</g>
<path d="M311.411 128.515C332.699 135.154 354.816 138.759 377.11 139.224C421.31 140.897 465.553 137.348 508.921 128.652L311.411 128.515Z" fill="#2B2F4C"/>
<path d="M173.009 1424.86C173.009 1424.86 330.907 1577.74 372.921 1598.55C414.936 1619.35 1229.41 1617.42 1229.41 1617.42L348.481 1616.81L173.009 1424.86Z" fill="#150E20"/>
<g style="mix-blend-mode:multiply" opacity="0.5">
<path d="M305.302 1495.5C305.302 1495.5 870.714 1481.01 902.568 1489.46C934.422 1497.9 1008.7 1581.04 1008.7 1581.04L1036.58 1580.7C1036.58 1580.7 928.175 1488.36 909.708 1478.95C891.241 1469.55 293.082 1478.95 293.082 1478.95L305.302 1495.5Z" fill="#742F6B"/>
</g>
<g style="mix-blend-mode:multiply" opacity="0.5">
<path d="M2183.19 1495.5C2183.19 1495.5 1617.78 1481.01 1585.92 1489.46C1554.07 1497.9 1479.99 1581.04 1479.99 1581.04L1452.12 1580.7C1452.12 1580.7 1560.52 1488.36 1578.99 1478.95C1597.46 1469.55 2195.68 1478.95 2195.68 1478.95L2183.19 1495.5Z" fill="#742F6B"/>
</g>
<path d="M304.279 1443.05C343.907 1459.07 385.443 1469.9 427.852 1475.25C488.677 1481.01 883.49 1471.61 898.182 1470.58C912.873 1469.55 941.157 1446.55 941.157 1446.55L304.279 1443.05Z" fill="#343B54"/>
<path d="M575.035 1397.47C575.035 1397.47 718.31 1404.33 803.644 1405.91C888.977 1407.49 1023.88 1394.65 1023.88 1394.65L575.035 1397.47Z" fill="#343B54"/>
<path d="M229.713 1397.47C229.713 1397.47 270.904 1423.42 277.769 1424.17C284.634 1424.93 452.349 1427.05 452.349 1427.05C452.349 1427.05 277.22 1430.69 273.856 1430.14C270.492 1429.59 229.713 1397.47 229.713 1397.47Z" fill="#343B54"/>
<g style="mix-blend-mode:multiply" opacity="0.3">
<path d="M1042.06 1530.92C1029.02 1530.92 1092.39 1586.26 1092.39 1586.26H1424.86C1424.86 1586.26 1455.28 1549.05 1457.34 1538.96C1459.39 1528.86 1061.97 1530.92 1042.06 1530.92Z" fill="#742F6B"/>
</g>
<path d="M1040.5 1510.33C1040.5 1510.33 1071.46 1521.11 1243.77 1521.11C1416.09 1521.11 1456.59 1510.33 1456.59 1510.33C1456.59 1510.33 1237.11 1515.82 1040.5 1510.33Z" fill="#343B54"/>
<path d="M374.371 1581.04C374.371 1581.04 336.681 1603.08 650.349 1597.45C964.017 1591.82 1040.29 1581.04 1040.29 1581.04C1040.29 1581.04 422.633 1597.72 374.371 1581.04Z" fill="#343B54"/>
<path d="M126.058 530.88C126.058 530.88 155.372 509.392 160.383 505.205C165.395 501.017 167.249 429.688 167.249 429.688V504.106C167.249 504.106 129.49 535.617 125.303 556.281L126.058 530.88Z" fill="#343B54"/>
<path d="M195.32 537.265C195.32 526.418 220.035 539.805 223.193 545.022C225.908 552.406 227.639 560.116 228.342 567.952L195.32 537.265Z" fill="#434A61"/>
<path d="M142.8 944.505C142.8 944.505 180.352 975.535 188.384 984.666C195.533 992.201 203.121 999.308 211.108 1005.95C202.761 1004.99 194.542 1003.13 186.599 1000.39C180.695 997.229 142.8 944.505 142.8 944.505Z" fill="#434A61"/>
<path d="M136.833 1379.89C136.833 1379.89 165.529 1373.03 174.729 1376.46C183.928 1379.89 219.558 1397.05 219.558 1397.05C219.558 1397.05 162.303 1395.95 136.833 1379.89Z" fill="#434A61"/>
<path d="M185.438 560.744C197.313 578.234 206.241 597.552 211.869 617.93C218.734 647.313 205.004 998.121 205.004 998.121L186.262 973.475L185.438 560.744Z" fill="#150E20"/>
<path d="M203.566 581.545C208.17 597.904 211.385 614.623 213.177 631.523C213.658 648.342 223.2 894.663 223.2 894.663C223.2 894.663 230.065 661.249 231.37 626.305C232.674 591.362 216.747 567.609 213.795 566.03C210.843 564.451 202.055 565.755 203.566 581.545Z" fill="#2B2F4C"/>
<path d="M2276.08 1156.71C2276.08 1156.71 2275.74 1043.22 2275.4 1038.97C2275.05 1034.71 2263.52 981.85 2263.52 981.85L2250.47 569.05V1046.18L2276.08 1156.71Z" fill="#150E20"/>
<path d="M2250.47 574.954C2250.47 574.954 2298.11 531.91 2299.14 528.752C2300.17 525.594 2276.83 449.185 2276.83 449.185C2276.83 449.185 2249.92 565.412 2250.47 574.954Z" fill="#343B54"/>
<path d="M2291.11 537.265C2291.11 526.418 2266.4 539.805 2263.24 545.022C2260.56 552.416 2258.83 560.121 2258.09 567.952L2291.11 537.265Z" fill="#434A61"/>
<path d="M2300.99 560.744C2289.16 578.224 2280.26 597.516 2274.63 617.861C2267.76 647.244 2281.49 998.052 2281.49 998.052L2300.3 973.406L2300.99 560.744Z" fill="#150E20"/>
<path d="M2282.87 581.545C2278.3 597.909 2275.11 614.627 2273.33 631.523C2272.78 648.342 2263.24 894.663 2263.24 894.663C2263.24 894.663 2256.37 661.249 2255.07 626.305C2253.77 591.362 2269.76 567.609 2272.64 566.03C2275.53 564.451 2284.45 565.755 2282.87 581.545Z" fill="#2B2F4C"/>
<path d="M891.585 1470.85C887.878 1467.42 932.776 1452.87 932.776 1452.87C932.776 1452.87 925.43 1474.77 918.633 1474.77C909.553 1473.95 900.524 1472.64 891.585 1470.85Z" fill="#434A61"/>
<path d="M841.742 1592.71C841.742 1592.71 871.057 1583.03 925.634 1582.27L1023.87 1580.97C1023.87 1580.97 923.506 1595.11 841.742 1592.71Z" fill="#434A61"/>
<path d="M1023.95 1424.72C1023.95 1424.72 1098.02 1432.07 1232.24 1433.85C1309.01 1435.15 1385.79 1432.11 1462.22 1424.72C1462.22 1424.72 1099.6 1423.28 1023.95 1424.72Z" fill="#434A61"/>
<path d="M770.557 3.2268C770.557 3.2268 934.359 25.7444 1243.43 25.7444C1552.49 25.7444 1716.3 3.2268 1716.3 3.2268C1716.3 3.2268 991.27 -3.98159 770.557 3.2268Z" fill="#343B54"/>
<path d="M516.613 36.5226L798.633 42.4952L858.908 54.9211C858.908 54.9211 642.863 54.9211 516.613 36.5226Z" fill="#343B54"/>
<path d="M1970.16 36.5226L1688.35 42.4952L1623.88 58.6283C1623.88 58.6283 1895.74 48.056 1970.16 36.5226Z" fill="#343B54"/>
<path d="M1452.12 1580.7C1452.12 1580.7 2025.77 1589.07 2110.69 1583.78C2110.69 1583.78 1999.89 1591.13 1781.17 1591.13C1562.44 1591.13 1452.12 1580.7 1452.12 1580.7Z" fill="#343B54"/>
<path d="M1629.31 1582.96C1629.31 1582.96 1674.42 1591.75 1778.77 1591.13C1883.12 1590.51 1908.31 1585.36 1908.31 1585.36L1629.31 1582.96Z" fill="#434A61"/>
<path d="M1536.02 1443.05C1536.02 1443.05 1591.49 1473.67 1608.38 1474.77C1625.27 1475.86 2164.93 1476.48 2181.68 1474.77C2198.44 1473.05 2239.01 1443.05 2239.01 1443.05H1536.02Z" fill="#343B54"/>
<path d="M1554.75 1452.94C1560.1 1446.96 1649.28 1469.48 1649.28 1469.48C1649.28 1469.48 1582.14 1477.38 1575.35 1474.77C1568.55 1472.16 1554.75 1452.94 1554.75 1452.94Z" fill="#434A61"/>
<path d="M1448.97 1395.27L1925.07 1398.63C1925.07 1398.63 1624.44 1386 1448.97 1395.27Z" fill="#434A61"/>
<path d="M2275.73 1005.95C2282.84 992.959 2291.44 980.841 2301.34 969.836C2313.36 958.371 2356.95 923.977 2356.95 923.977C2356.95 923.977 2308.89 991.324 2304.16 998.12C2299.42 1004.92 2275.73 1005.95 2275.73 1005.95Z" fill="#434A61"/>
<path d="M2292.48 1395.27C2301.47 1386.13 2313.17 1380.13 2325.85 1378.17C2334.97 1377.07 2344.19 1377.07 2353.31 1378.17C2353.31 1378.17 2305.8 1400.07 2292.48 1395.27Z" fill="#434A61"/>
<path d="M1836.5 1620.17C1836.5 1620.17 2114.47 1601.56 2140.49 1587.08C2166.51 1572.59 2362.44 1370.83 2362.44 1370.83L2138.36 1616.81C2138.36 1616.81 1926.37 1617.22 1836.5 1620.17Z" fill="#150E20"/>
<g style="mix-blend-mode:multiply" opacity="0.3">
<path d="M2288.98 154.397C2288.98 154.397 2328.6 160.644 2336.35 157.555C2344.11 154.465 2393.4 87.1184 2393.4 87.1184C2393.4 87.1184 2357.02 89.8644 2288.98 154.397Z" fill="#742F6B"/>
</g>
<path d="M2319.39 425.638C2319.39 425.638 2324.81 485.845 2328.25 493.259C2331.68 500.674 2361.34 534.038 2361.34 534.038V557.517C2361.34 557.517 2323.1 508.225 2320.14 504.45C2317.19 500.674 2319.39 425.638 2319.39 425.638Z" fill="#343B54"/>
<g style="mix-blend-mode:multiply" opacity="0.3">
<path d="M2254.31 177.669C2254.31 177.669 2361.54 283.736 2364.15 284.353C2366.76 284.971 2361.82 175.335 2357.29 174.511C2352.75 173.688 2254.31 177.669 2254.31 177.669Z" fill="#742F6B"/>
</g>
<path d="M1978.2 128.652C1978.2 128.652 2034.56 133.115 2085.85 135.518C2119.77 136.519 2153.7 134.22 2187.18 128.652H1978.2Z" fill="#2B2F4C"/>
<g style="mix-blend-mode:multiply" opacity="0.5">
<path d="M1916.41 71.1915C1897.25 58.1477 1735.1 66.5918 1676.95 71.1915C1620.79 75.5165 1342.21 164.763 1323.81 170.873L1322.85 171.285H1243.42L1248.15 169.088L1667.75 57.8731C1667.75 57.8731 1917.23 51.6259 1919.36 57.8731C1919.06 62.4372 1918.06 66.9286 1916.41 71.1915Z" fill="#742F6B"/>
</g>
<g style="mix-blend-mode:multiply" opacity="0.5">
<path d="M566.861 71.1915C586.014 58.1477 748.168 66.5918 806.247 71.1915C862.473 75.5165 1141.06 164.763 1159.73 170.873L1160.69 171.285H1240.19L1235.46 169.088L815.446 57.8731C815.446 57.8731 565.968 51.6259 563.84 57.8731C564.122 62.4464 565.142 66.9439 566.861 71.1915Z" fill="#742F6B"/>
</g>
<path d="M602.697 168.676L1239.85 171.285C1239.85 171.285 860.757 148.973 602.697 168.676Z" fill="#434A61"/>
<path d="M1245.82 171.628L1880.57 168.676C1880.57 168.676 1588.73 152.886 1245.82 171.628Z" fill="#434A61"/>
<g style="mix-blend-mode:soft-light" opacity="0.5">
<path d="M1036.17 1502.16C992.572 1493.51 1110.03 1446.89 1272.94 1448.95C1435.85 1451.01 1451.85 1493.1 1451.92 1502.16C1451.99 1511.22 1120.88 1519.05 1036.17 1502.16Z" fill="#15FFFF"/>
</g>
<g style="mix-blend-mode:soft-light" opacity="0.5">
<path d="M150.562 1270.05C144.727 1236.68 164.91 1130.07 172.324 1110.57C179.739 1091.07 176.375 1304.51 176.375 1304.51C176.375 1304.51 152.965 1285.43 150.562 1270.05Z" fill="#15FFFF"/>
</g>
<g style="mix-blend-mode:soft-light" opacity="0.5">
<path d="M2310.75 1304.37C2310.75 1304.37 2314.38 1101.3 2314.73 1094.37C2315.07 1087.44 2345.83 1212.45 2338.82 1258.79C2331.82 1305.13 2310.75 1304.37 2310.75 1304.37Z" fill="#15FFFF"/>
</g>
<g style="mix-blend-mode:soft-light" opacity="0.5">
<path d="M2377.68 287.649C2377.68 287.649 2373.22 197.304 2377.68 180.484C2382.14 163.664 2412 144.923 2412 144.923C2412 144.923 2412.42 203.139 2410.49 225.657C2408.57 248.174 2377.68 287.649 2377.68 287.649Z" fill="#15FFFF"/>
</g>
<g style="mix-blend-mode:soft-light" opacity="0.5">
<path d="M108.689 294.171C108.689 294.171 78.825 238.014 78.4131 218.242C79.076 198.317 80.8639 178.445 83.7681 158.722C83.7681 158.722 107.11 187.143 111.709 218.242C116.309 249.341 108.689 294.171 108.689 294.171Z" fill="#15FFFF"/>
</g>
<path d="M581.617 205.954C581.617 205.954 596.24 189.477 778.303 187.624C960.366 185.77 1016.94 206.915 1016.94 206.915L581.617 205.954Z" fill="url(#paint27_linear_12_1492)"/>
<path d="M1478 205.198C1542.71 195.923 1607.85 189.988 1673.18 187.418C1749.11 183.628 1825.23 187.654 1900.34 199.432L1478 205.198Z" fill="url(#paint28_linear_12_1492)"/>
<path d="M372.992 1465.29C366.745 1466.18 337.705 1475.25 337.705 1475.25L462.65 1476.69C462.65 1476.69 383.084 1463.92 372.992 1465.29Z" fill="#555B70"/>
<path d="M880.051 13.7302C880.051 13.7302 1016.87 27.4604 1060.53 25.8128C1104.2 24.1652 1209.65 23.41 1209.65 23.41C1209.65 23.41 1024.22 1.09836 880.051 13.7302Z" fill="#555B70"/>
<path d="M1970.92 1476C1970.92 1476 2026.53 1467.08 2055.78 1463.78C2085.02 1460.49 2156.76 1476 2156.76 1476H1970.92Z" fill="#555B70"/>
<path d="M185.649 395.431C178.372 393.372 175.832 419.391 185.649 437.858C195.467 456.325 202.126 400.1 185.649 395.431Z" fill="#150E20"/>
<g style="mix-blend-mode:multiply" opacity="0.5">
<path d="M180.159 414.722C183.317 429.208 192.928 427.629 194.644 419.253C196.36 410.878 191.829 393.852 184.758 395.363C177.687 396.873 180.159 414.722 180.159 414.722Z" fill="#BE2F55"/>
</g>
<path d="M181.456 427.629C181.456 418.498 189.488 427.629 192.989 427.217C196.491 426.805 194.362 442.457 189.9 441.359C185.438 440.261 181.456 427.629 181.456 427.629Z" fill="#434A61"/>
<path d="M1563.96 5.76685C1557.1 5.76685 1551.54 19.4971 1558.61 28.5591C1565.68 37.621 1579.41 6.31606 1563.96 5.76685Z" fill="#150E20"/>
<g style="mix-blend-mode:multiply" opacity="0.5">
<path d="M1556.33 16.8197C1557.64 24.1654 1567.18 22.1745 1570.06 17.4375C1572.95 12.7006 1570.06 4.18784 1563.2 5.83547C1556.33 7.4831 1556.33 16.8197 1556.33 16.8197Z" fill="#BE2F55"/>
</g>
<path d="M1556.06 23.5472C1556.96 18.6729 1563.82 22.586 1567.32 21.8995C1570.82 21.213 1566.77 29.8631 1562.59 29.8631C1558.4 29.8631 1556.06 23.5472 1556.06 23.5472Z" fill="#434A61"/>
<path d="M186.403 1120.8C179.195 1118.74 176.586 1144.76 186.403 1163.23C196.22 1181.69 202.948 1125.47 186.403 1120.8Z" fill="#150E20"/>
<g style="mix-blend-mode:multiply" opacity="0.5">
<path d="M180.975 1140.09C184.064 1154.58 193.745 1153 195.392 1144.62C197.04 1136.25 192.577 1119.22 185.506 1120.66C178.435 1122.11 180.975 1140.09 180.975 1140.09Z" fill="#BE2F55"/>
</g>
<path d="M182.207 1153.34C182.207 1144.14 190.308 1153.34 193.809 1152.93C197.31 1152.52 195.113 1168.1 190.72 1167.07C186.326 1166.04 182.207 1153.34 182.207 1153.34Z" fill="#434A61"/>
<path d="M2365.87 128.378C2360.38 124.259 2347.34 135.243 2348.09 148.149C2348.85 161.056 2378.37 137.783 2365.87 128.378Z" fill="#150E20"/>
<g style="mix-blend-mode:multiply" opacity="0.5">
<path d="M2353.11 135.037C2349.81 143.207 2358.94 146.708 2363.88 143.481C2368.83 140.255 2371.92 130.369 2365.12 127.966C2358.32 125.563 2353.11 135.037 2353.11 135.037Z" fill="#BE2F55"/>
</g>
<path d="M2348.84 141.627C2352.48 137.234 2355.71 145.129 2359.21 146.502C2362.71 147.875 2354.06 154.191 2350.63 151.788C2347.2 149.385 2348.84 141.627 2348.84 141.627Z" fill="#434A61"/>
<path d="M1477.38 1405.91C1465.85 1408.72 1541.23 1411.47 1569.17 1408.86C1597.11 1406.25 1491.11 1402.48 1477.38 1405.91Z" fill="#555B70"/>
<path d="M932.771 1403.51C947.447 1406.02 962.444 1406.02 977.12 1403.51C1000.46 1399.32 932.771 1403.51 932.771 1403.51Z" fill="#555B70"/>
<path d="M2295.03 588.204C2295.03 588.204 2283.09 612.781 2283.09 619.646C2283.09 626.511 2285.08 970.592 2285.08 970.592C2285.08 970.592 2291.94 951.095 2295.03 941.895C2298.12 932.696 2295.03 588.204 2295.03 588.204Z" fill="#F64AD1"/>
<path d="M2290.63 597.747C2290.63 597.747 2296.19 868.095 2292.14 950.34L2285.27 970.592C2285.27 970.592 2282.53 623.765 2283.28 619.646C2284.04 615.527 2290.63 597.747 2290.63 597.747Z" fill="url(#paint29_linear_12_1492)"/>
<path d="M193.54 588.204C193.54 588.204 205.485 612.781 205.485 619.646C205.485 626.511 203.426 970.592 203.426 970.592C203.426 970.592 196.56 951.095 193.54 941.895C190.519 932.696 193.54 588.204 193.54 588.204Z" fill="#F64AD1"/>
<path d="M197.934 597.747C197.934 597.747 192.373 868.095 196.355 950.34L203.22 970.592C203.22 970.592 205.966 623.765 205.28 619.646C204.593 615.527 197.934 597.747 197.934 597.747Z" fill="url(#paint30_linear_12_1492)"/>
<path d="M2192.59 1555.98C2192.59 1555.98 2252.59 1594.01 2257.74 1595.66C2270.1 1599.57 2394.56 1531.27 2394.56 1531.27L2293.37 1446.55L2192.59 1555.98Z" fill="url(#paint31_linear_12_1492)"/>
<g style="mix-blend-mode:multiply" opacity="0.5">
<path d="M2309.71 1460.21C2309.71 1460.21 2220.05 1540.47 2217.37 1545.82C2214.7 1551.18 2259.39 1574.86 2267.08 1575.2C2274.77 1575.55 2394.56 1531.27 2394.56 1531.27C2394.56 1531.27 2267.08 1596.07 2259.8 1595.8C2252.52 1595.52 2192.59 1555.98 2192.59 1555.98L2293.37 1446.55L2309.71 1460.21Z" fill="#742F6B"/>
</g>
<path d="M2243.26 1565.25C2227.34 1552.89 2225.07 1544.65 2241.07 1526.46C2257.06 1508.27 2373.22 1530.79 2373.22 1530.79C2373.22 1530.79 2276.08 1578.43 2267.08 1575.41C2258.98 1572.43 2251.03 1569.04 2243.26 1565.25Z" fill="#202347"/>
<path d="M2236.11 1558.8C2240.89 1559.66 2245.61 1560.81 2250.26 1562.23C2252.44 1563.01 2254.4 1564.33 2255.93 1566.07C2257.47 1567.81 2258.54 1569.92 2259.04 1572.18C2250.85 1568.74 2243.14 1564.24 2236.11 1558.8Z" fill="#555B70"/>
<path d="M295.699 1555.98C295.699 1555.98 235.698 1594.01 230.549 1595.66C218.192 1599.57 93.6582 1531.27 93.6582 1531.27L194.919 1446.55L295.699 1555.98Z" fill="url(#paint32_linear_12_1492)"/>
<g style="mix-blend-mode:multiply" opacity="0.5">
<path d="M178.58 1460.21C178.58 1460.21 268.238 1540.47 270.916 1545.82C273.593 1551.18 228.901 1574.86 221.212 1575.2C213.523 1575.55 93.6582 1531.27 93.6582 1531.27C93.6582 1531.27 221.212 1596.07 228.489 1595.8C235.766 1595.52 295.699 1555.98 295.699 1555.98L194.919 1446.55L178.58 1460.21Z" fill="#742F6B"/>
</g>
<path d="M245.029 1565.25C260.957 1552.89 263.222 1544.65 247.226 1526.46C231.231 1508.27 115.004 1530.79 115.004 1530.79C115.004 1530.79 212.214 1578.43 221.207 1575.41C229.315 1572.43 237.266 1569.04 245.029 1565.25Z" fill="#202347"/>
<path d="M252.172 1558.8C247.395 1559.66 242.673 1560.81 238.03 1562.23C235.843 1563.01 233.89 1564.33 232.354 1566.07C230.817 1567.81 229.747 1569.92 229.243 1572.18C237.435 1568.74 245.143 1564.24 252.172 1558.8Z" fill="#555B70"/>
<g style="mix-blend-mode:multiply" opacity="0.3">
<path d="M1245.82 162.36C1217.81 165.587 1366.72 38.788 1417.45 30.0693C1468.19 21.3506 1552.97 17.8494 1555.51 30.0693C1558.05 42.2892 1579.81 22.1744 1579.81 22.1744L1696.52 12.9065C1696.52 12.9065 1682.79 33.09 1679.36 39.4059C1675.92 45.7218 1318.11 153.916 1245.82 162.36Z" fill="#742F6B"/>
</g>
<g style="mix-blend-mode:multiply" opacity="0.5">
<path d="M128.252 465.799C128.252 465.799 136.97 362.822 143.08 349.915C150.539 337.995 159.414 327.023 169.511 317.237V279.685C169.511 279.685 142.463 326.505 135.872 347.375C129.282 368.245 128.252 465.799 128.252 465.799Z" fill="#742F6B"/>
</g>
<g style="mix-blend-mode:multiply" opacity="0.5">
<path d="M2318.36 377.582C2318.36 377.582 2323.1 324.789 2328.86 324.789C2334.63 324.789 2344.52 368.932 2348.43 382.182C2352.34 395.431 2358.04 452.137 2358.04 452.137C2358.04 452.137 2354.81 357.055 2350.35 344.492C2345.89 331.929 2317.33 279.411 2317.33 279.411L2318.36 377.582Z" fill="#742F6B"/>
</g>
<g style="mix-blend-mode:soft-light">
<path d="M609.081 160.575C600.431 152.406 583.268 91.924 593.017 80.116C602.765 68.3079 777.277 109.979 798.971 123.16C820.664 136.341 764.164 152.406 750.915 155.289C737.665 158.172 609.081 160.575 609.081 160.575Z" fill="#969AA7"/>
<path d="M706.012 73.2508C700.864 73.2508 759.904 108.057 830.477 119.316C901.051 130.575 908.465 106.478 908.465 106.478C908.465 106.478 767.387 72.0838 706.012 73.2508Z" fill="#969AA7"/>
<path d="M891.993 28.4904C853.549 32.5408 916.09 78.3311 990.096 95.0134C1064.1 111.696 1036.16 49.1544 1025.52 41.1908C1014.88 33.2273 891.993 28.4904 891.993 28.4904Z" fill="#969AA7"/>
<path d="M1792.5 1580.7C1780 1578.43 1926.71 1498.73 2002.43 1504.49C2078.15 1510.26 2063.81 1558.32 2063.81 1558.32C2063.81 1558.32 1902.61 1600.6 1792.5 1580.7Z" fill="#969AA7"/>
<path d="M1852.22 1499.89C1824.28 1519.53 1883.46 1518.7 1901.1 1504.22C1918.74 1489.73 1872.88 1485.34 1852.22 1499.89Z" fill="#969AA7"/>
<path d="M407.519 1569.16C379.578 1588.8 438.824 1587.97 456.468 1573.49C474.111 1559 428.252 1554.68 407.519 1569.16Z" fill="#969AA7"/>
<path d="M746.799 1456.44C718.858 1476.07 778.035 1475.18 795.679 1460.69C813.322 1446.21 767.463 1441.68 746.799 1456.44Z" fill="#969AA7"/>
<path d="M1567.6 1442.43C1549.27 1434.47 1652.52 1405.84 1693.23 1403.51C1733.94 1401.17 1778.15 1442.36 1778.15 1442.36L1567.6 1442.43Z" fill="#969AA7"/>
<path d="M859.183 1429.05C844.079 1443.53 886.163 1435.91 915.957 1429.05C945.752 1422.18 863.37 1424.99 859.183 1429.05Z" fill="#969AA7"/>
<path d="M845.374 1583.17C827.044 1583.17 910.249 1540.6 937.161 1543.49C964.072 1546.37 972.722 1573.01 968.191 1577.33C963.66 1581.66 845.374 1583.17 845.374 1583.17Z" fill="#969AA7"/>
<path d="M181.453 257.785C174.588 267.671 181.453 356.987 186.464 372.776C191.561 385.929 197.93 398.552 205.481 410.466C205.481 410.466 198.616 265.2 195.458 257.785C192.3 250.371 181.453 257.785 181.453 257.785Z" fill="#969AA7"/>
<path d="M223.192 205.542C206.167 220.302 224.016 221.126 236.03 200.874C248.044 180.621 223.192 205.542 223.192 205.542Z" fill="#969AA7"/>
<path d="M1824.62 97.7595C1769.7 123.229 1842.19 138.95 1876.66 113.206C1911.12 87.4618 1842.95 89.2468 1824.62 97.7595Z" fill="#969AA7"/>
<path d="M1855.23 141.49C1842.12 158.035 1864.36 152.2 1873.56 141.49C1882.76 130.781 1859.97 135.724 1855.23 141.49Z" fill="#969AA7"/>
</g>
<g style="mix-blend-mode:multiply" opacity="0.5">
<path d="M1300.62 1587.56C1285.65 1575.27 1332.4 1549.32 1369.27 1545.13C1406.13 1540.95 1412.31 1573.01 1401.12 1585.36C1389.93 1597.72 1308.85 1594.36 1300.62 1587.56Z" fill="#742F6B"/>
</g>
<g style="mix-blend-mode:multiply" opacity="0.5">
<path d="M1302.87 1588.73C1294.5 1583.1 1322.78 1555.91 1362.19 1550.63C1401.59 1545.34 1405.71 1565.25 1405.71 1565.25C1405.71 1565.25 1404.07 1543.83 1373.04 1544.65C1342.01 1545.48 1314.2 1563.4 1302.87 1572.46C1301.35 1573.2 1300.07 1574.36 1299.18 1575.8C1298.28 1577.24 1297.8 1578.9 1297.8 1580.59C1297.8 1582.29 1298.28 1583.95 1299.18 1585.39C1300.07 1586.82 1301.35 1587.98 1302.87 1588.73Z" fill="#742F6B"/>
</g>
<path d="M1308.99 1590.38C1329.34 1591.98 1349.8 1591.98 1370.15 1590.38C1395.97 1587.49 1403.31 1582.69 1403.31 1582.69C1403.31 1582.69 1399.74 1589.55 1384.23 1593.67C1368.71 1597.79 1316.19 1593.26 1308.99 1590.38Z" fill="#343B54"/>
<g style="mix-blend-mode:multiply" opacity="0.5">
<path d="M1128.84 1584.75C1120.81 1573.21 1122.53 1548.84 1129.87 1544.93C1137.22 1541.02 1150.47 1571.08 1152.05 1582.69C1153.63 1594.29 1133.31 1591.06 1128.84 1584.75Z" fill="#742F6B"/>
</g>
<g style="mix-blend-mode:multiply" opacity="0.5">
<path d="M1129.81 1585.84C1125.75 1580.56 1122.94 1555.02 1130.15 1550.08C1137.36 1545.13 1145.8 1563.81 1145.8 1563.81C1145.8 1563.81 1137.63 1543.69 1130.63 1544.65C1123.63 1545.61 1123.76 1562.23 1123.76 1570.81C1124.37 1576.28 1126.46 1581.47 1129.81 1585.84Z" fill="#742F6B"/>
</g>
<path d="M1131.86 1587.36C1136.6 1588.83 1141.68 1588.83 1146.42 1587.36C1147.84 1586.72 1149.07 1585.72 1149.97 1584.45C1150.88 1583.19 1151.43 1581.7 1151.56 1580.15C1152.4 1583.56 1152.18 1587.15 1150.95 1590.44C1148.89 1594.56 1134.61 1590.03 1131.86 1587.36Z" fill="#343B54"/>
<g style="mix-blend-mode:multiply" opacity="0.5">
<path d="M1500.31 74.9671C1492.28 63.5024 1494 39.1312 1501.34 35.2181C1508.69 31.3049 1521.94 61.3056 1523.52 72.9076C1525.1 84.5097 1504.71 81.3517 1500.31 74.9671Z" fill="#742F6B"/>
</g>
<g style="mix-blend-mode:multiply" opacity="0.5">
<path d="M1501.27 76.1341C1497.22 70.7793 1494.41 45.3097 1501.27 40.3668C1508.14 35.4239 1516.99 54.097 1516.99 54.097C1516.99 54.097 1508.83 34.0509 1501.75 35.012C1494.68 35.9731 1494.55 52.5867 1494.89 61.0995C1495.62 66.5958 1497.83 71.7914 1501.27 76.1341Z" fill="#742F6B"/>
</g>
<path d="M1503.34 77.6445C1508.09 79.0845 1513.15 79.0845 1517.9 77.6445C1519.25 77.0213 1520.43 76.0651 1521.32 74.8649C1522.21 73.6646 1522.78 72.2592 1522.98 70.7794C1523.84 74.1651 1523.65 77.7351 1522.43 81.0085C1520.3 84.7843 1506.09 80.3219 1503.34 77.6445Z" fill="#343B54"/>
<path d="M278.053 1424.17C278.053 1424.17 259.585 1441.2 252.171 1442.43C244.757 1443.67 261.027 1521.18 261.027 1521.18L250.249 1506.69C250.249 1506.69 247.365 1455.41 245.924 1439.96C244.482 1424.51 245.924 1434.81 258.143 1432.75C261.433 1432.45 264.617 1431.43 267.474 1429.77C270.33 1428.11 272.792 1425.85 274.689 1423.14L278.053 1424.17Z" fill="#0E071A"/>
<path d="M254.02 1483.21C253.057 1471.52 252.782 1459.78 253.196 1448.06C255.988 1442.68 260.157 1438.13 265.279 1434.88C265.279 1434.88 255.873 1439.27 252.509 1441.4C249.145 1443.53 252.166 1471.33 254.02 1483.21Z" fill="#343B54"/>
<path d="M798.635 42.4951C798.635 42.4951 912.939 49.3602 939.644 45.7904C966.35 42.2205 1028.55 33.0899 1048.32 25.7442C1068.09 18.3985 1140.86 0 1140.86 0H1127.13C1127.13 0 984.474 15.3092 1044.75 23.4787C1036.92 29.1081 965.251 36.0419 926.6 41.3281C887.95 46.6142 798.635 42.4951 798.635 42.4951Z" fill="#0E071A"/>
<path d="M946.918 44.7606C946.918 44.7606 1009.12 39.5431 1021.2 36.5225C1033.36 32.6487 1045.28 28.0641 1056.9 22.7922C1056.9 22.7922 1045.5 26.2935 1034.38 29.6574C1005.52 36.254 976.321 41.2957 946.918 44.7606Z" fill="#343B54"/>
<path d="M815.932 43.1815C826.228 47.2346 836.835 50.4488 847.648 52.7927C852.454 52.3121 892.478 46.6827 892.478 46.6827C892.478 46.6827 841.607 45.9276 815.932 43.1815Z" fill="#343B54"/>
<path d="M922.475 1474.77L1096.44 1617.49L1403.31 1618.39L1575.35 1474.77C1575.35 1474.77 1406.26 1602.39 1392.46 1606.99C1378.66 1611.59 1115.04 1612.14 1098.02 1606.99C1080.99 1601.84 922.475 1474.77 922.475 1474.77Z" fill="#F64AD1"/>
<path d="M313.476 1506H366.818L414.324 1563.26H360.776L313.476 1506Z" fill="#F64AD1"/>
<path d="M2175.02 1506H2121.67L2074.1 1563.26H2127.71L2175.02 1506Z" fill="#F64AD1"/>
<g style="mix-blend-mode:multiply" opacity="0.5">
<path d="M2075.75 1563.26C2075.75 1563.26 2114.74 1523.85 2124.56 1519.05C2134.37 1514.24 2165.34 1517.67 2165.34 1517.67L2175.02 1506H2121.67L2074.1 1563.26H2075.75Z" fill="#742F6B"/>
</g>
<g style="mix-blend-mode:multiply" opacity="0.5">
<path d="M412.679 1563.26C412.679 1563.26 373.754 1523.85 363.868 1519.05C353.982 1514.24 323.089 1517.67 323.089 1517.67L313.409 1506H366.82L414.327 1563.26H412.679Z" fill="#742F6B"/>
</g>
<path d="M239.194 1590.44L343.888 1611.79L295.832 1555.98C295.832 1555.98 254.16 1567.03 239.194 1590.44Z" fill="url(#paint33_linear_12_1492)"/>
<path d="M2247.99 1590.44L2143.3 1611.79L2191.36 1555.98C2191.36 1555.98 2233.1 1567.03 2247.99 1590.44Z" fill="url(#paint34_linear_12_1492)"/>
<path style="mix-blend-mode:screen" d="M158.942 1314.32C219.088 1312.59 265.749 1238.37 263.162 1148.55C260.574 1058.73 209.719 987.317 149.572 989.05C89.4261 990.782 42.7655 1065 45.3528 1154.82C47.9402 1244.64 98.7958 1316.05 158.942 1314.32Z" fill="url(#paint35_radial_12_1492)"/>
<path style="mix-blend-mode:screen" d="M2330.24 1314.14C2390.31 1312.41 2436.91 1238.28 2434.33 1148.57C2431.74 1058.86 2380.95 987.545 2320.88 989.275C2260.81 991.005 2214.21 1065.13 2216.79 1154.84C2219.38 1244.55 2270.17 1315.87 2330.24 1314.14Z" fill="url(#paint36_radial_12_1492)"/>
<path style="mix-blend-mode:screen" d="M1642.98 1498.79C1643.53 1518.09 1463.45 1538.89 1240.68 1545.27C1017.91 1551.66 836.875 1541.22 836.325 1522C835.776 1502.78 1015.92 1481.91 1238.69 1475.52C1461.46 1469.14 1642.43 1479.57 1642.98 1498.79Z" fill="url(#paint37_radial_12_1492)"/>
<path style="mix-blend-mode:screen" d="M97.3307 344.301C146.827 342.875 185.226 281.809 183.097 207.905C180.969 134.001 139.118 75.2462 89.6214 76.672C40.1248 78.0978 1.72578 139.164 3.85465 213.068C5.98351 286.972 47.8341 345.727 97.3307 344.301Z" fill="url(#paint38_radial_12_1492)"/>
<path style="mix-blend-mode:screen" d="M2402.38 344.11C2451.88 342.684 2490.28 281.618 2488.15 207.714C2486.02 133.81 2444.17 75.0552 2394.67 76.481C2345.17 77.9068 2306.77 138.973 2308.9 212.877C2311.03 286.781 2352.88 345.536 2402.38 344.11Z" fill="url(#paint39_radial_12_1492)"/>
<path d="M1068.22 53.7841C1071.03 53.7841 1073.53 54.1681 1075.7 54.9361C1077.88 55.7041 1079.7 56.8081 1081.18 58.2481C1082.68 59.6881 1083.82 61.4321 1084.58 63.4801C1085.35 65.5281 1085.74 67.8321 1085.74 70.3921V70.4401C1085.74 72.9681 1085.35 75.2561 1084.58 77.3041C1083.82 79.3521 1082.68 81.0961 1081.18 82.5361C1079.7 83.9761 1077.88 85.0801 1075.7 85.8481C1073.53 86.6161 1071.03 87.0001 1068.22 87.0001H1047.19V53.7841H1068.22ZM1056.22 78.6961H1068.22C1071.13 78.6961 1073.29 77.9761 1074.7 76.5361C1076.14 75.0641 1076.86 73.0321 1076.86 70.4401V70.3921C1076.86 67.8001 1076.14 65.7681 1074.7 64.2961C1073.29 62.824 1071.13 62.088 1068.22 62.088H1056.22V78.6961Z" fill="white"/>
<path d="M1103.73 53.7841H1113.05L1130.33 87.0001H1120.68L1117.8 80.9041H1098.98L1096.1 87.0001H1086.45L1103.73 53.7841ZM1114.05 73.3201L1108.39 62.2321L1102.73 73.3201H1114.05Z" fill="white"/>
<path d="M1134.43 87.0001V53.7841H1143.45V87.0001H1134.43Z" fill="white"/>
<path d="M1159.43 53.7841V78.5041H1182.19V87.0001H1150.41V53.7841H1159.43Z" fill="white"/>
<path d="M1177.13 53.7841H1187.79L1197.96 67.7521L1208.19 53.7841H1218.79L1202.47 75.3361V87.0001H1193.45V75.3361L1177.13 53.7841Z" fill="white"/>
<path d="M1259.04 53.7841C1263.27 53.7841 1266.45 54.5681 1268.59 56.1361C1270.77 57.6721 1271.86 59.9441 1271.86 62.9521C1271.86 64.1361 1271.73 65.1601 1271.47 66.0241C1271.22 66.8881 1270.85 67.6241 1270.37 68.2321C1269.92 68.8081 1269.38 69.2881 1268.74 69.6721C1268.13 70.0241 1267.44 70.2961 1266.67 70.4881C1268.53 70.8721 1270.03 71.6241 1271.19 72.7441C1272.37 73.8321 1272.96 75.5281 1272.96 77.8321C1272.96 79.4641 1272.63 80.8561 1271.95 82.0081C1271.31 83.1601 1270.42 84.1041 1269.27 84.8401C1268.11 85.576 1266.75 86.1201 1265.19 86.4721C1263.62 86.8241 1261.92 87.0001 1260.1 87.0001H1236.05V53.7841H1259.04ZM1260.1 79.5601C1261.41 79.5601 1262.42 79.3521 1263.12 78.9361C1263.83 78.4881 1264.18 77.7361 1264.18 76.6801C1264.18 75.8161 1263.87 75.1281 1263.27 74.6161C1262.66 74.0721 1261.63 73.8001 1260.19 73.8001H1244.98V79.5601H1260.1ZM1244.98 66.9841H1259.43C1260.45 66.9841 1261.31 66.8081 1262.02 66.4561C1262.72 66.1041 1263.07 65.3521 1263.07 64.2001C1263.07 63.1761 1262.71 62.4241 1261.97 61.9441C1261.27 61.4641 1260.29 61.2241 1259.04 61.2241H1244.98V66.9841Z" fill="white"/>
<path d="M1276.18 70.3921V70.3441C1276.18 67.7841 1276.58 65.4641 1277.38 63.3841C1278.18 61.3041 1279.33 59.5281 1280.83 58.0561C1282.37 56.5521 1284.24 55.4001 1286.45 54.6001C1288.66 53.7681 1291.17 53.3521 1293.99 53.3521H1301.76C1304.55 53.3521 1307.04 53.7681 1309.25 54.6001C1311.46 55.4001 1313.31 56.5521 1314.82 58.0561C1316.35 59.5281 1317.52 61.3041 1318.32 63.3841C1319.12 65.4641 1319.52 67.7841 1319.52 70.3441V70.3921C1319.52 72.9521 1319.12 75.2881 1318.32 77.4001C1317.52 79.4801 1316.35 81.2721 1314.82 82.7761C1313.31 84.2481 1311.46 85.4001 1309.25 86.2321C1307.04 87.0321 1304.55 87.4321 1301.76 87.4321H1293.99C1291.17 87.4321 1288.66 87.0321 1286.45 86.2321C1284.24 85.4001 1282.37 84.2481 1280.83 82.7761C1279.33 81.2721 1278.18 79.4801 1277.38 77.4001C1276.58 75.2881 1276.18 72.9521 1276.18 70.3921ZM1285.06 70.3921C1285.06 73.0161 1285.81 75.1441 1287.31 76.7761C1288.85 78.4081 1291.07 79.2241 1293.99 79.2241H1301.76C1304.67 79.2241 1306.88 78.4081 1308.39 76.7761C1309.89 75.1441 1310.64 73.0161 1310.64 70.3921V70.3441C1310.64 67.7521 1309.89 65.6401 1308.39 64.0081C1306.88 62.3761 1304.67 61.5601 1301.76 61.5601H1293.99C1291.07 61.5601 1288.85 62.3761 1287.31 64.0081C1285.81 65.6401 1285.06 67.7521 1285.06 70.3441V70.3921Z" fill="white"/>
<path d="M1353.59 53.7841H1362.42V87.0001H1354.36L1333.38 67.5121V87.0001H1324.5V53.7841H1332.62L1353.59 73.3201V53.7841Z" fill="white"/>
<path d="M1397.97 53.7841H1407V71.4481C1407 74.1681 1406.61 76.5361 1405.84 78.5521C1405.08 80.5681 1403.97 82.2321 1402.53 83.5441C1401.12 84.8561 1399.43 85.8321 1397.44 86.4721C1395.46 87.1121 1393.24 87.4321 1390.77 87.4321H1384.77C1382.34 87.4321 1380.12 87.1121 1378.1 86.4721C1376.12 85.8321 1374.4 84.8561 1372.96 83.5441C1371.56 82.2321 1370.47 80.5681 1369.7 78.5521C1368.93 76.5361 1368.55 74.1681 1368.55 71.4481V53.7841H1377.57V71.4481C1377.57 72.8561 1377.76 74.0401 1378.15 75.0001C1378.53 75.9601 1379.04 76.7441 1379.68 77.3521C1380.32 77.9281 1381.08 78.3441 1381.94 78.6001C1382.84 78.8561 1383.78 78.9841 1384.77 78.9841H1390.77C1391.76 78.9841 1392.69 78.8561 1393.56 78.6001C1394.42 78.3441 1395.17 77.9281 1395.81 77.3521C1396.48 76.7441 1397.01 75.9601 1397.4 75.0001C1397.78 74.0401 1397.97 72.8561 1397.97 71.4481V53.7841Z" fill="white"/>
<path d="M1440.36 63.5761C1439.34 62.6161 1438.28 61.9761 1437.19 61.6561C1436.11 61.3041 1434.76 61.1281 1433.16 61.1281H1425.29C1423.85 61.1281 1422.73 61.3201 1421.93 61.7041C1421.13 62.0561 1420.73 62.6001 1420.73 63.3361C1420.73 63.8801 1420.97 64.3281 1421.45 64.6801C1421.96 65.0321 1423 65.3361 1424.57 65.5921L1437.43 66.7441C1439.29 67.0321 1440.83 67.5281 1442.04 68.2321C1443.26 68.9041 1444.22 69.7201 1444.92 70.6801C1445.66 71.6081 1446.17 72.6481 1446.46 73.8001C1446.75 74.9521 1446.89 76.1201 1446.89 77.3041C1446.89 78.8401 1446.59 80.2321 1445.98 81.4801C1445.37 82.7281 1444.51 83.8001 1443.39 84.6961C1442.27 85.5601 1440.89 86.2321 1439.26 86.7121C1437.63 87.1921 1435.79 87.4321 1433.74 87.4321H1425.67C1418.12 87.4321 1413.13 85.1121 1410.7 80.4721L1418.33 75.6241C1419.29 77.2561 1420.36 78.3441 1421.55 78.8881C1422.76 79.4321 1424.19 79.7041 1425.82 79.7041H1433.88C1436.76 79.7041 1438.2 78.8401 1438.2 77.1121C1438.2 76.2801 1437.9 75.6881 1437.29 75.3361C1436.68 74.9521 1435.82 74.6481 1434.7 74.4241L1420.97 72.9361C1419.34 72.6801 1417.95 72.2641 1416.79 71.6881C1415.67 71.0801 1414.76 70.3601 1414.06 69.5281C1413.35 68.6961 1412.84 67.7841 1412.52 66.7921C1412.2 65.7681 1412.04 64.7121 1412.04 63.6241C1412.04 60.3601 1413.23 57.8321 1415.59 56.0401C1417.96 54.2481 1421.32 53.3521 1425.67 53.3521H1433.4C1439.32 53.3521 1443.66 54.8721 1446.41 57.9121L1440.36 63.5761Z" fill="white"/>
<defs>
<linearGradient id="paint0_linear_12_1492" x1="714.468" y1="807.613" x2="714.468" y2="168.676" gradientUnits="userSpaceOnUse">
<stop stop-color="#211732"/>
<stop offset="1" stop-color="#2A2A45"/>
</linearGradient>
<linearGradient id="paint1_linear_12_1492" x1="1772.38" y1="807.613" x2="1772.38" y2="168.676" gradientUnits="userSpaceOnUse">
<stop stop-color="#211732"/>
<stop offset="1" stop-color="#2A2A45"/>
</linearGradient>
<linearGradient id="paint2_linear_12_1492" x1="714.472" y1="807.614" x2="714.472" y2="1446.55" gradientUnits="userSpaceOnUse">
<stop stop-color="#211732"/>
<stop offset="1" stop-color="#2A2A45"/>
</linearGradient>
<linearGradient id="paint3_linear_12_1492" x1="1772.38" y1="807.614" x2="1772.38" y2="1446.55" gradientUnits="userSpaceOnUse">
<stop stop-color="#211732"/>
<stop offset="1" stop-color="#2A2A45"/>
</linearGradient>
<linearGradient id="paint4_linear_12_1492" x1="683.911" y1="1620.17" x2="683.911" y2="1370.83" gradientUnits="userSpaceOnUse">
<stop stop-color="#211732"/>
<stop offset="1" stop-color="#2A2A45"/>
</linearGradient>
<linearGradient id="paint5_linear_12_1492" x1="1802.93" y1="1620.17" x2="1802.93" y2="1370.83" gradientUnits="userSpaceOnUse">
<stop stop-color="#211732"/>
<stop offset="1" stop-color="#2A2A45"/>
</linearGradient>
<linearGradient id="paint6_linear_12_1492" x1="154.135" y1="1376.53" x2="154.135" y2="899.949" gradientUnits="userSpaceOnUse">
<stop stop-color="#211732"/>
<stop offset="1" stop-color="#2A2A45"/>
</linearGradient>
<linearGradient id="paint7_linear_12_1492" x1="435.952" y1="170.804" x2="435.952" y2="127.485" gradientUnits="userSpaceOnUse">
<stop stop-color="#211732"/>
<stop offset="1" stop-color="#2A2A45"/>
</linearGradient>
<linearGradient id="paint8_linear_12_1492" x1="154.139" y1="415.752" x2="154.139" y2="20.7328" gradientUnits="userSpaceOnUse">
<stop stop-color="#211732"/>
<stop offset="1" stop-color="#2A2A45"/>
</linearGradient>
<linearGradient id="paint9_linear_12_1492" x1="146.923" y1="622.118" x2="146.923" y2="228.815" gradientUnits="userSpaceOnUse">
<stop stop-color="#211732"/>
<stop offset="1" stop-color="#2A2A45"/>
</linearGradient>
<linearGradient id="paint10_linear_12_1492" x1="161.343" y1="1304.31" x2="161.343" y2="998.121" gradientUnits="userSpaceOnUse">
<stop stop-color="#FF42E3"/>
<stop offset="1" stop-color="#FF29AD"/>
</linearGradient>
<linearGradient id="paint11_linear_12_1492" x1="602.145" y1="1442.43" x2="602.145" y2="1408.86" gradientUnits="userSpaceOnUse">
<stop stop-color="#FF42E3"/>
<stop offset="1" stop-color="#FF29AD"/>
</linearGradient>
<linearGradient id="paint12_linear_12_1492" x1="679.452" y1="1442.43" x2="679.452" y2="1409.34" gradientUnits="userSpaceOnUse">
<stop stop-color="#FF42E3"/>
<stop offset="1" stop-color="#FF29AD"/>
</linearGradient>
<linearGradient id="paint13_linear_12_1492" x1="1242.94" y1="1513.55" x2="1242.94" y2="1448.89" gradientUnits="userSpaceOnUse">
<stop stop-color="#FF42E3"/>
<stop offset="1" stop-color="#FF29AD"/>
</linearGradient>
<linearGradient id="paint14_linear_12_1492" x1="93.4513" y1="294.171" x2="93.4513" y2="107.645" gradientUnits="userSpaceOnUse">
<stop stop-color="#FF42E3"/>
<stop offset="1" stop-color="#FF29AD"/>
</linearGradient>
<linearGradient id="paint15_linear_12_1492" x1="880.048" y1="171.285" x2="880.048" y2="3.02082" gradientUnits="userSpaceOnUse">
<stop stop-color="#211732"/>
<stop offset="1" stop-color="#2A2A45"/>
</linearGradient>
<linearGradient id="paint16_linear_12_1492" x1="2332.71" y1="1376.53" x2="2332.71" y2="899.949" gradientUnits="userSpaceOnUse">
<stop stop-color="#211732"/>
<stop offset="1" stop-color="#2A2A45"/>
</linearGradient>
<linearGradient id="paint17_linear_12_1492" x1="2050.9" y1="170.804" x2="2050.9" y2="127.485" gradientUnits="userSpaceOnUse">
<stop stop-color="#211732"/>
<stop offset="1" stop-color="#2A2A45"/>
</linearGradient>
<linearGradient id="paint18_linear_12_1492" x1="2332.72" y1="415.752" x2="2332.72" y2="20.7328" gradientUnits="userSpaceOnUse">
<stop stop-color="#211732"/>
<stop offset="1" stop-color="#2A2A45"/>
</linearGradient>
<linearGradient id="paint19_linear_12_1492" x1="2339.85" y1="622.118" x2="2339.85" y2="228.815" gradientUnits="userSpaceOnUse">
<stop stop-color="#211732"/>
<stop offset="1" stop-color="#2A2A45"/>
</linearGradient>
<linearGradient id="paint20_linear_12_1492" x1="2325.5" y1="1304.31" x2="2325.5" y2="998.121" gradientUnits="userSpaceOnUse">
<stop stop-color="#FF42E3"/>
<stop offset="1" stop-color="#FF29AD"/>
</linearGradient>
<linearGradient id="paint21_linear_12_1492" x1="1884.69" y1="1442.43" x2="1884.69" y2="1408.86" gradientUnits="userSpaceOnUse">
<stop stop-color="#FF42E3"/>
<stop offset="1" stop-color="#FF29AD"/>
</linearGradient>
<linearGradient id="paint22_linear_12_1492" x1="1807.33" y1="1442.43" x2="1807.33" y2="1409.34" gradientUnits="userSpaceOnUse">
<stop stop-color="#FF42E3"/>
<stop offset="1" stop-color="#FF29AD"/>
</linearGradient>
<linearGradient id="paint23_linear_12_1492" x1="2393.33" y1="294.171" x2="2393.33" y2="107.645" gradientUnits="userSpaceOnUse">
<stop stop-color="#FF42E3"/>
<stop offset="1" stop-color="#FF29AD"/>
</linearGradient>
<linearGradient id="paint24_linear_12_1492" x1="1606.8" y1="171.285" x2="1606.8" y2="3.02082" gradientUnits="userSpaceOnUse">
<stop stop-color="#211732"/>
<stop offset="1" stop-color="#2A2A45"/>
</linearGradient>
<linearGradient id="paint25_linear_12_1492" x1="800.557" y1="205.679" x2="800.557" y2="187.418" gradientUnits="userSpaceOnUse">
<stop stop-color="#FF42E3"/>
<stop offset="1" stop-color="#FF29AD"/>
</linearGradient>
<linearGradient id="paint26_linear_12_1492" x1="1691.16" y1="205.679" x2="1691.16" y2="187.418" gradientUnits="userSpaceOnUse">
<stop stop-color="#FF42E3"/>
<stop offset="1" stop-color="#FF29AD"/>
</linearGradient>
<linearGradient id="paint27_linear_12_1492" x1="581.617" y1="196.96" x2="1016.94" y2="196.96" gradientUnits="userSpaceOnUse">
<stop stop-color="#FF42E3"/>
<stop offset="1" stop-color="#FF29AD"/>
</linearGradient>
<linearGradient id="paint28_linear_12_1492" x1="1478" y1="195.656" x2="1900.34" y2="195.656" gradientUnits="userSpaceOnUse">
<stop stop-color="#FF42E3"/>
<stop offset="1" stop-color="#FF29AD"/>
</linearGradient>
<linearGradient id="paint29_linear_12_1492" x1="2288.29" y1="970.592" x2="2288.29" y2="597.747" gradientUnits="userSpaceOnUse">
<stop stop-color="#FF42E3"/>
<stop offset="1" stop-color="#FF29AD"/>
</linearGradient>
<linearGradient id="paint30_linear_12_1492" x1="200.268" y1="970.592" x2="200.268" y2="597.747" gradientUnits="userSpaceOnUse">
<stop stop-color="#FF42E3"/>
<stop offset="1" stop-color="#FF29AD"/>
</linearGradient>
<linearGradient id="paint31_linear_12_1492" x1="2293.58" y1="1595.8" x2="2293.58" y2="1446.55" gradientUnits="userSpaceOnUse">
<stop stop-color="#211732"/>
<stop offset="1" stop-color="#2A2A45"/>
</linearGradient>
<linearGradient id="paint32_linear_12_1492" x1="194.644" y1="1595.8" x2="194.644" y2="1446.55" gradientUnits="userSpaceOnUse">
<stop stop-color="#211732"/>
<stop offset="1" stop-color="#2A2A45"/>
</linearGradient>
<linearGradient id="paint33_linear_12_1492" x1="291.507" y1="1611.79" x2="291.507" y2="1555.98" gradientUnits="userSpaceOnUse">
<stop stop-color="#FF42E3"/>
<stop offset="1" stop-color="#FF29AD"/>
</linearGradient>
<linearGradient id="paint34_linear_12_1492" x1="2195.68" y1="1611.79" x2="2195.68" y2="1555.98" gradientUnits="userSpaceOnUse">
<stop stop-color="#FF42E3"/>
<stop offset="1" stop-color="#FF29AD"/>
</linearGradient>
<radialGradient id="paint35_radial_12_1492" cx="0" cy="0" r="1" gradientUnits="userSpaceOnUse" gradientTransform="translate(153.995 1147.36) rotate(-1.65) scale(108.95 162.335)">
<stop stop-color="#FF61C8"/>
<stop offset="0.01" stop-color="#FA5FC4"/>
<stop offset="0.18" stop-color="#B94691"/>
<stop offset="0.34" stop-color="#803165"/>
<stop offset="0.49" stop-color="#521F41"/>
<stop offset="0.64" stop-color="#2F1225"/>
<stop offset="0.78" stop-color="#150810"/>
<stop offset="0.9" stop-color="#050204"/>
<stop offset="1"/>
</radialGradient>
<radialGradient id="paint36_radial_12_1492" cx="0" cy="0" r="1" gradientUnits="userSpaceOnUse" gradientTransform="translate(2325.36 1147.16) rotate(-1.65) scale(108.812 162.13)">
<stop stop-color="#FF61C8"/>
<stop offset="0.01" stop-color="#FA5FC4"/>
<stop offset="0.18" stop-color="#B94691"/>
<stop offset="0.34" stop-color="#803165"/>
<stop offset="0.49" stop-color="#521F41"/>
<stop offset="0.64" stop-color="#2F1225"/>
<stop offset="0.78" stop-color="#150810"/>
<stop offset="0.9" stop-color="#050204"/>
<stop offset="1"/>
</radialGradient>
<radialGradient id="paint37_radial_12_1492" cx="0" cy="0" r="1" gradientUnits="userSpaceOnUse" gradientTransform="translate(1246.26 1490.73) rotate(-1.69021) scale(403.454 34.4019)">
<stop stop-color="#FF61C8"/>
<stop offset="0.01" stop-color="#FA5FC4"/>
<stop offset="0.18" stop-color="#B94691"/>
<stop offset="0.34" stop-color="#803165"/>
<stop offset="0.49" stop-color="#521F41"/>
<stop offset="0.64" stop-color="#2F1225"/>
<stop offset="0.78" stop-color="#150810"/>
<stop offset="0.9" stop-color="#050204"/>
<stop offset="1"/>
</radialGradient>
<radialGradient id="paint38_radial_12_1492" cx="0" cy="0" r="1" gradientUnits="userSpaceOnUse" gradientTransform="translate(93.3349 207.973) rotate(-1.65) scale(89.6585 133.591)">
<stop stop-color="#FF61C8"/>
<stop offset="0.01" stop-color="#FA5FC4"/>
<stop offset="0.18" stop-color="#B94691"/>
<stop offset="0.34" stop-color="#803165"/>
<stop offset="0.49" stop-color="#521F41"/>
<stop offset="0.64" stop-color="#2F1225"/>
<stop offset="0.78" stop-color="#150810"/>
<stop offset="0.9" stop-color="#050204"/>
<stop offset="1"/>
</radialGradient>
<radialGradient id="paint39_radial_12_1492" cx="0" cy="0" r="1" gradientUnits="userSpaceOnUse" gradientTransform="translate(2398.31 207.616) rotate(-1.65) scale(89.6585 133.591)">
<stop stop-color="#FF61C8"/>
<stop offset="0.01" stop-color="#FA5FC4"/>
<stop offset="0.18" stop-color="#B94691"/>
<stop offset="0.34" stop-color="#803165"/>
<stop offset="0.49" stop-color="#521F41"/>
<stop offset="0.64" stop-color="#2F1225"/>
<stop offset="0.78" stop-color="#150810"/>
<stop offset="0.9" stop-color="#050204"/>
<stop offset="1"/>
</radialGradient>
</defs>
</svg>
