<svg width="36" height="34" viewBox="0 0 36 34" fill="none" xmlns="http://www.w3.org/2000/svg">
<path id="Vector" fill-rule="evenodd" clip-rule="evenodd" d="M16.1264 18.7889C16.1264 19.8391 16.9654 20.6903 18.0004 20.6903C19.0353 20.6903 19.8743 19.8391 19.8743 18.7889V13.0848C19.8743 12.0347 19.0353 11.1834 18.0004 11.1834C16.9654 11.1834 16.1264 12.0347 16.1264 13.0848V18.7889ZM19.8743 24.4718C19.8743 23.4217 19.0353 22.5704 18.0004 22.5704C16.9654 22.5704 16.1264 23.4217 16.1264 24.4718V24.4931C16.1264 25.5432 16.9654 26.3945 18.0004 26.3945C19.0353 26.3945 19.8743 25.5432 19.8743 24.4931V24.4718ZM13.0856 2.93397C15.2276 -0.977991 20.7725 -0.977991 22.9145 2.93397L35.2845 25.5257C37.3661 29.3277 34.6566 34 30.37 34H5.63C1.34337 34 -1.3662 29.3277 0.715558 25.5257L13.0856 2.93397Z" fill="url(#paint0_linear_108_22070)"/>
<defs>
<linearGradient id="paint0_linear_108_22070" x1="18" y1="-9" x2="18" y2="34" gradientUnits="userSpaceOnUse">
<stop stop-color="#D75853"/>
<stop offset="1" stop-color="#BF0000"/>
</linearGradient>
</defs>
</svg>
