<svg width="70" height="70" viewBox="0 0 70 70" fill="none" xmlns="http://www.w3.org/2000/svg">
<g id="Group 1261154181">
<g id="dypius_icon_purple_text_purple">
<g id="Group 1000010408">
<circle id="Ellipse 260" cx="35" cy="35" r="35" fill="url(#paint0_linear_79_214)"/>
<g id="Group 1000010406">
<g id="Group 1000010398">
<path id="Vector" d="M13.3649 35.1302L27.3626 45.5343C27.3847 45.5343 27.3847 45.5563 27.4069 45.5563L32.5978 49.3999C33.0415 49.7312 33.6626 49.422 33.6626 48.8697L33.6848 20.2199C33.6404 19.7119 33.5739 19.1817 33.463 18.6737C33.3521 18.1877 33.1968 17.7238 32.9749 17.3262C33.3521 20.1316 31.7549 23.4008 29.0485 25.5434C28.4495 26.0294 27.6288 26.5596 26.7192 26.9351C25.7432 27.3548 22.7928 28.3709 22.7928 28.3709L13.8973 31.5738C12.3666 32.1261 12.0561 34.1583 13.3649 35.1302Z" fill="white"/>
<path id="Vector_2" d="M27.2518 26.6917C27.274 26.6696 27.3184 26.6696 27.3406 26.6475C27.3849 26.6254 27.4293 26.6033 27.4958 26.5592C27.5624 26.5371 27.6068 26.4929 27.6733 26.4708C27.6955 26.4487 27.7399 26.4266 27.762 26.4266C27.8286 26.3824 27.9173 26.3383 27.9839 26.2941C28.0061 26.272 28.0282 26.272 28.0504 26.2499C28.117 26.2057 28.1835 26.1616 28.2723 26.1174C28.3166 26.0953 28.3388 26.0732 28.3832 26.0511C28.4275 26.0069 28.4941 25.9848 28.5385 25.9407C28.605 25.8965 28.6716 25.8302 28.7603 25.786C28.7825 25.786 28.7825 25.7639 28.8047 25.7639C28.8934 25.6977 28.9821 25.6314 29.0709 25.5651C31.7772 23.4225 33.3744 20.1533 32.9973 17.3479C32.842 17.0829 32.6424 16.8399 32.4205 16.6632L27.8064 13.2614C27.3627 12.9301 26.7194 13.2393 26.7194 13.7915V21.81C26.7194 26.8463 22.793 28.3705 22.793 28.3705C22.793 28.3705 25.7655 27.3765 26.7194 26.9568C26.8969 26.8684 27.0744 26.7801 27.2518 26.6917Z" fill="#F2EEFF"/>
</g>
<g id="Group 1000010399">
<path id="Vector_3" d="M56.3419 34.5783L42.3353 24.1742C42.3131 24.1742 42.3131 24.1521 42.2909 24.1521L37.0967 20.3086C36.6528 19.9773 36.0312 20.2865 36.0312 20.8388V49.4885C36.0756 49.9966 36.1422 50.5267 36.2532 51.0348C36.3642 51.5207 36.5196 51.9846 36.7416 52.3822C36.3642 49.5769 37.9624 46.3077 40.6705 44.165C41.2699 43.679 42.0912 43.1489 43.0013 42.7734C43.9557 42.3537 46.9302 41.3597 46.9302 41.3597L55.8314 38.1567C57.363 37.5824 57.6516 35.5502 56.3419 34.5783Z" fill="white"/>
<path id="Vector_4" d="M42.468 43.0168C42.4458 43.0389 42.4015 43.0389 42.3793 43.061C42.3349 43.0831 42.2905 43.1052 42.2239 43.1494C42.1573 43.1714 42.1129 43.2156 42.0463 43.2377C42.0241 43.2598 41.9797 43.2819 41.9575 43.2819C41.8909 43.3261 41.8021 43.3703 41.7355 43.4144C41.7133 43.4365 41.6911 43.4365 41.6689 43.4586C41.6023 43.5028 41.5358 43.547 41.447 43.5911C41.4026 43.6132 41.3804 43.6353 41.336 43.6574C41.2916 43.7016 41.225 43.7237 41.1806 43.7679C41.114 43.812 41.0474 43.8783 40.9586 43.9225C40.9364 43.9225 40.9364 43.9446 40.9142 43.9446C40.8254 44.0108 40.7366 44.0771 40.6479 44.1434C37.9398 46.286 36.3415 49.5552 36.7189 52.3606C36.8743 52.6256 37.0741 52.8686 37.296 53.0453L41.8909 56.4471C42.3349 56.7784 42.9786 56.4692 42.9786 55.9169V47.8985C42.9786 42.8843 46.9075 41.338 46.9075 41.338C46.9075 41.338 43.9331 42.3321 42.9786 42.7518C42.8232 42.8401 42.6456 42.9285 42.468 43.0168Z" fill="#F2EEFF"/>
</g>
</g>
</g>
</g>
</g>
<defs>
<linearGradient id="paint0_linear_79_214" x1="35" y1="0" x2="35" y2="70" gradientUnits="userSpaceOnUse">
<stop stop-color="#7770E0"/>
<stop offset="1" stop-color="#554FD8"/>
</linearGradient>
</defs>
</svg>
