<svg width="40" height="35" viewBox="0 0 40 35" fill="none" xmlns="http://www.w3.org/2000/svg">
<path d="M2.15426 32.7183C4.25505 28.6869 7.62803 24.0957 11.6753 19.6244C7.92197 16.0421 4.05422 12.718 0.466104 9.94393C-0.0650246 9.53451 -0.155689 8.77931 0.263606 8.2607C0.444977 8.03533 0.703759 7.88167 0.992134 7.82812C3.86712 7.27314 6.14061 7.53699 8.16936 8.40464C10.1489 9.25237 11.8261 10.6536 13.5828 12.4227C14.3402 13.1861 15.189 14.0769 16.0911 15.0563C16.7649 14.403 17.4483 13.7592 18.141 13.125C24.477 7.3252 31.5679 2.3767 37.8369 0.0772339C38.4722 -0.155992 39.1821 0.156672 39.421 0.77702C39.6031 1.25018 39.4599 1.76458 39.1007 2.08633C36.4943 4.80171 33.4965 7.66102 30.3684 10.6445C27.1376 13.7262 23.7663 16.9429 20.6254 20.181C21.3635 21.0454 22.0943 21.9158 22.8176 22.7921C25.7104 26.2992 28.3515 29.7532 29.7635 32.0451C30.1117 32.6133 29.9219 33.351 29.34 33.691C29.0911 33.8368 28.7971 33.8914 28.5108 33.8449L24.6439 33.366C24.4812 33.346 24.3243 33.2943 24.1824 33.214C24.0405 33.1338 23.9166 33.0265 23.8179 32.8986C21.6724 30.1211 19.2057 27.2933 16.5798 24.5324C13.7514 27.7325 11.3136 30.9036 9.62708 33.9366C9.39842 34.3477 8.95796 34.5752 8.50896 34.562L3.23092 34.461C2.55327 34.4511 2.01283 33.9052 2.02303 33.2436C2.02592 33.0611 2.07076 32.8816 2.15426 32.7183Z" fill="#1A1C35"/>
</svg>
