<svg width="44" height="44" viewBox="0 0 44 44" fill="none" xmlns="http://www.w3.org/2000/svg">
<g id="Group 1261158462">
<g id="Vector" filter="url(#filter0_d_185_308)">
<path d="M22 39C17.192 39 12.6718 37.1277 9.27213 33.7279C5.87228 30.3282 4 25.808 4 21C4 16.192 5.87228 11.6718 9.27213 8.27213C12.6718 4.87228 17.192 3 22 3C26.808 3 31.3282 4.87228 34.7279 8.27213C38.1277 11.6718 40 16.192 40 21C40 25.808 38.1277 30.3282 34.7279 33.7279C31.3282 37.1277 26.808 39 22 39ZM22 4.43426C12.8656 4.43426 5.43426 11.8656 5.43426 21C5.43426 30.1344 12.8656 37.5657 22 37.5657C31.1344 37.5657 38.5657 30.1344 38.5657 21C38.5657 11.8656 31.1344 4.43426 22 4.43426Z" fill="#00DDDD"/>
</g>
<path id="Vector_2" d="M34.9995 16.5538C34.7143 16.5538 34.4446 16.3824 34.3329 16.1013C32.9581 12.6429 30.1738 9.90419 26.694 8.58738C26.3235 8.44727 26.1369 8.03327 26.2771 7.66286C26.4173 7.29253 26.8313 7.10565 27.2017 7.24599C31.0575 8.70507 34.1425 11.7396 35.6657 15.5715C35.8121 15.9396 35.6323 16.3566 35.2642 16.5028C35.1774 16.5374 35.0877 16.5538 34.9995 16.5538Z" fill="#00DDDD"/>
<path id="Vector_3" d="M24.3696 7.93257C24.3295 7.93257 24.289 7.92919 24.2483 7.92216C23.5116 7.79673 22.7561 7.73306 22.0022 7.73306C21.6062 7.73306 21.2852 7.41193 21.2852 7.01593C21.2852 6.61993 21.6062 6.2988 22.0022 6.2988C22.8365 6.2988 23.6733 6.36929 24.4892 6.50841C24.8796 6.57496 25.1422 6.94536 25.0757 7.33577C25.0161 7.68544 24.7127 7.93257 24.3696 7.93257Z" fill="#00DDDD"/>
<path id="Vector_4" d="M22.3195 37.8729C29.7148 37.4314 35.9066 32.526 38.2378 25.8134L39.4375 21L38.3125 15.9375L36.625 12L34.375 8.625L28.75 13.6875L23.125 18.75L13 28.5534L9.0625 32.25L15.25 36.75L22.3195 37.8729Z" fill="#00DDDD" fill-opacity="0.15"/>
<path id="Vector_5" d="M25.9637 16.1501L21.6328 16.1356L22.2896 12L26.6206 12.0145L25.9637 16.1501Z" fill="#00DDDD"/>
<path id="Vector_6" d="M21.3475 17.9294L21.3464 17.9363L19.2818 17.9294L18.625 22.065L20.6896 22.0719L19.4861 29.6504L23.817 29.6649L25.6784 17.9439L21.3475 17.9294Z" fill="#00DDDD"/>
<path id="Vector_7" d="M26.6187 12.0145L22.6211 12.0011V16.139L25.9619 16.1501L26.6187 12.0145Z" fill="#00A5A6"/>
<path id="Vector_8" d="M25.677 17.9438L22.6211 17.9337V29.6609L23.8155 29.6649L25.677 17.9438Z" fill="#00A5A6"/>
</g>
<defs>
<filter id="filter0_d_185_308" x="0" y="0" width="44" height="44" filterUnits="userSpaceOnUse" color-interpolation-filters="sRGB">
<feFlood flood-opacity="0" result="BackgroundImageFix"/>
<feColorMatrix in="SourceAlpha" type="matrix" values="0 0 0 0 0 0 0 0 0 0 0 0 0 0 0 0 0 0 127 0" result="hardAlpha"/>
<feOffset dy="1"/>
<feGaussianBlur stdDeviation="2"/>
<feComposite in2="hardAlpha" operator="out"/>
<feColorMatrix type="matrix" values="0 0 0 0 0 0 0 0 0 0.866667 0 0 0 0 0.866667 0 0 0 1 0"/>
<feBlend mode="normal" in2="BackgroundImageFix" result="effect1_dropShadow_185_308"/>
<feBlend mode="normal" in="SourceGraphic" in2="effect1_dropShadow_185_308" result="shape"/>
</filter>
</defs>
</svg>
