<svg width="41" height="35" viewBox="0 0 41 35" fill="none" xmlns="http://www.w3.org/2000/svg">
<path id="Vector" d="M2.90426 32.9371C5.00505 28.9057 8.37803 24.3144 12.4253 19.8431C8.67197 16.2609 4.80422 12.9367 1.2161 10.1627C0.684975 9.75326 0.594311 8.99806 1.01361 8.47945C1.19498 8.25408 1.45376 8.10042 1.74213 8.04687C4.61712 7.49189 6.89061 7.75574 8.91936 8.62339C10.8989 9.47112 12.5761 10.8723 14.3328 12.6415C15.0902 13.4049 15.939 14.2957 16.8411 15.275C17.5149 14.6218 18.1983 13.978 18.891 13.3437C25.227 7.54395 32.3179 2.59545 38.5869 0.295984C39.2222 0.0627582 39.9321 0.375422 40.171 0.99577C40.3531 1.46893 40.2099 1.98333 39.8507 2.30508C37.2443 5.02046 34.2465 7.87977 31.1184 10.8632C27.8876 13.9449 24.5163 17.1616 21.3754 20.3997C22.1135 21.2641 22.8443 22.1346 23.5676 23.0109C26.4604 26.5179 29.1015 29.9719 30.5135 32.2638C30.8617 32.832 30.6719 33.5698 30.09 33.9097C29.8411 34.0556 29.5471 34.1101 29.2608 34.0636L25.3939 33.5847C25.2312 33.5647 25.0743 33.513 24.9324 33.4328C24.7905 33.3525 24.6666 33.2453 24.5679 33.1174C22.4224 30.3399 19.9557 27.5121 17.3298 24.7511C14.5014 27.9513 12.0636 31.1224 10.3771 34.1554C10.1484 34.5664 9.70796 34.7939 9.25896 34.7807L3.98092 34.6797C3.30327 34.6699 2.76283 34.124 2.77303 33.4623C2.77592 33.2798 2.82076 33.1003 2.90426 32.9371Z" fill="white"/>
</svg>
