<svg width="2203" height="515" viewBox="0 0 2203 515" fill="none" xmlns="http://www.w3.org/2000/svg">
<path d="M2047.2 14.5884L1501.71 0.566772H176.058L42.3788 76.4993L19.3564 417.189L167.889 492.402C167.889 492.402 1970.52 492.402 1984.63 492.402C1998.74 492.402 2179.21 423.445 2179.21 409.926V100.156C2179.21 92.75 2082.47 15.3793 2047.2 14.5884Z" fill="#1A1C39"/>
<path d="M1117.01 492.331H934.684C914.632 492.331 878.984 513.903 878.984 513.903H171.784C166.771 511.746 0.786133 448.325 0.786133 440.199C3.01412 324.071 11.1833 100.804 8.76962 90.7372C5.24197 77.3627 133.165 4.88161 143.191 1.50203C153.217 -1.87754 1101.41 1.50203 1101.41 1.50203C1117.38 4.01874 1101.41 46.6589 1101.41 46.6589H520.093C507.653 47.2341 464.393 17.8966 445.827 15.9551C427.26 14.0137 163.8 17.1775 157.116 18.0404C150.432 18.9033 49.0592 80.0951 46.6456 87.2138C44.2319 94.3324 35.8769 397.415 44.2318 404.39C52.5868 411.365 233.425 484.565 245.122 487.945C253.291 490.749 833.868 491.972 1117.01 492.331Z" fill="url(#paint0_linear_14_6637)"/>
<path d="M2202.97 440.343C2202.97 448.469 2036.99 512.249 2031.79 514.047H1323.85C1323.85 514.047 1288.94 492.475 1269.07 492.475H1117.01C1409.25 491.972 1950.84 490.749 1959.38 488.376C1970.89 484.997 2151.91 411.725 2160.27 404.822C2168.62 397.919 2160.27 94.692 2157.67 87.6453C2155.07 80.5985 2053.88 19.2628 2047.2 18.4718C2040.51 17.6809 1777.43 14.3732 1758.3 16.3866C1739.18 18.3999 1696.1 47.6656 1684.04 47.0904H1100.86C1100.86 47.0904 1086.01 4.45019 1100.86 1.93348C1100.86 1.93348 2049.06 -1.37418 2058.9 1.93348C2068.74 5.24115 2196.85 77.7941 2193.5 91.1686C2192.57 100.948 2200.56 324.215 2202.97 440.343Z" fill="url(#paint1_linear_14_6637)"/>
<path d="M151.535 0.710088C151.535 0.710088 196.838 5.09635 203.15 5.09635C209.463 5.09635 2006.89 6.39065 2019.89 5.09635L2061.29 0.925797C2061.29 0.925797 399.399 -0.51231 151.535 0.710088Z" fill="#434A61"/>
<path d="M445.264 16.2419C445.264 16.2419 533.269 40.5461 550.907 43.71C568.546 46.8738 1624.8 44.1414 1648.75 40.4023C1672.7 36.6632 1758.29 16.2419 1758.29 16.2419C1737.12 26.6971 1714.17 36.5941 1689.6 45.8671C1671.03 50.9724 519.901 48.3119 511.175 47.0895C487.67 37.3136 465.662 27.0135 445.264 16.2419Z" fill="#434A61"/>
<path d="M1269.04 492.618C1269.04 492.618 1932.06 487.585 1945.98 485.427C1959.91 483.27 2160.24 404.677 2160.24 404.677C2160.24 404.677 1992.21 487.081 1958.79 492.618C1925.37 498.155 1269.04 492.618 1269.04 492.618Z" fill="#434A61"/>
<path d="M43.6543 404.677C43.6543 404.677 242.874 480.826 259.027 483.774C275.179 486.722 928.536 492.187 928.536 492.187C928.536 492.187 273.694 493.265 244.545 488.376C215.395 483.486 43.6543 404.677 43.6543 404.677Z" fill="#434A61"/>
<path d="M457.52 0.207062C457.52 0.207062 563.906 5.81571 661.752 7.39764C759.598 8.97957 907.016 5.88763 907.016 5.88763L457.52 0.207062Z" fill="#62687B"/>
<path d="M1661.01 494.847C1661.01 494.847 1790.98 490.245 1836.09 487.657C1881.21 485.068 1958.82 492.834 1958.82 492.834C1859.77 496.017 1760.29 496.689 1661.01 494.847Z" fill="#62687B"/>
<path d="M236.749 485.427C249.647 484.894 262.655 484.894 275.553 485.427C292.755 486.376 309.632 488.064 325.869 490.461C325.869 490.461 248.817 491.395 236.749 485.427Z" fill="#62687B"/>
<path d="M984.635 39.0466L980.099 31.5226H971.315V39.0466H964.619V14.1346H980.783C982.631 14.1346 984.227 14.3506 985.571 14.7826C986.915 15.1906 988.019 15.7786 988.883 16.5466C989.771 17.2906 990.431 18.2026 990.863 19.2826C991.295 20.3626 991.511 21.5626 991.511 22.8826V22.9186C991.511 24.7666 991.103 26.3386 990.287 27.6346C989.495 28.9306 988.247 29.9146 986.543 30.5866L992.123 39.0466H984.635ZM971.315 20.1106V25.7986H980.783C982.103 25.7986 983.099 25.6066 983.771 25.2226C984.467 24.8146 984.815 24.0466 984.815 22.9186V22.8826C984.815 21.8266 984.467 21.1066 983.771 20.7226C983.099 20.3146 982.103 20.1106 980.783 20.1106H971.315ZM1019.46 14.1346V20.1826H1002.39V23.6026H1017.44V29.5786H1002.39V32.9986H1019.46V39.0466H995.697V14.1346H1019.46ZM1029.4 14.1346L1033.11 30.0826L1038.11 19.0306H1044.81L1049.81 30.0826L1053.56 14.1346H1060.83L1053.81 39.0466H1047.44L1041.5 25.6186H1041.42L1035.48 39.0466H1029.11L1022.09 14.1346H1029.4ZM1072.84 14.1346H1079.82L1092.78 39.0466H1085.55L1083.39 34.4746H1069.27L1067.11 39.0466H1059.88L1072.84 14.1346ZM1080.58 28.7866L1076.33 20.4706L1072.08 28.7866H1080.58ZM1115.87 39.0466L1111.34 31.5226H1102.55V39.0466H1095.86V14.1346H1112.02C1113.87 14.1346 1115.47 14.3506 1116.81 14.7826C1118.15 15.1906 1119.26 15.7786 1120.12 16.5466C1121.01 17.2906 1121.67 18.2026 1122.1 19.2826C1122.53 20.3626 1122.75 21.5626 1122.75 22.8826V22.9186C1122.75 24.7666 1122.34 26.3386 1121.53 27.6346C1120.73 28.9306 1119.49 29.9146 1117.78 30.5866L1123.36 39.0466H1115.87ZM1102.55 20.1106V25.7986H1112.02C1113.34 25.7986 1114.34 25.6066 1115.01 25.2226C1115.71 24.8146 1116.05 24.0466 1116.05 22.9186V22.8826C1116.05 21.8266 1115.71 21.1066 1115.01 20.7226C1114.34 20.3146 1113.34 20.1106 1112.02 20.1106H1102.55ZM1142.7 14.1346C1144.82 14.1346 1146.69 14.4226 1148.32 14.9986C1149.95 15.5746 1151.32 16.4026 1152.42 17.4826C1153.55 18.5626 1154.4 19.8706 1154.98 21.4066C1155.56 22.9426 1155.84 24.6706 1155.84 26.5906V26.6266C1155.84 28.5226 1155.56 30.2386 1154.98 31.7746C1154.4 33.3106 1153.55 34.6186 1152.42 35.6986C1151.32 36.7786 1149.95 37.6066 1148.32 38.1826C1146.69 38.7586 1144.82 39.0466 1142.7 39.0466H1126.94V14.1346H1142.7ZM1133.7 32.8186H1142.7C1144.89 32.8186 1146.51 32.2786 1147.56 31.1986C1148.64 30.0946 1149.18 28.5706 1149.18 26.6266V26.5906C1149.18 24.6466 1148.64 23.1226 1147.56 22.0186C1146.51 20.9146 1144.89 20.3626 1142.7 20.3626H1133.7V32.8186ZM1180.04 21.4786C1179.28 20.7586 1178.48 20.2786 1177.67 20.0386C1176.85 19.7746 1175.84 19.6426 1174.64 19.6426H1168.74C1167.66 19.6426 1166.82 19.7866 1166.22 20.0746C1165.62 20.3386 1165.32 20.7466 1165.32 21.2986C1165.32 21.7066 1165.5 22.0426 1165.86 22.3066C1166.24 22.5706 1167.02 22.7986 1168.2 22.9906L1177.85 23.8546C1179.24 24.0706 1180.39 24.4426 1181.3 24.9706C1182.22 25.4746 1182.94 26.0866 1183.46 26.8066C1184.02 27.5026 1184.4 28.2826 1184.62 29.1466C1184.83 30.0106 1184.94 30.8866 1184.94 31.7746C1184.94 32.9266 1184.71 33.9706 1184.26 34.9066C1183.8 35.8426 1183.15 36.6466 1182.31 37.3186C1181.47 37.9666 1180.44 38.4706 1179.22 38.8306C1177.99 39.1906 1176.61 39.3706 1175.08 39.3706H1169.03C1163.36 39.3706 1159.62 37.6306 1157.8 34.1506L1163.52 30.5146C1164.24 31.7386 1165.04 32.5546 1165.93 32.9626C1166.84 33.3706 1167.91 33.5746 1169.14 33.5746H1175.18C1177.34 33.5746 1178.42 32.9266 1178.42 31.6306C1178.42 31.0066 1178.2 30.5626 1177.74 30.2986C1177.28 30.0106 1176.64 29.7826 1175.8 29.6146L1165.5 28.4986C1164.28 28.3066 1163.23 27.9946 1162.37 27.5626C1161.53 27.1066 1160.84 26.5666 1160.32 25.9426C1159.79 25.3186 1159.4 24.6346 1159.16 23.8906C1158.92 23.1226 1158.8 22.3306 1158.8 21.5146C1158.8 19.0666 1159.69 17.1706 1161.47 15.8266C1163.24 14.4826 1165.76 13.8106 1169.03 13.8106H1174.82C1179.26 13.8106 1182.52 14.9506 1184.58 17.2306L1180.04 21.4786Z" fill="white"/>
<defs>
<linearGradient id="paint0_linear_14_6637" x1="558.897" y1="514.047" x2="558.897" y2="0.207714" gradientUnits="userSpaceOnUse">
<stop stop-color="#26223D"/>
<stop offset="1" stop-color="#2A2A45"/>
</linearGradient>
<linearGradient id="paint1_linear_14_6637" x1="1648.76" y1="514.047" x2="1648.76" y2="0.207734" gradientUnits="userSpaceOnUse">
<stop stop-color="#26223D"/>
<stop offset="1" stop-color="#2A2A45"/>
</linearGradient>
</defs>
</svg>
