<svg width="83" height="83" viewBox="0 0 83 83" fill="none" xmlns="http://www.w3.org/2000/svg">
<g id="Group 1261157751">
<circle id="Ellipse 2127" cx="41.5" cy="41.5" r="40.5" fill="url(#paint0_radial_60_1927)" stroke="#00CBC6" stroke-width="2"/>
<path id="Vector" d="M24.1543 56.7183C26.2551 52.6869 29.628 48.0957 33.6753 43.6244C29.922 40.0421 26.0542 36.718 22.4661 33.9439C21.935 33.5345 21.8443 32.7793 22.2636 32.2607C22.445 32.0353 22.7038 31.8817 22.9921 31.8281C25.8671 31.2731 28.1406 31.537 30.1694 32.4046C32.1489 33.2524 33.8261 34.6536 35.5828 36.4227C36.3402 37.1861 37.189 38.0769 38.0911 39.0563C38.7649 38.403 39.4483 37.7592 40.141 37.125C46.477 31.3252 53.5679 26.3767 59.8369 24.0772C60.4722 23.844 61.1821 24.1567 61.421 24.777C61.6031 25.2502 61.4599 25.7646 61.1007 26.0863C58.4943 28.8017 55.4965 31.661 52.3684 34.6445C49.1376 37.7262 45.7663 40.9429 42.6254 44.181C43.3635 45.0454 44.0943 45.9158 44.8176 46.7921C47.7104 50.2992 50.3515 53.7532 51.7635 56.0451C52.1117 56.6133 51.9219 57.351 51.34 57.691C51.0911 57.8368 50.7971 57.8914 50.5108 57.8449L46.6439 57.366C46.4812 57.346 46.3243 57.2943 46.1824 57.214C46.0405 57.1338 45.9166 57.0265 45.8179 56.8986C43.6724 54.1211 41.2057 51.2933 38.5798 48.5324C35.7514 51.7325 33.3136 54.9036 31.6271 57.9366C31.3984 58.3477 30.958 58.5752 30.509 58.562L25.2309 58.461C24.5533 58.4511 24.0128 57.9052 24.023 57.2436C24.0259 57.0611 24.0708 56.8816 24.1543 56.7183Z" fill="#1A1C35"/>
</g>
<defs>
<radialGradient id="paint0_radial_60_1927" cx="0" cy="0" r="1" gradientUnits="userSpaceOnUse" gradientTransform="translate(41.5 41.5) rotate(90) scale(39.5)">
<stop stop-color="#00DBDE"/>
<stop offset="1" stop-color="#00BBCC"/>
</radialGradient>
</defs>
</svg>
