<svg width="83" height="83" viewBox="0 0 83 83" fill="none" xmlns="http://www.w3.org/2000/svg">
<g id="Group 1261157751">
<circle id="Ellipse 2127" cx="41.5" cy="41.5" r="40.5" fill="url(#paint0_radial_14_6662)" stroke="#4C4D67" stroke-width="2"/>
<path id="Vector" d="M23.9043 56.9371C26.0051 52.9057 29.378 48.3144 33.4253 43.8431C29.672 40.2609 25.8042 36.9367 22.2161 34.1627C21.685 33.7533 21.5943 32.9981 22.0136 32.4794C22.195 32.2541 22.4538 32.1004 22.7421 32.0469C25.6171 31.4919 27.8906 31.7557 29.9194 32.6234C31.8989 33.4711 33.5761 34.8723 35.3328 36.6415C36.0902 37.4049 36.939 38.2957 37.8411 39.275C38.5149 38.6218 39.1983 37.978 39.891 37.3437C46.227 31.5439 53.3179 26.5954 59.5869 24.296C60.2222 24.0628 60.9321 24.3754 61.171 24.9958C61.3531 25.4689 61.2099 25.9833 60.8507 26.3051C58.2443 29.0205 55.2465 31.8798 52.1184 34.8632C48.8876 37.9449 45.5163 41.1616 42.3754 44.3997C43.1135 45.2641 43.8443 46.1346 44.5676 47.0109C47.4604 50.5179 50.1015 53.9719 51.5135 56.2638C51.8617 56.832 51.6719 57.5698 51.09 57.9097C50.8411 58.0556 50.5471 58.1101 50.2608 58.0636L46.3939 57.5847C46.2312 57.5647 46.0743 57.513 45.9324 57.4328C45.7905 57.3525 45.6666 57.2453 45.5679 57.1174C43.4224 54.3399 40.9557 51.5121 38.3298 48.7511C35.5014 51.9513 33.0636 55.1224 31.3771 58.1554C31.1484 58.5664 30.708 58.7939 30.259 58.7807L24.9809 58.6797C24.3033 58.6699 23.7628 58.124 23.773 57.4623C23.7759 57.2798 23.8208 57.1003 23.9043 56.9371Z" fill="white"/>
</g>
<defs>
<radialGradient id="paint0_radial_14_6662" cx="0" cy="0" r="1" gradientUnits="userSpaceOnUse" gradientTransform="translate(41.5 41.5) rotate(90) scale(39.5)">
<stop stop-color="#504F6A"/>
<stop offset="1" stop-color="#282641"/>
</radialGradient>
</defs>
</svg>
