<svg width="21" height="24" viewBox="0 0 21 24" fill="none" xmlns="http://www.w3.org/2000/svg">
<path d="M21.0001 23.7804C20.9495 22.5919 20.8519 21.4137 20.593 20.2474C20.5965 19.8159 20.3336 19.3957 20.4695 18.9796C20.786 18.4823 20.7064 17.7589 20.6022 17.2095C20.6101 17.1261 20.5222 17.141 20.5046 17.0866C20.4932 16.9302 20.2528 17.0535 20.1653 17.0145C20.1582 16.9076 20.1881 16.7897 20.08 16.7127C20.0659 16.6347 20.0066 16.5875 19.9433 16.5875C19.6044 16.632 19.6136 15.8695 19.4153 15.6257C19.3191 15.4212 19.2909 15.1719 19.1076 15.0219C18.9801 14.6692 18.755 14.351 18.4961 14.0827C18.4513 13.9861 18.4627 13.803 18.3651 13.7599C18.3467 13.6647 18.2886 13.5854 18.224 13.4988C18.1932 13.4435 18.1998 13.3538 18.1027 13.3606C18.3018 13.0201 18.6091 12.7613 18.7977 12.4114C19.1968 11.8289 19.5279 11.216 19.7116 10.557C19.8734 10.3389 19.5841 10.1513 19.5551 9.92415C19.6813 9.72652 19.3955 9.73876 19.4109 9.60141C19.5138 9.6209 19.7661 9.6617 19.5569 9.47041C19.5938 9.33624 19.4773 9.21339 19.4228 9.09236C19.3573 8.94912 19.425 8.77642 19.3204 8.65675C19.2083 7.95551 18.9951 7.37892 18.7071 6.74386C18.5713 6.49681 18.348 6.24342 18.4144 5.94017C18.4038 5.87308 18.5058 5.80237 18.4082 5.73846C18.9111 4.23443 18.8245 2.20142 17.969 0.764028C16.8635 -1.45982 16.6604 1.80252 16.1236 2.56949C15.9214 2.83421 15.6502 3.58169 15.284 3.24399C15.1605 3.23855 14.8593 3.01553 14.7916 3.16013C14.5868 3.13157 14.3938 3.04635 14.1938 3.02641C13.7683 2.90583 13.3137 2.97201 12.8737 2.9353C12.9014 2.91082 12.9295 2.88634 12.9572 2.86232C12.5796 2.82424 12.2029 2.94663 11.8169 2.99695C11.7228 3.02188 11.6191 3.01326 11.5386 3.08398C11.5298 3.07944 11.5215 3.08035 11.514 3.0867C10.8757 3.21815 11.1126 3.37635 10.4528 2.67873C10.4005 2.53051 10.2607 2.44438 10.1811 2.31157C10.1899 2.31247 10.1983 2.31111 10.2071 2.30839C9.86639 1.92627 9.63604 1.33064 9.39602 0.865112C9.3059 0.702834 8.99731 -0.355603 8.78982 0.133952C8.77047 0.15299 8.75113 0.172482 8.73223 0.19152C8.55771 0.230503 8.46188 0.436298 8.34187 0.581351C8.12822 0.804371 7.97041 1.12576 7.90886 1.41677C7.81347 1.49609 7.73786 1.59763 7.69302 1.7241C7.4064 2.1715 7.26266 2.67964 7.12374 3.09894C6.97076 3.44253 7.02791 3.25804 7.03099 3.64289C6.95933 4.13879 6.80899 4.6841 6.93252 5.17728C6.87625 5.23122 6.89735 5.35134 6.98043 5.35225C6.9312 5.40665 6.93076 5.49005 6.99054 5.53357C7.37959 6.65547 7.62049 7.07521 7.15935 8.28913C6.85471 8.84895 6.86702 9.51257 6.58743 10.096C6.48808 10.1585 6.56457 10.2455 6.50743 10.3294C6.49028 10.3593 6.47314 10.3897 6.45599 10.4196C6.49248 10.4522 6.55754 10.4504 6.56809 10.3915C6.5826 10.4006 6.5993 10.4069 6.61645 10.4019C6.61073 10.4169 6.60678 10.4323 6.60458 10.4486C6.56545 10.45 6.56721 10.5062 6.53292 10.5166C6.5382 10.5597 6.60238 10.5533 6.62612 10.5266C6.72503 10.5551 6.5193 11.1254 6.46303 11.1907C6.35181 11.5379 6.18212 11.3878 6.45292 11.7364C6.90878 12.1956 7.27892 12.8257 7.85743 13.1638V13.1634C7.7383 13.594 7.79852 14.0029 7.57345 14.3642C7.36112 14.6583 7.36156 15.0613 7.1532 15.3995C6.63887 16.3908 6.42698 17.578 6.19883 18.6559C6.21202 18.7652 6.17333 18.8255 6.08805 18.883C6.08322 18.7933 6.1052 18.7031 6.09992 18.6124C6.10344 18.5562 6.10739 18.5004 6.11091 18.4442C6.25334 17.5512 6.13245 16.5839 6.05552 15.6724C6.07838 15.5064 6.0397 15.2512 5.9065 15.1239C5.95309 14.9956 6.00409 14.8152 5.88012 14.7114C5.86957 14.2649 6.01244 13.604 5.77198 13.2187C5.61724 12.0918 5.61021 10.9259 5.30733 9.93186C5.20007 9.68028 5.12182 8.06883 4.78377 8.33537C4.59254 7.95551 4.22812 6.7085 3.91073 6.61286C3.86193 6.51449 3.81445 6.41567 3.73665 6.33725C3.62982 6.18903 3.56037 5.97553 3.42321 5.87988C2.86404 5.27927 2.94185 4.46017 2.50973 3.75893C2.20641 4.21947 0.611548 1.33291 0.787826 2.55906C0.716172 2.49152 0.644957 2.42353 0.573303 2.35599C-0.152912 1.30707 0.335041 2.77846 0.44582 3.1701C0.465602 3.50735 1.00543 4.65418 0.798377 4.79878C0.34691 4.36725 0.321853 4.89216 0.446699 5.25343C0.451095 5.24301 0.455491 5.23304 0.459887 5.22261C0.466481 5.51816 0.577699 5.82322 0.628692 6.15956C0.0536989 5.29695 0.413729 6.79281 0.436149 7.09017C0.413289 7.38119 0.513518 7.65543 0.469558 7.94553C0.0321586 7.54981 0.536377 8.73698 0.452414 8.95184C-0.188519 7.76014 0.191293 9.29725 0.226021 9.72969C0.184259 9.61818 0.0915043 9.53931 0.0809539 9.42327C-0.0329018 9.31266 -0.00740515 9.61728 0.0409506 9.67076C-0.0122407 10.0366 0.268222 10.4572 0.134145 10.7791C-0.0790595 10.5919 0.146014 11.629 0.258112 11.5746C0.233494 11.721 0.216789 11.8366 0.320095 11.9545C0.304709 12.0315 0.329766 12.3003 0.433071 12.2237C0.431313 12.3805 0.46736 12.5279 0.526706 12.6688C0.385155 12.5102 0.353065 12.4884 0.264706 12.6367C0.274816 12.7495 0.306028 12.8556 0.357461 12.9517C0.388232 13.0229 0.379001 13.1185 0.481867 13.1353C0.440545 13.2468 0.450655 13.3175 0.571105 13.3637C0.529783 13.5092 0.561873 13.6121 0.701665 13.6788C0.648034 13.7445 0.681883 13.8755 0.789585 13.8619C0.747823 14.1389 0.289763 13.3606 0.31394 13.7101C0.338998 13.9272 0.425159 14.113 0.489779 14.3079C0.507363 14.3746 0.513518 14.4462 0.567149 14.497C0.627373 14.7345 0.726283 14.9389 0.833984 15.1674C0.906078 15.2299 0.872229 15.4847 1.01686 15.579C0.981249 15.695 1.05774 15.8034 1.15885 15.8509C1.19314 15.9534 1.17335 16.0826 1.28677 16.1673C1.28677 16.1673 1.29073 16.1678 1.29468 16.1683L1.28677 16.1673C1.28677 16.2988 1.13379 16.1497 1.14742 16.2362C1.11972 16.4198 1.29248 16.4448 1.37029 16.5817C1.30831 16.6873 1.4969 16.8011 1.56108 16.8931C1.5369 16.9112 1.52547 16.9366 1.51756 16.9629C1.4103 16.7811 0.69639 16.4303 1.06697 16.8926C1.17599 17.0091 1.20413 17.2625 1.40502 17.36C1.53206 17.6274 1.72461 17.9198 1.93913 18.1587C2.08112 18.3826 2.26048 18.5335 2.37389 18.7878C1.36546 18.4887 2.66711 19.3599 2.70447 19.6695C2.71019 19.6636 2.7159 19.6572 2.72162 19.6514C1.54393 19.2583 2.47368 19.9773 2.81217 20.3762C2.89086 20.5067 3.26891 20.9083 2.89526 20.6762C2.36158 20.6096 3.4641 21.29 3.55949 21.3816C3.54102 21.5026 3.74456 21.5076 3.68961 21.6472C3.08868 21.2723 2.89262 21.6241 3.46893 21.8303C3.59861 21.9527 3.77489 22.0243 3.90677 22.1558C2.81481 22.3249 4.32746 22.7967 4.65321 23.0991C9.458 24.9059 15.8352 23.3638 21.0001 23.7804ZM19.4646 11.0012C19.4602 11.0016 19.4549 11.003 19.4501 11.0043C19.4518 10.9994 19.454 10.9944 19.4558 10.9898C19.4593 10.9935 19.4619 10.9976 19.4646 11.0012ZM20.4717 20.0648C20.4708 20.0652 20.4704 20.0657 20.4695 20.0661C20.4695 20.0648 20.4699 20.0634 20.4699 20.0625C20.4708 20.0634 20.4712 20.0643 20.4717 20.0648ZM12.6359 2.95343C12.6403 2.95434 12.6442 2.9557 12.6486 2.95615C12.642 2.96657 12.6359 2.97655 12.6293 2.98697C12.6279 2.98289 12.6244 2.95796 12.6359 2.95343ZM10.9377 23.0533C10.9394 23.0529 10.9412 23.0533 10.9425 23.0529C10.9416 23.0542 10.9412 23.0556 10.9403 23.0569C10.9399 23.0556 10.9386 23.0547 10.9377 23.0533ZM10.7407 22.9123C10.7311 22.9015 10.7232 22.8888 10.7183 22.872C10.7487 22.8679 10.7412 22.891 10.7407 22.9123ZM2.4161 7.47547L2.41566 7.47502C2.4161 7.47502 2.41653 7.47502 2.41697 7.47502C2.41653 7.47502 2.41653 7.47502 2.4161 7.47547ZM1.58306 13.8197C1.58262 13.8179 1.58262 13.8166 1.58218 13.8148C1.5835 13.8161 1.58438 13.8175 1.5857 13.8188C1.58482 13.8188 1.58394 13.8197 1.58306 13.8197ZM2.76777 9.82352C2.76777 9.82534 2.76777 9.8276 2.76777 9.82942C2.76777 9.8276 2.7647 9.82398 2.76777 9.82352ZM3.82237 14.9013V14.9018C3.82193 14.9013 3.82193 14.9013 3.82237 14.9013ZM4.12569 17.1714C4.12481 17.1678 4.12525 17.1655 4.12965 17.1655C4.12833 17.1678 4.12701 17.1691 4.12569 17.1714ZM2.41697 13.1806C2.41829 13.1815 2.41873 13.1829 2.42005 13.1842C2.41873 13.1842 2.41741 13.1833 2.41653 13.1842C2.41697 13.1829 2.41697 13.182 2.41697 13.1806ZM2.0653 12.0487C2.06486 12.0524 2.06486 12.056 2.06046 12.0537C2.06222 12.0519 2.06354 12.0501 2.0653 12.0487ZM2.17915 13.5188C2.17915 13.5197 2.17915 13.521 2.17915 13.5219C2.17871 13.521 2.17783 13.5201 2.17739 13.5197C2.17783 13.5192 2.17827 13.5188 2.17915 13.5188ZM2.54841 13.7694C2.54973 13.7703 2.55017 13.7712 2.55149 13.7722C2.54973 13.7717 2.54885 13.7722 2.54841 13.7735C2.54841 13.7722 2.54841 13.7708 2.54841 13.7694ZM2.19542 13.1738C2.19586 13.1765 2.1963 13.1788 2.1963 13.1811C2.19234 13.1783 2.18882 13.1765 2.18487 13.1743C2.18838 13.1738 2.1919 13.1738 2.19542 13.1738ZM2.99329 13.4145C2.99153 13.4118 2.98933 13.41 2.98801 13.4073C2.99548 13.4073 3.0034 13.4073 3.01087 13.4073C3.00428 13.4082 2.99856 13.4109 2.99329 13.4145ZM2.86009 12.1408C2.85877 12.1417 2.85789 12.143 2.85657 12.1439C2.85569 12.1412 2.85789 12.1394 2.86009 12.1408ZM3.83907 14.6266C3.83863 14.6257 3.83863 14.6248 3.83819 14.6239C3.83907 14.6252 3.83995 14.6266 3.84039 14.628C3.84039 14.6275 3.83995 14.6271 3.83907 14.6266ZM3.51465 13.3166C3.51289 13.3143 3.51157 13.3125 3.50981 13.3102C3.51113 13.3098 3.51201 13.3089 3.51333 13.3084C3.51377 13.3112 3.51421 13.3139 3.51465 13.3166ZM3.06274 13.4163C3.05263 13.4136 3.04252 13.4109 3.03153 13.4073C3.04428 13.4077 3.05659 13.4073 3.0689 13.4059C3.06714 13.4095 3.06494 13.4127 3.06274 13.4163ZM3.42717 17.0753C3.42761 17.0757 3.42805 17.0767 3.42849 17.0771C3.42805 17.0771 3.42761 17.0771 3.42717 17.0776C3.42717 17.0771 3.42717 17.0762 3.42717 17.0753ZM3.16341 16.7584C3.16517 16.7598 3.16649 16.7612 3.16781 16.7625C3.16605 16.763 3.16473 16.7634 3.16297 16.7639C3.16341 16.7621 3.16341 16.7603 3.16341 16.7584ZM3.42497 18.1537C3.42541 18.1564 3.42629 18.1596 3.42673 18.1623C3.42541 18.1596 3.42365 18.1568 3.42233 18.1541C3.42321 18.1541 3.42409 18.1541 3.42497 18.1537ZM3.73445 10.4531C3.73445 10.4414 3.73445 10.4296 3.73445 10.4182C3.74456 10.4327 3.75555 10.4441 3.73445 10.4531ZM3.55817 11.0062C3.55773 11.0062 3.55773 11.0062 3.55817 11.0062C3.55773 11.0066 3.55817 11.0062 3.55817 11.0062C3.55817 11.0075 3.55773 11.0084 3.55729 11.0098C3.55685 11.0089 3.55641 11.008 3.55553 11.0071C3.55641 11.0066 3.55729 11.0066 3.55817 11.0062C3.55773 11.0062 3.55773 11.0062 3.55817 11.0062ZM2.41653 9.78454C2.41478 9.78182 2.41346 9.77865 2.41214 9.77547C2.4139 9.77502 2.4161 9.77457 2.41785 9.77366C2.41697 9.77774 2.41697 9.78137 2.41653 9.78454ZM2.02046 9.64719C2.01914 9.64629 2.01826 9.64538 2.01694 9.64447C2.01826 9.64402 2.01914 9.64402 2.02046 9.64357C2.02046 9.64493 2.02046 9.64583 2.02046 9.64719ZM2.10706 10.2297C2.10706 10.2324 2.10706 10.2347 2.10662 10.2374C2.10486 10.2351 2.10354 10.2324 2.10178 10.2301C2.10398 10.2301 2.10574 10.2297 2.10706 10.2297ZM1.4503 11.3239C1.45074 11.3244 1.45074 11.3244 1.4503 11.3239C1.4503 11.3244 1.4503 11.3244 1.4503 11.3239C1.4503 11.3244 1.4503 11.3239 1.4503 11.3239ZM2.02266 9.15038C2.02266 9.14857 2.02266 9.14676 2.02266 9.14495C2.02353 9.14495 2.02441 9.1454 2.02573 9.1454C2.02485 9.14721 2.02353 9.14857 2.02266 9.15038ZM1.40678 9.69388C1.40634 9.69298 1.40634 9.69252 1.40634 9.69162C1.40678 9.69162 1.40766 9.69162 1.40854 9.69162C1.40766 9.69252 1.40722 9.69298 1.40678 9.69388ZM4.7886 18.4343L4.78816 18.4338H4.7886C4.7886 18.4338 4.7886 18.4338 4.7886 18.4343ZM4.26152 12.5011C4.26548 12.5016 4.269 12.5016 4.27295 12.5016C4.269 12.5066 4.26592 12.5052 4.26152 12.5011ZM1.8455 8.01806C1.84374 8.01716 1.84242 8.01625 1.84066 8.01534C1.84198 8.01444 1.8433 8.01308 1.84462 8.01172C1.84506 8.01398 1.8455 8.01625 1.8455 8.01806ZM1.88946 8.78775C1.88902 8.7873 1.88858 8.7873 1.88814 8.78685C1.88858 8.78685 1.88902 8.78639 1.88902 8.78639C1.88946 8.7873 1.88946 8.78775 1.88946 8.78775ZM4.69936 13.9154C4.6998 13.9118 4.70024 13.9086 4.70068 13.905C4.70156 13.909 4.70244 13.9127 4.69936 13.9154ZM1.2749 8.19938C1.2749 8.19893 1.2749 8.19847 1.2749 8.19802C1.27534 8.19847 1.27578 8.19847 1.27622 8.19893C1.27578 8.19893 1.27534 8.19893 1.2749 8.19938ZM4.92048 21.4985C4.92048 21.5035 4.92048 21.5085 4.92048 21.5135C4.91609 21.5089 4.91213 21.504 4.90817 21.499C4.91169 21.499 4.91609 21.499 4.92048 21.4985ZM2.41697 7.47456C2.41697 7.4723 2.41697 7.46958 2.41697 7.46731C2.41873 7.46776 2.42005 7.46867 2.42181 7.46913C2.42005 7.47094 2.41873 7.47275 2.41697 7.47456ZM4.99565 21.6363C4.99961 21.6404 5.004 21.6449 5.00796 21.649C5.00972 21.6508 5.01148 21.6531 5.01324 21.6549C5.00664 21.6554 5.00225 21.6431 4.99565 21.6363ZM1.36678 6.73615C1.36546 6.74068 1.36458 6.74522 1.36282 6.7502C1.36238 6.74522 1.36106 6.74023 1.36062 6.73525C1.36238 6.7357 1.36458 6.7357 1.36678 6.73615ZM1.8455 5.21037C1.84418 5.20946 1.84286 5.20856 1.84154 5.20765C1.84286 5.2072 1.84418 5.20674 1.8455 5.20629C1.8455 5.20765 1.8455 5.20901 1.8455 5.21037ZM5.09588 22.8248C5.09588 22.8258 5.09588 22.8262 5.09588 22.8271C5.09544 22.8267 5.095 22.8258 5.09456 22.8253C5.09544 22.8253 5.09544 22.8248 5.09588 22.8248ZM5.44756 22.5551C5.4502 22.5574 5.45195 22.5597 5.45459 22.5619C5.45195 22.5638 5.44932 22.5651 5.44668 22.5669C5.44668 22.5633 5.44668 22.5592 5.44756 22.5551ZM4.70024 10.192C4.6998 10.1916 4.6998 10.1911 4.69936 10.1907C4.6998 10.1907 4.6998 10.1907 4.70024 10.1902C4.70024 10.1907 4.70024 10.1916 4.70024 10.192ZM3.20737 7.97273C3.20693 7.97228 3.20649 7.97183 3.20649 7.97183C3.20693 7.97137 3.20737 7.97137 3.20737 7.97092C3.20737 7.97183 3.20737 7.97228 3.20737 7.97273ZM1.71362 15.8922C1.71362 15.894 1.71406 15.8963 1.71406 15.8981C1.71274 15.8967 1.71186 15.8949 1.71054 15.8936C1.71142 15.8931 1.7123 15.8927 1.71362 15.8922ZM5.31568 14.9484C5.31524 14.9484 5.3148 14.9484 5.31436 14.9484C5.3148 14.948 5.31524 14.9475 5.31568 14.9471C5.31568 14.9475 5.31568 14.948 5.31568 14.9484ZM17.4969 21.528C17.5097 21.5234 17.5233 21.5189 17.5382 21.5153C17.5286 21.5271 17.5202 21.5384 17.5119 21.5502C17.5079 21.542 17.5031 21.5348 17.4969 21.528ZM13.304 4.41711C13.3251 4.40804 13.3221 4.42255 13.3032 4.41938C13.3036 4.41892 13.3036 4.41802 13.304 4.41711ZM7.55675 7.96639C7.55762 7.96639 7.5585 7.96593 7.55894 7.96593C7.55762 7.96775 7.55631 7.97001 7.55499 7.97183C7.55543 7.97001 7.55587 7.9682 7.55675 7.96639ZM17.1307 14.2699C17.1325 14.2708 17.1343 14.2721 17.136 14.273C17.1338 14.273 17.1321 14.2739 17.1299 14.2744C17.1303 14.273 17.1303 14.2712 17.1307 14.2699ZM7.02835 16.7584C7.02835 16.7598 7.02835 16.7612 7.02835 16.7625C7.02659 16.7616 7.02791 16.7598 7.02835 16.7584ZM18.493 16.1243C18.4935 16.1243 18.4935 16.1247 18.4935 16.1247C18.493 16.1247 18.493 16.1252 18.4926 16.1252C18.493 16.1252 18.493 16.1247 18.493 16.1243ZM18.9304 19.0244C18.9304 19.024 18.93 19.0235 18.93 19.0231C18.9309 19.0231 18.9313 19.0226 18.9322 19.0226C18.9313 19.0235 18.9309 19.024 18.9304 19.0244ZM16.9558 14.4494C16.958 14.4521 16.9606 14.4548 16.9628 14.4571C16.9615 14.458 16.9602 14.4598 16.9584 14.4598C16.9589 14.4602 16.9553 14.4512 16.9558 14.4494ZM17.0881 6.33952C17.0736 6.34179 17.0635 6.33635 17.0639 6.32094C17.0718 6.32728 17.0802 6.33363 17.0881 6.33952ZM8.80784 5.9311C8.80652 5.93609 8.80608 5.94062 8.80476 5.94516C8.80256 5.94198 8.80037 5.93881 8.79817 5.93609C8.80169 5.93428 8.80476 5.93292 8.80784 5.9311ZM14.01 20.9283C14.01 20.9369 14.0083 20.941 13.9995 20.9419C13.9801 20.9165 14.0114 20.9079 14.01 20.9283ZM16.4639 15.0817C16.4713 15.0967 16.459 15.0958 16.4476 15.1003C16.4529 15.0935 16.4582 15.0876 16.4639 15.0817ZM15.0659 15.5831C15.0655 15.5826 15.0651 15.5821 15.0646 15.5812C15.0655 15.5812 15.0668 15.5812 15.0677 15.5812C15.0681 15.5826 15.0668 15.5849 15.0668 15.5862C15.0659 15.5853 15.0659 15.584 15.0659 15.5831ZM15.3939 16.0998C15.3939 16.0975 15.3939 16.0953 15.3939 16.093C15.3952 16.0957 15.3965 16.0984 15.3978 16.1016C15.3978 16.1016 15.3956 16.1007 15.3939 16.0998ZM14.6272 16.8491C14.6268 16.8514 14.6255 16.8532 14.625 16.8554C14.6237 16.8536 14.622 16.8523 14.6206 16.8505C14.6228 16.85 14.625 16.8491 14.6272 16.8491ZM13.6676 16.2689C13.668 16.268 13.6685 16.2675 13.6689 16.2666C13.6693 16.2671 13.6698 16.2675 13.6698 16.268C13.6689 16.268 13.668 16.2684 13.6676 16.2689ZM12.4266 16.1814C12.4266 16.1819 12.4266 16.1819 12.427 16.1823C12.4266 16.1823 12.4262 16.1823 12.4257 16.1823C12.4257 16.1823 12.4262 16.1819 12.4266 16.1814ZM13.1282 15.7213C13.1278 15.7231 13.1278 15.7249 13.1273 15.7263C13.1264 15.7254 13.126 15.7245 13.1251 15.7236C13.1264 15.7231 13.1273 15.7222 13.1282 15.7213ZM15.8546 18.2072C15.8541 18.2085 15.8533 18.2094 15.8524 18.2108C15.8519 18.2094 15.8515 18.2081 15.8511 18.2067C15.8524 18.2067 15.8537 18.2067 15.8546 18.2072ZM16.0845 18.7507C16.0845 18.7502 16.0845 18.7502 16.0845 18.7507C16.0845 18.7502 16.0845 18.7507 16.0845 18.7507ZM14.793 15.8591C14.793 15.8573 14.7925 15.855 14.7921 15.8532C14.7956 15.8537 14.7991 15.8546 14.8031 15.8541C14.8 15.8559 14.7965 15.8573 14.793 15.8591ZM14.6035 15.7526C14.6114 15.7476 14.6193 15.744 14.6264 15.7413C14.6193 15.7444 14.6118 15.7481 14.6035 15.7526ZM12.6825 15.4552C12.6816 15.4543 12.6816 15.453 12.6807 15.4521C12.6816 15.4521 12.682 15.4521 12.6829 15.4516C12.6829 15.453 12.6829 15.4539 12.6825 15.4552ZM14.9402 16.4398C14.9402 16.4398 14.9402 16.4402 14.9402 16.4398C14.9398 16.4402 14.9398 16.4398 14.9398 16.4398H14.9402ZM15.0356 16.3097C15.0356 16.3065 15.0361 16.3038 15.0361 16.3006C15.0374 16.3033 15.0387 16.3056 15.04 16.3083C15.0387 16.3088 15.0374 16.3092 15.0356 16.3097ZM14.4975 15.7131C14.494 15.7154 14.4896 15.7145 14.4852 15.7145C14.4896 15.7122 14.4936 15.7068 14.4975 15.7131ZM15.5069 19.5176C15.506 19.5203 15.5051 19.5231 15.5042 19.5258C15.4981 19.5208 15.4915 19.5176 15.484 19.5158C15.4919 19.5163 15.4994 19.5172 15.5069 19.5176ZM15.0712 15.6302C15.0712 15.632 15.0708 15.6338 15.0708 15.6352C15.0633 15.6306 15.058 15.6225 15.0712 15.6302ZM11.0704 18.9333C11.07 18.9329 11.07 18.9329 11.0696 18.9324C11.07 18.9324 11.0704 18.9324 11.0709 18.9324C11.0704 18.9324 11.0704 18.9329 11.0704 18.9333ZM16.7553 19.6654C16.7544 19.6654 16.7536 19.6645 16.7531 19.6649C16.754 19.6636 16.7549 19.6622 16.7558 19.6613C16.7558 19.6627 16.7553 19.664 16.7553 19.6654ZM13.0886 12.929C13.0878 12.9295 13.0873 12.9299 13.0864 12.9308C13.0856 12.9259 13.0847 12.9213 13.0829 12.9172C13.0886 12.9209 13.0952 12.92 13.0886 12.929ZM13.4408 13.0011C13.4408 13.0006 13.4408 13.0006 13.4408 13.0002C13.4421 13.0002 13.4421 13.0002 13.4408 13.0011ZM13.3537 21.2873C13.3524 21.2882 13.3511 21.2891 13.3498 21.29C13.3493 21.2891 13.3493 21.2882 13.3489 21.2873C13.3502 21.2873 13.352 21.2873 13.3537 21.2873ZM16.4542 15.3333C16.452 15.3351 16.4489 15.3342 16.4467 15.3347C16.4485 15.3319 16.4516 15.3328 16.4542 15.3333ZM15.0616 13.303C15.0611 13.303 15.0611 13.3025 15.0607 13.3025L15.0611 13.3021C15.0616 13.3025 15.0616 13.303 15.0616 13.303ZM11.4204 10.3226C11.4169 10.3217 11.4133 10.3203 11.4098 10.319C11.4147 10.3149 11.4173 10.3181 11.4204 10.3226ZM12.1242 20.0643C12.1215 20.0638 12.1154 20.0643 12.1158 20.0616C12.1184 20.0625 12.1211 20.0634 12.1242 20.0643ZM9.12787 6.03717C9.13094 6.03355 9.13358 6.02992 9.1371 6.02584C9.13534 6.03355 9.13754 6.04171 9.12787 6.03717ZM7.89787 9.88245C7.89568 9.87837 7.89392 9.87475 7.89172 9.87067C7.89436 9.86976 7.89611 9.8684 7.89875 9.86749C7.89831 9.87248 7.89787 9.87701 7.89787 9.88245ZM14.1419 10.7786C14.1419 10.7813 14.1437 10.7854 14.1419 10.7872C14.1415 10.784 14.141 10.7813 14.141 10.7782C14.1406 10.7782 14.1415 10.7786 14.1419 10.7786ZM14.094 20.5629C14.0944 20.5647 14.0944 20.5665 14.0949 20.5684C14.0931 20.5679 14.0914 20.5675 14.0896 20.567C14.0909 20.5656 14.0922 20.5643 14.094 20.5629ZM14.272 19.3331C14.2725 19.3381 14.2725 19.3427 14.2729 19.3476C14.2712 19.3472 14.269 19.3467 14.2672 19.3467C14.2685 19.3422 14.2703 19.3377 14.272 19.3331ZM16.914 20.3802C16.9136 20.3798 16.9131 20.3793 16.9127 20.3789C16.9131 20.3784 16.9136 20.3784 16.9145 20.3784C16.9145 20.3789 16.914 20.3798 16.914 20.3802ZM17.0362 6.529C17.0371 6.529 17.0375 6.529 17.0384 6.529C17.0384 6.52945 17.0384 6.52945 17.0384 6.5299C17.038 6.52945 17.0371 6.529 17.0362 6.529ZM7.95106 17.6188C7.95019 17.6183 7.94975 17.6174 7.94887 17.617C7.94975 17.6161 7.95106 17.6152 7.95194 17.6138C7.95194 17.6156 7.9515 17.617 7.95106 17.6188ZM7.29211 18.4791C7.29299 18.4796 7.29387 18.4805 7.29519 18.4809C7.29431 18.4809 7.29299 18.4814 7.29211 18.4819C7.29211 18.4809 7.29211 18.48 7.29211 18.4791ZM17.7923 16.0744C17.7923 16.074 17.7923 16.0744 17.7923 16.0744C17.7923 16.074 17.7923 16.074 17.7923 16.0744ZM9.44438 3.89673C9.4435 3.89582 9.44306 3.89492 9.44218 3.89401C9.44306 3.89356 9.44394 3.8931 9.44482 3.89265C9.44438 3.89401 9.44438 3.89537 9.44438 3.89673ZM7.73171 17.1206C7.72951 17.1197 7.73083 17.1188 7.73171 17.1174C7.73171 17.1188 7.73171 17.1197 7.73171 17.1206ZM17.7 14.5378C17.7 14.5323 17.7 14.5269 17.7 14.521C17.7031 14.5233 17.7057 14.5255 17.7088 14.5278C17.7062 14.531 17.7035 14.5346 17.7 14.5378ZM16.5601 14.3583C16.561 14.3564 16.5623 14.3551 16.5632 14.3537C16.5632 14.356 16.5628 14.3583 16.5601 14.3583ZM6.94263 17.5771C6.94131 17.5762 6.94043 17.5753 6.94087 17.5739C6.94131 17.5748 6.94175 17.5757 6.94263 17.5771ZM16.9518 20.5498C16.9518 20.5498 16.9523 20.5511 16.9527 20.5525C16.9518 20.552 16.9509 20.552 16.9501 20.5516C16.9509 20.5511 16.9514 20.5502 16.9518 20.5498ZM18.781 8.58694C18.7753 8.5883 18.77 8.59012 18.7652 8.59238C18.77 8.57969 18.7761 8.567 18.7836 8.55476C18.7827 8.56519 18.7823 8.57606 18.781 8.58694ZM17.3061 5.77019C17.3022 5.76928 17.2982 5.76792 17.2938 5.76701C17.2978 5.75885 17.3017 5.75069 17.3061 5.74208C17.3057 5.75205 17.3061 5.76112 17.3061 5.77019ZM8.43462 5.25751C8.43462 5.25615 8.43462 5.25434 8.43462 5.25298C8.43594 5.25343 8.43682 5.25389 8.43814 5.25434C8.43682 5.25525 8.43594 5.25661 8.43462 5.25751ZM7.42487 17.0417C7.41827 17.039 7.42047 17.0354 7.42355 17.0304C7.42443 17.034 7.42443 17.0377 7.42487 17.0417ZM16.3377 21.4731C16.3346 21.4709 16.3311 21.4686 16.328 21.4668C16.3307 21.4654 16.3337 21.4636 16.3368 21.4627C16.3364 21.4627 16.3377 21.4731 16.3377 21.4731ZM17.3101 3.40219C17.3066 3.40355 17.3066 3.40128 17.307 3.39856C17.3079 3.39992 17.3088 3.40128 17.3101 3.40219ZM17.3066 3.57988C17.3075 3.58033 17.3083 3.58124 17.3092 3.58169C17.3083 3.5826 17.3075 3.5835 17.3061 3.58441C17.3066 3.58305 17.3066 3.58124 17.3066 3.57988C17.307 3.57988 17.3066 3.57988 17.3066 3.57988ZM17.0503 1.78076C17.049 1.77532 17.0481 1.76943 17.0472 1.76354C17.0578 1.7658 17.0529 1.7726 17.0503 1.78076ZM16.9905 1.98112C16.9914 1.98384 16.9918 1.98656 16.9923 1.98882C16.9901 1.98882 16.9879 1.98882 16.9861 1.98837C16.9874 1.9861 16.9892 1.98338 16.9905 1.98112ZM14.2101 22.3484C14.2057 22.3652 14.2083 22.3797 14.1881 22.3738C14.196 22.3648 14.2026 22.357 14.2101 22.3484ZM18.1796 14.0378C18.1831 14.0378 18.1858 14.0382 18.1845 14.0428C18.1827 14.0414 18.1814 14.0391 18.1796 14.0378ZM16.9509 2.08537C16.9514 2.09217 16.9514 2.09943 16.9518 2.10623C16.9487 2.10532 16.9452 2.10487 16.9426 2.10351C16.9457 2.09761 16.9483 2.09127 16.9509 2.08537ZM13.9129 5.52903C13.9151 5.52586 13.9164 5.52314 13.9186 5.51997C13.9195 5.52178 13.9208 5.52314 13.9221 5.52495C13.919 5.52631 13.916 5.52722 13.9129 5.52903ZM12.9132 3.44026C12.9124 3.43936 12.911 3.43845 12.9102 3.43755C12.9119 3.43709 12.9137 3.43664 12.9154 3.43619C12.9146 3.43755 12.9137 3.4389 12.9132 3.44026ZM6.89691 10.5542C6.89691 10.5524 6.89735 10.5506 6.89735 10.5488C6.89999 10.5506 6.89823 10.5524 6.89691 10.5542ZM6.89691 10.5542L6.89779 10.5547C6.89735 10.5551 6.89735 10.5551 6.89691 10.5556C6.89691 10.5551 6.89691 10.5547 6.89691 10.5542ZM18.0095 21.3326C18.0095 21.3335 18.0095 21.334 18.0095 21.3349C18.0077 21.3344 18.0091 21.3335 18.0095 21.3326ZM19.0175 20.1953C19.0179 20.1985 19.0184 20.2021 19.0184 20.2057C19.0162 20.2044 19.014 20.203 19.0118 20.2016C19.0135 20.1998 19.0153 20.1976 19.0175 20.1953ZM19.1076 20.2909C19.1076 20.2919 19.1072 20.2923 19.1072 20.2932C19.1067 20.2928 19.1063 20.2923 19.1058 20.2919C19.1063 20.2914 19.1067 20.2909 19.1076 20.2909ZM9.57538 2.21184C9.57582 2.21502 9.57626 2.21819 9.57626 2.22136C9.57362 2.21774 9.57098 2.21456 9.57538 2.21184ZM7.16111 5.2013C7.16111 5.20448 7.16111 5.2072 7.16067 5.21037C7.15671 5.20538 7.15364 5.19949 7.15012 5.19405C7.15364 5.19632 7.15715 5.19904 7.16111 5.2013ZM8.01744 13.3134C8.01657 13.3139 8.01569 13.3143 8.01481 13.3148C8.01525 13.3121 8.01612 13.3089 8.01656 13.3062C8.017 13.3089 8.01744 13.3107 8.01744 13.3134ZM5.27172 13.4979C5.27172 13.4965 5.27172 13.4956 5.27172 13.4943C5.27304 13.4947 5.27392 13.4952 5.27524 13.4956C5.27392 13.4961 5.27304 13.497 5.27172 13.4979ZM0.571105 11.134C0.571545 11.1372 0.571545 11.1399 0.571984 11.1431C0.570226 11.1408 0.569347 11.1381 0.567588 11.1358C0.568907 11.1349 0.569786 11.1349 0.571105 11.134ZM9.37712 22.2342C9.37756 22.2342 9.37756 22.2342 9.378 22.2342L9.37756 22.2347C9.37756 22.2347 9.37712 22.2347 9.37712 22.2342ZM18.9322 21.5588C18.9335 21.5543 18.9304 21.5452 18.937 21.5466C18.9353 21.5506 18.9335 21.5547 18.9322 21.5588ZM17.2244 0.248182C17.2244 0.245009 17.2239 0.241836 17.2235 0.239116C17.2257 0.240476 17.2283 0.240929 17.231 0.241836C17.2288 0.244102 17.227 0.245915 17.2244 0.248182ZM7.06967 4.92525C7.0578 4.89987 7.0622 4.88037 7.08418 4.86043C7.07846 4.88355 7.07363 4.90485 7.06967 4.92525ZM7.02176 5.12878C7.02176 5.13014 7.02176 5.1315 7.02176 5.13286C7.02044 5.13195 7.01912 5.13059 7.0178 5.12923C7.01912 5.12923 7.02044 5.12923 7.02176 5.12878ZM4.05228 22.2854C4.04612 22.2845 4.03997 22.2845 4.04348 22.2764C4.04612 22.2791 4.0492 22.2823 4.05228 22.2854ZM18.7889 20.4537C18.7929 20.4451 18.7968 20.4365 18.8008 20.4283C18.8082 20.4337 18.8131 20.4401 18.817 20.4469C18.8069 20.4487 18.7977 20.451 18.7889 20.4537ZM12.0613 2.96521C12.0534 2.9634 12.0455 2.96068 12.0389 2.95524C12.0464 2.95842 12.0538 2.96204 12.0613 2.96521ZM8.18405 0.906362C8.18141 0.909535 8.17922 0.912255 8.17658 0.915428C8.17482 0.908175 8.17658 0.905002 8.18405 0.906362ZM0.492417 5.14736C0.493736 5.15054 0.495055 5.15371 0.496373 5.15688C0.492857 5.15734 0.489779 5.15824 0.487142 5.1596C0.4889 5.15552 0.490659 5.15144 0.492417 5.14736ZM0.473954 9.05293C0.449336 9.03752 0.448897 9.02845 0.457689 9.00307C0.460766 9.01984 0.466041 9.03661 0.473954 9.05293ZM0.399222 12.9014C0.400102 12.9005 0.400541 12.8996 0.40142 12.8987C0.40186 12.8991 0.40186 12.8996 0.4023 12.9C0.40142 12.9005 0.400541 12.9009 0.399222 12.9014ZM0.459447 14.1334C0.459447 14.1343 0.459887 14.1348 0.459887 14.1357C0.455491 14.1348 0.451534 14.1339 0.447138 14.1316C0.451534 14.1325 0.455491 14.133 0.459447 14.1334Z" fill="url(#paint0_linear_294_6986)"/>
<defs>
<linearGradient id="paint0_linear_294_6986" x1="10.5" y1="0" x2="10.5" y2="23.9998" gradientUnits="userSpaceOnUse">
<stop stop-color="#4ED5D2"/>
<stop offset="1" stop-color="#554FD8"/>
</linearGradient>
</defs>
</svg>
