<svg width="124" height="152" viewBox="0 0 124 152" fill="none" xmlns="http://www.w3.org/2000/svg">
<path opacity="0.7" d="M123.539 83.293C122.774 81.7647 121.246 79.727 119.973 78.7081C119.973 78.7081 119.973 78.4534 119.718 78.4534C119.973 77.4345 120.227 76.6703 120.482 75.6515C120.737 74.1232 121.246 72.8496 121.501 71.3213L123.284 64.9533C124.557 63.1702 121.756 62.1514 120.227 61.3872C116.916 59.3495 113.859 57.5664 110.803 55.274L109.274 54.2551C109.274 53.4909 107.491 52.9815 106.982 52.7268C106.218 51.9626 105.708 51.4532 104.944 50.689H105.199C105.199 50.689 105.199 50.689 105.454 50.689C105.454 50.689 105.963 50.689 106.218 50.689C106.472 50.689 106.472 50.689 106.727 50.689C106.727 50.4343 106.727 50.1796 106.727 50.1796C106.727 49.9249 106.727 49.6701 106.727 49.4154C106.982 49.9249 107.491 50.689 108.001 50.9438C108.255 51.1985 108.51 50.9438 109.02 50.9438C109.274 50.9438 109.529 51.1985 110.038 51.1985C110.038 50.9437 109.784 50.9437 109.784 50.689C109.784 50.9437 110.548 51.4532 110.803 51.7079C111.057 51.9626 111.312 51.9626 111.822 51.9626C110.548 49.9249 109.529 47.8871 108.765 45.8494V45.5946C108.51 44.8305 108.51 44.0663 108.255 43.3022C108.255 43.0475 108.001 42.7927 108.001 42.7927C108.51 43.0475 109.02 43.0475 109.274 43.0475C110.038 43.0475 109.784 42.7927 109.784 42.2833C109.784 42.538 110.038 42.7927 110.038 43.0475C110.293 43.0475 111.312 43.0475 111.567 42.7927C111.822 42.538 111.567 42.2833 111.312 41.7739C111.822 42.0286 111.567 42.538 112.331 42.538C112.84 42.538 113.859 42.2833 114.114 41.5191C113.605 41.7739 112.331 41.5191 112.076 41.2644L111.822 41.0097C111.822 41.0097 112.076 41.0097 112.076 41.2644C112.331 41.2644 112.586 41.2644 112.84 41.5191C111.822 39.9908 111.057 38.2078 110.293 36.4248V36.1701C110.038 35.6606 110.038 34.8965 109.784 34.387C109.784 34.1323 109.529 34.1323 109.529 33.8776C109.784 34.1323 110.293 34.1323 110.548 34.1323C111.057 34.1323 110.803 33.8776 111.057 33.6229C111.057 33.8776 111.312 34.1323 111.312 34.1323C111.567 34.1323 112.331 34.1323 112.586 33.8776C112.84 33.6229 112.586 33.3682 112.331 33.1134C112.84 33.3682 112.586 33.6229 113.095 33.6229C113.605 33.6229 114.369 33.3681 114.623 32.8587C114.114 33.1134 113.35 32.8587 112.84 32.604C112.331 32.3493 112.076 31.5851 111.822 31.3304C111.312 30.5662 110.803 29.5474 110.548 28.5285C110.293 28.0191 110.038 27.5096 109.784 27.0002C109.784 27.0002 109.784 26.7455 109.529 26.7455C109.274 26.236 109.02 25.7266 109.02 25.2171C109.02 24.7077 109.02 24.453 108.765 23.9435C108.51 24.453 108.255 24.7077 108.255 25.2171L108.001 25.4719C106.218 28.5285 102.906 30.5662 99.595 31.3304C99.595 31.3304 99.8497 31.3304 99.8497 31.5851C100.104 31.5851 100.359 31.8398 100.614 31.8398C100.869 31.8398 100.869 31.8398 100.869 31.8398C101.123 31.8398 101.123 31.8398 101.378 31.5851C101.633 31.5851 101.633 31.3304 101.888 31.3304C101.633 31.5851 101.378 32.0946 101.123 32.3493C101.378 32.3493 101.378 32.3493 101.633 32.604C101.887 32.604 102.142 32.604 102.142 32.604C102.397 32.604 102.652 32.0946 102.906 31.8398C102.906 32.0946 102.652 32.3493 102.652 32.604C102.652 32.604 102.652 32.604 102.906 32.604C102.906 32.604 103.416 32.604 103.671 32.604C103.416 33.3681 102.906 34.1323 102.142 34.6417C101.378 35.4059 100.614 36.4248 99.595 36.9342C99.595 36.9342 99.595 36.9342 99.3403 36.9342C99.0856 35.9153 98.8309 34.8965 98.3214 33.6229C98.3214 33.3681 98.0667 33.1134 97.5573 33.1134C95.7743 33.1134 93.9912 32.8587 92.4629 31.8398C90.6799 30.821 90.1704 29.8021 89.4063 28.0191C88.8968 26.7455 87.878 25.9813 86.8591 24.9624C86.0949 24.1983 85.0761 23.4341 84.3119 22.67V22.4152V22.1605C84.5666 21.9058 84.3119 21.1417 84.0572 20.3775V20.1228C84.0572 19.868 83.8025 19.6133 83.8025 19.6133C83.5477 19.3586 83.293 19.3586 83.0383 19.3586C82.7836 19.3586 82.7836 19.3586 82.5289 19.3586C82.0194 19.3586 81.7647 19.3586 81.2553 18.8492C80.7458 18.5945 80.7458 18.085 80.2364 17.8303C79.727 17.5756 79.4723 17.8303 79.2175 17.3209C78.1987 16.0473 77.6892 14.7737 76.4156 13.5001C76.1609 14.0095 76.4156 14.519 75.6515 14.0095C75.3968 13.7548 74.8873 12.9907 74.6326 12.7359C73.1043 10.9529 72.0854 9.6793 69.5382 9.6793C69.2835 9.6793 68.7741 9.6793 67.7552 9.93402C66.2269 10.4435 64.9533 11.7171 63.9344 13.2454C63.6797 13.5001 63.1703 14.0095 62.9155 14.2642C61.3872 15.5378 59.6042 16.5567 57.8212 17.5756H57.5664C56.8023 17.5756 56.0381 17.0662 55.5287 16.5567C53.7457 15.5378 51.7079 14.0095 50.689 12.2265C50.4343 11.7171 49.9249 11.2076 49.6702 10.6982C49.6702 10.4435 51.4532 10.4435 51.4532 9.93402C51.4532 9.6793 50.9438 9.16988 50.9438 8.91516C51.9626 9.67931 52.7268 9.42459 52.9815 8.15099C52.7268 8.91515 49.4154 6.8774 49.1607 6.62268C48.1418 5.85853 47.123 5.34909 46.3588 4.33021C46.3588 4.33021 47.3777 3.56605 47.6324 3.56605C47.3777 3.31133 47.123 3.05662 46.6135 3.05662C46.1041 2.8019 45.8494 2.54717 45.3399 2.29245C45.0852 2.03773 44.8305 2.03774 44.8305 1.78302L44.5758 1.52831C44.5758 1.27359 44.3211 1.27358 44.3211 1.01886C44.3211 1.01886 44.3211 0.764145 44.0663 0.764145V0.50943C44.0663 0.254711 44.0663 0.254719 44.0663 0C44.0663 0 44.0663 -3.8905e-06 44.0663 0.254715V0.50943C44.0663 0.764148 44.0663 1.01888 44.0663 1.27359V1.52831C44.0663 1.52831 44.0663 1.5283 44.0663 1.78302C44.0663 2.03774 44.3211 2.29246 44.3211 2.8019C44.5758 3.82078 44.0663 4.33021 43.8116 5.34909C44.3211 5.34909 45.0852 4.58493 45.0852 4.0755C45.3399 4.58493 45.0852 5.34908 45.0852 5.85852C44.8305 7.64155 44.3211 8.91515 43.5569 10.4435C43.0475 11.2076 42.7928 11.717 42.2833 12.4812C42.0286 12.7359 41.7739 12.9906 41.5192 13.2454C42.0286 12.9906 42.2833 13.2454 42.7928 12.9907C43.3022 12.7359 43.5569 11.9718 43.8116 11.4623C44.0663 11.9718 44.0663 12.4812 44.3211 12.9907C44.3211 12.7359 45.8494 12.2265 45.8494 12.4812C45.8494 13.5001 45.5947 14.519 45.5947 15.5378C45.0852 17.8303 44.3211 20.1228 43.0475 22.1605C42.2833 23.1794 41.5192 23.6888 40.755 24.453C40.755 24.1983 40.5003 24.1983 40.2456 24.1983C40.2456 24.1983 39.9908 24.1983 39.9908 23.9435C39.4814 23.4341 39.2267 22.67 38.7173 22.1605C38.4625 21.9058 38.4625 21.9058 38.2078 21.6511C38.7173 21.6511 38.972 21.6511 39.4814 21.3964C39.9908 21.1416 39.7361 21.1417 39.7361 20.6322C39.9908 20.8869 39.9908 20.8869 40.2456 21.1416C40.5003 20.8869 41.2644 20.6322 41.2644 20.3775C41.5192 20.1228 41.0097 19.8681 40.755 19.6133C41.2644 19.6133 41.2644 20.1228 41.7739 19.8681C42.2833 19.6133 42.7928 19.1039 43.0475 18.5945C42.7928 19.1039 41.5192 19.1039 41.2644 19.1039C40.755 18.8492 39.9908 18.5945 39.4814 18.085C38.7173 17.5756 37.4437 16.5567 36.6795 15.5378C36.1701 15.2831 35.6606 14.7737 35.1512 14.2642L34.8965 14.0095C34.387 13.5001 33.8776 12.9906 33.6229 12.4812C33.3682 12.2265 33.1134 11.717 32.8587 11.2076C32.8587 11.2076 32.8587 11.2076 32.8587 11.4623C32.8587 11.9718 32.8587 12.4812 32.8587 12.9907C32.8587 13.2454 32.8587 13.2454 32.8587 13.5001C32.604 15.0284 32.0946 16.5567 31.3304 18.085C31.3304 18.3397 31.0757 18.5945 30.821 18.8492C30.5663 19.1039 30.5663 19.3586 30.3115 19.6133C30.0568 19.8681 30.0568 20.1228 29.8021 20.3775C29.5474 20.6322 29.2927 20.8869 29.2927 21.1416C29.0379 21.3964 28.7832 21.6511 28.5285 21.9058C28.2738 22.1605 28.2738 22.4152 28.0191 22.4152C27.5096 22.9247 27.0002 23.1794 26.4908 23.6888C26.7455 23.6888 26.7455 23.6888 27.0002 23.6888C27.2549 23.6888 27.5096 23.6888 28.0191 23.6888C28.5285 23.6888 28.5285 23.6888 28.7832 23.1794C29.0379 22.9247 29.0379 22.67 29.2927 22.4152C29.2927 22.9247 29.2927 23.4341 29.0379 23.9435C29.2927 23.9435 30.0568 23.9436 30.3115 23.6888C30.5663 23.4341 30.5663 22.67 30.821 22.1605C31.0757 22.67 31.0757 22.9247 31.0757 23.4341L31.8398 22.9247C31.8398 23.9436 31.5851 24.9624 31.3304 25.7266C31.0757 25.9813 31.0757 26.4908 30.821 26.7455C30.821 27.0002 30.821 27.0002 30.5662 27.2549C30.3115 27.5096 30.3115 27.7643 30.0568 28.0191C30.0568 28.0191 30.0568 28.2738 29.8021 28.2738C29.5474 28.5285 29.2927 28.7832 29.0379 29.0379C28.7832 29.5474 27.0002 31.0757 26.4908 30.821C27.2549 31.3304 28.2738 31.3304 29.0379 31.0757C29.2927 31.0757 29.5474 30.821 29.5474 30.5662C29.5474 30.821 29.2927 30.821 29.2927 31.0757C29.0379 31.3304 28.7832 31.5851 28.2738 32.0946C28.0191 32.3493 27.7643 32.604 27.5096 32.8587C27.0002 33.3681 26.236 33.8776 25.7266 34.387C25.9813 34.387 25.9813 34.387 26.236 34.387C26.7455 34.387 27.0002 34.387 27.2549 34.387C27.7643 34.387 27.7643 34.387 28.2738 33.8776C28.5285 33.6229 28.7832 33.1134 29.0379 32.8587C29.0379 33.6229 29.0379 34.1323 28.7832 34.8965C29.0379 34.8965 30.0568 34.6417 30.3115 34.6417C30.821 34.387 30.5663 33.3681 30.821 32.8587C31.0757 33.3681 31.0757 33.8776 31.0757 34.6417L32.0946 34.1323C32.3493 35.4059 31.8398 36.6795 31.3304 37.6984C31.0757 38.2078 31.0757 38.7172 30.821 38.972C30.821 39.2267 30.821 39.2267 30.5662 39.4814C30.3115 39.9908 30.3115 40.2455 30.0568 40.5003C30.0568 40.5003 30.0568 40.755 29.8021 40.755C29.5474 40.2456 29.2927 39.9908 29.0379 39.2267C29.0379 38.972 28.7832 38.972 28.7832 38.7172C28.5285 38.7172 28.2738 38.7172 28.0191 38.7172C27.5096 38.7172 27.0002 38.7172 26.4908 38.7172C25.9813 38.7172 25.4719 38.7172 24.9624 38.7172C24.1983 38.972 23.4341 39.2267 22.4153 39.2267C22.1605 39.2267 22.1605 39.2267 21.9058 39.2267C21.6511 39.2267 21.6511 39.2267 21.3964 39.2267C20.6322 39.2267 19.8681 39.2267 19.1039 39.2267C19.1039 39.7361 19.1039 40.2456 19.1039 40.755C19.1039 41.7739 18.8492 42.7927 18.8492 43.8116C18.5945 44.5758 18.5945 45.5947 18.5945 46.3588C18.3398 47.8871 18.5945 49.6702 18.5945 51.4532C18.085 51.7079 17.8303 52.2173 17.3209 52.4721C16.8114 52.9815 16.5567 53.4909 16.302 54.0004L16.0473 54.2551C15.0284 54.5098 14.0095 55.274 13.7548 56.0381L12.9907 56.5476C12.9907 56.5476 12.9907 56.2928 12.7359 56.2928V56.5476L11.7171 58.0759L11.9718 57.8212C11.9718 57.8212 11.7171 57.8211 11.7171 58.0759C10.4435 58.84 9.16988 59.3495 8.151 60.1136C7.13212 60.6231 3.05663 63.1702 2.80191 63.9344C2.80191 64.4438 6.62269 71.0665 8.91516 75.3968L1.52831 76.1609C1.52831 76.1609 1.52831 76.4156 1.27359 76.4156C0.764156 77.1798 0.509438 77.9439 0 78.4534C0.509438 83.0383 1.27359 87.878 1.52831 92.4629C3.56606 97.0478 5.85853 101.633 5.85853 101.633L19.3586 115.897C19.3586 116.152 19.6133 116.406 19.6133 116.406C19.6133 116.152 19.3586 116.152 19.3586 115.897L24.1983 120.991L33.8776 127.359C33.8776 127.614 34.1323 127.869 34.1323 128.124C35.4059 129.652 36.9342 129.907 38.7173 130.161L41.2644 130.925C42.7928 131.69 44.0663 133.218 45.8494 133.727C45.8494 133.473 45.8494 133.473 45.8494 133.218C46.1041 133.473 46.3588 133.727 46.8683 133.982C47.6324 134.746 48.3966 135.256 49.1607 136.02L49.4154 136.275C50.9438 137.293 52.4721 138.312 54.0004 139.586C54.0004 139.586 54.0004 139.586 54.2551 139.586C55.0193 140.095 55.7834 140.605 56.2928 140.859C56.2928 140.859 56.2928 140.859 56.5476 140.859C56.8023 141.114 57.057 141.114 57.3117 141.369C57.5664 141.369 57.5664 141.624 57.8212 141.624C58.0759 141.878 58.3306 141.878 58.5853 142.133C58.84 142.133 58.84 142.388 59.0948 142.388C59.3495 142.642 59.6042 142.642 59.8589 142.897C60.1136 142.897 60.1136 143.152 60.3683 143.152C60.6231 143.407 60.8778 143.407 61.1325 143.407C61.3872 143.407 61.3872 143.661 61.3872 143.661C61.6419 143.661 61.8967 143.916 61.8967 143.916C61.8967 143.916 62.1514 143.916 62.1514 144.171C62.4061 144.171 62.4061 144.426 62.6608 144.426C62.6608 144.426 62.6608 144.426 62.9155 144.426C63.1703 144.426 63.1703 144.68 63.1703 144.68L62.6608 148.501L69.2835 150.539L70.0477 150.794C70.0477 150.794 70.0477 151.048 70.3024 151.048H70.5571C71.0665 151.048 71.8307 150.794 72.0854 150.284C73.6137 149.265 74.8873 147.992 76.1609 146.718C78.9628 144.171 81.7647 141.878 84.5666 139.331C85.8402 138.312 87.1138 137.039 88.3874 136.02C89.4063 135.001 90.4251 134.237 90.9346 132.963C91.6987 131.18 92.2082 130.161 93.9912 129.142C95.5195 128.378 97.3026 127.869 99.0856 127.869C99.3403 127.869 99.595 127.614 99.8497 127.359C100.869 124.557 101.123 121.501 103.416 119.208C104.435 118.189 105.963 117.68 107.491 117.171C108.765 116.661 110.293 116.152 111.567 115.642C113.859 114.369 114.623 112.84 115.133 110.548C115.897 108.001 117.935 105.963 119.208 103.161C120.227 101.378 121.246 99.3403 121.501 97.5573C121.501 97.0478 121.756 96.5384 121.756 95.7742C122.01 94.7554 122.01 93.7365 122.265 92.7176C122.52 90.6799 123.029 88.3874 123.284 86.3496C124.048 85.5855 124.303 84.3119 123.539 83.293ZM38.972 42.538H37.9531C37.9531 42.2833 37.9531 42.2833 37.9531 42.0286C38.2078 42.2833 38.4625 42.538 38.972 42.538C38.972 42.2833 38.972 42.2833 39.2267 42.2833C38.972 42.538 38.972 42.538 38.972 42.538ZM100.104 39.9908L100.359 39.7361C100.359 39.9908 100.359 40.2455 100.104 40.5003C100.104 40.5003 100.104 40.2456 100.104 39.9908ZM100.104 41.2644C100.359 41.2644 100.869 41.2644 100.869 41.2644C100.614 41.7739 100.359 42.2833 100.104 42.538C100.359 42.0286 100.359 41.7739 100.104 41.2644ZM42.7928 35.1512C42.538 34.8965 42.538 34.6417 42.2833 34.6417C42.538 34.6417 42.7928 34.8965 43.0475 34.8965C43.0475 34.8965 42.7928 34.8965 42.7928 35.1512ZM70.5571 10.1888C70.8118 10.4435 70.8118 10.4435 70.5571 10.1888V10.1888ZM44.5758 31.3304C44.3211 31.8398 44.0663 32.604 43.5569 33.1134C43.0475 33.6229 42.538 34.1323 42.0286 34.1323C41.7739 33.6229 41.5192 33.1134 41.2644 32.8587C41.0097 32.604 40.755 32.604 40.755 32.3493C41.2644 32.3493 41.7739 32.0946 42.2833 32.0946C43.0475 31.8398 42.538 31.8398 42.538 31.0757C42.7928 31.3304 43.0475 31.5851 43.0475 31.8398C43.3022 31.5851 44.3211 31.3304 44.5758 31.0757C44.8305 30.821 44.3211 30.5662 44.0663 30.0568C44.5758 30.0568 44.8305 30.5662 45.3399 30.3115C44.8305 30.5662 44.8305 31.0757 44.5758 31.3304ZM41.5192 25.2171C41.7739 25.2171 42.2833 24.9624 42.538 24.9624C43.0475 24.7077 43.0475 24.9624 43.3022 24.1983C43.5569 23.9436 43.5569 23.4341 43.8116 23.1794C43.8116 23.9436 43.8116 24.453 43.8116 25.2171C44.0663 25.2171 45.0852 24.9624 45.3399 24.7077C45.8494 24.453 45.5947 23.4341 45.8494 22.9247C46.1041 23.4341 46.1041 23.9436 46.1041 24.453L47.123 23.9435C47.123 24.453 47.123 24.9624 47.123 25.7266C46.6135 26.7455 46.3588 27.7643 45.8494 28.7832C45.8494 29.0379 45.5947 29.0379 45.5947 29.2927C45.0852 29.2927 44.5758 29.2927 44.3211 29.2927C44.0663 29.2927 43.8116 29.0379 43.8116 29.0379C44.0663 29.0379 44.0663 29.0379 44.3211 29.0379C44.5758 29.0379 44.8305 29.0379 45.0852 28.7832C43.5569 27.7643 42.2833 26.4907 41.0097 25.2171C41.0097 25.2171 41.2644 25.2171 41.5192 25.2171ZM11.4623 58.0759L10.9529 58.3306C11.2076 58.0759 11.4623 58.0759 11.4623 58.0759Z" fill="#080B2A"/>
</svg>
