<svg width="116" height="129" viewBox="0 0 116 129" fill="none" xmlns="http://www.w3.org/2000/svg">
<path d="M116 126.897C115.721 120.555 115.182 114.268 113.751 108.044C113.771 105.742 112.319 103.499 113.069 101.279C114.817 98.6254 114.378 94.7649 113.802 91.8332C113.846 91.3882 113.361 91.468 113.263 91.1777C113.2 90.3432 111.872 91.0012 111.389 90.7931C111.35 90.2223 111.515 89.5934 110.918 89.1822C110.84 88.7661 110.512 88.5146 110.163 88.5146C108.29 88.7516 108.341 84.6831 107.246 83.3817C106.714 82.2908 106.559 80.9605 105.546 80.1598C104.842 78.278 103.599 76.5799 102.169 75.1479C101.921 74.6327 101.984 73.6555 101.445 73.4257C101.343 72.9178 101.023 72.4945 100.666 72.0325C100.496 71.7374 100.532 71.2584 99.9954 71.2947C101.095 69.4781 102.793 68.097 103.834 66.2296C106.039 63.1214 107.868 59.8511 108.883 56.3341C109.776 55.1706 108.179 54.1692 108.018 52.9573C108.715 51.9027 107.137 51.968 107.222 51.2351C107.79 51.3391 109.184 51.5568 108.028 50.536C108.232 49.8201 107.589 49.1646 107.287 48.5187C106.926 47.7544 107.3 46.8328 106.722 46.1942C106.102 42.4522 104.925 39.3754 103.334 35.9866C102.584 34.6683 101.35 33.3162 101.717 31.698C101.659 31.34 102.222 30.9626 101.683 30.6216C104.461 22.5958 103.983 11.7472 99.2573 4.07701C93.1502 -7.78992 92.0284 9.61862 89.0635 13.7113C87.9465 15.1239 86.4483 19.1126 84.4256 17.3106C83.7432 17.2816 82.0799 16.0915 81.7059 16.8631C80.5744 16.7107 79.5084 16.256 78.4035 16.1495C76.053 15.5061 73.5422 15.8593 71.1115 15.6633C71.2645 15.5327 71.4199 15.4021 71.5729 15.2739C69.487 15.0707 67.406 15.7238 65.274 15.9923C64.7543 16.1254 64.1813 16.0794 63.7369 16.4567C63.6884 16.4325 63.6422 16.4374 63.6009 16.4712C60.0751 17.1727 61.3839 18.0169 57.7392 14.2943C57.4502 13.5033 56.678 13.0437 56.2385 12.335C56.2871 12.3398 56.3332 12.3326 56.3818 12.3181C54.4999 10.279 53.2275 7.10058 51.9017 4.61642C51.4039 3.75046 49.6992 -1.89757 48.5531 0.714796C48.4463 0.816388 48.3394 0.920399 48.235 1.02199C47.271 1.23001 46.7416 2.32817 46.0787 3.10221C44.8986 4.29229 44.0269 6.00726 43.6869 7.56017C43.16 7.98347 42.7423 8.52529 42.4946 9.20015C40.9114 11.5876 40.1174 14.2991 39.3501 16.5366C38.505 18.3701 38.8207 17.3856 38.8377 19.4392C38.4419 22.0854 37.6114 24.9953 38.2938 27.627C37.983 27.9149 38.0995 28.5559 38.5585 28.5607C38.2865 28.851 38.2841 29.296 38.6143 29.5283C40.7633 35.5149 42.094 37.7548 39.5467 44.2325C37.864 47.2198 37.932 50.761 36.3876 53.8741C35.8388 54.2079 36.2613 54.6723 35.9457 55.1198C35.851 55.2794 35.7563 55.4415 35.6616 55.6011C35.8631 55.7753 36.2225 55.7656 36.2808 55.4512C36.3609 55.4995 36.4532 55.5334 36.5479 55.5068C36.5163 55.5866 36.4944 55.6689 36.4823 55.7559C36.2662 55.7632 36.2759 56.0631 36.0865 56.1188C36.1156 56.3486 36.4702 56.3147 36.6013 56.172C37.1476 56.3244 36.0112 59.3673 35.7004 59.7156C35.0861 61.5685 34.1488 60.7678 35.6446 62.6279C38.1626 65.0782 40.2072 68.4404 43.4028 70.2449V70.2425C42.7447 72.5404 43.0774 74.7222 41.8342 76.6501C40.6613 78.2199 40.6637 80.3703 39.5128 82.1747C36.6717 87.4648 35.5013 93.7998 34.241 99.5518C34.3139 100.135 34.1002 100.456 33.6291 100.764C33.6024 100.285 33.7238 99.8034 33.6947 99.3196C33.7141 99.0197 33.736 98.7222 33.7554 98.4222C34.5421 93.6571 33.8744 88.4952 33.4494 83.6309C33.5757 82.7456 33.362 81.3838 32.6263 80.7041C32.8836 80.0195 33.1653 79.0568 32.4806 78.5029C32.4223 76.1203 33.2115 72.5936 31.8832 70.5376C31.0285 64.5243 30.9896 58.303 29.3166 52.9984C28.7241 51.656 28.2918 43.0569 26.4245 44.4792C25.3682 42.4522 23.3552 35.7979 21.602 35.2876C21.3325 34.7627 21.0702 34.2354 20.6404 33.8169C20.0504 33.0259 19.6667 31.8866 18.9091 31.3763C15.8204 28.1713 16.2502 23.8004 13.8632 20.0584C12.1877 22.516 3.37806 7.11268 4.35179 13.6557C3.95598 13.2953 3.56261 12.9325 3.16681 12.572C-0.844653 6.9748 1.8507 14.8264 2.46261 16.9163C2.57189 18.716 5.55377 24.8357 4.41007 25.6073C1.91626 23.3045 1.77785 26.1056 2.46747 28.0334C2.49175 27.9778 2.51604 27.9245 2.54032 27.8689C2.57674 29.446 3.19109 31.0739 3.47276 32.8687C0.296621 28.2656 2.28535 36.2478 2.40919 37.8346C2.28292 39.3875 2.83656 40.8509 2.59374 42.399C0.177638 40.2873 2.96283 46.6223 2.49904 47.7689C-1.04134 41.4097 1.05666 49.612 1.24849 51.9196C1.01781 51.3246 0.50545 50.9037 0.447172 50.2845C-0.181743 49.6943 -0.0409045 51.3198 0.226202 51.6052C-0.0676152 53.5572 1.4816 55.8019 0.74099 57.5193C-0.436708 56.5203 0.806552 62.0547 1.42575 61.7644C1.28977 62.5457 1.1975 63.1625 1.76814 63.7914C1.68315 64.2026 1.82156 65.637 2.3922 65.2282C2.38248 66.0651 2.5816 66.8513 2.90941 67.6035C2.12752 66.7569 1.95026 66.6408 1.46218 67.4318C1.51803 68.0341 1.69043 68.6001 1.97454 69.1129C2.14451 69.4927 2.09352 70.003 2.66173 70.0925C2.43348 70.6876 2.48933 71.0649 3.15466 71.3116C2.92641 72.0881 3.10367 72.6372 3.87585 72.9927C3.57961 73.3435 3.76658 74.0425 4.3615 73.97C4.13082 75.4479 1.60059 71.2947 1.73414 73.1596C1.87255 74.3183 2.34849 75.31 2.70544 76.3501C2.80257 76.7057 2.83656 77.0879 3.13281 77.3588C3.46548 78.6263 4.01183 79.7172 4.60675 80.9363C5.00499 81.2701 4.81801 82.6295 5.6169 83.1326C5.42022 83.7518 5.84273 84.3299 6.40123 84.5839C6.59063 85.1306 6.48136 85.82 7.10784 86.2723C7.10784 86.2723 7.1297 86.2747 7.15155 86.2771L7.10784 86.2723C7.10784 86.9737 6.26282 86.1779 6.33809 86.6399C6.18511 87.6196 7.13941 87.7526 7.56921 88.4831C7.22683 89.0467 8.26855 89.6538 8.62307 90.1449C8.48952 90.2416 8.42638 90.3771 8.38267 90.5174C7.79018 89.5474 3.84671 87.6752 5.89372 90.1425C6.49593 90.7641 6.65133 92.1162 7.76104 92.6363C8.4628 94.0634 9.52638 95.6236 10.7114 96.8983C11.4957 98.0932 12.4864 98.8987 13.1129 100.256C7.5425 98.6593 14.7325 103.308 14.9389 104.96C14.9705 104.929 15.0021 104.895 15.0336 104.864C8.52837 102.766 13.6641 106.603 15.5339 108.731C15.9685 109.428 18.0568 111.571 15.9928 110.333C13.0449 109.977 19.1349 113.608 19.6619 114.096C19.5599 114.742 20.6842 114.769 20.3806 115.514C17.0612 113.513 15.9782 115.391 19.1616 116.491C19.878 117.144 20.8517 117.526 21.5802 118.228C15.5484 119.13 23.904 121.648 25.7033 123.261C52.244 132.903 87.4706 124.674 116 126.897ZM107.518 58.7045C107.494 58.707 107.465 58.7142 107.438 58.7215C107.448 58.6949 107.46 58.6683 107.47 58.6441C107.489 58.6634 107.504 58.6852 107.518 58.7045ZM113.081 107.07C113.076 107.072 113.074 107.074 113.069 107.077C113.069 107.07 113.072 107.062 113.072 107.058C113.076 107.062 113.079 107.067 113.081 107.07ZM69.7978 15.7601C69.8221 15.7649 69.8439 15.7722 69.8682 15.7746C69.8318 15.8302 69.7978 15.8835 69.7614 15.9391C69.7541 15.9173 69.7347 15.7843 69.7978 15.7601ZM60.4175 123.017C60.4272 123.015 60.4369 123.017 60.4442 123.015C60.4394 123.022 60.4369 123.029 60.4321 123.037C60.4296 123.029 60.4224 123.024 60.4175 123.017ZM59.3297 122.265C59.2762 122.207 59.2325 122.139 59.2058 122.05C59.3734 122.028 59.3321 122.151 59.3297 122.265ZM13.346 39.8906L13.3436 39.8882C13.346 39.8882 13.3484 39.8882 13.3509 39.8882C13.3484 39.8882 13.3484 39.8882 13.346 39.8906ZM8.74448 73.745C8.74205 73.7353 8.74205 73.7281 8.73962 73.7184C8.74691 73.7257 8.75177 73.7329 8.75905 73.7402C8.75419 73.7402 8.74934 73.745 8.74448 73.745ZM15.2886 52.4203C15.2886 52.43 15.2886 52.4421 15.2886 52.4518C15.2886 52.4421 15.2716 52.4228 15.2886 52.4203ZM21.114 79.5164V79.5188C21.1115 79.5164 21.1115 79.5164 21.114 79.5164ZM22.7894 91.6301C22.7846 91.6107 22.787 91.5986 22.8113 91.5986C22.804 91.6107 22.7967 91.618 22.7894 91.6301ZM13.3509 70.3344C13.3581 70.3392 13.3606 70.3465 13.3679 70.3538C13.3606 70.3538 13.3533 70.3489 13.3484 70.3538C13.3509 70.3465 13.3509 70.3417 13.3509 70.3344ZM11.4083 64.2945C11.4058 64.3139 11.4058 64.3332 11.3816 64.3211C11.3913 64.3115 11.3986 64.3018 11.4083 64.2945ZM12.0372 72.1389C12.0372 72.1437 12.0372 72.151 12.0372 72.1558C12.0348 72.151 12.0299 72.1461 12.0275 72.1437C12.0299 72.1413 12.0323 72.1389 12.0372 72.1389ZM14.0769 73.4765C14.0842 73.4814 14.0866 73.4862 14.0939 73.491C14.0842 73.4886 14.0793 73.491 14.0769 73.4983C14.0769 73.491 14.0769 73.4838 14.0769 73.4765ZM12.127 70.2981C12.1295 70.3126 12.1319 70.3247 12.1319 70.3368C12.11 70.3223 12.0906 70.3126 12.0687 70.3006C12.0882 70.2981 12.1076 70.2981 12.127 70.2981ZM16.5343 71.5825C16.5246 71.568 16.5124 71.5584 16.5051 71.5438C16.5464 71.5438 16.5901 71.5438 16.6314 71.5438C16.595 71.5487 16.5634 71.5632 16.5343 71.5825ZM15.7985 64.7855C15.7912 64.7904 15.7864 64.7976 15.7791 64.8025C15.7742 64.788 15.7864 64.7783 15.7985 64.7855ZM21.2062 78.0506C21.2038 78.0457 21.2038 78.0409 21.2014 78.0361C21.2062 78.0433 21.2111 78.0506 21.2135 78.0578C21.2135 78.0554 21.2111 78.053 21.2062 78.0506ZM19.4142 71.0601C19.4045 71.048 19.3972 71.0383 19.3875 71.0262C19.3948 71.0238 19.3996 71.019 19.4069 71.0165C19.4093 71.031 19.4118 71.0456 19.4142 71.0601ZM16.9179 71.5922C16.8621 71.5777 16.8062 71.5632 16.7455 71.5438C16.816 71.5463 16.884 71.5438 16.9519 71.5366C16.9422 71.5559 16.9301 71.5729 16.9179 71.5922ZM18.931 91.1173C18.9334 91.1197 18.9358 91.1245 18.9382 91.1269C18.9358 91.1269 18.9334 91.1269 18.931 91.1293C18.931 91.1269 18.931 91.1221 18.931 91.1173ZM17.474 89.4265C17.4837 89.4337 17.491 89.441 17.4983 89.4482C17.4886 89.4507 17.4813 89.4531 17.4716 89.4555C17.474 89.4458 17.474 89.4361 17.474 89.4265ZM18.9188 96.8717C18.9213 96.8862 18.9261 96.9032 18.9285 96.9177C18.9212 96.9032 18.9115 96.8886 18.9043 96.8741C18.9091 96.8741 18.914 96.8741 18.9188 96.8717ZM20.6283 55.7801C20.6283 55.7172 20.6283 55.6544 20.6283 55.5939C20.6842 55.6713 20.7449 55.7318 20.6283 55.7801ZM19.6546 58.7311C19.6522 58.7311 19.6522 58.7311 19.6546 58.7311C19.6522 58.7336 19.6546 58.7311 19.6546 58.7311C19.6546 58.7384 19.6522 58.7432 19.6497 58.7505C19.6473 58.7457 19.6449 58.7408 19.64 58.736C19.6449 58.7336 19.6497 58.7336 19.6546 58.7311C19.6522 58.7311 19.6522 58.7311 19.6546 58.7311ZM13.3484 52.2123C13.3387 52.1978 13.3314 52.1809 13.3241 52.1639C13.3339 52.1615 13.346 52.1591 13.3557 52.1543C13.3509 52.176 13.3509 52.1954 13.3484 52.2123ZM11.1606 51.4794C11.1533 51.4746 11.1484 51.4697 11.1412 51.4649C11.1484 51.4625 11.1533 51.4625 11.1606 51.4601C11.1606 51.4673 11.1606 51.4721 11.1606 51.4794ZM11.6389 54.5876C11.6389 54.6021 11.6389 54.6142 11.6365 54.6288C11.6268 54.6167 11.6195 54.6021 11.6098 54.5901C11.622 54.5901 11.6317 54.5876 11.6389 54.5876ZM8.01115 60.4268C8.01358 60.4292 8.01358 60.4292 8.01115 60.4268C8.01115 60.4292 8.01115 60.4292 8.01115 60.4268C8.01115 60.4292 8.01115 60.4268 8.01115 60.4268ZM11.1727 48.8283C11.1727 48.8187 11.1727 48.809 11.1727 48.7993C11.1776 48.7993 11.1824 48.8017 11.1897 48.8017C11.1849 48.8114 11.1776 48.8187 11.1727 48.8283ZM7.77076 51.7285C7.76833 51.7237 7.76833 51.7213 7.76833 51.7165C7.77076 51.7165 7.77561 51.7165 7.78047 51.7165C7.77561 51.7213 7.77318 51.7237 7.77076 51.7285ZM26.4512 98.369L26.4488 98.3666H26.4512C26.4512 98.3666 26.4512 98.3666 26.4512 98.369ZM23.5398 66.7085C23.5616 66.711 23.581 66.711 23.6029 66.711C23.581 66.7376 23.5641 66.7303 23.5398 66.7085ZM10.1941 42.786C10.1844 42.7812 10.1771 42.7763 10.1674 42.7715C10.1747 42.7667 10.182 42.7594 10.1893 42.7522C10.1917 42.7643 10.1941 42.7763 10.1941 42.786ZM10.437 46.8932C10.4345 46.8908 10.4321 46.8908 10.4297 46.8884C10.4321 46.8884 10.4345 46.886 10.4345 46.886C10.437 46.8908 10.437 46.8932 10.437 46.8932ZM25.9583 74.2554C25.9607 74.236 25.9632 74.2191 25.9656 74.1998C25.9704 74.2215 25.9753 74.2409 25.9583 74.2554ZM7.04228 43.7536C7.04228 43.7511 7.04228 43.7487 7.04228 43.7463C7.04471 43.7487 7.04714 43.7487 7.04957 43.7511C7.04714 43.7511 7.04471 43.7511 7.04228 43.7536ZM27.1797 114.72C27.1797 114.747 27.1797 114.774 27.1797 114.8C27.1554 114.776 27.1336 114.75 27.1117 114.723C27.1311 114.723 27.1554 114.723 27.1797 114.72ZM13.3509 39.8858C13.3509 39.8737 13.3509 39.8592 13.3509 39.8471C13.3606 39.8495 13.3679 39.8544 13.3776 39.8568C13.3679 39.8665 13.3606 39.8761 13.3509 39.8858ZM27.5949 115.456C27.6168 115.478 27.6411 115.502 27.6629 115.524C27.6726 115.533 27.6824 115.545 27.6921 115.555C27.6556 115.557 27.6314 115.492 27.5949 115.456ZM7.54979 35.9455C7.5425 35.9697 7.53764 35.9939 7.52793 36.0205C7.5255 35.9939 7.51822 35.9673 7.51579 35.9407C7.5255 35.9431 7.53764 35.9431 7.54979 35.9455ZM10.1941 27.8036C10.1869 27.7988 10.1796 27.7939 10.1723 27.7891C10.1796 27.7867 10.1869 27.7843 10.1941 27.7818C10.1941 27.7891 10.1941 27.7963 10.1941 27.8036ZM28.1486 121.798C28.1486 121.803 28.1486 121.805 28.1486 121.81C28.1461 121.808 28.1437 121.803 28.1413 121.8C28.1461 121.8 28.1461 121.798 28.1486 121.798ZM30.0912 120.359C30.1057 120.371 30.1155 120.383 30.13 120.395C30.1155 120.405 30.1009 120.412 30.0863 120.422C30.0863 120.402 30.0863 120.381 30.0912 120.359ZM25.9632 54.3869C25.9607 54.3845 25.9607 54.382 25.9583 54.3796C25.9607 54.3796 25.9607 54.3796 25.9632 54.3772C25.9632 54.3796 25.9632 54.3845 25.9632 54.3869ZM17.7168 42.5441C17.7144 42.5417 17.712 42.5393 17.712 42.5393C17.7144 42.5369 17.7168 42.5369 17.7168 42.5345C17.7168 42.5393 17.7168 42.5417 17.7168 42.5441ZM9.46567 84.804C9.46567 84.8137 9.4681 84.8258 9.4681 84.8355C9.46081 84.8282 9.45596 84.8185 9.44867 84.8113C9.45353 84.8089 9.45838 84.8064 9.46567 84.804ZM29.3627 79.768C29.3603 79.768 29.3578 79.768 29.3554 79.768C29.3578 79.7655 29.3603 79.7631 29.3627 79.7607C29.3627 79.7631 29.3627 79.7655 29.3627 79.768ZM96.6493 114.878C96.7197 114.854 96.795 114.829 96.8776 114.81C96.8242 114.873 96.778 114.933 96.7319 114.996C96.71 114.953 96.6833 114.914 96.6493 114.878ZM73.4887 23.5706C73.6053 23.5222 73.5883 23.5996 73.4839 23.5827C73.4863 23.5803 73.4863 23.5754 73.4887 23.5706ZM41.7419 42.5103C41.7467 42.5103 41.7516 42.5079 41.754 42.5079C41.7467 42.5175 41.7395 42.5296 41.7322 42.5393C41.7346 42.5296 41.737 42.5199 41.7419 42.5103ZM94.6266 76.1469C94.6363 76.1518 94.646 76.159 94.6557 76.1639C94.6436 76.1639 94.6339 76.1687 94.6217 76.1711C94.6242 76.1639 94.6242 76.1542 94.6266 76.1469ZM38.8231 89.4265C38.8231 89.4337 38.8231 89.441 38.8231 89.4482C38.8134 89.4434 38.8207 89.4337 38.8231 89.4265ZM102.152 86.0425C102.154 86.0425 102.154 86.0449 102.154 86.0449C102.152 86.0449 102.152 86.0473 102.149 86.0473C102.152 86.0473 102.152 86.0449 102.152 86.0425ZM104.568 101.518C104.568 101.516 104.565 101.514 104.565 101.511C104.57 101.511 104.573 101.509 104.578 101.509C104.573 101.514 104.57 101.516 104.568 101.518ZM93.6602 77.1048C93.6723 77.1193 93.6869 77.1338 93.699 77.1459C93.6917 77.1508 93.6844 77.1604 93.6747 77.1604C93.6772 77.1628 93.6577 77.1145 93.6602 77.1048ZM94.3911 33.829C94.3109 33.8411 94.2551 33.8121 94.2575 33.7298C94.3012 33.7637 94.3474 33.7975 94.3911 33.829ZM48.6527 31.6496C48.6454 31.6762 48.6429 31.7004 48.6357 31.7246C48.6235 31.7076 48.6114 31.6907 48.5992 31.6762C48.6187 31.6665 48.6357 31.6593 48.6527 31.6496ZM77.3885 111.678C77.3885 111.724 77.3788 111.745 77.3302 111.75C77.2234 111.615 77.3958 111.569 77.3885 111.678ZM90.943 80.4791C90.9842 80.5589 90.9162 80.5541 90.8531 80.5783C90.8822 80.542 90.9114 80.5106 90.943 80.4791ZM83.2211 83.1544C83.2187 83.1519 83.2163 83.1495 83.2139 83.1447C83.2187 83.1447 83.226 83.1447 83.2309 83.1447C83.2333 83.152 83.226 83.164 83.226 83.1713C83.2211 83.1665 83.2211 83.1592 83.2211 83.1544ZM85.0326 85.9119C85.0326 85.8998 85.0326 85.8877 85.0326 85.8756C85.0399 85.8901 85.0472 85.9046 85.0545 85.9215C85.0545 85.9215 85.0423 85.9167 85.0326 85.9119ZM80.7978 89.9102C80.7953 89.9223 80.788 89.932 80.7856 89.9441C80.7783 89.9344 80.7686 89.9272 80.7613 89.9175C80.7735 89.9151 80.7856 89.9102 80.7978 89.9102ZM75.4969 86.8141C75.4993 86.8093 75.5018 86.8068 75.5042 86.802C75.5066 86.8044 75.509 86.8068 75.509 86.8093C75.5042 86.8093 75.4993 86.8117 75.4969 86.8141ZM68.642 86.3473C68.642 86.3497 68.642 86.3497 68.6444 86.3521C68.642 86.3521 68.6395 86.3521 68.6371 86.3521C68.6371 86.3521 68.6395 86.3497 68.642 86.3473ZM72.5174 83.8921C72.515 83.9018 72.515 83.9115 72.5126 83.9187C72.5077 83.9139 72.5053 83.909 72.5005 83.9042C72.5077 83.9018 72.5126 83.897 72.5174 83.8921ZM87.5774 97.1572C87.575 97.1644 87.5701 97.1692 87.5653 97.1765C87.5628 97.1692 87.5604 97.162 87.558 97.1547C87.5653 97.1547 87.5726 97.1547 87.5774 97.1572ZM88.8474 100.057C88.8474 100.055 88.8474 100.055 88.8474 100.057C88.8474 100.055 88.8474 100.057 88.8474 100.057ZM81.7132 84.6274C81.7132 84.6178 81.7108 84.6057 81.7083 84.596C81.7278 84.5984 81.7472 84.6033 81.7691 84.6008C81.7521 84.6105 81.7326 84.6178 81.7132 84.6274ZM80.6666 84.059C80.7103 84.0324 80.7541 84.0131 80.7929 83.9986C80.7541 84.0155 80.7128 84.0348 80.6666 84.059ZM70.0552 82.4723C70.0503 82.4674 70.0503 82.4602 70.0455 82.4553C70.0503 82.4553 70.0528 82.4553 70.0576 82.4529C70.0576 82.4602 70.0576 82.465 70.0552 82.4723ZM82.5267 87.726C82.5267 87.726 82.5267 87.7284 82.5267 87.726C82.5242 87.7284 82.5242 87.726 82.5242 87.726H82.5267ZM83.0536 87.0318C83.0536 87.0149 83.056 87.0004 83.056 86.9834C83.0633 86.9979 83.0706 87.01 83.0779 87.0245C83.0706 87.027 83.0633 87.0294 83.0536 87.0318ZM80.0814 83.8486C80.062 83.8607 80.0377 83.8558 80.0134 83.8558C80.0377 83.8438 80.0596 83.8147 80.0814 83.8486ZM85.6567 104.15C85.6518 104.165 85.647 104.179 85.6421 104.194C85.6081 104.167 85.5717 104.15 85.5304 104.14C85.5741 104.143 85.6154 104.148 85.6567 104.15ZM83.2503 83.4059C83.2503 83.4156 83.2478 83.4253 83.2478 83.4325C83.2066 83.4084 83.1774 83.3648 83.2503 83.4059ZM61.1508 101.032C61.1484 101.03 61.1484 101.03 61.146 101.027C61.1484 101.027 61.1508 101.027 61.1533 101.027C61.1508 101.027 61.1508 101.03 61.1508 101.032ZM92.5529 104.939C92.548 104.939 92.5432 104.934 92.5407 104.936C92.5456 104.929 92.5505 104.922 92.5553 104.917C92.5553 104.924 92.5529 104.931 92.5529 104.939ZM72.2989 68.9919C72.294 68.9944 72.2916 68.9968 72.2868 69.0016C72.2819 68.975 72.277 68.9508 72.2673 68.9291C72.2989 68.9484 72.3353 68.9436 72.2989 68.9919ZM74.2439 69.3765C74.2439 69.3741 74.2439 69.3741 74.2439 69.3717C74.2512 69.3717 74.2512 69.3717 74.2439 69.3765ZM73.7631 113.593C73.7558 113.598 73.7486 113.603 73.7413 113.608C73.7389 113.603 73.7389 113.598 73.7364 113.593C73.7437 113.593 73.7534 113.593 73.7631 113.593ZM90.8895 81.8216C90.8774 81.8313 90.8604 81.8264 90.8483 81.8288C90.858 81.8143 90.875 81.8192 90.8895 81.8216ZM83.1969 70.9875C83.1944 70.9875 83.1944 70.9851 83.192 70.9851L83.1944 70.9827C83.1969 70.9851 83.1969 70.9875 83.1969 70.9875ZM63.0837 55.0835C63.0643 55.0787 63.0449 55.0714 63.0254 55.0642C63.0521 55.0424 63.0667 55.0593 63.0837 55.0835ZM66.9713 107.067C66.9568 107.065 66.9228 107.067 66.9252 107.053C66.9398 107.058 66.9543 107.062 66.9713 107.067ZM50.4204 32.2156C50.4374 32.1963 50.452 32.1769 50.4714 32.1551C50.4617 32.1963 50.4738 32.2398 50.4204 32.2156ZM43.6262 52.7348C43.6141 52.713 43.6043 52.6937 43.5922 52.6719C43.6068 52.6671 43.6165 52.6598 43.6311 52.655C43.6286 52.6816 43.6262 52.7058 43.6262 52.7348ZM78.117 57.5169C78.117 57.5314 78.1267 57.5532 78.117 57.5628C78.1145 57.5459 78.1121 57.5314 78.1121 57.5145C78.1097 57.5145 78.1145 57.5169 78.117 57.5169ZM77.8523 109.728C77.8547 109.738 77.8547 109.747 77.8572 109.757C77.8474 109.755 77.8377 109.752 77.828 109.75C77.8353 109.742 77.8426 109.735 77.8523 109.728ZM78.8357 103.166C78.8382 103.192 78.8382 103.216 78.8406 103.243C78.8309 103.241 78.8187 103.238 78.809 103.238C78.8163 103.214 78.826 103.19 78.8357 103.166ZM93.4295 108.753C93.4271 108.751 93.4246 108.748 93.4222 108.746C93.4246 108.743 93.427 108.743 93.4319 108.743C93.4319 108.746 93.4295 108.751 93.4295 108.753ZM94.1045 34.8401C94.1094 34.8401 94.1118 34.8401 94.1167 34.8401C94.1167 34.8425 94.1167 34.8425 94.1167 34.8449C94.1142 34.8425 94.1094 34.8401 94.1045 34.8401ZM43.92 94.0175C43.9152 94.015 43.9127 94.0102 43.9079 94.0078C43.9127 94.003 43.92 93.9981 43.9249 93.9909C43.9249 94.0005 43.9224 94.0078 43.92 94.0175ZM40.2801 98.6085C40.2849 98.6109 40.2898 98.6157 40.2971 98.6181C40.2922 98.6181 40.2849 98.6206 40.2801 98.623C40.2801 98.6181 40.2801 98.6133 40.2801 98.6085ZM98.2811 85.7764C98.2811 85.774 98.2811 85.7764 98.2811 85.7764C98.2811 85.774 98.2811 85.774 98.2811 85.7764ZM52.1688 20.7937C52.1639 20.7889 52.1615 20.7841 52.1566 20.7792C52.1615 20.7768 52.1663 20.7744 52.1712 20.772C52.1688 20.7792 52.1688 20.7865 52.1688 20.7937ZM42.7083 91.3591C42.6962 91.3543 42.7035 91.3495 42.7083 91.3422C42.7083 91.3495 42.7083 91.3543 42.7083 91.3591ZM97.7712 77.5765C97.7712 77.5474 97.7712 77.5184 97.7712 77.487C97.7882 77.4991 97.8027 77.5112 97.8197 77.5233C97.8052 77.5402 97.7906 77.5595 97.7712 77.5765ZM91.4747 76.6186C91.4796 76.6089 91.4869 76.6017 91.4917 76.5944C91.4917 76.6065 91.4893 76.6186 91.4747 76.6186ZM38.3496 93.7949C38.3423 93.7901 38.3375 93.7853 38.3399 93.778C38.3423 93.7828 38.3448 93.7877 38.3496 93.7949ZM93.6383 109.658C93.6383 109.658 93.6407 109.665 93.6432 109.672C93.6383 109.67 93.6334 109.67 93.6286 109.667C93.6334 109.665 93.6359 109.66 93.6383 109.658ZM103.742 45.8217C103.711 45.8289 103.682 45.8386 103.655 45.8507C103.682 45.783 103.716 45.7153 103.757 45.65C103.752 45.7056 103.75 45.7636 103.742 45.8217ZM95.5955 30.7909C95.5736 30.7861 95.5518 30.7788 95.5275 30.774C95.5493 30.7304 95.5712 30.6869 95.5955 30.6409C95.593 30.6941 95.5955 30.7425 95.5955 30.7909ZM46.5911 28.0552C46.5911 28.0479 46.5911 28.0382 46.5911 28.031C46.5984 28.0334 46.6032 28.0358 46.6105 28.0382C46.6032 28.0431 46.5984 28.0503 46.5911 28.0552ZM41.0134 90.9383C40.977 90.9238 40.9891 90.9044 41.0061 90.8778C41.011 90.8971 41.011 90.9165 41.0134 90.9383ZM90.246 114.585C90.229 114.573 90.2096 114.561 90.1926 114.551C90.2072 114.544 90.2242 114.534 90.2412 114.529C90.2388 114.529 90.246 114.585 90.246 114.585ZM95.6173 18.1548C95.5979 18.162 95.5979 18.1499 95.6003 18.1354C95.6052 18.1427 95.61 18.1499 95.6173 18.1548ZM95.5979 19.103C95.6028 19.1054 95.6076 19.1102 95.6125 19.1126C95.6076 19.1175 95.6028 19.1223 95.5955 19.1272C95.5979 19.1199 95.5979 19.1102 95.5979 19.103C95.6003 19.103 95.5979 19.103 95.5979 19.103ZM94.1822 9.50251C94.1749 9.47349 94.1701 9.44204 94.1652 9.4106C94.2235 9.42269 94.1968 9.45897 94.1822 9.50251ZM93.852 10.5716C93.8568 10.5862 93.8593 10.6007 93.8617 10.6128C93.8496 10.6128 93.8374 10.6128 93.8277 10.6104C93.835 10.5983 93.8447 10.5837 93.852 10.5716ZM78.4934 119.256C78.4691 119.345 78.4836 119.423 78.3719 119.391C78.4156 119.343 78.4521 119.302 78.4934 119.256ZM100.42 74.9085C100.44 74.9085 100.454 74.9109 100.447 74.9351C100.437 74.9278 100.43 74.9157 100.42 74.9085ZM93.6335 11.128C93.6359 11.1643 93.6359 11.203 93.6383 11.2393C93.6213 11.2344 93.6019 11.232 93.5873 11.2247C93.6043 11.1933 93.6189 11.1594 93.6335 11.128ZM76.8519 29.5041C76.864 29.4871 76.8713 29.4726 76.8834 29.4557C76.8883 29.4654 76.8956 29.4726 76.9029 29.4823C76.8859 29.4895 76.8689 29.4944 76.8519 29.5041ZM71.33 18.358C71.3252 18.3531 71.3179 18.3483 71.313 18.3434C71.3227 18.341 71.3325 18.3386 71.3422 18.3362C71.3373 18.3434 71.3325 18.3507 71.33 18.358ZM38.0971 56.3195C38.0971 56.3099 38.0995 56.3002 38.0995 56.2905C38.1141 56.3002 38.1044 56.3099 38.0971 56.3195ZM38.0971 56.3195L38.1019 56.322C38.0995 56.3244 38.0995 56.3244 38.0971 56.3268C38.0971 56.3244 38.0971 56.322 38.0971 56.3195ZM99.4807 113.835C99.4807 113.84 99.4807 113.842 99.4807 113.847C99.4709 113.845 99.4782 113.84 99.4807 113.835ZM105.049 107.766C105.051 107.783 105.053 107.803 105.053 107.822C105.041 107.815 105.029 107.807 105.017 107.8C105.027 107.79 105.036 107.778 105.049 107.766ZM105.546 108.277C105.546 108.281 105.544 108.284 105.544 108.289C105.542 108.286 105.539 108.284 105.537 108.281C105.539 108.279 105.542 108.277 105.546 108.277ZM52.8924 11.8028C52.8948 11.8198 52.8972 11.8367 52.8972 11.8536C52.8827 11.8343 52.8681 11.8174 52.8924 11.8028ZM39.5565 27.7552C39.5565 27.7722 39.5565 27.7867 39.554 27.8036C39.5322 27.777 39.5152 27.7456 39.4958 27.7165C39.5152 27.7286 39.5346 27.7431 39.5565 27.7552ZM44.2867 71.0431C44.2818 71.0456 44.277 71.048 44.2721 71.0504C44.2745 71.0359 44.2794 71.019 44.2818 71.0044C44.2843 71.019 44.2867 71.0286 44.2867 71.0431ZM29.1199 72.0276C29.1199 72.0204 29.1199 72.0155 29.1199 72.0083C29.1272 72.0107 29.132 72.0131 29.1393 72.0155C29.132 72.0179 29.1272 72.0228 29.1199 72.0276ZM3.15466 59.4133C3.15709 59.4302 3.15709 59.4447 3.15952 59.4616C3.14981 59.4495 3.14495 59.435 3.13524 59.4229C3.14252 59.4181 3.14738 59.4181 3.15466 59.4133ZM51.7972 118.646C51.7997 118.646 51.7997 118.646 51.8021 118.646L51.7997 118.649C51.7997 118.649 51.7972 118.649 51.7972 118.646ZM104.578 115.042C104.585 115.018 104.568 114.97 104.604 114.977C104.595 114.999 104.585 115.02 104.578 115.042ZM95.1438 1.32435C95.1438 1.30742 95.1414 1.29048 95.139 1.27597C95.1511 1.28323 95.1657 1.28565 95.1802 1.29048C95.1681 1.30258 95.1584 1.31225 95.1438 1.32435ZM39.0514 26.2821C38.9858 26.1467 39.0101 26.0427 39.1315 25.9362C39.1 26.0596 39.0732 26.1733 39.0514 26.2821ZM38.7867 27.3682C38.7867 27.3755 38.7867 27.3827 38.7867 27.39C38.7794 27.3851 38.7721 27.3779 38.7649 27.3706C38.7721 27.3706 38.7794 27.3706 38.7867 27.3682ZM22.3839 118.92C22.3499 118.915 22.3159 118.915 22.3354 118.871C22.3499 118.886 22.3669 118.903 22.3839 118.92ZM103.786 109.145C103.808 109.099 103.83 109.053 103.852 109.01C103.893 109.039 103.919 109.072 103.941 109.109C103.885 109.118 103.835 109.131 103.786 109.145ZM66.6241 15.823C66.5804 15.8133 66.5367 15.7988 66.5003 15.7698C66.5415 15.7867 66.5828 15.8061 66.6241 15.823ZM45.207 4.83653C45.1924 4.85346 45.1803 4.86798 45.1657 4.88491C45.156 4.84621 45.1657 4.82928 45.207 4.83653ZM2.72001 27.4674C2.72729 27.4843 2.73458 27.5012 2.74186 27.5182C2.72244 27.5206 2.70544 27.5254 2.69087 27.5327C2.70058 27.5109 2.7103 27.4892 2.72001 27.4674ZM2.61802 48.3083C2.48204 48.226 2.47961 48.1777 2.52818 48.0422C2.54517 48.1317 2.57431 48.2212 2.61802 48.3083ZM2.20522 68.8444C2.21008 68.8396 2.21251 68.8347 2.21736 68.8299C2.21979 68.8323 2.21979 68.8347 2.22222 68.8371C2.21736 68.8396 2.21251 68.842 2.20522 68.8444ZM2.53789 75.4189C2.53789 75.4237 2.54032 75.4261 2.54032 75.4309C2.51604 75.4261 2.49418 75.4213 2.4699 75.4092C2.49418 75.414 2.51604 75.4164 2.53789 75.4189Z" fill="#171A36"/>
</svg>
