<svg width="22" height="25" viewBox="0 0 22 25" fill="none" xmlns="http://www.w3.org/2000/svg">
<path d="M21.9215 11.9735C21.7864 11.7035 21.5164 11.3434 21.2913 11.1633C21.2913 11.1633 21.2913 11.1633 21.2463 11.1183C21.2913 10.9382 21.3363 10.8032 21.3813 10.6231C21.4263 10.3531 21.5164 10.128 21.5614 9.85791L21.8765 8.73258C22.1015 8.41749 21.6064 8.23744 21.3363 8.1024C20.8862 7.83231 20.436 7.56223 20.0309 7.24714L19.5808 6.88703L20.8862 5.31157L20.9312 5.26656L21.0212 4.86143L20.5261 3.7361H20.166L20.8412 2.74581L20.8862 2.56576L20.7511 2.07061L20.256 2.25067L20.121 2.3857L19.6258 3.7361H19.1757L18.9956 3.91616L20.391 1.30539V0.945279L19.5808 0L18.4104 0.360104L18.2304 0.6752L18.1854 1.7105C18.0503 1.48544 17.8703 1.30539 17.6902 1.12533C17.4652 0.900266 17.1951 0.855252 16.925 0.720212C16.925 0.720212 16.97 0.720212 16.97 0.765225C16.6999 0.630185 16.3398 0.495144 16.2498 0.135038H16.2048C16.2048 0.135038 16.2048 0.0900252 16.1598 0.0900252C15.8897 0.225065 15.6196 0.360107 15.3045 0.40512C14.8544 0.495147 14.4493 0.54016 13.9991 0.450133C13.8191 0.40512 13.684 0.360106 13.504 0.270079C13.369 0.180053 13.1889 0.180052 13.0539 0.0900252C13.0088 0.225065 12.9188 0.405118 12.8288 0.540158C12.7388 0.720212 12.6487 0.900264 12.5587 1.0353C12.4687 1.21536 12.3336 2.20565 12.2436 3.0609C12.1986 3.28597 12.1086 3.51104 12.0636 3.7361C12.0186 3.69109 11.9735 3.69109 11.9285 3.69109C11.8835 3.69109 11.7935 3.69109 11.7485 3.69109C11.7035 3.69109 11.6584 3.69109 11.6584 3.69109C11.6584 3.69109 11.6134 3.78112 11.6134 3.91616C11.6134 4.0512 11.6585 4.18624 11.7485 4.27626C11.7935 4.32128 11.8385 4.32128 11.8835 4.36629V4.4113C11.8385 4.4113 11.7935 4.4113 11.7485 4.4113C11.7035 4.4113 11.6134 4.45632 11.5684 4.45632C11.5234 4.45632 11.5234 4.45632 11.5234 4.45632C11.4334 4.27626 11.3434 4.14122 11.2083 3.96117C11.2083 3.96117 11.2083 3.91616 11.1633 3.91616C11.1633 3.87114 11.1183 3.87114 11.1183 3.82613C11.0733 3.78112 11.0283 3.69109 10.9832 3.64608C11.0283 3.64608 11.0283 3.64608 11.0733 3.69109C11.1633 3.7361 11.2083 3.7361 11.2533 3.7361H11.2983L11.5234 3.91616C11.5234 3.87114 11.5234 3.78112 11.4784 3.7361C11.5234 3.7361 11.5684 3.69109 11.5684 3.69109C11.5684 3.69109 11.5684 3.69109 11.5684 3.64608C11.6584 3.60106 11.7035 3.55605 11.7485 3.46602C11.8385 3.33098 11.8385 3.24096 11.8385 3.24096C11.8385 3.24096 11.7935 3.24096 11.7485 3.19594C11.7035 3.15093 11.6584 3.15093 11.5684 3.10592C11.5234 3.10592 11.4784 3.0609 11.3884 3.0609C11.3434 3.0609 11.3434 3.0609 11.2983 3.01589C11.3884 3.01589 11.4334 2.97088 11.5234 2.92586C11.6585 2.83584 11.7485 2.65578 11.7935 2.52074C11.8385 2.3857 11.7935 2.25067 11.7935 2.25067C11.7935 2.25067 11.7485 2.25067 11.7035 2.25067C11.6584 2.25067 11.5684 2.25067 11.4784 2.25067C11.3884 2.25067 11.2983 2.29568 11.2533 2.29568C11.1633 2.34069 11.1183 2.38571 11.0733 2.47573C11.0733 2.47573 11.0733 2.47573 11.0733 2.43072C11.0733 2.38571 11.0733 2.3857 11.0733 2.34069C11.0733 2.29568 11.0733 2.25066 11.0733 2.16064C11.0283 2.07061 11.0283 2.0256 11.0283 2.0256C11.0283 2.0256 10.9832 2.07061 10.9382 2.11562C10.8932 2.07061 10.8482 2.0256 10.8482 1.98059L10.9382 1.57547C10.8032 1.57547 10.6682 1.7105 10.6231 1.89056C10.6231 1.84554 10.5781 1.84555 10.5331 1.80053C10.4881 1.75552 10.3981 1.7105 10.3981 1.7105C10.3981 1.7105 10.3531 1.75552 10.308 1.84554C10.218 1.80053 10.038 1.71051 9.99296 1.80053L10.263 2.25067C10.218 2.29568 10.218 2.38571 10.173 2.43072C10.173 2.47573 10.173 2.56576 10.173 2.61077C10.173 2.61077 10.173 2.56576 10.128 2.56576C10.128 2.52074 10.083 2.47573 10.038 2.47573C9.99296 2.43072 9.94794 2.43072 9.94794 2.43072C9.90293 2.43072 9.85792 2.43072 9.8129 2.43072H9.76789C9.72288 2.43072 9.63285 2.43072 9.58784 2.43072L9.67786 2.47573C9.67786 2.52075 9.67786 2.52074 9.72288 2.56576C9.76789 2.65578 9.8129 2.7008 9.85791 2.74581C9.90293 2.74581 9.90293 2.74581 9.94794 2.79082V2.83584C9.76789 2.83584 9.58783 2.92586 9.4528 3.01589C9.54282 3.0609 9.58783 3.15093 9.67786 3.19594C9.72287 3.28597 9.8129 3.376 9.90293 3.42101C9.72287 3.46602 9.63285 3.60107 9.54282 3.78112C9.76789 3.82613 9.94794 3.82613 10.173 3.7361C10.083 3.87114 10.083 3.96117 10.083 4.09621C10.083 4.14122 10.083 4.18624 10.083 4.27626C10.083 4.27626 10.308 4.18624 10.3531 4.18624C10.3981 4.14122 10.4431 4.09621 10.4431 4.0512C10.4881 4.0512 10.4881 4.00619 10.5331 4.00619C10.5331 4.09621 10.5331 4.18624 10.6231 4.27626C10.6231 4.14122 10.7582 4.0512 10.8032 3.96117C10.8032 3.91616 10.8482 3.87114 10.8482 3.82613C10.9382 4.09621 10.9832 4.4113 10.9832 4.7264H7.83232H7.69728L8.4625 3.42101H8.50752C8.50752 3.42101 8.55253 3.42101 8.55253 3.376L8.41749 2.79082V2.97088L8.37248 2.79082L7.92235 2.92586L7.83232 3.0609L7.1121 4.63637L6.79701 4.27626L6.34688 4.54634L6.70698 2.92586V2.88085V2.52074L6.4369 1.80053L5.89675 2.3857L5.85173 2.56576L5.26656 1.17035L5.13152 1.0353L4.7264 0.900266L4.59136 1.3504L4.63637 1.48544L5.71669 3.46602L5.62666 4.09621C5.44661 3.60106 5.31157 3.24096 5.31157 3.19594C5.22155 3.0609 5.13152 2.97088 4.99648 2.88085C4.95147 2.83584 4.95146 2.83584 4.90645 2.79082C4.86144 2.74581 4.81643 2.7008 4.77141 2.65579C4.63637 2.52075 4.50133 2.3857 4.36629 2.29568C4.23125 2.20565 4.09621 2.07061 3.96117 2.0256C3.91616 2.0256 3.91616 2.0256 3.87115 1.98059C3.55605 1.93557 3.15093 1.98059 2.88085 2.20565C2.79083 2.29568 2.74581 2.34069 2.7008 2.47573C2.7008 2.52075 2.7008 2.56576 2.65579 2.61077V2.65579C2.56576 3.01589 2.56576 3.51104 2.61077 3.87114C2.61077 4.00618 2.65579 4.18624 2.65579 4.32128C2.65579 4.27626 2.65579 4.23125 2.65579 4.14122C2.65579 4.18624 2.65579 4.23125 2.65579 4.27626C2.65579 4.27626 2.74581 4.50133 2.83584 4.81642L2.47573 4.27626L2.29568 4.09621L1.98059 4.0512L1.93557 4.4113L1.98059 4.50133L2.92587 5.67168L1.75552 4.86143V4.81642L1.71051 4.77141L1.53045 4.81642H1.48544L1.3504 4.86143L0.945282 4.90645H1.12533L0.945282 4.95146L1.08032 5.53663L1.26037 5.67168L2.56576 6.4369L2.47573 6.61695L2.29568 6.88703L2.34069 7.24714L2.38571 7.33717L2.0256 7.60725C2.07061 7.56224 2.11563 7.51722 2.16064 7.47221C1.93557 7.60725 1.71051 7.69728 1.44043 7.83232C1.26037 7.92234 0.540162 8.37248 0.495149 8.50752C0.495149 8.59754 1.17035 9.76789 1.57547 10.5331L0.270083 10.6682C0.270083 10.6682 0.27008 10.7132 0.225067 10.7132C0.13504 10.8482 0.0900266 10.9832 0 11.0733C0 11.1183 0 11.1633 0 11.1633C0.0900266 11.9735 0.225069 12.7388 0.270083 13.549C0.630189 14.3592 1.03531 15.1695 1.03531 15.1695L3.69109 18.0053L4.0512 18.3654L4.27626 18.5905L6.57195 20.1209L7.65226 20.4811C7.65226 20.4811 7.92234 20.5711 8.32746 20.9312C8.4625 21.0662 8.59754 21.1563 8.73258 21.2913L8.7776 21.3363C9.04768 21.5164 9.31776 21.6964 9.58784 21.9215C9.58784 21.9215 9.58784 21.9215 9.63285 21.9665C9.76789 22.0565 9.90293 22.1465 9.99296 22.1916C9.99296 22.1916 10.038 22.1916 10.038 22.2366C10.083 22.2816 10.128 22.2816 10.173 22.3266C10.218 22.3266 10.263 22.3716 10.263 22.3716C10.308 22.4166 10.3531 22.4166 10.3981 22.4616C10.4431 22.4616 10.4431 22.5066 10.4881 22.5066C10.5331 22.5517 10.5781 22.5517 10.6231 22.5967L10.6682 22.6417C10.7132 22.6867 10.7582 22.6867 10.8032 22.7317C10.8032 22.7317 10.8482 22.7317 10.8482 22.7767C10.8932 22.8217 10.9382 22.8217 10.9832 22.8668C10.9832 22.8668 10.9832 22.8668 11.0283 22.8668C11.0733 22.8668 11.1183 22.9118 11.1183 22.9118C11.1633 22.9568 11.2083 22.9568 11.2083 22.9568L11.1183 23.632L12.2886 23.9921L12.4237 24.0371C12.4237 24.0371 12.4237 24.0821 12.4687 24.0821H12.5137C12.6037 24.0821 12.7388 24.0371 12.7838 23.9471C13.0539 23.767 13.2789 23.542 13.504 23.3169C13.9991 22.8668 14.4943 22.4616 14.9894 22.0115C15.2145 21.8315 15.4396 21.6064 15.6646 21.4263C15.8447 21.2463 16.0247 21.1112 16.1148 20.8862C16.2498 20.5711 16.3398 20.391 16.6549 20.211C16.925 20.0759 17.2401 19.9859 17.5552 19.9859C17.6002 19.9859 17.6452 19.9409 17.6902 19.8959C17.8703 19.4007 17.9153 18.8606 18.3204 18.4555C18.5005 18.2754 18.7706 18.1854 19.0406 18.0953C19.2657 18.0053 19.5358 17.9153 19.7608 17.8253C20.166 17.6002 20.301 17.3301 20.391 16.925C20.5261 16.4749 20.8862 16.1148 21.1112 15.6196C21.2913 15.3045 21.4713 14.9444 21.5164 14.6293C21.5164 14.5393 21.5614 14.4493 21.5614 14.3142C21.6064 14.1342 21.6064 13.9541 21.6514 13.7741C21.6964 13.414 21.7864 13.0088 21.8315 12.6487C22.0115 12.3787 22.0565 12.1536 21.9215 11.9735Z" fill="url(#paint0_linear_294_6983)"/>
<defs>
<linearGradient id="paint0_linear_294_6983" x1="11" y1="0" x2="11" y2="24.0821" gradientUnits="userSpaceOnUse">
<stop stop-color="#4FD4D3"/>
<stop offset="1" stop-color="#5650D8"/>
</linearGradient>
</defs>
</svg>
