<svg width="56" height="56" viewBox="0 0 56 56" fill="none" xmlns="http://www.w3.org/2000/svg">
<path d="M0 8C0 3.58172 3.58172 0 8 0H48C52.4183 0 56 3.58172 56 8V48C56 52.4183 52.4183 56 48 56H8C3.58172 56 0 52.4183 0 48V8Z" fill="url(#paint0_linear_134_1602)"/>
<path d="M26.3333 41.3334H16.3333C14.4924 41.3334 13 39.841 13 38.0001C13 36.1591 14.4924 34.6667 16.3333 34.6667M26.3333 41.3334C28.1743 41.3334 29.6667 39.841 29.6667 38.0001C29.6667 36.1591 28.1743 34.6667 26.3333 34.6667M26.3333 41.3334H39.6667C41.5076 41.3334 43 39.841 43 38.0001C43 36.1591 41.5076 34.6667 39.6667 34.6667M26.3333 34.6667H16.3333M26.3333 34.6667H39.6667M26.3333 34.6667C28.1743 34.6667 29.6667 33.1744 29.6667 31.3334C29.6667 29.4925 28.1743 28.0001 26.3333 28.0001M16.3333 34.6667C14.4924 34.6667 13 33.1744 13 31.3334C13 29.4925 14.4924 28.0001 16.3333 28.0001M39.6667 34.6667C41.5076 34.6667 43 33.1744 43 31.3334C43 29.4925 41.5076 28.0001 39.6667 28.0001M26.3333 28.0001H39.6667M26.3333 28.0001H16.3333M26.3333 28.0001C28.1743 28.0001 29.6667 26.5077 29.6667 24.6667C29.6667 22.8258 28.1743 21.3334 26.3333 21.3334M39.6667 28.0001C41.5076 28.0001 43 26.5077 43 24.6667C43 22.8258 41.5076 21.3334 39.6667 21.3334H26.3333M26.3333 21.3334H16.3333M26.3333 21.3334C28.1743 21.3334 29.6667 19.841 29.6667 18.0001C29.6667 16.1591 28.1743 14.6667 26.3333 14.6667H16.3333C14.4924 14.6667 13 16.1591 13 18.0001C13 19.841 14.4924 21.3334 16.3333 21.3334M16.3333 28.0001C14.4924 28.0001 13 26.5077 13 24.6667C13 22.8258 14.4924 21.3334 16.3333 21.3334" stroke="#F7F7FC" stroke-width="2" stroke-linecap="round" stroke-linejoin="round"/>
<defs>
<linearGradient id="paint0_linear_134_1602" x1="1.49732e-06" y1="52" x2="56" y2="-1.56947e-06" gradientUnits="userSpaceOnUse">
<stop stop-color="#9610FF"/>
<stop offset="1" stop-color="#B14DFF" stop-opacity="0"/>
</linearGradient>
</defs>
</svg>
