<svg width="56" height="56" viewBox="0 0 56 56" fill="none" xmlns="http://www.w3.org/2000/svg">
<path d="M0 8C0 3.58172 3.58172 0 8 0H48C52.4183 0 56 3.58172 56 8V48C56 52.4183 52.4183 56 48 56H8C3.58172 56 0 52.4183 0 48V8Z" fill="url(#paint0_linear_134_1596)"/>
<path d="M31 25H31.01M25.0007 24.9998H25.0107M23.9993 29.9995C23.9993 29.9995 25.4993 31.9995 27.9993 31.9995C30.4993 31.9995 31.9993 29.9995 31.9993 29.9995M36.3333 13H39.6667C41.5076 13 43 14.4924 43 16.3333V19.6667M43 36.3333V39.6667C43 41.5076 41.5076 43 39.6667 43H36.3333M19.6667 43H16.3333C14.4924 43 13 41.5076 13 39.6667V36.3333M13 19.6667V16.3333C13 14.4924 14.4924 13 16.3333 13H19.6667M31.5 25C31.5 25.2761 31.2761 25.5 31 25.5C30.7239 25.5 30.5 25.2761 30.5 25C30.5 24.7239 30.7239 24.5 31 24.5C31.2761 24.5 31.5 24.7239 31.5 25ZM25.5007 24.9998C25.5007 25.276 25.2768 25.4998 25.0007 25.4998C24.7245 25.4998 24.5007 25.276 24.5007 24.9998C24.5007 24.7237 24.7245 24.4998 25.0007 24.4998C25.2768 24.4998 25.5007 24.7237 25.5007 24.9998ZM38 28C38 33.5228 33.5228 38 28 38C22.4772 38 18 33.5228 18 28C18 22.4772 22.4772 18 28 18C33.5228 18 38 22.4772 38 28Z" stroke="#F7F7FC" stroke-width="2" stroke-linecap="round" stroke-linejoin="round"/>
<defs>
<linearGradient id="paint0_linear_134_1596" x1="1.49732e-06" y1="52" x2="56" y2="-1.56947e-06" gradientUnits="userSpaceOnUse">
<stop stop-color="#9610FF"/>
<stop offset="1" stop-color="#B14DFF" stop-opacity="0"/>
</linearGradient>
</defs>
</svg>
