<svg width="35" height="35" viewBox="0 0 35 35" fill="none" xmlns="http://www.w3.org/2000/svg">
<path d="M15.3437 0C14.2785 -9.85929e-08 13.2569 0.42316 12.5037 1.17639L0.672185 13.0081C0.224056 13.4563 -3.66886e-06 14.0436 0 14.631C3.66895e-06 15.2183 0.224071 15.8057 0.672198 16.2538L8.42577 24.0074V10.2807C8.42577 9.25635 9.2497 8.42591 10.2741 8.42591C14.602 8.42591 25.1367 8.42591 26.5735 8.42591L34.9993 0.000119412L15.3437 0Z" fill="#4A21EF"/>
<path d="M8.42674 26.5737H24.7197C25.7441 26.5737 26.5745 25.7433 26.5745 24.7189V10.9922L34.3282 18.7458C34.7762 19.194 35.0003 19.7813 35.0003 20.3687C35.0003 20.956 34.7762 21.5434 34.3282 21.9914L22.4966 33.8233C21.7434 34.5765 20.7219 34.9996 19.6566 34.9996L0.000976562 34.9995L8.42674 26.5737Z" fill="#4A21EF"/>
</svg>
