<svg width="20" height="20" viewBox="0 0 20 20" fill="none" xmlns="http://www.w3.org/2000/svg">
<g id="Group 1261157789">
<g id="Group 1000002295">
<rect id="Rectangle 1366" width="20" height="20" rx="10" fill="url(#paint0_linear_2515_908)"/>
</g>
<g id="Group 1000002388">
<path id="Vector" d="M5.19278 10.1625L5.20062 13.0386L7.64446 14.4767V16.1605L3.7704 13.8884V9.32146L5.19278 10.1625ZM5.19278 7.28638V8.96238L3.76953 8.12046V6.44446L5.19278 5.60254L6.623 6.44446L5.19278 7.28638ZM8.66505 6.44446L10.0883 5.60254L11.5185 6.44446L10.0883 7.28638L8.66505 6.44446Z" fill="white"/>
<path id="Vector_2" d="M6.22266 12.4425V10.7586L7.6459 11.6006V13.2766L6.22266 12.4425ZM8.66649 15.0798L10.0897 15.9217L11.52 15.0798V16.7558L10.0897 17.5977L8.66649 16.7558V15.0798ZM13.5611 6.44446L14.9844 5.60254L16.4146 6.44446V8.12046L14.9844 8.96238V7.28638L13.5611 6.44446ZM14.9844 13.0386L14.9922 10.1625L16.4155 9.32058V13.8875L12.5414 16.1597V14.4758L14.9844 13.0386Z" fill="white"/>
<path id="Vector_3" d="M13.9623 12.4419L12.5391 13.276V11.6L13.9623 10.7581V12.4419Z" fill="white"/>
<path id="Vector_4" d="M13.9638 7.88229L13.9716 9.56613L11.5208 11.0042V13.8873L10.0976 14.7214L8.67433 13.8873V11.0042L6.22353 9.56613V7.88229L7.65287 7.04037L10.0889 8.4854L12.5397 7.04037L13.9699 7.88229H13.9638ZM6.22266 5.00703L10.0897 2.72705L13.9638 5.00703L12.5405 5.84895L10.0897 4.40392L7.6459 5.84895L6.22266 5.00703Z" fill="white"/>
</g>
</g>
<defs>
<linearGradient id="paint0_linear_2515_908" x1="20" y1="20" x2="0" y2="0" gradientUnits="userSpaceOnUse">
<stop stop-color="#D1A000"/>
<stop offset="1" stop-color="#FFD632"/>
</linearGradient>
</defs>
</svg>
