<svg width="8" height="8" viewBox="0 0 8 8" fill="none" xmlns="http://www.w3.org/2000/svg">
<g id="Group 1261154464">
<g id="Group 1000002315">
<g id="Group 1000002295">
<rect id="Rectangle 1366" width="8" height="8" rx="4" fill="url(#paint0_linear_2288_12298)"/>
</g>
<path id="Vector" fill-rule="evenodd" clip-rule="evenodd" d="M2.91546 5.77734H2.18174C2.02757 5.77734 1.95141 5.77734 1.90497 5.74667C1.85482 5.71308 1.82417 5.65745 1.82046 5.59604C1.81767 5.53947 1.85575 5.47038 1.93191 5.33225L3.74356 2.03418C3.82065 1.89413 3.85965 1.8241 3.90887 1.79821C3.96181 1.77039 4.02497 1.77039 4.07791 1.79821C4.12714 1.8241 4.16615 1.89413 4.24323 2.03418L4.61567 2.70565L4.61757 2.70908C4.70083 2.85932 4.74305 2.93551 4.76148 3.01548C4.78191 3.10277 4.78191 3.19486 4.76148 3.28215C4.74291 3.36273 4.70111 3.43947 4.61659 3.59199L3.66498 5.32938L3.66252 5.33383C3.57871 5.48531 3.53623 5.56209 3.47737 5.62001C3.41328 5.68334 3.3362 5.72935 3.25168 5.7553C3.17459 5.77734 3.08822 5.77734 2.91546 5.77734ZM4.76835 5.77734H5.81969C5.9748 5.77734 6.05283 5.77734 6.09929 5.74573C6.14943 5.71214 6.181 5.65552 6.18382 5.59417C6.18648 5.53942 6.14923 5.47302 6.07623 5.34292C6.07372 5.33849 6.0712 5.33398 6.06863 5.3294L5.54201 4.39894L5.53602 4.38846C5.46201 4.25921 5.42466 4.19395 5.37668 4.16872C5.32378 4.1409 5.2615 4.1409 5.20859 4.16872C5.16029 4.19462 5.12129 4.26272 5.0442 4.39989L4.51944 5.33036L4.51765 5.33356C4.44083 5.47051 4.40244 5.53895 4.40521 5.59511C4.40892 5.65651 4.43957 5.71308 4.48972 5.74667C4.53524 5.77734 4.61325 5.77734 4.76835 5.77734Z" fill="white"/>
</g>
</g>
<defs>
<linearGradient id="paint0_linear_2288_12298" x1="8" y1="8" x2="0" y2="0" gradientUnits="userSpaceOnUse">
<stop stop-color="#D91D1E"/>
<stop offset="1" stop-color="#FF7576"/>
</linearGradient>
</defs>
</svg>
