<svg width="8" height="8" viewBox="0 0 8 8" fill="none" xmlns="http://www.w3.org/2000/svg">
<g id="Group 1261153184">
<g id="Group 1000002295">
<rect id="Rectangle 1366" width="8" height="8" rx="4" fill="url(#paint0_linear_2288_12286)"/>
</g>
<g id="Group 1000002388">
<path id="Vector" d="M2.0693 4.06422L2.07244 5.21467L3.04997 5.7899V6.46343L1.50035 5.55458V3.7278L2.0693 4.06422ZM2.0693 2.91377V3.58417L1.5 3.2474V2.577L2.0693 2.24023L2.64139 2.577L2.0693 2.91377ZM3.45821 2.577L4.0275 2.24023L4.59959 2.577L4.0275 2.91377L3.45821 2.577Z" fill="white"/>
<path id="Vector_2" d="M2.48438 4.97621V4.30268L3.05367 4.63945V5.30984L2.48438 4.97621ZM3.46191 6.03114L4.03121 6.36791L4.60329 6.03114V6.70154L4.03121 7.03831L3.46191 6.70154V6.03114ZM5.41977 2.577L5.98906 2.24023L6.56115 2.577V3.2474L5.98906 3.58417V2.91377L5.41977 2.577ZM5.98906 5.21467L5.9922 4.06422L6.5615 3.72745V5.55423L5.01188 6.46308V5.78955L5.98906 5.21467Z" fill="white"/>
<path id="Vector_3" d="M5.57711 4.97627L5.00781 5.3099V4.6395L5.57711 4.30273V4.97627Z" fill="white"/>
<path id="Vector_4" d="M5.58083 3.15194L5.58397 3.82547L4.60364 4.4007V5.55394L4.03434 5.88757L3.46505 5.55394V4.4007L2.48472 3.82547V3.15194L3.05646 2.81517L4.03086 3.39318L5.01118 2.81517L5.58327 3.15194H5.58083ZM2.48438 2.00184L4.03121 1.08984L5.58083 2.00184L5.01153 2.3386L4.03121 1.76059L3.05367 2.3386L2.48438 2.00184Z" fill="white"/>
</g>
</g>
<defs>
<linearGradient id="paint0_linear_2288_12286" x1="8" y1="8" x2="0" y2="0" gradientUnits="userSpaceOnUse">
<stop stop-color="#D1A000"/>
<stop offset="1" stop-color="#FFD632"/>
</linearGradient>
</defs>
</svg>
