<svg width="16" height="16" viewBox="0 0 16 16" fill="none" xmlns="http://www.w3.org/2000/svg">
<g id="Group 1261154317">
<g id="dypius_icon_purple_text_purple">
<g id="Group 1000010408">
<circle id="Ellipse 260" cx="8" cy="8" r="8" fill="url(#paint0_linear_2299_7537)"/>
<g id="Group 1000010406">
<g id="Group 1000010398">
<path id="Vector" d="M3.05505 8.02944L6.25452 10.4075C6.25959 10.4075 6.25959 10.4126 6.26466 10.4126L7.45115 11.2911C7.55256 11.3668 7.69454 11.2961 7.69454 11.1699L7.69961 4.62138C7.68947 4.50525 7.67426 4.38408 7.6489 4.26795C7.62355 4.15687 7.58806 4.05084 7.53735 3.95996C7.62355 4.60118 7.25848 5.34843 6.63988 5.83818C6.50298 5.94926 6.31537 6.07043 6.10748 6.15627C5.88438 6.2522 5.21 6.48445 5.21 6.48445L3.17674 7.21655C2.82688 7.34278 2.75589 7.80728 3.05505 8.02944Z" fill="white"/>
<path id="Vector_2" d="M6.2301 6.10096C6.23517 6.09591 6.24531 6.09591 6.25039 6.09086C6.26053 6.08581 6.27067 6.08076 6.28588 6.07066C6.30109 6.06562 6.31123 6.05552 6.32644 6.05047C6.33151 6.04542 6.34165 6.04037 6.34672 6.04037C6.36194 6.03027 6.38222 6.02017 6.39743 6.01008C6.4025 6.00503 6.40757 6.00503 6.41264 5.99998C6.42785 5.98988 6.44306 5.97978 6.46335 5.96969C6.47349 5.96464 6.47856 5.95959 6.4887 5.95454C6.49884 5.94444 6.51405 5.93939 6.52419 5.92929C6.5394 5.9192 6.55461 5.90405 6.5749 5.89395C6.57997 5.89395 6.57997 5.8889 6.58504 5.8889C6.60532 5.87375 6.6256 5.85861 6.64588 5.84346C7.26448 5.35371 7.62956 4.60646 7.54336 3.96524C7.50786 3.90465 7.46223 3.84911 7.41153 3.80872L6.35687 3.03118C6.25546 2.95544 6.10841 3.02613 6.10841 3.15235V4.98513C6.10841 6.1363 5.21094 6.48468 5.21094 6.48468C5.21094 6.48468 5.89038 6.25748 6.10841 6.16155C6.14898 6.14135 6.18954 6.12115 6.2301 6.10096Z" fill="#F2EEFF"/>
</g>
<g id="Group 1000010399">
<path id="Vector_3" d="M12.8768 7.90316L9.67531 5.5251C9.67023 5.5251 9.67023 5.52005 9.66516 5.52005L8.47791 4.64153C8.37644 4.5658 8.23438 4.63648 8.23438 4.76271V11.3112C8.24452 11.4273 8.25974 11.5485 8.28511 11.6646C8.31048 11.7757 8.346 11.8818 8.39673 11.9726C8.31048 11.3314 8.67579 10.5842 9.29478 10.0944C9.43177 9.98334 9.6195 9.86216 9.82752 9.77633C10.0457 9.6804 10.7256 9.4532 10.7256 9.4532L12.7601 8.7211C13.1102 8.58982 13.1762 8.12532 12.8768 7.90316Z" fill="white"/>
<path id="Vector_4" d="M9.70944 9.83196C9.70436 9.83701 9.69422 9.83701 9.68914 9.84206C9.679 9.84711 9.66885 9.85216 9.65363 9.86226C9.6384 9.86731 9.62826 9.8774 9.61304 9.88245C9.60796 9.8875 9.59782 9.89255 9.59274 9.89255C9.57752 9.90265 9.55723 9.91275 9.542 9.92285C9.53693 9.92789 9.53186 9.92789 9.52678 9.93294C9.51156 9.94304 9.49634 9.95314 9.47605 9.96324C9.4659 9.96829 9.46083 9.97334 9.45068 9.97838C9.44053 9.98848 9.42531 9.99353 9.41516 10.0036C9.39994 10.0137 9.38472 10.0289 9.36442 10.039C9.35935 10.039 9.35935 10.044 9.35428 10.044C9.33398 10.0592 9.31369 10.0743 9.29339 10.0895C8.6744 10.5792 8.30909 11.3265 8.39535 11.9677C8.43086 12.0283 8.47653 12.0838 8.52726 12.1242L9.57752 12.9017C9.67899 12.9775 9.82613 12.9068 9.82613 12.7806V10.9478C9.82613 9.80167 10.7242 9.44824 10.7242 9.44824C10.7242 9.44824 10.0443 9.67545 9.82613 9.77138C9.79062 9.79157 9.75003 9.81177 9.70944 9.83196Z" fill="#F2EEFF"/>
</g>
</g>
</g>
</g>
</g>
<defs>
<linearGradient id="paint0_linear_2299_7537" x1="8" y1="0" x2="8" y2="16" gradientUnits="userSpaceOnUse">
<stop stop-color="#7770E0"/>
<stop offset="1" stop-color="#554FD8"/>
</linearGradient>
</defs>
</svg>
