<svg width="21" height="24" viewBox="0 0 21 24" fill="none" xmlns="http://www.w3.org/2000/svg">
<path fill-rule="evenodd" clip-rule="evenodd" d="M18.8049 0H1.87921C0.507089 0 0 0.507089 0 1.87921V18.4427C0 18.5961 0.00426125 18.741 0.0213063 18.8773C0.051135 19.1756 0.0596579 19.4654 0.336639 19.7978C0.362207 19.8319 0.64771 20.0407 0.64771 20.0407C0.801115 20.1174 0.903385 20.1728 1.0781 20.2409L9.4131 23.7309C9.84775 23.9312 10.0267 24.0079 10.3421 23.9994C10.6574 24.0036 10.8364 23.9269 11.271 23.7309L19.606 20.2409C19.7807 20.1728 19.883 20.1174 20.0364 20.0407C20.0364 20.0407 20.3219 19.8276 20.3475 19.7978C20.6245 19.4654 20.633 19.1756 20.6628 18.8773C20.6756 18.7452 20.6841 18.6004 20.6841 18.4427V1.87921C20.6841 0.507089 20.177 0 18.8049 0Z" fill="white"/>
<path d="M4.45859 8.3441H6.10344V7.06573H4.45859V4.46636H6.17162V3.18799H3.05664V12.3923H6.19718V11.1182H4.45859V8.3441Z" fill="#3D3935"/>
<path d="M16.26 8.61589V10.6911C16.26 11.0576 16.0896 11.228 15.7359 11.228H15.476C15.1095 11.228 14.9391 11.0576 14.9391 10.6911V4.88303C14.9391 4.51656 15.1095 4.34611 15.476 4.34611H15.7103C16.064 4.34611 16.2345 4.51656 16.2345 4.88303V6.68554H17.6066V4.80633C17.6066 3.66431 17.0569 3.11035 15.9191 3.11035H15.2373C14.0996 3.11035 13.5371 3.6771 13.5371 4.81911V10.7593C13.5371 11.9013 14.0996 12.4681 15.2373 12.4681H15.9319C17.0697 12.4681 17.6322 11.9013 17.6322 10.7593V8.61589H16.26Z" fill="#3D3935"/>
<path d="M12.8082 3.18799H11.4062V12.3923H12.8082V3.18799Z" fill="#3D3935"/>
<path d="M9.06795 3.18799H6.86914V12.3923H8.26683V9.05147H9.06369C10.2014 9.05147 10.7639 8.48472 10.7639 7.34271V4.89675C10.7682 3.75474 10.2057 3.18799 9.06795 3.18799ZM9.3705 7.27879C9.3705 7.64526 9.20004 7.81997 8.84636 7.81997H8.27109V4.42801H8.84636C9.20004 4.42801 9.3705 4.59846 9.3705 4.96493V7.27879Z" fill="#3D3935"/>
<path fill-rule="evenodd" clip-rule="evenodd" d="M6.36133 20.709H14.3767L10.2859 22.0598L6.36133 20.709Z" fill="#3D3935"/>
<path d="M19.3691 23.2751C19.3691 22.8873 19.6632 22.5933 20.0296 22.5933C20.4004 22.5933 20.6901 22.8873 20.6901 23.2751C20.6901 23.6628 20.3961 23.9569 20.0296 23.9569C19.6632 23.9569 19.3691 23.6628 19.3691 23.2751ZM20.5708 23.2751C20.5708 22.9555 20.3322 22.7083 20.0296 22.7083C19.7271 22.7083 19.4885 22.9555 19.4885 23.2751C19.4885 23.5947 19.7271 23.8418 20.0296 23.8418C20.3322 23.8418 20.5708 23.5947 20.5708 23.2751ZM19.7612 22.9214H20.0765C20.2299 22.9214 20.3237 23.0023 20.3237 23.1344C20.3237 23.2538 20.2555 23.3305 20.1575 23.3518L20.3237 23.5733V23.6202H20.2129L20.0254 23.3645H19.8848V23.6202H19.7654V22.9214H19.7612ZM20.0765 23.2623C20.1532 23.2623 20.2086 23.2239 20.2086 23.1472C20.2086 23.0705 20.1532 23.0364 20.0765 23.0364H19.8805V23.2623H20.0765Z" fill="white"/>
<path d="M4.50298 17.4709C4.28565 17.4709 4.08538 17.4368 3.90214 17.3644C3.71891 17.2919 3.55698 17.1939 3.42488 17.0661C3.29278 16.9382 3.18199 16.7848 3.10529 16.6101C3.02859 16.4354 2.99023 16.2394 2.99023 16.0306V16.0221C2.99023 15.8175 3.02859 15.6258 3.10529 15.4511C3.18199 15.2763 3.28426 15.1229 3.41636 14.9908C3.54846 14.8587 3.70612 14.7565 3.88936 14.684C4.07259 14.6116 4.27287 14.5732 4.48593 14.5732C4.73309 14.5732 4.94615 14.6073 5.12512 14.6798C5.30409 14.7522 5.46602 14.8502 5.61517 14.9781L5.16347 15.5235C5.0612 15.4383 4.95893 15.3744 4.85666 15.3275C4.75013 15.2806 4.63082 15.2593 4.49446 15.2593C4.39219 15.2593 4.29844 15.2806 4.21321 15.319C4.12799 15.3573 4.05129 15.4127 3.98737 15.4809C3.92345 15.5491 3.87231 15.63 3.83822 15.7238C3.79987 15.8175 3.78283 15.9155 3.78283 16.0221V16.0306C3.78283 16.1414 3.79987 16.2437 3.83822 16.3417C3.87658 16.4354 3.92771 16.5206 3.99589 16.5888C4.06407 16.657 4.14077 16.7081 4.23452 16.7465C4.32401 16.7848 4.42628 16.8061 4.53707 16.8061C4.71604 16.8061 4.86519 16.7678 4.98024 16.6911V16.3544H4.43054V15.7877H5.70891V17.0448C5.55977 17.1683 5.38506 17.2706 5.18478 17.3516C4.9845 17.4325 4.75865 17.4709 4.50298 17.4709Z" fill="#3D3935"/>
<path d="M7.14006 14.6025H7.88152L9.06615 17.4107H8.23946L8.03492 16.9121H6.96109L6.76081 17.4107H5.95117L7.14006 14.6025ZM7.81334 16.3156L7.50227 15.523L7.18693 16.3156H7.81334Z" fill="#3D3935"/>
<path d="M9.33594 14.6245H10.1498L10.8146 15.7026L11.4793 14.6245H12.2932V17.4156H11.5262V15.8134L10.8146 16.9043H10.7975L10.0902 15.8219V17.4156H9.33594V14.6245Z" fill="#3D3935"/>
<path d="M12.8066 14.6245H15.0438V15.2807H13.5694V15.7026H14.9032V16.312H13.5694V16.7551H15.0608V17.4114H12.8066V14.6245Z" fill="#3D3935"/>
<path d="M16.5673 17.4661C16.3201 17.4661 16.0815 17.4277 15.8599 17.351C15.6383 17.2743 15.438 17.1592 15.2676 17.0058L15.698 16.4902C15.9749 16.7118 16.2775 16.8269 16.6013 16.8269C16.7036 16.8269 16.7846 16.8098 16.8357 16.7757C16.8911 16.7416 16.9167 16.6948 16.9167 16.6351V16.6223C16.9167 16.5925 16.9082 16.5669 16.8954 16.5456C16.8826 16.5243 16.857 16.503 16.8229 16.4817C16.7888 16.4604 16.7377 16.4391 16.6781 16.422C16.6184 16.4007 16.5417 16.3837 16.4437 16.3624C16.2945 16.3283 16.1582 16.2899 16.0303 16.2473C15.9025 16.2047 15.7917 16.1536 15.698 16.0897C15.6042 16.0258 15.5318 15.9448 15.4764 15.8468C15.421 15.7488 15.3954 15.6295 15.3954 15.4846V15.4718C15.3954 15.3397 15.421 15.2204 15.4679 15.1138C15.5147 15.0031 15.5872 14.9093 15.6809 14.8326C15.7747 14.7516 15.8897 14.692 16.0218 14.6494C16.1539 14.6068 16.3031 14.5854 16.4693 14.5854C16.7079 14.5854 16.9209 14.6153 17.1084 14.6792C17.2959 14.7431 17.4621 14.8326 17.6155 14.9562L17.232 15.5016C17.1042 15.4121 16.9763 15.344 16.84 15.2971C16.7079 15.2502 16.5758 15.2289 16.4522 15.2289C16.3585 15.2289 16.2903 15.2459 16.2434 15.28C16.1965 15.3141 16.1752 15.3567 16.1752 15.4079V15.4164C16.1752 15.4462 16.1837 15.4761 16.1965 15.5016C16.2093 15.5272 16.2349 15.5485 16.2732 15.5655C16.3073 15.5868 16.3585 15.6039 16.4181 15.6252C16.482 15.6465 16.5587 15.6678 16.6525 15.6849C16.8102 15.7189 16.955 15.7616 17.0829 15.8084C17.2107 15.8553 17.3215 15.9107 17.411 15.9789C17.5005 16.0471 17.5687 16.1238 17.6155 16.2218C17.6624 16.3155 17.688 16.4263 17.688 16.5584V16.5669C17.688 16.7118 17.6624 16.8397 17.607 16.9504C17.5516 17.0612 17.4749 17.155 17.3769 17.2359C17.2789 17.3127 17.1596 17.3723 17.0232 17.4149C16.8911 17.4447 16.7377 17.4661 16.5673 17.4661Z" fill="#3D3935"/>
</svg>
