<svg width="48" height="46" viewBox="0 0 48 46" fill="none" xmlns="http://www.w3.org/2000/svg">
<g id="Asset 2mdpi 1" clip-path="url(#clip0_2314_11999)">
<g id="Group">
<g id="Layer 2">
<g id="game rank icon">
<path id="Vector" d="M9.4375 26.1055V37.3041L14.634 34.1807L14.8961 26.3886L9.4375 26.1055Z" fill="url(#paint0_linear_2314_11999)"/>
<path id="Vector_2" d="M9.4375 35.2203L14.6711 32.5146L14.634 33.4823L9.4375 36.6056V35.2203Z" fill="url(#paint1_linear_2314_11999)"/>
<g id="Vector_3" style="mix-blend-mode:multiply" opacity="0.5">
<path d="M9.57199 31.0637C9.87576 29.8571 10.4856 30.6971 10.4856 32.4119C10.4856 34.1267 10.27 36.8046 10.27 36.8046L10.7337 36.4658C10.7337 36.4658 10.7036 32.0313 10.9355 31.4976C11.1674 30.9639 12.4172 31.1403 12.4172 35.512L14.634 34.1801L14.8937 26.388L9.4375 26.1025V32.2541L9.57199 31.0637Z" fill="#912774"/>
</g>
<path id="Vector_4" d="M37.9172 26.1055V37.3041L32.7206 34.1807L32.4609 26.3886L37.9172 26.1055Z" fill="url(#paint2_linear_2314_11999)"/>
<path id="Vector_5" d="M37.9211 35.2203L32.6875 32.5146L32.7246 33.4823L37.9211 36.6056V35.2203Z" fill="url(#paint3_linear_2314_11999)"/>
<g id="Vector_6" style="mix-blend-mode:multiply" opacity="0.5">
<path d="M37.7943 31.0637C37.4905 29.8571 36.8806 30.6971 36.8806 32.4119C36.8806 34.1267 37.0963 36.8046 37.0963 36.8046L36.6325 36.4658C36.6325 36.4658 36.6627 32.0313 36.4308 31.4976C36.1989 30.9639 34.9491 31.1403 34.9491 35.512L32.7322 34.1801L32.4609 26.388L37.9172 26.1025V32.2541L37.7943 31.0637Z" fill="#912774"/>
</g>
<path id="Vector_7" d="M22.3263 34.2452V45.2187C19.015 43.4668 14.0156 38.3594 14.0156 38.3594V30.7715L22.3263 34.2452Z" fill="url(#paint4_linear_2314_11999)"/>
<path id="Vector_8" d="M22.3263 42.3117V44.5208C19.015 42.7688 14.0156 37.6614 14.0156 37.6614V35.7656C15.1681 37.2368 17.6237 39.7336 22.3263 42.3117Z" fill="url(#paint5_linear_2314_11999)"/>
<path id="Vector_9" d="M25.1484 34.2452V45.2187C28.4621 43.4668 33.4592 38.3594 33.4592 38.3594V30.7715L25.1484 34.2452Z" fill="url(#paint6_linear_2314_11999)"/>
<path id="Vector_10" d="M25.1484 42.3117V44.5208C28.4621 42.7688 33.4592 37.6614 33.4592 37.6614V35.7656C32.3067 37.2368 29.8626 39.7336 25.1484 42.3117Z" fill="url(#paint7_linear_2314_11999)"/>
<g id="Vector_11" style="mix-blend-mode:multiply" opacity="0.5">
<path d="M14.7945 39.1323C14.7945 39.1323 14.7157 34.0945 15.4902 34.1804C16.2647 34.2662 17.6281 35.0668 17.9249 35.9811C18.2218 36.8953 18.136 42.1999 18.136 42.1999L18.4328 42.4459C18.4328 42.4459 18.0641 36.0043 18.6647 36.3199C19.2652 36.6354 20.0931 37.2248 20.3783 38.6635C20.6635 40.1022 20.747 44.286 20.747 44.286L22.3029 45.2142V34.2454L13.9922 30.7646V38.3526L14.7945 39.1323Z" fill="#912774"/>
</g>
<g id="Vector_12" style="mix-blend-mode:multiply" opacity="0.5">
<path d="M32.6815 39.1323C32.6815 39.1323 32.7464 33.229 31.9603 33.3148C31.1742 33.4007 31.1418 36.3895 31.1418 37.3037C31.1418 38.2644 31.0166 40.7079 31.0166 40.7079L30.5713 41.1093C30.5713 41.1093 30.6386 34.3985 30.0241 34.7141C29.4096 35.0297 26.7267 37.1065 26.4345 38.5452C26.1424 39.9839 26.256 44.5506 26.256 44.5506L25.1406 45.2189V34.2454L33.4513 30.7646V38.3526L32.6815 39.1323Z" fill="#912774"/>
</g>
<path id="Vector_13" d="M27.0859 17.5265L45.3352 17.4082L43.6309 20.4735L28.0227 20.9052L27.0859 17.5265Z" fill="url(#paint8_linear_2314_11999)"/>
<path id="Vector_14" d="M43.7047 17.4082L41.5923 17.4221L39.7812 20.5594L41.954 20.4991L43.7047 17.4082Z" fill="url(#paint9_linear_2314_11999)"/>
<path id="Vector_15" style="mix-blend-mode:multiply" opacity="0.5" d="M27.8906 19.9468L44.1341 19.5732L43.6332 20.4736L28.0251 20.9052L27.8906 19.9468Z" fill="url(#paint10_linear_2314_11999)"/>
<g id="Vector_16" style="mix-blend-mode:soft-light" opacity="0.5">
<path d="M37.4332 17.6825C37.2964 17.831 37.9294 19.4275 38.1891 19.3787C38.4488 19.33 43.7196 19.4252 43.9561 19.2627C44.1926 19.1003 45.0761 17.7567 44.8836 17.5943C44.6912 17.4319 37.563 17.5386 37.4332 17.6825Z" fill="white"/>
</g>
<path id="Vector_17" style="mix-blend-mode:multiply" opacity="0.5" d="M37.0679 17.4502C37.0679 17.4502 37.7636 19.3066 37.7798 19.7196C37.7669 20.0445 37.6796 20.362 37.5248 20.6478L28.0291 20.91L27.1016 17.5314L37.0679 17.4502Z" fill="url(#paint11_linear_2314_11999)"/>
<path id="Vector_18" d="M20.3899 17.5265L2.14062 17.4082L3.84497 20.4735L19.4531 20.9052L20.3899 17.5265Z" fill="url(#paint12_linear_2314_11999)"/>
<path id="Vector_19" d="M3.72656 17.4248L5.84135 17.4387L7.65004 20.5737L5.47961 20.5134L3.72656 17.4248Z" fill="url(#paint13_linear_2314_11999)"/>
<path id="Vector_20" style="mix-blend-mode:multiply" opacity="0.5" d="M19.5872 19.9468L3.34375 19.5732L3.84462 20.4736L19.4527 20.9052L19.5872 19.9468Z" fill="url(#paint14_linear_2314_11999)"/>
<g id="Vector_21" style="mix-blend-mode:soft-light" opacity="0.5">
<path d="M9.91261 17.6151C10.3764 18.0444 9.55319 19.5086 9.29348 19.4715C9.03377 19.4344 3.75377 19.4251 3.51724 19.2603C3.28072 19.0956 2.39725 17.7544 2.58971 17.5919C2.78217 17.4295 9.65058 17.3645 9.91261 17.6151Z" fill="white"/>
</g>
<path id="Vector_22" style="mix-blend-mode:multiply" opacity="0.5" d="M10.415 17.4502C10.415 17.4502 9.71936 19.3066 9.70312 19.7196C9.71648 20.0447 9.80456 20.3623 9.96052 20.6478L19.4538 20.91L20.3814 17.5314L10.415 17.4502Z" fill="url(#paint15_linear_2314_11999)"/>
<path id="Vector_23" d="M29.1094 13.5793L47.3563 13.4609L45.6543 16.5263L30.0462 16.9579L29.1094 13.5793Z" fill="url(#paint16_linear_2314_11999)"/>
<path id="Vector_24" d="M45.8375 13.4678L43.7228 13.4817L41.9141 16.619L44.0845 16.5586L45.8375 13.4678Z" fill="url(#paint17_linear_2314_11999)"/>
<path id="Vector_25" style="mix-blend-mode:multiply" opacity="0.5" d="M29.9141 15.9996L46.1552 15.626L45.6567 16.5263L30.0486 16.9579L29.9141 15.9996Z" fill="url(#paint18_linear_2314_11999)"/>
<g id="Vector_26" style="mix-blend-mode:soft-light" opacity="0.5">
<path d="M39.4572 13.7329C39.318 13.8838 39.9534 15.4803 40.2131 15.4315C40.4728 15.3828 45.7436 15.4779 45.9801 15.3155C46.2166 15.1531 47.1001 13.8072 46.9076 13.6471C46.7151 13.487 39.587 13.5914 39.4572 13.7329Z" fill="white"/>
</g>
<path id="Vector_27" style="mix-blend-mode:multiply" opacity="0.5" d="M36.7053 13.5332C36.7053 13.5332 37.4009 15.3896 37.4172 15.8026C37.4042 16.1275 37.3169 16.445 37.1621 16.7308L30.0525 16.9629L29.125 13.5843L36.7053 13.5332Z" fill="url(#paint19_linear_2314_11999)"/>
<path id="Vector_28" d="M18.2493 13.5793L0 13.4609L1.70435 16.5263L17.3101 16.9579L18.2493 13.5793Z" fill="url(#paint20_linear_2314_11999)"/>
<path id="Vector_29" d="M1.57031 13.4795L3.68278 13.4934L5.49379 16.6307L3.32104 16.5704L1.57031 13.4795Z" fill="url(#paint21_linear_2314_11999)"/>
<path id="Vector_30" style="mix-blend-mode:multiply" opacity="0.5" d="M17.4466 15.9996L1.20312 15.626L1.70399 16.5263L17.3098 16.9579L17.4466 15.9996Z" fill="url(#paint22_linear_2314_11999)"/>
<g id="Vector_31" style="mix-blend-mode:soft-light" opacity="0.5">
<path d="M7.77413 13.6679C8.2379 14.0972 7.41703 15.5614 7.15732 15.5127C6.8976 15.464 1.62456 15.4779 1.39268 15.3155C1.16079 15.153 0.270359 13.8072 0.465141 13.647C0.659924 13.4869 7.5121 13.4173 7.77413 13.6679Z" fill="white"/>
</g>
<path id="Vector_32" style="mix-blend-mode:multiply" opacity="0.5" d="M10.7588 13.5332C10.7588 13.5332 10.0631 15.3896 10.0469 15.8026C10.0598 16.1275 10.1471 16.445 10.3019 16.7308L17.3072 16.9629L18.2347 13.5843L10.7588 13.5332Z" fill="url(#paint23_linear_2314_11999)"/>
<path id="Vector_33" d="M12.2099 16.9325L11.3125 14.1085L12.2006 12.9877L18.2296 9.34918V2.30887L18.9948 1.7566L21.4134 0V12.0108L12.2099 16.9325Z" fill="url(#paint24_linear_2314_11999)"/>
<path id="Vector_34" d="M11.3125 14.1087L18.9948 9.70677V1.75684L18.2296 2.30911V9.34942L12.2006 12.9879L11.3125 14.1087Z" fill="url(#paint25_linear_2314_11999)"/>
<g id="Vector_35" style="mix-blend-mode:soft-light" opacity="0.5">
<path d="M19.167 1.75636C19.1252 2.20653 19.2017 7.80118 19.4638 7.93345C19.7258 8.06572 21.087 7.29532 21.1936 6.98902C21.3003 6.68272 21.24 0.69358 21.0545 0.723746C20.869 0.753913 19.1948 1.44077 19.167 1.75636Z" fill="white"/>
</g>
<path id="Vector_36" style="mix-blend-mode:multiply" opacity="0.5" d="M19.2143 9.80908C18.5302 10.373 11.6989 14.1112 11.5969 14.3526C11.4763 14.6658 12.383 16.1208 12.8143 15.9978C13.2456 15.8748 21.3777 11.2663 21.394 11.0482C21.4102 10.8301 21.4311 9.63273 21.234 9.55383C21.0369 9.47494 19.4809 9.59328 19.2143 9.80908Z" fill="url(#paint26_linear_2314_11999)"/>
<path id="Vector_37" d="M11.3125 14.3522L19.1571 9.79477L19.1989 1.62207L18.9948 1.75666V9.70659L11.3125 14.1085V14.3522Z" fill="#4E217D"/>
<g id="Vector_38" style="mix-blend-mode:soft-light" opacity="0.5">
<path d="M18.3185 9.43082C17.8733 9.46098 12.2896 13.0415 12.2896 13.1436C12.2896 13.2457 11.3064 13.8536 11.5452 13.8397C11.7841 13.8258 18.8264 9.8369 18.838 9.70695C18.8496 9.57701 18.5504 9.41457 18.3185 9.43082Z" fill="white"/>
</g>
<g id="Vector_39" style="mix-blend-mode:soft-light" opacity="0.5">
<path d="M11.3125 14.3521C11.3125 14.3521 15.0226 12.4795 16.9218 11.2821C18.8209 10.0847 19.2151 9.80859 19.2151 9.80859L11.3125 14.3521Z" fill="white"/>
</g>
<path id="Vector_40" style="mix-blend-mode:multiply" opacity="0.5" d="M18.2251 8.44685L18.9903 7.78783H19.1549L21.4089 6.55566V12.0111L18.8373 13.3082L17.5781 9.74167L18.2251 9.34951V8.44685Z" fill="url(#paint27_linear_2314_11999)"/>
<path id="Vector_41" d="M35.2678 16.9325L36.1652 14.1085L35.2771 12.9877L29.2481 9.34918V2.30887L28.4829 1.7566L26.0156 0V11.9852L35.2678 16.9325Z" fill="url(#paint28_linear_2314_11999)"/>
<path id="Vector_42" d="M36.1667 14.1087L28.4844 9.70677V1.75684L29.2496 2.30911V9.34942L35.2786 12.9879L36.1667 14.1087Z" fill="url(#paint29_linear_2314_11999)"/>
<g id="Vector_43" style="mix-blend-mode:soft-light" opacity="0.5">
<path d="M28.1795 1.75679C28.2189 2.20696 28.3302 7.80162 28.0682 7.93388C27.8061 8.06615 26.3545 7.21918 26.2409 6.91288C26.1273 6.60658 26.2409 0.694015 26.4172 0.714899C26.5934 0.735783 28.1516 1.44121 28.1795 1.75679Z" fill="white"/>
</g>
<path id="Vector_44" style="mix-blend-mode:multiply" opacity="0.5" d="M28.2618 9.80908C28.9575 10.373 35.7772 14.1112 35.87 14.3526C35.9905 14.6658 35.0839 16.1208 34.6526 15.9978C34.2213 15.8748 26.0891 11.2663 26.0729 11.0482C26.0566 10.8301 26.0334 9.63273 26.2305 9.55383C26.4276 9.47494 27.9998 9.59328 28.2618 9.80908Z" fill="url(#paint30_linear_2314_11999)"/>
<path id="Vector_45" d="M36.1676 14.3522L28.323 9.79477L28.2812 1.62207L28.4853 1.75666V9.70659L36.1676 14.1085V14.3522Z" fill="#4E217D"/>
<g id="Vector_46" style="mix-blend-mode:soft-light" opacity="0.5">
<path d="M29.1649 9.43082C29.6101 9.46098 35.1939 13.0415 35.1939 13.1436C35.1939 13.2457 36.1771 13.8536 35.9382 13.8397C35.6994 13.8258 28.6501 9.8369 28.6408 9.70695C28.6316 9.57701 28.9237 9.41457 29.1649 9.43082Z" fill="white"/>
</g>
<g id="Vector_47" style="mix-blend-mode:soft-light" opacity="0.5">
<path d="M36.176 14.3521C36.176 14.3521 32.4659 12.4795 30.5668 11.2821C28.6676 10.0847 28.2734 9.80859 28.2734 9.80859L36.176 14.3521Z" fill="white"/>
</g>
<path id="Vector_48" style="mix-blend-mode:multiply" opacity="0.5" d="M29.2463 8.44685L28.481 7.78783H28.3164L26.0625 6.55566V12.0111L28.6341 13.3082L29.8955 9.74167L29.2463 9.34951V8.44685Z" fill="url(#paint31_linear_2314_11999)"/>
<path id="Vector_49" d="M11.762 28.8455C11.7318 28.9522 7.21009 27.3812 7.21009 27.3812C6.0607 25.6556 5.10718 23.8072 4.36719 21.8701H12.0866L11.762 28.8455Z" fill="url(#paint32_linear_2314_11999)"/>
<path id="Vector_50" d="M5.84375 21.8706C5.84375 21.8706 7.65476 25.5973 7.97708 25.9894L11.8797 26.0939V25.827C11.8797 25.827 8.30636 25.8595 8.10462 25.7063C7.90288 25.5532 6.07332 21.8613 6.07332 21.8613L5.84375 21.8706Z" fill="#4E217D"/>
<path id="Vector_51" d="M5.84375 21.8701L7.97708 25.989C7.51748 25.3316 7.10002 24.6456 6.72723 23.9353C6.24491 22.9723 5.84375 21.8701 5.84375 21.8701Z" fill="#E6ADFF"/>
<g id="Vector_52" style="mix-blend-mode:soft-light" opacity="0.5">
<path d="M6.39307 22.1235C6.6922 23.0146 7.87944 25.038 8.12756 25.038C8.37568 25.038 11.2371 24.987 11.5015 24.5739C11.7658 24.1609 11.9907 22.1653 11.7635 22.1235C11.5363 22.0817 6.26089 21.7267 6.39307 22.1235Z" fill="white"/>
</g>
<g id="Vector_53" style="mix-blend-mode:soft-light" opacity="0.5">
<path d="M4.62431 22.0255C4.99301 22.898 6.01562 25.1187 6.20576 25.1442C6.39591 25.1697 7.03359 25.251 7.04518 24.9841C7.0591 24.5595 5.86257 22.0812 5.59591 22.0255C5.32924 21.9698 4.53388 21.812 4.62431 22.0255Z" fill="white"/>
</g>
<path id="Vector_54" style="mix-blend-mode:multiply" opacity="0.5" d="M6.39149 25.437C6.35671 25.7131 7.38395 27.1333 7.55091 27.247C7.71787 27.3607 11.1892 28.4815 11.4187 28.3214C11.6483 28.1612 11.7666 25.2328 11.5741 25.147C11.3816 25.0611 6.43091 25.133 6.39149 25.437Z" fill="url(#paint33_linear_2314_11999)"/>
<path id="Vector_55" style="mix-blend-mode:multiply" opacity="0.5" d="M9.49219 21.8701C9.86486 23.9993 10.0287 26.1599 9.98146 28.321L11.7623 28.8455L12.087 21.8701H9.49219Z" fill="url(#paint34_linear_2314_11999)"/>
<path id="Vector_56" d="M35.7129 28.8455C35.7431 28.9522 40.2648 27.3812 40.2648 27.3812C41.415 25.6558 42.3693 23.8073 43.11 21.8701H35.3906L35.7129 28.8455Z" fill="url(#paint35_linear_2314_11999)"/>
<path id="Vector_57" d="M41.6375 21.8701C41.6375 21.8701 39.8334 25.5968 39.5042 25.9982L35.6016 26.1027V25.8358C35.6016 25.8358 39.1749 25.8683 39.3766 25.7151C39.5784 25.562 41.4079 21.8701 41.4079 21.8701H41.6375Z" fill="#4E217D"/>
<path id="Vector_58" d="M41.6333 21.8701L39.5 25.989C39.9623 25.3288 40.3821 24.6397 40.7568 23.9261C41.083 23.2558 41.3755 22.5696 41.6333 21.8701Z" fill="#E6ADFF"/>
<g id="Vector_59" style="mix-blend-mode:soft-light" opacity="0.5">
<path d="M41.0852 22.1235C40.7861 23.0146 39.5988 25.038 39.3507 25.038C39.1026 25.038 36.2411 24.987 35.9768 24.5739C35.7124 24.1609 35.4806 22.1653 35.7124 22.1235C35.9443 22.0817 41.2174 21.7267 41.0852 22.1235Z" fill="white"/>
</g>
<g id="Vector_60" style="mix-blend-mode:soft-light" opacity="0.5">
<path d="M42.8562 22.0255C42.4875 22.898 41.4649 25.1187 41.2748 25.1442C41.0846 25.1697 40.4469 25.251 40.4377 24.9841C40.4214 24.5595 41.618 22.0812 41.8846 22.0255C42.1513 21.9698 42.9466 21.812 42.8562 22.0255Z" fill="white"/>
</g>
<path id="Vector_61" style="mix-blend-mode:multiply" opacity="0.5" d="M41.0826 25.437C41.1173 25.7131 40.0901 27.1333 39.9231 27.247C39.7562 27.3607 36.2849 28.4815 36.0576 28.3214C35.8304 28.1612 35.7075 25.2328 35.8999 25.147C36.0924 25.0611 41.0408 25.133 41.0826 25.437Z" fill="url(#paint36_linear_2314_11999)"/>
<path id="Vector_62" style="mix-blend-mode:multiply" opacity="0.5" d="M37.9799 21.8701C37.6072 23.9993 37.4434 26.1599 37.4906 28.321L35.7074 28.8455L35.3828 21.8701H37.9799Z" fill="url(#paint37_linear_2314_11999)"/>
<path id="Vector_63" d="M29.5245 9.60473C29.4527 9.52815 32.9309 6.26557 32.9309 6.26557C34.9922 6.0494 37.071 6.06341 39.1292 6.30734L35.5442 13.1365L29.5245 9.60473Z" fill="url(#paint38_linear_2314_11999)"/>
<path id="Vector_64" d="M38.4422 7.59928C38.4422 7.59928 34.3077 7.46469 33.8045 7.57143L31.8984 10.9802L32.1303 11.1032C32.1303 11.1032 33.7535 7.92415 33.9854 7.81508C34.2173 7.70602 38.3309 7.81508 38.3309 7.81508L38.4422 7.59928Z" fill="#4E217D"/>
<path id="Vector_65" d="M38.3364 7.80383L34.0859 7.79688C34.0859 7.79688 35.09 7.9105 36.1567 7.93369C36.8853 7.93973 37.6136 7.89635 38.3364 7.80383Z" fill="#E6ADFF"/>
<path id="Vector_66" style="mix-blend-mode:multiply" opacity="0.5" d="M37.9613 7.97101C37.0338 7.8225 34.6941 7.93389 34.5782 8.15433C34.4622 8.37478 33.1869 10.9389 33.4187 11.3589C33.6506 11.7789 35.3202 12.9136 35.464 12.7303C35.6077 12.547 38.3741 8.03831 37.9613 7.97101Z" fill="url(#paint39_linear_2314_11999)"/>
<path id="Vector_67" style="mix-blend-mode:multiply" opacity="0.5" d="M38.8724 6.44862C37.9287 6.3674 35.4892 6.2421 35.3779 6.39989C35.2666 6.55768 34.8979 7.08211 35.1298 7.21438C35.4985 7.42554 38.2463 7.51836 38.4226 7.30952C38.5988 7.10067 39.1043 6.46718 38.8724 6.44862Z" fill="url(#paint40_linear_2314_11999)"/>
<g id="Vector_68" style="mix-blend-mode:soft-light" opacity="0.5">
<path d="M35.0314 6.43006C34.7995 6.26995 33.0697 6.52056 32.8888 6.62034C32.7079 6.72012 30.1062 9.268 30.141 9.54645C30.1758 9.82491 32.7126 11.2891 32.8772 11.1708C33.0418 11.0524 35.2842 6.6041 35.0314 6.43006Z" fill="white"/>
</g>
<path id="Vector_69" style="mix-blend-mode:multiply" opacity="0.5" d="M36.0023 12.2612C36.0023 12.2612 33.1617 10.2099 30.4672 8.64355L29.5234 9.60423L35.5524 13.136L36.0023 12.2612Z" fill="url(#paint41_linear_2314_11999)"/>
<path id="Vector_70" d="M17.9608 9.60441C18.0397 9.52783 14.5475 6.26525 14.5475 6.26525C12.4875 6.04517 10.4094 6.05528 8.35156 6.29542L11.9388 13.1362L17.9608 9.60441Z" fill="url(#paint42_linear_2314_11999)"/>
<path id="Vector_71" d="M9.04688 7.59928C9.04688 7.59928 13.1814 7.46469 13.6846 7.57143L15.586 10.9802L15.3541 11.1032C15.3541 11.1032 13.7309 7.92415 13.499 7.81508C13.2672 7.70602 9.15354 7.81508 9.15354 7.81508L9.04688 7.59928Z" fill="#4E217D"/>
<path id="Vector_72" d="M9.14062 7.80371H13.4861C13.4861 7.80371 12.22 7.86168 11.1511 7.88487C10.4799 7.89932 9.80845 7.87222 9.14062 7.80371Z" fill="#E6ADFF"/>
<path id="Vector_73" style="mix-blend-mode:multiply" opacity="0.5" d="M9.50983 7.97101C10.4374 7.8225 12.7771 7.93389 12.893 8.15433C13.009 8.37478 14.2843 10.9389 14.0524 11.3589C13.8206 11.7789 12.1487 12.9136 12.0072 12.7303C11.8658 12.547 9.10171 8.03831 9.50983 7.97101Z" fill="url(#paint43_linear_2314_11999)"/>
<path id="Vector_74" style="mix-blend-mode:multiply" opacity="0.5" d="M8.60041 6.44862C9.54418 6.3674 11.9836 6.2421 12.0949 6.39989C12.2062 6.55768 12.5749 7.08211 12.343 7.21438C11.9743 7.42554 9.2265 7.51836 9.04099 7.30952C8.85549 7.10067 8.36853 6.46718 8.60041 6.44862Z" fill="url(#paint44_linear_2314_11999)"/>
<g id="Vector_75" style="mix-blend-mode:soft-light" opacity="0.5">
<path d="M12.4417 6.43006C12.6736 6.26995 14.4035 6.52056 14.5843 6.62034C14.7652 6.72012 17.3669 9.268 17.3322 9.54645C17.2974 9.82491 14.7606 11.2891 14.5959 11.1708C14.4313 11.0524 12.189 6.6041 12.4417 6.43006Z" fill="white"/>
</g>
<path id="Vector_76" style="mix-blend-mode:multiply" opacity="0.5" d="M11.4766 12.2612C11.4766 12.2612 14.3171 10.2099 17.0093 8.64355L17.9554 9.60423L11.9264 13.136L11.4766 12.2612Z" fill="url(#paint45_linear_2314_11999)"/>
<path id="Vector_77" d="M23.7861 5.74316L11.1484 13.0434V30.4655L23.7861 37.7657L36.4261 30.4655V13.0434L23.7861 5.74316Z" fill="url(#paint46_linear_2314_11999)"/>
<path id="Vector_78" d="M13.4375 29.1427V14.3636L23.7888 8.38379L34.1424 14.3636V29.1427L23.7888 35.1249L13.4375 29.1427Z" fill="url(#paint47_linear_2314_11999)"/>
<path id="Vector_79" d="M14.1953 28.7046V14.805L23.7837 9.26367L33.3744 14.805V28.7046L23.7837 34.2459L14.1953 28.7046Z" fill="url(#paint48_linear_2314_11999)"/>
<g id="Vector_80" style="mix-blend-mode:soft-light" opacity="0.5">
<path d="M11.4655 13.0896C11.3101 13.5537 12.6527 14.1338 13.5988 13.9273C14.5449 13.7208 23.44 8.49972 23.6533 8.03331C23.7136 7.90336 23.7229 6.07715 23.6533 6.07715C23.3426 6.07715 11.542 12.8622 11.4655 13.0896Z" fill="white"/>
</g>
<g id="Vector_81" style="mix-blend-mode:soft-light" opacity="0.5">
<path d="M36.0507 13.0896C36.2061 13.5537 34.8635 14.1338 33.9174 13.9273C32.9713 13.7208 24.162 8.45099 23.8629 8.03331C23.7075 7.8175 23.6565 6.07715 23.8629 6.07715C24.1759 6.07715 35.9742 12.8622 36.0507 13.0896Z" fill="white"/>
</g>
<path id="Vector_82" style="mix-blend-mode:multiply" opacity="0.5" d="M11.4552 22.9985C11.3717 23.5182 11.163 30.113 11.4552 30.1641C11.7473 30.2151 13.1178 29.2753 13.1943 28.8414C13.2708 28.4075 13.2963 23.8872 13.1943 23.4556C13.0923 23.024 11.5966 22.1306 11.4552 22.9985Z" fill="url(#paint49_linear_2314_11999)"/>
<path id="Vector_83" style="mix-blend-mode:multiply" opacity="0.5" d="M36.0712 22.9985C36.1547 23.5182 36.3611 30.113 36.0712 30.1641C35.7814 30.2151 34.4063 29.2753 34.3321 28.8414C34.2579 28.4075 34.2301 23.8872 34.3321 23.4556C34.4341 23.024 35.9391 22.1306 36.0712 22.9985Z" fill="url(#paint50_linear_2314_11999)"/>
<path id="Vector_84" style="mix-blend-mode:multiply" opacity="0.5" d="M11.7687 30.3421C11.9217 30.5741 23.3026 37.3035 23.4742 37.3035C23.56 37.3035 23.6759 35.6281 23.6759 35.4471C23.6759 34.9273 13.6098 29.5786 13.4336 29.5276C13.1739 29.451 11.6133 30.1147 11.7687 30.3421Z" fill="url(#paint51_linear_2314_11999)"/>
<path id="Vector_85" style="mix-blend-mode:multiply" opacity="0.5" d="M35.8267 30.5184C35.6737 30.7504 24.0795 37.4566 23.9079 37.4566C23.8708 37.4566 23.8685 35.3682 23.945 35.2962C24.3114 34.9273 33.916 29.574 34.0876 29.5229C34.3473 29.451 35.9821 30.291 35.8267 30.5184Z" fill="url(#paint52_linear_2314_11999)"/>
<path id="Vector_86" style="mix-blend-mode:multiply" opacity="0.5" d="M14.6352 28.3331C13.9558 24.4835 14.3361 24.2398 19.1082 22.6132C23.8804 20.9865 31.9592 16.7911 32.6688 18.6127C33.3784 20.4343 33.1326 28.1823 32.9726 28.607C32.8126 29.0316 24.474 33.8257 23.7853 33.835C23.0966 33.8443 14.7117 28.774 14.6352 28.3331Z" fill="url(#paint53_linear_2314_11999)"/>
<g id="Vector_87" style="mix-blend-mode:soft-light" opacity="0.3">
<path d="M33.174 14.8995C33.0071 14.8508 24.3508 9.84784 23.85 9.88497C23.3491 9.9221 17.3572 12.7461 14.8714 14.8809C14.2106 15.4518 14.4517 23.954 15.0616 23.7985C15.6714 23.643 16.1259 20.2041 22.832 18.2735C29.4361 16.373 32.3091 18.0182 33.0349 18.3129C33.2274 18.3941 33.559 14.9923 33.174 14.8995Z" fill="white"/>
</g>
<path id="Vector_88" style="mix-blend-mode:multiply" opacity="0.5" d="M13.4375 29.145V14.3636L23.7888 8.38379L34.1424 14.3636V29.145L33.3795 28.7042C33.3795 28.7042 33.4259 15.8557 33.1476 15.4543C32.1645 14.0156 24.5076 10.5186 23.2508 10.9061C21.994 11.2937 15.1558 14.2082 14.3929 15.4287C14.1355 15.8395 14.2004 28.7042 14.2004 28.7042L13.4375 29.145Z" fill="url(#paint54_linear_2314_11999)"/>
<g id="Vector_89" style="mix-blend-mode:soft-light" opacity="0.5">
<path d="M25.7226 16.3825C28.3011 17.5589 32.1875 17.5798 32.5423 17.3547C32.8971 17.1297 33.1336 15.4728 32.5748 15.1944C32.0159 14.9159 27.5939 12.556 26.4345 12.8113C25.2751 13.0665 25.2751 16.1736 25.7226 16.3825Z" fill="white"/>
</g>
<path id="Vector_90" style="mix-blend-mode:multiply" d="M11.1484 18.3503C11.1484 18.3132 11.2597 13.4378 11.4638 13.0898C11.6679 12.7417 23.5218 6.17013 23.8603 6.07731C24.1989 5.98449 28.6395 8.54629 28.6395 8.54629L23.7861 5.74316L11.1484 13.0434V18.3503Z" fill="url(#paint55_linear_2314_11999)"/>
<path id="Vector_91" d="M28.3125 10.9971C28.3125 10.9971 33.8568 14.1552 33.9403 14.5126C34.0238 14.8699 34.1421 24.421 34.1421 24.421C34.1421 24.421 34.1954 14.7725 34.1421 14.3641C34.0887 13.9557 28.3125 10.9971 28.3125 10.9971Z" fill="#E6ADFF"/>
<path id="Vector_92" d="M13.4379 22.4644C13.4379 22.4644 13.2524 14.4727 13.3474 14.2151C13.4425 13.9576 23.7822 8.38379 23.7822 8.38379C23.7822 8.38379 13.7903 14.0991 13.5793 14.4611C13.3683 14.8231 13.4379 22.4644 13.4379 22.4644Z" fill="#E6ADFF"/>
<path id="Vector_93" style="mix-blend-mode:multiply" d="M11.1484 30.4652L23.7861 37.7654L36.4238 30.4652V26.4972C36.4238 26.4972 36.3195 29.9593 36.0621 30.3909C35.8047 30.8225 24.4818 37.4127 23.9067 37.4567C23.3316 37.5008 11.756 30.6299 11.4522 30.1658C11.1484 29.7017 11.1484 21.5801 11.1484 21.5801V30.4652Z" fill="url(#paint56_linear_2314_11999)"/>
<path id="Vector_94" d="M13.4381 25.3604C13.4381 25.3604 13.4034 28.7691 13.5912 29.0545C13.779 29.34 18.6926 32.1779 18.6926 32.1779C18.6926 32.1779 13.3732 29.4258 13.3222 29.2495C13.2712 29.0731 13.4381 25.3604 13.4381 25.3604Z" fill="#E6ADFF"/>
<g id="Vector_95" style="mix-blend-mode:soft-light" opacity="0.5">
<path d="M17.7082 32.2549C17.3349 32.2549 16.2891 32.6749 16.5163 32.9232C16.6972 33.1227 22.9627 36.9237 23.6723 37.1836C23.9042 37.2694 23.8833 35.7913 23.5726 35.3086C23.4381 35.0975 18.863 32.2549 17.7082 32.2549Z" fill="white"/>
</g>
<path id="Vector_96" d="M29.0608 9.28149C28.8567 9.33718 29.5408 10.1981 29.8654 10.2747C30.19 10.3512 30.6353 10.1215 30.4822 9.96371C30.3292 9.80592 29.3784 9.2026 29.0608 9.28149Z" fill="white"/>
<path id="Vector_97" d="M30.5745 10.1424C30.2638 10.226 30.8366 11.5858 31.08 11.8271C31.3235 12.0684 33.4986 12.4931 33.4476 12.1032C33.3966 11.7134 31.0082 10.0264 30.5745 10.1424Z" fill="white"/>
<path id="Vector_98" style="mix-blend-mode:multiply" opacity="0.5" d="M29.6135 32.2829C29.3398 33.471 29.3816 34.1741 29.5369 34.181C29.6923 34.188 35.2158 30.8604 35.3665 30.7142C35.5172 30.5681 34.4807 29.612 34.054 29.677C33.6274 29.742 29.7155 31.8373 29.6135 32.2829Z" fill="url(#paint57_linear_2314_11999)"/>
<path id="Vector_99" style="mix-blend-mode:multiply" opacity="0.5" d="M14.1064 14.7028C13.9742 14.3037 13.5661 14.306 13.529 14.7516C13.4919 15.1971 13.427 23.4812 13.5893 23.4928C13.7516 23.5044 14.0948 23.1006 14.1064 22.908C14.118 22.7154 14.1713 14.8954 14.1064 14.7028Z" fill="url(#paint58_linear_2314_11999)"/>
<path id="Vector_100" style="mix-blend-mode:multiply" opacity="0.5" d="M33.4728 14.7534C33.4496 14.9112 33.3708 22.7312 33.4728 22.7312C33.5749 22.7312 34.0317 22.3622 34.0317 22.172C34.0317 21.9817 33.9157 14.5886 33.8647 14.5515C33.8137 14.5144 33.4891 14.6188 33.4728 14.7534Z" fill="url(#paint59_linear_2314_11999)"/>
<path id="Vector_101" style="mix-blend-mode:multiply" opacity="0.5" d="M23.788 9.13568C23.788 9.28187 19.3358 11.8344 19.2315 11.8344C19.1271 11.8344 19.1642 11.1383 19.308 11.0524C19.4518 10.9665 23.7579 8.35369 23.788 8.44883C23.8043 8.67749 23.8043 8.90702 23.788 9.13568Z" fill="url(#paint60_linear_2314_11999)"/>
<path id="Vector_102" d="M32.9795 29.7373C32.6966 29.7373 31.7366 30.2849 31.8085 30.5588C31.8804 30.8326 32.4694 31.1273 32.6248 30.9695C32.7801 30.8117 33.1604 29.7443 32.9795 29.7373Z" fill="#4E217D"/>
<path id="Vector_103" d="M33.3483 29.934C33.2509 30.0245 33.0376 30.3445 33.2416 30.4998C33.4457 30.6552 34.0416 30.2448 33.9535 30.1242C33.8654 30.0036 33.4758 29.8135 33.3483 29.934Z" fill="#4E217D"/>
<path id="Vector_104" style="mix-blend-mode:multiply" opacity="0.5" d="M31.9498 30.2846C31.7179 30.6046 32.6849 30.8179 32.8101 30.5489C32.9353 30.2799 33.1394 29.7095 32.9794 29.7373C32.8194 29.7651 32.0774 30.1083 31.9498 30.2846Z" fill="url(#paint61_linear_2314_11999)"/>
<path id="Vector_105" d="M31.8109 30.4795C31.8769 30.6657 32.0067 30.8226 32.1772 30.9224C32.4091 31.0546 32.5993 31.0244 32.6572 30.9224C32.601 30.9869 32.5251 31.031 32.4412 31.0478C32.3572 31.0646 32.2702 31.0531 32.1935 31.0151C31.7251 30.8041 31.8109 30.4795 31.8109 30.4795Z" fill="#DAE1EF"/>
<path id="Vector_106" style="mix-blend-mode:multiply" opacity="0.5" d="M33.4551 29.9343C33.2232 30.1661 33.4064 30.5093 33.5293 30.4908C33.6522 30.4722 34.0185 30.2288 33.9513 30.1151C33.8841 30.0015 33.5038 29.8856 33.4551 29.9343Z" fill="url(#paint62_linear_2314_11999)"/>
<path id="Vector_107" d="M33.3419 29.9336C33.3419 29.9336 33.1402 30.2095 33.2214 30.3695C33.3025 30.5295 33.4161 30.5295 33.4161 30.5295C33.4161 30.5295 33.1564 30.6803 33.1077 30.504C33.0243 30.191 33.3419 29.9336 33.3419 29.9336Z" fill="#DAE1EF"/>
<path id="Vector_108" d="M22.4935 9.0499C21.814 8.8689 21.2622 9.30979 20.9653 9.64858C20.6685 9.98737 20.8332 10.1892 21.2088 10.1243C21.5845 10.0593 22.774 9.12415 22.4935 9.0499Z" fill="#4E217D"/>
<path id="Vector_109" style="mix-blend-mode:multiply" opacity="0.5" d="M22.4932 9.04993C22.0295 8.89225 21.4521 9.19602 21.2689 9.35834C21.0857 9.52066 21.4451 9.98211 21.6932 9.88472C21.9414 9.78733 22.6973 9.1195 22.4932 9.04993Z" fill="url(#paint63_linear_2314_11999)"/>
<g id="Vector_110" style="mix-blend-mode:soft-light" opacity="0.5">
<path d="M21.1304 9.47461C21.1304 9.47461 20.3605 9.9778 20.4347 10.2282C20.5089 10.4787 21.4434 10.0219 21.4434 10.0219C21.4434 10.0219 20.9773 10.1772 20.8707 9.9778C20.764 9.77838 21.1304 9.47461 21.1304 9.47461Z" fill="white"/>
</g>
<path id="Vector_111" d="M13.8784 29.2382C13.5167 29.3287 14.5903 30.0661 14.8431 30.1055C15.0958 30.1449 14.8431 29.4956 14.7248 29.3843C14.4603 29.2623 14.1685 29.212 13.8784 29.2382Z" fill="#E6ADFF"/>
<path id="Vector_112" d="M23.7766 29.9572L10.7308 22.3438C10.4234 23.0554 10.2143 23.8056 10.1094 24.5737L10.9604 26.0124L23.7766 33.4611L36.5952 26.0124L37.3673 24.5737C37.3434 23.8091 37.1865 23.0545 36.9036 22.3438L23.7766 29.9572Z" fill="url(#paint64_linear_2314_11999)"/>
<path id="Vector_113" d="M10.9627 26.0129L10.1094 24.5742L23.7789 32.5868L37.3697 24.5742L36.5975 26.0129L23.7789 33.4639L10.9627 26.0129Z" fill="url(#paint65_linear_2314_11999)"/>
<path id="Vector_114" style="mix-blend-mode:multiply" opacity="0.5" d="M10.1094 24.5742L10.9604 26.0129L11.1529 26.1336V26.5629C11.1529 26.5629 11.8856 26.9341 13.321 27.7231C13.3697 27.7509 14.2253 28.6513 14.2253 28.6513C14.2253 28.6513 23.4589 34.239 23.7905 34.239C24.2172 34.2459 33.3905 28.5422 33.3905 28.5422C33.3905 28.5422 34.1024 27.9412 34.1743 27.8995L36.4352 26.716V26.1197L36.6068 26.0199L37.3789 24.5812L23.7882 32.5914L10.1094 24.5742Z" fill="url(#paint66_linear_2314_11999)"/>
<path id="Vector_115" style="mix-blend-mode:multiply" opacity="0.5" d="M23.7812 29.9572V32.5863L37.372 24.5737C37.372 24.5737 37.3163 23.2557 36.9082 22.3438L23.7812 29.9572Z" fill="url(#paint67_linear_2314_11999)"/>
<g id="Vector_116" style="mix-blend-mode:soft-light" opacity="0.5">
<path d="M11.4062 22.9219C11.1558 22.9219 11.3598 25.131 12.1181 25.6391C13.3239 26.4467 20.5842 30.7303 21.0595 30.7442C21.3888 30.7442 21.3702 28.8692 21.2729 28.7231C21.085 28.4376 11.7772 22.9219 11.4062 22.9219Z" fill="white"/>
</g>
<g id="Vector_117" style="mix-blend-mode:soft-light" opacity="0.5">
<path d="M27.8092 27.6856C27.6515 27.8481 27.6747 29.9156 27.9437 29.853C28.2127 29.7903 32.317 27.5998 34.2509 26.1773C36.1849 24.7549 36.4608 22.8799 36.0249 22.9287C36.0249 22.9217 28.1338 27.3515 27.8092 27.6856Z" fill="white"/>
</g>
<path id="Vector_118" d="M23.6978 13.3803L36.7436 20.9937C37.0521 20.2823 37.2619 19.532 37.3673 18.7637L36.514 17.3227L23.6978 9.87402L10.8792 17.3227L10.1094 18.7637C10.1327 19.5285 10.2897 20.2832 10.5731 20.9937L23.6978 13.3803Z" fill="url(#paint68_linear_2314_11999)"/>
<path id="Vector_119" d="M36.5163 17.3227L37.3697 18.7638L23.7001 10.7512L10.1094 18.7638L10.8815 17.3227L23.7001 9.87402L36.5163 17.3227Z" fill="url(#paint69_linear_2314_11999)"/>
<path id="Vector_120" style="mix-blend-mode:multiply" opacity="0.7" d="M33.3494 20.6521L34.1378 20.1138L36.4242 21.3715V20.8076C36.4242 20.8076 35.5175 20.2321 34.0821 19.4385L33.3146 18.9744C33.3146 18.9744 24.081 13.3867 23.7471 13.3867C23.3158 13.3867 14.1471 18.9303 14.1471 18.9303C14.1471 18.9303 13.4514 19.29 13.3842 19.3318L11.1488 20.6336L11.1094 21.52L13.4839 19.9908L14.1981 20.6869L23.7563 15.0366L33.3494 20.6521Z" fill="url(#paint70_linear_2314_11999)"/>
<g id="Vector_121" style="mix-blend-mode:soft-light" opacity="0.5">
<path d="M23.6978 13.3801V10.751L10.1094 18.7636C10.1094 18.7636 10.1627 20.0816 10.5731 20.9935L23.6978 13.3801Z" fill="white"/>
</g>
<g id="Vector_122" style="mix-blend-mode:soft-light" opacity="0.5">
<path d="M36.0682 20.4203C36.3187 20.4203 36.1146 18.2089 35.3564 17.7007C34.1529 16.8932 26.8903 12.6119 26.4149 12.5957C26.0879 12.5957 26.1042 14.4683 26.2039 14.6145C26.3894 14.8976 35.7065 20.4203 36.0682 20.4203Z" fill="white"/>
</g>
<g id="Vector_123" style="mix-blend-mode:soft-light" opacity="0.5">
<path d="M19.6657 15.6514C19.8233 15.4867 19.8025 13.4214 19.5312 13.4818C19.2599 13.5421 15.1578 15.7373 13.2193 17.1713C11.2807 18.6054 11.0094 20.4664 11.4454 20.42C11.45 20.42 19.341 15.9856 19.6657 15.6514Z" fill="white"/>
</g>
<path id="Vector_124" d="M30.3458 14.6471C30.3458 14.6471 24.0989 10.9065 23.7 10.9065C23.3012 10.9065 18.3203 13.9231 18.3203 13.9231C18.3203 13.9231 23.5539 10.6025 23.6977 10.6025C23.8415 10.6025 30.3458 14.6471 30.3458 14.6471Z" fill="#E6ADFF"/>
<path id="Vector_125" style="mix-blend-mode:multiply" opacity="0.5" d="M19.0733 8.46508C19.0272 8.71091 19.0001 8.95994 18.9922 9.20995C19.02 9.32597 19.8965 10.6324 19.8965 10.6324V11.5119L23.8223 15.1898L27.7041 11.6348L27.8757 10.7716C27.8757 10.7716 28.7545 9.39791 28.7545 9.20995C28.7545 9.02199 27.9545 8.13557 27.9545 8.13557L23.7875 5.74316L19.0733 8.46508Z" fill="url(#paint71_linear_2314_11999)"/>
<path id="Vector_126" d="M28.3983 8.90406L28.3775 8.87622L23.8696 2.68288L23.8464 2.65039L23.8233 2.68288L19.3177 8.87622L19.2969 8.90406L19.3177 8.93191L23.8233 15.1252V15.1902L23.8464 15.1554L23.8719 15.1902V15.1252L28.3798 8.93191L28.3983 8.90406Z" fill="url(#paint72_linear_2314_11999)"/>
<path id="Vector_127" style="mix-blend-mode:multiply" opacity="0.5" d="M20.2422 8.90318L23.848 3.94434L27.4561 8.90318L23.848 13.8597L20.2422 8.90318Z" fill="url(#paint73_linear_2314_11999)"/>
<path id="Vector_128" d="M20.4297 8.90403L23.8477 4.20508L27.2679 8.90403L23.8477 13.603L20.4297 8.90403Z" fill="url(#paint74_linear_2314_11999)"/>
<g id="Vector_129" style="mix-blend-mode:soft-light" opacity="0.5">
<path d="M23.7922 2.98602C23.3887 3.37122 19.544 8.5946 19.6182 8.73847C19.6925 8.88234 21.1974 8.88466 24.0843 8.84985C26.9713 8.81505 28.1609 8.82201 28.1864 8.73847C28.2119 8.65493 23.8687 2.91409 23.7922 2.98602Z" fill="white"/>
</g>
<path id="Vector_130" style="mix-blend-mode:multiply" opacity="0.5" d="M19.4927 8.91989C19.4371 9.15194 23.6435 14.8789 23.9101 14.7907C24.1768 14.7025 28.3252 9.04984 28.0562 8.90365C27.7872 8.75746 19.5414 8.71337 19.4927 8.91989Z" fill="url(#paint75_linear_2314_11999)"/>
<path id="Vector_131" style="mix-blend-mode:multiply" opacity="0.5" d="M23.7875 10.224L22.4843 10.9109L22.7348 9.45828L21.6797 8.43032L23.1359 8.21683L23.7875 6.89648L24.4414 8.21683L25.8977 8.43032L24.8426 9.45828L25.093 10.9109L23.7875 10.224Z" fill="url(#paint76_linear_2314_11999)"/>
<path id="Vector_132" d="M25.7371 8.48385L25.0368 8.38175L24.8466 8.3539L24.3922 8.28661L23.7893 7.06836L23.1887 8.28661L21.8438 8.48385L22.8177 9.43292L22.5881 10.7718L23.7893 10.1383L24.9927 10.7718L24.7632 9.43292L25.7371 8.48385Z" fill="url(#paint77_linear_2314_11999)"/>
<path id="Vector_133" style="mix-blend-mode:multiply" opacity="0.5" d="M21.8359 8.4834L23.8162 9.00086L22.8098 9.43247L21.8359 8.4834Z" fill="url(#paint78_linear_2314_11999)"/>
<path id="Vector_134" style="mix-blend-mode:multiply" opacity="0.5" d="M25.7255 8.4834L23.8125 9.00086L24.7516 9.43247L25.7255 8.4834Z" fill="url(#paint79_linear_2314_11999)"/>
<path id="Vector_135" style="mix-blend-mode:multiply" opacity="0.5" d="M23.7816 10.138L23.8141 9.00098L22.5781 10.7715L23.7816 10.138Z" fill="url(#paint80_linear_2314_11999)"/>
<path id="Vector_136" style="mix-blend-mode:multiply" opacity="0.5" d="M24.9824 10.7715L23.8137 9.00098L23.7812 10.138L24.9824 10.7715Z" fill="url(#paint81_linear_2314_11999)"/>
<path id="Vector_137" style="mix-blend-mode:color-dodge" opacity="0.5" d="M23.7812 7.06836L23.8137 9.00131L24.3818 8.28661L23.7812 7.06836Z" fill="url(#paint82_linear_2314_11999)"/>
<path id="Vector_138" style="mix-blend-mode:color-dodge" opacity="0.5" d="M25.7255 8.48323L23.8125 9.00034L24.3806 8.28613L25.7255 8.48323Z" fill="url(#paint83_linear_2314_11999)"/>
<path id="Vector_139" style="mix-blend-mode:color-dodge" opacity="0.5" d="M25.7255 8.48323L23.8125 9.00034L24.3806 8.28613L25.7255 8.48323Z" fill="url(#paint84_linear_2314_11999)"/>
<path id="Vector_140" style="mix-blend-mode:color-dodge" opacity="0.5" d="M23.1809 8.28613L23.8162 9.00034L21.8359 8.48323L23.1809 8.28613Z" fill="url(#paint85_linear_2314_11999)"/>
<path id="Vector_141" d="M24.3849 8.71095C24.2852 8.79675 24.3687 8.85008 24.3687 8.85008L24.8834 8.71095C24.8113 8.65766 24.7239 8.62891 24.6342 8.62891C24.5444 8.62891 24.4571 8.65766 24.3849 8.71095Z" fill="#E6ADFF"/>
<path id="Vector_142" style="mix-blend-mode:multiply" opacity="0.5" d="M22.5859 10.7707C22.5859 10.7707 23.4972 10.3418 23.7871 10.2212L24.9906 10.7707L23.7871 10.1377L22.5859 10.7707Z" fill="url(#paint86_linear_2314_11999)"/>
<path id="Vector_143" style="mix-blend-mode:multiply" opacity="0.5" d="M21.8359 8.4834L23.8162 9.00086L22.731 9.93601L21.8359 8.4834Z" fill="url(#paint87_linear_2314_11999)"/>
<path id="Vector_144" style="mix-blend-mode:multiply" opacity="0.5" d="M25.7255 8.4834L23.8125 9.00086L24.8676 10.0613L25.7255 8.4834Z" fill="url(#paint88_linear_2314_11999)"/>
<path id="Vector_145" style="mix-blend-mode:multiply" opacity="0.5" d="M22.5859 10.7715L23.8149 9.00098L24.9906 10.7715L23.7871 10.5812L22.5859 10.7715Z" fill="url(#paint89_linear_2314_11999)"/>
<g id="Vector_146" style="mix-blend-mode:soft-light" opacity="0.4">
<path d="M23.3415 8.07492C23.214 8.42971 23.7009 8.67782 23.7682 8.56884C23.8234 8.30178 23.8025 8.0246 23.7079 7.76884C23.6267 7.68536 23.3948 7.93116 23.3415 8.07492Z" fill="#F7FFFF"/>
</g>
<g id="Vector_147" style="mix-blend-mode:soft-light" opacity="0.4">
<path d="M22.9462 9.89365C23.2036 9.92843 23.3497 9.63394 23.41 9.42988C23.4912 9.10524 22.4732 9.83104 22.9462 9.89365Z" fill="#F7FFFF"/>
</g>
<path id="Vector_148" style="mix-blend-mode:multiply" opacity="0.5" d="M20.7871 30.8437L20.2399 32.178L19.5859 32.844V35.371L23.7877 37.7657L28.3117 35.1528L28.1842 32.8022L27.4538 32.1269L27.0062 30.7718L23.79 27.9014L20.7871 30.8437Z" fill="url(#paint90_linear_2314_11999)"/>
<path id="Vector_149" d="M28.3983 33.8187L28.3775 33.7909L23.8696 27.5999L23.8464 27.5674L23.8233 27.5999L19.3177 33.7909L19.2969 33.8187L19.3177 33.8466L23.8233 40.0399V40.1049L23.8464 40.0724L23.8719 40.1049V40.0399L28.3798 33.8466L28.3983 33.8187Z" fill="url(#paint91_linear_2314_11999)"/>
<path id="Vector_150" style="mix-blend-mode:multiply" opacity="0.5" d="M20.2422 33.8188L23.848 28.8623L27.4561 33.8188L23.848 38.7777L20.2422 33.8188Z" fill="url(#paint92_linear_2314_11999)"/>
<path id="Vector_151" d="M20.4297 33.8181L23.8477 29.1191L27.2679 33.8181L23.8477 38.5171L20.4297 33.8181Z" fill="url(#paint93_linear_2314_11999)"/>
<g id="Vector_152" style="mix-blend-mode:soft-light" opacity="0.5">
<path d="M23.7922 27.9011C23.3887 28.2886 19.544 33.5096 19.6182 33.6535C19.6925 33.7974 21.1974 33.7997 24.0843 33.7672C26.9713 33.7347 28.1609 33.7394 28.1864 33.6535C28.2119 33.5677 23.8687 27.8291 23.7922 27.9011Z" fill="white"/>
</g>
<path id="Vector_153" style="mix-blend-mode:multiply" opacity="0.5" d="M19.4927 33.8347C19.4371 34.0667 23.6435 39.7959 23.9101 39.7054C24.1768 39.6149 28.3159 33.9692 28.0446 33.8184C27.7733 33.6676 19.5414 33.6281 19.4927 33.8347Z" fill="url(#paint94_linear_2314_11999)"/>
<path id="Vector_154" style="mix-blend-mode:multiply" opacity="0.5" d="M23.7875 35.1414L22.4843 35.8283L22.7348 34.3733L21.6797 33.3454L23.1359 33.1342L23.7875 31.8115L24.4414 33.1342L25.8977 33.3454L24.8426 34.3733L25.093 35.8283L23.7875 35.1414Z" fill="url(#paint95_linear_2314_11999)"/>
<path id="Vector_155" d="M25.7371 33.3989L25.0368 33.2968L24.8466 33.2689L24.3922 33.204L23.7893 31.9834L23.1887 33.204L21.8438 33.3989L22.8177 34.348L22.5881 35.6869L23.7893 35.0557L24.9927 35.6869L24.7632 34.348L25.7371 33.3989Z" fill="url(#paint96_linear_2314_11999)"/>
<path id="Vector_156" style="mix-blend-mode:multiply" opacity="0.5" d="M21.8359 33.3984L23.8162 33.9159L22.8098 34.3475L21.8359 33.3984Z" fill="url(#paint97_linear_2314_11999)"/>
<path id="Vector_157" style="mix-blend-mode:multiply" opacity="0.5" d="M25.7255 33.3984L23.8125 33.9159L24.7516 34.3475L25.7255 33.3984Z" fill="url(#paint98_linear_2314_11999)"/>
<path id="Vector_158" style="mix-blend-mode:multiply" opacity="0.5" d="M23.7816 35.0554L23.8141 33.916L22.5781 35.6865L23.7816 35.0554Z" fill="url(#paint99_linear_2314_11999)"/>
<path id="Vector_159" style="mix-blend-mode:multiply" opacity="0.5" d="M24.9824 35.6865L23.8137 33.916L23.7812 35.0554L24.9824 35.6865Z" fill="url(#paint100_linear_2314_11999)"/>
<path id="Vector_160" style="mix-blend-mode:color-dodge" opacity="0.5" d="M23.7812 31.9834L23.8137 33.9164L24.3818 33.204L23.7812 31.9834Z" fill="url(#paint101_linear_2314_11999)"/>
<path id="Vector_161" style="mix-blend-mode:color-dodge" opacity="0.5" d="M25.7255 33.3989L23.8125 33.916L24.3806 33.2041L25.7255 33.3989Z" fill="url(#paint102_linear_2314_11999)"/>
<path id="Vector_162" style="mix-blend-mode:color-dodge" opacity="0.5" d="M25.7255 33.3989L23.8125 33.916L24.3806 33.2041L25.7255 33.3989Z" fill="url(#paint103_linear_2314_11999)"/>
<path id="Vector_163" style="mix-blend-mode:color-dodge" opacity="0.5" d="M23.1809 33.2041L23.8162 33.916L21.8359 33.3989L23.1809 33.2041Z" fill="url(#paint104_linear_2314_11999)"/>
<path id="Vector_164" d="M24.3849 33.6258C24.2852 33.7116 24.3687 33.7673 24.3687 33.7673L24.8834 33.6281C24.8115 33.5745 24.7243 33.5453 24.6345 33.5449C24.5448 33.5445 24.4573 33.5729 24.3849 33.6258Z" fill="#E6ADFF"/>
<path id="Vector_165" style="mix-blend-mode:multiply" opacity="0.5" d="M22.5859 35.6864C22.5859 35.6864 23.4972 35.2574 23.7871 35.1391L24.9906 35.6864L23.7871 35.0557L22.5859 35.6864Z" fill="url(#paint105_linear_2314_11999)"/>
<path id="Vector_166" style="mix-blend-mode:multiply" opacity="0.5" d="M21.8359 33.3984L23.8162 33.9159L22.731 34.8534L21.8359 33.3984Z" fill="url(#paint106_linear_2314_11999)"/>
<path id="Vector_167" style="mix-blend-mode:multiply" opacity="0.5" d="M25.7255 33.3984L23.8125 33.9159L24.8676 34.9787L25.7255 33.3984Z" fill="url(#paint107_linear_2314_11999)"/>
<path id="Vector_168" style="mix-blend-mode:multiply" opacity="0.5" d="M22.5859 35.6865L23.8149 33.916L24.9906 35.6865L23.7871 35.4963L22.5859 35.6865Z" fill="url(#paint108_linear_2314_11999)"/>
<g id="Vector_169" style="mix-blend-mode:soft-light" opacity="0.4">
<path d="M23.3415 32.9925C23.214 33.3473 23.7009 33.5954 23.7682 33.4864C23.8232 33.2186 23.8023 32.9407 23.7079 32.6841C23.6267 32.603 23.3948 32.8464 23.3415 32.9925Z" fill="#F7FFFF"/>
</g>
<g id="Vector_170" style="mix-blend-mode:soft-light" opacity="0.4">
<path d="M22.9462 34.8067C23.2036 34.8438 23.3497 34.547 23.41 34.3429C23.4912 34.0206 22.4732 34.7464 22.9462 34.8067Z" fill="#F7FFFF"/>
</g>
<path id="Vector_171" style="mix-blend-mode:color-dodge" opacity="0.5" d="M31.2403 24.0475C36.8009 24.0475 41.3087 19.5365 41.3087 13.972C41.3087 8.40743 36.8009 3.89648 31.2403 3.89648C25.6797 3.89648 21.1719 8.40743 21.1719 13.972C21.1719 19.5365 25.6797 24.0475 31.2403 24.0475Z" fill="url(#paint109_radial_2314_11999)"/>
<path id="Vector_172" d="M1.27958 34.1531C1.37929 34.0557 1.38625 33.5684 1.38625 33.5684C1.38397 33.7607 1.41055 33.9524 1.46509 34.1369C1.6036 34.195 1.74832 34.237 1.89639 34.2622C1.75425 34.2629 1.6132 34.2872 1.479 34.3341C1.4298 34.5114 1.39949 34.6934 1.38857 34.8771C1.38147 34.7024 1.34623 34.53 1.28422 34.3666C1.1653 34.31 1.03737 34.2746 0.90625 34.2622C1.03664 34.2507 1.1635 34.2136 1.27958 34.1531Z" fill="url(#paint110_linear_2314_11999)"/>
<path id="Vector_173" d="M3.62416 30.6303C3.76097 30.5003 3.77024 29.832 3.77024 29.832C3.77024 29.832 3.79111 30.5282 3.87691 30.6094C4.06702 30.6879 4.26538 30.7447 4.46822 30.7788C4.27314 30.7806 4.07968 30.8143 3.89546 30.8786C3.82804 31.1211 3.78607 31.3699 3.77024 31.6211C3.77024 31.6211 3.72155 31.0108 3.62648 30.925C3.46328 30.8486 3.28853 30.8 3.10938 30.7811C3.28931 30.7657 3.46435 30.7145 3.62416 30.6303Z" fill="url(#paint111_linear_2314_11999)"/>
<path id="Vector_174" d="M14.7128 2.27143C14.8241 2.16701 14.8403 1.62402 14.8403 1.62402C14.8403 1.62402 14.8566 2.19254 14.9261 2.25287C15.0796 2.31652 15.2399 2.36245 15.4038 2.38978C15.2458 2.39099 15.0891 2.41844 14.9401 2.471C14.8856 2.66801 14.8522 2.87025 14.8403 3.07432C14.8308 2.88077 14.7917 2.68983 14.7244 2.50812C14.5918 2.44662 14.45 2.40741 14.3047 2.3921C14.4471 2.37801 14.5856 2.33707 14.7128 2.27143Z" fill="url(#paint112_linear_2314_11999)"/>
<path id="Vector_175" style="mix-blend-mode:color-dodge" opacity="0.6" d="M2.42193 34.2224C2.42193 34.4234 2.36236 34.6199 2.25076 34.7871C2.13916 34.9542 1.98054 35.0845 1.79495 35.1614C1.60936 35.2383 1.40515 35.2585 1.20813 35.2193C1.01112 35.18 0.830145 35.0832 0.688103 34.9411C0.546062 34.799 0.44933 34.6179 0.410141 34.4207C0.370952 34.2235 0.391065 34.0192 0.467937 33.8335C0.54481 33.6478 0.674988 33.489 0.842012 33.3773C1.00903 33.2657 1.2054 33.2061 1.40628 33.2061C1.67565 33.2061 1.93398 33.3131 2.12445 33.5037C2.31492 33.6943 2.42193 33.9529 2.42193 34.2224Z" fill="url(#paint113_radial_2314_11999)"/>
<path id="Vector_176" style="mix-blend-mode:color-dodge" opacity="0.6" d="M3.7861 33.1967C5.1436 33.1967 6.24407 32.0955 6.24407 30.737C6.24407 29.3786 5.1436 28.2773 3.7861 28.2773C2.4286 28.2773 1.32812 29.3786 1.32812 30.737C1.32812 32.0955 2.4286 33.1967 3.7861 33.1967Z" fill="url(#paint114_radial_2314_11999)"/>
<path id="Vector_177" style="mix-blend-mode:color-dodge" opacity="0.6" d="M16.0185 2.35093C16.0185 2.58295 15.9498 2.80978 15.8211 3.00277C15.6924 3.19576 15.5094 3.34625 15.2953 3.43526C15.0812 3.52426 14.8455 3.54778 14.618 3.50285C14.3905 3.45792 14.1815 3.34655 14.0172 3.18281C13.8529 3.01906 13.7408 2.81028 13.695 2.58282C13.6492 2.35537 13.6718 2.11943 13.7599 1.9048C13.848 1.69017 13.9976 1.50647 14.19 1.3769C14.3823 1.24733 14.6087 1.17768 14.8406 1.17677C14.995 1.17616 15.1481 1.20608 15.291 1.26481C15.4339 1.32354 15.5638 1.40993 15.6732 1.51902C15.7827 1.62812 15.8695 1.75776 15.9288 1.90052C15.988 2.04328 16.0185 2.19634 16.0185 2.35093Z" fill="url(#paint115_radial_2314_11999)"/>
<path id="Vector_178" d="M32.2101 3.82167C32.3886 3.65228 32.4002 2.78906 32.4002 2.78906C32.4002 2.78906 32.4234 3.69637 32.537 3.79383C32.7822 3.89581 33.0381 3.96976 33.2999 4.01427C33.2999 4.01427 32.6761 4.03748 32.5602 4.1419C32.479 4.21383 32.4002 5.10025 32.4002 5.10025C32.4002 5.10025 32.3353 4.31129 32.2147 4.19759C32.0038 4.09969 31.7781 4.03773 31.5469 4.01427C31.5469 4.01427 32.0733 3.94466 32.2101 3.82167Z" fill="url(#paint116_linear_2314_11999)"/>
<path id="Vector_179" style="mix-blend-mode:color-dodge" opacity="0.6" d="M34.3019 3.94525C34.3019 4.31608 34.192 4.67858 33.9862 4.98691C33.7803 5.29525 33.4877 5.53556 33.1453 5.67747C32.803 5.81938 32.4262 5.85651 32.0628 5.78417C31.6993 5.71182 31.3655 5.53325 31.1035 5.27104C30.8414 5.00882 30.663 4.67474 30.5907 4.31104C30.5184 3.94733 30.5555 3.57035 30.6973 3.22774C30.8391 2.88514 31.0793 2.59232 31.3874 2.3863C31.6955 2.18028 32.0577 2.07031 32.4283 2.07031C32.9252 2.07031 33.4018 2.26785 33.7532 2.61947C34.1045 2.97109 34.3019 3.44799 34.3019 3.94525Z" fill="url(#paint117_radial_2314_11999)"/>
<path id="Vector_180" d="M42.1811 31.6322C42.3574 31.4628 42.369 30.5996 42.369 30.5996C42.369 30.5996 42.3945 31.5092 42.5081 31.6067C42.7533 31.7081 43.0092 31.7813 43.271 31.8248C43.271 31.8248 42.6472 31.8503 42.5313 31.9548C42.4501 32.0267 42.369 32.9131 42.369 32.9131C42.369 32.9131 42.3063 32.1242 42.1834 32.0105C42.0606 31.8968 41.5156 31.8248 41.5156 31.8248C41.5156 31.8248 42.0443 31.7622 42.1811 31.6322Z" fill="url(#paint118_linear_2314_11999)"/>
<path id="Vector_181" style="mix-blend-mode:color-dodge" opacity="0.6" d="M44.2111 32.1876C44.4497 31.18 43.8268 30.1696 42.8199 29.9309C41.813 29.6921 40.8034 30.3154 40.5648 31.323C40.3262 32.3306 40.9491 33.341 41.956 33.5797C42.9629 33.8185 43.9725 33.1952 44.2111 32.1876Z" fill="url(#paint119_radial_2314_11999)"/>
<path id="Vector_182" d="M43.2112 35.2924C43.2993 35.2088 43.304 34.7842 43.304 34.7842C43.3003 34.9487 43.3206 35.1128 43.3643 35.2715C43.4858 35.3219 43.6126 35.3585 43.7422 35.3805C43.6173 35.3808 43.4933 35.4028 43.3759 35.4455C43.3337 35.5971 43.3073 35.7526 43.297 35.9096C43.2897 35.7581 43.2592 35.6086 43.2066 35.4664C43.102 35.4172 42.9899 35.3858 42.875 35.3736C42.9914 35.3692 43.1057 35.3416 43.2112 35.2924Z" fill="url(#paint120_linear_2314_11999)"/>
<path id="Vector_183" style="mix-blend-mode:color-dodge" opacity="0.6" d="M44.2379 35.3549C44.2379 35.5385 44.1835 35.718 44.0816 35.8706C43.9796 36.0233 43.8348 36.1422 43.6653 36.2125C43.4958 36.2827 43.3093 36.3011 43.1294 36.2653C42.9495 36.2295 42.7842 36.1411 42.6545 36.0113C42.5248 35.8815 42.4364 35.7161 42.4006 35.536C42.3648 35.356 42.3832 35.1693 42.4534 34.9997C42.5236 34.8301 42.6425 34.6852 42.795 34.5832C42.9476 34.4812 43.1269 34.4268 43.3103 34.4268C43.5563 34.4268 43.7923 34.5245 43.9662 34.6986C44.1402 34.8727 44.2379 35.1088 44.2379 35.3549Z" fill="url(#paint121_radial_2314_11999)"/>
</g>
</g>
</g>
<g id="Vector_184" filter="url(#filter0_d_2314_11999)">
<path d="M23.8647 16.5713H20.5469V26.9245H25.8357V25.2235H27.5604V20.971L23.8647 16.5713ZM25.8357 25.2072H22.2715V18.2887H23.0599L25.8357 21.5925V25.2072Z" fill="url(#paint122_linear_2314_11999)"/>
</g>
</g>
<defs>
<filter id="filter0_d_2314_11999" x="16.5469" y="16.5713" width="15.0156" height="18.3535" filterUnits="userSpaceOnUse" color-interpolation-filters="sRGB">
<feFlood flood-opacity="0" result="BackgroundImageFix"/>
<feColorMatrix in="SourceAlpha" type="matrix" values="0 0 0 0 0 0 0 0 0 0 0 0 0 0 0 0 0 0 127 0" result="hardAlpha"/>
<feOffset dy="4"/>
<feGaussianBlur stdDeviation="2"/>
<feComposite in2="hardAlpha" operator="out"/>
<feColorMatrix type="matrix" values="0 0 0 0 0.854902 0 0 0 0 0.329412 0 0 0 0 0.901961 0 0 0 0.5 0"/>
<feBlend mode="normal" in2="BackgroundImageFix" result="effect1_dropShadow_2314_11999"/>
<feBlend mode="normal" in="SourceGraphic" in2="effect1_dropShadow_2314_11999" result="shape"/>
</filter>
<linearGradient id="paint0_linear_2314_11999" x1="9.4375" y1="31.7048" x2="14.8937" y2="31.7048" gradientUnits="userSpaceOnUse">
<stop stop-color="#941F63"/>
<stop offset="0.56" stop-color="#DE108C"/>
<stop offset="1" stop-color="#FF144B"/>
</linearGradient>
<linearGradient id="paint1_linear_2314_11999" x1="9.4375" y1="34.559" x2="14.6711" y2="34.559" gradientUnits="userSpaceOnUse">
<stop stop-color="#FFA933"/>
<stop offset="0.05" stop-color="#FFB030"/>
<stop offset="0.18" stop-color="#FFBA2C"/>
<stop offset="0.34" stop-color="#FEBB2B"/>
<stop offset="0.43" stop-color="#EB9E2E"/>
<stop offset="0.52" stop-color="#DC8731"/>
<stop offset="0.62" stop-color="#D27733"/>
<stop offset="0.72" stop-color="#CC6E34"/>
<stop offset="0.87" stop-color="#CA6B34"/>
<stop offset="0.92" stop-color="#E39130"/>
<stop offset="0.97" stop-color="#F7B12C"/>
<stop offset="1" stop-color="#FFBD2B"/>
</linearGradient>
<linearGradient id="paint2_linear_2314_11999" x1="32.4609" y1="31.7048" x2="37.9172" y2="31.7048" gradientUnits="userSpaceOnUse">
<stop stop-color="#941F63"/>
<stop offset="0.56" stop-color="#DE108C"/>
<stop offset="1" stop-color="#FF144B"/>
</linearGradient>
<linearGradient id="paint3_linear_2314_11999" x1="32.6875" y1="34.559" x2="37.9211" y2="34.559" gradientUnits="userSpaceOnUse">
<stop stop-color="#FFA933"/>
<stop offset="0.05" stop-color="#FFB030"/>
<stop offset="0.18" stop-color="#FFBA2C"/>
<stop offset="0.34" stop-color="#FEBB2B"/>
<stop offset="0.43" stop-color="#EB9E2E"/>
<stop offset="0.52" stop-color="#DC8731"/>
<stop offset="0.62" stop-color="#D27733"/>
<stop offset="0.72" stop-color="#CC6E34"/>
<stop offset="0.87" stop-color="#CA6B34"/>
<stop offset="0.92" stop-color="#E39130"/>
<stop offset="0.97" stop-color="#F7B12C"/>
<stop offset="1" stop-color="#FFBD2B"/>
</linearGradient>
<linearGradient id="paint4_linear_2314_11999" x1="14.0156" y1="37.9951" x2="22.3263" y2="37.9951" gradientUnits="userSpaceOnUse">
<stop stop-color="#941F63"/>
<stop offset="0.56" stop-color="#DE108C"/>
<stop offset="1" stop-color="#FF144B"/>
</linearGradient>
<linearGradient id="paint5_linear_2314_11999" x1="14.0156" y1="40.1444" x2="22.3263" y2="40.1444" gradientUnits="userSpaceOnUse">
<stop stop-color="#FFA933"/>
<stop offset="0.05" stop-color="#FFB030"/>
<stop offset="0.18" stop-color="#FFBA2C"/>
<stop offset="0.34" stop-color="#FEBB2B"/>
<stop offset="0.43" stop-color="#EB9E2E"/>
<stop offset="0.52" stop-color="#DC8731"/>
<stop offset="0.62" stop-color="#D27733"/>
<stop offset="0.72" stop-color="#CC6E34"/>
<stop offset="0.87" stop-color="#CA6B34"/>
<stop offset="0.92" stop-color="#E39130"/>
<stop offset="0.97" stop-color="#F7B12C"/>
<stop offset="1" stop-color="#FFBD2B"/>
</linearGradient>
<linearGradient id="paint6_linear_2314_11999" x1="25.1484" y1="37.9951" x2="33.4592" y2="37.9951" gradientUnits="userSpaceOnUse">
<stop stop-color="#941F63"/>
<stop offset="0.56" stop-color="#DE108C"/>
<stop offset="1" stop-color="#FF144B"/>
</linearGradient>
<linearGradient id="paint7_linear_2314_11999" x1="25.1484" y1="40.1444" x2="33.4592" y2="40.1444" gradientUnits="userSpaceOnUse">
<stop stop-color="#FFA933"/>
<stop offset="0.05" stop-color="#FFB030"/>
<stop offset="0.18" stop-color="#FFBA2C"/>
<stop offset="0.34" stop-color="#FEBB2B"/>
<stop offset="0.43" stop-color="#EB9E2E"/>
<stop offset="0.52" stop-color="#DC8731"/>
<stop offset="0.62" stop-color="#D27733"/>
<stop offset="0.72" stop-color="#CC6E34"/>
<stop offset="0.87" stop-color="#CA6B34"/>
<stop offset="0.92" stop-color="#E39130"/>
<stop offset="0.97" stop-color="#F7B12C"/>
<stop offset="1" stop-color="#FFBD2B"/>
</linearGradient>
<linearGradient id="paint8_linear_2314_11999" x1="36.2412" y1="23.705" x2="36.2418" y2="17.4497" gradientUnits="userSpaceOnUse">
<stop stop-color="#F768CA"/>
<stop offset="0.45" stop-color="#C741D1"/>
<stop offset="0.81" stop-color="#6B24C7"/>
<stop offset="0.83" stop-color="#692AC7"/>
<stop offset="0.87" stop-color="#623BC6"/>
<stop offset="0.92" stop-color="#5758C6"/>
<stop offset="0.97" stop-color="#487FC5"/>
<stop offset="1" stop-color="#3D9AC4"/>
</linearGradient>
<linearGradient id="paint9_linear_2314_11999" x1="39.7812" y1="18.9838" x2="43.7047" y2="18.9838" gradientUnits="userSpaceOnUse">
<stop stop-color="#941F63"/>
<stop offset="0.56" stop-color="#DE108C"/>
<stop offset="1" stop-color="#FF144B"/>
</linearGradient>
<linearGradient id="paint10_linear_2314_11999" x1="36.0112" y1="20.9052" x2="36.0112" y2="19.5732" gradientUnits="userSpaceOnUse">
<stop stop-color="white"/>
<stop offset="0.44" stop-color="#881DED"/>
<stop offset="1" stop-color="#262262"/>
</linearGradient>
<linearGradient id="paint11_linear_2314_11999" x1="32.4372" y1="20.9054" x2="32.4372" y2="17.4502" gradientUnits="userSpaceOnUse">
<stop stop-color="white"/>
<stop offset="0.44" stop-color="#881DED"/>
<stop offset="1" stop-color="#262262"/>
</linearGradient>
<linearGradient id="paint12_linear_2314_11999" x1="15.0684" y1="29.9449" x2="15.0362" y2="23.698" gradientUnits="userSpaceOnUse">
<stop stop-color="#F768CA"/>
<stop offset="0.45" stop-color="#C741D1"/>
<stop offset="0.81" stop-color="#6B24C7"/>
<stop offset="0.83" stop-color="#692AC7"/>
<stop offset="0.87" stop-color="#623BC6"/>
<stop offset="0.92" stop-color="#5758C6"/>
<stop offset="0.97" stop-color="#487FC5"/>
<stop offset="1" stop-color="#3D9AC4"/>
</linearGradient>
<linearGradient id="paint13_linear_2314_11999" x1="3.72656" y1="19.0004" x2="7.65004" y2="19.0004" gradientUnits="userSpaceOnUse">
<stop stop-color="#941F63"/>
<stop offset="0.56" stop-color="#DE108C"/>
<stop offset="1" stop-color="#FF144B"/>
</linearGradient>
<linearGradient id="paint14_linear_2314_11999" x1="11.4666" y1="20.9052" x2="11.4666" y2="19.5732" gradientUnits="userSpaceOnUse">
<stop stop-color="white"/>
<stop offset="0.44" stop-color="#881DED"/>
<stop offset="1" stop-color="#262262"/>
</linearGradient>
<linearGradient id="paint15_linear_2314_11999" x1="15.0457" y1="20.9054" x2="15.0457" y2="17.4502" gradientUnits="userSpaceOnUse">
<stop stop-color="white"/>
<stop offset="0.44" stop-color="#881DED"/>
<stop offset="1" stop-color="#262262"/>
</linearGradient>
<linearGradient id="paint16_linear_2314_11999" x1="38.2644" y1="19.7573" x2="38.2629" y2="13.5008" gradientUnits="userSpaceOnUse">
<stop stop-color="#F768CA"/>
<stop offset="0.45" stop-color="#C741D1"/>
<stop offset="0.81" stop-color="#6B24C7"/>
<stop offset="0.83" stop-color="#692AC7"/>
<stop offset="0.87" stop-color="#623BC6"/>
<stop offset="0.92" stop-color="#5758C6"/>
<stop offset="0.97" stop-color="#487FC5"/>
<stop offset="1" stop-color="#3D9AC4"/>
</linearGradient>
<linearGradient id="paint17_linear_2314_11999" x1="41.9141" y1="15.0434" x2="45.8375" y2="15.0434" gradientUnits="userSpaceOnUse">
<stop stop-color="#941F63"/>
<stop offset="0.56" stop-color="#DE108C"/>
<stop offset="1" stop-color="#FF144B"/>
</linearGradient>
<linearGradient id="paint18_linear_2314_11999" x1="38.0346" y1="16.9579" x2="38.0346" y2="15.626" gradientUnits="userSpaceOnUse">
<stop stop-color="white"/>
<stop offset="0.44" stop-color="#881DED"/>
<stop offset="1" stop-color="#262262"/>
</linearGradient>
<linearGradient id="paint19_linear_2314_11999" x1="33.2665" y1="16.9582" x2="33.2665" y2="13.5332" gradientUnits="userSpaceOnUse">
<stop stop-color="white"/>
<stop offset="0.44" stop-color="#881DED"/>
<stop offset="1" stop-color="#262262"/>
</linearGradient>
<linearGradient id="paint20_linear_2314_11999" x1="12.9095" y1="26.0145" x2="12.8773" y2="19.7676" gradientUnits="userSpaceOnUse">
<stop stop-color="#F768CA"/>
<stop offset="0.45" stop-color="#C741D1"/>
<stop offset="0.81" stop-color="#6B24C7"/>
<stop offset="0.83" stop-color="#692AC7"/>
<stop offset="0.87" stop-color="#623BC6"/>
<stop offset="0.92" stop-color="#5758C6"/>
<stop offset="0.97" stop-color="#487FC5"/>
<stop offset="1" stop-color="#3D9AC4"/>
</linearGradient>
<linearGradient id="paint21_linear_2314_11999" x1="1.57031" y1="15.0551" x2="5.49379" y2="15.0551" gradientUnits="userSpaceOnUse">
<stop stop-color="#941F63"/>
<stop offset="0.56" stop-color="#DE108C"/>
<stop offset="1" stop-color="#FF144B"/>
</linearGradient>
<linearGradient id="paint22_linear_2314_11999" x1="9.3237" y1="16.9579" x2="9.3237" y2="15.626" gradientUnits="userSpaceOnUse">
<stop stop-color="white"/>
<stop offset="0.44" stop-color="#881DED"/>
<stop offset="1" stop-color="#262262"/>
</linearGradient>
<linearGradient id="paint23_linear_2314_11999" x1="14.1443" y1="16.9582" x2="14.1443" y2="13.5332" gradientUnits="userSpaceOnUse">
<stop stop-color="white"/>
<stop offset="0.44" stop-color="#881DED"/>
<stop offset="1" stop-color="#262262"/>
</linearGradient>
<linearGradient id="paint24_linear_2314_11999" x1="16.3629" y1="13.591" x2="16.3629" y2="-2.37616" gradientUnits="userSpaceOnUse">
<stop stop-color="#F768CA"/>
<stop offset="0.45" stop-color="#C741D1"/>
<stop offset="0.81" stop-color="#6B24C7"/>
<stop offset="0.83" stop-color="#692AC7"/>
<stop offset="0.87" stop-color="#623BC6"/>
<stop offset="0.92" stop-color="#5758C6"/>
<stop offset="0.97" stop-color="#487FC5"/>
<stop offset="1" stop-color="#3D9AC4"/>
</linearGradient>
<linearGradient id="paint25_linear_2314_11999" x1="15.1548" y1="13.1573" x2="15.1548" y2="2.86602" gradientUnits="userSpaceOnUse">
<stop stop-color="#F768CA"/>
<stop offset="0.45" stop-color="#C741D1"/>
<stop offset="0.81" stop-color="#6B24C7"/>
<stop offset="0.83" stop-color="#692AC7"/>
<stop offset="0.87" stop-color="#623BC6"/>
<stop offset="0.92" stop-color="#5758C6"/>
<stop offset="0.97" stop-color="#487FC5"/>
<stop offset="1" stop-color="#3D9AC4"/>
</linearGradient>
<linearGradient id="paint26_linear_2314_11999" x1="16.5035" y1="9.52831" x2="16.5035" y2="16.0071" gradientUnits="userSpaceOnUse">
<stop stop-color="#705AB8"/>
<stop offset="1" stop-color="white"/>
</linearGradient>
<linearGradient id="paint27_linear_2314_11999" x1="19.4935" y1="13.3082" x2="19.4935" y2="6.55566" gradientUnits="userSpaceOnUse">
<stop stop-color="white"/>
<stop offset="0.44" stop-color="#881DED"/>
<stop offset="1" stop-color="#262262"/>
</linearGradient>
<linearGradient id="paint28_linear_2314_11999" x1="31.0892" y1="13.591" x2="31.0892" y2="-2.37616" gradientUnits="userSpaceOnUse">
<stop stop-color="#F768CA"/>
<stop offset="0.45" stop-color="#C741D1"/>
<stop offset="0.81" stop-color="#6B24C7"/>
<stop offset="0.83" stop-color="#692AC7"/>
<stop offset="0.87" stop-color="#623BC6"/>
<stop offset="0.92" stop-color="#5758C6"/>
<stop offset="0.97" stop-color="#487FC5"/>
<stop offset="1" stop-color="#3D9AC4"/>
</linearGradient>
<linearGradient id="paint29_linear_2314_11999" x1="32.3244" y1="13.1573" x2="32.3244" y2="2.86602" gradientUnits="userSpaceOnUse">
<stop stop-color="#F768CA"/>
<stop offset="0.45" stop-color="#C741D1"/>
<stop offset="0.81" stop-color="#6B24C7"/>
<stop offset="0.83" stop-color="#692AC7"/>
<stop offset="0.87" stop-color="#623BC6"/>
<stop offset="0.92" stop-color="#5758C6"/>
<stop offset="0.97" stop-color="#487FC5"/>
<stop offset="1" stop-color="#3D9AC4"/>
</linearGradient>
<linearGradient id="paint30_linear_2314_11999" x1="30.9726" y1="9.52831" x2="30.9726" y2="16.0071" gradientUnits="userSpaceOnUse">
<stop stop-color="#705AB8"/>
<stop offset="1" stop-color="white"/>
</linearGradient>
<linearGradient id="paint31_linear_2314_11999" x1="27.9779" y1="13.3082" x2="27.9779" y2="6.55566" gradientUnits="userSpaceOnUse">
<stop stop-color="white"/>
<stop offset="0.44" stop-color="#881DED"/>
<stop offset="1" stop-color="#262262"/>
</linearGradient>
<linearGradient id="paint32_linear_2314_11999" x1="8.22574" y1="28.8292" x2="8.22574" y2="21.9212" gradientUnits="userSpaceOnUse">
<stop stop-color="#F768CA"/>
<stop offset="0.45" stop-color="#C741D1"/>
<stop offset="0.81" stop-color="#6B24C7"/>
<stop offset="0.83" stop-color="#692AC7"/>
<stop offset="0.87" stop-color="#623BC6"/>
<stop offset="0.92" stop-color="#5758C6"/>
<stop offset="0.97" stop-color="#487FC5"/>
<stop offset="1" stop-color="#3D9AC4"/>
</linearGradient>
<linearGradient id="paint33_linear_2314_11999" x1="9.03265" y1="25.1145" x2="9.03265" y2="28.3376" gradientUnits="userSpaceOnUse">
<stop stop-color="#705AB8"/>
<stop offset="1" stop-color="white"/>
</linearGradient>
<linearGradient id="paint34_linear_2314_11999" x1="10.7907" y1="28.8455" x2="10.7907" y2="21.8701" gradientUnits="userSpaceOnUse">
<stop stop-color="white"/>
<stop offset="0.44" stop-color="#881DED"/>
<stop offset="1" stop-color="#262262"/>
</linearGradient>
<linearGradient id="paint35_linear_2314_11999" x1="39.2515" y1="28.8292" x2="39.2515" y2="21.9212" gradientUnits="userSpaceOnUse">
<stop stop-color="#F768CA"/>
<stop offset="0.45" stop-color="#C741D1"/>
<stop offset="0.81" stop-color="#6B24C7"/>
<stop offset="0.83" stop-color="#692AC7"/>
<stop offset="0.87" stop-color="#623BC6"/>
<stop offset="0.92" stop-color="#5758C6"/>
<stop offset="0.97" stop-color="#487FC5"/>
<stop offset="1" stop-color="#3D9AC4"/>
</linearGradient>
<linearGradient id="paint36_linear_2314_11999" x1="38.4414" y1="25.1145" x2="38.4414" y2="28.3376" gradientUnits="userSpaceOnUse">
<stop stop-color="#705AB8"/>
<stop offset="1" stop-color="white"/>
</linearGradient>
<linearGradient id="paint37_linear_2314_11999" x1="36.6814" y1="28.8455" x2="36.6814" y2="21.8701" gradientUnits="userSpaceOnUse">
<stop stop-color="white"/>
<stop offset="0.44" stop-color="#881DED"/>
<stop offset="1" stop-color="#262262"/>
</linearGradient>
<linearGradient id="paint38_linear_2314_11999" x1="34.3269" y1="12.1294" x2="34.3269" y2="7.25641" gradientUnits="userSpaceOnUse">
<stop stop-color="#F768CA"/>
<stop offset="0.45" stop-color="#C741D1"/>
<stop offset="0.81" stop-color="#6B24C7"/>
<stop offset="0.83" stop-color="#692AC7"/>
<stop offset="0.87" stop-color="#623BC6"/>
<stop offset="0.92" stop-color="#5758C6"/>
<stop offset="0.97" stop-color="#487FC5"/>
<stop offset="1" stop-color="#3D9AC4"/>
</linearGradient>
<linearGradient id="paint39_linear_2314_11999" x1="37.0524" y1="10.5607" x2="32.0771" y2="8.12693" gradientUnits="userSpaceOnUse">
<stop stop-color="#705AB8"/>
<stop offset="1" stop-color="white"/>
</linearGradient>
<linearGradient id="paint40_linear_2314_11999" x1="38.5176" y1="7.57173" x2="33.5424" y2="5.138" gradientUnits="userSpaceOnUse">
<stop stop-color="#705AB8"/>
<stop offset="1" stop-color="white"/>
</linearGradient>
<linearGradient id="paint41_linear_2314_11999" x1="32.7629" y1="13.136" x2="32.7629" y2="8.64355" gradientUnits="userSpaceOnUse">
<stop stop-color="white"/>
<stop offset="0.44" stop-color="#881DED"/>
<stop offset="1" stop-color="#262262"/>
</linearGradient>
<linearGradient id="paint42_linear_2314_11999" x1="13.1539" y1="12.1291" x2="13.1539" y2="7.25609" gradientUnits="userSpaceOnUse">
<stop stop-color="#F768CA"/>
<stop offset="0.45" stop-color="#C741D1"/>
<stop offset="0.81" stop-color="#6B24C7"/>
<stop offset="0.83" stop-color="#692AC7"/>
<stop offset="0.87" stop-color="#623BC6"/>
<stop offset="0.92" stop-color="#5758C6"/>
<stop offset="0.97" stop-color="#487FC5"/>
<stop offset="1" stop-color="#3D9AC4"/>
</linearGradient>
<linearGradient id="paint43_linear_2314_11999" x1="10.4234" y1="10.5607" x2="15.3987" y2="8.12693" gradientUnits="userSpaceOnUse">
<stop stop-color="#705AB8"/>
<stop offset="1" stop-color="white"/>
</linearGradient>
<linearGradient id="paint44_linear_2314_11999" x1="8.9552" y1="7.57173" x2="13.9305" y2="5.138" gradientUnits="userSpaceOnUse">
<stop stop-color="#705AB8"/>
<stop offset="1" stop-color="white"/>
</linearGradient>
<linearGradient id="paint45_linear_2314_11999" x1="14.716" y1="13.136" x2="14.716" y2="8.64355" gradientUnits="userSpaceOnUse">
<stop stop-color="white"/>
<stop offset="0.44" stop-color="#881DED"/>
<stop offset="1" stop-color="#262262"/>
</linearGradient>
<linearGradient id="paint46_linear_2314_11999" x1="23.7861" y1="38.3156" x2="23.7861" y2="10.8552" gradientUnits="userSpaceOnUse">
<stop stop-color="#F768CA"/>
<stop offset="0.45" stop-color="#C741D1"/>
<stop offset="0.81" stop-color="#6B24C7"/>
<stop offset="0.83" stop-color="#692AC7"/>
<stop offset="0.87" stop-color="#623BC6"/>
<stop offset="0.92" stop-color="#5758C6"/>
<stop offset="0.97" stop-color="#487FC5"/>
<stop offset="1" stop-color="#3D9AC4"/>
</linearGradient>
<linearGradient id="paint47_linear_2314_11999" x1="23.7888" y1="6.02619" x2="23.7888" y2="33.6282" gradientUnits="userSpaceOnUse">
<stop stop-color="#3D9AC4"/>
<stop offset="0.03" stop-color="#487FC5"/>
<stop offset="0.08" stop-color="#5758C6"/>
<stop offset="0.13" stop-color="#623BC6"/>
<stop offset="0.17" stop-color="#692AC7"/>
<stop offset="0.19" stop-color="#6B24C7"/>
<stop offset="0.55" stop-color="#C741D1"/>
<stop offset="1" stop-color="#F768CA"/>
</linearGradient>
<linearGradient id="paint48_linear_2314_11999" x1="23.7837" y1="34.2459" x2="23.7837" y2="9.26367" gradientUnits="userSpaceOnUse">
<stop stop-color="#D36AF0"/>
<stop offset="0.01" stop-color="#D068EE"/>
<stop offset="0.2" stop-color="#9B46CB"/>
<stop offset="0.37" stop-color="#742CB1"/>
<stop offset="0.5" stop-color="#5C1DA2"/>
<stop offset="0.59" stop-color="#53199D"/>
<stop offset="0.71" stop-color="#4F3DA9"/>
<stop offset="0.82" stop-color="#4C57B2"/>
<stop offset="0.92" stop-color="#4B66B8"/>
<stop offset="1" stop-color="#4A6CBA"/>
</linearGradient>
<linearGradient id="paint49_linear_2314_11999" x1="12.283" y1="22.6318" x2="12.283" y2="30.1664" gradientUnits="userSpaceOnUse">
<stop stop-color="#705AB8"/>
<stop offset="1" stop-color="white"/>
</linearGradient>
<linearGradient id="paint50_linear_2314_11999" x1="35.2434" y1="22.6318" x2="35.2434" y2="30.1664" gradientUnits="userSpaceOnUse">
<stop stop-color="#705AB8"/>
<stop offset="1" stop-color="white"/>
</linearGradient>
<linearGradient id="paint51_linear_2314_11999" x1="17.7165" y1="29.5183" x2="17.7165" y2="37.3035" gradientUnits="userSpaceOnUse">
<stop stop-color="#705AB8"/>
<stop offset="1" stop-color="white"/>
</linearGradient>
<linearGradient id="paint52_linear_2314_11999" x1="29.8604" y1="29.5183" x2="29.8604" y2="37.4566" gradientUnits="userSpaceOnUse">
<stop stop-color="#705AB8"/>
<stop offset="1" stop-color="white"/>
</linearGradient>
<linearGradient id="paint53_linear_2314_11999" x1="14.3755" y1="25.9988" x2="33.1465" y2="25.9988" gradientUnits="userSpaceOnUse">
<stop stop-color="#705AB8"/>
<stop offset="1" stop-color="white"/>
</linearGradient>
<linearGradient id="paint54_linear_2314_11999" x1="23.7888" y1="29.145" x2="23.7888" y2="8.38379" gradientUnits="userSpaceOnUse">
<stop stop-color="white"/>
<stop offset="0.44" stop-color="#881DED"/>
<stop offset="1" stop-color="#262262"/>
</linearGradient>
<linearGradient id="paint55_linear_2314_11999" x1="11.1484" y1="12.0456" x2="28.6395" y2="12.0456" gradientUnits="userSpaceOnUse">
<stop stop-color="#728EE3"/>
<stop offset="1" stop-color="#836888"/>
</linearGradient>
<linearGradient id="paint56_linear_2314_11999" x1="11.1484" y1="29.6762" x2="36.4238" y2="29.6762" gradientUnits="userSpaceOnUse">
<stop stop-color="#728EE3"/>
<stop offset="1" stop-color="#836888"/>
</linearGradient>
<linearGradient id="paint57_linear_2314_11999" x1="32.3984" y1="34.181" x2="32.3984" y2="29.6747" gradientUnits="userSpaceOnUse">
<stop stop-color="white"/>
<stop offset="0.44" stop-color="#881DED"/>
<stop offset="1" stop-color="#262262"/>
</linearGradient>
<linearGradient id="paint58_linear_2314_11999" x1="13.8119" y1="23.4928" x2="13.8119" y2="14.4104" gradientUnits="userSpaceOnUse">
<stop stop-color="white"/>
<stop offset="0.44" stop-color="#881DED"/>
<stop offset="1" stop-color="#262262"/>
</linearGradient>
<linearGradient id="paint59_linear_2314_11999" x1="33.7256" y1="22.7312" x2="33.7256" y2="14.5446" gradientUnits="userSpaceOnUse">
<stop stop-color="white"/>
<stop offset="0.44" stop-color="#881DED"/>
<stop offset="1" stop-color="#262262"/>
</linearGradient>
<linearGradient id="paint60_linear_2314_11999" x1="21.4877" y1="11.8321" x2="21.4877" y2="8.4465" gradientUnits="userSpaceOnUse">
<stop stop-color="white"/>
<stop offset="0.44" stop-color="#881DED"/>
<stop offset="1" stop-color="#262262"/>
</linearGradient>
<linearGradient id="paint61_linear_2314_11999" x1="32.4762" y1="30.6718" x2="32.4762" y2="29.7373" gradientUnits="userSpaceOnUse">
<stop stop-color="white"/>
<stop offset="0.44" stop-color="#881DED"/>
<stop offset="1" stop-color="#262262"/>
</linearGradient>
<linearGradient id="paint62_linear_2314_11999" x1="33.6545" y1="30.4977" x2="33.6545" y2="29.925" gradientUnits="userSpaceOnUse">
<stop stop-color="white"/>
<stop offset="0.44" stop-color="#881DED"/>
<stop offset="1" stop-color="#262262"/>
</linearGradient>
<linearGradient id="paint63_linear_2314_11999" x1="21.8671" y1="9.89631" x2="21.8671" y2="9.00588" gradientUnits="userSpaceOnUse">
<stop stop-color="white"/>
<stop offset="0.44" stop-color="#881DED"/>
<stop offset="1" stop-color="#262262"/>
</linearGradient>
<linearGradient id="paint64_linear_2314_11999" x1="23.7372" y1="11.1196" x2="23.7372" y2="31.0223" gradientUnits="userSpaceOnUse">
<stop stop-color="#F768CA"/>
<stop offset="0.45" stop-color="#C741D1"/>
<stop offset="0.81" stop-color="#6B24C7"/>
<stop offset="0.83" stop-color="#692AC7"/>
<stop offset="0.87" stop-color="#623BC6"/>
<stop offset="0.92" stop-color="#5758C6"/>
<stop offset="0.97" stop-color="#487FC5"/>
<stop offset="1" stop-color="#3D9AC4"/>
</linearGradient>
<linearGradient id="paint65_linear_2314_11999" x1="23.7395" y1="33.4616" x2="23.7395" y2="24.5742" gradientUnits="userSpaceOnUse">
<stop stop-color="#F768CA"/>
<stop offset="0.45" stop-color="#C741D1"/>
<stop offset="0.81" stop-color="#6B24C7"/>
<stop offset="0.83" stop-color="#692AC7"/>
<stop offset="0.87" stop-color="#623BC6"/>
<stop offset="0.92" stop-color="#5758C6"/>
<stop offset="0.97" stop-color="#487FC5"/>
<stop offset="1" stop-color="#3D9AC4"/>
</linearGradient>
<linearGradient id="paint66_linear_2314_11999" x1="23.7372" y1="34.2459" x2="23.7372" y2="24.5742" gradientUnits="userSpaceOnUse">
<stop stop-color="white"/>
<stop offset="0.44" stop-color="#881DED"/>
<stop offset="1" stop-color="#262262"/>
</linearGradient>
<linearGradient id="paint67_linear_2314_11999" x1="30.5755" y1="22.3438" x2="30.5755" y2="32.5863" gradientUnits="userSpaceOnUse">
<stop stop-color="#705AB8"/>
<stop offset="1" stop-color="white"/>
</linearGradient>
<linearGradient id="paint68_linear_2314_11999" x1="23.7372" y1="23.2608" x2="23.7372" y2="3.36046" gradientUnits="userSpaceOnUse">
<stop stop-color="#F768CA"/>
<stop offset="0.45" stop-color="#C741D1"/>
<stop offset="0.81" stop-color="#6B24C7"/>
<stop offset="0.83" stop-color="#692AC7"/>
<stop offset="0.87" stop-color="#623BC6"/>
<stop offset="0.92" stop-color="#5758C6"/>
<stop offset="0.97" stop-color="#487FC5"/>
<stop offset="1" stop-color="#3D9AC4"/>
</linearGradient>
<linearGradient id="paint69_linear_2314_11999" x1="23.7395" y1="9.87402" x2="23.7395" y2="18.7614" gradientUnits="userSpaceOnUse">
<stop stop-color="#F768CA"/>
<stop offset="0.45" stop-color="#C741D1"/>
<stop offset="0.81" stop-color="#6B24C7"/>
<stop offset="0.83" stop-color="#692AC7"/>
<stop offset="0.87" stop-color="#623BC6"/>
<stop offset="0.92" stop-color="#5758C6"/>
<stop offset="0.97" stop-color="#487FC5"/>
<stop offset="1" stop-color="#3D9AC4"/>
</linearGradient>
<linearGradient id="paint70_linear_2314_11999" x1="11.1094" y1="17.4452" x2="36.4242" y2="17.4452" gradientUnits="userSpaceOnUse">
<stop stop-color="#8980EB"/>
<stop offset="1" stop-color="#705AB8"/>
</linearGradient>
<linearGradient id="paint71_linear_2314_11999" x1="23.8664" y1="15.1898" x2="23.8664" y2="5.74316" gradientUnits="userSpaceOnUse">
<stop stop-color="white"/>
<stop offset="0.44" stop-color="#881DED"/>
<stop offset="1" stop-color="#262262"/>
</linearGradient>
<linearGradient id="paint72_linear_2314_11999" x1="23.8464" y1="14.9187" x2="23.8464" y2="3.91737" gradientUnits="userSpaceOnUse">
<stop stop-color="#F768CA"/>
<stop offset="0.45" stop-color="#C741D1"/>
<stop offset="0.81" stop-color="#6B24C7"/>
<stop offset="0.83" stop-color="#692AC7"/>
<stop offset="0.87" stop-color="#623BC6"/>
<stop offset="0.92" stop-color="#5758C6"/>
<stop offset="0.97" stop-color="#487FC5"/>
<stop offset="1" stop-color="#3D9AC4"/>
</linearGradient>
<linearGradient id="paint73_linear_2314_11999" x1="23.848" y1="13.8597" x2="23.848" y2="3.94434" gradientUnits="userSpaceOnUse">
<stop stop-color="white"/>
<stop offset="0.44" stop-color="#881DED"/>
<stop offset="1" stop-color="#262262"/>
</linearGradient>
<linearGradient id="paint74_linear_2314_11999" x1="20.4297" y1="8.90403" x2="27.2679" y2="8.90403" gradientUnits="userSpaceOnUse">
<stop stop-color="#941F63"/>
<stop offset="0.56" stop-color="#DE108C"/>
<stop offset="1" stop-color="#FF144B"/>
</linearGradient>
<linearGradient id="paint75_linear_2314_11999" x1="23.7756" y1="8.77834" x2="23.7756" y2="14.7907" gradientUnits="userSpaceOnUse">
<stop stop-color="#705AB8"/>
<stop offset="1" stop-color="white"/>
</linearGradient>
<linearGradient id="paint76_linear_2314_11999" x1="23.7875" y1="10.9109" x2="23.7875" y2="6.89648" gradientUnits="userSpaceOnUse">
<stop stop-color="white"/>
<stop offset="0.44" stop-color="#881DED"/>
<stop offset="1" stop-color="#262262"/>
</linearGradient>
<linearGradient id="paint77_linear_2314_11999" x1="23.7893" y1="10.8414" x2="23.7893" y2="6.43951" gradientUnits="userSpaceOnUse">
<stop stop-color="#F768CA"/>
<stop offset="0.45" stop-color="#C741D1"/>
<stop offset="0.81" stop-color="#6B24C7"/>
<stop offset="0.83" stop-color="#692AC7"/>
<stop offset="0.87" stop-color="#623BC6"/>
<stop offset="0.92" stop-color="#5758C6"/>
<stop offset="0.97" stop-color="#487FC5"/>
<stop offset="1" stop-color="#3D9AC4"/>
</linearGradient>
<linearGradient id="paint78_linear_2314_11999" x1="22.8261" y1="8.4834" x2="22.8261" y2="9.43247" gradientUnits="userSpaceOnUse">
<stop stop-color="#705AB8"/>
<stop offset="1" stop-color="white"/>
</linearGradient>
<linearGradient id="paint79_linear_2314_11999" x1="24.7702" y1="8.4834" x2="24.7702" y2="9.43247" gradientUnits="userSpaceOnUse">
<stop stop-color="#705AB8"/>
<stop offset="1" stop-color="white"/>
</linearGradient>
<linearGradient id="paint80_linear_2314_11999" x1="23.1973" y1="9.00098" x2="23.1973" y2="10.7715" gradientUnits="userSpaceOnUse">
<stop stop-color="#705AB8"/>
<stop offset="1" stop-color="white"/>
</linearGradient>
<linearGradient id="paint81_linear_2314_11999" x1="24.3818" y1="9.00098" x2="24.3818" y2="10.7715" gradientUnits="userSpaceOnUse">
<stop stop-color="#705AB8"/>
<stop offset="1" stop-color="white"/>
</linearGradient>
<linearGradient id="paint82_linear_2314_11999" x1="23.9575" y1="7.35842" x2="24.2268" y2="9.82968" gradientUnits="userSpaceOnUse">
<stop stop-color="#BFD7FF"/>
<stop offset="1"/>
</linearGradient>
<linearGradient id="paint83_linear_2314_11999" x1="23.8125" y1="8.64323" x2="25.7255" y2="8.64323" gradientUnits="userSpaceOnUse">
<stop stop-color="#BFD7FF"/>
<stop offset="1"/>
</linearGradient>
<linearGradient id="paint84_linear_2314_11999" x1="24.6102" y1="7.28671" x2="24.8792" y2="9.75628" gradientUnits="userSpaceOnUse">
<stop stop-color="#BFD7FF"/>
<stop offset="1"/>
</linearGradient>
<linearGradient id="paint85_linear_2314_11999" x1="22.6916" y1="7.49773" x2="22.9606" y2="9.96497" gradientUnits="userSpaceOnUse">
<stop stop-color="#BFD7FF"/>
<stop offset="1"/>
</linearGradient>
<linearGradient id="paint86_linear_2314_11999" x1="23.7871" y1="10.7707" x2="23.7871" y2="10.1377" gradientUnits="userSpaceOnUse">
<stop stop-color="white"/>
<stop offset="0.44" stop-color="#881DED"/>
<stop offset="1" stop-color="#262262"/>
</linearGradient>
<linearGradient id="paint87_linear_2314_11999" x1="22.8261" y1="9.93601" x2="22.8261" y2="8.4834" gradientUnits="userSpaceOnUse">
<stop stop-color="white"/>
<stop offset="0.44" stop-color="#881DED"/>
<stop offset="1" stop-color="#262262"/>
</linearGradient>
<linearGradient id="paint88_linear_2314_11999" x1="24.7702" y1="10.0613" x2="24.7702" y2="8.4834" gradientUnits="userSpaceOnUse">
<stop stop-color="white"/>
<stop offset="0.44" stop-color="#881DED"/>
<stop offset="1" stop-color="#262262"/>
</linearGradient>
<linearGradient id="paint89_linear_2314_11999" x1="23.7871" y1="10.7715" x2="23.7871" y2="9.00098" gradientUnits="userSpaceOnUse">
<stop stop-color="white"/>
<stop offset="0.44" stop-color="#881DED"/>
<stop offset="1" stop-color="#262262"/>
</linearGradient>
<linearGradient id="paint90_linear_2314_11999" x1="23.95" y1="37.7657" x2="23.95" y2="27.9014" gradientUnits="userSpaceOnUse">
<stop stop-color="white"/>
<stop offset="0.44" stop-color="#881DED"/>
<stop offset="1" stop-color="#262262"/>
</linearGradient>
<linearGradient id="paint91_linear_2314_11999" x1="23.8464" y1="39.8334" x2="23.8464" y2="28.8344" gradientUnits="userSpaceOnUse">
<stop stop-color="#F768CA"/>
<stop offset="0.45" stop-color="#C741D1"/>
<stop offset="0.81" stop-color="#6B24C7"/>
<stop offset="0.83" stop-color="#692AC7"/>
<stop offset="0.87" stop-color="#623BC6"/>
<stop offset="0.92" stop-color="#5758C6"/>
<stop offset="0.97" stop-color="#487FC5"/>
<stop offset="1" stop-color="#3D9AC4"/>
</linearGradient>
<linearGradient id="paint92_linear_2314_11999" x1="23.848" y1="38.7777" x2="23.848" y2="28.8623" gradientUnits="userSpaceOnUse">
<stop stop-color="white"/>
<stop offset="0.44" stop-color="#881DED"/>
<stop offset="1" stop-color="#262262"/>
</linearGradient>
<linearGradient id="paint93_linear_2314_11999" x1="20.4297" y1="33.8181" x2="27.2679" y2="33.8181" gradientUnits="userSpaceOnUse">
<stop stop-color="#941F63"/>
<stop offset="0.56" stop-color="#DE108C"/>
<stop offset="1" stop-color="#FF144B"/>
</linearGradient>
<linearGradient id="paint94_linear_2314_11999" x1="23.7756" y1="33.6931" x2="23.7756" y2="39.7054" gradientUnits="userSpaceOnUse">
<stop stop-color="#705AB8"/>
<stop offset="1" stop-color="white"/>
</linearGradient>
<linearGradient id="paint95_linear_2314_11999" x1="23.7875" y1="35.8259" x2="23.7875" y2="31.8115" gradientUnits="userSpaceOnUse">
<stop stop-color="white"/>
<stop offset="0.44" stop-color="#881DED"/>
<stop offset="1" stop-color="#262262"/>
</linearGradient>
<linearGradient id="paint96_linear_2314_11999" x1="23.7893" y1="35.7565" x2="23.7893" y2="31.3569" gradientUnits="userSpaceOnUse">
<stop stop-color="#F768CA"/>
<stop offset="0.45" stop-color="#C741D1"/>
<stop offset="0.81" stop-color="#6B24C7"/>
<stop offset="0.83" stop-color="#692AC7"/>
<stop offset="0.87" stop-color="#623BC6"/>
<stop offset="0.92" stop-color="#5758C6"/>
<stop offset="0.97" stop-color="#487FC5"/>
<stop offset="1" stop-color="#3D9AC4"/>
</linearGradient>
<linearGradient id="paint97_linear_2314_11999" x1="22.8261" y1="33.3984" x2="22.8261" y2="34.3475" gradientUnits="userSpaceOnUse">
<stop stop-color="#705AB8"/>
<stop offset="1" stop-color="white"/>
</linearGradient>
<linearGradient id="paint98_linear_2314_11999" x1="24.7702" y1="33.3984" x2="24.7702" y2="34.3475" gradientUnits="userSpaceOnUse">
<stop stop-color="#705AB8"/>
<stop offset="1" stop-color="white"/>
</linearGradient>
<linearGradient id="paint99_linear_2314_11999" x1="23.1973" y1="33.916" x2="23.1973" y2="35.6865" gradientUnits="userSpaceOnUse">
<stop stop-color="#705AB8"/>
<stop offset="1" stop-color="white"/>
</linearGradient>
<linearGradient id="paint100_linear_2314_11999" x1="24.3818" y1="33.916" x2="24.3818" y2="35.6865" gradientUnits="userSpaceOnUse">
<stop stop-color="#705AB8"/>
<stop offset="1" stop-color="white"/>
</linearGradient>
<linearGradient id="paint101_linear_2314_11999" x1="23.9575" y1="32.2758" x2="24.2268" y2="34.7447" gradientUnits="userSpaceOnUse">
<stop stop-color="#BFD7FF"/>
<stop offset="1"/>
</linearGradient>
<linearGradient id="paint102_linear_2314_11999" x1="23.8125" y1="33.5589" x2="25.7255" y2="33.5589" gradientUnits="userSpaceOnUse">
<stop stop-color="#BFD7FF"/>
<stop offset="1"/>
</linearGradient>
<linearGradient id="paint103_linear_2314_11999" x1="24.6102" y1="32.2047" x2="24.8792" y2="34.6719" gradientUnits="userSpaceOnUse">
<stop stop-color="#BFD7FF"/>
<stop offset="1"/>
</linearGradient>
<linearGradient id="paint104_linear_2314_11999" x1="22.6916" y1="32.4134" x2="22.9606" y2="34.8829" gradientUnits="userSpaceOnUse">
<stop stop-color="#BFD7FF"/>
<stop offset="1"/>
</linearGradient>
<linearGradient id="paint105_linear_2314_11999" x1="23.7871" y1="35.6864" x2="23.7871" y2="35.0557" gradientUnits="userSpaceOnUse">
<stop stop-color="white"/>
<stop offset="0.44" stop-color="#881DED"/>
<stop offset="1" stop-color="#262262"/>
</linearGradient>
<linearGradient id="paint106_linear_2314_11999" x1="22.8261" y1="34.8534" x2="22.8261" y2="33.3984" gradientUnits="userSpaceOnUse">
<stop stop-color="white"/>
<stop offset="0.44" stop-color="#881DED"/>
<stop offset="1" stop-color="#262262"/>
</linearGradient>
<linearGradient id="paint107_linear_2314_11999" x1="24.7702" y1="34.9787" x2="24.7702" y2="33.3984" gradientUnits="userSpaceOnUse">
<stop stop-color="white"/>
<stop offset="0.44" stop-color="#881DED"/>
<stop offset="1" stop-color="#262262"/>
</linearGradient>
<linearGradient id="paint108_linear_2314_11999" x1="23.7871" y1="35.6865" x2="23.7871" y2="33.916" gradientUnits="userSpaceOnUse">
<stop stop-color="white"/>
<stop offset="0.44" stop-color="#881DED"/>
<stop offset="1" stop-color="#262262"/>
</linearGradient>
<radialGradient id="paint109_radial_2314_11999" cx="0" cy="0" r="1" gradientUnits="userSpaceOnUse" gradientTransform="translate(31.2403 13.972) scale(10.0684 10.0755)">
<stop offset="0.1" stop-color="#1B75B2"/>
<stop offset="0.34" stop-color="#13517B"/>
<stop offset="0.65" stop-color="#092539"/>
<stop offset="0.88" stop-color="#020A10"/>
<stop offset="1"/>
</radialGradient>
<linearGradient id="paint110_linear_2314_11999" x1="2.36016" y1="34.2227" x2="1.14277" y2="34.2227" gradientUnits="userSpaceOnUse">
<stop stop-color="#655ED6"/>
<stop offset="1" stop-color="#C88FF0"/>
</linearGradient>
<linearGradient id="paint111_linear_2314_11999" x1="5.10126" y1="30.737" x2="3.43865" y2="30.737" gradientUnits="userSpaceOnUse">
<stop stop-color="#655ED6"/>
<stop offset="1" stop-color="#C88FF0"/>
</linearGradient>
<linearGradient id="paint112_linear_2314_11999" x1="15.907" y1="2.35033" x2="14.5621" y2="2.35033" gradientUnits="userSpaceOnUse">
<stop stop-color="#655ED6"/>
<stop offset="1" stop-color="#C88FF0"/>
</linearGradient>
<radialGradient id="paint113_radial_2314_11999" cx="0" cy="0" r="1" gradientUnits="userSpaceOnUse" gradientTransform="translate(1.40628 34.2224) scale(1.01565 1.01637)">
<stop stop-color="#27A0D7"/>
<stop offset="0.1" stop-color="#2596C9"/>
<stop offset="0.3" stop-color="#1E7BA6"/>
<stop offset="0.57" stop-color="#14506C"/>
<stop offset="0.89" stop-color="#05151C"/>
<stop offset="1"/>
</radialGradient>
<radialGradient id="paint114_radial_2314_11999" cx="0" cy="0" r="1" gradientUnits="userSpaceOnUse" gradientTransform="translate(3.7861 30.737) scale(2.45797 2.4597)">
<stop stop-color="#27A0D7"/>
<stop offset="0.1" stop-color="#2596C9"/>
<stop offset="0.3" stop-color="#1E7BA6"/>
<stop offset="0.57" stop-color="#14506C"/>
<stop offset="0.89" stop-color="#05151C"/>
<stop offset="1"/>
</radialGradient>
<radialGradient id="paint115_radial_2314_11999" cx="0" cy="0" r="1" gradientUnits="userSpaceOnUse" gradientTransform="translate(14.8452 2.35093) scale(1.17333 1.17416)">
<stop stop-color="#27A0D7"/>
<stop offset="0.1" stop-color="#2596C9"/>
<stop offset="0.3" stop-color="#1E7BA6"/>
<stop offset="0.57" stop-color="#14506C"/>
<stop offset="0.89" stop-color="#05151C"/>
<stop offset="1"/>
</radialGradient>
<linearGradient id="paint116_linear_2314_11999" x1="34.1185" y1="3.94466" x2="31.9689" y2="3.94466" gradientUnits="userSpaceOnUse">
<stop stop-color="#655ED6"/>
<stop offset="1" stop-color="#C88FF0"/>
</linearGradient>
<radialGradient id="paint117_radial_2314_11999" cx="0" cy="0" r="1" gradientUnits="userSpaceOnUse" gradientTransform="translate(32.4283 3.94525) scale(1.87362 1.87494)">
<stop stop-color="#27A0D7"/>
<stop offset="0.1" stop-color="#2596C9"/>
<stop offset="0.3" stop-color="#1E7BA6"/>
<stop offset="0.57" stop-color="#14506C"/>
<stop offset="0.89" stop-color="#05151C"/>
<stop offset="1"/>
</radialGradient>
<linearGradient id="paint118_linear_2314_11999" x1="44.0895" y1="31.7575" x2="41.94" y2="31.7575" gradientUnits="userSpaceOnUse">
<stop stop-color="#655ED6"/>
<stop offset="1" stop-color="#C88FF0"/>
</linearGradient>
<radialGradient id="paint119_radial_2314_11999" cx="0" cy="0" r="1" gradientUnits="userSpaceOnUse" gradientTransform="translate(42.3875 31.7562) scale(1.87362 1.87494)">
<stop stop-color="#27A0D7"/>
<stop offset="0.1" stop-color="#2596C9"/>
<stop offset="0.3" stop-color="#1E7BA6"/>
<stop offset="0.57" stop-color="#14506C"/>
<stop offset="0.89" stop-color="#05151C"/>
<stop offset="1"/>
</radialGradient>
<linearGradient id="paint120_linear_2314_11999" x1="44.1527" y1="35.355" x2="43.093" y2="35.355" gradientUnits="userSpaceOnUse">
<stop stop-color="#655ED6"/>
<stop offset="1" stop-color="#C88FF0"/>
</linearGradient>
<radialGradient id="paint121_radial_2314_11999" cx="0" cy="0" r="1" gradientUnits="userSpaceOnUse" gradientTransform="translate(43.3127 35.3549) scale(0.925217 0.925868)">
<stop stop-color="#27A0D7"/>
<stop offset="0.1" stop-color="#2596C9"/>
<stop offset="0.3" stop-color="#1E7BA6"/>
<stop offset="0.57" stop-color="#14506C"/>
<stop offset="0.89" stop-color="#05151C"/>
<stop offset="1"/>
</radialGradient>
<linearGradient id="paint122_linear_2314_11999" x1="21.2148" y1="17.7402" x2="25.0555" y2="27.5925" gradientUnits="userSpaceOnUse">
<stop stop-color="#DC55E7"/>
<stop offset="1" stop-color="#350A8F"/>
</linearGradient>
<clipPath id="clip0_2314_11999">
<rect width="47.36" height="45.219" fill="white"/>
</clipPath>
</defs>
</svg>
