<svg width="48" height="46" viewBox="0 0 48 46" fill="none" xmlns="http://www.w3.org/2000/svg">
<g id="Group 1261154381">
<path id="Vector" d="M9.35156 26.0508V37.4063L14.7507 34.22L15.0293 26.322L9.35156 26.0508Z" fill="url(#paint0_linear_2314_11861)"/>
<path id="Vector_2" d="M9.45312 35.2024L14.6633 32.4971L14.6299 33.4656L9.45312 36.5717V35.2024Z" fill="url(#paint1_linear_2314_11861)"/>
<g id="Vector_3" style="mix-blend-mode:multiply" opacity="0.8">
<path d="M9.48516 31.0272C9.78575 29.8248 10.3869 30.6598 10.3869 32.3631C10.3869 34.0665 10.1865 36.7384 10.1865 36.7384L10.6541 36.4044C10.6541 36.4044 10.6207 31.9623 10.8545 31.428C11.0883 30.8936 12.324 31.0606 12.324 35.4358L14.5284 34.0999L14.7955 26.318L9.35156 26.0508V32.1961L9.48516 31.0272Z" fill="url(#paint2_linear_2314_11861)"/>
</g>
<path id="Vector_4" d="M37.9049 26.085V37.2735L32.7281 34.134L32.4609 26.3522L37.9049 26.085Z" fill="url(#paint3_linear_2314_11861)"/>
<path id="Vector_5" d="M37.9077 35.2024L32.6641 32.4971L32.7309 33.4656L37.9077 36.5717V35.2024Z" fill="url(#paint4_linear_2314_11861)"/>
<g id="Vector_6" style="mix-blend-mode:multiply" opacity="0.8">
<path d="M37.7713 31.0272C37.4707 29.8248 36.8696 30.6598 36.8696 32.3631C36.8696 34.0665 37.07 36.7384 37.07 36.7384L36.6024 36.4044C36.6024 36.4044 36.6358 31.9623 36.402 31.428C36.1682 30.8936 34.9324 31.0606 34.9324 35.4358L32.7281 34.0999L32.4609 26.318L37.9049 26.0508V32.1961L37.7713 31.0272Z" fill="url(#paint5_linear_2314_11861)"/>
</g>
<path id="Vector_7" d="M22.3063 34.2008V45.1556C18.9998 43.4188 14.0234 38.3088 14.0234 38.3088V30.7607L22.3063 34.2008Z" fill="url(#paint6_linear_2314_11861)"/>
<path id="Vector_8" d="M22.3085 42.2825V44.4868C19.002 42.7501 13.9922 37.6401 13.9922 37.6401V35.7363C15.1611 37.2059 17.5992 39.7108 22.3085 42.2825Z" fill="url(#paint7_linear_2314_11861)"/>
<path id="Vector_9" d="M25.1484 34.2008V45.1556C28.4549 43.4188 33.4647 38.3088 33.4647 38.3088V30.7607L25.1484 34.2008Z" fill="url(#paint8_linear_2314_11861)"/>
<path id="Vector_10" d="M25.1484 42.2825V44.4868C28.4549 42.7501 33.4647 37.6401 33.4647 37.6401V35.7363C32.2958 37.2059 29.8577 39.7108 25.1484 42.2825Z" fill="url(#paint9_linear_2314_11861)"/>
<g id="Vector_11" style="mix-blend-mode:multiply" opacity="0.8">
<path d="M14.7916 39.1104C14.7916 39.1104 14.7248 34.0672 15.493 34.1674C16.2945 34.2676 17.6305 35.0692 17.9311 35.9709C18.2317 36.8727 18.1315 42.1831 18.1315 42.1831L18.4321 42.4169C18.4321 42.4169 18.0647 35.9709 18.6659 36.3049C19.267 36.6055 20.102 37.2067 20.3692 38.6428C20.6698 40.079 20.7366 44.2538 20.7366 44.2538L22.3063 45.189V34.2342L14.0234 30.7607V38.3422L14.7916 39.1104Z" fill="url(#paint10_linear_2314_11861)"/>
</g>
<g id="Vector_12" style="mix-blend-mode:multiply" opacity="0.8">
<path d="M32.661 39.1092C32.661 39.1092 32.7278 33.1977 31.9262 33.2979C31.1247 33.3981 31.1247 36.3705 31.1247 37.2723C31.1247 38.2409 30.9911 40.679 30.9911 40.679L30.5569 41.0798C30.5569 41.0798 30.6237 34.3666 30.0225 34.7006C29.4213 35.0012 26.716 37.1053 26.4488 38.5415C26.1482 39.9776 26.2818 44.5532 26.2818 44.5532L25.1797 45.2212V34.2664L33.496 30.793V38.3745L32.661 39.1092Z" fill="url(#paint11_linear_2314_11861)"/>
</g>
<path id="Vector_13" d="M27.0859 17.5006L45.3216 17.4004L43.6183 20.4397L28.0211 20.8739L27.0859 17.5006Z" fill="url(#paint12_linear_2314_11861)"/>
<path id="Vector_14" d="M43.6811 17.4004H41.577L39.7734 20.5399L41.9444 20.4731L43.6811 17.4004Z" fill="url(#paint13_linear_2314_11861)"/>
<g id="Vector_15" style="mix-blend-mode:multiply" opacity="0.5">
<path d="M27.8906 19.9387L44.1224 19.5713L43.6214 20.4397L28.0242 20.8738L27.8906 19.9387Z" fill="#DE5634"/>
</g>
<g id="Vector_16" style="mix-blend-mode:multiply" opacity="0.4">
<path d="M37.4401 17.668C37.3065 17.8016 37.9411 19.4047 38.2083 19.3713C38.4755 19.3379 43.7525 19.4047 43.9863 19.2711C44.2201 19.1042 45.1218 17.7682 44.9214 17.6012C44.6876 17.4008 37.5737 17.5344 37.4401 17.668Z" fill="#FFDF66"/>
</g>
<path id="Vector_17" opacity="0.5" d="M37.0721 17.4336C37.0721 17.4336 37.7735 19.3039 37.7735 19.7047C37.8069 20.1055 37.5063 20.6399 37.5063 20.6399L28.0211 20.9071L27.0859 17.5338L37.0721 17.4336Z" fill="#DE5634"/>
<path id="Vector_18" d="M20.3685 17.5006L2.13281 17.4004L3.83615 20.4397L19.4333 20.8739L20.3685 17.5006Z" fill="url(#paint14_linear_2314_11861)"/>
<path id="Vector_19" d="M3.74219 17.4004L5.8463 17.4338L7.64983 20.5399L5.47892 20.5065L3.74219 17.4004Z" fill="url(#paint15_linear_2314_11861)"/>
<g id="Vector_20" style="mix-blend-mode:multiply" opacity="0.5">
<path d="M19.5755 19.9387L3.34375 19.5713L3.84473 20.4397L19.4419 20.8738L19.5755 19.9387Z" fill="#DE5634"/>
</g>
<g id="Vector_21" style="mix-blend-mode:multiply" opacity="0.4">
<path d="M9.9156 17.6007C10.3832 18.0348 9.54822 19.5044 9.28103 19.4376C9.01384 19.4042 3.73684 19.4042 3.50305 19.2372C3.26926 19.0702 2.3675 17.7342 2.56789 17.5673C2.76828 17.4003 9.64841 17.3335 9.9156 17.6007Z" fill="#FFDF66"/>
</g>
<path id="Vector_22" opacity="0.5" d="M10.4227 17.4336C10.4227 17.4336 9.72134 19.3039 9.72134 19.7047C9.68794 20.1055 9.98853 20.6399 9.98853 20.6399L19.4738 20.9071L20.3755 17.5004L10.4227 17.4336Z" fill="#DE5634"/>
<path id="Vector_23" d="M29.0938 13.5592L47.3628 13.459L45.6595 16.4983L30.0623 16.9324L29.0938 13.5592Z" fill="url(#paint16_linear_2314_11861)"/>
<path id="Vector_24" d="M45.8217 13.459H43.7176L41.9141 16.5985L44.085 16.5317L45.8217 13.459Z" fill="url(#paint17_linear_2314_11861)"/>
<g id="Vector_25" style="mix-blend-mode:multiply" opacity="0.5">
<path d="M29.8906 15.9984L46.1558 15.5977L45.6548 16.4994L30.0576 16.9336L29.8906 15.9984Z" fill="#DE5634"/>
</g>
<g id="Vector_26" style="mix-blend-mode:multiply" opacity="0.4">
<path d="M39.4479 13.7266C39.3143 13.8602 39.9489 15.4633 40.2161 15.4299C40.4833 15.3965 45.7603 15.4633 45.9941 15.3297C46.2279 15.1627 47.1296 13.8268 46.9292 13.6598C46.6955 13.4594 39.5815 13.593 39.4479 13.7266Z" fill="#FFDF66"/>
</g>
<path id="Vector_27" opacity="0.5" d="M36.7065 13.5264C36.7065 13.5264 37.4079 15.3967 37.4079 15.7975C37.4413 16.1983 37.1407 16.7326 37.1407 16.7326L30.0602 16.933L29.125 13.5598L36.7065 13.5264Z" fill="#DE5634"/>
<path id="Vector_28" d="M18.2357 13.5592L0 13.459L1.70333 16.4983L17.3005 16.9324L18.2357 13.5592Z" fill="url(#paint18_linear_2314_11861)"/>
<path id="Vector_29" d="M1.57031 13.459L3.67443 13.4924L5.47796 16.5985L3.30704 16.5651L1.57031 13.459Z" fill="url(#paint19_linear_2314_11861)"/>
<g id="Vector_30" style="mix-blend-mode:multiply" opacity="0.5">
<path d="M17.4349 15.9984L1.20312 15.5977L1.70411 16.4994L17.3013 16.9336L17.4349 15.9984Z" fill="#DE5634"/>
</g>
<g id="Vector_31" style="mix-blend-mode:multiply" opacity="0.4">
<path d="M7.78279 13.6592C8.25037 14.0934 7.4154 15.563 7.14821 15.4962C6.88102 15.4628 1.60403 15.4628 1.37024 15.2958C1.13645 15.1288 0.234685 13.7928 0.435077 13.6259C0.63547 13.4589 7.5156 13.3921 7.78279 13.6592Z" fill="#FFDF66"/>
</g>
<path id="Vector_32" opacity="0.5" d="M10.7508 13.5264C10.7508 13.5264 10.0495 15.3967 10.0495 15.7975C10.0161 16.1983 10.3167 16.6992 10.3167 16.6992L17.3304 16.933L18.2655 13.5598L10.7508 13.5264Z" fill="#DE5634"/>
<path id="Vector_33" d="M12.1887 16.9331L11.3203 14.0942L12.1887 12.9921L18.2338 9.35163V2.30451L19.002 1.77013L21.4067 0V11.9901L12.1887 16.9331Z" fill="url(#paint20_linear_2314_11861)"/>
<g id="Vector_34" style="mix-blend-mode:multiply">
<path d="M11.3203 14.0936L19.002 9.68502V1.76953L18.2338 2.30391V9.35103L12.1887 12.9915L11.3203 14.0936Z" fill="url(#paint21_linear_2314_11861)"/>
</g>
<g id="Vector_35" style="mix-blend-mode:multiply" opacity="0.4">
<path d="M19.172 1.77091C19.1386 2.20509 19.2054 7.81607 19.4726 7.94966C19.7398 8.08326 21.0757 7.31509 21.2093 7.0145C21.3095 6.68051 21.2427 0.702148 21.0423 0.702148C20.8753 0.735547 19.2054 1.43692 19.172 1.77091Z" fill="#FFDF66"/>
</g>
<path id="Vector_36" opacity="0.37" d="M19.1982 9.78652C18.5302 10.3543 11.6835 14.0949 11.5833 14.3287C11.4497 14.6293 12.3848 16.0989 12.7856 15.9653C13.2532 15.8651 21.3691 11.2561 21.4025 11.0223C21.4025 10.7885 21.4359 9.61953 21.2355 9.51933C21.0351 9.45253 19.4653 9.58613 19.1982 9.78652Z" fill="url(#paint22_linear_2314_11861)"/>
<path id="Vector_37" d="M11.3203 14.3282L19.1356 9.786L19.2024 1.63672L19.002 1.77031V9.6858L11.3203 14.0944V14.3282Z" fill="#B33114"/>
<path id="Vector_38" opacity="0.4" d="M18.2986 9.41895C17.8644 9.45234 12.2868 13.026 12.2868 13.1262C12.2868 13.2264 11.3182 13.8276 11.552 13.8276C11.7858 13.8276 18.833 9.81973 18.833 9.68613C18.833 9.55254 18.5324 9.41895 18.2986 9.41895Z" fill="#FFDF66"/>
<path id="Vector_39" opacity="0.4" d="M11.3203 14.3284C11.3203 14.3284 15.0276 12.458 16.9313 11.2557C18.835 10.0533 19.2358 9.78613 19.2358 9.78613L11.3203 14.3284Z" fill="#FFDF66"/>
<g id="Vector_40" style="mix-blend-mode:multiply" opacity="0.5">
<path d="M18.2305 8.44962L18.9986 7.78165H19.1322L21.4033 6.5459V11.9899L18.8317 13.2924L17.5625 9.71877L18.2305 9.35139V8.44962Z" fill="#DE5634"/>
</g>
<path id="Vector_41" d="M35.2671 16.9331L36.1688 14.0942L35.2671 12.9921L29.2553 9.35163V2.30451L28.4871 1.77013L26.0156 0V11.9901L35.2671 16.9331Z" fill="url(#paint23_linear_2314_11861)"/>
<g id="Vector_42" style="mix-blend-mode:multiply">
<path d="M36.1739 14.0936L28.4922 9.68502V1.76953L29.2604 2.30391V9.35103L35.2721 12.9915L36.1739 14.0936Z" fill="url(#paint24_linear_2314_11861)"/>
</g>
<g id="Vector_43" style="mix-blend-mode:multiply" opacity="0.4">
<path d="M28.188 1.76988C28.2214 2.20406 28.355 7.81504 28.0878 7.94863C27.8207 8.08223 26.3845 7.24726 26.2509 6.91327C26.1507 6.61268 26.2509 0.701117 26.4179 0.734516C26.5849 0.734516 28.1546 1.43589 28.188 1.76988Z" fill="#FFDF66"/>
</g>
<path id="Vector_44" opacity="0.37" d="M28.2511 9.78652C28.9525 10.3543 35.7658 14.0949 35.866 14.3287C35.9996 14.6293 35.0645 16.0989 34.6637 15.9653C34.2295 15.8317 26.1136 11.2227 26.0802 11.0223C26.0802 10.7885 26.0468 9.61953 26.2472 9.51933C26.4142 9.45253 27.9839 9.58613 28.2511 9.78652Z" fill="url(#paint25_linear_2314_11861)"/>
<path id="Vector_45" d="M36.1712 14.3282L28.3225 9.786L28.2891 1.63672L28.4895 1.77031V9.6858L36.1712 14.0944V14.3282Z" fill="#B33114"/>
<path id="Vector_46" opacity="0.4" d="M29.1516 9.41895C29.5858 9.45234 35.1633 13.026 35.1633 13.1262C35.1633 13.2264 36.1319 13.8276 35.8981 13.8276C35.6643 13.8276 28.6172 9.81973 28.6172 9.68613C28.6172 9.55254 28.9178 9.41895 29.1516 9.41895Z" fill="#FFDF66"/>
<path id="Vector_47" opacity="0.4" d="M36.1733 14.3284C36.1733 14.3284 32.466 12.458 30.5623 11.2557C28.6586 10.0533 28.2578 9.78613 28.2578 9.78613L36.1733 14.3284Z" fill="#FFDF66"/>
<g id="Vector_48" style="mix-blend-mode:multiply" opacity="0.5">
<path d="M29.2531 8.44962L28.485 7.78165H28.318L26.0469 6.5459V11.9899L28.6186 13.2924L29.8877 9.71877L29.2531 9.35139V8.44962Z" fill="#DE5634"/>
</g>
<path id="Vector_49" d="M11.7561 28.8231C11.7227 28.9233 7.21389 27.3536 7.21389 27.3536C5.20997 24.2809 4.375 21.8428 4.375 21.8428H12.0901L11.7561 28.8231Z" fill="url(#paint26_linear_2314_11861)"/>
<path id="Vector_50" d="M5.84375 21.8428C5.84375 21.8428 7.64728 25.55 7.98127 25.9842L11.8889 26.0844V25.8172C11.8889 25.8172 8.31525 25.8506 8.11486 25.6836C7.91447 25.5166 6.07754 21.8428 6.07754 21.8428H5.84375Z" fill="#B33114"/>
<g id="Vector_51" style="mix-blend-mode:multiply">
<path d="M5.84375 21.8428L7.98127 25.9842C7.98127 25.9842 7.2131 24.8821 6.71212 23.9135C6.24453 22.9449 5.84375 21.8428 5.84375 21.8428Z" fill="white"/>
</g>
<g id="Vector_52" style="mix-blend-mode:multiply" opacity="0.4">
<path d="M6.38531 22.1106C6.68589 23.0124 7.85485 25.0163 8.12204 25.0163C8.35583 25.0163 11.2281 24.9495 11.4953 24.5487C11.7625 24.1479 11.9963 22.144 11.7625 22.1106C11.5287 22.0772 6.25171 21.7098 6.38531 22.1106Z" fill="#FFDF66"/>
</g>
<g id="Vector_53" style="mix-blend-mode:multiply" opacity="0.4">
<path d="M4.61347 22.0101C4.98086 22.8784 6.01622 25.1162 6.18321 25.1162C6.3836 25.1495 7.01818 25.2163 7.01818 24.9492C7.01818 24.515 5.84922 22.0435 5.58203 21.9767C5.31485 21.9433 4.54668 21.7763 4.61347 22.0101Z" fill="#FFDF66"/>
</g>
<g id="Vector_54" style="mix-blend-mode:multiply" opacity="0.37">
<path d="M6.3836 25.417C6.3502 25.6842 7.38556 27.1204 7.55256 27.2206C7.71955 27.3208 11.193 28.4563 11.4268 28.2893C11.6606 28.1223 11.7608 25.2166 11.5938 25.1164C11.3934 25.0496 6.417 25.1164 6.3836 25.417Z" fill="url(#paint27_linear_2314_11861)"/>
</g>
<path id="Vector_55" opacity="0.5" d="M9.48438 21.8428C9.48438 21.8428 10.1189 25.1826 9.98536 28.2887L11.7555 28.8231L12.0895 21.8428H9.48438Z" fill="#DE5634"/>
<path id="Vector_56" d="M35.7012 28.8231C35.7346 28.9233 40.2434 27.3536 40.2434 27.3536C42.2473 24.2809 43.0823 21.8428 43.0823 21.8428H35.3672L35.7012 28.8231Z" fill="url(#paint28_linear_2314_11861)"/>
<path id="Vector_57" d="M41.6155 21.8428C41.6155 21.8428 39.8119 25.55 39.478 25.9842L35.5703 26.0844V25.8172C35.5703 25.8172 39.144 25.8506 39.3444 25.6836C39.5448 25.5166 41.3817 21.8428 41.3817 21.8428H41.6155Z" fill="#B33114"/>
<g id="Vector_58" style="mix-blend-mode:soft-light">
<path d="M41.6063 21.8428L39.4688 25.9842C39.4688 25.9842 40.2369 24.8821 40.7379 23.9135C41.2055 22.9449 41.6063 21.8428 41.6063 21.8428Z" fill="white"/>
</g>
<g id="Vector_59" style="mix-blend-mode:multiply" opacity="0.4">
<path d="M41.0826 22.1106C40.782 23.0124 39.613 25.0163 39.3459 25.0163C39.1121 25.0163 36.2398 24.9495 35.9726 24.5487C35.7054 24.1479 35.4716 22.144 35.7054 22.1106C35.9392 22.0772 41.2162 21.7098 41.0826 22.1106Z" fill="#FFDF66"/>
</g>
<g id="Vector_60" style="mix-blend-mode:multiply" opacity="0.4">
<path d="M42.85 22.0101C42.4826 22.8784 41.4473 25.1162 41.2803 25.1162C41.0799 25.1495 40.4453 25.2163 40.4453 24.9492C40.4453 24.515 41.6143 22.0435 41.8815 21.9767C42.1486 21.9433 42.9502 21.7763 42.85 22.0101Z" fill="#FFDF66"/>
</g>
<g id="Vector_61" style="mix-blend-mode:multiply" opacity="0.37">
<path d="M41.0744 25.417C41.1078 25.6842 40.0724 27.1204 39.9054 27.2206C39.7384 27.3208 36.265 28.4563 36.0312 28.2893C35.7974 28.1223 35.6972 25.2166 35.8642 25.1164C36.0646 25.0496 41.041 25.1164 41.0744 25.417Z" fill="url(#paint29_linear_2314_11861)"/>
</g>
<path id="Vector_62" opacity="0.5" d="M37.9723 21.8428C37.9723 21.8428 37.3377 25.1826 37.4713 28.2887L35.7012 28.8231L35.3672 21.8428H37.9723Z" fill="#DE5634"/>
<path id="Vector_63" d="M29.5244 9.58559C29.4576 9.51879 32.9311 6.24572 32.9311 6.24572C36.5715 5.91173 39.1432 6.27912 39.1432 6.27912L35.5695 13.1258L29.5244 9.58559Z" fill="url(#paint30_linear_2314_11861)"/>
<path id="Vector_64" d="M38.4446 7.5814C38.4446 7.5814 34.3031 7.44781 33.8022 7.54801L31.8984 10.9547L32.1322 11.0883C32.1322 11.0883 33.7688 7.91539 34.0026 7.81519C34.2363 7.715 38.3444 7.81519 38.3444 7.81519L38.4446 7.5814Z" fill="#B33114"/>
<path id="Vector_65" d="M38.3354 7.78223H34.0938C34.0938 7.78223 35.0957 7.88242 36.1645 7.91582C37.2332 7.94922 38.3354 7.78223 38.3354 7.78223Z" fill="white"/>
<g id="Vector_66" style="mix-blend-mode:multiply" opacity="0.37">
<path d="M37.9374 7.9495C37.0023 7.81591 34.6644 7.9161 34.5642 8.1165C34.464 8.35029 33.1614 10.8886 33.3952 11.3228C33.629 11.757 35.2989 12.8591 35.4325 12.6921C35.5995 12.5251 38.3716 8.0163 37.9374 7.9495Z" fill="url(#paint31_linear_2314_11861)"/>
</g>
<g id="Vector_67" style="mix-blend-mode:multiply" opacity="0.37">
<path d="M38.8796 6.44607C37.9445 6.37927 35.5064 6.24568 35.3728 6.41267C35.2726 6.57966 34.9052 7.08064 35.139 7.21424C35.5064 7.41463 38.2451 7.51483 38.4455 7.31444C38.5791 7.08064 39.1134 6.44607 38.8796 6.44607Z" fill="url(#paint32_linear_2314_11861)"/>
</g>
<g id="Vector_68" style="mix-blend-mode:multiply" opacity="0.4">
<path d="M35.0406 6.41301C34.8068 6.24602 33.0701 6.51321 32.9031 6.6134C32.7361 6.7136 30.131 9.2519 30.1644 9.55249C30.1978 9.81968 32.7361 11.2892 32.9031 11.1556C33.0367 11.022 35.2744 6.6134 35.0406 6.41301Z" fill="#FFDF66"/>
</g>
<g id="Vector_69" style="mix-blend-mode:multiply" opacity="0.5">
<path d="M36.0028 12.2574C36.0028 12.2574 33.1639 10.2201 30.4586 8.65039L29.5234 9.61895L35.5352 13.1592L36.0028 12.2574Z" fill="#DE5634"/>
</g>
<path id="Vector_70" d="M17.9704 9.58559C18.0372 9.51879 14.5637 6.24572 14.5637 6.24572C10.9233 5.91173 8.35156 6.27912 8.35156 6.27912L11.9252 13.1258L17.9704 9.58559Z" fill="url(#paint33_linear_2314_11861)"/>
<path id="Vector_71" d="M9.02344 7.5814C9.02344 7.5814 13.1649 7.44781 13.6659 7.54801L15.5696 10.9547L15.3358 11.0883C15.3358 11.0883 13.6993 7.91539 13.4655 7.81519C13.2317 7.715 9.12363 7.81519 9.12363 7.81519L9.02344 7.5814Z" fill="#B33114"/>
<path id="Vector_72" d="M9.14844 7.78223H13.4903C13.4903 7.78223 12.2211 7.84902 11.1524 7.84902C10.0836 7.91582 9.14844 7.78223 9.14844 7.78223Z" fill="white"/>
<g id="Vector_73" style="mix-blend-mode:multiply" opacity="0.37">
<path d="M9.52265 7.9495C10.4578 7.81591 12.7957 7.9161 12.8959 8.1165C12.9961 8.35029 14.2987 10.8886 14.0649 11.3228C13.8311 11.757 12.1611 12.8591 12.0276 12.6921C11.8606 12.5251 9.08847 8.0163 9.52265 7.9495Z" fill="url(#paint34_linear_2314_11861)"/>
</g>
<g id="Vector_74" style="mix-blend-mode:multiply" opacity="0.37">
<path d="M8.61577 6.44607C9.55093 6.37927 11.989 6.24568 12.1226 6.41267C12.2228 6.57966 12.5902 7.08064 12.3564 7.21424C11.989 7.41463 9.25034 7.51483 9.04995 7.31444C8.88296 7.08064 8.38198 6.44607 8.61577 6.44607Z" fill="url(#paint35_linear_2314_11861)"/>
</g>
<g id="Vector_75" style="mix-blend-mode:multiply" opacity="0.4">
<path d="M12.4234 6.41301C12.6571 6.24602 14.3939 6.51321 14.5609 6.6134C14.7279 6.7136 17.333 9.2519 17.2996 9.55249C17.2662 9.81968 14.7279 11.2892 14.5609 11.1556C14.4273 11.022 12.1896 6.6134 12.4234 6.41301Z" fill="#FFDF66"/>
</g>
<g id="Vector_76" style="mix-blend-mode:multiply" opacity="0.5">
<path d="M11.4844 12.2574C11.4844 12.2574 14.3233 10.2201 17.0286 8.65039L17.9637 9.61895L11.952 13.1592L11.4844 12.2574Z" fill="#DE5634"/>
</g>
<path id="Vector_77" d="M23.781 5.74414L11.1562 13.0251V30.4258L23.781 37.7401L36.4057 30.4258V13.0251L23.781 5.74414Z" fill="url(#paint36_linear_2314_11861)"/>
<path id="Vector_78" d="M13.4297 29.1234V14.3612L23.7833 8.38281L34.1369 14.3612V29.1234L23.7833 35.1018L13.4297 29.1234Z" fill="url(#paint37_linear_2314_11861)"/>
<path id="Vector_79" d="M14.2031 28.69V14.7961L23.7885 9.25195L33.374 14.7961V28.69L23.7885 34.2008L14.2031 28.69Z" fill="url(#paint38_linear_2314_11861)"/>
<path id="Vector_80" opacity="0.4" d="M11.4593 13.0918C11.2923 13.5594 12.6616 14.1272 13.5968 13.9268C14.5319 13.7264 23.4494 8.51623 23.6498 8.04865C23.7166 7.91505 23.7166 6.07813 23.6498 6.07813C23.3492 6.07812 11.5261 12.8581 11.4593 13.0918Z" fill="#FFDF66"/>
<path id="Vector_81" opacity="0.4" d="M36.0395 13.092C36.2065 13.5596 34.8372 14.1274 33.902 13.927C32.9668 13.7266 24.1496 8.44963 23.849 8.01544C23.682 7.81505 23.6486 6.04492 23.849 6.04492C24.183 6.07832 35.9727 12.8583 36.0395 13.092Z" fill="#FFDF66"/>
<g id="Vector_82" style="mix-blend-mode:multiply" opacity="0.37">
<path d="M11.4556 22.9783C11.3554 23.5127 11.155 30.0922 11.4556 30.1256C11.7562 30.1924 13.1256 29.2238 13.1924 28.7896C13.2592 28.3555 13.2926 23.8466 13.1924 23.4125C13.0922 23.0117 11.5892 22.1099 11.4556 22.9783Z" fill="url(#paint39_linear_2314_11861)"/>
</g>
<g id="Vector_83" style="mix-blend-mode:multiply" opacity="0.37">
<path d="M36.0734 22.9783C36.1736 23.5127 36.374 30.0922 36.0734 30.1256C35.7728 30.1924 34.4035 29.2238 34.3367 28.7896C34.2699 28.3555 34.2365 23.8466 34.3367 23.4125C34.4369 23.0117 35.9398 22.1099 36.0734 22.9783Z" fill="url(#paint40_linear_2314_11861)"/>
</g>
<g id="Vector_84" style="mix-blend-mode:multiply" opacity="0.37">
<path d="M11.7582 30.326C11.9252 30.5598 23.2808 37.2729 23.4478 37.2729C23.5479 37.2729 23.6481 35.603 23.6481 35.4026C23.6481 34.8682 13.5951 29.5244 13.3948 29.491C13.161 29.4242 11.6246 30.0922 11.7582 30.326Z" fill="url(#paint41_linear_2314_11861)"/>
</g>
<g id="Vector_85" style="mix-blend-mode:multiply" opacity="0.37">
<path d="M35.8025 30.4934C35.6689 30.7272 24.0796 37.4069 23.9126 37.4069C23.8792 37.4069 23.8792 35.3362 23.946 35.236C24.3133 34.8686 33.8988 29.5248 34.0992 29.458C34.333 29.4246 35.9695 30.2596 35.8025 30.4934Z" fill="url(#paint42_linear_2314_11861)"/>
</g>
<path id="Vector_86" opacity="0.37" d="M14.6306 28.3225C13.9626 24.4817 14.33 24.2479 19.106 22.6114C23.8821 20.9748 31.9645 16.8 32.6659 18.6035C33.3673 20.4071 33.1335 28.1555 32.9665 28.5897C32.7995 29.0239 24.4832 33.7999 23.7819 33.7999C23.0805 33.7999 14.6974 28.7567 14.6306 28.3225Z" fill="#ED8A1D"/>
<g id="Vector_87" style="mix-blend-mode:soft-light" opacity="0.4">
<path d="M33.165 14.8957C32.998 14.8623 24.3477 9.85251 23.8467 9.88591C23.3792 9.91931 17.334 12.7582 14.8625 14.8623C14.1945 15.4301 14.4283 23.9134 15.0629 23.7798C15.6641 23.6128 16.1316 20.2061 22.8448 18.269C29.4577 16.3653 32.33 18.0018 33.0314 18.3024C33.2318 18.3692 33.5324 14.9959 33.165 14.8957Z" fill="#FFDF66"/>
</g>
<path id="Vector_88" opacity="0.5" d="M13.4297 29.1234V14.3612L23.7833 8.38281L34.1369 14.3612V29.1234L33.3687 28.6892C33.3687 28.6892 33.4021 15.8641 33.1349 15.4633C32.1663 14.0272 24.4846 10.5203 23.2489 10.9211C21.9797 11.3219 15.1664 14.2276 14.3982 15.4299C14.1311 15.8307 14.1979 28.6892 14.1979 28.6892L13.4297 29.1234Z" fill="#DE5634"/>
<path id="Vector_89" opacity="0.4" d="M25.7218 16.3651C28.2935 17.5341 32.2012 17.5675 32.5351 17.3337C32.9025 17.0999 33.1363 15.4634 32.5685 15.1628C32.0008 14.8956 27.5921 12.5243 26.4232 12.7915C25.2542 13.0587 25.2542 16.1647 25.7218 16.3651Z" fill="#FFDF66"/>
<g id="Vector_90" style="mix-blend-mode:soft-light" opacity="0.8">
<path d="M11.1562 18.3354C11.1562 18.302 11.2564 13.4258 11.4568 13.0919C11.6572 12.7579 23.5138 6.17832 23.8477 6.07813C24.1817 5.97793 28.6238 8.54963 28.6238 8.54963L23.781 5.74414L11.1562 13.0251V18.3354Z" fill="#700000"/>
</g>
<g id="Vector_91" style="mix-blend-mode:soft-light">
<path d="M28.2891 10.9873C28.2891 10.9873 33.8332 14.1602 33.9 14.4942C33.9668 14.8616 34.1004 24.3802 34.1004 24.3802C34.1004 24.3802 34.1672 14.728 34.1004 14.3272C34.067 13.9598 28.2891 10.9873 28.2891 10.9873Z" fill="white"/>
</g>
<g id="Vector_92" style="mix-blend-mode:multiply">
<path d="M13.4251 22.4437C13.4251 22.4437 13.2247 14.4614 13.3249 14.1942C13.4251 13.927 23.7787 8.38281 23.7787 8.38281C23.7787 8.38281 13.7925 14.094 13.5921 14.4614C13.3917 14.7954 13.4251 22.4437 13.4251 22.4437Z" fill="white"/>
</g>
<path id="Vector_93" opacity="0.8" d="M11.1584 30.4258L23.7831 37.7402L36.4078 30.4258V26.4848C36.4078 26.4848 36.3076 29.9583 36.0404 30.3924C35.7732 30.8266 24.4511 37.4062 23.8833 37.4396C23.3155 37.473 11.7262 30.6262 11.4256 30.1587C11.125 29.6911 11.125 21.5752 11.125 21.5752V30.4258H11.1584Z" fill="#700000"/>
<path id="Vector_94" opacity="0.4" d="M13.4285 25.3496C13.4285 25.3496 13.3951 28.7563 13.5955 29.0569C13.7959 29.3575 18.7055 32.1629 18.7055 32.1629C18.7055 32.1629 13.3617 29.3908 13.3283 29.2239C13.2615 29.0569 13.4285 25.3496 13.4285 25.3496Z" fill="#FFDF66"/>
<g id="Vector_95" style="mix-blend-mode:multiply" opacity="0.4">
<path d="M17.7044 32.2295C17.337 32.2295 16.3017 32.6637 16.5021 32.8975C16.6691 33.0979 22.948 36.9053 23.6494 37.1725C23.8832 37.2727 23.8498 35.7698 23.5492 35.3022C23.449 35.0684 18.8734 32.2295 17.7044 32.2295Z" fill="#FFDF66"/>
</g>
<g id="Vector_96" style="mix-blend-mode:soft-light">
<path d="M29.0602 9.28508C28.8598 9.35188 29.5278 10.1868 29.8618 10.287C30.1958 10.3538 30.63 10.12 30.463 9.98645C30.3294 9.81946 29.3608 9.18488 29.0602 9.28508Z" fill="white"/>
</g>
<g id="Vector_97" style="mix-blend-mode:soft-light">
<path d="M30.5701 10.1196C30.2696 10.1864 30.8373 11.5558 31.0711 11.7896C31.3049 12.0234 33.4758 12.4576 33.4424 12.0568C33.409 11.656 31.0043 10.0194 30.5701 10.1196Z" fill="white"/>
</g>
<g id="Vector_98" style="mix-blend-mode:multiply" opacity="0.5">
<path d="M29.6261 32.2637C29.359 33.466 29.3924 34.1674 29.5593 34.1674C29.7263 34.1674 35.2371 30.8609 35.4041 30.6939C35.5711 30.5603 34.5024 29.5918 34.1016 29.6586C33.634 29.7254 29.7263 31.7961 29.6261 32.2637Z" fill="#DE5634"/>
</g>
<path id="Vector_99" opacity="0.5" d="M14.0939 14.696C13.9603 14.2952 13.5595 14.2952 13.5261 14.7294C13.4927 15.1635 13.4259 23.4464 13.5929 23.4464C13.7599 23.4464 14.0939 23.0456 14.1273 22.8786C14.1273 22.7116 14.1607 14.8963 14.0939 14.696Z" fill="#DE5634"/>
<path id="Vector_100" opacity="0.5" d="M33.467 14.7291C33.4336 14.8961 33.3668 22.7113 33.467 22.7113C33.5672 22.7113 34.0348 22.344 34.0348 22.1436C34.0348 21.9432 33.9346 14.5621 33.8678 14.5287C33.801 14.4953 33.467 14.6289 33.467 14.7291Z" fill="#DE5634"/>
<path id="Vector_101" opacity="0.5" d="M23.7802 9.11749C23.7802 9.28449 19.3381 11.8228 19.2379 11.8228C19.1377 11.8228 19.1711 11.1214 19.3047 11.0546C19.4383 10.9544 23.7468 8.38272 23.7802 8.44952C23.8136 8.51632 23.7802 8.9839 23.7802 9.11749Z" fill="#DE5634"/>
<path id="Vector_102" d="M22.4807 9.05159C21.8127 8.8846 21.245 9.31878 20.9444 9.65277C20.6438 9.98676 20.8108 10.1871 21.1782 10.1203C21.5789 10.0536 22.7813 9.11839 22.4807 9.05159Z" fill="#B33114"/>
<path id="Vector_103" opacity="0.5" d="M22.4837 9.05088C22.0161 8.88389 21.4484 9.18448 21.248 9.35147C21.081 9.51847 21.415 9.98605 21.6821 9.88585C21.9493 9.78565 22.6841 9.11768 22.4837 9.05088Z" fill="#DE5634"/>
<path id="Vector_104" opacity="0.4" d="M21.1145 9.45215C21.1145 9.45215 20.3463 9.95313 20.4465 10.2203C20.5467 10.4541 21.4485 10.0199 21.4485 10.0199C21.4485 10.0199 20.9809 10.1869 20.8473 9.95313C20.7471 9.75274 21.1145 9.45215 21.1145 9.45215Z" fill="#FFDF66"/>
<g id="Vector_105" style="mix-blend-mode:multiply">
<path d="M13.8651 29.2233C13.4977 29.3235 14.5665 30.0582 14.8337 30.0916C15.1009 30.125 14.8337 29.4905 14.7001 29.3569C14.6333 29.2901 14.0655 29.1565 13.8651 29.2233Z" fill="white"/>
</g>
<path id="Vector_106" d="M23.7794 29.9254L10.7205 22.3105C10.2195 23.4461 10.0859 24.5483 10.0859 24.5483L10.9209 25.9844L23.746 33.4323L36.5711 25.9844L37.3393 24.5483C37.3393 24.5483 37.3393 23.4795 36.8717 22.3105L23.7794 29.9254Z" fill="url(#paint43_linear_2314_11861)"/>
<path id="Vector_107" d="M10.9522 25.984L10.1172 24.5479L23.7772 32.5635L37.3705 24.5479L36.5689 25.984L23.7772 33.4319L10.9522 25.984Z" fill="url(#paint44_linear_2314_11861)"/>
<path id="Vector_108" opacity="0.5" d="M10.1172 24.5479L10.9522 25.984L11.1525 26.1176V26.5518C11.1525 26.5518 11.8873 26.9192 13.3235 27.7207C13.3569 27.7541 14.2252 28.6559 14.2252 28.6559C14.2252 28.6559 23.4433 34.2335 23.7772 34.2335C24.2114 34.2335 33.3627 28.5223 33.3627 28.5223C33.3627 28.5223 34.064 27.9211 34.1308 27.8877L36.402 26.7188V26.1176L36.5689 26.0174L37.3371 24.5812L23.7439 32.5969L10.1172 24.5479Z" fill="#DE5634"/>
<g id="Vector_109" style="mix-blend-mode:soft-light" opacity="0.69">
<path d="M23.7812 29.9254V32.5639L37.3745 24.5483C37.3745 24.5483 37.3077 23.2457 36.9069 22.3105L23.7812 29.9254Z" fill="url(#paint45_linear_2314_11861)"/>
</g>
<g id="Vector_110" style="mix-blend-mode:multiply" opacity="0.4">
<path d="M11.3894 22.9111C11.1556 22.9111 11.356 25.1154 12.0908 25.6164C13.2931 26.418 20.5407 30.693 21.0416 30.693C21.3756 30.693 21.3422 28.8227 21.242 28.6891C21.075 28.4219 11.7902 22.9111 11.3894 22.9111Z" fill="#FFDF66"/>
</g>
<g id="Vector_111" style="mix-blend-mode:multiply" opacity="0.4">
<path d="M27.8208 27.6545C27.6538 27.8215 27.6872 29.8922 27.9544 29.8254C28.2216 29.7586 32.3296 27.5877 34.2668 26.1516C36.2039 24.7154 36.4711 22.8451 36.0369 22.9119C36.0035 22.9119 28.1214 27.3205 27.8208 27.6545Z" fill="#FFDF66"/>
</g>
<path id="Vector_112" d="M23.6771 13.3594L36.7359 20.9743C37.2369 19.8387 37.3705 18.7366 37.3705 18.7366L36.5355 17.3004L23.6771 9.85254L10.8854 17.3004L10.1172 18.7366C10.1172 18.7366 10.1172 19.8053 10.5848 20.9743L23.6771 13.3594Z" fill="url(#paint46_linear_2314_11861)"/>
<path id="Vector_113" d="M36.5021 17.3004L37.3705 18.7366L23.6771 10.7543L10.1172 18.7366L10.8854 17.3004L23.6771 9.85254L36.5021 17.3004Z" fill="url(#paint47_linear_2314_11861)"/>
<path id="Vector_114" opacity="0.6" d="M33.3351 20.6403L34.1367 20.1059L36.4078 21.3751V20.8073C36.4078 20.8073 35.506 20.2395 34.0699 19.4379C34.0365 19.4045 33.3017 18.9704 33.3017 18.9704C33.3017 18.9704 24.0837 13.3594 23.7497 13.3594C23.3155 13.3594 14.1643 18.9036 14.1643 18.9036C14.1643 18.9036 13.4629 19.2709 13.3961 19.3043L11.1584 20.6069L11.125 21.5087L13.4963 19.9723L14.1977 20.6737L23.7497 15.0293L33.3351 20.6403Z" fill="#DE5634"/>
<path id="Vector_115" opacity="0.4" d="M23.6792 13.3592V10.7207L10.0859 18.7364C10.0859 18.7364 10.1527 20.0389 10.5535 20.9741L23.6792 13.3592Z" fill="#FFDF66"/>
<g id="Vector_116" style="mix-blend-mode:soft-light" opacity="0.69">
<path d="M36.07 20.4059C36.3038 20.4059 36.1034 18.2016 35.3686 17.7006C34.1663 16.8991 26.9188 12.624 26.4178 12.624C26.0838 12.624 26.1172 14.4943 26.2174 14.6279C26.3844 14.8951 35.7026 20.4059 36.07 20.4059Z" fill="url(#paint48_linear_2314_11861)"/>
</g>
<g id="Vector_117" style="mix-blend-mode:soft-light" opacity="0.4">
<path d="M19.6767 15.6305C19.8437 15.4635 19.8103 13.3928 19.5431 13.4596C19.276 13.5264 15.1679 15.6973 13.2308 17.1334C11.2937 18.5696 11.0265 20.4399 11.4607 20.3731C11.4607 20.4065 19.3428 15.9645 19.6767 15.6305Z" fill="#FFDF66"/>
</g>
<g id="Vector_118" style="mix-blend-mode:soft-light">
<path d="M30.3282 14.6291C30.3282 14.6291 24.0827 10.8885 23.6819 10.8885C23.2811 10.8885 18.3047 13.9278 18.3047 13.9278C18.3047 13.9278 23.5483 10.6213 23.6819 10.6213C23.7821 10.5879 30.3282 14.6291 30.3282 14.6291Z" fill="white"/>
</g>
<path id="Vector_119" opacity="0.5" d="M19.0736 8.44963C19.0736 8.44963 18.9734 9.0842 19.0068 9.1844C19.0402 9.2846 19.9086 10.6205 19.9086 10.6205V11.4889L23.8496 15.1628L27.7239 11.6225L27.8909 10.7541C27.8909 10.7541 28.7592 9.38479 28.7592 9.1844C28.7592 8.98401 27.9577 8.11564 27.9577 8.11564L23.8162 5.71094L19.0736 8.44963Z" fill="#DE5634"/>
<path id="Vector_120" d="M28.3913 8.88422L23.8825 2.67207L23.8491 2.63867L23.8157 2.67207L19.3068 8.88422L19.2734 8.91762L19.3068 8.95102L23.8157 15.1298V15.1966L23.8491 15.1632L23.8825 15.1966V15.1298L28.3913 8.88422Z" fill="url(#paint49_linear_2314_11861)"/>
<path id="Vector_121" opacity="0.5" d="M20.2344 8.88441L23.8414 3.94141L27.4485 8.88441L23.8414 13.8608L20.2344 8.88441Z" fill="#DE5634"/>
<path id="Vector_122" d="M20.4062 8.88382L23.8463 4.20801L27.253 8.88382L23.8463 13.593L20.4062 8.88382Z" fill="url(#paint50_linear_2314_11861)"/>
<g id="Vector_123" style="mix-blend-mode:soft-light" opacity="0.4">
<path d="M23.7851 2.97226C23.3843 3.37304 19.5434 8.58324 19.6102 8.71683C19.677 8.85043 21.18 8.85043 24.0857 8.81703C26.9579 8.78363 28.1603 8.78363 28.1937 8.71683C28.1937 8.65003 23.8519 2.90546 23.7851 2.97226Z" fill="#FFDF66"/>
</g>
<g id="Vector_124" style="mix-blend-mode:soft-light" opacity="0.37">
<path d="M19.5008 8.91734C19.434 9.15113 23.6422 14.8623 23.9094 14.7955C24.1766 14.6953 28.318 9.05093 28.0508 8.88394C27.7503 8.75034 19.5342 8.71694 19.5008 8.91734Z" fill="url(#paint51_linear_2314_11861)"/>
</g>
<g id="Vector_125" style="mix-blend-mode:multiply">
<path d="M25.2227 20.9744C24.9889 21.1748 25.1893 21.3084 25.1893 21.3084L26.4251 20.9744C26.4251 20.9744 25.7571 20.5068 25.2227 20.9744Z" fill="white"/>
</g>
<g id="Vector_126" style="mix-blend-mode:multiply" opacity="0.5">
<path d="M20.7805 30.8268L20.2461 32.1627L19.5781 32.8307V35.3356L23.7864 37.7403L28.2952 35.1352L28.195 32.7639L27.4602 32.0959L26.9926 30.76L23.7864 27.8877L20.7805 30.8268Z" fill="#DE5634"/>
</g>
<path id="Vector_127" d="M28.3913 33.7993L23.8825 27.5871L23.8491 27.5537L23.8157 27.5871L19.3068 33.7659L19.2734 33.7993L19.3068 33.8327L23.8157 40.0114V40.0782L23.8491 40.0448L23.8825 40.0782V40.0114L28.3913 33.7993Z" fill="url(#paint52_linear_2314_11861)"/>
<path id="Vector_128" opacity="0.5" d="M20.2344 33.7996L23.8414 28.8232L27.4485 33.7996L23.8414 38.7427L20.2344 33.7996Z" fill="#DE5634"/>
<path id="Vector_129" d="M20.4062 33.7991L23.8463 29.0898L27.253 33.7991L23.8463 38.4749L20.4062 33.7991Z" fill="url(#paint53_linear_2314_11861)"/>
<g id="Vector_130" style="mix-blend-mode:multiply" opacity="0.4">
<path d="M23.7851 27.8873C23.3843 28.2881 19.5434 33.4983 19.6102 33.6319C19.677 33.7655 21.18 33.7655 24.0857 33.7321C26.9579 33.6987 28.1603 33.6987 28.1937 33.6319C28.1937 33.5317 23.8519 27.8205 23.7851 27.8873Z" fill="#FFDF66"/>
</g>
<g id="Vector_131" style="mix-blend-mode:multiply" opacity="0.37">
<path d="M19.5008 33.8002C19.434 34.034 23.6422 39.7451 23.9094 39.6783C24.1766 39.5781 28.318 33.9338 28.0508 33.8002C27.7503 33.6332 19.5342 33.5998 19.5008 33.8002Z" fill="url(#paint54_linear_2314_11861)"/>
</g>
<g id="Vector_132" filter="url(#filter0_d_2314_11861)">
<path d="M24.357 16.6992H21.0391V27.0528H26.3281V25.3517H28.0528V21.0991L24.357 16.6992ZM26.3281 25.3354H22.7637V18.4166H23.5522L26.3281 21.7206V25.3354Z" fill="url(#paint55_linear_2314_11861)"/>
</g>
</g>
<defs>
<filter id="filter0_d_2314_11861" x="17.0391" y="16.6992" width="15.0156" height="18.3535" filterUnits="userSpaceOnUse" color-interpolation-filters="sRGB">
<feFlood flood-opacity="0" result="BackgroundImageFix"/>
<feColorMatrix in="SourceAlpha" type="matrix" values="0 0 0 0 0 0 0 0 0 0 0 0 0 0 0 0 0 0 127 0" result="hardAlpha"/>
<feOffset dy="4"/>
<feGaussianBlur stdDeviation="2"/>
<feComposite in2="hardAlpha" operator="out"/>
<feColorMatrix type="matrix" values="0 0 0 0 0.498039 0 0 0 0 0.0196078 0 0 0 0 0.0196078 0 0 0 0.5 0"/>
<feBlend mode="normal" in2="BackgroundImageFix" result="effect1_dropShadow_2314_11861"/>
<feBlend mode="normal" in="SourceGraphic" in2="effect1_dropShadow_2314_11861" result="shape"/>
</filter>
<linearGradient id="paint0_linear_2314_11861" x1="9.33732" y1="31.7244" x2="15.0276" y2="31.7244" gradientUnits="userSpaceOnUse">
<stop stop-color="#DE3C14"/>
<stop offset="0.0736727" stop-color="#C72E10"/>
<stop offset="0.1852" stop-color="#AB1C0C"/>
<stop offset="0.2972" stop-color="#971009"/>
<stop offset="0.409" stop-color="#8B0807"/>
<stop offset="0.5205" stop-color="#870606"/>
<stop offset="0.6152" stop-color="#8C0707"/>
<stop offset="0.727" stop-color="#9A0808"/>
<stop offset="0.8475" stop-color="#B20B0B"/>
<stop offset="0.9732" stop-color="#D30E0E"/>
<stop offset="1" stop-color="#DB0F0F"/>
</linearGradient>
<linearGradient id="paint1_linear_2314_11861" x1="9.43946" y1="34.5278" x2="14.6723" y2="34.5278" gradientUnits="userSpaceOnUse">
<stop stop-color="#FFA933"/>
<stop offset="0.0524895" stop-color="#FFB030"/>
<stop offset="0.182" stop-color="#FFBA2C"/>
<stop offset="0.3393" stop-color="#FFBD2B"/>
<stop offset="0.3449" stop-color="#FEBB2B"/>
<stop offset="0.4289" stop-color="#EB9E2E"/>
<stop offset="0.5184" stop-color="#DC8731"/>
<stop offset="0.6154" stop-color="#D27733"/>
<stop offset="0.7248" stop-color="#CC6E34"/>
<stop offset="0.873" stop-color="#CA6B34"/>
<stop offset="0.9227" stop-color="#E39130"/>
<stop offset="0.9725" stop-color="#F7B12C"/>
<stop offset="1" stop-color="#FFBD2B"/>
</linearGradient>
<linearGradient id="paint2_linear_2314_11861" x1="12.0993" y1="45.8855" x2="12.0993" y2="38.9912" gradientUnits="userSpaceOnUse">
<stop stop-color="white"/>
<stop offset="1" stop-color="#B41E2D"/>
</linearGradient>
<linearGradient id="paint3_linear_2314_11861" x1="32.4536" y1="31.6751" x2="37.9095" y2="31.6751" gradientUnits="userSpaceOnUse">
<stop stop-color="#DE3C14"/>
<stop offset="0.0736727" stop-color="#C72E10"/>
<stop offset="0.1852" stop-color="#AB1C0C"/>
<stop offset="0.2972" stop-color="#971009"/>
<stop offset="0.409" stop-color="#8B0807"/>
<stop offset="0.5205" stop-color="#870606"/>
<stop offset="0.6152" stop-color="#8C0707"/>
<stop offset="0.727" stop-color="#9A0808"/>
<stop offset="0.8475" stop-color="#B20B0B"/>
<stop offset="0.9732" stop-color="#D30E0E"/>
<stop offset="1" stop-color="#DB0F0F"/>
</linearGradient>
<linearGradient id="paint4_linear_2314_11861" x1="32.6794" y1="34.5278" x2="37.9123" y2="34.5278" gradientUnits="userSpaceOnUse">
<stop stop-color="#FFA933"/>
<stop offset="0.0524895" stop-color="#FFB030"/>
<stop offset="0.182" stop-color="#FFBA2C"/>
<stop offset="0.3393" stop-color="#FFBD2B"/>
<stop offset="0.3449" stop-color="#FEBB2B"/>
<stop offset="0.4289" stop-color="#EB9E2E"/>
<stop offset="0.5184" stop-color="#DC8731"/>
<stop offset="0.6154" stop-color="#D27733"/>
<stop offset="0.7248" stop-color="#CC6E34"/>
<stop offset="0.873" stop-color="#CA6B34"/>
<stop offset="0.9227" stop-color="#E39130"/>
<stop offset="0.9725" stop-color="#F7B12C"/>
<stop offset="1" stop-color="#FFBD2B"/>
</linearGradient>
<linearGradient id="paint5_linear_2314_11861" x1="35.1815" y1="45.8855" x2="35.1815" y2="38.9912" gradientUnits="userSpaceOnUse">
<stop stop-color="white"/>
<stop offset="1" stop-color="#B41E2D"/>
</linearGradient>
<linearGradient id="paint6_linear_2314_11861" x1="14.0086" y1="37.9617" x2="22.3167" y2="37.9617" gradientUnits="userSpaceOnUse">
<stop stop-color="#DE3C14"/>
<stop offset="0.0736727" stop-color="#C72E10"/>
<stop offset="0.1852" stop-color="#AB1C0C"/>
<stop offset="0.2972" stop-color="#971009"/>
<stop offset="0.409" stop-color="#8B0807"/>
<stop offset="0.5205" stop-color="#870606"/>
<stop offset="0.6152" stop-color="#8C0707"/>
<stop offset="0.727" stop-color="#9A0808"/>
<stop offset="0.8475" stop-color="#B20B0B"/>
<stop offset="0.9732" stop-color="#D30E0E"/>
<stop offset="1" stop-color="#DB0F0F"/>
</linearGradient>
<linearGradient id="paint7_linear_2314_11861" x1="14.0107" y1="40.1068" x2="22.3188" y2="40.1068" gradientUnits="userSpaceOnUse">
<stop stop-color="#FFA933"/>
<stop offset="0.0524895" stop-color="#FFB030"/>
<stop offset="0.182" stop-color="#FFBA2C"/>
<stop offset="0.3393" stop-color="#FFBD2B"/>
<stop offset="0.3449" stop-color="#FEBB2B"/>
<stop offset="0.4289" stop-color="#EB9E2E"/>
<stop offset="0.5184" stop-color="#DC8731"/>
<stop offset="0.6154" stop-color="#D27733"/>
<stop offset="0.7248" stop-color="#CC6E34"/>
<stop offset="0.873" stop-color="#CA6B34"/>
<stop offset="0.9227" stop-color="#E39130"/>
<stop offset="0.9725" stop-color="#F7B12C"/>
<stop offset="1" stop-color="#FFBD2B"/>
</linearGradient>
<linearGradient id="paint8_linear_2314_11861" x1="25.1446" y1="37.9617" x2="33.4527" y2="37.9617" gradientUnits="userSpaceOnUse">
<stop stop-color="#DE3C14"/>
<stop offset="0.0736727" stop-color="#C72E10"/>
<stop offset="0.1852" stop-color="#AB1C0C"/>
<stop offset="0.2972" stop-color="#971009"/>
<stop offset="0.409" stop-color="#8B0807"/>
<stop offset="0.5205" stop-color="#870606"/>
<stop offset="0.6152" stop-color="#8C0707"/>
<stop offset="0.727" stop-color="#9A0808"/>
<stop offset="0.8475" stop-color="#B20B0B"/>
<stop offset="0.9732" stop-color="#D30E0E"/>
<stop offset="1" stop-color="#DB0F0F"/>
</linearGradient>
<linearGradient id="paint9_linear_2314_11861" x1="25.1446" y1="40.1068" x2="33.4527" y2="40.1068" gradientUnits="userSpaceOnUse">
<stop stop-color="#FFA933"/>
<stop offset="0.0524895" stop-color="#FFB030"/>
<stop offset="0.182" stop-color="#FFBA2C"/>
<stop offset="0.3393" stop-color="#FFBD2B"/>
<stop offset="0.3449" stop-color="#FEBB2B"/>
<stop offset="0.4289" stop-color="#EB9E2E"/>
<stop offset="0.5184" stop-color="#DC8731"/>
<stop offset="0.6154" stop-color="#D27733"/>
<stop offset="0.7248" stop-color="#CC6E34"/>
<stop offset="0.873" stop-color="#CA6B34"/>
<stop offset="0.9227" stop-color="#E39130"/>
<stop offset="0.9725" stop-color="#F7B12C"/>
<stop offset="1" stop-color="#FFBD2B"/>
</linearGradient>
<linearGradient id="paint10_linear_2314_11861" x1="18.1626" y1="45.8862" x2="18.1626" y2="38.9919" gradientUnits="userSpaceOnUse">
<stop stop-color="white"/>
<stop offset="1" stop-color="#B41E2D"/>
</linearGradient>
<linearGradient id="paint11_linear_2314_11861" x1="29.2965" y1="45.8851" x2="29.2965" y2="38.9908" gradientUnits="userSpaceOnUse">
<stop stop-color="white"/>
<stop offset="1" stop-color="#B41E2D"/>
</linearGradient>
<linearGradient id="paint12_linear_2314_11861" x1="36.2053" y1="23.7233" x2="36.205" y2="17.4733" gradientUnits="userSpaceOnUse">
<stop stop-color="#CA6B34"/>
<stop offset="0.6667" stop-color="#FFA933"/>
<stop offset="1" stop-color="#FFBD2B"/>
</linearGradient>
<linearGradient id="paint13_linear_2314_11861" x1="39.7719" y1="18.966" x2="43.6946" y2="18.966" gradientUnits="userSpaceOnUse">
<stop stop-color="#DE3C14"/>
<stop offset="0.0736727" stop-color="#C72E10"/>
<stop offset="0.1852" stop-color="#AB1C0C"/>
<stop offset="0.2972" stop-color="#971009"/>
<stop offset="0.409" stop-color="#8B0807"/>
<stop offset="0.5205" stop-color="#870606"/>
<stop offset="0.6152" stop-color="#8C0707"/>
<stop offset="0.727" stop-color="#9A0808"/>
<stop offset="0.8475" stop-color="#B20B0B"/>
<stop offset="0.9732" stop-color="#D30E0E"/>
<stop offset="1" stop-color="#DB0F0F"/>
</linearGradient>
<linearGradient id="paint14_linear_2314_11861" x1="11.2557" y1="23.7234" x2="11.2561" y2="17.4732" gradientUnits="userSpaceOnUse">
<stop stop-color="#CA6B34"/>
<stop offset="0.6667" stop-color="#FFA933"/>
<stop offset="1" stop-color="#FFBD2B"/>
</linearGradient>
<linearGradient id="paint15_linear_2314_11861" x1="3.72926" y1="18.9812" x2="7.65204" y2="18.9812" gradientUnits="userSpaceOnUse">
<stop stop-color="#DE3C14"/>
<stop offset="0.0736727" stop-color="#C72E10"/>
<stop offset="0.1852" stop-color="#AB1C0C"/>
<stop offset="0.2972" stop-color="#971009"/>
<stop offset="0.409" stop-color="#8B0807"/>
<stop offset="0.5205" stop-color="#870606"/>
<stop offset="0.6152" stop-color="#8C0707"/>
<stop offset="0.727" stop-color="#9A0808"/>
<stop offset="0.8475" stop-color="#B20B0B"/>
<stop offset="0.9732" stop-color="#D30E0E"/>
<stop offset="1" stop-color="#DB0F0F"/>
</linearGradient>
<linearGradient id="paint16_linear_2314_11861" x1="38.2318" y1="19.7793" x2="38.2315" y2="13.5292" gradientUnits="userSpaceOnUse">
<stop stop-color="#CA6B34"/>
<stop offset="0.6667" stop-color="#FFA933"/>
<stop offset="1" stop-color="#FFBD2B"/>
</linearGradient>
<linearGradient id="paint17_linear_2314_11861" x1="41.9076" y1="15.0292" x2="45.8304" y2="15.0292" gradientUnits="userSpaceOnUse">
<stop stop-color="#DE3C14"/>
<stop offset="0.0736727" stop-color="#C72E10"/>
<stop offset="0.1852" stop-color="#AB1C0C"/>
<stop offset="0.2972" stop-color="#971009"/>
<stop offset="0.409" stop-color="#8B0807"/>
<stop offset="0.5205" stop-color="#870606"/>
<stop offset="0.6152" stop-color="#8C0707"/>
<stop offset="0.727" stop-color="#9A0808"/>
<stop offset="0.8475" stop-color="#B20B0B"/>
<stop offset="0.9732" stop-color="#D30E0E"/>
<stop offset="1" stop-color="#DB0F0F"/>
</linearGradient>
<linearGradient id="paint18_linear_2314_11861" x1="9.12202" y1="19.7793" x2="9.12239" y2="13.5292" gradientUnits="userSpaceOnUse">
<stop stop-color="#CA6B34"/>
<stop offset="0.6667" stop-color="#FFA933"/>
<stop offset="1" stop-color="#FFBD2B"/>
</linearGradient>
<linearGradient id="paint19_linear_2314_11861" x1="1.57138" y1="15.041" x2="5.49412" y2="15.041" gradientUnits="userSpaceOnUse">
<stop stop-color="#DE3C14"/>
<stop offset="0.0736727" stop-color="#C72E10"/>
<stop offset="0.1852" stop-color="#AB1C0C"/>
<stop offset="0.2972" stop-color="#971009"/>
<stop offset="0.409" stop-color="#8B0807"/>
<stop offset="0.5205" stop-color="#870606"/>
<stop offset="0.6152" stop-color="#8C0707"/>
<stop offset="0.727" stop-color="#9A0808"/>
<stop offset="0.8475" stop-color="#B20B0B"/>
<stop offset="0.9732" stop-color="#D30E0E"/>
<stop offset="1" stop-color="#DB0F0F"/>
</linearGradient>
<linearGradient id="paint20_linear_2314_11861" x1="16.3535" y1="16.5611" x2="16.3535" y2="5.64929" gradientUnits="userSpaceOnUse">
<stop stop-color="#CA6B34"/>
<stop offset="0.6667" stop-color="#FFA933"/>
<stop offset="1" stop-color="#FFBD2B"/>
</linearGradient>
<linearGradient id="paint21_linear_2314_11861" x1="15.1453" y1="13.1453" x2="15.1453" y2="2.86277" gradientUnits="userSpaceOnUse">
<stop stop-color="#CA6B34"/>
<stop offset="0.6667" stop-color="#FFA933"/>
<stop offset="1" stop-color="#FFBD2B"/>
</linearGradient>
<linearGradient id="paint22_linear_2314_11861" x1="16.4912" y1="9.5206" x2="16.4912" y2="15.9916" gradientUnits="userSpaceOnUse">
<stop stop-color="#C10065"/>
<stop offset="1" stop-color="white"/>
</linearGradient>
<linearGradient id="paint23_linear_2314_11861" x1="31.0843" y1="16.5611" x2="31.0843" y2="5.64929" gradientUnits="userSpaceOnUse">
<stop stop-color="#CA6B34"/>
<stop offset="0.6667" stop-color="#FFA933"/>
<stop offset="1" stop-color="#FFBD2B"/>
</linearGradient>
<linearGradient id="paint24_linear_2314_11861" x1="32.322" y1="13.1453" x2="32.322" y2="2.86277" gradientUnits="userSpaceOnUse">
<stop stop-color="#CA6B34"/>
<stop offset="0.6667" stop-color="#FFA933"/>
<stop offset="1" stop-color="#FFBD2B"/>
</linearGradient>
<linearGradient id="paint25_linear_2314_11861" x1="30.9646" y1="9.5206" x2="30.9646" y2="15.9916" gradientUnits="userSpaceOnUse">
<stop stop-color="#C10065"/>
<stop offset="1" stop-color="white"/>
</linearGradient>
<linearGradient id="paint26_linear_2314_11861" x1="8.22637" y1="28.8031" x2="8.22637" y2="21.9026" gradientUnits="userSpaceOnUse">
<stop stop-color="#CA6B34"/>
<stop offset="0.6667" stop-color="#FFA933"/>
<stop offset="1" stop-color="#FFBD2B"/>
</linearGradient>
<linearGradient id="paint27_linear_2314_11861" x1="9.03459" y1="25.0914" x2="9.03459" y2="28.3121" gradientUnits="userSpaceOnUse">
<stop stop-color="#C10065"/>
<stop offset="1" stop-color="white"/>
</linearGradient>
<linearGradient id="paint28_linear_2314_11861" x1="39.2374" y1="28.8031" x2="39.2374" y2="21.9026" gradientUnits="userSpaceOnUse">
<stop stop-color="#CA6B34"/>
<stop offset="0.6667" stop-color="#FFA933"/>
<stop offset="1" stop-color="#FFBD2B"/>
</linearGradient>
<linearGradient id="paint29_linear_2314_11861" x1="38.4299" y1="25.0914" x2="38.4299" y2="28.3121" gradientUnits="userSpaceOnUse">
<stop stop-color="#C10065"/>
<stop offset="1" stop-color="white"/>
</linearGradient>
<linearGradient id="paint30_linear_2314_11861" x1="34.3167" y1="12.1191" x2="34.3167" y2="7.25062" gradientUnits="userSpaceOnUse">
<stop stop-color="#CA6B34"/>
<stop offset="0.6667" stop-color="#FFA933"/>
<stop offset="1" stop-color="#FFBD2B"/>
</linearGradient>
<linearGradient id="paint31_linear_2314_11861" x1="37.0432" y1="10.5524" x2="32.0703" y2="8.11817" gradientUnits="userSpaceOnUse">
<stop stop-color="#C10065"/>
<stop offset="1" stop-color="white"/>
</linearGradient>
<linearGradient id="paint32_linear_2314_11861" x1="38.5129" y1="7.56389" x2="33.54" y2="5.12963" gradientUnits="userSpaceOnUse">
<stop stop-color="#C10065"/>
<stop offset="1" stop-color="white"/>
</linearGradient>
<linearGradient id="paint33_linear_2314_11861" x1="13.1513" y1="12.1191" x2="13.1513" y2="7.25062" gradientUnits="userSpaceOnUse">
<stop stop-color="#CA6B34"/>
<stop offset="0.6667" stop-color="#FFA933"/>
<stop offset="1" stop-color="#FFBD2B"/>
</linearGradient>
<linearGradient id="paint34_linear_2314_11861" x1="10.4235" y1="10.5524" x2="15.3964" y2="8.11817" gradientUnits="userSpaceOnUse">
<stop stop-color="#C10065"/>
<stop offset="1" stop-color="white"/>
</linearGradient>
<linearGradient id="paint35_linear_2314_11861" x1="8.95567" y1="7.56389" x2="13.9285" y2="5.12963" gradientUnits="userSpaceOnUse">
<stop stop-color="#C10065"/>
<stop offset="1" stop-color="white"/>
</linearGradient>
<linearGradient id="paint36_linear_2314_11861" x1="23.7837" y1="38.2804" x2="23.7837" y2="10.8452" gradientUnits="userSpaceOnUse">
<stop stop-color="#CA6B34"/>
<stop offset="0.6667" stop-color="#FFA933"/>
<stop offset="1" stop-color="#FFBD2B"/>
</linearGradient>
<linearGradient id="paint37_linear_2314_11861" x1="23.786" y1="6.02079" x2="23.786" y2="33.5982" gradientUnits="userSpaceOnUse">
<stop stop-color="#CA6B34"/>
<stop offset="0.1742" stop-color="#CC6E34"/>
<stop offset="0.2919" stop-color="#D27733"/>
<stop offset="0.3931" stop-color="#DB8631"/>
<stop offset="0.4848" stop-color="#E99B2F"/>
<stop offset="0.5694" stop-color="#FBB72C"/>
<stop offset="0.5853" stop-color="#FFBD2B"/>
<stop offset="1" stop-color="#FFA933"/>
</linearGradient>
<linearGradient id="paint38_linear_2314_11861" x1="23.7913" y1="34.214" x2="23.7913" y2="9.25533" gradientUnits="userSpaceOnUse">
<stop stop-color="#B75014"/>
<stop offset="0.375" stop-color="#E8692A"/>
<stop offset="1" stop-color="#F58E2F"/>
</linearGradient>
<linearGradient id="paint39_linear_2314_11861" x1="12.2781" y1="22.6111" x2="12.2781" y2="30.1379" gradientUnits="userSpaceOnUse">
<stop stop-color="#C10065"/>
<stop offset="1" stop-color="white"/>
</linearGradient>
<linearGradient id="paint40_linear_2314_11861" x1="35.2407" y1="22.6111" x2="35.2407" y2="30.1379" gradientUnits="userSpaceOnUse">
<stop stop-color="#C10065"/>
<stop offset="1" stop-color="white"/>
</linearGradient>
<linearGradient id="paint41_linear_2314_11861" x1="17.7162" y1="29.491" x2="17.7162" y2="37.2689" gradientUnits="userSpaceOnUse">
<stop stop-color="#C10065"/>
<stop offset="1" stop-color="white"/>
</linearGradient>
<linearGradient id="paint42_linear_2314_11861" x1="29.8513" y1="29.4925" x2="29.8513" y2="37.4228" gradientUnits="userSpaceOnUse">
<stop stop-color="#C10065"/>
<stop offset="1" stop-color="white"/>
</linearGradient>
<linearGradient id="paint43_linear_2314_11861" x1="23.7326" y1="11.1095" x2="23.7326" y2="30.9936" gradientUnits="userSpaceOnUse">
<stop stop-color="#CA6B34"/>
<stop offset="0.6667" stop-color="#FFA933"/>
<stop offset="1" stop-color="#FFBD2B"/>
</linearGradient>
<linearGradient id="paint44_linear_2314_11861" x1="23.7304" y1="33.4315" x2="23.7304" y2="24.5503" gradientUnits="userSpaceOnUse">
<stop stop-color="#F1CB3C"/>
<stop offset="1" stop-color="#FFC14F"/>
</linearGradient>
<linearGradient id="paint45_linear_2314_11861" x1="30.5673" y1="22.3226" x2="30.5673" y2="32.5563" gradientUnits="userSpaceOnUse">
<stop stop-color="#C10065"/>
<stop offset="1" stop-color="white"/>
</linearGradient>
<linearGradient id="paint46_linear_2314_11861" x1="23.7304" y1="23.241" x2="23.7304" y2="3.3569" gradientUnits="userSpaceOnUse">
<stop stop-color="#CA6B34"/>
<stop offset="0.6667" stop-color="#FFA933"/>
<stop offset="1" stop-color="#FFBD2B"/>
</linearGradient>
<linearGradient id="paint47_linear_2314_11861" x1="23.7304" y1="9.8645" x2="23.7304" y2="18.7457" gradientUnits="userSpaceOnUse">
<stop stop-color="#F1CB3C"/>
<stop offset="1" stop-color="#FFC14F"/>
</linearGradient>
<linearGradient id="paint48_linear_2314_11861" x1="45.8503" y1="16.4925" x2="23.5767" y2="16.4925" gradientUnits="userSpaceOnUse">
<stop stop-color="#C10065"/>
<stop offset="1" stop-color="white"/>
</linearGradient>
<linearGradient id="paint49_linear_2314_11861" x1="23.8427" y1="14.9038" x2="23.8427" y2="3.91427" gradientUnits="userSpaceOnUse">
<stop stop-color="#CA6B34"/>
<stop offset="0.6667" stop-color="#FFA933"/>
<stop offset="1" stop-color="#FFBD2B"/>
</linearGradient>
<linearGradient id="paint50_linear_2314_11861" x1="20.4217" y1="8.89505" x2="27.2584" y2="8.89505" gradientUnits="userSpaceOnUse">
<stop stop-color="#DE3C14"/>
<stop offset="0.0736727" stop-color="#C72E10"/>
<stop offset="0.1852" stop-color="#AB1C0C"/>
<stop offset="0.2972" stop-color="#971009"/>
<stop offset="0.409" stop-color="#8B0807"/>
<stop offset="0.5205" stop-color="#870606"/>
<stop offset="0.6152" stop-color="#8C0707"/>
<stop offset="0.727" stop-color="#9A0808"/>
<stop offset="0.8475" stop-color="#B20B0B"/>
<stop offset="0.9732" stop-color="#D30E0E"/>
<stop offset="1" stop-color="#DB0F0F"/>
</linearGradient>
<linearGradient id="paint51_linear_2314_11861" x1="23.7677" y1="8.76915" x2="23.7677" y2="14.7769" gradientUnits="userSpaceOnUse">
<stop stop-color="#C10065"/>
<stop offset="1" stop-color="white"/>
</linearGradient>
<linearGradient id="paint52_linear_2314_11861" x1="23.8427" y1="39.7964" x2="23.8427" y2="28.8069" gradientUnits="userSpaceOnUse">
<stop stop-color="#CA6B34"/>
<stop offset="0.6667" stop-color="#FFA933"/>
<stop offset="1" stop-color="#FFBD2B"/>
</linearGradient>
<linearGradient id="paint53_linear_2314_11861" x1="20.4217" y1="33.7878" x2="27.2584" y2="33.7878" gradientUnits="userSpaceOnUse">
<stop stop-color="#DE3C14"/>
<stop offset="0.0736727" stop-color="#C72E10"/>
<stop offset="0.1852" stop-color="#AB1C0C"/>
<stop offset="0.2972" stop-color="#971009"/>
<stop offset="0.409" stop-color="#8B0807"/>
<stop offset="0.5205" stop-color="#870606"/>
<stop offset="0.6152" stop-color="#8C0707"/>
<stop offset="0.727" stop-color="#9A0808"/>
<stop offset="0.8475" stop-color="#B20B0B"/>
<stop offset="0.9732" stop-color="#D30E0E"/>
<stop offset="1" stop-color="#DB0F0F"/>
</linearGradient>
<linearGradient id="paint54_linear_2314_11861" x1="23.7677" y1="33.6629" x2="23.7677" y2="39.6707" gradientUnits="userSpaceOnUse">
<stop stop-color="#C10065"/>
<stop offset="1" stop-color="white"/>
</linearGradient>
<linearGradient id="paint55_linear_2314_11861" x1="21.707" y1="17.8682" x2="25.5479" y2="27.7208" gradientUnits="userSpaceOnUse">
<stop stop-color="#FFC943"/>
<stop offset="1" stop-color="#870606"/>
</linearGradient>
</defs>
</svg>
