<svg width="16" height="16" viewBox="0 0 16 16" fill="none" xmlns="http://www.w3.org/2000/svg">
<g id="Group 1261154477">
<g id="Group">
<path id="Vector" d="M8 16C12.4183 16 16 12.4183 16 8C16 3.58172 12.4183 0 8 0C3.58172 0 0 3.58172 0 8C0 12.4183 3.58172 16 8 16Z" fill="url(#paint0_linear_2299_7551)"/>
<g id="Group_2">
<g id="Group_3">
<g id="Group_4">
<g id="Group_5">
<path id="Vector_2" d="M12.5446 5.31543H10.5071C10.1476 5.31543 9.91387 5.69296 10.0757 6.01056L10.9506 7.77835C11.0165 7.91618 11.0165 8.07198 10.9506 8.20981L10.0757 9.9776C9.91387 10.3012 10.1536 10.6727 10.5071 10.6727H12.5446C12.7184 10.6727 12.8742 10.5828 12.9641 10.433L14.2345 8.23378C14.3184 8.08397 14.3184 7.8982 14.2345 7.74839L12.9641 5.54914C12.8802 5.41131 12.7184 5.31543 12.5446 5.31543Z" fill="url(#paint1_linear_2299_7551)"/>
</g>
</g>
</g>
<g id="Group_6">
<g id="Group_7">
<g id="Group_8">
<path id="Vector_3" d="M4.18089 10.6845H6.00261C6.43407 10.6845 6.71572 10.229 6.52396 9.8455L5.73894 8.26348C5.66104 8.10168 5.66104 7.90992 5.73894 7.74812L6.52396 6.1661C6.71572 5.77659 6.43407 5.32715 6.00261 5.32715H4.18089C3.97115 5.32715 3.77939 5.44101 3.67752 5.62078L2.46703 7.71816C2.36516 7.89794 2.36516 8.11966 2.46703 8.29943L3.67752 10.3968C3.77939 10.5706 3.97115 10.6845 4.18089 10.6845Z" fill="url(#paint2_linear_2299_7551)"/>
</g>
</g>
</g>
<g id="Group_9">
<g id="Group_10">
<g id="Group_11">
<path id="Vector_4" d="M9.59226 12.9259H4.91211C4.6005 12.9259 4.31286 12.7581 4.15706 12.4885L1.81998 8.43751C1.66417 8.16785 1.66417 7.83227 1.81998 7.56261L4.15706 3.51167C4.31286 3.24201 4.6005 3.07422 4.91211 3.07422H9.59226C9.90387 3.07422 10.1915 3.24201 10.3473 3.51167L12.6844 7.56261C12.8402 7.83227 12.8402 8.16785 12.6844 8.43751L10.3473 12.4885C10.1915 12.7581 9.90387 12.9259 9.59226 12.9259ZM5.25968 12.3207H9.23871C9.55032 12.3207 9.83796 12.1529 9.99376 11.8832L11.9833 8.43751C12.1391 8.16785 12.1391 7.83227 11.9833 7.56261L9.99376 4.11692C9.83796 3.84725 9.55032 3.67946 9.23871 3.67946H5.25968C4.94807 3.67946 4.66043 3.84725 4.50462 4.11692L2.51511 7.56261C2.3593 7.83227 2.3593 8.16785 2.51511 8.43751L4.50462 11.8832C4.66043 12.1529 4.94807 12.3207 5.25968 12.3207Z" fill="url(#paint3_linear_2299_7551)"/>
</g>
</g>
</g>
</g>
</g>
</g>
<defs>
<linearGradient id="paint0_linear_2299_7551" x1="8" y1="0" x2="8" y2="16" gradientUnits="userSpaceOnUse">
<stop stop-color="#CCFA82"/>
<stop offset="1" stop-color="#0DB4C8"/>
</linearGradient>
<linearGradient id="paint1_linear_2299_7551" x1="10.0217" y1="8.00003" x2="14.2984" y2="8.00003" gradientUnits="userSpaceOnUse">
<stop stop-color="white" stop-opacity="0.1"/>
<stop offset="1" stop-color="white"/>
</linearGradient>
<linearGradient id="paint2_linear_2299_7551" x1="2.38566" y1="7.99977" x2="6.58722" y2="7.99977" gradientUnits="userSpaceOnUse">
<stop stop-color="white" stop-opacity="0.1"/>
<stop offset="1" stop-color="white"/>
</linearGradient>
<linearGradient id="paint3_linear_2299_7551" x1="3.39157" y1="13.6531" x2="9.78356" y2="4.28886" gradientUnits="userSpaceOnUse">
<stop stop-color="white" stop-opacity="0.1"/>
<stop offset="1" stop-color="white"/>
</linearGradient>
</defs>
</svg>
