<svg width="197" height="183" viewBox="0 0 197 183" fill="none" xmlns="http://www.w3.org/2000/svg">
<g id="Group 1261156826">
<g id="Group" style="mix-blend-mode:luminosity">
<g id="Group_2">
<g id="Group_3">
<g id="Group_4">
<path id="Vector" d="M42.1309 97.3311C41.8508 97.7179 27.8977 84.3254 27.8977 84.3254C25.6749 69.6087 26.6641 59.3496 26.6641 59.3496L55.0189 72.3321L42.1309 97.3311Z" fill="url(#paint0_linear_2319_14662)"/>
<path id="Vector_2" d="M32.0625 61.7178C32.0625 61.7178 32.4274 78.4678 32.9567 80.4611L47.0669 87.4366L47.4957 86.4999C47.4957 86.4999 34.3437 80.5812 33.8113 79.7194C33.2789 78.8576 32.7899 62.1538 32.7899 62.1538L32.0235 61.8029L32.0625 61.7178Z" fill="#335C64"/>
<path id="Vector_3" d="M32.0625 61.7178L32.9567 80.4611C32.9567 80.4611 31.933 75.0484 31.8284 70.7776C31.7239 66.5067 32.0625 61.7178 32.0625 61.7178Z" fill="#507282"/>
<path id="Vector_4" opacity="0.5" d="M33.6816 63.5917C33.3071 67.3342 34.2189 76.8157 35.1555 77.2446C36.0922 77.6734 46.6436 82.2984 48.3671 81.2336C50.0055 80.1297 54.2098 73.1967 53.4363 72.6366C52.6628 72.0764 33.8335 61.9103 33.6816 63.5917Z" fill="white"/>
<path id="Vector_5" opacity="0.5" d="M27.3699 60.2897C27.2508 64.1491 27.2937 73.9537 27.9359 74.3508C28.5781 74.7478 30.8064 76.18 31.2742 75.1583C32.0611 73.6645 31.8049 62.5262 30.9852 61.8419C30.0414 61.2038 27.4192 59.2822 27.3699 60.2897Z" fill="white"/>
<path id="Vector_6" opacity="0.5" d="M28.1092 75.768C27.5562 76.7508 28.9246 83.6603 29.3257 84.359C29.7268 85.0576 40.6279 94.9928 41.7523 94.7866C42.8767 94.5804 48.2147 84.0465 47.6895 83.394C47.1253 82.8266 28.7863 74.739 28.1092 75.768Z" fill="url(#paint1_linear_2319_14662)"/>
<path id="Vector_7" opacity="0.5" d="M45.5156 67.8818C45.5156 67.8818 42.2006 81.196 36.4656 92.3721L42.1254 97.3325L55.0524 72.2483L45.5156 67.8818Z" fill="url(#paint2_linear_2319_14662)"/>
</g>
<g id="Group_5">
<path id="Vector_8" d="M130.09 137.6C129.98 138.065 149.235 139.877 149.235 139.877C161.829 131.944 168.949 124.492 168.949 124.492L140.594 111.51L130.09 137.6Z" fill="url(#paint3_linear_2319_14662)"/>
<path id="Vector_9" d="M163.537 121.912C163.537 121.912 150.619 132.58 148.764 133.482L134.264 127.358L134.693 126.421C134.693 126.421 147.767 132.51 148.767 132.35C149.806 132.105 162.732 121.646 162.732 121.646L163.498 121.997L163.537 121.912Z" fill="#335C64"/>
<path id="Vector_10" d="M163.545 121.912L148.771 133.482C148.771 133.482 153.538 130.72 156.839 128.009C160.141 125.297 163.545 121.912 163.545 121.912Z" fill="#507282"/>
<path id="Vector_11" opacity="0.5" d="M161.058 121.911C158.47 124.64 150.696 130.144 149.76 129.716C148.823 129.287 138.428 124.321 138.108 122.321C137.873 120.359 140.374 112.646 141.304 112.866C142.233 113.085 162.232 120.697 161.058 121.911Z" fill="white"/>
<path id="Vector_12" opacity="0.5" d="M167.769 124.572C164.925 127.184 157.475 133.558 156.755 133.331C156.035 133.105 153.495 132.354 153.963 131.332C154.579 129.76 163.178 122.676 164.232 122.85C165.247 123.108 168.415 123.838 167.769 124.572Z" fill="white"/>
<path id="Vector_13" opacity="0.5" d="M155.488 134.089C155.105 135.149 148.98 138.628 148.189 138.781C147.398 138.934 132.755 137.173 132.176 136.187C131.597 135.201 136.084 124.277 136.921 124.249C137.804 124.344 155.909 132.943 155.488 134.089Z" fill="url(#paint4_linear_2319_14662)"/>
<path id="Vector_14" opacity="0.5" d="M150.084 115.752C150.084 115.752 142.171 126.961 137.457 138.605L130.004 137.562L140.547 111.386L150.084 115.752Z" fill="url(#paint5_linear_2319_14662)"/>
</g>
</g>
<g id="Group_6">
<g id="Group_7">
<path id="Vector_15" d="M125.071 32.7153L66.3834 38.2899L37.1436 102.152L71.2694 150.222L129.957 144.647L159.196 80.785L125.071 32.7153Z" fill="url(#paint6_linear_2319_14662)"/>
<path id="Vector_16" d="M47.7868 101.156L72.6211 46.9156L120.617 42.4201L148.66 81.7305L123.825 135.971L75.705 140.512L47.7868 101.156Z" fill="url(#paint7_linear_2319_14662)"/>
<path id="Vector_17" d="M51.3372 100.826L74.69 49.8213L119.136 45.657L145.109 82.063L121.756 133.068L77.1862 137.278L51.3372 100.826Z" fill="#507282"/>
<path id="Vector_18" opacity="0.5" d="M67.4941 39.0045C66.1183 40.4346 70.0823 44.8246 73.9243 45.6567C77.7663 46.4888 119.151 42.2619 120.782 40.9488C121.271 40.5548 124.312 33.9132 124.057 33.7962C122.903 33.1653 68.1394 38.27 67.4941 39.0045Z" fill="white"/>
<path id="Vector_19" opacity="0.5" d="M157.754 80.3311C157.57 82.307 151.657 82.1745 148.517 79.8097C145.377 77.4449 121.87 43.3012 121.464 41.2616C121.219 40.2224 123.973 33.7582 124.739 34.1091C125.97 34.5697 157.889 79.3626 157.754 80.3311Z" fill="white"/>
<path id="Vector_20" opacity="0.5" d="M50.7563 75.3256C49.558 77.0429 37.6806 100.96 38.7096 101.637C39.7385 102.314 46.3218 101.208 47.318 99.7072C48.3142 98.2064 56.0017 81.6412 56.3628 79.9526C56.763 78.1788 52.8339 72.3628 50.7563 75.3256Z" fill="url(#paint8_linear_2319_14662)"/>
<path id="Vector_21" opacity="0.5" d="M141.181 116.729C140.664 118.758 130.319 143.377 129.134 143.04C127.949 142.704 124.485 136.997 124.97 135.263C125.456 133.528 132.973 116.885 134.015 115.508C135.182 114.085 142.152 113.259 141.181 116.729Z" fill="url(#paint9_linear_2319_14662)"/>
<path id="Vector_22" opacity="0.5" d="M39.6306 102.778C39.8368 103.902 70.2541 147.699 70.9353 148.011C71.2759 148.167 74.5086 142.231 74.8205 141.55C75.6782 139.676 47.7292 103.087 47.1259 102.605C46.3062 101.92 39.4245 101.653 39.6306 102.778Z" fill="url(#paint10_linear_2319_14662)"/>
<path id="Vector_23" opacity="0.5" d="M127.617 143.887C126.631 144.465 72.7896 149.58 72.1935 149.308C72.0232 149.23 75.532 141.566 75.9895 141.467C77.9757 140.728 122.233 137.199 122.907 137.301C124.046 137.514 128.603 143.308 127.617 143.887Z" fill="url(#paint11_linear_2319_14662)"/>
<path id="Vector_24" opacity="0.5" d="M53.5817 100.205C57.5841 84.94 59.3363 84.7123 79.6452 86.6979C99.915 88.7686 136.604 86.9238 136.163 94.8592C135.762 102.709 121.804 130.721 120.467 132.065C119.169 133.325 80.5305 136.955 77.976 135.786C75.3825 134.701 53.0964 101.94 53.5817 100.205Z" fill="url(#paint12_linear_2319_14662)"/>
<path id="Vector_25" opacity="0.3" d="M144.145 82.1398C143.627 81.6966 120.202 48.7233 118.336 48.0749C116.555 47.4655 89.6988 47.6322 77.0011 51.2944C73.6422 52.3315 60.2247 83.8861 62.7115 84.3037C65.1983 84.7213 72.6713 72.8989 100.515 77.0985C127.98 81.2274 135.77 92.1073 137.903 94.4228C138.467 94.9902 145.437 83.1431 144.145 82.1398Z" fill="white"/>
<path id="Vector_26" opacity="0.5" d="M47.7791 101.155L72.6134 46.9149L120.649 42.3342L148.567 81.6907L123.732 135.931L121.663 133.027C121.663 133.027 143.432 85.9317 143.073 84.0163C141.914 77.0996 119.616 51.3375 114.355 50.6798C109.009 49.9831 79.1022 49.1648 74.226 52.3912C72.5876 53.495 51.2446 100.785 51.2446 100.785L47.7791 101.155Z" fill="url(#paint13_linear_2319_14662)"/>
<path id="Vector_27" opacity="0.2" d="M114.356 74.9861C121.819 83.6562 136.085 90.2911 137.752 90.0244C139.42 89.7577 143.124 84.1409 141.463 82.1445C139.888 80.187 127.601 64.0554 122.914 63.0427C118.228 62.03 113.004 73.44 114.356 74.9861Z" fill="white"/>
<path id="Vector_28" d="M57.4867 57.7032C57.5647 57.5329 66.1776 39.8464 67.5287 38.92C68.8799 37.9937 123.424 33.8184 124.858 34.0626C126.291 34.3068 138.266 51.1196 138.266 51.1196L125.187 32.6684L66.4998 38.2429L57.5719 57.7422L57.4867 57.7032Z" fill="url(#paint14_linear_2319_14662)"/>
<path id="Vector_29" d="M132.852 59.5596C132.852 59.5596 147.9 80.4577 147.617 81.976C147.288 83.3702 131.736 118.686 131.736 118.686C131.736 118.686 148.125 83.3415 148.617 81.816C149.149 80.2053 132.852 59.5596 132.852 59.5596Z" fill="#507282"/>
<path id="Vector_30" d="M58.9822 76.7213C58.9822 76.7213 71.7123 47.118 72.5207 46.2521C73.2902 45.4714 120.624 42.4235 120.624 42.4235C120.624 42.4235 74.3335 46.5671 72.9434 47.5786C71.6774 48.544 58.9822 76.7213 58.9822 76.7213Z" fill="#507282"/>
<path id="Vector_31" d="M37.1385 102.151L71.2643 150.221L129.952 144.646L136.618 130.086C136.618 130.086 130.383 142.578 128.706 143.767C127.029 144.956 74.4036 150.113 72.2359 149.224C70.0292 148.419 39.1185 103.676 38.7523 101.551C38.4251 99.3414 52.0703 69.5391 52.0703 69.5391L37.1385 102.151Z" fill="url(#paint15_linear_2319_14662)"/>
<path id="Vector_32" d="M54.1438 87.2773C54.1438 87.2773 48.2426 99.7163 48.5411 101.089C48.7544 102.423 62.0108 121.161 62.0108 121.161C62.0108 121.161 47.0268 102.147 47.1684 101.387C47.31 100.628 54.1438 87.2773 54.1438 87.2773Z" fill="#507282"/>
<path id="Vector_33" opacity="0.5" d="M58.2382 119.741C56.8758 119.117 52.3423 118.895 52.765 120.222C53.0953 121.3 69.7309 145.705 71.9027 147.936C72.5982 148.666 75.0082 143.178 74.72 140.883C74.4748 139.844 62.4957 121.69 58.2382 119.741Z" fill="white"/>
<path id="Vector_34" d="M136.575 50.7555C135.312 50.5893 136.915 56.9879 138.423 58.1934C140.016 59.4378 142.985 59.2522 142.523 58.0109C142.186 56.7233 138.597 51.0633 136.575 50.7555Z" fill="white"/>
<path id="Vector_35" d="M142.731 59.1374C140.833 58.7834 140.592 67.6339 141.245 69.5811C142.023 71.4821 152.767 79.2854 153.486 77.0397C154.205 74.794 145.388 59.633 142.731 59.1374Z" fill="white"/>
<path id="Vector_36" opacity="0.5" d="M101.912 139.95C98.9024 143.824 97.9031 146.457 98.4602 146.815C99.0562 147.088 124.897 144.19 125.642 143.913C126.386 143.636 124.238 138.43 122.543 137.859C120.932 137.328 103.033 138.403 101.912 139.95Z" fill="url(#paint16_linear_2319_14662)"/>
<path id="Vector_37" opacity="0.5" d="M74.5047 49.3244C74.6566 47.6429 73.209 46.9801 72.298 48.52C71.3869 50.0599 57.2985 80.3803 57.8556 80.7384C58.4126 81.0964 60.3916 80.1485 60.7035 79.4673C61.0544 78.701 74.4482 50.1225 74.5047 49.3244Z" fill="url(#paint17_linear_2319_14662)"/>
<path id="Vector_38" opacity="0.5" d="M145.538 82.0484C145.18 82.6055 131.786 111.184 132.127 111.34C132.467 111.496 134.794 110.913 135.106 110.232C135.418 109.551 147.429 82.1932 147.297 82.03C147.205 81.7818 145.818 81.6617 145.538 82.0484Z" fill="url(#paint18_linear_2319_14662)"/>
<path id="Vector_39" opacity="0.5" d="M119.366 45.1472C119.093 45.7432 98.4944 47.5391 98.0687 47.3442C97.6429 47.1493 98.9828 44.6727 99.6496 44.5661C100.316 44.4594 120.521 42.1741 120.45 42.5537C120.549 43.0112 119.56 44.7214 119.366 45.1472Z" fill="url(#paint19_linear_2319_14662)"/>
<g id="Group_8">
<path id="Vector_40" d="M118.559 136.237C117.537 135.77 113.025 136.176 112.852 137.229C112.639 138.368 114.385 140.404 115.13 140.127C115.999 139.803 119.24 136.549 118.559 136.237Z" fill="#335C64"/>
<path id="Vector_41" d="M119.606 137.544C119.109 137.728 117.797 138.57 118.244 139.392C118.738 140.339 121.568 139.781 121.508 139.238C121.362 138.657 120.227 137.313 119.606 137.544Z" fill="#335C64"/>
<path id="Vector_42" opacity="0.5" d="M113.787 136.526C112.39 137.328 115.616 139.732 116.509 138.905C117.403 138.078 119.105 136.385 118.47 136.198C117.92 136.049 114.61 136.079 113.787 136.526Z" fill="url(#paint20_linear_2319_14662)"/>
<path id="Vector_43" d="M112.967 136.974C112.967 136.974 112.754 138.113 113.588 139.216C114.206 140.116 114.965 140.258 115.377 140.034C115.377 140.034 114.305 140.574 113.518 139.595C112.165 138.049 112.967 136.974 112.967 136.974Z" fill="#7E725B"/>
<path id="Vector_44" opacity="0.5" d="M119.913 137.784C118.757 138.284 118.768 139.834 119.233 139.944C119.697 140.054 121.45 139.826 121.389 139.284C121.453 138.695 120.2 137.606 119.913 137.784Z" fill="url(#paint21_linear_2319_14662)"/>
<path id="Vector_45" d="M119.608 137.543C119.608 137.543 118.374 138.214 118.442 138.966C118.424 139.679 118.85 139.874 118.85 139.874C118.85 139.874 117.64 140.041 117.782 139.282C117.948 138.019 119.608 137.543 119.608 137.543Z" fill="#7E725B"/>
</g>
<g id="Group_9">
<path id="Vector_46" d="M114.748 42.6217C112.591 40.8099 109.806 41.492 108.115 42.2624C106.423 43.0329 106.707 43.987 108.186 44.3553C109.712 44.8478 115.699 43.4691 114.748 42.6217Z" fill="#335C64"/>
<path id="Vector_47" opacity="0.5" d="M114.76 42.6274C113.33 41.2516 110.694 41.3839 109.74 41.6681C108.786 41.9522 109.369 44.279 110.376 44.3283C111.383 44.3775 115.409 43.2337 114.76 42.6274Z" fill="url(#paint22_linear_2319_14662)"/>
<path id="Vector_48" d="M109.076 41.9816C109.076 41.9816 105.408 42.5684 105.359 43.5758C105.271 44.6684 109.371 44.4859 109.371 44.4859C109.371 44.4859 107.31 44.2632 107.321 43.3409C107.246 42.3796 109.076 41.9816 109.076 41.9816Z" fill="#507282"/>
</g>
<path id="Vector_49" d="M49.2074 102.325C47.6891 102.041 50.4436 106.599 51.3412 107.113C52.1999 107.712 52.3549 104.899 52.124 104.278C51.8153 103.828 50.0518 102.505 49.2074 102.325Z" fill="#507282"/>
</g>
<g id="Group_10">
<path id="Vector_50" d="M84.3882 121.524L49.2365 71.6454C45.4139 75.0452 43.1948 78.7671 43.1948 78.7671L43.9282 85.4889L78.5013 134.381L138.104 128.608L143.331 124.615C143.331 124.615 145.163 120.613 145.37 115.661L84.3882 121.524Z" fill="url(#paint23_linear_2319_14662)"/>
<path id="Vector_51" d="M43.9287 85.4884L43.1953 78.7666L79.9443 131.23L143.331 124.615L138.104 128.607L78.4628 134.466L43.9287 85.4884Z" fill="url(#paint24_linear_2319_14662)"/>
<path id="Vector_52" opacity="0.5" d="M43.2032 78.7658L43.9366 85.4876L44.4228 86.2252L43.7211 87.7579C43.7211 87.7579 45.8221 90.3678 49.7758 95.6801C49.9072 95.8432 51.5372 100.607 51.5372 100.607C51.5372 100.607 76.031 136.644 77.3083 137.229C78.9261 137.97 122.151 132.423 122.151 132.423C122.151 132.423 125.804 131.417 126.138 131.364L136.47 130.842L137.484 128.628L138.236 128.56L143.463 124.568L80.1153 131.098L43.2032 78.7658Z" fill="url(#paint25_linear_2319_14662)"/>
<path id="Vector_53" opacity="0.5" d="M84.3844 121.523L79.9789 131.145L143.327 124.614C143.327 124.614 145.379 119.683 145.367 115.66L84.3844 121.523Z" fill="url(#paint26_linear_2319_14662)"/>
<path id="Vector_54" opacity="0.5" d="M50.7389 74.9052C49.8023 74.4764 46.8649 82.9164 48.8172 86.0763C51.8804 91.0838 71.3587 118.954 73.1079 119.858C74.3 120.404 77.3727 113.468 77.2661 112.801C77.0527 111.467 52.1013 75.529 50.7389 74.9052Z" fill="white"/>
<path id="Vector_55" opacity="0.5" d="M102.988 120.047C102.119 120.37 98.7342 127.988 99.8729 128.2C101.012 128.412 119.748 127.309 129.193 125.351C138.639 123.392 142.819 116.963 141.123 116.393C141.162 116.307 104.765 119.316 102.988 120.047Z" fill="white"/>
<path id="Vector_56" d="M62.0547 105.735C62.0547 105.735 78.6441 130.017 80.1768 130.719C81.6244 131.381 105.039 128.609 105.039 128.609C105.039 128.609 80.2199 131.974 79.709 131.74C79.3684 131.585 62.0547 105.735 62.0547 105.735Z" fill="#507282"/>
</g>
</g>
</g>
</g>
<g id="Group_11" style="mix-blend-mode:luminosity">
<path id="Vector_57" opacity="0.5" d="M97.393 93.122L83.7271 93.9041L91.529 82.6285L86.5732 69.9112L99.6804 73.7125L110.214 65.1175L110.682 78.7495L122.124 86.1877L109.259 90.7459L105.731 103.978L97.393 93.122Z" fill="url(#paint27_linear_2319_14662)"/>
<path id="Vector_58" d="M120.643 86.0592L115.059 82.4025L113.596 81.513L109.978 79.0865L109.59 66.481L99.7943 74.4242L87.6379 70.9482L92.2487 82.7376L85.0449 93.1873L97.6844 92.4851L105.412 102.512L108.706 90.2723L120.643 86.0592Z" fill="url(#paint28_linear_2319_14662)"/>
<g id="Group_12">
<path id="Vector_59" opacity="0.5" d="M87.5469 70.9072L102.37 82.9727L92.1576 82.6966L87.5469 70.9072Z" fill="url(#paint29_linear_2319_14662)"/>
<path id="Vector_60" opacity="0.5" d="M120.552 86.0182L102.369 82.9727L108.614 90.2313L120.552 86.0182Z" fill="url(#paint30_linear_2319_14662)"/>
<path id="Vector_61" opacity="0.5" d="M97.6849 92.4858L102.37 82.9728L85.0454 93.1879L97.6849 92.4858Z" fill="url(#paint31_linear_2319_14662)"/>
<path id="Vector_62" opacity="0.5" d="M105.409 102.512L102.367 82.9725L97.6812 92.4856L105.409 102.512Z" fill="url(#paint32_linear_2319_14662)"/>
<path id="Vector_63" opacity="0.5" d="M109.586 66.4814L102.366 82.9726L109.974 79.087L109.586 66.4814Z" fill="url(#paint33_linear_2319_14662)"/>
<path id="Vector_64" opacity="0.5" d="M120.55 86.0182L102.367 82.9727L109.975 79.0871L120.55 86.0182Z" fill="url(#paint34_linear_2319_14662)"/>
<path id="Vector_65" opacity="0.5" d="M120.55 86.0182L102.367 82.9727L109.975 79.0871L120.55 86.0182Z" fill="url(#paint35_linear_2319_14662)"/>
<path id="Vector_66" opacity="0.5" d="M99.7923 74.4248L102.368 82.9727L87.545 70.9072L99.7923 74.4248Z" fill="url(#paint36_linear_2319_14662)"/>
<path id="Vector_67" opacity="0.8" d="M108.314 82.7238C107.162 83.0765 107.682 83.8641 107.682 83.8641L112.587 84.6803C112.496 84.6387 110.972 81.9613 108.314 82.7238Z" fill="white"/>
</g>
<path id="Vector_68" opacity="0.5" d="M85.0439 93.1877C85.0439 93.1877 94.4376 93.0892 97.3504 93.213L105.411 102.512L97.6834 92.4856L85.0439 93.1877Z" fill="url(#paint37_linear_2319_14662)"/>
<path id="Vector_69" opacity="0.5" d="M87.5469 70.9072L102.37 82.9727L89.4737 86.637L87.5469 70.9072Z" fill="url(#paint38_linear_2319_14662)"/>
<path id="Vector_70" opacity="0.5" d="M120.552 86.0182L102.369 82.9727L107.158 96.0537L120.552 86.0182Z" fill="url(#paint39_linear_2319_14662)"/>
<path id="Vector_71" opacity="0.5" d="M85.0454 93.1879L102.37 82.9728L105.412 102.513L95.9782 96.2137L85.0454 93.1879Z" fill="url(#paint40_linear_2319_14662)"/>
<path id="Vector_72" opacity="0.4" d="M101.952 73.3215C99.487 75.8224 102.712 79.8285 103.674 79.1691C104.636 78.5096 106.645 73.1604 106.341 72.1417C105.856 71.0396 102.898 72.215 101.952 73.3215Z" fill="#7E725B"/>
<path id="Vector_73" opacity="0.4" d="M91.4601 87.1055C93.5174 88.3773 95.9143 86.5052 97.1598 84.9858C99.136 82.5911 87.7092 84.7283 91.4601 87.1055Z" fill="#7E725B"/>
</g>
</g>
<defs>
<linearGradient id="paint0_linear_2319_14662" x1="29.177" y1="91.2815" x2="40.7812" y2="65.9369" gradientUnits="userSpaceOnUse">
<stop stop-color="#507282"/>
<stop offset="0.4544" stop-color="#467082"/>
<stop offset="0.8056" stop-color="#467082"/>
<stop offset="0.8528" stop-color="#4C707E"/>
<stop offset="0.9167" stop-color="#5D7172"/>
<stop offset="0.9898" stop-color="#79725E"/>
<stop offset="1" stop-color="#7E725B"/>
</linearGradient>
<linearGradient id="paint1_linear_2319_14662" x1="33.3644" y1="90.1406" x2="38.7052" y2="78.2027" gradientUnits="userSpaceOnUse">
<stop stop-color="#507282"/>
<stop offset="1" stop-color="white"/>
</linearGradient>
<linearGradient id="paint2_linear_2319_14662" x1="38.5543" y1="95.6517" x2="50.2738" y2="70.0554" gradientUnits="userSpaceOnUse">
<stop stop-color="white"/>
<stop offset="0.4444" stop-color="#467082"/>
<stop offset="1" stop-color="#335C64"/>
</linearGradient>
<linearGradient id="paint3_linear_2319_14662" x1="143.082" y1="143.43" x2="154.686" y2="118.086" gradientUnits="userSpaceOnUse">
<stop stop-color="#507282"/>
<stop offset="0.4544" stop-color="#467082"/>
<stop offset="0.8056" stop-color="#467082"/>
<stop offset="0.8528" stop-color="#4C707E"/>
<stop offset="0.9167" stop-color="#5D7172"/>
<stop offset="0.9898" stop-color="#79725E"/>
<stop offset="1" stop-color="#7E725B"/>
</linearGradient>
<linearGradient id="paint4_linear_2319_14662" x1="141.207" y1="139.517" x2="146.755" y2="127.673" gradientUnits="userSpaceOnUse">
<stop stop-color="#507282"/>
<stop offset="1" stop-color="white"/>
</linearGradient>
<linearGradient id="paint5_linear_2319_14662" x1="133.643" y1="139.182" x2="145.363" y2="113.586" gradientUnits="userSpaceOnUse">
<stop stop-color="white"/>
<stop offset="0.4444" stop-color="#467082"/>
<stop offset="1" stop-color="#335C64"/>
</linearGradient>
<linearGradient id="paint6_linear_2319_14662" x1="70.3754" y1="152.25" x2="116.512" y2="51.4844" gradientUnits="userSpaceOnUse">
<stop stop-color="#507282"/>
<stop offset="0.4544" stop-color="#467082"/>
<stop offset="0.8056" stop-color="#467082"/>
<stop offset="0.8528" stop-color="#4C707E"/>
<stop offset="0.9167" stop-color="#5D7172"/>
<stop offset="0.9898" stop-color="#79725E"/>
<stop offset="1" stop-color="#7E725B"/>
</linearGradient>
<linearGradient id="paint7_linear_2319_14662" x1="117.878" y1="48.4782" x2="75.8475" y2="140.277" gradientUnits="userSpaceOnUse">
<stop stop-color="#7E725B"/>
<stop offset="0.0102027" stop-color="#79725E"/>
<stop offset="0.0832778" stop-color="#5D7172"/>
<stop offset="0.1472" stop-color="#4C707E"/>
<stop offset="0.1944" stop-color="#467082"/>
<stop offset="0.5456" stop-color="#467082"/>
<stop offset="1" stop-color="#507282"/>
</linearGradient>
<linearGradient id="paint8_linear_2319_14662" x1="36.302" y1="115.017" x2="61.7379" y2="59.463" gradientUnits="userSpaceOnUse">
<stop stop-color="#507282"/>
<stop offset="1" stop-color="white"/>
</linearGradient>
<linearGradient id="paint9_linear_2319_14662" x1="120.625" y1="153.627" x2="146.061" y2="98.0728" gradientUnits="userSpaceOnUse">
<stop stop-color="#507282"/>
<stop offset="1" stop-color="white"/>
</linearGradient>
<linearGradient id="paint10_linear_2319_14662" x1="54.2612" y1="98.1615" x2="60.0414" y2="144.868" gradientUnits="userSpaceOnUse">
<stop stop-color="#507282"/>
<stop offset="1" stop-color="white"/>
</linearGradient>
<linearGradient id="paint11_linear_2319_14662" x1="102.193" y1="125.661" x2="96.4401" y2="180.722" gradientUnits="userSpaceOnUse">
<stop stop-color="#507282"/>
<stop offset="1" stop-color="white"/>
</linearGradient>
<linearGradient id="paint12_linear_2319_14662" x1="74.2247" y1="143.585" x2="109.39" y2="66.7815" gradientUnits="userSpaceOnUse">
<stop stop-color="#507282"/>
<stop offset="1" stop-color="white"/>
</linearGradient>
<linearGradient id="paint13_linear_2319_14662" x1="85.7687" y1="118.591" x2="120.649" y2="42.4083" gradientUnits="userSpaceOnUse">
<stop stop-color="white"/>
<stop offset="0.4444" stop-color="#467082"/>
<stop offset="1" stop-color="#335C64"/>
</linearGradient>
<linearGradient id="paint14_linear_2319_14662" x1="68.0964" y1="34.6063" x2="132.325" y2="64.0136" gradientUnits="userSpaceOnUse">
<stop stop-color="#507282"/>
<stop offset="1" stop-color="#507282"/>
</linearGradient>
<linearGradient id="paint15_linear_2319_14662" x1="38.4789" y1="99.2995" x2="131.292" y2="141.795" gradientUnits="userSpaceOnUse">
<stop stop-color="#507282"/>
<stop offset="1" stop-color="#507282"/>
</linearGradient>
<linearGradient id="paint16_linear_2319_14662" x1="108.938" y1="151.553" x2="116.509" y2="135.016" gradientUnits="userSpaceOnUse">
<stop stop-color="white"/>
<stop offset="0.4444" stop-color="#467082"/>
<stop offset="1" stop-color="#335C64"/>
</linearGradient>
<linearGradient id="paint17_linear_2319_14662" x1="58.6318" y1="81.0822" x2="73.8931" y2="47.7502" gradientUnits="userSpaceOnUse">
<stop stop-color="white"/>
<stop offset="0.4444" stop-color="#467082"/>
<stop offset="1" stop-color="#335C64"/>
</linearGradient>
<linearGradient id="paint18_linear_2319_14662" x1="133.046" y1="111.763" x2="146.801" y2="81.7211" gradientUnits="userSpaceOnUse">
<stop stop-color="white"/>
<stop offset="0.4444" stop-color="#467082"/>
<stop offset="1" stop-color="#335C64"/>
</linearGradient>
<linearGradient id="paint19_linear_2319_14662" x1="106.406" y1="51.1977" x2="112.093" y2="38.7764" gradientUnits="userSpaceOnUse">
<stop stop-color="white"/>
<stop offset="0.4444" stop-color="#467082"/>
<stop offset="1" stop-color="#335C64"/>
</linearGradient>
<linearGradient id="paint20_linear_2319_14662" x1="115.11" y1="138.803" x2="116.682" y2="135.371" gradientUnits="userSpaceOnUse">
<stop stop-color="white"/>
<stop offset="0.4444" stop-color="#467082"/>
<stop offset="1" stop-color="#335C64"/>
</linearGradient>
<linearGradient id="paint21_linear_2319_14662" x1="119.735" y1="140.144" x2="120.696" y2="138.047" gradientUnits="userSpaceOnUse">
<stop stop-color="white"/>
<stop offset="0.4444" stop-color="#467082"/>
<stop offset="1" stop-color="#335C64"/>
</linearGradient>
<linearGradient id="paint22_linear_2319_14662" x1="111.06" y1="44.7438" x2="112.56" y2="41.468" gradientUnits="userSpaceOnUse">
<stop stop-color="white"/>
<stop offset="0.4444" stop-color="#467082"/>
<stop offset="1" stop-color="#335C64"/>
</linearGradient>
<linearGradient id="paint23_linear_2319_14662" x1="112.195" y1="60.3861" x2="78.757" y2="133.417" gradientUnits="userSpaceOnUse">
<stop stop-color="#507282"/>
<stop offset="0.4544" stop-color="#467082"/>
<stop offset="0.8056" stop-color="#467082"/>
<stop offset="0.8528" stop-color="#4C707E"/>
<stop offset="0.9167" stop-color="#5D7172"/>
<stop offset="0.9898" stop-color="#79725E"/>
<stop offset="1" stop-color="#7E725B"/>
</linearGradient>
<linearGradient id="paint24_linear_2319_14662" x1="35.7496" y1="95.1293" x2="135.843" y2="140.958" gradientUnits="userSpaceOnUse">
<stop stop-color="#507282"/>
<stop offset="0.4544" stop-color="#467082"/>
<stop offset="0.8056" stop-color="#467082"/>
<stop offset="0.8528" stop-color="#4C707E"/>
<stop offset="0.9167" stop-color="#5D7172"/>
<stop offset="0.9898" stop-color="#79725E"/>
<stop offset="1" stop-color="#7E725B"/>
</linearGradient>
<linearGradient id="paint25_linear_2319_14662" x1="93.2717" y1="101.733" x2="77.022" y2="137.224" gradientUnits="userSpaceOnUse">
<stop stop-color="white"/>
<stop offset="0.4444" stop-color="#467082"/>
<stop offset="1" stop-color="#335C64"/>
</linearGradient>
<linearGradient id="paint26_linear_2319_14662" x1="105.804" y1="144.123" x2="119.911" y2="104.796" gradientUnits="userSpaceOnUse">
<stop stop-color="#507282"/>
<stop offset="1" stop-color="white"/>
</linearGradient>
<linearGradient id="paint27_linear_2319_14662" x1="94.7566" y1="98.945" x2="110.238" y2="65.1298" gradientUnits="userSpaceOnUse">
<stop stop-color="white"/>
<stop offset="0.4444" stop-color="#467082"/>
<stop offset="1" stop-color="#335C64"/>
</linearGradient>
<linearGradient id="paint28_linear_2319_14662" x1="94.9864" y1="98.4426" x2="112.057" y2="61.158" gradientUnits="userSpaceOnUse">
<stop stop-color="#507282"/>
<stop offset="0.4544" stop-color="#467082"/>
<stop offset="0.8056" stop-color="#467082"/>
<stop offset="0.8528" stop-color="#4C707E"/>
<stop offset="0.9167" stop-color="#5D7172"/>
<stop offset="0.9898" stop-color="#79725E"/>
<stop offset="1" stop-color="#7E725B"/>
</linearGradient>
<linearGradient id="paint29_linear_2319_14662" x1="85.7413" y1="74.9046" x2="102.53" y2="82.5912" gradientUnits="userSpaceOnUse">
<stop stop-color="#507282"/>
<stop offset="1" stop-color="white"/>
</linearGradient>
<linearGradient id="paint30_linear_2319_14662" x1="102.53" y1="82.5912" x2="118.729" y2="90.0076" gradientUnits="userSpaceOnUse">
<stop stop-color="#507282"/>
<stop offset="1" stop-color="white"/>
</linearGradient>
<linearGradient id="paint31_linear_2319_14662" x1="88.4389" y1="85.6591" x2="98.9278" y2="90.4613" gradientUnits="userSpaceOnUse">
<stop stop-color="#507282"/>
<stop offset="1" stop-color="white"/>
</linearGradient>
<linearGradient id="paint32_linear_2319_14662" x1="98.6289" y1="90.326" x2="108.823" y2="94.9931" gradientUnits="userSpaceOnUse">
<stop stop-color="#507282"/>
<stop offset="1" stop-color="white"/>
</linearGradient>
<linearGradient id="paint33_linear_2319_14662" x1="109.939" y1="69.6054" x2="102.643" y2="91.5719" gradientUnits="userSpaceOnUse">
<stop stop-color="#7E725B"/>
<stop offset="1"/>
</linearGradient>
<linearGradient id="paint34_linear_2319_14662" x1="103.742" y1="79.9384" x2="119.941" y2="87.3548" gradientUnits="userSpaceOnUse">
<stop stop-color="#7E725B"/>
<stop offset="1"/>
</linearGradient>
<linearGradient id="paint35_linear_2319_14662" x1="115.76" y1="71.5383" x2="108.463" y2="93.5048" gradientUnits="userSpaceOnUse">
<stop stop-color="#7E725B"/>
<stop offset="1"/>
</linearGradient>
<linearGradient id="paint36_linear_2319_14662" x1="98.6461" y1="65.8539" x2="91.3497" y2="87.8203" gradientUnits="userSpaceOnUse">
<stop stop-color="#7E725B"/>
<stop offset="1"/>
</linearGradient>
<linearGradient id="paint37_linear_2319_14662" x1="95.2556" y1="97.853" x2="97.7093" y2="92.4938" gradientUnits="userSpaceOnUse">
<stop stop-color="white"/>
<stop offset="0.4444" stop-color="#467082"/>
<stop offset="1" stop-color="#335C64"/>
</linearGradient>
<linearGradient id="paint38_linear_2319_14662" x1="90.3353" y1="87.049" x2="95.976" y2="74.7285" gradientUnits="userSpaceOnUse">
<stop stop-color="white"/>
<stop offset="0.4444" stop-color="#467082"/>
<stop offset="1" stop-color="#335C64"/>
</linearGradient>
<linearGradient id="paint39_linear_2319_14662" x1="106.345" y1="95.6567" x2="112.469" y2="82.28" gradientUnits="userSpaceOnUse">
<stop stop-color="white"/>
<stop offset="0.4444" stop-color="#467082"/>
<stop offset="1" stop-color="#335C64"/>
</linearGradient>
<linearGradient id="paint40_linear_2319_14662" x1="95.2571" y1="97.8532" x2="102.125" y2="82.8527" gradientUnits="userSpaceOnUse">
<stop stop-color="white"/>
<stop offset="0.4444" stop-color="#467082"/>
<stop offset="1" stop-color="#335C64"/>
</linearGradient>
</defs>
</svg>
