<svg width="12" height="12" viewBox="0 0 10 10" fill="none" xmlns="http://www.w3.org/2000/svg">
<path d="M2.12738 7.87262C1.76785 7.51309 2.00631 6.75827 1.82331 6.31598C1.63361 5.85749 0.9375 5.48847 0.9375 4.99999C0.9375 4.5115 1.63361 4.1425 1.82331 3.68402C2.00631 3.24173 1.76785 2.48691 2.12738 2.12738C2.48691 1.76785 3.24173 2.00631 3.68402 1.82331C4.14251 1.63361 4.51153 0.9375 5.00001 0.9375C5.4885 0.9375 5.8575 1.63361 6.31598 1.82331C6.75827 2.00631 7.51309 1.76785 7.87262 2.12738C8.23215 2.48691 7.99369 3.24173 8.17669 3.68402C8.36639 4.14251 9.0625 4.51153 9.0625 5.00001C9.0625 5.4885 8.36639 5.8575 8.17669 6.31598C7.99369 6.75827 8.23215 7.51309 7.87262 7.87262C7.51309 8.23215 6.75827 7.99369 6.31598 8.17669C5.85749 8.36639 5.48847 9.0625 4.99999 9.0625C4.5115 9.0625 4.1425 8.36639 3.68402 8.17669C3.24173 7.99369 2.48691 8.23215 2.12738 7.87262Z" fill="url(#paint0_linear_2554_12284)"/>
<path d="M6.71875 4.0625L4.42707 6.25L3.28125 5.15625" stroke="white" stroke-linecap="round" stroke-linejoin="round"/>
<defs>
<linearGradient id="paint0_linear_2554_12284" x1="-1.39844" y1="-2.61719" x2="14.4828" y2="0.414687" gradientUnits="userSpaceOnUse">
<stop offset="0.0989439" stop-color="#FFCC4D"/>
<stop offset="0.829491" stop-color="#FF492C"/>
</linearGradient>
</defs>
</svg>
