<svg width="77" height="21" viewBox="0 0 77 21" fill="none" xmlns="http://www.w3.org/2000/svg">
<g id="Group 1261157060">
<g id="Group">
<path id="Vector" fill-rule="evenodd" clip-rule="evenodd" d="M1.76716 6.06134H29.9155L31.8088 10.4994L29.9155 15.0456H1.76716L0 10.4994L1.76716 6.06134Z" fill="url(#paint0_linear_525_818)"/>
<path id="Vector_2" fill-rule="evenodd" clip-rule="evenodd" d="M2.13312 6.49414L0.492188 10.4992L2.13312 14.6125H29.6503L31.2912 10.4992L29.6503 6.49414H2.13312Z" fill="#9B9B9B"/>
<path id="Vector_3" fill-rule="evenodd" clip-rule="evenodd" d="M2.53033 6.92773L1.01562 10.4998L2.53033 14.1801H29.2901L30.6786 10.4998L29.2901 6.92773H2.53033Z" fill="url(#paint1_radial_525_818)"/>
<path id="Vector_4" fill-rule="evenodd" clip-rule="evenodd" d="M2.1443 6.49451H29.6615L29.9139 6.06152H1.76562L2.1443 6.49451Z" fill="url(#paint2_linear_525_818)"/>
<path id="Vector_5" fill-rule="evenodd" clip-rule="evenodd" d="M29.6578 6.49414H2.14062L2.5193 6.92711H29.2791L29.6578 6.49414Z" fill="url(#paint3_linear_525_818)"/>
<path id="Vector_6" fill-rule="evenodd" clip-rule="evenodd" d="M29.2791 14.1797H2.5193L2.14062 14.6127H29.6578L29.2791 14.1797Z" fill="url(#paint4_linear_525_818)"/>
<path id="Vector_7" fill-rule="evenodd" clip-rule="evenodd" d="M29.6615 14.6133H2.1443L1.76562 15.0463H29.9139L29.6615 14.6133Z" fill="url(#paint5_linear_525_818)"/>
<path id="Vector_8" fill-rule="evenodd" clip-rule="evenodd" d="M1.76716 13.5309L0.504902 10.5H0L1.13603 13.5309L1.76716 15.0463L2.14583 14.6133L1.76716 13.5309Z" fill="url(#paint6_linear_525_818)"/>
<path id="Vector_9" fill-rule="evenodd" clip-rule="evenodd" d="M0.492188 10.5L1.75444 13.5309L2.13312 14.6133L2.5118 14.1803L2.25934 13.5309L0.997089 10.5H0.492188Z" fill="url(#paint7_linear_525_818)"/>
<path id="Vector_10" fill-rule="evenodd" clip-rule="evenodd" d="M0.504902 10.4994L1.76716 7.57677L2.14583 6.49433L1.76716 6.06134L1.13603 7.57677L0 10.4994H0.504902Z" fill="url(#paint8_linear_525_818)"/>
<path id="Vector_11" fill-rule="evenodd" clip-rule="evenodd" d="M2.13312 6.49414L1.75444 7.57659L0.492188 10.4992H0.997089L2.25934 7.57659L2.5118 6.92711L2.13312 6.49414Z" fill="url(#paint9_linear_525_818)"/>
<path id="Vector_12" fill-rule="evenodd" clip-rule="evenodd" d="M30.0506 13.5309L31.3128 10.5H31.8177L30.5555 13.5309L29.9243 15.0463L29.6719 14.6133L30.0506 13.5309Z" fill="url(#paint10_linear_525_818)"/>
<path id="Vector_13" fill-rule="evenodd" clip-rule="evenodd" d="M31.3009 10.5L30.0386 13.5309L29.6599 14.6133L29.2812 14.1803L29.5337 13.5309L30.6697 10.5H31.3009Z" fill="#7B7B7B"/>
<path id="Vector_14" fill-rule="evenodd" clip-rule="evenodd" d="M31.3128 10.4996L30.0506 7.57696L29.6719 6.49451L29.9243 6.06152L30.5555 7.57696L31.8177 10.4996H31.3128Z" fill="#B4B4B4"/>
<path id="Vector_15" fill-rule="evenodd" clip-rule="evenodd" d="M29.6599 6.49414L30.0386 7.57659L31.3009 10.4992H30.6697L29.5337 7.57659L29.2812 6.92711L29.6599 6.49414Z" fill="url(#paint11_linear_525_818)"/>
<path id="Vector_16" fill-rule="evenodd" clip-rule="evenodd" d="M15.9182 14.5049C20.3361 14.5049 24.6278 14.5049 28.4145 14.6131H3.42188C7.20864 14.5049 11.3741 14.5049 15.9182 14.5049Z" fill="white"/>
<path id="Vector_17" fill-rule="evenodd" clip-rule="evenodd" d="M46.9559 6.06152H75.1042L76.9976 10.4996L75.1042 15.0458H46.9559L45.0625 10.4996L46.9559 6.06152Z" fill="url(#paint12_linear_525_818)"/>
<path id="Vector_18" fill-rule="evenodd" clip-rule="evenodd" d="M47.3362 6.49414L45.6953 10.4992L47.3362 14.6125H74.7272L76.3681 10.4992L74.7272 6.49414H47.3362Z" fill="#9B9B9B"/>
<path id="Vector_19" fill-rule="evenodd" clip-rule="evenodd" d="M47.7256 6.92773L46.2109 10.4998L47.7256 14.1801H74.3592L75.8739 10.4998L74.3592 6.92773H47.7256Z" fill="url(#paint13_radial_525_818)"/>
<path id="Vector_20" fill-rule="evenodd" clip-rule="evenodd" d="M47.3396 6.49451H74.7306L75.1092 6.06152H46.9609L47.3396 6.49451Z" fill="url(#paint14_linear_525_818)"/>
<path id="Vector_21" fill-rule="evenodd" clip-rule="evenodd" d="M74.7191 6.49414H47.3281L47.7068 6.92711H74.3404L74.7191 6.49414Z" fill="url(#paint15_linear_525_818)"/>
<path id="Vector_22" fill-rule="evenodd" clip-rule="evenodd" d="M74.3404 14.1797H47.7068L47.3281 14.6127H74.7191L74.3404 14.1797Z" fill="url(#paint16_linear_525_818)"/>
<path id="Vector_23" fill-rule="evenodd" clip-rule="evenodd" d="M74.7306 14.6133H47.3396L46.9609 15.0463H75.1092L74.7306 14.6133Z" fill="url(#paint17_linear_525_818)"/>
<path id="Vector_24" fill-rule="evenodd" clip-rule="evenodd" d="M46.8297 13.5309L45.6936 10.5H45.0625L46.3248 13.5309L46.9559 15.0463L47.3346 14.6133L46.8297 13.5309Z" fill="url(#paint18_linear_525_818)"/>
<path id="Vector_25" fill-rule="evenodd" clip-rule="evenodd" d="M45.6953 10.5L46.8313 13.5309L47.3362 14.6133L47.7149 14.1803L47.4625 13.5309L46.2002 10.5H45.6953Z" fill="#7B7B7B"/>
<path id="Vector_26" fill-rule="evenodd" clip-rule="evenodd" d="M45.6936 10.4996L46.8297 7.57696L47.3346 6.49451L46.9559 6.06152L46.3248 7.57696L45.0625 10.4996H45.6936Z" fill="#B4B4B4"/>
<path id="Vector_27" fill-rule="evenodd" clip-rule="evenodd" d="M47.3362 6.49414L46.8313 7.57659L45.6953 10.4992H46.2002L47.4625 7.57659L47.7149 6.92711L47.3362 6.49414Z" fill="url(#paint19_linear_525_818)"/>
<path id="Vector_28" fill-rule="evenodd" clip-rule="evenodd" d="M75.2315 13.5309L76.3675 10.5H76.9986L75.7364 13.5309L75.1052 15.0463L74.7266 14.6133L75.2315 13.5309Z" fill="url(#paint20_linear_525_818)"/>
<path id="Vector_29" fill-rule="evenodd" clip-rule="evenodd" d="M76.3555 10.5L75.2195 13.5309L74.7146 14.6133L74.3359 14.1803L74.5884 13.5309L75.8506 10.5H76.3555Z" fill="url(#paint21_linear_525_818)"/>
<path id="Vector_30" fill-rule="evenodd" clip-rule="evenodd" d="M76.3675 10.4996L75.2315 7.57696L74.7266 6.49451L75.1052 6.06152L75.7364 7.57696L76.9986 10.4996H76.3675Z" fill="url(#paint22_linear_525_818)"/>
<path id="Vector_31" fill-rule="evenodd" clip-rule="evenodd" d="M74.7146 6.49414L75.2195 7.57659L76.3555 10.4992H75.8506L74.5884 7.57659L74.3359 6.92711L74.7146 6.49414Z" fill="url(#paint23_linear_525_818)"/>
<path id="Vector_32" fill-rule="evenodd" clip-rule="evenodd" d="M60.9639 14.5049C65.3817 14.5049 69.6734 14.5049 73.4602 14.6131H48.5938C52.3805 14.5049 56.546 14.5049 60.9639 14.5049Z" fill="white"/>
<path id="Vector_33" fill-rule="evenodd" clip-rule="evenodd" d="M5.78677 1L2 10.4173L5.78677 19.9428H69.2782L73.1912 10.4173L69.2782 1H5.78677Z" fill="#5F214E"/>
<path id="Vector_34" fill-rule="evenodd" clip-rule="evenodd" d="M6.69608 1.08245H70.1875L71.0711 0H5.8125L6.69608 1.08245Z" fill="url(#paint24_linear_525_818)"/>
<path id="Vector_35" fill-rule="evenodd" clip-rule="evenodd" d="M70.1789 1.08301H6.6875L7.57108 2.0572H69.2954L70.1789 1.08301Z" fill="url(#paint25_linear_525_818)"/>
<path id="Vector_36" fill-rule="evenodd" clip-rule="evenodd" d="M69.2954 18.9434H7.57108L6.6875 20.0258H70.1789L69.2954 18.9434Z" fill="url(#paint26_linear_525_818)"/>
<path id="Vector_37" fill-rule="evenodd" clip-rule="evenodd" d="M70.1875 20.0254H6.69608L5.8125 20.9996H71.0711L70.1875 20.0254Z" fill="url(#paint27_linear_525_818)"/>
<path id="Vector_38" fill-rule="evenodd" clip-rule="evenodd" d="M5.66422 17.5359L2.88726 10.5H1.625L4.40196 17.5359L5.79044 20.9997L6.67402 20.0255L5.66422 17.5359Z" fill="url(#paint28_linear_525_818)"/>
<path id="Vector_39" fill-rule="evenodd" clip-rule="evenodd" d="M2.89062 10.5L5.66759 17.5359L6.67739 20.0255L7.56097 18.9431L6.92984 17.5359L4.15288 10.5H2.89062Z" fill="url(#paint29_linear_525_818)"/>
<path id="Vector_40" fill-rule="evenodd" clip-rule="evenodd" d="M2.88726 10.4997L5.66422 3.57206L6.67402 1.08245L5.79044 0L4.40196 3.57206L1.625 10.4997H2.88726Z" fill="url(#paint30_linear_525_818)"/>
<path id="Vector_41" fill-rule="evenodd" clip-rule="evenodd" d="M6.67739 1.08301L5.66759 3.57262L2.89062 10.5003H4.15288L6.92984 3.57262L7.56097 2.0572L6.67739 1.08301Z" fill="url(#paint31_linear_525_818)"/>
<path id="Vector_42" fill-rule="evenodd" clip-rule="evenodd" d="M71.1973 17.5359L74.1005 10.5H75.3627L72.4596 17.5359L71.0711 20.9997L70.1875 20.0255L71.1973 17.5359Z" fill="url(#paint32_linear_525_818)"/>
<path id="Vector_43" fill-rule="evenodd" clip-rule="evenodd" d="M74.0934 10.5L71.1903 17.5359L70.1805 20.0255L69.2969 18.9431L69.928 17.5359L72.8312 10.5H74.0934Z" fill="url(#paint33_linear_525_818)"/>
<path id="Vector_44" fill-rule="evenodd" clip-rule="evenodd" d="M74.1005 10.4997L71.1973 3.57206L70.1875 1.08245L71.0711 0L72.4596 3.57206L75.3627 10.4997H74.1005Z" fill="url(#paint34_linear_525_818)"/>
<path id="Vector_45" fill-rule="evenodd" clip-rule="evenodd" d="M70.1805 1.08301L71.1903 3.57262L74.0934 10.5003H72.8312L69.928 3.57262L69.2969 2.0572L70.1805 1.08301Z" fill="url(#paint35_linear_525_818)"/>
<path id="Vector_46" fill-rule="evenodd" clip-rule="evenodd" d="M38.4916 19.7012C48.8421 19.7012 58.6877 19.8094 67.271 20.0259H9.58594C18.2955 19.8094 28.1411 19.7012 38.4916 19.7012Z" fill="#55D3FF"/>
</g>
</g>
<defs>
<linearGradient id="paint0_linear_525_818" x1="15.8788" y1="15.0818" x2="15.8788" y2="6.01047" gradientUnits="userSpaceOnUse">
<stop stop-color="#6287C9"/>
<stop offset="1" stop-color="#3B597D"/>
</linearGradient>
<radialGradient id="paint1_radial_525_818" cx="0" cy="0" r="1" gradientUnits="userSpaceOnUse" gradientTransform="translate(1.60573 10.5466) scale(5.51719 4.73126)">
<stop stop-color="#BA559E"/>
<stop offset="1" stop-color="#5F214E"/>
</radialGradient>
<linearGradient id="paint2_linear_525_818" x1="15.8773" y1="6.45489" x2="15.8773" y2="6.01065" gradientUnits="userSpaceOnUse">
<stop stop-color="#87B5F5"/>
<stop offset="1" stop-color="#4E76A6"/>
</linearGradient>
<linearGradient id="paint3_linear_525_818" x1="15.8736" y1="6.89875" x2="15.8736" y2="6.45452" gradientUnits="userSpaceOnUse">
<stop stop-color="#204270"/>
<stop offset="1" stop-color="#335D94"/>
</linearGradient>
<linearGradient id="paint4_linear_525_818" x1="15.8736" y1="14.6375" x2="15.8736" y2="14.1932" gradientUnits="userSpaceOnUse">
<stop stop-color="#87B5F5"/>
<stop offset="1" stop-color="#4E76A6"/>
</linearGradient>
<linearGradient id="paint5_linear_525_818" x1="15.8773" y1="15.0824" x2="15.8773" y2="14.6381" gradientUnits="userSpaceOnUse">
<stop stop-color="#204270"/>
<stop offset="1" stop-color="#335D94"/>
</linearGradient>
<linearGradient id="paint6_linear_525_818" x1="1.05398" y1="15.0824" x2="1.05398" y2="10.5468" gradientUnits="userSpaceOnUse">
<stop stop-color="#273F5E"/>
<stop offset="1" stop-color="#4E688C"/>
</linearGradient>
<linearGradient id="paint7_linear_525_818" x1="1.49959" y1="14.6381" x2="1.49959" y2="10.5468" gradientUnits="userSpaceOnUse">
<stop stop-color="#4E688C"/>
<stop offset="1" stop-color="#273F5E"/>
</linearGradient>
<linearGradient id="paint8_linear_525_818" x1="1.05398" y1="10.5461" x2="1.05398" y2="6.01047" gradientUnits="userSpaceOnUse">
<stop stop-color="#4E76A6"/>
<stop offset="1" stop-color="#87B5F5"/>
</linearGradient>
<linearGradient id="paint9_linear_525_818" x1="1.49959" y1="10.5459" x2="1.49959" y2="6.45452" gradientUnits="userSpaceOnUse">
<stop stop-color="#4E688C"/>
<stop offset="1" stop-color="#273F5E"/>
</linearGradient>
<linearGradient id="paint10_linear_525_818" x1="30.7124" y1="15.0824" x2="30.7124" y2="10.5468" gradientUnits="userSpaceOnUse">
<stop stop-color="#87B5F5"/>
<stop offset="1" stop-color="#3A587D"/>
</linearGradient>
<linearGradient id="paint11_linear_525_818" x1="29.2295" y1="8.50024" x2="31.2542" y2="8.50024" gradientUnits="userSpaceOnUse">
<stop stop-color="#204954"/>
<stop offset="1" stop-color="#1B3840"/>
</linearGradient>
<linearGradient id="paint12_linear_525_818" x1="61.0279" y1="15.082" x2="61.0279" y2="6.01065" gradientUnits="userSpaceOnUse">
<stop stop-color="#6287C9"/>
<stop offset="1" stop-color="#3B597D"/>
</linearGradient>
<radialGradient id="paint13_radial_525_818" cx="0" cy="0" r="1" gradientUnits="userSpaceOnUse" gradientTransform="translate(75.3141 10.5466) scale(10.9126 9.35806)">
<stop stop-color="#BA559E"/>
<stop offset="1" stop-color="#5F214E"/>
</radialGradient>
<linearGradient id="paint14_linear_525_818" x1="61.0328" y1="6.45489" x2="61.0328" y2="6.01065" gradientUnits="userSpaceOnUse">
<stop stop-color="#87B5F5"/>
<stop offset="1" stop-color="#4E76A6"/>
</linearGradient>
<linearGradient id="paint15_linear_525_818" x1="61.0214" y1="6.89875" x2="61.0214" y2="6.45452" gradientUnits="userSpaceOnUse">
<stop stop-color="#204270"/>
<stop offset="1" stop-color="#335D94"/>
</linearGradient>
<linearGradient id="paint16_linear_525_818" x1="61.0214" y1="14.6375" x2="61.0214" y2="14.1932" gradientUnits="userSpaceOnUse">
<stop stop-color="#87B5F5"/>
<stop offset="1" stop-color="#4E76A6"/>
</linearGradient>
<linearGradient id="paint17_linear_525_818" x1="61.0328" y1="15.0824" x2="61.0328" y2="14.6381" gradientUnits="userSpaceOnUse">
<stop stop-color="#204270"/>
<stop offset="1" stop-color="#335D94"/>
</linearGradient>
<linearGradient id="paint18_linear_525_818" x1="46.2032" y1="15.0824" x2="46.2032" y2="10.5468" gradientUnits="userSpaceOnUse">
<stop stop-color="#87B5F5"/>
<stop offset="1" stop-color="#3A587D"/>
</linearGradient>
<linearGradient id="paint19_linear_525_818" x1="45.651" y1="8.50024" x2="47.6755" y2="8.50024" gradientUnits="userSpaceOnUse">
<stop stop-color="#204954"/>
<stop offset="1" stop-color="#1B3840"/>
</linearGradient>
<linearGradient id="paint20_linear_525_818" x1="75.8538" y1="15.0824" x2="75.8538" y2="10.5468" gradientUnits="userSpaceOnUse">
<stop stop-color="#273F5E"/>
<stop offset="1" stop-color="#4E688C"/>
</linearGradient>
<linearGradient id="paint21_linear_525_818" x1="75.3832" y1="14.6381" x2="75.3832" y2="10.5468" gradientUnits="userSpaceOnUse">
<stop stop-color="#304D73"/>
<stop offset="1" stop-color="#5B79A3"/>
</linearGradient>
<linearGradient id="paint22_linear_525_818" x1="75.8538" y1="10.5463" x2="75.8538" y2="6.01065" gradientUnits="userSpaceOnUse">
<stop stop-color="#4E76A6"/>
<stop offset="1" stop-color="#87B5F5"/>
</linearGradient>
<linearGradient id="paint23_linear_525_818" x1="75.3832" y1="10.5459" x2="75.3832" y2="6.45452" gradientUnits="userSpaceOnUse">
<stop stop-color="#4E688C"/>
<stop offset="1" stop-color="#273F5E"/>
</linearGradient>
<linearGradient id="paint24_linear_525_818" x1="38.4592" y1="1.07855" x2="38.4592" y2="0.050442" gradientUnits="userSpaceOnUse">
<stop stop-color="#87B5F5"/>
<stop offset="1" stop-color="#4E76A6"/>
</linearGradient>
<linearGradient id="paint25_linear_525_818" x1="38.4509" y1="2.10721" x2="38.4509" y2="1.07911" gradientUnits="userSpaceOnUse">
<stop stop-color="#204270"/>
<stop offset="1" stop-color="#335D94"/>
</linearGradient>
<linearGradient id="paint26_linear_525_818" x1="38.4509" y1="20.0149" x2="38.4509" y2="18.9868" gradientUnits="userSpaceOnUse">
<stop stop-color="#87B5F5"/>
<stop offset="1" stop-color="#4E76A6"/>
</linearGradient>
<linearGradient id="paint27_linear_525_818" x1="38.4592" y1="21.0426" x2="38.4592" y2="20.0145" gradientUnits="userSpaceOnUse">
<stop stop-color="#204270"/>
<stop offset="1" stop-color="#335D94"/>
</linearGradient>
<linearGradient id="paint28_linear_525_818" x1="4.13159" y1="21.0427" x2="4.13159" y2="10.5468" gradientUnits="userSpaceOnUse">
<stop stop-color="#273F5E"/>
<stop offset="1" stop-color="#4E688C"/>
</linearGradient>
<linearGradient id="paint29_linear_525_818" x1="5.19588" y1="20.0146" x2="5.19588" y2="10.5468" gradientUnits="userSpaceOnUse">
<stop stop-color="#304D73"/>
<stop offset="1" stop-color="#5B79A3"/>
</linearGradient>
<linearGradient id="paint30_linear_525_818" x1="4.13159" y1="10.5465" x2="4.13159" y2="0.0504419" gradientUnits="userSpaceOnUse">
<stop stop-color="#4E76A6"/>
<stop offset="1" stop-color="#87B5F5"/>
</linearGradient>
<linearGradient id="paint31_linear_525_818" x1="5.19588" y1="10.547" x2="5.19588" y2="1.07911" gradientUnits="userSpaceOnUse">
<stop stop-color="#4E688C"/>
<stop offset="1" stop-color="#273F5E"/>
</linearGradient>
<linearGradient id="paint32_linear_525_818" x1="72.7652" y1="21.0427" x2="72.7652" y2="10.5468" gradientUnits="userSpaceOnUse">
<stop stop-color="#273F5E"/>
<stop offset="1" stop-color="#4E688C"/>
</linearGradient>
<linearGradient id="paint33_linear_525_818" x1="71.6971" y1="20.0146" x2="71.6971" y2="10.5468" gradientUnits="userSpaceOnUse">
<stop stop-color="#304D73"/>
<stop offset="1" stop-color="#5B79A3"/>
</linearGradient>
<linearGradient id="paint34_linear_525_818" x1="72.7652" y1="10.5465" x2="72.7652" y2="0.0504419" gradientUnits="userSpaceOnUse">
<stop stop-color="#4E76A6"/>
<stop offset="1" stop-color="#87B5F5"/>
</linearGradient>
<linearGradient id="paint35_linear_525_818" x1="71.6971" y1="10.547" x2="71.6971" y2="1.07911" gradientUnits="userSpaceOnUse">
<stop stop-color="#4E688C"/>
<stop offset="1" stop-color="#273F5E"/>
</linearGradient>
</defs>
</svg>
