<svg width="16" height="16" viewBox="0 0 16 16" fill="none" xmlns="http://www.w3.org/2000/svg">
<path id="Vector" fill-rule="evenodd" clip-rule="evenodd" d="M7.16728 8.84185C7.16728 9.33603 7.54016 9.73662 8.00016 9.73662C8.46015 9.73662 8.83303 9.33603 8.83303 8.84185V6.15754C8.83303 5.66338 8.46015 5.26277 8.00016 5.26277C7.54016 5.26277 7.16728 5.66338 7.16728 6.15754V8.84185ZM8.83303 11.5161C8.83303 11.022 8.46015 10.6214 8.00016 10.6214C7.54016 10.6214 7.16728 11.022 7.16728 11.5161V11.5262C7.16728 12.0203 7.54016 12.4209 8.00016 12.4209C8.46015 12.4209 8.83303 12.0203 8.83303 11.5262V11.5161ZM5.81582 1.38069C6.76783 -0.460231 9.23223 -0.460231 10.1842 1.38069L15.682 12.0121C16.6072 13.8013 15.4029 16 13.4978 16H2.50222C0.597056 16 -0.607198 13.8013 0.318026 12.0121L5.81582 1.38069Z" fill="url(#paint0_linear_2273_11815)"/>
<defs>
<linearGradient id="paint0_linear_2273_11815" x1="8" y1="0" x2="8" y2="16" gradientUnits="userSpaceOnUse">
<stop stop-color="#F38927"/>
<stop offset="1" stop-color="#C14E17"/>
</linearGradient>
</defs>
</svg>
