<svg width="16" height="16" viewBox="0 0 16 16" fill="none" xmlns="http://www.w3.org/2000/svg">
<g id="bear-face-svgrepo-com" clip-path="url(#clip0_1701_668)">
<path id="Vector" d="M15.1469 2.6C15.1469 3.75 14.1719 4.7 12.9719 4.7C11.7719 4.7 10.7969 3.75 10.7969 2.6C10.7969 1.45 11.7719 0.5 12.9719 0.5C14.1719 0.5 15.1469 1.45 15.1469 2.6Z" fill="#947151"/>
<path id="Vector_2" d="M14.2719 2.59995C14.2719 3.29995 13.6969 3.87495 12.9719 3.87495C12.2469 3.87495 11.6719 3.29995 11.6719 2.59995C11.6719 1.89995 12.2469 1.32495 12.9719 1.32495C13.6969 1.32495 14.2719 1.89995 14.2719 2.59995Z" fill="#E0AC7E"/>
<path id="Vector_3" d="M3.02656 4.7C4.22778 4.7 5.20156 3.7598 5.20156 2.6C5.20156 1.4402 4.22778 0.5 3.02656 0.5C1.82534 0.5 0.851562 1.4402 0.851562 2.6C0.851562 3.7598 1.82534 4.7 3.02656 4.7Z" fill="#947151"/>
<path id="Vector_4" d="M3.02656 3.87495C3.74453 3.87495 4.32656 3.30411 4.32656 2.59995C4.32656 1.89579 3.74453 1.32495 3.02656 1.32495C2.30859 1.32495 1.72656 1.89579 1.72656 2.59995C1.72656 3.30411 2.30859 3.87495 3.02656 3.87495Z" fill="#E0AC7E"/>
<path id="Vector_5" d="M15.5 9.27495C15.5 13.8 10.45 15.5 8 15.5C5.55 15.5 0.5 13.8 0.5 9.27495C0.5 3.52495 3.25 2.19995 8 2.19995C12.75 2.19995 15.5 3.52495 15.5 9.27495Z" fill="#947151"/>
<path id="Vector_6" d="M4.72656 11.4C4.72656 9.07495 6.95156 8.19995 8.02656 8.19995C9.10156 8.19995 11.3266 9.07495 11.3266 11.4C11.3266 14.35 10.1266 15.05 8.02656 15.05C5.92656 15.05 4.72656 14.35 4.72656 11.4Z" fill="#E0AC7E"/>
<path id="Vector_7" d="M8.17344 0.5C8.24844 0.9 8.02344 1.2 8.02344 1.2C7.67344 0.725 6.97344 0.575 6.97344 0.575C7.24844 0.9 7.17344 1.4 7.17344 1.4C6.69844 1.225 6.27344 1.25 6.27344 1.25C7.27344 2 7.04844 4.275 7.04844 4.275C8.22344 3.025 9.69844 2.425 9.69844 2.425C9.37344 1.25 8.17344 0.5 8.17344 0.5Z" fill="#947151"/>
<g id="Group">
<path id="Vector_8" d="M9.1 14.25C9.125 14.25 9.125 14.2 9.125 14.175C9.125 14 8.625 13.825 8 13.825C7.375 13.825 6.875 13.975 6.875 14.175C6.875 14.2 6.875 14.25 6.9 14.25H9.1Z" fill="#3E4347"/>
<path id="Vector_9" d="M5.70312 11.475C5.70312 10.525 6.72813 10.325 8.00313 10.325C9.27813 10.325 10.3031 10.5 10.3031 11.475C10.3031 12.25 8.45313 12.925 8.00313 12.925C7.55313 12.925 5.70312 12.225 5.70312 11.475Z" fill="#3E4347"/>
<path id="Vector_10" d="M14.7781 7.67505L14.3531 7.75005L13.9281 7.82505C13.6531 7.87505 13.3531 7.90005 13.0781 7.95005C12.5031 8.02505 11.9531 8.07505 11.3781 8.12505C10.2781 8.20005 9.12813 8.25005 8.00313 8.25005C6.87813 8.25005 5.72812 8.20005 4.60312 8.10005C3.47812 8.00005 2.32812 7.85005 1.22812 7.60005C1.20312 7.60005 1.20312 7.57505 1.20312 7.57505L1.22812 7.55005C1.80312 7.57505 2.35312 7.62505 2.92812 7.65005C3.50312 7.67505 4.05312 7.70005 4.62812 7.72505C5.75313 7.75005 6.87812 7.77505 8.02812 7.77505C9.15312 7.77505 10.2781 7.77505 11.4281 7.75005C12.5531 7.72505 13.6781 7.67505 14.8281 7.65005C14.8531 7.65005 14.8531 7.65005 14.8531 7.67505C14.8031 7.65005 14.8031 7.67505 14.7781 7.67505Z" fill="#3E4347"/>
<path id="Vector_11" d="M4.90156 8.12508C4.90156 8.52508 4.50156 8.85008 4.00156 8.85008C3.50156 8.85008 3.10156 8.52508 3.10156 8.12508C3.10156 7.72508 3.50156 7.82508 4.00156 7.82508C4.50156 7.82508 4.90156 7.72508 4.90156 8.12508Z" fill="#3E4347"/>
<path id="Vector_12" d="M12.925 8.12508C12.925 8.52508 12.525 8.85008 12.025 8.85008C11.525 8.85008 11.125 8.52508 11.125 8.12508C11.125 7.72508 11.525 7.82508 12.025 7.82508C12.525 7.82508 12.925 7.72508 12.925 8.12508Z" fill="#3E4347"/>
</g>
</g>
<defs>
<clipPath id="clip0_1701_668">
<rect width="16" height="16" fill="white"/>
</clipPath>
</defs>
</svg>
