<svg width="16" height="16" viewBox="0 0 16 16" fill="none" xmlns="http://www.w3.org/2000/svg">
<g id="boar-svgrepo-com (2)">
<path id="Vector" d="M5.14721 3.70003C4.54721 2.57503 0.597208 2.92503 0.597208 2.92503C0.597208 2.92503 0.122208 6.92503 1.27221 7.55003C2.14721 8.02503 5.62221 4.60003 5.14721 3.70003Z" fill="#89664C"/>
<path id="Vector_2" d="M4.40168 4.29998C4.02668 3.59998 1.57668 3.82498 1.57668 3.82498C1.57668 3.82498 1.30168 6.32498 2.00168 6.69998C2.55168 6.99998 4.70168 4.87498 4.40168 4.29998Z" fill="#2B2118"/>
<path id="Vector_3" d="M14.6778 7.52504C15.8028 6.92504 15.4528 3.00004 15.4528 3.00004C15.4528 3.00004 11.4278 2.52504 10.8028 3.67504C10.3278 4.55004 13.7528 8.00004 14.6778 7.52504Z" fill="#89664C"/>
<path id="Vector_4" d="M14.0507 6.77512C14.7507 6.40012 14.5257 3.97511 14.5257 3.97511C14.5257 3.97511 12.0257 3.70012 11.6257 4.40012C11.3507 4.95012 13.5007 7.07511 14.0507 6.77512Z" fill="#2B2118"/>
<path id="Vector_5" d="M14.6969 9.85C14.6969 14.2 11.6969 15 7.99688 15C4.29688 15 1.29688 14.2 1.29688 9.85C1.29688 5.5 5.42188 2.375 7.99688 2.375C10.5719 2.375 14.6969 5.5 14.6969 9.85Z" fill="#89664C"/>
<g id="Group">
<path id="Vector_6" d="M4.92371 11.825C1.94871 13.275 2.74871 7.07495 2.74871 7.07495C0.448711 13.025 3.19871 13.975 5.14871 13.675L4.92371 11.825Z" fill="white"/>
<path id="Vector_7" d="M11.0766 11.825C14.0516 13.275 13.2516 7.07495 13.2516 7.07495C15.5516 13.025 12.8016 13.975 10.8516 13.675L11.0766 11.825Z" fill="white"/>
</g>
<path id="Vector_8" d="M8.00313 5.65C8.00313 5.65 7.25312 3.15 5.57812 2.675C5.57812 2.675 6.32813 2.25 6.87813 2.45C6.87813 2.45 6.90313 2 6.42813 1.675C6.42813 1.675 7.50313 1.45 8.05313 2.2C8.05313 2.2 8.12813 1.4 7.92813 1C7.92813 1 9.70313 1.425 10.1781 2.95C10.1781 2.95 8.35313 3.475 8.00313 5.65Z" fill="#5C4533"/>
<g id="Group_2">
<path id="Vector_9" d="M4.65 10.05C5.07802 10.05 5.425 9.4232 5.425 8.65C5.425 7.8768 5.07802 7.25 4.65 7.25C4.22198 7.25 3.875 7.8768 3.875 8.65C3.875 9.4232 4.22198 10.05 4.65 10.05Z" fill="#2B2118"/>
<path id="Vector_10" d="M11.3531 7.19995C11.7781 7.19995 12.1281 7.82495 12.1281 8.59995C12.1281 9.37495 11.7781 9.99995 11.3531 9.99995C10.9281 9.99995 10.5781 9.37495 10.5781 8.59995C10.5781 7.82495 10.9281 7.19995 11.3531 7.19995Z" fill="#2B2118"/>
</g>
<path id="Vector_11" d="M11.5 12.45C11.5 14.475 9.925 14.25 8 14.25C6.05 14.25 4.5 14.475 4.5 12.45C4.5 10.425 6.075 9.42501 8 9.42501C9.95 9.40001 11.5 10.425 11.5 12.45Z" fill="#FC97B2"/>
<g id="Group_3">
<path id="Vector_12" d="M6.42813 13.575C6.89757 13.575 7.27813 12.8699 7.27813 12C7.27813 11.1302 6.89757 10.425 6.42813 10.425C5.95868 10.425 5.57812 11.1302 5.57812 12C5.57812 12.8699 5.95868 13.575 6.42813 13.575Z" fill="#7A495A"/>
<path id="Vector_13" d="M9.57656 13.575C10.046 13.575 10.4266 12.8699 10.4266 12C10.4266 11.1302 10.046 10.425 9.57656 10.425C9.10712 10.425 8.72656 11.1302 8.72656 12C8.72656 12.8699 9.10712 13.575 9.57656 13.575Z" fill="#7A495A"/>
</g>
</g>
</svg>
