<?xml version="1.0" encoding="utf-8"?><!-- Uploaded to: SVG Repo, www.svgrepo.com, Generator: SVG Repo Mixer Tools -->
<svg width="800px" height="800px" viewBox="0 -2.5 149 149" fill="none" xmlns="http://www.w3.org/2000/svg">
<path d="M136.583 82.614V90H127.271V82.572C127.308 78.438 123.856 75.042 119.585 75H117.958V108H105.542V99L88.8599 85.284L62.0833 90L55.875 96.732V108H43.4583V85.5L12.4167 78.06V66C14.8627 66 31.0417 62.646 31.0417 48L49.6667 42L102.767 54.336C109.329 55.524 114.624 60.042 116.816 66H119.666C129.065 66.084 136.639 73.53 136.583 82.614Z" fill="#6D4C41"/>
<path opacity="0.3" d="M136.583 82.614V90H127.271V82.572C127.308 78.438 123.856 75.042 119.585 75C119.585 75 117.958 75.39 117.958 75C117.958 68.748 116.816 66 116.816 66H119.666C129.065 66.084 136.639 73.53 136.583 82.614Z" fill="#000000"/>
<path opacity="0.4" d="M24.8333 74.91V65.91C28.1858 65.91 30.9113 63.276 30.9113 60.036H40.2238C40.2238 68.238 33.3201 74.91 24.8333 74.91Z" fill="white"/>
</svg>