<?xml version="1.0" ?>
<!-- Uploaded to: SVG Repo, www.svgrepo.com, Generator: SVG Repo Mixer Tools -->
<svg fill="#000000" width="800px" height="800px" viewBox="0 0 64 64" version="1.1" xml:space="preserve" xmlns="http://www.w3.org/2000/svg" xmlns:xlink="http://www.w3.org/1999/xlink">
<g id="orgami"/>
<g id="embroidery"/>
<g id="craftsman"/>
<g id="pottery"/>
<g id="sculpt"/>
<g id="yarn"/>
<g id="scissors"/>
<g id="sewing_machine"/>
<g id="knitting"/>
<g id="stationary"/>
<g id="stapler"/>
<g id="compass">
<g>
<path d="M32,21c2.2,0,4-1.8,4-4s-1.8-4-4-4s-4,1.8-4,4S29.8,21,32,21z M32,15c1.1,0,2,0.9,2,2s-0.9,2-2,2s-2-0.9-2-2    S30.9,15,32,15z"/>
<path d="M53,26.9c1.7-0.4,3-2,3-3.9c0-2.2-1.8-4-4-4s-4,1.8-4,4c0,1.8,1.3,3.4,3,3.8c-0.2,4.9-2.3,9.4-5.6,12.6l-4.2-22.7    c0-0.1-0.1-0.2-0.1-0.4c-0.2-2.9-1.7-5.4-4-6.9V6c0-1.7-1.3-3-3-3h-4c-1.7,0-3,1.3-3,3v3.5c-2.3,1.5-3.8,4.1-4,6.9    c-0.1,0.1-0.1,0.2-0.1,0.4l-4.2,22.7c-3.3-3.3-5.4-7.7-5.6-12.6c1.7-0.5,3-2,3-3.8c0-2.2-1.8-4-4-4s-4,1.8-4,4    c0,1.9,1.3,3.4,3,3.9c0.2,5.9,3,11.3,7.2,14.9l-3.1,16.6c-0.2,0.6-0.1,1.3,0.3,1.8c0.4,0.5,1,0.8,1.6,0.8c0.8,0,1.5-0.4,1.9-1.2    l5.8-14.2C27,46.5,29.4,47,32,47c2.6,0,5-0.5,7.3-1.3l5.8,14.2c0.4,0.7,1,1.1,1.8,1.1c0.7,0,1.2-0.3,1.6-0.8    c0.4-0.5,0.5-1.2,0.4-1.7l-3.1-16.7C50,38.1,52.7,32.8,53,26.9z M50,23c0-1.1,0.9-2,2-2s2,0.9,2,2s-0.9,2-2,2S50,24.1,50,23z     M10,23c0-1.1,0.9-2,2-2s2,0.9,2,2s-0.9,2-2,2S10,24.1,10,23z M43.6,41c-1,0.8-2.1,1.4-3.2,2l-7-17.1c2.8-0.5,5.2-2.2,6.5-4.6    L43.6,41z M29,6c0-0.6,0.4-1,1-1h4c0.6,0,1,0.4,1,1v2.5C34.1,8.2,33.1,8,32,8s-2.1,0.2-3,0.5V6z M32,10c3.9,0,7,3.1,7,7    c0,3.9-3.1,7-7,7c0,0,0,0,0,0c0,0,0,0,0,0c0,0,0,0,0,0c0,0,0,0,0,0c-3.9,0-7-3.1-7-7C25,13.1,28.1,10,32,10z M24.1,21.3    c1.3,2.4,3.7,4.1,6.5,4.6l-7,17.1c-1.1-0.6-2.2-1.2-3.2-2L24.1,21.3z M17.1,59l0-0.1L20,43.2c0.9,0.6,1.9,1.2,2.8,1.7L17.1,59z     M32,45c-2.3,0-4.5-0.4-6.6-1.2L32,27.7l6.6,16.2C36.5,44.6,34.3,45,32,45z M47,59L47,59l-5.8-14.1c1-0.5,2-1,2.9-1.7L47,59z"/>
</g>
</g>
<g id="cutter"/>
<g id="pin_tool"/>
<g id="wood_chisel"/>
<g id="adhesive_tape"/>
<g id="sewing_clothes"/>
<g id="anvil"/>
<g id="glue_gun"/>
<g id="roller_brush"/>
</svg>