<svg width="16" height="16" viewBox="0 0 16 16" fill="none" xmlns="http://www.w3.org/2000/svg">
<g id="deer-svgrepo-com (1)" clip-path="url(#clip0_1701_692)">
<g id="Group">
<path id="Vector" d="M5.475 5.475C5.325 5.075 5.2 4.725 5.125 4.425C7.65 3.075 6.85 1.825 6.25 2.75C5.85 3.4 5.25 3.7 5 3.8C4.9 2.975 5.075 2.425 5.15 1.825C5.3 0.849996 4.375 0.374996 4.25 0.749996C4.05 1.325 4.875 0.974996 4.625 2.35C4.425 3.4 4.6 4.3 4.775 4.85C4.4 4.55 4 4.25 3.55 3.95C3.25 3.375 2.875 2.2 3.725 0.899996C3.975 0.499996 3.65 0.474996 3.525 0.499996C3.1 0.624996 2.475 2.15 2.825 3.475C1.075 2.225 1.7 0.499996 1.275 0.499996C0.75 0.499996 1.025 2.425 1.775 3.375C2.025 3.675 2.5 4.025 3.05 4.375C2.6 4.575 1.775 4.725 0.95 4C0.85 3.95 0.5 3.775 0.5 4.225C0.5 4.675 1.975 5.875 3.625 4.8C4.325 5.275 5.025 5.8 5.325 6.35L6.775 7.65C6.625 6.85 6.15 6.15 5.475 5.475Z" fill="#594640"/>
<path id="Vector_2" d="M10.5282 5.475C10.7032 5.075 10.8032 4.725 10.8782 4.425C8.35323 3.075 9.15323 1.825 9.75323 2.75C10.1532 3.4 10.7532 3.7 11.0032 3.8C11.1032 2.975 10.9282 2.425 10.8532 1.825C10.7032 0.849996 11.6282 0.374996 11.7532 0.749996C11.9532 1.325 11.1282 0.974996 11.3782 2.35C11.5782 3.4 11.4032 4.3 11.2282 4.85C11.6032 4.55 12.0032 4.25 12.4532 3.95C12.7532 3.375 13.1282 2.2 12.2782 0.899996C12.0282 0.499996 12.3532 0.474996 12.4782 0.499996C12.9032 0.624996 13.5282 2.15 13.1782 3.475C14.9282 2.225 14.3032 0.499996 14.7282 0.499996C15.2532 0.499996 14.9782 2.425 14.2282 3.375C13.9782 3.675 13.5032 4.025 12.9532 4.375C13.4032 4.575 14.2282 4.725 15.0532 4C15.1532 3.925 15.5032 3.725 15.5032 4.175C15.5032 4.625 14.0282 5.825 12.3782 4.75C11.6782 5.225 10.9782 5.75 10.6782 6.3L9.22823 7.6C9.37823 6.85 9.85323 6.15 10.5282 5.475Z" fill="#594640"/>
</g>
<path id="Vector_3" d="M10.6787 9.85C10.0537 8.725 10.8037 8.025 10.3287 7.7C9.52868 7.15 8.72868 7.125 8.00368 7.125C7.27868 7.125 6.47868 7.15 5.67868 7.7C5.20368 8 5.95368 8.725 5.32868 9.85C4.70368 10.975 5.27868 11.95 6.02868 12.625C6.77868 13.275 6.07868 14.725 7.12868 15.275C7.37868 15.4 7.67868 15.525 8.00368 15.525C8.32868 15.525 8.62868 15.4 8.87868 15.275C9.92868 14.725 9.22868 13.3 9.97868 12.625C10.7537 11.95 11.3287 10.975 10.6787 9.85Z" fill="#D3976E"/>
<path id="Vector_4" opacity="0.5" d="M10.4281 8.9751C10.4531 9.2251 10.5031 9.5251 10.7031 9.8501C11.3281 10.9751 10.7531 11.9501 10.0031 12.6251C9.67813 12.9001 9.62813 13.3001 9.57812 13.7251C9.57812 13.1251 9.62813 12.0501 10.0531 10.9501C10.4031 9.9751 10.4281 9.5001 10.4281 8.9751Z" fill="#89664C"/>
<path id="Vector_5" opacity="0.5" d="M5.57243 8.9751C5.54743 9.2251 5.49743 9.5251 5.29743 9.8501C4.67243 10.9751 5.24743 11.9501 5.99743 12.6251C6.32243 12.9001 6.37243 13.3001 6.42243 13.7251C6.42243 13.1251 6.37243 12.0501 5.94743 10.9501C5.59743 9.9751 5.57243 9.5001 5.57243 8.9751Z" fill="#89664C"/>
<path id="Vector_6" d="M6.8783 8.9251C6.8783 8.9251 6.8783 5.1001 3.2533 5.1001C3.2283 5.1001 3.2533 8.9251 6.8783 8.9251Z" fill="#D3976E"/>
<path id="Vector_7" d="M3.85156 5.6499C3.85156 5.6499 5.22656 5.6499 6.25156 7.5499C6.25156 7.5499 5.42656 7.0999 5.55156 7.2999C5.67656 7.4999 6.27656 7.9499 5.65156 7.7249C5.05156 7.4999 5.45156 7.8999 5.65156 8.0999C5.85156 8.2749 3.85156 7.7249 3.85156 5.6499Z" fill="#89664C"/>
<path id="Vector_8" d="M9.125 8.9251C9.125 8.9251 9.125 5.1001 12.75 5.1001C12.775 5.1001 12.75 8.9251 9.125 8.9251Z" fill="#D3976E"/>
<g id="Group_2">
<path id="Vector_9" d="M12.15 5.6499C12.15 5.6499 10.775 5.6499 9.75 7.5499C9.75 7.5499 10.575 7.0999 10.45 7.2999C10.325 7.4999 9.725 7.9499 10.35 7.7249C10.95 7.4999 10.55 7.8999 10.35 8.0999C10.15 8.2749 12.15 7.7249 12.15 5.6499Z" fill="#89664C"/>
<path id="Vector_10" d="M8.92453 14.8C8.94953 14.875 8.54953 15.25 7.99953 15.25C7.42453 15.25 7.02453 14.85 7.07453 14.8C7.09953 14.725 7.49953 14.95 7.99953 14.95C8.49953 14.975 8.89953 14.725 8.92453 14.8Z" fill="#89664C"/>
<path id="Vector_11" d="M7.875 14.5498H8.1V15.0248H7.875V14.5498Z" fill="#89664C"/>
</g>
<path id="Vector_12" d="M8 13.4751C7.5 13.4751 6.875 13.5501 6.875 13.8251C6.875 14.1001 7.325 14.7251 8 14.7251C8.675 14.7251 9.125 14.1001 9.125 13.8251C9.125 13.5501 8.5 13.4751 8 13.4751Z" fill="#594640"/>
<path id="Vector_13" d="M7.99687 14.075C8.45251 14.075 8.82187 13.9743 8.82187 13.85C8.82187 13.7257 8.45251 13.625 7.99687 13.625C7.54124 13.625 7.17188 13.7257 7.17188 13.85C7.17188 13.9743 7.54124 14.075 7.99687 14.075Z" fill="white"/>
<g id="Group_3">
<path id="Vector_14" d="M6.00198 11.1643C6.23313 11.1236 6.37386 10.826 6.3163 10.4996C6.25874 10.1733 6.02469 9.9418 5.79354 9.98257C5.56239 10.0233 5.42166 10.3209 5.47922 10.6473C5.53678 10.9736 5.77083 11.2051 6.00198 11.1643Z" fill="#3E4347"/>
<path id="Vector_15" d="M10.5194 10.6603C10.577 10.3339 10.4363 10.0364 10.2051 9.99558C9.97395 9.95481 9.7399 10.1863 9.68234 10.5126C9.62479 10.839 9.76551 11.1366 9.99666 11.1773C10.2278 11.2181 10.4619 10.9866 10.5194 10.6603Z" fill="#3E4347"/>
</g>
<g id="Group_4">
<path id="Vector_16" d="M5.89939 9.24997C5.87439 9.29997 6.34939 9.62497 6.52439 10.25C6.72439 10.85 6.49939 11.4 6.54939 11.425C6.59939 11.475 6.92439 10.9 6.72439 10.2C6.52439 9.49997 5.92439 9.19997 5.89939 9.24997Z" fill="#89664C"/>
<path id="Vector_17" d="M10.1004 9.24997C10.1254 9.29997 9.65036 9.62497 9.47536 10.25C9.27536 10.85 9.50036 11.4 9.45036 11.425C9.40036 11.475 9.07536 10.9 9.27536 10.2C9.47536 9.49997 10.0754 9.19997 10.1004 9.24997Z" fill="#89664C"/>
<path id="Vector_18" opacity="0.5" d="M7.07677 7.175C6.62677 7.625 6.35177 8.1 6.92677 9.25C7.57677 10.55 7.35177 12.925 8.00177 12.925C8.67677 12.925 8.45177 10.55 9.07677 9.25C9.65177 8.1 9.37677 7.625 8.92677 7.175C8.60177 7.125 8.30177 7.125 8.00177 7.125C7.70177 7.125 7.40177 7.15 7.07677 7.175Z" fill="#89664C"/>
</g>
</g>
<defs>
<clipPath id="clip0_1701_692">
<rect width="16" height="16" fill="white"/>
</clipPath>
</defs>
</svg>
