<?xml version="1.0" encoding="iso-8859-1"?>

<!DOCTYPE svg PUBLIC "-//W3C//DTD SVG 1.1//EN" "http://www.w3.org/Graphics/SVG/1.1/DTD/svg11.dtd">
<!-- Uploaded to: SVG Repo, www.svgrepo.com, Generator: SVG Repo Mixer Tools -->
<svg height="800px" width="800px" version="1.1" id="_x34_" xmlns="http://www.w3.org/2000/svg" xmlns:xlink="http://www.w3.org/1999/xlink" 
	 viewBox="0 0 512 512"  xml:space="preserve">
<g>
	<path style="fill:#AE8354;" d="M508.937,13.702v0.006c-1.914-9.288-11.003-15.265-20.299-13.352
		c-9.283,1.907-15.266,10.997-13.345,20.286c1.634,7.953,2.355,14.893,2.355,20.944c-0.05,11.992-2.622,20.305-7.089,27.53
		c-4.48,7.207-11.345,13.625-21.193,19.745c-4.225,2.666-9.071,5.188-14.303,7.661V64.227c0-8.369-6.785-15.16-15.154-15.16
		c-8.375,0-15.154,6.791-15.154,15.16v44.449c-12.805,4.529-26.897,9.065-41.969,13.917c-0.839,0.273-1.559,0.59-2.379,0.87V96.864
		c0-8.369-6.791-15.154-15.154-15.154c-8.369,0-15.16,6.785-15.16,15.154v40.441c-18.583,11.159-31.059,24.598-38.596,37.508
		c-4.064,6.902-6.76,13.476-8.605,19.391c-9.743,0-19.572,0-26.891,0s-17.148,0-26.89,0c-1.845-5.915-4.541-12.488-8.605-19.391
		c-7.537-12.911-20.012-26.35-38.602-37.508V96.864c0-8.369-6.785-15.154-15.153-15.154c-8.366,0-15.154,6.785-15.154,15.154v26.598
		c-0.82-0.28-1.54-0.597-2.38-0.87c-15.073-4.853-29.164-9.388-41.97-13.917V64.227c0-8.369-6.778-15.16-15.153-15.16
		c-8.366,0-15.154,6.791-15.154,15.16v32.296c-5.232-2.473-10.075-4.995-14.309-7.661c-9.844-6.12-16.713-12.538-21.193-19.745
		c-4.458-7.225-7.033-15.539-7.083-27.53c0-6.051,0.721-12.991,2.358-20.944c1.914-9.289-4.066-18.378-13.348-20.286
		C14.07-1.557,4.987,4.42,3.07,13.708v-0.006C1.038,23.556,0.001,32.82,0.001,41.586c-0.059,17.279,4.212,32.849,12.283,45.71
		c6.008,9.642,13.923,17.658,22.883,24.38c13.476,10.103,29.319,17.546,46.747,24.306c17.44,6.735,36.551,12.736,56.71,19.292
		c31.133,10.233,44.97,24.822,52.302,37.017c0.404,0.684,0.714,1.342,1.081,2.014c-5.499,0.584-15.495,3.777-23.312,10.028
		c-1.081-0.459-2.162-0.919-3.342-1.311c-24.737-8.233-58.422-18.062-71.839-21.187c-15.576-3.635-30.071,6.157-18.844,29.437
		c10.845,22.498,24.722,50.637,57.707,58.882c5.256,1.318,10.336,1.982,15.21,2.255c-3.197,16.583-5.952,31.289-6.505,34.607
		c-2.665,16.011,6.316,29.046,12.203,39.993c3.886,7.232,30.361,73.265,34.306,81.957c2.771,6.089,9.475,18.863,9.475,18.863
		c0,1.764,0,3.112,0,4.28c0,0.422,0,0.889,0,1.243c0,6.312,3.156,25.256,22.1,25.256c18.937,0,36.837,0,36.837,0s17.9,0,36.837,0
		c18.944,0,22.1-18.944,22.1-25.256c0-0.354,0-0.821,0-1.243c0-1.168,0-2.516,0-4.28c0,0,6.704-12.774,9.475-18.863
		c3.945-8.692,30.42-74.725,34.302-81.957c5.89-10.947,14.874-23.982,12.209-39.993c-0.553-3.318-3.312-18.024-6.505-34.607
		c4.871-0.273,9.947-0.938,15.204-2.255c32.985-8.245,46.865-36.383,57.713-58.882c11.22-23.28-3.268-33.072-18.851-29.437
		c-13.42,3.125-47.102,12.954-71.836,21.187c-1.18,0.391-2.267,0.851-3.348,1.311c-7.81-6.25-17.806-9.444-23.305-10.028
		c0.366-0.671,0.677-1.33,1.081-2.014c7.332-12.196,21.162-26.784,52.302-37.017c20.155-6.555,39.273-12.557,56.713-19.292
		c17.427-6.76,33.265-14.204,46.747-24.306c8.953-6.722,16.869-14.738,22.877-24.38c8.071-12.861,12.346-28.431,12.283-45.71
		C511.999,32.82,510.968,23.556,508.937,13.702z"/>
	<g>
		<g>
			<path style="fill:#CAA579;" d="M220.506,174.814c-7.537-12.911-20.012-26.35-38.602-37.508V96.864
				c0-8.369-6.785-15.154-15.153-15.154c-8.366,0-15.154,6.785-15.154,15.154v26.598c-0.82-0.28-1.54-0.597-2.38-0.87
				c-15.073-4.853-29.164-9.388-41.97-13.917V64.227c0-8.369-6.778-15.16-15.153-15.16c-8.366,0-15.154,6.791-15.154,15.16v32.296
				c-5.232-2.473-10.075-4.995-14.309-7.661c-9.844-6.12-16.713-12.538-21.193-19.745c-4.458-7.225-7.033-15.539-7.083-27.53
				c0-6.051,0.721-12.991,2.358-20.944c1.914-9.289-4.066-18.378-13.348-20.286C14.07-1.557,4.987,4.42,3.07,13.708v-0.006
				C1.038,23.556,0.001,32.82,0.001,41.586c-0.059,17.279,4.212,32.849,12.283,45.71c6.008,9.642,13.923,17.658,22.883,24.38
				c13.476,10.103,29.319,17.546,46.747,24.306c17.44,6.735,36.551,12.736,56.71,19.292c31.133,10.233,44.97,24.822,52.302,37.017
				c7.25,12.215,7.642,23.008,7.623,24.772v0.249h0.019c-0.423,9.369,6.76,17.384,16.166,17.919
				c9.463,0.54,17.583-6.698,18.123-16.173c0.013-0.298,0.043-0.975,0.043-1.995C232.895,211.235,231.901,194.173,220.506,174.814z"
				/>
			<path style="fill:#BF9862;" d="M291.497,174.814c7.537-12.911,20.012-26.35,38.596-37.508V96.864
				c0-8.369,6.791-15.154,15.16-15.154c8.363,0,15.154,6.785,15.154,15.154v26.598c0.82-0.28,1.54-0.597,2.379-0.87
				c15.073-4.853,29.164-9.388,41.969-13.917V64.227c0-8.369,6.778-15.16,15.154-15.16c8.369,0,15.154,6.791,15.154,15.16v32.296
				c5.232-2.473,10.078-4.995,14.303-7.661c9.847-6.12,16.713-12.538,21.193-19.745c4.467-7.225,7.04-15.539,7.089-27.53
				c0-6.051-0.721-12.991-2.355-20.944c-1.92-9.289,4.063-18.378,13.345-20.286c9.295-1.914,18.385,4.064,20.299,13.352v-0.006
				c2.031,9.854,3.063,19.118,3.063,27.884c0.062,17.279-4.212,32.849-12.283,45.71c-6.008,9.642-13.923,17.658-22.877,24.38
				c-13.482,10.103-29.32,17.546-46.747,24.306c-17.44,6.735-36.558,12.736-56.713,19.292c-31.14,10.233-44.97,24.822-52.302,37.017
				c-7.25,12.215-7.642,23.008-7.623,24.772v0.249h-0.019c0.423,9.369-6.76,17.384-16.166,17.919
				c-9.475,0.54-17.583-6.698-18.123-16.173c-0.013-0.298-0.043-0.975-0.043-1.995C279.108,211.235,280.102,194.173,291.497,174.814
				z"/>
		</g>
		<g>
			<g>
				<path style="fill:#A87E47;" d="M192.429,245.432c0-10.612-2.355-34.16-27.076-42.411c-24.737-8.233-58.422-18.062-71.839-21.187
					c-15.576-3.635-30.071,6.157-18.844,29.437c10.845,22.498,24.722,50.637,57.707,58.882c32.976,8.251,60.053-7.058,60.053-7.058
					V245.432z"/>
				<path style="fill:#BF9862;" d="M152.355,252.385c-5.138,0-10.208-0.615-15.082-1.833c-17.17-4.293-27.381-16.285-36.39-32.395
					c-2.734-4.871,2.38-12.929,9.067-11.028c14.8,4.212,33.396,9.867,49.006,15.073c3.631,1.206,13.268,4.424,13.268,23.231v4.02
					c-5.212,1.529-12.103,2.933-19.863,2.933C152.361,252.385,152.361,252.385,152.355,252.385z"/>
			</g>
			<g>
				<path style="fill:#A27544;" d="M319.574,245.432c0-10.612,2.355-34.16,27.076-42.411c24.734-8.233,58.416-18.062,71.836-21.187
					c15.582-3.635,30.071,6.157,18.851,29.437c-10.848,22.498-24.729,50.637-57.713,58.882c-32.973,8.251-60.05-7.058-60.05-7.058
					V245.432z"/>
				<path style="fill:#BF9862;" d="M359.648,252.385c5.138,0,10.208-0.615,15.085-1.833c17.167-4.293,27.375-16.285,36.384-32.395
					c2.733-4.871-2.374-12.929-9.065-11.028c-14.806,4.212-33.396,9.867-49.009,15.073c-3.628,1.206-13.265,4.424-13.265,23.231
					v4.02c5.213,1.529,12.103,2.933,19.857,2.933C359.636,252.385,359.636,252.385,359.648,252.385z"/>
			</g>
		</g>
		<g>
			<path style="fill:#AE8354;" d="M256.002,194.205c-18.943,0-54.731,0-62.305,0c-7.58,0-30.941,7.574-35.362,25.25
				c-3.243,12.997-15.99,79.987-17.254,87.561c-2.665,16.011,6.316,29.046,12.203,39.993c3.886,7.232,30.361,73.265,34.306,81.957
				c2.771,6.089,9.475,18.863,9.475,18.863c0,19.732,0-0.795,0,5.524c0,6.312,3.156,25.256,22.1,25.256c18.937,0,36.837,0,36.837,0
				V194.205z"/>
			<path style="fill:#A87E47;" d="M256.002,194.205c18.943,0,54.731,0,62.305,0c7.58,0,30.935,7.574,35.359,25.25
				c3.243,12.997,15.992,79.987,17.26,87.561c2.665,16.011-6.319,29.046-12.209,39.993c-3.883,7.232-30.357,73.265-34.302,81.957
				c-2.771,6.089-9.475,18.863-9.475,18.863c0,19.732,0-0.795,0,5.524c0,6.312-3.156,25.256-22.1,25.256
				c-18.937,0-36.837,0-36.837,0V194.205z"/>
		</g>
		<path style="fill:#7D4E22;" d="M290.733,432.297c0,14.545-11.78,26.319-26.306,26.319h-16.85
			c-14.526,0-26.306-11.774-26.306-26.319l0,0c0-14.52,11.78-26.3,26.306-26.3h16.85
			C278.953,405.997,290.733,417.777,290.733,432.297L290.733,432.297z"/>
		<g>
			<path style="fill:#7D4E22;" d="M172.013,304.127h-19.499l6.309,8.562c-0.817,1.808-1.287,3.796-1.287,5.902
				c0,7.984,6.481,14.47,14.477,14.47c7.978,0,14.458-6.486,14.458-14.47C186.471,310.607,179.99,304.127,172.013,304.127z"/>
			<path style="fill:#7D4E22;" d="M359.493,304.127H339.99c-7.978,0-14.458,6.48-14.458,14.464c0,7.984,6.48,14.47,14.458,14.47
				c7.996,0,14.477-6.486,14.477-14.47c0-2.106-0.473-4.094-1.286-5.902L359.493,304.127z"/>
		</g>
	</g>
</g>
</svg>