<svg width="17" height="14" viewBox="0 0 17 14" fill="none" xmlns="http://www.w3.org/2000/svg">
<g id="Group">
<path id="Vector" d="M14.0288 1.86299C13.0031 1.39507 11.9033 1.05033 10.7533 0.852879C10.7324 0.849068 10.7114 0.858592 10.7007 0.877638C10.5592 1.12778 10.4025 1.45411 10.2928 1.71061C9.05595 1.5265 7.82543 1.5265 6.61394 1.71061C6.50419 1.44841 6.34182 1.12778 6.19974 0.877638C6.18895 0.859227 6.16803 0.849704 6.14709 0.852879C4.99776 1.0497 3.89791 1.39444 2.87163 1.86299C2.86274 1.8668 2.85513 1.87316 2.85007 1.8814C0.763888 4.98031 0.192394 8.00305 0.47275 10.9883C0.474019 11.0029 0.482264 11.0169 0.493682 11.0258C1.87009 12.0308 3.20337 12.6409 4.5119 13.0453C4.53284 13.0517 4.55503 13.0441 4.56835 13.0269C4.87789 12.6067 5.15381 12.1635 5.39038 11.6975C5.40434 11.6702 5.39102 11.6378 5.36248 11.627C4.92483 11.4619 4.50809 11.2607 4.10722 11.0321C4.07551 11.0137 4.07297 10.9686 4.10214 10.947C4.1865 10.8842 4.27088 10.8188 4.35143 10.7528C4.366 10.7407 4.38631 10.7381 4.40345 10.7458C7.037 11.9413 9.88813 11.9413 12.4906 10.7458C12.5077 10.7375 12.528 10.7401 12.5433 10.7521C12.6238 10.8181 12.7082 10.8842 12.7932 10.947C12.8223 10.9686 12.8204 11.0137 12.7887 11.0321C12.3879 11.2651 11.9711 11.4619 11.5328 11.6264C11.5043 11.6372 11.4916 11.6702 11.5056 11.6975C11.7472 12.1628 12.0231 12.606 12.327 13.0263C12.3397 13.0441 12.3625 13.0517 12.3834 13.0453C13.6983 12.6409 15.0316 12.0308 16.408 11.0258C16.42 11.0169 16.4276 11.0035 16.4289 10.9889C16.7644 7.53765 15.8669 4.5397 14.0497 1.88204C14.0452 1.87316 14.0377 1.8668 14.0288 1.86299ZM5.78366 9.1706C4.99078 9.1706 4.33747 8.44684 4.33747 7.55798C4.33747 6.66912 4.97811 5.94536 5.78366 5.94536C6.59553 5.94536 7.24252 6.67548 7.22983 7.55798C7.22983 8.44684 6.58919 9.1706 5.78366 9.1706ZM11.1307 9.1706C10.3378 9.1706 9.68453 8.44684 9.68453 7.55798C9.68453 6.66912 10.3251 5.94536 11.1307 5.94536C11.9426 5.94536 12.5896 6.67548 12.5769 7.55798C12.5769 8.44684 11.9426 9.1706 11.1307 9.1706Z" fill="#828FBB"/>
</g>
</svg>
