<svg width="16" height="16" viewBox="0 0 16 16" fill="none" xmlns="http://www.w3.org/2000/svg">
<g id="dragon-face-svgrepo-com">
<path id="Vector" d="M2.09222 3.74619C3.01847 2.51494 4.43222 3.24619 4.82597 3.52369C5.22472 3.80494 6.12847 4.16869 6.60972 4.02869C7.09097 3.88744 7.31472 3.15869 7.00972 2.93619C6.62472 2.65494 6.32722 2.94119 6.33972 3.19619C6.34472 3.30119 6.42222 3.52494 6.24597 3.57119C6.15472 3.59494 6.04597 3.47744 6.01097 3.32494C5.97597 3.17244 5.97847 2.97494 6.12847 2.72619C6.44222 2.20619 7.44347 2.33369 7.59972 3.05869C7.74972 3.76119 7.28847 4.24744 6.83222 4.41494C6.15972 4.66244 5.21972 4.37494 4.77972 4.03994C4.22347 3.61619 3.16097 3.35619 2.58597 4.02869C1.75347 5.00244 3.43097 6.86744 3.43097 6.86744L2.77347 7.38369C2.77347 7.38369 2.58597 7.01994 2.19847 6.19869C1.83347 5.42619 1.54722 4.46994 2.09222 3.74619Z" fill="#78DE89"/>
<path id="Vector_2" d="M4.75157 8.14624L3.22657 8.35749C3.22657 8.35749 3.32032 8.66249 3.35532 8.88499C3.39032 9.10749 3.42782 9.58374 3.27282 9.68249C2.97907 9.86999 2.65157 9.43624 1.79407 9.54124C1.32157 9.59999 0.632821 9.85749 0.574071 10.4912C0.511571 11.1725 1.24157 10.4112 1.79407 10.3625C2.19282 10.3275 2.32157 10.785 2.32157 10.785C2.32157 10.785 3.30657 11.6175 3.36532 11.5012C3.42407 11.3837 6.18032 9.28374 6.18032 9.28374L4.75157 8.14624Z" fill="#D43330"/>
<path id="Vector_3" d="M2.84638 8.42738C2.84638 8.42738 2.77638 9.13113 2.99888 9.18988C3.22138 9.24863 3.35138 8.83738 3.35138 8.83738C3.35138 8.83738 3.55138 8.80238 3.92638 8.80238C4.15013 8.80238 4.46638 8.88488 4.46638 8.88488C4.46638 8.88488 4.39138 9.18863 4.59513 9.29488C4.84138 9.42363 5.33388 8.49738 5.33388 8.49738L3.57388 8.19238L2.84638 8.42738Z" fill="#FFFAFE"/>
<path id="Vector_4" d="M2.42188 11.0201C2.42188 11.0201 2.53937 10.4926 2.57437 10.3751C2.60937 10.2576 2.67937 10.0001 2.79688 9.97636C2.91438 9.95261 3.07812 10.1764 3.07812 10.1764C3.07812 10.1764 3.51187 9.86011 3.61812 9.80136C3.72438 9.74261 4.04062 9.61386 4.04062 9.61386C4.04062 9.61386 4.02938 9.31261 4.20438 9.28511C4.50938 9.23761 4.59187 9.84761 4.59187 9.84761L3.25437 11.2439L2.42188 11.0201Z" fill="#FFFAFE"/>
<path id="Vector_5" d="M2.875 12.0463C2.875 12.0463 2.99875 12.6625 4.00125 13.26C5.00375 13.8575 5.62 13.9638 5.99 13.9988C6.36 14.0338 6.72875 14.0338 6.72875 13.8575C6.72875 13.73 6.465 13.5763 6.13 13.505C5.79625 13.435 5.655 13.3463 5.7425 13.2063C5.90125 12.9538 6.71 13.47 7.37875 13.5763C8.0475 13.6813 9.385 14.0163 9.5075 13.4888C9.63 12.9613 8.6275 13.33 8.575 12.9613C8.5225 12.5913 9.56 12.6275 10.2113 12.8375C10.8625 13.0488 11.425 13.63 11.6713 13.665C11.9175 13.7 12.0963 13.5075 12.0238 13.225C11.9412 12.9088 11.7425 12.6263 11.39 12.3975C11.0375 12.1688 9.40125 11.5 9.40125 11.5L5.81375 11.2375L4.49375 11.2725L2.875 12.0463Z" fill="#BCCE46"/>
<path id="Vector_6" d="M4.02235 6.44998C4.02235 6.44998 3.8636 5.37623 4.39235 4.93623C4.9211 4.49623 5.4661 4.61998 5.79985 4.63748C6.1336 4.65498 6.9786 4.93623 8.15735 4.83123C9.40985 4.71873 10.4973 4.17998 11.5886 4.03873C12.6798 3.89748 13.5598 4.16248 13.5248 4.54873C13.4898 4.93623 11.8886 4.75998 12.0111 5.16498C12.1348 5.56998 14.3161 4.84873 14.4748 5.49873C14.6411 6.18248 13.3423 5.74623 13.3661 6.13248C13.4011 6.71373 15.2136 5.92123 15.4423 6.60748C15.7061 7.39998 13.5061 7.48748 13.7886 7.96248C14.0698 8.43748 15.3373 7.82123 15.4248 8.33248C15.5011 8.77498 15.1373 9.05998 14.6148 9.19498C14.2536 9.28873 13.0561 9.33373 13.0661 9.65248C13.0836 10.1975 14.0511 9.70498 14.2798 9.98623C14.5086 10.2675 13.9098 10.8487 12.8723 10.9012C12.1673 10.9375 11.5873 10.6725 11.5698 10.9362C11.5523 11.2 12.2498 11.2287 12.5198 11.3587C12.9598 11.57 13.1186 11.7812 12.9248 12.1325C12.7311 12.485 12.3098 12.0487 12.0098 12.0275C11.5348 11.9925 10.9711 12.1687 10.5136 12.1687C10.0561 12.1687 9.1936 11.905 9.1936 11.905C9.1936 11.905 9.35235 12.0812 9.1936 12.2212C9.03485 12.3612 8.61235 12.345 8.08485 12.0625C7.55735 11.7812 7.16985 11.6925 7.0111 11.6925C6.85235 11.6925 6.0636 11.7087 5.9261 11.6162C4.83485 10.8775 6.41235 7.04623 6.41235 7.04623L4.02235 6.44998Z" fill="url(#paint0_linear_1685_2090)"/>
<path id="Vector_7" d="M6.86937 5.82238C6.86937 5.82238 8.00687 5.38863 8.58187 4.67238C8.94937 4.21488 9.19187 3.25238 9.81312 3.53488C10.5881 3.88613 9.17312 5.00613 9.33187 5.04863C9.55437 5.10738 10.2119 4.53238 10.6219 4.08613C11.0319 3.63988 11.5344 3.44488 11.8069 3.78113C12.1119 4.15613 11.6069 4.78988 10.8681 5.25988C10.1294 5.72863 9.44438 5.97988 8.99063 6.05738C8.50938 6.13988 7.59438 6.15113 7.59438 6.15113L6.70312 6.12738L6.86937 5.82238Z" fill="#FEB30B"/>
<path id="Vector_8" d="M8.44171 7.96374C8.44171 7.96374 8.90796 8.20124 9.51546 7.69999C9.89296 7.38874 10.3517 7.12749 10.9942 6.96124C11.6717 6.78499 11.9355 6.88249 12.2705 6.77624C12.6042 6.67124 13.008 6.54749 13.2292 6.48624C13.5455 6.39874 13.848 6.84499 13.3167 7.13749C12.9642 7.33124 12.5155 7.44499 12.208 7.48124C12.0317 7.50124 11.5467 7.62499 11.3755 7.68999C11.023 7.82249 10.678 8.14124 10.678 8.14124C10.678 8.14124 11.5592 7.80999 12.068 7.77124C12.6842 7.72374 13.3617 7.75374 13.5555 7.64749C13.7492 7.54249 14.303 7.26874 14.4967 7.61249C14.688 7.95124 14.163 8.37749 13.6167 8.50124C13.0705 8.62499 12.4467 8.55374 11.8655 8.66874C11.5092 8.73874 10.8542 9.00249 10.1492 9.44249C9.44546 9.88249 8.74171 10.0412 8.40671 10.005C8.07296 9.96999 7.45671 10.85 7.45671 10.85L5.41546 11.1137L3.99046 11.6062C3.99046 11.6062 3.51546 12.5212 2.58296 12.205C1.65046 11.8887 1.84421 10.7262 2.14296 10.6562C2.44171 10.5862 2.58296 10.955 2.86421 10.8675C3.14546 10.78 3.69046 10.01 4.18421 9.82874C4.64171 9.66124 5.21421 9.70499 5.21421 9.05499C5.21421 8.40499 3.81546 8.50999 3.49796 8.54499C3.18171 8.57999 1.98421 8.98499 1.31546 8.45749C0.646711 7.92999 0.467961 6.01749 1.35046 5.76499C2.08921 5.55374 2.75796 6.52124 3.47921 6.52124C4.06046 6.52124 4.20921 6.02874 4.80796 5.51874C5.24921 5.14249 5.74921 4.98249 6.10171 5.14874C6.39421 5.28749 5.45046 5.57124 5.62671 5.64124C5.62671 5.64124 6.26046 5.39499 6.75296 5.37749C7.24546 5.35999 7.34296 5.42499 7.40421 5.53624C7.49171 5.69499 6.92921 5.69499 7.07046 5.83499C7.21171 5.97624 7.80921 5.74749 8.19671 5.81749C8.58421 5.88749 8.58421 6.08124 8.49546 6.15124C8.40796 6.22124 7.80046 6.34499 7.79171 6.52124C7.78546 6.64374 8.17171 6.67249 8.36421 6.89124C8.55796 7.11124 8.52296 7.41874 8.50546 7.57749C8.48546 7.73499 8.44171 7.96374 8.44171 7.96374Z" fill="#01AB46"/>
<path id="Vector_9" d="M5.78403 6.50379C5.40653 6.54629 4.71903 5.95004 4.35028 6.83754C4.05153 7.55754 5.07528 8.08754 5.70528 7.60254C5.99278 7.38254 6.15403 7.10129 6.37403 6.88129C6.51903 6.73629 6.70778 6.63254 6.75278 6.49379C6.83028 6.24879 6.17903 6.46004 5.78403 6.50379Z" fill="#78DE8A"/>
<path id="Vector_10" d="M4 11.6862C4 11.6862 4.1325 10.9387 4.81 10.7012C5.4875 10.4637 6.71875 10.6662 6.9925 10.5775C7.265 10.49 7.64625 10.3437 7.7225 9.62745C7.78375 9.0462 7.59875 8.9937 7.56375 8.2462C7.5225 7.37495 8.09125 7.16245 8.285 7.17245C8.44375 7.1812 8.56625 7.28745 8.575 7.40995C8.5875 7.58745 8.5575 7.6912 8.5575 7.6912C8.5575 7.6912 8.87 7.7537 8.93625 8.2537C9.0325 8.99245 8.47875 9.3187 8.435 9.7137C8.39125 10.11 8.435 10.805 7.81 11.1562C7.185 11.5075 7.13 11.3112 6.675 11.4637C6.49625 11.5237 6.19125 11.7012 5.83875 11.6487C5.48625 11.5962 5.39 11.455 4.9325 11.455C4.57875 11.4575 4 11.6862 4 11.6862Z" fill="#78DE8A"/>
<path id="Vector_11" d="M5.32857 7.28005C5.17607 7.46505 4.87357 7.50755 4.68857 7.3888C4.49732 7.2663 4.51982 6.93505 4.69982 6.72005C4.88107 6.50505 5.17607 6.46755 5.35107 6.61505C5.52607 6.7613 5.50732 7.0638 5.32857 7.28005Z" fill="#2A2C33"/>
<path id="Vector_12" d="M1.49684 6.40365C1.36309 6.5524 1.49059 6.7324 1.53809 6.77365C1.58559 6.8149 1.70809 6.8974 1.68434 6.99615C1.66059 7.09615 1.50809 7.2949 1.61934 7.38865C1.73059 7.4824 2.01809 7.30615 2.05309 6.9724C2.08809 6.63865 1.94184 6.49115 1.86559 6.42115C1.79059 6.35115 1.60809 6.2799 1.49684 6.40365Z" fill="#44484A"/>
</g>
<defs>
<linearGradient id="paint0_linear_1685_2090" x1="16.4268" y1="6.54598" x2="7.88622" y2="8.70461" gradientUnits="userSpaceOnUse">
<stop offset="0.171" stop-color="#01AB46"/>
<stop offset="0.499" stop-color="#128A3C"/>
<stop offset="1" stop-color="#2F502A"/>
</linearGradient>
</defs>
</svg>
