<svg width="6" height="8" viewBox="0 0 6 8" fill="none" xmlns="http://www.w3.org/2000/svg">
<g filter="url(#filter0_b_1649_2859)">
<path d="M0.00266667 3.00015C0.00266667 2.45615 0.136 1.95482 0.402667 1.49615C0.669333 1.03748 1.03467 0.674818 1.49867 0.408151C1.96267 0.141484 2.464 0.00548428 3.00267 0.000150943C3.54133 -0.00518239 4.04267 0.130818 4.50667 0.408151C4.97067 0.685484 5.336 1.04815 5.60267 1.49615C5.86933 1.94415 6.00267 2.44548 6.00267 3.00015C6.00267 3.22948 5.94667 3.49615 5.83467 3.80015C5.72267 4.10415 5.58133 4.41082 5.41067 4.72015C5.24 5.02948 5.04533 5.34415 4.82667 5.66415C4.608 5.98415 4.39467 6.28282 4.18667 6.56015C3.97867 6.83748 3.784 7.08282 3.60267 7.29615C3.42133 7.50948 3.27733 7.68282 3.17067 7.81615L3.00267 8.00015C2.96 7.95748 2.904 7.89348 2.83467 7.80815C2.76533 7.72282 2.624 7.55482 2.41067 7.30415C2.19733 7.05348 2 6.80282 1.81867 6.55215C1.63733 6.30148 1.42667 6.00815 1.18667 5.67215C0.946667 5.33615 0.749333 5.01615 0.594667 4.71215C0.44 4.40815 0.298667 4.10682 0.170667 3.80815C0.0426667 3.50948 -0.0133333 3.24015 0.00266667 3.00015ZM1.00267 3.00015C1.00267 3.55482 1.19733 4.02682 1.58667 4.41615C1.976 4.80548 2.448 5.00015 3.00267 5.00015C3.55733 5.00015 4.02933 4.80548 4.41867 4.41615C4.808 4.02682 5.00267 3.55482 5.00267 3.00015C5.00267 2.44548 4.808 1.97615 4.41867 1.59215C4.02933 1.20815 3.55733 1.01082 3.00267 1.00015C2.448 0.989484 1.976 1.18682 1.58667 1.59215C1.19733 1.99748 1.00267 2.46682 1.00267 3.00015Z" fill="#080B2A"/>
</g>
<defs>
<filter id="filter0_b_1649_2859" x="-4" y="-4" width="14" height="16.0002" filterUnits="userSpaceOnUse" color-interpolation-filters="sRGB">
<feFlood flood-opacity="0" result="BackgroundImageFix"/>
<feGaussianBlur in="BackgroundImageFix" stdDeviation="2"/>
<feComposite in2="SourceAlpha" operator="in" result="effect1_backgroundBlur_1649_2859"/>
<feBlend mode="normal" in="SourceGraphic" in2="effect1_backgroundBlur_1649_2859" result="shape"/>
</filter>
</defs>
</svg>
