<svg width="12" height="16" viewBox="0 0 12 16" fill="none" xmlns="http://www.w3.org/2000/svg">
<g id="Vector" filter="url(#filter0_b_1649_2859)">
<path d="M0.00533323 6.00019C0.00533323 4.91221 0.271995 3.90956 0.805318 2.99225C1.33864 2.07493 2.06929 1.34961 2.99728 0.816287C3.92526 0.282963 4.92791 0.0109683 6.00522 0.000301881C7.08253 -0.0103646 8.08518 0.26163 9.01316 0.816287C9.94115 1.37094 10.6718 2.09626 11.2051 2.99225C11.7384 3.88823 12.0051 4.89088 12.0051 6.00019C12.0051 6.45885 11.8931 6.99217 11.6691 7.60016C11.4451 8.20815 11.1625 8.82147 10.8211 9.44012C10.4798 10.0588 10.0905 10.6881 9.65315 11.3281C9.21583 11.9681 8.78917 12.5654 8.37318 13.1201C7.95718 13.6747 7.56786 14.1654 7.2052 14.592C6.84254 15.0187 6.55454 15.3653 6.34121 15.632L6.00522 16C5.91989 15.9147 5.80789 15.7867 5.66923 15.616C5.53056 15.4453 5.2479 15.1094 4.82124 14.608C4.39458 14.1067 3.99992 13.6054 3.63727 13.1041C3.27461 12.6027 2.85328 12.0161 2.37329 11.3441C1.8933 10.6721 1.49864 10.0321 1.18931 9.42412C0.879984 8.81614 0.597322 8.21348 0.341327 7.61616C0.0853317 7.01884 -0.0266662 6.48018 0.00533323 6.00019ZM2.0053 6.00019C2.0053 7.1095 2.39462 8.05348 3.17327 8.83214C3.95193 9.61079 4.89591 10.0001 6.00522 10.0001C7.11453 10.0001 8.05852 9.61079 8.83717 8.83214C9.61582 8.05348 10.0051 7.1095 10.0051 6.00019C10.0051 4.89088 9.61582 3.95223 8.83717 3.18424C8.05852 2.41626 7.11453 2.0216 6.00522 2.00026C4.89591 1.97893 3.95193 2.37359 3.17327 3.18424C2.39462 3.99489 2.0053 4.93354 2.0053 6.00019Z" fill="#D73534"/>
<path d="M0.105112 6.00684L0.105333 6.00686V6.00019C0.105333 4.9294 0.367553 3.94416 0.891769 3.04251C1.41621 2.14047 2.13417 1.42766 3.04711 0.902988C3.96012 0.378269 4.94593 0.110795 6.00621 0.100297C7.06505 0.0898134 8.04962 0.356874 8.96186 0.902123C9.87615 1.44859 10.5947 2.1622 11.1192 3.04339C11.6427 3.92291 11.9051 4.90769 11.9051 6.00019C11.9051 6.44327 11.7967 6.96446 11.5753 7.56559C11.3532 8.16844 11.0727 8.77718 10.7336 9.39182C10.3939 10.0074 10.0063 10.6341 9.57059 11.2717C9.134 11.9106 8.70819 12.5067 8.29318 13.0601C7.87813 13.6134 7.49008 14.1025 7.129 14.5273C6.7672 14.9529 6.47917 15.2996 6.26517 15.567L6.00356 15.8535C5.93296 15.7768 5.84748 15.6768 5.74684 15.5529C5.60734 15.3813 5.32393 15.0444 4.8974 14.5432C4.47233 14.0438 4.07931 13.5445 3.71829 13.0454C3.35578 12.5443 2.93457 11.9578 2.45466 11.286C1.97699 10.6172 1.58509 9.98151 1.27844 9.37878C0.970056 8.77265 0.688332 8.17198 0.433241 7.57677C0.181386 6.9891 0.074465 6.46654 0.105112 6.00684ZM1.9053 6.00019C1.9053 7.1358 2.305 8.10529 3.10256 8.90285C3.90012 9.70041 4.86961 10.1001 6.00522 10.1001C7.14083 10.1001 8.11032 9.70041 8.90788 8.90285C9.70544 8.10529 10.1051 7.1358 10.1051 6.00019C10.1051 4.86455 9.7054 3.90012 8.90739 3.11305C8.11021 2.32678 7.14165 1.9221 6.00714 1.90028C4.86954 1.87841 3.89884 2.2845 3.10115 3.11497C2.30568 3.94314 1.9053 4.90622 1.9053 6.00019Z" stroke="#590000" stroke-width="0.2"/>
</g>
<defs>
<filter id="filter0_b_1649_2859" x="-4" y="-4" width="20.0078" height="24" filterUnits="userSpaceOnUse" color-interpolation-filters="sRGB">
<feFlood flood-opacity="0" result="BackgroundImageFix"/>
<feGaussianBlur in="BackgroundImageFix" stdDeviation="2"/>
<feComposite in2="SourceAlpha" operator="in" result="effect1_backgroundBlur_1649_2859"/>
<feBlend mode="normal" in="SourceGraphic" in2="effect1_backgroundBlur_1649_2859" result="shape"/>
</filter>
</defs>
</svg>
