<?xml version="1.0" encoding="iso-8859-1"?>
<!-- Uploaded to: SVG Repo, www.svgrepo.com, Generator: SVG Repo Mixer Tools -->
<svg fill="#f6ca4a" height="800px" width="800px" version="1.1" id="Layer_1" xmlns="http://www.w3.org/2000/svg" xmlns:xlink="http://www.w3.org/1999/xlink" 
	 viewBox="0 0 512 512" xml:space="preserve">
<g>
	<g>
		<path d="M501.147,227.339c-9.342-34.313-24.652-66.75-45.043-95.815l31.774-31.774c5.242-5.242,5.242-13.742,0-18.985
			l-56.635-56.635c-5.243-5.241-13.741-5.241-18.985,0l-31.774,31.774c-29.252-20.524-61.916-35.9-96.479-45.227
			C233.736-2.892,180.421-3.541,129.818,8.806c-5.909,1.44-10.111,6.677-10.238,12.758c-0.129,6.082,3.85,11.491,9.693,13.178
			c62.217,17.983,122.508,50.694,176.773,95.597l-26.677,26.679c-5.188,5.188-5.234,13.564-0.15,18.819L3.937,451.116
			c-2.517,2.518-3.932,5.932-3.932,9.492c0,3.56,1.415,6.974,3.932,9.492l37.969,37.968c2.622,2.62,6.057,3.932,9.492,3.932
			s6.872-1.311,9.492-3.932l133.365-133.365c5.242-5.242,5.242-13.742,0-18.985c-5.242-5.241-13.742-5.241-18.985,0L51.399,479.59
			l-18.985-18.985l265.78-265.779l18.984,18.984l-85.428,85.43c-5.242,5.242-5.242,13.742,0,18.985
			c5.242,5.241,13.743,5.241,18.984,0l85.438-85.438c2.6,2.514,5.96,3.78,9.326,3.78c3.437,0,6.87-1.312,9.492-3.932l26.765-26.765
			c44.798,53.886,77.59,113.805,95.827,175.65c1.687,5.721,6.938,9.628,12.872,9.628c0.118,0,0.235-0.001,0.353-0.004
			c6.078-0.158,11.292-4.383,12.707-10.296C515.576,330.423,514.758,277.339,501.147,227.339z M421.75,52.605l37.651,37.651
			l-19.79,19.789c-0.259-0.307-0.526-0.607-0.785-0.913c-0.709-0.836-1.428-1.665-2.146-2.494c-0.811-0.934-1.623-1.865-2.445-2.791
			c-0.949-1.069-1.904-2.134-2.867-3.191c-0.47-0.514-0.944-1.026-1.416-1.537c-0.958-1.036-1.924-2.066-2.897-3.089
			c-0.424-0.446-0.846-0.893-1.273-1.336c-1.384-1.439-2.777-2.869-4.191-4.282c-1.42-1.42-2.858-2.822-4.304-4.212
			c-0.43-0.413-0.863-0.822-1.295-1.232c-1.039-0.987-2.083-1.968-3.136-2.94c-0.506-0.469-1.011-0.936-1.52-1.4
			c-1.039-0.948-2.086-1.886-3.137-2.819c-0.953-0.847-1.913-1.686-2.877-2.521c-0.823-0.713-1.644-1.427-2.475-2.13
			c-0.295-0.252-0.588-0.514-0.887-0.765L421.75,52.605z M345.496,204.161l-37.651-37.651l18.518-18.518
			c3.198,2.905,6.358,5.847,9.479,8.813c0.64,0.609,1.278,1.223,1.917,1.836c1.027,0.984,2.053,1.969,3.069,2.959
			c1.775,1.73,3.544,3.469,5.302,5.227c1.724,1.724,3.43,3.461,5.127,5.2c0.871,0.894,1.738,1.795,2.606,2.698
			c0.673,0.698,1.342,1.397,2.01,2.098c2.751,2.889,5.484,5.815,8.186,8.777L345.496,204.161z M484.921,322.688
			c-25.42-59.845-63.615-116.792-112.384-167.279c-0.283-0.293-0.565-0.585-0.848-0.877c-2.173-2.242-4.36-4.474-6.575-6.689
			c-2.326-2.326-4.672-4.621-7.026-6.901c-0.232-0.224-0.463-0.448-0.697-0.673C306.308,90.956,248.686,52.502,188.135,27.127
			c66.634-3.757,131.942,16.168,185.306,56.794c0.103,0.085,0.197,0.177,0.303,0.258c4.866,3.704,9.63,7.598,14.278,11.639
			c0.405,0.353,0.811,0.709,1.215,1.065c1.836,1.615,3.647,3.258,5.442,4.92c0.507,0.47,1.019,0.933,1.522,1.407
			c2.167,2.035,4.309,4.096,6.406,6.194c2.091,2.091,4.147,4.227,6.178,6.39c0.478,0.509,0.946,1.024,1.42,1.536
			c1.655,1.788,3.292,3.592,4.901,5.423c0.36,0.408,0.72,0.818,1.077,1.227c4.042,4.65,7.939,9.418,11.647,14.29
			c0.064,0.085,0.14,0.158,0.205,0.242C468.411,191.536,488.37,256.43,484.921,322.688z"/>
	</g>
</g>
<g>
	<g>
		<path d="M226.161,334.349c-0.174-0.858-0.43-1.705-0.765-2.51c-0.336-0.819-0.752-1.596-1.235-2.321
			c-0.483-0.74-1.047-1.424-1.665-2.042c-0.618-0.617-1.302-1.181-2.04-1.665c-0.725-0.482-1.503-0.899-2.322-1.235
			c-0.805-0.336-1.651-0.589-2.51-0.764c-1.732-0.35-3.517-0.35-5.249,0c-0.846,0.175-1.691,0.428-2.51,0.764
			c-0.805,0.336-1.584,0.753-2.309,1.235c-0.738,0.483-1.423,1.047-2.04,1.665c-0.631,0.618-1.181,1.302-1.678,2.042
			c-0.483,0.725-0.899,1.502-1.235,2.321c-0.336,0.805-0.591,1.651-0.765,2.51s-0.255,1.745-0.255,2.618
			c0,0.871,0.081,1.759,0.255,2.631c0.174,0.859,0.43,1.705,0.765,2.51c0.336,0.805,0.752,1.584,1.235,2.321
			c0.497,0.725,1.047,1.409,1.678,2.042c0.617,0.617,1.302,1.181,2.04,1.663c0.725,0.483,1.503,0.901,2.309,1.236
			c0.819,0.336,1.665,0.589,2.51,0.764c0.873,0.175,1.759,0.268,2.631,0.268s1.759-0.094,2.618-0.268
			c0.859-0.174,1.705-0.428,2.51-0.764c0.819-0.336,1.597-0.753,2.322-1.236c0.738-0.482,1.423-1.046,2.04-1.663
			c0.617-0.632,1.181-1.316,1.665-2.042c0.483-0.738,0.899-1.517,1.235-2.321c0.336-0.807,0.591-1.651,0.765-2.51
			c0.174-0.872,0.268-1.745,0.268-2.631C226.429,336.094,226.335,335.207,226.161,334.349z"/>
	</g>
</g>
</svg>