<svg width="16" height="16" viewBox="0 0 16 16" fill="none" xmlns="http://www.w3.org/2000/svg">
<g id="dollar-circle-list">
<path id="Icon" d="M4 5.33333H2.66667M4 10.6667H2.66667M4 8H2M4.66667 3.01037C5.62007 2.37218 6.76657 2 8 2C11.3137 2 14 4.68629 14 8C14 11.3137 11.3137 14 8 14C6.76657 14 5.62007 13.6278 4.66667 12.9896M9.33333 6.33327C9 6.2506 8.45672 6.24755 8 6.2506M8 6.2506C7.84727 6.25161 7.93961 6.24512 7.73334 6.2506C7.19505 6.26739 6.66777 6.4911 6.66667 7.12494C6.6655 7.80016 7.33333 7.99994 8 7.99994C8.66666 7.99994 9.33333 8.15407 9.33333 8.87494C9.33333 9.41667 8.795 9.65404 8.12407 9.73264C8.08103 9.73264 8.0398 9.73275 8 9.73292M8 6.2506L8 5.33333M8 9.73292C7.54653 9.73478 7.27954 9.74321 6.66667 9.6666M8 9.73292L8 10.6667" stroke="#EDEEFF" stroke-linecap="round" stroke-linejoin="round"/>
</g>
</svg>
