<svg width="18" height="18" viewBox="0 0 18 18" fill="none" xmlns="http://www.w3.org/2000/svg">
<g id="star-svgrepo-com 1" clip-path="url(#clip0_1685_1604)">
<g id="Vector" filter="url(#filter0_d_1685_1604)">
<path d="M8.87422 13.3946L4.37422 15.1173C4.1668 15.1946 3.94883 15.0364 3.95938 14.8149L4.20547 10.0021C4.20899 9.92822 4.18438 9.85439 4.13868 9.79463L1.10821 6.04697C0.967583 5.87471 1.05196 5.61807 1.26641 5.5583L5.9211 4.30674C5.99493 4.28564 6.05821 4.23994 6.09688 4.17666L8.72657 0.140723C8.8461 -0.0456055 9.12032 -0.0456055 9.23985 0.140723L11.8695 4.18018C11.9117 4.24346 11.975 4.28916 12.0453 4.31025L16.7 5.56182C16.9145 5.61807 16.9988 5.87822 16.8582 6.05049L13.8313 9.79815C13.7856 9.85791 13.7609 9.93174 13.7645 10.0056L14.0106 14.8185C14.0211 15.0399 13.8031 15.1981 13.5957 15.1208L9.09571 13.3981C9.02188 13.37 8.94454 13.37 8.87422 13.3946Z" fill="#F3C009"/>
</g>
<path id="Vector_2" d="M16.0337 1.81767L14.5923 0.376263C14.5501 0.334075 14.4939 0.316497 14.4376 0.323528C14.3814 0.330559 14.3286 0.365716 14.3005 0.414934L12.8134 3.34345C12.7712 3.41728 12.7853 3.50517 12.845 3.56493C12.8802 3.60009 12.9294 3.61767 12.9751 3.61767C13.0067 3.61767 13.0384 3.61064 13.0665 3.59306L15.9915 2.10947C16.0407 2.08134 16.0759 2.03212 16.0829 1.97236C16.0935 1.91611 16.0724 1.85986 16.0337 1.81767Z" fill="#F3C009"/>
<path id="Vector_3" d="M5.2433 3.34687L3.75619 0.418352C3.72807 0.369134 3.67885 0.333977 3.61908 0.326946C3.56283 0.319915 3.50307 0.337493 3.4644 0.379681L2.02299 1.82109C1.9808 1.86327 1.96323 1.91952 1.97026 1.97577C1.97729 2.03202 2.01244 2.08476 2.06166 2.11288L4.99018 3.59999C5.0183 3.61757 5.04994 3.6246 5.08158 3.6246C5.1308 3.6246 5.17651 3.60702 5.21166 3.57187C5.27143 3.50859 5.28198 3.41718 5.2433 3.34687Z" fill="#F3C009"/>
<path id="Vector_4" d="M10.1892 17.7608L9.1697 14.639C9.16267 14.6073 9.14509 14.5792 9.124 14.5581C9.08884 14.5229 9.04314 14.5054 8.99392 14.5054C8.90954 14.5054 8.83923 14.5616 8.81462 14.6425L7.79509 17.7644C7.78103 17.8206 7.79157 17.8804 7.82673 17.9261C7.86189 17.9718 7.91462 17.9999 7.97439 17.9999H10.0099C10.0662 17.9999 10.1224 17.9718 10.1576 17.9261C10.1963 17.8769 10.2068 17.8171 10.1892 17.7608Z" fill="#F3C009"/>
</g>
<defs>
<filter id="filter0_d_1685_1604" x="-1.96094" y="-2.99902" width="21.8906" height="21.1396" filterUnits="userSpaceOnUse" color-interpolation-filters="sRGB">
<feFlood flood-opacity="0" result="BackgroundImageFix"/>
<feColorMatrix in="SourceAlpha" type="matrix" values="0 0 0 0 0 0 0 0 0 0 0 0 0 0 0 0 0 0 127 0" result="hardAlpha"/>
<feOffset/>
<feGaussianBlur stdDeviation="1.5"/>
<feComposite in2="hardAlpha" operator="out"/>
<feColorMatrix type="matrix" values="0 0 0 0 0.952941 0 0 0 0 0.694118 0 0 0 0 0.0352941 0 0 0 1 0"/>
<feBlend mode="normal" in2="BackgroundImageFix" result="effect1_dropShadow_1685_1604"/>
<feBlend mode="normal" in="SourceGraphic" in2="effect1_dropShadow_1685_1604" result="shape"/>
</filter>
<clipPath id="clip0_1685_1604">
<rect width="18" height="18" fill="white"/>
</clipPath>
</defs>
</svg>
