<svg width="16" height="16" viewBox="0 0 16 16" fill="none" xmlns="http://www.w3.org/2000/svg">
<g id="scorpion-svgrepo-com 1">
<path id="Vector" d="M8.31807 11.7347C8.11052 12.8281 9.08474 14.0365 9.08474 14.0365C9.08474 14.0365 8.89629 12.6103 9.44296 11.8845C9.81941 11.3841 9.55274 10.8303 9.24252 10.7885C8.93141 10.7472 8.43496 11.1196 8.31807 11.7347Z" fill="#583529"/>
<path id="Vector_2" d="M6.9439 11.7688C5.82301 12.6062 4.75057 12.1071 4.21323 11.2888C3.67679 10.4702 3.11057 10.9377 3.6439 11.8239C4.17679 12.7093 5.7879 14.0262 7.7199 12.5284C9.18612 11.3933 7.29368 11.5079 6.9439 11.7688Z" fill="#583529"/>
<path id="Vector_3" d="M4.2833 11.6026C3.58596 12.5933 1.74152 12.3555 1.02863 10.7088C0.339741 9.11683 0.875741 7.66883 1.23441 7.22038C1.38063 7.03816 1.00685 9.35949 2.22863 9.99905C2.76419 10.2791 1.14196 8.48838 1.91974 6.82883C2.15307 6.33105 1.89796 8.51194 3.36996 9.13772C4.01219 9.41061 5.30596 10.1515 4.2833 11.6026ZM5.47219 9.7035C5.73619 9.36883 6.20152 9.01283 9.24952 9.01283C11.5273 9.01283 12.174 7.93861 12.9326 7.67061C15.5273 6.75461 14.6024 12.8937 10.2784 12.8937C5.95396 12.8942 5.11752 10.1524 5.47219 9.7035Z" fill="#7C533E"/>
<path id="Vector_4" d="M10.2973 8.92481C13.1364 8.44881 13.8671 5.07326 12.9244 3.33326C12.04 1.70037 9.82219 0.934593 7.96753 2.46304C8.03819 2.91993 8.19197 4.96304 6.48264 5.21104C7.02797 4.0937 5.35464 3.26704 5.86308 1.81859C6.37242 0.370148 7.75508 0.717704 7.87331 1.0937C9.27642 -0.0365184 11.0911 -0.147629 11.7986 0.555926C13.9084 0.574593 15.2271 1.99326 15.2262 3.03681C16.4431 4.2497 15.836 7.24704 15.3266 7.5777C15.5542 9.37059 15.0329 11.0244 13.0546 11.5968C12.7129 11.6959 7.75864 9.35059 10.2973 8.92481Z" fill="#7C533E"/>
<path id="Vector_5" d="M8.00593 11.3537C7.53482 12.1226 6.69571 12.4262 5.8846 12.3319C4.78193 12.2044 4.77793 13.0373 5.9366 13.2168C6.60237 13.3199 7.65571 13.2222 8.44104 12.5835C9.43971 11.7706 8.27704 10.9084 8.00593 11.3537Z" fill="#AF7E57"/>
<path id="Vector_6" d="M6.21015 12.499C6.56482 13.8252 5.01771 15.2586 3.0666 14.6817C1.18038 14.1239 0.309709 12.6061 0.180821 11.9679C0.128821 11.7088 1.87682 13.7204 3.32082 13.1221C3.95326 12.8599 1.21638 12.9688 0.337265 11.0866C0.0737095 10.5226 1.78571 12.3288 3.39993 11.5035C4.10526 11.1426 5.68927 10.555 6.21015 12.499Z" fill="#AF7E57"/>
<path id="Vector_7" d="M7.58646 10.1001C7.58646 10.1745 7.5718 10.2482 7.54332 10.317C7.51485 10.3857 7.47311 10.4482 7.42049 10.5008C7.36787 10.5534 7.3054 10.5952 7.23665 10.6236C7.16789 10.6521 7.09421 10.6668 7.01979 10.6668C6.94538 10.6668 6.87169 10.6521 6.80294 10.6236C6.73419 10.5952 6.67172 10.5534 6.6191 10.5008C6.56648 10.4482 6.52474 10.3857 6.49626 10.317C6.46778 10.2482 6.45312 10.1745 6.45313 10.1001C6.45313 9.94982 6.51283 9.80569 6.6191 9.69942C6.72537 9.59315 6.8695 9.53345 7.01979 9.53345C7.17008 9.53345 7.31421 9.59315 7.42049 9.69942C7.52676 9.80569 7.58646 9.94982 7.58646 10.1001Z" fill="#292F33"/>
<path id="Vector_8" d="M13.6665 11.3657C14.3012 12.2804 13.9021 13.7804 13.9021 13.7804C13.9021 13.7804 13.4945 12.4009 12.6999 11.96C12.1528 11.6555 12.171 11.0413 12.4376 10.8769C12.7052 10.7129 13.3096 10.8511 13.6665 11.3657ZM12.4016 12.0675C12.8963 13.0644 12.2839 14.4906 12.2839 14.4906C12.2839 14.4906 12.0808 13.0666 11.359 12.5151C10.8616 12.1346 10.9688 11.5293 11.2568 11.4057C11.5448 11.2817 12.1234 11.5066 12.4016 12.0675ZM10.9425 12.5497C11.1505 13.6431 10.1759 14.8515 10.1759 14.8515C10.1759 14.8515 10.3643 13.4253 9.81764 12.6995C9.44075 12.1991 9.70786 11.6453 10.0181 11.6035C10.3296 11.5622 10.8265 11.9346 10.9425 12.5497Z" fill="#AF7E57"/>
<path id="Vector_9" d="M13.109 6.36662C13.0072 6.36085 12.5979 7.11329 12.6281 7.26573C12.7286 7.76885 14.7854 7.83329 15.3259 7.57773C15.729 7.38751 15.9406 6.4444 15.8863 6.00929C14.9868 6.45373 13.3357 6.37951 13.109 6.36662ZM14.6943 1.79462C14.6019 2.25685 13.3934 3.06929 12.8534 3.18973C12.7699 3.2084 13.025 3.85418 13.1668 3.93862C13.309 4.02307 15.1472 3.48529 15.225 3.03596C15.2686 2.78485 15.1228 2.04173 14.6943 1.79462ZM11.7979 0.555513C11.7974 0.455068 11.449 0.103068 10.8654 0.142179C11.0534 0.798624 10.6854 1.43018 10.5037 1.65907C10.4432 1.73507 11.1477 1.88485 11.2534 1.84973C11.4432 1.78662 11.7992 1.06485 11.7979 0.555513Z" fill="#583529"/>
<path id="Vector_10" d="M7.95706 1.09254C7.71618 0.604981 6.88284 0.45387 6.27173 1.06498C5.66062 1.67609 5.54018 2.47254 5.91973 3.26854C6.29929 4.06498 6.74373 4.57431 6.39173 5.26854C7.29929 5.14809 7.84907 4.2912 8.00284 3.86098C8.28106 3.08365 8.33662 1.86143 7.95706 1.09254Z" fill="#292F33"/>
</g>
</svg>
