<svg width="17" height="17" viewBox="0 0 17 17" fill="none" xmlns="http://www.w3.org/2000/svg">
<g id="Telegram - Negative" clip-path="url(#clip0_1438_1122)">
<path id="Subtract" fill-rule="evenodd" clip-rule="evenodd" d="M16.2031 8.09253C16.2031 12.5108 12.6214 16.0925 8.20312 16.0925C3.78485 16.0925 0.203125 12.5108 0.203125 8.09253C0.203125 3.67425 3.78485 0.0925293 8.20312 0.0925293C12.6214 0.0925293 16.2031 3.67425 16.2031 8.09253ZM8.48981 5.99848C7.71169 6.32213 6.15655 6.99199 3.82439 8.00808C3.44568 8.15868 3.2473 8.30601 3.22924 8.45007C3.19872 8.69353 3.5036 8.7894 3.91877 8.91994C3.97525 8.9377 4.03376 8.9561 4.09375 8.9756C4.50222 9.10838 5.05168 9.26371 5.33732 9.26988C5.59642 9.27548 5.88561 9.16866 6.20489 8.94942C8.3839 7.47853 9.50871 6.73507 9.57933 6.71904C9.62915 6.70773 9.69819 6.69352 9.74497 6.73509C9.79175 6.77667 9.78715 6.85541 9.78219 6.87653C9.75199 7.00529 8.55519 8.11794 7.93586 8.69373C7.74279 8.87322 7.60584 9.00054 7.57784 9.02962C7.51513 9.09476 7.45121 9.15638 7.38978 9.2156C7.0103 9.58142 6.72573 9.85574 7.40553 10.3037C7.73222 10.519 7.99363 10.697 8.25443 10.8746C8.53924 11.0686 8.82332 11.262 9.19087 11.503C9.28451 11.5644 9.37394 11.6281 9.46105 11.6902C9.79251 11.9265 10.0903 12.1388 10.4582 12.105C10.672 12.0853 10.8928 11.8843 11.0049 11.2848C11.2699 9.86796 11.7909 6.79817 11.9113 5.53318C11.9218 5.42235 11.9085 5.28051 11.8979 5.21825C11.8872 5.15598 11.865 5.06727 11.784 5.0016C11.6882 4.92382 11.5402 4.90742 11.474 4.90859C11.1731 4.91389 10.7115 5.07441 8.48981 5.99848Z" fill="#828FBB"/>
</g>
<defs>
<clipPath id="clip0_1438_1122">
<rect width="16" height="16" fill="white" transform="translate(0.203125 0.0925293)"/>
</clipPath>
</defs>
</svg>
