<svg width="17" height="17" viewBox="0 0 17 17" fill="none" xmlns="http://www.w3.org/2000/svg">
<g id="website-ui-web-svgrepo-com 1" clip-path="url(#clip0_1444_1319)">
<path id="Vector" d="M8.70312 0.0925293C4.28484 0.0925293 0.703125 3.67425 0.703125 8.09253C0.703125 12.5108 4.28484 16.0925 8.70312 16.0925C13.1214 16.0925 16.7031 12.5108 16.7031 8.09253C16.7031 3.67425 13.1214 0.0925293 8.70312 0.0925293ZM13.7742 4.65503H12.3159C12.1482 3.9515 11.9307 3.30462 11.6725 2.73272C12.1658 3.00697 12.6241 3.35137 13.0342 3.7615C13.3113 4.03869 13.5583 4.33797 13.7742 4.65503ZM14.8281 8.09253C14.8281 8.62715 14.7597 9.15119 14.6277 9.65503H12.6266C12.6767 9.14965 12.7031 8.62731 12.7031 8.09253C12.7031 7.55775 12.6767 7.0354 12.6266 6.53003H14.6277C14.7597 7.03387 14.8281 7.5579 14.8281 8.09253ZM8.70312 14.2175C8.54062 14.2175 8.04538 13.8981 7.55175 12.9109C7.34728 12.5019 7.17181 12.0361 7.02825 11.53H10.378C10.2344 12.036 10.059 12.5019 9.85447 12.9109C9.36087 13.8981 8.86562 14.2175 8.70312 14.2175ZM6.66603 9.65503C6.60831 9.14731 6.57812 8.62287 6.57812 8.09253C6.57812 7.56219 6.60831 7.03775 6.66603 6.53003H10.7402C10.7979 7.03775 10.8281 7.56219 10.8281 8.09253C10.8281 8.62287 10.7979 9.14731 10.7402 9.65503H6.66603ZM2.57812 8.09253C2.57812 7.5579 2.64659 7.03387 2.77856 6.53003H4.77962C4.72959 7.0354 4.70312 7.55775 4.70312 8.09253C4.70312 8.62731 4.72959 9.14965 4.77962 9.65503H2.77856C2.64659 9.15119 2.57812 8.62715 2.57812 8.09253ZM8.70312 1.96753C8.86562 1.96753 9.36087 2.28694 9.8545 3.27419C10.059 3.68315 10.2344 4.149 10.378 4.65503H7.02825C7.17181 4.14903 7.34725 3.68315 7.55175 3.27419C8.04538 2.28694 8.54062 1.96753 8.70312 1.96753ZM5.73372 2.73272C5.47547 3.30462 5.25803 3.95147 5.09037 4.65503H3.63203C3.84794 4.33797 4.09491 4.03869 4.37209 3.7615C4.78222 3.35137 5.24041 3.00697 5.73372 2.73272ZM3.63203 11.53H5.09037C5.25803 12.2336 5.4755 12.8804 5.73372 13.4523C5.24041 13.1781 4.78219 12.8337 4.37209 12.4236C4.09491 12.1464 3.84791 11.8471 3.63203 11.53ZM11.6725 13.4523C11.9308 12.8804 12.1482 12.2336 12.3159 11.53H13.7742C13.5583 11.8471 13.3113 12.1464 13.0342 12.4236C12.624 12.8337 12.1658 13.1781 11.6725 13.4523Z" fill="#828FBB"/>
</g>
<defs>
<clipPath id="clip0_1444_1319">
<rect width="16" height="16" fill="white" transform="translate(0.703125 0.0925293)"/>
</clipPath>
</defs>
</svg>
