<svg width="16" height="16" viewBox="0 0 16 16" fill="none" xmlns="http://www.w3.org/2000/svg">
<g id="wolf-svgrepo-com (2)" clip-path="url(#clip0_1701_683)">
<path id="Vector" d="M6.60678 4.22096C6.81789 5.25473 6.52589 6.10362 5.30856 6.28229C4.09034 6.4614 2.33078 8.01473 1.37611 5.48318C0.82278 4.01696 0.488558 0.992957 1.17122 0.892957C1.85434 0.792513 6.39611 3.18718 6.60678 4.22096Z" fill="#66757F"/>
<path id="Vector_2" d="M5.6829 4.3783C6.06735 4.99697 4.7029 6.08186 3.97446 6.40852C3.24601 6.73563 2.6789 6.11519 2.11979 4.5863C1.87535 3.9183 1.57135 2.12763 1.83801 2.00763C2.10423 1.88852 5.29801 3.75963 5.6829 4.3783Z" fill="#CCD6DD"/>
<path id="Vector_3" d="M9.4982 4.22089C9.29464 5.25466 9.57642 6.10355 10.7506 6.28222C11.9258 6.46133 13.6235 8.01466 14.5444 5.48311C15.0782 4.01644 15.4009 0.992887 14.7422 0.892442C14.0831 0.792443 9.70131 3.18711 9.4982 4.22089Z" fill="#66757F"/>
<path id="Vector_4" d="M10.385 4.3783C10.0139 4.99697 11.3303 6.08186 12.033 6.40852C12.7357 6.73563 13.2828 6.11519 13.8223 4.5863C14.0583 3.9183 14.3512 2.12763 14.0939 2.00763C13.8374 1.88852 10.7565 3.75963 10.385 4.3783Z" fill="#CCD6DD"/>
<path id="Vector_5" d="M14.3775 11.961C14.3775 11.7592 14.2939 11.4761 14.1966 11.2112C14.4566 11.2236 14.8717 11.2961 15.4277 11.5743C15.4245 11.3624 15.3834 11.1527 15.3064 10.9552C15.3246 10.9641 15.3397 10.9703 15.3579 10.9796C14.8673 9.50853 13.8873 8.52764 13.8873 8.52764H14.8677C13.8317 6.45519 12.661 4.96542 11.2788 4.27919C10.661 3.89119 9.63971 3.68453 8.00193 3.68408H8.0006C6.35793 3.68408 5.33571 3.89208 4.71838 4.2823C3.33882 4.96986 2.16993 6.4583 1.13571 8.52764H2.1166C2.1166 8.52764 1.13571 9.50808 0.645043 10.9796L0.682376 10.9623C0.586996 11.1516 0.543736 11.3628 0.557043 11.5743C1.11838 11.2934 1.54238 11.2223 1.80726 11.2107C1.72326 11.4387 1.65482 11.6747 1.63571 11.8663C1.57276 12.0586 1.55229 12.2622 1.57571 12.4632C3.00104 11.8152 3.66771 11.9076 4.44549 12.2965C4.9846 13.9067 6.31482 15.1112 8.00149 15.1112C9.68726 15.1112 10.9997 13.8694 11.5384 12.2596C12.1864 11.7041 13.1864 11.8707 14.3899 12.4445C14.4161 12.2831 14.4106 12.1181 14.3739 11.9587L14.3775 11.961Z" fill="#66757F"/>
<path id="Vector_6" d="M15.354 10.9796C15.1597 10.3961 13.7251 9.60139 12.2548 8.97383C12.3704 8.67872 12.4415 8.35117 12.4415 8.00005C12.4415 6.77294 11.6455 5.77783 10.6637 5.77783C9.68196 5.77783 8.88596 6.77294 8.88596 8.00005C8.88596 9.33339 10.6637 12.4445 7.99662 12.9414C5.71885 12.5169 6.68374 10.1854 7.01351 8.68361C7.04551 8.56094 7.06907 8.43516 7.08373 8.3045C7.09885 8.19561 7.10818 8.09294 7.10818 8.00005C7.10818 6.77294 6.31218 5.77783 5.3304 5.77783C4.34862 5.77783 3.55262 6.77294 3.55262 8.00005C3.55262 8.35117 3.62374 8.67872 3.73974 8.97383C2.26951 9.60139 0.835292 10.3961 0.640625 10.9796C1.62151 10.4889 2.11218 10.4889 2.11218 10.4889C2.11218 10.4889 1.62151 11.4703 1.62151 11.9609C2.80818 11.1698 3.9944 11.0178 4.92329 11.7601C5.4624 13.3703 6.21929 14.6667 7.99751 13.3885C9.77485 14.6667 10.5308 13.3707 11.0695 11.7609C11.9993 11.0174 13.1864 11.1698 14.3735 11.9609C14.3735 11.4703 13.8833 10.4889 13.8833 10.4889C13.8833 10.4889 14.3735 10.4894 15.354 10.9796Z" fill="#CCD6DD"/>
<path id="Vector_7" d="M4.89062 7.55558C4.89062 7.55558 4.89062 6.88892 5.55729 6.88892C6.22396 6.88892 6.22396 7.55558 6.22396 7.55558V8.22225C6.22396 8.22225 6.22396 8.88892 5.55729 8.88892C4.89062 8.88892 4.89062 8.22225 4.89062 8.22225V7.55558ZM9.77951 7.55558C9.77951 7.55558 9.77951 6.88892 10.4462 6.88892C11.1128 6.88892 11.1128 7.55558 11.1128 7.55558V8.22225C11.1128 8.22225 11.1128 8.88892 10.4462 8.88892C9.77951 8.88892 9.77951 8.22225 9.77951 8.22225V7.55558ZM6.64129 11.6249C6.18751 11.7174 7.5484 13.3885 8.00218 13.3885C8.45551 13.3885 9.8164 11.7174 9.36307 11.6249C8.90974 11.5325 7.09507 11.5325 6.64129 11.6249Z" fill="#292F33"/>
</g>
<defs>
<clipPath id="clip0_1701_683">
<rect width="16" height="16" fill="white"/>
</clipPath>
</defs>
</svg>
