<svg width="200" height="200" viewBox="0 0 200 200" fill="none" xmlns="http://www.w3.org/2000/svg">
<path d="M100 200C155.228 200 200 155.228 200 100C200 44.7715 155.228 0 100 0C44.7715 0 0 44.7715 0 100C0 155.228 44.7715 200 100 200Z" fill="black"/>
<path d="M99.3019 188.77C48.5928 188.619 9.93632 146.815 10.1808 99.1287C10.4298 50.3179 51.6604 10.6967 100.956 11.2347C149.144 11.7548 190.077 51.1315 189.815 100.316C189.561 148.909 148.988 188.757 99.3019 188.77ZM31.872 148.131C37.2248 138.581 42.3331 129.476 47.4369 120.371C51.7805 112.617 56.1374 104.868 60.4543 97.0969C61.4457 95.3142 62.2771 94.7762 63.7842 96.7279C66.7496 100.569 69.8616 104.299 72.9826 108.02C74.1519 109.416 74.2319 110.612 73.2671 112.208C69.9906 117.614 66.9229 123.145 63.6508 128.556C60.143 134.349 57.1866 140.493 52.8964 145.783C49.8376 149.553 46.5833 153.163 43.449 156.871C42.8399 157.591 41.6751 158.187 42.2308 159.387C42.7821 160.579 43.8847 161.006 45.1873 160.992C47.5702 160.975 49.9532 160.992 52.3362 161.028C53.0386 161.037 53.9145 160.779 54.3235 161.575C54.7547 162.411 53.9233 162.886 53.5188 163.451C51.0247 166.919 51.0202 166.914 54.5146 169.346C54.9681 169.662 55.4127 169.982 55.884 170.266C70.9642 179.394 87.2226 183.688 104.913 182.55C119.708 181.599 133.29 177.197 145.61 168.968C149.251 166.536 149.002 166.616 146.712 163.611C145.281 161.73 145.632 161.126 147.997 161.041C150.287 160.961 152.581 161.023 154.87 160.966C156.195 160.935 157.089 160.085 157.676 159.014C158.178 158.094 157.378 157.494 156.826 156.902C149.077 148.544 142.217 139.559 136.776 129.489C133.597 123.607 130.04 117.93 126.595 112.195C125.675 110.661 125.635 109.443 126.884 108.007C130.125 104.273 133.255 100.436 136.371 96.599C137.567 95.1319 138.43 95.0118 139.394 96.8168C141.035 99.8845 142.782 102.899 144.494 105.926C151.616 118.53 158.76 131.121 165.851 143.743C168.137 147.815 167.563 148.984 170.804 143.987C189.721 114.796 187.734 75.099 165.554 48.3795C146.245 25.119 121.18 14.9025 91.0549 17.6456C69.9772 19.5661 52.0828 28.5023 38.0028 44.196C17.6009 66.9453 11.5324 93.358 19.6104 122.914C22.069 131.934 26.3459 140.075 31.872 148.131Z" fill="white"/>
<path d="M68.3989 78.4244C72.4312 78.4244 76.4636 78.4955 80.4915 78.3933C82.3098 78.3488 83.5413 78.9357 84.6706 80.4028C93.7579 92.2465 102.916 104.032 112.057 115.836C112.675 116.632 113.359 117.379 113.937 118.197C114.693 119.264 115.547 119.775 116.632 118.726C117.89 117.508 118.57 118.192 119.477 119.246C126.715 127.631 134.015 135.958 141.284 144.316C144.827 148.393 148.348 152.492 151.86 156.595C152.252 157.049 152.972 157.476 152.581 158.214C152.287 158.765 151.611 158.587 151.078 158.627C144.218 159.143 137.345 158.769 130.48 158.867C129.16 158.885 128.329 158.107 127.546 157.12C116.129 142.684 104.112 128.724 93.4022 113.733C92.8731 112.991 92.2863 112.275 91.6594 111.613C89.7522 109.59 87.1025 109.447 85.5153 111.675C83.897 113.947 82.9901 113.409 81.4918 111.626C75.3655 104.339 69.1413 97.128 62.9127 89.9258C60.2763 86.8804 57.5333 83.9328 54.848 80.9274C54.3278 80.345 53.2964 79.8693 53.7676 78.9312C54.2033 78.0687 55.2525 78.4511 56.0306 78.4466C60.1518 78.4111 64.2731 78.4288 68.3989 78.4288C68.3989 78.4333 68.3989 78.4288 68.3989 78.4244Z" fill="white"/>
<path d="M127.475 74.4053C127.644 75.1566 127.373 75.5123 126.884 75.6324C126.355 75.7613 125.786 75.9035 125.261 75.8369C120.651 75.2322 116.85 76.277 114.271 80.5672C113.129 82.47 112.057 81.6653 111.097 80.0382C107.922 74.681 104.584 69.426 101.423 64.0643C100.191 61.9703 99.4843 62.486 98.5017 64.2066C95.8209 68.8969 93.0689 73.5473 90.3214 78.1976C88.8454 80.6917 88.383 80.7851 86.707 78.5266C85.2665 76.5838 83.586 75.6323 81.123 75.8457C79.1224 76.0191 77.0951 75.908 75.0811 75.868C72.1291 75.8057 71.9024 75.4723 73.3028 72.9649C77.0995 66.1716 80.9541 59.414 84.7775 52.6341C89.1877 44.8183 93.5802 36.9981 97.9994 29.1868C98.484 28.3332 98.6574 26.9461 99.7155 26.8794C100.818 26.8127 101.107 28.1909 101.583 29.0267C108.185 40.5459 114.751 52.0828 121.331 63.6153C123.145 66.7941 124.986 69.9595 126.804 73.1338C127.075 73.6051 127.315 74.0985 127.475 74.4053Z" fill="white"/>
<path d="M60.5298 158.52C56.7775 158.52 53.0252 158.534 49.2774 158.507C48.6772 158.503 47.8992 158.707 47.5702 157.983C47.2412 157.258 47.8903 156.8 48.2949 156.346C52.7318 151.363 57.1332 146.343 61.6546 141.431C68.7146 133.757 75.8679 126.173 82.959 118.53C85.3864 115.916 89.6855 115.663 92.2108 118.299C94.8027 121.011 96.8878 124.15 98.9818 127.266C100.053 128.858 98.9462 129.854 98.0704 130.859C92.7754 136.918 87.436 142.938 82.1365 148.993C79.8469 151.607 77.6018 154.257 75.3655 156.911C74.3474 158.12 73.1159 158.614 71.5199 158.578C67.861 158.498 64.202 158.552 60.5431 158.552C60.5298 158.547 60.5298 158.534 60.5298 158.52Z" fill="white"/>
<path d="M115.151 112.764C113.08 112.848 111.497 111.884 110.63 110.154C109.016 106.931 106.784 104.139 104.699 101.258C103.557 99.6754 103.712 98.6173 104.908 97.2035C109.696 91.544 114.391 85.8044 119.113 80.0916C119.966 79.0557 120.944 78.4066 122.385 78.4066C129.8 78.4021 137.216 78.331 144.632 78.3088C145.245 78.3088 146.072 78.0731 146.419 78.7C146.868 79.5047 146.072 80.0338 145.61 80.5584C136.838 90.517 128.058 100.467 119.264 110.408C118.17 111.639 116.996 112.831 115.151 112.764Z" fill="white"/>
</svg>
