<svg width="23" height="18" viewBox="0 0 23 18" fill="none" xmlns="http://www.w3.org/2000/svg">
<path d="M19.4856 1.50898C17.972 0.794012 16.3783 0.287425 14.7395 0C14.5168 0.413174 14.3115 0.840719 14.1306 1.27545C12.3839 1.0024 10.6093 1.0024 8.8626 1.27545C8.68166 0.840719 8.47985 0.413174 8.25368 0C6.61483 0.287425 5.01774 0.797605 3.50415 1.51257C0.504807 6.1006 -0.3094 10.5737 0.0977035 14.982C1.85486 16.3222 3.82426 17.3425 5.91893 18C6.38866 17.3461 6.80621 16.6527 7.1646 15.9234C6.48261 15.6611 5.82846 15.3377 5.20215 14.9569C5.36569 14.8347 5.52922 14.7054 5.68232 14.5832C9.36713 16.3725 13.633 16.3725 17.3178 14.5832C17.4744 14.7162 17.6379 14.8419 17.798 14.9569C17.1717 15.3377 16.514 15.6647 15.8321 15.9269C16.1905 16.6527 16.608 17.3461 17.0777 18C19.1724 17.3497 21.1418 16.3293 22.9024 14.9856C23.3791 9.86946 22.0882 5.43952 19.4856 1.50898ZM7.67956 12.2695C6.54524 12.2695 5.60925 11.206 5.60925 9.8982C5.60925 8.59042 6.51393 7.51976 7.67608 7.51976C8.83824 7.51976 9.77075 8.59042 9.74987 9.8982C9.729 11.206 8.83476 12.2695 7.67956 12.2695ZM15.3206 12.2695C14.1828 12.2695 13.2503 11.206 13.2503 9.8982C13.2503 8.59042 14.1549 7.51976 15.3206 7.51976C16.4862 7.51976 17.4083 8.59042 17.3874 9.8982C17.3665 11.206 16.4758 12.2695 15.3206 12.2695Z" fill="white"/>
</svg>
