<svg width="56" height="56" viewBox="0 0 56 56" fill="none" xmlns="http://www.w3.org/2000/svg">
<path d="M0 8C0 3.58172 3.58172 0 8 0H48C52.4183 0 56 3.58172 56 8V48C56 52.4183 52.4183 56 48 56H8C3.58172 56 0 52.4183 0 48V8Z" fill="url(#paint0_linear_43_142)"/>
<path d="M39.6667 28C39.6667 34.4433 34.4433 39.6667 28 39.6667M39.6667 28C39.6667 21.5567 34.4433 16.3333 28 16.3333M39.6667 28H43M28 39.6667C21.5567 39.6667 16.3333 34.4433 16.3333 28M28 39.6667V43M16.3333 28C16.3333 21.5567 21.5567 16.3333 28 16.3333M16.3333 28H13M28 16.3333V13M33 28C33 30.7614 30.7614 33 28 33C25.2386 33 23 30.7614 23 28C23 25.2386 25.2386 23 28 23C30.7614 23 33 25.2386 33 28Z" stroke="white" stroke-width="2" stroke-linecap="round" stroke-linejoin="round"/>
<defs>
<linearGradient id="paint0_linear_43_142" x1="1.49732e-06" y1="52" x2="56" y2="-1.56947e-06" gradientUnits="userSpaceOnUse">
<stop stop-color="#9610FF"/>
<stop offset="1" stop-color="#B14DFF" stop-opacity="0"/>
</linearGradient>
</defs>
</svg>
