<svg width="44" height="30" viewBox="0 0 44 30" fill="none" xmlns="http://www.w3.org/2000/svg">
<g clip-path="url(#clip0_971_1025)">
<path d="M0.4375 0H43.9955V29.0387H0.4375V0Z" fill="white"/>
<path d="M0.4375 0H43.9955V2.23309H0.4375V0ZM0.4375 4.46618H43.9955V6.69927H0.4375V4.46618ZM0.4375 8.93236H43.9955V11.1655H0.4375V8.93236ZM0.4375 13.3985H43.9955V15.6316H0.4375V13.3985ZM0.4375 17.8732H43.9955V20.1063H0.4375V17.8732ZM0.4375 22.3394H43.9955V24.5725H0.4375V22.3394ZM0.4375 26.8056H43.9955V29.0387H0.4375V26.8056Z" fill="#D80027"/>
<path d="M0.4375 0H22.2165V15.6316H0.4375V0Z" fill="#2E52B2"/>
<path d="M4.49418 11.7942L4.15454 10.7074L3.78095 11.7942H2.66016L3.56868 12.448L3.22904 13.5348L4.15454 12.864L5.05457 13.5348L4.70645 12.448L5.63195 11.7942H4.49418ZM9.27452 11.7942L8.9264 10.7074L8.56978 11.7942H7.44899L8.35751 12.448L8.01788 13.5348L8.9264 12.864L9.84341 13.5348L9.50377 12.448L10.4123 11.7942H9.27452ZM14.0718 11.7942L13.7067 10.7074L13.3671 11.7942H12.2208L13.1548 12.448L12.7982 13.5348L13.7067 12.864L14.6407 13.5348L14.2841 12.448L15.1926 11.7942H14.0718ZM18.8437 11.7942L18.5041 10.7074L18.1474 11.7942H17.0182L17.9352 12.448L17.5955 13.5348L18.5041 12.864L19.4211 13.5348L19.056 12.448L19.99 11.7942H18.8437ZM8.9264 6.39402L8.56978 7.48085H7.44899L8.35751 8.15163L8.01788 9.22147L8.9264 8.55919L9.84341 9.22147L9.50377 8.15163L10.4123 7.48085H9.27452L8.9264 6.39402ZM4.15454 6.39402L3.78095 7.48085H2.66016L3.56868 8.15163L3.22904 9.22147L4.15454 8.55919L5.05457 9.22147L4.70645 8.15163L5.63195 7.48085H4.49418L4.15454 6.39402ZM13.7067 6.39402L13.3671 7.48085H12.2208L13.1548 8.15163L12.7982 9.22147L13.7067 8.55919L14.6407 9.22147L14.2841 8.15163L15.1926 7.48085H14.0718L13.7067 6.39402ZM18.5041 6.39402L18.1474 7.48085H17.0182L17.9352 8.15163L17.5955 9.22147L18.5041 8.55919L19.4211 9.22147L19.056 8.15163L19.99 7.48085H18.8437L18.5041 6.39402ZM4.15454 2.09766L3.78095 3.1675H2.66016L3.56868 3.83828L3.22904 4.91662L4.15454 4.24584L5.05457 4.91662L4.70645 3.83828L5.63195 3.1675H4.49418L4.15454 2.09766ZM8.9264 2.09766L8.56978 3.1675H7.44899L8.35751 3.83828L8.01788 4.91662L8.9264 4.24584L9.84341 4.91662L9.50377 3.83828L10.4123 3.1675H9.27452L8.9264 2.09766ZM13.7067 2.09766L13.3671 3.1675H12.2208L13.1548 3.83828L12.7982 4.91662L13.7067 4.24584L14.6407 4.91662L14.2841 3.83828L15.1926 3.1675H14.0718L13.7067 2.09766ZM18.5041 2.09766L18.1474 3.1675H17.0182L17.9352 3.83828L17.5955 4.91662L18.5041 4.24584L19.4211 4.91662L19.056 3.83828L19.99 3.1675H18.8437L18.5041 2.09766Z" fill="white"/>
</g>
<defs>
<clipPath id="clip0_971_1025">
<rect width="43.558" height="29.0387" fill="white" transform="translate(0.4375)"/>
</clipPath>
</defs>
</svg>
