<svg width="21" height="24" viewBox="0 0 21 24" fill="none" xmlns="http://www.w3.org/2000/svg">
<path fill-rule="evenodd" clip-rule="evenodd" d="M18.8049 0H1.87921C0.507089 0 0 0.507089 0 1.87921V18.4427C0 18.5961 0.00426125 18.741 0.0213063 18.8773C0.051135 19.1756 0.0596579 19.4654 0.336639 19.7978C0.362207 19.8319 0.64771 20.0407 0.64771 20.0407C0.801115 20.1174 0.903386 20.1728 1.0781 20.2409L9.41311 23.7309C9.84775 23.9312 10.0267 24.0079 10.3421 23.9994C10.6574 24.0036 10.8364 23.9269 11.271 23.7309L19.606 20.2409C19.7807 20.1728 19.883 20.1174 20.0364 20.0407C20.0364 20.0407 20.3219 19.8276 20.3475 19.7978C20.6245 19.4654 20.633 19.1756 20.6628 18.8773C20.6756 18.7452 20.6841 18.6004 20.6841 18.4427V1.87921C20.6841 0.507089 20.177 0 18.8049 0Z" fill="#333333"/>
<path d="M4.46055 8.34362H6.10539V7.06524H4.46055V4.46588H6.17357V3.1875H3.05859V12.3918H6.19914V11.1177H4.46055V8.34362Z" fill="white"/>
<path d="M16.264 8.61638V10.6916C16.264 11.0581 16.0935 11.2285 15.7398 11.2285H15.4799C15.1134 11.2285 14.943 11.0581 14.943 10.6916V4.88352C14.943 4.51705 15.1134 4.3466 15.4799 4.3466H15.7143C16.0679 4.3466 16.2384 4.51705 16.2384 4.88352V6.68603H17.6105V4.80682C17.6105 3.6648 17.0608 3.11084 15.9231 3.11084H15.2413C14.1035 3.11084 13.541 3.67759 13.541 4.8196V10.7598C13.541 11.9018 14.1035 12.4685 15.2413 12.4685H15.9358C17.0736 12.4685 17.6361 11.9018 17.6361 10.7598V8.61638H16.264Z" fill="white"/>
<path d="M12.8082 3.1875H11.4062V12.3918H12.8082V3.1875Z" fill="white"/>
<path d="M9.07185 3.1875H6.87305V12.3918H8.27074V9.05098H9.06759C10.2053 9.05098 10.7678 8.48424 10.7678 7.34222V4.89626C10.7721 3.75425 10.2096 3.1875 9.07185 3.1875ZM9.3744 7.2783C9.3744 7.64477 9.20395 7.81948 8.85027 7.81948H8.275V4.42752H8.85027C9.20395 4.42752 9.3744 4.59797 9.3744 4.96444V7.2783Z" fill="white"/>
<path fill-rule="evenodd" clip-rule="evenodd" d="M6.36133 20.71H14.3767L10.2859 22.0608L6.36133 20.71Z" fill="white"/>
<path d="M19.3672 23.2751C19.3672 22.8873 19.6612 22.5933 20.0277 22.5933C20.3984 22.5933 20.6882 22.8873 20.6882 23.2751C20.6882 23.6628 20.3941 23.9569 20.0277 23.9569C19.6612 23.9569 19.3672 23.6628 19.3672 23.2751ZM20.5689 23.2751C20.5689 22.9555 20.3302 22.7083 20.0277 22.7083C19.7251 22.7083 19.4865 22.9555 19.4865 23.2751C19.4865 23.5947 19.7251 23.8418 20.0277 23.8418C20.3302 23.8418 20.5689 23.5947 20.5689 23.2751ZM19.7592 22.9214H20.0746C20.228 22.9214 20.3217 23.0023 20.3217 23.1344C20.3217 23.2538 20.2535 23.3305 20.1555 23.3518L20.3217 23.5733V23.6202H20.2109L20.0234 23.3645H19.8828V23.6202H19.7635V22.9214H19.7592ZM20.0746 23.2623C20.1513 23.2623 20.2067 23.2239 20.2067 23.1472C20.2067 23.0705 20.1513 23.0364 20.0746 23.0364H19.8785V23.2623H20.0746Z" fill="#333333"/>
<path d="M4.50298 17.4714C4.28565 17.4714 4.08538 17.4373 3.90214 17.3649C3.71891 17.2924 3.55698 17.1944 3.42488 17.0666C3.29278 16.9387 3.18199 16.7853 3.10529 16.6106C3.02859 16.4359 2.99023 16.2399 2.99023 16.0311V16.0226C2.99023 15.818 3.02859 15.6263 3.10529 15.4515C3.18199 15.2768 3.28426 15.1234 3.41636 14.9913C3.54846 14.8592 3.70612 14.757 3.88936 14.6845C4.07259 14.6121 4.27287 14.5737 4.48593 14.5737C4.73309 14.5737 4.94615 14.6078 5.12512 14.6803C5.30409 14.7527 5.46602 14.8507 5.61517 14.9785L5.16347 15.524C5.0612 15.4388 4.95893 15.3748 4.85666 15.328C4.75013 15.2811 4.63082 15.2598 4.49446 15.2598C4.39219 15.2598 4.29844 15.2811 4.21321 15.3194C4.12799 15.3578 4.05129 15.4132 3.98737 15.4814C3.92345 15.5496 3.87231 15.6305 3.83822 15.7243C3.79987 15.818 3.78283 15.916 3.78283 16.0226V16.0311C3.78283 16.1419 3.79987 16.2441 3.83822 16.3421C3.87658 16.4359 3.92771 16.5211 3.99589 16.5893C4.06407 16.6575 4.14077 16.7086 4.23452 16.747C4.32401 16.7853 4.42628 16.8066 4.53707 16.8066C4.71604 16.8066 4.86519 16.7683 4.98024 16.6916V16.3549H4.43054V15.7882H5.70891V17.0453C5.55977 17.1688 5.38506 17.2711 5.18478 17.3521C4.9845 17.433 4.75865 17.4714 4.50298 17.4714Z" fill="white"/>
<path d="M7.14006 14.6035H7.88152L9.06615 17.4117H8.23946L8.03492 16.9131H6.96109L6.76081 17.4117H5.95117L7.14006 14.6035ZM7.81334 16.3165L7.50227 15.5239L7.18693 16.3165H7.81334Z" fill="white"/>
<path d="M9.33594 14.625H10.1498L10.8146 15.7031L11.4793 14.625H12.2932V17.4161H11.5262V15.8139L10.8146 16.9048H10.7975L10.0902 15.8224V17.4161H9.33594V14.625Z" fill="white"/>
<path d="M12.8047 14.625H15.0418V15.2812H13.5675V15.7031H14.9012V16.3125H13.5675V16.7556H15.0589V17.4119H12.8047V14.625Z" fill="white"/>
<path d="M16.5673 17.467C16.3201 17.467 16.0815 17.4287 15.8599 17.352C15.6383 17.2753 15.438 17.1602 15.2676 17.0068L15.698 16.4912C15.9749 16.7128 16.2775 16.8278 16.6013 16.8278C16.7036 16.8278 16.7846 16.8108 16.8357 16.7767C16.8911 16.7426 16.9167 16.6957 16.9167 16.6361V16.6233C16.9167 16.5935 16.9082 16.5679 16.8954 16.5466C16.8826 16.5253 16.857 16.504 16.8229 16.4827C16.7888 16.4614 16.7377 16.4401 16.6781 16.423C16.6184 16.4017 16.5417 16.3847 16.4437 16.3634C16.2945 16.3293 16.1582 16.2909 16.0303 16.2483C15.9025 16.2057 15.7917 16.1546 15.698 16.0906C15.6042 16.0267 15.5318 15.9458 15.4764 15.8478C15.421 15.7497 15.3954 15.6304 15.3954 15.4855V15.4728C15.3954 15.3407 15.421 15.2214 15.4679 15.1148C15.5147 15.004 15.5872 14.9103 15.6809 14.8336C15.7747 14.7526 15.8897 14.693 16.0218 14.6503C16.1539 14.6077 16.3031 14.5864 16.4693 14.5864C16.7079 14.5864 16.9209 14.6163 17.1084 14.6802C17.2959 14.7441 17.4621 14.8336 17.6155 14.9572L17.232 15.5026C17.1042 15.4131 16.9763 15.3449 16.84 15.2981C16.7079 15.2512 16.5758 15.2299 16.4522 15.2299C16.3585 15.2299 16.2903 15.2469 16.2434 15.281C16.1965 15.3151 16.1752 15.3577 16.1752 15.4088V15.4174C16.1752 15.4472 16.1837 15.477 16.1965 15.5026C16.2093 15.5282 16.2349 15.5495 16.2732 15.5665C16.3073 15.5878 16.3585 15.6049 16.4181 15.6262C16.482 15.6475 16.5587 15.6688 16.6525 15.6858C16.8102 15.7199 16.955 15.7625 17.0829 15.8094C17.2107 15.8563 17.3215 15.9117 17.411 15.9799C17.5005 16.048 17.5687 16.1247 17.6155 16.2227C17.6624 16.3165 17.688 16.4273 17.688 16.5594V16.5679C17.688 16.7128 17.6624 16.8406 17.607 16.9514C17.5516 17.0622 17.4749 17.156 17.3769 17.2369C17.2789 17.3136 17.1596 17.3733 17.0232 17.4159C16.8911 17.4457 16.7377 17.467 16.5673 17.467Z" fill="white"/>
</svg>
