<svg width="486" height="564" viewBox="0 0 486 564" fill="none" xmlns="http://www.w3.org/2000/svg">
<path fill-rule="evenodd" clip-rule="evenodd" d="M441.3 0H44.1C11.9 0 0 11.9 0 44.1V432.8C0 436.4 0.1 439.8 0.5 443C1.2 450 1.40001 456.8 7.90001 464.6C8.50001 465.4 15.2 470.3 15.2 470.3C18.8 472.1 21.2 473.4 25.3 475L220.9 556.9C231.1 561.6 235.3 563.4 242.7 563.2C250.1 563.3 254.3 561.5 264.5 556.9L460.1 475C464.2 473.4 466.6 472.1 470.2 470.3C470.2 470.3 476.9 465.3 477.5 464.6C484 456.8 484.2 450 484.9 443C485.2 439.9 485.4 436.5 485.4 432.8V44.1C485.4 11.9 473.5 0 441.3 0Z" fill="white"/>
<path d="M104.701 195.8H143.301V165.8H104.701V104.8H144.901V74.7998H71.8008V290.8H145.501V260.9H104.701V195.8Z" fill="#3D3935"/>
<path d="M381.701 202.2V250.9C381.701 259.5 377.701 263.5 369.401 263.5H363.301C354.701 263.5 350.701 259.5 350.701 250.9V114.6C350.701 106 354.701 102 363.301 102H368.801C377.101 102 381.101 106 381.101 114.6V156.9H413.301V112.8C413.301 86 400.401 73 373.701 73H357.701C331.001 73 317.801 86.3 317.801 113.1V252.5C317.801 279.3 331.001 292.6 357.701 292.6H374.001C400.701 292.6 413.901 279.3 413.901 252.5V202.2H381.701Z" fill="#3D3935"/>
<path d="M300.601 74.7998H267.701V290.8H300.601V74.7998Z" fill="#3D3935"/>
<path d="M212.901 74.7998H161.301V290.8H194.101V212.4H212.801C239.501 212.4 252.701 199.1 252.701 172.3V114.9C252.801 88.0998 239.601 74.7998 212.901 74.7998ZM220.001 170.8C220.001 179.4 216.001 183.5 207.701 183.5H194.201V103.9H207.701C216.001 103.9 220.001 107.9 220.001 116.5V170.8Z" fill="#3D3935"/>
<path fill-rule="evenodd" clip-rule="evenodd" d="M149.301 486H337.401L241.401 517.7L149.301 486Z" fill="#3D3935"/>
<path d="M454.5 546.199C454.5 537.099 461.4 530.199 470 530.199C478.7 530.199 485.5 537.099 485.5 546.199C485.5 555.299 478.6 562.199 470 562.199C461.4 562.199 454.5 555.299 454.5 546.199ZM482.7 546.199C482.7 538.699 477.1 532.899 470 532.899C462.9 532.899 457.3 538.699 457.3 546.199C457.3 553.699 462.9 559.499 470 559.499C477.1 559.499 482.7 553.699 482.7 546.199ZM463.7 537.899H471.1C474.7 537.899 476.9 539.799 476.9 542.899C476.9 545.699 475.3 547.499 473 547.999L476.9 553.199V554.299H474.3L469.9 548.299H466.6V554.299H463.8V537.899H463.7ZM471.1 545.899C472.9 545.899 474.2 544.999 474.2 543.199C474.2 541.399 472.9 540.599 471.1 540.599H466.5V545.899H471.1Z" fill="white"/>
<path d="M105.701 410C100.601 410 95.9012 409.2 91.6012 407.5C87.3012 405.8 83.5012 403.5 80.4012 400.5C77.3012 397.5 74.7012 393.9 72.9012 389.8C71.1012 385.7 70.2012 381.1 70.2012 376.2V376C70.2012 371.2 71.1012 366.7 72.9012 362.6C74.7012 358.5 77.1012 354.9 80.2012 351.8C83.3012 348.7 87.0012 346.3 91.3012 344.6C95.6012 342.9 100.301 342 105.301 342C111.101 342 116.101 342.8 120.301 344.5C124.501 346.2 128.301 348.5 131.801 351.5L121.201 364.3C118.801 362.3 116.401 360.8 114.001 359.7C111.501 358.6 108.701 358.1 105.501 358.1C103.101 358.1 100.901 358.6 98.9012 359.5C96.9012 360.4 95.1012 361.7 93.6012 363.3C92.1012 364.9 90.9012 366.8 90.1012 369C89.2012 371.2 88.8012 373.5 88.8012 376V376.2C88.8012 378.8 89.2012 381.2 90.1012 383.5C91.0012 385.7 92.2012 387.7 93.8012 389.3C95.4012 390.9 97.2012 392.1 99.4012 393C101.501 393.9 103.901 394.4 106.501 394.4C110.701 394.4 114.201 393.5 116.901 391.7V383.8H104.001V370.5H134.001V400C130.501 402.9 126.401 405.3 121.701 407.2C117.001 409.1 111.701 410 105.701 410Z" fill="#3D3935"/>
<path d="M167.601 342.7H185.001L212.801 408.6H193.401L188.601 396.9H163.401L158.701 408.6H139.701L167.601 342.7ZM183.401 382.9L176.101 364.3L168.701 382.9H183.401Z" fill="#3D3935"/>
<path d="M219.102 343.2H238.202L253.802 368.5L269.402 343.2H288.502V408.7H270.502V371.1L253.802 396.7H253.402L236.802 371.3V408.7H219.102V343.2Z" fill="#3D3935"/>
<path d="M300.502 343.2H353.002V358.6H318.402V368.5H349.702V382.8H318.402V393.2H353.402V408.6H300.502V343.2Z" fill="#3D3935"/>
<path d="M388.801 409.9C383.001 409.9 377.401 409 372.201 407.2C367.001 405.4 362.301 402.7 358.301 399.1L368.401 387C374.901 392.2 382.001 394.9 389.601 394.9C392.001 394.9 393.901 394.5 395.101 393.7C396.401 392.9 397.001 391.8 397.001 390.4V390.1C397.001 389.4 396.801 388.8 396.501 388.3C396.201 387.8 395.601 387.3 394.801 386.8C394.001 386.3 392.801 385.8 391.401 385.4C390.001 384.9 388.201 384.5 385.901 384C382.401 383.2 379.201 382.3 376.201 381.3C373.201 380.3 370.601 379.1 368.401 377.6C366.201 376.1 364.501 374.2 363.201 371.9C361.901 369.6 361.301 366.8 361.301 363.4V363.1C361.301 360 361.901 357.2 363.001 354.7C364.101 352.1 365.801 349.9 368.001 348.1C370.201 346.2 372.901 344.8 376.001 343.8C379.101 342.8 382.601 342.3 386.501 342.3C392.101 342.3 397.101 343 401.501 344.5C405.901 346 409.801 348.1 413.401 351L404.401 363.8C401.401 361.7 398.401 360.1 395.201 359C392.101 357.9 389.001 357.4 386.101 357.4C383.901 357.4 382.301 357.8 381.201 358.6C380.101 359.4 379.601 360.4 379.601 361.6V361.8C379.601 362.5 379.801 363.2 380.101 363.8C380.401 364.4 381.001 364.9 381.901 365.3C382.701 365.8 383.901 366.2 385.301 366.7C386.801 367.2 388.601 367.7 390.801 368.1C394.501 368.9 397.901 369.9 400.901 371C403.901 372.1 406.501 373.4 408.601 375C410.701 376.6 412.301 378.4 413.401 380.7C414.501 382.9 415.101 385.5 415.101 388.6V388.8C415.101 392.2 414.501 395.2 413.201 397.8C411.901 400.4 410.101 402.6 407.801 404.5C405.501 406.3 402.701 407.7 399.501 408.7C396.401 409.4 392.801 409.9 388.801 409.9Z" fill="#3D3935"/>
</svg>
