<svg width="486" height="564" viewBox="0 0 486 564" fill="none" xmlns="http://www.w3.org/2000/svg">
<path fill-rule="evenodd" clip-rule="evenodd" d="M441.3 0H44.1C11.9 0 0 11.9 0 44.1V432.8C0 436.4 0.1 439.8 0.5 443C1.2 450 1.40001 456.8 7.90001 464.6C8.50001 465.4 15.2 470.3 15.2 470.3C18.8 472.1 21.2 473.4 25.3 475L220.9 556.9C231.1 561.6 235.3 563.4 242.7 563.2C250.1 563.3 254.3 561.5 264.5 556.9L460.1 475C464.2 473.4 466.6 472.1 470.2 470.3C470.2 470.3 476.9 465.3 477.5 464.6C484 456.8 484.2 450 484.9 443C485.2 439.9 485.4 436.5 485.4 432.8V44.1C485.4 11.9 473.5 0 441.3 0Z" fill="#333333"/>
<path d="M104.701 195.8H143.301V165.8H104.701V104.8H144.901V74.7998H71.8008V290.8H145.501V260.9H104.701V195.8Z" fill="white"/>
<path d="M381.701 202.2V250.9C381.701 259.5 377.701 263.5 369.401 263.5H363.301C354.701 263.5 350.701 259.5 350.701 250.9V114.6C350.701 106 354.701 102 363.301 102H368.801C377.101 102 381.101 106 381.101 114.6V156.9H413.301V112.8C413.301 86 400.401 73 373.701 73H357.701C331.001 73 317.801 86.3 317.801 113.1V252.5C317.801 279.3 331.001 292.6 357.701 292.6H374.001C400.701 292.6 413.901 279.3 413.901 252.5V202.2H381.701Z" fill="white"/>
<path d="M300.601 74.7998H267.701V290.8H300.601V74.7998Z" fill="white"/>
<path d="M212.901 74.7998H161.301V290.8H194.101V212.4H212.801C239.501 212.4 252.701 199.1 252.701 172.3V114.9C252.801 88.0998 239.601 74.7998 212.901 74.7998ZM220.001 170.8C220.001 179.4 216.001 183.5 207.701 183.5H194.201V103.9H207.701C216.001 103.9 220.001 107.9 220.001 116.5V170.8Z" fill="white"/>
<path fill-rule="evenodd" clip-rule="evenodd" d="M149.301 486H337.401L241.401 517.7L149.301 486Z" fill="white"/>
<path d="M454.5 546.2C454.5 537.1 461.4 530.2 470 530.2C478.7 530.2 485.5 537.1 485.5 546.2C485.5 555.3 478.6 562.2 470 562.2C461.4 562.2 454.5 555.3 454.5 546.2ZM482.7 546.2C482.7 538.7 477.1 532.9 470 532.9C462.9 532.9 457.3 538.7 457.3 546.2C457.3 553.7 462.9 559.5 470 559.5C477.1 559.5 482.7 553.7 482.7 546.2ZM463.7 537.9H471.1C474.7 537.9 476.9 539.8 476.9 542.9C476.9 545.7 475.3 547.5 473 548L476.9 553.2V554.3H474.3L469.9 548.3H466.6V554.3H463.8V537.9H463.7ZM471.1 545.9C472.9 545.9 474.2 545 474.2 543.2C474.2 541.4 472.9 540.6 471.1 540.6H466.5V545.9H471.1Z" fill="#333333"/>
<path d="M105.699 410C100.599 410 95.8992 409.2 91.5992 407.5C87.2992 405.8 83.4992 403.5 80.3992 400.5C77.2992 397.5 74.6992 393.9 72.8992 389.8C71.0992 385.7 70.1992 381.1 70.1992 376.2V376C70.1992 371.2 71.0992 366.7 72.8992 362.6C74.6992 358.5 77.0992 354.9 80.1992 351.8C83.2992 348.7 86.9992 346.3 91.2992 344.6C95.5992 342.9 100.299 342 105.299 342C111.099 342 116.099 342.8 120.299 344.5C124.499 346.2 128.299 348.5 131.799 351.5L121.199 364.3C118.799 362.3 116.399 360.8 113.999 359.7C111.499 358.6 108.699 358.1 105.499 358.1C103.099 358.1 100.899 358.6 98.8992 359.5C96.8992 360.4 95.0992 361.7 93.5992 363.3C92.0992 364.9 90.8992 366.8 90.0992 369C89.1992 371.2 88.7992 373.5 88.7992 376V376.2C88.7992 378.8 89.1992 381.2 90.0992 383.5C90.9992 385.7 92.1992 387.7 93.7992 389.3C95.3992 390.9 97.1992 392.1 99.3992 393C101.499 393.9 103.899 394.4 106.499 394.4C110.699 394.4 114.199 393.5 116.899 391.7V383.8H103.999V370.5H133.999V400C130.499 402.9 126.399 405.3 121.699 407.2C116.999 409.1 111.699 410 105.699 410Z" fill="white"/>
<path d="M167.599 342.7H184.999L212.799 408.6H193.399L188.599 396.9H163.399L158.699 408.6H139.699L167.599 342.7ZM183.399 382.9L176.099 364.3L168.699 382.9H183.399Z" fill="white"/>
<path d="M219.1 343.2H238.2L253.8 368.5L269.4 343.2H288.5V408.7H270.5V371.1L253.8 396.7H253.4L236.8 371.3V408.7H219.1V343.2Z" fill="white"/>
<path d="M300.5 343.2H353V358.6H318.4V368.5H349.7V382.8H318.4V393.2H353.4V408.6H300.5V343.2Z" fill="white"/>
<path d="M388.799 409.9C382.999 409.9 377.399 409 372.199 407.2C366.999 405.4 362.299 402.7 358.299 399.1L368.399 387C374.899 392.2 381.999 394.9 389.599 394.9C391.999 394.9 393.899 394.5 395.099 393.7C396.399 392.9 396.999 391.8 396.999 390.4V390.1C396.999 389.4 396.799 388.8 396.499 388.3C396.199 387.8 395.599 387.3 394.799 386.8C393.999 386.3 392.799 385.8 391.399 385.4C389.999 384.9 388.199 384.5 385.899 384C382.399 383.2 379.199 382.3 376.199 381.3C373.199 380.3 370.599 379.1 368.399 377.6C366.199 376.1 364.499 374.2 363.199 371.9C361.899 369.6 361.299 366.8 361.299 363.4V363.1C361.299 360 361.899 357.2 362.999 354.7C364.099 352.1 365.799 349.9 367.999 348.1C370.199 346.2 372.899 344.8 375.999 343.8C379.099 342.8 382.599 342.3 386.499 342.3C392.099 342.3 397.099 343 401.499 344.5C405.899 346 409.799 348.1 413.399 351L404.399 363.8C401.399 361.7 398.399 360.1 395.199 359C392.099 357.9 388.999 357.4 386.099 357.4C383.899 357.4 382.299 357.8 381.199 358.6C380.099 359.4 379.599 360.4 379.599 361.6V361.8C379.599 362.5 379.799 363.2 380.099 363.8C380.399 364.4 380.999 364.9 381.899 365.3C382.699 365.8 383.899 366.2 385.299 366.7C386.799 367.2 388.599 367.7 390.799 368.1C394.499 368.9 397.899 369.9 400.899 371C403.899 372.1 406.499 373.4 408.599 375C410.699 376.6 412.299 378.4 413.399 380.7C414.499 382.9 415.099 385.5 415.099 388.6V388.8C415.099 392.2 414.499 395.2 413.199 397.8C411.899 400.4 410.099 402.6 407.799 404.5C405.499 406.3 402.699 407.7 399.499 408.7C396.399 409.4 392.799 409.9 388.799 409.9Z" fill="white"/>
</svg>
