<svg width="527" height="214" viewBox="0 0 527 214" fill="none" xmlns="http://www.w3.org/2000/svg">
<path d="M31.512 56.2517H0V155H50.232V138.776H66.612V98.2157L31.512 56.2517ZM50.232 138.62H16.38V72.6317H23.868L50.232 104.144V138.62Z" fill="url(#paint0_linear_230_1152)"/>
<path d="M95.0588 126.764H78.6788V155H114.091V138.62H95.0588V126.764ZM139.675 56.0957H123.295V108.824L88.1948 56.0957H68.5388L123.295 138.464V155.156H139.675V56.0957Z" fill="url(#paint1_linear_230_1152)"/>
<path d="M177.39 56.2517L154.302 77.3117L154.458 155.156H170.838L170.682 84.4877L183.786 72.6317H210.618V88.2317L199.074 99.4637H178.482V115.844H205.626L226.998 95.2517V56.2517H177.39Z" fill="url(#paint2_linear_230_1152)"/>
<path d="M262.301 155.156V78.7157H245.921V155.156H262.301ZM262.457 72.3197V55.9397H231.257V72.3197H262.457Z" fill="url(#paint3_linear_230_1152)"/>
<path d="M341.066 155H357.446V98.9957L341.066 115.376V155ZM357.446 87.1397V86.9837L340.754 56.4077H295.514L276.014 86.8277V155.156H292.238V155H292.394L358.382 88.8557L357.446 87.1397ZM292.238 131.912V91.6637L304.406 72.7877H331.082L338.102 85.8917L292.238 131.912Z" fill="url(#paint4_linear_230_1152)"/>
<path d="M428.662 81.5237V155.156H445.042V63.5837L428.662 81.5237ZM432.874 43.9277L432.718 44.2397H433.186L432.874 43.9277ZM421.798 56.0957L387.946 93.3797V56.0957H371.722V155.156H387.946V117.716L443.95 56.0957H421.798Z" fill="url(#paint5_linear_230_1152)"/>
<path d="M510.299 121.304V134.876L507.023 138.152H458.663V154.532H513.887L526.523 141.584V121.304H510.299ZM526.523 98.5277H475.511V75.9077L478.943 72.6317H526.055V56.2517H472.391L459.131 68.8877V114.908H526.523V98.5277Z" fill="url(#paint6_linear_230_1152)"/>
<path d="M334.354 0.0549441V18.0769L323.939 30.989H318.59V0.0549441H314.649V34.8352H325.909L338.295 19.3956V0.0549441H334.354ZM298.885 30.989V0.0549441H295V34.8352H306.204L312.059 27.5275V21.2637L304.29 30.989H298.885Z" fill="url(#paint7_linear_230_1152)"/>
<path d="M368.608 15.8242V8.18681L362.696 0.109888H348.452L342.653 8.18681V27.8571L349.634 34.945H363.428L368.608 27.6374V20.3846H364.666V26.4286L361.401 31.0989H351.267L346.538 26.3187V9.45055L350.535 3.95604H360.669L364.666 9.45055V15.8242H368.608Z" fill="url(#paint8_linear_230_1152)"/>
<path d="M383.637 3.95604H397.881V0.109888H382.06L373.559 7.96703L373.615 34.8901H377.556L377.5 9.61538L383.637 3.95604ZM386.902 21.2088H390.731L397.825 14.5055V6.53846H393.883V12.8571L389.098 17.3626H381.328V21.2088L395.404 34.8901H400.977L386.902 21.2088Z" fill="url(#paint9_linear_230_1152)"/>
<path d="M408.629 0H404.744V34.945L421.127 35V31.1538L408.629 31.0989V0ZM422.422 16.044L418.312 19.8901H424.562V34.945H428.503V16.044H422.422Z" fill="url(#paint10_linear_230_1152)"/>
<path d="M448.929 0.0549441H433.165V3.9011H447.015L451.35 9.34066V18.1319L440.597 30.989H437.162V7.25274H433.221V34.8352H442.455L455.291 19.5055V8.02198L448.929 0.0549441Z" fill="url(#paint11_linear_230_1152)"/>
<path d="M499.078 15.8242V8.18681L493.166 0.109888H478.922L473.123 8.18681V27.8571L480.105 34.945H493.898L499.078 27.6374V20.3846H495.137V26.4286L491.871 31.0989H481.737L477.008 26.3187V9.45055L481.005 3.95604H491.139L495.137 9.45055V15.8242H499.078Z" fill="url(#paint12_linear_230_1152)"/>
<path d="M507.689 34.8901V23.2418H503.804V34.8901H507.689ZM513.037 3.95604H527V0.109888H511.292L503.804 7.96703V20.0549H520.694V16.2088H507.689V9.45055L513.037 3.95604Z" fill="url(#paint13_linear_230_1152)"/>
<path d="M16.288 189.576C16.288 190.771 16 191.891 15.424 192.936C14.8693 193.981 13.984 194.824 12.768 195.464C11.5733 196.104 10.0587 196.424 8.224 196.424H4.48V205H0V182.664H8.224C9.952 182.664 11.424 182.963 12.64 183.56C13.856 184.157 14.7627 184.979 15.36 186.024C15.9787 187.069 16.288 188.253 16.288 189.576ZM8.032 192.808C9.26933 192.808 10.1867 192.531 10.784 191.976C11.3813 191.4 11.68 190.6 11.68 189.576C11.68 187.4 10.464 186.312 8.032 186.312H4.48V192.808H8.032Z" fill="white"/>
<path d="M27.3408 205.288C25.6341 205.288 24.0981 204.915 22.7327 204.168C21.3674 203.4 20.2901 202.323 19.5007 200.936C18.7327 199.549 18.3487 197.949 18.3487 196.136C18.3487 194.323 18.7434 192.723 19.5327 191.336C20.3434 189.949 21.4421 188.883 22.8288 188.136C24.2154 187.368 25.7621 186.984 27.4688 186.984C29.1754 186.984 30.7221 187.368 32.1087 188.136C33.4954 188.883 34.5834 189.949 35.3727 191.336C36.1834 192.723 36.5888 194.323 36.5888 196.136C36.5888 197.949 36.1728 199.549 35.3408 200.936C34.5301 202.323 33.4207 203.4 32.0127 204.168C30.6261 204.915 29.0688 205.288 27.3408 205.288ZM27.3408 201.384C28.1514 201.384 28.9088 201.192 29.6128 200.808C30.3381 200.403 30.9141 199.805 31.3408 199.016C31.7674 198.227 31.9808 197.267 31.9808 196.136C31.9808 194.451 31.5327 193.16 30.6367 192.264C29.7621 191.347 28.6848 190.888 27.4048 190.888C26.1248 190.888 25.0474 191.347 24.1728 192.264C23.3194 193.16 22.8927 194.451 22.8927 196.136C22.8927 197.821 23.3088 199.123 24.1408 200.04C24.9941 200.936 26.0608 201.384 27.3408 201.384Z" fill="white"/>
<path d="M64.451 187.272L59.267 205H54.435L51.203 192.616L47.971 205H43.107L37.891 187.272H42.435L45.571 200.776L48.963 187.272H53.699L57.027 200.744L60.163 187.272H64.451Z" fill="white"/>
<path d="M83.355 195.752C83.355 196.392 83.3123 196.968 83.227 197.48H70.267C70.3737 198.76 70.8217 199.763 71.611 200.488C72.4003 201.213 73.371 201.576 74.523 201.576C76.187 201.576 77.371 200.861 78.075 199.432H82.907C82.395 201.139 81.4137 202.547 79.963 203.656C78.5123 204.744 76.731 205.288 74.619 205.288C72.9123 205.288 71.3763 204.915 70.011 204.168C68.667 203.4 67.611 202.323 66.843 200.936C66.0963 199.549 65.723 197.949 65.723 196.136C65.723 194.301 66.0963 192.691 66.843 191.304C67.5897 189.917 68.635 188.851 69.979 188.104C71.323 187.357 72.8697 186.984 74.619 186.984C76.3043 186.984 77.8083 187.347 79.131 188.072C80.475 188.797 81.5097 189.832 82.235 191.176C82.9817 192.499 83.355 194.024 83.355 195.752ZM78.715 194.472C78.6937 193.32 78.2777 192.403 77.467 191.72C76.6563 191.016 75.6643 190.664 74.491 190.664C73.3817 190.664 72.443 191.005 71.675 191.688C70.9283 192.349 70.4697 193.277 70.299 194.472H78.715Z" fill="white"/>
<path d="M91.105 190.024C91.681 189.085 92.4277 188.349 93.345 187.816C94.2837 187.283 95.3503 187.016 96.545 187.016V191.72H95.361C93.953 191.72 92.8863 192.051 92.161 192.712C91.457 193.373 91.105 194.525 91.105 196.168V205H86.625V187.272H91.105V190.024Z" fill="white"/>
<path d="M116.043 195.752C116.043 196.392 116 196.968 115.914 197.48H102.954C103.061 198.76 103.509 199.763 104.299 200.488C105.088 201.213 106.059 201.576 107.211 201.576C108.875 201.576 110.059 200.861 110.763 199.432H115.595C115.083 201.139 114.101 202.547 112.65 203.656C111.2 204.744 109.419 205.288 107.307 205.288C105.6 205.288 104.064 204.915 102.699 204.168C101.354 203.4 100.299 202.323 99.5305 200.936C98.7838 199.549 98.4105 197.949 98.4105 196.136C98.4105 194.301 98.7838 192.691 99.5305 191.304C100.277 189.917 101.322 188.851 102.666 188.104C104.01 187.357 105.557 186.984 107.307 186.984C108.992 186.984 110.496 187.347 111.819 188.072C113.163 188.797 114.197 189.832 114.923 191.176C115.669 192.499 116.043 194.024 116.043 195.752ZM111.403 194.472C111.381 193.32 110.965 192.403 110.155 191.72C109.344 191.016 108.352 190.664 107.178 190.664C106.069 190.664 105.131 191.005 104.363 191.688C103.616 192.349 103.157 193.277 102.987 194.472H111.403Z" fill="white"/>
<path d="M118.16 196.072C118.16 194.28 118.512 192.691 119.216 191.304C119.942 189.917 120.923 188.851 122.16 188.104C123.398 187.357 124.774 186.984 126.289 186.984C127.441 186.984 128.539 187.24 129.585 187.752C130.63 188.243 131.462 188.904 132.081 189.736V181.32H136.625V205H132.081V202.376C131.526 203.251 130.747 203.955 129.745 204.488C128.742 205.021 127.579 205.288 126.257 205.288C124.763 205.288 123.398 204.904 122.16 204.136C120.923 203.368 119.942 202.291 119.216 200.904C118.512 199.496 118.16 197.885 118.16 196.072ZM132.112 196.136C132.112 195.048 131.899 194.12 131.473 193.352C131.046 192.563 130.47 191.965 129.745 191.56C129.019 191.133 128.24 190.92 127.409 190.92C126.576 190.92 125.809 191.123 125.104 191.528C124.4 191.933 123.825 192.531 123.377 193.32C122.95 194.088 122.737 195.005 122.737 196.072C122.737 197.139 122.95 198.077 123.377 198.888C123.825 199.677 124.4 200.285 125.104 200.712C125.83 201.139 126.598 201.352 127.409 201.352C128.24 201.352 129.019 201.149 129.745 200.744C130.47 200.317 131.046 199.72 131.473 198.952C131.899 198.163 132.112 197.224 132.112 196.136Z" fill="white"/>
<path d="M153.105 189.864C153.681 189.011 154.47 188.317 155.473 187.784C156.497 187.251 157.66 186.984 158.961 186.984C160.476 186.984 161.841 187.357 163.057 188.104C164.294 188.851 165.265 189.917 165.969 191.304C166.694 192.669 167.057 194.259 167.057 196.072C167.057 197.885 166.694 199.496 165.969 200.904C165.265 202.291 164.294 203.368 163.057 204.136C161.841 204.904 160.476 205.288 158.961 205.288C157.638 205.288 156.476 205.032 155.473 204.52C154.492 203.987 153.702 203.304 153.105 202.472V205H148.625V181.32H153.105V189.864ZM162.481 196.072C162.481 195.005 162.257 194.088 161.809 193.32C161.382 192.531 160.806 191.933 160.081 191.528C159.377 191.123 158.609 190.92 157.777 190.92C156.966 190.92 156.198 191.133 155.473 191.56C154.769 191.965 154.193 192.563 153.745 193.352C153.318 194.141 153.105 195.069 153.105 196.136C153.105 197.203 153.318 198.131 153.745 198.92C154.193 199.709 154.769 200.317 155.473 200.744C156.198 201.149 156.966 201.352 157.777 201.352C158.609 201.352 159.377 201.139 160.081 200.712C160.806 200.285 161.382 199.677 161.809 198.888C162.257 198.099 162.481 197.16 162.481 196.072Z" fill="white"/>
<path d="M187.272 187.272L176.297 213.384H171.529L175.368 204.552L168.264 187.272H173.289L177.865 199.656L182.504 187.272H187.272Z" fill="white"/>
<path d="M205.121 182.664C207.467 182.664 209.526 183.123 211.297 184.04C213.089 184.957 214.464 186.269 215.424 187.976C216.406 189.661 216.897 191.624 216.897 193.864C216.897 196.104 216.406 198.067 215.424 199.752C214.464 201.416 213.089 202.707 211.297 203.624C209.526 204.541 207.467 205 205.121 205H197.312V182.664H205.121ZM204.961 201.192C207.307 201.192 209.121 200.552 210.401 199.272C211.681 197.992 212.32 196.189 212.32 193.864C212.32 191.539 211.681 189.725 210.401 188.424C209.121 187.101 207.307 186.44 204.961 186.44H201.793V201.192H204.961Z" fill="white"/>
<path d="M237.21 187.272L226.234 213.384H221.466L225.306 204.552L218.202 187.272H223.226L227.802 199.656L232.442 187.272H237.21Z" fill="white"/>
<path d="M244.105 189.832C244.681 189.021 245.47 188.349 246.473 187.816C247.497 187.261 248.66 186.984 249.961 186.984C251.476 186.984 252.841 187.357 254.057 188.104C255.294 188.851 256.265 189.917 256.969 191.304C257.694 192.669 258.057 194.259 258.057 196.072C258.057 197.885 257.694 199.496 256.969 200.904C256.265 202.291 255.294 203.368 254.057 204.136C252.841 204.904 251.476 205.288 249.961 205.288C248.66 205.288 247.508 205.021 246.505 204.488C245.524 203.955 244.724 203.283 244.105 202.472V213.448H239.625V187.272H244.105V189.832ZM253.481 196.072C253.481 195.005 253.257 194.088 252.809 193.32C252.382 192.531 251.806 191.933 251.081 191.528C250.377 191.123 249.609 190.92 248.777 190.92C247.966 190.92 247.198 191.133 246.473 191.56C245.769 191.965 245.193 192.563 244.745 193.352C244.318 194.141 244.105 195.069 244.105 196.136C244.105 197.203 244.318 198.131 244.745 198.92C245.193 199.709 245.769 200.317 246.473 200.744C247.198 201.149 247.966 201.352 248.777 201.352C249.609 201.352 250.377 201.139 251.081 200.712C251.806 200.285 252.382 199.677 252.809 198.888C253.257 198.099 253.481 197.16 253.481 196.072Z" fill="white"/>
<path d="M263.585 185.16C262.795 185.16 262.134 184.915 261.6 184.424C261.089 183.912 260.832 183.283 260.832 182.536C260.832 181.789 261.089 181.171 261.6 180.68C262.134 180.168 262.795 179.912 263.585 179.912C264.374 179.912 265.025 180.168 265.536 180.68C266.07 181.171 266.336 181.789 266.336 182.536C266.336 183.283 266.07 183.912 265.536 184.424C265.025 184.915 264.374 185.16 263.585 185.16ZM265.792 187.272V205H261.312V187.272H265.792Z" fill="white"/>
<path d="M286.955 187.272V205H282.443V202.76C281.867 203.528 281.109 204.136 280.171 204.584C279.253 205.011 278.251 205.224 277.163 205.224C275.776 205.224 274.549 204.936 273.483 204.36C272.416 203.763 271.573 202.899 270.955 201.768C270.357 200.616 270.059 199.251 270.059 197.672V187.272H274.539V197.032C274.539 198.44 274.891 199.528 275.595 200.296C276.299 201.043 277.259 201.416 278.475 201.416C279.712 201.416 280.683 201.043 281.387 200.296C282.091 199.528 282.443 198.44 282.443 197.032V187.272H286.955Z" fill="white"/>
<path d="M298.159 205.288C296.708 205.288 295.407 205.032 294.255 204.52C293.103 203.987 292.186 203.272 291.503 202.376C290.842 201.48 290.479 200.488 290.415 199.4H294.927C295.012 200.083 295.343 200.648 295.919 201.096C296.516 201.544 297.252 201.768 298.127 201.768C298.98 201.768 299.642 201.597 300.111 201.256C300.602 200.915 300.847 200.477 300.847 199.944C300.847 199.368 300.548 198.941 299.951 198.664C299.375 198.365 298.447 198.045 297.167 197.704C295.844 197.384 294.756 197.053 293.903 196.712C293.071 196.371 292.346 195.848 291.727 195.144C291.13 194.44 290.831 193.491 290.831 192.296C290.831 191.315 291.108 190.419 291.663 189.608C292.239 188.797 293.05 188.157 294.095 187.688C295.162 187.219 296.41 186.984 297.839 186.984C299.951 186.984 301.636 187.517 302.895 188.584C304.154 189.629 304.847 191.048 304.975 192.84H300.687C300.623 192.136 300.324 191.581 299.791 191.176C299.279 190.749 298.586 190.536 297.711 190.536C296.9 190.536 296.271 190.685 295.823 190.984C295.396 191.283 295.183 191.699 295.183 192.232C295.183 192.829 295.482 193.288 296.079 193.608C296.676 193.907 297.604 194.216 298.863 194.536C300.143 194.856 301.199 195.187 302.031 195.528C302.863 195.869 303.578 196.403 304.175 197.128C304.794 197.832 305.114 198.771 305.135 199.944C305.135 200.968 304.847 201.885 304.271 202.696C303.716 203.507 302.906 204.147 301.839 204.616C300.794 205.064 299.567 205.288 298.159 205.288Z" fill="white"/>
<defs>
<linearGradient id="paint0_linear_230_1152" x1="263.5" y1="0" x2="263.5" y2="155.156" gradientUnits="userSpaceOnUse">
<stop stop-color="#5690FF"/>
<stop offset="1" stop-color="#8C56FF"/>
</linearGradient>
<linearGradient id="paint1_linear_230_1152" x1="263.5" y1="0" x2="263.5" y2="155.156" gradientUnits="userSpaceOnUse">
<stop stop-color="#5690FF"/>
<stop offset="1" stop-color="#8C56FF"/>
</linearGradient>
<linearGradient id="paint2_linear_230_1152" x1="263.5" y1="0" x2="263.5" y2="155.156" gradientUnits="userSpaceOnUse">
<stop stop-color="#5690FF"/>
<stop offset="1" stop-color="#8C56FF"/>
</linearGradient>
<linearGradient id="paint3_linear_230_1152" x1="263.5" y1="0" x2="263.5" y2="155.156" gradientUnits="userSpaceOnUse">
<stop stop-color="#5690FF"/>
<stop offset="1" stop-color="#8C56FF"/>
</linearGradient>
<linearGradient id="paint4_linear_230_1152" x1="263.5" y1="0" x2="263.5" y2="155.156" gradientUnits="userSpaceOnUse">
<stop stop-color="#5690FF"/>
<stop offset="1" stop-color="#8C56FF"/>
</linearGradient>
<linearGradient id="paint5_linear_230_1152" x1="263.5" y1="0" x2="263.5" y2="155.156" gradientUnits="userSpaceOnUse">
<stop stop-color="#5690FF"/>
<stop offset="1" stop-color="#8C56FF"/>
</linearGradient>
<linearGradient id="paint6_linear_230_1152" x1="263.5" y1="0" x2="263.5" y2="155.156" gradientUnits="userSpaceOnUse">
<stop stop-color="#5690FF"/>
<stop offset="1" stop-color="#8C56FF"/>
</linearGradient>
<linearGradient id="paint7_linear_230_1152" x1="263.5" y1="0" x2="263.5" y2="155.156" gradientUnits="userSpaceOnUse">
<stop stop-color="#5690FF"/>
<stop offset="1" stop-color="#8C56FF"/>
</linearGradient>
<linearGradient id="paint8_linear_230_1152" x1="263.5" y1="0" x2="263.5" y2="155.156" gradientUnits="userSpaceOnUse">
<stop stop-color="#5690FF"/>
<stop offset="1" stop-color="#8C56FF"/>
</linearGradient>
<linearGradient id="paint9_linear_230_1152" x1="263.5" y1="0" x2="263.5" y2="155.156" gradientUnits="userSpaceOnUse">
<stop stop-color="#5690FF"/>
<stop offset="1" stop-color="#8C56FF"/>
</linearGradient>
<linearGradient id="paint10_linear_230_1152" x1="263.5" y1="0" x2="263.5" y2="155.156" gradientUnits="userSpaceOnUse">
<stop stop-color="#5690FF"/>
<stop offset="1" stop-color="#8C56FF"/>
</linearGradient>
<linearGradient id="paint11_linear_230_1152" x1="263.5" y1="0" x2="263.5" y2="155.156" gradientUnits="userSpaceOnUse">
<stop stop-color="#5690FF"/>
<stop offset="1" stop-color="#8C56FF"/>
</linearGradient>
<linearGradient id="paint12_linear_230_1152" x1="263.5" y1="0" x2="263.5" y2="155.156" gradientUnits="userSpaceOnUse">
<stop stop-color="#5690FF"/>
<stop offset="1" stop-color="#8C56FF"/>
</linearGradient>
<linearGradient id="paint13_linear_230_1152" x1="263.5" y1="0" x2="263.5" y2="155.156" gradientUnits="userSpaceOnUse">
<stop stop-color="#5690FF"/>
<stop offset="1" stop-color="#8C56FF"/>
</linearGradient>
</defs>
</svg>
