<svg width="87" height="93" viewBox="0 0 87 93" fill="none" xmlns="http://www.w3.org/2000/svg">
<g id="Group">
<g id="Group 1261159954">
<g id="Group 1261159942">
<path id="Vector" d="M79.071 0H43.1055H7.14005C1.31555 0 0 20.3906 0 20.3906H9.64384H43.1161H76.5884H86.2322C86.2322 20.3906 84.9167 0 79.071 0Z" fill="#3F4344"/>
<g id="Group 1261159483">
<g id="Vector_2" filter="url(#filter0_b_2922_2179)">
<path d="M43.0053 0H7C7.96651 0 8.80558 9.04903 9.48532 20.33C10.0482 29.7224 10.5049 55.6879 10.813 69.9381C10.9192 74.7252 13.5638 79.1487 17.8441 81.6736L31.8851 89.9853C38.6932 94.0049 47.3068 94.0049 54.1149 89.9853L68.1559 81.6837C72.4362 79.1588 75.0808 74.7353 75.187 69.9482C75.4951 55.698 75.9411 29.7224 76.5147 20.3401C77.1944 9.04903 78.0441 0 79 0H43.0053Z" fill="url(#paint0_linear_2922_2179)"/>
</g>
</g>
</g>
</g>
<g id="Group 1261162639">
<path id="Vector_3" fill-rule="evenodd" clip-rule="evenodd" d="M63.4452 20H22.5414C19.2255 20 18 21.2255 18 24.5414V64.5699C18 64.9406 18.0103 65.2907 18.0515 65.6203C18.1236 66.3411 18.1442 67.0414 18.8135 67.8446C18.8753 67.927 19.5653 68.4316 19.5653 68.4316C19.936 68.617 20.1832 68.7509 20.6054 68.9156L40.7483 77.3497C41.7987 77.8337 42.2312 78.0191 42.9933 77.9985C43.7554 78.0088 44.1879 77.8234 45.2383 77.3497L65.3812 68.9156C65.8034 68.7509 66.0506 68.617 66.4213 68.4316C66.4213 68.4316 67.1113 67.9167 67.173 67.8446C67.8424 67.0414 67.863 66.3411 67.9351 65.6203C67.966 65.301 67.9866 64.9509 67.9866 64.5699V24.5414C67.9866 21.2255 66.7611 20 63.4452 20Z" fill="white"/>
<g id="Group_2">
<path id="Vector_4" d="M28.7848 40.1652H32.7598V37.0758H28.7848V30.794H32.9246V27.7046H25.3967V49.9483H32.9864V46.8692H28.7848V40.1652Z" fill="#333333"/>
<path id="Vector_5" d="M57.317 40.8241V45.8392C57.317 46.7249 56.9051 47.1368 56.0504 47.1368H55.4222C54.5365 47.1368 54.1246 46.7249 54.1246 45.8392V31.803C54.1246 30.9174 54.5365 30.5055 55.4222 30.5055H55.9886C56.8433 30.5055 57.2552 30.9174 57.2552 31.803V36.1591H60.5712V31.6177C60.5712 28.8578 59.2427 27.519 56.4932 27.519H54.8455C52.0959 27.519 50.7366 28.8887 50.7366 31.6486V46.004C50.7366 48.7639 52.0959 50.1335 54.8455 50.1335H56.5241C59.2736 50.1335 60.633 48.7639 60.633 46.004V40.8241H57.317Z" fill="#333333"/>
<path id="Vector_6" d="M48.9581 27.7046H45.5701V49.9483H48.9581V27.7046Z" fill="#333333"/>
<path id="Vector_7" d="M39.9222 27.7046H34.6084V49.9483H37.9861V41.8747H39.9119C42.6615 41.8747 44.0208 40.505 44.0208 37.7452V31.8341C44.0311 29.0742 42.6718 27.7046 39.9222 27.7046ZM40.6533 37.5907C40.6533 38.4763 40.2414 38.8985 39.3867 38.8985H37.9964V30.7013H39.3867C40.2414 30.7013 40.6533 31.1132 40.6533 31.9989V37.5907Z" fill="#333333"/>
</g>
<path id="Vector_8" fill-rule="evenodd" clip-rule="evenodd" d="M33.3782 70.05H52.7488L42.8627 73.3145L33.3782 70.05Z" fill="#333333"/>
<g id="Group_3">
<path id="Vector_9" d="M64.8013 76.2502C64.8013 75.3131 65.5118 74.6025 66.3975 74.6025C67.2934 74.6025 67.9937 75.3131 67.9937 76.2502C67.9937 77.1873 67.2831 77.8979 66.3975 77.8979C65.5118 77.8979 64.8013 77.1873 64.8013 76.2502ZM67.7053 76.2502C67.7053 75.4779 67.1286 74.8806 66.3975 74.8806C65.6663 74.8806 65.0896 75.4779 65.0896 76.2502C65.0896 77.0226 65.6663 77.6199 66.3975 77.6199C67.1286 77.6199 67.7053 77.0226 67.7053 76.2502ZM65.7487 75.3955H66.5107C66.8815 75.3955 67.108 75.5912 67.108 75.9104C67.108 76.1987 66.9433 76.3841 66.7064 76.4356L67.108 76.9711V77.0844H66.8403L66.3872 76.4665H66.0473V77.0844H65.759V75.3955H65.7487ZM66.5107 76.2193C66.6961 76.2193 66.83 76.1266 66.83 75.9413C66.83 75.7559 66.6961 75.6735 66.5107 75.6735H66.037V76.2193H66.5107Z" fill="white"/>
</g>
<g id="Group_4">
<path id="Vector_10" d="M28.8899 62.2243C28.3647 62.2243 27.8807 62.142 27.4379 61.9669C26.9951 61.7918 26.6038 61.555 26.2845 61.246C25.9653 60.9371 25.6975 60.5664 25.5122 60.1441C25.3268 59.7219 25.2341 59.2482 25.2341 58.7436V58.723C25.2341 58.2287 25.3268 57.7653 25.5122 57.3431C25.6975 56.9209 25.9447 56.5501 26.2639 56.2309C26.5832 55.9116 26.9642 55.6645 27.407 55.4894C27.8498 55.3144 28.3338 55.2217 28.8487 55.2217C29.446 55.2217 29.9609 55.3041 30.3934 55.4791C30.826 55.6542 31.2173 55.8911 31.5777 56.2L30.4861 57.5181C30.239 57.3122 29.9918 57.1577 29.7447 57.0444C29.4872 56.9312 29.1989 56.8797 28.8693 56.8797C28.6222 56.8797 28.3956 56.9312 28.1897 57.0238C27.9837 57.1165 27.7983 57.2504 27.6439 57.4152C27.4894 57.5799 27.3658 57.7756 27.2834 58.0021C27.1908 58.2287 27.1496 58.4656 27.1496 58.723V58.7436C27.1496 59.0114 27.1908 59.2585 27.2834 59.4954C27.3761 59.7219 27.4997 59.9279 27.6645 60.0926C27.8292 60.2574 28.0146 60.381 28.2412 60.4737C28.4574 60.5664 28.7046 60.6178 28.9723 60.6178C29.4048 60.6178 29.7653 60.5252 30.0433 60.3398V59.5263H28.7149V58.1566H31.8043V61.1945C31.4438 61.4932 31.0216 61.7403 30.5376 61.936C30.0536 62.1317 29.5078 62.2243 28.8899 62.2243Z" fill="#333333"/>
<path id="Vector_11" d="M35.2633 55.2959H37.0551L39.918 62.0823H37.9202L37.4259 60.8774H34.8308L34.3468 62.0823H32.3901L35.2633 55.2959ZM36.8904 59.4357L36.1386 57.5203L35.3766 59.4357H36.8904Z" fill="#333333"/>
<path id="Vector_12" d="M40.5613 55.3464H42.5282L44.1347 57.9518L45.7412 55.3464H47.7081V62.0916H45.8545V58.2196L44.1347 60.8559H44.0935L42.384 58.2402V62.0916H40.5613V55.3464Z" fill="#333333"/>
<path id="Vector_13" d="M48.946 55.3464H54.3525V56.9323H50.7894V57.9518H54.0127V59.4245H50.7894V60.4954H54.3937V62.0813H48.946V55.3464Z" fill="#333333"/>
<path id="Vector_14" d="M58.0469 62.2149C57.4496 62.2149 56.8729 62.1222 56.3374 61.9368C55.8019 61.7515 55.3179 61.4734 54.906 61.1027L55.9461 59.8566C56.6155 60.3921 57.3466 60.6702 58.1293 60.6702C58.3764 60.6702 58.5721 60.629 58.6957 60.5466C58.8296 60.4642 58.8913 60.3509 58.8913 60.2068V60.1759C58.8913 60.1038 58.8707 60.042 58.8399 59.9905C58.809 59.939 58.7472 59.8875 58.6648 59.836C58.5824 59.7845 58.4588 59.7331 58.3146 59.6919C58.1705 59.6404 57.9851 59.5992 57.7483 59.5477C57.3878 59.4653 57.0583 59.3726 56.7494 59.2696C56.4404 59.1667 56.1727 59.0431 55.9461 58.8886C55.7195 58.7341 55.5445 58.5385 55.4106 58.3016C55.2767 58.0648 55.2149 57.7764 55.2149 57.4263V57.3954C55.2149 57.0762 55.2767 56.7878 55.39 56.5304C55.5033 56.2626 55.6784 56.0361 55.9049 55.8507C56.1315 55.655 56.4095 55.5109 56.7288 55.4079C57.048 55.3049 57.4084 55.2534 57.8101 55.2534C58.3867 55.2534 58.9016 55.3255 59.3548 55.48C59.8079 55.6344 60.2095 55.8507 60.5802 56.1493L59.6534 57.4675C59.3445 57.2512 59.0355 57.0865 58.706 56.9732C58.3867 56.8599 58.0675 56.8084 57.7689 56.8084C57.5423 56.8084 57.3775 56.8496 57.2643 56.932C57.151 57.0144 57.0995 57.1174 57.0995 57.2409V57.2615C57.0995 57.3336 57.1201 57.4057 57.151 57.4675C57.1819 57.5293 57.2437 57.5808 57.3363 57.622C57.4187 57.6735 57.5423 57.7146 57.6865 57.7661C57.8409 57.8176 58.0263 57.8691 58.2529 57.9103C58.6339 57.9927 58.984 58.0957 59.293 58.2089C59.6019 58.3222 59.8697 58.4561 60.0859 58.6209C60.3022 58.7856 60.4669 58.971 60.5802 59.2079C60.6935 59.4344 60.7553 59.7022 60.7553 60.0214V60.042C60.7553 60.3921 60.6935 60.7011 60.5596 60.9688C60.4257 61.2366 60.2404 61.4631 60.0035 61.6588C59.7667 61.8442 59.4783 61.9883 59.1488 62.0913C58.8296 62.1634 58.4588 62.2149 58.0469 62.2149Z" fill="#333333"/>
</g>
</g>
</g>
<defs>
<filter id="filter0_b_2922_2179" x="-14" y="-21" width="114" height="135" filterUnits="userSpaceOnUse" color-interpolation-filters="sRGB">
<feFlood flood-opacity="0" result="BackgroundImageFix"/>
<feGaussianBlur in="BackgroundImageFix" stdDeviation="10.5"/>
<feComposite in2="SourceAlpha" operator="in" result="effect1_backgroundBlur_2922_2179"/>
<feBlend mode="normal" in="SourceGraphic" in2="effect1_backgroundBlur_2922_2179" result="shape"/>
</filter>
<linearGradient id="paint0_linear_2922_2179" x1="43" y1="46" x2="43" y2="120" gradientUnits="userSpaceOnUse">
<stop stop-color="#333333" stop-opacity="0.54"/>
<stop offset="1" stop-color="#141414" stop-opacity="0.64"/>
</linearGradient>
</defs>
</svg>
