<svg width="106" height="34" viewBox="0 0 106 34" fill="none" xmlns="http://www.w3.org/2000/svg">
<g clip-path="url(#clip0_967_1944)">
<path d="M101.801 4.54128C100.147 1.72936 97.1068 0 93.8211 0H53.0023H12.1789C8.89319 0 5.8531 1.72936 4.19403 4.54128L0 11.656H52.9977H105.995L101.801 4.54128Z" fill="#C1272D"/>
<path d="M101.799 4.54587C100.144 1.72936 97.0995 0 93.8091 0H12.1808C8.89049 0 5.8504 1.72936 4.19132 4.54587L3.84375 5.13761C4.04766 4.84404 6.5409 1.33945 7.19897 5.50459C7.21751 5.60092 7.23605 5.70642 7.24995 5.82569C7.52337 7.92202 7.96826 9.8578 8.54755 11.656C15.0124 31.867 38.6982 34 52.995 34C67.2964 34 90.9776 31.8624 97.447 11.656C98.0263 9.8578 98.4666 7.92661 98.7446 5.82569C98.7539 5.71101 98.7724 5.60092 98.7956 5.50459C99.4537 1.33486 101.947 4.84404 102.151 5.13761L101.799 4.54587Z" fill="url(#paint0_linear_967_1944)"/>
</g>
<path d="M32.5314 12.668H35.2914V14H30.8514V5.624H32.5314V12.668ZM37.2113 6.56C36.9153 6.56 36.6673 6.468 36.4673 6.284C36.2753 6.092 36.1793 5.856 36.1793 5.576C36.1793 5.296 36.2753 5.064 36.4673 4.88C36.6673 4.688 36.9153 4.592 37.2113 4.592C37.5073 4.592 37.7513 4.688 37.9433 4.88C38.1433 5.064 38.2433 5.296 38.2433 5.576C38.2433 5.856 38.1433 6.092 37.9433 6.284C37.7513 6.468 37.5073 6.56 37.2113 6.56ZM38.0393 7.352V14H36.3593V7.352H38.0393ZM47.9551 7.256C48.7711 7.256 49.4271 7.508 49.9231 8.012C50.4271 8.508 50.6791 9.204 50.6791 10.1V14H48.9991V10.328C48.9991 9.808 48.8671 9.412 48.6031 9.14C48.3391 8.86 47.9791 8.72 47.5231 8.72C47.0671 8.72 46.7031 8.86 46.4311 9.14C46.1671 9.412 46.0351 9.808 46.0351 10.328V14H44.3551V10.328C44.3551 9.808 44.2231 9.412 43.9591 9.14C43.6951 8.86 43.3351 8.72 42.8791 8.72C42.4151 8.72 42.0471 8.86 41.7751 9.14C41.5111 9.412 41.3791 9.808 41.3791 10.328V14H39.6991V7.352H41.3791V8.156C41.5951 7.876 41.8711 7.656 42.2071 7.496C42.5511 7.336 42.9271 7.256 43.3351 7.256C43.8551 7.256 44.3191 7.368 44.7271 7.592C45.1351 7.808 45.4511 8.12 45.6751 8.528C45.8911 8.144 46.2031 7.836 46.6111 7.604C47.0271 7.372 47.4751 7.256 47.9551 7.256ZM53.1253 6.56C52.8293 6.56 52.5813 6.468 52.3813 6.284C52.1893 6.092 52.0933 5.856 52.0933 5.576C52.0933 5.296 52.1893 5.064 52.3813 4.88C52.5813 4.688 52.8293 4.592 53.1253 4.592C53.4213 4.592 53.6653 4.688 53.8573 4.88C54.0573 5.064 54.1573 5.296 54.1573 5.576C54.1573 5.856 54.0573 6.092 53.8573 6.284C53.6653 6.468 53.4213 6.56 53.1253 6.56ZM53.9533 7.352V14H52.2733V7.352H53.9533ZM57.5692 8.732V11.948C57.5692 12.172 57.6212 12.336 57.7252 12.44C57.8372 12.536 58.0212 12.584 58.2772 12.584H59.0572V14H58.0012C56.5852 14 55.8772 13.312 55.8772 11.936V8.732H55.0852V7.352H55.8772V5.708H57.5692V7.352H59.0572V8.732H57.5692ZM66.4455 10.532C66.4455 10.772 66.4295 10.988 66.3975 11.18H61.5375C61.5775 11.66 61.7455 12.036 62.0415 12.308C62.3375 12.58 62.7015 12.716 63.1335 12.716C63.7575 12.716 64.2015 12.448 64.4655 11.912H66.2775C66.0855 12.552 65.7175 13.08 65.1735 13.496C64.6295 13.904 63.9615 14.108 63.1695 14.108C62.5295 14.108 61.9535 13.968 61.4415 13.688C60.9375 13.4 60.5415 12.996 60.2535 12.476C59.9735 11.956 59.8335 11.356 59.8335 10.676C59.8335 9.988 59.9735 9.384 60.2535 8.864C60.5335 8.344 60.9255 7.944 61.4295 7.664C61.9335 7.384 62.5135 7.244 63.1695 7.244C63.8015 7.244 64.3655 7.38 64.8615 7.652C65.3655 7.924 65.7535 8.312 66.0255 8.816C66.3055 9.312 66.4455 9.884 66.4455 10.532ZM64.7055 10.052C64.6975 9.62 64.5415 9.276 64.2375 9.02C63.9335 8.756 63.5615 8.624 63.1215 8.624C62.7055 8.624 62.3535 8.752 62.0655 9.008C61.7855 9.256 61.6135 9.604 61.5495 10.052H64.7055ZM67.2397 10.652C67.2397 9.98 67.3717 9.384 67.6357 8.864C67.9078 8.344 68.2758 7.944 68.7398 7.664C69.2038 7.384 69.7198 7.244 70.2878 7.244C70.7198 7.244 71.1318 7.34 71.5238 7.532C71.9158 7.716 72.2278 7.964 72.4598 8.276V5.12H74.1638V14H72.4598V13.016C72.2518 13.344 71.9598 13.608 71.5838 13.808C71.2078 14.008 70.7718 14.108 70.2758 14.108C69.7158 14.108 69.2038 13.964 68.7398 13.676C68.2758 13.388 67.9078 12.984 67.6357 12.464C67.3717 11.936 67.2397 11.332 67.2397 10.652ZM72.4718 10.676C72.4718 10.268 72.3918 9.92 72.2318 9.632C72.0718 9.336 71.8558 9.112 71.5838 8.96C71.3118 8.8 71.0198 8.72 70.7078 8.72C70.3958 8.72 70.1078 8.796 69.8438 8.948C69.5798 9.1 69.3638 9.324 69.1958 9.62C69.0358 9.908 68.9558 10.252 68.9558 10.652C68.9558 11.052 69.0358 11.404 69.1958 11.708C69.3638 12.004 69.5798 12.232 69.8438 12.392C70.1158 12.552 70.4038 12.632 70.7078 12.632C71.0198 12.632 71.3118 12.556 71.5838 12.404C71.8558 12.244 72.0718 12.02 72.2318 11.732C72.3918 11.436 72.4718 11.084 72.4718 10.676ZM41.2977 20.732V23.948C41.2977 24.172 41.3497 24.336 41.4537 24.44C41.5657 24.536 41.7497 24.584 42.0057 24.584H42.7857V26H41.7297C40.3137 26 39.6057 25.312 39.6057 23.936V20.732H38.8137V19.352H39.6057V17.708H41.2977V19.352H42.7857V20.732H41.2977ZM44.846 18.56C44.55 18.56 44.302 18.468 44.102 18.284C43.91 18.092 43.814 17.856 43.814 17.576C43.814 17.296 43.91 17.064 44.102 16.88C44.302 16.688 44.55 16.592 44.846 16.592C45.142 16.592 45.386 16.688 45.578 16.88C45.778 17.064 45.878 17.296 45.878 17.576C45.878 17.856 45.778 18.092 45.578 18.284C45.386 18.468 45.142 18.56 44.846 18.56ZM45.674 19.352V26H43.994V19.352H45.674ZM55.5899 19.256C56.4059 19.256 57.0619 19.508 57.5579 20.012C58.0619 20.508 58.3139 21.204 58.3139 22.1V26H56.6339V22.328C56.6339 21.808 56.5019 21.412 56.2379 21.14C55.9739 20.86 55.6139 20.72 55.1579 20.72C54.7019 20.72 54.3379 20.86 54.0659 21.14C53.8019 21.412 53.6699 21.808 53.6699 22.328V26H51.9899V22.328C51.9899 21.808 51.8579 21.412 51.5939 21.14C51.3299 20.86 50.9699 20.72 50.5139 20.72C50.0499 20.72 49.6819 20.86 49.4099 21.14C49.1459 21.412 49.0139 21.808 49.0139 22.328V26H47.3339V19.352H49.0139V20.156C49.2299 19.876 49.5059 19.656 49.8419 19.496C50.1859 19.336 50.5619 19.256 50.9699 19.256C51.4899 19.256 51.9539 19.368 52.3619 19.592C52.7699 19.808 53.0859 20.12 53.3099 20.528C53.5259 20.144 53.8379 19.836 54.2459 19.604C54.6619 19.372 55.1099 19.256 55.5899 19.256ZM66.0881 22.532C66.0881 22.772 66.0721 22.988 66.0401 23.18H61.1801C61.2201 23.66 61.3881 24.036 61.6841 24.308C61.9801 24.58 62.3441 24.716 62.7761 24.716C63.4001 24.716 63.8441 24.448 64.1081 23.912H65.9201C65.7281 24.552 65.3601 25.08 64.8161 25.496C64.2721 25.904 63.6041 26.108 62.8121 26.108C62.1721 26.108 61.5961 25.968 61.0841 25.688C60.5801 25.4 60.1841 24.996 59.8961 24.476C59.6161 23.956 59.4761 23.356 59.4761 22.676C59.4761 21.988 59.6161 21.384 59.8961 20.864C60.1761 20.344 60.5681 19.944 61.0721 19.664C61.5761 19.384 62.1561 19.244 62.8121 19.244C63.4441 19.244 64.0081 19.38 64.5041 19.652C65.0081 19.924 65.3961 20.312 65.6681 20.816C65.9481 21.312 66.0881 21.884 66.0881 22.532ZM64.3481 22.052C64.3401 21.62 64.1841 21.276 63.8801 21.02C63.5761 20.756 63.2041 20.624 62.7641 20.624C62.3481 20.624 61.9961 20.752 61.7081 21.008C61.4281 21.256 61.2561 21.604 61.1921 22.052H64.3481Z" fill="white"/>
<defs>
<linearGradient id="paint0_linear_967_1944" x1="52.9965" y1="36.8006" x2="52.9965" y2="-0.0164585" gradientUnits="userSpaceOnUse">
<stop stop-color="#B3140E"/>
<stop offset="0.3798" stop-color="#D9281E"/>
<stop offset="0.437" stop-color="#E03027"/>
<stop offset="0.5623" stop-color="#EA3D35"/>
<stop offset="0.6697" stop-color="#EE413A"/>
<stop offset="1" stop-color="#FD5B47"/>
</linearGradient>
<clipPath id="clip0_967_1944">
<rect width="106" height="34" fill="white"/>
</clipPath>
</defs>
</svg>
