<svg width="32" height="32" viewBox="0 0 32 32" fill="none" xmlns="http://www.w3.org/2000/svg">
<path d="M20.2227 14.5335C21.8231 13.2768 22.8554 11.3305 22.8554 9.14305C22.8554 5.36196 19.7796 2.28613 15.9985 2.28613C12.2173 2.28613 9.14157 5.3619 9.14157 9.14305C9.14157 11.3305 10.175 13.2768 11.7743 14.5335C7.56014 16.2176 4.57031 20.3347 4.57031 25.1425V27.4281C4.57031 28.0598 5.08146 28.5709 5.71317 28.5709H26.2839C26.9156 28.5709 27.4267 28.0598 27.4267 27.4281V25.1425C27.4267 20.3335 24.438 16.2176 20.2227 14.5335ZM15.9985 4.57179C18.5197 4.57179 20.5699 6.6219 20.5699 9.14305C20.5699 11.6642 18.5197 13.7144 15.9985 13.7144C13.4774 13.7144 11.4272 11.6642 11.4272 9.14305C11.4272 6.6219 13.4774 4.57179 15.9985 4.57179ZM25.1411 26.2853H6.85597V25.1425C6.85597 20.1014 10.9574 16 15.9996 16C21.0407 16 25.141 20.1014 25.141 25.1425L25.1411 26.2853Z" fill="white"/>
<path d="M8.34903 14.9312C8.38029 14.862 8.38029 14.7883 8.39589 14.7169C8.40703 14.6733 8.41931 14.6321 8.42491 14.5863C8.43383 14.4959 8.42829 14.41 8.416 14.3219C8.41154 14.275 8.42269 14.2303 8.41154 14.1835C8.40486 14.1567 8.38589 14.1377 8.37806 14.1109C8.36023 14.0596 8.33566 14.0138 8.31109 13.9658C8.26423 13.8676 8.21286 13.7783 8.14257 13.6991C8.13251 13.688 8.12023 13.6801 8.10909 13.669C8.00531 13.5607 7.88589 13.4781 7.74971 13.419C6.51314 12.8677 5.71406 11.64 5.71406 10.2874C5.71406 8.69591 6.79211 7.32545 8.33669 6.9538C8.95051 6.80534 9.32771 6.1882 9.1804 5.57437C9.03086 4.96054 8.41143 4.5878 7.80097 4.73065C5.22629 5.35117 3.42834 7.63677 3.42834 10.2874C3.42834 11.7338 3.97857 13.0897 4.91383 14.1209C1.93966 15.6621 0 18.7446 0 22.2323V24.0001C0 24.6317 0.511143 25.1429 1.1428 25.1429C1.77446 25.1429 2.28566 24.6317 2.28566 24.0001V22.2323C2.28566 19.0716 4.41057 16.3597 7.45954 15.5919C7.83897 15.5383 8.18383 15.3073 8.34903 14.9312Z" fill="white"/>
<path d="M27.0819 14.1201C28.0171 13.0889 28.5672 11.7329 28.5672 10.2866C28.5672 7.70521 26.8285 5.43521 24.3386 4.7667C23.7304 4.60372 23.1032 4.96424 22.938 5.57361C22.7739 6.18407 23.1355 6.81018 23.7449 6.97424C25.2381 7.37487 26.2816 8.73755 26.2816 10.2866C26.2816 11.6393 25.4836 12.8647 24.2482 13.4171C24.1099 13.4774 23.9882 13.5611 23.8833 13.6705C23.8744 13.6805 23.8632 13.6872 23.8543 13.6973C23.7828 13.7765 23.7315 13.868 23.6835 13.9673C23.6601 14.0153 23.6344 14.06 23.6177 14.1102C23.6099 14.1358 23.5909 14.156 23.5842 14.1828C23.5731 14.2296 23.5842 14.2743 23.5797 14.3212C23.5675 14.4093 23.5619 14.4953 23.5708 14.5856C23.5764 14.6314 23.5887 14.6726 23.5999 14.7162C23.6155 14.7876 23.6155 14.8613 23.6467 14.9305C23.8119 15.3066 24.1567 15.5376 24.5361 15.5912C27.5851 16.359 29.7101 19.0709 29.7101 22.2316V23.9994C29.7101 24.631 30.2212 25.1422 30.8529 25.1422C31.4845 25.1422 31.9957 24.631 31.9957 23.9994V22.2316C31.9957 18.7438 30.0561 15.6614 27.0819 14.1201Z" fill="white"/>
</svg>
