<svg width="44" height="30" viewBox="0 0 44 30" fill="none" xmlns="http://www.w3.org/2000/svg">
<g clip-path="url(#clip0_966_680)">
<path d="M0 0.222656H43.4353V29.1789H0V0.222656Z" fill="white"/>
<path d="M43.4353 0.222656V14.7008H21.7177L0 0.222656H43.4353Z" fill="#0052B4"/>
<path d="M43.4353 14.7002V29.1783H0L21.7177 14.7002H43.4353Z" fill="#D80027"/>
<path d="M13.7372 14.7005L11.4223 13.6116L12.6551 11.3696L10.1413 11.8505L9.82272 9.3111L8.07173 11.1787L6.32083 9.3111L6.00228 11.8505L3.48854 11.3695L4.72128 13.6115L2.40631 14.7005L4.72128 15.7893L3.48854 18.0313L6.00245 17.5505L6.32083 20.0898L8.07173 18.2222L9.82272 20.0898L10.1413 17.5505L12.655 18.0314L11.4222 15.7895L13.7372 14.7005ZM1.8503 2.95996L2.62069 4.03702L3.88294 3.63711L3.09669 4.70263L3.86708 5.77952L2.61076 5.36112L1.82451 6.42656L1.83444 5.10246L0.578125 4.68388L1.84046 4.28414L1.8503 2.95996ZM1.8503 22.9744L2.62069 24.0515L3.88294 23.6515L3.09669 24.7171L3.86708 25.794L2.61076 25.3756L1.82451 26.4409L1.83444 25.1169L0.578125 24.6983L1.84046 24.2986L1.8503 22.9744ZM17.8506 12.9672L17.0802 14.0442L15.818 13.6444L16.6042 14.7098L15.8338 15.7869L17.0902 15.3684L17.8764 16.4337L17.8665 15.1097L19.1228 14.6911L17.8605 14.2913L17.8506 12.9672Z" fill="#FFDA44"/>
</g>
<defs>
<clipPath id="clip0_966_680">
<rect width="43.4353" height="28.9568" fill="white" transform="translate(0 0.22168)"/>
</clipPath>
</defs>
</svg>
