<svg width="106" height="34" viewBox="0 0 106 34" fill="none" xmlns="http://www.w3.org/2000/svg">
<path d="M101.801 4.54128C100.147 1.72936 97.1068 0 93.8211 0H53.0023H12.1789C8.89319 0 5.8531 1.72936 4.19403 4.54128L0 11.656H52.9977H105.995L101.801 4.54128Z" fill="#C1272D"/>
<path d="M101.799 4.54587C100.144 1.72936 97.0995 0 93.8091 0H12.1808C8.89049 0 5.8504 1.72936 4.19132 4.54587L3.84375 5.13761C4.04766 4.84404 6.5409 1.33945 7.19897 5.50459C7.21751 5.60092 7.23605 5.70642 7.24995 5.82569C7.52337 7.92202 7.96826 9.8578 8.54755 11.656C15.0124 31.867 38.6982 34 52.995 34C67.2964 34 90.9776 31.8624 97.447 11.656C98.0263 9.8578 98.4666 7.92661 98.7446 5.82569C98.7539 5.71101 98.7724 5.60092 98.7956 5.50459C99.4537 1.33486 101.947 4.84404 102.151 5.13761L101.799 4.54587Z" fill="url(#paint0_linear_888_10413)"/>
<defs>
<linearGradient id="paint0_linear_888_10413" x1="52.9965" y1="36.8006" x2="52.9965" y2="-0.0164585" gradientUnits="userSpaceOnUse">
<stop stop-color="#B3140E"/>
<stop offset="0.3798" stop-color="#D9281E"/>
<stop offset="0.437" stop-color="#E03027"/>
<stop offset="0.5623" stop-color="#EA3D35"/>
<stop offset="0.6697" stop-color="#EE413A"/>
<stop offset="1" stop-color="#FD5B47"/>
</linearGradient>
</defs>
</svg>
