<svg width="25" height="22" viewBox="0 0 25 22" fill="none" xmlns="http://www.w3.org/2000/svg">
<path d="M1.71318 9.75691C8.41741 6.83489 12.8882 4.90617 15.1255 3.97074C21.5134 1.31489 22.8414 0.851993 23.7064 0.837528C24.024 0.830508 24.3357 0.923632 24.5975 1.1037C24.7804 1.26284 24.897 1.48477 24.9244 1.72571C24.9707 2.02519 24.9834 2.32894 24.962 2.63124C24.6148 6.26785 23.1191 15.0946 22.3582 19.1681C22.0371 20.904 21.4006 21.4826 20.7873 21.526C19.4507 21.6475 18.4381 20.6436 17.1449 19.7901C15.1197 18.4622 13.977 17.6377 12.0126 16.3416C9.74148 14.8458 11.2141 14.0271 12.5073 12.6789C12.8458 12.326 18.7303 6.97376 18.846 6.48772C18.8613 6.41609 18.8596 6.34188 18.841 6.27104C18.8224 6.2002 18.7874 6.1347 18.739 6.0798C18.6687 6.03506 18.5888 6.00754 18.5058 5.9995C18.4229 5.99146 18.3392 6.00311 18.2616 6.03351C18.0591 6.0798 14.8256 8.21682 8.56111 12.4446C7.64304 13.0753 6.81176 13.3819 6.06727 13.3646C5.24564 13.3472 3.66601 12.9017 2.49142 12.5198C1.04488 12.0511 -0.0949971 11.8052 0.00626079 11.0096C0.0544788 10.6084 0.62345 10.1909 1.71318 9.75691Z" fill="white"/>
</svg>
