<svg width="375" height="95" viewBox="0 0 375 95" fill="none" xmlns="http://www.w3.org/2000/svg">
<mask id="mask0_967_1713" style="mask-type:alpha" maskUnits="userSpaceOnUse" x="0" y="0" width="375" height="95">
<path d="M363 0H12C5.37258 0 0 5.37258 0 12V83C0 89.6274 5.37259 95 12 95H363C369.627 95 375 89.6274 375 83V12C375 5.37258 369.627 0 363 0Z" fill="url(#paint0_radial_967_1713)"/>
</mask>
<g mask="url(#mask0_967_1713)">
<path d="M399 -43H-24C-30.6274 -43 -36 -37.6274 -36 -31V126C-36 132.627 -30.6274 138 -24 138H399C405.627 138 411 132.627 411 126V-31C411 -37.6274 405.627 -43 399 -43Z" fill="url(#paint1_radial_967_1713)"/>
<path d="M289.775 90.0002L288.175 87.9002L290.275 86.3002L289.075 84.7002L286.975 86.3002L285.375 84.2002L283.875 85.4002L285.475 87.5002L283.375 89.1002L284.475 90.6002L286.575 89.1002L288.175 91.2002L289.775 90.0002Z" stroke="#99F1FF" stroke-miterlimit="10"/>
<path d="M15.2781 -11L11.0781 -4.1L4.17813 -8.3L1.07812 -3.2L7.97812 1L3.77812 7.8L8.87813 10.9L13.0781 4.1L19.8781 8.2L22.9781 3.1L16.1781 -1L20.3781 -7.9L15.2781 -11Z" stroke="#99F1FF" stroke-miterlimit="10"/>
<path d="M339.081 64.4L331.481 67.1L328.881 59.5L323.181 61.4L325.781 69L318.281 71.6L320.181 77.3L327.781 74.7L330.381 82.2L336.081 80.3L333.381 72.7L340.981 70.1L339.081 64.4Z" stroke="#99F1FF" stroke-miterlimit="10"/>
<path d="M84.3797 94.4996L78.6797 97.2996L75.8797 91.5996L71.5797 93.6996L74.3797 99.3996L68.6797 102.2L70.7797 106.5L76.4797 103.7L79.2797 109.4L83.5797 107.3L80.7797 101.6L86.4797 98.7996L84.3797 94.4996Z" stroke="#99F1FF" stroke-miterlimit="10"/>
<path d="M57.0812 17.6004L53.3812 20.7004L50.2812 16.9004L47.4812 19.2004L50.5812 22.9004L46.7812 26.0004L49.0812 28.8004L52.7812 25.7004L55.8812 29.5004L58.6812 27.2004L55.5812 23.5004L59.3812 20.4004L57.0812 17.6004Z" stroke="#99F1FF" stroke-miterlimit="10"/>
<path d="M345.878 17.6004L342.078 20.7004L339.078 16.9004L336.278 19.2004L339.278 22.9004L335.578 26.0004L337.778 28.8004L341.578 25.7004L344.678 29.5004L347.478 27.2004L344.378 23.5004L348.178 20.4004L345.878 17.6004Z" stroke="#99F1FF" stroke-miterlimit="10"/>
<path d="M15.3797 81.6996L10.8797 79.8996L12.6797 75.3996L9.27969 74.0996L7.47969 78.5996L2.97969 76.7996L1.67969 80.1996L6.17969 81.8996L4.37969 86.4996L7.77969 87.7996L9.57969 83.2996L14.0797 84.9996L15.3797 81.6996Z" stroke="#99F1FF" stroke-miterlimit="10"/>
<path d="M356.773 77.3002L359.473 72.2002L364.873 74.9002L367.573 69.5002L373.173 72.2002L375.973 66.7002L381.673 69.7002" stroke="#00FECF" stroke-miterlimit="10"/>
<path d="M358.172 81.3998L360.772 76.2998L366.172 79.0998L368.872 73.5998L374.472 76.2998L377.272 70.7998L382.972 73.7998" stroke="#00FECF" stroke-miterlimit="10"/>
<path d="M310.502 1.7002C310.202 1.8002 309.902 1.90019 309.602 2.10019L325.902 14.6002C326.002 14.3002 326.002 13.9002 326.002 13.6002L310.502 1.7002Z" fill="#E36EFF"/>
<path d="M312.797 1.09961C312.497 1.09961 312.197 1.19961 311.797 1.29961L325.897 12.1996C325.897 11.8996 325.897 11.5996 325.797 11.1996L312.797 1.09961Z" fill="#E36EFF"/>
<path d="M316.002 1.1C315.502 0.999999 315.102 1 314.602 1L325.602 9.5C325.502 9.1 325.302 8.6 325.202 8.2L316.002 1.1Z" fill="#E36EFF"/>
<path d="M308.498 2.7002C308.298 2.8002 308.098 3.00019 307.898 3.10019L325.298 16.5002C325.398 16.3002 325.498 16.0002 325.498 15.8002L308.498 2.7002Z" fill="#E36EFF"/>
<path d="M318.898 1.7998L323.698 5.4998C323.098 4.6998 322.398 3.9998 321.598 3.2998C320.698 2.6998 319.798 2.1998 318.898 1.7998Z" fill="#E36EFF"/>
<path d="M324.498 18.2004C324.598 18.0004 324.698 17.8004 324.798 17.6004L306.898 3.90039C306.698 4.10039 306.598 4.20039 306.398 4.40039L324.498 18.2004Z" fill="#E36EFF"/>
<path d="M305.602 5.2002C305.502 5.3002 305.502 5.40019 305.402 5.50019C305.302 5.60019 305.202 5.7002 305.102 5.9002L323.302 19.9002C323.402 19.8002 323.502 19.7002 323.602 19.6002C323.702 19.5002 323.702 19.4002 323.802 19.3002L305.602 5.2002Z" fill="#E36EFF"/>
<path d="M304.503 6.7998C304.403 6.9998 304.303 7.1998 304.203 7.4998L322.003 21.1998C322.203 20.9998 322.403 20.8998 322.503 20.6998L304.503 6.7998Z" fill="#E36EFF"/>
<path d="M313.298 23.9C313.698 23.9 314.098 24 314.498 24L303.398 15.5C303.498 15.9 303.598 16.3 303.798 16.6L313.298 23.9Z" fill="#E36EFF"/>
<path d="M303.7 8.59961C303.6 8.79961 303.5 9.09961 303.5 9.29961L320.5 22.2996C320.7 22.1996 320.9 21.9996 321.1 21.8996L303.7 8.59961Z" fill="#E36EFF"/>
<path d="M305.102 19.0996C305.802 19.9996 306.602 20.8996 307.502 21.5996C308.502 22.2996 309.502 22.8996 310.502 23.2996L305.102 19.0996Z" fill="#E36EFF"/>
<path d="M303 12.7998C303 13.0998 303 13.3998 303.1 13.7998L316.3 23.7998C316.6 23.7998 316.9 23.6998 317.3 23.5998L303 12.7998Z" fill="#E36EFF"/>
<path d="M303.202 10.5C303.202 10.8 303.102 11.1 303.102 11.3L318.602 23.2C318.902 23.1 319.102 23 319.402 22.9L303.202 10.5Z" fill="#E36EFF"/>
<path d="M362.097 36.5996C361.797 36.6996 361.597 36.7996 361.297 36.8996L374.597 47.0996C374.697 46.7996 374.697 46.5996 374.697 46.2996L362.097 36.5996Z" fill="#E36EFF"/>
<path d="M364.003 36.0996C363.703 36.0996 363.503 36.1996 363.203 36.1996L374.703 44.9996C374.703 44.6996 374.703 44.4996 374.603 44.1996L364.003 36.0996Z" fill="#E36EFF"/>
<path d="M366.498 36.1C366.098 36.1 365.698 36 365.398 36L374.398 42.9C374.298 42.5 374.198 42.2 373.998 41.8L366.498 36.1Z" fill="#E36EFF"/>
<path d="M360.398 37.4004C360.198 37.5004 359.998 37.6004 359.898 37.7004L374.098 48.7004C374.198 48.5004 374.198 48.3004 374.298 48.1004L360.398 37.4004Z" fill="#E36EFF"/>
<path d="M368.898 36.7002L372.798 39.7002C372.298 39.1002 371.698 38.5002 370.998 37.9002C370.398 37.5002 369.698 37.0002 368.898 36.7002Z" fill="#E36EFF"/>
<path d="M373.503 50.1004C373.603 49.9004 373.703 49.8004 373.803 49.6004L359.103 38.4004C359.003 38.5004 358.803 38.7004 358.703 38.8004L373.503 50.1004Z" fill="#E36EFF"/>
<path d="M358.103 39.5C358.003 39.6 358.003 39.6 357.903 39.7C357.803 39.8 357.803 39.9 357.703 40L372.503 51.4C372.603 51.3 372.703 51.2 372.703 51.1C372.803 51 372.803 51 372.903 50.9L358.103 39.5Z" fill="#E36EFF"/>
<path d="M357.198 40.7998C357.098 40.9998 356.998 41.1998 356.898 41.2998L371.498 52.4998C371.698 52.3998 371.798 52.1998 371.898 52.0998L357.198 40.7998Z" fill="#E36EFF"/>
<path d="M364.398 54.7004C364.698 54.7004 364.998 54.8004 365.398 54.8004L356.398 47.9004C356.498 48.2004 356.598 48.5004 356.698 48.8004L364.398 54.7004Z" fill="#E36EFF"/>
<path d="M356.497 42.2002C356.397 42.4002 356.397 42.6002 356.297 42.8002L370.097 53.4002C370.297 53.3002 370.397 53.2002 370.597 53.1002L356.497 42.2002Z" fill="#E36EFF"/>
<path d="M357.703 50.7998C358.203 51.5998 358.903 52.1998 359.703 52.7998C360.503 53.3998 361.303 53.7998 362.203 54.1998L357.703 50.7998Z" fill="#E36EFF"/>
<path d="M356 45.7002C356 46.0002 356 46.2002 356.1 46.5002L366.8 54.7002C367.1 54.7002 367.3 54.6002 367.6 54.5002L356 45.7002Z" fill="#E36EFF"/>
<path d="M356.1 43.7998C356.1 43.9998 356 44.2998 356 44.4998L368.6 54.1998C368.8 54.0998 369 53.9998 369.2 53.8998L356.1 43.7998Z" fill="#E36EFF"/>
<path d="M88.8016 12.5C88.7016 12.3 88.6016 12.1 88.4016 12L82.6016 23.9C82.8016 23.9 83.0016 23.9 83.2016 23.9L88.8016 12.5Z" fill="#E36EFF"/>
<path d="M89.5031 13.8998C89.4031 13.6998 89.3031 13.4998 89.3031 13.2998L84.2031 23.6998C84.4031 23.6998 84.6031 23.5998 84.8031 23.4998L89.5031 13.8998Z" fill="#E36EFF"/>
<path d="M89.8969 15.9C89.8969 15.6 89.7969 15.3 89.7969 15L85.7969 23.1C86.0969 23 86.2969 22.8 86.5969 22.6L89.8969 15.9Z" fill="#E36EFF"/>
<path d="M87.9031 11.3004C87.8031 11.2004 87.7031 11.1004 87.5031 10.9004L81.2031 23.7004C81.4031 23.7004 81.5031 23.7004 81.7031 23.8004L87.9031 11.3004Z" fill="#E36EFF"/>
<path d="M89.8016 17.7998L88.1016 21.2998C88.5016 20.7998 88.9016 20.2998 89.2016 19.6998C89.4016 19.0998 89.6016 18.4998 89.8016 17.7998Z" fill="#E36EFF"/>
<path d="M80.1016 23.5002C80.2016 23.5002 80.4016 23.6002 80.5016 23.6002L86.9016 10.5002C86.8016 10.4002 86.7016 10.3002 86.5016 10.2002L80.1016 23.5002Z" fill="#E36EFF"/>
<path d="M85.8984 9.79961C85.7984 9.79961 85.7984 9.69961 85.6984 9.69961C85.5984 9.69961 85.4984 9.59961 85.3984 9.59961L78.8984 22.8996C78.9984 22.8996 79.0984 22.9996 79.1984 22.9996C79.2984 22.9996 79.2984 23.0996 79.3984 23.0996L85.8984 9.79961Z" fill="#E36EFF"/>
<path d="M84.7984 9.39981C84.5984 9.39981 84.4984 9.2998 84.2984 9.2998L77.8984 22.3998C77.9984 22.4998 78.1984 22.5998 78.2984 22.6998L84.7984 9.39981Z" fill="#E36EFF"/>
<path d="M75 17.0998C75 17.3998 75.1 17.5998 75.1 17.8998L79.1 9.7998C78.9 9.8998 78.6 9.99981 78.4 10.1998L75 17.0998Z" fill="#E36EFF"/>
<path d="M83.4984 9.1C83.2984 9.1 83.1984 9.1 82.9984 9L76.8984 21.4C76.9984 21.5 77.0984 21.6 77.1984 21.7L83.4984 9.1Z" fill="#E36EFF"/>
<path d="M77.1016 11.2998C76.6016 11.7998 76.2016 12.4998 75.8016 13.0998C75.5016 13.7998 75.2016 14.4998 75.1016 15.1998L77.1016 11.2998Z" fill="#E36EFF"/>
<path d="M80.8 9.2002C80.6 9.2002 80.4 9.3002 80.2 9.4002L75.5 19.0002C75.6 19.2002 75.7 19.4002 75.7 19.6002L80.8 9.2002Z" fill="#E36EFF"/>
<path d="M82.2016 9C82.0016 9 81.8016 9 81.7016 9L76.1016 20.3C76.2016 20.5 76.3016 20.6 76.4016 20.8L82.2016 9Z" fill="#E36EFF"/>
<path d="M32.4783 43.8C31.8783 44 31.2783 43.7 31.0783 43.2C30.8783 42.6 31.1783 42 31.6783 41.8C32.2783 41.6 32.8783 41.8999 33.0783 42.3999C33.2783 42.9999 33.0783 43.6 32.4783 43.8Z" fill="#99F1FF"/>
<path d="M33.6736 46.8C33.0736 47 32.4736 46.7 32.2736 46.2C32.0736 45.6 32.3736 45 32.8736 44.8C33.4736 44.6 34.0736 44.8999 34.2736 45.3999C34.4736 45.9999 34.1736 46.6 33.6736 46.8Z" fill="#99F1FF"/>
<path d="M34.7751 49.8C34.1751 50 33.5751 49.7 33.3751 49.2C33.1751 48.6 33.4751 48 33.9751 47.8C34.5751 47.6 35.1751 47.8999 35.3751 48.3999C35.5751 48.8999 35.3751 49.6 34.7751 49.8Z" fill="#99F1FF"/>
<path d="M35.9783 53.0001C35.3783 53.2001 34.7783 52.9001 34.5783 52.4001C34.3783 51.8001 34.6783 51.2001 35.1783 51.0001C35.7783 50.8001 36.3783 51.1001 36.5783 51.6001C36.8783 52.2001 36.5783 52.8001 35.9783 53.0001Z" fill="#99F1FF"/>
<path d="M37.1736 56.0001C36.5736 56.2001 35.9736 55.9001 35.7736 55.4001C35.5736 54.8001 35.8736 54.2001 36.3736 54.0001C36.9736 53.8001 37.5736 54.1001 37.7736 54.6001C37.9736 55.2001 37.6736 55.8001 37.1736 56.0001Z" fill="#99F1FF"/>
<path d="M38.2751 59.0001C37.6751 59.2001 37.0751 58.9001 36.8751 58.4001C36.6751 57.8001 36.9751 57.2001 37.4751 57.0001C38.0751 56.8001 38.6751 57.1001 38.8751 57.6001C39.1751 58.2001 38.8751 58.8001 38.2751 59.0001Z" fill="#99F1FF"/>
<path d="M29.4783 45.0001C28.8783 45.2001 28.2783 44.9001 28.0783 44.4001C27.8783 43.8001 28.1783 43.2001 28.6783 43.0001C29.2783 42.8001 29.8783 43.1001 30.0783 43.6001C30.2783 44.2001 30.0783 44.8001 29.4783 45.0001Z" fill="#99F1FF"/>
<path d="M30.6736 48.0001C30.0736 48.2001 29.4736 47.9001 29.2736 47.4001C29.0736 46.8001 29.3736 46.2001 29.8736 46.0001C30.4736 45.8001 31.0736 46.1001 31.2736 46.6001C31.4736 47.2001 31.1736 47.8001 30.6736 48.0001Z" fill="#99F1FF"/>
<path d="M31.7751 51.0001C31.1751 51.2001 30.5751 50.9001 30.3751 50.4001C30.1751 49.8001 30.4751 49.2001 30.9751 49.0001C31.5751 48.8001 32.1751 49.1001 32.3751 49.6001C32.5751 50.2001 32.3751 50.8001 31.7751 51.0001Z" fill="#99F1FF"/>
<path d="M32.9783 54.0998C32.3783 54.2998 31.7783 53.9998 31.5783 53.4998C31.3783 52.8998 31.6783 52.2998 32.1783 52.0998C32.7783 51.8998 33.3783 52.1998 33.5783 52.6998C33.8783 53.2998 33.5783 53.8998 32.9783 54.0998Z" fill="#99F1FF"/>
<path d="M34.1736 57.0998C33.5736 57.2998 32.9736 56.9998 32.7736 56.4998C32.5736 55.8998 32.8736 55.2998 33.3736 55.0998C33.9736 54.8998 34.5736 55.1998 34.7736 55.6998C34.9736 56.2998 34.6736 56.8998 34.1736 57.0998Z" fill="#99F1FF"/>
<path d="M35.2751 60.2003C34.6751 60.4003 34.0751 60.1003 33.8751 59.6003C33.6751 59.0003 33.9751 58.4003 34.4751 58.2003C35.0751 58.0003 35.6751 58.3003 35.8751 58.8003C36.1751 59.3003 35.8751 59.9003 35.2751 60.2003Z" fill="#99F1FF"/>
<path d="M26.7751 46.0001C26.1751 46.2001 25.5751 45.9001 25.3751 45.4001C25.1751 44.8001 25.4751 44.2001 25.9751 44.0001C26.5751 43.8001 27.1751 44.1001 27.3751 44.6001C27.5751 45.2001 27.2751 45.8001 26.7751 46.0001Z" fill="#99F1FF"/>
<path d="M27.8767 49.0001C27.2767 49.2001 26.6767 48.9001 26.4767 48.4001C26.2767 47.8001 26.5767 47.2001 27.0767 47.0001C27.6767 46.8001 28.2767 47.1001 28.4767 47.6001C28.7767 48.2001 28.4767 48.8001 27.8767 49.0001Z" fill="#99F1FF"/>
<path d="M29.072 52.0001C28.472 52.2001 27.872 51.9001 27.672 51.4001C27.472 50.8001 27.772 50.2001 28.272 50.0001C28.872 49.8001 29.472 50.1001 29.672 50.6001C29.872 51.2001 29.672 51.8001 29.072 52.0001Z" fill="#99F1FF"/>
<path d="M30.2751 55.2003C29.6751 55.4003 29.0751 55.1003 28.8751 54.6003C28.6751 54.0003 28.9751 53.4003 29.4751 53.2003C30.0751 53.0003 30.6751 53.3003 30.8751 53.8003C31.0751 54.4003 30.8751 55.0003 30.2751 55.2003Z" fill="#99F1FF"/>
<path d="M31.4783 58.2003C30.8783 58.4003 30.2783 58.1003 30.0783 57.6003C29.8783 57.0003 30.1783 56.4003 30.6783 56.2003C31.2783 56.0003 31.8783 56.3003 32.0783 56.8003C32.2783 57.4003 31.9783 58.0003 31.4783 58.2003Z" fill="#99F1FF"/>
<path d="M32.572 61.2003C31.972 61.4003 31.372 61.1003 31.172 60.6003C30.972 60.0003 31.272 59.4003 31.772 59.2003C32.372 59.0003 32.972 59.3003 33.172 59.8003C33.472 60.4003 33.172 61.0003 32.572 61.2003Z" fill="#99F1FF"/>
<path d="M23.7751 47.2003C23.1751 47.4003 22.5751 47.1003 22.3751 46.6003C22.1751 46.0003 22.4751 45.4003 22.9751 45.2003C23.5751 45.0003 24.1751 45.3003 24.3751 45.8003C24.5751 46.4003 24.2751 47.0003 23.7751 47.2003Z" fill="#99F1FF"/>
<path d="M24.8767 50.2003C24.2767 50.4003 23.6767 50.1003 23.4767 49.6003C23.2767 49.0003 23.5767 48.4003 24.0767 48.2003C24.6767 48.0003 25.2767 48.3003 25.4767 48.8003C25.7767 49.4003 25.4767 50.0003 24.8767 50.2003Z" fill="#99F1FF"/>
<path d="M26.072 53.2003C25.472 53.4003 24.872 53.1003 24.672 52.6003C24.472 52.0003 24.772 51.4003 25.272 51.2003C25.872 51.0003 26.472 51.3003 26.672 51.8003C26.872 52.4003 26.672 53.0003 26.072 53.2003Z" fill="#99F1FF"/>
<path d="M27.2751 56.3C26.6751 56.5 26.0751 56.2 25.8751 55.7C25.6751 55.1 25.9751 54.5 26.4751 54.3C27.0751 54.1 27.6751 54.3999 27.8751 54.8999C28.0751 55.4999 27.8751 56.1 27.2751 56.3Z" fill="#99F1FF"/>
<path d="M28.4783 59.3996C27.8783 59.5996 27.2783 59.2996 27.0783 58.7996C26.8783 58.1996 27.1783 57.5996 27.6783 57.3996C28.2783 57.1996 28.8783 57.4996 29.0783 57.9996C29.2783 58.4996 28.9783 59.0996 28.4783 59.3996Z" fill="#99F1FF"/>
<path d="M29.572 62.3996C28.972 62.5996 28.372 62.2996 28.172 61.7996C27.972 61.1996 28.272 60.5996 28.772 60.3996C29.372 60.1996 29.972 60.4996 30.172 60.9996C30.472 61.4996 30.172 62.0996 29.572 62.3996Z" fill="#99F1FF"/>
<path d="M95 36.7081L100.705 34.2593H106.066V54.1958H100.705V39.906L97.0641 41.4618L95 36.7081Z" fill="white"/>
<path d="M108.923 49.8455V45.063L117.294 34.2593H123.916L114.943 45.063H122.081V41.2313H127.471V45.063H130.137V49.8455H127.471V54.1958H122.081V49.8455H108.923Z" fill="white"/>
<path d="M172.891 34H177.105C178.251 34 179.293 34.1248 180.23 34.3745C181.185 34.6242 181.988 35.0083 182.638 35.5269C183.307 36.0455 183.823 36.7081 184.186 37.5148C184.549 38.3023 184.73 39.2434 184.73 40.3382C184.73 41.625 184.415 42.691 183.784 43.5361C183.173 44.362 182.265 45.0822 181.061 45.6968L174.181 49.01L172.489 49.7014H184.874V54.1958H165.38V49.1828L177.764 42.8446C178.452 42.4029 178.93 42.0092 179.198 41.6634C179.484 41.3177 179.628 40.9048 179.628 40.4246C179.628 39.906 179.427 39.5027 179.026 39.2146C178.643 38.9073 178.003 38.7536 177.105 38.7536H172.891C172.145 38.7536 171.495 38.9169 170.941 39.2434C170.387 39.5507 169.995 39.9829 169.766 40.5399L164.921 38.4367C165.513 36.9194 166.507 35.8054 167.902 35.0948C169.298 34.3649 170.96 34 172.891 34Z" fill="white"/>
<path d="M186.64 50.0759L191.399 48.0016C191.609 48.5778 192.02 49.0292 192.631 49.3557C193.243 49.663 194.017 49.8167 194.953 49.8167H199.282C201.117 49.8167 202.034 49.2308 202.034 48.0592C202.034 47.5599 201.843 47.1565 201.461 46.8492C201.079 46.5419 200.458 46.3883 199.598 46.3883H193.205V42.1532H199.569C200.333 42.1532 200.869 41.9996 201.174 41.6923C201.48 41.3657 201.633 40.972 201.633 40.511C201.633 39.8964 201.404 39.4355 200.945 39.1282C200.505 38.8017 199.884 38.6384 199.082 38.6384H194.753C193.95 38.6384 193.262 38.8017 192.689 39.1282C192.134 39.4355 191.752 39.8772 191.542 40.4534L186.812 38.3791C187.06 37.6877 187.423 37.0731 187.901 36.5353C188.398 35.9783 188.991 35.5173 189.679 35.1524C190.367 34.7683 191.141 34.4802 192.001 34.2881C192.861 34.096 193.778 34 194.753 34H198.996C201.499 34 203.41 34.4898 204.729 35.4693C206.067 36.4488 206.736 37.8317 206.736 39.6179C206.736 41.8843 205.742 43.4016 203.754 44.1699C204.939 44.5925 205.799 45.2071 206.335 46.0137C206.87 46.8012 207.137 47.7807 207.137 48.9524C207.137 50.7386 206.44 52.1022 205.045 53.0434C203.668 53.9845 201.729 54.455 199.225 54.455H194.953C192.851 54.455 191.064 54.0709 189.593 53.3027C188.14 52.5344 187.156 51.4588 186.64 50.0759Z" fill="white"/>
<path d="M242.295 49.8455V45.063L250.667 34.2593H257.289L248.316 45.063H255.454V41.2313H260.844V45.063H263.51V49.8455H260.844V54.1958H255.454V49.8455H242.295Z" fill="white"/>
<path d="M265.058 47.6271C265.058 46.4363 265.23 45.3223 265.574 44.2851C265.918 43.248 266.558 42.2012 267.494 41.1449L274.174 34.2593H280.739L273.142 41.8651C273.505 41.6538 273.945 41.4714 274.461 41.3177C274.996 41.1641 275.56 41.0872 276.152 41.0872H278.646C279.621 41.0872 280.519 41.2313 281.341 41.5194C282.163 41.8075 282.87 42.23 283.462 42.787C284.055 43.3248 284.513 44.0066 284.838 44.8325C285.182 45.6392 285.354 46.5803 285.354 47.6559C285.354 48.6931 285.192 49.6342 284.867 50.4793C284.542 51.3052 284.055 52.0158 283.405 52.6112C282.755 53.1874 281.943 53.6388 280.968 53.9653C280.013 54.2918 278.895 54.455 277.614 54.455H272.741C270.218 54.455 268.307 53.8404 267.007 52.6112C265.707 51.3628 265.058 49.7014 265.058 47.6271ZM270.132 47.6271C270.132 48.3377 270.38 48.8947 270.877 49.2981C271.374 49.7014 272.024 49.9031 272.827 49.9031H277.528C278.35 49.9031 279.009 49.7014 279.506 49.2981C280.003 48.8947 280.252 48.3377 280.252 47.6271C280.252 46.9357 280.003 46.3883 279.506 45.9849C279.009 45.5816 278.35 45.3799 277.528 45.3799H272.827C272.024 45.3799 271.374 45.5816 270.877 45.9849C270.38 46.3883 270.132 46.9357 270.132 47.6271Z" fill="white"/>
<path d="M102.568 62.9413C103.073 62.9413 103.52 63.0104 103.91 63.1487C104.3 63.287 104.627 63.4858 104.89 63.7451C105.16 64.0044 105.363 64.3184 105.501 64.6872C105.639 65.0559 105.707 65.4708 105.707 65.9317V65.9404C105.707 66.3956 105.639 66.8076 105.501 67.1763C105.363 67.5451 105.16 67.8591 104.89 68.1184C104.627 68.3777 104.3 68.5765 103.91 68.7148C103.52 68.8531 103.073 68.9222 102.568 68.9222H98.8014V62.9413H102.568ZM100.418 67.427H102.568C103.09 67.427 103.477 67.2973 103.729 67.038C103.987 66.773 104.116 66.4071 104.116 65.9404V65.9317C104.116 65.465 103.987 65.0991 103.729 64.8341C103.477 64.569 103.09 64.4365 102.568 64.4365H100.418V67.427Z" fill="white"/>
<path d="M108.932 62.9413H110.601L113.697 68.9222H111.968L111.452 67.8246H108.081L107.565 68.9222H105.836L108.932 62.9413ZM110.781 66.459L109.766 64.4624L108.752 66.459H110.781Z" fill="white"/>
<path d="M112.928 62.9413H114.837L116.661 65.4564L118.493 62.9413H120.393L117.469 66.822V68.9222H115.852V66.822L112.928 62.9413Z" fill="white"/>
<path d="M125.8 64.7044C125.617 64.5316 125.428 64.4163 125.233 64.3587C125.038 64.2953 124.797 64.2636 124.51 64.2636H123.1C122.842 64.2636 122.641 64.2982 122.498 64.3674C122.354 64.4307 122.283 64.5287 122.283 64.6612C122.283 64.7592 122.326 64.8398 122.412 64.9032C122.504 64.9666 122.69 65.0213 122.971 65.0674L125.276 65.2749C125.608 65.3267 125.884 65.416 126.101 65.5428C126.319 65.6638 126.491 65.8107 126.617 65.9836C126.749 66.1507 126.841 66.338 126.893 66.5454C126.944 66.7528 126.97 66.9631 126.97 67.1763C126.97 67.4529 126.916 67.7036 126.807 67.9283C126.698 68.153 126.543 68.346 126.342 68.5073C126.142 68.6629 125.895 68.7839 125.603 68.8704C125.31 68.9568 124.98 69 124.614 69H123.169C121.816 69 120.921 68.5823 120.485 67.7468L121.853 66.8738C122.025 67.1677 122.217 67.3636 122.429 67.4615C122.647 67.5595 122.902 67.6085 123.194 67.6085H124.639C125.155 67.6085 125.413 67.4529 125.413 67.1418C125.413 66.9919 125.359 66.8853 125.25 66.822C125.141 66.7528 124.986 66.6981 124.786 66.6577L122.326 66.3898C122.033 66.3437 121.784 66.2688 121.578 66.1651C121.377 66.0556 121.214 65.926 121.087 65.7762C120.961 65.6264 120.869 65.4621 120.812 65.2835C120.755 65.0991 120.726 64.909 120.726 64.7131C120.726 64.1254 120.938 63.6702 121.363 63.3475C121.787 63.0248 122.389 62.8635 123.169 62.8635H124.553C125.614 62.8635 126.391 63.1372 126.884 63.6846L125.8 64.7044Z" fill="white"/>
<path d="M168.321 62.9413H169.938V65.1884H173.507V62.9413H175.115V68.9222H173.507V66.6664H169.938V68.9222H168.321V62.9413Z" fill="white"/>
<path d="M176.015 65.9317V65.9231C176.015 65.4621 176.086 65.0444 176.23 64.6699C176.373 64.2953 176.579 63.9755 176.849 63.7105C177.124 63.4397 177.459 63.2323 177.855 63.0882C178.251 62.9384 178.701 62.8635 179.205 62.8635H180.599C181.097 62.8635 181.545 62.9384 181.94 63.0882C182.336 63.2323 182.668 63.4397 182.938 63.7105C183.213 63.9755 183.422 64.2953 183.566 64.6699C183.709 65.0444 183.781 65.4621 183.781 65.9231V65.9317C183.781 66.3927 183.709 66.8133 183.566 67.1936C183.422 67.5681 183.213 67.8908 182.938 68.1616C182.668 68.4267 182.336 68.6341 181.94 68.7839C181.545 68.928 181.097 69 180.599 69H179.205C178.701 69 178.251 68.928 177.855 68.7839C177.459 68.6341 177.124 68.4267 176.849 68.1616C176.579 67.8908 176.373 67.5681 176.23 67.1936C176.086 66.8133 176.015 66.3927 176.015 65.9317ZM177.606 65.9317C177.606 66.4042 177.74 66.7874 178.01 67.0813C178.285 67.3751 178.684 67.522 179.205 67.522H180.599C181.12 67.522 181.516 67.3751 181.785 67.0813C182.055 66.7874 182.19 66.4042 182.19 65.9317V65.9231C182.19 65.4564 182.055 65.0761 181.785 64.7822C181.516 64.4884 181.12 64.3414 180.599 64.3414H179.205C178.684 64.3414 178.285 64.4884 178.01 64.7822C177.74 65.0761 177.606 65.4564 177.606 65.9231V65.9317Z" fill="white"/>
<path d="M189.799 62.9413H191.416V66.1219C191.416 66.6117 191.347 67.038 191.21 67.401C191.072 67.7641 190.874 68.0637 190.616 68.2999C190.364 68.5362 190.06 68.7119 189.705 68.8271C189.349 68.9424 188.951 69 188.509 69H187.434C186.998 69 186.6 68.9424 186.239 68.8271C185.883 68.7119 185.576 68.5362 185.318 68.2999C185.066 68.0637 184.871 67.7641 184.734 67.401C184.596 67.038 184.527 66.6117 184.527 66.1219V62.9413H186.144V66.1219C186.144 66.3754 186.178 66.5886 186.247 66.7615C186.316 66.9343 186.408 67.0755 186.522 67.185C186.637 67.2887 186.772 67.3636 186.927 67.4097C187.087 67.4558 187.256 67.4788 187.434 67.4788H188.509C188.687 67.4788 188.853 67.4558 189.008 67.4097C189.163 67.3636 189.298 67.2887 189.412 67.185C189.533 67.0755 189.627 66.9343 189.696 66.7615C189.765 66.5886 189.799 66.3754 189.799 66.1219V62.9413Z" fill="white"/>
<path d="M197.291 68.9222L196.208 67.1158H194.109V68.9222H192.509V62.9413H196.371C196.812 62.9413 197.194 62.9931 197.515 63.0968C197.836 63.1948 198.1 63.336 198.306 63.5204C198.518 63.699 198.676 63.9179 198.779 64.1772C198.882 64.4365 198.934 64.7246 198.934 65.0415V65.0502C198.934 65.4938 198.836 65.8712 198.642 66.1824C198.452 66.4935 198.154 66.7298 197.747 66.8911L199.08 68.9222H197.291ZM194.109 64.376V65.7416H196.371C196.686 65.7416 196.924 65.6955 197.085 65.6033C197.251 65.5054 197.334 65.321 197.334 65.0502V65.0415C197.334 64.788 197.251 64.6151 197.085 64.5229C196.924 64.425 196.686 64.376 196.371 64.376H194.109Z" fill="white"/>
<path d="M204.819 64.7044C204.635 64.5316 204.446 64.4163 204.251 64.3587C204.056 64.2953 203.816 64.2636 203.529 64.2636H202.118C201.86 64.2636 201.66 64.2982 201.516 64.3674C201.373 64.4307 201.301 64.5287 201.301 64.6612C201.301 64.7592 201.344 64.8398 201.43 64.9032C201.522 64.9666 201.709 65.0213 201.989 65.0674L204.294 65.2749C204.627 65.3267 204.902 65.416 205.12 65.5428C205.338 65.6638 205.51 65.8107 205.636 65.9836C205.768 66.1507 205.86 66.338 205.911 66.5454C205.963 66.7528 205.989 66.9631 205.989 67.1763C205.989 67.4529 205.934 67.7036 205.825 67.9283C205.716 68.153 205.561 68.346 205.361 68.5073C205.16 68.6629 204.914 68.7839 204.621 68.8704C204.329 68.9568 203.999 69 203.632 69H202.187C200.834 69 199.94 68.5823 199.504 67.7468L200.871 66.8738C201.043 67.1677 201.235 67.3636 201.448 67.4615C201.666 67.5595 201.921 67.6085 202.213 67.6085H203.658C204.174 67.6085 204.432 67.4529 204.432 67.1418C204.432 66.9919 204.377 66.8853 204.269 66.822C204.16 66.7528 204.005 66.6981 203.804 66.6577L201.344 66.3898C201.052 66.3437 200.803 66.2688 200.596 66.1651C200.396 66.0556 200.232 65.926 200.106 65.7762C199.98 65.6264 199.888 65.4621 199.831 65.2835C199.773 65.0991 199.745 64.909 199.745 64.7131C199.745 64.1254 199.957 63.6702 200.381 63.3475C200.805 63.0248 201.408 62.8635 202.187 62.8635H203.572C204.633 62.8635 205.41 63.1372 205.903 63.6846L204.819 64.7044Z" fill="white"/>
<path d="M244.62 65.9577L247.003 62.9413H248.525V68.9222H246.943V65.4218L245.042 67.8505H244.199L242.298 65.4218V68.9222H240.707V62.9413H242.23L244.62 65.9577Z" fill="white"/>
<path d="M249.761 68.9222V62.9413H251.378V68.9222H249.761Z" fill="white"/>
<path d="M257.837 62.9413H259.419V68.9222H257.975L254.216 65.4132V68.9222H252.625V62.9413H254.079L257.837 66.459V62.9413Z" fill="white"/>
<path d="M265.789 62.9413H267.406V66.1219C267.406 66.6117 267.337 67.038 267.199 67.401C267.061 67.7641 266.864 68.0637 266.606 68.2999C266.353 68.5362 266.05 68.7119 265.694 68.8271C265.339 68.9424 264.94 69 264.499 69H263.424C262.988 69 262.589 68.9424 262.228 68.8271C261.873 68.7119 261.566 68.5362 261.308 68.2999C261.056 68.0637 260.861 67.7641 260.723 67.401C260.585 67.038 260.517 66.6117 260.517 66.1219V62.9413H262.133V66.1219C262.133 66.3754 262.168 66.5886 262.237 66.7615C262.305 66.9343 262.397 67.0755 262.512 67.185C262.627 67.2887 262.761 67.3636 262.916 67.4097C263.077 67.4558 263.246 67.4788 263.424 67.4788H264.499C264.676 67.4788 264.843 67.4558 264.997 67.4097C265.152 67.3636 265.287 67.2887 265.402 67.185C265.522 67.0755 265.617 66.9343 265.685 66.7615C265.754 66.5886 265.789 66.3754 265.789 66.1219V62.9413Z" fill="white"/>
<path d="M274.364 62.9413V64.4624H272.034V68.9222H270.425V64.4624H268.095V62.9413H274.364Z" fill="white"/>
<path d="M280.877 62.9413V64.3933H276.801V65.2144H280.396V66.6491H276.801V67.4702H280.877V68.9222H275.201V62.9413H280.877Z" fill="white"/>
<path d="M286.83 64.7044C286.647 64.5316 286.458 64.4163 286.263 64.3587C286.068 64.2953 285.827 64.2636 285.54 64.2636H284.13C283.872 64.2636 283.671 64.2982 283.528 64.3674C283.384 64.4307 283.313 64.5287 283.313 64.6612C283.313 64.7592 283.356 64.8398 283.442 64.9032C283.534 64.9666 283.72 65.0213 284.001 65.0674L286.306 65.2749C286.638 65.3267 286.913 65.416 287.131 65.5428C287.349 65.6638 287.521 65.8107 287.647 65.9836C287.779 66.1507 287.871 66.338 287.923 66.5454C287.974 66.7528 288 66.9631 288 67.1763C288 67.4529 287.946 67.7036 287.837 67.9283C287.728 68.153 287.573 68.346 287.372 68.5073C287.172 68.6629 286.925 68.7839 286.633 68.8704C286.34 68.9568 286.01 69 285.643 69H284.199C282.846 69 281.951 68.5823 281.515 67.7468L282.883 66.8738C283.055 67.1677 283.247 67.3636 283.459 67.4615C283.677 67.5595 283.932 67.6085 284.224 67.6085H285.669C286.185 67.6085 286.443 67.4529 286.443 67.1418C286.443 66.9919 286.389 66.8853 286.28 66.822C286.171 66.7528 286.016 66.6981 285.816 66.6577L283.356 66.3898C283.063 66.3437 282.814 66.2688 282.608 66.1651C282.407 66.0556 282.243 65.926 282.117 65.7762C281.991 65.6264 281.899 65.4621 281.842 65.2835C281.785 65.0991 281.756 64.909 281.756 64.7131C281.756 64.1254 281.968 63.6702 282.393 63.3475C282.817 63.0248 283.419 62.8635 284.199 62.8635H285.583C286.644 62.8635 287.421 63.1372 287.914 63.6846L286.83 64.7044Z" fill="white"/>
<path d="M143.965 42.2108C143.965 41.4042 144.261 40.7415 144.853 40.2229C145.465 39.6852 146.287 39.4163 147.319 39.4163C148.332 39.4163 149.134 39.6852 149.727 40.2229C150.339 40.7415 150.644 41.4042 150.644 42.2108C150.644 43.0367 150.339 43.7185 149.727 44.2563C149.134 44.7749 148.332 45.0342 147.319 45.0342C146.287 45.0342 145.465 44.7749 144.853 44.2563C144.261 43.7185 143.965 43.0367 143.965 42.2108ZM147.319 48.9524C148.332 48.9524 149.134 49.2212 149.727 49.759C150.339 50.2776 150.644 50.9402 150.644 51.7469C150.644 52.5728 150.339 53.2546 149.727 53.7924C149.134 54.311 148.332 54.5703 147.319 54.5703C146.287 54.5703 145.465 54.311 144.853 53.7924C144.261 53.2546 143.965 52.5728 143.965 51.7469C143.965 50.9402 144.261 50.2776 144.853 49.759C145.465 49.2212 146.287 48.9524 147.319 48.9524Z" fill="white"/>
<path d="M221.368 42.2108C221.368 41.4042 221.664 40.7415 222.257 40.2229C222.868 39.6852 223.69 39.4163 224.722 39.4163C225.735 39.4163 226.538 39.6852 227.13 40.2229C227.742 40.7415 228.048 41.4042 228.048 42.2108C228.048 43.0367 227.742 43.7185 227.13 44.2563C226.538 44.7749 225.735 45.0342 224.722 45.0342C223.69 45.0342 222.868 44.7749 222.257 44.2563C221.664 43.7185 221.368 43.0367 221.368 42.2108ZM224.722 48.9524C225.735 48.9524 226.538 49.2212 227.13 49.759C227.742 50.2776 228.048 50.9402 228.048 51.7469C228.048 52.5728 227.742 53.2546 227.13 53.7924C226.538 54.311 225.735 54.5703 224.722 54.5703C223.69 54.5703 222.868 54.311 222.257 53.7924C221.664 53.2546 221.368 52.5728 221.368 51.7469C221.368 50.9402 221.664 50.2776 222.257 49.759C222.868 49.2212 223.69 48.9524 224.722 48.9524Z" fill="white"/>
</g>
<defs>
<radialGradient id="paint0_radial_967_1713" cx="0" cy="0" r="1" gradientUnits="userSpaceOnUse" gradientTransform="translate(187.5 47.5) scale(143.039 89.4905)">
<stop offset="0.1895" stop-color="#7F2B8A"/>
<stop offset="0.1923" stop-color="#7E2B89"/>
<stop offset="0.2749" stop-color="#5C257B"/>
<stop offset="0.3592" stop-color="#412170"/>
<stop offset="0.445" stop-color="#2E1E68"/>
<stop offset="0.5331" stop-color="#231C64"/>
<stop offset="0.6269" stop-color="#1F1B62"/>
<stop offset="0.995" stop-color="#23223C"/>
</radialGradient>
<radialGradient id="paint1_radial_967_1713" cx="0" cy="0" r="1" gradientUnits="userSpaceOnUse" gradientTransform="translate(187.5 47.5) scale(170.503 170.503)">
<stop offset="0.1895" stop-color="#7F2B8A"/>
<stop offset="0.1923" stop-color="#7E2B89"/>
<stop offset="0.2749" stop-color="#5C257B"/>
<stop offset="0.3592" stop-color="#412170"/>
<stop offset="0.445" stop-color="#2E1E68"/>
<stop offset="0.5331" stop-color="#231C64"/>
<stop offset="0.6269" stop-color="#1F1B62"/>
<stop offset="0.995" stop-color="#23223C"/>
</radialGradient>
</defs>
</svg>
