<svg width="375" height="95" viewBox="0 0 375 95" fill="none" xmlns="http://www.w3.org/2000/svg">
<path d="M399 -43H-24C-30.6274 -43 -36 -37.6274 -36 -31V126C-36 132.627 -30.6274 138 -24 138H399C405.627 138 411 132.627 411 126V-31C411 -37.6274 405.627 -43 399 -43Z" fill="url(#paint0_radial_0_1)"/>
<path d="M289.775 90.0002L288.175 87.9002L290.275 86.3002L289.075 84.7002L286.975 86.3002L285.375 84.2002L283.875 85.4002L285.475 87.5002L283.375 89.1002L284.475 90.6002L286.575 89.1002L288.175 91.2002L289.775 90.0002Z" stroke="#99F1FF" stroke-miterlimit="10"/>
<path d="M15.2781 -11L11.0781 -4.1L4.17813 -8.3L1.07812 -3.2L7.97812 1L3.77812 7.8L8.87813 10.9L13.0781 4.1L19.8781 8.2L22.9781 3.1L16.1781 -1L20.3781 -7.9L15.2781 -11Z" stroke="#99F1FF" stroke-miterlimit="10"/>
<path d="M339.081 64.4L331.481 67.1L328.881 59.5L323.181 61.4L325.781 69L318.281 71.6L320.181 77.3L327.781 74.7L330.381 82.2L336.081 80.3L333.381 72.7L340.981 70.1L339.081 64.4Z" stroke="#99F1FF" stroke-miterlimit="10"/>
<path d="M84.3797 94.4996L78.6797 97.2996L75.8797 91.5996L71.5797 93.6996L74.3797 99.3996L68.6797 102.2L70.7797 106.5L76.4797 103.7L79.2797 109.4L83.5797 107.3L80.7797 101.6L86.4797 98.7996L84.3797 94.4996Z" stroke="#99F1FF" stroke-miterlimit="10"/>
<path d="M57.0812 17.6004L53.3812 20.7004L50.2812 16.9004L47.4812 19.2004L50.5812 22.9004L46.7812 26.0004L49.0812 28.8004L52.7812 25.7004L55.8812 29.5004L58.6812 27.2004L55.5812 23.5004L59.3812 20.4004L57.0812 17.6004Z" stroke="#99F1FF" stroke-miterlimit="10"/>
<path d="M345.878 17.6004L342.078 20.7004L339.078 16.9004L336.278 19.2004L339.278 22.9004L335.578 26.0004L337.778 28.8004L341.578 25.7004L344.678 29.5004L347.478 27.2004L344.378 23.5004L348.178 20.4004L345.878 17.6004Z" stroke="#99F1FF" stroke-miterlimit="10"/>
<path d="M15.3797 81.6996L10.8797 79.8996L12.6797 75.3996L9.27969 74.0996L7.47969 78.5996L2.97969 76.7996L1.67969 80.1996L6.17969 81.8996L4.37969 86.4996L7.77969 87.7996L9.57969 83.2996L14.0797 84.9996L15.3797 81.6996Z" stroke="#99F1FF" stroke-miterlimit="10"/>
<path d="M356.773 77.3002L359.473 72.2002L364.873 74.9002L367.573 69.5002L373.173 72.2002L375.973 66.7002L381.673 69.7002" stroke="#00FECF" stroke-miterlimit="10"/>
<path d="M358.172 81.3998L360.772 76.2998L366.172 79.0998L368.872 73.5998L374.472 76.2998L377.272 70.7998L382.972 73.7998" stroke="#00FECF" stroke-miterlimit="10"/>
<path d="M310.502 1.7002C310.202 1.8002 309.902 1.90019 309.602 2.10019L325.902 14.6002C326.002 14.3002 326.002 13.9002 326.002 13.6002L310.502 1.7002Z" fill="#E36EFF"/>
<path d="M312.797 1.09961C312.497 1.09961 312.197 1.19961 311.797 1.29961L325.897 12.1996C325.897 11.8996 325.897 11.5996 325.797 11.1996L312.797 1.09961Z" fill="#E36EFF"/>
<path d="M316.002 1.1C315.502 0.999999 315.102 1 314.602 1L325.602 9.5C325.502 9.1 325.302 8.6 325.202 8.2L316.002 1.1Z" fill="#E36EFF"/>
<path d="M308.498 2.7002C308.298 2.8002 308.098 3.00019 307.898 3.10019L325.298 16.5002C325.398 16.3002 325.498 16.0002 325.498 15.8002L308.498 2.7002Z" fill="#E36EFF"/>
<path d="M318.898 1.7998L323.698 5.4998C323.098 4.6998 322.398 3.9998 321.598 3.2998C320.698 2.6998 319.798 2.1998 318.898 1.7998Z" fill="#E36EFF"/>
<path d="M324.498 18.2004C324.598 18.0004 324.698 17.8004 324.798 17.6004L306.898 3.90039C306.698 4.10039 306.598 4.20039 306.398 4.40039L324.498 18.2004Z" fill="#E36EFF"/>
<path d="M305.602 5.2002C305.502 5.3002 305.502 5.40019 305.402 5.50019C305.302 5.60019 305.202 5.7002 305.102 5.9002L323.302 19.9002C323.402 19.8002 323.502 19.7002 323.602 19.6002C323.702 19.5002 323.702 19.4002 323.802 19.3002L305.602 5.2002Z" fill="#E36EFF"/>
<path d="M304.503 6.7998C304.403 6.9998 304.303 7.1998 304.203 7.4998L322.003 21.1998C322.203 20.9998 322.403 20.8998 322.503 20.6998L304.503 6.7998Z" fill="#E36EFF"/>
<path d="M313.298 23.9C313.698 23.9 314.098 24 314.498 24L303.398 15.5C303.498 15.9 303.598 16.3 303.798 16.6L313.298 23.9Z" fill="#E36EFF"/>
<path d="M303.7 8.59961C303.6 8.79961 303.5 9.09961 303.5 9.29961L320.5 22.2996C320.7 22.1996 320.9 21.9996 321.1 21.8996L303.7 8.59961Z" fill="#E36EFF"/>
<path d="M305.102 19.0996C305.802 19.9996 306.602 20.8996 307.502 21.5996C308.502 22.2996 309.502 22.8996 310.502 23.2996L305.102 19.0996Z" fill="#E36EFF"/>
<path d="M303 12.7998C303 13.0998 303 13.3998 303.1 13.7998L316.3 23.7998C316.6 23.7998 316.9 23.6998 317.3 23.5998L303 12.7998Z" fill="#E36EFF"/>
<path d="M303.202 10.5C303.202 10.8 303.102 11.1 303.102 11.3L318.602 23.2C318.902 23.1 319.102 23 319.402 22.9L303.202 10.5Z" fill="#E36EFF"/>
<path d="M362.097 36.5996C361.797 36.6996 361.597 36.7996 361.297 36.8996L374.597 47.0996C374.697 46.7996 374.697 46.5996 374.697 46.2996L362.097 36.5996Z" fill="#E36EFF"/>
<path d="M364.003 36.0996C363.703 36.0996 363.503 36.1996 363.203 36.1996L374.703 44.9996C374.703 44.6996 374.703 44.4996 374.603 44.1996L364.003 36.0996Z" fill="#E36EFF"/>
<path d="M366.498 36.1C366.098 36.1 365.698 36 365.398 36L374.398 42.9C374.298 42.5 374.198 42.2 373.998 41.8L366.498 36.1Z" fill="#E36EFF"/>
<path d="M360.398 37.4004C360.198 37.5004 359.998 37.6004 359.898 37.7004L374.098 48.7004C374.198 48.5004 374.198 48.3004 374.298 48.1004L360.398 37.4004Z" fill="#E36EFF"/>
<path d="M368.898 36.7002L372.798 39.7002C372.298 39.1002 371.698 38.5002 370.998 37.9002C370.398 37.5002 369.698 37.0002 368.898 36.7002Z" fill="#E36EFF"/>
<path d="M373.503 50.1004C373.603 49.9004 373.703 49.8004 373.803 49.6004L359.103 38.4004C359.003 38.5004 358.803 38.7004 358.703 38.8004L373.503 50.1004Z" fill="#E36EFF"/>
<path d="M358.103 39.5C358.003 39.6 358.003 39.6 357.903 39.7C357.803 39.8 357.803 39.9 357.703 40L372.503 51.4C372.603 51.3 372.703 51.2 372.703 51.1C372.803 51 372.803 51 372.903 50.9L358.103 39.5Z" fill="#E36EFF"/>
<path d="M357.198 40.7998C357.098 40.9998 356.998 41.1998 356.898 41.2998L371.498 52.4998C371.698 52.3998 371.798 52.1998 371.898 52.0998L357.198 40.7998Z" fill="#E36EFF"/>
<path d="M364.398 54.7004C364.698 54.7004 364.998 54.8004 365.398 54.8004L356.398 47.9004C356.498 48.2004 356.598 48.5004 356.698 48.8004L364.398 54.7004Z" fill="#E36EFF"/>
<path d="M356.497 42.2002C356.397 42.4002 356.397 42.6002 356.297 42.8002L370.097 53.4002C370.297 53.3002 370.397 53.2002 370.597 53.1002L356.497 42.2002Z" fill="#E36EFF"/>
<path d="M357.703 50.7998C358.203 51.5998 358.903 52.1998 359.703 52.7998C360.503 53.3998 361.303 53.7998 362.203 54.1998L357.703 50.7998Z" fill="#E36EFF"/>
<path d="M356 45.7002C356 46.0002 356 46.2002 356.1 46.5002L366.8 54.7002C367.1 54.7002 367.3 54.6002 367.6 54.5002L356 45.7002Z" fill="#E36EFF"/>
<path d="M356.1 43.7998C356.1 43.9998 356 44.2998 356 44.4998L368.6 54.1998C368.8 54.0998 369 53.9998 369.2 53.8998L356.1 43.7998Z" fill="#E36EFF"/>
<path d="M88.8016 12.5C88.7016 12.3 88.6016 12.1 88.4016 12L82.6016 23.9C82.8016 23.9 83.0016 23.9 83.2016 23.9L88.8016 12.5Z" fill="#E36EFF"/>
<path d="M89.5031 13.8998C89.4031 13.6998 89.3031 13.4998 89.3031 13.2998L84.2031 23.6998C84.4031 23.6998 84.6031 23.5998 84.8031 23.4998L89.5031 13.8998Z" fill="#E36EFF"/>
<path d="M89.8969 15.9C89.8969 15.6 89.7969 15.3 89.7969 15L85.7969 23.1C86.0969 23 86.2969 22.8 86.5969 22.6L89.8969 15.9Z" fill="#E36EFF"/>
<path d="M87.9031 11.3004C87.8031 11.2004 87.7031 11.1004 87.5031 10.9004L81.2031 23.7004C81.4031 23.7004 81.5031 23.7004 81.7031 23.8004L87.9031 11.3004Z" fill="#E36EFF"/>
<path d="M89.8016 17.7998L88.1016 21.2998C88.5016 20.7998 88.9016 20.2998 89.2016 19.6998C89.4016 19.0998 89.6016 18.4998 89.8016 17.7998Z" fill="#E36EFF"/>
<path d="M80.1016 23.5002C80.2016 23.5002 80.4016 23.6002 80.5016 23.6002L86.9016 10.5002C86.8016 10.4002 86.7016 10.3002 86.5016 10.2002L80.1016 23.5002Z" fill="#E36EFF"/>
<path d="M85.8984 9.79961C85.7984 9.79961 85.7984 9.69961 85.6984 9.69961C85.5984 9.69961 85.4984 9.59961 85.3984 9.59961L78.8984 22.8996C78.9984 22.8996 79.0984 22.9996 79.1984 22.9996C79.2984 22.9996 79.2984 23.0996 79.3984 23.0996L85.8984 9.79961Z" fill="#E36EFF"/>
<path d="M84.7984 9.39981C84.5984 9.39981 84.4984 9.2998 84.2984 9.2998L77.8984 22.3998C77.9984 22.4998 78.1984 22.5998 78.2984 22.6998L84.7984 9.39981Z" fill="#E36EFF"/>
<path d="M75 17.0998C75 17.3998 75.1 17.5998 75.1 17.8998L79.1 9.7998C78.9 9.8998 78.6 9.99981 78.4 10.1998L75 17.0998Z" fill="#E36EFF"/>
<path d="M83.4984 9.1C83.2984 9.1 83.1984 9.1 82.9984 9L76.8984 21.4C76.9984 21.5 77.0984 21.6 77.1984 21.7L83.4984 9.1Z" fill="#E36EFF"/>
<path d="M77.1016 11.2998C76.6016 11.7998 76.2016 12.4998 75.8016 13.0998C75.5016 13.7998 75.2016 14.4998 75.1016 15.1998L77.1016 11.2998Z" fill="#E36EFF"/>
<path d="M80.8 9.2002C80.6 9.2002 80.4 9.3002 80.2 9.4002L75.5 19.0002C75.6 19.2002 75.7 19.4002 75.7 19.6002L80.8 9.2002Z" fill="#E36EFF"/>
<path d="M82.2016 9C82.0016 9 81.8016 9 81.7016 9L76.1016 20.3C76.2016 20.5 76.3016 20.6 76.4016 20.8L82.2016 9Z" fill="#E36EFF"/>
<path d="M32.4783 43.8C31.8783 44 31.2783 43.7 31.0783 43.2C30.8783 42.6 31.1783 42 31.6783 41.8C32.2783 41.6 32.8783 41.8999 33.0783 42.3999C33.2783 42.9999 33.0783 43.6 32.4783 43.8Z" fill="#99F1FF"/>
<path d="M33.6736 46.8C33.0736 47 32.4736 46.7 32.2736 46.2C32.0736 45.6 32.3736 45 32.8736 44.8C33.4736 44.6 34.0736 44.8999 34.2736 45.3999C34.4736 45.9999 34.1736 46.6 33.6736 46.8Z" fill="#99F1FF"/>
<path d="M34.7751 49.8C34.1751 50 33.5751 49.7 33.3751 49.2C33.1751 48.6 33.4751 48 33.9751 47.8C34.5751 47.6 35.1751 47.8999 35.3751 48.3999C35.5751 48.8999 35.3751 49.6 34.7751 49.8Z" fill="#99F1FF"/>
<path d="M35.9783 53.0001C35.3783 53.2001 34.7783 52.9001 34.5783 52.4001C34.3783 51.8001 34.6783 51.2001 35.1783 51.0001C35.7783 50.8001 36.3783 51.1001 36.5783 51.6001C36.8783 52.2001 36.5783 52.8001 35.9783 53.0001Z" fill="#99F1FF"/>
<path d="M37.1736 56.0001C36.5736 56.2001 35.9736 55.9001 35.7736 55.4001C35.5736 54.8001 35.8736 54.2001 36.3736 54.0001C36.9736 53.8001 37.5736 54.1001 37.7736 54.6001C37.9736 55.2001 37.6736 55.8001 37.1736 56.0001Z" fill="#99F1FF"/>
<path d="M38.2751 59.0001C37.6751 59.2001 37.0751 58.9001 36.8751 58.4001C36.6751 57.8001 36.9751 57.2001 37.4751 57.0001C38.0751 56.8001 38.6751 57.1001 38.8751 57.6001C39.1751 58.2001 38.8751 58.8001 38.2751 59.0001Z" fill="#99F1FF"/>
<path d="M29.4783 45.0001C28.8783 45.2001 28.2783 44.9001 28.0783 44.4001C27.8783 43.8001 28.1783 43.2001 28.6783 43.0001C29.2783 42.8001 29.8783 43.1001 30.0783 43.6001C30.2783 44.2001 30.0783 44.8001 29.4783 45.0001Z" fill="#99F1FF"/>
<path d="M30.6736 48.0001C30.0736 48.2001 29.4736 47.9001 29.2736 47.4001C29.0736 46.8001 29.3736 46.2001 29.8736 46.0001C30.4736 45.8001 31.0736 46.1001 31.2736 46.6001C31.4736 47.2001 31.1736 47.8001 30.6736 48.0001Z" fill="#99F1FF"/>
<path d="M31.7751 51.0001C31.1751 51.2001 30.5751 50.9001 30.3751 50.4001C30.1751 49.8001 30.4751 49.2001 30.9751 49.0001C31.5751 48.8001 32.1751 49.1001 32.3751 49.6001C32.5751 50.2001 32.3751 50.8001 31.7751 51.0001Z" fill="#99F1FF"/>
<path d="M32.9783 54.0998C32.3783 54.2998 31.7783 53.9998 31.5783 53.4998C31.3783 52.8998 31.6783 52.2998 32.1783 52.0998C32.7783 51.8998 33.3783 52.1998 33.5783 52.6998C33.8783 53.2998 33.5783 53.8998 32.9783 54.0998Z" fill="#99F1FF"/>
<path d="M34.1736 57.0998C33.5736 57.2998 32.9736 56.9998 32.7736 56.4998C32.5736 55.8998 32.8736 55.2998 33.3736 55.0998C33.9736 54.8998 34.5736 55.1998 34.7736 55.6998C34.9736 56.2998 34.6736 56.8998 34.1736 57.0998Z" fill="#99F1FF"/>
<path d="M35.2751 60.2003C34.6751 60.4003 34.0751 60.1003 33.8751 59.6003C33.6751 59.0003 33.9751 58.4003 34.4751 58.2003C35.0751 58.0003 35.6751 58.3003 35.8751 58.8003C36.1751 59.3003 35.8751 59.9003 35.2751 60.2003Z" fill="#99F1FF"/>
<path d="M26.7751 46.0001C26.1751 46.2001 25.5751 45.9001 25.3751 45.4001C25.1751 44.8001 25.4751 44.2001 25.9751 44.0001C26.5751 43.8001 27.1751 44.1001 27.3751 44.6001C27.5751 45.2001 27.2751 45.8001 26.7751 46.0001Z" fill="#99F1FF"/>
<path d="M27.8767 49.0001C27.2767 49.2001 26.6767 48.9001 26.4767 48.4001C26.2767 47.8001 26.5767 47.2001 27.0767 47.0001C27.6767 46.8001 28.2767 47.1001 28.4767 47.6001C28.7767 48.2001 28.4767 48.8001 27.8767 49.0001Z" fill="#99F1FF"/>
<path d="M29.072 52.0001C28.472 52.2001 27.872 51.9001 27.672 51.4001C27.472 50.8001 27.772 50.2001 28.272 50.0001C28.872 49.8001 29.472 50.1001 29.672 50.6001C29.872 51.2001 29.672 51.8001 29.072 52.0001Z" fill="#99F1FF"/>
<path d="M30.2751 55.2003C29.6751 55.4003 29.0751 55.1003 28.8751 54.6003C28.6751 54.0003 28.9751 53.4003 29.4751 53.2003C30.0751 53.0003 30.6751 53.3003 30.8751 53.8003C31.0751 54.4003 30.8751 55.0003 30.2751 55.2003Z" fill="#99F1FF"/>
<path d="M31.4783 58.2003C30.8783 58.4003 30.2783 58.1003 30.0783 57.6003C29.8783 57.0003 30.1783 56.4003 30.6783 56.2003C31.2783 56.0003 31.8783 56.3003 32.0783 56.8003C32.2783 57.4003 31.9783 58.0003 31.4783 58.2003Z" fill="#99F1FF"/>
<path d="M32.572 61.2003C31.972 61.4003 31.372 61.1003 31.172 60.6003C30.972 60.0003 31.272 59.4003 31.772 59.2003C32.372 59.0003 32.972 59.3003 33.172 59.8003C33.472 60.4003 33.172 61.0003 32.572 61.2003Z" fill="#99F1FF"/>
<path d="M23.7751 47.2003C23.1751 47.4003 22.5751 47.1003 22.3751 46.6003C22.1751 46.0003 22.4751 45.4003 22.9751 45.2003C23.5751 45.0003 24.1751 45.3003 24.3751 45.8003C24.5751 46.4003 24.2751 47.0003 23.7751 47.2003Z" fill="#99F1FF"/>
<path d="M24.8767 50.2003C24.2767 50.4003 23.6767 50.1003 23.4767 49.6003C23.2767 49.0003 23.5767 48.4003 24.0767 48.2003C24.6767 48.0003 25.2767 48.3003 25.4767 48.8003C25.7767 49.4003 25.4767 50.0003 24.8767 50.2003Z" fill="#99F1FF"/>
<path d="M26.072 53.2003C25.472 53.4003 24.872 53.1003 24.672 52.6003C24.472 52.0003 24.772 51.4003 25.272 51.2003C25.872 51.0003 26.472 51.3003 26.672 51.8003C26.872 52.4003 26.672 53.0003 26.072 53.2003Z" fill="#99F1FF"/>
<path d="M27.2751 56.3C26.6751 56.5 26.0751 56.2 25.8751 55.7C25.6751 55.1 25.9751 54.5 26.4751 54.3C27.0751 54.1 27.6751 54.3999 27.8751 54.8999C28.0751 55.4999 27.8751 56.1 27.2751 56.3Z" fill="#99F1FF"/>
<path d="M28.4783 59.3996C27.8783 59.5996 27.2783 59.2996 27.0783 58.7996C26.8783 58.1996 27.1783 57.5996 27.6783 57.3996C28.2783 57.1996 28.8783 57.4996 29.0783 57.9996C29.2783 58.4996 28.9783 59.0996 28.4783 59.3996Z" fill="#99F1FF"/>
<path d="M29.572 62.3996C28.972 62.5996 28.372 62.2996 28.172 61.7996C27.972 61.1996 28.272 60.5996 28.772 60.3996C29.372 60.1996 29.972 60.4996 30.172 60.9996C30.472 61.4996 30.172 62.0996 29.572 62.3996Z" fill="#99F1FF"/>
<defs>
<radialGradient id="paint0_radial_0_1" cx="0" cy="0" r="1" gradientUnits="userSpaceOnUse" gradientTransform="translate(187.5 47.5) scale(170.503 170.503)">
<stop offset="0.1895" stop-color="#7F2B8A"/>
<stop offset="0.1923" stop-color="#7E2B89"/>
<stop offset="0.2749" stop-color="#5C257B"/>
<stop offset="0.3592" stop-color="#412170"/>
<stop offset="0.445" stop-color="#2E1E68"/>
<stop offset="0.5331" stop-color="#231C64"/>
<stop offset="0.6269" stop-color="#1F1B62"/>
<stop offset="0.995" stop-color="#23223C"/>
</radialGradient>
</defs>
</svg>
