<svg width="122" height="122" viewBox="0 0 122 122" fill="none" xmlns="http://www.w3.org/2000/svg">
<circle cx="61" cy="61" r="61" fill="url(#paint0_linear_95_4606)"/>
<circle cx="61" cy="61" r="41" fill="url(#paint1_linear_95_4606)"/>
<path d="M51.0003 47.6667H51.017M46.2852 57.6667C46.9716 55.7247 48.8236 54.3333 51.0006 54.3333C53.1777 54.3333 55.0297 55.7247 55.7161 57.6667M51.0003 66H51.017M46.2852 76C46.9716 74.058 48.8236 72.6667 51.0006 72.6667C53.1777 72.6667 55.0297 74.058 55.7161 76M63.667 55.1667H73.3337C74.2671 55.1667 74.7338 55.1667 75.0903 54.985C75.4039 54.8252 75.6589 54.5703 75.8187 54.2567C76.0003 53.9001 76.0003 53.4334 76.0003 52.5V51.1667C76.0003 50.2332 76.0003 49.7665 75.8187 49.41C75.6589 49.0964 75.4039 48.8414 75.0903 48.6817C74.7338 48.5 74.2671 48.5 73.3337 48.5H63.667C62.7336 48.5 62.2669 48.5 61.9103 48.6817C61.5967 48.8414 61.3418 49.0964 61.182 49.41C61.0003 49.7665 61.0003 50.2332 61.0003 51.1667V52.5C61.0003 53.4334 61.0003 53.9001 61.182 54.2567C61.3418 54.5703 61.5967 54.8252 61.9103 54.985C62.2669 55.1667 62.7336 55.1667 63.667 55.1667ZM63.667 73.5H73.3337C74.2671 73.5 74.7338 73.5 75.0903 73.3183C75.4039 73.1586 75.6589 72.9036 75.8187 72.59C76.0003 72.2335 76.0003 71.7668 76.0003 70.8333V69.5C76.0003 68.5666 76.0003 68.0999 75.8187 67.7433C75.6589 67.4297 75.4039 67.1748 75.0903 67.015C74.7338 66.8333 74.2671 66.8333 73.3337 66.8333H63.667C62.7336 66.8333 62.2669 66.8333 61.9103 67.015C61.5967 67.1748 61.3418 67.4297 61.182 67.7433C61.0003 68.0999 61.0003 68.5666 61.0003 69.5V70.8333C61.0003 71.7668 61.0003 72.2335 61.182 72.59C61.3418 72.9036 61.5967 73.1586 61.9103 73.3183C62.2669 73.5 62.7336 73.5 63.667 73.5ZM52.667 47.6667C52.667 48.5871 51.9208 49.3333 51.0003 49.3333C50.0799 49.3333 49.3337 48.5871 49.3337 47.6667C49.3337 46.7462 50.0799 46 51.0003 46C51.9208 46 52.667 46.7462 52.667 47.6667ZM52.667 66C52.667 66.9205 51.9208 67.6667 51.0003 67.6667C50.0799 67.6667 49.3337 66.9205 49.3337 66C49.3337 65.0795 50.0799 64.3333 51.0003 64.3333C51.9208 64.3333 52.667 65.0795 52.667 66Z" stroke="#F7F7FC" stroke-width="2" stroke-linecap="round" stroke-linejoin="round"/>
<defs>
<linearGradient id="paint0_linear_95_4606" x1="61" y1="0" x2="61" y2="122" gradientUnits="userSpaceOnUse">
<stop stop-color="#996AFE"/>
<stop offset="1" stop-color="#181636"/>
</linearGradient>
<linearGradient id="paint1_linear_95_4606" x1="61" y1="20" x2="61" y2="102" gradientUnits="userSpaceOnUse">
<stop stop-color="#996AFE"/>
<stop offset="1" stop-color="#996AFE" stop-opacity="0"/>
</linearGradient>
</defs>
</svg>
