<svg width="32" height="32" viewBox="0 0 32 32" fill="none" xmlns="http://www.w3.org/2000/svg">
<path d="M28 15.9999V14.9333C28 13.4398 28 12.693 27.7094 12.1226C27.4537 11.6208 27.0457 11.2129 26.544 10.9572C25.9735 10.6666 25.2268 10.6666 23.7333 10.6666H4M28 15.9999V21.3333M28 15.9999H25.3333C23.8606 15.9999 22.6667 17.1938 22.6667 18.6666C22.6667 20.1393 23.8606 21.3333 25.3333 21.3333H28M28 21.3333V22.3999C28 23.8934 28 24.6401 27.7094 25.2106C27.4537 25.7123 27.0457 26.1203 26.544 26.3759C25.9735 26.6666 25.2268 26.6666 23.7333 26.6666H8.26667C6.77319 26.6666 6.02646 26.6666 5.45603 26.3759C4.95426 26.1203 4.54631 25.7123 4.29065 25.2106C4 24.6401 4 23.8934 4 22.3999V10.6666M24 10.6666V9.59992C24 8.10645 24 7.35971 23.7094 6.78928C23.4537 6.28751 23.0457 5.87956 22.544 5.6239C21.9735 5.33325 21.2268 5.33325 19.7333 5.33325H8.26667C6.77319 5.33325 6.02646 5.33325 5.45603 5.6239C4.95426 5.87956 4.54631 6.28751 4.29065 6.78928C4 7.35971 4 8.10645 4 9.59992V10.6666" stroke="#F7F7FC" stroke-width="2" stroke-linecap="round" stroke-linejoin="round"/>
</svg>
