<svg xmlns="http://www.w3.org/2000/svg" width="195" height="20" viewBox="0 0 195 20" fill="none" data-v-c604f591=""><path fill-rule="evenodd" clip-rule="evenodd" d="M102.904 7.28907C102.904 5.53794 103.416 3.86427 104.799 2.6212C106.189 1.37106 108.523 0.5 112.285 0.5H113.885C117.966 0.5 120.294 1.53932 121.608 2.921C122.923 4.30477 123.292 6.10728 123.292 7.79354V8.36951H107.754L107.854 8.8581C108.045 9.79795 108.547 10.5951 109.449 11.1454C110.336 11.6861 111.578 11.9704 113.229 11.9704H113.256C115.242 11.9704 116.453 11.5904 117.19 11.1215C117.709 10.7912 117.983 10.4236 118.122 10.1383H123.195C123.118 10.9675 122.761 11.999 121.682 12.8767C120.415 13.9066 118.102 14.7685 113.938 14.7685H112.443C108.736 14.7685 106.359 13.8919 104.913 12.6211C103.476 11.3569 102.904 9.65435 102.904 7.87323V7.28907ZM113.046 3.00601C111.544 3.00601 110.406 3.23558 109.572 3.69628C108.722 4.16614 108.218 4.86055 107.967 5.71255L107.813 6.2352H118.314L118.181 5.72528C117.957 4.8619 117.447 4.16457 116.586 3.69521C115.744 3.23537 114.586 3.00601 113.072 3.00601H113.046ZM152.911 7.26253C152.911 5.51557 153.53 3.84786 154.815 2.61562C156.099 1.38405 158.083 0.553105 160.875 0.553105H161.269C165.267 0.553105 167.135 2.12026 167.699 2.69096L168.384 3.38487V0.898277H173.455V14.3702H168.436V11.2304L167.701 12.3474C167.361 12.8644 165.497 14.7154 161.505 14.7154H161.138C158.237 14.7154 156.188 13.8822 154.867 12.6222C153.546 11.3626 152.911 9.63719 152.911 7.767V7.26253ZM162.843 3.48396C161.088 3.48396 159.884 3.98516 159.119 4.78212C158.358 5.57518 158.088 6.60464 158.088 7.55461V7.66077C158.088 8.58022 158.423 9.60957 159.211 10.4102C160.003 11.2165 161.221 11.758 162.921 11.758H163.052C166.347 11.758 168.384 9.7061 168.384 7.66077V7.55461C168.384 5.44208 166.251 3.48396 162.973 3.48396H162.843ZM73.625 0.898277L79.1404 14.3702H84.6509L88.392 4.15503L92.1331 14.3702H97.7677L102.912 0.898277H98.3292L94.9318 10.8417L91.3628 0.898277H85.7914L82.3374 10.8417L78.8256 0.898277H73.625ZM128.635 14.3702L123.119 0.898277H128.32L131.831 10.8417L135.286 0.898277H140.857L144.426 10.8417L147.823 0.898277H152.407L147.262 14.3702H141.628L137.887 4.15503L134.145 14.3702H128.635ZM175.197 0.898277L181.63 13.3671L181.631 13.3689C181.697 13.4983 181.76 13.6197 181.818 13.733C181.94 13.9691 182.044 14.1705 182.122 14.3376C182.235 14.5784 182.331 14.8237 182.331 15.0688C182.331 15.2732 182.283 15.5435 182.035 15.7304C181.823 15.8893 181.539 15.9266 181.248 15.9266H178.345V19.362H183.057C184.25 19.362 185.12 19.0482 185.852 18.4416C186.599 17.8228 187.23 16.876 187.89 15.5514L187.892 15.5494L195.001 0.898277H190.029L185.371 11.115L180.575 0.898277H175.197Z" fill="white"></path><path fill-rule="evenodd" clip-rule="evenodd" d="M60.5872 0.916161C61.1355 1.47104 61.1355 2.37069 60.5872 2.92557L50.0689 13.5748C49.521 14.1297 48.6324 14.1297 48.0843 13.5748C47.5362 13.0199 47.5362 12.1203 48.0843 11.5654L58.6025 0.916161C59.1507 0.36128 60.0393 0.36128 60.5872 0.916161ZM32.1932 2.92557C31.6451 2.37069 31.6451 1.47104 32.1932 0.916161C32.7412 0.36128 33.6298 0.36128 34.1779 0.916161L44.6962 11.5654C45.2443 12.1203 45.2443 13.0199 44.6962 13.5748C44.148 14.1297 43.2596 14.1297 42.7115 13.5748L32.1932 2.92557ZM28.805 0.916161C29.353 1.47104 29.353 2.37069 28.805 2.92557L18.2867 13.5748C17.7387 14.1297 16.85 14.1297 16.302 13.5748C15.7539 13.0199 15.7539 12.1203 16.302 11.5654L26.8203 0.916161C27.3684 0.36128 28.2569 0.36128 28.805 0.916161ZM0.411044 2.92557C-0.137015 2.37069 -0.137015 1.47104 0.411044 0.916161C0.959105 0.36128 1.84769 0.36128 2.39575 0.916161L12.914 11.5654C13.4621 12.1203 13.4621 13.0199 12.914 13.5748C12.3659 14.1297 11.4774 14.1297 10.9293 13.5748L0.411044 2.92557Z" fill="white"></path></svg>