<svg width="40" height="40" viewBox="0 0 40 40" fill="none" xmlns="http://www.w3.org/2000/svg">
<path d="M0 8C0 3.58172 3.58172 0 8 0H32C36.4183 0 40 3.58172 40 8V32C40 36.4183 36.4183 40 32 40H8C3.58172 40 0 36.4183 0 32V8Z" fill="url(#paint0_linear_72_1847)"/>
<path d="M20 15.9999H20.0133M24 29.3333L26.6667 31.9999L32 26.6666M16.2279 23.9999C16.777 22.4463 18.2586 21.3333 20.0003 21.3333C21.7419 21.3333 23.2235 22.4463 23.7726 23.9999M30.6654 21.3333V13.5999C30.6654 12.1064 30.6654 11.3597 30.3747 10.7893C30.1191 10.2875 29.7111 9.87956 29.2093 9.6239C28.6389 9.33325 27.8922 9.33325 26.3987 9.33325H13.5987C12.1052 9.33325 11.3585 9.33325 10.7881 9.6239C10.2863 9.87956 9.87834 10.2875 9.62268 10.7893C9.33203 11.3597 9.33203 12.1064 9.33203 13.5999V26.3999C9.33203 27.8934 9.33203 28.6401 9.62268 29.2106C9.87834 29.7123 10.2863 30.1203 10.7881 30.3759C11.3585 30.6666 12.1052 30.6666 13.5987 30.6666H18.6667M21.3333 15.9999C21.3333 16.7363 20.7364 17.3333 20 17.3333C19.2636 17.3333 18.6667 16.7363 18.6667 15.9999C18.6667 15.2635 19.2636 14.6666 20 14.6666C20.7364 14.6666 21.3333 15.2635 21.3333 15.9999Z" stroke="#F7F7FC" stroke-width="2" stroke-linecap="round" stroke-linejoin="round"/>
<defs>
<linearGradient id="paint0_linear_72_1847" x1="1.06952e-06" y1="37.1429" x2="40" y2="-1.12105e-06" gradientUnits="userSpaceOnUse">
<stop stop-color="#9610FF"/>
<stop offset="1" stop-color="#B14DFF" stop-opacity="0"/>
</linearGradient>
</defs>
</svg>
