<svg width="24" height="24" viewBox="0 0 24 24" fill="none" xmlns="http://www.w3.org/2000/svg">
<g id="Group 1261157136">
<rect id="Rectangle 1329" width="24" height="24" rx="6" fill="#006877"/>
<g id="Group 1000003215">
<path id="Vector" d="M9.17519 7.12793C9.9743 7.14208 10.5361 7.4279 10.9758 7.89768C11.3736 8.32783 11.6109 8.82024 11.7958 9.32963C12.0471 10.0173 12.1797 10.7248 12.3228 11.4323C12.56 12.5897 12.8671 13.733 13.4464 14.8169C13.6418 15.1848 13.8791 15.5329 14.2245 15.8272C14.3606 15.9432 14.5142 16.0423 14.6956 16.1074C15.0236 16.2234 15.3168 16.1809 15.5715 15.9772C15.8856 15.7281 16.081 15.414 16.245 15.0914C16.6114 14.3783 16.8173 13.6255 16.9813 12.8671C17.0441 12.5671 17.0964 12.2671 17.1418 11.9671C17.1732 11.7606 17.3896 11.6304 17.6443 11.6587C17.8711 11.6841 18.0246 11.8653 17.9967 12.0634C17.8641 12.9831 17.6582 13.8915 17.3093 14.7745C17.0999 15.3037 16.8452 15.8187 16.416 16.2602C16.1508 16.5319 15.8367 16.7554 15.411 16.8347C14.7898 16.9507 14.2629 16.7837 13.7953 16.4611C13.3417 16.1498 13.0346 15.7451 12.7799 15.3178C12.239 14.4151 11.9389 13.4529 11.6772 12.4794C11.4957 11.803 11.4015 11.1153 11.234 10.439C11.0979 9.88147 10.9304 9.32963 10.6338 8.81175C10.4628 8.51461 10.2604 8.23727 9.92893 8.03351C9.46133 7.74486 8.91697 7.77033 8.49474 8.10143C8.13531 8.38443 7.91198 8.741 7.72006 9.10889C7.36064 9.80506 7.15476 10.5352 6.99424 11.2766C6.94189 11.5228 6.90351 11.7719 6.86163 12.0209C6.82674 12.236 6.62086 12.3718 6.36263 12.3464C6.13232 12.3237 5.97529 12.1426 6.00321 11.936C6.12534 11.0955 6.32425 10.2692 6.64179 9.46547C6.8721 8.87684 7.15824 8.30802 7.6398 7.82127C7.97131 7.49016 8.36911 7.23264 8.90301 7.15623C9.01119 7.13925 9.11936 7.13359 9.17519 7.12793Z" fill="url(#paint0_linear_2550_8786)"/>
<path id="Vector_2" d="M9.17519 6C9.9743 6.01743 10.5361 6.36944 10.9758 6.948C11.3736 7.47777 11.6109 8.08421 11.7958 8.71157C12.0471 9.5585 12.1797 10.4298 12.3228 11.3012C12.56 12.7266 12.8671 14.1347 13.4464 15.4696C13.6418 15.9227 13.8791 16.3514 14.2245 16.7138C14.3606 16.8567 14.5142 16.9787 14.6956 17.0589C15.0236 17.2018 15.3168 17.1495 15.5715 16.8986C15.8856 16.5918 16.081 16.205 16.245 15.8077C16.6114 14.9294 16.8173 14.0023 16.9813 13.0682C17.0441 12.6988 17.0964 12.3293 17.1418 11.9599C17.1732 11.7054 17.3896 11.5451 17.6443 11.58C17.8711 11.6113 18.0246 11.8344 17.9967 12.0784C17.8641 13.2111 17.6582 14.3299 17.3093 15.4173C17.0999 16.0691 16.8452 16.7034 16.416 17.2471C16.1508 17.5817 15.8367 17.857 15.411 17.9546C14.7898 18.0975 14.2629 17.8919 13.7953 17.4945C13.3417 17.1112 13.0346 16.6128 12.7799 16.0865C12.239 14.9747 11.9389 13.7897 11.6772 12.5907C11.4957 11.7577 11.4015 10.9108 11.234 10.0778C11.0979 9.3912 10.9304 8.71157 10.6338 8.07376C10.4628 7.7078 10.2604 7.36624 9.92893 7.1153C9.46134 6.7598 8.91697 6.79116 8.49474 7.19895C8.13531 7.54748 7.91198 7.98663 7.72006 8.43972C7.36064 9.2971 7.15476 10.1963 6.99424 11.1095C6.94189 11.4127 6.90351 11.7194 6.86163 12.0261C6.82674 12.291 6.62086 12.4583 6.36263 12.4269C6.13232 12.399 5.97529 12.176 6.00321 11.9215C6.12534 10.8864 6.32425 9.86869 6.64179 8.87886C6.8721 8.15392 7.15824 7.45337 7.6398 6.8539C7.97131 6.44612 8.36911 6.12896 8.90301 6.03485C9.01119 6.01394 9.11936 6.00697 9.17519 6Z" fill="url(#paint1_linear_2550_8786)"/>
<path id="Vector_3" d="M9.17519 8.20508C9.9743 8.2161 10.5361 8.43874 10.9758 8.80467C11.3736 9.13974 11.6109 9.5233 11.7958 9.92009C12.0471 10.4558 12.1797 11.0068 12.3228 11.5579C12.56 12.4595 12.8671 13.3501 13.4464 14.1944C13.6418 14.481 13.8791 14.7521 14.2245 14.9813C14.3606 15.0717 14.5142 15.1489 14.6956 15.1996C15.0236 15.29 15.3168 15.2569 15.5715 15.0982C15.8856 14.9042 16.081 14.6595 16.245 14.4082C16.6114 13.8527 16.8173 13.2663 16.9813 12.6756C17.0441 12.4419 17.0964 12.2082 17.1418 11.9746C17.1732 11.8137 17.3896 11.7123 17.6443 11.7343C17.8711 11.7541 18.0246 11.8952 17.9967 12.0495C17.8641 12.7659 17.6582 13.4736 17.3093 14.1613C17.0999 14.5735 16.8452 14.9747 16.416 15.3186C16.1508 15.5302 15.8367 15.7044 15.411 15.7661C14.7898 15.8565 14.2629 15.7264 13.7953 15.4751C13.3417 15.2326 13.0346 14.9174 12.7799 14.5846C12.239 13.8814 11.9389 13.1319 11.6772 12.3736C11.4957 11.8467 11.4015 11.3111 11.234 10.7842C11.0979 10.3499 10.9304 9.92009 10.6338 9.51669C10.4628 9.28523 10.2604 9.0692 9.92893 8.91048C9.46133 8.68563 8.91697 8.70547 8.49474 8.96339C8.13531 9.18382 7.91198 9.46158 7.72006 9.74815C7.36064 10.2904 7.15476 10.8592 6.99424 11.4367C6.94189 11.6285 6.90351 11.8225 6.86164 12.0165C6.82674 12.184 6.62086 12.2898 6.36263 12.27C6.13232 12.2523 5.97529 12.1112 6.00321 11.9503C6.12534 11.2956 6.32425 10.6519 6.64179 10.0259C6.8721 9.56739 7.15824 9.12431 7.6398 8.74515C7.97131 8.48724 8.36911 8.28664 8.90301 8.22712C9.01119 8.2139 9.11936 8.20949 9.17519 8.20508Z" fill="url(#paint2_linear_2550_8786)"/>
</g>
</g>
<defs>
<linearGradient id="paint0_linear_2550_8786" x1="12.0006" y1="5.93727" x2="12.0006" y2="17.2468" gradientUnits="userSpaceOnUse">
<stop offset="0.0874372" stop-color="white" stop-opacity="0"/>
<stop offset="0.536458" stop-color="white"/>
<stop offset="1" stop-color="white" stop-opacity="0"/>
</linearGradient>
<linearGradient id="paint1_linear_2550_8786" x1="12.0006" y1="4.53361" x2="12.0006" y2="18.4621" gradientUnits="userSpaceOnUse">
<stop offset="0.0874372" stop-color="white" stop-opacity="0"/>
<stop offset="0.536458" stop-color="white"/>
<stop offset="1" stop-color="white" stop-opacity="0"/>
</linearGradient>
<linearGradient id="paint2_linear_2550_8786" x1="12" y1="8.20508" x2="12" y2="15.7948" gradientUnits="userSpaceOnUse">
<stop stop-color="white"/>
<stop offset="0.479167" stop-color="white"/>
<stop offset="1" stop-color="white"/>
</linearGradient>
</defs>
</svg>
