<svg width="10" height="6" viewBox="0 0 10 6" fill="none" xmlns="http://www.w3.org/2000/svg">
<path d="M5 4.66699L5.35355 5.02055C5.15829 5.21581 4.84171 5.21581 4.64645 5.02055L5 4.66699ZM8.64645 0.313439C8.84171 0.118176 9.15829 0.118176 9.35355 0.313439C9.54882 0.508701 9.54882 0.825283 9.35355 1.02055L8.64645 0.313439ZM0.646446 1.02055C0.451184 0.825283 0.451184 0.5087 0.646446 0.313439C0.841708 0.118176 1.15829 0.118176 1.35355 0.313439L0.646446 1.02055ZM4.64645 4.31344L8.64645 0.313439L9.35355 1.02055L5.35355 5.02055L4.64645 4.31344ZM4.64645 5.02055L0.646446 1.02055L1.35355 0.313439L5.35355 4.31344L4.64645 5.02055Z" fill="#F7F7FC"/>
</svg>
