<svg width="24" height="24" viewBox="0 0 24 24" fill="none" xmlns="http://www.w3.org/2000/svg">
<g id="Group 1000003140">
<rect id="Rectangle 1329" width="24" height="24" rx="6" fill="#006877"/>
<g id="Group 1000003074">
<path id="Vector" d="M5.77555 17.3191C5.77555 17.1671 5.7708 17.0199 5.77555 16.8679C5.78505 16.6067 5.94652 16.4405 6.20773 16.431C6.52118 16.4215 6.83938 16.4215 7.15284 16.431C7.3998 16.4357 7.57077 16.6019 7.57552 16.8489C7.58502 17.1623 7.58502 17.4805 7.57552 17.794C7.57077 18.0552 7.40455 18.2214 7.14334 18.2309C6.83464 18.2404 6.52593 18.2357 6.22198 18.2309C5.94652 18.2262 5.78505 18.06 5.77555 17.7892C5.7708 17.6325 5.77555 17.4758 5.77555 17.3191Z" fill="white"/>
<path id="Vector_2" d="M16.9859 17.4805C17.5083 17.4852 17.931 17.9127 17.931 18.4351C17.9262 18.9575 17.4988 19.3802 16.9764 19.3802C16.4539 19.3754 16.0312 18.948 16.0312 18.4256C16.036 17.9032 16.4634 17.4805 16.9859 17.4805Z" fill="white"/>
<path id="Vector_3" d="M16.9223 7.03223C17.193 7.03223 17.9149 7.75886 17.9101 8.02482C17.9054 8.29553 17.174 9.00792 16.908 9.00317C16.6516 8.99842 15.9344 8.27654 15.9297 8.02482C15.9297 7.75886 16.6563 7.03223 16.9223 7.03223Z" fill="white"/>
<path id="Vector_4" d="M6.71939 6.60097C6.54367 6.60097 6.3727 6.61046 6.19697 6.60097C5.86452 6.58197 5.67455 6.27327 5.82653 5.97406C5.99276 5.65111 6.16848 5.33291 6.35845 5.02421C6.53892 4.725 6.91411 4.725 7.09933 5.02421C7.28931 5.33291 7.46503 5.65111 7.63125 5.97406C7.78323 6.27327 7.59801 6.58197 7.26556 6.60097C7.08034 6.61046 6.89987 6.60097 6.71939 6.60097Z" fill="white"/>
<path id="Vector_5" d="M17.6638 9.94039C17.4178 9.80967 17.1467 9.75939 16.8705 9.74431C16.0269 9.69403 15.2035 9.82978 14.39 10.0208C13.918 10.1315 13.4561 10.2722 12.9891 10.3979C12.8987 10.4231 12.8385 10.4683 12.8435 10.5689C12.8485 10.6342 12.8837 10.6795 12.9489 10.6946C13.0293 10.7147 13.0945 10.6745 13.1648 10.6544C14.0536 10.3879 14.9524 10.1566 15.8763 10.0711C16.3985 10.0208 16.9308 9.98062 17.4379 10.1717C17.7593 10.2923 17.8396 10.4985 17.709 10.8102C17.6036 11.0516 17.4379 11.2527 17.2571 11.4387C16.8203 11.8912 16.3131 12.2583 15.7809 12.6002C14.9926 13.108 14.159 13.5253 13.3105 13.9175C13.1498 13.9929 13.1096 13.8923 13.0393 13.8018C12.9339 13.6711 13.0745 13.6661 13.1247 13.6309C13.3155 13.4851 13.4511 13.299 13.441 13.0577C13.3908 12.0018 13.1699 11.0264 12.1003 10.4734C12.5221 10.2672 12.8334 9.97056 13.0343 9.56833C13.0745 9.48285 13.1397 9.45269 13.21 9.40744C13.4209 9.28174 13.5163 8.81414 13.3456 8.65325C13.2452 8.55772 13.2301 8.45716 13.21 8.34655C13.0544 7.56219 12.5924 7.03929 11.8292 6.81303C11.071 6.5918 10.4132 6.80298 9.86089 7.35605C9.80565 7.41135 9.76046 7.47672 9.66506 7.4918C9.34872 7.54208 9.16294 7.73817 9.09766 8.04487C9.01732 8.41694 8.91188 8.79403 9.30855 9.07057C9.35877 9.10576 9.38889 9.14598 9.40898 9.20632C9.57468 9.78453 9.9362 10.2018 10.4785 10.4734C10.4433 10.4985 10.4132 10.5186 10.3831 10.5337C9.3437 10.956 8.79137 11.8158 8.38967 12.7962C8.25912 13.113 8.41478 13.47 8.70601 13.6359C8.98217 13.7968 9.3437 13.7365 9.5797 13.4951C9.61987 13.4549 9.62489 13.3644 9.72531 13.3745C9.72531 13.4951 9.72029 13.6108 9.72531 13.7264C9.7454 14.1337 9.66506 14.551 9.8408 14.9381C9.92114 15.1191 9.85084 15.1393 9.70021 15.1745C9.09766 15.3253 8.49512 15.446 7.87751 15.5013C7.44568 15.5415 7.00884 15.5566 6.58204 15.456C6.04979 15.3303 5.9343 15.0387 6.22051 14.5761C6.32595 14.4052 6.4565 14.2543 6.5971 14.1085C6.98373 13.7113 7.4256 13.3845 7.88755 13.0778C7.98797 13.0125 8.10848 12.937 8.01308 12.8013C7.92772 12.6806 7.82227 12.756 7.72687 12.8164C7.31011 13.0929 6.90339 13.3895 6.53684 13.7365C6.24561 14.013 5.96443 14.3046 5.82383 14.6918C5.68324 15.0789 5.79873 15.4057 6.15523 15.6119C6.39123 15.7476 6.65233 15.8029 6.92348 15.8231C7.92772 15.8934 8.90183 15.6823 9.86591 15.446C10.0216 15.4057 10.117 15.4258 10.2325 15.5465C10.8752 16.2152 11.5279 16.8739 12.1857 17.5325C12.4669 17.8141 12.8385 17.8694 13.1749 17.7035C13.5113 17.5376 13.6921 17.1957 13.6519 16.8136C13.6318 16.6275 13.5113 16.4817 13.446 16.3108C14.139 16.17 14.3498 15.6571 13.9632 15.0638C13.8025 14.8175 13.6318 14.5812 13.4561 14.3448C13.3808 14.2443 13.3858 14.2041 13.5063 14.1488C13.8779 13.9778 14.2444 13.8018 14.6059 13.6158C15.6202 13.0828 16.6094 12.5046 17.4329 11.6901C17.6839 11.4437 17.9099 11.1722 18.0204 10.8253C18.1409 10.4382 18.0204 10.1315 17.6638 9.94039ZM12.1154 8.81414C12.1455 8.72364 12.1455 8.64319 12.2861 8.67839C12.5271 8.73872 12.7732 8.78397 13.0192 8.8242C13.1498 8.84431 13.1197 8.90967 13.1096 8.99515C13.0945 9.08565 13.0845 9.1661 12.9439 9.11582C12.718 9.07057 12.4719 9.02531 12.2259 8.98006C12.1204 8.96498 12.0803 8.92978 12.1154 8.81414ZM10.0366 12.384C10.0366 12.4242 10.0366 12.4644 10.0366 12.5097C10.0366 12.57 10.0366 12.6253 10.0366 12.6856C10.0366 12.7812 9.99646 12.8516 9.89603 12.8566C9.78557 12.8616 9.73536 12.7912 9.73536 12.6806C9.73536 12.58 9.73536 12.4795 9.73536 12.384C9.73033 12.2784 9.7454 12.1678 9.87595 12.1627C10.0216 12.1527 10.0416 12.2683 10.0366 12.384ZM9.65 8.88956C9.43408 8.84431 9.30855 8.72364 9.32362 8.45716C9.3437 8.34655 9.35877 8.20576 9.39893 8.07001C9.45919 7.85381 9.61485 7.75325 9.83578 7.79348C10.4082 7.90409 10.9806 8.01973 11.553 8.13035C11.779 8.1756 11.8794 8.32141 11.8543 8.54766C11.8443 8.62308 11.8342 8.6985 11.8192 8.76889C11.7288 9.19626 11.6284 9.26665 11.1965 9.18621C10.6844 9.09068 10.1672 8.99012 9.65 8.88956ZM12.9991 15.9186C12.8786 15.999 12.8033 15.8985 12.738 15.8029C12.5372 15.4962 12.3163 15.1996 12.1305 14.8828C12.0602 14.7571 12.0049 14.7722 11.8995 14.8124C11.4677 14.9633 11.0308 15.1041 10.594 15.2448C10.5538 15.2599 10.5136 15.27 10.4735 15.28C10.3228 15.3152 10.2776 15.1895 10.2475 15.099C10.2073 14.9784 10.3479 15.0085 10.3982 14.9934C10.9153 14.8376 11.4325 14.6666 11.9397 14.4705C12.1154 14.4052 12.4368 13.9627 12.4468 13.7817C12.4518 13.6962 12.3815 13.6912 12.3414 13.6661C12.1556 13.5404 12.0552 13.3644 12.0401 13.1432C12.02 12.8767 12.0702 12.6102 11.9999 12.3437C11.9748 12.2482 12.0351 12.1778 12.1305 12.1678C12.2158 12.1577 12.2711 12.213 12.2912 12.2935C12.3464 12.4996 12.3464 12.7057 12.3363 12.9169C12.3213 13.3091 12.3464 13.3393 12.7129 13.475C12.8284 13.5152 12.8686 13.5907 12.8134 13.7113C12.7732 13.7918 12.733 13.8773 12.6928 13.9577C12.6577 14.0331 12.6226 14.1085 12.5673 14.2292C12.6778 14.184 12.733 14.1588 12.7933 14.1387C12.9339 14.0834 12.969 14.2191 13.0142 14.2895C13.0895 14.4102 12.9489 14.3951 12.8987 14.4203C12.7832 14.4806 12.6577 14.5359 12.5322 14.5711C12.3363 14.6264 12.3514 14.7169 12.4518 14.8577C12.6376 15.1141 12.8083 15.3806 12.9891 15.6471C13.0594 15.7275 13.1247 15.8331 12.9991 15.9186Z" fill="white"/>
</g>
</g>
</svg>
