<svg width="97" height="90" viewBox="0 0 97 90" fill="none" xmlns="http://www.w3.org/2000/svg">
<g id="Group 1261153187" filter="url(#filter0_d_2548_8102)">
<g id="Group">
<g id="OBJECTS">
<path id="Vector" d="M35.6079 17.6264L33.3811 18.8328L33.8436 16.3485L32.0078 14.6081L34.5159 14.2743L35.6079 11.9951L36.695 14.2743L39.2031 14.6081L37.3673 16.3485L37.8299 18.8328L35.6079 17.6264Z" fill="url(#paint0_linear_2548_8102)"/>
<path id="Vector_2" style="mix-blend-mode:overlay" d="M32.0078 14.6081L35.6079 15.414V11.9951L34.5159 14.2743L32.0078 14.6081Z" fill="url(#paint1_radial_2548_8102)"/>
<path id="Vector_3" style="mix-blend-mode:multiply" d="M35.6094 15.4133L39.2046 14.6074L37.3689 16.3478L37.8314 18.8321L35.6094 15.4133Z" fill="url(#paint2_linear_2548_8102)"/>
<path id="Vector_4" style="mix-blend-mode:multiply" d="M35.6096 15.416L33.3828 18.8349L35.6096 17.6285V15.416Z" fill="url(#paint3_linear_2548_8102)"/>
<path id="Vector_5" d="M61.3531 17.6264L59.1311 18.8328L59.5936 16.3485L57.7578 14.6081L60.2659 14.2743L61.3531 11.9951L62.445 14.2743L64.9531 14.6081L63.1173 16.3485L63.5799 18.8328L61.3531 17.6264Z" fill="url(#paint4_linear_2548_8102)"/>
<path id="Vector_6" style="mix-blend-mode:overlay" d="M57.7578 14.6081L61.3531 15.414V11.9951L60.2659 14.2743L57.7578 14.6081Z" fill="url(#paint5_radial_2548_8102)"/>
<path id="Vector_7" style="mix-blend-mode:multiply" d="M61.3516 15.4133L64.9516 14.6074L63.1158 16.3478L63.5783 18.8321L61.3516 15.4133Z" fill="url(#paint6_linear_2548_8102)"/>
<path id="Vector_8" style="mix-blend-mode:multiply" d="M61.347 15.416L59.125 18.8349L61.347 17.6285V15.416Z" fill="url(#paint7_linear_2548_8102)"/>
<path id="Vector_9" d="M48.4907 9.63609L46.2639 10.8425L46.7264 8.35343L44.8906 6.61301L47.3987 6.284L48.4907 4L49.5778 6.284L52.0859 6.61301L50.2502 8.35343L50.7127 10.8425L48.4907 9.63609Z" fill="url(#paint8_linear_2548_8102)"/>
<path id="Vector_10" style="mix-blend-mode:overlay" d="M44.8906 6.61301L48.4907 7.41885V4L47.3987 6.284L44.8906 6.61301Z" fill="url(#paint9_radial_2548_8102)"/>
<path id="Vector_11" style="mix-blend-mode:multiply" d="M48.4844 7.41912L52.0796 6.61328L50.2439 8.3537L50.7064 10.8427L48.4844 7.41912Z" fill="url(#paint10_linear_2548_8102)"/>
<path id="Vector_12" style="mix-blend-mode:multiply" d="M48.4846 7.41699L46.2578 10.8406L48.4846 9.63424V7.41699Z" fill="url(#paint11_linear_2548_8102)"/>
<path id="Vector_13" d="M51.0481 18.6221V18.8319L50.9766 18.727L51.0481 18.6221Z" fill="url(#paint12_linear_2548_8102)"/>
<path id="Vector_14" d="M48.2981 76.9787C48.2185 76.9608 48.1404 76.9369 48.0644 76.9072C46.0105 76.1715 44.0215 75.2656 42.1184 74.1988C29.3871 67.0798 21.4766 53.4044 21.4766 38.5131V21.3473L22.6543 21.6334C25.4421 22.3296 28.302 22.6961 31.1752 22.7254C41.8657 22.7254 46.7388 17.0464 47.6401 15.8543C47.6751 15.8012 47.7133 15.7502 47.7545 15.7017L48.5746 14.748L49.3185 15.8734C50.2197 17.0607 55.0929 22.7444 65.7881 22.7444C68.6617 22.712 71.5216 22.3423 74.309 21.643L75.4867 21.3569V38.5226C75.4867 53.4139 67.5762 67.0893 54.8449 74.2084C52.9314 75.2828 50.9313 76.1952 48.8655 76.9358C48.8017 76.9594 48.7364 76.9786 48.67 76.993L48.484 77.0312L48.2981 76.9787Z" fill="url(#paint13_linear_2548_8102)"/>
<path id="Vector_15" d="M74.5312 22.5978V38.5095C74.5312 52.8954 66.9354 66.3419 54.3805 73.3656C52.5078 74.4073 50.5507 75.2894 48.5299 76.0024L48.4679 76.0263L48.3964 76.0024C46.3809 75.2836 44.43 74.3951 42.5648 73.3465C30.0099 66.3276 22.4141 52.8811 22.4141 38.4952V22.5978C39.8278 26.7558 47.3521 17.8296 48.4107 16.3991L48.4822 16.3037C48.4822 16.3323 48.5203 16.3609 48.5442 16.3991C49.6075 17.8296 57.1128 26.7558 74.5312 22.5978Z" fill="url(#paint14_linear_2548_8102)"/>
<path id="Vector_16" style="mix-blend-mode:multiply" d="M27.4922 58.1597C31.0051 64.5342 36.2287 69.8008 42.5742 73.3657C44.4401 74.4078 46.391 75.2899 48.4058 76.0026L48.4773 76.0264L48.525 76.0026C50.5416 75.2826 52.4939 74.3942 54.3614 73.3466C60.7069 69.7817 65.9305 64.5151 69.4434 58.1406L27.4922 58.1597Z" fill="url(#paint15_linear_2548_8102)"/>
<path id="Vector_17" style="mix-blend-mode:screen" d="M74.5312 22.5978V38.5095C74.5312 52.8954 66.9354 66.3419 54.3805 73.3656C52.5078 74.4073 50.5507 75.2894 48.5299 76.0024L48.4679 76.0263L48.3964 76.0024C46.3809 75.2836 44.43 74.3951 42.5648 73.3465C30.0099 66.3276 22.4141 52.8811 22.4141 38.4952V22.5978C39.8278 26.7558 47.3521 17.8296 48.4107 16.3991L48.4822 16.3037C48.4822 16.3323 48.5203 16.3609 48.5442 16.3991C49.6075 17.8296 57.1128 26.7558 74.5312 22.5978Z" stroke="url(#paint16_linear_2548_8102)" stroke-width="0.81" stroke-miterlimit="10"/>
<g id="Group_2" style="mix-blend-mode:multiply" opacity="0.7">
<path id="Vector_18" d="M48.4832 22.9528C51.8783 25.5659 57.5 28.4459 65.7921 28.4459C67.1205 28.4439 68.4479 28.3723 69.7688 28.2313V38.5069C69.7688 51.3288 62.9788 63.0921 52.0547 69.2003C50.8989 69.8476 49.7064 70.4271 48.4832 70.9359C47.2601 70.4272 46.0676 69.8477 44.9118 69.2003C33.9925 63.0921 27.2025 51.3336 27.2025 38.5117V28.2313C28.5234 28.3723 29.8508 28.4439 31.1792 28.4459C39.4664 28.4459 45.0882 25.5849 48.4832 22.9528ZM48.4832 20.502L47.8777 20.9788C44.8069 23.506 39.414 26.5195 31.1887 26.5195C29.5813 26.515 27.9758 26.4067 26.3823 26.1953L25.3047 26.0522V38.5117C25.3047 52.025 32.4571 64.4225 43.9915 70.8644C45.3303 71.6155 46.7159 72.2796 48.1399 72.8528L48.4928 72.9958L48.8504 72.8528C50.2744 72.2796 51.6601 71.6155 52.9988 70.8644C64.5237 64.4177 71.6856 52.0202 71.6856 38.5069V26.0713L70.608 26.2143C69.0145 26.4258 67.409 26.5341 65.8016 26.5386C57.562 26.5386 52.1691 23.525 49.1127 20.9979L48.5071 20.521L48.4832 20.502Z" fill="url(#paint17_linear_2548_8102)"/>
</g>
<path id="Vector_19" d="M48.4766 71.9653C47.0919 71.418 45.7443 70.7809 44.4427 70.058C33.2182 63.7591 26.2422 51.6811 26.2422 38.5111V27.1578C27.8768 27.3751 29.5236 27.4866 31.1726 27.4916C39.7316 27.4916 45.3343 24.3207 48.4766 21.7363C51.6189 24.3207 57.2216 27.4916 65.7854 27.4916C67.4344 27.4866 69.0813 27.3751 70.7158 27.1578V38.5063C70.7158 51.6763 63.7399 63.7543 52.5154 70.0294C51.2117 70.7601 49.8628 71.4067 48.4766 71.9653Z" fill="url(#paint18_radial_2548_8102)"/>
<g id="Vector_20" style="mix-blend-mode:lighten" opacity="0.5">
<path d="M31.172 28.4483C29.8436 28.4464 28.5162 28.3748 27.1953 28.2338V38.5142C27.1953 51.336 33.9853 63.0946 44.9047 69.2027C46.022 69.8268 47.1729 70.3888 48.3521 70.8859V23.0459C44.9476 25.6351 39.3592 28.4483 31.172 28.4483Z" fill="url(#paint19_radial_2548_8102)" style="mix-blend-mode:screen"/>
</g>
<g id="Vector_21" style="mix-blend-mode:lighten">
<path d="M65.7922 28.4462C57.5049 28.4462 51.8784 25.5852 48.4834 22.9531L48.3594 23.0437V70.8838L48.4834 70.9362C49.7065 70.4274 50.899 69.8479 52.0548 69.2006C62.9789 63.0924 69.7689 51.3291 69.7689 38.5072V28.2316C68.448 28.3726 67.1206 28.4442 65.7922 28.4462Z" fill="url(#paint20_radial_2548_8102)" style="mix-blend-mode:color-dodge"/>
</g>
<path id="Vector_22" style="mix-blend-mode:multiply" d="M48.4766 71.9653C47.0919 71.418 45.7443 70.7809 44.4427 70.058C33.2182 63.7591 26.2422 51.6811 26.2422 38.5111V27.1578C27.8768 27.3751 29.5236 27.4866 31.1726 27.4916C39.7316 27.4916 45.3343 24.3207 48.4766 21.7363C51.6189 24.3207 57.2216 27.4916 65.7854 27.4916C67.4344 27.4866 69.0813 27.3751 70.7158 27.1578V38.5063C70.7158 51.6763 63.7399 63.7543 52.5153 70.0294C51.2117 70.7601 49.8628 71.4067 48.4766 71.9653Z" stroke="url(#paint21_linear_2548_8102)" stroke-width="0.5" stroke-miterlimit="10"/>
<path id="Vector_23" style="mix-blend-mode:screen" d="M71.6634 26.0723V38.5079C71.6634 52.0212 64.511 64.4187 52.9765 70.8654C51.6378 71.6164 50.2521 72.2806 48.8281 72.8537" stroke="url(#paint22_linear_2548_8102)" stroke-width="0.81" stroke-miterlimit="10"/>
<path id="Vector_24" d="M50.9747 18.727L50.8984 18.8319V18.6221C50.8984 18.6221 50.9127 18.6602 50.9747 18.727Z" fill="url(#paint23_linear_2548_8102)"/>
<path id="Vector_25" style="mix-blend-mode:multiply" d="M28.9759 43.8999C28.8258 44.3381 28.5434 44.7189 28.1675 44.9896C27.7917 45.2604 27.3411 45.4078 26.8779 45.4114L21.8903 44.4578C21.7854 43.7187 21.6948 42.9748 21.6328 42.2262V42.2024C22.3194 41.5062 26.0768 41.9449 26.0768 41.9449L27.8173 39.2842L28.2178 39.5941L28.9759 43.8999Z" fill="url(#paint24_linear_2548_8102)"/>
<path id="Vector_26" style="mix-blend-mode:multiply" d="M30.1689 50.5888C30.1689 50.5888 30.0497 51.49 28.8052 52.0193L23.6412 51.7761C23.2851 50.7112 22.9672 49.6335 22.6875 48.5432C23.3076 48.3668 23.9501 48.2817 24.5948 48.2905C25.1098 48.3429 28.9816 46.3164 28.9816 46.3164L29.3154 46.5977L30.1689 50.5888Z" fill="url(#paint25_linear_2548_8102)"/>
<path id="Vector_27" style="mix-blend-mode:multiply" d="M30.886 55.3451C30.7854 55.5897 30.632 55.8089 30.4366 55.987C30.2411 56.1651 30.0087 56.2976 29.7559 56.375C28.4309 56.522 27.1169 56.7545 25.8221 57.0712C25.4597 56.3401 25.1179 55.5994 24.7969 54.8492C25.0456 54.4809 25.3865 54.1841 25.7855 53.9884C26.1845 53.7926 26.6278 53.7047 27.0713 53.7334C27.7055 53.8097 29.98 52.4746 29.98 52.4746L30.2661 52.7559L30.886 55.3451Z" fill="url(#paint26_linear_2548_8102)"/>
<path id="Vector_28" d="M28.5655 43.9015L27.8217 39.262L8 30.7363L9.81194 39.262L28.5655 43.9015Z" fill="url(#paint27_linear_2548_8102)"/>
<path id="Vector_29" d="M28.9961 46.3198L13.5469 42.7197L14.8581 48.785L29.7781 50.4872L28.9961 46.3198Z" fill="url(#paint28_linear_2548_8102)"/>
<path id="Vector_30" d="M29.9906 52.4725L19.4766 51.7764L20.3396 55.6959L30.5962 55.1761L29.9906 52.4725Z" fill="url(#paint29_linear_2548_8102)"/>
<path id="Vector_31" d="M28.5661 43.8999C28.3813 44.1845 28.1079 44.4004 27.7882 44.5142C27.4684 44.6279 27.1201 44.6332 26.7971 44.5293L9.8125 39.2842L28.5661 43.8999Z" fill="url(#paint30_linear_2548_8102)"/>
<path id="Vector_32" d="M29.7715 50.4874C29.5711 50.7976 29.282 51.0403 28.9419 51.184C28.6017 51.3277 28.2262 51.3658 27.8642 51.2933L14.8516 48.7852L29.7715 50.4874Z" fill="url(#paint31_linear_2548_8102)"/>
<path id="Vector_33" d="M30.5925 55.1748C30.4036 55.3964 30.1679 55.5733 29.9024 55.6929C29.6369 55.8124 29.3482 55.8716 29.0571 55.8662L20.3359 55.6945L30.5925 55.1748Z" fill="url(#paint32_linear_2548_8102)"/>
<path id="Vector_34" style="mix-blend-mode:overlay" d="M8 30.7363L8.84398 34.7083L28.2222 41.7415L27.8217 39.262L8 30.7363Z" fill="url(#paint33_radial_2548_8102)"/>
<path id="Vector_35" style="mix-blend-mode:overlay" d="M13.5469 42.7197L28.9961 46.3198L29.3298 48.1126L14.1763 45.6379L13.5469 42.7197Z" fill="url(#paint34_radial_2548_8102)"/>
<path id="Vector_36" style="mix-blend-mode:overlay" d="M19.4766 51.7764L29.9906 52.4725L30.2767 53.7361H19.9105L19.4766 51.7764Z" fill="url(#paint35_radial_2548_8102)"/>
<path id="Vector_37" style="mix-blend-mode:multiply" d="M67.9766 43.8999C68.1267 44.3381 68.4091 44.7189 68.785 44.9896C69.1608 45.2604 69.6114 45.4078 70.0746 45.4114L75.0622 44.4578C75.1671 43.7187 75.2577 42.9748 75.3197 42.2262V42.2024C74.6331 41.5062 70.8757 41.9449 70.8757 41.9449L69.1448 39.2842L68.7443 39.5941L67.9766 43.8999Z" fill="url(#paint36_linear_2548_8102)"/>
<path id="Vector_38" style="mix-blend-mode:multiply" d="M66.7969 50.5888C66.7969 50.5888 66.9161 51.49 68.1606 52.0193L73.3294 51.7761C73.6886 50.7112 74.0065 49.6335 74.2831 48.5432C73.6629 48.3668 73.0204 48.2817 72.3757 48.2905C71.8655 48.3191 67.9794 46.3164 67.9794 46.3164L67.6456 46.5977L66.7969 50.5888Z" fill="url(#paint37_linear_2548_8102)"/>
<path id="Vector_39" style="mix-blend-mode:multiply" d="M66.0469 55.3451C66.1474 55.5897 66.3009 55.8089 66.4963 55.987C66.6917 56.1651 66.9242 56.2976 67.177 56.375C68.5019 56.522 69.8159 56.7545 71.1108 57.0712C71.4732 56.3401 71.8149 55.5994 72.136 54.8492C71.888 54.4823 71.5487 54.1865 71.1515 53.9908C70.7543 53.7951 70.313 53.7064 69.871 53.7334C69.2368 53.8097 66.9624 52.4746 66.9624 52.4746L66.6763 52.7559L66.0469 55.3451Z" fill="url(#paint38_linear_2548_8102)"/>
<path id="Vector_40" d="M68.3906 43.9015L69.1345 39.262L88.9562 30.7363L87.1442 39.262L68.3906 43.9015Z" fill="url(#paint39_linear_2548_8102)"/>
<path id="Vector_41" d="M67.9617 46.3198L83.4109 42.7197L82.0996 48.785L67.1797 50.4872L67.9617 46.3198Z" fill="url(#paint40_linear_2548_8102)"/>
<path id="Vector_42" d="M66.9728 52.4725L77.4868 51.7764L76.6237 55.6959L66.3672 55.1761L66.9728 52.4725Z" fill="url(#paint41_linear_2548_8102)"/>
<path id="Vector_43" d="M68.3906 43.8999C68.5754 44.1845 68.8488 44.4004 69.1685 44.5142C69.4883 44.6279 69.8366 44.6332 70.1596 44.5293L87.149 39.2842L68.3906 43.8999Z" fill="url(#paint42_linear_2548_8102)"/>
<path id="Vector_44" d="M67.1797 50.4874C67.3805 50.7971 67.6697 51.0394 68.0097 51.1831C68.3497 51.3267 68.7249 51.3651 69.087 51.2933L82.1091 48.7852L67.1797 50.4874Z" fill="url(#paint43_linear_2548_8102)"/>
<path id="Vector_45" d="M66.3672 55.1748C66.5561 55.3964 66.7918 55.5733 67.0573 55.6929C67.3227 55.8124 67.6114 55.8716 67.9026 55.8662L76.6237 55.6945L66.3672 55.1748Z" fill="url(#paint44_linear_2548_8102)"/>
<path id="Vector_46" style="mix-blend-mode:overlay" d="M88.9675 30.7363L88.1235 34.7083L68.75 41.7415L69.1458 39.262L88.9675 30.7363Z" fill="url(#paint45_radial_2548_8102)"/>
<path id="Vector_47" style="mix-blend-mode:overlay" d="M83.4158 42.7197L67.9666 46.3198L67.6328 48.1126L82.7864 45.6379L83.4158 42.7197Z" fill="url(#paint46_radial_2548_8102)"/>
<path id="Vector_48" style="mix-blend-mode:overlay" d="M77.4876 51.7764L66.9736 52.4725L66.6875 53.7361H77.0537L77.4876 51.7764Z" fill="url(#paint47_radial_2548_8102)"/>
</g>
</g>
<g id="Group_3" filter="url(#filter1_d_2548_8102)">
<g id="Group_4">
<g id="Group_5">
<g id="Group_6">
<path id="Vector_49" d="M33.3933 46.4117L43.5505 53.9934C43.5666 53.9934 43.5666 54.0095 43.5827 54.0095L47.3494 56.8104C47.6713 57.0518 48.1221 56.8265 48.1221 56.4241L48.1382 35.5462C48.106 35.176 48.0577 34.7897 47.9772 34.4194C47.8967 34.0653 47.784 33.7272 47.623 33.4375C47.8967 35.4818 46.7377 37.8642 44.7739 39.4256C44.3393 39.7797 43.7437 40.1661 43.0837 40.4397C42.3754 40.7455 40.2345 41.486 40.2345 41.486L33.7796 43.8201C32.6689 44.2225 32.4436 45.7034 33.3933 46.4117Z" fill="white"/>
</g>
</g>
<path id="Vector_50" d="M43.4777 40.2682C43.4938 40.2521 43.526 40.2521 43.5421 40.236C43.5743 40.2199 43.6065 40.2038 43.6548 40.1716C43.703 40.1556 43.7352 40.1234 43.7835 40.1073C43.7996 40.0912 43.8318 40.0751 43.8479 40.0751C43.8962 40.0429 43.9606 40.0107 44.0089 39.9785C44.025 39.9624 44.0411 39.9624 44.0572 39.9463C44.1055 39.9141 44.1538 39.8819 44.2182 39.8497C44.2503 39.8336 44.2664 39.8175 44.2986 39.8014C44.3308 39.7692 44.3791 39.7531 44.4113 39.7209C44.4596 39.6887 44.5079 39.6404 44.5723 39.6083C44.5884 39.6083 44.5884 39.5922 44.6045 39.5922C44.6689 39.5439 44.7333 39.4956 44.7976 39.4473C46.7615 37.8859 47.9205 35.5035 47.6468 33.4592C47.5341 33.266 47.3893 33.089 47.2283 32.9602L43.8801 30.4812C43.5582 30.2398 43.0914 30.4651 43.0914 30.8676V36.7108C43.0914 40.3809 40.2422 41.4916 40.2422 41.4916C40.2422 41.4916 42.3992 40.7672 43.0914 40.4614C43.2201 40.397 43.3489 40.3326 43.4777 40.2682Z" fill="#EBEBEB"/>
</g>
<g id="Group_7">
<g id="Group_8">
<g id="Group_9">
<path id="Vector_51" d="M64.4241 45.6573L54.2669 38.0756C54.2508 38.0756 54.2508 38.0595 54.2347 38.0595L50.468 35.2586C50.146 35.0171 49.6953 35.2425 49.6953 35.6449V56.5228C49.7275 56.893 49.7758 57.2793 49.8563 57.6495C49.9368 58.0037 50.0494 58.3417 50.2104 58.6315C49.9368 56.5871 51.0958 54.2048 53.0596 52.6434C53.4942 52.2892 54.0898 51.9029 54.7498 51.6293C55.4419 51.3234 57.599 50.599 57.599 50.599L64.0539 48.265C65.1646 47.8465 65.3738 46.3655 64.4241 45.6573Z" fill="white"/>
</g>
</g>
<path id="Vector_52" d="M54.373 51.8064C54.3569 51.8225 54.3247 51.8225 54.3086 51.8386C54.2764 51.8547 54.2442 51.8708 54.1959 51.903C54.1476 51.9191 54.1154 51.9513 54.0671 51.9674C54.051 51.9835 54.0188 51.9995 54.0027 51.9995C53.9544 52.0317 53.89 52.0639 53.8418 52.0961C53.8257 52.1122 53.8096 52.1122 53.7935 52.1283C53.7452 52.1605 53.6969 52.1927 53.6325 52.2249C53.6003 52.241 53.5842 52.2571 53.552 52.2732C53.5198 52.3054 53.4715 52.3215 53.4393 52.3537C53.391 52.3859 53.3427 52.4342 53.2784 52.4664C53.2623 52.4664 53.2623 52.4825 53.2462 52.4825C53.1818 52.5307 53.1174 52.579 53.053 52.6273C51.0892 54.1887 49.9302 56.5711 50.2038 58.6154C50.3165 58.8086 50.4614 58.9857 50.6224 59.1144L53.9544 61.5934C54.2764 61.8348 54.7432 61.6095 54.7432 61.207V55.3638C54.7432 51.7098 57.5924 50.583 57.5924 50.583C57.5924 50.583 55.4354 51.3074 54.7432 51.6132C54.6305 51.6776 54.5017 51.742 54.373 51.8064Z" fill="#EBEBEB"/>
</g>
</g>
</g>
<defs>
<filter id="filter0_d_2548_8102" x="0" y="0" width="96.9688" height="89.0312" filterUnits="userSpaceOnUse" color-interpolation-filters="sRGB">
<feFlood flood-opacity="0" result="BackgroundImageFix"/>
<feColorMatrix in="SourceAlpha" type="matrix" values="0 0 0 0 0 0 0 0 0 0 0 0 0 0 0 0 0 0 127 0" result="hardAlpha"/>
<feOffset dy="4"/>
<feGaussianBlur stdDeviation="4"/>
<feComposite in2="hardAlpha" operator="out"/>
<feColorMatrix type="matrix" values="0 0 0 0 0 0 0 0 0 0 0 0 0 0 0 0 0 0 0.25 0"/>
<feBlend mode="normal" in2="BackgroundImageFix" result="effect1_dropShadow_2548_8102"/>
<feBlend mode="normal" in="SourceGraphic" in2="effect1_dropShadow_2548_8102" result="shape"/>
</filter>
<filter id="filter1_d_2548_8102" x="28.7969" y="30.3818" width="40.2266" height="39.3105" filterUnits="userSpaceOnUse" color-interpolation-filters="sRGB">
<feFlood flood-opacity="0" result="BackgroundImageFix"/>
<feColorMatrix in="SourceAlpha" type="matrix" values="0 0 0 0 0 0 0 0 0 0 0 0 0 0 0 0 0 0 127 0" result="hardAlpha"/>
<feOffset dy="4"/>
<feGaussianBlur stdDeviation="2"/>
<feComposite in2="hardAlpha" operator="out"/>
<feColorMatrix type="matrix" values="0 0 0 0 0.556863 0 0 0 0 0.337255 0 0 0 0 0.976471 0 0 0 0.25 0"/>
<feBlend mode="normal" in2="BackgroundImageFix" result="effect1_dropShadow_2548_8102"/>
<feBlend mode="normal" in="SourceGraphic" in2="effect1_dropShadow_2548_8102" result="shape"/>
</filter>
<linearGradient id="paint0_linear_2548_8102" x1="34.1297" y1="13.192" x2="37.1671" y2="18.151" gradientUnits="userSpaceOnUse">
<stop offset="0.17" stop-color="#FFF1A3"/>
<stop offset="0.19" stop-color="#FCE594"/>
<stop offset="0.22" stop-color="#F6D17B"/>
<stop offset="0.26" stop-color="#F2C168"/>
<stop offset="0.3" stop-color="#EFB65A"/>
<stop offset="0.36" stop-color="#EEB052"/>
<stop offset="0.46" stop-color="#EDAE50"/>
<stop offset="0.54" stop-color="#EEB153"/>
<stop offset="0.61" stop-color="#F0B95D"/>
<stop offset="0.68" stop-color="#F5C76E"/>
<stop offset="0.73" stop-color="#FBDA85"/>
<stop offset="0.76" stop-color="#FFE794"/>
<stop offset="1" stop-color="#B77946"/>
</linearGradient>
<radialGradient id="paint1_radial_2548_8102" cx="0" cy="0" r="1" gradientUnits="userSpaceOnUse" gradientTransform="translate(34.5207 12.5482) scale(5.96987 5.96987)">
<stop stop-color="#F3E8DE"/>
<stop offset="0.54" stop-color="#F6EEE7" stop-opacity="0.36"/>
<stop offset="0.57" stop-color="#F6EEE7" stop-opacity="0.33"/>
<stop offset="0.75" stop-color="#F7F0E9" stop-opacity="0.15"/>
<stop offset="0.88" stop-color="#F8F1EB" stop-opacity="0.04"/>
<stop offset="0.96" stop-color="#F8F1EB" stop-opacity="0"/>
</radialGradient>
<linearGradient id="paint2_linear_2548_8102" x1="40.287" y1="19.4043" x2="36.3675" y2="13.4583" gradientUnits="userSpaceOnUse">
<stop stop-color="#B77946" stop-opacity="0"/>
<stop offset="0.18" stop-color="#FFF1A3"/>
<stop offset="0.34" stop-color="#E7C883"/>
<stop offset="0.51" stop-color="#D2A669"/>
<stop offset="0.67" stop-color="#C38D56"/>
<stop offset="0.81" stop-color="#BA7E4A"/>
<stop offset="0.93" stop-color="#B77946"/>
</linearGradient>
<linearGradient id="paint3_linear_2548_8102" x1="34.0408" y1="20.0889" x2="36.1818" y2="11.3439" gradientUnits="userSpaceOnUse">
<stop stop-color="#B77946" stop-opacity="0"/>
<stop offset="0.18" stop-color="#FFF1A3"/>
<stop offset="0.34" stop-color="#E7C883"/>
<stop offset="0.51" stop-color="#D2A669"/>
<stop offset="0.67" stop-color="#C38D56"/>
<stop offset="0.81" stop-color="#BA7E4A"/>
<stop offset="0.93" stop-color="#B77946"/>
</linearGradient>
<linearGradient id="paint4_linear_2548_8102" x1="59.8797" y1="13.192" x2="62.9171" y2="18.151" gradientUnits="userSpaceOnUse">
<stop offset="0.17" stop-color="#FFF1A3"/>
<stop offset="0.19" stop-color="#FCE594"/>
<stop offset="0.22" stop-color="#F6D17B"/>
<stop offset="0.26" stop-color="#F2C168"/>
<stop offset="0.3" stop-color="#EFB65A"/>
<stop offset="0.36" stop-color="#EEB052"/>
<stop offset="0.46" stop-color="#EDAE50"/>
<stop offset="0.54" stop-color="#EEB153"/>
<stop offset="0.61" stop-color="#F0B95D"/>
<stop offset="0.68" stop-color="#F5C76E"/>
<stop offset="0.73" stop-color="#FBDA85"/>
<stop offset="0.76" stop-color="#FFE794"/>
<stop offset="1" stop-color="#B77946"/>
</linearGradient>
<radialGradient id="paint5_radial_2548_8102" cx="0" cy="0" r="1" gradientUnits="userSpaceOnUse" gradientTransform="translate(60.2659 12.5482) scale(5.96987)">
<stop stop-color="#F3E8DE"/>
<stop offset="0.54" stop-color="#F6EEE7" stop-opacity="0.36"/>
<stop offset="0.57" stop-color="#F6EEE7" stop-opacity="0.33"/>
<stop offset="0.75" stop-color="#F7F0E9" stop-opacity="0.15"/>
<stop offset="0.88" stop-color="#F8F1EB" stop-opacity="0.04"/>
<stop offset="0.96" stop-color="#F8F1EB" stop-opacity="0"/>
</radialGradient>
<linearGradient id="paint6_linear_2548_8102" x1="66.0292" y1="19.4043" x2="62.1145" y2="13.4583" gradientUnits="userSpaceOnUse">
<stop stop-color="#B77946" stop-opacity="0"/>
<stop offset="0.18" stop-color="#FFF1A3"/>
<stop offset="0.34" stop-color="#E7C883"/>
<stop offset="0.51" stop-color="#D2A669"/>
<stop offset="0.67" stop-color="#C38D56"/>
<stop offset="0.81" stop-color="#BA7E4A"/>
<stop offset="0.93" stop-color="#B77946"/>
</linearGradient>
<linearGradient id="paint7_linear_2548_8102" x1="59.783" y1="20.0889" x2="61.924" y2="11.3439" gradientUnits="userSpaceOnUse">
<stop stop-color="#B77946" stop-opacity="0"/>
<stop offset="0.18" stop-color="#FFF1A3"/>
<stop offset="0.34" stop-color="#E7C883"/>
<stop offset="0.51" stop-color="#D2A669"/>
<stop offset="0.67" stop-color="#C38D56"/>
<stop offset="0.81" stop-color="#BA7E4A"/>
<stop offset="0.93" stop-color="#B77946"/>
</linearGradient>
<linearGradient id="paint8_linear_2548_8102" x1="47.0125" y1="5.19684" x2="50.0499" y2="10.1558" gradientUnits="userSpaceOnUse">
<stop offset="0.17" stop-color="#FFF1A3"/>
<stop offset="0.19" stop-color="#FCE594"/>
<stop offset="0.22" stop-color="#F6D17B"/>
<stop offset="0.26" stop-color="#F2C168"/>
<stop offset="0.3" stop-color="#EFB65A"/>
<stop offset="0.36" stop-color="#EEB052"/>
<stop offset="0.46" stop-color="#EDAE50"/>
<stop offset="0.54" stop-color="#EEB153"/>
<stop offset="0.61" stop-color="#F0B95D"/>
<stop offset="0.68" stop-color="#F5C76E"/>
<stop offset="0.73" stop-color="#FBDA85"/>
<stop offset="0.76" stop-color="#FFE794"/>
<stop offset="1" stop-color="#B77946"/>
</linearGradient>
<radialGradient id="paint9_radial_2548_8102" cx="0" cy="0" r="1" gradientUnits="userSpaceOnUse" gradientTransform="translate(47.4035 4.55312) scale(5.96987 5.96987)">
<stop stop-color="#F3E8DE"/>
<stop offset="0.54" stop-color="#F6EEE7" stop-opacity="0.36"/>
<stop offset="0.57" stop-color="#F6EEE7" stop-opacity="0.33"/>
<stop offset="0.75" stop-color="#F7F0E9" stop-opacity="0.15"/>
<stop offset="0.88" stop-color="#F8F1EB" stop-opacity="0.04"/>
<stop offset="0.96" stop-color="#F8F1EB" stop-opacity="0"/>
</radialGradient>
<linearGradient id="paint10_linear_2548_8102" x1="53.1573" y1="11.4102" x2="49.2425" y2="5.46413" gradientUnits="userSpaceOnUse">
<stop stop-color="#B77946" stop-opacity="0"/>
<stop offset="0.18" stop-color="#FFF1A3"/>
<stop offset="0.34" stop-color="#E7C883"/>
<stop offset="0.51" stop-color="#D2A669"/>
<stop offset="0.67" stop-color="#C38D56"/>
<stop offset="0.81" stop-color="#BA7E4A"/>
<stop offset="0.93" stop-color="#B77946"/>
</linearGradient>
<linearGradient id="paint11_linear_2548_8102" x1="46.9158" y1="12.0899" x2="49.0568" y2="3.34489" gradientUnits="userSpaceOnUse">
<stop stop-color="#B77946" stop-opacity="0"/>
<stop offset="0.18" stop-color="#FFF1A3"/>
<stop offset="0.34" stop-color="#E7C883"/>
<stop offset="0.51" stop-color="#D2A669"/>
<stop offset="0.67" stop-color="#C38D56"/>
<stop offset="0.81" stop-color="#BA7E4A"/>
<stop offset="0.93" stop-color="#B77946"/>
</linearGradient>
<linearGradient id="paint12_linear_2548_8102" x1="50.9766" y1="18.727" x2="51.0481" y2="18.727" gradientUnits="userSpaceOnUse">
<stop stop-color="#B77946"/>
<stop offset="0.24" stop-color="#FFE794"/>
<stop offset="0.27" stop-color="#FBDA85"/>
<stop offset="0.32" stop-color="#F5C76E"/>
<stop offset="0.39" stop-color="#F0B95D"/>
<stop offset="0.46" stop-color="#EEB153"/>
<stop offset="0.54" stop-color="#EDAE50"/>
<stop offset="0.64" stop-color="#EEB052"/>
<stop offset="0.7" stop-color="#EFB65A"/>
<stop offset="0.74" stop-color="#F2C168"/>
<stop offset="0.78" stop-color="#F6D17B"/>
<stop offset="0.81" stop-color="#FCE594"/>
<stop offset="0.83" stop-color="#FFF1A3"/>
<stop offset="0.86" stop-color="#F7E398"/>
<stop offset="0.91" stop-color="#E1BF7C"/>
<stop offset="0.98" stop-color="#BE844F"/>
<stop offset="1" stop-color="#B77946"/>
</linearGradient>
<linearGradient id="paint13_linear_2548_8102" x1="21.4766" y1="45.8705" x2="75.4867" y2="45.8705" gradientUnits="userSpaceOnUse">
<stop stop-color="#B77946"/>
<stop offset="0.18" stop-color="#FFF1A3"/>
<stop offset="0.19" stop-color="#F2DC93"/>
<stop offset="0.2" stop-color="#E0BE7B"/>
<stop offset="0.22" stop-color="#D1A468"/>
<stop offset="0.23" stop-color="#C59159"/>
<stop offset="0.25" stop-color="#BD834E"/>
<stop offset="0.27" stop-color="#B87B48"/>
<stop offset="0.31" stop-color="#B77946"/>
<stop offset="0.33" stop-color="#BF8148"/>
<stop offset="0.41" stop-color="#E0A24E"/>
<stop offset="0.46" stop-color="#EDAE50"/>
<stop offset="1" stop-color="#613F1B"/>
</linearGradient>
<linearGradient id="paint14_linear_2548_8102" x1="22.4284" y1="46.1817" x2="74.5312" y2="46.1817" gradientUnits="userSpaceOnUse">
<stop stop-color="#B77946"/>
<stop offset="0.24" stop-color="#FFE794"/>
<stop offset="0.27" stop-color="#FBDA85"/>
<stop offset="0.32" stop-color="#F5C76E"/>
<stop offset="0.39" stop-color="#F0B95D"/>
<stop offset="0.46" stop-color="#EEB153"/>
<stop offset="0.54" stop-color="#EDAE50"/>
<stop offset="0.64" stop-color="#EEB052"/>
<stop offset="0.7" stop-color="#EFB65A"/>
<stop offset="0.74" stop-color="#F2C168"/>
<stop offset="0.78" stop-color="#F6D17B"/>
<stop offset="0.81" stop-color="#FCE594"/>
<stop offset="0.83" stop-color="#FFF1A3"/>
<stop offset="0.86" stop-color="#F7E398"/>
<stop offset="0.91" stop-color="#E1BF7C"/>
<stop offset="0.98" stop-color="#BE844F"/>
<stop offset="1" stop-color="#B77946"/>
</linearGradient>
<linearGradient id="paint15_linear_2548_8102" x1="48.4726" y1="74.2526" x2="48.4726" y2="57.8164" gradientUnits="userSpaceOnUse">
<stop stop-color="#B77946" stop-opacity="0"/>
<stop offset="0.93" stop-color="#B77946"/>
</linearGradient>
<linearGradient id="paint16_linear_2548_8102" x1="22.2376" y1="46.1197" x2="74.722" y2="46.1197" gradientUnits="userSpaceOnUse">
<stop stop-color="#B77946"/>
<stop offset="0.24" stop-color="#FFE794"/>
<stop offset="0.27" stop-color="#FBDA85"/>
<stop offset="0.32" stop-color="#F5C76E"/>
<stop offset="0.39" stop-color="#F0B95D"/>
<stop offset="0.46" stop-color="#EEB153"/>
<stop offset="0.54" stop-color="#EDAE50"/>
<stop offset="0.64" stop-color="#EEB052"/>
<stop offset="0.7" stop-color="#EFB65A"/>
<stop offset="0.74" stop-color="#F2C168"/>
<stop offset="0.78" stop-color="#F6D17B"/>
<stop offset="0.81" stop-color="#FCE594"/>
<stop offset="0.83" stop-color="#FFF1A3"/>
<stop offset="0.86" stop-color="#F7E398"/>
<stop offset="0.91" stop-color="#E1BF7C"/>
<stop offset="0.98" stop-color="#BE844F"/>
<stop offset="1" stop-color="#B77946"/>
</linearGradient>
<linearGradient id="paint17_linear_2548_8102" x1="25.2952" y1="46.7465" x2="71.6761" y2="46.7465" gradientUnits="userSpaceOnUse">
<stop stop-color="#B77946"/>
<stop offset="0.45" stop-color="#EDAE50"/>
<stop offset="0.51" stop-color="#EBAC4F"/>
<stop offset="0.54" stop-color="#E3A54D"/>
<stop offset="0.57" stop-color="#D59A49"/>
<stop offset="0.59" stop-color="#C28A44"/>
<stop offset="0.61" stop-color="#A9753D"/>
<stop offset="0.63" stop-color="#875934"/>
<stop offset="1" stop-color="#FFF1A3"/>
</linearGradient>
<radialGradient id="paint18_radial_2548_8102" cx="0" cy="0" r="1" gradientUnits="userSpaceOnUse" gradientTransform="translate(48.4814 46.8508) scale(23.7174 23.7174)">
<stop stop-color="#312F69"/>
<stop offset="0.39" stop-color="#312F69"/>
<stop offset="0.79" stop-color="#312F69"/>
<stop offset="1" stop-color="#312F69"/>
</radialGradient>
<radialGradient id="paint19_radial_2548_8102" cx="0" cy="0" r="1" gradientUnits="userSpaceOnUse" gradientTransform="translate(35.8879 25.6637) scale(38.8328)">
<stop stop-color="#FAF7F4"/>
<stop offset="0.09" stop-color="#FAF7F3" stop-opacity="0.94"/>
<stop offset="0.27" stop-color="#F9F6F2" stop-opacity="0.8"/>
<stop offset="0.51" stop-color="#F8F4EF" stop-opacity="0.56"/>
<stop offset="0.8" stop-color="#F6F2EB" stop-opacity="0.24"/>
<stop offset="1" stop-color="#F5F0E8" stop-opacity="0"/>
</radialGradient>
<radialGradient id="paint20_radial_2548_8102" cx="0" cy="0" r="1" gradientUnits="userSpaceOnUse" gradientTransform="translate(73.5978 42.9799) scale(24.2514 24.2514)">
<stop stop-color="#EDAE50"/>
<stop offset="0.1" stop-color="#E1A54C" stop-opacity="0.94"/>
<stop offset="0.28" stop-color="#C28E42" stop-opacity="0.79"/>
<stop offset="0.53" stop-color="#906931" stop-opacity="0.54"/>
<stop offset="0.83" stop-color="#4B361A" stop-opacity="0.2"/>
<stop offset="1" stop-color="#23180D" stop-opacity="0"/>
</radialGradient>
<linearGradient id="paint21_linear_2548_8102" x1="26.123" y1="46.8365" x2="70.835" y2="46.8365" gradientUnits="userSpaceOnUse">
<stop stop-color="#B77946"/>
<stop offset="0.1" stop-color="#EDAE50"/>
<stop offset="0.2" stop-color="#E2A54D"/>
<stop offset="0.35" stop-color="#C68E45"/>
<stop offset="0.56" stop-color="#996839"/>
<stop offset="0.63" stop-color="#875934"/>
<stop offset="0.64" stop-color="#8A5D37"/>
<stop offset="0.67" stop-color="#A98454"/>
<stop offset="0.71" stop-color="#C4A66C"/>
<stop offset="0.76" stop-color="#D9C180"/>
<stop offset="0.8" stop-color="#EAD790"/>
<stop offset="0.85" stop-color="#F6E69B"/>
<stop offset="0.91" stop-color="#FDEEA1"/>
<stop offset="1" stop-color="#FFF1A3"/>
</linearGradient>
<linearGradient id="paint22_linear_2548_8102" x1="48.7518" y1="49.5512" x2="71.8541" y2="49.5512" gradientUnits="userSpaceOnUse">
<stop stop-color="#B77946"/>
<stop offset="0.24" stop-color="#FFE794"/>
<stop offset="0.27" stop-color="#FBDA85"/>
<stop offset="0.32" stop-color="#F5C76E"/>
<stop offset="0.39" stop-color="#F0B95D"/>
<stop offset="0.46" stop-color="#EEB153"/>
<stop offset="0.54" stop-color="#EDAE50"/>
<stop offset="0.64" stop-color="#EEB052"/>
<stop offset="0.7" stop-color="#EFB65A"/>
<stop offset="0.74" stop-color="#F2C168"/>
<stop offset="0.78" stop-color="#F6D17B"/>
<stop offset="0.81" stop-color="#FCE594"/>
<stop offset="0.83" stop-color="#FFF1A3"/>
<stop offset="0.86" stop-color="#F7E398"/>
<stop offset="0.91" stop-color="#E1BF7C"/>
<stop offset="0.98" stop-color="#BE844F"/>
<stop offset="1" stop-color="#B77946"/>
</linearGradient>
<linearGradient id="paint23_linear_2548_8102" x1="50.8984" y1="18.727" x2="50.9747" y2="18.727" gradientUnits="userSpaceOnUse">
<stop stop-color="#B77946"/>
<stop offset="0.24" stop-color="#FFE794"/>
<stop offset="0.27" stop-color="#FBDA85"/>
<stop offset="0.32" stop-color="#F5C76E"/>
<stop offset="0.39" stop-color="#F0B95D"/>
<stop offset="0.46" stop-color="#EEB153"/>
<stop offset="0.54" stop-color="#EDAE50"/>
<stop offset="0.64" stop-color="#EEB052"/>
<stop offset="0.7" stop-color="#EFB65A"/>
<stop offset="0.74" stop-color="#F2C168"/>
<stop offset="0.78" stop-color="#F6D17B"/>
<stop offset="0.81" stop-color="#FCE594"/>
<stop offset="0.83" stop-color="#FFF1A3"/>
<stop offset="0.86" stop-color="#F7E398"/>
<stop offset="0.91" stop-color="#E1BF7C"/>
<stop offset="0.98" stop-color="#BE844F"/>
<stop offset="1" stop-color="#B77946"/>
</linearGradient>
<linearGradient id="paint24_linear_2548_8102" x1="21.6376" y1="42.3359" x2="28.9855" y2="42.3359" gradientUnits="userSpaceOnUse">
<stop stop-color="#B77946" stop-opacity="0"/>
<stop offset="0.13" stop-color="#B77946" stop-opacity="0.26"/>
<stop offset="0.25" stop-color="#B77946" stop-opacity="0.49"/>
<stop offset="0.38" stop-color="#B77946" stop-opacity="0.67"/>
<stop offset="0.51" stop-color="#B77946" stop-opacity="0.82"/>
<stop offset="0.64" stop-color="#B77946" stop-opacity="0.92"/>
<stop offset="0.78" stop-color="#B77946" stop-opacity="0.98"/>
<stop offset="0.93" stop-color="#B77946"/>
</linearGradient>
<linearGradient id="paint25_linear_2548_8102" x1="22.697" y1="49.1726" x2="30.1689" y2="49.1726" gradientUnits="userSpaceOnUse">
<stop stop-color="#B77946" stop-opacity="0"/>
<stop offset="0.13" stop-color="#B77946" stop-opacity="0.26"/>
<stop offset="0.25" stop-color="#B77946" stop-opacity="0.49"/>
<stop offset="0.38" stop-color="#B77946" stop-opacity="0.67"/>
<stop offset="0.51" stop-color="#B77946" stop-opacity="0.82"/>
<stop offset="0.64" stop-color="#B77946" stop-opacity="0.92"/>
<stop offset="0.78" stop-color="#B77946" stop-opacity="0.98"/>
<stop offset="0.93" stop-color="#B77946"/>
</linearGradient>
<linearGradient id="paint26_linear_2548_8102" x1="24.8112" y1="54.7729" x2="30.905" y2="54.7729" gradientUnits="userSpaceOnUse">
<stop stop-color="#B77946" stop-opacity="0"/>
<stop offset="0.13" stop-color="#B77946" stop-opacity="0.26"/>
<stop offset="0.25" stop-color="#B77946" stop-opacity="0.49"/>
<stop offset="0.38" stop-color="#B77946" stop-opacity="0.67"/>
<stop offset="0.51" stop-color="#B77946" stop-opacity="0.82"/>
<stop offset="0.64" stop-color="#B77946" stop-opacity="0.92"/>
<stop offset="0.78" stop-color="#B77946" stop-opacity="0.98"/>
<stop offset="0.93" stop-color="#B77946"/>
</linearGradient>
<linearGradient id="paint27_linear_2548_8102" x1="13.6742" y1="33.0299" x2="33.4149" y2="56.957" gradientUnits="userSpaceOnUse">
<stop offset="0.24" stop-color="#FFE794"/>
<stop offset="0.27" stop-color="#FBDA85"/>
<stop offset="0.32" stop-color="#F5C76E"/>
<stop offset="0.39" stop-color="#F0B95D"/>
<stop offset="0.46" stop-color="#EEB153"/>
<stop offset="0.54" stop-color="#EDAE50"/>
<stop offset="0.64" stop-color="#EEB052"/>
<stop offset="0.7" stop-color="#EFB65A"/>
<stop offset="0.74" stop-color="#F2C168"/>
<stop offset="0.78" stop-color="#F6D17B"/>
<stop offset="0.81" stop-color="#FCE594"/>
<stop offset="0.83" stop-color="#FFF1A3"/>
<stop offset="0.86" stop-color="#F7E398"/>
<stop offset="0.91" stop-color="#E1BF7C"/>
<stop offset="0.98" stop-color="#BE844F"/>
<stop offset="1" stop-color="#B77946"/>
</linearGradient>
<linearGradient id="paint28_linear_2548_8102" x1="12.7887" y1="37.4222" x2="32.1574" y2="58.8937" gradientUnits="userSpaceOnUse">
<stop offset="0.24" stop-color="#FFE794"/>
<stop offset="0.27" stop-color="#FBDA85"/>
<stop offset="0.32" stop-color="#F5C76E"/>
<stop offset="0.39" stop-color="#F0B95D"/>
<stop offset="0.46" stop-color="#EEB153"/>
<stop offset="0.54" stop-color="#EDAE50"/>
<stop offset="0.64" stop-color="#EEB052"/>
<stop offset="0.7" stop-color="#EFB65A"/>
<stop offset="0.74" stop-color="#F2C168"/>
<stop offset="0.78" stop-color="#F6D17B"/>
<stop offset="0.81" stop-color="#FCE594"/>
<stop offset="0.83" stop-color="#FFF1A3"/>
<stop offset="0.86" stop-color="#F7E398"/>
<stop offset="0.91" stop-color="#E1BF7C"/>
<stop offset="0.98" stop-color="#BE844F"/>
<stop offset="1" stop-color="#B77946"/>
</linearGradient>
<linearGradient id="paint29_linear_2548_8102" x1="19.9868" y1="47.2084" x2="31.9313" y2="63.0581" gradientUnits="userSpaceOnUse">
<stop offset="0.24" stop-color="#FFE794"/>
<stop offset="0.27" stop-color="#FBDA85"/>
<stop offset="0.32" stop-color="#F5C76E"/>
<stop offset="0.39" stop-color="#F0B95D"/>
<stop offset="0.46" stop-color="#EEB153"/>
<stop offset="0.54" stop-color="#EDAE50"/>
<stop offset="0.64" stop-color="#EEB052"/>
<stop offset="0.7" stop-color="#EFB65A"/>
<stop offset="0.74" stop-color="#F2C168"/>
<stop offset="0.78" stop-color="#F6D17B"/>
<stop offset="0.81" stop-color="#FCE594"/>
<stop offset="0.83" stop-color="#FFF1A3"/>
<stop offset="0.86" stop-color="#F7E398"/>
<stop offset="0.91" stop-color="#E1BF7C"/>
<stop offset="0.98" stop-color="#BE844F"/>
<stop offset="1" stop-color="#B77946"/>
</linearGradient>
<linearGradient id="paint30_linear_2548_8102" x1="9.8125" y1="41.9401" x2="28.5661" y2="41.9401" gradientUnits="userSpaceOnUse">
<stop stop-color="#B77946"/>
<stop offset="0.18" stop-color="#FFF1A3"/>
<stop offset="0.19" stop-color="#F2DC93"/>
<stop offset="0.2" stop-color="#E0BE7B"/>
<stop offset="0.22" stop-color="#D1A468"/>
<stop offset="0.23" stop-color="#C59159"/>
<stop offset="0.25" stop-color="#BD834E"/>
<stop offset="0.27" stop-color="#B87B48"/>
<stop offset="0.31" stop-color="#B77946"/>
<stop offset="0.33" stop-color="#BF8148"/>
<stop offset="0.41" stop-color="#E0A24E"/>
<stop offset="0.46" stop-color="#EDAE50"/>
<stop offset="1" stop-color="#613F1B"/>
</linearGradient>
<linearGradient id="paint31_linear_2548_8102" x1="14.8516" y1="50.0535" x2="29.7715" y2="50.0535" gradientUnits="userSpaceOnUse">
<stop stop-color="#B77946"/>
<stop offset="0.18" stop-color="#FFF1A3"/>
<stop offset="0.19" stop-color="#F2DC93"/>
<stop offset="0.2" stop-color="#E0BE7B"/>
<stop offset="0.22" stop-color="#D1A468"/>
<stop offset="0.23" stop-color="#C59159"/>
<stop offset="0.25" stop-color="#BD834E"/>
<stop offset="0.27" stop-color="#B87B48"/>
<stop offset="0.31" stop-color="#B77946"/>
<stop offset="0.33" stop-color="#BF8148"/>
<stop offset="0.41" stop-color="#E0A24E"/>
<stop offset="0.46" stop-color="#EDAE50"/>
<stop offset="1" stop-color="#613F1B"/>
</linearGradient>
<linearGradient id="paint32_linear_2548_8102" x1="20.3359" y1="55.5181" x2="30.5925" y2="55.5181" gradientUnits="userSpaceOnUse">
<stop stop-color="#B77946"/>
<stop offset="0.18" stop-color="#FFF1A3"/>
<stop offset="0.19" stop-color="#F2DC93"/>
<stop offset="0.2" stop-color="#E0BE7B"/>
<stop offset="0.22" stop-color="#D1A468"/>
<stop offset="0.23" stop-color="#C59159"/>
<stop offset="0.25" stop-color="#BD834E"/>
<stop offset="0.27" stop-color="#B87B48"/>
<stop offset="0.31" stop-color="#B77946"/>
<stop offset="0.33" stop-color="#BF8148"/>
<stop offset="0.41" stop-color="#E0A24E"/>
<stop offset="0.46" stop-color="#EDAE50"/>
<stop offset="1" stop-color="#613F1B"/>
</linearGradient>
<radialGradient id="paint33_radial_2548_8102" cx="0" cy="0" r="1" gradientUnits="userSpaceOnUse" gradientTransform="translate(18.1087 36.1368) scale(7.71983 10.2674)">
<stop stop-color="#F3E8DE"/>
<stop offset="0.54" stop-color="#F6EEE7" stop-opacity="0.36"/>
<stop offset="0.57" stop-color="#F6EEE7" stop-opacity="0.33"/>
<stop offset="0.75" stop-color="#F7F0E9" stop-opacity="0.15"/>
<stop offset="0.88" stop-color="#F8F1EB" stop-opacity="0.04"/>
<stop offset="0.96" stop-color="#F8F1EB" stop-opacity="0"/>
</radialGradient>
<radialGradient id="paint34_radial_2548_8102" cx="0" cy="0" r="1" gradientUnits="userSpaceOnUse" gradientTransform="translate(21.4384 45.2951) scale(5.76007 7.66089)">
<stop stop-color="#F3E8DE"/>
<stop offset="0.54" stop-color="#F6EEE7" stop-opacity="0.36"/>
<stop offset="0.57" stop-color="#F6EEE7" stop-opacity="0.33"/>
<stop offset="0.75" stop-color="#F7F0E9" stop-opacity="0.15"/>
<stop offset="0.88" stop-color="#F8F1EB" stop-opacity="0.04"/>
<stop offset="0.96" stop-color="#F8F1EB" stop-opacity="0"/>
</radialGradient>
<radialGradient id="paint35_radial_2548_8102" cx="0" cy="0" r="1" gradientUnits="userSpaceOnUse" gradientTransform="translate(24.8742 52.6168) scale(3.85276 5.12417)">
<stop stop-color="#F3E8DE"/>
<stop offset="0.54" stop-color="#F6EEE7" stop-opacity="0.36"/>
<stop offset="0.57" stop-color="#F6EEE7" stop-opacity="0.33"/>
<stop offset="0.75" stop-color="#F7F0E9" stop-opacity="0.15"/>
<stop offset="0.88" stop-color="#F8F1EB" stop-opacity="0.04"/>
<stop offset="0.96" stop-color="#F8F1EB" stop-opacity="0"/>
</radialGradient>
<linearGradient id="paint36_linear_2548_8102" x1="75.3245" y1="42.3359" x2="67.9766" y2="42.3359" gradientUnits="userSpaceOnUse">
<stop stop-color="#B77946" stop-opacity="0"/>
<stop offset="0.13" stop-color="#B77946" stop-opacity="0.26"/>
<stop offset="0.25" stop-color="#B77946" stop-opacity="0.49"/>
<stop offset="0.38" stop-color="#B77946" stop-opacity="0.67"/>
<stop offset="0.51" stop-color="#B77946" stop-opacity="0.82"/>
<stop offset="0.64" stop-color="#B77946" stop-opacity="0.92"/>
<stop offset="0.78" stop-color="#B77946" stop-opacity="0.98"/>
<stop offset="0.93" stop-color="#B77946"/>
</linearGradient>
<linearGradient id="paint37_linear_2548_8102" x1="74.2688" y1="49.1726" x2="66.7969" y2="49.1726" gradientUnits="userSpaceOnUse">
<stop stop-color="#B77946" stop-opacity="0"/>
<stop offset="0.13" stop-color="#B77946" stop-opacity="0.26"/>
<stop offset="0.25" stop-color="#B77946" stop-opacity="0.49"/>
<stop offset="0.38" stop-color="#B77946" stop-opacity="0.67"/>
<stop offset="0.51" stop-color="#B77946" stop-opacity="0.82"/>
<stop offset="0.64" stop-color="#B77946" stop-opacity="0.92"/>
<stop offset="0.78" stop-color="#B77946" stop-opacity="0.98"/>
<stop offset="0.93" stop-color="#B77946"/>
</linearGradient>
<linearGradient id="paint38_linear_2548_8102" x1="72.1407" y1="54.7729" x2="66.0469" y2="54.7729" gradientUnits="userSpaceOnUse">
<stop stop-color="#B77946" stop-opacity="0"/>
<stop offset="0.13" stop-color="#B77946" stop-opacity="0.26"/>
<stop offset="0.25" stop-color="#B77946" stop-opacity="0.49"/>
<stop offset="0.38" stop-color="#B77946" stop-opacity="0.67"/>
<stop offset="0.51" stop-color="#B77946" stop-opacity="0.82"/>
<stop offset="0.64" stop-color="#B77946" stop-opacity="0.92"/>
<stop offset="0.78" stop-color="#B77946" stop-opacity="0.98"/>
<stop offset="0.93" stop-color="#B77946"/>
</linearGradient>
<linearGradient id="paint39_linear_2548_8102" x1="83.2819" y1="33.0299" x2="63.5413" y2="56.957" gradientUnits="userSpaceOnUse">
<stop offset="0.24" stop-color="#FFE794"/>
<stop offset="0.27" stop-color="#FBDA85"/>
<stop offset="0.32" stop-color="#F5C76E"/>
<stop offset="0.39" stop-color="#F0B95D"/>
<stop offset="0.46" stop-color="#EEB153"/>
<stop offset="0.54" stop-color="#EDAE50"/>
<stop offset="0.64" stop-color="#EEB052"/>
<stop offset="0.7" stop-color="#EFB65A"/>
<stop offset="0.74" stop-color="#F2C168"/>
<stop offset="0.78" stop-color="#F6D17B"/>
<stop offset="0.81" stop-color="#FCE594"/>
<stop offset="0.83" stop-color="#FFF1A3"/>
<stop offset="0.86" stop-color="#F7E398"/>
<stop offset="0.91" stop-color="#E1BF7C"/>
<stop offset="0.98" stop-color="#BE844F"/>
<stop offset="1" stop-color="#B77946"/>
</linearGradient>
<linearGradient id="paint40_linear_2548_8102" x1="84.169" y1="37.4222" x2="64.8003" y2="58.8937" gradientUnits="userSpaceOnUse">
<stop offset="0.24" stop-color="#FFE794"/>
<stop offset="0.27" stop-color="#FBDA85"/>
<stop offset="0.32" stop-color="#F5C76E"/>
<stop offset="0.39" stop-color="#F0B95D"/>
<stop offset="0.46" stop-color="#EEB153"/>
<stop offset="0.54" stop-color="#EDAE50"/>
<stop offset="0.64" stop-color="#EEB052"/>
<stop offset="0.7" stop-color="#EFB65A"/>
<stop offset="0.74" stop-color="#F2C168"/>
<stop offset="0.78" stop-color="#F6D17B"/>
<stop offset="0.81" stop-color="#FCE594"/>
<stop offset="0.83" stop-color="#FFF1A3"/>
<stop offset="0.86" stop-color="#F7E398"/>
<stop offset="0.91" stop-color="#E1BF7C"/>
<stop offset="0.98" stop-color="#BE844F"/>
<stop offset="1" stop-color="#B77946"/>
</linearGradient>
<linearGradient id="paint41_linear_2548_8102" x1="76.9766" y1="47.2084" x2="65.0321" y2="63.0581" gradientUnits="userSpaceOnUse">
<stop offset="0.24" stop-color="#FFE794"/>
<stop offset="0.27" stop-color="#FBDA85"/>
<stop offset="0.32" stop-color="#F5C76E"/>
<stop offset="0.39" stop-color="#F0B95D"/>
<stop offset="0.46" stop-color="#EEB153"/>
<stop offset="0.54" stop-color="#EDAE50"/>
<stop offset="0.64" stop-color="#EEB052"/>
<stop offset="0.7" stop-color="#EFB65A"/>
<stop offset="0.74" stop-color="#F2C168"/>
<stop offset="0.78" stop-color="#F6D17B"/>
<stop offset="0.81" stop-color="#FCE594"/>
<stop offset="0.83" stop-color="#FFF1A3"/>
<stop offset="0.86" stop-color="#F7E398"/>
<stop offset="0.91" stop-color="#E1BF7C"/>
<stop offset="0.98" stop-color="#BE844F"/>
<stop offset="1" stop-color="#B77946"/>
</linearGradient>
<linearGradient id="paint42_linear_2548_8102" x1="87.1442" y1="41.9401" x2="68.3906" y2="41.9401" gradientUnits="userSpaceOnUse">
<stop stop-color="#B77946"/>
<stop offset="0.18" stop-color="#FFF1A3"/>
<stop offset="0.19" stop-color="#F2DC93"/>
<stop offset="0.2" stop-color="#E0BE7B"/>
<stop offset="0.22" stop-color="#D1A468"/>
<stop offset="0.23" stop-color="#C59159"/>
<stop offset="0.25" stop-color="#BD834E"/>
<stop offset="0.27" stop-color="#B87B48"/>
<stop offset="0.31" stop-color="#B77946"/>
<stop offset="0.33" stop-color="#BF8148"/>
<stop offset="0.41" stop-color="#E0A24E"/>
<stop offset="0.46" stop-color="#EDAE50"/>
<stop offset="1" stop-color="#613F1B"/>
</linearGradient>
<linearGradient id="paint43_linear_2548_8102" x1="82.0996" y1="50.0535" x2="67.1797" y2="50.0535" gradientUnits="userSpaceOnUse">
<stop stop-color="#B77946"/>
<stop offset="0.18" stop-color="#FFF1A3"/>
<stop offset="0.19" stop-color="#F2DC93"/>
<stop offset="0.2" stop-color="#E0BE7B"/>
<stop offset="0.22" stop-color="#D1A468"/>
<stop offset="0.23" stop-color="#C59159"/>
<stop offset="0.25" stop-color="#BD834E"/>
<stop offset="0.27" stop-color="#B87B48"/>
<stop offset="0.31" stop-color="#B77946"/>
<stop offset="0.33" stop-color="#BF8148"/>
<stop offset="0.41" stop-color="#E0A24E"/>
<stop offset="0.46" stop-color="#EDAE50"/>
<stop offset="1" stop-color="#613F1B"/>
</linearGradient>
<linearGradient id="paint44_linear_2548_8102" x1="76.6237" y1="55.5181" x2="66.3672" y2="55.5181" gradientUnits="userSpaceOnUse">
<stop stop-color="#B77946"/>
<stop offset="0.18" stop-color="#FFF1A3"/>
<stop offset="0.19" stop-color="#F2DC93"/>
<stop offset="0.2" stop-color="#E0BE7B"/>
<stop offset="0.22" stop-color="#D1A468"/>
<stop offset="0.23" stop-color="#C59159"/>
<stop offset="0.25" stop-color="#BD834E"/>
<stop offset="0.27" stop-color="#B87B48"/>
<stop offset="0.31" stop-color="#B77946"/>
<stop offset="0.33" stop-color="#BF8148"/>
<stop offset="0.41" stop-color="#E0A24E"/>
<stop offset="0.46" stop-color="#EDAE50"/>
<stop offset="1" stop-color="#613F1B"/>
</linearGradient>
<radialGradient id="paint45_radial_2548_8102" cx="0" cy="0" r="1" gradientUnits="userSpaceOnUse" gradientTransform="translate(78.8587 36.1368) rotate(180) scale(7.71983 10.2674)">
<stop stop-color="#F3E8DE"/>
<stop offset="0.54" stop-color="#F6EEE7" stop-opacity="0.36"/>
<stop offset="0.57" stop-color="#F6EEE7" stop-opacity="0.33"/>
<stop offset="0.75" stop-color="#F7F0E9" stop-opacity="0.15"/>
<stop offset="0.88" stop-color="#F8F1EB" stop-opacity="0.04"/>
<stop offset="0.96" stop-color="#F8F1EB" stop-opacity="0"/>
</radialGradient>
<radialGradient id="paint46_radial_2548_8102" cx="0" cy="0" r="1" gradientUnits="userSpaceOnUse" gradientTransform="translate(75.5243 45.2951) rotate(180) scale(5.76007 7.66089)">
<stop stop-color="#F3E8DE"/>
<stop offset="0.54" stop-color="#F6EEE7" stop-opacity="0.36"/>
<stop offset="0.57" stop-color="#F6EEE7" stop-opacity="0.33"/>
<stop offset="0.75" stop-color="#F7F0E9" stop-opacity="0.15"/>
<stop offset="0.88" stop-color="#F8F1EB" stop-opacity="0.04"/>
<stop offset="0.96" stop-color="#F8F1EB" stop-opacity="0"/>
</radialGradient>
<radialGradient id="paint47_radial_2548_8102" cx="0" cy="0" r="1" gradientUnits="userSpaceOnUse" gradientTransform="translate(72.0899 52.6168) rotate(180) scale(3.85276 5.12417)">
<stop stop-color="#F3E8DE"/>
<stop offset="0.54" stop-color="#F6EEE7" stop-opacity="0.36"/>
<stop offset="0.57" stop-color="#F6EEE7" stop-opacity="0.33"/>
<stop offset="0.75" stop-color="#F7F0E9" stop-opacity="0.15"/>
<stop offset="0.88" stop-color="#F8F1EB" stop-opacity="0.04"/>
<stop offset="0.96" stop-color="#F8F1EB" stop-opacity="0"/>
</radialGradient>
</defs>
</svg>
