<svg width="24" height="24" viewBox="0 0 47 60" fill="none" xmlns="http://www.w3.org/2000/svg">
<g clip-path="url(#clip0_422_992)">
<path d="M16.6302 59.9929C15.8321 59.6954 15.0774 59.3326 14.3736 58.8537C14.1414 58.694 13.8512 58.7738 13.5827 58.7666C12.4435 58.7376 11.3043 58.8464 10.1724 58.694C8.23501 58.4401 6.98697 57.3081 6.29765 55.5449C5.81875 54.3114 5.42693 53.0343 5.35437 51.692C5.33986 51.4017 5.12218 51.3437 4.94803 51.2276C1.56673 48.9927 -0.160203 45.8727 0.0139411 41.7875C0.0937572 39.9808 0.652471 38.3119 1.64654 36.7954C1.88599 36.4326 2.10367 36.048 2.63336 36.1423C3.18482 36.2367 3.17031 36.7083 3.23561 37.1001C3.74353 39.8429 5.20199 41.9181 7.58922 43.3476C8.02458 43.6088 8.03184 43.6015 8.06086 43.0863C8.14794 41.3594 8.73567 39.8211 9.82407 38.4715C10.2086 37.9926 10.0418 37.1146 9.51932 36.8389C4.32401 34.0599 1.76264 29.2709 2.3141 23.3717C2.47373 21.6811 2.76397 20.0195 3.31543 18.4086C3.43878 18.0458 3.47506 17.6903 3.38073 17.2985C2.29233 12.8723 2.198 8.44612 3.43878 4.02721C3.64921 3.26533 3.92493 2.51796 4.32402 1.83589C5.36888 0.0654238 6.31216 -0.253841 8.15519 0.167008C9.9184 0.573345 11.3914 1.56742 12.8498 2.57601C13.5754 3.08393 14.2648 3.63538 14.9178 4.23763C15.1065 4.41178 15.2588 4.4408 15.4983 4.33196C18.7127 2.94606 22.065 2.29302 25.5696 2.45991C28.2544 2.59052 30.8157 3.24356 33.2755 4.28842C33.602 4.42629 33.798 4.39727 34.0664 4.16507C35.7135 2.75015 37.4477 1.45858 39.4649 0.587857C40.2848 0.232312 41.1265 -0.0143923 42.0335 0.000119693C42.7664 0.00737571 43.3759 0.29036 43.8693 0.841818C44.9359 2.02455 45.4003 3.49026 45.7341 4.99226C46.6266 9.0774 46.5685 13.1553 45.5454 17.2114C45.4511 17.5742 45.4511 17.908 45.5672 18.278C46.1985 20.2589 46.5976 22.2906 46.6339 24.3803C46.6919 27.6165 45.9735 30.6205 43.8838 33.1891C42.643 34.7202 41.1338 35.9319 39.3851 36.8389C38.9207 37.0856 38.674 37.9926 39.0223 38.399C40.742 40.4016 41.0467 42.7598 40.7782 45.2631C40.7347 45.6767 40.829 45.8944 41.1918 46.1339C42.3891 46.9175 43.0639 48.0857 43.3686 49.4644C43.9419 52.033 43.2888 54.4057 42.0335 56.6116C41.2789 57.9394 39.9946 58.5997 38.4563 58.7085C37.3534 58.7884 36.2432 58.7521 35.1331 58.7448C34.8065 58.7448 34.5308 58.8101 34.2623 59.0206C33.6093 59.5212 32.8402 59.7534 32.042 59.884C31.9767 59.8913 31.9186 59.9058 31.9041 59.9783C31.1423 59.9783 30.3876 59.9783 29.6257 59.9783C29.3645 59.884 29.0815 59.913 28.8131 59.8477C28.4067 59.6736 28.0149 59.4777 27.7029 59.1439C27.5142 58.948 27.2893 58.8754 27.0208 58.8754C25.3157 58.8754 23.6178 58.8754 21.9126 58.8754C21.6659 58.8754 21.441 58.9262 21.2596 59.1004C20.7589 59.5865 20.1784 59.9058 19.4746 59.9711C19.3802 59.9711 19.2859 59.9711 19.1916 59.9711C19.1118 59.8913 19.0174 59.9348 18.9231 59.9203C18.8506 59.9276 18.7707 59.9058 18.7127 59.9711C18.524 59.9711 18.3354 59.9711 18.1467 59.9711C17.9581 59.8913 17.7694 59.8913 17.5808 59.9711C17.4574 59.9711 17.3268 59.9711 17.2034 59.9711C17.1381 59.913 17.0801 59.913 17.0148 59.9711C16.8842 59.9929 16.7536 59.9929 16.6302 59.9929Z" fill="#31201B"/>
<path d="M19.4746 59.9929C20.2002 59.7389 20.875 59.3906 21.4047 58.8174C21.499 58.7158 21.6442 58.7666 21.7675 58.7666C23.5525 58.7666 25.3375 58.7739 27.1225 58.7739C27.3909 58.7739 27.6013 58.8247 27.7827 59.0568C28.0585 59.4124 28.4721 59.5938 28.8712 59.7897C28.9074 59.9348 29.1904 59.7534 29.1469 60.0001C25.9325 59.9929 22.7035 59.9929 19.4746 59.9929Z" fill="#FEFEFE"/>
<path d="M29.1546 59.9926C29.0966 59.8766 28.9152 59.9273 28.8789 59.7822C29.1329 59.8403 29.4159 59.804 29.6335 59.9926C29.4739 59.9926 29.3143 59.9926 29.1546 59.9926Z" fill="#EEEDED"/>
<path d="M17.5801 59.9926C17.7687 59.8475 17.9574 59.8475 18.146 59.9926C17.9574 59.9926 17.7687 59.9926 17.5801 59.9926Z" fill="#4B3C37"/>
<path d="M18.9078 59.9133C19.0093 59.9205 19.1327 59.8334 19.1907 59.9931C19.0964 59.9931 19.0021 59.9931 18.9078 59.9931C18.8787 59.9713 18.8642 59.9568 18.8787 59.935C18.886 59.9205 18.9005 59.9133 18.9078 59.9133Z" fill="#AAA3A1"/>
<path d="M17.0078 59.9929C17.0731 59.855 17.1312 59.8768 17.1965 59.9929C17.1384 59.9929 17.0731 59.9929 17.0078 59.9929Z" fill="#978F8C"/>
<path d="M18.9088 59.913C18.9088 59.942 18.9088 59.9638 18.9015 59.9928C18.8362 59.9928 18.7782 59.9928 18.7129 59.9928C18.7492 59.8912 18.829 59.8912 18.9088 59.913Z" fill="#8E8683"/>
<path d="M38.1016 4.01251C37.4268 4.82519 36.6577 5.5653 36.1062 6.4723C35.7724 7.0165 35.8232 7.29223 36.3312 7.6768C41.2943 11.4209 44.1894 16.3913 45.1182 22.5154C45.3286 23.8795 45.2125 25.2581 45.198 26.6295C45.198 26.7311 45.169 26.8182 45.0892 26.8835C44.2039 27.7687 43.1663 28.371 41.9038 28.4943C39.3714 28.741 37.2817 27.7542 35.4242 26.1289C33.6972 24.6196 32.1517 22.9217 30.374 21.4705C29.2711 20.5707 28.1391 19.6855 26.7242 19.3155C24.3225 18.6769 22.0586 18.9744 19.9688 20.3821C18.8514 21.1367 17.8719 22.0582 16.8633 22.9435C15.4338 24.206 14.2076 25.708 12.6403 26.8109C11.6172 27.5293 10.5288 28.175 9.25896 28.3419C7.40142 28.5814 5.58742 28.5524 4.09268 27.1665C3.98384 27.0794 3.88951 26.9851 3.8242 26.8617C3.58476 26.0273 3.62104 25.1783 3.66457 24.3294C3.81695 21.0787 4.65139 18.0094 6.18241 15.136C7.68441 12.3061 9.6653 9.88263 12.2267 7.94527C13.228 7.18339 13.228 7.00925 12.4951 5.97889C11.8856 5.12994 11.0657 4.46964 10.478 3.59892C10.7319 3.4538 10.9351 3.61343 11.1455 3.70776C12.0162 4.10684 12.7564 4.70183 13.4675 5.33311C13.8375 5.65963 14.2221 5.96438 14.5921 6.27639C14.9477 6.58114 15.296 6.62468 15.7241 6.43602C16.9068 5.91359 18.1186 5.46372 19.3884 5.15171C21.4926 4.62927 23.6186 4.37531 25.7737 4.53495C28.2044 4.70909 30.5409 5.28232 32.7757 6.26913C32.9353 6.34169 33.1022 6.39974 33.2546 6.46505C33.6537 6.64645 33.9439 6.53761 34.2777 6.25462C35.279 5.3839 36.3747 4.63653 37.4486 3.84562C37.7098 3.65697 37.9492 3.69325 38.1016 4.01251Z" fill="#FDA524"/>
<path d="M4.07775 27.058C4.46232 27.3047 4.81786 27.6095 5.23146 27.7981C7.00918 28.6326 8.82319 28.502 10.6082 27.8272C12.4802 27.1161 13.8226 25.6866 15.223 24.3443C16.6597 22.9656 18.0964 21.587 19.7072 20.4115C22.45 18.4089 26.39 18.3798 29.1183 20.368C30.7364 21.5507 32.173 22.9148 33.6097 24.2935C34.2846 24.9393 34.9666 25.5705 35.6632 26.1946C37.187 27.5587 38.9719 28.3423 41.0181 28.4367C42.1283 28.4875 43.1804 28.2335 44.1019 27.5514C44.4139 27.312 44.7187 27.058 45.0888 26.8984C45.0597 27.3773 44.9582 27.8489 44.7985 28.2988C43.1949 30.8384 41.0544 32.7395 38.3116 33.9948C35.5036 35.2863 32.5504 35.9684 29.5028 36.3094C27.4929 36.5344 25.4757 36.6577 23.4513 36.5852C19.7943 36.4618 16.1735 36.07 12.6906 34.8365C10.3469 34.0093 8.1774 32.8846 6.39968 31.1504C5.42011 30.1999 4.4986 29.155 4.04147 27.8126C3.96891 27.6022 3.9544 27.3773 3.91812 27.1669C3.88909 27.0217 3.96891 26.9927 4.07775 27.058Z" fill="#FDFEFD"/>
<path d="M4.07739 27.0577C3.88873 27.2682 4.01934 27.4786 4.07739 27.6817C4.33135 28.538 4.92634 29.1837 5.44877 29.8731C7.08863 32.0281 9.31623 33.3632 11.776 34.3355C14.0109 35.2207 16.3255 35.8012 18.7128 36.077C19.9463 36.2221 21.1871 36.2874 22.4279 36.3745C23.451 36.4398 24.4813 36.4688 25.5044 36.4325C28.8277 36.3164 32.1219 35.9971 35.3145 34.9886C37.3898 34.3283 39.3489 33.4648 41.1121 32.1732C42.3529 31.2735 43.3324 30.1343 44.2104 28.8935C44.3773 28.6613 44.566 28.4581 44.7909 28.2767C44.1306 31.005 42.5053 33.0657 40.2414 34.6475C37.8106 36.3382 35.0678 37.2597 32.1872 37.8039C26.5348 38.8705 20.9041 38.8342 15.3024 37.4846C12.5887 36.8316 10.0346 35.8085 7.84326 34.0308C5.65194 32.253 4.33135 29.9674 3.83794 27.1883C3.81617 27.0795 3.82343 26.9707 3.82343 26.8618C3.9105 26.9271 3.99031 26.9924 4.07739 27.0577Z" fill="#DEDEDE"/>
<path d="M20.5922 51.5686C20.614 53.2302 20.6358 54.8846 20.5777 56.5462C20.3455 56.6623 20.1133 56.6042 19.8811 56.5462C19.453 56.4518 19.0249 56.3285 18.5896 56.2342C17.7188 56.0528 16.8626 56.1326 16.0209 56.4083C15.8323 56.4736 15.6436 56.5825 15.4259 56.5172C15.3751 56.4881 15.3534 56.4446 15.3534 56.3865C15.6581 56.0092 15.5856 55.6392 15.3461 55.2619C14.1561 53.3318 13.3362 51.2203 12.4582 49.145C11.631 47.1787 11.2682 45.0889 11.2755 42.9557C11.2755 42.2301 11.4859 41.519 11.5875 40.8006C11.6093 40.641 11.6818 40.4886 11.8923 40.5104C12.2768 40.6265 12.6396 40.7861 12.9879 40.982C12.9008 42.0704 13.2564 43.05 13.8006 43.9497C14.4028 44.9366 15.1792 45.7928 15.9266 46.6707C17.0948 48.0349 18.5097 49.1305 19.7215 50.4511C20.048 50.7994 20.4036 51.1187 20.5922 51.5686Z" fill="#FDA524"/>
<path d="M36.0756 40.9385C36.3586 40.7789 36.6343 40.612 36.9536 40.5322C37.2438 40.4451 37.2728 40.6846 37.3019 40.8442C37.505 41.8818 37.6574 42.9049 37.5849 43.9861C37.4688 45.6259 37.135 47.2077 36.569 48.7388C35.7563 50.9301 34.8711 53.0924 33.6448 55.095C33.4126 55.4723 33.2675 55.8932 33.0136 56.2487C32.4331 56.2995 31.8671 56.1181 31.2794 56.1326C30.5465 56.1471 29.8354 56.2342 29.1388 56.4592C28.972 56.5099 28.8123 56.5825 28.6309 56.539C28.464 56.4519 28.4205 56.2995 28.406 56.1326C28.2971 55.7408 28.4278 55.3417 28.3262 54.9499C28.3262 54.8628 28.3262 54.783 28.3262 54.6959C28.3987 54.5871 28.3479 54.4492 28.3987 54.3331C28.435 53.6075 28.406 52.8819 28.4132 52.1563C28.4132 52.1055 28.4132 52.0548 28.406 52.004C28.4132 51.8951 28.4278 51.7863 28.435 51.6847C28.7615 50.7777 29.4146 50.1101 30.1184 49.4934C31.8671 47.9769 33.4634 46.3152 34.7985 44.4214C35.4806 43.4564 35.8869 42.3897 35.9885 41.2143C35.9813 41.0982 36.003 41.0111 36.0756 40.9385Z" fill="#FDA524"/>
<path d="M17.5803 42.3247C18.7703 42.4626 19.9675 42.6004 21.1575 42.7456C21.484 42.7891 21.2663 42.9632 21.2156 43.0793C20.577 44.5015 20.831 46.1269 21.8613 47.179C23.015 48.3617 24.8726 48.5939 26.3601 47.7377C27.746 46.9395 28.3627 45.2416 27.9056 43.5655C27.833 43.297 27.5501 42.9778 27.7097 42.7891C27.8476 42.6295 28.2466 42.702 28.5224 42.6657C29.4294 42.5569 30.3364 42.4408 31.2506 42.332C31.4465 42.6512 31.1998 42.8762 31.062 43.1011C30.6992 43.6888 30.213 44.1968 29.8647 44.799C29.1972 45.96 28.5949 47.1572 28.1886 48.4415C28.1305 48.6229 28.087 48.8043 27.9854 48.9712C27.9346 49.0583 27.8911 49.2397 27.9274 49.276C27.1147 49.1599 26.9333 49.2977 26.9115 50.1902C26.8825 51.4673 26.897 52.7516 26.8898 54.0287C26.8898 54.1883 26.8752 54.3407 26.868 54.5003C26.3528 54.9284 25.7143 54.9719 25.0975 55.059C24.1833 55.1896 23.2763 55.0518 22.4055 54.747C22.2459 54.689 22.079 54.6237 22.0065 54.4423C21.9919 53.0273 21.9847 51.6052 21.9629 50.1902C21.9484 49.3485 21.9412 49.3485 21.0922 49.1744C20.8382 48.8769 20.7802 48.4851 20.6496 48.1368C19.9965 46.4098 19.1476 44.799 18.0156 43.3333C17.7907 43.0431 17.5222 42.7528 17.5803 42.3247Z" fill="#DEDEDE"/>
<path d="M17.5804 42.3243C18.0303 43.3619 18.8575 44.1528 19.3872 45.1396C20.0837 46.4312 20.7223 47.7445 21.0923 49.1667C20.715 49.4352 20.5916 49.8125 20.5916 50.2624C20.5844 50.6977 20.6787 51.1331 20.5989 51.5685C18.5019 49.1885 15.9623 47.2294 14.1048 44.6245C13.43 43.6739 13.0019 42.6436 12.8495 41.4971C12.8277 41.3302 12.6826 41.0763 12.9946 40.9819C14.4023 41.5116 15.8607 41.8527 17.3119 42.23C17.4063 42.259 17.4933 42.2953 17.5804 42.3243Z" fill="#FDFEFD"/>
<path d="M27.9209 49.2756C27.9136 49.1741 27.6887 49.2103 27.8338 48.9636C28.1603 48.4122 28.2692 47.7591 28.5304 47.1641C29.1327 45.8073 29.8002 44.4939 30.7507 43.3402C30.9829 43.05 31.2296 42.7452 31.2442 42.3389C32.0351 42.1357 32.826 41.9471 33.6096 41.7221C34.4368 41.4827 35.2567 41.2069 36.0767 40.9385C36.1129 42.2228 35.6486 43.3547 34.9447 44.3923C33.8708 45.9596 32.6083 47.3746 31.2006 48.6516C30.1848 49.5731 29.1399 50.4729 28.4288 51.6701C28.1676 51.0824 28.3417 50.4584 28.2837 49.8561C28.2547 49.5876 28.2111 49.3627 27.9209 49.2756Z" fill="#FDFEFD"/>
<path d="M33.0438 56.1979C32.9423 55.8206 33.2107 55.5666 33.3704 55.2981C35.003 52.5553 36.2728 49.6602 37.0709 46.5764C37.5498 44.7261 37.6659 42.825 37.2088 40.9312C37.1725 40.7788 37.187 40.5612 36.9476 40.5249C37.0637 40.4523 37.1798 40.3652 37.3031 40.2999C38.5512 39.6614 38.3262 39.5018 38.9357 40.8732C39.6613 42.5058 39.5743 44.2182 39.2695 45.9451C38.8487 48.3033 37.8909 50.4656 36.9186 52.6279C36.2147 54.188 35.4166 55.6899 34.3282 57.0178C34.0742 57.0033 33.9581 56.7493 33.7332 56.6768C33.4937 56.5389 33.1962 56.4663 33.0438 56.1979Z" fill="#F08102"/>
<path d="M11.8998 40.5106C11.7982 40.5686 11.7184 40.6412 11.7039 40.7645C11.5733 41.9908 11.3048 43.1953 11.4789 44.4651C11.6966 46.0759 11.9651 47.6723 12.6109 49.1743C13.5324 51.3148 14.3958 53.4916 15.6149 55.487C15.8543 55.8788 15.8035 56.1691 15.3972 56.3867C14.9836 56.7786 14.57 56.5754 14.1564 56.394C13.7936 55.9949 13.5034 55.545 13.2494 55.0734C11.849 52.454 10.5574 49.7838 9.84632 46.8814C9.39645 45.0528 9.17877 43.2098 9.80278 41.3668C9.93339 40.975 10.1148 40.6122 10.2889 40.2349C10.4486 39.8793 10.6662 39.756 11.0218 39.9809C11.3048 40.1623 11.6023 40.3364 11.8998 40.5106Z" fill="#F08102"/>
<path d="M35.8867 57.3443C37.4395 55.0587 38.5134 52.6352 39.4784 50.1608C39.7687 49.4135 40.0009 48.6371 40.2548 47.8752C40.3056 47.7301 40.2766 47.5269 40.4653 47.4834C40.6757 47.4326 40.8208 47.5705 40.9514 47.7228C41.7206 48.6008 42.0979 49.6457 42.1704 50.7921C42.2865 52.5481 41.7278 54.1589 40.9877 55.7117C40.5015 56.7275 39.5945 57.1919 38.5134 57.3225C37.6644 57.4241 36.8155 57.3588 35.8867 57.3443Z" fill="#F08102"/>
<path d="M12.8935 57.3443C11.8051 57.3443 10.7385 57.4894 9.6936 57.1557C8.90269 56.9017 8.27142 56.4373 7.91587 55.6899C7.19027 54.1517 6.66058 52.5553 6.74765 50.8139C6.79845 49.7327 7.1685 48.7822 7.80703 47.926C7.87959 47.8244 7.97392 47.7301 8.06825 47.6503C8.43105 47.36 8.54715 47.3891 8.6705 47.8317C9.41787 50.5091 10.5716 53.0125 11.8631 55.465C12.1897 56.0818 12.7121 56.5897 12.8935 57.3443Z" fill="#F08102"/>
<path d="M43.288 13.2063C42.2068 11.5664 41.0459 9.99911 39.6237 8.63498C39.0287 8.06901 38.4047 7.53207 37.7806 7.00238C37.6138 6.85726 37.5702 6.76293 37.7226 6.58153C38.9706 5.07228 40.371 3.75168 42.0544 2.73584C42.6639 4.04918 43.005 5.43508 43.2299 6.85726C43.5129 8.68577 43.571 10.5288 43.5274 12.3718C43.5202 12.6621 43.5202 12.9741 43.288 13.2063Z" fill="#C74F02"/>
<path d="M6.95732 2.83008C8.5609 3.78787 9.9468 4.98511 11.0787 6.4726C11.2746 6.72656 11.3037 6.87168 11.0134 7.11113C9.29376 8.55507 7.77725 10.2094 6.38409 11.9654C6.23897 11.9944 6.19544 12.1468 6.07934 12.2121C6.00678 12.2919 5.94873 12.3935 5.86166 12.4588C5.68752 12.5822 5.57142 12.5314 5.51337 12.3282C5.4916 12.2484 5.48435 12.1758 5.48435 12.096C5.50611 10.224 5.36825 8.34465 5.73831 6.48711C5.99227 5.21731 6.32604 3.96927 6.95732 2.83008Z" fill="#C74F02"/>
<path d="M38.1007 4.01254C37.8468 3.81663 37.6581 3.81663 37.3679 4.04882C36.2722 4.91954 35.075 5.66691 34.0519 6.63196C33.8777 6.79885 33.6746 6.75531 33.4786 6.6755C32.6877 6.37074 31.8968 6.04422 31.0987 5.76124C28.3849 4.78168 25.5696 4.43339 22.718 4.6946C20.5412 4.89052 18.3716 5.33313 16.3907 6.31995C15.4257 6.79885 14.7436 6.71903 13.9672 5.96441C13.14 5.15173 12.2475 4.37534 11.1809 3.87467C10.956 3.76583 10.7093 3.69327 10.4771 3.6062C9.67891 3.01121 8.88075 2.40896 8.08984 1.81397C8.11887 1.57452 8.2785 1.68336 8.40185 1.69787C9.42495 1.98085 10.2957 2.54682 11.1737 3.11279C12.3419 3.87467 13.423 4.7454 14.4461 5.68868C14.8379 6.04422 15.2007 6.06599 15.6506 5.84831C20.2364 3.66425 24.9891 3.30145 29.8797 4.564C31.0261 4.86149 32.1363 5.28234 33.2029 5.81203C33.7036 6.05874 34.1027 6.02246 34.538 5.63789C35.9602 4.37534 37.4477 3.19986 39.1238 2.29286C39.668 2.00262 40.2267 1.74141 40.8362 1.60354C40.9451 1.56001 41.0394 1.53098 41.0322 1.70513C39.98 2.38719 39.0222 3.1781 38.1007 4.01254Z" fill="#E8C587"/>
<path d="M1.74709 40.0536C1.79789 39.8359 1.83417 39.6182 1.89947 39.415C1.94301 39.2772 1.93575 39.0522 2.13166 39.0522C2.29129 39.0522 2.37837 39.2409 2.43641 39.386C2.77745 40.2205 3.18378 41.0186 3.73524 41.7442C4.82364 43.1809 6.20229 44.2621 7.79861 45.082C7.98727 45.1836 8.19769 45.2344 8.20495 45.5319C8.2122 45.8221 8.08885 45.9455 7.86391 46.0761C7.21087 46.4534 6.70295 46.9903 6.30387 47.6289C6.23131 47.745 6.2168 47.9118 6.04265 47.9409C5.42589 47.7595 4.99053 47.3096 4.55517 46.8887C3.39421 45.7568 2.52349 44.4362 2.09538 42.8471C1.92849 42.049 1.71081 41.2581 1.72533 40.4309C1.71807 40.3003 1.76886 40.1769 1.74709 40.0536Z" fill="#F08102"/>
<path d="M6.95745 2.83022C7.0155 2.96809 7.03727 3.09144 6.95019 3.22931C6.26087 4.37576 6.04319 5.66007 5.811 6.95164C5.48448 8.7729 5.68039 10.6014 5.61509 12.4662C5.89807 12.4082 5.98514 12.1397 6.19557 12.0526C6.24636 12.1107 6.25362 12.1687 6.19557 12.2268C5.6296 13.2571 5.06363 14.2875 4.45412 15.4049C4.2437 14.868 4.20016 14.4036 4.15663 13.9464C3.86639 10.645 3.90267 7.36523 4.88223 4.15082C5.05637 3.59211 5.29582 3.06242 5.53527 2.52547C5.70216 2.15542 5.89807 2.11188 6.22459 2.3223C6.4713 2.48919 6.73977 2.6198 6.95745 2.83022Z" fill="#DF6D03"/>
<path d="M43.2894 13.206C43.5578 9.94803 43.3402 6.74087 42.2808 3.62078C42.1864 3.33054 41.9397 3.06932 42.0558 2.72829C42.0921 2.69927 42.1284 2.66299 42.1647 2.64122C43.137 2.0172 43.195 2.02446 43.6449 3.11286C44.3197 4.74546 44.6753 6.45788 44.8204 8.21384C44.9437 9.69407 45.0163 11.1743 44.9075 12.6618C44.8421 13.5252 44.7188 14.3815 44.4576 15.3755C44.0295 14.5919 43.6594 13.9026 43.2894 13.206Z" fill="#DF6D03"/>
<path d="M22.1441 40.663C22.1441 40.7718 22.1296 40.8879 22.1441 40.9968C22.1877 41.316 22.0498 41.3958 21.7451 41.3958C20.6131 41.4103 19.5175 41.1564 18.4145 40.9822C16.4772 40.6775 14.5979 40.126 12.7911 39.3569C12.4428 39.2118 12.1091 39.0231 11.7825 38.8417C11.6519 38.7692 11.485 38.7039 11.4923 38.5007C11.4996 38.283 11.4343 37.971 11.5504 37.8622C11.7027 37.7243 11.8841 38 12.0583 38.0871C12.3775 38.2612 12.7041 38.4136 13.0741 38.4499C13.3571 38.4789 13.6401 38.5225 13.9013 38.624C15.2509 39.1465 16.6731 39.3642 18.088 39.5673C19.2562 39.7342 20.439 39.8213 21.6217 39.8721C22.0861 39.8938 22.1804 40.068 22.1369 40.4598C22.1296 40.5396 22.1369 40.6049 22.1441 40.663C22.1369 40.663 22.1369 40.663 22.1441 40.663Z" fill="#C74F02"/>
<path d="M21.9999 54.4419C23.4293 55.0949 24.8878 55.1094 26.368 54.6523C26.5349 54.6015 26.6946 54.5507 26.8614 54.4999C26.8324 55.3779 27.1009 56.2559 26.7961 57.1339C26.7381 57.2863 26.7381 57.3733 26.5712 57.3733C25.12 57.3733 23.6688 57.3733 22.2176 57.3733C22.0144 57.3733 21.9346 57.3008 21.9419 57.0903C21.9636 56.2051 21.9854 55.3199 21.9999 54.4419Z" fill="#F08102"/>
<path d="M23.8214 46.7796C23.0087 46.5765 22.2903 45.6622 22.2323 44.7625C22.1742 43.8264 22.791 42.9267 23.6908 42.6074C24.6268 42.2809 25.6354 42.5421 26.1578 43.2532C26.0997 43.6233 26.049 43.9933 26.049 44.3779C26.0417 45.5534 24.9751 46.6853 23.8214 46.7796Z" fill="#F2E156"/>
<path d="M32.9563 39.2042C34.2043 38.9285 35.4378 38.5947 36.6351 38.1448C36.7367 38.1086 36.8455 38.065 36.9543 38.0505C37.1357 38.0215 37.4042 37.8328 37.484 38.0941C37.5638 38.348 37.6364 38.6818 37.2518 38.8632C35.5322 39.6686 33.7544 40.3144 31.8969 40.7135C30.8956 40.9239 29.8942 41.1343 28.8711 41.2214C28.4358 41.2794 28.0149 41.4391 27.5723 41.4318C27.2676 41.4246 26.912 41.4681 26.7524 41.1126C26.6508 40.8804 26.9556 40.3144 27.2458 40.1475C27.4707 40.0169 27.7174 39.9806 27.9714 39.9371C29.0163 39.7557 30.0756 39.7194 31.1205 39.5525C31.7228 39.4437 32.3395 39.3276 32.9563 39.2042Z" fill="#C74F02"/>
<path d="M2.21916 42.8833C2.87946 45.0311 4.22182 46.6564 6.04308 47.9262C5.87619 48.4704 5.68754 49.0001 5.54242 49.5516C5.4626 49.8491 5.36827 49.8563 5.13608 49.6894C3.0536 48.1294 1.80557 46.076 1.44277 43.4928C1.31941 42.6293 1.34118 41.7659 1.55161 40.9097C1.79831 40.9459 1.79831 41.1564 1.82008 41.3305C1.87087 41.7296 1.97971 42.1214 1.94343 42.5278C1.92166 42.7164 2.00874 42.8615 2.21916 42.8833Z" fill="#DEDEDE"/>
<path d="M33.0424 56.198C33.2964 56.3286 33.5503 56.4592 33.797 56.5898C33.6592 56.9091 33.4052 56.7277 33.2383 56.6696C32.8683 56.5463 32.6216 56.6333 32.3821 56.9454C32.0411 57.3952 31.5985 57.758 31.1776 58.1716C31.4026 58.3385 31.7363 58.1571 31.9685 58.5199C31.0398 58.5054 30.1908 58.5707 29.3419 58.4764C28.6598 58.1934 28.355 57.6347 28.4058 56.7494C28.5002 56.6841 28.355 56.4447 28.5945 56.4737C29.4289 56.2415 30.2489 55.9803 31.1268 55.973C31.7799 55.9658 32.4111 56.0601 33.0424 56.198Z" fill="#FDFEFD"/>
<path d="M20.3307 57.722C20.1638 58.1065 19.9243 58.404 19.4817 58.4838C19.0028 58.5274 18.4804 58.6652 18.0595 58.3823C17.4065 57.9469 16.8043 57.4245 16.4269 56.7061C16.2601 56.3941 16.3761 56.2635 16.7172 56.1982C17.8419 55.9805 18.9012 56.249 19.9534 56.59C20.5193 56.7714 20.5484 56.8512 20.3887 57.4535C20.367 57.5406 20.396 57.6421 20.3307 57.722Z" fill="#FDFEFD"/>
<path d="M20.3306 57.7218C20.3741 56.8583 20.3741 56.8583 19.4744 56.5608C18.5674 56.2561 17.6459 56.1545 16.6953 56.2851C16.4341 56.3214 16.4051 56.4302 16.5139 56.6261C16.9566 57.3808 17.5951 57.9395 18.3207 58.3966C18.6617 58.607 19.0971 58.4184 19.4889 58.4764C17.1815 58.7812 15.8609 58.6651 14.6491 57.0325C14.5258 56.7858 14.7144 56.6914 14.8741 56.6261C15.041 56.5608 15.2078 56.4738 15.3965 56.4665C16.8187 55.8933 18.2481 55.886 19.6993 56.3577C19.9823 56.452 20.2871 56.481 20.5773 56.5391C20.5846 56.9527 20.541 57.3517 20.3306 57.7218Z" fill="#DEDEDD"/>
<path d="M29.3496 58.469C30.1695 58.469 30.9895 58.469 31.8094 58.469C31.5845 58.3311 31.3523 58.3964 31.1273 58.3746C31.0548 58.3674 30.9604 58.3892 30.9242 58.2948C30.8879 58.2005 30.9604 58.1425 31.0185 58.0989C31.599 57.6563 32.1069 57.1339 32.5495 56.5606C32.6801 56.3865 32.8325 56.4228 33.0139 56.4736C33.2751 56.5461 33.5218 56.7203 33.8193 56.5897C34.0515 56.6695 34.1966 56.8509 34.3417 57.025C33.4855 58.1062 32.3971 58.6867 30.9895 58.5851C30.4308 58.5415 29.8793 58.6721 29.3496 58.469Z" fill="#DEDEDE"/>
<path d="M23.8203 46.7799C24.5169 46.5477 25.1337 46.1849 25.5545 45.5536C25.8302 45.1328 25.9681 44.6829 25.9463 44.175C25.9318 43.863 25.8738 43.5074 26.164 43.2607C26.8098 44.0879 26.8533 45.1038 26.2874 45.9382C25.7577 46.7219 24.7999 47.0484 23.8203 46.7799Z" fill="#FCFCFB"/>
<path d="M32.9569 39.2043C32.137 39.6106 31.2372 39.6542 30.352 39.7703C29.4305 39.8864 28.509 39.9517 27.5947 40.1331C27.0868 40.2347 26.9634 40.5902 26.8401 40.9893C26.7675 41.2287 26.9634 41.2142 27.0795 41.2432C27.5004 41.3303 27.9285 41.3085 28.3493 41.2505C28.5235 41.2287 28.6904 41.1852 28.8645 41.2142C28.2405 41.3956 27.6455 41.7076 26.9489 41.4972C26.5643 41.3811 26.4482 41.1562 26.5063 40.7934C26.5063 40.7789 26.5135 40.7643 26.5135 40.7498C26.6587 39.8138 26.7312 39.705 27.7108 39.6905C29.2055 39.6687 30.6858 39.48 32.1515 39.2188C32.4127 39.1753 32.6884 39.2043 32.9569 39.2043Z" fill="#613F36"/>
<path d="M24.4372 41.0472C24.4082 41.0472 24.3719 41.0472 24.3429 41.0472C23.5882 41.069 23.6028 41.069 23.6173 40.3216C23.6245 40.0169 23.6898 39.85 24.0381 39.8863C24.2848 39.9153 24.5388 39.8863 24.7927 39.8935C25.2063 39.9008 25.395 40.0459 25.3587 40.5248C25.3297 40.9311 25.2716 41.1488 24.8073 41.0545C24.6984 41.0254 24.5678 41.0472 24.4372 41.0472Z" fill="#DCDCDC"/>
<path d="M2.21941 42.883C2.19764 42.9774 2.18313 43.079 2.04527 42.9846C1.88564 42.8758 1.76228 42.7815 1.79856 42.5348C1.87838 41.976 1.78405 41.4246 1.5446 40.9094C1.49381 40.7062 1.58088 40.5176 1.63893 40.3289C1.69698 40.2781 1.75503 40.2781 1.79856 40.3434C1.87112 41.2069 2.05252 42.0414 2.21941 42.883Z" fill="#FBF5EE"/>
<path d="M15.397 56.4738C15.1721 56.6915 14.7295 56.6189 14.6497 57.0325C14.4392 56.8511 14.2869 56.6262 14.1562 56.394C14.5698 56.3867 14.9907 56.5971 15.397 56.3867C15.397 56.4085 15.397 56.4448 15.397 56.4738Z" fill="#F4A025"/>
<path d="M28.407 54.391C28.3997 54.4998 28.4215 54.6159 28.3054 54.6885C28.3562 53.7888 28.2256 52.889 28.3852 51.9893C28.3997 52.0038 28.4143 52.0255 28.4215 52.0473C28.4433 52.831 28.4796 53.6146 28.407 54.391Z" fill="#988F8D"/>
<path d="M28.3118 54.9429C28.5149 55.3129 28.3118 55.7338 28.4641 56.1038C28.4061 56.1909 28.4859 56.307 28.3843 56.3796C28.1957 55.9152 28.2755 55.429 28.3118 54.9429Z" fill="#DBBD93"/>
<path d="M28.3926 56.3866C28.4216 56.2922 28.3781 56.1834 28.4724 56.1108C28.5159 56.2342 28.5595 56.3503 28.5957 56.4736C28.5304 56.568 28.4724 56.6623 28.4071 56.7494C28.3998 56.626 28.3998 56.5027 28.3926 56.3866Z" fill="#FAD8A5"/>
<path d="M8.38768 1.69786C8.27884 1.72689 8.14823 1.68335 8.07567 1.81396C7.9886 1.77042 7.90153 1.73414 7.81445 1.69061C7.89427 1.48018 8.03939 1.57451 8.17725 1.61079C8.25707 1.63981 8.32237 1.66884 8.38768 1.69786Z" fill="#C6A774"/>
<path d="M8.18342 1.61121C8.06007 1.64024 7.91495 1.55317 7.82062 1.69103C7.74806 1.64749 7.55215 1.61847 7.76257 1.52414C7.87867 1.46609 8.06007 1.49512 8.18342 1.61121Z" fill="#937955"/>
<path d="M1.80606 40.3434C1.75527 40.3361 1.69722 40.3361 1.64643 40.3289C1.6174 40.2128 1.70448 40.1402 1.74801 40.0459C1.82783 40.1402 1.83508 40.2418 1.80606 40.3434Z" fill="#D9B690"/>
<path d="M6.18945 12.2266C6.18945 12.1686 6.18945 12.1105 6.18945 12.0525C6.23299 11.9799 6.25476 11.842 6.38537 11.9654C6.33457 12.067 6.31281 12.1903 6.18945 12.2266Z" fill="#CB6105"/>
<path d="M41.0182 1.71239C40.9819 1.62532 40.8948 1.63257 40.8223 1.61081C40.9238 1.51648 41.0545 1.47294 41.1488 1.56727C41.1996 1.61806 41.1053 1.69062 41.0182 1.71239Z" fill="#9A7F59"/>
<path d="M35.9092 22.0437C35.1618 22.0147 34.5596 21.9856 33.9864 21.7897C32.3102 21.2383 31.7442 19.8234 32.5714 18.2561C33.2898 16.8919 34.9369 16.2679 36.4316 16.7976C37.8901 17.32 38.739 18.7785 38.4561 20.295C38.2819 21.2238 37.6869 21.8115 36.7074 21.9784C36.3954 22.0292 36.0833 22.0292 35.9092 22.0437Z" fill="#31201B"/>
<path d="M13.0457 22.0292C12.7555 22.022 12.4072 22.051 12.0661 21.9639C10.8036 21.6519 10.2304 20.6143 10.4916 19.0978C10.7673 17.487 12.4217 16.3478 14.047 16.638C15.7812 16.9428 16.9059 18.4665 16.6374 20.1354C16.5358 20.7667 16.144 21.173 15.6143 21.485C14.954 21.8696 14.2357 22.0292 13.0457 22.0292Z" fill="#31201B"/>
<path d="M16.2753 11.2907C17.6539 11.1456 18.6988 12.8871 18.1038 14.2439C17.9587 14.585 17.6829 14.8026 17.3492 14.926C16.3914 15.2815 15.4336 15.2961 14.512 14.7954C13.5688 14.2875 13.3438 13.2208 14.0186 12.3864C14.5919 11.6826 15.3247 11.2472 16.2753 11.2907Z" fill="#FDFEFD"/>
<path d="M32.7816 15.187C32.5712 15.1652 32.3825 15.1507 32.1939 15.1217C30.525 14.846 30.3436 13.4165 30.9458 12.2774C31.6134 11.0148 33.1081 11.0583 34.1965 11.7477C34.3416 11.842 34.4722 11.9581 34.5956 12.0814C35.0672 12.5531 35.4591 13.0828 35.2196 13.8011C34.9874 14.505 34.436 14.8895 33.7394 15.0637C33.4274 15.1435 33.0863 15.1507 32.7816 15.187Z" fill="#FDFEFD"/>
<path d="M20.8092 23.0526C20.7802 22.0586 21.1575 21.4345 22.079 21.05C23.6028 20.4114 25.1556 20.3897 26.6939 20.9919C27.3469 21.2459 27.9419 21.6232 28.0943 22.4068C28.2249 22.9003 28.1378 23.3719 27.9492 23.8218C27.5283 24.8158 26.7737 25.4761 25.8159 25.9333C25.707 25.9841 25.5692 25.9913 25.4966 26.1219C25.6417 26.3759 26.0045 26.3831 26.1206 26.6661C27.3324 27.4425 28.1523 27.3047 29.0376 26.1872C29.3205 25.8244 29.5455 25.4254 29.7632 25.019C29.9736 24.6344 30.2928 24.5909 30.6484 24.7651C30.9749 24.9319 31.1491 25.1641 30.9749 25.5705C30.5396 26.6153 29.9373 27.5296 28.936 28.1028C28.6095 28.2915 28.4643 28.5382 28.3918 28.9155C28.1306 30.3159 27.5646 31.5712 26.4181 32.4855C25.1701 33.4868 23.5593 33.4578 22.333 32.4202C21.1865 31.4478 20.6496 30.1563 20.3739 28.7268C20.3158 28.4366 20.1925 28.2625 19.9458 28.1028C19.017 27.5006 18.364 26.6661 17.9576 25.6358C17.7907 25.2004 17.9141 24.9029 18.2914 24.7433C18.7195 24.5619 18.9807 24.6635 19.1984 25.0988C19.3871 25.4834 19.6047 25.8462 19.8732 26.1872C20.7512 27.2974 21.5856 27.4353 22.7901 26.6589C22.9062 26.3759 23.2473 26.3396 23.4432 26.0856C22.986 25.8535 22.5362 25.6358 22.1443 25.3238C21.68 24.9537 21.3026 24.5183 21.0414 23.9887C20.8963 23.6984 20.8092 23.3937 20.8092 23.0526Z" fill="#31201B"/>
<path d="M26.1202 26.6733C25.7937 26.5209 25.4962 26.3322 25.1914 26.0783C26.8821 25.3962 28.072 24.3586 28.0938 22.4067C28.609 23.604 28.1591 25.1858 27.1143 25.9912C26.795 26.2379 26.3886 26.354 26.1202 26.6733Z" fill="#DEDEDD"/>
<path d="M20.8099 23.0527C21.1945 24.5983 22.2466 25.5125 23.7269 26.064C23.4221 26.3325 23.1174 26.5139 22.7981 26.6735C22.4716 26.434 22.1596 26.1873 21.8258 25.9624C21.1655 25.5125 20.8317 24.8522 20.643 24.1121C20.5487 23.7493 20.7374 23.4083 20.8099 23.0527Z" fill="#DDDDDD"/>
<path d="M28.4062 54.3911C28.4135 53.6074 28.4208 52.8238 28.428 52.0474C28.5296 52.831 28.5514 53.6147 28.4062 54.3911Z" fill="#E5BA7E"/>
<path d="M35.9249 18.612C35.9321 19.1634 35.5258 19.6351 35.0251 19.6496C34.4156 19.6641 33.9875 19.2578 33.973 18.6337C33.9585 18.1041 34.4156 17.6324 34.9598 17.6107C35.4169 17.5961 35.9103 18.1113 35.9249 18.612Z" fill="#FCFDFC"/>
<path d="M14.9255 18.6554C14.9255 19.2722 14.5554 19.6205 13.9241 19.6205C13.3291 19.6132 13.0026 19.2577 13.0099 18.6047C13.0099 18.075 13.409 17.6541 13.9169 17.6469C14.5119 17.6323 14.9255 18.0387 14.9255 18.6554Z" fill="#FCFDFC"/>
<path d="M24.4811 23.2704C23.8934 23.1833 23.2839 23.2051 22.7397 22.8931C22.4784 22.7479 22.239 22.552 22.2463 22.2473C22.2535 21.928 22.5002 21.7103 22.7905 21.5942C23.8934 21.1661 24.9963 21.1734 26.0992 21.5942C26.3822 21.7031 26.6434 21.8845 26.6797 22.2183C26.7087 22.5811 26.4185 22.7334 26.1645 22.8858C25.6493 23.2051 25.0616 23.2123 24.4811 23.2704Z" fill="#614037"/>
<path d="M26.2231 30.5841C26.1724 30.6639 26.1216 30.7437 26.0635 30.8163C24.888 32.2094 23.7343 32.1514 22.6387 30.6639C22.7185 30.4898 22.8854 30.4245 23.0523 30.3737C24.0754 30.0762 25.0839 30.1632 26.0853 30.468C26.1433 30.4825 26.1869 30.5333 26.2231 30.5841Z" fill="#F28B7E"/>
<path d="M26.2227 30.5842C25.2286 30.381 24.2273 30.1778 23.2114 30.4608C23.0155 30.5188 22.8269 30.5914 22.6382 30.6567C22.3044 30.2213 22.3044 30.2141 22.8124 30.0545C23.8935 29.7134 24.9747 29.7134 26.0703 30.0327C26.4621 30.156 26.5274 30.3012 26.2227 30.5842Z" fill="#DDDBDB"/>
</g>
<defs>
<clipPath id="clip0_422_992">
<rect width="46.6344" height="60" fill="white"/>
</clipPath>
</defs>
</svg>
