<svg width="24" height="24" viewBox="0 0 24 24" fill="none" xmlns="http://www.w3.org/2000/svg">
<g id="Group 1261157601">
<circle id="Ellipse 2142" cx="12" cy="12" r="12" fill="#2B6AFF"/>
<g id="Group 1261157580">
<g id="Group 1261157579">
<path id="Vector" d="M14.7025 11.0322C14.5704 11.237 14.4383 11.4451 14.3094 11.6499C13.8173 12.4261 13.3449 13.2122 12.866 13.9951C12.714 14.2428 12.5324 14.4674 12.2946 14.6425C11.5679 15.1776 10.8181 14.6359 10.7322 14.0017C10.6727 13.5921 10.6364 13.1792 10.6298 12.7663C10.6265 12.2874 10.6298 11.8084 10.6298 11.3328C10.6298 11.2634 10.6232 11.194 10.6199 11.1247C10.5869 11.1247 10.5836 11.1511 10.5736 11.1643C9.6686 12.6606 8.71731 14.1305 7.79245 15.6136C7.7363 15.7028 7.68345 15.7952 7.62399 15.8844C7.59757 15.9241 7.59757 15.9505 7.6339 15.9901C8.56868 16.9579 9.67851 17.6119 11.0196 17.8167C12.648 18.0678 14.1278 17.7011 15.4523 16.7168C15.6142 16.5979 15.7595 16.4592 15.918 16.3336C16.1129 16.1817 16.3276 16.0892 16.5853 16.1487C16.6216 16.1553 16.6513 16.1718 16.6777 16.1949C16.7372 16.2544 16.7967 16.3072 16.8627 16.3601C17.0609 16.5054 17.0708 16.7003 17.018 16.915C16.9519 17.1693 16.7768 17.3444 16.582 17.5029C15.6835 18.2494 14.6728 18.7812 13.5233 19.0223C11.3234 19.4881 9.31848 19.0455 7.55133 17.6549C6.20367 16.5946 5.34817 15.2073 4.97162 13.5293C4.77674 12.6606 4.75692 11.782 4.88904 10.9001C5.29202 8.15851 7.24744 6.08087 9.43739 5.2485C10.1442 4.97765 10.8874 4.82901 11.6438 4.80589C12.4696 4.77946 13.2789 4.85213 14.0716 5.10647C15.1286 5.44008 16.0931 6.01481 16.8891 6.78443C17.9891 7.84802 18.6827 9.13292 18.9734 10.6358C19.1154 11.3691 19.1484 12.109 19.0295 12.8456C18.8875 13.7341 18.1674 14.616 17.193 14.801C16.2285 14.986 15.3301 14.4872 14.9403 13.5458C14.7719 13.1396 14.7256 12.7135 14.7256 12.2808C14.7256 11.8811 14.7256 11.4847 14.7256 11.085C14.7256 11.0718 14.7256 11.0586 14.7223 11.0454L14.7025 11.0322Z" fill="#FEFEFE"/>
<path id="Vector_2" d="M11.9355 12.9577V12.3598C11.9355 11.5374 11.9388 10.7116 11.9289 9.88913C11.9256 9.55552 11.8496 9.23843 11.6052 8.98739C11.3839 8.76609 11.0503 8.70333 10.7629 8.82554C10.5647 8.91142 10.3963 9.05345 10.274 9.23512C9.98338 9.64801 9.73895 10.0906 9.46479 10.5134C8.57957 11.8644 7.7538 13.2517 6.88179 14.6092C6.81242 14.7182 6.75297 14.7215 6.69351 14.5993C6.62084 14.454 6.55808 14.3054 6.49863 14.1534C6.24429 13.5126 6.11217 12.8322 6.10226 12.1418C6.08244 10.7017 6.48542 9.39697 7.39376 8.27393C8.28559 7.1707 9.43176 6.45393 10.8323 6.19629C12.8571 5.82634 14.6143 6.39117 16.0776 7.8214C16.9892 8.70993 17.5177 9.81316 17.7291 11.0716C17.8084 11.5341 17.8249 12.0064 17.7787 12.4721C17.7423 12.8157 17.6036 13.1162 17.3294 13.3376C17.1015 13.5192 16.8439 13.6216 16.5565 13.506C16.2526 13.3871 16.0974 13.1394 16.0445 12.8223C15.9686 12.3598 15.9785 11.8941 15.9884 11.4284C15.995 11.032 16.0214 10.629 15.9355 10.236C15.8331 9.78013 15.5689 9.45643 15.0965 9.33752C14.8686 9.28137 14.6572 9.35734 14.4591 9.46304C14.1585 9.62489 13.9306 9.86932 13.739 10.1435C13.3955 10.629 13.0982 11.1476 12.7811 11.653C12.5168 12.0758 12.2526 12.4986 11.9883 12.9214C11.9784 12.9346 11.9685 12.9511 11.9586 12.9643L11.9355 12.9577Z" fill="#2B6AFF"/>
</g>
</g>
</g>
</svg>
