<svg width="24" height="24" viewBox="0 0 24 24" fill="none" xmlns="http://www.w3.org/2000/svg">
<g id="Group 1261157233">
<g id="Mask group">
<mask id="mask0_2585_9069" style="mask-type:alpha" maskUnits="userSpaceOnUse" x="0" y="0" width="24" height="24">
<circle id="Ellipse 317" cx="12" cy="12" r="12" fill="#D9D9D9"/>
</mask>
<g mask="url(#mask0_2585_9069)">
<g id="Group 1000009194">
<path id="Vector" d="M20.129 -0.799805H3.87724C1.2958 -0.799805 -0.796875 1.29287 -0.796875 3.87431V20.1261C-0.796875 22.7075 1.2958 24.8002 3.87724 24.8002H20.129C22.7105 24.8002 24.8031 22.7075 24.8031 20.1261V3.87431C24.8031 1.29287 22.7105 -0.799805 20.129 -0.799805Z" fill="url(#paint0_linear_2585_9069)"/>
<path id="Vector_2" d="M7.82292 5.5918C7.03245 5.59245 6.25992 5.82741 5.60294 6.26697C4.94596 6.70654 4.43403 7.33098 4.13183 8.0614C3.82964 8.79182 3.75074 9.59543 3.90511 10.3707C4.05948 11.1459 4.44019 11.858 4.99914 12.417C5.55808 12.9759 6.27017 13.3566 7.04541 13.511C7.82066 13.6654 8.62427 13.5865 9.35469 13.2843C10.0851 12.9821 10.7096 12.4701 11.1491 11.8131C11.5887 11.1562 11.8236 10.3836 11.8243 9.59317C11.8237 8.53212 11.4019 7.5147 10.6517 6.76442C9.9014 6.01414 8.88397 5.59238 7.82292 5.5918ZM7.82292 11.9501C7.3563 11.9501 6.90017 11.8118 6.5122 11.5525C6.12423 11.2933 5.82185 10.9248 5.6433 10.4937C5.46475 10.0626 5.41805 9.58824 5.50911 9.1306C5.60017 8.67295 5.82489 8.25259 6.15487 7.92267C6.48484 7.59275 6.90523 7.36809 7.36289 7.2771C7.82055 7.18612 8.29491 7.23289 8.72598 7.4115C9.15706 7.59012 9.52548 7.89255 9.78467 8.28056C10.0439 8.66858 10.1822 9.12473 10.1821 9.59135C10.18 10.2163 9.93072 10.8151 9.48873 11.2571C9.04675 11.699 8.44792 11.9481 7.82292 11.9501ZM19.6092 9.01215C19.6105 9.58434 19.4659 10.1474 19.189 10.6481C18.7619 10.3005 18.2757 10.0325 17.7536 9.85701C17.8928 9.5971 17.9661 9.30699 17.967 9.01215C17.967 8.54008 17.7795 8.08733 17.4457 7.75352C17.1119 7.41971 16.6591 7.23218 16.1871 7.23218C15.715 7.23218 15.2622 7.41971 14.9284 7.75352C14.5946 8.08733 14.4071 8.54008 14.4071 9.01215C14.4048 9.30738 14.4783 9.59826 14.6205 9.85701C14.0984 10.0326 13.6121 10.3006 13.1848 10.6481C12.8998 10.1274 12.7554 9.5414 12.7659 8.94788C12.7764 8.35436 12.9413 7.77381 13.2445 7.26344C13.5476 6.75308 13.9785 6.33051 14.4947 6.03738C15.0109 5.74425 15.5945 5.59068 16.1882 5.5918C17.0951 5.59277 17.9646 5.95341 18.6059 6.59462C19.2472 7.23583 19.6081 8.10525 19.6092 9.01215ZM16.1882 10.3964C15.3974 10.3957 14.6243 10.6296 13.9665 11.0683C13.3086 11.507 12.7957 12.131 12.4925 12.8612C12.1892 13.5915 12.1093 14.3953 12.2629 15.1709C12.4165 15.9466 12.7966 16.6593 13.3552 17.2189C13.9138 17.7786 14.6258 18.16 15.4012 18.315C16.1766 18.47 16.9805 18.3916 17.7113 18.0897C18.4421 17.7878 19.067 17.276 19.507 16.6189C19.9469 15.9619 20.1822 15.1892 20.1829 14.3985C20.1819 13.3386 19.7609 12.3224 19.0122 11.5723C18.2634 10.8222 17.248 10.3994 16.1882 10.3964ZM16.1882 16.7503C15.7222 16.7497 15.2668 16.611 14.8797 16.3516C14.4926 16.0922 14.1911 15.7238 14.0133 15.2931C13.8356 14.8623 13.7896 14.3885 13.8811 13.9316C13.9727 13.4747 14.1977 13.0552 14.5277 12.7261C14.8577 12.3971 15.2778 12.1734 15.735 12.0831C16.1922 11.9929 16.6659 12.0403 17.0961 12.2193C17.5263 12.3984 17.8938 12.7009 18.1521 13.0888C18.4103 13.4767 18.5478 13.9325 18.547 14.3985C18.5451 15.0229 18.2958 15.621 17.8536 16.0619C17.4115 16.5028 16.8125 16.7503 16.1882 16.7503ZM11.244 14.9715C11.244 15.8791 10.8834 16.7495 10.2417 17.3913C9.59988 18.0331 8.72944 18.3936 7.82182 18.3936C6.9142 18.3936 6.04376 18.0331 5.40198 17.3913C4.76019 16.7495 4.39965 15.8791 4.39965 14.9715H6.04185C6.04185 15.4435 6.22938 15.8963 6.56319 16.2301C6.897 16.5639 7.34974 16.7514 7.82182 16.7514C8.2939 16.7514 8.74664 16.5639 9.08045 16.2301C9.41426 15.8963 9.60179 15.4435 9.60179 14.9715H11.244Z" fill="#252525"/>
</g>
</g>
</g>
</g>
<defs>
<linearGradient id="paint0_linear_2585_9069" x1="23.4978" y1="0.505481" x2="0.86214" y2="23.1412" gradientUnits="userSpaceOnUse">
<stop stop-color="#F1D961"/>
<stop offset="1" stop-color="#CDA146"/>
</linearGradient>
</defs>
</svg>
