<svg width="24" height="24" viewBox="0 0 100 100" fill="none" xmlns="http://www.w3.org/2000/svg">
<circle cx="50" cy="50" r="50" fill="#12F67D"/>
<path fill-rule="evenodd" clip-rule="evenodd" d="M76.3689 16.955V21.7917C76.3689 22.8691 75.4895 23.7467 74.4066 23.7467H69.56C68.4804 23.7467 67.601 22.8724 67.601 21.7917V16.955C67.601 15.8743 68.4771 15 69.56 15H74.4066C75.4895 15 76.3689 15.8743 76.3689 16.955ZM85.1401 39.295V34.4583C85.1401 33.3776 84.2607 32.5033 83.1778 32.5033H78.3312C77.2483 32.5033 76.3722 33.3776 76.3722 34.4583V39.295C76.3722 40.3757 77.2483 41.25 78.3312 41.25H83.1778C84.2607 41.25 85.1401 40.3724 85.1401 39.295ZM69.4878 35.1361V30.2994C69.4878 29.2187 68.6084 28.3444 67.5288 28.3444H62.6821C61.5993 28.3444 60.7231 29.2187 60.7231 30.2994V35.1361C60.7231 36.2168 61.5993 37.0911 62.6821 37.0911H67.5288C68.6117 37.0911 69.4878 36.2168 69.4878 35.1361ZM60.7921 50.0065H67.601V50H74.4132C75.4993 50 76.3755 50.8743 76.3755 51.955V65.545C76.3755 66.6289 75.4961 67.5033 74.4132 67.5033H69.5666C68.4804 67.5033 67.6043 68.3776 67.6043 69.4583V74.295C67.6043 75.3757 66.7281 76.25 65.6453 76.25H60.7986C59.7125 76.25 58.8363 77.1243 58.8363 78.205V83.0417C58.8363 84.1257 57.9602 85 56.8773 85H34.4883C33.4054 85 32.5293 84.1224 32.5293 83.0417V78.205C32.5293 77.1243 31.6531 76.25 30.5703 76.25H25.7236C24.6408 76.25 23.7646 75.3757 23.7646 74.295V69.4583C23.7646 68.3776 22.8885 67.5033 21.8056 67.5033H16.959C15.8761 67.5033 15 66.6257 15 65.545V43.2017C15 42.1211 15.8761 41.2467 16.959 41.2467H21.8056C22.8885 41.2467 23.7646 40.3724 23.7646 39.2917V34.4583C23.7646 33.3776 24.6408 32.5033 25.7236 32.5033H30.5703C31.6531 32.5033 32.5293 31.6289 32.5293 30.5483V25.7148C32.5293 24.6342 33.4054 23.7598 34.4883 23.7598H48.1061C49.189 23.7598 50.0651 24.6342 50.0651 25.7148V39.3048C50.0651 40.3855 50.9413 41.2598 52.0241 41.2598H56.8708C57.9569 41.2598 58.8331 42.1342 58.8331 43.2148V48.0516C58.8331 49.1322 59.7092 50.0065 60.7921 50.0065ZM58.8331 69.4714C58.8331 68.3874 59.7092 67.5131 60.7921 67.5131L65.6321 67.5065C66.715 67.5065 67.5911 66.6322 67.5911 65.5515V60.7115C67.5911 59.6309 66.715 58.7565 65.6321 58.7565H60.7855C59.7059 58.7565 58.8265 57.8822 58.8265 56.8015V51.9648C58.8265 50.8842 57.9471 50.0065 56.8642 50.0065H52.0176C50.938 50.0065 50.0586 49.1322 50.0586 48.0516V43.2148C50.0586 42.1374 49.1824 41.2598 48.0996 41.2598H43.2529C42.1701 41.2598 41.2939 40.3855 41.2939 39.3048V34.4681C41.2939 33.3874 40.4178 32.5131 39.3349 32.5131H34.4883C33.4054 32.5131 32.5293 33.3874 32.5293 34.4681V39.3048C32.5293 40.3855 31.6531 41.2598 30.5703 41.2598H25.7236C24.6408 41.2598 23.7646 42.1342 23.7646 43.2148V65.5581C23.7646 66.6388 24.6408 67.5131 25.7236 67.5131H30.5703C31.6499 67.5131 32.5293 68.3874 32.5293 69.4681V74.3048C32.5293 75.3855 33.4054 76.2598 34.4883 76.2598H56.8741C57.9569 76.2598 58.8331 75.3855 58.8331 74.3048V69.4714Z" fill="black"/>
</svg>
