<svg width="24" height="24" viewBox="0 0 24 24" fill="none" xmlns="http://www.w3.org/2000/svg">
<g id="easy2stake 1" clip-path="url(#clip0_2585_9414)">
<path id="Vector" d="M5.36113 6.65731C5.01836 6.65649 4.6813 6.5695 4.38086 6.40445C4.08039 6.23944 3.82627 6.00156 3.6417 5.7127L0.171875 0.236328V6.68202C0.171875 7.76273 0.601191 8.79921 1.36538 9.56336C2.12957 10.3275 3.16603 10.7569 4.2467 10.7569H5.45681L8.35865 17.4619L11.9828 6.65731H5.36113Z" fill="#09F595"/>
<path id="Vector_2" d="M20.2944 5.7127C20.1103 6.00196 19.8562 6.24011 19.5557 6.40523C19.2552 6.57032 18.9179 6.657 18.575 6.65731H11.9688L15.5929 17.4619L18.4947 10.7569H19.7048C20.7856 10.7569 21.822 10.3275 22.5862 9.56336C23.3504 8.79921 23.7797 7.76273 23.7797 6.68202V0.236328L20.2944 5.7127Z" fill="#09F595"/>
<path id="Vector_3" d="M9.6534 20.4747L8.34139 17.4463L7.10661 21.1507C7.00317 21.4582 6.97449 21.7858 7.02281 22.1067C7.07116 22.4275 7.19521 22.7321 7.38466 22.9955C7.5741 23.2588 7.82346 23.4732 8.11229 23.6211C8.40104 23.7689 8.72083 23.8459 9.04526 23.8457H14.9106C15.2347 23.8454 15.5541 23.7681 15.8425 23.62C16.1309 23.472 16.3799 23.2575 16.5689 22.9942C16.758 22.7309 16.8818 22.4264 16.93 22.1059C16.9782 21.7854 16.9494 21.4579 16.8461 21.1507L15.6113 17.4463L14.2993 20.4747H9.6534Z" fill="#09F595"/>
</g>
<defs>
<clipPath id="clip0_2585_9414">
<rect width="24" height="24" fill="white"/>
</clipPath>
</defs>
</svg>
