<svg width="24" height="24" viewBox="0 0 24 24" fill="none" xmlns="http://www.w3.org/2000/svg">
<g id="Group 1261157219">
<g id="Group 1261156069">
<circle id="Ellipse 266" cx="12" cy="12" r="12" fill="white"/>
</g>
<g id="Group 1261156070">
<g id="Group 1000009213">
<path id="Vector" d="M12.375 17.5312C11.0075 17.5312 9.69597 16.988 8.72898 16.021C7.762 15.054 7.21875 13.7425 7.21875 12.375C7.21875 11.0075 7.762 9.69596 8.72898 8.72898C9.69597 7.762 11.0075 7.21875 12.375 7.21875V3C10.5208 3 8.70824 3.54983 7.16653 4.57997C5.62482 5.61011 4.4232 7.07429 3.71363 8.78734C3.00406 10.5004 2.81841 12.3854 3.18014 14.204C3.54188 16.0225 4.43476 17.693 5.74587 19.0041C7.05699 20.3152 8.72746 21.2081 10.546 21.5699C12.3646 21.9316 14.2496 21.7459 15.9627 21.0364C17.6757 20.3268 19.1399 19.1252 20.17 17.5835C21.2002 16.0418 21.75 14.2292 21.75 12.375H17.5313C17.5313 13.7425 16.988 15.054 16.021 16.021C15.054 16.988 13.7425 17.5312 12.375 17.5312Z" fill="#2354E6"/>
<path id="Vector_2" d="M17.5312 7.21875H12.375V12.375H17.5312V7.21875Z" fill="#17E6A1"/>
</g>
</g>
</g>
</svg>
