<svg width="16" height="16" viewBox="0 0 16 16" fill="none" xmlns="http://www.w3.org/2000/svg">
<circle cx="8" cy="8" r="8" fill="black"/>
<path d="M8 0C3.57875 0 0 3.57875 0 8C0 12.4212 3.57875 16 8 16C12.4212 16 16 12.4212 16 8C16 3.57875 12.4212 0 8 0ZM7.65704 3.23579C7.88071 3.12395 8.11184 3.13141 8.32805 3.25815C9.07362 3.68313 9.8192 4.11556 10.5648 4.548C10.8034 4.68966 10.9226 4.91333 10.9226 5.18919C10.9301 6.15843 10.9226 7.12022 10.9226 8.08947C10.9226 8.12675 10.9003 8.17894 10.8705 8.19385C10.5871 8.36533 10.2889 8.52936 9.97577 8.71575C9.97577 8.6561 9.97577 8.61137 9.97577 8.56663C9.97577 7.57502 9.97577 6.57596 9.97577 5.58434C9.97577 5.39049 9.90867 5.2712 9.74464 5.17428C8.87978 4.6822 8.01491 4.18267 7.15005 3.68313C7.11277 3.66076 7.07549 3.6384 7.01585 3.60112C7.24697 3.45946 7.44082 3.34017 7.65704 3.23579ZM7.49301 13.1221C7.44082 13.0997 7.411 13.0774 7.37372 13.0624C6.23299 12.4063 5.08481 11.7353 3.93662 11.0867C3.61603 10.9003 3.46692 10.6393 3.47437 10.274C3.48183 9.49115 3.48183 8.70829 3.47437 7.92544C3.47437 7.57502 3.61603 7.31407 3.92917 7.14259C4.73439 6.68034 5.53961 6.21808 6.33737 5.75582C6.40447 5.71855 6.45667 5.71109 6.53122 5.75582C6.80708 5.91985 7.0904 6.08388 7.38117 6.2479C7.32153 6.28518 7.28425 6.30755 7.23952 6.32991C6.37465 6.82945 5.50233 7.33644 4.63747 7.82852C4.49581 7.91053 4.42871 8.01491 4.42871 8.17894C4.43616 8.79777 4.43616 9.40913 4.42871 10.028C4.42871 10.1994 4.49581 10.3038 4.63747 10.3858C5.55452 10.9077 6.47158 11.4445 7.38863 11.9665C7.46319 12.0112 7.50047 12.0559 7.50047 12.1528C7.49301 12.4734 7.49301 12.7866 7.49301 13.1221ZM7.49301 11.3625C7.411 11.3178 7.35881 11.288 7.29916 11.2507C6.5685 10.8332 5.8453 10.4082 5.11463 9.99068C5.03262 9.94595 5.0028 9.90121 5.01025 9.80429C5.01771 9.33458 5.01025 8.85741 5.01025 8.3877C5.01025 8.3206 5.01771 8.27586 5.08481 8.24604C5.35322 8.09692 5.62162 7.94035 5.88257 7.78378C5.90494 7.76887 5.91985 7.76142 5.95713 7.7465C5.95713 7.9329 5.95713 8.10438 5.95713 8.27586C5.95713 8.56664 5.96459 8.84995 5.95713 9.14073C5.95713 9.30475 6.01678 9.41659 6.15844 9.4986C6.5685 9.72973 6.97857 9.97577 7.38863 10.2069C7.47064 10.2516 7.49301 10.3038 7.49301 10.3933C7.49301 10.7064 7.49301 11.0196 7.49301 11.3625ZM6.65797 5.14446C6.5014 5.05499 6.37465 5.05499 6.21808 5.14446C5.35322 5.65145 4.48835 6.15098 3.61603 6.65051C3.57875 6.67288 3.54147 6.68779 3.47437 6.72507C3.49674 6.39702 3.42964 6.08388 3.54147 5.78565C3.60112 5.62162 3.72041 5.49487 3.86953 5.41286C4.59273 4.99534 5.31594 4.57782 6.03914 4.1603C6.30009 4.01118 6.57596 4.01118 6.83691 4.16775C7.65704 4.64492 8.48462 5.11463 9.30475 5.5918C9.34203 5.61417 9.38677 5.6589 9.38677 5.68872C9.39422 6.02423 9.38677 6.36719 9.38677 6.73253C9.08854 6.56104 8.81267 6.39702 8.53681 6.24045C7.91053 5.87512 7.28425 5.51724 6.65797 5.14446ZM12.4436 10.4678C12.4212 10.7363 12.2647 10.9226 12.0336 11.0569C11.1538 11.5638 10.2665 12.0708 9.38677 12.5853C9.1109 12.7418 8.83504 12.9059 8.55918 13.0624C8.5219 13.0848 8.49208 13.0997 8.44734 13.1221C8.44734 13.0774 8.43989 13.0401 8.43989 13.0103C8.43989 12.7195 8.43989 12.4287 8.43989 12.1305C8.43989 12.0634 8.4548 12.0261 8.51445 11.9888C9.79683 11.2507 11.0867 10.5051 12.3691 9.76701C12.3914 9.7521 12.4063 9.74464 12.4436 9.72973C12.4511 9.99068 12.466 10.2293 12.4436 10.4678ZM12.4511 8.63374C12.4511 8.93942 12.287 9.14818 12.0261 9.2973C11.0196 9.87885 10.013 10.4529 9.01398 11.0345C8.82759 11.1389 8.64865 11.2432 8.44734 11.3551C8.44734 11.3029 8.43989 11.2731 8.43989 11.2358C8.43989 10.945 8.43989 10.6617 8.43989 10.3709C8.43989 10.2889 8.46225 10.2442 8.53681 10.2069C9.44641 9.68499 10.3635 9.15564 11.2731 8.63374C11.4371 8.54427 11.5042 8.42498 11.5042 8.23858C11.4967 7.24697 11.5042 6.2479 11.5042 5.25629C11.5042 5.21156 11.5042 5.15937 11.5042 5.08481C11.7428 5.22647 11.9664 5.34576 12.1678 5.49487C12.3541 5.62908 12.4511 5.83038 12.4511 6.05406C12.4585 6.91147 12.4585 7.76887 12.4511 8.63374Z" fill="white"/>
</svg>
