<svg width="23" height="24" viewBox="0 0 23 24" fill="none" xmlns="http://www.w3.org/2000/svg">
<g id="Group 1000009204">
<path id="Vector" d="M6.93492 11.9955L14.0573 19.1179L18.5467 14.6285C19.3321 13.8252 20.6352 13.8252 21.4117 14.6285C22.2149 15.4139 22.2149 16.717 21.4117 17.4935L15.4942 23.4109C14.691 24.1964 13.4057 24.1964 12.6114 23.4109L4.06991 14.8695V19.939C4.06991 21.0547 3.16846 21.974 2.03496 21.974C0.9193 21.974 0 21.0725 0 19.939V4.04314C0 2.92748 0.901449 2.00818 2.03496 2.00818C3.15061 2.00818 4.06991 2.90963 4.06991 4.04314V9.13053L12.6114 0.589067C13.4147 -0.196356 14.6999 -0.196356 15.4942 0.589067L21.4117 6.50651C22.1971 7.30978 22.1971 8.59502 21.4117 9.37151C20.6084 10.1569 19.3232 10.1569 18.5467 9.37151L14.0573 4.88211L6.93492 11.9955ZM14.0573 9.96058C12.9238 9.96058 12.0045 10.862 12.0045 11.9955C12.0045 13.129 12.9059 14.0483 14.0394 14.0483C15.1729 14.0483 16.0922 13.1469 16.0922 12.0134V11.9955C16.0744 10.8799 15.1729 9.97843 14.0573 9.96058Z" fill="#28CD96"/>
</g>
</svg>
