<svg width="16" height="16" viewBox="0 0 16 16" fill="none" xmlns="http://www.w3.org/2000/svg">
<g id="bnb-bnb-logo 1" clip-path="url(#clip0_26_218)">
<g id="Group">
<path id="Vector" fill-rule="evenodd" clip-rule="evenodd" d="M8 0C12.4186 0 16 3.58141 16 8C16 12.4186 12.4186 16 8 16C3.58141 16 0 12.4186 0 8C0 3.58141 3.58141 0 8 0Z" fill="#F0B90B"/>
<path id="Vector_2" d="M4.39689 8.00009L4.40266 10.1155L6.2001 11.1732V12.4116L3.35074 10.7405V7.3815L4.39689 8.00009ZM4.39689 5.8847V7.11739L3.3501 6.49816V5.26547L4.39689 4.64624L5.44882 5.26547L4.39689 5.8847ZM6.95074 5.26547L7.99753 4.64624L9.04946 5.26547L7.99753 5.8847L6.95074 5.26547Z" fill="white"/>
<path id="Vector_3" d="M5.15332 9.67701V8.43855L6.20012 9.05778V10.2905L5.15332 9.67701ZM6.95076 11.6168L7.99755 12.236L9.04947 11.6168V12.8494L7.99755 13.4687L6.95076 12.8494V11.6168ZM10.5508 5.26547L11.5976 4.64624L12.6495 5.26547V6.49816L11.5976 7.11739V5.8847L10.5508 5.26547ZM11.5976 10.1155L11.6033 8.00009L12.6501 7.38086V10.7398L9.80076 12.411V11.1725L11.5976 10.1155Z" fill="white"/>
<path id="Vector_4" d="M10.8466 9.67694L9.7998 10.2904V9.05771L10.8466 8.43848V9.67694Z" fill="white"/>
<path id="Vector_5" d="M10.8469 6.32316L10.8527 7.56162L9.05012 8.61931V10.7398L8.00332 11.3533L6.95652 10.7398V8.61931L5.15396 7.56162V6.32316L6.20524 5.70393L7.99691 6.76675L9.79947 5.70393L10.8514 6.32316H10.8469ZM5.15332 4.20842L7.99755 2.53149L10.8469 4.20842L9.80012 4.82765L7.99755 3.76483L6.20012 4.82765L5.15332 4.20842Z" fill="white"/>
</g>
</g>
<defs>
<clipPath id="clip0_26_218">
<rect width="16" height="16" fill="white"/>
</clipPath>
</defs>
</svg>
