<svg width="48" height="48" viewBox="0 0 48 48" fill="none" xmlns="http://www.w3.org/2000/svg">
<circle cx="24" cy="24" r="24" fill="url(#paint0_linear_23_694)"/>
<path d="M9.1632 24.0893L18.7616 31.2235C18.7768 31.2235 18.7768 31.2386 18.792 31.2386L22.3515 33.8742C22.6557 34.1014 23.0817 33.8894 23.0817 33.5107L23.0969 13.8651C23.0664 13.5167 23.0208 13.1532 22.9448 12.8048C22.8687 12.4716 22.7622 12.1535 22.6101 11.8809C22.8687 13.8045 21.7735 16.0463 19.9177 17.5155C19.507 17.8488 18.9441 18.2123 18.3205 18.4698C17.6512 18.7576 15.6281 19.4543 15.6281 19.4543L9.52827 21.6506C8.47868 22.0293 8.26572 23.4228 9.1632 24.0893Z" fill="white"/>
<path d="M18.6859 18.3029C18.7011 18.2877 18.7315 18.2877 18.7468 18.2726C18.7772 18.2574 18.8076 18.2423 18.8532 18.212C18.8989 18.1968 18.9293 18.1666 18.9749 18.1514C18.9901 18.1363 19.0206 18.1211 19.0358 18.1211C19.0814 18.0908 19.1423 18.0605 19.1879 18.0302C19.2031 18.0151 19.2183 18.0151 19.2335 17.9999C19.2792 17.9696 19.3248 17.9394 19.3856 17.9091C19.4161 17.8939 19.4313 17.8788 19.4617 17.8636C19.4921 17.8333 19.5378 17.8182 19.5682 17.7879C19.6138 17.7576 19.6594 17.7121 19.7203 17.6819C19.7355 17.6819 19.7355 17.6667 19.7507 17.6667C19.8116 17.6213 19.8724 17.5758 19.9333 17.5304C21.789 16.0611 22.8843 13.8194 22.6257 11.8957C22.5192 11.714 22.3823 11.5473 22.2302 11.4262L19.0662 9.09354C18.762 8.86633 18.3208 9.07839 18.3208 9.45706V14.9554C18.3208 18.4089 15.6284 19.454 15.6284 19.454C15.6284 19.454 17.6668 18.7724 18.3208 18.4846C18.4425 18.4241 18.5642 18.3635 18.6859 18.3029Z" fill="#F2EEFF"/>
<path d="M38.6348 23.7107L29.0303 16.5765C29.0151 16.5765 29.0151 16.5614 28.9999 16.5614L25.4381 13.9258C25.1337 13.6986 24.7075 13.9107 24.7075 14.2893V33.9349C24.738 34.2833 24.7836 34.6468 24.8597 34.9952C24.9358 35.3284 25.0424 35.6465 25.1946 35.9191C24.9358 33.9955 26.0318 31.7537 27.8887 30.2845C28.2997 29.9512 28.8629 29.5877 29.487 29.3302C30.1415 29.0424 32.1811 28.3608 32.1811 28.3608L38.2848 26.1645C39.335 25.7707 39.5329 24.3772 38.6348 23.7107Z" fill="white"/>
<path d="M29.122 29.4971C29.1067 29.5123 29.0763 29.5123 29.0611 29.5274C29.0306 29.5426 29.0002 29.5577 28.9545 29.588C28.9089 29.6031 28.8784 29.6334 28.8328 29.6486C28.8175 29.6637 28.7871 29.6789 28.7719 29.6789C28.7262 29.7092 28.6653 29.7395 28.6197 29.7698C28.6044 29.7849 28.5892 29.7849 28.574 29.8001C28.5283 29.8303 28.4827 29.8606 28.4218 29.8909C28.3913 29.9061 28.3761 29.9212 28.3457 29.9364C28.3152 29.9667 28.2696 29.9818 28.2391 30.0121C28.1935 30.0424 28.1478 30.0878 28.0869 30.1181C28.0717 30.1181 28.0717 30.1333 28.0565 30.1333C27.9956 30.1787 27.9347 30.2242 27.8738 30.2696C26.0169 31.7389 24.9209 33.9806 25.1797 35.9043C25.2862 36.086 25.4232 36.2526 25.5754 36.3738L28.7262 38.7064C29.0306 38.9336 29.472 38.7216 29.472 38.3429V32.8446C29.472 29.4062 32.1662 28.3459 32.1662 28.3459C32.1662 28.3459 30.1266 29.0276 29.472 29.3153C29.3655 29.3759 29.2437 29.4365 29.122 29.4971Z" fill="#F2EEFF"/>
<defs>
<linearGradient id="paint0_linear_23_694" x1="24" y1="0" x2="24" y2="48" gradientUnits="userSpaceOnUse">
<stop stop-color="#7770E0"/>
<stop offset="1" stop-color="#554FD8"/>
</linearGradient>
</defs>
</svg>
