<svg width="48" height="48" viewBox="0 0 48 48" fill="none" xmlns="http://www.w3.org/2000/svg">
<path d="M24 48C37.2548 48 48 37.2548 48 24C48 10.7452 37.2548 0 24 0C10.7452 0 0 10.7452 0 24C0 37.2548 10.7452 48 24 48Z" fill="url(#paint0_linear_23_706)"/>
<path d="M37.645 15.946H31.5326C30.454 15.946 29.7528 17.0786 30.2382 18.0314L32.863 23.3348C33.0607 23.7483 33.0607 24.2157 32.863 24.6292L30.2382 29.9326C29.7528 30.9034 30.4719 32.018 31.5326 32.018H37.645C38.1663 32.018 38.6337 31.7483 38.9034 31.2989L42.7146 24.7011C42.9663 24.2517 42.9663 23.6944 42.7146 23.2449L38.9034 16.6472C38.6517 16.2337 38.1663 15.946 37.645 15.946Z" fill="url(#paint1_linear_23_706)"/>
<path d="M12.5485 32.0538H18.0137C19.3081 32.0538 20.153 30.6876 19.5777 29.537L17.2227 24.7909C16.989 24.3055 16.989 23.7302 17.2227 23.2449L19.5777 18.4988C20.153 17.3302 19.3081 15.9819 18.0137 15.9819H12.5485C11.9193 15.9819 11.344 16.3235 11.0384 16.8628L7.40695 23.155C7.10133 23.6943 7.10133 24.3595 7.40695 24.8988L11.0384 31.1909C11.344 31.7123 11.9193 32.0538 12.5485 32.0538Z" fill="url(#paint2_linear_23_706)"/>
<path d="M28.7822 38.7775H14.7417C13.8069 38.7775 12.944 38.2741 12.4765 37.4651L5.46531 25.3123C4.99789 24.5033 4.99789 23.4966 5.46531 22.6876L12.4765 10.5348C12.944 9.72578 13.8069 9.22241 14.7417 9.22241H28.7822C29.717 9.22241 30.5799 9.72578 31.0473 10.5348L38.0586 22.6876C38.526 23.4966 38.526 24.5033 38.0586 25.3123L31.0473 37.4651C30.5799 38.2741 29.717 38.7775 28.7822 38.7775ZM15.7844 36.9617H27.7215C28.6563 36.9617 29.5192 36.4584 29.9867 35.6494L35.9552 25.3123C36.4226 24.5033 36.4226 23.4966 35.9552 22.6876L29.9867 12.3505C29.5192 11.5415 28.6563 11.0381 27.7215 11.0381H15.7844C14.8496 11.0381 13.9867 11.5415 13.5192 12.3505L7.5507 22.6876C7.08329 23.4966 7.08329 24.5033 7.5507 25.3123L13.5192 35.6494C13.9867 36.4584 14.8496 36.9617 15.7844 36.9617Z" fill="url(#paint3_linear_23_706)"/>
<defs>
<linearGradient id="paint0_linear_23_706" x1="24" y1="0" x2="24" y2="48" gradientUnits="userSpaceOnUse">
<stop stop-color="#CCFA82"/>
<stop offset="1" stop-color="#0DB4C8"/>
</linearGradient>
<linearGradient id="paint1_linear_23_706" x1="30.0764" y1="23.9999" x2="42.9066" y2="23.9999" gradientUnits="userSpaceOnUse">
<stop stop-color="white" stop-opacity="0.1"/>
<stop offset="1" stop-color="white"/>
</linearGradient>
<linearGradient id="paint2_linear_23_706" x1="7.16285" y1="23.9998" x2="19.7675" y2="23.9998" gradientUnits="userSpaceOnUse">
<stop stop-color="white" stop-opacity="0.1"/>
<stop offset="1" stop-color="white"/>
</linearGradient>
<linearGradient id="paint3_linear_23_706" x1="10.1801" y1="40.9589" x2="29.356" y2="12.8663" gradientUnits="userSpaceOnUse">
<stop stop-color="white" stop-opacity="0.1"/>
<stop offset="1" stop-color="white"/>
</linearGradient>
</defs>
</svg>
