<svg width="75" height="75" viewBox="0 0 75 75" fill="none" xmlns="http://www.w3.org/2000/svg">
<path d="M37.5011 3.40779C18.6728 3.40779 3.4095 18.6711 3.4095 37.4994C3.40949 56.3277 18.6728 71.5911 37.5011 71.5911C56.3294 71.5911 71.5928 56.3277 71.5928 37.4994C71.5928 18.6711 56.3294 3.40779 37.5011 3.40779Z" fill="url(#paint0_linear_2851_1351)"/>
<path d="M37.5018 61.7977C50.921 61.7977 61.7994 50.9193 61.7994 37.5C61.7994 24.0808 50.921 13.2024 37.5018 13.2024C24.0825 13.2024 13.2041 24.0808 13.2041 37.5C13.2041 50.9193 24.0825 61.7977 37.5018 61.7977Z" fill="url(#paint1_linear_2851_1351)"/>
<path d="M37.5 74C57.6584 74 74 57.6584 74 37.5C74 17.3416 57.6584 1 37.5 1C17.3416 1 1 17.3416 1 37.5C1 57.6584 17.3416 74 37.5 74Z" stroke="url(#paint2_linear_2851_1351)" stroke-width="1.0529" stroke-miterlimit="10"/>
<path d="M13.2138 25.662C13.6298 23.7033 14.5051 22.204 15.8398 21.164C17.1744 20.1067 18.8558 19.578 20.8838 19.578C22.6518 19.578 24.0038 19.9767 24.9398 20.774C25.8758 21.554 26.3438 22.5767 26.3438 23.842C26.3438 24.1367 26.3178 24.4573 26.2658 24.804C26.0578 25.9827 25.6071 26.9273 24.9138 27.638C24.2204 28.3313 23.4838 28.7993 22.7038 29.042V29.146C24.3331 29.7873 25.1478 30.94 25.1478 32.604C25.1478 32.7947 25.1131 33.1327 25.0438 33.618C24.8531 34.71 24.4284 35.672 23.7698 36.504C23.1284 37.336 22.2878 37.986 21.2478 38.454C20.2078 38.922 19.0378 39.156 17.7378 39.156C15.8311 39.156 14.3404 38.7487 13.2658 37.934C12.1911 37.1193 11.6538 35.8627 11.6538 34.164C11.6538 33.6613 11.6884 33.1933 11.7578 32.76H16.7238C16.6718 32.9853 16.6458 33.2107 16.6458 33.436C16.6458 34.4413 17.1831 34.944 18.2578 34.944C18.8124 34.944 19.2804 34.736 19.6618 34.32C20.0431 33.904 20.2338 33.384 20.2338 32.76C20.2338 32.2573 20.0344 31.8933 19.6358 31.668C19.2544 31.4253 18.6391 31.304 17.7898 31.304H16.9058L17.6598 27.17H18.5178C19.1764 27.1873 19.7571 27.0833 20.2598 26.858C20.7624 26.6153 21.0744 26.1387 21.1958 25.428C21.2131 25.324 21.2218 25.1853 21.2218 25.012C21.2218 24.6133 21.1178 24.3187 20.9098 24.128C20.7018 23.92 20.4071 23.816 20.0258 23.816C19.5058 23.816 19.0984 23.998 18.8038 24.362C18.5091 24.7087 18.3098 25.142 18.2058 25.662H13.2138ZM42.9149 24.492H35.0889L34.5689 27.378C34.9849 27.0313 35.4963 26.754 36.1029 26.546C36.7096 26.338 37.3509 26.234 38.0269 26.234C39.5869 26.234 40.7483 26.676 41.5109 27.56C42.2736 28.4267 42.6549 29.5533 42.6549 30.94C42.6549 31.3733 42.6116 31.8673 42.5249 32.422C42.1609 34.4673 41.2943 36.0793 39.9249 37.258C38.5556 38.4193 36.8396 39 34.7769 39C32.8529 39 31.3623 38.5667 30.3049 37.7C29.2649 36.8333 28.7449 35.6633 28.7449 34.19C28.7449 33.8607 28.7709 33.514 28.8229 33.15H33.8149C33.7803 33.5487 33.8843 33.8953 34.1269 34.19C34.3869 34.4847 34.7943 34.632 35.3489 34.632C35.9729 34.632 36.4756 34.424 36.8569 34.008C37.2383 33.592 37.4896 33.0373 37.6109 32.344C37.6456 32.0667 37.6629 31.876 37.6629 31.772C37.6629 31.2867 37.5243 30.914 37.2469 30.654C36.9696 30.394 36.5709 30.264 36.0509 30.264C35.5829 30.264 35.1843 30.3853 34.8549 30.628C34.5256 30.8533 34.3003 31.1393 34.1789 31.486H29.2389L31.2669 19.994H43.6949L42.9149 24.492ZM45.652 24.882C45.912 23.426 46.5274 22.308 47.498 21.528C48.486 20.748 49.6474 20.358 50.982 20.358C52.1434 20.358 53.062 20.6527 53.738 21.242C54.4314 21.8313 54.778 22.6807 54.778 23.79C54.778 24.1713 54.7434 24.5353 54.674 24.882C54.414 26.338 53.7987 27.456 52.828 28.236C51.8747 29.016 50.7307 29.406 49.396 29.406C48.2347 29.406 47.2987 29.1113 46.588 28.522C45.8947 27.9153 45.548 27.0487 45.548 25.922C45.548 25.714 45.5827 25.3673 45.652 24.882ZM64.268 20.618L51.164 39H46.276L59.38 20.618H64.268ZM50.436 23.322C49.7427 23.322 49.292 23.842 49.084 24.882C49.0494 25.1593 49.032 25.3413 49.032 25.428C49.032 26.0867 49.3094 26.416 49.864 26.416C50.228 26.416 50.5314 26.286 50.774 26.026C51.0167 25.766 51.1814 25.3847 51.268 24.882C51.3027 24.7433 51.32 24.5527 51.32 24.31C51.32 23.6513 51.0254 23.322 50.436 23.322ZM55.87 34.71C56.13 33.254 56.7454 32.136 57.716 31.356C58.6867 30.576 59.8394 30.186 61.174 30.186C62.3354 30.186 63.254 30.4807 63.93 31.07C64.6234 31.6593 64.97 32.5173 64.97 33.644C64.97 33.8693 64.9354 34.2247 64.866 34.71C64.606 36.166 63.9907 37.2927 63.02 38.09C62.0667 38.87 60.9227 39.26 59.588 39.26C58.4267 39.26 57.4994 38.9653 56.806 38.376C56.1127 37.7693 55.766 36.894 55.766 35.75C55.766 35.542 55.8007 35.1953 55.87 34.71ZM60.628 33.176C59.9 33.176 59.4494 33.6873 59.276 34.71C59.2414 34.8487 59.224 35.0393 59.224 35.282C59.224 35.9407 59.51 36.27 60.082 36.27C60.7927 36.27 61.252 35.75 61.46 34.71C61.4947 34.4673 61.512 34.294 61.512 34.19C61.512 33.8607 61.434 33.6093 61.278 33.436C61.122 33.2627 60.9054 33.176 60.628 33.176ZM32.2135 55.62H29.2135L28.7575 57H26.2855L29.3695 48.54H32.0815L35.1535 57H32.6695L32.2135 55.62ZM31.6255 53.82L30.7135 51.084L29.8135 53.82H31.6255ZM42.604 51.36C42.604 51.872 42.484 52.34 42.244 52.764C42.012 53.18 41.656 53.516 41.176 53.772C40.704 54.02 40.124 54.144 39.436 54.144H38.272V57H35.92V48.54H39.436C40.116 48.54 40.692 48.66 41.164 48.9C41.644 49.14 42.004 49.472 42.244 49.896C42.484 50.32 42.604 50.808 42.604 51.36ZM39.208 52.272C39.872 52.272 40.204 51.968 40.204 51.36C40.204 50.744 39.872 50.436 39.208 50.436H38.272V52.272H39.208ZM47.833 57L46.153 53.88H45.901V57H43.549V48.54H47.257C47.937 48.54 48.513 48.66 48.985 48.9C49.457 49.132 49.813 49.456 50.053 49.872C50.293 50.28 50.413 50.74 50.413 51.252C50.413 51.828 50.253 52.336 49.933 52.776C49.621 53.208 49.161 53.516 48.553 53.7L50.461 57H47.833ZM45.901 52.272H47.065C47.385 52.272 47.625 52.196 47.785 52.044C47.945 51.892 48.025 51.672 48.025 51.384C48.025 51.112 47.941 50.9 47.773 50.748C47.613 50.588 47.377 50.508 47.065 50.508H45.901V52.272Z" fill="white"/>
<defs>
<linearGradient id="paint0_linear_2851_1351" x1="37.4902" y1="3.39388" x2="37.4902" y2="71.6017" gradientUnits="userSpaceOnUse">
<stop stop-color="#AF81FF"/>
<stop offset="0.4722" stop-color="#AF81FF" stop-opacity="0.5"/>
<stop offset="1" stop-color="#AF81FF" stop-opacity="0"/>
</linearGradient>
<linearGradient id="paint1_linear_2851_1351" x1="37.5127" y1="61.7883" x2="37.5127" y2="13.2151" gradientUnits="userSpaceOnUse">
<stop stop-color="#AF81FF" stop-opacity="0"/>
<stop offset="0.4722" stop-color="#AF81FF" stop-opacity="0.5"/>
<stop offset="1" stop-color="#AF81FF"/>
</linearGradient>
<linearGradient id="paint2_linear_2851_1351" x1="37.5109" y1="74.1432" x2="37.5109" y2="0.860128" gradientUnits="userSpaceOnUse">
<stop stop-color="#AF81FF" stop-opacity="0"/>
<stop offset="0.4722" stop-color="#AF81FF" stop-opacity="0.5"/>
<stop offset="1" stop-color="#AF81FF"/>
</linearGradient>
</defs>
</svg>
