<svg width="16" height="16" viewBox="0 0 16 16" fill="none" xmlns="http://www.w3.org/2000/svg">
<g clip-path="url(#clip0_581_828)">
<mask id="mask0_581_828" style="mask-type:luminance" maskUnits="userSpaceOnUse" x="0" y="0" width="16" height="16">
<path d="M8 16C3.58144 16 0 12.4186 0 8C0 3.58144 3.58144 0 8 0C12.4186 0 16 3.58144 16 8C16 12.4186 12.4186 16 8 16Z" fill="white"/>
</mask>
<g mask="url(#mask0_581_828)">
<path fill-rule="evenodd" clip-rule="evenodd" d="M8.0027 8.00004L-3.3125 7.93028L-3.30226 7.51428L8.0027 8.00004Z" fill="#FEFEFF"/>
<path fill-rule="evenodd" clip-rule="evenodd" d="M8.00219 7.99997L-3.30469 7.58333L-3.28741 7.23645L8.00219 7.99997Z" fill="#FDFEFF"/>
<path fill-rule="evenodd" clip-rule="evenodd" d="M8.00438 7.99996L-3.28906 7.3062L-3.26346 6.95996L8.00438 7.99996Z" fill="#FCFDFF"/>
<path fill-rule="evenodd" clip-rule="evenodd" d="M7.99952 8.00007L-3.27344 7.02919L-3.23952 6.68359L7.99952 8.00007Z" fill="#FBFCFF"/>
<path fill-rule="evenodd" clip-rule="evenodd" d="M8.00325 8.00001L-3.24219 6.75265L-3.19995 6.40833L8.00325 8.00001Z" fill="#FAFCFF"/>
<path fill-rule="evenodd" clip-rule="evenodd" d="M8.00058 8.00003L-3.21094 6.47747L-3.16038 6.13379L8.00058 8.00003Z" fill="#F9FBFF"/>
<path fill-rule="evenodd" clip-rule="evenodd" d="M8.0065 7.99999L-3.16406 6.20223L-3.10518 5.86047L8.0065 7.99999Z" fill="#F8FAFF"/>
<path fill-rule="evenodd" clip-rule="evenodd" d="M8.00601 8.00002L-3.11719 5.92898L-3.04999 5.5885L8.00601 8.00002Z" fill="#F7FAFF"/>
<path fill-rule="evenodd" clip-rule="evenodd" d="M7.99913 7.99999L-3.07031 5.65695L-2.99415 5.31775L7.99913 7.99999Z" fill="#F6F9FF"/>
<path fill-rule="evenodd" clip-rule="evenodd" d="M8.00083 7.99999L-3.00781 5.38559L-2.92333 5.04895L8.00083 7.99999Z" fill="#F5F8FF"/>
<path fill-rule="evenodd" clip-rule="evenodd" d="M8.0033 8.00005L-2.9375 5.11621L-2.84534 4.78149L8.0033 8.00005Z" fill="#F4F8FF"/>
<path fill-rule="evenodd" clip-rule="evenodd" d="M8.00001 8L-2.86719 4.84864L-2.76607 4.51648L8.00001 8Z" fill="#F3F7FF"/>
<path fill-rule="evenodd" clip-rule="evenodd" d="M8.00531 7.99998L-2.78125 4.58302L-2.67181 4.25342L8.00531 7.99998Z" fill="#F2F6FF"/>
<path fill-rule="evenodd" clip-rule="evenodd" d="M8.00421 7.99999L-2.69531 4.31935L-2.57819 3.99231L8.00421 7.99999Z" fill="#F1F6FF"/>
<path fill-rule="evenodd" clip-rule="evenodd" d="M8.00388 8L-2.60156 4.0576L-2.47676 3.73376L8.00388 8Z" fill="#F0F5FF"/>
<path fill-rule="evenodd" clip-rule="evenodd" d="M8.0056 8.00002L-2.5 3.79842L-2.36752 3.47778L8.0056 8.00002Z" fill="#EFF4FF"/>
<path fill-rule="evenodd" clip-rule="evenodd" d="M8.00092 8.00002L-2.39844 3.54178L-2.25764 3.22498L8.00092 8.00002Z" fill="#EEF3FF"/>
<path fill-rule="evenodd" clip-rule="evenodd" d="M8.00547 8.00001L-2.28125 3.28833L-2.13277 2.97473L8.00547 8.00001Z" fill="#EDF3FF"/>
<path fill-rule="evenodd" clip-rule="evenodd" d="M8.00426 8.00001L-2.16406 3.03745L-2.0079 2.72705L8.00426 8.00001Z" fill="#ECF2FF"/>
<path fill-rule="evenodd" clip-rule="evenodd" d="M8.00446 7.99995L-2.03906 2.78907L-1.87522 2.48315L8.00446 7.99995Z" fill="#EBF1FF"/>
<path fill-rule="evenodd" clip-rule="evenodd" d="M8.00607 8.00002L-1.90625 2.54466L-1.73537 2.24194L8.00607 8.00002Z" fill="#EAF1FF"/>
<path fill-rule="evenodd" clip-rule="evenodd" d="M8.00192 8.00001L-1.77344 2.30273L-1.59488 2.00513L8.00192 8.00001Z" fill="#E9F0FF"/>
<path fill-rule="evenodd" clip-rule="evenodd" d="M7.99983 7.99999L-1.63281 2.06463L-1.44721 1.77087L7.99983 7.99999Z" fill="#E8EFFF"/>
<path fill-rule="evenodd" clip-rule="evenodd" d="M7.99979 8.00002L-1.48438 1.82978L-1.2911 1.54114L7.99979 8.00002Z" fill="#E7EFFF"/>
<path fill-rule="evenodd" clip-rule="evenodd" d="M8.00179 7.99999L-1.32812 1.59871L-1.12845 1.31519L8.00179 7.99999Z" fill="#E6EEFF"/>
<path fill-rule="evenodd" clip-rule="evenodd" d="M8.00586 8.00002L-1.16406 1.37218L-0.957342 1.09314L8.00586 8.00002Z" fill="#E5EDFF"/>
<path fill-rule="evenodd" clip-rule="evenodd" d="M8.0048 8L-1 1.1488L-0.78624 0.874878L8.0048 8Z" fill="#E4EDFF"/>
<path fill-rule="evenodd" clip-rule="evenodd" d="M8.0058 7.99998L-0.828125 0.929903L-0.607965 0.661743L8.0058 7.99998Z" fill="#E3ECFF"/>
<path fill-rule="evenodd" clip-rule="evenodd" d="M8.00103 8.00003L-0.65625 0.715555L-0.42969 0.452515L8.00103 8.00003Z" fill="#E2EBFF"/>
<path fill-rule="evenodd" clip-rule="evenodd" d="M7.9996 8L-0.476562 0.504961L-0.243602 0.247681L7.9996 8Z" fill="#E1EBFF"/>
<path fill-rule="evenodd" clip-rule="evenodd" d="M8.00086 7.99997L-0.289062 0.299494L-0.0497025 0.0479736L8.00086 7.99997Z" fill="#E0EAFF"/>
<path fill-rule="evenodd" clip-rule="evenodd" d="M8.00481 7.99998L-0.09375 0.0985432L0.15201 -0.147217L8.00481 7.99998Z" fill="#DFE9FF"/>
<path fill-rule="evenodd" clip-rule="evenodd" d="M8.003 8L0.101562 -0.0985603L0.352442 -0.33728L8.003 8Z" fill="#DEE9FF"/>
<path fill-rule="evenodd" clip-rule="evenodd" d="M8.00517 8.00005L0.304688 -0.289867L0.561967 -0.522827L8.00517 8.00005Z" fill="#DDE8FF"/>
<path fill-rule="evenodd" clip-rule="evenodd" d="M8.00285 7.99996L0.507812 -0.476199L0.770852 -0.702759L8.00285 7.99996Z" fill="#DCE7FF"/>
<path fill-rule="evenodd" clip-rule="evenodd" d="M8.00323 8L0.71875 -0.657281L0.98691 -0.877441L8.00323 8Z" fill="#DBE7FF"/>
<path fill-rule="evenodd" clip-rule="evenodd" d="M7.99977 8.00004L0.929688 -0.833877L1.20361 -1.047L7.99977 8.00004Z" fill="#DAE6FF"/>
<path fill-rule="evenodd" clip-rule="evenodd" d="M7.99964 7.99997L1.14844 -1.00483L1.42748 -1.21155L7.99964 7.99997Z" fill="#D9E5FF"/>
<path fill-rule="evenodd" clip-rule="evenodd" d="M8.00284 7.99997L1.375 -1.16995L1.65852 -1.36963L8.00284 7.99997Z" fill="#D8E5FF"/>
<path fill-rule="evenodd" clip-rule="evenodd" d="M8.00284 7.99998L1.60156 -1.32994L1.8902 -1.52258L8.00284 7.99998Z" fill="#D7E4FF"/>
<path fill-rule="evenodd" clip-rule="evenodd" d="M8.00618 7.99996L1.83594 -1.4842L2.1297 -1.6698L8.00618 7.99996Z" fill="#D6E3FF"/>
<path fill-rule="evenodd" clip-rule="evenodd" d="M8.00567 8.00004L2.07031 -1.6326L2.36791 -1.81116L8.00567 8.00004Z" fill="#D5E3FF"/>
<path fill-rule="evenodd" clip-rule="evenodd" d="M8.00197 8.00007L2.30469 -1.77529L2.60677 -1.94617L8.00197 8.00007Z" fill="#D4E2FF"/>
<path fill-rule="evenodd" clip-rule="evenodd" d="M8.00224 7.99999L2.54688 -1.91233L2.85279 -2.07617L8.00224 7.99999Z" fill="#D3E1FF"/>
<path fill-rule="evenodd" clip-rule="evenodd" d="M7.99994 8.00007L2.78906 -2.04345L3.09946 -2.19897L7.99994 8.00007Z" fill="#D2E0FF"/>
<path fill-rule="evenodd" clip-rule="evenodd" d="M8.00162 8L3.03906 -2.16832L3.35266 -2.31616L8.00162 8Z" fill="#D1E0FF"/>
<path fill-rule="evenodd" clip-rule="evenodd" d="M8.00074 8.00003L3.28906 -2.28669L3.6065 -2.42749L8.00074 8.00003Z" fill="#D0DFFF"/>
<path fill-rule="evenodd" clip-rule="evenodd" d="M8.00512 8.00001L3.54688 -2.39935L3.86815 -2.53247L8.00512 8.00001Z" fill="#CFDEFF"/>
<path fill-rule="evenodd" clip-rule="evenodd" d="M8.00629 8.00003L3.80469 -2.50557L4.12917 -2.63037L8.00629 8.00003Z" fill="#CEDEFF"/>
<path fill-rule="evenodd" clip-rule="evenodd" d="M8.0049 8.00003L4.0625 -2.60541L4.38954 -2.72253L8.0049 8.00003Z" fill="#CDDDFF"/>
<path fill-rule="evenodd" clip-rule="evenodd" d="M8.00095 8.00006L4.32031 -2.69946L4.64991 -2.80762L8.00095 8.00006Z" fill="#CCDCFF"/>
<path fill-rule="evenodd" clip-rule="evenodd" d="M8.0029 7.99995L4.58594 -2.7866L4.9181 -2.88708L8.0029 7.99995Z" fill="#CBDCFF"/>
<path fill-rule="evenodd" clip-rule="evenodd" d="M8.00292 8.00001L4.85156 -2.86719L5.18628 -2.95935L8.00292 8.00001Z" fill="#CADBFF"/>
<path fill-rule="evenodd" clip-rule="evenodd" d="M8.00103 8.00001L5.11719 -2.94079L5.45383 -3.02527L8.00103 8.00001Z" fill="#C9DAFF"/>
<path fill-rule="evenodd" clip-rule="evenodd" d="M8.00503 8.00005L5.39062 -3.00859L5.72919 -3.08411L8.00503 8.00005Z" fill="#C8DAFF"/>
<path fill-rule="evenodd" clip-rule="evenodd" d="M7.99929 8.00004L5.65625 -3.0694L5.99609 -3.1366L7.99929 8.00004Z" fill="#C7D9FF"/>
<path fill-rule="evenodd" clip-rule="evenodd" d="M8.00073 7.99998L5.92969 -3.12322L6.27145 -3.18274L8.00073 7.99998Z" fill="#C6D8FF"/>
<path fill-rule="evenodd" clip-rule="evenodd" d="M8.00089 7.99996L6.20312 -3.1706L6.54681 -3.2218L8.00089 7.99996Z" fill="#C5D8FF"/>
<path fill-rule="evenodd" clip-rule="evenodd" d="M7.99912 7.99998L6.47656 -3.21154L6.82088 -3.25378L7.99912 7.99998Z" fill="#C4D7FF"/>
<path fill-rule="evenodd" clip-rule="evenodd" d="M8.00517 8.00006L6.75781 -3.24538L7.10341 -3.2793L8.00517 8.00006Z" fill="#C3D6FF"/>
<path fill-rule="evenodd" clip-rule="evenodd" d="M8.00213 7.99998L7.03125 -3.27298L7.37749 -3.29858L8.00213 7.99998Z" fill="#C2D6FF"/>
<path fill-rule="evenodd" clip-rule="evenodd" d="M8.00626 8.00002L7.3125 -3.29342L7.65938 -3.31006L8.00626 8.00002Z" fill="#C1D5FF"/>
<path fill-rule="evenodd" clip-rule="evenodd" d="M8.00258 8.00002L7.58594 -3.30687L7.93282 -3.31519L8.00258 8.00002Z" fill="#C0D4FF"/>
<path fill-rule="evenodd" clip-rule="evenodd" d="M8.00607 7.99996L7.86719 -3.31396H8.21407L8.00607 7.99996Z" fill="#BFD4FF"/>
<path fill-rule="evenodd" clip-rule="evenodd" d="M8 7.99996L8.13888 -3.31396L8.48576 -3.30501L8 7.99996Z" fill="#BED3FF"/>
<path fill-rule="evenodd" clip-rule="evenodd" d="M8 8L8.41664 -3.30688L8.76288 -3.2896L8 8Z" fill="#BDD2FF"/>
<path fill-rule="evenodd" clip-rule="evenodd" d="M8 7.99998L8.69376 -3.29346L9.04 -3.26786L8 7.99998Z" fill="#BCD2FF"/>
<path fill-rule="evenodd" clip-rule="evenodd" d="M8 8.00001L8.97088 -3.27295L9.31648 -3.23903L8 8.00001Z" fill="#BBD1FF"/>
<path fill-rule="evenodd" clip-rule="evenodd" d="M8 7.99996L9.24672 -3.24548L9.59168 -3.20324L8 7.99996Z" fill="#BAD0FF"/>
<path fill-rule="evenodd" clip-rule="evenodd" d="M8 7.99997L9.52256 -3.21155L9.86624 -3.16099L8 7.99997Z" fill="#B9D0FF"/>
<path fill-rule="evenodd" clip-rule="evenodd" d="M8 8.00003L9.79712 -3.17053L10.1395 -3.11165L8 8.00003Z" fill="#B8CFFF"/>
<path fill-rule="evenodd" clip-rule="evenodd" d="M8 8.00003L10.071 -3.12317L10.4115 -3.05597L8 8.00003Z" fill="#B7CEFF"/>
<path fill-rule="evenodd" clip-rule="evenodd" d="M8 7.99998L10.343 -3.06946L10.6822 -2.9933L8 7.99998Z" fill="#B6CDFF"/>
<path fill-rule="evenodd" clip-rule="evenodd" d="M8 7.99997L10.6144 -3.00867L10.951 -2.92419L8 7.99997Z" fill="#B5CDFF"/>
<path fill-rule="evenodd" clip-rule="evenodd" d="M8 8L10.8838 -2.9408L11.2179 -2.84864L8 8Z" fill="#B4CCFF"/>
<path fill-rule="evenodd" clip-rule="evenodd" d="M8 8.00001L11.1514 -2.86719L11.4835 -2.76607L8 8.00001Z" fill="#B3CBFF"/>
<path fill-rule="evenodd" clip-rule="evenodd" d="M8 8.00006L11.417 -2.7865L11.7466 -2.67706L8 8.00006Z" fill="#B2CBFF"/>
<path fill-rule="evenodd" clip-rule="evenodd" d="M8 8.00006L11.6806 -2.69946L12.0077 -2.58234L8 8.00006Z" fill="#B1CAFF"/>
<path fill-rule="evenodd" clip-rule="evenodd" d="M8 7.99997L11.9424 -2.60547L12.2662 -2.48067L8 7.99997Z" fill="#B0C9FF"/>
<path fill-rule="evenodd" clip-rule="evenodd" d="M8 7.99999L12.201 -2.50562L12.5222 -2.37314L8 7.99999Z" fill="#AFC9FF"/>
<path fill-rule="evenodd" clip-rule="evenodd" d="M8 8.00007L12.4576 -2.39929L12.775 -2.25849L8 8.00007Z" fill="#AEC8FF"/>
<path fill-rule="evenodd" clip-rule="evenodd" d="M8 7.99998L12.7117 -2.28674L13.0253 -2.13826L8 7.99998Z" fill="#ADC7FF"/>
<path fill-rule="evenodd" clip-rule="evenodd" d="M8 7.99999L12.9626 -2.16833L13.273 -2.01217L8 7.99999Z" fill="#ACC7FF"/>
<path fill-rule="evenodd" clip-rule="evenodd" d="M8 8.00006L13.2109 -2.04346L13.5168 -1.87962L8 8.00006Z" fill="#ABC6FF"/>
<path fill-rule="evenodd" clip-rule="evenodd" d="M8 7.99997L13.4554 -1.91235L13.7581 -1.74147L8 7.99997Z" fill="#AAC5FF"/>
<path fill-rule="evenodd" clip-rule="evenodd" d="M8 7.99997L13.6973 -1.77539L13.9949 -1.59683L8 7.99997Z" fill="#A9C5FF"/>
<path fill-rule="evenodd" clip-rule="evenodd" d="M8 8.00007L13.9354 -1.63257L14.2285 -1.44697L8 8.00007Z" fill="#A8C4FF"/>
<path fill-rule="evenodd" clip-rule="evenodd" d="M8 8.00003L14.1702 -1.48413L14.4589 -1.29085L8 8.00003Z" fill="#A7C3FF"/>
<path fill-rule="evenodd" clip-rule="evenodd" d="M8 7.99996L14.4013 -1.32996L14.6848 -1.13028L8 7.99996Z" fill="#A6C3FF"/>
<path fill-rule="evenodd" clip-rule="evenodd" d="M8 8L14.6278 -1.16992L14.9069 -0.963202L8 8Z" fill="#A5C2FF"/>
<path fill-rule="evenodd" clip-rule="evenodd" d="M8 8.00004L14.8512 -1.00476L15.1245 -0.791001L8 8.00004Z" fill="#A4C1FF"/>
<path fill-rule="evenodd" clip-rule="evenodd" d="M8 8.00006L15.0701 -0.833862L15.3382 -0.613702L8 8.00006Z" fill="#A3C1FF"/>
<path fill-rule="evenodd" clip-rule="evenodd" d="M8 8.00005L15.2845 -0.657227L15.5475 -0.430667L8 8.00005Z" fill="#A2C0FF"/>
<path fill-rule="evenodd" clip-rule="evenodd" d="M8 7.99996L15.495 -0.476196L15.7523 -0.243236L8 7.99996Z" fill="#A1BFFF"/>
<path fill-rule="evenodd" clip-rule="evenodd" d="M8 8L15.7005 -0.289917L15.952 -0.050557L8 8Z" fill="#A0BFFF"/>
<path fill-rule="evenodd" clip-rule="evenodd" d="M8 8.00005L15.9014 -0.0985107L16.1472 0.147249L8 8.00005Z" fill="#9FBEFF"/>
<path fill-rule="evenodd" clip-rule="evenodd" d="M8 8.00007L16.0979 0.0986328L16.3373 0.349513L8 8.00007Z" fill="#9EBDFF"/>
<path fill-rule="evenodd" clip-rule="evenodd" d="M8 8.00004L16.2899 0.299561L16.5229 0.556841L8 8.00004Z" fill="#9DBDFF"/>
<path fill-rule="evenodd" clip-rule="evenodd" d="M8 8.00004L16.4762 0.505005L16.7027 0.768045L8 8.00004Z" fill="#9CBCFF"/>
<path fill-rule="evenodd" clip-rule="evenodd" d="M8 8.00006L16.6573 0.715576L16.8774 0.983736L8 8.00006Z" fill="#9BBBFF"/>
<path fill-rule="evenodd" clip-rule="evenodd" d="M8 8.00001L16.8339 0.929932L17.047 1.20385L8 8.00001Z" fill="#9ABAFF"/>
<path fill-rule="evenodd" clip-rule="evenodd" d="M8 8L17.0048 1.1488L17.2115 1.42784L8 8Z" fill="#99BAFF"/>
<path fill-rule="evenodd" clip-rule="evenodd" d="M8 8.00003L17.1699 1.37219L17.3696 1.65571L8 8.00003Z" fill="#98B9FF"/>
<path fill-rule="evenodd" clip-rule="evenodd" d="M8 8.00003L17.3299 1.59875L17.5226 1.88739L8 8.00003Z" fill="#97B8FF"/>
<path fill-rule="evenodd" clip-rule="evenodd" d="M8 8.00007L17.4842 1.82983L17.6698 2.12359L8 8.00007Z" fill="#96B8FF"/>
<path fill-rule="evenodd" clip-rule="evenodd" d="M8 8.00006L17.6326 2.0647L17.8112 2.3623L8 8.00006Z" fill="#95B7FF"/>
<path fill-rule="evenodd" clip-rule="evenodd" d="M8 8.00001L17.7754 2.30273L17.9462 2.60481L8 8.00001Z" fill="#94B6FF"/>
<path fill-rule="evenodd" clip-rule="evenodd" d="M8 8.00004L17.9123 2.54468L18.0755 2.8506L8 8.00004Z" fill="#93B6FF"/>
<path fill-rule="evenodd" clip-rule="evenodd" d="M8 8.00006L18.0429 2.78918L18.199 3.09958L8 8.00006Z" fill="#92B5FF"/>
<path fill-rule="evenodd" clip-rule="evenodd" d="M8 8.00004L18.1683 3.03748L18.3162 3.35108L8 8.00004Z" fill="#91B4FF"/>
<path fill-rule="evenodd" clip-rule="evenodd" d="M8 8.00001L18.2867 3.28833L18.4275 3.60577L8 8.00001Z" fill="#90B4FF"/>
<path fill-rule="evenodd" clip-rule="evenodd" d="M8 7.99999L18.3994 3.54175L18.5318 3.86303L8 7.99999Z" fill="#8FB3FF"/>
<path fill-rule="evenodd" clip-rule="evenodd" d="M8 8.00006L18.5056 3.79846L18.6304 4.12294L8 8.00006Z" fill="#8EB2FF"/>
<path fill-rule="evenodd" clip-rule="evenodd" d="M8 8.00002L18.6054 4.05762L18.7226 4.38466L8 8.00002Z" fill="#8DB2FF"/>
<path fill-rule="evenodd" clip-rule="evenodd" d="M8 7.99998L18.6989 4.31934L18.8077 4.64894L8 7.99998Z" fill="#8CB1FF"/>
<path fill-rule="evenodd" clip-rule="evenodd" d="M8 7.99997L18.7859 4.58301L18.887 4.91517L8 7.99997Z" fill="#8BB0FF"/>
<path fill-rule="evenodd" clip-rule="evenodd" d="M8 7.99999L18.8666 4.84863L18.9594 5.18335L8 7.99999Z" fill="#8AB0FF"/>
<path fill-rule="evenodd" clip-rule="evenodd" d="M8 8.00005L18.9408 5.11621L19.0253 5.45285L8 8.00005Z" fill="#89AFFF"/>
<path fill-rule="evenodd" clip-rule="evenodd" d="M8 8.00002L19.0086 5.38562L19.0842 5.72418L8 8.00002Z" fill="#88AEFF"/>
<path fill-rule="evenodd" clip-rule="evenodd" d="M8 8.00002L19.0688 5.65698L19.1366 5.99682L8 8.00002Z" fill="#87AEFF"/>
<path fill-rule="evenodd" clip-rule="evenodd" d="M8 7.99999L19.1232 5.92896L19.1827 6.27071L8 7.99999Z" fill="#86ADFF"/>
<path fill-rule="evenodd" clip-rule="evenodd" d="M8 8.00003L19.1706 6.20227L19.2218 6.54595L8 8.00003Z" fill="#85ACFF"/>
<path fill-rule="evenodd" clip-rule="evenodd" d="M8 7.99998L19.2115 6.47742L19.2538 6.82174L8 7.99998Z" fill="#84ACFF"/>
<path fill-rule="evenodd" clip-rule="evenodd" d="M8 8.00005L19.2454 6.75269L19.2794 7.09829L8 8.00005Z" fill="#83ABFF"/>
<path fill-rule="evenodd" clip-rule="evenodd" d="M8 8.00005L19.273 7.02917L19.2986 7.37541L8 8.00005Z" fill="#82AAFF"/>
<path fill-rule="evenodd" clip-rule="evenodd" d="M8 8.00003L19.2934 7.30627L19.3101 7.65315L8 8.00003Z" fill="#81AAFF"/>
<path fill-rule="evenodd" clip-rule="evenodd" d="M8 8.00001L19.3069 7.58337L19.3152 7.93025L8 8.00001Z" fill="#80A9FF"/>
<path fill-rule="evenodd" clip-rule="evenodd" d="M8 7.99996L19.3133 7.86108V8.20796L8 7.99996Z" fill="#7FA8FF"/>
<path fill-rule="evenodd" clip-rule="evenodd" d="M8 8L19.3133 8.13888L19.305 8.48576L8 8Z" fill="#7EA7FF"/>
<path fill-rule="evenodd" clip-rule="evenodd" d="M8 8L19.3069 8.41664L19.2896 8.76288L8 8Z" fill="#7DA7FF"/>
<path fill-rule="evenodd" clip-rule="evenodd" d="M8 8L19.2934 8.69376L19.2678 9.04L8 8Z" fill="#7CA6FF"/>
<path fill-rule="evenodd" clip-rule="evenodd" d="M8 8L19.273 8.97088L19.239 9.31648L8 8Z" fill="#7BA5FF"/>
<path fill-rule="evenodd" clip-rule="evenodd" d="M8 8L19.2454 9.24672L19.2032 9.59168L8 8Z" fill="#7AA5FF"/>
<path fill-rule="evenodd" clip-rule="evenodd" d="M8 8L19.2115 9.52256L19.1603 9.86624L8 8Z" fill="#79A4FF"/>
<path fill-rule="evenodd" clip-rule="evenodd" d="M8 8L19.1706 9.79712L19.1117 10.1395L8 8Z" fill="#78A3FF"/>
<path fill-rule="evenodd" clip-rule="evenodd" d="M8 8L19.1232 10.071L19.0554 10.4115L8 8Z" fill="#77A3FF"/>
<path fill-rule="evenodd" clip-rule="evenodd" d="M8 8L19.0688 10.343L18.9933 10.6822L8 8Z" fill="#76A2FF"/>
<path fill-rule="evenodd" clip-rule="evenodd" d="M8 8L19.0086 10.6144L18.9242 10.951L8 8Z" fill="#75A1FF"/>
<path fill-rule="evenodd" clip-rule="evenodd" d="M8 8L18.9408 10.8838L18.8486 11.2179L8 8Z" fill="#74A1FF"/>
<path fill-rule="evenodd" clip-rule="evenodd" d="M8 8L18.8666 11.1514L18.7661 11.4835L8 8Z" fill="#73A0FF"/>
<path fill-rule="evenodd" clip-rule="evenodd" d="M8 8L18.7859 11.417L18.6771 11.7466L8 8Z" fill="#729FFF"/>
<path fill-rule="evenodd" clip-rule="evenodd" d="M8 8L18.6989 11.6806L18.5824 12.0077L8 8Z" fill="#719FFF"/>
<path fill-rule="evenodd" clip-rule="evenodd" d="M8 8L18.6054 11.9424L18.4806 12.2662L8 8Z" fill="#709EFF"/>
<path fill-rule="evenodd" clip-rule="evenodd" d="M8 8L18.5056 12.201L18.3725 12.5222L8 8Z" fill="#6F9DFF"/>
<path fill-rule="evenodd" clip-rule="evenodd" d="M8 8L18.3994 12.4576L18.2586 12.775L8 8Z" fill="#6E9DFF"/>
<path fill-rule="evenodd" clip-rule="evenodd" d="M8 8L18.2867 12.7117L18.1382 13.0253L8 8Z" fill="#6D9CFF"/>
<path fill-rule="evenodd" clip-rule="evenodd" d="M8 8L18.1683 12.9626L18.0122 13.273L8 8Z" fill="#6C9BFF"/>
<path fill-rule="evenodd" clip-rule="evenodd" d="M8 8L18.0429 13.2109L17.8797 13.5168L8 8Z" fill="#6B9BFF"/>
<path fill-rule="evenodd" clip-rule="evenodd" d="M8 8L17.9123 13.4554L17.7414 13.7581L8 8Z" fill="#6A9AFF"/>
<path fill-rule="evenodd" clip-rule="evenodd" d="M8 8L17.7754 13.6973L17.5968 13.9949L8 8Z" fill="#6999FF"/>
<path fill-rule="evenodd" clip-rule="evenodd" d="M8 8L17.6326 13.9354L17.447 14.2285L8 8Z" fill="#6899FF"/>
<path fill-rule="evenodd" clip-rule="evenodd" d="M8 8L17.4842 14.1702L17.2909 14.4589L8 8Z" fill="#6798FF"/>
<path fill-rule="evenodd" clip-rule="evenodd" d="M8 8L17.3299 14.4013L17.1302 14.6848L8 8Z" fill="#6697FF"/>
<path fill-rule="evenodd" clip-rule="evenodd" d="M8 8L17.1699 14.6278L16.9632 14.9069L8 8Z" fill="#6597FF"/>
<path fill-rule="evenodd" clip-rule="evenodd" d="M8 8L17.0048 14.8512L16.791 15.1245L8 8Z" fill="#6496FF"/>
<path fill-rule="evenodd" clip-rule="evenodd" d="M8 8L16.8339 15.0701L16.6138 15.3382L8 8Z" fill="#6395FF"/>
<path fill-rule="evenodd" clip-rule="evenodd" d="M8 8L16.6573 15.2845L16.4307 15.5475L8 8Z" fill="#6294FF"/>
<path fill-rule="evenodd" clip-rule="evenodd" d="M8 8L16.4762 15.495L16.2432 15.7523L8 8Z" fill="#6194FF"/>
<path fill-rule="evenodd" clip-rule="evenodd" d="M8 8L16.2899 15.7005L16.0506 15.952L8 8Z" fill="#6093FF"/>
<path fill-rule="evenodd" clip-rule="evenodd" d="M8 8L16.0979 15.9014L15.8528 16.1472L8 8Z" fill="#5F92FF"/>
<path fill-rule="evenodd" clip-rule="evenodd" d="M8 8L15.9014 16.0979L15.6506 16.3373L8 8Z" fill="#5E92FF"/>
<path fill-rule="evenodd" clip-rule="evenodd" d="M8 8L15.7005 16.2899L15.4432 16.5229L8 8Z" fill="#5D91FF"/>
<path fill-rule="evenodd" clip-rule="evenodd" d="M8 8L15.495 16.4762L15.232 16.7027L8 8Z" fill="#5C90FF"/>
<path fill-rule="evenodd" clip-rule="evenodd" d="M8 8L15.2845 16.6573L15.0163 16.8774L8 8Z" fill="#5B90FF"/>
<path fill-rule="evenodd" clip-rule="evenodd" d="M8 8L15.0701 16.8339L14.7962 17.047L8 8Z" fill="#5A8FFF"/>
<path fill-rule="evenodd" clip-rule="evenodd" d="M8 8L14.8512 17.0048L14.5722 17.2115L8 8Z" fill="#598EFF"/>
<path fill-rule="evenodd" clip-rule="evenodd" d="M8 8L14.6278 17.1699L14.3443 17.3696L8 8Z" fill="#588EFF"/>
<path fill-rule="evenodd" clip-rule="evenodd" d="M8 8L14.4013 17.3299L14.112 17.5226L8 8Z" fill="#578DFF"/>
<path fill-rule="evenodd" clip-rule="evenodd" d="M8 8L14.1702 17.4842L13.8765 17.6698L8 8Z" fill="#568CFF"/>
<path fill-rule="evenodd" clip-rule="evenodd" d="M8 8L13.9354 17.6326L13.6378 17.8112L8 8Z" fill="#558CFF"/>
<path fill-rule="evenodd" clip-rule="evenodd" d="M8 8L13.6973 17.7754L13.3952 17.9462L8 8Z" fill="#548BFF"/>
<path fill-rule="evenodd" clip-rule="evenodd" d="M8 8L13.4554 17.9123L13.1494 18.0755L8 8Z" fill="#538AFF"/>
<path fill-rule="evenodd" clip-rule="evenodd" d="M8 8L13.2109 18.0429L12.9005 18.199L8 8Z" fill="#528AFF"/>
<path fill-rule="evenodd" clip-rule="evenodd" d="M8 8L12.9626 18.1683L12.649 18.3162L8 8Z" fill="#5189FF"/>
<path fill-rule="evenodd" clip-rule="evenodd" d="M8 8L12.7117 18.2867L12.3942 18.4275L8 8Z" fill="#5088FF"/>
<path fill-rule="evenodd" clip-rule="evenodd" d="M8 8L12.4576 18.3994L12.137 18.5318L8 8Z" fill="#4F88FF"/>
<path fill-rule="evenodd" clip-rule="evenodd" d="M8 8L12.201 18.5056L11.8771 18.6304L8 8Z" fill="#4E87FF"/>
<path fill-rule="evenodd" clip-rule="evenodd" d="M8 8L11.9424 18.6054L11.6154 18.7226L8 8Z" fill="#4D86FF"/>
<path fill-rule="evenodd" clip-rule="evenodd" d="M8 8L11.6806 18.6989L11.351 18.8077L8 8Z" fill="#4C86FF"/>
<path fill-rule="evenodd" clip-rule="evenodd" d="M8 8L11.417 18.7859L11.0848 18.887L8 8Z" fill="#4B85FF"/>
<path fill-rule="evenodd" clip-rule="evenodd" d="M8 8L11.1514 18.8666L10.8166 18.9594L8 8Z" fill="#4A84FF"/>
<path fill-rule="evenodd" clip-rule="evenodd" d="M8 8L10.8838 18.9408L10.5466 19.0253L8 8Z" fill="#4984FF"/>
<path fill-rule="evenodd" clip-rule="evenodd" d="M8 8L10.6144 19.0086L10.2758 19.0842L8 8Z" fill="#4883FF"/>
<path fill-rule="evenodd" clip-rule="evenodd" d="M8 8L10.343 19.0688L10.0026 19.1366L8 8Z" fill="#4782FF"/>
<path fill-rule="evenodd" clip-rule="evenodd" d="M8 8L10.071 19.1232L9.72928 19.1827L8 8Z" fill="#4681FF"/>
<path fill-rule="evenodd" clip-rule="evenodd" d="M8 8L9.79712 19.1706L9.45408 19.2218L8 8Z" fill="#4581FF"/>
<path fill-rule="evenodd" clip-rule="evenodd" d="M8 8L9.52256 19.2115L9.17824 19.2538L8 8Z" fill="#4480FF"/>
<path fill-rule="evenodd" clip-rule="evenodd" d="M8 8L9.24672 19.2454L8.90176 19.2794L8 8Z" fill="#437FFF"/>
<path fill-rule="evenodd" clip-rule="evenodd" d="M8 8L8.97088 19.273L8.62464 19.2986L8 8Z" fill="#427FFF"/>
<path fill-rule="evenodd" clip-rule="evenodd" d="M8 8L8.69376 19.2934L8.34688 19.3101L8 8Z" fill="#417EFF"/>
<path fill-rule="evenodd" clip-rule="evenodd" d="M8 8L8.41664 19.3069L8.06912 19.3152L8 8Z" fill="#407DFF"/>
<path fill-rule="evenodd" clip-rule="evenodd" d="M8.00551 8L8.14439 19.3133H7.79688L8.00551 8Z" fill="#3F7DFF"/>
<path fill-rule="evenodd" clip-rule="evenodd" d="M8.00139 8L7.86251 19.3133L7.51562 19.305L8.00139 8Z" fill="#3E7CFF"/>
<path fill-rule="evenodd" clip-rule="evenodd" d="M8.00571 8L7.58907 19.3069L7.24219 19.2896L8.00571 8Z" fill="#3D7BFF"/>
<path fill-rule="evenodd" clip-rule="evenodd" d="M8.00094 8L7.30718 19.2934L6.96094 19.2678L8.00094 8Z" fill="#3C7BFF"/>
<path fill-rule="evenodd" clip-rule="evenodd" d="M8.00398 8L7.0331 19.273L6.6875 19.239L8.00398 8Z" fill="#3B7AFF"/>
<path fill-rule="evenodd" clip-rule="evenodd" d="M8.00574 8L6.75838 19.2454L6.41406 19.2032L8.00574 8Z" fill="#3A79FF"/>
<path fill-rule="evenodd" clip-rule="evenodd" d="M7.99905 8L6.47649 19.2115L6.13281 19.1603L7.99905 8Z" fill="#3979FF"/>
<path fill-rule="evenodd" clip-rule="evenodd" d="M7.99889 8L6.20113 19.1706L5.85938 19.1117L7.99889 8Z" fill="#3878FF"/>
<path fill-rule="evenodd" clip-rule="evenodd" d="M8.00527 8L5.93423 19.1232L5.59375 19.0554L8.00527 8Z" fill="#3777FF"/>
<path fill-rule="evenodd" clip-rule="evenodd" d="M8.00255 8L5.65951 19.0688L5.32031 18.9933L8.00255 8Z" fill="#3677FF"/>
<path fill-rule="evenodd" clip-rule="evenodd" d="M8.00573 8L5.39133 19.0086L5.05469 18.9242L8.00573 8Z" fill="#3576FF"/>
<path fill-rule="evenodd" clip-rule="evenodd" d="M7.99981 8L5.11597 18.9408L4.78125 18.8486L7.99981 8Z" fill="#3475FF"/>
<path fill-rule="evenodd" clip-rule="evenodd" d="M7.99914 8L4.84778 18.8666L4.51562 18.7661L7.99914 8Z" fill="#3375FF"/>
<path fill-rule="evenodd" clip-rule="evenodd" d="M8.00437 8L4.58741 18.7859L4.25781 18.6771L8.00437 8Z" fill="#3274FF"/>
<path fill-rule="evenodd" clip-rule="evenodd" d="M7.99987 8L4.31923 18.6989L3.99219 18.5824L7.99987 8Z" fill="#3173FF"/>
<path fill-rule="evenodd" clip-rule="evenodd" d="M8.00061 8L4.05821 18.6054L3.73438 18.4806L8.00061 8Z" fill="#3073FF"/>
<path fill-rule="evenodd" clip-rule="evenodd" d="M7.9988 8L3.7972 18.5056L3.47656 18.3725L7.9988 8Z" fill="#2F72FF"/>
<path fill-rule="evenodd" clip-rule="evenodd" d="M8.0016 8L3.54336 18.3994L3.22656 18.2586L8.0016 8Z" fill="#2E71FF"/>
<path fill-rule="evenodd" clip-rule="evenodd" d="M8.00184 8L3.29016 18.2867L2.97656 18.1382L8.00184 8Z" fill="#2D71FF"/>
<path fill-rule="evenodd" clip-rule="evenodd" d="M7.99952 8L3.03696 18.1683L2.72656 18.0122L7.99952 8Z" fill="#2C70FF"/>
<path fill-rule="evenodd" clip-rule="evenodd" d="M8.00117 8L2.79029 18.0429L2.48438 17.8797L8.00117 8Z" fill="#2B6FFF"/>
<path fill-rule="evenodd" clip-rule="evenodd" d="M8.00027 8L2.54491 17.9123L2.24219 17.7414L8.00027 8Z" fill="#2A6EFF"/>
<path fill-rule="evenodd" clip-rule="evenodd" d="M8.00269 8L2.30541 17.7754L2.00781 17.5968L8.00269 8Z" fill="#296EFF"/>
<path fill-rule="evenodd" clip-rule="evenodd" d="M8.00256 8L2.0672 17.6326L1.77344 17.447L8.00256 8Z" fill="#286DFF"/>
<path fill-rule="evenodd" clip-rule="evenodd" d="M8.00575 8L1.83551 17.4842L1.54688 17.2909L8.00575 8Z" fill="#276CFF"/>
<path fill-rule="evenodd" clip-rule="evenodd" d="M8.00511 8L1.60383 17.3299L1.32031 17.1302L8.00511 8Z" fill="#266CFF"/>
<path fill-rule="evenodd" clip-rule="evenodd" d="M8.00063 8L1.37279 17.1699L1.09375 16.9632L8.00063 8Z" fill="#256BFF"/>
<path fill-rule="evenodd" clip-rule="evenodd" d="M8.00012 8L1.14892 17.0048L0.875 16.791L8.00012 8Z" fill="#246AFF"/>
<path fill-rule="evenodd" clip-rule="evenodd" d="M8.0023 8L0.932223 16.8339L0.664062 16.6138L8.0023 8Z" fill="#236AFF"/>
<path fill-rule="evenodd" clip-rule="evenodd" d="M8.00065 8L0.716165 16.6573L0.453125 16.4307L8.00065 8Z" fill="#2269FF"/>
<path fill-rule="evenodd" clip-rule="evenodd" d="M8.00232 8L0.50728 16.4762L0.25 16.2432L8.00232 8Z" fill="#2168FF"/>
<path fill-rule="evenodd" clip-rule="evenodd" d="M7.99888 8L0.298395 16.2899L0.046875 16.0506L7.99888 8Z" fill="#2068FF"/>
<path fill-rule="evenodd" clip-rule="evenodd" d="M8.00657 8L0.105135 16.0979L-0.140625 15.8528L8.00657 8Z" fill="#1F67FF"/>
<path fill-rule="evenodd" clip-rule="evenodd" d="M8.00134 8L-0.0972175 15.9014L-0.335938 15.6506L8.00134 8Z" fill="#1E66FF"/>
<path fill-rule="evenodd" clip-rule="evenodd" d="M7.99944 8L-0.290478 15.7005L-0.523438 15.4432L7.99944 8Z" fill="#1D66FF"/>
<path fill-rule="evenodd" clip-rule="evenodd" d="M7.9996 8L-0.476565 15.495L-0.703125 15.232L7.9996 8Z" fill="#1C65FF"/>
<path fill-rule="evenodd" clip-rule="evenodd" d="M8.00244 8L-0.65484 15.2845L-0.875 15.0163L8.00244 8Z" fill="#1B64FF"/>
<path fill-rule="evenodd" clip-rule="evenodd" d="M8.00016 8L-0.833755 15.0701L-1.04688 14.7962L8.00016 8Z" fill="#1A64FF"/>
<path fill-rule="evenodd" clip-rule="evenodd" d="M8.00058 8L-1.00422 14.8512L-1.21094 14.5722L8.00058 8Z" fill="#1963FF"/>
<path fill-rule="evenodd" clip-rule="evenodd" d="M8.00241 8L-1.16751 14.6278L-1.36719 14.3443L8.00241 8Z" fill="#1862FF"/>
<path fill-rule="evenodd" clip-rule="evenodd" d="M7.99912 8L-1.3308 14.4013L-1.52344 14.112L7.99912 8Z" fill="#1762FF"/>
<path fill-rule="evenodd" clip-rule="evenodd" d="M8.0057 8L-1.47846 14.1702L-1.66406 13.8765L8.0057 8Z" fill="#1661FF"/>
<path fill-rule="evenodd" clip-rule="evenodd" d="M8.00651 8L-1.62613 13.9354L-1.80469 13.6378L8.00651 8Z" fill="#1560FF"/>
<path fill-rule="evenodd" clip-rule="evenodd" d="M8.00093 8L-1.77443 13.6973L-1.94531 13.3952L8.00093 8Z" fill="#1460FF"/>
<path fill-rule="evenodd" clip-rule="evenodd" d="M8.00585 8L-1.90647 13.4554L-2.07031 13.1494L8.00585 8Z" fill="#135FFF"/>
<path fill-rule="evenodd" clip-rule="evenodd" d="M8.00373 8L-2.03979 13.2109L-2.19531 12.9005L8.00373 8Z" fill="#125EFF"/>
<path fill-rule="evenodd" clip-rule="evenodd" d="M8.00366 8L-2.16466 12.9626L-2.3125 12.649L8.00366 8Z" fill="#115EFF"/>
<path fill-rule="evenodd" clip-rule="evenodd" d="M8.00565 8L-2.28108 12.7117L-2.42188 12.3942L8.00565 8Z" fill="#105DFF"/>
<path fill-rule="evenodd" clip-rule="evenodd" d="M8.00123 8L-2.39813 12.4576L-2.53125 12.137L8.00123 8Z" fill="#0F5CFF"/>
<path fill-rule="evenodd" clip-rule="evenodd" d="M8.0054 8L-2.5002 12.201L-2.625 11.8771L8.0054 8Z" fill="#0E5BFF"/>
<path fill-rule="evenodd" clip-rule="evenodd" d="M8.00381 8L-2.60163 11.9424L-2.71875 11.6154L8.00381 8Z" fill="#0D5BFF"/>
<path fill-rule="evenodd" clip-rule="evenodd" d="M8.00299 8L-2.69653 11.6806L-2.80469 11.351L8.00299 8Z" fill="#0C5AFF"/>
<path fill-rule="evenodd" clip-rule="evenodd" d="M8.00423 8L-2.78233 11.417L-2.88281 11.0848L8.00423 8Z" fill="#0B59FF"/>
<path fill-rule="evenodd" clip-rule="evenodd" d="M8.00624 8L-2.86097 11.1514L-2.95312 10.8166L8.00624 8Z" fill="#0A59FF"/>
<path fill-rule="evenodd" clip-rule="evenodd" d="M8.00184 8L-2.93896 10.8838L-3.02344 10.5466L8.00184 8Z" fill="#0958FF"/>
<path fill-rule="evenodd" clip-rule="evenodd" d="M8.00603 8L-3.00261 10.6144L-3.07812 10.2758L8.00603 8Z" fill="#0857FF"/>
<path fill-rule="evenodd" clip-rule="evenodd" d="M8.00383 8L-3.06561 10.343L-3.13281 10.0026L8.00383 8Z" fill="#0757FF"/>
<path fill-rule="evenodd" clip-rule="evenodd" d="M8.00303 8L-3.12017 10.071L-3.17969 9.72928L8.00303 8Z" fill="#0656FF"/>
<path fill-rule="evenodd" clip-rule="evenodd" d="M8.00301 8L-3.16755 9.79712L-3.21875 9.45408L8.00301 8Z" fill="#0555FF"/>
<path fill-rule="evenodd" clip-rule="evenodd" d="M8.00376 8L-3.20776 9.52256L-3.25 9.17824L8.00376 8Z" fill="#0455FF"/>
<path fill-rule="evenodd" clip-rule="evenodd" d="M8.00592 8L-3.23952 9.24672L-3.27344 8.90176L8.00592 8Z" fill="#0354FF"/>
<path fill-rule="evenodd" clip-rule="evenodd" d="M8.00169 8L-3.27127 8.97088L-3.29688 8.62464L8.00169 8Z" fill="#0253FF"/>
<path fill-rule="evenodd" clip-rule="evenodd" d="M8.00539 8L-3.28805 8.69376L-3.30469 8.34688L8.00539 8Z" fill="#0153FF"/>
<path fill-rule="evenodd" clip-rule="evenodd" d="M8.0027 8L-3.30418 8.41664L-3.3125 8.06912L8.0027 8Z" fill="#0052FF"/>
<path fill-rule="evenodd" clip-rule="evenodd" d="M8.00142 7.99996L-3.3125 8.13884V7.86108L8.00142 7.99996Z" fill="white"/>
</g>
</g>
<defs>
<clipPath id="clip0_581_828">
<rect width="16" height="16" fill="white"/>
</clipPath>
</defs>
</svg>
