<svg width="16" height="16" viewBox="0 0 16 16" fill="none" xmlns="http://www.w3.org/2000/svg">
<circle cx="8" cy="8" r="8" fill="#2B6AFF"/>
<path d="M9.79385 7.35423C9.70577 7.49075 9.61769 7.62948 9.53181 7.76601C9.2037 8.28349 8.88881 8.80758 8.56951 9.32947C8.46822 9.49462 8.3471 9.64436 8.18855 9.76107C7.7041 10.1178 7.20424 9.75667 7.14698 9.33387C7.10735 9.06082 7.08312 8.78556 7.07872 8.51031C7.07652 8.19101 7.07872 7.87171 7.07872 7.55461C7.07872 7.50837 7.07432 7.46213 7.07211 7.41588C7.05009 7.41588 7.04789 7.4335 7.04129 7.44231C6.43792 8.43984 5.80373 9.41975 5.18716 10.4085C5.14972 10.4679 5.11449 10.5296 5.07485 10.589C5.05723 10.6155 5.05723 10.6331 5.08146 10.6595C5.70464 11.3047 6.44453 11.7407 7.33856 11.8772C8.42418 12.0446 9.4107 11.8002 10.2937 11.144C10.4016 11.0647 10.4985 10.9722 10.6042 10.8885C10.7341 10.7872 10.8773 10.7256 11.049 10.7652C11.0732 10.7696 11.0931 10.7806 11.1107 10.796C11.1503 10.8357 11.19 10.8709 11.234 10.9061C11.3661 11.003 11.3727 11.133 11.3375 11.2761C11.2935 11.4456 11.1767 11.5624 11.0468 11.6681C10.4479 12.1657 9.77403 12.5202 9.00772 12.681C7.54115 12.9915 6.2045 12.6964 5.02641 11.7693C4.12797 11.0625 3.55764 10.1376 3.3066 9.01898C3.17668 8.43984 3.16347 7.85409 3.25155 7.26614C3.5202 5.43844 4.82382 4.05335 6.28378 3.49843C6.75502 3.31786 7.25048 3.21877 7.75475 3.20335C8.30526 3.18574 8.84477 3.23418 9.37326 3.40374C10.0779 3.62615 10.7209 4.00931 11.2516 4.52238C11.9849 5.23145 12.4473 6.08805 12.6411 7.08998C12.7358 7.57884 12.7578 8.0721 12.6785 8.56315C12.5839 9.15551 12.1038 9.74346 11.4542 9.86677C10.8112 9.99009 10.2122 9.65758 9.9524 9.02999C9.8401 8.75914 9.80927 8.47507 9.80927 8.1866C9.80927 7.92015 9.80927 7.65591 9.80927 7.38946C9.80927 7.38065 9.80927 7.37184 9.80706 7.36303L9.79385 7.35423Z" fill="#FEFEFE"/>
<path d="M7.94398 8.63793V8.23936C7.94398 7.69105 7.94618 7.14054 7.93958 6.59223C7.93737 6.36982 7.88673 6.15842 7.72377 5.99107C7.57624 5.84353 7.35383 5.80169 7.16225 5.88316C7.03013 5.94042 6.91782 6.03511 6.83635 6.15622C6.64256 6.43148 6.47961 6.72655 6.29684 7.00841C5.70669 7.90905 5.15618 8.83392 4.57484 9.73896C4.52859 9.81163 4.48896 9.81383 4.44932 9.73236C4.40087 9.63547 4.35903 9.53637 4.3194 9.43508C4.14984 9.00788 4.06176 8.55426 4.05515 8.09403C4.04194 7.13393 4.31059 6.26412 4.91615 5.51542C5.51071 4.77994 6.27482 4.30209 7.20849 4.13033C8.55835 3.8837 9.72984 4.26025 10.7054 5.21374C11.3131 5.80609 11.6655 6.54158 11.8064 7.38056C11.8592 7.68885 11.8702 8.00374 11.8394 8.31423C11.8152 8.54325 11.7227 8.74363 11.5399 8.89117C11.388 9.01228 11.2162 9.08055 11.0247 9.00348C10.8221 8.9242 10.7186 8.75905 10.6833 8.54765C10.6327 8.23936 10.6393 7.92887 10.6459 7.61838C10.6503 7.35414 10.6679 7.08549 10.6107 6.82344C10.5424 6.51956 10.3662 6.30376 10.0513 6.22448C9.8994 6.18705 9.75847 6.2377 9.62635 6.30816C9.42596 6.41606 9.27402 6.57901 9.1463 6.76179C8.91729 7.08549 8.7191 7.43121 8.5077 7.76812C8.33154 8.04999 8.15538 8.33185 7.97921 8.61371C7.97261 8.62252 7.966 8.63353 7.95939 8.64234L7.94398 8.63793Z" fill="#2B6AFF"/>
</svg>
