<svg width="16" height="16" viewBox="0 0 16 16" fill="none" xmlns="http://www.w3.org/2000/svg">
<path d="M16 7.96583C16.01 11.2026 14.083 14.1267 11.0966 15.3771C8.11013 16.6274 4.66968 15.9619 2.36932 13.6831C0.0689648 11.4042 -0.627197 7.96583 0.593608 4.97109C1.81441 1.97635 4.73022 0.020188 7.95879 2.13706e-05C12.388 -0.0100619 15.9798 3.54934 16 7.96583Z" fill="#8DC63F"/>
<path d="M15.3991 7.96569C15.4091 10.9604 13.6233 13.6628 10.8589 14.8223C8.09441 15.9819 4.91628 15.3567 2.78744 13.2594C0.658599 11.152 0.0128841 7.97577 1.14288 5.21295C2.27289 2.44004 4.96673 0.635127 7.95316 0.61496C12.0494 0.594794 15.3789 3.88195 15.3991 7.96569Z" fill="#F9E988"/>
<path d="M8.14062 1.08919C8.61482 1.00852 9.08902 1.00852 9.56322 1.08919C10.0374 1.15977 10.5015 1.3211 10.9253 1.54293C11.349 1.77485 11.7122 2.08743 12.0754 2.37985C12.4387 2.67227 12.8019 2.97477 13.1449 3.30751C13.498 3.63018 13.8007 4.00326 14.053 4.40659C14.3153 4.80993 14.5271 5.24351 14.6886 5.68717C15.0013 6.59467 15.1022 7.57275 14.9509 8.50041H14.9005C14.7491 7.57275 14.5372 6.6955 14.2043 5.85859C14.053 5.43509 13.8613 5.02167 13.6595 4.62842C13.4375 4.23518 13.2055 3.84193 12.9431 3.47893C12.6808 3.10585 12.3479 2.7731 11.9746 2.50085C11.6013 2.2286 11.1674 2.05718 10.7538 1.89585C10.3401 1.73452 9.91634 1.5631 9.4825 1.43202C9.04866 1.31102 8.60473 1.21019 8.14062 1.11944V1.08919Z" fill="white"/>
<path d="M11.7485 5.35413C11.2138 5.20288 10.6589 4.98105 10.0939 4.75922C10.0636 4.61805 9.93246 4.44663 9.68023 4.2248C9.31702 3.90213 8.62085 3.91222 8.02559 4.05338C7.36978 3.90213 6.71398 3.84163 6.08844 3.99288C0.973168 5.40455 3.8688 8.83287 1.99219 12.2914C2.25451 12.8561 5.14005 16.1634 9.30693 15.2761C9.30693 15.2761 7.88434 11.8579 11.1028 10.2143C13.7159 8.88329 15.5926 6.40279 11.7485 5.35413Z" fill="#8BC53F"/>
<path d="M8.03125 4.05332C8.40455 4.08359 9.75652 4.51743 10.0996 4.75957C9.80697 3.92216 8.83839 3.81118 8.03125 4.05332Z" fill="#009345"/>
<path d="M12.3872 7.60255C12.3872 7.8748 12.0543 8.01597 11.8626 7.82438C11.6709 7.6328 11.802 7.30005 12.0745 7.28997C12.246 7.30005 12.3872 7.43113 12.3872 7.60255ZM8.38177 6.18081C8.38177 6.75555 8.02864 7.27988 7.49391 7.50172C6.95918 7.72355 6.34373 7.60255 5.93007 7.18914C5.51641 6.77572 5.39534 6.16064 5.6173 5.62622C5.83927 5.09181 6.36391 4.73889 6.939 4.73889C7.32239 4.73889 7.68561 4.89014 7.94793 5.15231C8.23043 5.43464 8.38177 5.79764 8.38177 6.18081Z" fill="white"/>
<path d="M7.95166 6.1909C7.95166 6.59423 7.70952 6.96731 7.32612 7.11856C6.95282 7.26981 6.51898 7.18914 6.22639 6.89673C5.9338 6.60431 5.85309 6.18081 6.00443 5.79765C6.15577 5.42457 6.52907 5.17249 6.93264 5.17249C7.49764 5.18257 7.95166 5.63631 7.95166 6.1909Z" fill="#58595B"/>
<path d="M13.547 8.23808C12.3868 9.05483 11.0651 9.66991 9.19853 9.66991C8.32076 9.66991 8.14925 8.74225 7.56407 9.19599C7.26139 9.42791 6.2121 9.95224 5.37469 9.92199C4.53728 9.88166 3.18531 9.38758 2.81201 7.61292C2.66067 9.39766 2.59005 10.7085 1.91406 12.2109C3.24585 14.3486 6.42398 15.9921 9.30951 15.2863C8.99675 13.1184 10.8935 11.0009 11.9529 9.92199C12.3666 9.49849 13.1434 8.833 13.547 8.23808Z" fill="#8BC53F"/>
<path d="M13.4993 8.2887C13.1361 8.62164 12.7124 8.86378 12.2785 9.07566C11.8346 9.28754 11.3806 9.44896 10.9064 9.58012C10.4322 9.7012 9.93781 9.792 9.44344 9.75164C8.93897 9.71129 8.43451 9.53977 8.10156 9.16646L8.12174 9.14629C8.52531 9.40861 8.99951 9.49941 9.46362 9.51959C9.93781 9.52968 10.412 9.49941 10.8761 9.40861C11.3402 9.30772 11.8043 9.16646 12.2483 8.98486C12.6922 8.80325 13.126 8.59138 13.5094 8.2887H13.4993Z" fill="#58595B"/>
</svg>
