<svg width="16" height="16" viewBox="0 0 16 16" fill="none" xmlns="http://www.w3.org/2000/svg">
<g clip-path="url(#clip0_581_3685)">
<path d="M8 16C12.4183 16 16 12.4183 16 8C16 3.58172 12.4183 0 8 0C3.58172 0 0 3.58172 0 8C0 12.4183 3.58172 16 8 16Z" fill="#988430"/>
<path d="M8.00156 15.7437C12.2783 15.7437 15.7453 12.2767 15.7453 7.99997C15.7453 3.72322 12.2783 0.256226 8.00156 0.256226C3.7248 0.256226 0.257812 3.72322 0.257812 7.99997C0.257812 12.2767 3.7248 15.7437 8.00156 15.7437Z" fill="#7A6A2A"/>
<path d="M8.00246 15.5806C12.1891 15.5806 15.583 12.1867 15.583 8.00002C15.583 3.81338 12.1891 0.419434 8.00246 0.419434C3.81582 0.419434 0.421875 3.81338 0.421875 8.00002C0.421875 12.1867 3.81582 15.5806 8.00246 15.5806Z" fill="#BA9F33"/>
<path fill-rule="evenodd" clip-rule="evenodd" d="M3.49658 7.14569C3.45127 7.1043 3.4034 7.06283 3.35937 7.02144C3.31534 6.98006 3.27011 6.93858 3.2248 6.8972L3.09014 6.7692C3.06813 6.74718 3.04483 6.72781 3.02281 6.70571C3.0008 6.68634 2.97494 6.66432 2.95293 6.64487C2.77424 6.47531 2.59453 6.30575 2.41831 6.13611C2.60084 6.30311 2.77953 6.46891 2.96206 6.63838L3.02546 6.70187C3.04747 6.7238 3.07077 6.74325 3.09279 6.76527L3.22736 6.88952C3.27267 6.9309 3.3167 6.97237 3.36201 7.01752C3.40733 7.06266 3.45136 7.10421 3.49667 7.14552L3.49658 7.14569ZM1.12509 7.12009C1.12509 7.12009 1.7749 7.18733 2.09208 7.23264C2.38589 7.27411 3.30501 7.41517 3.30501 7.41517L1.12509 7.12009ZM1.12509 7.12009C1.30761 7.13562 1.49014 7.15499 1.67267 7.17444C1.76585 7.18349 1.8552 7.19382 1.94454 7.20286L2.08167 7.21848C2.12698 7.22488 2.17102 7.23136 2.21633 7.23785L2.76007 7.32455L3.03186 7.36986C3.1212 7.38539 3.21055 7.40228 3.30373 7.41782C3.21439 7.40877 3.1212 7.3958 3.03186 7.38283L2.76007 7.344L2.21633 7.26379C2.17102 7.2573 2.12698 7.24817 2.08167 7.24177L1.94446 7.22599C1.85511 7.21694 1.76193 7.20397 1.67258 7.19356C1.49006 7.17163 1.30753 7.14825 1.125 7.11983L1.12509 7.12009ZM3.24033 7.58447C3.24033 7.58447 2.54648 7.7606 2.31216 7.82793C2.08176 7.89133 1.38399 8.10364 1.38399 8.10364L3.24024 7.58456L3.24033 7.58447Z" fill="#CFB66C"/>
<path fill-rule="evenodd" clip-rule="evenodd" d="M3.24168 7.58447C3.08765 7.62978 2.93448 7.67382 2.77823 7.71529L2.31479 7.83953C2.16076 7.88485 2.00759 7.92888 1.85399 7.97419L1.62359 8.03759C1.54721 8.05961 1.46956 8.07898 1.39062 8.10108C1.46691 8.07548 1.54465 8.04928 1.62102 8.02727L1.85142 7.95354C2.00545 7.90558 2.15863 7.86027 2.31222 7.8124C2.46881 7.77357 2.62292 7.7321 2.77951 7.69455C2.92833 7.65701 3.085 7.61954 3.24168 7.58456V7.58447ZM1.48253 8.53082C1.55882 8.50232 2.43912 8.09204 2.64366 7.99621C2.74606 7.94825 3.0437 7.84261 3.0437 7.84261L1.48253 8.53082Z" fill="#CFB66C"/>
<path fill-rule="evenodd" clip-rule="evenodd" d="M1.48446 8.53073C1.5517 8.50513 1.61519 8.47381 1.67987 8.44403L1.87145 8.35469L2.25596 8.1696C2.38396 8.10876 2.50838 8.0416 2.64039 7.98442C2.70771 7.95601 2.77504 7.93271 2.84228 7.9107L2.94468 7.87836C2.97959 7.86931 3.01201 7.8589 3.04708 7.84985C2.91908 7.9107 2.78434 7.96249 2.65617 8.02197C2.52817 8.08546 2.39727 8.13726 2.26517 8.19417L1.87426 8.36629C1.74302 8.41945 1.61502 8.47637 1.48438 8.53073H1.48446ZM1.56979 8.88913C1.56979 8.88913 2.36715 8.42184 2.64158 8.27166C2.78528 8.19144 3.25001 7.96096 3.25001 7.96096L1.56979 8.88913Z" fill="#CFB66C"/>
<path fill-rule="evenodd" clip-rule="evenodd" d="M1.57031 8.88935C1.70488 8.80649 1.8421 8.72235 1.97932 8.63693L2.18412 8.5126C2.254 8.47122 2.32133 8.43239 2.39258 8.391C2.46247 8.34953 2.5298 8.30814 2.60097 8.26932C2.63485 8.2484 2.67035 8.23022 2.70712 8.21496L2.81584 8.1606C2.95954 8.09071 3.10324 8.01946 3.25471 7.95862C3.11749 8.0454 2.97635 8.11922 2.83529 8.1955C2.76541 8.23433 2.69415 8.26932 2.62426 8.30814C2.55438 8.34697 2.48705 8.38844 2.4158 8.42599C2.34591 8.46738 2.27858 8.5062 2.20741 8.54375L1.99638 8.65895L1.57048 8.88935H1.57031ZM3.24404 8.06341C3.24404 8.06341 2.74825 8.44399 2.58774 8.56568C2.42723 8.68736 1.95474 9.02912 1.95474 9.02912L3.24404 8.06341Z" fill="#CFB66C"/>
<path fill-rule="evenodd" clip-rule="evenodd" d="M6.08963 11.1326L5.83594 10.6524L5.98348 10.0517L7.03589 9.64528L6.58798 8.72624L6.80933 7.79807L7.22491 6.96692L8.50909 6.76503L9.45271 5.86536L11.4903 6.01938L11.8903 8.19803L11.12 10.9411L10.6812 12.3612L8.90256 12.4285L8.07671 11.8564L7.10971 11.4524L6.08963 11.1326Z" fill="#E2CC85"/>
<path fill-rule="evenodd" clip-rule="evenodd" d="M9.20406 11.1172C9.20406 11.1172 8.95805 11.2298 8.53846 11.2039C8.41703 11.0408 7.5666 10.9645 7.5666 10.9645C7.5666 10.9645 7.46045 10.9321 7.27271 11.0098C7.08379 11.0866 6.9051 11.0771 6.7381 11.1185C6.5711 11.1599 6.4053 10.9424 6.2773 10.8971C6.1493 10.8493 5.97957 10.7341 5.97957 10.7341L5.62117 10.6991L4.90147 10.3949L3.75809 9.25574L3.44739 9.74214L3.35156 10.3441L3.69725 11.0574L4.62798 11.9053L6.44285 12.3661L7.51856 12.0491L8.86614 11.4795L9.20406 11.1171V11.1172Z" fill="#F1D789"/>
<path fill-rule="evenodd" clip-rule="evenodd" d="M2.75682 7.09132L2.98722 6.39364L3.26174 5.94308L4.14579 5.86926L3.88041 6.64341L3.14133 7.95865L3.44811 9.13275L2.90445 9.40454L2.73737 9.14828L2.6028 8.56059L2.59375 7.90037L2.75682 7.09132Z" fill="#F4ECB4"/>
<path fill-rule="evenodd" clip-rule="evenodd" d="M3.75269 11.0693L3.58313 10.8324C3.58313 10.8324 3.53782 10.7198 3.56376 10.6214C3.58936 10.5217 3.58569 10.5152 3.57281 10.4777C3.55992 10.4401 3.45112 10.3107 3.45761 10.1993C3.46401 10.0867 3.44856 10.0491 3.53133 9.95987C3.61803 9.87317 3.59218 9.72298 3.59218 9.72298L3.70482 9.79287L3.73042 9.75404C3.73042 9.75404 3.7718 9.78639 3.7718 9.8369C3.78085 9.76701 3.7433 9.44335 3.82872 9.36962C3.91414 9.29589 4.06561 9.71522 4.06561 9.71522L3.97242 9.10679L3.73289 8.48292L3.30699 7.91332L3.28139 7.28544V7.23108C3.28139 7.23108 3.08589 7.53145 3.03154 7.76868C2.99271 7.93175 3.08589 8.12981 3.06652 8.36413C3.05091 8.59718 3.03154 8.579 3.08845 8.67133C3.14537 8.76367 3.28395 8.95353 3.2296 9.09075C3.18172 9.20859 3.01857 9.12574 3.01857 9.12574C3.01857 9.12574 2.98622 9.22148 2.94219 9.25647C2.92666 9.19955 2.90985 9.16328 2.87879 9.12847C2.87615 9.15048 2.86975 9.18026 2.86975 9.18026C2.86975 9.18026 2.84124 9.09092 2.81274 8.97828C2.774 8.82818 2.73253 8.63012 2.69498 8.52396C2.67945 8.58481 2.64062 8.76989 2.64062 8.76989L2.66264 9.05474L2.7688 9.44565L2.8712 9.70165L2.97087 10.0149L3.05748 10.2253L3.12737 10.3859L3.18821 10.7471L3.48201 11.0577L3.63868 11.1277L3.75252 11.0694L3.75269 11.0693Z" fill="#F3E19D"/>
<path fill-rule="evenodd" clip-rule="evenodd" d="M2.91609 6.52169C2.91609 6.52169 2.70506 6.88009 2.6443 7.24139C2.58355 7.60269 2.5291 7.98447 2.5675 8.47634C2.60633 8.97221 2.68014 9.27634 2.73971 9.49385C2.84211 9.85507 3.10732 10.3573 3.10732 10.3573L3.11637 10.3379C3.07179 10.2534 3.03621 10.1644 3.01021 10.0725C2.97523 9.93528 2.96225 9.77221 2.92991 9.69839C2.90141 9.62467 2.85354 9.56118 2.83024 9.47055C2.80823 9.38385 2.80464 9.24664 2.73706 9.14441C2.70856 9.10294 2.67357 8.99422 2.66325 8.88551C2.65028 8.72235 2.66973 8.53982 2.6542 8.38972C2.6257 8.13987 2.60633 7.97031 2.63219 7.83949C2.65804 7.70868 2.79278 7.33731 2.87564 7.04214C2.93 6.85312 2.89757 6.69389 2.99724 6.52946C3.09691 6.36638 3.15784 6.22268 3.17977 6.12301C3.20537 6.03239 2.91575 6.52169 2.91575 6.52169H2.91609Z" fill="#F2E8B0"/>
<path fill-rule="evenodd" clip-rule="evenodd" d="M3.90973 6.37793C3.90973 6.37793 3.80101 6.41036 3.74922 6.46727C3.69742 6.52163 3.6754 6.56694 3.60552 6.65885C3.53563 6.75075 3.5317 6.82584 3.4747 6.94104C3.41778 7.05368 3.29217 7.22324 3.27664 7.28408C3.26111 7.34493 3.23525 7.62968 3.20291 7.76434C3.17441 7.899 3.23525 8.06471 3.23525 8.06471L3.30898 8.0491C3.30898 8.0491 3.30898 8.14493 3.3828 8.2097C3.45652 8.2731 3.46949 7.99474 3.46949 7.99474L3.74521 7.06401L4.16069 6.78181L4.20601 6.55397L3.90956 6.37793H3.90973Z" fill="#F5EEC0"/>
<path fill-rule="evenodd" clip-rule="evenodd" d="M4.11836 6.80001C4.11836 6.80001 3.92286 6.81289 3.82712 6.88287C3.78829 6.91128 3.77276 6.93458 3.73137 6.96956C3.655 7.03297 3.57726 7.09125 3.5398 7.17436C3.49833 7.25714 3.45301 7.38275 3.42195 7.61963C3.40898 7.7193 3.40898 7.81121 3.39994 7.89151C3.38697 8.00022 3.3676 8.08692 3.37792 8.14751C3.39089 8.27175 3.51906 8.33652 3.53152 8.47758L3.79691 8.343L4.04676 7.35783L4.57754 7.02503L4.27716 6.68848L4.11802 6.79941L4.11836 6.80001Z" fill="#E6DB9D"/>
<path fill-rule="evenodd" clip-rule="evenodd" d="M2.71884 13.434C2.71994 13.4242 2.72105 13.4145 2.72216 13.4045C2.7609 13.0717 2.76748 12.8195 2.79589 12.6615C2.83728 12.4376 2.86578 12.3543 2.85929 12.2705C2.85025 12.136 2.83992 12.0376 2.85289 11.934C2.87226 11.7968 3.00692 11.6337 3.00308 11.521C3.00044 11.4317 2.95512 11.3735 2.9163 11.3192C2.87747 11.2648 2.84641 11.2195 2.84641 11.2195C2.84641 11.2195 3.1118 11.037 3.10924 10.3016C3.11465 10.3032 3.11987 10.3053 3.12477 10.3081L3.2555 10.6796L3.34484 10.7883L3.68788 11.4278L4.12931 11.8563L4.78168 12.2951L5.19077 12.7403L5.23216 13.9274L4.69754 14.6212L4.60999 14.7798C3.91442 14.4306 3.27657 13.9767 2.71875 13.4339L2.71884 13.434Z" fill="#E5CB7A"/>
<path fill-rule="evenodd" clip-rule="evenodd" d="M4.35156 14.5696C4.35156 14.5696 4.36061 14.4221 4.48229 14.3262C4.50175 14.3586 4.51463 14.3897 4.51079 14.4129C4.53281 14.3742 4.68684 14.1256 5.03508 14.0609C5.38333 13.9975 5.46747 13.7438 5.46747 13.7438L6.20654 13.0719L7.05185 12.2939L8.07969 11.9327L8.56003 11.8149C8.56003 11.8149 8.56908 11.8499 8.55099 11.9275C8.64024 11.9211 8.8383 11.8758 9.04413 11.8033C9.12699 11.7709 9.20473 11.758 9.24611 11.8007C9.30695 11.8576 9.316 11.9923 9.31984 12.0725C9.41951 12.0505 9.53471 11.9547 9.62704 11.9638C9.77467 11.9793 9.9054 12.1528 10.0556 12.1528C10.2536 12.1528 10.3429 12.0311 10.4815 11.9353C10.5643 11.8784 10.6834 11.8073 10.7507 11.7592C10.9112 11.6414 12.6096 11.1223 12.6096 11.1223L13.2051 11.1611L13.3009 11.8006L13.2497 13.4723C13.2434 13.4784 13.2371 13.4847 13.2307 13.4907L10.5232 14.9048L6.77025 15.4801C5.92957 15.3428 5.11831 15.0637 4.37102 14.6549L4.35182 14.5695L4.35156 14.5696Z" fill="#D8C173"/>
<path fill-rule="evenodd" clip-rule="evenodd" d="M2.94531 13.6466C2.99865 13.5351 3.0466 13.4418 3.05505 13.4084C3.06171 13.4757 3.07391 13.6232 3.09849 13.7801C3.04689 13.7362 2.99583 13.6917 2.94531 13.6465V13.6466Z" fill="#F1D789"/>
<path fill-rule="evenodd" clip-rule="evenodd" d="M5.6881 15.2197L6.17347 15.0847L6.21486 15.0977C6.21486 15.0977 6.23688 15.1107 6.23688 15.1546C6.29772 15.1197 6.34952 15.1261 6.38706 15.1029C6.40643 15.1443 6.4258 15.2815 6.51131 15.2983C6.60057 15.3178 6.6964 15.2595 6.79351 15.1858C6.88925 15.1094 6.99831 15.0136 7.08082 14.9747C7.1111 15.0304 7.13792 15.0879 7.16112 15.1469C7.26984 15.0602 7.45885 14.7081 7.72808 14.7145C7.80589 14.5306 7.93589 14.3735 8.10201 14.2627C8.35186 14.0932 8.50845 14.0802 8.70395 14.0957C8.7816 13.9949 8.87728 13.9093 8.98615 13.8433C9.01849 13.8563 9.10783 13.9106 9.21919 13.8588C9.33183 13.8071 9.45864 13.6064 9.62563 13.5806C9.71562 13.5682 9.80712 13.5874 9.88453 13.6349C9.88453 13.6349 10.3709 13.152 10.7066 12.9915C10.6936 12.9527 10.6677 12.8064 11.0612 12.4828C11.0832 12.5022 11.0677 12.5566 11.0832 12.5596C11.0896 12.5596 11.1856 12.5182 11.3071 12.4249C11.4573 12.3123 11.6372 12.1945 11.7459 12.1622C11.9507 12.1013 12.168 12.2256 12.168 12.2256C12.1864 12.2126 12.207 12.203 12.2288 12.1971C12.2805 12.188 12.3181 12.1815 12.3466 12.1715C12.344 12.2388 12.3816 12.354 12.3466 12.4537C12.3871 12.4765 12.43 12.4947 12.4746 12.508C12.4526 12.5559 12.4047 12.6776 12.3245 12.7359C12.3917 12.7682 12.4008 12.8057 12.4966 12.8383C12.4578 12.8926 12.3942 12.9859 12.3659 13.0431C12.3374 13.1039 12.235 13.3563 12.1897 13.4521C12.1419 13.5479 12.0772 13.7239 12.046 13.7593C12.0149 13.7946 11.9023 13.9443 11.8156 14.0181C11.8924 13.9896 12.2066 13.8938 12.3399 13.8576C12.3002 13.9158 12.0991 14.2142 11.9057 14.5011C10.9799 15.0561 9.94645 15.4073 8.87422 15.5314C7.80199 15.6555 6.71562 15.5497 5.6875 15.221L5.6881 15.2197Z" fill="#E0CD81"/>
<path fill-rule="evenodd" clip-rule="evenodd" d="M4.1448 6.7651C4.1448 6.7651 4.03224 6.7651 4.01023 6.78063C3.98821 6.79616 4.12287 6.82859 4.16425 6.84412C4.20564 6.85965 4.29498 6.93082 4.31828 6.98782C4.3403 7.04218 5.12733 7.35927 5.12733 7.35927L5.68396 7.33077L5.87587 7.06564L5.51081 6.7459L5.76681 5.99121L5.4277 6.04557L4.61217 6.53197L4.20308 6.68864L4.1448 6.7651Z" fill="#DFC57C"/>
<path fill-rule="evenodd" clip-rule="evenodd" d="M5.36889 7.01495C5.37694 7.02798 5.38827 7.03866 5.40175 7.04593C5.41523 7.05319 5.43039 7.05678 5.44569 7.05634C5.56089 7.05634 5.66696 7.08484 5.711 7.14304C5.78481 7.23631 5.98935 7.53404 5.98935 7.53404L6.47865 7.71008L6.51023 7.13391L5.97561 6.76245L5.36719 6.98637V7.01487H5.36855L5.36889 7.01495Z" fill="#E5CC7C"/>
<path fill-rule="evenodd" clip-rule="evenodd" d="M5.27113 7.22853C5.27113 7.22853 5.36039 7.23502 5.47303 7.19354C5.58567 7.15207 5.77076 7.06281 5.85106 7.0978C5.96361 7.14567 5.94032 7.29586 6.06209 7.4306C6.13582 7.51346 6.27047 7.5109 6.34685 7.60024C6.42322 7.68959 6.68596 7.64812 6.68596 7.64812L6.78563 8.18572L6.38567 8.6984L6.25486 9.33524H5.71401L5.21993 9.13923L4.97656 8.55043L5.09825 7.95497L5.27113 7.22853Z" fill="#D2C281"/>
<path fill-rule="evenodd" clip-rule="evenodd" d="M6.31885 7.25436C6.33227 7.2585 6.3462 7.26068 6.36024 7.26085C6.34471 7.27382 6.31228 7.30224 6.32525 7.37605C6.33822 7.44986 6.37961 7.54305 6.34471 7.59996C6.37257 7.63043 6.39335 7.66668 6.40555 7.70612C6.42757 7.76961 6.43405 7.8278 6.57767 7.83693C6.55694 7.84969 6.53783 7.86491 6.52075 7.88225C6.52075 7.88225 6.62042 7.96895 6.67094 8.04916C6.72265 8.04694 6.85987 8.00427 6.85987 8.00427L6.88837 8.02373L6.94921 7.99813C6.94921 7.99813 6.89229 7.97611 6.93368 7.83762C6.97251 7.71593 7.00749 7.72242 7.01048 7.71337C7.01347 7.70433 7.03898 7.57616 7.03898 7.52436C7.05835 7.45712 7.07388 7.25257 7.07388 7.25257L7.0325 6.80082L6.79954 6.65968L6.6101 6.47681L6.43141 6.81336L6.31373 6.93069L6.30469 7.22194L6.31885 7.25436Z" fill="#E2C270"/>
<path fill-rule="evenodd" clip-rule="evenodd" d="M6.88281 6.87636C6.88281 6.87636 6.9242 6.99412 6.93982 7.08474C6.94532 7.06713 6.94836 7.04884 6.94886 7.03039C6.94886 7.03039 6.9812 7.20907 6.9876 7.28289C7.00057 7.28024 7.0132 7.2764 7.0161 7.28929C7.019 7.30217 7.04853 7.44596 7.0417 7.52617C7.09561 7.43724 7.1702 7.36265 7.25913 7.30874C7.31093 7.27632 7.37177 7.24142 7.43526 7.23877C7.53493 7.23621 7.60738 7.30226 7.7265 7.30226C8.01382 7.30226 8.27409 7.09123 8.46566 7.02655C8.60672 6.97859 8.7284 6.94369 8.81382 6.86595C8.85529 6.83105 8.92911 6.75339 8.99635 6.63811C9.08569 6.48451 9.17888 6.35079 9.27215 6.33398C9.22995 6.34173 9.18702 6.34477 9.14415 6.34303C9.14415 6.34303 9.17265 6.31452 9.22095 6.2757C9.26924 6.23687 9.3271 6.189 9.40987 6.189C9.5575 6.189 9.63123 6.21093 9.71409 6.21093C9.79695 6.20837 9.84482 6.189 9.84482 6.189C9.84482 6.189 9.9316 6.24984 10.127 6.24984C10.3225 6.2524 10.4532 6.26921 10.5556 6.27834C10.6579 6.28747 11.0008 6.24984 11.0992 6.25274C11.1634 6.25522 11.2264 6.27063 11.2844 6.29806L10.9672 5.37646L9.82784 4.38062L9.14952 4.86087L8.10607 5.90424L7.0964 6.27834L6.88537 6.51523V6.87636H6.88281Z" fill="#CCB360"/>
<path fill-rule="evenodd" clip-rule="evenodd" d="M9.1447 6.34816C9.1447 6.34816 9.1732 6.31975 9.22098 6.28092C9.26877 6.24209 9.32722 6.19414 9.41 6.19414C9.55754 6.19414 9.63135 6.21615 9.71421 6.21615C9.79707 6.21359 9.84494 6.19414 9.84494 6.19414C9.84494 6.19414 9.93181 6.2549 10.1271 6.2549C10.3226 6.25746 10.4534 6.27427 10.5557 6.28331C10.658 6.29236 11.001 6.2549 11.0993 6.25771C11.1635 6.26013 11.2264 6.27554 11.2844 6.30302L11.1407 5.88745L10.9738 5.57035L10.4974 5.04862C10.4974 5.04862 9.92567 4.71207 9.92131 4.70951C9.91875 4.70695 9.72326 4.65515 9.72326 4.65515L9.20545 4.96841L8.73561 6.18398L8.72656 6.43998L9.03069 6.58368C9.10706 6.45568 9.19129 6.35328 9.27022 6.34031C9.19897 6.34808 9.14461 6.34808 9.14461 6.34808L9.1447 6.34816Z" fill="#D5B457"/>
<path fill-rule="evenodd" clip-rule="evenodd" d="M9.14224 6.43497C9.09692 6.43753 9.05946 6.42849 9.04905 6.39615C9.01023 6.28743 8.97916 6.2719 8.94665 6.2719C8.91414 6.2719 8.87028 6.34179 8.84425 6.34819C8.81823 6.35459 8.78734 6.26798 8.78734 6.26798L8.75883 6.255C8.75883 6.255 8.59184 6.36372 8.47408 6.49189C8.35632 6.62006 8.16338 6.83758 8.07668 6.87632C7.98998 6.91506 7.69217 6.92811 7.59028 6.95013C7.48839 6.97215 7.37541 7.04596 7.35988 7.06277C7.34435 7.07958 7.40528 7.09767 7.41432 7.11448C7.42337 7.13001 7.31457 7.12353 7.30552 7.14008C7.29912 7.15305 7.33112 7.22678 7.34699 7.26433C7.37477 7.25052 7.40524 7.243 7.43625 7.24231C7.53592 7.23975 7.60846 7.3058 7.7275 7.3058C8.0149 7.3058 8.27508 7.09477 8.46665 7.03C8.60779 6.98213 8.72948 6.94714 8.8149 6.86949C8.85628 6.83459 8.9301 6.75685 8.99743 6.64165C9.04658 6.56272 9.09454 6.4889 9.14249 6.43455L9.14224 6.43497Z" fill="#D2B257"/>
<path fill-rule="evenodd" clip-rule="evenodd" d="M5.01443 12.8415C5.01443 12.8415 4.98883 12.7456 4.7516 12.4984C4.68427 12.4285 4.64289 12.3704 4.59758 12.3289C4.48494 12.2226 4.41889 12.1942 4.33867 12.1334C4.16263 12.0026 3.97106 12.0026 3.82352 11.8421C3.67598 11.6816 3.50403 11.3749 3.38456 11.0615C3.2668 10.7482 3.23438 10.6486 3.23438 10.6395C3.23438 10.6305 3.2668 10.5696 3.30819 10.5787C3.34957 10.5877 3.34958 10.6679 3.35999 10.6874C3.38061 10.7191 3.40399 10.749 3.42987 10.7766C3.49072 10.8466 3.57742 10.9302 3.62145 11.055C3.6124 10.9488 3.57614 10.8311 3.57614 10.8311C3.57614 10.8311 3.80397 10.9748 3.99811 11.1249C4.19361 11.2751 4.27382 11.3269 4.33091 11.4226C4.388 11.5184 4.52248 11.7709 4.58691 11.8447C4.65134 11.9185 5.53411 12.1968 5.53411 12.1968L5.95403 12.5099L6.1625 12.9668L5.99935 13.2228L5.68609 13.2901L5.17733 13.0623L5.01443 12.8414V12.8415Z" fill="#D2B159"/>
<path fill-rule="evenodd" clip-rule="evenodd" d="M3.89062 11.2674C3.89062 11.2674 3.99678 11.4369 4.25568 11.5974C4.48873 11.7386 4.85762 11.8667 5.1865 11.9431C5.37542 11.9884 5.56444 12.0233 5.734 12.026C6.19096 12.0324 6.50549 11.9017 6.89521 11.859C7.10624 11.837 7.36514 11.8201 7.63437 11.7566C7.97997 11.6737 8.18451 11.5804 8.46287 11.4494C8.66477 11.3562 8.84994 11.2863 9.00004 11.197C9.21107 11.0727 9.3651 10.9342 9.54379 10.8928C9.52177 10.9537 9.49848 11.0624 9.32243 11.175C9.41562 11.1724 9.54379 11.166 9.54379 11.166C9.54379 11.166 9.41954 11.2397 9.20075 11.4054C9.06609 11.5078 8.88749 11.6811 8.70496 11.7963C8.58712 11.8701 8.45894 11.9243 8.37481 11.9685C8.17001 12.0812 8.0874 12.1381 7.95283 12.2757C8.00071 12.2732 8.00463 12.2757 8.00463 12.2757C8.00463 12.2757 7.83499 12.2977 7.71339 12.3624C7.68779 12.3624 7.64341 12.3534 7.56576 12.3754C7.50492 12.3948 7.42462 12.4389 7.34185 12.4621C7.224 12.4971 7.18526 12.4816 7.18526 12.4816L7.20463 12.5204C7.20463 12.5204 7.05103 12.5177 6.99983 12.5229C7.00888 12.5255 7.00632 12.5294 7.00632 12.5294C6.99732 12.5309 6.98866 12.534 6.98072 12.5385C6.95608 12.5544 6.92898 12.5662 6.9005 12.5734C6.88497 12.5759 6.872 12.5759 6.85255 12.5799C6.85903 12.5954 6.90955 12.6823 6.93284 12.7335C6.91347 12.7464 6.62215 12.9665 6.62215 12.9665C6.63118 12.9807 6.63857 12.9959 6.64416 13.0118C6.65321 13.0402 6.65713 13.0817 6.66618 13.1011C6.68811 13.1399 6.70108 13.1464 6.70108 13.1464C6.70108 13.1464 6.66618 13.1529 6.60525 13.1684C6.55354 13.1814 6.49005 13.2033 6.40045 13.2163C6.37296 13.2199 6.3453 13.222 6.31759 13.2228C6.33056 13.2513 6.38748 13.36 6.2826 13.4855C6.17773 13.611 6.14539 13.6293 6.11305 13.7095C6.09677 13.6972 6.07943 13.6863 6.06125 13.6771C6.02635 13.6615 5.97839 13.6383 5.96158 13.6072C5.95178 13.6487 5.9388 13.6894 5.92275 13.7289C5.89041 13.8156 5.84254 13.9011 5.83349 13.9658C5.79851 13.9269 5.73383 13.8506 5.64448 13.8661C5.55514 13.8816 5.48397 14.0033 5.46844 14.0383C5.46844 14.0163 5.45291 13.9995 5.44907 14.0253C5.44642 14.0538 5.39727 14.3515 5.12284 14.5923C5.12028 14.5314 5.12028 14.3968 5.11379 14.3528C5.08819 14.3784 5.05688 14.4162 4.87042 14.4965C4.68789 14.5767 4.71682 14.657 4.71682 14.657C4.71682 14.657 4.70129 14.529 4.79968 14.3942C4.89935 14.2596 4.96019 14.1962 4.96019 14.1858C4.95858 14.1753 4.9541 14.1655 4.94722 14.1573C4.93425 14.1444 4.9084 14.1288 4.9084 14.1185C4.92393 14.1121 5.07795 14.0383 5.06891 13.8855C5.05986 13.7483 5.00167 13.6771 4.96019 13.6266C4.95379 13.6202 5.02112 13.5723 5.01199 13.5568C5.00551 13.5477 4.92273 13.4868 4.91232 13.4544C4.91477 13.435 4.91911 13.4159 4.92529 13.3974C4.93434 13.3689 4.94082 13.3495 4.93826 13.3301C4.93178 13.2978 4.89679 13.2084 4.88647 13.1994C4.89551 13.2019 4.96019 13.1994 4.96019 13.1994C4.96019 13.1994 4.90848 13.1165 4.89935 13.0777C4.89022 13.0389 4.87085 12.9366 4.86052 12.9172C4.88254 12.9197 4.9369 12.9236 4.9369 12.9172C4.93954 12.8977 4.88902 12.8654 4.9113 12.8404C4.92683 12.8429 4.95661 12.8559 4.98503 12.8922C4.96949 12.8507 4.94364 12.7705 4.8892 12.7382C4.9148 12.7291 5.00184 12.7057 5.07821 12.751C5.15458 12.7964 5.18061 12.8598 5.18061 12.8598C5.18061 12.8598 5.22592 12.8947 5.29589 12.9465C5.37611 13.0099 5.47834 13.1001 5.64149 13.164C5.67648 13.1834 5.76574 13.1834 5.83051 13.1705C5.85871 13.1637 5.88575 13.1528 5.91072 13.1381C5.91974 13.1328 5.92929 13.1285 5.93922 13.1251C5.92531 13.0972 5.9093 13.0704 5.89135 13.0448C5.91337 13.0448 5.93922 13.0475 5.93922 13.0475C5.93922 13.0475 5.95475 13.0125 5.88487 12.9451C5.9004 12.9296 5.91985 12.9195 5.91985 12.8933C5.89784 12.8907 5.85901 12.8584 5.84996 12.8454C5.86285 12.8364 5.88231 12.8066 5.90432 12.7975C5.88487 12.782 5.83699 12.7172 5.81498 12.7108C5.83601 12.703 5.85636 12.6935 5.87582 12.6823C5.87582 12.6823 5.7671 12.6538 5.73212 12.6306C5.69713 12.605 5.64542 12.5607 5.61436 12.5477C5.58193 12.5347 5.52501 12.5283 5.50172 12.5024C5.52365 12.5089 5.55864 12.5024 5.58458 12.5024C5.60395 12.5024 5.61308 12.5049 5.61948 12.5049C5.61692 12.4959 5.61692 12.4764 5.66744 12.47C5.69173 12.4664 5.71531 12.4589 5.73732 12.448C5.73732 12.448 5.68937 12.4455 5.63492 12.3937C5.58048 12.3419 5.53525 12.3005 5.50419 12.294C5.47185 12.2875 5.41101 12.316 5.37346 12.3134C5.32167 12.307 5.29965 12.281 5.29965 12.281C5.29965 12.281 5.12753 12.2966 4.74567 12.0636C4.41551 11.8616 4.27181 11.683 4.27181 11.683C4.24091 11.6718 4.21105 11.6579 4.18255 11.6415C4.05831 11.5769 3.8861 11.4422 3.89131 11.2661L3.89062 11.2674Z" fill="#C2A44D"/>
<path fill-rule="evenodd" clip-rule="evenodd" d="M8.65341 3.49777C8.68336 3.5075 8.70997 3.52545 8.73021 3.54957C8.79105 3.61946 8.82988 3.75147 8.69138 3.89261C8.74574 3.91198 8.76818 3.91821 8.81563 3.91198C8.76775 3.96898 8.65904 4.09067 8.65255 4.19682C8.64607 4.28352 8.70043 4.30946 8.70043 4.30946C8.70043 4.30946 8.61757 4.40521 8.61373 4.56546C8.65286 4.52134 8.69568 4.48063 8.74173 4.44378C8.83756 4.3674 8.96957 4.2807 9.05891 4.22635C9.0577 4.24913 9.06077 4.27194 9.06796 4.29359C9.06796 4.29359 9.23487 4.15637 9.37516 4.2173C9.43856 4.2458 9.41006 4.33506 9.41006 4.33506C9.41006 4.33506 9.49684 4.30272 9.55768 4.36356C9.61853 4.42441 9.70454 4.58133 9.74866 4.64218C9.76803 4.67068 9.81855 4.72504 9.87026 4.80917C9.94091 4.92697 9.9999 5.05138 10.0464 5.18063C10.0489 5.1133 10.0658 5.00851 10.2574 5.07447C10.449 5.1418 10.6664 5.28294 10.8489 5.56087C11.0315 5.83881 11.0767 6.15258 11.1686 6.27204C11.2618 6.38724 11.3576 6.57882 11.3641 6.65912C11.3706 6.73941 11.3356 6.99823 11.5272 7.69856C11.5815 7.48113 11.6644 6.99823 11.6644 6.99823L11.7097 6.57233L11.7615 5.25453L10.3854 4.11132L9.30971 3.33069L8.60938 3.39802L8.65332 3.49769L8.65341 3.49777Z" fill="#CAA13E"/>
<path fill-rule="evenodd" clip-rule="evenodd" d="M11.2054 5.45882C11.2054 5.45882 11.1859 5.33082 10.8623 5.11322C10.5387 4.89835 10.2863 4.89835 10.0533 4.71583C9.87462 4.57212 9.68825 4.24197 9.5669 4.13325C9.44906 4.02582 9.42969 3.71512 9.42969 3.71512L9.82708 3.38232L10.4181 2.52805L10.9177 1.97791L11.1572 2.31071L11.49 2.70162L11.6751 3.48609L11.7424 4.63433L11.2048 5.45891L11.2054 5.45882Z" fill="#B59544"/>
<path fill-rule="evenodd" clip-rule="evenodd" d="M11.6103 6.83518C11.6201 6.66105 11.5986 6.48657 11.5468 6.32002C11.4614 6.05464 11.275 5.58342 11.1884 5.40696C11.1534 5.21146 11.1793 5.19593 11.2169 5.17391C11.2544 5.15189 11.3956 5.07151 11.4729 4.78948C11.5502 4.50746 11.7901 4.49824 11.7901 4.49824L11.9376 4.38953L12.1616 4.95L12.357 5.45619L12.4179 5.84326L12.4632 6.17333L12.357 6.8711L11.8328 7.34488L11.6102 6.83518H11.6103Z" fill="#C89D3A"/>
<path fill-rule="evenodd" clip-rule="evenodd" d="M4.28906 14.6124V14.598C4.29996 14.5912 4.30957 14.5826 4.31748 14.5724C4.32652 14.5595 4.33309 14.5439 4.33949 14.5401C4.35246 14.5336 4.41331 14.5145 4.44565 14.5206C4.47799 14.5268 4.56349 14.562 4.60881 14.5595C4.70199 14.5569 4.81071 14.4857 4.98291 14.5181C5.24181 14.566 5.30265 14.742 5.45284 14.8417C5.55524 14.9116 5.66122 14.8805 5.67675 14.8805H5.71165C5.71814 14.8805 5.76601 14.8261 5.79195 14.8288C5.84375 14.8313 5.84887 14.8741 5.88121 14.8767C5.95758 14.8857 6.10521 14.8378 6.17903 14.8573C6.20091 14.8641 6.22082 14.8762 6.23704 14.8924C6.25327 14.9086 6.26533 14.9285 6.27221 14.9504C6.28774 14.9983 6.27477 15.0591 6.23722 15.0941C6.15701 15.1678 6.08064 15.2378 6.06511 15.2989C6.08486 15.3139 6.10383 15.33 6.12194 15.347C5.48144 15.1838 4.8652 14.9371 4.28906 14.6131V14.6124Z" fill="#CEB052"/>
<path fill-rule="evenodd" clip-rule="evenodd" d="M11.1875 12.026C11.1875 12.026 11.3894 11.7568 11.4594 11.6234C11.5293 11.4859 11.238 9.74512 11.238 9.74512L11.8231 7.82802L11.8075 7.20406C11.8075 7.20406 11.836 6.62797 11.9034 6.37812C11.9837 6.52182 12.2335 6.6953 12.2879 6.78721C12.3135 6.61108 12.4004 6.23962 12.3875 5.84351C12.4354 5.91723 12.5506 6.65904 12.5506 6.65904L12.6658 7.15866L12.816 7.68944L12.983 8.24999L13.0827 8.63706L13.1396 8.73025L13.1875 8.89332L13.2329 9.06945L13.3636 9.48237L13.4404 9.82149L13.5012 10.4364C13.5145 10.4835 13.524 10.5315 13.5297 10.5801C13.5323 10.6474 13.5207 10.6863 13.5207 10.6979C13.5207 10.7096 13.5427 10.8455 13.5337 10.9478C13.5207 11.0502 13.5207 11.1303 13.4404 11.2038C13.3601 11.2773 13.3097 11.7164 13.3097 11.7164L13.166 11.6207C13.166 11.6207 13.1945 11.4898 13.1271 11.3708C13.0598 11.2518 12.9291 11.2271 12.8553 11.2466C12.7815 11.2621 12.634 11.2853 12.586 11.3268C12.5407 11.3682 12.4294 11.4963 12.3271 11.5546C12.1991 11.6314 11.9906 11.6375 11.8793 11.6633C11.7667 11.6889 11.6424 11.7657 11.5116 11.8549C11.409 11.9213 11.3007 11.9784 11.188 12.0256L11.1875 12.026Z" fill="#CCA847"/>
<path fill-rule="evenodd" clip-rule="evenodd" d="M11.1875 14.8544C11.1875 14.8544 11.196 14.86 11.2125 14.869C12.1322 14.4381 12.9562 13.8274 13.636 13.0727C13.6285 12.8108 13.6189 12.5422 13.6083 12.4427C13.5864 12.2317 13.6019 12.0168 13.5954 11.8926C13.589 11.7683 13.5191 11.2621 13.4867 11.1314C13.4517 11.0007 13.3843 10.9359 13.3741 10.9359C13.365 10.9386 13.3106 11.1819 13.3106 11.2431C13.3106 11.3043 13.2976 11.4516 13.2976 11.4891C13.2886 11.4865 13.2847 11.4635 13.2847 11.4541C13.2718 11.4865 13.2562 11.5435 13.2498 11.55C13.2433 11.5565 13.2588 11.4956 13.2498 11.4826C13.2407 11.4697 13.2242 11.4762 13.2277 11.4438C13.2293 11.4246 13.2323 11.4056 13.2368 11.3869C13.2368 11.3869 13.198 11.4438 13.1695 11.5888C13.141 11.7325 13.141 11.7364 13.1307 11.7493C13.1217 11.7649 13.0699 11.8166 13.0672 11.8361C13.0647 11.871 13.1152 11.906 13.119 11.9254C13.1216 11.9578 13.0737 12.1079 13.0582 12.1814C13.0426 12.2548 13.0491 12.3988 13.0326 12.4726C13.0196 12.5399 13.007 12.5788 12.9627 12.6072C12.995 12.6137 13.0261 12.6227 13.0261 12.6227C13.0261 12.6227 13.0714 12.8143 12.9562 12.9774C12.9148 13.0343 12.9045 13.0603 12.8605 13.1121C12.7737 13.2078 12.7063 13.3169 12.6999 13.3878C12.6954 13.3669 12.6924 13.3457 12.6908 13.3243C12.6908 13.3243 12.5562 13.481 12.4992 13.5703C12.4255 13.6855 12.3232 13.679 12.2944 13.7075C12.2657 13.736 12.2595 13.7878 12.2688 13.8292C12.2432 13.8356 12.1951 13.8448 12.1627 13.9444C12.1472 13.9961 12.1083 14.0468 12.0475 14.0816C11.9866 14.1165 11.9128 14.127 11.8753 14.136C11.9076 14.145 11.9206 14.145 11.9361 14.1554C11.9168 14.1877 11.8274 14.2382 11.7277 14.303C11.6281 14.3638 11.5801 14.4531 11.5555 14.5114C11.5299 14.5657 11.4921 14.6007 11.4313 14.6072C11.4569 14.6227 11.4948 14.6589 11.5142 14.6706C11.4857 14.6771 11.4374 14.6771 11.3511 14.7509C11.2605 14.826 11.2294 14.848 11.1879 14.8545L11.1875 14.8544Z" fill="#C39D3C"/>
<path fill-rule="evenodd" clip-rule="evenodd" d="M9.38324 15.4543C9.43281 15.4196 9.48649 15.3911 9.54307 15.3696C9.74497 15.2893 9.95856 15.2738 10.0427 15.248C10.123 15.2224 10.1864 15.187 10.2861 15.1677C10.2834 15.1904 10.2812 15.2117 10.2788 15.2318C9.98497 15.3242 9.68574 15.3985 9.38281 15.4543H9.38324Z" fill="#D2BA6B"/>
<path fill-rule="evenodd" clip-rule="evenodd" d="M13.1078 10.1438C13.1078 10.1438 13.0664 10.3677 12.9926 10.5088C12.9187 10.65 12.839 10.8454 12.839 10.8454C12.8394 10.8014 12.8446 10.7575 12.8545 10.7146C12.7613 10.7689 12.5347 10.8998 12.4705 10.958C12.4096 11.0123 12.3073 11.1081 12.2815 11.1535C12.3423 10.9748 12.4057 10.8143 12.4161 10.7405C12.3229 10.8079 11.8879 11.1664 11.6614 11.4033L10.9559 11.9742C10.8745 12.0181 10.7906 12.0574 10.7048 12.0918C10.5832 12.1435 10.4395 12.1875 10.3333 12.229C10.3618 12.1526 10.407 12.0852 10.4705 12.0205C10.5379 11.9571 10.7398 11.7383 10.7708 11.6365C10.7993 11.5304 10.8058 11.467 10.7683 11.3776C10.7333 11.3867 10.6531 11.3906 10.5987 11.4061C10.5443 11.4217 10.4861 11.4799 10.4861 11.4799C10.4861 11.4799 10.5274 11.243 10.6168 11.0191C10.5495 11.0216 10.4343 11.041 10.4343 11.041C10.4343 11.041 10.5948 10.7718 10.8695 10.5841C10.7853 10.602 10.703 10.6275 10.6235 10.6604C10.463 10.7277 10.287 10.8274 10.1562 10.8817C10.23 10.7793 10.7478 10.0404 11.0559 9.35164C11.3631 8.66428 11.4779 8.48823 11.5452 8.11934C11.5801 7.93681 11.5708 7.66707 11.5801 7.42549C11.5892 7.18596 11.6189 6.97109 11.5996 6.82739C11.6798 6.92706 11.9802 7.20798 11.9905 7.83586C11.9995 8.46366 11.7032 9.31162 11.3885 9.76849C11.4653 9.79051 11.6643 9.81645 11.8688 9.46129C12.0733 9.10613 12.0708 9.00698 12.1446 8.85935C12.1536 8.93316 12.151 8.95902 12.151 8.95902C12.151 8.95902 12.4488 8.59789 12.5899 8.14349C12.6184 8.33899 12.7025 8.51119 12.5704 8.86976C12.4527 9.19334 12.2986 9.27236 12.2986 9.27236C12.2986 9.27236 12.375 9.25939 12.4876 9.19206C12.507 9.23994 12.5032 9.29446 12.5355 9.31375C12.5679 9.33303 12.6119 9.36555 12.6184 9.39661C12.6533 9.34481 12.7076 9.27876 12.7245 9.22961C12.7116 9.33201 12.7025 9.77976 12.7501 10.0076C12.8499 9.99855 12.9521 9.99206 13.022 9.8121C12.9741 9.98822 12.9741 10.0943 13.0065 10.2445C13.0595 10.2083 13.1074 10.1435 13.1074 10.1435L13.1078 10.1438Z" fill="#C0993A"/>
<path fill-rule="evenodd" clip-rule="evenodd" d="M9.74247 3.00845C9.74247 3.00845 9.6428 3.04984 9.47324 3.04984C9.3257 3.04984 9.36709 2.99292 9.13669 2.99292C8.78204 2.99292 7.54317 3.19772 7.32566 3.19482C7.18452 3.19226 7.80199 3.25566 7.80199 3.25566L9.38006 3.27768L9.69716 3.25208L9.815 3.01229L9.74247 3.00845Z" fill="#A88F33"/>
<path fill-rule="evenodd" clip-rule="evenodd" d="M5.64806 6.09324C5.64806 6.09324 5.44607 6.24727 5.36065 6.36511C5.27523 6.48296 5.22992 6.56053 5.13281 6.65636C5.15561 6.65722 5.17838 6.65416 5.20014 6.64731C5.20014 6.64731 5.20014 6.67291 5.18461 6.67965C5.19803 6.67815 5.21162 6.67967 5.22437 6.6841C5.23713 6.68853 5.24874 6.69576 5.25834 6.70525C5.22984 6.72078 5.15218 6.79852 5.21303 6.89042C5.25834 6.96031 5.35417 6.96671 5.35417 6.96671C5.35417 6.96671 5.33215 7.0302 5.42406 7.02372C5.62211 7.01467 5.84347 6.92789 5.9457 6.9499C6.0481 6.9755 6.1063 6.98489 6.17874 7.1105C6.25554 7.23474 6.32244 7.2542 6.32244 7.2542C6.32244 7.2542 6.36776 7.13892 6.35743 6.9668C6.39458 6.87402 6.41518 6.77545 6.41827 6.67556L6.35095 6.17977L6.05714 5.80823L5.67656 6.01926L5.64806 6.09298V6.09324Z" fill="#E3C571"/>
<path fill-rule="evenodd" clip-rule="evenodd" d="M6.01562 6.0194C6.01562 6.0194 6.04413 6.08673 6.16325 6.09313C6.15028 6.12163 6.15028 6.12556 6.15421 6.14749C6.15677 6.1695 6.16061 6.20185 6.16061 6.20185C6.17372 6.1955 6.18558 6.18683 6.19559 6.17625C6.20208 6.20475 6.18911 6.24997 6.19559 6.2824C6.19959 6.30212 6.2061 6.32125 6.21496 6.33932C6.21685 6.33489 6.21902 6.33059 6.22145 6.32643C6.22401 6.31995 6.24705 6.39632 6.31079 6.45443C6.31074 6.4455 6.31294 6.43669 6.31719 6.42883C6.31817 6.44506 6.32354 6.46073 6.33272 6.47414C6.32795 6.47187 6.3236 6.46881 6.31984 6.4651C6.31984 6.4651 6.32624 6.6699 6.36123 6.7758C6.36707 6.76896 6.37227 6.76159 6.37676 6.75378C6.37676 6.74738 6.3742 6.81078 6.36771 6.85618C6.35867 6.90149 6.36515 6.9649 6.36515 6.9649C6.38849 6.94652 6.41414 6.93129 6.44144 6.91958C6.48026 6.90397 6.54384 6.8561 6.58258 6.74994C6.60505 6.68982 6.62238 6.62791 6.63438 6.56485C6.64689 6.58895 6.65553 6.61487 6.65998 6.64165C6.66262 6.674 6.72347 6.65718 6.72347 6.65718L6.73644 6.51604L6.81324 6.1963L6.88312 5.99824L7.21968 5.47404L7.82776 5.00573L8.35854 5.12741L8.80637 4.51899L8.03487 4.05554L7.30476 4.13192L6.64214 5.04968L6.11145 5.8821L6.01562 6.01932V6.0194Z" fill="#D8B65B"/>
<path fill-rule="evenodd" clip-rule="evenodd" d="M9.83622 4.6913C9.83622 4.6913 9.79091 4.70034 9.66018 4.7681C9.52945 4.83585 9.43882 4.85736 9.38831 4.95703C9.33779 5.0567 9.33395 5.13572 9.33395 5.13572C9.33395 5.13572 9.42329 5.09689 9.47509 5.08392C9.52945 5.07103 9.59029 5.07487 9.58381 5.09689C9.57758 5.11198 9.56893 5.12596 9.55821 5.13828C9.55821 5.13828 9.6606 5.13572 9.65787 5.18623C9.65514 5.23675 9.6385 5.29239 9.61913 5.31696C9.59968 5.34256 9.51946 5.38045 9.51042 5.41023C9.4884 5.47108 9.51946 5.47364 9.50777 5.52279C9.49873 5.57074 9.45606 5.66393 9.3162 5.827C9.1725 5.99016 9.1114 6.10536 9.1114 6.10536C9.1114 6.10536 9.04151 5.97463 9.00524 5.86199C8.97965 5.87487 8.84217 5.95125 8.84217 5.95125L8.52371 4.84191L8.53011 4.7681C8.53011 4.7681 8.55861 4.7332 8.5651 4.66843C8.51722 4.6529 8.51074 4.63993 8.44725 4.57917C8.38376 4.51841 8.33205 4.44452 8.22598 4.394C8.21045 4.3655 8.19099 4.32676 8.11334 4.31114C8.03569 4.29552 7.9891 4.28272 7.9891 4.28272C7.9891 4.28272 8.03048 4.26711 8.04994 4.23477C8.00198 4.24125 7.96324 4.25678 7.85836 4.25422C7.75221 4.25158 7.74052 4.24774 7.68232 4.25678C7.62412 4.26583 7.55432 4.29177 7.5283 4.20242C7.49979 4.18041 7.43895 4.19986 7.38715 4.27615C7.33536 4.35244 7.31727 4.41337 7.2176 4.44315C7.21059 4.48708 7.19521 4.52926 7.17229 4.5674C7.14378 4.61535 7.09847 4.66322 7.03763 4.73439C6.9418 4.84703 6.95733 5.03212 6.80458 5.17326C6.65056 5.31432 6.83018 4.78226 6.83018 4.78226L7.07611 4.19346L7.77645 3.50866L8.86385 3.43494L8.97 3.99814L9.50078 4.18066L9.83605 4.69198L9.83622 4.6913Z" fill="#D3AE4D"/>
<path fill-rule="evenodd" clip-rule="evenodd" d="M10.0086 4.81557L9.55163 4.15671L9.23188 3.9107C9.23188 3.9107 9.00404 3.49137 8.98851 3.4784C8.97554 3.46935 8.76067 3.44606 8.62346 3.43701L8.64906 3.50041C8.679 3.51014 8.70561 3.52809 8.72586 3.55221C8.7867 3.6221 8.82552 3.75411 8.68703 3.89525C8.74139 3.91462 8.76383 3.92085 8.81127 3.91462C8.7634 3.97163 8.65469 4.09331 8.6482 4.19947C8.64172 4.28616 8.69607 4.31202 8.69607 4.31202C8.69607 4.31202 8.61321 4.40785 8.60938 4.56802C8.6485 4.52389 8.69133 4.48318 8.73738 4.44633C8.8332 4.36953 8.96522 4.28318 9.05456 4.22882C9.05334 4.25163 9.05641 4.27447 9.0636 4.29615C9.0636 4.29615 9.23052 4.15893 9.3708 4.21977C9.43421 4.24828 9.40571 4.33762 9.40571 4.33762C9.40571 4.33762 9.49249 4.30528 9.55333 4.36612C9.61417 4.42696 9.70087 4.58355 9.74491 4.64448C9.76428 4.67298 9.81479 4.72734 9.86651 4.81139C9.93717 4.92921 9.99616 5.05365 10.0426 5.18293C10.0452 5.13113 10.0556 5.05869 10.145 5.05869L10.0091 4.81532L10.0086 4.81557Z" fill="#CAA13E"/>
<path fill-rule="evenodd" clip-rule="evenodd" d="M3.155 6.68738C3.155 6.68738 3.12266 6.60708 3.155 6.45049C3.18734 6.2939 3.23786 6.22009 3.25467 5.98969C3.27148 5.75929 3.42167 5.47189 3.42167 5.47189L3.83715 5.28296L4.13104 5.36317L4.21774 5.75673L3.8462 5.96153C3.8462 5.96153 3.82683 6.04823 3.72195 6.11812C3.61708 6.188 3.4721 6.24236 3.4372 6.31362C3.41633 6.35725 3.40111 6.40336 3.39188 6.45083C3.39188 6.45083 3.28573 6.42882 3.22233 6.4987C3.155 6.56996 3.15756 6.63336 3.155 6.68772V6.68738Z" fill="#F4EFC8"/>
<path fill-rule="evenodd" clip-rule="evenodd" d="M3.99611 6.58254C3.99611 6.58254 3.96112 6.60455 3.93527 6.65934C3.90967 6.61795 3.84848 6.37193 3.84592 6.15058C3.84336 5.92922 3.83014 5.87435 3.88134 5.79807C3.93254 5.72178 4.13333 5.64139 4.10482 5.50401C4.07632 5.37328 3.9572 5.31892 3.81094 5.35647C3.70854 5.38207 3.63233 5.59984 3.52618 5.70855C3.44588 5.79141 3.35014 5.77844 3.32428 5.82375C3.28929 5.88459 3.32163 5.94544 3.31131 5.98426C3.30866 5.99723 3.27632 6.06712 3.21804 6.15126C3.10028 6.32082 2.90094 6.56035 2.875 6.77522C2.88405 6.65353 2.87765 6.65097 2.90999 6.51632L2.89053 6.48398L3.01853 6.06456L3.10139 5.71896L3.28656 5.14023L3.61271 4.5487L3.92989 4.19397L4.25996 4.21599L4.29879 4.71177L4.4878 5.64259L4.8852 6.13189L4.24827 6.56052L3.99585 6.58254H3.99611Z" fill="#EBCC73"/>
<path fill-rule="evenodd" clip-rule="evenodd" d="M4.1964 6.75838C4.1964 6.75838 4.14204 6.77135 4.12259 6.76102C4.10313 6.7507 4.08385 6.73901 4.09025 6.72603C4.09665 6.71306 4.13163 6.69113 4.13163 6.68072C4.13235 6.67132 4.12938 6.662 4.12334 6.65475C4.1173 6.6475 4.10867 6.64289 4.09929 6.6419C4.06951 6.63806 4.06047 6.65743 4.06047 6.65743C4.06047 6.65743 4.03196 6.6355 4.00875 6.63183C4.02249 6.63015 4.0363 6.62926 4.05014 6.62918C4.01437 6.61298 3.97642 6.60208 3.9375 6.59684C3.96984 6.57747 4.03333 6.52047 4.07472 6.52047C4.1161 6.52047 4.14204 6.51407 4.13556 6.49205C4.12907 6.47003 4.09673 6.43769 4.06183 6.42472C4.07472 6.40919 4.08385 6.3859 4.05279 6.32232C4.02036 6.25892 4.03333 6.21617 4.04374 6.20072C4.05279 6.18127 4.08513 6.14637 4.10066 6.12435C4.11619 6.10233 4.12916 6.07255 4.15501 6.05702C4.16799 6.04798 4.20937 6.03142 4.25084 6.01563C4.29616 6.0001 4.3337 5.98065 4.35956 6.0001C4.38806 6.01947 4.37509 6.04542 4.37509 6.04542C4.37509 6.04542 4.46443 6.01299 4.54465 6.05446C4.62495 6.0932 4.82044 6.11786 4.82044 6.11786L4.8905 6.25901L4.42706 6.6564L4.23548 6.75223L4.19666 6.75863L4.1964 6.75838Z" fill="#E5C66B"/>
<path fill-rule="evenodd" clip-rule="evenodd" d="M4.84261 6.10874C4.84261 6.10874 4.69891 6.20457 4.66657 6.23947C4.68594 6.24212 4.71828 6.25509 4.70531 6.27446C4.68978 6.29383 4.5966 6.36116 4.5448 6.42464C4.49044 6.48805 4.43865 6.56835 4.42055 6.60717C4.40118 6.64207 4.25356 6.74439 4.20312 6.75727C4.30928 6.75727 4.52287 6.62654 4.60308 6.62654C4.60052 6.66537 4.6251 6.7094 4.67041 6.71324C4.71572 6.71708 4.84645 6.74174 5.0225 6.63303C5.19854 6.52687 5.14034 6.44785 5.21407 6.39614C5.35521 6.30287 5.41213 6.22001 5.48978 6.1683C5.56743 6.11659 5.60763 6.10481 5.60763 6.10481C5.60763 6.10481 5.61019 6.06599 5.63323 6.06991C5.63953 6.07064 5.64552 6.07307 5.65054 6.07695C5.65557 6.08083 5.65944 6.08601 5.66173 6.09193C5.66173 6.09193 5.79638 5.9961 5.96893 5.97024C5.9649 5.96844 5.96168 5.96522 5.95988 5.9612C5.95988 5.9612 5.97277 5.95471 5.97541 5.94823C5.97541 5.94823 5.98446 5.93526 5.99094 5.94174C5.99743 5.94823 6.00647 5.9961 6.01945 6.01556C6.04795 6.00259 6.1023 5.8809 6.1023 5.8809L6.23312 5.5068V5.16504L6.13072 5.18449L5.36272 5.51064L4.89663 5.99354L4.84227 6.10874H4.84261Z" fill="#E6BD62"/>
<path fill-rule="evenodd" clip-rule="evenodd" d="M7.047 4.43241C7.08854 4.42233 7.12837 4.40617 7.16519 4.38445C7.14966 4.42592 7.14966 4.47123 7.08233 4.56962C7.015 4.66801 7.01244 4.68226 6.95808 4.78449C6.90373 4.89065 6.89724 5.04339 6.84544 5.11064C6.86866 5.09936 6.89357 5.09195 6.91917 5.08871C6.91917 5.08871 6.86746 5.13402 6.84544 5.18189C6.82343 5.22976 6.7846 5.32943 6.68886 5.39036C6.59311 5.45129 6.47134 5.49003 6.34061 5.63373C6.2098 5.77479 6.07523 5.95347 6.00781 6.01773C6.0428 5.95689 6.09067 5.8352 6.10364 5.75499C6.11661 5.67478 6.101 5.57886 6.12301 5.47279C6.14503 5.36672 6.14503 5.29026 6.25101 5.10509C6.357 4.91992 6.53842 4.27659 6.53842 4.27659L6.92933 4.15234L7.04717 4.43198L7.047 4.43241Z" fill="#B6933F"/>
<path fill-rule="evenodd" clip-rule="evenodd" d="M6.76674 4.19547C6.76674 4.19547 6.64898 4.36503 6.61664 4.51521C6.5843 4.6654 6.614 4.65243 6.59463 4.72624C6.58304 4.77125 6.58304 4.81845 6.59463 4.86346C6.63541 4.79776 6.69125 4.74271 6.75753 4.70286C6.86889 4.63562 6.95951 4.58766 7.01353 4.53074C7.06789 4.4699 7.1132 4.37023 7.23096 4.29386C7.18309 4.28737 7.11576 4.26536 7.10296 4.26826C7.15091 4.2139 7.29453 4.13104 7.43951 4.03137C7.58321 3.92897 7.57417 3.88767 7.80721 3.78544C7.73084 3.79841 7.69457 3.77896 7.63109 3.78544C7.65669 3.73109 7.74629 3.70514 7.83589 3.61589C7.92549 3.52663 7.77897 3.39453 7.77897 3.39453L7.0963 3.80746L6.76623 4.19581L6.76674 4.19547Z" fill="#C49937"/>
<path fill-rule="evenodd" clip-rule="evenodd" d="M4.91406 3.88733L4.92959 3.76309L5.12509 3.44983L5.32964 2.89969V2.14756L5.31411 1.71261L5.34645 1.42777L5.37102 1.33723L5.39696 1.30225L5.56388 1.38894L5.79436 1.7022L5.81638 2.30679L5.59238 3.26082L4.95289 3.95859L4.91406 3.88733Z" fill="#DFC068"/>
<path fill-rule="evenodd" clip-rule="evenodd" d="M5.42642 1.26725C5.42642 1.26725 5.32402 1.26989 5.30217 1.69579C5.28033 2.12169 5.26975 2.3456 5.25422 2.55663C5.23869 2.76766 5.2025 2.89575 5.18433 3.02008C5.16615 3.14441 5.15583 3.31388 5.09763 3.41748C5.07203 3.46535 5.01733 3.61553 4.88916 3.72817C4.74546 3.85242 4.53076 3.9392 4.49825 3.94569C4.44125 3.95857 4.15256 3.98708 4.0348 4.05184C3.99342 4.07386 3.92216 4.09972 3.84323 4.17353C3.68656 4.31459 3.47817 4.567 3.32799 4.87121C3.09759 5.32561 2.86719 6.60843 2.86719 6.60843L2.91898 6.52173C2.91898 6.52173 2.92547 6.40653 3.04067 6.20455C3.15331 6.00265 3.12097 5.77609 3.27756 5.38902C3.3384 5.24148 3.41477 5.0499 3.50796 4.88675C3.65558 4.62136 3.83418 4.39352 4.01415 4.26927C4.30796 4.06737 4.63162 4.02334 4.63162 4.02334L4.97987 3.79294C4.97987 3.79294 5.04071 3.67518 5.12101 3.54053C5.23357 3.3516 5.37701 3.14057 5.40833 2.8338C5.45629 2.3794 5.341 2.08167 5.34749 1.81244C5.35397 1.54321 5.35653 1.34516 5.41097 1.2972C5.46542 1.24924 5.42651 1.26742 5.42651 1.26742L5.42642 1.26725Z" fill="#A88F33"/>
<path fill-rule="evenodd" clip-rule="evenodd" d="M5.42595 3.29968C5.42595 3.29968 5.57955 2.92165 5.64986 2.58638C5.66284 2.51905 5.68869 2.45181 5.69518 2.39745C5.72752 2.08026 5.73656 1.94953 5.69518 1.77605C5.66284 1.64805 5.53859 1.53268 5.47382 1.44325C5.41042 1.34998 5.38064 1.31525 5.39361 1.29562C5.40658 1.276 5.45701 1.24391 5.50616 1.24775C5.55841 1.24927 5.6098 1.2614 5.65722 1.28341C5.70463 1.30541 5.74707 1.33683 5.78196 1.37575C5.88163 1.49095 5.96056 1.88195 5.96056 1.88195L6.04359 2.39787L6.25462 3.04769L5.42612 3.30019L5.42595 3.29968Z" fill="#C99E3D"/>
<path fill-rule="evenodd" clip-rule="evenodd" d="M6.86922 2.90624C6.86922 2.90624 6.84071 2.91912 6.789 2.90624C6.79121 2.92737 6.78754 2.9487 6.7784 2.96788C6.76926 2.98706 6.75501 3.00335 6.73721 3.01495C6.68285 2.99294 6.17401 3.03697 6.17401 3.03697C6.17401 3.03697 5.93712 2.9955 5.86331 2.68224C5.81159 2.47377 5.90213 2.18645 5.87235 1.99744C5.82704 1.71908 5.76364 1.66464 5.75715 1.57802C5.75067 1.49141 5.74418 1.46931 5.74418 1.41495C5.71568 1.40847 5.69887 1.39942 5.67045 1.39942C5.66397 1.37382 5.67685 1.35146 5.64844 1.30615C5.66397 1.31264 5.77012 1.32561 5.89437 1.44337C5.99677 1.5392 5.99677 1.5741 6.01221 1.59356C6.03158 1.61293 6.18826 1.74716 6.25558 1.88096C6.32291 2.01476 6.45364 2.44143 6.48342 2.51132C6.49247 2.53982 6.51193 2.56832 6.56022 2.633C6.63532 2.72627 6.74531 2.88047 6.86956 2.90607L6.86922 2.90624Z" fill="#B58634"/>
<path fill-rule="evenodd" clip-rule="evenodd" d="M6.03125 1.59998C6.10967 1.72665 6.18012 1.85809 6.24219 1.99353C6.31857 2.16565 6.36388 2.30679 6.45971 2.42199C6.40791 2.27189 6.31601 1.97672 6.26165 1.87185C6.20081 1.76091 6.07656 1.64145 6.03125 1.60006V1.59998Z" fill="#A88F33"/>
<path fill-rule="evenodd" clip-rule="evenodd" d="M5.14699 3.72823C5.14699 3.72823 5.01626 3.76058 4.77289 3.88875C4.69259 3.93013 4.6163 3.96503 4.54249 3.99746C4.35074 4.08416 4.14509 4.16429 3.98193 4.20849C3.9949 4.22402 4.0013 4.23042 4.0013 4.23042C4.0013 4.23042 4.0013 4.29391 4.03629 4.33009C4.01692 4.34955 3.75793 4.52559 3.83439 5.11456C3.8861 5.09519 3.94695 5.06925 3.95599 5.06925C3.97161 5.07189 3.97545 5.11456 3.99482 5.11456C4.01419 5.11456 4.07768 5.08896 4.145 5.00192C4.14244 5.03691 4.10362 5.38899 4.312 5.62588C4.35083 5.58057 4.44922 5.43038 4.44922 5.43038L4.45178 5.38251C4.45178 5.38251 4.46082 5.21551 4.51527 5.06276C4.56971 4.91002 4.67578 4.79738 4.67578 4.79738L5.22968 4.00642L5.14682 3.72815L5.14699 3.72823Z" fill="#E6C367"/>
<path fill-rule="evenodd" clip-rule="evenodd" d="M4.62887 4.88962C4.60351 4.90754 4.57557 4.92149 4.54601 4.93101C4.53696 4.89866 4.52399 4.7873 4.60036 4.67859C4.68971 4.54777 4.88512 4.37822 4.93948 4.24339C4.97447 4.15661 4.95894 3.93918 5.26963 3.66082C5.58033 3.38246 5.70193 3.28672 5.70193 3.28672L6.2042 3.0343L6.82168 3.27767L6.5149 4.48002L6.27674 5.04322L5.32954 4.86462L4.62878 4.88962H4.62887Z" fill="#DCBA5A"/>
<path fill-rule="evenodd" clip-rule="evenodd" d="M4.99219 4.56308L5.11003 4.41554V4.31066C5.11003 4.31066 5.24076 4.27568 5.38182 4.13198C5.52288 3.98827 5.71837 3.71256 5.89058 3.72937C6.06278 3.74883 6.07959 4.10347 6.08608 4.20323C6.09256 4.30298 6.11458 4.52937 6.14948 4.65114C6.1883 4.77283 5.73006 5.23363 5.73006 5.23363L5.41885 5.47051L4.99219 4.56308Z" fill="#E9CE77"/>
<path fill-rule="evenodd" clip-rule="evenodd" d="M5.35938 5.79161C5.35938 5.79161 5.4552 5.64142 5.38498 5.60908C5.42636 5.51589 5.50274 5.4175 5.50274 5.4175C5.50274 5.4175 5.55709 5.28293 5.73314 5.11722C5.90918 4.9515 6.01798 4.84142 6.04648 4.73014C6.06405 4.65762 6.07361 4.58339 6.07498 4.50879C6.09401 4.52434 6.11437 4.53819 6.13582 4.55018C6.16432 4.56315 6.2989 4.67442 6.27952 4.89842C6.26015 5.12242 6.17712 5.21561 6.17712 5.21561C6.17712 5.21561 6.09691 5.29582 6.03999 5.33729C5.97907 5.37868 5.95713 5.42655 5.85482 5.43047C5.86534 5.42211 5.87716 5.41554 5.88981 5.41102C5.88981 5.41102 5.78365 5.39813 5.72665 5.44985C5.66965 5.50156 5.54847 5.66087 5.48763 5.70883C5.42679 5.74766 5.35963 5.79169 5.35963 5.79169L5.35938 5.79161Z" fill="#CDAE50"/>
<path fill-rule="evenodd" clip-rule="evenodd" d="M9.66355 3.27376C9.51061 3.21802 9.34988 3.18658 9.18722 3.18058C8.91534 3.17153 8.51795 3.18706 8.12831 3.18962C7.7089 3.19218 7.32831 3.04592 6.80019 3.02006C6.71349 2.96827 6.49299 2.74171 5.80469 3.22196C5.84607 3.2194 6.3044 3.11581 6.46355 3.31523C6.62406 3.51329 6.57875 3.84984 6.55682 3.93006C6.51534 4.10875 6.38069 4.36893 6.32642 4.55146C6.27214 4.73398 6.28494 4.8299 6.24612 4.9579C6.20729 5.0859 6.12187 5.14947 6.1723 5.29701C6.23963 5.25563 6.2747 5.25563 6.38717 5.00321C6.49964 4.75079 6.47652 4.57083 6.66297 4.35724C6.8455 4.14237 7.14937 3.84848 7.26491 3.77467C7.38045 3.70085 8.29787 3.22452 9.25847 3.67892C9.49015 3.65435 9.66363 3.27367 9.66363 3.27367L9.66355 3.27376Z" fill="#D2A83E"/>
<path fill-rule="evenodd" clip-rule="evenodd" d="M6.19255 3.09761C6.1916 3.08789 6.18945 3.07831 6.18615 3.06911C6.17716 3.05018 6.16537 3.03272 6.15116 3.01732C6.15116 3.01732 5.92332 2.97593 5.80812 2.98881C5.60614 3.01083 5.42361 3.26069 5.33819 3.38886C5.25277 3.51703 5.14662 3.715 5.03142 3.81732C5.03268 3.80735 5.03038 3.79726 5.02493 3.78881C5.02493 3.78881 5.03142 3.79786 5.01853 3.81083C5.00565 3.8238 5.00556 3.8302 5.01205 3.83643L5.0315 3.8558C5.0379 3.8558 5.21659 3.7755 5.45996 3.5486C5.71886 3.31172 5.91692 3.1902 6.02052 3.14856C6.07576 3.12508 6.13351 3.10799 6.19263 3.09761H6.19255Z" fill="#C29637"/>
<path fill-rule="evenodd" clip-rule="evenodd" d="M10.6103 2.12427C10.6103 2.12427 10.5688 2.17598 10.5171 2.23298C10.4018 2.35467 10.2517 2.4918 10.1235 2.63294C10.0019 2.7676 9.86468 2.87247 9.71056 3.04851C9.55645 3.22456 9.37776 3.41997 9.33254 3.47697C9.29115 3.53397 9.25881 3.62716 9.25881 3.67503C9.23679 3.6595 9.21094 3.64269 9.21094 3.64269C9.22182 3.66301 9.23484 3.68212 9.24976 3.69969C9.28211 3.745 9.33254 3.80209 9.35848 3.83691C9.39031 3.88123 9.41315 3.93135 9.42572 3.98445C9.44125 3.98701 9.54092 4.00646 9.66525 3.80192C9.78958 3.59738 9.95257 3.37346 9.95257 3.37346L10.2115 2.98895L10.3746 2.66281L10.5794 2.29775L10.6106 2.12427H10.6103Z" fill="#AC8132"/>
<path fill-rule="evenodd" clip-rule="evenodd" d="M10.8754 1.86279C10.8754 1.86279 10.7188 1.99079 10.6579 2.06759C10.5971 2.14439 10.4531 2.34595 10.4531 2.34595L10.5049 2.33946L10.7677 2.1065L10.8701 1.92398L10.8754 1.86313L10.8754 1.86279Z" fill="#A88F33"/>
<path fill-rule="evenodd" clip-rule="evenodd" d="M10.8288 12.1502C10.8288 12.1502 10.8262 12.0441 10.8858 11.9807C10.9467 11.9172 11.1007 11.824 11.2509 11.4745C11.4011 11.1249 11.4178 11.046 11.4178 11.046C11.4178 11.046 11.1486 11.2764 10.9826 11.3308C11.0214 11.2505 11.0434 11.1935 11.0629 11.1521C11.0409 11.1327 10.9477 11.1107 10.9386 11.1004C10.9903 11.0486 11.0188 10.9217 11.1237 10.8375C11.2584 10.7351 11.5043 10.5592 11.6955 10.4023C11.8866 10.2455 12.2624 9.88069 12.3104 9.77454C12.3389 9.81592 12.3453 9.84178 12.3453 9.84178C12.3453 9.84178 12.1563 10.0878 12.0579 10.2444C11.9712 10.379 11.9777 10.4554 11.9777 10.4554L12.1563 10.3786C12.1563 10.3786 12.2081 10.5702 11.9738 10.8615C12.0762 10.8227 12.1175 10.846 12.1757 10.8136C12.0799 10.8745 11.9479 10.9573 11.8236 11.1851C11.7019 11.4129 11.5362 11.6783 11.2567 11.844C10.9848 12.0187 10.8281 12.1494 10.8281 12.1494L10.8288 12.1502Z" fill="#A67A2E"/>
<path fill-rule="evenodd" clip-rule="evenodd" d="M10.1235 3.40844C10.1235 3.40844 10.0173 3.62971 10.0018 3.80191C9.99923 3.84338 9.98882 3.87572 9.98882 3.9236C9.98626 4.07762 9.99786 4.24983 9.96322 4.33004C9.95025 4.2977 9.94376 4.27568 9.93079 4.2628C9.91142 4.31715 9.87643 4.48671 9.84793 4.55011C9.83505 4.50873 9.80654 4.36503 9.80919 4.19547C9.81184 4.02591 9.81559 3.99348 9.81559 3.95858C9.80919 4.0103 9.7742 4.08027 9.76123 4.12166C9.74186 4.08675 9.71985 4.04144 9.6939 4.0039C9.67837 4.0295 9.659 4.0673 9.64219 4.08675C9.63955 4.07122 9.63315 4.02975 9.62922 3.97155C9.62666 3.90423 9.62274 3.81753 9.62666 3.79935C9.63306 3.76445 9.6875 3.62723 9.8027 3.50162C9.93992 3.35144 10.0811 3.06284 10.1224 2.9735C10.1638 2.88415 10.3399 2.5127 10.3399 2.5127H10.4745L10.279 2.95796C10.279 2.95796 10.1613 3.20134 10.1004 3.29076C10.0396 3.38019 9.91142 3.63645 9.85442 3.73612C9.8958 3.68176 9.93079 3.65326 9.97226 3.60146C10.0124 3.5652 10.1236 3.40861 10.1236 3.40861L10.1235 3.40844Z" fill="#8C6228"/>
<path fill-rule="evenodd" clip-rule="evenodd" d="M10.8751 1.84595C10.8531 1.91364 10.8183 1.9765 10.7727 2.03112C10.6924 2.12695 10.5202 2.25504 10.4361 2.35726C10.3593 2.45693 10.2057 2.72881 10.2755 3.05111C10.3011 2.98122 10.3494 2.84273 10.4775 2.68605C10.6057 2.52938 10.7429 2.3495 10.8103 2.20972C10.8776 2.06858 10.8866 1.95731 10.8866 1.95731L10.9122 1.92497L10.8967 1.85115L10.8747 1.84595H10.8751Z" fill="#CBA94C"/>
<path fill-rule="evenodd" clip-rule="evenodd" d="M13.496 10.4323C13.496 10.4323 13.4442 10.2913 13.4287 10.1631C13.4132 10.0349 13.4543 10.0095 13.4067 9.86281C13.3782 9.77346 13.3265 9.78601 13.3135 9.77346C13.3005 9.76092 13.2915 9.62592 13.2941 9.55211C13.2966 9.47829 13.2915 9.38255 13.2785 9.34108C13.2592 9.32555 13.2462 9.31258 13.2177 9.21683C13.1853 9.121 13.1698 9.07313 13.1543 9.04471C13.1387 9.0163 13.0934 8.99036 13.0934 8.96186C13.0934 8.90485 13.1451 8.87516 13.1451 8.85946C13.1426 8.82711 13.1038 8.85306 13.0934 8.84393C13.0805 8.82839 13.1258 8.73521 13.109 8.72224C13.1025 8.71584 13.0572 8.7702 13.0455 8.75467C13.0325 8.73905 13.017 8.58502 12.9937 8.48279C12.9718 8.38313 12.9484 8.31068 12.9458 8.2809C12.9433 8.25239 12.7671 7.75012 12.7245 7.62844C12.6901 7.52561 12.6611 7.42105 12.6378 7.31518C12.6248 7.25434 12.6157 7.13001 12.6093 7.14298C12.6028 7.15595 12.6067 7.21935 12.5963 7.21679C12.5872 7.21414 12.5549 6.99287 12.5446 6.95789C12.5355 6.9229 12.4811 6.80429 12.4678 6.71844C12.4548 6.63166 12.4264 6.4051 12.4069 6.25107C12.3875 6.09704 12.3784 6.03364 12.3784 5.99507C12.3816 5.90073 12.3764 5.8063 12.3629 5.71287C12.3373 5.54972 12.2861 5.35166 12.2412 5.23654C12.1545 5.01903 11.924 4.4624 11.8828 4.3239C11.8828 4.28892 11.9281 4.30837 11.9281 4.30837C11.9281 4.30837 12.0407 4.59057 12.1235 4.808C12.2038 5.02551 12.2802 5.21709 12.2997 5.23654C12.3152 5.25591 12.4369 5.4695 12.4912 5.81903C12.5456 6.16855 12.565 6.49086 12.5974 6.70573C12.6129 6.80813 12.6259 6.91676 12.6582 7.02547C12.6931 7.14332 12.7475 7.265 12.8187 7.45137C12.8796 7.60804 12.9249 7.73877 12.9495 7.85141C12.978 7.99511 12.978 8.10383 12.9948 8.17508C13.0104 8.23593 13.0336 8.35753 13.0881 8.53348C13.1425 8.70944 13.2226 8.93609 13.277 9.07714C13.3832 9.35934 13.4306 9.59494 13.4466 9.72055C13.4608 9.85001 13.5088 10.2979 13.4958 10.4325L13.496 10.4323Z" fill="#A88F33"/>
<path fill-rule="evenodd" clip-rule="evenodd" d="M10.8819 1.83043L10.8754 1.84596C10.8754 1.84596 10.8948 1.85244 10.891 1.87838C10.8912 1.91388 10.8891 1.94934 10.8845 1.98454C10.8781 2.02985 10.8651 2.06475 10.8625 2.09325C10.8625 2.1541 10.8716 2.22398 10.7857 2.39747C10.7601 2.44534 10.7444 2.48673 10.7314 2.51523C10.699 2.58511 10.6926 2.59553 10.6641 2.62787C10.7094 2.60227 10.8725 2.49987 10.9553 2.51523C10.8984 2.54757 10.8116 2.61106 10.7572 2.69392C10.7702 2.69647 10.8246 2.70689 10.9108 2.69392C11.0545 2.6719 11.2151 2.6201 11.3561 2.63043C11.5102 2.63947 11.4494 2.44534 11.4494 2.44534L11.2715 2.05443L10.935 1.81763L10.8819 1.83051V1.83043Z" fill="#BE9C44"/>
<path fill-rule="evenodd" clip-rule="evenodd" d="M11.7592 4.75862C11.7592 4.75862 11.609 4.60843 11.5482 4.09302C11.4873 3.57521 11.5003 2.81302 11.5003 2.81302L11.3786 2.51529C11.3786 2.51529 11.353 2.31723 11.2893 2.2435C11.2255 2.16977 11.1003 2.04544 11.0433 1.9846C10.9863 1.92376 10.9216 1.8409 10.8828 1.82793C10.9022 1.79559 10.989 1.61306 11.3216 1.6105C11.6542 1.60794 11.7568 1.79303 11.7915 1.86036C11.8263 1.92768 11.9831 2.21876 12.0413 2.77342C12.0957 3.32741 12.0983 3.36888 12.0893 3.56045C12.0828 3.66661 12.0478 3.91254 11.9869 4.17528C11.9312 4.398 11.8704 4.64657 11.759 4.75913L11.7592 4.75862Z" fill="#A17C34"/>
<path fill-rule="evenodd" clip-rule="evenodd" d="M11.2896 5.19998C11.3397 5.2036 11.3897 5.19231 11.4333 5.16756C11.4812 5.165 11.6547 5.18701 11.788 5.01746C11.797 5.0562 11.8204 5.16116 11.7595 5.25434C11.7919 5.22191 11.8398 5.20903 11.8462 5.19998C11.8488 5.24786 11.8941 5.3954 11.7025 5.75397C11.7543 5.69705 11.8151 5.69961 11.8695 5.69313C11.8721 5.76045 11.9083 5.98693 11.8125 6.1087C11.7491 6.19156 11.6455 6.16562 11.6455 6.16562C11.6471 6.14753 11.6471 6.12935 11.6455 6.11126C11.643 6.07627 11.63 6.04137 11.6391 6.01807C11.5891 5.99521 11.5435 5.96363 11.5045 5.92481C11.3918 5.81865 11.2456 5.63749 11.2353 5.50283C11.2223 5.35265 11.3569 5.3203 11.3569 5.3203C11.3457 5.31021 11.336 5.29841 11.3284 5.28532C11.322 5.26339 11.3155 5.2284 11.2896 5.19998Z" fill="#8C6228"/>
<path fill-rule="evenodd" clip-rule="evenodd" d="M10.2914 3.57155C10.2914 3.57155 10.2849 3.5625 10.25 3.60389C10.2565 3.5625 10.263 3.52359 10.2655 3.48605C10.2821 3.45128 10.3034 3.41905 10.329 3.3903C10.3096 3.42904 10.2966 3.46403 10.2966 3.46403C10.2966 3.46403 10.3445 3.37469 10.4144 3.32033C10.4623 3.2815 10.5232 3.26341 10.549 3.22714C10.5775 3.18832 10.571 3.18183 10.5775 3.17535C10.5775 3.17535 10.641 3.13396 10.7381 3.01219C10.751 2.99666 10.7704 2.97985 10.7834 2.96432C10.8053 2.95527 10.8571 2.93198 10.918 2.90083C10.9815 2.86593 11.0526 2.81806 11.0967 2.79843C11.1834 2.7596 11.2754 2.76353 11.318 2.7026C11.3504 2.69355 11.3853 2.59645 11.3789 2.51367C11.4267 2.53304 11.6727 2.68579 11.7569 3.01978C11.8177 3.25667 11.7089 3.62173 11.6636 3.79785C11.6183 3.97398 11.6119 4.10463 11.5484 4.18484C11.4681 4.29108 11.2093 4.44084 11.1458 4.51499C11.0915 4.57584 10.9284 4.72986 10.9348 4.84114C10.9413 4.924 11.0435 4.96914 11.0656 4.98484C11.0877 5.00054 11.0875 5.01983 11.129 5.01044C11.1705 5.00105 11.1859 4.98194 11.2028 4.98194C11.2222 4.9845 11.2222 4.98842 11.2312 4.98842C11.2378 4.98823 11.2443 4.98734 11.2507 4.98578C11.2507 4.98578 11.2442 5.10362 10.9685 5.13938C10.9491 5.14202 10.9297 5.14842 10.905 5.15235C10.9374 5.13682 10.9568 5.13682 10.9918 5.08895C10.953 5.08246 10.8416 5.07598 10.8131 5.06693C10.8222 5.0514 10.8519 5.00993 10.8765 4.99056C10.8985 4.97119 10.874 4.96496 10.8546 4.97503C10.8212 4.99772 10.7892 5.02233 10.7588 5.04875C10.7264 5.07726 10.6979 5.11608 10.6461 5.15115C10.6306 5.09936 10.6331 5.00097 10.6941 4.9298C10.6785 4.93236 10.6487 4.97767 10.6203 4.96863C10.6151 4.92141 10.6182 4.87366 10.6293 4.82748C10.6448 4.7692 10.729 4.66697 10.729 4.66697L11.1354 3.9407L11.2221 3.39056L10.2914 3.57138V3.57155Z" fill="#92723A"/>
<path fill-rule="evenodd" clip-rule="evenodd" d="M10.2715 3.60256C10.2715 3.60256 10.2495 3.61809 10.2935 3.64788C10.287 3.65692 10.2715 3.68926 10.252 3.71128C10.2301 3.73688 10.2067 3.75275 10.1977 3.77477C10.1783 3.82008 10.1628 3.85114 10.1628 3.8706C10.1628 3.89005 10.1563 4.0143 10.1019 4.09451C10.0825 4.12301 10.0605 4.17088 10.0449 4.20323C10.0126 4.26014 9.98409 4.30563 9.97761 4.33123C9.96472 4.37654 9.95568 4.50078 9.95568 4.50078C9.95568 4.50078 9.98418 4.4658 9.9945 4.45291C9.97889 4.48525 9.96208 4.52015 9.9375 4.54609C9.95303 4.53312 9.99834 4.50078 10.0747 4.43345C10.1809 4.3442 10.3466 4.19401 10.5486 4.07505C10.4876 4.09707 10.4359 4.09707 10.3945 4.10356C10.4269 4.07121 10.7181 3.72945 10.8709 3.69711C10.8801 3.68535 10.8848 3.67059 10.8838 3.65564L10.753 3.64276L10.4876 3.69967L10.4489 3.49487L10.2715 3.60231V3.60256Z" fill="#B18E3E"/>
<path fill-rule="evenodd" clip-rule="evenodd" d="M10.6889 4.76766C10.6889 4.76766 10.6539 4.80256 10.6216 4.88934C10.5967 4.86334 10.5754 4.83416 10.5581 4.80256C10.5102 4.72234 10.4365 4.62003 10.2643 4.67831C10.2618 4.62395 10.2578 4.59545 10.2643 4.55663C10.2928 4.55023 10.3795 4.48034 10.4662 4.37802C10.5271 4.30814 10.5841 4.22784 10.6229 4.12561C10.6485 4.10615 10.6928 4.07381 10.7509 4.03626C10.8337 3.97935 10.9334 3.90161 10.9489 3.81491C10.9101 3.83044 10.8273 3.86927 10.7029 3.86287C10.7509 3.84085 10.8246 3.81755 10.8156 3.72173C10.835 3.70875 10.8506 3.69971 10.8506 3.69971C10.836 3.69484 10.8206 3.69265 10.8052 3.69322C10.8026 3.68418 10.7988 3.67129 10.7767 3.67769C10.7547 3.68409 10.7511 3.68418 10.7482 3.69322C10.7392 3.69587 10.7094 3.69322 10.6874 3.70884C10.6654 3.72446 10.6045 3.77608 10.5812 3.78513C10.5903 3.7696 10.6032 3.74639 10.6032 3.74639C10.6032 3.74639 10.5398 3.75279 10.4945 3.77199C10.4116 3.80049 10.3159 3.85229 10.2188 3.90272C10.2278 3.88719 10.2317 3.87712 10.2381 3.87422C10.2445 3.87131 10.2601 3.86782 10.2601 3.86517C10.2601 3.86253 10.2537 3.83957 10.2576 3.83027C10.2866 3.76876 10.3209 3.70987 10.36 3.65423C10.4053 3.5933 10.4143 3.5066 10.4143 3.5066L10.6124 3.40693L11.169 3.27893L11.5302 3.30095L11.4849 3.5508L11.2716 3.98703L11.0891 4.38442L10.8806 4.62788L10.689 4.76766H10.6889Z" fill="#543E26"/>
<path fill-rule="evenodd" clip-rule="evenodd" d="M11.5918 3.68643C11.5918 3.68643 11.3742 3.95566 11.3134 3.99713C11.3522 3.91427 11.5918 3.42105 11.6785 3.28383C11.6591 3.2683 11.6331 3.2683 11.694 3.02783C11.6423 3.14943 11.6241 3.21292 11.5814 3.24526C11.5388 3.2776 11.5335 3.26728 11.5046 3.26728C11.5101 3.25743 11.5123 3.24612 11.511 3.23494C11.511 3.23494 11.3285 3.21292 11.2038 3.21292C11.0792 3.21292 10.8324 3.28025 10.6951 3.33461C10.5864 3.37992 10.5255 3.37992 10.4867 3.40833C10.4479 3.44067 10.4258 3.47566 10.4064 3.48471C10.3909 3.49375 10.3171 3.51705 10.3002 3.54162C10.2847 3.56722 10.2589 3.59598 10.2589 3.60247C10.2589 3.60895 10.2524 3.61808 10.2718 3.61151C10.2782 3.60895 10.3262 3.58301 10.3805 3.55067C10.4543 3.50928 10.5436 3.46141 10.6084 3.43291C10.7935 3.3591 10.8517 3.37207 10.9345 3.35654C11.0212 3.34101 11.1455 3.30474 11.2283 3.30474C11.3112 3.30218 11.4679 3.30474 11.5041 3.31122C11.4886 3.32419 11.4756 3.33973 11.4821 3.39408C11.4821 3.40961 11.4691 3.42642 11.4565 3.46397C11.4178 3.57013 11.3439 3.74617 11.3029 3.83551C11.246 3.95711 11.1813 4.05943 11.1493 4.12283C11.1173 4.18623 11.0469 4.35323 10.9772 4.44257C10.9075 4.53192 10.871 4.58627 10.8492 4.60573C10.8273 4.62519 10.6705 4.7403 10.6822 4.78177C10.7107 4.77273 10.8907 4.70497 11.0213 4.55786C11.1519 4.41074 11.178 4.32097 11.2802 4.24067C11.3824 4.16038 11.4627 4.02581 11.5106 3.91453C11.5507 3.81094 11.5417 3.77859 11.5921 3.68669L11.5918 3.68643Z" fill="#806031"/>
<path fill-rule="evenodd" clip-rule="evenodd" d="M6.9085 5.69587C6.9085 5.69587 6.88 5.81363 6.81523 5.87191C6.75183 5.92891 6.63919 5.97806 6.62631 6.07389C6.61077 6.16964 6.73895 6.21759 6.73895 6.21759C6.73895 6.21759 6.66897 6.33279 6.66897 6.41949C6.66897 6.50884 6.66641 6.52565 6.67546 6.61107C6.66519 6.61767 6.65646 6.6264 6.64986 6.63667C6.64986 6.63667 6.65626 6.71953 6.71975 6.77124C6.78323 6.82295 6.83751 6.8541 6.86985 6.84113C6.87479 6.85168 6.87912 6.8625 6.88282 6.87355C6.88282 6.87355 6.93077 6.75187 6.96312 6.64571C6.99546 6.537 7.02396 6.55244 7.03684 6.40618C7.04973 6.25992 7.19044 6.00878 7.19044 6.00878L7.28644 5.79417L7.12986 5.67249L6.9085 5.69578V5.69587Z" fill="#B6903C"/>
<path fill-rule="evenodd" clip-rule="evenodd" d="M7.19483 5.90674C7.16254 5.93989 7.13274 5.97537 7.10566 6.01289C7.06427 6.0699 7.03193 6.12161 6.97109 6.14371C6.91025 6.16581 6.87142 6.16564 6.87526 6.22657C6.8791 6.2875 6.9361 6.31327 6.96844 6.34433C7.00343 6.37667 7.03193 6.43103 7.0164 6.49195C7.03577 6.48291 7.07076 6.4725 7.1031 6.40261C7.13544 6.33272 7.36166 5.90682 7.36166 5.90682H7.19483V5.90674Z" fill="#685026"/>
<path fill-rule="evenodd" clip-rule="evenodd" d="M8.0908 4.92426C8.0908 4.92426 8.11017 4.87255 8.0908 4.835C8.07135 4.79617 7.95359 4.7832 7.89531 4.73917C7.83446 4.69386 7.76065 4.66237 7.69981 4.68225C7.70885 4.66024 7.74512 4.61228 7.71534 4.60195C7.68684 4.59291 7.58077 4.64078 7.55227 4.6628C7.52376 4.68481 7.459 4.71067 7.44611 4.72628C7.43323 4.7419 7.41112 4.7716 7.39815 4.75863C7.38518 4.74958 7.37878 4.72628 7.35677 4.73917C7.33475 4.75206 7.22877 4.83884 7.20923 4.88936C7.18968 4.93987 7.14574 5.05251 7.01373 5.1806C6.88172 5.30868 6.82471 5.39163 6.86354 5.4395C6.90237 5.48737 6.92054 5.45247 6.92703 5.49386C6.93202 5.53449 6.92982 5.57568 6.92054 5.61554C6.90501 5.68287 6.87916 5.74627 6.91406 5.75924C7.0034 5.78775 7.09019 5.73364 7.10956 5.7502C7.14838 5.7851 7.08754 5.91071 7.17944 5.93529C7.27271 5.96089 7.36462 5.91327 7.36462 5.91327L7.70373 5.73074L8.02996 5.55863L8.19687 5.22847L8.10736 4.95276L8.09029 4.92426H8.0908Z" fill="#D4B968"/>
<path fill-rule="evenodd" clip-rule="evenodd" d="M7.77189 5.71265C7.77189 5.71265 7.71489 5.62595 7.78486 5.54949C7.85483 5.47303 7.95442 5.44077 7.99324 5.3929C7.98585 5.38378 7.97594 5.37705 7.96474 5.37353C7.99051 5.32741 8.02984 5.29033 8.07738 5.26729C8.05801 5.24792 8.03207 5.23239 8.00365 5.23239C7.94017 5.23239 7.90125 5.27122 7.84306 5.27122C7.78614 5.27122 7.77965 5.24271 7.77965 5.24271C7.77965 5.24271 7.87548 5.23367 7.86635 5.19092C7.85731 5.14561 7.84075 5.14561 7.84075 5.14561C7.84075 5.14561 8.02584 5.06881 8.05818 5.02785C8.09052 4.98689 8.08668 4.9385 8.09317 4.91913C8.1151 4.91913 8.24327 4.8518 8.29507 4.8803C8.34686 4.90881 8.3106 4.98646 8.3106 4.98646C8.3106 4.98646 8.46735 4.86861 8.54723 4.75307C8.61711 4.75956 8.64963 4.7052 8.70083 4.7052C8.76431 4.7052 8.86398 4.7919 8.88335 4.97699C8.89633 5.08314 8.9157 5.14398 8.89633 5.33172C8.88728 5.43787 8.88984 5.66452 8.92193 5.77699C8.94386 5.86633 8.99565 5.85729 8.99565 5.85729C8.98771 5.88451 8.97195 5.90881 8.95034 5.92717C8.91535 5.95951 8.91151 6.04502 8.91535 6.07736C8.92051 6.10101 8.92701 6.12434 8.93481 6.14725C8.93481 6.14725 8.89342 6.19512 8.88301 6.22755C8.87397 6.25989 8.8313 6.2819 8.80015 6.2819C8.76901 6.2819 8.78462 6.27926 8.74324 6.2819C8.70185 6.28455 8.68888 6.29095 8.66294 6.2819C8.637 6.27286 8.61763 6.26245 8.62804 6.1795C8.63708 6.09665 8.30829 5.90379 8.30829 5.90379L7.77069 5.71222L7.77189 5.71265Z" fill="#CCA849"/>
<path fill-rule="evenodd" clip-rule="evenodd" d="M7.14886 6.53071C7.14886 6.53071 7.26662 6.68738 7.75081 6.68738C7.98121 6.68738 8.0615 6.66536 8.10921 6.65239C8.161 6.63942 8.35514 6.56313 8.55063 6.33265C8.72668 6.12426 8.68785 6.03885 8.68785 6.03885L8.58545 6.02332L8.25265 6.06863L7.2679 6.48804L7.14844 6.53071H7.14886Z" fill="#585136"/>
<path fill-rule="evenodd" clip-rule="evenodd" d="M7.51316 6.56959C7.51316 6.56959 7.09375 6.66286 7.09375 6.39748C7.09375 6.13857 7.35265 5.8667 7.41742 5.81883C7.48475 5.77087 7.64526 5.71643 7.64526 5.71643H8.03233L8.10606 5.91193L8.07372 6.3339L7.51316 6.56951V6.56959Z" fill="#252211"/>
<path fill-rule="evenodd" clip-rule="evenodd" d="M7.89921 5.79552C7.89921 5.79552 7.819 5.72171 7.63647 5.82112C7.45394 5.92054 7.30632 6.12832 7.29727 6.317C7.28823 6.48391 7.43449 6.60824 7.66233 6.61472C7.83189 6.62112 7.9342 6.60175 7.986 6.58912C7.97303 6.57359 7.9057 6.48945 7.9057 6.48945L7.8993 5.79561L7.89921 5.79552Z" fill="#C3B378"/>
<path fill-rule="evenodd" clip-rule="evenodd" d="M7.82078 5.83677C7.82078 5.83677 7.80141 5.82124 7.74398 5.8523C7.6961 5.8779 7.62622 5.94557 7.57186 5.99344C7.53687 6.02194 7.51486 6.03483 7.49506 6.05684C7.41476 6.15267 7.34743 6.30934 7.38634 6.387C7.42526 6.46465 7.55334 6.55399 7.87957 6.49315L7.81984 5.83685L7.82078 5.83677Z" fill="#E6D89C"/>
<path fill-rule="evenodd" clip-rule="evenodd" d="M7.71572 5.99745C7.71572 5.99745 7.66392 6.07775 7.66392 6.20592C7.66392 6.33665 7.73773 6.54503 8.0096 6.56056C8.21799 6.57353 8.35776 6.26028 8.50923 6.13859C8.62443 6.04541 8.69432 6.04276 8.69432 6.04276C8.69432 6.04276 8.57656 5.91476 8.26202 5.74896C7.95132 5.58196 7.60308 5.55995 7.41406 5.81629C7.50341 5.8098 7.79209 5.73599 7.79209 5.73599L7.93323 5.7813L7.71572 5.99753V5.99745Z" fill="#252211"/>
<path fill-rule="evenodd" clip-rule="evenodd" d="M8.12383 6.16701C8.11479 6.14764 8.1083 6.1217 8.14585 6.1153C8.18339 6.1089 8.2002 6.11265 8.21318 6.1409C8.22615 6.16915 8.23878 6.1927 8.21958 6.20439C8.2002 6.21471 8.14969 6.20439 8.12375 6.16684L8.12383 6.16701ZM8.06299 5.98448C8.06299 5.98448 8.05002 5.99353 8.0565 5.97544C8.05906 5.95351 8.07596 5.9146 8.11735 5.92373C8.15873 5.93286 8.14977 5.97808 8.14295 5.99105C8.13612 6.00403 8.10156 6.02596 8.07562 6.01665C8.07233 6.01581 8.06929 6.01421 8.06673 6.01197C8.06418 6.00973 8.06219 6.00693 8.06093 6.00377C8.05966 6.00062 8.05916 5.99722 8.05946 5.99384C8.05976 5.99046 8.06085 5.98719 8.06265 5.98431L8.06299 5.98448Z" fill="#6F674D"/>
<path fill-rule="evenodd" clip-rule="evenodd" d="M4.55469 6.06718C4.55469 6.06718 4.65709 6.14398 4.77604 6.14099C4.8938 6.13835 5.04527 6.01675 5.11516 5.93901C5.15654 5.8937 5.19196 5.84583 5.23036 5.80828C5.26278 5.77594 5.28471 5.76041 5.30024 5.73839C5.32226 5.71279 5.34556 5.66466 5.35725 5.64905C5.32875 5.67106 5.28736 5.70998 5.24461 5.73583C5.20322 5.76143 5.11388 5.80956 5.07761 5.82253C5.04271 5.8355 4.68021 6.02733 4.68021 6.02733L4.55469 6.06718Z" fill="#AC924C"/>
<path fill-rule="evenodd" clip-rule="evenodd" d="M4.71094 5.11075C4.71094 5.11075 4.76785 5.07193 4.87793 5.04727C4.98409 5.02167 5.19768 5.00195 5.19768 5.00195L5.37372 5.07875L5.44361 5.34414L5.31561 5.61994L5.15254 5.72234L4.96736 5.42461L4.71136 5.11127L4.71094 5.11075Z" fill="#9F8E57"/>
<path fill-rule="evenodd" clip-rule="evenodd" d="M4.4828 5.34763L4.42188 5.39311C4.42188 5.39311 4.43749 5.36461 4.45038 5.27791C4.46326 5.19121 4.53067 4.98018 4.62906 4.8585C4.72745 4.73681 4.72489 4.7433 4.72489 4.7433C4.71584 4.74164 4.70654 4.74193 4.69761 4.74416C4.68867 4.74638 4.68032 4.75048 4.6731 4.75618C4.68607 4.72751 4.76893 4.62511 4.85178 4.57391C4.93464 4.52271 4.96698 4.50658 5.05368 4.54831C5.14038 4.59004 5.1624 4.61171 5.22589 4.60915C5.28937 4.60659 5.34365 4.53926 5.34365 4.53926C5.34365 4.53926 5.35662 4.58065 5.30874 4.67648C5.26087 4.77231 5.07186 4.96772 5.07186 4.96772L4.6783 5.23695L4.4828 5.34788V5.34763Z" fill="#EAC970"/>
<path fill-rule="evenodd" clip-rule="evenodd" d="M4.77378 5.07837C4.77378 5.07837 5.05862 5.11719 5.14532 5.03698C5.14788 5.04602 5.15829 5.04602 5.15829 5.05251C5.15759 5.0574 5.15532 5.06192 5.15181 5.06539C5.16124 5.06389 5.17076 5.06303 5.18031 5.06283C5.19171 5.06623 5.20343 5.0684 5.21529 5.06932C5.22484 5.06911 5.23437 5.06823 5.24379 5.06667C5.2429 5.07311 5.24071 5.0793 5.23737 5.08487C5.23402 5.09044 5.22959 5.09528 5.22434 5.0991C5.23731 5.0991 5.24994 5.10166 5.24994 5.11199C5.24994 5.12231 5.2525 5.15346 5.23697 5.15994C5.2241 5.1635 5.21041 5.16257 5.19814 5.1573C5.19917 5.18181 5.20583 5.20575 5.2176 5.22727C5.2432 5.27514 5.29781 5.32967 5.3712 5.31397C5.3712 5.31397 5.40994 5.40715 5.24687 5.61426C5.22494 5.64276 5.20156 5.68159 5.17314 5.71393C5.16191 5.7384 5.15333 5.764 5.14754 5.7903C5.14754 5.7903 5.42334 5.68415 5.50227 5.44206C5.58257 5.19869 5.5981 4.95924 5.58257 4.73533C5.57992 4.67184 5.5696 4.62661 5.55407 4.59418C5.51524 4.51389 5.40644 4.52686 5.36249 4.57217C5.29901 4.63566 5.19285 4.79352 5.04531 4.90224C4.89512 5.01095 4.88872 5.03024 4.77344 5.07837H4.77378Z" fill="#D7BC6B"/>
<path fill-rule="evenodd" clip-rule="evenodd" d="M4.43464 5.42791C4.43464 5.42791 4.38028 5.46025 4.35178 5.58151C4.32328 5.70575 4.37738 5.85722 4.4087 5.90509C4.44002 5.95296 4.5111 6.08378 4.65856 6.09026C4.69505 6.09007 4.73115 6.08259 4.76471 6.06825C4.81619 6.04464 4.86447 6.01463 4.90841 5.9789C4.9719 5.93103 5.02361 5.88965 5.01713 5.88572C5.0016 5.87923 4.62621 5.56854 4.62621 5.56854L4.48507 5.41101L4.43456 5.42808L4.43464 5.42791Z" fill="#585136"/>
<path fill-rule="evenodd" clip-rule="evenodd" d="M4.78433 5.94299C4.78433 5.94299 4.8607 5.93659 4.90601 5.90809C4.95132 5.87959 4.64062 5.57153 4.64062 5.57153L4.66264 5.90433L4.78433 5.94299Z" fill="#453A25"/>
<path fill-rule="evenodd" clip-rule="evenodd" d="M4.45417 5.40453C4.45417 5.40453 4.41534 5.47834 4.41534 5.49779C4.40886 5.5612 4.42832 5.76054 4.44385 5.82394C4.45938 5.89127 4.54352 5.9935 4.65232 5.9935C4.71956 5.9935 4.81283 5.95211 4.81283 5.94178C4.81283 5.92881 4.717 5.91618 4.69114 5.86797C4.67561 5.84237 4.66913 5.77871 4.66554 5.71437C4.66298 5.67298 4.66298 5.62767 4.67851 5.61197C4.7135 5.57314 4.7199 5.46178 4.7199 5.46178L4.84414 5.23096H4.68073L4.48523 5.35264L4.45417 5.40453Z" fill="#84754B"/>
<path fill-rule="evenodd" clip-rule="evenodd" d="M4.40625 5.4757C4.40625 5.4757 4.53425 5.30615 4.64962 5.26723C4.76499 5.22832 4.81662 5.2517 4.81662 5.2517L4.74929 5.42391L4.65346 5.53006L4.65995 5.58442C4.65995 5.58442 4.64433 5.72812 4.74016 5.82779C4.83599 5.92746 4.90716 5.92362 4.94863 5.92362C4.9901 5.92362 5.10914 5.88863 5.16998 5.74493C5.22434 5.61036 5.26965 5.43773 5.16094 5.26467C5.0547 5.09247 4.86705 5.08582 4.83078 5.08582C4.79452 5.08582 4.50976 5.10007 4.40625 5.47545V5.4757Z" fill="#252211"/>
<path fill-rule="evenodd" clip-rule="evenodd" d="M7.69225 6.05176C7.64438 6.02975 7.68969 5.89518 7.73756 5.8537C7.78543 5.81223 7.84627 5.76445 7.95251 5.75787C7.99126 5.75531 8.0288 5.77989 8.0224 5.80583C8.01336 5.8537 7.94603 5.92103 7.88519 5.9689C7.80105 6.03495 7.7466 6.07634 7.69225 6.05176Z" fill="#F7F7E7"/>
<path fill-rule="evenodd" clip-rule="evenodd" d="M5.1063 5.31779C5.14128 5.31523 5.18659 5.34339 5.19564 5.38128C5.20469 5.42266 5.17362 5.50552 5.1063 5.50552C5.05194 5.50552 5.02344 5.43819 5.02344 5.41882C5.02405 5.4029 5.0285 5.38735 5.03641 5.37351C5.03897 5.36959 5.04545 5.32427 5.1063 5.31779Z" fill="#F8F6DE"/>
<path fill-rule="evenodd" clip-rule="evenodd" d="M4.59959 5.34753C4.59959 5.34753 4.51024 5.38892 4.46886 5.47553C4.43928 5.53949 4.43034 5.61106 4.44326 5.68033C4.44974 5.71268 4.48208 5.79289 4.5041 5.82139C4.52612 5.84989 4.5559 5.86935 4.57791 5.8667C4.59993 5.86406 4.64516 5.80586 4.64516 5.77096C4.64516 5.73606 4.6478 5.58843 4.69047 5.50813C4.72801 5.42792 4.59984 5.34762 4.59984 5.34762L4.59959 5.34753Z" fill="#D4C38B"/>
<path fill-rule="evenodd" clip-rule="evenodd" d="M4.61411 5.34104C4.59858 5.35009 4.57272 5.36306 4.57912 5.37987C4.58561 5.3954 4.63997 5.40547 4.65942 5.44336C4.68144 5.48219 4.68144 5.52357 4.67495 5.54303C4.69186 5.535 4.70721 5.52402 4.72026 5.5106C4.74877 5.47826 4.78367 5.43431 4.81345 5.43431C4.8329 5.43431 4.85228 5.44336 4.87045 5.44336C4.89895 5.44336 4.92737 5.43431 4.93129 5.40453C4.93769 5.36571 4.87694 5.33072 4.84195 5.33721C4.84844 5.31161 4.85748 5.2738 4.82898 5.24786C4.80048 5.22192 4.71122 5.26732 4.69176 5.28029C4.67231 5.29326 4.61411 5.34113 4.61411 5.34113V5.34104Z" fill="#E2D59D"/>
<path fill-rule="evenodd" clip-rule="evenodd" d="M6.67472 8.06085L6.86629 8.00427L6.92065 8.0431C6.92065 8.0431 6.95939 8.12596 7.02032 8.13628C7.00086 8.17767 6.95034 8.21308 6.95299 8.24244C6.95563 8.27179 6.98149 8.29423 6.98149 8.29423C6.98149 8.29423 6.80929 8.57899 7.14849 8.86597C7.06819 8.89831 6.96596 8.94277 6.9116 8.96837C6.95034 8.97741 7.0332 8.99397 7.06819 9.02537C7.10318 9.05677 7.10318 9.06676 7.13552 9.08621C7.16786 9.10567 7.18723 9.13153 7.18083 9.14313C7.15881 9.13016 7.085 9.09142 7.07211 9.1276C7.05923 9.16378 6.75237 9.14962 6.75237 9.14962L6.23457 9.24929C6.23457 9.24929 6.25394 9.19749 6.19958 9.14962C6.13618 9.0927 6.05852 9.15218 5.97567 9.08877C5.86695 9.00591 5.86303 8.91009 5.82812 8.8739C5.86303 8.85189 5.93428 8.81955 6.10384 8.7971C6.09735 8.78413 6.07534 8.74531 6.08831 8.71041C6.10384 8.66509 6.16852 8.63659 6.14915 8.58241C6.17765 8.57592 6.19054 8.57592 6.26179 8.48658C6.32912 8.39723 6.3705 8.37786 6.4223 8.37138C6.4741 8.36489 6.50516 8.37138 6.60099 8.28203C6.66823 8.21863 6.6463 8.16427 6.6463 8.16427C6.6463 8.16427 6.69025 8.15002 6.6748 8.06068L6.67472 8.06085Z" fill="#CBAC5A"/>
<path fill-rule="evenodd" clip-rule="evenodd" d="M6.10577 8.08965C6.10833 8.07668 6.11874 8.0702 6.18863 8.07668C6.25852 8.08317 6.70122 8.0353 6.82163 8.02881C6.94332 8.01976 7.37177 8.02616 7.58024 8.0702C7.78871 8.11423 7.99966 8.16603 8.10189 8.19188C8.20429 8.22038 8.23654 8.23062 8.23262 8.24359C8.23006 8.25656 8.20702 8.26919 8.19379 8.26561C8.1809 8.26305 7.8417 8.15946 7.73691 8.13761C7.63213 8.11576 7.26954 8.05731 7.07131 8.06081C6.88623 8.06346 6.81241 8.05825 6.65583 8.07634C6.49916 8.0958 6.24025 8.12165 6.1626 8.11133C6.0858 8.10228 6.10167 8.10228 6.1056 8.08931L6.10577 8.08965Z" fill="#D6BC6F"/>
<path fill-rule="evenodd" clip-rule="evenodd" d="M7.14447 9.10421C7.14447 9.10421 7.40986 9.24791 7.50569 9.42395C7.57558 9.55468 7.4643 9.61945 7.4643 9.61945C7.4643 9.61945 7.61449 9.61945 7.59503 9.70231C7.58599 9.75402 7.33613 9.8938 7.16913 9.96761C6.99958 10.0414 7.00606 10.0376 6.9232 10.0505C6.8429 10.0634 6.62283 10.0249 6.57752 10.0893C6.53221 10.1537 6.55192 10.2201 6.56455 10.2304C6.57752 10.2395 6.68239 10.2525 6.68239 10.2525C6.68239 10.2525 6.66038 10.3133 6.44295 10.3198C6.22552 10.3263 6.17108 10.3417 6.1581 10.3651C6.14513 10.387 6.19949 10.3741 6.29925 10.3907C6.39892 10.4062 6.53869 10.4163 6.53869 10.4163C6.53869 10.4163 6.49338 10.4551 6.37562 10.4862C6.24096 10.5211 6.02993 10.5535 5.96653 10.5923C5.99887 10.6144 6.04683 10.6467 6.06893 10.6493C6.01457 10.6622 5.93812 10.6907 5.92523 10.701C5.9446 10.714 5.97054 10.7296 5.97054 10.7296C5.97054 10.7296 5.86174 10.8603 5.79834 10.8927C5.73494 10.9251 5.36988 11.0946 5.24427 11.0623C4.93101 10.9794 4.89218 10.6364 4.81581 10.6105C4.70061 10.5717 4.64625 10.6493 4.54394 10.5949C4.58925 10.5626 4.61391 10.5432 4.66178 10.5212C4.60999 10.4956 4.34204 10.3257 4.34204 10.3257C4.31402 10.2646 4.28292 10.205 4.24886 10.1471C4.19706 10.0577 4.12086 9.9386 4.06368 9.83372C3.93944 9.60332 3.93295 9.49717 3.82031 9.36644C3.83977 9.34084 3.90701 9.34442 3.90701 9.34442L4.8508 9.65512L6.52427 9.70359L6.95947 9.08228L7.14456 9.10429L7.14447 9.10421Z" fill="#DFC677"/>
<path fill-rule="evenodd" clip-rule="evenodd" d="M4.67188 10.0517C4.68197 10.063 4.69375 10.0726 4.70678 10.0802C4.7392 10.1023 4.78707 10.1282 4.81942 10.1669C4.83239 10.1476 4.86473 10.1126 4.92182 10.1669C4.9789 10.2213 5.04982 10.1826 5.09393 10.1954C5.13925 10.2111 5.14181 10.2175 5.14181 10.2175C5.14181 10.2175 5.16741 10.1954 5.22466 10.1721C5.25965 10.1592 5.30104 10.1501 5.34635 10.1372C5.38774 10.1282 5.43305 10.1152 5.4642 10.1152C5.4927 10.1346 5.59493 10.2432 6.00529 10.0829C6.39237 9.93269 6.48162 9.91588 6.54639 9.93909C6.55288 9.92356 6.55936 9.89378 6.65903 9.89771C6.65903 9.85632 6.57617 9.71518 6.57617 9.71518L6.11921 9.55859H5.86927L5.11979 9.69581L4.70447 9.93278L4.67213 10.0522L4.67188 10.0517Z" fill="#C4A859"/>
<path fill-rule="evenodd" clip-rule="evenodd" d="M4.42188 9.78905C4.42188 9.78905 4.43092 9.85893 4.53451 9.93275C4.63691 10.0065 4.66909 10.0505 4.66909 10.0505C4.66909 10.0505 4.68854 10.0249 4.70407 9.99879C4.7196 9.97029 4.73257 9.93795 4.75843 9.92891C4.81023 9.90689 4.92799 9.94828 4.95393 9.94179C4.97594 9.93539 4.96946 9.89008 4.99275 9.89008C5.04711 9.88743 5.08201 9.92498 5.10147 9.92498C5.12093 9.92498 5.16871 9.92242 5.1752 9.9121C5.18168 9.90177 5.18424 9.79425 5.25806 9.74245C5.33835 9.68554 5.43674 9.71011 5.46286 9.72308C5.46286 9.74245 5.46542 9.79041 5.51721 9.79297C5.56901 9.79553 5.57413 9.78649 5.61961 9.80202C5.6651 9.81755 5.71928 9.79946 5.74386 9.87574C5.76587 9.86934 5.81767 9.86286 5.8047 9.78905C5.8303 9.76967 5.85266 9.7567 5.9071 9.68033C5.92007 9.66096 5.942 9.63894 5.9589 9.61044C6.00421 9.61044 6.05857 9.6014 6.13102 9.6648C6.109 9.68033 6.09603 9.6904 6.08963 9.70619C6.10858 9.72495 6.12588 9.7453 6.14134 9.76703C6.1608 9.79263 6.17377 9.82403 6.19834 9.83052C6.2527 9.84605 6.34205 9.82403 6.44171 9.83052C6.53754 9.837 6.61776 9.8719 6.65274 9.89392C6.66571 9.88752 6.66571 9.88487 6.69806 9.89136C6.7304 9.89785 6.75497 9.90041 6.72007 9.85902C6.73944 9.86806 6.76146 9.88752 6.78091 9.86806C6.80037 9.84861 6.81582 9.82019 6.87017 9.81371C6.92453 9.80722 6.94399 9.81627 6.966 9.75935C6.9945 9.68946 6.89611 9.68946 6.89611 9.68946C6.89611 9.68946 6.94143 9.64799 6.99194 9.59363C7.05279 9.53671 7.12267 9.4629 7.13949 9.37228C7.16799 9.20528 7.00491 9.18335 7.00491 9.18335L6.21396 9.42672L5.24696 9.37876L4.42239 9.78913L4.42188 9.78905Z" fill="#927D49"/>
<path fill-rule="evenodd" clip-rule="evenodd" d="M3.70493 7.50427C3.70493 7.50427 3.67933 7.53661 3.66355 7.61298C3.64776 7.68936 3.6545 7.68031 3.64153 7.73467C3.62856 7.78903 3.46924 8.33012 3.52898 8.51265C3.58871 8.69518 3.69213 8.76251 3.75682 8.91005C3.76979 8.94239 3.78242 8.96185 3.78916 8.99035C3.81117 9.08609 3.7918 9.15991 3.81766 9.25574C3.8267 9.28808 3.85008 9.32562 3.88499 9.36445C3.96179 9.44466 4.08697 9.52104 4.14099 9.57539C4.21727 9.65569 4.32607 9.81885 4.46457 9.83429C4.53838 9.84334 4.64326 9.81228 4.72996 9.76057C4.80676 9.71261 4.8542 9.64537 4.93476 9.60697C4.99167 9.57847 5.05252 9.56814 5.10687 9.55517C5.21951 9.53315 5.32183 9.52957 5.38267 9.5422C5.47586 9.56165 5.69593 9.62898 5.81787 9.62898C5.91316 9.62745 6.00791 9.61441 6.10007 9.59016C6.28516 9.5358 6.50907 9.44253 6.6567 9.40114C6.7434 9.37554 6.81328 9.3688 6.88454 9.35327C7.00622 9.32477 7.10845 9.28594 7.16674 9.21213C7.12791 9.16682 7.08004 9.09693 6.82105 9.09949C6.52725 9.10597 6.18805 9.26905 6.02105 9.29499C5.85405 9.32093 5.7816 9.34286 5.59515 9.27553C5.41237 9.20752 5.40631 9.16255 5.40631 9.16255C5.40631 9.16255 5.21439 9.02832 5.1341 8.68614C5.0538 8.34395 5.1341 8.0946 5.34256 7.85763C5.39692 7.79679 5.38395 7.74243 5.38395 7.74243C5.38395 7.74243 5.52117 7.55735 5.48362 7.38403C5.44223 7.21183 5.17685 7.24682 5.17685 7.24682L3.70502 7.50427H3.70493Z" fill="#6E6342"/>
<path fill-rule="evenodd" clip-rule="evenodd" d="M3.92977 8.08032C3.91836 8.10178 3.91299 8.12594 3.91424 8.15021C3.9168 8.18511 3.92721 8.23042 4.032 8.33274C4.12134 8.422 4.10189 8.52167 4.10189 8.52167C4.10189 8.52167 4.14686 8.53071 4.26889 8.47362C4.36471 8.42831 4.39689 8.50861 4.39689 8.50861C4.42478 8.49398 4.45502 8.48434 4.48623 8.48011C4.51451 8.4775 4.54188 8.46877 4.56644 8.45451C4.56644 8.45451 4.67908 8.56971 4.77747 8.62407C4.86682 8.67202 4.91861 8.70437 4.96265 8.67202C5.00403 8.64352 5.00403 8.58524 5.00139 8.55938C4.99112 8.53552 4.97812 8.51293 4.96265 8.49206C4.93414 8.45067 4.88883 8.40271 4.88585 8.36406C4.87936 8.2748 4.95317 8.16856 4.93756 8.1427C4.92194 8.11684 4.86383 8.11036 4.72013 8.16216C4.57131 8.21131 3.92917 8.08058 3.92917 8.08058L3.92977 8.08032Z" fill="#39331F"/>
<path fill-rule="evenodd" clip-rule="evenodd" d="M4.27212 8.65889C4.27212 8.65889 4.19839 8.589 4.22425 8.2498C4.25555 8.24934 4.2868 8.25238 4.31743 8.25885C4.31743 8.25885 4.35762 8.52167 4.27212 8.65889Z" fill="#292311"/>
<path fill-rule="evenodd" clip-rule="evenodd" d="M3.74385 7.24535C3.75413 7.23773 3.76368 7.22916 3.77235 7.21975C3.74675 7.26762 3.62856 7.45919 3.72439 7.76085C3.82022 8.06114 4.06095 8.28505 4.35739 8.29546C4.65384 8.30587 4.80966 8.1608 4.98784 7.94338C5.05772 7.85668 5.13802 7.74788 5.20919 7.67415C5.31535 7.55886 5.3982 7.52652 5.3982 7.41525C5.3982 7.18741 5.16516 7.08509 4.82212 6.98286C4.47908 6.88063 4.16966 6.89326 4.00915 6.96324C3.85256 7.03952 3.78523 7.11982 3.74376 7.24543L3.74385 7.24535Z" fill="#252211"/>
<path fill-rule="evenodd" clip-rule="evenodd" d="M4.84401 8.76113L4.86961 8.74816C4.86961 8.74816 4.87601 8.64576 4.91748 8.64849C4.95886 8.65498 4.97832 8.70942 4.9744 8.72879C4.97184 8.74816 4.96151 8.78059 4.92004 8.77666C4.86568 8.77794 4.84375 8.76113 4.84375 8.76113H4.84401Z" fill="#3F3824"/>
<path fill-rule="evenodd" clip-rule="evenodd" d="M4.72656 8.32618C4.72656 8.32618 4.75216 8.31713 4.78348 8.34819C4.80908 8.34819 4.9207 8.33522 4.95568 8.35724C4.99067 8.37925 5.00099 8.39862 5.00099 8.39862C5.00099 8.39862 4.87026 8.42713 4.79901 8.39862C4.72656 8.37405 4.72656 8.32618 4.72656 8.32618Z" fill="#2D2815"/>
<path fill-rule="evenodd" clip-rule="evenodd" d="M5.30716 8.34564C5.30716 8.33915 5.23727 8.29128 5.16346 8.27566C5.15049 8.2731 5.14784 8.28215 5.13786 8.28215C5.13137 8.27959 5.12881 8.26013 5.12881 8.26013L5.08683 8.28223C5.08683 8.28223 5.08034 8.29128 5.10236 8.30783C5.12173 8.32336 5.15416 8.33633 5.1632 8.36219C5.17225 8.38805 5.17225 8.39709 5.17617 8.40102C5.17873 8.40358 5.22404 8.40102 5.24606 8.38805C5.26808 8.37508 5.30955 8.35391 5.3069 8.34538L5.30716 8.34564Z" fill="#82764F"/>
<path fill-rule="evenodd" clip-rule="evenodd" d="M4.65625 8.60842C4.65625 8.60842 4.66914 8.51916 4.75592 8.51524C4.84518 8.50875 4.86207 8.59545 4.86207 8.59545L4.81028 8.64725C4.81028 8.64597 4.77145 8.59161 4.65668 8.60842H4.65625Z" fill="#2D2816"/>
<path fill-rule="evenodd" clip-rule="evenodd" d="M5.21583 8.22393C5.21583 8.22393 5.16787 8.27573 5.0618 8.29126C5.05276 8.27829 5.0333 8.25243 5.0618 8.21104C5.0903 8.16966 5.12264 8.15669 5.15498 8.16957C5.16925 8.17189 5.18257 8.17823 5.19335 8.18786C5.20413 8.19749 5.21193 8.21001 5.21583 8.22393Z" fill="#574F35"/>
<path fill-rule="evenodd" clip-rule="evenodd" d="M5.41256 8.28741C5.4152 8.27443 5.40616 8.27187 5.41256 8.26539C5.41896 8.2589 5.45403 8.24602 5.46051 8.25242C5.46307 8.25506 5.46051 8.26539 5.46051 8.27802C5.46051 8.29065 5.46051 8.30362 5.45403 8.31292C5.44498 8.32589 5.41913 8.33238 5.40616 8.32854C5.39318 8.3247 5.39062 8.30652 5.39062 8.30294C5.39703 8.30038 5.41256 8.29389 5.41256 8.28741ZM5.63357 8.14763C5.63357 8.14114 5.65558 8.12817 5.66856 8.12817C5.68793 8.12817 5.68793 8.1437 5.69057 8.14763C5.69697 8.15019 5.69697 8.14498 5.70346 8.15667C5.70994 8.16837 5.71907 8.18902 5.7125 8.20199C5.70593 8.21496 5.68016 8.22392 5.67376 8.22136C5.66472 8.21487 5.63621 8.15667 5.63357 8.14763Z" fill="#82764F"/>
<path fill-rule="evenodd" clip-rule="evenodd" d="M5.1875 8.31722C5.1875 8.31722 5.216 8.32362 5.25483 8.35605C5.24186 8.3651 5.2224 8.37542 5.2224 8.37542C5.2224 8.37542 5.21984 8.34564 5.1875 8.31714V8.31722Z" fill="#6E6342"/>
<path fill-rule="evenodd" clip-rule="evenodd" d="M5.12602 8.03234C5.11954 8.02594 5.14539 8.01041 5.16092 8.01297C5.17646 8.01553 5.18294 8.02594 5.19975 8.0285C5.21656 8.03106 5.21921 8.02202 5.22535 8.01553C5.2315 8.00905 5.25385 8.01297 5.25769 8.01553C5.26008 8.01837 5.26225 8.0214 5.26418 8.02458C5.26445 8.01965 5.26573 8.01484 5.26795 8.01043C5.27017 8.00603 5.27327 8.00213 5.27706 7.99898C5.28203 7.99533 5.28776 7.99285 5.29381 7.99173C5.29987 7.9906 5.30611 7.99086 5.31205 7.99249C5.31461 8.00154 5.32758 8.03388 5.32502 8.04036C5.32246 8.04685 5.28363 8.05598 5.27706 8.04941C5.28355 8.06502 5.31205 8.09737 5.31589 8.10377C5.31973 8.11017 5.28739 8.12578 5.2745 8.12322C5.25641 8.12194 5.14505 8.05717 5.12568 8.0326L5.12602 8.03234ZM5.29558 7.81747C5.29318 7.81095 5.2886 7.80546 5.28261 7.80194C5.27356 7.79938 5.24378 7.80194 5.24378 7.81747C5.24378 7.833 5.26938 7.91987 5.29814 7.9651C5.33057 8.01041 5.3525 8.04787 5.37451 8.05828C5.38143 8.06143 5.38927 8.06184 5.39648 8.05944C5.40368 8.05703 5.40971 8.05198 5.41334 8.04531C5.4159 8.03883 5.42239 7.99095 5.41983 7.87831C5.41727 7.76567 5.41334 7.65696 5.40686 7.65047C5.40037 7.64399 5.37451 7.64407 5.36547 7.65696C5.35642 7.66985 5.29814 7.7981 5.2955 7.81747H5.29558Z" fill="#585136"/>
<path fill-rule="evenodd" clip-rule="evenodd" d="M5.17508 8.4802C5.17508 8.4802 5.12976 8.4517 5.08573 8.47115C5.04435 8.49061 5.04691 8.56698 5.04691 8.56698C5.05622 8.57063 5.06628 8.57194 5.07621 8.57081C5.08615 8.56968 5.09565 8.56614 5.10391 8.5605C5.13241 8.54113 5.16859 8.50878 5.17508 8.48028V8.4802Z" fill="#574F35"/>
<path fill-rule="evenodd" clip-rule="evenodd" d="M5.25998 8.58256C5.25742 8.55696 5.23438 8.55696 5.23438 8.54373C5.23596 8.53741 5.23962 8.5318 5.24478 8.52781C5.24993 8.52382 5.25627 8.52167 5.26279 8.52171C5.27576 8.52171 5.28839 8.53724 5.30426 8.54731C5.31979 8.55636 5.34309 8.57291 5.34565 8.59263C5.34821 8.61234 5.32005 8.66635 5.28873 8.66635C5.25741 8.66635 5.26672 8.60807 5.26023 8.58221L5.25998 8.58256ZM5.50983 8.54757C5.50983 8.54757 5.45803 8.5631 5.46187 8.54757C5.46571 8.53204 5.47749 8.5282 5.4943 8.5282C5.50284 8.51926 5.51433 8.51371 5.52664 8.51258C5.53368 8.51224 5.5406 8.51455 5.54601 8.51907C5.54601 8.51907 5.581 8.50354 5.59132 8.51258C5.60165 8.52163 5.59397 8.52163 5.60037 8.53204C5.60852 8.54359 5.61387 8.55689 5.61599 8.57087C5.61599 8.58119 5.57716 8.60321 5.54601 8.59937C5.50983 8.5916 5.51623 8.55405 5.50983 8.54757ZM5.8114 8.48929C5.8114 8.48929 5.82693 8.49833 5.81404 8.50874C5.805 8.51779 5.75969 8.53434 5.72078 8.53724C5.68195 8.53724 5.64705 8.54364 5.64705 8.53076C5.64705 8.51787 5.67939 8.49193 5.69876 8.48545C5.70264 8.48058 5.70758 8.47666 5.71319 8.47397C5.71881 8.47128 5.72496 8.46989 5.73119 8.46992C5.74672 8.46992 5.80747 8.46343 5.82437 8.46087C5.8399 8.45823 5.85287 8.46727 5.84374 8.48024C5.8399 8.48929 5.8114 8.48929 5.8114 8.48929ZM5.90074 8.08959C5.90074 8.08959 5.88129 8.13097 5.85936 8.13097C5.83734 8.12841 5.83734 8.12193 5.83734 8.11544C5.83734 8.1064 5.85936 8.0831 5.85671 8.07661C5.85031 8.07661 5.83469 8.07661 5.83734 8.06108C5.83734 8.04811 5.85936 8.03258 5.87873 8.03548C5.89336 8.02346 5.91159 8.01664 5.93052 8.01611C5.95254 8.01611 5.97191 8.02251 5.97191 8.03548C5.97191 8.04845 5.94631 8.07687 5.93692 8.08344C5.9266 8.09377 5.91363 8.10051 5.90074 8.08984V8.08959ZM5.60557 8.8546C5.60557 8.8546 5.57998 8.85724 5.57998 8.87013C5.57998 8.87661 5.58638 8.87661 5.59551 8.87277C5.60077 8.87248 5.60598 8.87159 5.61104 8.87013C5.6136 8.87277 5.6136 8.88566 5.63305 8.88566C5.64903 8.8835 5.66442 8.87823 5.67836 8.87013C5.6939 8.86373 5.70687 8.85716 5.70687 8.84453C5.70038 8.82251 5.68741 8.8121 5.66804 8.8121C5.65811 8.81147 5.64821 8.81373 5.63954 8.81859C5.63954 8.81859 5.63305 8.80562 5.61104 8.81859C5.58902 8.83156 5.59158 8.83156 5.59807 8.83804C5.60967 8.84837 5.60583 8.85511 5.60583 8.85511L5.60557 8.8546ZM5.45931 8.98925C5.45931 8.98277 5.49166 8.9698 5.5007 8.97372C5.50975 8.97628 5.5356 9.02544 5.5356 9.03064C5.5356 9.03713 5.50326 9.05266 5.49029 9.05266C5.47732 9.05266 5.45539 9.03064 5.45539 9.02706C5.45539 9.0245 5.47092 9.02066 5.47092 9.01801C5.47476 9.01161 5.45931 8.996 5.45931 8.98951V8.98925ZM5.35691 8.80024C5.3634 8.79768 5.3634 8.7912 5.37244 8.78471C5.37528 8.78283 5.3785 8.78162 5.38188 8.78117C5.38525 8.78073 5.38868 8.78106 5.3919 8.78215C5.39418 8.77808 5.39734 8.77457 5.40115 8.77186C5.40496 8.76916 5.40932 8.76734 5.41392 8.76653C5.42945 8.76397 5.44242 8.76653 5.43952 8.77302C5.43952 8.79248 5.45249 8.80536 5.45249 8.82089C5.45249 8.83642 5.44344 8.85588 5.4111 8.86885C5.37876 8.87789 5.33473 8.87789 5.32824 8.87533C5.32176 8.87277 5.31527 8.84683 5.32176 8.83386C5.32824 8.82089 5.34633 8.80673 5.35674 8.80024H5.35691Z" fill="#82764F"/>
<path fill-rule="evenodd" clip-rule="evenodd" d="M5.39962 8.80908C5.39962 8.80908 5.3776 8.82205 5.3776 8.82854C5.37565 8.8348 5.37479 8.84135 5.37504 8.84791C5.37504 8.85175 5.40355 8.84535 5.40739 8.84142C5.40867 8.83886 5.39962 8.81582 5.39962 8.80908Z" fill="#6E6342"/>
<path fill-rule="evenodd" clip-rule="evenodd" d="M5.20558 8.74822C5.21846 8.75087 5.24048 8.74822 5.25729 8.75471C5.27026 8.76119 5.2793 8.77416 5.26633 8.7897C5.25336 8.80523 5.24073 8.82852 5.21198 8.8246C5.17963 8.82204 5.14857 8.80523 5.14857 8.79225C5.14803 8.78405 5.14912 8.77582 5.15179 8.76804C5.15446 8.76026 5.15864 8.75309 5.1641 8.74694C5.17707 8.73662 5.18347 8.7431 5.20549 8.74822H5.20558Z" fill="#585136"/>
<path fill-rule="evenodd" clip-rule="evenodd" d="M5.19717 8.76123C5.19717 8.76123 5.15579 8.79357 5.14538 8.80919C5.13241 8.82472 5.069 8.90493 5.04963 8.92174C5.05607 8.91039 5.0634 8.89958 5.07156 8.8894C5.04596 8.90577 5.02677 8.93045 5.01721 8.95929C5.00168 9.00725 5.10399 9.0331 5.17123 9.05256C5.23848 9.07201 5.2645 9.07816 5.2645 9.07816C5.23975 9.04095 5.21849 9.00153 5.20101 8.9604C5.17541 8.89956 5.16219 8.89307 5.179 8.86457C5.19197 8.83607 5.21143 8.8167 5.21143 8.79468C5.20366 8.7742 5.19717 8.76123 5.19717 8.76123Z" fill="#574F35"/>
<path fill-rule="evenodd" clip-rule="evenodd" d="M3.71892 8.86355C3.72834 8.86528 3.738 8.86528 3.74742 8.86355C3.76679 8.8609 3.96878 8.78675 4.17981 8.80006C4.33779 8.80961 4.49437 8.83534 4.64709 8.87686C4.91248 8.94675 5.24255 9.08524 5.45614 9.16426C5.51305 9.18619 5.56878 9.22511 5.60974 9.24055C5.77289 9.30404 5.77929 9.30404 5.87512 9.32085C5.98776 9.33638 6.10296 9.29883 6.22337 9.27298C6.37091 9.24055 6.62333 9.22502 6.84468 9.19268C6.91626 9.18276 6.98686 9.16674 7.05571 9.14481C7.05571 9.14481 6.87967 9.32085 6.45761 9.38425C6.28701 9.41016 6.11365 9.41234 5.94245 9.39074C5.8078 9.37777 5.71854 9.35831 5.65121 9.33894C5.57484 9.31692 5.41816 9.25864 5.22531 9.21094C5.09065 9.17595 4.94047 9.1501 4.76835 9.11776C4.34373 9.04002 3.88293 8.95076 3.71875 8.86406L3.71892 8.86355Z" fill="#252211"/>
<path fill-rule="evenodd" clip-rule="evenodd" d="M3.23862 8.06348C3.13622 8.15018 3.0276 8.23303 2.92153 8.31325L2.60178 8.55892C2.49307 8.63914 2.38691 8.72199 2.27811 8.80229C2.16931 8.88259 2.06068 8.95888 1.94531 9.03269C2.04771 8.94599 2.15634 8.86569 2.26506 8.78676C2.37377 8.70783 2.4865 8.63043 2.59137 8.55039L2.91112 8.30437C3.02111 8.22416 3.12726 8.1413 3.23862 8.06365V8.06348ZM2.67295 8.96963C2.67295 8.96963 2.78815 8.8738 2.93185 8.73923C3.11045 8.57232 3.32925 8.35864 3.39914 8.3199L2.67286 8.96972L2.67295 8.96963Z" fill="#CFB66C"/>
<path fill-rule="evenodd" clip-rule="evenodd" d="M2.67188 8.9696C2.72888 8.91268 2.78972 8.85704 2.85056 8.8026L2.94375 8.72239C2.97225 8.69679 3.00468 8.66803 3.03309 8.63953C3.09001 8.58261 3.14573 8.52168 3.20265 8.46349C3.23086 8.43422 3.26069 8.40656 3.29199 8.38063C3.30764 8.36678 3.32503 8.35502 3.3437 8.34564C3.35932 8.33659 3.37613 8.32004 3.39806 8.31714C3.38518 8.33659 3.36965 8.34564 3.35668 8.36245C3.34114 8.37542 3.32817 8.39095 3.31529 8.40384C3.28679 8.43234 3.25445 8.45819 3.22594 8.48414C3.1651 8.53593 3.1017 8.58654 3.04086 8.64072C2.98001 8.69491 2.9231 8.75336 2.86217 8.80772C2.79621 8.86344 2.73536 8.9178 2.67188 8.96985V8.9696ZM3.44602 8.45179C3.44602 8.45179 3.02405 8.86481 2.93726 8.93205L3.44602 8.45179Z" fill="#CFB66C"/>
<path fill-rule="evenodd" clip-rule="evenodd" d="M3.44626 8.45178C3.4083 8.49572 3.3676 8.53722 3.3244 8.57603L3.1964 8.69771C3.15501 8.7391 3.1161 8.78057 3.07216 8.82196C3.02684 8.86078 2.98546 8.89876 2.9375 8.9346L3.06175 8.81291C3.10322 8.77153 3.14853 8.73663 3.19256 8.69515L3.31681 8.57347C3.35947 8.5308 3.40095 8.48933 3.44626 8.45178ZM3.46563 8.6757C3.42673 8.78426 3.3809 8.8902 3.32841 8.99288C3.2197 9.2104 3.05663 9.48218 2.98537 9.62076L3.46563 8.6757Z" fill="#CFB66C"/>
<path fill-rule="evenodd" clip-rule="evenodd" d="M3.47116 8.67578C3.47116 8.72365 3.45819 8.76513 3.44266 8.80651C3.42752 8.84793 3.41026 8.88855 3.39095 8.9282C3.37149 8.96702 3.34948 9.0085 3.32746 9.04604C3.30545 9.08359 3.27959 9.12233 3.26013 9.16124L3.1294 9.39164C3.08409 9.46844 3.04006 9.54567 2.99219 9.61948C3.02453 9.53662 3.06856 9.45897 3.11003 9.3826C3.15534 9.3058 3.19673 9.229 3.23803 9.14955C3.2582 9.10996 3.27634 9.06938 3.29239 9.02795C3.31176 8.98648 3.33113 8.94765 3.34675 8.91011C3.36612 8.86872 3.38165 8.82981 3.4011 8.79235C3.42304 8.75215 3.44121 8.71333 3.47099 8.67578H3.47116Z" fill="#CFB66C"/>
<path fill-rule="evenodd" clip-rule="evenodd" d="M3.9286 9.73718C3.9286 9.73718 3.8006 9.90674 3.8134 10.1216C3.8483 10.0091 3.89233 9.83685 3.9286 9.73718ZM4.05029 9.90717C4.05029 9.90717 4.00497 10.368 3.96743 10.5945C4.0205 10.3326 4.03083 10.3547 4.05029 9.90717ZM4.89816 10.6217C4.89816 10.6217 4.70658 11.1849 4.70266 11.3414C4.74413 11.1805 4.82434 10.8517 4.89816 10.6213V10.6217Z" fill="#DEC270"/>
<path fill-rule="evenodd" clip-rule="evenodd" d="M5.34375 9.70239C5.34375 9.70239 5.65445 10.215 5.88749 10.6525C5.82443 10.4323 5.67937 10.0285 5.34375 9.70239Z" fill="#CBAF59"/>
<path fill-rule="evenodd" clip-rule="evenodd" d="M6.17969 10.457C6.35028 10.7586 6.50411 11.0693 6.64049 11.3878C6.61463 11.1677 6.54466 10.791 6.17969 10.457Z" fill="#E3C677"/>
<path fill-rule="evenodd" clip-rule="evenodd" d="M8.63781 11.2128C8.68952 11.1805 8.79183 11.0044 8.88118 10.9604C8.97044 10.9151 9.03776 10.906 9.11806 10.8167C9.19828 10.7234 9.22046 10.6665 9.39633 10.5928C9.64235 10.4865 9.47313 10.3493 9.47313 10.3493C9.50023 10.3227 9.52921 10.2981 9.55983 10.2756C9.62332 10.2277 9.69705 10.1694 9.69065 10.0671C9.6816 9.89502 9.64926 9.64516 9.50812 9.50018C9.64534 9.47168 9.90808 9.45231 10.0713 9.41092C10.2602 9.36296 10.347 9.29564 10.347 9.29564C10.347 9.29564 10.2383 9.11055 10.4144 8.92418C10.5904 8.73781 10.7341 8.62645 10.8403 8.41798C10.7186 8.40245 10.5331 8.33777 10.0596 8.51765C10.0852 8.52968 10.1099 8.54351 10.1334 8.55904C10.1334 8.55904 9.8422 8.63934 9.73605 8.72868C9.55087 8.88527 9.52758 9.01344 9.32696 9.10927C9.12634 9.2051 8.92436 9.17916 8.75744 9.25681C8.59053 9.33446 8.56587 9.40051 8.50494 9.42901C8.51791 9.44454 8.50238 9.4704 8.52696 9.49242C8.51143 9.51443 8.4208 9.66197 8.3289 9.66197C8.33794 9.69696 8.4156 9.72282 8.4156 9.72282C8.4156 9.72282 8.35868 9.76429 8.2137 9.77461C8.28743 9.85141 8.3574 9.93512 8.55025 10.0568C8.53472 10.0892 8.46996 10.1371 8.4959 10.198C8.5244 10.2588 8.5983 10.3417 8.89329 10.409C8.74311 10.4154 8.56715 10.4504 8.33009 10.418C8.09321 10.3895 8.05438 10.3727 7.90812 10.409C7.92365 10.4245 7.96504 10.4245 8.0013 10.4659C7.96248 10.4685 7.71911 10.4374 7.63625 10.5462C7.54955 10.6588 7.512 10.8439 7.51849 10.9682C7.47318 10.9902 7.42914 11.029 7.45116 11.1093C7.47318 11.1896 7.58838 11.2155 7.66219 11.2659C7.73592 11.3203 7.7424 11.3396 7.81238 11.3267C7.8861 11.3112 7.99482 11.2375 8.05831 11.2375C8.12179 11.2375 8.16702 11.2854 8.16702 11.2854C8.16702 11.2854 8.33922 11.2025 8.35604 11.218C8.37157 11.2336 8.3586 11.3332 8.37541 11.3488C8.39247 11.3604 8.58644 11.2452 8.63823 11.2128H8.63781Z" fill="#ECD592"/>
<path fill-rule="evenodd" clip-rule="evenodd" d="M12.3981 6.0324C11.5891 3.9431 9.58905 3.55603 9.58905 3.55603H3.8829L3.90491 5.68416H5.0413V10.4363H3.88281V12.5606H9.4311C10.7683 12.5606 11.8401 11.2168 11.8401 11.2168C13.5566 8.78065 12.3981 6.0324 12.3981 6.0324H12.3981ZM9.46088 9.78511C9.46088 9.78511 9.02568 10.413 8.55217 10.413H7.60497L7.58252 5.68936H8.7981C8.7981 5.68936 9.3613 5.80712 9.75477 6.92166C9.75477 6.92166 10.2764 8.5174 9.46088 9.78511Z" fill="white" fill-opacity="0.8"/>
</g>
<defs>
<clipPath id="clip0_581_3685">
<rect width="16" height="16" fill="white"/>
</clipPath>
</defs>
</svg>
