<svg width="16" height="16" viewBox="0 0 16 16" fill="none" xmlns="http://www.w3.org/2000/svg">
<circle cx="8" cy="8" r="8" fill="url(#paint0_linear_581_3826)"/>
<path d="M3.05505 8.02981L6.25452 10.4079C6.25959 10.4079 6.25959 10.4129 6.26466 10.4129L7.45115 11.2914C7.55256 11.3672 7.69454 11.2965 7.69454 11.1703L7.69961 4.62174C7.68947 4.50562 7.67426 4.38444 7.6489 4.26831C7.62355 4.15724 7.58806 4.05121 7.53735 3.96033C7.62355 4.60155 7.25848 5.3488 6.63988 5.83855C6.50298 5.94963 6.31537 6.0708 6.10748 6.15663C5.88438 6.25256 5.21 6.48482 5.21 6.48482L3.17674 7.21692C2.82688 7.34314 2.75589 7.80765 3.05505 8.02981Z" fill="white"/>
<path d="M6.2301 6.10096C6.23517 6.09591 6.24531 6.09591 6.25039 6.09086C6.26053 6.08581 6.27067 6.08076 6.28588 6.07066C6.30109 6.06562 6.31123 6.05552 6.32644 6.05047C6.33151 6.04542 6.34165 6.04037 6.34672 6.04037C6.36194 6.03027 6.38222 6.02018 6.39743 6.01008C6.4025 6.00503 6.40757 6.00503 6.41264 5.99998C6.42785 5.98988 6.44306 5.97978 6.46335 5.96969C6.47349 5.96464 6.47856 5.95959 6.4887 5.95454C6.49884 5.94444 6.51405 5.93939 6.52419 5.92929C6.5394 5.9192 6.55461 5.90405 6.5749 5.89395C6.57997 5.89395 6.57997 5.8889 6.58504 5.8889C6.60532 5.87375 6.6256 5.85861 6.64588 5.84346C7.26448 5.35371 7.62956 4.60646 7.54336 3.96524C7.50786 3.90465 7.46223 3.84911 7.41153 3.80872L6.35687 3.03118C6.25546 2.95544 6.10841 3.02613 6.10841 3.15235V4.98513C6.10841 6.1363 5.21094 6.48468 5.21094 6.48468C5.21094 6.48468 5.89038 6.25748 6.10841 6.16155C6.14898 6.14135 6.18954 6.12115 6.2301 6.10096Z" fill="#F2EEFF"/>
<path d="M12.8846 7.90365L9.68312 5.52559C9.67805 5.52559 9.67805 5.52054 9.67297 5.52054L8.48573 4.64202C8.38425 4.56628 8.24219 4.63697 8.24219 4.76319V11.3117C8.25233 11.4278 8.26756 11.549 8.29292 11.6651C8.31829 11.7762 8.35381 11.8822 8.40455 11.9731C8.31829 11.3319 8.6836 10.5847 9.30259 10.0949C9.43958 9.98383 9.62731 9.86265 9.83533 9.77682C10.0535 9.68089 10.7334 9.45369 10.7334 9.45369L12.7679 8.72159C13.118 8.59031 13.184 8.12581 12.8846 7.90365Z" fill="white"/>
<path d="M9.71725 9.83245C9.71218 9.8375 9.70203 9.8375 9.69696 9.84255C9.68681 9.8476 9.67666 9.85265 9.66144 9.86275C9.64622 9.86779 9.63607 9.87789 9.62085 9.88294C9.61578 9.88799 9.60563 9.89304 9.60055 9.89304C9.58533 9.90314 9.56504 9.91324 9.54982 9.92333C9.54474 9.92838 9.53967 9.92838 9.5346 9.93343C9.51937 9.94353 9.50415 9.95363 9.48386 9.96373C9.47371 9.96877 9.46864 9.97382 9.45849 9.97887C9.44834 9.98897 9.43312 9.99402 9.42297 10.0041C9.40775 10.0142 9.39253 10.0294 9.37224 10.0395C9.36716 10.0395 9.36716 10.0445 9.36209 10.0445C9.3418 10.0597 9.3215 10.0748 9.30121 10.0899C8.68221 10.5797 8.31691 11.3269 8.40316 11.9682C8.43868 12.0288 8.48434 12.0843 8.53508 12.1247L9.58533 12.9022C9.68681 12.978 9.83395 12.9073 9.83395 12.7811V10.9483C9.83395 9.80216 10.732 9.44873 10.732 9.44873C10.732 9.44873 10.0521 9.67593 9.83395 9.77186C9.79843 9.79206 9.75784 9.81226 9.71725 9.83245Z" fill="#F2EEFF"/>
<defs>
<linearGradient id="paint0_linear_581_3826" x1="8" y1="0" x2="8" y2="16" gradientUnits="userSpaceOnUse">
<stop stop-color="#7770E0"/>
<stop offset="1" stop-color="#554FD8"/>
</linearGradient>
</defs>
</svg>
