<svg width="16" height="16" viewBox="0 0 16 16" fill="none" xmlns="http://www.w3.org/2000/svg">
<mask id="mask0_581_3425" style="mask-type:alpha" maskUnits="userSpaceOnUse" x="0" y="0" width="16" height="16">
<circle cx="8" cy="8" r="8" fill="#D9D9D9"/>
</mask>
<g mask="url(#mask0_581_3425)">
<path d="M16.8196 0H-0.828125V16H16.8196V0Z" fill="url(#paint0_radial_581_3425)"/>
<path d="M5.82898 4.16804L5.45636 4.36991L5.53376 3.9542L5.22656 3.66296L5.64626 3.60711L5.82898 3.22571L6.01091 3.60711L6.4306 3.66296L6.12341 3.9542L6.20081 4.36991L5.82898 4.16804Z" fill="url(#paint1_linear_581_3425)"/>
<path style="mix-blend-mode:overlay" d="M5.22656 3.66296L5.82898 3.79781V3.22571L5.64626 3.60711L5.22656 3.66296Z" fill="url(#paint2_radial_581_3425)"/>
<path style="mix-blend-mode:multiply" d="M5.82812 3.79781L6.42975 3.66296L6.12255 3.9542L6.19995 4.36991L5.82812 3.79781Z" fill="url(#paint3_linear_581_3425)"/>
<path style="mix-blend-mode:multiply" d="M5.83356 3.79822L5.46094 4.37032L5.83356 4.16845V3.79822Z" fill="url(#paint4_linear_581_3425)"/>
<path d="M10.1407 4.16804L9.76886 4.36991L9.84626 3.9542L9.53906 3.66296L9.95876 3.60711L10.1407 3.22571L10.3234 3.60711L10.7431 3.66296L10.4359 3.9542L10.5133 4.36991L10.1407 4.16804Z" fill="url(#paint5_linear_581_3425)"/>
<path style="mix-blend-mode:overlay" d="M9.53906 3.66296L10.1407 3.79781V3.22571L9.95876 3.60711L9.53906 3.66296Z" fill="url(#paint6_radial_581_3425)"/>
<path style="mix-blend-mode:multiply" d="M10.1406 3.79781L10.743 3.66296L10.4359 3.9542L10.5132 4.36991L10.1406 3.79781Z" fill="url(#paint7_linear_581_3425)"/>
<path style="mix-blend-mode:multiply" d="M10.1374 3.79822L9.76562 4.37032L10.1374 4.16845V3.79822Z" fill="url(#paint8_linear_581_3425)"/>
<path d="M7.98523 2.83107L7.61261 3.03294L7.69001 2.61643L7.38281 2.32519L7.80251 2.27014L7.98523 1.88794L8.16716 2.27014L8.58685 2.32519L8.27966 2.61643L8.35706 3.03294L7.98523 2.83107Z" fill="url(#paint9_linear_581_3425)"/>
<path style="mix-blend-mode:overlay" d="M7.38281 2.32519L7.98523 2.46004V1.88794L7.80251 2.27014L7.38281 2.32519Z" fill="url(#paint10_radial_581_3425)"/>
<path style="mix-blend-mode:multiply" d="M7.98438 2.46004L8.586 2.3252L8.2788 2.61643L8.3562 3.03294L7.98438 2.46004Z" fill="url(#paint11_linear_581_3425)"/>
<path style="mix-blend-mode:multiply" d="M7.982 2.45984L7.60938 3.03274L7.982 2.83087V2.45984Z" fill="url(#paint12_linear_581_3425)"/>
<path d="M8.41822 4.33472V4.36982L8.40625 4.35227L8.41822 4.33472Z" fill="url(#paint13_linear_581_3425)"/>
<path d="M7.95698 14.1C7.94366 14.097 7.93059 14.093 7.91788 14.088C7.57418 13.9649 7.24136 13.8133 6.92289 13.6348C4.79248 12.4436 3.46875 10.1552 3.46875 7.66329V4.79083L3.66583 4.8387C4.13233 4.95519 4.61089 5.01652 5.09169 5.02142C6.8806 5.02142 7.69606 4.07111 7.84687 3.87164C7.85273 3.86275 7.85913 3.85422 7.86602 3.8461L8.00326 3.68652L8.12773 3.87483C8.27853 4.07351 9.094 5.02461 10.8837 5.02461C11.3646 5.01919 11.8431 4.95733 12.3096 4.8403L12.5066 4.79242V7.66489C12.5066 10.1568 11.1829 12.4452 9.0525 13.6364C8.7323 13.8162 8.39761 13.9689 8.05193 14.0928C8.04126 14.0968 8.03033 14.1 8.01922 14.1024L7.9881 14.1088L7.95698 14.1Z" fill="url(#paint14_linear_581_3425)"/>
<path d="M12.3461 5.00001V7.66263C12.3461 10.0699 11.0751 12.32 8.97417 13.4953C8.6608 13.6697 8.3333 13.8173 7.99514 13.9366L7.98477 13.9406L7.9728 13.9366C7.63554 13.8163 7.30909 13.6676 6.99696 13.4921C4.89607 12.3176 3.625 10.0675 3.625 7.66024V5.00001C6.53896 5.69579 7.79806 4.20211 7.97519 3.96274L7.98716 3.94678C7.98716 3.95156 7.99354 3.95635 7.99753 3.96274C8.17547 4.20211 9.43137 5.69579 12.3461 5.00001Z" fill="url(#paint15_linear_581_3425)"/>
<path style="mix-blend-mode:multiply" d="M4.47656 10.9508C5.0644 12.0175 5.9385 12.8988 7.00034 13.4953C7.31258 13.6697 7.63903 13.8173 7.97618 13.9366L7.98815 13.9406L7.99613 13.9366C8.33357 13.8161 8.66027 13.6674 8.97277 13.4922C10.0346 12.8956 10.9087 12.0143 11.4966 10.9476L4.47656 10.9508Z" fill="url(#paint16_linear_581_3425)"/>
<path style="mix-blend-mode:screen" d="M12.3461 5.00001V7.66263C12.3461 10.0699 11.0751 12.32 8.97417 13.4953C8.6608 13.6697 8.3333 13.8173 7.99514 13.9366L7.98477 13.9406L7.9728 13.9366C7.63554 13.8163 7.30909 13.6676 6.99696 13.4921C4.89607 12.3176 3.625 10.0675 3.625 7.66024V5.00001C6.53896 5.69579 7.79805 4.20211 7.97519 3.96274L7.98716 3.94678C7.98716 3.95156 7.99354 3.95635 7.99753 3.96274C8.17546 4.20211 9.43137 5.69579 12.3461 5.00001Z" stroke="url(#paint17_linear_581_3425)" stroke-width="0.81" stroke-miterlimit="10"/>
<g style="mix-blend-mode:multiply" opacity="0.7">
<path d="M7.988 5.05942C8.55611 5.49667 9.49684 5.97861 10.8844 5.97861C11.1067 5.97828 11.3288 5.96629 11.5499 5.9427V7.66219C11.5499 9.80776 10.4136 11.7762 8.58563 12.7983C8.39223 12.9066 8.19268 13.0036 7.988 13.0888C7.78332 13.0036 7.58377 12.9066 7.39037 12.7983C5.56316 11.7762 4.42694 9.80856 4.42694 7.66299V5.9427C4.64798 5.96629 4.8701 5.97828 5.0924 5.97861C6.47916 5.97861 7.41989 5.49986 7.988 5.05942ZM7.988 4.64929L7.88667 4.72908C7.37282 5.15197 6.47038 5.65625 5.09399 5.65625C4.82501 5.6555 4.55635 5.63737 4.2897 5.60199L4.10938 5.57806V7.66299C4.10938 9.92426 5.30624 11.9988 7.23637 13.0768C7.46039 13.2025 7.69226 13.3136 7.93055 13.4095L7.9896 13.4335L8.04944 13.4095C8.28773 13.3136 8.5196 13.2025 8.74362 13.0768C10.6722 11.998 11.8706 9.92346 11.8706 7.66219V5.58125L11.6903 5.60518C11.4236 5.64057 11.155 5.65869 10.886 5.65944C9.50722 5.65944 8.60478 5.15517 8.09333 4.73227L7.99199 4.65248L7.988 4.64929Z" fill="url(#paint18_linear_581_3425)"/>
</g>
<path d="M7.98627 13.2611C7.75455 13.1695 7.52906 13.0629 7.31124 12.9419C5.43296 11.8879 4.26562 9.86681 4.26562 7.66299V5.76318C4.53915 5.79954 4.81473 5.81819 5.09066 5.81903C6.5229 5.81903 7.46045 5.28842 7.98627 4.85596C8.51209 5.28842 9.44963 5.81903 10.8827 5.81903C11.1586 5.81819 11.4342 5.79954 11.7077 5.76318V7.6622C11.7077 9.86602 10.5404 11.8871 8.66209 12.9372C8.44395 13.0594 8.21822 13.1676 7.98627 13.2611Z" fill="url(#paint19_radial_581_3425)"/>
<g style="mix-blend-mode:lighten" opacity="0.5">
<path d="M5.08733 5.9791C4.86504 5.97878 4.64291 5.96679 4.42188 5.9432V7.66348C4.42188 9.80906 5.5581 11.7767 7.3853 12.7988C7.57227 12.9032 7.76486 12.9973 7.96219 13.0805V5.07507C7.39248 5.50834 6.45734 5.9791 5.08733 5.9791Z" fill="url(#paint20_radial_581_3425)" style="mix-blend-mode:screen"/>
</g>
<g style="mix-blend-mode:lighten">
<path d="M10.8781 5.97876C9.49132 5.97876 8.54979 5.50002 7.98168 5.05957L7.96094 5.07473V13.0801L7.98168 13.0889C8.18636 13.0038 8.38591 12.9068 8.57932 12.7985C10.4073 11.7764 11.5435 9.80792 11.5435 7.66234V5.94285C11.3225 5.96645 11.1004 5.97843 10.8781 5.97876Z" fill="url(#paint21_radial_581_3425)" style="mix-blend-mode:color-dodge"/>
</g>
<path style="mix-blend-mode:multiply" d="M7.98627 13.2611C7.75455 13.1695 7.52906 13.0629 7.31124 12.9419C5.43296 11.8879 4.26562 9.86681 4.26562 7.66299V5.76318C4.53915 5.79954 4.81473 5.81819 5.09066 5.81903C6.5229 5.81903 7.46045 5.28842 7.98627 4.85596C8.51209 5.28842 9.44963 5.81903 10.8827 5.81903C11.1586 5.81819 11.4342 5.79954 11.7077 5.76318V7.6622C11.7077 9.86602 10.5404 11.8871 8.66209 12.9372C8.44395 13.0594 8.21822 13.1676 7.98627 13.2611Z" stroke="url(#paint22_linear_581_3425)" stroke-width="0.5" stroke-miterlimit="10"/>
<path style="mix-blend-mode:screen" d="M11.8681 5.58142V7.66236C11.8681 9.92363 10.6712 11.9982 8.74105 13.077C8.51703 13.2026 8.28516 13.3138 8.04688 13.4097" stroke="url(#paint23_linear_581_3425)" stroke-width="0.81" stroke-miterlimit="10"/>
<path d="M8.40339 4.35227L8.39062 4.36982V4.33472C8.39062 4.33472 8.39302 4.3411 8.40339 4.35227Z" fill="url(#paint24_linear_581_3425)"/>
<path style="mix-blend-mode:multiply" d="M4.72096 8.56461C4.69585 8.63794 4.64858 8.70166 4.58569 8.74697C4.5228 8.79227 4.44739 8.81694 4.36989 8.81755L3.53527 8.65797C3.51772 8.53429 3.50256 8.40982 3.49219 8.28454V8.28056C3.60709 8.16406 4.23584 8.23747 4.23584 8.23747L4.52707 7.79224L4.5941 7.8441L4.72096 8.56461Z" fill="url(#paint25_linear_581_3425)"/>
<path style="mix-blend-mode:multiply" d="M4.92379 9.68392C4.92379 9.68392 4.90384 9.83472 4.69559 9.92329L3.83146 9.8826C3.77188 9.7044 3.71869 9.52407 3.67188 9.34162C3.77565 9.31211 3.88316 9.29786 3.99104 9.29933C4.07721 9.3081 4.72511 8.96899 4.72511 8.96899L4.78097 9.01607L4.92379 9.68392Z" fill="url(#paint26_linear_581_3425)"/>
<path style="mix-blend-mode:multiply" d="M5.04236 10.48C5.02555 10.5209 4.99986 10.5576 4.96716 10.5874C4.93446 10.6172 4.89556 10.6394 4.85326 10.6523C4.63155 10.6769 4.41167 10.7158 4.19499 10.7688C4.13435 10.6465 4.07716 10.5225 4.02344 10.397C4.06506 10.3354 4.1221 10.2857 4.18887 10.2529C4.25564 10.2202 4.32982 10.2055 4.40404 10.2103C4.51016 10.223 4.89076 9.99963 4.89076 9.99963L4.93864 10.0467L5.04236 10.48Z" fill="url(#paint27_linear_581_3425)"/>
<path d="M4.65231 8.56484L4.52784 7.78847L1.21094 6.36182L1.51414 7.78847L4.65231 8.56484Z" fill="url(#paint28_linear_581_3425)"/>
<path d="M4.72584 8.96949L2.14062 8.36707L2.36005 9.382L4.8567 9.66686L4.72584 8.96949Z" fill="url(#paint29_linear_581_3425)"/>
<path d="M4.8922 9.99919L3.13281 9.88269L3.27723 10.5386L4.99353 10.4516L4.8922 9.99919Z" fill="url(#paint30_linear_581_3425)"/>
<path d="M4.65379 8.56461C4.62287 8.61224 4.57712 8.64837 4.52362 8.6674C4.47011 8.68644 4.41183 8.68733 4.35777 8.66993L1.51562 7.79224L4.65379 8.56461Z" fill="url(#paint31_linear_581_3425)"/>
<path d="M4.85603 9.66693C4.82249 9.71883 4.77412 9.75944 4.71721 9.78349C4.66029 9.80754 4.59745 9.81391 4.53686 9.80178L2.35938 9.38208L4.85603 9.66693Z" fill="url(#paint32_linear_581_3425)"/>
<path d="M4.98974 10.4514C4.95813 10.4885 4.91869 10.5181 4.87426 10.5381C4.82983 10.5581 4.78152 10.568 4.73281 10.5671L3.27344 10.5384L4.98974 10.4514Z" fill="url(#paint33_linear_581_3425)"/>
<path style="mix-blend-mode:overlay" d="M1.21094 6.36182L1.35217 7.02647L4.59486 8.20339L4.52784 7.78847L1.21094 6.36182Z" fill="url(#paint34_radial_581_3425)"/>
<path style="mix-blend-mode:overlay" d="M2.14062 8.36707L4.72584 8.96949L4.7817 9.2695L2.24595 8.85538L2.14062 8.36707Z" fill="url(#paint35_radial_581_3425)"/>
<path style="mix-blend-mode:overlay" d="M3.13281 9.88269L4.8922 9.99919L4.94007 10.2106H3.20542L3.13281 9.88269Z" fill="url(#paint36_radial_581_3425)"/>
<path style="mix-blend-mode:multiply" d="M11.25 8.56461C11.2751 8.63794 11.3224 8.70166 11.3853 8.74697C11.4482 8.79227 11.5236 8.81694 11.6011 8.81755L12.4357 8.65797C12.4532 8.53429 12.4684 8.40982 12.4788 8.28454V8.28056C12.3639 8.16406 11.7351 8.23747 11.7351 8.23747L11.4455 7.79224L11.3785 7.8441L11.25 8.56461Z" fill="url(#paint37_linear_581_3425)"/>
<path style="mix-blend-mode:multiply" d="M11.0469 9.68392C11.0469 9.68392 11.0668 9.83472 11.2751 9.92329L12.14 9.8826C12.2001 9.7044 12.2533 9.52407 12.2996 9.34162C12.1958 9.31211 12.0883 9.29786 11.9804 9.29933C11.8951 9.30412 11.2448 8.96899 11.2448 8.96899L11.1889 9.01607L11.0469 9.68392Z" fill="url(#paint38_linear_581_3425)"/>
<path style="mix-blend-mode:multiply" d="M10.9219 10.48C10.9387 10.5209 10.9644 10.5576 10.9971 10.5874C11.0298 10.6172 11.0687 10.6394 11.111 10.6523C11.3327 10.6769 11.5526 10.7158 11.7693 10.7688C11.8299 10.6465 11.8871 10.5225 11.9408 10.397C11.8993 10.3356 11.8425 10.2861 11.7761 10.2534C11.7096 10.2206 11.6358 10.2058 11.5618 10.2103C11.4557 10.223 11.0751 9.99963 11.0751 9.99963L11.0272 10.0467L10.9219 10.48Z" fill="url(#paint39_linear_581_3425)"/>
<path d="M11.3203 8.56484L11.4448 7.78847L14.7617 6.36182L14.4585 7.78847L11.3203 8.56484Z" fill="url(#paint40_linear_581_3425)"/>
<path d="M11.248 8.96949L13.8333 8.36707L13.6138 9.382L11.1172 9.66686L11.248 8.96949Z" fill="url(#paint41_linear_581_3425)"/>
<path d="M11.0779 9.99919L12.8373 9.88269L12.6929 10.5386L10.9766 10.4516L11.0779 9.99919Z" fill="url(#paint42_linear_581_3425)"/>
<path d="M11.3203 8.56461C11.3512 8.61224 11.397 8.64837 11.4505 8.6674C11.504 8.68644 11.5623 8.68733 11.6163 8.66993L14.4593 7.79224L11.3203 8.56461Z" fill="url(#paint43_linear_581_3425)"/>
<path d="M11.1172 9.66693C11.1508 9.71875 11.1992 9.7593 11.2561 9.78334C11.313 9.80738 11.3758 9.8138 11.4363 9.80178L13.6154 9.38208L11.1172 9.66693Z" fill="url(#paint44_linear_581_3425)"/>
<path d="M10.9766 10.4514C11.0082 10.4885 11.0476 10.5181 11.092 10.5381C11.1365 10.5581 11.1848 10.568 11.2335 10.5671L12.6929 10.5384L10.9766 10.4514Z" fill="url(#paint45_linear_581_3425)"/>
<path style="mix-blend-mode:overlay" d="M14.7581 6.36182L14.6169 7.02647L11.375 8.20339L11.4412 7.78847L14.7581 6.36182Z" fill="url(#paint46_radial_581_3425)"/>
<path style="mix-blend-mode:overlay" d="M13.8286 8.36707L11.2434 8.96949L11.1875 9.2695L13.7232 8.85538L13.8286 8.36707Z" fill="url(#paint47_radial_581_3425)"/>
<path style="mix-blend-mode:overlay" d="M12.8385 9.88269L11.0791 9.99919L11.0312 10.2106H12.7659L12.8385 9.88269Z" fill="url(#paint48_radial_581_3425)"/>
<g filter="url(#filter0_d_581_3425)">
<path d="M5.45136 8.98478L7.15104 10.2535C7.15373 10.2535 7.15373 10.2562 7.15643 10.2562L7.78674 10.7249C7.84061 10.7653 7.91603 10.7276 7.91603 10.6602L7.91872 7.16659C7.91334 7.10463 7.90526 7.03999 7.89179 6.97803C7.87832 6.91877 7.85946 6.86221 7.83253 6.81372C7.87832 7.15581 7.68438 7.55447 7.35576 7.81575C7.28303 7.87501 7.18336 7.93966 7.07293 7.98545C6.95441 8.03663 6.59615 8.16053 6.59615 8.16053L5.51601 8.55111C5.33015 8.61845 5.29244 8.86626 5.45136 8.98478Z" fill="white"/>
<path d="M7.14298 7.95673C7.14568 7.95403 7.15106 7.95403 7.15376 7.95134C7.15914 7.94865 7.16453 7.94595 7.17261 7.94056C7.18069 7.93787 7.18608 7.93248 7.19416 7.92979C7.19685 7.9271 7.20224 7.9244 7.20493 7.9244C7.21302 7.91902 7.22379 7.91363 7.23187 7.90824C7.23456 7.90555 7.23726 7.90555 7.23995 7.90285C7.24803 7.89747 7.25611 7.89208 7.26689 7.88669C7.27228 7.884 7.27497 7.8813 7.28036 7.87861C7.28574 7.87322 7.29382 7.87053 7.29921 7.86514C7.30729 7.85976 7.31537 7.85168 7.32615 7.84629C7.32884 7.84629 7.32884 7.84359 7.33154 7.84359C7.34231 7.83551 7.35308 7.82743 7.36386 7.81935C7.69248 7.55807 7.88642 7.15941 7.84063 6.81732C7.82178 6.785 7.79753 6.75537 7.7706 6.73382L7.21032 6.319C7.15645 6.2786 7.07833 6.31631 7.07833 6.38365V7.36144C7.07833 7.97558 6.60156 8.16144 6.60156 8.16144C6.60156 8.16144 6.96251 8.04023 7.07833 7.98905C7.09988 7.97828 7.12143 7.9675 7.14298 7.95673Z" fill="#EBEBEB"/>
<path d="M10.6444 8.8584L8.94468 7.5897C8.94198 7.5897 8.94198 7.58701 8.93929 7.58701L8.30898 7.11832C8.25511 7.07791 8.17969 7.11562 8.17969 7.18297V10.6766C8.18507 10.7386 8.19316 10.8032 8.20662 10.8652C8.22009 10.9244 8.23895 10.981 8.26588 11.0295C8.22009 10.6874 8.41403 10.2887 8.74266 10.0274C8.81538 9.96817 8.91505 9.90353 9.02549 9.85774C9.14131 9.80656 9.50226 9.68534 9.50226 9.68534L10.5824 9.29477C10.7683 9.22473 10.8033 8.97692 10.6444 8.8584Z" fill="white"/>
<path d="M8.96993 9.88746C8.96723 9.89015 8.96185 9.89015 8.95915 9.89284C8.95377 9.89554 8.94838 9.89823 8.9403 9.90362C8.93222 9.90631 8.92683 9.9117 8.91875 9.91439C8.91606 9.91708 8.91067 9.91978 8.90798 9.91978C8.89989 9.92517 8.88912 9.93055 8.88104 9.93594C8.87835 9.93863 8.87565 9.93863 8.87296 9.94133C8.86488 9.94671 8.8568 9.9521 8.84602 9.95749C8.84063 9.96018 8.83794 9.96288 8.83255 9.96557C8.82717 9.97096 8.81909 9.97365 8.8137 9.97904C8.80562 9.98443 8.79754 9.99251 8.78676 9.99789C8.78407 9.99789 8.78407 10.0006 8.78137 10.0006C8.7706 10.0087 8.75983 10.0167 8.74905 10.0248C8.42043 10.2861 8.22649 10.6848 8.27228 11.0269C8.29113 11.0592 8.31538 11.0888 8.34231 11.1104L8.89989 11.5252C8.95377 11.5656 9.03188 11.5279 9.03188 11.4605V10.4827C9.03188 9.87129 9.50865 9.68274 9.50865 9.68274C9.50865 9.68274 9.14771 9.80395 9.03188 9.85513C9.01303 9.86591 8.99148 9.87668 8.96993 9.88746Z" fill="#EBEBEB"/>
</g>
</g>
<defs>
<filter id="filter0_d_581_3425" x="1.35156" y="6.30237" width="13.3906" height="13.2395" filterUnits="userSpaceOnUse" color-interpolation-filters="sRGB">
<feFlood flood-opacity="0" result="BackgroundImageFix"/>
<feColorMatrix in="SourceAlpha" type="matrix" values="0 0 0 0 0 0 0 0 0 0 0 0 0 0 0 0 0 0 127 0" result="hardAlpha"/>
<feOffset dy="4"/>
<feGaussianBlur stdDeviation="2"/>
<feComposite in2="hardAlpha" operator="out"/>
<feColorMatrix type="matrix" values="0 0 0 0 0.556863 0 0 0 0 0.337255 0 0 0 0 0.976471 0 0 0 0.25 0"/>
<feBlend mode="normal" in2="BackgroundImageFix" result="effect1_dropShadow_581_3425"/>
<feBlend mode="normal" in="SourceGraphic" in2="effect1_dropShadow_581_3425" result="shape"/>
</filter>
<radialGradient id="paint0_radial_581_3425" cx="0" cy="0" r="1" gradientUnits="userSpaceOnUse" gradientTransform="translate(7.48688 -1.616) scale(14.1564 19.252)">
<stop stop-color="#8969D7"/>
<stop offset="1" stop-color="#482193"/>
</radialGradient>
<linearGradient id="paint1_linear_581_3425" x1="5.58163" y1="3.42598" x2="6.0899" y2="4.25581" gradientUnits="userSpaceOnUse">
<stop offset="0.17" stop-color="#FFF1A3"/>
<stop offset="0.19" stop-color="#FCE594"/>
<stop offset="0.22" stop-color="#F6D17B"/>
<stop offset="0.26" stop-color="#F2C168"/>
<stop offset="0.3" stop-color="#EFB65A"/>
<stop offset="0.36" stop-color="#EEB052"/>
<stop offset="0.46" stop-color="#EDAE50"/>
<stop offset="0.54" stop-color="#EEB153"/>
<stop offset="0.61" stop-color="#F0B95D"/>
<stop offset="0.68" stop-color="#F5C76E"/>
<stop offset="0.73" stop-color="#FBDA85"/>
<stop offset="0.76" stop-color="#FFE794"/>
<stop offset="1" stop-color="#B77946"/>
</linearGradient>
<radialGradient id="paint2_radial_581_3425" cx="0" cy="0" r="1" gradientUnits="userSpaceOnUse" gradientTransform="translate(5.64706 3.31827) scale(0.99898)">
<stop stop-color="#F3E8DE"/>
<stop offset="0.54" stop-color="#F6EEE7" stop-opacity="0.36"/>
<stop offset="0.57" stop-color="#F6EEE7" stop-opacity="0.33"/>
<stop offset="0.75" stop-color="#F7F0E9" stop-opacity="0.15"/>
<stop offset="0.88" stop-color="#F8F1EB" stop-opacity="0.04"/>
<stop offset="0.96" stop-color="#F8F1EB" stop-opacity="0"/>
</radialGradient>
<linearGradient id="paint3_linear_581_3425" x1="6.61087" y1="4.46566" x2="5.95499" y2="3.47067" gradientUnits="userSpaceOnUse">
<stop stop-color="#B77946" stop-opacity="0"/>
<stop offset="0.18" stop-color="#FFF1A3"/>
<stop offset="0.34" stop-color="#E7C883"/>
<stop offset="0.51" stop-color="#D2A669"/>
<stop offset="0.67" stop-color="#C38D56"/>
<stop offset="0.81" stop-color="#BA7E4A"/>
<stop offset="0.93" stop-color="#B77946"/>
</linearGradient>
<linearGradient id="paint4_linear_581_3425" x1="5.57105" y1="4.58017" x2="5.92931" y2="3.1168" gradientUnits="userSpaceOnUse">
<stop stop-color="#B77946" stop-opacity="0"/>
<stop offset="0.18" stop-color="#FFF1A3"/>
<stop offset="0.34" stop-color="#E7C883"/>
<stop offset="0.51" stop-color="#D2A669"/>
<stop offset="0.67" stop-color="#C38D56"/>
<stop offset="0.81" stop-color="#BA7E4A"/>
<stop offset="0.93" stop-color="#B77946"/>
</linearGradient>
<linearGradient id="paint5_linear_581_3425" x1="9.89413" y1="3.42598" x2="10.4024" y2="4.25581" gradientUnits="userSpaceOnUse">
<stop offset="0.17" stop-color="#FFF1A3"/>
<stop offset="0.19" stop-color="#FCE594"/>
<stop offset="0.22" stop-color="#F6D17B"/>
<stop offset="0.26" stop-color="#F2C168"/>
<stop offset="0.3" stop-color="#EFB65A"/>
<stop offset="0.36" stop-color="#EEB052"/>
<stop offset="0.46" stop-color="#EDAE50"/>
<stop offset="0.54" stop-color="#EEB153"/>
<stop offset="0.61" stop-color="#F0B95D"/>
<stop offset="0.68" stop-color="#F5C76E"/>
<stop offset="0.73" stop-color="#FBDA85"/>
<stop offset="0.76" stop-color="#FFE794"/>
<stop offset="1" stop-color="#B77946"/>
</linearGradient>
<radialGradient id="paint6_radial_581_3425" cx="0" cy="0" r="1" gradientUnits="userSpaceOnUse" gradientTransform="translate(9.95876 3.31827) scale(0.99898)">
<stop stop-color="#F3E8DE"/>
<stop offset="0.54" stop-color="#F6EEE7" stop-opacity="0.36"/>
<stop offset="0.57" stop-color="#F6EEE7" stop-opacity="0.33"/>
<stop offset="0.75" stop-color="#F7F0E9" stop-opacity="0.15"/>
<stop offset="0.88" stop-color="#F8F1EB" stop-opacity="0.04"/>
<stop offset="0.96" stop-color="#F8F1EB" stop-opacity="0"/>
</radialGradient>
<linearGradient id="paint7_linear_581_3425" x1="10.9234" y1="4.46566" x2="10.2683" y2="3.47067" gradientUnits="userSpaceOnUse">
<stop stop-color="#B77946" stop-opacity="0"/>
<stop offset="0.18" stop-color="#FFF1A3"/>
<stop offset="0.34" stop-color="#E7C883"/>
<stop offset="0.51" stop-color="#D2A669"/>
<stop offset="0.67" stop-color="#C38D56"/>
<stop offset="0.81" stop-color="#BA7E4A"/>
<stop offset="0.93" stop-color="#B77946"/>
</linearGradient>
<linearGradient id="paint8_linear_581_3425" x1="9.87574" y1="4.58017" x2="10.234" y2="3.11681" gradientUnits="userSpaceOnUse">
<stop stop-color="#B77946" stop-opacity="0"/>
<stop offset="0.18" stop-color="#FFF1A3"/>
<stop offset="0.34" stop-color="#E7C883"/>
<stop offset="0.51" stop-color="#D2A669"/>
<stop offset="0.67" stop-color="#C38D56"/>
<stop offset="0.81" stop-color="#BA7E4A"/>
<stop offset="0.93" stop-color="#B77946"/>
</linearGradient>
<linearGradient id="paint9_linear_581_3425" x1="7.73788" y1="2.08821" x2="8.24615" y2="2.91804" gradientUnits="userSpaceOnUse">
<stop offset="0.17" stop-color="#FFF1A3"/>
<stop offset="0.19" stop-color="#FCE594"/>
<stop offset="0.22" stop-color="#F6D17B"/>
<stop offset="0.26" stop-color="#F2C168"/>
<stop offset="0.3" stop-color="#EFB65A"/>
<stop offset="0.36" stop-color="#EEB052"/>
<stop offset="0.46" stop-color="#EDAE50"/>
<stop offset="0.54" stop-color="#EEB153"/>
<stop offset="0.61" stop-color="#F0B95D"/>
<stop offset="0.68" stop-color="#F5C76E"/>
<stop offset="0.73" stop-color="#FBDA85"/>
<stop offset="0.76" stop-color="#FFE794"/>
<stop offset="1" stop-color="#B77946"/>
</linearGradient>
<radialGradient id="paint10_radial_581_3425" cx="0" cy="0" r="1" gradientUnits="userSpaceOnUse" gradientTransform="translate(7.80331 1.9805) scale(0.99898)">
<stop stop-color="#F3E8DE"/>
<stop offset="0.54" stop-color="#F6EEE7" stop-opacity="0.36"/>
<stop offset="0.57" stop-color="#F6EEE7" stop-opacity="0.33"/>
<stop offset="0.75" stop-color="#F7F0E9" stop-opacity="0.15"/>
<stop offset="0.88" stop-color="#F8F1EB" stop-opacity="0.04"/>
<stop offset="0.96" stop-color="#F8F1EB" stop-opacity="0"/>
</radialGradient>
<linearGradient id="paint11_linear_581_3425" x1="8.76632" y1="3.12789" x2="8.11124" y2="2.1329" gradientUnits="userSpaceOnUse">
<stop stop-color="#B77946" stop-opacity="0"/>
<stop offset="0.18" stop-color="#FFF1A3"/>
<stop offset="0.34" stop-color="#E7C883"/>
<stop offset="0.51" stop-color="#D2A669"/>
<stop offset="0.67" stop-color="#C38D56"/>
<stop offset="0.81" stop-color="#BA7E4A"/>
<stop offset="0.93" stop-color="#B77946"/>
</linearGradient>
<linearGradient id="paint12_linear_581_3425" x1="7.71949" y1="3.24179" x2="8.07775" y2="1.77843" gradientUnits="userSpaceOnUse">
<stop stop-color="#B77946" stop-opacity="0"/>
<stop offset="0.18" stop-color="#FFF1A3"/>
<stop offset="0.34" stop-color="#E7C883"/>
<stop offset="0.51" stop-color="#D2A669"/>
<stop offset="0.67" stop-color="#C38D56"/>
<stop offset="0.81" stop-color="#BA7E4A"/>
<stop offset="0.93" stop-color="#B77946"/>
</linearGradient>
<linearGradient id="paint13_linear_581_3425" x1="8.40625" y1="4.35227" x2="8.41822" y2="4.35227" gradientUnits="userSpaceOnUse">
<stop stop-color="#B77946"/>
<stop offset="0.24" stop-color="#FFE794"/>
<stop offset="0.27" stop-color="#FBDA85"/>
<stop offset="0.32" stop-color="#F5C76E"/>
<stop offset="0.39" stop-color="#F0B95D"/>
<stop offset="0.46" stop-color="#EEB153"/>
<stop offset="0.54" stop-color="#EDAE50"/>
<stop offset="0.64" stop-color="#EEB052"/>
<stop offset="0.7" stop-color="#EFB65A"/>
<stop offset="0.74" stop-color="#F2C168"/>
<stop offset="0.78" stop-color="#F6D17B"/>
<stop offset="0.81" stop-color="#FCE594"/>
<stop offset="0.83" stop-color="#FFF1A3"/>
<stop offset="0.86" stop-color="#F7E398"/>
<stop offset="0.91" stop-color="#E1BF7C"/>
<stop offset="0.98" stop-color="#BE844F"/>
<stop offset="1" stop-color="#B77946"/>
</linearGradient>
<linearGradient id="paint14_linear_581_3425" x1="3.46875" y1="8.89446" x2="12.5066" y2="8.89446" gradientUnits="userSpaceOnUse">
<stop stop-color="#B77946"/>
<stop offset="0.18" stop-color="#FFF1A3"/>
<stop offset="0.19" stop-color="#F2DC93"/>
<stop offset="0.2" stop-color="#E0BE7B"/>
<stop offset="0.22" stop-color="#D1A468"/>
<stop offset="0.23" stop-color="#C59159"/>
<stop offset="0.25" stop-color="#BD834E"/>
<stop offset="0.27" stop-color="#B87B48"/>
<stop offset="0.31" stop-color="#B77946"/>
<stop offset="0.33" stop-color="#BF8148"/>
<stop offset="0.41" stop-color="#E0A24E"/>
<stop offset="0.46" stop-color="#EDAE50"/>
<stop offset="1" stop-color="#613F1B"/>
</linearGradient>
<linearGradient id="paint15_linear_581_3425" x1="3.62739" y1="8.94646" x2="12.3461" y2="8.94646" gradientUnits="userSpaceOnUse">
<stop stop-color="#B77946"/>
<stop offset="0.24" stop-color="#FFE794"/>
<stop offset="0.27" stop-color="#FBDA85"/>
<stop offset="0.32" stop-color="#F5C76E"/>
<stop offset="0.39" stop-color="#F0B95D"/>
<stop offset="0.46" stop-color="#EEB153"/>
<stop offset="0.54" stop-color="#EDAE50"/>
<stop offset="0.64" stop-color="#EEB052"/>
<stop offset="0.7" stop-color="#EFB65A"/>
<stop offset="0.74" stop-color="#F2C168"/>
<stop offset="0.78" stop-color="#F6D17B"/>
<stop offset="0.81" stop-color="#FCE594"/>
<stop offset="0.83" stop-color="#FFF1A3"/>
<stop offset="0.86" stop-color="#F7E398"/>
<stop offset="0.91" stop-color="#E1BF7C"/>
<stop offset="0.98" stop-color="#BE844F"/>
<stop offset="1" stop-color="#B77946"/>
</linearGradient>
<linearGradient id="paint16_linear_581_3425" x1="7.98735" y1="13.6438" x2="7.98735" y2="10.8934" gradientUnits="userSpaceOnUse">
<stop stop-color="#B77946" stop-opacity="0"/>
<stop offset="0.93" stop-color="#B77946"/>
</linearGradient>
<linearGradient id="paint17_linear_581_3425" x1="3.59548" y1="8.93609" x2="12.378" y2="8.93609" gradientUnits="userSpaceOnUse">
<stop stop-color="#B77946"/>
<stop offset="0.24" stop-color="#FFE794"/>
<stop offset="0.27" stop-color="#FBDA85"/>
<stop offset="0.32" stop-color="#F5C76E"/>
<stop offset="0.39" stop-color="#F0B95D"/>
<stop offset="0.46" stop-color="#EEB153"/>
<stop offset="0.54" stop-color="#EDAE50"/>
<stop offset="0.64" stop-color="#EEB052"/>
<stop offset="0.7" stop-color="#EFB65A"/>
<stop offset="0.74" stop-color="#F2C168"/>
<stop offset="0.78" stop-color="#F6D17B"/>
<stop offset="0.81" stop-color="#FCE594"/>
<stop offset="0.83" stop-color="#FFF1A3"/>
<stop offset="0.86" stop-color="#F7E398"/>
<stop offset="0.91" stop-color="#E1BF7C"/>
<stop offset="0.98" stop-color="#BE844F"/>
<stop offset="1" stop-color="#B77946"/>
</linearGradient>
<linearGradient id="paint18_linear_581_3425" x1="4.10778" y1="9.04097" x2="11.869" y2="9.04097" gradientUnits="userSpaceOnUse">
<stop stop-color="#B77946"/>
<stop offset="0.45" stop-color="#EDAE50"/>
<stop offset="0.51" stop-color="#EBAC4F"/>
<stop offset="0.54" stop-color="#E3A54D"/>
<stop offset="0.57" stop-color="#D59A49"/>
<stop offset="0.59" stop-color="#C28A44"/>
<stop offset="0.61" stop-color="#A9753D"/>
<stop offset="0.63" stop-color="#875934"/>
<stop offset="1" stop-color="#FFF1A3"/>
</linearGradient>
<radialGradient id="paint19_radial_581_3425" cx="0" cy="0" r="1" gradientUnits="userSpaceOnUse" gradientTransform="translate(7.98706 9.05853) scale(3.96879)">
<stop stop-color="#312F69"/>
<stop offset="0.39" stop-color="#312F69"/>
<stop offset="0.79" stop-color="#312F69"/>
<stop offset="1" stop-color="#312F69"/>
</radialGradient>
<radialGradient id="paint20_radial_581_3425" cx="0" cy="0" r="1" gradientUnits="userSpaceOnUse" gradientTransform="translate(5.87646 5.51312) scale(6.49816)">
<stop stop-color="#FAF7F4"/>
<stop offset="0.09" stop-color="#FAF7F3" stop-opacity="0.94"/>
<stop offset="0.27" stop-color="#F9F6F2" stop-opacity="0.8"/>
<stop offset="0.51" stop-color="#F8F4EF" stop-opacity="0.56"/>
<stop offset="0.8" stop-color="#F6F2EB" stop-opacity="0.24"/>
<stop offset="1" stop-color="#F5F0E8" stop-opacity="0"/>
</radialGradient>
<radialGradient id="paint21_radial_581_3425" cx="0" cy="0" r="1" gradientUnits="userSpaceOnUse" gradientTransform="translate(12.1843 8.41078) scale(4.05816)">
<stop stop-color="#EDAE50"/>
<stop offset="0.1" stop-color="#E1A54C" stop-opacity="0.94"/>
<stop offset="0.28" stop-color="#C28E42" stop-opacity="0.79"/>
<stop offset="0.53" stop-color="#906931" stop-opacity="0.54"/>
<stop offset="0.83" stop-color="#4B361A" stop-opacity="0.2"/>
<stop offset="1" stop-color="#23180D" stop-opacity="0"/>
</radialGradient>
<linearGradient id="paint22_linear_581_3425" x1="4.24568" y1="9.05614" x2="11.7277" y2="9.05614" gradientUnits="userSpaceOnUse">
<stop stop-color="#B77946"/>
<stop offset="0.1" stop-color="#EDAE50"/>
<stop offset="0.2" stop-color="#E2A54D"/>
<stop offset="0.35" stop-color="#C68E45"/>
<stop offset="0.56" stop-color="#996839"/>
<stop offset="0.63" stop-color="#875934"/>
<stop offset="0.64" stop-color="#8A5D37"/>
<stop offset="0.67" stop-color="#A98454"/>
<stop offset="0.71" stop-color="#C4A66C"/>
<stop offset="0.76" stop-color="#D9C180"/>
<stop offset="0.8" stop-color="#EAD790"/>
<stop offset="0.85" stop-color="#F6E69B"/>
<stop offset="0.91" stop-color="#FDEEA1"/>
<stop offset="1" stop-color="#FFF1A3"/>
</linearGradient>
<linearGradient id="paint23_linear_581_3425" x1="8.03411" y1="9.51032" x2="11.9" y2="9.51032" gradientUnits="userSpaceOnUse">
<stop stop-color="#B77946"/>
<stop offset="0.24" stop-color="#FFE794"/>
<stop offset="0.27" stop-color="#FBDA85"/>
<stop offset="0.32" stop-color="#F5C76E"/>
<stop offset="0.39" stop-color="#F0B95D"/>
<stop offset="0.46" stop-color="#EEB153"/>
<stop offset="0.54" stop-color="#EDAE50"/>
<stop offset="0.64" stop-color="#EEB052"/>
<stop offset="0.7" stop-color="#EFB65A"/>
<stop offset="0.74" stop-color="#F2C168"/>
<stop offset="0.78" stop-color="#F6D17B"/>
<stop offset="0.81" stop-color="#FCE594"/>
<stop offset="0.83" stop-color="#FFF1A3"/>
<stop offset="0.86" stop-color="#F7E398"/>
<stop offset="0.91" stop-color="#E1BF7C"/>
<stop offset="0.98" stop-color="#BE844F"/>
<stop offset="1" stop-color="#B77946"/>
</linearGradient>
<linearGradient id="paint24_linear_581_3425" x1="8.39062" y1="4.35227" x2="8.40339" y2="4.35227" gradientUnits="userSpaceOnUse">
<stop stop-color="#B77946"/>
<stop offset="0.24" stop-color="#FFE794"/>
<stop offset="0.27" stop-color="#FBDA85"/>
<stop offset="0.32" stop-color="#F5C76E"/>
<stop offset="0.39" stop-color="#F0B95D"/>
<stop offset="0.46" stop-color="#EEB153"/>
<stop offset="0.54" stop-color="#EDAE50"/>
<stop offset="0.64" stop-color="#EEB052"/>
<stop offset="0.7" stop-color="#EFB65A"/>
<stop offset="0.74" stop-color="#F2C168"/>
<stop offset="0.78" stop-color="#F6D17B"/>
<stop offset="0.81" stop-color="#FCE594"/>
<stop offset="0.83" stop-color="#FFF1A3"/>
<stop offset="0.86" stop-color="#F7E398"/>
<stop offset="0.91" stop-color="#E1BF7C"/>
<stop offset="0.98" stop-color="#BE844F"/>
<stop offset="1" stop-color="#B77946"/>
</linearGradient>
<linearGradient id="paint25_linear_581_3425" x1="3.49299" y1="8.3029" x2="4.72256" y2="8.3029" gradientUnits="userSpaceOnUse">
<stop stop-color="#B77946" stop-opacity="0"/>
<stop offset="0.13" stop-color="#B77946" stop-opacity="0.26"/>
<stop offset="0.25" stop-color="#B77946" stop-opacity="0.49"/>
<stop offset="0.38" stop-color="#B77946" stop-opacity="0.67"/>
<stop offset="0.51" stop-color="#B77946" stop-opacity="0.82"/>
<stop offset="0.64" stop-color="#B77946" stop-opacity="0.92"/>
<stop offset="0.78" stop-color="#B77946" stop-opacity="0.98"/>
<stop offset="0.93" stop-color="#B77946"/>
</linearGradient>
<linearGradient id="paint26_linear_581_3425" x1="3.67347" y1="9.44694" x2="4.92379" y2="9.44694" gradientUnits="userSpaceOnUse">
<stop stop-color="#B77946" stop-opacity="0"/>
<stop offset="0.13" stop-color="#B77946" stop-opacity="0.26"/>
<stop offset="0.25" stop-color="#B77946" stop-opacity="0.49"/>
<stop offset="0.38" stop-color="#B77946" stop-opacity="0.67"/>
<stop offset="0.51" stop-color="#B77946" stop-opacity="0.82"/>
<stop offset="0.64" stop-color="#B77946" stop-opacity="0.92"/>
<stop offset="0.78" stop-color="#B77946" stop-opacity="0.98"/>
<stop offset="0.93" stop-color="#B77946"/>
</linearGradient>
<linearGradient id="paint27_linear_581_3425" x1="4.02583" y1="10.3842" x2="5.04556" y2="10.3842" gradientUnits="userSpaceOnUse">
<stop stop-color="#B77946" stop-opacity="0"/>
<stop offset="0.13" stop-color="#B77946" stop-opacity="0.26"/>
<stop offset="0.25" stop-color="#B77946" stop-opacity="0.49"/>
<stop offset="0.38" stop-color="#B77946" stop-opacity="0.67"/>
<stop offset="0.51" stop-color="#B77946" stop-opacity="0.82"/>
<stop offset="0.64" stop-color="#B77946" stop-opacity="0.92"/>
<stop offset="0.78" stop-color="#B77946" stop-opacity="0.98"/>
<stop offset="0.93" stop-color="#B77946"/>
</linearGradient>
<linearGradient id="paint28_linear_581_3425" x1="2.16045" y1="6.74561" x2="5.46378" y2="10.7495" gradientUnits="userSpaceOnUse">
<stop offset="0.24" stop-color="#FFE794"/>
<stop offset="0.27" stop-color="#FBDA85"/>
<stop offset="0.32" stop-color="#F5C76E"/>
<stop offset="0.39" stop-color="#F0B95D"/>
<stop offset="0.46" stop-color="#EEB153"/>
<stop offset="0.54" stop-color="#EDAE50"/>
<stop offset="0.64" stop-color="#EEB052"/>
<stop offset="0.7" stop-color="#EFB65A"/>
<stop offset="0.74" stop-color="#F2C168"/>
<stop offset="0.78" stop-color="#F6D17B"/>
<stop offset="0.81" stop-color="#FCE594"/>
<stop offset="0.83" stop-color="#FFF1A3"/>
<stop offset="0.86" stop-color="#F7E398"/>
<stop offset="0.91" stop-color="#E1BF7C"/>
<stop offset="0.98" stop-color="#BE844F"/>
<stop offset="1" stop-color="#B77946"/>
</linearGradient>
<linearGradient id="paint29_linear_581_3425" x1="2.01376" y1="7.48059" x2="5.25486" y2="11.0736" gradientUnits="userSpaceOnUse">
<stop offset="0.24" stop-color="#FFE794"/>
<stop offset="0.27" stop-color="#FBDA85"/>
<stop offset="0.32" stop-color="#F5C76E"/>
<stop offset="0.39" stop-color="#F0B95D"/>
<stop offset="0.46" stop-color="#EEB153"/>
<stop offset="0.54" stop-color="#EDAE50"/>
<stop offset="0.64" stop-color="#EEB052"/>
<stop offset="0.7" stop-color="#EFB65A"/>
<stop offset="0.74" stop-color="#F2C168"/>
<stop offset="0.78" stop-color="#F6D17B"/>
<stop offset="0.81" stop-color="#FCE594"/>
<stop offset="0.83" stop-color="#FFF1A3"/>
<stop offset="0.86" stop-color="#F7E398"/>
<stop offset="0.91" stop-color="#E1BF7C"/>
<stop offset="0.98" stop-color="#BE844F"/>
<stop offset="1" stop-color="#B77946"/>
</linearGradient>
<linearGradient id="paint30_linear_581_3425" x1="3.21819" y1="9.1183" x2="5.21695" y2="11.7705" gradientUnits="userSpaceOnUse">
<stop offset="0.24" stop-color="#FFE794"/>
<stop offset="0.27" stop-color="#FBDA85"/>
<stop offset="0.32" stop-color="#F5C76E"/>
<stop offset="0.39" stop-color="#F0B95D"/>
<stop offset="0.46" stop-color="#EEB153"/>
<stop offset="0.54" stop-color="#EDAE50"/>
<stop offset="0.64" stop-color="#EEB052"/>
<stop offset="0.7" stop-color="#EFB65A"/>
<stop offset="0.74" stop-color="#F2C168"/>
<stop offset="0.78" stop-color="#F6D17B"/>
<stop offset="0.81" stop-color="#FCE594"/>
<stop offset="0.83" stop-color="#FFF1A3"/>
<stop offset="0.86" stop-color="#F7E398"/>
<stop offset="0.91" stop-color="#E1BF7C"/>
<stop offset="0.98" stop-color="#BE844F"/>
<stop offset="1" stop-color="#B77946"/>
</linearGradient>
<linearGradient id="paint31_linear_581_3425" x1="1.51562" y1="8.23667" x2="4.65379" y2="8.23667" gradientUnits="userSpaceOnUse">
<stop stop-color="#B77946"/>
<stop offset="0.18" stop-color="#FFF1A3"/>
<stop offset="0.19" stop-color="#F2DC93"/>
<stop offset="0.2" stop-color="#E0BE7B"/>
<stop offset="0.22" stop-color="#D1A468"/>
<stop offset="0.23" stop-color="#C59159"/>
<stop offset="0.25" stop-color="#BD834E"/>
<stop offset="0.27" stop-color="#B87B48"/>
<stop offset="0.31" stop-color="#B77946"/>
<stop offset="0.33" stop-color="#BF8148"/>
<stop offset="0.41" stop-color="#E0A24E"/>
<stop offset="0.46" stop-color="#EDAE50"/>
<stop offset="1" stop-color="#613F1B"/>
</linearGradient>
<linearGradient id="paint32_linear_581_3425" x1="2.35938" y1="9.59432" x2="4.85603" y2="9.59432" gradientUnits="userSpaceOnUse">
<stop stop-color="#B77946"/>
<stop offset="0.18" stop-color="#FFF1A3"/>
<stop offset="0.19" stop-color="#F2DC93"/>
<stop offset="0.2" stop-color="#E0BE7B"/>
<stop offset="0.22" stop-color="#D1A468"/>
<stop offset="0.23" stop-color="#C59159"/>
<stop offset="0.25" stop-color="#BD834E"/>
<stop offset="0.27" stop-color="#B87B48"/>
<stop offset="0.31" stop-color="#B77946"/>
<stop offset="0.33" stop-color="#BF8148"/>
<stop offset="0.41" stop-color="#E0A24E"/>
<stop offset="0.46" stop-color="#EDAE50"/>
<stop offset="1" stop-color="#613F1B"/>
</linearGradient>
<linearGradient id="paint33_linear_581_3425" x1="3.27344" y1="10.5089" x2="4.98974" y2="10.5089" gradientUnits="userSpaceOnUse">
<stop stop-color="#B77946"/>
<stop offset="0.18" stop-color="#FFF1A3"/>
<stop offset="0.19" stop-color="#F2DC93"/>
<stop offset="0.2" stop-color="#E0BE7B"/>
<stop offset="0.22" stop-color="#D1A468"/>
<stop offset="0.23" stop-color="#C59159"/>
<stop offset="0.25" stop-color="#BD834E"/>
<stop offset="0.27" stop-color="#B87B48"/>
<stop offset="0.31" stop-color="#B77946"/>
<stop offset="0.33" stop-color="#BF8148"/>
<stop offset="0.41" stop-color="#E0A24E"/>
<stop offset="0.46" stop-color="#EDAE50"/>
<stop offset="1" stop-color="#613F1B"/>
</linearGradient>
<radialGradient id="paint34_radial_581_3425" cx="0" cy="0" r="1" gradientUnits="userSpaceOnUse" gradientTransform="translate(2.9025 7.26551) scale(1.29181 1.71811)">
<stop stop-color="#F3E8DE"/>
<stop offset="0.54" stop-color="#F6EEE7" stop-opacity="0.36"/>
<stop offset="0.57" stop-color="#F6EEE7" stop-opacity="0.33"/>
<stop offset="0.75" stop-color="#F7F0E9" stop-opacity="0.15"/>
<stop offset="0.88" stop-color="#F8F1EB" stop-opacity="0.04"/>
<stop offset="0.96" stop-color="#F8F1EB" stop-opacity="0"/>
</radialGradient>
<radialGradient id="paint35_radial_581_3425" cx="0" cy="0" r="1" gradientUnits="userSpaceOnUse" gradientTransform="translate(3.46116 8.79802) scale(0.963872 1.28195)">
<stop stop-color="#F3E8DE"/>
<stop offset="0.54" stop-color="#F6EEE7" stop-opacity="0.36"/>
<stop offset="0.57" stop-color="#F6EEE7" stop-opacity="0.33"/>
<stop offset="0.75" stop-color="#F7F0E9" stop-opacity="0.15"/>
<stop offset="0.88" stop-color="#F8F1EB" stop-opacity="0.04"/>
<stop offset="0.96" stop-color="#F8F1EB" stop-opacity="0"/>
</radialGradient>
<radialGradient id="paint36_radial_581_3425" cx="0" cy="0" r="1" gradientUnits="userSpaceOnUse" gradientTransform="translate(4.03604 10.0233) scale(0.644709 0.857463)">
<stop stop-color="#F3E8DE"/>
<stop offset="0.54" stop-color="#F6EEE7" stop-opacity="0.36"/>
<stop offset="0.57" stop-color="#F6EEE7" stop-opacity="0.33"/>
<stop offset="0.75" stop-color="#F7F0E9" stop-opacity="0.15"/>
<stop offset="0.88" stop-color="#F8F1EB" stop-opacity="0.04"/>
<stop offset="0.96" stop-color="#F8F1EB" stop-opacity="0"/>
</radialGradient>
<linearGradient id="paint37_linear_581_3425" x1="12.4796" y1="8.3029" x2="11.25" y2="8.3029" gradientUnits="userSpaceOnUse">
<stop stop-color="#B77946" stop-opacity="0"/>
<stop offset="0.13" stop-color="#B77946" stop-opacity="0.26"/>
<stop offset="0.25" stop-color="#B77946" stop-opacity="0.49"/>
<stop offset="0.38" stop-color="#B77946" stop-opacity="0.67"/>
<stop offset="0.51" stop-color="#B77946" stop-opacity="0.82"/>
<stop offset="0.64" stop-color="#B77946" stop-opacity="0.92"/>
<stop offset="0.78" stop-color="#B77946" stop-opacity="0.98"/>
<stop offset="0.93" stop-color="#B77946"/>
</linearGradient>
<linearGradient id="paint38_linear_581_3425" x1="12.2972" y1="9.44694" x2="11.0469" y2="9.44694" gradientUnits="userSpaceOnUse">
<stop stop-color="#B77946" stop-opacity="0"/>
<stop offset="0.13" stop-color="#B77946" stop-opacity="0.26"/>
<stop offset="0.25" stop-color="#B77946" stop-opacity="0.49"/>
<stop offset="0.38" stop-color="#B77946" stop-opacity="0.67"/>
<stop offset="0.51" stop-color="#B77946" stop-opacity="0.82"/>
<stop offset="0.64" stop-color="#B77946" stop-opacity="0.92"/>
<stop offset="0.78" stop-color="#B77946" stop-opacity="0.98"/>
<stop offset="0.93" stop-color="#B77946"/>
</linearGradient>
<linearGradient id="paint39_linear_581_3425" x1="11.9416" y1="10.3842" x2="10.9219" y2="10.3842" gradientUnits="userSpaceOnUse">
<stop stop-color="#B77946" stop-opacity="0"/>
<stop offset="0.13" stop-color="#B77946" stop-opacity="0.26"/>
<stop offset="0.25" stop-color="#B77946" stop-opacity="0.49"/>
<stop offset="0.38" stop-color="#B77946" stop-opacity="0.67"/>
<stop offset="0.51" stop-color="#B77946" stop-opacity="0.82"/>
<stop offset="0.64" stop-color="#B77946" stop-opacity="0.92"/>
<stop offset="0.78" stop-color="#B77946" stop-opacity="0.98"/>
<stop offset="0.93" stop-color="#B77946"/>
</linearGradient>
<linearGradient id="paint40_linear_581_3425" x1="13.8122" y1="6.74561" x2="10.5088" y2="10.7495" gradientUnits="userSpaceOnUse">
<stop offset="0.24" stop-color="#FFE794"/>
<stop offset="0.27" stop-color="#FBDA85"/>
<stop offset="0.32" stop-color="#F5C76E"/>
<stop offset="0.39" stop-color="#F0B95D"/>
<stop offset="0.46" stop-color="#EEB153"/>
<stop offset="0.54" stop-color="#EDAE50"/>
<stop offset="0.64" stop-color="#EEB052"/>
<stop offset="0.7" stop-color="#EFB65A"/>
<stop offset="0.74" stop-color="#F2C168"/>
<stop offset="0.78" stop-color="#F6D17B"/>
<stop offset="0.81" stop-color="#FCE594"/>
<stop offset="0.83" stop-color="#FFF1A3"/>
<stop offset="0.86" stop-color="#F7E398"/>
<stop offset="0.91" stop-color="#E1BF7C"/>
<stop offset="0.98" stop-color="#BE844F"/>
<stop offset="1" stop-color="#B77946"/>
</linearGradient>
<linearGradient id="paint41_linear_581_3425" x1="13.9601" y1="7.48059" x2="10.719" y2="11.0736" gradientUnits="userSpaceOnUse">
<stop offset="0.24" stop-color="#FFE794"/>
<stop offset="0.27" stop-color="#FBDA85"/>
<stop offset="0.32" stop-color="#F5C76E"/>
<stop offset="0.39" stop-color="#F0B95D"/>
<stop offset="0.46" stop-color="#EEB153"/>
<stop offset="0.54" stop-color="#EDAE50"/>
<stop offset="0.64" stop-color="#EEB052"/>
<stop offset="0.7" stop-color="#EFB65A"/>
<stop offset="0.74" stop-color="#F2C168"/>
<stop offset="0.78" stop-color="#F6D17B"/>
<stop offset="0.81" stop-color="#FCE594"/>
<stop offset="0.83" stop-color="#FFF1A3"/>
<stop offset="0.86" stop-color="#F7E398"/>
<stop offset="0.91" stop-color="#E1BF7C"/>
<stop offset="0.98" stop-color="#BE844F"/>
<stop offset="1" stop-color="#B77946"/>
</linearGradient>
<linearGradient id="paint42_linear_581_3425" x1="12.7519" y1="9.1183" x2="10.7531" y2="11.7705" gradientUnits="userSpaceOnUse">
<stop offset="0.24" stop-color="#FFE794"/>
<stop offset="0.27" stop-color="#FBDA85"/>
<stop offset="0.32" stop-color="#F5C76E"/>
<stop offset="0.39" stop-color="#F0B95D"/>
<stop offset="0.46" stop-color="#EEB153"/>
<stop offset="0.54" stop-color="#EDAE50"/>
<stop offset="0.64" stop-color="#EEB052"/>
<stop offset="0.7" stop-color="#EFB65A"/>
<stop offset="0.74" stop-color="#F2C168"/>
<stop offset="0.78" stop-color="#F6D17B"/>
<stop offset="0.81" stop-color="#FCE594"/>
<stop offset="0.83" stop-color="#FFF1A3"/>
<stop offset="0.86" stop-color="#F7E398"/>
<stop offset="0.91" stop-color="#E1BF7C"/>
<stop offset="0.98" stop-color="#BE844F"/>
<stop offset="1" stop-color="#B77946"/>
</linearGradient>
<linearGradient id="paint43_linear_581_3425" x1="14.4585" y1="8.23667" x2="11.3203" y2="8.23667" gradientUnits="userSpaceOnUse">
<stop stop-color="#B77946"/>
<stop offset="0.18" stop-color="#FFF1A3"/>
<stop offset="0.19" stop-color="#F2DC93"/>
<stop offset="0.2" stop-color="#E0BE7B"/>
<stop offset="0.22" stop-color="#D1A468"/>
<stop offset="0.23" stop-color="#C59159"/>
<stop offset="0.25" stop-color="#BD834E"/>
<stop offset="0.27" stop-color="#B87B48"/>
<stop offset="0.31" stop-color="#B77946"/>
<stop offset="0.33" stop-color="#BF8148"/>
<stop offset="0.41" stop-color="#E0A24E"/>
<stop offset="0.46" stop-color="#EDAE50"/>
<stop offset="1" stop-color="#613F1B"/>
</linearGradient>
<linearGradient id="paint44_linear_581_3425" x1="13.6138" y1="9.59432" x2="11.1172" y2="9.59432" gradientUnits="userSpaceOnUse">
<stop stop-color="#B77946"/>
<stop offset="0.18" stop-color="#FFF1A3"/>
<stop offset="0.19" stop-color="#F2DC93"/>
<stop offset="0.2" stop-color="#E0BE7B"/>
<stop offset="0.22" stop-color="#D1A468"/>
<stop offset="0.23" stop-color="#C59159"/>
<stop offset="0.25" stop-color="#BD834E"/>
<stop offset="0.27" stop-color="#B87B48"/>
<stop offset="0.31" stop-color="#B77946"/>
<stop offset="0.33" stop-color="#BF8148"/>
<stop offset="0.41" stop-color="#E0A24E"/>
<stop offset="0.46" stop-color="#EDAE50"/>
<stop offset="1" stop-color="#613F1B"/>
</linearGradient>
<linearGradient id="paint45_linear_581_3425" x1="12.6929" y1="10.5089" x2="10.9766" y2="10.5089" gradientUnits="userSpaceOnUse">
<stop stop-color="#B77946"/>
<stop offset="0.18" stop-color="#FFF1A3"/>
<stop offset="0.19" stop-color="#F2DC93"/>
<stop offset="0.2" stop-color="#E0BE7B"/>
<stop offset="0.22" stop-color="#D1A468"/>
<stop offset="0.23" stop-color="#C59159"/>
<stop offset="0.25" stop-color="#BD834E"/>
<stop offset="0.27" stop-color="#B87B48"/>
<stop offset="0.31" stop-color="#B77946"/>
<stop offset="0.33" stop-color="#BF8148"/>
<stop offset="0.41" stop-color="#E0A24E"/>
<stop offset="0.46" stop-color="#EDAE50"/>
<stop offset="1" stop-color="#613F1B"/>
</linearGradient>
<radialGradient id="paint46_radial_581_3425" cx="0" cy="0" r="1" gradientUnits="userSpaceOnUse" gradientTransform="translate(13.0666 7.26551) rotate(180) scale(1.29181 1.71811)">
<stop stop-color="#F3E8DE"/>
<stop offset="0.54" stop-color="#F6EEE7" stop-opacity="0.36"/>
<stop offset="0.57" stop-color="#F6EEE7" stop-opacity="0.33"/>
<stop offset="0.75" stop-color="#F7F0E9" stop-opacity="0.15"/>
<stop offset="0.88" stop-color="#F8F1EB" stop-opacity="0.04"/>
<stop offset="0.96" stop-color="#F8F1EB" stop-opacity="0"/>
</radialGradient>
<radialGradient id="paint47_radial_581_3425" cx="0" cy="0" r="1" gradientUnits="userSpaceOnUse" gradientTransform="translate(12.508 8.79802) rotate(180) scale(0.963872 1.28195)">
<stop stop-color="#F3E8DE"/>
<stop offset="0.54" stop-color="#F6EEE7" stop-opacity="0.36"/>
<stop offset="0.57" stop-color="#F6EEE7" stop-opacity="0.33"/>
<stop offset="0.75" stop-color="#F7F0E9" stop-opacity="0.15"/>
<stop offset="0.88" stop-color="#F8F1EB" stop-opacity="0.04"/>
<stop offset="0.96" stop-color="#F8F1EB" stop-opacity="0"/>
</radialGradient>
<radialGradient id="paint48_radial_581_3425" cx="0" cy="0" r="1" gradientUnits="userSpaceOnUse" gradientTransform="translate(11.9353 10.0233) rotate(180) scale(0.644709 0.857463)">
<stop stop-color="#F3E8DE"/>
<stop offset="0.54" stop-color="#F6EEE7" stop-opacity="0.36"/>
<stop offset="0.57" stop-color="#F6EEE7" stop-opacity="0.33"/>
<stop offset="0.75" stop-color="#F7F0E9" stop-opacity="0.15"/>
<stop offset="0.88" stop-color="#F8F1EB" stop-opacity="0.04"/>
<stop offset="0.96" stop-color="#F8F1EB" stop-opacity="0"/>
</radialGradient>
</defs>
</svg>
