<svg width="16" height="16" viewBox="0 0 16 16" fill="none" xmlns="http://www.w3.org/2000/svg">
<path d="M8 12.4C6.83305 12.4 5.71389 11.9364 4.88873 11.1113C4.06357 10.2861 3.6 9.16695 3.6 8C3.6 6.83305 4.06357 5.71389 4.88873 4.88873C5.71389 4.06357 6.83305 3.6 8 3.6V0C6.41775 0 4.87103 0.469191 3.55544 1.34824C2.23985 2.22729 1.21447 3.47672 0.608966 4.93853C0.00346552 6.40034 -0.15496 8.00887 0.153722 9.56072C0.462403 11.1126 1.22433 12.538 2.34315 13.6569C3.46197 14.7757 4.88743 15.5376 6.43928 15.8463C7.99113 16.155 9.59966 15.9965 11.0615 15.391C12.5233 14.7855 13.7727 13.7602 14.6518 12.4446C15.5308 11.129 16 9.58225 16 8H12.4C12.4 9.16695 11.9364 10.2861 11.1113 11.1113C10.2861 11.9364 9.16695 12.4 8 12.4Z" fill="#2354E6"/>
<path d="M12.4 3.59998H8V7.99998H12.4V3.59998Z" fill="#17E6A1"/>
</svg>
