<svg width="16" height="16" viewBox="0 0 16 16" fill="none" xmlns="http://www.w3.org/2000/svg">
<g clip-path="url(#clip0_581_822)">
<path d="M8 16C12.4183 16 16 12.4183 16 8C16 3.58172 12.4183 0 8 0C3.58172 0 0 3.58172 0 8C0 12.4183 3.58172 16 8 16Z" fill="black"/>
<path d="M10.5118 9.10612C10.5478 9.3665 10.6187 9.561 10.7244 9.68987C10.9177 9.9245 11.2489 10.0417 11.718 10.0417C11.999 10.0417 12.2271 10.0109 12.4024 9.949C12.7349 9.83038 12.9011 9.61 12.9011 9.28788C12.9011 9.09963 12.8186 8.954 12.6538 8.85087C12.4888 8.75037 12.2298 8.6615 11.8765 8.58412L11.2734 8.44888C10.6805 8.31475 10.2707 8.16913 10.0439 8.01188C9.65987 7.749 9.46775 7.33788 9.46775 6.7785C9.46775 6.26813 9.65337 5.84412 10.0245 5.5065C10.3957 5.16887 10.9409 5 11.66 5C12.2606 5 12.7729 5.15912 13.1969 5.4775C13.621 5.79587 13.8433 6.25787 13.8639 6.86363H12.7194C12.6987 6.52075 12.5492 6.27725 12.2709 6.13287C12.0854 6.0375 11.8546 5.98975 11.5789 5.98975C11.2721 5.98975 11.0272 6.05163 10.8442 6.17537C10.6612 6.29912 10.5697 6.47175 10.5697 6.6935C10.5697 6.89713 10.6599 7.04925 10.8404 7.14975C10.9564 7.21675 11.2038 7.29537 11.5828 7.38562L12.5647 7.62138C12.9952 7.7245 13.32 7.86237 13.5391 8.03512C13.8794 8.30325 14.0495 8.69113 14.0495 9.19888C14.0495 9.71963 13.8504 10.152 13.4521 10.4961C13.0539 10.8403 12.4914 11.0122 11.7644 11.0122C11.0221 11.0122 10.4382 10.8427 10.013 10.5037C9.58762 10.1649 9.375 9.699 9.375 9.10612H10.5118Z" fill="white"/>
<path fill-rule="evenodd" clip-rule="evenodd" d="M3.5 3.25V12.75H11.75V11.875H4.5V4.125H11.75V3.25H3.5Z" fill="white"/>
</g>
<defs>
<clipPath id="clip0_581_822">
<rect width="16" height="16" fill="white"/>
</clipPath>
</defs>
</svg>
