<svg width="130" height="46" viewBox="0 0 130 46" fill="none" xmlns="http://www.w3.org/2000/svg">
<g id="Group 1261159060">
<g id="Icon" filter="url(#filter0_d_785_4929)">
<path d="M3.43174 -0.915946C3.62177 -1.3133 3.71678 -1.51198 3.84909 -1.57317C3.96401 -1.62633 4.09899 -1.62633 4.21392 -1.57317C4.34622 -1.51198 4.44123 -1.3133 4.63126 -0.915945L6.14486 2.24909C6.20104 2.36656 6.22913 2.42529 6.27259 2.47027C6.31105 2.51007 6.35805 2.5419 6.41055 2.56369C6.46987 2.58833 6.53848 2.59508 6.6757 2.60857L10.3729 2.97229C10.837 3.01795 11.0691 3.04078 11.1724 3.13916C11.2622 3.22461 11.3039 3.34427 11.2852 3.46257C11.2636 3.59876 11.0903 3.74439 10.7435 4.03563L7.98183 6.35544C7.87933 6.44154 7.82808 6.48459 7.79562 6.53702C7.76689 6.58342 7.74894 6.63491 7.74292 6.68818C7.73612 6.74838 7.75044 6.81129 7.77907 6.9371L8.55044 10.3269C8.64728 10.7525 8.6957 10.9653 8.62725 11.0873C8.5678 11.1932 8.45859 11.2672 8.3321 11.2872C8.18648 11.3101 7.98432 11.2015 7.58001 10.9841L4.35958 9.2528C4.24005 9.18854 4.18029 9.15641 4.11676 9.14383C4.06055 9.13271 4.00246 9.13271 3.94624 9.14383C3.88271 9.15641 3.82295 9.18854 3.70343 9.2528L0.482996 10.9841C0.0786829 11.2015 -0.123474 11.3101 -0.269096 11.2872C-0.395591 11.2672 -0.504792 11.1932 -0.564251 11.0873C-0.6327 10.9653 -0.584278 10.7525 -0.487436 10.3269L0.283935 6.9371C0.312564 6.81129 0.326879 6.74838 0.320078 6.68818C0.314062 6.63491 0.29611 6.58342 0.267386 6.53702C0.234923 6.48459 0.183672 6.44154 0.0811725 6.35544L-2.68053 4.03563C-3.02726 3.74439 -3.20062 3.59876 -3.22217 3.46257C-3.24089 3.34427 -3.19917 3.22461 -3.10943 3.13916C-3.00611 3.04078 -2.77403 3.01795 -2.30986 2.97229L1.3873 2.60857C1.52452 2.59508 1.59313 2.58833 1.65246 2.56369C1.70495 2.5419 1.75195 2.51007 1.79041 2.47027C1.83387 2.42529 1.86196 2.36656 1.91814 2.24909L3.43174 -0.915946Z" fill="#F3C009"/>
</g>
<path id="Icon_2" d="M22.7872 26.5035C22.9772 26.1061 23.0723 25.9074 23.2046 25.8463C23.3195 25.7931 23.4545 25.7931 23.5694 25.8463C23.7017 25.9074 23.7967 26.1061 23.9867 26.5035L25.5003 29.6685C25.5565 29.786 25.5846 29.8447 25.6281 29.8897C25.6665 29.9295 25.7135 29.9613 25.766 29.9831C25.8253 30.0078 25.894 30.0145 26.0312 30.028L29.7283 30.3917C30.1925 30.4374 30.4246 30.4602 30.5279 30.5586C30.6176 30.644 30.6594 30.7637 30.6406 30.882C30.6191 31.0182 30.4457 31.1638 30.099 31.4551L27.3373 33.7749C27.2348 33.861 27.1835 33.904 27.1511 33.9565C27.1224 34.0028 27.1044 34.0543 27.0984 34.1076C27.0916 34.1678 27.1059 34.2307 27.1345 34.3565L27.9059 37.7464C28.0028 38.1719 28.0512 38.3847 27.9827 38.5067C27.9233 38.6127 27.8141 38.6866 27.6876 38.7066C27.5419 38.7296 27.3398 38.6209 26.9355 38.4035L23.715 36.6722C23.5955 36.608 23.5358 36.5758 23.4722 36.5633C23.416 36.5521 23.3579 36.5521 23.3017 36.5633C23.2382 36.5758 23.1784 36.608 23.0589 36.6722L19.8385 38.4035C19.4342 38.6209 19.232 38.7296 19.0864 38.7066C18.9599 38.6866 18.8507 38.6127 18.7912 38.5067C18.7228 38.3847 18.7712 38.1719 18.868 37.7464L19.6394 34.3565C19.668 34.2307 19.6823 34.1678 19.6755 34.1076C19.6695 34.0543 19.6516 34.0028 19.6229 33.9565C19.5904 33.904 19.5391 33.861 19.4366 33.7749L16.6749 31.4551C16.3282 31.1638 16.1549 31.0182 16.1333 30.882C16.1146 30.7637 16.1563 30.644 16.246 30.5586C16.3494 30.4602 16.5814 30.4374 17.0456 30.3917L20.7428 30.028C20.88 30.0145 20.9486 30.0078 21.0079 29.9831C21.0604 29.9613 21.1074 29.9295 21.1459 29.8897C21.1893 29.8447 21.2174 29.786 21.2736 29.6685L22.7872 26.5035Z" fill="#F3BF09" fill-opacity="0.2"/>
<path id="Icon_3" d="M105.045 7.14851C105.235 6.75115 105.33 6.55247 105.462 6.49128C105.577 6.43813 105.712 6.43813 105.827 6.49128C105.96 6.55247 106.055 6.75115 106.245 7.14851L107.758 10.3135C107.814 10.431 107.842 10.4897 107.886 10.5347C107.924 10.5745 107.971 10.6064 108.024 10.6281C108.083 10.6528 108.152 10.6595 108.289 10.673L111.986 11.0367C112.45 11.0824 112.682 11.1052 112.786 11.2036C112.875 11.2891 112.917 11.4087 112.898 11.527C112.877 11.6632 112.704 11.8088 112.357 12.1001L109.595 14.4199C109.493 14.506 109.441 14.549 109.409 14.6015C109.38 14.6479 109.362 14.6994 109.356 14.7526C109.349 14.8128 109.364 14.8757 109.392 15.0016L110.164 18.3914C110.261 18.817 110.309 19.0297 110.241 19.1517C110.181 19.2577 110.072 19.3317 109.945 19.3516C109.8 19.3746 109.598 19.2659 109.193 19.0486L105.973 17.3172C105.853 17.253 105.794 17.2209 105.73 17.2083C105.674 17.1972 105.616 17.1972 105.56 17.2083C105.496 17.2209 105.436 17.253 105.317 17.3172L102.096 19.0486C101.692 19.2659 101.49 19.3746 101.344 19.3516C101.218 19.3317 101.108 19.2577 101.049 19.1517C100.981 19.0297 101.029 18.817 101.126 18.3914L101.897 15.0016C101.926 14.8757 101.94 14.8128 101.933 14.7526C101.927 14.6994 101.909 14.6479 101.881 14.6015C101.848 14.549 101.797 14.506 101.694 14.4199L98.9327 12.1001C98.586 11.8088 98.4127 11.6632 98.3911 11.527C98.3724 11.4087 98.4141 11.2891 98.5039 11.2036C98.6072 11.1052 98.8393 11.0824 99.3034 11.0367L103.001 10.673C103.138 10.6595 103.206 10.6528 103.266 10.6281C103.318 10.6064 103.365 10.5745 103.404 10.5347C103.447 10.4897 103.475 10.431 103.531 10.3135L105.045 7.14851Z" fill="#F3BF09" fill-opacity="0.2"/>
<g id="Icon_4" filter="url(#filter1_d_785_4929)">
<path d="M124.4 34.5679C124.591 34.1706 124.686 33.9719 124.818 33.9107C124.933 33.8576 125.068 33.8576 125.183 33.9107C125.315 33.9719 125.41 34.1706 125.6 34.5679L127.114 37.733C127.17 37.8504 127.198 37.9092 127.241 37.9542C127.28 37.994 127.327 38.0258 127.379 38.0476C127.439 38.0722 127.507 38.079 127.644 38.0925L131.342 38.4562C131.806 38.5018 132.038 38.5247 132.141 38.623C132.231 38.7085 132.273 38.8282 132.254 38.9465C132.232 39.0826 132.059 39.2283 131.712 39.5195L128.951 41.8393C128.848 41.9254 128.797 41.9685 128.764 42.0209C128.736 42.0673 128.718 42.1188 128.712 42.1721C128.705 42.2323 128.719 42.2952 128.748 42.421L129.519 45.8108C129.616 46.2364 129.664 46.4492 129.596 46.5712C129.537 46.6771 129.427 46.7511 129.301 46.7711C129.155 46.794 128.953 46.6854 128.549 46.468L125.328 44.7367C125.209 44.6724 125.149 44.6403 125.086 44.6277C125.029 44.6166 124.971 44.6166 124.915 44.6277C124.851 44.6403 124.792 44.6724 124.672 44.7367L121.452 46.468C121.047 46.6854 120.845 46.794 120.7 46.7711C120.573 46.7511 120.464 46.6771 120.404 46.5712C120.336 46.4492 120.384 46.2364 120.481 45.8108L121.253 42.421C121.281 42.2952 121.296 42.2323 121.289 42.1721C121.283 42.1188 121.265 42.0673 121.236 42.0209C121.204 41.9685 121.152 41.9254 121.05 41.8393L118.288 39.5195C117.941 39.2283 117.768 39.0826 117.747 38.9465C117.728 38.8282 117.77 38.7085 117.859 38.623C117.963 38.5247 118.195 38.5018 118.659 38.4562L122.356 38.0925C122.493 38.079 122.562 38.0722 122.621 38.0476C122.674 38.0258 122.721 37.994 122.759 37.9542C122.803 37.9092 122.831 37.8504 122.887 37.733L124.4 34.5679Z" fill="#F3C009"/>
</g>
</g>
<defs>
<filter id="filter0_d_785_4929" x="-6.22656" y="-4.61304" width="20.5156" height="18.9033" filterUnits="userSpaceOnUse" color-interpolation-filters="sRGB">
<feFlood flood-opacity="0" result="BackgroundImageFix"/>
<feColorMatrix in="SourceAlpha" type="matrix" values="0 0 0 0 0 0 0 0 0 0 0 0 0 0 0 0 0 0 127 0" result="hardAlpha"/>
<feOffset/>
<feGaussianBlur stdDeviation="1.5"/>
<feComposite in2="hardAlpha" operator="out"/>
<feColorMatrix type="matrix" values="0 0 0 0 0.952941 0 0 0 0 0.752941 0 0 0 0 0.0352941 0 0 0 1 0"/>
<feBlend mode="normal" in2="BackgroundImageFix" result="effect1_dropShadow_785_4929"/>
<feBlend mode="normal" in="SourceGraphic" in2="effect1_dropShadow_785_4929" result="shape"/>
</filter>
<filter id="filter1_d_785_4929" x="114.742" y="30.8708" width="20.5156" height="18.9033" filterUnits="userSpaceOnUse" color-interpolation-filters="sRGB">
<feFlood flood-opacity="0" result="BackgroundImageFix"/>
<feColorMatrix in="SourceAlpha" type="matrix" values="0 0 0 0 0 0 0 0 0 0 0 0 0 0 0 0 0 0 127 0" result="hardAlpha"/>
<feOffset/>
<feGaussianBlur stdDeviation="1.5"/>
<feComposite in2="hardAlpha" operator="out"/>
<feColorMatrix type="matrix" values="0 0 0 0 0.952941 0 0 0 0 0.752941 0 0 0 0 0.0352941 0 0 0 1 0"/>
<feBlend mode="normal" in2="BackgroundImageFix" result="effect1_dropShadow_785_4929"/>
<feBlend mode="normal" in="SourceGraphic" in2="effect1_dropShadow_785_4929" result="shape"/>
</filter>
</defs>
</svg>
