<svg width="24" height="24" viewBox="0 0 24 24" fill="none" xmlns="http://www.w3.org/2000/svg">
<g clip-path="url(#clip0_303_140)">
<mask id="mask0_303_140" style="mask-type:luminance" maskUnits="userSpaceOnUse" x="0" y="0" width="24" height="24">
<path d="M24 0H0V24H24V0Z" fill="white"/>
</mask>
<g mask="url(#mask0_303_140)">
<path d="M0 17.953C0 13.9842 0 10.0154 0 6.04654C0.122384 6.0592 0.079714 5.95557 0.0886232 5.90493C0.630209 2.85517 2.83782 0.648497 5.90727 0.0886232C5.95651 0.079714 6.06248 0.124729 6.04701 0C10.0158 0 13.9846 0 17.9535 0C17.9375 0.124729 18.0435 0.079714 18.0932 0.0886232C21.1627 0.648497 23.3745 2.85939 23.9118 5.90493C23.9208 5.95557 23.8786 6.05873 24.0005 6.04654C24.0005 10.0154 24.0005 13.9842 24.0005 17.953C23.879 17.9413 23.9208 18.0444 23.9118 18.0951C23.3707 21.1444 21.1664 23.3478 18.0937 23.9114C18.0444 23.9203 17.9385 23.8757 17.9539 24C13.9851 24 10.0163 24 6.04748 24C6.06295 23.8757 5.95698 23.9203 5.90774 23.9114C2.83453 23.3478 0.627865 21.1416 0.0886232 18.0946C0.079714 18.0444 0.122384 17.9408 0 17.953ZM17.5258 13.1791C17.5258 12.554 17.5319 11.929 17.5216 11.3044C17.5188 11.1351 17.5732 11.0985 17.7326 11.1004C18.42 11.1088 19.1074 11.0985 19.7949 11.1079C19.9623 11.1103 20.0227 11.0774 20.0204 10.8931C20.0096 10.0496 20.0087 9.20556 20.0209 8.36246C20.0237 8.17209 19.9548 8.15099 19.7934 8.15286C19.114 8.16084 18.4341 8.15005 17.7546 8.16037C17.5751 8.16318 17.5188 8.12145 17.5207 7.93248C17.5314 7.01061 17.5146 6.08874 17.5324 5.16734C17.5375 4.91132 17.455 4.86583 17.222 4.86959C16.3784 4.88318 15.5344 4.88928 14.6913 4.8663C14.4264 4.85927 14.3743 4.96102 14.3471 5.18469C14.2318 6.12156 14.0981 7.05609 13.9809 7.9925C13.965 8.12098 13.9256 8.15568 13.8008 8.16271C13.3648 8.18709 12.9296 8.22976 12.4931 8.25555C12.3472 8.26399 12.2914 8.30995 12.2928 8.46515C12.2999 9.2773 12.3008 10.0899 12.2924 10.9025C12.2905 11.0732 12.3514 11.1117 12.5085 11.107C12.8518 11.0967 13.1964 11.1135 13.5397 11.0999C13.7103 11.0934 13.7436 11.1529 13.7432 11.3114C13.7371 12.5376 13.7389 13.7643 13.7399 14.9909C13.7403 15.5236 13.7966 16.0506 13.9274 16.5674C14.2632 17.8934 15.0261 18.8411 16.3854 19.1909C17.6749 19.5229 18.955 19.3888 20.2141 18.9879C20.3411 18.9475 20.3627 18.8819 20.3364 18.7637C20.1658 17.9952 19.9946 17.2262 19.8352 16.4553C19.8066 16.3179 19.7583 16.2893 19.6331 16.324C19.3682 16.3981 19.0962 16.4155 18.8214 16.4131C18.1626 16.4075 17.7293 16.0661 17.5835 15.4247C17.5418 15.2418 17.523 15.0556 17.5244 14.8667C17.5282 14.304 17.5258 13.7418 17.5258 13.1791ZM7.04672 10.0346C7.02983 10.0294 7.01249 10.0247 6.9956 10.0196C6.91542 9.45877 6.8268 8.89842 6.76021 8.33574C6.74146 8.17537 6.67815 8.1524 6.5403 8.15333C5.65031 8.15849 4.75986 8.1613 3.86988 8.15146C3.69357 8.14958 3.65184 8.196 3.65231 8.37044C3.65793 11.8764 3.6584 15.382 3.65137 18.888C3.6509 19.0859 3.71936 19.114 3.89145 19.1131C4.98447 19.1065 6.07796 19.1037 7.17097 19.1149C7.3862 19.1173 7.44435 19.0591 7.44341 18.843C7.43497 16.9767 7.43825 15.1105 7.43919 13.2447C7.43919 13.1514 7.42418 13.0478 7.45795 12.9667C7.80822 12.1222 8.33527 11.4558 9.27871 11.2378C9.72042 11.1356 10.1663 11.1782 10.6015 11.2744C10.8092 11.3203 10.8636 11.2617 10.9035 11.0699C11.0976 10.1396 11.3039 9.21118 11.514 8.28416C11.5477 8.13505 11.5069 8.07268 11.3663 8.03423C10.7783 7.8734 10.1846 7.81853 9.58537 7.95217C8.60911 8.17021 7.90434 8.77088 7.34681 9.57083C7.24178 9.72182 7.14659 9.87984 7.04672 10.0346Z" fill="#FEFDFD"/>
<path d="M17.5246 13.179C17.5246 13.7413 17.5269 14.304 17.5232 14.8662C17.5222 15.0551 17.5405 15.2408 17.5823 15.4242C17.7281 16.0656 18.1614 16.407 18.8202 16.4126C19.095 16.415 19.3665 16.3976 19.6319 16.3235C19.7571 16.2888 19.8058 16.3174 19.834 16.4548C19.9934 17.2257 20.1645 17.9947 20.3352 18.7632C20.3615 18.8819 20.3399 18.9471 20.2128 18.9874C18.9533 19.3883 17.6737 19.5224 16.3842 19.1904C15.0244 18.8406 14.2619 17.893 13.9262 16.5669C13.7954 16.0502 13.7391 15.5231 13.7386 14.9904C13.7377 13.7638 13.7354 12.5376 13.7419 11.3109C13.7429 11.1524 13.7091 11.0924 13.5384 11.0995C13.1952 11.1131 12.851 11.0962 12.5073 11.1065C12.3502 11.1112 12.2893 11.0727 12.2911 10.902C12.2996 10.0899 12.2986 9.27728 12.2916 8.46467C12.2902 8.30946 12.346 8.26351 12.4918 8.25507C12.9279 8.22928 13.3631 8.18661 13.7996 8.16223C13.9243 8.15519 13.9637 8.12049 13.9797 7.99201C14.0969 7.05561 14.2305 6.12108 14.3459 5.18421C14.3735 4.96054 14.4251 4.85879 14.6901 4.86582C15.5331 4.88833 16.3772 4.8827 17.2207 4.8691C17.4538 4.86535 17.5358 4.91083 17.5312 5.16686C17.5133 6.08826 17.5297 7.01059 17.5194 7.93199C17.5171 8.12096 17.5738 8.1627 17.7534 8.15988C18.4329 8.14957 19.1128 8.16035 19.7922 8.15238C19.9535 8.1505 20.0225 8.1716 20.0196 8.36198C20.0074 9.20554 20.0084 10.0491 20.0192 10.8927C20.0215 11.0765 19.9615 11.1098 19.7936 11.1074C19.1062 11.0985 18.4188 11.1084 17.7314 11.0999C17.572 11.098 17.5176 11.1342 17.5204 11.3039C17.5312 11.9289 17.5246 12.554 17.5246 13.179Z" fill="#BD185D"/>
<path d="M7.0477 10.0346C7.14757 9.87987 7.24229 9.72185 7.34779 9.57086C7.90532 8.77091 8.61009 8.17024 9.58635 7.9522C10.1856 7.81856 10.7793 7.87342 11.3673 8.03425C11.5079 8.0727 11.5487 8.1346 11.515 8.28418C11.3049 9.21121 11.0986 10.1392 10.9045 11.07C10.8646 11.2617 10.8102 11.3203 10.6025 11.2744C10.1673 11.1783 9.72093 11.1356 9.27969 11.2378C8.33625 11.4559 7.8092 12.1222 7.45893 12.9667C7.42516 13.0483 7.44017 13.1514 7.44017 13.2447C7.43923 15.111 7.43595 16.9772 7.44439 18.843C7.44533 19.0592 7.38718 19.1168 7.17196 19.115C6.07894 19.1042 4.98592 19.1065 3.89243 19.1131C3.72034 19.114 3.65188 19.0859 3.65235 18.888C3.65938 15.382 3.65845 11.8765 3.65329 8.37046C3.65282 8.19603 3.69455 8.14961 3.87086 8.15148C4.76084 8.16133 5.65129 8.15851 6.54128 8.15336C6.6796 8.15242 6.74244 8.1754 6.76119 8.33576C6.82778 8.89845 6.9164 9.45832 6.99658 10.0196C7.01393 10.0248 7.03081 10.0294 7.0477 10.0346Z" fill="#BD185D"/>
</g>
</g>
<defs>
<clipPath id="clip0_303_140">
<rect width="24" height="24" fill="white"/>
</clipPath>
</defs>
</svg>
