<svg width="32" height="32" viewBox="0 0 32 32" fill="none" xmlns="http://www.w3.org/2000/svg">
<g id="Group 1261162632">
<circle id="Ellipse 3935" cx="16" cy="16" r="16" fill="#23AF91"/>
<path id="&#229;&#189;&#162;&#231;&#138;&#182;" fill-rule="evenodd" clip-rule="evenodd" d="M12.9023 16.0018L18.589 21.6893L22.1784 18.0999C22.8202 17.522 23.8021 17.5477 24.4129 18.1584C25.0236 18.7692 25.0493 19.7511 24.4714 20.3929L19.7346 25.1306C19.0983 25.7563 18.0778 25.7563 17.4416 25.1306L10.6076 18.2948V22.3578C10.6076 23.2545 9.88066 23.9815 8.98397 23.9815C8.08727 23.9815 7.36035 23.2545 7.36035 22.3578V9.64055C7.36035 8.74386 8.08727 8.01694 8.98397 8.01694C9.88066 8.01694 10.6076 8.74386 10.6076 9.64055V13.7036L17.4407 6.86956C18.0768 6.24335 19.0976 6.24335 19.7337 6.86956L24.474 11.6064C25.0519 12.2482 25.0262 13.2301 24.4155 13.8408C23.8048 14.4516 22.8228 14.4773 22.181 13.8993L18.5916 10.3099L12.9023 16.0018ZM18.5916 14.3765C17.9341 14.3761 17.3412 14.7719 17.0893 15.3792C16.8375 15.9866 16.9763 16.6858 17.4411 17.1508C17.9059 17.6159 18.6051 17.7551 19.2125 17.5036C19.82 17.2521 20.2161 16.6593 20.2161 16.0018C20.2163 15.5708 20.0453 15.1573 19.7407 14.8523C19.436 14.5473 19.0227 14.3767 18.5916 14.3765Z" fill="white"/>
</g>
</svg>
