<svg width="32" height="32" viewBox="0 0 32 32" fill="none" xmlns="http://www.w3.org/2000/svg">
<g id="Group 1261162634">
<circle id="Ellipse 3936" cx="16" cy="16" r="16" fill="#EEEDFF"/>
<g id="Group 1261162633">
<path id="Vector" d="M27.9905 19.0163L22.4983 9.48937C21.2942 7.50373 18.358 7.4826 17.1961 9.57386L11.4294 19.481C10.352 21.2976 11.6828 23.579 13.8375 23.579H25.3922C27.568 23.579 29.1945 21.2342 27.9905 19.0163Z" fill="#3156AA"/>
<path id="Vector_2" d="M20.0682 19.7561L19.7302 19.1646C19.4134 18.6154 18.7163 17.4324 18.7163 17.4324L14.069 9.36315C12.865 7.56762 10.0133 7.41975 8.80921 9.68001L3.40151 19.0379C2.28195 21.0024 3.61275 23.5583 6.04199 23.5795H17.5333H22.4341H25.3492C22.3707 23.6006 21.4202 22.0585 20.0682 19.7561Z" fill="#1972E2"/>
<path id="Vector_3" d="M20.0676 19.7559L19.7297 19.1645C19.4128 18.6153 18.7157 17.4323 18.7157 17.4323L15.7161 12.1514L11.4069 19.5025C10.3296 21.3191 11.6604 23.6005 13.815 23.6005H17.5117H22.4124H25.3486C22.3491 23.5794 21.4196 22.0585 20.0676 19.7559Z" fill="url(#paint0_linear_2904_2116)"/>
</g>
</g>
<defs>
<linearGradient id="paint0_linear_2904_2116" x1="9.87324" y1="16.1623" x2="23.2231" y2="21.0957" gradientUnits="userSpaceOnUse">
<stop stop-color="#264CA2" stop-opacity="0"/>
<stop offset="1" stop-color="#234588"/>
</linearGradient>
</defs>
</svg>
