<svg width="32" height="32" viewBox="0 0 32 32" fill="none" xmlns="http://www.w3.org/2000/svg">
<g id="Group 1261162637">
<circle id="Ellipse 3937" cx="16" cy="16" r="16" fill="#43D3DB"/>
<g id="Group 1261162635">
<path id="Vector" fill-rule="evenodd" clip-rule="evenodd" d="M15.992 26.2218C13.0314 26.2195 10.6466 25.5091 8.98028 24.2331C7.29398 22.9418 6.39941 21.1092 6.39941 19.0355C6.39941 17.0375 7.29202 15.5968 8.30201 14.623C9.09352 13.8598 9.96696 13.371 10.5752 13.0898C10.4376 12.6678 10.266 12.1152 10.1125 11.5445C9.90709 10.7807 9.70556 9.8847 9.70556 9.22808C9.70556 8.45089 9.87501 7.67037 10.3319 7.06388C10.8146 6.4231 11.5413 6.07983 12.4155 6.07983C13.0988 6.07983 13.6788 6.33328 14.133 6.77049C14.5671 7.1884 14.856 7.7434 15.0554 8.32196C15.406 9.33858 15.5425 10.6158 15.5807 11.8904H16.4181C16.4565 10.6158 16.5929 9.33858 16.9435 8.32196C17.1429 7.7434 17.4318 7.1884 17.8659 6.77049C18.3201 6.33328 18.9001 6.07983 19.5833 6.07983C20.4576 6.07983 21.1843 6.4231 21.667 7.06388C22.1239 7.67037 22.2934 8.45089 22.2934 9.22808C22.2934 9.8847 22.0917 10.7807 21.8864 11.5445C21.7328 12.1152 21.5612 12.6678 21.4237 13.0898C22.0319 13.371 22.9054 13.8598 23.6969 14.623C24.7069 15.5968 25.5994 17.0375 25.5994 19.0355C25.5994 21.1092 24.7049 22.9418 23.0186 24.2331C21.3523 25.5091 18.9674 26.2195 16.0068 26.2218H15.992Z" fill="#633001"/>
<path id="Vector_2" d="M12.4153 6.81885C11.1348 6.81885 10.5454 7.78386 10.5454 9.11844C10.5454 10.1792 11.2303 12.3037 11.5113 13.1308C11.5745 13.3168 11.4752 13.5206 11.294 13.5927C10.2678 14.0015 7.23926 15.4982 7.23926 18.926C7.23926 22.5367 10.3169 25.2592 15.9924 25.2635C15.9947 25.2635 15.9969 25.2634 15.9992 25.2634C16.0015 25.2634 16.0037 25.2635 16.006 25.2635C21.6814 25.2592 24.7591 22.5367 24.7591 18.926C24.7591 15.4982 21.7306 14.0015 20.7044 13.5927C20.5232 13.5206 20.424 13.3168 20.4871 13.1308C20.7682 12.3037 21.453 10.1792 21.453 9.11844C21.453 7.78386 20.8636 6.81885 19.5831 6.81885C17.74 6.81885 17.2805 9.45639 17.2477 12.2871C17.2456 12.4761 17.0943 12.6294 16.9073 12.6294H15.0912C14.9041 12.6294 14.7529 12.4761 14.7507 12.2871C14.7179 9.45639 14.2585 6.81885 12.4153 6.81885Z" fill="#D1884F"/>
<path id="Vector_3" d="M16.006 24.1069C11.8359 24.1069 7.24647 21.8519 7.23928 18.9329C7.23927 18.9373 7.23926 18.9419 7.23926 18.9465C7.23926 22.5601 10.3218 25.284 16.006 25.284C21.6901 25.284 24.7727 22.5601 24.7727 18.9465C24.7727 18.9419 24.7727 18.9373 24.7727 18.9329C24.7655 21.8519 20.176 24.1069 16.006 24.1069Z" fill="#FEDC90"/>
<path id="Vector_4" d="M13.6885 18.0364C13.6885 19.022 13.2274 19.5353 12.6587 19.5353C12.09 19.5353 11.6289 19.022 11.6289 18.0364C11.6289 17.0509 12.09 16.5376 12.6587 16.5376C13.2274 16.5376 13.6885 17.0509 13.6885 18.0364Z" fill="#633001"/>
<path id="Vector_5" d="M20.3828 18.0364C20.3828 19.022 19.9218 19.5353 19.353 19.5353C18.7843 19.5353 18.3232 19.022 18.3232 18.0364C18.3232 17.0509 18.7843 16.5376 19.353 16.5376C19.9218 16.5376 20.3828 17.0509 20.3828 18.0364Z" fill="#633001"/>
</g>
</g>
</svg>
