<svg width="6" height="10" viewBox="0 0 6 10" fill="none" xmlns="http://www.w3.org/2000/svg">
<path id="Icon" d="M1 1.84543L1 7.46421C1 7.88253 1 8.09169 1.08272 8.18854C1.15449 8.27258 1.26216 8.31718 1.37234 8.3085C1.49932 8.29851 1.64721 8.15061 1.94301 7.85482L4.7524 5.04543C4.88913 4.9087 4.95749 4.84034 4.9831 4.76151C5.00563 4.69217 5.00563 4.61747 4.9831 4.54813C4.95749 4.4693 4.88913 4.40094 4.7524 4.26421L1.94301 1.45482C1.64722 1.15903 1.49932 1.01113 1.37234 1.00113C1.26216 0.992463 1.15449 1.03706 1.08272 1.1211C1 1.21795 1 1.42711 1 1.84543Z" fill="#EEEDFF" stroke="#EEEDFF" stroke-width="2" stroke-linecap="round" stroke-linejoin="round"/>
</svg>
