<svg width="533" height="355" viewBox="0 0 533 355" fill="none" xmlns="http://www.w3.org/2000/svg">
<g filter="url(#filter0_d_140_411)">
<path d="M254.211 330.325C252.322 330.325 250.433 330.325 248.544 330.154C204.92 328.093 159.235 305.25 128.664 286.53C95.5174 266.264 72.5034 246.169 72.1599 245.998C71.4729 245.311 71.3011 244.28 71.9881 243.593C72.6751 242.906 73.7056 242.735 74.3926 243.422C74.5643 243.593 97.5784 263.516 130.382 283.61C160.609 302.159 205.607 324.658 248.544 326.719C284.782 328.436 312.605 311.948 317.586 285.671C318.788 279.488 318.616 272.447 316.555 265.233C302.987 264.89 288.045 263.172 271.558 260.424C209.385 249.776 172.632 236.036 168.166 221.781C166.964 218.003 168.166 214.568 171.258 211.477C182.765 200.313 221.064 196.706 255.242 208.385C293.885 221.61 312.605 242.391 318.96 261.97C353.652 262.657 377.697 254.757 390.578 238.441C411.703 211.648 394.7 170.773 394.528 170.429C394.185 169.57 394.528 168.54 395.387 168.197C396.246 167.853 397.276 168.197 397.62 169.055C398.307 170.773 415.653 212.335 393.154 240.674C379.758 257.676 355.198 265.92 319.818 265.577C321.708 272.962 321.879 280.175 320.677 286.53C316.899 308.685 294.572 330.325 254.211 330.325ZM211.79 204.607C194.443 204.607 180.017 208.213 174.006 213.881C171.773 216.114 171.086 218.347 171.773 220.751C173.147 225.388 184.826 241.876 272.416 256.989C288.217 259.737 302.644 261.283 315.697 261.798C309.17 243.593 291.137 224.186 254.383 211.648C240.3 206.668 225.358 204.607 211.79 204.607Z" fill="url(#paint0_linear_140_411)"/>
<path d="M480.609 40.8196L394.747 20.3252L355.609 96.3252L480.609 40.8196Z" fill="#DEDEDE"/>
<path d="M480.5 40L355.5 95.9999L391.87 177.168L516.685 121.324L480.5 40Z" fill="white"/>
<path d="M480.924 95.2043L425.106 151.537C422.873 153.77 419.267 153.77 417.206 151.537L338.717 73.9077C336.485 71.675 336.485 68.0684 338.717 66.0074L394.535 9.67453C396.768 7.44182 400.375 7.44182 402.435 9.67453L480.924 87.304C483.156 89.5367 483.156 92.9716 480.924 95.2043Z" fill="#6ECEE6"/>
<path d="M386.491 69.6216L367.533 88.7792C366.934 89.3778 365.937 89.3778 365.238 88.7792L346.879 70.5196C346.28 69.9209 346.28 68.9231 346.879 68.2247L365.837 49.067C366.435 48.4684 367.433 48.4684 368.132 49.067L386.491 67.3266C387.09 67.9253 387.189 68.9231 386.491 69.6216Z" fill="white"/>
<path d="M376.908 99.4132C376.048 99.4132 375.189 99.0693 374.501 98.3814C373.125 97.0055 373.125 94.9418 374.501 93.5659L419.903 47.6472C421.279 46.2714 423.343 46.2714 424.719 47.6472C426.095 49.0231 426.095 51.0868 424.719 52.4627L379.316 98.3814C378.8 99.0693 377.94 99.4132 376.908 99.4132Z" fill="white"/>
<path d="M389.119 111.28C388.259 111.28 387.399 110.936 386.712 110.248C385.336 108.872 385.336 106.808 386.712 105.433L432.114 59.5138C433.49 58.138 435.554 58.138 436.93 59.5138C438.306 60.8897 438.306 62.9534 436.93 64.3293L391.527 110.248C390.839 110.936 389.979 111.28 389.119 111.28Z" fill="white"/>
<path d="M401.158 123.319C400.298 123.319 399.439 122.975 398.751 122.287C397.375 120.911 397.375 118.847 398.751 117.471L444.153 71.5525C445.529 70.1767 447.593 70.1767 448.969 71.5525C450.345 72.9284 450.345 74.9921 448.969 76.368L403.566 122.287C402.878 122.975 402.018 123.319 401.158 123.319Z" fill="white"/>
<path d="M355.609 96.3252L436.609 108.76L392.033 177.325L355.609 96.3252Z" fill="url(#paint1_linear_140_411)"/>
<path d="M480.712 40.3252L436.609 108.89L516.609 121.325L480.712 40.3252Z" fill="url(#paint2_linear_140_411)"/>
<path d="M516.645 121.482L430.772 100.185L392.129 177.128L516.645 121.482Z" fill="url(#paint3_linear_140_411)"/>
<path d="M25.6178 263.688C25.4461 263.688 25.2743 263.688 25.1026 263.516C24.4156 263.344 24.0721 262.657 23.9003 261.97L16 154.113C16 153.426 16.3435 152.739 17.0305 152.396C17.7175 152.052 18.4045 152.224 18.9197 152.739L73.7068 211.992C74.3938 212.679 74.3938 213.709 73.7068 214.396L26.82 263.173C26.4765 263.516 25.9613 263.688 25.6178 263.688ZM19.7784 158.751L26.9918 258.02L70.1002 213.194L19.7784 158.751Z" fill="#F7F7FC"/>
<path d="M72.5074 214.912C71.9921 214.912 71.6487 214.74 71.3052 214.396L16.518 155.316C16.0028 154.629 15.831 153.77 16.3463 153.083C16.8615 152.396 17.7202 152.224 18.4072 152.568L125.062 204.607C125.749 204.95 126.092 205.637 125.921 206.496C125.749 207.183 125.234 207.87 124.375 207.87L72.6791 214.912H72.5074ZM25.2771 159.609L73.1944 211.305L118.535 205.122L25.2771 159.609Z" fill="#F7F7FC"/>
<path d="M73.3651 246.513C72.6781 246.513 72.1629 246.17 71.8194 245.483L61.6863 223.499C61.3428 222.64 61.6863 221.61 62.545 221.266C63.4038 220.923 64.4343 221.266 64.7778 222.125L71.4759 236.552L70.7889 213.366C70.7889 212.336 71.4759 211.649 72.5064 211.649C73.5368 211.649 74.2238 212.336 74.2238 213.366L75.0825 244.967C75.0825 245.826 74.5673 246.513 73.7086 246.685C73.7086 246.513 73.5368 246.513 73.3651 246.513Z" fill="#F7F7FC"/>
</g>
<defs>
<filter id="filter0_d_140_411" x="0" y="0" width="532.684" height="354.325" filterUnits="userSpaceOnUse" color-interpolation-filters="sRGB">
<feFlood flood-opacity="0" result="BackgroundImageFix"/>
<feColorMatrix in="SourceAlpha" type="matrix" values="0 0 0 0 0 0 0 0 0 0 0 0 0 0 0 0 0 0 127 0" result="hardAlpha"/>
<feOffset dy="8"/>
<feGaussianBlur stdDeviation="8"/>
<feComposite in2="hardAlpha" operator="out"/>
<feColorMatrix type="matrix" values="0 0 0 0 0 0 0 0 0 0 0 0 0 0 0 0 0 0 0.16 0"/>
<feBlend mode="normal" in2="BackgroundImageFix" result="effect1_dropShadow_140_411"/>
<feBlend mode="normal" in="SourceGraphic" in2="effect1_dropShadow_140_411" result="shape"/>
</filter>
<linearGradient id="paint0_linear_140_411" x1="394" y1="174" x2="77" y2="245" gradientUnits="userSpaceOnUse">
<stop stop-color="#F7F7FC"/>
<stop offset="1" stop-color="#F7F7FC" stop-opacity="0"/>
</linearGradient>
<linearGradient id="paint1_linear_140_411" x1="396.109" y1="96.3252" x2="396.109" y2="177.325" gradientUnits="userSpaceOnUse">
<stop stop-color="white"/>
<stop offset="1" stop-color="#D1D1D1"/>
</linearGradient>
<linearGradient id="paint2_linear_140_411" x1="453.5" y1="86.5" x2="511.5" y2="121" gradientUnits="userSpaceOnUse">
<stop stop-color="white"/>
<stop offset="1" stop-color="#DFDFDF"/>
</linearGradient>
<linearGradient id="paint3_linear_140_411" x1="454.387" y1="100.185" x2="454.387" y2="177.128" gradientUnits="userSpaceOnUse">
<stop stop-color="white"/>
<stop offset="1" stop-color="#EAEAEA"/>
</linearGradient>
</defs>
</svg>
