<svg width="144" height="218" viewBox="0 0 144 218" fill="none" xmlns="http://www.w3.org/2000/svg">
<path d="M115.619 217.17C114.84 217.17 114.187 216.812 114.187 216.368C114.187 215.924 114.815 215.551 115.594 215.551C117.528 215.537 119.386 215.48 121.119 215.38C121.923 215.337 122.601 215.652 122.701 216.096C122.777 216.54 122.224 216.941 121.445 216.998C119.637 217.098 117.678 217.156 115.619 217.17C115.644 217.17 115.644 217.17 115.619 217.17ZM109.943 217.07C109.918 217.07 109.868 217.07 109.843 217.07C108.009 216.998 106.075 216.898 104.091 216.755C103.313 216.697 102.76 216.296 102.861 215.838C102.961 215.394 103.69 215.079 104.468 215.136C106.377 215.279 108.26 215.38 110.044 215.451C110.822 215.48 111.425 215.867 111.375 216.311C111.324 216.74 110.697 217.07 109.943 217.07ZM126.895 216.44C126.242 216.44 125.665 216.196 125.514 215.824C125.338 215.394 125.79 214.95 126.569 214.835C128.427 214.577 130.16 214.234 131.667 213.833C132.395 213.646 133.224 213.818 133.551 214.234C133.877 214.635 133.576 215.122 132.847 215.308C131.165 215.752 129.256 216.124 127.222 216.411C127.146 216.425 127.021 216.44 126.895 216.44ZM98.6667 216.253C98.5914 216.253 98.4909 216.253 98.4156 216.239C96.5822 216.053 94.6986 215.838 92.7899 215.594C92.0114 215.494 91.5342 215.064 91.71 214.62C91.8858 214.176 92.6392 213.919 93.4178 214.004C95.3014 214.248 97.1347 214.463 98.943 214.635C99.7215 214.721 100.224 215.136 100.098 215.58C99.9475 215.981 99.3448 216.253 98.6667 216.253ZM87.5661 214.85C87.4406 214.85 87.315 214.835 87.1894 214.821C85.3812 214.549 83.5478 214.248 81.6642 213.933C80.9108 213.804 80.4839 213.346 80.7099 212.916C80.9359 212.486 81.7145 212.243 82.493 212.372C84.3264 212.687 86.1346 212.973 87.9177 213.245C88.6712 213.36 89.1232 213.804 88.9223 214.234C88.7716 214.606 88.194 214.85 87.5661 214.85ZM137.042 213.646C136.64 213.646 136.238 213.546 135.962 213.374C135.434 213.03 135.51 212.515 136.087 212.228C137.418 211.569 138.498 210.796 139.302 209.951C139.679 209.55 140.532 209.406 141.236 209.621C141.939 209.836 142.19 210.323 141.813 210.724C140.859 211.756 139.553 212.672 137.946 213.46C137.72 213.575 137.368 213.646 137.042 213.646ZM76.6665 212.987C76.5158 212.987 76.3651 212.973 76.2144 212.944C74.4313 212.601 72.623 212.243 70.8148 211.87C70.0614 211.713 69.6847 211.254 69.9609 210.824C70.2372 210.395 71.066 210.18 71.7943 210.337C73.6025 210.71 75.3605 211.068 77.1185 211.397C77.872 211.541 78.2738 211.999 78.0227 212.429C77.8217 212.773 77.2692 212.987 76.6665 212.987ZM65.9677 210.782C65.7919 210.782 65.6161 210.767 65.4403 210.724C63.6823 210.337 61.9243 209.922 60.1412 209.492C59.4129 209.32 59.0864 208.848 59.3878 208.432C59.6891 208.017 60.5179 207.831 61.2462 208.003C63.0042 208.432 64.7622 208.833 66.47 209.22C67.1983 209.378 67.5751 209.85 67.2737 210.28C67.0728 210.581 66.5203 210.782 65.9677 210.782ZM55.4699 208.26C55.269 208.26 55.0681 208.232 54.8923 208.189C53.1845 207.745 51.4516 207.301 49.6936 206.828C48.9904 206.642 48.6639 206.155 49.0155 205.739C49.342 205.338 50.1959 205.152 50.9242 205.353C52.6571 205.811 54.3649 206.269 56.0727 206.699C56.801 206.885 57.1275 207.358 56.801 207.773C56.5498 208.089 56.0224 208.26 55.4699 208.26ZM142.341 208.06C142.265 208.06 142.19 208.06 142.115 208.046C141.336 207.974 140.809 207.559 140.909 207.115C141.06 206.585 141.11 206.026 141.11 205.453C141.11 205.009 141.06 204.551 140.984 204.092C140.909 203.648 141.487 203.247 142.265 203.204C143.044 203.147 143.747 203.491 143.822 203.935C143.923 204.45 143.973 204.966 143.973 205.467C143.973 206.126 143.898 206.771 143.722 207.372C143.647 207.773 143.019 208.06 142.341 208.06ZM45.173 205.496C44.947 205.496 44.7461 205.467 44.5451 205.41C42.8625 204.923 41.1547 204.436 39.4469 203.935C38.7437 203.72 38.4675 203.233 38.8442 202.832C39.2209 202.431 40.0748 202.273 40.778 202.488C42.4606 202.989 44.1433 203.476 45.826 203.949C46.5292 204.149 46.8306 204.636 46.479 205.038C46.2027 205.338 45.7004 205.496 45.173 205.496ZM35.1021 202.488C34.8761 202.488 34.6501 202.459 34.424 202.388C32.7665 201.872 31.1089 201.342 29.4263 200.798C28.7482 200.568 28.497 200.081 28.8989 199.68C29.3007 199.294 30.1546 199.15 30.8578 199.38C32.5153 199.924 34.1478 200.439 35.8053 200.955C36.5085 201.17 36.7597 201.671 36.383 202.058C36.0816 202.345 35.6044 202.488 35.1021 202.488ZM141.361 201.643C140.733 201.643 140.156 201.414 139.98 201.041C139.528 200.096 138.925 199.093 138.197 198.062C137.895 197.646 138.247 197.174 138.975 197.002C139.704 196.83 140.532 197.03 140.834 197.446C141.612 198.534 142.24 199.594 142.743 200.597C142.943 201.027 142.516 201.485 141.738 201.6C141.612 201.643 141.487 201.643 141.361 201.643ZM25.207 199.279C24.9559 199.279 24.7048 199.236 24.4787 199.165C22.8463 198.62 21.239 198.047 19.6065 197.474C18.9284 197.245 18.7275 196.744 19.1545 196.357C19.5563 195.97 20.4353 195.856 21.1134 196.099C22.7207 196.672 24.3532 197.231 25.9605 197.775C26.6386 198.004 26.8646 198.506 26.4628 198.893C26.1865 199.136 25.7093 199.279 25.207 199.279ZM15.538 195.856C15.2617 195.856 15.0106 195.813 14.7594 195.727C13.1772 195.14 11.5699 194.552 9.98771 193.936C9.33473 193.693 9.15893 193.177 9.58588 192.805C10.0128 192.432 10.9169 192.332 11.5699 192.576C13.1521 193.177 14.7343 193.764 16.3165 194.352C16.9695 194.595 17.1704 195.097 16.7435 195.483C16.4672 195.727 16.0152 195.856 15.538 195.856ZM137.142 195.641C136.615 195.641 136.112 195.483 135.861 195.197C135.057 194.28 134.153 193.349 133.174 192.404C132.772 192.017 132.998 191.516 133.676 191.286C134.354 191.057 135.233 191.186 135.635 191.573C136.64 192.547 137.594 193.521 138.423 194.466C138.774 194.867 138.498 195.354 137.795 195.555C137.594 195.612 137.368 195.641 137.142 195.641ZM6.06986 192.26C5.7936 192.26 5.51734 192.217 5.2662 192.117C3.7091 191.501 2.15201 190.885 0.594916 190.241C-0.0580592 189.983 -0.183631 189.467 0.268428 189.109C0.720488 188.737 1.62461 188.665 2.25247 188.923C3.80956 189.553 5.34154 190.169 6.89863 190.785C7.55161 191.043 7.70229 191.544 7.25024 191.917C6.97398 192.132 6.52192 192.26 6.06986 192.26ZM131.391 190.04C130.939 190.04 130.462 189.911 130.21 189.682C129.206 188.823 128.151 187.949 126.996 187.046C126.544 186.688 126.669 186.173 127.322 185.915C127.95 185.643 128.854 185.729 129.306 186.101C130.462 187.018 131.567 187.92 132.571 188.794C132.998 189.166 132.822 189.668 132.169 189.926C131.918 189.997 131.642 190.04 131.391 190.04ZM124.735 184.783C124.309 184.783 123.882 184.669 123.605 184.468L120.114 181.904C119.637 181.546 119.738 181.045 120.366 180.758C120.993 180.486 121.898 180.543 122.375 180.901L125.866 183.465C126.343 183.824 126.242 184.339 125.614 184.611C125.338 184.726 125.037 184.783 124.735 184.783ZM117.754 179.655C117.327 179.655 116.9 179.541 116.624 179.34L113.133 176.776C112.655 176.418 112.756 175.917 113.384 175.63C114.012 175.358 114.916 175.415 115.393 175.773L118.884 178.337C119.361 178.696 119.261 179.211 118.633 179.483C118.382 179.598 118.055 179.655 117.754 179.655ZM110.772 174.542C110.345 174.542 109.918 174.427 109.642 174.226L106.151 171.662C105.674 171.304 105.774 170.803 106.402 170.516C107.03 170.244 107.909 170.302 108.411 170.66L111.902 173.224C112.379 173.582 112.279 174.083 111.651 174.37C111.375 174.484 111.073 174.542 110.772 174.542ZM103.79 169.413C103.363 169.413 102.936 169.299 102.66 169.098L99.169 166.534C98.6918 166.176 98.7923 165.675 99.4201 165.388C100.048 165.116 100.927 165.174 101.429 165.532L104.92 168.096C105.397 168.454 105.297 168.955 104.669 169.242C104.393 169.356 104.091 169.413 103.79 169.413ZM96.8082 164.3C96.3813 164.3 95.9543 164.185 95.6781 163.985L92.1872 161.421C91.71 161.062 91.8105 160.547 92.4383 160.275C93.0662 160.003 93.9703 160.06 94.4475 160.418L97.9384 162.982C98.4156 163.34 98.3151 163.856 97.6872 164.128C97.411 164.242 97.1096 164.3 96.8082 164.3ZM89.8264 159.172C89.3995 159.172 88.9725 159.057 88.6963 158.857L85.2305 156.293C84.7533 155.934 84.8789 155.419 85.4816 155.147C86.1095 154.874 87.0136 154.946 87.4908 155.29L90.9566 157.854C91.4338 158.212 91.3333 158.728 90.7054 159C90.4292 159.114 90.1278 159.172 89.8264 159.172ZM82.8949 154.029C82.4679 154.029 82.041 153.915 81.7647 153.714C80.6094 152.855 79.4542 151.995 78.2989 151.136C77.8217 150.778 77.9473 150.262 78.5752 149.99C79.203 149.718 80.1071 149.789 80.5843 150.148C81.7145 150.993 82.8697 151.852 84.025 152.726C84.5022 153.084 84.3766 153.6 83.7487 153.872C83.4976 153.972 83.1962 154.029 82.8949 154.029ZM75.9884 148.873C75.5614 148.873 75.1345 148.758 74.8582 148.558C73.703 147.684 72.5477 146.824 71.4176 145.965C70.9404 145.607 71.066 145.091 71.6938 144.819C72.3217 144.547 73.2258 144.618 73.703 144.977C74.8331 145.836 75.9633 146.695 77.1185 147.569C77.5957 147.927 77.4701 148.443 76.8423 148.715C76.5911 148.815 76.2898 148.873 75.9884 148.873ZM69.1573 143.687C68.7303 143.687 68.3034 143.573 68.002 143.358C66.8467 142.484 65.7166 141.61 64.6116 140.751C64.1344 140.393 64.2851 139.877 64.9129 139.605C65.5408 139.333 66.4449 139.419 66.9221 139.777C68.0271 140.636 69.1573 141.51 70.3125 142.384C70.7897 142.742 70.6641 143.258 70.0112 143.53C69.7349 143.63 69.4586 143.687 69.1573 143.687ZM62.4015 138.459C61.9494 138.459 61.5225 138.344 61.2462 138.13C60.1161 137.241 59.011 136.368 57.906 135.494C57.4539 135.122 57.5795 134.62 58.2325 134.362C58.8855 134.105 59.7645 134.176 60.2165 134.549C61.3216 135.422 62.4266 136.296 63.5568 137.17C64.0088 137.528 63.8832 138.044 63.2303 138.301C62.9791 138.416 62.6777 138.459 62.4015 138.459ZM55.7713 133.188C55.3192 133.188 54.8923 133.073 54.616 132.844C53.511 131.956 52.4059 131.068 51.3511 130.18C50.8991 129.807 51.0498 129.306 51.7027 129.048C52.3557 128.79 53.2347 128.876 53.6868 129.249C54.7667 130.122 55.8466 131.011 56.9517 131.899C57.4037 132.271 57.253 132.772 56.6001 133.03C56.3238 133.145 56.0475 133.188 55.7713 133.188ZM49.2667 127.859C48.8146 127.859 48.3625 127.73 48.0863 127.501C47.0063 126.599 45.9515 125.696 44.8967 124.808C44.4698 124.436 44.6456 123.934 45.2986 123.677C45.9515 123.433 46.8305 123.533 47.2826 123.906C48.3123 124.794 49.3671 125.682 50.447 126.584C50.8991 126.957 50.7233 127.458 50.0703 127.716C49.8192 127.816 49.5429 127.859 49.2667 127.859ZM42.9629 122.459C42.4858 122.459 42.0337 122.33 41.7574 122.087C40.7026 121.17 39.6981 120.253 38.6935 119.351C38.2665 118.964 38.4675 118.463 39.1455 118.233C39.8236 117.99 40.7026 118.104 41.1045 118.491C42.109 119.394 43.1136 120.296 44.1433 121.213C44.5703 121.585 44.3945 122.101 43.7164 122.344C43.4903 122.416 43.2392 122.459 42.9629 122.459ZM36.9104 116.973C36.4332 116.973 35.956 116.83 35.6798 116.586C34.6752 115.641 33.6957 114.71 32.7665 113.793C32.3646 113.406 32.5907 112.905 33.2688 112.676C33.9469 112.446 34.8259 112.575 35.2277 112.962C36.1569 113.879 37.1364 114.81 38.1158 115.741C38.5177 116.128 38.3168 116.629 37.6387 116.858C37.4126 116.93 37.1615 116.973 36.9104 116.973ZM31.1843 111.372C30.682 111.372 30.2048 111.215 29.9286 110.957C28.9993 109.997 28.0701 109.037 27.1911 108.092C26.8144 107.691 27.0906 107.204 27.7938 106.989C28.497 106.774 29.3509 106.932 29.7276 107.333C30.6066 108.264 31.4856 109.209 32.4149 110.169C32.7916 110.556 32.5405 111.057 31.8624 111.272C31.6614 111.329 31.4103 111.372 31.1843 111.372ZM25.8851 105.628C25.3577 105.628 24.8554 105.456 24.6043 105.17C23.7504 104.181 22.9216 103.193 22.1431 102.219C21.8166 101.804 22.118 101.331 22.8463 101.145C23.5746 100.959 24.4034 101.13 24.7299 101.546C25.5084 102.506 26.3121 103.48 27.166 104.454C27.5176 104.855 27.2162 105.342 26.513 105.542C26.3121 105.6 26.1112 105.628 25.8851 105.628ZM21.1636 99.7266C20.6111 99.7266 20.0837 99.5404 19.8577 99.2253C19.1042 98.194 18.401 97.1913 17.7481 96.1743C17.4718 95.7589 17.8485 95.2862 18.5768 95.1286C19.3303 94.971 20.1339 95.1859 20.4102 95.6013C21.0632 96.5897 21.7413 97.578 22.4696 98.5807C22.7709 98.9961 22.4193 99.4688 21.691 99.6407C21.5403 99.7123 21.3394 99.7266 21.1636 99.7266ZM17.2207 93.6532C16.6179 93.6532 16.0654 93.4384 15.8645 93.0946C15.2617 92.0346 14.7092 90.9746 14.232 89.9433C14.0311 89.5135 14.4832 89.0695 15.2366 88.9406C16.0152 88.826 16.7686 89.0838 16.9946 89.5135C17.4718 90.5162 17.9992 91.5476 18.5768 92.5789C18.828 93.0086 18.401 93.467 17.6476 93.6102C17.4969 93.6389 17.3713 93.6532 17.2207 93.6532ZM14.2823 87.3793C13.6293 87.3793 13.0265 87.1214 12.8759 86.7347C12.474 85.646 12.1475 84.5574 11.8713 83.4974C11.7708 83.0534 12.2982 82.638 13.0768 82.5807C13.8553 82.5091 14.5836 82.8242 14.6841 83.2682C14.9352 84.2996 15.2617 85.3596 15.6384 86.4052C15.7891 86.8493 15.312 87.279 14.5334 87.3649C14.4832 87.3793 14.3827 87.3793 14.2823 87.3793ZM12.7001 80.9764C11.9466 80.9764 11.3188 80.6469 11.2685 80.2172C11.143 79.2145 11.0927 78.2118 11.0927 77.2235V76.9083C11.0927 76.4643 11.7457 76.1062 12.5243 76.1062C12.5243 76.1062 12.5243 76.1062 12.5494 76.1062C13.3279 76.1062 13.9809 76.4786 13.9558 76.9226V77.2235C13.9558 78.1689 14.006 79.1286 14.1316 80.1026C14.1818 80.5466 13.6042 80.9477 12.8005 80.9764C12.7754 80.9764 12.7503 80.9764 12.7001 80.9764ZM12.8005 74.5019C12.7503 74.5019 12.7252 74.5019 12.6749 74.5019C11.8964 74.4589 11.3188 74.0721 11.3941 73.6138C11.5699 72.5251 11.8211 71.4079 12.1727 70.3336C12.3233 69.8895 13.0768 69.603 13.8302 69.6746C14.6088 69.7463 15.111 70.176 14.9855 70.62C14.659 71.6657 14.4078 72.7114 14.2572 73.7713C14.1567 74.1724 13.5288 74.5019 12.8005 74.5019ZM14.8097 68.1133C14.6841 68.1133 14.5585 68.099 14.433 68.0847C13.6795 67.9701 13.2275 67.526 13.4284 67.082C13.9307 66.022 14.5083 64.962 15.1613 63.9307C15.4375 63.5009 16.2412 63.2861 16.9946 63.4437C17.7481 63.6012 18.1248 64.0596 17.8485 64.4893C17.2207 65.492 16.643 66.509 16.1659 67.5117C16.0152 67.8841 15.4375 68.1133 14.8097 68.1133ZM18.6522 62.0256C18.4513 62.0256 18.2503 61.9969 18.0494 61.9539C17.3211 61.7677 17.0197 61.2807 17.3462 60.8796C18.1248 59.8913 19.0038 58.9029 19.9581 57.9289C20.3348 57.5278 21.1887 57.3846 21.8919 57.6137C22.57 57.8286 22.8212 58.3299 22.4445 58.7167C21.5403 59.6621 20.6864 60.6075 19.933 61.5529C19.707 61.8537 19.2047 62.0256 18.6522 62.0256ZM24.1522 56.3532C23.876 56.3532 23.6248 56.3102 23.3737 56.2243C22.7207 55.9808 22.5198 55.4794 22.9467 55.0927C23.9764 54.1903 25.0815 53.2735 26.2367 52.3854C26.6888 52.0273 27.5929 51.9414 28.2208 52.2135C28.8486 52.4857 28.9993 52.987 28.5221 53.3452C27.392 54.2046 26.3372 55.0927 25.3326 55.9665C25.0564 56.2243 24.6043 56.3532 24.1522 56.3532ZM30.8829 51.1249C30.5564 51.1249 30.2299 51.0676 29.9788 50.9387C29.376 50.6522 29.2756 50.1365 29.803 49.7928C30.9834 48.9763 32.2642 48.1455 33.5953 47.3147C34.1227 46.9852 35.0268 46.9566 35.6044 47.2717C36.182 47.5725 36.2323 48.0882 35.7049 48.4177C34.3989 49.2198 33.1683 50.0363 32.013 50.8241C31.7117 51.0246 31.2847 51.1249 30.8829 51.1249ZM38.5679 46.3407C38.1912 46.3407 37.8396 46.2547 37.5633 46.0971C37.0108 45.782 37.0108 45.2663 37.5633 44.9512C38.8944 44.192 40.2757 43.4472 41.7072 42.688C42.2848 42.3872 43.189 42.4015 43.7164 42.731C44.2438 43.0604 44.2187 43.5761 43.641 43.8769C42.2346 44.6218 40.8784 45.3523 39.5725 46.0971C39.2962 46.269 38.9195 46.3407 38.5679 46.3407Z" fill="url(#paint0_linear_230_784)"/>
<path d="M99.8347 0L41.4492 27.4302L46.9973 45.2785L99.8347 0Z" fill="url(#paint1_linear_230_784)"/>
<path d="M99.8357 0L41.4503 27.4302L31.7318 28.1005L25.9727 22.7758L99.8357 0Z" fill="url(#paint2_linear_230_784)"/>
<path d="M99.8373 0L52.5357 33.872L47 45.2785L99.8373 0Z" fill="url(#paint3_linear_230_784)"/>
<path d="M99.8368 0L52.5352 33.872L59.9078 42.0018L68.9685 45.3033L99.8368 0Z" fill="url(#paint4_linear_230_784)"/>
<circle cx="69.9727" cy="127" r="61" fill="url(#paint5_linear_230_784)"/>
<circle cx="69.9727" cy="127" r="41" fill="url(#paint6_linear_230_784)"/>
<path d="M51.9727 128.338L63.0345 139L88.9727 114" stroke="#F7F7FC" stroke-width="4" stroke-linecap="round" stroke-linejoin="round"/>
<defs>
<linearGradient id="paint0_linear_230_784" x1="136.864" y1="19.2527" x2="107.233" y2="203.655" gradientUnits="userSpaceOnUse">
<stop offset="0.0151515" stop-color="white"/>
<stop offset="1" stop-color="white" stop-opacity="0"/>
</linearGradient>
<linearGradient id="paint1_linear_230_784" x1="37.1787" y1="4.64039" x2="88.8414" y2="30.3029" gradientUnits="userSpaceOnUse">
<stop offset="0.171875" stop-color="#4ED5D2"/>
<stop offset="0.828125" stop-color="#9A4ED5"/>
</linearGradient>
<linearGradient id="paint2_linear_230_784" x1="-67.859" y1="48.2054" x2="91.3644" y2="8.55612" gradientUnits="userSpaceOnUse">
<stop stop-color="#4ED5D2"/>
<stop offset="1" stop-color="#D54EC7"/>
</linearGradient>
<linearGradient id="paint3_linear_230_784" x1="48.5435" y1="26.066" x2="73.4723" y2="22.6303" gradientUnits="userSpaceOnUse">
<stop offset="0.1414" stop-color="#4ED5D2"/>
<stop offset="1" stop-color="#9A4ED5"/>
</linearGradient>
<linearGradient id="paint4_linear_230_784" x1="57.837" y1="91.5481" x2="78.9935" y2="5.51132" gradientUnits="userSpaceOnUse">
<stop stop-color="#00C7C5"/>
<stop offset="1" stop-color="#B24ED5"/>
</linearGradient>
<linearGradient id="paint5_linear_230_784" x1="69.9727" y1="66" x2="69.9727" y2="188" gradientUnits="userSpaceOnUse">
<stop stop-color="#9C37FD"/>
<stop offset="1" stop-color="#312F69"/>
</linearGradient>
<linearGradient id="paint6_linear_230_784" x1="69.9727" y1="86" x2="69.9727" y2="168" gradientUnits="userSpaceOnUse">
<stop stop-color="#9C37FD"/>
<stop offset="1" stop-color="#9C37FD"/>
</linearGradient>
</defs>
</svg>
