<svg width="56" height="56" viewBox="0 0 56 56" fill="none" xmlns="http://www.w3.org/2000/svg">
<path d="M0 8C0 3.58172 3.58172 0 8 0H48C52.4183 0 56 3.58172 56 8V48C56 52.4183 52.4183 56 48 56H8C3.58172 56 0 52.4183 0 48V8Z" fill="url(#paint0_linear_83_2330)"/>
<path d="M18 28V24.6667H38V28M42.9547 24.6963L30.9584 32.6944C29.8892 33.4072 29.3546 33.7636 28.7768 33.9021C28.2662 34.0244 27.7338 34.0244 27.2232 33.9021C26.6454 33.7636 26.1108 33.4072 25.0416 32.6944L13.0453 24.6963M42.9547 24.6963C43 25.2334 43 25.9007 43 26.8429V33.3333C43 36.1336 43 37.5337 42.455 38.6033C41.9757 39.5441 41.2108 40.309 40.27 40.7884C39.2004 41.3333 37.8003 41.3333 35 41.3333H21C18.1997 41.3333 16.7996 41.3333 15.73 40.7884C14.7892 40.309 14.0243 39.5441 13.545 38.6033C13 37.5337 13 36.1336 13 33.3333V26.8429C13 25.9007 13 25.2334 13.0453 24.6963M42.9547 24.6963C42.9224 24.3129 42.8671 23.9958 42.7722 23.6924C42.5706 23.0475 42.2404 22.4502 41.8015 21.9365C41.3056 21.3561 40.622 20.9268 39.2547 20.0681L32.2547 15.672C30.7116 14.7029 29.94 14.2184 29.1121 14.0295C28.3801 13.8625 27.6199 13.8625 26.8879 14.0295C26.06 14.2184 25.2884 14.7029 23.7453 15.672L16.7453 20.0681C15.378 20.9268 14.6944 21.3561 14.1985 21.9365C13.7596 22.4502 13.4294 23.0475 13.2278 23.6924C13.1329 23.9958 13.0776 24.3129 13.0453 24.6963" stroke="#F7F7FC" stroke-width="2" stroke-linecap="round" stroke-linejoin="round"/>
<defs>
<linearGradient id="paint0_linear_83_2330" x1="1.49732e-06" y1="52" x2="56" y2="-1.56947e-06" gradientUnits="userSpaceOnUse">
<stop stop-color="#9610FF"/>
<stop offset="1" stop-color="#B14DFF" stop-opacity="0"/>
</linearGradient>
</defs>
</svg>
