<svg width="95" height="37" viewBox="0 0 95 37" fill="none" xmlns="http://www.w3.org/2000/svg">
<path d="M86.3165 6.5625L77.6329 0H0V23.5625V37H16.7468H95V13.125L86.3165 6.5625Z" fill="url(#paint0_linear_1_74317)"/>
<g clip-path="url(#clip0_1_74317)">
<path d="M13.8647 28.6563C23.2964 28.6563 28.4565 20.8403 28.4565 14.0645C28.4565 13.8447 28.4517 13.6201 28.4419 13.4004C29.4457 12.6745 30.312 11.7753 31 10.7451C30.0651 11.1611 29.0725 11.4327 28.0562 11.5508C29.1263 10.9093 29.9276 9.90156 30.3115 8.71437C29.3047 9.31103 28.2037 9.73192 27.0557 9.959C26.2821 9.13707 25.2594 8.59286 24.1455 8.4105C23.0316 8.22814 21.8887 8.41779 20.8935 8.95013C19.8982 9.48247 19.106 10.3278 18.6394 11.3556C18.1728 12.3833 18.0577 13.5361 18.312 14.6358C16.2734 14.5335 14.2791 14.0039 12.4583 13.0814C10.6375 12.1589 9.03093 10.864 7.74268 9.28078C7.08792 10.4097 6.88756 11.7455 7.18232 13.0168C7.47709 14.2881 8.24486 15.3995 9.32959 16.125C8.51524 16.0992 7.71872 15.8799 7.00586 15.4854V15.5488C7.00513 16.7335 7.41469 17.8819 8.16491 18.7987C8.91513 19.7156 9.95971 20.3444 11.1211 20.5781C10.3667 20.7845 9.57498 20.8146 8.80713 20.666C9.13485 21.6849 9.77247 22.576 10.631 23.215C11.4896 23.854 12.5262 24.209 13.5962 24.2305C11.7796 25.6574 9.5356 26.4314 7.22559 26.4278C6.81592 26.4271 6.40667 26.402 6 26.3526C8.34673 27.8581 11.0766 28.6577 13.8647 28.6563Z" fill="#181636"/>
</g>
<path d="M44.868 14.612V15.308H42.54V23H41.7V15.308H39.36V14.612H44.868ZM54.8344 16.448L52.7824 23H51.9424L50.1304 17.504L48.3184 23H47.4664L45.4144 16.448H46.2664L47.8984 22.148L49.7344 16.448H50.5744L52.3864 22.16L54.0064 16.448H54.8344ZM56.3995 15.212C56.2315 15.212 56.0875 15.152 55.9675 15.032C55.8475 14.912 55.7875 14.764 55.7875 14.588C55.7875 14.412 55.8475 14.268 55.9675 14.156C56.0875 14.036 56.2315 13.976 56.3995 13.976C56.5675 13.976 56.7115 14.036 56.8315 14.156C56.9515 14.268 57.0115 14.412 57.0115 14.588C57.0115 14.764 56.9515 14.912 56.8315 15.032C56.7115 15.152 56.5675 15.212 56.3995 15.212ZM56.8195 16.448V23H55.9795V16.448H56.8195ZM59.8137 17.156V21.224C59.8137 21.624 59.8897 21.9 60.0417 22.052C60.1937 22.204 60.4617 22.28 60.8457 22.28H61.6137V23H60.7137C60.1217 23 59.6817 22.864 59.3937 22.592C59.1057 22.312 58.9617 21.856 58.9617 21.224V17.156H58.0497V16.448H58.9617V14.804H59.8137V16.448H61.6137V17.156H59.8137ZM64.0911 17.156V21.224C64.0911 21.624 64.1671 21.9 64.3191 22.052C64.4711 22.204 64.7391 22.28 65.1231 22.28H65.8911V23H64.9911C64.3991 23 63.9591 22.864 63.6711 22.592C63.3831 22.312 63.2391 21.856 63.2391 21.224V17.156H62.3271V16.448H63.2391V14.804H64.0911V16.448H65.8911V17.156H64.0911ZM73.2044 19.388C73.2044 19.676 73.1964 19.896 73.1804 20.048H67.7444C67.7684 20.544 67.8884 20.968 68.1044 21.32C68.3204 21.672 68.6044 21.94 68.9564 22.124C69.3084 22.3 69.6924 22.388 70.1084 22.388C70.6524 22.388 71.1084 22.256 71.4764 21.992C71.8524 21.728 72.1004 21.372 72.2204 20.924H73.1084C72.9484 21.564 72.6044 22.088 72.0764 22.496C71.5564 22.896 70.9004 23.096 70.1084 23.096C69.4924 23.096 68.9404 22.96 68.4524 22.688C67.9644 22.408 67.5804 22.016 67.3004 21.512C67.0284 21 66.8924 20.404 66.8924 19.724C66.8924 19.044 67.0284 18.448 67.3004 17.936C67.5724 17.424 67.9524 17.032 68.4404 16.76C68.9284 16.488 69.4844 16.352 70.1084 16.352C70.7324 16.352 71.2764 16.488 71.7404 16.76C72.2124 17.032 72.5724 17.4 72.8204 17.864C73.0764 18.32 73.2044 18.828 73.2044 19.388ZM72.3524 19.364C72.3604 18.876 72.2604 18.46 72.0524 18.116C71.8524 17.772 71.5764 17.512 71.2244 17.336C70.8724 17.16 70.4884 17.072 70.0724 17.072C69.4484 17.072 68.9164 17.272 68.4764 17.672C68.0364 18.072 67.7924 18.636 67.7444 19.364H72.3524ZM75.5813 17.612C75.7653 17.204 76.0453 16.888 76.4213 16.664C76.8053 16.44 77.2733 16.328 77.8253 16.328V17.204H77.5973C76.9893 17.204 76.5013 17.368 76.1333 17.696C75.7653 18.024 75.5813 18.572 75.5813 19.34V23H74.7413V16.448H75.5813V17.612Z" fill="#181636"/>
<defs>
<linearGradient id="paint0_linear_1_74317" x1="95" y1="21.6314" x2="0.00942105" y2="20.2907" gradientUnits="userSpaceOnUse">
<stop stop-color="#D17BD8"/>
<stop offset="1" stop-color="#C785FB"/>
</linearGradient>
<clipPath id="clip0_1_74317">
<rect width="25" height="25" fill="white" transform="translate(6 6)"/>
</clipPath>
</defs>
</svg>
